<?xml version="1.0" standalone="no" ?>
<!DOCTYPE svg PUBLIC "-//W3C//DTD SVG 1.1//EN" "http://www.w3.org/Graphics/SVG/1.1/DTD/svg11.dtd">
<svg width="399px" height="241px" viewBox="0 0 399 241" style="background-color: #ffffff00" xmlns="http://www.w3.org/2000/svg" xmlns:xlink="http://www.w3.org/1999/xlink" version="1.1" >
<path stroke="transparent" fill="#000000" transform="matrix(0.0833333 0 0 0.0833333 -236.25 -258)" d="M 4460.08,5752.64 L 4440.08,5752.64 L 4440.08,5263.58 L 4450.08,5257.81 L 4460.08,5263.58 L 4460.08,5752.64 Z " />
<path stroke="transparent" fill="#000000" transform="matrix(0.0833333 0 0 0.0833333 -236.25 -258)" d="M 3508.49,5212.98 L 3498.49,5195.66 L 3920.45,4951.97 L 3930.45,4957.74 L 3930.45,4969.29 L 3508.49,5212.98 Z " />
<path stroke="transparent" fill="#000000" transform="matrix(0.0833333 0 0 0.0833333 -236.25 -258)" d="M 2886.25,4966.4 L 2896.25,4949.08 L 3323.27,5195.67 L 3313.27,5212.99 L 2886.25,4966.4 Z " />
<path stroke="transparent" fill="#000000" transform="matrix(0.0833333 0 0 0.0833333 -236.25 -258)" d="M 3505.92,4124.23 L 3515.92,4106.91 L 3930.45,4346.26 L 3930.45,4357.81 L 3920.45,4363.58 L 3505.92,4124.23 Z " />
<path stroke="transparent" fill="#000000" transform="matrix(0.0833333 0 0 0.0833333 -236.25 -258)" d="M 2896.25,4366.47 L 2886.25,4349.15 L 3306.28,4106.65 L 3316.28,4123.98 L 2896.25,4366.47 Z " />
<path stroke="transparent" fill="#000000" transform="matrix(0.0833333 0 0 0.0833333 -236.25 -258)" d="M 6518.55,4052.04 L 6528.55,4057.81 L 6528.55,4069.36 L 6018.92,4363.58 L 6008.92,4357.81 L 6008.92,4346.26 L 6518.55,4052.04 Z " />
<path stroke="transparent" fill="#000000" transform="matrix(0.0833333 0 0 0.0833333 -236.25 -258)" d="M 6518.55,3452.04 L 6538.55,3463.58 L 6538.55,4052.04 L 6528.55,4057.81 L 6518.55,4052.04 L 6518.55,3452.04 Z " />
<path stroke="transparent" fill="#000000" transform="matrix(0.0833333 0 0 0.0833333 -236.25 -258)" d="M 6590.55,3499.37 L 6610.55,3499.37 L 6610.55,4016.24 L 6590.55,4016.24 L 6590.55,3499.37 Z " />
<path stroke="transparent" fill="#000000" transform="matrix(0.0833333 0 0 0.0833333 -236.25 -258)" d="M 6538.55,3463.58 L 6518.55,3452.04 L 7048.12,3146.19 L 7048.12,3169.29 L 6538.55,3463.58 Z " />
<path stroke="transparent" fill="#000000" transform="matrix(0.0833333 0 0 0.0833333 -236.25 -258)" d="M 7048.12,3169.29 L 7048.12,3146.19 L 7577.75,3452.04 L 7557.75,3463.58 L 7048.12,3169.29 Z " />
<path stroke="transparent" fill="#000000" transform="matrix(0.0833333 0 0 0.0833333 -236.25 -258)" d="M 7043.12,3249.55 L 7053.12,3232.23 L 7500.75,3490.72 L 7490.75,3508.04 L 7043.12,3249.55 Z " />
<path stroke="transparent" fill="#000000" transform="matrix(0.0833333 0 0 0.0833333 -236.25 -258)" d="M 7557.75,3463.58 L 7577.75,3452.04 L 7577.75,4063.58 L 7557.75,4052.04 L 7557.75,3463.58 Z " />
<path stroke="transparent" fill="#000000" transform="matrix(0.0833333 0 0 0.0833333 -236.25 -258)" d="M 7557.75,4052.04 L 7577.75,4063.58 L 7048.12,4369.36 L 7048.12,4346.26 L 7557.75,4052.04 Z " />
<path stroke="transparent" fill="#000000" transform="matrix(0.0833333 0 0 0.0833333 -236.25 -258)" d="M 7490.75,4007.58 L 7500.75,4024.9 L 7053.12,4283.33 L 7043.12,4266.01 L 7490.75,4007.58 Z " />
<path stroke="transparent" fill="#000000" transform="matrix(0.0833333 0 0 0.0833333 -236.25 -258)" d="M 7048.12,4346.26 L 7048.12,4369.36 L 6528.55,4069.36 L 6528.55,4057.81 L 6538.55,4052.04 L 7048.12,4346.26 Z " />
<path stroke="transparent" fill="#000000" transform="matrix(0.0833333 0 0 0.0833333 -236.25 -258)" d="M 5535.28,5752.64 L 5515.28,5752.64 L 5515.28,5237.02 L 5535.28,5237.02 L 5535.28,5752.64 Z " />
<path stroke="transparent" fill="#000000" transform="matrix(0.0833333 0 0 0.0833333 -236.25 -258)" d="M 5463.28,5752.64 L 5443.28,5752.64 L 5443.28,5237.02 L 5463.28,5237.02 L 5463.28,5752.64 Z " />
<path stroke="transparent" fill="#000000" transform="matrix(0.0833333 0 0 0.0833333 -236.25 -258)" d="M 4969.72,4346.26 L 4969.72,4357.81 L 4959.72,4363.58 L 4450.08,4069.36 L 4450.08,4046.26 L 4969.72,4346.26 Z " />
<path stroke="transparent" fill="#000000" transform="matrix(0.0833333 0 0 0.0833333 -236.25 -258)" d="M 4902.72,4390.72 L 4892.72,4408.04 L 4445.08,4149.61 L 4455.08,4132.29 L 4902.72,4390.72 Z " />
<path stroke="transparent" fill="#000000" transform="matrix(0.0833333 0 0 0.0833333 -236.25 -258)" d="M 4959.72,4951.96 L 4969.72,4957.74 L 4969.72,4969.29 L 4460.08,5263.58 L 4450.08,5257.81 L 4450.08,5246.26 L 4959.72,4951.96 Z " />
<path stroke="transparent" fill="#000000" transform="matrix(0.0833333 0 0 0.0833333 -236.25 -258)" d="M 4892.71,4907.51 L 4902.71,4924.83 L 4455.08,5183.32 L 4445.08,5166 L 4892.71,4907.51 Z " />
<path stroke="transparent" fill="#000000" transform="matrix(0.0833333 0 0 0.0833333 -236.25 -258)" d="M 4450.08,5246.26 L 4450.08,5257.81 L 4440.08,5263.58 L 3930.45,4969.29 L 3930.45,4957.74 L 3940.45,4951.96 L 4450.08,5246.26 Z " />
<path stroke="transparent" fill="#000000" transform="matrix(0.0833333 0 0 0.0833333 -236.25 -258)" d="M 3940.45,4951.96 L 3930.45,4957.74 L 3920.45,4951.97 L 3920.45,4363.58 L 3930.45,4357.81 L 3940.45,4363.58 L 3940.45,4951.96 Z " />
<path stroke="transparent" fill="#000000" transform="matrix(0.0833333 0 0 0.0833333 -236.25 -258)" d="M 4012.44,4916.18 L 3992.44,4916.18 L 3992.44,4399.38 L 4012.44,4399.38 L 4012.44,4916.18 Z " />
<path stroke="transparent" fill="#000000" transform="matrix(0.0833333 0 0 0.0833333 -236.25 -258)" d="M 3940.45,4363.58 L 3930.45,4357.81 L 3930.45,4346.26 L 4450.08,4046.26 L 4450.08,4069.36 L 3940.45,4363.58 Z " />
<path stroke="transparent" fill="#000000" transform="matrix(0.0833333 0 0 0.0833333 -236.25 -258)" d="M 5584.32,4124.23 L 5594.32,4106.9 L 6008.92,4346.26 L 6008.92,4357.81 L 5998.92,4363.58 L 5584.32,4124.23 Z " />
<path stroke="transparent" fill="#000000" transform="matrix(0.0833333 0 0 0.0833333 -236.25 -258)" d="M 5384.68,4106.66 L 5394.68,4123.98 L 4979.72,4363.58 L 4969.72,4357.81 L 4969.72,4346.26 L 5384.68,4106.66 Z " />
<path stroke="transparent" fill="#000000" transform="matrix(0.0833333 0 0 0.0833333 -236.25 -258)" d="M 4959.72,4363.58 L 4969.72,4357.81 L 4979.72,4363.58 L 4979.72,4951.97 L 4969.72,4957.74 L 4959.72,4951.96 L 4959.72,4363.58 Z " />
<path stroke="transparent" fill="#000000" transform="matrix(0.0833333 0 0 0.0833333 -236.25 -258)" d="M 4969.72,4969.29 L 4969.72,4957.74 L 4979.72,4951.97 L 5489.28,5246.26 L 5489.28,5269.36 L 4969.72,4969.29 Z " />
<path stroke="transparent" fill="#000000" transform="matrix(0.0833333 0 0 0.0833333 -236.25 -258)" d="M 5489.28,5269.36 L 5489.28,5246.26 L 5998.92,4951.96 L 6018.92,4963.51 L 5489.28,5269.36 Z " />
<path stroke="transparent" fill="#000000" transform="matrix(0.0833333 0 0 0.0833333 -236.25 -258)" d="M 6018.92,4963.51 L 5998.92,4951.96 L 5998.92,4363.58 L 6008.92,4357.81 L 6018.92,4363.58 L 6018.92,4963.51 Z " />
<path stroke="transparent" fill="#000000" transform="matrix(0.0833333 0 0 0.0833333 -236.25 -258)" d="M 5946.93,4916.18 L 5926.93,4916.18 L 5926.93,4399.38 L 5946.93,4399.38 L 5946.93,4916.18 Z " />
<text x="0" y="0" stroke="transparent" fill="#000000" transform="matrix(0.0833333 0 0 0.0833333 128.09 236.651)" style="font:normal normal normal 200px 'Arial'" >
OH</text>
<text x="0" y="0" stroke="transparent" fill="#000000" transform="matrix(0.0833333 0 0 0.0833333 41.4902 186.651)" style="font:normal normal normal 200px 'Arial'" >
O</text>
<text x="0" y="0" stroke="transparent" fill="#000000" transform="matrix(0.0833333 0 0 0.0833333 41.4902 86.6509)" style="font:normal normal normal 200px 'Arial'" >
O</text>
<text x="0" y="0" stroke="transparent" fill="#000000" transform="matrix(0.0833333 0 0 0.0833333 214.69 236.651)" style="font:normal normal normal 200px 'Arial'" >
O</text>
<text x="0" y="0" stroke="transparent" fill="#000000" transform="matrix(0.0833333 0 0 0.0833333 214.69 86.6509)" style="font:normal normal normal 200px 'Arial'" >
O</text>
</svg>
