<?xml version="1.0" standalone="no" ?>
<!DOCTYPE svg PUBLIC "-//W3C//DTD SVG 1.1//EN" "http://www.w3.org/Graphics/SVG/1.1/DTD/svg11.dtd">
<svg width="388px" height="281px" viewBox="0 0 388 281" style="background-color: #ffffff00" xmlns="http://www.w3.org/2000/svg" xmlns:xlink="http://www.w3.org/1999/xlink" version="1.1" >
<text x="0" y="0" stroke="none" fill="#000000" transform="matrix(0.0666667 0 0 0.0666667 3.34992 277.631)" font-style="normal" font-weight="normal" font-size="200px" font-family="Arial" >
O</text>
<text x="0" y="0" stroke="none" fill="#000000" transform="matrix(0.0666667 0 0 0.0666667 234.836 77.5049)" font-style="normal" font-weight="normal" font-size="200px" font-family="Arial" >
O</text>
<text x="0" y="0" stroke="none" fill="#000000" transform="matrix(0.0666667 0 0 0.0666667 313.086 60.8698)" font-style="normal" font-weight="normal" font-size="200px" font-family="Arial" >
O</text>
<text x="0" y="0" stroke="none" fill="#000000" transform="matrix(0.0666667 0 0 0.0666667 364.576 14.5135)" font-style="normal" font-weight="normal" font-size="200px" font-family="Arial" >
O</text>
<text x="0" y="0" stroke="none" fill="#000000" transform="matrix(0.0666667 0 0 0.0666667 142.315 237.631)" font-style="normal" font-weight="normal" font-size="200px" font-family="Arial" >
H</text>
<text x="0" y="0" stroke="none" fill="#000000" transform="matrix(0.0666667 0 0 0.0666667 176.957 177.631)" font-style="normal" font-weight="normal" font-size="200px" font-family="Arial" >
H</text>
<text x="0" y="0" stroke="none" fill="#000000" transform="matrix(0.0666667 0 0 0.0666667 211.6 237.631)" font-style="normal" font-weight="normal" font-size="200px" font-family="Arial" >
H</text>
<path stroke="none" fill="#000000" transform="matrix(0.0666667 0 0 0.0666667 -154.787 -147)" d="M 2959.68,5385.69 L 2979.68,5397.24 L 2979.68,5985.69 L 2959.68,5997.24 L 2959.68,5385.69 Z " />
<path stroke="none" fill="#000000" transform="matrix(0.0666667 0 0 0.0666667 -154.787 -147)" d="M 3489.32,5079.92 L 3489.32,5103.01 L 2979.68,5397.24 L 2959.68,5385.69 L 3489.32,5079.92 Z " />
<path stroke="none" fill="#000000" transform="matrix(0.0666667 0 0 0.0666667 -154.787 -147)" d="M 3489.32,6279.92 L 3489.32,6303.01 L 2959.68,5997.24 L 2979.68,5985.69 L 3489.32,6279.92 Z " />
<path stroke="none" fill="#000000" transform="matrix(0.0666667 0 0 0.0666667 -154.787 -147)" d="M 3998.96,5985.69 L 4008.96,5991.46 L 4008.96,6003.01 L 3489.32,6303.01 L 3489.32,6279.92 L 3998.96,5985.69 Z " />
<path stroke="none" fill="#000000" transform="matrix(0.0666667 0 0 0.0666667 -154.787 -147)" d="M 3931.96,5941.23 L 3941.95,5958.55 L 3494.32,6216.98 L 3484.32,6199.66 L 3931.96,5941.23 Z " />
<path stroke="none" fill="#000000" transform="matrix(0.0666667 0 0 0.0666667 -154.787 -147)" d="M 4528.52,6279.92 L 4528.52,6303.01 L 4008.96,6003.01 L 4008.96,5991.46 L 4018.96,5985.69 L 4528.52,6279.92 Z " />
<path stroke="none" fill="#000000" transform="matrix(0.0666667 0 0 0.0666667 -154.787 -147)" d="M 5038.16,5985.69 L 5058.16,5997.24 L 4528.52,6303.01 L 4528.52,6279.92 L 5038.16,5985.69 Z " />
<path stroke="none" fill="#000000" transform="matrix(0.0666667 0 0 0.0666667 -154.787 -147)" d="M 5038.16,5397.24 L 5048.16,5391.46 L 5058.16,5397.24 L 5058.16,5997.24 L 5038.16,5985.69 L 5038.16,5397.24 Z " />
<path stroke="none" fill="#000000" transform="matrix(0.0666667 0 0 0.0666667 -154.787 -147)" d="M 5557.79,5085.69 L 5567.79,5091.46 L 5568.94,5102.35 L 5058.16,5397.24 L 5048.16,5391.46 L 5060.06,5373.04 L 5557.79,5085.69 Z " />
<path stroke="none" fill="#000000" transform="matrix(0.0666667 0 0 0.0666667 -154.787 -147)" d="M 6134.59,5265.16 L 6142.23,5288.68 L 5568.94,5102.35 L 5567.79,5091.46 L 5577.79,5084.2 L 6134.59,5265.16 Z " />
<path stroke="none" fill="#000000" transform="matrix(0.0666667 0 0 0.0666667 -154.787 -147)" d="M 6478.71,4791.47 L 6503.43,4791.46 L 6142.23,5288.68 L 6134.59,5265.16 L 6478.71,4791.47 Z " />
<path stroke="none" fill="#000000" transform="matrix(0.0666667 0 0 0.0666667 -154.787 -147)" d="M 6134.59,4317.84 L 6138.41,4306.08 L 6149.79,4304.73 L 6503.43,4791.46 L 6478.71,4791.47 L 6134.59,4317.84 Z " />
<path stroke="none" fill="#000000" transform="matrix(0.0666667 0 0 0.0666667 -154.787 -147)" d="M 6261.67,3738.45 L 6390.28,3731.55 L 6149.79,4304.73 L 6138.41,4306.08 L 6130,4298.3 L 6261.67,3738.45 Z " />
<path stroke="none" fill="#000000" transform="matrix(0.0666667 0 0 0.0666667 -154.787 -147)" d="M 6902.98,3602.08 L 6918.43,3619.25 L 6390.28,3731.55 L 6261.67,3738.45 L 6902.98,3602.08 Z " />
<path stroke="none" fill="#000000" transform="matrix(0.0666667 0 0 0.0666667 -154.787 -147)" d="M 5577.79,4498.73 L 5567.79,4491.46 L 5578.97,4477.32 L 6130,4298.3 L 6138.41,4306.08 L 6134.59,4317.84 L 5577.79,4498.73 Z " />
<path stroke="none" fill="#000000" transform="matrix(0.0666667 0 0 0.0666667 -154.787 -147)" d="M 5557.79,4497.24 L 5567.79,4491.46 L 5577.79,4498.73 L 5577.79,5084.2 L 5567.79,5091.46 L 5557.79,5085.69 L 5557.79,4497.24 Z " />
<path stroke="none" fill="#000000" transform="matrix(0.0666667 0 0 0.0666667 -154.787 -147)" d="M 5507.79,3891.47 L 5627.79,3891.47 L 5578.97,4477.32 L 5567.79,4491.46 L 5556.28,4473.27 L 5507.79,3891.47 Z " />
<path stroke="none" fill="#000000" transform="matrix(0.0666667 0 0 0.0666667 -154.787 -147)" d="M 5048.16,4203.01 L 5048.16,4179.92 L 5556.28,4473.27 L 5567.79,4491.46 L 5557.79,4497.24 L 5048.16,4203.01 Z " />
<path stroke="none" fill="#000000" transform="matrix(0.0666667 0 0 0.0666667 -154.787 -147)" d="M 4538.52,4497.24 L 4518.52,4485.69 L 5048.16,4179.92 L 5048.16,4203.01 L 4538.52,4497.24 Z " />
<path stroke="none" fill="#000000" transform="matrix(0.0666667 0 0 0.0666667 -154.787 -147)" d="M 4538.52,5085.69 L 4528.52,5091.46 L 4518.52,5085.69 L 4518.52,4485.69 L 4538.52,4497.24 L 4538.52,5085.69 Z " />
<path stroke="none" fill="#000000" transform="matrix(0.0666667 0 0 0.0666667 -154.787 -147)" d="M 4528.52,5103.01 L 4528.52,5091.46 L 4538.52,5085.69 L 5036.25,5373.04 L 5048.16,5391.46 L 5038.16,5397.24 L 4528.52,5103.01 Z " />
<path stroke="none" fill="#000000" transform="matrix(0.0666667 0 0 0.0666667 -154.787 -147)" d="M 4018.96,5397.24 L 4008.96,5391.46 L 4020.47,5373.27 L 4518.52,5085.69 L 4528.52,5091.46 L 4528.52,5103.01 L 4018.96,5397.24 Z " />
<path stroke="none" fill="#000000" transform="matrix(0.0666667 0 0 0.0666667 -154.787 -147)" d="M 3997.44,5373.27 L 4008.96,5391.46 L 3998.96,5397.24 L 3489.32,5103.01 L 3489.32,5079.92 L 3997.44,5373.27 Z " />
<path stroke="none" fill="#000000" transform="matrix(0.0666667 0 0 0.0666667 -154.787 -147)" d="M 3998.96,5397.24 L 4008.96,5391.46 L 4018.96,5397.24 L 4018.96,5985.69 L 4008.96,5991.46 L 3998.96,5985.69 L 3998.96,5397.24 Z " />
<path stroke="none" fill="#000000" transform="matrix(0.0666667 0 0 0.0666667 -154.787 -147)" d="M 3948.96,4791.46 L 4068.96,4791.46 L 4020.47,5373.27 L 4008.96,5391.46 L 3997.44,5373.27 L 3948.96,4791.46 Z " />
<path stroke="none" fill="#000000" transform="matrix(0.0666667 0 0 0.0666667 -154.787 -147)" d="M 2565.67,6277.83 L 2555.67,6260.51 L 3000.69,6003.59 L 3010.69,6020.91 L 2565.67,6277.83 Z " />
<path stroke="none" fill="#000000" transform="matrix(0.0666667 0 0 0.0666667 -154.787 -147)" d="M 2529.67,6215.48 L 2519.67,6198.15 L 2964.68,5941.23 L 2974.68,5958.56 L 2529.67,6215.48 Z " />
<path stroke="none" fill="#000000" transform="matrix(0.0666667 0 0 0.0666667 -154.787 -147)" d="M 5968.15,3409.2 L 5983.01,3395.82 L 6318.38,3768.31 L 6303.52,3781.69 L 5968.15,3409.2 Z " />
<path stroke="none" fill="#000000" transform="matrix(0.0666667 0 0 0.0666667 -154.787 -147)" d="M 6021.66,3361.03 L 6036.52,3347.65 L 6371.88,3720.13 L 6357.02,3733.51 L 6021.66,3361.03 Z " />
<path stroke="none" fill="#000000" transform="matrix(0.0666667 0 0 0.0666667 -154.787 -147)" d="M 7787.05,2446.32 L 7806.07,2452.5 L 7651.84,2927.05 L 7632.82,2920.87 L 7787.05,2446.32 Z " />
<path stroke="none" fill="#000000" transform="matrix(0.0666667 0 0 0.0666667 -154.787 -147)" d="M 7855.53,2468.57 L 7874.55,2474.75 L 7720.32,2949.3 L 7701.3,2943.12 L 7855.53,2468.57 Z " />
<path stroke="none" fill="#000000" transform="matrix(0.0666667 0 0 0.0666667 -154.787 -147)" d="M 8091.95,3354.52 L 8077.09,3367.9 L 7679.42,2926.3 L 7686.56,2904.34 L 8091.95,3354.52 Z " />
<path stroke="none" fill="#000000" transform="matrix(0.0666667 0 0 0.0666667 -154.787 -147)" d="M 7686.56,2904.34 L 7679.42,2926.3 L 7203.11,3027.52 L 7198.96,3007.96 L 7686.56,2904.34 Z " />
<path stroke="none" fill="#000000" transform="matrix(0.0666667 0 0 0.0666667 -154.787 -147)" d="M 7048.94,3152.8 L 7067.96,3158.97 L 6918.43,3619.25 L 6902.98,3602.08 L 7048.94,3152.8 Z " />
<path stroke="none" fill="#000000" transform="matrix(0.0666667 0 0 0.0666667 -154.787 -147)" d="M 4588.52,5588.63 L 4468.52,5588.63 L 4470.78,5568.63 L 4586.26,5568.63 L 4588.52,5588.63 Z " />
<path stroke="none" fill="#000000" transform="matrix(0.0666667 0 0 0.0666667 -154.787 -147)" d="M 4581.7,5528.18 L 4475.34,5528.18 L 4477.6,5508.18 L 4579.44,5508.18 L 4581.7,5528.18 Z " />
<path stroke="none" fill="#000000" transform="matrix(0.0666667 0 0 0.0666667 -154.787 -147)" d="M 4574.88,5467.73 L 4482.16,5467.73 L 4484.42,5447.73 L 4572.62,5447.73 L 4574.88,5467.73 Z " />
<path stroke="none" fill="#000000" transform="matrix(0.0666667 0 0 0.0666667 -154.787 -147)" d="M 4568.06,5407.28 L 4488.98,5407.28 L 4491.24,5387.28 L 4565.8,5387.28 L 4568.06,5407.28 Z " />
<path stroke="none" fill="#000000" transform="matrix(0.0666667 0 0 0.0666667 -154.787 -147)" d="M 4561.24,5346.83 L 4495.8,5346.83 L 4498.06,5326.83 L 4558.98,5326.83 L 4561.24,5346.83 Z " />
<path stroke="none" fill="#000000" transform="matrix(0.0666667 0 0 0.0666667 -154.787 -147)" d="M 4554.42,5286.38 L 4502.62,5286.38 L 4504.88,5266.38 L 4552.16,5266.38 L 4554.42,5286.38 Z " />
<path stroke="none" fill="#000000" transform="matrix(0.0666667 0 0 0.0666667 -154.787 -147)" d="M 4547.6,5225.93 L 4509.44,5225.93 L 4511.7,5205.93 L 4545.34,5205.93 L 4547.6,5225.93 Z " />
<path stroke="none" fill="#000000" transform="matrix(0.0666667 0 0 0.0666667 -154.787 -147)" d="M 4540.78,5165.48 L 4516.26,5165.48 L 4518.52,5145.48 L 4538.52,5145.48 L 4540.78,5165.48 Z " />
<path stroke="none" fill="#000000" transform="matrix(0.0666667 0 0 0.0666667 -154.787 -147)" d="M 4988.16,4908.63 L 5108.16,4908.63 L 5060.06,5373.04 L 5048.16,5391.46 L 5036.25,5373.04 L 4988.16,4908.63 Z " />
<path stroke="none" fill="#000000" transform="matrix(0.0666667 0 0 0.0666667 -154.787 -147)" d="M 5627.79,5588.63 L 5507.79,5588.63 L 5510.05,5568.63 L 5625.54,5568.63 L 5627.79,5588.63 Z " />
<path stroke="none" fill="#000000" transform="matrix(0.0666667 0 0 0.0666667 -154.787 -147)" d="M 5620.97,5528.18 L 5514.61,5528.18 L 5516.87,5508.18 L 5618.72,5508.18 L 5620.97,5528.18 Z " />
<path stroke="none" fill="#000000" transform="matrix(0.0666667 0 0 0.0666667 -154.787 -147)" d="M 5614.15,5467.73 L 5521.43,5467.73 L 5523.69,5447.73 L 5611.9,5447.73 L 5614.15,5467.73 Z " />
<path stroke="none" fill="#000000" transform="matrix(0.0666667 0 0 0.0666667 -154.787 -147)" d="M 5607.33,5407.28 L 5528.25,5407.28 L 5530.51,5387.28 L 5605.08,5387.28 L 5607.33,5407.28 Z " />
<path stroke="none" fill="#000000" transform="matrix(0.0666667 0 0 0.0666667 -154.787 -147)" d="M 5600.51,5346.83 L 5535.08,5346.83 L 5537.33,5326.83 L 5598.25,5326.83 L 5600.51,5346.83 Z " />
<path stroke="none" fill="#000000" transform="matrix(0.0666667 0 0 0.0666667 -154.787 -147)" d="M 5593.69,5286.38 L 5541.9,5286.38 L 5544.15,5266.38 L 5591.43,5266.38 L 5593.69,5286.38 Z " />
<path stroke="none" fill="#000000" transform="matrix(0.0666667 0 0 0.0666667 -154.787 -147)" d="M 5586.87,5225.93 L 5548.72,5225.93 L 5550.97,5205.93 L 5584.61,5205.93 L 5586.87,5225.93 Z " />
<path stroke="none" fill="#000000" transform="matrix(0.0666667 0 0 0.0666667 -154.787 -147)" d="M 5580.05,5165.48 L 5555.54,5165.48 L 5557.79,5145.48 L 5577.79,5145.48 L 5580.05,5165.48 Z " />
</svg>
