<?xml version="1.0" standalone="no" ?>
<!DOCTYPE svg PUBLIC "-//W3C//DTD SVG 1.1//EN" "http://www.w3.org/Graphics/SVG/1.1/DTD/svg11.dtd">
<svg width="648px" height="531px" viewBox="0 0 648 531" style="background-color: #ffffff00" xmlns="http://www.w3.org/2000/svg" xmlns:xlink="http://www.w3.org/1999/xlink" version="1.1" >
<text x="0" y="0" stroke="transparent" fill="#000000" transform="matrix(0.0833333 0 0 0.0833333 513.19 387.014)" style="font:normal normal normal 200px 'Arial'" >
O</text>
<text x="0" y="0" stroke="transparent" fill="#000000" transform="matrix(0.0833333 0 0 0.0833333 116.852 527.465)" style="font:normal normal normal 200px 'Arial'" >
HO</text>
<text x="0" y="0" stroke="transparent" fill="#000000" transform="matrix(0.0833333 0 0 0.0833333 215.49 332.465)" style="font:normal normal normal 200px 'Arial'" >
O</text>
<text x="0" y="0" stroke="transparent" fill="#000000" transform="matrix(0.0833333 0 0 0.0833333 102.907 317.465)" style="font:normal normal normal 200px 'Arial'" >
O</text>
<text x="0" y="0" stroke="transparent" fill="#000000" transform="matrix(0.0833333 0 0 0.0833333 4.2683 217.465)" style="font:normal normal normal 200px 'Arial'" >
HO</text>
<text x="0" y="0" stroke="transparent" fill="#000000" transform="matrix(0.0833333 0 0 0.0833333 102.907 167.465)" style="font:normal normal normal 200px 'Arial'" >
O</text>
<text x="0" y="0" stroke="transparent" fill="#000000" transform="matrix(0.0833333 0 0 0.0833333 189.51 167.465)" style="font:normal normal normal 200px 'Arial'" >
O</text>
<text x="0" y="0" stroke="transparent" fill="#000000" transform="matrix(0.0833333 0 0 0.0833333 276.112 67.4653)" style="font:normal normal normal 200px 'Arial'" >
OH</text>
<text x="0" y="0" stroke="transparent" fill="#000000" transform="matrix(0.0833333 0 0 0.0833333 189.51 17.4653)" style="font:normal normal normal 200px 'Arial'" >
OH</text>
<text x="0" y="0" stroke="transparent" fill="#000000" transform="matrix(0.0833333 0 0 0.0833333 90.8708 67.4653)" style="font:normal normal normal 200px 'Arial'" >
HO</text>
<text x="0" y="0" stroke="transparent" fill="#000000" transform="matrix(0.0833333 0 0 0.0833333 189.51 217.465)" style="font:normal normal normal 200px 'Arial'" >
O</text>
<text x="0" y="0" stroke="transparent" fill="#000000" transform="matrix(0.0833333 0 0 0.0833333 232.811 292.465)" style="font:normal normal normal 200px 'Arial'" >
O</text>
<text x="0" y="0" stroke="transparent" fill="#000000" transform="matrix(0.0833333 0 0 0.0833333 362.715 317.465)" style="font:normal normal normal 200px 'Arial'" >
OH</text>
<text x="0" y="0" stroke="transparent" fill="#000000" transform="matrix(0.0833333 0 0 0.0833333 362.715 217.465)" style="font:normal normal normal 200px 'Arial'" >
OH</text>
<text x="0" y="0" stroke="transparent" fill="#000000" transform="matrix(0.0833333 0 0 0.0833333 276.112 167.465)" style="font:normal normal normal 200px 'Arial'" >
OH</text>
<text x="0" y="0" stroke="transparent" fill="#000000" transform="matrix(0.0833333 0 0 0.0833333 507.964 287.288)" style="font:normal normal normal 200px 'Arial'" >
O</text>
<path stroke="transparent" fill="#000000" transform="matrix(0.0833333 0 0 0.0833333 -111.875 -103)" d="M 8999.75,4095.62 L 9070.28,4192.7 L 9053.02,4202.97 L 8984.64,4108.86 L 8999.75,4095.62 Z " />
<path stroke="transparent" fill="#000000" transform="matrix(0.0833333 0 0 0.0833333 -111.875 -103)" d="M 8955.62,4134.3 L 9019.86,4222.72 L 9002.6,4232.99 L 8940.51,4147.53 L 8955.62,4134.3 Z " />
<path stroke="transparent" fill="#000000" transform="matrix(0.0833333 0 0 0.0833333 -111.875 -103)" d="M 8911.49,4172.97 L 8969.44,4252.73 L 8952.18,4263.01 L 8896.39,4186.21 L 8911.49,4172.97 Z " />
<path stroke="transparent" fill="#000000" transform="matrix(0.0833333 0 0 0.0833333 -111.875 -103)" d="M 8867.36,4211.65 L 8919.02,4282.75 L 8901.76,4293.03 L 8852.26,4224.89 L 8867.36,4211.65 Z " />
<path stroke="transparent" fill="#000000" transform="matrix(0.0833333 0 0 0.0833333 -111.875 -103)" d="M 8823.23,4250.33 L 8868.6,4312.77 L 8851.34,4323.04 L 8808.13,4263.56 L 8823.23,4250.33 Z " />
<path stroke="transparent" fill="#000000" transform="matrix(0.0833333 0 0 0.0833333 -111.875 -103)" d="M 8779.1,4289 L 8818.18,4342.79 L 8800.92,4353.06 L 8764,4302.24 L 8779.1,4289 Z " />
<path stroke="transparent" fill="#000000" transform="matrix(0.0833333 0 0 0.0833333 -111.875 -103)" d="M 8734.97,4327.68 L 8767.76,4372.8 L 8750.5,4383.08 L 8719.87,4340.92 L 8734.97,4327.68 Z " />
<path stroke="transparent" fill="#000000" transform="matrix(0.0833333 0 0 0.0833333 -111.875 -103)" d="M 8690.85,4366.36 L 8717.34,4402.82 L 8700.08,4413.09 L 8675.74,4379.59 L 8690.85,4366.36 Z " />
<path stroke="transparent" fill="#000000" transform="matrix(0.0833333 0 0 0.0833333 -111.875 -103)" d="M 8646.72,4405.03 L 8666.92,4432.84 L 8649.66,4443.11 L 8631.61,4418.27 L 8646.72,4405.03 Z " />
<path stroke="transparent" fill="#000000" transform="matrix(0.0833333 0 0 0.0833333 -111.875 -103)" d="M 8602.59,4443.71 L 8616.5,4462.85 L 8599.24,4473.13 L 8587.49,4456.95 L 8602.59,4443.71 Z " />
<path stroke="transparent" fill="#000000" transform="matrix(0.0833333 0 0 0.0833333 -111.875 -103)" d="M 8622.87,5098.24 L 8601.77,5088.85 L 8540.26,4503.62 L 8558.95,4490.04 L 8622.87,5098.24 Z " />
<path stroke="transparent" fill="#000000" transform="matrix(0.0833333 0 0 0.0833333 -111.875 -103)" d="M 8083.12,5490.39 L 8174.3,5399.42 L 8601.77,5088.85 L 8622.87,5098.24 L 8083.12,5490.39 Z " />
<path stroke="transparent" fill="#000000" transform="matrix(0.0833333 0 0 0.0833333 -111.875 -103)" d="M 8174.3,5399.42 L 8083.12,5490.39 L 7588.78,5219.03 L 7578.78,5202.17 L 7582.85,5193.04 L 8174.3,5399.42 Z " />
<path stroke="transparent" fill="#000000" transform="matrix(0.0833333 0 0 0.0833333 -111.875 -103)" d="M 7062.74,5045.01 L 6955.06,4989 L 7581.87,5192.66 L 7578.78,5202.17 L 7568.78,5209.44 L 7062.74,5045.01 Z " />
<path stroke="transparent" fill="#000000" transform="matrix(0.0833333 0 0 0.0833333 -111.875 -103)" d="M 6955.06,4989 L 7062.74,5045.01 L 6668.2,5502.67 L 6655.48,5502.17 L 6648.9,5493.79 L 6955.06,4989 Z " />
<path stroke="transparent" fill="#000000" transform="matrix(0.0833333 0 0 0.0833333 -111.875 -103)" d="M 7011.52,5975.21 L 7008.15,5987.58 L 6995.79,5987.58 L 6651.66,5513.93 L 6655.48,5502.17 L 6668.2,5502.67 L 7011.52,5975.21 Z " />
<path stroke="transparent" fill="#000000" transform="matrix(0.0833333 0 0 0.0833333 -111.875 -103)" d="M 7453.76,5779.71 L 7490.84,5893.84 L 7014.04,5996.49 L 7008.15,5987.58 L 7011.52,5975.21 L 7453.76,5779.71 Z " />
<path stroke="transparent" fill="#000000" transform="matrix(0.0833333 0 0 0.0833333 -111.875 -103)" d="M 7588.78,5697.01 L 7568.78,5697.01 L 7568.78,5209.44 L 7578.78,5202.17 L 7588.78,5219.03 L 7588.78,5697.01 Z " />
<path stroke="transparent" fill="#000000" transform="matrix(0.0833333 0 0 0.0833333 -111.875 -103)" d="M 6628.85,6526.66 L 6683.03,6418.05 L 6995.79,5987.58 L 7008.15,5987.58 L 7014.04,5996.49 L 6628.85,6526.66 Z " />
<path stroke="transparent" fill="#000000" transform="matrix(0.0833333 0 0 0.0833333 -111.875 -103)" d="M 6683.03,6418.05 L 6628.85,6526.66 L 6085.59,6298.7 L 6084.84,6287.58 L 6094.84,6279.7 L 6683.03,6418.05 Z " />
<path stroke="transparent" fill="#000000" transform="matrix(0.0833333 0 0 0.0833333 -111.875 -103)" d="M 6074.84,5693.36 L 6084.84,5687.58 L 6094.84,5694.85 L 6094.84,6279.7 L 6084.84,6287.58 L 6074.84,6281.81 L 6074.84,5693.36 Z " />
<path stroke="transparent" fill="#000000" transform="matrix(0.0833333 0 0 0.0833333 -111.875 -103)" d="M 6094.84,5694.85 L 6084.84,5687.58 L 6097.79,5672.86 L 6648.9,5493.79 L 6655.48,5502.17 L 6651.66,5513.93 L 6094.84,5694.85 Z " />
<path stroke="transparent" fill="#000000" transform="matrix(0.0833333 0 0 0.0833333 -111.875 -103)" d="M 5565.23,5399.13 L 5565.23,5376.04 L 6075.25,5670.49 L 6084.84,5687.58 L 6074.84,5693.36 L 5565.23,5399.13 Z " />
<path stroke="transparent" fill="#000000" transform="matrix(0.0833333 0 0 0.0833333 -111.875 -103)" d="M 5107.64,5663.32 L 4987.45,5709.62 L 5565.23,5376.04 L 5565.23,5399.13 L 5107.64,5663.32 Z " />
<path stroke="transparent" fill="#000000" transform="matrix(0.0833333 0 0 0.0833333 -111.875 -103)" d="M 4987.45,5709.62 L 5107.64,5663.32 L 5056.07,6282.07 L 5045.61,6287.58 L 5035.15,6282.07 L 4987.45,5709.62 Z " />
<path stroke="transparent" fill="#000000" transform="matrix(0.0833333 0 0 0.0833333 -111.875 -103)" d="M 5565.23,6576.04 L 5565.23,6599.13 L 5045.61,6299.13 L 5045.61,6287.58 L 5056.07,6282.07 L 5565.23,6576.04 Z " />
<path stroke="transparent" fill="#000000" transform="matrix(0.0833333 0 0 0.0833333 -111.875 -103)" d="M 5565.23,6599.13 L 5565.23,6576.04 L 6074.84,6281.81 L 6084.84,6287.58 L 6085.59,6298.7 L 5565.23,6599.13 Z " />
<path stroke="transparent" fill="#000000" transform="matrix(0.0833333 0 0 0.0833333 -111.875 -103)" d="M 5625.23,7133.58 L 5505.23,7133.58 L 5507.26,7113.58 L 5623.2,7113.58 L 5625.23,7133.58 Z " />
<path stroke="transparent" fill="#000000" transform="matrix(0.0833333 0 0 0.0833333 -111.875 -103)" d="M 5619.23,7074.58 L 5511.23,7074.58 L 5513.26,7054.58 L 5617.2,7054.58 L 5619.23,7074.58 Z " />
<path stroke="transparent" fill="#000000" transform="matrix(0.0833333 0 0 0.0833333 -111.875 -103)" d="M 5613.24,7015.58 L 5517.22,7015.58 L 5519.25,6995.58 L 5611.2,6995.58 L 5613.24,7015.58 Z " />
<path stroke="transparent" fill="#000000" transform="matrix(0.0833333 0 0 0.0833333 -111.875 -103)" d="M 5607.24,6956.58 L 5523.22,6956.58 L 5525.25,6936.58 L 5605.21,6936.58 L 5607.24,6956.58 Z " />
<path stroke="transparent" fill="#000000" transform="matrix(0.0833333 0 0 0.0833333 -111.875 -103)" d="M 5601.25,6897.58 L 5529.21,6897.58 L 5531.25,6877.58 L 5599.21,6877.58 L 5601.25,6897.58 Z " />
<path stroke="transparent" fill="#000000" transform="matrix(0.0833333 0 0 0.0833333 -111.875 -103)" d="M 5595.25,6838.58 L 5535.21,6838.58 L 5537.24,6818.58 L 5593.22,6818.58 L 5595.25,6838.58 Z " />
<path stroke="transparent" fill="#000000" transform="matrix(0.0833333 0 0 0.0833333 -111.875 -103)" d="M 5589.25,6779.58 L 5541.2,6779.58 L 5543.24,6759.58 L 5587.22,6759.58 L 5589.25,6779.58 Z " />
<path stroke="transparent" fill="#000000" transform="matrix(0.0833333 0 0 0.0833333 -111.875 -103)" d="M 5583.26,6720.58 L 5547.2,6720.58 L 5549.23,6700.58 L 5581.23,6700.58 L 5583.26,6720.58 Z " />
<path stroke="transparent" fill="#000000" transform="matrix(0.0833333 0 0 0.0833333 -111.875 -103)" d="M 5577.26,6661.58 L 5553.2,6661.58 L 5555.23,6641.58 L 5575.23,6641.58 L 5577.26,6661.58 Z " />
<path stroke="transparent" fill="#000000" transform="matrix(0.0833333 0 0 0.0833333 -111.875 -103)" d="M 5045.61,7499.13 L 5045.61,7476.04 L 5560.23,7178.92 L 5570.23,7196.24 L 5045.61,7499.13 Z " />
<path stroke="transparent" fill="#000000" transform="matrix(0.0833333 0 0 0.0833333 -111.875 -103)" d="M 4526,7199.13 L 4526,7187.58 L 4536,7181.81 L 5045.61,7476.04 L 5045.61,7499.13 L 4526,7199.13 Z " />
<path stroke="transparent" fill="#000000" transform="matrix(0.0833333 0 0 0.0833333 -111.875 -103)" d="M 4593,7154.67 L 4603,7137.35 L 5050.61,7395.78 L 5040.61,7413.1 L 4593,7154.67 Z " />
<path stroke="transparent" fill="#000000" transform="matrix(0.0833333 0 0 0.0833333 -111.875 -103)" d="M 4516,6593.36 L 4526,6587.58 L 4536,6593.36 L 4536,7181.81 L 4526,7187.58 L 4516,7181.81 L 4516,6593.36 Z " />
<path stroke="transparent" fill="#000000" transform="matrix(0.0833333 0 0 0.0833333 -111.875 -103)" d="M 4536,6593.36 L 4526,6587.58 L 4537.52,6569.39 L 5035.15,6282.07 L 5045.61,6287.58 L 5045.61,6299.13 L 4536,6593.36 Z " />
<path stroke="transparent" fill="#000000" transform="matrix(0.0833333 0 0 0.0833333 -111.875 -103)" d="M 4006.38,6299.13 L 4006.38,6287.58 L 4016.66,6281.97 L 4514.48,6569.39 L 4526,6587.58 L 4516,6593.36 L 4006.38,6299.13 Z " />
<path stroke="transparent" fill="#000000" transform="matrix(0.0833333 0 0 0.0833333 -111.875 -103)" d="M 3496.77,6593.36 L 3476.77,6581.81 L 3996.11,6281.97 L 4006.38,6287.58 L 4006.38,6299.13 L 3496.77,6593.36 Z " />
<path stroke="transparent" fill="#000000" transform="matrix(0.0833333 0 0 0.0833333 -111.875 -103)" d="M 3496.77,7181.81 L 3486.77,7187.58 L 3476.77,7181.17 L 3476.77,6581.81 L 3496.77,6593.36 L 3496.77,7181.81 Z " />
<path stroke="transparent" fill="#000000" transform="matrix(0.0833333 0 0 0.0833333 -111.875 -103)" d="M 4006.38,7476.04 L 4006.38,7499.13 L 3487.32,7199.45 L 3486.77,7187.58 L 3496.77,7181.81 L 4006.38,7476.04 Z " />
<path stroke="transparent" fill="#000000" transform="matrix(0.0833333 0 0 0.0833333 -111.875 -103)" d="M 4006.38,7499.13 L 4006.38,7476.04 L 4516,7181.81 L 4526,7187.58 L 4526,7199.13 L 4006.38,7499.13 Z " />
<path stroke="transparent" fill="#000000" transform="matrix(0.0833333 0 0 0.0833333 -111.875 -103)" d="M 3089.76,7486.08 L 3029.76,7382.15 L 3476.77,7181.17 L 3486.77,7187.58 L 3487.32,7199.45 L 3089.76,7486.08 Z " />
<path stroke="transparent" fill="#000000" transform="matrix(0.0833333 0 0 0.0833333 -111.875 -103)" d="M 3946.38,5267.42 L 4066.38,5267.42 L 4016.66,6281.97 L 4006.38,6287.58 L 3996.11,6281.97 L 3946.38,5267.42 Z " />
<path stroke="transparent" fill="#000000" transform="matrix(0.0833333 0 0 0.0833333 -111.875 -103)" d="M 3943.76,5042.15 L 3883.76,5146.07 L 3867.07,5134.99 L 3925.82,5033.23 L 3943.76,5042.15 Z " />
<path stroke="transparent" fill="#000000" transform="matrix(0.0833333 0 0 0.0833333 -111.875 -103)" d="M 3893.83,5017.34 L 3837.31,5115.23 L 3820.62,5104.15 L 3875.89,5008.42 L 3893.83,5017.34 Z " />
<path stroke="transparent" fill="#000000" transform="matrix(0.0833333 0 0 0.0833333 -111.875 -103)" d="M 3843.9,4992.53 L 3790.86,5084.39 L 3774.17,5073.31 L 3825.95,4983.62 L 3843.9,4992.53 Z " />
<path stroke="transparent" fill="#000000" transform="matrix(0.0833333 0 0 0.0833333 -111.875 -103)" d="M 3793.97,4967.73 L 3744.41,5053.55 L 3727.72,5042.47 L 3776.02,4958.81 L 3793.97,4967.73 Z " />
<path stroke="transparent" fill="#000000" transform="matrix(0.0833333 0 0 0.0833333 -111.875 -103)" d="M 3744.04,4942.92 L 3697.96,5022.72 L 3681.27,5011.63 L 3726.09,4934 L 3744.04,4942.92 Z " />
<path stroke="transparent" fill="#000000" transform="matrix(0.0833333 0 0 0.0833333 -111.875 -103)" d="M 3694.1,4918.11 L 3651.51,4991.88 L 3634.82,4980.79 L 3676.16,4909.19 L 3694.1,4918.11 Z " />
<path stroke="transparent" fill="#000000" transform="matrix(0.0833333 0 0 0.0833333 -111.875 -103)" d="M 3644.17,4893.3 L 3605.06,4961.04 L 3588.37,4949.95 L 3626.23,4884.39 L 3644.17,4893.3 Z " />
<path stroke="transparent" fill="#000000" transform="matrix(0.0833333 0 0 0.0833333 -111.875 -103)" d="M 3594.24,4868.49 L 3558.61,4930.2 L 3541.92,4919.12 L 3576.29,4859.58 L 3594.24,4868.49 Z " />
<path stroke="transparent" fill="#000000" transform="matrix(0.0833333 0 0 0.0833333 -111.875 -103)" d="M 3544.31,4843.69 L 3512.16,4899.36 L 3495.47,4888.28 L 3526.36,4834.77 L 3544.31,4843.69 Z " />
<path stroke="transparent" fill="#000000" transform="matrix(0.0833333 0 0 0.0833333 -111.875 -103)" d="M 3494.37,4818.88 L 3465.71,4868.52 L 3449.02,4857.44 L 3476.43,4809.96 L 3494.37,4818.88 Z " />
<path stroke="transparent" fill="#000000" transform="matrix(0.0833333 0 0 0.0833333 -111.875 -103)" d="M 3444.44,4794.07 L 3419.26,4837.68 L 3402.57,4826.6 L 3426.5,4785.16 L 3444.44,4794.07 Z " />
<path stroke="transparent" fill="#000000" transform="matrix(0.0833333 0 0 0.0833333 -111.875 -103)" d="M 3394.51,4769.26 L 3372.81,4806.84 L 3356.12,4795.76 L 3376.56,4760.35 L 3394.51,4769.26 Z " />
<path stroke="transparent" fill="#000000" transform="matrix(0.0833333 0 0 0.0833333 -111.875 -103)" d="M 3344.58,4744.46 L 3326.36,4776.01 L 3309.67,4764.92 L 3326.63,4735.54 L 3344.58,4744.46 Z " />
<path stroke="transparent" fill="#000000" transform="matrix(0.0833333 0 0 0.0833333 -111.875 -103)" d="M 3294.65,4719.65 L 3279.91,4745.17 L 3263.22,4734.08 L 3276.7,4710.73 L 3294.65,4719.65 Z " />
<path stroke="transparent" fill="#000000" transform="matrix(0.0833333 0 0 0.0833333 -111.875 -103)" d="M 3244.71,4694.84 L 3233.46,4714.33 L 3216.77,4703.24 L 3226.77,4685.92 L 3244.71,4694.84 Z " />
<path stroke="transparent" fill="#000000" transform="matrix(0.0833333 0 0 0.0833333 -111.875 -103)" d="M 3165,4073.36 L 3175,4067.58 L 3185,4074.01 L 3185,4673.36 L 3165,4661.81 L 3165,4073.36 Z " />
<path stroke="transparent" fill="#000000" transform="matrix(0.0833333 0 0 0.0833333 -111.875 -103)" d="M 2655.38,3779.13 L 2655.38,3756.04 L 3174.44,4055.71 L 3175,4067.58 L 3165,4073.36 L 2655.38,3779.13 Z " />
<path stroke="transparent" fill="#000000" transform="matrix(0.0833333 0 0 0.0833333 -111.875 -103)" d="M 2145.77,4073.36 L 2125.77,4061.81 L 2655.38,3756.04 L 2655.38,3779.13 L 2145.77,4073.36 Z " />
<path stroke="transparent" fill="#000000" transform="matrix(0.0833333 0 0 0.0833333 -111.875 -103)" d="M 2145.77,4661.81 L 2125.77,4673.36 L 2125.77,4061.81 L 2145.77,4073.36 L 2145.77,4661.81 Z " />
<path stroke="transparent" fill="#000000" transform="matrix(0.0833333 0 0 0.0833333 -111.875 -103)" d="M 2567.76,4905.45 L 2557.76,4922.77 L 2125.77,4673.36 L 2145.77,4661.81 L 2567.76,4905.45 Z " />
<path stroke="transparent" fill="#000000" transform="matrix(0.0833333 0 0 0.0833333 -111.875 -103)" d="M 2753,4922.77 L 2743,4905.45 L 3165,4661.81 L 3185,4673.36 L 2753,4922.77 Z " />
<path stroke="transparent" fill="#000000" transform="matrix(0.0833333 0 0 0.0833333 -111.875 -103)" d="M 1646.15,5019.54 L 1586.15,4915.62 L 1604.39,4907.21 L 1662.56,5007.96 L 1646.15,5019.54 Z " />
<path stroke="transparent" fill="#000000" transform="matrix(0.0833333 0 0 0.0833333 -111.875 -103)" d="M 1694.09,4985.69 L 1639.44,4891.03 L 1657.68,4882.62 L 1710.5,4974.1 L 1694.09,4985.69 Z " />
<path stroke="transparent" fill="#000000" transform="matrix(0.0833333 0 0 0.0833333 -111.875 -103)" d="M 1742.03,4951.83 L 1692.73,4866.45 L 1710.97,4858.03 L 1758.43,4940.24 L 1742.03,4951.83 Z " />
<path stroke="transparent" fill="#000000" transform="matrix(0.0833333 0 0 0.0833333 -111.875 -103)" d="M 1789.97,4917.97 L 1746.02,4841.86 L 1764.26,4833.45 L 1806.37,4906.39 L 1789.97,4917.97 Z " />
<path stroke="transparent" fill="#000000" transform="matrix(0.0833333 0 0 0.0833333 -111.875 -103)" d="M 1837.91,4884.12 L 1799.31,4817.27 L 1817.55,4808.86 L 1854.31,4872.53 L 1837.91,4884.12 Z " />
<path stroke="transparent" fill="#000000" transform="matrix(0.0833333 0 0 0.0833333 -111.875 -103)" d="M 1885.84,4850.26 L 1852.61,4792.69 L 1870.84,4784.27 L 1902.25,4838.67 L 1885.84,4850.26 Z " />
<path stroke="transparent" fill="#000000" transform="matrix(0.0833333 0 0 0.0833333 -111.875 -103)" d="M 1933.78,4816.4 L 1905.9,4768.1 L 1924.13,4759.68 L 1950.19,4804.81 L 1933.78,4816.4 Z " />
<path stroke="transparent" fill="#000000" transform="matrix(0.0833333 0 0 0.0833333 -111.875 -103)" d="M 1981.72,4782.54 L 1959.19,4743.51 L 1977.42,4735.1 L 1998.13,4770.96 L 1981.72,4782.54 Z " />
<path stroke="transparent" fill="#000000" transform="matrix(0.0833333 0 0 0.0833333 -111.875 -103)" d="M 2029.66,4748.69 L 2012.48,4718.92 L 2030.71,4710.51 L 2046.06,4737.1 L 2029.66,4748.69 Z " />
<path stroke="transparent" fill="#000000" transform="matrix(0.0833333 0 0 0.0833333 -111.875 -103)" d="M 2077.6,4714.83 L 2065.77,4694.34 L 2084,4685.92 L 2094,4703.24 L 2077.6,4714.83 Z " />
<path stroke="transparent" fill="#000000" transform="matrix(0.0833333 0 0 0.0833333 -111.875 -103)" d="M 1686.18,3877.3 L 1746.18,3773.37 L 1762.34,3785.39 L 1704.66,3885.28 L 1686.18,3877.3 Z " />
<path stroke="transparent" fill="#000000" transform="matrix(0.0833333 0 0 0.0833333 -111.875 -103)" d="M 1740.37,3900.72 L 1793.55,3808.59 L 1809.71,3820.6 L 1758.85,3908.7 L 1740.37,3900.72 Z " />
<path stroke="transparent" fill="#000000" transform="matrix(0.0833333 0 0 0.0833333 -111.875 -103)" d="M 1794.55,3924.13 L 1840.93,3843.8 L 1857.09,3855.82 L 1813.03,3932.12 L 1794.55,3924.13 Z " />
<path stroke="transparent" fill="#000000" transform="matrix(0.0833333 0 0 0.0833333 -111.875 -103)" d="M 1848.73,3947.55 L 1888.3,3879.02 L 1904.46,3891.03 L 1867.22,3955.54 L 1848.73,3947.55 Z " />
<path stroke="transparent" fill="#000000" transform="matrix(0.0833333 0 0 0.0833333 -111.875 -103)" d="M 1902.92,3970.97 L 1935.68,3914.24 L 1951.83,3926.25 L 1921.4,3978.96 L 1902.92,3970.97 Z " />
<path stroke="transparent" fill="#000000" transform="matrix(0.0833333 0 0 0.0833333 -111.875 -103)" d="M 1957.1,3994.39 L 1983.05,3949.45 L 1999.21,3961.46 L 1975.59,4002.38 L 1957.1,3994.39 Z " />
<path stroke="transparent" fill="#000000" transform="matrix(0.0833333 0 0 0.0833333 -111.875 -103)" d="M 2011.29,4017.81 L 2030.42,3984.67 L 2046.58,3996.68 L 2029.77,4025.8 L 2011.29,4017.81 Z " />
<path stroke="transparent" fill="#000000" transform="matrix(0.0833333 0 0 0.0833333 -111.875 -103)" d="M 2065.47,4041.23 L 2077.8,4019.88 L 2093.96,4031.9 L 2083.96,4049.22 L 2065.47,4041.23 Z " />
<path stroke="transparent" fill="#000000" transform="matrix(0.0833333 0 0 0.0833333 -111.875 -103)" d="M 2595.38,3287.42 L 2715.38,3287.42 L 2713.04,3307.42 L 2597.73,3307.42 L 2595.38,3287.42 Z " />
<path stroke="transparent" fill="#000000" transform="matrix(0.0833333 0 0 0.0833333 -111.875 -103)" d="M 2602.19,3345.44 L 2708.58,3345.44 L 2706.23,3365.44 L 2604.54,3365.44 L 2602.19,3345.44 Z " />
<path stroke="transparent" fill="#000000" transform="matrix(0.0833333 0 0 0.0833333 -111.875 -103)" d="M 2609,3403.46 L 2701.77,3403.46 L 2699.42,3423.46 L 2611.35,3423.46 L 2609,3403.46 Z " />
<path stroke="transparent" fill="#000000" transform="matrix(0.0833333 0 0 0.0833333 -111.875 -103)" d="M 2615.81,3461.48 L 2694.96,3461.48 L 2692.61,3481.48 L 2618.15,3481.48 L 2615.81,3461.48 Z " />
<path stroke="transparent" fill="#000000" transform="matrix(0.0833333 0 0 0.0833333 -111.875 -103)" d="M 2622.61,3519.5 L 2688.15,3519.5 L 2685.81,3539.5 L 2624.96,3539.5 L 2622.61,3519.5 Z " />
<path stroke="transparent" fill="#000000" transform="matrix(0.0833333 0 0 0.0833333 -111.875 -103)" d="M 2629.42,3577.52 L 2681.35,3577.52 L 2679,3597.52 L 2631.77,3597.52 L 2629.42,3577.52 Z " />
<path stroke="transparent" fill="#000000" transform="matrix(0.0833333 0 0 0.0833333 -111.875 -103)" d="M 2636.23,3635.54 L 2674.54,3635.54 L 2672.19,3655.54 L 2638.58,3655.54 L 2636.23,3635.54 Z " />
<path stroke="transparent" fill="#000000" transform="matrix(0.0833333 0 0 0.0833333 -111.875 -103)" d="M 2643.04,3693.56 L 2667.73,3693.56 L 2665.38,3713.56 L 2645.38,3713.56 L 2643.04,3693.56 Z " />
<path stroke="transparent" fill="#000000" transform="matrix(0.0833333 0 0 0.0833333 -111.875 -103)" d="M 2778,3166.07 L 2718,3062.15 L 3165,2861.17 L 3175,2867.58 L 3175.55,2879.45 L 2778,3166.07 Z " />
<path stroke="transparent" fill="#000000" transform="matrix(0.0833333 0 0 0.0833333 -111.875 -103)" d="M 3165,2261.81 L 3185,2273.36 L 3185,2861.81 L 3175,2867.58 L 3165,2861.17 L 3165,2261.81 Z " />
<path stroke="transparent" fill="#000000" transform="matrix(0.0833333 0 0 0.0833333 -111.875 -103)" d="M 3684.05,1962.14 L 3694.61,1967.58 L 3694.61,1979.13 L 3185,2273.36 L 3165,2261.81 L 3684.05,1962.14 Z " />
<path stroke="transparent" fill="#000000" transform="matrix(0.0833333 0 0 0.0833333 -111.875 -103)" d="M 4224.23,2261.81 L 4204.23,2273.36 L 3694.61,1979.13 L 3694.61,1967.58 L 3705.18,1962.14 L 4224.23,2261.81 Z " />
<path stroke="transparent" fill="#000000" transform="matrix(0.0833333 0 0 0.0833333 -111.875 -103)" d="M 4224.23,2873.36 L 4204.23,2861.81 L 4204.23,2273.36 L 4224.23,2261.81 L 4224.23,2873.36 Z " />
<path stroke="transparent" fill="#000000" transform="matrix(0.0833333 0 0 0.0833333 -111.875 -103)" d="M 3792.23,3122.77 L 3782.23,3105.45 L 4204.23,2861.81 L 4224.23,2873.36 L 3792.23,3122.77 Z " />
<path stroke="transparent" fill="#000000" transform="matrix(0.0833333 0 0 0.0833333 -111.875 -103)" d="M 3607,3105.45 L 3597,3122.77 L 3175.55,2879.45 L 3175,2867.58 L 3185,2861.81 L 3607,3105.45 Z " />
<path stroke="transparent" fill="#000000" transform="matrix(0.0833333 0 0 0.0833333 -111.875 -103)" d="M 4604.24,1973.13 L 4664.24,2077.05 L 4645.76,2085.04 L 4588.08,1985.14 L 4604.24,1973.13 Z " />
<path stroke="transparent" fill="#000000" transform="matrix(0.0833333 0 0 0.0833333 -111.875 -103)" d="M 4556.81,2008.37 L 4610,2100.5 L 4591.52,2108.49 L 4540.65,2020.38 L 4556.81,2008.37 Z " />
<path stroke="transparent" fill="#000000" transform="matrix(0.0833333 0 0 0.0833333 -111.875 -103)" d="M 4509.39,2043.62 L 4555.76,2123.95 L 4537.28,2131.94 L 4493.23,2055.63 L 4509.39,2043.62 Z " />
<path stroke="transparent" fill="#000000" transform="matrix(0.0833333 0 0 0.0833333 -111.875 -103)" d="M 4461.96,2078.87 L 4501.53,2147.4 L 4483.04,2155.39 L 4445.8,2090.88 L 4461.96,2078.87 Z " />
<path stroke="transparent" fill="#000000" transform="matrix(0.0833333 0 0 0.0833333 -111.875 -103)" d="M 4414.53,2114.12 L 4447.29,2170.85 L 4428.81,2178.84 L 4398.37,2126.13 L 4414.53,2114.12 Z " />
<path stroke="transparent" fill="#000000" transform="matrix(0.0833333 0 0 0.0833333 -111.875 -103)" d="M 4367.1,2149.36 L 4393.05,2194.3 L 4374.57,2202.29 L 4350.94,2161.37 L 4367.1,2149.36 Z " />
<path stroke="transparent" fill="#000000" transform="matrix(0.0833333 0 0 0.0833333 -111.875 -103)" d="M 4319.68,2184.61 L 4338.81,2217.75 L 4320.33,2225.74 L 4303.52,2196.62 L 4319.68,2184.61 Z " />
<path stroke="transparent" fill="#000000" transform="matrix(0.0833333 0 0 0.0833333 -111.875 -103)" d="M 4272.25,2219.86 L 4284.57,2241.2 L 4266.09,2249.19 L 4256.09,2231.87 L 4272.25,2219.86 Z " />
<path stroke="transparent" fill="#000000" transform="matrix(0.0833333 0 0 0.0833333 -111.875 -103)" d="M 3634.61,1487.42 L 3754.61,1487.42 L 3705.18,1962.14 L 3694.61,1967.58 L 3684.05,1962.14 L 3634.61,1487.42 Z " />
<path stroke="transparent" fill="#000000" transform="matrix(0.0833333 0 0 0.0833333 -111.875 -103)" d="M 2725.41,2077.3 L 2785.41,1973.37 L 2801.57,1985.38 L 2743.89,2085.28 L 2725.41,2077.3 Z " />
<path stroke="transparent" fill="#000000" transform="matrix(0.0833333 0 0 0.0833333 -111.875 -103)" d="M 2779.6,2100.71 L 2832.79,2008.59 L 2848.94,2020.6 L 2798.08,2108.7 L 2779.6,2100.71 Z " />
<path stroke="transparent" fill="#000000" transform="matrix(0.0833333 0 0 0.0833333 -111.875 -103)" d="M 2833.78,2124.13 L 2880.16,2043.8 L 2896.32,2055.82 L 2852.26,2132.12 L 2833.78,2124.13 Z " />
<path stroke="transparent" fill="#000000" transform="matrix(0.0833333 0 0 0.0833333 -111.875 -103)" d="M 2887.97,2147.55 L 2927.53,2079.02 L 2943.69,2091.03 L 2906.45,2155.54 L 2887.97,2147.55 Z " />
<path stroke="transparent" fill="#000000" transform="matrix(0.0833333 0 0 0.0833333 -111.875 -103)" d="M 2942.15,2170.97 L 2974.91,2114.24 L 2991.06,2126.25 L 2960.63,2178.96 L 2942.15,2170.97 Z " />
<path stroke="transparent" fill="#000000" transform="matrix(0.0833333 0 0 0.0833333 -111.875 -103)" d="M 2996.33,2194.39 L 3022.28,2149.45 L 3038.44,2161.46 L 3014.82,2202.38 L 2996.33,2194.39 Z " />
<path stroke="transparent" fill="#000000" transform="matrix(0.0833333 0 0 0.0833333 -111.875 -103)" d="M 3050.52,2217.81 L 3069.65,2184.67 L 3085.81,2196.68 L 3069,2225.8 L 3050.52,2217.81 Z " />
<path stroke="transparent" fill="#000000" transform="matrix(0.0833333 0 0 0.0833333 -111.875 -103)" d="M 3104.7,2241.23 L 3117.03,2219.88 L 3133.19,2231.9 L 3123.19,2249.22 L 3104.7,2241.23 Z " />
<path stroke="transparent" fill="#000000" transform="matrix(0.0833333 0 0 0.0833333 -111.875 -103)" d="M 3565.01,3773.13 L 3625.01,3877.05 L 3185,4074.01 L 3175,4067.58 L 3174.44,4055.71 L 3565.01,3773.13 Z " />
<path stroke="transparent" fill="#000000" transform="matrix(0.0833333 0 0 0.0833333 -111.875 -103)" d="M 3764.65,3877.3 L 3824.65,3773.38 L 4214.79,4055.71 L 4214.23,4067.58 L 4204.23,4074.01 L 3764.65,3877.3 Z " />
<path stroke="transparent" fill="#000000" transform="matrix(0.0833333 0 0 0.0833333 -111.875 -103)" d="M 4733.84,3756.04 L 4733.84,3779.13 L 4224.23,4073.36 L 4214.23,4067.58 L 4214.79,4055.71 L 4733.84,3756.04 Z " />
<path stroke="transparent" fill="#000000" transform="matrix(0.0833333 0 0 0.0833333 -111.875 -103)" d="M 5263.46,4061.81 L 5243.46,4073.36 L 4733.84,3779.13 L 4733.84,3756.04 L 5263.46,4061.81 Z " />
<path stroke="transparent" fill="#000000" transform="matrix(0.0833333 0 0 0.0833333 -111.875 -103)" d="M 5263.46,4661.17 L 5253.46,4667.58 L 5243.46,4661.81 L 5243.46,4073.36 L 5263.46,4061.81 L 5263.46,4661.17 Z " />
<path stroke="transparent" fill="#000000" transform="matrix(0.0833333 0 0 0.0833333 -111.875 -103)" d="M 4733.84,4979.13 L 4733.84,4956.04 L 5243.46,4661.81 L 5253.46,4667.58 L 5252.91,4679.45 L 4733.84,4979.13 Z " />
<path stroke="transparent" fill="#000000" transform="matrix(0.0833333 0 0 0.0833333 -111.875 -103)" d="M 4309.27,4734 L 4319.27,4716.68 L 4733.84,4956.04 L 4733.84,4979.13 L 4309.27,4734 Z " />
<path stroke="transparent" fill="#000000" transform="matrix(0.0833333 0 0 0.0833333 -111.875 -103)" d="M 4224.23,4562.42 L 4204.23,4562.42 L 4204.23,4074.01 L 4214.23,4067.58 L 4224.23,4073.36 L 4224.23,4562.42 Z " />
<path stroke="transparent" fill="#000000" transform="matrix(0.0833333 0 0 0.0833333 -111.875 -103)" d="M 4793.84,5567.58 L 4673.84,5567.58 L 4675.68,5547.58 L 4792.01,5547.58 L 4793.84,5567.58 Z " />
<path stroke="transparent" fill="#000000" transform="matrix(0.0833333 0 0 0.0833333 -111.875 -103)" d="M 4788.49,5509.14 L 4679.2,5509.14 L 4681.03,5489.14 L 4786.66,5489.14 L 4788.49,5509.14 Z " />
<path stroke="transparent" fill="#000000" transform="matrix(0.0833333 0 0 0.0833333 -111.875 -103)" d="M 4783.14,5450.69 L 4684.55,5450.69 L 4686.38,5430.69 L 4781.31,5430.69 L 4783.14,5450.69 Z " />
<path stroke="transparent" fill="#000000" transform="matrix(0.0833333 0 0 0.0833333 -111.875 -103)" d="M 4777.79,5392.25 L 4689.9,5392.25 L 4691.73,5372.25 L 4775.96,5372.25 L 4777.79,5392.25 Z " />
<path stroke="transparent" fill="#000000" transform="matrix(0.0833333 0 0 0.0833333 -111.875 -103)" d="M 4772.44,5333.81 L 4695.25,5333.81 L 4697.08,5313.81 L 4770.6,5313.81 L 4772.44,5333.81 Z " />
<path stroke="transparent" fill="#000000" transform="matrix(0.0833333 0 0 0.0833333 -111.875 -103)" d="M 4767.08,5275.36 L 4700.6,5275.36 L 4702.44,5255.36 L 4765.25,5255.36 L 4767.08,5275.36 Z " />
<path stroke="transparent" fill="#000000" transform="matrix(0.0833333 0 0 0.0833333 -111.875 -103)" d="M 4761.73,5216.92 L 4705.96,5216.92 L 4707.79,5196.92 L 4759.9,5196.92 L 4761.73,5216.92 Z " />
<path stroke="transparent" fill="#000000" transform="matrix(0.0833333 0 0 0.0833333 -111.875 -103)" d="M 4756.38,5158.47 L 4711.31,5158.47 L 4713.14,5138.47 L 4754.55,5138.47 L 4756.38,5158.47 Z " />
<path stroke="transparent" fill="#000000" transform="matrix(0.0833333 0 0 0.0833333 -111.875 -103)" d="M 4751.03,5100.03 L 4716.66,5100.03 L 4718.49,5080.03 L 4749.2,5080.03 L 4751.03,5100.03 Z " />
<path stroke="transparent" fill="#000000" transform="matrix(0.0833333 0 0 0.0833333 -111.875 -103)" d="M 4745.68,5041.58 L 4722.01,5041.58 L 4723.84,5021.58 L 4743.84,5021.58 L 4745.68,5041.58 Z " />
<path stroke="transparent" fill="#000000" transform="matrix(0.0833333 0 0 0.0833333 -111.875 -103)" d="M 5710.46,4862.15 L 5650.46,4966.07 L 5252.91,4679.45 L 5253.46,4667.58 L 5263.46,4661.17 L 5710.46,4862.15 Z " />
<path stroke="transparent" fill="#000000" transform="matrix(0.0833333 0 0 0.0833333 -111.875 -103)" d="M 5643.47,3773.13 L 5703.47,3877.05 L 5684.99,3885.04 L 5627.31,3785.14 L 5643.47,3773.13 Z " />
<path stroke="transparent" fill="#000000" transform="matrix(0.0833333 0 0 0.0833333 -111.875 -103)" d="M 5596.04,3808.38 L 5649.23,3900.5 L 5630.75,3908.49 L 5579.88,3820.39 L 5596.04,3808.38 Z " />
<path stroke="transparent" fill="#000000" transform="matrix(0.0833333 0 0 0.0833333 -111.875 -103)" d="M 5548.62,3843.62 L 5594.99,3923.95 L 5576.51,3931.94 L 5532.46,3855.63 L 5548.62,3843.62 Z " />
<path stroke="transparent" fill="#000000" transform="matrix(0.0833333 0 0 0.0833333 -111.875 -103)" d="M 5501.19,3878.87 L 5540.76,3947.4 L 5522.27,3955.39 L 5485.03,3890.88 L 5501.19,3878.87 Z " />
<path stroke="transparent" fill="#000000" transform="matrix(0.0833333 0 0 0.0833333 -111.875 -103)" d="M 5453.76,3914.12 L 5486.52,3970.85 L 5468.04,3978.84 L 5437.6,3926.13 L 5453.76,3914.12 Z " />
<path stroke="transparent" fill="#000000" transform="matrix(0.0833333 0 0 0.0833333 -111.875 -103)" d="M 5406.34,3949.36 L 5432.28,3994.3 L 5413.8,4002.29 L 5390.17,3961.37 L 5406.34,3949.36 Z " />
<path stroke="transparent" fill="#000000" transform="matrix(0.0833333 0 0 0.0833333 -111.875 -103)" d="M 5358.91,3984.61 L 5378.04,4017.75 L 5359.56,4025.74 L 5342.75,3996.62 L 5358.91,3984.61 Z " />
<path stroke="transparent" fill="#000000" transform="matrix(0.0833333 0 0 0.0833333 -111.875 -103)" d="M 5311.48,4019.86 L 5323.8,4041.2 L 5305.32,4049.19 L 5295.32,4031.87 L 5311.48,4019.86 Z " />
<path stroke="transparent" fill="#000000" transform="matrix(0.0833333 0 0 0.0833333 -111.875 -103)" d="M 4673.84,3287.42 L 4793.84,3287.42 L 4791.5,3307.42 L 4676.19,3307.42 L 4673.84,3287.42 Z " />
<path stroke="transparent" fill="#000000" transform="matrix(0.0833333 0 0 0.0833333 -111.875 -103)" d="M 4680.65,3345.44 L 4787.04,3345.44 L 4784.69,3365.44 L 4683,3365.44 L 4680.65,3345.44 Z " />
<path stroke="transparent" fill="#000000" transform="matrix(0.0833333 0 0 0.0833333 -111.875 -103)" d="M 4687.46,3403.46 L 4780.23,3403.46 L 4777.88,3423.46 L 4689.81,3423.46 L 4687.46,3403.46 Z " />
<path stroke="transparent" fill="#000000" transform="matrix(0.0833333 0 0 0.0833333 -111.875 -103)" d="M 4694.27,3461.48 L 4773.42,3461.48 L 4771.07,3481.48 L 4696.61,3481.48 L 4694.27,3461.48 Z " />
<path stroke="transparent" fill="#000000" transform="matrix(0.0833333 0 0 0.0833333 -111.875 -103)" d="M 4701.07,3519.5 L 4766.61,3519.5 L 4764.27,3539.5 L 4703.42,3539.5 L 4701.07,3519.5 Z " />
<path stroke="transparent" fill="#000000" transform="matrix(0.0833333 0 0 0.0833333 -111.875 -103)" d="M 4707.88,3577.52 L 4759.81,3577.52 L 4757.46,3597.52 L 4710.23,3597.52 L 4707.88,3577.52 Z " />
<path stroke="transparent" fill="#000000" transform="matrix(0.0833333 0 0 0.0833333 -111.875 -103)" d="M 4714.69,3635.54 L 4753,3635.54 L 4750.65,3655.54 L 4717.04,3655.54 L 4714.69,3635.54 Z " />
<path stroke="transparent" fill="#000000" transform="matrix(0.0833333 0 0 0.0833333 -111.875 -103)" d="M 4721.5,3693.56 L 4746.19,3693.56 L 4743.84,3713.56 L 4723.84,3713.56 L 4721.5,3693.56 Z " />
<path stroke="transparent" fill="#000000" transform="matrix(0.0833333 0 0 0.0833333 -111.875 -103)" d="M 4466,5987.58 L 4586,5987.58 L 4537.52,6569.39 L 4526,6587.58 L 4514.48,6569.39 L 4466,5987.58 Z " />
<path stroke="transparent" fill="#000000" transform="matrix(0.0833333 0 0 0.0833333 -111.875 -103)" d="M 6087.89,5084.6 L 6207.23,5097.14 L 6097.79,5672.86 L 6084.84,5687.58 L 6075.25,5670.49 L 6087.89,5084.6 Z " />
<path stroke="transparent" fill="#000000" transform="matrix(0.0833333 0 0 0.0833333 -111.875 -103)" d="M 6765.68,4464.67 L 6879.8,4427.59 L 6884.24,4447.17 L 6773.6,4483.12 L 6765.68,4464.67 Z " />
<path stroke="transparent" fill="#000000" transform="matrix(0.0833333 0 0 0.0833333 -111.875 -103)" d="M 6788.83,4518.6 L 6892.77,4484.83 L 6897.21,4504.41 L 6796.75,4537.05 L 6788.83,4518.6 Z " />
<path stroke="transparent" fill="#000000" transform="matrix(0.0833333 0 0 0.0833333 -111.875 -103)" d="M 6811.98,4572.53 L 6905.74,4542.06 L 6910.18,4561.65 L 6819.9,4590.98 L 6811.98,4572.53 Z " />
<path stroke="transparent" fill="#000000" transform="matrix(0.0833333 0 0 0.0833333 -111.875 -103)" d="M 6835.13,4626.46 L 6918.71,4599.3 L 6923.15,4618.89 L 6843.05,4644.92 L 6835.13,4626.46 Z " />
<path stroke="transparent" fill="#000000" transform="matrix(0.0833333 0 0 0.0833333 -111.875 -103)" d="M 6858.28,4680.39 L 6931.68,4656.54 L 6936.12,4676.13 L 6866.2,4698.85 L 6858.28,4680.39 Z " />
<path stroke="transparent" fill="#000000" transform="matrix(0.0833333 0 0 0.0833333 -111.875 -103)" d="M 6881.43,4734.32 L 6944.65,4713.78 L 6949.09,4733.36 L 6889.35,4752.78 L 6881.43,4734.32 Z " />
<path stroke="transparent" fill="#000000" transform="matrix(0.0833333 0 0 0.0833333 -111.875 -103)" d="M 6904.58,4788.25 L 6957.62,4771.01 L 6962.06,4790.6 L 6912.5,4806.71 L 6904.58,4788.25 Z " />
<path stroke="transparent" fill="#000000" transform="matrix(0.0833333 0 0 0.0833333 -111.875 -103)" d="M 6927.73,4842.18 L 6970.59,4828.25 L 6975.03,4847.84 L 6935.65,4860.64 L 6927.73,4842.18 Z " />
<path stroke="transparent" fill="#000000" transform="matrix(0.0833333 0 0 0.0833333 -111.875 -103)" d="M 6950.88,4896.11 L 6983.56,4885.49 L 6988,4905.08 L 6958.8,4914.57 L 6950.88,4896.11 Z " />
<path stroke="transparent" fill="#000000" transform="matrix(0.0833333 0 0 0.0833333 -111.875 -103)" d="M 6974.03,4950.04 L 6996.53,4942.73 L 7000.97,4962.32 L 6981.95,4968.5 L 6974.03,4950.04 Z " />
<path stroke="transparent" fill="#000000" transform="matrix(0.0833333 0 0 0.0833333 -111.875 -103)" d="M 7468.87,4730.47 L 7588.22,4717.93 L 7587.98,4738.07 L 7473.3,4750.12 L 7468.87,4730.47 Z " />
<path stroke="transparent" fill="#000000" transform="matrix(0.0833333 0 0 0.0833333 -111.875 -103)" d="M 7481.72,4787.52 L 7587.52,4776.4 L 7587.28,4796.54 L 7486.14,4807.17 L 7481.72,4787.52 Z " />
<path stroke="transparent" fill="#000000" transform="matrix(0.0833333 0 0 0.0833333 -111.875 -103)" d="M 7494.56,4844.57 L 7586.82,4834.87 L 7586.58,4855.01 L 7498.98,4864.21 L 7494.56,4844.57 Z " />
<path stroke="transparent" fill="#000000" transform="matrix(0.0833333 0 0 0.0833333 -111.875 -103)" d="M 7507.4,4901.61 L 7586.12,4893.34 L 7585.88,4913.48 L 7511.82,4921.26 L 7507.4,4901.61 Z " />
<path stroke="transparent" fill="#000000" transform="matrix(0.0833333 0 0 0.0833333 -111.875 -103)" d="M 7520.24,4958.66 L 7585.42,4951.81 L 7585.18,4971.95 L 7524.66,4978.31 L 7520.24,4958.66 Z " />
<path stroke="transparent" fill="#000000" transform="matrix(0.0833333 0 0 0.0833333 -111.875 -103)" d="M 7533.08,5015.71 L 7584.72,5010.28 L 7584.48,5030.42 L 7537.5,5035.35 L 7533.08,5015.71 Z " />
<path stroke="transparent" fill="#000000" transform="matrix(0.0833333 0 0 0.0833333 -111.875 -103)" d="M 7545.92,5072.75 L 7584.02,5068.75 L 7583.78,5088.89 L 7550.35,5092.4 L 7545.92,5072.75 Z " />
<path stroke="transparent" fill="#000000" transform="matrix(0.0833333 0 0 0.0833333 -111.875 -103)" d="M 7558.76,5129.8 L 7583.32,5127.22 L 7583.08,5147.36 L 7563.19,5149.45 L 7558.76,5129.8 Z " />
<path stroke="transparent" fill="#000000" transform="matrix(0.0833333 0 0 0.0833333 -111.875 -103)" d="M 8000.27,4241.3 L 8002.68,4264.27 L 7608.45,4550.7 L 7596.7,4534.52 L 8000.27,4241.3 Z " />
<path stroke="transparent" fill="#000000" transform="matrix(0.0833333 0 0 0.0833333 -111.875 -103)" d="M 8002.68,4264.27 L 8000.27,4241.3 L 8558.95,4490.04 L 8540.26,4503.62 L 8002.68,4264.27 Z " />
</svg>
