<?xml version="1.0" standalone="no" ?>
<!DOCTYPE svg PUBLIC "-//W3C//DTD SVG 1.1//EN" "http://www.w3.org/Graphics/SVG/1.1/DTD/svg11.dtd">
<svg width="230px" height="133px" viewBox="0 0 230 133" style="background-color: #ffffff00" xmlns="http://www.w3.org/2000/svg" xmlns:xlink="http://www.w3.org/1999/xlink" version="1.1" >
<text x="0" y="0" stroke="transparent" fill="#000000" transform="matrix(0.0666667 0 0 0.0666667 33.4562 14.354)" style="font:normal normal normal 200px 'Arial'" >
OH</text>
<text x="0" y="0" stroke="transparent" fill="#000000" transform="matrix(0.0666667 0 0 0.0666667 206.664 74.342)" style="font:normal normal normal 200px 'Arial'" >
OH</text>
<text x="0" y="0" stroke="transparent" fill="#000000" transform="matrix(0.0666667 0 0 0.0666667 172.02 14.35)" style="font:normal normal normal 200px 'Arial'" >
O</text>
<text x="0" y="0" stroke="transparent" fill="#000000" transform="matrix(0.0666667 0 0 0.0666667 137.78 114.346)" style="font:normal normal normal 200px 'Arial'" >
NH</text>
<text x="0" y="0" stroke="transparent" fill="#000000" transform="matrix(0.0666667 0 0 0.0666667 157.038 117.279)" style="font:normal normal normal 150px 'Arial'" >
2</text>
<path stroke="transparent" fill="#000000" transform="matrix(0.0666667 0 0 0.0666667 -233.859 -199)" d="M 4097.72,3716.54 L 4087.72,3722.31 L 4077.72,3716.54 L 4077.72,3242.14 L 4097.72,3242.14 L 4097.72,3716.54 Z " />
<path stroke="transparent" fill="#000000" transform="matrix(0.0666667 0 0 0.0666667 -233.859 -199)" d="M 6166.24,3733.8 L 6166.24,3710.7 L 6598.21,3960.01 L 6588.22,3977.33 L 6166.24,3733.8 Z " />
<path stroke="transparent" fill="#000000" transform="matrix(0.0666667 0 0 0.0666667 -233.859 -199)" d="M 6212.25,3743.03 L 6192.25,3743.03 L 6192.2,3242.08 L 6212.2,3242.08 L 6212.25,3743.03 Z " />
<path stroke="transparent" fill="#000000" transform="matrix(0.0666667 0 0 0.0666667 -233.859 -199)" d="M 6140.25,3743.04 L 6120.25,3743.04 L 6120.2,3242.09 L 6140.2,3242.09 L 6140.25,3743.04 Z " />
<path stroke="transparent" fill="#000000" transform="matrix(0.0666667 0 0 0.0666667 -233.859 -199)" d="M 5656.59,4519.36 L 5636.59,4519.36 L 5636.64,4028.08 L 5646.64,4022.31 L 5656.64,4028.08 L 5656.59,4519.36 Z " />
<path stroke="transparent" fill="#000000" transform="matrix(0.0666667 0 0 0.0666667 -233.859 -199)" d="M 5646.64,4010.76 L 5646.64,4022.31 L 5636.64,4028.08 L 5126.98,3733.92 L 5126.98,3710.82 L 5646.64,4010.76 Z " />
<path stroke="transparent" fill="#000000" transform="matrix(0.0666667 0 0 0.0666667 -233.859 -199)" d="M 4617.44,4028.14 L 4607.44,4022.37 L 4607.44,4010.82 L 5126.98,3710.82 L 5126.98,3733.92 L 4617.44,4028.14 Z " />
<path stroke="transparent" fill="#000000" transform="matrix(0.0666667 0 0 0.0666667 -233.859 -199)" d="M 6166.24,3710.7 L 6166.24,3733.8 L 5656.64,4028.08 L 5646.64,4022.31 L 5646.64,4010.76 L 6166.24,3710.7 Z " />
<path stroke="transparent" fill="#000000" transform="matrix(0.0666667 0 0 0.0666667 -233.859 -199)" d="M 4087.72,3733.86 L 4087.72,3722.31 L 4097.72,3716.54 L 4607.44,4010.82 L 4607.44,4022.37 L 4597.44,4028.14 L 4087.72,3733.86 Z " />
<path stroke="transparent" fill="#000000" transform="matrix(0.0666667 0 0 0.0666667 -233.859 -199)" d="M 4617.44,4628.14 L 4597.44,4616.6 L 4597.44,4028.14 L 4607.44,4022.37 L 4617.44,4028.14 L 4617.44,4628.14 Z " />
<path stroke="transparent" fill="#000000" transform="matrix(0.0666667 0 0 0.0666667 -233.859 -199)" d="M 4545.44,4580.8 L 4525.44,4580.8 L 4525.44,4063.94 L 4545.44,4063.94 L 4545.44,4580.8 Z " />
<path stroke="transparent" fill="#000000" transform="matrix(0.0666667 0 0 0.0666667 -233.859 -199)" d="M 3578.12,4028.14 L 3558.12,4016.6 L 4077.72,3716.54 L 4087.72,3722.31 L 4087.72,3733.86 L 3578.12,4028.14 Z " />
<path stroke="transparent" fill="#000000" transform="matrix(0.0666667 0 0 0.0666667 -233.859 -199)" d="M 3645.13,4072.59 L 3635.13,4055.27 L 4082.73,3796.79 L 4092.73,3814.11 L 3645.13,4072.59 Z " />
<path stroke="transparent" fill="#000000" transform="matrix(0.0666667 0 0 0.0666667 -233.859 -199)" d="M 4087.78,4933.92 L 4087.78,4910.82 L 4597.44,4616.6 L 4617.44,4628.14 L 4087.78,4933.92 Z " />
<path stroke="transparent" fill="#000000" transform="matrix(0.0666667 0 0 0.0666667 -233.859 -199)" d="M 3578.18,4616.66 L 3558.18,4628.2 L 3558.12,4016.6 L 3578.12,4028.14 L 3578.18,4616.66 Z " />
<path stroke="transparent" fill="#000000" transform="matrix(0.0666667 0 0 0.0666667 -233.859 -199)" d="M 3558.18,4628.2 L 3578.18,4616.66 L 4087.78,4910.82 L 4087.78,4933.92 L 3558.18,4628.2 Z " />
<path stroke="transparent" fill="#000000" transform="matrix(0.0666667 0 0 0.0666667 -233.859 -199)" d="M 3635.18,4589.52 L 3645.17,4572.2 L 4092.78,4830.58 L 4082.78,4847.9 L 3635.18,4589.52 Z " />
</svg>
