<?xml version="1.0" standalone="no" ?>
<!DOCTYPE svg PUBLIC "-//W3C//DTD SVG 1.1//EN" "http://www.w3.org/Graphics/SVG/1.1/DTD/svg11.dtd">
<svg width="508px" height="362px" viewBox="0 0 508 362" style="background-color: #ffffff00" xmlns="http://www.w3.org/2000/svg" xmlns:xlink="http://www.w3.org/1999/xlink" version="1.1" >
<path stroke="transparent" fill="#000000" transform="matrix(0.0833333 0 0 0.0833333 -162.542 -185)" d="M 4873.54,4662.77 L 4817.31,4641.83 L 4771.08,4603.57 L 5106.07,4121.27 L 5117.48,4122.32 L 5124.08,4131.68 L 4873.54,4662.77 Z " />
<path stroke="transparent" fill="#000000" transform="matrix(0.0833333 0 0 0.0833333 -162.542 -185)" d="M 4392.81,4408.11 L 4402.82,4390.79 L 4771.08,4603.57 L 4817.31,4641.83 L 4803.65,4645.49 L 4392.81,4408.11 Z " />
<path stroke="transparent" fill="#000000" transform="matrix(0.0833333 0 0 0.0833333 -162.542 -185)" d="M 4168.19,4347.16 L 4228.16,4451.1 L 4209.68,4459.09 L 4152.03,4359.17 L 4168.19,4347.16 Z " />
<path stroke="transparent" fill="#000000" transform="matrix(0.0833333 0 0 0.0833333 -162.542 -185)" d="M 4120.74,4382.4 L 4173.9,4474.55 L 4155.41,4482.53 L 4104.57,4394.41 L 4120.74,4382.4 Z " />
<path stroke="transparent" fill="#000000" transform="matrix(0.0833333 0 0 0.0833333 -162.542 -185)" d="M 4073.28,4417.65 L 4119.64,4497.99 L 4101.15,4505.97 L 4057.12,4429.65 L 4073.28,4417.65 Z " />
<path stroke="transparent" fill="#000000" transform="matrix(0.0833333 0 0 0.0833333 -162.542 -185)" d="M 4025.83,4452.89 L 4065.37,4521.43 L 4046.89,4529.42 L 4009.66,4464.89 L 4025.83,4452.89 Z " />
<path stroke="transparent" fill="#000000" transform="matrix(0.0833333 0 0 0.0833333 -162.542 -185)" d="M 3978.37,4488.13 L 4011.11,4544.87 L 3992.63,4552.86 L 3962.21,4500.13 L 3978.37,4488.13 Z " />
<path stroke="transparent" fill="#000000" transform="matrix(0.0833333 0 0 0.0833333 -162.542 -185)" d="M 3930.92,4523.37 L 3956.85,4568.31 L 3938.37,4576.3 L 3914.76,4535.38 L 3930.92,4523.37 Z " />
<path stroke="transparent" fill="#000000" transform="matrix(0.0833333 0 0 0.0833333 -162.542 -185)" d="M 3883.47,4558.61 L 3902.59,4591.76 L 3884.1,4599.74 L 3867.3,4570.62 L 3883.47,4558.61 Z " />
<path stroke="transparent" fill="#000000" transform="matrix(0.0833333 0 0 0.0833333 -162.542 -185)" d="M 3836.01,4593.86 L 3848.32,4615.2 L 3829.84,4623.18 L 3819.85,4605.86 L 3836.01,4593.86 Z " />
<path stroke="transparent" fill="#000000" transform="matrix(0.0833333 0 0 0.0833333 -162.542 -185)" d="M 3787.98,5136.33 L 3767.98,5136.33 L 3768.07,4647.28 L 3788.07,4635.74 L 3787.98,5136.33 Z " />
<path stroke="transparent" fill="#000000" transform="matrix(0.0833333 0 0 0.0833333 -162.542 -185)" d="M 2835.93,6396.43 L 2825.93,6379.11 L 3253.03,6132.7 L 3263.02,6150.03 L 2835.93,6396.43 Z " />
<path stroke="transparent" fill="#000000" transform="matrix(0.0833333 0 0 0.0833333 -162.542 -185)" d="M 3318.05,6087.38 L 3198.05,6087.34 L 3200.08,6067.34 L 3316.02,6067.38 L 3318.05,6087.38 Z " />
<path stroke="transparent" fill="#000000" transform="matrix(0.0833333 0 0 0.0833333 -162.542 -185)" d="M 3312.07,6028.38 L 3204.06,6028.34 L 3206.1,6008.34 L 3310.04,6008.38 L 3312.07,6028.38 Z " />
<path stroke="transparent" fill="#000000" transform="matrix(0.0833333 0 0 0.0833333 -162.542 -185)" d="M 3306.09,5969.38 L 3210.08,5969.34 L 3212.12,5949.34 L 3304.07,5949.37 L 3306.09,5969.38 Z " />
<path stroke="transparent" fill="#000000" transform="matrix(0.0833333 0 0 0.0833333 -162.542 -185)" d="M 3300.12,5910.37 L 3216.09,5910.34 L 3218.13,5890.34 L 3298.09,5890.37 L 3300.12,5910.37 Z " />
<path stroke="transparent" fill="#000000" transform="matrix(0.0833333 0 0 0.0833333 -162.542 -185)" d="M 3294.14,5851.37 L 3222.11,5851.34 L 3224.15,5831.34 L 3292.12,5831.37 L 3294.14,5851.37 Z " />
<path stroke="transparent" fill="#000000" transform="matrix(0.0833333 0 0 0.0833333 -162.542 -185)" d="M 3288.17,5792.36 L 3228.13,5792.34 L 3230.17,5772.34 L 3286.14,5772.36 L 3288.17,5792.36 Z " />
<path stroke="transparent" fill="#000000" transform="matrix(0.0833333 0 0 0.0833333 -162.542 -185)" d="M 3282.19,5733.36 L 3234.14,5733.34 L 3236.18,5713.34 L 3280.17,5713.36 L 3282.19,5733.36 Z " />
<path stroke="transparent" fill="#000000" transform="matrix(0.0833333 0 0 0.0833333 -162.542 -185)" d="M 3276.22,5674.36 L 3240.16,5674.34 L 3242.2,5654.34 L 3274.19,5654.35 L 3276.22,5674.36 Z " />
<path stroke="transparent" fill="#000000" transform="matrix(0.0833333 0 0 0.0833333 -162.542 -185)" d="M 3270.24,5615.35 L 3246.18,5615.34 L 3248.22,5595.34 L 3268.22,5595.35 L 3270.24,5615.35 Z " />
<path stroke="transparent" fill="#000000" transform="matrix(0.0833333 0 0 0.0833333 -162.542 -185)" d="M 3673.34,5290.31 L 3683.34,5307.63 L 3258.23,5552.89 L 3258.24,5529.8 L 3673.34,5290.31 Z " />
<path stroke="transparent" fill="#000000" transform="matrix(0.0833333 0 0 0.0833333 -162.542 -185)" d="M 3258.24,5529.8 L 3258.23,5552.89 L 2739.21,5253.01 L 2738.66,5241.14 L 2748.66,5235.37 L 3258.24,5529.8 Z " />
<path stroke="transparent" fill="#000000" transform="matrix(0.0833333 0 0 0.0833333 -162.542 -185)" d="M 2341.61,5539.54 L 2281.63,5435.6 L 2728.66,5234.72 L 2738.66,5241.14 L 2739.21,5253.01 L 2341.61,5539.54 Z " />
<path stroke="transparent" fill="#000000" transform="matrix(0.0833333 0 0 0.0833333 -162.542 -185)" d="M 2748.66,5235.37 L 2738.66,5241.14 L 2728.66,5234.72 L 2728.87,4635.34 L 2748.86,4646.9 L 2748.66,5235.37 Z " />
<path stroke="transparent" fill="#000000" transform="matrix(0.0833333 0 0 0.0833333 -162.542 -185)" d="M 2289.34,4450.69 L 2349.38,4346.78 L 2365.53,4358.8 L 2307.82,4458.68 L 2289.34,4450.69 Z " />
<path stroke="transparent" fill="#000000" transform="matrix(0.0833333 0 0 0.0833333 -162.542 -185)" d="M 2343.52,4474.12 L 2396.74,4382.01 L 2412.9,4394.03 L 2362,4482.12 L 2343.52,4474.12 Z " />
<path stroke="transparent" fill="#000000" transform="matrix(0.0833333 0 0 0.0833333 -162.542 -185)" d="M 2397.7,4497.56 L 2444.1,4417.25 L 2460.26,4429.26 L 2416.18,4505.55 L 2397.7,4497.56 Z " />
<path stroke="transparent" fill="#000000" transform="matrix(0.0833333 0 0 0.0833333 -162.542 -185)" d="M 2451.87,4521 L 2491.46,4452.48 L 2507.62,4464.49 L 2470.35,4528.99 L 2451.87,4521 Z " />
<path stroke="transparent" fill="#000000" transform="matrix(0.0833333 0 0 0.0833333 -162.542 -185)" d="M 2506.05,4544.43 L 2538.82,4487.71 L 2554.98,4499.72 L 2524.53,4552.43 L 2506.05,4544.43 Z " />
<path stroke="transparent" fill="#000000" transform="matrix(0.0833333 0 0 0.0833333 -162.542 -185)" d="M 2560.23,4567.87 L 2586.19,4522.94 L 2602.34,4534.96 L 2578.71,4575.86 L 2560.23,4567.87 Z " />
<path stroke="transparent" fill="#000000" transform="matrix(0.0833333 0 0 0.0833333 -162.542 -185)" d="M 2614.4,4591.3 L 2633.55,4558.17 L 2649.7,4570.19 L 2632.88,4599.3 L 2614.4,4591.3 Z " />
<path stroke="transparent" fill="#000000" transform="matrix(0.0833333 0 0 0.0833333 -162.542 -185)" d="M 2668.58,4614.74 L 2680.91,4593.4 L 2697.06,4605.42 L 2687.06,4622.74 L 2668.58,4614.74 Z " />
<path stroke="transparent" fill="#000000" transform="matrix(0.0833333 0 0 0.0833333 -162.542 -185)" d="M 2748.86,4646.9 L 2728.87,4635.34 L 3247.99,4335.89 L 3258.55,4341.34 L 3258.55,4352.88 L 2748.86,4646.9 Z " />
<path stroke="transparent" fill="#000000" transform="matrix(0.0833333 0 0 0.0833333 -162.542 -185)" d="M 3198.72,3861.13 L 3318.72,3861.17 L 3269.12,4335.89 L 3258.55,4341.34 L 3247.99,4335.89 L 3198.72,3861.13 Z " />
<path stroke="transparent" fill="#000000" transform="matrix(0.0833333 0 0 0.0833333 -162.542 -185)" d="M 3258.55,4352.88 L 3258.55,4341.34 L 3269.12,4335.89 L 3788.07,4635.74 L 3768.07,4647.28 L 3258.55,4352.88 Z " />
<path stroke="transparent" fill="#000000" transform="matrix(0.0833333 0 0 0.0833333 -162.542 -185)" d="M 4525.8,5166.35 L 4508.48,5156.35 L 4803.65,4645.49 L 4817.31,4641.83 L 4820.97,4655.49 L 4525.8,5166.35 Z " />
<path stroke="transparent" fill="#000000" transform="matrix(0.0833333 0 0 0.0833333 -162.542 -185)" d="M 5341.89,4933.38 L 5331.89,4950.7 L 4820.97,4655.49 L 4817.31,4641.83 L 4873.54,4662.77 L 5341.89,4933.38 Z " />
<path stroke="transparent" fill="#000000" transform="matrix(0.0833333 0 0 0.0833333 -162.542 -185)" d="M 6088.79,4386.35 L 5999.59,4466.62 L 5709.63,4070.37 L 5714.25,4059.83 L 5725.21,4056.35 L 6088.79,4386.35 Z " />
<path stroke="transparent" fill="#000000" transform="matrix(0.0833333 0 0 0.0833333 -162.542 -185)" d="M 7848.1,3380.33 L 7838.09,3397.65 L 7393.18,3140.58 L 7403.19,3123.26 L 7848.1,3380.33 Z " />
<path stroke="transparent" fill="#000000" transform="matrix(0.0833333 0 0 0.0833333 -162.542 -185)" d="M 7812.08,3442.67 L 7802.07,3459.99 L 7357.16,3202.92 L 7367.17,3185.61 L 7812.08,3442.67 Z " />
<path stroke="transparent" fill="#000000" transform="matrix(0.0833333 0 0 0.0833333 -162.542 -185)" d="M 5725.21,4056.35 L 5714.25,4059.83 L 5705.98,4050.64 L 5827.91,3478.04 L 5839.2,3473.01 L 5848.06,3479.45 L 5725.21,4056.35 Z " />
<path stroke="transparent" fill="#000000" transform="matrix(0.0833333 0 0 0.0833333 -162.542 -185)" d="M 4959.77,3510.1 L 4946.39,3495.23 L 5309.69,3168.39 L 5319.69,3172.84 L 5320.97,3185.13 L 4959.77,3510.1 Z " />
<path stroke="transparent" fill="#000000" transform="matrix(0.0833333 0 0 0.0833333 -162.542 -185)" d="M 5123.67,4111.61 L 5117.48,4122.32 L 5106.07,4121.27 L 4913.91,3689.29 L 4932.19,3681.16 L 5123.67,4111.61 Z " />
<path stroke="transparent" fill="#000000" transform="matrix(0.0833333 0 0 0.0833333 -162.542 -185)" d="M 5124.08,4131.68 L 5117.48,4122.32 L 5123.67,4111.61 L 5705.98,4050.64 L 5714.25,4059.83 L 5709.63,4070.37 L 5124.08,4131.68 Z " />
<path stroke="transparent" fill="#000000" transform="matrix(0.0833333 0 0 0.0833333 -162.542 -185)" d="M 5848.06,3479.45 L 5839.2,3473.01 L 5839.21,3461.47 L 6348.93,3167.39 L 6358.93,3173.17 L 6358.92,3184.71 L 5848.06,3479.45 Z " />
<path stroke="transparent" fill="#000000" transform="matrix(0.0833333 0 0 0.0833333 -162.542 -185)" d="M 5844.23,3398.53 L 5834.23,3381.21 L 6281.94,3122.91 L 6291.94,3140.23 L 5844.23,3398.53 Z " />
<path stroke="transparent" fill="#000000" transform="matrix(0.0833333 0 0 0.0833333 -162.542 -185)" d="M 5839.62,2284.52 L 5839.62,2261.43 L 6359.14,2561.6 L 6359.14,2573.15 L 6349.13,2578.92 L 5839.62,2284.52 Z " />
<path stroke="transparent" fill="#000000" transform="matrix(0.0833333 0 0 0.0833333 -162.542 -185)" d="M 5834.59,2364.77 L 5844.59,2347.45 L 6292.12,2606.03 L 6282.12,2623.35 L 5834.59,2364.77 Z " />
<path stroke="transparent" fill="#000000" transform="matrix(0.0833333 0 0 0.0833333 -162.542 -185)" d="M 5839.62,2261.43 L 5839.62,2284.52 L 5329.83,2578.56 L 5309.83,2567.01 L 5839.62,2261.43 Z " />
<path stroke="transparent" fill="#000000" transform="matrix(0.0833333 0 0 0.0833333 -162.542 -185)" d="M 5309.83,2567.01 L 5329.83,2578.56 L 5329.69,3167.07 L 5319.69,3172.84 L 5309.69,3168.39 L 5309.83,2567.01 Z " />
<path stroke="transparent" fill="#000000" transform="matrix(0.0833333 0 0 0.0833333 -162.542 -185)" d="M 5381.83,2614.38 L 5401.83,2614.39 L 5401.7,3131.29 L 5381.7,3131.29 L 5381.83,2614.38 Z " />
<path stroke="transparent" fill="#000000" transform="matrix(0.0833333 0 0 0.0833333 -162.542 -185)" d="M 5320.97,3185.13 L 5319.69,3172.84 L 5329.69,3167.07 L 5839.21,3461.47 L 5839.2,3473.01 L 5827.91,3478.04 L 5320.97,3185.13 Z " />
<path stroke="transparent" fill="#000000" transform="matrix(0.0833333 0 0 0.0833333 -162.542 -185)" d="M 6976.08,3428.56 L 6966.08,3411.23 L 7388.17,3167.71 L 7408.17,3179.27 L 6976.08,3428.56 Z " />
<path stroke="transparent" fill="#000000" transform="matrix(0.0833333 0 0 0.0833333 -162.542 -185)" d="M 6790.85,3411.18 L 6780.84,3428.49 L 6358.92,3184.71 L 6358.93,3173.17 L 6368.93,3167.4 L 6790.85,3411.18 Z " />
<path stroke="transparent" fill="#000000" transform="matrix(0.0833333 0 0 0.0833333 -162.542 -185)" d="M 6368.93,3167.4 L 6358.93,3173.17 L 6348.93,3167.39 L 6349.13,2578.92 L 6359.14,2573.15 L 6369.13,2578.93 L 6368.93,3167.4 Z " />
<path stroke="transparent" fill="#000000" transform="matrix(0.0833333 0 0 0.0833333 -162.542 -185)" d="M 6369.13,2578.93 L 6359.14,2573.15 L 6359.14,2561.6 L 6878.86,2261.75 L 6878.86,2284.85 L 6369.13,2578.93 Z " />
<path stroke="transparent" fill="#000000" transform="matrix(0.0833333 0 0 0.0833333 -162.542 -185)" d="M 6878.86,2284.85 L 6878.86,2261.75 L 7408.38,2567.7 L 7388.38,2579.24 L 6878.86,2284.85 Z " />
<path stroke="transparent" fill="#000000" transform="matrix(0.0833333 0 0 0.0833333 -162.542 -185)" d="M 6873.83,2365.1 L 6883.84,2347.78 L 7331.37,2606.36 L 7321.36,2623.68 L 6873.83,2365.1 Z " />
<path stroke="transparent" fill="#000000" transform="matrix(0.0833333 0 0 0.0833333 -162.542 -185)" d="M 7388.38,2579.24 L 7408.38,2567.7 L 7408.17,3179.27 L 7388.17,3167.71 L 7388.38,2579.24 Z " />
<text x="0" y="0" stroke="transparent" fill="#000000" transform="matrix(0.0833333 0 0 0.0833333 47.1141 358.268)" style="font:normal normal normal 200px 'Arial'" >
HO</text>
<text x="0" y="0" stroke="transparent" fill="#000000" transform="matrix(0.0833333 0 0 0.0833333 145.788 258.292)" style="font:normal normal normal 200px 'Arial'" >
O</text>
<text x="0" y="0" stroke="transparent" fill="#000000" transform="matrix(0.0833333 0 0 0.0833333 101.296 270.543)" style="font:normal normal normal 150px 'Arial'" >
&amp;1</text>
<text x="0" y="0" stroke="transparent" fill="#000000" transform="matrix(0.0833333 0 0 0.0833333 3.83844 283.252)" style="font:normal normal normal 200px 'Arial'" >
HO</text>
<text x="0" y="0" stroke="transparent" fill="#000000" transform="matrix(0.0833333 0 0 0.0833333 69.0656 251.07)" style="font:normal normal normal 150px 'Arial'" >
&amp;1</text>
<text x="0" y="0" stroke="transparent" fill="#000000" transform="matrix(0.0833333 0 0 0.0833333 3.86796 183.246)" style="font:normal normal normal 200px 'Arial'" >
HO</text>
<text x="0" y="0" stroke="transparent" fill="#000000" transform="matrix(0.0833333 0 0 0.0833333 68.9952 211.986)" style="font:normal normal normal 150px 'Arial'" >
&amp;1</text>
<text x="0" y="0" stroke="transparent" fill="#000000" transform="matrix(0.0833333 0 0 0.0833333 102.522 133.276)" style="font:normal normal normal 200px 'Arial'" >
OH</text>
<text x="0" y="0" stroke="transparent" fill="#000000" transform="matrix(0.0833333 0 0 0.0833333 101.397 192.375)" style="font:normal normal normal 150px 'Arial'" >
&amp;1</text>
<text x="0" y="0" stroke="transparent" fill="#000000" transform="matrix(0.0833333 0 0 0.0833333 133.706 211.929)" style="font:normal normal normal 150px 'Arial'" >
&amp;1</text>
<text x="0" y="0" stroke="transparent" fill="#000000" transform="matrix(0.0833333 0 0 0.0833333 189.108 183.305)" style="font:normal normal normal 200px 'Arial'" >
O</text>
<text x="0" y="0" stroke="transparent" fill="#000000" transform="matrix(0.0833333 0 0 0.0833333 340.59 196.985)" style="font:normal normal normal 200px 'Arial'" >
OH</text>
<text x="0" y="0" stroke="transparent" fill="#000000" transform="matrix(0.0833333 0 0 0.0833333 490.765 110.972)" style="font:normal normal normal 200px 'Arial'" >
O</text>
<text x="0" y="0" stroke="transparent" fill="#000000" transform="matrix(0.0833333 0 0 0.0833333 263.218 172.365)" style="font:normal normal normal 150px 'Arial'" >
&amp;1</text>
<text x="0" y="0" stroke="transparent" fill="#000000" transform="matrix(0.0833333 0 0 0.0833333 318.214 155.178)" style="font:normal normal normal 150px 'Arial'" >
&amp;1</text>
<text x="0" y="0" stroke="transparent" fill="#000000" transform="matrix(0.0833333 0 0 0.0833333 237.095 119.345)" style="font:normal normal normal 200px 'Arial'" >
O</text>
<text x="0" y="0" stroke="transparent" fill="#000000" transform="matrix(0.0833333 0 0 0.0833333 404.162 110.945)" style="font:normal normal normal 200px 'Arial'" >
O</text>
</svg>
