<?xml version="1.0" standalone="no" ?>
<!DOCTYPE svg PUBLIC "-//W3C//DTD SVG 1.1//EN" "http://www.w3.org/Graphics/SVG/1.1/DTD/svg11.dtd">
<svg width="304px" height="132px" viewBox="0 0 304 132" style="background-color: #ffffff00" xmlns="http://www.w3.org/2000/svg" xmlns:xlink="http://www.w3.org/1999/xlink" version="1.1" >
<text x="0" y="0" stroke="none" fill="#000000" transform="matrix(0.0666667 0 0 0.0666667 211.078 128.786)" font-style="normal" font-weight="normal" font-size="200px" font-family="Arial" >
O</text>
<text x="0" y="0" stroke="none" fill="#000000" transform="matrix(0.0666667 0 0 0.0666667 280.356 128.786)" font-style="normal" font-weight="normal" font-size="200px" font-family="Arial" >
OH</text>
<text x="0" y="0" stroke="none" fill="#000000" transform="matrix(0.0666667 0 0 0.0666667 141.795 88.787)" font-style="normal" font-weight="normal" font-size="200px" font-family="Arial" >
OH</text>
<text x="0" y="0" stroke="none" fill="#000000" transform="matrix(0.0666667 0 0 0.0666667 3.23968 128.786)" font-style="normal" font-weight="normal" font-size="200px" font-family="Arial" >
O</text>
<path stroke="none" fill="#000000" transform="matrix(0.0666667 0 0 0.0666667 -197.068 -221.246)" d="M 5680.57,4260.95 L 5680.57,4284.05 L 5160.95,3984.06 L 5160.95,3960.96 L 5680.57,4260.95 Z " />
<path stroke="none" fill="#000000" transform="matrix(0.0666667 0 0 0.0666667 -197.068 -221.246)" d="M 5685.57,4180.7 L 5675.57,4198.02 L 5191.95,3918.81 L 5201.95,3901.49 L 5685.57,4180.7 Z " />
<path stroke="none" fill="#000000" transform="matrix(0.0666667 0 0 0.0666667 -197.068 -221.246)" d="M 6190.19,3966.74 L 6200.19,3972.51 L 6200.19,3984.06 L 5680.57,4284.05 L 5680.57,4260.95 L 6190.19,3966.74 Z " />
<path stroke="none" fill="#000000" transform="matrix(0.0666667 0 0 0.0666667 -197.068 -221.246)" d="M 6729.81,4266.73 L 6709.81,4278.27 L 6200.19,3984.06 L 6200.19,3972.51 L 6210.19,3966.74 L 6729.81,4266.73 Z " />
<path stroke="none" fill="#000000" transform="matrix(0.0666667 0 0 0.0666667 -197.068 -221.246)" d="M 6652.81,4305.41 L 6642.81,4322.73 L 6195.19,4064.31 L 6205.19,4046.99 L 6652.81,4305.41 Z " />
<path stroke="none" fill="#000000" transform="matrix(0.0666667 0 0 0.0666667 -197.068 -221.246)" d="M 6729.81,4866.71 L 6709.81,4878.25 L 6709.81,4278.27 L 6729.81,4266.73 L 6729.81,4866.71 Z " />
<path stroke="none" fill="#000000" transform="matrix(0.0666667 0 0 0.0666667 -197.068 -221.246)" d="M 6315.81,5158.84 L 6305.81,5141.52 L 6750.81,4884.61 L 6760.81,4901.93 L 6315.81,5158.84 Z " />
<path stroke="none" fill="#000000" transform="matrix(0.0666667 0 0 0.0666667 -197.068 -221.246)" d="M 6279.81,5096.48 L 6269.81,5079.16 L 6714.81,4822.25 L 6724.81,4839.57 L 6279.81,5096.48 Z " />
<path stroke="none" fill="#000000" transform="matrix(0.0666667 0 0 0.0666667 -197.068 -221.246)" d="M 7151.74,5110.34 L 7141.74,5127.66 L 6709.81,4878.25 L 6729.81,4866.71 L 7151.74,5110.34 Z " />
<path stroke="none" fill="#000000" transform="matrix(0.0666667 0 0 0.0666667 -197.068 -221.246)" d="M 6190.19,3372.53 L 6210.19,3372.53 L 6210.19,3966.74 L 6200.19,3972.51 L 6190.19,3966.74 L 6190.19,3372.53 Z " />
<path stroke="none" fill="#000000" transform="matrix(0.0666667 0 0 0.0666667 -197.068 -221.246)" d="M 4651.4,4278.27 L 4641.4,4272.5 L 4641.4,4260.95 L 5160.95,3960.96 L 5160.95,3984.06 L 4651.4,4278.27 Z " />
<path stroke="none" fill="#000000" transform="matrix(0.0666667 0 0 0.0666667 -197.068 -221.246)" d="M 4631.4,4278.27 L 4641.4,4272.5 L 4651.4,4278.27 L 4651.4,4866.71 L 4641.4,4872.48 L 4631.4,4866.71 L 4631.4,4278.27 Z " />
<path stroke="none" fill="#000000" transform="matrix(0.0666667 0 0 0.0666667 -197.068 -221.246)" d="M 4641.4,4260.95 L 4641.4,4272.5 L 4631.4,4278.27 L 4121.78,3984.06 L 4121.78,3972.51 L 4135.44,3968.85 L 4641.4,4260.95 Z " />
<path stroke="none" fill="#000000" transform="matrix(0.0666667 0 0 0.0666667 -197.068 -221.246)" d="M 3612.16,4278.27 L 3592.16,4266.73 L 4108.12,3968.85 L 4121.78,3972.51 L 4121.78,3984.06 L 3612.16,4278.27 Z " />
<path stroke="none" fill="#000000" transform="matrix(0.0666667 0 0 0.0666667 -197.068 -221.246)" d="M 3612.16,4866.71 L 3592.16,4878.26 L 3592.16,4266.73 L 3612.16,4278.27 L 3612.16,4866.71 Z " />
<path stroke="none" fill="#000000" transform="matrix(0.0666667 0 0 0.0666667 -197.068 -221.246)" d="M 4121.78,5160.93 L 4121.78,5184.02 L 3592.16,4878.26 L 3612.16,4866.71 L 4121.78,5160.93 Z " />
<path stroke="none" fill="#000000" transform="matrix(0.0666667 0 0 0.0666667 -197.068 -221.246)" d="M 4631.4,4866.71 L 4641.4,4872.48 L 4641.4,4884.03 L 4121.78,5184.02 L 4121.78,5160.93 L 4631.4,4866.71 Z " />
<path stroke="none" fill="#000000" transform="matrix(0.0666667 0 0 0.0666667 -197.068 -221.246)" d="M 4564.4,4822.25 L 4574.4,4839.57 L 4126.78,5098 L 4116.78,5080.67 L 4564.4,4822.25 Z " />
<path stroke="none" fill="#000000" transform="matrix(0.0666667 0 0 0.0666667 -197.068 -221.246)" d="M 5098.33,4467.05 L 5038.33,4570.97 L 5022.15,4559 L 5079.87,4459.03 L 5098.33,4467.05 Z " />
<path stroke="none" fill="#000000" transform="matrix(0.0666667 0 0 0.0666667 -197.068 -221.246)" d="M 5043.1,4443.03 L 4989.92,4535.15 L 4973.73,4523.17 L 5024.64,4435.01 L 5043.1,4443.03 Z " />
<path stroke="none" fill="#000000" transform="matrix(0.0666667 0 0 0.0666667 -197.068 -221.246)" d="M 4987.87,4419.02 L 4941.5,4499.32 L 4925.32,4487.35 L 4969.41,4410.99 L 4987.87,4419.02 Z " />
<path stroke="none" fill="#000000" transform="matrix(0.0666667 0 0 0.0666667 -197.068 -221.246)" d="M 4932.64,4395 L 4893.09,4463.49 L 4876.91,4451.52 L 4914.18,4386.97 L 4932.64,4395 Z " />
<path stroke="none" fill="#000000" transform="matrix(0.0666667 0 0 0.0666667 -197.068 -221.246)" d="M 4877.41,4370.98 L 4844.68,4427.67 L 4828.5,4415.69 L 4858.95,4362.95 L 4877.41,4370.98 Z " />
<path stroke="none" fill="#000000" transform="matrix(0.0666667 0 0 0.0666667 -197.068 -221.246)" d="M 4822.18,4346.96 L 4796.26,4391.84 L 4780.08,4379.87 L 4803.72,4338.93 L 4822.18,4346.96 Z " />
<path stroke="none" fill="#000000" transform="matrix(0.0666667 0 0 0.0666667 -197.068 -221.246)" d="M 4766.95,4322.94 L 4747.85,4356.02 L 4731.67,4344.04 L 4748.49,4314.91 L 4766.95,4322.94 Z " />
<path stroke="none" fill="#000000" transform="matrix(0.0666667 0 0 0.0666667 -197.068 -221.246)" d="M 4711.72,4298.92 L 4699.44,4320.19 L 4683.26,4308.22 L 4693.26,4290.9 L 4711.72,4298.92 Z " />
<path stroke="none" fill="#000000" transform="matrix(0.0666667 0 0 0.0666667 -197.068 -221.246)" d="M 4413.11,3447.89 L 4430.43,3457.89 L 4135.44,3968.85 L 4121.78,3972.51 L 4121.78,3952.51 L 4413.11,3447.89 Z " />
<path stroke="none" fill="#000000" transform="matrix(0.0666667 0 0 0.0666667 -197.068 -221.246)" d="M 3813.13,3457.89 L 3830.45,3447.89 L 4121.78,3952.51 L 4121.78,3972.51 L 4108.12,3968.85 L 3813.13,3457.89 Z " />
<path stroke="none" fill="#000000" transform="matrix(0.0666667 0 0 0.0666667 -197.068 -221.246)" d="M 5165.95,5163.81 L 5155.95,5181.13 L 4641.4,4884.03 L 4641.4,4872.48 L 4651.4,4866.71 L 5165.95,5163.81 Z " />
<path stroke="none" fill="#000000" transform="matrix(0.0666667 0 0 0.0666667 -197.068 -221.246)" d="M 3198.23,5158.83 L 3188.23,5141.51 L 3633.15,4884.6 L 3643.15,4901.92 L 3198.23,5158.83 Z " />
<path stroke="none" fill="#000000" transform="matrix(0.0666667 0 0 0.0666667 -197.068 -221.246)" d="M 3162.23,5096.48 L 3152.23,5079.16 L 3597.16,4822.26 L 3607.16,4839.58 L 3162.23,5096.48 Z " />
</svg>
