<?xml version="1.0" standalone="no" ?>
<!DOCTYPE svg PUBLIC "-//W3C//DTD SVG 1.1//EN" "http://www.w3.org/Graphics/SVG/1.1/DTD/svg11.dtd">
<svg width="443px" height="372px" viewBox="0 0 443 372" style="background-color: #ffffff00" xmlns="http://www.w3.org/2000/svg" xmlns:xlink="http://www.w3.org/1999/xlink" version="1.1" >
<text x="0" y="0" stroke="transparent" fill="#000000" transform="matrix(0.0833333 0 0 0.0833333 345.833 18.3973)" style="font:normal normal normal 200px 'Arial'" >
OH</text>
<text x="0" y="0" stroke="transparent" fill="#000000" transform="matrix(0.0833333 0 0 0.0833333 259.229 218.401)" style="font:normal normal normal 200px 'Arial'" >
O</text>
<text x="0" y="0" stroke="transparent" fill="#000000" transform="matrix(0.0833333 0 0 0.0833333 86.0252 168.401)" style="font:normal normal normal 200px 'Arial'" >
O</text>
<text x="0" y="0" stroke="transparent" fill="#000000" transform="matrix(0.0833333 0 0 0.0833333 42.7242 243.4)" style="font:normal normal normal 200px 'Arial'" >
O</text>
<text x="0" y="0" stroke="transparent" fill="#000000" transform="matrix(0.0833333 0 0 0.0833333 86.0234 368.398)" style="font:normal normal normal 200px 'Arial'" >
OH</text>
<text x="0" y="0" stroke="transparent" fill="#000000" transform="matrix(0.0833333 0 0 0.0833333 172.627 318.399)" style="font:normal normal normal 200px 'Arial'" >
OH</text>
<text x="0" y="0" stroke="transparent" fill="#000000" transform="matrix(0.0833333 0 0 0.0833333 172.63 218.402)" style="font:normal normal normal 200px 'Arial'" >
OH</text>
<text x="0" y="0" stroke="transparent" fill="#000000" transform="matrix(0.0833333 0 0 0.0833333 172.63 18.3976)" style="font:normal normal normal 200px 'Arial'" >
OH</text>
<text x="0" y="0" stroke="transparent" fill="#000000" transform="matrix(0.0833333 0 0 0.0833333 259.233 18.3987)" style="font:normal normal normal 200px 'Arial'" >
O</text>
<path stroke="transparent" fill="#000000" transform="matrix(0.0833333 0 0 0.0833333 -195.208 -162)" d="M 7090.14,3598.32 L 7090.14,3586.77 L 7100.14,3581 L 7614.76,3878.12 L 7604.76,3895.44 L 7090.14,3598.32 Z " />
<path stroke="transparent" fill="#000000" transform="matrix(0.0833333 0 0 0.0833333 -195.208 -162)" d="M 7080.13,2992.55 L 7100.13,2981 L 7100.14,3581 L 7090.14,3586.77 L 7080.14,3581 L 7080.13,2992.55 Z " />
<path stroke="transparent" fill="#000000" transform="matrix(0.0833333 0 0 0.0833333 -195.208 -162)" d="M 7008.13,3028.34 L 7028.13,3028.34 L 7028.13,3545.21 L 7008.13,3545.21 L 7008.13,3028.34 Z " />
<path stroke="transparent" fill="#000000" transform="matrix(0.0833333 0 0 0.0833333 -195.208 -162)" d="M 6570.5,2698.31 L 6570.5,2686.77 L 6580.5,2680.99 L 7100.13,2981 L 7080.13,2992.55 L 6570.5,2698.31 Z " />
<path stroke="transparent" fill="#000000" transform="matrix(0.0833333 0 0 0.0833333 -195.208 -162)" d="M 6560.5,2206.6 L 6580.5,2206.6 L 6580.5,2680.99 L 6570.5,2686.77 L 6560.5,2680.99 L 6560.5,2206.6 Z " />
<path stroke="transparent" fill="#000000" transform="matrix(0.0833333 0 0 0.0833333 -195.208 -162)" d="M 6060.88,2992.53 L 6050.88,2986.76 L 6050.88,2975.21 L 6560.5,2680.99 L 6570.5,2686.77 L 6570.5,2698.31 L 6060.88,2992.53 Z " />
<path stroke="transparent" fill="#000000" transform="matrix(0.0833333 0 0 0.0833333 -195.208 -162)" d="M 6127.89,3036.99 L 6117.89,3019.67 L 6565.5,2761.25 L 6575.5,2778.57 L 6127.89,3036.99 Z " />
<path stroke="transparent" fill="#000000" transform="matrix(0.0833333 0 0 0.0833333 -195.208 -162)" d="M 6060.94,3581.02 L 6050.94,3586.79 L 6040.94,3581.02 L 6040.88,2992.53 L 6050.88,2986.76 L 6060.88,2992.53 L 6060.94,3581.02 Z " />
<path stroke="transparent" fill="#000000" transform="matrix(0.0833333 0 0 0.0833333 -195.208 -162)" d="M 6570.57,3875.25 L 6570.57,3898.34 L 6050.94,3598.34 L 6050.94,3586.79 L 6060.94,3581.02 L 6570.57,3875.25 Z " />
<path stroke="transparent" fill="#000000" transform="matrix(0.0833333 0 0 0.0833333 -195.208 -162)" d="M 6575.57,3795 L 6565.57,3812.32 L 6117.94,3553.88 L 6127.94,3536.56 L 6575.57,3795 Z " />
<path stroke="transparent" fill="#000000" transform="matrix(0.0833333 0 0 0.0833333 -195.208 -162)" d="M 6570.57,3898.34 L 6570.57,3875.25 L 7080.14,3581 L 7090.14,3586.77 L 7090.14,3598.32 L 6570.57,3898.34 Z " />
<path stroke="transparent" fill="#000000" transform="matrix(0.0833333 0 0 0.0833333 -195.208 -162)" d="M 5531.24,3898.35 L 5531.24,3875.26 L 6040.94,3581.02 L 6050.94,3586.79 L 6050.94,3598.34 L 5531.24,3898.35 Z " />
<path stroke="transparent" fill="#000000" transform="matrix(0.0833333 0 0 0.0833333 -195.208 -162)" d="M 5577.25,4381.64 L 5557.25,4381.64 L 5557.24,3866.02 L 5577.24,3866.02 L 5577.25,4381.64 Z " />
<path stroke="transparent" fill="#000000" transform="matrix(0.0833333 0 0 0.0833333 -195.208 -162)" d="M 5505.25,4381.64 L 5485.25,4381.64 L 5485.24,3866.02 L 5505.24,3866.02 L 5505.25,4381.64 Z " />
<path stroke="transparent" fill="#000000" transform="matrix(0.0833333 0 0 0.0833333 -195.208 -162)" d="M 5011.61,3598.35 L 5011.61,3586.8 L 5021.61,3581.03 L 5531.24,3875.26 L 5531.24,3898.35 L 5011.61,3598.35 Z " />
<path stroke="transparent" fill="#000000" transform="matrix(0.0833333 0 0 0.0833333 -195.208 -162)" d="M 4492.05,3898.37 L 4492.05,3875.28 L 5001.61,3581.03 L 5011.61,3586.8 L 5011.61,3598.35 L 4492.05,3898.37 Z " />
<path stroke="transparent" fill="#000000" transform="matrix(0.0833333 0 0 0.0833333 -195.208 -162)" d="M 4497.04,3812.35 L 4487.04,3795.03 L 4934.62,3536.58 L 4944.62,3553.89 L 4497.04,3812.35 Z " />
<path stroke="transparent" fill="#000000" transform="matrix(0.0833333 0 0 0.0833333 -195.208 -162)" d="M 3972.42,3598.36 L 3972.42,3586.82 L 3982.42,3581.04 L 4492.05,3875.28 L 4492.05,3898.37 L 3972.42,3598.36 Z " />
<path stroke="transparent" fill="#000000" transform="matrix(0.0833333 0 0 0.0833333 -195.208 -162)" d="M 3550.42,3842 L 3540.42,3824.68 L 3962.42,3581.04 L 3972.42,3586.82 L 3972.42,3598.36 L 3550.42,3842 Z " />
<path stroke="transparent" fill="#000000" transform="matrix(0.0833333 0 0 0.0833333 -195.208 -162)" d="M 3392.8,4006.64 L 3512.8,4006.64 L 3463.38,4481.36 L 3452.81,4486.81 L 3442.24,4481.36 L 3392.8,4006.64 Z " />
<path stroke="transparent" fill="#000000" transform="matrix(0.0833333 0 0 0.0833333 -195.208 -162)" d="M 3030.81,4741.99 L 3020.81,4724.67 L 3442.24,4481.36 L 3452.81,4486.81 L 3452.81,4498.36 L 3030.81,4741.99 Z " />
<path stroke="transparent" fill="#000000" transform="matrix(0.0833333 0 0 0.0833333 -195.208 -162)" d="M 2923.18,4906.64 L 2943.18,4906.64 L 2943.15,5381 L 2923.15,5392.55 L 2923.18,4906.64 Z " />
<path stroke="transparent" fill="#000000" transform="matrix(0.0833333 0 0 0.0833333 -195.208 -162)" d="M 2443.58,5738.76 L 2383.58,5634.84 L 2401.81,5626.42 L 2459.99,5727.17 L 2443.58,5738.76 Z " />
<path stroke="transparent" fill="#000000" transform="matrix(0.0833333 0 0 0.0833333 -195.208 -162)" d="M 2491.51,5704.9 L 2436.85,5610.25 L 2455.09,5601.84 L 2507.91,5693.31 L 2491.51,5704.9 Z " />
<path stroke="transparent" fill="#000000" transform="matrix(0.0833333 0 0 0.0833333 -195.208 -162)" d="M 2539.43,5671.05 L 2490.13,5585.67 L 2508.37,5577.25 L 2555.84,5659.46 L 2539.43,5671.05 Z " />
<path stroke="transparent" fill="#000000" transform="matrix(0.0833333 0 0 0.0833333 -195.208 -162)" d="M 2587.36,5637.19 L 2543.41,5561.08 L 2561.64,5552.67 L 2603.76,5625.61 L 2587.36,5637.19 Z " />
<path stroke="transparent" fill="#000000" transform="matrix(0.0833333 0 0 0.0833333 -195.208 -162)" d="M 2635.28,5603.34 L 2596.68,5536.5 L 2614.92,5528.08 L 2651.69,5591.75 L 2635.28,5603.34 Z " />
<path stroke="transparent" fill="#000000" transform="matrix(0.0833333 0 0 0.0833333 -195.208 -162)" d="M 2683.21,5569.48 L 2649.96,5511.91 L 2668.2,5503.5 L 2699.61,5557.9 L 2683.21,5569.48 Z " />
<path stroke="transparent" fill="#000000" transform="matrix(0.0833333 0 0 0.0833333 -195.208 -162)" d="M 2731.13,5535.63 L 2703.24,5487.33 L 2721.47,5478.91 L 2747.53,5524.04 L 2731.13,5535.63 Z " />
<path stroke="transparent" fill="#000000" transform="matrix(0.0833333 0 0 0.0833333 -195.208 -162)" d="M 2779.05,5501.78 L 2756.52,5462.74 L 2774.75,5454.33 L 2795.46,5490.19 L 2779.05,5501.78 Z " />
<path stroke="transparent" fill="#000000" transform="matrix(0.0833333 0 0 0.0833333 -195.208 -162)" d="M 2826.98,5467.92 L 2809.79,5438.16 L 2828.03,5429.74 L 2843.38,5456.33 L 2826.98,5467.92 Z " />
<path stroke="transparent" fill="#000000" transform="matrix(0.0833333 0 0 0.0833333 -195.208 -162)" d="M 2874.9,5434.07 L 2863.07,5413.57 L 2881.31,5405.16 L 2891.31,5422.48 L 2874.9,5434.07 Z " />
<path stroke="transparent" fill="#000000" transform="matrix(0.0833333 0 0 0.0833333 -195.208 -162)" d="M 2923.15,5392.55 L 2943.15,5381 L 3452.77,5675.23 L 3452.77,5686.78 L 3442.22,5692.23 L 2923.15,5392.55 Z " />
<path stroke="transparent" fill="#000000" transform="matrix(0.0833333 0 0 0.0833333 -195.208 -162)" d="M 3512.78,6181.61 L 3392.78,6181.61 L 3442.22,5692.23 L 3452.77,5686.78 L 3463.32,5692.23 L 3512.78,6181.61 Z " />
<path stroke="transparent" fill="#000000" transform="matrix(0.0833333 0 0 0.0833333 -195.208 -162)" d="M 3463.32,5692.23 L 3452.77,5686.78 L 3452.77,5675.23 L 3962.39,5381.01 L 3982.39,5392.56 L 3463.32,5692.23 Z " />
<path stroke="transparent" fill="#000000" transform="matrix(0.0833333 0 0 0.0833333 -195.208 -162)" d="M 4429.4,5581.36 L 4369.4,5685.28 L 4353.22,5673.31 L 4410.94,5573.33 L 4429.4,5581.36 Z " />
<path stroke="transparent" fill="#000000" transform="matrix(0.0833333 0 0 0.0833333 -195.208 -162)" d="M 4374.15,5557.33 L 4320.96,5649.44 L 4304.78,5637.47 L 4355.69,5549.3 L 4374.15,5557.33 Z " />
<path stroke="transparent" fill="#000000" transform="matrix(0.0833333 0 0 0.0833333 -195.208 -162)" d="M 4318.89,5533.3 L 4272.53,5613.61 L 4256.35,5601.63 L 4300.43,5525.27 L 4318.89,5533.3 Z " />
<path stroke="transparent" fill="#000000" transform="matrix(0.0833333 0 0 0.0833333 -195.208 -162)" d="M 4263.64,5509.27 L 4224.09,5577.77 L 4207.91,5565.8 L 4245.18,5501.24 L 4263.64,5509.27 Z " />
<path stroke="transparent" fill="#000000" transform="matrix(0.0833333 0 0 0.0833333 -195.208 -162)" d="M 4208.38,5485.24 L 4175.65,5541.93 L 4159.47,5529.96 L 4189.92,5477.22 L 4208.38,5485.24 Z " />
<path stroke="transparent" fill="#000000" transform="matrix(0.0833333 0 0 0.0833333 -195.208 -162)" d="M 4153.13,5461.21 L 4127.22,5506.1 L 4111.04,5494.12 L 4134.67,5453.19 L 4153.13,5461.21 Z " />
<path stroke="transparent" fill="#000000" transform="matrix(0.0833333 0 0 0.0833333 -195.208 -162)" d="M 4097.88,5437.19 L 4078.78,5470.26 L 4062.6,5458.29 L 4079.42,5429.16 L 4097.88,5437.19 Z " />
<path stroke="transparent" fill="#000000" transform="matrix(0.0833333 0 0 0.0833333 -195.208 -162)" d="M 4042.62,5413.16 L 4030.35,5434.42 L 4014.16,5422.45 L 4024.16,5405.13 L 4042.62,5413.16 Z " />
<path stroke="transparent" fill="#000000" transform="matrix(0.0833333 0 0 0.0833333 -195.208 -162)" d="M 3982.39,5392.56 L 3962.39,5381.01 L 3962.38,4792.56 L 3982.38,4781.01 L 3982.39,5392.56 Z " />
<path stroke="transparent" fill="#000000" transform="matrix(0.0833333 0 0 0.0833333 -195.208 -162)" d="M 3982.38,4781.01 L 3962.38,4792.56 L 3452.81,4498.36 L 3452.81,4486.81 L 3463.38,4481.36 L 3982.38,4781.01 Z " />
<path stroke="transparent" fill="#000000" transform="matrix(0.0833333 0 0 0.0833333 -195.208 -162)" d="M 4362.45,4492.35 L 4422.44,4596.28 L 4403.96,4604.27 L 4346.29,4504.36 L 4362.45,4492.35 Z " />
<path stroke="transparent" fill="#000000" transform="matrix(0.0833333 0 0 0.0833333 -195.208 -162)" d="M 4315,4527.61 L 4368.18,4619.74 L 4349.7,4627.73 L 4298.84,4539.61 L 4315,4527.61 Z " />
<path stroke="transparent" fill="#000000" transform="matrix(0.0833333 0 0 0.0833333 -195.208 -162)" d="M 4267.56,4562.86 L 4313.93,4643.19 L 4295.44,4651.18 L 4251.39,4574.87 L 4267.56,4562.86 Z " />
<path stroke="transparent" fill="#000000" transform="matrix(0.0833333 0 0 0.0833333 -195.208 -162)" d="M 4220.11,4598.11 L 4259.67,4666.65 L 4241.19,4674.63 L 4203.95,4610.12 L 4220.11,4598.11 Z " />
<path stroke="transparent" fill="#000000" transform="matrix(0.0833333 0 0 0.0833333 -195.208 -162)" d="M 4172.66,4633.36 L 4205.41,4690.1 L 4186.93,4698.09 L 4156.5,4645.37 L 4172.66,4633.36 Z " />
<path stroke="transparent" fill="#000000" transform="matrix(0.0833333 0 0 0.0833333 -195.208 -162)" d="M 4125.21,4668.62 L 4151.15,4713.55 L 4132.67,4721.54 L 4109.05,4680.62 L 4125.21,4668.62 Z " />
<path stroke="transparent" fill="#000000" transform="matrix(0.0833333 0 0 0.0833333 -195.208 -162)" d="M 4077.76,4703.87 L 4096.89,4737.01 L 4078.41,4745 L 4061.6,4715.88 L 4077.76,4703.87 Z " />
<path stroke="transparent" fill="#000000" transform="matrix(0.0833333 0 0 0.0833333 -195.208 -162)" d="M 4030.32,4739.12 L 4042.63,4760.46 L 4024.15,4768.45 L 4014.15,4751.13 L 4030.32,4739.12 Z " />
<path stroke="transparent" fill="#000000" transform="matrix(0.0833333 0 0 0.0833333 -195.208 -162)" d="M 3962.41,2981.04 L 3982.41,2992.59 L 3982.42,3581.04 L 3972.42,3586.82 L 3962.42,3581.04 L 3962.41,2981.04 Z " />
<path stroke="transparent" fill="#000000" transform="matrix(0.0833333 0 0 0.0833333 -195.208 -162)" d="M 4034.41,3028.38 L 4054.41,3028.38 L 4054.42,3545.25 L 4034.42,3545.25 L 4034.41,3028.38 Z " />
<path stroke="transparent" fill="#000000" transform="matrix(0.0833333 0 0 0.0833333 -195.208 -162)" d="M 4482.06,2681 L 4492.06,2686.77 L 4492.06,2698.32 L 3982.41,2992.59 L 3962.41,2981.04 L 4482.06,2681 Z " />
<path stroke="transparent" fill="#000000" transform="matrix(0.0833333 0 0 0.0833333 -195.208 -162)" d="M 4482.06,2206.6 L 4502.06,2206.6 L 4502.06,2681 L 4492.06,2686.77 L 4482.06,2681 L 4482.06,2206.6 Z " />
<path stroke="transparent" fill="#000000" transform="matrix(0.0833333 0 0 0.0833333 -195.208 -162)" d="M 5011.64,2975.2 L 5011.64,2986.75 L 5001.64,2992.52 L 4492.06,2698.32 L 4492.06,2686.77 L 4502.06,2681 L 5011.64,2975.2 Z " />
<path stroke="transparent" fill="#000000" transform="matrix(0.0833333 0 0 0.0833333 -195.208 -162)" d="M 4944.64,3019.65 L 4934.64,3036.97 L 4487.06,2778.56 L 4497.06,2761.24 L 4944.64,3019.65 Z " />
<path stroke="transparent" fill="#000000" transform="matrix(0.0833333 0 0 0.0833333 -195.208 -162)" d="M 5001.64,2992.52 L 5011.64,2986.75 L 5021.64,2992.52 L 5021.61,3581.03 L 5011.61,3586.8 L 5001.61,3581.03 L 5001.64,2992.52 Z " />
<path stroke="transparent" fill="#000000" transform="matrix(0.0833333 0 0 0.0833333 -195.208 -162)" d="M 5531.31,2675.24 L 5531.31,2698.33 L 5021.64,2992.52 L 5011.64,2986.75 L 5011.64,2975.2 L 5531.31,2675.24 Z " />
<path stroke="transparent" fill="#000000" transform="matrix(0.0833333 0 0 0.0833333 -195.208 -162)" d="M 5531.31,2698.33 L 5531.31,2675.24 L 6050.88,2975.21 L 6050.88,2986.76 L 6040.88,2992.53 L 5531.31,2698.33 Z " />
<path stroke="transparent" fill="#000000" transform="matrix(0.0833333 0 0 0.0833333 -195.208 -162)" d="M 5485.3,2206.62 L 5505.3,2206.62 L 5505.31,2707.56 L 5485.31,2707.56 L 5485.3,2206.62 Z " />
<path stroke="transparent" fill="#000000" transform="matrix(0.0833333 0 0 0.0833333 -195.208 -162)" d="M 5557.3,2206.62 L 5577.3,2206.62 L 5577.31,2707.57 L 5557.31,2707.57 L 5557.3,2206.62 Z " />
</svg>
