<?xml version="1.0" standalone="no" ?>
<!DOCTYPE svg PUBLIC "-//W3C//DTD SVG 1.1//EN" "http://www.w3.org/Graphics/SVG/1.1/DTD/svg11.dtd">
<svg width="278px" height="242px" viewBox="0 0 278 242" style="background-color: #ffffff00" xmlns="http://www.w3.org/2000/svg" xmlns:xlink="http://www.w3.org/1999/xlink" version="1.1" >
<text x="0" y="0" stroke="transparent" fill="#000000" transform="matrix(0.0833333 0 0 0.0833333 41.3091 18.3494)" style="font:normal normal normal 200px 'Arial'" >
O</text>
<text x="0" y="0" stroke="transparent" fill="#000000" transform="matrix(0.0833333 0 0 0.0833333 214.687 168.726)" style="font:normal normal normal 200px 'Arial'" >
N</text>
<text x="0" y="0" stroke="transparent" fill="#000000" transform="matrix(0.0833333 0 0 0.0833333 226.723 162.226)" style="font:normal normal normal 150px 'Arial'" >
+</text>
<text x="0" y="0" stroke="transparent" fill="#000000" transform="matrix(0.0833333 0 0 0.0833333 257.434 193.821)" style="font:normal normal normal 200px 'Arial'" >
O</text>
<text x="0" y="0" stroke="transparent" fill="#000000" transform="matrix(0.0833333 0 0 0.0833333 270.434 187.321)" style="font:normal normal normal 150px 'Arial'" >
-</text>
<text x="0" y="0" stroke="transparent" fill="#000000" transform="matrix(0.0833333 0 0 0.0833333 84.944 93.4417)" style="font:normal normal normal 200px 'Arial'" >
N</text>
<path stroke="transparent" fill="#000000" transform="matrix(0.0833333 0 0 0.0833333 -289.208 -240)" d="M 4088.86,3643.08 L 4068.86,3643.03 L 4069.95,3142.08 L 4089.95,3142.13 L 4088.86,3643.08 Z " />
<path stroke="transparent" fill="#000000" transform="matrix(0.0833333 0 0 0.0833333 -289.208 -240)" d="M 4016.86,3642.92 L 3996.86,3642.87 L 3997.95,3141.93 L 4017.95,3141.97 L 4016.86,3642.92 Z " />
<path stroke="transparent" fill="#000000" transform="matrix(0.0833333 0 0 0.0833333 -289.208 -240)" d="M 3532.62,3926.85 L 3512.65,3915.26 L 4042.93,3610.64 L 4042.88,3633.74 L 3532.62,3926.85 Z " />
<path stroke="transparent" fill="#000000" transform="matrix(0.0833333 0 0 0.0833333 -289.208 -240)" d="M 3531.3,4515.27 L 3511.27,4526.77 L 3512.65,3915.26 L 3532.62,3926.85 L 3531.3,4515.27 Z " />
<path stroke="transparent" fill="#000000" transform="matrix(0.0833333 0 0 0.0833333 -289.208 -240)" d="M 3603.37,4479.63 L 3583.37,4479.59 L 3584.54,3962.76 L 3604.54,3962.8 L 3603.37,4479.63 Z " />
<path stroke="transparent" fill="#000000" transform="matrix(0.0833333 0 0 0.0833333 -289.208 -240)" d="M 4040.28,4810.61 L 4040.23,4833.71 L 3511.27,4526.77 L 3531.3,4515.27 L 4040.28,4810.61 Z " />
<path stroke="transparent" fill="#000000" transform="matrix(0.0833333 0 0 0.0833333 -289.208 -240)" d="M 4550.54,4517.5 L 4560.53,4523.3 L 4560.5,4534.85 L 4040.23,4833.71 L 4040.28,4810.61 L 4550.54,4517.5 Z " />
<path stroke="transparent" fill="#000000" transform="matrix(0.0833333 0 0 0.0833333 -289.208 -240)" d="M 5079.52,4812.89 L 5079.5,4824.44 L 5069.49,4830.19 L 4560.5,4534.85 L 4560.53,4523.3 L 4570.54,4517.55 L 5079.52,4812.89 Z " />
<path stroke="transparent" fill="#000000" transform="matrix(0.0833333 0 0 0.0833333 -289.208 -240)" d="M 5088.21,5418.68 L 5068.19,5430.19 L 5069.49,4830.19 L 5079.5,4824.44 L 5089.49,4830.23 L 5088.21,5418.68 Z " />
<path stroke="transparent" fill="#000000" transform="matrix(0.0833333 0 0 0.0833333 -289.208 -240)" d="M 5597.2,5714.03 L 5597.15,5737.12 L 5068.19,5430.19 L 5088.21,5418.68 L 5597.2,5714.03 Z " />
<path stroke="transparent" fill="#000000" transform="matrix(0.0833333 0 0 0.0833333 -289.208 -240)" d="M 6107.45,5420.92 L 6127.43,5432.51 L 5597.15,5737.12 L 5597.2,5714.03 L 6107.45,5420.92 Z " />
<path stroke="transparent" fill="#000000" transform="matrix(0.0833333 0 0 0.0833333 -289.208 -240)" d="M 6108.49,4944.03 L 6128.49,4944.07 L 6127.43,5432.51 L 6107.45,5420.92 L 6108.49,4944.03 Z " />
<path stroke="transparent" fill="#000000" transform="matrix(0.0833333 0 0 0.0833333 -289.208 -240)" d="M 6550.23,5065.53 L 6540.19,5082.83 L 6223.79,4899.23 L 6233.82,4881.93 L 6550.23,5065.53 Z " />
<path stroke="transparent" fill="#000000" transform="matrix(0.0833333 0 0 0.0833333 -289.208 -240)" d="M 6629.08,4522.09 L 6649.05,4533.68 L 6296.86,4735.95 L 6286.9,4718.61 L 6629.08,4522.09 Z " />
<path stroke="transparent" fill="#000000" transform="matrix(0.0833333 0 0 0.0833333 -289.208 -240)" d="M 6630.35,3933.64 L 6650.38,3922.14 L 6649.05,4533.68 L 6629.08,4522.09 L 6630.35,3933.64 Z " />
<path stroke="transparent" fill="#000000" transform="matrix(0.0833333 0 0 0.0833333 -289.208 -240)" d="M 6121.37,3638.3 L 6121.42,3615.2 L 6650.38,3922.14 L 6630.35,3933.64 L 6121.37,3638.3 Z " />
<path stroke="transparent" fill="#000000" transform="matrix(0.0833333 0 0 0.0833333 -289.208 -240)" d="M 5611.11,3931.4 L 5601.12,3925.61 L 5601.15,3914.06 L 6121.42,3615.2 L 6121.37,3638.3 L 5611.11,3931.4 Z " />
<path stroke="transparent" fill="#000000" transform="matrix(0.0833333 0 0 0.0833333 -289.208 -240)" d="M 5082.07,3635.99 L 5082.13,3612.89 L 5601.15,3914.06 L 5601.12,3925.61 L 5591.11,3931.36 L 5082.07,3635.99 Z " />
<path stroke="transparent" fill="#000000" transform="matrix(0.0833333 0 0 0.0833333 -289.208 -240)" d="M 4670.67,3872.31 L 4660.7,3854.97 L 5082.13,3612.89 L 5082.07,3635.99 L 4670.67,3872.31 Z " />
<path stroke="transparent" fill="#000000" transform="matrix(0.0833333 0 0 0.0833333 -289.208 -240)" d="M 4463.15,3854.48 L 4453.11,3871.78 L 4042.88,3633.74 L 4042.93,3610.64 L 4463.15,3854.48 Z " />
<path stroke="transparent" fill="#000000" transform="matrix(0.0833333 0 0 0.0833333 -289.208 -240)" d="M 4551.57,4040.61 L 4571.57,4040.65 L 4570.54,4517.55 L 4560.53,4523.3 L 4550.54,4517.5 L 4551.57,4040.61 Z " />
<path stroke="transparent" fill="#000000" transform="matrix(0.0833333 0 0 0.0833333 -289.208 -240)" d="M 5609.78,4519.83 L 5599.77,4525.58 L 5589.78,4519.78 L 5591.11,3931.36 L 5601.12,3925.61 L 5611.11,3931.4 L 5609.78,4519.83 Z " />
<path stroke="transparent" fill="#000000" transform="matrix(0.0833333 0 0 0.0833333 -289.208 -240)" d="M 5589.78,4519.78 L 5599.77,4525.58 L 5599.75,4537.12 L 5089.49,4830.23 L 5079.5,4824.44 L 5079.52,4812.89 L 5589.78,4519.78 Z " />
<path stroke="transparent" fill="#000000" transform="matrix(0.0833333 0 0 0.0833333 -289.208 -240)" d="M 5599.75,4537.12 L 5599.77,4525.58 L 5609.78,4519.83 L 6020.07,4757.9 L 6010.03,4775.2 L 5599.75,4537.12 Z " />
</svg>
