<?xml version="1.0" standalone="no" ?>
<!DOCTYPE svg PUBLIC "-//W3C//DTD SVG 1.1//EN" "http://www.w3.org/Graphics/SVG/1.1/DTD/svg11.dtd">
<svg width="560px" height="333px" viewBox="0 0 560 333" style="background-color: #ffffff00" xmlns="http://www.w3.org/2000/svg" xmlns:xlink="http://www.w3.org/1999/xlink" version="1.1" >
<text x="0" y="0" stroke="transparent" fill="#000000" transform="matrix(0.0833333 0 0 0.0833333 256.578 328.45)" style="font:normal normal normal 200px 'Arial'" >
O</text>
<text x="0" y="0" stroke="transparent" fill="#000000" transform="matrix(0.0833333 0 0 0.0833333 245.913 242.505)" style="font:normal normal normal 200px 'Arial'" >
O</text>
<text x="0" y="0" stroke="transparent" fill="#000000" transform="matrix(0.0833333 0 0 0.0833333 214.623 191.642)" style="font:normal normal normal 200px 'Arial'" >
O</text>
<text x="0" y="0" stroke="transparent" fill="#000000" transform="matrix(0.0833333 0 0 0.0833333 171.341 116.632)" style="font:normal normal normal 200px 'Arial'" >
O</text>
<text x="0" y="0" stroke="transparent" fill="#000000" transform="matrix(0.0833333 0 0 0.0833333 356.104 103.621)" style="font:normal normal normal 200px 'Arial'" >
O</text>
<text x="0" y="0" stroke="transparent" fill="#000000" transform="matrix(0.0833333 0 0 0.0833333 344.618 17.7841)" style="font:normal normal normal 200px 'Arial'" >
O</text>
<text x="0" y="0" stroke="transparent" fill="#000000" transform="matrix(0.0833333 0 0 0.0833333 386.271 86.7061)" style="font:normal normal normal 200px 'Arial'" >
O</text>
<text x="0" y="0" stroke="transparent" fill="#000000" transform="matrix(0.0833333 0 0 0.0833333 298.159 329.146)" style="font:normal normal normal 200px 'Arial'" >
O</text>
<path stroke="transparent" fill="#000000" transform="matrix(0.0833333 0 0 0.0833333 -156.208 -193)" d="M 4662.78,5691.5 L 4676.7,5709.92 L 4075.52,5784.52 L 4073.05,5764.67 L 4662.78,5691.5 Z " />
<path stroke="transparent" fill="#000000" transform="matrix(0.0833333 0 0 0.0833333 -156.208 -193)" d="M 5003.79,6066.51 L 4987.83,6078.57 L 4677.95,5668.45 L 4693.91,5656.4 L 5003.79,6066.51 Z " />
<path stroke="transparent" fill="#000000" transform="matrix(0.0833333 0 0 0.0833333 -156.208 -193)" d="M 4946.35,6109.92 L 4930.39,6121.97 L 4620.51,5711.86 L 4636.47,5699.8 L 4946.35,6109.92 Z " />
<path stroke="transparent" fill="#000000" transform="matrix(0.0833333 0 0 0.0833333 -156.208 -193)" d="M 4846.85,5256.23 L 4865.27,5264.02 L 4676.7,5709.92 L 4662.78,5691.5 L 4846.85,5256.23 Z " />
<path stroke="transparent" fill="#000000" transform="matrix(0.0833333 0 0 0.0833333 -156.208 -193)" d="M 5490.21,5065.16 L 5498.87,5074.16 L 5492.67,5085.01 L 5011.35,5144.75 L 5008.88,5124.9 L 5490.21,5065.16 Z " />
<path stroke="transparent" fill="#000000" transform="matrix(0.0833333 0 0 0.0833333 -156.208 -193)" d="M 5584.58,4488.02 L 5595.7,4482.03 L 5605.09,4486.54 L 5509.21,5072.88 L 5498.87,5074.16 L 5490.21,5065.16 L 5584.58,4488.02 Z " />
<path stroke="transparent" fill="#000000" transform="matrix(0.0833333 0 0 0.0833333 -156.208 -193)" d="M 5048.25,4249.07 L 5047.66,4237.86 L 5058.37,4231.68 L 5593.13,4469.94 L 5595.7,4482.03 L 5584.58,4488.02 L 5048.25,4249.07 Z " />
<path stroke="transparent" fill="#000000" transform="matrix(0.0833333 0 0 0.0833333 -156.208 -193)" d="M 4625.6,4492.92 L 4615.61,4475.6 L 5038.25,4231.74 L 5047.66,4237.86 L 5048.25,4249.07 L 4625.6,4492.92 Z " />
<path stroke="transparent" fill="#000000" transform="matrix(0.0833333 0 0 0.0833333 -156.208 -193)" d="M 4008.43,4249.12 L 4008.44,4226.02 L 4440.37,4475.55 L 4430.37,4492.87 L 4008.43,4249.12 Z " />
<path stroke="transparent" fill="#000000" transform="matrix(0.0833333 0 0 0.0833333 -156.208 -193)" d="M 3962.56,3757.4 L 3982.56,3757.41 L 3982.43,4258.35 L 3962.43,4258.34 L 3962.56,3757.4 Z " />
<path stroke="transparent" fill="#000000" transform="matrix(0.0833333 0 0 0.0833333 -156.208 -193)" d="M 4034.56,3757.42 L 4054.56,3757.43 L 4054.43,4258.37 L 4034.43,4258.36 L 4034.56,3757.42 Z " />
<path stroke="transparent" fill="#000000" transform="matrix(0.0833333 0 0 0.0833333 -156.208 -193)" d="M 3488.73,4549 L 3488.73,4525.91 L 4008.44,4226.02 L 4008.43,4249.12 L 3488.73,4549 Z " />
<path stroke="transparent" fill="#000000" transform="matrix(0.0833333 0 0 0.0833333 -156.208 -193)" d="M 2969.19,4248.86 L 2969.19,4237.32 L 2979.19,4231.55 L 3488.73,4525.91 L 3488.73,4549 L 2969.19,4248.86 Z " />
<path stroke="transparent" fill="#000000" transform="matrix(0.0833333 0 0 0.0833333 -156.208 -193)" d="M 2449.5,4548.71 L 2449.51,4525.62 L 2959.19,4231.54 L 2969.19,4237.32 L 2969.19,4248.86 L 2449.5,4548.71 Z " />
<path stroke="transparent" fill="#000000" transform="matrix(0.0833333 0 0 0.0833333 -156.208 -193)" d="M 2454.53,4462.69 L 2444.53,4445.37 L 2892.21,4187.07 L 2902.2,4204.39 L 2454.53,4462.69 Z " />
<path stroke="transparent" fill="#000000" transform="matrix(0.0833333 0 0 0.0833333 -156.208 -193)" d="M 1919.97,4242.8 L 1939.97,4231.26 L 2449.51,4525.62 L 2449.5,4548.71 L 1919.97,4242.8 Z " />
<path stroke="transparent" fill="#000000" transform="matrix(0.0833333 0 0 0.0833333 -156.208 -193)" d="M 1920.12,3631.27 L 1940.12,3642.82 L 1939.97,4231.26 L 1919.97,4242.8 L 1920.12,3631.27 Z " />
<path stroke="transparent" fill="#000000" transform="matrix(0.0833333 0 0 0.0833333 -156.208 -193)" d="M 1992.11,3678.63 L 2012.11,3678.63 L 2011.98,4195.48 L 1991.98,4195.48 L 1992.11,3678.63 Z " />
<path stroke="transparent" fill="#000000" transform="matrix(0.0833333 0 0 0.0833333 -156.208 -193)" d="M 2449.83,3325.61 L 2449.82,3348.7 L 1940.12,3642.82 L 1920.12,3631.27 L 2449.83,3325.61 Z " />
<path stroke="transparent" fill="#000000" transform="matrix(0.0833333 0 0 0.0833333 -156.208 -193)" d="M 2979.37,3631.52 L 2959.36,3643.07 L 2449.82,3348.7 L 2449.83,3325.61 L 2979.37,3631.52 Z " />
<path stroke="transparent" fill="#000000" transform="matrix(0.0833333 0 0 0.0833333 -156.208 -193)" d="M 2902.35,3670.19 L 2892.35,3687.5 L 2444.8,3428.96 L 2454.81,3411.64 L 2902.35,3670.19 Z " />
<path stroke="transparent" fill="#000000" transform="matrix(0.0833333 0 0 0.0833333 -156.208 -193)" d="M 2959.36,3643.07 L 2979.37,3631.52 L 2979.19,4231.55 L 2969.19,4237.32 L 2959.19,4231.54 L 2959.36,3643.07 Z " />
<path stroke="transparent" fill="#000000" transform="matrix(0.0833333 0 0 0.0833333 -156.208 -193)" d="M 5100.02,3645.17 L 5110.5,3641.15 L 5119.68,3649.42 L 5058.37,4231.68 L 5047.66,4237.86 L 5038.25,4231.74 L 5100.02,3645.17 Z " />
<path stroke="transparent" fill="#000000" transform="matrix(0.0833333 0 0 0.0833333 -156.208 -193)" d="M 4658.07,3246.99 L 4671.46,3232.14 L 5113.41,3630.31 L 5110.5,3641.15 L 5100.02,3645.17 L 4658.07,3246.99 Z " />
<path stroke="transparent" fill="#000000" transform="matrix(0.0833333 0 0 0.0833333 -156.208 -193)" d="M 5702.48,3505.28 L 5692.42,3527.86 L 5119.68,3649.42 L 5110.5,3641.15 L 5113.41,3630.31 L 5702.48,3505.28 Z " />
<path stroke="transparent" fill="#000000" transform="matrix(0.0833333 0 0 0.0833333 -156.208 -193)" d="M 5995.8,4013.64 L 5997.3,4036.26 L 5985.01,4034.96 L 5692.42,3527.86 L 5702.48,3505.28 L 5995.8,4013.64 Z " />
<path stroke="transparent" fill="#000000" transform="matrix(0.0833333 0 0 0.0833333 -156.208 -193)" d="M 5985.01,4034.96 L 5997.3,4036.26 L 6002.77,4045.13 L 5605.09,4486.54 L 5595.7,4482.03 L 5593.13,4469.94 L 5985.01,4034.96 Z " />
<path stroke="transparent" fill="#000000" transform="matrix(0.0833333 0 0 0.0833333 -156.208 -193)" d="M 6170.16,3590.18 L 6188.66,3597.8 L 6014.29,4021.26 L 5997.3,4036.26 L 5995.8,4013.64 L 6170.16,3590.18 Z " />
<path stroke="transparent" fill="#000000" transform="matrix(0.0833333 0 0 0.0833333 -156.208 -193)" d="M 5855.08,3016.89 L 5863.87,2995.54 L 6168.53,3390.83 L 6152.69,3403.03 L 5855.08,3016.89 Z " />
<path stroke="transparent" fill="#000000" transform="matrix(0.0833333 0 0 0.0833333 -156.208 -193)" d="M 5266.13,3095.69 L 5263.48,3075.87 L 5863.87,2995.54 L 5855.08,3016.89 L 5266.13,3095.69 Z " />
<path stroke="transparent" fill="#000000" transform="matrix(0.0833333 0 0 0.0833333 -156.208 -193)" d="M 5999.05,2546.43 L 6017.54,2554.05 L 5827.52,3015.54 L 5809.02,3007.92 L 5999.05,2546.43 Z " />
<path stroke="transparent" fill="#000000" transform="matrix(0.0833333 0 0 0.0833333 -156.208 -193)" d="M 6065.62,2573.85 L 6084.12,2581.46 L 5894.1,3042.95 L 5875.6,3035.33 L 6065.62,2573.85 Z " />
<path stroke="transparent" fill="#000000" transform="matrix(0.0833333 0 0 0.0833333 -156.208 -193)" d="M 6576.36,3867.94 L 6575.95,3888.78 L 6002.77,4045.13 L 5997.3,4036.26 L 6014.29,4021.26 L 6576.36,3867.94 Z " />
<path stroke="transparent" fill="#000000" transform="matrix(0.0833333 0 0 0.0833333 -156.208 -193)" d="M 6539.44,3397.38 L 6559.44,3397.77 L 6549.95,3888.43 L 6529.96,3888.04 L 6539.44,3397.38 Z " />
<path stroke="transparent" fill="#000000" transform="matrix(0.0833333 0 0 0.0833333 -156.208 -193)" d="M 6611.43,3398.77 L 6631.43,3399.16 L 6621.94,3889.82 L 6601.95,3889.43 L 6611.43,3398.77 Z " />
<path stroke="transparent" fill="#000000" transform="matrix(0.0833333 0 0 0.0833333 -156.208 -193)" d="M 7144.34,4046.71 L 7148.48,4058.49 L 7142.68,4067.15 L 6575.95,3888.78 L 6576.36,3867.94 L 7144.34,4046.71 Z " />
<path stroke="transparent" fill="#000000" transform="matrix(0.0833333 0 0 0.0833333 -156.208 -193)" d="M 7474.25,3554.52 L 7490.87,3565.66 L 7160.96,4057.84 L 7148.48,4058.49 L 7144.34,4046.71 L 7474.25,3554.52 Z " />
<path stroke="transparent" fill="#000000" transform="matrix(0.0833333 0 0 0.0833333 -156.208 -193)" d="M 7542.13,4515.3 L 7523.01,4523.59 L 7142.68,4067.15 L 7148.48,4058.49 L 7160.96,4057.84 L 7542.13,4515.3 Z " />
<path stroke="transparent" fill="#000000" transform="matrix(0.0833333 0 0 0.0833333 -156.208 -193)" d="M 7471.41,4542.89 L 7456.04,4555.69 L 7099.02,4127.23 L 7114.38,4114.42 L 7471.41,4542.89 Z " />
<path stroke="transparent" fill="#000000" transform="matrix(0.0833333 0 0 0.0833333 -156.208 -193)" d="M 7616.1,5111.22 L 7606.48,5114.86 L 7596.19,5113.18 L 7523.01,4523.59 L 7542.13,4515.3 L 7616.1,5111.22 Z " />
<path stroke="transparent" fill="#000000" transform="matrix(0.0833333 0 0 0.0833333 -156.208 -193)" d="M 7363.25,5644.42 L 7346.74,5655.71 L 7338.99,5648.73 L 7596.19,5113.18 L 7606.48,5114.86 L 7607.99,5134.8 L 7363.25,5644.42 Z " />
<path stroke="transparent" fill="#000000" transform="matrix(0.0833333 0 0 0.0833333 -156.208 -193)" d="M 6838.55,5980.37 L 6833.06,5960.26 L 7338.99,5648.73 L 7346.74,5655.71 L 7349.92,5665.49 L 6838.55,5980.37 Z " />
<path stroke="transparent" fill="#000000" transform="matrix(0.0833333 0 0 0.0833333 -156.208 -193)" d="M 6232.82,5968.68 L 6239.08,5948.79 L 6833.06,5960.26 L 6838.55,5980.37 L 6232.82,5968.68 Z " />
<path stroke="transparent" fill="#000000" transform="matrix(0.0833333 0 0 0.0833333 -156.208 -193)" d="M 5742.54,5640.04 L 5737.54,5624.66 L 5745.55,5617.99 L 6239.08,5948.79 L 6232.82,5968.68 L 5742.54,5640.04 Z " />
<path stroke="transparent" fill="#000000" transform="matrix(0.0833333 0 0 0.0833333 -156.208 -193)" d="M 5745.55,5617.99 L 5737.54,5624.66 L 5723.31,5616.97 L 5492.67,5085.01 L 5498.87,5074.16 L 5509.21,5072.88 L 5745.55,5617.99 Z " />
<path stroke="transparent" fill="#000000" transform="matrix(0.0833333 0 0 0.0833333 -156.208 -193)" d="M 5165.09,5733.71 L 5127.55,5719.9 L 5723.31,5616.97 L 5737.54,5624.66 L 5722.18,5637.46 L 5165.09,5733.71 Z " />
<path stroke="transparent" fill="#000000" transform="matrix(0.0833333 0 0 0.0833333 -156.208 -193)" d="M 5469.78,6099.38 L 5454.41,6112.18 L 5127.55,5719.9 L 5165.09,5733.71 L 5469.78,6099.38 Z " />
<path stroke="transparent" fill="#000000" transform="matrix(0.0833333 0 0 0.0833333 -156.208 -193)" d="M 5576.43,6091.6 L 5557.66,6084.7 L 5722.18,5637.46 L 5737.54,5624.66 L 5742.54,5640.04 L 5576.43,6091.6 Z " />
<path stroke="transparent" fill="#000000" transform="matrix(0.0833333 0 0 0.0833333 -156.208 -193)" d="M 7927,5601.59 L 7945.03,5610.25 L 7940.03,5620.66 L 7349.92,5665.49 L 7346.74,5655.71 L 7363.25,5644.42 L 7927,5601.59 Z " />
<path stroke="transparent" fill="#000000" transform="matrix(0.0833333 0 0 0.0833333 -156.208 -193)" d="M 7950.03,5599.84 L 7945.03,5610.25 L 7927,5601.59 L 7607.99,5134.8 L 7606.48,5114.86 L 7616.1,5111.22 L 7950.03,5599.84 Z " />
<path stroke="transparent" fill="#000000" transform="matrix(0.0833333 0 0 0.0833333 -156.208 -193)" d="M 8291.81,6099.98 L 8275.29,6111.27 L 7940.03,5620.66 L 7945.03,5610.25 L 7963.06,5618.91 L 8291.81,6099.98 Z " />
<path stroke="transparent" fill="#000000" transform="matrix(0.0833333 0 0 0.0833333 -156.208 -193)" d="M 8542.51,5554.75 L 8544.03,5574.7 L 7963.06,5618.91 L 7945.03,5610.25 L 7950.03,5599.84 L 8542.51,5554.75 Z " />
</svg>
