<?xml version="1.0" standalone="no" ?>
<!DOCTYPE svg PUBLIC "-//W3C//DTD SVG 1.1//EN" "http://www.w3.org/Graphics/SVG/1.1/DTD/svg11.dtd">
<svg width="596px" height="397px" viewBox="0 0 596 397" style="background-color: #ffffff00" xmlns="http://www.w3.org/2000/svg" xmlns:xlink="http://www.w3.org/1999/xlink" version="1.1" >
<path stroke="transparent" fill="#000000" transform="matrix(0.0833333 0 0 0.0833333 -137.875 -170)" d="M 2049.33,6076.08 L 1989.33,5972.15 L 2436.33,5771.17 L 2446.33,5777.58 L 2446.89,5789.45 L 2049.33,6076.08 Z " />
<path stroke="transparent" fill="#000000" transform="matrix(0.0833333 0 0 0.0833333 -137.875 -170)" d="M 3025.95,6572.42 L 2905.95,6572.42 L 2908.22,6552.42 L 3023.68,6552.42 L 3025.95,6572.42 Z " />
<path stroke="transparent" fill="#000000" transform="matrix(0.0833333 0 0 0.0833333 -137.875 -170)" d="M 3019.13,6512.31 L 2912.77,6512.31 L 2915.04,6492.31 L 3016.86,6492.31 L 3019.13,6512.31 Z " />
<path stroke="transparent" fill="#000000" transform="matrix(0.0833333 0 0 0.0833333 -137.875 -170)" d="M 3012.31,6452.2 L 2919.59,6452.2 L 2921.85,6432.2 L 3010.04,6432.2 L 3012.31,6452.2 Z " />
<path stroke="transparent" fill="#000000" transform="matrix(0.0833333 0 0 0.0833333 -137.875 -170)" d="M 3005.49,6392.1 L 2926.4,6392.1 L 2928.67,6372.1 L 3003.22,6372.1 L 3005.49,6392.1 Z " />
<path stroke="transparent" fill="#000000" transform="matrix(0.0833333 0 0 0.0833333 -137.875 -170)" d="M 2998.67,6331.99 L 2933.22,6331.99 L 2935.49,6311.99 L 2996.4,6311.99 L 2998.67,6331.99 Z " />
<path stroke="transparent" fill="#000000" transform="matrix(0.0833333 0 0 0.0833333 -137.875 -170)" d="M 2991.85,6271.89 L 2940.04,6271.89 L 2942.31,6251.89 L 2989.59,6251.89 L 2991.85,6271.89 Z " />
<path stroke="transparent" fill="#000000" transform="matrix(0.0833333 0 0 0.0833333 -137.875 -170)" d="M 2985.04,6211.78 L 2946.86,6211.78 L 2949.13,6191.78 L 2982.77,6191.78 L 2985.04,6211.78 Z " />
<path stroke="transparent" fill="#000000" transform="matrix(0.0833333 0 0 0.0833333 -137.875 -170)" d="M 2978.22,6151.67 L 2953.68,6151.67 L 2955.95,6131.67 L 2975.95,6131.67 L 2978.22,6151.67 Z " />
<path stroke="transparent" fill="#000000" transform="matrix(0.0833333 0 0 0.0833333 -137.875 -170)" d="M 3942.56,5972.15 L 3882.56,6076.07 L 3866.38,6064.1 L 3924.1,5964.12 L 3942.56,5972.15 Z " />
<path stroke="transparent" fill="#000000" transform="matrix(0.0833333 0 0 0.0833333 -137.875 -170)" d="M 3887.31,5948.12 L 3834.13,6040.24 L 3817.94,6028.26 L 3868.85,5940.09 L 3887.31,5948.12 Z " />
<path stroke="transparent" fill="#000000" transform="matrix(0.0833333 0 0 0.0833333 -137.875 -170)" d="M 3832.06,5924.09 L 3785.69,6004.4 L 3769.51,5992.43 L 3813.6,5916.07 L 3832.06,5924.09 Z " />
<path stroke="transparent" fill="#000000" transform="matrix(0.0833333 0 0 0.0833333 -137.875 -170)" d="M 3776.8,5900.07 L 3737.26,5968.56 L 3721.07,5956.59 L 3758.34,5892.04 L 3776.8,5900.07 Z " />
<path stroke="transparent" fill="#000000" transform="matrix(0.0833333 0 0 0.0833333 -137.875 -170)" d="M 3721.55,5876.04 L 3688.82,5932.73 L 3672.64,5920.75 L 3703.09,5868.01 L 3721.55,5876.04 Z " />
<path stroke="transparent" fill="#000000" transform="matrix(0.0833333 0 0 0.0833333 -137.875 -170)" d="M 3666.3,5852.01 L 3640.39,5896.89 L 3624.2,5884.92 L 3647.84,5843.98 L 3666.3,5852.01 Z " />
<path stroke="transparent" fill="#000000" transform="matrix(0.0833333 0 0 0.0833333 -137.875 -170)" d="M 3611.05,5827.98 L 3591.95,5861.06 L 3575.77,5849.08 L 3592.59,5819.95 L 3611.05,5827.98 Z " />
<path stroke="transparent" fill="#000000" transform="matrix(0.0833333 0 0 0.0833333 -137.875 -170)" d="M 3555.79,5803.95 L 3543.52,5825.22 L 3527.33,5813.25 L 3537.33,5795.93 L 3555.79,5803.95 Z " />
<path stroke="transparent" fill="#000000" transform="matrix(0.0833333 0 0 0.0833333 -137.875 -170)" d="M 5624.02,5672.42 L 5504.02,5672.42 L 5506.29,5652.42 L 5621.76,5652.42 L 5624.02,5672.42 Z " />
<path stroke="transparent" fill="#000000" transform="matrix(0.0833333 0 0 0.0833333 -137.875 -170)" d="M 5617.21,5612.31 L 5510.84,5612.31 L 5513.11,5592.31 L 5614.94,5592.31 L 5617.21,5612.31 Z " />
<path stroke="transparent" fill="#000000" transform="matrix(0.0833333 0 0 0.0833333 -137.875 -170)" d="M 5610.39,5552.2 L 5517.66,5552.2 L 5519.93,5532.2 L 5608.12,5532.2 L 5610.39,5552.2 Z " />
<path stroke="transparent" fill="#000000" transform="matrix(0.0833333 0 0 0.0833333 -137.875 -170)" d="M 5603.57,5492.1 L 5524.48,5492.1 L 5526.75,5472.1 L 5601.3,5472.1 L 5603.57,5492.1 Z " />
<path stroke="transparent" fill="#000000" transform="matrix(0.0833333 0 0 0.0833333 -137.875 -170)" d="M 5596.75,5431.99 L 5531.3,5431.99 L 5533.57,5411.99 L 5594.48,5411.99 L 5596.75,5431.99 Z " />
<path stroke="transparent" fill="#000000" transform="matrix(0.0833333 0 0 0.0833333 -137.875 -170)" d="M 5589.93,5371.89 L 5538.12,5371.89 L 5540.39,5351.89 L 5587.66,5351.89 L 5589.93,5371.89 Z " />
<path stroke="transparent" fill="#000000" transform="matrix(0.0833333 0 0 0.0833333 -137.875 -170)" d="M 5583.11,5311.78 L 5544.94,5311.78 L 5547.21,5291.78 L 5580.84,5291.78 L 5583.11,5311.78 Z " />
<path stroke="transparent" fill="#000000" transform="matrix(0.0833333 0 0 0.0833333 -137.875 -170)" d="M 5576.29,5251.67 L 5551.76,5251.67 L 5554.02,5231.67 L 5574.02,5231.67 L 5576.29,5251.67 Z " />
<path stroke="transparent" fill="#000000" transform="matrix(0.0833333 0 0 0.0833333 -137.875 -170)" d="M 6540.64,5072.15 L 6480.64,5176.07 L 6083.09,4889.45 L 6083.64,4877.58 L 6093.64,4871.17 L 6540.64,5072.15 Z " />
<path stroke="transparent" fill="#000000" transform="matrix(0.0833333 0 0 0.0833333 -137.875 -170)" d="M 6473.65,3983.13 L 6533.65,4087.05 L 6515.17,4095.04 L 6457.49,3995.14 L 6473.65,3983.13 Z " />
<path stroke="transparent" fill="#000000" transform="matrix(0.0833333 0 0 0.0833333 -137.875 -170)" d="M 6426.22,4018.38 L 6479.41,4110.5 L 6460.93,4118.49 L 6410.06,4030.38 L 6426.22,4018.38 Z " />
<path stroke="transparent" fill="#000000" transform="matrix(0.0833333 0 0 0.0833333 -137.875 -170)" d="M 6378.8,4053.62 L 6425.17,4133.95 L 6406.69,4141.94 L 6362.64,4065.63 L 6378.8,4053.62 Z " />
<path stroke="transparent" fill="#000000" transform="matrix(0.0833333 0 0 0.0833333 -137.875 -170)" d="M 6331.37,4088.87 L 6370.94,4157.4 L 6352.45,4165.39 L 6315.21,4100.88 L 6331.37,4088.87 Z " />
<path stroke="transparent" fill="#000000" transform="matrix(0.0833333 0 0 0.0833333 -137.875 -170)" d="M 6283.94,4124.12 L 6316.7,4180.85 L 6298.22,4188.84 L 6267.78,4136.13 L 6283.94,4124.12 Z " />
<path stroke="transparent" fill="#000000" transform="matrix(0.0833333 0 0 0.0833333 -137.875 -170)" d="M 6236.52,4159.36 L 6262.46,4204.3 L 6243.98,4212.29 L 6220.36,4171.37 L 6236.52,4159.36 Z " />
<path stroke="transparent" fill="#000000" transform="matrix(0.0833333 0 0 0.0833333 -137.875 -170)" d="M 6189.09,4194.61 L 6208.22,4227.75 L 6189.74,4235.74 L 6172.93,4206.62 L 6189.09,4194.61 Z " />
<path stroke="transparent" fill="#000000" transform="matrix(0.0833333 0 0 0.0833333 -137.875 -170)" d="M 6141.66,4229.86 L 6153.98,4251.2 L 6135.5,4259.19 L 6125.5,4241.87 L 6141.66,4229.86 Z " />
<path stroke="transparent" fill="#000000" transform="matrix(0.0833333 0 0 0.0833333 -137.875 -170)" d="M 5049.41,2486.24 L 5039.41,2468.92 L 5459.42,2226.43 L 5469.42,2243.75 L 5049.41,2486.24 Z " />
<path stroke="transparent" fill="#000000" transform="matrix(0.0833333 0 0 0.0833333 -137.875 -170)" d="M 5659.06,2244 L 5669.06,2226.68 L 6083.64,2466.04 L 6083.64,2477.58 L 6073.64,2483.36 L 5659.06,2244 Z " />
<path stroke="transparent" fill="#000000" transform="matrix(0.0833333 0 0 0.0833333 -137.875 -170)" d="M 6603.25,3366.04 L 6603.25,3389.13 L 6083.64,3089.13 L 6083.64,3077.58 L 6093.64,3071.81 L 6603.25,3366.04 Z " />
<path stroke="transparent" fill="#000000" transform="matrix(0.0833333 0 0 0.0833333 -137.875 -170)" d="M 6603.25,3389.13 L 6603.25,3366.04 L 7112.87,3071.81 L 7122.87,3077.58 L 7122.87,3089.13 L 6603.25,3389.13 Z " />
<path stroke="transparent" fill="#000000" transform="matrix(0.0833333 0 0 0.0833333 -137.875 -170)" d="M 6608.25,3303.11 L 6598.25,3285.79 L 7045.87,3027.35 L 7055.87,3044.67 L 6608.25,3303.11 Z " />
<path stroke="transparent" fill="#000000" transform="matrix(0.0833333 0 0 0.0833333 -137.875 -170)" d="M 7132.87,3071.81 L 7122.87,3077.58 L 7112.87,3071.81 L 7112.87,2483.36 L 7122.87,2477.58 L 7132.87,2483.36 L 7132.87,3071.81 Z " />
<path stroke="transparent" fill="#000000" transform="matrix(0.0833333 0 0 0.0833333 -137.875 -170)" d="M 7122.87,3089.13 L 7122.87,3077.58 L 7132.87,3071.81 L 7554.87,3315.45 L 7544.87,3332.77 L 7122.87,3089.13 Z " />
<path stroke="transparent" fill="#000000" transform="matrix(0.0833333 0 0 0.0833333 -137.875 -170)" d="M 7740.1,3332.77 L 7730.1,3315.45 L 8152.1,3071.81 L 8172.1,3083.36 L 7740.1,3332.77 Z " />
<path stroke="transparent" fill="#000000" transform="matrix(0.0833333 0 0 0.0833333 -137.875 -170)" d="M 8612.1,3284.27 L 8602.1,3301.59 L 8157.1,3044.67 L 8167.1,3027.35 L 8612.1,3284.27 Z " />
<path stroke="transparent" fill="#000000" transform="matrix(0.0833333 0 0 0.0833333 -137.875 -170)" d="M 8576.1,3346.63 L 8566.1,3363.95 L 8121.1,3107.03 L 8131.1,3089.71 L 8576.1,3346.63 Z " />
<path stroke="transparent" fill="#000000" transform="matrix(0.0833333 0 0 0.0833333 -137.875 -170)" d="M 8172.1,3083.36 L 8152.1,3071.81 L 8152.1,2483.36 L 8172.1,2471.81 L 8172.1,3083.36 Z " />
<path stroke="transparent" fill="#000000" transform="matrix(0.0833333 0 0 0.0833333 -137.875 -170)" d="M 8172.1,2471.81 L 8152.1,2483.36 L 7642.49,2189.13 L 7642.49,2166.04 L 8172.1,2471.81 Z " />
<path stroke="transparent" fill="#000000" transform="matrix(0.0833333 0 0 0.0833333 -137.875 -170)" d="M 8095.1,2510.49 L 8085.1,2527.81 L 7637.49,2269.38 L 7647.49,2252.06 L 8095.1,2510.49 Z " />
<path stroke="transparent" fill="#000000" transform="matrix(0.0833333 0 0 0.0833333 -137.875 -170)" d="M 7642.49,2166.04 L 7642.49,2189.13 L 7132.87,2483.36 L 7122.87,2477.58 L 7122.87,2466.04 L 7642.49,2166.04 Z " />
<path stroke="transparent" fill="#000000" transform="matrix(0.0833333 0 0 0.0833333 -137.875 -170)" d="M 7122.87,2466.04 L 7122.87,2477.58 L 7112.87,2483.36 L 6603.25,2189.13 L 6603.25,2166.04 L 7122.87,2466.04 Z " />
<path stroke="transparent" fill="#000000" transform="matrix(0.0833333 0 0 0.0833333 -137.875 -170)" d="M 7055.87,2510.49 L 7045.87,2527.81 L 6598.25,2269.38 L 6608.25,2252.06 L 7055.87,2510.49 Z " />
<path stroke="transparent" fill="#000000" transform="matrix(0.0833333 0 0 0.0833333 -137.875 -170)" d="M 6603.25,2166.04 L 6603.25,2189.13 L 6093.64,2483.36 L 6083.64,2477.58 L 6083.64,2466.04 L 6603.25,2166.04 Z " />
<path stroke="transparent" fill="#000000" transform="matrix(0.0833333 0 0 0.0833333 -137.875 -170)" d="M 6073.64,2483.36 L 6083.64,2477.58 L 6093.64,2483.36 L 6093.64,3071.81 L 6083.64,3077.58 L 6073.64,3071.81 L 6073.64,2483.36 Z " />
<path stroke="transparent" fill="#000000" transform="matrix(0.0833333 0 0 0.0833333 -137.875 -170)" d="M 6145.64,2519.15 L 6165.64,2519.15 L 6165.64,3036.01 L 6145.64,3036.01 L 6145.64,2519.15 Z " />
<path stroke="transparent" fill="#000000" transform="matrix(0.0833333 0 0 0.0833333 -137.875 -170)" d="M 6073.64,3071.81 L 6083.64,3077.58 L 6083.64,3089.13 L 5661.64,3332.77 L 5651.64,3315.45 L 6073.64,3071.81 Z " />
<path stroke="transparent" fill="#000000" transform="matrix(0.0833333 0 0 0.0833333 -137.875 -170)" d="M 5504.02,3497.42 L 5624.02,3497.42 L 5574.59,3972.14 L 5564.02,3977.58 L 5553.46,3972.14 L 5504.02,3497.42 Z " />
<path stroke="transparent" fill="#000000" transform="matrix(0.0833333 0 0 0.0833333 -137.875 -170)" d="M 5034.41,4397.42 L 5054.41,4397.42 L 5054.41,4871.81 L 5044.41,4877.58 L 5034.41,4871.81 L 5034.41,4397.42 Z " />
<path stroke="transparent" fill="#000000" transform="matrix(0.0833333 0 0 0.0833333 -137.875 -170)" d="M 5142.03,4232.77 L 5132.03,4215.45 L 5553.46,3972.14 L 5564.02,3977.58 L 5564.02,3989.13 L 5142.03,4232.77 Z " />
<path stroke="transparent" fill="#000000" transform="matrix(0.0833333 0 0 0.0833333 -137.875 -170)" d="M 5564.02,3989.13 L 5564.02,3977.58 L 5574.59,3972.14 L 6093.64,4271.81 L 6073.64,4283.36 L 5564.02,3989.13 Z " />
<path stroke="transparent" fill="#000000" transform="matrix(0.0833333 0 0 0.0833333 -137.875 -170)" d="M 6073.64,4283.36 L 6093.64,4271.81 L 6093.64,4871.17 L 6083.64,4877.58 L 6073.64,4871.81 L 6073.64,4283.36 Z " />
<path stroke="transparent" fill="#000000" transform="matrix(0.0833333 0 0 0.0833333 -137.875 -170)" d="M 6073.64,4871.81 L 6083.64,4877.58 L 6083.09,4889.45 L 5564.02,5189.13 L 5564.02,5166.04 L 6073.64,4871.81 Z " />
<path stroke="transparent" fill="#000000" transform="matrix(0.0833333 0 0 0.0833333 -137.875 -170)" d="M 5564.02,5166.04 L 5564.02,5189.13 L 5044.41,4889.13 L 5044.41,4877.58 L 5054.41,4871.81 L 5564.02,5166.04 Z " />
<path stroke="transparent" fill="#000000" transform="matrix(0.0833333 0 0 0.0833333 -137.875 -170)" d="M 5034.41,4871.81 L 5044.41,4877.58 L 5044.41,4889.13 L 4524.79,5189.13 L 4524.79,5166.04 L 5034.41,4871.81 Z " />
<path stroke="transparent" fill="#000000" transform="matrix(0.0833333 0 0 0.0833333 -137.875 -170)" d="M 4524.79,5166.04 L 4524.79,5189.13 L 4100.22,4944 L 4110.22,4926.68 L 4524.79,5166.04 Z " />
<path stroke="transparent" fill="#000000" transform="matrix(0.0833333 0 0 0.0833333 -137.875 -170)" d="M 3875.58,4883.13 L 3935.58,4987.05 L 3495.56,5184.01 L 3485.56,5177.58 L 3485,5165.71 L 3875.58,4883.13 Z " />
<path stroke="transparent" fill="#000000" transform="matrix(0.0833333 0 0 0.0833333 -137.875 -170)" d="M 2861.35,4926.43 L 2871.35,4943.75 L 2456.33,5183.36 L 2436.33,5171.81 L 2861.35,4926.43 Z " />
<path stroke="transparent" fill="#000000" transform="matrix(0.0833333 0 0 0.0833333 -137.875 -170)" d="M 3060.99,4944 L 3070.99,4926.68 L 3485,5165.71 L 3485.56,5177.58 L 3475.56,5183.36 L 3060.99,4944 Z " />
<path stroke="transparent" fill="#000000" transform="matrix(0.0833333 0 0 0.0833333 -137.875 -170)" d="M 3475.56,5183.36 L 3485.56,5177.58 L 3495.56,5184.01 L 3495.56,5783.36 L 3475.56,5771.81 L 3475.56,5183.36 Z " />
<path stroke="transparent" fill="#000000" transform="matrix(0.0833333 0 0 0.0833333 -137.875 -170)" d="M 3475.56,5771.81 L 3495.56,5783.36 L 2965.95,6089.13 L 2965.95,6066.04 L 3475.56,5771.81 Z " />
<path stroke="transparent" fill="#000000" transform="matrix(0.0833333 0 0 0.0833333 -137.875 -170)" d="M 2965.95,6066.04 L 2965.95,6089.13 L 2446.89,5789.45 L 2446.33,5777.58 L 2456.33,5771.81 L 2965.95,6066.04 Z " />
<path stroke="transparent" fill="#000000" transform="matrix(0.0833333 0 0 0.0833333 -137.875 -170)" d="M 2456.33,5771.81 L 2446.33,5777.58 L 2436.33,5771.17 L 2436.33,5171.81 L 2456.33,5183.36 L 2456.33,5771.81 Z " />
<path stroke="transparent" fill="#000000" transform="matrix(0.0833333 0 0 0.0833333 -137.875 -170)" d="M 1896.72,4929.54 L 1956.72,4825.62 L 1973.12,4837.21 L 1914.95,4937.96 L 1896.72,4929.54 Z " />
<path stroke="transparent" fill="#000000" transform="matrix(0.0833333 0 0 0.0833333 -137.875 -170)" d="M 1950,4954.13 L 2004.65,4859.47 L 2021.05,4871.06 L 1968.24,4962.54 L 1950,4954.13 Z " />
<path stroke="transparent" fill="#000000" transform="matrix(0.0833333 0 0 0.0833333 -137.875 -170)" d="M 2003.28,4978.71 L 2052.58,4893.33 L 2068.98,4904.91 L 2021.52,4987.12 L 2003.28,4978.71 Z " />
<path stroke="transparent" fill="#000000" transform="matrix(0.0833333 0 0 0.0833333 -137.875 -170)" d="M 2056.56,5003.29 L 2100.51,4927.18 L 2116.91,4938.76 L 2074.8,5011.71 L 2056.56,5003.29 Z " />
<path stroke="transparent" fill="#000000" transform="matrix(0.0833333 0 0 0.0833333 -137.875 -170)" d="M 2109.85,5027.87 L 2148.44,4961.03 L 2164.84,4972.62 L 2128.08,5036.29 L 2109.85,5027.87 Z " />
<path stroke="transparent" fill="#000000" transform="matrix(0.0833333 0 0 0.0833333 -137.875 -170)" d="M 2163.13,5052.46 L 2196.37,4994.88 L 2212.77,5006.47 L 2181.36,5060.87 L 2163.13,5052.46 Z " />
<path stroke="transparent" fill="#000000" transform="matrix(0.0833333 0 0 0.0833333 -137.875 -170)" d="M 2216.41,5077.04 L 2244.3,5028.74 L 2260.7,5040.32 L 2234.64,5085.45 L 2216.41,5077.04 Z " />
<path stroke="transparent" fill="#000000" transform="matrix(0.0833333 0 0 0.0833333 -137.875 -170)" d="M 2269.69,5101.62 L 2292.23,5062.59 L 2308.63,5074.17 L 2287.93,5110.03 L 2269.69,5101.62 Z " />
<path stroke="transparent" fill="#000000" transform="matrix(0.0833333 0 0 0.0833333 -137.875 -170)" d="M 2322.97,5126.2 L 2340.16,5096.44 L 2356.56,5108.03 L 2341.21,5134.62 L 2322.97,5126.2 Z " />
<path stroke="transparent" fill="#000000" transform="matrix(0.0833333 0 0 0.0833333 -137.875 -170)" d="M 2376.25,5150.79 L 2388.09,5130.29 L 2404.49,5141.88 L 2394.49,5159.2 L 2376.25,5150.79 Z " />
<text x="0" y="0" stroke="transparent" fill="#000000" transform="matrix(0.0833333 0 0 0.0833333 4.14871 342.965)" style="font:normal normal normal 200px 'Arial'" >
HO</text>
<text x="0" y="0" stroke="transparent" fill="#000000" transform="matrix(0.0833333 0 0 0.0833333 102.787 392.965)" style="font:normal normal normal 200px 'Arial'" >
OH</text>
<text x="0" y="0" stroke="transparent" fill="#000000" transform="matrix(0.0833333 0 0 0.0833333 189.39 342.965)" style="font:normal normal normal 200px 'Arial'" >
OH</text>
<text x="0" y="0" stroke="transparent" fill="#000000" transform="matrix(0.0833333 0 0 0.0833333 319.294 317.965)" style="font:normal normal normal 200px 'Arial'" >
OH</text>
<text x="0" y="0" stroke="transparent" fill="#000000" transform="matrix(0.0833333 0 0 0.0833333 405.896 267.965)" style="font:normal normal normal 200px 'Arial'" >
OH</text>
<text x="0" y="0" stroke="transparent" fill="#000000" transform="matrix(0.0833333 0 0 0.0833333 405.896 167.965)" style="font:normal normal normal 200px 'Arial'" >
OH</text>
<text x="0" y="0" stroke="transparent" fill="#000000" transform="matrix(0.0833333 0 0 0.0833333 319.294 17.9653)" style="font:normal normal normal 200px 'Arial'" >
O</text>
<text x="0" y="0" stroke="transparent" fill="#000000" transform="matrix(0.0833333 0 0 0.0833333 492.499 117.965)" style="font:normal normal normal 200px 'Arial'" >
O</text>
<text x="0" y="0" stroke="transparent" fill="#000000" transform="matrix(0.0833333 0 0 0.0833333 579.101 117.965)" style="font:normal normal normal 200px 'Arial'" >
O</text>
<text x="0" y="0" stroke="transparent" fill="#000000" transform="matrix(0.0833333 0 0 0.0833333 319.294 117.965)" style="font:normal normal normal 200px 'Arial'" >
O</text>
<text x="0" y="0" stroke="transparent" fill="#000000" transform="matrix(0.0833333 0 0 0.0833333 275.992 192.965)" style="font:normal normal normal 200px 'Arial'" >
O</text>
<text x="0" y="0" stroke="transparent" fill="#000000" transform="matrix(0.0833333 0 0 0.0833333 189.39 242.965)" style="font:normal normal normal 200px 'Arial'" >
O</text>
<text x="0" y="0" stroke="transparent" fill="#000000" transform="matrix(0.0833333 0 0 0.0833333 102.787 242.965)" style="font:normal normal normal 200px 'Arial'" >
O</text>
</svg>
