<?xml version="1.0" standalone="no" ?>
<!DOCTYPE svg PUBLIC "-//W3C//DTD SVG 1.1//EN" "http://www.w3.org/Graphics/SVG/1.1/DTD/svg11.dtd">
<svg width="477px" height="397px" viewBox="0 0 477 397" style="background-color: #ffffff00" xmlns="http://www.w3.org/2000/svg" xmlns:xlink="http://www.w3.org/1999/xlink" version="1.1" >
<text x="0" y="0" stroke="transparent" fill="#000000" transform="matrix(0.0833333 0 0 0.0833333 47.1715 217.805)" style="font:normal normal normal 200px 'Arial'" >
HO</text>
<text x="0" y="0" stroke="transparent" fill="#000000" transform="matrix(0.0833333 0 0 0.0833333 232.159 217.677)" style="font:normal normal normal 200px 'Arial'" >
O</text>
<text x="0" y="0" stroke="transparent" fill="#000000" transform="matrix(0.0833333 0 0 0.0833333 102.505 142.58)" style="font:normal normal normal 200px 'Arial'" >
O</text>
<text x="0" y="0" stroke="transparent" fill="#000000" transform="matrix(0.0833333 0 0 0.0833333 232.341 167.702)" style="font:normal normal normal 200px 'Arial'" >
OH</text>
<text x="0" y="0" stroke="transparent" fill="#000000" transform="matrix(0.0833333 0 0 0.0833333 232.159 368.417)" style="font:normal normal normal 200px 'Arial'" >
O</text>
<text x="0" y="0" stroke="transparent" fill="#000000" transform="matrix(0.0833333 0 0 0.0833333 232.341 67.7016)" style="font:normal normal normal 200px 'Arial'" >
OH</text>
<text x="0" y="0" stroke="transparent" fill="#000000" transform="matrix(0.0833333 0 0 0.0833333 3.86847 92.5804)" style="font:normal normal normal 200px 'Arial'" >
HO</text>
<text x="0" y="0" stroke="transparent" fill="#000000" transform="matrix(0.0833333 0 0 0.0833333 145.808 17.7017)" style="font:normal normal normal 200px 'Arial'" >
OH</text>
<text x="0" y="0" stroke="transparent" fill="#000000" transform="matrix(0.0833333 0 0 0.0833333 448.595 393.229)" style="font:normal normal normal 200px 'Arial'" >
OH</text>
<path stroke="transparent" fill="#000000" transform="matrix(0.0833333 0 0 0.0833333 -197.25 -180)" d="M 3675.04,4984.82 L 3675.05,4996.38 L 3665.05,5002.15 L 3250.46,4762.18 L 3260.48,4744.87 L 3675.04,4984.82 Z " />
<path stroke="transparent" fill="#000000" transform="matrix(0.0833333 0 0 0.0833333 -197.25 -180)" d="M 4194.7,4682.56 L 4194.68,4705.7 L 3685.05,5002.14 L 3675.05,4996.38 L 3675.04,4984.82 L 4194.7,4682.56 Z " />
<path stroke="transparent" fill="#000000" transform="matrix(0.0833333 0 0 0.0833333 -197.25 -180)" d="M 3685.05,5594.99 L 3665.05,5606.5 L 3665.05,5002.15 L 3675.05,4996.38 L 3685.05,5002.14 L 3685.05,5594.99 Z " />
<path stroke="transparent" fill="#000000" transform="matrix(0.0833333 0 0 0.0833333 -197.25 -180)" d="M 3757.58,5559.03 L 3737.58,5559.03 L 3737.58,5038.1 L 3757.58,5038.1 L 3757.58,5559.03 Z " />
<path stroke="transparent" fill="#000000" transform="matrix(0.0833333 0 0 0.0833333 -197.25 -180)" d="M 4712.8,4984.81 L 4712.8,4996.38 L 4702.8,5002.13 L 4194.68,4705.7 L 4194.7,4682.56 L 4712.8,4984.81 Z " />
<path stroke="transparent" fill="#000000" transform="matrix(0.0833333 0 0 0.0833333 -197.25 -180)" d="M 4645.86,5029.09 L 4635.78,5046.36 L 4189.6,4786.07 L 4199.68,4768.79 L 4645.86,5029.09 Z " />
<path stroke="transparent" fill="#000000" transform="matrix(0.0833333 0 0 0.0833333 -197.25 -180)" d="M 4254.69,4640.06 L 4134.69,4640.06 L 4136.73,4620.06 L 4252.66,4620.06 L 4254.69,4640.06 Z " />
<path stroke="transparent" fill="#000000" transform="matrix(0.0833333 0 0 0.0833333 -197.25 -180)" d="M 4248.7,4581.12 L 4140.69,4581.12 L 4142.72,4561.12 L 4246.66,4561.12 L 4248.7,4581.12 Z " />
<path stroke="transparent" fill="#000000" transform="matrix(0.0833333 0 0 0.0833333 -197.25 -180)" d="M 4242.7,4522.17 L 4146.68,4522.17 L 4148.72,4502.17 L 4240.67,4502.17 L 4242.7,4522.17 Z " />
<path stroke="transparent" fill="#000000" transform="matrix(0.0833333 0 0 0.0833333 -197.25 -180)" d="M 4236.7,4463.22 L 4152.68,4463.22 L 4154.71,4443.22 L 4234.67,4443.22 L 4236.7,4463.22 Z " />
<path stroke="transparent" fill="#000000" transform="matrix(0.0833333 0 0 0.0833333 -197.25 -180)" d="M 4230.71,4404.27 L 4158.67,4404.27 L 4160.71,4384.27 L 4228.67,4384.27 L 4230.71,4404.27 Z " />
<path stroke="transparent" fill="#000000" transform="matrix(0.0833333 0 0 0.0833333 -197.25 -180)" d="M 4224.71,4345.33 L 4164.67,4345.33 L 4166.7,4325.33 L 4222.68,4325.33 L 4224.71,4345.33 Z " />
<path stroke="transparent" fill="#000000" transform="matrix(0.0833333 0 0 0.0833333 -197.25 -180)" d="M 4218.72,4286.38 L 4170.67,4286.38 L 4172.7,4266.38 L 4216.68,4266.38 L 4218.72,4286.38 Z " />
<path stroke="transparent" fill="#000000" transform="matrix(0.0833333 0 0 0.0833333 -197.25 -180)" d="M 4212.72,4227.43 L 4176.66,4227.43 L 4178.7,4207.43 L 4210.69,4207.43 L 4212.72,4227.43 Z " />
<path stroke="transparent" fill="#000000" transform="matrix(0.0833333 0 0 0.0833333 -197.25 -180)" d="M 4206.73,4168.48 L 4182.66,4168.48 L 4184.69,4148.48 L 4204.69,4148.48 L 4206.73,4168.48 Z " />
<path stroke="transparent" fill="#000000" transform="matrix(0.0833333 0 0 0.0833333 -197.25 -180)" d="M 4194.68,5891.43 L 4194.7,5914.57 L 3665.05,5606.5 L 3685.05,5594.99 L 4194.68,5891.43 Z " />
<path stroke="transparent" fill="#000000" transform="matrix(0.0833333 0 0 0.0833333 -197.25 -180)" d="M 4722.8,5595 L 4712.8,5600.75 L 4702.8,5595 L 4702.8,5002.13 L 4712.8,4996.38 L 4722.8,5002.13 L 4722.8,5595 Z " />
<path stroke="transparent" fill="#000000" transform="matrix(0.0833333 0 0 0.0833333 -197.25 -180)" d="M 5126.48,4743.47 L 5136.56,4760.75 L 4722.8,5002.13 L 4712.8,4996.38 L 4712.8,4984.81 L 5126.48,4743.47 Z " />
<path stroke="transparent" fill="#000000" transform="matrix(0.0833333 0 0 0.0833333 -197.25 -180)" d="M 3769.98,3859.59 L 3780.01,3842.29 L 4194.69,4082.86 L 4194.69,4105.98 L 3769.98,3859.59 Z " />
<path stroke="transparent" fill="#000000" transform="matrix(0.0833333 0 0 0.0833333 -197.25 -180)" d="M 4704.25,3787.21 L 4714.25,3792.97 L 4713.7,3804.85 L 4194.69,4105.98 L 4194.69,4082.86 L 4704.25,3787.21 Z " />
<path stroke="transparent" fill="#000000" transform="matrix(0.0833333 0 0 0.0833333 -197.25 -180)" d="M 4702.8,5595 L 4712.8,5600.75 L 4712.8,5612.32 L 4194.7,5914.57 L 4194.68,5891.43 L 4702.8,5595 Z " />
<path stroke="transparent" fill="#000000" transform="matrix(0.0833333 0 0 0.0833333 -197.25 -180)" d="M 4635.78,5550.77 L 4645.86,5568.04 L 4199.68,5828.34 L 4189.6,5811.06 L 4635.78,5550.77 Z " />
<path stroke="transparent" fill="#000000" transform="matrix(0.0833333 0 0 0.0833333 -197.25 -180)" d="M 5230.91,5891.42 L 5230.91,5914.58 L 4712.8,5612.32 L 4712.8,5600.75 L 4722.8,5595 L 5230.91,5891.42 Z " />
<path stroke="transparent" fill="#000000" transform="matrix(0.0833333 0 0 0.0833333 -197.25 -180)" d="M 5759.09,4990.64 L 5739.09,5002.13 L 5325.7,4761 L 5335.77,4743.72 L 5759.09,4990.64 Z " />
<path stroke="transparent" fill="#000000" transform="matrix(0.0833333 0 0 0.0833333 -197.25 -180)" d="M 3665.05,3187.18 L 3685.05,3198.75 L 3685.05,3687.8 L 3665.05,3687.8 L 3665.05,3187.18 Z " />
<path stroke="transparent" fill="#000000" transform="matrix(0.0833333 0 0 0.0833333 -197.25 -180)" d="M 5170.76,3988.81 L 5110.47,4092.57 L 4713.7,3804.85 L 4714.25,3792.97 L 4724.25,3786.57 L 5170.76,3988.81 Z " />
<path stroke="transparent" fill="#000000" transform="matrix(0.0833333 0 0 0.0833333 -197.25 -180)" d="M 4704.25,3198.75 L 4724.25,3187.18 L 4724.25,3786.57 L 4714.25,3792.97 L 4704.25,3787.21 L 4704.25,3198.75 Z " />
<path stroke="transparent" fill="#000000" transform="matrix(0.0833333 0 0 0.0833333 -197.25 -180)" d="M 5276.91,6397.83 L 5256.91,6397.83 L 5256.91,5882 L 5276.91,5882 L 5276.91,6397.83 Z " />
<path stroke="transparent" fill="#000000" transform="matrix(0.0833333 0 0 0.0833333 -197.25 -180)" d="M 5204.91,6397.83 L 5184.91,6397.83 L 5184.91,5882 L 5204.91,5882 L 5204.91,6397.83 Z " />
<path stroke="transparent" fill="#000000" transform="matrix(0.0833333 0 0 0.0833333 -197.25 -180)" d="M 5739.09,5595 L 5749.09,5600.75 L 5749.12,5612.31 L 5230.91,5914.58 L 5230.91,5891.42 L 5739.09,5595 Z " />
<path stroke="transparent" fill="#000000" transform="matrix(0.0833333 0 0 0.0833333 -197.25 -180)" d="M 5759.09,5594.97 L 5749.09,5600.75 L 5739.09,5595 L 5739.09,5002.13 L 5759.09,4990.64 L 5759.09,5594.97 Z " />
<path stroke="transparent" fill="#000000" transform="matrix(0.0833333 0 0 0.0833333 -197.25 -180)" d="M 5686.57,5559.09 L 5666.57,5559.09 L 5666.57,5038.04 L 5686.57,5038.04 L 5686.57,5559.09 Z " />
<path stroke="transparent" fill="#000000" transform="matrix(0.0833333 0 0 0.0833333 -197.25 -180)" d="M 3172.44,2973.36 L 3232.22,2869.31 L 3248.55,2881.04 L 3190.79,2981.56 L 3172.44,2973.36 Z " />
<path stroke="transparent" fill="#000000" transform="matrix(0.0833333 0 0 0.0833333 -197.25 -180)" d="M 3226.49,2997.5 L 3280.3,2903.85 L 3296.63,2915.58 L 3244.85,3005.7 L 3226.49,2997.5 Z " />
<path stroke="transparent" fill="#000000" transform="matrix(0.0833333 0 0 0.0833333 -197.25 -180)" d="M 3280.55,3021.65 L 3328.38,2938.4 L 3344.71,2950.13 L 3298.9,3029.85 L 3280.55,3021.65 Z " />
<path stroke="transparent" fill="#000000" transform="matrix(0.0833333 0 0 0.0833333 -197.25 -180)" d="M 3334.6,3045.79 L 3376.47,2972.94 L 3392.79,2984.67 L 3352.96,3053.99 L 3334.6,3045.79 Z " />
<path stroke="transparent" fill="#000000" transform="matrix(0.0833333 0 0 0.0833333 -197.25 -180)" d="M 3388.66,3069.94 L 3424.55,3007.48 L 3440.87,3019.21 L 3407.01,3078.14 L 3388.66,3069.94 Z " />
<path stroke="transparent" fill="#000000" transform="matrix(0.0833333 0 0 0.0833333 -197.25 -180)" d="M 3442.71,3094.09 L 3472.63,3042.02 L 3488.95,3053.75 L 3461.07,3102.28 L 3442.71,3094.09 Z " />
<path stroke="transparent" fill="#000000" transform="matrix(0.0833333 0 0 0.0833333 -197.25 -180)" d="M 3496.77,3118.23 L 3520.71,3076.57 L 3537.04,3088.3 L 3515.12,3126.43 L 3496.77,3118.23 Z " />
<path stroke="transparent" fill="#000000" transform="matrix(0.0833333 0 0 0.0833333 -197.25 -180)" d="M 3550.82,3142.38 L 3568.79,3111.11 L 3585.12,3122.84 L 3569.18,3150.58 L 3550.82,3142.38 Z " />
<path stroke="transparent" fill="#000000" transform="matrix(0.0833333 0 0 0.0833333 -197.25 -180)" d="M 3604.88,3166.52 L 3616.87,3145.65 L 3633.2,3157.38 L 3623.23,3174.72 L 3604.88,3166.52 Z " />
<path stroke="transparent" fill="#000000" transform="matrix(0.0833333 0 0 0.0833333 -197.25 -180)" d="M 4184.12,2888.96 L 4194.69,2894.42 L 4194.69,2905.95 L 3685.05,3198.75 L 3665.05,3187.18 L 4184.12,2888.96 Z " />
<path stroke="transparent" fill="#000000" transform="matrix(0.0833333 0 0 0.0833333 -197.25 -180)" d="M 4194.69,2905.95 L 4194.69,2894.42 L 4205.26,2888.96 L 4724.25,3187.18 L 4704.25,3198.75 L 4194.69,2905.95 Z " />
<path stroke="transparent" fill="#000000" transform="matrix(0.0833333 0 0 0.0833333 -197.25 -180)" d="M 5103.49,2899.77 L 5163.34,3003.78 L 5144.85,3011.73 L 5087.32,2911.76 L 5103.49,2899.77 Z " />
<path stroke="transparent" fill="#000000" transform="matrix(0.0833333 0 0 0.0833333 -197.25 -180)" d="M 5056.18,2934.85 L 5109.24,3027.05 L 5090.74,3035.01 L 5040.01,2946.84 L 5056.18,2934.85 Z " />
<path stroke="transparent" fill="#000000" transform="matrix(0.0833333 0 0 0.0833333 -197.25 -180)" d="M 5008.87,2969.93 L 5055.13,3050.33 L 5036.64,3058.29 L 4992.69,2981.92 L 5008.87,2969.93 Z " />
<path stroke="transparent" fill="#000000" transform="matrix(0.0833333 0 0 0.0833333 -197.25 -180)" d="M 4961.56,3005.01 L 5001.03,3073.61 L 4982.53,3081.56 L 4945.38,3017.01 L 4961.56,3005.01 Z " />
<path stroke="transparent" fill="#000000" transform="matrix(0.0833333 0 0 0.0833333 -197.25 -180)" d="M 4914.24,3040.09 L 4946.92,3096.88 L 4928.42,3104.84 L 4898.07,3052.09 L 4914.24,3040.09 Z " />
<path stroke="transparent" fill="#000000" transform="matrix(0.0833333 0 0 0.0833333 -197.25 -180)" d="M 4866.93,3075.18 L 4892.81,3120.16 L 4874.32,3128.11 L 4850.76,3087.17 L 4866.93,3075.18 Z " />
<path stroke="transparent" fill="#000000" transform="matrix(0.0833333 0 0 0.0833333 -197.25 -180)" d="M 4819.62,3110.26 L 4838.71,3143.43 L 4820.21,3151.39 L 4803.44,3122.25 L 4819.62,3110.26 Z " />
<path stroke="transparent" fill="#000000" transform="matrix(0.0833333 0 0 0.0833333 -197.25 -180)" d="M 4772.3,3145.34 L 4784.6,3166.71 L 4766.1,3174.67 L 4756.13,3157.33 L 4772.3,3145.34 Z " />
<path stroke="transparent" fill="#000000" transform="matrix(0.0833333 0 0 0.0833333 -197.25 -180)" d="M 6268.16,5888.48 L 6268.14,5900.02 L 6258.14,5905.8 L 5749.12,5612.31 L 5749.09,5600.75 L 5759.09,5594.97 L 6268.16,5888.48 Z " />
<path stroke="transparent" fill="#000000" transform="matrix(0.0833333 0 0 0.0833333 -197.25 -180)" d="M 2733.56,3148.36 L 2723.6,3131.02 L 3150.51,2885.75 L 3160.47,2903.09 L 2733.56,3148.36 Z " />
<path stroke="transparent" fill="#000000" transform="matrix(0.0833333 0 0 0.0833333 -197.25 -180)" d="M 4134.69,2414.25 L 4254.69,2414.25 L 4205.26,2888.96 L 4194.69,2894.42 L 4184.12,2888.96 L 4134.69,2414.25 Z " />
<path stroke="transparent" fill="#000000" transform="matrix(0.0833333 0 0 0.0833333 -197.25 -180)" d="M 6278.14,6494.24 L 6258.14,6505.8 L 6258.14,5905.8 L 6268.14,5900.02 L 6278.14,5905.81 L 6278.14,6494.24 Z " />
<path stroke="transparent" fill="#000000" transform="matrix(0.0833333 0 0 0.0833333 -197.25 -180)" d="M 6350.14,6458.41 L 6330.14,6458.41 L 6330.14,5941.73 L 6350.14,5941.73 L 6350.14,6458.41 Z " />
<path stroke="transparent" fill="#000000" transform="matrix(0.0833333 0 0 0.0833333 -197.25 -180)" d="M 6790.13,5589.21 L 6790.09,5612.29 L 6278.14,5905.81 L 6268.14,5900.02 L 6268.16,5888.48 L 6790.13,5589.21 Z " />
<path stroke="transparent" fill="#000000" transform="matrix(0.0833333 0 0 0.0833333 -197.25 -180)" d="M 6790.09,6789.19 L 6790.13,6812.3 L 6258.14,6505.8 L 6278.14,6494.24 L 6790.09,6789.19 Z " />
<path stroke="transparent" fill="#000000" transform="matrix(0.0833333 0 0 0.0833333 -197.25 -180)" d="M 7317.64,5894.25 L 7297.64,5905.79 L 6790.09,5612.29 L 6790.13,5589.21 L 7317.64,5894.25 Z " />
<path stroke="transparent" fill="#000000" transform="matrix(0.0833333 0 0 0.0833333 -197.25 -180)" d="M 7240.9,5932.75 L 7230.89,5950.06 L 6784.95,5692.19 L 6794.96,5674.87 L 7240.9,5932.75 Z " />
<path stroke="transparent" fill="#000000" transform="matrix(0.0833333 0 0 0.0833333 -197.25 -180)" d="M 7297.64,6494.26 L 7307.64,6500.02 L 7307.65,6511.58 L 6790.13,6812.3 L 6790.09,6789.19 L 7297.64,6494.26 Z " />
<path stroke="transparent" fill="#000000" transform="matrix(0.0833333 0 0 0.0833333 -197.25 -180)" d="M 7230.78,6450.04 L 7240.83,6467.33 L 6794.98,6726.41 L 6784.93,6709.12 L 7230.78,6450.04 Z " />
<path stroke="transparent" fill="#000000" transform="matrix(0.0833333 0 0 0.0833333 -197.25 -180)" d="M 7317.64,6494.25 L 7307.64,6500.02 L 7297.64,6494.26 L 7297.64,5905.79 L 7317.64,5894.25 L 7317.64,6494.25 Z " />
<path stroke="transparent" fill="#000000" transform="matrix(0.0833333 0 0 0.0833333 -197.25 -180)" d="M 7740.54,6738.59 L 7730.54,6755.9 L 7307.65,6511.58 L 7307.64,6500.02 L 7317.64,6494.25 L 7740.54,6738.59 Z " />
</svg>
