<?xml version="1.0" standalone="no" ?>
<!DOCTYPE svg PUBLIC "-//W3C//DTD SVG 1.1//EN" "http://www.w3.org/Graphics/SVG/1.1/DTD/svg11.dtd">
<svg width="210px" height="117px" viewBox="0 0 210 117" style="background-color: #ffffff00" xmlns="http://www.w3.org/2000/svg" xmlns:xlink="http://www.w3.org/1999/xlink" version="1.1" >
<text x="0" y="0" stroke="none" fill="#000000" transform="matrix(0.0666667 0 0 0.0666667 186.421 74.0722)" font-style="normal" font-weight="normal" font-size="200px" font-family="Arial" >
OH</text>
<text x="0" y="0" stroke="none" fill="#000000" transform="matrix(0.0666667 0 0 0.0666667 3.59245 54.0682)" font-style="normal" font-weight="normal" font-size="200px" font-family="Arial" >
HO</text>
<text x="0" y="0" stroke="none" fill="#000000" transform="matrix(0.0666667 0 0 0.0666667 151.773 14.0722)" font-style="normal" font-weight="normal" font-size="200px" font-family="Arial" >
O</text>
<text x="0" y="0" stroke="none" fill="#000000" transform="matrix(0.0666667 0 0 0.0666667 47.8573 114.072)" font-style="normal" font-weight="normal" font-size="200px" font-family="Arial" >
O</text>
<path stroke="none" fill="#000000" transform="matrix(0.0666667 0 0 0.0666667 -243.859 -226)" d="M 6012.48,4134.57 L 6012.48,4111.48 L 6444.58,4360.95 L 6434.58,4378.27 L 6012.48,4134.57 Z " />
<path stroke="none" fill="#000000" transform="matrix(0.0666667 0 0 0.0666667 -243.859 -226)" d="M 4453.74,4411.54 L 4453.74,4434.63 L 4029.22,4189.45 L 4039.22,4172.13 L 4453.74,4411.54 Z " />
<path stroke="none" fill="#000000" transform="matrix(0.0666667 0 0 0.0666667 -243.859 -226)" d="M 6058.48,4143.81 L 6038.48,4143.81 L 6038.48,3642.92 L 6058.48,3642.92 L 6058.48,4143.81 Z " />
<path stroke="none" fill="#000000" transform="matrix(0.0666667 0 0 0.0666667 -243.859 -226)" d="M 5986.48,4143.81 L 5966.48,4143.81 L 5966.48,3642.92 L 5986.48,3642.92 L 5986.48,4143.81 Z " />
<path stroke="none" fill="#000000" transform="matrix(0.0666667 0 0 0.0666667 -243.859 -226)" d="M 4407.74,4402.29 L 4427.74,4402.29 L 4427.74,4917.92 L 4407.74,4917.92 L 4407.74,4402.29 Z " />
<path stroke="none" fill="#000000" transform="matrix(0.0666667 0 0 0.0666667 -243.859 -226)" d="M 4479.74,4402.3 L 4499.74,4402.3 L 4499.74,4917.92 L 4479.74,4917.92 L 4479.74,4402.3 Z " />
<path stroke="none" fill="#000000" transform="matrix(0.0666667 0 0 0.0666667 -243.859 -226)" d="M 4973.4,4134.57 L 4973.4,4111.48 L 5492.94,4411.54 L 5492.94,4423.08 L 5482.94,4428.86 L 4973.4,4134.57 Z " />
<path stroke="none" fill="#000000" transform="matrix(0.0666667 0 0 0.0666667 -243.859 -226)" d="M 5502.94,5023.08 L 5482.94,5023.08 L 5482.94,4428.86 L 5492.94,4423.08 L 5502.94,4428.86 L 5502.94,5023.08 Z " />
<path stroke="none" fill="#000000" transform="matrix(0.0666667 0 0 0.0666667 -243.859 -226)" d="M 6012.48,4111.48 L 6012.48,4134.57 L 5502.94,4428.86 L 5492.94,4423.08 L 5492.94,4411.54 L 6012.48,4111.48 Z " />
<path stroke="none" fill="#000000" transform="matrix(0.0666667 0 0 0.0666667 -243.859 -226)" d="M 4453.74,4434.63 L 4453.74,4411.54 L 4973.4,4111.48 L 4973.4,4134.57 L 4453.74,4434.63 Z " />
</svg>
