<?xml version="1.0" standalone="no" ?>
<!DOCTYPE svg PUBLIC "-//W3C//DTD SVG 1.1//EN" "http://www.w3.org/Graphics/SVG/1.1/DTD/svg11.dtd">
<svg width="214px" height="239px" viewBox="0 0 214 239" style="background-color: #ffffff00" xmlns="http://www.w3.org/2000/svg" xmlns:xlink="http://www.w3.org/1999/xlink" version="1.1" >
<text x="0" y="0" stroke="transparent" fill="#000000" transform="matrix(0.0833333 0 0 0.0833333 148.878 230.931)" style="font:normal normal normal 200px 'Arial'" >
O</text>
<text x="0" y="0" stroke="transparent" fill="#000000" transform="matrix(0.0833333 0 0 0.0833333 133.643 183.472)" style="font:normal normal normal 200px 'Arial'" >
N</text>
<text x="0" y="0" stroke="transparent" fill="#000000" transform="matrix(0.0833333 0 0 0.0833333 196.668 44.2374)" style="font:normal normal normal 200px 'Arial'" >
O</text>
<text x="0" y="0" stroke="transparent" fill="#000000" transform="matrix(0.0833333 0 0 0.0833333 102.115 17.9718)" style="font:normal normal normal 200px 'Arial'" >
HO</text>
<path stroke="transparent" fill="#000000" transform="matrix(0.0833333 0 0 0.0833333 -338.25 -256)" d="M 5766.45,5323.18 L 5785.44,5316.88 L 5899.69,5661.47 L 5880.7,5667.77 L 5766.45,5323.18 Z " />
<path stroke="transparent" fill="#000000" transform="matrix(0.0833333 0 0 0.0833333 -338.25 -256)" d="M 6072.15,4708.25 L 6096.88,4708.1 L 5814.87,5101.1 L 5798.62,5089.44 L 6072.15,4708.25 Z " />
<path stroke="transparent" fill="#000000" transform="matrix(0.0833333 0 0 0.0833333 -338.25 -256)" d="M 5725.16,4236.66 L 5728.91,4224.88 L 5739.98,4223.06 L 6096.88,4708.1 L 6072.15,4708.25 L 5725.16,4236.66 Z " />
<path stroke="transparent" fill="#000000" transform="matrix(0.0833333 0 0 0.0833333 -338.25 -256)" d="M 5693.86,4315.61 L 5709.97,4303.76 L 6003.57,4702.78 L 5987.46,4714.63 L 5693.86,4315.61 Z " />
<path stroke="transparent" fill="#000000" transform="matrix(0.0833333 0 0 0.0833333 -338.25 -256)" d="M 5899.67,3655.63 L 5922.23,3650.69 L 5739.98,4223.06 L 5728.91,4224.88 L 5720.92,4216.99 L 5899.67,3655.63 Z " />
<path stroke="transparent" fill="#000000" transform="matrix(0.0833333 0 0 0.0833333 -338.25 -256)" d="M 6379.1,3503.58 L 6383.37,3523.12 L 5885.09,3632.21 L 5880.81,3612.67 L 6379.1,3503.58 Z " />
<path stroke="transparent" fill="#000000" transform="matrix(0.0833333 0 0 0.0833333 -338.25 -256)" d="M 6394.49,3573.91 L 6398.77,3593.44 L 5900.47,3702.54 L 5896.2,3683 L 6394.49,3573.91 Z " />
<path stroke="transparent" fill="#000000" transform="matrix(0.0833333 0 0 0.0833333 -338.25 -256)" d="M 5579.9,3304.71 L 5594.68,3291.24 L 5922.23,3650.69 L 5899.67,3655.63 L 5579.9,3304.71 Z " />
<path stroke="transparent" fill="#000000" transform="matrix(0.0833333 0 0 0.0833333 -338.25 -256)" d="M 5169.44,4420.91 L 5159.39,4413.7 L 5160.47,4402.81 L 5720.92,4216.99 L 5728.91,4224.88 L 5725.16,4236.66 L 5169.44,4420.91 Z " />
<path stroke="transparent" fill="#000000" transform="matrix(0.0833333 0 0 0.0833333 -338.25 -256)" d="M 4638.08,4128.37 L 4637.95,4105.28 L 5160.47,4402.81 L 5159.39,4413.7 L 5149.43,4419.54 L 4638.08,4128.37 Z " />
<path stroke="transparent" fill="#000000" transform="matrix(0.0833333 0 0 0.0833333 -338.25 -256)" d="M 4633.56,4208.65 L 4643.46,4191.27 L 5092.59,4447.01 L 5082.7,4464.39 L 4633.56,4208.65 Z " />
<path stroke="transparent" fill="#000000" transform="matrix(0.0833333 0 0 0.0833333 -338.25 -256)" d="M 4130.2,4425.62 L 4110.13,4414.19 L 4637.95,4105.28 L 4638.08,4128.37 L 4130.2,4425.62 Z " />
<path stroke="transparent" fill="#000000" transform="matrix(0.0833333 0 0 0.0833333 -338.25 -256)" d="M 4133.72,5013.99 L 4113.79,5025.65 L 4110.13,4414.19 L 4130.2,4425.62 L 4133.72,5013.99 Z " />
<path stroke="transparent" fill="#000000" transform="matrix(0.0833333 0 0 0.0833333 -338.25 -256)" d="M 4205.5,4977.77 L 4185.5,4977.89 L 4182.4,4461.1 L 4202.4,4460.98 L 4205.5,4977.77 Z " />
<path stroke="transparent" fill="#000000" transform="matrix(0.0833333 0 0 0.0833333 -338.25 -256)" d="M 4645.11,5305.22 L 4645.25,5328.32 L 4113.79,5025.65 L 4133.72,5013.99 L 4645.11,5305.22 Z " />
<path stroke="transparent" fill="#000000" transform="matrix(0.0833333 0 0 0.0833333 -338.25 -256)" d="M 5152.94,5007.96 L 5162.98,5013.68 L 5164.19,5024.56 L 4645.25,5328.32 L 4645.11,5305.22 L 5152.94,5007.96 Z " />
<path stroke="transparent" fill="#000000" transform="matrix(0.0833333 0 0 0.0833333 -338.25 -256)" d="M 5085.68,4963.91 L 5095.78,4981.17 L 4649.74,5242.26 L 4639.64,5225 L 5085.68,4963.91 Z " />
<path stroke="transparent" fill="#000000" transform="matrix(0.0833333 0 0 0.0833333 -338.25 -256)" d="M 5172.93,5006.35 L 5162.98,5013.68 L 5152.94,5007.96 L 5149.43,4419.54 L 5159.39,4413.7 L 5169.44,4420.91 L 5172.93,5006.35 Z " />
<path stroke="transparent" fill="#000000" transform="matrix(0.0833333 0 0 0.0833333 -338.25 -256)" d="M 5164.19,5024.56 L 5162.98,5013.68 L 5172.93,5006.35 L 5630.67,5152.05 L 5624.6,5171.11 L 5164.19,5024.56 Z " />
<path stroke="transparent" fill="#000000" transform="matrix(0.0833333 0 0 0.0833333 -338.25 -256)" d="M 6513.18,5876.62 L 6509.14,5896.2 L 6030.1,5797.37 L 6034.14,5777.78 L 6513.18,5876.62 Z " />
</svg>
