<?xml version="1.0" standalone="no" ?>
<!DOCTYPE svg PUBLIC "-//W3C//DTD SVG 1.1//EN" "http://www.w3.org/Graphics/SVG/1.1/DTD/svg11.dtd">
<svg width="375px" height="325px" viewBox="0 0 375 325" style="background-color: #ffffff00" xmlns="http://www.w3.org/2000/svg" xmlns:xlink="http://www.w3.org/1999/xlink" version="1.1" >
<text x="0" y="0" stroke="transparent" fill="#000000" transform="matrix(0.0666667 0 0 0.0666667 138.818 201.027)" style="font:normal normal normal 200px 'Arial'" >
H</text>
<text x="0" y="0" stroke="transparent" fill="#000000" transform="matrix(0.0666667 0 0 0.0666667 173.603 260.798)" style="font:normal normal normal 200px 'Arial'" >
H</text>
<text x="0" y="0" stroke="transparent" fill="#000000" transform="matrix(0.0666667 0 0 0.0666667 103.412 261.259)" style="font:normal normal normal 200px 'Arial'" >
H</text>
<text x="0" y="0" stroke="transparent" fill="#000000" transform="matrix(0.0666667 0 0 0.0666667 68.472 321.335)" style="font:normal normal normal 200px 'Arial'" >
H</text>
<path stroke="transparent" fill="#000000" transform="matrix(0.0666667 0 0 0.0666667 -160.853 -231)" d="M 5072.01,6697.82 L 5082.01,6703.59 L 5083.2,6714.45 L 4570.04,7010.5 L 4560.09,7004.7 L 4572.23,6986.15 L 5072.01,6697.82 Z " />
<path stroke="transparent" fill="#000000" transform="matrix(0.0666667 0 0 0.0666667 -160.853 -231)" d="M 4042.79,6715.14 L 4042.82,6703.59 L 4052.89,6697.88 L 4548.42,6986.34 L 4560.09,7004.7 L 4550.04,7010.42 L 4042.79,6715.14 Z " />
<path stroke="transparent" fill="#000000" transform="matrix(0.0666667 0 0 0.0666667 -160.853 -231)" d="M 4565.46,7612.87 L 4545.55,7601.25 L 4550.04,7010.42 L 4560.09,7004.7 L 4570.04,7010.5 L 4565.46,7612.87 Z " />
<path stroke="transparent" fill="#000000" transform="matrix(0.0666667 0 0 0.0666667 -160.853 -231)" d="M 4505.71,6518.87 L 4625.7,6520.26 L 4572.23,6986.15 L 4560.09,7004.7 L 4548.42,6986.34 L 4505.71,6518.87 Z " />
<path stroke="transparent" fill="#000000" transform="matrix(0.0666667 0 0 0.0666667 -160.853 -231)" d="M 5072.01,6100.2 L 5082.01,6094.39 L 5092.01,6101.82 L 5092.01,6696.25 L 5082.01,6703.59 L 5072.01,6697.82 L 5072.01,6100.2 Z " />
<path stroke="transparent" fill="#000000" transform="matrix(0.0666667 0 0 0.0666667 -160.853 -231)" d="M 5650.42,6871.15 L 5658.38,6894.6 L 5083.2,6714.45 L 5082.01,6703.59 L 5092.01,6696.25 L 5650.42,6871.15 Z " />
<path stroke="transparent" fill="#000000" transform="matrix(0.0666667 0 0 0.0666667 -160.853 -231)" d="M 5147.66,7195.46 L 5027.67,7196.84 L 5029.72,7176.81 L 5145.15,7175.49 L 5147.66,7195.46 Z " />
<path stroke="transparent" fill="#000000" transform="matrix(0.0666667 0 0 0.0666667 -160.853 -231)" d="M 5140.15,7135.75 L 5033.8,7136.97 L 5035.85,7116.95 L 5137.64,7115.78 L 5140.15,7135.75 Z " />
<path stroke="transparent" fill="#000000" transform="matrix(0.0666667 0 0 0.0666667 -160.853 -231)" d="M 5132.65,7076.05 L 5039.93,7077.11 L 5041.98,7057.09 L 5130.14,7056.07 L 5132.65,7076.05 Z " />
<path stroke="transparent" fill="#000000" transform="matrix(0.0666667 0 0 0.0666667 -160.853 -231)" d="M 5125.15,7016.34 L 5046.06,7017.25 L 5048.11,6997.22 L 5122.64,6996.37 L 5125.15,7016.34 Z " />
<path stroke="transparent" fill="#000000" transform="matrix(0.0666667 0 0 0.0666667 -160.853 -231)" d="M 5117.65,6956.63 L 5052.19,6957.38 L 5054.24,6937.36 L 5115.14,6936.66 L 5117.65,6956.63 Z " />
<path stroke="transparent" fill="#000000" transform="matrix(0.0666667 0 0 0.0666667 -160.853 -231)" d="M 5110.14,6896.92 L 5058.32,6897.52 L 5060.37,6877.5 L 5107.63,6876.95 L 5110.14,6896.92 Z " />
<path stroke="transparent" fill="#000000" transform="matrix(0.0666667 0 0 0.0666667 -160.853 -231)" d="M 5102.64,6837.22 L 5064.45,6837.66 L 5066.5,6817.63 L 5100.13,6817.25 L 5102.64,6837.22 Z " />
<path stroke="transparent" fill="#000000" transform="matrix(0.0666667 0 0 0.0666667 -160.853 -231)" d="M 5095.14,6777.51 L 5070.58,6777.79 L 5072.63,6757.77 L 5092.63,6757.54 L 5095.14,6777.51 Z " />
<path stroke="transparent" fill="#000000" transform="matrix(0.0666667 0 0 0.0666667 -160.853 -231)" d="M 3528.72,7010.49 L 3518.72,7004.7 L 3530.46,6986.42 L 4032.89,6697.77 L 4042.82,6703.59 L 4042.79,6715.14 L 3528.72,7010.49 Z " />
<path stroke="transparent" fill="#000000" transform="matrix(0.0666667 0 0 0.0666667 -160.853 -231)" d="M 4039.87,6088.54 L 4059.73,6100.25 L 4052.89,6697.88 L 4042.82,6703.59 L 4032.89,6697.77 L 4039.87,6088.54 Z " />
<path stroke="transparent" fill="#000000" transform="matrix(0.0666667 0 0 0.0666667 -160.853 -231)" d="M 4097.15,7203.74 L 3977.15,7202.38 L 3979.63,7182.4 L 4095.13,7183.71 L 4097.15,7203.74 Z " />
<path stroke="transparent" fill="#000000" transform="matrix(0.0666667 0 0 0.0666667 -160.853 -231)" d="M 4091.01,7142.89 L 3984.66,7141.68 L 3987.14,7121.71 L 4089,7122.86 L 4091.01,7142.89 Z " />
<path stroke="transparent" fill="#000000" transform="matrix(0.0666667 0 0 0.0666667 -160.853 -231)" d="M 4084.88,7082.04 L 3992.18,7080.98 L 3994.65,7061.01 L 4082.86,7062.01 L 4084.88,7082.04 Z " />
<path stroke="transparent" fill="#000000" transform="matrix(0.0666667 0 0 0.0666667 -160.853 -231)" d="M 4078.75,7021.19 L 3999.69,7020.29 L 4002.16,7000.31 L 4076.73,7001.16 L 4078.75,7021.19 Z " />
<path stroke="transparent" fill="#000000" transform="matrix(0.0666667 0 0 0.0666667 -160.853 -231)" d="M 4072.62,6960.33 L 4007.2,6959.59 L 4009.67,6939.62 L 4070.6,6940.31 L 4072.62,6960.33 Z " />
<path stroke="transparent" fill="#000000" transform="matrix(0.0666667 0 0 0.0666667 -160.853 -231)" d="M 4066.49,6899.48 L 4014.71,6898.9 L 4017.18,6878.92 L 4064.47,6879.46 L 4066.49,6899.48 Z " />
<path stroke="transparent" fill="#000000" transform="matrix(0.0666667 0 0 0.0666667 -160.853 -231)" d="M 4060.35,6838.63 L 4022.22,6838.2 L 4024.69,6818.23 L 4058.34,6818.61 L 4060.35,6838.63 Z " />
<path stroke="transparent" fill="#000000" transform="matrix(0.0666667 0 0 0.0666667 -160.853 -231)" d="M 4054.22,6777.78 L 4029.73,6777.5 L 4032.21,6757.53 L 4052.2,6757.76 L 4054.22,6777.78 Z " />
<path stroke="transparent" fill="#000000" transform="matrix(0.0666667 0 0 0.0666667 -160.853 -231)" d="M 4035.97,7917.46 L 4035.99,7894.37 L 4545.55,7601.25 L 4565.46,7612.87 L 4035.97,7917.46 Z " />
<path stroke="transparent" fill="#000000" transform="matrix(0.0666667 0 0 0.0666667 -160.853 -231)" d="M 5646.6,5913.85 L 5654.4,5921.95 L 5649.87,5933.76 L 5092.01,6101.82 L 5082.01,6094.39 L 5093.03,6080.63 L 5646.6,5913.85 Z " />
<path stroke="transparent" fill="#000000" transform="matrix(0.0666667 0 0 0.0666667 -160.853 -231)" d="M 4567.06,5811.63 L 4567.08,5788.61 L 5070.38,6076.23 L 5082.01,6094.39 L 5072.01,6100.2 L 4567.06,5811.63 Z " />
<path stroke="transparent" fill="#000000" transform="matrix(0.0666667 0 0 0.0666667 -160.853 -231)" d="M 5017.64,5483.51 L 5137.64,5482.66 L 5093.03,6080.63 L 5082.01,6094.39 L 5070.38,6076.23 L 5017.64,5483.51 Z " />
<path stroke="transparent" fill="#000000" transform="matrix(0.0666667 0 0 0.0666667 -160.853 -231)" d="M 5953.66,6439.63 L 6039.07,6352.87 L 5658.38,6894.6 L 5650.42,6871.15 L 5953.66,6439.63 Z " />
<path stroke="transparent" fill="#000000" transform="matrix(0.0666667 0 0 0.0666667 -160.853 -231)" d="M 3528.72,7601.29 L 3518.72,7607.06 L 3508.72,7601.29 L 3508.72,7010.45 L 3518.72,7004.7 L 3528.72,7010.49 L 3528.72,7601.29 Z " />
<path stroke="transparent" fill="#000000" transform="matrix(0.0666667 0 0 0.0666667 -160.853 -231)" d="M 3001.49,6715.14 L 3001.56,6692.04 L 3507.43,6986.56 L 3518.72,7004.7 L 3508.72,7010.45 L 3001.49,6715.14 Z " />
<path stroke="transparent" fill="#000000" transform="matrix(0.0666667 0 0 0.0666667 -160.853 -231)" d="M 3465.63,6401.72 L 3585.62,6403.1 L 3530.46,6986.42 L 3518.72,7004.7 L 3507.43,6986.56 L 3465.63,6401.72 Z " />
<path stroke="transparent" fill="#000000" transform="matrix(0.0666667 0 0 0.0666667 -160.853 -231)" d="M 4567.08,5788.61 L 4567.06,5811.63 L 4059.73,6100.25 L 4039.87,6088.54 L 4567.08,5788.61 Z " />
<path stroke="transparent" fill="#000000" transform="matrix(0.0666667 0 0 0.0666667 -160.853 -231)" d="M 3518.72,7618.61 L 3518.72,7607.06 L 3528.72,7601.29 L 4035.99,7894.37 L 4035.97,7917.46 L 3518.72,7618.61 Z " />
<path stroke="transparent" fill="#000000" transform="matrix(0.0666667 0 0 0.0666667 -160.853 -231)" d="M 5844.4,5336.34 L 5859.63,5353.6 L 5665.71,5919.8 L 5654.4,5921.95 L 5646.6,5913.85 L 5844.4,5336.34 Z " />
<path stroke="transparent" fill="#000000" transform="matrix(0.0666667 0 0 0.0666667 -160.853 -231)" d="M 6039.07,6352.87 L 5953.66,6439.63 L 5649.87,5933.76 L 5654.4,5921.95 L 5665.71,5919.8 L 6039.07,6352.87 Z " />
<path stroke="transparent" fill="#000000" transform="matrix(0.0666667 0 0 0.0666667 -160.853 -231)" d="M 3001.56,7917.45 L 3001.49,7894.38 L 3508.72,7601.29 L 3518.72,7607.06 L 3518.72,7618.61 L 3001.56,7917.45 Z " />
<path stroke="transparent" fill="#000000" transform="matrix(0.0666667 0 0 0.0666667 -160.853 -231)" d="M 3573.05,8104.88 L 3453.06,8103.52 L 3455.54,8083.54 L 3571.02,8084.86 L 3573.05,8104.88 Z " />
<path stroke="transparent" fill="#000000" transform="matrix(0.0666667 0 0 0.0666667 -160.853 -231)" d="M 3566.92,8044.36 L 3460.56,8043.15 L 3463.05,8023.18 L 3564.89,8024.34 L 3566.92,8044.36 Z " />
<path stroke="transparent" fill="#000000" transform="matrix(0.0666667 0 0 0.0666667 -160.853 -231)" d="M 3560.79,7983.84 L 3468.07,7982.78 L 3470.56,7962.81 L 3558.76,7963.81 L 3560.79,7983.84 Z " />
<path stroke="transparent" fill="#000000" transform="matrix(0.0666667 0 0 0.0666667 -160.853 -231)" d="M 3554.65,7923.31 L 3475.58,7922.41 L 3478.07,7902.44 L 3552.63,7903.29 L 3554.65,7923.31 Z " />
<path stroke="transparent" fill="#000000" transform="matrix(0.0666667 0 0 0.0666667 -160.853 -231)" d="M 3548.52,7862.79 L 3483.09,7862.04 L 3485.58,7842.07 L 3546.49,7842.76 L 3548.52,7862.79 Z " />
<path stroke="transparent" fill="#000000" transform="matrix(0.0666667 0 0 0.0666667 -160.853 -231)" d="M 3542.39,7802.26 L 3490.6,7801.67 L 3493.08,7781.7 L 3540.36,7782.24 L 3542.39,7802.26 Z " />
<path stroke="transparent" fill="#000000" transform="matrix(0.0666667 0 0 0.0666667 -160.853 -231)" d="M 3536.26,7741.74 L 3498.11,7741.3 L 3500.59,7721.33 L 3534.23,7721.71 L 3536.26,7741.74 Z " />
<path stroke="transparent" fill="#000000" transform="matrix(0.0666667 0 0 0.0666667 -160.853 -231)" d="M 3530.13,7681.22 L 3505.62,7680.94 L 3508.1,7660.96 L 3528.1,7661.19 L 3530.13,7681.22 Z " />
<path stroke="transparent" fill="#000000" transform="matrix(0.0666667 0 0 0.0666667 -160.853 -231)" d="M 2487.42,7010.49 L 2467.42,6998.91 L 3001.56,6692.04 L 3001.49,6715.14 L 2487.42,7010.49 Z " />
<path stroke="transparent" fill="#000000" transform="matrix(0.0666667 0 0 0.0666667 -160.853 -231)" d="M 6428.35,5214.52 L 6443.6,5231.77 L 5859.63,5353.6 L 5844.4,5336.34 L 6428.35,5214.52 Z " />
<path stroke="transparent" fill="#000000" transform="matrix(0.0666667 0 0 0.0666667 -160.853 -231)" d="M 5404.75,4927.11 L 5494.87,4847.87 L 5506.72,4864.08 L 5419.31,4940.94 L 5404.75,4927.11 Z " />
<path stroke="transparent" fill="#000000" transform="matrix(0.0666667 0 0 0.0666667 -160.853 -231)" d="M 5448.03,4968.22 L 5530.11,4896.06 L 5541.96,4912.27 L 5462.59,4982.06 L 5448.03,4968.22 Z " />
<path stroke="transparent" fill="#000000" transform="matrix(0.0666667 0 0 0.0666667 -160.853 -231)" d="M 5491.31,5009.34 L 5565.34,4944.25 L 5577.2,4960.46 L 5505.87,5023.17 L 5491.31,5009.34 Z " />
<path stroke="transparent" fill="#000000" transform="matrix(0.0666667 0 0 0.0666667 -160.853 -231)" d="M 5534.59,5050.46 L 5600.58,4992.45 L 5612.43,5008.66 L 5549.15,5064.29 L 5534.59,5050.46 Z " />
<path stroke="transparent" fill="#000000" transform="matrix(0.0666667 0 0 0.0666667 -160.853 -231)" d="M 5577.87,5091.58 L 5635.82,5040.64 L 5647.67,5056.85 L 5592.43,5105.41 L 5577.87,5091.58 Z " />
<path stroke="transparent" fill="#000000" transform="matrix(0.0666667 0 0 0.0666667 -160.853 -231)" d="M 5621.15,5132.7 L 5671.06,5088.83 L 5682.91,5105.04 L 5635.71,5146.53 L 5621.15,5132.7 Z " />
<path stroke="transparent" fill="#000000" transform="matrix(0.0666667 0 0 0.0666667 -160.853 -231)" d="M 5664.44,5173.82 L 5706.29,5137.02 L 5718.15,5153.23 L 5678.99,5187.65 L 5664.44,5173.82 Z " />
<path stroke="transparent" fill="#000000" transform="matrix(0.0666667 0 0 0.0666667 -160.853 -231)" d="M 5707.72,5214.94 L 5741.53,5185.21 L 5753.38,5201.42 L 5722.28,5228.77 L 5707.72,5214.94 Z " />
<path stroke="transparent" fill="#000000" transform="matrix(0.0666667 0 0 0.0666667 -160.853 -231)" d="M 5751,5256.06 L 5776.77,5233.4 L 5788.62,5249.61 L 5765.56,5269.89 L 5751,5256.06 Z " />
<path stroke="transparent" fill="#000000" transform="matrix(0.0666667 0 0 0.0666667 -160.853 -231)" d="M 5794.28,5297.18 L 5812.01,5281.59 L 5823.86,5297.8 L 5808.84,5311.01 L 5794.28,5297.18 Z " />
<path stroke="transparent" fill="#000000" transform="matrix(0.0666667 0 0 0.0666667 -160.853 -231)" d="M 2467.42,7612.87 L 2487.42,7601.25 L 3001.49,7894.38 L 3001.56,7917.45 L 2467.42,7612.87 Z " />
<path stroke="transparent" fill="#000000" transform="matrix(0.0666667 0 0 0.0666667 -160.853 -231)" d="M 2487.42,7601.25 L 2467.42,7612.87 L 2467.42,6998.91 L 2487.42,7010.49 L 2487.42,7601.25 Z " />
<path stroke="transparent" fill="#000000" transform="matrix(0.0666667 0 0 0.0666667 -160.853 -231)" d="M 6621.46,4648.93 L 6636.69,4666.24 L 6443.6,5231.77 L 6428.35,5214.52 L 6621.46,4648.93 Z " />
<path stroke="transparent" fill="#000000" transform="matrix(0.0666667 0 0 0.0666667 -160.853 -231)" d="M 7209.94,4529.43 L 7225.15,4546.75 L 6636.69,4666.24 L 6621.46,4648.93 L 7209.94,4529.43 Z " />
<path stroke="transparent" fill="#000000" transform="matrix(0.0666667 0 0 0.0666667 -160.853 -231)" d="M 7399.37,3974.88 L 7410.72,3972.6 L 7418.34,3981.22 L 7225.15,4546.75 L 7209.94,4529.43 L 7399.37,3974.88 Z " />
<path stroke="transparent" fill="#000000" transform="matrix(0.0666667 0 0 0.0666667 -160.853 -231)" d="M 7992.49,3840.91 L 7996.58,3860.49 L 7418.34,3981.22 L 7410.72,3972.6 L 7414.35,3961.63 L 7992.49,3840.91 Z " />
<path stroke="transparent" fill="#000000" transform="matrix(0.0666667 0 0 0.0666667 -160.853 -231)" d="M 7007.8,3533.25 L 7022.76,3519.98 L 7414.35,3961.63 L 7410.72,3972.6 L 7399.37,3974.88 L 7007.8,3533.25 Z " />
</svg>
