<?xml version="1.0"?><svg xmlns="http://www.w3.org/2000/svg" xmlns:xlink="http://www.w3.org/1999/xlink" viewBox="14.1 13.85 508.59 353.52" preserveAspectRatio="xMidYMid" width="100%" height="100%"><clipPath id="108"><rect x="0.5" y="0.5" width="522.2" height="768.8" /></clipPath><g id="drawing"><rect x="14.1" y="13.85" width="100%" height="100%" fill="rgb(255, 255, 255)" /><g id="page" clip-path="url(#108)"><g><text xml:space="preserve" text-anchor="start" text-rendering="geometricPrecision"><tspan x="221.95" y="277.25" font-family="Arial" font-size="10" fill="rgb(0, 0, 0)">O</tspan></text></g><g><text xml:space="preserve" text-anchor="end" text-rendering="geometricPrecision"><tspan x="203.78" y="232.25" font-family="Arial" font-size="10" fill="rgb(0, 0, 0)">HO</tspan></text></g><g><text xml:space="preserve" text-anchor="start" text-rendering="geometricPrecision"><tspan x="247.93" y="172.25" font-family="Arial" font-size="10" fill="rgb(0, 0, 0)">OH</tspan></text></g><g><text xml:space="preserve" text-anchor="start" text-rendering="geometricPrecision"><tspan x="299.89" y="232.25" font-family="Arial" font-size="10" fill="rgb(0, 0, 0)">O</tspan></text></g><g><text xml:space="preserve" text-anchor="start" text-rendering="geometricPrecision"><tspan x="325.87" y="187.25" font-family="Arial" font-size="10" fill="rgb(0, 0, 0)">O</tspan></text></g><g><text xml:space="preserve" text-anchor="start" text-rendering="geometricPrecision"><tspan x="455.78" y="142.25" font-family="Arial" font-size="10" fill="rgb(0, 0, 0)">O</tspan></text></g><g><text xml:space="preserve" text-anchor="start" text-rendering="geometricPrecision"><tspan x="481.76" y="97.25" font-family="Arial" font-size="10" fill="rgb(0, 0, 0)">O</tspan></text></g><g><text xml:space="preserve" text-anchor="start" text-rendering="geometricPrecision"><tspan x="507.74" y="22.25" font-family="Arial" font-size="10" fill="rgb(0, 0, 0)">OH</tspan></text></g><g><text xml:space="preserve" text-anchor="start" text-rendering="geometricPrecision"><tspan x="455.78" y="22.25" font-family="Arial" font-size="10" fill="rgb(0, 0, 0)">OH</tspan></text></g><g><text xml:space="preserve" text-anchor="end" text-rendering="geometricPrecision"><tspan x="411.63" y="52.25" font-family="Arial" font-size="10" fill="rgb(0, 0, 0)">HO</tspan></text></g><g><text xml:space="preserve" text-anchor="end" text-rendering="geometricPrecision"><tspan x="411.63" y="112.25" font-family="Arial" font-size="10" fill="rgb(0, 0, 0)">HO</tspan></text></g><g><text xml:space="preserve" text-anchor="start" text-rendering="geometricPrecision"><tspan x="221.95" y="157.25" font-family="Arial" font-size="10" fill="rgb(0, 0, 0)">O</tspan></text></g><g><text xml:space="preserve" text-anchor="start" text-rendering="geometricPrecision"><tspan x="195.97" y="202.25" font-family="Arial" font-size="10" fill="rgb(0, 0, 0)">O</tspan></text></g><g><text xml:space="preserve" text-anchor="start" text-rendering="geometricPrecision"><tspan x="66.06" y="247.25" font-family="Arial" font-size="10" fill="rgb(0, 0, 0)">O</tspan></text></g><g><text xml:space="preserve" text-anchor="start" text-rendering="geometricPrecision"><tspan x="40.08" y="292.25" font-family="Arial" font-size="10" fill="rgb(0, 0, 0)">O</tspan></text></g><g><text xml:space="preserve" text-anchor="start" text-rendering="geometricPrecision"><tspan x="14.1" y="367.25" font-family="Arial" font-size="10" fill="rgb(0, 0, 0)">OH</tspan></text></g><g><text xml:space="preserve" text-anchor="start" text-rendering="geometricPrecision"><tspan x="66.06" y="367.25" font-family="Arial" font-size="10" fill="rgb(0, 0, 0)">OH</tspan></text></g><g><text xml:space="preserve" text-anchor="start" text-rendering="geometricPrecision"><tspan x="118.03" y="337.25" font-family="Arial" font-size="10" fill="rgb(0, 0, 0)">OH</tspan></text></g><g><text xml:space="preserve" text-anchor="start" text-rendering="geometricPrecision"><tspan x="118.03" y="277.25" font-family="Arial" font-size="10" fill="rgb(0, 0, 0)">OH</tspan></text></g><g id="Solid"><line x1="224.05" y1="268" x2="224.05" y2="243.58" stroke="rgb(0, 0, 0)" stroke-width="1" shape-rendering="auto" /><path d="M227.15 268 L227.15 268 L228.15 268 L228.15 242.83 L227.15 243.41 Z" stroke="rgb(0, 0, 0)" stroke-width="0" fill-rule="evenodd" stroke-linejoin="miter" fill="rgb(0, 0, 0)" shape-rendering="geometricPrecision" /><path d="M223.55 268 L223.55 268 L224.55 268 L224.55 243.41 L223.55 242.83 Z" stroke="rgb(0, 0, 0)" stroke-width="0" fill-rule="evenodd" stroke-linejoin="miter" fill="rgb(0, 0, 0)" shape-rendering="geometricPrecision" /></g><g id="Solid"><path d="M225.85 243 L225.85 243 L225.85 243.58 L225.85 244.16 L204.68 231.94 L204.93 231.5 L205.18 231.07 Z" stroke="rgb(0, 0, 0)" stroke-width="0" fill-rule="evenodd" stroke-linejoin="miter" fill="rgb(0, 0, 0)" shape-rendering="geometricPrecision" /></g><g id="Solid"><path d="M225.85 244.16 L225.85 244.16 L225.85 243.58 L225.85 243 L251.34 228.29 L251.84 228.58 L252.34 228.87 Z" stroke="rgb(0, 0, 0)" stroke-width="0" fill-rule="evenodd" stroke-linejoin="miter" fill="rgb(0, 0, 0)" shape-rendering="geometricPrecision" /></g><g id="Solid"><path d="M252.34 228.87 L252.34 228.87 L251.84 228.58 L251.34 228.29 L251.34 198.87 L251.84 198.58 L252.34 198.87 Z" stroke="rgb(0, 0, 0)" stroke-width="0" fill-rule="evenodd" stroke-linejoin="miter" fill="rgb(0, 0, 0)" shape-rendering="geometricPrecision" /></g><g id="Solid"><path d="M252.34 197.71 L252.34 197.71 L251.84 198.58 L251.34 197.71 L251.34 174.4 L251.84 174.4 L252.34 174.4 Z" stroke="rgb(0, 0, 0)" stroke-width="0" fill-rule="evenodd" stroke-linejoin="miter" fill="rgb(0, 0, 0)" shape-rendering="geometricPrecision" /></g><g id="Solid"><path d="M252.34 198.87 L252.34 198.87 L251.84 198.58 L252.34 197.71 L277.82 183 L277.82 183.58 L277.82 184.16 Z" stroke="rgb(0, 0, 0)" stroke-width="0" fill-rule="evenodd" stroke-linejoin="miter" fill="rgb(0, 0, 0)" shape-rendering="geometricPrecision" /></g><g id="Solid"><path d="M277.82 184.16 L277.82 184.16 L277.82 183.58 L277.82 183 L303.8 198 L303.8 198.58 L303.8 199.16 Z" stroke="rgb(0, 0, 0)" stroke-width="0" fill-rule="evenodd" stroke-linejoin="miter" fill="rgb(0, 0, 0)" shape-rendering="geometricPrecision" /></g><g id="Solid"><line x1="305.6" y1="198.58" x2="305.6" y2="223" stroke="rgb(0, 0, 0)" stroke-width="1" shape-rendering="auto" /><path d="M302.5 198.41 L302.5 198.41 L301.5 197.83 L301.5 223 L302.5 223 Z" stroke="rgb(0, 0, 0)" stroke-width="0" fill-rule="evenodd" stroke-linejoin="miter" fill="rgb(0, 0, 0)" shape-rendering="geometricPrecision" /><path d="M306.1 197.83 L306.1 197.83 L305.1 198.41 L305.1 223 L306.1 223 Z" stroke="rgb(0, 0, 0)" stroke-width="0" fill-rule="evenodd" stroke-linejoin="miter" fill="rgb(0, 0, 0)" shape-rendering="geometricPrecision" /></g><g id="Solid"><path d="M303.8 199.16 L303.8 199.16 L303.8 198.58 L303.8 198 L324.62 185.98 L324.87 186.42 L325.12 186.85 Z" stroke="rgb(0, 0, 0)" stroke-width="0" fill-rule="evenodd" stroke-linejoin="miter" fill="rgb(0, 0, 0)" shape-rendering="geometricPrecision" /></g><g id="Solid"><path d="M334.58 186.93 L334.58 186.93 L334.83 186.5 L335.08 186.06 L355.76 198 L355.76 198.58 L355.76 199.16 Z" stroke="rgb(0, 0, 0)" stroke-width="0" fill-rule="evenodd" stroke-linejoin="miter" fill="rgb(0, 0, 0)" shape-rendering="geometricPrecision" /></g><g id="Solid"><path d="M355.76 199.16 L355.76 199.16 L355.76 198.58 L355.76 198 L381.24 183.29 L381.74 183.58 L381.74 184.16 Z" stroke="rgb(0, 0, 0)" stroke-width="0" fill-rule="evenodd" stroke-linejoin="miter" fill="rgb(0, 0, 0)" shape-rendering="geometricPrecision" /></g><g id="Solid"><path d="M381.74 184.16 L381.74 184.16 L381.74 183.58 L382.24 183.29 L407.72 198 L407.72 198.58 L407.72 199.16 Z" stroke="rgb(0, 0, 0)" stroke-width="0" fill-rule="evenodd" stroke-linejoin="miter" fill="rgb(0, 0, 0)" shape-rendering="geometricPrecision" /><line x1="385.34" y1="181.5" x2="407.72" y2="194.42" stroke="rgb(0, 0, 0)" stroke-width="1" shape-rendering="auto" /></g><g id="Solid"><path d="M407.72 199.16 L407.72 199.16 L407.72 198.58 L407.72 198 L433.2 183.29 L433.7 183.58 L434.2 183.87 Z" stroke="rgb(0, 0, 0)" stroke-width="0" fill-rule="evenodd" stroke-linejoin="miter" fill="rgb(0, 0, 0)" shape-rendering="geometricPrecision" /></g><g id="Solid"><path d="M434.2 183.87 L434.2 183.87 L433.7 183.58 L433.2 183.29 L433.2 153.87 L433.7 153.58 L434.2 153.87 Z" stroke="rgb(0, 0, 0)" stroke-width="0" fill-rule="evenodd" stroke-linejoin="miter" fill="rgb(0, 0, 0)" shape-rendering="geometricPrecision" /><line x1="430.1" y1="181.5" x2="430.1" y2="155.66" stroke="rgb(0, 0, 0)" stroke-width="1" shape-rendering="auto" /></g><g id="Solid"><path d="M434.2 153.87 L434.2 153.87 L433.7 153.58 L433.7 153 L454.52 140.99 L454.77 141.42 L455.02 141.85 Z" stroke="rgb(0, 0, 0)" stroke-width="0" fill-rule="evenodd" stroke-linejoin="miter" fill="rgb(0, 0, 0)" shape-rendering="geometricPrecision" /></g><g id="WedgeBegin"><path d="M459.17 108.86 L459.17 108.86 L459.69 108.58 L460.21 108.86 L462.69 133 L459.69 133 L456.69 133 Z" stroke="rgb(0, 0, 0)" stroke-width="0" fill-rule="evenodd" stroke-linejoin="miter" fill="rgb(0, 0, 0)" shape-rendering="geometricPrecision" /></g><g id="Solid"><path d="M460.21 108.86 L460.21 108.86 L459.69 108.58 L459.69 108 L480.52 95.98 L480.77 96.41 L481.02 96.84 Z" stroke="rgb(0, 0, 0)" stroke-width="0" fill-rule="evenodd" stroke-linejoin="miter" fill="rgb(0, 0, 0)" shape-rendering="geometricPrecision" /></g><g id="Solid"><path d="M485.17 63.87 L485.17 63.87 L485.67 63.58 L486.17 63.9 L486.17 88 L485.67 88 L485.17 88 Z" stroke="rgb(0, 0, 0)" stroke-width="0" fill-rule="evenodd" stroke-linejoin="miter" fill="rgb(0, 0, 0)" shape-rendering="geometricPrecision" /></g><g id="WedgeBegin"><path d="M486.17 63.9 L486.17 63.9 L485.67 63.58 L485.65 62.99 L511.15 45.29 L511.65 48.58 L512.15 51.65 Z" stroke="rgb(0, 0, 0)" stroke-width="0" fill-rule="evenodd" stroke-linejoin="miter" fill="rgb(0, 0, 0)" shape-rendering="geometricPrecision" /></g><g id="Solid"><path d="M512.15 51.65 L512.15 51.65 L511.65 48.58 L511.15 45.29 L511.15 24.4 L511.65 24.4 L512.15 24.4 Z" stroke="rgb(0, 0, 0)" stroke-width="0" fill-rule="evenodd" stroke-linejoin="miter" fill="rgb(0, 0, 0)" shape-rendering="geometricPrecision" /></g><g id="Solid"><path d="M459.69 49.16 L459.69 49.16 L459.69 48.58 L459.69 48 L485.65 62.99 L485.67 63.58 L485.17 63.87 Z" stroke="rgb(0, 0, 0)" stroke-width="0" fill-rule="evenodd" stroke-linejoin="miter" fill="rgb(0, 0, 0)" shape-rendering="geometricPrecision" /></g><g id="Wedged Hash Begin Bond"><path d="M460.19 48.58 L460.19 48.58 L459.19 48.58 L459.09 47.58 L460.29 47.58 Z" stroke="rgb(0, 0, 0)" stroke-width="0" fill-rule="evenodd" stroke-linejoin="miter" fill="rgb(0, 0, 0)" shape-rendering="geometricPrecision" /><path d="M460.49 45.68 L460.49 45.68 L458.89 45.68 L458.79 44.68 L460.59 44.68 Z" stroke="rgb(0, 0, 0)" stroke-width="0" fill-rule="evenodd" stroke-linejoin="miter" fill="rgb(0, 0, 0)" shape-rendering="geometricPrecision" /><path d="M460.79 42.78 L460.79 42.78 L458.59 42.78 L458.49 41.78 L460.89 41.78 Z" stroke="rgb(0, 0, 0)" stroke-width="0" fill-rule="evenodd" stroke-linejoin="miter" fill="rgb(0, 0, 0)" shape-rendering="geometricPrecision" /><path d="M461.09 39.89 L461.09 39.89 L458.29 39.89 L458.19 38.89 L461.19 38.89 Z" stroke="rgb(0, 0, 0)" stroke-width="0" fill-rule="evenodd" stroke-linejoin="miter" fill="rgb(0, 0, 0)" shape-rendering="geometricPrecision" /><path d="M461.39 36.99 L461.39 36.99 L457.99 36.99 L457.89 35.99 L461.49 35.99 Z" stroke="rgb(0, 0, 0)" stroke-width="0" fill-rule="evenodd" stroke-linejoin="miter" fill="rgb(0, 0, 0)" shape-rendering="geometricPrecision" /><path d="M461.69 34.09 L461.69 34.09 L457.69 34.09 L457.59 33.09 L461.79 33.09 Z" stroke="rgb(0, 0, 0)" stroke-width="0" fill-rule="evenodd" stroke-linejoin="miter" fill="rgb(0, 0, 0)" shape-rendering="geometricPrecision" /><path d="M461.99 31.19 L461.99 31.19 L457.39 31.19 L457.29 30.19 L462.09 30.19 Z" stroke="rgb(0, 0, 0)" stroke-width="0" fill-rule="evenodd" stroke-linejoin="miter" fill="rgb(0, 0, 0)" shape-rendering="geometricPrecision" /><path d="M462.29 28.3 L462.29 28.3 L457.09 28.3 L456.99 27.3 L462.39 27.3 Z" stroke="rgb(0, 0, 0)" stroke-width="0" fill-rule="evenodd" stroke-linejoin="miter" fill="rgb(0, 0, 0)" shape-rendering="geometricPrecision" /><path d="M462.59 25.4 L462.59 25.4 L456.79 25.4 L456.69 24.4 L462.69 24.4 Z" stroke="rgb(0, 0, 0)" stroke-width="0" fill-rule="evenodd" stroke-linejoin="miter" fill="rgb(0, 0, 0)" shape-rendering="geometricPrecision" /></g><g id="Solid"><path d="M434.2 63.87 L434.2 63.87 L433.7 63.58 L433.72 62.99 L459.69 48 L459.69 48.58 L459.69 49.16 Z" stroke="rgb(0, 0, 0)" stroke-width="0" fill-rule="evenodd" stroke-linejoin="miter" fill="rgb(0, 0, 0)" shape-rendering="geometricPrecision" /></g><g id="WedgeBegin"><path d="M433.72 62.99 L433.72 62.99 L433.7 63.58 L433.2 63.9 L411.43 54.19 L412.93 51.59 L414.43 48.99 Z" stroke="rgb(0, 0, 0)" stroke-width="0" fill-rule="evenodd" stroke-linejoin="miter" fill="rgb(0, 0, 0)" shape-rendering="geometricPrecision" /></g><g id="Solid"><path d="M434.2 93.29 L434.2 93.29 L433.7 93.58 L433.2 93.87 L433.2 63.9 L433.7 63.58 L434.2 63.87 Z" stroke="rgb(0, 0, 0)" stroke-width="0" fill-rule="evenodd" stroke-linejoin="miter" fill="rgb(0, 0, 0)" shape-rendering="geometricPrecision" /></g><g id="Solid"><path d="M459.69 108 L459.69 108 L459.69 108.58 L459.17 108.86 L433.2 93.87 L433.7 93.58 L434.2 93.29 Z" stroke="rgb(0, 0, 0)" stroke-width="0" fill-rule="evenodd" stroke-linejoin="miter" fill="rgb(0, 0, 0)" shape-rendering="geometricPrecision" /></g><g id="Wedged Hash Begin Bond"><path d="M433.45 93.15 L433.45 93.15 L433.95 94.01 L433.14 94.6 L432.53 93.56 Z" stroke="rgb(0, 0, 0)" stroke-width="0" fill-rule="evenodd" stroke-linejoin="miter" fill="rgb(0, 0, 0)" shape-rendering="geometricPrecision" /><path d="M430.81 94.32 L430.81 94.32 L431.61 95.71 L430.8 96.3 L429.89 94.73 Z" stroke="rgb(0, 0, 0)" stroke-width="0" fill-rule="evenodd" stroke-linejoin="miter" fill="rgb(0, 0, 0)" shape-rendering="geometricPrecision" /><path d="M428.18 95.5 L428.18 95.5 L429.27 97.4 L428.46 97.99 L427.26 95.91 Z" stroke="rgb(0, 0, 0)" stroke-width="0" fill-rule="evenodd" stroke-linejoin="miter" fill="rgb(0, 0, 0)" shape-rendering="geometricPrecision" /><path d="M425.54 96.68 L425.54 96.68 L426.94 99.1 L426.12 99.69 L424.62 97.09 Z" stroke="rgb(0, 0, 0)" stroke-width="0" fill-rule="evenodd" stroke-linejoin="miter" fill="rgb(0, 0, 0)" shape-rendering="geometricPrecision" /><path d="M422.9 97.85 L422.9 97.85 L424.6 100.8 L423.78 101.39 L421.98 98.26 Z" stroke="rgb(0, 0, 0)" stroke-width="0" fill-rule="evenodd" stroke-linejoin="miter" fill="rgb(0, 0, 0)" shape-rendering="geometricPrecision" /><path d="M420.26 99.03 L420.26 99.03 L422.26 102.49 L421.45 103.08 L419.34 99.44 Z" stroke="rgb(0, 0, 0)" stroke-width="0" fill-rule="evenodd" stroke-linejoin="miter" fill="rgb(0, 0, 0)" shape-rendering="geometricPrecision" /><path d="M417.63 100.21 L417.63 100.21 L419.92 104.19 L419.11 104.78 L416.71 100.62 Z" stroke="rgb(0, 0, 0)" stroke-width="0" fill-rule="evenodd" stroke-linejoin="miter" fill="rgb(0, 0, 0)" shape-rendering="geometricPrecision" /><path d="M414.99 101.39 L414.99 101.39 L417.58 105.88 L416.77 106.47 L414.07 101.8 Z" stroke="rgb(0, 0, 0)" stroke-width="0" fill-rule="evenodd" stroke-linejoin="miter" fill="rgb(0, 0, 0)" shape-rendering="geometricPrecision" /><path d="M412.35 102.56 L412.35 102.56 L415.25 107.58 L414.43 108.17 L411.43 102.97 Z" stroke="rgb(0, 0, 0)" stroke-width="0" fill-rule="evenodd" stroke-linejoin="miter" fill="rgb(0, 0, 0)" shape-rendering="geometricPrecision" /></g><g id="Solid"><path d="M433.7 153 L433.7 153 L433.7 153.58 L433.2 153.87 L407.72 139.16 L407.72 138.58 L407.72 138 Z" stroke="rgb(0, 0, 0)" stroke-width="0" fill-rule="evenodd" stroke-linejoin="miter" fill="rgb(0, 0, 0)" shape-rendering="geometricPrecision" /></g><g id="Solid"><path d="M407.72 138 L407.72 138 L407.72 138.58 L407.72 139.16 L382.24 153.87 L381.74 153.58 L381.24 153.29 Z" stroke="rgb(0, 0, 0)" stroke-width="0" fill-rule="evenodd" stroke-linejoin="miter" fill="rgb(0, 0, 0)" shape-rendering="geometricPrecision" /><line x1="407.72" y1="142.74" x2="385.34" y2="155.66" stroke="rgb(0, 0, 0)" stroke-width="1" shape-rendering="auto" /></g><g id="Solid"><path d="M382.24 183.29 L382.24 183.29 L381.74 183.58 L381.24 183.29 L381.24 153.29 L381.74 153.58 L382.24 153.87 Z" stroke="rgb(0, 0, 0)" stroke-width="0" fill-rule="evenodd" stroke-linejoin="miter" fill="rgb(0, 0, 0)" shape-rendering="geometricPrecision" /></g><g id="Solid"><path d="M251.34 197.71 L251.34 197.71 L251.84 198.58 L251.34 198.87 L225.85 184.16 L225.85 183.58 L225.85 183 Z" stroke="rgb(0, 0, 0)" stroke-width="0" fill-rule="evenodd" stroke-linejoin="miter" fill="rgb(0, 0, 0)" shape-rendering="geometricPrecision" /></g><g id="Solid"><line x1="224.05" y1="183.58" x2="224.05" y2="159.4" stroke="rgb(0, 0, 0)" stroke-width="1" shape-rendering="auto" /><path d="M227.15 183.75 L227.15 183.75 L228.15 184.33 L228.15 159.4 L227.15 159.4 Z" stroke="rgb(0, 0, 0)" stroke-width="0" fill-rule="evenodd" stroke-linejoin="miter" fill="rgb(0, 0, 0)" shape-rendering="geometricPrecision" /><path d="M223.55 184.33 L223.55 184.33 L224.55 183.75 L224.55 159.4 L223.55 159.4 Z" stroke="rgb(0, 0, 0)" stroke-width="0" fill-rule="evenodd" stroke-linejoin="miter" fill="rgb(0, 0, 0)" shape-rendering="geometricPrecision" /></g><g id="Solid"><path d="M225.85 183 L225.85 183 L225.85 183.58 L225.85 184.16 L205.08 196.15 L204.83 195.72 L204.58 195.28 Z" stroke="rgb(0, 0, 0)" stroke-width="0" fill-rule="evenodd" stroke-linejoin="miter" fill="rgb(0, 0, 0)" shape-rendering="geometricPrecision" /></g><g id="Solid"><path d="M195.22 195.32 L195.22 195.32 L194.97 195.75 L194.72 196.18 L173.89 184.16 L173.89 183.58 L173.89 183 Z" stroke="rgb(0, 0, 0)" stroke-width="0" fill-rule="evenodd" stroke-linejoin="miter" fill="rgb(0, 0, 0)" shape-rendering="geometricPrecision" /></g><g id="Solid"><path d="M173.89 183 L173.89 183 L173.89 183.58 L173.89 184.16 L148.41 198.87 L147.91 198.58 L147.91 198 Z" stroke="rgb(0, 0, 0)" stroke-width="0" fill-rule="evenodd" stroke-linejoin="miter" fill="rgb(0, 0, 0)" shape-rendering="geometricPrecision" /></g><g id="Solid"><path d="M147.91 198 L147.91 198 L147.91 198.58 L147.41 198.87 L121.93 184.16 L121.93 183.58 L121.93 183 Z" stroke="rgb(0, 0, 0)" stroke-width="0" fill-rule="evenodd" stroke-linejoin="miter" fill="rgb(0, 0, 0)" shape-rendering="geometricPrecision" /><line x1="144.31" y1="200.66" x2="121.93" y2="187.74" stroke="rgb(0, 0, 0)" stroke-width="1" shape-rendering="auto" /></g><g id="Solid"><path d="M121.93 183 L121.93 183 L121.93 183.58 L121.93 184.16 L96.45 198.86 L95.95 198.57 L95.45 198.28 Z" stroke="rgb(0, 0, 0)" stroke-width="0" fill-rule="evenodd" stroke-linejoin="miter" fill="rgb(0, 0, 0)" shape-rendering="geometricPrecision" /></g><g id="Solid"><path d="M95.45 198.28 L95.45 198.28 L95.95 198.57 L96.45 198.86 L96.45 228.28 L95.95 228.57 L95.45 228.28 Z" stroke="rgb(0, 0, 0)" stroke-width="0" fill-rule="evenodd" stroke-linejoin="miter" fill="rgb(0, 0, 0)" shape-rendering="geometricPrecision" /><line x1="99.55" y1="200.65" x2="99.55" y2="226.49" stroke="rgb(0, 0, 0)" stroke-width="1" shape-rendering="auto" /></g><g id="Solid"><path d="M95.45 228.28 L95.45 228.28 L95.95 228.57 L95.95 229.15 L75.18 241.14 L74.93 240.71 L74.68 240.27 Z" stroke="rgb(0, 0, 0)" stroke-width="0" fill-rule="evenodd" stroke-linejoin="miter" fill="rgb(0, 0, 0)" shape-rendering="geometricPrecision" /></g><g id="WedgeBegin"><path d="M70.49 273.29 L70.49 273.29 L69.97 273.57 L69.45 273.29 L66.97 249.4 L69.97 249.4 L72.97 249.4 Z" stroke="rgb(0, 0, 0)" stroke-width="0" fill-rule="evenodd" stroke-linejoin="miter" fill="rgb(0, 0, 0)" shape-rendering="geometricPrecision" /></g><g id="Solid"><path d="M69.45 273.29 L69.45 273.29 L69.97 273.57 L69.97 274.15 L49.18 286.15 L48.93 285.72 L48.68 285.28 Z" stroke="rgb(0, 0, 0)" stroke-width="0" fill-rule="evenodd" stroke-linejoin="miter" fill="rgb(0, 0, 0)" shape-rendering="geometricPrecision" /></g><g id="Solid"><path d="M44.49 318.29 L44.49 318.29 L43.99 318.58 L43.49 318.26 L43.49 294.4 L43.99 294.4 L44.49 294.4 Z" stroke="rgb(0, 0, 0)" stroke-width="0" fill-rule="evenodd" stroke-linejoin="miter" fill="rgb(0, 0, 0)" shape-rendering="geometricPrecision" /></g><g id="WedgeBegin"><path d="M43.49 318.26 L43.49 318.26 L43.99 318.58 L44.01 319.17 L18.51 336.87 L18.01 333.58 L17.51 330.51 Z" stroke="rgb(0, 0, 0)" stroke-width="0" fill-rule="evenodd" stroke-linejoin="miter" fill="rgb(0, 0, 0)" shape-rendering="geometricPrecision" /></g><g id="Solid"><path d="M17.51 330.51 L17.51 330.51 L18.01 333.58 L18.51 336.87 L18.51 358 L18.01 358 L17.51 358 Z" stroke="rgb(0, 0, 0)" stroke-width="0" fill-rule="evenodd" stroke-linejoin="miter" fill="rgb(0, 0, 0)" shape-rendering="geometricPrecision" /></g><g id="Solid"><path d="M69.97 333 L69.97 333 L69.97 333.58 L69.97 334.16 L44.01 319.17 L43.99 318.58 L44.49 318.29 Z" stroke="rgb(0, 0, 0)" stroke-width="0" fill-rule="evenodd" stroke-linejoin="miter" fill="rgb(0, 0, 0)" shape-rendering="geometricPrecision" /></g><g id="Wedged Hash Begin Bond"><path d="M69.47 333.58 L69.47 333.58 L70.47 333.58 L70.57 334.58 L69.37 334.58 Z" stroke="rgb(0, 0, 0)" stroke-width="0" fill-rule="evenodd" stroke-linejoin="miter" fill="rgb(0, 0, 0)" shape-rendering="geometricPrecision" /><path d="M69.17 336.51 L69.17 336.51 L70.77 336.51 L70.87 337.51 L69.07 337.51 Z" stroke="rgb(0, 0, 0)" stroke-width="0" fill-rule="evenodd" stroke-linejoin="miter" fill="rgb(0, 0, 0)" shape-rendering="geometricPrecision" /><path d="M68.87 339.44 L68.87 339.44 L71.07 339.43 L71.17 340.43 L68.77 340.44 Z" stroke="rgb(0, 0, 0)" stroke-width="0" fill-rule="evenodd" stroke-linejoin="miter" fill="rgb(0, 0, 0)" shape-rendering="geometricPrecision" /><path d="M68.57 342.36 L68.57 342.36 L71.37 342.36 L71.47 343.36 L68.47 343.36 Z" stroke="rgb(0, 0, 0)" stroke-width="0" fill-rule="evenodd" stroke-linejoin="miter" fill="rgb(0, 0, 0)" shape-rendering="geometricPrecision" /><path d="M68.27 345.29 L68.27 345.29 L71.67 345.29 L71.77 346.29 L68.17 346.29 Z" stroke="rgb(0, 0, 0)" stroke-width="0" fill-rule="evenodd" stroke-linejoin="miter" fill="rgb(0, 0, 0)" shape-rendering="geometricPrecision" /><path d="M67.97 348.22 L67.97 348.22 L71.97 348.22 L72.07 349.22 L67.87 349.22 Z" stroke="rgb(0, 0, 0)" stroke-width="0" fill-rule="evenodd" stroke-linejoin="miter" fill="rgb(0, 0, 0)" shape-rendering="geometricPrecision" /><path d="M67.67 351.15 L67.67 351.15 L72.27 351.14 L72.37 352.14 L67.57 352.15 Z" stroke="rgb(0, 0, 0)" stroke-width="0" fill-rule="evenodd" stroke-linejoin="miter" fill="rgb(0, 0, 0)" shape-rendering="geometricPrecision" /><path d="M67.37 354.07 L67.37 354.07 L72.57 354.07 L72.67 355.07 L67.27 355.07 Z" stroke="rgb(0, 0, 0)" stroke-width="0" fill-rule="evenodd" stroke-linejoin="miter" fill="rgb(0, 0, 0)" shape-rendering="geometricPrecision" /><path d="M67.07 357 L67.07 357 L72.87 357 L72.97 358 L66.97 358 Z" stroke="rgb(0, 0, 0)" stroke-width="0" fill-rule="evenodd" stroke-linejoin="miter" fill="rgb(0, 0, 0)" shape-rendering="geometricPrecision" /></g><g id="Solid"><path d="M95.45 318.29 L95.45 318.29 L95.95 318.58 L95.93 319.17 L69.97 334.16 L69.97 333.58 L69.97 333 Z" stroke="rgb(0, 0, 0)" stroke-width="0" fill-rule="evenodd" stroke-linejoin="miter" fill="rgb(0, 0, 0)" shape-rendering="geometricPrecision" /></g><g id="WedgeBegin"><path d="M95.93 319.17 L95.93 319.17 L95.95 318.58 L96.45 318.26 L118.37 328.06 L116.87 330.66 L115.37 333.26 Z" stroke="rgb(0, 0, 0)" stroke-width="0" fill-rule="evenodd" stroke-linejoin="miter" fill="rgb(0, 0, 0)" shape-rendering="geometricPrecision" /></g><g id="Solid"><path d="M95.45 288.86 L95.45 288.86 L95.95 288.57 L96.45 288.28 L96.45 318.26 L95.95 318.58 L95.45 318.29 Z" stroke="rgb(0, 0, 0)" stroke-width="0" fill-rule="evenodd" stroke-linejoin="miter" fill="rgb(0, 0, 0)" shape-rendering="geometricPrecision" /></g><g id="Solid"><path d="M69.97 274.15 L69.97 274.15 L69.97 273.57 L70.49 273.29 L96.45 288.28 L95.95 288.57 L95.45 288.86 Z" stroke="rgb(0, 0, 0)" stroke-width="0" fill-rule="evenodd" stroke-linejoin="miter" fill="rgb(0, 0, 0)" shape-rendering="geometricPrecision" /></g><g id="Wedged Hash Begin Bond"><path d="M96.2 289 L96.2 289 L95.7 288.14 L96.51 287.55 L97.12 288.59 Z" stroke="rgb(0, 0, 0)" stroke-width="0" fill-rule="evenodd" stroke-linejoin="miter" fill="rgb(0, 0, 0)" shape-rendering="geometricPrecision" /><path d="M98.86 287.82 L98.86 287.82 L98.06 286.43 L98.87 285.84 L99.77 287.4 Z" stroke="rgb(0, 0, 0)" stroke-width="0" fill-rule="evenodd" stroke-linejoin="miter" fill="rgb(0, 0, 0)" shape-rendering="geometricPrecision" /><path d="M101.51 286.63 L101.51 286.63 L100.41 284.72 L101.23 284.13 L102.43 286.22 Z" stroke="rgb(0, 0, 0)" stroke-width="0" fill-rule="evenodd" stroke-linejoin="miter" fill="rgb(0, 0, 0)" shape-rendering="geometricPrecision" /><path d="M104.17 285.44 L104.17 285.44 L102.77 283.02 L103.58 282.43 L105.09 285.03 Z" stroke="rgb(0, 0, 0)" stroke-width="0" fill-rule="evenodd" stroke-linejoin="miter" fill="rgb(0, 0, 0)" shape-rendering="geometricPrecision" /><path d="M106.83 284.25 L106.83 284.25 L105.13 281.31 L105.94 280.72 L107.74 283.84 Z" stroke="rgb(0, 0, 0)" stroke-width="0" fill-rule="evenodd" stroke-linejoin="miter" fill="rgb(0, 0, 0)" shape-rendering="geometricPrecision" /><path d="M109.48 283.06 L109.48 283.06 L107.48 279.6 L108.3 279.01 L110.4 282.65 Z" stroke="rgb(0, 0, 0)" stroke-width="0" fill-rule="evenodd" stroke-linejoin="miter" fill="rgb(0, 0, 0)" shape-rendering="geometricPrecision" /><path d="M112.14 281.88 L112.14 281.88 L109.84 277.9 L110.65 277.31 L113.06 281.47 Z" stroke="rgb(0, 0, 0)" stroke-width="0" fill-rule="evenodd" stroke-linejoin="miter" fill="rgb(0, 0, 0)" shape-rendering="geometricPrecision" /><path d="M114.79 280.69 L114.79 280.69 L112.2 276.19 L113.01 275.6 L115.71 280.28 Z" stroke="rgb(0, 0, 0)" stroke-width="0" fill-rule="evenodd" stroke-linejoin="miter" fill="rgb(0, 0, 0)" shape-rendering="geometricPrecision" /><path d="M117.45 279.5 L117.45 279.5 L114.55 274.48 L115.37 273.89 L118.37 279.09 Z" stroke="rgb(0, 0, 0)" stroke-width="0" fill-rule="evenodd" stroke-linejoin="miter" fill="rgb(0, 0, 0)" shape-rendering="geometricPrecision" /></g><g id="Solid"><path d="M95.95 229.15 L95.95 229.15 L95.95 228.57 L96.45 228.28 L121.93 242.99 L121.93 243.57 L121.93 244.15 Z" stroke="rgb(0, 0, 0)" stroke-width="0" fill-rule="evenodd" stroke-linejoin="miter" fill="rgb(0, 0, 0)" shape-rendering="geometricPrecision" /></g><g id="Solid"><path d="M121.93 244.15 L121.93 244.15 L121.93 243.57 L121.93 242.99 L147.41 228.28 L147.91 228.57 L148.41 228.86 Z" stroke="rgb(0, 0, 0)" stroke-width="0" fill-rule="evenodd" stroke-linejoin="miter" fill="rgb(0, 0, 0)" shape-rendering="geometricPrecision" /><line x1="121.93" y1="239.41" x2="144.31" y2="226.49" stroke="rgb(0, 0, 0)" stroke-width="1" shape-rendering="auto" /></g><g id="Solid"><path d="M147.41 198.87 L147.41 198.87 L147.91 198.58 L148.41 198.87 L148.41 228.86 L147.91 228.57 L147.41 228.28 Z" stroke="rgb(0, 0, 0)" stroke-width="0" fill-rule="evenodd" stroke-linejoin="miter" fill="rgb(0, 0, 0)" shape-rendering="geometricPrecision" /></g></g></g></svg>