<?xml version="1.0" standalone="no" ?>
<!DOCTYPE svg PUBLIC "-//W3C//DTD SVG 1.1//EN" "http://www.w3.org/Graphics/SVG/1.1/DTD/svg11.dtd">
<svg width="659px" height="178px" viewBox="0 0 659 178" style="background-color: #ffffff00" xmlns="http://www.w3.org/2000/svg" xmlns:xlink="http://www.w3.org/1999/xlink" version="1.1" >
<text x="0" y="0" stroke="transparent" fill="#000000" transform="matrix(0.0666667 0 0 0.0666667 428.244 14.5725)" style="font:normal normal normal 200px 'Arial'" >
O</text>
<text x="0" y="0" stroke="transparent" fill="#000000" transform="matrix(0.0666667 0 0 0.0666667 636.096 134.575)" style="font:normal normal normal 200px 'Arial'" >
OH</text>
<text x="0" y="0" stroke="transparent" fill="#000000" transform="matrix(0.0666667 0 0 0.0666667 636.096 54.5733)" style="font:normal normal normal 200px 'Arial'" >
OH</text>
<text x="0" y="0" stroke="transparent" fill="#000000" transform="matrix(0.0666667 0 0 0.0666667 393.603 74.5738)" style="font:normal normal normal 200px 'Arial'" >
O</text>
<text x="0" y="0" stroke="transparent" fill="#000000" transform="matrix(0.0666667 0 0 0.0666667 289.681 54.5733)" style="font:normal normal normal 200px 'Arial'" >
O</text>
<text x="0" y="0" stroke="transparent" fill="#000000" transform="matrix(0.0666667 0 0 0.0666667 220.399 54.5733)" style="font:normal normal normal 200px 'Arial'" >
O</text>
<text x="0" y="0" stroke="transparent" fill="#000000" transform="matrix(0.0666667 0 0 0.0666667 2.91765 134.571)" style="font:normal normal normal 200px 'Arial'" >
HO</text>
<text x="0" y="0" stroke="transparent" fill="#000000" transform="matrix(0.0666667 0 0 0.0666667 81.832 174.572)" style="font:normal normal normal 200px 'Arial'" >
OH</text>
<text x="0" y="0" stroke="transparent" fill="#000000" transform="matrix(0.0666667 0 0 0.0666667 210.77 134.571)" style="font:normal normal normal 200px 'Arial'" >
HO</text>
<text x="0" y="0" stroke="transparent" fill="#000000" transform="matrix(0.0666667 0 0 0.0666667 289.681 174.572)" style="font:normal normal normal 200px 'Arial'" >
OH</text>
<text x="0" y="0" stroke="transparent" fill="#000000" transform="matrix(0.0666667 0 0 0.0666667 358.962 134.575)" style="font:normal normal normal 200px 'Arial'" >
OH</text>
<path stroke="transparent" fill="#000000" transform="matrix(0.0666667 0 0 0.0666667 -19.3587 -224)" d="M 6838.03,4121.38 L 6818.03,4121.38 L 6818.03,3620.42 L 6838.03,3620.42 L 6838.03,4121.38 Z " />
<path stroke="transparent" fill="#000000" transform="matrix(0.0666667 0 0 0.0666667 -19.3587 -224)" d="M 6766.03,4121.39 L 6746.03,4121.39 L 6746.03,3620.42 L 6766.03,3620.42 L 6766.03,4121.39 Z " />
<path stroke="transparent" fill="#000000" transform="matrix(0.0666667 0 0 0.0666667 -19.3587 -224)" d="M 7311.7,4389.06 L 7311.71,4412.15 L 6792.03,4112.15 L 6792.03,4089.05 L 7311.7,4389.06 Z " />
<path stroke="transparent" fill="#000000" transform="matrix(0.0666667 0 0 0.0666667 -19.3587 -224)" d="M 7831.32,4089.05 L 7831.32,4112.15 L 7311.71,4412.15 L 7311.7,4389.06 L 7831.32,4089.05 Z " />
<path stroke="transparent" fill="#000000" transform="matrix(0.0666667 0 0 0.0666667 -19.3587 -224)" d="M 7790.32,4029.59 L 7800.32,4046.91 L 7316.7,4326.13 L 7306.7,4308.81 L 7790.32,4029.59 Z " />
<path stroke="transparent" fill="#000000" transform="matrix(0.0666667 0 0 0.0666667 -19.3587 -224)" d="M 8350.93,4389.06 L 8350.93,4400.61 L 8340.93,4406.38 L 7831.32,4112.15 L 7831.32,4089.05 L 8350.93,4389.06 Z " />
<path stroke="transparent" fill="#000000" transform="matrix(0.0666667 0 0 0.0666667 -19.3587 -224)" d="M 8360.93,4994.85 L 8340.93,5006.39 L 8340.93,4406.38 L 8350.93,4400.61 L 8360.93,4406.38 L 8360.93,4994.85 Z " />
<path stroke="transparent" fill="#000000" transform="matrix(0.0666667 0 0 0.0666667 -19.3587 -224)" d="M 8432.93,4959.05 L 8412.93,4959.05 L 8412.93,4442.18 L 8432.93,4442.18 L 8432.93,4959.05 Z " />
<path stroke="transparent" fill="#000000" transform="matrix(0.0666667 0 0 0.0666667 -19.3587 -224)" d="M 8870.54,5289.08 L 8870.54,5312.17 L 8340.93,5006.39 L 8360.93,4994.85 L 8870.54,5289.08 Z " />
<path stroke="transparent" fill="#000000" transform="matrix(0.0666667 0 0 0.0666667 -19.3587 -224)" d="M 9380.21,4994.85 L 9390.21,5000.62 L 9390.21,5012.17 L 8870.54,5312.17 L 8870.54,5289.08 L 9380.21,4994.85 Z " />
<path stroke="transparent" fill="#000000" transform="matrix(0.0666667 0 0 0.0666667 -19.3587 -224)" d="M 9313.2,4950.38 L 9323.2,4967.71 L 8875.54,5226.14 L 8865.54,5208.82 L 9313.2,4950.38 Z " />
<path stroke="transparent" fill="#000000" transform="matrix(0.0666667 0 0 0.0666667 -19.3587 -224)" d="M 9822.2,5238.49 L 9812.2,5255.81 L 9390.21,5012.17 L 9390.21,5000.62 L 9400.21,4994.85 L 9822.2,5238.49 Z " />
<path stroke="transparent" fill="#000000" transform="matrix(0.0666667 0 0 0.0666667 -19.3587 -224)" d="M 9380.21,4406.38 L 9390.21,4400.61 L 9400.21,4406.38 L 9400.21,4994.85 L 9390.21,5000.62 L 9380.21,4994.85 L 9380.21,4406.38 Z " />
<path stroke="transparent" fill="#000000" transform="matrix(0.0666667 0 0 0.0666667 -19.3587 -224)" d="M 9805.22,4149.45 L 9815.22,4166.77 L 9400.21,4406.38 L 9390.21,4400.61 L 9390.21,4389.06 L 9805.22,4149.45 Z " />
<path stroke="transparent" fill="#000000" transform="matrix(0.0666667 0 0 0.0666667 -19.3587 -224)" d="M 8870.54,4112.15 L 8870.54,4089.05 L 9390.21,4389.06 L 9390.21,4400.61 L 9380.21,4406.38 L 8870.54,4112.15 Z " />
<path stroke="transparent" fill="#000000" transform="matrix(0.0666667 0 0 0.0666667 -19.3587 -224)" d="M 8865.54,4192.41 L 8875.54,4175.08 L 9323.2,4433.52 L 9313.2,4450.84 L 8865.54,4192.41 Z " />
<path stroke="transparent" fill="#000000" transform="matrix(0.0666667 0 0 0.0666667 -19.3587 -224)" d="M 8870.54,4089.05 L 8870.54,4112.15 L 8360.93,4406.38 L 8350.93,4400.61 L 8350.93,4389.06 L 8870.54,4089.05 Z " />
<path stroke="transparent" fill="#000000" transform="matrix(0.0666667 0 0 0.0666667 -19.3587 -224)" d="M 6370.04,4355.79 L 6360.04,4338.47 L 6792.03,4089.05 L 6792.03,4112.15 L 6370.04,4355.79 Z " />
<path stroke="transparent" fill="#000000" transform="matrix(0.0666667 0 0 0.0666667 -19.3587 -224)" d="M 5747.81,4109.26 L 5757.81,4091.94 L 6184.8,4338.47 L 6174.8,4355.79 L 5747.81,4109.26 Z " />
<path stroke="transparent" fill="#000000" transform="matrix(0.0666667 0 0 0.0666667 -19.3587 -224)" d="M 5676.05,4075.64 L 5736.05,4179.56 L 5717.71,4187.8 L 5659.74,4087.4 L 5676.05,4075.64 Z " />
<path stroke="transparent" fill="#000000" transform="matrix(0.0666667 0 0 0.0666667 -19.3587 -224)" d="M 5627.95,4110.33 L 5681.95,4203.87 L 5663.62,4212.11 L 5611.64,4122.09 L 5627.95,4110.33 Z " />
<path stroke="transparent" fill="#000000" transform="matrix(0.0666667 0 0 0.0666667 -19.3587 -224)" d="M 5579.85,4145.03 L 5627.86,4228.18 L 5609.52,4236.42 L 5563.55,4156.79 L 5579.85,4145.03 Z " />
<path stroke="transparent" fill="#000000" transform="matrix(0.0666667 0 0 0.0666667 -19.3587 -224)" d="M 5531.75,4179.72 L 5573.77,4252.49 L 5555.43,4260.73 L 5515.45,4191.48 L 5531.75,4179.72 Z " />
<path stroke="transparent" fill="#000000" transform="matrix(0.0666667 0 0 0.0666667 -19.3587 -224)" d="M 5483.66,4214.41 L 5519.67,4276.79 L 5501.34,4285.03 L 5467.35,4226.17 L 5483.66,4214.41 Z " />
<path stroke="transparent" fill="#000000" transform="matrix(0.0666667 0 0 0.0666667 -19.3587 -224)" d="M 5435.56,4249.11 L 5465.58,4301.1 L 5447.24,4309.34 L 5419.26,4260.87 L 5435.56,4249.11 Z " />
<path stroke="transparent" fill="#000000" transform="matrix(0.0666667 0 0 0.0666667 -19.3587 -224)" d="M 5387.46,4283.8 L 5411.49,4325.41 L 5393.15,4333.65 L 5371.16,4295.56 L 5387.46,4283.8 Z " />
<path stroke="transparent" fill="#000000" transform="matrix(0.0666667 0 0 0.0666667 -19.3587 -224)" d="M 5339.37,4318.49 L 5357.39,4349.72 L 5339.06,4357.96 L 5323.06,4330.25 L 5339.37,4318.49 Z " />
<path stroke="transparent" fill="#000000" transform="matrix(0.0666667 0 0 0.0666667 -19.3587 -224)" d="M 5291.27,4353.19 L 5303.3,4374.03 L 5284.96,4382.27 L 5274.96,4364.95 L 5291.27,4353.19 Z " />
<path stroke="transparent" fill="#000000" transform="matrix(0.0666667 0 0 0.0666667 -19.3587 -224)" d="M 4808.62,4167.02 L 4818.62,4149.7 L 5243.2,4394.83 L 5223.2,4406.38 L 4808.62,4167.02 Z " />
<path stroke="transparent" fill="#000000" transform="matrix(0.0666667 0 0 0.0666667 -19.3587 -224)" d="M 4608.98,4149.44 L 4618.98,4166.76 L 4203.98,4406.32 L 4183.98,4394.77 L 4608.98,4149.44 Z " />
<path stroke="transparent" fill="#000000" transform="matrix(0.0666667 0 0 0.0666667 -19.3587 -224)" d="M 3744.41,4210.31 L 3804.4,4106.38 L 3820.56,4118.4 L 3762.89,4218.3 L 3744.41,4210.31 Z " />
<path stroke="transparent" fill="#000000" transform="matrix(0.0666667 0 0 0.0666667 -19.3587 -224)" d="M 3798.59,4233.72 L 3851.77,4141.59 L 3867.93,4153.61 L 3817.07,4241.71 L 3798.59,4233.72 Z " />
<path stroke="transparent" fill="#000000" transform="matrix(0.0666667 0 0 0.0666667 -19.3587 -224)" d="M 3852.77,4257.14 L 3899.15,4176.8 L 3915.31,4188.81 L 3871.26,4265.12 L 3852.77,4257.14 Z " />
<path stroke="transparent" fill="#000000" transform="matrix(0.0666667 0 0 0.0666667 -19.3587 -224)" d="M 3906.96,4280.55 L 3946.52,4212.01 L 3962.68,4224.02 L 3925.44,4288.54 L 3906.96,4280.55 Z " />
<path stroke="transparent" fill="#000000" transform="matrix(0.0666667 0 0 0.0666667 -19.3587 -224)" d="M 3961.14,4303.96 L 3993.89,4247.22 L 4010.05,4259.23 L 3979.62,4311.95 L 3961.14,4303.96 Z " />
<path stroke="transparent" fill="#000000" transform="matrix(0.0666667 0 0 0.0666667 -19.3587 -224)" d="M 4015.32,4327.37 L 4041.26,4282.43 L 4057.42,4294.44 L 4033.8,4335.36 L 4015.32,4327.37 Z " />
<path stroke="transparent" fill="#000000" transform="matrix(0.0666667 0 0 0.0666667 -19.3587 -224)" d="M 4069.5,4350.79 L 4088.63,4317.64 L 4104.79,4329.65 L 4087.98,4358.77 L 4069.5,4350.79 Z " />
<path stroke="transparent" fill="#000000" transform="matrix(0.0666667 0 0 0.0666667 -19.3587 -224)" d="M 4123.68,4374.2 L 4136.01,4352.85 L 4152.17,4364.86 L 4142.17,4382.19 L 4123.68,4374.2 Z " />
<path stroke="transparent" fill="#000000" transform="matrix(0.0666667 0 0 0.0666667 -19.3587 -224)" d="M 3154.69,4412.09 L 3154.69,4389 L 3569.76,4149.43 L 3579.76,4166.75 L 3154.69,4412.09 Z " />
<path stroke="transparent" fill="#000000" transform="matrix(0.0666667 0 0 0.0666667 -19.3587 -224)" d="M 2635.08,4112.15 L 2635.08,4089.05 L 3154.69,4389 L 3154.69,4412.09 L 2635.08,4112.15 Z " />
<path stroke="transparent" fill="#000000" transform="matrix(0.0666667 0 0 0.0666667 -19.3587 -224)" d="M 2125.47,4406.32 L 2115.47,4400.55 L 2115.47,4389 L 2635.08,4089.05 L 2635.08,4112.15 L 2125.47,4406.32 Z " />
<path stroke="transparent" fill="#000000" transform="matrix(0.0666667 0 0 0.0666667 -19.3587 -224)" d="M 1595.86,4112.15 L 1595.86,4089.05 L 2115.47,4389 L 2115.47,4400.55 L 2105.47,4406.32 L 1595.86,4112.15 Z " />
<path stroke="transparent" fill="#000000" transform="matrix(0.0666667 0 0 0.0666667 -19.3587 -224)" d="M 1590.86,4192.39 L 1600.86,4175.07 L 2048.48,4433.46 L 2038.48,4450.78 L 1590.86,4192.39 Z " />
<path stroke="transparent" fill="#000000" transform="matrix(0.0666667 0 0 0.0666667 -19.3587 -224)" d="M 1086.19,4406.32 L 1066.19,4394.77 L 1595.86,4089.05 L 1595.86,4112.15 L 1086.19,4406.32 Z " />
<path stroke="transparent" fill="#000000" transform="matrix(0.0666667 0 0 0.0666667 -19.3587 -224)" d="M 1086.19,4994.79 L 1076.19,5000.56 L 1066.19,4994.79 L 1066.19,4394.77 L 1086.19,4406.32 L 1086.19,4994.79 Z " />
<path stroke="transparent" fill="#000000" transform="matrix(0.0666667 0 0 0.0666667 -19.3587 -224)" d="M 1158.19,4958.99 L 1138.19,4958.99 L 1138.19,4442.12 L 1158.19,4442.12 L 1158.19,4958.99 Z " />
<path stroke="transparent" fill="#000000" transform="matrix(0.0666667 0 0 0.0666667 -19.3587 -224)" d="M 654.188,5255.76 L 644.188,5238.44 L 1066.19,4994.79 L 1076.19,5000.56 L 1076.19,5012.11 L 654.188,5255.76 Z " />
<path stroke="transparent" fill="#000000" transform="matrix(0.0666667 0 0 0.0666667 -19.3587 -224)" d="M 1595.86,5289.02 L 1595.86,5300.57 L 1585.86,5306.34 L 1076.19,5012.11 L 1076.19,5000.56 L 1086.19,4994.79 L 1595.86,5289.02 Z " />
<path stroke="transparent" fill="#000000" transform="matrix(0.0666667 0 0 0.0666667 -19.3587 -224)" d="M 1605.86,5795.41 L 1585.86,5795.41 L 1585.86,5306.34 L 1595.86,5300.57 L 1605.86,5306.34 L 1605.86,5795.41 Z " />
<path stroke="transparent" fill="#000000" transform="matrix(0.0666667 0 0 0.0666667 -19.3587 -224)" d="M 2105.47,4994.79 L 2125.47,5006.33 L 1605.86,5306.34 L 1595.86,5300.57 L 1595.86,5289.02 L 2105.47,4994.79 Z " />
<path stroke="transparent" fill="#000000" transform="matrix(0.0666667 0 0 0.0666667 -19.3587 -224)" d="M 2038.47,4950.33 L 2048.47,4967.65 L 1600.86,5226.09 L 1590.86,5208.77 L 2038.47,4950.33 Z " />
<path stroke="transparent" fill="#000000" transform="matrix(0.0666667 0 0 0.0666667 -19.3587 -224)" d="M 2125.47,5006.33 L 2105.47,4994.79 L 2105.47,4406.32 L 2115.47,4400.55 L 2125.47,4406.32 L 2125.47,5006.33 Z " />
<path stroke="transparent" fill="#000000" transform="matrix(0.0666667 0 0 0.0666667 -19.3587 -224)" d="M 4183.98,4394.77 L 4203.98,4406.32 L 4203.98,4994.79 L 4193.98,5000.56 L 4183.98,4994.15 L 4183.98,4394.77 Z " />
<path stroke="transparent" fill="#000000" transform="matrix(0.0666667 0 0 0.0666667 -19.3587 -224)" d="M 3796.98,5299.06 L 3736.98,5195.14 L 4183.98,4994.15 L 4193.98,5000.56 L 4194.53,5012.43 L 3796.98,5299.06 Z " />
<path stroke="transparent" fill="#000000" transform="matrix(0.0666667 0 0 0.0666667 -19.3587 -224)" d="M 4194.53,5012.43 L 4193.98,5000.56 L 4203.98,4994.79 L 4713.59,5289.02 L 4713.59,5312.11 L 4194.53,5012.43 Z " />
<path stroke="transparent" fill="#000000" transform="matrix(0.0666667 0 0 0.0666667 -19.3587 -224)" d="M 4773.59,5795.41 L 4653.59,5795.41 L 4655.86,5775.41 L 4771.32,5775.41 L 4773.59,5795.41 Z " />
<path stroke="transparent" fill="#000000" transform="matrix(0.0666667 0 0 0.0666667 -19.3587 -224)" d="M 4766.77,5735.31 L 4660.41,5735.31 L 4662.68,5715.31 L 4764.5,5715.31 L 4766.77,5735.31 Z " />
<path stroke="transparent" fill="#000000" transform="matrix(0.0666667 0 0 0.0666667 -19.3587 -224)" d="M 4759.95,5675.2 L 4667.23,5675.2 L 4669.5,5655.2 L 4757.68,5655.2 L 4759.95,5675.2 Z " />
<path stroke="transparent" fill="#000000" transform="matrix(0.0666667 0 0 0.0666667 -19.3587 -224)" d="M 4753.13,5615.09 L 4674.05,5615.09 L 4676.31,5595.09 L 4750.86,5595.09 L 4753.13,5615.09 Z " />
<path stroke="transparent" fill="#000000" transform="matrix(0.0666667 0 0 0.0666667 -19.3587 -224)" d="M 4746.31,5554.98 L 4680.86,5554.98 L 4683.13,5534.98 L 4744.05,5534.98 L 4746.31,5554.98 Z " />
<path stroke="transparent" fill="#000000" transform="matrix(0.0666667 0 0 0.0666667 -19.3587 -224)" d="M 4739.5,5494.87 L 4687.68,5494.87 L 4689.95,5474.87 L 4737.23,5474.87 L 4739.5,5494.87 Z " />
<path stroke="transparent" fill="#000000" transform="matrix(0.0666667 0 0 0.0666667 -19.3587 -224)" d="M 4732.68,5434.77 L 4694.5,5434.77 L 4696.77,5414.77 L 4730.41,5414.77 L 4732.68,5434.77 Z " />
<path stroke="transparent" fill="#000000" transform="matrix(0.0666667 0 0 0.0666667 -19.3587 -224)" d="M 4725.86,5374.66 L 4701.32,5374.66 L 4703.59,5354.66 L 4723.59,5354.66 L 4725.86,5374.66 Z " />
<path stroke="transparent" fill="#000000" transform="matrix(0.0666667 0 0 0.0666667 -19.3587 -224)" d="M 4713.59,5312.11 L 4713.59,5289.02 L 5223.2,4994.79 L 5233.2,5000.56 L 5232.65,5012.43 L 4713.59,5312.11 Z " />
<path stroke="transparent" fill="#000000" transform="matrix(0.0666667 0 0 0.0666667 -19.3587 -224)" d="M 5243.2,4994.15 L 5233.2,5000.56 L 5223.2,4994.79 L 5223.2,4406.38 L 5243.2,4394.83 L 5243.2,4994.15 Z " />
<path stroke="transparent" fill="#000000" transform="matrix(0.0666667 0 0 0.0666667 -19.3587 -224)" d="M 5690.2,5195.19 L 5630.19,5299.1 L 5232.65,5012.43 L 5233.2,5000.56 L 5243.2,4994.15 L 5690.2,5195.19 Z " />
</svg>
