<?xml version="1.0" standalone="no" ?>
<!DOCTYPE svg PUBLIC "-//W3C//DTD SVG 1.1//EN" "http://www.w3.org/Graphics/SVG/1.1/DTD/svg11.dtd">
<svg width="602px" height="303px" viewBox="0 0 602 303" style="background-color: #ffffff00" xmlns="http://www.w3.org/2000/svg" xmlns:xlink="http://www.w3.org/1999/xlink" version="1.1" >
<text x="0" y="0" stroke="transparent" fill="#000000" transform="matrix(0.0833333 0 0 0.0833333 3.71179 261.736)" style="font:normal normal normal 200px 'Arial'" >
O</text>
<path stroke="transparent" fill="#000000" transform="matrix(0.0833333 0 0 0.0833333 -151.875 -289)" d="M 5352.09,3592.95 L 5436.94,3508.1 L 5822.51,3963.77 L 5818.78,3974.79 L 5807.2,3978.05 L 5352.09,3592.95 Z " />
<path stroke="transparent" fill="#000000" transform="matrix(0.0833333 0 0 0.0833333 -151.875 -289)" d="M 6409.23,3839.06 L 6402.1,3861.02 L 5826.5,3983.37 L 5818.78,3974.79 L 5822.51,3963.77 L 6409.23,3839.06 Z " />
<path stroke="transparent" fill="#000000" transform="matrix(0.0833333 0 0 0.0833333 -151.875 -289)" d="M 5649.31,4528.69 L 5633.37,4545.42 L 5625.43,4537.48 L 5807.2,3978.05 L 5818.78,3974.79 L 5826.5,3983.37 L 5649.31,4528.69 Z " />
<path stroke="transparent" fill="#000000" transform="matrix(0.0833333 0 0 0.0833333 -151.875 -289)" d="M 5998.4,5030.83 L 5973.68,5030.83 L 5629.55,4557.17 L 5633.37,4545.42 L 5650.99,4552.66 L 5998.4,5030.83 Z " />
<path stroke="transparent" fill="#000000" transform="matrix(0.0833333 0 0 0.0833333 -151.875 -289)" d="M 5637.19,5528 L 5629.55,5504.48 L 5973.68,5030.83 L 5998.4,5030.83 L 5637.19,5528 Z " />
<path stroke="transparent" fill="#000000" transform="matrix(0.0833333 0 0 0.0833333 -151.875 -289)" d="M 5075.67,5345.55 L 5062.73,5330.83 L 5072.73,5323.56 L 5629.55,5504.48 L 5637.19,5528 L 5075.67,5345.55 Z " />
<path stroke="transparent" fill="#000000" transform="matrix(0.0833333 0 0 0.0833333 -151.875 -289)" d="M 5052.73,4736.6 L 5062.73,4730.83 L 5072.73,4738.09 L 5072.73,5323.56 L 5062.73,5330.83 L 5052.73,5325.06 L 5052.73,4736.6 Z " />
<path stroke="transparent" fill="#000000" transform="matrix(0.0833333 0 0 0.0833333 -151.875 -289)" d="M 5072.73,4738.09 L 5062.73,4730.83 L 5063.88,4719.94 L 5625.43,4537.48 L 5633.37,4545.42 L 5629.55,4557.17 L 5072.73,4738.09 Z " />
<path stroke="transparent" fill="#000000" transform="matrix(0.0833333 0 0 0.0833333 -151.875 -289)" d="M 4543.12,4442.38 L 4543.12,4419.28 L 5063.88,4719.94 L 5062.73,4730.83 L 5052.73,4736.6 L 4543.12,4442.38 Z " />
<path stroke="transparent" fill="#000000" transform="matrix(0.0833333 0 0 0.0833333 -151.875 -289)" d="M 4033.5,4736.6 L 4013.5,4725.06 L 4543.12,4419.28 L 4543.12,4442.38 L 4033.5,4736.6 Z " />
<path stroke="transparent" fill="#000000" transform="matrix(0.0833333 0 0 0.0833333 -151.875 -289)" d="M 4013.5,4725.06 L 4033.5,4736.6 L 4033.5,5325.06 L 4023.5,5330.83 L 4013.5,5325.06 L 4013.5,4725.06 Z " />
<path stroke="transparent" fill="#000000" transform="matrix(0.0833333 0 0 0.0833333 -151.875 -289)" d="M 4543.12,5619.28 L 4543.12,5630.83 L 4533.12,5636.6 L 4023.5,5342.38 L 4023.5,5330.83 L 4033.5,5325.06 L 4543.12,5619.28 Z " />
<path stroke="transparent" fill="#000000" transform="matrix(0.0833333 0 0 0.0833333 -151.875 -289)" d="M 4553.12,5636.6 L 4543.12,5630.83 L 4543.12,5619.28 L 5052.73,5325.06 L 5062.73,5330.83 L 5053.13,5347.92 L 4553.12,5636.6 Z " />
<path stroke="transparent" fill="#000000" transform="matrix(0.0833333 0 0 0.0833333 -151.875 -289)" d="M 4553.12,6236.6 L 4533.12,6225.06 L 4533.12,5636.6 L 4543.12,5630.83 L 4553.12,5636.6 L 4553.12,6236.6 Z " />
<path stroke="transparent" fill="#000000" transform="matrix(0.0833333 0 0 0.0833333 -151.875 -289)" d="M 4481.12,6189.26 L 4461.12,6189.26 L 4461.12,5672.4 L 4481.12,5672.4 L 4481.12,6189.26 Z " />
<path stroke="transparent" fill="#000000" transform="matrix(0.0833333 0 0 0.0833333 -151.875 -289)" d="M 4023.5,6542.38 L 4023.5,6519.28 L 4533.12,6225.06 L 4553.12,6236.6 L 4023.5,6542.38 Z " />
<path stroke="transparent" fill="#000000" transform="matrix(0.0833333 0 0 0.0833333 -151.875 -289)" d="M 4023.5,6519.28 L 4023.5,6542.38 L 3515.73,6249.22 L 3503.89,6230.83 L 3513.89,6225.06 L 4023.5,6519.28 Z " />
<path stroke="transparent" fill="#000000" transform="matrix(0.0833333 0 0 0.0833333 -151.875 -289)" d="M 3493.89,5636.6 L 3503.89,5630.83 L 3513.89,5636.6 L 3513.89,6225.06 L 3503.89,6230.83 L 3493.89,6225.06 L 3493.89,5636.6 Z " />
<path stroke="transparent" fill="#000000" transform="matrix(0.0833333 0 0 0.0833333 -151.875 -289)" d="M 3513.89,5636.6 L 3503.89,5630.83 L 3515.4,5612.63 L 4013.5,5325.06 L 4023.5,5330.83 L 4023.5,5342.38 L 3513.89,5636.6 Z " />
<path stroke="transparent" fill="#000000" transform="matrix(0.0833333 0 0 0.0833333 -151.875 -289)" d="M 2984.27,5342.38 L 2984.27,5319.28 L 3492.37,5612.63 L 3503.89,5630.83 L 3493.89,5636.6 L 2984.27,5342.38 Z " />
<path stroke="transparent" fill="#000000" transform="matrix(0.0833333 0 0 0.0833333 -151.875 -289)" d="M 2474.66,5636.6 L 2454.66,5625.06 L 2984.27,5319.28 L 2984.27,5342.38 L 2474.66,5636.6 Z " />
<path stroke="transparent" fill="#000000" transform="matrix(0.0833333 0 0 0.0833333 -151.875 -289)" d="M 2474.66,6225.06 L 2454.66,6236.6 L 2454.66,5625.06 L 2474.66,5636.6 L 2474.66,6225.06 Z " />
<path stroke="transparent" fill="#000000" transform="matrix(0.0833333 0 0 0.0833333 -151.875 -289)" d="M 2060.66,6517.19 L 2050.66,6499.87 L 2495.66,6242.95 L 2505.66,6260.27 L 2060.66,6517.19 Z " />
<path stroke="transparent" fill="#000000" transform="matrix(0.0833333 0 0 0.0833333 -151.875 -289)" d="M 2024.66,6454.84 L 2014.66,6437.52 L 2459.66,6180.6 L 2469.66,6197.92 L 2024.66,6454.84 Z " />
<path stroke="transparent" fill="#000000" transform="matrix(0.0833333 0 0 0.0833333 -151.875 -289)" d="M 2984.27,6519.28 L 2984.27,6530.83 L 2970.61,6534.49 L 2454.66,6236.6 L 2474.66,6225.06 L 2984.27,6519.28 Z " />
<path stroke="transparent" fill="#000000" transform="matrix(0.0833333 0 0 0.0833333 -151.875 -289)" d="M 2997.93,6534.49 L 2984.27,6530.83 L 2984.27,6519.28 L 3493.89,6225.06 L 3503.89,6230.83 L 3492.04,6249.22 L 2997.93,6534.49 Z " />
<path stroke="transparent" fill="#000000" transform="matrix(0.0833333 0 0 0.0833333 -151.875 -289)" d="M 3292.93,7045.44 L 3275.61,7055.44 L 2984.27,6550.83 L 2984.27,6530.83 L 2997.93,6534.49 L 3292.93,7045.44 Z " />
<path stroke="transparent" fill="#000000" transform="matrix(0.0833333 0 0 0.0833333 -151.875 -289)" d="M 2692.93,7055.44 L 2675.61,7045.44 L 2970.61,6534.49 L 2984.27,6530.83 L 2984.27,6550.83 L 2692.93,7055.44 Z " />
<path stroke="transparent" fill="#000000" transform="matrix(0.0833333 0 0 0.0833333 -151.875 -289)" d="M 3443.89,5030.83 L 3563.89,5030.83 L 3515.4,5612.63 L 3503.89,5630.83 L 3492.37,5612.63 L 3443.89,5030.83 Z " />
<path stroke="transparent" fill="#000000" transform="matrix(0.0833333 0 0 0.0833333 -151.875 -289)" d="M 5065.78,4127.85 L 5185.12,4140.39 L 5181.21,4160.09 L 5065.51,4147.93 L 5065.78,4127.85 Z " />
<path stroke="transparent" fill="#000000" transform="matrix(0.0833333 0 0 0.0833333 -151.875 -289)" d="M 5064.99,4186.52 L 5173.69,4197.94 L 5169.78,4217.64 L 5064.72,4206.6 L 5064.99,4186.52 Z " />
<path stroke="transparent" fill="#000000" transform="matrix(0.0833333 0 0 0.0833333 -151.875 -289)" d="M 5064.21,4245.19 L 5162.26,4255.5 L 5158.35,4275.2 L 5063.94,4265.27 L 5064.21,4245.19 Z " />
<path stroke="transparent" fill="#000000" transform="matrix(0.0833333 0 0 0.0833333 -151.875 -289)" d="M 5063.42,4303.87 L 5150.83,4313.05 L 5146.92,4332.75 L 5063.15,4323.95 L 5063.42,4303.87 Z " />
<path stroke="transparent" fill="#000000" transform="matrix(0.0833333 0 0 0.0833333 -151.875 -289)" d="M 5062.64,4362.54 L 5139.4,4370.61 L 5135.48,4390.31 L 5062.37,4382.62 L 5062.64,4362.54 Z " />
<path stroke="transparent" fill="#000000" transform="matrix(0.0833333 0 0 0.0833333 -151.875 -289)" d="M 5061.85,4421.21 L 5127.97,4428.16 L 5124.05,4447.86 L 5061.58,4441.3 L 5061.85,4421.21 Z " />
<path stroke="transparent" fill="#000000" transform="matrix(0.0833333 0 0 0.0833333 -151.875 -289)" d="M 5061.07,4479.89 L 5116.54,4485.72 L 5112.62,4505.42 L 5060.8,4499.97 L 5061.07,4479.89 Z " />
<path stroke="transparent" fill="#000000" transform="matrix(0.0833333 0 0 0.0833333 -151.875 -289)" d="M 5060.28,4538.56 L 5105.1,4543.27 L 5101.19,4562.97 L 5060.01,4558.64 L 5060.28,4538.56 Z " />
<path stroke="transparent" fill="#000000" transform="matrix(0.0833333 0 0 0.0833333 -151.875 -289)" d="M 5059.49,4597.23 L 5093.67,4600.83 L 5089.76,4620.53 L 5059.23,4617.32 L 5059.49,4597.23 Z " />
<path stroke="transparent" fill="#000000" transform="matrix(0.0833333 0 0 0.0833333 -151.875 -289)" d="M 5058.71,4655.91 L 5082.24,4658.38 L 5078.33,4678.08 L 5058.44,4675.99 L 5058.71,4655.91 Z " />
<path stroke="transparent" fill="#000000" transform="matrix(0.0833333 0 0 0.0833333 -151.875 -289)" d="M 5185.12,5921.27 L 5065.78,5933.81 L 5053.13,5347.92 L 5062.73,5330.83 L 5075.67,5345.55 L 5185.12,5921.27 Z " />
<text x="0" y="0" stroke="transparent" fill="#000000" transform="matrix(0.0833333 0 0 0.0833333 134.115 286.736)" style="font:normal normal normal 200px 'Arial'" >
H</text>
<path stroke="transparent" fill="#000000" transform="matrix(0.0833333 0 0 0.0833333 -151.875 -289)" d="M 3563.89,6728.16 L 3443.89,6728.16 L 3492.04,6249.22 L 3503.89,6230.83 L 3515.73,6249.22 L 3563.89,6728.16 Z " />
<text x="0" y="0" stroke="transparent" fill="#000000" transform="matrix(0.0833333 0 0 0.0833333 359.868 83.344)" style="font:normal normal normal 200px 'Arial'" >
H</text>
<path stroke="transparent" fill="#000000" transform="matrix(0.0833333 0 0 0.0833333 -151.875 -289)" d="M 6088.11,4361.46 L 6119.16,4477.37 L 5650.99,4552.66 L 5633.37,4545.42 L 5649.31,4528.69 L 6088.11,4361.46 Z " />
<path stroke="transparent" fill="#000000" transform="matrix(0.0833333 0 0 0.0833333 -151.875 -289)" d="M 6810.71,4284.94 L 6803.57,4306.91 L 6402.1,3861.02 L 6409.23,3839.06 L 6810.71,4284.94 Z " />
<path stroke="transparent" fill="#000000" transform="matrix(0.0833333 0 0 0.0833333 -151.875 -289)" d="M 7397.6,4160.2 L 7390.46,4182.16 L 6803.57,4306.91 L 6810.71,4284.94 L 7397.6,4160.2 Z " />
<path stroke="transparent" fill="#000000" transform="matrix(0.0833333 0 0 0.0833333 -151.875 -289)" d="M 7799.08,4606.08 L 7795.51,4617.07 L 7784.22,4619.47 L 7390.46,4182.16 L 7397.6,4160.2 L 7799.08,4606.08 Z " />
<path stroke="transparent" fill="#000000" transform="matrix(0.0833333 0 0 0.0833333 -151.875 -289)" d="M 8385.97,4481.34 L 8378.83,4503.3 L 7803.24,4625.65 L 7795.51,4617.07 L 7799.08,4606.08 L 8385.97,4481.34 Z " />
<text x="0" y="0" stroke="transparent" fill="#000000" transform="matrix(0.0833333 0 0 0.0833333 573.615 129.017)" style="font:normal normal normal 200px 'Arial'" >
OH</text>
<path stroke="transparent" fill="#000000" transform="matrix(0.0833333 0 0 0.0833333 -151.875 -289)" d="M 8719.9,4852.2 L 8705.03,4865.59 L 8378.83,4503.3 L 8385.97,4481.34 L 8719.9,4852.2 Z " />
<path stroke="transparent" fill="#000000" transform="matrix(0.0833333 0 0 0.0833333 -151.875 -289)" d="M 7619.61,5190.79 L 7600.59,5184.61 L 7784.22,4619.47 L 7795.51,4617.07 L 7803.24,4625.65 L 7619.61,5190.79 Z " />
<text x="0" y="0" stroke="transparent" fill="#000000" transform="matrix(0.0833333 0 0 0.0833333 555.609 44.307)" style="font:normal normal normal 200px 'Arial'" >
O</text>
<path stroke="transparent" fill="#000000" transform="matrix(0.0833333 0 0 0.0833333 -151.875 -289)" d="M 8486.42,4023.31 L 8505.44,4029.49 L 8351.25,4504.05 L 8332.23,4497.87 L 8486.42,4023.31 Z " />
<path stroke="transparent" fill="#000000" transform="matrix(0.0833333 0 0 0.0833333 -151.875 -289)" d="M 8554.9,4045.55 L 8573.92,4051.74 L 8419.72,4526.3 L 8400.7,4520.12 L 8554.9,4045.55 Z " />
<text x="0" y="0" stroke="transparent" fill="#000000" transform="matrix(0.0833333 0 0 0.0833333 177.417 211.736)" style="font:normal normal normal 200px 'Arial'" >
H</text>
<path stroke="transparent" fill="#000000" transform="matrix(0.0833333 0 0 0.0833333 -151.875 -289)" d="M 4083.5,5828.16 L 3963.5,5828.16 L 3965.76,5808.16 L 4081.25,5808.16 L 4083.5,5828.16 Z " />
<path stroke="transparent" fill="#000000" transform="matrix(0.0833333 0 0 0.0833333 -151.875 -289)" d="M 4076.68,5767.69 L 3970.32,5767.69 L 3972.58,5747.69 L 4074.43,5747.69 L 4076.68,5767.69 Z " />
<path stroke="transparent" fill="#000000" transform="matrix(0.0833333 0 0 0.0833333 -151.875 -289)" d="M 4069.86,5707.22 L 3977.14,5707.22 L 3979.4,5687.22 L 4067.61,5687.22 L 4069.86,5707.22 Z " />
<path stroke="transparent" fill="#000000" transform="matrix(0.0833333 0 0 0.0833333 -151.875 -289)" d="M 4063.04,5646.75 L 3983.96,5646.75 L 3986.22,5626.75 L 4060.78,5626.75 L 4063.04,5646.75 Z " />
<path stroke="transparent" fill="#000000" transform="matrix(0.0833333 0 0 0.0833333 -151.875 -289)" d="M 4056.22,5586.28 L 3990.78,5586.28 L 3993.04,5566.28 L 4053.96,5566.28 L 4056.22,5586.28 Z " />
<path stroke="transparent" fill="#000000" transform="matrix(0.0833333 0 0 0.0833333 -151.875 -289)" d="M 4049.4,5525.81 L 3997.61,5525.81 L 3999.86,5505.81 L 4047.14,5505.81 L 4049.4,5525.81 Z " />
<path stroke="transparent" fill="#000000" transform="matrix(0.0833333 0 0 0.0833333 -151.875 -289)" d="M 4042.58,5465.34 L 4004.43,5465.34 L 4006.68,5445.34 L 4040.32,5445.34 L 4042.58,5465.34 Z " />
<path stroke="transparent" fill="#000000" transform="matrix(0.0833333 0 0 0.0833333 -151.875 -289)" d="M 4035.76,5404.87 L 4011.25,5404.87 L 4013.5,5384.87 L 4033.5,5384.87 L 4035.76,5404.87 Z " />
</svg>
