<?xml version="1.0" standalone="no" ?>
<!DOCTYPE svg PUBLIC "-//W3C//DTD SVG 1.1//EN" "http://www.w3.org/Graphics/SVG/1.1/DTD/svg11.dtd">
<svg width="145px" height="152px" viewBox="0 0 145 152" style="background-color: #ffffff00" xmlns="http://www.w3.org/2000/svg" xmlns:xlink="http://www.w3.org/1999/xlink" version="1.1" >
<text x="0" y="0" stroke="transparent" fill="#000000" transform="matrix(0.0666667 0 0 0.0666667 102.062 13.9507)" style="font:normal normal normal 200px 'Arial'" >
O</text>
<text x="0" y="0" stroke="transparent" fill="#000000" transform="matrix(0.0666667 0 0 0.0666667 32.7806 133.949)" style="font:normal normal normal 200px 'Arial'" >
O</text>
<text x="0" y="0" stroke="transparent" fill="#000000" transform="matrix(0.0666667 0 0 0.0666667 102.062 93.9524)" style="font:normal normal normal 200px 'Arial'" >
OH</text>
<path stroke="transparent" fill="#000000" transform="matrix(0.0666667 0 0 0.0666667 -276.425 -237)" d="M 5850.35,3752.68 L 5860.35,3735.36 L 6279.92,3977.61 L 6269.92,3994.93 L 5850.35,3752.68 Z " />
<path stroke="transparent" fill="#000000" transform="matrix(0.0666667 0 0 0.0666667 -276.425 -237)" d="M 5245.7,3992.04 L 5235.7,3986.27 L 5235.7,3974.72 L 5650.71,3735.11 L 5660.71,3752.43 L 5245.7,3992.04 Z " />
<path stroke="transparent" fill="#000000" transform="matrix(0.0666667 0 0 0.0666667 -276.425 -237)" d="M 4716.09,3697.81 L 4716.09,3674.71 L 5235.7,3974.72 L 5235.7,3986.27 L 5225.7,3992.04 L 4716.09,3697.81 Z " />
<path stroke="transparent" fill="#000000" transform="matrix(0.0666667 0 0 0.0666667 -276.425 -237)" d="M 4711.08,3778.06 L 4721.08,3760.74 L 5168.7,4019.17 L 5158.7,4036.5 L 4711.08,3778.06 Z " />
<path stroke="transparent" fill="#000000" transform="matrix(0.0666667 0 0 0.0666667 -276.425 -237)" d="M 4206.48,3991.98 L 4186.48,3980.43 L 4716.09,3674.71 L 4716.09,3697.81 L 4206.48,3991.98 Z " />
<path stroke="transparent" fill="#000000" transform="matrix(0.0666667 0 0 0.0666667 -276.425 -237)" d="M 4206.48,4580.45 L 4186.48,4591.99 L 4186.48,3980.43 L 4206.48,3991.98 L 4206.48,4580.45 Z " />
<path stroke="transparent" fill="#000000" transform="matrix(0.0666667 0 0 0.0666667 -276.425 -237)" d="M 4278.48,4544.65 L 4258.48,4544.65 L 4258.48,4027.78 L 4278.48,4027.78 L 4278.48,4544.65 Z " />
<path stroke="transparent" fill="#000000" transform="matrix(0.0666667 0 0 0.0666667 -276.425 -237)" d="M 4716.09,4874.68 L 4716.09,4886.23 L 4706.09,4892 L 4186.48,4591.99 L 4206.48,4580.45 L 4716.09,4874.68 Z " />
<path stroke="transparent" fill="#000000" transform="matrix(0.0666667 0 0 0.0666667 -276.425 -237)" d="M 4726.09,5381.07 L 4706.09,5381.07 L 4706.09,4892 L 4716.09,4886.23 L 4726.09,4892 L 4726.09,5381.07 Z " />
<path stroke="transparent" fill="#000000" transform="matrix(0.0666667 0 0 0.0666667 -276.425 -237)" d="M 5240.7,5777.59 L 5230.7,5794.91 L 4811.12,5552.66 L 4821.12,5535.34 L 5240.7,5777.59 Z " />
<path stroke="transparent" fill="#000000" transform="matrix(0.0666667 0 0 0.0666667 -276.425 -237)" d="M 5225.7,4580.45 L 5235.7,4586.22 L 5235.7,4597.77 L 4726.09,4892 L 4716.09,4886.23 L 4716.09,4874.68 L 5225.7,4580.45 Z " />
<path stroke="transparent" fill="#000000" transform="matrix(0.0666667 0 0 0.0666667 -276.425 -237)" d="M 5158.7,4535.99 L 5168.7,4553.31 L 4721.09,4811.75 L 4711.09,4794.43 L 5158.7,4535.99 Z " />
<path stroke="transparent" fill="#000000" transform="matrix(0.0666667 0 0 0.0666667 -276.425 -237)" d="M 5245.7,4580.45 L 5235.7,4586.22 L 5225.7,4580.45 L 5225.7,3992.04 L 5235.7,3986.27 L 5245.7,3992.04 L 5245.7,4580.45 Z " />
<path stroke="transparent" fill="#000000" transform="matrix(0.0666667 0 0 0.0666667 -276.425 -237)" d="M 5667.7,4824.14 L 5657.7,4841.46 L 5235.7,4597.77 L 5235.7,4586.22 L 5245.7,4580.45 L 5667.7,4824.14 Z " />
</svg>
