<?xml version="1.0" standalone="no" ?>
<!DOCTYPE svg PUBLIC "-//W3C//DTD SVG 1.1//EN" "http://www.w3.org/Graphics/SVG/1.1/DTD/svg11.dtd">
<svg width="504px" height="352px" viewBox="0 0 504 352" style="background-color: #ffffff00" xmlns="http://www.w3.org/2000/svg" xmlns:xlink="http://www.w3.org/1999/xlink" version="1.1" >
<text x="0" y="0" stroke="transparent" fill="#000000" transform="matrix(0.0833333 0 0 0.0833333 431.445 244.375)" style="font:normal normal normal 200px 'Arial'" >
O</text>
<text x="0" y="0" stroke="transparent" fill="#000000" transform="matrix(0.0833333 0 0 0.0833333 474.747 169.375)" style="font:normal normal normal 200px 'Arial'" >
OH</text>
<text x="0" y="0" stroke="transparent" fill="#000000" transform="matrix(0.0833333 0 0 0.0833333 405.465 229.375)" style="font:normal normal normal 200px 'Arial'" >
OH</text>
<text x="0" y="0" stroke="transparent" fill="#000000" transform="matrix(0.0833333 0 0 0.0833333 177.356 347.676)" style="font:normal normal normal 200px 'Arial'" >
OH</text>
<text x="0" y="0" stroke="transparent" fill="#000000" transform="matrix(0.0833333 0 0 0.0833333 15.3197 347.676)" style="font:normal normal normal 200px 'Arial'" >
HO</text>
<text x="0" y="0" stroke="transparent" fill="#000000" transform="matrix(0.0833333 0 0 0.0833333 3.71714 304.375)" style="font:normal normal normal 200px 'Arial'" >
HO</text>
<text x="0" y="0" stroke="transparent" fill="#000000" transform="matrix(0.0833333 0 0 0.0833333 3.71714 204.375)" style="font:normal normal normal 200px 'Arial'" >
HO</text>
<path stroke="transparent" fill="#000000" transform="matrix(0.0833333 0 0 0.0833333 -149.25 -138)" d="M 4667.63,4312.3 L 4656.12,4330.5 L 4644.6,4312.3 L 4596.12,3730.5 L 4716.12,3730.5 L 4667.63,4312.3 Z " />
<path stroke="transparent" fill="#000000" transform="matrix(0.0833333 0 0 0.0833333 -149.25 -138)" d="M 4666.12,4936.27 L 4646.12,4924.73 L 4646.12,4336.27 L 4656.12,4330.5 L 4666.12,4336.27 L 4666.12,4936.27 Z " />
<path stroke="transparent" fill="#000000" transform="matrix(0.0833333 0 0 0.0833333 -149.25 -138)" d="M 4088.34,5269.85 L 4188.52,5188.92 L 4646.12,4924.73 L 4666.12,4936.27 L 4088.34,5269.85 Z " />
<path stroke="transparent" fill="#000000" transform="matrix(0.0833333 0 0 0.0833333 -149.25 -138)" d="M 3616.43,4942.31 L 3616.88,4930.5 L 3626.88,4924.2 L 4188.52,5188.92 L 4088.34,5269.85 L 3616.43,4942.31 Z " />
<path stroke="transparent" fill="#000000" transform="matrix(0.0833333 0 0 0.0833333 -149.25 -138)" d="M 3606.88,4336.27 L 3616.88,4330.5 L 3626.88,4336.27 L 3626.88,4924.2 L 3616.88,4930.5 L 3606.88,4924.73 L 3606.88,4336.27 Z " />
<path stroke="transparent" fill="#000000" transform="matrix(0.0833333 0 0 0.0833333 -149.25 -138)" d="M 4126.04,4024.99 L 4136.5,4030.5 L 4136.5,4042.05 L 3626.88,4336.27 L 3616.88,4330.5 L 3628.4,4312.3 L 4126.04,4024.99 Z " />
<path stroke="transparent" fill="#000000" transform="matrix(0.0833333 0 0 0.0833333 -149.25 -138)" d="M 4136.5,4042.05 L 4136.5,4030.5 L 4146.96,4024.99 L 4644.6,4312.3 L 4656.12,4330.5 L 4646.12,4336.27 L 4136.5,4042.05 Z " />
<path stroke="transparent" fill="#000000" transform="matrix(0.0833333 0 0 0.0833333 -149.25 -138)" d="M 4078.34,3452.53 L 4198.52,3406.24 L 4146.96,4024.99 L 4136.5,4030.5 L 4126.04,4024.99 L 4078.34,3452.53 Z " />
<path stroke="transparent" fill="#000000" transform="matrix(0.0833333 0 0 0.0833333 -149.25 -138)" d="M 4656.12,3118.95 L 4656.12,3142.05 L 4198.52,3406.24 L 4078.34,3452.53 L 4656.12,3118.95 Z " />
<path stroke="transparent" fill="#000000" transform="matrix(0.0833333 0 0 0.0833333 -149.25 -138)" d="M 5175.73,3418.95 L 5175.73,3430.5 L 5165.73,3436.27 L 4656.12,3142.05 L 4656.12,3118.95 L 5175.73,3418.95 Z " />
<path stroke="transparent" fill="#000000" transform="matrix(0.0833333 0 0 0.0833333 -149.25 -138)" d="M 5108.73,3463.41 L 5098.73,3480.73 L 4651.12,3222.3 L 4661.12,3204.98 L 5108.73,3463.41 Z " />
<path stroke="transparent" fill="#000000" transform="matrix(0.0833333 0 0 0.0833333 -149.25 -138)" d="M 5185.73,4024.73 L 5175.73,4030.5 L 5165.73,4024.73 L 5165.73,3436.27 L 5175.73,3430.5 L 5185.73,3436.27 L 5185.73,4024.73 Z " />
<path stroke="transparent" fill="#000000" transform="matrix(0.0833333 0 0 0.0833333 -149.25 -138)" d="M 5165.73,4024.73 L 5175.73,4030.5 L 5175.73,4042.05 L 4666.12,4336.27 L 4656.12,4330.5 L 4667.63,4312.3 L 5165.73,4024.73 Z " />
<path stroke="transparent" fill="#000000" transform="matrix(0.0833333 0 0 0.0833333 -149.25 -138)" d="M 5695.35,4318.95 L 5695.35,4342.05 L 5175.73,4042.05 L 5175.73,4030.5 L 5185.73,4024.73 L 5695.35,4318.95 Z " />
<path stroke="transparent" fill="#000000" transform="matrix(0.0833333 0 0 0.0833333 -149.25 -138)" d="M 6204.96,4024.73 L 6224.96,4036.27 L 5695.35,4342.05 L 5695.35,4318.95 L 6204.96,4024.73 Z " />
<path stroke="transparent" fill="#000000" transform="matrix(0.0833333 0 0 0.0833333 -149.25 -138)" d="M 6204.96,3436.27 L 6214.96,3430.5 L 6224.96,3448.89 L 6224.96,4036.27 L 6204.96,4024.73 L 6204.96,3436.27 Z " />
<path stroke="transparent" fill="#000000" transform="matrix(0.0833333 0 0 0.0833333 -149.25 -138)" d="M 5695.35,3142.05 L 5695.35,3118.95 L 6214.96,3418.95 L 6214.96,3430.5 L 6204.96,3436.27 L 5695.35,3142.05 Z " />
<path stroke="transparent" fill="#000000" transform="matrix(0.0833333 0 0 0.0833333 -149.25 -138)" d="M 5695.35,3118.95 L 5695.35,3142.05 L 5185.73,3436.27 L 5175.73,3430.5 L 5175.73,3418.95 L 5695.35,3118.95 Z " />
<path stroke="transparent" fill="#000000" transform="matrix(0.0833333 0 0 0.0833333 -149.25 -138)" d="M 5635.35,2584.5 L 5755.35,2584.5 L 5753.31,2604.5 L 5637.38,2604.5 L 5635.35,2584.5 Z " />
<path stroke="transparent" fill="#000000" transform="matrix(0.0833333 0 0 0.0833333 -149.25 -138)" d="M 5641.34,2643.5 L 5749.35,2643.5 L 5747.32,2663.5 L 5643.37,2663.5 L 5641.34,2643.5 Z " />
<path stroke="transparent" fill="#000000" transform="matrix(0.0833333 0 0 0.0833333 -149.25 -138)" d="M 5647.34,2702.5 L 5743.35,2702.5 L 5741.32,2722.5 L 5649.37,2722.5 L 5647.34,2702.5 Z " />
<path stroke="transparent" fill="#000000" transform="matrix(0.0833333 0 0 0.0833333 -149.25 -138)" d="M 5653.33,2761.5 L 5737.36,2761.5 L 5735.33,2781.5 L 5655.37,2781.5 L 5653.33,2761.5 Z " />
<path stroke="transparent" fill="#000000" transform="matrix(0.0833333 0 0 0.0833333 -149.25 -138)" d="M 5659.33,2820.5 L 5731.36,2820.5 L 5729.33,2840.5 L 5661.36,2840.5 L 5659.33,2820.5 Z " />
<path stroke="transparent" fill="#000000" transform="matrix(0.0833333 0 0 0.0833333 -149.25 -138)" d="M 5665.33,2879.5 L 5725.37,2879.5 L 5723.33,2899.5 L 5667.36,2899.5 L 5665.33,2879.5 Z " />
<path stroke="transparent" fill="#000000" transform="matrix(0.0833333 0 0 0.0833333 -149.25 -138)" d="M 5671.32,2938.5 L 5719.37,2938.5 L 5717.34,2958.5 L 5673.35,2958.5 L 5671.32,2938.5 Z " />
<path stroke="transparent" fill="#000000" transform="matrix(0.0833333 0 0 0.0833333 -149.25 -138)" d="M 5677.32,2997.5 L 5713.37,2997.5 L 5711.34,3017.5 L 5679.35,3017.5 L 5677.32,2997.5 Z " />
<path stroke="transparent" fill="#000000" transform="matrix(0.0833333 0 0 0.0833333 -149.25 -138)" d="M 5683.31,3056.5 L 5707.38,3056.5 L 5705.35,3076.5 L 5685.35,3076.5 L 5683.31,3056.5 Z " />
<path stroke="transparent" fill="#000000" transform="matrix(0.0833333 0 0 0.0833333 -149.25 -138)" d="M 6201.3,2226.84 L 6214.96,2230.5 L 6214.96,2242.05 L 5700.35,2539.16 L 5690.35,2521.84 L 6201.3,2226.84 Z " />
<path stroke="transparent" fill="#000000" transform="matrix(0.0833333 0 0 0.0833333 -149.25 -138)" d="M 6744.58,2524.73 L 6724.58,2536.27 L 6214.96,2242.05 L 6214.96,2230.5 L 6228.62,2226.84 L 6744.58,2524.73 Z " />
<path stroke="transparent" fill="#000000" transform="matrix(0.0833333 0 0 0.0833333 -149.25 -138)" d="M 6744.58,3136.27 L 6724.58,3124.73 L 6724.58,2536.27 L 6744.58,2524.73 L 6744.58,3136.27 Z " />
<path stroke="transparent" fill="#000000" transform="matrix(0.0833333 0 0 0.0833333 -149.25 -138)" d="M 6724.58,3124.73 L 6744.58,3136.27 L 6235.89,3429.96 L 6214.96,3430.5 L 6214.96,3418.95 L 6724.58,3124.73 Z " />
<path stroke="transparent" fill="#000000" transform="matrix(0.0833333 0 0 0.0833333 -149.25 -138)" d="M 5906.3,1715.88 L 5923.62,1705.88 L 6214.96,2210.5 L 6214.96,2230.5 L 6201.3,2226.84 L 5906.3,1715.88 Z " />
<path stroke="transparent" fill="#000000" transform="matrix(0.0833333 0 0 0.0833333 -149.25 -138)" d="M 6506.3,1705.88 L 6523.62,1715.88 L 6228.62,2226.84 L 6214.96,2230.5 L 6214.96,2210.5 L 6506.3,1705.88 Z " />
<path stroke="transparent" fill="#000000" transform="matrix(0.0833333 0 0 0.0833333 -149.25 -138)" d="M 7097.59,3869.37 L 6997.51,3950.24 L 6224.96,3448.89 L 6214.96,3430.5 L 6235.89,3429.96 L 7097.59,3869.37 Z " />
<path stroke="transparent" fill="#000000" transform="matrix(0.0833333 0 0 0.0833333 -149.25 -138)" d="M 7092.35,4405.33 L 7072.35,4405.33 L 7072.35,3889.72 L 7092.35,3889.72 L 7092.35,4405.33 Z " />
<path stroke="transparent" fill="#000000" transform="matrix(0.0833333 0 0 0.0833333 -149.25 -138)" d="M 7020.35,4405.33 L 7000.35,4405.33 L 7000.35,3889.72 L 7020.35,3889.72 L 7020.35,4405.33 Z " />
<path stroke="transparent" fill="#000000" transform="matrix(0.0833333 0 0 0.0833333 -149.25 -138)" d="M 7461.36,3659.35 L 7471.36,3676.67 L 6997.51,3950.24 L 7097.59,3869.37 L 7461.36,3659.35 Z " />
<path stroke="transparent" fill="#000000" transform="matrix(0.0833333 0 0 0.0833333 -149.25 -138)" d="M 6671.96,4225.07 L 6611.96,4328.99 L 6595.78,4317.02 L 6653.5,4217.04 L 6671.96,4225.07 Z " />
<path stroke="transparent" fill="#000000" transform="matrix(0.0833333 0 0 0.0833333 -149.25 -138)" d="M 6616.71,4201.04 L 6563.52,4293.15 L 6547.34,4281.18 L 6598.25,4193.01 L 6616.71,4201.04 Z " />
<path stroke="transparent" fill="#000000" transform="matrix(0.0833333 0 0 0.0833333 -149.25 -138)" d="M 6561.45,4177.01 L 6515.09,4257.32 L 6498.91,4245.34 L 6542.99,4168.98 L 6561.45,4177.01 Z " />
<path stroke="transparent" fill="#000000" transform="matrix(0.0833333 0 0 0.0833333 -149.25 -138)" d="M 6506.2,4152.98 L 6466.65,4221.48 L 6450.47,4209.51 L 6487.74,4144.95 L 6506.2,4152.98 Z " />
<path stroke="transparent" fill="#000000" transform="matrix(0.0833333 0 0 0.0833333 -149.25 -138)" d="M 6450.95,4128.95 L 6418.22,4185.64 L 6402.04,4173.67 L 6432.49,4120.93 L 6450.95,4128.95 Z " />
<path stroke="transparent" fill="#000000" transform="matrix(0.0833333 0 0 0.0833333 -149.25 -138)" d="M 6395.7,4104.93 L 6369.78,4149.81 L 6353.6,4137.84 L 6377.24,4096.9 L 6395.7,4104.93 Z " />
<path stroke="transparent" fill="#000000" transform="matrix(0.0833333 0 0 0.0833333 -149.25 -138)" d="M 6340.44,4080.9 L 6321.35,4113.97 L 6305.17,4102 L 6321.98,4072.87 L 6340.44,4080.9 Z " />
<path stroke="transparent" fill="#000000" transform="matrix(0.0833333 0 0 0.0833333 -149.25 -138)" d="M 6285.19,4056.87 L 6272.91,4078.14 L 6256.73,4066.16 L 6266.73,4048.84 L 6285.19,4056.87 Z " />
<path stroke="transparent" fill="#000000" transform="matrix(0.0833333 0 0 0.0833333 -149.25 -138)" d="M 5235.73,4630.5 L 5115.73,4630.5 L 5117.56,4610.5 L 5233.9,4610.5 L 5235.73,4630.5 Z " />
<path stroke="transparent" fill="#000000" transform="matrix(0.0833333 0 0 0.0833333 -149.25 -138)" d="M 5230.38,4572.06 L 5121.08,4572.06 L 5122.91,4552.06 L 5228.55,4552.06 L 5230.38,4572.06 Z " />
<path stroke="transparent" fill="#000000" transform="matrix(0.0833333 0 0 0.0833333 -149.25 -138)" d="M 5225.03,4513.61 L 5126.43,4513.61 L 5128.27,4493.61 L 5223.2,4493.61 L 5225.03,4513.61 Z " />
<path stroke="transparent" fill="#000000" transform="matrix(0.0833333 0 0 0.0833333 -149.25 -138)" d="M 5219.67,4455.17 L 5131.79,4455.17 L 5133.62,4435.17 L 5217.84,4435.17 L 5219.67,4455.17 Z " />
<path stroke="transparent" fill="#000000" transform="matrix(0.0833333 0 0 0.0833333 -149.25 -138)" d="M 5214.32,4396.72 L 5137.14,4396.72 L 5138.97,4376.72 L 5212.49,4376.72 L 5214.32,4396.72 Z " />
<path stroke="transparent" fill="#000000" transform="matrix(0.0833333 0 0 0.0833333 -149.25 -138)" d="M 5208.97,4338.28 L 5142.49,4338.28 L 5144.32,4318.28 L 5207.14,4318.28 L 5208.97,4338.28 Z " />
<path stroke="transparent" fill="#000000" transform="matrix(0.0833333 0 0 0.0833333 -149.25 -138)" d="M 5203.62,4279.83 L 5147.84,4279.83 L 5149.67,4259.83 L 5201.79,4259.83 L 5203.62,4279.83 Z " />
<path stroke="transparent" fill="#000000" transform="matrix(0.0833333 0 0 0.0833333 -149.25 -138)" d="M 5198.27,4221.39 L 5153.2,4221.39 L 5155.03,4201.39 L 5196.43,4201.39 L 5198.27,4221.39 Z " />
<path stroke="transparent" fill="#000000" transform="matrix(0.0833333 0 0 0.0833333 -149.25 -138)" d="M 5192.91,4162.94 L 5158.55,4162.94 L 5160.38,4142.94 L 5191.08,4142.94 L 5192.91,4162.94 Z " />
<path stroke="transparent" fill="#000000" transform="matrix(0.0833333 0 0 0.0833333 -149.25 -138)" d="M 5187.56,4104.5 L 5163.9,4104.5 L 5165.73,4084.5 L 5185.73,4084.5 L 5187.56,4104.5 Z " />
<path stroke="transparent" fill="#000000" transform="matrix(0.0833333 0 0 0.0833333 -149.25 -138)" d="M 3097.27,4042.05 L 3097.27,4018.95 L 3605.37,4312.3 L 3616.88,4330.5 L 3606.88,4336.27 L 3097.27,4042.05 Z " />
<path stroke="transparent" fill="#000000" transform="matrix(0.0833333 0 0 0.0833333 -149.25 -138)" d="M 2587.65,4336.27 L 2577.65,4330.5 L 2578.22,4318.63 L 3097.27,4018.95 L 3097.27,4042.05 L 2587.65,4336.27 Z " />
<path stroke="transparent" fill="#000000" transform="matrix(0.0833333 0 0 0.0833333 -149.25 -138)" d="M 2587.65,4924.73 L 2577.65,4930.5 L 2567.65,4924.09 L 2567.65,4336.92 L 2577.65,4330.5 L 2587.65,4336.27 L 2587.65,4924.73 Z " />
<path stroke="transparent" fill="#000000" transform="matrix(0.0833333 0 0 0.0833333 -149.25 -138)" d="M 3097.27,5218.95 L 3097.27,5230.5 L 3083.61,5234.16 L 2578.21,4942.37 L 2577.65,4930.5 L 2587.65,4924.73 L 3097.27,5218.95 Z " />
<path stroke="transparent" fill="#000000" transform="matrix(0.0833333 0 0 0.0833333 -149.25 -138)" d="M 3110.93,5234.16 L 3097.27,5230.5 L 3097.27,5218.95 L 3606.88,4924.73 L 3616.88,4930.5 L 3616.43,4942.31 L 3110.93,5234.16 Z " />
<path stroke="transparent" fill="#000000" transform="matrix(0.0833333 0 0 0.0833333 -149.25 -138)" d="M 3403.04,5740.12 L 3391.5,5760.12 L 3097.27,5250.5 L 3097.27,5230.5 L 3110.93,5234.16 L 3403.04,5740.12 Z " />
<path stroke="transparent" fill="#000000" transform="matrix(0.0833333 0 0 0.0833333 -149.25 -138)" d="M 3889.27,5740.12 L 3889.27,5760.12 L 3391.5,5760.12 L 3403.04,5740.12 L 3889.27,5740.12 Z " />
<path stroke="transparent" fill="#000000" transform="matrix(0.0833333 0 0 0.0833333 -149.25 -138)" d="M 2803.04,5760.12 L 2791.5,5740.12 L 3083.61,5234.16 L 3097.27,5230.5 L 3097.27,5250.5 L 2803.04,5760.12 Z " />
<path stroke="transparent" fill="#000000" transform="matrix(0.0833333 0 0 0.0833333 -149.25 -138)" d="M 2305.84,5760.12 L 2305.84,5740.12 L 2791.5,5740.12 L 2803.04,5760.12 L 2305.84,5760.12 Z " />
<path stroke="transparent" fill="#000000" transform="matrix(0.0833333 0 0 0.0833333 -149.25 -138)" d="M 2180.65,5228.99 L 2120.65,5125.07 L 2567.65,4924.09 L 2577.65,4930.5 L 2578.21,4942.37 L 2180.65,5228.99 Z " />
<path stroke="transparent" fill="#000000" transform="matrix(0.0833333 0 0 0.0833333 -149.25 -138)" d="M 2128.07,4140.21 L 2188.07,4036.29 L 2578.22,4318.63 L 2577.65,4330.5 L 2567.65,4336.92 L 2128.07,4140.21 Z " />
<path stroke="transparent" fill="#000000" transform="matrix(0.0833333 0 0 0.0833333 -149.25 -138)" d="M 3556.88,3730.5 L 3676.88,3730.5 L 3628.4,4312.3 L 3616.88,4330.5 L 3605.37,4312.3 L 3556.88,3730.5 Z " />
</svg>
