<?xml version="1.0" standalone="no" ?>
<!DOCTYPE svg PUBLIC "-//W3C//DTD SVG 1.1//EN" "http://www.w3.org/Graphics/SVG/1.1/DTD/svg11.dtd">
<svg width="417px" height="77px" viewBox="0 0 417 77" style="background-color: #ffffff00" xmlns="http://www.w3.org/2000/svg" xmlns:xlink="http://www.w3.org/1999/xlink" version="1.1" >
<text x="0" y="0" stroke="transparent" fill="#000000" transform="matrix(0.0666667 0 0 0.0666667 359.616 14.0725)" style="font:normal normal normal 200px 'Arial'" >
O</text>
<text x="0" y="0" stroke="transparent" fill="#000000" transform="matrix(0.0666667 0 0 0.0666667 394.255 74.0719)" style="font:normal normal normal 200px 'Arial'" >
OH</text>
<text x="0" y="0" stroke="transparent" fill="#000000" transform="matrix(0.0666667 0 0 0.0666667 3.60898 54.0689)" style="font:normal normal normal 200px 'Arial'" >
HO</text>
<path stroke="transparent" fill="#000000" transform="matrix(0.0666667 0 0 0.0666667 -139.853 -355)" d="M 7050.45,6369.63 L 7050.45,6346.53 L 7570.04,6046.49 L 7570.04,6069.58 L 7050.45,6369.63 Z " />
<path stroke="transparent" fill="#000000" transform="matrix(0.0666667 0 0 0.0666667 -139.853 -355)" d="M 6530.94,6069.58 L 6530.94,6046.49 L 7050.45,6346.53 L 7050.45,6369.63 L 6530.94,6069.58 Z " />
<path stroke="transparent" fill="#000000" transform="matrix(0.0666667 0 0 0.0666667 -139.853 -355)" d="M 6011.35,6369.63 L 6011.35,6346.53 L 6530.94,6046.49 L 6530.94,6069.58 L 6011.35,6369.63 Z " />
<path stroke="transparent" fill="#000000" transform="matrix(0.0666667 0 0 0.0666667 -139.853 -355)" d="M 5491.76,6069.58 L 5491.76,6046.49 L 6011.35,6346.53 L 6011.35,6369.63 L 5491.76,6069.58 Z " />
<path stroke="transparent" fill="#000000" transform="matrix(0.0666667 0 0 0.0666667 -139.853 -355)" d="M 4972.24,6369.63 L 4972.24,6346.53 L 5491.76,6046.49 L 5491.76,6069.58 L 4972.24,6369.63 Z " />
<path stroke="transparent" fill="#000000" transform="matrix(0.0666667 0 0 0.0666667 -139.853 -355)" d="M 4452.65,6069.58 L 4452.65,6046.49 L 4972.24,6346.53 L 4972.24,6369.63 L 4452.65,6069.58 Z " />
<path stroke="transparent" fill="#000000" transform="matrix(0.0666667 0 0 0.0666667 -139.853 -355)" d="M 3933.06,6369.63 L 3933.06,6346.53 L 4452.65,6046.49 L 4452.65,6069.58 L 3933.06,6369.63 Z " />
<path stroke="transparent" fill="#000000" transform="matrix(0.0666667 0 0 0.0666667 -139.853 -355)" d="M 3413.55,6069.58 L 3413.55,6046.49 L 3933.06,6346.53 L 3933.06,6369.63 L 3413.55,6069.58 Z " />
<path stroke="transparent" fill="#000000" transform="matrix(0.0666667 0 0 0.0666667 -139.853 -355)" d="M 2893.96,6369.63 L 2893.96,6346.53 L 3413.55,6046.49 L 3413.55,6069.58 L 2893.96,6369.63 Z " />
<path stroke="transparent" fill="#000000" transform="matrix(0.0666667 0 0 0.0666667 -139.853 -355)" d="M 7524.05,5577.92 L 7544.05,5577.92 L 7544.05,6078.82 L 7524.05,6078.82 L 7524.05,5577.92 Z " />
<path stroke="transparent" fill="#000000" transform="matrix(0.0666667 0 0 0.0666667 -139.853 -355)" d="M 7596.04,5577.92 L 7616.04,5577.92 L 7616.04,6078.82 L 7596.04,6078.82 L 7596.04,5577.92 Z " />
<path stroke="transparent" fill="#000000" transform="matrix(0.0666667 0 0 0.0666667 -139.853 -355)" d="M 8002.02,6295.94 L 7992.02,6313.26 L 7570.04,6069.58 L 7570.04,6046.49 L 8002.02,6295.94 Z " />
<path stroke="transparent" fill="#000000" transform="matrix(0.0666667 0 0 0.0666667 -139.853 -355)" d="M 2469.39,6124.45 L 2479.39,6107.13 L 2893.96,6346.53 L 2893.96,6369.63 L 2469.39,6124.45 Z " />
</svg>
