<?xml version="1.0" standalone="no" ?>
<!DOCTYPE svg PUBLIC "-//W3C//DTD SVG 1.1//EN" "http://www.w3.org/Graphics/SVG/1.1/DTD/svg11.dtd">
<svg width="319px" height="207px" viewBox="0 0 319 207" style="background-color: #ffffff00" xmlns="http://www.w3.org/2000/svg" xmlns:xlink="http://www.w3.org/1999/xlink" version="1.1" >
<text x="0" y="0" stroke="transparent" fill="#000000" transform="matrix(0.0666667 0 0 0.0666667 171.875 68.7974)" style="font:normal normal normal 200px 'Arial'" >
O</text>
<text x="0" y="0" stroke="transparent" fill="#000000" transform="matrix(0.0666667 0 0 0.0666667 171.875 188.794)" style="font:normal normal normal 200px 'Arial'" >
O</text>
<text x="0" y="0" stroke="transparent" fill="#000000" transform="matrix(0.0666667 0 0 0.0666667 33.3147 68.7974)" style="font:normal normal normal 200px 'Arial'" >
O</text>
<text x="0" y="0" stroke="transparent" fill="#000000" transform="matrix(0.0666667 0 0 0.0666667 33.3147 148.795)" style="font:normal normal normal 200px 'Arial'" >
O</text>
<text x="0" y="0" stroke="transparent" fill="#000000" transform="matrix(0.0666667 0 0 0.0666667 102.597 188.794)" style="font:normal normal normal 200px 'Arial'" >
O</text>
<path stroke="transparent" fill="#000000" transform="matrix(0.0666667 0 0 0.0666667 -188.959 -306)" d="M 4980.89,6438.16 L 4970.89,6443.93 L 4960.89,6438.16 L 4960.89,5849.73 L 4970.89,5843.95 L 4980.89,5849.73 L 4980.89,6438.16 Z " />
<path stroke="transparent" fill="#000000" transform="matrix(0.0666667 0 0 0.0666667 -188.959 -306)" d="M 5385.91,5592.81 L 5395.91,5610.13 L 4980.89,5849.73 L 4970.89,5843.95 L 4970.89,5832.41 L 5385.91,5592.81 Z " />
<path stroke="transparent" fill="#000000" transform="matrix(0.0666667 0 0 0.0666667 -188.959 -306)" d="M 4451.34,5555.51 L 4451.34,5532.41 L 4970.89,5832.41 L 4970.89,5843.95 L 4960.89,5849.73 L 4451.34,5555.51 Z " />
<path stroke="transparent" fill="#000000" transform="matrix(0.0666667 0 0 0.0666667 -188.959 -306)" d="M 4446.34,5635.75 L 4456.34,5618.43 L 4903.9,5876.85 L 4893.9,5894.18 L 4446.34,5635.75 Z " />
<path stroke="transparent" fill="#000000" transform="matrix(0.0666667 0 0 0.0666667 -188.959 -306)" d="M 4461.34,6749.7 L 4451.34,6743.93 L 4451.34,6732.38 L 4960.89,6438.16 L 4970.89,6443.93 L 4970.89,6455.48 L 4461.34,6749.7 Z " />
<path stroke="transparent" fill="#000000" transform="matrix(0.0666667 0 0 0.0666667 -188.959 -306)" d="M 4456.34,6669.46 L 4446.34,6652.13 L 4893.9,6393.71 L 4903.9,6411.03 L 4456.34,6669.46 Z " />
<path stroke="transparent" fill="#000000" transform="matrix(0.0666667 0 0 0.0666667 -188.959 -306)" d="M 5490.51,6732.38 L 5490.51,6755.47 L 4970.89,6455.48 L 4970.89,6443.93 L 4980.89,6438.16 L 5490.51,6732.38 Z " />
<path stroke="transparent" fill="#000000" transform="matrix(0.0666667 0 0 0.0666667 -188.959 -306)" d="M 6010.13,5832.41 L 6010.13,5843.95 L 6000.13,5849.73 L 5585.55,5610.38 L 5595.55,5593.06 L 6010.13,5832.41 Z " />
<path stroke="transparent" fill="#000000" transform="matrix(0.0666667 0 0 0.0666667 -188.959 -306)" d="M 3941.72,5849.73 L 3931.72,5843.95 L 3931.72,5832.41 L 4451.34,5532.41 L 4451.34,5555.51 L 3941.72,5849.73 Z " />
<path stroke="transparent" fill="#000000" transform="matrix(0.0666667 0 0 0.0666667 -188.959 -306)" d="M 3931.72,6455.48 L 3931.72,6443.93 L 3941.72,6438.16 L 4451.34,6732.38 L 4451.34,6743.93 L 4441.34,6749.7 L 3931.72,6455.48 Z " />
<path stroke="transparent" fill="#000000" transform="matrix(0.0666667 0 0 0.0666667 -188.959 -306)" d="M 4461.34,7238.74 L 4441.34,7238.74 L 4441.34,6749.7 L 4451.34,6743.93 L 4461.34,6749.7 L 4461.34,7238.74 Z " />
<path stroke="transparent" fill="#000000" transform="matrix(0.0666667 0 0 0.0666667 -188.959 -306)" d="M 6000.13,6438.16 L 6020.13,6449.71 L 5490.51,6755.47 L 5490.51,6732.38 L 6000.13,6438.16 Z " />
<path stroke="transparent" fill="#000000" transform="matrix(0.0666667 0 0 0.0666667 -188.959 -306)" d="M 5536.51,7238.74 L 5516.51,7238.74 L 5516.51,6723.14 L 5536.51,6723.14 L 5536.51,7238.74 Z " />
<path stroke="transparent" fill="#000000" transform="matrix(0.0666667 0 0 0.0666667 -188.959 -306)" d="M 5464.51,7238.74 L 5444.51,7238.74 L 5444.51,6723.14 L 5464.51,6723.14 L 5464.51,7238.74 Z " />
<path stroke="transparent" fill="#000000" transform="matrix(0.0666667 0 0 0.0666667 -188.959 -306)" d="M 6519.68,5538.19 L 6529.68,5543.96 L 6529.68,5555.51 L 6020.13,5849.73 L 6010.13,5843.95 L 6010.13,5832.41 L 6519.68,5538.19 Z " />
<path stroke="transparent" fill="#000000" transform="matrix(0.0666667 0 0 0.0666667 -188.959 -306)" d="M 3507.14,5610.38 L 3517.14,5593.06 L 3931.72,5832.41 L 3931.72,5843.95 L 3921.72,5849.73 L 3507.14,5610.38 Z " />
<path stroke="transparent" fill="#000000" transform="matrix(0.0666667 0 0 0.0666667 -188.959 -306)" d="M 3509.72,6699.11 L 3499.72,6681.79 L 3921.72,6438.16 L 3931.72,6443.93 L 3931.72,6455.48 L 3509.72,6699.11 Z " />
<path stroke="transparent" fill="#000000" transform="matrix(0.0666667 0 0 0.0666667 -188.959 -306)" d="M 6519.68,4938.21 L 6539.68,4949.75 L 6539.68,5538.19 L 6529.68,5543.96 L 6519.68,5538.19 L 6519.68,4938.21 Z " />
<path stroke="transparent" fill="#000000" transform="matrix(0.0666667 0 0 0.0666667 -188.959 -306)" d="M 6591.68,4985.55 L 6611.68,4985.55 L 6611.68,5502.39 L 6591.68,5502.39 L 6591.68,4985.55 Z " />
<path stroke="transparent" fill="#000000" transform="matrix(0.0666667 0 0 0.0666667 -188.959 -306)" d="M 7049.3,5832.41 L 7049.3,5855.5 L 6529.68,5555.51 L 6529.68,5543.96 L 6539.68,5538.19 L 7049.3,5832.41 Z " />
<path stroke="transparent" fill="#000000" transform="matrix(0.0666667 0 0 0.0666667 -188.959 -306)" d="M 3402.1,4943.98 L 3422.1,4943.98 L 3422.1,5438.79 L 3402.1,5438.79 L 3402.1,4943.98 Z " />
<path stroke="transparent" fill="#000000" transform="matrix(0.0666667 0 0 0.0666667 -188.959 -306)" d="M 7049.3,4632.44 L 7049.3,4655.54 L 6539.68,4949.75 L 6519.68,4938.21 L 7049.3,4632.44 Z " />
<path stroke="transparent" fill="#000000" transform="matrix(0.0666667 0 0 0.0666667 -188.959 -306)" d="M 7558.92,5538.19 L 7578.92,5549.73 L 7049.3,5855.5 L 7049.3,5832.41 L 7558.92,5538.19 Z " />
<path stroke="transparent" fill="#000000" transform="matrix(0.0666667 0 0 0.0666667 -188.959 -306)" d="M 7491.92,5493.73 L 7501.92,5511.05 L 7054.3,5769.47 L 7044.3,5752.15 L 7491.92,5493.73 Z " />
<path stroke="transparent" fill="#000000" transform="matrix(0.0666667 0 0 0.0666667 -188.959 -306)" d="M 7578.92,4938.21 L 7558.92,4949.75 L 7049.3,4655.54 L 7049.3,4632.44 L 7578.92,4938.21 Z " />
<path stroke="transparent" fill="#000000" transform="matrix(0.0666667 0 0 0.0666667 -188.959 -306)" d="M 7501.92,4976.89 L 7491.92,4994.21 L 7044.3,4735.79 L 7054.3,4718.47 L 7501.92,4976.89 Z " />
<path stroke="transparent" fill="#000000" transform="matrix(0.0666667 0 0 0.0666667 -188.959 -306)" d="M 6020.13,6449.71 L 6000.13,6438.16 L 6000.13,5849.73 L 6010.13,5843.95 L 6020.13,5849.73 L 6020.13,6449.71 Z " />
<path stroke="transparent" fill="#000000" transform="matrix(0.0666667 0 0 0.0666667 -188.959 -306)" d="M 5948.13,6402.37 L 5928.13,6402.37 L 5928.13,5885.52 L 5948.13,5885.52 L 5948.13,6402.37 Z " />
<path stroke="transparent" fill="#000000" transform="matrix(0.0666667 0 0 0.0666667 -188.959 -306)" d="M 3941.72,6438.16 L 3931.72,6443.93 L 3921.72,6438.16 L 3921.72,5849.73 L 3931.72,5843.95 L 3941.72,5849.73 L 3941.72,6438.16 Z " />
<path stroke="transparent" fill="#000000" transform="matrix(0.0666667 0 0 0.0666667 -188.959 -306)" d="M 4013.72,6402.37 L 3993.72,6402.37 L 3993.72,5885.52 L 4013.72,5885.52 L 4013.72,6402.37 Z " />
<path stroke="transparent" fill="#000000" transform="matrix(0.0666667 0 0 0.0666667 -188.959 -306)" d="M 7558.92,4949.75 L 7578.92,4938.21 L 7578.92,5549.73 L 7558.92,5538.19 L 7558.92,4949.75 Z " />
<path stroke="transparent" fill="#000000" transform="matrix(0.0666667 0 0 0.0666667 -188.959 -306)" d="M 2887.48,6452.59 L 2897.48,6435.27 L 3324.48,6681.79 L 3314.48,6699.11 L 2887.48,6452.59 Z " />
<path stroke="transparent" fill="#000000" transform="matrix(0.0666667 0 0 0.0666667 -188.959 -306)" d="M 3936.72,7652.56 L 3926.72,7635.24 L 4346.74,7392.75 L 4356.74,7410.07 L 3936.72,7652.56 Z " />
</svg>
