<?xml version="1.0" standalone="no" ?>
<!DOCTYPE svg PUBLIC "-//W3C//DTD SVG 1.1//EN" "http://www.w3.org/Graphics/SVG/1.1/DTD/svg11.dtd">
<svg width="160px" height="133px" viewBox="0 0 160 133" style="background-color: #ffffff00" xmlns="http://www.w3.org/2000/svg" xmlns:xlink="http://www.w3.org/1999/xlink" version="1.1" >
<text x="0" y="0" stroke="transparent" fill="#000000" transform="matrix(0.0666667 0 0 0.0666667 32.4205 14.0941)" style="font:normal normal normal 200px 'Arial'" >
OH</text>
<text x="0" y="0" stroke="transparent" fill="#000000" transform="matrix(0.0666667 0 0 0.0666667 137.256 114.508)" style="font:normal normal normal 200px 'Arial'" >
OH</text>
<path stroke="transparent" fill="#000000" transform="matrix(0.0666667 0 0 0.0666667 -268.787 -327)" d="M 5648.98,6833.09 L 5649.06,6856.14 L 5122.93,6556.96 L 5122.86,6545.42 L 5132.89,6539.62 L 5648.98,6833.09 Z " />
<path stroke="transparent" fill="#000000" transform="matrix(0.0666667 0 0 0.0666667 -268.787 -327)" d="M 5132.89,6539.62 L 5122.86,6545.42 L 5112.89,6539.67 L 5116.53,5951.38 L 5136.6,5939.79 L 5132.89,6539.62 Z " />
<path stroke="transparent" fill="#000000" transform="matrix(0.0666667 0 0 0.0666667 -268.787 -327)" d="M 5061.13,6504.06 L 5041.13,6503.94 L 5044.32,5987.24 L 5064.32,5987.37 L 5061.13,6504.06 Z " />
<path stroke="transparent" fill="#000000" transform="matrix(0.0666667 0 0 0.0666667 -268.787 -327)" d="M 5112.89,6539.67 L 5122.86,6545.42 L 5122.93,6556.96 L 4609.13,6857.75 L 4608.98,6834.67 L 5112.89,6539.67 Z " />
<path stroke="transparent" fill="#000000" transform="matrix(0.0666667 0 0 0.0666667 -268.787 -327)" d="M 5136.6,5939.79 L 5116.53,5951.38 L 4600.47,5657.87 L 4600.4,5646.32 L 4610.36,5640.48 L 5136.6,5939.79 Z " />
<path stroke="transparent" fill="#000000" transform="matrix(0.0666667 0 0 0.0666667 -268.787 -327)" d="M 4608.98,6834.67 L 4609.13,6857.75 L 4072.93,6552.96 L 4093,6541.37 L 4608.98,6834.67 Z " />
<path stroke="transparent" fill="#000000" transform="matrix(0.0666667 0 0 0.0666667 -268.787 -327)" d="M 4613.46,6753.68 L 4603.58,6771.07 L 4150.89,6513.75 L 4160.78,6496.37 L 4613.46,6753.68 Z " />
<path stroke="transparent" fill="#000000" transform="matrix(0.0666667 0 0 0.0666667 -268.787 -327)" d="M 4590.36,5640.61 L 4600.4,5646.32 L 4600.47,5657.87 L 4096.56,5952.94 L 4076.63,5941.43 L 4590.36,5640.61 Z " />
<path stroke="transparent" fill="#000000" transform="matrix(0.0666667 0 0 0.0666667 -268.787 -327)" d="M 4595.87,5720.18 L 4605.97,5737.44 L 4162.85,5996.92 L 4152.74,5979.66 L 4595.87,5720.18 Z " />
<path stroke="transparent" fill="#000000" transform="matrix(0.0666667 0 0 0.0666667 -268.787 -327)" d="M 4610.36,5640.48 L 4600.4,5646.32 L 4590.36,5640.61 L 4586.95,5158.31 L 4606.95,5158.17 L 4610.36,5640.48 Z " />
<path stroke="transparent" fill="#000000" transform="matrix(0.0666667 0 0 0.0666667 -268.787 -327)" d="M 4093,6541.37 L 4072.93,6552.96 L 4076.63,5941.43 L 4096.56,5952.94 L 4093,6541.37 Z " />
<path stroke="transparent" fill="#000000" transform="matrix(0.0666667 0 0 0.0666667 -268.787 -327)" d="M 6064.04,6593.46 L 6074.04,6610.78 L 5649.06,6856.14 L 5648.98,6833.09 L 6064.04,6593.46 Z " />
</svg>
