<?xml version="1.0" standalone="no" ?>
<!DOCTYPE svg PUBLIC "-//W3C//DTD SVG 1.1//EN" "http://www.w3.org/Graphics/SVG/1.1/DTD/svg11.dtd">
<svg width="491px" height="258px" viewBox="0 0 491 258" style="background-color: #ffffff00" xmlns="http://www.w3.org/2000/svg" xmlns:xlink="http://www.w3.org/1999/xlink" version="1.1" >
<text x="0" y="0" stroke="transparent" fill="#000000" transform="matrix(0.0833333 0 0 0.0833333 47.4043 104.127)" style="font:normal normal normal 200px 'Arial'" >
O</text>
<text x="0" y="0" stroke="transparent" fill="#000000" transform="matrix(0.0833333 0 0 0.0833333 220.608 104.125)" style="font:normal normal normal 200px 'Arial'" >
O</text>
<text x="0" y="0" stroke="transparent" fill="#000000" transform="matrix(0.0833333 0 0 0.0833333 220.608 254.124)" style="font:normal normal normal 200px 'Arial'" >
O</text>
<text x="0" y="0" stroke="transparent" fill="#000000" transform="matrix(0.0833333 0 0 0.0833333 437.115 29.1263)" style="font:normal normal normal 200px 'Arial'" >
O</text>
<text x="0" y="0" stroke="transparent" fill="#000000" transform="matrix(0.0833333 0 0 0.0833333 134.004 254.123)" style="font:normal normal normal 200px 'Arial'" >
OH</text>
<text x="0" y="0" stroke="transparent" fill="#000000" transform="matrix(0.0833333 0 0 0.0833333 307.21 204.124)" style="font:normal normal normal 200px 'Arial'" >
OH</text>
<path stroke="transparent" fill="#000000" transform="matrix(0.0833333 0 0 0.0833333 -181.25 -315)" d="M 3851.06,4945.7 L 3861.06,4951.48 L 3861.06,4963.03 L 3351.44,5257.25 L 3341.44,5251.48 L 3341.44,5239.93 L 3851.06,4945.7 Z " />
<path stroke="transparent" fill="#000000" transform="matrix(0.0833333 0 0 0.0833333 -181.25 -315)" d="M 3851.08,4357.3 L 3871.08,4345.75 L 3871.06,4945.71 L 3861.06,4951.48 L 3851.06,4945.7 L 3851.08,4357.3 Z " />
<path stroke="transparent" fill="#000000" transform="matrix(0.0833333 0 0 0.0833333 -181.25 -315)" d="M 3341.46,4063.05 L 3341.46,4039.96 L 3871.08,4345.75 L 3851.08,4357.3 L 3341.46,4063.05 Z " />
<path stroke="transparent" fill="#000000" transform="matrix(0.0833333 0 0 0.0833333 -181.25 -315)" d="M 2831.84,4357.28 L 2821.84,4351.5 L 2825.5,4337.84 L 3341.46,4039.96 L 3341.46,4063.05 L 2831.84,4357.28 Z " />
<path stroke="transparent" fill="#000000" transform="matrix(0.0833333 0 0 0.0833333 -181.25 -315)" d="M 2831.85,4846.36 L 2811.85,4846.36 L 2811.84,4361.51 L 2821.84,4351.5 L 2831.84,4357.28 L 2831.85,4846.36 Z " />
<path stroke="transparent" fill="#000000" transform="matrix(0.0833333 0 0 0.0833333 -181.25 -315)" d="M 2916.89,5017.94 L 2926.89,5000.61 L 3341.44,5239.93 L 3341.44,5251.48 L 3331.44,5257.25 L 2916.89,5017.94 Z " />
<path stroke="transparent" fill="#000000" transform="matrix(0.0833333 0 0 0.0833333 -181.25 -315)" d="M 4390.69,5845.74 L 4380.69,5851.51 L 4370.69,5845.74 L 4370.68,5257.27 L 4380.68,5251.5 L 4390.68,5257.27 L 4390.69,5845.74 Z " />
<path stroke="transparent" fill="#000000" transform="matrix(0.0833333 0 0 0.0833333 -181.25 -315)" d="M 4900.28,6139.92 L 4900.28,6163.02 L 4380.69,5863.06 L 4380.69,5851.51 L 4390.69,5845.74 L 4900.28,6139.92 Z " />
<path stroke="transparent" fill="#000000" transform="matrix(0.0833333 0 0 0.0833333 -181.25 -315)" d="M 5409.9,5845.7 L 5419.9,5851.47 L 5419.9,5863.02 L 4900.28,6163.02 L 4900.28,6139.92 L 5409.9,5845.7 Z " />
<path stroke="transparent" fill="#000000" transform="matrix(0.0833333 0 0 0.0833333 -181.25 -315)" d="M 5409.92,5257.29 L 5419.92,5251.52 L 5429.92,5257.29 L 5429.9,5845.7 L 5419.9,5851.47 L 5409.9,5845.7 L 5409.92,5257.29 Z " />
<path stroke="transparent" fill="#000000" transform="matrix(0.0833333 0 0 0.0833333 -181.25 -315)" d="M 5337.93,5293.08 L 5357.93,5293.08 L 5357.9,5809.9 L 5337.9,5809.9 L 5337.93,5293.08 Z " />
<path stroke="transparent" fill="#000000" transform="matrix(0.0833333 0 0 0.0833333 -181.25 -315)" d="M 4995.33,5017.91 L 5005.33,5000.59 L 5419.92,5239.97 L 5419.92,5251.52 L 5409.92,5257.29 L 4995.33,5017.91 Z " />
<path stroke="transparent" fill="#000000" transform="matrix(0.0833333 0 0 0.0833333 -181.25 -315)" d="M 4795.69,5000.34 L 4805.69,5017.66 L 4390.68,5257.27 L 4380.68,5251.5 L 4380.68,5239.95 L 4795.69,5000.34 Z " />
<path stroke="transparent" fill="#000000" transform="matrix(0.0833333 0 0 0.0833333 -181.25 -315)" d="M 3331.45,5857.27 L 3351.45,5845.72 L 3861.08,6139.97 L 3861.08,6151.51 L 3851.08,6157.29 L 3331.45,5857.27 Z " />
<path stroke="transparent" fill="#000000" transform="matrix(0.0833333 0 0 0.0833333 -181.25 -315)" d="M 3331.44,5257.25 L 3341.44,5251.48 L 3351.44,5257.25 L 3351.45,5845.72 L 3331.45,5857.27 L 3331.44,5257.25 Z " />
<path stroke="transparent" fill="#000000" transform="matrix(0.0833333 0 0 0.0833333 -181.25 -315)" d="M 3403.44,5293.05 L 3423.44,5293.05 L 3423.45,5809.93 L 3403.45,5809.93 L 3403.44,5293.05 Z " />
<path stroke="transparent" fill="#000000" transform="matrix(0.0833333 0 0 0.0833333 -181.25 -315)" d="M 4380.68,5239.95 L 4380.68,5251.5 L 4370.68,5257.27 L 3861.06,4963.03 L 3861.06,4951.48 L 3871.06,4945.71 L 4380.68,5239.95 Z " />
<path stroke="transparent" fill="#000000" transform="matrix(0.0833333 0 0 0.0833333 -181.25 -315)" d="M 4313.68,5284.41 L 4303.68,5301.73 L 3856.06,5043.28 L 3866.06,5025.96 L 4313.68,5284.41 Z " />
<path stroke="transparent" fill="#000000" transform="matrix(0.0833333 0 0 0.0833333 -181.25 -315)" d="M 4370.69,5845.74 L 4380.69,5851.51 L 4380.69,5863.06 L 3871.08,6157.29 L 3861.08,6151.51 L 3861.08,6139.97 L 4370.69,5845.74 Z " />
<path stroke="transparent" fill="#000000" transform="matrix(0.0833333 0 0 0.0833333 -181.25 -315)" d="M 4303.69,5801.29 L 4313.69,5818.61 L 3866.08,6077.04 L 3856.08,6059.72 L 4303.69,5801.29 Z " />
<path stroke="transparent" fill="#000000" transform="matrix(0.0833333 0 0 0.0833333 -181.25 -315)" d="M 4946.29,6646.32 L 4926.29,6646.32 L 4926.28,6130.69 L 4946.28,6130.69 L 4946.29,6646.32 Z " />
<path stroke="transparent" fill="#000000" transform="matrix(0.0833333 0 0 0.0833333 -181.25 -315)" d="M 4874.29,6646.32 L 4854.29,6646.32 L 4854.28,6130.69 L 4874.28,6130.69 L 4874.29,6646.32 Z " />
<path stroke="transparent" fill="#000000" transform="matrix(0.0833333 0 0 0.0833333 -181.25 -315)" d="M 2221.82,4361.52 L 2221.82,4341.52 L 2804.52,4341.51 L 2821.84,4351.5 L 2811.84,4361.51 L 2221.82,4361.52 Z " />
<path stroke="transparent" fill="#000000" transform="matrix(0.0833333 0 0 0.0833333 -181.25 -315)" d="M 2513.18,3836.89 L 2530.5,3826.89 L 2825.5,4337.84 L 2821.84,4351.5 L 2804.52,4341.51 L 2513.18,3836.89 Z " />
<path stroke="transparent" fill="#000000" transform="matrix(0.0833333 0 0 0.0833333 -181.25 -315)" d="M 5929.53,4345.72 L 5949.53,4357.27 L 5949.54,4945.74 L 5939.54,4951.52 L 5929.54,4945.74 L 5929.53,4345.72 Z " />
<path stroke="transparent" fill="#000000" transform="matrix(0.0833333 0 0 0.0833333 -181.25 -315)" d="M 6459.14,4039.95 L 6459.14,4063.04 L 5949.53,4357.27 L 5929.53,4345.72 L 6459.14,4039.95 Z " />
<path stroke="transparent" fill="#000000" transform="matrix(0.0833333 0 0 0.0833333 -181.25 -315)" d="M 6454.14,4125.98 L 6464.14,4143.3 L 6016.53,4401.73 L 6006.53,4384.41 L 6454.14,4125.98 Z " />
<path stroke="transparent" fill="#000000" transform="matrix(0.0833333 0 0 0.0833333 -181.25 -315)" d="M 6978.77,4339.97 L 6978.77,4351.52 L 6968.77,4357.29 L 6459.14,4063.04 L 6459.14,4039.95 L 6978.77,4339.97 Z " />
<path stroke="transparent" fill="#000000" transform="matrix(0.0833333 0 0 0.0833333 -181.25 -315)" d="M 6988.74,4957.24 L 6968.74,4945.7 L 6968.77,4357.29 L 6978.77,4351.52 L 6988.77,4357.29 L 6988.74,4957.24 Z " />
<path stroke="transparent" fill="#000000" transform="matrix(0.0833333 0 0 0.0833333 -181.25 -315)" d="M 6916.75,4909.9 L 6896.75,4909.9 L 6896.77,4393.08 L 6916.77,4393.08 L 6916.75,4909.9 Z " />
<path stroke="transparent" fill="#000000" transform="matrix(0.0833333 0 0 0.0833333 -181.25 -315)" d="M 6459.13,5263.02 L 6459.13,5239.92 L 6968.74,4945.7 L 6988.74,4957.24 L 6459.13,5263.02 Z " />
<path stroke="transparent" fill="#000000" transform="matrix(0.0833333 0 0 0.0833333 -181.25 -315)" d="M 6459.13,5239.92 L 6459.13,5263.02 L 5939.54,4963.06 L 5939.54,4951.52 L 5949.54,4945.74 L 6459.13,5239.92 Z " />
<path stroke="transparent" fill="#000000" transform="matrix(0.0833333 0 0 0.0833333 -181.25 -315)" d="M 6464.12,5159.68 L 6454.13,5177 L 6006.53,4918.61 L 6016.53,4901.29 L 6464.12,5159.68 Z " />
<path stroke="transparent" fill="#000000" transform="matrix(0.0833333 0 0 0.0833333 -181.25 -315)" d="M 8022.97,4342.81 L 8012.97,4360.13 L 7593.42,4117.93 L 7603.42,4100.61 L 8022.97,4342.81 Z " />
<path stroke="transparent" fill="#000000" transform="matrix(0.0833333 0 0 0.0833333 -181.25 -315)" d="M 7393.78,4100.36 L 7403.78,4117.68 L 6988.77,4357.29 L 6978.77,4351.52 L 6978.77,4339.97 L 7393.78,4100.36 Z " />
<path stroke="transparent" fill="#000000" transform="matrix(0.0833333 0 0 0.0833333 -181.25 -315)" d="M 5929.54,4945.74 L 5939.54,4951.52 L 5939.54,4963.06 L 5429.92,5257.29 L 5419.92,5251.52 L 5419.92,5239.97 L 5929.54,4945.74 Z " />
<path stroke="transparent" fill="#000000" transform="matrix(0.0833333 0 0 0.0833333 -181.25 -315)" d="M 3871.06,6646.3 L 3851.06,6646.3 L 3851.08,6157.29 L 3861.08,6151.51 L 3871.08,6157.29 L 3871.06,6646.3 Z " />
<path stroke="transparent" fill="#000000" transform="matrix(0.0833333 0 0 0.0833333 -181.25 -315)" d="M 5851.9,6089.35 L 5841.9,6106.67 L 5419.9,5863.02 L 5419.9,5851.47 L 5429.9,5845.7 L 5851.9,6089.35 Z " />
</svg>
