<?xml version="1.0" standalone="no" ?>
<!DOCTYPE svg PUBLIC "-//W3C//DTD SVG 1.1//EN" "http://www.w3.org/Graphics/SVG/1.1/DTD/svg11.dtd">
<svg width="230px" height="193px" viewBox="0 0 230 193" style="background-color: #ffffff00" xmlns="http://www.w3.org/2000/svg" xmlns:xlink="http://www.w3.org/1999/xlink" version="1.1" >
<text x="0" y="0" stroke="transparent" fill="#000000" transform="matrix(0.0666667 0 0 0.0666667 186.352 54.4505)" style="font:normal normal normal 200px 'Arial'" >
O</text>
<text x="0" y="0" stroke="transparent" fill="#000000" transform="matrix(0.0666667 0 0 0.0666667 47.7863 14.4496)" style="font:normal normal normal 200px 'Arial'" >
O</text>
<text x="0" y="0" stroke="transparent" fill="#000000" transform="matrix(0.0666667 0 0 0.0666667 3.51667 74.4482)" style="font:normal normal normal 200px 'Arial'" >
HO</text>
<text x="0" y="0" stroke="transparent" fill="#000000" transform="matrix(0.0666667 0 0 0.0666667 117.07 174.45)" style="font:normal normal normal 200px 'Arial'" >
O</text>
<text x="0" y="0" stroke="transparent" fill="#000000" transform="matrix(0.0666667 0 0 0.0666667 186.352 134.452)" style="font:normal normal normal 200px 'Arial'" >
OH</text>
<path stroke="transparent" fill="#000000" transform="matrix(0.0666667 0 0 0.0666667 -233.859 -169)" d="M 6476.2,3340.17 L 6486.2,3322.85 L 6905.77,3565.1 L 6895.77,3582.42 L 6476.2,3340.17 Z " />
<path stroke="transparent" fill="#000000" transform="matrix(0.0666667 0 0 0.0666667 -233.859 -169)" d="M 5871.55,3579.54 L 5861.55,3573.76 L 5861.55,3562.22 L 6276.56,3322.6 L 6286.56,3339.92 L 5871.55,3579.54 Z " />
<path stroke="transparent" fill="#000000" transform="matrix(0.0666667 0 0 0.0666667 -233.859 -169)" d="M 5341.94,3285.3 L 5341.94,3262.21 L 5861.55,3562.22 L 5861.55,3573.76 L 5851.55,3579.54 L 5341.94,3285.3 Z " />
<path stroke="transparent" fill="#000000" transform="matrix(0.0666667 0 0 0.0666667 -233.859 -169)" d="M 5336.93,3365.56 L 5346.93,3348.23 L 5794.55,3606.67 L 5784.55,3623.99 L 5336.93,3365.56 Z " />
<path stroke="transparent" fill="#000000" transform="matrix(0.0666667 0 0 0.0666667 -233.859 -169)" d="M 4832.33,3579.5 L 4822.33,3573.72 L 4822.33,3562.18 L 5341.94,3262.21 L 5341.94,3285.3 L 4832.33,3579.5 Z " />
<path stroke="transparent" fill="#000000" transform="matrix(0.0666667 0 0 0.0666667 -233.859 -169)" d="M 4302.67,3285.3 L 4302.67,3262.21 L 4822.33,3562.18 L 4822.33,3573.72 L 4812.33,3579.5 L 4302.67,3285.3 Z " />
<path stroke="transparent" fill="#000000" transform="matrix(0.0666667 0 0 0.0666667 -233.859 -169)" d="M 4256.67,2793.58 L 4276.67,2793.58 L 4276.67,3294.54 L 4256.67,3294.54 L 4256.67,2793.58 Z " />
<path stroke="transparent" fill="#000000" transform="matrix(0.0666667 0 0 0.0666667 -233.859 -169)" d="M 4328.67,2793.58 L 4348.67,2793.58 L 4348.67,3294.54 L 4328.67,3294.54 L 4328.67,2793.58 Z " />
<path stroke="transparent" fill="#000000" transform="matrix(0.0666667 0 0 0.0666667 -233.859 -169)" d="M 3880.68,3528.92 L 3870.68,3511.6 L 4302.67,3262.21 L 4302.67,3285.3 L 3880.68,3528.92 Z " />
<path stroke="transparent" fill="#000000" transform="matrix(0.0666667 0 0 0.0666667 -233.859 -169)" d="M 4832.33,4167.96 L 4812.33,4179.51 L 4812.33,3579.5 L 4822.33,3573.72 L 4832.33,3579.5 L 4832.33,4167.96 Z " />
<path stroke="transparent" fill="#000000" transform="matrix(0.0666667 0 0 0.0666667 -233.859 -169)" d="M 4904.33,4132.17 L 4884.33,4132.17 L 4884.33,3615.3 L 4904.33,3615.3 L 4904.33,4132.17 Z " />
<path stroke="transparent" fill="#000000" transform="matrix(0.0666667 0 0 0.0666667 -233.859 -169)" d="M 5341.94,4462.2 L 5341.94,4473.74 L 5331.94,4479.52 L 4812.33,4179.51 L 4832.33,4167.96 L 5341.94,4462.2 Z " />
<path stroke="transparent" fill="#000000" transform="matrix(0.0666667 0 0 0.0666667 -233.859 -169)" d="M 5351.94,4968.59 L 5331.94,4968.59 L 5331.94,4479.52 L 5341.94,4473.74 L 5351.94,4479.52 L 5351.94,4968.59 Z " />
<path stroke="transparent" fill="#000000" transform="matrix(0.0666667 0 0 0.0666667 -233.859 -169)" d="M 5866.55,5365.1 L 5856.55,5382.42 L 5436.97,5140.17 L 5446.97,5122.85 L 5866.55,5365.1 Z " />
<path stroke="transparent" fill="#000000" transform="matrix(0.0666667 0 0 0.0666667 -233.859 -169)" d="M 5851.55,4167.96 L 5861.55,4173.74 L 5861.55,4185.28 L 5351.94,4479.52 L 5341.94,4473.74 L 5341.94,4462.2 L 5851.55,4167.96 Z " />
<path stroke="transparent" fill="#000000" transform="matrix(0.0666667 0 0 0.0666667 -233.859 -169)" d="M 5784.55,4123.51 L 5794.55,4140.83 L 5346.94,4399.26 L 5336.94,4381.94 L 5784.55,4123.51 Z " />
<path stroke="transparent" fill="#000000" transform="matrix(0.0666667 0 0 0.0666667 -233.859 -169)" d="M 5871.55,4167.96 L 5861.55,4173.74 L 5851.55,4167.96 L 5851.55,3579.54 L 5861.55,3573.76 L 5871.55,3579.54 L 5871.55,4167.96 Z " />
<path stroke="transparent" fill="#000000" transform="matrix(0.0666667 0 0 0.0666667 -233.859 -169)" d="M 6293.54,4411.64 L 6283.54,4428.96 L 5861.55,4185.28 L 5861.55,4173.74 L 5871.55,4167.96 L 6293.54,4411.64 Z " />
</svg>
