<?xml version="1.0" standalone="no" ?>
<!DOCTYPE svg PUBLIC "-//W3C//DTD SVG 1.1//EN" "http://www.w3.org/Graphics/SVG/1.1/DTD/svg11.dtd">
<svg width="809px" height="330px" viewBox="0 0 809 330" style="background-color: #ffffff00" xmlns="http://www.w3.org/2000/svg" xmlns:xlink="http://www.w3.org/1999/xlink" version="1.1" >
<text x="0" y="0" stroke="transparent" fill="#000000" transform="matrix(0.0833333 0 0 0.0833333 563.577 301.256)" style="font:normal normal normal 200px 'Arial'" >
O</text>
<text x="0" y="0" stroke="transparent" fill="#000000" transform="matrix(0.0833333 0 0 0.0833333 780.088 326.258)" style="font:normal normal normal 200px 'Arial'" >
OH</text>
<text x="0" y="0" stroke="transparent" fill="#000000" transform="matrix(0.0833333 0 0 0.0833333 563.576 151.252)" style="font:normal normal normal 200px 'Arial'" >
O</text>
<text x="0" y="0" stroke="transparent" fill="#000000" transform="matrix(0.0833333 0 0 0.0833333 390.368 151.254)" style="font:normal normal normal 200px 'Arial'" >
O</text>
<text x="0" y="0" stroke="transparent" fill="#000000" transform="matrix(0.0833333 0 0 0.0833333 303.762 151.251)" style="font:normal normal normal 200px 'Arial'" >
O</text>
<text x="0" y="0" stroke="transparent" fill="#000000" transform="matrix(0.0833333 0 0 0.0833333 217.159 101.252)" style="font:normal normal normal 200px 'Arial'" >
O</text>
<text x="0" y="0" stroke="transparent" fill="#000000" transform="matrix(0.0833333 0 0 0.0833333 168.635 26.5255)" style="font:normal normal normal 200px 'Arial'" >
O</text>
<text x="0" y="0" stroke="transparent" fill="#000000" transform="matrix(0.0833333 0 0 0.0833333 55.4563 17.4956)" style="font:normal normal normal 200px 'Arial'" >
HO</text>
<text x="0" y="0" stroke="transparent" fill="#000000" transform="matrix(0.0833333 0 0 0.0833333 3.56979 24.2077)" style="font:normal normal normal 200px 'Arial'" >
HO</text>
<text x="0" y="0" stroke="transparent" fill="#000000" transform="matrix(0.0833333 0 0 0.0833333 105.749 145.496)" style="font:normal normal normal 200px 'Arial'" >
HO</text>
<text x="0" y="0" stroke="transparent" fill="#000000" transform="matrix(0.0833333 0 0 0.0833333 205.123 251.256)" style="font:normal normal normal 200px 'Arial'" >
HO</text>
<text x="0" y="0" stroke="transparent" fill="#000000" transform="matrix(0.0833333 0 0 0.0833333 303.763 301.255)" style="font:normal normal normal 200px 'Arial'" >
OH</text>
<text x="0" y="0" stroke="transparent" fill="#000000" transform="matrix(0.0833333 0 0 0.0833333 390.367 251.254)" style="font:normal normal normal 200px 'Arial'" >
OH</text>
<text x="0" y="0" stroke="transparent" fill="#000000" transform="matrix(0.0833333 0 0 0.0833333 476.973 301.257)" style="font:normal normal normal 200px 'Arial'" >
OH</text>
<path stroke="transparent" fill="#000000" transform="matrix(0.0833333 0 0 0.0833333 -31.25 -210)" d="M 7169.93,5436.29 L 7189.93,5436.29 L 7189.92,5951.91 L 7169.92,5951.9 L 7169.93,5436.29 Z " />
<path stroke="transparent" fill="#000000" transform="matrix(0.0833333 0 0 0.0833333 -31.25 -210)" d="M 7241.93,5436.29 L 7261.93,5436.29 L 7261.92,5951.91 L 7241.92,5951.91 L 7241.93,5436.29 Z " />
<path stroke="transparent" fill="#000000" transform="matrix(0.0833333 0 0 0.0833333 -31.25 -210)" d="M 7725.55,5151.29 L 7735.55,5157.07 L 7735.55,5168.61 L 7215.93,5468.62 L 7215.93,5445.52 L 7725.55,5151.29 Z " />
<path stroke="transparent" fill="#000000" transform="matrix(0.0833333 0 0 0.0833333 -31.25 -210)" d="M 8255.17,5445.51 L 8255.17,5457.06 L 8245.17,5462.83 L 7735.55,5168.61 L 7735.55,5157.07 L 7745.55,5151.29 L 8255.17,5445.51 Z " />
<path stroke="transparent" fill="#000000" transform="matrix(0.0833333 0 0 0.0833333 -31.25 -210)" d="M 8265.16,6051.29 L 8245.16,6062.83 L 8245.17,5462.83 L 8255.17,5457.06 L 8265.17,5462.83 L 8265.16,6051.29 Z " />
<path stroke="transparent" fill="#000000" transform="matrix(0.0833333 0 0 0.0833333 -31.25 -210)" d="M 8337.16,6015.49 L 8317.16,6015.49 L 8317.17,5498.63 L 8337.17,5498.63 L 8337.16,6015.49 Z " />
<path stroke="transparent" fill="#000000" transform="matrix(0.0833333 0 0 0.0833333 -31.25 -210)" d="M 8774.78,6345.51 L 8774.78,6368.6 L 8245.16,6062.83 L 8265.16,6051.29 L 8774.78,6345.51 Z " />
<path stroke="transparent" fill="#000000" transform="matrix(0.0833333 0 0 0.0833333 -31.25 -210)" d="M 9284.41,6051.27 L 9294.41,6057.05 L 9294.41,6068.59 L 8774.78,6368.6 L 8774.78,6345.51 L 9284.41,6051.27 Z " />
<path stroke="transparent" fill="#000000" transform="matrix(0.0833333 0 0 0.0833333 -31.25 -210)" d="M 9217.41,6006.82 L 9227.41,6024.14 L 8779.78,6282.57 L 8769.78,6265.25 L 9217.41,6006.82 Z " />
<path stroke="transparent" fill="#000000" transform="matrix(0.0833333 0 0 0.0833333 -31.25 -210)" d="M 9726.44,6294.95 L 9716.44,6312.27 L 9294.41,6068.59 L 9294.41,6057.05 L 9304.41,6051.27 L 9726.44,6294.95 Z " />
<path stroke="transparent" fill="#000000" transform="matrix(0.0833333 0 0 0.0833333 -31.25 -210)" d="M 9284.42,5462.82 L 9304.42,5451.27 L 9304.41,6051.27 L 9294.41,6057.05 L 9284.41,6051.27 L 9284.42,5462.82 Z " />
<path stroke="transparent" fill="#000000" transform="matrix(0.0833333 0 0 0.0833333 -31.25 -210)" d="M 8774.8,5168.6 L 8774.8,5145.51 L 9304.42,5451.27 L 9284.42,5462.82 L 8774.8,5168.6 Z " />
<path stroke="transparent" fill="#000000" transform="matrix(0.0833333 0 0 0.0833333 -31.25 -210)" d="M 8769.8,5248.85 L 8779.8,5231.53 L 9227.42,5489.96 L 9217.42,5507.28 L 8769.8,5248.85 Z " />
<path stroke="transparent" fill="#000000" transform="matrix(0.0833333 0 0 0.0833333 -31.25 -210)" d="M 8774.8,5145.51 L 8774.8,5168.6 L 8265.17,5462.83 L 8255.17,5457.06 L 8255.17,5445.51 L 8774.8,5145.51 Z " />
<path stroke="transparent" fill="#000000" transform="matrix(0.0833333 0 0 0.0833333 -31.25 -210)" d="M 7725.53,4562.79 L 7745.53,4551.24 L 7745.55,5151.29 L 7735.55,5157.07 L 7725.55,5151.29 L 7725.53,4562.79 Z " />
<path stroke="transparent" fill="#000000" transform="matrix(0.0833333 0 0 0.0833333 -31.25 -210)" d="M 7653.53,4598.59 L 7673.53,4598.59 L 7673.55,5115.49 L 7653.55,5115.49 L 7653.53,4598.59 Z " />
<path stroke="transparent" fill="#000000" transform="matrix(0.0833333 0 0 0.0833333 -31.25 -210)" d="M 7310.95,4323.44 L 7320.95,4306.11 L 7745.53,4551.24 L 7725.53,4562.79 L 7310.95,4323.44 Z " />
<path stroke="transparent" fill="#000000" transform="matrix(0.0833333 0 0 0.0833333 -31.25 -210)" d="M 6706.28,4562.8 L 6696.28,4557.03 L 6696.28,4545.48 L 7111.31,4305.87 L 7121.31,4323.19 L 6706.28,4562.8 Z " />
<path stroke="transparent" fill="#000000" transform="matrix(0.0833333 0 0 0.0833333 -31.25 -210)" d="M 6176.67,4268.58 L 6176.67,4245.49 L 6696.28,4545.48 L 6696.28,4557.03 L 6686.28,4562.8 L 6176.67,4268.58 Z " />
<path stroke="transparent" fill="#000000" transform="matrix(0.0833333 0 0 0.0833333 -31.25 -210)" d="M 6171.67,4348.83 L 6181.67,4331.51 L 6629.28,4589.94 L 6619.28,4607.26 L 6171.67,4348.83 Z " />
<path stroke="transparent" fill="#000000" transform="matrix(0.0833333 0 0 0.0833333 -31.25 -210)" d="M 5667.04,4562.81 L 5657.04,4557.04 L 5657.04,4545.49 L 6176.67,4245.49 L 6176.67,4268.58 L 5667.04,4562.81 Z " />
<path stroke="transparent" fill="#000000" transform="matrix(0.0833333 0 0 0.0833333 -31.25 -210)" d="M 5232.46,4323.46 L 5242.46,4306.14 L 5657.04,4545.49 L 5657.04,4557.04 L 5647.04,4562.81 L 5232.46,4323.46 Z " />
<path stroke="transparent" fill="#000000" transform="matrix(0.0833333 0 0 0.0833333 -31.25 -210)" d="M 5007.82,4262.59 L 5067.82,4366.51 L 4627.79,4563.48 L 4617.79,4557.05 L 4617.23,4545.18 L 5007.82,4262.59 Z " />
<path stroke="transparent" fill="#000000" transform="matrix(0.0833333 0 0 0.0833333 -31.25 -210)" d="M 4193.18,4323.43 L 4203.18,4306.11 L 4617.23,4545.18 L 4617.79,4557.05 L 4607.79,4562.83 L 4193.18,4323.43 Z " />
<path stroke="transparent" fill="#000000" transform="matrix(0.0833333 0 0 0.0833333 -31.25 -210)" d="M 3993.54,4305.85 L 4003.54,4323.17 L 3588.52,4562.79 L 3578.52,4557.01 L 3578.98,4545.2 L 3993.54,4305.85 Z " />
<path stroke="transparent" fill="#000000" transform="matrix(0.0833333 0 0 0.0833333 -31.25 -210)" d="M 3048.9,4318.41 L 3068.9,4191.18 L 3578.98,4545.2 L 3578.52,4557.01 L 3568.52,4563.32 L 3048.9,4318.41 Z " />
<path stroke="transparent" fill="#000000" transform="matrix(0.0833333 0 0 0.0833333 -31.25 -210)" d="M 3048.91,3776.85 L 3068.91,3776.85 L 3068.9,4191.18 L 3048.9,4318.41 L 3048.91,3776.85 Z " />
<path stroke="transparent" fill="#000000" transform="matrix(0.0833333 0 0 0.0833333 -31.25 -210)" d="M 2996.29,3551.59 L 2936.29,3655.51 L 2538.16,3368.48 L 2539.29,3357.03 L 2548.64,3350.32 L 2996.29,3551.59 Z " />
<path stroke="transparent" fill="#000000" transform="matrix(0.0833333 0 0 0.0833333 -31.25 -210)" d="M 2479.14,2880.09 L 2499.03,2878.01 L 2548.64,3350.32 L 2539.29,3357.03 L 2528.58,3350.85 L 2479.14,2880.09 Z " />
<path stroke="transparent" fill="#000000" transform="matrix(0.0833333 0 0 0.0833333 -31.25 -210)" d="M 1894.72,2646.88 L 1884.67,2624.3 L 2373.95,2728.27 L 2369.79,2747.83 L 1894.72,2646.88 Z " />
<path stroke="transparent" fill="#000000" transform="matrix(0.0833333 0 0 0.0833333 -31.25 -210)" d="M 1884.67,2624.3 L 1894.72,2646.88 L 1602,3153.92 L 1589.7,3155.21 L 1583.59,3145.8 L 1884.67,2624.3 Z " />
<path stroke="transparent" fill="#000000" transform="matrix(0.0833333 0 0 0.0833333 -31.25 -210)" d="M 1278.35,2785.89 L 1378.99,2720.54 L 1387.91,2738.6 L 1291.21,2801.39 L 1278.35,2785.89 Z " />
<path stroke="transparent" fill="#000000" transform="matrix(0.0833333 0 0 0.0833333 -31.25 -210)" d="M 1315.59,2830.74 L 1404.81,2772.81 L 1413.73,2790.86 L 1328.45,2846.24 L 1315.59,2830.74 Z " />
<path stroke="transparent" fill="#000000" transform="matrix(0.0833333 0 0 0.0833333 -31.25 -210)" d="M 1352.83,2875.59 L 1430.63,2825.07 L 1439.55,2843.12 L 1365.69,2891.09 L 1352.83,2875.59 Z " />
<path stroke="transparent" fill="#000000" transform="matrix(0.0833333 0 0 0.0833333 -31.25 -210)" d="M 1390.07,2920.44 L 1456.46,2877.33 L 1465.38,2895.39 L 1402.93,2935.94 L 1390.07,2920.44 Z " />
<path stroke="transparent" fill="#000000" transform="matrix(0.0833333 0 0 0.0833333 -31.25 -210)" d="M 1427.31,2965.29 L 1482.28,2929.6 L 1491.2,2947.65 L 1440.17,2980.79 L 1427.31,2965.29 Z " />
<path stroke="transparent" fill="#000000" transform="matrix(0.0833333 0 0 0.0833333 -31.25 -210)" d="M 1464.54,3010.14 L 1508.1,2981.86 L 1517.02,2999.92 L 1477.41,3025.64 L 1464.54,3010.14 Z " />
<path stroke="transparent" fill="#000000" transform="matrix(0.0833333 0 0 0.0833333 -31.25 -210)" d="M 1501.78,3054.99 L 1533.92,3034.13 L 1542.84,3052.18 L 1514.65,3070.49 L 1501.78,3054.99 Z " />
<path stroke="transparent" fill="#000000" transform="matrix(0.0833333 0 0 0.0833333 -31.25 -210)" d="M 1539.02,3099.84 L 1559.74,3086.39 L 1568.66,3104.44 L 1551.89,3115.34 L 1539.02,3099.84 Z " />
<path stroke="transparent" fill="#000000" transform="matrix(0.0833333 0 0 0.0833333 -31.25 -210)" d="M 988.284,3228.43 L 997.677,3207.33 L 1583.59,3145.8 L 1589.7,3155.21 L 1585.68,3165.69 L 988.284,3228.43 Z " />
<path stroke="transparent" fill="#000000" transform="matrix(0.0833333 0 0 0.0833333 -31.25 -210)" d="M 703.008,2835.84 L 719.188,2824.08 L 997.677,3207.33 L 988.284,3228.43 L 703.008,2835.84 Z " />
<path stroke="transparent" fill="#000000" transform="matrix(0.0833333 0 0 0.0833333 -31.25 -210)" d="M 1585.68,3165.69 L 1589.7,3155.21 L 1602,3153.92 L 1993.74,3588.99 L 1988.6,3613.17 L 1585.68,3165.69 Z " />
<path stroke="transparent" fill="#000000" transform="matrix(0.0833333 0 0 0.0833333 -31.25 -210)" d="M 1988.6,3613.17 L 1993.74,3588.99 L 2528.58,3350.85 L 2539.29,3357.03 L 2538.16,3368.48 L 1988.6,3613.17 Z " />
<path stroke="transparent" fill="#000000" transform="matrix(0.0833333 0 0 0.0833333 -31.25 -210)" d="M 1947.08,4097.09 L 1829.7,4072.14 L 1836.08,4053.05 L 1949.01,4077.05 L 1947.08,4097.09 Z " />
<path stroke="transparent" fill="#000000" transform="matrix(0.0833333 0 0 0.0833333 -31.25 -210)" d="M 1952.89,4036.94 L 1848.85,4014.83 L 1855.23,3995.74 L 1954.83,4016.91 L 1952.89,4036.94 Z " />
<path stroke="transparent" fill="#000000" transform="matrix(0.0833333 0 0 0.0833333 -31.25 -210)" d="M 1958.71,3976.79 L 1868.01,3957.51 L 1874.39,3938.42 L 1960.64,3956.76 L 1958.71,3976.79 Z " />
<path stroke="transparent" fill="#000000" transform="matrix(0.0833333 0 0 0.0833333 -31.25 -210)" d="M 1964.52,3916.65 L 1887.16,3900.2 L 1893.54,3881.11 L 1966.46,3896.61 L 1964.52,3916.65 Z " />
<path stroke="transparent" fill="#000000" transform="matrix(0.0833333 0 0 0.0833333 -31.25 -210)" d="M 1970.33,3856.5 L 1906.31,3842.89 L 1912.69,3823.8 L 1972.27,3836.46 L 1970.33,3856.5 Z " />
<path stroke="transparent" fill="#000000" transform="matrix(0.0833333 0 0 0.0833333 -31.25 -210)" d="M 1976.15,3796.35 L 1925.47,3785.58 L 1931.85,3766.49 L 1978.09,3776.31 L 1976.15,3796.35 Z " />
<path stroke="transparent" fill="#000000" transform="matrix(0.0833333 0 0 0.0833333 -31.25 -210)" d="M 1981.96,3736.2 L 1944.62,3728.26 L 1951,3709.17 L 1983.9,3716.17 L 1981.96,3736.2 Z " />
<path stroke="transparent" fill="#000000" transform="matrix(0.0833333 0 0 0.0833333 -31.25 -210)" d="M 1987.78,3676.05 L 1963.77,3670.95 L 1970.15,3651.86 L 1989.71,3656.02 L 1987.78,3676.05 Z " />
<path stroke="transparent" fill="#000000" transform="matrix(0.0833333 0 0 0.0833333 -31.25 -210)" d="M 3568.52,4563.32 L 3578.52,4557.01 L 3588.52,4562.79 L 3588.59,5151.26 L 3568.59,5162.81 L 3568.52,4563.32 Z " />
<path stroke="transparent" fill="#000000" transform="matrix(0.0833333 0 0 0.0833333 -31.25 -210)" d="M 3181.52,5455.57 L 3121.52,5351.64 L 3139.98,5343.61 L 3197.71,5443.59 L 3181.52,5455.57 Z " />
<path stroke="transparent" fill="#000000" transform="matrix(0.0833333 0 0 0.0833333 -31.25 -210)" d="M 3229.97,5419.72 L 3176.79,5327.61 L 3195.25,5319.58 L 3246.15,5407.75 L 3229.97,5419.72 Z " />
<path stroke="transparent" fill="#000000" transform="matrix(0.0833333 0 0 0.0833333 -31.25 -210)" d="M 3278.41,5383.88 L 3232.05,5303.58 L 3250.51,5295.55 L 3294.59,5371.91 L 3278.41,5383.88 Z " />
<path stroke="transparent" fill="#000000" transform="matrix(0.0833333 0 0 0.0833333 -31.25 -210)" d="M 3326.86,5348.04 L 3287.31,5279.54 L 3305.77,5271.52 L 3343.04,5336.07 L 3326.86,5348.04 Z " />
<path stroke="transparent" fill="#000000" transform="matrix(0.0833333 0 0 0.0833333 -31.25 -210)" d="M 3375.3,5312.2 L 3342.57,5255.51 L 3361.03,5247.48 L 3391.48,5300.23 L 3375.3,5312.2 Z " />
<path stroke="transparent" fill="#000000" transform="matrix(0.0833333 0 0 0.0833333 -31.25 -210)" d="M 3423.74,5276.36 L 3397.83,5231.48 L 3416.29,5223.45 L 3439.93,5264.39 L 3423.74,5276.36 Z " />
<path stroke="transparent" fill="#000000" transform="matrix(0.0833333 0 0 0.0833333 -31.25 -210)" d="M 3472.19,5240.52 L 3453.09,5207.44 L 3471.55,5199.42 L 3488.37,5228.55 L 3472.19,5240.52 Z " />
<path stroke="transparent" fill="#000000" transform="matrix(0.0833333 0 0 0.0833333 -31.25 -210)" d="M 3520.63,5204.68 L 3508.36,5183.41 L 3526.81,5175.38 L 3536.81,5192.7 L 3520.63,5204.68 Z " />
<path stroke="transparent" fill="#000000" transform="matrix(0.0833333 0 0 0.0833333 -31.25 -210)" d="M 3568.59,5162.81 L 3588.59,5151.26 L 4098.16,5445.51 L 4098.16,5457.06 L 4087.61,5462.51 L 3568.59,5162.81 Z " />
<path stroke="transparent" fill="#000000" transform="matrix(0.0833333 0 0 0.0833333 -31.25 -210)" d="M 4158.15,5951.89 L 4038.15,5951.89 L 4087.61,5462.51 L 4098.16,5457.06 L 4108.71,5462.52 L 4158.15,5951.89 Z " />
<path stroke="transparent" fill="#000000" transform="matrix(0.0833333 0 0 0.0833333 -31.25 -210)" d="M 4108.71,5462.52 L 4098.16,5457.06 L 4098.16,5445.51 L 4607.79,5151.28 L 4627.79,5162.83 L 4108.71,5462.52 Z " />
<path stroke="transparent" fill="#000000" transform="matrix(0.0833333 0 0 0.0833333 -31.25 -210)" d="M 4627.79,5162.83 L 4607.79,5151.28 L 4607.79,4562.83 L 4617.79,4557.05 L 4627.79,4563.48 L 4627.79,5162.83 Z " />
<path stroke="transparent" fill="#000000" transform="matrix(0.0833333 0 0 0.0833333 -31.25 -210)" d="M 5074.79,5351.61 L 5014.79,5455.54 L 4998.6,5443.56 L 5056.33,5343.59 L 5074.79,5351.61 Z " />
<path stroke="transparent" fill="#000000" transform="matrix(0.0833333 0 0 0.0833333 -31.25 -210)" d="M 5019.53,5327.59 L 4966.35,5419.7 L 4950.17,5407.73 L 5001.07,5319.56 L 5019.53,5327.59 Z " />
<path stroke="transparent" fill="#000000" transform="matrix(0.0833333 0 0 0.0833333 -31.25 -210)" d="M 4964.28,5303.56 L 4917.92,5383.87 L 4901.73,5371.89 L 4945.82,5295.53 L 4964.28,5303.56 Z " />
<path stroke="transparent" fill="#000000" transform="matrix(0.0833333 0 0 0.0833333 -31.25 -210)" d="M 4909.03,5279.53 L 4869.48,5348.03 L 4853.3,5336.06 L 4890.57,5271.5 L 4909.03,5279.53 Z " />
<path stroke="transparent" fill="#000000" transform="matrix(0.0833333 0 0 0.0833333 -31.25 -210)" d="M 4853.77,5255.5 L 4821.05,5312.19 L 4804.86,5300.22 L 4835.32,5247.48 L 4853.77,5255.5 Z " />
<path stroke="transparent" fill="#000000" transform="matrix(0.0833333 0 0 0.0833333 -31.25 -210)" d="M 4798.52,5231.48 L 4772.61,5276.36 L 4756.43,5264.39 L 4780.06,5223.45 L 4798.52,5231.48 Z " />
<path stroke="transparent" fill="#000000" transform="matrix(0.0833333 0 0 0.0833333 -31.25 -210)" d="M 4743.27,5207.45 L 4724.17,5240.52 L 4707.99,5228.55 L 4724.81,5199.42 L 4743.27,5207.45 Z " />
<path stroke="transparent" fill="#000000" transform="matrix(0.0833333 0 0 0.0833333 -31.25 -210)" d="M 4688.02,5183.42 L 4675.74,5204.69 L 4659.56,5192.72 L 4669.56,5175.4 L 4688.02,5183.42 Z " />
<path stroke="transparent" fill="#000000" transform="matrix(0.0833333 0 0 0.0833333 -31.25 -210)" d="M 5667.03,5151.27 L 5647.03,5162.81 L 5647.04,4562.81 L 5657.04,4557.04 L 5667.04,4562.81 L 5667.03,5151.27 Z " />
<path stroke="transparent" fill="#000000" transform="matrix(0.0833333 0 0 0.0833333 -31.25 -210)" d="M 5739.03,5115.47 L 5719.03,5115.47 L 5719.04,4598.61 L 5739.04,4598.61 L 5739.03,5115.47 Z " />
<path stroke="transparent" fill="#000000" transform="matrix(0.0833333 0 0 0.0833333 -31.25 -210)" d="M 6176.65,5445.49 L 6176.65,5457.03 L 6166.65,5462.81 L 5647.03,5162.81 L 5667.03,5151.27 L 6176.65,5445.49 Z " />
<path stroke="transparent" fill="#000000" transform="matrix(0.0833333 0 0 0.0833333 -31.25 -210)" d="M 6186.67,5951.92 L 6166.67,5951.92 L 6166.65,5462.81 L 6176.65,5457.03 L 6186.65,5462.81 L 6186.67,5951.92 Z " />
<path stroke="transparent" fill="#000000" transform="matrix(0.0833333 0 0 0.0833333 -31.25 -210)" d="M 6686.28,5151.25 L 6696.28,5157.03 L 6696.28,5168.57 L 6186.65,5462.81 L 6176.65,5457.03 L 6176.65,5445.49 L 6686.28,5151.25 Z " />
<path stroke="transparent" fill="#000000" transform="matrix(0.0833333 0 0 0.0833333 -31.25 -210)" d="M 6619.28,5106.8 L 6629.28,5124.12 L 6181.65,5382.55 L 6171.65,5365.23 L 6619.28,5106.8 Z " />
<path stroke="transparent" fill="#000000" transform="matrix(0.0833333 0 0 0.0833333 -31.25 -210)" d="M 6696.28,5168.57 L 6696.28,5157.03 L 6706.28,5151.25 L 7215.93,5445.52 L 7215.93,5468.62 L 6696.28,5168.57 Z " />
<path stroke="transparent" fill="#000000" transform="matrix(0.0833333 0 0 0.0833333 -31.25 -210)" d="M 6706.28,5151.25 L 6696.28,5157.03 L 6686.28,5151.25 L 6686.28,4562.8 L 6696.28,4557.03 L 6706.28,4562.8 L 6706.28,5151.25 Z " />
</svg>
