<?xml version="1.0" standalone="no" ?>
<!DOCTYPE svg PUBLIC "-//W3C//DTD SVG 1.1//EN" "http://www.w3.org/Graphics/SVG/1.1/DTD/svg11.dtd">
<svg width="520px" height="303px" viewBox="0 0 520 303" style="background-color: #ffffff00" xmlns="http://www.w3.org/2000/svg" xmlns:xlink="http://www.w3.org/1999/xlink" version="1.1" >
<text x="0" y="0" stroke="transparent" fill="#000000" transform="matrix(0.0833333 0 0 0.0833333 326.327 224.765)" style="font:normal normal normal 200px 'Arial'" >
O</text>
<text x="0" y="0" stroke="transparent" fill="#000000" transform="matrix(0.0833333 0 0 0.0833333 133.42 86.7616)" style="font:normal normal normal 200px 'Arial'" >
O</text>
<text x="0" y="0" stroke="transparent" fill="#000000" transform="matrix(0.0833333 0 0 0.0833333 3.51581 261.762)" style="font:normal normal normal 200px 'Arial'" >
O</text>
<text x="0" y="0" stroke="transparent" fill="#000000" transform="matrix(0.0833333 0 0 0.0833333 263.323 261.762)" style="font:normal normal normal 200px 'Arial'" >
OH</text>
<path stroke="transparent" fill="#000000" transform="matrix(0.0833333 0 0 0.0833333 -145.25 -250.5)" d="M 5705.81,3467.84 L 5691.67,3481.98 L 5676.23,3469.14 L 5692.97,3452.4 L 5705.81,3467.84 Z " />
<path stroke="transparent" fill="#000000" transform="matrix(0.0833333 0 0 0.0833333 -145.25 -250.5)" d="M 5668.27,3422.73 L 5646.56,3444.44 L 5631.12,3431.59 L 5655.42,3407.29 L 5668.27,3422.73 Z " />
<path stroke="transparent" fill="#000000" transform="matrix(0.0833333 0 0 0.0833333 -145.25 -250.5)" d="M 5630.73,3377.62 L 5601.45,3406.9 L 5586.01,3394.05 L 5617.88,3362.18 L 5630.73,3377.62 Z " />
<path stroke="transparent" fill="#000000" transform="matrix(0.0833333 0 0 0.0833333 -145.25 -250.5)" d="M 5593.19,3332.51 L 5556.34,3369.36 L 5540.9,3356.51 L 5580.34,3317.07 L 5593.19,3332.51 Z " />
<path stroke="transparent" fill="#000000" transform="matrix(0.0833333 0 0 0.0833333 -145.25 -250.5)" d="M 5555.64,3287.4 L 5511.23,3331.81 L 5495.79,3318.97 L 5542.8,3271.96 L 5555.64,3287.4 Z " />
<path stroke="transparent" fill="#000000" transform="matrix(0.0833333 0 0 0.0833333 -145.25 -250.5)" d="M 5518.1,3242.29 L 5466.12,3294.27 L 5450.68,3281.43 L 5505.26,3226.85 L 5518.1,3242.29 Z " />
<path stroke="transparent" fill="#000000" transform="matrix(0.0833333 0 0 0.0833333 -145.25 -250.5)" d="M 5480.56,3197.17 L 5421,3256.73 L 5405.57,3243.88 L 5467.71,3181.74 L 5480.56,3197.17 Z " />
<path stroke="transparent" fill="#000000" transform="matrix(0.0833333 0 0 0.0833333 -145.25 -250.5)" d="M 5443.02,3152.06 L 5375.89,3219.19 L 5360.46,3206.34 L 5430.17,3136.63 L 5443.02,3152.06 Z " />
<path stroke="transparent" fill="#000000" transform="matrix(0.0833333 0 0 0.0833333 -145.25 -250.5)" d="M 5405.48,3106.95 L 5330.78,3181.65 L 5315.35,3168.8 L 5392.63,3091.52 L 5405.48,3106.95 Z " />
<path stroke="transparent" fill="#000000" transform="matrix(0.0833333 0 0 0.0833333 -145.25 -250.5)" d="M 5367.93,3061.84 L 5285.67,3144.1 L 5270.23,3131.26 L 5355.09,3046.4 L 5367.93,3061.84 Z " />
<path stroke="transparent" fill="#000000" transform="matrix(0.0833333 0 0 0.0833333 -145.25 -250.5)" d="M 6327.38,3377.37 L 6320.25,3399.33 L 5744.65,3521.68 L 5729.2,3504.51 L 6327.38,3377.37 Z " />
<path stroke="transparent" fill="#000000" transform="matrix(0.0833333 0 0 0.0833333 -145.25 -250.5)" d="M 5562.75,4081.5 L 5551.52,4083.73 L 5543.58,4075.79 L 5729.2,3504.51 L 5744.65,3521.68 L 5562.75,4081.5 Z " />
<path stroke="transparent" fill="#000000" transform="matrix(0.0833333 0 0 0.0833333 -145.25 -250.5)" d="M 5947,4527.23 L 5860.45,4612.33 L 5547.11,4095.68 L 5551.52,4083.73 L 5562.75,4081.5 L 5947,4527.23 Z " />
<path stroke="transparent" fill="#000000" transform="matrix(0.0833333 0 0 0.0833333 -145.25 -250.5)" d="M 5555.33,5066.31 L 5547.7,5042.79 L 5860.45,4612.33 L 5947,4527.23 L 5555.33,5066.31 Z " />
<path stroke="transparent" fill="#000000" transform="matrix(0.0833333 0 0 0.0833333 -145.25 -250.5)" d="M 5747.93,5510.21 L 5728.91,5516.39 L 5568.16,5021.64 L 5587.18,5015.46 L 5747.93,5510.21 Z " />
<path stroke="transparent" fill="#000000" transform="matrix(0.0833333 0 0 0.0833333 -145.25 -250.5)" d="M 5679.46,5532.46 L 5660.44,5538.64 L 5499.68,5043.89 L 5518.71,5037.71 L 5679.46,5532.46 Z " />
<path stroke="transparent" fill="#000000" transform="matrix(0.0833333 0 0 0.0833333 -145.25 -250.5)" d="M 4982.03,4880.03 L 4980.88,4869.14 L 4990.88,4861.87 L 5547.7,5042.79 L 5555.33,5066.31 L 4982.03,4880.03 Z " />
<path stroke="transparent" fill="#000000" transform="matrix(0.0833333 0 0 0.0833333 -145.25 -250.5)" d="M 4970.88,4274.91 L 4980.88,4269.14 L 4990.88,4276.4 L 4990.88,4861.87 L 4980.88,4869.14 L 4970.88,4863.37 L 4970.88,4274.91 Z " />
<path stroke="transparent" fill="#000000" transform="matrix(0.0833333 0 0 0.0833333 -145.25 -250.5)" d="M 4990.88,4276.4 L 4980.88,4269.14 L 4993.82,4254.42 L 5543.58,4075.79 L 5551.52,4083.73 L 5547.11,4095.68 L 4990.88,4276.4 Z " />
<path stroke="transparent" fill="#000000" transform="matrix(0.0833333 0 0 0.0833333 -145.25 -250.5)" d="M 4461.27,3980.69 L 4461.27,3957.59 L 4971.28,4252.05 L 4980.88,4269.14 L 4970.88,4274.91 L 4461.27,3980.69 Z " />
<path stroke="transparent" fill="#000000" transform="matrix(0.0833333 0 0 0.0833333 -145.25 -250.5)" d="M 3951.65,4274.91 L 3931.65,4263.37 L 4461.27,3957.59 L 4461.27,3980.69 L 3951.65,4274.91 Z " />
<path stroke="transparent" fill="#000000" transform="matrix(0.0833333 0 0 0.0833333 -145.25 -250.5)" d="M 3499.07,4066.73 L 3509.07,4049.41 L 3946.65,4302.05 L 3936.65,4319.37 L 3499.07,4066.73 Z " />
<path stroke="transparent" fill="#000000" transform="matrix(0.0833333 0 0 0.0833333 -145.25 -250.5)" d="M 3535.07,4004.38 L 3545.07,3987.06 L 3982.65,4239.69 L 3972.65,4257.02 L 3535.07,4004.38 Z " />
<path stroke="transparent" fill="#000000" transform="matrix(0.0833333 0 0 0.0833333 -145.25 -250.5)" d="M 3951.65,4863.37 L 3941.65,4869.14 L 3931.65,4863.37 L 3931.65,4263.37 L 3951.65,4274.91 L 3951.65,4863.37 Z " />
<path stroke="transparent" fill="#000000" transform="matrix(0.0833333 0 0 0.0833333 -145.25 -250.5)" d="M 4461.27,5157.59 L 4461.27,5169.14 L 4451.27,5174.91 L 3941.65,4880.69 L 3941.65,4869.14 L 3951.65,4863.37 L 4461.27,5157.59 Z " />
<path stroke="transparent" fill="#000000" transform="matrix(0.0833333 0 0 0.0833333 -145.25 -250.5)" d="M 4466.27,5077.34 L 4456.27,5094.66 L 4008.65,4836.23 L 4018.65,4818.91 L 4466.27,5077.34 Z " />
<path stroke="transparent" fill="#000000" transform="matrix(0.0833333 0 0 0.0833333 -145.25 -250.5)" d="M 4471.27,5174.91 L 4461.27,5169.14 L 4461.27,5157.59 L 4970.88,4863.37 L 4980.88,4869.14 L 4982.03,4880.03 L 4471.27,5174.91 Z " />
<path stroke="transparent" fill="#000000" transform="matrix(0.0833333 0 0 0.0833333 -145.25 -250.5)" d="M 4471.27,5762.73 L 4461.27,5769.14 L 4451.27,5763.37 L 4451.27,5174.91 L 4461.27,5169.14 L 4471.27,5174.91 L 4471.27,5762.73 Z " />
<path stroke="transparent" fill="#000000" transform="matrix(0.0833333 0 0 0.0833333 -145.25 -250.5)" d="M 3893.49,6108.49 L 3993.67,6027.56 L 4451.27,5763.37 L 4461.27,5769.14 L 4460.71,5781.01 L 3893.49,6108.49 Z " />
<path stroke="transparent" fill="#000000" transform="matrix(0.0833333 0 0 0.0833333 -145.25 -250.5)" d="M 3421.58,5780.95 L 3422.04,5769.14 L 3432.04,5762.84 L 3993.67,6027.56 L 3893.49,6108.49 L 3421.58,5780.95 Z " />
<path stroke="transparent" fill="#000000" transform="matrix(0.0833333 0 0 0.0833333 -145.25 -250.5)" d="M 3412.04,5174.91 L 3422.04,5169.14 L 3432.04,5174.91 L 3432.04,5762.84 L 3422.04,5769.14 L 3412.04,5763.37 L 3412.04,5174.91 Z " />
<path stroke="transparent" fill="#000000" transform="matrix(0.0833333 0 0 0.0833333 -145.25 -250.5)" d="M 3432.04,5174.91 L 3422.04,5169.14 L 3433.55,5150.94 L 3931.65,4863.37 L 3941.65,4869.14 L 3941.65,4880.69 L 3432.04,5174.91 Z " />
<path stroke="transparent" fill="#000000" transform="matrix(0.0833333 0 0 0.0833333 -145.25 -250.5)" d="M 2902.42,4880.69 L 2902.42,4857.59 L 3410.52,5150.94 L 3422.04,5169.14 L 3412.04,5174.91 L 2902.42,4880.69 Z " />
<path stroke="transparent" fill="#000000" transform="matrix(0.0833333 0 0 0.0833333 -145.25 -250.5)" d="M 2392.8,5174.91 L 2372.8,5163.37 L 2902.42,4857.59 L 2902.42,4880.69 L 2392.8,5174.91 Z " />
<path stroke="transparent" fill="#000000" transform="matrix(0.0833333 0 0 0.0833333 -145.25 -250.5)" d="M 2392.8,5763.37 L 2372.8,5774.91 L 2372.8,5163.37 L 2392.8,5174.91 L 2392.8,5763.37 Z " />
<path stroke="transparent" fill="#000000" transform="matrix(0.0833333 0 0 0.0833333 -145.25 -250.5)" d="M 1978.81,6055.5 L 1968.81,6038.18 L 2413.8,5781.26 L 2423.8,5798.58 L 1978.81,6055.5 Z " />
<path stroke="transparent" fill="#000000" transform="matrix(0.0833333 0 0 0.0833333 -145.25 -250.5)" d="M 1942.81,5993.15 L 1932.81,5975.83 L 2377.8,5718.91 L 2387.8,5736.23 L 1942.81,5993.15 Z " />
<path stroke="transparent" fill="#000000" transform="matrix(0.0833333 0 0 0.0833333 -145.25 -250.5)" d="M 2902.42,6057.59 L 2902.42,6069.14 L 2888.76,6072.8 L 2372.8,5774.91 L 2392.8,5763.37 L 2902.42,6057.59 Z " />
<path stroke="transparent" fill="#000000" transform="matrix(0.0833333 0 0 0.0833333 -145.25 -250.5)" d="M 2916.08,6072.8 L 2902.42,6069.14 L 2902.42,6057.59 L 3412.04,5763.37 L 3422.04,5769.14 L 3421.58,5780.95 L 2916.08,6072.8 Z " />
<path stroke="transparent" fill="#000000" transform="matrix(0.0833333 0 0 0.0833333 -145.25 -250.5)" d="M 3211.08,6583.75 L 3193.76,6593.75 L 2902.42,6089.14 L 2902.42,6069.14 L 2916.08,6072.8 L 3211.08,6583.75 Z " />
<path stroke="transparent" fill="#000000" transform="matrix(0.0833333 0 0 0.0833333 -145.25 -250.5)" d="M 2611.08,6593.75 L 2593.76,6583.75 L 2888.76,6072.8 L 2902.42,6069.14 L 2902.42,6089.14 L 2611.08,6593.75 Z " />
<path stroke="transparent" fill="#000000" transform="matrix(0.0833333 0 0 0.0833333 -145.25 -250.5)" d="M 3362.04,4569.14 L 3482.04,4569.14 L 3433.55,5150.94 L 3422.04,5169.14 L 3410.52,5150.94 L 3362.04,4569.14 Z " />
<path stroke="transparent" fill="#000000" transform="matrix(0.0833333 0 0 0.0833333 -145.25 -250.5)" d="M 4918.26,5963.7 L 4858.26,6067.63 L 4460.71,5781.01 L 4461.27,5769.14 L 4471.27,5762.73 L 4918.26,5963.7 Z " />
<path stroke="transparent" fill="#000000" transform="matrix(0.0833333 0 0 0.0833333 -145.25 -250.5)" d="M 4983.93,3666.15 L 5103.27,3678.7 L 4993.82,4254.42 L 4980.88,4269.14 L 4971.28,4252.05 L 4983.93,3666.15 Z " />
<path stroke="transparent" fill="#000000" transform="matrix(0.0833333 0 0 0.0833333 -145.25 -250.5)" d="M 5103.27,5459.58 L 4983.93,5472.12 L 4983.66,5452.04 L 5099.36,5439.88 L 5103.27,5459.58 Z " />
<path stroke="transparent" fill="#000000" transform="matrix(0.0833333 0 0 0.0833333 -145.25 -250.5)" d="M 5091.84,5402.02 L 4983.14,5413.44 L 4982.87,5393.36 L 5087.93,5382.32 L 5091.84,5402.02 Z " />
<path stroke="transparent" fill="#000000" transform="matrix(0.0833333 0 0 0.0833333 -145.25 -250.5)" d="M 5080.41,5344.45 L 4982.35,5354.76 L 4982.09,5334.67 L 5076.49,5324.75 L 5080.41,5344.45 Z " />
<path stroke="transparent" fill="#000000" transform="matrix(0.0833333 0 0 0.0833333 -145.25 -250.5)" d="M 5068.97,5286.89 L 4981.57,5296.07 L 4981.3,5275.99 L 5065.06,5267.19 L 5068.97,5286.89 Z " />
<path stroke="transparent" fill="#000000" transform="matrix(0.0833333 0 0 0.0833333 -145.25 -250.5)" d="M 5057.54,5229.32 L 4980.78,5237.39 L 4980.51,5217.31 L 5053.63,5209.62 L 5057.54,5229.32 Z " />
<path stroke="transparent" fill="#000000" transform="matrix(0.0833333 0 0 0.0833333 -145.25 -250.5)" d="M 5046.11,5171.76 L 4980,5178.71 L 4979.73,5158.62 L 5042.2,5152.06 L 5046.11,5171.76 Z " />
<path stroke="transparent" fill="#000000" transform="matrix(0.0833333 0 0 0.0833333 -145.25 -250.5)" d="M 5034.68,5114.19 L 4979.21,5120.02 L 4978.94,5099.94 L 5030.77,5094.49 L 5034.68,5114.19 Z " />
<path stroke="transparent" fill="#000000" transform="matrix(0.0833333 0 0 0.0833333 -145.25 -250.5)" d="M 5023.25,5056.63 L 4978.42,5061.34 L 4978.15,5041.26 L 5019.33,5036.93 L 5023.25,5056.63 Z " />
<path stroke="transparent" fill="#000000" transform="matrix(0.0833333 0 0 0.0833333 -145.25 -250.5)" d="M 5011.81,4999.06 L 4977.64,5002.65 L 4977.37,4982.57 L 5007.9,4979.36 L 5011.81,4999.06 Z " />
<path stroke="transparent" fill="#000000" transform="matrix(0.0833333 0 0 0.0833333 -145.25 -250.5)" d="M 5000.38,4941.5 L 4976.85,4943.97 L 4976.58,4923.89 L 4996.47,4921.8 L 5000.38,4941.5 Z " />
<path stroke="transparent" fill="#000000" transform="matrix(0.0833333 0 0 0.0833333 -145.25 -250.5)" d="M 6728.86,3823.25 L 6721.72,3845.22 L 6320.25,3399.33 L 6327.38,3377.37 L 6728.86,3823.25 Z " />
<path stroke="transparent" fill="#000000" transform="matrix(0.0833333 0 0 0.0833333 -145.25 -250.5)" d="M 7315.75,3698.51 L 7308.61,3720.47 L 6721.72,3845.22 L 6728.86,3823.25 L 7315.75,3698.51 Z " />
<text x="0" y="0" stroke="transparent" fill="#000000" transform="matrix(0.0833333 0 0 0.0833333 491.055 102.281)" style="font:normal normal normal 200px 'Arial'" >
OH</text>
<path stroke="transparent" fill="#000000" transform="matrix(0.0833333 0 0 0.0833333 -145.25 -250.5)" d="M 7649.68,4069.37 L 7634.82,4082.76 L 7308.61,3720.47 L 7315.75,3698.51 L 7649.68,4069.37 Z " />
<text x="0" y="0" stroke="transparent" fill="#000000" transform="matrix(0.0833333 0 0 0.0833333 473.049 17.5712)" style="font:normal normal normal 200px 'Arial'" >
O</text>
<path stroke="transparent" fill="#000000" transform="matrix(0.0833333 0 0 0.0833333 -145.25 -250.5)" d="M 7416.2,3240.48 L 7435.23,3246.66 L 7281.03,3721.22 L 7262.01,3715.04 L 7416.2,3240.48 Z " />
<path stroke="transparent" fill="#000000" transform="matrix(0.0833333 0 0 0.0833333 -145.25 -250.5)" d="M 7484.68,3262.72 L 7503.7,3268.91 L 7349.51,3743.47 L 7330.49,3737.29 L 7484.68,3262.72 Z " />
</svg>
