<?xml version="1.0" standalone="no" ?>
<!DOCTYPE svg PUBLIC "-//W3C//DTD SVG 1.1//EN" "http://www.w3.org/Graphics/SVG/1.1/DTD/svg11.dtd">
<svg width="182px" height="137px" viewBox="0 0 182 137" style="background-color: #ffffff00" xmlns="http://www.w3.org/2000/svg" xmlns:xlink="http://www.w3.org/1999/xlink" version="1.1" >
<text x="0" y="0" stroke="transparent" fill="#000000" transform="matrix(0.0666667 0 0 0.0666667 139.017 14.0722)" style="font:normal normal normal 200px 'Arial'" >
O</text>
<text x="0" y="0" stroke="transparent" fill="#000000" transform="matrix(0.0666667 0 0 0.0666667 2.85146 134.072)" style="font:normal normal normal 200px 'Arial'" >
O</text>
<text x="0" y="0" stroke="transparent" fill="#000000" transform="matrix(0.0666667 0 0 0.0666667 139.017 94.074)" style="font:normal normal normal 200px 'Arial'" >
OH</text>
<path stroke="transparent" fill="#000000" transform="matrix(0.0666667 0 0 0.0666667 -257.859 -197)" d="M 6126.17,3154.5 L 6136.17,3137.18 L 6555.75,3379.43 L 6545.75,3396.75 L 6126.17,3154.5 Z " />
<path stroke="transparent" fill="#000000" transform="matrix(0.0666667 0 0 0.0666667 -257.859 -197)" d="M 5521.52,3393.86 L 5511.52,3388.09 L 5511.52,3376.54 L 5926.53,3136.93 L 5936.53,3154.25 L 5521.52,3393.86 Z " />
<path stroke="transparent" fill="#000000" transform="matrix(0.0666667 0 0 0.0666667 -257.859 -197)" d="M 4991.91,3099.63 L 4991.91,3076.54 L 5511.52,3376.54 L 5511.52,3388.09 L 5501.52,3393.86 L 4991.91,3099.63 Z " />
<path stroke="transparent" fill="#000000" transform="matrix(0.0666667 0 0 0.0666667 -257.859 -197)" d="M 4986.91,3179.88 L 4996.91,3162.56 L 5444.53,3421 L 5434.52,3438.32 L 4986.91,3179.88 Z " />
<path stroke="transparent" fill="#000000" transform="matrix(0.0666667 0 0 0.0666667 -257.859 -197)" d="M 4482.3,3393.82 L 4462.3,3382.28 L 4991.91,3076.54 L 4991.91,3099.63 L 4482.3,3393.82 Z " />
<path stroke="transparent" fill="#000000" transform="matrix(0.0666667 0 0 0.0666667 -257.859 -197)" d="M 4482.3,3982.29 L 4472.3,3988.06 L 4462.3,3982.29 L 4462.3,3382.28 L 4482.3,3393.82 L 4482.3,3982.29 Z " />
<path stroke="transparent" fill="#000000" transform="matrix(0.0666667 0 0 0.0666667 -257.859 -197)" d="M 4554.3,3946.49 L 4534.3,3946.49 L 4534.3,3429.62 L 4554.3,3429.62 L 4554.3,3946.49 Z " />
<path stroke="transparent" fill="#000000" transform="matrix(0.0666667 0 0 0.0666667 -257.859 -197)" d="M 3962.65,4293.84 L 3942.65,4282.3 L 4462.3,3982.29 L 4472.3,3988.06 L 4472.3,3999.61 L 3962.65,4293.84 Z " />
<path stroke="transparent" fill="#000000" transform="matrix(0.0666667 0 0 0.0666667 -257.859 -197)" d="M 3962.65,4782.92 L 3942.65,4782.92 L 3942.65,4282.3 L 3962.65,4293.84 L 3962.65,4782.92 Z " />
<path stroke="transparent" fill="#000000" transform="matrix(0.0666667 0 0 0.0666667 -257.859 -197)" d="M 4034.65,4782.92 L 4014.65,4782.92 L 4014.65,4329.64 L 4034.65,4329.64 L 4034.65,4782.92 Z " />
<path stroke="transparent" fill="#000000" transform="matrix(0.0666667 0 0 0.0666667 -257.859 -197)" d="M 4991.91,4276.52 L 4991.91,4299.62 L 4472.3,3999.61 L 4472.3,3988.06 L 4482.3,3982.29 L 4991.91,4276.52 Z " />
<path stroke="transparent" fill="#000000" transform="matrix(0.0666667 0 0 0.0666667 -257.859 -197)" d="M 5501.52,3982.29 L 5511.52,3988.06 L 5511.52,3999.61 L 4991.91,4299.62 L 4991.91,4276.52 L 5501.52,3982.29 Z " />
<path stroke="transparent" fill="#000000" transform="matrix(0.0666667 0 0 0.0666667 -257.859 -197)" d="M 5434.52,3937.83 L 5444.53,3955.15 L 4996.91,4213.59 L 4986.91,4196.27 L 5434.52,3937.83 Z " />
<path stroke="transparent" fill="#000000" transform="matrix(0.0666667 0 0 0.0666667 -257.859 -197)" d="M 5521.52,3982.29 L 5511.52,3988.06 L 5501.52,3982.29 L 5501.52,3393.86 L 5511.52,3388.09 L 5521.52,3393.86 L 5521.52,3982.29 Z " />
<path stroke="transparent" fill="#000000" transform="matrix(0.0666667 0 0 0.0666667 -257.859 -197)" d="M 5943.52,4225.97 L 5933.52,4243.29 L 5511.52,3999.61 L 5511.52,3988.06 L 5521.52,3982.29 L 5943.52,4225.97 Z " />
</svg>
