<?xml version="1.0" standalone="no" ?>
<!DOCTYPE svg PUBLIC "-//W3C//DTD SVG 1.1//EN" "http://www.w3.org/Graphics/SVG/1.1/DTD/svg11.dtd">
<svg width="266px" height="331px" viewBox="0 0 266 331" style="background-color: #ffffff00" xmlns="http://www.w3.org/2000/svg" xmlns:xlink="http://www.w3.org/1999/xlink" version="1.1" >
<text x="0" y="0" stroke="transparent" fill="#000000" transform="matrix(0.0666667 0 0 0.0666667 43.3653 74.4831)" style="font:normal normal normal 200px 'Arial'" >
HN</text>
<text x="0" y="0" stroke="transparent" fill="#000000" transform="matrix(0.0666667 0 0 0.0666667 87.6606 134.483)" style="font:normal normal normal 200px 'Arial'" >
N</text>
<text x="0" y="0" stroke="transparent" fill="#000000" transform="matrix(0.0666667 0 0 0.0666667 160.344 62.1243)" style="font:normal normal normal 200px 'Arial'" >
N</text>
<text x="0" y="0" stroke="transparent" fill="#000000" transform="matrix(0.0666667 0 0 0.0666667 160.344 126.847)" style="font:normal normal normal 200px 'Arial'" >
N</text>
<text x="0" y="0" stroke="transparent" fill="#000000" transform="matrix(0.0666667 0 0 0.0666667 148.793 197.252)" style="font:normal normal normal 200px 'Arial'" >
O</text>
<text x="0" y="0" stroke="transparent" fill="#000000" transform="matrix(0.0666667 0 0 0.0666667 242.708 240.772)" style="font:normal normal normal 200px 'Arial'" >
OH</text>
<text x="0" y="0" stroke="transparent" fill="#000000" transform="matrix(0.0666667 0 0 0.0666667 242.708 153.746)" style="font:normal normal normal 200px 'Arial'" >
OH</text>
<text x="0" y="0" stroke="transparent" fill="#000000" transform="matrix(0.0666667 0 0 0.0666667 119.939 267.661)" style="font:normal normal normal 200px 'Arial'" >
O</text>
<text x="0" y="0" stroke="transparent" fill="#000000" transform="matrix(0.0666667 0 0 0.0666667 85.297 327.661)" style="font:normal normal normal 200px 'Arial'" >
O</text>
<text x="0" y="0" stroke="transparent" fill="#000000" transform="matrix(0.0666667 0 0 0.0666667 86.0637 287.661)" style="font:normal normal normal 200px 'Arial'" >
P</text>
<text x="0" y="0" stroke="transparent" fill="#000000" transform="matrix(0.0666667 0 0 0.0666667 85.297 247.661)" style="font:normal normal normal 200px 'Arial'" >
OH</text>
<text x="0" y="0" stroke="transparent" fill="#000000" transform="matrix(0.0666667 0 0 0.0666667 41.0306 267.661)" style="font:normal normal normal 200px 'Arial'" >
HO</text>
<text x="0" y="0" stroke="transparent" fill="#000000" transform="matrix(0.0666667 0 0 0.0666667 3.15651 134.483)" style="font:normal normal normal 200px 'Arial'" >
H</text>
<text x="0" y="0" stroke="transparent" fill="#000000" transform="matrix(0.0666667 0 0 0.0666667 12.7854 137.416)" style="font:normal normal normal 150px 'Arial'" >
2</text>
<text x="0" y="0" stroke="transparent" fill="#000000" transform="matrix(0.0666667 0 0 0.0666667 18.3469 134.483)" style="font:normal normal normal 200px 'Arial'" >
N</text>
<text x="0" y="0" stroke="transparent" fill="#000000" transform="matrix(0.0666667 0 0 0.0666667 87.2655 14.4832)" style="font:normal normal normal 200px 'Arial'" >
O</text>
<path stroke="transparent" fill="#000000" transform="matrix(0.0666667 0 0 0.0666667 -215.853 -244)" d="M 4670.78,4420.03 L 4650.78,4420.03 L 4650.78,3919.08 L 4670.78,3919.08 L 4670.78,4420.03 Z " />
<path stroke="transparent" fill="#000000" transform="matrix(0.0666667 0 0 0.0666667 -215.853 -244)" d="M 4598.78,4420.03 L 4578.78,4420.03 L 4578.78,3919.08 L 4598.78,3919.08 L 4598.78,4420.03 Z " />
<path stroke="transparent" fill="#000000" transform="matrix(0.0666667 0 0 0.0666667 -215.853 -244)" d="M 4213.35,4648.33 L 4203.35,4631.01 L 4624.78,4387.7 L 4624.78,4410.79 L 4213.35,4648.33 Z " />
<path stroke="transparent" fill="#000000" transform="matrix(0.0666667 0 0 0.0666667 -215.853 -244)" d="M 5145.49,4688.36 L 5144.35,4699.25 L 5134.35,4705.02 L 4624.78,4410.79 L 4624.78,4387.7 L 5145.49,4688.36 Z " />
<path stroke="transparent" fill="#000000" transform="matrix(0.0666667 0 0 0.0666667 -215.853 -244)" d="M 4115.07,5293.47 L 4105.07,5299.25 L 4095.07,5293.47 L 4095.13,4816.41 L 4115.13,4816.41 L 4115.07,5293.47 Z " />
<path stroke="transparent" fill="#000000" transform="matrix(0.0666667 0 0 0.0666667 -215.853 -244)" d="M 4525.86,5530.63 L 4515.86,5547.95 L 4105.07,5310.79 L 4105.07,5299.25 L 4115.07,5293.47 L 4525.86,5530.63 Z " />
<path stroke="transparent" fill="#000000" transform="matrix(0.0666667 0 0 0.0666667 -215.853 -244)" d="M 4561.86,5468.28 L 4551.86,5485.6 L 4172.08,5266.34 L 4182.08,5249.02 L 4561.86,5468.28 Z " />
<path stroke="transparent" fill="#000000" transform="matrix(0.0666667 0 0 0.0666667 -215.853 -244)" d="M 5134.35,5293.47 L 5144.35,5299.25 L 5145.49,5310.13 L 4733.56,5547.95 L 4723.56,5530.63 L 5134.35,5293.47 Z " />
<path stroke="transparent" fill="#000000" transform="matrix(0.0666667 0 0 0.0666667 -215.853 -244)" d="M 5134.35,4705.02 L 5144.35,4699.25 L 5154.35,4706.51 L 5154.35,5291.98 L 5144.35,5299.25 L 5134.35,5293.47 L 5134.35,4705.02 Z " />
<path stroke="transparent" fill="#000000" transform="matrix(0.0666667 0 0 0.0666667 -215.853 -244)" d="M 5062.35,4740.81 L 5082.35,4740.81 L 5082.35,5257.68 L 5062.35,5257.68 L 5062.35,4740.81 Z " />
<path stroke="transparent" fill="#000000" transform="matrix(0.0666667 0 0 0.0666667 -215.853 -244)" d="M 5610.89,5440.36 L 5604.71,5459.38 L 5145.49,5310.13 L 5144.35,5299.25 L 5154.35,5291.98 L 5610.89,5440.36 Z " />
<path stroke="transparent" fill="#000000" transform="matrix(0.0666667 0 0 0.0666667 -215.853 -244)" d="M 5602.56,4539.87 L 5608.74,4558.89 L 5154.35,4706.51 L 5144.35,4699.25 L 5145.49,4688.36 L 5602.56,4539.87 Z " />
<path stroke="transparent" fill="#000000" transform="matrix(0.0666667 0 0 0.0666667 -215.853 -244)" d="M 6080.05,4999.32 L 6055.33,4999.32 L 5786.43,4629.24 L 5802.61,4617.48 L 6080.05,4999.32 Z " />
<path stroke="transparent" fill="#000000" transform="matrix(0.0666667 0 0 0.0666667 -215.853 -244)" d="M 5986.77,4993.44 L 5970.59,5005.19 L 5728.18,4671.56 L 5744.36,4659.81 L 5986.77,4993.44 Z " />
<path stroke="transparent" fill="#000000" transform="matrix(0.0666667 0 0 0.0666667 -215.853 -244)" d="M 5795.8,5390.47 L 5779.62,5378.71 L 6055.33,4999.32 L 6080.05,4999.32 L 5795.8,5390.47 Z " />
<path stroke="transparent" fill="#000000" transform="matrix(0.0666667 0 0 0.0666667 -215.853 -244)" d="M 5698.29,5627.54 L 5812.41,5590.46 L 5908.95,6047.72 L 5900.42,6055.47 L 5888.97,6054.21 L 5698.29,5627.54 Z " />
<path stroke="transparent" fill="#000000" transform="matrix(0.0666667 0 0 0.0666667 -215.853 -244)" d="M 5618.49,6460.37 L 5602.32,6448.61 L 5888.97,6054.21 L 5900.42,6055.47 L 5904.24,6067.22 L 5618.49,6460.37 Z " />
<path stroke="transparent" fill="#000000" transform="matrix(0.0666667 0 0 0.0666667 -215.853 -244)" d="M 6481.04,6233.58 L 6461.04,6248.11 L 5904.24,6067.22 L 5900.42,6055.47 L 5908.95,6047.72 L 6481.04,6233.58 Z " />
<path stroke="transparent" fill="#000000" transform="matrix(0.0666667 0 0 0.0666667 -215.853 -244)" d="M 5904.17,7014.54 L 5900.35,7026.3 L 5888.97,7027.65 L 5610.34,6644.05 L 5626.52,6632.29 L 5904.17,7014.54 Z " />
<path stroke="transparent" fill="#000000" transform="matrix(0.0666667 0 0 0.0666667 -215.853 -244)" d="M 5773.96,7606.92 L 5654.24,7586.92 L 5888.97,7027.65 L 5900.35,7026.3 L 5908.75,7034.08 L 5773.96,7606.92 Z " />
<path stroke="transparent" fill="#000000" transform="matrix(0.0666667 0 0 0.0666667 -215.853 -244)" d="M 6460.97,6833.58 L 6480.96,6848.11 L 5908.75,7034.08 L 5900.35,7026.3 L 5904.17,7014.54 L 6460.97,6833.58 Z " />
<path stroke="transparent" fill="#000000" transform="matrix(0.0666667 0 0 0.0666667 -215.853 -244)" d="M 6905.18,7082.18 L 6834.64,7179.26 L 6819.8,7165.66 L 6887.66,7072.27 L 6905.18,7082.18 Z " />
<path stroke="transparent" fill="#000000" transform="matrix(0.0666667 0 0 0.0666667 -215.853 -244)" d="M 6852.74,7052.5 L 6790.21,7138.55 L 6775.37,7124.95 L 6835.22,7042.59 L 6852.74,7052.5 Z " />
<path stroke="transparent" fill="#000000" transform="matrix(0.0666667 0 0 0.0666667 -215.853 -244)" d="M 6800.29,7022.82 L 6745.78,7097.84 L 6730.94,7084.24 L 6782.77,7012.91 L 6800.29,7022.82 Z " />
<path stroke="transparent" fill="#000000" transform="matrix(0.0666667 0 0 0.0666667 -215.853 -244)" d="M 6747.84,6993.14 L 6701.35,7057.13 L 6686.51,7043.53 L 6730.32,6983.23 L 6747.84,6993.14 Z " />
<path stroke="transparent" fill="#000000" transform="matrix(0.0666667 0 0 0.0666667 -215.853 -244)" d="M 6695.4,6963.46 L 6656.92,7016.42 L 6642.08,7002.82 L 6677.88,6953.55 L 6695.4,6963.46 Z " />
<path stroke="transparent" fill="#000000" transform="matrix(0.0666667 0 0 0.0666667 -215.853 -244)" d="M 6642.95,6933.78 L 6612.49,6975.71 L 6597.65,6962.11 L 6625.43,6923.87 L 6642.95,6933.78 Z " />
<path stroke="transparent" fill="#000000" transform="matrix(0.0666667 0 0 0.0666667 -215.853 -244)" d="M 6590.51,6904.1 L 6568.06,6935 L 6553.22,6921.4 L 6572.99,6894.19 L 6590.51,6904.1 Z " />
<path stroke="transparent" fill="#000000" transform="matrix(0.0666667 0 0 0.0666667 -215.853 -244)" d="M 6538.06,6874.42 L 6523.63,6894.29 L 6508.78,6880.69 L 6520.54,6864.51 L 6538.06,6874.42 Z " />
<path stroke="transparent" fill="#000000" transform="matrix(0.0666667 0 0 0.0666667 -215.853 -244)" d="M 6461.04,6248.11 L 6481.04,6233.58 L 6480.96,6848.11 L 6460.97,6833.58 L 6461.04,6248.11 Z " />
<path stroke="transparent" fill="#000000" transform="matrix(0.0666667 0 0 0.0666667 -215.853 -244)" d="M 6826.9,5908.13 L 6897.43,6005.21 L 6879.88,6015.09 L 6812.09,5921.77 L 6826.9,5908.13 Z " />
<path stroke="transparent" fill="#000000" transform="matrix(0.0666667 0 0 0.0666667 -215.853 -244)" d="M 6783.58,5948.02 L 6846.11,6034.08 L 6828.56,6043.95 L 6768.77,5961.66 L 6783.58,5948.02 Z " />
<path stroke="transparent" fill="#000000" transform="matrix(0.0666667 0 0 0.0666667 -215.853 -244)" d="M 6740.27,5987.91 L 6794.79,6062.95 L 6777.24,6072.82 L 6725.46,6001.55 L 6740.27,5987.91 Z " />
<path stroke="transparent" fill="#000000" transform="matrix(0.0666667 0 0 0.0666667 -215.853 -244)" d="M 6696.96,6027.8 L 6743.47,6091.82 L 6725.92,6101.69 L 6682.14,6041.43 L 6696.96,6027.8 Z " />
<path stroke="transparent" fill="#000000" transform="matrix(0.0666667 0 0 0.0666667 -215.853 -244)" d="M 6653.64,6067.68 L 6692.15,6120.69 L 6674.6,6130.56 L 6638.83,6081.32 L 6653.64,6067.68 Z " />
<path stroke="transparent" fill="#000000" transform="matrix(0.0666667 0 0 0.0666667 -215.853 -244)" d="M 6610.33,6107.57 L 6640.83,6149.56 L 6623.28,6159.43 L 6595.52,6121.21 L 6610.33,6107.57 Z " />
<path stroke="transparent" fill="#000000" transform="matrix(0.0666667 0 0 0.0666667 -215.853 -244)" d="M 6567.01,6147.46 L 6589.51,6178.43 L 6571.96,6188.3 L 6552.2,6161.1 L 6567.01,6147.46 Z " />
<path stroke="transparent" fill="#000000" transform="matrix(0.0666667 0 0 0.0666667 -215.853 -244)" d="M 6523.7,6187.35 L 6538.19,6207.29 L 6520.64,6217.17 L 6508.89,6200.99 L 6523.7,6187.35 Z " />
<path stroke="transparent" fill="#000000" transform="matrix(0.0666667 0 0 0.0666667 -215.853 -244)" d="M 4693.14,7851.96 L 4683.14,7834.64 L 5010.29,7645.76 L 5020.29,7663.08 L 4693.14,7851.96 Z " />
<path stroke="transparent" fill="#000000" transform="matrix(0.0666667 0 0 0.0666667 -215.853 -244)" d="M 4641.26,8391.75 L 4621.26,8391.75 L 4621.26,8014.09 L 4641.26,8014.09 L 4641.26,8391.75 Z " />
<path stroke="transparent" fill="#000000" transform="matrix(0.0666667 0 0 0.0666667 -215.853 -244)" d="M 4569.26,8391.75 L 4549.26,8391.75 L 4549.26,8014.09 L 4569.26,8014.09 L 4569.26,8391.75 Z " />
<path stroke="transparent" fill="#000000" transform="matrix(0.0666667 0 0 0.0666667 -215.853 -244)" d="M 4170.72,7663.34 L 4180.72,7646.02 L 4500.53,7830.68 L 4490.53,7848 L 4170.72,7663.34 Z " />
<path stroke="transparent" fill="#000000" transform="matrix(0.0666667 0 0 0.0666667 -215.853 -244)" d="M 4585.26,7416.75 L 4605.26,7416.75 L 4605.26,7794.09 L 4585.26,7794.09 L 4585.26,7416.75 Z " />
<path stroke="transparent" fill="#000000" transform="matrix(0.0666667 0 0 0.0666667 -215.853 -244)" d="M 5222.89,7606.92 L 5222.89,7586.92 L 5654.24,7586.92 L 5773.96,7606.92 L 5222.89,7606.92 Z " />
<path stroke="transparent" fill="#000000" transform="matrix(0.0666667 0 0 0.0666667 -215.853 -244)" d="M 3693.32,5548.51 L 3683.32,5531.19 L 4095.07,5293.47 L 4105.07,5299.25 L 4105.07,5310.79 L 3693.32,5548.51 Z " />
</svg>
