<?xml version="1.0" standalone="no" ?>
<!DOCTYPE svg PUBLIC "-//W3C//DTD SVG 1.1//EN" "http://www.w3.org/Graphics/SVG/1.1/DTD/svg11.dtd">
<svg width="738px" height="372px" viewBox="0 0 738 372" style="background-color: #ffffff00" xmlns="http://www.w3.org/2000/svg" xmlns:xlink="http://www.w3.org/1999/xlink" version="1.1" >
<text x="0" y="0" stroke="transparent" fill="#000000" transform="matrix(0.0833333 0 0 0.0833333 275.647 93.2986)" style="font:normal normal normal 200px 'Arial'" >
O</text>
<text x="0" y="0" stroke="transparent" fill="#000000" transform="matrix(0.0833333 0 0 0.0833333 318.949 168.299)" style="font:normal normal normal 200px 'Arial'" >
O</text>
<text x="0" y="0" stroke="transparent" fill="#000000" transform="matrix(0.0833333 0 0 0.0833333 448.853 143.299)" style="font:normal normal normal 200px 'Arial'" >
O</text>
<text x="0" y="0" stroke="transparent" fill="#000000" transform="matrix(0.0833333 0 0 0.0833333 492.154 218.299)" style="font:normal normal normal 200px 'Arial'" >
O</text>
<text x="0" y="0" stroke="transparent" fill="#000000" transform="matrix(0.0833333 0 0 0.0833333 492.154 368.299)" style="font:normal normal normal 200px 'Arial'" >
O</text>
<text x="0" y="0" stroke="transparent" fill="#000000" transform="matrix(0.0833333 0 0 0.0833333 708.66 143.299)" style="font:normal normal normal 200px 'Arial'" >
OH</text>
<text x="0" y="0" stroke="transparent" fill="#000000" transform="matrix(0.0833333 0 0 0.0833333 708.66 243.299)" style="font:normal normal normal 200px 'Arial'" >
OH</text>
<text x="0" y="0" stroke="transparent" fill="#000000" transform="matrix(0.0833333 0 0 0.0833333 405.551 368.299)" style="font:normal normal normal 200px 'Arial'" >
OH</text>
<text x="0" y="0" stroke="transparent" fill="#000000" transform="matrix(0.0833333 0 0 0.0833333 306.913 218.299)" style="font:normal normal normal 200px 'Arial'" >
HO</text>
<text x="0" y="0" stroke="transparent" fill="#000000" transform="matrix(0.0833333 0 0 0.0833333 535.455 93.2986)" style="font:normal normal normal 200px 'Arial'" >
OH</text>
<text x="0" y="0" stroke="transparent" fill="#000000" transform="matrix(0.0833333 0 0 0.0833333 405.551 18.2986)" style="font:normal normal normal 200px 'Arial'" >
OH</text>
<text x="0" y="0" stroke="transparent" fill="#000000" transform="matrix(0.0833333 0 0 0.0833333 306.913 68.2986)" style="font:normal normal normal 200px 'Arial'" >
HO</text>
<text x="0" y="0" stroke="transparent" fill="#000000" transform="matrix(0.0833333 0 0 0.0833333 3.80371 243.299)" style="font:normal normal normal 200px 'Arial'" >
HO</text>
<path stroke="transparent" fill="#000000" transform="matrix(0.0833333 0 0 0.0833333 -46.25 -702.667)" d="M 1862.31,11285.1 L 1862.31,11262 L 2371.92,10967.8 L 2391.92,10979.4 L 1862.31,11285.1 Z " />
<path stroke="transparent" fill="#000000" transform="matrix(0.0833333 0 0 0.0833333 -46.25 -702.667)" d="M 1867.31,11199.1 L 1857.31,11181.8 L 2304.92,10923.4 L 2314.92,10940.7 L 1867.31,11199.1 Z " />
<path stroke="transparent" fill="#000000" transform="matrix(0.0833333 0 0 0.0833333 -46.25 -702.667)" d="M 1342.69,10985.1 L 1342.69,10973.6 L 1352.69,10967.8 L 1862.31,11262 L 1862.31,11285.1 L 1342.69,10985.1 Z " />
<path stroke="transparent" fill="#000000" transform="matrix(0.0833333 0 0 0.0833333 -46.25 -702.667)" d="M 1332.69,10367.8 L 1352.69,10379.4 L 1352.69,10967.8 L 1342.69,10973.6 L 1332.69,10967.8 L 1332.69,10367.8 Z " />
<path stroke="transparent" fill="#000000" transform="matrix(0.0833333 0 0 0.0833333 -46.25 -702.667)" d="M 1404.69,10415.2 L 1424.69,10415.2 L 1424.69,10932 L 1404.69,10932 L 1404.69,10415.2 Z " />
<path stroke="transparent" fill="#000000" transform="matrix(0.0833333 0 0 0.0833333 -46.25 -702.667)" d="M 1862.31,10062 L 1862.31,10085.1 L 1352.69,10379.4 L 1332.69,10367.8 L 1862.31,10062 Z " />
<path stroke="transparent" fill="#000000" transform="matrix(0.0833333 0 0 0.0833333 -46.25 -702.667)" d="M 2381.92,10362 L 2381.92,10373.6 L 2371.92,10379.4 L 1862.31,10085.1 L 1862.31,10062 L 2381.92,10362 Z " />
<path stroke="transparent" fill="#000000" transform="matrix(0.0833333 0 0 0.0833333 -46.25 -702.667)" d="M 2314.92,10406.5 L 2304.92,10423.8 L 1857.31,10165.4 L 1867.31,10148.1 L 2314.92,10406.5 Z " />
<path stroke="transparent" fill="#000000" transform="matrix(0.0833333 0 0 0.0833333 -46.25 -702.667)" d="M 2371.92,10379.4 L 2381.92,10373.6 L 2391.92,10379.4 L 2391.92,10979.4 L 2371.92,10967.8 L 2371.92,10379.4 Z " />
<path stroke="transparent" fill="#000000" transform="matrix(0.0833333 0 0 0.0833333 -46.25 -702.667)" d="M 2901.54,10062 L 2901.54,10085.1 L 2391.92,10379.4 L 2381.92,10373.6 L 2381.92,10362 L 2901.54,10062 Z " />
<path stroke="transparent" fill="#000000" transform="matrix(0.0833333 0 0 0.0833333 -46.25 -702.667)" d="M 3421.15,10362 L 3421.15,10385.1 L 2901.54,10085.1 L 2901.54,10062 L 3421.15,10362 Z " />
<path stroke="transparent" fill="#000000" transform="matrix(0.0833333 0 0 0.0833333 -46.25 -702.667)" d="M 3426.15,10281.8 L 3416.15,10299.1 L 2932.54,10019.9 L 2942.54,10002.6 L 3426.15,10281.8 Z " />
<path stroke="transparent" fill="#000000" transform="matrix(0.0833333 0 0 0.0833333 -46.25 -702.667)" d="M 3940.77,10062 L 3940.77,10085.1 L 3421.15,10385.1 L 3421.15,10362 L 3940.77,10062 Z " />
<path stroke="transparent" fill="#000000" transform="matrix(0.0833333 0 0 0.0833333 -46.25 -702.667)" d="M 3894.77,9593.42 L 3914.77,9593.42 L 3914.77,10094.4 L 3894.77,10094.4 L 3894.77,9593.42 Z " />
<path stroke="transparent" fill="#000000" transform="matrix(0.0833333 0 0 0.0833333 -46.25 -702.667)" d="M 3966.77,9593.42 L 3986.77,9593.42 L 3986.77,10094.4 L 3966.77,10094.4 L 3966.77,9593.42 Z " />
<path stroke="transparent" fill="#000000" transform="matrix(0.0833333 0 0 0.0833333 -46.25 -702.667)" d="M 4372.77,10311.4 L 4362.77,10328.8 L 3940.77,10085.1 L 3940.77,10062 L 4372.77,10311.4 Z " />
<path stroke="transparent" fill="#000000" transform="matrix(0.0833333 0 0 0.0833333 -46.25 -702.667)" d="M 4928.23,10091.9 L 4938.23,10109.2 L 4922.05,10121.2 L 4909.77,10100 L 4928.23,10091.9 Z " />
<path stroke="transparent" fill="#000000" transform="matrix(0.0833333 0 0 0.0833333 -46.25 -702.667)" d="M 4872.98,10116 L 4889.79,10145.1 L 4873.61,10157.1 L 4854.52,10124 L 4872.98,10116 Z " />
<path stroke="transparent" fill="#000000" transform="matrix(0.0833333 0 0 0.0833333 -46.25 -702.667)" d="M 4817.72,10140 L 4841.36,10180.9 L 4825.18,10192.9 L 4799.27,10148 L 4817.72,10140 Z " />
<path stroke="transparent" fill="#000000" transform="matrix(0.0833333 0 0 0.0833333 -46.25 -702.667)" d="M 4762.47,10164 L 4792.92,10216.8 L 4776.74,10228.7 L 4744.01,10172 L 4762.47,10164 Z " />
<path stroke="transparent" fill="#000000" transform="matrix(0.0833333 0 0 0.0833333 -46.25 -702.667)" d="M 4707.22,10188 L 4744.49,10252.6 L 4728.31,10264.6 L 4688.76,10196.1 L 4707.22,10188 Z " />
<path stroke="transparent" fill="#000000" transform="matrix(0.0833333 0 0 0.0833333 -46.25 -702.667)" d="M 4651.97,10212.1 L 4696.05,10288.4 L 4679.87,10300.4 L 4633.51,10220.1 L 4651.97,10212.1 Z " />
<path stroke="transparent" fill="#000000" transform="matrix(0.0833333 0 0 0.0833333 -46.25 -702.667)" d="M 4596.72,10236.1 L 4647.62,10324.3 L 4631.44,10336.2 L 4578.26,10244.1 L 4596.72,10236.1 Z " />
<path stroke="transparent" fill="#000000" transform="matrix(0.0833333 0 0 0.0833333 -46.25 -702.667)" d="M 4541.46,10260.1 L 4599.19,10360.1 L 4583,10372.1 L 4523,10268.1 L 4541.46,10260.1 Z " />
<path stroke="transparent" fill="#000000" transform="matrix(0.0833333 0 0 0.0833333 -46.25 -702.667)" d="M 4970,9480.01 L 4980,9473.58 L 4990,9479.36 L 4990,10067.8 L 4970,10079.4 L 4970,9480.01 Z " />
<path stroke="transparent" fill="#000000" transform="matrix(0.0833333 0 0 0.0833333 -46.25 -702.667)" d="M 5499.62,9162.04 L 5499.62,9185.13 L 4990,9479.36 L 4980,9473.58 L 4980.56,9461.71 L 5499.62,9162.04 Z " />
<path stroke="transparent" fill="#000000" transform="matrix(0.0833333 0 0 0.0833333 -46.25 -702.667)" d="M 6018.77,9461.77 L 6019.23,9473.58 L 6009.23,9479.36 L 5499.62,9185.13 L 5499.62,9162.04 L 6018.77,9461.77 Z " />
<path stroke="transparent" fill="#000000" transform="matrix(0.0833333 0 0 0.0833333 -46.25 -702.667)" d="M 6029.23,9968.42 L 6009.23,9968.42 L 6009.23,9479.36 L 6019.23,9473.58 L 6029.23,9479.89 L 6029.23,9968.42 Z " />
<path stroke="transparent" fill="#000000" transform="matrix(0.0833333 0 0 0.0833333 -46.25 -702.667)" d="M 5510.07,10379.1 L 5499.62,10373.6 L 5499.62,10362 L 5914.63,10122.4 L 5924.63,10139.7 L 5510.07,10379.1 Z " />
<path stroke="transparent" fill="#000000" transform="matrix(0.0833333 0 0 0.0833333 -46.25 -702.667)" d="M 5499.62,10362 L 5499.62,10373.6 L 5489.16,10379.1 L 4970,10079.4 L 4990,10067.8 L 5499.62,10362 Z " />
<path stroke="transparent" fill="#000000" transform="matrix(0.0833333 0 0 0.0833333 -46.25 -702.667)" d="M 5561.64,10997.8 L 5499.62,10973.6 L 5437.59,10997.8 L 5489.16,10379.1 L 5499.62,10373.6 L 5510.07,10379.1 L 5561.64,10997.8 Z " />
<path stroke="transparent" fill="#000000" transform="matrix(0.0833333 0 0 0.0833333 -46.25 -702.667)" d="M 4990,11279.4 L 4980,11273.6 L 4980,11262 L 5437.59,10997.8 L 5499.62,10973.6 L 5499.62,10985.1 L 4990,11279.4 Z " />
<path stroke="transparent" fill="#000000" transform="matrix(0.0833333 0 0 0.0833333 -46.25 -702.667)" d="M 5057,11323.8 L 5047,11306.5 L 5494.62,11048.1 L 5504.62,11065.4 L 5057,11323.8 Z " />
<path stroke="transparent" fill="#000000" transform="matrix(0.0833333 0 0 0.0833333 -46.25 -702.667)" d="M 4990,11867.8 L 4970,11879.4 L 4970,11279.4 L 4980,11273.6 L 4990,11279.4 L 4990,11867.8 Z " />
<path stroke="transparent" fill="#000000" transform="matrix(0.0833333 0 0 0.0833333 -46.25 -702.667)" d="M 5499.62,12162 L 5499.62,12173.6 L 5489.62,12179.4 L 4970,11879.4 L 4990,11867.8 L 5499.62,12162 Z " />
<path stroke="transparent" fill="#000000" transform="matrix(0.0833333 0 0 0.0833333 -46.25 -702.667)" d="M 5504.62,12081.8 L 5494.62,12099.1 L 5047,11840.7 L 5057,11823.4 L 5504.62,12081.8 Z " />
<path stroke="transparent" fill="#000000" transform="matrix(0.0833333 0 0 0.0833333 -46.25 -702.667)" d="M 6009.23,11867.8 L 6019.23,11873.6 L 6019.23,11885.1 L 5509.62,12179.4 L 5499.62,12173.6 L 5499.62,12162 L 6009.23,11867.8 Z " />
<path stroke="transparent" fill="#000000" transform="matrix(0.0833333 0 0 0.0833333 -46.25 -702.667)" d="M 6009.23,11279.4 L 6019.23,11273.6 L 6029.23,11279.4 L 6029.23,11867.8 L 6019.23,11873.6 L 6009.23,11867.8 L 6009.23,11279.4 Z " />
<path stroke="transparent" fill="#000000" transform="matrix(0.0833333 0 0 0.0833333 -46.25 -702.667)" d="M 5937.23,11315.2 L 5957.23,11315.2 L 5957.23,11832 L 5937.23,11832 L 5937.23,11315.2 Z " />
<path stroke="transparent" fill="#000000" transform="matrix(0.0833333 0 0 0.0833333 -46.25 -702.667)" d="M 6019.23,11262 L 6019.23,11273.6 L 6009.23,11279.4 L 5499.62,10985.1 L 5499.62,10973.6 L 5561.64,10997.8 L 6019.23,11262 Z " />
<path stroke="transparent" fill="#000000" transform="matrix(0.0833333 0 0 0.0833333 -46.25 -702.667)" d="M 6434.24,11022.4 L 6444.24,11039.7 L 6029.23,11279.4 L 6019.23,11273.6 L 6019.23,11262 L 6434.24,11022.4 Z " />
<path stroke="transparent" fill="#000000" transform="matrix(0.0833333 0 0 0.0833333 -46.25 -702.667)" d="M 7058.46,11262 L 7058.46,11273.6 L 7048.46,11279.4 L 6633.88,11040 L 6643.88,11022.7 L 7058.46,11262 Z " />
<path stroke="transparent" fill="#000000" transform="matrix(0.0833333 0 0 0.0833333 -46.25 -702.667)" d="M 7068.46,11879.4 L 7048.46,11867.8 L 7048.46,11279.4 L 7058.46,11273.6 L 7068.46,11279.4 L 7068.46,11879.4 Z " />
<path stroke="transparent" fill="#000000" transform="matrix(0.0833333 0 0 0.0833333 -46.25 -702.667)" d="M 6996.46,11832 L 6976.46,11832 L 6976.46,11315.2 L 6996.46,11315.2 L 6996.46,11832 Z " />
<path stroke="transparent" fill="#000000" transform="matrix(0.0833333 0 0 0.0833333 -46.25 -702.667)" d="M 6538.85,12185.1 L 6538.85,12162 L 7048.46,11867.8 L 7068.46,11879.4 L 6538.85,12185.1 Z " />
<path stroke="transparent" fill="#000000" transform="matrix(0.0833333 0 0 0.0833333 -46.25 -702.667)" d="M 6538.85,12162 L 6538.85,12185.1 L 6019.23,11885.1 L 6019.23,11873.6 L 6029.23,11867.8 L 6538.85,12162 Z " />
<path stroke="transparent" fill="#000000" transform="matrix(0.0833333 0 0 0.0833333 -46.25 -702.667)" d="M 6584.85,12668.4 L 6564.85,12668.4 L 6564.85,12152.8 L 6584.85,12152.8 L 6584.85,12668.4 Z " />
<path stroke="transparent" fill="#000000" transform="matrix(0.0833333 0 0 0.0833333 -46.25 -702.667)" d="M 6512.85,12668.4 L 6492.85,12668.4 L 6492.85,12152.8 L 6512.85,12152.8 L 6512.85,12668.4 Z " />
<path stroke="transparent" fill="#000000" transform="matrix(0.0833333 0 0 0.0833333 -46.25 -702.667)" d="M 7568.08,10967.8 L 7578.08,10973.6 L 7578.08,10985.1 L 7068.46,11279.4 L 7058.46,11273.6 L 7058.46,11262 L 7568.08,10967.8 Z " />
<path stroke="transparent" fill="#000000" transform="matrix(0.0833333 0 0 0.0833333 -46.25 -702.667)" d="M 8097.69,11262 L 8097.69,11285.1 L 7578.08,10985.1 L 7578.08,10973.6 L 7588.08,10967.8 L 8097.69,11262 Z " />
<path stroke="transparent" fill="#000000" transform="matrix(0.0833333 0 0 0.0833333 -46.25 -702.667)" d="M 8102.69,11181.8 L 8092.69,11199.1 L 7645.08,10940.7 L 7655.08,10923.4 L 8102.69,11181.8 Z " />
<path stroke="transparent" fill="#000000" transform="matrix(0.0833333 0 0 0.0833333 -46.25 -702.667)" d="M 8607.31,10967.8 L 8617.31,10973.6 L 8617.31,10985.1 L 8097.69,11285.1 L 8097.69,11262 L 8607.31,10967.8 Z " />
<path stroke="transparent" fill="#000000" transform="matrix(0.0833333 0 0 0.0833333 -46.25 -702.667)" d="M 8607.31,10379.4 L 8617.31,10373.6 L 8627.31,10379.4 L 8627.31,10967.8 L 8617.31,10973.6 L 8607.31,10967.8 L 8607.31,10379.4 Z " />
<path stroke="transparent" fill="#000000" transform="matrix(0.0833333 0 0 0.0833333 -46.25 -702.667)" d="M 8535.31,10415.2 L 8555.31,10415.2 L 8555.31,10932 L 8535.31,10932 L 8535.31,10415.2 Z " />
<path stroke="transparent" fill="#000000" transform="matrix(0.0833333 0 0 0.0833333 -46.25 -702.667)" d="M 8097.69,10085.1 L 8097.69,10062 L 8617.31,10362 L 8617.31,10373.6 L 8607.31,10379.4 L 8097.69,10085.1 Z " />
<path stroke="transparent" fill="#000000" transform="matrix(0.0833333 0 0 0.0833333 -46.25 -702.667)" d="M 7588.08,10379.4 L 7568.08,10367.8 L 8097.69,10062 L 8097.69,10085.1 L 7588.08,10379.4 Z " />
<path stroke="transparent" fill="#000000" transform="matrix(0.0833333 0 0 0.0833333 -46.25 -702.667)" d="M 7655.08,10423.8 L 7645.08,10406.5 L 8092.69,10148.1 L 8102.69,10165.4 L 7655.08,10423.8 Z " />
<path stroke="transparent" fill="#000000" transform="matrix(0.0833333 0 0 0.0833333 -46.25 -702.667)" d="M 7568.08,10367.8 L 7588.08,10379.4 L 7588.08,10967.8 L 7578.08,10973.6 L 7568.08,10967.8 L 7568.08,10367.8 Z " />
<path stroke="transparent" fill="#000000" transform="matrix(0.0833333 0 0 0.0833333 -46.25 -702.667)" d="M 9032.32,10122.4 L 9042.32,10139.7 L 8627.31,10379.4 L 8617.31,10373.6 L 8617.31,10362 L 9032.32,10122.4 Z " />
<path stroke="transparent" fill="#000000" transform="matrix(0.0833333 0 0 0.0833333 -46.25 -702.667)" d="M 9049.3,11211.4 L 9039.3,11228.8 L 8617.31,10985.1 L 8617.31,10973.6 L 8627.31,10967.8 L 9049.3,11211.4 Z " />
<path stroke="transparent" fill="#000000" transform="matrix(0.0833333 0 0 0.0833333 -46.25 -702.667)" d="M 5509.62,12668.4 L 5489.62,12668.4 L 5489.62,12179.4 L 5499.62,12173.6 L 5509.62,12179.4 L 5509.62,12668.4 Z " />
<path stroke="transparent" fill="#000000" transform="matrix(0.0833333 0 0 0.0833333 -46.25 -702.667)" d="M 4555.41,11040 L 4565.41,11022.7 L 4980,11262 L 4980,11273.6 L 4970,11279.4 L 4555.41,11040 Z " />
<path stroke="transparent" fill="#000000" transform="matrix(0.0833333 0 0 0.0833333 -46.25 -702.667)" d="M 6490.68,9134.23 L 6590.87,9215.17 L 6029.23,9479.89 L 6019.23,9473.58 L 6018.77,9461.77 L 6490.68,9134.23 Z " />
<path stroke="transparent" fill="#000000" transform="matrix(0.0833333 0 0 0.0833333 -46.25 -702.667)" d="M 6970.84,9411.45 L 6960.84,9428.77 L 6590.87,9215.17 L 6490.68,9134.23 L 6970.84,9411.45 Z " />
<path stroke="transparent" fill="#000000" transform="matrix(0.0833333 0 0 0.0833333 -46.25 -702.667)" d="M 5439.62,8693.42 L 5559.62,8693.42 L 5557.27,8713.42 L 5441.96,8713.42 L 5439.62,8693.42 Z " />
<path stroke="transparent" fill="#000000" transform="matrix(0.0833333 0 0 0.0833333 -46.25 -702.667)" d="M 5446.42,8751.44 L 5552.81,8751.44 L 5550.46,8771.44 L 5448.77,8771.44 L 5446.42,8751.44 Z " />
<path stroke="transparent" fill="#000000" transform="matrix(0.0833333 0 0 0.0833333 -46.25 -702.667)" d="M 5453.23,8809.46 L 5546,8809.46 L 5543.65,8829.46 L 5455.58,8829.46 L 5453.23,8809.46 Z " />
<path stroke="transparent" fill="#000000" transform="matrix(0.0833333 0 0 0.0833333 -46.25 -702.667)" d="M 5460.04,8867.48 L 5539.19,8867.48 L 5536.85,8887.48 L 5462.38,8887.48 L 5460.04,8867.48 Z " />
<path stroke="transparent" fill="#000000" transform="matrix(0.0833333 0 0 0.0833333 -46.25 -702.667)" d="M 5466.85,8925.5 L 5532.38,8925.5 L 5530.04,8945.5 L 5469.19,8945.5 L 5466.85,8925.5 Z " />
<path stroke="transparent" fill="#000000" transform="matrix(0.0833333 0 0 0.0833333 -46.25 -702.667)" d="M 5473.65,8983.52 L 5525.58,8983.52 L 5523.23,9003.52 L 5476,9003.52 L 5473.65,8983.52 Z " />
<path stroke="transparent" fill="#000000" transform="matrix(0.0833333 0 0 0.0833333 -46.25 -702.667)" d="M 5480.46,9041.54 L 5518.77,9041.54 L 5516.42,9061.54 L 5482.81,9061.54 L 5480.46,9041.54 Z " />
<path stroke="transparent" fill="#000000" transform="matrix(0.0833333 0 0 0.0833333 -46.25 -702.667)" d="M 5487.27,9099.56 L 5511.96,9099.56 L 5509.62,9119.56 L 5489.62,9119.56 L 5487.27,9099.56 Z " />
<path stroke="transparent" fill="#000000" transform="matrix(0.0833333 0 0 0.0833333 -46.25 -702.667)" d="M 4530.41,9283.3 L 4590.41,9179.37 L 4980.56,9461.71 L 4980,9473.58 L 4970,9480.01 L 4530.41,9283.3 Z " />
<path stroke="transparent" fill="#000000" transform="matrix(0.0833333 0 0 0.0833333 -46.25 -702.667)" d="M 920.688,11228.8 L 910.688,11211.5 L 1332.69,10967.8 L 1342.69,10973.6 L 1342.69,10985.1 L 920.688,11228.8 Z " />
</svg>
