<?xml version="1.0" standalone="no" ?>
<!DOCTYPE svg PUBLIC "-//W3C//DTD SVG 1.1//EN" "http://www.w3.org/Graphics/SVG/1.1/DTD/svg11.dtd">
<svg width="417px" height="498px" viewBox="0 0 417 498" style="background-color: #ffffff00" xmlns="http://www.w3.org/2000/svg" xmlns:xlink="http://www.w3.org/1999/xlink" version="1.1" >
<text x="0" y="0" stroke="transparent" fill="#000000" transform="matrix(0.0666667 0 0 0.0666667 324.927 354.235)" style="font:normal normal normal 200px 'Arial'" >
O</text>
<text x="0" y="0" stroke="transparent" fill="#000000" transform="matrix(0.0666667 0 0 0.0666667 255.641 354.239)" style="font:normal normal normal 200px 'Arial'" >
O</text>
<text x="0" y="0" stroke="transparent" fill="#000000" transform="matrix(0.0666667 0 0 0.0666667 324.927 314.238)" style="font:normal normal normal 200px 'Arial'" >
OH</text>
<text x="0" y="0" stroke="transparent" fill="#000000" transform="matrix(0.0666667 0 0 0.0666667 324.927 234.24)" style="font:normal normal normal 200px 'Arial'" >
O</text>
<text x="0" y="0" stroke="transparent" fill="#000000" transform="matrix(0.0666667 0 0 0.0666667 359.567 14.2357)" style="font:normal normal normal 200px 'Arial'" >
OH</text>
<text x="0" y="0" stroke="transparent" fill="#000000" transform="matrix(0.0666667 0 0 0.0666667 280.653 54.2365)" style="font:normal normal normal 200px 'Arial'" >
HO</text>
<text x="0" y="0" stroke="transparent" fill="#000000" transform="matrix(0.0666667 0 0 0.0666667 255.641 234.24)" style="font:normal normal normal 200px 'Arial'" >
O</text>
<text x="0" y="0" stroke="transparent" fill="#000000" transform="matrix(0.0666667 0 0 0.0666667 142.086 254.241)" style="font:normal normal normal 200px 'Arial'" >
HO</text>
<text x="0" y="0" stroke="transparent" fill="#000000" transform="matrix(0.0666667 0 0 0.0666667 186.36 314.238)" style="font:normal normal normal 200px 'Arial'" >
O</text>
<text x="0" y="0" stroke="transparent" fill="#000000" transform="matrix(0.0666667 0 0 0.0666667 221 374.24)" style="font:normal normal normal 200px 'Arial'" >
O</text>
<text x="0" y="0" stroke="transparent" fill="#000000" transform="matrix(0.0666667 0 0 0.0666667 3.52295 494.242)" style="font:normal normal normal 200px 'Arial'" >
HO</text>
<text x="0" y="0" stroke="transparent" fill="#000000" transform="matrix(0.0666667 0 0 0.0666667 3.52295 414.24)" style="font:normal normal normal 200px 'Arial'" >
HO</text>
<text x="0" y="0" stroke="transparent" fill="#000000" transform="matrix(0.0666667 0 0 0.0666667 246.012 434.237)" style="font:normal normal normal 200px 'Arial'" >
HO</text>
<text x="0" y="0" stroke="transparent" fill="#000000" transform="matrix(0.0666667 0 0 0.0666667 324.927 474.242)" style="font:normal normal normal 200px 'Arial'" >
OH</text>
<text x="0" y="0" stroke="transparent" fill="#000000" transform="matrix(0.0666667 0 0 0.0666667 394.208 434.237)" style="font:normal normal normal 200px 'Arial'" >
OH</text>
<path stroke="transparent" fill="#000000" transform="matrix(0.0666667 0 0 0.0666667 -139.92 -96.3333)" d="M 8059.92,6628.56 L 8119.92,6732.49 L 7580.31,6986.84 L 7570.31,6980.53 L 7569.85,6968.72 L 8059.92,6628.56 Z " />
<path stroke="transparent" fill="#000000" transform="matrix(0.0666667 0 0 0.0666667 -139.92 -96.3333)" d="M 7145.74,6746.94 L 7155.74,6729.62 L 7569.85,6968.72 L 7570.31,6980.53 L 7560.31,6986.31 L 7145.74,6746.94 Z " />
<path stroke="transparent" fill="#000000" transform="matrix(0.0666667 0 0 0.0666667 -139.92 -96.3333)" d="M 6946.1,6729.38 L 6956.1,6746.7 L 6541.03,6986.37 L 6521.03,6974.82 L 6946.1,6729.38 Z " />
<path stroke="transparent" fill="#000000" transform="matrix(0.0666667 0 0 0.0666667 -139.92 -96.3333)" d="M 6081.45,6790.3 L 6141.45,6686.38 L 6157.61,6698.39 L 6099.93,6798.29 L 6081.45,6790.3 Z " />
<path stroke="transparent" fill="#000000" transform="matrix(0.0666667 0 0 0.0666667 -139.92 -96.3333)" d="M 6135.64,6813.72 L 6188.83,6721.6 L 6204.98,6733.61 L 6154.12,6821.71 L 6135.64,6813.72 Z " />
<path stroke="transparent" fill="#000000" transform="matrix(0.0666667 0 0 0.0666667 -139.92 -96.3333)" d="M 6189.82,6837.14 L 6236.2,6756.81 L 6252.36,6768.83 L 6208.3,6845.13 L 6189.82,6837.14 Z " />
<path stroke="transparent" fill="#000000" transform="matrix(0.0666667 0 0 0.0666667 -139.92 -96.3333)" d="M 6244,6860.56 L 6283.57,6792.03 L 6299.73,6804.04 L 6262.48,6868.55 L 6244,6860.56 Z " />
<path stroke="transparent" fill="#000000" transform="matrix(0.0666667 0 0 0.0666667 -139.92 -96.3333)" d="M 6298.18,6883.98 L 6330.94,6827.25 L 6347.1,6839.26 L 6316.67,6891.97 L 6298.18,6883.98 Z " />
<path stroke="transparent" fill="#000000" transform="matrix(0.0666667 0 0 0.0666667 -139.92 -96.3333)" d="M 6352.37,6907.4 L 6378.31,6862.46 L 6394.47,6874.47 L 6370.85,6915.39 L 6352.37,6907.4 Z " />
<path stroke="transparent" fill="#000000" transform="matrix(0.0666667 0 0 0.0666667 -139.92 -96.3333)" d="M 6406.55,6930.82 L 6425.69,6897.68 L 6441.84,6909.69 L 6425.03,6938.81 L 6406.55,6930.82 Z " />
<path stroke="transparent" fill="#000000" transform="matrix(0.0666667 0 0 0.0666667 -139.92 -96.3333)" d="M 6460.73,6954.24 L 6473.06,6932.89 L 6489.22,6944.9 L 6479.22,6962.23 L 6460.73,6954.24 Z " />
<path stroke="transparent" fill="#000000" transform="matrix(0.0666667 0 0 0.0666667 -139.92 -96.3333)" d="M 6071.42,6575.42 L 5951.42,6575.42 L 6000.87,6086.03 L 6011.42,6080.57 L 6021.97,6086.03 L 6071.42,6575.42 Z " />
<path stroke="transparent" fill="#000000" transform="matrix(0.0666667 0 0 0.0666667 -139.92 -96.3333)" d="M 6021.97,6086.03 L 6011.42,6080.57 L 6011.42,6069.03 L 6521.03,5774.79 L 6541.03,5786.34 L 6021.97,6086.03 Z " />
<path stroke="transparent" fill="#000000" transform="matrix(0.0666667 0 0 0.0666667 -139.92 -96.3333)" d="M 6988.08,5975.14 L 6928.08,6079.07 L 6911.9,6067.09 L 6969.62,5967.11 L 6988.08,5975.14 Z " />
<path stroke="transparent" fill="#000000" transform="matrix(0.0666667 0 0 0.0666667 -139.92 -96.3333)" d="M 6932.82,5951.11 L 6879.64,6043.23 L 6863.46,6031.26 L 6914.36,5943.08 L 6932.82,5951.11 Z " />
<path stroke="transparent" fill="#000000" transform="matrix(0.0666667 0 0 0.0666667 -139.92 -96.3333)" d="M 6877.56,5927.08 L 6831.2,6007.39 L 6815.01,5995.42 L 6859.1,5919.06 L 6877.56,5927.08 Z " />
<path stroke="transparent" fill="#000000" transform="matrix(0.0666667 0 0 0.0666667 -139.92 -96.3333)" d="M 6822.3,5903.05 L 6782.75,5971.55 L 6766.57,5959.58 L 6803.84,5895.03 L 6822.3,5903.05 Z " />
<path stroke="transparent" fill="#000000" transform="matrix(0.0666667 0 0 0.0666667 -139.92 -96.3333)" d="M 6767.04,5879.02 L 6734.31,5935.72 L 6718.13,5923.74 L 6748.58,5871 L 6767.04,5879.02 Z " />
<path stroke="transparent" fill="#000000" transform="matrix(0.0666667 0 0 0.0666667 -139.92 -96.3333)" d="M 6711.78,5854.99 L 6685.87,5899.88 L 6669.69,5887.91 L 6693.32,5846.97 L 6711.78,5854.99 Z " />
<path stroke="transparent" fill="#000000" transform="matrix(0.0666667 0 0 0.0666667 -139.92 -96.3333)" d="M 6656.52,5830.97 L 6637.43,5864.04 L 6621.25,5852.07 L 6638.06,5822.94 L 6656.52,5830.97 Z " />
<path stroke="transparent" fill="#000000" transform="matrix(0.0666667 0 0 0.0666667 -139.92 -96.3333)" d="M 6601.26,5806.94 L 6588.99,5828.2 L 6572.8,5816.23 L 6582.8,5798.91 L 6601.26,5806.94 Z " />
<path stroke="transparent" fill="#000000" transform="matrix(0.0666667 0 0 0.0666667 -139.92 -96.3333)" d="M 6541.03,5786.34 L 6521.03,5774.79 L 6521.03,5186.39 L 6531.03,5180.61 L 6541.03,5187.04 L 6541.03,5786.34 Z " />
<path stroke="transparent" fill="#000000" transform="matrix(0.0666667 0 0 0.0666667 -139.92 -96.3333)" d="M 6921.1,4886.15 L 6981.09,4990.07 L 6541.03,5187.04 L 6531.03,5180.61 L 6530.47,5168.74 L 6921.1,4886.15 Z " />
<path stroke="transparent" fill="#000000" transform="matrix(0.0666667 0 0 0.0666667 -139.92 -96.3333)" d="M 7040.7,4274.82 L 7060.7,4286.37 L 7060.7,4775.44 L 7040.7,4775.44 L 7040.7,4274.82 Z " />
<path stroke="transparent" fill="#000000" transform="matrix(0.0666667 0 0 0.0666667 -139.92 -96.3333)" d="M 7560.31,3974.81 L 7580.31,3986.36 L 7060.7,4286.37 L 7040.7,4274.82 L 7560.31,3974.81 Z " />
<path stroke="transparent" fill="#000000" transform="matrix(0.0666667 0 0 0.0666667 -139.92 -96.3333)" d="M 7560.31,3386.35 L 7570.31,3380.57 L 7580.31,3386.35 L 7580.31,3986.36 L 7560.31,3974.81 L 7560.31,3386.35 Z " />
<path stroke="transparent" fill="#000000" transform="matrix(0.0666667 0 0 0.0666667 -139.92 -96.3333)" d="M 8079.92,3074.79 L 8099.92,3086.34 L 7580.31,3386.35 L 7570.31,3380.57 L 7570.31,3369.03 L 8079.92,3074.79 Z " />
<path stroke="transparent" fill="#000000" transform="matrix(0.0666667 0 0 0.0666667 -139.92 -96.3333)" d="M 8012.92,3030.34 L 8022.92,3047.66 L 7575.31,3306.1 L 7565.31,3288.77 L 8012.92,3030.34 Z " />
<path stroke="transparent" fill="#000000" transform="matrix(0.0666667 0 0 0.0666667 -139.92 -96.3333)" d="M 8079.92,2486.33 L 8099.92,2474.78 L 8099.92,3086.34 L 8079.92,3074.79 L 8079.92,2486.33 Z " />
<path stroke="transparent" fill="#000000" transform="matrix(0.0666667 0 0 0.0666667 -139.92 -96.3333)" d="M 7570.31,2192.09 L 7570.31,2180.55 L 7580.31,2174.77 L 8099.92,2474.78 L 8079.92,2486.33 L 7570.31,2192.09 Z " />
<path stroke="transparent" fill="#000000" transform="matrix(0.0666667 0 0 0.0666667 -139.92 -96.3333)" d="M 7565.31,2272.35 L 7575.31,2255.03 L 8022.92,2513.46 L 8012.92,2530.78 L 7565.31,2272.35 Z " />
<path stroke="transparent" fill="#000000" transform="matrix(0.0666667 0 0 0.0666667 -139.92 -96.3333)" d="M 7560.31,1700.37 L 7580.31,1700.37 L 7580.31,2174.77 L 7570.31,2180.55 L 7560.31,2174.77 L 7560.31,1700.37 Z " />
<path stroke="transparent" fill="#000000" transform="matrix(0.0666667 0 0 0.0666667 -139.92 -96.3333)" d="M 7060.7,2486.33 L 7050.7,2480.55 L 7050.7,2469.01 L 7560.31,2174.77 L 7570.31,2180.55 L 7570.31,2192.09 L 7060.7,2486.33 Z " />
<path stroke="transparent" fill="#000000" transform="matrix(0.0666667 0 0 0.0666667 -139.92 -96.3333)" d="M 6626.06,2246.96 L 6636.06,2229.63 L 7050.7,2469.01 L 7050.7,2480.55 L 7040.7,2486.33 L 6626.06,2246.96 Z " />
<path stroke="transparent" fill="#000000" transform="matrix(0.0666667 0 0 0.0666667 -139.92 -96.3333)" d="M 7060.7,3074.79 L 7040.7,3086.34 L 7040.7,2486.33 L 7050.7,2480.55 L 7060.7,2486.33 L 7060.7,3074.79 Z " />
<path stroke="transparent" fill="#000000" transform="matrix(0.0666667 0 0 0.0666667 -139.92 -96.3333)" d="M 7132.7,3039 L 7112.7,3039 L 7112.7,2522.12 L 7132.7,2522.12 L 7132.7,3039 Z " />
<path stroke="transparent" fill="#000000" transform="matrix(0.0666667 0 0 0.0666667 -139.92 -96.3333)" d="M 7040.7,3086.34 L 7060.7,3074.79 L 7570.31,3369.03 L 7570.31,3380.57 L 7560.31,3386.35 L 7040.7,3086.34 Z " />
<path stroke="transparent" fill="#000000" transform="matrix(0.0666667 0 0 0.0666667 -139.92 -96.3333)" d="M 6106.45,4947.02 L 6116.45,4929.7 L 6530.47,5168.74 L 6531.03,5180.61 L 6521.03,5186.39 L 6106.45,4947.02 Z " />
<path stroke="transparent" fill="#000000" transform="matrix(0.0666667 0 0 0.0666667 -139.92 -96.3333)" d="M 5906.81,4929.45 L 5916.81,4946.77 L 5501.81,5186.39 L 5491.81,5180.61 L 5492.26,5168.8 L 5906.81,4929.45 Z " />
<path stroke="transparent" fill="#000000" transform="matrix(0.0666667 0 0 0.0666667 -139.92 -96.3333)" d="M 4920.17,4922.19 L 5020.36,4841.25 L 5492.26,5168.8 L 5491.81,5180.61 L 5481.81,5186.92 L 4920.17,4922.19 Z " />
<path stroke="transparent" fill="#000000" transform="matrix(0.0666667 0 0 0.0666667 -139.92 -96.3333)" d="M 4550.13,5135.81 L 4540.14,5118.49 L 5020.36,4841.25 L 4920.17,4922.19 L 4550.13,5135.81 Z " />
<path stroke="transparent" fill="#000000" transform="matrix(0.0666667 0 0 0.0666667 -139.92 -96.3333)" d="M 5481.81,5186.92 L 5491.81,5180.61 L 5501.81,5186.39 L 5501.81,5774.79 L 5481.81,5786.34 L 5481.81,5186.92 Z " />
<path stroke="transparent" fill="#000000" transform="matrix(0.0666667 0 0 0.0666667 -139.92 -96.3333)" d="M 5481.81,5786.34 L 5501.81,5774.79 L 6011.42,6069.03 L 6011.42,6080.57 L 6000.87,6086.03 L 5481.81,5786.34 Z " />
<path stroke="transparent" fill="#000000" transform="matrix(0.0666667 0 0 0.0666667 -139.92 -96.3333)" d="M 5094.81,6079.06 L 5034.81,5975.14 L 5053.27,5967.11 L 5110.99,6067.09 L 5094.81,6079.06 Z " />
<path stroke="transparent" fill="#000000" transform="matrix(0.0666667 0 0 0.0666667 -139.92 -96.3333)" d="M 5143.25,6043.22 L 5090.06,5951.11 L 5108.52,5943.08 L 5159.43,6031.25 L 5143.25,6043.22 Z " />
<path stroke="transparent" fill="#000000" transform="matrix(0.0666667 0 0 0.0666667 -139.92 -96.3333)" d="M 5191.68,6007.39 L 5145.32,5927.08 L 5163.77,5919.05 L 5207.86,5995.41 L 5191.68,6007.39 Z " />
<path stroke="transparent" fill="#000000" transform="matrix(0.0666667 0 0 0.0666667 -139.92 -96.3333)" d="M 5240.12,5971.55 L 5200.57,5903.05 L 5219.03,5895.02 L 5256.3,5959.58 L 5240.12,5971.55 Z " />
<path stroke="transparent" fill="#000000" transform="matrix(0.0666667 0 0 0.0666667 -139.92 -96.3333)" d="M 5288.55,5935.71 L 5255.82,5879.02 L 5274.28,5871 L 5304.73,5923.74 L 5288.55,5935.71 Z " />
<path stroke="transparent" fill="#000000" transform="matrix(0.0666667 0 0 0.0666667 -139.92 -96.3333)" d="M 5336.99,5899.88 L 5311.07,5854.99 L 5329.53,5846.97 L 5353.17,5887.9 L 5336.99,5899.88 Z " />
<path stroke="transparent" fill="#000000" transform="matrix(0.0666667 0 0 0.0666667 -139.92 -96.3333)" d="M 5385.42,5864.04 L 5366.32,5830.97 L 5384.78,5822.94 L 5401.6,5852.07 L 5385.42,5864.04 Z " />
<path stroke="transparent" fill="#000000" transform="matrix(0.0666667 0 0 0.0666667 -139.92 -96.3333)" d="M 5433.85,5828.2 L 5421.58,5806.94 L 5440.04,5798.91 L 5450.04,5816.23 L 5433.85,5828.2 Z " />
<path stroke="transparent" fill="#000000" transform="matrix(0.0666667 0 0 0.0666667 -139.92 -96.3333)" d="M 4982.19,6686.36 L 4962.19,6674.81 L 4962.19,6200.41 L 4982.19,6200.41 L 4982.19,6686.36 Z " />
<path stroke="transparent" fill="#000000" transform="matrix(0.0666667 0 0 0.0666667 -139.92 -96.3333)" d="M 5422.19,6887.28 L 5412.19,6904.6 L 4967.19,6647.68 L 4977.19,6630.36 L 5422.19,6887.28 Z " />
<path stroke="transparent" fill="#000000" transform="matrix(0.0666667 0 0 0.0666667 -139.92 -96.3333)" d="M 5386.19,6949.63 L 5376.19,6966.95 L 4931.19,6710.03 L 4941.19,6692.71 L 5386.19,6949.63 Z " />
<path stroke="transparent" fill="#000000" transform="matrix(0.0666667 0 0 0.0666667 -139.92 -96.3333)" d="M 4462.52,6986.31 L 4442.52,6974.76 L 4962.19,6674.81 L 4982.19,6686.36 L 4462.52,6986.31 Z " />
<path stroke="transparent" fill="#000000" transform="matrix(0.0666667 0 0 0.0666667 -139.92 -96.3333)" d="M 4462.52,7586.32 L 4442.52,7574.77 L 4442.52,6974.76 L 4462.52,6986.31 L 4462.52,7586.32 Z " />
<path stroke="transparent" fill="#000000" transform="matrix(0.0666667 0 0 0.0666667 -139.92 -96.3333)" d="M 4534.52,7580.55 L 4514.52,7580.55 L 4514.52,7022.11 L 4534.52,7022.11 L 4534.52,7580.55 Z " />
<path stroke="transparent" fill="#000000" transform="matrix(0.0666667 0 0 0.0666667 -139.92 -96.3333)" d="M 3942.91,7886.38 L 3932.91,7880.61 L 3932.91,7869.06 L 4442.52,7574.77 L 4462.52,7586.32 L 3942.91,7886.38 Z " />
<path stroke="transparent" fill="#000000" transform="matrix(0.0666667 0 0 0.0666667 -139.92 -96.3333)" d="M 3942.91,8486.4 L 3922.91,8474.85 L 3922.91,7886.39 L 3932.91,7880.61 L 3942.91,7886.38 L 3942.91,8486.4 Z " />
<path stroke="transparent" fill="#000000" transform="matrix(0.0666667 0 0 0.0666667 -139.92 -96.3333)" d="M 3870.91,8439.06 L 3850.91,8439.06 L 3850.91,7922.18 L 3870.91,7922.18 L 3870.91,8439.06 Z " />
<path stroke="transparent" fill="#000000" transform="matrix(0.0666667 0 0 0.0666667 -139.92 -96.3333)" d="M 3413.3,8792.18 L 3413.3,8769.08 L 3922.91,8474.85 L 3942.91,8486.4 L 3413.3,8792.18 Z " />
<path stroke="transparent" fill="#000000" transform="matrix(0.0666667 0 0 0.0666667 -139.92 -96.3333)" d="M 2893.69,8492.17 L 2893.69,8480.63 L 2903.69,8474.85 L 3413.3,8769.08 L 3413.3,8792.18 L 2893.69,8492.17 Z " />
<path stroke="transparent" fill="#000000" transform="matrix(0.0666667 0 0 0.0666667 -139.92 -96.3333)" d="M 2960.69,8447.72 L 2970.69,8430.4 L 3418.3,8688.83 L 3408.3,8706.15 L 2960.69,8447.72 Z " />
<path stroke="transparent" fill="#000000" transform="matrix(0.0666667 0 0 0.0666667 -139.92 -96.3333)" d="M 2471.69,8735.82 L 2461.69,8718.5 L 2883.69,8474.85 L 2893.69,8480.63 L 2893.69,8492.17 L 2471.69,8735.82 Z " />
<path stroke="transparent" fill="#000000" transform="matrix(0.0666667 0 0 0.0666667 -139.92 -96.3333)" d="M 2883.69,7886.39 L 2893.69,7880.61 L 2903.69,7886.39 L 2903.69,8474.85 L 2893.69,8480.63 L 2883.69,8474.85 L 2883.69,7886.39 Z " />
<path stroke="transparent" fill="#000000" transform="matrix(0.0666667 0 0 0.0666667 -139.92 -96.3333)" d="M 2469.11,7647.02 L 2479.11,7629.7 L 2893.69,7869.06 L 2893.69,7880.61 L 2883.69,7886.39 L 2469.11,7647.02 Z " />
<path stroke="transparent" fill="#000000" transform="matrix(0.0666667 0 0 0.0666667 -139.92 -96.3333)" d="M 3413.3,7569.06 L 3413.3,7592.15 L 2903.69,7886.39 L 2893.69,7880.61 L 2893.69,7869.06 L 3413.3,7569.06 Z " />
<path stroke="transparent" fill="#000000" transform="matrix(0.0666667 0 0 0.0666667 -139.92 -96.3333)" d="M 3408.3,7655.08 L 3418.3,7672.4 L 2970.69,7930.84 L 2960.69,7913.52 L 3408.3,7655.08 Z " />
<path stroke="transparent" fill="#000000" transform="matrix(0.0666667 0 0 0.0666667 -139.92 -96.3333)" d="M 3413.3,7592.15 L 3413.3,7569.06 L 3932.91,7869.06 L 3932.91,7880.61 L 3922.91,7886.39 L 3413.3,7592.15 Z " />
<path stroke="transparent" fill="#000000" transform="matrix(0.0666667 0 0 0.0666667 -139.92 -96.3333)" d="M 6521.03,6974.82 L 6541.03,6986.37 L 6541.03,7574.77 L 6531.03,7580.55 L 6521.03,7574.13 L 6521.03,6974.82 Z " />
<path stroke="transparent" fill="#000000" transform="matrix(0.0666667 0 0 0.0666667 -139.92 -96.3333)" d="M 6134.03,7879.04 L 6074.03,7775.12 L 6521.03,7574.13 L 6531.03,7580.55 L 6531.58,7592.41 L 6134.03,7879.04 Z " />
<path stroke="transparent" fill="#000000" transform="matrix(0.0666667 0 0 0.0666667 -139.92 -96.3333)" d="M 6531.58,7592.41 L 6531.03,7580.55 L 6541.03,7574.77 L 7050.7,7869.06 L 7050.7,7880.61 L 7040.15,7886.07 L 6531.58,7592.41 Z " />
<path stroke="transparent" fill="#000000" transform="matrix(0.0666667 0 0 0.0666667 -139.92 -96.3333)" d="M 7110.7,8375.46 L 6990.7,8375.46 L 7040.15,7886.07 L 7050.7,7880.61 L 7061.25,7886.07 L 7110.7,8375.46 Z " />
<path stroke="transparent" fill="#000000" transform="matrix(0.0666667 0 0 0.0666667 -139.92 -96.3333)" d="M 7061.25,7886.07 L 7050.7,7880.61 L 7050.7,7869.06 L 7560.31,7574.77 L 7580.31,7586.32 L 7061.25,7886.07 Z " />
<path stroke="transparent" fill="#000000" transform="matrix(0.0666667 0 0 0.0666667 -139.92 -96.3333)" d="M 7580.31,7586.32 L 7560.31,7574.77 L 7560.31,6986.31 L 7570.31,6980.53 L 7580.31,6986.84 L 7580.31,7586.32 Z " />
<path stroke="transparent" fill="#000000" transform="matrix(0.0666667 0 0 0.0666667 -139.92 -96.3333)" d="M 8027.3,7775.12 L 7967.3,7879.04 L 7951.12,7867.07 L 8008.85,7767.09 L 8027.3,7775.12 Z " />
<path stroke="transparent" fill="#000000" transform="matrix(0.0666667 0 0 0.0666667 -139.92 -96.3333)" d="M 7972.05,7751.09 L 7918.87,7843.2 L 7902.69,7831.23 L 7953.59,7743.06 L 7972.05,7751.09 Z " />
<path stroke="transparent" fill="#000000" transform="matrix(0.0666667 0 0 0.0666667 -139.92 -96.3333)" d="M 7916.8,7727.06 L 7870.43,7807.37 L 7854.25,7795.39 L 7898.34,7719.03 L 7916.8,7727.06 Z " />
<path stroke="transparent" fill="#000000" transform="matrix(0.0666667 0 0 0.0666667 -139.92 -96.3333)" d="M 7861.55,7703.03 L 7822,7771.53 L 7805.82,7759.56 L 7843.09,7695 L 7861.55,7703.03 Z " />
<path stroke="transparent" fill="#000000" transform="matrix(0.0666667 0 0 0.0666667 -139.92 -96.3333)" d="M 7806.3,7679 L 7773.57,7735.69 L 7757.38,7723.72 L 7787.84,7670.97 L 7806.3,7679 Z " />
<path stroke="transparent" fill="#000000" transform="matrix(0.0666667 0 0 0.0666667 -139.92 -96.3333)" d="M 7751.04,7654.97 L 7725.13,7699.86 L 7708.95,7687.88 L 7732.59,7646.95 L 7751.04,7654.97 Z " />
<path stroke="transparent" fill="#000000" transform="matrix(0.0666667 0 0 0.0666667 -139.92 -96.3333)" d="M 7695.79,7630.94 L 7676.7,7664.02 L 7660.52,7652.05 L 7677.33,7622.92 L 7695.79,7630.94 Z " />
<path stroke="transparent" fill="#000000" transform="matrix(0.0666667 0 0 0.0666667 -139.92 -96.3333)" d="M 7640.54,7606.92 L 7628.26,7628.18 L 7612.08,7616.21 L 7622.08,7598.89 L 7640.54,7606.92 Z " />
</svg>
