<?xml version="1.0"?><svg xmlns="http://www.w3.org/2000/svg" xmlns:xlink="http://www.w3.org/1999/xlink" viewBox="170.35 275.4 182.62 140.3" preserveAspectRatio="xMidYMid" width="100%" height="100%"><clipPath id="798"><rect x="0.5" y="0.5" width="522.32" height="768.92" /></clipPath><g id="drawing"><rect x="170.35" y="275.4" width="100%" height="100%" fill="rgb(255, 255, 255)" /><g id="page" clip-path="url(#798)"><g><text xml:space="preserve" text-anchor="start" text-rendering="geometricPrecision"><tspan x="218.66" y="313.8" font-family="Arial" font-size="10" fill="rgb(0, 0, 0)">O</tspan></text></g><g><text xml:space="preserve" text-anchor="start" text-rendering="geometricPrecision"><tspan x="270.62" y="283.8" font-family="Arial" font-size="10" fill="rgb(0, 0, 0)">O</tspan></text></g><g id="Solid"><path d="M197.08 355.12 L197.08 355.12 L196.58 355.12 L196.08 355.12 L196.08 325.41 L196.58 325.12 L197.08 325.41 Z" stroke="rgb(0, 0, 0)" stroke-width="0" fill-rule="evenodd" stroke-linejoin="miter" fill="rgb(0, 0, 0)" shape-rendering="geometricPrecision" /></g><g id="Solid"><path d="M196.58 324.54 L196.58 324.54 L196.58 325.12 L196.08 325.41 L170.35 310.55 L170.6 310.12 L170.85 309.69 Z" stroke="rgb(0, 0, 0)" stroke-width="0" fill-rule="evenodd" stroke-linejoin="miter" fill="rgb(0, 0, 0)" shape-rendering="geometricPrecision" /></g><g id="Solid"><path d="M197.08 325.41 L197.08 325.41 L196.58 325.12 L196.58 324.54 L217.42 312.51 L217.67 312.94 L217.92 313.38 Z" stroke="rgb(0, 0, 0)" stroke-width="0" fill-rule="evenodd" stroke-linejoin="miter" fill="rgb(0, 0, 0)" shape-rendering="geometricPrecision" /></g><g id="Solid"><path d="M227.38 313.48 L227.38 313.48 L227.63 313.05 L227.88 312.62 L248.54 324.54 L248.54 325.12 L248.04 325.41 Z" stroke="rgb(0, 0, 0)" stroke-width="0" fill-rule="evenodd" stroke-linejoin="miter" fill="rgb(0, 0, 0)" shape-rendering="geometricPrecision" /></g><g id="Solid"><path d="M248.04 325.41 L248.04 325.41 L248.54 325.12 L249.04 325.41 L249.04 354.83 L248.54 355.12 L248.04 354.83 Z" stroke="rgb(0, 0, 0)" stroke-width="0" fill-rule="evenodd" stroke-linejoin="miter" fill="rgb(0, 0, 0)" shape-rendering="geometricPrecision" /></g><g id="Solid"><path d="M248.54 355.7 L248.54 355.7 L248.54 355.12 L249.04 354.83 L275.03 369.83 L274.53 370.12 L274.03 370.41 Z" stroke="rgb(0, 0, 0)" stroke-width="0" fill-rule="evenodd" stroke-linejoin="miter" fill="rgb(0, 0, 0)" shape-rendering="geometricPrecision" /><line x1="248.54" y1="359.28" x2="270.93" y2="372.2" stroke="rgb(0, 0, 0)" stroke-width="1" shape-rendering="auto" /></g><g id="Solid"><path d="M274.03 370.41 L274.03 370.41 L274.53 370.12 L275.03 369.83 L275.03 400.41 L274.53 400.12 L274.03 399.83 Z" stroke="rgb(0, 0, 0)" stroke-width="0" fill-rule="evenodd" stroke-linejoin="miter" fill="rgb(0, 0, 0)" shape-rendering="geometricPrecision" /></g><g id="Solid"><path d="M274.03 399.83 L274.03 399.83 L274.53 400.12 L275.03 400.41 L248.54 415.7 L248.54 415.12 L248.54 414.54 Z" stroke="rgb(0, 0, 0)" stroke-width="0" fill-rule="evenodd" stroke-linejoin="miter" fill="rgb(0, 0, 0)" shape-rendering="geometricPrecision" /><line x1="270.93" y1="398.04" x2="248.54" y2="410.96" stroke="rgb(0, 0, 0)" stroke-width="1" shape-rendering="auto" /></g><g id="Solid"><path d="M248.54 414.54 L248.54 414.54 L248.54 415.12 L248.54 415.7 L222.06 400.41 L222.56 400.12 L223.06 399.83 Z" stroke="rgb(0, 0, 0)" stroke-width="0" fill-rule="evenodd" stroke-linejoin="miter" fill="rgb(0, 0, 0)" shape-rendering="geometricPrecision" /></g><g id="Solid"><path d="M223.06 399.83 L223.06 399.83 L222.56 400.12 L222.06 400.41 L222.06 369.83 L222.56 370.12 L223.06 370.41 Z" stroke="rgb(0, 0, 0)" stroke-width="0" fill-rule="evenodd" stroke-linejoin="miter" fill="rgb(0, 0, 0)" shape-rendering="geometricPrecision" /><line x1="226.16" y1="398.04" x2="226.16" y2="372.2" stroke="rgb(0, 0, 0)" stroke-width="1" shape-rendering="auto" /></g><g id="Solid"><path d="M248.04 354.83 L248.04 354.83 L248.54 355.12 L248.54 355.7 L223.06 370.41 L222.56 370.12 L222.06 369.83 Z" stroke="rgb(0, 0, 0)" stroke-width="0" fill-rule="evenodd" stroke-linejoin="miter" fill="rgb(0, 0, 0)" shape-rendering="geometricPrecision" /></g><g id="Solid"><path d="M249.04 325.41 L249.04 325.41 L248.54 325.12 L248.54 324.54 L274.53 309.54 L274.53 310.12 L274.53 310.7 Z" stroke="rgb(0, 0, 0)" stroke-width="0" fill-rule="evenodd" stroke-linejoin="miter" fill="rgb(0, 0, 0)" shape-rendering="geometricPrecision" /></g><g id="Solid"><line x1="272.73" y1="310.12" x2="272.73" y2="286" stroke="rgb(0, 0, 0)" stroke-width="1" shape-rendering="auto" /><path d="M275.83 310.29 L275.83 310.29 L276.83 310.87 L276.83 286 L275.83 286 Z" stroke="rgb(0, 0, 0)" stroke-width="0" fill-rule="evenodd" stroke-linejoin="miter" fill="rgb(0, 0, 0)" shape-rendering="geometricPrecision" /><path d="M272.23 310.87 L272.23 310.87 L273.23 310.29 L273.23 286 L272.23 286 Z" stroke="rgb(0, 0, 0)" stroke-width="0" fill-rule="evenodd" stroke-linejoin="miter" fill="rgb(0, 0, 0)" shape-rendering="geometricPrecision" /></g><g id="Solid"><path d="M274.53 310.7 L274.53 310.7 L274.53 310.12 L274.53 309.54 L300.51 324.54 L300.51 325.12 L300.01 325.41 Z" stroke="rgb(0, 0, 0)" stroke-width="0" fill-rule="evenodd" stroke-linejoin="miter" fill="rgb(0, 0, 0)" shape-rendering="geometricPrecision" /></g><g id="Solid"><path d="M301.01 325.41 L301.01 325.41 L300.51 325.12 L300.51 324.54 L326.49 309.54 L326.49 310.12 L326.49 310.7 Z" stroke="rgb(0, 0, 0)" stroke-width="0" fill-rule="evenodd" stroke-linejoin="miter" fill="rgb(0, 0, 0)" shape-rendering="geometricPrecision" /><line x1="304.11" y1="327.2" x2="326.49" y2="314.28" stroke="rgb(0, 0, 0)" stroke-width="1" shape-rendering="auto" /></g><g id="Solid"><path d="M326.49 310.7 L326.49 310.7 L326.49 310.12 L326.49 309.54 L352.97 324.83 L352.47 325.12 L351.97 325.41 Z" stroke="rgb(0, 0, 0)" stroke-width="0" fill-rule="evenodd" stroke-linejoin="miter" fill="rgb(0, 0, 0)" shape-rendering="geometricPrecision" /></g><g id="Solid"><path d="M351.97 325.41 L351.97 325.41 L352.47 325.12 L352.97 324.83 L352.97 355.41 L352.47 355.12 L351.97 354.83 Z" stroke="rgb(0, 0, 0)" stroke-width="0" fill-rule="evenodd" stroke-linejoin="miter" fill="rgb(0, 0, 0)" shape-rendering="geometricPrecision" /><line x1="348.87" y1="327.2" x2="348.87" y2="353.04" stroke="rgb(0, 0, 0)" stroke-width="1" shape-rendering="auto" /></g><g id="Solid"><path d="M351.97 354.83 L351.97 354.83 L352.47 355.12 L352.97 355.41 L326.49 370.7 L326.49 370.12 L326.49 369.54 Z" stroke="rgb(0, 0, 0)" stroke-width="0" fill-rule="evenodd" stroke-linejoin="miter" fill="rgb(0, 0, 0)" shape-rendering="geometricPrecision" /></g><g id="Solid"><path d="M326.49 369.54 L326.49 369.54 L326.49 370.12 L326.49 370.7 L300.01 355.41 L300.51 355.12 L301.01 354.83 Z" stroke="rgb(0, 0, 0)" stroke-width="0" fill-rule="evenodd" stroke-linejoin="miter" fill="rgb(0, 0, 0)" shape-rendering="geometricPrecision" /><line x1="326.49" y1="365.96" x2="304.11" y2="353.04" stroke="rgb(0, 0, 0)" stroke-width="1" shape-rendering="auto" /></g><g id="Solid"><path d="M300.01 325.41 L300.01 325.41 L300.51 325.12 L301.01 325.41 L301.01 354.83 L300.51 355.12 L300.01 355.41 Z" stroke="rgb(0, 0, 0)" stroke-width="0" fill-rule="evenodd" stroke-linejoin="miter" fill="rgb(0, 0, 0)" shape-rendering="geometricPrecision" /></g></g></g></svg>