<?xml version="1.0" standalone="no" ?>
<!DOCTYPE svg PUBLIC "-//W3C//DTD SVG 1.1//EN" "http://www.w3.org/Graphics/SVG/1.1/DTD/svg11.dtd">
<svg width="434px" height="247px" viewBox="0 0 434 247" style="background-color: #ffffff00" xmlns="http://www.w3.org/2000/svg" xmlns:xlink="http://www.w3.org/1999/xlink" version="1.1" >
<text x="0" y="0" stroke="transparent" fill="#000000" transform="matrix(0.0833333 0 0 0.0833333 188.619 242.676)" style="font:normal normal normal 200px 'Arial'" >
O</text>
<text x="0" y="0" stroke="transparent" fill="#000000" transform="matrix(0.0833333 0 0 0.0833333 405.129 17.673)" style="font:normal normal normal 200px 'Arial'" >
OH</text>
<text x="0" y="0" stroke="transparent" fill="#000000" transform="matrix(0.0833333 0 0 0.0833333 188.62 92.6777)" style="font:normal normal normal 200px 'Arial'" >
O</text>
<text x="0" y="0" stroke="transparent" fill="#000000" transform="matrix(0.0833333 0 0 0.0833333 3.37383 92.6738)" style="font:normal normal normal 200px 'Arial'" >
HO</text>
<path stroke="transparent" fill="#000000" transform="matrix(0.0833333 0 0 0.0833333 -229.25 -284)" d="M 5046.43,5621.33 L 5066.43,5621.33 L 5066.43,6136.95 L 5046.43,6136.95 L 5046.43,5621.33 Z " />
<path stroke="transparent" fill="#000000" transform="matrix(0.0833333 0 0 0.0833333 -229.25 -284)" d="M 5118.43,5621.33 L 5138.43,5621.33 L 5138.43,6136.94 L 5118.43,6136.94 L 5118.43,5621.33 Z " />
<path stroke="transparent" fill="#000000" transform="matrix(0.0833333 0 0 0.0833333 -229.25 -284)" d="M 5602.05,5336.34 L 5622.04,5347.89 L 5092.43,5653.66 L 5092.43,5630.56 L 5602.05,5336.34 Z " />
<path stroke="transparent" fill="#000000" transform="matrix(0.0833333 0 0 0.0833333 -229.25 -284)" d="M 5602.07,4747.91 L 5612.07,4742.14 L 5622.07,4747.91 L 5622.04,5347.89 L 5602.05,5336.34 L 5602.07,4747.91 Z " />
<path stroke="transparent" fill="#000000" transform="matrix(0.0833333 0 0 0.0833333 -229.25 -284)" d="M 5530.07,4783.7 L 5550.07,4783.71 L 5550.05,5300.55 L 5530.05,5300.55 L 5530.07,4783.7 Z " />
<path stroke="transparent" fill="#000000" transform="matrix(0.0833333 0 0 0.0833333 -229.25 -284)" d="M 6121.68,4436.32 L 6131.68,4442.09 L 6131.68,4453.64 L 5622.07,4747.91 L 5612.07,4742.14 L 5612.07,4730.59 L 6121.68,4436.32 Z " />
<path stroke="transparent" fill="#000000" transform="matrix(0.0833333 0 0 0.0833333 -229.25 -284)" d="M 6651.3,4730.55 L 6651.3,4753.64 L 6131.68,4453.64 L 6131.68,4442.09 L 6141.68,4436.32 L 6651.3,4730.55 Z " />
<path stroke="transparent" fill="#000000" transform="matrix(0.0833333 0 0 0.0833333 -229.25 -284)" d="M 6656.3,4650.3 L 6646.3,4667.62 L 6198.68,4409.18 L 6208.68,4391.86 L 6656.3,4650.3 Z " />
<path stroke="transparent" fill="#000000" transform="matrix(0.0833333 0 0 0.0833333 -229.25 -284)" d="M 7160.92,4436.33 L 7180.92,4447.88 L 6651.3,4753.64 L 6651.3,4730.55 L 7160.92,4436.33 Z " />
<path stroke="transparent" fill="#000000" transform="matrix(0.0833333 0 0 0.0833333 -229.25 -284)" d="M 7160.91,3847.88 L 7170.91,3842.1 L 7180.91,3847.88 L 7180.92,4447.88 L 7160.92,4436.33 L 7160.91,3847.88 Z " />
<path stroke="transparent" fill="#000000" transform="matrix(0.0833333 0 0 0.0833333 -229.25 -284)" d="M 7088.92,3883.67 L 7108.92,3883.67 L 7108.92,4400.53 L 7088.92,4400.53 L 7088.92,3883.67 Z " />
<path stroke="transparent" fill="#000000" transform="matrix(0.0833333 0 0 0.0833333 -229.25 -284)" d="M 7585.95,3590.92 L 7595.95,3608.24 L 7180.91,3847.88 L 7170.91,3842.1 L 7170.91,3830.56 L 7585.95,3590.92 Z " />
<path stroke="transparent" fill="#000000" transform="matrix(0.0833333 0 0 0.0833333 -229.25 -284)" d="M 6651.29,3553.64 L 6651.29,3530.55 L 7170.91,3830.56 L 7170.91,3842.1 L 7160.91,3847.88 L 6651.29,3553.64 Z " />
<path stroke="transparent" fill="#000000" transform="matrix(0.0833333 0 0 0.0833333 -229.25 -284)" d="M 6141.7,3847.88 L 6121.7,3836.34 L 6651.29,3530.55 L 6651.29,3553.64 L 6141.7,3847.88 Z " />
<path stroke="transparent" fill="#000000" transform="matrix(0.0833333 0 0 0.0833333 -229.25 -284)" d="M 6208.7,3892.34 L 6198.7,3875.02 L 6646.29,3616.57 L 6656.29,3633.89 L 6208.7,3892.34 Z " />
<path stroke="transparent" fill="#000000" transform="matrix(0.0833333 0 0 0.0833333 -229.25 -284)" d="M 6121.7,3836.34 L 6141.7,3847.88 L 6141.68,4436.32 L 6131.68,4442.09 L 6121.68,4436.32 L 6121.7,3836.34 Z " />
<path stroke="transparent" fill="#000000" transform="matrix(0.0833333 0 0 0.0833333 -229.25 -284)" d="M 5187.48,4508.55 L 5197.48,4491.23 L 5612.07,4730.59 L 5612.07,4742.14 L 5602.07,4747.91 L 5187.48,4508.55 Z " />
<path stroke="transparent" fill="#000000" transform="matrix(0.0833333 0 0 0.0833333 -229.25 -284)" d="M 4582.83,4747.9 L 4572.83,4742.13 L 4572.83,4730.58 L 4987.84,4490.98 L 4997.84,4508.3 L 4582.83,4747.9 Z " />
<path stroke="transparent" fill="#000000" transform="matrix(0.0833333 0 0 0.0833333 -229.25 -284)" d="M 4053.2,4453.67 L 4053.2,4430.57 L 4572.83,4730.58 L 4572.83,4742.13 L 4562.83,4747.9 L 4053.2,4453.67 Z " />
<path stroke="transparent" fill="#000000" transform="matrix(0.0833333 0 0 0.0833333 -229.25 -284)" d="M 4048.2,4533.92 L 4058.2,4516.6 L 4505.82,4775.03 L 4495.82,4792.35 L 4048.2,4533.92 Z " />
<path stroke="transparent" fill="#000000" transform="matrix(0.0833333 0 0 0.0833333 -229.25 -284)" d="M 3543.55,4747.87 L 3533.55,4742.09 L 3533.55,4730.55 L 4053.2,4430.57 L 4053.2,4453.67 L 3543.55,4747.87 Z " />
<path stroke="transparent" fill="#000000" transform="matrix(0.0833333 0 0 0.0833333 -229.25 -284)" d="M 3108.95,4508.5 L 3118.95,4491.18 L 3533.55,4730.55 L 3533.55,4742.09 L 3523.55,4747.87 L 3108.95,4508.5 Z " />
<path stroke="transparent" fill="#000000" transform="matrix(0.0833333 0 0 0.0833333 -229.25 -284)" d="M 3543.55,5336.32 L 3523.55,5347.87 L 3523.55,4747.87 L 3533.55,4742.09 L 3543.55,4747.87 L 3543.55,5336.32 Z " />
<path stroke="transparent" fill="#000000" transform="matrix(0.0833333 0 0 0.0833333 -229.25 -284)" d="M 3615.55,5300.52 L 3595.55,5300.52 L 3595.55,4783.66 L 3615.55,4783.66 L 3615.55,5300.52 Z " />
<path stroke="transparent" fill="#000000" transform="matrix(0.0833333 0 0 0.0833333 -229.25 -284)" d="M 4053.18,5630.55 L 4053.18,5653.65 L 3523.55,5347.87 L 3543.55,5336.32 L 4053.18,5630.55 Z " />
<path stroke="transparent" fill="#000000" transform="matrix(0.0833333 0 0 0.0833333 -229.25 -284)" d="M 4562.8,5336.33 L 4572.8,5342.11 L 4572.8,5353.65 L 4053.18,5653.65 L 4053.18,5630.55 L 4562.8,5336.33 Z " />
<path stroke="transparent" fill="#000000" transform="matrix(0.0833333 0 0 0.0833333 -229.25 -284)" d="M 4495.8,5291.87 L 4505.8,5309.19 L 4058.18,5567.62 L 4048.18,5550.3 L 4495.8,5291.87 Z " />
<path stroke="transparent" fill="#000000" transform="matrix(0.0833333 0 0 0.0833333 -229.25 -284)" d="M 4572.8,5353.65 L 4572.8,5342.11 L 4582.8,5336.33 L 5092.43,5630.56 L 5092.43,5653.66 L 4572.8,5353.65 Z " />
<path stroke="transparent" fill="#000000" transform="matrix(0.0833333 0 0 0.0833333 -229.25 -284)" d="M 4582.8,5336.33 L 4572.8,5342.11 L 4562.8,5336.33 L 4562.83,4747.9 L 4572.83,4742.13 L 4582.83,4747.9 L 4582.8,5336.33 Z " />
</svg>
