<?xml version="1.0" standalone="no" ?>
<!DOCTYPE svg PUBLIC "-//W3C//DTD SVG 1.1//EN" "http://www.w3.org/Graphics/SVG/1.1/DTD/svg11.dtd">
<svg width="416px" height="171px" viewBox="0 0 416 171" style="background-color: #ffffff00" xmlns="http://www.w3.org/2000/svg" xmlns:xlink="http://www.w3.org/1999/xlink" version="1.1" >
<path stroke="transparent" fill="#000000" transform="matrix(0.0833333 0 0 0.0833333 -228.208 -274)" d="M 7684,3710.91 L 7674,3728.23 L 7254.42,3485.99 L 7264.42,3468.67 L 7684,3710.91 Z " />
<path stroke="transparent" fill="#000000" transform="matrix(0.0833333 0 0 0.0833333 -228.208 -274)" d="M 6120.19,3431.13 L 6120.19,3408.04 L 6639.76,3708.02 L 6639.76,3719.56 L 6629.76,3725.34 L 6120.19,3431.13 Z " />
<path stroke="transparent" fill="#000000" transform="matrix(0.0833333 0 0 0.0833333 -228.208 -274)" d="M 6120.19,3408.04 L 6120.19,3431.13 L 5610.57,3725.35 L 5600.57,3719.58 L 5600.57,3708.03 L 6120.19,3408.04 Z " />
<path stroke="transparent" fill="#000000" transform="matrix(0.0833333 0 0 0.0833333 -228.208 -274)" d="M 6115.19,3494.07 L 6125.19,3511.39 L 5677.57,3769.81 L 5667.57,3752.49 L 6115.19,3494.07 Z " />
<path stroke="transparent" fill="#000000" transform="matrix(0.0833333 0 0 0.0833333 -228.208 -274)" d="M 5590.57,3725.35 L 5600.57,3719.58 L 5610.57,3725.35 L 5610.58,4313.81 L 5600.58,4319.58 L 5590.58,4313.81 L 5590.57,3725.35 Z " />
<path stroke="transparent" fill="#000000" transform="matrix(0.0833333 0 0 0.0833333 -228.208 -274)" d="M 5600.57,3708.03 L 5600.57,3719.58 L 5590.57,3725.35 L 5175.93,3485.96 L 5185.93,3468.64 L 5600.57,3708.03 Z " />
<path stroke="transparent" fill="#000000" transform="matrix(0.0833333 0 0 0.0833333 -228.208 -274)" d="M 4976.29,3468.4 L 4986.29,3485.72 L 4571.32,3725.34 L 4561.32,3719.57 L 4561.32,3708.02 L 4976.29,3468.4 Z " />
<path stroke="transparent" fill="#000000" transform="matrix(0.0833333 0 0 0.0833333 -228.208 -274)" d="M 4551.32,3725.34 L 4561.32,3719.57 L 4571.32,3725.34 L 4571.33,4313.79 L 4561.33,4319.57 L 4551.33,4313.79 L 4551.32,3725.34 Z " />
<path stroke="transparent" fill="#000000" transform="matrix(0.0833333 0 0 0.0833333 -228.208 -274)" d="M 4561.32,3708.02 L 4561.32,3719.57 L 4551.32,3725.34 L 4041.65,3431.08 L 4041.64,3407.98 L 4561.32,3708.02 Z " />
<path stroke="transparent" fill="#000000" transform="matrix(0.0833333 0 0 0.0833333 -228.208 -274)" d="M 4494.32,3752.48 L 4484.32,3769.8 L 4036.65,3511.34 L 4046.65,3494.02 L 4494.32,3752.48 Z " />
<path stroke="transparent" fill="#000000" transform="matrix(0.0833333 0 0 0.0833333 -228.208 -274)" d="M 4041.64,3407.98 L 4041.65,3431.08 L 3532.08,3725.33 L 3512.08,3713.78 L 4041.64,3407.98 Z " />
<path stroke="transparent" fill="#000000" transform="matrix(0.0833333 0 0 0.0833333 -228.208 -274)" d="M 3512.08,3713.78 L 3532.08,3725.33 L 3532.06,4313.83 L 3522.06,4319.61 L 3512.06,4313.83 L 3512.08,3713.78 Z " />
<path stroke="transparent" fill="#000000" transform="matrix(0.0833333 0 0 0.0833333 -228.208 -274)" d="M 3584.08,3761.12 L 3604.08,3761.12 L 3604.06,4278.03 L 3584.06,4278.03 L 3584.08,3761.12 Z " />
<path stroke="transparent" fill="#000000" transform="matrix(0.0833333 0 0 0.0833333 -228.208 -274)" d="M 3100.05,4574.79 L 3090.05,4557.47 L 3512.06,4313.83 L 3522.06,4319.61 L 3522.06,4331.15 L 3100.05,4574.79 Z " />
<path stroke="transparent" fill="#000000" transform="matrix(0.0833333 0 0 0.0833333 -228.208 -274)" d="M 3522.06,4331.15 L 3522.06,4319.61 L 3532.06,4313.83 L 4041.68,4608.07 L 4041.68,4631.16 L 3522.06,4331.15 Z " />
<path stroke="transparent" fill="#000000" transform="matrix(0.0833333 0 0 0.0833333 -228.208 -274)" d="M 4041.68,4631.16 L 4041.68,4608.07 L 4551.33,4313.79 L 4561.33,4319.57 L 4561.33,4331.11 L 4041.68,4631.16 Z " />
<path stroke="transparent" fill="#000000" transform="matrix(0.0833333 0 0 0.0833333 -228.208 -274)" d="M 4046.68,4545.13 L 4036.68,4527.81 L 4484.32,4269.34 L 4494.33,4286.66 L 4046.68,4545.13 Z " />
<path stroke="transparent" fill="#000000" transform="matrix(0.0833333 0 0 0.0833333 -228.208 -274)" d="M 4561.33,4331.11 L 4561.33,4319.57 L 4571.33,4313.79 L 5080.96,4608.03 L 5080.96,4631.12 L 4561.33,4331.11 Z " />
<path stroke="transparent" fill="#000000" transform="matrix(0.0833333 0 0 0.0833333 -228.208 -274)" d="M 5126.94,5114.46 L 5106.94,5114.46 L 5106.96,4598.79 L 5126.96,4598.79 L 5126.94,5114.46 Z " />
<path stroke="transparent" fill="#000000" transform="matrix(0.0833333 0 0 0.0833333 -228.208 -274)" d="M 5054.94,5114.46 L 5034.94,5114.46 L 5034.96,4598.79 L 5054.96,4598.79 L 5054.94,5114.46 Z " />
<path stroke="transparent" fill="#000000" transform="matrix(0.0833333 0 0 0.0833333 -228.208 -274)" d="M 5080.96,4631.12 L 5080.96,4608.03 L 5590.58,4313.81 L 5600.58,4319.58 L 5600.58,4331.13 L 5080.96,4631.12 Z " />
<path stroke="transparent" fill="#000000" transform="matrix(0.0833333 0 0 0.0833333 -228.208 -274)" d="M 5600.58,4331.13 L 5600.58,4319.58 L 5610.58,4313.81 L 6120.2,4608.04 L 6120.2,4619.59 L 6110.2,4625.36 L 5600.58,4331.13 Z " />
<path stroke="transparent" fill="#000000" transform="matrix(0.0833333 0 0 0.0833333 -228.208 -274)" d="M 5667.58,4286.67 L 5677.58,4269.35 L 6125.2,4527.78 L 6115.2,4545.1 L 5667.58,4286.67 Z " />
<path stroke="transparent" fill="#000000" transform="matrix(0.0833333 0 0 0.0833333 -228.208 -274)" d="M 6130.17,5114.39 L 6110.17,5114.39 L 6110.2,4625.36 L 6120.2,4619.59 L 6130.2,4625.36 L 6130.17,5114.39 Z " />
<path stroke="transparent" fill="#000000" transform="matrix(0.0833333 0 0 0.0833333 -228.208 -274)" d="M 6130.2,4625.36 L 6120.2,4619.59 L 6120.2,4608.04 L 6629.77,4313.79 L 6649.77,4325.34 L 6130.2,4625.36 Z " />
<path stroke="transparent" fill="#000000" transform="matrix(0.0833333 0 0 0.0833333 -228.208 -274)" d="M 6649.77,4325.34 L 6629.77,4313.79 L 6629.76,3725.34 L 6639.76,3719.56 L 6649.76,3725.34 L 6649.77,4325.34 Z " />
<path stroke="transparent" fill="#000000" transform="matrix(0.0833333 0 0 0.0833333 -228.208 -274)" d="M 6577.77,4278 L 6557.77,4278 L 6557.76,3761.13 L 6577.76,3761.13 L 6577.77,4278 Z " />
<path stroke="transparent" fill="#000000" transform="matrix(0.0833333 0 0 0.0833333 -228.208 -274)" d="M 6649.76,3725.34 L 6639.76,3719.56 L 6639.76,3708.02 L 7054.78,3468.41 L 7064.78,3485.74 L 6649.76,3725.34 Z " />
<text x="0" y="0" stroke="transparent" fill="#000000" transform="matrix(0.0833333 0 0 0.0833333 188.699 17.462)" style="font:normal normal normal 200px 'Arial'" >
O</text>
<text x="0" y="0" stroke="transparent" fill="#000000" transform="matrix(0.0833333 0 0 0.0833333 3.45865 117.467)" style="font:normal normal normal 200px 'Arial'" >
HO</text>
<text x="0" y="0" stroke="transparent" fill="#000000" transform="matrix(0.0833333 0 0 0.0833333 188.703 167.469)" style="font:normal normal normal 200px 'Arial'" >
O</text>
<text x="0" y="0" stroke="transparent" fill="#000000" transform="matrix(0.0833333 0 0 0.0833333 275.305 167.463)" style="font:normal normal normal 200px 'Arial'" >
OH</text>
<text x="0" y="0" stroke="transparent" fill="#000000" transform="matrix(0.0833333 0 0 0.0833333 361.907 17.4642)" style="font:normal normal normal 200px 'Arial'" >
O</text>
</svg>
