<?xml version="1.0" standalone="no" ?>
<!DOCTYPE svg PUBLIC "-//W3C//DTD SVG 1.1//EN" "http://www.w3.org/Graphics/SVG/1.1/DTD/svg11.dtd">
<svg width="868px" height="522px" viewBox="0 0 868 522" style="background-color: #ffffff00" xmlns="http://www.w3.org/2000/svg" xmlns:xlink="http://www.w3.org/1999/xlink" version="1.1" >
<text x="0" y="0" stroke="transparent" fill="#000000" transform="matrix(0.0833333 0 0 0.0833333 567.387 361.3)" style="font:normal normal normal 200px 'Arial'" >
OH</text>
<text x="0" y="0" stroke="transparent" fill="#000000" transform="matrix(0.0833333 0 0 0.0833333 405.784 317.999)" style="font:normal normal normal 200px 'Arial'" >
O</text>
<text x="0" y="0" stroke="transparent" fill="#000000" transform="matrix(0.0833333 0 0 0.0833333 319.182 317.999)" style="font:normal normal normal 200px 'Arial'" >
O</text>
<text x="0" y="0" stroke="transparent" fill="#000000" transform="matrix(0.0833333 0 0 0.0833333 232.579 367.999)" style="font:normal normal normal 200px 'Arial'" >
O</text>
<text x="0" y="0" stroke="transparent" fill="#000000" transform="matrix(0.0833333 0 0 0.0833333 145.977 367.999)" style="font:normal normal normal 200px 'Arial'" >
O</text>
<text x="0" y="0" stroke="transparent" fill="#000000" transform="matrix(0.0833333 0 0 0.0833333 4.03693 392.999)" style="font:normal normal normal 200px 'Arial'" >
HO</text>
<text x="0" y="0" stroke="transparent" fill="#000000" transform="matrix(0.0833333 0 0 0.0833333 47.3382 467.999)" style="font:normal normal normal 200px 'Arial'" >
HO</text>
<text x="0" y="0" stroke="transparent" fill="#000000" transform="matrix(0.0833333 0 0 0.0833333 145.977 517.999)" style="font:normal normal normal 200px 'Arial'" >
OH</text>
<text x="0" y="0" stroke="transparent" fill="#000000" transform="matrix(0.0833333 0 0 0.0833333 232.579 467.999)" style="font:normal normal normal 200px 'Arial'" >
OH</text>
<text x="0" y="0" stroke="transparent" fill="#000000" transform="matrix(0.0833333 0 0 0.0833333 232.579 217.999)" style="font:normal normal normal 200px 'Arial'" >
O</text>
<text x="0" y="0" stroke="transparent" fill="#000000" transform="matrix(0.0833333 0 0 0.0833333 275.881 142.999)" style="font:normal normal normal 200px 'Arial'" >
O</text>
<text x="0" y="0" stroke="transparent" fill="#000000" transform="matrix(0.0833333 0 0 0.0833333 362.483 92.9986)" style="font:normal normal normal 200px 'Arial'" >
OH</text>
<text x="0" y="0" stroke="transparent" fill="#000000" transform="matrix(0.0833333 0 0 0.0833333 232.579 17.9986)" style="font:normal normal normal 200px 'Arial'" >
OH</text>
<text x="0" y="0" stroke="transparent" fill="#000000" transform="matrix(0.0833333 0 0 0.0833333 133.941 67.9986)" style="font:normal normal normal 200px 'Arial'" >
HO</text>
<text x="0" y="0" stroke="transparent" fill="#000000" transform="matrix(0.0833333 0 0 0.0833333 133.941 167.999)" style="font:normal normal normal 200px 'Arial'" >
HO</text>
<text x="0" y="0" stroke="transparent" fill="#000000" transform="matrix(0.0833333 0 0 0.0833333 319.182 167.999)" style="font:normal normal normal 200px 'Arial'" >
OH</text>
<text x="0" y="0" stroke="transparent" fill="#000000" transform="matrix(0.0833333 0 0 0.0833333 405.784 217.999)" style="font:normal normal normal 200px 'Arial'" >
OH</text>
<text x="0" y="0" stroke="transparent" fill="#000000" transform="matrix(0.0833333 0 0 0.0833333 795.496 242.999)" style="font:normal normal normal 200px 'Arial'" >
OH</text>
<text x="0" y="0" stroke="transparent" fill="#000000" transform="matrix(0.0833333 0 0 0.0833333 838.797 167.999)" style="font:normal normal normal 200px 'Arial'" >
OH</text>
<path stroke="transparent" fill="#000000" transform="matrix(0.0833333 0 0 0.0833333 2.75 -39.1667)" d="M 9071.34,1187.98 L 9071.34,1207.98 L 9057.68,1204.32 L 8762.68,693.368 L 8780,683.368 L 9071.34,1187.98 Z " />
<path stroke="transparent" fill="#000000" transform="matrix(0.0833333 0 0 0.0833333 2.75 -39.1667)" d="M 9600.95,1502.21 L 9580.95,1513.76 L 9071.34,1219.53 L 9071.34,1207.98 L 9085,1204.32 L 9600.95,1502.21 Z " />
<path stroke="transparent" fill="#000000" transform="matrix(0.0833333 0 0 0.0833333 2.75 -39.1667)" d="M 9600.95,2113.76 L 9580.95,2102.21 L 9580.95,1513.76 L 9600.95,1502.21 L 9600.95,2113.76 Z " />
<path stroke="transparent" fill="#000000" transform="matrix(0.0833333 0 0 0.0833333 2.75 -39.1667)" d="M 9091.34,2407.98 L 9071.34,2407.98 L 9071.34,2396.44 L 9580.95,2102.21 L 9600.95,2113.76 L 9091.34,2407.98 Z " />
<path stroke="transparent" fill="#000000" transform="matrix(0.0833333 0 0 0.0833333 2.75 -39.1667)" d="M 9081.34,3002.21 L 9071.34,3007.98 L 9061.34,3002.21 L 9061.34,2413.76 L 9071.34,2407.98 L 9081.34,2425.3 L 9081.34,3002.21 Z " />
<path stroke="transparent" fill="#000000" transform="matrix(0.0833333 0 0 0.0833333 2.75 -39.1667)" d="M 8551.72,3319.53 L 8551.72,3296.44 L 9061.34,3002.21 L 9071.34,3007.98 L 9071.34,3019.53 L 8551.72,3319.53 Z " />
<path stroke="transparent" fill="#000000" transform="matrix(0.0833333 0 0 0.0833333 2.75 -39.1667)" d="M 8042.11,3025.3 L 8032.11,3007.98 L 8042.11,3002.21 L 8551.72,3296.44 L 8551.72,3319.53 L 8042.11,3025.3 Z " />
<path stroke="transparent" fill="#000000" transform="matrix(0.0833333 0 0 0.0833333 2.75 -39.1667)" d="M 8022.11,2413.76 L 8032.11,2407.98 L 8042.11,2413.76 L 8042.11,3002.21 L 8032.11,3007.98 L 8022.11,3002.21 L 8022.11,2413.76 Z " />
<path stroke="transparent" fill="#000000" transform="matrix(0.0833333 0 0 0.0833333 2.75 -39.1667)" d="M 8541.72,2102.21 L 8551.72,2107.98 L 8551.72,2119.53 L 8042.11,2413.76 L 8032.11,2407.98 L 8032.11,2396.44 L 8541.72,2102.21 Z " />
<path stroke="transparent" fill="#000000" transform="matrix(0.0833333 0 0 0.0833333 2.75 -39.1667)" d="M 8546.72,2182.46 L 8556.72,2199.78 L 8109.11,2458.21 L 8099.11,2440.89 L 8546.72,2182.46 Z " />
<path stroke="transparent" fill="#000000" transform="matrix(0.0833333 0 0 0.0833333 2.75 -39.1667)" d="M 8551.72,2119.53 L 8551.72,2107.98 L 8561.72,2102.21 L 9071.34,2396.44 L 9071.34,2407.98 L 9061.34,2413.76 L 8551.72,2119.53 Z " />
<path stroke="transparent" fill="#000000" transform="matrix(0.0833333 0 0 0.0833333 2.75 -39.1667)" d="M 8541.72,1502.21 L 8561.72,1513.76 L 8561.72,2102.21 L 8551.72,2107.98 L 8541.72,2102.21 L 8541.72,1502.21 Z " />
<path stroke="transparent" fill="#000000" transform="matrix(0.0833333 0 0 0.0833333 2.75 -39.1667)" d="M 8561.72,1513.76 L 8541.72,1502.21 L 9057.68,1204.32 L 9071.34,1207.98 L 9071.34,1219.53 L 8561.72,1513.76 Z " />
<path stroke="transparent" fill="#000000" transform="matrix(0.0833333 0 0 0.0833333 2.75 -39.1667)" d="M 7512.49,2119.53 L 7512.49,2096.44 L 8032.11,2396.44 L 8032.11,2407.98 L 8022.11,2413.76 L 7512.49,2119.53 Z " />
<path stroke="transparent" fill="#000000" transform="matrix(0.0833333 0 0 0.0833333 2.75 -39.1667)" d="M 7002.87,2413.76 L 6982.87,2402.21 L 7512.49,2096.44 L 7512.49,2119.53 L 7002.87,2413.76 Z " />
<path stroke="transparent" fill="#000000" transform="matrix(0.0833333 0 0 0.0833333 2.75 -39.1667)" d="M 7069.87,2458.21 L 7059.87,2440.89 L 7507.49,2182.46 L 7517.49,2199.78 L 7069.87,2458.21 Z " />
<path stroke="transparent" fill="#000000" transform="matrix(0.0833333 0 0 0.0833333 2.75 -39.1667)" d="M 7002.87,3002.21 L 6992.87,3007.98 L 6982.87,3002.21 L 6982.87,2402.21 L 7002.87,2413.76 L 7002.87,3002.21 Z " />
<path stroke="transparent" fill="#000000" transform="matrix(0.0833333 0 0 0.0833333 2.75 -39.1667)" d="M 7502.49,3290.66 L 7512.49,3307.98 L 7502.49,3313.76 L 6992.87,3019.53 L 6992.87,3007.98 L 7002.87,3002.21 L 7502.49,3290.66 Z " />
<path stroke="transparent" fill="#000000" transform="matrix(0.0833333 0 0 0.0833333 2.75 -39.1667)" d="M 7522.49,3313.76 L 7512.49,3307.98 L 7522.49,3290.66 L 8022.11,3002.21 L 8032.11,3007.98 L 8022.11,3025.3 L 7522.49,3313.76 Z " />
<path stroke="transparent" fill="#000000" transform="matrix(0.0833333 0 0 0.0833333 2.75 -39.1667)" d="M 7522.49,3913.76 L 7502.49,3902.21 L 7502.49,3313.76 L 7512.49,3307.98 L 7522.49,3313.76 L 7522.49,3913.76 Z " />
<path stroke="transparent" fill="#000000" transform="matrix(0.0833333 0 0 0.0833333 2.75 -39.1667)" d="M 6992.87,4219.53 L 6992.87,4196.44 L 7502.49,3902.21 L 7522.49,3913.76 L 6992.87,4219.53 Z " />
<path stroke="transparent" fill="#000000" transform="matrix(0.0833333 0 0 0.0833333 2.75 -39.1667)" d="M 6473.26,3919.53 L 6473.26,3907.98 L 6483.26,3902.21 L 6992.87,4196.44 L 6992.87,4219.53 L 6473.26,3919.53 Z " />
<path stroke="transparent" fill="#000000" transform="matrix(0.0833333 0 0 0.0833333 2.75 -39.1667)" d="M 6463.26,3313.76 L 6473.26,3307.98 L 6483.26,3313.76 L 6483.26,3902.21 L 6473.26,3907.98 L 6463.26,3902.21 L 6463.26,3313.76 Z " />
<path stroke="transparent" fill="#000000" transform="matrix(0.0833333 0 0 0.0833333 2.75 -39.1667)" d="M 6483.26,3313.76 L 6473.26,3307.98 L 6483.26,3290.66 L 6982.87,3002.21 L 6992.87,3007.98 L 6992.87,3019.53 L 6483.26,3313.76 Z " />
<path stroke="transparent" fill="#000000" transform="matrix(0.0833333 0 0 0.0833333 2.75 -39.1667)" d="M 5953.64,3019.53 L 5953.64,2996.44 L 6463.26,3290.66 L 6473.26,3307.98 L 6463.26,3313.76 L 5953.64,3019.53 Z " />
<path stroke="transparent" fill="#000000" transform="matrix(0.0833333 0 0 0.0833333 2.75 -39.1667)" d="M 5444.03,3313.76 L 5424.03,3302.21 L 5953.64,2996.44 L 5953.64,3019.53 L 5444.03,3313.76 Z " />
<path stroke="transparent" fill="#000000" transform="matrix(0.0833333 0 0 0.0833333 2.75 -39.1667)" d="M 5444.03,3902.21 L 5434.03,3907.98 L 5424.03,3902.21 L 5424.03,3302.21 L 5444.03,3313.76 L 5444.03,3902.21 Z " />
<path stroke="transparent" fill="#000000" transform="matrix(0.0833333 0 0 0.0833333 2.75 -39.1667)" d="M 5953.64,4196.44 L 5953.64,4207.98 L 5939.98,4211.64 L 5434.03,3919.53 L 5434.03,3907.98 L 5444.03,3902.21 L 5953.64,4196.44 Z " />
<path stroke="transparent" fill="#000000" transform="matrix(0.0833333 0 0 0.0833333 2.75 -39.1667)" d="M 5967.3,4211.64 L 5953.64,4207.98 L 5953.64,4196.44 L 6463.26,3902.21 L 6473.26,3907.98 L 6473.26,3919.53 L 5967.3,4211.64 Z " />
<path stroke="transparent" fill="#000000" transform="matrix(0.0833333 0 0 0.0833333 2.75 -39.1667)" d="M 5662.3,4732.6 L 5644.98,4722.6 L 5939.98,4211.64 L 5953.64,4207.98 L 5953.64,4227.98 L 5662.3,4732.6 Z " />
<path stroke="transparent" fill="#000000" transform="matrix(0.0833333 0 0 0.0833333 2.75 -39.1667)" d="M 6259.42,4717.6 L 6247.87,4737.6 L 5953.64,4227.98 L 5953.64,4207.98 L 5967.3,4211.64 L 6259.42,4717.6 Z " />
<path stroke="transparent" fill="#000000" transform="matrix(0.0833333 0 0 0.0833333 2.75 -39.1667)" d="M 6745.64,4717.6 L 6745.64,4737.6 L 6247.87,4737.6 L 6259.42,4717.6 L 6745.64,4717.6 Z " />
<path stroke="transparent" fill="#000000" transform="matrix(0.0833333 0 0 0.0833333 2.75 -39.1667)" d="M 5012.03,4163.17 L 5002.03,4145.85 L 5424.03,3902.21 L 5434.03,3907.98 L 5434.03,3919.53 L 5012.03,4163.17 Z " />
<path stroke="transparent" fill="#000000" transform="matrix(0.0833333 0 0 0.0833333 2.75 -39.1667)" d="M 4394.8,3919.53 L 4394.8,3907.98 L 4404.8,3902.21 L 4826.8,4145.85 L 4816.8,4163.17 L 4394.8,3919.53 Z " />
<path stroke="transparent" fill="#000000" transform="matrix(0.0833333 0 0 0.0833333 2.75 -39.1667)" d="M 4384.8,3313.76 L 4394.8,3307.98 L 4404.8,3313.76 L 4404.8,3902.21 L 4394.8,3907.98 L 4384.8,3902.21 L 4384.8,3313.76 Z " />
<path stroke="transparent" fill="#000000" transform="matrix(0.0833333 0 0 0.0833333 2.75 -39.1667)" d="M 3875.18,3019.53 L 3875.18,3007.98 L 3885.18,3002.21 L 4394.8,3296.44 L 4394.8,3307.98 L 4384.8,3313.76 L 3875.18,3019.53 Z " />
<path stroke="transparent" fill="#000000" transform="matrix(0.0833333 0 0 0.0833333 2.75 -39.1667)" d="M 3365.57,3313.76 L 3355.57,3307.98 L 3355.57,3296.44 L 3865.18,3002.21 L 3875.18,3007.98 L 3875.18,3019.53 L 3365.57,3313.76 Z " />
<path stroke="transparent" fill="#000000" transform="matrix(0.0833333 0 0 0.0833333 2.75 -39.1667)" d="M 3365.57,3902.21 L 3355.57,3907.98 L 3345.57,3902.21 L 3345.57,3313.76 L 3355.57,3307.98 L 3365.57,3313.76 L 3365.57,3902.21 Z " />
<path stroke="transparent" fill="#000000" transform="matrix(0.0833333 0 0 0.0833333 2.75 -39.1667)" d="M 3787.56,4145.85 L 3777.56,4163.17 L 3355.57,3919.53 L 3355.57,3907.98 L 3365.57,3902.21 L 3787.56,4145.85 Z " />
<path stroke="transparent" fill="#000000" transform="matrix(0.0833333 0 0 0.0833333 2.75 -39.1667)" d="M 3972.8,4163.17 L 3962.8,4145.85 L 4384.8,3902.21 L 4394.8,3907.98 L 4394.8,3919.53 L 3972.8,4163.17 Z " />
<path stroke="transparent" fill="#000000" transform="matrix(0.0833333 0 0 0.0833333 2.75 -39.1667)" d="M 2845.95,4213.76 L 2825.95,4202.21 L 3345.57,3902.21 L 3355.57,3907.98 L 3355.57,3919.53 L 2845.95,4213.76 Z " />
<path stroke="transparent" fill="#000000" transform="matrix(0.0833333 0 0 0.0833333 2.75 -39.1667)" d="M 2845.95,4702.82 L 2825.95,4702.82 L 2825.95,4202.21 L 2845.95,4213.76 L 2845.95,4702.82 Z " />
<path stroke="transparent" fill="#000000" transform="matrix(0.0833333 0 0 0.0833333 2.75 -39.1667)" d="M 2326.34,5113.76 L 2316.34,5107.98 L 2316.34,5096.44 L 2731.35,4856.83 L 2741.35,4874.15 L 2326.34,5113.76 Z " />
<path stroke="transparent" fill="#000000" transform="matrix(0.0833333 0 0 0.0833333 2.75 -39.1667)" d="M 2326.34,5702.21 L 2316.34,5707.98 L 2306.34,5702.21 L 2306.34,5113.76 L 2316.34,5107.98 L 2326.34,5113.76 L 2326.34,5702.21 Z " />
<path stroke="transparent" fill="#000000" transform="matrix(0.0833333 0 0 0.0833333 2.75 -39.1667)" d="M 1806.72,6013.76 L 1796.72,6007.98 L 1796.72,5996.44 L 2306.34,5702.21 L 2316.34,5707.98 L 2316.34,5719.53 L 1806.72,6013.76 Z " />
<path stroke="transparent" fill="#000000" transform="matrix(0.0833333 0 0 0.0833333 2.75 -39.1667)" d="M 1277.11,5719.53 L 1277.11,5707.98 L 1287.11,5702.21 L 1796.72,5996.44 L 1796.72,6007.98 L 1786.72,6013.76 L 1277.11,5719.53 Z " />
<path stroke="transparent" fill="#000000" transform="matrix(0.0833333 0 0 0.0833333 2.75 -39.1667)" d="M 1267.11,5113.76 L 1277.11,5107.98 L 1287.11,5113.76 L 1287.11,5702.21 L 1277.11,5707.98 L 1267.11,5702.21 L 1267.11,5113.76 Z " />
<path stroke="transparent" fill="#000000" transform="matrix(0.0833333 0 0 0.0833333 2.75 -39.1667)" d="M 1692.12,4856.83 L 1702.12,4874.15 L 1287.11,5113.76 L 1277.11,5107.98 L 1277.11,5096.44 L 1692.12,4856.83 Z " />
<path stroke="transparent" fill="#000000" transform="matrix(0.0833333 0 0 0.0833333 2.75 -39.1667)" d="M 1891.76,4874.4 L 1901.76,4857.08 L 2316.34,5096.44 L 2316.34,5107.98 L 2306.34,5113.76 L 1891.76,4874.4 Z " />
<path stroke="transparent" fill="#000000" transform="matrix(0.0833333 0 0 0.0833333 2.75 -39.1667)" d="M 757.492,4819.53 L 757.492,4796.44 L 1277.11,5096.44 L 1277.11,5107.98 L 1267.11,5113.76 L 757.492,4819.53 Z " />
<path stroke="transparent" fill="#000000" transform="matrix(0.0833333 0 0 0.0833333 2.75 -39.1667)" d="M 335.487,5063.17 L 325.487,5045.85 L 757.492,4796.44 L 757.492,4819.53 L 335.487,5063.17 Z " />
<path stroke="transparent" fill="#000000" transform="matrix(0.0833333 0 0 0.0833333 2.75 -39.1667)" d="M 855.102,5963.17 L 845.102,5945.85 L 1267.11,5702.21 L 1277.11,5707.98 L 1277.11,5719.53 L 855.102,5963.17 Z " />
<path stroke="transparent" fill="#000000" transform="matrix(0.0833333 0 0 0.0833333 2.75 -39.1667)" d="M 1806.72,6502.82 L 1786.72,6502.82 L 1786.72,6013.76 L 1796.72,6007.98 L 1806.72,6013.76 L 1806.72,6502.82 Z " />
<path stroke="transparent" fill="#000000" transform="matrix(0.0833333 0 0 0.0833333 2.75 -39.1667)" d="M 2748.33,5945.85 L 2738.33,5963.17 L 2316.34,5719.53 L 2316.34,5707.98 L 2326.34,5702.21 L 2748.33,5945.85 Z " />
<path stroke="transparent" fill="#000000" transform="matrix(0.0833333 0 0 0.0833333 2.75 -39.1667)" d="M 2930.99,3074.4 L 2940.99,3057.08 L 3355.57,3296.44 L 3355.57,3307.98 L 3345.57,3313.76 L 2930.99,3074.4 Z " />
<path stroke="transparent" fill="#000000" transform="matrix(0.0833333 0 0 0.0833333 2.75 -39.1667)" d="M 2825.95,2413.76 L 2835.95,2407.98 L 2845.95,2413.76 L 2845.95,2902.82 L 2825.95,2902.82 L 2825.95,2413.76 Z " />
<path stroke="transparent" fill="#000000" transform="matrix(0.0833333 0 0 0.0833333 2.75 -39.1667)" d="M 2316.34,2119.53 L 2316.34,2107.98 L 2326.34,2102.21 L 2835.95,2396.44 L 2835.95,2407.98 L 2825.95,2413.76 L 2316.34,2119.53 Z " />
<path stroke="transparent" fill="#000000" transform="matrix(0.0833333 0 0 0.0833333 2.75 -39.1667)" d="M 2306.34,1513.76 L 2316.34,1507.98 L 2326.34,1513.76 L 2326.34,2102.21 L 2316.34,2107.98 L 2306.34,2102.21 L 2306.34,1513.76 Z " />
<path stroke="transparent" fill="#000000" transform="matrix(0.0833333 0 0 0.0833333 2.75 -39.1667)" d="M 2825.95,1202.21 L 2835.95,1207.98 L 2835.95,1219.53 L 2326.34,1513.76 L 2316.34,1507.98 L 2316.34,1496.44 L 2825.95,1202.21 Z " />
<path stroke="transparent" fill="#000000" transform="matrix(0.0833333 0 0 0.0833333 2.75 -39.1667)" d="M 3355.57,1496.44 L 3355.57,1507.98 L 3345.57,1513.76 L 2835.95,1219.53 L 2835.95,1207.98 L 2845.95,1202.21 L 3355.57,1496.44 Z " />
<path stroke="transparent" fill="#000000" transform="matrix(0.0833333 0 0 0.0833333 2.75 -39.1667)" d="M 3365.57,2002.82 L 3345.57,2002.82 L 3345.57,1513.76 L 3355.57,1507.98 L 3365.57,1513.76 L 3365.57,2002.82 Z " />
<path stroke="transparent" fill="#000000" transform="matrix(0.0833333 0 0 0.0833333 2.75 -39.1667)" d="M 3250.96,2156.83 L 3260.96,2174.15 L 2845.95,2413.76 L 2835.95,2407.98 L 2835.95,2396.44 L 3250.96,2156.83 Z " />
<path stroke="transparent" fill="#000000" transform="matrix(0.0833333 0 0 0.0833333 2.75 -39.1667)" d="M 3875.18,1196.44 L 3875.18,1219.53 L 3365.57,1513.76 L 3355.57,1507.98 L 3355.57,1496.44 L 3875.18,1196.44 Z " />
<path stroke="transparent" fill="#000000" transform="matrix(0.0833333 0 0 0.0833333 2.75 -39.1667)" d="M 4307.18,1445.85 L 4297.18,1463.17 L 3875.18,1219.53 L 3875.18,1196.44 L 4307.18,1445.85 Z " />
<path stroke="transparent" fill="#000000" transform="matrix(0.0833333 0 0 0.0833333 2.75 -39.1667)" d="M 2825.95,727.817 L 2845.95,727.817 L 2845.95,1202.21 L 2835.95,1207.98 L 2825.95,1202.21 L 2825.95,727.817 Z " />
<path stroke="transparent" fill="#000000" transform="matrix(0.0833333 0 0 0.0833333 2.75 -39.1667)" d="M 1891.75,1274.39 L 1901.75,1257.07 L 2316.34,1496.44 L 2316.34,1507.98 L 2306.34,1513.76 L 1891.75,1274.39 Z " />
<path stroke="transparent" fill="#000000" transform="matrix(0.0833333 0 0 0.0833333 2.75 -39.1667)" d="M 1894.33,2363.17 L 1884.33,2345.85 L 2306.34,2102.21 L 2316.34,2107.98 L 2316.34,2119.53 L 1894.33,2363.17 Z " />
<path stroke="transparent" fill="#000000" transform="matrix(0.0833333 0 0 0.0833333 2.75 -39.1667)" d="M 3865.18,2527.82 L 3885.18,2527.82 L 3885.18,3002.21 L 3875.18,3007.98 L 3865.18,3002.21 L 3865.18,2527.82 Z " />
<path stroke="transparent" fill="#000000" transform="matrix(0.0833333 0 0 0.0833333 2.75 -39.1667)" d="M 4809.81,3056.83 L 4819.81,3074.15 L 4404.8,3313.76 L 4394.8,3307.98 L 4394.8,3296.44 L 4809.81,3056.83 Z " />
<path stroke="transparent" fill="#000000" transform="matrix(0.0833333 0 0 0.0833333 2.75 -39.1667)" d="M 6463.26,2707.98 L 6483.26,2707.98 L 6483.26,3290.66 L 6473.26,3307.98 L 6463.26,3290.66 L 6463.26,2707.98 Z " />
<path stroke="transparent" fill="#000000" transform="matrix(0.0833333 0 0 0.0833333 2.75 -39.1667)" d="M 7502.49,2707.98 L 7522.49,2707.98 L 7522.49,3290.66 L 7512.49,3307.98 L 7502.49,3290.66 L 7502.49,2707.98 Z " />
<path stroke="transparent" fill="#000000" transform="matrix(0.0833333 0 0 0.0833333 2.75 -39.1667)" d="M 8042.11,3607.98 L 8022.11,3607.98 L 8022.11,3025.3 L 8032.11,3007.98 L 8042.11,3025.3 L 8042.11,3607.98 Z " />
<path stroke="transparent" fill="#000000" transform="matrix(0.0833333 0 0 0.0833333 2.75 -39.1667)" d="M 9503.33,3245.85 L 9493.33,3263.17 L 9071.34,3019.53 L 9071.34,3007.98 L 9081.34,3002.21 L 9503.33,3245.85 Z " />
<path stroke="transparent" fill="#000000" transform="matrix(0.0833333 0 0 0.0833333 2.75 -39.1667)" d="M 9590.95,2696.44 L 9590.95,2719.53 L 9081.34,2425.3 L 9071.34,2407.98 L 9091.34,2407.98 L 9590.95,2696.44 Z " />
<path stroke="transparent" fill="#000000" transform="matrix(0.0833333 0 0 0.0833333 2.75 -39.1667)" d="M 10006,2456.83 L 10016,2474.15 L 9590.95,2719.53 L 9590.95,2696.44 L 10006,2456.83 Z " />
<path stroke="transparent" fill="#000000" transform="matrix(0.0833333 0 0 0.0833333 2.75 -39.1667)" d="M 9362.68,683.368 L 9380,693.368 L 9085,1204.32 L 9071.34,1207.98 L 9071.34,1187.98 L 9362.68,683.368 Z " />
</svg>
