<?xml version="1.0" standalone="no" ?>
<!DOCTYPE svg PUBLIC "-//W3C//DTD SVG 1.1//EN" "http://www.w3.org/Graphics/SVG/1.1/DTD/svg11.dtd">
<svg width="460px" height="315px" viewBox="0 0 460 315" style="background-color: #ffffff00" xmlns="http://www.w3.org/2000/svg" xmlns:xlink="http://www.w3.org/1999/xlink" version="1.1" >
<text x="0" y="0" stroke="transparent" fill="#000000" transform="matrix(0.0833333 0 0 0.0833333 41.4471 160.884)" style="font:normal normal normal 200px 'Arial'" >
O</text>
<text x="0" y="0" stroke="transparent" fill="#000000" transform="matrix(0.0833333 0 0 0.0833333 128.051 310.886)" style="font:normal normal normal 200px 'Arial'" >
OH</text>
<text x="0" y="0" stroke="transparent" fill="#000000" transform="matrix(0.0833333 0 0 0.0833333 214.651 310.887)" style="font:normal normal normal 200px 'Arial'" >
O</text>
<text x="0" y="0" stroke="transparent" fill="#000000" transform="matrix(0.0833333 0 0 0.0833333 431.165 85.8794)" style="font:normal normal normal 200px 'Arial'" >
OH</text>
<text x="0" y="0" stroke="transparent" fill="#000000" transform="matrix(0.0833333 0 0 0.0833333 344.562 35.8806)" style="font:normal normal normal 200px 'Arial'" >
O</text>
<text x="0" y="0" stroke="transparent" fill="#000000" transform="matrix(0.0833333 0 0 0.0833333 214.655 160.882)" style="font:normal normal normal 200px 'Arial'" >
O</text>
<path stroke="transparent" fill="#000000" transform="matrix(0.0833333 0 0 0.0833333 -181.25 -240)" d="M 3269.98,5021.06 L 3269.98,5032.61 L 3259.98,5038.38 L 2845.4,4799.03 L 2855.4,4781.71 L 3269.98,5021.06 Z " />
<path stroke="transparent" fill="#000000" transform="matrix(0.0833333 0 0 0.0833333 -181.25 -240)" d="M 3279.98,5626.83 L 3259.98,5638.38 L 3259.98,5038.38 L 3269.98,5032.61 L 3279.98,5038.38 L 3279.98,5626.83 Z " />
<path stroke="transparent" fill="#000000" transform="matrix(0.0833333 0 0 0.0833333 -181.25 -240)" d="M 3351.98,5591.04 L 3331.98,5591.04 L 3331.98,5074.18 L 3351.98,5074.18 L 3351.98,5591.04 Z " />
<path stroke="transparent" fill="#000000" transform="matrix(0.0833333 0 0 0.0833333 -181.25 -240)" d="M 3789.56,5921.07 L 3789.56,5932.62 L 3779.56,5938.39 L 3259.98,5638.38 L 3279.98,5626.83 L 3789.56,5921.07 Z " />
<path stroke="transparent" fill="#000000" transform="matrix(0.0833333 0 0 0.0833333 -181.25 -240)" d="M 3799.6,6427.47 L 3779.6,6427.47 L 3779.56,5938.39 L 3789.56,5932.62 L 3799.56,5938.39 L 3799.6,6427.47 Z " />
<path stroke="transparent" fill="#000000" transform="matrix(0.0833333 0 0 0.0833333 -181.25 -240)" d="M 4299.19,5626.84 L 4309.19,5632.61 L 4309.19,5644.16 L 3799.56,5938.39 L 3789.56,5932.62 L 3789.56,5921.07 L 4299.19,5626.84 Z " />
<path stroke="transparent" fill="#000000" transform="matrix(0.0833333 0 0 0.0833333 -181.25 -240)" d="M 4232.19,5582.38 L 4242.19,5599.7 L 3794.56,5858.14 L 3784.56,5840.82 L 4232.19,5582.38 Z " />
<path stroke="transparent" fill="#000000" transform="matrix(0.0833333 0 0 0.0833333 -181.25 -240)" d="M 4828.83,5921.09 L 4828.83,5944.19 L 4309.19,5644.16 L 4309.19,5632.61 L 4319.19,5626.84 L 4828.83,5921.09 Z " />
<path stroke="transparent" fill="#000000" transform="matrix(0.0833333 0 0 0.0833333 -181.25 -240)" d="M 4874.82,6427.47 L 4854.82,6427.47 L 4854.83,5911.86 L 4874.83,5911.86 L 4874.82,6427.47 Z " />
<path stroke="transparent" fill="#000000" transform="matrix(0.0833333 0 0 0.0833333 -181.25 -240)" d="M 4802.82,6427.47 L 4782.82,6427.47 L 4782.83,5911.85 L 4802.83,5911.86 L 4802.82,6427.47 Z " />
<path stroke="transparent" fill="#000000" transform="matrix(0.0833333 0 0 0.0833333 -181.25 -240)" d="M 5338.45,5626.86 L 5358.45,5638.41 L 4828.83,5944.19 L 4828.83,5921.09 L 5338.45,5626.86 Z " />
<path stroke="transparent" fill="#000000" transform="matrix(0.0833333 0 0 0.0833333 -181.25 -240)" d="M 5338.44,5038.37 L 5348.44,5032.6 L 5358.44,5038.37 L 5358.45,5638.41 L 5338.45,5626.86 L 5338.44,5038.37 Z " />
<path stroke="transparent" fill="#000000" transform="matrix(0.0833333 0 0 0.0833333 -181.25 -240)" d="M 5266.44,5074.17 L 5286.44,5074.17 L 5286.45,5591.06 L 5266.45,5591.06 L 5266.44,5074.17 Z " />
<path stroke="transparent" fill="#000000" transform="matrix(0.0833333 0 0 0.0833333 -181.25 -240)" d="M 5858.1,4726.8 L 5868.1,4732.57 L 5868.1,4744.12 L 5358.44,5038.37 L 5348.44,5032.6 L 5348.44,5021.05 L 5858.1,4726.8 Z " />
<path stroke="transparent" fill="#000000" transform="matrix(0.0833333 0 0 0.0833333 -181.25 -240)" d="M 6387.71,5021.07 L 6387.7,5044.17 L 5868.1,4744.12 L 5868.1,4732.57 L 5878.1,4726.8 L 6387.71,5021.07 Z " />
<path stroke="transparent" fill="#000000" transform="matrix(0.0833333 0 0 0.0833333 -181.25 -240)" d="M 6392.71,4940.82 L 6382.71,4958.14 L 5935.1,4699.67 L 5945.1,4682.35 L 6392.71,4940.82 Z " />
<path stroke="transparent" fill="#000000" transform="matrix(0.0833333 0 0 0.0833333 -181.25 -240)" d="M 6897.37,4726.82 L 6917.37,4738.37 L 6387.7,5044.17 L 6387.71,5021.07 L 6897.37,4726.82 Z " />
<path stroke="transparent" fill="#000000" transform="matrix(0.0833333 0 0 0.0833333 -181.25 -240)" d="M 6897.35,4138.33 L 6907.35,4132.56 L 6917.35,4138.33 L 6917.37,4738.37 L 6897.37,4726.82 L 6897.35,4138.33 Z " />
<path stroke="transparent" fill="#000000" transform="matrix(0.0833333 0 0 0.0833333 -181.25 -240)" d="M 6825.35,4174.13 L 6845.35,4174.13 L 6845.36,4691.02 L 6825.36,4691.02 L 6825.35,4174.13 Z " />
<path stroke="transparent" fill="#000000" transform="matrix(0.0833333 0 0 0.0833333 -181.25 -240)" d="M 7322.38,3881.4 L 7332.38,3898.72 L 6917.35,4138.33 L 6907.35,4132.56 L 6907.35,4121.01 L 7322.38,3881.4 Z " />
<path stroke="transparent" fill="#000000" transform="matrix(0.0833333 0 0 0.0833333 -181.25 -240)" d="M 6387.74,3844.11 L 6387.74,3832.57 L 6397.74,3826.79 L 6907.35,4121.01 L 6907.35,4132.56 L 6897.35,4138.33 L 6387.74,3844.11 Z " />
<path stroke="transparent" fill="#000000" transform="matrix(0.0833333 0 0 0.0833333 -181.25 -240)" d="M 6377.74,3352.4 L 6397.74,3352.4 L 6397.74,3826.79 L 6387.74,3832.57 L 6377.74,3826.79 L 6377.74,3352.4 Z " />
<path stroke="transparent" fill="#000000" transform="matrix(0.0833333 0 0 0.0833333 -181.25 -240)" d="M 5878.11,4138.35 L 5858.11,4126.8 L 6377.74,3826.79 L 6387.74,3832.57 L 6387.74,3844.11 L 5878.11,4138.35 Z " />
<path stroke="transparent" fill="#000000" transform="matrix(0.0833333 0 0 0.0833333 -181.25 -240)" d="M 5945.11,4182.8 L 5935.11,4165.48 L 6382.74,3907.05 L 6392.74,3924.37 L 5945.11,4182.8 Z " />
<path stroke="transparent" fill="#000000" transform="matrix(0.0833333 0 0 0.0833333 -181.25 -240)" d="M 5858.11,4126.8 L 5878.11,4138.35 L 5878.1,4726.8 L 5868.1,4732.57 L 5858.1,4726.8 L 5858.11,4126.8 Z " />
<path stroke="transparent" fill="#000000" transform="matrix(0.0833333 0 0 0.0833333 -181.25 -240)" d="M 4923.89,4799.01 L 4933.89,4781.69 L 5348.44,5021.05 L 5348.44,5032.6 L 5338.44,5038.37 L 4923.89,4799.01 Z " />
<path stroke="transparent" fill="#000000" transform="matrix(0.0833333 0 0 0.0833333 -181.25 -240)" d="M 4319.19,5038.39 L 4309.19,5032.61 L 4309.19,5021.07 L 4724.25,4781.43 L 4734.25,4798.75 L 4319.19,5038.39 Z " />
<path stroke="transparent" fill="#000000" transform="matrix(0.0833333 0 0 0.0833333 -181.25 -240)" d="M 4299.19,5038.39 L 4309.19,5032.61 L 4319.19,5038.39 L 4319.19,5626.84 L 4309.19,5632.61 L 4299.19,5626.84 L 4299.19,5038.39 Z " />
<path stroke="transparent" fill="#000000" transform="matrix(0.0833333 0 0 0.0833333 -181.25 -240)" d="M 3789.58,4744.17 L 3789.58,4721.07 L 4309.19,5021.07 L 4309.19,5032.61 L 4299.19,5038.39 L 3789.58,4744.17 Z " />
<path stroke="transparent" fill="#000000" transform="matrix(0.0833333 0 0 0.0833333 -181.25 -240)" d="M 3784.58,4824.42 L 3794.58,4807.1 L 4242.19,5065.52 L 4232.19,5082.84 L 3784.58,4824.42 Z " />
<path stroke="transparent" fill="#000000" transform="matrix(0.0833333 0 0 0.0833333 -181.25 -240)" d="M 3789.58,4721.07 L 3789.58,4744.17 L 3279.98,5038.38 L 3269.98,5032.61 L 3269.98,5021.06 L 3789.58,4721.07 Z " />
<path stroke="transparent" fill="#000000" transform="matrix(0.0833333 0 0 0.0833333 -181.25 -240)" d="M 2235.75,5041.27 L 2225.75,5023.95 L 2645.76,4781.46 L 2655.76,4798.78 L 2235.75,5041.27 Z " />
<path stroke="transparent" fill="#000000" transform="matrix(0.0833333 0 0 0.0833333 -181.25 -240)" d="M 6902.36,2923.91 L 6912.36,2941.23 L 6485.36,3187.75 L 6475.36,3170.43 L 6902.36,2923.91 Z " />
</svg>
