<?xml version="1.0" standalone="no" ?>
<!DOCTYPE svg PUBLIC "-//W3C//DTD SVG 1.1//EN" "http://www.w3.org/Graphics/SVG/1.1/DTD/svg11.dtd">
<svg width="298px" height="182px" viewBox="0 0 298 182" style="background-color: #ffffff00" xmlns="http://www.w3.org/2000/svg" xmlns:xlink="http://www.w3.org/1999/xlink" version="1.1" >
<text x="0" y="0" stroke="transparent" fill="#000000" transform="matrix(0.0833333 0 0 0.0833333 229.252 74.837)" style="font:normal normal normal 200px 'Arial'" >
O</text>
<text x="0" y="0" stroke="transparent" fill="#000000" transform="matrix(0.0833333 0 0 0.0833333 265.089 112.948)" style="font:normal normal normal 200px 'Arial'" >
OH</text>
<text x="0" y="0" stroke="transparent" fill="#000000" transform="matrix(0.0833333 0 0 0.0833333 141.352 60.2948)" style="font:normal normal normal 200px 'Arial'" >
O</text>
<text x="0" y="0" stroke="transparent" fill="#000000" transform="matrix(0.0833333 0 0 0.0833333 3.83914 106.831)" style="font:normal normal normal 200px 'Arial'" >
HO</text>
<text x="0" y="0" stroke="transparent" fill="#000000" transform="matrix(0.0833333 0 0 0.0833333 74.1242 177.312)" style="font:normal normal normal 200px 'Arial'" >
HO</text>
<text x="0" y="0" stroke="transparent" fill="#000000" transform="matrix(0.0833333 0 0 0.0833333 194.932 178.055)" style="font:normal normal normal 200px 'Arial'" >
OH</text>
<path stroke="transparent" fill="#000000" transform="matrix(0.0833333 0 0 0.0833333 -284.208 -278)" d="M 6376.8,3577.9 L 6359.74,3562.33 L 6937.14,3379.09 L 6943.19,3398.16 L 6376.8,3577.9 Z " />
<path stroke="transparent" fill="#000000" transform="matrix(0.0833333 0 0 0.0833333 -284.208 -278)" d="M 6271.99,4054.88 L 6252.46,4050.59 L 6359.74,3562.33 L 6376.8,3577.9 L 6271.99,4054.88 Z " />
<path stroke="transparent" fill="#000000" transform="matrix(0.0833333 0 0 0.0833333 -284.208 -278)" d="M 6114.73,4132.71 L 6151.03,4247.08 L 5687.67,4343.55 L 5667.7,4337.55 L 5669.05,4326.12 L 6114.73,4132.71 Z " />
<path stroke="transparent" fill="#000000" transform="matrix(0.0833333 0 0 0.0833333 -284.208 -278)" d="M 6092.02,4753.6 L 6085.89,4775.86 L 5672.04,4356.19 L 5667.7,4337.55 L 5687.67,4343.55 L 6092.02,4753.6 Z " />
<path stroke="transparent" fill="#000000" transform="matrix(0.0833333 0 0 0.0833333 -284.208 -278)" d="M 6559.46,4631.75 L 6564.5,4651.1 L 6085.89,4775.86 L 6092.02,4753.6 L 6559.46,4631.75 Z " />
<path stroke="transparent" fill="#000000" transform="matrix(0.0833333 0 0 0.0833333 -284.208 -278)" d="M 5273.12,4059.12 L 5284.99,4043.02 L 5669.05,4326.12 L 5667.7,4337.55 L 5655.92,4341.29 L 5273.12,4059.12 Z " />
<path stroke="transparent" fill="#000000" transform="matrix(0.0833333 0 0 0.0833333 -284.208 -278)" d="M 5084.26,4041.2 L 5095.91,4057.46 L 4708.66,4334.85 L 4696.93,4330.95 L 4695.65,4319.56 L 5084.26,4041.2 Z " />
<path stroke="transparent" fill="#000000" transform="matrix(0.0833333 0 0 0.0833333 -284.208 -278)" d="M 4085,4192.79 L 4166.85,4093.35 L 4695.65,4319.56 L 4696.93,4330.95 L 4689.09,4339.3 L 4085,4192.79 Z " />
<path stroke="transparent" fill="#000000" transform="matrix(0.0833333 0 0 0.0833333 -284.208 -278)" d="M 3765.69,4476.36 L 3752.41,4461.41 L 4166.85,4093.35 L 4085,4192.79 L 3765.69,4476.36 Z " />
<path stroke="transparent" fill="#000000" transform="matrix(0.0833333 0 0 0.0833333 -284.208 -278)" d="M 4689.09,4339.3 L 4696.93,4330.95 L 4708.66,4334.85 L 4885.75,4892.89 L 4871.08,4912.79 L 4689.09,4339.3 Z " />
<path stroke="transparent" fill="#000000" transform="matrix(0.0833333 0 0 0.0833333 -284.208 -278)" d="M 4634.01,5335.5 L 4537.42,5264.3 L 4551.12,5249.55 L 4644.04,5318.05 L 4634.01,5335.5 Z " />
<path stroke="transparent" fill="#000000" transform="matrix(0.0833333 0 0 0.0833333 -284.208 -278)" d="M 4664.06,5283.25 L 4578.44,5220.13 L 4592.14,5205.38 L 4674.09,5265.8 L 4664.06,5283.25 Z " />
<path stroke="transparent" fill="#000000" transform="matrix(0.0833333 0 0 0.0833333 -284.208 -278)" d="M 4694.11,5230.99 L 4619.47,5175.97 L 4633.17,5161.22 L 4704.15,5213.54 L 4694.11,5230.99 Z " />
<path stroke="transparent" fill="#000000" transform="matrix(0.0833333 0 0 0.0833333 -284.208 -278)" d="M 4724.16,5178.74 L 4660.5,5131.8 L 4674.2,5117.06 L 4734.2,5161.29 L 4724.16,5178.74 Z " />
<path stroke="transparent" fill="#000000" transform="matrix(0.0833333 0 0 0.0833333 -284.208 -278)" d="M 4754.21,5126.48 L 4701.53,5087.64 L 4715.23,5072.89 L 4764.25,5109.03 L 4754.21,5126.48 Z " />
<path stroke="transparent" fill="#000000" transform="matrix(0.0833333 0 0 0.0833333 -284.208 -278)" d="M 4784.27,5074.22 L 4742.55,5043.47 L 4756.25,5028.73 L 4794.3,5056.78 L 4784.27,5074.22 Z " />
<path stroke="transparent" fill="#000000" transform="matrix(0.0833333 0 0 0.0833333 -284.208 -278)" d="M 4814.32,5021.97 L 4783.58,4999.31 L 4797.28,4984.56 L 4824.35,5004.52 L 4814.32,5021.97 Z " />
<path stroke="transparent" fill="#000000" transform="matrix(0.0833333 0 0 0.0833333 -284.208 -278)" d="M 4844.37,4969.71 L 4824.61,4955.14 L 4838.31,4940.4 L 4854.41,4952.26 L 4844.37,4969.71 Z " />
<path stroke="transparent" fill="#000000" transform="matrix(0.0833333 0 0 0.0833333 -284.208 -278)" d="M 4871.08,4912.79 L 4885.75,4892.89 L 5471.22,4896.85 L 5478.42,4906.9 L 5472.66,4916.86 L 4871.08,4912.79 Z " />
<path stroke="transparent" fill="#000000" transform="matrix(0.0833333 0 0 0.0833333 -284.208 -278)" d="M 5489.7,4904.66 L 5478.42,4906.9 L 5471.22,4896.85 L 5655.92,4341.29 L 5667.7,4337.55 L 5672.04,4356.19 L 5489.7,4904.66 Z " />
<path stroke="transparent" fill="#000000" transform="matrix(0.0833333 0 0 0.0833333 -284.208 -278)" d="M 5814.32,5272.94 L 5716.75,5342.8 L 5472.66,4916.86 L 5478.42,4906.9 L 5489.7,4904.66 L 5814.32,5272.94 Z " />
</svg>
