<?xml version="1.0" standalone="no" ?>
<!DOCTYPE svg PUBLIC "-//W3C//DTD SVG 1.1//EN" "http://www.w3.org/Graphics/SVG/1.1/DTD/svg11.dtd">
<svg width="226px" height="233px" viewBox="0 0 226 233" style="background-color: #ffffff00" xmlns="http://www.w3.org/2000/svg" xmlns:xlink="http://www.w3.org/1999/xlink" version="1.1" >
<path stroke="transparent" fill="#000000" transform="matrix(0.0833333 0 0 0.0833333 -322.875 -252)" d="M 4979.72,5758.97 L 4969.72,5776.29 L 4455.08,5479.25 L 4455.08,5456.16 L 4979.72,5758.97 Z " />
<path stroke="transparent" fill="#000000" transform="matrix(0.0833333 0 0 0.0833333 -322.875 -252)" d="M 3940.44,5776.29 L 3930.45,5758.97 L 4455.08,5456.16 L 4455.08,5479.25 L 3940.44,5776.29 Z " />
<path stroke="transparent" fill="#000000" transform="matrix(0.0833333 0 0 0.0833333 -322.875 -252)" d="M 4515.08,5413.62 L 4395.08,5413.62 L 4397.12,5393.62 L 4513.05,5393.62 L 4515.08,5413.62 Z " />
<path stroke="transparent" fill="#000000" transform="matrix(0.0833333 0 0 0.0833333 -322.875 -252)" d="M 4509.09,5354.64 L 4401.08,5354.64 L 4403.11,5334.64 L 4507.05,5334.64 L 4509.09,5354.64 Z " />
<path stroke="transparent" fill="#000000" transform="matrix(0.0833333 0 0 0.0833333 -322.875 -252)" d="M 4503.09,5295.66 L 4407.07,5295.66 L 4409.11,5275.66 L 4501.06,5275.66 L 4503.09,5295.66 Z " />
<path stroke="transparent" fill="#000000" transform="matrix(0.0833333 0 0 0.0833333 -322.875 -252)" d="M 4497.09,5236.68 L 4413.07,5236.68 L 4415.1,5216.68 L 4495.06,5216.68 L 4497.09,5236.68 Z " />
<path stroke="transparent" fill="#000000" transform="matrix(0.0833333 0 0 0.0833333 -322.875 -252)" d="M 4491.1,5177.71 L 4419.07,5177.71 L 4421.1,5157.71 L 4489.07,5157.71 L 4491.1,5177.71 Z " />
<path stroke="transparent" fill="#000000" transform="matrix(0.0833333 0 0 0.0833333 -322.875 -252)" d="M 4485.1,5118.73 L 4425.06,5118.73 L 4427.09,5098.73 L 4483.07,5098.73 L 4485.1,5118.73 Z " />
<path stroke="transparent" fill="#000000" transform="matrix(0.0833333 0 0 0.0833333 -322.875 -252)" d="M 4479.11,5059.75 L 4431.06,5059.75 L 4433.09,5039.75 L 4477.07,5039.75 L 4479.11,5059.75 Z " />
<path stroke="transparent" fill="#000000" transform="matrix(0.0833333 0 0 0.0833333 -322.875 -252)" d="M 4473.11,5000.77 L 4437.05,5000.77 L 4439.09,4980.77 L 4471.08,4980.77 L 4473.11,5000.77 Z " />
<path stroke="transparent" fill="#000000" transform="matrix(0.0833333 0 0 0.0833333 -322.875 -252)" d="M 4467.12,4941.8 L 4443.05,4941.8 L 4445.08,4921.8 L 4465.08,4921.8 L 4467.12,4941.8 Z " />
<path stroke="transparent" fill="#000000" transform="matrix(0.0833333 0 0 0.0833333 -322.875 -252)" d="M 6538.55,4859.05 L 6528.55,4876.37 L 6013.92,4579.18 L 6013.92,4556.09 L 6538.55,4859.05 Z " />
<path stroke="transparent" fill="#000000" transform="matrix(0.0833333 0 0 0.0833333 -322.875 -252)" d="M 5967.92,4087.47 L 5987.92,4087.47 L 5987.92,4588.42 L 5967.92,4588.42 L 5967.92,4087.47 Z " />
<path stroke="transparent" fill="#000000" transform="matrix(0.0833333 0 0 0.0833333 -322.875 -252)" d="M 6039.92,4087.47 L 6059.92,4087.47 L 6059.92,4588.42 L 6039.92,4588.42 L 6039.92,4087.47 Z " />
<path stroke="transparent" fill="#000000" transform="matrix(0.0833333 0 0 0.0833333 -322.875 -252)" d="M 6013.92,4556.09 L 6013.92,4579.18 L 5591.9,4822.88 L 5581.9,4805.56 L 6013.92,4556.09 Z " />
<path stroke="transparent" fill="#000000" transform="matrix(0.0833333 0 0 0.0833333 -322.875 -252)" d="M 5431.68,4762.26 L 5371.66,4866.18 L 4974.16,4579.5 L 4974.72,4567.63 L 4984.72,4561.22 L 5431.68,4762.26 Z " />
<path stroke="transparent" fill="#000000" transform="matrix(0.0833333 0 0 0.0833333 -322.875 -252)" d="M 4984.72,3961.86 L 4964.72,3973.41 L 4455.08,3679.25 L 4455.08,3667.71 L 4465.54,3662.2 L 4984.72,3961.86 Z " />
<path stroke="transparent" fill="#000000" transform="matrix(0.0833333 0 0 0.0833333 -322.875 -252)" d="M 4964.72,3973.41 L 4984.72,3961.86 L 4984.72,4561.22 L 4974.72,4567.63 L 4964.72,4561.86 L 4964.72,3973.41 Z " />
<path stroke="transparent" fill="#000000" transform="matrix(0.0833333 0 0 0.0833333 -322.875 -252)" d="M 4964.72,4561.86 L 4974.72,4567.63 L 4974.16,4579.5 L 4455.08,4879.25 L 4455.08,4856.16 L 4964.72,4561.86 Z " />
<path stroke="transparent" fill="#000000" transform="matrix(0.0833333 0 0 0.0833333 -322.875 -252)" d="M 4455.08,4856.16 L 4455.08,4879.25 L 3925.45,4573.41 L 3945.45,4561.86 L 4455.08,4856.16 Z " />
<path stroke="transparent" fill="#000000" transform="matrix(0.0833333 0 0 0.0833333 -322.875 -252)" d="M 3945.45,4561.86 L 3925.45,4573.41 L 3925.45,3961.86 L 3945.45,3973.41 L 3945.45,4561.86 Z " />
<path stroke="transparent" fill="#000000" transform="matrix(0.0833333 0 0 0.0833333 -322.875 -252)" d="M 3945.45,3973.41 L 3925.45,3961.86 L 4444.62,3662.2 L 4455.08,3667.71 L 4455.08,3679.25 L 3945.45,3973.41 Z " />
<path stroke="transparent" fill="#000000" transform="matrix(0.0833333 0 0 0.0833333 -322.875 -252)" d="M 4395.08,3067.71 L 4515.08,3067.71 L 4465.54,3662.2 L 4455.08,3667.71 L 4444.62,3662.2 L 4395.08,3067.71 Z " />
<text x="0" y="0" stroke="transparent" fill="#000000" transform="matrix(0.0833333 0 0 0.0833333 171.785 85.1361)" style="font:normal normal normal 200px 'Arial'" >
O</text>
<text x="0" y="0" stroke="transparent" fill="#000000" transform="matrix(0.0833333 0 0 0.0833333 128.482 160.142)" style="font:normal normal normal 200px 'Arial'" >
O</text>
</svg>
