<?xml version="1.0" standalone="no" ?>
<!DOCTYPE svg PUBLIC "-//W3C//DTD SVG 1.1//EN" "http://www.w3.org/Graphics/SVG/1.1/DTD/svg11.dtd">
<svg width="230px" height="78px" viewBox="0 0 230 78" style="background-color: #ffffff00" xmlns="http://www.w3.org/2000/svg" xmlns:xlink="http://www.w3.org/1999/xlink" version="1.1" >
<text x="0" y="0" stroke="transparent" fill="#000000" transform="matrix(0.0666667 0 0 0.0666667 171.848 14.2389)" style="font:normal normal normal 200px 'Arial'" >
O</text>
<text x="0" y="0" stroke="transparent" fill="#000000" transform="matrix(0.0666667 0 0 0.0666667 206.489 74.2389)" style="font:normal normal normal 200px 'Arial'" >
OH</text>
<path stroke="transparent" fill="#000000" transform="matrix(0.0666667 0 0 0.0666667 -106.787 -197.333)" d="M 2179.05,3684.04 L 2179.05,3707.13 L 1664.44,4004.24 L 1654.44,3986.92 L 2179.05,3684.04 Z " />
<path stroke="transparent" fill="#000000" transform="matrix(0.0666667 0 0 0.0666667 -106.787 -197.333)" d="M 2698.67,3984.04 L 2698.67,4007.13 L 2179.05,3707.13 L 2179.05,3684.04 L 2698.67,3984.04 Z " />
<path stroke="transparent" fill="#000000" transform="matrix(0.0666667 0 0 0.0666667 -106.787 -197.333)" d="M 2703.67,3903.78 L 2693.67,3921.11 L 2210.05,3641.89 L 2220.05,3624.57 L 2703.67,3903.78 Z " />
<path stroke="transparent" fill="#000000" transform="matrix(0.0666667 0 0 0.0666667 -106.787 -197.333)" d="M 3218.28,3684.04 L 3218.28,3707.13 L 2698.67,4007.13 L 2698.67,3984.04 L 3218.28,3684.04 Z " />
<path stroke="transparent" fill="#000000" transform="matrix(0.0666667 0 0 0.0666667 -106.787 -197.333)" d="M 3737.9,3984.04 L 3737.9,4007.13 L 3218.28,3707.13 L 3218.28,3684.04 L 3737.9,3984.04 Z " />
<path stroke="transparent" fill="#000000" transform="matrix(0.0666667 0 0 0.0666667 -106.787 -197.333)" d="M 3742.9,3903.78 L 3732.9,3921.11 L 3249.28,3641.89 L 3259.28,3624.57 L 3742.9,3903.78 Z " />
<path stroke="transparent" fill="#000000" transform="matrix(0.0666667 0 0 0.0666667 -106.787 -197.333)" d="M 4257.51,3684.04 L 4257.51,3707.13 L 3737.9,4007.13 L 3737.9,3984.04 L 4257.51,3684.04 Z " />
<path stroke="transparent" fill="#000000" transform="matrix(0.0666667 0 0 0.0666667 -106.787 -197.333)" d="M 4211.51,3215.42 L 4231.51,3215.42 L 4231.51,3716.37 L 4211.51,3716.37 L 4211.51,3215.42 Z " />
<path stroke="transparent" fill="#000000" transform="matrix(0.0666667 0 0 0.0666667 -106.787 -197.333)" d="M 4283.51,3215.42 L 4303.51,3215.42 L 4303.51,3716.37 L 4283.51,3716.37 L 4283.51,3215.42 Z " />
<path stroke="transparent" fill="#000000" transform="matrix(0.0666667 0 0 0.0666667 -106.787 -197.333)" d="M 4689.51,3933.45 L 4679.51,3950.77 L 4257.51,3707.13 L 4257.51,3684.04 L 4689.51,3933.45 Z " />
</svg>
