<?xml version="1.0" standalone="no" ?>
<!DOCTYPE svg PUBLIC "-//W3C//DTD SVG 1.1//EN" "http://www.w3.org/Graphics/SVG/1.1/DTD/svg11.dtd">
<svg width="530px" height="328px" viewBox="0 0 530 328" style="background-color: #ffffff00" xmlns="http://www.w3.org/2000/svg" xmlns:xlink="http://www.w3.org/1999/xlink" version="1.1" >
<path stroke="transparent" fill="#000000" transform="matrix(0.0833333 0 0 0.0833333 -149.5 -122.317)" d="M 2591.86,4670.23 L 2581.86,4676 L 2571.86,4669.59 L 2571.86,4070.23 L 2591.86,4081.77 L 2591.86,4670.23 Z " />
<path stroke="transparent" fill="#000000" transform="matrix(0.0833333 0 0 0.0833333 -149.5 -122.317)" d="M 3101.48,4964.45 L 3101.48,4987.55 L 2582.42,4687.87 L 2581.86,4676 L 2591.86,4670.23 L 3101.48,4964.45 Z " />
<path stroke="transparent" fill="#000000" transform="matrix(0.0833333 0 0 0.0833333 -149.5 -122.317)" d="M 3611.09,4670.23 L 3621.09,4676 L 3621.09,4687.55 L 3101.48,4987.55 L 3101.48,4964.45 L 3611.09,4670.23 Z " />
<path stroke="transparent" fill="#000000" transform="matrix(0.0833333 0 0 0.0833333 -149.5 -122.317)" d="M 3611.09,4081.77 L 3621.09,4076 L 3631.09,4081.77 L 3631.09,4670.23 L 3621.09,4676 L 3611.09,4670.23 L 3611.09,4081.77 Z " />
<path stroke="transparent" fill="#000000" transform="matrix(0.0833333 0 0 0.0833333 -149.5 -122.317)" d="M 3101.48,3787.55 L 3101.48,3764.45 L 3609.58,4057.8 L 3621.09,4076 L 3611.09,4081.77 L 3101.48,3787.55 Z " />
<path stroke="transparent" fill="#000000" transform="matrix(0.0833333 0 0 0.0833333 -149.5 -122.317)" d="M 2591.86,4081.77 L 2571.86,4070.23 L 3101.48,3764.45 L 3101.48,3787.55 L 2591.86,4081.77 Z " />
<path stroke="transparent" fill="#000000" transform="matrix(0.0833333 0 0 0.0833333 -149.5 -122.317)" d="M 4140.71,4964.45 L 4140.71,4987.55 L 3621.09,4687.55 L 3621.09,4676 L 3631.09,4670.23 L 4140.71,4964.45 Z " />
<path stroke="transparent" fill="#000000" transform="matrix(0.0833333 0 0 0.0833333 -149.5 -122.317)" d="M 4650.32,4670.23 L 4670.32,4681.77 L 4140.71,4987.55 L 4140.71,4964.45 L 4650.32,4670.23 Z " />
<path stroke="transparent" fill="#000000" transform="matrix(0.0833333 0 0 0.0833333 -149.5 -122.317)" d="M 4650.32,4081.77 L 4660.32,4076 L 4670.32,4081.77 L 4670.32,4681.77 L 4650.32,4670.23 L 4650.32,4081.77 Z " />
<path stroke="transparent" fill="#000000" transform="matrix(0.0833333 0 0 0.0833333 -149.5 -122.317)" d="M 4140.71,3787.55 L 4140.71,3776 L 4150.71,3770.23 L 4648.42,4057.58 L 4660.32,4076 L 4650.32,4081.77 L 4140.71,3787.55 Z " />
<path stroke="transparent" fill="#000000" transform="matrix(0.0833333 0 0 0.0833333 -149.5 -122.317)" d="M 3631.09,4081.77 L 3621.09,4076 L 3632.61,4057.8 L 4130.71,3770.23 L 4140.71,3776 L 4140.71,3787.55 L 3631.09,4081.77 Z " />
<path stroke="transparent" fill="#000000" transform="matrix(0.0833333 0 0 0.0833333 -149.5 -122.317)" d="M 5169.94,3770.23 L 5179.94,3776 L 5181.08,3786.89 L 4670.32,4081.77 L 4660.32,4076 L 4672.23,4057.58 L 5169.94,3770.23 Z " />
<path stroke="transparent" fill="#000000" transform="matrix(0.0833333 0 0 0.0833333 -149.5 -122.317)" d="M 5169.94,3181.77 L 5179.94,3176 L 5189.94,3183.27 L 5189.94,3768.73 L 5179.94,3776 L 5169.94,3770.23 L 5169.94,3181.77 Z " />
<path stroke="transparent" fill="#000000" transform="matrix(0.0833333 0 0 0.0833333 -149.5 -122.317)" d="M 4660.32,2887.55 L 4660.32,2864.45 L 5168.42,3157.8 L 5179.94,3176 L 5169.94,3181.77 L 4660.32,2887.55 Z " />
<path stroke="transparent" fill="#000000" transform="matrix(0.0833333 0 0 0.0833333 -149.5 -122.317)" d="M 4150.71,3181.77 L 4130.71,3170.23 L 4660.32,2864.45 L 4660.32,2887.55 L 4150.71,3181.77 Z " />
<path stroke="transparent" fill="#000000" transform="matrix(0.0833333 0 0 0.0833333 -149.5 -122.317)" d="M 4150.71,3770.23 L 4140.71,3776 L 4130.71,3770.23 L 4130.71,3170.23 L 4150.71,3181.77 L 4150.71,3770.23 Z " />
<path stroke="transparent" fill="#000000" transform="matrix(0.0833333 0 0 0.0833333 -149.5 -122.317)" d="M 5746.75,3949.65 L 5754.39,3973.17 L 5181.08,3786.89 L 5179.94,3776 L 5189.94,3768.73 L 5746.75,3949.65 Z " />
<path stroke="transparent" fill="#000000" transform="matrix(0.0833333 0 0 0.0833333 -149.5 -122.317)" d="M 6090.88,3476 L 6103.24,3476 L 6109.43,3484.51 L 5754.39,3973.17 L 5746.75,3949.65 L 6090.88,3476 Z " />
<path stroke="transparent" fill="#000000" transform="matrix(0.0833333 0 0 0.0833333 -149.5 -122.317)" d="M 5746.75,3002.35 L 5750.57,2990.59 L 5762.93,2990.59 L 6107.06,3464.24 L 6103.24,3476 L 6090.88,3476 L 5746.75,3002.35 Z " />
<path stroke="transparent" fill="#000000" transform="matrix(0.0833333 0 0 0.0833333 -149.5 -122.317)" d="M 5189.94,3183.27 L 5179.94,3176 L 5191.12,3161.85 L 5744.39,2982.08 L 5750.57,2990.59 L 5746.75,3002.35 L 5189.94,3183.27 Z " />
<text x="0" y="0" stroke="transparent" fill="#000000" transform="matrix(0.0833333 0 0 0.0833333 400.157 158.399)" style="font:normal normal normal 200px 'Arial'" >
O</text>
<path stroke="transparent" fill="#000000" transform="matrix(0.0833333 0 0 0.0833333 -149.5 -122.317)" d="M 6564.3,3315.68 L 6570.48,3334.7 L 6109.43,3484.51 L 6103.24,3476 L 6107.06,3464.24 L 6564.3,3315.68 Z " />
<path stroke="transparent" fill="#000000" transform="matrix(0.0833333 0 0 0.0833333 -149.5 -122.317)" d="M 6663.88,2697.86 L 6673.88,2690.59 L 6683.88,2705.99 L 6683.88,3185.42 L 6663.88,3185.42 L 6663.88,2697.86 Z " />
<path stroke="transparent" fill="#000000" transform="matrix(0.0833333 0 0 0.0833333 -149.5 -122.317)" d="M 6107.06,2516.94 L 6099.43,2493.42 L 6662.32,2676.32 L 6673.88,2690.59 L 6663.88,2697.86 L 6107.06,2516.94 Z " />
<path stroke="transparent" fill="#000000" transform="matrix(0.0833333 0 0 0.0833333 -149.5 -122.317)" d="M 5762.93,2990.59 L 5750.57,2990.59 L 5744.39,2982.08 L 6099.43,2493.42 L 6107.06,2516.94 L 5762.93,2990.59 Z " />
<text x="0" y="0" stroke="transparent" fill="#000000" transform="matrix(0.0833333 0 0 0.0833333 383.358 58.673)" style="font:normal normal normal 200px 'Arial'" >
HN</text>
<path stroke="transparent" fill="#000000" transform="matrix(0.0833333 0 0 0.0833333 -149.5 -122.317)" d="M 7220.8,2923.15 L 7223.21,2946.12 L 6683.88,2705.99 L 6673.88,2690.59 L 6683.22,2683.8 L 7220.8,2923.15 Z " />
<path stroke="transparent" fill="#000000" transform="matrix(0.0833333 0 0 0.0833333 -149.5 -122.317)" d="M 7696.87,2577.26 L 7717.96,2586.66 L 7223.21,2946.12 L 7220.8,2923.15 L 7696.87,2577.26 Z " />
<path stroke="transparent" fill="#000000" transform="matrix(0.0833333 0 0 0.0833333 -149.5 -122.317)" d="M 7635.36,1992.03 L 7644.7,1985.25 L 7655.19,1989.42 L 7717.96,2586.66 L 7696.87,2577.26 L 7635.36,1992.03 Z " />
<path stroke="transparent" fill="#000000" transform="matrix(0.0833333 0 0 0.0833333 -149.5 -122.317)" d="M 7097.78,1752.69 L 7095.36,1729.72 L 7641.94,1973.07 L 7644.7,1985.25 L 7635.36,1992.03 L 7097.78,1752.69 Z " />
<path stroke="transparent" fill="#000000" transform="matrix(0.0833333 0 0 0.0833333 -149.5 -122.317)" d="M 6715.29,2030.59 L 6703.53,2014.41 L 7095.36,1729.72 L 7097.78,1752.69 L 6715.29,2030.59 Z " />
<path stroke="transparent" fill="#000000" transform="matrix(0.0833333 0 0 0.0833333 -149.5 -122.317)" d="M 6683.22,2683.8 L 6673.88,2690.59 L 6662.32,2676.32 L 6613.44,2211.19 L 6633.33,2209.1 L 6683.22,2683.8 Z " />
<text x="0" y="0" stroke="transparent" fill="#000000" transform="matrix(0.0833333 0 0 0.0833333 3.81789 298.85)" style="font:normal normal normal 200px 'Arial'" >
HO</text>
<path stroke="transparent" fill="#000000" transform="matrix(0.0833333 0 0 0.0833333 -149.5 -122.317)" d="M 2184.86,4974.49 L 2124.86,4870.57 L 2571.86,4669.59 L 2581.86,4676 L 2582.42,4687.87 L 2184.86,4974.49 Z " />
<path stroke="transparent" fill="#000000" transform="matrix(0.0833333 0 0 0.0833333 -149.5 -122.317)" d="M 3561.09,3476 L 3681.09,3476 L 3632.61,4057.8 L 3621.09,4076 L 3609.58,4057.8 L 3561.09,3476 Z " />
<text x="0" y="0" stroke="transparent" fill="#000000" transform="matrix(0.0833333 0 0 0.0833333 232.86 173.85)" style="font:normal normal normal 200px 'Arial'" >
H</text>
<path stroke="transparent" fill="#000000" transform="matrix(0.0833333 0 0 0.0833333 -149.5 -122.317)" d="M 4600.32,3593.33 L 4720.32,3593.33 L 4672.23,4057.58 L 4660.32,4076 L 4648.42,4057.58 L 4600.32,3593.33 Z " />
<text x="0" y="0" stroke="transparent" fill="#000000" transform="matrix(0.0833333 0 0 0.0833333 189.559 248.85)" style="font:normal normal normal 200px 'Arial'" >
H</text>
<path stroke="transparent" fill="#000000" transform="matrix(0.0833333 0 0 0.0833333 -149.5 -122.317)" d="M 4200.71,4273.33 L 4080.71,4273.33 L 4082.97,4253.33 L 4198.45,4253.33 L 4200.71,4273.33 Z " />
<path stroke="transparent" fill="#000000" transform="matrix(0.0833333 0 0 0.0833333 -149.5 -122.317)" d="M 4193.89,4212.86 L 4087.53,4212.86 L 4089.79,4192.86 L 4191.63,4192.86 L 4193.89,4212.86 Z " />
<path stroke="transparent" fill="#000000" transform="matrix(0.0833333 0 0 0.0833333 -149.5 -122.317)" d="M 4187.07,4152.39 L 4094.35,4152.39 L 4096.61,4132.39 L 4184.81,4132.39 L 4187.07,4152.39 Z " />
<path stroke="transparent" fill="#000000" transform="matrix(0.0833333 0 0 0.0833333 -149.5 -122.317)" d="M 4180.25,4091.92 L 4101.17,4091.92 L 4103.43,4071.92 L 4177.99,4071.92 L 4180.25,4091.92 Z " />
<path stroke="transparent" fill="#000000" transform="matrix(0.0833333 0 0 0.0833333 -149.5 -122.317)" d="M 4173.43,4031.45 L 4107.99,4031.45 L 4110.25,4011.45 L 4171.17,4011.45 L 4173.43,4031.45 Z " />
<path stroke="transparent" fill="#000000" transform="matrix(0.0833333 0 0 0.0833333 -149.5 -122.317)" d="M 4166.61,3970.98 L 4114.81,3970.98 L 4117.07,3950.98 L 4164.35,3950.98 L 4166.61,3970.98 Z " />
<path stroke="transparent" fill="#000000" transform="matrix(0.0833333 0 0 0.0833333 -149.5 -122.317)" d="M 4159.79,3910.51 L 4121.63,3910.51 L 4123.89,3890.51 L 4157.53,3890.51 L 4159.79,3910.51 Z " />
<path stroke="transparent" fill="#000000" transform="matrix(0.0833333 0 0 0.0833333 -149.5 -122.317)" d="M 4152.97,3850.04 L 4128.45,3850.04 L 4130.71,3830.04 L 4150.71,3830.04 L 4152.97,3850.04 Z " />
<text x="0" y="0" stroke="transparent" fill="#000000" transform="matrix(0.0833333 0 0 0.0833333 276.162 248.85)" style="font:normal normal normal 200px 'Arial'" >
H</text>
<path stroke="transparent" fill="#000000" transform="matrix(0.0833333 0 0 0.0833333 -149.5 -122.317)" d="M 5239.94,4273.33 L 5119.94,4273.33 L 5122.2,4253.33 L 5237.68,4253.33 L 5239.94,4273.33 Z " />
<path stroke="transparent" fill="#000000" transform="matrix(0.0833333 0 0 0.0833333 -149.5 -122.317)" d="M 5233.12,4212.86 L 5126.76,4212.86 L 5129.02,4192.86 L 5230.86,4192.86 L 5233.12,4212.86 Z " />
<path stroke="transparent" fill="#000000" transform="matrix(0.0833333 0 0 0.0833333 -149.5 -122.317)" d="M 5226.3,4152.39 L 5133.58,4152.39 L 5135.84,4132.39 L 5224.04,4132.39 L 5226.3,4152.39 Z " />
<path stroke="transparent" fill="#000000" transform="matrix(0.0833333 0 0 0.0833333 -149.5 -122.317)" d="M 5219.48,4091.92 L 5140.4,4091.92 L 5142.66,4071.92 L 5217.22,4071.92 L 5219.48,4091.92 Z " />
<path stroke="transparent" fill="#000000" transform="matrix(0.0833333 0 0 0.0833333 -149.5 -122.317)" d="M 5212.66,4031.45 L 5147.22,4031.45 L 5149.48,4011.45 L 5210.4,4011.45 L 5212.66,4031.45 Z " />
<path stroke="transparent" fill="#000000" transform="matrix(0.0833333 0 0 0.0833333 -149.5 -122.317)" d="M 5205.84,3970.98 L 5154.04,3970.98 L 5156.3,3950.98 L 5203.58,3950.98 L 5205.84,3970.98 Z " />
<path stroke="transparent" fill="#000000" transform="matrix(0.0833333 0 0 0.0833333 -149.5 -122.317)" d="M 5199.02,3910.51 L 5160.86,3910.51 L 5163.12,3890.51 L 5196.76,3890.51 L 5199.02,3910.51 Z " />
<path stroke="transparent" fill="#000000" transform="matrix(0.0833333 0 0 0.0833333 -149.5 -122.317)" d="M 5192.2,3850.04 L 5167.68,3850.04 L 5169.94,3830.04 L 5189.94,3830.04 L 5192.2,3850.04 Z " />
<path stroke="transparent" fill="#000000" transform="matrix(0.0833333 0 0 0.0833333 -149.5 -122.317)" d="M 5119.94,2576 L 5239.94,2576 L 5191.12,3161.85 L 5179.94,3176 L 5168.42,3157.8 L 5119.94,2576 Z " />
<text x="0" y="0" stroke="transparent" fill="#000000" transform="matrix(0.0833333 0 0 0.0833333 298.714 176.7)" style="font:normal normal normal 200px 'Arial'" >
H</text>
<path stroke="transparent" fill="#000000" transform="matrix(0.0833333 0 0 0.0833333 -149.5 -122.317)" d="M 5563.67,3434.32 L 5459.75,3374.32 L 5471.79,3358.17 L 5571.63,3415.81 L 5563.67,3434.32 Z " />
<path stroke="transparent" fill="#000000" transform="matrix(0.0833333 0 0 0.0833333 -149.5 -122.317)" d="M 5586.61,3380.97 L 5494.47,3327.78 L 5506.52,3311.64 L 5594.56,3362.47 L 5586.61,3380.97 Z " />
<path stroke="transparent" fill="#000000" transform="matrix(0.0833333 0 0 0.0833333 -149.5 -122.317)" d="M 5609.55,3327.63 L 5529.2,3281.24 L 5541.24,3265.1 L 5617.5,3309.13 L 5609.55,3327.63 Z " />
<path stroke="transparent" fill="#000000" transform="matrix(0.0833333 0 0 0.0833333 -149.5 -122.317)" d="M 5632.48,3274.29 L 5563.92,3234.71 L 5575.97,3218.57 L 5640.44,3255.79 L 5632.48,3274.29 Z " />
<path stroke="transparent" fill="#000000" transform="matrix(0.0833333 0 0 0.0833333 -149.5 -122.317)" d="M 5655.42,3220.95 L 5598.65,3188.17 L 5610.69,3172.03 L 5663.38,3202.45 L 5655.42,3220.95 Z " />
<path stroke="transparent" fill="#000000" transform="matrix(0.0833333 0 0 0.0833333 -149.5 -122.317)" d="M 5678.36,3167.61 L 5633.38,3141.64 L 5645.42,3125.5 L 5686.32,3149.11 L 5678.36,3167.61 Z " />
<path stroke="transparent" fill="#000000" transform="matrix(0.0833333 0 0 0.0833333 -149.5 -122.317)" d="M 5701.3,3114.27 L 5668.1,3095.1 L 5680.15,3078.96 L 5709.25,3095.77 L 5701.3,3114.27 Z " />
<path stroke="transparent" fill="#000000" transform="matrix(0.0833333 0 0 0.0833333 -149.5 -122.317)" d="M 5724.24,3060.93 L 5702.83,3048.57 L 5714.87,3032.43 L 5732.19,3042.43 L 5724.24,3060.93 Z " />
<path stroke="transparent" fill="#000000" transform="matrix(0.0833333 0 0 0.0833333 -149.5 -122.317)" d="M 5890,1941.15 L 6005.91,1910.09 L 6009.32,1929.89 L 5896.94,1960 L 5890,1941.15 Z " />
<path stroke="transparent" fill="#000000" transform="matrix(0.0833333 0 0 0.0833333 -149.5 -122.317)" d="M 5910.29,1996.22 L 6015.87,1967.93 L 6019.27,1987.73 L 5917.24,2015.07 L 5910.29,1996.22 Z " />
<path stroke="transparent" fill="#000000" transform="matrix(0.0833333 0 0 0.0833333 -149.5 -122.317)" d="M 5930.59,2051.29 L 6025.82,2025.77 L 6029.23,2045.56 L 5937.54,2070.13 L 5930.59,2051.29 Z " />
<path stroke="transparent" fill="#000000" transform="matrix(0.0833333 0 0 0.0833333 -149.5 -122.317)" d="M 5950.89,2106.36 L 6035.78,2083.61 L 6039.19,2103.4 L 5957.83,2125.2 L 5950.89,2106.36 Z " />
<path stroke="transparent" fill="#000000" transform="matrix(0.0833333 0 0 0.0833333 -149.5 -122.317)" d="M 5971.18,2161.42 L 6045.74,2141.45 L 6049.14,2161.24 L 5978.13,2180.27 L 5971.18,2161.42 Z " />
<path stroke="transparent" fill="#000000" transform="matrix(0.0833333 0 0 0.0833333 -149.5 -122.317)" d="M 5991.48,2216.49 L 6055.69,2199.29 L 6059.1,2219.08 L 5998.42,2235.34 L 5991.48,2216.49 Z " />
<path stroke="transparent" fill="#000000" transform="matrix(0.0833333 0 0 0.0833333 -149.5 -122.317)" d="M 6011.78,2271.56 L 6065.65,2257.12 L 6069.06,2276.92 L 6018.72,2290.4 L 6011.78,2271.56 Z " />
<path stroke="transparent" fill="#000000" transform="matrix(0.0833333 0 0 0.0833333 -149.5 -122.317)" d="M 6032.07,2326.63 L 6075.61,2314.96 L 6079.01,2334.75 L 6039.02,2345.47 L 6032.07,2326.63 Z " />
<path stroke="transparent" fill="#000000" transform="matrix(0.0833333 0 0 0.0833333 -149.5 -122.317)" d="M 6052.37,2381.7 L 6085.56,2372.8 L 6088.97,2392.59 L 6059.31,2400.54 L 6052.37,2381.7 Z " />
<path stroke="transparent" fill="#000000" transform="matrix(0.0833333 0 0 0.0833333 -149.5 -122.317)" d="M 6072.66,2436.76 L 6095.52,2430.64 L 6098.93,2450.43 L 6079.61,2455.61 L 6072.66,2436.76 Z " />
<text x="0" y="0" stroke="transparent" fill="#000000" transform="matrix(0.0833333 0 0 0.0833333 378.104 130.549)" style="font:normal normal normal 200px 'Arial'" >
H</text>
<path stroke="transparent" fill="#000000" transform="matrix(0.0833333 0 0 0.0833333 -149.5 -122.317)" d="M 6284.05,3042.84 L 6387.97,3102.84 L 6375.87,3118.95 L 6276.15,3061.38 L 6284.05,3042.84 Z " />
<path stroke="transparent" fill="#000000" transform="matrix(0.0833333 0 0 0.0833333 -149.5 -122.317)" d="M 6261.97,3094.67 L 6354.12,3147.87 L 6342.02,3163.98 L 6254.08,3113.21 L 6261.97,3094.67 Z " />
<path stroke="transparent" fill="#000000" transform="matrix(0.0833333 0 0 0.0833333 -149.5 -122.317)" d="M 6239.89,3146.5 L 6320.28,3192.91 L 6308.17,3209.01 L 6232,3165.04 L 6239.89,3146.5 Z " />
<path stroke="transparent" fill="#000000" transform="matrix(0.0833333 0 0 0.0833333 -149.5 -122.317)" d="M 6217.82,3198.33 L 6286.43,3237.94 L 6274.32,3254.05 L 6209.92,3216.86 L 6217.82,3198.33 Z " />
<path stroke="transparent" fill="#000000" transform="matrix(0.0833333 0 0 0.0833333 -149.5 -122.317)" d="M 6195.74,3250.16 L 6252.58,3282.98 L 6240.48,3299.08 L 6187.85,3268.69 L 6195.74,3250.16 Z " />
<path stroke="transparent" fill="#000000" transform="matrix(0.0833333 0 0 0.0833333 -149.5 -122.317)" d="M 6173.66,3301.99 L 6218.73,3328.01 L 6206.63,3344.11 L 6165.77,3320.52 L 6173.66,3301.99 Z " />
<path stroke="transparent" fill="#000000" transform="matrix(0.0833333 0 0 0.0833333 -149.5 -122.317)" d="M 6151.59,3353.82 L 6184.89,3373.04 L 6172.78,3389.15 L 6143.69,3372.35 L 6151.59,3353.82 Z " />
<path stroke="transparent" fill="#000000" transform="matrix(0.0833333 0 0 0.0833333 -149.5 -122.317)" d="M 6129.51,3405.65 L 6151.04,3418.08 L 6138.94,3434.18 L 6121.62,3424.18 L 6129.51,3405.65 Z " />
<path stroke="transparent" fill="#000000" transform="matrix(0.0833333 0 0 0.0833333 -149.5 -122.317)" d="M 8026.54,1518.56 L 8111.39,1603.41 L 7655.19,1989.42 L 7644.7,1985.25 L 7641.94,1973.07 L 8026.54,1518.56 Z " />
<text x="0" y="0" stroke="transparent" fill="#000000" transform="matrix(0.0833333 0 0 0.0833333 146.258 323.85)" style="font:normal normal normal 200px 'Arial'" >
H</text>
<path stroke="transparent" fill="#000000" transform="matrix(0.0833333 0 0 0.0833333 -149.5 -122.317)" d="M 3681.09,5173.33 L 3561.09,5173.33 L 3563.35,5153.33 L 3678.84,5153.33 L 3681.09,5173.33 Z " />
<path stroke="transparent" fill="#000000" transform="matrix(0.0833333 0 0 0.0833333 -149.5 -122.317)" d="M 3674.27,5112.86 L 3567.91,5112.86 L 3570.17,5092.86 L 3672.02,5092.86 L 3674.27,5112.86 Z " />
<path stroke="transparent" fill="#000000" transform="matrix(0.0833333 0 0 0.0833333 -149.5 -122.317)" d="M 3667.45,5052.39 L 3574.74,5052.39 L 3576.99,5032.39 L 3665.2,5032.39 L 3667.45,5052.39 Z " />
<path stroke="transparent" fill="#000000" transform="matrix(0.0833333 0 0 0.0833333 -149.5 -122.317)" d="M 3660.63,4991.92 L 3581.56,4991.92 L 3583.81,4971.92 L 3658.38,4971.92 L 3660.63,4991.92 Z " />
<path stroke="transparent" fill="#000000" transform="matrix(0.0833333 0 0 0.0833333 -149.5 -122.317)" d="M 3653.81,4931.45 L 3588.38,4931.45 L 3590.63,4911.45 L 3651.56,4911.45 L 3653.81,4931.45 Z " />
<path stroke="transparent" fill="#000000" transform="matrix(0.0833333 0 0 0.0833333 -149.5 -122.317)" d="M 3646.99,4870.98 L 3595.2,4870.98 L 3597.45,4850.98 L 3644.74,4850.98 L 3646.99,4870.98 Z " />
<path stroke="transparent" fill="#000000" transform="matrix(0.0833333 0 0 0.0833333 -149.5 -122.317)" d="M 3640.17,4810.51 L 3602.02,4810.51 L 3604.27,4790.51 L 3637.91,4790.51 L 3640.17,4810.51 Z " />
<path stroke="transparent" fill="#000000" transform="matrix(0.0833333 0 0 0.0833333 -149.5 -122.317)" d="M 3633.35,4750.04 L 3608.84,4750.04 L 3611.09,4730.04 L 3631.09,4730.04 L 3633.35,4750.04 Z " />
</svg>
