<?xml version="1.0" standalone="no" ?>
<!DOCTYPE svg PUBLIC "-//W3C//DTD SVG 1.1//EN" "http://www.w3.org/Graphics/SVG/1.1/DTD/svg11.dtd">
<svg width="180px" height="138px" viewBox="0 0 180 138" style="background-color: #ffffff00" xmlns="http://www.w3.org/2000/svg" xmlns:xlink="http://www.w3.org/1999/xlink" version="1.1" >
<text x="0" y="0" stroke="transparent" fill="#000000" transform="matrix(0.0666667 0 0 0.0666667 102.166 14.5709)" style="font:normal normal normal 200px 'Arial'" >
OH</text>
<text x="0" y="0" stroke="transparent" fill="#000000" transform="matrix(0.0666667 0 0 0.0666667 32.8842 134.574)" style="font:normal normal normal 200px 'Arial'" >
OH</text>
<text x="0" y="0" stroke="transparent" fill="#000000" transform="matrix(0.0666667 0 0 0.0666667 102.166 134.574)" style="font:normal normal normal 200px 'Arial'" >
O</text>
<text x="0" y="0" stroke="transparent" fill="#000000" transform="matrix(0.0666667 0 0 0.0666667 136.806 74.5722)" style="font:normal normal normal 200px 'Arial'" >
O</text>
<path stroke="transparent" fill="#000000" transform="matrix(0.0666667 0 0 0.0666667 -258.92 -276)" d="M 5389.68,4329.42 L 5399.69,4346.74 L 4984.67,4586.38 L 4974.67,4580.61 L 4974.67,4569.06 L 5389.68,4329.42 Z " />
<path stroke="transparent" fill="#000000" transform="matrix(0.0666667 0 0 0.0666667 -258.92 -276)" d="M 4964.67,4586.38 L 4974.67,4580.61 L 4984.67,4586.38 L 4984.67,5174.81 L 4974.67,5180.58 L 4964.67,5174.81 L 4964.67,4586.38 Z " />
<path stroke="transparent" fill="#000000" transform="matrix(0.0666667 0 0 0.0666667 -258.92 -276)" d="M 4974.67,4569.06 L 4974.67,4580.61 L 4964.67,4586.38 L 4455.06,4292.15 L 4455.06,4269.06 L 4974.67,4569.06 Z " />
<path stroke="transparent" fill="#000000" transform="matrix(0.0666667 0 0 0.0666667 -258.92 -276)" d="M 4907.67,4613.52 L 4897.67,4630.84 L 4450.06,4372.4 L 4460.06,4355.08 L 4907.67,4613.52 Z " />
<path stroke="transparent" fill="#000000" transform="matrix(0.0666667 0 0 0.0666667 -258.92 -276)" d="M 4455.06,4269.06 L 4455.06,4292.15 L 3945.45,4586.38 L 3925.45,4574.84 L 4455.06,4269.06 Z " />
<path stroke="transparent" fill="#000000" transform="matrix(0.0666667 0 0 0.0666667 -258.92 -276)" d="M 3925.45,4574.84 L 3945.45,4586.38 L 3945.45,5174.85 L 3925.45,5186.4 L 3925.45,4574.84 Z " />
<path stroke="transparent" fill="#000000" transform="matrix(0.0666667 0 0 0.0666667 -258.92 -276)" d="M 3997.45,4622.18 L 4017.45,4622.18 L 4017.45,5139.05 L 3997.45,5139.05 L 3997.45,4622.18 Z " />
<path stroke="transparent" fill="#000000" transform="matrix(0.0666667 0 0 0.0666667 -258.92 -276)" d="M 3925.45,5186.4 L 3945.45,5174.85 L 4455.06,5469.04 L 4455.06,5480.59 L 4445.06,5486.36 L 3925.45,5186.4 Z " />
<path stroke="transparent" fill="#000000" transform="matrix(0.0666667 0 0 0.0666667 -258.92 -276)" d="M 4465.06,5975.44 L 4445.06,5975.44 L 4445.06,5486.36 L 4455.06,5480.59 L 4465.06,5486.36 L 4465.06,5975.44 Z " />
<path stroke="transparent" fill="#000000" transform="matrix(0.0666667 0 0 0.0666667 -258.92 -276)" d="M 4465.06,5486.36 L 4455.06,5480.59 L 4455.06,5469.04 L 4964.67,5174.81 L 4974.67,5180.58 L 4974.67,5192.13 L 4465.06,5486.36 Z " />
<path stroke="transparent" fill="#000000" transform="matrix(0.0666667 0 0 0.0666667 -258.92 -276)" d="M 4460.06,5406.11 L 4450.06,5388.79 L 4897.67,5130.35 L 4907.67,5147.67 L 4460.06,5406.11 Z " />
<path stroke="transparent" fill="#000000" transform="matrix(0.0666667 0 0 0.0666667 -258.92 -276)" d="M 4974.67,5192.13 L 4974.67,5180.58 L 4984.67,5174.81 L 5494.29,5469.04 L 5494.29,5492.14 L 4974.67,5192.13 Z " />
<path stroke="transparent" fill="#000000" transform="matrix(0.0666667 0 0 0.0666667 -258.92 -276)" d="M 5540.29,5975.44 L 5520.29,5975.44 L 5520.29,5459.8 L 5540.29,5459.8 L 5540.29,5975.44 Z " />
<path stroke="transparent" fill="#000000" transform="matrix(0.0666667 0 0 0.0666667 -258.92 -276)" d="M 5468.28,5975.44 L 5448.28,5975.44 L 5448.28,5459.8 L 5468.28,5459.8 L 5468.28,5975.44 Z " />
<path stroke="transparent" fill="#000000" transform="matrix(0.0666667 0 0 0.0666667 -258.92 -276)" d="M 5494.29,5492.14 L 5494.29,5469.04 L 5909.29,5229.43 L 5919.29,5246.75 L 5494.29,5492.14 Z " />
<path stroke="transparent" fill="#000000" transform="matrix(0.0666667 0 0 0.0666667 -258.92 -276)" d="M 6108.93,5247 L 6118.93,5229.68 L 6538.55,5471.93 L 6528.55,5489.25 L 6108.93,5247 Z " />
</svg>
