<?xml version="1.0" standalone="no" ?>
<!DOCTYPE svg PUBLIC "-//W3C//DTD SVG 1.1//EN" "http://www.w3.org/Graphics/SVG/1.1/DTD/svg11.dtd">
<svg width="126px" height="121px" viewBox="0 0 126 121" style="background-color: #ffffff00" xmlns="http://www.w3.org/2000/svg" xmlns:xlink="http://www.w3.org/1999/xlink" version="1.1" >
<text x="0" y="0" stroke="none" fill="#000000" transform="matrix(0.0666667 0 0 0.0666667 102.535 74.6722)" font-style="normal" font-weight="normal" font-size="200px" font-family="Arial" >
OH</text>
<text x="0" y="0" stroke="none" fill="#000000" transform="matrix(0.0666667 0 0 0.0666667 67.8971 14.6722)" font-style="normal" font-weight="normal" font-size="200px" font-family="Arial" >
O</text>
<text x="0" y="0" stroke="none" fill="#000000" transform="matrix(0.0666667 0 0 0.0666667 33.6547 114.672)" font-style="normal" font-weight="normal" font-size="200px" font-family="Arial" >
NH</text>
<text x="0" y="0" stroke="none" fill="#000000" transform="matrix(0.0666667 0 0 0.0666667 52.9126 117.606)" font-style="normal" font-weight="normal" font-size="150px" font-family="Arial" >
2</text>
<path stroke="none" fill="#000000" transform="matrix(0.0666667 0 0 0.0666667 -285.859 -224)" d="M 5384.34,4090.54 L 5384.34,4113.63 L 4875.25,4407.54 L 4864.7,4402.08 L 4864.7,4390.54 L 5384.34,4090.54 Z " />
<path stroke="none" fill="#000000" transform="matrix(0.0666667 0 0 0.0666667 -285.859 -224)" d="M 5430.34,4122.87 L 5410.34,4122.87 L 5410.34,3621.92 L 5430.34,3621.92 L 5430.34,4122.87 Z " />
<path stroke="none" fill="#000000" transform="matrix(0.0666667 0 0 0.0666667 -285.859 -224)" d="M 5358.34,4122.87 L 5338.34,4122.87 L 5338.34,3621.92 L 5358.34,3621.92 L 5358.34,4122.87 Z " />
<path stroke="none" fill="#000000" transform="matrix(0.0666667 0 0 0.0666667 -285.859 -224)" d="M 5384.34,4113.63 L 5384.34,4090.54 L 5816.29,4339.95 L 5806.28,4357.27 L 5384.34,4113.63 Z " />
<path stroke="none" fill="#000000" transform="matrix(0.0666667 0 0 0.0666667 -285.859 -224)" d="M 4340.07,4110.74 L 4350.07,4093.42 L 4864.7,4390.54 L 4864.7,4402.08 L 4854.15,4407.54 L 4340.07,4110.74 Z " />
<path stroke="none" fill="#000000" transform="matrix(0.0666667 0 0 0.0666667 -285.859 -224)" d="M 4924.7,4899.25 L 4804.7,4899.25 L 4854.15,4407.54 L 4864.7,4402.08 L 4875.25,4407.54 L 4924.7,4899.25 Z " />
</svg>
