<?xml version="1.0" standalone="no" ?>
<!DOCTYPE svg PUBLIC "-//W3C//DTD SVG 1.1//EN" "http://www.w3.org/Graphics/SVG/1.1/DTD/svg11.dtd">
<svg width="293px" height="225px" viewBox="0 0 293 225" style="background-color: #ffffff00" xmlns="http://www.w3.org/2000/svg" xmlns:xlink="http://www.w3.org/1999/xlink" version="1.1" >
<text x="0" y="0" stroke="transparent" fill="#000000" transform="matrix(0.0833333 0 0 0.0833333 44.7984 21.689)" style="font:normal normal normal 200px 'Arial'" >
O</text>
<text x="0" y="0" stroke="transparent" fill="#000000" transform="matrix(0.0833333 0 0 0.0833333 230.262 104.491)" style="font:normal normal normal 200px 'Arial'" >
N</text>
<text x="0" y="0" stroke="transparent" fill="#000000" transform="matrix(0.0833333 0 0 0.0833333 242.298 97.9911)" style="font:normal normal normal 150px 'Arial'" >
+</text>
<text x="0" y="0" stroke="transparent" fill="#000000" transform="matrix(0.0833333 0 0 0.0833333 272.292 78.191)" style="font:normal normal normal 200px 'Arial'" >
O</text>
<text x="0" y="0" stroke="transparent" fill="#000000" transform="matrix(0.0833333 0 0 0.0833333 285.292 71.691)" style="font:normal normal normal 150px 'Arial'" >
-</text>
<text x="0" y="0" stroke="transparent" fill="#000000" transform="matrix(0.0833333 0 0 0.0833333 95.7056 93.1024)" style="font:normal normal normal 200px 'Arial'" >
N</text>
<path stroke="transparent" fill="#000000" transform="matrix(0.0833333 0 0 0.0833333 -289.208 -247)" d="M 4672.4,3352.09 L 4664.4,3370.41 L 4200.82,3168 L 4208.82,3149.67 L 4672.4,3352.09 Z " />
<path stroke="transparent" fill="#000000" transform="matrix(0.0833333 0 0 0.0833333 -289.208 -247)" d="M 4643.59,3418.07 L 4635.59,3436.4 L 4172.01,3233.98 L 4180.01,3215.65 L 4643.59,3418.07 Z " />
<path stroke="transparent" fill="#000000" transform="matrix(0.0833333 0 0 0.0833333 -289.208 -247)" d="M 5108.88,3007.74 L 5111.99,3030.63 L 4646.39,3390.92 L 4625.5,3381.8 L 5108.88,3007.74 Z " />
<path stroke="transparent" fill="#000000" transform="matrix(0.0833333 0 0 0.0833333 -289.208 -247)" d="M 5674.55,3239.36 L 5656.84,3253.72 L 5111.99,3030.63 L 5108.88,3007.74 L 5674.55,3239.36 Z " />
<path stroke="transparent" fill="#000000" transform="matrix(0.0833333 0 0 0.0833333 -289.208 -247)" d="M 5605.75,3288.99 L 5598.17,3307.5 L 5117.84,3110.82 L 5125.41,3092.31 L 5605.75,3288.99 Z " />
<path stroke="transparent" fill="#000000" transform="matrix(0.0833333 0 0 0.0833333 -289.208 -247)" d="M 5786.18,3849.2 L 5777.21,3855.73 L 5766.15,3850.81 L 5656.84,3253.72 L 5674.55,3239.36 L 5786.18,3849.2 Z " />
<path stroke="transparent" fill="#000000" transform="matrix(0.0833333 0 0 0.0833333 -289.208 -247)" d="M 5277.08,4176.79 L 5266.91,4171.32 L 5265.44,4160.47 L 5766.15,3850.81 L 5777.21,3855.73 L 5777.56,3867.27 L 5277.08,4176.79 Z " />
<path stroke="transparent" fill="#000000" transform="matrix(0.0833333 0 0 0.0833333 -289.208 -247)" d="M 5345.4,4219.2 L 5334.88,4202.19 L 5774.47,3930.32 L 5784.98,3947.33 L 5345.4,4219.2 Z " />
<path stroke="transparent" fill="#000000" transform="matrix(0.0833333 0 0 0.0833333 -289.208 -247)" d="M 5294.87,4764.95 L 5285.05,4771.02 L 5274.83,4764.06 L 5257.14,4178.88 L 5266.91,4171.32 L 5277.08,4176.79 L 5294.87,4764.95 Z " />
<path stroke="transparent" fill="#000000" transform="matrix(0.0833333 0 0 0.0833333 -289.208 -247)" d="M 5813.13,5043.64 L 5813.83,5066.73 L 5284.23,4781.94 L 5285.05,4771.02 L 5294.87,4764.95 L 5813.13,5043.64 Z " />
<path stroke="transparent" fill="#000000" transform="matrix(0.0833333 0 0 0.0833333 -289.208 -247)" d="M 5815.71,4963.28 L 5806.23,4980.89 L 5351.02,4736.1 L 5360.49,4718.49 L 5815.71,4963.28 Z " />
<path stroke="transparent" fill="#000000" transform="matrix(0.0833333 0 0 0.0833333 -289.208 -247)" d="M 6313.61,4734.18 L 6333.95,4745.12 L 5813.83,5066.73 L 5813.13,5043.64 L 6313.61,4734.18 Z " />
<path stroke="transparent" fill="#000000" transform="matrix(0.0833333 0 0 0.0833333 -289.208 -247)" d="M 6299.2,4257.44 L 6319.19,4256.84 L 6333.95,4745.12 L 6313.61,4734.18 L 6299.2,4257.44 Z " />
<path stroke="transparent" fill="#000000" transform="matrix(0.0833333 0 0 0.0833333 -289.208 -247)" d="M 6227.22,4259.62 L 6247.22,4259.01 L 6260.55,4699.97 L 6240.56,4700.58 L 6227.22,4259.62 Z " />
<path stroke="transparent" fill="#000000" transform="matrix(0.0833333 0 0 0.0833333 -289.208 -247)" d="M 6205.57,4074.73 L 6196.1,4092.34 L 5777.56,3867.27 L 5777.21,3855.73 L 5786.18,3849.2 L 6205.57,4074.73 Z " />
<path stroke="transparent" fill="#000000" transform="matrix(0.0833333 0 0 0.0833333 -289.208 -247)" d="M 6712.58,3876.49 L 6723.1,3893.5 L 6479.95,4043.86 L 6469.43,4026.85 L 6712.58,3876.49 Z " />
<path stroke="transparent" fill="#000000" transform="matrix(0.0833333 0 0 0.0833333 -289.208 -247)" d="M 4727.83,4981.52 L 4720.27,4973.61 L 4723.73,4961.74 L 5274.83,4764.06 L 5285.05,4771.02 L 5284.23,4781.94 L 4727.83,4981.52 Z " />
<path stroke="transparent" fill="#000000" transform="matrix(0.0833333 0 0 0.0833333 -289.208 -247)" d="M 4499.98,5538 L 4485.85,5519.73 L 4708.83,4975.16 L 4720.27,4973.61 L 4727.83,4981.52 L 4499.98,5538 Z " />
<path stroke="transparent" fill="#000000" transform="matrix(0.0833333 0 0 0.0833333 -289.208 -247)" d="M 4451.29,5466.9 L 4432.78,5459.32 L 4628.63,4981 L 4647.14,4988.58 L 4451.29,5466.9 Z " />
<path stroke="transparent" fill="#000000" transform="matrix(0.0833333 0 0 0.0833333 -289.208 -247)" d="M 3894,5620.26 L 3902.75,5598.89 L 4485.85,5519.73 L 4499.98,5538 L 3894,5620.26 Z " />
<path stroke="transparent" fill="#000000" transform="matrix(0.0833333 0 0 0.0833333 -289.208 -247)" d="M 3519.75,5136.58 L 3542.63,5133.47 L 3902.75,5598.89 L 3894,5620.26 L 3519.75,5136.58 Z " />
<path stroke="transparent" fill="#000000" transform="matrix(0.0833333 0 0 0.0833333 -289.208 -247)" d="M 3605.67,5129.96 L 3621.49,5117.72 L 3937.79,5526.51 L 3921.97,5538.75 L 3605.67,5129.96 Z " />
<path stroke="transparent" fill="#000000" transform="matrix(0.0833333 0 0 0.0833333 -289.208 -247)" d="M 3751.48,4570.63 L 3765.61,4588.9 L 3542.63,5133.47 L 3519.75,5136.58 L 3751.48,4570.63 Z " />
<path stroke="transparent" fill="#000000" transform="matrix(0.0833333 0 0 0.0833333 -289.208 -247)" d="M 4347.33,4489.75 L 4353.08,4499.06 L 4348.71,4509.74 L 3765.61,4588.9 L 3751.48,4570.63 L 4347.33,4489.75 Z " />
<path stroke="transparent" fill="#000000" transform="matrix(0.0833333 0 0 0.0833333 -289.208 -247)" d="M 4320.23,4566.08 L 4322.92,4585.9 L 3810.77,4655.43 L 3808.08,4635.61 L 4320.23,4566.08 Z " />
<path stroke="transparent" fill="#000000" transform="matrix(0.0833333 0 0 0.0833333 -289.208 -247)" d="M 4348.71,4509.74 L 4353.08,4499.06 L 4365.44,4498.68 L 4723.73,4961.74 L 4720.27,4973.61 L 4708.83,4975.16 L 4348.71,4509.74 Z " />
<path stroke="transparent" fill="#000000" transform="matrix(0.0833333 0 0 0.0833333 -289.208 -247)" d="M 4606.43,4109.52 L 4622.96,4120.78 L 4365.44,4498.68 L 4353.08,4499.06 L 4347.33,4489.75 L 4606.43,4109.52 Z " />
<path stroke="transparent" fill="#000000" transform="matrix(0.0833333 0 0 0.0833333 -289.208 -247)" d="M 4691.83,3900.33 L 4671.91,3902.1 L 4625.5,3381.8 L 4646.39,3390.92 L 4691.83,3900.33 Z " />
<path stroke="transparent" fill="#000000" transform="matrix(0.0833333 0 0 0.0833333 -289.208 -247)" d="M 4796.55,4044.46 L 4802.15,4025.26 L 5265.44,4160.47 L 5266.91,4171.32 L 5257.14,4178.88 L 4796.55,4044.46 Z " />
</svg>
