<?xml version="1.0" standalone="no" ?>
<!DOCTYPE svg PUBLIC "-//W3C//DTD SVG 1.1//EN" "http://www.w3.org/Graphics/SVG/1.1/DTD/svg11.dtd">
<svg width="466px" height="172px" viewBox="0 0 466 172" style="background-color: #ffffff00" xmlns="http://www.w3.org/2000/svg" xmlns:xlink="http://www.w3.org/1999/xlink" version="1.1" >
<text x="0" y="0" stroke="transparent" fill="#000000" transform="matrix(0.0833333 0 0 0.0833333 449.093 93.1176)" style="font:normal normal normal 200px 'Arial'" >
O</text>
<text x="0" y="0" stroke="transparent" fill="#000000" transform="matrix(0.0833333 0 0 0.0833333 232.588 18.1178)" style="font:normal normal normal 200px 'Arial'" >
O</text>
<text x="0" y="0" stroke="transparent" fill="#000000" transform="matrix(0.0833333 0 0 0.0833333 145.982 18.1146)" style="font:normal normal normal 200px 'Arial'" >
O</text>
<text x="0" y="0" stroke="transparent" fill="#000000" transform="matrix(0.0833333 0 0 0.0833333 4.03995 43.1163)" style="font:normal normal normal 200px 'Arial'" >
HO</text>
<text x="0" y="0" stroke="transparent" fill="#000000" transform="matrix(0.0833333 0 0 0.0833333 47.3434 118.12)" style="font:normal normal normal 200px 'Arial'" >
HO</text>
<text x="0" y="0" stroke="transparent" fill="#000000" transform="matrix(0.0833333 0 0 0.0833333 145.983 168.119)" style="font:normal normal normal 200px 'Arial'" >
OH</text>
<text x="0" y="0" stroke="transparent" fill="#000000" transform="matrix(0.0833333 0 0 0.0833333 232.587 118.118)" style="font:normal normal normal 200px 'Arial'" >
OH</text>
<path stroke="transparent" fill="#000000" transform="matrix(0.0833333 0 0 0.0833333 -187.208 -282)" d="M 7183.98,4729.19 L 7203.98,4717.64 L 7203.98,5323.42 L 7183.98,5323.42 L 7183.98,4729.19 Z " />
<path stroke="transparent" fill="#000000" transform="matrix(0.0833333 0 0 0.0833333 -187.208 -282)" d="M 7591.01,4441.08 L 7601.01,4458.4 L 7162.98,4711.29 L 7152.98,4693.97 L 7591.01,4441.08 Z " />
<path stroke="transparent" fill="#000000" transform="matrix(0.0833333 0 0 0.0833333 -187.208 -282)" d="M 7627.01,4503.43 L 7637.01,4520.75 L 7198.98,4773.65 L 7188.98,4756.33 L 7627.01,4503.43 Z " />
<path stroke="transparent" fill="#000000" transform="matrix(0.0833333 0 0 0.0833333 -187.208 -282)" d="M 6674.37,4434.97 L 6674.37,4423.42 L 6684.37,4417.65 L 7203.98,4717.64 L 7183.98,4729.19 L 6674.37,4434.97 Z " />
<path stroke="transparent" fill="#000000" transform="matrix(0.0833333 0 0 0.0833333 -187.208 -282)" d="M 6664.37,3829.2 L 6684.37,3817.65 L 6684.37,4417.65 L 6674.37,4423.42 L 6664.37,4417.65 L 6664.37,3829.2 Z " />
<path stroke="transparent" fill="#000000" transform="matrix(0.0833333 0 0 0.0833333 -187.208 -282)" d="M 6592.37,3864.99 L 6612.37,3864.99 L 6612.37,4381.85 L 6592.37,4381.85 L 6592.37,3864.99 Z " />
<path stroke="transparent" fill="#000000" transform="matrix(0.0833333 0 0 0.0833333 -187.208 -282)" d="M 6154.81,3534.95 L 6154.81,3511.85 L 6684.37,3817.65 L 6664.37,3829.2 L 6154.81,3534.95 Z " />
<path stroke="transparent" fill="#000000" transform="matrix(0.0833333 0 0 0.0833333 -187.208 -282)" d="M 5645.18,3829.18 L 5635.18,3823.41 L 5635.18,3811.86 L 6154.81,3511.85 L 6154.81,3534.95 L 5645.18,3829.18 Z " />
<path stroke="transparent" fill="#000000" transform="matrix(0.0833333 0 0 0.0833333 -187.208 -282)" d="M 5712.18,3873.64 L 5702.18,3856.32 L 6149.8,3597.88 L 6159.8,3615.2 L 5712.18,3873.64 Z " />
<path stroke="transparent" fill="#000000" transform="matrix(0.0833333 0 0 0.0833333 -187.208 -282)" d="M 5210.6,3589.83 L 5220.6,3572.51 L 5635.18,3811.86 L 5635.18,3823.41 L 5625.18,3829.18 L 5210.6,3589.83 Z " />
<path stroke="transparent" fill="#000000" transform="matrix(0.0833333 0 0 0.0833333 -187.208 -282)" d="M 4985.96,3528.96 L 5045.96,3632.88 L 4605.93,3829.84 L 4595.93,3823.42 L 4595.37,3811.55 L 4985.96,3528.96 Z " />
<path stroke="transparent" fill="#000000" transform="matrix(0.0833333 0 0 0.0833333 -187.208 -282)" d="M 4171.32,3589.8 L 4181.32,3572.48 L 4595.37,3811.55 L 4595.93,3823.42 L 4585.93,3829.19 L 4171.32,3589.8 Z " />
<path stroke="transparent" fill="#000000" transform="matrix(0.0833333 0 0 0.0833333 -187.208 -282)" d="M 3971.68,3572.22 L 3981.68,3589.54 L 3566.66,3829.16 L 3556.66,3823.38 L 3557.12,3811.57 L 3971.68,3572.22 Z " />
<path stroke="transparent" fill="#000000" transform="matrix(0.0833333 0 0 0.0833333 -187.208 -282)" d="M 2985.02,3564.97 L 3085.2,3484.03 L 3557.12,3811.57 L 3556.66,3823.38 L 3546.66,3829.69 L 2985.02,3564.97 Z " />
<path stroke="transparent" fill="#000000" transform="matrix(0.0833333 0 0 0.0833333 -187.208 -282)" d="M 2615.02,3778.59 L 2605.02,3761.27 L 3085.2,3484.03 L 2985.02,3564.97 L 2615.02,3778.59 Z " />
<path stroke="transparent" fill="#000000" transform="matrix(0.0833333 0 0 0.0833333 -187.208 -282)" d="M 3546.66,3829.69 L 3556.66,3823.38 L 3566.66,3829.16 L 3566.68,4417.66 L 3546.68,4429.21 L 3546.66,3829.69 Z " />
<path stroke="transparent" fill="#000000" transform="matrix(0.0833333 0 0 0.0833333 -187.208 -282)" d="M 3159.66,4721.93 L 3099.66,4618.01 L 3118.12,4609.98 L 3175.85,4709.96 L 3159.66,4721.93 Z " />
<path stroke="transparent" fill="#000000" transform="matrix(0.0833333 0 0 0.0833333 -187.208 -282)" d="M 3208.1,4686.1 L 3154.92,4593.98 L 3173.38,4585.95 L 3224.28,4674.12 L 3208.1,4686.1 Z " />
<path stroke="transparent" fill="#000000" transform="matrix(0.0833333 0 0 0.0833333 -187.208 -282)" d="M 3256.54,4650.26 L 3210.17,4569.95 L 3228.63,4561.92 L 3272.72,4638.29 L 3256.54,4650.26 Z " />
<path stroke="transparent" fill="#000000" transform="matrix(0.0833333 0 0 0.0833333 -187.208 -282)" d="M 3304.98,4614.42 L 3265.43,4545.92 L 3283.89,4537.89 L 3321.16,4602.45 L 3304.98,4614.42 Z " />
<path stroke="transparent" fill="#000000" transform="matrix(0.0833333 0 0 0.0833333 -187.208 -282)" d="M 3353.41,4578.58 L 3320.68,4521.89 L 3339.14,4513.87 L 3369.6,4566.61 L 3353.41,4578.58 Z " />
<path stroke="transparent" fill="#000000" transform="matrix(0.0833333 0 0 0.0833333 -187.208 -282)" d="M 3401.85,4542.75 L 3375.94,4497.86 L 3394.4,4489.84 L 3418.03,4530.77 L 3401.85,4542.75 Z " />
<path stroke="transparent" fill="#000000" transform="matrix(0.0833333 0 0 0.0833333 -187.208 -282)" d="M 3450.29,4506.91 L 3431.19,4473.83 L 3449.65,4465.81 L 3466.47,4494.94 L 3450.29,4506.91 Z " />
<path stroke="transparent" fill="#000000" transform="matrix(0.0833333 0 0 0.0833333 -187.208 -282)" d="M 3498.73,4471.07 L 3486.45,4449.81 L 3504.91,4441.78 L 3514.91,4459.1 L 3498.73,4471.07 Z " />
<path stroke="transparent" fill="#000000" transform="matrix(0.0833333 0 0 0.0833333 -187.208 -282)" d="M 3546.68,4429.21 L 3566.68,4417.66 L 4076.3,4711.88 L 4076.3,4723.43 L 4065.75,4728.88 L 3546.68,4429.21 Z " />
<path stroke="transparent" fill="#000000" transform="matrix(0.0833333 0 0 0.0833333 -187.208 -282)" d="M 4136.29,5218.26 L 4016.29,5218.26 L 4065.75,4728.88 L 4076.3,4723.43 L 4086.85,4728.88 L 4136.29,5218.26 Z " />
<path stroke="transparent" fill="#000000" transform="matrix(0.0833333 0 0 0.0833333 -187.208 -282)" d="M 4086.85,4728.88 L 4076.3,4723.43 L 4076.3,4711.88 L 4585.93,4417.65 L 4605.93,4429.19 L 4086.85,4728.88 Z " />
<path stroke="transparent" fill="#000000" transform="matrix(0.0833333 0 0 0.0833333 -187.208 -282)" d="M 4605.93,4429.19 L 4585.93,4417.65 L 4585.93,3829.19 L 4595.93,3823.42 L 4605.93,3829.84 L 4605.93,4429.19 Z " />
<path stroke="transparent" fill="#000000" transform="matrix(0.0833333 0 0 0.0833333 -187.208 -282)" d="M 5052.93,4617.98 L 4992.93,4721.9 L 4976.74,4709.93 L 5034.47,4609.95 L 5052.93,4617.98 Z " />
<path stroke="transparent" fill="#000000" transform="matrix(0.0833333 0 0 0.0833333 -187.208 -282)" d="M 4997.67,4593.95 L 4944.49,4686.07 L 4928.31,4674.1 L 4979.21,4585.93 L 4997.67,4593.95 Z " />
<path stroke="transparent" fill="#000000" transform="matrix(0.0833333 0 0 0.0833333 -187.208 -282)" d="M 4942.42,4569.93 L 4896.06,4650.23 L 4879.87,4638.26 L 4923.96,4561.9 L 4942.42,4569.93 Z " />
<path stroke="transparent" fill="#000000" transform="matrix(0.0833333 0 0 0.0833333 -187.208 -282)" d="M 4887.17,4545.9 L 4847.62,4614.4 L 4831.44,4602.43 L 4868.71,4537.87 L 4887.17,4545.9 Z " />
<path stroke="transparent" fill="#000000" transform="matrix(0.0833333 0 0 0.0833333 -187.208 -282)" d="M 4831.91,4521.87 L 4799.18,4578.56 L 4783,4566.59 L 4813.45,4513.84 L 4831.91,4521.87 Z " />
<path stroke="transparent" fill="#000000" transform="matrix(0.0833333 0 0 0.0833333 -187.208 -282)" d="M 4776.66,4497.84 L 4750.75,4542.73 L 4734.57,4530.75 L 4758.2,4489.82 L 4776.66,4497.84 Z " />
<path stroke="transparent" fill="#000000" transform="matrix(0.0833333 0 0 0.0833333 -187.208 -282)" d="M 4721.41,4473.82 L 4702.31,4506.89 L 4686.13,4494.92 L 4702.95,4465.79 L 4721.41,4473.82 Z " />
<path stroke="transparent" fill="#000000" transform="matrix(0.0833333 0 0 0.0833333 -187.208 -282)" d="M 4666.16,4449.79 L 4653.88,4471.06 L 4637.7,4459.08 L 4647.7,4441.76 L 4666.16,4449.79 Z " />
<path stroke="transparent" fill="#000000" transform="matrix(0.0833333 0 0 0.0833333 -187.208 -282)" d="M 5645.17,4417.63 L 5625.17,4429.18 L 5625.18,3829.18 L 5635.18,3823.41 L 5645.18,3829.18 L 5645.17,4417.63 Z " />
<path stroke="transparent" fill="#000000" transform="matrix(0.0833333 0 0 0.0833333 -187.208 -282)" d="M 6154.79,4711.85 L 6154.79,4734.95 L 5625.17,4429.18 L 5645.17,4417.63 L 6154.79,4711.85 Z " />
<path stroke="transparent" fill="#000000" transform="matrix(0.0833333 0 0 0.0833333 -187.208 -282)" d="M 6159.79,4631.6 L 6149.79,4648.92 L 5702.17,4390.5 L 5712.17,4373.18 L 6159.79,4631.6 Z " />
<path stroke="transparent" fill="#000000" transform="matrix(0.0833333 0 0 0.0833333 -187.208 -282)" d="M 6154.79,4734.95 L 6154.79,4711.85 L 6664.37,4417.65 L 6674.37,4423.42 L 6674.37,4434.97 L 6154.79,4734.95 Z " />
</svg>
