<?xml version="1.0" standalone="no" ?>
<!DOCTYPE svg PUBLIC "-//W3C//DTD SVG 1.1//EN" "http://www.w3.org/Graphics/SVG/1.1/DTD/svg11.dtd">
<svg width="264px" height="118px" viewBox="0 0 264 118" style="background-color: #ffffff00" xmlns="http://www.w3.org/2000/svg" xmlns:xlink="http://www.w3.org/1999/xlink" version="1.1" >
<text x="0" y="0" stroke="transparent" fill="#000000" transform="matrix(0.0666667 0 0 0.0666667 32.963 14.2389)" style="font:normal normal normal 200px 'Arial'" >
O</text>
<text x="0" y="0" stroke="transparent" fill="#000000" transform="matrix(0.0666667 0 0 0.0666667 102.245 14.2389)" style="font:normal normal normal 200px 'Arial'" >
O</text>
<text x="0" y="0" stroke="transparent" fill="#000000" transform="matrix(0.0666667 0 0 0.0666667 206.168 114.239)" style="font:normal normal normal 200px 'Arial'" >
O</text>
<text x="0" y="0" stroke="transparent" fill="#000000" transform="matrix(0.0666667 0 0 0.0666667 240.809 54.2389)" style="font:normal normal normal 200px 'Arial'" >
OH</text>
<path stroke="transparent" fill="#000000" transform="matrix(0.0666667 0 0 0.0666667 -246.787 -318.333)" d="M 4274.25,5499.04 L 4274.25,5522.13 L 3759.63,5819.24 L 3749.63,5801.92 L 4274.25,5499.04 Z " />
<path stroke="transparent" fill="#000000" transform="matrix(0.0666667 0 0 0.0666667 -246.787 -318.333)" d="M 4228.25,5030.42 L 4248.25,5030.42 L 4248.25,5531.37 L 4228.25,5531.37 L 4228.25,5030.42 Z " />
<path stroke="transparent" fill="#000000" transform="matrix(0.0666667 0 0 0.0666667 -246.787 -318.333)" d="M 4300.25,5030.42 L 4320.25,5030.42 L 4320.25,5531.37 L 4300.25,5531.37 L 4300.25,5030.42 Z " />
<path stroke="transparent" fill="#000000" transform="matrix(0.0666667 0 0 0.0666667 -246.787 -318.333)" d="M 4793.86,5799.04 L 4793.86,5822.13 L 4274.25,5522.13 L 4274.25,5499.04 L 4793.86,5799.04 Z " />
<path stroke="transparent" fill="#000000" transform="matrix(0.0666667 0 0 0.0666667 -246.787 -318.333)" d="M 5313.48,5499.04 L 5313.48,5522.13 L 4793.86,5822.13 L 4793.86,5799.04 L 5313.48,5499.04 Z " />
<path stroke="transparent" fill="#000000" transform="matrix(0.0666667 0 0 0.0666667 -246.787 -318.333)" d="M 5267.48,5030.42 L 5287.48,5030.42 L 5287.48,5531.37 L 5267.48,5531.37 L 5267.48,5030.42 Z " />
<path stroke="transparent" fill="#000000" transform="matrix(0.0666667 0 0 0.0666667 -246.787 -318.333)" d="M 5339.48,5030.42 L 5359.48,5030.42 L 5359.48,5531.37 L 5339.48,5531.37 L 5339.48,5030.42 Z " />
<path stroke="transparent" fill="#000000" transform="matrix(0.0666667 0 0 0.0666667 -246.787 -318.333)" d="M 5833.09,5799.04 L 5833.09,5822.13 L 5313.48,5522.13 L 5313.48,5499.04 L 5833.09,5799.04 Z " />
<path stroke="transparent" fill="#000000" transform="matrix(0.0666667 0 0 0.0666667 -246.787 -318.333)" d="M 6352.71,5499.04 L 6352.71,5522.13 L 5833.09,5822.13 L 5833.09,5799.04 L 6352.71,5499.04 Z " />
<path stroke="transparent" fill="#000000" transform="matrix(0.0666667 0 0 0.0666667 -246.787 -318.333)" d="M 6872.32,5799.04 L 6872.32,5822.13 L 6352.71,5522.13 L 6352.71,5499.04 L 6872.32,5799.04 Z " />
<path stroke="transparent" fill="#000000" transform="matrix(0.0666667 0 0 0.0666667 -246.787 -318.333)" d="M 6918.32,6305.42 L 6898.32,6305.42 L 6898.32,5789.8 L 6918.32,5789.8 L 6918.32,6305.42 Z " />
<path stroke="transparent" fill="#000000" transform="matrix(0.0666667 0 0 0.0666667 -246.787 -318.333)" d="M 6846.32,6305.42 L 6826.32,6305.42 L 6826.32,5789.8 L 6846.32,5789.8 L 6846.32,6305.42 Z " />
<path stroke="transparent" fill="#000000" transform="matrix(0.0666667 0 0 0.0666667 -246.787 -318.333)" d="M 7287.33,5559.43 L 7297.33,5576.75 L 6872.32,5822.13 L 6872.32,5799.04 L 7287.33,5559.43 Z " />
</svg>
