<?xml version="1.0" standalone="no" ?>
<!DOCTYPE svg PUBLIC "-//W3C//DTD SVG 1.1//EN" "http://www.w3.org/Graphics/SVG/1.1/DTD/svg11.dtd">
<svg width="565px" height="372px" viewBox="0 0 565 372" style="background-color: #ffffff00" xmlns="http://www.w3.org/2000/svg" xmlns:xlink="http://www.w3.org/1999/xlink" version="1.1" >
<text x="0" y="0" stroke="transparent" fill="#000000" transform="matrix(0.0833333 0 0 0.0833333 4.75618 216.407)" style="font:normal normal normal 200px 'Arial'" >
HO</text>
<text x="0" y="0" stroke="transparent" fill="#000000" transform="matrix(0.0833333 0 0 0.0833333 3.97654 316.404)" style="font:normal normal normal 200px 'Arial'" >
HO</text>
<text x="0" y="0" stroke="transparent" fill="#000000" transform="matrix(0.0833333 0 0 0.0833333 188.828 367.75)" style="font:normal normal normal 200px 'Arial'" >
O</text>
<text x="0" y="0" stroke="transparent" fill="#000000" transform="matrix(0.0833333 0 0 0.0833333 276.594 268.426)" style="font:normal normal normal 200px 'Arial'" >
OH</text>
<text x="0" y="0" stroke="transparent" fill="#000000" transform="matrix(0.0833333 0 0 0.0833333 146.608 342.413)" style="font:normal normal normal 200px 'Arial'" >
H</text>
<text x="0" y="0" stroke="transparent" fill="#000000" transform="matrix(0.0833333 0 0 0.0833333 190.493 267.752)" style="font:normal normal normal 200px 'Arial'" >
H</text>
<path stroke="transparent" fill="#000000" transform="matrix(0.0833333 0 0 0.0833333 -126.542 -264.167)" d="M 4860.3,4513.09 L 4980.3,4513.09 L 4931.84,5094.62 L 4920.3,5113.09 L 4908.77,5094.72 L 4860.3,4513.09 Z " />
<path stroke="transparent" fill="#000000" transform="matrix(0.0833333 0 0 0.0833333 -126.542 -264.167)" d="M 4910.26,5118.79 L 4920.3,5113.09 L 4930.26,5118.81 L 4925.71,5703.11 L 4915.63,5713.11 L 4905.67,5707.26 L 4910.26,5118.79 Z " />
<path stroke="transparent" fill="#000000" transform="matrix(0.0833333 0 0 0.0833333 -126.542 -264.167)" d="M 4402.91,4820.65 L 4403.09,4797.56 L 4908.77,5094.72 L 4920.3,5113.09 L 4910.26,5118.79 L 4402.91,4820.65 Z " />
<path stroke="transparent" fill="#000000" transform="matrix(0.0833333 0 0 0.0833333 -126.542 -264.167)" d="M 4403.09,4797.56 L 4402.91,4820.65 L 3891.06,5110.93 L 3871.15,5099.23 L 4403.09,4797.56 Z " />
<path stroke="transparent" fill="#000000" transform="matrix(0.0833333 0 0 0.0833333 -126.542 -264.167)" d="M 3871.15,5099.23 L 3891.06,5110.93 L 3886.46,5699.33 L 3876.42,5705.02 L 3866.46,5699.17 L 3871.15,5099.23 Z " />
<path stroke="transparent" fill="#000000" transform="matrix(0.0833333 0 0 0.0833333 -126.542 -264.167)" d="M 3876.33,5716.57 L 3876.42,5705.02 L 3886.46,5699.33 L 4393.78,5997.51 L 4393.69,6009.06 L 4383.64,6014.76 L 3876.33,5716.57 Z " />
<path stroke="transparent" fill="#000000" transform="matrix(0.0833333 0 0 0.0833333 -126.542 -264.167)" d="M 3364.43,6006.82 L 3354.48,6000.97 L 3366.13,5982.86 L 3866.46,5699.17 L 3876.42,5705.02 L 3876.33,5716.57 L 3364.43,6006.82 Z " />
<path stroke="transparent" fill="#000000" transform="matrix(0.0833333 0 0 0.0833333 -126.542 -264.167)" d="M 3299.15,5400.52 L 3419.15,5401.46 L 3366.13,5982.86 L 3354.48,6000.97 L 3343.1,5982.69 L 3299.15,5400.52 Z " />
<path stroke="transparent" fill="#000000" transform="matrix(0.0833333 0 0 0.0833333 -126.542 -264.167)" d="M 3344.43,6006.67 L 3354.48,6000.97 L 3364.43,6006.82 L 3359.84,6595.26 L 3349.8,6600.95 L 3339.84,6595.1 L 3344.43,6006.67 Z " />
<path stroke="transparent" fill="#000000" transform="matrix(0.0833333 0 0 0.0833333 -126.542 -264.167)" d="M 2837.12,5708.48 L 2837.3,5685.39 L 3343.1,5982.69 L 3354.48,6000.97 L 3344.43,6006.67 L 2837.12,5708.48 Z " />
<path stroke="transparent" fill="#000000" transform="matrix(0.0833333 0 0 0.0833333 -126.542 -264.167)" d="M 2837.3,5685.39 L 2837.12,5708.48 L 2325.22,5998.73 L 2315.27,5992.88 L 2315.92,5981.01 L 2837.3,5685.39 Z " />
<path stroke="transparent" fill="#000000" transform="matrix(0.0833333 0 0 0.0833333 -126.542 -264.167)" d="M 1867.26,5799.18 L 1928.06,5695.72 L 2315.92,5981.01 L 2315.27,5992.88 L 2305.22,5999.23 L 1867.26,5799.18 Z " />
<path stroke="transparent" fill="#000000" transform="matrix(0.0833333 0 0 0.0833333 -126.542 -264.167)" d="M 2320.64,6587.21 L 2310.6,6592.9 L 2300.65,6586.41 L 2305.22,5999.23 L 2315.27,5992.88 L 2325.22,5998.73 L 2320.64,6587.21 Z " />
<path stroke="transparent" fill="#000000" transform="matrix(0.0833333 0 0 0.0833333 -126.542 -264.167)" d="M 1911.26,6888.3 L 1852.07,6783.91 L 2300.65,6586.41 L 2310.6,6592.9 L 2311.06,6604.77 L 1911.26,6888.3 Z " />
<path stroke="transparent" fill="#000000" transform="matrix(0.0833333 0 0 0.0833333 -126.542 -264.167)" d="M 2827.99,6885.38 L 2827.81,6908.48 L 2311.06,6604.77 L 2310.6,6592.9 L 2320.64,6587.21 L 2827.99,6885.38 Z " />
<path stroke="transparent" fill="#000000" transform="matrix(0.0833333 0 0 0.0833333 -126.542 -264.167)" d="M 2827.81,6908.48 L 2827.99,6885.38 L 3339.84,6595.1 L 3349.8,6600.95 L 3337.97,6619.16 L 2827.81,6908.48 Z " />
<path stroke="transparent" fill="#000000" transform="matrix(0.0833333 0 0 0.0833333 -126.542 -264.167)" d="M 3867.19,6893.43 L 3867.01,6916.53 L 3361.67,6619.53 L 3349.8,6600.95 L 3359.84,6595.26 L 3867.19,6893.43 Z " />
<path stroke="transparent" fill="#000000" transform="matrix(0.0833333 0 0 0.0833333 -126.542 -264.167)" d="M 3909.25,7400.2 L 3889.25,7400.04 L 3893.27,6884.4 L 3913.27,6884.55 L 3909.25,7400.2 Z " />
<path stroke="transparent" fill="#000000" transform="matrix(0.0833333 0 0 0.0833333 -126.542 -264.167)" d="M 3837.25,7399.64 L 3817.25,7399.48 L 3821.26,6883.84 L 3841.26,6883.99 L 3837.25,7399.64 Z " />
<path stroke="transparent" fill="#000000" transform="matrix(0.0833333 0 0 0.0833333 -126.542 -264.167)" d="M 3867.01,6916.53 L 3867.19,6893.43 L 4379.05,6603.19 L 4398.96,6614.89 L 3867.01,6916.53 Z " />
<path stroke="transparent" fill="#000000" transform="matrix(0.0833333 0 0 0.0833333 -126.542 -264.167)" d="M 4398.96,6614.89 L 4379.05,6603.19 L 4383.64,6014.76 L 4393.69,6009.06 L 4403.64,6014.91 L 4398.96,6614.89 Z " />
<path stroke="transparent" fill="#000000" transform="matrix(0.0833333 0 0 0.0833333 -126.542 -264.167)" d="M 4327.33,6566.99 L 4307.33,6566.84 L 4311.36,6049.99 L 4331.36,6050.14 L 4327.33,6566.99 Z " />
<path stroke="transparent" fill="#000000" transform="matrix(0.0833333 0 0 0.0833333 -126.542 -264.167)" d="M 4403.64,6014.91 L 4393.69,6009.06 L 4393.78,5997.51 L 4905.67,5707.26 L 4915.63,5713.11 L 4918.27,5723.11 L 4403.64,6014.91 Z " />
<path stroke="transparent" fill="#000000" transform="matrix(0.0833333 0 0 0.0833333 -126.542 -264.167)" d="M 4975.63,6207.95 L 4855.63,6207.95 L 4857.9,6187.95 L 4973.36,6187.95 L 4975.63,6207.95 Z " />
<path stroke="transparent" fill="#000000" transform="matrix(0.0833333 0 0 0.0833333 -126.542 -264.167)" d="M 4968.81,6147.84 L 4862.45,6147.84 L 4864.72,6127.84 L 4966.54,6127.84 L 4968.81,6147.84 Z " />
<path stroke="transparent" fill="#000000" transform="matrix(0.0833333 0 0 0.0833333 -126.542 -264.167)" d="M 4961.99,6087.73 L 4869.27,6087.73 L 4871.54,6067.73 L 4959.72,6067.73 L 4961.99,6087.73 Z " />
<path stroke="transparent" fill="#000000" transform="matrix(0.0833333 0 0 0.0833333 -126.542 -264.167)" d="M 4955.17,6027.63 L 4876.09,6027.63 L 4878.35,6007.63 L 4952.9,6007.63 L 4955.17,6027.63 Z " />
<path stroke="transparent" fill="#000000" transform="matrix(0.0833333 0 0 0.0833333 -126.542 -264.167)" d="M 4948.35,5967.52 L 4882.9,5967.52 L 4885.17,5947.52 L 4946.09,5947.52 L 4948.35,5967.52 Z " />
<path stroke="transparent" fill="#000000" transform="matrix(0.0833333 0 0 0.0833333 -126.542 -264.167)" d="M 4941.54,5907.42 L 4889.72,5907.42 L 4891.99,5887.42 L 4939.27,5887.42 L 4941.54,5907.42 Z " />
<path stroke="transparent" fill="#000000" transform="matrix(0.0833333 0 0 0.0833333 -126.542 -264.167)" d="M 4934.72,5847.31 L 4896.54,5847.31 L 4898.81,5827.31 L 4932.45,5827.31 L 4934.72,5847.31 Z " />
<path stroke="transparent" fill="#000000" transform="matrix(0.0833333 0 0 0.0833333 -126.542 -264.167)" d="M 4927.9,5787.2 L 4903.36,5787.2 L 4905.63,5767.2 L 4925.63,5767.2 L 4927.9,5787.2 Z " />
<path stroke="transparent" fill="#000000" transform="matrix(0.0833333 0 0 0.0833333 -126.542 -264.167)" d="M 3409.8,7098.29 L 3289.8,7098.29 L 3337.97,6619.16 L 3349.8,6600.95 L 3361.67,6619.53 L 3409.8,7098.29 Z " />
<path stroke="transparent" fill="#000000" transform="matrix(0.0833333 0 0 0.0833333 -126.542 -264.167)" d="M 3936.42,6202.36 L 3816.42,6202.36 L 3818.68,6182.36 L 3934.16,6182.36 L 3936.42,6202.36 Z " />
<path stroke="transparent" fill="#000000" transform="matrix(0.0833333 0 0 0.0833333 -126.542 -264.167)" d="M 3929.6,6141.89 L 3823.24,6141.89 L 3825.5,6121.89 L 3927.34,6121.89 L 3929.6,6141.89 Z " />
<path stroke="transparent" fill="#000000" transform="matrix(0.0833333 0 0 0.0833333 -126.542 -264.167)" d="M 3922.78,6081.42 L 3830.06,6081.42 L 3832.32,6061.42 L 3920.52,6061.42 L 3922.78,6081.42 Z " />
<path stroke="transparent" fill="#000000" transform="matrix(0.0833333 0 0 0.0833333 -126.542 -264.167)" d="M 3915.96,6020.94 L 3836.88,6020.94 L 3839.14,6000.94 L 3913.7,6000.94 L 3915.96,6020.94 Z " />
<path stroke="transparent" fill="#000000" transform="matrix(0.0833333 0 0 0.0833333 -126.542 -264.167)" d="M 3909.14,5960.47 L 3843.7,5960.47 L 3845.96,5940.47 L 3906.88,5940.47 L 3909.14,5960.47 Z " />
<path stroke="transparent" fill="#000000" transform="matrix(0.0833333 0 0 0.0833333 -126.542 -264.167)" d="M 3902.32,5900 L 3850.52,5900 L 3852.78,5880 L 3900.06,5880 L 3902.32,5900 Z " />
<path stroke="transparent" fill="#000000" transform="matrix(0.0833333 0 0 0.0833333 -126.542 -264.167)" d="M 3895.5,5839.53 L 3857.34,5839.53 L 3859.6,5819.53 L 3893.24,5819.53 L 3895.5,5839.53 Z " />
<path stroke="transparent" fill="#000000" transform="matrix(0.0833333 0 0 0.0833333 -126.542 -264.167)" d="M 3888.68,5779.06 L 3864.16,5779.06 L 3866.42,5759.06 L 3886.42,5759.06 L 3888.68,5779.06 Z " />
<path stroke="transparent" fill="#000000" transform="matrix(0.0833333 0 0 0.0833333 -126.542 -264.167)" d="M 5944.9,5118.84 L 5964.9,5107.35 L 5964.9,5723.11 L 5944.9,5703.11 L 5944.9,5118.84 Z " />
<path stroke="transparent" fill="#000000" transform="matrix(0.0833333 0 0 0.0833333 -126.542 -264.167)" d="M 5432.97,4820.64 L 5432.93,4809.04 L 5442.93,4803.29 L 5964.9,5107.35 L 5944.9,5118.84 L 5432.97,4820.64 Z " />
<path stroke="transparent" fill="#000000" transform="matrix(0.0833333 0 0 0.0833333 -126.542 -264.167)" d="M 4930.26,5118.81 L 4920.3,5113.09 L 4931.84,5094.62 L 5422.93,4803.34 L 5432.93,4809.04 L 5432.97,4820.64 L 4930.26,5118.81 Z " />
<path stroke="transparent" fill="#000000" transform="matrix(0.0833333 0 0 0.0833333 -126.542 -264.167)" d="M 5944.9,5703.11 L 5964.9,5723.11 L 4918.27,5723.11 L 4915.63,5713.11 L 4925.71,5703.11 L 5944.9,5703.11 Z " />
<path stroke="transparent" fill="#000000" transform="matrix(0.0833333 0 0 0.0833333 -126.542 -264.167)" d="M 5422.93,4214.81 L 5432.93,4209.04 L 5442.93,4214.81 L 5442.93,4803.29 L 5432.93,4809.04 L 5422.93,4803.34 L 5422.93,4214.81 Z " />
<path stroke="transparent" fill="#000000" transform="matrix(0.0833333 0 0 0.0833333 -126.542 -264.167)" d="M 4908.31,3917.7 L 4918.31,3900.38 L 5432.93,4197.49 L 5432.93,4209.04 L 5422.93,4214.81 L 4908.31,3917.7 Z " />
<path stroke="transparent" fill="#000000" transform="matrix(0.0833333 0 0 0.0833333 -126.542 -264.167)" d="M 5952.54,3897.49 L 5952.54,3920.58 L 5442.93,4214.81 L 5432.93,4209.04 L 5432.93,4197.49 L 5952.54,3897.49 Z " />
<path stroke="transparent" fill="#000000" transform="matrix(0.0833333 0 0 0.0833333 -126.542 -264.167)" d="M 6472.16,4197.49 L 6472.16,4220.58 L 5952.54,3920.58 L 5952.54,3897.49 L 6472.16,4197.49 Z " />
<path stroke="transparent" fill="#000000" transform="matrix(0.0833333 0 0 0.0833333 -126.542 -264.167)" d="M 6991.77,3897.49 L 6991.77,3920.58 L 6472.16,4220.58 L 6472.16,4197.49 L 6991.77,3897.49 Z " />
<path stroke="transparent" fill="#000000" transform="matrix(0.0833333 0 0 0.0833333 -126.542 -264.167)" d="M 7511.39,4197.49 L 7511.39,4209.04 L 7501.39,4214.81 L 6991.77,3920.58 L 6991.77,3897.49 L 7511.39,4197.49 Z " />
<path stroke="transparent" fill="#000000" transform="matrix(0.0833333 0 0 0.0833333 -126.542 -264.167)" d="M 8026,3900.38 L 8036,3917.7 L 7531.39,4209.04 L 7511.39,4209.04 L 7511.39,4197.49 L 8026,3900.38 Z " />
<path stroke="transparent" fill="#000000" transform="matrix(0.0833333 0 0 0.0833333 -126.542 -264.167)" d="M 7521.39,4809.04 L 7501.39,4809.04 L 7501.39,4214.81 L 7511.39,4209.04 L 7521.39,4226.36 L 7521.39,4809.04 Z " />
<text x="0" y="0" stroke="transparent" fill="#000000" transform="matrix(0.0833333 0 0 0.0833333 536.209 118.086)" style="font:normal normal normal 200px 'Arial'" >
OH</text>
<path stroke="transparent" fill="#000000" transform="matrix(0.0833333 0 0 0.0833333 -126.542 -264.167)" d="M 7943.39,4446.9 L 7933.39,4464.22 L 7521.39,4226.36 L 7511.39,4209.04 L 7531.39,4209.04 L 7943.39,4446.9 Z " />
<text x="0" y="0" stroke="transparent" fill="#000000" transform="matrix(0.0833333 0 0 0.0833333 319.702 43.0865)" style="font:normal normal normal 200px 'Arial'" >
OH</text>
<path stroke="transparent" fill="#000000" transform="matrix(0.0833333 0 0 0.0833333 -126.542 -264.167)" d="M 5372.93,3728.87 L 5492.93,3728.87 L 5490.58,3748.87 L 5375.27,3748.87 L 5372.93,3728.87 Z " />
<path stroke="transparent" fill="#000000" transform="matrix(0.0833333 0 0 0.0833333 -126.542 -264.167)" d="M 5379.74,3786.89 L 5486.12,3786.89 L 5483.77,3806.89 L 5382.08,3806.89 L 5379.74,3786.89 Z " />
<path stroke="transparent" fill="#000000" transform="matrix(0.0833333 0 0 0.0833333 -126.542 -264.167)" d="M 5386.54,3844.91 L 5479.31,3844.91 L 5476.97,3864.91 L 5388.89,3864.91 L 5386.54,3844.91 Z " />
<path stroke="transparent" fill="#000000" transform="matrix(0.0833333 0 0 0.0833333 -126.542 -264.167)" d="M 5393.35,3902.93 L 5472.5,3902.93 L 5470.16,3922.93 L 5395.7,3922.93 L 5393.35,3902.93 Z " />
<path stroke="transparent" fill="#000000" transform="matrix(0.0833333 0 0 0.0833333 -126.542 -264.167)" d="M 5400.16,3960.96 L 5465.7,3960.96 L 5463.35,3980.96 L 5402.5,3980.96 L 5400.16,3960.96 Z " />
<path stroke="transparent" fill="#000000" transform="matrix(0.0833333 0 0 0.0833333 -126.542 -264.167)" d="M 5406.97,4018.98 L 5458.89,4018.98 L 5456.54,4038.98 L 5409.31,4038.98 L 5406.97,4018.98 Z " />
<path stroke="transparent" fill="#000000" transform="matrix(0.0833333 0 0 0.0833333 -126.542 -264.167)" d="M 5413.77,4077 L 5452.08,4077 L 5449.74,4097 L 5416.12,4097 L 5413.77,4077 Z " />
<path stroke="transparent" fill="#000000" transform="matrix(0.0833333 0 0 0.0833333 -126.542 -264.167)" d="M 5420.58,4135.02 L 5445.27,4135.02 L 5442.93,4155.02 L 5422.93,4155.02 L 5420.58,4135.02 Z " />
<text x="0" y="0" stroke="transparent" fill="#000000" transform="matrix(0.0833333 0 0 0.0833333 363.004 18.0865)" style="font:normal normal normal 200px 'Arial'" >
OH</text>
<path stroke="transparent" fill="#000000" transform="matrix(0.0833333 0 0 0.0833333 -126.542 -264.167)" d="M 5892.54,3428.87 L 6012.54,3428.87 L 6010.2,3448.87 L 5894.89,3448.87 L 5892.54,3428.87 Z " />
<path stroke="transparent" fill="#000000" transform="matrix(0.0833333 0 0 0.0833333 -126.542 -264.167)" d="M 5899.35,3486.89 L 6005.74,3486.89 L 6003.39,3506.89 L 5901.7,3506.89 L 5899.35,3486.89 Z " />
<path stroke="transparent" fill="#000000" transform="matrix(0.0833333 0 0 0.0833333 -126.542 -264.167)" d="M 5906.16,3544.91 L 5998.93,3544.91 L 5996.58,3564.91 L 5908.5,3564.91 L 5906.16,3544.91 Z " />
<path stroke="transparent" fill="#000000" transform="matrix(0.0833333 0 0 0.0833333 -126.542 -264.167)" d="M 5912.97,3602.93 L 5992.12,3602.93 L 5989.77,3622.93 L 5915.31,3622.93 L 5912.97,3602.93 Z " />
<path stroke="transparent" fill="#000000" transform="matrix(0.0833333 0 0 0.0833333 -126.542 -264.167)" d="M 5919.77,3660.96 L 5985.31,3660.96 L 5982.97,3680.96 L 5922.12,3680.96 L 5919.77,3660.96 Z " />
<path stroke="transparent" fill="#000000" transform="matrix(0.0833333 0 0 0.0833333 -126.542 -264.167)" d="M 5926.58,3718.98 L 5978.5,3718.98 L 5976.16,3738.98 L 5928.93,3738.98 L 5926.58,3718.98 Z " />
<path stroke="transparent" fill="#000000" transform="matrix(0.0833333 0 0 0.0833333 -126.542 -264.167)" d="M 5933.39,3777 L 5971.7,3777 L 5969.35,3797 L 5935.74,3797 L 5933.39,3777 Z " />
<path stroke="transparent" fill="#000000" transform="matrix(0.0833333 0 0 0.0833333 -126.542 -264.167)" d="M 5940.2,3835.02 L 5964.89,3835.02 L 5962.54,3855.02 L 5942.54,3855.02 L 5940.2,3835.02 Z " />
<text x="0" y="0" stroke="transparent" fill="#000000" transform="matrix(0.0833333 0 0 0.0833333 363.504 118.086)" style="font:normal normal normal 200px 'Arial'" >
H</text>
<path stroke="transparent" fill="#000000" transform="matrix(0.0833333 0 0 0.0833333 -126.542 -264.167)" d="M 5813.17,4520.23 L 5873.17,4624.15 L 5854.65,4632.08 L 5797.04,4532.29 L 5813.17,4520.23 Z " />
<path stroke="transparent" fill="#000000" transform="matrix(0.0833333 0 0 0.0833333 -126.542 -264.167)" d="M 5767.13,4554.66 L 5820.32,4646.8 L 5801.81,4654.74 L 5751,4566.72 L 5767.13,4554.66 Z " />
<path stroke="transparent" fill="#000000" transform="matrix(0.0833333 0 0 0.0833333 -126.542 -264.167)" d="M 5721.09,4589.1 L 5767.48,4669.46 L 5748.97,4677.39 L 5704.96,4601.16 L 5721.09,4589.1 Z " />
<path stroke="transparent" fill="#000000" transform="matrix(0.0833333 0 0 0.0833333 -126.542 -264.167)" d="M 5675.05,4623.53 L 5714.64,4692.11 L 5696.13,4700.04 L 5658.92,4635.6 L 5675.05,4623.53 Z " />
<path stroke="transparent" fill="#000000" transform="matrix(0.0833333 0 0 0.0833333 -126.542 -264.167)" d="M 5629.01,4657.97 L 5661.8,4714.76 L 5643.29,4722.7 L 5612.88,4670.03 L 5629.01,4657.97 Z " />
<path stroke="transparent" fill="#000000" transform="matrix(0.0833333 0 0 0.0833333 -126.542 -264.167)" d="M 5582.97,4692.4 L 5608.96,4737.42 L 5590.45,4745.35 L 5566.84,4704.47 L 5582.97,4692.4 Z " />
<path stroke="transparent" fill="#000000" transform="matrix(0.0833333 0 0 0.0833333 -126.542 -264.167)" d="M 5536.93,4726.84 L 5556.12,4760.07 L 5537.6,4768 L 5520.8,4738.9 L 5536.93,4726.84 Z " />
<path stroke="transparent" fill="#000000" transform="matrix(0.0833333 0 0 0.0833333 -126.542 -264.167)" d="M 5490.89,4761.27 L 5503.27,4782.72 L 5484.76,4790.66 L 5474.76,4773.34 L 5490.89,4761.27 Z " />
</svg>
