<?xml version="1.0" standalone="no" ?>
<!DOCTYPE svg PUBLIC "-//W3C//DTD SVG 1.1//EN" "http://www.w3.org/Graphics/SVG/1.1/DTD/svg11.dtd">
<svg width="420px" height="344px" viewBox="0 0 420 344" style="background-color: #ffffff00" xmlns="http://www.w3.org/2000/svg" xmlns:xlink="http://www.w3.org/1999/xlink" version="1.1" >
<path stroke="transparent" fill="#000000" transform="matrix(0.0833333 0 0 0.0833333 -245.542 -149)" d="M 3014.67,5547.95 L 2994.72,5559.5 L 2992.55,4947.92 L 3012.59,4959.53 L 3014.67,5547.95 Z " />
<path stroke="transparent" fill="#000000" transform="matrix(0.0833333 0 0 0.0833333 -245.542 -149)" d="M 2994.72,5559.5 L 3014.67,5547.95 L 3527.26,5844.72 L 3527.17,5867.78 L 2994.72,5559.5 Z " />
<path stroke="transparent" fill="#000000" transform="matrix(0.0833333 0 0 0.0833333 -245.542 -149)" d="M 3071.99,5520.52 L 3082.01,5503.21 L 3532.53,5764.05 L 3522.51,5781.36 L 3071.99,5520.52 Z " />
<path stroke="transparent" fill="#000000" transform="matrix(0.0833333 0 0 0.0833333 -245.542 -149)" d="M 3012.59,4959.53 L 2992.55,4947.92 L 3523.94,4645.43 L 3523.85,4668.5 L 3012.59,4959.53 Z " />
<path stroke="transparent" fill="#000000" transform="matrix(0.0833333 0 0 0.0833333 -245.542 -149)" d="M 3487.73,4339.6 L 3507.73,4339.6 L 3507.66,4671.9 L 3487.66,4671.9 L 3487.73,4339.6 Z " />
<path stroke="transparent" fill="#000000" transform="matrix(0.0833333 0 0 0.0833333 -245.542 -149)" d="M 3540.19,4339.61 L 3560.19,4339.61 L 3560.12,4672.15 L 3540.12,4672.15 L 3540.19,4339.61 Z " />
<path stroke="transparent" fill="#000000" transform="matrix(0.0833333 0 0 0.0833333 -245.542 -149)" d="M 3527.17,5867.78 L 3527.26,5844.72 L 4038.59,5553.56 L 4048.62,5559.36 L 4048.57,5570.89 L 3527.17,5867.78 Z " />
<path stroke="transparent" fill="#000000" transform="matrix(0.0833333 0 0 0.0833333 -245.542 -149)" d="M 4048.57,5570.89 L 4048.62,5559.36 L 4058.59,5553.58 L 4572.06,5850.87 L 4571.97,5873.93 L 4048.57,5570.89 Z " />
<path stroke="transparent" fill="#000000" transform="matrix(0.0833333 0 0 0.0833333 -245.542 -149)" d="M 4116.03,5526.08 L 4126.05,5508.78 L 4577.35,5770.07 L 4567.33,5787.38 L 4116.03,5526.08 Z " />
<path stroke="transparent" fill="#000000" transform="matrix(0.0833333 0 0 0.0833333 -245.542 -149)" d="M 3523.85,4668.5 L 3523.94,4645.43 L 4027.8,4937.16 L 4046.41,4959.49 L 4036.44,4965.27 L 3523.85,4668.5 Z " />
<path stroke="transparent" fill="#000000" transform="matrix(0.0833333 0 0 0.0833333 -245.542 -149)" d="M 4058.59,5553.58 L 4048.62,5559.36 L 4038.59,5553.56 L 4036.44,4965.27 L 4046.41,4959.49 L 4056.44,4965.29 L 4058.59,5553.58 Z " />
<path stroke="transparent" fill="#000000" transform="matrix(0.0833333 0 0 0.0833333 -245.542 -149)" d="M 3833.17,4395.46 L 3949.08,4364.41 L 4053.71,4943.83 L 4046.41,4959.49 L 4027.8,4937.16 L 3833.17,4395.46 Z " />
<path stroke="transparent" fill="#000000" transform="matrix(0.0833333 0 0 0.0833333 -245.542 -149)" d="M 4571.97,5873.93 L 4572.06,5850.87 L 5083.58,5559.98 L 5103.62,5571.58 L 4571.97,5873.93 Z " />
<path stroke="transparent" fill="#000000" transform="matrix(0.0833333 0 0 0.0833333 -245.542 -149)" d="M 5408.62,5678.84 L 5348.49,5782.69 L 5333,5769.52 L 5389.49,5671.96 L 5408.62,5678.84 Z " />
<path stroke="transparent" fill="#000000" transform="matrix(0.0833333 0 0 0.0833333 -245.542 -149)" d="M 5347.59,5656.9 L 5299.08,5740.68 L 5283.59,5727.52 L 5328.46,5650.02 L 5347.59,5656.9 Z " />
<path stroke="transparent" fill="#000000" transform="matrix(0.0833333 0 0 0.0833333 -245.542 -149)" d="M 5286.56,5634.96 L 5249.67,5698.68 L 5234.18,5685.52 L 5267.43,5628.08 L 5286.56,5634.96 Z " />
<path stroke="transparent" fill="#000000" transform="matrix(0.0833333 0 0 0.0833333 -245.542 -149)" d="M 5225.53,5613.02 L 5200.26,5656.68 L 5184.77,5643.52 L 5206.41,5606.14 L 5225.53,5613.02 Z " />
<path stroke="transparent" fill="#000000" transform="matrix(0.0833333 0 0 0.0833333 -245.542 -149)" d="M 5164.51,5591.08 L 5150.85,5614.68 L 5135.36,5601.51 L 5145.38,5584.21 L 5164.51,5591.08 Z " />
<path stroke="transparent" fill="#000000" transform="matrix(0.0833333 0 0 0.0833333 -245.542 -149)" d="M 4269.7,4559.34 L 4329.83,4455.49 L 4345.18,4468.89 L 4288.97,4565.97 L 4269.7,4559.34 Z " />
<path stroke="transparent" fill="#000000" transform="matrix(0.0833333 0 0 0.0833333 -245.542 -149)" d="M 4326.45,4578.88 L 4375.03,4494.97 L 4390.38,4508.38 L 4345.72,4585.51 L 4326.45,4578.88 Z " />
<path stroke="transparent" fill="#000000" transform="matrix(0.0833333 0 0 0.0833333 -245.542 -149)" d="M 4383.2,4598.42 L 4420.23,4534.45 L 4435.58,4547.86 L 4402.47,4605.05 L 4383.2,4598.42 Z " />
<path stroke="transparent" fill="#000000" transform="matrix(0.0833333 0 0 0.0833333 -245.542 -149)" d="M 4439.95,4617.96 L 4465.43,4573.94 L 4480.78,4587.34 L 4459.21,4624.59 L 4439.95,4617.96 Z " />
<path stroke="transparent" fill="#000000" transform="matrix(0.0833333 0 0 0.0833333 -245.542 -149)" d="M 4496.69,4637.5 L 4510.63,4613.42 L 4525.98,4626.83 L 4515.96,4644.14 L 4496.69,4637.5 Z " />
<path stroke="transparent" fill="#000000" transform="matrix(0.0833333 0 0 0.0833333 -245.542 -149)" d="M 4056.44,4965.29 L 4046.41,4959.49 L 4053.71,4943.83 L 4556.36,4657.62 L 4567.81,4662.6 L 4567.77,4674.13 L 4056.44,4965.29 Z " />
<path stroke="transparent" fill="#000000" transform="matrix(0.0833333 0 0 0.0833333 -245.542 -149)" d="M 5396.69,5073.17 L 5336.56,5177.02 L 5101.3,4986.51 L 5091.22,4965.64 L 5114.55,4964.07 L 5396.69,5073.17 Z " />
<path stroke="transparent" fill="#000000" transform="matrix(0.0833333 0 0 0.0833333 -245.542 -149)" d="M 5103.62,5571.58 L 5083.58,5559.98 L 5081.24,4971.42 L 5091.22,4965.64 L 5101.3,4986.51 L 5103.62,5571.58 Z " />
<path stroke="transparent" fill="#000000" transform="matrix(0.0833333 0 0 0.0833333 -245.542 -149)" d="M 4567.77,4674.13 L 4567.81,4662.6 L 4576.55,4656.11 L 5091.31,4954.14 L 5091.22,4965.64 L 5081.24,4971.42 L 4567.77,4674.13 Z " />
<path stroke="transparent" fill="#000000" transform="matrix(0.0833333 0 0 0.0833333 -245.542 -149)" d="M 4576.55,4656.11 L 4567.81,4662.6 L 4556.36,4657.62 L 4399.4,3994.64 L 4420.6,3997.36 L 4576.55,4656.11 Z " />
<path stroke="transparent" fill="#000000" transform="matrix(0.0833333 0 0 0.0833333 -245.542 -149)" d="M 7022.37,5188.08 L 6902.37,5188.3 L 6950.97,4755.9 L 6961.57,4750.49 L 6972.2,4755.92 L 7022.37,5188.08 Z " />
<path stroke="transparent" fill="#000000" transform="matrix(0.0833333 0 0 0.0833333 -245.542 -149)" d="M 7788.9,4583.38 L 7778.87,4600.68 L 7480.54,4427.96 L 7490.56,4410.65 L 7788.9,4583.38 Z " />
<path stroke="transparent" fill="#000000" transform="matrix(0.0833333 0 0 0.0833333 -245.542 -149)" d="M 7762.67,4628.68 L 7752.65,4645.98 L 7454.57,4473.41 L 7464.59,4456.1 L 7762.67,4628.68 Z " />
<path stroke="transparent" fill="#000000" transform="matrix(0.0833333 0 0 0.0833333 -245.542 -149)" d="M 6972.2,4755.92 L 6961.57,4750.49 L 6961.59,4738.94 L 7475.77,4443.94 L 7495.87,4455.46 L 6972.2,4755.92 Z " />
<path stroke="transparent" fill="#000000" transform="matrix(0.0833333 0 0 0.0833333 -245.542 -149)" d="M 5114.55,4964.07 L 5091.22,4965.64 L 5091.31,4954.14 L 5638.28,4648.85 L 5646,4656 L 5645.63,4667.66 L 5114.55,4964.07 Z " />
<path stroke="transparent" fill="#000000" transform="matrix(0.0833333 0 0 0.0833333 -245.542 -149)" d="M 5310.2,4554.87 L 5363.95,4447.58 L 5380.3,4459.61 L 5329.62,4560.76 L 5310.2,4554.87 Z " />
<path stroke="transparent" fill="#000000" transform="matrix(0.0833333 0 0 0.0833333 -245.542 -149)" d="M 5362.91,4570.86 L 5408.32,4480.23 L 5424.66,4492.25 L 5382.33,4576.75 L 5362.91,4570.86 Z " />
<path stroke="transparent" fill="#000000" transform="matrix(0.0833333 0 0 0.0833333 -245.542 -149)" d="M 5415.62,4586.85 L 5452.68,4512.87 L 5469.03,4524.9 L 5435.04,4592.74 L 5415.62,4586.85 Z " />
<path stroke="transparent" fill="#000000" transform="matrix(0.0833333 0 0 0.0833333 -245.542 -149)" d="M 5468.33,4602.84 L 5497.05,4545.52 L 5513.39,4557.54 L 5487.75,4608.73 L 5468.33,4602.84 Z " />
<path stroke="transparent" fill="#000000" transform="matrix(0.0833333 0 0 0.0833333 -245.542 -149)" d="M 5521.04,4618.83 L 5541.42,4578.16 L 5557.76,4590.19 L 5540.46,4624.72 L 5521.04,4618.83 Z " />
<path stroke="transparent" fill="#000000" transform="matrix(0.0833333 0 0 0.0833333 -245.542 -149)" d="M 5573.75,4634.82 L 5585.78,4610.81 L 5602.13,4622.83 L 5593.17,4640.72 L 5573.75,4634.82 Z " />
<path stroke="transparent" fill="#000000" transform="matrix(0.0833333 0 0 0.0833333 -245.542 -149)" d="M 4420.6,3997.36 L 4399.4,3994.64 L 4727.34,3375.21 L 4740.66,3392.79 L 4420.6,3997.36 Z " />
<path stroke="transparent" fill="#000000" transform="matrix(0.0833333 0 0 0.0833333 -245.542 -149)" d="M 6422.73,5376.24 L 6405.41,5386.24 L 6131.63,4912.04 L 6148.95,4902.04 L 6422.73,5376.24 Z " />
<path stroke="transparent" fill="#000000" transform="matrix(0.0833333 0 0 0.0833333 -245.542 -149)" d="M 6360.38,5412.24 L 6343.06,5422.24 L 6061.29,4934.2 L 6078.61,4924.2 L 6360.38,5412.24 Z " />
<path stroke="transparent" fill="#000000" transform="matrix(0.0833333 0 0 0.0833333 -245.542 -149)" d="M 5645.63,4667.66 L 5646,4656 L 5658.72,4652.3 L 6127.25,4954.23 L 6145.04,4989.49 L 5645.63,4667.66 Z " />
<path stroke="transparent" fill="#000000" transform="matrix(0.0833333 0 0 0.0833333 -245.542 -149)" d="M 6961.59,4738.94 L 6961.57,4750.49 L 6950.97,4755.9 L 6449.34,4465.48 L 6439.36,4448.14 L 6460.99,4449.11 L 6961.59,4738.94 L 6961.59,4738.94 Z " />
<path stroke="transparent" fill="#000000" transform="matrix(0.0833333 0 0 0.0833333 -245.542 -149)" d="M 6448.63,5048.15 L 6428.63,5048.13 L 6429.36,4453.38 L 6439.36,4448.14 L 6449.34,4465.48 L 6448.63,5048.15 Z " />
<path stroke="transparent" fill="#000000" transform="matrix(0.0833333 0 0 0.0833333 -245.542 -149)" d="M 5793.12,2050.54 L 5812.44,2045.4 L 5900.28,2375.29 L 5880.96,2380.43 L 5793.12,2050.54 Z " />
<path stroke="transparent" fill="#000000" transform="matrix(0.0833333 0 0 0.0833333 -245.542 -149)" d="M 5843.81,2037.04 L 5863.14,2031.9 L 5950.97,2361.75 L 5931.64,2366.9 L 5843.81,2037.04 Z " />
<path stroke="transparent" fill="#000000" transform="matrix(0.0833333 0 0 0.0833333 -245.542 -149)" d="M 7495.87,4455.46 L 7475.77,4443.94 L 7471.67,3973.89 L 7491.67,3973.72 L 7495.87,4455.46 Z " />
<path stroke="transparent" fill="#000000" transform="matrix(0.0833333 0 0 0.0833333 -245.542 -149)" d="M 6950.8,4086.3 L 6971.37,4212.83 L 6460.99,4449.11 L 6439.36,4448.14 L 6439.43,4436.03 L 6950.8,4086.3 L 6950.8,4086.3 Z " />
<path stroke="transparent" fill="#000000" transform="matrix(0.0833333 0 0 0.0833333 -245.542 -149)" d="M 5658.72,4652.3 L 5646,4656 L 5638.28,4648.85 L 5802.01,4294.12 L 5820.17,4302.5 L 5658.72,4652.3 Z " />
<path stroke="transparent" fill="#000000" transform="matrix(0.0833333 0 0 0.0833333 -245.542 -149)" d="M 4740.66,3392.79 L 4727.34,3375.21 L 5355.74,3239.41 L 5390.2,3242.19 L 5388.53,3252.78 L 4740.66,3392.79 Z " />
<path stroke="transparent" fill="#000000" transform="matrix(0.0833333 0 0 0.0833333 -245.542 -149)" d="M 5081.96,3133.06 L 5142.09,3029.21 L 5387.33,3227.18 L 5390.2,3242.19 L 5355.74,3239.41 L 5081.96,3133.06 Z " />
<path stroke="transparent" fill="#000000" transform="matrix(0.0833333 0 0 0.0833333 -245.542 -149)" d="M 5905.57,2332.08 L 5912.86,2359.41 L 5403.86,3238.55 L 5390.2,3242.19 L 5387.33,3227.18 L 5905.57,2332.08 Z " />
<path stroke="transparent" fill="#000000" transform="matrix(0.0833333 0 0 0.0833333 -245.542 -149)" d="M 6397.25,4044.91 L 6466.08,4143.21 L 6200.78,4270.99 L 6181.08,4269.53 L 6185.18,4251.75 L 6397.25,4044.91 Z " />
<path stroke="transparent" fill="#000000" transform="matrix(0.0833333 0 0 0.0833333 -245.542 -149)" d="M 6145.04,4989.49 L 6127.25,4954.23 L 6170.97,4271 L 6181.08,4269.53 L 6189.93,4287.81 L 6145.04,4989.49 Z " />
<path stroke="transparent" fill="#000000" transform="matrix(0.0833333 0 0 0.0833333 -245.542 -149)" d="M 6439.43,4436.03 L 6439.36,4448.14 L 6429.36,4453.38 L 6189.93,4287.81 L 6181.08,4269.53 L 6200.78,4270.99 L 6439.43,4436.03 Z " />
<path stroke="transparent" fill="#000000" transform="matrix(0.0833333 0 0 0.0833333 -245.542 -149)" d="M 5912.86,2359.41 L 5905.57,2332.08 L 6345.07,2586.54 L 6335.05,2603.85 L 5912.86,2359.41 Z " />
<path stroke="transparent" fill="#000000" transform="matrix(0.0833333 0 0 0.0833333 -245.542 -149)" d="M 7058.3,3259.38 L 7162.15,3319.5 L 6973.51,3548.82 L 6958.42,3551.64 L 6953.35,3537.14 L 7058.3,3259.38 Z " />
<path stroke="transparent" fill="#000000" transform="matrix(0.0833333 0 0 0.0833333 -245.542 -149)" d="M 7393.08,3791.74 L 7383.06,3809.05 L 6968.5,3569.03 L 6958.42,3551.64 L 6973.51,3548.82 L 7393.08,3791.74 Z " />
<path stroke="transparent" fill="#000000" transform="matrix(0.0833333 0 0 0.0833333 -245.542 -149)" d="M 6971.37,4212.83 L 6950.8,4086.3 L 6948.44,3557.42 L 6958.42,3551.64 L 6968.5,3569.03 L 6971.37,4212.83 Z " />
<path stroke="transparent" fill="#000000" transform="matrix(0.0833333 0 0 0.0833333 -245.542 -149)" d="M 5930.21,4088.18 L 5810.59,4078.58 L 5814.24,4058.81 L 5929.75,4068.08 L 5930.21,4088.18 Z " />
<path stroke="transparent" fill="#000000" transform="matrix(0.0833333 0 0 0.0833333 -245.542 -149)" d="M 5928.89,4029.66 L 5821.22,4021.02 L 5824.88,4001.25 L 5928.44,4009.56 L 5928.89,4029.66 Z " />
<path stroke="transparent" fill="#000000" transform="matrix(0.0833333 0 0 0.0833333 -245.542 -149)" d="M 5927.58,3971.15 L 5831.86,3963.46 L 5835.51,3943.69 L 5927.13,3951.04 L 5927.58,3971.15 Z " />
<path stroke="transparent" fill="#000000" transform="matrix(0.0833333 0 0 0.0833333 -245.542 -149)" d="M 5926.26,3912.63 L 5842.49,3905.9 L 5846.14,3886.13 L 5925.81,3892.53 L 5926.26,3912.63 Z " />
<path stroke="transparent" fill="#000000" transform="matrix(0.0833333 0 0 0.0833333 -245.542 -149)" d="M 5924.95,3854.11 L 5853.12,3848.34 L 5856.77,3828.57 L 5924.5,3834.01 L 5924.95,3854.11 Z " />
<path stroke="transparent" fill="#000000" transform="matrix(0.0833333 0 0 0.0833333 -245.542 -149)" d="M 5923.63,3795.59 L 5863.75,3790.79 L 5867.4,3771.02 L 5923.18,3775.49 L 5923.63,3795.59 Z " />
<path stroke="transparent" fill="#000000" transform="matrix(0.0833333 0 0 0.0833333 -245.542 -149)" d="M 5922.32,3737.08 L 5874.39,3733.23 L 5878.04,3713.46 L 5921.87,3716.98 L 5922.32,3737.08 Z " />
<path stroke="transparent" fill="#000000" transform="matrix(0.0833333 0 0 0.0833333 -245.542 -149)" d="M 5921,3678.56 L 5885.02,3675.67 L 5888.67,3655.9 L 5920.55,3658.46 L 5921,3678.56 Z " />
<path stroke="transparent" fill="#000000" transform="matrix(0.0833333 0 0 0.0833333 -245.542 -149)" d="M 5919.69,3620.04 L 5895.65,3618.11 L 5899.3,3598.34 L 5919.24,3599.94 L 5919.69,3620.04 Z " />
<path stroke="transparent" fill="#000000" transform="matrix(0.0833333 0 0 0.0833333 -245.542 -149)" d="M 5388.53,3252.78 L 5390.2,3242.19 L 5403.86,3238.55 L 5913.64,3533.7 L 5913.6,3545.23 L 5905.47,3552.07 L 5388.53,3252.78 Z " />
<path stroke="transparent" fill="#000000" transform="matrix(0.0833333 0 0 0.0833333 -245.542 -149)" d="M 6185.18,4251.75 L 6181.08,4269.53 L 6170.97,4271 L 5905.47,3552.07 L 5913.6,3545.23 L 5925.92,3549.72 L 6185.18,4251.75 Z " />
<path stroke="transparent" fill="#000000" transform="matrix(0.0833333 0 0 0.0833333 -245.542 -149)" d="M 6423.12,2768.66 L 6443.12,2768.57 L 6445.12,3242.89 L 6435.14,3248.67 L 6425.12,3242.87 L 6423.12,2768.66 Z " />
<path stroke="transparent" fill="#000000" transform="matrix(0.0833333 0 0 0.0833333 -245.542 -149)" d="M 6953.35,3537.14 L 6958.42,3551.64 L 6948.44,3557.42 L 6435.1,3260.2 L 6435.14,3248.67 L 6445.12,3242.89 L 6953.35,3537.14 Z " />
<path stroke="transparent" fill="#000000" transform="matrix(0.0833333 0 0 0.0833333 -245.542 -149)" d="M 5925.92,3549.72 L 5913.6,3545.23 L 5913.64,3533.7 L 6425.12,3242.87 L 6435.14,3248.67 L 6435.1,3260.2 L 5925.92,3549.72 Z " />
<path stroke="transparent" fill="#000000" transform="matrix(0.0833333 0 0 0.0833333 -245.542 -149)" d="M 6026.75,3081.56 L 6086.88,2977.71 L 6102.88,2989.99 L 6045.37,3089.32 L 6026.75,3081.56 Z " />
<path stroke="transparent" fill="#000000" transform="matrix(0.0833333 0 0 0.0833333 -245.542 -149)" d="M 6083.09,3105.05 L 6135.3,3014.87 L 6151.3,3027.15 L 6101.7,3112.81 L 6083.09,3105.05 Z " />
<path stroke="transparent" fill="#000000" transform="matrix(0.0833333 0 0 0.0833333 -245.542 -149)" d="M 6139.42,3128.54 L 6183.72,3052.03 L 6199.72,3064.31 L 6158.04,3136.3 L 6139.42,3128.54 Z " />
<path stroke="transparent" fill="#000000" transform="matrix(0.0833333 0 0 0.0833333 -245.542 -149)" d="M 6195.76,3152.03 L 6232.14,3089.19 L 6248.14,3101.47 L 6214.37,3159.79 L 6195.76,3152.03 Z " />
<path stroke="transparent" fill="#000000" transform="matrix(0.0833333 0 0 0.0833333 -245.542 -149)" d="M 6252.09,3175.52 L 6280.56,3126.35 L 6296.56,3138.63 L 6270.71,3183.28 L 6252.09,3175.52 Z " />
<path stroke="transparent" fill="#000000" transform="matrix(0.0833333 0 0 0.0833333 -245.542 -149)" d="M 6308.43,3199.01 L 6328.98,3163.51 L 6344.98,3175.79 L 6327.04,3206.77 L 6308.43,3199.01 Z " />
<path stroke="transparent" fill="#000000" transform="matrix(0.0833333 0 0 0.0833333 -245.542 -149)" d="M 6364.76,3222.5 L 6377.4,3200.67 L 6393.4,3212.95 L 6383.38,3230.26 L 6364.76,3222.5 Z " />
<text x="0" y="0" stroke="transparent" fill="#000000" transform="matrix(0.0833333 0 0 0.0833333 97.598 227.806)" style="font:normal normal normal 200px 'Arial'" >
H</text>
<text x="0" y="0" stroke="transparent" fill="#000000" transform="matrix(0.0833333 0 0 0.0833333 204.259 289.56)" style="font:normal normal normal 200px 'Arial'" >
H</text>
<text x="0" y="0" stroke="transparent" fill="#000000" transform="matrix(0.0833333 0 0 0.0833333 346.592 121.921)" style="font:normal normal normal 200px 'Arial'" >
H</text>
<text x="0" y="0" stroke="transparent" fill="#000000" transform="matrix(0.0833333 0 0 0.0833333 293.265 192.486)" style="font:normal normal normal 200px 'Arial'" >
H</text>
<text x="0" y="0" stroke="transparent" fill="#000000" transform="matrix(0.0833333 0 0 0.0833333 41.6234 209.148)" style="font:normal normal normal 200px 'Arial'" >
O</text>
<text x="0" y="0" stroke="transparent" fill="#000000" transform="matrix(0.0833333 0 0 0.0833333 203.884 339.529)" style="font:normal normal normal 200px 'Arial'" >
OH</text>
<text x="0" y="0" stroke="transparent" fill="#000000" transform="matrix(0.0833333 0 0 0.0833333 403.236 246.522)" style="font:normal normal normal 200px 'Arial'" >
O</text>
<text x="0" y="0" stroke="transparent" fill="#000000" transform="matrix(0.0833333 0 0 0.0833333 172.134 228.321)" style="font:normal normal normal 200px 'Arial'" >
HO</text>
<text x="0" y="0" stroke="transparent" fill="#000000" transform="matrix(0.0833333 0 0 0.0833333 284.304 315.123)" style="font:normal normal normal 200px 'Arial'" >
O</text>
<text x="0" y="0" stroke="transparent" fill="#000000" transform="matrix(0.0833333 0 0 0.0833333 231.019 17.7745)" style="font:normal normal normal 200px 'Arial'" >
O</text>
<text x="0" y="0" stroke="transparent" fill="#000000" transform="matrix(0.0833333 0 0 0.0833333 153.594 109.438)" style="font:normal normal normal 200px 'Arial'" >
HO</text>
<text x="0" y="0" stroke="transparent" fill="#000000" transform="matrix(0.0833333 0 0 0.0833333 371.344 178.665)" style="font:normal normal normal 200px 'Arial'" >
O</text>
<text x="0" y="0" stroke="transparent" fill="#000000" transform="matrix(0.0833333 0 0 0.0833333 236.458 206.5)" style="font:normal normal normal 200px 'Arial'" >
O</text>
<text x="0" y="0" stroke="transparent" fill="#000000" transform="matrix(0.0833333 0 0 0.0833333 284.01 78.2319)" style="font:normal normal normal 200px 'Arial'" >
O</text>
</svg>
