<?xml version="1.0" standalone="no" ?>
<!DOCTYPE svg PUBLIC "-//W3C//DTD SVG 1.1//EN" "http://www.w3.org/Graphics/SVG/1.1/DTD/svg11.dtd">
<svg width="434px" height="247px" viewBox="0 0 434 247" style="background-color: #ffffff00" xmlns="http://www.w3.org/2000/svg" xmlns:xlink="http://www.w3.org/1999/xlink" version="1.1" >
<text x="0" y="0" stroke="transparent" fill="#000000" transform="matrix(0.0833333 0 0 0.0833333 3.73318 167.965)" style="font:normal normal normal 200px 'Arial'" >
HO</text>
<text x="0" y="0" stroke="transparent" fill="#000000" transform="matrix(0.0833333 0 0 0.0833333 102.372 17.9653)" style="font:normal normal normal 200px 'Arial'" >
OH</text>
<text x="0" y="0" stroke="transparent" fill="#000000" transform="matrix(0.0833333 0 0 0.0833333 188.974 17.9653)" style="font:normal normal normal 200px 'Arial'" >
O</text>
<text x="0" y="0" stroke="transparent" fill="#000000" transform="matrix(0.0833333 0 0 0.0833333 232.276 92.9652)" style="font:normal normal normal 200px 'Arial'" >
O</text>
<text x="0" y="0" stroke="transparent" fill="#000000" transform="matrix(0.0833333 0 0 0.0833333 405.481 242.965)" style="font:normal normal normal 200px 'Arial'" >
OH</text>
<path stroke="transparent" fill="#000000" transform="matrix(0.0833333 0 0 0.0833333 -218.875 -245)" d="M 5951.42,3077.58 L 6071.42,3077.58 L 6021.88,3672.07 L 6011.42,3677.58 L 6000.96,3672.07 L 5951.42,3077.58 Z " />
<path stroke="transparent" fill="#000000" transform="matrix(0.0833333 0 0 0.0833333 -218.875 -245)" d="M 6541.04,3971.81 L 6521.04,3983.36 L 6011.42,3689.13 L 6011.42,3677.58 L 6021.88,3672.07 L 6541.04,3971.81 Z " />
<path stroke="transparent" fill="#000000" transform="matrix(0.0833333 0 0 0.0833333 -218.875 -245)" d="M 6541.04,4571.81 L 6521.04,4583.36 L 6521.04,3983.36 L 6541.04,3971.81 L 6541.04,4571.81 Z " />
<path stroke="transparent" fill="#000000" transform="matrix(0.0833333 0 0 0.0833333 -218.875 -245)" d="M 7060.65,4871.81 L 7040.65,4883.36 L 6521.04,4583.36 L 6541.04,4571.81 L 7060.65,4871.81 Z " />
<path stroke="transparent" fill="#000000" transform="matrix(0.0833333 0 0 0.0833333 -218.875 -245)" d="M 7060.65,5471.17 L 7050.65,5477.58 L 7040.65,5471.81 L 7040.65,4883.36 L 7060.65,4871.81 L 7060.65,5471.17 Z " />
<path stroke="transparent" fill="#000000" transform="matrix(0.0833333 0 0 0.0833333 -218.875 -245)" d="M 6531.04,5789.13 L 6531.04,5766.04 L 7040.65,5471.81 L 7050.65,5477.58 L 7050.1,5489.45 L 6531.04,5789.13 Z " />
<path stroke="transparent" fill="#000000" transform="matrix(0.0833333 0 0 0.0833333 -218.875 -245)" d="M 6011.42,5489.13 L 6011.42,5466.04 L 6531.04,5766.04 L 6531.04,5789.13 L 6011.42,5489.13 Z " />
<path stroke="transparent" fill="#000000" transform="matrix(0.0833333 0 0 0.0833333 -218.875 -245)" d="M 5491.81,5789.13 L 5491.81,5766.04 L 6011.42,5466.04 L 6011.42,5489.13 L 5491.81,5789.13 Z " />
<path stroke="transparent" fill="#000000" transform="matrix(0.0833333 0 0 0.0833333 -218.875 -245)" d="M 4962.19,5483.36 L 4982.19,5471.81 L 5491.81,5766.04 L 5491.81,5789.13 L 4962.19,5483.36 Z " />
<path stroke="transparent" fill="#000000" transform="matrix(0.0833333 0 0 0.0833333 -218.875 -245)" d="M 4962.19,4883.36 L 4982.19,4871.81 L 4982.19,5471.81 L 4962.19,5483.36 L 4962.19,4883.36 Z " />
<path stroke="transparent" fill="#000000" transform="matrix(0.0833333 0 0 0.0833333 -218.875 -245)" d="M 4890.19,4919.15 L 4910.19,4919.15 L 4910.19,5477.58 L 4890.19,5477.58 L 4890.19,4919.15 Z " />
<path stroke="transparent" fill="#000000" transform="matrix(0.0833333 0 0 0.0833333 -218.875 -245)" d="M 4452.58,4589.13 L 4452.58,4577.58 L 4462.58,4571.81 L 4982.19,4871.81 L 4962.19,4883.36 L 4452.58,4589.13 Z " />
<path stroke="transparent" fill="#000000" transform="matrix(0.0833333 0 0 0.0833333 -218.875 -245)" d="M 4442.58,3983.36 L 4452.58,3977.58 L 4462.58,3983.36 L 4462.58,4571.81 L 4452.58,4577.58 L 4442.58,4571.81 L 4442.58,3983.36 Z " />
<path stroke="transparent" fill="#000000" transform="matrix(0.0833333 0 0 0.0833333 -218.875 -245)" d="M 4370.58,4019.15 L 4390.58,4019.15 L 4390.58,4536.01 L 4370.58,4536.01 L 4370.58,4019.15 Z " />
<path stroke="transparent" fill="#000000" transform="matrix(0.0833333 0 0 0.0833333 -218.875 -245)" d="M 3932.96,3689.13 L 3932.96,3677.58 L 3942.96,3671.81 L 4452.58,3966.04 L 4452.58,3977.58 L 4442.58,3983.36 L 3932.96,3689.13 Z " />
<path stroke="transparent" fill="#000000" transform="matrix(0.0833333 0 0 0.0833333 -218.875 -245)" d="M 3423.35,3983.36 L 3403.35,3971.81 L 3922.96,3671.81 L 3932.96,3677.58 L 3932.96,3689.13 L 3423.35,3983.36 Z " />
<path stroke="transparent" fill="#000000" transform="matrix(0.0833333 0 0 0.0833333 -218.875 -245)" d="M 3490.35,4027.81 L 3480.35,4010.49 L 3927.96,3752.06 L 3937.96,3769.38 L 3490.35,4027.81 Z " />
<path stroke="transparent" fill="#000000" transform="matrix(0.0833333 0 0 0.0833333 -218.875 -245)" d="M 3423.35,4571.81 L 3413.35,4577.58 L 3403.35,4571.81 L 3403.35,3971.81 L 3423.35,3983.36 L 3423.35,4571.81 Z " />
<path stroke="transparent" fill="#000000" transform="matrix(0.0833333 0 0 0.0833333 -218.875 -245)" d="M 3932.96,4866.04 L 3932.96,4889.13 L 3413.35,4589.13 L 3413.35,4577.58 L 3423.35,4571.81 L 3932.96,4866.04 Z " />
<path stroke="transparent" fill="#000000" transform="matrix(0.0833333 0 0 0.0833333 -218.875 -245)" d="M 3937.96,4785.78 L 3927.96,4803.11 L 3480.35,4544.67 L 3490.35,4527.35 L 3937.96,4785.78 Z " />
<path stroke="transparent" fill="#000000" transform="matrix(0.0833333 0 0 0.0833333 -218.875 -245)" d="M 3932.96,4889.13 L 3932.96,4866.04 L 4442.58,4571.81 L 4452.58,4577.58 L 4452.58,4589.13 L 3932.96,4889.13 Z " />
<path stroke="transparent" fill="#000000" transform="matrix(0.0833333 0 0 0.0833333 -218.875 -245)" d="M 2991.34,4832.77 L 2981.34,4815.45 L 3403.35,4571.81 L 3413.35,4577.58 L 3413.35,4589.13 L 2991.34,4832.77 Z " />
<path stroke="transparent" fill="#000000" transform="matrix(0.0833333 0 0 0.0833333 -218.875 -245)" d="M 3922.96,3197.42 L 3942.96,3197.42 L 3942.96,3671.81 L 3932.96,3677.58 L 3922.96,3671.81 L 3922.96,3197.42 Z " />
<path stroke="transparent" fill="#000000" transform="matrix(0.0833333 0 0 0.0833333 -218.875 -245)" d="M 4972.19,3666.04 L 4972.19,3689.13 L 4462.58,3983.36 L 4452.58,3977.58 L 4452.58,3966.04 L 4972.19,3666.04 Z " />
<path stroke="transparent" fill="#000000" transform="matrix(0.0833333 0 0 0.0833333 -218.875 -245)" d="M 4926.19,3197.42 L 4946.19,3197.42 L 4946.19,3698.37 L 4926.19,3698.37 L 4926.19,3197.42 Z " />
<path stroke="transparent" fill="#000000" transform="matrix(0.0833333 0 0 0.0833333 -218.875 -245)" d="M 4998.19,3197.42 L 5018.19,3197.42 L 5018.19,3698.37 L 4998.19,3698.37 L 4998.19,3197.42 Z " />
<path stroke="transparent" fill="#000000" transform="matrix(0.0833333 0 0 0.0833333 -218.875 -245)" d="M 5404.19,3915.45 L 5394.19,3932.77 L 4972.19,3689.13 L 4972.19,3666.04 L 5404.19,3915.45 Z " />
<path stroke="transparent" fill="#000000" transform="matrix(0.0833333 0 0 0.0833333 -218.875 -245)" d="M 5589.43,3932.77 L 5579.43,3915.45 L 6000.96,3672.07 L 6011.42,3677.58 L 6011.42,3689.13 L 5589.43,3932.77 Z " />
<path stroke="transparent" fill="#000000" transform="matrix(0.0833333 0 0 0.0833333 -218.875 -245)" d="M 7507.65,5672.15 L 7447.65,5776.07 L 7050.1,5489.45 L 7050.65,5477.58 L 7060.65,5471.17 L 7507.65,5672.15 Z " />
</svg>
