<?xml version="1.0" standalone="no" ?>
<!DOCTYPE svg PUBLIC "-//W3C//DTD SVG 1.1//EN" "http://www.w3.org/Graphics/SVG/1.1/DTD/svg11.dtd">
<svg width="606px" height="301px" viewBox="0 0 606 301" style="background-color: #ffffff00" xmlns="http://www.w3.org/2000/svg" xmlns:xlink="http://www.w3.org/1999/xlink" version="1.1" >
<text x="0" y="0" stroke="transparent" fill="#000000" transform="matrix(0.0833333 0 0 0.0833333 393.412 120.926)" style="font:normal normal normal 200px 'Arial'" >
O</text>
<text x="0" y="0" stroke="transparent" fill="#000000" transform="matrix(0.0833333 0 0 0.0833333 133.591 84.6152)" style="font:normal normal normal 200px 'Arial'" >
O</text>
<text x="0" y="0" stroke="transparent" fill="#000000" transform="matrix(0.0833333 0 0 0.0833333 3.68716 259.615)" style="font:normal normal normal 200px 'Arial'" >
O</text>
<text x="0" y="0" stroke="transparent" fill="#000000" transform="matrix(0.0833333 0 0 0.0833333 263.495 259.615)" style="font:normal normal normal 200px 'Arial'" >
OH</text>
<text x="0" y="0" stroke="transparent" fill="#000000" transform="matrix(0.0833333 0 0 0.0833333 326.498 222.619)" style="font:normal normal normal 200px 'Arial'" >
OH</text>
<text x="0" y="0" stroke="transparent" fill="#000000" transform="matrix(0.0833333 0 0 0.0833333 554.362 37.0957)" style="font:normal normal normal 200px 'Arial'" >
O</text>
<text x="0" y="0" stroke="transparent" fill="#000000" transform="matrix(0.0833333 0 0 0.0833333 576.777 120.747)" style="font:normal normal normal 200px 'Arial'" >
OH</text>
<path stroke="transparent" fill="#000000" transform="matrix(0.0833333 0 0 0.0833333 -108.25 -614.5)" d="M 7283.35,8478.98 L 7294.5,8475.99 L 7302.67,8484.16 L 7148.87,9058.14 L 7129.55,9052.96 L 7283.35,8478.98 Z " />
<path stroke="transparent" fill="#000000" transform="matrix(0.0833333 0 0 0.0833333 -108.25 -614.5)" d="M 6867.01,8062.64 L 6873.47,8040.82 L 7297.49,8464.84 L 7294.5,8475.99 L 7283.35,8478.98 L 6867.01,8062.64 Z " />
<path stroke="transparent" fill="#000000" transform="matrix(0.0833333 0 0 0.0833333 -108.25 -614.5)" d="M 6279.78,8187.46 L 6286.92,8165.5 L 6873.47,8040.82 L 6867.01,8062.64 L 6279.78,8187.46 Z " />
<path stroke="transparent" fill="#000000" transform="matrix(0.0833333 0 0 0.0833333 -108.25 -614.5)" d="M 6174.43,8660.57 L 6155.4,8654.39 L 6314.5,8164.74 L 6333.52,8170.93 L 6174.43,8660.57 Z " />
<path stroke="transparent" fill="#000000" transform="matrix(0.0833333 0 0 0.0833333 -108.25 -614.5)" d="M 6105.95,8638.32 L 6086.93,8632.14 L 6246.02,8142.5 L 6265.04,8148.68 L 6105.95,8638.32 Z " />
<path stroke="transparent" fill="#000000" transform="matrix(0.0833333 0 0 0.0833333 -108.25 -614.5)" d="M 5878.3,7741.57 L 5885.44,7719.61 L 6286.92,8165.5 L 6279.78,8187.46 L 5878.3,7741.57 Z " />
<path stroke="transparent" fill="#000000" transform="matrix(0.0833333 0 0 0.0833333 -108.25 -614.5)" d="M 5361.46,7851.43 L 5294.98,7855.34 L 5298.21,7844.43 L 5885.44,7719.61 L 5878.3,7741.57 L 5361.46,7851.43 Z " />
<path stroke="transparent" fill="#000000" transform="matrix(0.0833333 0 0 0.0833333 -108.25 -614.5)" d="M 5352.69,7926.9 L 5348.53,7907.34 L 5854.1,7799.88 L 5858.26,7819.44 L 5352.69,7926.9 Z " />
<path stroke="transparent" fill="#000000" transform="matrix(0.0833333 0 0 0.0833333 -108.25 -614.5)" d="M 4863.65,7438.14 L 4877.79,7424 L 5298.21,7844.43 L 5294.98,7855.34 L 5242.56,7817.06 L 4863.65,7438.14 Z " />
<path stroke="transparent" fill="#000000" transform="matrix(0.0833333 0 0 0.0833333 -108.25 -614.5)" d="M 5120.95,8424.62 L 5109.57,8425.97 L 5101.16,8418.19 L 5242.56,7817.06 L 5294.98,7855.34 L 5361.46,7851.43 L 5120.95,8424.62 Z " />
<path stroke="transparent" fill="#000000" transform="matrix(0.0833333 0 0 0.0833333 -108.25 -614.5)" d="M 5474.6,8911.38 L 5449.88,8911.38 L 5105.75,8437.73 L 5109.57,8425.97 L 5120.95,8424.62 L 5474.6,8911.38 Z " />
<path stroke="transparent" fill="#000000" transform="matrix(0.0833333 0 0 0.0833333 -108.25 -614.5)" d="M 5113.39,9408.55 L 5105.75,9385.04 L 5449.88,8911.38 L 5474.6,8911.38 L 5113.39,9408.55 Z " />
<path stroke="transparent" fill="#000000" transform="matrix(0.0833333 0 0 0.0833333 -108.25 -614.5)" d="M 4540.08,9222.27 L 4538.94,9211.38 L 4548.94,9204.12 L 5105.75,9385.04 L 5113.39,9408.55 L 4540.08,9222.27 Z " />
<path stroke="transparent" fill="#000000" transform="matrix(0.0833333 0 0 0.0833333 -108.25 -614.5)" d="M 4528.94,8617.16 L 4538.94,8611.38 L 4548.94,8618.65 L 4548.94,9204.12 L 4538.94,9211.38 L 4528.94,9205.61 L 4528.94,8617.16 Z " />
<path stroke="transparent" fill="#000000" transform="matrix(0.0833333 0 0 0.0833333 -108.25 -614.5)" d="M 4548.94,8618.65 L 4538.94,8611.38 L 4551.88,8596.66 L 5101.16,8418.19 L 5109.57,8425.97 L 5105.75,8437.73 L 4548.94,8618.65 Z " />
<path stroke="transparent" fill="#000000" transform="matrix(0.0833333 0 0 0.0833333 -108.25 -614.5)" d="M 4019.32,8322.93 L 4019.32,8299.83 L 4529.34,8594.29 L 4538.94,8611.38 L 4528.94,8617.16 L 4019.32,8322.93 Z " />
<path stroke="transparent" fill="#000000" transform="matrix(0.0833333 0 0 0.0833333 -108.25 -614.5)" d="M 3509.71,8617.16 L 3489.71,8605.61 L 4019.32,8299.83 L 4019.32,8322.93 L 3509.71,8617.16 Z " />
<path stroke="transparent" fill="#000000" transform="matrix(0.0833333 0 0 0.0833333 -108.25 -614.5)" d="M 3057.13,8408.98 L 3067.13,8391.65 L 3504.71,8644.29 L 3494.71,8661.61 L 3057.13,8408.98 Z " />
<path stroke="transparent" fill="#000000" transform="matrix(0.0833333 0 0 0.0833333 -108.25 -614.5)" d="M 3093.13,8346.62 L 3103.13,8329.3 L 3540.71,8581.94 L 3530.71,8599.26 L 3093.13,8346.62 Z " />
<path stroke="transparent" fill="#000000" transform="matrix(0.0833333 0 0 0.0833333 -108.25 -614.5)" d="M 3509.71,9205.61 L 3499.71,9211.38 L 3489.71,9205.61 L 3489.71,8605.61 L 3509.71,8617.16 L 3509.71,9205.61 Z " />
<path stroke="transparent" fill="#000000" transform="matrix(0.0833333 0 0 0.0833333 -108.25 -614.5)" d="M 4019.32,9499.83 L 4019.32,9511.38 L 4009.32,9517.16 L 3499.71,9222.93 L 3499.71,9211.38 L 3509.71,9205.61 L 4019.32,9499.83 Z " />
<path stroke="transparent" fill="#000000" transform="matrix(0.0833333 0 0 0.0833333 -108.25 -614.5)" d="M 4024.32,9419.58 L 4014.32,9436.9 L 3566.71,9178.47 L 3576.71,9161.15 L 4024.32,9419.58 Z " />
<path stroke="transparent" fill="#000000" transform="matrix(0.0833333 0 0 0.0833333 -108.25 -614.5)" d="M 4029.32,9517.16 L 4019.32,9511.38 L 4019.32,9499.83 L 4528.94,9205.61 L 4538.94,9211.38 L 4540.08,9222.27 L 4029.32,9517.16 Z " />
<path stroke="transparent" fill="#000000" transform="matrix(0.0833333 0 0 0.0833333 -108.25 -614.5)" d="M 4029.32,10105 L 4019.32,10111.4 L 4009.32,10105.6 L 4009.32,9517.16 L 4019.32,9511.38 L 4029.32,9517.16 L 4029.32,10105 Z " />
<path stroke="transparent" fill="#000000" transform="matrix(0.0833333 0 0 0.0833333 -108.25 -614.5)" d="M 3451.54,10450.7 L 3551.73,10369.8 L 4009.32,10105.6 L 4019.32,10111.4 L 4018.77,10123.2 L 3451.54,10450.7 Z " />
<path stroke="transparent" fill="#000000" transform="matrix(0.0833333 0 0 0.0833333 -108.25 -614.5)" d="M 2979.63,10123.2 L 2980.09,10111.4 L 2990.09,10105.1 L 3551.73,10369.8 L 3451.54,10450.7 L 2979.63,10123.2 Z " />
<path stroke="transparent" fill="#000000" transform="matrix(0.0833333 0 0 0.0833333 -108.25 -614.5)" d="M 2970.09,9517.16 L 2980.09,9511.38 L 2990.09,9517.16 L 2990.09,10105.1 L 2980.09,10111.4 L 2970.09,10105.6 L 2970.09,9517.16 Z " />
<path stroke="transparent" fill="#000000" transform="matrix(0.0833333 0 0 0.0833333 -108.25 -614.5)" d="M 2990.09,9517.16 L 2980.09,9511.38 L 2991.61,9493.19 L 3489.71,9205.61 L 3499.71,9211.38 L 3499.71,9222.93 L 2990.09,9517.16 Z " />
<path stroke="transparent" fill="#000000" transform="matrix(0.0833333 0 0 0.0833333 -108.25 -614.5)" d="M 2460.48,9222.93 L 2460.48,9199.83 L 2968.58,9493.19 L 2980.09,9511.38 L 2970.09,9517.16 L 2460.48,9222.93 Z " />
<path stroke="transparent" fill="#000000" transform="matrix(0.0833333 0 0 0.0833333 -108.25 -614.5)" d="M 1950.86,9517.16 L 1930.86,9505.61 L 2460.48,9199.83 L 2460.48,9222.93 L 1950.86,9517.16 Z " />
<path stroke="transparent" fill="#000000" transform="matrix(0.0833333 0 0 0.0833333 -108.25 -614.5)" d="M 1950.86,10105.6 L 1930.86,10117.2 L 1930.86,9505.61 L 1950.86,9517.16 L 1950.86,10105.6 Z " />
<path stroke="transparent" fill="#000000" transform="matrix(0.0833333 0 0 0.0833333 -108.25 -614.5)" d="M 1536.86,10397.7 L 1526.86,10380.4 L 1971.86,10123.5 L 1981.86,10140.8 L 1536.86,10397.7 Z " />
<path stroke="transparent" fill="#000000" transform="matrix(0.0833333 0 0 0.0833333 -108.25 -614.5)" d="M 1500.86,10335.4 L 1490.86,10318.1 L 1935.86,10061.2 L 1945.86,10078.5 L 1500.86,10335.4 Z " />
<path stroke="transparent" fill="#000000" transform="matrix(0.0833333 0 0 0.0833333 -108.25 -614.5)" d="M 2460.48,10399.8 L 2460.48,10411.4 L 2446.82,10415 L 1930.86,10117.2 L 1950.86,10105.6 L 2460.48,10399.8 Z " />
<path stroke="transparent" fill="#000000" transform="matrix(0.0833333 0 0 0.0833333 -108.25 -614.5)" d="M 2474.14,10415 L 2460.48,10411.4 L 2460.48,10399.8 L 2970.09,10105.6 L 2980.09,10111.4 L 2979.63,10123.2 L 2474.14,10415 Z " />
<path stroke="transparent" fill="#000000" transform="matrix(0.0833333 0 0 0.0833333 -108.25 -614.5)" d="M 2769.14,10926 L 2751.82,10936 L 2460.48,10431.4 L 2460.48,10411.4 L 2474.14,10415 L 2769.14,10926 Z " />
<path stroke="transparent" fill="#000000" transform="matrix(0.0833333 0 0 0.0833333 -108.25 -614.5)" d="M 2169.14,10936 L 2151.82,10926 L 2446.82,10415 L 2460.48,10411.4 L 2460.48,10431.4 L 2169.14,10936 Z " />
<path stroke="transparent" fill="#000000" transform="matrix(0.0833333 0 0 0.0833333 -108.25 -614.5)" d="M 2920.09,8911.38 L 3040.09,8911.38 L 2991.61,9493.19 L 2980.09,9511.38 L 2968.58,9493.19 L 2920.09,8911.38 Z " />
<path stroke="transparent" fill="#000000" transform="matrix(0.0833333 0 0 0.0833333 -108.25 -614.5)" d="M 4476.32,10305.9 L 4416.32,10409.9 L 4018.77,10123.2 L 4019.32,10111.4 L 4029.32,10105 L 4476.32,10305.9 Z " />
<path stroke="transparent" fill="#000000" transform="matrix(0.0833333 0 0 0.0833333 -108.25 -614.5)" d="M 4541.98,8008.4 L 4661.33,8020.94 L 4551.88,8596.66 L 4538.94,8611.38 L 4529.34,8594.29 L 4541.98,8008.4 Z " />
<path stroke="transparent" fill="#000000" transform="matrix(0.0833333 0 0 0.0833333 -108.25 -614.5)" d="M 4661.33,9801.82 L 4541.98,9814.37 L 4541.71,9794.28 L 4657.41,9782.12 L 4661.33,9801.82 Z " />
<path stroke="transparent" fill="#000000" transform="matrix(0.0833333 0 0 0.0833333 -108.25 -614.5)" d="M 4649.89,9744.26 L 4541.2,9755.68 L 4540.93,9735.6 L 4645.98,9724.56 L 4649.89,9744.26 Z " />
<path stroke="transparent" fill="#000000" transform="matrix(0.0833333 0 0 0.0833333 -108.25 -614.5)" d="M 4638.46,9686.69 L 4540.41,9697 L 4540.14,9676.92 L 4634.55,9666.99 L 4638.46,9686.69 Z " />
<path stroke="transparent" fill="#000000" transform="matrix(0.0833333 0 0 0.0833333 -108.25 -614.5)" d="M 4627.03,9629.13 L 4539.62,9638.32 L 4539.35,9618.23 L 4623.12,9609.43 L 4627.03,9629.13 Z " />
<path stroke="transparent" fill="#000000" transform="matrix(0.0833333 0 0 0.0833333 -108.25 -614.5)" d="M 4615.6,9571.56 L 4538.84,9579.63 L 4538.57,9559.55 L 4611.69,9551.87 L 4615.6,9571.56 Z " />
<path stroke="transparent" fill="#000000" transform="matrix(0.0833333 0 0 0.0833333 -108.25 -614.5)" d="M 4604.17,9514 L 4538.05,9520.95 L 4537.78,9500.87 L 4600.25,9494.3 L 4604.17,9514 Z " />
<path stroke="transparent" fill="#000000" transform="matrix(0.0833333 0 0 0.0833333 -108.25 -614.5)" d="M 4592.73,9456.43 L 4537.26,9462.26 L 4537,9442.18 L 4588.82,9436.74 L 4592.73,9456.43 Z " />
<path stroke="transparent" fill="#000000" transform="matrix(0.0833333 0 0 0.0833333 -108.25 -614.5)" d="M 4581.3,9398.87 L 4536.48,9403.58 L 4536.21,9383.5 L 4577.39,9379.17 L 4581.3,9398.87 Z " />
<path stroke="transparent" fill="#000000" transform="matrix(0.0833333 0 0 0.0833333 -108.25 -614.5)" d="M 4569.87,9341.3 L 4535.69,9344.9 L 4535.42,9324.82 L 4565.96,9321.61 L 4569.87,9341.3 Z " />
<path stroke="transparent" fill="#000000" transform="matrix(0.0833333 0 0 0.0833333 -108.25 -614.5)" d="M 4558.44,9283.74 L 4534.91,9286.21 L 4534.64,9266.13 L 4554.53,9264.04 L 4558.44,9283.74 Z " />
<path stroke="transparent" fill="#000000" transform="matrix(0.0833333 0 0 0.0833333 -108.25 -614.5)" d="M 5319.31,9848.12 L 5205.18,9885.21 L 5201.16,9865.48 L 5310.96,9829.81 L 5319.31,9848.12 Z " />
<path stroke="transparent" fill="#000000" transform="matrix(0.0833333 0 0 0.0833333 -108.25 -614.5)" d="M 5294.28,9793.16 L 5193.12,9826.03 L 5189.1,9806.31 L 5285.94,9774.84 L 5294.28,9793.16 Z " />
<path stroke="transparent" fill="#000000" transform="matrix(0.0833333 0 0 0.0833333 -108.25 -614.5)" d="M 5269.25,9738.2 L 5181.06,9766.85 L 5177.04,9747.13 L 5260.91,9719.88 L 5269.25,9738.2 Z " />
<path stroke="transparent" fill="#000000" transform="matrix(0.0833333 0 0 0.0833333 -108.25 -614.5)" d="M 5244.22,9683.24 L 5169,9707.68 L 5164.98,9687.95 L 5235.88,9664.92 L 5244.22,9683.24 Z " />
<path stroke="transparent" fill="#000000" transform="matrix(0.0833333 0 0 0.0833333 -108.25 -614.5)" d="M 5219.2,9628.27 L 5156.94,9648.5 L 5152.93,9628.78 L 5210.85,9609.95 L 5219.2,9628.27 Z " />
<path stroke="transparent" fill="#000000" transform="matrix(0.0833333 0 0 0.0833333 -108.25 -614.5)" d="M 5194.17,9573.31 L 5144.89,9589.32 L 5140.87,9569.6 L 5185.83,9554.99 L 5194.17,9573.31 Z " />
<path stroke="transparent" fill="#000000" transform="matrix(0.0833333 0 0 0.0833333 -108.25 -614.5)" d="M 5169.14,9518.35 L 5132.83,9530.15 L 5128.81,9510.42 L 5160.8,9500.03 L 5169.14,9518.35 Z " />
<path stroke="transparent" fill="#000000" transform="matrix(0.0833333 0 0 0.0833333 -108.25 -614.5)" d="M 5144.11,9463.38 L 5120.77,9470.97 L 5116.75,9451.24 L 5135.77,9445.06 L 5144.11,9463.38 Z " />
<path stroke="transparent" fill="#000000" transform="matrix(0.0833333 0 0 0.0833333 -108.25 -614.5)" d="M 7877.05,8309.55 L 7871.07,8331.86 L 7302.67,8484.16 L 7294.5,8475.99 L 7297.49,8464.84 L 7877.05,8309.55 Z " />
<path stroke="transparent" fill="#000000" transform="matrix(0.0833333 0 0 0.0833333 -108.25 -614.5)" d="M 7953.33,7847.11 L 7972.65,7852.29 L 7843.56,8334.05 L 7824.24,8328.87 L 7953.33,7847.11 Z " />
<path stroke="transparent" fill="#000000" transform="matrix(0.0833333 0 0 0.0833333 -108.25 -614.5)" d="M 8022.88,7865.75 L 8042.2,7870.93 L 7913.11,8352.69 L 7893.79,8347.51 L 8022.88,7865.75 Z " />
<path stroke="transparent" fill="#000000" transform="matrix(0.0833333 0 0 0.0833333 -108.25 -614.5)" d="M 8230.02,8662.53 L 8215.88,8676.67 L 7871.07,8331.86 L 7877.05,8309.55 L 8230.02,8662.53 Z " />
</svg>
