<?xml version="1.0" standalone="no" ?>
<!DOCTYPE svg PUBLIC "-//W3C//DTD SVG 1.1//EN" "http://www.w3.org/Graphics/SVG/1.1/DTD/svg11.dtd">
<svg width="448px" height="334px" viewBox="0 0 448 334" style="background-color: #ffffff00" xmlns="http://www.w3.org/2000/svg" xmlns:xlink="http://www.w3.org/1999/xlink" version="1.1" >
<text x="0" y="0" stroke="transparent" fill="#000000" transform="matrix(0.0833333 0 0 0.0833333 41.1958 160.648)" style="font:normal normal normal 200px 'Arial'" >
O</text>
<text x="0" y="0" stroke="transparent" fill="#000000" transform="matrix(0.0833333 0 0 0.0833333 127.799 310.65)" style="font:normal normal normal 200px 'Arial'" >
O</text>
<text x="0" y="0" stroke="transparent" fill="#000000" transform="matrix(0.0833333 0 0 0.0833333 214.4 310.651)" style="font:normal normal normal 200px 'Arial'" >
O</text>
<text x="0" y="0" stroke="transparent" fill="#000000" transform="matrix(0.0833333 0 0 0.0833333 430.911 85.645)" style="font:normal normal normal 200px 'Arial'" >
O</text>
<text x="0" y="0" stroke="transparent" fill="#000000" transform="matrix(0.0833333 0 0 0.0833333 344.311 35.6444)" style="font:normal normal normal 200px 'Arial'" >
O</text>
<text x="0" y="0" stroke="transparent" fill="#000000" transform="matrix(0.0833333 0 0 0.0833333 214.403 160.646)" style="font:normal normal normal 200px 'Arial'" >
O</text>
<path stroke="transparent" fill="#000000" transform="matrix(0.0833333 0 0 0.0833333 -173.25 -245)" d="M 3170.97,5078.23 L 3170.97,5089.77 L 3160.97,5095.55 L 2746.39,4856.19 L 2756.39,4838.87 L 3170.97,5078.23 Z " />
<path stroke="transparent" fill="#000000" transform="matrix(0.0833333 0 0 0.0833333 -173.25 -245)" d="M 3180.96,5684 L 3160.96,5695.55 L 3160.97,5095.55 L 3170.97,5089.77 L 3180.97,5095.55 L 3180.96,5684 Z " />
<path stroke="transparent" fill="#000000" transform="matrix(0.0833333 0 0 0.0833333 -173.25 -245)" d="M 3252.96,5648.21 L 3232.96,5648.21 L 3232.97,5131.34 L 3252.97,5131.34 L 3252.96,5648.21 Z " />
<path stroke="transparent" fill="#000000" transform="matrix(0.0833333 0 0 0.0833333 -173.25 -245)" d="M 3690.55,5978.24 L 3690.54,5989.79 L 3680.55,5995.56 L 3160.96,5695.55 L 3180.96,5684 L 3690.55,5978.24 Z " />
<path stroke="transparent" fill="#000000" transform="matrix(0.0833333 0 0 0.0833333 -173.25 -245)" d="M 3700.58,6484.63 L 3680.58,6484.63 L 3680.55,5995.56 L 3690.54,5989.79 L 3700.55,5995.56 L 3700.58,6484.63 Z " />
<path stroke="transparent" fill="#000000" transform="matrix(0.0833333 0 0 0.0833333 -173.25 -245)" d="M 4215.18,6881.15 L 4205.18,6898.47 L 3785.63,6656.22 L 3795.63,6638.9 L 4215.18,6881.15 Z " />
<path stroke="transparent" fill="#000000" transform="matrix(0.0833333 0 0 0.0833333 -173.25 -245)" d="M 4200.17,5684.01 L 4210.17,5689.78 L 4210.17,5701.33 L 3700.55,5995.56 L 3690.54,5989.79 L 3690.55,5978.24 L 4200.17,5684.01 Z " />
<path stroke="transparent" fill="#000000" transform="matrix(0.0833333 0 0 0.0833333 -173.25 -245)" d="M 4133.17,5639.55 L 4143.17,5656.87 L 3695.55,5915.3 L 3685.55,5897.98 L 4133.17,5639.55 Z " />
<path stroke="transparent" fill="#000000" transform="matrix(0.0833333 0 0 0.0833333 -173.25 -245)" d="M 4729.81,5978.26 L 4729.81,6001.35 L 4210.17,5701.33 L 4210.17,5689.78 L 4220.17,5684.01 L 4729.81,5978.26 Z " />
<path stroke="transparent" fill="#000000" transform="matrix(0.0833333 0 0 0.0833333 -173.25 -245)" d="M 4775.8,6484.64 L 4755.8,6484.64 L 4755.81,5969.02 L 4775.81,5969.02 L 4775.8,6484.64 Z " />
<path stroke="transparent" fill="#000000" transform="matrix(0.0833333 0 0 0.0833333 -173.25 -245)" d="M 4703.8,6484.64 L 4683.8,6484.64 L 4683.81,5969.02 L 4703.81,5969.02 L 4703.8,6484.64 Z " />
<path stroke="transparent" fill="#000000" transform="matrix(0.0833333 0 0 0.0833333 -173.25 -245)" d="M 5239.44,5684.03 L 5259.44,5695.57 L 4729.81,6001.35 L 4729.81,5978.26 L 5239.44,5684.03 Z " />
<path stroke="transparent" fill="#000000" transform="matrix(0.0833333 0 0 0.0833333 -173.25 -245)" d="M 5239.42,5095.54 L 5249.42,5089.77 L 5259.42,5095.54 L 5259.44,5695.57 L 5239.44,5684.03 L 5239.42,5095.54 Z " />
<path stroke="transparent" fill="#000000" transform="matrix(0.0833333 0 0 0.0833333 -173.25 -245)" d="M 5167.42,5131.34 L 5187.42,5131.34 L 5187.43,5648.23 L 5167.43,5648.23 L 5167.42,5131.34 Z " />
<path stroke="transparent" fill="#000000" transform="matrix(0.0833333 0 0 0.0833333 -173.25 -245)" d="M 5759.09,4783.97 L 5769.09,4789.74 L 5769.08,4801.29 L 5259.42,5095.54 L 5249.42,5089.77 L 5249.42,5078.22 L 5759.09,4783.97 Z " />
<path stroke="transparent" fill="#000000" transform="matrix(0.0833333 0 0 0.0833333 -173.25 -245)" d="M 6288.69,5078.24 L 6288.69,5101.33 L 5769.08,4801.29 L 5769.09,4789.74 L 5779.09,4783.97 L 6288.69,5078.24 Z " />
<path stroke="transparent" fill="#000000" transform="matrix(0.0833333 0 0 0.0833333 -173.25 -245)" d="M 6293.69,4997.99 L 6283.69,5015.3 L 5836.09,4756.83 L 5846.09,4739.51 L 6293.69,4997.99 Z " />
<path stroke="transparent" fill="#000000" transform="matrix(0.0833333 0 0 0.0833333 -173.25 -245)" d="M 6798.32,4784.01 L 6818.32,4795.55 L 6288.69,5101.33 L 6288.69,5078.24 L 6798.32,4784.01 Z " />
<path stroke="transparent" fill="#000000" transform="matrix(0.0833333 0 0 0.0833333 -173.25 -245)" d="M 6798.3,4195.52 L 6808.3,4189.75 L 6818.3,4195.52 L 6818.32,4795.55 L 6798.32,4784.01 L 6798.3,4195.52 Z " />
<path stroke="transparent" fill="#000000" transform="matrix(0.0833333 0 0 0.0833333 -173.25 -245)" d="M 6726.3,4231.32 L 6746.3,4231.32 L 6746.31,4748.21 L 6726.31,4748.21 L 6726.3,4231.32 Z " />
<path stroke="transparent" fill="#000000" transform="matrix(0.0833333 0 0 0.0833333 -173.25 -245)" d="M 7223.33,3938.59 L 7233.33,3955.91 L 6818.3,4195.52 L 6808.3,4189.75 L 6808.3,4178.2 L 7223.33,3938.59 Z " />
<path stroke="transparent" fill="#000000" transform="matrix(0.0833333 0 0 0.0833333 -173.25 -245)" d="M 7317.97,3289.72 L 7337.97,3289.72 L 7337.94,3784.57 L 7317.94,3784.57 L 7317.97,3289.72 Z " />
<path stroke="transparent" fill="#000000" transform="matrix(0.0833333 0 0 0.0833333 -173.25 -245)" d="M 6288.72,3901.28 L 6288.72,3889.73 L 6298.72,3883.96 L 6808.3,4178.2 L 6808.3,4189.75 L 6798.3,4195.52 L 6288.72,3901.28 Z " />
<path stroke="transparent" fill="#000000" transform="matrix(0.0833333 0 0 0.0833333 -173.25 -245)" d="M 6278.73,3409.57 L 6298.73,3409.57 L 6298.72,3883.96 L 6288.72,3889.73 L 6278.72,3883.96 L 6278.73,3409.57 Z " />
<path stroke="transparent" fill="#000000" transform="matrix(0.0833333 0 0 0.0833333 -173.25 -245)" d="M 5779.09,4195.51 L 5759.09,4183.97 L 6278.72,3883.96 L 6288.72,3889.73 L 6288.72,3901.28 L 5779.09,4195.51 Z " />
<path stroke="transparent" fill="#000000" transform="matrix(0.0833333 0 0 0.0833333 -173.25 -245)" d="M 5846.09,4239.97 L 5836.09,4222.65 L 6283.72,3964.21 L 6293.72,3981.53 L 5846.09,4239.97 Z " />
<path stroke="transparent" fill="#000000" transform="matrix(0.0833333 0 0 0.0833333 -173.25 -245)" d="M 5759.09,4183.97 L 5779.09,4195.51 L 5779.09,4783.97 L 5769.09,4789.74 L 5759.09,4783.97 L 5759.09,4183.97 Z " />
<path stroke="transparent" fill="#000000" transform="matrix(0.0833333 0 0 0.0833333 -173.25 -245)" d="M 4824.87,4856.17 L 4834.87,4838.85 L 5249.42,5078.22 L 5249.42,5089.77 L 5239.42,5095.54 L 4824.87,4856.17 Z " />
<path stroke="transparent" fill="#000000" transform="matrix(0.0833333 0 0 0.0833333 -173.25 -245)" d="M 4220.18,5095.55 L 4210.18,5089.78 L 4210.18,5078.23 L 4625.24,4838.6 L 4635.24,4855.92 L 4220.18,5095.55 Z " />
<path stroke="transparent" fill="#000000" transform="matrix(0.0833333 0 0 0.0833333 -173.25 -245)" d="M 4200.18,5095.55 L 4210.18,5089.78 L 4220.18,5095.55 L 4220.17,5684.01 L 4210.17,5689.78 L 4200.17,5684.01 L 4200.18,5095.55 Z " />
<path stroke="transparent" fill="#000000" transform="matrix(0.0833333 0 0 0.0833333 -173.25 -245)" d="M 3690.56,4801.33 L 3690.56,4778.24 L 4210.18,5078.23 L 4210.18,5089.78 L 4200.18,5095.55 L 3690.56,4801.33 Z " />
<path stroke="transparent" fill="#000000" transform="matrix(0.0833333 0 0 0.0833333 -173.25 -245)" d="M 3685.56,4881.58 L 3695.56,4864.26 L 4143.18,5122.69 L 4133.18,5140.01 L 3685.56,4881.58 Z " />
<path stroke="transparent" fill="#000000" transform="matrix(0.0833333 0 0 0.0833333 -173.25 -245)" d="M 3690.56,4778.24 L 3690.56,4801.33 L 3180.97,5095.55 L 3170.97,5089.77 L 3170.97,5078.23 L 3690.56,4778.24 Z " />
<path stroke="transparent" fill="#000000" transform="matrix(0.0833333 0 0 0.0833333 -173.25 -245)" d="M 2136.73,5098.44 L 2126.73,5081.12 L 2546.75,4838.62 L 2556.75,4855.95 L 2136.73,5098.44 Z " />
<path stroke="transparent" fill="#000000" transform="matrix(0.0833333 0 0 0.0833333 -173.25 -245)" d="M 6803.34,2981.07 L 6813.34,2998.39 L 6386.35,3244.92 L 6376.35,3227.6 L 6803.34,2981.07 Z " />
</svg>
