<?xml version="1.0" standalone="no" ?>
<!DOCTYPE svg PUBLIC "-//W3C//DTD SVG 1.1//EN" "http://www.w3.org/Graphics/SVG/1.1/DTD/svg11.dtd">
<svg width="658px" height="491px" viewBox="0 0 658 491" style="background-color: #ffffff00" xmlns="http://www.w3.org/2000/svg" xmlns:xlink="http://www.w3.org/1999/xlink" version="1.1" >
<text x="0" y="0" stroke="transparent" fill="#000000" transform="matrix(0.0833333 0 0 0.0833333 431.178 111.528)" style="font:normal normal normal 200px 'Arial'" >
O</text>
<text x="0" y="0" stroke="transparent" fill="#000000" transform="matrix(0.0833333 0 0 0.0833333 301.275 36.5287)" style="font:normal normal normal 200px 'Arial'" >
O</text>
<text x="0" y="0" stroke="transparent" fill="#000000" transform="matrix(0.0833333 0 0 0.0833333 202.639 186.528)" style="font:normal normal normal 200px 'Arial'" >
HO</text>
<text x="0" y="0" stroke="transparent" fill="#000000" transform="matrix(0.0833333 0 0 0.0833333 344.574 261.526)" style="font:normal normal normal 200px 'Arial'" >
O</text>
<text x="0" y="0" stroke="transparent" fill="#000000" transform="matrix(0.0833333 0 0 0.0833333 257.973 261.527)" style="font:normal normal normal 200px 'Arial'" >
O</text>
<text x="0" y="0" stroke="transparent" fill="#000000" transform="matrix(0.0833333 0 0 0.0833333 214.67 486.526)" style="font:normal normal normal 200px 'Arial'" >
O</text>
<text x="0" y="0" stroke="transparent" fill="#000000" transform="matrix(0.0833333 0 0 0.0833333 301.274 486.527)" style="font:normal normal normal 200px 'Arial'" >
OH</text>
<text x="0" y="0" stroke="transparent" fill="#000000" transform="matrix(0.0833333 0 0 0.0833333 344.574 411.526)" style="font:normal normal normal 200px 'Arial'" >
O</text>
<path stroke="transparent" fill="#000000" transform="matrix(0.0833333 0 0 0.0833333 -134.208 -118.917)" d="M 8941.1,3298.88 L 8941.1,3275.79 L 9465.7,3578.66 L 9455.7,3595.98 L 8941.1,3298.88 Z " />
<path stroke="transparent" fill="#000000" transform="matrix(0.0833333 0 0 0.0833333 -134.208 -118.917)" d="M 8421.48,3598.88 L 8421.48,3575.79 L 8941.1,3275.79 L 8941.1,3298.88 L 8421.48,3598.88 Z " />
<path stroke="transparent" fill="#000000" transform="matrix(0.0833333 0 0 0.0833333 -134.208 -118.917)" d="M 7901.85,3298.86 L 7901.85,3275.77 L 8421.48,3575.79 L 8421.48,3598.88 L 7901.85,3298.86 Z " />
<path stroke="transparent" fill="#000000" transform="matrix(0.0833333 0 0 0.0833333 -134.208 -118.917)" d="M 7382.24,3598.86 L 7382.24,3575.77 L 7901.85,3275.77 L 7901.85,3298.86 L 7382.24,3598.86 Z " />
<path stroke="transparent" fill="#000000" transform="matrix(0.0833333 0 0 0.0833333 -134.208 -118.917)" d="M 6862.63,3298.87 L 6862.63,3275.78 L 7382.24,3575.77 L 7382.24,3598.86 L 6862.63,3298.87 Z " />
<path stroke="transparent" fill="#000000" transform="matrix(0.0833333 0 0 0.0833333 -134.208 -118.917)" d="M 6816.64,2807.17 L 6836.64,2807.17 L 6836.63,3308.11 L 6816.63,3308.11 L 6816.64,2807.17 Z " />
<path stroke="transparent" fill="#000000" transform="matrix(0.0833333 0 0 0.0833333 -134.208 -118.917)" d="M 6888.64,2807.17 L 6908.64,2807.17 L 6908.63,3308.11 L 6888.63,3308.11 L 6888.64,2807.17 Z " />
<path stroke="transparent" fill="#000000" transform="matrix(0.0833333 0 0 0.0833333 -134.208 -118.917)" d="M 6343.02,3598.87 L 6343.02,3575.78 L 6862.63,3275.78 L 6862.63,3298.87 L 6343.02,3598.87 Z " />
<path stroke="transparent" fill="#000000" transform="matrix(0.0833333 0 0 0.0833333 -134.208 -118.917)" d="M 5823.41,3298.89 L 5823.41,3287.34 L 5833.41,3281.57 L 6343.02,3575.78 L 6343.02,3598.87 L 5823.41,3298.89 Z " />
<path stroke="transparent" fill="#000000" transform="matrix(0.0833333 0 0 0.0833333 -134.208 -118.917)" d="M 5813.42,2693.13 L 5833.42,2681.58 L 5833.41,3281.57 L 5823.41,3287.34 L 5813.41,3281.57 L 5813.42,2693.13 Z " />
<path stroke="transparent" fill="#000000" transform="matrix(0.0833333 0 0 0.0833333 -134.208 -118.917)" d="M 5741.42,2728.92 L 5761.42,2728.92 L 5761.41,3245.77 L 5741.41,3245.77 L 5741.42,2728.92 Z " />
<path stroke="transparent" fill="#000000" transform="matrix(0.0833333 0 0 0.0833333 -134.208 -118.917)" d="M 5303.84,2398.89 L 5303.84,2387.35 L 5313.84,2381.57 L 5833.42,2681.58 L 5813.42,2693.13 L 5303.84,2398.89 Z " />
<path stroke="transparent" fill="#000000" transform="matrix(0.0833333 0 0 0.0833333 -134.208 -118.917)" d="M 5293.81,1907.18 L 5313.81,1907.18 L 5313.84,2381.57 L 5303.84,2387.35 L 5293.84,2381.57 L 5293.81,1907.18 Z " />
<path stroke="transparent" fill="#000000" transform="matrix(0.0833333 0 0 0.0833333 -134.208 -118.917)" d="M 4779.22,1496 L 4789.22,1478.68 L 5216.18,1725.21 L 5206.18,1742.53 L 4779.22,1496 Z " />
<path stroke="transparent" fill="#000000" transform="matrix(0.0833333 0 0 0.0833333 -134.208 -118.917)" d="M 4794.23,2693.12 L 4774.23,2681.57 L 5293.84,2381.57 L 5303.84,2387.35 L 5303.84,2398.89 L 4794.23,2693.12 Z " />
<path stroke="transparent" fill="#000000" transform="matrix(0.0833333 0 0 0.0833333 -134.208 -118.917)" d="M 4861.23,2737.58 L 4851.23,2720.25 L 5298.84,2461.82 L 5308.84,2479.15 L 4861.23,2737.58 Z " />
<path stroke="transparent" fill="#000000" transform="matrix(0.0833333 0 0 0.0833333 -134.208 -118.917)" d="M 4794.22,3281.56 L 4784.22,3287.33 L 4774.22,3281.56 L 4774.23,2681.57 L 4794.23,2693.12 L 4794.22,3281.56 Z " />
<path stroke="transparent" fill="#000000" transform="matrix(0.0833333 0 0 0.0833333 -134.208 -118.917)" d="M 4362.22,3542.52 L 4352.22,3525.2 L 4774.22,3281.56 L 4784.22,3287.33 L 4784.22,3298.88 L 4362.22,3542.52 Z " />
<path stroke="transparent" fill="#000000" transform="matrix(0.0833333 0 0 0.0833333 -134.208 -118.917)" d="M 5303.79,3575.79 L 5303.79,3587.34 L 5293.79,3593.11 L 4784.22,3298.88 L 4784.22,3287.33 L 4794.22,3281.56 L 5303.79,3575.79 Z " />
<path stroke="transparent" fill="#000000" transform="matrix(0.0833333 0 0 0.0833333 -134.208 -118.917)" d="M 5308.8,3495.54 L 5298.79,3512.86 L 4851.22,3254.43 L 4861.22,3237.11 L 5308.8,3495.54 Z " />
<path stroke="transparent" fill="#000000" transform="matrix(0.0833333 0 0 0.0833333 -134.208 -118.917)" d="M 5313.79,3593.11 L 5303.79,3587.34 L 5303.79,3575.79 L 5813.41,3281.57 L 5823.41,3287.34 L 5823.41,3298.89 L 5313.79,3593.11 Z " />
<path stroke="transparent" fill="#000000" transform="matrix(0.0833333 0 0 0.0833333 -134.208 -118.917)" d="M 5313.79,4193.1 L 5293.79,4181.55 L 5293.79,3593.11 L 5303.79,3587.34 L 5313.79,3593.11 L 5313.79,4193.1 Z " />
<path stroke="transparent" fill="#000000" transform="matrix(0.0833333 0 0 0.0833333 -134.208 -118.917)" d="M 5753.77,4394 L 5743.77,4411.32 L 5298.79,4154.42 L 5308.79,4137.1 L 5753.77,4394 Z " />
<path stroke="transparent" fill="#000000" transform="matrix(0.0833333 0 0 0.0833333 -134.208 -118.917)" d="M 5717.77,4456.36 L 5707.77,4473.68 L 5262.79,4216.77 L 5272.79,4199.45 L 5717.77,4456.36 Z " />
<path stroke="transparent" fill="#000000" transform="matrix(0.0833333 0 0 0.0833333 -134.208 -118.917)" d="M 4881.79,4442.51 L 4871.79,4425.19 L 5293.79,4181.55 L 5313.79,4193.1 L 4881.79,4442.51 Z " />
<path stroke="transparent" fill="#000000" transform="matrix(0.0833333 0 0 0.0833333 -134.208 -118.917)" d="M 4794.16,5081.54 L 4784.16,5087.31 L 4774.16,5081.54 L 4774.17,4607.16 L 4794.17,4607.16 L 4794.16,5081.54 Z " />
<path stroke="transparent" fill="#000000" transform="matrix(0.0833333 0 0 0.0833333 -134.208 -118.917)" d="M 4274.55,5393.09 L 4254.55,5381.54 L 4774.16,5081.54 L 4784.16,5087.31 L 4784.16,5098.86 L 4274.55,5393.09 Z " />
<path stroke="transparent" fill="#000000" transform="matrix(0.0833333 0 0 0.0833333 -134.208 -118.917)" d="M 4341.55,5437.54 L 4331.55,5420.22 L 4779.16,5161.79 L 4789.16,5179.11 L 4341.55,5437.54 Z " />
<path stroke="transparent" fill="#000000" transform="matrix(0.0833333 0 0 0.0833333 -134.208 -118.917)" d="M 4274.56,5981.56 L 4264.56,5987.33 L 4254.56,5981.56 L 4254.55,5381.54 L 4274.55,5393.09 L 4274.56,5981.56 Z " />
<path stroke="transparent" fill="#000000" transform="matrix(0.0833333 0 0 0.0833333 -134.208 -118.917)" d="M 3744.94,6298.88 L 3744.94,6275.79 L 4254.56,5981.56 L 4264.56,5987.33 L 4264.56,5998.88 L 3744.94,6298.88 Z " />
<path stroke="transparent" fill="#000000" transform="matrix(0.0833333 0 0 0.0833333 -134.208 -118.917)" d="M 3225.32,5998.86 L 3225.32,5975.76 L 3744.94,6275.79 L 3744.94,6298.88 L 3225.32,5998.86 Z " />
<path stroke="transparent" fill="#000000" transform="matrix(0.0833333 0 0 0.0833333 -134.208 -118.917)" d="M 2705.7,6298.86 L 2705.7,6275.76 L 3225.32,5975.76 L 3225.32,5998.86 L 2705.7,6298.86 Z " />
<path stroke="transparent" fill="#000000" transform="matrix(0.0833333 0 0 0.0833333 -134.208 -118.917)" d="M 2186.09,5998.87 L 2186.09,5975.78 L 2705.7,6275.76 L 2705.7,6298.86 L 2186.09,5998.87 Z " />
<path stroke="transparent" fill="#000000" transform="matrix(0.0833333 0 0 0.0833333 -134.208 -118.917)" d="M 1671.48,6295.99 L 1661.48,6278.66 L 2186.09,5975.78 L 2186.09,5998.87 L 1671.48,6295.99 Z " />
<path stroke="transparent" fill="#000000" transform="matrix(0.0833333 0 0 0.0833333 -134.208 -118.917)" d="M 4784.17,6275.77 L 4784.17,6287.32 L 4774.17,6293.09 L 4264.56,5998.88 L 4264.56,5987.33 L 4274.56,5981.56 L 4784.17,6275.77 Z " />
<path stroke="transparent" fill="#000000" transform="matrix(0.0833333 0 0 0.0833333 -134.208 -118.917)" d="M 4789.17,6195.52 L 4779.17,6212.84 L 4331.56,5954.42 L 4341.56,5937.1 L 4789.17,6195.52 Z " />
<path stroke="transparent" fill="#000000" transform="matrix(0.0833333 0 0 0.0833333 -134.208 -118.917)" d="M 4794.16,6881.53 L 4774.16,6893.08 L 4774.17,6293.09 L 4784.17,6287.32 L 4794.17,6293.09 L 4794.16,6881.53 Z " />
<path stroke="transparent" fill="#000000" transform="matrix(0.0833333 0 0 0.0833333 -134.208 -118.917)" d="M 4380.16,7173.67 L 4370.16,7156.35 L 4815.16,6899.43 L 4825.16,6916.75 L 4380.16,7173.67 Z " />
<path stroke="transparent" fill="#000000" transform="matrix(0.0833333 0 0 0.0833333 -134.208 -118.917)" d="M 4344.16,7111.32 L 4334.16,7094 L 4779.16,6837.08 L 4789.16,6854.4 L 4344.16,7111.32 Z " />
<path stroke="transparent" fill="#000000" transform="matrix(0.0833333 0 0 0.0833333 -134.208 -118.917)" d="M 5216.17,7125.19 L 5206.17,7142.51 L 4774.16,6893.08 L 4794.16,6881.53 L 5216.17,7125.19 Z " />
<path stroke="transparent" fill="#000000" transform="matrix(0.0833333 0 0 0.0833333 -134.208 -118.917)" d="M 5293.78,5981.55 L 5303.78,5987.32 L 5303.78,5998.87 L 4794.17,6293.09 L 4784.17,6287.32 L 4784.17,6275.77 L 5293.78,5981.55 Z " />
<path stroke="transparent" fill="#000000" transform="matrix(0.0833333 0 0 0.0833333 -134.208 -118.917)" d="M 5735.77,6225.17 L 5725.77,6242.49 L 5303.78,5998.87 L 5303.78,5987.32 L 5313.78,5981.55 L 5735.77,6225.17 Z " />
<path stroke="transparent" fill="#000000" transform="matrix(0.0833333 0 0 0.0833333 -134.208 -118.917)" d="M 6338.01,5978.65 L 6348.01,5995.97 L 5921.01,6242.49 L 5911.01,6225.17 L 6338.01,5978.65 Z " />
<path stroke="transparent" fill="#000000" transform="matrix(0.0833333 0 0 0.0833333 -134.208 -118.917)" d="M 5293.79,5393.11 L 5313.79,5381.56 L 5313.78,5981.55 L 5303.78,5987.32 L 5293.78,5981.55 L 5293.79,5393.11 Z " />
<path stroke="transparent" fill="#000000" transform="matrix(0.0833333 0 0 0.0833333 -134.208 -118.917)" d="M 5221.79,5428.9 L 5241.79,5428.9 L 5241.78,5945.75 L 5221.78,5945.75 L 5221.79,5428.9 Z " />
<path stroke="transparent" fill="#000000" transform="matrix(0.0833333 0 0 0.0833333 -134.208 -118.917)" d="M 5313.79,5381.56 L 5293.79,5393.11 L 4784.16,5098.86 L 4784.16,5087.31 L 4794.16,5081.54 L 5313.79,5381.56 Z " />
</svg>
