<?xml version="1.0" standalone="no" ?>
<!DOCTYPE svg PUBLIC "-//W3C//DTD SVG 1.1//EN" "http://www.w3.org/Graphics/SVG/1.1/DTD/svg11.dtd">
<svg width="633px" height="166px" viewBox="0 0 633 166" style="background-color: #ffffff00" xmlns="http://www.w3.org/2000/svg" xmlns:xlink="http://www.w3.org/1999/xlink" version="1.1" >
<path stroke="transparent" fill="#000000" transform="matrix(0.0833333 0 0 0.0833333 -119.333 -282)" d="M 2750.19,4914.62 L 2730.19,4914.62 L 2730.19,4425.58 L 2740.19,4419.81 L 2750.19,4425.58 L 2750.19,4914.62 Z " />
<path stroke="transparent" fill="#000000" transform="matrix(0.0833333 0 0 0.0833333 -119.333 -282)" d="M 5343.22,5328.44 L 5333.22,5311.12 L 5857.84,5008.24 L 5857.84,5031.34 L 5343.22,5328.44 Z " />
<path stroke="transparent" fill="#000000" transform="matrix(0.0833333 0 0 0.0833333 -119.333 -282)" d="M 5857.84,5031.34 L 5857.84,5008.24 L 6377.39,5308.24 L 6377.39,5331.33 L 5857.84,5031.34 Z " />
<path stroke="transparent" fill="#000000" transform="matrix(0.0833333 0 0 0.0833333 -119.333 -282)" d="M 6377.39,5331.33 L 6377.39,5308.24 L 6897.01,5008.24 L 6897.01,5031.34 L 6377.39,5331.33 Z " />
<path stroke="transparent" fill="#000000" transform="matrix(0.0833333 0 0 0.0833333 -119.333 -282)" d="M 6897.01,5031.34 L 6897.01,5008.24 L 7416.63,5308.24 L 7416.63,5331.33 L 6897.01,5031.34 Z " />
<path stroke="transparent" fill="#000000" transform="matrix(0.0833333 0 0 0.0833333 -119.333 -282)" d="M 7416.63,5331.33 L 7416.63,5308.24 L 7936.17,5008.24 L 7936.18,5031.34 L 7416.63,5331.33 Z " />
<path stroke="transparent" fill="#000000" transform="matrix(0.0833333 0 0 0.0833333 -119.333 -282)" d="M 7936.18,5031.34 L 7936.17,5008.24 L 8455.8,5308.24 L 8455.8,5331.33 L 7936.18,5031.34 Z " />
<path stroke="transparent" fill="#000000" transform="matrix(0.0833333 0 0 0.0833333 -119.333 -282)" d="M 8455.8,5331.33 L 8455.8,5308.24 L 8965.42,5014.02 L 8985.42,5025.57 L 8455.8,5331.33 Z " />
<path stroke="transparent" fill="#000000" transform="matrix(0.0833333 0 0 0.0833333 -119.333 -282)" d="M 8985.42,5025.57 L 8965.42,5014.02 L 8965.42,4425.58 L 8985.42,4414.04 L 8985.42,5025.57 Z " />
<path stroke="transparent" fill="#000000" transform="matrix(0.0833333 0 0 0.0833333 -119.333 -282)" d="M 8985.42,4414.04 L 8965.42,4425.58 L 8455.8,4131.37 L 8455.8,4108.27 L 8985.42,4414.04 Z " />
<path stroke="transparent" fill="#000000" transform="matrix(0.0833333 0 0 0.0833333 -119.333 -282)" d="M 8908.42,4452.72 L 8898.42,4470.04 L 8450.8,4211.62 L 8460.8,4194.3 L 8908.42,4452.72 Z " />
<path stroke="transparent" fill="#000000" transform="matrix(0.0833333 0 0 0.0833333 -119.333 -282)" d="M 8455.8,4108.27 L 8455.8,4131.37 L 7936.17,4431.36 L 7936.18,4408.26 L 8455.8,4108.27 Z " />
<path stroke="transparent" fill="#000000" transform="matrix(0.0833333 0 0 0.0833333 -119.333 -282)" d="M 7936.18,4408.26 L 7936.17,4431.36 L 7416.63,4131.37 L 7416.63,4108.27 L 7936.18,4408.26 Z " />
<path stroke="transparent" fill="#000000" transform="matrix(0.0833333 0 0 0.0833333 -119.333 -282)" d="M 7416.63,4108.27 L 7416.63,4131.37 L 6897.01,4431.36 L 6897.01,4408.26 L 7416.63,4108.27 Z " />
<path stroke="transparent" fill="#000000" transform="matrix(0.0833333 0 0 0.0833333 -119.333 -282)" d="M 6897.01,4408.26 L 6897.01,4431.36 L 6377.39,4131.37 L 6377.39,4108.27 L 6897.01,4408.26 Z " />
<path stroke="transparent" fill="#000000" transform="matrix(0.0833333 0 0 0.0833333 -119.333 -282)" d="M 6377.39,4108.27 L 6377.39,4131.37 L 5857.84,4431.36 L 5857.84,4408.26 L 6377.39,4108.27 Z " />
<path stroke="transparent" fill="#000000" transform="matrix(0.0833333 0 0 0.0833333 -119.333 -282)" d="M 5857.84,4408.26 L 5857.84,4431.36 L 5338.22,4131.37 L 5338.22,4108.27 L 5857.84,4408.26 Z " />
<path stroke="transparent" fill="#000000" transform="matrix(0.0833333 0 0 0.0833333 -119.333 -282)" d="M 5338.22,4108.27 L 5338.22,4131.37 L 4818.6,4431.36 L 4818.6,4408.26 L 5338.22,4108.27 Z " />
<path stroke="transparent" fill="#000000" transform="matrix(0.0833333 0 0 0.0833333 -119.333 -282)" d="M 4818.6,4408.26 L 4818.6,4431.36 L 4298.98,4131.37 L 4298.98,4108.27 L 4818.6,4408.26 Z " />
<path stroke="transparent" fill="#000000" transform="matrix(0.0833333 0 0 0.0833333 -119.333 -282)" d="M 4252.98,3639.67 L 4272.98,3639.67 L 4272.98,4140.6 L 4252.98,4140.6 L 4252.98,3639.67 Z " />
<path stroke="transparent" fill="#000000" transform="matrix(0.0833333 0 0 0.0833333 -119.333 -282)" d="M 4324.97,3639.67 L 4344.97,3639.67 L 4344.97,4140.6 L 4324.97,4140.6 L 4324.97,3639.67 Z " />
<path stroke="transparent" fill="#000000" transform="matrix(0.0833333 0 0 0.0833333 -119.333 -282)" d="M 4298.98,4108.27 L 4298.98,4131.37 L 3876.97,4375 L 3866.97,4357.68 L 4298.98,4108.27 Z " />
<path stroke="transparent" fill="#000000" transform="matrix(0.0833333 0 0 0.0833333 -119.333 -282)" d="M 3691.74,4357.67 L 3681.74,4374.99 L 3259.81,4131.37 L 3259.81,4108.27 L 3691.74,4357.67 Z " />
<path stroke="transparent" fill="#000000" transform="matrix(0.0833333 0 0 0.0833333 -119.333 -282)" d="M 3259.81,4108.27 L 3259.81,4131.37 L 2750.19,4425.58 L 2740.19,4419.81 L 2740.19,4408.26 L 3259.81,4108.27 Z " />
<path stroke="transparent" fill="#000000" transform="matrix(0.0833333 0 0 0.0833333 -119.333 -282)" d="M 2740.19,4408.26 L 2740.19,4419.81 L 2730.19,4425.58 L 2220.57,4131.37 L 2220.56,4108.27 L 2740.19,4408.26 Z " />
<path stroke="transparent" fill="#000000" transform="matrix(0.0833333 0 0 0.0833333 -119.333 -282)" d="M 2220.56,4108.27 L 2220.57,4131.37 L 1798.63,4375 L 1788.63,4357.68 L 2220.56,4108.27 Z " />
<text x="0" y="0" stroke="transparent" fill="#000000" transform="matrix(0.0833333 0 0 0.0833333 102.516 142.816)" style="font:normal normal normal 200px 'Arial'" >
OH</text>
<text x="0" y="0" stroke="transparent" fill="#000000" transform="matrix(0.0833333 0 0 0.0833333 232.415 17.8198)" style="font:normal normal normal 200px 'Arial'" >
O</text>
<text x="0" y="0" stroke="transparent" fill="#000000" transform="matrix(0.0833333 0 0 0.0833333 189.113 92.8175)" style="font:normal normal normal 200px 'Arial'" >
O</text>
<text x="0" y="0" stroke="transparent" fill="#000000" transform="matrix(0.0833333 0 0 0.0833333 3.88199 92.8175)" style="font:normal normal normal 200px 'Arial'" >
HO</text>
</svg>
