<?xml version="1.0" standalone="no" ?>
<!DOCTYPE svg PUBLIC "-//W3C//DTD SVG 1.1//EN" "http://www.w3.org/Graphics/SVG/1.1/DTD/svg11.dtd">
<svg width="126px" height="117px" viewBox="0 0 126 117" style="background-color: #ffffff00" xmlns="http://www.w3.org/2000/svg" xmlns:xlink="http://www.w3.org/1999/xlink" version="1.1" >
<text x="0" y="0" stroke="transparent" fill="#000000" transform="matrix(0.0666667 0 0 0.0666667 102.433 74.0719)" style="font:normal normal normal 200px 'Arial'" >
OH</text>
<text x="0" y="0" stroke="transparent" fill="#000000" transform="matrix(0.0666667 0 0 0.0666667 67.7918 14.0737)" style="font:normal normal normal 200px 'Arial'" >
O</text>
<text x="0" y="0" stroke="transparent" fill="#000000" transform="matrix(0.0666667 0 0 0.0666667 33.1553 114.071)" style="font:normal normal normal 200px 'Arial'" >
OH</text>
<path stroke="transparent" fill="#000000" transform="matrix(0.0666667 0 0 0.0666667 -285.959 -351)" d="M 5338.26,5517.94 L 5358.26,5517.94 L 5358.26,6018.87 L 5338.26,6018.87 L 5338.26,5517.94 Z " />
<path stroke="transparent" fill="#000000" transform="matrix(0.0666667 0 0 0.0666667 -285.959 -351)" d="M 5410.26,5517.94 L 5430.26,5517.94 L 5430.26,6018.87 L 5410.26,6018.87 L 5410.26,5517.94 Z " />
<path stroke="transparent" fill="#000000" transform="matrix(0.0666667 0 0 0.0666667 -285.959 -351)" d="M 5384.26,5986.54 L 5384.26,6009.63 L 4864.71,6309.55 L 4864.71,6286.46 L 5384.26,5986.54 Z " />
<path stroke="transparent" fill="#000000" transform="matrix(0.0666667 0 0 0.0666667 -285.959 -351)" d="M 4924.71,6792.89 L 4804.71,6792.89 L 4806.98,6772.89 L 4922.44,6772.89 L 4924.71,6792.89 Z " />
<path stroke="transparent" fill="#000000" transform="matrix(0.0666667 0 0 0.0666667 -285.959 -351)" d="M 4917.89,6732.78 L 4811.53,6732.78 L 4813.8,6712.78 L 4915.62,6712.78 L 4917.89,6732.78 Z " />
<path stroke="transparent" fill="#000000" transform="matrix(0.0666667 0 0 0.0666667 -285.959 -351)" d="M 4911.07,6672.67 L 4818.35,6672.67 L 4820.62,6652.67 L 4908.8,6652.67 L 4911.07,6672.67 Z " />
<path stroke="transparent" fill="#000000" transform="matrix(0.0666667 0 0 0.0666667 -285.959 -351)" d="M 4904.25,6612.55 L 4825.17,6612.55 L 4827.43,6592.55 L 4901.98,6592.55 L 4904.25,6612.55 Z " />
<path stroke="transparent" fill="#000000" transform="matrix(0.0666667 0 0 0.0666667 -285.959 -351)" d="M 4897.43,6552.44 L 4831.98,6552.44 L 4834.25,6532.44 L 4895.17,6532.44 L 4897.43,6552.44 Z " />
<path stroke="transparent" fill="#000000" transform="matrix(0.0666667 0 0 0.0666667 -285.959 -351)" d="M 4890.62,6492.33 L 4838.8,6492.33 L 4841.07,6472.33 L 4888.35,6472.33 L 4890.62,6492.33 Z " />
<path stroke="transparent" fill="#000000" transform="matrix(0.0666667 0 0 0.0666667 -285.959 -351)" d="M 4883.8,6432.22 L 4845.62,6432.22 L 4847.89,6412.22 L 4881.53,6412.22 L 4883.8,6432.22 Z " />
<path stroke="transparent" fill="#000000" transform="matrix(0.0666667 0 0 0.0666667 -285.959 -351)" d="M 4876.98,6372.1 L 4852.44,6372.1 L 4854.71,6352.1 L 4874.71,6352.1 L 4876.98,6372.1 Z " />
<path stroke="transparent" fill="#000000" transform="matrix(0.0666667 0 0 0.0666667 -285.959 -351)" d="M 5816.26,6235.95 L 5806.26,6253.27 L 5384.26,6009.63 L 5384.26,5986.54 L 5816.26,6235.95 Z " />
<path stroke="transparent" fill="#000000" transform="matrix(0.0666667 0 0 0.0666667 -285.959 -351)" d="M 4340.09,6006.68 L 4350.09,5989.35 L 4864.71,6286.46 L 4864.71,6309.55 L 4340.09,6006.68 Z " />
</svg>
