<?xml version="1.0" standalone="no" ?>
<!DOCTYPE svg PUBLIC "-//W3C//DTD SVG 1.1//EN" "http://www.w3.org/Graphics/SVG/1.1/DTD/svg11.dtd">
<svg width="262px" height="193px" viewBox="0 0 262 193" style="background-color: #ffffff00" xmlns="http://www.w3.org/2000/svg" xmlns:xlink="http://www.w3.org/1999/xlink" version="1.1" >
<text x="0" y="0" stroke="transparent" fill="#000000" transform="matrix(0.0666667 0 0 0.0666667 74.4276 48.3864)" style="font:normal normal normal 200px 'Arial'" >
O</text>
<text x="0" y="0" stroke="transparent" fill="#000000" transform="matrix(0.0666667 0 0 0.0666667 147.382 15.5572)" style="font:normal normal normal 200px 'Arial'" >
OH</text>
<text x="0" y="0" stroke="transparent" fill="#000000" transform="matrix(0.0666667 0 0 0.0666667 179.205 182.872)" style="font:normal normal normal 200px 'Arial'" >
N</text>
<text x="0" y="0" stroke="transparent" fill="#000000" transform="matrix(0.0666667 0 0 0.0666667 238.434 143.814)" style="font:normal normal normal 200px 'Arial'" >
OH</text>
<path stroke="transparent" fill="#000000" transform="matrix(0.0666667 0 0 0.0666667 -217.853 -313)" d="M 4482.71,5239.5 L 4462.81,5237.49 L 4512.62,4744.84 L 4532.51,4746.86 L 4482.71,5239.5 Z " />
<path stroke="transparent" fill="#000000" transform="matrix(0.0666667 0 0 0.0666667 -217.853 -313)" d="M 4950.18,5682.04 L 4949.02,5693.52 L 4938.49,5698.26 L 4551.33,5419.32 L 4563.02,5403.1 L 4950.18,5682.04 Z " />
<path stroke="transparent" fill="#000000" transform="matrix(0.0666667 0 0 0.0666667 -217.853 -313)" d="M 5486.8,5440.55 L 5496.17,5447.3 L 5495.01,5458.79 L 4958.39,5700.27 L 4949.02,5693.52 L 4950.18,5682.04 L 5486.8,5440.55 Z " />
<path stroke="transparent" fill="#000000" transform="matrix(0.0666667 0 0 0.0666667 -217.853 -313)" d="M 5483.71,5520.9 L 5491.92,5539.14 L 5020.58,5751.24 L 5012.37,5733 L 5483.71,5520.9 Z " />
<path stroke="transparent" fill="#000000" transform="matrix(0.0666667 0 0 0.0666667 -217.853 -313)" d="M 5534.56,4968.17 L 5554.46,4970.19 L 5506.7,5442.57 L 5496.17,5447.3 L 5486.8,5440.55 L 5534.56,4968.17 Z " />
<path stroke="transparent" fill="#000000" transform="matrix(0.0666667 0 0 0.0666667 -217.853 -313)" d="M 5993.51,5793.29 L 5972.45,5802.77 L 5495.01,5458.79 L 5496.17,5447.3 L 5506.7,5442.57 L 5993.51,5793.29 Z " />
<path stroke="transparent" fill="#000000" transform="matrix(0.0666667 0 0 0.0666667 -217.853 -313)" d="M 5932.97,6391.58 L 5922.57,6395 L 5913.2,6388.25 L 5972.45,5802.77 L 5993.51,5793.29 L 5932.97,6391.58 Z " />
<path stroke="transparent" fill="#000000" transform="matrix(0.0666667 0 0 0.0666667 -217.853 -313)" d="M 5865.07,6347.41 L 5845.17,6345.39 L 5897.21,5831.14 L 5917.1,5833.15 L 5865.07,6347.41 Z " />
<path stroke="transparent" fill="#000000" transform="matrix(0.0666667 0 0 0.0666667 -217.853 -313)" d="M 5386.15,6647.36 L 5375.42,6641.22 L 5376.58,6629.73 L 5913.2,6388.25 L 5922.57,6395 L 5920.05,6407.1 L 5386.15,6647.36 Z " />
<path stroke="transparent" fill="#000000" transform="matrix(0.0666667 0 0 0.0666667 -217.853 -313)" d="M 5449.68,7229.4 L 5440.52,7237.7 L 5429.84,7232 L 5365.96,6646.73 L 5375.42,6641.22 L 5386.15,6647.36 L 5449.68,7229.4 Z " />
<path stroke="transparent" fill="#000000" transform="matrix(0.0666667 0 0 0.0666667 -217.853 -313)" d="M 4891.47,7535.88 L 4891.9,7513.09 L 5429.84,7232 L 5440.52,7237.7 L 5441.98,7248.22 L 4891.47,7535.88 Z " />
<path stroke="transparent" fill="#000000" transform="matrix(0.0666667 0 0 0.0666667 -217.853 -313)" d="M 4897.93,7448.66 L 4888.67,7430.94 L 5356.52,7186.47 L 5365.78,7204.2 L 4897.93,7448.66 Z " />
<path stroke="transparent" fill="#000000" transform="matrix(0.0666667 0 0 0.0666667 -217.853 -313)" d="M 4370.92,7238.11 L 4370.87,7226.57 L 4380.85,7220.75 L 4891.9,7513.09 L 4891.47,7535.88 L 4370.92,7238.11 Z " />
<path stroke="transparent" fill="#000000" transform="matrix(0.0666667 0 0 0.0666667 -217.853 -313)" d="M 3852.5,7540.16 L 3852.41,7517.06 L 4360.85,7220.83 L 4370.87,7226.57 L 4370.92,7238.11 L 3852.5,7540.16 Z " />
<path stroke="transparent" fill="#000000" transform="matrix(0.0666667 0 0 0.0666667 -217.853 -313)" d="M 3857.16,7454.11 L 3847.09,7436.83 L 4293.68,7176.64 L 4303.75,7193.92 L 3857.16,7454.11 Z " />
<path stroke="transparent" fill="#000000" transform="matrix(0.0666667 0 0 0.0666667 -217.853 -313)" d="M 3321.67,7236.5 L 3341.63,7224.88 L 3852.41,7517.06 L 3852.5,7540.16 L 3321.67,7236.5 Z " />
<path stroke="transparent" fill="#000000" transform="matrix(0.0666667 0 0 0.0666667 -217.853 -313)" d="M 3319.26,6624.91 L 3339.31,6636.38 L 3341.63,7224.88 L 3321.67,7236.5 L 3319.26,6624.91 Z " />
<path stroke="transparent" fill="#000000" transform="matrix(0.0666667 0 0 0.0666667 -217.853 -313)" d="M 3391.45,6671.97 L 3411.45,6671.89 L 3413.49,7188.79 L 3393.49,7188.87 L 3391.45,6671.97 Z " />
<path stroke="transparent" fill="#000000" transform="matrix(0.0666667 0 0 0.0666667 -217.853 -313)" d="M 3847.66,6317.05 L 3847.75,6340.15 L 3339.31,6636.38 L 3319.26,6624.91 L 3847.66,6317.05 Z " />
<path stroke="transparent" fill="#000000" transform="matrix(0.0666667 0 0 0.0666667 -217.853 -313)" d="M 4368.2,6614.82 L 4368.51,6626.52 L 4358.53,6632.34 L 3847.75,6340.15 L 3847.66,6317.05 L 4368.2,6614.82 Z " />
<path stroke="transparent" fill="#000000" transform="matrix(0.0666667 0 0 0.0666667 -217.853 -313)" d="M 4301.64,6659.7 L 4291.71,6677.06 L 3843.07,6420.42 L 3853,6403.06 L 4301.64,6659.7 Z " />
<path stroke="transparent" fill="#000000" transform="matrix(0.0666667 0 0 0.0666667 -217.853 -313)" d="M 4358.53,6632.34 L 4368.51,6626.52 L 4378.53,6631.95 L 4380.85,7220.75 L 4370.87,7226.57 L 4360.85,7220.83 L 4358.53,6632.34 Z " />
<path stroke="transparent" fill="#000000" transform="matrix(0.0666667 0 0 0.0666667 -217.853 -313)" d="M 4879.2,6284.68 L 4888.67,6290.47 L 4888.36,6302.57 L 4378.53,6631.95 L 4368.51,6626.52 L 4368.2,6614.82 L 4879.2,6284.68 Z " />
<path stroke="transparent" fill="#000000" transform="matrix(0.0666667 0 0 0.0666667 -217.853 -313)" d="M 4899.2,6285.73 L 4888.67,6290.47 L 4879.2,6284.68 L 4938.49,5698.26 L 4949.02,5693.52 L 4958.39,5700.27 L 4899.2,6285.73 Z " />
<path stroke="transparent" fill="#000000" transform="matrix(0.0666667 0 0 0.0666667 -217.853 -313)" d="M 4888.36,6302.57 L 4888.67,6290.47 L 4899.2,6285.73 L 5376.58,6629.73 L 5375.42,6641.22 L 5365.96,6646.73 L 4888.36,6302.57 Z " />
<path stroke="transparent" fill="#000000" transform="matrix(0.0666667 0 0 0.0666667 -217.853 -313)" d="M 4958.63,6264.47 L 4970.32,6248.25 L 5389.63,6550.4 L 5377.93,6566.62 L 4958.63,6264.47 Z " />
<path stroke="transparent" fill="#000000" transform="matrix(0.0666667 0 0 0.0666667 -217.853 -313)" d="M 5924.74,7328.37 L 5920.66,7347.95 L 5441.98,7248.22 L 5440.52,7237.7 L 5449.68,7229.4 L 5924.74,7328.37 Z " />
<path stroke="transparent" fill="#000000" transform="matrix(0.0666667 0 0 0.0666667 -217.853 -313)" d="M 6313.59,6840.64 L 6325.88,6839.3 L 6332.03,6848.68 L 6097.32,7258.85 L 6079.96,7248.92 L 6313.59,6840.64 Z " />
<path stroke="transparent" fill="#000000" transform="matrix(0.0666667 0 0 0.0666667 -217.853 -313)" d="M 6228.72,6843.98 L 6246.08,6853.92 L 6034.83,7223.09 L 6017.47,7213.16 L 6228.72,6843.98 Z " />
<path stroke="transparent" fill="#000000" transform="matrix(0.0666667 0 0 0.0666667 -217.853 -313)" d="M 6329.86,6828.8 L 6325.88,6839.3 L 6313.59,6840.64 L 5920.05,6407.1 L 5922.57,6395 L 5932.97,6391.58 L 6329.86,6828.8 Z " />
<path stroke="transparent" fill="#000000" transform="matrix(0.0666667 0 0 0.0666667 -217.853 -313)" d="M 6814.26,6775.94 L 6816.42,6795.83 L 6332.03,6848.68 L 6325.88,6839.3 L 6329.86,6828.8 L 6814.26,6775.94 Z " />
</svg>
