<?xml version="1.0" standalone="no" ?>
<!DOCTYPE svg PUBLIC "-//W3C//DTD SVG 1.1//EN" "http://www.w3.org/Graphics/SVG/1.1/DTD/svg11.dtd">
<svg width="570px" height="285px" viewBox="0 0 570 285" style="background-color: #ffffff00" xmlns="http://www.w3.org/2000/svg" xmlns:xlink="http://www.w3.org/1999/xlink" version="1.1" >
<text x="0" y="0" stroke="transparent" fill="#000000" transform="matrix(0.0833333 0 0 0.0833333 428.24 22.7755)" style="font:normal normal normal 200px 'Arial'" >
HN</text>
<text x="0" y="0" stroke="transparent" fill="#000000" transform="matrix(0.0833333 0 0 0.0833333 390.607 17.3393)" style="font:normal normal normal 200px 'Arial'" >
H</text>
<text x="0" y="0" stroke="transparent" fill="#000000" transform="matrix(0.0833333 0 0 0.0833333 283.363 224.881)" style="font:normal normal normal 200px 'Arial'" >
H</text>
<text x="0" y="0" stroke="transparent" fill="#000000" transform="matrix(0.0833333 0 0 0.0833333 166.874 143.457)" style="font:normal normal normal 200px 'Arial'" >
H</text>
<text x="0" y="0" stroke="transparent" fill="#000000" transform="matrix(0.0833333 0 0 0.0833333 388.796 149.192)" style="font:normal normal normal 200px 'Arial'" >
HO</text>
<text x="0" y="0" stroke="transparent" fill="#000000" transform="matrix(0.0833333 0 0 0.0833333 3.36257 281.347)" style="font:normal normal normal 200px 'Arial'" >
HO</text>
<path stroke="transparent" fill="#000000" transform="matrix(0.0833333 0 0 0.0833333 -164.25 -235)" d="M 6370.96,3423.4 L 6380.26,3444.53 L 6032.35,3919.14 L 6020.87,3917.89 L 6016.22,3907.32 L 6370.96,3423.4 Z " />
<path stroke="transparent" fill="#000000" transform="matrix(0.0833333 0 0 0.0833333 -164.25 -235)" d="M 7219.01,4059.02 L 7213.72,4048.38 L 7220.55,4039.07 L 7805.53,4103.05 L 7814.84,4124.19 L 7219.01,4059.02 Z " />
<path stroke="transparent" fill="#000000" transform="matrix(0.0833333 0 0 0.0833333 -164.25 -235)" d="M 7220.55,4039.07 L 7213.72,4048.38 L 7201.99,4046.54 L 6965.18,3508.54 L 6972.01,3499.23 L 6983.48,3500.48 L 7220.55,4039.07 Z " />
<path stroke="transparent" fill="#000000" transform="matrix(0.0833333 0 0 0.0833333 -164.25 -235)" d="M 6953.6,3487.15 L 6972.01,3499.23 L 6965.18,3508.54 L 6380.26,3444.53 L 6370.96,3423.4 L 6953.6,3487.15 Z " />
<path stroke="transparent" fill="#000000" transform="matrix(0.0833333 0 0 0.0833333 -164.25 -235)" d="M 6079.01,2909.05 L 6188.84,2860.7 L 6195.22,2879.75 L 6088.74,2926.61 L 6079.01,2909.05 Z " />
<path stroke="transparent" fill="#000000" transform="matrix(0.0833333 0 0 0.0833333 -164.25 -235)" d="M 6107.44,2960.37 L 6207.48,2916.34 L 6213.86,2935.38 L 6117.18,2977.93 L 6107.44,2960.37 Z " />
<path stroke="transparent" fill="#000000" transform="matrix(0.0833333 0 0 0.0833333 -164.25 -235)" d="M 6135.88,3011.69 L 6226.12,2971.97 L 6232.5,2991.01 L 6145.61,3029.25 L 6135.88,3011.69 Z " />
<path stroke="transparent" fill="#000000" transform="matrix(0.0833333 0 0 0.0833333 -164.25 -235)" d="M 6164.32,3063.01 L 6244.76,3027.6 L 6251.14,3046.64 L 6174.05,3080.57 L 6164.32,3063.01 Z " />
<path stroke="transparent" fill="#000000" transform="matrix(0.0833333 0 0 0.0833333 -164.25 -235)" d="M 6192.75,3114.33 L 6263.4,3083.23 L 6269.78,3102.27 L 6202.49,3131.89 L 6192.75,3114.33 Z " />
<path stroke="transparent" fill="#000000" transform="matrix(0.0833333 0 0 0.0833333 -164.25 -235)" d="M 6221.19,3165.65 L 6282.04,3138.86 L 6288.42,3157.91 L 6230.92,3183.21 L 6221.19,3165.65 Z " />
<path stroke="transparent" fill="#000000" transform="matrix(0.0833333 0 0 0.0833333 -164.25 -235)" d="M 6249.63,3216.97 L 6300.68,3194.5 L 6307.06,3213.54 L 6259.36,3234.53 L 6249.63,3216.97 Z " />
<path stroke="transparent" fill="#000000" transform="matrix(0.0833333 0 0 0.0833333 -164.25 -235)" d="M 6278.06,3268.29 L 6319.32,3250.13 L 6325.7,3269.17 L 6287.8,3285.85 L 6278.06,3268.29 Z " />
<path stroke="transparent" fill="#000000" transform="matrix(0.0833333 0 0 0.0833333 -164.25 -235)" d="M 6306.5,3319.61 L 6337.95,3305.76 L 6344.34,3324.8 L 6316.23,3337.17 L 6306.5,3319.61 Z " />
<path stroke="transparent" fill="#000000" transform="matrix(0.0833333 0 0 0.0833333 -164.25 -235)" d="M 6334.94,3370.92 L 6356.59,3361.39 L 6362.98,3380.43 L 6344.67,3388.49 L 6334.94,3370.92 Z " />
<path stroke="transparent" fill="#000000" transform="matrix(0.0833333 0 0 0.0833333 -164.25 -235)" d="M 7220.81,3142.91 L 7236.94,3154.74 L 6983.48,3500.48 L 6972.01,3499.23 L 6975.53,3477.5 L 7220.81,3142.91 Z " />
<path stroke="transparent" fill="#000000" transform="matrix(0.0833333 0 0 0.0833333 -164.25 -235)" d="M 7814.84,4124.19 L 7805.53,4103.05 L 8153.45,3628.44 L 8164.93,3629.7 L 8169.27,3640.69 L 7814.84,4124.19 Z " />
<path stroke="transparent" fill="#000000" transform="matrix(0.0833333 0 0 0.0833333 -164.25 -235)" d="M 8171.54,3619.9 L 8164.93,3629.7 L 8153.45,3628.44 L 7916.38,3089.85 L 7930.04,3071.23 L 8171.54,3619.9 Z " />
<path stroke="transparent" fill="#000000" transform="matrix(0.0833333 0 0 0.0833333 -164.25 -235)" d="M 8767.91,3635.29 L 8754.87,3754.58 L 8169.27,3640.69 L 8164.93,3629.7 L 8171.54,3619.9 L 8767.91,3635.29 Z " />
<path stroke="transparent" fill="#000000" transform="matrix(0.0833333 0 0 0.0833333 -164.25 -235)" d="M 7419.91,3035.55 L 7422.08,3015.67 L 7930.04,3071.23 L 7916.38,3089.85 L 7419.91,3035.55 Z " />
<path stroke="transparent" fill="#000000" transform="matrix(0.0833333 0 0 0.0833333 -164.25 -235)" d="M 3306.29,4990.22 L 3306.39,4967.13 L 3813.06,5262.59 L 3824.59,5280.88 L 3814.56,5286.61 L 3306.29,4990.22 Z " />
<path stroke="transparent" fill="#000000" transform="matrix(0.0833333 0 0 0.0833333 -164.25 -235)" d="M 3306.39,4967.13 L 3306.29,4990.22 L 2795.41,5282.27 L 2775.46,5270.64 L 3306.39,4967.13 Z " />
<path stroke="transparent" fill="#000000" transform="matrix(0.0833333 0 0 0.0833333 -164.25 -235)" d="M 2775.46,5270.64 L 2795.41,5282.27 L 2792.96,5870.72 L 2782.94,5876.45 L 2772.97,5869.22 L 2775.46,5270.64 Z " />
<path stroke="transparent" fill="#000000" transform="matrix(0.0833333 0 0 0.0833333 -164.25 -235)" d="M 3301.3,6167.08 L 3301.2,6190.17 L 2782.82,5887.95 L 2782.94,5876.45 L 2792.96,5870.72 L 3301.3,6167.08 Z " />
<path stroke="transparent" fill="#000000" transform="matrix(0.0833333 0 0 0.0833333 -164.25 -235)" d="M 3812.18,5875.03 L 3822.16,5880.85 L 3822.11,5892.39 L 3301.2,6190.17 L 3301.3,6167.08 L 3812.18,5875.03 Z " />
<path stroke="transparent" fill="#000000" transform="matrix(0.0833333 0 0 0.0833333 -164.25 -235)" d="M 3832.18,5875.12 L 3822.16,5880.85 L 3812.18,5875.03 L 3814.56,5286.61 L 3824.59,5280.88 L 3834.56,5286.7 L 3832.18,5875.12 Z " />
<path stroke="transparent" fill="#000000" transform="matrix(0.0833333 0 0 0.0833333 -164.25 -235)" d="M 3822.11,5892.39 L 3822.16,5880.85 L 3832.18,5875.12 L 4340.52,6171.48 L 4340.42,6194.57 L 3822.11,5892.39 Z " />
<path stroke="transparent" fill="#000000" transform="matrix(0.0833333 0 0 0.0833333 -164.25 -235)" d="M 3889.28,5848.22 L 3899.36,5830.94 L 4345.86,6091.25 L 4335.79,6108.53 L 3889.28,5848.22 Z " />
<path stroke="transparent" fill="#000000" transform="matrix(0.0833333 0 0 0.0833333 -164.25 -235)" d="M 4340.42,6194.57 L 4340.52,6171.48 L 4851.33,5879.46 L 4871.28,5891.09 L 4340.42,6194.57 Z " />
<path stroke="transparent" fill="#000000" transform="matrix(0.0833333 0 0 0.0833333 -164.25 -235)" d="M 4871.28,5891.09 L 4851.33,5879.46 L 4853.78,5291.01 L 4863.8,5285.28 L 4873.74,5299.7 L 4871.28,5891.09 Z " />
<path stroke="transparent" fill="#000000" transform="matrix(0.0833333 0 0 0.0833333 -164.25 -235)" d="M 4862.56,5272.98 L 4863.8,5285.28 L 4853.78,5291.01 L 4345.44,4994.65 L 4345.49,4983.1 L 4356.8,4978.12 L 4862.56,5272.98 Z " />
<path stroke="transparent" fill="#000000" transform="matrix(0.0833333 0 0 0.0833333 -164.25 -235)" d="M 5299.37,4883.08 L 5311.45,4885.7 L 5314.79,4896.12 L 4886.08,5278.8 L 4863.8,5285.28 L 4862.56,5272.98 L 5299.37,4883.08 Z " />
<path stroke="transparent" fill="#000000" transform="matrix(0.0833333 0 0 0.0833333 -164.25 -235)" d="M 3834.56,5286.7 L 3824.59,5280.88 L 3836.09,5262.79 L 4336.66,4976.63 L 4345.49,4983.1 L 4345.44,4994.65 L 3834.56,5286.7 Z " />
<path stroke="transparent" fill="#000000" transform="matrix(0.0833333 0 0 0.0833333 -164.25 -235)" d="M 4464.46,4387.49 L 4480.92,4405.94 L 4356.8,4978.12 L 4345.49,4983.1 L 4336.66,4976.63 L 4464.46,4387.49 Z " />
<path stroke="transparent" fill="#000000" transform="matrix(0.0833333 0 0 0.0833333 -164.25 -235)" d="M 5064.3,4327.04 L 5069.73,4336.54 L 5063.5,4347.22 L 4480.92,4405.94 L 4464.46,4387.49 L 5064.3,4327.04 Z " />
<path stroke="transparent" fill="#000000" transform="matrix(0.0833333 0 0 0.0833333 -164.25 -235)" d="M 5063.5,4347.22 L 5069.73,4336.54 L 5081.21,4337.8 L 5318.28,4876.39 L 5311.45,4885.7 L 5299.37,4883.08 L 5063.5,4347.22 Z " />
<path stroke="transparent" fill="#000000" transform="matrix(0.0833333 0 0 0.0833333 -164.25 -235)" d="M 5081.21,4337.8 L 5069.73,4336.54 L 5064.3,4327.04 L 5412.93,3851.4 L 5424.41,3852.65 L 5429.06,3863.22 L 5081.21,4337.8 Z " />
<path stroke="transparent" fill="#000000" transform="matrix(0.0833333 0 0 0.0833333 -164.25 -235)" d="M 5160.43,4351.49 L 5144.3,4339.67 L 5449.84,3922.83 L 5465.97,3934.65 L 5160.43,4351.49 Z " />
<path stroke="transparent" fill="#000000" transform="matrix(0.0833333 0 0 0.0833333 -164.25 -235)" d="M 5429.06,3863.22 L 5424.41,3852.65 L 5431.23,3843.34 L 6016.22,3907.32 L 6020.87,3917.89 L 6014.04,3927.2 L 5429.06,3863.22 Z " />
<path stroke="transparent" fill="#000000" transform="matrix(0.0833333 0 0 0.0833333 -164.25 -235)" d="M 5431.23,3843.34 L 5424.41,3852.65 L 5412.93,3851.4 L 5173.56,3307.59 L 5191.87,3299.53 L 5431.23,3843.34 Z " />
<path stroke="transparent" fill="#000000" transform="matrix(0.0833333 0 0 0.0833333 -164.25 -235)" d="M 5903.19,4940.39 L 5912.5,4961.53 L 5314.79,4896.12 L 5311.45,4885.7 L 5318.28,4876.39 L 5903.19,4940.39 Z " />
<path stroke="transparent" fill="#000000" transform="matrix(0.0833333 0 0 0.0833333 -164.25 -235)" d="M 5875.44,4864.93 L 5873.27,4884.81 L 5359.51,4828.59 L 5361.69,4808.71 L 5875.44,4864.93 Z " />
<path stroke="transparent" fill="#000000" transform="matrix(0.0833333 0 0 0.0833333 -164.25 -235)" d="M 5912.5,4961.53 L 5903.19,4940.39 L 6251.11,4465.78 L 6274.07,4468.3 L 5912.5,4961.53 Z " />
<path stroke="transparent" fill="#000000" transform="matrix(0.0833333 0 0 0.0833333 -164.25 -235)" d="M 6274.07,4468.3 L 6251.11,4465.78 L 6014.04,3927.2 L 6020.87,3917.89 L 6032.35,3919.14 L 6274.07,4468.3 Z " />
<path stroke="transparent" fill="#000000" transform="matrix(0.0833333 0 0 0.0833333 -164.25 -235)" d="M 6189.09,4453.97 L 6170.79,4462.03 L 5962.56,3988.97 L 5980.87,3980.91 L 6189.09,4453.97 Z " />
<path stroke="transparent" fill="#000000" transform="matrix(0.0833333 0 0 0.0833333 -164.25 -235)" d="M 6729.09,3096.29 L 6838.92,3047.94 L 6975.53,3477.5 L 6972.01,3499.23 L 6953.6,3487.15 L 6729.09,3096.29 Z " />
<path stroke="transparent" fill="#000000" transform="matrix(0.0833333 0 0 0.0833333 -164.25 -235)" d="M 5353.27,5354.32 L 5322.21,5470.23 L 4873.74,5299.7 L 4863.8,5285.28 L 4886.08,5278.8 L 5353.27,5354.32 Z " />
<path stroke="transparent" fill="#000000" transform="matrix(0.0833333 0 0 0.0833333 -164.25 -235)" d="M 4061.01,4610.38 L 4164.94,4550.38 L 4172.83,4568.92 L 4073.12,4626.48 L 4061.01,4610.38 Z " />
<path stroke="transparent" fill="#000000" transform="matrix(0.0833333 0 0 0.0833333 -164.25 -235)" d="M 4094.83,4655.36 L 4186.98,4602.15 L 4194.88,4620.69 L 4106.94,4671.46 L 4094.83,4655.36 Z " />
<path stroke="transparent" fill="#000000" transform="matrix(0.0833333 0 0 0.0833333 -164.25 -235)" d="M 4128.65,4700.34 L 4209.03,4653.93 L 4216.92,4672.46 L 4140.75,4716.44 L 4128.65,4700.34 Z " />
<path stroke="transparent" fill="#000000" transform="matrix(0.0833333 0 0 0.0833333 -164.25 -235)" d="M 4162.46,4745.32 L 4231.07,4705.7 L 4238.97,4724.24 L 4174.57,4761.42 L 4162.46,4745.32 Z " />
<path stroke="transparent" fill="#000000" transform="matrix(0.0833333 0 0 0.0833333 -164.25 -235)" d="M 4196.28,4790.29 L 4253.12,4757.48 L 4261.01,4776.01 L 4208.38,4806.4 L 4196.28,4790.29 Z " />
<path stroke="transparent" fill="#000000" transform="matrix(0.0833333 0 0 0.0833333 -164.25 -235)" d="M 4230.09,4835.27 L 4275.16,4809.25 L 4283.06,4827.79 L 4242.2,4851.38 L 4230.09,4835.27 Z " />
<path stroke="transparent" fill="#000000" transform="matrix(0.0833333 0 0 0.0833333 -164.25 -235)" d="M 4263.91,4880.25 L 4297.21,4861.02 L 4305.1,4879.56 L 4276.01,4896.36 L 4263.91,4880.25 Z " />
<path stroke="transparent" fill="#000000" transform="matrix(0.0833333 0 0 0.0833333 -164.25 -235)" d="M 4297.72,4925.23 L 4319.26,4912.8 L 4327.15,4931.34 L 4309.83,4941.34 L 4297.72,4925.23 Z " />
<path stroke="transparent" fill="#000000" transform="matrix(0.0833333 0 0 0.0833333 -164.25 -235)" d="M 3764.59,4680.88 L 3884.59,4680.88 L 3836.09,5262.79 L 3824.59,5280.88 L 3813.06,5262.59 L 3764.59,4680.88 Z " />
<path stroke="transparent" fill="#000000" transform="matrix(0.0833333 0 0 0.0833333 -164.25 -235)" d="M 6970.43,4481.76 L 6873.64,4410.82 L 7201.99,4046.54 L 7213.72,4048.38 L 7219.01,4059.02 L 6970.43,4481.76 Z " />
<path stroke="transparent" fill="#000000" transform="matrix(0.0833333 0 0 0.0833333 -164.25 -235)" d="M 2355.79,6130.02 L 2307.45,6020.19 L 2772.97,5869.22 L 2782.94,5876.45 L 2782.82,5887.95 L 2355.79,6130.02 Z " />
</svg>
