<?xml version="1.0" standalone="no" ?>
<!DOCTYPE svg PUBLIC "-//W3C//DTD SVG 1.1//EN" "http://www.w3.org/Graphics/SVG/1.1/DTD/svg11.dtd">
<svg width="695px" height="399px" viewBox="0 0 695 399" style="background-color: #ffffff00" xmlns="http://www.w3.org/2000/svg" xmlns:xlink="http://www.w3.org/1999/xlink" version="1.1" >
<path stroke="transparent" fill="#000000" transform="matrix(0.0833333 0 0 0.0833333 -88.25 -179)" d="M 1856.44,4097.19 L 1846.65,4114.63 L 1427.15,3878.98 L 1436.95,3861.54 L 1856.44,4097.19 Z " />
<path stroke="transparent" fill="#000000" transform="matrix(0.0833333 0 0 0.0833333 -88.25 -179)" d="M 3919.68,6498.08 L 3929.76,6515.36 L 3509.18,6760.74 L 3499.1,6743.47 L 3919.68,6498.08 Z " />
<path stroke="transparent" fill="#000000" transform="matrix(0.0833333 0 0 0.0833333 -88.25 -179)" d="M 8092.38,2899.15 L 8092.38,2876.15 L 8619.51,3175.31 L 8619.58,3186.85 L 8609.58,3192.67 L 8092.38,2899.15 Z " />
<path stroke="transparent" fill="#000000" transform="matrix(0.0833333 0 0 0.0833333 -88.25 -179)" d="M 8629.58,3192.59 L 8619.58,3186.85 L 8619.51,3175.31 L 9028.1,2936.98 L 9038.18,2954.26 L 8629.58,3192.59 Z " />
<path stroke="transparent" fill="#000000" transform="matrix(0.0833333 0 0 0.0833333 -88.25 -179)" d="M 8629.58,3805.33 L 8609.58,3793.68 L 8609.58,3192.67 L 8619.58,3186.85 L 8629.58,3192.59 L 8629.58,3805.33 Z " />
<path stroke="transparent" fill="#000000" transform="matrix(0.0833333 0 0 0.0833333 -88.25 -179)" d="M 8556.06,3756.7 L 8536.06,3756.7 L 8536.06,3229.66 L 8556.06,3229.66 L 8556.06,3756.7 Z " />
<path stroke="transparent" fill="#000000" transform="matrix(0.0833333 0 0 0.0833333 -88.25 -179)" d="M 4447.67,3708.59 L 4427.67,3708.59 L 4427.67,3215.36 L 4447.67,3215.36 L 4447.67,3708.59 Z " />
<path stroke="transparent" fill="#000000" transform="matrix(0.0833333 0 0 0.0833333 -88.25 -179)" d="M 8092.38,4110.28 L 8092.38,4087.28 L 8609.58,3793.68 L 8629.58,3805.33 L 8092.38,4110.28 Z " />
<path stroke="transparent" fill="#000000" transform="matrix(0.0833333 0 0 0.0833333 -88.25 -179)" d="M 7575.18,3192.67 L 7555.18,3181.03 L 8092.38,2876.15 L 8092.38,2899.15 L 7575.18,3192.67 Z " />
<path stroke="transparent" fill="#000000" transform="matrix(0.0833333 0 0 0.0833333 -88.25 -179)" d="M 7642.85,3237.9 L 7632.98,3220.51 L 8087.44,2962.59 L 8097.31,2979.99 L 7642.85,3237.9 Z " />
<path stroke="transparent" fill="#000000" transform="matrix(0.0833333 0 0 0.0833333 -88.25 -179)" d="M 7565.24,3811.04 L 7565.18,3799.51 L 7575.18,3793.68 L 8092.38,4087.28 L 8092.38,4110.28 L 7565.24,3811.04 Z " />
<path stroke="transparent" fill="#000000" transform="matrix(0.0833333 0 0 0.0833333 -88.25 -179)" d="M 7632.99,3765.85 L 7642.86,3748.46 L 8097.31,4006.43 L 8087.44,4023.83 L 7632.99,3765.85 Z " />
<path stroke="transparent" fill="#000000" transform="matrix(0.0833333 0 0 0.0833333 -88.25 -179)" d="M 7575.18,3793.68 L 7565.18,3799.51 L 7555.18,3793.76 L 7555.18,3181.03 L 7575.18,3192.67 L 7575.18,3793.68 Z " />
<path stroke="transparent" fill="#000000" transform="matrix(0.0833333 0 0 0.0833333 -88.25 -179)" d="M 1928.49,4130.48 L 1868.02,4026.83 L 1886.33,4018.53 L 1944.73,4118.62 L 1928.49,4130.48 Z " />
<path stroke="transparent" fill="#000000" transform="matrix(0.0833333 0 0 0.0833333 -88.25 -179)" d="M 1975.75,4095.97 L 1921.32,4002.67 L 1939.63,3994.37 L 1991.99,4084.11 L 1975.75,4095.97 Z " />
<path stroke="transparent" fill="#000000" transform="matrix(0.0833333 0 0 0.0833333 -88.25 -179)" d="M 2023.02,4061.46 L 1974.62,3978.51 L 1992.94,3970.21 L 2039.25,4049.6 L 2023.02,4061.46 Z " />
<path stroke="transparent" fill="#000000" transform="matrix(0.0833333 0 0 0.0833333 -88.25 -179)" d="M 2070.28,4026.94 L 2027.92,3954.35 L 2046.24,3946.05 L 2086.52,4015.09 L 2070.28,4026.94 Z " />
<path stroke="transparent" fill="#000000" transform="matrix(0.0833333 0 0 0.0833333 -88.25 -179)" d="M 2117.54,3992.43 L 2081.23,3930.19 L 2099.54,3921.89 L 2133.78,3980.57 L 2117.54,3992.43 Z " />
<path stroke="transparent" fill="#000000" transform="matrix(0.0833333 0 0 0.0833333 -88.25 -179)" d="M 2164.8,3957.92 L 2134.53,3906.03 L 2152.84,3897.73 L 2181.04,3946.06 L 2164.8,3957.92 Z " />
<path stroke="transparent" fill="#000000" transform="matrix(0.0833333 0 0 0.0833333 -88.25 -179)" d="M 2212.06,3923.41 L 2187.83,3881.87 L 2206.14,3873.57 L 2228.3,3911.55 L 2212.06,3923.41 Z " />
<path stroke="transparent" fill="#000000" transform="matrix(0.0833333 0 0 0.0833333 -88.25 -179)" d="M 2259.32,3888.89 L 2241.13,3857.71 L 2259.44,3849.41 L 2275.56,3877.04 L 2259.32,3888.89 Z " />
<path stroke="transparent" fill="#000000" transform="matrix(0.0833333 0 0 0.0833333 -88.25 -179)" d="M 2306.59,3854.38 L 2294.43,3833.55 L 2312.74,3825.25 L 2322.82,3842.52 L 2306.59,3854.38 Z " />
<path stroke="transparent" fill="#000000" transform="matrix(0.0833333 0 0 0.0833333 -88.25 -179)" d="M 3984.72,6452.7 L 3864.72,6452.7 L 3866.79,6432.7 L 3982.65,6432.7 L 3984.72,6452.7 Z " />
<path stroke="transparent" fill="#000000" transform="matrix(0.0833333 0 0 0.0833333 -88.25 -179)" d="M 3978.73,6394.79 L 3870.71,6394.79 L 3872.78,6374.79 L 3976.66,6374.79 L 3978.73,6394.79 Z " />
<path stroke="transparent" fill="#000000" transform="matrix(0.0833333 0 0 0.0833333 -88.25 -179)" d="M 3972.74,6336.89 L 3876.7,6336.89 L 3878.77,6316.89 L 3970.67,6316.89 L 3972.74,6336.89 Z " />
<path stroke="transparent" fill="#000000" transform="matrix(0.0833333 0 0 0.0833333 -88.25 -179)" d="M 3966.75,6278.99 L 3882.69,6278.99 L 3884.76,6258.99 L 3964.68,6258.99 L 3966.75,6278.99 Z " />
<path stroke="transparent" fill="#000000" transform="matrix(0.0833333 0 0 0.0833333 -88.25 -179)" d="M 3960.76,6221.08 L 3888.69,6221.08 L 3890.76,6201.08 L 3958.69,6201.08 L 3960.76,6221.08 Z " />
<path stroke="transparent" fill="#000000" transform="matrix(0.0833333 0 0 0.0833333 -88.25 -179)" d="M 3954.76,6163.18 L 3894.68,6163.18 L 3896.75,6143.18 L 3952.69,6143.18 L 3954.76,6163.18 Z " />
<path stroke="transparent" fill="#000000" transform="matrix(0.0833333 0 0 0.0833333 -88.25 -179)" d="M 3948.77,6105.28 L 3900.67,6105.28 L 3902.74,6085.28 L 3946.7,6085.28 L 3948.77,6105.28 Z " />
<path stroke="transparent" fill="#000000" transform="matrix(0.0833333 0 0 0.0833333 -88.25 -179)" d="M 3942.78,6047.37 L 3906.66,6047.37 L 3908.73,6027.37 L 3940.71,6027.37 L 3942.78,6047.37 Z " />
<path stroke="transparent" fill="#000000" transform="matrix(0.0833333 0 0 0.0833333 -88.25 -179)" d="M 3936.79,5989.47 L 3912.65,5989.47 L 3914.72,5969.47 L 3934.72,5969.47 L 3936.79,5989.47 Z " />
<path stroke="transparent" fill="#000000" transform="matrix(0.0833333 0 0 0.0833333 -88.25 -179)" d="M 1921.13,2997.7 L 1981.59,2894.04 L 2365.17,3175.01 L 2364.49,3186.85 L 2354.49,3193.25 L 1921.13,2997.7 Z " />
<path stroke="transparent" fill="#000000" transform="matrix(0.0833333 0 0 0.0833333 -88.25 -179)" d="M 2374.49,3800.81 L 2354.49,3812.46 L 2354.49,3193.25 L 2364.49,3186.85 L 2374.49,3192.71 L 2374.49,3800.81 Z " />
<path stroke="transparent" fill="#000000" transform="matrix(0.0833333 0 0 0.0833333 -88.25 -179)" d="M 3924.75,5903.86 L 3924.69,5927.03 L 3405.18,5621.04 L 3404.65,5609.12 L 3414.65,5603.4 L 3924.75,5903.86 Z " />
<path stroke="transparent" fill="#000000" transform="matrix(0.0833333 0 0 0.0833333 -88.25 -179)" d="M 3014.3,5906.26 L 2953.84,5802.61 L 3394.65,5602.73 L 3404.65,5609.12 L 3405.18,5621.04 L 3014.3,5906.26 Z " />
<path stroke="transparent" fill="#000000" transform="matrix(0.0833333 0 0 0.0833333 -88.25 -179)" d="M 4971.81,4087.35 L 4972,4098.78 L 4962,4104.78 L 4534.46,3876.73 L 4543.88,3859.08 L 4971.81,4087.35 Z " />
<path stroke="transparent" fill="#000000" transform="matrix(0.0833333 0 0 0.0833333 -88.25 -179)" d="M 4982,4104.56 L 4972,4098.78 L 4971.81,4087.35 L 5492,3787.97 L 5492,3811.04 L 4982,4104.56 Z " />
<path stroke="transparent" fill="#000000" transform="matrix(0.0833333 0 0 0.0833333 -88.25 -179)" d="M 5048.98,4149.08 L 5039.01,4131.75 L 5487.02,3873.91 L 5496.99,3891.24 L 5048.98,4149.08 Z " />
<path stroke="transparent" fill="#000000" transform="matrix(0.0833333 0 0 0.0833333 -88.25 -179)" d="M 2803.64,4044.42 L 2793.77,4061.82 L 2354.49,3812.46 L 2374.49,3800.81 L 2803.64,4044.42 Z " />
<path stroke="transparent" fill="#000000" transform="matrix(0.0833333 0 0 0.0833333 -88.25 -179)" d="M 2898.99,2876.1 L 2898.66,2899.2 L 2374.49,3192.71 L 2364.49,3186.85 L 2365.17,3175.01 L 2898.99,2876.1 Z " />
<path stroke="transparent" fill="#000000" transform="matrix(0.0833333 0 0 0.0833333 -88.25 -179)" d="M 2838.82,2409.01 L 2958.82,2409.01 L 2956.47,2429.01 L 2841.18,2429.01 L 2838.82,2409.01 Z " />
<path stroke="transparent" fill="#000000" transform="matrix(0.0833333 0 0 0.0833333 -88.25 -179)" d="M 2845.63,2466.8 L 2952.02,2466.8 L 2949.66,2486.8 L 2847.99,2486.8 L 2845.63,2466.8 Z " />
<path stroke="transparent" fill="#000000" transform="matrix(0.0833333 0 0 0.0833333 -88.25 -179)" d="M 2852.44,2524.6 L 2945.21,2524.6 L 2942.86,2544.6 L 2854.79,2544.6 L 2852.44,2524.6 Z " />
<path stroke="transparent" fill="#000000" transform="matrix(0.0833333 0 0 0.0833333 -88.25 -179)" d="M 2859.24,2582.39 L 2938.41,2582.39 L 2936.05,2602.39 L 2861.6,2602.39 L 2859.24,2582.39 Z " />
<path stroke="transparent" fill="#000000" transform="matrix(0.0833333 0 0 0.0833333 -88.25 -179)" d="M 2866.05,2640.19 L 2931.6,2640.19 L 2929.24,2660.19 L 2868.41,2660.19 L 2866.05,2640.19 Z " />
<path stroke="transparent" fill="#000000" transform="matrix(0.0833333 0 0 0.0833333 -88.25 -179)" d="M 2872.86,2697.98 L 2924.79,2697.98 L 2922.44,2717.98 L 2875.21,2717.98 L 2872.86,2697.98 Z " />
<path stroke="transparent" fill="#000000" transform="matrix(0.0833333 0 0 0.0833333 -88.25 -179)" d="M 2879.66,2755.78 L 2917.99,2755.78 L 2915.63,2775.78 L 2882.02,2775.78 L 2879.66,2755.78 Z " />
<path stroke="transparent" fill="#000000" transform="matrix(0.0833333 0 0 0.0833333 -88.25 -179)" d="M 2886.47,2813.58 L 2911.18,2813.58 L 2908.82,2833.58 L 2888.82,2833.58 L 2886.47,2813.58 Z " />
<path stroke="transparent" fill="#000000" transform="matrix(0.0833333 0 0 0.0833333 -88.25 -179)" d="M 7052.19,4087.22 L 7052.23,4098.78 L 7042.23,4104.56 L 6627.27,3865.78 L 6637.24,3848.44 L 7052.19,4087.22 Z " />
<path stroke="transparent" fill="#000000" transform="matrix(0.0833333 0 0 0.0833333 -88.25 -179)" d="M 7062.23,4104.52 L 7052.23,4098.78 L 7052.19,4087.22 L 7555.18,3793.76 L 7565.18,3799.51 L 7565.24,3811.04 L 7062.23,4104.52 Z " />
<path stroke="transparent" fill="#000000" transform="matrix(0.0833333 0 0 0.0833333 -88.25 -179)" d="M 7062.23,4710.1 L 7042.23,4698.53 L 7042.23,4104.56 L 7052.23,4098.78 L 7062.23,4104.52 L 7062.23,4710.1 Z " />
<path stroke="transparent" fill="#000000" transform="matrix(0.0833333 0 0 0.0833333 -88.25 -179)" d="M 6989.56,4662.28 L 6969.56,4662.28 L 6969.56,4140.8 L 6989.56,4140.8 L 6989.56,4662.28 Z " />
<path stroke="transparent" fill="#000000" transform="matrix(0.0833333 0 0 0.0833333 -88.25 -179)" d="M 2961.28,4814.36 L 3021.74,4710.71 L 3037.83,4722.82 L 2979.74,4822.4 L 2961.28,4814.36 Z " />
<path stroke="transparent" fill="#000000" transform="matrix(0.0833333 0 0 0.0833333 -88.25 -179)" d="M 3014.59,4837.58 L 3068.2,4745.68 L 3084.29,4757.79 L 3033.06,4845.62 L 3014.59,4837.58 Z " />
<path stroke="transparent" fill="#000000" transform="matrix(0.0833333 0 0 0.0833333 -88.25 -179)" d="M 3067.91,4860.8 L 3114.65,4780.66 L 3130.74,4792.77 L 3086.37,4868.84 L 3067.91,4860.8 Z " />
<path stroke="transparent" fill="#000000" transform="matrix(0.0833333 0 0 0.0833333 -88.25 -179)" d="M 3121.22,4884.01 L 3161.11,4815.63 L 3177.19,4827.75 L 3139.68,4892.06 L 3121.22,4884.01 Z " />
<path stroke="transparent" fill="#000000" transform="matrix(0.0833333 0 0 0.0833333 -88.25 -179)" d="M 3174.53,4907.23 L 3207.56,4850.61 L 3223.65,4862.72 L 3193,4915.27 L 3174.53,4907.23 Z " />
<path stroke="transparent" fill="#000000" transform="matrix(0.0833333 0 0 0.0833333 -88.25 -179)" d="M 3227.85,4930.45 L 3254.01,4885.59 L 3270.1,4897.7 L 3246.31,4938.49 L 3227.85,4930.45 Z " />
<path stroke="transparent" fill="#000000" transform="matrix(0.0833333 0 0 0.0833333 -88.25 -179)" d="M 3281.16,4953.67 L 3300.47,4920.56 L 3316.56,4932.68 L 3299.62,4961.71 L 3281.16,4953.67 Z " />
<path stroke="transparent" fill="#000000" transform="matrix(0.0833333 0 0 0.0833333 -88.25 -179)" d="M 3334.47,4976.89 L 3346.92,4955.54 L 3363.01,4967.65 L 3352.93,4984.93 L 3334.47,4976.89 Z " />
<path stroke="transparent" fill="#000000" transform="matrix(0.0833333 0 0 0.0833333 -88.25 -179)" d="M 3394.65,4997.73 L 3414.65,5009.3 L 3414.65,5603.4 L 3404.65,5609.12 L 3394.65,5602.73 L 3394.65,4997.73 Z " />
<path stroke="transparent" fill="#000000" transform="matrix(0.0833333 0 0 0.0833333 -88.25 -179)" d="M 5492,3811.04 L 5492,3787.97 L 6012.08,4087.24 L 6012.08,4098.78 L 6002.08,4104.56 L 5492,3811.04 Z " />
<path stroke="transparent" fill="#000000" transform="matrix(0.0833333 0 0 0.0833333 -88.25 -179)" d="M 6022.08,4104.56 L 6012.08,4098.78 L 6012.08,4087.24 L 6427.49,3848.19 L 6437.47,3865.53 L 6022.08,4104.56 Z " />
<path stroke="transparent" fill="#000000" transform="matrix(0.0833333 0 0 0.0833333 -88.25 -179)" d="M 3802.25,2900.11 L 3862.09,3004.13 L 3421.77,3200.41 L 3411.77,3193.98 L 3411.3,3182.05 L 3802.25,2900.11 Z " />
<path stroke="transparent" fill="#000000" transform="matrix(0.0833333 0 0 0.0833333 -88.25 -179)" d="M 3411.3,3182.05 L 3411.77,3193.98 L 3401.77,3199.65 L 2898.66,2899.2 L 2898.99,2876.1 L 3411.3,3182.05 Z " />
<path stroke="transparent" fill="#000000" transform="matrix(0.0833333 0 0 0.0833333 -88.25 -179)" d="M 4347.43,5658.27 L 4357.47,5675.56 L 3924.69,5927.03 L 3924.75,5903.86 L 4347.43,5658.27 Z " />
<path stroke="transparent" fill="#000000" transform="matrix(0.0833333 0 0 0.0833333 -88.25 -179)" d="M 6486.67,4983.1 L 6506.67,4983.1 L 6506.67,5489.69 L 6486.67,5489.69 L 6486.67,4983.1 Z " />
<path stroke="transparent" fill="#000000" transform="matrix(0.0833333 0 0 0.0833333 -88.25 -179)" d="M 6557.63,4983.1 L 6577.63,4983.1 L 6577.63,5489.69 L 6557.63,5489.69 L 6557.63,4983.1 Z " />
<path stroke="transparent" fill="#000000" transform="matrix(0.0833333 0 0 0.0833333 -88.25 -179)" d="M 6532.15,5015.05 L 6532.15,4991.98 L 7042.23,4698.53 L 7062.23,4710.1 L 6532.15,5015.05 Z " />
<path stroke="transparent" fill="#000000" transform="matrix(0.0833333 0 0 0.0833333 -88.25 -179)" d="M 5482,5009.3 L 5492,5003.51 L 5502,5009.3 L 5502,5489.69 L 5482,5489.69 L 5482,5009.3 Z " />
<path stroke="transparent" fill="#000000" transform="matrix(0.0833333 0 0 0.0833333 -88.25 -179)" d="M 3401.77,3800.85 L 3421.77,3812.42 L 2989.38,4061.24 L 2979.4,4043.9 L 3401.77,3800.85 Z " />
<path stroke="transparent" fill="#000000" transform="matrix(0.0833333 0 0 0.0833333 -88.25 -179)" d="M 3421.77,3812.42 L 3401.77,3800.85 L 3401.77,3199.65 L 3411.77,3193.98 L 3421.77,3200.41 L 3421.77,3812.42 Z " />
<path stroke="transparent" fill="#000000" transform="matrix(0.0833333 0 0 0.0833333 -88.25 -179)" d="M 3862.58,4000.19 L 3802.1,4103.83 L 3785.99,4091.76 L 3844.14,3992.1 L 3862.58,4000.19 Z " />
<path stroke="transparent" fill="#000000" transform="matrix(0.0833333 0 0 0.0833333 -88.25 -179)" d="M 3808.21,3976.35 L 3754.6,4068.23 L 3738.49,4056.16 L 3789.77,3968.27 L 3808.21,3976.35 Z " />
<path stroke="transparent" fill="#000000" transform="matrix(0.0833333 0 0 0.0833333 -88.25 -179)" d="M 3753.83,3952.52 L 3707.09,4032.63 L 3690.98,4020.55 L 3735.4,3944.43 L 3753.83,3952.52 Z " />
<path stroke="transparent" fill="#000000" transform="matrix(0.0833333 0 0 0.0833333 -88.25 -179)" d="M 3699.46,3928.68 L 3659.59,3997.02 L 3643.48,3984.95 L 3681.02,3920.6 L 3699.46,3928.68 Z " />
<path stroke="transparent" fill="#000000" transform="matrix(0.0833333 0 0 0.0833333 -88.25 -179)" d="M 3645.09,3904.85 L 3612.09,3961.42 L 3595.98,3949.35 L 3626.65,3896.76 L 3645.09,3904.85 Z " />
<path stroke="transparent" fill="#000000" transform="matrix(0.0833333 0 0 0.0833333 -88.25 -179)" d="M 3590.72,3881.01 L 3564.58,3925.82 L 3548.47,3913.74 L 3572.28,3872.93 L 3590.72,3881.01 Z " />
<path stroke="transparent" fill="#000000" transform="matrix(0.0833333 0 0 0.0833333 -88.25 -179)" d="M 3536.35,3857.18 L 3517.08,3890.21 L 3500.97,3878.14 L 3517.91,3849.09 L 3536.35,3857.18 Z " />
<path stroke="transparent" fill="#000000" transform="matrix(0.0833333 0 0 0.0833333 -88.25 -179)" d="M 3481.98,3833.34 L 3469.57,3854.61 L 3453.46,3842.54 L 3463.54,3825.26 L 3481.98,3833.34 Z " />
<path stroke="transparent" fill="#000000" transform="matrix(0.0833333 0 0 0.0833333 -88.25 -179)" d="M 6022.08,4698.53 L 6012.08,4704.31 L 6002.08,4698.53 L 6002.08,4104.56 L 6012.08,4098.78 L 6022.08,4104.56 L 6022.08,4698.53 Z " />
<path stroke="transparent" fill="#000000" transform="matrix(0.0833333 0 0 0.0833333 -88.25 -179)" d="M 5949.41,4662.28 L 5929.41,4662.28 L 5929.41,4140.8 L 5949.41,4140.8 L 5949.41,4662.28 Z " />
<path stroke="transparent" fill="#000000" transform="matrix(0.0833333 0 0 0.0833333 -88.25 -179)" d="M 6012.08,4715.85 L 6012.08,4704.31 L 6022.08,4698.53 L 6532.15,4991.98 L 6532.15,5015.05 L 6012.08,4715.85 Z " />
<path stroke="transparent" fill="#000000" transform="matrix(0.0833333 0 0 0.0833333 -88.25 -179)" d="M 5502,5009.3 L 5492,5003.51 L 5492,4991.98 L 6002.08,4698.53 L 6012.08,4704.31 L 6012.08,4715.85 L 5502,5009.3 Z " />
<path stroke="transparent" fill="#000000" transform="matrix(0.0833333 0 0 0.0833333 -88.25 -179)" d="M 3864.72,4225.74 L 3984.72,4225.74 L 3935.29,4698.81 L 3924.72,4704.31 L 3914.15,4698.86 L 3864.72,4225.74 Z " />
<path stroke="transparent" fill="#000000" transform="matrix(0.0833333 0 0 0.0833333 -88.25 -179)" d="M 3914.15,4698.86 L 3924.72,4704.31 L 3924.75,4715.83 L 3414.65,5009.3 L 3394.65,4997.73 L 3914.15,4698.86 Z " />
<path stroke="transparent" fill="#000000" transform="matrix(0.0833333 0 0 0.0833333 -88.25 -179)" d="M 4441.92,5009.34 L 4461.92,4997.69 L 4461.92,5503.95 L 4441.92,5503.95 L 4441.92,5009.34 Z " />
<path stroke="transparent" fill="#000000" transform="matrix(0.0833333 0 0 0.0833333 -88.25 -179)" d="M 4461.92,4997.69 L 4441.92,5009.34 L 3924.75,4715.83 L 3924.72,4704.31 L 3935.29,4698.81 L 4461.92,4997.69 Z " />
<path stroke="transparent" fill="#000000" transform="matrix(0.0833333 0 0 0.0833333 -88.25 -179)" d="M 4982,4698.53 L 4962,4710.09 L 4962,4104.78 L 4972,4098.78 L 4982,4104.56 L 4982,4698.53 Z " />
<path stroke="transparent" fill="#000000" transform="matrix(0.0833333 0 0 0.0833333 -88.25 -179)" d="M 4962,4710.09 L 4982,4698.53 L 5492,4991.98 L 5492,5003.51 L 5482,5009.3 L 4962,4710.09 Z " />
<path stroke="transparent" fill="#000000" transform="matrix(0.0833333 0 0 0.0833333 -88.25 -179)" d="M 5039,4671.34 L 5048.98,4654.01 L 5496.99,4911.79 L 5487.02,4929.12 L 5039,4671.34 Z " />
<path stroke="transparent" fill="#000000" transform="matrix(0.0833333 0 0 0.0833333 -88.25 -179)" d="M 4895.27,4679.23 L 4955.11,4783.25 L 4936.76,4791.46 L 4878.95,4690.97 L 4895.27,4679.23 Z " />
<path stroke="transparent" fill="#000000" transform="matrix(0.0833333 0 0 0.0833333 -88.25 -179)" d="M 4847.12,4713.85 L 4900.98,4807.47 L 4882.63,4815.68 L 4830.8,4725.59 L 4847.12,4713.85 Z " />
<path stroke="transparent" fill="#000000" transform="matrix(0.0833333 0 0 0.0833333 -88.25 -179)" d="M 4798.97,4748.47 L 4846.85,4831.7 L 4828.5,4839.91 L 4782.65,4760.2 L 4798.97,4748.47 Z " />
<path stroke="transparent" fill="#000000" transform="matrix(0.0833333 0 0 0.0833333 -88.25 -179)" d="M 4750.82,4783.09 L 4792.72,4855.92 L 4774.37,4864.13 L 4734.5,4794.82 L 4750.82,4783.09 Z " />
<path stroke="transparent" fill="#000000" transform="matrix(0.0833333 0 0 0.0833333 -88.25 -179)" d="M 4702.67,4817.71 L 4738.59,4880.14 L 4720.24,4888.36 L 4686.35,4829.44 L 4702.67,4817.71 Z " />
<path stroke="transparent" fill="#000000" transform="matrix(0.0833333 0 0 0.0833333 -88.25 -179)" d="M 4654.52,4852.33 L 4684.46,4904.37 L 4666.11,4912.58 L 4638.2,4864.06 L 4654.52,4852.33 Z " />
<path stroke="transparent" fill="#000000" transform="matrix(0.0833333 0 0 0.0833333 -88.25 -179)" d="M 4606.37,4886.94 L 4630.33,4928.59 L 4611.98,4936.8 L 4590.04,4898.68 L 4606.37,4886.94 Z " />
<path stroke="transparent" fill="#000000" transform="matrix(0.0833333 0 0 0.0833333 -88.25 -179)" d="M 4558.22,4921.56 L 4576.2,4952.82 L 4557.85,4961.03 L 4541.89,4933.3 L 4558.22,4921.56 Z " />
<path stroke="transparent" fill="#000000" transform="matrix(0.0833333 0 0 0.0833333 -88.25 -179)" d="M 4510.07,4956.18 L 4522.07,4977.04 L 4503.72,4985.25 L 4493.74,4967.92 L 4510.07,4956.18 Z " />
<text x="0" y="0" stroke="transparent" fill="#000000" transform="matrix(0.0833333 0 0 0.0833333 4.16978 145.313)" style="font:normal normal normal 200px 'Arial'" >
HO</text>
<text x="0" y="0" stroke="transparent" fill="#000000" transform="matrix(0.0833333 0 0 0.0833333 177.528 394.666)" style="font:normal normal normal 200px 'Arial'" >
HO</text>
<text x="0" y="0" stroke="transparent" fill="#000000" transform="matrix(0.0833333 0 0 0.0833333 666.294 68.1373)" style="font:normal normal normal 200px 'Arial'" >
OH</text>
<text x="0" y="0" stroke="transparent" fill="#000000" transform="matrix(0.0833333 0 0 0.0833333 275.056 145.313)" style="font:normal normal normal 200px 'Arial'" >
O</text>
<text x="0" y="0" stroke="transparent" fill="#000000" transform="matrix(0.0833333 0 0 0.0833333 47.5094 68.1373)" style="font:normal normal normal 200px 'Arial'" >
HO</text>
<text x="0" y="0" stroke="transparent" fill="#000000" transform="matrix(0.0833333 0 0 0.0833333 134.189 319.86)" style="font:normal normal normal 200px 'Arial'" >
HO</text>
<text x="0" y="0" stroke="transparent" fill="#000000" transform="matrix(0.0833333 0 0 0.0833333 146.819 18.2643)" style="font:normal normal normal 200px 'Arial'" >
OH</text>
<text x="0" y="0" stroke="transparent" fill="#000000" transform="matrix(0.0833333 0 0 0.0833333 134.189 219.526)" style="font:normal normal normal 200px 'Arial'" >
HO</text>
<text x="0" y="0" stroke="transparent" fill="#000000" transform="matrix(0.0833333 0 0 0.0833333 232.904 68.7313)" style="font:normal normal normal 200px 'Arial'" >
OH</text>
<text x="0" y="0" stroke="transparent" fill="#000000" transform="matrix(0.0833333 0 0 0.0833333 362.917 293.738)" style="font:normal normal normal 200px 'Arial'" >
OH</text>
<text x="0" y="0" stroke="transparent" fill="#000000" transform="matrix(0.0833333 0 0 0.0833333 449.596 293.738)" style="font:normal normal normal 200px 'Arial'" >
O</text>
<text x="0" y="0" stroke="transparent" fill="#000000" transform="matrix(0.0833333 0 0 0.0833333 146.225 169.659)" style="font:normal normal normal 200px 'Arial'" >
O</text>
<text x="0" y="0" stroke="transparent" fill="#000000" transform="matrix(0.0833333 0 0 0.0833333 449.596 144.126)" style="font:normal normal normal 200px 'Arial'" >
O</text>
<text x="0" y="0" stroke="transparent" fill="#000000" transform="matrix(0.0833333 0 0 0.0833333 232.31 169.659)" style="font:normal normal normal 200px 'Arial'" >
O</text>
<text x="0" y="0" stroke="transparent" fill="#000000" transform="matrix(0.0833333 0 0 0.0833333 276.244 294.926)" style="font:normal normal normal 200px 'Arial'" >
O</text>
</svg>
