<?xml version="1.0" standalone="no" ?>
<!DOCTYPE svg PUBLIC "-//W3C//DTD SVG 1.1//EN" "http://www.w3.org/Graphics/SVG/1.1/DTD/svg11.dtd">
<svg width="323px" height="384px" viewBox="0 0 323 384" style="background-color: #ffffff00" xmlns="http://www.w3.org/2000/svg" xmlns:xlink="http://www.w3.org/1999/xlink" version="1.1" >
<text x="0" y="0" stroke="transparent" fill="#000000" transform="matrix(0.0833333 0 0 0.0833333 3.54982 236.781)" style="font:normal normal normal 200px 'Arial'" >
O</text>
<text x="0" y="0" stroke="transparent" fill="#000000" transform="matrix(0.0833333 0 0 0.0833333 90.1536 236.782)" style="font:normal normal normal 200px 'Arial'" >
O</text>
<text x="0" y="0" stroke="transparent" fill="#000000" transform="matrix(0.0833333 0 0 0.0833333 176.757 186.783)" style="font:normal normal normal 200px 'Arial'" >
O</text>
<text x="0" y="0" stroke="transparent" fill="#000000" transform="matrix(0.0833333 0 0 0.0833333 133.456 261.782)" style="font:normal normal normal 200px 'Arial'" >
O</text>
<text x="0" y="0" stroke="transparent" fill="#000000" transform="matrix(0.0833333 0 0 0.0833333 306.663 111.782)" style="font:normal normal normal 200px 'Arial'" >
O</text>
<text x="0" y="0" stroke="transparent" fill="#000000" transform="matrix(0.0833333 0 0 0.0833333 220.059 111.781)" style="font:normal normal normal 200px 'Arial'" >
O</text>
<text x="0" y="0" stroke="transparent" fill="#000000" transform="matrix(0.0833333 0 0 0.0833333 46.8501 111.781)" style="font:normal normal normal 200px 'Arial'" >
O</text>
<path stroke="transparent" fill="#000000" transform="matrix(0.0833333 0 0 0.0833333 -279.208 -173)" d="M 4500.34,6045.19 L 4520.34,6033.64 L 4520.35,6639.42 L 4500.35,6639.42 L 4500.34,6045.19 Z " />
<path stroke="transparent" fill="#000000" transform="matrix(0.0833333 0 0 0.0833333 -279.208 -173)" d="M 3990.71,5750.96 L 3990.71,5739.41 L 4000.71,5733.64 L 4520.34,6033.64 L 4500.34,6045.19 L 3990.71,5750.96 Z " />
<path stroke="transparent" fill="#000000" transform="matrix(0.0833333 0 0 0.0833333 -279.208 -173)" d="M 3985.71,5831.21 L 3995.71,5813.89 L 4443.34,6072.33 L 4433.34,6089.65 L 3985.71,5831.21 Z " />
<path stroke="transparent" fill="#000000" transform="matrix(0.0833333 0 0 0.0833333 -279.208 -173)" d="M 3476.09,6048.06 L 3466.09,6030.74 L 3980.71,5733.64 L 3990.71,5739.41 L 3990.71,5750.96 L 3476.09,6048.06 Z " />
<path stroke="transparent" fill="#000000" transform="matrix(0.0833333 0 0 0.0833333 -279.208 -173)" d="M 3980.72,5133.6 L 4000.72,5145.15 L 4000.71,5733.64 L 3990.71,5739.41 L 3980.71,5733.64 L 3980.72,5133.6 Z " />
<path stroke="transparent" fill="#000000" transform="matrix(0.0833333 0 0 0.0833333 -279.208 -173)" d="M 3548.13,4936.96 L 3558.13,4919.64 L 3995.72,5172.29 L 3985.72,5189.61 L 3548.13,4936.96 Z " />
<path stroke="transparent" fill="#000000" transform="matrix(0.0833333 0 0 0.0833333 -279.208 -173)" d="M 3584.13,4874.61 L 3594.13,4857.29 L 4031.73,5109.93 L 4021.73,5127.25 L 3584.13,4874.61 Z " />
<path stroke="transparent" fill="#000000" transform="matrix(0.0833333 0 0 0.0833333 -279.208 -173)" d="M 4405.74,4888.23 L 4415.74,4905.55 L 4000.72,5145.15 L 3980.72,5133.6 L 4405.74,4888.23 Z " />
<path stroke="transparent" fill="#000000" transform="matrix(0.0833333 0 0 0.0833333 -279.208 -173)" d="M 4500.34,4245.16 L 4510.34,4239.38 L 4520.34,4245.16 L 4520.34,4734.22 L 4500.34,4734.22 L 4500.34,4245.16 Z " />
<path stroke="transparent" fill="#000000" transform="matrix(0.0833333 0 0 0.0833333 -279.208 -173)" d="M 5019.95,3933.62 L 5029.95,3939.39 L 5029.95,3950.94 L 4520.34,4245.16 L 4510.34,4239.38 L 4510.34,4227.84 L 5019.95,3933.62 Z " />
<path stroke="transparent" fill="#000000" transform="matrix(0.0833333 0 0 0.0833333 -279.208 -173)" d="M 5461.96,4177.26 L 5451.96,4194.58 L 5029.95,3950.94 L 5029.95,3939.39 L 5039.95,3933.62 L 5461.96,4177.26 Z " />
<path stroke="transparent" fill="#000000" transform="matrix(0.0833333 0 0 0.0833333 -279.208 -173)" d="M 5559.59,4833.62 L 5539.59,4845.17 L 5539.58,4359.23 L 5559.58,4359.23 L 5559.59,4833.62 Z " />
<path stroke="transparent" fill="#000000" transform="matrix(0.0833333 0 0 0.0833333 -279.208 -173)" d="M 5145.59,5125.75 L 5135.59,5108.43 L 5580.59,4851.52 L 5590.59,4868.84 L 5145.59,5125.75 Z " />
<path stroke="transparent" fill="#000000" transform="matrix(0.0833333 0 0 0.0833333 -279.208 -173)" d="M 5109.59,5063.4 L 5099.59,5046.08 L 5544.59,4789.17 L 5554.59,4806.49 L 5109.59,5063.4 Z " />
<path stroke="transparent" fill="#000000" transform="matrix(0.0833333 0 0 0.0833333 -279.208 -173)" d="M 6079.21,5133.63 L 6059.21,5145.18 L 5539.59,4845.17 L 5559.59,4833.62 L 6079.21,5133.63 Z " />
<path stroke="transparent" fill="#000000" transform="matrix(0.0833333 0 0 0.0833333 -279.208 -173)" d="M 6079.22,5733.63 L 6069.22,5739.4 L 6059.22,5733.63 L 6059.21,5145.18 L 6079.21,5133.63 L 6079.22,5733.63 Z " />
<path stroke="transparent" fill="#000000" transform="matrix(0.0833333 0 0 0.0833333 -279.208 -173)" d="M 5554.6,6048.06 L 5544.6,6030.74 L 6059.22,5733.63 L 6069.22,5739.4 L 6069.22,5750.95 L 5554.6,6048.06 Z " />
<path stroke="transparent" fill="#000000" transform="matrix(0.0833333 0 0 0.0833333 -279.208 -173)" d="M 6593.85,6030.75 L 6583.85,6048.07 L 6069.22,5750.95 L 6069.22,5739.4 L 6079.22,5733.63 L 6593.85,6030.75 Z " />
<path stroke="transparent" fill="#000000" transform="matrix(0.0833333 0 0 0.0833333 -279.208 -173)" d="M 5019.95,3345.16 L 5029.95,3339.39 L 5039.95,3345.16 L 5039.95,3933.62 L 5029.95,3939.39 L 5019.95,3933.62 L 5019.95,3345.16 Z " />
<path stroke="transparent" fill="#000000" transform="matrix(0.0833333 0 0 0.0833333 -279.208 -173)" d="M 4510.32,3050.93 L 4510.32,3039.38 L 4520.32,3033.61 L 5029.95,3327.84 L 5029.95,3339.39 L 5019.95,3345.16 L 4510.32,3050.93 Z " />
<path stroke="transparent" fill="#000000" transform="matrix(0.0833333 0 0 0.0833333 -279.208 -173)" d="M 4577.32,3006.47 L 4587.32,2989.15 L 5034.95,3247.59 L 5024.95,3264.91 L 4577.32,3006.47 Z " />
<path stroke="transparent" fill="#000000" transform="matrix(0.0833333 0 0 0.0833333 -279.208 -173)" d="M 4500.33,2433.58 L 4520.33,2445.12 L 4520.32,3033.61 L 4510.32,3039.38 L 4500.32,3033.61 L 4500.33,2433.58 Z " />
<path stroke="transparent" fill="#000000" transform="matrix(0.0833333 0 0 0.0833333 -279.208 -173)" d="M 5029.95,2127.81 L 5029.95,2150.9 L 4520.33,2445.12 L 4500.33,2433.58 L 5029.95,2127.81 Z " />
<path stroke="transparent" fill="#000000" transform="matrix(0.0833333 0 0 0.0833333 -279.208 -173)" d="M 5024.95,2213.83 L 5034.95,2231.15 L 4587.33,2489.58 L 4577.33,2472.26 L 5024.95,2213.83 Z " />
<path stroke="transparent" fill="#000000" transform="matrix(0.0833333 0 0 0.0833333 -279.208 -173)" d="M 5549.58,2427.81 L 5549.58,2439.36 L 5539.58,2445.14 L 5029.95,2150.9 L 5029.95,2127.81 L 5549.58,2427.81 Z " />
<path stroke="transparent" fill="#000000" transform="matrix(0.0833333 0 0 0.0833333 -279.208 -173)" d="M 6069.2,2127.82 L 6069.2,2150.92 L 5559.58,2445.14 L 5549.58,2439.36 L 5549.58,2427.81 L 6069.2,2127.82 Z " />
<path stroke="transparent" fill="#000000" transform="matrix(0.0833333 0 0 0.0833333 -279.208 -173)" d="M 6598.82,2433.6 L 6578.82,2445.15 L 6069.2,2150.92 L 6069.2,2127.82 L 6598.82,2433.6 Z " />
<path stroke="transparent" fill="#000000" transform="matrix(0.0833333 0 0 0.0833333 -279.208 -173)" d="M 6521.82,2472.29 L 6511.82,2489.61 L 6064.2,2231.17 L 6074.2,2213.85 L 6521.82,2472.29 Z " />
<path stroke="transparent" fill="#000000" transform="matrix(0.0833333 0 0 0.0833333 -279.208 -173)" d="M 6598.83,3045.15 L 6578.83,3033.6 L 6578.82,2445.15 L 6598.82,2433.6 L 6598.83,3045.15 Z " />
<path stroke="transparent" fill="#000000" transform="matrix(0.0833333 0 0 0.0833333 -279.208 -173)" d="M 7038.84,3246.07 L 7028.84,3263.39 L 6583.83,3006.46 L 6593.83,2989.14 L 7038.84,3246.07 Z " />
<path stroke="transparent" fill="#000000" transform="matrix(0.0833333 0 0 0.0833333 -279.208 -173)" d="M 7002.84,3308.43 L 6992.84,3325.75 L 6547.83,3068.82 L 6557.83,3051.5 L 7002.84,3308.43 Z " />
<path stroke="transparent" fill="#000000" transform="matrix(0.0833333 0 0 0.0833333 -279.208 -173)" d="M 6166.83,3294.56 L 6156.83,3277.24 L 6578.83,3033.6 L 6598.83,3045.15 L 6166.83,3294.56 Z " />
<path stroke="transparent" fill="#000000" transform="matrix(0.0833333 0 0 0.0833333 -279.208 -173)" d="M 5549.59,3050.91 L 5549.59,3039.36 L 5559.59,3033.59 L 5981.59,3277.23 L 5971.59,3294.56 L 5549.59,3050.91 Z " />
<path stroke="transparent" fill="#000000" transform="matrix(0.0833333 0 0 0.0833333 -279.208 -173)" d="M 5539.59,3033.59 L 5549.59,3039.36 L 5549.59,3050.91 L 5039.95,3345.16 L 5029.95,3339.39 L 5029.95,3327.84 L 5539.59,3033.59 Z " />
<path stroke="transparent" fill="#000000" transform="matrix(0.0833333 0 0 0.0833333 -279.208 -173)" d="M 5559.59,3033.59 L 5549.59,3039.36 L 5539.59,3033.59 L 5539.58,2445.14 L 5549.58,2439.36 L 5559.58,2445.14 L 5559.59,3033.59 Z " />
<path stroke="transparent" fill="#000000" transform="matrix(0.0833333 0 0 0.0833333 -279.208 -173)" d="M 5487.59,2997.79 L 5467.59,2997.79 L 5467.58,2480.93 L 5487.58,2480.93 L 5487.59,2997.79 Z " />
<path stroke="transparent" fill="#000000" transform="matrix(0.0833333 0 0 0.0833333 -279.208 -173)" d="M 4088.32,3294.56 L 4078.32,3277.24 L 4500.32,3033.61 L 4510.32,3039.38 L 4510.32,3050.93 L 4088.32,3294.56 Z " />
<path stroke="transparent" fill="#000000" transform="matrix(0.0833333 0 0 0.0833333 -279.208 -173)" d="M 4000.71,3933.6 L 3990.71,3939.38 L 3980.71,3929.38 L 3980.7,3459.21 L 4000.7,3459.21 L 4000.71,3933.6 Z " />
<path stroke="transparent" fill="#000000" transform="matrix(0.0833333 0 0 0.0833333 -279.208 -173)" d="M 3994.37,3953.04 L 3990.71,3939.38 L 4000.71,3933.6 L 4510.34,4227.84 L 4510.34,4239.38 L 4500.34,4245.16 L 3994.37,3953.04 Z " />
<path stroke="transparent" fill="#000000" transform="matrix(0.0833333 0 0 0.0833333 -279.208 -173)" d="M 3390.73,3949.35 L 3390.73,3929.35 L 3980.71,3929.38 L 3990.71,3939.38 L 3973.39,3949.38 L 3390.73,3949.35 Z " />
<path stroke="transparent" fill="#000000" transform="matrix(0.0833333 0 0 0.0833333 -279.208 -173)" d="M 3699.42,4463.99 L 3682.1,4453.99 L 3973.39,3949.38 L 3990.71,3939.38 L 3994.37,3953.04 L 3699.42,4463.99 Z " />
</svg>
