<?xml version="1.0" standalone="no" ?>
<!DOCTYPE svg PUBLIC "-//W3C//DTD SVG 1.1//EN" "http://www.w3.org/Graphics/SVG/1.1/DTD/svg11.dtd">
<svg width="243px" height="152px" viewBox="0 0 243 152" style="background-color: #ffffff00" xmlns="http://www.w3.org/2000/svg" xmlns:xlink="http://www.w3.org/1999/xlink" version="1.1" >
<text x="0" y="0" stroke="transparent" fill="#000000" transform="matrix(0.0666667 0 0 0.0666667 95.3827 133.279)" style="font:normal normal normal 200px 'Arial'" >
O</text>
<text x="0" y="0" stroke="transparent" fill="#000000" transform="matrix(0.0666667 0 0 0.0666667 22.7 20.9159)" style="font:normal normal normal 200px 'Arial'" >
O</text>
<text x="0" y="0" stroke="transparent" fill="#000000" transform="matrix(0.0666667 0 0 0.0666667 22.7 85.6386)" style="font:normal normal normal 200px 'Arial'" >
O</text>
<path stroke="transparent" fill="#000000" transform="matrix(0.0666667 0 0 0.0666667 -227.359 -237)" d="M 6477.92,3987.73 L 6477.92,3964.63 L 6992.56,3667.52 L 7002.56,3684.84 L 6477.92,3987.73 Z " />
<path stroke="transparent" fill="#000000" transform="matrix(0.0666667 0 0 0.0666667 -227.359 -237)" d="M 6482.92,3901.7 L 6472.92,3884.38 L 6956.56,3605.16 L 6966.56,3622.48 L 6482.92,3901.7 Z " />
<path stroke="transparent" fill="#000000" transform="matrix(0.0666667 0 0 0.0666667 -227.359 -237)" d="M 5958.32,3687.73 L 5958.32,3664.63 L 6477.92,3964.63 L 6477.92,3987.73 L 5958.32,3687.73 Z " />
<path stroke="transparent" fill="#000000" transform="matrix(0.0666667 0 0 0.0666667 -227.359 -237)" d="M 5448.72,3981.95 L 5438.72,3976.18 L 5438.72,3964.63 L 5958.32,3664.63 L 5958.32,3687.73 L 5448.72,3981.95 Z " />
<path stroke="transparent" fill="#000000" transform="matrix(0.0666667 0 0 0.0666667 -227.359 -237)" d="M 5448.72,4581.95 L 5428.72,4570.41 L 5428.72,3981.95 L 5438.72,3976.18 L 5448.72,3981.95 L 5448.72,4581.95 Z " />
<path stroke="transparent" fill="#000000" transform="matrix(0.0666667 0 0 0.0666667 -227.359 -237)" d="M 5376.72,4534.61 L 5356.72,4534.61 L 5356.72,4017.75 L 5376.72,4017.75 L 5376.72,4534.61 Z " />
<path stroke="transparent" fill="#000000" transform="matrix(0.0666667 0 0 0.0666667 -227.359 -237)" d="M 4929.12,4881.95 L 4919.12,4876.18 L 4919.12,4864.63 L 5428.72,4570.41 L 5448.72,4581.95 L 4929.12,4881.95 Z " />
<path stroke="transparent" fill="#000000" transform="matrix(0.0666667 0 0 0.0666667 -227.359 -237)" d="M 4929.12,5371.01 L 4909.12,5371.01 L 4909.12,4881.95 L 4919.12,4876.18 L 4929.12,4881.95 L 4929.12,5371.01 Z " />
<path stroke="transparent" fill="#000000" transform="matrix(0.0666667 0 0 0.0666667 -227.359 -237)" d="M 5443.72,5767.52 L 5433.72,5784.84 L 5014.16,5542.6 L 5024.16,5525.28 L 5443.72,5767.52 Z " />
<path stroke="transparent" fill="#000000" transform="matrix(0.0666667 0 0 0.0666667 -227.359 -237)" d="M 4398.38,4587.02 L 4399.52,4576.14 L 4409.52,4570.37 L 4919.12,4864.63 L 4919.12,4876.18 L 4909.12,4881.95 L 4398.38,4587.02 Z " />
<path stroke="transparent" fill="#000000" transform="matrix(0.0666667 0 0 0.0666667 -227.359 -237)" d="M 4466.52,4543.23 L 4476.52,4525.91 L 4924.12,4784.38 L 4914.12,4801.7 L 4466.52,4543.23 Z " />
<path stroke="transparent" fill="#000000" transform="matrix(0.0666667 0 0 0.0666667 -227.359 -237)" d="M 4389.52,3983.4 L 4399.52,3976.14 L 4409.52,3981.91 L 4409.52,4570.37 L 4399.52,4576.14 L 4389.52,4568.87 L 4389.52,3983.4 Z " />
<path stroke="transparent" fill="#000000" transform="matrix(0.0666667 0 0 0.0666667 -227.359 -237)" d="M 4919.12,3664.63 L 4919.12,3687.73 L 4409.52,3981.91 L 4399.52,3976.14 L 4398.38,3965.25 L 4919.12,3664.63 Z " />
<path stroke="transparent" fill="#000000" transform="matrix(0.0666667 0 0 0.0666667 -227.359 -237)" d="M 4914.12,3750.65 L 4924.12,3767.97 L 4476.52,4026.37 L 4466.52,4009.05 L 4914.12,3750.65 Z " />
<path stroke="transparent" fill="#000000" transform="matrix(0.0666667 0 0 0.0666667 -227.359 -237)" d="M 4919.12,3687.73 L 4919.12,3664.63 L 5438.72,3964.63 L 5438.72,3976.18 L 5428.72,3981.95 L 4919.12,3687.73 Z " />
<path stroke="transparent" fill="#000000" transform="matrix(0.0666667 0 0 0.0666667 -227.359 -237)" d="M 3932.59,3834.95 L 3938.77,3815.93 L 4398.38,3965.25 L 4399.52,3976.14 L 4389.52,3983.4 L 3932.59,3834.95 Z " />
<path stroke="transparent" fill="#000000" transform="matrix(0.0666667 0 0 0.0666667 -227.359 -237)" d="M 3488.56,4276.14 L 3463.84,4276.14 L 3750.25,3881.95 L 3766.43,3893.7 L 3488.56,4276.14 Z " />
<path stroke="transparent" fill="#000000" transform="matrix(0.0666667 0 0 0.0666667 -227.359 -237)" d="M 3774.23,4669.34 L 3758.05,4681.1 L 3463.84,4276.14 L 3488.56,4276.14 L 3774.23,4669.34 Z " />
<path stroke="transparent" fill="#000000" transform="matrix(0.0666667 0 0 0.0666667 -227.359 -237)" d="M 3933.83,4737.99 L 3927.65,4718.97 L 4389.52,4568.87 L 4399.52,4576.14 L 4398.38,4587.02 L 3933.83,4737.99 Z " />
</svg>
