<?xml version="1.0" standalone="no" ?>
<!DOCTYPE svg PUBLIC "-//W3C//DTD SVG 1.1//EN" "http://www.w3.org/Graphics/SVG/1.1/DTD/svg11.dtd">
<svg width="477px" height="197px" viewBox="0 0 477 197" style="background-color: #ffffff00" xmlns="http://www.w3.org/2000/svg" xmlns:xlink="http://www.w3.org/1999/xlink" version="1.1" >
<text x="0" y="0" stroke="transparent" fill="#000000" transform="matrix(0.0833333 0 0 0.0833333 448.387 193.021)" style="font:normal normal normal 200px 'Arial'" >
OH</text>
<text x="0" y="0" stroke="transparent" fill="#000000" transform="matrix(0.0833333 0 0 0.0833333 231.884 18.0218)" style="font:normal normal normal 200px 'Arial'" >
O</text>
<text x="0" y="0" stroke="transparent" fill="#000000" transform="matrix(0.0833333 0 0 0.0833333 145.278 18.0185)" style="font:normal normal normal 200px 'Arial'" >
O</text>
<text x="0" y="0" stroke="transparent" fill="#000000" transform="matrix(0.0833333 0 0 0.0833333 3.33596 43.0202)" style="font:normal normal normal 200px 'Arial'" >
HO</text>
<text x="0" y="0" stroke="transparent" fill="#000000" transform="matrix(0.0833333 0 0 0.0833333 46.6394 118.024)" style="font:normal normal normal 200px 'Arial'" >
HO</text>
<text x="0" y="0" stroke="transparent" fill="#000000" transform="matrix(0.0833333 0 0 0.0833333 145.279 168.023)" style="font:normal normal normal 200px 'Arial'" >
OH</text>
<text x="0" y="0" stroke="transparent" fill="#000000" transform="matrix(0.0833333 0 0 0.0833333 231.883 118.022)" style="font:normal normal normal 200px 'Arial'" >
OH</text>
<path stroke="transparent" fill="#000000" transform="matrix(0.0833333 0 0 0.0833333 -194.208 -243)" d="M 7259.53,4860.04 L 7279.53,4848.49 L 7701.53,5092.13 L 7691.53,5109.45 L 7259.53,4860.04 Z " />
<path stroke="transparent" fill="#000000" transform="matrix(0.0833333 0 0 0.0833333 -194.208 -243)" d="M 7259.54,4260.04 L 7279.54,4248.49 L 7279.53,4848.49 L 7259.53,4860.04 L 7259.54,4260.04 Z " />
<path stroke="transparent" fill="#000000" transform="matrix(0.0833333 0 0 0.0833333 -194.208 -243)" d="M 6749.92,3965.82 L 6749.92,3954.27 L 6759.92,3948.5 L 7279.54,4248.49 L 7259.54,4260.04 L 6749.92,3965.82 Z " />
<path stroke="transparent" fill="#000000" transform="matrix(0.0833333 0 0 0.0833333 -194.208 -243)" d="M 6739.92,3360.04 L 6759.92,3348.5 L 6759.92,3948.5 L 6749.92,3954.27 L 6739.92,3948.5 L 6739.92,3360.04 Z " />
<path stroke="transparent" fill="#000000" transform="matrix(0.0833333 0 0 0.0833333 -194.208 -243)" d="M 6667.92,3395.84 L 6687.92,3395.84 L 6687.92,3912.7 L 6667.92,3912.7 L 6667.92,3395.84 Z " />
<path stroke="transparent" fill="#000000" transform="matrix(0.0833333 0 0 0.0833333 -194.208 -243)" d="M 6230.36,3065.8 L 6230.36,3042.7 L 6759.92,3348.5 L 6739.92,3360.04 L 6230.36,3065.8 Z " />
<path stroke="transparent" fill="#000000" transform="matrix(0.0833333 0 0 0.0833333 -194.208 -243)" d="M 5720.73,3360.03 L 5710.73,3354.25 L 5710.73,3342.71 L 6230.36,3042.7 L 6230.36,3065.8 L 5720.73,3360.03 Z " />
<path stroke="transparent" fill="#000000" transform="matrix(0.0833333 0 0 0.0833333 -194.208 -243)" d="M 5787.73,3404.49 L 5777.73,3387.16 L 6225.36,3128.73 L 6235.36,3146.05 L 5787.73,3404.49 Z " />
<path stroke="transparent" fill="#000000" transform="matrix(0.0833333 0 0 0.0833333 -194.208 -243)" d="M 5286.15,3120.68 L 5296.15,3103.36 L 5710.73,3342.71 L 5710.73,3354.25 L 5700.73,3360.03 L 5286.15,3120.68 Z " />
<path stroke="transparent" fill="#000000" transform="matrix(0.0833333 0 0 0.0833333 -194.208 -243)" d="M 5061.51,3059.81 L 5121.51,3163.73 L 4681.49,3360.69 L 4671.49,3354.27 L 4670.92,3342.4 L 5061.51,3059.81 Z " />
<path stroke="transparent" fill="#000000" transform="matrix(0.0833333 0 0 0.0833333 -194.208 -243)" d="M 4246.87,3120.64 L 4256.87,3103.32 L 4670.92,3342.4 L 4671.49,3354.27 L 4661.49,3360.04 L 4246.87,3120.64 Z " />
<path stroke="transparent" fill="#000000" transform="matrix(0.0833333 0 0 0.0833333 -194.208 -243)" d="M 4047.23,3103.07 L 4057.23,3120.39 L 3642.21,3360 L 3632.21,3354.23 L 3632.67,3342.42 L 4047.23,3103.07 Z " />
<path stroke="transparent" fill="#000000" transform="matrix(0.0833333 0 0 0.0833333 -194.208 -243)" d="M 3060.57,3095.82 L 3160.76,3014.88 L 3632.67,3342.42 L 3632.21,3354.23 L 3622.21,3360.53 L 3060.57,3095.82 Z " />
<path stroke="transparent" fill="#000000" transform="matrix(0.0833333 0 0 0.0833333 -194.208 -243)" d="M 2690.58,3309.43 L 2680.58,3292.11 L 3160.76,3014.88 L 3060.57,3095.82 L 2690.58,3309.43 Z " />
<path stroke="transparent" fill="#000000" transform="matrix(0.0833333 0 0 0.0833333 -194.208 -243)" d="M 3622.21,3360.53 L 3632.21,3354.23 L 3642.21,3360 L 3642.23,3948.51 L 3622.23,3960.05 L 3622.21,3360.53 Z " />
<path stroke="transparent" fill="#000000" transform="matrix(0.0833333 0 0 0.0833333 -194.208 -243)" d="M 3235.22,4252.78 L 3175.22,4148.86 L 3193.68,4140.83 L 3251.4,4240.81 L 3235.22,4252.78 Z " />
<path stroke="transparent" fill="#000000" transform="matrix(0.0833333 0 0 0.0833333 -194.208 -243)" d="M 3283.65,4216.94 L 3230.47,4124.83 L 3248.93,4116.8 L 3299.84,4204.97 L 3283.65,4216.94 Z " />
<path stroke="transparent" fill="#000000" transform="matrix(0.0833333 0 0 0.0833333 -194.208 -243)" d="M 3332.09,4181.1 L 3285.73,4100.8 L 3304.19,4092.77 L 3348.27,4169.13 L 3332.09,4181.1 Z " />
<path stroke="transparent" fill="#000000" transform="matrix(0.0833333 0 0 0.0833333 -194.208 -243)" d="M 3380.53,4145.27 L 3340.98,4076.77 L 3359.44,4068.74 L 3396.71,4133.3 L 3380.53,4145.27 Z " />
<path stroke="transparent" fill="#000000" transform="matrix(0.0833333 0 0 0.0833333 -194.208 -243)" d="M 3428.97,4109.43 L 3396.24,4052.74 L 3414.7,4044.71 L 3445.15,4097.46 L 3428.97,4109.43 Z " />
<path stroke="transparent" fill="#000000" transform="matrix(0.0833333 0 0 0.0833333 -194.208 -243)" d="M 3477.4,4073.59 L 3451.49,4028.71 L 3469.95,4020.68 L 3493.59,4061.62 L 3477.4,4073.59 Z " />
<path stroke="transparent" fill="#000000" transform="matrix(0.0833333 0 0 0.0833333 -194.208 -243)" d="M 3525.84,4037.75 L 3506.75,4004.68 L 3525.21,3996.65 L 3542.02,4025.78 L 3525.84,4037.75 Z " />
<path stroke="transparent" fill="#000000" transform="matrix(0.0833333 0 0 0.0833333 -194.208 -243)" d="M 3574.28,4001.92 L 3562,3980.65 L 3580.46,3972.62 L 3590.46,3989.94 L 3574.28,4001.92 Z " />
<path stroke="transparent" fill="#000000" transform="matrix(0.0833333 0 0 0.0833333 -194.208 -243)" d="M 3622.23,3960.05 L 3642.23,3948.51 L 4151.85,4242.73 L 4151.85,4254.27 L 4141.3,4259.73 L 3622.23,3960.05 Z " />
<path stroke="transparent" fill="#000000" transform="matrix(0.0833333 0 0 0.0833333 -194.208 -243)" d="M 4211.85,4749.11 L 4091.85,4749.11 L 4141.3,4259.73 L 4151.85,4254.27 L 4162.4,4259.73 L 4211.85,4749.11 Z " />
<path stroke="transparent" fill="#000000" transform="matrix(0.0833333 0 0 0.0833333 -194.208 -243)" d="M 4162.4,4259.73 L 4151.85,4254.27 L 4151.85,4242.73 L 4661.48,3948.49 L 4681.48,3960.04 L 4162.4,4259.73 Z " />
<path stroke="transparent" fill="#000000" transform="matrix(0.0833333 0 0 0.0833333 -194.208 -243)" d="M 4681.48,3960.04 L 4661.48,3948.49 L 4661.49,3360.04 L 4671.49,3354.27 L 4681.49,3360.69 L 4681.48,3960.04 Z " />
<path stroke="transparent" fill="#000000" transform="matrix(0.0833333 0 0 0.0833333 -194.208 -243)" d="M 5128.48,4148.83 L 5068.48,4252.75 L 5052.3,4240.78 L 5110.02,4140.8 L 5128.48,4148.83 Z " />
<path stroke="transparent" fill="#000000" transform="matrix(0.0833333 0 0 0.0833333 -194.208 -243)" d="M 5073.22,4124.8 L 5020.04,4216.92 L 5003.86,4204.94 L 5054.77,4116.77 L 5073.22,4124.8 Z " />
<path stroke="transparent" fill="#000000" transform="matrix(0.0833333 0 0 0.0833333 -194.208 -243)" d="M 5017.97,4100.77 L 4971.61,4181.08 L 4955.43,4169.11 L 4999.51,4092.75 L 5017.97,4100.77 Z " />
<path stroke="transparent" fill="#000000" transform="matrix(0.0833333 0 0 0.0833333 -194.208 -243)" d="M 4962.72,4076.75 L 4923.17,4145.24 L 4906.99,4133.27 L 4944.26,4068.72 L 4962.72,4076.75 Z " />
<path stroke="transparent" fill="#000000" transform="matrix(0.0833333 0 0 0.0833333 -194.208 -243)" d="M 4907.47,4052.72 L 4874.74,4109.41 L 4858.56,4097.44 L 4889.01,4044.69 L 4907.47,4052.72 Z " />
<path stroke="transparent" fill="#000000" transform="matrix(0.0833333 0 0 0.0833333 -194.208 -243)" d="M 4852.21,4028.69 L 4826.3,4073.57 L 4810.12,4061.6 L 4833.75,4020.66 L 4852.21,4028.69 Z " />
<path stroke="transparent" fill="#000000" transform="matrix(0.0833333 0 0 0.0833333 -194.208 -243)" d="M 4796.96,4004.66 L 4777.87,4037.74 L 4761.68,4025.77 L 4778.5,3996.64 L 4796.96,4004.66 Z " />
<path stroke="transparent" fill="#000000" transform="matrix(0.0833333 0 0 0.0833333 -194.208 -243)" d="M 4741.71,3980.64 L 4729.43,4001.9 L 4713.25,3989.93 L 4723.25,3972.61 L 4741.71,3980.64 Z " />
<path stroke="transparent" fill="#000000" transform="matrix(0.0833333 0 0 0.0833333 -194.208 -243)" d="M 5720.72,3948.48 L 5700.72,3960.03 L 5700.73,3360.03 L 5710.73,3354.25 L 5720.73,3360.03 L 5720.72,3948.48 Z " />
<path stroke="transparent" fill="#000000" transform="matrix(0.0833333 0 0 0.0833333 -194.208 -243)" d="M 6230.34,4242.7 L 6230.34,4265.79 L 5700.72,3960.03 L 5720.72,3948.48 L 6230.34,4242.7 Z " />
<path stroke="transparent" fill="#000000" transform="matrix(0.0833333 0 0 0.0833333 -194.208 -243)" d="M 6235.34,4162.45 L 6225.34,4179.77 L 5777.72,3921.35 L 5787.72,3904.02 L 6235.34,4162.45 Z " />
<path stroke="transparent" fill="#000000" transform="matrix(0.0833333 0 0 0.0833333 -194.208 -243)" d="M 6230.34,4265.79 L 6230.34,4242.7 L 6739.92,3948.5 L 6749.92,3954.27 L 6749.92,3965.82 L 6230.34,4265.79 Z " />
</svg>
