<?xml version="1.0" standalone="no" ?>
<!DOCTYPE svg PUBLIC "-//W3C//DTD SVG 1.1//EN" "http://www.w3.org/Graphics/SVG/1.1/DTD/svg11.dtd">
<svg width="400px" height="470px" viewBox="0 0 400 470" style="background-color: #ffffff00" xmlns="http://www.w3.org/2000/svg" xmlns:xlink="http://www.w3.org/1999/xlink" version="1.1" >
<path stroke="transparent" fill="#000000" transform="matrix(0.0833333 0 0 0.0833333 -223.208 -134)" d="M 6005.78,6334.16 L 5907.56,6403.11 L 5897.33,6385.86 L 5993.03,6318.68 L 6005.78,6334.16 Z " />
<path stroke="transparent" fill="#000000" transform="matrix(0.0833333 0 0 0.0833333 -223.208 -134)" d="M 5969.28,6289.83 L 5878.27,6353.72 L 5868.04,6336.46 L 5956.53,6274.35 L 5969.28,6289.83 Z " />
<path stroke="transparent" fill="#000000" transform="matrix(0.0833333 0 0 0.0833333 -223.208 -134)" d="M 5932.78,6245.5 L 5848.98,6304.33 L 5838.75,6287.07 L 5920.03,6230.02 L 5932.78,6245.5 Z " />
<path stroke="transparent" fill="#000000" transform="matrix(0.0833333 0 0 0.0833333 -223.208 -134)" d="M 5896.28,6201.18 L 5819.7,6254.93 L 5809.46,6237.68 L 5883.53,6185.69 L 5896.28,6201.18 Z " />
<path stroke="transparent" fill="#000000" transform="matrix(0.0833333 0 0 0.0833333 -223.208 -134)" d="M 5859.78,6156.85 L 5790.41,6205.54 L 5780.17,6188.29 L 5847.02,6141.36 L 5859.78,6156.85 Z " />
<path stroke="transparent" fill="#000000" transform="matrix(0.0833333 0 0 0.0833333 -223.208 -134)" d="M 5823.27,6112.52 L 5761.12,6156.15 L 5750.88,6138.9 L 5810.52,6097.03 L 5823.27,6112.52 Z " />
<path stroke="transparent" fill="#000000" transform="matrix(0.0833333 0 0 0.0833333 -223.208 -134)" d="M 5786.77,6068.19 L 5731.83,6106.76 L 5721.6,6089.51 L 5774.02,6052.7 L 5786.77,6068.19 Z " />
<path stroke="transparent" fill="#000000" transform="matrix(0.0833333 0 0 0.0833333 -223.208 -134)" d="M 5750.27,6023.86 L 5702.54,6057.37 L 5692.31,6040.11 L 5737.52,6008.37 L 5750.27,6023.86 Z " />
<path stroke="transparent" fill="#000000" transform="matrix(0.0833333 0 0 0.0833333 -223.208 -134)" d="M 5713.77,5979.53 L 5673.25,6007.98 L 5663.02,5990.72 L 5701.02,5964.04 L 5713.77,5979.53 Z " />
<path stroke="transparent" fill="#000000" transform="matrix(0.0833333 0 0 0.0833333 -223.208 -134)" d="M 5677.27,5935.2 L 5643.96,5958.59 L 5633.73,5941.33 L 5664.52,5919.72 L 5677.27,5935.2 Z " />
<path stroke="transparent" fill="#000000" transform="matrix(0.0833333 0 0 0.0833333 -223.208 -134)" d="M 5640.77,5890.87 L 5614.67,5909.19 L 5604.44,5891.94 L 5628.02,5875.39 L 5640.77,5890.87 Z " />
<path stroke="transparent" fill="#000000" transform="matrix(0.0833333 0 0 0.0833333 -223.208 -134)" d="M 5604.27,5846.54 L 5585.38,5859.8 L 5575.15,5842.55 L 5591.52,5831.06 L 5604.27,5846.54 Z " />
<path stroke="transparent" fill="#000000" transform="matrix(0.0833333 0 0 0.0833333 -223.208 -134)" d="M 5915.77,6511.37 L 5926.78,6528.08 L 5092.81,7077.51 L 5081.8,7060.81 L 5915.77,6511.37 Z " />
<path stroke="transparent" fill="#000000" transform="matrix(0.0833333 0 0 0.0833333 -223.208 -134)" d="M 4989.39,7005.9 L 4889.19,7071.94 L 4879.34,7054.48 L 4977.23,6989.96 L 4989.39,7005.9 Z " />
<path stroke="transparent" fill="#000000" transform="matrix(0.0833333 0 0 0.0833333 -223.208 -134)" d="M 4956.42,6962.69 L 4862.48,7024.61 L 4852.62,7007.15 L 4944.27,6946.75 L 4956.42,6962.69 Z " />
<path stroke="transparent" fill="#000000" transform="matrix(0.0833333 0 0 0.0833333 -223.208 -134)" d="M 4923.46,6919.47 L 4835.76,6977.28 L 4825.91,6959.82 L 4911.31,6903.53 L 4923.46,6919.47 Z " />
<path stroke="transparent" fill="#000000" transform="matrix(0.0833333 0 0 0.0833333 -223.208 -134)" d="M 4890.5,6876.26 L 4809.04,6929.95 L 4799.19,6912.49 L 4878.35,6860.32 L 4890.5,6876.26 Z " />
<path stroke="transparent" fill="#000000" transform="matrix(0.0833333 0 0 0.0833333 -223.208 -134)" d="M 4857.54,6833.05 L 4782.33,6882.62 L 4772.48,6865.16 L 4845.38,6817.11 L 4857.54,6833.05 Z " />
<path stroke="transparent" fill="#000000" transform="matrix(0.0833333 0 0 0.0833333 -223.208 -134)" d="M 4824.58,6789.83 L 4755.61,6835.29 L 4745.76,6817.83 L 4812.42,6773.89 L 4824.58,6789.83 Z " />
<path stroke="transparent" fill="#000000" transform="matrix(0.0833333 0 0 0.0833333 -223.208 -134)" d="M 4791.62,6746.62 L 4728.9,6787.96 L 4719.04,6770.5 L 4779.46,6730.68 L 4791.62,6746.62 Z " />
<path stroke="transparent" fill="#000000" transform="matrix(0.0833333 0 0 0.0833333 -223.208 -134)" d="M 4758.66,6703.41 L 4702.18,6740.63 L 4692.33,6723.17 L 4746.5,6687.47 L 4758.66,6703.41 Z " />
<path stroke="transparent" fill="#000000" transform="matrix(0.0833333 0 0 0.0833333 -223.208 -134)" d="M 4725.7,6660.19 L 4675.47,6693.3 L 4665.61,6675.84 L 4713.54,6644.25 L 4725.7,6660.19 Z " />
<path stroke="transparent" fill="#000000" transform="matrix(0.0833333 0 0 0.0833333 -223.208 -134)" d="M 4692.74,6616.98 L 4648.75,6645.97 L 4638.9,6628.51 L 4680.58,6601.04 L 4692.74,6616.98 Z " />
<path stroke="transparent" fill="#000000" transform="matrix(0.0833333 0 0 0.0833333 -223.208 -134)" d="M 4659.78,6573.77 L 4622.04,6598.64 L 4612.18,6581.18 L 4647.62,6557.83 L 4659.78,6573.77 Z " />
<path stroke="transparent" fill="#000000" transform="matrix(0.0833333 0 0 0.0833333 -223.208 -134)" d="M 4626.82,6530.55 L 4595.32,6551.31 L 4585.47,6533.85 L 4614.66,6514.61 L 4626.82,6530.55 Z " />
<path stroke="transparent" fill="#000000" transform="matrix(0.0833333 0 0 0.0833333 -223.208 -134)" d="M 4593.86,6487.34 L 4568.61,6503.98 L 4558.75,6486.52 L 4581.7,6471.4 L 4593.86,6487.34 Z " />
<path stroke="transparent" fill="#000000" transform="matrix(0.0833333 0 0 0.0833333 -223.208 -134)" d="M 4560.9,6444.13 L 4541.89,6456.65 L 4532.04,6439.19 L 4548.74,6428.19 L 4560.9,6444.13 Z " />
<path stroke="transparent" fill="#000000" transform="matrix(0.0833333 0 0 0.0833333 -223.208 -134)" d="M 6080.78,4291.67 L 6200.07,4304.68 L 6088.38,4879.95 L 6075.38,4894.62 L 6065.85,4877.49 L 6080.78,4291.67 Z " />
<path stroke="transparent" fill="#000000" transform="matrix(0.0833333 0 0 0.0833333 -223.208 -134)" d="M 6065.36,4900.35 L 6075.38,4894.62 L 6085.35,4901.92 L 6083.06,5486.75 L 6073.03,5494.6 L 6063.06,5488.78 L 6065.36,4900.35 Z " />
<path stroke="transparent" fill="#000000" transform="matrix(0.0833333 0 0 0.0833333 -223.208 -134)" d="M 6085.35,4901.92 L 6075.38,4894.62 L 6088.38,4879.95 L 6638.83,4703.49 L 6646.74,4711.45 L 6642.28,4723.38 L 6085.35,4901.92 Z " />
<path stroke="transparent" fill="#000000" transform="matrix(0.0833333 0 0 0.0833333 -223.208 -134)" d="M 5556.9,4604.13 L 5557.02,4581.06 L 6065.85,4877.49 L 6075.38,4894.62 L 6065.36,4900.35 L 5556.9,4604.13 Z " />
<path stroke="transparent" fill="#000000" transform="matrix(0.0833333 0 0 0.0833333 -223.208 -134)" d="M 5557.02,4581.06 L 5556.9,4604.13 L 5105.27,4860.92 L 4979.96,4909.17 L 5557.02,4581.06 Z " />
<path stroke="transparent" fill="#000000" transform="matrix(0.0833333 0 0 0.0833333 -223.208 -134)" d="M 4979.96,4909.17 L 5105.27,4860.92 L 4988.98,5543.45 L 4977.82,5549.59 L 4967.96,5543.45 L 4979.96,4909.17 Z " />
<path stroke="transparent" fill="#000000" transform="matrix(0.0833333 0 0 0.0833333 -223.208 -134)" d="M 4978.27,5560.63 L 4977.82,5549.59 L 4988.98,5543.45 L 5551.6,5781.41 L 5552.27,5792.55 L 5542.24,5799.17 L 4978.27,5560.63 Z " />
<path stroke="transparent" fill="#000000" transform="matrix(0.0833333 0 0 0.0833333 -223.208 -134)" d="M 4516.05,5802.03 L 4506,5796 L 4517.44,5778.74 L 4967.96,5543.45 L 4977.82,5549.59 L 4978.27,5560.63 L 4516.05,5802.03 Z " />
<path stroke="transparent" fill="#000000" transform="matrix(0.0833333 0 0 0.0833333 -223.208 -134)" d="M 4446,5196 L 4566,5196 L 4517.44,5778.74 L 4506,5796 L 4494.45,5777.4 L 4446,5196 Z " />
<path stroke="transparent" fill="#000000" transform="matrix(0.0833333 0 0 0.0833333 -223.208 -134)" d="M 4496.04,5801.69 L 4506,5796 L 4516.05,5802.03 L 4520.59,6382.77 L 4510.64,6388.55 L 4500.59,6382.77 L 4496.04,5801.69 Z " />
<path stroke="transparent" fill="#000000" transform="matrix(0.0833333 0 0 0.0833333 -223.208 -134)" d="M 3991.58,5498.8 L 3991.81,5475.61 L 4494.45,5777.4 L 4506,5796 L 4496.04,5801.69 L 3991.58,5498.8 Z " />
<path stroke="transparent" fill="#000000" transform="matrix(0.0833333 0 0 0.0833333 -223.208 -134)" d="M 3991.81,5475.61 L 3991.58,5498.8 L 3483.76,5790.25 L 3463.81,5778.64 L 3991.81,5475.61 Z " />
<path stroke="transparent" fill="#000000" transform="matrix(0.0833333 0 0 0.0833333 -223.208 -134)" d="M 3463.81,5778.64 L 3483.76,5790.25 L 3481.42,6378.76 L 3471.39,6384.49 L 3461.42,6378.04 L 3463.81,5778.64 Z " />
<path stroke="transparent" fill="#000000" transform="matrix(0.0833333 0 0 0.0833333 -223.208 -134)" d="M 3073.24,6681.42 L 3013.65,6577.27 L 3461.42,6378.04 L 3471.39,6384.49 L 3471.9,6396.36 L 3073.24,6681.42 Z " />
<path stroke="transparent" fill="#000000" transform="matrix(0.0833333 0 0 0.0833333 -223.208 -134)" d="M 3989.92,6674.96 L 3989.83,6698.05 L 3471.9,6396.36 L 3471.39,6384.49 L 3481.42,6378.76 L 3989.92,6674.96 Z " />
<path stroke="transparent" fill="#000000" transform="matrix(0.0833333 0 0 0.0833333 -223.208 -134)" d="M 3989.83,6698.05 L 3989.92,6674.96 L 4500.59,6382.77 L 4510.64,6388.55 L 4510.59,6400.09 L 3989.83,6698.05 Z " />
<path stroke="transparent" fill="#000000" transform="matrix(0.0833333 0 0 0.0833333 -223.208 -134)" d="M 5029.16,6679.01 L 5029.07,6702.1 L 4510.59,6400.09 L 4510.64,6388.55 L 4520.59,6382.77 L 5029.16,6679.01 Z " />
<path stroke="transparent" fill="#000000" transform="matrix(0.0833333 0 0 0.0833333 -223.208 -134)" d="M 5029.07,6702.1 L 5029.16,6679.01 L 5539.9,6386.79 L 5559.86,6398.41 L 5029.07,6702.1 Z " />
<path stroke="transparent" fill="#000000" transform="matrix(0.0833333 0 0 0.0833333 -223.208 -134)" d="M 5034.4,6616.1 L 5024.47,6598.74 L 5473.08,6342.07 L 5483.01,6359.43 L 5034.4,6616.1 Z " />
<path stroke="transparent" fill="#000000" transform="matrix(0.0833333 0 0 0.0833333 -223.208 -134)" d="M 5559.86,6398.41 L 5539.9,6386.79 L 5542.24,5799.17 L 5552.27,5792.55 L 5562.25,5798.36 L 5559.86,6398.41 Z " />
<path stroke="transparent" fill="#000000" transform="matrix(0.0833333 0 0 0.0833333 -223.208 -134)" d="M 6063.06,5488.78 L 6073.03,5494.6 L 6073.73,5505.72 L 5562.25,5798.36 L 5552.27,5792.55 L 5551.6,5781.41 L 6063.06,5488.78 Z " />
<path stroke="transparent" fill="#000000" transform="matrix(0.0833333 0 0 0.0833333 -223.208 -134)" d="M 6670.71,5627.41 L 6616.09,5735.8 L 6073.73,5505.72 L 6073.03,5494.6 L 6083.06,5486.75 L 6670.71,5627.41 Z " />
<path stroke="transparent" fill="#000000" transform="matrix(0.0833333 0 0 0.0833333 -223.208 -134)" d="M 6616.09,5735.8 L 6670.71,5627.41 L 6953.64,5241.23 L 7040.52,5156.47 L 6616.09,5735.8 Z " />
<path stroke="transparent" fill="#000000" transform="matrix(0.0833333 0 0 0.0833333 -223.208 -134)" d="M 7040.52,5156.47 L 6953.64,5241.23 L 6642.28,4723.38 L 6646.74,4711.45 L 6657.98,4709.27 L 7040.52,5156.47 Z " />
<path stroke="transparent" fill="#000000" transform="matrix(0.0833333 0 0 0.0833333 -223.208 -134)" d="M 6823.08,4143.91 L 6834.38,4141.55 L 6841.91,4150.67 L 6657.98,4709.27 L 6646.74,4711.45 L 6638.83,4703.49 L 6823.08,4143.91 Z " />
<path stroke="transparent" fill="#000000" transform="matrix(0.0833333 0 0 0.0833333 -223.208 -134)" d="M 7409.52,3960.36 L 7434.01,4077.83 L 6841.91,4150.67 L 6834.38,4141.55 L 6837.64,4130.19 L 7409.52,3960.36 Z " />
<path stroke="transparent" fill="#000000" transform="matrix(0.0833333 0 0 0.0833333 -223.208 -134)" d="M 6423.34,3696.46 L 6445.95,3691.75 L 6837.64,4130.19 L 6834.38,4141.55 L 6823.08,4143.91 L 6423.34,3696.46 Z " />
<path stroke="transparent" fill="#000000" transform="matrix(0.0833333 0 0 0.0833333 -223.208 -134)" d="M 6445.95,3691.75 L 6423.34,3696.46 L 6610.99,3126.56 L 6633.59,3121.84 L 6445.95,3691.75 Z " />
<path stroke="transparent" fill="#000000" transform="matrix(0.0833333 0 0 0.0833333 -223.208 -134)" d="M 6525.53,3680.26 L 6506.53,3674.01 L 6681.18,3143.59 L 6700.18,3149.85 L 6525.53,3680.26 Z " />
<path stroke="transparent" fill="#000000" transform="matrix(0.0833333 0 0 0.0833333 -223.208 -134)" d="M 6633.59,3121.84 L 6610.99,3126.56 L 6211.24,2679.05 L 6233.84,2674.34 L 6633.59,3121.84 Z " />
<path stroke="transparent" fill="#000000" transform="matrix(0.0833333 0 0 0.0833333 -223.208 -134)" d="M 5647.4,2857.89 L 5622.91,2740.41 L 5642.86,2738.12 L 5666.61,2852.01 L 5647.4,2857.89 Z " />
<path stroke="transparent" fill="#000000" transform="matrix(0.0833333 0 0 0.0833333 -223.208 -134)" d="M 5703.52,2840.72 L 5681.22,2733.72 L 5701.17,2731.43 L 5722.73,2834.84 L 5703.52,2840.72 Z " />
<path stroke="transparent" fill="#000000" transform="matrix(0.0833333 0 0 0.0833333 -223.208 -134)" d="M 5759.65,2823.55 L 5739.53,2727.04 L 5759.48,2724.75 L 5778.85,2817.68 L 5759.65,2823.55 Z " />
<path stroke="transparent" fill="#000000" transform="matrix(0.0833333 0 0 0.0833333 -223.208 -134)" d="M 5815.77,2806.38 L 5797.83,2720.35 L 5817.79,2718.06 L 5834.98,2800.51 L 5815.77,2806.38 Z " />
<path stroke="transparent" fill="#000000" transform="matrix(0.0833333 0 0 0.0833333 -223.208 -134)" d="M 5871.89,2789.22 L 5856.14,2713.66 L 5876.09,2711.37 L 5891.1,2783.34 L 5871.89,2789.22 Z " />
<path stroke="transparent" fill="#000000" transform="matrix(0.0833333 0 0 0.0833333 -223.208 -134)" d="M 5928.02,2772.05 L 5914.45,2706.97 L 5934.4,2704.68 L 5947.22,2766.17 L 5928.02,2772.05 Z " />
<path stroke="transparent" fill="#000000" transform="matrix(0.0833333 0 0 0.0833333 -223.208 -134)" d="M 5984.14,2754.88 L 5972.76,2700.28 L 5992.71,2697.99 L 6003.35,2749.01 L 5984.14,2754.88 Z " />
<path stroke="transparent" fill="#000000" transform="matrix(0.0833333 0 0 0.0833333 -223.208 -134)" d="M 6040.26,2737.71 L 6031.07,2693.59 L 6051.02,2691.3 L 6059.47,2731.84 L 6040.26,2737.71 Z " />
<path stroke="transparent" fill="#000000" transform="matrix(0.0833333 0 0 0.0833333 -223.208 -134)" d="M 6096.39,2720.55 L 6089.37,2686.9 L 6109.33,2684.61 L 6115.59,2714.67 L 6096.39,2720.55 Z " />
<path stroke="transparent" fill="#000000" transform="matrix(0.0833333 0 0 0.0833333 -223.208 -134)" d="M 6152.51,2703.38 L 6147.68,2680.21 L 6167.63,2677.93 L 6171.72,2697.51 L 6152.51,2703.38 Z " />
<path stroke="transparent" fill="#000000" transform="matrix(0.0833333 0 0 0.0833333 -223.208 -134)" d="M 6398.88,2109.15 L 6410.19,2106.79 L 6417.88,2115.4 L 6233.84,2674.34 L 6211.24,2679.05 L 6398.88,2109.15 Z " />
<path stroke="transparent" fill="#000000" transform="matrix(0.0833333 0 0 0.0833333 -223.208 -134)" d="M 6995.53,1974.55 L 6999.61,1994.13 L 6417.88,2115.4 L 6410.19,2106.79 L 6413.8,2095.82 L 6995.53,1974.55 Z " />
<path stroke="transparent" fill="#000000" transform="matrix(0.0833333 0 0 0.0833333 -223.208 -134)" d="M 6413.8,2095.82 L 6410.19,2106.79 L 6398.88,2109.15 L 6002.99,1666.01 L 6017.91,1652.68 L 6413.8,2095.82 Z " />
<text x="0" y="0" stroke="transparent" fill="#000000" transform="matrix(0.0833333 0 0 0.0833333 271.792 410.5)" style="font:normal normal normal 200px 'Arial'" >
O</text>
<text x="0" y="0" stroke="transparent" fill="#000000" transform="matrix(0.0833333 0 0 0.0833333 186.792 466.5)" style="font:normal normal normal 200px 'Arial'" >
O</text>
<text x="0" y="0" stroke="transparent" fill="#000000" transform="matrix(0.0833333 0 0 0.0833333 4.1413 429.371)" style="font:normal normal normal 200px 'Arial'" >
HO</text>
</svg>
