<?xml version="1.0" standalone="no" ?>
<!DOCTYPE svg PUBLIC "-//W3C//DTD SVG 1.1//EN" "http://www.w3.org/Graphics/SVG/1.1/DTD/svg11.dtd">
<svg width="373px" height="191px" viewBox="0 0 373 191" style="background-color: #ffffff00" xmlns="http://www.w3.org/2000/svg" xmlns:xlink="http://www.w3.org/1999/xlink" version="1.1" >
<text x="0" y="0" stroke="transparent" fill="#000000" transform="matrix(0.0833333 0 0 0.0833333 171.296 118.154)" style="font:normal normal normal 200px 'Arial'" >
O</text>
<text x="0" y="0" stroke="transparent" fill="#000000" transform="matrix(0.0833333 0 0 0.0833333 344.497 18.156)" style="font:normal normal normal 200px 'Arial'" >
OH</text>
<path stroke="transparent" fill="#000000" transform="matrix(0.0833333 0 0 0.0833333 -255.333 -280)" d="M 3638.72,5611.52 L 3638.72,5588.43 L 4148.33,5294.2 L 4168.33,5305.75 L 3638.72,5611.52 Z " />
<path stroke="transparent" fill="#000000" transform="matrix(0.0833333 0 0 0.0833333 -255.333 -280)" d="M 4148.28,4705.66 L 4158.28,4699.89 L 4168.28,4705.66 L 4168.33,5305.75 L 4148.33,5294.2 L 4148.28,4705.66 Z " />
<path stroke="transparent" fill="#000000" transform="matrix(0.0833333 0 0 0.0833333 -255.333 -280)" d="M 4076.27,4741.47 L 4096.27,4741.47 L 4096.32,5258.4 L 4076.32,5258.4 L 4076.27,4741.47 Z " />
<path stroke="transparent" fill="#000000" transform="matrix(0.0833333 0 0 0.0833333 -255.333 -280)" d="M 3109.05,5305.66 L 3129.05,5294.11 L 3638.72,5588.43 L 3638.72,5611.52 L 3109.05,5305.66 Z " />
<path stroke="transparent" fill="#000000" transform="matrix(0.0833333 0 0 0.0833333 -255.333 -280)" d="M 3186.06,5266.98 L 3196.06,5249.66 L 3643.72,5508.16 L 3633.72,5525.48 L 3186.06,5266.98 Z " />
<path stroke="transparent" fill="#000000" transform="matrix(0.0833333 0 0 0.0833333 -255.333 -280)" d="M 3638.7,4411.5 L 3638.7,4388.4 L 4158.28,4688.34 L 4158.28,4699.89 L 4148.28,4705.66 L 3638.7,4411.5 Z " />
<path stroke="transparent" fill="#000000" transform="matrix(0.0833333 0 0 0.0833333 -255.333 -280)" d="M 3109.09,4694.18 L 3129.09,4705.72 L 3129.05,5294.11 L 3109.05,5305.66 L 3109.09,4694.18 Z " />
<path stroke="transparent" fill="#000000" transform="matrix(0.0833333 0 0 0.0833333 -255.333 -280)" d="M 3129.09,4705.72 L 3109.09,4694.18 L 3638.7,4388.4 L 3638.7,4411.5 L 3129.09,4705.72 Z " />
<path stroke="transparent" fill="#000000" transform="matrix(0.0833333 0 0 0.0833333 -255.333 -280)" d="M 3196.09,4750.18 L 3186.09,4732.86 L 3633.71,4474.43 L 3643.71,4491.75 L 3196.09,4750.18 Z " />
<path stroke="transparent" fill="#000000" transform="matrix(0.0833333 0 0 0.0833333 -255.333 -280)" d="M 4677.9,4388.34 L 4677.9,4411.43 L 4168.28,4705.66 L 4158.28,4699.89 L 4158.28,4688.34 L 4677.9,4388.34 Z " />
<path stroke="transparent" fill="#000000" transform="matrix(0.0833333 0 0 0.0833333 -255.333 -280)" d="M 5109.93,4637.72 L 5099.93,4655.04 L 4677.9,4411.43 L 4677.9,4388.34 L 5109.93,4637.72 Z " />
<path stroke="transparent" fill="#000000" transform="matrix(0.0833333 0 0 0.0833333 -255.333 -280)" d="M 5707.18,3794.08 L 5727.18,3805.63 L 5727.17,4394.07 L 5717.17,4399.84 L 5707.17,4394.07 L 5707.18,3794.08 Z " />
<path stroke="transparent" fill="#000000" transform="matrix(0.0833333 0 0 0.0833333 -255.333 -280)" d="M 6236.78,4688.28 L 6236.78,4711.38 L 5717.17,4411.39 L 5717.17,4399.84 L 5727.17,4394.07 L 6236.78,4688.28 Z " />
<path stroke="transparent" fill="#000000" transform="matrix(0.0833333 0 0 0.0833333 -255.333 -280)" d="M 6241.78,4608.03 L 6231.78,4625.35 L 5784.17,4366.93 L 5794.17,4349.61 L 6241.78,4608.03 Z " />
<path stroke="transparent" fill="#000000" transform="matrix(0.0833333 0 0 0.0833333 -255.333 -280)" d="M 6236.74,3488.34 L 6236.74,3511.43 L 5727.18,3805.63 L 5707.18,3794.08 L 6236.74,3488.34 Z " />
<path stroke="transparent" fill="#000000" transform="matrix(0.0833333 0 0 0.0833333 -255.333 -280)" d="M 6231.74,3574.35 L 6241.74,3591.67 L 5794.17,3850.08 L 5784.17,3832.76 L 6231.74,3574.35 Z " />
<path stroke="transparent" fill="#000000" transform="matrix(0.0833333 0 0 0.0833333 -255.333 -280)" d="M 6746.34,4394.09 L 6766.34,4405.63 L 6236.78,4711.38 L 6236.78,4688.28 L 6746.34,4394.09 Z " />
<path stroke="transparent" fill="#000000" transform="matrix(0.0833333 0 0 0.0833333 -255.333 -280)" d="M 6756.35,3788.32 L 6756.35,3799.87 L 6746.35,3805.65 L 6236.74,3511.43 L 6236.74,3488.34 L 6756.35,3788.32 Z " />
<path stroke="transparent" fill="#000000" transform="matrix(0.0833333 0 0 0.0833333 -255.333 -280)" d="M 6746.35,3805.65 L 6756.35,3799.87 L 6766.35,3805.65 L 6766.34,4405.63 L 6746.34,4394.09 L 6746.35,3805.65 Z " />
<path stroke="transparent" fill="#000000" transform="matrix(0.0833333 0 0 0.0833333 -255.333 -280)" d="M 6674.35,3841.44 L 6694.35,3841.44 L 6694.35,4358.29 L 6674.35,4358.29 L 6674.35,3841.44 Z " />
<path stroke="transparent" fill="#000000" transform="matrix(0.0833333 0 0 0.0833333 -255.333 -280)" d="M 5707.17,4394.07 L 5717.17,4399.84 L 5717.17,4411.39 L 5295.18,4655.03 L 5285.18,4637.71 L 5707.17,4394.07 Z " />
<path stroke="transparent" fill="#000000" transform="matrix(0.0833333 0 0 0.0833333 -255.333 -280)" d="M 7171.36,3548.72 L 7181.36,3566.04 L 6766.35,3805.65 L 6756.35,3799.87 L 6756.35,3788.32 L 7171.36,3548.72 Z " />
</svg>
