<?xml version="1.0" standalone="no" ?>
<!DOCTYPE svg PUBLIC "-//W3C//DTD SVG 1.1//EN" "http://www.w3.org/Graphics/SVG/1.1/DTD/svg11.dtd">
<svg width="472px" height="300px" viewBox="0 0 472 300" style="background-color: #ffffff00" xmlns="http://www.w3.org/2000/svg" xmlns:xlink="http://www.w3.org/1999/xlink" version="1.1" >
<text x="0" y="0" stroke="transparent" fill="#000000" transform="matrix(0.0833333 0 0 0.0833333 147.085 295.539)" style="font:normal normal normal 200px 'Arial'" >
O</text>
<text x="0" y="0" stroke="transparent" fill="#000000" transform="matrix(0.0833333 0 0 0.0833333 147.087 208.934)" style="font:normal normal normal 200px 'Arial'" >
O</text>
<text x="0" y="0" stroke="transparent" fill="#000000" transform="matrix(0.0833333 0 0 0.0833333 455.417 111.496)" style="font:normal normal normal 200px 'Arial'" >
O</text>
<text x="0" y="0" stroke="transparent" fill="#000000" transform="matrix(0.0833333 0 0 0.0833333 368.813 111.497)" style="font:normal normal normal 200px 'Arial'" >
O</text>
<text x="0" y="0" stroke="transparent" fill="#000000" transform="matrix(0.0833333 0 0 0.0833333 201.748 119.959)" style="font:normal normal normal 200px 'Arial'" >
O</text>
<path stroke="transparent" fill="#000000" transform="matrix(0.0833333 0 0 0.0833333 -222.208 -204)" d="M 3303.72,5906.48 L 3315.26,5926.48 L 2709.49,5926.47 L 2709.49,5906.47 L 3303.72,5906.48 Z " />
<path stroke="transparent" fill="#000000" transform="matrix(0.0833333 0 0 0.0833333 -222.208 -204)" d="M 3597.97,5396.84 L 3609.52,5396.84 L 3615.29,5406.84 L 3315.26,5926.48 L 3303.72,5906.48 L 3597.97,5396.84 Z " />
<path stroke="transparent" fill="#000000" transform="matrix(0.0833333 0 0 0.0833333 -222.208 -204)" d="M 3517.71,5391.84 L 3535.03,5401.84 L 3276.58,5849.47 L 3259.26,5839.47 L 3517.71,5391.84 Z " />
<path stroke="transparent" fill="#000000" transform="matrix(0.0833333 0 0 0.0833333 -222.208 -204)" d="M 3300.85,4882.21 L 3318.17,4872.21 L 3615.29,5386.84 L 3609.52,5396.84 L 3597.97,5396.84 L 3300.85,4882.21 Z " />
<path stroke="transparent" fill="#000000" transform="matrix(0.0833333 0 0 0.0833333 -222.208 -204)" d="M 4203.74,5386.85 L 4215.29,5406.85 L 3615.29,5406.84 L 3609.52,5396.84 L 3615.29,5386.84 L 4203.74,5386.85 Z " />
<path stroke="transparent" fill="#000000" transform="matrix(0.0833333 0 0 0.0833333 -222.208 -204)" d="M 4496.11,5801.23 L 4478.79,5811.23 L 4221.64,5365.85 L 4238.96,5355.85 L 4496.11,5801.23 Z " />
<path stroke="transparent" fill="#000000" transform="matrix(0.0833333 0 0 0.0833333 -222.208 -204)" d="M 4433.75,5837.23 L 4416.43,5847.23 L 4159.29,5401.84 L 4176.61,5391.84 L 4433.75,5837.23 Z " />
<path stroke="transparent" fill="#000000" transform="matrix(0.0833333 0 0 0.0833333 -222.208 -204)" d="M 4440.53,4976.74 L 4457.85,4986.74 L 4215.29,5406.85 L 4203.74,5386.85 L 4440.53,4976.74 Z " />
<path stroke="transparent" fill="#000000" transform="matrix(0.0833333 0 0 0.0833333 -222.208 -204)" d="M 5103.77,4867.21 L 5109.55,4877.21 L 5099.55,4887.21 L 4617.55,4887.21 L 4617.55,4867.21 L 5103.77,4867.21 Z " />
<path stroke="transparent" fill="#000000" transform="matrix(0.0833333 0 0 0.0833333 -222.208 -204)" d="M 5119.54,5477.21 L 5099.54,5477.21 L 5099.55,4887.21 L 5109.55,4877.21 L 5119.54,4894.53 L 5119.54,5477.21 Z " />
<path stroke="transparent" fill="#000000" transform="matrix(0.0833333 0 0 0.0833333 -222.208 -204)" d="M 5634.16,5168.55 L 5624.16,5185.87 L 5119.54,4894.53 L 5109.55,4877.21 L 5123.21,4873.55 L 5634.16,5168.55 Z " />
<path stroke="transparent" fill="#000000" transform="matrix(0.0833333 0 0 0.0833333 -222.208 -204)" d="M 5398.33,4357.01 L 5409.54,4357.59 L 5415.65,4367.01 L 5123.21,4873.55 L 5109.55,4877.21 L 5103.77,4867.21 L 5398.33,4357.01 Z " />
<path stroke="transparent" fill="#000000" transform="matrix(0.0833333 0 0 0.0833333 -222.208 -204)" d="M 5998.01,4285.73 L 6014.55,4304.1 L 5415.65,4367.01 L 5409.54,4357.59 L 5415.72,4346.89 L 5998.01,4285.73 Z " />
<path stroke="transparent" fill="#000000" transform="matrix(0.0833333 0 0 0.0833333 -222.208 -204)" d="M 6119.72,3713.01 L 6131.01,3707.98 L 6139.87,3714.42 L 6014.55,4304.1 L 5998.01,4285.73 L 6119.72,3713.01 Z " />
<path stroke="transparent" fill="#000000" transform="matrix(0.0833333 0 0 0.0833333 -222.208 -204)" d="M 5612.69,3420.28 L 5611.39,3407.99 L 5621.39,3402.22 L 6131.01,3696.44 L 6131.01,3707.98 L 6119.72,3713.01 L 5612.69,3420.28 Z " />
<path stroke="transparent" fill="#000000" transform="matrix(0.0833333 0 0 0.0833333 -222.208 -204)" d="M 5678.39,3375.08 L 5688.39,3357.76 L 6136.01,3616.18 L 6126.01,3633.5 L 5678.39,3375.08 Z " />
<path stroke="transparent" fill="#000000" transform="matrix(0.0833333 0 0 0.0833333 -222.208 -204)" d="M 5601.4,2802.22 L 5621.4,2813.76 L 5621.39,3402.22 L 5611.39,3407.99 L 5601.39,3403.54 L 5601.4,2802.22 Z " />
<path stroke="transparent" fill="#000000" transform="matrix(0.0833333 0 0 0.0833333 -222.208 -204)" d="M 6131.03,2496.44 L 6131.03,2519.53 L 5621.4,2813.76 L 5601.4,2802.22 L 6131.03,2496.44 Z " />
<path stroke="transparent" fill="#000000" transform="matrix(0.0833333 0 0 0.0833333 -222.208 -204)" d="M 6126.03,2582.46 L 6136.03,2599.78 L 5688.4,2858.22 L 5678.4,2840.9 L 6126.03,2582.46 Z " />
<path stroke="transparent" fill="#000000" transform="matrix(0.0833333 0 0 0.0833333 -222.208 -204)" d="M 6650.65,2796.43 L 6650.65,2807.98 L 6640.65,2813.75 L 6131.03,2519.53 L 6131.03,2496.44 L 6650.65,2796.43 Z " />
<path stroke="transparent" fill="#000000" transform="matrix(0.0833333 0 0 0.0833333 -222.208 -204)" d="M 7170.27,2496.42 L 7170.27,2519.52 L 6660.65,2813.75 L 6650.65,2807.98 L 6650.65,2796.43 L 7170.27,2496.42 Z " />
<path stroke="transparent" fill="#000000" transform="matrix(0.0833333 0 0 0.0833333 -222.208 -204)" d="M 7699.89,2802.19 L 7679.89,2813.74 L 7170.27,2519.52 L 7170.27,2496.42 L 7699.89,2802.19 Z " />
<path stroke="transparent" fill="#000000" transform="matrix(0.0833333 0 0 0.0833333 -222.208 -204)" d="M 7622.89,2840.87 L 7612.89,2858.19 L 7165.27,2599.77 L 7175.27,2582.45 L 7622.89,2840.87 Z " />
<path stroke="transparent" fill="#000000" transform="matrix(0.0833333 0 0 0.0833333 -222.208 -204)" d="M 7699.88,3413.74 L 7679.88,3402.19 L 7679.89,2813.74 L 7699.89,2802.19 L 7699.88,3413.74 Z " />
<path stroke="transparent" fill="#000000" transform="matrix(0.0833333 0 0 0.0833333 -222.208 -204)" d="M 8139.88,3614.65 L 8129.88,3631.97 L 7684.88,3375.05 L 7694.88,3357.73 L 8139.88,3614.65 Z " />
<path stroke="transparent" fill="#000000" transform="matrix(0.0833333 0 0 0.0833333 -222.208 -204)" d="M 8103.88,3677 L 8093.88,3694.32 L 7648.88,3437.41 L 7658.88,3420.09 L 8103.88,3677 Z " />
<path stroke="transparent" fill="#000000" transform="matrix(0.0833333 0 0 0.0833333 -222.208 -204)" d="M 7267.88,3663.16 L 7257.88,3645.84 L 7679.88,3402.19 L 7699.88,3413.74 L 7267.88,3663.16 Z " />
<path stroke="transparent" fill="#000000" transform="matrix(0.0833333 0 0 0.0833333 -222.208 -204)" d="M 6650.64,3419.52 L 6650.64,3407.98 L 6660.64,3402.2 L 7082.64,3645.84 L 7072.64,3663.16 L 6650.64,3419.52 Z " />
<path stroke="transparent" fill="#000000" transform="matrix(0.0833333 0 0 0.0833333 -222.208 -204)" d="M 6640.64,3402.2 L 6650.64,3407.98 L 6650.64,3419.52 L 6139.87,3714.42 L 6131.01,3707.98 L 6131.01,3696.44 L 6640.64,3402.2 Z " />
<path stroke="transparent" fill="#000000" transform="matrix(0.0833333 0 0 0.0833333 -222.208 -204)" d="M 6660.64,3402.2 L 6650.64,3407.98 L 6640.64,3402.2 L 6640.65,2813.75 L 6650.65,2807.98 L 6660.65,2813.75 L 6660.64,3402.2 Z " />
<path stroke="transparent" fill="#000000" transform="matrix(0.0833333 0 0 0.0833333 -222.208 -204)" d="M 6588.64,3366.41 L 6568.64,3366.41 L 6568.65,2849.55 L 6588.65,2849.55 L 6588.64,3366.41 Z " />
<path stroke="transparent" fill="#000000" transform="matrix(0.0833333 0 0 0.0833333 -222.208 -204)" d="M 5251.58,3745.43 L 5238.19,3730.57 L 5601.39,3403.54 L 5611.39,3407.99 L 5612.69,3420.28 L 5251.58,3745.43 Z " />
<path stroke="transparent" fill="#000000" transform="matrix(0.0833333 0 0 0.0833333 -222.208 -204)" d="M 5205.8,3924.64 L 5224.07,3916.5 L 5415.72,4346.89 L 5409.54,4357.59 L 5398.33,4357.01 L 5205.8,3924.64 Z " />
</svg>
