<?xml version="1.0" standalone="no" ?>
<!DOCTYPE svg PUBLIC "-//W3C//DTD SVG 1.1//EN" "http://www.w3.org/Graphics/SVG/1.1/DTD/svg11.dtd">
<svg width="542px" height="325px" viewBox="0 0 542 325" style="background-color: #ffffff00" xmlns="http://www.w3.org/2000/svg" xmlns:xlink="http://www.w3.org/1999/xlink" version="1.1" >
<text x="0" y="0" stroke="transparent" fill="#000000" transform="matrix(0.0833333 0 0 0.0833333 91.29 125.023)" style="font:normal normal normal 200px 'Arial'" >
N</text>
<text x="0" y="0" stroke="transparent" fill="#000000" transform="matrix(0.0833333 0 0 0.0833333 172.36 45.5744)" style="font:normal normal normal 200px 'Arial'" >
OH</text>
<text x="0" y="0" stroke="transparent" fill="#000000" transform="matrix(0.0833333 0 0 0.0833333 241.42 250.023)" style="font:normal normal normal 200px 'Arial'" >
O</text>
<text x="0" y="0" stroke="transparent" fill="#000000" transform="matrix(0.0833333 0 0 0.0833333 333.584 229.259)" style="font:normal normal normal 200px 'Arial'" >
OH</text>
<text x="0" y="0" stroke="transparent" fill="#000000" transform="matrix(0.0833333 0 0 0.0833333 216.845 274.811)" style="font:normal normal normal 200px 'Arial'" >
O</text>
<text x="0" y="0" stroke="transparent" fill="#000000" transform="matrix(0.0833333 0 0 0.0833333 340.79 190.277)" style="font:normal normal normal 200px 'Arial'" >
OH</text>
<text x="0" y="0" stroke="transparent" fill="#000000" transform="matrix(0.0833333 0 0 0.0833333 384.644 108.071)" style="font:normal normal normal 200px 'Arial'" >
O</text>
<text x="0" y="0" stroke="transparent" fill="#000000" transform="matrix(0.0833333 0 0 0.0833333 478.923 18.2411)" style="font:normal normal normal 200px 'Arial'" >
O</text>
<path stroke="transparent" fill="#000000" transform="matrix(0.0833333 0 0 0.0833333 -165.208 -197)" d="M 4639.62,4294.88 L 4629.62,4299.8 L 4619.62,4294.01 L 4619.62,3733.59 L 4629.62,3727.87 L 4639.62,3732.4 L 4639.62,4294.88 Z " />
<path stroke="transparent" fill="#000000" transform="matrix(0.0833333 0 0 0.0833333 -165.208 -197)" d="M 4569.62,2978.48 L 4689.62,2978.48 L 4688.18,2998.48 L 4571.05,2998.48 L 4569.62,2978.48 Z " />
<path stroke="transparent" fill="#000000" transform="matrix(0.0833333 0 0 0.0833333 -165.208 -197)" d="M 4573.66,3034.76 L 4685.57,3034.76 L 4684.13,3054.76 L 4575.1,3054.76 L 4573.66,3034.76 Z " />
<path stroke="transparent" fill="#000000" transform="matrix(0.0833333 0 0 0.0833333 -165.208 -197)" d="M 4577.71,3091.04 L 4681.52,3091.04 L 4680.08,3111.04 L 4579.15,3111.04 L 4577.71,3091.04 Z " />
<path stroke="transparent" fill="#000000" transform="matrix(0.0833333 0 0 0.0833333 -165.208 -197)" d="M 4581.76,3147.32 L 4677.48,3147.32 L 4676.04,3167.32 L 4583.19,3167.32 L 4581.76,3147.32 Z " />
<path stroke="transparent" fill="#000000" transform="matrix(0.0833333 0 0 0.0833333 -165.208 -197)" d="M 4585.8,3203.61 L 4673.43,3203.61 L 4671.99,3223.61 L 4587.24,3223.61 L 4585.8,3203.61 Z " />
<path stroke="transparent" fill="#000000" transform="matrix(0.0833333 0 0 0.0833333 -165.208 -197)" d="M 4589.85,3259.89 L 4669.38,3259.89 L 4667.94,3279.89 L 4591.29,3279.89 L 4589.85,3259.89 Z " />
<path stroke="transparent" fill="#000000" transform="matrix(0.0833333 0 0 0.0833333 -165.208 -197)" d="M 4593.9,3316.17 L 4665.34,3316.17 L 4663.9,3336.17 L 4595.34,3336.17 L 4593.9,3316.17 Z " />
<path stroke="transparent" fill="#000000" transform="matrix(0.0833333 0 0 0.0833333 -165.208 -197)" d="M 4597.94,3372.45 L 4661.29,3372.45 L 4659.85,3392.45 L 4599.38,3392.45 L 4597.94,3372.45 Z " />
<path stroke="transparent" fill="#000000" transform="matrix(0.0833333 0 0 0.0833333 -165.208 -197)" d="M 4601.99,3428.73 L 4657.24,3428.73 L 4655.8,3448.73 L 4603.43,3448.73 L 4601.99,3428.73 Z " />
<path stroke="transparent" fill="#000000" transform="matrix(0.0833333 0 0 0.0833333 -165.208 -197)" d="M 4606.04,3485.01 L 4653.19,3485.01 L 4651.76,3505.01 L 4607.48,3505.01 L 4606.04,3485.01 Z " />
<path stroke="transparent" fill="#000000" transform="matrix(0.0833333 0 0 0.0833333 -165.208 -197)" d="M 4610.08,3541.29 L 4649.15,3541.29 L 4647.71,3561.29 L 4611.52,3561.29 L 4610.08,3541.29 Z " />
<path stroke="transparent" fill="#000000" transform="matrix(0.0833333 0 0 0.0833333 -165.208 -197)" d="M 4614.13,3597.57 L 4645.1,3597.57 L 4643.66,3617.57 L 4615.57,3617.57 L 4614.13,3597.57 Z " />
<path stroke="transparent" fill="#000000" transform="matrix(0.0833333 0 0 0.0833333 -165.208 -197)" d="M 4618.18,3653.85 L 4641.05,3653.85 L 4639.62,3673.85 L 4619.62,3673.85 L 4618.18,3653.85 Z " />
<path stroke="transparent" fill="#000000" transform="matrix(0.0833333 0 0 0.0833333 -165.208 -197)" d="M 5054.31,3341.95 L 5064.38,3346.42 L 5067.1,3357.34 L 5001.65,3414.76 L 4990.77,3397.7 L 5054.31,3341.95 L 5054.31,3341.95 Z " />
<path stroke="transparent" fill="#000000" transform="matrix(0.0833333 0 0 0.0833333 -165.208 -197)" d="M 4639.62,3732.4 L 4629.62,3727.87 L 4628.46,3715.59 L 4914.72,3464.43 L 4925.6,3481.49 L 4639.62,3732.4 L 4639.62,3732.4 Z " />
<path stroke="transparent" fill="#000000" transform="matrix(0.0833333 0 0 0.0833333 -165.208 -197)" d="M 4128.83,3444.51 L 4128.8,3421.28 L 4628.46,3715.59 L 4629.62,3727.87 L 4619.62,3733.59 L 4128.83,3444.51 L 4128.83,3444.51 Z " />
<path stroke="transparent" fill="#000000" transform="matrix(0.0833333 0 0 0.0833333 -165.208 -197)" d="M 4134.08,4595.21 L 4123.73,4589.62 L 4123.72,4578.1 L 4619.62,4294.01 L 4629.62,4299.8 L 4628.8,4311.79 L 4134.08,4595.21 Z " />
<path stroke="transparent" fill="#000000" transform="matrix(0.0833333 0 0 0.0833333 -165.208 -197)" d="M 5084.49,4637.23 L 5082.2,4648.09 L 5070.72,4651.88 L 4628.8,4311.79 L 4629.62,4299.8 L 4639.62,4294.88 L 5084.49,4637.23 Z " />
<path stroke="transparent" fill="#000000" transform="matrix(0.0833333 0 0 0.0833333 -165.208 -197)" d="M 5640.1,4490.11 L 5641.47,4510.86 L 5625.54,4504.47 L 4626.35,2937.93 L 4632.88,2910.98 L 5640.1,4490.11 L 5640.1,4490.11 Z " />
<path stroke="transparent" fill="#000000" transform="matrix(0.0833333 0 0 0.0833333 -165.208 -197)" d="M 3258.65,3734.55 L 3248.58,3717.27 L 4058.52,3245.52 L 4060.49,3267.52 L 3258.65,3734.55 L 3258.65,3734.55 Z " />
<path stroke="transparent" fill="#000000" transform="matrix(0.0833333 0 0 0.0833333 -165.208 -197)" d="M 4632.88,2910.98 L 4626.35,2937.93 L 4204.64,3183.56 L 4206.82,3159.14 L 4632.88,2910.98 L 4632.88,2910.98 Z " />
<path stroke="transparent" fill="#000000" transform="matrix(0.0833333 0 0 0.0833333 -165.208 -197)" d="M 5623.8,3468.38 L 5623.73,3478.64 L 5616.85,3487.29 L 5067.1,3357.34 L 5064.38,3346.42 L 5074.26,3338.48 L 5623.8,3468.38 Z " />
<path stroke="transparent" fill="#000000" transform="matrix(0.0833333 0 0 0.0833333 -165.208 -197)" d="M 5046.59,2830.48 L 5066.9,2850.58 L 5074.26,3338.48 L 5064.38,3346.42 L 5054.31,3341.95 L 5046.59,2830.48 Z " />
<path stroke="transparent" fill="#000000" transform="matrix(0.0833333 0 0 0.0833333 -165.208 -197)" d="M 3640.49,3733.58 L 3620.49,3722.17 L 4128.8,3421.28 L 4128.83,3444.51 L 3640.49,3733.58 Z " />
<path stroke="transparent" fill="#000000" transform="matrix(0.0833333 0 0 0.0833333 -165.208 -197)" d="M 4068.82,2952.73 L 4188.82,2952.73 L 4186.47,2972.73 L 4071.16,2972.73 L 4068.82,2952.73 Z " />
<path stroke="transparent" fill="#000000" transform="matrix(0.0833333 0 0 0.0833333 -165.208 -197)" d="M 4075.62,3010.75 L 4182.01,3010.75 L 4179.66,3030.75 L 4077.97,3030.75 L 4075.62,3010.75 Z " />
<path stroke="transparent" fill="#000000" transform="matrix(0.0833333 0 0 0.0833333 -165.208 -197)" d="M 4082.43,3068.77 L 4175.2,3068.77 L 4172.85,3088.77 L 4084.78,3088.77 L 4082.43,3068.77 Z " />
<path stroke="transparent" fill="#000000" transform="matrix(0.0833333 0 0 0.0833333 -165.208 -197)" d="M 4089.24,3126.79 L 4168.39,3126.79 L 4166.05,3146.79 L 4091.59,3146.79 L 4089.24,3126.79 Z " />
<path stroke="transparent" fill="#000000" transform="matrix(0.0833333 0 0 0.0833333 -165.208 -197)" d="M 4096.05,3184.81 L 4161.59,3184.81 L 4159.24,3204.81 L 4098.39,3204.81 L 4096.05,3184.81 Z " />
<path stroke="transparent" fill="#000000" transform="matrix(0.0833333 0 0 0.0833333 -165.208 -197)" d="M 4102.85,3242.83 L 4154.78,3242.83 L 4152.43,3262.83 L 4105.2,3262.83 L 4102.85,3242.83 Z " />
<path stroke="transparent" fill="#000000" transform="matrix(0.0833333 0 0 0.0833333 -165.208 -197)" d="M 4109.66,3300.85 L 4147.97,3300.85 L 4145.62,3320.85 L 4112.01,3320.85 L 4109.66,3300.85 Z " />
<path stroke="transparent" fill="#000000" transform="matrix(0.0833333 0 0 0.0833333 -165.208 -197)" d="M 4116.47,3358.87 L 4141.16,3358.87 L 4138.82,3378.87 L 4118.82,3378.87 L 4116.47,3358.87 Z " />
<path stroke="transparent" fill="#000000" transform="matrix(0.0833333 0 0 0.0833333 -165.208 -197)" d="M 3366.39,4960.19 L 3381.13,4931.05 L 4102.14,4588.8 L 4123.73,4589.62 L 4112.23,4606.14 L 3366.39,4960.19 Z " />
<path stroke="transparent" fill="#000000" transform="matrix(0.0833333 0 0 0.0833333 -165.208 -197)" d="M 3620.49,4313.31 L 3640.49,4301.71 L 4123.72,4578.1 L 4123.73,4589.62 L 4102.14,4588.8 L 3620.49,4313.31 Z " />
<path stroke="transparent" fill="#000000" transform="matrix(0.0833333 0 0 0.0833333 -165.208 -197)" d="M 4177.87,5260.6 L 4058.29,5207.59 L 4112.23,4606.14 L 4123.73,4589.62 L 4134.08,4595.21 L 4177.87,5260.6 Z " />
<path stroke="transparent" fill="#000000" transform="matrix(0.0833333 0 0 0.0833333 -165.208 -197)" d="M 5036.69,5194.08 L 4918.91,5171.07 L 5070.72,4651.88 L 5082.2,4648.09 L 5091.39,4656.13 L 5036.69,5194.08 Z " />
<path stroke="transparent" fill="#000000" transform="matrix(0.0833333 0 0 0.0833333 -165.208 -197)" d="M 5625.54,4504.47 L 5641.47,4510.86 L 5648.51,4519.42 L 5091.39,4656.13 L 5082.2,4648.09 L 5084.49,4637.23 L 5625.54,4504.47 Z " />
<path stroke="transparent" fill="#000000" transform="matrix(0.0833333 0 0 0.0833333 -165.208 -197)" d="M 5869.43,3997.46 L 5880.52,3997.33 L 5879.37,4023.51 L 5648.51,4519.42 L 5641.47,4510.86 L 5640.1,4490.11 L 5869.43,3997.46 Z " />
<path stroke="transparent" fill="#000000" transform="matrix(0.0833333 0 0 0.0833333 -165.208 -197)" d="M 6043.58,4916.36 L 5949.97,4991.44 L 5938.97,4974.62 L 6029.55,4901.98 L 6043.58,4916.36 Z " />
<path stroke="transparent" fill="#000000" transform="matrix(0.0833333 0 0 0.0833333 -165.208 -197)" d="M 6005.09,4876.9 L 5919.8,4945.29 L 5908.81,4928.47 L 5991.06,4862.51 L 6005.09,4876.9 Z " />
<path stroke="transparent" fill="#000000" transform="matrix(0.0833333 0 0 0.0833333 -165.208 -197)" d="M 5966.6,4837.43 L 5889.64,4899.15 L 5878.65,4882.33 L 5952.56,4823.05 L 5966.6,4837.43 Z " />
<path stroke="transparent" fill="#000000" transform="matrix(0.0833333 0 0 0.0833333 -165.208 -197)" d="M 5928.1,4797.97 L 5859.48,4853 L 5848.48,4836.18 L 5914.07,4783.58 L 5928.1,4797.97 Z " />
<path stroke="transparent" fill="#000000" transform="matrix(0.0833333 0 0 0.0833333 -165.208 -197)" d="M 5889.61,4758.5 L 5829.32,4806.85 L 5818.32,4790.03 L 5875.58,4744.12 L 5889.61,4758.5 Z " />
<path stroke="transparent" fill="#000000" transform="matrix(0.0833333 0 0 0.0833333 -165.208 -197)" d="M 5851.11,4719.04 L 5799.15,4760.71 L 5788.16,4743.89 L 5837.08,4704.65 L 5851.11,4719.04 Z " />
<path stroke="transparent" fill="#000000" transform="matrix(0.0833333 0 0 0.0833333 -165.208 -197)" d="M 5812.62,4679.57 L 5768.99,4714.56 L 5758,4697.74 L 5798.59,4665.19 L 5812.62,4679.57 Z " />
<path stroke="transparent" fill="#000000" transform="matrix(0.0833333 0 0 0.0833333 -165.208 -197)" d="M 5774.13,4640.11 L 5738.83,4668.42 L 5727.83,4651.6 L 5760.1,4625.72 L 5774.13,4640.11 Z " />
<path stroke="transparent" fill="#000000" transform="matrix(0.0833333 0 0 0.0833333 -165.208 -197)" d="M 5735.63,4600.64 L 5708.66,4622.27 L 5697.67,4605.45 L 5721.6,4586.26 L 5735.63,4600.64 Z " />
<path stroke="transparent" fill="#000000" transform="matrix(0.0833333 0 0 0.0833333 -165.208 -197)" d="M 5697.14,4561.18 L 5678.5,4576.13 L 5667.51,4559.31 L 5683.11,4546.79 L 5697.14,4561.18 Z " />
<path stroke="transparent" fill="#000000" transform="matrix(0.0833333 0 0 0.0833333 -165.208 -197)" d="M 2489.69,3705.26 L 2483.14,3684.16 L 3056.77,3763.32 L 3054.03,3783.13 L 2489.69,3705.26 Z " />
<path stroke="transparent" fill="#000000" transform="matrix(0.0833333 0 0 0.0833333 -165.208 -197)" d="M 3381.13,4931.05 L 3366.39,4960.19 L 3164.14,3912.42 L 3183.78,3908.63 L 3381.13,4931.05 Z " />
<path stroke="transparent" fill="#000000" transform="matrix(0.0833333 0 0 0.0833333 -165.208 -197)" d="M 6152.63,3351.19 L 6172.63,3367.25 L 5638.35,3485.64 L 5623.73,3478.64 L 5623.8,3468.38 L 6152.63,3351.19 Z " />
<path stroke="transparent" fill="#000000" transform="matrix(0.0833333 0 0 0.0833333 -165.208 -197)" d="M 5886.75,3987.36 L 5880.52,3997.33 L 5869.43,3997.46 L 5616.85,3487.29 L 5623.73,3478.64 L 5638.35,3485.64 L 5886.75,3987.36 Z " />
<path stroke="transparent" fill="#000000" transform="matrix(0.0833333 0 0 0.0833333 -165.208 -197)" d="M 6162.68,2835.62 L 6162.63,2845.62 L 6152.63,2855.57 L 5066.9,2850.58 L 5046.59,2830.48 L 6162.68,2835.62 Z " />
<path stroke="transparent" fill="#000000" transform="matrix(0.0833333 0 0 0.0833333 -165.208 -197)" d="M 3640.49,4301.71 L 3620.49,4313.31 L 3620.49,3722.17 L 3640.49,3733.58 L 3640.49,4301.71 Z " />
<path stroke="transparent" fill="#000000" transform="matrix(0.0833333 0 0 0.0833333 -165.208 -197)" d="M 4578.03,5517.52 L 4567.22,5534.35 L 4058.29,5207.59 L 4177.87,5260.6 L 4578.03,5517.52 Z " />
<path stroke="transparent" fill="#000000" transform="matrix(0.0833333 0 0 0.0833333 -165.208 -197)" d="M 5406.67,5680.54 L 5393.22,5695.35 L 5038.57,5373.34 L 5052.01,5358.54 L 5406.67,5680.54 Z " />
<path stroke="transparent" fill="#000000" transform="matrix(0.0833333 0 0 0.0833333 -165.208 -197)" d="M 7329.8,3994.84 L 7349.8,4014.94 L 5898.08,4007.42 L 5880.52,3997.33 L 5886.75,3987.36 L 7329.8,3994.84 Z " />
<path stroke="transparent" fill="#000000" transform="matrix(0.0833333 0 0 0.0833333 -165.208 -197)" d="M 6158.93,4447.54 L 6050.37,4498.68 L 5879.37,4023.51 L 5880.52,3997.33 L 5898.08,4007.42 L 6158.93,4447.54 Z " />
<path stroke="transparent" fill="#000000" transform="matrix(0.0833333 0 0 0.0833333 -165.208 -197)" d="M 2038.1,4116.58 L 2024.63,4101.79 L 2483.14,3684.16 L 2489.69,3705.26 L 2038.1,4116.58 Z " />
<path stroke="transparent" fill="#000000" transform="matrix(0.0833333 0 0 0.0833333 -165.208 -197)" d="M 6602.18,3485.17 L 6554.28,3595.19 L 6536.94,3584.91 L 6582.85,3479.48 L 6602.18,3485.17 Z " />
<path stroke="transparent" fill="#000000" transform="matrix(0.0833333 0 0 0.0833333 -165.208 -197)" d="M 6549.8,3469.76 L 6507.31,3567.34 L 6489.97,3557.06 L 6530.46,3464.07 L 6549.8,3469.76 Z " />
<path stroke="transparent" fill="#000000" transform="matrix(0.0833333 0 0 0.0833333 -165.208 -197)" d="M 6497.42,3454.35 L 6460.35,3539.49 L 6443.01,3529.21 L 6478.08,3448.67 L 6497.42,3454.35 Z " />
<path stroke="transparent" fill="#000000" transform="matrix(0.0833333 0 0 0.0833333 -165.208 -197)" d="M 6445.04,3438.95 L 6413.38,3511.64 L 6396.04,3501.36 L 6425.7,3433.26 L 6445.04,3438.95 Z " />
<path stroke="transparent" fill="#000000" transform="matrix(0.0833333 0 0 0.0833333 -165.208 -197)" d="M 6392.65,3423.54 L 6366.42,3483.79 L 6349.08,3473.51 L 6373.32,3417.85 L 6392.65,3423.54 Z " />
<path stroke="transparent" fill="#000000" transform="matrix(0.0833333 0 0 0.0833333 -165.208 -197)" d="M 6340.27,3408.13 L 6319.45,3455.94 L 6302.11,3445.66 L 6320.93,3402.44 L 6340.27,3408.13 Z " />
<path stroke="transparent" fill="#000000" transform="matrix(0.0833333 0 0 0.0833333 -165.208 -197)" d="M 6287.89,3392.72 L 6272.49,3428.09 L 6255.15,3417.81 L 6268.55,3387.03 L 6287.89,3392.72 Z " />
<path stroke="transparent" fill="#000000" transform="matrix(0.0833333 0 0 0.0833333 -165.208 -197)" d="M 6235.5,3377.31 L 6225.52,3400.24 L 6208.18,3389.96 L 6216.17,3371.62 L 6235.5,3377.31 Z " />
<path stroke="transparent" fill="#000000" transform="matrix(0.0833333 0 0 0.0833333 -165.208 -197)" d="M 6152.63,2855.57 L 6162.63,2845.62 L 6172.63,2855.62 L 6172.63,3367.25 L 6152.63,3351.19 L 6152.63,2855.57 Z " />
<path stroke="transparent" fill="#000000" transform="matrix(0.0833333 0 0 0.0833333 -165.208 -197)" d="M 7336.02,2835.62 L 7339.8,2845.62 L 7329.8,2855.62 L 6172.63,2855.62 L 6162.63,2845.62 L 6162.63,2835.62 L 7336.02,2835.62 Z " />
<path stroke="transparent" fill="#000000" transform="matrix(0.0833333 0 0 0.0833333 -165.208 -197)" d="M 4672.63,6214.27 L 4652.63,6214.27 L 4652.63,5703.56 L 4672.63,5703.56 L 4672.63,6214.27 Z " />
<path stroke="transparent" fill="#000000" transform="matrix(0.0833333 0 0 0.0833333 -165.208 -197)" d="M 7329.8,2855.62 L 7339.8,2845.62 L 7349.8,2851.34 L 7349.8,4014.94 L 7329.8,3994.84 L 7329.8,2855.62 Z " />
<path stroke="transparent" fill="#000000" transform="matrix(0.0833333 0 0 0.0833333 -165.208 -197)" d="M 7010.16,3265.35 L 7023.62,3280.14 L 6761.97,3518.33 L 6748.51,3503.54 L 7010.16,3265.35 Z " />
<path stroke="transparent" fill="#000000" transform="matrix(0.0833333 0 0 0.0833333 -165.208 -197)" d="M 7678.07,2525 L 7748.72,2621.99 L 7349.8,2851.34 L 7339.8,2845.62 L 7336.02,2835.62 L 7678.07,2525 Z " />
<path stroke="transparent" fill="#000000" transform="matrix(0.0833333 0 0 0.0833333 -165.208 -197)" d="M 8439.37,2578.91 L 8436.73,2598.73 L 7912.73,2528.98 L 7915.37,2509.15 L 8439.37,2578.91 Z " />
</svg>
