<?xml version="1.0"?><svg xmlns="http://www.w3.org/2000/svg" xmlns:xlink="http://www.w3.org/1999/xlink" viewBox="77.65 128.77 367.9 110.31" preserveAspectRatio="xMidYMid" width="100%" height="100%"><clipPath id="50"><rect x="0.5" y="0.5" width="522.2" height="768.8" /></clipPath><g id="drawing"><rect x="77.65" y="128.77" width="100%" height="100%" fill="rgb(255, 255, 255)" /><g id="page" clip-path="url(#50)"><g><text xml:space="preserve" text-anchor="start" text-rendering="geometricPrecision"><tspan x="77.65" y="137.17" font-family="Arial" font-size="10" fill="rgb(0, 0, 0)">O</tspan></text></g><g><text xml:space="preserve" text-anchor="start" text-rendering="geometricPrecision"><tspan x="155.91" y="182.07" font-family="Arial" font-size="10" fill="rgb(0, 0, 0)">N</tspan></text></g><g id="Solid"><path d="M445.05 133.07 L445.05 133.07 L445.3 133.5 L445.55 133.93 L419.31 149.08 L419.31 148.5 L419.31 147.92 Z" stroke="rgb(0, 0, 0)" stroke-width="0" fill-rule="evenodd" stroke-linejoin="miter" fill="rgb(0, 0, 0)" shape-rendering="geometricPrecision" /></g><g id="Solid"><path d="M419.31 147.92 L419.31 147.92 L419.31 148.5 L419.31 149.08 L393.33 134.08 L393.33 133.5 L393.33 132.92 Z" stroke="rgb(0, 0, 0)" stroke-width="0" fill-rule="evenodd" stroke-linejoin="miter" fill="rgb(0, 0, 0)" shape-rendering="geometricPrecision" /></g><g id="Solid"><path d="M393.33 132.92 L393.33 132.92 L393.33 133.5 L393.33 134.08 L367.35 149.08 L367.35 148.5 L367.35 147.92 Z" stroke="rgb(0, 0, 0)" stroke-width="0" fill-rule="evenodd" stroke-linejoin="miter" fill="rgb(0, 0, 0)" shape-rendering="geometricPrecision" /></g><g id="Solid"><path d="M367.35 147.92 L367.35 147.92 L367.35 148.5 L367.35 149.08 L341.37 134.08 L341.37 133.5 L341.37 132.92 Z" stroke="rgb(0, 0, 0)" stroke-width="0" fill-rule="evenodd" stroke-linejoin="miter" fill="rgb(0, 0, 0)" shape-rendering="geometricPrecision" /></g><g id="Solid"><path d="M341.37 132.92 L341.37 132.92 L341.37 133.5 L341.37 134.08 L315.39 149.08 L315.39 148.5 L315.39 147.92 Z" stroke="rgb(0, 0, 0)" stroke-width="0" fill-rule="evenodd" stroke-linejoin="miter" fill="rgb(0, 0, 0)" shape-rendering="geometricPrecision" /></g><g id="Solid"><path d="M315.39 147.92 L315.39 147.92 L315.39 148.5 L315.39 149.08 L289.41 134.08 L289.41 133.5 L289.41 132.92 Z" stroke="rgb(0, 0, 0)" stroke-width="0" fill-rule="evenodd" stroke-linejoin="miter" fill="rgb(0, 0, 0)" shape-rendering="geometricPrecision" /></g><g id="Solid"><path d="M289.41 132.92 L289.41 132.92 L289.41 133.5 L289.41 134.08 L263.43 149.08 L263.43 148.5 L263.43 147.92 Z" stroke="rgb(0, 0, 0)" stroke-width="0" fill-rule="evenodd" stroke-linejoin="miter" fill="rgb(0, 0, 0)" shape-rendering="geometricPrecision" /></g><g id="Solid"><path d="M263.43 147.92 L263.43 147.92 L263.43 148.5 L263.43 149.08 L237.44 134.08 L237.44 133.5 L237.44 132.92 Z" stroke="rgb(0, 0, 0)" stroke-width="0" fill-rule="evenodd" stroke-linejoin="miter" fill="rgb(0, 0, 0)" shape-rendering="geometricPrecision" /></g><g id="Solid"><path d="M237.44 132.92 L237.44 132.92 L237.44 133.5 L237.44 134.08 L211.46 149.08 L211.46 148.5 L211.46 147.92 Z" stroke="rgb(0, 0, 0)" stroke-width="0" fill-rule="evenodd" stroke-linejoin="miter" fill="rgb(0, 0, 0)" shape-rendering="geometricPrecision" /></g><g id="Solid"><path d="M211.46 147.92 L211.46 147.92 L211.46 148.5 L211.46 149.08 L185.48 134.08 L185.48 133.5 L185.48 132.92 Z" stroke="rgb(0, 0, 0)" stroke-width="0" fill-rule="evenodd" stroke-linejoin="miter" fill="rgb(0, 0, 0)" shape-rendering="geometricPrecision" /></g><g id="Solid"><path d="M185.48 132.92 L185.48 132.92 L185.48 133.5 L185.48 134.08 L160 148.79 L159.5 148.5 L159.5 147.92 Z" stroke="rgb(0, 0, 0)" stroke-width="0" fill-rule="evenodd" stroke-linejoin="miter" fill="rgb(0, 0, 0)" shape-rendering="geometricPrecision" /></g><g id="Solid"><path d="M159.5 147.92 L159.5 147.92 L159.5 148.5 L159 148.79 L133.52 134.08 L133.52 133.5 L133.52 132.92 Z" stroke="rgb(0, 0, 0)" stroke-width="0" fill-rule="evenodd" stroke-linejoin="miter" fill="rgb(0, 0, 0)" shape-rendering="geometricPrecision" /><line x1="155.9" y1="150.58" x2="133.52" y2="137.66" stroke="rgb(0, 0, 0)" stroke-width="1" shape-rendering="auto" /></g><g id="Solid"><path d="M133.52 132.92 L133.52 132.92 L133.52 133.5 L133.52 134.08 L108.04 148.79 L107.54 148.5 L107.04 148.21 Z" stroke="rgb(0, 0, 0)" stroke-width="0" fill-rule="evenodd" stroke-linejoin="miter" fill="rgb(0, 0, 0)" shape-rendering="geometricPrecision" /></g><g id="Solid"><line x1="106.64" y1="150.06" x2="85.83" y2="138.04" stroke="rgb(0, 0, 0)" stroke-width="1" shape-rendering="auto" /><path d="M108.34 147.46 L108.34 147.46 L109.34 146.88 L87.88 134.49 L87.38 135.36 Z" stroke="rgb(0, 0, 0)" stroke-width="0" fill-rule="evenodd" stroke-linejoin="miter" fill="rgb(0, 0, 0)" shape-rendering="geometricPrecision" /><path d="M107.04 150.87 L107.04 150.87 L107.04 149.71 L86.08 137.61 L85.58 138.48 Z" stroke="rgb(0, 0, 0)" stroke-width="0" fill-rule="evenodd" stroke-linejoin="miter" fill="rgb(0, 0, 0)" shape-rendering="geometricPrecision" /></g><g id="Solid"><path d="M107.04 148.21 L107.04 148.21 L107.54 148.5 L108.04 148.79 L108.04 178.21 L107.54 178.5 L107.04 178.21 Z" stroke="rgb(0, 0, 0)" stroke-width="0" fill-rule="evenodd" stroke-linejoin="miter" fill="rgb(0, 0, 0)" shape-rendering="geometricPrecision" /></g><g id="Solid"><path d="M107.04 178.21 L107.04 178.21 L107.54 178.5 L107.54 179.08 L82.06 193.79 L81.56 193.5 L81.06 193.21 Z" stroke="rgb(0, 0, 0)" stroke-width="0" fill-rule="evenodd" stroke-linejoin="miter" fill="rgb(0, 0, 0)" shape-rendering="geometricPrecision" /><line x1="107.54" y1="182.66" x2="85.16" y2="195.58" stroke="rgb(0, 0, 0)" stroke-width="1" shape-rendering="auto" /></g><g id="Solid"><path d="M81.06 193.21 L81.06 193.21 L81.56 193.5 L82.06 193.79 L82.06 223.21 L81.56 223.5 L81.06 223.79 Z" stroke="rgb(0, 0, 0)" stroke-width="0" fill-rule="evenodd" stroke-linejoin="miter" fill="rgb(0, 0, 0)" shape-rendering="geometricPrecision" /></g><g id="Solid"><path d="M81.06 223.79 L81.06 223.79 L81.56 223.5 L82.06 223.21 L107.54 237.92 L107.54 238.5 L107.54 239.08 Z" stroke="rgb(0, 0, 0)" stroke-width="0" fill-rule="evenodd" stroke-linejoin="miter" fill="rgb(0, 0, 0)" shape-rendering="geometricPrecision" /><line x1="85.16" y1="221.42" x2="107.54" y2="234.34" stroke="rgb(0, 0, 0)" stroke-width="1" shape-rendering="auto" /></g><g id="Solid"><path d="M107.54 239.08 L107.54 239.08 L107.54 238.5 L107.54 237.92 L133.02 223.21 L133.52 223.5 L134.02 223.79 Z" stroke="rgb(0, 0, 0)" stroke-width="0" fill-rule="evenodd" stroke-linejoin="miter" fill="rgb(0, 0, 0)" shape-rendering="geometricPrecision" /></g><g id="Solid"><path d="M134.02 223.79 L134.02 223.79 L133.52 223.5 L133.02 223.21 L133.02 193.79 L133.52 193.5 L134.02 193.79 Z" stroke="rgb(0, 0, 0)" stroke-width="0" fill-rule="evenodd" stroke-linejoin="miter" fill="rgb(0, 0, 0)" shape-rendering="geometricPrecision" /><line x1="129.92" y1="221.42" x2="129.92" y2="195.58" stroke="rgb(0, 0, 0)" stroke-width="1" shape-rendering="auto" /></g><g id="Solid"><path d="M107.54 179.08 L107.54 179.08 L107.54 178.5 L108.04 178.21 L133.52 192.92 L133.52 193.5 L133.02 193.79 Z" stroke="rgb(0, 0, 0)" stroke-width="0" fill-rule="evenodd" stroke-linejoin="miter" fill="rgb(0, 0, 0)" shape-rendering="geometricPrecision" /></g><g id="Solid"><path d="M134.02 193.79 L134.02 193.79 L133.52 193.5 L133.52 192.92 L154.72 180.68 L154.97 181.12 L155.22 181.55 Z" stroke="rgb(0, 0, 0)" stroke-width="0" fill-rule="evenodd" stroke-linejoin="miter" fill="rgb(0, 0, 0)" shape-rendering="geometricPrecision" /></g><g id="Solid"><path d="M159 148.79 L159 148.79 L159.5 148.5 L160 148.79 L160 173 L159.5 173 L159 173 Z" stroke="rgb(0, 0, 0)" stroke-width="0" fill-rule="evenodd" stroke-linejoin="miter" fill="rgb(0, 0, 0)" shape-rendering="geometricPrecision" /></g><g id="Solid"><path d="M163.88 181.61 L163.88 181.61 L164.13 181.17 L164.38 180.74 L185.73 193.07 L185.48 193.5 L185.23 193.93 Z" stroke="rgb(0, 0, 0)" stroke-width="0" fill-rule="evenodd" stroke-linejoin="miter" fill="rgb(0, 0, 0)" shape-rendering="geometricPrecision" /></g></g></g></svg>