<?xml version="1.0" standalone="no" ?>
<!DOCTYPE svg PUBLIC "-//W3C//DTD SVG 1.1//EN" "http://www.w3.org/Graphics/SVG/1.1/DTD/svg11.dtd">
<svg width="374px" height="193px" viewBox="0 0 374 193" style="background-color: #ffffff00" xmlns="http://www.w3.org/2000/svg" xmlns:xlink="http://www.w3.org/1999/xlink" version="1.1" >
<text x="0" y="0" stroke="none" fill="#000000" transform="matrix(0.0666667 0 0 0.0666667 206.852 34.4502)" font-style="normal" font-weight="normal" font-size="200px" font-family="Arial" >
OH</text>
<text x="0" y="0" stroke="none" fill="#000000" transform="matrix(0.0666667 0 0 0.0666667 241.894 174.45)" font-style="normal" font-weight="normal" font-size="200px" font-family="Arial" >
N</text>
<text x="0" y="0" stroke="none" fill="#000000" transform="matrix(0.0666667 0 0 0.0666667 172.214 14.4502)" font-style="normal" font-weight="normal" font-size="200px" font-family="Arial" >
OH</text>
<text x="0" y="0" stroke="none" fill="#000000" transform="matrix(0.0666667 0 0 0.0666667 241.494 14.4502)" font-style="normal" font-weight="normal" font-size="200px" font-family="Arial" >
O</text>
<text x="0" y="0" stroke="none" fill="#000000" transform="matrix(0.0666667 0 0 0.0666667 310.779 134.45)" font-style="normal" font-weight="normal" font-size="200px" font-family="Arial" >
OH</text>
<text x="0" y="0" stroke="none" fill="#000000" transform="matrix(0.0666667 0 0 0.0666667 102.929 14.4502)" font-style="normal" font-weight="normal" font-size="200px" font-family="Arial" >
O</text>
<text x="0" y="0" stroke="none" fill="#000000" transform="matrix(0.0666667 0 0 0.0666667 345.816 74.4502)" font-style="normal" font-weight="normal" font-size="200px" font-family="Arial" >
NH</text>
<text x="0" y="0" stroke="none" fill="#000000" transform="matrix(0.0666667 0 0 0.0666667 365.074 77.3835)" font-style="normal" font-weight="normal" font-size="150px" font-family="Arial" >
2</text>
<text x="0" y="0" stroke="none" fill="#000000" transform="matrix(0.0666667 0 0 0.0666667 310.779 14.4502)" font-style="normal" font-weight="normal" font-size="200px" font-family="Arial" >
O</text>
<text x="0" y="0" stroke="none" fill="#000000" transform="matrix(0.0666667 0 0 0.0666667 33.6493 14.4502)" font-style="normal" font-weight="normal" font-size="200px" font-family="Arial" >
OH</text>
<text x="0" y="0" stroke="none" fill="#000000" transform="matrix(0.0666667 0 0 0.0666667 207.252 154.45)" font-style="normal" font-weight="normal" font-size="200px" font-family="Arial" >
H</text>
<text x="0" y="0" stroke="none" fill="#000000" transform="matrix(0.0666667 0 0 0.0666667 137.972 154.45)" font-style="normal" font-weight="normal" font-size="200px" font-family="Arial" >
H</text>
<text x="0" y="0" stroke="none" fill="#000000" transform="matrix(0.0666667 0 0 0.0666667 58.6628 154.45)" font-style="normal" font-weight="normal" font-size="200px" font-family="Arial" >
HO</text>
<path stroke="none" fill="#000000" transform="matrix(0.0666667 0 0 0.0666667 -161.792 -191)" d="M 3009.62,4815.3 L 3009.62,4792.21 L 3519.25,4497.98 L 3529.25,4503.75 L 3529.25,4515.3 L 3009.62,4815.3 Z " />
<path stroke="none" fill="#000000" transform="matrix(0.0666667 0 0 0.0666667 -161.792 -191)" d="M 3014.62,4729.27 L 3004.62,4711.95 L 3452.25,4453.52 L 3462.25,4470.84 L 3014.62,4729.27 Z " />
<path stroke="none" fill="#000000" transform="matrix(0.0666667 0 0 0.0666667 -161.792 -191)" d="M 3519.25,3909.53 L 3529.25,3903.75 L 3539.25,3909.53 L 3539.25,4497.98 L 3529.25,4503.75 L 3519.25,4497.98 L 3519.25,3909.53 Z " />
<path stroke="none" fill="#000000" transform="matrix(0.0666667 0 0 0.0666667 -161.792 -191)" d="M 3009.62,3615.3 L 3009.62,3603.75 L 3019.62,3597.98 L 3529.25,3892.21 L 3529.25,3903.75 L 3519.25,3909.53 L 3009.62,3615.3 Z " />
<path stroke="none" fill="#000000" transform="matrix(0.0666667 0 0 0.0666667 -161.792 -191)" d="M 3004.62,3695.55 L 3014.62,3678.23 L 3462.25,3936.66 L 3452.25,3953.98 L 3004.62,3695.55 Z " />
<path stroke="none" fill="#000000" transform="matrix(0.0666667 0 0 0.0666667 -161.792 -191)" d="M 6127.29,4792.21 L 6127.29,4803.75 L 6116.74,4809.21 L 5619.5,4522.14 L 5607.65,4503.75 L 5617.65,4497.98 L 6127.29,4792.21 Z " />
<path stroke="none" fill="#000000" transform="matrix(0.0666667 0 0 0.0666667 -161.792 -191)" d="M 5667.65,5000.92 L 5547.65,5000.92 L 5595.81,4522.14 L 5607.65,4503.75 L 5619.5,4522.14 L 5667.65,5000.92 Z " />
<path stroke="none" fill="#000000" transform="matrix(0.0666667 0 0 0.0666667 -161.792 -191)" d="M 5597.65,3909.53 L 5607.65,3903.75 L 5617.65,3909.53 L 5617.65,4497.98 L 5607.65,4503.75 L 5597.65,4497.98 L 5597.65,3909.53 Z " />
<path stroke="none" fill="#000000" transform="matrix(0.0666667 0 0 0.0666667 -161.792 -191)" d="M 6127.29,3592.21 L 6127.29,3615.3 L 5617.65,3909.53 L 5607.65,3903.75 L 5619.57,3885.32 L 6127.29,3592.21 Z " />
<path stroke="none" fill="#000000" transform="matrix(0.0666667 0 0 0.0666667 -161.792 -191)" d="M 5547.65,3423.59 L 5667.65,3423.59 L 5619.57,3885.32 L 5607.65,3903.75 L 5595.74,3885.32 L 5547.65,3423.59 Z " />
<path stroke="none" fill="#000000" transform="matrix(0.0666667 0 0 0.0666667 -161.792 -191)" d="M 5088.09,4815.3 L 5088.09,4792.21 L 5597.65,4497.98 L 5607.65,4503.75 L 5595.81,4522.14 L 5088.09,4815.3 Z " />
<path stroke="none" fill="#000000" transform="matrix(0.0666667 0 0 0.0666667 -161.792 -191)" d="M 5088.09,3615.3 L 5088.09,3603.75 L 5098.09,3597.98 L 5595.74,3885.32 L 5607.65,3903.75 L 5597.65,3909.53 L 5088.09,3615.3 Z " />
<path stroke="none" fill="#000000" transform="matrix(0.0666667 0 0 0.0666667 -161.792 -191)" d="M 5078.09,3123.59 L 5098.09,3123.59 L 5098.09,3597.98 L 5088.09,3603.75 L 5078.09,3597.98 L 5078.09,3123.59 Z " />
<path stroke="none" fill="#000000" transform="matrix(0.0666667 0 0 0.0666667 -161.792 -191)" d="M 4580.3,4522.14 L 4568.45,4503.75 L 4578.45,4497.98 L 5088.09,4792.21 L 5088.09,4815.3 L 4580.3,4522.14 Z " />
<path stroke="none" fill="#000000" transform="matrix(0.0666667 0 0 0.0666667 -161.792 -191)" d="M 4628.45,5000.92 L 4508.45,5000.92 L 4556.61,4522.14 L 4568.45,4503.75 L 4580.3,4522.14 L 4628.45,5000.92 Z " />
<path stroke="none" fill="#000000" transform="matrix(0.0666667 0 0 0.0666667 -161.792 -191)" d="M 4558.45,3909.53 L 4568.45,3903.75 L 4578.45,3909.53 L 4578.45,4497.98 L 4568.45,4503.75 L 4558.45,4497.98 L 4558.45,3909.53 Z " />
<path stroke="none" fill="#000000" transform="matrix(0.0666667 0 0 0.0666667 -161.792 -191)" d="M 4578.45,3909.53 L 4568.45,3903.75 L 4568.45,3892.21 L 5078.09,3597.98 L 5088.09,3603.75 L 5088.09,3615.3 L 4578.45,3909.53 Z " />
<path stroke="none" fill="#000000" transform="matrix(0.0666667 0 0 0.0666667 -161.792 -191)" d="M 4645.46,3953.98 L 4635.46,3936.66 L 5083.09,3678.23 L 5093.09,3695.55 L 4645.46,3953.98 Z " />
<path stroke="none" fill="#000000" transform="matrix(0.0666667 0 0 0.0666667 -161.792 -191)" d="M 4048.82,3615.3 L 4048.82,3592.21 L 4568.45,3892.21 L 4568.45,3903.75 L 4558.45,3909.53 L 4048.82,3615.3 Z " />
<path stroke="none" fill="#000000" transform="matrix(0.0666667 0 0 0.0666667 -161.792 -191)" d="M 3539.25,3909.53 L 3529.25,3903.75 L 3529.25,3892.21 L 4048.82,3592.21 L 4048.82,3615.3 L 3539.25,3909.53 Z " />
<path stroke="none" fill="#000000" transform="matrix(0.0666667 0 0 0.0666667 -161.792 -191)" d="M 4002.82,3123.59 L 4022.82,3123.59 L 4022.82,3624.54 L 4002.82,3624.54 L 4002.82,3123.59 Z " />
<path stroke="none" fill="#000000" transform="matrix(0.0666667 0 0 0.0666667 -161.792 -191)" d="M 4074.82,3123.59 L 4094.82,3123.59 L 4094.82,3624.54 L 4074.82,3624.54 L 4074.82,3123.59 Z " />
<path stroke="none" fill="#000000" transform="matrix(0.0666667 0 0 0.0666667 -161.792 -191)" d="M 4059.28,4809.26 L 4048.82,4803.75 L 4048.82,4792.21 L 4558.45,4497.98 L 4568.45,4503.75 L 4556.61,4522.14 L 4059.28,4809.26 Z " />
<path stroke="none" fill="#000000" transform="matrix(0.0666667 0 0 0.0666667 -161.792 -191)" d="M 3529.25,4515.3 L 3529.25,4503.75 L 3539.25,4497.98 L 4048.82,4792.21 L 4048.82,4803.75 L 4028.82,4803.75 L 3529.25,4515.3 Z " />
<path stroke="none" fill="#000000" transform="matrix(0.0666667 0 0 0.0666667 -161.792 -191)" d="M 4108.82,5403.75 L 3988.82,5403.75 L 4037.3,4821.95 L 4048.82,4803.75 L 4059.28,4809.26 L 4108.82,5403.75 Z " />
<path stroke="none" fill="#000000" transform="matrix(0.0666667 0 0 0.0666667 -161.792 -191)" d="M 3626.86,5058.94 L 3616.86,5041.62 L 4028.82,4803.75 L 4048.82,4803.75 L 4037.3,4821.95 L 3626.86,5058.94 Z " />
<path stroke="none" fill="#000000" transform="matrix(0.0666667 0 0 0.0666667 -161.792 -191)" d="M 6636.93,4497.98 L 6646.93,4503.75 L 6646.93,4515.3 L 6137.84,4809.21 L 6127.29,4803.75 L 6127.29,4792.21 L 6636.93,4497.98 Z " />
<path stroke="none" fill="#000000" transform="matrix(0.0666667 0 0 0.0666667 -161.792 -191)" d="M 6187.29,5300.92 L 6067.29,5300.92 L 6116.74,4809.21 L 6127.29,4803.75 L 6137.84,4809.21 L 6187.29,5300.92 Z " />
<path stroke="none" fill="#000000" transform="matrix(0.0666667 0 0 0.0666667 -161.792 -191)" d="M 6646.93,3892.21 L 6646.93,3903.75 L 6636.93,3909.53 L 6127.29,3615.3 L 6127.29,3592.21 L 6646.93,3892.21 Z " />
<path stroke="none" fill="#000000" transform="matrix(0.0666667 0 0 0.0666667 -161.792 -191)" d="M 6081.29,3123.59 L 6101.29,3123.59 L 6101.29,3624.54 L 6081.29,3624.54 L 6081.29,3123.59 Z " />
<path stroke="none" fill="#000000" transform="matrix(0.0666667 0 0 0.0666667 -161.792 -191)" d="M 6153.29,3123.59 L 6173.29,3123.59 L 6173.29,3624.54 L 6153.29,3624.54 L 6153.29,3123.59 Z " />
<path stroke="none" fill="#000000" transform="matrix(0.0666667 0 0 0.0666667 -161.792 -191)" d="M 7078.94,4741.62 L 7068.94,4758.94 L 6646.93,4515.3 L 6646.93,4503.75 L 6656.93,4497.98 L 7078.94,4741.62 Z " />
<path stroke="none" fill="#000000" transform="matrix(0.0666667 0 0 0.0666667 -161.792 -191)" d="M 6636.93,3909.53 L 6646.93,3903.75 L 6656.93,3909.53 L 6656.93,4497.98 L 6646.93,4503.75 L 6636.93,4497.98 L 6636.93,3909.53 Z " />
<path stroke="none" fill="#000000" transform="matrix(0.0666667 0 0 0.0666667 -161.792 -191)" d="M 6564.93,3945.32 L 6584.93,3945.32 L 6584.93,4462.18 L 6564.93,4462.18 L 6564.93,3945.32 Z " />
<path stroke="none" fill="#000000" transform="matrix(0.0666667 0 0 0.0666667 -161.792 -191)" d="M 6651.93,5695.09 L 6641.93,5712.41 L 6232.35,5475.95 L 6242.35,5458.63 L 6651.93,5695.09 Z " />
<path stroke="none" fill="#000000" transform="matrix(0.0666667 0 0 0.0666667 -161.792 -191)" d="M 5612.65,5712.41 L 5602.65,5695.09 L 6012.24,5458.63 L 6022.24,5475.95 L 5612.65,5712.41 Z " />
<path stroke="none" fill="#000000" transform="matrix(0.0666667 0 0 0.0666667 -161.792 -191)" d="M 7166.56,3592.21 L 7166.56,3615.3 L 6656.93,3909.53 L 6646.93,3903.75 L 6646.93,3892.21 L 7166.56,3592.21 Z " />
<path stroke="none" fill="#000000" transform="matrix(0.0666667 0 0 0.0666667 -161.792 -191)" d="M 7587.28,3835.13 L 7577.28,3852.45 L 7166.56,3615.3 L 7166.56,3592.21 L 7587.28,3835.13 Z " />
<path stroke="none" fill="#000000" transform="matrix(0.0666667 0 0 0.0666667 -161.792 -191)" d="M 7120.56,3123.59 L 7140.56,3123.59 L 7140.56,3624.54 L 7120.56,3624.54 L 7120.56,3123.59 Z " />
<path stroke="none" fill="#000000" transform="matrix(0.0666667 0 0 0.0666667 -161.792 -191)" d="M 7192.56,3123.59 L 7212.56,3123.59 L 7212.56,3624.54 L 7192.56,3624.54 L 7192.56,3123.59 Z " />
<path stroke="none" fill="#000000" transform="matrix(0.0666667 0 0 0.0666667 -161.792 -191)" d="M 2479.98,4509.53 L 2499.98,4497.98 L 3009.62,4792.21 L 3009.62,4815.3 L 2479.98,4509.53 Z " />
<path stroke="none" fill="#000000" transform="matrix(0.0666667 0 0 0.0666667 -161.792 -191)" d="M 2499.98,3909.53 L 2479.98,3897.98 L 2999.62,3597.98 L 3009.62,3603.75 L 3009.62,3615.3 L 2499.98,3909.53 Z " />
<path stroke="none" fill="#000000" transform="matrix(0.0666667 0 0 0.0666667 -161.792 -191)" d="M 2999.62,3123.59 L 3019.62,3123.59 L 3019.62,3597.98 L 3009.62,3603.75 L 2999.62,3597.98 L 2999.62,3123.59 Z " />
<path stroke="none" fill="#000000" transform="matrix(0.0666667 0 0 0.0666667 -161.792 -191)" d="M 2479.98,3897.98 L 2499.98,3909.53 L 2499.98,4497.98 L 2479.98,4509.53 L 2479.98,3897.98 Z " />
<path stroke="none" fill="#000000" transform="matrix(0.0666667 0 0 0.0666667 -161.792 -191)" d="M 2551.98,3945.32 L 2571.98,3945.32 L 2571.98,4462.18 L 2551.98,4462.18 L 2551.98,3945.32 Z " />
</svg>
