<?xml version="1.0" standalone="no" ?>
<!DOCTYPE svg PUBLIC "-//W3C//DTD SVG 1.1//EN" "http://www.w3.org/Graphics/SVG/1.1/DTD/svg11.dtd">
<svg width="361px" height="409px" viewBox="0 0 361 409" style="background-color: #ffffff00" xmlns="http://www.w3.org/2000/svg" xmlns:xlink="http://www.w3.org/1999/xlink" version="1.1" >
<text x="0" y="0" stroke="transparent" fill="#000000" transform="matrix(0.0833333 0 0 0.0833333 306.961 318.409)" style="font:normal normal normal 200px 'Arial'" >
O</text>
<text x="0" y="0" stroke="transparent" fill="#000000" transform="matrix(0.0833333 0 0 0.0833333 306.958 18.4025)" style="font:normal normal normal 200px 'Arial'" >
OH</text>
<text x="0" y="0" stroke="transparent" fill="#000000" transform="matrix(0.0833333 0 0 0.0833333 177.052 243.406)" style="font:normal normal normal 200px 'Arial'" >
OH</text>
<text x="0" y="0" stroke="transparent" fill="#000000" transform="matrix(0.0833333 0 0 0.0833333 90.4491 393.407)" style="font:normal normal normal 200px 'Arial'" >
O</text>
<path stroke="transparent" fill="#000000" transform="matrix(0.0833333 0 0 0.0833333 -134 -123)" d="M 2241.77,5808.89 L 2251.77,5818.89 L 2234.46,5828.89 L 1651.76,5828.88 L 1651.76,5808.88 L 2241.77,5808.89 Z " />
<path stroke="transparent" fill="#000000" transform="matrix(0.0833333 0 0 0.0833333 -134 -123)" d="M 1960.5,6343.54 L 1943.18,6333.54 L 2234.46,5828.89 L 2251.77,5818.89 L 2255.43,5832.55 L 1960.5,6343.54 Z " />
<path stroke="transparent" fill="#000000" transform="matrix(0.0833333 0 0 0.0833333 -134 -123)" d="M 2241.78,5213.09 L 2261.78,5224.64 L 2261.77,5813.11 L 2251.77,5818.89 L 2241.77,5808.89 L 2241.78,5213.09 Z " />
<path stroke="transparent" fill="#000000" transform="matrix(0.0833333 0 0 0.0833333 -134 -123)" d="M 2771.37,4907.37 L 2771.37,4930.46 L 2261.78,5224.64 L 2241.78,5213.09 L 2771.37,4907.37 Z " />
<path stroke="transparent" fill="#000000" transform="matrix(0.0833333 0 0 0.0833333 -134 -123)" d="M 2766.37,4993.38 L 2776.37,5010.7 L 2328.78,5269.1 L 2318.78,5251.78 L 2766.37,4993.38 Z " />
<path stroke="transparent" fill="#000000" transform="matrix(0.0833333 0 0 0.0833333 -134 -123)" d="M 3290.99,5207.36 L 3290.99,5218.91 L 3280.99,5224.69 L 2771.37,4930.46 L 2771.37,4907.37 L 3290.99,5207.36 Z " />
<path stroke="transparent" fill="#000000" transform="matrix(0.0833333 0 0 0.0833333 -134 -123)" d="M 3301.01,5813.09 L 3291.01,5818.87 L 3281.01,5813.09 L 3280.99,5224.69 L 3290.99,5218.91 L 3300.99,5224.68 L 3301.01,5813.09 Z " />
<path stroke="transparent" fill="#000000" transform="matrix(0.0833333 0 0 0.0833333 -134 -123)" d="M 3373.01,5777.3 L 3353.01,5777.3 L 3352.99,5260.47 L 3372.99,5260.47 L 3373.01,5777.3 Z " />
<path stroke="transparent" fill="#000000" transform="matrix(0.0833333 0 0 0.0833333 -134 -123)" d="M 3810.63,6107.32 L 3810.63,6130.41 L 3291.01,5830.41 L 3291.01,5818.87 L 3301.01,5813.09 L 3810.63,6107.32 Z " />
<path stroke="transparent" fill="#000000" transform="matrix(0.0833333 0 0 0.0833333 -134 -123)" d="M 4320.28,5813.17 L 4340.28,5824.72 L 3810.63,6130.41 L 3810.63,6107.32 L 4320.28,5813.17 Z " />
<path stroke="transparent" fill="#000000" transform="matrix(0.0833333 0 0 0.0833333 -134 -123)" d="M 4253.28,5768.71 L 4263.28,5786.03 L 3815.63,6044.39 L 3805.64,6027.07 L 4253.28,5768.71 Z " />
<path stroke="transparent" fill="#000000" transform="matrix(0.0833333 0 0 0.0833333 -134 -123)" d="M 4320.27,5224.6 L 4330.27,5218.83 L 4340.27,5224.61 L 4340.28,5824.72 L 4320.28,5813.17 L 4320.27,5224.6 Z " />
<path stroke="transparent" fill="#000000" transform="matrix(0.0833333 0 0 0.0833333 -134 -123)" d="M 4839.92,4913.14 L 4859.92,4924.69 L 4340.27,5224.61 L 4330.27,5218.83 L 4330.27,5207.28 L 4839.92,4913.14 Z " />
<path stroke="transparent" fill="#000000" transform="matrix(0.0833333 0 0 0.0833333 -134 -123)" d="M 5299.91,5125.6 L 5289.91,5142.92 L 4844.91,4886 L 4854.91,4868.68 L 5299.91,5125.6 Z " />
<path stroke="transparent" fill="#000000" transform="matrix(0.0833333 0 0 0.0833333 -134 -123)" d="M 5263.91,5187.95 L 5253.91,5205.28 L 4808.91,4948.35 L 4818.91,4931.03 L 5263.91,5187.95 Z " />
<path stroke="transparent" fill="#000000" transform="matrix(0.0833333 0 0 0.0833333 -134 -123)" d="M 4839.87,4313.08 L 4859.87,4324.63 L 4859.92,4924.69 L 4839.92,4913.14 L 4839.87,4313.08 Z " />
<path stroke="transparent" fill="#000000" transform="matrix(0.0833333 0 0 0.0833333 -134 -123)" d="M 5359.55,4013.1 L 5379.56,4024.65 L 4859.87,4324.63 L 4839.87,4313.08 L 5359.55,4013.1 Z " />
<path stroke="transparent" fill="#000000" transform="matrix(0.0833333 0 0 0.0833333 -134 -123)" d="M 5292.55,3968.64 L 5302.54,3985.96 L 4818.87,4265.16 L 4808.87,4247.83 L 5292.55,3968.64 Z " />
<path stroke="transparent" fill="#000000" transform="matrix(0.0833333 0 0 0.0833333 -134 -123)" d="M 5359.5,3424.6 L 5369.5,3418.82 L 5379.5,3424.6 L 5379.56,4024.65 L 5359.55,4013.1 L 5359.5,3424.6 Z " />
<path stroke="transparent" fill="#000000" transform="matrix(0.0833333 0 0 0.0833333 -134 -123)" d="M 5879.15,3113.13 L 5899.16,3124.68 L 5379.5,3424.6 L 5369.5,3418.82 L 5369.5,3407.27 L 5879.15,3113.13 Z " />
<path stroke="transparent" fill="#000000" transform="matrix(0.0833333 0 0 0.0833333 -134 -123)" d="M 5812.15,3068.67 L 5822.15,3085.99 L 5374.51,3344.35 L 5364.51,3327.03 L 5812.15,3068.67 Z " />
<path stroke="transparent" fill="#000000" transform="matrix(0.0833333 0 0 0.0833333 -134 -123)" d="M 5879.1,2524.62 L 5899.1,2513.07 L 5899.16,3124.68 L 5879.15,3113.13 L 5879.1,2524.62 Z " />
<path stroke="transparent" fill="#000000" transform="matrix(0.0833333 0 0 0.0833333 -134 -123)" d="M 5369.49,2230.39 L 5369.49,2218.85 L 5379.49,2213.07 L 5899.1,2513.07 L 5879.1,2524.62 L 5369.49,2230.39 Z " />
<path stroke="transparent" fill="#000000" transform="matrix(0.0833333 0 0 0.0833333 -134 -123)" d="M 5364.49,2310.65 L 5374.49,2293.33 L 5822.11,2551.76 L 5812.11,2569.08 L 5364.49,2310.65 Z " />
<path stroke="transparent" fill="#000000" transform="matrix(0.0833333 0 0 0.0833333 -134 -123)" d="M 5359.5,1738.66 L 5379.5,1738.66 L 5379.49,2213.07 L 5369.49,2218.85 L 5359.49,2213.07 L 5359.5,1738.66 Z " />
<path stroke="transparent" fill="#000000" transform="matrix(0.0833333 0 0 0.0833333 -134 -123)" d="M 4859.86,2524.64 L 4839.86,2513.09 L 5359.49,2213.07 L 5369.49,2218.85 L 5369.49,2230.39 L 4859.86,2524.64 Z " />
<path stroke="transparent" fill="#000000" transform="matrix(0.0833333 0 0 0.0833333 -134 -123)" d="M 4859.89,3113.05 L 4839.89,3124.59 L 4839.86,2513.09 L 4859.86,2524.64 L 4859.89,3113.05 Z " />
<path stroke="transparent" fill="#000000" transform="matrix(0.0833333 0 0 0.0833333 -134 -123)" d="M 4931.88,3077.25 L 4911.88,3077.25 L 4911.86,2560.43 L 4931.86,2560.43 L 4931.88,3077.25 Z " />
<path stroke="transparent" fill="#000000" transform="matrix(0.0833333 0 0 0.0833333 -134 -123)" d="M 4839.89,3124.59 L 4859.89,3113.05 L 5369.5,3407.27 L 5369.5,3418.82 L 5359.5,3424.6 L 4839.89,3124.59 Z " />
<path stroke="transparent" fill="#000000" transform="matrix(0.0833333 0 0 0.0833333 -134 -123)" d="M 3810.65,4930.38 L 3810.65,4918.83 L 3820.65,4913.06 L 4330.27,5207.28 L 4330.27,5218.83 L 4320.27,5224.6 L 3810.65,4930.38 Z " />
<path stroke="transparent" fill="#000000" transform="matrix(0.0833333 0 0 0.0833333 -134 -123)" d="M 3805.65,5010.63 L 3815.65,4993.31 L 4263.27,5251.74 L 4253.27,5269.06 L 3805.65,5010.63 Z " />
<path stroke="transparent" fill="#000000" transform="matrix(0.0833333 0 0 0.0833333 -134 -123)" d="M 3800.65,4913.06 L 3810.65,4918.83 L 3810.65,4930.38 L 3300.99,5224.68 L 3290.99,5218.91 L 3290.99,5207.36 L 3800.65,4913.06 Z " />
<path stroke="transparent" fill="#000000" transform="matrix(0.0833333 0 0 0.0833333 -134 -123)" d="M 3800.63,4438.71 L 3820.63,4438.71 L 3820.65,4913.06 L 3810.65,4918.83 L 3800.65,4913.06 L 3800.63,4438.71 Z " />
<path stroke="transparent" fill="#000000" transform="matrix(0.0833333 0 0 0.0833333 -134 -123)" d="M 2869.01,6074.07 L 2859.01,6056.75 L 3281.01,5813.09 L 3291.01,5818.87 L 3291.01,5830.41 L 2869.01,6074.07 Z " />
<path stroke="transparent" fill="#000000" transform="matrix(0.0833333 0 0 0.0833333 -134 -123)" d="M 2683.77,6056.75 L 2673.77,6074.07 L 2255.43,5832.55 L 2251.77,5818.89 L 2261.77,5813.11 L 2683.77,6056.75 Z " />
</svg>
