<?xml version="1.0" standalone="no" ?>
<!DOCTYPE svg PUBLIC "-//W3C//DTD SVG 1.1//EN" "http://www.w3.org/Graphics/SVG/1.1/DTD/svg11.dtd">
<svg width="274px" height="203px" viewBox="0 0 274 203" style="background-color: #ffffff00" xmlns="http://www.w3.org/2000/svg" xmlns:xlink="http://www.w3.org/1999/xlink" version="1.1" >
<text x="0" y="0" stroke="transparent" fill="#000000" transform="matrix(0.0666667 0 0 0.0666667 230.435 104.886)" style="font:normal normal normal 200px 'Arial'" >
O</text>
<text x="0" y="0" stroke="transparent" fill="#000000" transform="matrix(0.0666667 0 0 0.0666667 195.794 44.8843)" style="font:normal normal normal 200px 'Arial'" >
O</text>
<text x="0" y="0" stroke="transparent" fill="#000000" transform="matrix(0.0666667 0 0 0.0666667 161.553 144.886)" style="font:normal normal normal 200px 'Arial'" >
N</text>
<text x="0" y="0" stroke="transparent" fill="#000000" transform="matrix(0.0666667 0 0 0.0666667 57.2312 164.883)" style="font:normal normal normal 200px 'Arial'" >
O</text>
<text x="0" y="0" stroke="transparent" fill="#000000" transform="matrix(0.0666667 0 0 0.0666667 118.596 45.7603)" style="font:normal normal normal 200px 'Arial'" >
NH</text>
<path stroke="transparent" fill="#000000" transform="matrix(0.0666667 0 0 0.0666667 -211.853 -308)" d="M 6809.94,6070.47 L 6799.94,6053.15 L 7226.93,5806.62 L 7236.93,5823.94 L 6809.94,6070.47 Z " />
<path stroke="transparent" fill="#000000" transform="matrix(0.0666667 0 0 0.0666667 -211.853 -308)" d="M 6192.71,5826.82 L 6192.71,5803.73 L 6624.7,6053.15 L 6614.7,6070.47 L 6192.71,5826.82 Z " />
<path stroke="transparent" fill="#000000" transform="matrix(0.0666667 0 0 0.0666667 -211.853 -308)" d="M 6146.71,5335.1 L 6166.71,5335.1 L 6166.71,5836.06 L 6146.71,5836.06 L 6146.71,5335.1 Z " />
<path stroke="transparent" fill="#000000" transform="matrix(0.0666667 0 0 0.0666667 -211.853 -308)" d="M 6218.71,5335.1 L 6238.71,5335.1 L 6238.71,5836.06 L 6218.71,5836.06 L 6218.71,5335.1 Z " />
<path stroke="transparent" fill="#000000" transform="matrix(0.0666667 0 0 0.0666667 -211.853 -308)" d="M 5683.1,6121.06 L 5673.1,6115.28 L 5673.1,6103.74 L 6192.71,5803.73 L 6192.71,5826.82 L 5683.1,6121.06 Z " />
<path stroke="transparent" fill="#000000" transform="matrix(0.0666667 0 0 0.0666667 -211.853 -308)" d="M 5683.1,6612.46 L 5663.1,6612.46 L 5663.1,6121.06 L 5673.1,6115.28 L 5683.1,6121.06 L 5683.1,6612.46 Z " />
<path stroke="transparent" fill="#000000" transform="matrix(0.0666667 0 0 0.0666667 -211.853 -308)" d="M 5611.1,6612.46 L 5591.1,6612.46 L 5591.1,6156.85 L 5611.1,6156.85 L 5611.1,6612.46 Z " />
<path stroke="transparent" fill="#000000" transform="matrix(0.0666667 0 0 0.0666667 -211.853 -308)" d="M 5153.49,7026.85 L 5153.49,7003.75 L 5558.05,6770.18 L 5568.05,6787.5 L 5153.49,7026.85 Z " />
<path stroke="transparent" fill="#000000" transform="matrix(0.0666667 0 0 0.0666667 -211.853 -308)" d="M 4633.88,6726.78 L 4633.88,6715.24 L 4643.88,6709.46 L 5153.49,7003.75 L 5153.49,7026.85 L 4633.88,6726.78 Z " />
<path stroke="transparent" fill="#000000" transform="matrix(0.0666667 0 0 0.0666667 -211.853 -308)" d="M 4700.88,6682.33 L 4710.88,6665.01 L 5158.49,6923.5 L 5148.49,6940.82 L 4700.88,6682.33 Z " />
<path stroke="transparent" fill="#000000" transform="matrix(0.0666667 0 0 0.0666667 -211.853 -308)" d="M 4211.89,6970.43 L 4201.89,6953.11 L 4623.88,6709.46 L 4633.88,6715.24 L 4633.88,6726.78 L 4211.89,6970.43 Z " />
<path stroke="transparent" fill="#000000" transform="matrix(0.0666667 0 0 0.0666667 -211.853 -308)" d="M 4124.27,7615.26 L 4104.27,7615.26 L 4104.27,7135.07 L 4124.27,7135.07 L 4124.27,7615.26 Z " />
<path stroke="transparent" fill="#000000" transform="matrix(0.0666667 0 0 0.0666667 -211.853 -308)" d="M 4623.88,6119.68 L 4633.88,6115.22 L 4643.88,6121 L 4643.88,6709.46 L 4633.88,6715.24 L 4623.88,6709.46 L 4623.88,6119.68 Z " />
<path stroke="transparent" fill="#000000" transform="matrix(0.0666667 0 0 0.0666667 -211.853 -308)" d="M 5142.2,5810.25 L 5153.49,5815.28 L 5153.49,5826.82 L 4643.88,6121 L 4633.88,6115.22 L 4635.17,6102.93 L 5142.2,5810.25 Z " />
<path stroke="transparent" fill="#000000" transform="matrix(0.0666667 0 0 0.0666667 -211.853 -308)" d="M 5148.49,5889.75 L 5158.49,5907.07 L 4710.87,6165.45 L 4700.88,6148.13 L 5148.49,5889.75 Z " />
<path stroke="transparent" fill="#000000" transform="matrix(0.0666667 0 0 0.0666667 -211.853 -308)" d="M 5153.49,5826.82 L 5153.49,5815.28 L 5162.35,5808.84 L 5673.1,6103.74 L 5673.1,6115.28 L 5663.1,6121.06 L 5153.49,5826.82 Z " />
<path stroke="transparent" fill="#000000" transform="matrix(0.0666667 0 0 0.0666667 -211.853 -308)" d="M 5045.4,5354.83 L 5064.96,5350.67 L 5162.35,5808.84 L 5153.49,5815.28 L 5142.2,5810.25 L 5045.4,5354.83 Z " />
<path stroke="transparent" fill="#000000" transform="matrix(0.0666667 0 0 0.0666667 -211.853 -308)" d="M 4438.22,5176.41 L 4432.04,5165.7 L 4437.51,5156.22 L 4934.62,5208.46 L 4932.53,5228.35 L 4438.22,5176.41 Z " />
<path stroke="transparent" fill="#000000" transform="matrix(0.0666667 0 0 0.0666667 -211.853 -308)" d="M 4074.65,4690.84 L 4084.04,4669.74 L 4437.51,5156.22 L 4432.04,5165.7 L 4420.55,5166.91 L 4074.65,4690.84 Z " />
<path stroke="transparent" fill="#000000" transform="matrix(0.0666667 0 0 0.0666667 -211.853 -308)" d="M 4037.44,4762.12 L 4053.62,4750.37 L 4357.44,5168.52 L 4341.26,5180.27 L 4037.44,4762.12 Z " />
<path stroke="transparent" fill="#000000" transform="matrix(0.0666667 0 0 0.0666667 -211.853 -308)" d="M 3489.42,4752.34 L 3475.85,4733.65 L 4084.04,4669.74 L 4074.65,4690.84 L 3489.42,4752.34 Z " />
<path stroke="transparent" fill="#000000" transform="matrix(0.0666667 0 0 0.0666667 -211.853 -308)" d="M 3250.03,5289.9 L 3227.07,5292.31 L 3475.85,4733.65 L 3489.42,4752.34 L 3250.03,5289.9 Z " />
<path stroke="transparent" fill="#000000" transform="matrix(0.0666667 0 0 0.0666667 -211.853 -308)" d="M 3330.37,5286.49 L 3312.1,5278.35 L 3522.36,4806.19 L 3540.63,4814.32 L 3330.37,5286.49 Z " />
<path stroke="transparent" fill="#000000" transform="matrix(0.0666667 0 0 0.0666667 -211.853 -308)" d="M 3595.93,5765.97 L 3586.54,5787.06 L 3227.07,5292.31 L 3250.03,5289.9 L 3595.93,5765.97 Z " />
<path stroke="transparent" fill="#000000" transform="matrix(0.0666667 0 0 0.0666667 -211.853 -308)" d="M 4181.22,5704.47 L 4188.01,5713.81 L 4184.63,5724.22 L 3586.54,5787.06 L 3595.93,5765.97 L 4181.22,5704.47 Z " />
<path stroke="transparent" fill="#000000" transform="matrix(0.0666667 0 0 0.0666667 -211.853 -308)" d="M 4138.09,5636.6 L 4140.18,5656.49 L 3626.1,5710.5 L 3624.01,5690.61 L 4138.09,5636.6 Z " />
<path stroke="transparent" fill="#000000" transform="matrix(0.0666667 0 0 0.0666667 -211.853 -308)" d="M 4200.1,5711.24 L 4188.01,5713.81 L 4181.22,5704.47 L 4420.55,5166.91 L 4432.04,5165.7 L 4438.22,5176.41 L 4200.1,5711.24 Z " />
<path stroke="transparent" fill="#000000" transform="matrix(0.0666667 0 0 0.0666667 -211.853 -308)" d="M 4184.63,5724.22 L 4188.01,5713.81 L 4200.1,5711.24 L 4635.17,6102.93 L 4633.88,6115.22 L 4623.88,6119.68 L 4184.63,5724.22 Z " />
</svg>
