<?xml version="1.0" standalone="no" ?>
<!DOCTYPE svg PUBLIC "-//W3C//DTD SVG 1.1//EN" "http://www.w3.org/Graphics/SVG/1.1/DTD/svg11.dtd">
<svg width="780px" height="304px" viewBox="0 0 780 304" style="background-color: #ffffff00" xmlns="http://www.w3.org/2000/svg" xmlns:xlink="http://www.w3.org/1999/xlink" version="1.1" >
<path stroke="transparent" fill="#000000" transform="matrix(0.0833333 0 0 0.0833333 -45.25 -218)" d="M 5950.48,4194.61 L 6070.48,4194.61 L 6022,4776.44 L 6010.48,4794.61 L 5998.97,4776.39 L 5950.48,4194.61 Z " />
<path stroke="transparent" fill="#000000" transform="matrix(0.0833333 0 0 0.0833333 -45.25 -218)" d="M 6020.48,4800.39 L 6010.48,4794.61 L 6022,4776.44 L 6520.43,4489.39 L 6530.43,4495.18 L 6531.56,4506.06 L 6020.48,4800.39 Z " />
<path stroke="transparent" fill="#000000" transform="matrix(0.0833333 0 0 0.0833333 -45.25 -218)" d="M 5998.97,4776.39 L 6010.48,4794.61 L 6000.48,4800.37 L 5491.18,4505.59 L 5491.19,4494.05 L 5501.2,4488.29 L 5998.97,4776.39 Z " />
<path stroke="transparent" fill="#000000" transform="matrix(0.0833333 0 0 0.0833333 -45.25 -218)" d="M 6019.79,5400.38 L 5999.8,5388.81 L 6000.48,4800.37 L 6010.48,4794.61 L 6020.48,4800.39 L 6019.79,5400.38 Z " />
<path stroke="transparent" fill="#000000" transform="matrix(0.0833333 0 0 0.0833333 -45.25 -218)" d="M 5999.8,5388.81 L 6019.79,5400.38 L 5489.84,5705.57 L 5489.87,5682.48 L 5999.8,5388.81 Z " />
<path stroke="transparent" fill="#000000" transform="matrix(0.0833333 0 0 0.0833333 -45.25 -218)" d="M 5489.87,5682.48 L 5489.84,5705.57 L 4970.55,5405.01 L 4970.56,5393.47 L 4980.57,5387.7 L 5489.87,5682.48 Z " />
<path stroke="transparent" fill="#000000" transform="matrix(0.0833333 0 0 0.0833333 -45.25 -218)" d="M 4980.57,5387.7 L 4970.56,5393.47 L 4960.57,5387.68 L 4961.25,4799.21 L 4971.26,4793.44 L 4981.25,4799.23 L 4980.57,5387.7 Z " />
<path stroke="transparent" fill="#000000" transform="matrix(0.0833333 0 0 0.0833333 -45.25 -218)" d="M 4464.29,5696.54 L 4450.63,5692.86 L 4450.65,5681.31 L 4960.57,5387.68 L 4970.56,5393.47 L 4970.55,5405.01 L 4464.29,5696.54 Z " />
<path stroke="transparent" fill="#000000" transform="matrix(0.0833333 0 0 0.0833333 -45.25 -218)" d="M 4158.73,6217.16 L 4141.42,6207.14 L 4436.97,5696.51 L 4450.63,5692.86 L 4450.61,5712.86 L 4158.73,6217.16 Z " />
<path stroke="transparent" fill="#000000" transform="matrix(0.0833333 0 0 0.0833333 -45.25 -218)" d="M 4758.73,6207.81 L 4741.4,6217.79 L 4450.61,5712.86 L 4450.63,5692.86 L 4464.29,5696.54 L 4758.73,6207.81 Z " />
<path stroke="transparent" fill="#000000" transform="matrix(0.0833333 0 0 0.0833333 -45.25 -218)" d="M 4450.65,5681.31 L 4450.63,5692.86 L 4436.97,5696.51 L 3931.92,5404.18 L 3931.38,5392.31 L 3941.38,5386.55 L 4450.65,5681.31 Z " />
<path stroke="transparent" fill="#000000" transform="matrix(0.0833333 0 0 0.0833333 -45.25 -218)" d="M 3283.18,4497.12 L 3343.07,4601.11 L 2902.83,4797.59 L 2892.84,4791.16 L 2892.29,4779.29 L 3283.18,4497.12 Z " />
<path stroke="transparent" fill="#000000" transform="matrix(0.0833333 0 0 0.0833333 -45.25 -218)" d="M 2882.83,4796.92 L 2892.84,4791.16 L 2902.83,4797.59 L 2902.19,5396.94 L 2882.2,5385.37 L 2882.83,4796.92 Z " />
<path stroke="transparent" fill="#000000" transform="matrix(0.0833333 0 0 0.0833333 -45.25 -218)" d="M 2373.53,4502.15 L 2373.56,4479.05 L 2892.29,4779.29 L 2892.84,4791.16 L 2882.83,4796.92 L 2373.53,4502.15 Z " />
<path stroke="transparent" fill="#000000" transform="matrix(0.0833333 0 0 0.0833333 -45.25 -218)" d="M 2314.1,4010.38 L 2434.1,4010.52 L 2431.73,4030.51 L 2316.42,4030.38 L 2314.1,4010.38 Z " />
<path stroke="transparent" fill="#000000" transform="matrix(0.0833333 0 0 0.0833333 -45.25 -218)" d="M 2320.84,4068.41 L 2427.22,4068.53 L 2424.85,4088.53 L 2323.16,4088.41 L 2320.84,4068.41 Z " />
<path stroke="transparent" fill="#000000" transform="matrix(0.0833333 0 0 0.0833333 -45.25 -218)" d="M 2327.58,4126.43 L 2420.35,4126.54 L 2417.98,4146.54 L 2329.9,4146.44 L 2327.58,4126.43 Z " />
<path stroke="transparent" fill="#000000" transform="matrix(0.0833333 0 0 0.0833333 -45.25 -218)" d="M 2334.32,4184.46 L 2413.47,4184.55 L 2411.1,4204.55 L 2336.64,4204.46 L 2334.32,4184.46 Z " />
<path stroke="transparent" fill="#000000" transform="matrix(0.0833333 0 0 0.0833333 -45.25 -218)" d="M 2341.06,4242.49 L 2406.6,4242.56 L 2404.23,4262.56 L 2343.38,4262.49 L 2341.06,4242.49 Z " />
<path stroke="transparent" fill="#000000" transform="matrix(0.0833333 0 0 0.0833333 -45.25 -218)" d="M 2347.8,4300.51 L 2399.73,4300.57 L 2397.36,4320.57 L 2350.13,4320.52 L 2347.8,4300.51 Z " />
<path stroke="transparent" fill="#000000" transform="matrix(0.0833333 0 0 0.0833333 -45.25 -218)" d="M 2354.54,4358.54 L 2392.85,4358.59 L 2390.48,4378.58 L 2356.87,4378.54 L 2354.54,4358.54 Z " />
<path stroke="transparent" fill="#000000" transform="matrix(0.0833333 0 0 0.0833333 -45.25 -218)" d="M 2361.28,4416.57 L 2385.98,4416.6 L 2383.61,4436.59 L 2363.61,4436.57 L 2361.28,4416.57 Z " />
<path stroke="transparent" fill="#000000" transform="matrix(0.0833333 0 0 0.0833333 -45.25 -218)" d="M 1863.6,4795.82 L 1853.6,4790.03 L 1854.18,4778.16 L 2373.56,4479.05 L 2373.53,4502.15 L 1863.6,4795.82 Z " />
<path stroke="transparent" fill="#000000" transform="matrix(0.0833333 0 0 0.0833333 -45.25 -218)" d="M 1404.24,4599.23 L 1464.36,4495.38 L 1854.18,4778.16 L 1853.6,4790.03 L 1843.6,4796.44 L 1404.24,4599.23 Z " />
<path stroke="transparent" fill="#000000" transform="matrix(0.0833333 0 0 0.0833333 -45.25 -218)" d="M 1862.96,5384.27 L 1842.95,5395.79 L 1843.6,4796.44 L 1853.6,4790.03 L 1863.6,4795.82 L 1862.96,5384.27 Z " />
<path stroke="transparent" fill="#000000" transform="matrix(0.0833333 0 0 0.0833333 -45.25 -218)" d="M 908.696,5455.39 L 918.716,5438.08 L 1338.02,5680.81 L 1328,5698.12 L 908.696,5455.39 Z " />
<path stroke="transparent" fill="#000000" transform="matrix(0.0833333 0 0 0.0833333 -45.25 -218)" d="M 1409.83,5714.46 L 1349.94,5610.47 L 1368.29,5602.25 L 1426.15,5702.72 L 1409.83,5714.46 Z " />
<path stroke="transparent" fill="#000000" transform="matrix(0.0833333 0 0 0.0833333 -45.25 -218)" d="M 1457.95,5679.83 L 1404.04,5586.24 L 1422.39,5578.02 L 1474.26,5668.09 L 1457.95,5679.83 Z " />
<path stroke="transparent" fill="#000000" transform="matrix(0.0833333 0 0 0.0833333 -45.25 -218)" d="M 1506.06,5645.2 L 1458.14,5562 L 1476.49,5553.78 L 1522.38,5633.46 L 1506.06,5645.2 Z " />
<path stroke="transparent" fill="#000000" transform="matrix(0.0833333 0 0 0.0833333 -45.25 -218)" d="M 1554.18,5610.58 L 1512.24,5537.76 L 1530.59,5529.54 L 1570.49,5598.83 L 1554.18,5610.58 Z " />
<path stroke="transparent" fill="#000000" transform="matrix(0.0833333 0 0 0.0833333 -45.25 -218)" d="M 1602.29,5575.95 L 1566.34,5513.52 L 1584.69,5505.31 L 1618.61,5564.2 L 1602.29,5575.95 Z " />
<path stroke="transparent" fill="#000000" transform="matrix(0.0833333 0 0 0.0833333 -45.25 -218)" d="M 1650.41,5541.32 L 1620.45,5489.29 L 1638.79,5481.07 L 1666.73,5529.57 L 1650.41,5541.32 Z " />
<path stroke="transparent" fill="#000000" transform="matrix(0.0833333 0 0 0.0833333 -45.25 -218)" d="M 1698.53,5506.69 L 1674.55,5465.05 L 1692.89,5456.83 L 1714.84,5494.95 L 1698.53,5506.69 Z " />
<path stroke="transparent" fill="#000000" transform="matrix(0.0833333 0 0 0.0833333 -45.25 -218)" d="M 1746.64,5472.06 L 1728.65,5440.81 L 1746.99,5432.59 L 1762.96,5460.32 L 1746.64,5472.06 Z " />
<path stroke="transparent" fill="#000000" transform="matrix(0.0833333 0 0 0.0833333 -45.25 -218)" d="M 1794.76,5437.43 L 1782.75,5416.58 L 1801.09,5408.36 L 1811.07,5425.69 L 1794.76,5437.43 Z " />
<path stroke="transparent" fill="#000000" transform="matrix(0.0833333 0 0 0.0833333 -45.25 -218)" d="M 2284.7,5628.36 L 2274.68,5645.67 L 1842.95,5395.79 L 1862.96,5384.27 L 2284.7,5628.36 Z " />
<path stroke="transparent" fill="#000000" transform="matrix(0.0833333 0 0 0.0833333 -45.25 -218)" d="M 2469.92,5645.88 L 2459.93,5628.55 L 2882.2,5385.37 L 2902.19,5396.94 L 2469.92,5645.88 Z " />
<path stroke="transparent" fill="#000000" transform="matrix(0.0833333 0 0 0.0833333 -45.25 -218)" d="M 3348.94,5586.24 L 3288.82,5690.09 L 3272.65,5678.1 L 3330.49,5578.19 L 3348.94,5586.24 Z " />
<path stroke="transparent" fill="#000000" transform="matrix(0.0833333 0 0 0.0833333 -45.25 -218)" d="M 3293.72,5562.15 L 3240.43,5654.2 L 3224.26,5642.21 L 3275.27,5554.1 L 3293.72,5562.15 Z " />
<path stroke="transparent" fill="#000000" transform="matrix(0.0833333 0 0 0.0833333 -45.25 -218)" d="M 3238.49,5538.06 L 3192.04,5618.31 L 3175.87,5606.32 L 3220.04,5530.01 L 3238.49,5538.06 Z " />
<path stroke="transparent" fill="#000000" transform="matrix(0.0833333 0 0 0.0833333 -45.25 -218)" d="M 3183.27,5513.97 L 3143.65,5582.42 L 3127.48,5570.43 L 3164.82,5505.92 L 3183.27,5513.97 Z " />
<path stroke="transparent" fill="#000000" transform="matrix(0.0833333 0 0 0.0833333 -45.25 -218)" d="M 3128.05,5489.88 L 3095.26,5546.53 L 3079.09,5534.54 L 3109.6,5481.83 L 3128.05,5489.88 Z " />
<path stroke="transparent" fill="#000000" transform="matrix(0.0833333 0 0 0.0833333 -45.25 -218)" d="M 3072.83,5465.79 L 3046.87,5510.64 L 3030.7,5498.65 L 3054.38,5457.74 L 3072.83,5465.79 Z " />
<path stroke="transparent" fill="#000000" transform="matrix(0.0833333 0 0 0.0833333 -45.25 -218)" d="M 3017.61,5441.7 L 2998.48,5474.75 L 2982.31,5462.76 L 2999.16,5433.65 L 3017.61,5441.7 Z " />
<path stroke="transparent" fill="#000000" transform="matrix(0.0833333 0 0 0.0833333 -45.25 -218)" d="M 2962.39,5417.61 L 2950.09,5438.86 L 2933.92,5426.87 L 2943.94,5409.56 L 2962.39,5417.61 Z " />
<path stroke="transparent" fill="#000000" transform="matrix(0.0833333 0 0 0.0833333 -45.25 -218)" d="M 3534.05,5690.37 L 3474.17,5586.38 L 3921.38,5385.89 L 3931.38,5392.31 L 3931.92,5404.18 L 3534.05,5690.37 Z " />
<path stroke="transparent" fill="#000000" transform="matrix(0.0833333 0 0 0.0833333 -45.25 -218)" d="M 3922.07,4786.54 L 3942.06,4798.11 L 3941.38,5386.55 L 3931.38,5392.31 L 3921.38,5385.89 L 3922.07,4786.54 Z " />
<path stroke="transparent" fill="#000000" transform="matrix(0.0833333 0 0 0.0833333 -45.25 -218)" d="M 3942.06,4798.11 L 3922.07,4786.54 L 4451.98,4481.33 L 4451.96,4504.43 L 3942.06,4798.11 Z " />
<path stroke="transparent" fill="#000000" transform="matrix(0.0833333 0 0 0.0833333 -45.25 -218)" d="M 4451.96,4504.43 L 4451.98,4481.33 L 4959.76,4775.24 L 4971.26,4793.44 L 4961.25,4799.21 L 4451.96,4504.43 Z " />
<path stroke="transparent" fill="#000000" transform="matrix(0.0833333 0 0 0.0833333 -45.25 -218)" d="M 4911.91,4193.38 L 5031.91,4193.51 L 4982.8,4775.26 L 4971.26,4793.44 L 4959.76,4775.24 L 4911.91,4193.38 Z " />
<path stroke="transparent" fill="#000000" transform="matrix(0.0833333 0 0 0.0833333 -45.25 -218)" d="M 5481.2,4488.26 L 5491.19,4494.05 L 5491.18,4505.59 L 4981.25,4799.23 L 4971.26,4793.44 L 4982.8,4775.26 L 5481.2,4488.26 Z " />
<path stroke="transparent" fill="#000000" transform="matrix(0.0833333 0 0 0.0833333 -45.25 -218)" d="M 5481.85,3888.27 L 5501.83,3899.84 L 5501.2,4488.29 L 5491.19,4494.05 L 5481.2,4488.26 L 5481.85,3888.27 Z " />
<path stroke="transparent" fill="#000000" transform="matrix(0.0833333 0 0 0.0833333 -45.25 -218)" d="M 5501.83,3899.84 L 5481.85,3888.27 L 6001.22,3589.16 L 6011.78,3594.62 L 6011.77,3606.17 L 5501.83,3899.84 Z " />
<path stroke="transparent" fill="#000000" transform="matrix(0.0833333 0 0 0.0833333 -45.25 -218)" d="M 5952.33,3114.4 L 6072.33,3114.54 L 6022.35,3589.18 L 6011.78,3594.62 L 6001.22,3589.16 L 5952.33,3114.4 Z " />
<path stroke="transparent" fill="#000000" transform="matrix(0.0833333 0 0 0.0833333 -45.25 -218)" d="M 6519.16,3876.73 L 6531.07,3895.18 L 6521.07,3900.94 L 6011.77,3606.17 L 6011.78,3594.62 L 6022.35,3589.18 L 6519.16,3876.73 Z " />
<path stroke="transparent" fill="#000000" transform="matrix(0.0833333 0 0 0.0833333 -45.25 -218)" d="M 7093.51,3702.62 L 7101.91,3710.41 L 7098.08,3722.16 L 6541.07,3902.46 L 6531.07,3895.18 L 6542.55,3880.96 L 7093.51,3702.62 Z " />
<path stroke="transparent" fill="#000000" transform="matrix(0.0833333 0 0 0.0833333 -45.25 -218)" d="M 6540.43,4487.92 L 6530.43,4495.18 L 6520.43,4489.39 L 6521.07,3900.94 L 6531.07,3895.18 L 6541.07,3902.46 L 6540.43,4487.92 Z " />
<path stroke="transparent" fill="#000000" transform="matrix(0.0833333 0 0 0.0833333 -45.25 -218)" d="M 6590.43,5095.18 L 6470.43,5095.18 L 6472.26,5075.18 L 6588.6,5075.18 L 6590.43,5095.18 Z " />
<path stroke="transparent" fill="#000000" transform="matrix(0.0833333 0 0 0.0833333 -45.25 -218)" d="M 6585.07,5036.73 L 6475.78,5036.73 L 6477.61,5016.73 L 6583.24,5016.73 L 6585.07,5036.73 Z " />
<path stroke="transparent" fill="#000000" transform="matrix(0.0833333 0 0 0.0833333 -45.25 -218)" d="M 6579.72,4978.29 L 6481.13,4978.29 L 6482.96,4958.29 L 6577.89,4958.29 L 6579.72,4978.29 Z " />
<path stroke="transparent" fill="#000000" transform="matrix(0.0833333 0 0 0.0833333 -45.25 -218)" d="M 6574.37,4919.84 L 6486.48,4919.84 L 6488.31,4899.84 L 6572.54,4899.84 L 6574.37,4919.84 Z " />
<path stroke="transparent" fill="#000000" transform="matrix(0.0833333 0 0 0.0833333 -45.25 -218)" d="M 6569.02,4861.4 L 6491.83,4861.4 L 6493.67,4841.4 L 6567.19,4841.4 L 6569.02,4861.4 Z " />
<path stroke="transparent" fill="#000000" transform="matrix(0.0833333 0 0 0.0833333 -45.25 -218)" d="M 6563.67,4802.95 L 6497.19,4802.95 L 6499.02,4782.95 L 6561.83,4782.95 L 6563.67,4802.95 Z " />
<path stroke="transparent" fill="#000000" transform="matrix(0.0833333 0 0 0.0833333 -45.25 -218)" d="M 6558.31,4744.51 L 6502.54,4744.51 L 6504.37,4724.51 L 6556.48,4724.51 L 6558.31,4744.51 Z " />
<path stroke="transparent" fill="#000000" transform="matrix(0.0833333 0 0 0.0833333 -45.25 -218)" d="M 6552.96,4686.07 L 6507.89,4686.07 L 6509.72,4666.07 L 6551.13,4666.07 L 6552.96,4686.07 Z " />
<path stroke="transparent" fill="#000000" transform="matrix(0.0833333 0 0 0.0833333 -45.25 -218)" d="M 6547.61,4627.62 L 6513.24,4627.62 L 6515.07,4607.62 L 6545.78,4607.62 L 6547.61,4627.62 Z " />
<path stroke="transparent" fill="#000000" transform="matrix(0.0833333 0 0 0.0833333 -45.25 -218)" d="M 6542.26,4569.18 L 6518.6,4569.18 L 6520.43,4549.18 L 6540.43,4549.18 L 6542.26,4569.18 Z " />
<path stroke="transparent" fill="#000000" transform="matrix(0.0833333 0 0 0.0833333 -45.25 -218)" d="M 7097.02,4669.45 L 7104.64,4692.97 L 6531.56,4506.06 L 6530.43,4495.18 L 6540.43,4487.92 L 7097.02,4669.45 Z " />
<path stroke="transparent" fill="#000000" transform="matrix(0.0833333 0 0 0.0833333 -45.25 -218)" d="M 7104.64,4692.97 L 7097.02,4669.45 L 7441.69,4196.19 L 7466.41,4196.22 L 7104.64,4692.97 Z " />
<path stroke="transparent" fill="#000000" transform="matrix(0.0833333 0 0 0.0833333 -45.25 -218)" d="M 7466.41,4196.22 L 7441.69,4196.19 L 7098.08,3722.16 L 7101.91,3710.41 L 7113.29,3709.07 L 7466.41,4196.22 Z " />
<path stroke="transparent" fill="#000000" transform="matrix(0.0833333 0 0 0.0833333 -45.25 -218)" d="M 7225.82,3142.92 L 7354.43,3136.17 L 7113.29,3709.07 L 7101.91,3710.41 L 7093.51,3702.62 L 7225.82,3142.92 Z " />
<path stroke="transparent" fill="#000000" transform="matrix(0.0833333 0 0 0.0833333 -45.25 -218)" d="M 9848.89,3650.59 L 9853.02,3670.16 L 9271.68,3793.06 L 9263.96,3784.47 L 9267.54,3773.49 L 9848.89,3650.59 Z " />
<path stroke="transparent" fill="#000000" transform="matrix(0.0833333 0 0 0.0833333 -45.25 -218)" d="M 9087.44,4357.97 L 9068.42,4351.77 L 9252.66,3786.86 L 9263.96,3784.47 L 9271.68,3793.06 L 9087.44,4357.97 Z " />
<path stroke="transparent" fill="#000000" transform="matrix(0.0833333 0 0 0.0833333 -45.25 -218)" d="M 9267.54,3773.49 L 9263.96,3784.47 L 9252.66,3786.86 L 8859.38,3349.13 L 8866.54,3327.17 L 9267.54,3773.49 Z " />
<path stroke="transparent" fill="#000000" transform="matrix(0.0833333 0 0 0.0833333 -45.25 -218)" d="M 9190.06,3794.98 L 9175.18,3808.35 L 8829.75,3423.87 L 8844.62,3410.5 L 9190.06,3794.98 Z " />
<path stroke="transparent" fill="#000000" transform="matrix(0.0833333 0 0 0.0833333 -45.25 -218)" d="M 8866.54,3327.17 L 8859.38,3349.13 L 8272.35,3473.21 L 8279.51,3451.25 L 8866.54,3327.17 Z " />
<path stroke="transparent" fill="#000000" transform="matrix(0.0833333 0 0 0.0833333 -45.25 -218)" d="M 8279.51,3451.25 L 8272.35,3473.21 L 7871.39,3026.9 L 7878.55,3004.95 L 8279.51,3451.25 Z " />
<path stroke="transparent" fill="#000000" transform="matrix(0.0833333 0 0 0.0833333 -45.25 -218)" d="M 7878.55,3004.95 L 7871.39,3026.9 L 7354.43,3136.17 L 7225.82,3142.92 L 7878.55,3004.95 Z " />
<path stroke="transparent" fill="#000000" transform="matrix(0.0833333 0 0 0.0833333 -45.25 -218)" d="M 7336.05,3124.73 L 7321.18,3138.09 L 6906.29,2676.31 L 6921.16,2662.94 L 7336.05,3124.73 Z " />
<path stroke="transparent" fill="#000000" transform="matrix(0.0833333 0 0 0.0833333 -45.25 -218)" d="M 7282.49,3172.84 L 7267.62,3186.21 L 6852.73,2724.43 L 6867.61,2711.06 L 7282.49,3172.84 Z " />
<text x="0" y="0" stroke="transparent" fill="#000000" transform="matrix(0.0833333 0 0 0.0833333 232.648 162.811)" style="font:normal normal normal 200px 'Arial'" >
OH</text>
<text x="0" y="0" stroke="transparent" fill="#000000" transform="matrix(0.0833333 0 0 0.0833333 146.103 112.718)" style="font:normal normal normal 200px 'Arial'" >
OH</text>
<text x="0" y="0" stroke="transparent" fill="#000000" transform="matrix(0.0833333 0 0 0.0833333 47.4074 162.619)" style="font:normal normal normal 200px 'Arial'" >
HO</text>
<text x="0" y="0" stroke="transparent" fill="#000000" transform="matrix(0.0833333 0 0 0.0833333 4.02493 237.572)" style="font:normal normal normal 200px 'Arial'" >
HO</text>
<text x="0" y="0" stroke="transparent" fill="#000000" transform="matrix(0.0833333 0 0 0.0833333 145.937 262.716)" style="font:normal normal normal 200px 'Arial'" >
O</text>
<text x="0" y="0" stroke="transparent" fill="#000000" transform="matrix(0.0833333 0 0 0.0833333 232.536 262.812)" style="font:normal normal normal 200px 'Arial'" >
O</text>
<text x="0" y="0" stroke="transparent" fill="#000000" transform="matrix(0.0833333 0 0 0.0833333 449.289 38.053)" style="font:normal normal normal 200px 'Arial'" >
OH</text>
<text x="0" y="0" stroke="transparent" fill="#000000" transform="matrix(0.0833333 0 0 0.0833333 362.964 287.955)" style="font:normal normal normal 200px 'Arial'" >
H</text>
<path stroke="transparent" fill="#000000" transform="matrix(0.0833333 0 0 0.0833333 -45.25 -218)" d="M 5030.56,5890.8 L 4910.56,5890.8 L 4912.82,5870.8 L 5028.31,5870.8 L 5030.56,5890.8 Z " />
<path stroke="transparent" fill="#000000" transform="matrix(0.0833333 0 0 0.0833333 -45.25 -218)" d="M 5023.74,5830.33 L 4917.38,5830.33 L 4919.64,5810.33 L 5021.49,5810.33 L 5023.74,5830.33 Z " />
<path stroke="transparent" fill="#000000" transform="matrix(0.0833333 0 0 0.0833333 -45.25 -218)" d="M 5016.92,5769.86 L 4924.2,5769.86 L 4926.46,5749.86 L 5014.67,5749.86 L 5016.92,5769.86 Z " />
<path stroke="transparent" fill="#000000" transform="matrix(0.0833333 0 0 0.0833333 -45.25 -218)" d="M 5010.1,5709.39 L 4931.02,5709.39 L 4933.28,5689.39 L 5007.84,5689.39 L 5010.1,5709.39 Z " />
<path stroke="transparent" fill="#000000" transform="matrix(0.0833333 0 0 0.0833333 -45.25 -218)" d="M 5003.28,5648.91 L 4937.84,5648.91 L 4940.1,5628.91 L 5001.02,5628.91 L 5003.28,5648.91 Z " />
<path stroke="transparent" fill="#000000" transform="matrix(0.0833333 0 0 0.0833333 -45.25 -218)" d="M 4996.46,5588.44 L 4944.67,5588.44 L 4946.92,5568.44 L 4994.2,5568.44 L 4996.46,5588.44 Z " />
<path stroke="transparent" fill="#000000" transform="matrix(0.0833333 0 0 0.0833333 -45.25 -218)" d="M 4989.64,5527.97 L 4951.49,5527.97 L 4953.74,5507.97 L 4987.38,5507.97 L 4989.64,5527.97 Z " />
<path stroke="transparent" fill="#000000" transform="matrix(0.0833333 0 0 0.0833333 -45.25 -218)" d="M 4982.82,5467.5 L 4958.31,5467.5 L 4960.56,5447.5 L 4980.56,5447.5 L 4982.82,5467.5 Z " />
<text x="0" y="0" stroke="transparent" fill="#000000" transform="matrix(0.0833333 0 0 0.0833333 406.349 213.004)" style="font:normal normal normal 200px 'Arial'" >
H</text>
<path stroke="transparent" fill="#000000" transform="matrix(0.0833333 0 0 0.0833333 -45.25 -218)" d="M 5551.19,4991.38 L 5431.19,4991.38 L 5433.45,4971.38 L 5548.94,4971.38 L 5551.19,4991.38 Z " />
<path stroke="transparent" fill="#000000" transform="matrix(0.0833333 0 0 0.0833333 -45.25 -218)" d="M 5544.37,4930.91 L 5438.01,4930.91 L 5440.27,4910.91 L 5542.11,4910.91 L 5544.37,4930.91 Z " />
<path stroke="transparent" fill="#000000" transform="matrix(0.0833333 0 0 0.0833333 -45.25 -218)" d="M 5537.55,4870.44 L 5444.83,4870.44 L 5447.09,4850.44 L 5535.29,4850.44 L 5537.55,4870.44 Z " />
<path stroke="transparent" fill="#000000" transform="matrix(0.0833333 0 0 0.0833333 -45.25 -218)" d="M 5530.73,4809.97 L 5451.65,4809.97 L 5453.91,4789.97 L 5528.47,4789.97 L 5530.73,4809.97 Z " />
<path stroke="transparent" fill="#000000" transform="matrix(0.0833333 0 0 0.0833333 -45.25 -218)" d="M 5523.91,4749.5 L 5458.47,4749.5 L 5460.73,4729.5 L 5521.65,4729.5 L 5523.91,4749.5 Z " />
<path stroke="transparent" fill="#000000" transform="matrix(0.0833333 0 0 0.0833333 -45.25 -218)" d="M 5517.09,4689.03 L 5465.29,4689.03 L 5467.55,4669.03 L 5514.83,4669.03 L 5517.09,4689.03 Z " />
<path stroke="transparent" fill="#000000" transform="matrix(0.0833333 0 0 0.0833333 -45.25 -218)" d="M 5510.27,4628.56 L 5472.11,4628.56 L 5474.37,4608.56 L 5508.01,4608.56 L 5510.27,4628.56 Z " />
<path stroke="transparent" fill="#000000" transform="matrix(0.0833333 0 0 0.0833333 -45.25 -218)" d="M 5503.45,4568.08 L 5478.94,4568.08 L 5481.19,4548.08 L 5501.19,4548.08 L 5503.45,4568.08 Z " />
<text x="0" y="0" stroke="transparent" fill="#000000" transform="matrix(0.0833333 0 0 0.0833333 493.006 63.0984)" style="font:normal normal normal 200px 'Arial'" >
H</text>
<path stroke="transparent" fill="#000000" transform="matrix(0.0833333 0 0 0.0833333 -45.25 -218)" d="M 6471.07,3412.51 L 6591.07,3412.51 L 6542.55,3880.96 L 6531.07,3895.18 L 6519.16,3876.73 L 6471.07,3412.51 Z " />
</svg>
