<?xml version="1.0" standalone="no" ?>
<!DOCTYPE svg PUBLIC "-//W3C//DTD SVG 1.1//EN" "http://www.w3.org/Graphics/SVG/1.1/DTD/svg11.dtd">
<svg width="630px" height="437px" viewBox="0 0 630 437" style="background-color: #ffffff00" xmlns="http://www.w3.org/2000/svg" xmlns:xlink="http://www.w3.org/1999/xlink" version="1.1" >
<text x="0" y="0" stroke="transparent" fill="#000000" transform="matrix(0.0666667 0 0 0.0666667 468.331 234.06)" style="font:normal normal normal 200px 'Arial'" >
OH</text>
<text x="0" y="0" stroke="transparent" fill="#000000" transform="matrix(0.0666667 0 0 0.0666667 433.834 254.104)" style="font:normal normal normal 200px 'Arial'" >
O</text>
<text x="0" y="0" stroke="transparent" fill="#000000" transform="matrix(0.0666667 0 0 0.0666667 503.031 134.084)" style="font:normal normal normal 200px 'Arial'" >
OH</text>
<text x="0" y="0" stroke="transparent" fill="#000000" transform="matrix(0.0666667 0 0 0.0666667 503.031 254.104)" style="font:normal normal normal 200px 'Arial'" >
O</text>
<text x="0" y="0" stroke="transparent" fill="#000000" transform="matrix(0.0666667 0 0 0.0666667 537.63 154.084)" style="font:normal normal normal 200px 'Arial'" >
OH</text>
<text x="0" y="0" stroke="transparent" fill="#000000" transform="matrix(0.0666667 0 0 0.0666667 364.433 134.084)" style="font:normal normal normal 200px 'Arial'" >
O</text>
<text x="0" y="0" stroke="transparent" fill="#000000" transform="matrix(0.0666667 0 0 0.0666667 468.433 74.0844)" style="font:normal normal normal 200px 'Arial'" >
O</text>
<text x="0" y="0" stroke="transparent" fill="#000000" transform="matrix(0.0666667 0 0 0.0666667 606.93 194.084)" style="font:normal normal normal 200px 'Arial'" >
OH</text>
<text x="0" y="0" stroke="transparent" fill="#000000" transform="matrix(0.0666667 0 0 0.0666667 572.234 334.104)" style="font:normal normal normal 200px 'Arial'" >
OH</text>
<text x="0" y="0" stroke="transparent" fill="#000000" transform="matrix(0.0666667 0 0 0.0666667 606.93 274.06)" style="font:normal normal normal 200px 'Arial'" >
OH</text>
<text x="0" y="0" stroke="transparent" fill="#000000" transform="matrix(0.0666667 0 0 0.0666667 359.031 274.06)" style="font:normal normal normal 200px 'Arial'" >
OH</text>
<text x="0" y="0" stroke="transparent" fill="#000000" transform="matrix(0.0666667 0 0 0.0666667 289.684 154.084)" style="font:normal normal normal 200px 'Arial'" >
O</text>
<text x="0" y="0" stroke="transparent" fill="#000000" transform="matrix(0.0666667 0 0 0.0666667 245.412 294.104)" style="font:normal normal normal 200px 'Arial'" >
HO</text>
<text x="0" y="0" stroke="transparent" fill="#000000" transform="matrix(0.0666667 0 0 0.0666667 210.872 274.06)" style="font:normal normal normal 200px 'Arial'" >
HO</text>
<text x="0" y="0" stroke="transparent" fill="#000000" transform="matrix(0.0666667 0 0 0.0666667 324.331 334.104)" style="font:normal normal normal 200px 'Arial'" >
O</text>
<text x="0" y="0" stroke="transparent" fill="#000000" transform="matrix(0.0666667 0 0 0.0666667 220.501 154.084)" style="font:normal normal normal 200px 'Arial'" >
O</text>
<text x="0" y="0" stroke="transparent" fill="#000000" transform="matrix(0.0666667 0 0 0.0666667 210.775 314.06)" style="font:normal normal normal 200px 'Arial'" >
HO</text>
<text x="0" y="0" stroke="transparent" fill="#000000" transform="matrix(0.0666667 0 0 0.0666667 210.775 394.06)" style="font:normal normal normal 200px 'Arial'" >
HO</text>
<text x="0" y="0" stroke="transparent" fill="#000000" transform="matrix(0.0666667 0 0 0.0666667 216.234 14.0844)" style="font:normal normal normal 200px 'Arial'" >
HO</text>
<text x="0" y="0" stroke="transparent" fill="#000000" transform="matrix(0.0666667 0 0 0.0666667 393.63 374.104)" style="font:normal normal normal 200px 'Arial'" >
OH</text>
<text x="0" y="0" stroke="transparent" fill="#000000" transform="matrix(0.0666667 0 0 0.0666667 289.684 434.06)" style="font:normal normal normal 200px 'Arial'" >
OH</text>
<text x="0" y="0" stroke="transparent" fill="#000000" transform="matrix(0.0666667 0 0 0.0666667 2.93479 274.06)" style="font:normal normal normal 200px 'Arial'" >
HO</text>
<text x="0" y="0" stroke="transparent" fill="#000000" transform="matrix(0.0666667 0 0 0.0666667 503.431 174.084)" style="font:normal normal normal 200px 'Arial'" >
H</text>
<text x="0" y="0" stroke="transparent" fill="#000000" transform="matrix(0.0666667 0 0 0.0666667 324.731 294.104)" style="font:normal normal normal 200px 'Arial'" >
H</text>
<path stroke="transparent" fill="#000000" transform="matrix(0.0666667 0 0 0.0666667 -33.8533 -175)" d="M 7670.76,5952.73 L 7550.76,5952.73 L 7553.03,5932.73 L 7668.49,5932.73 L 7670.76,5952.73 Z " />
<path stroke="transparent" fill="#000000" transform="matrix(0.0666667 0 0 0.0666667 -33.8533 -175)" d="M 7663.94,5892.67 L 7557.58,5892.67 L 7559.85,5872.67 L 7661.67,5872.67 L 7663.94,5892.67 Z " />
<path stroke="transparent" fill="#000000" transform="matrix(0.0666667 0 0 0.0666667 -33.8533 -175)" d="M 7657.13,5832.62 L 7564.4,5832.62 L 7566.67,5812.62 L 7654.86,5812.62 L 7657.13,5832.62 Z " />
<path stroke="transparent" fill="#000000" transform="matrix(0.0666667 0 0 0.0666667 -33.8533 -175)" d="M 7650.31,5772.56 L 7571.22,5772.56 L 7573.49,5752.56 L 7648.04,5752.56 L 7650.31,5772.56 Z " />
<path stroke="transparent" fill="#000000" transform="matrix(0.0666667 0 0 0.0666667 -33.8533 -175)" d="M 7643.49,5712.5 L 7578.04,5712.5 L 7580.31,5692.5 L 7641.22,5692.5 L 7643.49,5712.5 Z " />
<path stroke="transparent" fill="#000000" transform="matrix(0.0666667 0 0 0.0666667 -33.8533 -175)" d="M 7636.67,5652.44 L 7584.86,5652.44 L 7587.13,5632.44 L 7634.4,5632.44 L 7636.67,5652.44 Z " />
<path stroke="transparent" fill="#000000" transform="matrix(0.0666667 0 0 0.0666667 -33.8533 -175)" d="M 7629.85,5592.38 L 7591.67,5592.38 L 7593.94,5572.38 L 7627.58,5572.38 L 7629.85,5592.38 Z " />
<path stroke="transparent" fill="#000000" transform="matrix(0.0666667 0 0 0.0666667 -33.8533 -175)" d="M 7623.03,5532.32 L 7598.49,5532.32 L 7600.76,5512.32 L 7620.76,5512.32 L 7623.03,5532.32 Z " />
<path stroke="transparent" fill="#000000" transform="matrix(0.0666667 0 0 0.0666667 -33.8533 -175)" d="M 7093.33,5769.81 L 7093.29,5746.72 L 7600.76,5452.5 L 7610.76,5458.27 L 7610.78,5469.82 L 7093.33,5769.81 Z " />
<path stroke="transparent" fill="#000000" transform="matrix(0.0666667 0 0 0.0666667 -33.8533 -175)" d="M 7600.76,4864.03 L 7610.76,4858.27 L 7620.76,4864.04 L 7620.76,5452.49 L 7610.76,5458.27 L 7600.76,5452.5 L 7600.76,4864.03 Z " />
<path stroke="transparent" fill="#000000" transform="matrix(0.0666667 0 0 0.0666667 -33.8533 -175)" d="M 8131.26,5746.72 L 8131.27,5758.26 L 8121.27,5764.04 L 7610.78,5469.82 L 7610.76,5458.27 L 7620.76,5452.49 L 8131.26,5746.72 Z " />
<path stroke="transparent" fill="#000000" transform="matrix(0.0666667 0 0 0.0666667 -33.8533 -175)" d="M 7139.33,6253.39 L 7119.33,6253.39 L 7119.33,5737.38 L 7139.33,5737.38 L 7139.33,6253.39 Z " />
<path stroke="transparent" fill="#000000" transform="matrix(0.0666667 0 0 0.0666667 -33.8533 -175)" d="M 7067.29,6253.39 L 7047.29,6253.39 L 7047.29,5737.57 L 7067.29,5737.57 L 7067.29,6253.39 Z " />
<path stroke="transparent" fill="#000000" transform="matrix(0.0666667 0 0 0.0666667 -33.8533 -175)" d="M 6568.6,5468.27 L 6571.27,5458.27 L 6581.27,5452.48 L 7093.29,5746.72 L 7093.33,5769.81 L 6568.6,5468.27 Z " />
<path stroke="transparent" fill="#000000" transform="matrix(0.0666667 0 0 0.0666667 -33.8533 -175)" d="M 8026.64,4607.03 L 8036.63,4624.36 L 7620.76,4864.04 L 7610.76,4858.27 L 7610.78,4846.71 L 8026.64,4607.03 Z " />
<path stroke="transparent" fill="#000000" transform="matrix(0.0666667 0 0 0.0666667 -33.8533 -175)" d="M 7093.29,4569.81 L 7093.31,4558.27 L 7103.31,4552.5 L 7610.78,4846.71 L 7610.76,4858.27 L 7600.76,4864.03 L 7093.29,4569.81 Z " />
<path stroke="transparent" fill="#000000" transform="matrix(0.0666667 0 0 0.0666667 -33.8533 -175)" d="M 7088.13,4649.79 L 7098.17,4632.49 L 7544,4890.97 L 7533.97,4908.27 L 7088.13,4649.79 Z " />
<path stroke="transparent" fill="#000000" transform="matrix(0.0666667 0 0 0.0666667 -33.8533 -175)" d="M 8141.27,6253.39 L 8121.27,6253.39 L 8121.27,5764.04 L 8131.27,5758.26 L 8141.27,5764.03 L 8141.27,6253.39 Z " />
<path stroke="transparent" fill="#000000" transform="matrix(0.0666667 0 0 0.0666667 -33.8533 -175)" d="M 8650.25,5446.71 L 8650.25,5469.82 L 8141.27,5764.03 L 8131.27,5758.26 L 8131.26,5746.72 L 8650.25,5446.71 Z " />
<path stroke="transparent" fill="#000000" transform="matrix(0.0666667 0 0 0.0666667 -33.8533 -175)" d="M 8071.27,5275.43 L 8191.27,5275.43 L 8188.94,5295.43 L 8073.6,5295.43 L 8071.27,5275.43 Z " />
<path stroke="transparent" fill="#000000" transform="matrix(0.0666667 0 0 0.0666667 -33.8533 -175)" d="M 8078.08,5333.82 L 8184.46,5333.82 L 8182.13,5353.82 L 8080.41,5353.82 L 8078.08,5333.82 Z " />
<path stroke="transparent" fill="#000000" transform="matrix(0.0666667 0 0 0.0666667 -33.8533 -175)" d="M 8084.89,5392.21 L 8177.65,5392.21 L 8175.32,5412.21 L 8087.22,5412.21 L 8084.89,5392.21 Z " />
<path stroke="transparent" fill="#000000" transform="matrix(0.0666667 0 0 0.0666667 -33.8533 -175)" d="M 8091.7,5450.61 L 8170.84,5450.61 L 8168.51,5470.61 L 8094.03,5470.61 L 8091.7,5450.61 Z " />
<path stroke="transparent" fill="#000000" transform="matrix(0.0666667 0 0 0.0666667 -33.8533 -175)" d="M 8098.51,5509 L 8164.03,5509 L 8161.7,5529 L 8100.84,5529 L 8098.51,5509 Z " />
<path stroke="transparent" fill="#000000" transform="matrix(0.0666667 0 0 0.0666667 -33.8533 -175)" d="M 8105.32,5567.39 L 8157.22,5567.39 L 8154.89,5587.39 L 8107.65,5587.39 L 8105.32,5567.39 Z " />
<path stroke="transparent" fill="#000000" transform="matrix(0.0666667 0 0 0.0666667 -33.8533 -175)" d="M 8112.13,5625.78 L 8150.41,5625.78 L 8148.08,5645.78 L 8114.46,5645.78 L 8112.13,5625.78 Z " />
<path stroke="transparent" fill="#000000" transform="matrix(0.0666667 0 0 0.0666667 -33.8533 -175)" d="M 8118.94,5684.17 L 8143.6,5684.17 L 8141.27,5704.17 L 8121.27,5704.17 L 8118.94,5684.17 Z " />
<path stroke="transparent" fill="#000000" transform="matrix(0.0666667 0 0 0.0666667 -33.8533 -175)" d="M 5973.95,5468.27 L 5968.59,5448.27 L 6561.27,5448.27 L 6571.27,5458.27 L 6568.6,5468.27 L 5973.95,5468.27 Z " />
<path stroke="transparent" fill="#000000" transform="matrix(0.0666667 0 0 0.0666667 -33.8533 -175)" d="M 5990.58,5540.27 L 5990.58,5520.27 L 6552.06,5520.27 L 6552.06,5540.27 L 5990.58,5540.27 Z " />
<path stroke="transparent" fill="#000000" transform="matrix(0.0666667 0 0 0.0666667 -33.8533 -175)" d="M 6561.27,4852.48 L 6581.27,4864.05 L 6581.27,5452.48 L 6571.27,5458.27 L 6561.27,5448.27 L 6561.27,4852.48 Z " />
<path stroke="transparent" fill="#000000" transform="matrix(0.0666667 0 0 0.0666667 -33.8533 -175)" d="M 6581.27,4864.05 L 6561.27,4852.48 L 7083.31,4552.48 L 7093.31,4558.27 L 7093.29,4569.81 L 6581.27,4864.05 Z " />
<path stroke="transparent" fill="#000000" transform="matrix(0.0666667 0 0 0.0666667 -33.8533 -175)" d="M 7083.31,3964.04 L 7103.31,3952.49 L 7103.31,4552.5 L 7093.31,4558.27 L 7083.31,4552.48 L 7083.31,3964.04 Z " />
<path stroke="transparent" fill="#000000" transform="matrix(0.0666667 0 0 0.0666667 -33.8533 -175)" d="M 8650.25,6646.36 L 8650.25,6657.9 L 8639.79,6663.41 L 8226.33,6424.93 L 8236.32,6407.61 L 8650.25,6646.36 Z " />
<path stroke="transparent" fill="#000000" transform="matrix(0.0666667 0 0 0.0666667 -33.8533 -175)" d="M 8590.25,4978.1 L 8710.25,4978.1 L 8707.91,4998.1 L 8592.6,4998.1 L 8590.25,4978.1 Z " />
<path stroke="transparent" fill="#000000" transform="matrix(0.0666667 0 0 0.0666667 -33.8533 -175)" d="M 8597.06,5036.12 L 8703.45,5036.12 L 8701.1,5056.12 L 8599.41,5056.12 L 8597.06,5036.12 Z " />
<path stroke="transparent" fill="#000000" transform="matrix(0.0666667 0 0 0.0666667 -33.8533 -175)" d="M 8603.87,5094.14 L 8696.64,5094.14 L 8694.29,5114.14 L 8606.22,5114.14 L 8603.87,5094.14 Z " />
<path stroke="transparent" fill="#000000" transform="matrix(0.0666667 0 0 0.0666667 -33.8533 -175)" d="M 8610.68,5152.16 L 8689.83,5152.16 L 8687.48,5172.16 L 8613.02,5172.16 L 8610.68,5152.16 Z " />
<path stroke="transparent" fill="#000000" transform="matrix(0.0666667 0 0 0.0666667 -33.8533 -175)" d="M 8617.48,5210.18 L 8683.02,5210.18 L 8680.68,5230.18 L 8619.83,5230.18 L 8617.48,5210.18 Z " />
<path stroke="transparent" fill="#000000" transform="matrix(0.0666667 0 0 0.0666667 -33.8533 -175)" d="M 8624.29,5268.2 L 8676.22,5268.2 L 8673.87,5288.2 L 8626.64,5288.2 L 8624.29,5268.2 Z " />
<path stroke="transparent" fill="#000000" transform="matrix(0.0666667 0 0 0.0666667 -33.8533 -175)" d="M 8631.1,5326.23 L 8669.41,5326.23 L 8667.06,5346.23 L 8633.45,5346.23 L 8631.1,5326.23 Z " />
<path stroke="transparent" fill="#000000" transform="matrix(0.0666667 0 0 0.0666667 -33.8533 -175)" d="M 8637.91,5384.25 L 8662.6,5384.25 L 8660.25,5404.25 L 8640.25,5404.25 L 8637.91,5384.25 Z " />
<path stroke="transparent" fill="#000000" transform="matrix(0.0666667 0 0 0.0666667 -33.8533 -175)" d="M 9168.75,5746.39 L 9169.31,5758.26 L 9159.31,5764.04 L 8650.25,5469.82 L 8650.25,5446.71 L 9168.75,5746.39 Z " />
<path stroke="transparent" fill="#000000" transform="matrix(0.0666667 0 0 0.0666667 -33.8533 -175)" d="M 5462.29,5764.03 L 5452.29,5758.26 L 5452.28,5746.72 L 5968.59,5448.27 L 5973.95,5468.27 L 5462.29,5764.03 Z " />
<path stroke="transparent" fill="#000000" transform="matrix(0.0666667 0 0 0.0666667 -33.8533 -175)" d="M 6129.3,4655.87 L 6139.31,4638.56 L 6576.28,4891.15 L 6566.27,4908.47 L 6129.3,4655.87 Z " />
<path stroke="transparent" fill="#000000" transform="matrix(0.0666667 0 0 0.0666667 -33.8533 -175)" d="M 6165.3,4593.6 L 6175.31,4576.28 L 6612.32,4828.9 L 6602.31,4846.21 L 6165.3,4593.6 Z " />
<path stroke="transparent" fill="#000000" transform="matrix(0.0666667 0 0 0.0666667 -33.8533 -175)" d="M 6572.81,3669.81 L 6572.79,3646.72 L 7103.31,3952.49 L 7083.31,3964.04 L 6572.81,3669.81 Z " />
<path stroke="transparent" fill="#000000" transform="matrix(0.0666667 0 0 0.0666667 -33.8533 -175)" d="M 7489.71,3676.03 L 7499.72,3693.35 L 7062.33,3946.18 L 7052.32,3928.87 L 7489.71,3676.03 Z " />
<path stroke="transparent" fill="#000000" transform="matrix(0.0666667 0 0 0.0666667 -33.8533 -175)" d="M 7525.71,3738.31 L 7535.72,3755.62 L 7098.31,4008.47 L 7088.3,3991.15 L 7525.71,3738.31 Z " />
<path stroke="transparent" fill="#000000" transform="matrix(0.0666667 0 0 0.0666667 -33.8533 -175)" d="M 8712.28,7282.27 L 8592.1,7235.77 L 8639.79,6663.41 L 8650.25,6657.9 L 8660.71,6663.41 L 8712.28,7282.27 Z " />
<path stroke="transparent" fill="#000000" transform="matrix(0.0666667 0 0 0.0666667 -33.8533 -175)" d="M 9159.31,6352.78 L 9179.31,6364.33 L 8660.71,6663.41 L 8650.25,6657.9 L 8650.25,6646.36 L 9159.31,6352.78 Z " />
<path stroke="transparent" fill="#000000" transform="matrix(0.0666667 0 0 0.0666667 -33.8533 -175)" d="M 9179.31,6364.33 L 9159.31,6352.78 L 9159.31,5764.04 L 9169.31,5758.26 L 9179.31,5764.69 L 9179.31,6364.33 Z " />
<path stroke="transparent" fill="#000000" transform="matrix(0.0666667 0 0 0.0666667 -33.8533 -175)" d="M 9560.14,5463.72 L 9620.07,5567.68 L 9179.31,5764.69 L 9169.31,5758.26 L 9168.75,5746.39 L 9560.14,5463.72 Z " />
<path stroke="transparent" fill="#000000" transform="matrix(0.0666667 0 0 0.0666667 -33.8533 -175)" d="M 5462.29,6352.78 L 5452.29,6358.56 L 5442.29,6352.77 L 5442.29,5764.05 L 5452.29,5758.26 L 5462.29,5764.03 L 5462.29,6352.78 Z " />
<path stroke="transparent" fill="#000000" transform="matrix(0.0666667 0 0 0.0666667 -33.8533 -175)" d="M 5390.26,6316.86 L 5370.26,6316.86 L 5370.26,5799.92 L 5390.26,5799.92 L 5390.26,6316.86 Z " />
<path stroke="transparent" fill="#000000" transform="matrix(0.0666667 0 0 0.0666667 -33.8533 -175)" d="M 4931.07,5469.81 L 4931.04,5446.72 L 5452.28,5746.72 L 5452.29,5758.26 L 5442.29,5764.05 L 4931.07,5469.81 Z " />
<path stroke="transparent" fill="#000000" transform="matrix(0.0666667 0 0 0.0666667 -33.8533 -175)" d="M 6053.75,3969.81 L 6053.74,3946.72 L 6572.79,3646.72 L 6572.81,3669.81 L 6053.75,3969.81 Z " />
<path stroke="transparent" fill="#000000" transform="matrix(0.0666667 0 0 0.0666667 -33.8533 -175)" d="M 6094.75,4029.21 L 6084.74,4011.89 L 6567.85,3732.67 L 6577.85,3749.99 L 6094.75,4029.21 Z " />
<path stroke="transparent" fill="#000000" transform="matrix(0.0666667 0 0 0.0666667 -33.8533 -175)" d="M 9081.77,7496.3 L 9071.75,7513.6 L 8592.1,7235.77 L 8712.28,7282.27 L 9081.77,7496.3 Z " />
<path stroke="transparent" fill="#000000" transform="matrix(0.0666667 0 0 0.0666667 -33.8533 -175)" d="M 9626.96,6552.57 L 9567.13,6656.59 L 9550.92,6644.65 L 9608.49,6544.57 L 9626.96,6552.57 Z " />
<path stroke="transparent" fill="#000000" transform="matrix(0.0666667 0 0 0.0666667 -33.8533 -175)" d="M 9571.62,6528.61 L 9518.59,6620.81 L 9502.39,6608.86 L 9553.15,6520.61 L 9571.62,6528.61 Z " />
<path stroke="transparent" fill="#000000" transform="matrix(0.0666667 0 0 0.0666667 -33.8533 -175)" d="M 9516.29,6504.65 L 9470.05,6585.03 L 9453.85,6573.08 L 9497.82,6496.65 L 9516.29,6504.65 Z " />
<path stroke="transparent" fill="#000000" transform="matrix(0.0666667 0 0 0.0666667 -33.8533 -175)" d="M 9460.95,6480.68 L 9421.52,6549.24 L 9405.32,6537.3 L 9442.48,6472.68 L 9460.95,6480.68 Z " />
<path stroke="transparent" fill="#000000" transform="matrix(0.0666667 0 0 0.0666667 -33.8533 -175)" d="M 9405.62,6456.72 L 9372.98,6513.46 L 9356.78,6501.52 L 9387.15,6448.72 L 9405.62,6456.72 Z " />
<path stroke="transparent" fill="#000000" transform="matrix(0.0666667 0 0 0.0666667 -33.8533 -175)" d="M 9350.29,6432.76 L 9324.45,6477.68 L 9308.24,6465.74 L 9331.81,6424.76 L 9350.29,6432.76 Z " />
<path stroke="transparent" fill="#000000" transform="matrix(0.0666667 0 0 0.0666667 -33.8533 -175)" d="M 9294.95,6408.8 L 9275.91,6441.9 L 9259.71,6429.95 L 9276.48,6400.8 L 9294.95,6408.8 Z " />
<path stroke="transparent" fill="#000000" transform="matrix(0.0666667 0 0 0.0666667 -33.8533 -175)" d="M 9239.62,6384.83 L 9227.38,6406.12 L 9211.17,6394.17 L 9221.14,6376.84 L 9239.62,6384.83 Z " />
<path stroke="transparent" fill="#000000" transform="matrix(0.0666667 0 0 0.0666667 -33.8533 -175)" d="M 5883.63,6595.8 L 5873.64,6613.13 L 5452.28,6370.09 L 5452.29,6358.56 L 5462.29,6352.78 L 5883.63,6595.8 Z " />
<path stroke="transparent" fill="#000000" transform="matrix(0.0666667 0 0 0.0666667 -33.8533 -175)" d="M 4941.05,6663.69 L 4931.05,6657.9 L 4931.07,6646.36 L 5442.29,6352.77 L 5452.29,6358.56 L 5452.28,6370.09 L 4941.05,6663.69 Z " />
<path stroke="transparent" fill="#000000" transform="matrix(0.0666667 0 0 0.0666667 -33.8533 -175)" d="M 4885.05,4978.1 L 4905.05,4978.1 L 4905.05,5479.11 L 4885.05,5479.11 L 4885.05,4978.1 Z " />
<path stroke="transparent" fill="#000000" transform="matrix(0.0666667 0 0 0.0666667 -33.8533 -175)" d="M 4957.05,4978.1 L 4977.05,4978.1 L 4977.05,5478.99 L 4957.05,5478.99 L 4957.05,4978.1 Z " />
<path stroke="transparent" fill="#000000" transform="matrix(0.0666667 0 0 0.0666667 -33.8533 -175)" d="M 4422.95,5764.03 L 4412.95,5758.26 L 4412.94,5746.71 L 4931.04,5446.72 L 4931.07,5469.81 L 4422.95,5764.03 Z " />
<path stroke="transparent" fill="#000000" transform="matrix(0.0666667 0 0 0.0666667 -33.8533 -175)" d="M 5533.32,3669.81 L 5533.31,3658.27 L 5543.31,3652.49 L 6053.74,3946.72 L 6053.75,3969.81 L 5533.32,3669.81 Z " />
<path stroke="transparent" fill="#000000" transform="matrix(0.0666667 0 0 0.0666667 -33.8533 -175)" d="M 4534.03,6956.93 L 4473.93,6853.07 L 4492.38,6845.02 L 4550.2,6944.95 L 4534.03,6956.93 Z " />
<path stroke="transparent" fill="#000000" transform="matrix(0.0666667 0 0 0.0666667 -33.8533 -175)" d="M 4582.47,6921.03 L 4529.2,6828.97 L 4547.65,6820.92 L 4598.64,6909.04 L 4582.47,6921.03 Z " />
<path stroke="transparent" fill="#000000" transform="matrix(0.0666667 0 0 0.0666667 -33.8533 -175)" d="M 4630.91,6885.13 L 4584.47,6804.86 L 4602.92,6796.82 L 4647.08,6873.14 L 4630.91,6885.13 Z " />
<path stroke="transparent" fill="#000000" transform="matrix(0.0666667 0 0 0.0666667 -33.8533 -175)" d="M 4679.35,6849.22 L 4639.74,6780.76 L 4658.19,6772.72 L 4695.52,6837.24 L 4679.35,6849.22 Z " />
<path stroke="transparent" fill="#000000" transform="matrix(0.0666667 0 0 0.0666667 -33.8533 -175)" d="M 4727.79,6813.32 L 4695.01,6756.66 L 4713.46,6748.62 L 4743.96,6801.33 L 4727.79,6813.32 Z " />
<path stroke="transparent" fill="#000000" transform="matrix(0.0666667 0 0 0.0666667 -33.8533 -175)" d="M 4776.23,6777.42 L 4750.28,6732.56 L 4768.73,6724.51 L 4792.4,6765.43 L 4776.23,6777.42 Z " />
<path stroke="transparent" fill="#000000" transform="matrix(0.0666667 0 0 0.0666667 -33.8533 -175)" d="M 4824.67,6741.51 L 4805.55,6708.46 L 4824,6700.41 L 4840.84,6729.53 L 4824.67,6741.51 Z " />
<path stroke="transparent" fill="#000000" transform="matrix(0.0666667 0 0 0.0666667 -33.8533 -175)" d="M 4873.11,6705.61 L 4860.82,6684.36 L 4879.27,6676.31 L 4889.28,6693.62 L 4873.11,6705.61 Z " />
<path stroke="transparent" fill="#000000" transform="matrix(0.0666667 0 0 0.0666667 -33.8533 -175)" d="M 4412.94,6370.1 L 4412.95,6358.56 L 4422.95,6352.78 L 4931.07,6646.36 L 4931.05,6657.9 L 4921.05,6663.67 L 4412.94,6370.1 Z " />
<path stroke="transparent" fill="#000000" transform="matrix(0.0666667 0 0 0.0666667 -33.8533 -175)" d="M 4941.05,7238.36 L 4931.05,7257.9 L 4921.05,7252.13 L 4921.05,6663.67 L 4931.05,6657.9 L 4941.05,6663.69 L 4941.05,7238.36 Z " />
<path stroke="transparent" fill="#000000" transform="matrix(0.0666667 0 0 0.0666667 -33.8533 -175)" d="M 4422.95,6352.78 L 4412.95,6358.56 L 4402.95,6352.78 L 4402.95,5764.04 L 4412.95,5758.26 L 4422.95,5764.03 L 4422.95,6352.78 Z " />
<path stroke="transparent" fill="#000000" transform="matrix(0.0666667 0 0 0.0666667 -33.8533 -175)" d="M 4494.98,6316.98 L 4474.98,6316.98 L 4474.98,5799.79 L 4494.98,5799.79 L 4494.98,6316.98 Z " />
<path stroke="transparent" fill="#000000" transform="matrix(0.0666667 0 0 0.0666667 -33.8533 -175)" d="M 3893.31,5469.81 L 3893.31,5446.72 L 4412.94,5746.71 L 4412.95,5758.26 L 4402.95,5764.04 L 3893.31,5469.81 Z " />
<path stroke="transparent" fill="#000000" transform="matrix(0.0666667 0 0 0.0666667 -33.8533 -175)" d="M 5523.31,3064.03 L 5543.31,3052.5 L 5543.31,3652.49 L 5533.31,3658.27 L 5523.31,3652.5 L 5523.31,3064.03 Z " />
<path stroke="transparent" fill="#000000" transform="matrix(0.0666667 0 0 0.0666667 -33.8533 -175)" d="M 5451.31,3099.81 L 5471.31,3099.81 L 5471.31,3616.72 L 5451.31,3616.72 L 5451.31,3099.81 Z " />
<path stroke="transparent" fill="#000000" transform="matrix(0.0666667 0 0 0.0666667 -33.8533 -175)" d="M 5014.41,3969.81 L 5014.39,3946.72 L 5523.31,3652.5 L 5533.31,3658.27 L 5533.32,3669.81 L 5014.41,3969.81 Z " />
<path stroke="transparent" fill="#000000" transform="matrix(0.0666667 0 0 0.0666667 -33.8533 -175)" d="M 3990.96,6613.19 L 3980.98,6595.86 L 4402.95,6352.78 L 4412.95,6358.56 L 4412.94,6370.1 L 3990.96,6613.19 Z " />
<path stroke="transparent" fill="#000000" transform="matrix(0.0666667 0 0 0.0666667 -33.8533 -175)" d="M 5363.2,7496.35 L 5353.18,7513.66 L 4931.05,7269.45 L 4931.05,7257.9 L 4953,7259.05 L 5363.2,7496.35 Z " />
<path stroke="transparent" fill="#000000" transform="matrix(0.0666667 0 0 0.0666667 -33.8533 -175)" d="M 4421.42,7564.32 L 4411.42,7558.56 L 4411.98,7546.68 L 4921.05,7252.13 L 4931.05,7257.9 L 4931.05,7269.45 L 4421.42,7564.32 Z " />
<path stroke="transparent" fill="#000000" transform="matrix(0.0666667 0 0 0.0666667 -33.8533 -175)" d="M 5311.48,6969.54 L 5371.38,7073.52 L 4953,7259.05 L 4931.05,7257.9 L 4941.05,7238.36 L 5311.48,6969.54 Z " />
<path stroke="transparent" fill="#000000" transform="matrix(0.0666667 0 0 0.0666667 -33.8533 -175)" d="M 3373.75,5769.81 L 3373.75,5746.72 L 3893.31,5446.72 L 3893.31,5469.81 L 3373.75,5769.81 Z " />
<path stroke="transparent" fill="#000000" transform="matrix(0.0666667 0 0 0.0666667 -33.8533 -175)" d="M 3847.31,4978.1 L 3867.31,4978.1 L 3867.31,5479.05 L 3847.31,5479.05 L 3847.31,4978.1 Z " />
<path stroke="transparent" fill="#000000" transform="matrix(0.0666667 0 0 0.0666667 -33.8533 -175)" d="M 3919.31,4978.1 L 3939.31,4978.1 L 3939.31,5479.05 L 3919.31,5479.05 L 3919.31,4978.1 Z " />
<path stroke="transparent" fill="#000000" transform="matrix(0.0666667 0 0 0.0666667 -33.8533 -175)" d="M 5014.39,2769.81 L 5014.41,2746.72 L 5543.31,3052.5 L 5523.31,3064.03 L 5014.39,2769.81 Z " />
<path stroke="transparent" fill="#000000" transform="matrix(0.0666667 0 0 0.0666667 -33.8533 -175)" d="M 4483.31,3664.05 L 4503.31,3652.48 L 5014.39,3946.72 L 5014.41,3969.81 L 4483.31,3664.05 Z " />
<path stroke="transparent" fill="#000000" transform="matrix(0.0666667 0 0 0.0666667 -33.8533 -175)" d="M 4560.47,3625.21 L 4570.45,3607.88 L 5019.31,3866.3 L 5009.33,3883.63 L 4560.47,3625.21 Z " />
<path stroke="transparent" fill="#000000" transform="matrix(0.0666667 0 0 0.0666667 -33.8533 -175)" d="M 5460.76,8164.34 L 5440.76,8152.78 L 5440.76,7678.39 L 5460.76,7678.39 L 5460.76,8164.34 Z " />
<path stroke="transparent" fill="#000000" transform="matrix(0.0666667 0 0 0.0666667 -33.8533 -175)" d="M 3961.78,7367.69 L 4021.89,7263.82 L 4411.98,7546.68 L 4411.42,7558.56 L 4401.42,7564.97 L 3961.78,7367.69 Z " />
<path stroke="transparent" fill="#000000" transform="matrix(0.0666667 0 0 0.0666667 -33.8533 -175)" d="M 4421.42,8152.78 L 4401.42,8164.34 L 4401.42,7564.97 L 4411.42,7558.56 L 4421.42,7564.32 L 4421.42,8152.78 Z " />
<path stroke="transparent" fill="#000000" transform="matrix(0.0666667 0 0 0.0666667 -33.8533 -175)" d="M 2854.11,5469.81 L 2854.11,5446.72 L 3373.75,5746.72 L 3373.75,5769.81 L 2854.11,5469.81 Z " />
<path stroke="transparent" fill="#000000" transform="matrix(0.0666667 0 0 0.0666667 -33.8533 -175)" d="M 2849.11,5550.07 L 2859.11,5532.75 L 3342.75,5811.96 L 3332.75,5829.28 L 2849.11,5550.07 Z " />
<path stroke="transparent" fill="#000000" transform="matrix(0.0666667 0 0 0.0666667 -33.8533 -175)" d="M 4503.31,3064.05 L 4493.31,3058.27 L 4493.32,3046.72 L 5014.41,2746.72 L 5014.39,2769.81 L 4503.31,3064.05 Z " />
<path stroke="transparent" fill="#000000" transform="matrix(0.0666667 0 0 0.0666667 -33.8533 -175)" d="M 4570.45,3108.65 L 4560.47,3091.32 L 5009.33,2832.9 L 5019.31,2850.23 L 4570.45,3108.65 Z " />
<path stroke="transparent" fill="#000000" transform="matrix(0.0666667 0 0 0.0666667 -33.8533 -175)" d="M 4483.31,3064.04 L 4493.31,3058.27 L 4503.31,3064.05 L 4503.31,3652.48 L 4483.31,3664.05 L 4483.31,3064.04 Z " />
<path stroke="transparent" fill="#000000" transform="matrix(0.0666667 0 0 0.0666667 -33.8533 -175)" d="M 5952.94,8378.94 L 5892.98,8482.89 L 5876.67,8471.13 L 5934.59,8370.71 L 5952.94,8378.94 Z " />
<path stroke="transparent" fill="#000000" transform="matrix(0.0666667 0 0 0.0666667 -33.8533 -175)" d="M 5898.93,8354.71 L 5844.97,8448.27 L 5828.66,8436.52 L 5880.59,8346.48 L 5898.93,8354.71 Z " />
<path stroke="transparent" fill="#000000" transform="matrix(0.0666667 0 0 0.0666667 -33.8533 -175)" d="M 5844.92,8330.48 L 5796.95,8413.66 L 5780.64,8401.9 L 5826.58,8322.25 L 5844.92,8330.48 Z " />
<path stroke="transparent" fill="#000000" transform="matrix(0.0666667 0 0 0.0666667 -33.8533 -175)" d="M 5790.92,8306.25 L 5748.94,8379.04 L 5732.63,8367.28 L 5772.58,8298.02 L 5790.92,8306.25 Z " />
<path stroke="transparent" fill="#000000" transform="matrix(0.0666667 0 0 0.0666667 -33.8533 -175)" d="M 5736.91,8282.02 L 5700.92,8344.42 L 5684.61,8332.67 L 5718.57,8273.8 L 5736.91,8282.02 Z " />
<path stroke="transparent" fill="#000000" transform="matrix(0.0666667 0 0 0.0666667 -33.8533 -175)" d="M 5682.91,8257.8 L 5652.91,8309.81 L 5636.6,8298.05 L 5664.56,8249.57 L 5682.91,8257.8 Z " />
<path stroke="transparent" fill="#000000" transform="matrix(0.0666667 0 0 0.0666667 -33.8533 -175)" d="M 5628.9,8233.57 L 5604.89,8275.19 L 5588.58,8263.44 L 5610.56,8225.34 L 5628.9,8233.57 Z " />
<path stroke="transparent" fill="#000000" transform="matrix(0.0666667 0 0 0.0666667 -33.8533 -175)" d="M 5574.89,8209.34 L 5556.88,8240.58 L 5540.57,8228.82 L 5556.55,8201.11 L 5574.89,8209.34 Z " />
<path stroke="transparent" fill="#000000" transform="matrix(0.0666667 0 0 0.0666667 -33.8533 -175)" d="M 5520.89,8185.11 L 5508.86,8205.96 L 5492.55,8194.2 L 5502.55,8176.88 L 5520.89,8185.11 Z " />
<path stroke="transparent" fill="#000000" transform="matrix(0.0666667 0 0 0.0666667 -33.8533 -175)" d="M 4941.61,8463.36 L 4931.05,8457.9 L 4931.05,8446.36 L 5440.76,8152.78 L 5460.76,8164.34 L 4941.61,8463.36 Z " />
<path stroke="transparent" fill="#000000" transform="matrix(0.0666667 0 0 0.0666667 -33.8533 -175)" d="M 4931.05,8446.36 L 4931.05,8457.9 L 4920.5,8463.36 L 4401.42,8164.34 L 4421.42,8152.78 L 4931.05,8446.36 Z " />
<path stroke="transparent" fill="#000000" transform="matrix(0.0666667 0 0 0.0666667 -33.8533 -175)" d="M 4014.47,8456.5 L 3954.56,8352.53 L 3973.03,8344.52 L 4030.66,8444.54 L 4014.47,8456.5 Z " />
<path stroke="transparent" fill="#000000" transform="matrix(0.0666667 0 0 0.0666667 -33.8533 -175)" d="M 4062.88,8420.74 L 4009.78,8328.58 L 4028.25,8320.57 L 4079.07,8408.78 L 4062.88,8420.74 Z " />
<path stroke="transparent" fill="#000000" transform="matrix(0.0666667 0 0 0.0666667 -33.8533 -175)" d="M 4111.29,8384.98 L 4065,8304.63 L 4083.47,8296.62 L 4127.48,8373.02 L 4111.29,8384.98 Z " />
<path stroke="transparent" fill="#000000" transform="matrix(0.0666667 0 0 0.0666667 -33.8533 -175)" d="M 4159.71,8349.22 L 4120.22,8280.69 L 4138.69,8272.68 L 4175.9,8337.26 L 4159.71,8349.22 Z " />
<path stroke="transparent" fill="#000000" transform="matrix(0.0666667 0 0 0.0666667 -33.8533 -175)" d="M 4208.12,8313.46 L 4175.44,8256.74 L 4193.91,8248.73 L 4224.31,8301.5 L 4208.12,8313.46 Z " />
<path stroke="transparent" fill="#000000" transform="matrix(0.0666667 0 0 0.0666667 -33.8533 -175)" d="M 4256.54,8277.7 L 4230.66,8232.79 L 4249.13,8224.78 L 4272.73,8265.74 L 4256.54,8277.7 Z " />
<path stroke="transparent" fill="#000000" transform="matrix(0.0666667 0 0 0.0666667 -33.8533 -175)" d="M 4304.95,8241.94 L 4285.88,8208.84 L 4304.35,8200.83 L 4321.14,8229.98 L 4304.95,8241.94 Z " />
<path stroke="transparent" fill="#000000" transform="matrix(0.0666667 0 0 0.0666667 -33.8533 -175)" d="M 4353.36,8206.18 L 4341.1,8184.9 L 4359.57,8176.89 L 4369.56,8194.22 L 4353.36,8206.18 Z " />
<path stroke="transparent" fill="#000000" transform="matrix(0.0666667 0 0 0.0666667 -33.8533 -175)" d="M 2344.55,5764.04 L 2334.55,5758.26 L 2334.55,5746.72 L 2854.11,5446.72 L 2854.11,5469.81 L 2344.55,5764.04 Z " />
<path stroke="transparent" fill="#000000" transform="matrix(0.0666667 0 0 0.0666667 -33.8533 -175)" d="M 4068.77,2824.68 L 4078.77,2807.36 L 4493.32,3046.72 L 4493.31,3058.27 L 4483.31,3064.04 L 4068.77,2824.68 Z " />
<path stroke="transparent" fill="#000000" transform="matrix(0.0666667 0 0 0.0666667 -33.8533 -175)" d="M 6385.59,8207.21 L 6395.56,8224.55 L 5974.73,8466.57 L 5964.76,8449.23 L 6385.59,8207.21 Z " />
<path stroke="transparent" fill="#000000" transform="matrix(0.0666667 0 0 0.0666667 -33.8533 -175)" d="M 4991.05,8952.73 L 4871.05,8952.73 L 4920.5,8463.36 L 4931.05,8457.9 L 4941.61,8463.36 L 4991.05,8952.73 Z " />
<path stroke="transparent" fill="#000000" transform="matrix(0.0666667 0 0 0.0666667 -33.8533 -175)" d="M 2344.55,6364.34 L 2324.55,6352.78 L 2324.55,5764.04 L 2334.55,5758.26 L 2344.55,5764.04 L 2344.55,6364.34 Z " />
<path stroke="transparent" fill="#000000" transform="matrix(0.0666667 0 0 0.0666667 -33.8533 -175)" d="M 2272.51,6316.92 L 2252.51,6316.92 L 2252.51,5799.86 L 2272.51,5799.86 L 2272.51,6316.92 Z " />
<path stroke="transparent" fill="#000000" transform="matrix(0.0666667 0 0 0.0666667 -33.8533 -175)" d="M 1814.9,5469.81 L 1814.92,5446.72 L 2334.55,5746.72 L 2334.55,5758.26 L 2324.55,5764.04 L 1814.9,5469.81 Z " />
<path stroke="transparent" fill="#000000" transform="matrix(0.0666667 0 0 0.0666667 -33.8533 -175)" d="M 1814.92,6669.44 L 1814.9,6646.36 L 2324.55,6352.78 L 2344.55,6364.34 L 1814.92,6669.44 Z " />
<path stroke="transparent" fill="#000000" transform="matrix(0.0666667 0 0 0.0666667 -33.8533 -175)" d="M 1303.82,5764.05 L 1283.82,5752.48 L 1814.92,5446.72 L 1814.9,5469.81 L 1303.82,5764.05 Z " />
<path stroke="transparent" fill="#000000" transform="matrix(0.0666667 0 0 0.0666667 -33.8533 -175)" d="M 1370.96,5808.65 L 1360.98,5791.32 L 1809.87,5532.88 L 1819.85,5550.22 L 1370.96,5808.65 Z " />
<path stroke="transparent" fill="#000000" transform="matrix(0.0666667 0 0 0.0666667 -33.8533 -175)" d="M 1293.83,6370.09 L 1293.82,6358.56 L 1303.82,6352.77 L 1814.9,6646.36 L 1814.92,6669.44 L 1293.83,6370.09 Z " />
<path stroke="transparent" fill="#000000" transform="matrix(0.0666667 0 0 0.0666667 -33.8533 -175)" d="M 1360.95,6325.49 L 1370.91,6308.15 L 1819.84,6566.04 L 1809.88,6583.38 L 1360.95,6325.49 Z " />
<path stroke="transparent" fill="#000000" transform="matrix(0.0666667 0 0 0.0666667 -33.8533 -175)" d="M 1303.82,6352.77 L 1293.82,6358.56 L 1283.82,6352.78 L 1283.82,5752.48 L 1303.82,5764.05 L 1303.82,6352.77 Z " />
<path stroke="transparent" fill="#000000" transform="matrix(0.0666667 0 0 0.0666667 -33.8533 -175)" d="M 871.906,6613.18 L 861.921,6595.85 L 1283.82,6352.78 L 1293.82,6358.56 L 1293.83,6370.09 L 871.906,6613.18 Z " />
</svg>
