<?xml version="1.0" standalone="no" ?>
<!DOCTYPE svg PUBLIC "-//W3C//DTD SVG 1.1//EN" "http://www.w3.org/Graphics/SVG/1.1/DTD/svg11.dtd">
<svg width="591px" height="246px" viewBox="0 0 591 246" style="background-color: #ffffff00" xmlns="http://www.w3.org/2000/svg" xmlns:xlink="http://www.w3.org/1999/xlink" version="1.1" >
<text x="0" y="0" stroke="transparent" fill="#000000" transform="matrix(0.0833333 0 0 0.0833333 102.918 67.503)" style="font:normal normal normal 200px 'Arial'" >
O</text>
<text x="0" y="0" stroke="transparent" fill="#000000" transform="matrix(0.0833333 0 0 0.0833333 189.667 67.503)" style="font:normal normal normal 200px 'Arial'" >
O</text>
<text x="0" y="0" stroke="transparent" fill="#000000" transform="matrix(0.0833333 0 0 0.0833333 189.667 168.137)" style="font:normal normal normal 200px 'Arial'" >
OH</text>
<text x="0" y="0" stroke="transparent" fill="#000000" transform="matrix(0.0833333 0 0 0.0833333 102.918 217.875)" style="font:normal normal normal 200px 'Arial'" >
OH</text>
<text x="0" y="0" stroke="transparent" fill="#000000" transform="matrix(0.0833333 0 0 0.0833333 4.13199 168.137)" style="font:normal normal normal 200px 'Arial'" >
HO</text>
<text x="0" y="0" stroke="transparent" fill="#000000" transform="matrix(0.0833333 0 0 0.0833333 276.423 17.7648)" style="font:normal normal normal 200px 'Arial'" >
OH</text>
<text x="0" y="0" stroke="transparent" fill="#000000" transform="matrix(0.0833333 0 0 0.0833333 16.1681 17.7648)" style="font:normal normal normal 200px 'Arial'" >
OH</text>
<text x="0" y="0" stroke="transparent" fill="#000000" transform="matrix(0.0833333 0 0 0.0833333 406.547 242.166)" style="font:normal normal normal 200px 'Arial'" >
OH</text>
<path stroke="transparent" fill="#000000" transform="matrix(0.0833333 0 0 0.0833333 -63.1667 -229)" d="M 2581.51,3791.14 L 2591.51,3785.41 L 2601.51,3791.78 L 2601.51,4394.97 L 2581.51,4383.39 L 2581.51,3791.14 Z " />
<path stroke="transparent" fill="#000000" transform="matrix(0.0833333 0 0 0.0833333 -63.1667 -229)" d="M 2590.95,3773.49 L 2591.51,3785.41 L 2581.51,3791.14 L 2165.66,3547.16 L 2175.78,3529.91 L 2590.95,3773.49 Z " />
<path stroke="transparent" fill="#000000" transform="matrix(0.0833333 0 0 0.0833333 -63.1667 -229)" d="M 2982.38,3486.53 L 3043.1,3590.03 L 2601.51,3791.78 L 2591.51,3785.41 L 2590.95,3773.49 L 2982.38,3486.53 Z " />
<path stroke="transparent" fill="#000000" transform="matrix(0.0833333 0 0 0.0833333 -63.1667 -229)" d="M 2581.51,4383.39 L 2601.51,4394.97 L 2081.57,4693.12 L 2071.01,4687.65 L 2071.01,4676.12 L 2581.51,4383.39 Z " />
<path stroke="transparent" fill="#000000" transform="matrix(0.0833333 0 0 0.0833333 -63.1667 -229)" d="M 3049.08,4582.4 L 2989.39,4686.5 L 2973.17,4674.57 L 3030.6,4574.43 L 3049.08,4582.4 Z " />
<path stroke="transparent" fill="#000000" transform="matrix(0.0833333 0 0 0.0833333 -63.1667 -229)" d="M 2993.76,4558.53 L 2940.85,4650.81 L 2924.63,4638.88 L 2975.28,4550.56 L 2993.76,4558.53 Z " />
<path stroke="transparent" fill="#000000" transform="matrix(0.0833333 0 0 0.0833333 -63.1667 -229)" d="M 2938.44,4534.67 L 2892.31,4615.11 L 2876.09,4603.19 L 2919.95,4526.7 L 2938.44,4534.67 Z " />
<path stroke="transparent" fill="#000000" transform="matrix(0.0833333 0 0 0.0833333 -63.1667 -229)" d="M 2883.11,4510.8 L 2843.77,4579.42 L 2827.55,4567.49 L 2864.63,4502.83 L 2883.11,4510.8 Z " />
<path stroke="transparent" fill="#000000" transform="matrix(0.0833333 0 0 0.0833333 -63.1667 -229)" d="M 2827.79,4486.94 L 2795.23,4543.73 L 2779.01,4531.8 L 2809.31,4478.97 L 2827.79,4486.94 Z " />
<path stroke="transparent" fill="#000000" transform="matrix(0.0833333 0 0 0.0833333 -63.1667 -229)" d="M 2772.46,4463.07 L 2746.68,4508.03 L 2730.47,4496.11 L 2753.98,4455.1 L 2772.46,4463.07 Z " />
<path stroke="transparent" fill="#000000" transform="matrix(0.0833333 0 0 0.0833333 -63.1667 -229)" d="M 2717.14,4439.21 L 2698.14,4472.34 L 2681.93,4460.41 L 2698.66,4431.24 L 2717.14,4439.21 Z " />
<path stroke="transparent" fill="#000000" transform="matrix(0.0833333 0 0 0.0833333 -63.1667 -229)" d="M 2661.82,4415.34 L 2649.6,4436.64 L 2633.39,4424.72 L 2643.33,4407.37 L 2661.82,4415.34 Z " />
<path stroke="transparent" fill="#000000" transform="matrix(0.0833333 0 0 0.0833333 -63.1667 -229)" d="M 2131.01,5179.34 L 2011.01,5179.34 L 2060.46,4693.12 L 2071.01,4687.65 L 2081.57,4693.12 L 2131.01,5179.34 Z " />
<path stroke="transparent" fill="#000000" transform="matrix(0.0833333 0 0 0.0833333 -63.1667 -229)" d="M 1540.51,4394.97 L 1560.51,4383.39 L 2071.01,4676.12 L 2071.01,4687.65 L 2060.46,4693.12 L 1540.51,4394.97 Z " />
<path stroke="transparent" fill="#000000" transform="matrix(0.0833333 0 0 0.0833333 -63.1667 -229)" d="M 1966.68,3529.65 L 1976.8,3546.9 L 1560.51,3791.14 L 1550.51,3785.41 L 1550.97,3773.55 L 1966.68,3529.65 Z " />
<path stroke="transparent" fill="#000000" transform="matrix(0.0833333 0 0 0.0833333 -63.1667 -229)" d="M 1540.51,3791.66 L 1550.51,3785.41 L 1560.51,3791.14 L 1560.51,4383.39 L 1540.51,4394.97 L 1540.51,3791.66 Z " />
<path stroke="transparent" fill="#000000" transform="matrix(0.0833333 0 0 0.0833333 -63.1667 -229)" d="M 1152.63,4686.5 L 1092.94,4582.4 L 1111.42,4574.43 L 1168.85,4674.58 L 1152.63,4686.5 Z " />
<path stroke="transparent" fill="#000000" transform="matrix(0.0833333 0 0 0.0833333 -63.1667 -229)" d="M 1201.17,4650.81 L 1148.26,4558.54 L 1166.74,4550.56 L 1217.39,4638.88 L 1201.17,4650.81 Z " />
<path stroke="transparent" fill="#000000" transform="matrix(0.0833333 0 0 0.0833333 -63.1667 -229)" d="M 1249.71,4615.11 L 1203.58,4534.67 L 1222.07,4526.7 L 1265.93,4603.19 L 1249.71,4615.11 Z " />
<path stroke="transparent" fill="#000000" transform="matrix(0.0833333 0 0 0.0833333 -63.1667 -229)" d="M 1298.25,4579.42 L 1258.91,4510.81 L 1277.39,4502.83 L 1314.47,4567.5 L 1298.25,4579.42 Z " />
<path stroke="transparent" fill="#000000" transform="matrix(0.0833333 0 0 0.0833333 -63.1667 -229)" d="M 1346.8,4543.73 L 1314.23,4486.94 L 1332.72,4478.97 L 1363.01,4531.8 L 1346.8,4543.73 Z " />
<path stroke="transparent" fill="#000000" transform="matrix(0.0833333 0 0 0.0833333 -63.1667 -229)" d="M 1395.34,4508.03 L 1369.56,4463.07 L 1388.04,4455.1 L 1411.55,4496.11 L 1395.34,4508.03 Z " />
<path stroke="transparent" fill="#000000" transform="matrix(0.0833333 0 0 0.0833333 -63.1667 -229)" d="M 1443.88,4472.34 L 1424.88,4439.21 L 1443.37,4431.24 L 1460.1,4460.41 L 1443.88,4472.34 Z " />
<path stroke="transparent" fill="#000000" transform="matrix(0.0833333 0 0 0.0833333 -63.1667 -229)" d="M 1492.42,4436.65 L 1480.21,4415.34 L 1498.69,4407.37 L 1508.64,4424.72 L 1492.42,4436.65 Z " />
<path stroke="transparent" fill="#000000" transform="matrix(0.0833333 0 0 0.0833333 -63.1667 -229)" d="M 1020.02,3541.57 L 1040.02,3413.96 L 1550.97,3773.55 L 1550.51,3785.41 L 1540.51,3791.66 L 1020.02,3541.57 Z " />
<path stroke="transparent" fill="#000000" transform="matrix(0.0833333 0 0 0.0833333 -63.1667 -229)" d="M 3206.66,3547.15 L 3216.78,3529.9 L 3632.58,3773.82 L 3632.58,3785.41 L 3622.58,3791.14 L 3206.66,3547.15 Z " />
<path stroke="transparent" fill="#000000" transform="matrix(0.0833333 0 0 0.0833333 -63.1667 -229)" d="M 5182.28,4071.73 L 5192.05,4054.28 L 5712.55,4345.76 L 5702.77,4363.21 L 5182.28,4071.73 Z " />
<path stroke="transparent" fill="#000000" transform="matrix(0.0833333 0 0 0.0833333 -63.1667 -229)" d="M 5667.79,4425.67 L 5677.57,4408.22 L 6198.06,4699.71 L 6188.29,4717.16 L 5667.79,4425.67 Z " />
<path stroke="transparent" fill="#000000" transform="matrix(0.0833333 0 0 0.0833333 -63.1667 -229)" d="M 5702.77,4363.21 L 5712.55,4345.76 L 6233.04,4637.25 L 6223.27,4654.7 L 5702.77,4363.21 Z " />
<path stroke="transparent" fill="#000000" transform="matrix(0.0833333 0 0 0.0833333 -63.1667 -229)" d="M 5737.75,4300.75 L 5747.52,4283.3 L 6268.02,4574.79 L 6258.25,4592.24 L 5737.75,4300.75 Z " />
<path stroke="transparent" fill="#000000" transform="matrix(0.0833333 0 0 0.0833333 -63.1667 -229)" d="M 4634.59,3848.88 L 4644.28,3831.39 L 5157.87,4115.89 L 5148.18,4133.38 L 4634.59,3848.88 Z " />
<path stroke="transparent" fill="#000000" transform="matrix(0.0833333 0 0 0.0833333 -63.1667 -229)" d="M 4668.73,3787.25 L 4678.42,3769.75 L 5192.01,4054.26 L 5182.32,4071.75 L 4668.73,3787.25 Z " />
<path stroke="transparent" fill="#000000" transform="matrix(0.0833333 0 0 0.0833333 -63.1667 -229)" d="M 4702.87,3725.62 L 4712.56,3708.12 L 5226.15,3992.63 L 5216.46,4010.12 L 4702.87,3725.62 Z " />
<path stroke="transparent" fill="#000000" transform="matrix(0.0833333 0 0 0.0833333 -63.1667 -229)" d="M 6223.36,4654.75 L 6232.95,4637.2 L 6748.54,4919.09 L 6748.77,4942.01 L 6223.36,4654.75 Z " />
<path stroke="transparent" fill="#000000" transform="matrix(0.0833333 0 0 0.0833333 -63.1667 -229)" d="M 4153.13,3491.6 L 4153.08,3480.04 L 4163.08,3474.24 L 4678.55,3769.83 L 4668.6,3787.18 L 4153.13,3491.6 Z " />
<path stroke="transparent" fill="#000000" transform="matrix(0.0833333 0 0 0.0833333 -63.1667 -229)" d="M 3622.58,3791.14 L 3632.58,3785.41 L 3642.58,3791.14 L 3642.58,4383.39 L 3622.58,4394.97 L 3622.58,3791.14 Z " />
<path stroke="transparent" fill="#000000" transform="matrix(0.0833333 0 0 0.0833333 -63.1667 -229)" d="M 3642.58,3791.14 L 3632.58,3785.41 L 3632.58,3773.82 L 4143.08,3474.31 L 4153.08,3480.04 L 4153.13,3491.6 L 3642.58,3791.14 Z " />
<path stroke="transparent" fill="#000000" transform="matrix(0.0833333 0 0 0.0833333 -63.1667 -229)" d="M 6748.77,4942.01 L 6748.54,4919.09 L 7269.09,4620.59 L 7269.22,4643.57 L 6748.77,4942.01 Z " />
<path stroke="transparent" fill="#000000" transform="matrix(0.0833333 0 0 0.0833333 -63.1667 -229)" d="M 6789.44,5001.68 L 6779.5,4984.33 L 7264.64,4706.14 L 7274.59,4723.49 L 6789.44,5001.68 Z " />
<path stroke="transparent" fill="#000000" transform="matrix(0.0833333 0 0 0.0833333 -63.1667 -229)" d="M 3622.58,4394.97 L 3642.58,4383.39 L 4163.08,4681.85 L 4143.08,4693.44 L 3622.58,4394.97 Z " />
<path stroke="transparent" fill="#000000" transform="matrix(0.0833333 0 0 0.0833333 -63.1667 -229)" d="M 3591.79,4460.31 L 3601.74,4442.96 L 4086.05,4720.68 L 4076.1,4738.03 L 3591.79,4460.31 Z " />
<path stroke="transparent" fill="#000000" transform="matrix(0.0833333 0 0 0.0833333 -63.1667 -229)" d="M 4163.08,3474.24 L 4153.08,3480.04 L 4143.08,3474.31 L 4143.08,3003.01 L 4163.08,3003.01 L 4163.08,3474.24 Z " />
<path stroke="transparent" fill="#000000" transform="matrix(0.0833333 0 0 0.0833333 -63.1667 -229)" d="M 7269.22,4643.57 L 7269.09,4620.59 L 7808.42,4921.82 L 7798.66,4939.28 L 7269.22,4643.57 Z " />
<path stroke="transparent" fill="#000000" transform="matrix(0.0833333 0 0 0.0833333 -63.1667 -229)" d="M 4143.08,4693.44 L 4163.08,4681.85 L 4163.08,5278.78 L 4143.08,5290.23 L 4143.08,4693.44 Z " />
<path stroke="transparent" fill="#000000" transform="matrix(0.0833333 0 0 0.0833333 -63.1667 -229)" d="M 1040.02,3413.96 L 1020.02,3541.57 L 1020.02,3003.01 L 1040.02,3003.01 L 1040.02,3413.96 Z " />
<path stroke="transparent" fill="#000000" transform="matrix(0.0833333 0 0 0.0833333 -63.1667 -229)" d="M 5194.19,5296.03 L 5193.95,5272.98 L 5626.17,5515.02 L 5616.4,5532.47 L 5194.19,5296.03 Z " />
<path stroke="transparent" fill="#000000" transform="matrix(0.0833333 0 0 0.0833333 -63.1667 -229)" d="M 4143.08,5290.23 L 4163.08,5278.78 L 4673.57,5578.29 L 4673.57,5601.47 L 4143.08,5290.23 Z " />
<path stroke="transparent" fill="#000000" transform="matrix(0.0833333 0 0 0.0833333 -63.1667 -229)" d="M 4673.57,5601.47 L 4673.57,5578.29 L 5193.95,5272.98 L 5194.19,5296.03 L 4673.57,5601.47 Z " />
</svg>
