<?xml version="1.0" standalone="no" ?>
<!DOCTYPE svg PUBLIC "-//W3C//DTD SVG 1.1//EN" "http://www.w3.org/Graphics/SVG/1.1/DTD/svg11.dtd">
<svg width="694px" height="357px" viewBox="0 0 694 357" style="background-color: #ffffff00" xmlns="http://www.w3.org/2000/svg" xmlns:xlink="http://www.w3.org/1999/xlink" version="1.1" >
<text x="0" y="0" stroke="transparent" fill="#000000" transform="matrix(0.0833333 0 0 0.0833333 177.093 353.317)" style="font:normal normal normal 200px 'Arial'" >
OH</text>
<text x="0" y="0" stroke="transparent" fill="#000000" transform="matrix(0.0833333 0 0 0.0833333 3.45434 310.016)" style="font:normal normal normal 200px 'Arial'" >
HO</text>
<text x="0" y="0" stroke="transparent" fill="#000000" transform="matrix(0.0833333 0 0 0.0833333 256.563 85.016)" style="font:normal normal normal 200px 'Arial'" >
HO</text>
<text x="0" y="0" stroke="transparent" fill="#000000" transform="matrix(0.0833333 0 0 0.0833333 405.202 235.016)" style="font:normal normal normal 200px 'Arial'" >
O</text>
<text x="0" y="0" stroke="transparent" fill="#000000" transform="matrix(0.0833333 0 0 0.0833333 448.503 160.016)" style="font:normal normal normal 200px 'Arial'" >
O</text>
<text x="0" y="0" stroke="transparent" fill="#000000" transform="matrix(0.0833333 0 0 0.0833333 535.106 160.016)" style="font:normal normal normal 200px 'Arial'" >
O</text>
<text x="0" y="0" stroke="transparent" fill="#000000" transform="matrix(0.0833333 0 0 0.0833333 665.01 185.016)" style="font:normal normal normal 200px 'Arial'" >
OH</text>
<text x="0" y="0" stroke="transparent" fill="#000000" transform="matrix(0.0833333 0 0 0.0833333 621.708 260.016)" style="font:normal normal normal 200px 'Arial'" >
OH</text>
<text x="0" y="0" stroke="transparent" fill="#000000" transform="matrix(0.0833333 0 0 0.0833333 535.106 310.016)" style="font:normal normal normal 200px 'Arial'" >
OH</text>
<text x="0" y="0" stroke="transparent" fill="#000000" transform="matrix(0.0833333 0 0 0.0833333 436.467 260.016)" style="font:normal normal normal 200px 'Arial'" >
HO</text>
<path stroke="transparent" fill="#000000" transform="matrix(0.0833333 0 0 0.0833333 -118.25 -645.5)" d="M 5849.81,8334.19 L 5829.81,8334.19 L 5827.98,8314.19 L 5851.64,8314.19 L 5849.81,8334.19 Z " />
<path stroke="transparent" fill="#000000" transform="matrix(0.0833333 0 0 0.0833333 -118.25 -645.5)" d="M 5855.16,8275.75 L 5824.46,8275.75 L 5822.62,8255.75 L 5856.99,8255.75 L 5855.16,8275.75 Z " />
<path stroke="transparent" fill="#000000" transform="matrix(0.0833333 0 0 0.0833333 -118.25 -645.5)" d="M 5860.51,8217.3 L 5819.1,8217.3 L 5817.27,8197.3 L 5862.34,8197.3 L 5860.51,8217.3 Z " />
<path stroke="transparent" fill="#000000" transform="matrix(0.0833333 0 0 0.0833333 -118.25 -645.5)" d="M 5865.86,8158.86 L 5813.75,8158.86 L 5811.92,8138.86 L 5867.7,8138.86 L 5865.86,8158.86 Z " />
<path stroke="transparent" fill="#000000" transform="matrix(0.0833333 0 0 0.0833333 -118.25 -645.5)" d="M 5871.22,8100.41 L 5808.4,8100.41 L 5806.57,8080.41 L 5873.05,8080.41 L 5871.22,8100.41 Z " />
<path stroke="transparent" fill="#000000" transform="matrix(0.0833333 0 0 0.0833333 -118.25 -645.5)" d="M 5876.57,8041.97 L 5803.05,8041.97 L 5801.22,8021.97 L 5878.4,8021.97 L 5876.57,8041.97 Z " />
<path stroke="transparent" fill="#000000" transform="matrix(0.0833333 0 0 0.0833333 -118.25 -645.5)" d="M 5881.92,7983.53 L 5797.7,7983.53 L 5795.86,7963.53 L 5883.75,7963.53 L 5881.92,7983.53 Z " />
<path stroke="transparent" fill="#000000" transform="matrix(0.0833333 0 0 0.0833333 -118.25 -645.5)" d="M 5887.27,7925.08 L 5792.34,7925.08 L 5790.51,7905.08 L 5889.1,7905.08 L 5887.27,7925.08 Z " />
<path stroke="transparent" fill="#000000" transform="matrix(0.0833333 0 0 0.0833333 -118.25 -645.5)" d="M 5892.62,7866.64 L 5786.99,7866.64 L 5785.16,7846.64 L 5894.46,7846.64 L 5892.62,7866.64 Z " />
<path stroke="transparent" fill="#000000" transform="matrix(0.0833333 0 0 0.0833333 -118.25 -645.5)" d="M 5897.98,7808.19 L 5781.64,7808.19 L 5779.81,7788.19 L 5899.81,7788.19 L 5897.98,7808.19 Z " />
<path stroke="transparent" fill="#000000" transform="matrix(0.0833333 0 0 0.0833333 -118.25 -645.5)" d="M 6369.42,8682.42 L 6349.42,8693.97 L 5839.81,8399.74 L 5839.81,8376.65 L 6369.42,8682.42 Z " />
<path stroke="transparent" fill="#000000" transform="matrix(0.0833333 0 0 0.0833333 -118.25 -645.5)" d="M 6369.42,9293.97 L 6349.42,9282.42 L 6349.42,8693.97 L 6369.42,8682.42 L 6369.42,9293.97 Z " />
<path stroke="transparent" fill="#000000" transform="matrix(0.0833333 0 0 0.0833333 -118.25 -645.5)" d="M 5861.32,9587.32 L 5839.81,9588.19 L 5839.81,9576.65 L 6349.42,9282.42 L 6369.42,9293.97 L 5861.32,9587.32 Z " />
<path stroke="transparent" fill="#000000" transform="matrix(0.0833333 0 0 0.0833333 -118.25 -645.5)" d="M 5849.81,10194 L 5829.81,10182.4 L 5829.81,9593.97 L 5839.81,9588.19 L 5849.81,9607.26 L 5849.81,10194 Z " />
<path stroke="transparent" fill="#000000" transform="matrix(0.0833333 0 0 0.0833333 -118.25 -645.5)" d="M 5320.19,10499.7 L 5320.19,10476.6 L 5829.81,10182.4 L 5849.81,10194 L 5320.19,10499.7 Z " />
<path stroke="transparent" fill="#000000" transform="matrix(0.0833333 0 0 0.0833333 -118.25 -645.5)" d="M 4800.58,10199.7 L 4800.58,10188.2 L 4810.58,10182.4 L 5320.19,10476.6 L 5320.19,10499.7 L 4800.58,10199.7 Z " />
<path stroke="transparent" fill="#000000" transform="matrix(0.0833333 0 0 0.0833333 -118.25 -645.5)" d="M 4790.58,9593.97 L 4810.58,9582.42 L 4810.58,10182.4 L 4800.58,10188.2 L 4790.58,10182.4 L 4790.58,9593.97 Z " />
<path stroke="transparent" fill="#000000" transform="matrix(0.0833333 0 0 0.0833333 -118.25 -645.5)" d="M 4280.96,9299.74 L 4280.96,9276.65 L 4810.58,9582.42 L 4790.58,9593.97 L 4280.96,9299.74 Z " />
<path stroke="transparent" fill="#000000" transform="matrix(0.0833333 0 0 0.0833333 -118.25 -645.5)" d="M 4275.96,9379.99 L 4285.96,9362.67 L 4733.58,9621.1 L 4723.58,9638.42 L 4275.96,9379.99 Z " />
<path stroke="transparent" fill="#000000" transform="matrix(0.0833333 0 0 0.0833333 -118.25 -645.5)" d="M 3823.37,9563.93 L 3703.18,9610.23 L 4280.96,9276.65 L 4280.96,9299.74 L 3823.37,9563.93 Z " />
<path stroke="transparent" fill="#000000" transform="matrix(0.0833333 0 0 0.0833333 -118.25 -645.5)" d="M 3771.81,10182.7 L 3761.35,10188.2 L 3750.89,10182.7 L 3703.18,9610.23 L 3823.37,9563.93 L 3771.81,10182.7 Z " />
<path stroke="transparent" fill="#000000" transform="matrix(0.0833333 0 0 0.0833333 -118.25 -645.5)" d="M 4269.45,10470 L 4280.96,10488.2 L 4270.96,10494 L 3761.35,10199.7 L 3761.35,10188.2 L 3771.81,10182.7 L 4269.45,10470 Z " />
<path stroke="transparent" fill="#000000" transform="matrix(0.0833333 0 0 0.0833333 -118.25 -645.5)" d="M 4290.96,10494 L 4280.96,10488.2 L 4292.48,10470 L 4790.58,10182.4 L 4800.58,10188.2 L 4800.58,10199.7 L 4290.96,10494 Z " />
<path stroke="transparent" fill="#000000" transform="matrix(0.0833333 0 0 0.0833333 -118.25 -645.5)" d="M 4290.96,11094 L 4270.96,11082.4 L 4270.96,10494 L 4280.96,10488.2 L 4290.96,10494 L 4290.96,11094 Z " />
<path stroke="transparent" fill="#000000" transform="matrix(0.0833333 0 0 0.0833333 -118.25 -645.5)" d="M 3713.18,11427.5 L 3813.37,11346.6 L 4270.96,11082.4 L 4290.96,11094 L 3713.18,11427.5 Z " />
<path stroke="transparent" fill="#000000" transform="matrix(0.0833333 0 0 0.0833333 -118.25 -645.5)" d="M 3241.27,11100 L 3241.73,11088.2 L 3251.73,11081.9 L 3813.37,11346.6 L 3713.18,11427.5 L 3241.27,11100 Z " />
<path stroke="transparent" fill="#000000" transform="matrix(0.0833333 0 0 0.0833333 -118.25 -645.5)" d="M 3231.73,10494 L 3241.73,10488.2 L 3251.73,10494 L 3251.73,11081.9 L 3241.73,11088.2 L 3231.73,11082.4 L 3231.73,10494 Z " />
<path stroke="transparent" fill="#000000" transform="matrix(0.0833333 0 0 0.0833333 -118.25 -645.5)" d="M 3251.73,10494 L 3241.73,10488.2 L 3253.25,10470 L 3750.89,10182.7 L 3761.35,10188.2 L 3761.35,10199.7 L 3251.73,10494 Z " />
<path stroke="transparent" fill="#000000" transform="matrix(0.0833333 0 0 0.0833333 -118.25 -645.5)" d="M 2722.12,10199.7 L 2722.12,10176.6 L 3230.22,10470 L 3241.73,10488.2 L 3231.73,10494 L 2722.12,10199.7 Z " />
<path stroke="transparent" fill="#000000" transform="matrix(0.0833333 0 0 0.0833333 -118.25 -645.5)" d="M 2212.5,10494 L 2192.5,10482.4 L 2722.12,10176.6 L 2722.12,10199.7 L 2212.5,10494 Z " />
<path stroke="transparent" fill="#000000" transform="matrix(0.0833333 0 0 0.0833333 -118.25 -645.5)" d="M 2212.5,11082.4 L 2202.5,11088.2 L 2192.5,11081.8 L 2192.5,10482.4 L 2212.5,10494 L 2212.5,11082.4 Z " />
<path stroke="transparent" fill="#000000" transform="matrix(0.0833333 0 0 0.0833333 -118.25 -645.5)" d="M 2722.12,11376.6 L 2722.12,11388.2 L 2707.73,11391.4 L 2203.05,11100.1 L 2202.5,11088.2 L 2212.5,11082.4 L 2722.12,11376.6 Z " />
<path stroke="transparent" fill="#000000" transform="matrix(0.0833333 0 0 0.0833333 -118.25 -645.5)" d="M 2729.77,11395.3 L 2722.12,11388.2 L 2722.12,11376.6 L 3231.73,11082.4 L 3241.73,11088.2 L 3241.27,11100 L 2729.77,11395.3 Z " />
<path stroke="transparent" fill="#000000" transform="matrix(0.0833333 0 0 0.0833333 -118.25 -645.5)" d="M 2474.08,11937.8 L 2370.15,11877.8 L 2707.73,11391.4 L 2722.12,11388.2 L 2729.77,11395.3 L 2474.08,11937.8 Z " />
<path stroke="transparent" fill="#000000" transform="matrix(0.0833333 0 0 0.0833333 -118.25 -645.5)" d="M 3047.08,11831 L 2943.15,11891 L 2934.91,11872.7 L 3035.32,11814.7 L 3047.08,11831 Z " />
<path stroke="transparent" fill="#000000" transform="matrix(0.0833333 0 0 0.0833333 -118.25 -645.5)" d="M 3012.39,11782.9 L 2918.85,11836.9 L 2910.61,11818.6 L 3000.62,11766.6 L 3012.39,11782.9 Z " />
<path stroke="transparent" fill="#000000" transform="matrix(0.0833333 0 0 0.0833333 -118.25 -645.5)" d="M 2977.69,11734.8 L 2894.54,11782.9 L 2886.3,11764.5 L 2965.93,11718.5 L 2977.69,11734.8 Z " />
<path stroke="transparent" fill="#000000" transform="matrix(0.0833333 0 0 0.0833333 -118.25 -645.5)" d="M 2943,11686.7 L 2870.23,11728.8 L 2861.99,11710.4 L 2931.24,11670.4 L 2943,11686.7 Z " />
<path stroke="transparent" fill="#000000" transform="matrix(0.0833333 0 0 0.0833333 -118.25 -645.5)" d="M 2908.31,11638.7 L 2845.93,11674.7 L 2837.69,11656.3 L 2896.55,11622.3 L 2908.31,11638.7 Z " />
<path stroke="transparent" fill="#000000" transform="matrix(0.0833333 0 0 0.0833333 -118.25 -645.5)" d="M 2873.61,11590.6 L 2821.62,11620.6 L 2813.38,11602.2 L 2861.85,11574.3 L 2873.61,11590.6 Z " />
<path stroke="transparent" fill="#000000" transform="matrix(0.0833333 0 0 0.0833333 -118.25 -645.5)" d="M 2838.92,11542.5 L 2797.31,11566.5 L 2789.07,11548.1 L 2827.16,11526.2 L 2838.92,11542.5 Z " />
<path stroke="transparent" fill="#000000" transform="matrix(0.0833333 0 0 0.0833333 -118.25 -645.5)" d="M 2804.23,11494.4 L 2773,11512.4 L 2764.76,11494.1 L 2792.47,11478.1 L 2804.23,11494.4 Z " />
<path stroke="transparent" fill="#000000" transform="matrix(0.0833333 0 0 0.0833333 -118.25 -645.5)" d="M 2769.54,11446.3 L 2748.7,11458.3 L 2740.46,11440 L 2757.78,11430 L 2769.54,11446.3 Z " />
<path stroke="transparent" fill="#000000" transform="matrix(0.0833333 0 0 0.0833333 -118.25 -645.5)" d="M 3514.12,11897.8 L 3514.12,11917.8 L 3022.12,11917.8 L 3022.12,11897.8 L 3514.12,11897.8 Z " />
<path stroke="transparent" fill="#000000" transform="matrix(0.0833333 0 0 0.0833333 -118.25 -645.5)" d="M 1805.5,11386.7 L 1745.5,11282.8 L 2192.5,11081.8 L 2202.5,11088.2 L 2203.05,11100.1 L 1805.5,11386.7 Z " />
<path stroke="transparent" fill="#000000" transform="matrix(0.0833333 0 0 0.0833333 -118.25 -645.5)" d="M 3181.73,9888.19 L 3301.73,9888.19 L 3253.25,10470 L 3241.73,10488.2 L 3230.22,10470 L 3181.73,9888.19 Z " />
<path stroke="transparent" fill="#000000" transform="matrix(0.0833333 0 0 0.0833333 -118.25 -645.5)" d="M 4220.96,9888.19 L 4340.96,9888.19 L 4292.48,10470 L 4280.96,10488.2 L 4269.45,10470 L 4220.96,9888.19 Z " />
<path stroke="transparent" fill="#000000" transform="matrix(0.0833333 0 0 0.0833333 -118.25 -645.5)" d="M 5268.35,9306.58 L 5278.35,9323.9 L 5262.05,9335.66 L 5250.01,9314.82 L 5268.35,9306.58 Z " />
<path stroke="transparent" fill="#000000" transform="matrix(0.0833333 0 0 0.0833333 -118.25 -645.5)" d="M 5214.28,9330.87 L 5230.27,9358.58 L 5213.97,9370.34 L 5195.94,9339.11 L 5214.28,9330.87 Z " />
<path stroke="transparent" fill="#000000" transform="matrix(0.0833333 0 0 0.0833333 -118.25 -645.5)" d="M 5160.2,9355.17 L 5182.19,9393.26 L 5165.89,9405.02 L 5141.86,9363.41 L 5160.2,9355.17 Z " />
<path stroke="transparent" fill="#000000" transform="matrix(0.0833333 0 0 0.0833333 -118.25 -645.5)" d="M 5106.13,9379.47 L 5134.11,9427.94 L 5117.81,9439.7 L 5087.79,9387.7 L 5106.13,9379.47 Z " />
<path stroke="transparent" fill="#000000" transform="matrix(0.0833333 0 0 0.0833333 -118.25 -645.5)" d="M 5052.05,9403.76 L 5086.04,9462.62 L 5069.73,9474.38 L 5033.72,9412 L 5052.05,9403.76 Z " />
<path stroke="transparent" fill="#000000" transform="matrix(0.0833333 0 0 0.0833333 -118.25 -645.5)" d="M 4997.98,9428.06 L 5037.96,9497.3 L 5021.65,9509.06 L 4979.64,9436.3 L 4997.98,9428.06 Z " />
<path stroke="transparent" fill="#000000" transform="matrix(0.0833333 0 0 0.0833333 -118.25 -645.5)" d="M 4943.91,9452.35 L 4989.88,9531.99 L 4973.58,9543.75 L 4925.57,9460.59 L 4943.91,9452.35 Z " />
<path stroke="transparent" fill="#000000" transform="matrix(0.0833333 0 0 0.0833333 -118.25 -645.5)" d="M 4889.83,9476.65 L 4941.8,9566.67 L 4925.5,9578.43 L 4871.49,9484.89 L 4889.83,9476.65 Z " />
<path stroke="transparent" fill="#000000" transform="matrix(0.0833333 0 0 0.0833333 -118.25 -645.5)" d="M 4835.76,9500.95 L 4893.72,9601.35 L 4877.42,9613.11 L 4817.42,9509.19 L 4835.76,9500.95 Z " />
<path stroke="transparent" fill="#000000" transform="matrix(0.0833333 0 0 0.0833333 -118.25 -645.5)" d="M 5310.19,9293.97 L 5330.19,9282.42 L 5839.81,9576.65 L 5839.81,9588.19 L 5829.81,9593.97 L 5310.19,9293.97 Z " />
<path stroke="transparent" fill="#000000" transform="matrix(0.0833333 0 0 0.0833333 -118.25 -645.5)" d="M 5310.19,8691.26 L 5320.19,8688.19 L 5330.19,8693.97 L 5330.19,9282.42 L 5310.19,9293.97 L 5310.19,8691.26 Z " />
<path stroke="transparent" fill="#000000" transform="matrix(0.0833333 0 0 0.0833333 -118.25 -645.5)" d="M 5330.19,8693.97 L 5320.19,8688.19 L 5324.57,8674.12 L 5839.81,8376.65 L 5839.81,8399.74 L 5330.19,8693.97 Z " />
<path stroke="transparent" fill="#000000" transform="matrix(0.0833333 0 0 0.0833333 -118.25 -645.5)" d="M 4968.23,8198.58 L 5072.15,8138.58 L 5324.57,8674.12 L 5320.19,8688.19 L 5310.19,8691.26 L 4968.23,8198.58 Z " />
<path stroke="transparent" fill="#000000" transform="matrix(0.0833333 0 0 0.0833333 -118.25 -645.5)" d="M 4828.76,8748.19 L 4828.76,8628.19 L 4848.76,8630.48 L 4848.76,8745.91 L 4828.76,8748.19 Z " />
<path stroke="transparent" fill="#000000" transform="matrix(0.0833333 0 0 0.0833333 -118.25 -645.5)" d="M 4888.39,8741.38 L 4888.39,8635.01 L 4908.39,8637.29 L 4908.39,8739.09 L 4888.39,8741.38 Z " />
<path stroke="transparent" fill="#000000" transform="matrix(0.0833333 0 0 0.0833333 -118.25 -645.5)" d="M 4948.01,8734.56 L 4948.01,8641.82 L 4968.01,8644.11 L 4968.01,8732.27 L 4948.01,8734.56 Z " />
<path stroke="transparent" fill="#000000" transform="matrix(0.0833333 0 0 0.0833333 -118.25 -645.5)" d="M 5007.64,8727.74 L 5007.64,8648.64 L 5027.64,8650.93 L 5027.64,8725.46 L 5007.64,8727.74 Z " />
<path stroke="transparent" fill="#000000" transform="matrix(0.0833333 0 0 0.0833333 -118.25 -645.5)" d="M 5067.27,8720.93 L 5067.27,8655.46 L 5087.27,8657.74 L 5087.27,8718.64 L 5067.27,8720.93 Z " />
<path stroke="transparent" fill="#000000" transform="matrix(0.0833333 0 0 0.0833333 -118.25 -645.5)" d="M 5126.89,8714.11 L 5126.89,8662.27 L 5146.89,8664.56 L 5146.89,8711.82 L 5126.89,8714.11 Z " />
<path stroke="transparent" fill="#000000" transform="matrix(0.0833333 0 0 0.0833333 -118.25 -645.5)" d="M 5186.52,8707.29 L 5186.52,8669.09 L 5206.52,8671.38 L 5206.52,8705.01 L 5186.52,8707.29 Z " />
<path stroke="transparent" fill="#000000" transform="matrix(0.0833333 0 0 0.0833333 -118.25 -645.5)" d="M 5246.14,8700.48 L 5246.14,8675.91 L 5266.14,8678.19 L 5266.14,8698.19 L 5246.14,8700.48 Z " />
<path stroke="transparent" fill="#000000" transform="matrix(0.0833333 0 0 0.0833333 -118.25 -645.5)" d="M 4860.58,10788.2 L 4740.58,10788.2 L 4742.41,10768.2 L 4858.75,10768.2 L 4860.58,10788.2 Z " />
<path stroke="transparent" fill="#000000" transform="matrix(0.0833333 0 0 0.0833333 -118.25 -645.5)" d="M 4855.23,10729.7 L 4745.93,10729.7 L 4747.76,10709.7 L 4853.39,10709.7 L 4855.23,10729.7 Z " />
<path stroke="transparent" fill="#000000" transform="matrix(0.0833333 0 0 0.0833333 -118.25 -645.5)" d="M 4849.87,10671.3 L 4751.28,10671.3 L 4753.11,10651.3 L 4848.04,10651.3 L 4849.87,10671.3 Z " />
<path stroke="transparent" fill="#000000" transform="matrix(0.0833333 0 0 0.0833333 -118.25 -645.5)" d="M 4844.52,10612.9 L 4756.63,10612.9 L 4758.46,10592.9 L 4842.69,10592.9 L 4844.52,10612.9 Z " />
<path stroke="transparent" fill="#000000" transform="matrix(0.0833333 0 0 0.0833333 -118.25 -645.5)" d="M 4839.17,10554.4 L 4761.99,10554.4 L 4763.82,10534.4 L 4837.34,10534.4 L 4839.17,10554.4 Z " />
<path stroke="transparent" fill="#000000" transform="matrix(0.0833333 0 0 0.0833333 -118.25 -645.5)" d="M 4833.82,10496 L 4767.34,10496 L 4769.17,10476 L 4831.99,10476 L 4833.82,10496 Z " />
<path stroke="transparent" fill="#000000" transform="matrix(0.0833333 0 0 0.0833333 -118.25 -645.5)" d="M 4828.46,10437.5 L 4772.69,10437.5 L 4774.52,10417.5 L 4826.63,10417.5 L 4828.46,10437.5 Z " />
<path stroke="transparent" fill="#000000" transform="matrix(0.0833333 0 0 0.0833333 -118.25 -645.5)" d="M 4823.11,10379.1 L 4778.04,10379.1 L 4779.87,10359.1 L 4821.28,10359.1 L 4823.11,10379.1 Z " />
<path stroke="transparent" fill="#000000" transform="matrix(0.0833333 0 0 0.0833333 -118.25 -645.5)" d="M 4817.76,10320.6 L 4783.39,10320.6 L 4785.23,10300.6 L 4815.93,10300.6 L 4817.76,10320.6 Z " />
<path stroke="transparent" fill="#000000" transform="matrix(0.0833333 0 0 0.0833333 -118.25 -645.5)" d="M 4812.41,10262.2 L 4788.75,10262.2 L 4790.58,10242.2 L 4810.58,10242.2 L 4812.41,10262.2 Z " />
<path stroke="transparent" fill="#000000" transform="matrix(0.0833333 0 0 0.0833333 -118.25 -645.5)" d="M 6411.44,9846.61 L 6311.26,9927.55 L 5849.81,9607.26 L 5839.81,9588.19 L 5861.32,9587.32 L 6411.44,9846.61 Z " />
<path stroke="transparent" fill="#000000" transform="matrix(0.0833333 0 0 0.0833333 -118.25 -645.5)" d="M 6405.42,10383 L 6385.42,10383 L 6385.42,9867.41 L 6405.42,9867.41 L 6405.42,10383 Z " />
<path stroke="transparent" fill="#000000" transform="matrix(0.0833333 0 0 0.0833333 -118.25 -645.5)" d="M 6333.42,10383 L 6313.42,10383 L 6313.42,9867.41 L 6333.42,9867.41 L 6333.42,10383 Z " />
<path stroke="transparent" fill="#000000" transform="matrix(0.0833333 0 0 0.0833333 -118.25 -645.5)" d="M 6774.43,9637.04 L 6784.43,9654.36 L 6311.26,9927.55 L 6411.44,9846.61 L 6774.43,9637.04 Z " />
<path stroke="transparent" fill="#000000" transform="matrix(0.0833333 0 0 0.0833333 -118.25 -645.5)" d="M 7356.84,9852.5 L 7346.84,9869.83 L 7328.36,9861.84 L 7340.68,9840.49 L 7356.84,9852.5 Z " />
<path stroke="transparent" fill="#000000" transform="matrix(0.0833333 0 0 0.0833333 -118.25 -645.5)" d="M 7309.47,9817.29 L 7292.66,9846.41 L 7274.18,9838.42 L 7293.31,9805.28 L 7309.47,9817.29 Z " />
<path stroke="transparent" fill="#000000" transform="matrix(0.0833333 0 0 0.0833333 -118.25 -645.5)" d="M 7262.1,9782.07 L 7238.47,9822.99 L 7219.99,9815 L 7245.94,9770.06 L 7262.1,9782.07 Z " />
<path stroke="transparent" fill="#000000" transform="matrix(0.0833333 0 0 0.0833333 -118.25 -645.5)" d="M 7214.72,9746.86 L 7184.29,9799.57 L 7165.81,9791.58 L 7198.56,9734.85 L 7214.72,9746.86 Z " />
<path stroke="transparent" fill="#000000" transform="matrix(0.0833333 0 0 0.0833333 -118.25 -645.5)" d="M 7167.35,9711.64 L 7130.11,9776.15 L 7111.62,9768.16 L 7151.19,9699.63 L 7167.35,9711.64 Z " />
<path stroke="transparent" fill="#000000" transform="matrix(0.0833333 0 0 0.0833333 -118.25 -645.5)" d="M 7119.98,9676.43 L 7075.92,9752.73 L 7057.44,9744.75 L 7103.82,9664.42 L 7119.98,9676.43 Z " />
<path stroke="transparent" fill="#000000" transform="matrix(0.0833333 0 0 0.0833333 -118.25 -645.5)" d="M 7072.61,9641.21 L 7021.74,9729.32 L 7003.26,9721.33 L 7056.45,9629.2 L 7072.61,9641.21 Z " />
<path stroke="transparent" fill="#000000" transform="matrix(0.0833333 0 0 0.0833333 -118.25 -645.5)" d="M 7025.23,9606 L 6967.56,9705.9 L 6949.07,9697.91 L 7009.07,9593.99 L 7025.23,9606 Z " />
<path stroke="transparent" fill="#000000" transform="matrix(0.0833333 0 0 0.0833333 -118.25 -645.5)" d="M 7408.65,10482.4 L 7398.65,10488.2 L 7388.65,10481.8 L 7388.65,9882.42 L 7408.65,9893.97 L 7408.65,10482.4 Z " />
<path stroke="transparent" fill="#000000" transform="matrix(0.0833333 0 0 0.0833333 -118.25 -645.5)" d="M 7918.27,10776.6 L 7918.27,10799.7 L 7399.21,10500.1 L 7398.65,10488.2 L 7408.65,10482.4 L 7918.27,10776.6 Z " />
<path stroke="transparent" fill="#000000" transform="matrix(0.0833333 0 0 0.0833333 -118.25 -645.5)" d="M 8427.88,10482.4 L 8437.88,10488.2 L 8437.33,10500.1 L 7918.27,10799.7 L 7918.27,10776.6 L 8427.88,10482.4 Z " />
<path stroke="transparent" fill="#000000" transform="matrix(0.0833333 0 0 0.0833333 -118.25 -645.5)" d="M 8427.88,9893.97 L 8447.88,9882.42 L 8447.88,10481.8 L 8437.88,10488.2 L 8427.88,10482.4 L 8427.88,9893.97 Z " />
<path stroke="transparent" fill="#000000" transform="matrix(0.0833333 0 0 0.0833333 -118.25 -645.5)" d="M 8013.31,9654.61 L 8023.31,9637.29 L 8447.88,9882.42 L 8427.88,9893.97 L 8013.31,9654.61 Z " />
<path stroke="transparent" fill="#000000" transform="matrix(0.0833333 0 0 0.0833333 -118.25 -645.5)" d="M 7813.67,9637.04 L 7823.67,9654.36 L 7408.65,9893.97 L 7388.65,9882.42 L 7813.67,9637.04 Z " />
<path stroke="transparent" fill="#000000" transform="matrix(0.0833333 0 0 0.0833333 -118.25 -645.5)" d="M 8880.66,9563.28 L 8940.66,9667.2 L 8922.32,9675.44 L 8864.35,9575.04 L 8880.66,9563.28 Z " />
<path stroke="transparent" fill="#000000" transform="matrix(0.0833333 0 0 0.0833333 -118.25 -645.5)" d="M 8832.58,9597.96 L 8886.58,9691.5 L 8868.24,9699.73 L 8816.27,9609.72 L 8832.58,9597.96 Z " />
<path stroke="transparent" fill="#000000" transform="matrix(0.0833333 0 0 0.0833333 -118.25 -645.5)" d="M 8784.5,9632.64 L 8832.51,9715.79 L 8814.17,9724.03 L 8768.2,9644.4 L 8784.5,9632.64 Z " />
<path stroke="transparent" fill="#000000" transform="matrix(0.0833333 0 0 0.0833333 -118.25 -645.5)" d="M 8736.42,9667.32 L 8778.43,9740.09 L 8760.1,9748.33 L 8720.12,9679.08 L 8736.42,9667.32 Z " />
<path stroke="transparent" fill="#000000" transform="matrix(0.0833333 0 0 0.0833333 -118.25 -645.5)" d="M 8688.34,9702 L 8724.36,9764.38 L 8706.02,9772.62 L 8672.04,9713.76 L 8688.34,9702 Z " />
<path stroke="transparent" fill="#000000" transform="matrix(0.0833333 0 0 0.0833333 -118.25 -645.5)" d="M 8640.27,9736.68 L 8670.29,9788.68 L 8651.95,9796.92 L 8623.96,9748.44 L 8640.27,9736.68 Z " />
<path stroke="transparent" fill="#000000" transform="matrix(0.0833333 0 0 0.0833333 -118.25 -645.5)" d="M 8592.19,9771.36 L 8616.21,9812.98 L 8597.88,9821.22 L 8575.88,9783.12 L 8592.19,9771.36 Z " />
<path stroke="transparent" fill="#000000" transform="matrix(0.0833333 0 0 0.0833333 -118.25 -645.5)" d="M 8544.11,9806.04 L 8562.14,9837.27 L 8543.8,9845.51 L 8527.81,9817.81 L 8544.11,9806.04 Z " />
<path stroke="transparent" fill="#000000" transform="matrix(0.0833333 0 0 0.0833333 -118.25 -645.5)" d="M 8496.03,9840.73 L 8508.06,9861.57 L 8489.73,9869.81 L 8479.73,9852.49 L 8496.03,9840.73 Z " />
<path stroke="transparent" fill="#000000" transform="matrix(0.0833333 0 0 0.0833333 -118.25 -645.5)" d="M 9389.5,9826.06 L 9379.5,9843.38 L 8952.5,9596.85 L 8962.5,9579.53 L 9389.5,9826.06 Z " />
<path stroke="transparent" fill="#000000" transform="matrix(0.0833333 0 0 0.0833333 -118.25 -645.5)" d="M 8894.88,10682.8 L 8834.88,10786.7 L 8437.33,10500.1 L 8437.88,10488.2 L 8447.88,10481.8 L 8894.88,10682.8 Z " />
<path stroke="transparent" fill="#000000" transform="matrix(0.0833333 0 0 0.0833333 -118.25 -645.5)" d="M 7978.27,11283 L 7858.27,11283 L 7860.54,11263 L 7976,11263 L 7978.27,11283 Z " />
<path stroke="transparent" fill="#000000" transform="matrix(0.0833333 0 0 0.0833333 -118.25 -645.5)" d="M 7971.45,11222.9 L 7865.09,11222.9 L 7867.36,11202.9 L 7969.18,11202.9 L 7971.45,11222.9 Z " />
<path stroke="transparent" fill="#000000" transform="matrix(0.0833333 0 0 0.0833333 -118.25 -645.5)" d="M 7964.63,11162.8 L 7871.91,11162.8 L 7874.17,11142.8 L 7962.36,11142.8 L 7964.63,11162.8 Z " />
<path stroke="transparent" fill="#000000" transform="matrix(0.0833333 0 0 0.0833333 -118.25 -645.5)" d="M 7957.81,11102.7 L 7878.72,11102.7 L 7880.99,11082.7 L 7955.54,11082.7 L 7957.81,11102.7 Z " />
<path stroke="transparent" fill="#000000" transform="matrix(0.0833333 0 0 0.0833333 -118.25 -645.5)" d="M 7950.99,11042.6 L 7885.54,11042.6 L 7887.81,11022.6 L 7948.72,11022.6 L 7950.99,11042.6 Z " />
<path stroke="transparent" fill="#000000" transform="matrix(0.0833333 0 0 0.0833333 -118.25 -645.5)" d="M 7944.17,10982.5 L 7892.36,10982.5 L 7894.63,10962.5 L 7941.91,10962.5 L 7944.17,10982.5 Z " />
<path stroke="transparent" fill="#000000" transform="matrix(0.0833333 0 0 0.0833333 -118.25 -645.5)" d="M 7937.36,10922.4 L 7899.18,10922.4 L 7901.45,10902.4 L 7935.09,10902.4 L 7937.36,10922.4 Z " />
<path stroke="transparent" fill="#000000" transform="matrix(0.0833333 0 0 0.0833333 -118.25 -645.5)" d="M 7930.54,10862.3 L 7906,10862.3 L 7908.27,10842.3 L 7928.27,10842.3 L 7930.54,10862.3 Z " />
<path stroke="transparent" fill="#000000" transform="matrix(0.0833333 0 0 0.0833333 -118.25 -645.5)" d="M 7001.65,10786.7 L 6941.65,10682.8 L 7388.65,10481.8 L 7398.65,10488.2 L 7399.21,10500.1 L 7001.65,10786.7 Z " />
</svg>
