<?xml version="1.0" standalone="no" ?>
<!DOCTYPE svg PUBLIC "-//W3C//DTD SVG 1.1//EN" "http://www.w3.org/Graphics/SVG/1.1/DTD/svg11.dtd">
<svg width="388px" height="319px" viewBox="0 0 388 319" style="background-color: #ffffff00" xmlns="http://www.w3.org/2000/svg" xmlns:xlink="http://www.w3.org/1999/xlink" version="1.1" >
<text x="0" y="0" stroke="transparent" fill="#000000" transform="matrix(0.0833333 0 0 0.0833333 27.5708 230.109)" style="font:normal normal normal 200px 'Arial'" >
O</text>
<text x="0" y="0" stroke="transparent" fill="#000000" transform="matrix(0.0833333 0 0 0.0833333 26.9541 310.582)" style="font:normal normal normal 200px 'Arial'" >
O</text>
<text x="0" y="0" stroke="transparent" fill="#000000" transform="matrix(0.0833333 0 0 0.0833333 298.504 18.2088)" style="font:normal normal normal 200px 'Arial'" >
O</text>
<text x="0" y="0" stroke="transparent" fill="#000000" transform="matrix(0.0833333 0 0 0.0833333 371.42 59.5667)" style="font:normal normal normal 200px 'Arial'" >
O</text>
<text x="0" y="0" stroke="transparent" fill="#000000" transform="matrix(0.0833333 0 0 0.0833333 160.521 149.377)" style="font:normal normal normal 200px 'Arial'" >
N</text>
<path stroke="transparent" fill="#000000" transform="matrix(0.0833333 0 0 0.0833333 -236.667 -184)" d="M 3814.19,5067.65 L 3815.22,5078.52 L 3805.17,5085.73 L 3352.38,4936.06 L 3358.65,4917.07 L 3814.19,5067.65 Z " />
<path stroke="transparent" fill="#000000" transform="matrix(0.0833333 0 0 0.0833333 -236.667 -184)" d="M 2907.33,5371.58 L 2882.62,5371.39 L 3169.64,4981.93 L 3185.74,4993.79 L 2907.33,5371.58 Z " />
<path stroke="transparent" fill="#000000" transform="matrix(0.0833333 0 0 0.0833333 -236.667 -184)" d="M 3800.66,5671.18 L 3810.6,5678.54 L 3809.41,5689.39 L 3346.64,5834.48 L 3340.65,5815.4 L 3800.66,5671.18 Z " />
<path stroke="transparent" fill="#000000" transform="matrix(0.0833333 0 0 0.0833333 -236.667 -184)" d="M 2882.62,5371.39 L 2907.33,5371.58 L 3187.58,5764.29 L 3171.3,5775.9 L 2882.62,5371.39 Z " />
<path stroke="transparent" fill="#000000" transform="matrix(0.0833333 0 0 0.0833333 -236.667 -184)" d="M 6385.31,2951.78 L 6374.04,2956.89 L 6365.14,2950.56 L 6465.51,2465.97 L 6485.09,2470.03 L 6385.31,2951.78 Z " />
<path stroke="transparent" fill="#000000" transform="matrix(0.0833333 0 0 0.0833333 -236.667 -184)" d="M 7123.64,2268.63 L 7111.45,2290.12 L 6608.07,2346.48 L 6605.85,2326.6 L 7123.64,2268.63 Z " />
<path stroke="transparent" fill="#000000" transform="matrix(0.0833333 0 0 0.0833333 -236.667 -184)" d="M 6927.6,3269.58 L 6917.6,3265.19 L 6916.2,3252.9 L 7281.36,2917.31 L 7294.89,2932.03 L 6927.6,3269.58 Z " />
<path stroke="transparent" fill="#000000" transform="matrix(0.0833333 0 0 0.0833333 -236.667 -184)" d="M 7111.45,2290.12 L 7123.64,2268.63 L 7340.06,2743.86 L 7321.86,2752.15 L 7111.45,2290.12 Z " />
<path stroke="transparent" fill="#000000" transform="matrix(0.0833333 0 0 0.0833333 -236.667 -184)" d="M 5337.07,4198.9 L 5337.16,4210.49 L 5327.16,4216.27 L 4943.38,3994.75 L 4953.38,3977.43 L 5337.07,4198.9 Z " />
<path stroke="transparent" fill="#000000" transform="matrix(0.0833333 0 0 0.0833333 -236.667 -184)" d="M 5273.03,4241.75 L 5263.03,4259.07 L 4908.82,4054.62 L 4918.82,4037.3 L 5273.03,4241.75 Z " />
<path stroke="transparent" fill="#000000" transform="matrix(0.0833333 0 0 0.0833333 -236.667 -184)" d="M 4349.4,4216.3 L 4329.4,4204.75 L 4723.12,3977.44 L 4733.12,3994.76 L 4349.4,4216.3 Z " />
<path stroke="transparent" fill="#000000" transform="matrix(0.0833333 0 0 0.0833333 -236.667 -184)" d="M 4848.38,5080.34 L 4838.29,5074.62 L 4838.29,5063.08 L 5327.13,4780.84 L 5337.13,4786.61 L 5337.04,4798.21 L 4848.38,5080.34 Z " />
<path stroke="transparent" fill="#000000" transform="matrix(0.0833333 0 0 0.0833333 -236.667 -184)" d="M 4843.29,5003.47 L 4833.29,4986.15 L 5263.01,4738.05 L 5273.01,4755.37 L 4843.29,5003.47 Z " />
<path stroke="transparent" fill="#000000" transform="matrix(0.0833333 0 0 0.0833333 -236.667 -184)" d="M 5327.16,4216.27 L 5337.16,4210.49 L 5347.16,4216.17 L 5347.13,4780.94 L 5337.13,4786.61 L 5327.13,4780.84 L 5327.16,4216.27 Z " />
<path stroke="transparent" fill="#000000" transform="matrix(0.0833333 0 0 0.0833333 -236.667 -184)" d="M 5852.17,5083.01 L 5851.9,5106.16 L 5337.04,4798.21 L 5337.13,4786.61 L 5347.13,4780.94 L 5852.17,5083.01 Z " />
<path stroke="transparent" fill="#000000" transform="matrix(0.0833333 0 0 0.0833333 -236.667 -184)" d="M 4339.32,4798.04 L 4339.41,4786.55 L 4349.41,4780.77 L 4838.29,5063.08 L 4838.29,5074.62 L 4828.38,5080.45 L 4339.32,4798.04 Z " />
<path stroke="transparent" fill="#000000" transform="matrix(0.0833333 0 0 0.0833333 -236.667 -184)" d="M 4857.57,5680.23 L 4837.4,5668.89 L 4828.38,5080.45 L 4838.29,5074.62 L 4848.38,5080.34 L 4857.57,5680.23 Z " />
<path stroke="transparent" fill="#000000" transform="matrix(0.0833333 0 0 0.0833333 -236.667 -184)" d="M 5841.97,3896.93 L 5852.11,3902.52 L 5852.24,3914.1 L 5347.16,4216.17 L 5337.16,4210.49 L 5337.07,4198.9 L 5841.97,3896.93 Z " />
<path stroke="transparent" fill="#000000" transform="matrix(0.0833333 0 0 0.0833333 -236.667 -184)" d="M 6373.98,4187.07 L 6373.98,4198.57 L 6363.98,4204.4 L 5852.24,3914.1 L 5852.11,3902.52 L 5861.97,3896.62 L 6373.98,4187.07 Z " />
<path stroke="transparent" fill="#000000" transform="matrix(0.0833333 0 0 0.0833333 -236.667 -184)" d="M 5827.51,3272.15 L 5847.77,3283.34 L 5861.97,3896.62 L 5852.11,3902.52 L 5841.97,3896.93 L 5827.51,3272.15 Z " />
<path stroke="transparent" fill="#000000" transform="matrix(0.0833333 0 0 0.0833333 -236.667 -184)" d="M 5903.63,3319.91 L 5923.62,3319.45 L 5936.09,3858.05 L 5916.1,3858.51 L 5903.63,3319.91 Z " />
<path stroke="transparent" fill="#000000" transform="matrix(0.0833333 0 0 0.0833333 -236.667 -184)" d="M 3825.18,5084.42 L 3815.22,5078.52 L 3814.19,5067.65 L 4329.41,4780.67 L 4339.41,4786.55 L 4339.32,4798.04 L 3825.18,5084.42 Z " />
<path stroke="transparent" fill="#000000" transform="matrix(0.0833333 0 0 0.0833333 -236.667 -184)" d="M 4329.4,4204.75 L 4349.4,4216.3 L 4349.41,4780.77 L 4339.41,4786.55 L 4329.41,4780.67 L 4329.4,4204.75 Z " />
<path stroke="transparent" fill="#000000" transform="matrix(0.0833333 0 0 0.0833333 -236.667 -184)" d="M 4398.53,4250.43 L 4418.53,4250.43 L 4418.53,4746.64 L 4398.53,4746.64 L 4398.53,4250.43 Z " />
<path stroke="transparent" fill="#000000" transform="matrix(0.0833333 0 0 0.0833333 -236.667 -184)" d="M 6383.96,4804.37 L 6363.96,4792.72 L 6363.98,4204.4 L 6373.98,4198.57 L 6383.98,4204.4 L 6383.96,4804.37 Z " />
<path stroke="transparent" fill="#000000" transform="matrix(0.0833333 0 0 0.0833333 -236.667 -184)" d="M 6907.68,3884.39 L 6927.68,3896.03 L 6383.98,4204.4 L 6373.98,4198.57 L 6373.98,4187.07 L 6907.68,3884.39 Z " />
<path stroke="transparent" fill="#000000" transform="matrix(0.0833333 0 0 0.0833333 -236.667 -184)" d="M 6837.74,3837.83 L 6847.6,3855.22 L 6378.92,4121.04 L 6369.05,4103.64 L 6837.74,3837.83 Z " />
<path stroke="transparent" fill="#000000" transform="matrix(0.0833333 0 0 0.0833333 -236.667 -184)" d="M 3820.65,5672.79 L 3810.6,5678.54 L 3800.66,5671.18 L 3805.17,5085.73 L 3815.22,5078.52 L 3825.18,5084.42 L 3820.65,5672.79 Z " />
<path stroke="transparent" fill="#000000" transform="matrix(0.0833333 0 0 0.0833333 -236.667 -184)" d="M 3892.93,5637.23 L 3872.93,5637.07 L 3876.9,5120.94 L 3896.9,5121.09 L 3892.93,5637.23 Z " />
<path stroke="transparent" fill="#000000" transform="matrix(0.0833333 0 0 0.0833333 -236.667 -184)" d="M 6363.96,4792.72 L 6383.96,4804.37 L 5851.9,5106.16 L 5852.17,5083.01 L 6363.96,4792.72 Z " />
<path stroke="transparent" fill="#000000" transform="matrix(0.0833333 0 0 0.0833333 -236.667 -184)" d="M 6297.02,4747.9 L 6306.89,4765.3 L 5857.93,5019.96 L 5848.07,5002.56 L 6297.02,4747.9 Z " />
<path stroke="transparent" fill="#000000" transform="matrix(0.0833333 0 0 0.0833333 -236.667 -184)" d="M 6365.14,2950.56 L 6374.04,2956.89 L 6374.17,2968.46 L 5847.77,3283.34 L 5827.51,3272.15 L 6365.14,2950.56 Z " />
<path stroke="transparent" fill="#000000" transform="matrix(0.0833333 0 0 0.0833333 -236.667 -184)" d="M 4330.25,5990.07 L 4330.16,5966.93 L 4837.4,5668.89 L 4857.57,5680.23 L 4330.25,5990.07 Z " />
<path stroke="transparent" fill="#000000" transform="matrix(0.0833333 0 0 0.0833333 -236.667 -184)" d="M 4334.95,5903.81 L 4324.82,5886.56 L 4769.79,5625.11 L 4779.92,5642.36 L 4334.95,5903.81 Z " />
<path stroke="transparent" fill="#000000" transform="matrix(0.0833333 0 0 0.0833333 -236.667 -184)" d="M 6916.2,3252.9 L 6917.6,3265.19 L 6907.6,3271.01 L 6374.17,2968.46 L 6374.04,2956.89 L 6385.31,2951.78 L 6916.2,3252.9 Z " />
<path stroke="transparent" fill="#000000" transform="matrix(0.0833333 0 0 0.0833333 -236.667 -184)" d="M 6847.55,3300.17 L 6837.69,3317.57 L 6370.11,3052.37 L 6379.98,3034.97 L 6847.55,3300.17 Z " />
<path stroke="transparent" fill="#000000" transform="matrix(0.0833333 0 0 0.0833333 -236.667 -184)" d="M 4330.16,5966.93 L 4330.25,5990.07 L 3809.41,5689.39 L 3810.6,5678.54 L 3820.65,5672.79 L 4330.16,5966.93 Z " />
<path stroke="transparent" fill="#000000" transform="matrix(0.0833333 0 0 0.0833333 -236.667 -184)" d="M 6907.6,3271.01 L 6917.6,3265.19 L 6927.6,3269.58 L 6927.68,3896.03 L 6907.68,3884.39 L 6907.6,3271.01 Z " />
</svg>
