<?xml version="1.0" standalone="no" ?>
<!DOCTYPE svg PUBLIC "-//W3C//DTD SVG 1.1//EN" "http://www.w3.org/Graphics/SVG/1.1/DTD/svg11.dtd">
<svg width="216px" height="134px" viewBox="0 0 216 134" style="background-color: #ffffff00" xmlns="http://www.w3.org/2000/svg" xmlns:xlink="http://www.w3.org/1999/xlink" version="1.1" >
<text x="0" y="0" stroke="transparent" fill="#000000" transform="matrix(0.0666667 0 0 0.0666667 102.913 14.854)" style="font:normal normal normal 200px 'Arial'" >
O</text>
<text x="0" y="0" stroke="transparent" fill="#000000" transform="matrix(0.0666667 0 0 0.0666667 172.193 14.854)" style="font:normal normal normal 200px 'Arial'" >
O</text>
<path stroke="transparent" fill="#000000" transform="matrix(0.0666667 0 0 0.0666667 -240.853 -180)" d="M 5754.14,3733.26 L 5754.14,3756.36 L 5234.5,3456.36 L 5234.5,3433.26 L 5754.14,3733.26 Z " />
<path stroke="transparent" fill="#000000" transform="matrix(0.0666667 0 0 0.0666667 -240.853 -180)" d="M 6273.7,3433.26 L 6273.7,3456.36 L 5754.14,3756.36 L 5754.14,3733.26 L 6273.7,3433.26 Z " />
<path stroke="transparent" fill="#000000" transform="matrix(0.0666667 0 0 0.0666667 -240.853 -180)" d="M 6798.34,3736.15 L 6788.34,3753.47 L 6273.7,3456.36 L 6273.7,3433.26 L 6798.34,3736.15 Z " />
<path stroke="transparent" fill="#000000" transform="matrix(0.0666667 0 0 0.0666667 -240.853 -180)" d="M 5188.5,2964.64 L 5208.5,2964.64 L 5208.5,3465.59 L 5188.5,3465.59 L 5188.5,2964.64 Z " />
<path stroke="transparent" fill="#000000" transform="matrix(0.0666667 0 0 0.0666667 -240.853 -180)" d="M 5260.5,2964.64 L 5280.5,2964.64 L 5280.5,3465.59 L 5260.5,3465.59 L 5260.5,2964.64 Z " />
<path stroke="transparent" fill="#000000" transform="matrix(0.0666667 0 0 0.0666667 -240.853 -180)" d="M 6227.7,2964.64 L 6247.7,2964.64 L 6247.7,3465.6 L 6227.7,3465.6 L 6227.7,2964.64 Z " />
<path stroke="transparent" fill="#000000" transform="matrix(0.0666667 0 0 0.0666667 -240.853 -180)" d="M 6299.7,2964.64 L 6319.7,2964.64 L 6319.7,3465.59 L 6299.7,3465.59 L 6299.7,2964.64 Z " />
<path stroke="transparent" fill="#000000" transform="matrix(0.0666667 0 0 0.0666667 -240.853 -180)" d="M 4195.3,3456.36 L 4195.3,3433.26 L 4714.86,3733.26 L 4714.86,3744.81 L 4704.86,3750.58 L 4195.3,3456.36 Z " />
<path stroke="transparent" fill="#000000" transform="matrix(0.0666667 0 0 0.0666667 -240.853 -180)" d="M 3685.66,3750.58 L 3665.66,3739.04 L 4195.3,3433.26 L 4195.3,3456.36 L 3685.66,3750.58 Z " />
<path stroke="transparent" fill="#000000" transform="matrix(0.0666667 0 0 0.0666667 -240.853 -180)" d="M 3752.67,3795.04 L 3742.67,3777.72 L 4190.3,3519.29 L 4200.3,3536.61 L 3752.67,3795.04 Z " />
<path stroke="transparent" fill="#000000" transform="matrix(0.0666667 0 0 0.0666667 -240.853 -180)" d="M 3685.66,4339.04 L 3665.66,4350.58 L 3665.66,3739.04 L 3685.66,3750.58 L 3685.66,4339.04 Z " />
<path stroke="transparent" fill="#000000" transform="matrix(0.0666667 0 0 0.0666667 -240.853 -180)" d="M 4195.3,4633.26 L 4195.3,4656.36 L 3665.66,4350.58 L 3685.66,4339.04 L 4195.3,4633.26 Z " />
<path stroke="transparent" fill="#000000" transform="matrix(0.0666667 0 0 0.0666667 -240.853 -180)" d="M 4200.3,4553.01 L 4190.3,4570.33 L 3742.67,4311.9 L 3752.67,4294.58 L 4200.3,4553.01 Z " />
<path stroke="transparent" fill="#000000" transform="matrix(0.0666667 0 0 0.0666667 -240.853 -180)" d="M 4704.86,4339.04 L 4724.86,4350.58 L 4195.3,4656.36 L 4195.3,4633.26 L 4704.86,4339.04 Z " />
<path stroke="transparent" fill="#000000" transform="matrix(0.0666667 0 0 0.0666667 -240.853 -180)" d="M 4724.86,4350.58 L 4704.86,4339.04 L 4704.86,3750.58 L 4714.86,3744.81 L 4724.86,3750.58 L 4724.86,4350.58 Z " />
<path stroke="transparent" fill="#000000" transform="matrix(0.0666667 0 0 0.0666667 -240.853 -180)" d="M 4652.86,4303.24 L 4632.86,4303.24 L 4632.86,3786.38 L 4652.86,3786.38 L 4652.86,4303.24 Z " />
<path stroke="transparent" fill="#000000" transform="matrix(0.0666667 0 0 0.0666667 -240.853 -180)" d="M 4724.86,3750.58 L 4714.86,3744.81 L 4714.86,3733.26 L 5234.5,3433.26 L 5234.5,3456.36 L 4724.86,3750.58 Z " />
</svg>
