<?xml version="1.0" standalone="no" ?>
<!DOCTYPE svg PUBLIC "-//W3C//DTD SVG 1.1//EN" "http://www.w3.org/Graphics/SVG/1.1/DTD/svg11.dtd">
<svg width="180px" height="177px" viewBox="0 0 180 177" style="background-color: #ffffff00" xmlns="http://www.w3.org/2000/svg" xmlns:xlink="http://www.w3.org/1999/xlink" version="1.1" >
<text x="0" y="0" stroke="none" fill="#000000" transform="matrix(0.0666667 0 0 0.0666667 102.233 14.0722)" font-style="normal" font-weight="normal" font-size="200px" font-family="Arial" >
O</text>
<text x="0" y="0" stroke="none" fill="#000000" transform="matrix(0.0666667 0 0 0.0666667 102.233 174.072)" font-style="normal" font-weight="normal" font-size="200px" font-family="Arial" >
O</text>
<path stroke="none" fill="#000000" transform="matrix(0.0666667 0 0 0.0666667 -258.853 -196)" d="M 3925.44,3967.31 L 3945.44,3978.86 L 3945.44,4567.31 L 3925.44,4578.86 L 3925.44,3967.31 Z " />
<path stroke="none" fill="#000000" transform="matrix(0.0666667 0 0 0.0666667 -258.853 -196)" d="M 3945.44,3978.86 L 3925.44,3967.31 L 4454.98,3661.54 L 4454.98,3684.63 L 3945.44,3978.86 Z " />
<path stroke="none" fill="#000000" transform="matrix(0.0666667 0 0 0.0666667 -258.853 -196)" d="M 4012.43,4023.3 L 4002.43,4005.98 L 4449.98,3747.55 L 4459.99,3764.87 L 4012.43,4023.3 Z " />
<path stroke="none" fill="#000000" transform="matrix(0.0666667 0 0 0.0666667 -258.853 -196)" d="M 3925.44,4578.86 L 3945.44,4567.31 L 4454.98,4861.54 L 4454.98,4884.63 L 3925.44,4578.86 Z " />
<path stroke="none" fill="#000000" transform="matrix(0.0666667 0 0 0.0666667 -258.853 -196)" d="M 4002.43,4540.18 L 4012.43,4522.86 L 4459.99,4781.29 L 4449.98,4798.61 L 4002.43,4540.18 Z " />
<path stroke="none" fill="#000000" transform="matrix(0.0666667 0 0 0.0666667 -258.853 -196)" d="M 4454.98,4884.63 L 4454.98,4861.54 L 4964.64,4567.31 L 4974.64,4573.08 L 4974.64,4584.63 L 4454.98,4884.63 Z " />
<path stroke="none" fill="#000000" transform="matrix(0.0666667 0 0 0.0666667 -258.853 -196)" d="M 4984.64,4567.31 L 4974.64,4573.08 L 4964.64,4567.31 L 4964.64,3978.86 L 4974.64,3973.08 L 4984.64,3978.86 L 4984.64,4567.31 Z " />
<path stroke="none" fill="#000000" transform="matrix(0.0666667 0 0 0.0666667 -258.853 -196)" d="M 4912.64,4531.51 L 4892.64,4531.51 L 4892.64,4014.65 L 4912.64,4014.65 L 4912.64,4531.51 Z " />
<path stroke="none" fill="#000000" transform="matrix(0.0666667 0 0 0.0666667 -258.853 -196)" d="M 4974.64,3961.54 L 4974.64,3973.08 L 4964.64,3978.86 L 4454.98,3684.63 L 4454.98,3661.54 L 4974.64,3961.54 Z " />
<path stroke="none" fill="#000000" transform="matrix(0.0666667 0 0 0.0666667 -258.853 -196)" d="M 4984.64,3978.86 L 4974.64,3973.08 L 4974.64,3961.54 L 5494.3,3661.54 L 5494.3,3684.63 L 4984.64,3978.86 Z " />
<path stroke="none" fill="#000000" transform="matrix(0.0666667 0 0 0.0666667 -258.853 -196)" d="M 5448.3,3192.92 L 5468.3,3192.92 L 5468.3,3693.87 L 5448.3,3693.87 L 5448.3,3192.92 Z " />
<path stroke="none" fill="#000000" transform="matrix(0.0666667 0 0 0.0666667 -258.853 -196)" d="M 5520.3,3192.92 L 5540.3,3192.92 L 5540.3,3693.87 L 5520.3,3693.87 L 5520.3,3192.92 Z " />
<path stroke="none" fill="#000000" transform="matrix(0.0666667 0 0 0.0666667 -258.853 -196)" d="M 5494.3,4884.63 L 5494.3,4861.54 L 6003.84,4567.31 L 6023.84,4578.86 L 5494.3,4884.63 Z " />
<path stroke="none" fill="#000000" transform="matrix(0.0666667 0 0 0.0666667 -258.853 -196)" d="M 4974.64,4584.63 L 4974.64,4573.08 L 4984.64,4567.31 L 5494.3,4861.54 L 5494.3,4884.63 L 4974.64,4584.63 Z " />
<path stroke="none" fill="#000000" transform="matrix(0.0666667 0 0 0.0666667 -258.853 -196)" d="M 5540.3,5367.92 L 5520.3,5367.92 L 5520.3,4852.3 L 5540.3,4852.3 L 5540.3,5367.92 Z " />
<path stroke="none" fill="#000000" transform="matrix(0.0666667 0 0 0.0666667 -258.853 -196)" d="M 5468.3,5367.92 L 5448.3,5367.92 L 5448.3,4852.3 L 5468.3,4852.3 L 5468.3,5367.92 Z " />
<path stroke="none" fill="#000000" transform="matrix(0.0666667 0 0 0.0666667 -258.853 -196)" d="M 6023.84,4578.86 L 6003.84,4567.31 L 6003.84,3978.86 L 6013.84,3973.08 L 6023.84,3978.86 L 6023.84,4578.86 Z " />
<path stroke="none" fill="#000000" transform="matrix(0.0666667 0 0 0.0666667 -258.853 -196)" d="M 5951.84,4531.52 L 5931.84,4531.52 L 5931.84,4014.65 L 5951.84,4014.65 L 5951.84,4531.52 Z " />
<path stroke="none" fill="#000000" transform="matrix(0.0666667 0 0 0.0666667 -258.853 -196)" d="M 6013.84,3961.54 L 6013.84,3973.08 L 6003.84,3978.86 L 5494.3,3684.63 L 5494.3,3661.54 L 6013.84,3961.54 Z " />
<path stroke="none" fill="#000000" transform="matrix(0.0666667 0 0 0.0666667 -258.853 -196)" d="M 6528.56,3664.42 L 6538.56,3681.74 L 6023.84,3978.86 L 6013.84,3973.08 L 6013.84,3961.54 L 6528.56,3664.42 Z " />
</svg>
