<?xml version="1.0" standalone="no" ?>
<!DOCTYPE svg PUBLIC "-//W3C//DTD SVG 1.1//EN" "http://www.w3.org/Graphics/SVG/1.1/DTD/svg11.dtd">
<svg width="694px" height="639px" viewBox="0 0 694 639" style="background-color: #ffffff00" xmlns="http://www.w3.org/2000/svg" xmlns:xlink="http://www.w3.org/1999/xlink" version="1.1" >
<text x="0" y="0" stroke="transparent" fill="#000000" transform="matrix(0.0833333 0 0 0.0833333 448.377 410.582)" style="font:normal normal normal 200px 'Arial'" >
O</text>
<text x="0" y="0" stroke="transparent" fill="#000000" transform="matrix(0.0833333 0 0 0.0833333 448.377 259.806)" style="font:normal normal normal 200px 'Arial'" >
O</text>
<text x="0" y="0" stroke="transparent" fill="#000000" transform="matrix(0.0833333 0 0 0.0833333 362.002 410.582)" style="font:normal normal normal 200px 'Arial'" >
OH</text>
<text x="0" y="0" stroke="transparent" fill="#000000" transform="matrix(0.0833333 0 0 0.0833333 275.426 259.927)" style="font:normal normal normal 200px 'Arial'" >
O</text>
<text x="0" y="0" stroke="transparent" fill="#000000" transform="matrix(0.0833333 0 0 0.0833333 232.123 335.03)" style="font:normal normal normal 200px 'Arial'" >
O</text>
<text x="0" y="0" stroke="transparent" fill="#000000" transform="matrix(0.0833333 0 0 0.0833333 664.747 185.055)" style="font:normal normal normal 200px 'Arial'" >
OH</text>
<text x="0" y="0" stroke="transparent" fill="#000000" transform="matrix(0.0833333 0 0 0.0833333 188.953 160.303)" style="font:normal normal normal 200px 'Arial'" >
O</text>
<text x="0" y="0" stroke="transparent" fill="#000000" transform="matrix(0.0833333 0 0 0.0833333 90.1896 259.927)" style="font:normal normal normal 200px 'Arial'" >
HO</text>
<text x="0" y="0" stroke="transparent" fill="#000000" transform="matrix(0.0833333 0 0 0.0833333 145.65 85.303)" style="font:normal normal normal 200px 'Arial'" >
O</text>
<text x="0" y="0" stroke="transparent" fill="#000000" transform="matrix(0.0833333 0 0 0.0833333 90.1896 359.964)" style="font:normal normal normal 200px 'Arial'" >
HO</text>
<text x="0" y="0" stroke="transparent" fill="#000000" transform="matrix(0.0833333 0 0 0.0833333 145.65 435.03)" style="font:normal normal normal 200px 'Arial'" >
O</text>
<text x="0" y="0" stroke="transparent" fill="#000000" transform="matrix(0.0833333 0 0 0.0833333 102.347 210.303)" style="font:normal normal normal 200px 'Arial'" >
OH</text>
<text x="0" y="0" stroke="transparent" fill="#000000" transform="matrix(0.0833333 0 0 0.0833333 3.71698 160.303)" style="font:normal normal normal 200px 'Arial'" >
HO</text>
<text x="0" y="0" stroke="transparent" fill="#000000" transform="matrix(0.0833333 0 0 0.0833333 188.826 509.964)" style="font:normal normal normal 200px 'Arial'" >
O</text>
<text x="0" y="0" stroke="transparent" fill="#000000" transform="matrix(0.0833333 0 0 0.0833333 3.71698 60.303)" style="font:normal normal normal 200px 'Arial'" >
HO</text>
<text x="0" y="0" stroke="transparent" fill="#000000" transform="matrix(0.0833333 0 0 0.0833333 46.8866 485.03)" style="font:normal normal normal 200px 'Arial'" >
HO</text>
<text x="0" y="0" stroke="transparent" fill="#000000" transform="matrix(0.0833333 0 0 0.0833333 46.8866 585.03)" style="font:normal normal normal 200px 'Arial'" >
HO</text>
<text x="0" y="0" stroke="transparent" fill="#000000" transform="matrix(0.0833333 0 0 0.0833333 275.426 559.964)" style="font:normal normal normal 200px 'Arial'" >
OH</text>
<text x="0" y="0" stroke="transparent" fill="#000000" transform="matrix(0.0833333 0 0 0.0833333 145.65 635.03)" style="font:normal normal normal 200px 'Arial'" >
OH</text>
<text x="0" y="0" stroke="transparent" fill="#000000" transform="matrix(0.0833333 0 0 0.0833333 146.15 185.303)" style="font:normal normal normal 200px 'Arial'" >
H</text>
<path stroke="transparent" fill="#000000" transform="matrix(0.0833333 0 0 0.0833333 -89.25 -59)" d="M 6483.53,4935.96 L 6503.53,4935.96 L 6503.53,5451.81 L 6483.53,5451.81 L 6483.53,4935.96 Z " />
<path stroke="transparent" fill="#000000" transform="matrix(0.0833333 0 0 0.0833333 -89.25 -59)" d="M 6555.53,4935.95 L 6575.53,4935.95 L 6575.53,5451.81 L 6555.53,5451.81 L 6555.53,4935.95 Z " />
<path stroke="transparent" fill="#000000" transform="matrix(0.0833333 0 0 0.0833333 -89.25 -59)" d="M 6011.99,4666.3 L 6012,4654.73 L 6022,4648.99 L 6529.53,4945.4 L 6529.53,4968.56 L 6011.99,4666.3 Z " />
<path stroke="transparent" fill="#000000" transform="matrix(0.0833333 0 0 0.0833333 -89.25 -59)" d="M 7036.98,4648.99 L 7056.98,4660.47 L 6529.53,4968.56 L 6529.53,4945.4 L 7036.98,4648.99 Z " />
<path stroke="transparent" fill="#000000" transform="matrix(0.0833333 0 0 0.0833333 -89.25 -59)" d="M 6002,4056.4 L 6012,4050.65 L 6022,4056.39 L 6022,4648.99 L 6012,4654.73 L 6002,4648.98 L 6002,4056.4 Z " />
<path stroke="transparent" fill="#000000" transform="matrix(0.0833333 0 0 0.0833333 -89.25 -59)" d="M 5503.02,4962.73 L 5493.02,4956.98 L 5493.02,4945.41 L 6002,4648.98 L 6012,4654.73 L 6011.99,4666.3 L 5503.02,4962.73 Z " />
<path stroke="transparent" fill="#000000" transform="matrix(0.0833333 0 0 0.0833333 -89.25 -59)" d="M 5498.04,4882.23 L 5487.97,4864.95 L 5934.9,4604.66 L 5944.96,4621.94 L 5498.04,4882.23 Z " />
<path stroke="transparent" fill="#000000" transform="matrix(0.0833333 0 0 0.0833333 -89.25 -59)" d="M 7036.98,4056.39 L 7046.98,4050.65 L 7056.98,4056.42 L 7056.98,4660.47 L 7036.98,4648.99 L 7036.98,4056.39 Z " />
<path stroke="transparent" fill="#000000" transform="matrix(0.0833333 0 0 0.0833333 -89.25 -59)" d="M 6964.49,4092.21 L 6984.49,4092.21 L 6984.49,4613.12 L 6964.49,4613.12 L 6964.49,4092.21 Z " />
<path stroke="transparent" fill="#000000" transform="matrix(0.0833333 0 0 0.0833333 -89.25 -59)" d="M 6425.16,3797.19 L 6435.26,3814.45 L 6022,4056.39 L 6012,4050.65 L 6011.99,4039.07 L 6425.16,3797.19 Z " />
<path stroke="transparent" fill="#000000" transform="matrix(0.0833333 0 0 0.0833333 -89.25 -59)" d="M 5493.02,3759.25 L 5493.02,3736.09 L 6011.99,4039.07 L 6012,4050.65 L 6002,4056.4 L 5493.02,3759.25 Z " />
<path stroke="transparent" fill="#000000" transform="matrix(0.0833333 0 0 0.0833333 -89.25 -59)" d="M 5487.96,3839.8 L 5498.05,3822.53 L 5944.93,4083.42 L 5934.84,4100.69 L 5487.96,3839.8 Z " />
<path stroke="transparent" fill="#000000" transform="matrix(0.0833333 0 0 0.0833333 -89.25 -59)" d="M 5503.02,5451.81 L 5483.02,5451.81 L 5483.02,4962.73 L 5493.02,4956.98 L 5503.02,4962.73 L 5503.02,5451.81 Z " />
<path stroke="transparent" fill="#000000" transform="matrix(0.0833333 0 0 0.0833333 -89.25 -59)" d="M 4963.67,4660.48 L 4983.67,4648.98 L 5493.02,4945.41 L 5493.02,4956.98 L 5483.02,4962.73 L 4963.67,4660.48 Z " />
<path stroke="transparent" fill="#000000" transform="matrix(0.0833333 0 0 0.0833333 -89.25 -59)" d="M 6624.22,3814.71 L 6634.33,3797.45 L 7047.01,4039.08 L 7046.98,4050.65 L 7036.98,4056.39 L 6624.22,3814.71 Z " />
<path stroke="transparent" fill="#000000" transform="matrix(0.0833333 0 0 0.0833333 -89.25 -59)" d="M 7557.49,3743.36 L 7567.49,3749.13 L 7567.49,3760.68 L 7056.98,4056.42 L 7046.98,4050.65 L 7047.01,4039.08 L 7557.49,3743.36 Z " />
<path stroke="transparent" fill="#000000" transform="matrix(0.0833333 0 0 0.0833333 -89.25 -59)" d="M 4983.67,4056.4 L 4973.67,4050.65 L 4973.66,4039.09 L 5493.02,3736.09 L 5493.02,3759.25 L 4983.67,4056.4 Z " />
<path stroke="transparent" fill="#000000" transform="matrix(0.0833333 0 0 0.0833333 -89.25 -59)" d="M 4963.67,4056.41 L 4973.67,4050.65 L 4983.67,4056.4 L 4983.67,4648.98 L 4963.67,4660.48 L 4963.67,4056.41 Z " />
<path stroke="transparent" fill="#000000" transform="matrix(0.0833333 0 0 0.0833333 -89.25 -59)" d="M 5036.16,4092.29 L 5056.16,4092.29 L 5056.16,4613.04 L 5036.16,4613.04 L 5036.16,4092.29 Z " />
<path stroke="transparent" fill="#000000" transform="matrix(0.0833333 0 0 0.0833333 -89.25 -59)" d="M 7557.49,3143.33 L 7577.49,3154.92 L 7577.49,3743.36 L 7567.49,3749.13 L 7557.49,3743.36 L 7557.49,3143.33 Z " />
<path stroke="transparent" fill="#000000" transform="matrix(0.0833333 0 0 0.0833333 -89.25 -59)" d="M 7629.49,3190.84 L 7649.49,3190.84 L 7649.49,3707.63 L 7629.49,3707.63 L 7629.49,3190.84 Z " />
<path stroke="transparent" fill="#000000" transform="matrix(0.0833333 0 0 0.0833333 -89.25 -59)" d="M 8087.99,4039.09 L 8088.01,4062.22 L 7567.49,3760.68 L 7567.49,3749.13 L 7577.49,3743.36 L 8087.99,4039.09 Z " />
<path stroke="transparent" fill="#000000" transform="matrix(0.0833333 0 0 0.0833333 -89.25 -59)" d="M 4549.02,3815.77 L 4559.06,3798.47 L 4973.66,4039.09 L 4973.67,4050.65 L 4963.67,4056.41 L 4549.02,3815.77 Z " />
<path stroke="transparent" fill="#000000" transform="matrix(0.0833333 0 0 0.0833333 -89.25 -59)" d="M 8088.01,2839.12 L 8087.99,2862.19 L 7577.49,3154.92 L 7557.49,3143.33 L 8088.01,2839.12 Z " />
<path stroke="transparent" fill="#000000" transform="matrix(0.0833333 0 0 0.0833333 -89.25 -59)" d="M 8596.98,3743.37 L 8616.98,3754.88 L 8088.01,4062.22 L 8087.99,4039.09 L 8596.98,3743.37 Z " />
<path stroke="transparent" fill="#000000" transform="matrix(0.0833333 0 0 0.0833333 -89.25 -59)" d="M 8529.93,3699.03 L 8539.98,3716.32 L 8092.97,3976.03 L 8082.92,3958.74 L 8529.93,3699.03 Z " />
<path stroke="transparent" fill="#000000" transform="matrix(0.0833333 0 0 0.0833333 -89.25 -59)" d="M 4324.5,3754.97 L 4384.72,3858.76 L 4366.26,3866.79 L 4308.36,3767.01 L 4324.5,3754.97 Z " />
<path stroke="transparent" fill="#000000" transform="matrix(0.0833333 0 0 0.0833333 -89.25 -59)" d="M 4277.05,3790.38 L 4330.44,3882.38 L 4311.98,3890.42 L 4260.91,3802.42 L 4277.05,3790.38 Z " />
<path stroke="transparent" fill="#000000" transform="matrix(0.0833333 0 0 0.0833333 -89.25 -59)" d="M 4229.6,3825.78 L 4276.15,3906.01 L 4257.69,3914.04 L 4213.47,3837.82 L 4229.6,3825.78 Z " />
<path stroke="transparent" fill="#000000" transform="matrix(0.0833333 0 0 0.0833333 -89.25 -59)" d="M 4182.16,3861.19 L 4221.87,3929.63 L 4203.41,3937.67 L 4166.02,3873.23 L 4182.16,3861.19 Z " />
<path stroke="transparent" fill="#000000" transform="matrix(0.0833333 0 0 0.0833333 -89.25 -59)" d="M 4134.71,3896.6 L 4167.58,3953.25 L 4149.12,3961.29 L 4118.57,3908.64 L 4134.71,3896.6 Z " />
<path stroke="transparent" fill="#000000" transform="matrix(0.0833333 0 0 0.0833333 -89.25 -59)" d="M 4087.26,3932.01 L 4113.3,3976.88 L 4094.84,3984.91 L 4071.13,3944.05 L 4087.26,3932.01 Z " />
<path stroke="transparent" fill="#000000" transform="matrix(0.0833333 0 0 0.0833333 -89.25 -59)" d="M 4039.81,3967.41 L 4059.02,4000.5 L 4040.55,4008.54 L 4023.68,3979.45 L 4039.81,3967.41 Z " />
<path stroke="transparent" fill="#000000" transform="matrix(0.0833333 0 0 0.0833333 -89.25 -59)" d="M 3992.37,4002.82 L 4004.73,4024.13 L 3986.27,4032.16 L 3976.23,4014.86 L 3992.37,4002.82 Z " />
<path stroke="transparent" fill="#000000" transform="matrix(0.0833333 0 0 0.0833333 -89.25 -59)" d="M 8606.98,3137.59 L 8606.98,3149.13 L 8596.98,3154.91 L 8087.99,2862.19 L 8088.01,2839.12 L 8606.98,3137.59 Z " />
<path stroke="transparent" fill="#000000" transform="matrix(0.0833333 0 0 0.0833333 -89.25 -59)" d="M 8540.12,3182.02 L 8530.15,3199.35 L 8082.96,2942.17 L 8092.93,2924.83 L 8540.12,3182.02 Z " />
<path stroke="transparent" fill="#000000" transform="matrix(0.0833333 0 0 0.0833333 -89.25 -59)" d="M 8596.98,3154.91 L 8606.98,3149.13 L 8616.98,3154.91 L 8616.98,3754.88 L 8596.98,3743.37 L 8596.98,3154.91 Z " />
<path stroke="transparent" fill="#000000" transform="matrix(0.0833333 0 0 0.0833333 -89.25 -59)" d="M 3416.42,3760.69 L 3416.44,3749.13 L 3426.7,3743.53 L 3944.47,4044.9 L 3924.47,4056.4 L 3416.42,3760.69 Z " />
<path stroke="transparent" fill="#000000" transform="matrix(0.0833333 0 0 0.0833333 -89.25 -59)" d="M 3944.47,4545.2 L 3924.47,4545.2 L 3924.47,4056.4 L 3944.47,4044.9 L 3944.47,4545.2 Z " />
<path stroke="transparent" fill="#000000" transform="matrix(0.0833333 0 0 0.0833333 -89.25 -59)" d="M 9021.29,2899.31 L 9031.27,2916.65 L 8616.98,3154.91 L 8606.98,3149.13 L 8606.98,3137.59 L 9021.29,2899.31 Z " />
<path stroke="transparent" fill="#000000" transform="matrix(0.0833333 0 0 0.0833333 -89.25 -59)" d="M 3356.44,2673.47 L 3476.44,2673.47 L 3426.7,3743.53 L 3416.44,3749.13 L 3406.18,3743.51 L 3356.44,2673.47 Z " />
<path stroke="transparent" fill="#000000" transform="matrix(0.0833333 0 0 0.0833333 -89.25 -59)" d="M 2905.27,4056.42 L 2885.27,4044.89 L 3406.18,3743.51 L 3416.44,3749.13 L 3416.42,3760.69 L 2905.27,4056.42 Z " />
<path stroke="transparent" fill="#000000" transform="matrix(0.0833333 0 0 0.0833333 -89.25 -59)" d="M 3416.45,4961.1 L 3416.42,4938.02 L 3829.88,4699.23 L 3839.88,4716.55 L 3416.45,4961.1 Z " />
<path stroke="transparent" fill="#000000" transform="matrix(0.0833333 0 0 0.0833333 -89.25 -59)" d="M 2896.8,2265.18 L 2896.8,2253.64 L 2906.8,2247.86 L 3328.82,2491.5 L 3318.82,2508.83 L 2896.8,2265.18 Z " />
<path stroke="transparent" fill="#000000" transform="matrix(0.0833333 0 0 0.0833333 -89.25 -59)" d="M 2445.51,3859.01 L 2505.75,3755.22 L 2521.88,3767.27 L 2463.98,3867.04 L 2445.51,3859.01 Z " />
<path stroke="transparent" fill="#000000" transform="matrix(0.0833333 0 0 0.0833333 -89.25 -59)" d="M 2499.74,3882.6 L 2553.13,3790.6 L 2569.26,3802.64 L 2518.2,3890.64 L 2499.74,3882.6 Z " />
<path stroke="transparent" fill="#000000" transform="matrix(0.0833333 0 0 0.0833333 -89.25 -59)" d="M 2553.96,3906.19 L 2600.52,3825.97 L 2616.65,3838.02 L 2572.42,3914.23 L 2553.96,3906.19 Z " />
<path stroke="transparent" fill="#000000" transform="matrix(0.0833333 0 0 0.0833333 -89.25 -59)" d="M 2608.18,3929.79 L 2647.9,3861.35 L 2664.03,3873.39 L 2626.64,3937.82 L 2608.18,3929.79 Z " />
<path stroke="transparent" fill="#000000" transform="matrix(0.0833333 0 0 0.0833333 -89.25 -59)" d="M 2662.4,3953.38 L 2695.28,3896.72 L 2711.42,3908.77 L 2680.86,3961.41 L 2662.4,3953.38 Z " />
<path stroke="transparent" fill="#000000" transform="matrix(0.0833333 0 0 0.0833333 -89.25 -59)" d="M 2716.62,3976.97 L 2742.67,3932.1 L 2758.8,3944.14 L 2735.09,3985 L 2716.62,3976.97 Z " />
<path stroke="transparent" fill="#000000" transform="matrix(0.0833333 0 0 0.0833333 -89.25 -59)" d="M 2770.85,4000.56 L 2790.05,3967.47 L 2806.19,3979.52 L 2789.31,4008.6 L 2770.85,4000.56 Z " />
<path stroke="transparent" fill="#000000" transform="matrix(0.0833333 0 0 0.0833333 -89.25 -59)" d="M 2825.07,4024.16 L 2837.44,4002.85 L 2853.57,4014.89 L 2843.53,4032.19 L 2825.07,4024.16 Z " />
<path stroke="transparent" fill="#000000" transform="matrix(0.0833333 0 0 0.0833333 -89.25 -59)" d="M 2905.27,4644.57 L 2895.27,4650.36 L 2885.27,4643.94 L 2885.27,4044.89 L 2905.27,4056.42 L 2905.27,4644.57 Z " />
<path stroke="transparent" fill="#000000" transform="matrix(0.0833333 0 0 0.0833333 -89.25 -59)" d="M 2895.83,4662.22 L 2895.27,4650.36 L 2905.27,4644.57 L 3416.42,4938.02 L 3416.45,4961.1 L 2895.83,4662.22 Z " />
<path stroke="transparent" fill="#000000" transform="matrix(0.0833333 0 0 0.0833333 -89.25 -59)" d="M 3476.44,5495.56 L 3356.44,5495.56 L 3358.47,5475.56 L 3474.4,5475.56 L 3476.44,5495.56 Z " />
<path stroke="transparent" fill="#000000" transform="matrix(0.0833333 0 0 0.0833333 -89.25 -59)" d="M 3470.44,5436.56 L 3362.43,5436.56 L 3364.46,5416.56 L 3468.41,5416.56 L 3470.44,5436.56 Z " />
<path stroke="transparent" fill="#000000" transform="matrix(0.0833333 0 0 0.0833333 -89.25 -59)" d="M 3464.44,5377.56 L 3368.43,5377.56 L 3370.46,5357.56 L 3462.41,5357.56 L 3464.44,5377.56 Z " />
<path stroke="transparent" fill="#000000" transform="matrix(0.0833333 0 0 0.0833333 -89.25 -59)" d="M 3458.45,5318.56 L 3374.42,5318.56 L 3376.46,5298.56 L 3456.42,5298.56 L 3458.45,5318.56 Z " />
<path stroke="transparent" fill="#000000" transform="matrix(0.0833333 0 0 0.0833333 -89.25 -59)" d="M 3452.45,5259.56 L 3380.42,5259.56 L 3382.45,5239.56 L 3450.42,5239.56 L 3452.45,5259.56 Z " />
<path stroke="transparent" fill="#000000" transform="matrix(0.0833333 0 0 0.0833333 -89.25 -59)" d="M 3446.46,5200.56 L 3386.42,5200.56 L 3388.45,5180.56 L 3444.42,5180.56 L 3446.46,5200.56 Z " />
<path stroke="transparent" fill="#000000" transform="matrix(0.0833333 0 0 0.0833333 -89.25 -59)" d="M 3440.46,5141.56 L 3392.41,5141.56 L 3394.44,5121.56 L 3438.43,5121.56 L 3440.46,5141.56 Z " />
<path stroke="transparent" fill="#000000" transform="matrix(0.0833333 0 0 0.0833333 -89.25 -59)" d="M 3434.46,5082.56 L 3398.41,5082.56 L 3400.44,5062.56 L 3432.43,5062.56 L 3434.46,5082.56 Z " />
<path stroke="transparent" fill="#000000" transform="matrix(0.0833333 0 0 0.0833333 -89.25 -59)" d="M 3428.47,5023.56 L 3404.4,5023.56 L 3406.44,5003.56 L 3426.44,5003.56 L 3428.47,5023.56 Z " />
<path stroke="transparent" fill="#000000" transform="matrix(0.0833333 0 0 0.0833333 -89.25 -59)" d="M 2377.16,2565.18 L 2377.16,2542.09 L 2886.8,2247.86 L 2896.8,2253.64 L 2896.8,2265.18 L 2377.16,2565.18 Z " />
<path stroke="transparent" fill="#000000" transform="matrix(0.0833333 0 0 0.0833333 -89.25 -59)" d="M 2886.8,1773.47 L 2906.8,1773.47 L 2906.8,2247.86 L 2896.8,2253.64 L 2886.8,2247.86 L 2886.8,1773.47 Z " />
<path stroke="transparent" fill="#000000" transform="matrix(0.0833333 0 0 0.0833333 -89.25 -59)" d="M 2956.8,2750.97 L 2836.8,2750.97 L 2839.06,2730.97 L 2954.54,2730.97 L 2956.8,2750.97 Z " />
<path stroke="transparent" fill="#000000" transform="matrix(0.0833333 0 0 0.0833333 -89.25 -59)" d="M 2949.98,2690.5 L 2843.62,2690.5 L 2845.88,2670.5 L 2947.72,2670.5 L 2949.98,2690.5 Z " />
<path stroke="transparent" fill="#000000" transform="matrix(0.0833333 0 0 0.0833333 -89.25 -59)" d="M 2943.16,2630.03 L 2850.44,2630.03 L 2852.7,2610.03 L 2940.9,2610.03 L 2943.16,2630.03 Z " />
<path stroke="transparent" fill="#000000" transform="matrix(0.0833333 0 0 0.0833333 -89.25 -59)" d="M 2936.34,2569.56 L 2857.26,2569.56 L 2859.52,2549.56 L 2934.08,2549.56 L 2936.34,2569.56 Z " />
<path stroke="transparent" fill="#000000" transform="matrix(0.0833333 0 0 0.0833333 -89.25 -59)" d="M 2929.52,2509.09 L 2864.08,2509.09 L 2866.34,2489.09 L 2927.26,2489.09 L 2929.52,2509.09 Z " />
<path stroke="transparent" fill="#000000" transform="matrix(0.0833333 0 0 0.0833333 -89.25 -59)" d="M 2922.7,2448.61 L 2870.9,2448.61 L 2873.16,2428.61 L 2920.44,2428.61 L 2922.7,2448.61 Z " />
<path stroke="transparent" fill="#000000" transform="matrix(0.0833333 0 0 0.0833333 -89.25 -59)" d="M 2915.88,2388.14 L 2877.72,2388.14 L 2879.98,2368.14 L 2913.62,2368.14 L 2915.88,2388.14 Z " />
<path stroke="transparent" fill="#000000" transform="matrix(0.0833333 0 0 0.0833333 -89.25 -59)" d="M 2909.06,2327.67 L 2884.54,2327.67 L 2886.8,2307.67 L 2906.8,2307.67 L 2909.06,2327.67 Z " />
<path stroke="transparent" fill="#000000" transform="matrix(0.0833333 0 0 0.0833333 -89.25 -59)" d="M 2498.32,4948.19 L 2438.44,4844.2 L 2885.27,4643.94 L 2895.27,4650.36 L 2895.83,4662.22 L 2498.32,4948.19 Z " />
<path stroke="transparent" fill="#000000" transform="matrix(0.0833333 0 0 0.0833333 -89.25 -59)" d="M 2994.37,5805.44 L 2984.35,5788.13 L 3411.43,5540.91 L 3421.45,5558.22 L 2994.37,5805.44 Z " />
<path stroke="transparent" fill="#000000" transform="matrix(0.0833333 0 0 0.0833333 -89.25 -59)" d="M 2437.16,3048.47 L 2317.16,3048.47 L 2319.43,3028.47 L 2434.9,3028.47 L 2437.16,3048.47 Z " />
<path stroke="transparent" fill="#000000" transform="matrix(0.0833333 0 0 0.0833333 -89.25 -59)" d="M 2430.35,2988.36 L 2323.98,2988.36 L 2326.25,2968.36 L 2428.08,2968.36 L 2430.35,2988.36 Z " />
<path stroke="transparent" fill="#000000" transform="matrix(0.0833333 0 0 0.0833333 -89.25 -59)" d="M 2423.53,2928.26 L 2330.8,2928.26 L 2333.07,2908.26 L 2421.26,2908.26 L 2423.53,2928.26 Z " />
<path stroke="transparent" fill="#000000" transform="matrix(0.0833333 0 0 0.0833333 -89.25 -59)" d="M 2416.71,2868.15 L 2337.62,2868.15 L 2339.89,2848.15 L 2414.44,2848.15 L 2416.71,2868.15 Z " />
<path stroke="transparent" fill="#000000" transform="matrix(0.0833333 0 0 0.0833333 -89.25 -59)" d="M 2409.89,2808.05 L 2344.44,2808.05 L 2346.71,2788.05 L 2407.62,2788.05 L 2409.89,2808.05 Z " />
<path stroke="transparent" fill="#000000" transform="matrix(0.0833333 0 0 0.0833333 -89.25 -59)" d="M 2403.07,2747.94 L 2351.26,2747.94 L 2353.53,2727.94 L 2400.8,2727.94 L 2403.07,2747.94 Z " />
<path stroke="transparent" fill="#000000" transform="matrix(0.0833333 0 0 0.0833333 -89.25 -59)" d="M 2396.25,2687.83 L 2358.08,2687.83 L 2360.35,2667.83 L 2393.98,2667.83 L 2396.25,2687.83 Z " />
<path stroke="transparent" fill="#000000" transform="matrix(0.0833333 0 0 0.0833333 -89.25 -59)" d="M 2389.43,2627.73 L 2364.9,2627.73 L 2367.16,2607.73 L 2387.16,2607.73 L 2389.43,2627.73 Z " />
<path stroke="transparent" fill="#000000" transform="matrix(0.0833333 0 0 0.0833333 -89.25 -59)" d="M 1847.6,2259.41 L 1867.6,2247.86 L 2377.16,2542.09 L 2377.16,2565.18 L 1847.6,2259.41 Z " />
<path stroke="transparent" fill="#000000" transform="matrix(0.0833333 0 0 0.0833333 -89.25 -59)" d="M 2377.16,1365.18 L 2377.16,1342.09 L 2809.18,1591.5 L 2799.18,1608.83 L 2377.16,1365.18 Z " />
<path stroke="transparent" fill="#000000" transform="matrix(0.0833333 0 0 0.0833333 -89.25 -59)" d="M 2836.8,5970.2 L 2956.8,5970.2 L 2954.45,5990.2 L 2839.15,5990.2 L 2836.8,5970.2 Z " />
<path stroke="transparent" fill="#000000" transform="matrix(0.0833333 0 0 0.0833333 -89.25 -59)" d="M 2843.61,6028.22 L 2949.99,6028.22 L 2947.65,6048.22 L 2845.95,6048.22 L 2843.61,6028.22 Z " />
<path stroke="transparent" fill="#000000" transform="matrix(0.0833333 0 0 0.0833333 -89.25 -59)" d="M 2850.42,6086.24 L 2943.19,6086.24 L 2940.84,6106.24 L 2852.76,6106.24 L 2850.42,6086.24 Z " />
<path stroke="transparent" fill="#000000" transform="matrix(0.0833333 0 0 0.0833333 -89.25 -59)" d="M 2857.22,6144.26 L 2936.38,6144.26 L 2934.03,6164.26 L 2859.57,6164.26 L 2857.22,6144.26 Z " />
<path stroke="transparent" fill="#000000" transform="matrix(0.0833333 0 0 0.0833333 -89.25 -59)" d="M 2864.03,6202.28 L 2929.57,6202.28 L 2927.22,6222.28 L 2866.38,6222.28 L 2864.03,6202.28 Z " />
<path stroke="transparent" fill="#000000" transform="matrix(0.0833333 0 0 0.0833333 -89.25 -59)" d="M 2870.84,6260.3 L 2922.76,6260.3 L 2920.42,6280.3 L 2873.19,6280.3 L 2870.84,6260.3 Z " />
<path stroke="transparent" fill="#000000" transform="matrix(0.0833333 0 0 0.0833333 -89.25 -59)" d="M 2877.65,6318.32 L 2915.95,6318.32 L 2913.61,6338.32 L 2879.99,6338.32 L 2877.65,6318.32 Z " />
<path stroke="transparent" fill="#000000" transform="matrix(0.0833333 0 0 0.0833333 -89.25 -59)" d="M 2884.45,6376.34 L 2909.15,6376.34 L 2906.8,6396.34 L 2886.8,6396.34 L 2884.45,6376.34 Z " />
<path stroke="transparent" fill="#000000" transform="matrix(0.0833333 0 0 0.0833333 -89.25 -59)" d="M 1460.65,2552.12 L 1400.64,2448.2 L 1419.1,2440.18 L 1476.83,2540.15 L 1460.65,2552.12 Z " />
<path stroke="transparent" fill="#000000" transform="matrix(0.0833333 0 0 0.0833333 -89.25 -59)" d="M 1509.08,2516.29 L 1455.89,2424.18 L 1474.35,2416.15 L 1525.26,2504.31 L 1509.08,2516.29 Z " />
<path stroke="transparent" fill="#000000" transform="matrix(0.0833333 0 0 0.0833333 -89.25 -59)" d="M 1557.51,2480.45 L 1511.14,2400.15 L 1529.6,2392.12 L 1573.69,2468.48 L 1557.51,2480.45 Z " />
<path stroke="transparent" fill="#000000" transform="matrix(0.0833333 0 0 0.0833333 -89.25 -59)" d="M 1605.94,2444.62 L 1566.39,2376.12 L 1584.84,2368.09 L 1622.12,2432.64 L 1605.94,2444.62 Z " />
<path stroke="transparent" fill="#000000" transform="matrix(0.0833333 0 0 0.0833333 -89.25 -59)" d="M 1654.37,2408.78 L 1621.63,2352.09 L 1640.09,2344.06 L 1670.55,2396.81 L 1654.37,2408.78 Z " />
<path stroke="transparent" fill="#000000" transform="matrix(0.0833333 0 0 0.0833333 -89.25 -59)" d="M 1702.8,2372.94 L 1676.88,2328.06 L 1695.34,2320.04 L 1718.98,2360.97 L 1702.8,2372.94 Z " />
<path stroke="transparent" fill="#000000" transform="matrix(0.0833333 0 0 0.0833333 -89.25 -59)" d="M 1751.22,2337.11 L 1732.13,2304.04 L 1750.59,2296.01 L 1767.41,2325.14 L 1751.22,2337.11 Z " />
<path stroke="transparent" fill="#000000" transform="matrix(0.0833333 0 0 0.0833333 -89.25 -59)" d="M 1799.65,2301.27 L 1787.38,2280.01 L 1805.83,2271.98 L 1815.84,2289.3 L 1799.65,2301.27 Z " />
<path stroke="transparent" fill="#000000" transform="matrix(0.0833333 0 0 0.0833333 -89.25 -59)" d="M 1847.6,1660.06 L 1857.6,1653.64 L 1867.6,1659.41 L 1867.6,2247.86 L 1847.6,2259.41 L 1847.6,1660.06 Z " />
<path stroke="transparent" fill="#000000" transform="matrix(0.0833333 0 0 0.0833333 -89.25 -59)" d="M 1867.6,1659.41 L 1857.6,1653.64 L 1858.16,1641.76 L 2377.16,1342.09 L 2377.16,1365.18 L 1867.6,1659.41 Z " />
<path stroke="transparent" fill="#000000" transform="matrix(0.0833333 0 0 0.0833333 -89.25 -59)" d="M 2317.16,753.637 L 2437.16,753.637 L 2435.33,773.637 L 2319,773.637 L 2317.16,753.637 Z " />
<path stroke="transparent" fill="#000000" transform="matrix(0.0833333 0 0 0.0833333 -89.25 -59)" d="M 2322.52,812.072 L 2431.81,812.072 L 2429.98,832.072 L 2324.35,832.072 L 2322.52,812.072 Z " />
<path stroke="transparent" fill="#000000" transform="matrix(0.0833333 0 0 0.0833333 -89.25 -59)" d="M 2327.87,870.506 L 2426.46,870.506 L 2424.63,890.506 L 2329.7,890.506 L 2327.87,870.506 Z " />
<path stroke="transparent" fill="#000000" transform="matrix(0.0833333 0 0 0.0833333 -89.25 -59)" d="M 2333.22,928.94 L 2421.11,928.94 L 2419.28,948.94 L 2335.05,948.94 L 2333.22,928.94 Z " />
<path stroke="transparent" fill="#000000" transform="matrix(0.0833333 0 0 0.0833333 -89.25 -59)" d="M 2338.57,987.375 L 2415.76,987.375 L 2413.92,1007.37 L 2340.4,1007.37 L 2338.57,987.375 Z " />
<path stroke="transparent" fill="#000000" transform="matrix(0.0833333 0 0 0.0833333 -89.25 -59)" d="M 2343.92,1045.81 L 2410.4,1045.81 L 2408.57,1065.81 L 2345.76,1065.81 L 2343.92,1045.81 Z " />
<path stroke="transparent" fill="#000000" transform="matrix(0.0833333 0 0 0.0833333 -89.25 -59)" d="M 2349.28,1104.24 L 2405.05,1104.24 L 2403.22,1124.24 L 2351.11,1124.24 L 2349.28,1104.24 Z " />
<path stroke="transparent" fill="#000000" transform="matrix(0.0833333 0 0 0.0833333 -89.25 -59)" d="M 2354.63,1162.68 L 2399.7,1162.68 L 2397.87,1182.68 L 2356.46,1182.68 L 2354.63,1162.68 Z " />
<path stroke="transparent" fill="#000000" transform="matrix(0.0833333 0 0 0.0833333 -89.25 -59)" d="M 2359.98,1221.11 L 2394.35,1221.11 L 2392.52,1241.11 L 2361.81,1241.11 L 2359.98,1221.11 Z " />
<path stroke="transparent" fill="#000000" transform="matrix(0.0833333 0 0 0.0833333 -89.25 -59)" d="M 2365.33,1279.55 L 2389,1279.55 L 2387.16,1299.55 L 2367.16,1299.55 L 2365.33,1279.55 Z " />
<path stroke="transparent" fill="#000000" transform="matrix(0.0833333 0 0 0.0833333 -89.25 -59)" d="M 3327.3,6687.42 L 3317.29,6704.74 L 2896.79,6461.9 L 2896.81,6438.82 L 3327.3,6687.42 Z " />
<path stroke="transparent" fill="#000000" transform="matrix(0.0833333 0 0 0.0833333 -89.25 -59)" d="M 2385.71,6755.35 L 2375.71,6749.56 L 2376.28,6737.7 L 2896.81,6438.82 L 2896.79,6461.9 L 2385.71,6755.35 Z " />
<path stroke="transparent" fill="#000000" transform="matrix(0.0833333 0 0 0.0833333 -89.25 -59)" d="M 1408.06,1463.35 L 1468.07,1359.43 L 1858.16,1641.76 L 1857.6,1653.64 L 1847.6,1660.06 L 1408.06,1463.35 Z " />
<path stroke="transparent" fill="#000000" transform="matrix(0.0833333 0 0 0.0833333 -89.25 -59)" d="M 3424.91,7355.32 L 3404.91,7343.81 L 3404.91,6869.4 L 3424.91,6869.4 L 3424.91,7355.32 Z " />
<path stroke="transparent" fill="#000000" transform="matrix(0.0833333 0 0 0.0833333 -89.25 -59)" d="M 1926.22,6559.99 L 1986.1,6455.99 L 2376.28,6737.7 L 2375.71,6749.56 L 2365.71,6755.99 L 1926.22,6559.99 Z " />
<path stroke="transparent" fill="#000000" transform="matrix(0.0833333 0 0 0.0833333 -89.25 -59)" d="M 2385.71,7343.79 L 2365.71,7355.34 L 2365.71,6755.99 L 2375.71,6749.56 L 2385.71,6755.35 L 2385.71,7343.79 Z " />
<path stroke="transparent" fill="#000000" transform="matrix(0.0833333 0 0 0.0833333 -89.25 -59)" d="M 3917.77,7571.37 L 3857.65,7675.22 L 3841.36,7663.44 L 3899.45,7563.1 L 3917.77,7571.37 Z " />
<path stroke="transparent" fill="#000000" transform="matrix(0.0833333 0 0 0.0833333 -89.25 -59)" d="M 3863.68,7546.98 L 3809.56,7640.45 L 3793.27,7628.67 L 3845.35,7538.71 L 3863.68,7546.98 Z " />
<path stroke="transparent" fill="#000000" transform="matrix(0.0833333 0 0 0.0833333 -89.25 -59)" d="M 3809.58,7522.58 L 3761.48,7605.68 L 3745.18,7593.9 L 3791.26,7514.32 L 3809.58,7522.58 Z " />
<path stroke="transparent" fill="#000000" transform="matrix(0.0833333 0 0 0.0833333 -89.25 -59)" d="M 3755.49,7498.19 L 3713.39,7570.91 L 3697.1,7559.13 L 3737.16,7489.93 L 3755.49,7498.19 Z " />
<path stroke="transparent" fill="#000000" transform="matrix(0.0833333 0 0 0.0833333 -89.25 -59)" d="M 3701.39,7473.8 L 3665.3,7536.14 L 3649.01,7524.36 L 3683.06,7465.54 L 3701.39,7473.8 Z " />
<path stroke="transparent" fill="#000000" transform="matrix(0.0833333 0 0 0.0833333 -89.25 -59)" d="M 3647.29,7449.41 L 3617.21,7501.37 L 3600.92,7489.59 L 3628.97,7441.15 L 3647.29,7449.41 Z " />
<path stroke="transparent" fill="#000000" transform="matrix(0.0833333 0 0 0.0833333 -89.25 -59)" d="M 3593.2,7425.02 L 3569.13,7466.6 L 3552.83,7454.83 L 3574.87,7416.76 L 3593.2,7425.02 Z " />
<path stroke="transparent" fill="#000000" transform="matrix(0.0833333 0 0 0.0833333 -89.25 -59)" d="M 3539.1,7400.63 L 3521.04,7431.84 L 3504.75,7420.06 L 3520.78,7392.37 L 3539.1,7400.63 Z " />
<path stroke="transparent" fill="#000000" transform="matrix(0.0833333 0 0 0.0833333 -89.25 -59)" d="M 3485.01,7376.24 L 3472.95,7397.07 L 3456.66,7385.29 L 3466.68,7367.98 L 3485.01,7376.24 Z " />
<path stroke="transparent" fill="#000000" transform="matrix(0.0833333 0 0 0.0833333 -89.25 -59)" d="M 2907.35,7655.8 L 2896.8,7650.36 L 2896.79,7638.81 L 3404.91,7343.81 L 3424.91,7355.32 L 2907.35,7655.8 Z " />
<path stroke="transparent" fill="#000000" transform="matrix(0.0833333 0 0 0.0833333 -89.25 -59)" d="M 2896.79,7638.81 L 2896.8,7650.36 L 2886.25,7655.82 L 2365.71,7355.34 L 2385.71,7343.79 L 2896.79,7638.81 Z " />
<path stroke="transparent" fill="#000000" transform="matrix(0.0833333 0 0 0.0833333 -89.25 -59)" d="M 1978.68,7648.72 L 1918.56,7544.86 L 1937.01,7536.81 L 1994.85,7636.73 L 1978.68,7648.72 Z " />
<path stroke="transparent" fill="#000000" transform="matrix(0.0833333 0 0 0.0833333 -89.25 -59)" d="M 2027.12,7612.8 L 1973.84,7520.74 L 1992.29,7512.69 L 2043.29,7600.81 L 2027.12,7612.8 Z " />
<path stroke="transparent" fill="#000000" transform="matrix(0.0833333 0 0 0.0833333 -89.25 -59)" d="M 2075.56,7576.88 L 2029.11,7496.63 L 2047.56,7488.58 L 2091.73,7564.89 L 2075.56,7576.88 Z " />
<path stroke="transparent" fill="#000000" transform="matrix(0.0833333 0 0 0.0833333 -89.25 -59)" d="M 2124.01,7540.96 L 2084.38,7472.51 L 2102.83,7464.46 L 2140.17,7528.97 L 2124.01,7540.96 Z " />
<path stroke="transparent" fill="#000000" transform="matrix(0.0833333 0 0 0.0833333 -89.25 -59)" d="M 2172.45,7505.04 L 2139.65,7448.39 L 2158.1,7440.34 L 2188.62,7493.05 L 2172.45,7505.04 Z " />
<path stroke="transparent" fill="#000000" transform="matrix(0.0833333 0 0 0.0833333 -89.25 -59)" d="M 2220.89,7469.12 L 2194.93,7424.27 L 2213.37,7416.22 L 2237.06,7457.13 L 2220.89,7469.12 Z " />
<path stroke="transparent" fill="#000000" transform="matrix(0.0833333 0 0 0.0833333 -89.25 -59)" d="M 2269.33,7433.2 L 2250.2,7400.16 L 2268.65,7392.11 L 2285.5,7421.22 L 2269.33,7433.2 Z " />
<path stroke="transparent" fill="#000000" transform="matrix(0.0833333 0 0 0.0833333 -89.25 -59)" d="M 2317.77,7397.29 L 2305.47,7376.04 L 2323.92,7367.99 L 2333.94,7385.3 L 2317.77,7397.29 Z " />
<path stroke="transparent" fill="#000000" transform="matrix(0.0833333 0 0 0.0833333 -89.25 -59)" d="M 4349.55,7398.53 L 4359.57,7415.84 L 3939.48,7659.02 L 3929.46,7641.71 L 4349.55,7398.53 Z " />
<path stroke="transparent" fill="#000000" transform="matrix(0.0833333 0 0 0.0833333 -89.25 -59)" d="M 2956.8,8145.2 L 2836.8,8145.2 L 2886.25,7655.82 L 2896.8,7650.36 L 2907.35,7655.8 L 2956.8,8145.2 Z " />
</svg>
