<?xml version="1.0" standalone="no" ?>
<!DOCTYPE svg PUBLIC "-//W3C//DTD SVG 1.1//EN" "http://www.w3.org/Graphics/SVG/1.1/DTD/svg11.dtd">
<svg width="550px" height="479px" viewBox="0 0 550 479" style="background-color: #ffffff00" xmlns="http://www.w3.org/2000/svg" xmlns:xlink="http://www.w3.org/1999/xlink" version="1.1" >
<path stroke="transparent" fill="#000000" transform="matrix(0.0833333 0 0 0.0833333 -225.25 -312)" d="M 5497.36,5170.7 L 5617.36,5170.7 L 5568.89,5752.34 L 5557.36,5770.7 L 5545.86,5752.67 L 5497.36,5170.7 Z " />
<path stroke="transparent" fill="#000000" transform="matrix(0.0833333 0 0 0.0833333 -225.25 -312)" d="M 5567.4,5776.4 L 5557.36,5770.7 L 5568.89,5752.34 L 6064.78,5461.31 L 6074.82,5467.01 L 6076.05,5477.89 L 5567.4,5776.4 Z " />
<path stroke="transparent" fill="#000000" transform="matrix(0.0833333 0 0 0.0833333 -225.25 -312)" d="M 5545.86,5752.67 L 5557.36,5770.7 L 5547.4,5776.55 L 5035.71,5485.98 L 5035.63,5474.44 L 5045.59,5468.59 L 5545.86,5752.67 Z " />
<path stroke="transparent" fill="#000000" transform="matrix(0.0833333 0 0 0.0833333 -225.25 -312)" d="M 5571.67,6376.4 L 5551.59,6364.99 L 5547.4,5776.55 L 5557.36,5770.7 L 5567.4,5776.4 L 5571.67,6376.4 Z " />
<path stroke="transparent" fill="#000000" transform="matrix(0.0833333 0 0 0.0833333 -225.25 -312)" d="M 5551.59,6364.99 L 5571.67,6376.4 L 5044.21,6685.94 L 5044.04,6662.85 L 5551.59,6364.99 Z " />
<path stroke="transparent" fill="#000000" transform="matrix(0.0833333 0 0 0.0833333 -225.25 -312)" d="M 6024.22,6787.25 L 6144.22,6786.41 L 6142.01,6806.42 L 6026.71,6807.23 L 6024.22,6787.25 Z " />
<path stroke="transparent" fill="#000000" transform="matrix(0.0833333 0 0 0.0833333 -225.25 -312)" d="M 6031.44,6845.23 L 6137.82,6844.48 L 6135.61,6864.49 L 6033.92,6865.21 L 6031.44,6845.23 Z " />
<path stroke="transparent" fill="#000000" transform="matrix(0.0833333 0 0 0.0833333 -225.25 -312)" d="M 6038.65,6903.2 L 6131.42,6902.55 L 6129.21,6922.56 L 6041.14,6923.18 L 6038.65,6903.2 Z " />
<path stroke="transparent" fill="#000000" transform="matrix(0.0833333 0 0 0.0833333 -225.25 -312)" d="M 6045.87,6961.17 L 6125.02,6960.62 L 6122.82,6980.63 L 6048.36,6981.16 L 6045.87,6961.17 Z " />
<path stroke="transparent" fill="#000000" transform="matrix(0.0833333 0 0 0.0833333 -225.25 -312)" d="M 6053.09,7019.15 L 6118.62,7018.69 L 6116.42,7038.7 L 6055.57,7039.13 L 6053.09,7019.15 Z " />
<path stroke="transparent" fill="#000000" transform="matrix(0.0833333 0 0 0.0833333 -225.25 -312)" d="M 6060.3,7077.12 L 6112.23,7076.76 L 6110.02,7096.77 L 6062.79,7097.11 L 6060.3,7077.12 Z " />
<path stroke="transparent" fill="#000000" transform="matrix(0.0833333 0 0 0.0833333 -225.25 -312)" d="M 6067.52,7135.1 L 6105.83,7134.83 L 6103.62,7154.84 L 6070.01,7155.08 L 6067.52,7135.1 Z " />
<path stroke="transparent" fill="#000000" transform="matrix(0.0833333 0 0 0.0833333 -225.25 -312)" d="M 6074.74,7193.07 L 6099.43,7192.9 L 6097.22,7212.91 L 6077.23,7213.05 L 6074.74,7193.07 Z " />
<path stroke="transparent" fill="#000000" transform="matrix(0.0833333 0 0 0.0833333 -225.25 -312)" d="M 6087.52,7255.46 L 6087.69,7278.55 L 5580.18,7576.4 L 5570.14,7570.69 L 5570.62,7558.82 L 6087.52,7255.46 Z " />
<path stroke="transparent" fill="#000000" transform="matrix(0.0833333 0 0 0.0833333 -225.25 -312)" d="M 6608.7,7551.44 L 6609.35,7563.31 L 6599.39,7569.15 L 6087.69,7278.55 L 6087.52,7255.46 L 6608.7,7551.44 Z " />
<path stroke="transparent" fill="#000000" transform="matrix(0.0833333 0 0 0.0833333 -225.25 -312)" d="M 6997.18,7266.12 L 7057.92,7369.62 L 6619.39,7569.66 L 6609.35,7563.31 L 6608.7,7551.44 L 6997.18,7266.12 Z " />
<path stroke="transparent" fill="#000000" transform="matrix(0.0833333 0 0 0.0833333 -225.25 -312)" d="M 6623.66,8169 L 6603.58,8157.6 L 6599.39,7569.15 L 6609.35,7563.31 L 6619.39,7569.66 L 6623.66,8169 Z " />
<path stroke="transparent" fill="#000000" transform="matrix(0.0833333 0 0 0.0833333 -225.25 -312)" d="M 7072.01,8354.63 L 7012.75,8458.97 L 6996.48,8447.12 L 7053.49,8346.73 L 7072.01,8354.63 Z " />
<path stroke="transparent" fill="#000000" transform="matrix(0.0833333 0 0 0.0833333 -225.25 -312)" d="M 7016.58,8330.99 L 6964.06,8423.48 L 6947.79,8411.62 L 6998.07,8323.09 L 7016.58,8330.99 Z " />
<path stroke="transparent" fill="#000000" transform="matrix(0.0833333 0 0 0.0833333 -225.25 -312)" d="M 6961.16,8307.35 L 6915.37,8387.99 L 6899.1,8376.13 L 6942.64,8299.46 L 6961.16,8307.35 Z " />
<path stroke="transparent" fill="#000000" transform="matrix(0.0833333 0 0 0.0833333 -225.25 -312)" d="M 6905.73,8283.72 L 6866.67,8352.49 L 6850.41,8340.64 L 6887.22,8275.82 L 6905.73,8283.72 Z " />
<path stroke="transparent" fill="#000000" transform="matrix(0.0833333 0 0 0.0833333 -225.25 -312)" d="M 6850.31,8260.08 L 6817.98,8317 L 6801.72,8305.15 L 6831.79,8252.19 L 6850.31,8260.08 Z " />
<path stroke="transparent" fill="#000000" transform="matrix(0.0833333 0 0 0.0833333 -225.25 -312)" d="M 6794.89,8236.45 L 6769.29,8281.51 L 6753.03,8269.65 L 6776.37,8228.55 L 6794.89,8236.45 Z " />
<path stroke="transparent" fill="#000000" transform="matrix(0.0833333 0 0 0.0833333 -225.25 -312)" d="M 6739.46,8212.81 L 6720.6,8246.02 L 6704.34,8234.16 L 6720.95,8204.91 L 6739.46,8212.81 Z " />
<path stroke="transparent" fill="#000000" transform="matrix(0.0833333 0 0 0.0833333 -225.25 -312)" d="M 6684.04,8189.17 L 6671.91,8210.53 L 6655.64,8198.67 L 6665.52,8181.28 L 6684.04,8189.17 Z " />
<path stroke="transparent" fill="#000000" transform="matrix(0.0833333 0 0 0.0833333 -225.25 -312)" d="M 6106.65,8472.43 L 6096.15,8466.99 L 6096.07,8455.45 L 6603.58,8157.6 L 6623.66,8169 L 6106.65,8472.43 Z " />
<path stroke="transparent" fill="#000000" transform="matrix(0.0833333 0 0 0.0833333 -225.25 -312)" d="M 6534.11,9301.75 L 6524.24,9319.14 L 6042.1,9045.33 L 6162.61,9090.77 L 6534.11,9301.75 Z " />
<path stroke="transparent" fill="#000000" transform="matrix(0.0833333 0 0 0.0833333 -225.25 -312)" d="M 6162.61,9090.77 L 6042.1,9045.33 L 6085.73,8472.58 L 6096.15,8466.99 L 6106.65,8472.43 L 6162.61,9090.77 Z " />
<path stroke="transparent" fill="#000000" transform="matrix(0.0833333 0 0 0.0833333 -225.25 -312)" d="M 5669.84,8236.38 L 5679.72,8218.99 L 6096.07,8455.45 L 6096.15,8466.99 L 6085.73,8472.58 L 5669.84,8236.38 Z " />
<path stroke="transparent" fill="#000000" transform="matrix(0.0833333 0 0 0.0833333 -225.25 -312)" d="M 5583.66,8065.46 L 5563.66,8065.6 L 5560.19,7577.19 L 5570.14,7570.69 L 5580.18,7576.4 L 5583.66,8065.46 Z " />
<path stroke="transparent" fill="#000000" transform="matrix(0.0833333 0 0 0.0833333 -225.25 -312)" d="M 5119.13,7383.56 L 5178.39,7279.22 L 5570.62,7558.82 L 5570.14,7570.69 L 5560.19,7577.19 L 5119.13,7383.56 Z " />
<path stroke="transparent" fill="#000000" transform="matrix(0.0833333 0 0 0.0833333 -225.25 -312)" d="M 5107.65,7168.8 L 4987.65,7169.66 L 4989.78,7149.64 L 5105.24,7148.82 L 5107.65,7168.8 Z " />
<path stroke="transparent" fill="#000000" transform="matrix(0.0833333 0 0 0.0833333 -225.25 -312)" d="M 5100.4,7108.74 L 4994.04,7109.5 L 4996.17,7089.49 L 5097.99,7088.76 L 5100.4,7108.74 Z " />
<path stroke="transparent" fill="#000000" transform="matrix(0.0833333 0 0 0.0833333 -225.25 -312)" d="M 5093.16,7048.69 L 5000.43,7049.35 L 5002.56,7029.33 L 5090.74,7028.7 L 5093.16,7048.69 Z " />
<path stroke="transparent" fill="#000000" transform="matrix(0.0833333 0 0 0.0833333 -225.25 -312)" d="M 5085.91,6988.63 L 5006.82,6989.19 L 5008.95,6969.18 L 5083.5,6968.65 L 5085.91,6988.63 Z " />
<path stroke="transparent" fill="#000000" transform="matrix(0.0833333 0 0 0.0833333 -225.25 -312)" d="M 5078.66,6928.57 L 5013.21,6929.04 L 5015.34,6909.02 L 5076.25,6908.59 L 5078.66,6928.57 Z " />
<path stroke="transparent" fill="#000000" transform="matrix(0.0833333 0 0 0.0833333 -225.25 -312)" d="M 5071.42,6868.51 L 5019.6,6868.88 L 5021.73,6848.87 L 5069,6848.53 L 5071.42,6868.51 Z " />
<path stroke="transparent" fill="#000000" transform="matrix(0.0833333 0 0 0.0833333 -225.25 -312)" d="M 5064.17,6808.46 L 5025.99,6808.73 L 5028.12,6788.71 L 5061.76,6788.47 L 5064.17,6808.46 Z " />
<path stroke="transparent" fill="#000000" transform="matrix(0.0833333 0 0 0.0833333 -225.25 -312)" d="M 5056.92,6748.4 L 5032.39,6748.57 L 5034.51,6728.56 L 5054.51,6728.42 L 5056.92,6748.4 Z " />
<path stroke="transparent" fill="#000000" transform="matrix(0.0833333 0 0 0.0833333 -225.25 -312)" d="M 4522.47,6389.64 L 4522.39,6378.09 L 4532.34,6372.25 L 5044.04,6662.85 L 5044.21,6685.94 L 4522.47,6389.64 Z " />
<path stroke="transparent" fill="#000000" transform="matrix(0.0833333 0 0 0.0833333 -225.25 -312)" d="M 4532.34,6372.25 L 4522.39,6378.09 L 4512.35,6372.39 L 4508.19,5783.93 L 4518.15,5778.09 L 4528.19,5783.79 L 4532.34,6372.25 Z " />
<path stroke="transparent" fill="#000000" transform="matrix(0.0833333 0 0 0.0833333 -225.25 -312)" d="M 4018.61,6685.35 L 4004.92,6681.78 L 4004.84,6670.24 L 4512.35,6372.39 L 4522.39,6378.09 L 4522.47,6389.64 L 4018.61,6685.35 Z " />
<path stroke="transparent" fill="#000000" transform="matrix(0.0833333 0 0 0.0833333 -225.25 -312)" d="M 3717.31,7208.46 L 3699.92,7198.59 L 3991.29,6685.54 L 4004.92,6681.78 L 4005.06,6701.78 L 3717.31,7208.46 Z " />
<path stroke="transparent" fill="#000000" transform="matrix(0.0833333 0 0 0.0833333 -225.25 -312)" d="M 4317.24,7194.19 L 4299.99,7204.31 L 4005.06,6701.78 L 4004.92,6681.78 L 4018.61,6685.35 L 4317.24,7194.19 Z " />
<path stroke="transparent" fill="#000000" transform="matrix(0.0833333 0 0 0.0833333 -225.25 -312)" d="M 4004.84,6670.24 L 4004.92,6681.78 L 3991.29,6685.54 L 3483.82,6397.34 L 3483.18,6385.48 L 3493.14,6379.64 L 4004.84,6670.24 Z " />
<path stroke="transparent" fill="#000000" transform="matrix(0.0833333 0 0 0.0833333 -225.25 -312)" d="M 3088.31,6686.79 L 3027.57,6583.3 L 3473.13,6379.14 L 3483.18,6385.48 L 3483.82,6397.34 L 3088.31,6686.79 Z " />
<path stroke="transparent" fill="#000000" transform="matrix(0.0833333 0 0 0.0833333 -225.25 -312)" d="M 3468.87,5779.78 L 3488.95,5791.19 L 3493.14,6379.64 L 3483.18,6385.48 L 3473.13,6379.14 L 3468.87,5779.78 Z " />
<path stroke="transparent" fill="#000000" transform="matrix(0.0833333 0 0 0.0833333 -225.25 -312)" d="M 3488.95,5791.19 L 3468.87,5779.78 L 3996.34,5470.28 L 3996.5,5493.37 L 3488.95,5791.19 Z " />
<path stroke="transparent" fill="#000000" transform="matrix(0.0833333 0 0 0.0833333 -225.25 -312)" d="M 3996.5,5493.37 L 3996.34,5470.28 L 4506.51,5759.98 L 4518.15,5778.09 L 4508.19,5783.93 L 3996.5,5493.37 Z " />
<path stroke="transparent" fill="#000000" transform="matrix(0.0833333 0 0 0.0833333 -225.25 -312)" d="M 4453.89,5178.56 L 4573.88,5177.71 L 4529.54,5759.81 L 4518.15,5778.09 L 4506.51,5759.98 L 4453.89,5178.56 Z " />
<path stroke="transparent" fill="#000000" transform="matrix(0.0833333 0 0 0.0833333 -225.25 -312)" d="M 5025.59,5468.74 L 5035.63,5474.44 L 5035.71,5485.98 L 4528.19,5783.79 L 4518.15,5778.09 L 4529.54,5759.81 L 5025.59,5468.74 Z " />
<path stroke="transparent" fill="#000000" transform="matrix(0.0833333 0 0 0.0833333 -225.25 -312)" d="M 5021.32,4868.78 L 5041.4,4880.18 L 5045.59,5468.59 L 5035.63,5474.44 L 5025.59,5468.74 L 5021.32,4868.78 Z " />
<path stroke="transparent" fill="#000000" transform="matrix(0.0833333 0 0 0.0833333 -225.25 -312)" d="M 5041.4,4880.18 L 5021.32,4868.78 L 5538.22,4565.42 L 5548.83,4570.79 L 5548.91,4582.34 L 5041.4,4880.18 Z " />
<path stroke="transparent" fill="#000000" transform="matrix(0.0833333 0 0 0.0833333 -225.25 -312)" d="M 5485.41,4091.05 L 5605.41,4090.2 L 5559.36,4565.27 L 5548.83,4570.79 L 5538.22,4565.42 L 5485.41,4091.05 Z " />
<path stroke="transparent" fill="#000000" transform="matrix(0.0833333 0 0 0.0833333 -225.25 -312)" d="M 6058.67,4848.8 L 6070.56,4867.06 L 6060.6,4872.9 L 5548.91,4582.34 L 5548.83,4570.79 L 5559.36,4565.27 L 6058.67,4848.8 Z " />
<path stroke="transparent" fill="#000000" transform="matrix(0.0833333 0 0 0.0833333 -225.25 -312)" d="M 6629.45,4670.53 L 6639.88,4677.59 L 6636.14,4689.38 L 6080.61,4874.25 L 6070.56,4867.06 L 6082.05,4852.69 L 6629.45,4670.53 Z " />
<path stroke="transparent" fill="#000000" transform="matrix(0.0833333 0 0 0.0833333 -225.25 -312)" d="M 6084.77,5459.67 L 6074.82,5467.01 L 6064.78,5461.31 L 6060.6,4872.9 L 6070.56,4867.06 L 6080.61,4874.25 L 6084.77,5459.67 Z " />
<path stroke="transparent" fill="#000000" transform="matrix(0.0833333 0 0 0.0833333 -225.25 -312)" d="M 6134.82,6067.01 L 6014.82,6067.01 L 6016.66,6047.01 L 6132.99,6047.01 L 6134.82,6067.01 Z " />
<path stroke="transparent" fill="#000000" transform="matrix(0.0833333 0 0 0.0833333 -225.25 -312)" d="M 6129.47,6008.58 L 6020.18,6008.58 L 6022.01,5988.58 L 6127.64,5988.58 L 6129.47,6008.58 Z " />
<path stroke="transparent" fill="#000000" transform="matrix(0.0833333 0 0 0.0833333 -225.25 -312)" d="M 6124.12,5950.14 L 6025.53,5950.14 L 6027.36,5930.14 L 6122.29,5930.14 L 6124.12,5950.14 Z " />
<path stroke="transparent" fill="#000000" transform="matrix(0.0833333 0 0 0.0833333 -225.25 -312)" d="M 6118.77,5891.71 L 6030.88,5891.71 L 6032.71,5871.71 L 6116.94,5871.71 L 6118.77,5891.71 Z " />
<path stroke="transparent" fill="#000000" transform="matrix(0.0833333 0 0 0.0833333 -225.25 -312)" d="M 6113.42,5833.27 L 6036.23,5833.27 L 6038.06,5813.27 L 6111.58,5813.27 L 6113.42,5833.27 Z " />
<path stroke="transparent" fill="#000000" transform="matrix(0.0833333 0 0 0.0833333 -225.25 -312)" d="M 6108.06,5774.84 L 6041.58,5774.84 L 6043.42,5754.84 L 6106.23,5754.84 L 6108.06,5774.84 Z " />
<path stroke="transparent" fill="#000000" transform="matrix(0.0833333 0 0 0.0833333 -225.25 -312)" d="M 6102.71,5716.4 L 6046.94,5716.4 L 6048.77,5696.4 L 6100.88,5696.4 L 6102.71,5716.4 Z " />
<path stroke="transparent" fill="#000000" transform="matrix(0.0833333 0 0 0.0833333 -225.25 -312)" d="M 6097.36,5657.97 L 6052.29,5657.97 L 6054.12,5637.97 L 6095.53,5637.97 L 6097.36,5657.97 Z " />
<path stroke="transparent" fill="#000000" transform="matrix(0.0833333 0 0 0.0833333 -225.25 -312)" d="M 6092.01,5599.54 L 6057.64,5599.54 L 6059.47,5579.54 L 6090.18,5579.54 L 6092.01,5599.54 Z " />
<path stroke="transparent" fill="#000000" transform="matrix(0.0833333 0 0 0.0833333 -225.25 -312)" d="M 6086.66,5541.1 L 6062.99,5541.1 L 6064.82,5521.1 L 6084.82,5521.1 L 6086.66,5541.1 Z " />
<path stroke="transparent" fill="#000000" transform="matrix(0.0833333 0 0 0.0833333 -225.25 -312)" d="M 6642.84,5636.64 L 6650.64,5660.1 L 6076.05,5477.89 L 6074.82,5467.01 L 6084.77,5459.67 L 6642.84,5636.64 Z " />
<path stroke="transparent" fill="#000000" transform="matrix(0.0833333 0 0 0.0833333 -225.25 -312)" d="M 6650.64,5660.1 L 6642.84,5636.64 L 6983.6,5160.58 L 7008.32,5160.41 L 6650.64,5660.1 Z " />
<path stroke="transparent" fill="#000000" transform="matrix(0.0833333 0 0 0.0833333 -225.25 -312)" d="M 7008.32,5160.41 L 6983.6,5160.58 L 6636.14,4689.38 L 6639.88,4677.59 L 6650.22,4674.76 L 7008.32,5160.41 Z " />
<path stroke="transparent" fill="#000000" transform="matrix(0.0833333 0 0 0.0833333 -225.25 -312)" d="M 6591.77,4081.77 L 6653.2,4105.69 L 6716.12,4080.59 L 6650.22,4674.76 L 6639.88,4677.59 L 6629.45,4670.53 L 6591.77,4081.77 Z " />
<path stroke="transparent" fill="#000000" transform="matrix(0.0833333 0 0 0.0833333 -225.25 -312)" d="M 6128.58,3814.35 L 6138.58,3797.03 L 6653.18,4094.13 L 6653.2,4105.69 L 6591.77,4081.77 L 6128.58,3814.35 Z " />
<path stroke="transparent" fill="#000000" transform="matrix(0.0833333 0 0 0.0833333 -225.25 -312)" d="M 6716.12,4080.59 L 6653.2,4105.69 L 6653.18,4094.13 L 7171.53,3792.02 L 7171.63,3815.11 L 6716.12,4080.59 Z " />
<path stroke="transparent" fill="#000000" transform="matrix(0.0833333 0 0 0.0833333 -225.25 -312)" d="M 6729.28,4156.26 L 6719.21,4138.98 L 7166.89,3878.06 L 7176.96,3895.34 L 6729.28,4156.26 Z " />
<path stroke="transparent" fill="#000000" transform="matrix(0.0833333 0 0 0.0833333 -225.25 -312)" d="M 7171.63,3815.11 L 7171.53,3792.02 L 7692.37,4089.82 L 7692.46,4112.92 L 7171.63,3815.11 Z " />
<path stroke="transparent" fill="#000000" transform="matrix(0.0833333 0 0 0.0833333 -225.25 -312)" d="M 7692.46,4112.92 L 7692.37,4089.82 L 8210.75,3787.7 L 8210.84,3810.79 L 7692.46,4112.92 Z " />
<path stroke="transparent" fill="#000000" transform="matrix(0.0833333 0 0 0.0833333 -225.25 -312)" d="M 8210.84,3810.79 L 8210.75,3787.7 L 8731.62,4085.5 L 8731.67,4097.05 L 8721.7,4102.87 L 8210.84,3810.79 Z " />
<path stroke="transparent" fill="#000000" transform="matrix(0.0833333 0 0 0.0833333 -225.25 -312)" d="M 8206.18,3891.06 L 8216.11,3873.7 L 8664.81,4130.24 L 8654.88,4147.6 L 8206.18,3891.06 Z " />
<path stroke="transparent" fill="#000000" transform="matrix(0.0833333 0 0 0.0833333 -225.25 -312)" d="M 8744.16,4696.97 L 8724.16,4697.06 L 8721.7,4102.87 L 8731.67,4097.05 L 8741.69,4102.78 L 8744.16,4696.97 Z " />
<path stroke="transparent" fill="#000000" transform="matrix(0.0833333 0 0 0.0833333 -225.25 -312)" d="M 8741.69,4102.78 L 8731.67,4097.05 L 8731.62,4085.5 L 9244.98,3786.29 L 9255.05,3803.57 L 8741.69,4102.78 Z " />
<text x="0" y="0" stroke="transparent" fill="#000000" transform="matrix(0.0833333 0 0 0.0833333 275.198 250.083)" style="font:normal normal normal 200px 'Arial'" >
OH</text>
<text x="0" y="0" stroke="transparent" fill="#000000" transform="matrix(0.0833333 0 0 0.0833333 362.151 299.468)" style="font:normal normal normal 200px 'Arial'" >
OH</text>
<text x="0" y="0" stroke="transparent" fill="#000000" transform="matrix(0.0833333 0 0 0.0833333 362.863 399.467)" style="font:normal normal normal 200px 'Arial'" >
OH</text>
<text x="0" y="0" stroke="transparent" fill="#000000" transform="matrix(0.0833333 0 0 0.0833333 320.097 474.771)" style="font:normal normal normal 200px 'Arial'" >
OH</text>
<text x="0" y="0" stroke="transparent" fill="#000000" transform="matrix(0.0833333 0 0 0.0833333 232.784 375.391)" style="font:normal normal normal 200px 'Arial'" >
O</text>
<text x="0" y="0" stroke="transparent" fill="#000000" transform="matrix(0.0833333 0 0 0.0833333 188.95 300.699)" style="font:normal normal normal 200px 'Arial'" >
O</text>
<text x="0" y="0" stroke="transparent" fill="#000000" transform="matrix(0.0833333 0 0 0.0833333 3.3566 251.931)" style="font:normal normal normal 200px 'Arial'" >
HO</text>
<text x="0" y="0" stroke="transparent" fill="#000000" transform="matrix(0.0833333 0 0 0.0833333 230.296 25.3997)" style="font:normal normal normal 200px 'Arial'" >
OH</text>
<text x="0" y="0" stroke="transparent" fill="#000000" transform="matrix(0.0833333 0 0 0.0833333 188.386 200.703)" style="font:normal normal normal 200px 'Arial'" >
H</text>
<path stroke="transparent" fill="#000000" transform="matrix(0.0833333 0 0 0.0833333 -225.25 -312)" d="M 5095.63,5971.77 L 4975.63,5971.77 L 4977.88,5951.77 L 5093.37,5951.77 L 5095.63,5971.77 Z " />
<path stroke="transparent" fill="#000000" transform="matrix(0.0833333 0 0 0.0833333 -225.25 -312)" d="M 5088.81,5911.3 L 4982.45,5911.3 L 4984.7,5891.3 L 5086.55,5891.3 L 5088.81,5911.3 Z " />
<path stroke="transparent" fill="#000000" transform="matrix(0.0833333 0 0 0.0833333 -225.25 -312)" d="M 5081.99,5850.83 L 4989.27,5850.83 L 4991.52,5830.83 L 5079.73,5830.83 L 5081.99,5850.83 Z " />
<path stroke="transparent" fill="#000000" transform="matrix(0.0833333 0 0 0.0833333 -225.25 -312)" d="M 5075.16,5790.36 L 4996.09,5790.36 L 4998.34,5770.36 L 5072.91,5770.36 L 5075.16,5790.36 Z " />
<path stroke="transparent" fill="#000000" transform="matrix(0.0833333 0 0 0.0833333 -225.25 -312)" d="M 5068.34,5729.89 L 5002.91,5729.89 L 5005.16,5709.89 L 5066.09,5709.89 L 5068.34,5729.89 Z " />
<path stroke="transparent" fill="#000000" transform="matrix(0.0833333 0 0 0.0833333 -225.25 -312)" d="M 5061.52,5669.42 L 5009.73,5669.42 L 5011.99,5649.42 L 5059.27,5649.42 L 5061.52,5669.42 Z " />
<path stroke="transparent" fill="#000000" transform="matrix(0.0833333 0 0 0.0833333 -225.25 -312)" d="M 5054.7,5608.94 L 5016.55,5608.94 L 5018.81,5588.94 L 5052.45,5588.94 L 5054.7,5608.94 Z " />
<path stroke="transparent" fill="#000000" transform="matrix(0.0833333 0 0 0.0833333 -225.25 -312)" d="M 5047.88,5548.47 L 5023.37,5548.47 L 5025.63,5528.47 L 5045.63,5528.47 L 5047.88,5548.47 Z " />
<text x="0" y="0" stroke="transparent" fill="#000000" transform="matrix(0.0833333 0 0 0.0833333 145.615 276.008)" style="font:normal normal normal 200px 'Arial'" >
H</text>
<path stroke="transparent" fill="#000000" transform="matrix(0.0833333 0 0 0.0833333 -225.25 -312)" d="M 4582.39,6875.43 L 4462.39,6875.43 L 4464.64,6855.43 L 4580.13,6855.43 L 4582.39,6875.43 Z " />
<path stroke="transparent" fill="#000000" transform="matrix(0.0833333 0 0 0.0833333 -225.25 -312)" d="M 4575.57,6814.96 L 4469.21,6814.96 L 4471.46,6794.96 L 4573.31,6794.96 L 4575.57,6814.96 Z " />
<path stroke="transparent" fill="#000000" transform="matrix(0.0833333 0 0 0.0833333 -225.25 -312)" d="M 4568.74,6754.48 L 4476.03,6754.48 L 4478.28,6734.48 L 4566.49,6734.48 L 4568.74,6754.48 Z " />
<path stroke="transparent" fill="#000000" transform="matrix(0.0833333 0 0 0.0833333 -225.25 -312)" d="M 4561.92,6694.01 L 4482.85,6694.01 L 4485.1,6674.01 L 4559.67,6674.01 L 4561.92,6694.01 Z " />
<path stroke="transparent" fill="#000000" transform="matrix(0.0833333 0 0 0.0833333 -225.25 -312)" d="M 4555.1,6633.54 L 4489.67,6633.54 L 4491.92,6613.54 L 4552.85,6613.54 L 4555.1,6633.54 Z " />
<path stroke="transparent" fill="#000000" transform="matrix(0.0833333 0 0 0.0833333 -225.25 -312)" d="M 4548.28,6573.07 L 4496.49,6573.07 L 4498.74,6553.07 L 4546.03,6553.07 L 4548.28,6573.07 Z " />
<path stroke="transparent" fill="#000000" transform="matrix(0.0833333 0 0 0.0833333 -225.25 -312)" d="M 4541.46,6512.6 L 4503.31,6512.6 L 4505.57,6492.6 L 4539.21,6492.6 L 4541.46,6512.6 Z " />
<path stroke="transparent" fill="#000000" transform="matrix(0.0833333 0 0 0.0833333 -225.25 -312)" d="M 4534.64,6452.13 L 4510.13,6452.13 L 4512.39,6432.13 L 4532.39,6432.13 L 4534.64,6452.13 Z " />
<text x="0" y="0" stroke="transparent" fill="#000000" transform="matrix(0.0833333 0 0 0.0833333 274.63 50.0879)" style="font:normal normal normal 200px 'Arial'" >
H</text>
<path stroke="transparent" fill="#000000" transform="matrix(0.0833333 0 0 0.0833333 -225.25 -312)" d="M 6010.56,4384.39 L 6130.56,4384.39 L 6082.05,4852.69 L 6070.56,4867.06 L 6058.67,4848.8 L 6010.56,4384.39 Z " />
</svg>
