<?xml version="1.0" standalone="no" ?>
<!DOCTYPE svg PUBLIC "-//W3C//DTD SVG 1.1//EN" "http://www.w3.org/Graphics/SVG/1.1/DTD/svg11.dtd">
<svg width="186px" height="179px" viewBox="0 0 186 179" style="background-color: #ffffff00" xmlns="http://www.w3.org/2000/svg" xmlns:xlink="http://www.w3.org/1999/xlink" version="1.1" >
<text x="0" y="0" stroke="transparent" fill="#000000" transform="matrix(0.0666667 0 0 0.0666667 102.309 14.3347)" style="font:normal normal normal 200px 'Arial'" >
OH</text>
<text x="0" y="0" stroke="transparent" fill="#000000" transform="matrix(0.0666667 0 0 0.0666667 137.136 114.268)" style="font:normal normal normal 200px 'Arial'" >
OH</text>
<text x="0" y="0" stroke="transparent" fill="#000000" transform="matrix(0.0666667 0 0 0.0666667 172.05 54.3689)" style="font:normal normal normal 200px 'Arial'" >
O</text>
<text x="0" y="0" stroke="transparent" fill="#000000" transform="matrix(0.0666667 0 0 0.0666667 33.7317 175.81)" style="font:normal normal normal 200px 'Arial'" >
OH</text>
<path stroke="transparent" fill="#000000" transform="matrix(0.0666667 0 0 0.0666667 -255.853 -304)" d="M 5446.2,5291.93 L 5456.26,5297.53 L 5456.36,5309.16 L 4942.53,5619.94 L 4932.47,5614.34 L 4932.36,5602.71 L 5446.2,5291.93 Z " />
<path stroke="transparent" fill="#000000" transform="matrix(0.0666667 0 0 0.0666667 -255.853 -304)" d="M 4948.34,6224.85 L 4928.23,6213.42 L 4922.53,5620.13 L 4932.47,5614.34 L 4942.53,5619.94 L 4948.34,6224.85 Z " />
<path stroke="transparent" fill="#000000" transform="matrix(0.0666667 0 0 0.0666667 -255.853 -304)" d="M 4875.31,6177.57 L 4855.31,6177.76 L 4850.29,5656.48 L 4870.29,5656.29 L 4875.31,6177.57 Z " />
<path stroke="transparent" fill="#000000" transform="matrix(0.0666667 0 0 0.0666667 -255.853 -304)" d="M 4416.01,5326.43 L 4415.91,5303.26 L 4932.36,5602.71 L 4932.47,5614.34 L 4922.53,5620.13 L 4416.01,5326.43 Z " />
<path stroke="transparent" fill="#000000" transform="matrix(0.0666667 0 0 0.0666667 -255.853 -304)" d="M 5982.84,5591.26 L 5962.84,5602.79 L 5456.36,5309.16 L 5456.26,5297.53 L 5466.2,5291.74 L 5982.84,5591.26 Z " />
<path stroke="transparent" fill="#000000" transform="matrix(0.0666667 0 0 0.0666667 -255.853 -304)" d="M 5441.6,4816.94 L 5461.6,4816.75 L 5466.2,5291.74 L 5456.26,5297.53 L 5446.2,5291.93 L 5441.6,4816.94 Z " />
<path stroke="transparent" fill="#000000" transform="matrix(0.0666667 0 0 0.0666667 -255.853 -304)" d="M 4431.78,6525.83 L 4421.78,6520.09 L 4421.75,6508.53 L 4928.23,6213.42 L 4948.34,6224.85 L 4431.78,6525.83 Z " />
<path stroke="transparent" fill="#000000" transform="matrix(0.0666667 0 0 0.0666667 -255.853 -304)" d="M 3909.45,5625.86 L 3889.45,5614.45 L 4415.91,5303.26 L 4416.01,5326.43 L 3909.45,5625.86 Z " />
<path stroke="transparent" fill="#000000" transform="matrix(0.0666667 0 0 0.0666667 -255.853 -304)" d="M 3976.53,5669.84 L 3966.36,5652.62 L 4411.22,5389.67 L 4421.4,5406.88 L 3976.53,5669.84 Z " />
<path stroke="transparent" fill="#000000" transform="matrix(0.0666667 0 0 0.0666667 -255.853 -304)" d="M 5982.84,6090.85 L 5962.84,6090.85 L 5962.84,5602.79 L 5982.84,5591.26 L 5982.84,6090.85 Z " />
<path stroke="transparent" fill="#000000" transform="matrix(0.0666667 0 0 0.0666667 -255.853 -304)" d="M 6373.82,5314.5 L 6383.75,5331.86 L 5941.6,5584.71 L 5931.67,5567.35 L 6373.82,5314.5 Z " />
<path stroke="transparent" fill="#000000" transform="matrix(0.0666667 0 0 0.0666667 -255.853 -304)" d="M 6409.76,5377.35 L 6419.69,5394.71 L 5977.81,5647.41 L 5967.88,5630.04 L 6409.76,5377.35 Z " />
<path stroke="transparent" fill="#000000" transform="matrix(0.0666667 0 0 0.0666667 -255.853 -304)" d="M 3889.45,6224.92 L 3909.45,6213.36 L 4421.75,6508.53 L 4421.78,6520.09 L 4411.78,6525.87 L 3889.45,6224.92 Z " />
<path stroke="transparent" fill="#000000" transform="matrix(0.0666667 0 0 0.0666667 -255.853 -304)" d="M 3966.79,6186 L 3976.78,6168.67 L 4426.57,6427.82 L 4416.58,6445.15 L 3966.79,6186 Z " />
<path stroke="transparent" fill="#000000" transform="matrix(0.0666667 0 0 0.0666667 -255.853 -304)" d="M 4431.78,7013.98 L 4411.78,7013.98 L 4411.78,6525.87 L 4421.78,6520.09 L 4431.78,6525.83 L 4431.78,7013.98 Z " />
<path stroke="transparent" fill="#000000" transform="matrix(0.0666667 0 0 0.0666667 -255.853 -304)" d="M 3909.45,6213.36 L 3889.45,6224.92 L 3889.45,5614.45 L 3909.45,5625.86 L 3909.45,6213.36 Z " />
</svg>
