<?xml version="1.0" standalone="no" ?>
<!DOCTYPE svg PUBLIC "-//W3C//DTD SVG 1.1//EN" "http://www.w3.org/Graphics/SVG/1.1/DTD/svg11.dtd">
<svg width="278px" height="226px" viewBox="0 0 278 226" style="background-color: #ffffff00" xmlns="http://www.w3.org/2000/svg" xmlns:xlink="http://www.w3.org/1999/xlink" version="1.1" >
<text x="0" y="0" stroke="transparent" fill="#000000" transform="matrix(0.0666667 0 0 0.0666667 2.80655 188.201)" style="font:normal normal normal 200px 'Arial'" >
HO</text>
<text x="0" y="0" stroke="transparent" fill="#000000" transform="matrix(0.0666667 0 0 0.0666667 254.925 48.1985)" style="font:normal normal normal 200px 'Arial'" >
OH</text>
<path stroke="transparent" fill="#000000" transform="matrix(0.0666667 0 0 0.0666667 -209.92 -232)" d="M 6021.45,5930.73 L 6001.45,5919.18 L 6001.45,5330.72 L 6011.45,5324.94 L 6021.45,5330.72 L 6021.45,5930.73 Z " />
<path stroke="transparent" fill="#000000" transform="matrix(0.0666667 0 0 0.0666667 -209.92 -232)" d="M 6001.45,5919.18 L 6021.45,5930.73 L 5491.84,6236.51 L 5491.83,6213.42 L 6001.45,5919.18 Z " />
<path stroke="transparent" fill="#000000" transform="matrix(0.0666667 0 0 0.0666667 -209.92 -232)" d="M 5491.83,6213.42 L 5491.84,6236.51 L 4972.23,5936.56 L 4972.22,5925.02 L 4982.22,5919.24 L 5491.83,6213.42 Z " />
<path stroke="transparent" fill="#000000" transform="matrix(0.0666667 0 0 0.0666667 -209.92 -232)" d="M 4982.22,5919.24 L 4972.22,5925.02 L 4962.22,5919.24 L 4962.22,5330.78 L 4972.22,5325 L 4982.22,5330.78 L 4982.22,5919.24 Z " />
<path stroke="transparent" fill="#000000" transform="matrix(0.0666667 0 0 0.0666667 -209.92 -232)" d="M 4962.22,5919.24 L 4972.22,5925.02 L 4972.23,5936.56 L 4462.61,6230.8 L 4452.61,6225.02 L 4452.61,6213.48 L 4962.22,5919.24 Z " />
<path stroke="transparent" fill="#000000" transform="matrix(0.0666667 0 0 0.0666667 -209.92 -232)" d="M 4895.22,5874.79 L 4905.22,5892.11 L 4457.61,6150.54 L 4447.61,6133.22 L 4895.22,5874.79 Z " />
<path stroke="transparent" fill="#000000" transform="matrix(0.0666667 0 0 0.0666667 -209.92 -232)" d="M 4462.61,6825.03 L 4442.61,6825.03 L 4442.61,6230.8 L 4452.61,6225.02 L 4462.61,6230.8 L 4462.61,6825.03 Z " />
<path stroke="transparent" fill="#000000" transform="matrix(0.0666667 0 0 0.0666667 -209.92 -232)" d="M 4452.61,6213.48 L 4452.61,6225.02 L 4442.61,6230.8 L 3933,5936.56 L 3933,5925.02 L 3943,5919.24 L 4452.61,6213.48 Z " />
<path stroke="transparent" fill="#000000" transform="matrix(0.0666667 0 0 0.0666667 -209.92 -232)" d="M 3510.94,6180.22 L 3500.94,6162.9 L 3923,5919.24 L 3933,5925.02 L 3933,5936.56 L 3510.94,6180.22 Z " />
<path stroke="transparent" fill="#000000" transform="matrix(0.0666667 0 0 0.0666667 -209.92 -232)" d="M 3943,5919.24 L 3933,5925.02 L 3923,5919.24 L 3923,5319.23 L 3943,5330.78 L 3943,5919.24 Z " />
<path stroke="transparent" fill="#000000" transform="matrix(0.0666667 0 0 0.0666667 -209.92 -232)" d="M 4015,5883.45 L 3995,5883.45 L 3995,5366.57 L 4015,5366.57 L 4015,5883.45 Z " />
<path stroke="transparent" fill="#000000" transform="matrix(0.0666667 0 0 0.0666667 -209.92 -232)" d="M 3943,5330.78 L 3923,5319.23 L 4452.61,5013.45 L 4452.61,5036.54 L 3943,5330.78 Z " />
<path stroke="transparent" fill="#000000" transform="matrix(0.0666667 0 0 0.0666667 -209.92 -232)" d="M 4452.61,5036.54 L 4452.61,5013.45 L 4972.22,5313.46 L 4972.22,5325 L 4962.22,5330.78 L 4452.61,5036.54 Z " />
<path stroke="transparent" fill="#000000" transform="matrix(0.0666667 0 0 0.0666667 -209.92 -232)" d="M 4447.61,5116.8 L 4457.61,5099.48 L 4905.22,5357.91 L 4895.22,5375.23 L 4447.61,5116.8 Z " />
<path stroke="transparent" fill="#000000" transform="matrix(0.0666667 0 0 0.0666667 -209.92 -232)" d="M 4982.22,5330.78 L 4972.22,5325 L 4972.22,5313.46 L 5481.84,5019.16 L 5491.84,5024.94 L 5491.84,5036.48 L 4982.22,5330.78 Z " />
<path stroke="transparent" fill="#000000" transform="matrix(0.0666667 0 0 0.0666667 -209.92 -232)" d="M 5501.84,5019.16 L 5491.84,5024.94 L 5481.84,5019.16 L 5481.84,4430.76 L 5491.84,4424.98 L 5501.84,4430.76 L 5501.84,5019.16 Z " />
<path stroke="transparent" fill="#000000" transform="matrix(0.0666667 0 0 0.0666667 -209.92 -232)" d="M 5491.84,5036.48 L 5491.84,5024.94 L 5501.84,5019.16 L 6011.45,5313.4 L 6011.45,5324.94 L 6001.45,5330.72 L 5491.84,5036.48 Z " />
<path stroke="transparent" fill="#000000" transform="matrix(0.0666667 0 0 0.0666667 -209.92 -232)" d="M 5558.83,4992.03 L 5568.84,4974.71 L 6016.45,5233.14 L 6006.45,5250.46 L 5558.83,4992.03 Z " />
<path stroke="transparent" fill="#000000" transform="matrix(0.0666667 0 0 0.0666667 -209.92 -232)" d="M 6021.45,5330.72 L 6011.45,5324.94 L 6011.45,5313.4 L 6521.06,5019.16 L 6541.06,5030.71 L 6021.45,5330.72 Z " />
<path stroke="transparent" fill="#000000" transform="matrix(0.0666667 0 0 0.0666667 -209.92 -232)" d="M 6541.06,5030.71 L 6521.06,5019.16 L 6521.06,4430.7 L 6531.06,4424.92 L 6541.06,4430.7 L 6541.06,5030.71 Z " />
<path stroke="transparent" fill="#000000" transform="matrix(0.0666667 0 0 0.0666667 -209.92 -232)" d="M 6469.06,4983.37 L 6449.06,4983.37 L 6449.06,4466.5 L 6469.06,4466.5 L 6469.06,4983.37 Z " />
<path stroke="transparent" fill="#000000" transform="matrix(0.0666667 0 0 0.0666667 -209.92 -232)" d="M 6946.06,4173.81 L 6956.06,4191.14 L 6541.06,4430.7 L 6531.06,4424.92 L 6531.06,4413.38 L 6946.06,4173.81 Z " />
<path stroke="transparent" fill="#000000" transform="matrix(0.0666667 0 0 0.0666667 -209.92 -232)" d="M 6531.06,4413.38 L 6531.06,4424.92 L 6521.06,4430.7 L 6011.45,4136.52 L 6011.45,4124.98 L 6021.45,4119.2 L 6531.06,4413.38 Z " />
<path stroke="transparent" fill="#000000" transform="matrix(0.0666667 0 0 0.0666667 -209.92 -232)" d="M 6001.45,3524.97 L 6021.45,3524.97 L 6021.45,4119.2 L 6011.45,4124.98 L 6001.45,4119.2 L 6001.45,3524.97 Z " />
<path stroke="transparent" fill="#000000" transform="matrix(0.0666667 0 0 0.0666667 -209.92 -232)" d="M 6001.45,4119.2 L 6011.45,4124.98 L 6011.45,4136.52 L 5501.84,4430.76 L 5491.84,4424.98 L 5491.84,4413.44 L 6001.45,4119.2 Z " />
<path stroke="transparent" fill="#000000" transform="matrix(0.0666667 0 0 0.0666667 -209.92 -232)" d="M 6006.45,4199.45 L 6016.45,4216.77 L 5568.84,4475.21 L 5558.83,4457.89 L 6006.45,4199.45 Z " />
<path stroke="transparent" fill="#000000" transform="matrix(0.0666667 0 0 0.0666667 -209.92 -232)" d="M 5491.84,4413.44 L 5491.84,4424.98 L 5481.84,4430.76 L 4972.22,4136.52 L 4972.22,4113.43 L 5491.84,4413.44 Z " />
<path stroke="transparent" fill="#000000" transform="matrix(0.0666667 0 0 0.0666667 -209.92 -232)" d="M 4972.22,4113.43 L 4972.22,4136.52 L 4457.61,4433.64 L 4447.61,4416.32 L 4972.22,4113.43 Z " />
<path stroke="transparent" fill="#000000" transform="matrix(0.0666667 0 0 0.0666667 -209.92 -232)" d="M 4967.22,4199.46 L 4977.22,4216.78 L 4493.61,4496 L 4483.61,4478.68 L 4967.22,4199.46 Z " />
</svg>
