<?xml version="1.0" standalone="no" ?>
<!DOCTYPE svg PUBLIC "-//W3C//DTD SVG 1.1//EN" "http://www.w3.org/Graphics/SVG/1.1/DTD/svg11.dtd">
<svg width="699px" height="438px" viewBox="0 0 699 438" style="background-color: #ffffff00" xmlns="http://www.w3.org/2000/svg" xmlns:xlink="http://www.w3.org/1999/xlink" version="1.1" >
<text x="0" y="0" stroke="transparent" fill="#000000" transform="matrix(0.0833333 0 0 0.0833333 531.745 27.0401)" style="font:normal normal normal 200px 'Arial'" >
O</text>
<text x="0" y="0" stroke="transparent" fill="#000000" transform="matrix(0.0833333 0 0 0.0833333 624.475 102.685)" style="font:normal normal normal 200px 'Arial'" >
O</text>
<text x="0" y="0" stroke="transparent" fill="#000000" transform="matrix(0.0833333 0 0 0.0833333 606.475 18.0019)" style="font:normal normal normal 200px 'Arial'" >
O</text>
<text x="0" y="0" stroke="transparent" fill="#000000" transform="matrix(0.0833333 0 0 0.0833333 575.163 258.984)" style="font:normal normal normal 200px 'Arial'" >
O</text>
<text x="0" y="0" stroke="transparent" fill="#000000" transform="matrix(0.0833333 0 0 0.0833333 188.535 383.944)" style="font:normal normal normal 200px 'Arial'" >
O</text>
<text x="0" y="0" stroke="transparent" fill="#000000" transform="matrix(0.0833333 0 0 0.0833333 145.248 308.968)" style="font:normal normal normal 200px 'Arial'" >
O</text>
<text x="0" y="0" stroke="transparent" fill="#000000" transform="matrix(0.0833333 0 0 0.0833333 3.34863 283.976)" style="font:normal normal normal 200px 'Arial'" >
HO</text>
<text x="0" y="0" stroke="transparent" fill="#000000" transform="matrix(0.0833333 0 0 0.0833333 3.34863 383.944)" style="font:normal normal normal 200px 'Arial'" >
HO</text>
<text x="0" y="0" stroke="transparent" fill="#000000" transform="matrix(0.0833333 0 0 0.0833333 101.96 433.929)" style="font:normal normal normal 200px 'Arial'" >
OH</text>
<text x="0" y="0" stroke="transparent" fill="#000000" transform="matrix(0.0833333 0 0 0.0833333 511.245 346.96)" style="font:normal normal normal 200px 'Arial'" >
OH</text>
<path stroke="transparent" fill="#000000" transform="matrix(0.0833333 0 0 0.0833333 -677.583 -249)" d="M 14315.2,4915.38 L 14300.5,4928.65 L 14285.8,4915.13 L 14303.3,4899.41 L 14315.2,4915.38 Z " />
<path stroke="transparent" fill="#000000" transform="matrix(0.0833333 0 0 0.0833333 -677.583 -249)" d="M 14280.1,4868.35 L 14257.4,4888.81 L 14242.8,4875.28 L 14268.2,4852.39 L 14280.1,4868.35 Z " />
<path stroke="transparent" fill="#000000" transform="matrix(0.0833333 0 0 0.0833333 -677.583 -249)" d="M 14245,4821.33 L 14214.3,4848.96 L 14199.7,4835.43 L 14233.1,4805.36 L 14245,4821.33 Z " />
<path stroke="transparent" fill="#000000" transform="matrix(0.0833333 0 0 0.0833333 -677.583 -249)" d="M 14209.8,4774.31 L 14171.2,4809.11 L 14156.6,4795.58 L 14197.9,4758.34 L 14209.8,4774.31 Z " />
<path stroke="transparent" fill="#000000" transform="matrix(0.0833333 0 0 0.0833333 -677.583 -249)" d="M 14174.7,4727.28 L 14128.1,4769.26 L 14113.5,4755.73 L 14162.8,4711.32 L 14174.7,4727.28 Z " />
<path stroke="transparent" fill="#000000" transform="matrix(0.0833333 0 0 0.0833333 -677.583 -249)" d="M 14139.6,4680.26 L 14085,4729.41 L 14070.4,4715.89 L 14127.7,4664.29 L 14139.6,4680.26 Z " />
<path stroke="transparent" fill="#000000" transform="matrix(0.0833333 0 0 0.0833333 -677.583 -249)" d="M 14104.5,4633.23 L 14041.9,4689.57 L 14027.3,4676.04 L 14092.6,4617.27 L 14104.5,4633.23 Z " />
<path stroke="transparent" fill="#000000" transform="matrix(0.0833333 0 0 0.0833333 -677.583 -249)" d="M 14069.4,4586.21 L 13998.8,4649.72 L 13984.2,4636.19 L 14057.4,4570.25 L 14069.4,4586.21 Z " />
<path stroke="transparent" fill="#000000" transform="matrix(0.0833333 0 0 0.0833333 -677.583 -249)" d="M 14034.2,4539.19 L 13955.7,4609.87 L 13941.1,4596.34 L 14022.3,4523.22 L 14034.2,4539.19 Z " />
<path stroke="transparent" fill="#000000" transform="matrix(0.0833333 0 0 0.0833333 -677.583 -249)" d="M 13999.1,4492.16 L 13912.6,4570.02 L 13898,4556.49 L 13987.2,4476.2 L 13999.1,4492.16 Z " />
<path stroke="transparent" fill="#000000" transform="matrix(0.0833333 0 0 0.0833333 -677.583 -249)" d="M 14923,4828.87 L 14938.3,4845.9 L 14351.6,4970.61 L 14336.3,4953.58 L 14923,4828.87 Z " />
<path stroke="transparent" fill="#000000" transform="matrix(0.0833333 0 0 0.0833333 -677.583 -249)" d="M 15104.8,4269.31 L 15127.2,4264.55 L 14938.3,4845.9 L 14923,4828.87 L 15104.8,4269.31 Z " />
<path stroke="transparent" fill="#000000" transform="matrix(0.0833333 0 0 0.0833333 -677.583 -249)" d="M 14709,3829.8 L 14714.6,3821.19 L 14724.1,3816.87 L 15127.2,4264.55 L 15104.8,4269.31 L 14709,3829.8 Z " />
<path stroke="transparent" fill="#000000" transform="matrix(0.0833333 0 0 0.0833333 -677.583 -249)" d="M 14146.6,3647.04 L 14144.2,3635.83 L 14163.6,3631.71 L 14699.3,3805.75 L 14714.6,3821.19 L 14709,3829.8 L 14146.6,3647.04 Z " />
<path stroke="transparent" fill="#000000" transform="matrix(0.0833333 0 0 0.0833333 -677.583 -249)" d="M 14495.5,3306.19 L 14508.7,3320.94 L 14163.6,3631.71 L 14144.2,3635.83 L 14141.8,3624.63 L 14495.5,3306.19 Z " />
<path stroke="transparent" fill="#000000" transform="matrix(0.0833333 0 0 0.0833333 -677.583 -249)" d="M 14556.7,3366.57 L 14674,3341.63 L 14724.1,3816.87 L 14714.6,3821.19 L 14699.3,3805.75 L 14556.7,3366.57 Z " />
<path stroke="transparent" fill="#000000" transform="matrix(0.0833333 0 0 0.0833333 -677.583 -249)" d="M 13705.1,4044.56 L 13691.8,4029.81 L 14124.8,3639.96 L 14144.2,3635.83 L 14146.6,3647.04 L 13705.1,4044.56 Z " />
<path stroke="transparent" fill="#000000" transform="matrix(0.0833333 0 0 0.0833333 -677.583 -249)" d="M 13570.7,3459.92 L 13576.8,3441.05 L 14141.8,3624.63 L 14144.2,3635.83 L 14124.8,3639.96 L 13570.7,3459.92 Z " />
<path stroke="transparent" fill="#000000" transform="matrix(0.0833333 0 0 0.0833333 -677.583 -249)" d="M 15581.8,4106.57 L 15606.8,4223.95 L 15586.9,4225.84 L 15562.9,4112.93 L 15581.8,4106.57 Z " />
<path stroke="transparent" fill="#000000" transform="matrix(0.0833333 0 0 0.0833333 -677.583 -249)" d="M 15525.2,4125.59 L 15547.3,4229.61 L 15527.5,4231.5 L 15506.3,4131.95 L 15525.2,4125.59 Z " />
<path stroke="transparent" fill="#000000" transform="matrix(0.0833333 0 0 0.0833333 -677.583 -249)" d="M 15468.6,4144.6 L 15487.9,4235.26 L 15468,4237.16 L 15449.7,4150.96 L 15468.6,4144.6 Z " />
<path stroke="transparent" fill="#000000" transform="matrix(0.0833333 0 0 0.0833333 -677.583 -249)" d="M 15412,4163.61 L 15428.4,4240.92 L 15408.5,4242.81 L 15393.1,4169.97 L 15412,4163.61 Z " />
<path stroke="transparent" fill="#000000" transform="matrix(0.0833333 0 0 0.0833333 -677.583 -249)" d="M 15355.4,4182.63 L 15369,4246.58 L 15349.1,4248.47 L 15336.5,4188.99 L 15355.4,4182.63 Z " />
<path stroke="transparent" fill="#000000" transform="matrix(0.0833333 0 0 0.0833333 -677.583 -249)" d="M 15298.8,4201.64 L 15309.5,4252.23 L 15289.6,4254.12 L 15279.8,4208 L 15298.8,4201.64 Z " />
<path stroke="transparent" fill="#000000" transform="matrix(0.0833333 0 0 0.0833333 -677.583 -249)" d="M 15242.2,4220.66 L 15250.1,4257.89 L 15230.2,4259.78 L 15223.2,4227.02 L 15242.2,4220.66 Z " />
<path stroke="transparent" fill="#000000" transform="matrix(0.0833333 0 0 0.0833333 -677.583 -249)" d="M 15185.5,4239.67 L 15190.6,4263.55 L 15170.7,4265.44 L 15166.6,4246.03 L 15185.5,4239.67 Z " />
<path stroke="transparent" fill="#000000" transform="matrix(0.0833333 0 0 0.0833333 -677.583 -249)" d="M 15880.4,3563.26 L 15895.7,3580.28 L 15745,4044.29 L 15726.1,4038.16 L 15880.4,3563.26 Z " />
<path stroke="transparent" fill="#000000" transform="matrix(0.0833333 0 0 0.0833333 -677.583 -249)" d="M 15532.7,3245.78 L 15547.5,3232.5 L 15882.6,3604.65 L 15867.8,3617.93 L 15532.7,3245.78 Z " />
<path stroke="transparent" fill="#000000" transform="matrix(0.0833333 0 0 0.0833333 -677.583 -249)" d="M 15586.2,3197.62 L 15601,3184.34 L 15936.1,3556.49 L 15921.3,3569.77 L 15586.2,3197.62 Z " />
<path stroke="transparent" fill="#000000" transform="matrix(0.0833333 0 0 0.0833333 -677.583 -249)" d="M 16472.7,3437.36 L 16476.8,3456.77 L 15895.7,3580.28 L 15880.4,3563.26 L 16472.7,3437.36 Z " />
<path stroke="transparent" fill="#000000" transform="matrix(0.0833333 0 0 0.0833333 -677.583 -249)" d="M 14169.7,5530.34 L 14158.6,5532.55 L 14150.7,5524.67 L 14336.3,4953.58 L 14351.6,4970.61 L 14169.7,5530.34 Z " />
<path stroke="transparent" fill="#000000" transform="matrix(0.0833333 0 0 0.0833333 -677.583 -249)" d="M 14553.9,5975.83 L 14467.5,6061.07 L 14154.2,5544.4 L 14158.6,5532.55 L 14169.7,5530.34 L 14553.9,5975.83 Z " />
<path stroke="transparent" fill="#000000" transform="matrix(0.0833333 0 0 0.0833333 -677.583 -249)" d="M 15002.7,5971.9 L 15002.7,5991.74 L 14485,5991.74 L 14485,5971.9 L 15002.7,5971.9 Z " />
<path stroke="transparent" fill="#000000" transform="matrix(0.0833333 0 0 0.0833333 -677.583 -249)" d="M 15002.7,6043.87 L 15002.7,6063.71 L 14485,6063.71 L 14485,6043.87 L 15002.7,6043.87 Z " />
<path stroke="transparent" fill="#000000" transform="matrix(0.0833333 0 0 0.0833333 -677.583 -249)" d="M 14162.4,6514.73 L 14154.8,6491.4 L 14467.5,6061.07 L 14553.9,5975.83 L 14162.4,6514.73 Z " />
<path stroke="transparent" fill="#000000" transform="matrix(0.0833333 0 0 0.0833333 -677.583 -249)" d="M 13589.3,6328.51 L 13588.1,6317.71 L 13598.1,6310.5 L 14154.8,6491.4 L 14162.4,6514.73 L 13589.3,6328.51 Z " />
<path stroke="transparent" fill="#000000" transform="matrix(0.0833333 0 0 0.0833333 -677.583 -249)" d="M 13578.2,5723.63 L 13588.1,5717.9 L 13598.1,5725.11 L 13598.1,6310.5 L 13588.1,6317.71 L 13578.2,6311.98 L 13578.2,5723.63 Z " />
<path stroke="transparent" fill="#000000" transform="matrix(0.0833333 0 0 0.0833333 -677.583 -249)" d="M 13598.1,5725.11 L 13588.1,5717.9 L 13601,5703.29 L 14150.7,5524.67 L 14158.6,5532.55 L 14154.2,5544.4 L 13598.1,5725.11 Z " />
<path stroke="transparent" fill="#000000" transform="matrix(0.0833333 0 0 0.0833333 -677.583 -249)" d="M 13068.7,5429.45 L 13068.7,5406.54 L 13578.6,5700.94 L 13588.1,5717.9 L 13578.2,5723.63 L 13068.7,5429.45 Z " />
<path stroke="transparent" fill="#000000" transform="matrix(0.0833333 0 0 0.0833333 -677.583 -249)" d="M 12559.2,5723.63 L 12539.3,5712.17 L 13068.7,5406.54 L 13068.7,5429.45 L 12559.2,5723.63 Z " />
<path stroke="transparent" fill="#000000" transform="matrix(0.0833333 0 0 0.0833333 -677.583 -249)" d="M 12559.2,6311.98 L 12549.2,6317.71 L 12539.3,6298.79 L 12539.3,5712.17 L 12559.2,5723.63 L 12559.2,6311.98 Z " />
<path stroke="transparent" fill="#000000" transform="matrix(0.0833333 0 0 0.0833333 -677.583 -249)" d="M 13068.7,6606.16 L 13068.7,6629.07 L 12549.2,6329.17 L 12549.2,6317.71 L 12559.2,6311.98 L 13068.7,6606.16 Z " />
<path stroke="transparent" fill="#000000" transform="matrix(0.0833333 0 0 0.0833333 -677.583 -249)" d="M 13068.7,6629.07 L 13068.7,6606.16 L 13578.2,6311.98 L 13588.1,6317.71 L 13589.3,6328.51 L 13068.7,6629.07 Z " />
<path stroke="transparent" fill="#000000" transform="matrix(0.0833333 0 0 0.0833333 -677.583 -249)" d="M 13128.7,7163.5 L 13008.7,7163.5 L 13010.7,7143.65 L 13126.7,7143.65 L 13128.7,7163.5 Z " />
<path stroke="transparent" fill="#000000" transform="matrix(0.0833333 0 0 0.0833333 -677.583 -249)" d="M 13122.7,7104.48 L 13014.7,7104.48 L 13016.7,7084.64 L 13120.7,7084.64 L 13122.7,7104.48 Z " />
<path stroke="transparent" fill="#000000" transform="matrix(0.0833333 0 0 0.0833333 -677.583 -249)" d="M 13116.7,7045.47 L 13020.7,7045.47 L 13022.7,7025.63 L 13114.6,7025.63 L 13116.7,7045.47 Z " />
<path stroke="transparent" fill="#000000" transform="matrix(0.0833333 0 0 0.0833333 -677.583 -249)" d="M 13110.7,6986.46 L 13026.7,6986.46 L 13028.7,6966.61 L 13108.6,6966.61 L 13110.7,6986.46 Z " />
<path stroke="transparent" fill="#000000" transform="matrix(0.0833333 0 0 0.0833333 -677.583 -249)" d="M 13104.7,6927.44 L 13032.7,6927.44 L 13034.7,6907.6 L 13102.6,6907.6 L 13104.7,6927.44 Z " />
<path stroke="transparent" fill="#000000" transform="matrix(0.0833333 0 0 0.0833333 -677.583 -249)" d="M 13098.6,6868.43 L 13038.7,6868.43 L 13040.7,6848.59 L 13096.6,6848.59 L 13098.6,6868.43 Z " />
<path stroke="transparent" fill="#000000" transform="matrix(0.0833333 0 0 0.0833333 -677.583 -249)" d="M 13092.6,6809.42 L 13044.7,6809.42 L 13046.7,6789.57 L 13090.6,6789.57 L 13092.6,6809.42 Z " />
<path stroke="transparent" fill="#000000" transform="matrix(0.0833333 0 0 0.0833333 -677.583 -249)" d="M 13086.6,6750.4 L 13050.7,6750.4 L 13052.8,6730.56 L 13084.6,6730.56 L 13086.6,6750.4 Z " />
<path stroke="transparent" fill="#000000" transform="matrix(0.0833333 0 0 0.0833333 -677.583 -249)" d="M 13080.6,6691.39 L 13056.7,6691.39 L 13058.8,6671.55 L 13078.6,6671.55 L 13080.6,6691.39 Z " />
<path stroke="transparent" fill="#000000" transform="matrix(0.0833333 0 0 0.0833333 -677.583 -249)" d="M 12501,7556.64 L 12601.3,7475.79 L 13063.7,7208.83 L 13073.6,7226.02 L 12501,7556.64 Z " />
<path stroke="transparent" fill="#000000" transform="matrix(0.0833333 0 0 0.0833333 -677.583 -249)" d="M 12029.3,7229.15 L 12029.8,7217.43 L 12039.7,7211.17 L 12601.3,7475.79 L 12501,7556.64 L 12029.3,7229.15 Z " />
<path stroke="transparent" fill="#000000" transform="matrix(0.0833333 0 0 0.0833333 -677.583 -249)" d="M 12019.9,6623.34 L 12029.8,6617.62 L 12039.7,6623.34 L 12039.7,7211.17 L 12029.8,7217.43 L 12019.9,7211.7 L 12019.9,6623.34 Z " />
<path stroke="transparent" fill="#000000" transform="matrix(0.0833333 0 0 0.0833333 -677.583 -249)" d="M 12039.7,6623.34 L 12029.8,6617.62 L 12041.2,6599.56 L 12527.9,6318.58 L 12549.2,6317.71 L 12549.2,6329.17 L 12039.7,6623.34 Z " />
<path stroke="transparent" fill="#000000" transform="matrix(0.0833333 0 0 0.0833333 -677.583 -249)" d="M 11959.6,5896.31 L 12082.2,6108.6 L 12041.2,6599.56 L 12029.8,6617.62 L 12018.3,6599.56 L 11959.6,5896.31 Z " />
<path stroke="transparent" fill="#000000" transform="matrix(0.0833333 0 0 0.0833333 -677.583 -249)" d="M 12082.2,6108.6 L 11959.6,5896.31 L 12539.3,6298.79 L 12549.2,6317.71 L 12527.9,6318.58 L 12082.2,6108.6 Z " />
<path stroke="transparent" fill="#000000" transform="matrix(0.0833333 0 0 0.0833333 -677.583 -249)" d="M 11510.3,6329.17 L 11510.3,6306.25 L 12018.3,6599.56 L 12029.8,6617.62 L 12019.9,6623.34 L 11510.3,6329.17 Z " />
<path stroke="transparent" fill="#000000" transform="matrix(0.0833333 0 0 0.0833333 -677.583 -249)" d="M 11000.8,6623.34 L 10981,6611.89 L 11510.3,6306.25 L 11510.3,6329.17 L 11000.8,6623.34 Z " />
<path stroke="transparent" fill="#000000" transform="matrix(0.0833333 0 0 0.0833333 -677.583 -249)" d="M 11000.8,7211.7 L 10990.9,7217.43 L 10981,7211.06 L 10981,6611.89 L 11000.8,6623.34 L 11000.8,7211.7 Z " />
<path stroke="transparent" fill="#000000" transform="matrix(0.0833333 0 0 0.0833333 -677.583 -249)" d="M 11510.3,7505.88 L 11510.3,7517.33 L 11496.8,7520.96 L 10991.4,7229.2 L 10990.9,7217.43 L 11000.8,7211.7 L 11510.3,7505.88 Z " />
<path stroke="transparent" fill="#000000" transform="matrix(0.0833333 0 0 0.0833333 -677.583 -249)" d="M 11523.9,7520.96 L 11510.3,7517.33 L 11510.3,7505.88 L 12019.9,7211.7 L 12029.8,7217.43 L 12029.3,7229.15 L 11523.9,7520.96 Z " />
<path stroke="transparent" fill="#000000" transform="matrix(0.0833333 0 0 0.0833333 -677.583 -249)" d="M 11818.8,8031.82 L 11801.6,8041.74 L 11510.3,7537.18 L 11510.3,7517.33 L 11523.9,7520.96 L 11818.8,8031.82 Z " />
<path stroke="transparent" fill="#000000" transform="matrix(0.0833333 0 0 0.0833333 -677.583 -249)" d="M 11219,8041.74 L 11201.8,8031.82 L 11496.8,7520.96 L 11510.3,7517.33 L 11510.3,7537.18 L 11219,8041.74 Z " />
<path stroke="transparent" fill="#000000" transform="matrix(0.0833333 0 0 0.0833333 -677.583 -249)" d="M 10594.3,7515.69 L 10534.3,7411.77 L 10981,7211.06 L 10990.9,7217.43 L 10991.4,7229.2 L 10594.3,7515.69 Z " />
<path stroke="transparent" fill="#000000" transform="matrix(0.0833333 0 0 0.0833333 -677.583 -249)" d="M 9951.42,7229.2 L 9951.97,7217.43 L 9961.89,7211.06 L 10408.6,7411.77 L 10348.6,7515.69 L 9951.42,7229.2 Z " />
<path stroke="transparent" fill="#000000" transform="matrix(0.0833333 0 0 0.0833333 -677.583 -249)" d="M 9432.52,7528.79 L 9432.52,7505.88 L 9942.05,7211.7 L 9951.97,7217.43 L 9951.42,7229.2 L 9432.52,7528.79 Z " />
<path stroke="transparent" fill="#000000" transform="matrix(0.0833333 0 0 0.0833333 -677.583 -249)" d="M 8913.62,7229.2 L 8913.07,7217.43 L 8922.99,7211.7 L 9432.52,7505.88 L 9432.52,7528.79 L 8913.62,7229.2 Z " />
<path stroke="transparent" fill="#000000" transform="matrix(0.0833333 0 0 0.0833333 -677.583 -249)" d="M 8903.15,6623.99 L 8913.07,6617.62 L 8922.99,6623.34 L 8922.99,7211.7 L 8913.07,7217.43 L 8903.15,7211.06 L 8903.15,6623.99 Z " />
<path stroke="transparent" fill="#000000" transform="matrix(0.0833333 0 0 0.0833333 -677.583 -249)" d="M 9432.52,6306.25 L 9432.52,6329.17 L 8922.99,6623.34 L 8913.07,6617.62 L 8913.63,6605.84 L 9432.52,6306.25 Z " />
<path stroke="transparent" fill="#000000" transform="matrix(0.0833333 0 0 0.0833333 -677.583 -249)" d="M 9864.1,6555.42 L 9854.17,6572.61 L 9432.52,6329.17 L 9432.52,6306.25 L 9864.1,6555.42 Z " />
<path stroke="transparent" fill="#000000" transform="matrix(0.0833333 0 0 0.0833333 -677.583 -249)" d="M 9942.05,6737.7 L 9961.89,6737.7 L 9961.89,7211.06 L 9951.97,7217.43 L 9942.05,7211.7 L 9942.05,6737.7 Z " />
<path stroke="transparent" fill="#000000" transform="matrix(0.0833333 0 0 0.0833333 -677.583 -249)" d="M 8463.86,6427.55 L 8523.86,6323.63 L 8913.63,6605.84 L 8913.07,6617.62 L 8903.15,6623.99 L 8463.86,6427.55 Z " />
<path stroke="transparent" fill="#000000" transform="matrix(0.0833333 0 0 0.0833333 -677.583 -249)" d="M 8516.45,7515.7 L 8456.45,7411.78 L 8903.15,7211.06 L 8913.07,7217.43 L 8913.62,7229.2 L 8516.45,7515.7 Z " />
<path stroke="transparent" fill="#000000" transform="matrix(0.0833333 0 0 0.0833333 -677.583 -249)" d="M 9492.52,8011.72 L 9372.52,8011.72 L 9374.78,7991.88 L 9490.26,7991.88 L 9492.52,8011.72 Z " />
<path stroke="transparent" fill="#000000" transform="matrix(0.0833333 0 0 0.0833333 -677.583 -249)" d="M 9485.69,7951.63 L 9379.35,7951.63 L 9381.61,7931.79 L 9483.43,7931.79 L 9485.69,7951.63 Z " />
<path stroke="transparent" fill="#000000" transform="matrix(0.0833333 0 0 0.0833333 -677.583 -249)" d="M 9478.86,7891.54 L 9386.18,7891.54 L 9388.44,7871.7 L 9476.6,7871.7 L 9478.86,7891.54 Z " />
<path stroke="transparent" fill="#000000" transform="matrix(0.0833333 0 0 0.0833333 -677.583 -249)" d="M 9472.02,7831.45 L 9393.02,7831.45 L 9395.27,7811.6 L 9469.77,7811.6 L 9472.02,7831.45 Z " />
<path stroke="transparent" fill="#000000" transform="matrix(0.0833333 0 0 0.0833333 -677.583 -249)" d="M 9465.19,7771.35 L 9399.85,7771.35 L 9402.1,7751.51 L 9462.94,7751.51 L 9465.19,7771.35 Z " />
<path stroke="transparent" fill="#000000" transform="matrix(0.0833333 0 0 0.0833333 -677.583 -249)" d="M 9458.36,7711.26 L 9406.68,7711.26 L 9408.94,7691.42 L 9456.11,7691.42 L 9458.36,7711.26 Z " />
<path stroke="transparent" fill="#000000" transform="matrix(0.0833333 0 0 0.0833333 -677.583 -249)" d="M 9451.53,7651.17 L 9413.51,7651.17 L 9415.77,7631.33 L 9449.27,7631.33 L 9451.53,7651.17 Z " />
<path stroke="transparent" fill="#000000" transform="matrix(0.0833333 0 0 0.0833333 -677.583 -249)" d="M 9444.7,7591.08 L 9420.34,7591.08 L 9422.6,7571.23 L 9442.44,7571.23 L 9444.7,7591.08 Z " />
<path stroke="transparent" fill="#000000" transform="matrix(0.0833333 0 0 0.0833333 -677.583 -249)" d="M 13591.2,5115.1 L 13710.5,5127.65 L 13601,5703.29 L 13588.1,5717.9 L 13578.6,5700.94 L 13591.2,5115.1 Z " />
<path stroke="transparent" fill="#000000" transform="matrix(0.0833333 0 0 0.0833333 -677.583 -249)" d="M 13710.5,6907.96 L 13591.2,6920.51 L 13590.9,6900.58 L 13706.6,6888.42 L 13710.5,6907.96 Z " />
<path stroke="transparent" fill="#000000" transform="matrix(0.0833333 0 0 0.0833333 -677.583 -249)" d="M 13699.1,6850.4 L 13590.4,6861.82 L 13590.1,6841.89 L 13695.2,6830.85 L 13699.1,6850.4 Z " />
<path stroke="transparent" fill="#000000" transform="matrix(0.0833333 0 0 0.0833333 -677.583 -249)" d="M 13687.6,6792.83 L 13589.6,6803.13 L 13589.3,6783.21 L 13683.7,6773.28 L 13687.6,6792.83 Z " />
<path stroke="transparent" fill="#000000" transform="matrix(0.0833333 0 0 0.0833333 -677.583 -249)" d="M 13676.2,6735.26 L 13588.8,6744.44 L 13588.6,6724.52 L 13672.3,6715.72 L 13676.2,6735.26 Z " />
<path stroke="transparent" fill="#000000" transform="matrix(0.0833333 0 0 0.0833333 -677.583 -249)" d="M 13664.7,6677.69 L 13588.1,6685.75 L 13587.8,6665.83 L 13660.8,6658.15 L 13664.7,6677.69 Z " />
<path stroke="transparent" fill="#000000" transform="matrix(0.0833333 0 0 0.0833333 -677.583 -249)" d="M 13653.3,6620.12 L 13587.3,6627.06 L 13587,6607.14 L 13649.4,6600.58 L 13653.3,6620.12 Z " />
<path stroke="transparent" fill="#000000" transform="matrix(0.0833333 0 0 0.0833333 -677.583 -249)" d="M 13641.8,6562.56 L 13586.5,6568.37 L 13586.2,6548.45 L 13638,6543.01 L 13641.8,6562.56 Z " />
<path stroke="transparent" fill="#000000" transform="matrix(0.0833333 0 0 0.0833333 -677.583 -249)" d="M 13630.4,6504.99 L 13585.7,6509.69 L 13585.5,6489.76 L 13626.5,6485.44 L 13630.4,6504.99 Z " />
<path stroke="transparent" fill="#000000" transform="matrix(0.0833333 0 0 0.0833333 -677.583 -249)" d="M 13619,6447.42 L 13584.9,6451 L 13584.7,6431.07 L 13615.1,6427.88 L 13619,6447.42 Z " />
<path stroke="transparent" fill="#000000" transform="matrix(0.0833333 0 0 0.0833333 -677.583 -249)" d="M 13607.5,6389.85 L 13584.2,6392.31 L 13583.9,6372.38 L 13603.6,6370.31 L 13607.5,6389.85 Z " />
<path stroke="transparent" fill="#000000" transform="matrix(0.0833333 0 0 0.0833333 -677.583 -249)" d="M 14368.2,6953.97 L 14254.1,6991.06 L 14250.1,6971.49 L 14359.9,6935.8 L 14368.2,6953.97 Z " />
<path stroke="transparent" fill="#000000" transform="matrix(0.0833333 0 0 0.0833333 -677.583 -249)" d="M 14343.2,6899.04 L 14242,6931.9 L 14238,6912.33 L 14334.9,6880.87 L 14343.2,6899.04 Z " />
<path stroke="transparent" fill="#000000" transform="matrix(0.0833333 0 0 0.0833333 -677.583 -249)" d="M 14318.1,6844.11 L 14230,6872.75 L 14226,6853.18 L 14309.8,6825.94 L 14318.1,6844.11 Z " />
<path stroke="transparent" fill="#000000" transform="matrix(0.0833333 0 0 0.0833333 -677.583 -249)" d="M 14293.1,6789.18 L 14217.9,6813.6 L 14214,6794.03 L 14284.8,6771.01 L 14293.1,6789.18 Z " />
<path stroke="transparent" fill="#000000" transform="matrix(0.0833333 0 0 0.0833333 -677.583 -249)" d="M 14268.1,6734.25 L 14205.9,6754.44 L 14201.9,6734.87 L 14259.8,6716.08 L 14268.1,6734.25 Z " />
<path stroke="transparent" fill="#000000" transform="matrix(0.0833333 0 0 0.0833333 -677.583 -249)" d="M 14243,6679.32 L 14193.9,6695.29 L 14189.9,6675.72 L 14234.7,6661.15 L 14243,6679.32 Z " />
<path stroke="transparent" fill="#000000" transform="matrix(0.0833333 0 0 0.0833333 -677.583 -249)" d="M 14218,6624.39 L 14181.8,6636.14 L 14177.9,6616.57 L 14209.7,6606.21 L 14218,6624.39 Z " />
<path stroke="transparent" fill="#000000" transform="matrix(0.0833333 0 0 0.0833333 -677.583 -249)" d="M 14193,6569.46 L 14169.8,6576.98 L 14165.8,6557.41 L 14184.7,6551.28 L 14193,6569.46 Z " />
</svg>
