<?xml version="1.0" standalone="no" ?>
<!DOCTYPE svg PUBLIC "-//W3C//DTD SVG 1.1//EN" "http://www.w3.org/Graphics/SVG/1.1/DTD/svg11.dtd">
<svg width="651px" height="764px" viewBox="0 0 651 764" style="background-color: #ffffff00" xmlns="http://www.w3.org/2000/svg" xmlns:xlink="http://www.w3.org/1999/xlink" version="1.1" >
<text x="0" y="0" stroke="transparent" fill="#000000" transform="matrix(0.0833333 0 0 0.0833333 3.55613 210.262)" style="font:normal normal normal 200px 'Arial'" >
HO</text>
<text x="0" y="0" stroke="transparent" fill="#000000" transform="matrix(0.0833333 0 0 0.0833333 3.55055 310.264)" style="font:normal normal normal 200px 'Arial'" >
HO</text>
<text x="0" y="0" stroke="transparent" fill="#000000" transform="matrix(0.0833333 0 0 0.0833333 46.8583 385.266)" style="font:normal normal normal 200px 'Arial'" >
HO</text>
<text x="0" y="0" stroke="transparent" fill="#000000" transform="matrix(0.0833333 0 0 0.0833333 448.61 160.263)" style="font:normal normal normal 200px 'Arial'" >
O</text>
<text x="0" y="0" stroke="transparent" fill="#000000" transform="matrix(0.0833333 0 0 0.0833333 405.307 235.264)" style="font:normal normal normal 200px 'Arial'" >
O</text>
<text x="0" y="0" stroke="transparent" fill="#000000" transform="matrix(0.0833333 0 0 0.0833333 448.608 310.263)" style="font:normal normal normal 200px 'Arial'" >
O</text>
<text x="0" y="0" stroke="transparent" fill="#000000" transform="matrix(0.0833333 0 0 0.0833333 448.607 410.263)" style="font:normal normal normal 200px 'Arial'" >
O</text>
<text x="0" y="0" stroke="transparent" fill="#000000" transform="matrix(0.0833333 0 0 0.0833333 405.307 485.268)" style="font:normal normal normal 200px 'Arial'" >
O</text>
<text x="0" y="0" stroke="transparent" fill="#000000" transform="matrix(0.0833333 0 0 0.0833333 362.003 610.269)" style="font:normal normal normal 200px 'Arial'" >
OH</text>
<text x="0" y="0" stroke="transparent" fill="#000000" transform="matrix(0.0833333 0 0 0.0833333 448.607 610.267)" style="font:normal normal normal 200px 'Arial'" >
O</text>
<text x="0" y="0" stroke="transparent" fill="#000000" transform="matrix(0.0833333 0 0 0.0833333 535.213 610.271)" style="font:normal normal normal 200px 'Arial'" >
O</text>
<text x="0" y="0" stroke="transparent" fill="#000000" transform="matrix(0.0833333 0 0 0.0833333 621.816 710.27)" style="font:normal normal normal 200px 'Arial'" >
OH</text>
<text x="0" y="0" stroke="transparent" fill="#000000" transform="matrix(0.0833333 0 0 0.0833333 535.211 760.271)" style="font:normal normal normal 200px 'Arial'" >
OH</text>
<text x="0" y="0" stroke="transparent" fill="#000000" transform="matrix(0.0833333 0 0 0.0833333 436.572 710.272)" style="font:normal normal normal 200px 'Arial'" >
HO</text>
<text x="0" y="0" stroke="transparent" fill="#000000" transform="matrix(0.0833333 0 0 0.0833333 535.211 560.266)" style="font:normal normal normal 200px 'Arial'" >
OH</text>
<text x="0" y="0" stroke="transparent" fill="#000000" transform="matrix(0.0833333 0 0 0.0833333 535.213 460.266)" style="font:normal normal normal 200px 'Arial'" >
OH</text>
<text x="0" y="0" stroke="transparent" fill="#000000" transform="matrix(0.0833333 0 0 0.0833333 578.509 335.264)" style="font:normal normal normal 200px 'Arial'" >
OH</text>
<text x="0" y="0" stroke="transparent" fill="#000000" transform="matrix(0.0833333 0 0 0.0833333 578.51 235.264)" style="font:normal normal normal 200px 'Arial'" >
OH</text>
<text x="0" y="0" stroke="transparent" fill="#000000" transform="matrix(0.0833333 0 0 0.0833333 491.912 185.263)" style="font:normal normal normal 200px 'Arial'" >
OH</text>
<path stroke="transparent" fill="#000000" transform="matrix(0.0833333 0 0 0.0833333 -107.25 -63)" d="M 4639.82,1453.09 L 4699.81,1349.17 L 5189.89,1689.31 L 5189.43,1701.13 L 5179.43,1707.43 L 4639.82,1453.09 Z " />
<path stroke="transparent" fill="#000000" transform="matrix(0.0833333 0 0 0.0833333 -107.25 -63)" d="M 5179.43,1707.43 L 5189.43,1701.13 L 5199.43,1706.9 L 5199.43,2295.35 L 5189.43,2301.13 L 5179.43,2281.55 L 5179.43,1707.43 Z " />
<path stroke="transparent" fill="#000000" transform="matrix(0.0833333 0 0 0.0833333 -107.25 -63)" d="M 4679.8,2606.91 L 4669.8,2601.13 L 4669.8,2589.59 L 5167.48,2302.25 L 5189.43,2301.13 L 5189.43,2312.67 L 4679.8,2606.91 Z " />
<path stroke="transparent" fill="#000000" transform="matrix(0.0833333 0 0 0.0833333 -107.25 -63)" d="M 4150.18,2312.69 L 4150.18,2289.59 L 4669.8,2589.59 L 4669.8,2601.13 L 4659.8,2606.91 L 4150.18,2312.69 Z " />
<path stroke="transparent" fill="#000000" transform="matrix(0.0833333 0 0 0.0833333 -107.25 -63)" d="M 4145.18,2392.94 L 4155.18,2375.62 L 4602.8,2634.04 L 4592.8,2651.36 L 4145.18,2392.94 Z " />
<path stroke="transparent" fill="#000000" transform="matrix(0.0833333 0 0 0.0833333 -107.25 -63)" d="M 3640.55,2606.92 L 3620.55,2595.37 L 4150.18,2289.59 L 4150.18,2312.69 L 3640.55,2606.92 Z " />
<path stroke="transparent" fill="#000000" transform="matrix(0.0833333 0 0 0.0833333 -107.25 -63)" d="M 3620.55,2595.37 L 3640.55,2606.92 L 3640.55,3195.37 L 3630.55,3201.15 L 3620.55,3195.37 L 3620.55,2595.37 Z " />
<path stroke="transparent" fill="#000000" transform="matrix(0.0833333 0 0 0.0833333 -107.25 -63)" d="M 3620.55,3195.37 L 3630.55,3201.15 L 3630.55,3212.69 L 3120.92,3506.93 L 3110.92,3501.15 L 3122.44,3482.96 L 3620.55,3195.37 Z " />
<path stroke="transparent" fill="#000000" transform="matrix(0.0833333 0 0 0.0833333 -107.25 -63)" d="M 3050.93,2901.15 L 3170.93,2901.15 L 3122.44,3482.96 L 3110.92,3501.15 L 3099.4,3482.96 L 3050.93,2901.15 Z " />
<path stroke="transparent" fill="#000000" transform="matrix(0.0833333 0 0 0.0833333 -107.25 -63)" d="M 2591.3,3212.71 L 2591.3,3189.61 L 3099.4,3482.96 L 3110.92,3501.15 L 3100.92,3506.93 L 2591.3,3212.71 Z " />
<path stroke="transparent" fill="#000000" transform="matrix(0.0833333 0 0 0.0833333 -107.25 -63)" d="M 2591.3,3189.61 L 2591.3,3212.71 L 2081.67,3506.94 L 2061.67,3495.39 L 2591.3,3189.61 Z " />
<path stroke="transparent" fill="#000000" transform="matrix(0.0833333 0 0 0.0833333 -107.25 -63)" d="M 1622.13,3310.86 L 1682.14,3206.94 L 1698.29,3218.96 L 1640.61,3318.85 L 1622.13,3310.86 Z " />
<path stroke="transparent" fill="#000000" transform="matrix(0.0833333 0 0 0.0833333 -107.25 -63)" d="M 1676.31,3334.28 L 1729.5,3242.16 L 1745.66,3254.17 L 1694.79,3342.27 L 1676.31,3334.28 Z " />
<path stroke="transparent" fill="#000000" transform="matrix(0.0833333 0 0 0.0833333 -107.25 -63)" d="M 1730.49,3357.7 L 1776.87,3277.38 L 1793.03,3289.39 L 1748.97,3365.69 L 1730.49,3357.7 Z " />
<path stroke="transparent" fill="#000000" transform="matrix(0.0833333 0 0 0.0833333 -107.25 -63)" d="M 1784.67,3381.12 L 1824.24,3312.59 L 1840.4,3324.61 L 1803.15,3389.11 L 1784.67,3381.12 Z " />
<path stroke="transparent" fill="#000000" transform="matrix(0.0833333 0 0 0.0833333 -107.25 -63)" d="M 1838.85,3404.54 L 1871.61,3347.81 L 1887.76,3359.82 L 1857.33,3412.53 L 1838.85,3404.54 Z " />
<path stroke="transparent" fill="#000000" transform="matrix(0.0833333 0 0 0.0833333 -107.25 -63)" d="M 1893.02,3427.96 L 1918.97,3383.03 L 1935.13,3395.04 L 1911.51,3435.95 L 1893.02,3427.96 Z " />
<path stroke="transparent" fill="#000000" transform="matrix(0.0833333 0 0 0.0833333 -107.25 -63)" d="M 1947.2,3451.39 L 1966.34,3418.25 L 1982.5,3430.26 L 1965.69,3459.37 L 1947.2,3451.39 Z " />
<path stroke="transparent" fill="#000000" transform="matrix(0.0833333 0 0 0.0833333 -107.25 -63)" d="M 2001.38,3474.81 L 2013.71,3453.46 L 2029.87,3465.48 L 2019.87,3482.8 L 2001.38,3474.81 Z " />
<path stroke="transparent" fill="#000000" transform="matrix(0.0833333 0 0 0.0833333 -107.25 -63)" d="M 2061.67,3495.39 L 2081.67,3506.94 L 2081.67,4095.39 L 2071.67,4101.17 L 2061.67,4094.75 L 2061.67,3495.39 Z " />
<path stroke="transparent" fill="#000000" transform="matrix(0.0833333 0 0 0.0833333 -107.25 -63)" d="M 1674.65,4399.66 L 1614.65,4295.74 L 2061.67,4094.75 L 2071.67,4101.17 L 2072.22,4113.03 L 1674.65,4399.66 Z " />
<path stroke="transparent" fill="#000000" transform="matrix(0.0833333 0 0 0.0833333 -107.25 -63)" d="M 2072.22,4113.03 L 2071.67,4101.17 L 2081.67,4095.39 L 2591.32,4389.66 L 2591.32,4401.21 L 2569.8,4400.33 L 2072.22,4113.03 Z " />
<path stroke="transparent" fill="#000000" transform="matrix(0.0833333 0 0 0.0833333 -107.25 -63)" d="M 2101.69,4753.18 L 2041.69,4649.26 L 2569.8,4400.33 L 2591.32,4401.21 L 2581.32,4420.28 L 2101.69,4753.18 Z " />
<path stroke="transparent" fill="#000000" transform="matrix(0.0833333 0 0 0.0833333 -107.25 -63)" d="M 2601.31,5006.98 L 2581.31,4995.44 L 2581.32,4420.28 L 2591.32,4401.21 L 2601.32,4406.98 L 2601.31,5006.98 Z " />
<path stroke="transparent" fill="#000000" transform="matrix(0.0833333 0 0 0.0833333 -107.25 -63)" d="M 2169.34,5256.38 L 2159.34,5239.06 L 2581.31,4995.44 L 2601.31,5006.98 L 2169.34,5256.38 Z " />
<path stroke="transparent" fill="#000000" transform="matrix(0.0833333 0 0 0.0833333 -107.25 -63)" d="M 2601.32,4406.98 L 2591.32,4401.21 L 2591.32,4389.66 L 3100.94,4095.43 L 3110.94,4101.2 L 3110.94,4112.75 L 2601.32,4406.98 Z " />
<path stroke="transparent" fill="#000000" transform="matrix(0.0833333 0 0 0.0833333 -107.25 -63)" d="M 3120.94,4095.43 L 3110.94,4101.2 L 3100.94,4095.43 L 3100.92,3506.93 L 3110.92,3501.15 L 3120.92,3506.93 L 3120.94,4095.43 Z " />
<path stroke="transparent" fill="#000000" transform="matrix(0.0833333 0 0 0.0833333 -107.25 -63)" d="M 3630.61,4389.62 L 3630.61,4412.71 L 3110.94,4112.75 L 3110.94,4101.2 L 3120.94,4095.43 L 3630.61,4389.62 Z " />
<path stroke="transparent" fill="#000000" transform="matrix(0.0833333 0 0 0.0833333 -107.25 -63)" d="M 4140.24,4095.39 L 4160.24,4106.93 L 3630.61,4412.71 L 3630.61,4389.62 L 4140.24,4095.39 Z " />
<path stroke="transparent" fill="#000000" transform="matrix(0.0833333 0 0 0.0833333 -107.25 -63)" d="M 4160.24,4106.93 L 4140.24,4095.39 L 4140.2,3506.96 L 4150.2,3501.19 L 4160.2,3506.96 L 4160.24,4106.93 Z " />
<path stroke="transparent" fill="#000000" transform="matrix(0.0833333 0 0 0.0833333 -107.25 -63)" d="M 4138.68,3482.99 L 4150.2,3501.19 L 4140.2,3506.96 L 3630.55,3212.69 L 3630.55,3201.15 L 3640.55,3195.37 L 4138.68,3482.99 Z " />
<path stroke="transparent" fill="#000000" transform="matrix(0.0833333 0 0 0.0833333 -107.25 -63)" d="M 4090.2,2901.19 L 4210.2,2901.19 L 4161.71,3482.99 L 4150.2,3501.19 L 4138.68,3482.99 L 4090.2,2901.19 Z " />
<path stroke="transparent" fill="#000000" transform="matrix(0.0833333 0 0 0.0833333 -107.25 -63)" d="M 4160.2,3506.96 L 4150.2,3501.19 L 4161.71,3482.99 L 4659.82,3195.41 L 4669.82,3201.18 L 4669.82,3212.73 L 4160.2,3506.96 Z " />
<path stroke="transparent" fill="#000000" transform="matrix(0.0833333 0 0 0.0833333 -107.25 -63)" d="M 4679.82,3195.41 L 4669.82,3201.18 L 4659.82,3195.41 L 4659.8,2606.91 L 4669.8,2601.13 L 4679.8,2606.91 L 4679.82,3195.41 Z " />
<path stroke="transparent" fill="#000000" transform="matrix(0.0833333 0 0 0.0833333 -107.25 -63)" d="M 4729.82,3801.18 L 4609.82,3801.18 L 4611.65,3781.18 L 4727.99,3781.18 L 4729.82,3801.18 Z " />
<path stroke="transparent" fill="#000000" transform="matrix(0.0833333 0 0 0.0833333 -107.25 -63)" d="M 4724.47,3742.74 L 4615.17,3742.74 L 4617.01,3722.74 L 4722.64,3722.74 L 4724.47,3742.74 Z " />
<path stroke="transparent" fill="#000000" transform="matrix(0.0833333 0 0 0.0833333 -107.25 -63)" d="M 4719.12,3684.3 L 4620.53,3684.3 L 4622.36,3664.3 L 4717.29,3664.3 L 4719.12,3684.3 Z " />
<path stroke="transparent" fill="#000000" transform="matrix(0.0833333 0 0 0.0833333 -107.25 -63)" d="M 4713.77,3625.85 L 4625.88,3625.85 L 4627.71,3605.85 L 4711.93,3605.85 L 4713.77,3625.85 Z " />
<path stroke="transparent" fill="#000000" transform="matrix(0.0833333 0 0 0.0833333 -107.25 -63)" d="M 4708.41,3567.41 L 4631.23,3567.41 L 4633.06,3547.41 L 4706.58,3547.41 L 4708.41,3567.41 Z " />
<path stroke="transparent" fill="#000000" transform="matrix(0.0833333 0 0 0.0833333 -107.25 -63)" d="M 4703.06,3508.96 L 4636.58,3508.96 L 4638.41,3488.96 L 4701.23,3488.96 L 4703.06,3508.96 Z " />
<path stroke="transparent" fill="#000000" transform="matrix(0.0833333 0 0 0.0833333 -107.25 -63)" d="M 4697.71,3450.52 L 4641.93,3450.52 L 4643.77,3430.52 L 4695.88,3430.52 L 4697.71,3450.52 Z " />
<path stroke="transparent" fill="#000000" transform="matrix(0.0833333 0 0 0.0833333 -107.25 -63)" d="M 4692.36,3392.07 L 4647.29,3392.07 L 4649.12,3372.07 L 4690.53,3372.07 L 4692.36,3392.07 Z " />
<path stroke="transparent" fill="#000000" transform="matrix(0.0833333 0 0 0.0833333 -107.25 -63)" d="M 4687.01,3333.63 L 4652.64,3333.63 L 4654.47,3313.63 L 4685.17,3313.63 L 4687.01,3333.63 Z " />
<path stroke="transparent" fill="#000000" transform="matrix(0.0833333 0 0 0.0833333 -107.25 -63)" d="M 4681.65,3275.18 L 4657.99,3275.18 L 4659.82,3255.18 L 4679.82,3255.18 L 4681.65,3275.18 Z " />
<path stroke="transparent" fill="#000000" transform="matrix(0.0833333 0 0 0.0833333 -107.25 -63)" d="M 5189.49,3489.6 L 5189.49,3512.69 L 4669.82,3212.73 L 4669.82,3201.18 L 4679.82,3195.41 L 5189.49,3489.6 Z " />
<path stroke="transparent" fill="#000000" transform="matrix(0.0833333 0 0 0.0833333 -107.25 -63)" d="M 5699.12,3195.37 L 5719.12,3206.91 L 5189.49,3512.69 L 5189.49,3489.6 L 5699.12,3195.37 Z " />
<path stroke="transparent" fill="#000000" transform="matrix(0.0833333 0 0 0.0833333 -107.25 -63)" d="M 5719.12,3206.91 L 5699.12,3195.37 L 5699.08,2606.94 L 5709.07,2601.17 L 5719.08,2620.24 L 5719.12,3206.91 Z " />
<path stroke="transparent" fill="#000000" transform="matrix(0.0833333 0 0 0.0833333 -107.25 -63)" d="M 5709.08,2589.62 L 5709.07,2601.17 L 5699.08,2606.94 L 5189.43,2312.67 L 5189.43,2301.13 L 5199.43,2295.35 L 5709.08,2589.62 Z " />
<path stroke="transparent" fill="#000000" transform="matrix(0.0833333 0 0 0.0833333 -107.25 -63)" d="M 6238.69,2839.78 L 6218.69,2967.01 L 5719.08,2620.24 L 5709.07,2601.17 L 5730.59,2600.3 L 6238.69,2839.78 Z " />
<path stroke="transparent" fill="#000000" transform="matrix(0.0833333 0 0 0.0833333 -107.25 -63)" d="M 6625.72,2618.83 L 6635.72,2636.15 L 6197.69,2889.04 L 6187.69,2871.72 L 6625.72,2618.83 Z " />
<path stroke="transparent" fill="#000000" transform="matrix(0.0833333 0 0 0.0833333 -107.25 -63)" d="M 6661.72,2681.18 L 6671.72,2698.5 L 6233.69,2951.4 L 6223.69,2934.08 L 6661.72,2681.18 Z " />
<path stroke="transparent" fill="#000000" transform="matrix(0.0833333 0 0 0.0833333 -107.25 -63)" d="M 6238.69,3396 L 6218.69,3396 L 6218.69,2967.01 L 6238.69,2839.78 L 6238.69,3396 Z " />
<path stroke="transparent" fill="#000000" transform="matrix(0.0833333 0 0 0.0833333 -107.25 -63)" d="M 6298.72,3610.88 L 6358.72,3506.96 L 6748.87,3789.29 L 6748.31,3801.16 L 6738.31,3807.58 L 6298.72,3610.88 Z " />
<path stroke="transparent" fill="#000000" transform="matrix(0.0833333 0 0 0.0833333 -107.25 -63)" d="M 6758.3,4295.99 L 6738.3,4295.99 L 6738.31,3807.58 L 6748.31,3801.16 L 6758.31,3806.93 L 6758.3,4295.99 Z " />
<path stroke="transparent" fill="#000000" transform="matrix(0.0833333 0 0 0.0833333 -107.25 -63)" d="M 6843.33,4467.58 L 6853.33,4450.26 L 7267.87,4689.63 L 7267.86,4701.18 L 7257.41,4706.69 L 6843.33,4467.58 Z " />
<path stroke="transparent" fill="#000000" transform="matrix(0.0833333 0 0 0.0833333 -107.25 -63)" d="M 7326.07,5279.12 L 7205.89,5325.41 L 7257.41,4706.69 L 7267.86,4701.18 L 7278.32,4706.69 L 7326.07,5279.12 Z " />
<path stroke="transparent" fill="#000000" transform="matrix(0.0833333 0 0 0.0833333 -107.25 -63)" d="M 6845.9,5556.34 L 6835.9,5539.02 L 7205.89,5325.41 L 7326.07,5279.12 L 6845.9,5556.34 Z " />
<path stroke="transparent" fill="#000000" transform="matrix(0.0833333 0 0 0.0833333 -107.25 -63)" d="M 6688.29,5720.99 L 6808.29,5720.99 L 6758.87,6195.76 L 6748.3,6201.21 L 6737.74,6195.76 L 6688.29,5720.99 Z " />
<path stroke="transparent" fill="#000000" transform="matrix(0.0833333 0 0 0.0833333 -107.25 -63)" d="M 6326.3,6456.4 L 6316.3,6439.08 L 6737.74,6195.76 L 6748.3,6201.21 L 6748.3,6212.76 L 6326.3,6456.4 Z " />
<path stroke="transparent" fill="#000000" transform="matrix(0.0833333 0 0 0.0833333 -107.25 -63)" d="M 6218.68,6621.05 L 6238.68,6621.05 L 6238.67,7095.44 L 6228.67,7101.22 L 6218.67,7094.91 L 6218.68,6621.05 Z " />
<path stroke="transparent" fill="#000000" transform="matrix(0.0833333 0 0 0.0833333 -107.25 -63)" d="M 5719.04,7467.07 L 5699.04,7339.83 L 6218.67,7094.91 L 6228.67,7101.22 L 6229.13,7113.03 L 5719.04,7467.07 Z " />
<path stroke="transparent" fill="#000000" transform="matrix(0.0833333 0 0 0.0833333 -107.25 -63)" d="M 5719.04,7896.06 L 5699.04,7896.06 L 5699.04,7339.83 L 5719.04,7467.07 L 5719.04,7896.06 Z " />
<path stroke="transparent" fill="#000000" transform="matrix(0.0833333 0 0 0.0833333 -107.25 -63)" d="M 6229.13,7113.03 L 6228.67,7101.22 L 6238.67,7095.44 L 6748.29,7389.66 L 6748.29,7412.76 L 6229.13,7113.03 Z " />
<path stroke="transparent" fill="#000000" transform="matrix(0.0833333 0 0 0.0833333 -107.25 -63)" d="M 6808.28,7896.04 L 6688.28,7896.04 L 6690.55,7876.04 L 6806.01,7876.04 L 6808.28,7896.04 Z " />
<path stroke="transparent" fill="#000000" transform="matrix(0.0833333 0 0 0.0833333 -107.25 -63)" d="M 6801.47,7835.94 L 6695.1,7835.94 L 6697.37,7815.94 L 6799.2,7815.94 L 6801.47,7835.94 Z " />
<path stroke="transparent" fill="#000000" transform="matrix(0.0833333 0 0 0.0833333 -107.25 -63)" d="M 6794.65,7775.83 L 6701.92,7775.83 L 6704.19,7755.83 L 6792.38,7755.83 L 6794.65,7775.83 Z " />
<path stroke="transparent" fill="#000000" transform="matrix(0.0833333 0 0 0.0833333 -107.25 -63)" d="M 6787.83,7715.72 L 6708.74,7715.72 L 6711.01,7695.72 L 6785.56,7695.72 L 6787.83,7715.72 Z " />
<path stroke="transparent" fill="#000000" transform="matrix(0.0833333 0 0 0.0833333 -107.25 -63)" d="M 6781.01,7655.62 L 6715.56,7655.62 L 6717.83,7635.62 L 6778.74,7635.62 L 6781.01,7655.62 Z " />
<path stroke="transparent" fill="#000000" transform="matrix(0.0833333 0 0 0.0833333 -107.25 -63)" d="M 6774.19,7595.51 L 6722.38,7595.51 L 6724.65,7575.51 L 6771.92,7575.51 L 6774.19,7595.51 Z " />
<path stroke="transparent" fill="#000000" transform="matrix(0.0833333 0 0 0.0833333 -107.25 -63)" d="M 6767.38,7535.41 L 6729.2,7535.41 L 6731.47,7515.41 L 6765.11,7515.41 L 6767.38,7535.41 Z " />
<path stroke="transparent" fill="#000000" transform="matrix(0.0833333 0 0 0.0833333 -107.25 -63)" d="M 6760.56,7475.3 L 6736.02,7475.3 L 6738.29,7455.3 L 6758.29,7455.3 L 6760.56,7475.3 Z " />
<path stroke="transparent" fill="#000000" transform="matrix(0.0833333 0 0 0.0833333 -107.25 -63)" d="M 6818.31,8110.93 L 6878.32,8007.01 L 6894.48,8019.02 L 6836.8,8118.92 L 6818.31,8110.93 Z " />
<path stroke="transparent" fill="#000000" transform="matrix(0.0833333 0 0 0.0833333 -107.25 -63)" d="M 6872.5,8134.35 L 6925.7,8042.23 L 6941.85,8054.24 L 6890.98,8142.34 L 6872.5,8134.35 Z " />
<path stroke="transparent" fill="#000000" transform="matrix(0.0833333 0 0 0.0833333 -107.25 -63)" d="M 6926.69,8157.78 L 6973.07,8077.45 L 6989.23,8089.46 L 6945.17,8165.77 L 6926.69,8157.78 Z " />
<path stroke="transparent" fill="#000000" transform="matrix(0.0833333 0 0 0.0833333 -107.25 -63)" d="M 6980.88,8181.2 L 7020.45,8112.67 L 7036.61,8124.68 L 6999.36,8189.19 L 6980.88,8181.2 Z " />
<path stroke="transparent" fill="#000000" transform="matrix(0.0833333 0 0 0.0833333 -107.25 -63)" d="M 7035.07,8204.62 L 7067.83,8147.89 L 7083.98,8159.9 L 7053.55,8212.61 L 7035.07,8204.62 Z " />
<path stroke="transparent" fill="#000000" transform="matrix(0.0833333 0 0 0.0833333 -107.25 -63)" d="M 7089.26,8228.05 L 7115.2,8183.11 L 7131.36,8195.12 L 7107.74,8236.04 L 7089.26,8228.05 Z " />
<path stroke="transparent" fill="#000000" transform="matrix(0.0833333 0 0 0.0833333 -107.25 -63)" d="M 7143.44,8251.47 L 7162.58,8218.33 L 7178.74,8230.34 L 7161.93,8259.46 L 7143.44,8251.47 Z " />
<path stroke="transparent" fill="#000000" transform="matrix(0.0833333 0 0 0.0833333 -107.25 -63)" d="M 7197.63,8274.89 L 7209.96,8253.55 L 7226.11,8265.56 L 7216.11,8282.88 L 7197.63,8274.89 Z " />
<path stroke="transparent" fill="#000000" transform="matrix(0.0833333 0 0 0.0833333 -107.25 -63)" d="M 7682.95,8050.09 L 7692.95,8067.41 L 7277.93,8307.03 L 7257.93,8295.48 L 7682.95,8050.09 Z " />
<path stroke="transparent" fill="#000000" transform="matrix(0.0833333 0 0 0.0833333 -107.25 -63)" d="M 7882.59,8067.66 L 7892.59,8050.34 L 8306.72,8289.43 L 8307.18,8301.24 L 8297.18,8307.01 L 7882.59,8067.66 Z " />
<path stroke="transparent" fill="#000000" transform="matrix(0.0833333 0 0 0.0833333 -107.25 -63)" d="M 8796.8,7949.27 L 8856.8,8053.2 L 8317.18,8307.54 L 8307.18,8301.24 L 8306.72,8289.43 L 8796.8,7949.27 Z " />
<path stroke="transparent" fill="#000000" transform="matrix(0.0833333 0 0 0.0833333 -107.25 -63)" d="M 8297.18,8307.01 L 8307.18,8301.24 L 8317.18,8307.54 L 8317.17,8907.01 L 8297.17,8895.47 L 8297.18,8307.01 Z " />
<path stroke="transparent" fill="#000000" transform="matrix(0.0833333 0 0 0.0833333 -107.25 -63)" d="M 8764.17,9095.8 L 8704.17,9199.72 L 8687.99,9187.75 L 8745.71,9087.77 L 8764.17,9095.8 Z " />
<path stroke="transparent" fill="#000000" transform="matrix(0.0833333 0 0 0.0833333 -107.25 -63)" d="M 8708.91,9071.77 L 8655.73,9163.89 L 8639.55,9151.92 L 8690.46,9063.75 L 8708.91,9071.77 Z " />
<path stroke="transparent" fill="#000000" transform="matrix(0.0833333 0 0 0.0833333 -107.25 -63)" d="M 8653.66,9047.75 L 8607.3,9128.05 L 8591.12,9116.08 L 8635.2,9039.72 L 8653.66,9047.75 Z " />
<path stroke="transparent" fill="#000000" transform="matrix(0.0833333 0 0 0.0833333 -107.25 -63)" d="M 8598.41,9023.72 L 8558.86,9092.22 L 8542.68,9080.25 L 8579.95,9015.69 L 8598.41,9023.72 Z " />
<path stroke="transparent" fill="#000000" transform="matrix(0.0833333 0 0 0.0833333 -107.25 -63)" d="M 8543.16,8999.69 L 8510.43,9056.38 L 8494.25,9044.41 L 8524.7,8991.66 L 8543.16,8999.69 Z " />
<path stroke="transparent" fill="#000000" transform="matrix(0.0833333 0 0 0.0833333 -107.25 -63)" d="M 8487.9,8975.66 L 8461.99,9020.55 L 8445.81,9008.57 L 8469.44,8967.64 L 8487.9,8975.66 Z " />
<path stroke="transparent" fill="#000000" transform="matrix(0.0833333 0 0 0.0833333 -107.25 -63)" d="M 8432.65,8951.64 L 8413.56,8984.71 L 8397.37,8972.74 L 8414.19,8943.61 L 8432.65,8951.64 Z " />
<path stroke="transparent" fill="#000000" transform="matrix(0.0833333 0 0 0.0833333 -107.25 -63)" d="M 8377.4,8927.61 L 8365.12,8948.88 L 8348.94,8936.9 L 8358.94,8919.58 L 8377.4,8927.61 Z " />
<path stroke="transparent" fill="#000000" transform="matrix(0.0833333 0 0 0.0833333 -107.25 -63)" d="M 8297.17,8895.47 L 8317.17,8907.01 L 7798.09,9206.7 L 7787.54,9201.25 L 7787.54,9189.7 L 8297.17,8895.47 Z " />
<path stroke="transparent" fill="#000000" transform="matrix(0.0833333 0 0 0.0833333 -107.25 -63)" d="M 7847.54,9696.08 L 7727.54,9696.08 L 7776.99,9206.7 L 7787.54,9201.25 L 7798.09,9206.7 L 7847.54,9696.08 Z " />
<path stroke="transparent" fill="#000000" transform="matrix(0.0833333 0 0 0.0833333 -107.25 -63)" d="M 7787.54,9189.7 L 7787.54,9201.25 L 7776.99,9206.7 L 7268.48,8913.12 L 7267.92,8901.25 L 7277.92,8895.48 L 7787.54,9189.7 Z " />
<path stroke="transparent" fill="#000000" transform="matrix(0.0833333 0 0 0.0833333 -107.25 -63)" d="M 7277.92,8895.48 L 7267.92,8901.25 L 7257.92,8894.84 L 7257.93,8295.48 L 7277.93,8307.03 L 7277.92,8895.48 Z " />
<path stroke="transparent" fill="#000000" transform="matrix(0.0833333 0 0 0.0833333 -107.25 -63)" d="M 6870.91,9199.75 L 6810.91,9095.83 L 7257.92,8894.84 L 7267.92,8901.25 L 7268.48,8913.12 L 6870.91,9199.75 Z " />
<path stroke="transparent" fill="#000000" transform="matrix(0.0833333 0 0 0.0833333 -107.25 -63)" d="M 6748.29,7412.76 L 6748.29,7389.66 L 7257.92,7095.43 L 7267.92,7101.2 L 7267.36,7113.07 L 6748.29,7412.76 Z " />
<path stroke="transparent" fill="#000000" transform="matrix(0.0833333 0 0 0.0833333 -107.25 -63)" d="M 7724.91,7295.76 L 7664.92,7399.69 L 7267.36,7113.07 L 7267.92,7101.2 L 7277.92,7094.79 L 7724.91,7295.76 Z " />
<path stroke="transparent" fill="#000000" transform="matrix(0.0833333 0 0 0.0833333 -107.25 -63)" d="M 7277.92,7094.79 L 7267.92,7101.2 L 7257.92,7095.43 L 7257.92,6506.98 L 7277.92,6495.43 L 7277.92,7094.79 Z " />
<path stroke="transparent" fill="#000000" transform="matrix(0.0833333 0 0 0.0833333 -107.25 -63)" d="M 7277.92,6495.43 L 7257.92,6506.98 L 6748.3,6212.76 L 6748.3,6201.21 L 6758.87,6195.76 L 7277.92,6495.43 Z " />
<path stroke="transparent" fill="#000000" transform="matrix(0.0833333 0 0 0.0833333 -107.25 -63)" d="M 7657.95,6206.74 L 7717.95,6310.66 L 7699.47,6318.65 L 7641.79,6218.75 L 7657.95,6206.74 Z " />
<path stroke="transparent" fill="#000000" transform="matrix(0.0833333 0 0 0.0833333 -107.25 -63)" d="M 7610.5,6242 L 7663.69,6334.12 L 7645.21,6342.11 L 7594.34,6254.01 L 7610.5,6242 Z " />
<path stroke="transparent" fill="#000000" transform="matrix(0.0833333 0 0 0.0833333 -107.25 -63)" d="M 7563.06,6277.25 L 7609.44,6357.58 L 7590.96,6365.57 L 7546.9,6289.26 L 7563.06,6277.25 Z " />
<path stroke="transparent" fill="#000000" transform="matrix(0.0833333 0 0 0.0833333 -107.25 -63)" d="M 7515.62,6312.51 L 7555.19,6381.04 L 7536.7,6389.03 L 7499.46,6324.52 L 7515.62,6312.51 Z " />
<path stroke="transparent" fill="#000000" transform="matrix(0.0833333 0 0 0.0833333 -107.25 -63)" d="M 7468.18,6347.76 L 7500.93,6404.5 L 7482.45,6412.49 L 7452.02,6359.77 L 7468.18,6347.76 Z " />
<path stroke="transparent" fill="#000000" transform="matrix(0.0833333 0 0 0.0833333 -107.25 -63)" d="M 7420.73,6383.02 L 7446.68,6427.96 L 7428.2,6435.95 L 7404.57,6395.03 L 7420.73,6383.02 Z " />
<path stroke="transparent" fill="#000000" transform="matrix(0.0833333 0 0 0.0833333 -107.25 -63)" d="M 7373.29,6418.28 L 7392.42,6451.41 L 7373.94,6459.4 L 7357.13,6430.29 L 7373.29,6418.28 Z " />
<path stroke="transparent" fill="#000000" transform="matrix(0.0833333 0 0 0.0833333 -107.25 -63)" d="M 7325.85,6453.53 L 7338.17,6474.87 L 7319.69,6482.86 L 7309.69,6465.54 L 7325.85,6453.53 Z " />
<path stroke="transparent" fill="#000000" transform="matrix(0.0833333 0 0 0.0833333 -107.25 -63)" d="M 7278.32,4706.69 L 7267.86,4701.18 L 7267.87,4689.63 L 7777.49,4395.4 L 7797.49,4406.95 L 7278.32,4706.69 Z " />
<path stroke="transparent" fill="#000000" transform="matrix(0.0833333 0 0 0.0833333 -107.25 -63)" d="M 8244.49,4595.73 L 8184.49,4699.66 L 8168.31,4687.69 L 8226.03,4587.71 L 8244.49,4595.73 Z " />
<path stroke="transparent" fill="#000000" transform="matrix(0.0833333 0 0 0.0833333 -107.25 -63)" d="M 8189.24,4571.71 L 8136.06,4663.82 L 8119.87,4651.85 L 8170.78,4563.68 L 8189.24,4571.71 Z " />
<path stroke="transparent" fill="#000000" transform="matrix(0.0833333 0 0 0.0833333 -107.25 -63)" d="M 8133.98,4547.68 L 8087.62,4627.99 L 8071.44,4616.01 L 8115.53,4539.65 L 8133.98,4547.68 Z " />
<path stroke="transparent" fill="#000000" transform="matrix(0.0833333 0 0 0.0833333 -107.25 -63)" d="M 8078.73,4523.65 L 8039.19,4592.15 L 8023,4580.18 L 8060.27,4515.62 L 8078.73,4523.65 Z " />
<path stroke="transparent" fill="#000000" transform="matrix(0.0833333 0 0 0.0833333 -107.25 -63)" d="M 8023.48,4499.63 L 7990.75,4556.32 L 7974.57,4544.34 L 8005.02,4491.6 L 8023.48,4499.63 Z " />
<path stroke="transparent" fill="#000000" transform="matrix(0.0833333 0 0 0.0833333 -107.25 -63)" d="M 7968.23,4475.6 L 7942.31,4520.48 L 7926.13,4508.51 L 7949.77,4467.57 L 7968.23,4475.6 Z " />
<path stroke="transparent" fill="#000000" transform="matrix(0.0833333 0 0 0.0833333 -107.25 -63)" d="M 7912.97,4451.57 L 7893.88,4484.64 L 7877.7,4472.67 L 7894.51,4443.54 L 7912.97,4451.57 Z " />
<path stroke="transparent" fill="#000000" transform="matrix(0.0833333 0 0 0.0833333 -107.25 -63)" d="M 7857.72,4427.54 L 7845.44,4448.81 L 7829.26,4436.84 L 7839.26,4419.52 L 7857.72,4427.54 Z " />
<path stroke="transparent" fill="#000000" transform="matrix(0.0833333 0 0 0.0833333 -107.25 -63)" d="M 7797.49,4406.95 L 7777.49,4395.4 L 7777.5,3806.95 L 7787.5,3801.17 L 7797.5,3807.6 L 7797.49,4406.95 Z " />
<path stroke="transparent" fill="#000000" transform="matrix(0.0833333 0 0 0.0833333 -107.25 -63)" d="M 8177.52,3506.71 L 8237.52,3610.64 L 7797.5,3807.6 L 7787.5,3801.17 L 7786.94,3789.3 L 8177.52,3506.71 Z " />
<path stroke="transparent" fill="#000000" transform="matrix(0.0833333 0 0 0.0833333 -107.25 -63)" d="M 7786.94,3789.3 L 7787.5,3801.17 L 7777.5,3806.95 L 7267.88,3512.73 L 7267.88,3489.63 L 7786.94,3789.3 Z " />
<path stroke="transparent" fill="#000000" transform="matrix(0.0833333 0 0 0.0833333 -107.25 -63)" d="M 7267.88,3489.63 L 7267.88,3512.73 L 6758.31,3806.93 L 6748.31,3801.16 L 6748.87,3789.29 L 7267.88,3489.63 Z " />
<path stroke="transparent" fill="#000000" transform="matrix(0.0833333 0 0 0.0833333 -107.25 -63)" d="M 7207.93,3020.98 L 7327.93,3020.99 L 7325.58,3040.99 L 7210.27,3040.98 L 7207.93,3020.98 Z " />
<path stroke="transparent" fill="#000000" transform="matrix(0.0833333 0 0 0.0833333 -107.25 -63)" d="M 7214.73,3079 L 7321.11,3079.01 L 7318.77,3099.01 L 7217.07,3099 L 7214.73,3079 Z " />
<path stroke="transparent" fill="#000000" transform="matrix(0.0833333 0 0 0.0833333 -107.25 -63)" d="M 7221.53,3137.03 L 7314.3,3137.04 L 7311.95,3157.04 L 7223.88,3157.03 L 7221.53,3137.03 Z " />
<path stroke="transparent" fill="#000000" transform="matrix(0.0833333 0 0 0.0833333 -107.25 -63)" d="M 7228.33,3195.06 L 7307.49,3195.06 L 7305.14,3215.06 L 7230.68,3215.06 L 7228.33,3195.06 Z " />
<path stroke="transparent" fill="#000000" transform="matrix(0.0833333 0 0 0.0833333 -107.25 -63)" d="M 7235.14,3253.08 L 7300.67,3253.09 L 7298.33,3273.09 L 7237.48,3273.08 L 7235.14,3253.08 Z " />
<path stroke="transparent" fill="#000000" transform="matrix(0.0833333 0 0 0.0833333 -107.25 -63)" d="M 7241.94,3311.11 L 7293.86,3311.11 L 7291.51,3331.11 L 7244.28,3331.11 L 7241.94,3311.11 Z " />
<path stroke="transparent" fill="#000000" transform="matrix(0.0833333 0 0 0.0833333 -107.25 -63)" d="M 7248.74,3369.13 L 7287.05,3369.14 L 7284.7,3389.14 L 7251.08,3389.13 L 7248.74,3369.13 Z " />
<path stroke="transparent" fill="#000000" transform="matrix(0.0833333 0 0 0.0833333 -107.25 -63)" d="M 7255.54,3427.16 L 7280.23,3427.16 L 7277.89,3447.16 L 7257.89,3447.16 L 7255.54,3427.16 Z " />
<path stroke="transparent" fill="#000000" transform="matrix(0.0833333 0 0 0.0833333 -107.25 -63)" d="M 6218.65,2295.42 L 6238.65,2306.97 L 5730.59,2600.3 L 5709.07,2601.17 L 5709.08,2589.62 L 6218.65,2295.42 Z " />
<path stroke="transparent" fill="#000000" transform="matrix(0.0833333 0 0 0.0833333 -107.25 -63)" d="M 6218.63,1706.92 L 6238.63,1695.37 L 6238.65,2306.97 L 6218.65,2295.42 L 6218.63,1706.92 Z " />
<path stroke="transparent" fill="#000000" transform="matrix(0.0833333 0 0 0.0833333 -107.25 -63)" d="M 6238.63,1695.37 L 6218.63,1706.92 L 5709.01,1412.7 L 5709.01,1389.6 L 6238.63,1695.37 Z " />
<path stroke="transparent" fill="#000000" transform="matrix(0.0833333 0 0 0.0833333 -107.25 -63)" d="M 5709.01,1389.6 L 5709.01,1412.7 L 5199.43,1706.9 L 5189.43,1701.13 L 5189.89,1689.31 L 5709.01,1389.6 Z " />
<path stroke="transparent" fill="#000000" transform="matrix(0.0833333 0 0 0.0833333 -107.25 -63)" d="M 5649.02,801.149 L 5769.02,801.151 L 5767.18,821.151 L 5650.85,821.149 L 5649.02,801.149 Z " />
<path stroke="transparent" fill="#000000" transform="matrix(0.0833333 0 0 0.0833333 -107.25 -63)" d="M 5654.37,859.584 L 5763.66,859.585 L 5761.83,879.585 L 5656.2,879.584 L 5654.37,859.584 Z " />
<path stroke="transparent" fill="#000000" transform="matrix(0.0833333 0 0 0.0833333 -107.25 -63)" d="M 5659.72,918.018 L 5758.31,918.019 L 5756.48,938.019 L 5661.55,938.018 L 5659.72,918.018 Z " />
<path stroke="transparent" fill="#000000" transform="matrix(0.0833333 0 0 0.0833333 -107.25 -63)" d="M 5665.07,976.452 L 5752.96,976.454 L 5751.13,996.454 L 5666.9,996.452 L 5665.07,976.452 Z " />
<path stroke="transparent" fill="#000000" transform="matrix(0.0833333 0 0 0.0833333 -107.25 -63)" d="M 5670.42,1034.89 L 5747.6,1034.89 L 5745.77,1054.89 L 5672.25,1054.89 L 5670.42,1034.89 Z " />
<path stroke="transparent" fill="#000000" transform="matrix(0.0833333 0 0 0.0833333 -107.25 -63)" d="M 5675.77,1093.32 L 5742.25,1093.32 L 5740.42,1113.32 L 5677.6,1113.32 L 5675.77,1093.32 Z " />
<path stroke="transparent" fill="#000000" transform="matrix(0.0833333 0 0 0.0833333 -107.25 -63)" d="M 5681.12,1151.76 L 5736.9,1151.76 L 5735.07,1171.76 L 5682.96,1171.76 L 5681.12,1151.76 Z " />
<path stroke="transparent" fill="#000000" transform="matrix(0.0833333 0 0 0.0833333 -107.25 -63)" d="M 5686.47,1210.19 L 5731.55,1210.19 L 5729.71,1230.19 L 5688.31,1230.19 L 5686.47,1210.19 Z " />
<path stroke="transparent" fill="#000000" transform="matrix(0.0833333 0 0 0.0833333 -107.25 -63)" d="M 5691.83,1268.62 L 5726.19,1268.63 L 5724.36,1288.63 L 5693.66,1288.62 L 5691.83,1268.62 Z " />
<path stroke="transparent" fill="#000000" transform="matrix(0.0833333 0 0 0.0833333 -107.25 -63)" d="M 5697.18,1327.06 L 5720.84,1327.06 L 5719.01,1347.06 L 5699.01,1347.06 L 5697.18,1327.06 Z " />
<text x="0" y="0" stroke="transparent" fill="#000000" transform="matrix(0.0833333 0 0 0.0833333 275.901 110.261)" style="font:normal normal normal 200px 'Arial'" >
H</text>
<path stroke="transparent" fill="#000000" transform="matrix(0.0833333 0 0 0.0833333 -107.25 -63)" d="M 4749.94,2116.67 L 4809.94,2012.75 L 5179.43,2281.55 L 5189.43,2301.13 L 5167.48,2302.25 L 4749.94,2116.67 Z " />
<text x="0" y="0" stroke="transparent" fill="#000000" transform="matrix(0.0833333 0 0 0.0833333 189.296 260.262)" style="font:normal normal normal 200px 'Arial'" >
H</text>
<path stroke="transparent" fill="#000000" transform="matrix(0.0833333 0 0 0.0833333 -107.25 -63)" d="M 3690.55,3698.48 L 3570.55,3698.48 L 3572.8,3678.48 L 3688.29,3678.48 L 3690.55,3698.48 Z " />
<path stroke="transparent" fill="#000000" transform="matrix(0.0833333 0 0 0.0833333 -107.25 -63)" d="M 3683.73,3638.01 L 3577.37,3638.01 L 3579.62,3618.01 L 3681.47,3618.01 L 3683.73,3638.01 Z " />
<path stroke="transparent" fill="#000000" transform="matrix(0.0833333 0 0 0.0833333 -107.25 -63)" d="M 3676.91,3577.54 L 3584.19,3577.54 L 3586.44,3557.54 L 3674.65,3557.54 L 3676.91,3577.54 Z " />
<path stroke="transparent" fill="#000000" transform="matrix(0.0833333 0 0 0.0833333 -107.25 -63)" d="M 3670.08,3517.07 L 3591.01,3517.07 L 3593.26,3497.07 L 3667.83,3497.07 L 3670.08,3517.07 Z " />
<path stroke="transparent" fill="#000000" transform="matrix(0.0833333 0 0 0.0833333 -107.25 -63)" d="M 3663.26,3456.59 L 3597.83,3456.59 L 3600.08,3436.59 L 3661.01,3436.59 L 3663.26,3456.59 Z " />
<path stroke="transparent" fill="#000000" transform="matrix(0.0833333 0 0 0.0833333 -107.25 -63)" d="M 3656.44,3396.12 L 3604.65,3396.12 L 3606.91,3376.12 L 3654.19,3376.12 L 3656.44,3396.12 Z " />
<path stroke="transparent" fill="#000000" transform="matrix(0.0833333 0 0 0.0833333 -107.25 -63)" d="M 3649.62,3335.65 L 3611.47,3335.65 L 3613.73,3315.65 L 3647.37,3315.65 L 3649.62,3335.65 Z " />
<path stroke="transparent" fill="#000000" transform="matrix(0.0833333 0 0 0.0833333 -107.25 -63)" d="M 3642.8,3275.18 L 3618.29,3275.18 L 3620.55,3255.18 L 3640.55,3255.18 L 3642.8,3275.18 Z " />
<text x="0" y="0" stroke="transparent" fill="#000000" transform="matrix(0.0833333 0 0 0.0833333 145.995 335.267)" style="font:normal normal normal 200px 'Arial'" >
H</text>
<path stroke="transparent" fill="#000000" transform="matrix(0.0833333 0 0 0.0833333 -107.25 -63)" d="M 3170.94,4598.54 L 3050.94,4598.54 L 3053.2,4578.54 L 3168.69,4578.54 L 3170.94,4598.54 Z " />
<path stroke="transparent" fill="#000000" transform="matrix(0.0833333 0 0 0.0833333 -107.25 -63)" d="M 3164.12,4538.07 L 3057.76,4538.07 L 3060.02,4518.07 L 3161.87,4518.07 L 3164.12,4538.07 Z " />
<path stroke="transparent" fill="#000000" transform="matrix(0.0833333 0 0 0.0833333 -107.25 -63)" d="M 3157.3,4477.6 L 3064.58,4477.6 L 3066.84,4457.6 L 3155.05,4457.6 L 3157.3,4477.6 Z " />
<path stroke="transparent" fill="#000000" transform="matrix(0.0833333 0 0 0.0833333 -107.25 -63)" d="M 3150.48,4417.12 L 3071.4,4417.12 L 3073.66,4397.12 L 3148.22,4397.12 L 3150.48,4417.12 Z " />
<path stroke="transparent" fill="#000000" transform="matrix(0.0833333 0 0 0.0833333 -107.25 -63)" d="M 3143.66,4356.65 L 3078.22,4356.65 L 3080.48,4336.65 L 3141.4,4336.65 L 3143.66,4356.65 Z " />
<path stroke="transparent" fill="#000000" transform="matrix(0.0833333 0 0 0.0833333 -107.25 -63)" d="M 3136.84,4296.18 L 3085.05,4296.18 L 3087.3,4276.18 L 3134.58,4276.18 L 3136.84,4296.18 Z " />
<path stroke="transparent" fill="#000000" transform="matrix(0.0833333 0 0 0.0833333 -107.25 -63)" d="M 3130.02,4235.71 L 3091.87,4235.71 L 3094.12,4215.71 L 3127.76,4215.71 L 3130.02,4235.71 Z " />
<path stroke="transparent" fill="#000000" transform="matrix(0.0833333 0 0 0.0833333 -107.25 -63)" d="M 3123.2,4175.24 L 3098.69,4175.24 L 3100.94,4155.24 L 3120.94,4155.24 L 3123.2,4175.24 Z " />
</svg>
