<?xml version="1.0" standalone="no" ?>
<!DOCTYPE svg PUBLIC "-//W3C//DTD SVG 1.1//EN" "http://www.w3.org/Graphics/SVG/1.1/DTD/svg11.dtd">
<svg width="538px" height="293px" viewBox="0 0 538 293" style="background-color: #ffffff00" xmlns="http://www.w3.org/2000/svg" xmlns:xlink="http://www.w3.org/1999/xlink" version="1.1" >
<text x="0" y="0" stroke="transparent" fill="#000000" transform="matrix(0.0833333 0 0 0.0833333 4.19579 251.601)" style="font:normal normal normal 200px 'Arial'" >
O</text>
<text x="0" y="0" stroke="transparent" fill="#000000" transform="matrix(0.0833333 0 0 0.0833333 122.063 76.6009)" style="font:normal normal normal 200px 'Arial'" >
HO</text>
<path stroke="transparent" fill="#000000" transform="matrix(0.0833333 0 0 0.0833333 -175.25 -334.167)" d="M 5929.63,4962.49 L 5919.67,4965.8 L 5909.58,4958.57 L 5903.01,4461.53 L 5923.16,4472.81 L 5929.63,4962.49 Z " />
<path stroke="transparent" fill="#000000" transform="matrix(0.0833333 0 0 0.0833333 -175.25 -334.167)" d="M 5359.04,5158.48 L 5349.04,5151.21 L 5350.19,5140.32 L 5909.58,4958.57 L 5919.67,4965.8 L 5915.86,4977.56 L 5359.04,5158.48 Z " />
<path stroke="transparent" fill="#000000" transform="matrix(0.0833333 0 0 0.0833333 -175.25 -334.167)" d="M 5424.13,5213.03 L 5417.95,5194.01 L 5889.08,5040.93 L 5895.26,5059.95 L 5424.13,5213.03 Z " />
<path stroke="transparent" fill="#000000" transform="matrix(0.0833333 0 0 0.0833333 -175.25 -334.167)" d="M 4829.43,4862.76 L 4829.43,4839.66 L 5350.19,5140.32 L 5349.04,5151.21 L 5339.04,5156.98 L 4829.43,4862.76 Z " />
<path stroke="transparent" fill="#000000" transform="matrix(0.0833333 0 0 0.0833333 -175.25 -334.167)" d="M 4319.81,5156.98 L 4309.81,5151.21 L 4310.37,5139.34 L 4829.43,4839.66 L 4829.43,4862.76 L 4319.81,5156.98 Z " />
<path stroke="transparent" fill="#000000" transform="matrix(0.0833333 0 0 0.0833333 -175.25 -334.167)" d="M 4319.81,5745.44 L 4309.81,5751.21 L 4299.81,5745.44 L 4299.81,5157.63 L 4309.81,5151.21 L 4319.81,5156.98 L 4319.81,5745.44 Z " />
<path stroke="transparent" fill="#000000" transform="matrix(0.0833333 0 0 0.0833333 -175.25 -334.167)" d="M 3800.2,6056.98 L 3790.2,6051.21 L 3801.71,6033.01 L 4299.81,5745.44 L 4309.81,5751.21 L 4297.96,5769.6 L 3800.2,6056.98 Z " />
<path stroke="transparent" fill="#000000" transform="matrix(0.0833333 0 0 0.0833333 -175.25 -334.167)" d="M 3270.58,5762.76 L 3270.58,5739.66 L 3778.68,6033.01 L 3790.2,6051.21 L 3780.2,6056.98 L 3270.58,5762.76 Z " />
<path stroke="transparent" fill="#000000" transform="matrix(0.0833333 0 0 0.0833333 -175.25 -334.167)" d="M 2760.96,6056.98 L 2740.96,6045.44 L 3270.58,5739.66 L 3270.58,5762.76 L 2760.96,6056.98 Z " />
<path stroke="transparent" fill="#000000" transform="matrix(0.0833333 0 0 0.0833333 -175.25 -334.167)" d="M 2760.96,6645.44 L 2740.96,6656.98 L 2740.96,6045.44 L 2760.96,6056.98 L 2760.96,6645.44 Z " />
<path stroke="transparent" fill="#000000" transform="matrix(0.0833333 0 0 0.0833333 -175.25 -334.167)" d="M 2346.97,6937.57 L 2336.97,6920.25 L 2781.96,6663.33 L 2791.96,6680.66 L 2346.97,6937.57 Z " />
<path stroke="transparent" fill="#000000" transform="matrix(0.0833333 0 0 0.0833333 -175.25 -334.167)" d="M 2310.97,6875.22 L 2300.97,6857.9 L 2745.96,6600.98 L 2755.96,6618.3 L 2310.97,6875.22 Z " />
<path stroke="transparent" fill="#000000" transform="matrix(0.0833333 0 0 0.0833333 -175.25 -334.167)" d="M 3270.58,6939.66 L 3270.58,6951.21 L 3256.92,6954.87 L 2740.96,6656.98 L 2760.96,6645.44 L 3270.58,6939.66 Z " />
<path stroke="transparent" fill="#000000" transform="matrix(0.0833333 0 0 0.0833333 -175.25 -334.167)" d="M 3780.2,6645.44 L 3790.2,6651.21 L 3790.2,6662.76 L 3284.24,6954.87 L 3270.58,6951.21 L 3270.58,6939.66 L 3780.2,6645.44 Z " />
<path stroke="transparent" fill="#000000" transform="matrix(0.0833333 0 0 0.0833333 -175.25 -334.167)" d="M 3800.2,6645.44 L 3790.2,6651.21 L 3780.2,6645.44 L 3780.2,6056.98 L 3790.2,6051.21 L 3800.2,6056.98 L 3800.2,6645.44 Z " />
<path stroke="transparent" fill="#000000" transform="matrix(0.0833333 0 0 0.0833333 -175.25 -334.167)" d="M 4309.81,6939.66 L 4309.81,6962.76 L 3790.2,6662.76 L 3790.2,6651.21 L 3800.2,6645.44 L 4309.81,6939.66 Z " />
<path stroke="transparent" fill="#000000" transform="matrix(0.0833333 0 0 0.0833333 -175.25 -334.167)" d="M 4819.43,6645.44 L 4839.43,6656.98 L 4309.81,6962.76 L 4309.81,6939.66 L 4819.43,6645.44 Z " />
<path stroke="transparent" fill="#000000" transform="matrix(0.0833333 0 0 0.0833333 -175.25 -334.167)" d="M 4819.43,6056.98 L 4829.43,6051.21 L 4839.43,6056.98 L 4839.43,6656.98 L 4819.43,6645.44 L 4819.43,6056.98 Z " />
<path stroke="transparent" fill="#000000" transform="matrix(0.0833333 0 0 0.0833333 -175.25 -334.167)" d="M 4829.43,6039.66 L 4829.43,6051.21 L 4819.43,6056.98 L 4321.66,5769.6 L 4309.81,5751.21 L 4319.81,5745.44 L 4829.43,6039.66 Z " />
<path stroke="transparent" fill="#000000" transform="matrix(0.0833333 0 0 0.0833333 -175.25 -334.167)" d="M 5339.04,5745.44 L 5349.04,5751.21 L 5337.52,5769.41 L 4839.43,6056.98 L 4829.43,6051.21 L 4829.43,6039.66 L 5339.04,5745.44 Z " />
<path stroke="transparent" fill="#000000" transform="matrix(0.0833333 0 0 0.0833333 -175.25 -334.167)" d="M 5359.04,5743.95 L 5349.04,5751.21 L 5339.04,5745.44 L 5339.04,5156.98 L 5349.04,5151.21 L 5359.04,5158.48 L 5359.04,5743.95 Z " />
<path stroke="transparent" fill="#000000" transform="matrix(0.0833333 0 0 0.0833333 -175.25 -334.167)" d="M 5915.86,5924.87 L 5923.49,5948.38 L 5360.22,5765.36 L 5349.04,5751.21 L 5359.04,5743.95 L 5915.86,5924.87 Z " />
<path stroke="transparent" fill="#000000" transform="matrix(0.0833333 0 0 0.0833333 -175.25 -334.167)" d="M 6259.99,5451.21 L 6284.71,5451.21 L 5923.49,5948.38 L 5915.86,5924.87 L 6259.99,5451.21 Z " />
<path stroke="transparent" fill="#000000" transform="matrix(0.0833333 0 0 0.0833333 -175.25 -334.167)" d="M 6284.71,5451.21 L 6259.99,5451.21 L 5915.86,4977.56 L 5919.67,4965.8 L 5929.63,4962.49 L 6284.71,5451.21 Z " />
<path stroke="transparent" fill="#000000" transform="matrix(0.0833333 0 0 0.0833333 -175.25 -334.167)" d="M 5409.04,6351.21 L 5289.04,6351.21 L 5337.52,5769.41 L 5349.04,5751.21 L 5360.22,5765.36 L 5409.04,6351.21 Z " />
<path stroke="transparent" fill="#000000" transform="matrix(0.0833333 0 0 0.0833333 -175.25 -334.167)" d="M 4769.43,5451.21 L 4889.43,5451.21 L 4887.59,5471.21 L 4771.26,5471.21 L 4769.43,5451.21 Z " />
<path stroke="transparent" fill="#000000" transform="matrix(0.0833333 0 0 0.0833333 -175.25 -334.167)" d="M 4774.78,5509.66 L 4884.07,5509.66 L 4882.24,5529.66 L 4776.61,5529.66 L 4774.78,5509.66 Z " />
<path stroke="transparent" fill="#000000" transform="matrix(0.0833333 0 0 0.0833333 -175.25 -334.167)" d="M 4780.13,5568.1 L 4878.72,5568.1 L 4876.89,5588.1 L 4781.96,5588.1 L 4780.13,5568.1 Z " />
<path stroke="transparent" fill="#000000" transform="matrix(0.0833333 0 0 0.0833333 -175.25 -334.167)" d="M 4785.48,5626.54 L 4873.37,5626.54 L 4871.54,5646.54 L 4787.31,5646.54 L 4785.48,5626.54 Z " />
<path stroke="transparent" fill="#000000" transform="matrix(0.0833333 0 0 0.0833333 -175.25 -334.167)" d="M 4790.83,5684.99 L 4868.02,5684.99 L 4866.19,5704.99 L 4792.67,5704.99 L 4790.83,5684.99 Z " />
<path stroke="transparent" fill="#000000" transform="matrix(0.0833333 0 0 0.0833333 -175.25 -334.167)" d="M 4796.19,5743.43 L 4862.67,5743.43 L 4860.83,5763.43 L 4798.02,5763.43 L 4796.19,5743.43 Z " />
<path stroke="transparent" fill="#000000" transform="matrix(0.0833333 0 0 0.0833333 -175.25 -334.167)" d="M 4801.54,5801.88 L 4857.31,5801.88 L 4855.48,5821.88 L 4803.37,5821.88 L 4801.54,5801.88 Z " />
<path stroke="transparent" fill="#000000" transform="matrix(0.0833333 0 0 0.0833333 -175.25 -334.167)" d="M 4806.89,5860.32 L 4851.96,5860.32 L 4850.13,5880.32 L 4808.72,5880.32 L 4806.89,5860.32 Z " />
<path stroke="transparent" fill="#000000" transform="matrix(0.0833333 0 0 0.0833333 -175.25 -334.167)" d="M 4812.24,5918.77 L 4846.61,5918.77 L 4844.78,5938.77 L 4814.07,5938.77 L 4812.24,5918.77 Z " />
<path stroke="transparent" fill="#000000" transform="matrix(0.0833333 0 0 0.0833333 -175.25 -334.167)" d="M 4817.59,5977.21 L 4841.26,5977.21 L 4839.43,5997.21 L 4819.43,5997.21 L 4817.59,5977.21 Z " />
<path stroke="transparent" fill="#000000" transform="matrix(0.0833333 0 0 0.0833333 -175.25 -334.167)" d="M 3579.24,7465.83 L 3561.92,7475.83 L 3270.58,6971.21 L 3270.58,6951.21 L 3284.24,6954.87 L 3579.24,7465.83 Z " />
<path stroke="transparent" fill="#000000" transform="matrix(0.0833333 0 0 0.0833333 -175.25 -334.167)" d="M 2979.24,7475.83 L 2961.92,7465.83 L 3256.92,6954.87 L 3270.58,6951.21 L 3270.58,6971.21 L 2979.24,7475.83 Z " />
<path stroke="transparent" fill="#000000" transform="matrix(0.0833333 0 0 0.0833333 -175.25 -334.167)" d="M 3730.2,5451.21 L 3850.2,5451.21 L 3801.71,6033.01 L 3790.2,6051.21 L 3778.68,6033.01 L 3730.2,5451.21 Z " />
<path stroke="transparent" fill="#000000" transform="matrix(0.0833333 0 0 0.0833333 -175.25 -334.167)" d="M 3860.22,4960.92 L 3920.22,4857 L 4310.37,5139.34 L 4309.81,5151.21 L 4299.81,5157.63 L 3860.22,4960.92 Z " />
<text x="0" y="0" stroke="transparent" fill="#000000" transform="matrix(0.0833333 0 0 0.0833333 134.6 276.601)" style="font:normal normal normal 200px 'Arial'" >
H</text>
<path stroke="transparent" fill="#000000" transform="matrix(0.0833333 0 0 0.0833333 -175.25 -334.167)" d="M 3850.2,7148.54 L 3730.2,7148.54 L 3732.45,7128.54 L 3847.94,7128.54 L 3850.2,7148.54 Z " />
<path stroke="transparent" fill="#000000" transform="matrix(0.0833333 0 0 0.0833333 -175.25 -334.167)" d="M 3843.37,7088.07 L 3737.02,7088.07 L 3739.27,7068.07 L 3841.12,7068.07 L 3843.37,7088.07 Z " />
<path stroke="transparent" fill="#000000" transform="matrix(0.0833333 0 0 0.0833333 -175.25 -334.167)" d="M 3836.55,7027.6 L 3743.84,7027.6 L 3746.09,7007.6 L 3834.3,7007.6 L 3836.55,7027.6 Z " />
<path stroke="transparent" fill="#000000" transform="matrix(0.0833333 0 0 0.0833333 -175.25 -334.167)" d="M 3829.73,6967.13 L 3750.66,6967.13 L 3752.91,6947.13 L 3827.48,6947.13 L 3829.73,6967.13 Z " />
<path stroke="transparent" fill="#000000" transform="matrix(0.0833333 0 0 0.0833333 -175.25 -334.167)" d="M 3822.91,6906.66 L 3757.48,6906.66 L 3759.73,6886.66 L 3820.66,6886.66 L 3822.91,6906.66 Z " />
<path stroke="transparent" fill="#000000" transform="matrix(0.0833333 0 0 0.0833333 -175.25 -334.167)" d="M 3816.09,6846.19 L 3764.3,6846.19 L 3766.55,6826.19 L 3813.84,6826.19 L 3816.09,6846.19 Z " />
<path stroke="transparent" fill="#000000" transform="matrix(0.0833333 0 0 0.0833333 -175.25 -334.167)" d="M 3809.27,6785.72 L 3771.12,6785.72 L 3773.37,6765.72 L 3807.02,6765.72 L 3809.27,6785.72 Z " />
<path stroke="transparent" fill="#000000" transform="matrix(0.0833333 0 0 0.0833333 -175.25 -334.167)" d="M 3802.45,6725.25 L 3777.94,6725.25 L 3780.2,6705.25 L 3800.2,6705.25 L 3802.45,6725.25 Z " />
<text x="0" y="0" stroke="transparent" fill="#000000" transform="matrix(0.0833333 0 0 0.0833333 177.901 201.601)" style="font:normal normal normal 200px 'Arial'" >
H</text>
<path stroke="transparent" fill="#000000" transform="matrix(0.0833333 0 0 0.0833333 -175.25 -334.167)" d="M 4369.81,6248.54 L 4249.81,6248.54 L 4297.96,5769.6 L 4309.81,5751.21 L 4321.66,5769.6 L 4369.81,6248.54 Z " />
<path stroke="transparent" fill="#000000" transform="matrix(0.0833333 0 0 0.0833333 -175.25 -334.167)" d="M 6428.54,4148.78 L 6428.84,4171.87 L 5923.16,4472.81 L 5903.01,4461.53 L 6428.54,4148.78 Z " />
<path stroke="transparent" fill="#000000" transform="matrix(0.0833333 0 0 0.0833333 -175.25 -334.167)" d="M 5360.24,4226.41 L 5418.86,4121.71 L 5435.42,4133.07 L 5378.59,4234.58 L 5360.24,4226.41 Z " />
<path stroke="transparent" fill="#000000" transform="matrix(0.0833333 0 0 0.0833333 -175.25 -334.167)" d="M 5413.85,4250.29 L 5467.24,4154.93 L 5483.8,4166.29 L 5432.2,4258.47 L 5413.85,4250.29 Z " />
<path stroke="transparent" fill="#000000" transform="matrix(0.0833333 0 0 0.0833333 -175.25 -334.167)" d="M 5467.46,4274.17 L 5515.62,4188.15 L 5532.18,4199.52 L 5485.81,4282.35 L 5467.46,4274.17 Z " />
<path stroke="transparent" fill="#000000" transform="matrix(0.0833333 0 0 0.0833333 -175.25 -334.167)" d="M 5521.07,4298.06 L 5564.01,4221.37 L 5580.56,4232.74 L 5539.42,4306.23 L 5521.07,4298.06 Z " />
<path stroke="transparent" fill="#000000" transform="matrix(0.0833333 0 0 0.0833333 -175.25 -334.167)" d="M 5574.68,4321.94 L 5612.39,4254.59 L 5628.94,4265.96 L 5593.03,4330.11 L 5574.68,4321.94 Z " />
<path stroke="transparent" fill="#000000" transform="matrix(0.0833333 0 0 0.0833333 -175.25 -334.167)" d="M 5628.29,4345.82 L 5660.77,4287.81 L 5677.33,4299.18 L 5646.64,4353.99 L 5628.29,4345.82 Z " />
<path stroke="transparent" fill="#000000" transform="matrix(0.0833333 0 0 0.0833333 -175.25 -334.167)" d="M 5681.9,4369.7 L 5709.15,4321.03 L 5725.71,4332.4 L 5700.25,4377.87 L 5681.9,4369.7 Z " />
<path stroke="transparent" fill="#000000" transform="matrix(0.0833333 0 0 0.0833333 -175.25 -334.167)" d="M 5735.51,4393.58 L 5757.53,4354.25 L 5774.09,4365.62 L 5753.86,4401.75 L 5735.51,4393.58 Z " />
<path stroke="transparent" fill="#000000" transform="matrix(0.0833333 0 0 0.0833333 -175.25 -334.167)" d="M 5789.13,4417.46 L 5805.91,4387.47 L 5822.47,4398.84 L 5807.47,4425.63 L 5789.13,4417.46 Z " />
<path stroke="transparent" fill="#000000" transform="matrix(0.0833333 0 0 0.0833333 -175.25 -334.167)" d="M 5842.74,4441.34 L 5854.3,4420.69 L 5870.85,4432.06 L 5861.08,4449.51 L 5842.74,4441.34 Z " />
<path stroke="transparent" fill="#000000" transform="matrix(0.0833333 0 0 0.0833333 -175.25 -334.167)" d="M 6951.51,4441.57 L 6952.22,4453.43 L 6942.3,4459.34 L 6428.84,4171.87 L 6428.54,4148.78 L 6951.51,4441.57 Z " />
<text x="0" y="0" stroke="transparent" fill="#000000" transform="matrix(0.0833333 0 0 0.0833333 440.569 17.8827)" style="font:normal normal normal 200px 'Arial'" >
O</text>
<path stroke="transparent" fill="#000000" transform="matrix(0.0833333 0 0 0.0833333 -175.25 -334.167)" d="M 7338.18,4153.93 L 7399.55,4257.05 L 6962.31,4459.72 L 6952.22,4453.43 L 6951.51,4441.57 L 7338.18,4153.93 Z " />
<path stroke="transparent" fill="#000000" transform="matrix(0.0833333 0 0 0.0833333 -175.25 -334.167)" d="M 7991.21,4428.15 L 7991.52,4451.25 L 7563.58,4211.66 L 7573.35,4194.21 L 7991.21,4428.15 Z " />
<path stroke="transparent" fill="#000000" transform="matrix(0.0833333 0 0 0.0833333 -175.25 -334.167)" d="M 8501.86,4124.27 L 8512.08,4141.45 L 7991.52,4451.25 L 7991.21,4428.15 L 8501.86,4124.27 Z " />
<path stroke="transparent" fill="#000000" transform="matrix(0.0833333 0 0 0.0833333 -175.25 -334.167)" d="M 6970.17,5054.55 L 6950.14,5052.21 L 6942.3,4459.34 L 6952.22,4453.43 L 6962.31,4459.72 L 6970.17,5054.55 Z " />
<text x="0" y="0" stroke="transparent" fill="#000000" transform="matrix(0.0833333 0 0 0.0833333 434.206 128.206)" style="font:normal normal normal 200px 'Arial'" >
O</text>
<path stroke="transparent" fill="#000000" transform="matrix(0.0833333 0 0 0.0833333 -175.25 -334.167)" d="M 7356.5,5353.19 L 7273.08,5439.45 L 7260.28,5423.92 L 7340.54,5340.92 L 7356.5,5353.19 Z " />
<path stroke="transparent" fill="#000000" transform="matrix(0.0833333 0 0 0.0833333 -175.25 -334.167)" d="M 7308.7,5316.45 L 7234.76,5392.91 L 7221.96,5377.37 L 7292.74,5304.19 L 7308.7,5316.45 Z " />
<path stroke="transparent" fill="#000000" transform="matrix(0.0833333 0 0 0.0833333 -175.25 -334.167)" d="M 7260.9,5279.71 L 7196.44,5346.37 L 7183.64,5330.83 L 7244.94,5267.45 L 7260.9,5279.71 Z " />
<path stroke="transparent" fill="#000000" transform="matrix(0.0833333 0 0 0.0833333 -175.25 -334.167)" d="M 7213.1,5242.98 L 7158.12,5299.83 L 7145.33,5284.29 L 7197.14,5230.71 L 7213.1,5242.98 Z " />
<path stroke="transparent" fill="#000000" transform="matrix(0.0833333 0 0 0.0833333 -175.25 -334.167)" d="M 7165.3,5206.24 L 7119.8,5253.29 L 7107.01,5237.75 L 7149.34,5193.97 L 7165.3,5206.24 Z " />
<path stroke="transparent" fill="#000000" transform="matrix(0.0833333 0 0 0.0833333 -175.25 -334.167)" d="M 7117.51,5169.5 L 7081.48,5206.75 L 7068.69,5191.21 L 7101.55,5157.23 L 7117.51,5169.5 Z " />
<path stroke="transparent" fill="#000000" transform="matrix(0.0833333 0 0 0.0833333 -175.25 -334.167)" d="M 7069.71,5132.76 L 7043.16,5160.21 L 7030.37,5144.67 L 7053.75,5120.49 L 7069.71,5132.76 Z " />
<path stroke="transparent" fill="#000000" transform="matrix(0.0833333 0 0 0.0833333 -175.25 -334.167)" d="M 7021.91,5096.02 L 7004.84,5113.67 L 6992.05,5098.13 L 7005.95,5083.76 L 7021.91,5096.02 Z " />
<path stroke="transparent" fill="#000000" transform="matrix(0.0833333 0 0 0.0833333 -175.25 -334.167)" d="M 6828.5,5621.08 L 6814.6,5635.46 L 6805.92,5628.92 L 6950.14,5052.21 L 6970.17,5054.55 L 6828.5,5621.08 Z " />
<path stroke="transparent" fill="#000000" transform="matrix(0.0833333 0 0 0.0833333 -175.25 -334.167)" d="M 7281.49,5491.53 L 7286.99,5510.76 L 6822.79,5643.51 L 6814.6,5635.46 L 6828.5,5621.08 L 7281.49,5491.53 Z " />
<path stroke="transparent" fill="#000000" transform="matrix(0.0833333 0 0 0.0833333 -175.25 -334.167)" d="M 6299.98,5944.12 L 6289.98,5926.8 L 6805.92,5628.92 L 6814.6,5635.46 L 6798.69,5656.19 L 6299.98,5944.12 Z " />
<path stroke="transparent" fill="#000000" transform="matrix(0.0833333 0 0 0.0833333 -175.25 -334.167)" d="M 6668.96,6217.6 L 6649.65,6212.42 L 6798.69,5656.19 L 6814.6,5635.46 L 6822.79,5643.51 L 6668.96,6217.6 Z " />
<text x="0" y="0" stroke="transparent" fill="#000000" transform="matrix(0.0833333 0 0 0.0833333 484.858 92.304)" style="font:normal normal normal 200px 'Arial'" >
O</text>
<path stroke="transparent" fill="#000000" transform="matrix(0.0833333 0 0 0.0833333 -175.25 -334.167)" d="M 8043.9,4933.89 L 8023.9,4934.15 L 8017.09,4418.57 L 8037.09,4418.31 L 8043.9,4933.89 Z " />
<path stroke="transparent" fill="#000000" transform="matrix(0.0833333 0 0 0.0833333 -175.25 -334.167)" d="M 7971.91,4934.84 L 7951.91,4935.1 L 7945.09,4419.52 L 7965.09,4419.26 L 7971.91,4934.84 Z " />
</svg>
