<?xml version="1.0" standalone="no" ?>
<!DOCTYPE svg PUBLIC "-//W3C//DTD SVG 1.1//EN" "http://www.w3.org/Graphics/SVG/1.1/DTD/svg11.dtd">
<svg width="825px" height="327px" viewBox="0 0 825 327" style="background-color: #ffffff00" xmlns="http://www.w3.org/2000/svg" xmlns:xlink="http://www.w3.org/1999/xlink" version="1.1" >
<text x="0" y="0" stroke="transparent" fill="#000000" transform="matrix(0.0833333 0 0 0.0833333 136.766 189.276)" style="font:normal normal normal 200px 'Arial'" >
O</text>
<text x="0" y="0" stroke="transparent" fill="#000000" transform="matrix(0.0833333 0 0 0.0833333 221.466 193.415)" style="font:normal normal normal 200px 'Arial'" >
O</text>
<text x="0" y="0" stroke="transparent" fill="#000000" transform="matrix(0.0833333 0 0 0.0833333 53.3261 35.1484)" style="font:normal normal normal 200px 'Arial'" >
O</text>
<text x="0" y="0" stroke="transparent" fill="#000000" transform="matrix(0.0833333 0 0 0.0833333 3.9665 106.479)" style="font:normal normal normal 200px 'Arial'" >
O</text>
<text x="0" y="0" stroke="transparent" fill="#000000" transform="matrix(0.0833333 0 0 0.0833333 350.756 170.808)" style="font:normal normal normal 200px 'Arial'" >
O</text>
<text x="0" y="0" stroke="transparent" fill="#000000" transform="matrix(0.0833333 0 0 0.0833333 253.056 273.346)" style="font:normal normal normal 200px 'Arial'" >
HO</text>
<text x="0" y="0" stroke="transparent" fill="#000000" transform="matrix(0.0833333 0 0 0.0833333 437.693 170.808)" style="font:normal normal normal 200px 'Arial'" >
O</text>
<text x="0" y="0" stroke="transparent" fill="#000000" transform="matrix(0.0833333 0 0 0.0833333 350.12 322.706)" style="font:normal normal normal 200px 'Arial'" >
OH</text>
<text x="0" y="0" stroke="transparent" fill="#000000" transform="matrix(0.0833333 0 0 0.0833333 437.693 273.346)" style="font:normal normal normal 200px 'Arial'" >
OH</text>
<text x="0" y="0" stroke="transparent" fill="#000000" transform="matrix(0.0833333 0 0 0.0833333 482.592 246.915)" style="font:normal normal normal 200px 'Arial'" >
O</text>
<text x="0" y="0" stroke="transparent" fill="#000000" transform="matrix(0.0833333 0 0 0.0833333 659.648 199.149)" style="font:normal normal normal 200px 'Arial'" >
OH</text>
<text x="0" y="0" stroke="transparent" fill="#000000" transform="matrix(0.0833333 0 0 0.0833333 569.529 51.7066)" style="font:normal normal normal 200px 'Arial'" >
OH</text>
<text x="0" y="0" stroke="transparent" fill="#000000" transform="matrix(0.0833333 0 0 0.0833333 796.581 130.043)" style="font:normal normal normal 200px 'Arial'" >
OH</text>
<text x="0" y="0" stroke="transparent" fill="#000000" transform="matrix(0.0833333 0 0 0.0833333 183.428 65.2355)" style="font:normal normal normal 200px 'Arial'" >
H</text>
<path stroke="transparent" fill="#000000" transform="matrix(0.0833333 0 0 0.0833333 -23.2083 -196)" d="M 2529.08,3635.8 L 2528.84,3647.24 L 2518.66,3652.87 L 2031.63,3368.18 L 2032.02,3356.83 L 2042.02,3351.09 L 2529.08,3635.8 Z " />
<path stroke="transparent" fill="#000000" transform="matrix(0.0833333 0 0 0.0833333 -23.2083 -196)" d="M 1510.79,3626.78 L 1500.87,3620.55 L 1501.51,3609.06 L 2022.02,3350.63 L 2032.02,3356.83 L 2031.63,3368.18 L 1510.79,3626.78 Z " />
<path stroke="transparent" fill="#000000" transform="matrix(0.0833333 0 0 0.0833333 -23.2083 -196)" d="M 2022.02,2701.5 L 2042.02,2690.06 L 2042.02,3351.09 L 2032.02,3356.83 L 2022.02,3350.63 L 2022.02,2701.5 Z " />
<path stroke="transparent" fill="#000000" transform="matrix(0.0833333 0 0 0.0833333 -23.2083 -196)" d="M 2412.26,3068.01 L 2472.26,3171.94 L 2453.74,3179.87 L 2396.13,3080.08 L 2412.26,3068.01 Z " />
<path stroke="transparent" fill="#000000" transform="matrix(0.0833333 0 0 0.0833333 -23.2083 -196)" d="M 2366.22,3102.45 L 2419.42,3194.59 L 2400.9,3202.53 L 2350.09,3114.51 L 2366.22,3102.45 Z " />
<path stroke="transparent" fill="#000000" transform="matrix(0.0833333 0 0 0.0833333 -23.2083 -196)" d="M 2320.18,3136.88 L 2366.57,3217.24 L 2348.06,3225.18 L 2304.05,3148.95 L 2320.18,3136.88 Z " />
<path stroke="transparent" fill="#000000" transform="matrix(0.0833333 0 0 0.0833333 -23.2083 -196)" d="M 2274.14,3171.32 L 2313.73,3239.9 L 2295.22,3247.83 L 2258.01,3183.38 L 2274.14,3171.32 Z " />
<path stroke="transparent" fill="#000000" transform="matrix(0.0833333 0 0 0.0833333 -23.2083 -196)" d="M 2228.1,3205.76 L 2260.89,3262.55 L 2242.38,3270.49 L 2211.97,3217.82 L 2228.1,3205.76 Z " />
<path stroke="transparent" fill="#000000" transform="matrix(0.0833333 0 0 0.0833333 -23.2083 -196)" d="M 2182.06,3240.19 L 2208.05,3285.2 L 2189.54,3293.14 L 2165.93,3252.25 L 2182.06,3240.19 Z " />
<path stroke="transparent" fill="#000000" transform="matrix(0.0833333 0 0 0.0833333 -23.2083 -196)" d="M 2136.02,3274.63 L 2155.21,3307.86 L 2136.7,3315.79 L 2119.89,3286.69 L 2136.02,3274.63 Z " />
<path stroke="transparent" fill="#000000" transform="matrix(0.0833333 0 0 0.0833333 -23.2083 -196)" d="M 2089.98,3309.06 L 2102.37,3330.51 L 2083.85,3338.45 L 2073.85,3321.13 L 2089.98,3309.06 Z " />
<path stroke="transparent" fill="#000000" transform="matrix(0.0833333 0 0 0.0833333 -23.2083 -196)" d="M 2519.46,4276.25 L 2499.82,4264.1 L 2518.66,3652.87 L 2528.84,3647.24 L 2538.62,3654.47 L 2519.46,4276.25 Z " />
<path stroke="transparent" fill="#000000" transform="matrix(0.0833333 0 0 0.0833333 -23.2083 -196)" d="M 3008.2,3378.28 L 3136.58,3454.16 L 2538.62,3654.47 L 2528.84,3647.24 L 2529.08,3635.8 L 3008.2,3378.28 Z " />
<path stroke="transparent" fill="#000000" transform="matrix(0.0833333 0 0 0.0833333 -23.2083 -196)" d="M 1503.3,4215.09 L 1483.16,4225.91 L 1490.8,3625.96 L 1500.87,3620.55 L 1510.79,3626.78 L 1503.3,4215.09 Z " />
<path stroke="transparent" fill="#000000" transform="matrix(0.0833333 0 0 0.0833333 -23.2083 -196)" d="M 1575.73,4181.67 L 1555.74,4181.42 L 1562.3,3665.34 L 1582.3,3665.59 L 1575.73,4181.67 Z " />
<path stroke="transparent" fill="#000000" transform="matrix(0.0833333 0 0 0.0833333 -23.2083 -196)" d="M 986.413,3301.19 L 1006.41,3290.28 L 1501.51,3609.06 L 1500.87,3620.55 L 1490.8,3625.96 L 986.413,3301.19 Z " />
<path stroke="transparent" fill="#000000" transform="matrix(0.0833333 0 0 0.0833333 -23.2083 -196)" d="M 1550.21,2424.33 L 1550.88,2401.53 L 2042.02,2690.06 L 2022.02,2701.5 L 1550.21,2424.33 Z " />
<path stroke="transparent" fill="#000000" transform="matrix(0.0833333 0 0 0.0833333 -23.2083 -196)" d="M 2096.55,4503.53 L 2087.08,4485.92 L 2499.82,4264.1 L 2519.46,4276.25 L 2096.55,4503.53 Z " />
<path stroke="transparent" fill="#000000" transform="matrix(0.0833333 0 0 0.0833333 -23.2083 -196)" d="M 2956.64,4486.63 L 2891.68,4587.53 L 2876.1,4574.78 L 2938.6,4477.72 L 2956.64,4486.63 Z " />
<path stroke="transparent" fill="#000000" transform="matrix(0.0833333 0 0 0.0833333 -23.2083 -196)" d="M 2902.62,4459.96 L 2845.04,4549.39 L 2829.46,4536.64 L 2884.58,4451.05 L 2902.62,4459.96 Z " />
<path stroke="transparent" fill="#000000" transform="matrix(0.0833333 0 0 0.0833333 -23.2083 -196)" d="M 2848.6,4433.28 L 2798.4,4511.25 L 2782.82,4498.51 L 2830.56,4424.37 L 2848.6,4433.28 Z " />
<path stroke="transparent" fill="#000000" transform="matrix(0.0833333 0 0 0.0833333 -23.2083 -196)" d="M 2794.59,4406.61 L 2751.77,4473.11 L 2736.18,4460.37 L 2776.54,4397.7 L 2794.59,4406.61 Z " />
<path stroke="transparent" fill="#000000" transform="matrix(0.0833333 0 0 0.0833333 -23.2083 -196)" d="M 2740.57,4379.93 L 2705.13,4434.97 L 2689.54,4422.23 L 2722.52,4371.02 L 2740.57,4379.93 Z " />
<path stroke="transparent" fill="#000000" transform="matrix(0.0833333 0 0 0.0833333 -23.2083 -196)" d="M 2686.55,4353.26 L 2658.49,4396.83 L 2642.91,4384.09 L 2668.5,4344.35 L 2686.55,4353.26 Z " />
<path stroke="transparent" fill="#000000" transform="matrix(0.0833333 0 0 0.0833333 -23.2083 -196)" d="M 2632.53,4326.59 L 2611.85,4358.7 L 2596.27,4345.95 L 2614.48,4317.67 L 2632.53,4326.59 Z " />
<path stroke="transparent" fill="#000000" transform="matrix(0.0833333 0 0 0.0833333 -23.2083 -196)" d="M 2578.51,4299.91 L 2565.21,4320.56 L 2549.63,4307.82 L 2560.46,4291 L 2578.51,4299.91 Z " />
<path stroke="transparent" fill="#000000" transform="matrix(0.0833333 0 0 0.0833333 -23.2083 -196)" d="M 3659.97,3653.3 L 3652.2,3671.72 L 3136.58,3454.16 L 3008.2,3378.28 L 3659.97,3653.3 Z " />
<path stroke="transparent" fill="#000000" transform="matrix(0.0833333 0 0 0.0833333 -23.2083 -196)" d="M 3630.18,3723.91 L 3622.4,3742.34 L 3064.11,3506.77 L 3071.88,3488.34 L 3630.18,3723.91 Z " />
<path stroke="transparent" fill="#000000" transform="matrix(0.0833333 0 0 0.0833333 -23.2083 -196)" d="M 1913.17,4479 L 1902.34,4495.81 L 1483.16,4225.91 L 1503.3,4215.09 L 1913.17,4479 Z " />
<path stroke="transparent" fill="#000000" transform="matrix(0.0833333 0 0 0.0833333 -23.2083 -196)" d="M 986.413,2815.61 L 1006.41,2815.61 L 1006.41,3290.28 L 986.413,3301.19 L 986.413,2815.61 Z " />
<path stroke="transparent" fill="#000000" transform="matrix(0.0833333 0 0 0.0833333 -23.2083 -196)" d="M 521.549,3554.05 L 513.614,3535.69 L 1031.64,3311.79 L 1039.58,3330.15 L 521.549,3554.05 Z " />
<path stroke="transparent" fill="#000000" transform="matrix(0.0833333 0 0 0.0833333 -23.2083 -196)" d="M 490.828,3482.97 L 482.893,3464.61 L 992.445,3244.37 L 1000.38,3262.73 L 490.828,3482.97 Z " />
<path stroke="transparent" fill="#000000" transform="matrix(0.0833333 0 0 0.0833333 -23.2083 -196)" d="M 1096.04,2656.15 L 1086.95,2638.34 L 1550.88,2401.53 L 1550.21,2424.33 L 1096.04,2656.15 Z " />
<path stroke="transparent" fill="#000000" transform="matrix(0.0833333 0 0 0.0833333 -23.2083 -196)" d="M 3586.86,4274.16 L 3484.36,4352.27 L 3112.87,4552.99 L 3103.36,4535.39 L 3586.86,4274.16 Z " />
<path stroke="transparent" fill="#000000" transform="matrix(0.0833333 0 0 0.0833333 -23.2083 -196)" d="M 3484.36,4352.27 L 3586.86,4274.16 L 4042.73,4609.79 L 4042.06,4621.68 L 4032.06,4627.8 L 3484.36,4352.27 Z " />
<path stroke="transparent" fill="#000000" transform="matrix(0.0833333 0 0 0.0833333 -23.2083 -196)" d="M 4460.74,4371.87 L 4470.63,4389.25 L 4052.06,4627.49 L 4042.06,4621.68 L 4042.73,4609.79 L 4460.74,4371.87 Z " />
<path stroke="transparent" fill="#000000" transform="matrix(0.0833333 0 0 0.0833333 -23.2083 -196)" d="M 4052.06,5242.58 L 4032.06,5254.21 L 4032.06,4627.8 L 4042.06,4621.68 L 4052.06,4627.49 L 4052.06,5242.58 Z " />
<path stroke="transparent" fill="#000000" transform="matrix(0.0833333 0 0 0.0833333 -23.2083 -196)" d="M 5096.06,4609.84 L 5096.73,4621.68 L 5086.73,4627.53 L 4661.28,4388.86 L 4671.07,4371.42 L 5096.06,4609.84 Z " />
<path stroke="transparent" fill="#000000" transform="matrix(0.0833333 0 0 0.0833333 -23.2083 -196)" d="M 4565.61,5534.96 L 4565.58,5546.44 L 4554.94,5551.89 L 4032.06,5254.21 L 4052.06,5242.58 L 4565.61,5534.96 Z " />
<path stroke="transparent" fill="#000000" transform="matrix(0.0833333 0 0 0.0833333 -23.2083 -196)" d="M 3660.16,5550.03 L 3597.96,5447.41 L 3616.27,5439.04 L 3676.05,5537.67 L 3660.16,5550.03 Z " />
<path stroke="transparent" fill="#000000" transform="matrix(0.0833333 0 0 0.0833333 -23.2083 -196)" d="M 3706.58,5513.93 L 3651.44,5422.96 L 3669.75,5414.59 L 3722.47,5501.57 L 3706.58,5513.93 Z " />
<path stroke="transparent" fill="#000000" transform="matrix(0.0833333 0 0 0.0833333 -23.2083 -196)" d="M 3752.99,5477.84 L 3704.91,5398.51 L 3723.23,5390.14 L 3768.89,5465.48 L 3752.99,5477.84 Z " />
<path stroke="transparent" fill="#000000" transform="matrix(0.0833333 0 0 0.0833333 -23.2083 -196)" d="M 3799.41,5441.74 L 3758.39,5374.06 L 3776.7,5365.69 L 3815.31,5429.38 L 3799.41,5441.74 Z " />
<path stroke="transparent" fill="#000000" transform="matrix(0.0833333 0 0 0.0833333 -23.2083 -196)" d="M 3845.83,5405.64 L 3811.87,5349.61 L 3830.18,5341.24 L 3861.72,5393.28 L 3845.83,5405.64 Z " />
<path stroke="transparent" fill="#000000" transform="matrix(0.0833333 0 0 0.0833333 -23.2083 -196)" d="M 3892.25,5369.55 L 3865.34,5325.16 L 3883.66,5316.79 L 3908.14,5357.19 L 3892.25,5369.55 Z " />
<path stroke="transparent" fill="#000000" transform="matrix(0.0833333 0 0 0.0833333 -23.2083 -196)" d="M 3938.67,5333.45 L 3918.82,5300.71 L 3937.13,5292.34 L 3954.56,5321.09 L 3938.67,5333.45 Z " />
<path stroke="transparent" fill="#000000" transform="matrix(0.0833333 0 0 0.0833333 -23.2083 -196)" d="M 3985.08,5297.35 L 3972.3,5276.26 L 3990.61,5267.89 L 4000.98,5284.99 L 3985.08,5297.35 Z " />
<path stroke="transparent" fill="#000000" transform="matrix(0.0833333 0 0 0.0833333 -23.2083 -196)" d="M 5479.2,4329.71 L 5539.55,4433.42 L 5106.73,4628.08 L 5096.73,4621.68 L 5096.06,4609.84 L 5479.2,4329.71 Z " />
<path stroke="transparent" fill="#000000" transform="matrix(0.0833333 0 0 0.0833333 -23.2083 -196)" d="M 5106.73,5254.25 L 5086.73,5242.54 L 5086.73,4627.53 L 5096.73,4621.68 L 5106.73,4628.08 L 5106.73,5254.25 Z " />
<path stroke="transparent" fill="#000000" transform="matrix(0.0833333 0 0 0.0833333 -23.2083 -196)" d="M 4619.27,6042.08 L 4499.28,6040.55 L 4554.94,5551.89 L 4565.58,5546.44 L 4576.06,5552.03 L 4619.27,6042.08 Z " />
<path stroke="transparent" fill="#000000" transform="matrix(0.0833333 0 0 0.0833333 -23.2083 -196)" d="M 5086.73,5242.54 L 5106.73,5254.25 L 4576.06,5552.03 L 4565.58,5546.44 L 4565.61,5534.96 L 5086.73,5242.54 Z " />
<path stroke="transparent" fill="#000000" transform="matrix(0.0833333 0 0 0.0833333 -23.2083 -196)" d="M 6140.19,4629.36 L 6139.75,4652.39 L 5703.02,4391.6 L 5713.28,4374.43 L 6140.19,4629.36 Z " />
<path stroke="transparent" fill="#000000" transform="matrix(0.0833333 0 0 0.0833333 -23.2083 -196)" d="M 5547.74,5447.8 L 5486.22,5550.83 L 5470.22,5538.61 L 5529.39,5439.52 L 5547.74,5447.8 Z " />
<path stroke="transparent" fill="#000000" transform="matrix(0.0833333 0 0 0.0833333 -23.2083 -196)" d="M 5493.29,5423.23 L 5438.76,5514.56 L 5422.76,5502.33 L 5474.94,5414.95 L 5493.29,5423.23 Z " />
<path stroke="transparent" fill="#000000" transform="matrix(0.0833333 0 0 0.0833333 -23.2083 -196)" d="M 5438.84,5398.66 L 5391.3,5478.28 L 5375.3,5466.06 L 5420.49,5390.37 L 5438.84,5398.66 Z " />
<path stroke="transparent" fill="#000000" transform="matrix(0.0833333 0 0 0.0833333 -23.2083 -196)" d="M 5384.4,5374.08 L 5343.84,5442.01 L 5327.85,5429.78 L 5366.05,5365.8 L 5384.4,5374.08 Z " />
<path stroke="transparent" fill="#000000" transform="matrix(0.0833333 0 0 0.0833333 -23.2083 -196)" d="M 5329.95,5349.51 L 5296.38,5405.74 L 5280.39,5393.51 L 5311.6,5341.23 L 5329.95,5349.51 Z " />
<path stroke="transparent" fill="#000000" transform="matrix(0.0833333 0 0 0.0833333 -23.2083 -196)" d="M 5275.5,5324.94 L 5248.92,5369.46 L 5232.93,5357.24 L 5257.15,5316.66 L 5275.5,5324.94 Z " />
<path stroke="transparent" fill="#000000" transform="matrix(0.0833333 0 0 0.0833333 -23.2083 -196)" d="M 5221.06,5300.37 L 5201.46,5333.19 L 5185.47,5320.96 L 5202.71,5292.09 L 5221.06,5300.37 Z " />
<path stroke="transparent" fill="#000000" transform="matrix(0.0833333 0 0 0.0833333 -23.2083 -196)" d="M 5166.61,5275.8 L 5154,5296.91 L 5138.01,5284.69 L 5148.26,5267.52 L 5166.61,5275.8 Z " />
<path stroke="transparent" fill="#000000" transform="matrix(0.0833333 0 0 0.0833333 -23.2083 -196)" d="M 6668.83,4340.57 L 6678.75,4346.54 L 6678.84,4357.89 L 6139.75,4652.39 L 6140.19,4629.36 L 6668.83,4340.57 Z " />
<path stroke="transparent" fill="#000000" transform="matrix(0.0833333 0 0 0.0833333 -23.2083 -196)" d="M 6192.02,5131.24 L 6172.02,5131.49 L 6165.49,4621.6 L 6185.49,4621.34 L 6192.02,5131.24 Z " />
<path stroke="transparent" fill="#000000" transform="matrix(0.0833333 0 0 0.0833333 -23.2083 -196)" d="M 6120.49,5132.15 L 6100.49,5132.41 L 6093.92,4619.48 L 6113.92,4619.22 L 6120.49,5132.15 Z " />
<path stroke="transparent" fill="#000000" transform="matrix(0.0833333 0 0 0.0833333 -23.2083 -196)" d="M 7251.79,4637.13 L 7252.09,4659.9 L 6678.84,4357.89 L 6678.75,4346.54 L 6688.83,4340.55 L 7251.79,4637.13 Z " />
<path stroke="transparent" fill="#000000" transform="matrix(0.0833333 0 0 0.0833333 -23.2083 -196)" d="M 6676.54,3744.54 L 6696.39,3756.34 L 6688.83,4340.55 L 6678.75,4346.54 L 6668.83,4340.57 L 6676.54,3744.54 Z " />
<path stroke="transparent" fill="#000000" transform="matrix(0.0833333 0 0 0.0833333 -23.2083 -196)" d="M 6747.46,3792.52 L 6767.46,3792.78 L 6760.85,4303.79 L 6740.85,4303.54 L 6747.46,3792.52 Z " />
<path stroke="transparent" fill="#000000" transform="matrix(0.0833333 0 0 0.0833333 -23.2083 -196)" d="M 7746.4,4359.81 L 7756.4,4365.67 L 7756.32,4377.17 L 7252.09,4659.9 L 7251.79,4637.13 L 7746.4,4359.81 Z " />
<path stroke="transparent" fill="#000000" transform="matrix(0.0833333 0 0 0.0833333 -23.2083 -196)" d="M 7682.11,4316.29 L 7691.89,4333.74 L 7255.8,4578.25 L 7246.02,4560.81 L 7682.11,4316.29 Z " />
<path stroke="transparent" fill="#000000" transform="matrix(0.0833333 0 0 0.0833333 -23.2083 -196)" d="M 7180.85,3461.74 L 7190.85,3467.59 L 7190.79,3479.09 L 6696.39,3756.34 L 6676.54,3744.54 L 7180.85,3461.74 Z " />
<path stroke="transparent" fill="#000000" transform="matrix(0.0833333 0 0 0.0833333 -23.2083 -196)" d="M 7746.4,3798.2 L 7756.4,3792.41 L 7766.4,3798.41 L 7766.4,4359.9 L 7756.4,4365.67 L 7746.4,4359.81 L 7746.4,3798.2 Z " />
<path stroke="transparent" fill="#000000" transform="matrix(0.0833333 0 0 0.0833333 -23.2083 -196)" d="M 8184.68,4601.62 L 8174.67,4618.93 L 7756.32,4377.17 L 7756.4,4365.67 L 7766.4,4359.9 L 8184.68,4601.62 Z " />
<path stroke="transparent" fill="#000000" transform="matrix(0.0833333 0 0 0.0833333 -23.2083 -196)" d="M 7180.85,3014.31 L 7200.85,3014.31 L 7200.85,3461.81 L 7190.85,3467.59 L 7180.85,3461.74 L 7180.85,3014.31 Z " />
<path stroke="transparent" fill="#000000" transform="matrix(0.0833333 0 0 0.0833333 -23.2083 -196)" d="M 7756.58,3780.98 L 7756.4,3792.41 L 7746.4,3798.2 L 7190.79,3479.09 L 7190.85,3467.59 L 7200.85,3461.81 L 7756.58,3780.98 Z " />
<path stroke="transparent" fill="#000000" transform="matrix(0.0833333 0 0 0.0833333 -23.2083 -196)" d="M 7683.12,3829.04 L 7673.15,3846.38 L 7185.41,3566.25 L 7195.37,3548.91 L 7683.12,3829.04 Z " />
<path stroke="transparent" fill="#000000" transform="matrix(0.0833333 0 0 0.0833333 -23.2083 -196)" d="M 8277.55,3503.7 L 8287.55,3509.7 L 8287.65,3520.98 L 7766.4,3798.41 L 7756.4,3792.41 L 7756.58,3780.98 L 8277.55,3503.7 Z " />
<path stroke="transparent" fill="#000000" transform="matrix(0.0833333 0 0 0.0833333 -23.2083 -196)" d="M 8894.77,3807.84 L 8895.5,3830.65 L 8287.65,3520.98 L 8287.55,3509.7 L 8297.55,3503.58 L 8894.77,3807.84 Z " />
<path stroke="transparent" fill="#000000" transform="matrix(0.0833333 0 0 0.0833333 -23.2083 -196)" d="M 8896.72,3716.99 L 8887.64,3734.82 L 8364.84,3468.47 L 8373.91,3450.65 L 8896.72,3716.99 Z " />
<path stroke="transparent" fill="#000000" transform="matrix(0.0833333 0 0 0.0833333 -23.2083 -196)" d="M 8277.55,2888.34 L 8297.55,2900.62 L 8297.55,3503.58 L 8287.55,3509.7 L 8277.55,3503.7 L 8277.55,2888.34 Z " />
<path stroke="transparent" fill="#000000" transform="matrix(0.0833333 0 0 0.0833333 -23.2083 -196)" d="M 9362.83,3530.77 L 9372.83,3536.47 L 9373.01,3547.98 L 8895.5,3830.65 L 8894.77,3807.84 L 9362.83,3530.77 Z " />
<path stroke="transparent" fill="#000000" transform="matrix(0.0833333 0 0 0.0833333 -23.2083 -196)" d="M 8845.95,2600.21 L 8845.12,2623.05 L 8297.55,2900.62 L 8277.55,2888.34 L 8845.95,2600.21 Z " />
<path stroke="transparent" fill="#000000" transform="matrix(0.0833333 0 0 0.0833333 -23.2083 -196)" d="M 8837.91,2688.45 L 8846.95,2706.29 L 8367.14,2949.51 L 8358.1,2931.67 L 8837.91,2688.45 Z " />
<path stroke="transparent" fill="#000000" transform="matrix(0.0833333 0 0 0.0833333 -23.2083 -196)" d="M 9362.83,2934.46 L 9382.83,2923.15 L 9382.83,3530.55 L 9372.83,3536.47 L 9362.83,3530.77 L 9362.83,2934.46 Z " />
<path stroke="transparent" fill="#000000" transform="matrix(0.0833333 0 0 0.0833333 -23.2083 -196)" d="M 9289.91,2970.04 L 9309.91,2970.04 L 9309.91,3494.9 L 9289.91,3494.9 L 9289.91,2970.04 Z " />
<path stroke="transparent" fill="#000000" transform="matrix(0.0833333 0 0 0.0833333 -23.2083 -196)" d="M 9826.59,3774.29 L 9816.97,3791.82 L 9373.01,3547.98 L 9372.83,3536.47 L 9382.83,3530.55 L 9826.59,3774.29 Z " />
<path stroke="transparent" fill="#000000" transform="matrix(0.0833333 0 0 0.0833333 -23.2083 -196)" d="M 9382.83,2923.15 L 9362.83,2934.46 L 8845.12,2623.05 L 8845.95,2600.21 L 9382.83,2923.15 Z " />
</svg>
