<?xml version="1.0" standalone="no" ?>
<!DOCTYPE svg PUBLIC "-//W3C//DTD SVG 1.1//EN" "http://www.w3.org/Graphics/SVG/1.1/DTD/svg11.dtd">
<svg width="484px" height="247px" viewBox="0 0 484 247" style="background-color: #ffffff00" xmlns="http://www.w3.org/2000/svg" xmlns:xlink="http://www.w3.org/1999/xlink" version="1.1" >
<text x="0" y="0" stroke="transparent" fill="#000000" transform="matrix(0.0833333 0 0 0.0833333 40.7179 18.0257)" style="font:normal normal normal 200px 'Arial'" >
O</text>
<text x="0" y="0" stroke="transparent" fill="#000000" transform="matrix(0.0833333 0 0 0.0833333 213.923 18.0252)" style="font:normal normal normal 200px 'Arial'" >
O</text>
<text x="0" y="0" stroke="transparent" fill="#000000" transform="matrix(0.0833333 0 0 0.0833333 343.829 243.029)" style="font:normal normal normal 200px 'Arial'" >
OH</text>
<text x="0" y="0" stroke="transparent" fill="#000000" transform="matrix(0.0833333 0 0 0.0833333 430.433 193.028)" style="font:normal normal normal 200px 'Arial'" >
O</text>
<text x="0" y="0" stroke="transparent" fill="#000000" transform="matrix(0.0833333 0 0 0.0833333 430.433 93.0253)" style="font:normal normal normal 200px 'Arial'" >
O</text>
<text x="0" y="0" stroke="transparent" fill="#000000" transform="matrix(0.0833333 0 0 0.0833333 343.83 43.0264)" style="font:normal normal normal 200px 'Arial'" >
OH</text>
<path stroke="transparent" fill="#000000" transform="matrix(0.0833333 0 0 0.0833333 -175.25 -303)" d="M 3189.23,4062.75 L 3189.23,4074.3 L 3179.23,4080.08 L 2764.65,3840.72 L 2774.65,3823.4 L 3189.23,4062.75 Z " />
<path stroke="transparent" fill="#000000" transform="matrix(0.0833333 0 0 0.0833333 -175.25 -303)" d="M 3199.23,4668.53 L 3179.23,4680.07 L 3179.23,4080.08 L 3189.23,4074.3 L 3199.23,4080.08 L 3199.23,4668.53 Z " />
<path stroke="transparent" fill="#000000" transform="matrix(0.0833333 0 0 0.0833333 -175.25 -303)" d="M 3271.23,4632.73 L 3251.23,4632.73 L 3251.23,4115.87 L 3271.23,4115.87 L 3271.23,4632.73 Z " />
<path stroke="transparent" fill="#000000" transform="matrix(0.0833333 0 0 0.0833333 -175.25 -303)" d="M 3708.81,4962.77 L 3708.81,4985.86 L 3179.23,4680.07 L 3199.23,4668.53 L 3708.81,4962.77 Z " />
<path stroke="transparent" fill="#000000" transform="matrix(0.0833333 0 0 0.0833333 -175.25 -303)" d="M 4218.44,4668.53 L 4228.44,4674.31 L 4228.44,4685.86 L 3708.81,4985.86 L 3708.81,4962.77 L 4218.44,4668.53 Z " />
<path stroke="transparent" fill="#000000" transform="matrix(0.0833333 0 0 0.0833333 -175.25 -303)" d="M 4151.44,4624.08 L 4161.44,4641.4 L 3713.81,4899.83 L 3703.81,4882.51 L 4151.44,4624.08 Z " />
<path stroke="transparent" fill="#000000" transform="matrix(0.0833333 0 0 0.0833333 -175.25 -303)" d="M 4218.44,4080.08 L 4228.44,4074.31 L 4238.44,4080.08 L 4238.44,4668.54 L 4228.44,4674.31 L 4218.44,4668.53 L 4218.44,4080.08 Z " />
<path stroke="transparent" fill="#000000" transform="matrix(0.0833333 0 0 0.0833333 -175.25 -303)" d="M 3708.86,3785.84 L 3708.86,3762.75 L 4228.45,4062.76 L 4228.44,4074.31 L 4218.44,4080.08 L 3708.86,3785.84 Z " />
<path stroke="transparent" fill="#000000" transform="matrix(0.0833333 0 0 0.0833333 -175.25 -303)" d="M 3703.86,3866.09 L 3713.86,3848.77 L 4161.45,4107.21 L 4151.45,4124.53 L 3703.86,3866.09 Z " />
<path stroke="transparent" fill="#000000" transform="matrix(0.0833333 0 0 0.0833333 -175.25 -303)" d="M 3708.86,3762.75 L 3708.86,3785.84 L 3199.23,4080.08 L 3189.23,4074.3 L 3189.23,4062.75 L 3708.86,3762.75 Z " />
<path stroke="transparent" fill="#000000" transform="matrix(0.0833333 0 0 0.0833333 -175.25 -303)" d="M 4643.47,3823.15 L 4653.47,3840.47 L 4238.44,4080.08 L 4228.44,4074.31 L 4228.45,4062.76 L 4643.47,3823.15 Z " />
<path stroke="transparent" fill="#000000" transform="matrix(0.0833333 0 0 0.0833333 -175.25 -303)" d="M 5277.69,4068.52 L 5257.69,4080.07 L 4843.11,3840.72 L 4853.11,3823.4 L 5277.69,4068.52 Z " />
<path stroke="transparent" fill="#000000" transform="matrix(0.0833333 0 0 0.0833333 -175.25 -303)" d="M 5257.69,4080.07 L 5277.69,4068.52 L 5277.7,4668.03 L 5267.7,4674.33 L 5257.7,4668.56 L 5257.69,4080.07 Z " />
<path stroke="transparent" fill="#000000" transform="matrix(0.0833333 0 0 0.0833333 -175.25 -303)" d="M 5839.34,4932.74 L 5787.32,4974.32 L 5777.32,5040.17 L 5267.24,4686.14 L 5267.7,4674.33 L 5277.7,4668.03 L 5839.34,4932.74 Z " />
<path stroke="transparent" fill="#000000" transform="matrix(0.0833333 0 0 0.0833333 -175.25 -303)" d="M 5797.31,5568.55 L 5777.31,5580.1 L 5777.32,5040.17 L 5787.32,4974.32 L 5797.32,4980.1 L 5797.31,5568.55 Z " />
<path stroke="transparent" fill="#000000" transform="matrix(0.0833333 0 0 0.0833333 -175.25 -303)" d="M 5869.31,5532.76 L 5849.31,5532.75 L 5849.32,5015.89 L 5869.32,5015.89 L 5869.31,5532.76 Z " />
<path stroke="transparent" fill="#000000" transform="matrix(0.0833333 0 0 0.0833333 -175.25 -303)" d="M 6306.95,5862.8 L 6306.95,5874.35 L 6296.95,5880.12 L 5777.31,5580.1 L 5797.31,5568.55 L 6306.95,5862.8 Z " />
<path stroke="transparent" fill="#000000" transform="matrix(0.0833333 0 0 0.0833333 -175.25 -303)" d="M 6316.95,6369.18 L 6296.95,6369.18 L 6296.95,5880.12 L 6306.95,5874.35 L 6316.95,5880.12 L 6316.95,6369.18 Z " />
<path stroke="transparent" fill="#000000" transform="matrix(0.0833333 0 0 0.0833333 -175.25 -303)" d="M 6816.58,5568.57 L 6826.58,5574.34 L 6826.58,5585.89 L 6316.95,5880.12 L 6306.95,5874.35 L 6306.95,5862.8 L 6816.58,5568.57 Z " />
<path stroke="transparent" fill="#000000" transform="matrix(0.0833333 0 0 0.0833333 -175.25 -303)" d="M 6749.58,5524.11 L 6759.58,5541.44 L 6311.95,5799.87 L 6301.95,5782.55 L 6749.58,5524.11 Z " />
<path stroke="transparent" fill="#000000" transform="matrix(0.0833333 0 0 0.0833333 -175.25 -303)" d="M 7258.58,5812.21 L 7248.58,5829.53 L 6826.58,5585.89 L 6826.58,5574.34 L 6836.58,5568.57 L 7258.58,5812.21 Z " />
<path stroke="transparent" fill="#000000" transform="matrix(0.0833333 0 0 0.0833333 -175.25 -303)" d="M 7860.83,5565.67 L 7870.83,5582.99 L 7443.82,5829.52 L 7433.82,5812.2 L 7860.83,5565.67 Z " />
<path stroke="transparent" fill="#000000" transform="matrix(0.0833333 0 0 0.0833333 -175.25 -303)" d="M 6816.57,4980.08 L 6826.57,4974.31 L 6836.57,4980.08 L 6836.58,5568.57 L 6826.58,5574.34 L 6816.58,5568.57 L 6816.57,4980.08 Z " />
<path stroke="transparent" fill="#000000" transform="matrix(0.0833333 0 0 0.0833333 -175.25 -303)" d="M 7241.59,4723.15 L 7251.59,4740.47 L 6836.57,4980.08 L 6826.57,4974.31 L 6826.57,4962.76 L 7241.59,4723.15 Z " />
<path stroke="transparent" fill="#000000" transform="matrix(0.0833333 0 0 0.0833333 -175.25 -303)" d="M 6306.95,4685.86 L 6306.95,4674.32 L 6316.95,4668.54 L 6826.57,4962.76 L 6826.57,4974.31 L 6816.57,4980.08 L 6306.95,4685.86 Z " />
<path stroke="transparent" fill="#000000" transform="matrix(0.0833333 0 0 0.0833333 -175.25 -303)" d="M 6301.95,4766.12 L 6311.95,4748.79 L 6759.57,5007.22 L 6749.57,5024.54 L 6301.95,4766.12 Z " />
<path stroke="transparent" fill="#000000" transform="matrix(0.0833333 0 0 0.0833333 -175.25 -303)" d="M 6296.95,4668.54 L 6306.95,4674.32 L 6306.95,4685.86 L 5797.32,4980.1 L 5787.32,4974.32 L 5839.34,4932.74 L 6296.95,4668.54 Z " />
<path stroke="transparent" fill="#000000" transform="matrix(0.0833333 0 0 0.0833333 -175.25 -303)" d="M 6296.95,4194.15 L 6316.95,4194.15 L 6316.95,4668.54 L 6306.95,4674.32 L 6296.95,4668.54 L 6296.95,4194.15 Z " />
<path stroke="transparent" fill="#000000" transform="matrix(0.0833333 0 0 0.0833333 -175.25 -303)" d="M 4748.08,4985.88 L 4748.08,4962.79 L 5257.7,4668.56 L 5267.7,4674.33 L 5267.24,4686.14 L 4748.08,4985.88 Z " />
<path stroke="transparent" fill="#000000" transform="matrix(0.0833333 0 0 0.0833333 -175.25 -303)" d="M 4748.08,4962.79 L 4748.08,4985.88 L 4228.44,4685.86 L 4228.44,4674.31 L 4238.44,4668.54 L 4748.08,4962.79 Z " />
<path stroke="transparent" fill="#000000" transform="matrix(0.0833333 0 0 0.0833333 -175.25 -303)" d="M 2155,4082.97 L 2145,4065.65 L 2565.01,3823.15 L 2575.01,3840.47 L 2155,4082.97 Z " />
<path stroke="transparent" fill="#000000" transform="matrix(0.0833333 0 0 0.0833333 -175.25 -303)" d="M 7870.81,4965.65 L 7860.81,4982.97 L 7441.23,4740.72 L 7451.23,4723.4 L 7870.81,4965.65 Z " />
</svg>
