<?xml version="1.0" standalone="no" ?>
<!DOCTYPE svg PUBLIC "-//W3C//DTD SVG 1.1//EN" "http://www.w3.org/Graphics/SVG/1.1/DTD/svg11.dtd">
<svg width="450px" height="475px" viewBox="0 0 450 475" style="background-color: #ffffff00" xmlns="http://www.w3.org/2000/svg" xmlns:xlink="http://www.w3.org/1999/xlink" version="1.1" >
<text x="0" y="0" stroke="transparent" fill="#000000" transform="matrix(0.0833333 0 0 0.0833333 26.143 245.96)" style="font:normal normal normal 200px 'Arial'" >
O</text>
<text x="0" y="0" stroke="transparent" fill="#000000" transform="matrix(0.0833333 0 0 0.0833333 94.4405 77.662)" style="font:normal normal normal 200px 'Arial'" >
OH</text>
<text x="0" y="0" stroke="transparent" fill="#000000" transform="matrix(0.0833333 0 0 0.0833333 141.932 71.1105)" style="font:normal normal normal 200px 'Arial'" >
HO</text>
<text x="0" y="0" stroke="transparent" fill="#000000" transform="matrix(0.0833333 0 0 0.0833333 203.084 287.373)" style="font:normal normal normal 200px 'Arial'" >
HO</text>
<text x="0" y="0" stroke="transparent" fill="#000000" transform="matrix(0.0833333 0 0 0.0833333 3.34589 189.717)" style="font:normal normal normal 200px 'Arial'" >
H</text>
<text x="0" y="0" stroke="transparent" fill="#000000" transform="matrix(0.0833333 0 0 0.0833333 94.9405 177.663)" style="font:normal normal normal 200px 'Arial'" >
H</text>
<text x="0" y="0" stroke="transparent" fill="#000000" transform="matrix(0.0833333 0 0 0.0833333 310.945 18.3889)" style="font:normal normal normal 200px 'Arial'" >
O</text>
<text x="0" y="0" stroke="transparent" fill="#000000" transform="matrix(0.0833333 0 0 0.0833333 242.235 71.1105)" style="font:normal normal normal 200px 'Arial'" >
O</text>
<text x="0" y="0" stroke="transparent" fill="#000000" transform="matrix(0.0833333 0 0 0.0833333 386.697 161.954)" style="font:normal normal normal 200px 'Arial'" >
O</text>
<text x="0" y="0" stroke="transparent" fill="#000000" transform="matrix(0.0833333 0 0 0.0833333 353.557 241.966)" style="font:normal normal normal 200px 'Arial'" >
O</text>
<text x="0" y="0" stroke="transparent" fill="#000000" transform="matrix(0.0833333 0 0 0.0833333 130.671 354.894)" style="font:normal normal normal 200px 'Arial'" >
O</text>
<text x="0" y="0" stroke="transparent" fill="#000000" transform="matrix(0.0833333 0 0 0.0833333 123.119 268.621)" style="font:normal normal normal 200px 'Arial'" >
O</text>
<text x="0" y="0" stroke="transparent" fill="#000000" transform="matrix(0.0833333 0 0 0.0833333 228.235 331.209)" style="font:normal normal normal 200px 'Arial'" >
O</text>
<text x="0" y="0" stroke="transparent" fill="#000000" transform="matrix(0.0833333 0 0 0.0833333 148.229 298.07)" style="font:normal normal normal 200px 'Arial'" >
O</text>
<path stroke="transparent" fill="#000000" transform="matrix(0.0833333 0 0 0.0833333 -211.208 -122)" d="M 3210.33,3825.48 L 3226.22,3817.95 L 3229.88,3831.61 L 2988.13,4250.29 L 2970.81,4240.29 L 3210.33,3825.48 Z " />
<path stroke="transparent" fill="#000000" transform="matrix(0.0833333 0 0 0.0833333 -211.208 -122)" d="M 3745.79,4106.41 L 3745.79,4117.96 L 3732.13,4121.62 L 3229.88,3831.61 L 3226.22,3817.95 L 3236.22,3812.18 L 3745.79,4106.41 Z " />
<path stroke="transparent" fill="#000000" transform="matrix(0.0833333 0 0 0.0833333 -211.208 -122)" d="M 3449.44,4651.18 L 3442.12,4623.86 L 3732.13,4121.62 L 3745.79,4117.96 L 3745.68,4138.15 L 3449.44,4651.18 Z " />
<path stroke="transparent" fill="#000000" transform="matrix(0.0833333 0 0 0.0833333 -211.208 -122)" d="M 3442.12,4623.86 L 3449.44,4651.18 L 3021.25,4403.94 L 3031.25,4386.62 L 3442.12,4623.86 Z " />
<path stroke="transparent" fill="#000000" transform="matrix(0.0833333 0 0 0.0833333 -211.208 -122)" d="M 4255.43,3223.72 L 4265.43,3217.95 L 4275.43,3222.09 L 4275.43,3813.81 L 4265.43,3817.95 L 4255.43,3798.38 L 4255.43,3223.72 Z " />
<path stroke="transparent" fill="#000000" transform="matrix(0.0833333 0 0 0.0833333 -211.208 -122)" d="M 3745.79,2929.5 L 3745.79,2906.4 L 4263.78,3205.45 L 4265.43,3217.95 L 4255.43,3223.72 L 3745.79,2929.5 Z " />
<path stroke="transparent" fill="#000000" transform="matrix(0.0833333 0 0 0.0833333 -211.208 -122)" d="M 3236.22,3223.72 L 3216.22,3212.18 L 3745.79,2906.4 L 3745.79,2929.5 L 3236.22,3223.72 Z " />
<path stroke="transparent" fill="#000000" transform="matrix(0.0833333 0 0 0.0833333 -211.208 -122)" d="M 5293.87,2783.66 L 5285.58,2803.66 L 4693.86,2803.66 L 4689.72,2793.66 L 4697.13,2783.66 L 5293.87,2783.66 Z " />
<path stroke="transparent" fill="#000000" transform="matrix(0.0833333 0 0 0.0833333 -211.208 -122)" d="M 5719.86,3209.72 L 5713.94,3217.95 L 5703.94,3222.09 L 5285.58,2803.66 L 5293.87,2783.66 L 5719.86,3209.72 Z " />
<path stroke="transparent" fill="#000000" transform="matrix(0.0833333 0 0 0.0833333 -211.208 -122)" d="M 6237.45,3467.05 L 6237.8,3478.39 L 6228.45,3484.91 L 5723.94,3234.09 L 5713.94,3217.95 L 5719.86,3209.72 L 6237.45,3467.05 Z " />
<path stroke="transparent" fill="#000000" transform="matrix(0.0833333 0 0 0.0833333 -211.208 -122)" d="M 6176.6,3515.19 L 6167.7,3533.1 L 5779.7,3340.21 L 5788.6,3322.3 L 6176.6,3515.19 Z " />
<path stroke="transparent" fill="#000000" transform="matrix(0.0833333 0 0 0.0833333 -211.208 -122)" d="M 6310.09,4052.38 L 6300.86,4059.99 L 6290.33,4055.63 L 6262.2,3796.2 L 6282.03,3793.59 L 6310.09,4052.38 L 6310.09,4052.38 Z " />
<path stroke="transparent" fill="#000000" transform="matrix(0.0833333 0 0 0.0833333 -211.208 -122)" d="M 6228.45,3484.91 L 6237.8,3478.39 L 6248.45,3483.79 L 6271.25,3694.15 L 6251.42,3696.76 L 6228.45,3484.91 L 6228.45,3484.91 Z " />
<path stroke="transparent" fill="#000000" transform="matrix(0.0833333 0 0 0.0833333 -211.208 -122)" d="M 5847.02,4437.82 L 5842.98,4415.4 L 6007.74,4282.9 L 6019.92,4298.77 L 5847.02,4437.82 L 5847.02,4437.82 Z " />
<path stroke="transparent" fill="#000000" transform="matrix(0.0833333 0 0 0.0833333 -211.208 -122)" d="M 6290.33,4055.63 L 6300.86,4059.99 L 6302,4071.91 L 6097.87,4236.08 L 6085.69,4220.21 L 6290.33,4055.63 L 6290.33,4055.63 Z " />
<path stroke="transparent" fill="#000000" transform="matrix(0.0833333 0 0 0.0833333 -211.208 -122)" d="M 5297.72,4255.37 L 5289.72,4242.18 L 5291.34,4232.18 L 5842.98,4415.4 L 5847.02,4437.82 L 5297.72,4255.37 Z " />
<path stroke="transparent" fill="#000000" transform="matrix(0.0833333 0 0 0.0833333 -211.208 -122)" d="M 4696.92,4252.18 L 4689.72,4242.18 L 4693.86,4232.18 L 5291.34,4232.18 L 5289.72,4242.18 L 5277.98,4252.18 L 4696.92,4252.18 Z " />
<path stroke="transparent" fill="#000000" transform="matrix(0.0833333 0 0 0.0833333 -211.208 -122)" d="M 4263.78,3830.45 L 4265.43,3817.95 L 4275.43,3813.81 L 4693.86,4232.18 L 4689.72,4242.18 L 4677.55,4244.15 L 4263.78,3830.45 Z " />
<path stroke="transparent" fill="#000000" transform="matrix(0.0833333 0 0 0.0833333 -211.208 -122)" d="M 4275.43,3222.09 L 4265.43,3217.95 L 4263.78,3205.45 L 4677.41,2791.82 L 4689.72,2793.66 L 4693.86,2803.66 L 4275.43,3222.09 Z " />
<path stroke="transparent" fill="#000000" transform="matrix(0.0833333 0 0 0.0833333 -211.208 -122)" d="M 3236.22,3812.18 L 3226.22,3817.95 L 3216.22,3803.49 L 3216.22,3212.18 L 3236.22,3223.72 L 3236.22,3812.18 Z " />
<path stroke="transparent" fill="#000000" transform="matrix(0.0833333 0 0 0.0833333 -211.208 -122)" d="M 3761.21,4120.6 L 3745.79,4117.96 L 3745.79,4106.41 L 4243.47,3819.08 L 4265.43,3817.95 L 4263.78,3830.45 L 3761.21,4120.6 Z " />
<path stroke="transparent" fill="#000000" transform="matrix(0.0833333 0 0 0.0833333 -211.208 -122)" d="M 5723.94,3806.55 L 5713.94,3817.95 L 5703.94,3821.35 L 5703.94,3222.09 L 5713.94,3217.95 L 5723.94,3234.09 L 5723.94,3806.55 Z " />
<path stroke="transparent" fill="#000000" transform="matrix(0.0833333 0 0 0.0833333 -211.208 -122)" d="M 5633.27,3813.77 L 5718.13,3898.62 L 5702.55,3911.33 L 5620.57,3829.35 L 5633.27,3813.77 Z " />
<path stroke="transparent" fill="#000000" transform="matrix(0.0833333 0 0 0.0833333 -211.208 -122)" d="M 5595.81,3859.71 L 5672.19,3936.08 L 5656.61,3948.79 L 5583.11,3875.29 L 5595.81,3859.71 Z " />
<path stroke="transparent" fill="#000000" transform="matrix(0.0833333 0 0 0.0833333 -211.208 -122)" d="M 5558.36,3905.65 L 5626.25,3973.54 L 5610.67,3986.25 L 5545.65,3921.23 L 5558.36,3905.65 Z " />
<path stroke="transparent" fill="#000000" transform="matrix(0.0833333 0 0 0.0833333 -211.208 -122)" d="M 5520.9,3951.59 L 5580.31,4011 L 5564.73,4023.71 L 5508.19,3967.17 L 5520.9,3951.59 Z " />
<path stroke="transparent" fill="#000000" transform="matrix(0.0833333 0 0 0.0833333 -211.208 -122)" d="M 5483.44,3997.53 L 5534.37,4048.46 L 5518.79,4061.17 L 5470.73,4013.11 L 5483.44,3997.53 Z " />
<path stroke="transparent" fill="#000000" transform="matrix(0.0833333 0 0 0.0833333 -211.208 -122)" d="M 5445.98,4043.46 L 5488.43,4085.92 L 5472.85,4098.62 L 5433.27,4059.04 L 5445.98,4043.46 Z " />
<path stroke="transparent" fill="#000000" transform="matrix(0.0833333 0 0 0.0833333 -211.208 -122)" d="M 5408.52,4089.4 L 5442.5,4123.38 L 5426.92,4136.08 L 5395.81,4104.98 L 5408.52,4089.4 Z " />
<path stroke="transparent" fill="#000000" transform="matrix(0.0833333 0 0 0.0833333 -211.208 -122)" d="M 5371.06,4135.34 L 5396.56,4160.84 L 5380.98,4173.54 L 5358.35,4150.92 L 5371.06,4135.34 Z " />
<path stroke="transparent" fill="#000000" transform="matrix(0.0833333 0 0 0.0833333 -211.208 -122)" d="M 5333.6,4181.28 L 5350.62,4198.3 L 5335.04,4211 L 5320.9,4196.86 L 5333.6,4181.28 Z " />
<path stroke="transparent" fill="#000000" transform="matrix(0.0833333 0 0 0.0833333 -211.208 -122)" d="M 3685.79,2437.78 L 3805.79,2437.78 L 3803.44,2457.78 L 3688.13,2457.78 L 3685.79,2437.78 Z " />
<path stroke="transparent" fill="#000000" transform="matrix(0.0833333 0 0 0.0833333 -211.208 -122)" d="M 3692.59,2495.8 L 3798.98,2495.8 L 3796.63,2515.8 L 3694.94,2515.8 L 3692.59,2495.8 Z " />
<path stroke="transparent" fill="#000000" transform="matrix(0.0833333 0 0 0.0833333 -211.208 -122)" d="M 3699.4,2553.82 L 3792.17,2553.82 L 3789.82,2573.82 L 3701.75,2573.82 L 3699.4,2553.82 Z " />
<path stroke="transparent" fill="#000000" transform="matrix(0.0833333 0 0 0.0833333 -211.208 -122)" d="M 3706.21,2611.84 L 3785.36,2611.84 L 3783.02,2631.84 L 3708.55,2631.84 L 3706.21,2611.84 Z " />
<path stroke="transparent" fill="#000000" transform="matrix(0.0833333 0 0 0.0833333 -211.208 -122)" d="M 3713.02,2669.86 L 3778.55,2669.86 L 3776.21,2689.86 L 3715.36,2689.86 L 3713.02,2669.86 Z " />
<path stroke="transparent" fill="#000000" transform="matrix(0.0833333 0 0 0.0833333 -211.208 -122)" d="M 3719.82,2727.89 L 3771.75,2727.89 L 3769.4,2747.89 L 3722.17,2747.89 L 3719.82,2727.89 Z " />
<path stroke="transparent" fill="#000000" transform="matrix(0.0833333 0 0 0.0833333 -211.208 -122)" d="M 3726.63,2785.91 L 3764.94,2785.91 L 3762.59,2805.91 L 3728.98,2805.91 L 3726.63,2785.91 Z " />
<path stroke="transparent" fill="#000000" transform="matrix(0.0833333 0 0 0.0833333 -211.208 -122)" d="M 3733.44,2843.93 L 3758.13,2843.93 L 3755.79,2863.93 L 3735.79,2863.93 L 3733.44,2843.93 Z " />
<path stroke="transparent" fill="#000000" transform="matrix(0.0833333 0 0 0.0833333 -211.208 -122)" d="M 4451.25,2374.72 L 4562.12,2328.8 L 4697.13,2783.66 L 4689.72,2793.66 L 4677.41,2791.82 L 4451.25,2374.72 Z " />
<path stroke="transparent" fill="#000000" transform="matrix(0.0833333 0 0 0.0833333 -211.208 -122)" d="M 5220.47,4733.07 L 5200.72,4729.88 L 5277.98,4252.18 L 5289.72,4242.18 L 5297.72,4255.37 L 5220.47,4733.07 Z " />
<path stroke="transparent" fill="#000000" transform="matrix(0.0833333 0 0 0.0833333 -211.208 -122)" d="M 6307.55,3729.71 L 6310.16,3749.54 L 5732.42,3825.61 L 5713.94,3817.95 L 5723.94,3806.55 L 6307.55,3729.71 L 6307.55,3729.71 Z " />
<path stroke="transparent" fill="#000000" transform="matrix(0.0833333 0 0 0.0833333 -211.208 -122)" d="M 6087.19,4287.87 L 6071.32,4300.05 L 5703.94,3821.35 L 5713.94,3817.95 L 5732.42,3825.61 L 6087.19,4287.87 Z " />
<path stroke="transparent" fill="#000000" transform="matrix(0.0833333 0 0 0.0833333 -211.208 -122)" d="M 6752.44,3169.73 L 6762.44,3187.05 L 6248.45,3483.79 L 6237.8,3478.39 L 6237.45,3467.05 L 6752.44,3169.73 Z " />
<path stroke="transparent" fill="#000000" transform="matrix(0.0833333 0 0 0.0833333 -211.208 -122)" d="M 4127.61,2630.87 L 4246.58,2615.2 L 4247.38,2635.27 L 4132.04,2650.46 L 4127.61,2630.87 Z " />
<path stroke="transparent" fill="#000000" transform="matrix(0.0833333 0 0 0.0833333 -211.208 -122)" d="M 4140.55,2688.12 L 4248.91,2673.85 L 4249.7,2693.92 L 4144.97,2707.71 L 4140.55,2688.12 Z " />
<path stroke="transparent" fill="#000000" transform="matrix(0.0833333 0 0 0.0833333 -211.208 -122)" d="M 4153.48,2745.37 L 4251.23,2732.5 L 4252.03,2752.57 L 4157.91,2764.96 L 4153.48,2745.37 Z " />
<path stroke="transparent" fill="#000000" transform="matrix(0.0833333 0 0 0.0833333 -211.208 -122)" d="M 4166.42,2802.62 L 4253.55,2791.15 L 4254.35,2811.22 L 4170.84,2822.21 L 4166.42,2802.62 Z " />
<path stroke="transparent" fill="#000000" transform="matrix(0.0833333 0 0 0.0833333 -211.208 -122)" d="M 4179.35,2859.87 L 4255.88,2849.8 L 4256.67,2869.86 L 4183.78,2879.46 L 4179.35,2859.87 Z " />
<path stroke="transparent" fill="#000000" transform="matrix(0.0833333 0 0 0.0833333 -211.208 -122)" d="M 4192.29,2917.12 L 4258.2,2908.44 L 4259,2928.51 L 4196.72,2936.71 L 4192.29,2917.12 Z " />
<path stroke="transparent" fill="#000000" transform="matrix(0.0833333 0 0 0.0833333 -211.208 -122)" d="M 4205.23,2974.37 L 4260.52,2967.09 L 4261.32,2987.16 L 4209.65,2993.96 L 4205.23,2974.37 Z " />
<path stroke="transparent" fill="#000000" transform="matrix(0.0833333 0 0 0.0833333 -211.208 -122)" d="M 4218.16,3031.62 L 4262.85,3025.74 L 4263.64,3045.81 L 4222.59,3051.21 L 4218.16,3031.62 Z " />
<path stroke="transparent" fill="#000000" transform="matrix(0.0833333 0 0 0.0833333 -211.208 -122)" d="M 4231.1,3088.87 L 4265.17,3084.39 L 4265.97,3104.46 L 4235.53,3108.46 L 4231.1,3088.87 Z " />
<path stroke="transparent" fill="#000000" transform="matrix(0.0833333 0 0 0.0833333 -211.208 -122)" d="M 4244.03,3146.12 L 4267.49,3143.04 L 4268.29,3163.1 L 4248.46,3165.71 L 4244.03,3146.12 Z " />
<path stroke="transparent" fill="#000000" transform="matrix(0.0833333 0 0 0.0833333 -211.208 -122)" d="M 2741.34,3750.11 L 2772.41,3634.2 L 3216.22,3803.49 L 3226.22,3817.95 L 3210.33,3825.48 L 2741.34,3750.11 Z " />
<path stroke="transparent" fill="#000000" transform="matrix(0.0833333 0 0 0.0833333 -211.208 -122)" d="M 3825.91,3633.49 L 3885.91,3529.57 L 4255.43,3798.38 L 4265.43,3817.95 L 4243.47,3819.08 L 3825.91,3633.49 Z " />
<path stroke="transparent" fill="#000000" transform="matrix(0.0833333 0 0 0.0833333 -211.208 -122)" d="M 6487.41,2630.91 L 6471.54,2643.09 L 6109.75,2171.67 L 6118.58,2150.33 L 6487.41,2630.91 Z " />
<path stroke="transparent" fill="#000000" transform="matrix(0.0833333 0 0 0.0833333 -211.208 -122)" d="M 6254.76,1701.49 L 6273.23,1709.15 L 6082.19,2170.25 L 6063.71,2162.6 L 6254.76,1701.49 Z " />
<path stroke="transparent" fill="#000000" transform="matrix(0.0833333 0 0 0.0833333 -211.208 -122)" d="M 6321.28,1729.05 L 6339.75,1736.71 L 6148.71,2197.8 L 6130.23,2190.14 L 6321.28,1729.05 Z " />
<path stroke="transparent" fill="#000000" transform="matrix(0.0833333 0 0 0.0833333 -211.208 -122)" d="M 5627.13,2235.22 L 5624.52,2215.39 L 6118.58,2150.33 L 6109.75,2171.67 L 5627.13,2235.22 Z " />
<path stroke="transparent" fill="#000000" transform="matrix(0.0833333 0 0 0.0833333 -211.208 -122)" d="M 5417.32,2328.8 L 5528.19,2374.72 L 5518.36,2392.3 L 5411.84,2348.18 L 5417.32,2328.8 Z " />
<path stroke="transparent" fill="#000000" transform="matrix(0.0833333 0 0 0.0833333 -211.208 -122)" d="M 5401.51,2384.76 L 5499.8,2425.47 L 5489.97,2443.05 L 5396.03,2404.14 L 5401.51,2384.76 Z " />
<path stroke="transparent" fill="#000000" transform="matrix(0.0833333 0 0 0.0833333 -211.208 -122)" d="M 5385.7,2440.72 L 5471.41,2476.23 L 5461.58,2493.8 L 5380.22,2460.1 L 5385.7,2440.72 Z " />
<path stroke="transparent" fill="#000000" transform="matrix(0.0833333 0 0 0.0833333 -211.208 -122)" d="M 5369.88,2496.69 L 5443.02,2526.98 L 5433.19,2544.55 L 5364.41,2516.06 L 5369.88,2496.69 Z " />
<path stroke="transparent" fill="#000000" transform="matrix(0.0833333 0 0 0.0833333 -211.208 -122)" d="M 5354.07,2552.65 L 5414.63,2577.73 L 5404.8,2595.31 L 5348.6,2572.03 L 5354.07,2552.65 Z " />
<path stroke="transparent" fill="#000000" transform="matrix(0.0833333 0 0 0.0833333 -211.208 -122)" d="M 5338.26,2608.61 L 5386.25,2628.48 L 5376.42,2646.06 L 5332.79,2627.99 L 5338.26,2608.61 Z " />
<path stroke="transparent" fill="#000000" transform="matrix(0.0833333 0 0 0.0833333 -211.208 -122)" d="M 5322.45,2664.57 L 5357.86,2679.23 L 5348.03,2696.81 L 5316.97,2683.95 L 5322.45,2664.57 Z " />
<path stroke="transparent" fill="#000000" transform="matrix(0.0833333 0 0 0.0833333 -211.208 -122)" d="M 5306.64,2720.53 L 5329.47,2729.99 L 5319.64,2747.56 L 5301.16,2739.91 L 5306.64,2720.53 Z " />
<path stroke="transparent" fill="#000000" transform="matrix(0.0833333 0 0 0.0833333 -211.208 -122)" d="M 7889.35,4144.72 L 7881.7,4163.2 L 7332.7,3935.8 L 7329.68,3912.91 L 7889.35,4144.72 Z " />
<path stroke="transparent" fill="#000000" transform="matrix(0.0833333 0 0 0.0833333 -211.208 -122)" d="M 7222.81,3453.58 L 7242.64,3450.97 L 7308.12,3948.36 L 7288.3,3950.97 L 7222.81,3453.58 Z " />
<path stroke="transparent" fill="#000000" transform="matrix(0.0833333 0 0 0.0833333 -211.208 -122)" d="M 7294.2,3444.18 L 7314.03,3441.57 L 7379.51,3938.96 L 7359.69,3941.57 L 7294.2,3444.18 Z " />
<path stroke="transparent" fill="#000000" transform="matrix(0.0833333 0 0 0.0833333 -211.208 -122)" d="M 6946.11,4232.44 L 6933.93,4216.57 L 7329.68,3912.91 L 7332.7,3935.8 L 6946.11,4232.44 Z " />
<path stroke="transparent" fill="#000000" transform="matrix(0.0833333 0 0 0.0833333 -211.208 -122)" d="M 6779.37,4193.25 L 6733.45,4304.12 L 6302,4071.91 L 6300.86,4059.99 L 6310.09,4052.38 L 6779.37,4193.25 Z " />
<path stroke="transparent" fill="#000000" transform="matrix(0.0833333 0 0 0.0833333 -211.208 -122)" d="M 3239.53,5215.49 L 3237.78,5195.57 L 3829.78,5143.78 L 3843.03,5162.7 L 3239.53,5215.49 Z " />
<path stroke="transparent" fill="#000000" transform="matrix(0.0833333 0 0 0.0833333 -211.208 -122)" d="M 4157.01,5530.91 L 4140.63,5542.38 L 3845.78,5121.29 L 3862.16,5109.82 L 4157.01,5530.91 Z " />
<path stroke="transparent" fill="#000000" transform="matrix(0.0833333 0 0 0.0833333 -211.208 -122)" d="M 4098.03,5572.21 L 4081.65,5583.68 L 3786.8,5162.59 L 3803.18,5151.12 L 4098.03,5572.21 Z " />
<path stroke="transparent" fill="#000000" transform="matrix(0.0833333 0 0 0.0833333 -211.208 -122)" d="M 4029.54,4715.32 L 4047.67,4723.77 L 3843.03,5162.7 L 3829.78,5143.78 L 4029.54,4715.32 Z " />
<path stroke="transparent" fill="#000000" transform="matrix(0.0833333 0 0 0.0833333 -211.208 -122)" d="M 4077.86,4487.6 L 3979.56,4556.43 L 3745.68,4138.15 L 3745.79,4117.96 L 3761.21,4120.6 L 4077.86,4487.6 Z " />
<path stroke="transparent" fill="#000000" transform="matrix(0.0833333 0 0 0.0833333 -211.208 -122)" d="M 4538.33,5991.66 L 4526.88,5993.17 L 4519.85,5984.01 L 4745.03,5440.35 L 4767.93,5437.33 L 4538.33,5991.66 Z " />
<path stroke="transparent" fill="#000000" transform="matrix(0.0833333 0 0 0.0833333 -211.208 -122)" d="M 3939,6080.66 L 3924.94,6062.34 L 4519.85,5984.01 L 4526.88,5993.17 L 4522.46,6003.84 L 3939,6080.66 Z " />
<path stroke="transparent" fill="#000000" transform="matrix(0.0833333 0 0 0.0833333 -211.208 -122)" d="M 3713.81,6624.32 L 3690.92,6627.34 L 3924.94,6062.34 L 3939,6080.66 L 3713.81,6624.32 Z " />
<path stroke="transparent" fill="#000000" transform="matrix(0.0833333 0 0 0.0833333 -211.208 -122)" d="M 3794.03,6618.8 L 3775.55,6611.15 L 3973.34,6133.63 L 3991.82,6141.28 L 3794.03,6618.8 Z " />
<path stroke="transparent" fill="#000000" transform="matrix(0.0833333 0 0 0.0833333 -211.208 -122)" d="M 4072.02,7091.16 L 4063.19,7112.5 L 3690.92,6627.34 L 3713.81,6624.32 L 4072.02,7091.16 Z " />
<path stroke="transparent" fill="#000000" transform="matrix(0.0833333 0 0 0.0833333 -211.208 -122)" d="M 4655.49,7014.34 L 4669.55,7032.66 L 4063.19,7112.5 L 4072.02,7091.16 L 4655.49,7014.34 Z " />
<path stroke="transparent" fill="#000000" transform="matrix(0.0833333 0 0 0.0833333 -211.208 -122)" d="M 4610.6,6947.63 L 4613.21,6967.46 L 4100.73,7034.93 L 4098.12,7015.1 L 4610.6,6947.63 Z " />
<path stroke="transparent" fill="#000000" transform="matrix(0.0833333 0 0 0.0833333 -211.208 -122)" d="M 4880.67,6470.68 L 4903.57,6467.67 L 4669.55,7032.66 L 4655.49,7014.34 L 4880.67,6470.68 Z " />
<path stroke="transparent" fill="#000000" transform="matrix(0.0833333 0 0 0.0833333 -211.208 -122)" d="M 4903.57,6467.67 L 4880.67,6470.68 L 4522.46,6003.84 L 4526.88,5993.17 L 4538.33,5991.66 L 4903.57,6467.67 Z " />
<path stroke="transparent" fill="#000000" transform="matrix(0.0833333 0 0 0.0833333 -211.208 -122)" d="M 4817.63,6473.94 L 4801.76,6486.11 L 4487.13,6076.06 L 4503,6063.89 L 4817.63,6473.94 Z " />
<path stroke="transparent" fill="#000000" transform="matrix(0.0833333 0 0 0.0833333 -211.208 -122)" d="M 5238.82,5328.93 L 5241.43,5348.76 L 4732.48,5415.78 L 4729.87,5395.95 L 5238.82,5328.93 Z " />
<path stroke="transparent" fill="#000000" transform="matrix(0.0833333 0 0 0.0833333 -211.208 -122)" d="M 5248.22,5400.31 L 5250.83,5420.14 L 4741.88,5487.16 L 4739.27,5467.33 L 5248.22,5400.31 Z " />
<path stroke="transparent" fill="#000000" transform="matrix(0.0833333 0 0 0.0833333 -211.208 -122)" d="M 4456.47,5064.27 L 4472.34,5052.09 L 4767.93,5437.33 L 4745.03,5440.35 L 4456.47,5064.27 Z " />
<path stroke="transparent" fill="#000000" transform="matrix(0.0833333 0 0 0.0833333 -211.208 -122)" d="M 4487.35,4887.58 L 4376.49,4841.66 L 4677.55,4244.15 L 4689.72,4242.18 L 4696.92,4252.18 L 4487.35,4887.58 Z " />
</svg>
