<?xml version="1.0" standalone="no" ?>
<!DOCTYPE svg PUBLIC "-//W3C//DTD SVG 1.1//EN" "http://www.w3.org/Graphics/SVG/1.1/DTD/svg11.dtd">
<svg width="160px" height="137px" viewBox="0 0 160 137" style="background-color: #ffffff00" xmlns="http://www.w3.org/2000/svg" xmlns:xlink="http://www.w3.org/1999/xlink" version="1.1" >
<text x="0" y="0" stroke="none" fill="#000000" transform="matrix(0.0666667 0 0 0.0666667 102.381 14.0752)" font-style="normal" font-weight="normal" font-size="200px" font-family="Arial" >
O</text>
<text x="0" y="0" stroke="none" fill="#000000" transform="matrix(0.0666667 0 0 0.0666667 137.02 74.077)" font-style="normal" font-weight="normal" font-size="200px" font-family="Arial" >
OH</text>
<text x="0" y="0" stroke="none" fill="#000000" transform="matrix(0.0666667 0 0 0.0666667 102.381 134.069)" font-style="normal" font-weight="normal" font-size="200px" font-family="Arial" >
OH</text>
<path stroke="none" fill="#000000" transform="matrix(0.0666667 0 0 0.0666667 -268.859 -219)" d="M 4077.79,4923.87 L 4097.79,4912.33 L 4607.37,5206.56 L 4607.37,5229.66 L 4077.79,4923.87 Z " />
<path stroke="none" fill="#000000" transform="matrix(0.0666667 0 0 0.0666667 -268.859 -219)" d="M 4154.78,4885.2 L 4164.79,4867.88 L 4612.37,5126.32 L 4602.37,5143.64 L 4154.78,4885.2 Z " />
<path stroke="none" fill="#000000" transform="matrix(0.0666667 0 0 0.0666667 -268.859 -219)" d="M 4077.79,4312.31 L 4097.79,4323.86 L 4097.79,4912.33 L 4077.79,4923.87 L 4077.79,4312.31 Z " />
<path stroke="none" fill="#000000" transform="matrix(0.0666667 0 0 0.0666667 -268.859 -219)" d="M 5646.6,4006.67 L 5646.6,4029.77 L 5137.02,4323.93 L 5127.02,4318.16 L 5127.02,4306.61 L 5646.6,4006.67 Z " />
<path stroke="none" fill="#000000" transform="matrix(0.0666667 0 0 0.0666667 -268.859 -219)" d="M 5137.02,4912.4 L 5127.02,4918.17 L 5117.02,4912.4 L 5117.02,4323.93 L 5127.02,4318.16 L 5137.02,4323.93 L 5137.02,4912.4 Z " />
<path stroke="none" fill="#000000" transform="matrix(0.0666667 0 0 0.0666667 -268.859 -219)" d="M 5065.02,4876.6 L 5045.02,4876.6 L 5045.02,4359.72 L 5065.02,4359.72 L 5065.02,4876.6 Z " />
<path stroke="none" fill="#000000" transform="matrix(0.0666667 0 0 0.0666667 -268.859 -219)" d="M 5117.02,4912.4 L 5127.02,4918.17 L 5127.02,4929.72 L 4607.37,5229.66 L 4607.37,5206.56 L 5117.02,4912.4 Z " />
<path stroke="none" fill="#000000" transform="matrix(0.0666667 0 0 0.0666667 -268.859 -219)" d="M 5558.97,5155.92 L 5548.97,5173.24 L 5127.02,4929.72 L 5127.02,4918.17 L 5137.02,4912.4 L 5558.97,5155.92 Z " />
<path stroke="none" fill="#000000" transform="matrix(0.0666667 0 0 0.0666667 -268.859 -219)" d="M 5127.02,4306.61 L 5127.02,4318.16 L 5117.02,4323.93 L 4607.37,4029.62 L 4607.37,4006.53 L 5127.02,4306.61 Z " />
<path stroke="none" fill="#000000" transform="matrix(0.0666667 0 0 0.0666667 -268.859 -219)" d="M 4607.37,4006.53 L 4607.37,4029.62 L 4097.79,4323.86 L 4077.79,4312.31 L 4607.37,4006.53 Z " />
<path stroke="none" fill="#000000" transform="matrix(0.0666667 0 0 0.0666667 -268.859 -219)" d="M 4602.37,4092.55 L 4612.37,4109.87 L 4164.79,4368.31 L 4154.78,4350.99 L 4602.37,4092.55 Z " />
<path stroke="none" fill="#000000" transform="matrix(0.0666667 0 0 0.0666667 -268.859 -219)" d="M 5600.59,3537.96 L 5620.59,3537.96 L 5620.59,4039 L 5600.59,4039 L 5600.59,3537.96 Z " />
<path stroke="none" fill="#000000" transform="matrix(0.0666667 0 0 0.0666667 -268.859 -219)" d="M 5672.6,3537.96 L 5692.6,3537.96 L 5692.6,4039 L 5672.6,4039 L 5672.6,3537.96 Z " />
<path stroke="none" fill="#000000" transform="matrix(0.0666667 0 0 0.0666667 -268.859 -219)" d="M 6078.56,4256.03 L 6068.56,4273.35 L 5646.6,4029.77 L 5646.6,4006.67 L 6078.56,4256.03 Z " />
</svg>
