<?xml version="1.0" standalone="no" ?>
<!DOCTYPE svg PUBLIC "-//W3C//DTD SVG 1.1//EN" "http://www.w3.org/Graphics/SVG/1.1/DTD/svg11.dtd">
<svg width="334px" height="179px" viewBox="0 0 334 179" style="background-color: #ffffff00" xmlns="http://www.w3.org/2000/svg" xmlns:xlink="http://www.w3.org/1999/xlink" version="1.1" >
<text x="0" y="0" stroke="transparent" fill="#000000" transform="matrix(0.0833333 0 0 0.0833333 3.87089 124.552)" style="font:normal normal normal 200px 'Arial'" >
HO</text>
<text x="0" y="0" stroke="transparent" fill="#000000" transform="matrix(0.0833333 0 0 0.0833333 266.545 135.443)" style="font:normal normal normal 200px 'Arial'" >
O</text>
<text x="0" y="0" stroke="transparent" fill="#000000" transform="matrix(0.0833333 0 0 0.0833333 184.902 18.3781)" style="font:normal normal normal 200px 'Arial'" >
O</text>
<text x="0" y="0" stroke="transparent" fill="#000000" transform="matrix(0.0833333 0 0 0.0833333 305.343 74.5525)" style="font:normal normal normal 200px 'Arial'" >
OH</text>
<text x="0" y="0" stroke="transparent" fill="#000000" transform="matrix(0.0833333 0 0 0.0833333 264.823 158.693)" style="font:normal normal normal 200px 'Arial'" >
OH</text>
<text x="0" y="0" stroke="transparent" fill="#000000" transform="matrix(0.0833333 0 0 0.0833333 90.4734 174.553)" style="font:normal normal normal 200px 'Arial'" >
HO</text>
<path stroke="transparent" fill="#000000" transform="matrix(0.0833333 0 0 0.0833333 -268.875 -279)" d="M 4015,3853.08 L 4015,3864.63 L 4005,3870.4 L 3490.38,3573.29 L 3500.38,3555.97 L 4015,3853.08 Z " />
<path stroke="transparent" fill="#000000" transform="matrix(0.0833333 0 0 0.0833333 -268.875 -279)" d="M 4534.61,3553.08 L 4534.61,3576.18 L 4025,3870.4 L 4015,3864.63 L 4015,3853.08 L 4534.61,3553.08 Z " />
<path stroke="transparent" fill="#000000" transform="matrix(0.0833333 0 0 0.0833333 -268.875 -279)" d="M 4529.61,3639.11 L 4539.61,3656.43 L 4092,3914.86 L 4082,3897.54 L 4529.61,3639.11 Z " />
<path stroke="transparent" fill="#000000" transform="matrix(0.0833333 0 0 0.0833333 -268.875 -279)" d="M 5052.69,3852.2 L 5054.23,3864.63 L 5044.23,3870.4 L 4534.61,3576.18 L 4534.61,3553.08 L 5052.69,3852.2 Z " />
<path stroke="transparent" fill="#000000" transform="matrix(0.0833333 0 0 0.0833333 -268.875 -279)" d="M 5064.23,4459.81 L 5054.23,4464.63 L 5044.23,4458.86 L 5044.23,3870.4 L 5054.23,3864.63 L 5064.23,3870.04 L 5064.23,4459.81 Z " />
<path stroke="transparent" fill="#000000" transform="matrix(0.0833333 0 0 0.0833333 -268.875 -279)" d="M 4534.61,4776.18 L 4534.61,4753.08 L 5044.23,4458.86 L 5054.23,4464.63 L 5053.33,4476.7 L 4534.61,4776.18 Z " />
<path stroke="transparent" fill="#000000" transform="matrix(0.0833333 0 0 0.0833333 -268.875 -279)" d="M 4005,4470.4 L 4025,4458.86 L 4534.61,4753.08 L 4534.61,4776.18 L 4005,4470.4 Z " />
<path stroke="transparent" fill="#000000" transform="matrix(0.0833333 0 0 0.0833333 -268.875 -279)" d="M 4025,4458.86 L 4005,4470.4 L 4005,3870.4 L 4015,3864.63 L 4025,3870.4 L 4025,4458.86 Z " />
<path stroke="transparent" fill="#000000" transform="matrix(0.0833333 0 0 0.0833333 -268.875 -279)" d="M 3617.99,4763.12 L 3557.99,4659.2 L 3576.45,4651.17 L 3634.18,4751.15 L 3617.99,4763.12 Z " />
<path stroke="transparent" fill="#000000" transform="matrix(0.0833333 0 0 0.0833333 -268.875 -279)" d="M 3666.43,4727.29 L 3613.25,4635.17 L 3631.71,4627.14 L 3682.61,4715.31 L 3666.43,4727.29 Z " />
<path stroke="transparent" fill="#000000" transform="matrix(0.0833333 0 0 0.0833333 -268.875 -279)" d="M 3714.87,4691.45 L 3668.5,4611.14 L 3686.96,4603.12 L 3731.05,4679.48 L 3714.87,4691.45 Z " />
<path stroke="transparent" fill="#000000" transform="matrix(0.0833333 0 0 0.0833333 -268.875 -279)" d="M 3763.3,4655.61 L 3723.76,4587.11 L 3742.21,4579.09 L 3779.48,4643.64 L 3763.3,4655.61 Z " />
<path stroke="transparent" fill="#000000" transform="matrix(0.0833333 0 0 0.0833333 -268.875 -279)" d="M 3811.74,4619.78 L 3779.01,4563.09 L 3797.47,4555.06 L 3827.92,4607.8 L 3811.74,4619.78 Z " />
<path stroke="transparent" fill="#000000" transform="matrix(0.0833333 0 0 0.0833333 -268.875 -279)" d="M 3860.17,4583.94 L 3834.26,4539.06 L 3852.72,4531.03 L 3876.36,4571.97 L 3860.17,4583.94 Z " />
<path stroke="transparent" fill="#000000" transform="matrix(0.0833333 0 0 0.0833333 -268.875 -279)" d="M 3908.61,4548.1 L 3889.52,4515.03 L 3907.97,4507 L 3924.79,4536.13 L 3908.61,4548.1 Z " />
<path stroke="transparent" fill="#000000" transform="matrix(0.0833333 0 0 0.0833333 -268.875 -279)" d="M 3957.05,4512.27 L 3944.77,4491 L 3963.23,4482.97 L 3973.23,4500.29 L 3957.05,4512.27 Z " />
<path stroke="transparent" fill="#000000" transform="matrix(0.0833333 0 0 0.0833333 -268.875 -279)" d="M 5523.78,4826.3 L 5523.33,4838.72 L 5511.74,4842.28 L 5053.33,4476.7 L 5054.23,4464.63 L 5064.23,4459.81 L 5523.78,4826.3 Z " />
<path stroke="transparent" fill="#000000" transform="matrix(0.0833333 0 0 0.0833333 -268.875 -279)" d="M 6101.37,4696.53 L 6108.29,4705.21 L 6103.73,4716.51 L 5532.22,4846.95 L 5523.33,4838.72 L 5572.39,4817.27 L 6101.37,4696.53 L 6101.37,4696.53 Z " />
<path stroke="transparent" fill="#000000" transform="matrix(0.0833333 0 0 0.0833333 -268.875 -279)" d="M 6357.52,4164.63 L 6379.71,4164.63 L 6302.14,4325.73 L 6278.22,4329.3 L 6357.52,4164.63 L 6357.52,4164.63 Z " />
<path stroke="transparent" fill="#000000" transform="matrix(0.0833333 0 0 0.0833333 -268.875 -279)" d="M 6120.31,4703.28 L 6108.29,4705.21 L 6101.37,4696.53 L 6179.52,4534.24 L 6191.47,4555.53 L 6120.31,4703.28 L 6120.31,4703.28 Z " />
<path stroke="transparent" fill="#000000" transform="matrix(0.0833333 0 0 0.0833333 -268.875 -279)" d="M 6122.1,3675.78 L 6094.47,3572.32 L 6379.71,4164.63 L 6357.52,4164.63 L 6122.1,3675.78 L 6122.1,3675.78 Z " />
<path stroke="transparent" fill="#000000" transform="matrix(0.0833333 0 0 0.0833333 -268.875 -279)" d="M 6174.23,4388.02 L 6165.05,4399.57 L 6154.66,4394.57 L 6094.47,3572.32 L 6122.1,3675.78 L 6174.23,4388.02 L 6174.23,4388.02 Z " />
<path stroke="transparent" fill="#000000" transform="matrix(0.0833333 0 0 0.0833333 -268.875 -279)" d="M 6154.66,4394.57 L 6165.05,4399.57 L 6168.16,4409.57 L 5572.39,4817.27 L 5523.33,4838.72 L 5523.78,4826.3 L 6154.66,4394.57 L 6154.66,4394.57 Z " />
<path stroke="transparent" fill="#000000" transform="matrix(0.0833333 0 0 0.0833333 -268.875 -279)" d="M 6806.98,4287.25 L 6723.64,4414.2 L 6168.16,4409.57 L 6165.05,4399.57 L 6174.23,4388.02 L 6806.98,4287.25 L 6806.98,4287.25 Z " />
<path stroke="transparent" fill="#000000" transform="matrix(0.0833333 0 0 0.0833333 -268.875 -279)" d="M 6558.2,4803.83 L 6540.18,4795.15 L 6723.64,4414.2 L 6806.98,4287.25 L 6558.2,4803.83 L 6558.2,4803.83 Z " />
<path stroke="transparent" fill="#000000" transform="matrix(0.0833333 0 0 0.0833333 -268.875 -279)" d="M 6492.5,4773.34 L 6393.35,4840.94 L 6383.96,4823.13 L 6479.35,4758.1 L 6492.5,4773.34 Z " />
<path stroke="transparent" fill="#000000" transform="matrix(0.0833333 0 0 0.0833333 -268.875 -279)" d="M 6453.13,4727.69 L 6365.24,4787.61 L 6355.86,4769.8 L 6439.98,4712.45 L 6453.13,4727.69 Z " />
<path stroke="transparent" fill="#000000" transform="matrix(0.0833333 0 0 0.0833333 -268.875 -279)" d="M 6413.76,4682.05 L 6337.14,4734.29 L 6327.75,4716.48 L 6400.61,4666.81 L 6413.76,4682.05 Z " />
<path stroke="transparent" fill="#000000" transform="matrix(0.0833333 0 0 0.0833333 -268.875 -279)" d="M 6374.38,4636.4 L 6309.03,4680.96 L 6299.65,4663.15 L 6361.24,4621.16 L 6374.38,4636.4 Z " />
<path stroke="transparent" fill="#000000" transform="matrix(0.0833333 0 0 0.0833333 -268.875 -279)" d="M 6335.01,4590.76 L 6280.93,4627.63 L 6271.54,4609.83 L 6321.87,4575.52 L 6335.01,4590.76 Z " />
<path stroke="transparent" fill="#000000" transform="matrix(0.0833333 0 0 0.0833333 -268.875 -279)" d="M 6295.64,4545.11 L 6252.82,4574.31 L 6243.44,4556.5 L 6282.49,4529.87 L 6295.64,4545.11 Z " />
<path stroke="transparent" fill="#000000" transform="matrix(0.0833333 0 0 0.0833333 -268.875 -279)" d="M 6256.27,4499.47 L 6224.72,4520.98 L 6215.33,4503.18 L 6243.12,4484.23 L 6256.27,4499.47 Z " />
<path stroke="transparent" fill="#000000" transform="matrix(0.0833333 0 0 0.0833333 -268.875 -279)" d="M 6216.9,4453.83 L 6196.61,4467.66 L 6187.23,4449.85 L 6203.75,4438.58 L 6216.9,4453.83 Z " />
<path stroke="transparent" fill="#000000" transform="matrix(0.0833333 0 0 0.0833333 -268.875 -279)" d="M 5618.4,3573.78 L 5645.1,3456.79 L 5664.08,3463.48 L 5638.41,3575.99 L 5618.4,3573.78 Z " />
<path stroke="transparent" fill="#000000" transform="matrix(0.0833333 0 0 0.0833333 -268.875 -279)" d="M 5677.67,3580.32 L 5701.34,3476.61 L 5720.33,3483.31 L 5697.68,3582.53 L 5677.67,3580.32 Z " />
<path stroke="transparent" fill="#000000" transform="matrix(0.0833333 0 0 0.0833333 -268.875 -279)" d="M 5736.94,3586.86 L 5757.58,3496.44 L 5776.57,3503.13 L 5756.96,3589.06 L 5736.94,3586.86 Z " />
<path stroke="transparent" fill="#000000" transform="matrix(0.0833333 0 0 0.0833333 -268.875 -279)" d="M 5796.22,3593.4 L 5813.82,3516.27 L 5832.81,3522.96 L 5816.23,3595.6 L 5796.22,3593.4 Z " />
<path stroke="transparent" fill="#000000" transform="matrix(0.0833333 0 0 0.0833333 -268.875 -279)" d="M 5855.49,3599.94 L 5870.07,3536.09 L 5889.05,3542.79 L 5875.5,3602.14 L 5855.49,3599.94 Z " />
<path stroke="transparent" fill="#000000" transform="matrix(0.0833333 0 0 0.0833333 -268.875 -279)" d="M 5914.77,3606.48 L 5926.31,3555.92 L 5945.29,3562.61 L 5934.78,3608.68 L 5914.77,3606.48 Z " />
<path stroke="transparent" fill="#000000" transform="matrix(0.0833333 0 0 0.0833333 -268.875 -279)" d="M 5974.04,3613.02 L 5982.55,3575.74 L 6001.54,3582.44 L 5994.05,3615.22 L 5974.04,3613.02 Z " />
<path stroke="transparent" fill="#000000" transform="matrix(0.0833333 0 0 0.0833333 -268.875 -279)" d="M 6033.32,3619.56 L 6038.79,3595.57 L 6057.78,3602.26 L 6053.33,3621.76 L 6033.32,3619.56 Z " />
<path stroke="transparent" fill="#000000" transform="matrix(0.0833333 0 0 0.0833333 -268.875 -279)" d="M 5394.31,3516.69 L 5469.12,3610.51 L 5064.23,3870.04 L 5054.23,3864.63 L 5052.69,3852.2 L 5394.31,3516.69 Z " />
<path stroke="transparent" fill="#000000" transform="matrix(0.0833333 0 0 0.0833333 -268.875 -279)" d="M 6860.62,4104.63 L 6860.62,4224.63 L 6840.62,4222.35 L 6840.62,4106.91 L 6860.62,4104.63 Z " />
<path stroke="transparent" fill="#000000" transform="matrix(0.0833333 0 0 0.0833333 -268.875 -279)" d="M 6800.9,4111.45 L 6800.9,4217.81 L 6780.9,4215.53 L 6780.9,4113.73 L 6800.9,4111.45 Z " />
<path stroke="transparent" fill="#000000" transform="matrix(0.0833333 0 0 0.0833333 -268.875 -279)" d="M 6741.19,4118.26 L 6741.19,4211 L 6721.19,4208.71 L 6721.19,4120.55 L 6741.19,4118.26 Z " />
<path stroke="transparent" fill="#000000" transform="matrix(0.0833333 0 0 0.0833333 -268.875 -279)" d="M 6681.47,4125.08 L 6681.47,4204.18 L 6661.47,4201.9 L 6661.47,4127.36 L 6681.47,4125.08 Z " />
<path stroke="transparent" fill="#000000" transform="matrix(0.0833333 0 0 0.0833333 -268.875 -279)" d="M 6621.76,4131.9 L 6621.76,4197.36 L 6601.76,4195.08 L 6601.76,4134.18 L 6621.76,4131.9 Z " />
<path stroke="transparent" fill="#000000" transform="matrix(0.0833333 0 0 0.0833333 -268.875 -279)" d="M 6562.04,4138.71 L 6562.04,4190.55 L 6542.04,4188.26 L 6542.04,4141 L 6562.04,4138.71 Z " />
<path stroke="transparent" fill="#000000" transform="matrix(0.0833333 0 0 0.0833333 -268.875 -279)" d="M 6502.33,4145.53 L 6502.33,4183.73 L 6482.33,4181.45 L 6482.33,4147.81 L 6502.33,4145.53 Z " />
<path stroke="transparent" fill="#000000" transform="matrix(0.0833333 0 0 0.0833333 -268.875 -279)" d="M 6442.62,4152.35 L 6442.62,4176.91 L 6422.62,4174.63 L 6422.62,4154.63 L 6442.62,4152.35 Z " />
<path stroke="transparent" fill="#000000" transform="matrix(0.0833333 0 0 0.0833333 -268.875 -279)" d="M 6462.78,5053.51 L 6368.96,5128.33 L 6103.73,4716.51 L 6108.29,4705.21 L 6120.31,4703.28 L 6462.78,5053.51 Z " />
<path stroke="transparent" fill="#000000" transform="matrix(0.0833333 0 0 0.0833333 -268.875 -279)" d="M 5448.31,5437.03 L 5331.32,5410.33 L 5511.74,4842.28 L 5523.33,4838.72 L 5532.22,4846.95 L 5448.31,5437.03 Z " />
<path stroke="transparent" fill="#000000" transform="matrix(0.0833333 0 0 0.0833333 -268.875 -279)" d="M 5114.23,5010.63 L 4994.23,5010.63 L 4996.26,4990.63 L 5112.2,4990.63 L 5114.23,5010.63 Z " />
<path stroke="transparent" fill="#000000" transform="matrix(0.0833333 0 0 0.0833333 -268.875 -279)" d="M 5108.23,4951.63 L 5000.23,4951.63 L 5002.26,4931.63 L 5106.2,4931.63 L 5108.23,4951.63 Z " />
<path stroke="transparent" fill="#000000" transform="matrix(0.0833333 0 0 0.0833333 -268.875 -279)" d="M 5102.24,4892.63 L 5006.22,4892.63 L 5008.25,4872.63 L 5100.21,4872.63 L 5102.24,4892.63 Z " />
<path stroke="transparent" fill="#000000" transform="matrix(0.0833333 0 0 0.0833333 -268.875 -279)" d="M 5096.24,4833.63 L 5012.22,4833.63 L 5014.25,4813.63 L 5094.21,4813.63 L 5096.24,4833.63 Z " />
<path stroke="transparent" fill="#000000" transform="matrix(0.0833333 0 0 0.0833333 -268.875 -279)" d="M 5090.25,4774.63 L 5018.21,4774.63 L 5020.25,4754.63 L 5088.21,4754.63 L 5090.25,4774.63 Z " />
<path stroke="transparent" fill="#000000" transform="matrix(0.0833333 0 0 0.0833333 -268.875 -279)" d="M 5084.25,4715.63 L 5024.21,4715.63 L 5026.24,4695.63 L 5082.22,4695.63 L 5084.25,4715.63 Z " />
<path stroke="transparent" fill="#000000" transform="matrix(0.0833333 0 0 0.0833333 -268.875 -279)" d="M 5078.25,4656.63 L 5030.21,4656.63 L 5032.24,4636.63 L 5076.22,4636.63 L 5078.25,4656.63 Z " />
<path stroke="transparent" fill="#000000" transform="matrix(0.0833333 0 0 0.0833333 -268.875 -279)" d="M 5072.26,4597.63 L 5036.2,4597.63 L 5038.23,4577.63 L 5070.23,4577.63 L 5072.26,4597.63 Z " />
<path stroke="transparent" fill="#000000" transform="matrix(0.0833333 0 0 0.0833333 -268.875 -279)" d="M 5066.26,4538.63 L 5042.2,4538.63 L 5044.23,4518.63 L 5064.23,4518.63 L 5066.26,4538.63 Z " />
<path stroke="transparent" fill="#000000" transform="matrix(0.0833333 0 0 0.0833333 -268.875 -279)" d="M 4632.23,5319.82 L 4622.23,5302.5 L 5049.23,5055.97 L 5059.23,5073.29 L 4632.23,5319.82 Z " />
</svg>
