<?xml version="1.0" standalone="no" ?>
<!DOCTYPE svg PUBLIC "-//W3C//DTD SVG 1.1//EN" "http://www.w3.org/Graphics/SVG/1.1/DTD/svg11.dtd">
<svg width="229px" height="152px" viewBox="0 0 229 152" style="background-color: #ffffff00" xmlns="http://www.w3.org/2000/svg" xmlns:xlink="http://www.w3.org/1999/xlink" version="1.1" >
<text x="0" y="0" stroke="transparent" fill="#000000" transform="matrix(0.0666667 0 0 0.0666667 205.985 128.823)" style="font:normal normal normal 200px 'Arial'" >
OH</text>
<text x="0" y="0" stroke="transparent" fill="#000000" transform="matrix(0.0666667 0 0 0.0666667 32.7876 148.822)" style="font:normal normal normal 200px 'Arial'" >
O</text>
<text x="0" y="0" stroke="transparent" fill="#000000" transform="matrix(0.0666667 0 0 0.0666667 102.066 28.8211)" style="font:normal normal normal 200px 'Arial'" >
O</text>
<path stroke="transparent" fill="#000000" transform="matrix(0.0666667 0 0 0.0666667 -234.287 -204)" d="M 5632.9,4320.06 L 5652.9,4308.51 L 5652.9,4908.57 L 5642.9,4914.34 L 5632.9,4908.57 L 5632.9,4320.06 Z " />
<path stroke="transparent" fill="#000000" transform="matrix(0.0666667 0 0 0.0666667 -234.287 -204)" d="M 5123.28,4025.92 L 5123.28,4014.37 L 5133.28,4008.6 L 5652.9,4308.51 L 5632.9,4320.06 L 5123.28,4025.92 Z " />
<path stroke="transparent" fill="#000000" transform="matrix(0.0666667 0 0 0.0666667 -234.287 -204)" d="M 5118.28,4106.16 L 5128.28,4088.84 L 5575.91,4347.2 L 5565.91,4364.52 L 5118.28,4106.16 Z " />
<path stroke="transparent" fill="#000000" transform="matrix(0.0666667 0 0 0.0666667 -234.287 -204)" d="M 4613.66,4320.06 L 4593.66,4308.51 L 5113.28,4008.6 L 5123.28,4014.37 L 5123.28,4025.92 L 4613.66,4320.06 Z " />
<path stroke="transparent" fill="#000000" transform="matrix(0.0666667 0 0 0.0666667 -234.287 -204)" d="M 4613.66,4908.57 L 4603.66,4914.34 L 4593.66,4908.57 L 4593.66,4308.51 L 4613.66,4320.06 L 4613.66,4908.57 Z " />
<path stroke="transparent" fill="#000000" transform="matrix(0.0666667 0 0 0.0666667 -234.287 -204)" d="M 4685.67,4872.77 L 4665.67,4872.77 L 4665.67,4355.87 L 4685.67,4355.87 L 4685.67,4872.77 Z " />
<path stroke="transparent" fill="#000000" transform="matrix(0.0666667 0 0 0.0666667 -234.287 -204)" d="M 5123.28,5202.79 L 5123.28,5225.88 L 4603.66,4925.89 L 4603.66,4914.34 L 4613.66,4908.57 L 5123.28,5202.79 Z " />
<path stroke="transparent" fill="#000000" transform="matrix(0.0666667 0 0 0.0666667 -234.287 -204)" d="M 5123.28,5225.88 L 5123.28,5202.79 L 5632.9,4908.57 L 5642.9,4914.34 L 5642.9,4925.89 L 5123.28,5225.88 Z " />
<path stroke="transparent" fill="#000000" transform="matrix(0.0666667 0 0 0.0666667 -234.287 -204)" d="M 5128.28,5139.86 L 5118.28,5122.54 L 5565.9,4864.11 L 5575.9,4881.43 L 5128.28,5139.86 Z " />
<path stroke="transparent" fill="#000000" transform="matrix(0.0666667 0 0 0.0666667 -234.287 -204)" d="M 6577.47,4963.19 L 6587.47,4980.51 L 6162.45,5225.88 L 6162.45,5202.79 L 6577.47,4963.19 Z " />
<path stroke="transparent" fill="#000000" transform="matrix(0.0666667 0 0 0.0666667 -234.287 -204)" d="M 6162.45,5202.79 L 6162.45,5225.88 L 5642.9,4925.89 L 5642.9,4914.34 L 5652.9,4908.57 L 6162.45,5202.79 Z " />
<path stroke="transparent" fill="#000000" transform="matrix(0.0666667 0 0 0.0666667 -234.287 -204)" d="M 3559.49,4923 L 3569.49,4905.68 L 3996.49,5152.2 L 3986.5,5169.52 L 3559.49,4923 Z " />
<path stroke="transparent" fill="#000000" transform="matrix(0.0666667 0 0 0.0666667 -234.287 -204)" d="M 4181.73,5169.52 L 4171.73,5152.2 L 4593.66,4908.57 L 4603.66,4914.34 L 4603.66,4925.89 L 4181.73,5169.52 Z " />
<path stroke="transparent" fill="#000000" transform="matrix(0.0666667 0 0 0.0666667 -234.287 -204)" d="M 4598.66,3122.99 L 4608.66,3105.67 L 5035.66,3352.18 L 5025.66,3369.5 L 4598.66,3122.99 Z " />
<path stroke="transparent" fill="#000000" transform="matrix(0.0666667 0 0 0.0666667 -234.287 -204)" d="M 5113.28,3534.15 L 5133.28,3534.15 L 5133.28,4008.6 L 5123.28,4014.37 L 5113.28,4008.6 L 5113.28,3534.15 Z " />
</svg>
