<?xml version="1.0" standalone="no" ?>
<!DOCTYPE svg PUBLIC "-//W3C//DTD SVG 1.1//EN" "http://www.w3.org/Graphics/SVG/1.1/DTD/svg11.dtd">
<svg width="485px" height="296px" viewBox="0 0 485 296" style="background-color: #ffffff00" xmlns="http://www.w3.org/2000/svg" xmlns:xlink="http://www.w3.org/1999/xlink" version="1.1" >
<text x="0" y="0" stroke="transparent" fill="#000000" transform="matrix(0.0833333 0 0 0.0833333 41.2004 142.481)" style="font:normal normal normal 200px 'Arial'" >
O</text>
<text x="0" y="0" stroke="transparent" fill="#000000" transform="matrix(0.0833333 0 0 0.0833333 127.802 292.48)" style="font:normal normal normal 200px 'Arial'" >
OH</text>
<text x="0" y="0" stroke="transparent" fill="#000000" transform="matrix(0.0833333 0 0 0.0833333 214.401 292.48)" style="font:normal normal normal 200px 'Arial'" >
O</text>
<text x="0" y="0" stroke="transparent" fill="#000000" transform="matrix(0.0833333 0 0 0.0833333 301.004 242.48)" style="font:normal normal normal 200px 'Arial'" >
O</text>
<text x="0" y="0" stroke="transparent" fill="#000000" transform="matrix(0.0833333 0 0 0.0833333 430.907 67.4794)" style="font:normal normal normal 200px 'Arial'" >
O</text>
<text x="0" y="0" stroke="transparent" fill="#000000" transform="matrix(0.0833333 0 0 0.0833333 344.309 17.4799)" style="font:normal normal normal 200px 'Arial'" >
OH</text>
<text x="0" y="0" stroke="transparent" fill="#000000" transform="matrix(0.0833333 0 0 0.0833333 214.404 142.479)" style="font:normal normal normal 200px 'Arial'" >
O</text>
<path stroke="transparent" fill="#000000" transform="matrix(0.0833333 0 0 0.0833333 -173.25 -263.167)" d="M 3171.01,5078.21 L 3171.01,5089.76 L 3161.01,5095.53 L 2746.44,4856.19 L 2756.44,4838.87 L 3171.01,5078.21 Z " />
<path stroke="transparent" fill="#000000" transform="matrix(0.0833333 0 0 0.0833333 -173.25 -263.167)" d="M 3181.01,5683.97 L 3161,5695.52 L 3161.01,5095.53 L 3171.01,5089.76 L 3181.01,5095.53 L 3181.01,5683.97 Z " />
<path stroke="transparent" fill="#000000" transform="matrix(0.0833333 0 0 0.0833333 -173.25 -263.167)" d="M 3253,5648.18 L 3233,5648.18 L 3233.01,5131.33 L 3253.01,5131.33 L 3253,5648.18 Z " />
<path stroke="transparent" fill="#000000" transform="matrix(0.0833333 0 0 0.0833333 -173.25 -263.167)" d="M 3690.58,5978.21 L 3690.58,5989.75 L 3680.58,5995.53 L 3161,5695.52 L 3181.01,5683.97 L 3690.58,5978.21 Z " />
<path stroke="transparent" fill="#000000" transform="matrix(0.0833333 0 0 0.0833333 -173.25 -263.167)" d="M 3700.62,6484.59 L 3680.62,6484.59 L 3680.58,5995.53 L 3690.58,5989.75 L 3700.58,5995.53 L 3700.62,6484.59 Z " />
<path stroke="transparent" fill="#000000" transform="matrix(0.0833333 0 0 0.0833333 -173.25 -263.167)" d="M 4200.19,5683.98 L 4210.19,5689.75 L 4210.19,5701.3 L 3700.58,5995.53 L 3690.58,5989.75 L 3690.58,5978.21 L 4200.19,5683.98 Z " />
<path stroke="transparent" fill="#000000" transform="matrix(0.0833333 0 0 0.0833333 -173.25 -263.167)" d="M 4133.19,5639.52 L 4143.19,5656.84 L 3695.58,5915.27 L 3685.58,5897.95 L 4133.19,5639.52 Z " />
<path stroke="transparent" fill="#000000" transform="matrix(0.0833333 0 0 0.0833333 -173.25 -263.167)" d="M 4729.82,5978.23 L 4729.82,6001.32 L 4210.19,5701.3 L 4210.19,5689.75 L 4220.19,5683.98 L 4729.82,5978.23 Z " />
<path stroke="transparent" fill="#000000" transform="matrix(0.0833333 0 0 0.0833333 -173.25 -263.167)" d="M 4775.81,6484.6 L 4755.81,6484.6 L 4755.82,5968.99 L 4775.82,5968.99 L 4775.81,6484.6 Z " />
<path stroke="transparent" fill="#000000" transform="matrix(0.0833333 0 0 0.0833333 -173.25 -263.167)" d="M 4703.82,6484.59 L 4683.82,6484.59 L 4683.82,5968.99 L 4703.82,5968.99 L 4703.82,6484.59 Z " />
<path stroke="transparent" fill="#000000" transform="matrix(0.0833333 0 0 0.0833333 -173.25 -263.167)" d="M 5239.44,5684 L 5249.44,5689.77 L 5249.44,5701.32 L 4729.82,6001.32 L 4729.82,5978.23 L 5239.44,5684 Z " />
<path stroke="transparent" fill="#000000" transform="matrix(0.0833333 0 0 0.0833333 -173.25 -263.167)" d="M 5681.42,5927.63 L 5671.43,5944.95 L 5249.44,5701.32 L 5249.44,5689.77 L 5259.44,5684 L 5681.42,5927.63 Z " />
<path stroke="transparent" fill="#000000" transform="matrix(0.0833333 0 0 0.0833333 -173.25 -263.167)" d="M 6283.66,5681.1 L 6293.66,5698.42 L 5866.66,5944.95 L 5856.66,5927.63 L 6283.66,5681.1 Z " />
<path stroke="transparent" fill="#000000" transform="matrix(0.0833333 0 0 0.0833333 -173.25 -263.167)" d="M 5239.42,5095.53 L 5249.42,5089.75 L 5259.42,5095.53 L 5259.44,5684 L 5249.44,5689.77 L 5239.44,5684 L 5239.42,5095.53 Z " />
<path stroke="transparent" fill="#000000" transform="matrix(0.0833333 0 0 0.0833333 -173.25 -263.167)" d="M 5167.42,5131.32 L 5187.42,5131.32 L 5187.43,5648.2 L 5167.43,5648.2 L 5167.42,5131.32 Z " />
<path stroke="transparent" fill="#000000" transform="matrix(0.0833333 0 0 0.0833333 -173.25 -263.167)" d="M 5759.07,4783.96 L 5769.07,4789.73 L 5769.07,4801.28 L 5259.42,5095.53 L 5249.42,5089.75 L 5249.42,5078.21 L 5759.07,4783.96 Z " />
<path stroke="transparent" fill="#000000" transform="matrix(0.0833333 0 0 0.0833333 -173.25 -263.167)" d="M 6288.67,5078.23 L 6288.67,5101.32 L 5769.07,4801.28 L 5769.07,4789.73 L 5779.07,4783.96 L 6288.67,5078.23 Z " />
<path stroke="transparent" fill="#000000" transform="matrix(0.0833333 0 0 0.0833333 -173.25 -263.167)" d="M 6293.67,4997.97 L 6283.67,5015.29 L 5836.07,4756.83 L 5846.08,4739.51 L 6293.67,4997.97 Z " />
<path stroke="transparent" fill="#000000" transform="matrix(0.0833333 0 0 0.0833333 -173.25 -263.167)" d="M 6798.28,4784 L 6818.28,4795.55 L 6288.67,5101.32 L 6288.67,5078.23 L 6798.28,4784 Z " />
<path stroke="transparent" fill="#000000" transform="matrix(0.0833333 0 0 0.0833333 -173.25 -263.167)" d="M 6798.27,4195.53 L 6808.27,4189.75 L 6818.27,4195.53 L 6818.28,4795.55 L 6798.28,4784 L 6798.27,4195.53 Z " />
<path stroke="transparent" fill="#000000" transform="matrix(0.0833333 0 0 0.0833333 -173.25 -263.167)" d="M 6726.27,4231.32 L 6746.27,4231.32 L 6746.28,4748.2 L 6726.28,4748.2 L 6726.27,4231.32 Z " />
<path stroke="transparent" fill="#000000" transform="matrix(0.0833333 0 0 0.0833333 -173.25 -263.167)" d="M 7223.28,3938.6 L 7233.28,3955.92 L 6818.27,4195.53 L 6808.27,4189.75 L 6808.27,4178.21 L 7223.28,3938.6 Z " />
<path stroke="transparent" fill="#000000" transform="matrix(0.0833333 0 0 0.0833333 -173.25 -263.167)" d="M 6288.7,3901.29 L 6288.7,3889.75 L 6298.7,3883.97 L 6808.27,4178.21 L 6808.27,4189.75 L 6798.27,4195.53 L 6288.7,3901.29 Z " />
<path stroke="transparent" fill="#000000" transform="matrix(0.0833333 0 0 0.0833333 -173.25 -263.167)" d="M 6278.7,3409.59 L 6298.7,3409.59 L 6298.7,3883.97 L 6288.7,3889.75 L 6278.7,3883.97 L 6278.7,3409.59 Z " />
<path stroke="transparent" fill="#000000" transform="matrix(0.0833333 0 0 0.0833333 -173.25 -263.167)" d="M 5779.08,4195.52 L 5759.08,4183.97 L 6278.7,3883.97 L 6288.7,3889.75 L 6288.7,3901.29 L 5779.08,4195.52 Z " />
<path stroke="transparent" fill="#000000" transform="matrix(0.0833333 0 0 0.0833333 -173.25 -263.167)" d="M 5846.08,4239.98 L 5836.08,4222.66 L 6283.7,3964.23 L 6293.7,3981.55 L 5846.08,4239.98 Z " />
<path stroke="transparent" fill="#000000" transform="matrix(0.0833333 0 0 0.0833333 -173.25 -263.167)" d="M 5759.08,4183.97 L 5779.08,4195.52 L 5779.07,4783.96 L 5769.07,4789.73 L 5759.07,4783.96 L 5759.08,4183.97 Z " />
<path stroke="transparent" fill="#000000" transform="matrix(0.0833333 0 0 0.0833333 -173.25 -263.167)" d="M 4824.89,4856.17 L 4834.89,4838.85 L 5249.42,5078.21 L 5249.42,5089.75 L 5239.42,5095.53 L 4824.89,4856.17 Z " />
<path stroke="transparent" fill="#000000" transform="matrix(0.0833333 0 0 0.0833333 -173.25 -263.167)" d="M 4220.2,5095.54 L 4210.2,5089.77 L 4210.2,5078.22 L 4625.25,4838.59 L 4635.25,4855.91 L 4220.2,5095.54 Z " />
<path stroke="transparent" fill="#000000" transform="matrix(0.0833333 0 0 0.0833333 -173.25 -263.167)" d="M 4200.2,5095.54 L 4210.2,5089.77 L 4220.2,5095.54 L 4220.19,5683.98 L 4210.19,5689.75 L 4200.19,5683.98 L 4200.2,5095.54 Z " />
<path stroke="transparent" fill="#000000" transform="matrix(0.0833333 0 0 0.0833333 -173.25 -263.167)" d="M 3690.59,4801.33 L 3690.59,4778.23 L 4210.2,5078.22 L 4210.2,5089.77 L 4200.2,5095.54 L 3690.59,4801.33 Z " />
<path stroke="transparent" fill="#000000" transform="matrix(0.0833333 0 0 0.0833333 -173.25 -263.167)" d="M 3685.59,4881.58 L 3695.59,4864.26 L 4143.2,5122.67 L 4133.2,5140 L 3685.59,4881.58 Z " />
<path stroke="transparent" fill="#000000" transform="matrix(0.0833333 0 0 0.0833333 -173.25 -263.167)" d="M 3690.59,4778.23 L 3690.59,4801.33 L 3181.01,5095.53 L 3171.01,5089.76 L 3171.01,5078.21 L 3690.59,4778.23 Z " />
<path stroke="transparent" fill="#000000" transform="matrix(0.0833333 0 0 0.0833333 -173.25 -263.167)" d="M 2136.79,5098.43 L 2126.79,5081.11 L 2546.8,4838.62 L 2556.8,4855.94 L 2136.79,5098.43 Z " />
<path stroke="transparent" fill="#000000" transform="matrix(0.0833333 0 0 0.0833333 -173.25 -263.167)" d="M 7852.49,4181.11 L 7842.49,4198.43 L 7422.92,3956.17 L 7432.92,3938.85 L 7852.49,4181.11 Z " />
</svg>
