<?xml version="1.0" standalone="no" ?>
<!DOCTYPE svg PUBLIC "-//W3C//DTD SVG 1.1//EN" "http://www.w3.org/Graphics/SVG/1.1/DTD/svg11.dtd">
<svg width="214px" height="137px" viewBox="0 0 214 137" style="background-color: #ffffff00" xmlns="http://www.w3.org/2000/svg" xmlns:xlink="http://www.w3.org/1999/xlink" version="1.1" >
<text x="0" y="0" stroke="transparent" fill="#000000" transform="matrix(0.0666667 0 0 0.0666667 185.753 14.074)" style="font:normal normal normal 200px 'Arial'" >
OH</text>
<text x="0" y="0" stroke="transparent" fill="#000000" transform="matrix(0.0666667 0 0 0.0666667 116.47 134.07)" style="font:normal normal normal 200px 'Arial'" >
OH</text>
<text x="0" y="0" stroke="transparent" fill="#000000" transform="matrix(0.0666667 0 0 0.0666667 37.5629 94.0716)" style="font:normal normal normal 200px 'Arial'" >
HO</text>
<text x="0" y="0" stroke="transparent" fill="#000000" transform="matrix(0.0666667 0 0 0.0666667 116.47 14.074)" style="font:normal normal normal 200px 'Arial'" >
O</text>
<text x="0" y="0" stroke="transparent" fill="#000000" transform="matrix(0.0666667 0 0 0.0666667 2.92149 34.0734)" style="font:normal normal normal 200px 'Arial'" >
HO</text>
<text x="0" y="0" stroke="transparent" fill="#000000" transform="matrix(0.0666667 0 0 0.0666667 186.153 94.0716)" style="font:normal normal normal 200px 'Arial'" >
NH</text>
<text x="0" y="0" stroke="transparent" fill="#000000" transform="matrix(0.0666667 0 0 0.0666667 205.41 97.0049)" style="font:normal normal normal 150px 'Arial'" >
2</text>
<path stroke="transparent" fill="#000000" transform="matrix(0.0666667 0 0 0.0666667 -241.853 -325)" d="M 5982.47,5313.87 L 5972.47,5308.1 L 5972.47,5296.55 L 6387.48,5056.95 L 6397.48,5074.27 L 5982.47,5313.87 Z " />
<path stroke="transparent" fill="#000000" transform="matrix(0.0666667 0 0 0.0666667 -241.853 -325)" d="M 5982.47,5913.86 L 5962.47,5902.31 L 5962.47,5313.87 L 5972.47,5308.1 L 5982.47,5313.87 L 5982.47,5913.86 Z " />
<path stroke="transparent" fill="#000000" transform="matrix(0.0666667 0 0 0.0666667 -241.853 -325)" d="M 5463.4,6213.53 L 5452.85,6208.07 L 5452.85,6196.53 L 5962.47,5902.31 L 5982.47,5913.86 L 5463.4,6213.53 Z " />
<path stroke="transparent" fill="#000000" transform="matrix(0.0666667 0 0 0.0666667 -241.853 -325)" d="M 5512.85,6702.89 L 5392.85,6702.89 L 5442.29,6213.53 L 5452.85,6208.07 L 5463.4,6213.53 L 5512.85,6702.89 Z " />
<path stroke="transparent" fill="#000000" transform="matrix(0.0666667 0 0 0.0666667 -241.853 -325)" d="M 4933.85,5919.95 L 4933.3,5908.08 L 4943.3,5902.31 L 5452.85,6196.53 L 5452.85,6208.07 L 5442.29,6213.53 L 4933.85,5919.95 Z " />
<path stroke="transparent" fill="#000000" transform="matrix(0.0666667 0 0 0.0666667 -241.853 -325)" d="M 4536.29,6206.57 L 4476.29,6102.65 L 4923.3,5901.67 L 4933.3,5908.08 L 4933.85,5919.95 L 4536.29,6206.57 Z " />
<path stroke="transparent" fill="#000000" transform="matrix(0.0666667 0 0 0.0666667 -241.853 -325)" d="M 4923.3,5314.4 L 4933.3,5308.1 L 4943.3,5313.87 L 4943.3,5902.31 L 4933.3,5908.08 L 4923.3,5901.67 L 4923.3,5314.4 Z " />
<path stroke="transparent" fill="#000000" transform="matrix(0.0666667 0 0 0.0666667 -241.853 -325)" d="M 5348.24,5056.96 L 5358.24,5074.28 L 4943.3,5313.87 L 4933.3,5308.1 L 4933.76,5296.29 L 5348.24,5056.96 Z " />
<path stroke="transparent" fill="#000000" transform="matrix(0.0666667 0 0 0.0666667 -241.853 -325)" d="M 4361.65,5049.69 L 4461.84,4968.76 L 4933.76,5296.29 L 4933.3,5308.1 L 4923.3,5314.4 L 4361.65,5049.69 Z " />
<path stroke="transparent" fill="#000000" transform="matrix(0.0666667 0 0 0.0666667 -241.853 -325)" d="M 3991.67,5263.29 L 3981.67,5245.97 L 4461.84,4968.76 L 4361.65,5049.69 L 3991.67,5263.29 Z " />
<path stroke="transparent" fill="#000000" transform="matrix(0.0666667 0 0 0.0666667 -241.853 -325)" d="M 5547.88,5074.52 L 5557.88,5057.2 L 5972.47,5296.55 L 5972.47,5308.1 L 5962.47,5313.87 L 5547.88,5074.52 Z " />
<path stroke="transparent" fill="#000000" transform="matrix(0.0666667 0 0 0.0666667 -241.853 -325)" d="M 6418.24,6096.16 L 6358.24,6200.08 L 6342.09,6188.05 L 6399.74,6088.19 L 6418.24,6096.16 Z " />
<path stroke="transparent" fill="#000000" transform="matrix(0.0666667 0 0 0.0666667 -241.853 -325)" d="M 6364.59,6073.05 L 6311.4,6165.18 L 6295.26,6153.15 L 6346.1,6065.08 L 6364.59,6073.05 Z " />
<path stroke="transparent" fill="#000000" transform="matrix(0.0666667 0 0 0.0666667 -241.853 -325)" d="M 6310.95,6049.94 L 6264.57,6130.28 L 6248.42,6118.25 L 6292.46,6041.97 L 6310.95,6049.94 Z " />
<path stroke="transparent" fill="#000000" transform="matrix(0.0666667 0 0 0.0666667 -241.853 -325)" d="M 6257.31,6026.83 L 6217.73,6095.38 L 6201.58,6083.35 L 6238.81,6018.86 L 6257.31,6026.83 Z " />
<path stroke="transparent" fill="#000000" transform="matrix(0.0666667 0 0 0.0666667 -241.853 -325)" d="M 6203.66,6003.72 L 6170.9,6060.48 L 6154.75,6048.45 L 6185.17,5995.75 L 6203.66,6003.72 Z " />
<path stroke="transparent" fill="#000000" transform="matrix(0.0666667 0 0 0.0666667 -241.853 -325)" d="M 6150.02,5980.61 L 6124.06,6025.58 L 6107.91,6013.55 L 6131.53,5972.64 L 6150.02,5980.61 Z " />
<path stroke="transparent" fill="#000000" transform="matrix(0.0666667 0 0 0.0666667 -241.853 -325)" d="M 6096.38,5957.5 L 6077.22,5990.68 L 6061.08,5978.65 L 6077.88,5949.54 L 6096.38,5957.5 Z " />
<path stroke="transparent" fill="#000000" transform="matrix(0.0666667 0 0 0.0666667 -241.853 -325)" d="M 6042.73,5934.39 L 6030.39,5955.78 L 6014.24,5943.75 L 6024.24,5926.43 L 6042.73,5934.39 Z " />
</svg>
