<?xml version="1.0" standalone="no" ?>
<!DOCTYPE svg PUBLIC "-//W3C//DTD SVG 1.1//EN" "http://www.w3.org/Graphics/SVG/1.1/DTD/svg11.dtd">
<svg width="249px" height="171px" viewBox="0 0 249 171" style="background-color: #ffffff00" xmlns="http://www.w3.org/2000/svg" xmlns:xlink="http://www.w3.org/1999/xlink" version="1.1" >
<text x="0" y="0" stroke="transparent" fill="#000000" transform="matrix(0.0833333 0 0 0.0833333 189.261 17.4653)" style="font:normal normal normal 200px 'Arial'" >
O</text>
<text x="0" y="0" stroke="transparent" fill="#000000" transform="matrix(0.0833333 0 0 0.0833333 4.01908 17.4653)" style="font:normal normal normal 200px 'Arial'" >
HO</text>
<text x="0" y="0" stroke="transparent" fill="#000000" transform="matrix(0.0833333 0 0 0.0833333 102.661 167.465)" style="font:normal normal normal 200px 'Arial'" >
OH</text>
<text x="0" y="0" stroke="transparent" fill="#000000" transform="matrix(0.0833333 0 0 0.0833333 232.564 92.4653)" style="font:normal normal normal 200px 'Arial'" >
O</text>
<path stroke="transparent" fill="#000000" transform="matrix(0.0833333 0 0 0.0833333 -311.208 -274)" d="M 6178.67,3486 L 6188.67,3468.68 L 6608.27,3710.92 L 6598.27,3728.24 L 6178.67,3486 Z " />
<path stroke="transparent" fill="#000000" transform="matrix(0.0833333 0 0 0.0833333 -311.208 -274)" d="M 5574.07,3725.36 L 5564.07,3719.58 L 5564.07,3708.04 L 5979.03,3468.43 L 5989.03,3485.75 L 5574.07,3725.36 Z " />
<path stroke="transparent" fill="#000000" transform="matrix(0.0833333 0 0 0.0833333 -311.208 -274)" d="M 5044.43,3431.13 L 5044.44,3408.04 L 5564.07,3708.04 L 5564.07,3719.58 L 5554.07,3725.36 L 5044.43,3431.13 Z " />
<path stroke="transparent" fill="#000000" transform="matrix(0.0833333 0 0 0.0833333 -311.208 -274)" d="M 5039.43,3511.38 L 5049.43,3494.06 L 5497.07,3752.49 L 5487.07,3769.81 L 5039.43,3511.38 Z " />
<path stroke="transparent" fill="#000000" transform="matrix(0.0833333 0 0 0.0833333 -311.208 -274)" d="M 4534.8,3725.28 L 4524.8,3719.51 L 4524.8,3707.96 L 5044.44,3408.04 L 5044.43,3431.13 L 4534.8,3725.28 Z " />
<path stroke="transparent" fill="#000000" transform="matrix(0.0833333 0 0 0.0833333 -311.208 -274)" d="M 4100.2,3485.98 L 4110.2,3468.66 L 4524.8,3707.96 L 4524.8,3719.51 L 4514.8,3725.28 L 4100.2,3485.98 Z " />
<path stroke="transparent" fill="#000000" transform="matrix(0.0833333 0 0 0.0833333 -311.208 -274)" d="M 4534.8,4313.74 L 4524.8,4319.51 L 4514.8,4313.74 L 4514.8,3725.28 L 4524.8,3719.51 L 4534.8,3725.28 L 4534.8,4313.74 Z " />
<path stroke="transparent" fill="#000000" transform="matrix(0.0833333 0 0 0.0833333 -311.208 -274)" d="M 4606.8,4277.95 L 4586.8,4277.95 L 4586.8,3761.09 L 4606.8,3761.09 L 4606.8,4277.95 Z " />
<path stroke="transparent" fill="#000000" transform="matrix(0.0833333 0 0 0.0833333 -311.208 -274)" d="M 4010.16,4628.24 L 4000.16,4610.92 L 4514.8,4313.74 L 4524.8,4319.51 L 4524.8,4331.06 L 4010.16,4628.24 Z " />
<path stroke="transparent" fill="#000000" transform="matrix(0.0833333 0 0 0.0833333 -311.208 -274)" d="M 5044.43,4608.04 L 5044.43,4619.58 L 5034.43,4625.36 L 4524.8,4331.06 L 4524.8,4319.51 L 4534.8,4313.74 L 5044.43,4608.04 Z " />
<path stroke="transparent" fill="#000000" transform="matrix(0.0833333 0 0 0.0833333 -311.208 -274)" d="M 5054.43,5114.42 L 5034.43,5114.42 L 5034.43,4625.36 L 5044.43,4619.58 L 5054.43,4625.36 L 5054.43,5114.42 Z " />
<path stroke="transparent" fill="#000000" transform="matrix(0.0833333 0 0 0.0833333 -311.208 -274)" d="M 5554.07,4313.74 L 5564.07,4319.51 L 5564.07,4331.06 L 5054.43,4625.36 L 5044.43,4619.58 L 5044.43,4608.04 L 5554.07,4313.74 Z " />
<path stroke="transparent" fill="#000000" transform="matrix(0.0833333 0 0 0.0833333 -311.208 -274)" d="M 5487.06,4269.28 L 5497.07,4286.6 L 5049.44,4545.09 L 5039.43,4527.77 L 5487.06,4269.28 Z " />
<path stroke="transparent" fill="#000000" transform="matrix(0.0833333 0 0 0.0833333 -311.208 -274)" d="M 5574.07,4313.74 L 5564.07,4319.51 L 5554.07,4313.74 L 5554.07,3725.36 L 5564.07,3719.58 L 5574.07,3725.36 L 5574.07,4313.74 Z " />
<path stroke="transparent" fill="#000000" transform="matrix(0.0833333 0 0 0.0833333 -311.208 -274)" d="M 6093.63,4613.81 L 6073.63,4625.36 L 5564.07,4331.06 L 5564.07,4319.51 L 5574.07,4313.74 L 6093.63,4613.81 Z " />
<path stroke="transparent" fill="#000000" transform="matrix(0.0833333 0 0 0.0833333 -311.208 -274)" d="M 6093.63,5219.58 L 6073.63,5219.58 L 6073.63,4625.36 L 6093.63,4613.81 L 6093.63,5219.58 Z " />
<path stroke="transparent" fill="#000000" transform="matrix(0.0833333 0 0 0.0833333 -311.208 -274)" d="M 6480.67,4337.25 L 6490.67,4354.57 L 6052.64,4607.45 L 6042.64,4590.13 L 6480.67,4337.25 Z " />
<path stroke="transparent" fill="#000000" transform="matrix(0.0833333 0 0 0.0833333 -311.208 -274)" d="M 6516.67,4399.61 L 6526.67,4416.93 L 6088.63,4669.81 L 6078.63,4652.49 L 6516.67,4399.61 Z " />
</svg>
