<?xml version="1.0" standalone="no" ?>
<!DOCTYPE svg PUBLIC "-//W3C//DTD SVG 1.1//EN" "http://www.w3.org/Graphics/SVG/1.1/DTD/svg11.dtd">
<svg width="556px" height="237px" viewBox="0 0 556 237" style="background-color: #ffffff00" xmlns="http://www.w3.org/2000/svg" xmlns:xlink="http://www.w3.org/1999/xlink" version="1.1" >
<text x="0" y="0" stroke="transparent" fill="#000000" transform="matrix(0.0666667 0 0 0.0666667 383.682 122.572)" style="font:normal normal normal 200px 'Arial'" >
O</text>
<text x="0" y="0" stroke="transparent" fill="#000000" transform="matrix(0.0666667 0 0 0.0666667 269.997 198.366)" style="font:normal normal normal 200px 'Arial'" >
O</text>
<text x="0" y="0" stroke="transparent" fill="#000000" transform="matrix(0.0666667 0 0 0.0666667 324.318 233.851)" style="font:normal normal normal 200px 'Arial'" >
O</text>
<text x="0" y="0" stroke="transparent" fill="#000000" transform="matrix(0.0666667 0 0 0.0666667 285.11 84.8951)" style="font:normal normal normal 200px 'Arial'" >
O</text>
<text x="0" y="0" stroke="transparent" fill="#000000" transform="matrix(0.0666667 0 0 0.0666667 369.224 55.1019)" style="font:normal normal normal 200px 'Arial'" >
O</text>
<text x="0" y="0" stroke="transparent" fill="#000000" transform="matrix(0.0666667 0 0 0.0666667 221.8 70.6555)" style="font:normal normal normal 200px 'Arial'" >
O</text>
<text x="0" y="0" stroke="transparent" fill="#000000" transform="matrix(0.0666667 0 0 0.0666667 190.438 118.019)" style="font:normal normal normal 200px 'Arial'" >
H</text>
<text x="0" y="0" stroke="transparent" fill="#000000" transform="matrix(0.0666667 0 0 0.0666667 190.438 129.141)" style="font:normal normal normal 200px 'Arial'" >
N</text>
<text x="0" y="0" stroke="transparent" fill="#000000" transform="matrix(0.0666667 0 0 0.0666667 180.836 197.707)" style="font:normal normal normal 200px 'Arial'" >
O</text>
<text x="0" y="0" stroke="transparent" fill="#000000" transform="matrix(0.0666667 0 0 0.0666667 135.494 87.7411)" style="font:normal normal normal 200px 'Arial'" >
OH</text>
<text x="0" y="0" stroke="transparent" fill="#000000" transform="matrix(0.0666667 0 0 0.0666667 56.5942 76.7886)" style="font:normal normal normal 200px 'Arial'" >
NH</text>
<text x="0" y="0" stroke="transparent" fill="#000000" transform="matrix(0.0666667 0 0 0.0666667 2.80652 32.6791)" style="font:normal normal normal 200px 'Arial'" >
O</text>
<path stroke="transparent" fill="#000000" transform="matrix(0.0666667 0 0 0.0666667 -70.8533 -275)" d="M 6304.07,6006.2 L 6324.95,6001.46 L 6239.89,6596.26 L 6228.99,6601.85 L 6219.61,6596.79 L 6304.07,6006.2 Z " />
<path stroke="transparent" fill="#000000" transform="matrix(0.0666667 0 0 0.0666667 -70.8533 -275)" d="M 5782.84,7009.29 L 5774.94,6989.59 L 6219.61,6596.79 L 6228.99,6601.85 L 6230.46,6613.89 L 5782.84,7009.29 Z " />
<path stroke="transparent" fill="#000000" transform="matrix(0.0666667 0 0 0.0666667 -70.8533 -275)" d="M 6757.65,6866.35 L 6758.48,6889.34 L 6230.46,6613.89 L 6228.99,6601.85 L 6239.89,6596.26 L 6757.65,6866.35 Z " />
<path stroke="transparent" fill="#000000" transform="matrix(0.0666667 0 0 0.0666667 -70.8533 -275)" d="M 5979.37,5519.43 L 5985.79,5511.04 L 5998.46,5512 L 6324.95,6001.46 L 6304.07,6006.2 L 5979.37,5519.43 Z " />
<path stroke="transparent" fill="#000000" transform="matrix(0.0666667 0 0 0.0666667 -70.8533 -275)" d="M 6775.86,5848.78 L 6799.77,5966.38 L 6779.71,5968.08 L 6756.73,5855.05 L 6775.86,5848.78 Z " />
<path stroke="transparent" fill="#000000" transform="matrix(0.0666667 0 0 0.0666667 -70.8533 -275)" d="M 6719.98,5867.1 L 6741.18,5971.34 L 6721.11,5973.04 L 6700.84,5873.37 L 6719.98,5867.1 Z " />
<path stroke="transparent" fill="#000000" transform="matrix(0.0666667 0 0 0.0666667 -70.8533 -275)" d="M 6664.1,5885.41 L 6682.58,5976.31 L 6662.52,5978.01 L 6644.96,5891.68 L 6664.1,5885.41 Z " />
<path stroke="transparent" fill="#000000" transform="matrix(0.0666667 0 0 0.0666667 -70.8533 -275)" d="M 6608.21,5903.72 L 6623.98,5981.28 L 6603.92,5982.98 L 6589.08,5909.99 L 6608.21,5903.72 Z " />
<path stroke="transparent" fill="#000000" transform="matrix(0.0666667 0 0 0.0666667 -70.8533 -275)" d="M 6552.33,5922.04 L 6565.39,5986.24 L 6545.32,5987.94 L 6533.2,5928.31 L 6552.33,5922.04 Z " />
<path stroke="transparent" fill="#000000" transform="matrix(0.0666667 0 0 0.0666667 -70.8533 -275)" d="M 6496.45,5940.35 L 6506.79,5991.21 L 6486.73,5992.91 L 6477.31,5946.62 L 6496.45,5940.35 Z " />
<path stroke="transparent" fill="#000000" transform="matrix(0.0666667 0 0 0.0666667 -70.8533 -275)" d="M 6440.56,5958.66 L 6448.19,5996.18 L 6428.13,5997.88 L 6421.43,5964.93 L 6440.56,5958.66 Z " />
<path stroke="transparent" fill="#000000" transform="matrix(0.0666667 0 0 0.0666667 -70.8533 -275)" d="M 6384.68,5976.97 L 6389.6,6001.14 L 6369.53,6002.84 L 6365.55,5983.25 L 6384.68,5976.97 Z " />
<path stroke="transparent" fill="#000000" transform="matrix(0.0666667 0 0 0.0666667 -70.8533 -275)" d="M 5299.02,7028.26 L 5298.23,7008.27 L 5774.94,6989.59 L 5782.84,7009.29 L 5299.02,7028.26 Z " />
<path stroke="transparent" fill="#000000" transform="matrix(0.0666667 0 0 0.0666667 -70.8533 -275)" d="M 6007.99,7438.99 L 5989.47,7446.54 L 5798.2,6977.98 L 5816.72,6970.42 L 6007.99,7438.99 Z " />
<path stroke="transparent" fill="#000000" transform="matrix(0.0666667 0 0 0.0666667 -70.8533 -275)" d="M 5941.35,7466.19 L 5922.83,7473.75 L 5731.37,7004.72 L 5749.89,6997.16 L 5941.35,7466.19 Z " />
<path stroke="transparent" fill="#000000" transform="matrix(0.0666667 0 0 0.0666667 -70.8533 -275)" d="M 7263.58,6554.3 L 7264.46,6577.25 L 6758.48,6889.34 L 6757.65,6866.35 L 7263.58,6554.3 Z " />
<path stroke="transparent" fill="#000000" transform="matrix(0.0666667 0 0 0.0666667 -70.8533 -275)" d="M 5520.83,5365.65 L 5527.19,5346.68 L 5981.69,5499.12 L 5985.79,5511.04 L 5979.37,5519.43 L 5520.83,5365.65 Z " />
<path stroke="transparent" fill="#000000" transform="matrix(0.0666667 0 0 0.0666667 -70.8533 -275)" d="M 6309.88,4997.66 L 6404.53,5071.43 L 5998.46,5512 L 5985.79,5511.04 L 5981.69,5499.12 L 6309.88,4997.66 Z " />
<path stroke="transparent" fill="#000000" transform="matrix(0.0666667 0 0 0.0666667 -70.8533 -275)" d="M 7078.92,5311.8 L 7094.21,5329.05 L 6939.35,5788.37 L 6920.4,5781.98 L 7078.92,5311.8 Z " />
<path stroke="transparent" fill="#000000" transform="matrix(0.0666667 0 0 0.0666667 -70.8533 -275)" d="M 4711.86,6663.36 L 4729.9,6652.05 L 5112.49,6949.07 L 5100.23,6964.87 L 4711.86,6663.36 Z " />
<path stroke="transparent" fill="#000000" transform="matrix(0.0666667 0 0 0.0666667 -70.8533 -275)" d="M 7799.16,6830.2 L 7800.12,6853.19 L 7264.46,6577.25 L 7263.58,6554.3 L 7799.16,6830.2 Z " />
<path stroke="transparent" fill="#000000" transform="matrix(0.0666667 0 0 0.0666667 -70.8533 -275)" d="M 4882.35,5564.72 L 4868.06,5549.13 L 5309.47,5356.61 L 5317.47,5374.94 L 4882.35,5564.72 Z " />
<path stroke="transparent" fill="#000000" transform="matrix(0.0666667 0 0 0.0666667 -70.8533 -275)" d="M 7663.74,5190.23 L 7679.25,5207.43 L 7094.21,5329.05 L 7078.92,5311.8 L 7663.74,5190.23 Z " />
<path stroke="transparent" fill="#000000" transform="matrix(0.0666667 0 0 0.0666667 -70.8533 -275)" d="M 6725.47,4993.03 L 6740.25,4979.56 L 7080.7,5353.01 L 7065.92,5366.48 L 6725.47,4993.03 Z " />
<path stroke="transparent" fill="#000000" transform="matrix(0.0666667 0 0 0.0666667 -70.8533 -275)" d="M 6779.1,4944.14 L 6793.88,4930.67 L 7135.23,5305.11 L 7120.45,5318.58 L 6779.1,4944.14 Z " />
<path stroke="transparent" fill="#000000" transform="matrix(0.0666667 0 0 0.0666667 -70.8533 -275)" d="M 4585.39,6068.03 L 4606.49,6071.11 L 4729.9,6652.05 L 4711.86,6663.36 L 4585.39,6068.03 Z " />
<path stroke="transparent" fill="#000000" transform="matrix(0.0666667 0 0 0.0666667 -70.8533 -275)" d="M 4243.18,7024.12 L 4179.99,6922.1 L 4197.96,6913.13 L 4259.21,7012.03 L 4243.18,7024.12 Z " />
<path stroke="transparent" fill="#000000" transform="matrix(0.0666667 0 0 0.0666667 -70.8533 -275)" d="M 4289.96,6988.86 L 4232.41,6895.94 L 4250.38,6886.97 L 4305.99,6976.77 L 4289.96,6988.86 Z " />
<path stroke="transparent" fill="#000000" transform="matrix(0.0666667 0 0 0.0666667 -70.8533 -275)" d="M 4336.74,6953.59 L 4284.82,6869.77 L 4302.79,6860.8 L 4352.77,6941.5 L 4336.74,6953.59 Z " />
<path stroke="transparent" fill="#000000" transform="matrix(0.0666667 0 0 0.0666667 -70.8533 -275)" d="M 4383.52,6918.32 L 4337.24,6843.6 L 4355.21,6834.63 L 4399.55,6906.23 L 4383.52,6918.32 Z " />
<path stroke="transparent" fill="#000000" transform="matrix(0.0666667 0 0 0.0666667 -70.8533 -275)" d="M 4430.3,6883.06 L 4389.66,6817.44 L 4407.63,6808.47 L 4446.33,6870.97 L 4430.3,6883.06 Z " />
<path stroke="transparent" fill="#000000" transform="matrix(0.0666667 0 0 0.0666667 -70.8533 -275)" d="M 4477.08,6847.79 L 4442.07,6791.27 L 4460.04,6782.3 L 4493.11,6835.7 L 4477.08,6847.79 Z " />
<path stroke="transparent" fill="#000000" transform="matrix(0.0666667 0 0 0.0666667 -70.8533 -275)" d="M 4523.86,6812.53 L 4494.49,6765.1 L 4512.46,6756.13 L 4539.89,6800.44 L 4523.86,6812.53 Z " />
<path stroke="transparent" fill="#000000" transform="matrix(0.0666667 0 0 0.0666667 -70.8533 -275)" d="M 4570.64,6777.26 L 4546.9,6738.94 L 4564.87,6729.97 L 4586.67,6765.17 L 4570.64,6777.26 Z " />
<path stroke="transparent" fill="#000000" transform="matrix(0.0666667 0 0 0.0666667 -70.8533 -275)" d="M 4617.42,6741.99 L 4599.32,6712.77 L 4617.29,6703.8 L 4633.45,6729.9 L 4617.42,6741.99 Z " />
<path stroke="transparent" fill="#000000" transform="matrix(0.0666667 0 0 0.0666667 -70.8533 -275)" d="M 4664.2,6706.73 L 4651.73,6686.61 L 4669.7,6677.63 L 4680.23,6694.64 L 4664.2,6706.73 Z " />
<path stroke="transparent" fill="#000000" transform="matrix(0.0666667 0 0 0.0666667 -70.8533 -275)" d="M 8308.53,6511.4 L 8309.35,6534.48 L 7800.12,6853.19 L 7799.16,6830.2 L 8308.53,6511.4 Z " />
<path stroke="transparent" fill="#000000" transform="matrix(0.0666667 0 0 0.0666667 -70.8533 -275)" d="M 4513.59,5226.61 L 4528.42,5213.19 L 4864.16,5584.11 L 4849.33,5597.53 L 4513.59,5226.61 Z " />
<path stroke="transparent" fill="#000000" transform="matrix(0.0666667 0 0 0.0666667 -70.8533 -275)" d="M 4567.61,5177.72 L 4582.43,5164.3 L 4917.84,5534.86 L 4903.02,5548.28 L 4567.61,5177.72 Z " />
<path stroke="transparent" fill="#000000" transform="matrix(0.0666667 0 0 0.0666667 -70.8533 -275)" d="M 7844.21,4622.99 L 7855.49,4620.52 L 7863.26,4629.09 L 7679.25,5207.43 L 7663.74,5190.23 L 7844.21,4622.99 Z " />
<path stroke="transparent" fill="#000000" transform="matrix(0.0666667 0 0 0.0666667 -70.8533 -275)" d="M 4077.48,6056.89 L 4094.28,5938.07 L 4113.78,5943.01 L 4097.59,6057.54 L 4077.48,6056.89 Z " />
<path stroke="transparent" fill="#000000" transform="matrix(0.0666667 0 0 0.0666667 -70.8533 -275)" d="M 4132.92,6058.68 L 4148.04,5951.71 L 4167.54,5956.65 L 4153.02,6059.34 L 4132.92,6058.68 Z " />
<path stroke="transparent" fill="#000000" transform="matrix(0.0666667 0 0 0.0666667 -70.8533 -275)" d="M 4188.35,6060.48 L 4201.8,5965.34 L 4221.3,5970.29 L 4208.46,6061.13 L 4188.35,6060.48 Z " />
<path stroke="transparent" fill="#000000" transform="matrix(0.0666667 0 0 0.0666667 -70.8533 -275)" d="M 4243.78,6062.28 L 4255.56,5978.98 L 4275.06,5983.93 L 4263.89,6062.93 L 4243.78,6062.28 Z " />
<path stroke="transparent" fill="#000000" transform="matrix(0.0666667 0 0 0.0666667 -70.8533 -275)" d="M 4299.22,6064.07 L 4309.32,5992.62 L 4328.82,5997.56 L 4319.32,6064.73 L 4299.22,6064.07 Z " />
<path stroke="transparent" fill="#000000" transform="matrix(0.0666667 0 0 0.0666667 -70.8533 -275)" d="M 4354.65,6065.87 L 4363.08,6006.25 L 4382.58,6011.2 L 4374.76,6066.52 L 4354.65,6065.87 Z " />
<path stroke="transparent" fill="#000000" transform="matrix(0.0666667 0 0 0.0666667 -70.8533 -275)" d="M 4410.08,6067.67 L 4416.84,6019.89 L 4436.34,6024.84 L 4430.19,6068.32 L 4410.08,6067.67 Z " />
<path stroke="transparent" fill="#000000" transform="matrix(0.0666667 0 0 0.0666667 -70.8533 -275)" d="M 4465.52,6069.47 L 4470.6,6033.53 L 4490.1,6038.47 L 4485.62,6070.12 L 4465.52,6069.47 Z " />
<path stroke="transparent" fill="#000000" transform="matrix(0.0666667 0 0 0.0666667 -70.8533 -275)" d="M 4520.95,6071.26 L 4524.36,6047.16 L 4543.86,6052.11 L 4541.06,6071.91 L 4520.95,6071.26 Z " />
<path stroke="transparent" fill="#000000" transform="matrix(0.0666667 0 0 0.0666667 -70.8533 -275)" d="M 8840.79,6794.08 L 8841.63,6817.17 L 8309.35,6534.48 L 8308.53,6511.4 L 8840.79,6794.08 Z " />
<path stroke="transparent" fill="#000000" transform="matrix(0.0666667 0 0 0.0666667 -70.8533 -275)" d="M 8441.62,4485.87 L 8445.77,4505.43 L 7863.26,4629.09 L 7855.49,4620.52 L 7859.02,4609.54 L 8441.62,4485.87 Z " />
<path stroke="transparent" fill="#000000" transform="matrix(0.0666667 0 0 0.0666667 -70.8533 -275)" d="M 7443.97,4183.7 L 7458.75,4170.23 L 7859.02,4609.54 L 7855.49,4620.52 L 7844.21,4622.99 L 7443.97,4183.7 Z " />
<path stroke="transparent" fill="#000000" transform="matrix(0.0666667 0 0 0.0666667 -70.8533 -275)" d="M 3631.06,6471.24 L 3622.25,6449.85 L 3901.1,6085.59 L 3916.98,6097.75 L 3631.06,6471.24 Z " />
<path stroke="transparent" fill="#000000" transform="matrix(0.0666667 0 0 0.0666667 -70.8533 -275)" d="M 9348.46,6475.13 L 9359.1,6492.06 L 8841.63,6817.17 L 8840.79,6794.08 L 9348.46,6475.13 Z " />
<path stroke="transparent" fill="#000000" transform="matrix(0.0666667 0 0 0.0666667 -70.8533 -275)" d="M 3032.96,6389.12 L 3028.63,6378.44 L 3035.72,6369.32 L 3622.25,6449.85 L 3631.06,6471.24 L 3032.96,6389.12 Z " />
<path stroke="transparent" fill="#000000" transform="matrix(0.0666667 0 0 0.0666667 -70.8533 -275)" d="M 3855.34,6896.88 L 3836.84,6904.47 L 3642.6,6431.43 L 3661.1,6423.83 L 3855.34,6896.88 Z " />
<path stroke="transparent" fill="#000000" transform="matrix(0.0666667 0 0 0.0666667 -70.8533 -275)" d="M 3789.09,6924.08 L 3770.59,6931.68 L 3576.38,6458.71 L 3594.88,6451.11 L 3789.09,6924.08 Z " />
<path stroke="transparent" fill="#000000" transform="matrix(0.0666667 0 0 0.0666667 -70.8533 -275)" d="M 2801.4,5845.39 L 2808.49,5836.27 L 2819.92,5837.83 L 3035.72,6369.32 L 3028.63,6378.44 L 3017.19,6376.83 L 2801.4,5845.39 Z " />
<path stroke="transparent" fill="#000000" transform="matrix(0.0666667 0 0 0.0666667 -70.8533 -275)" d="M 2749.44,5904.07 L 2767.97,5896.54 L 2957.54,6363.4 L 2939,6370.93 L 2749.44,5904.07 Z " />
<path stroke="transparent" fill="#000000" transform="matrix(0.0666667 0 0 0.0666667 -70.8533 -275)" d="M 2664.94,6859.04 L 2656.34,6837.59 L 3017.19,6376.83 L 3028.63,6378.44 L 3032.96,6389.12 L 2664.94,6859.04 Z " />
<path stroke="transparent" fill="#000000" transform="matrix(0.0666667 0 0 0.0666667 -70.8533 -275)" d="M 2214.6,5764.75 L 2210.47,5754.09 L 2217.55,5744.97 L 2804.11,5825.57 L 2808.49,5836.27 L 2801.4,5845.39 L 2214.6,5764.75 Z " />
<path stroke="transparent" fill="#000000" transform="matrix(0.0666667 0 0 0.0666667 -70.8533 -275)" d="M 3092.16,5451.89 L 3108,5464.1 L 2819.92,5837.83 L 2808.49,5836.27 L 2804.11,5825.57 L 3092.16,5451.89 Z " />
<path stroke="transparent" fill="#000000" transform="matrix(0.0666667 0 0 0.0666667 -70.8533 -275)" d="M 2062.17,6772.03 L 2076.16,6753.84 L 2656.34,6837.59 L 2664.94,6859.04 L 2062.17,6772.03 Z " />
<path stroke="transparent" fill="#000000" transform="matrix(0.0666667 0 0 0.0666667 -70.8533 -275)" d="M 2117.9,6707.62 L 2120.76,6687.82 L 2631.22,6761.51 L 2628.36,6781.3 L 2117.9,6707.62 Z " />
<path stroke="transparent" fill="#000000" transform="matrix(0.0666667 0 0 0.0666667 -70.8533 -275)" d="M 1844.19,6209.31 L 1820.99,6205.9 L 2198.94,5752.3 L 2210.47,5754.09 L 2214.6,5764.75 L 1844.19,6209.31 Z " />
<path stroke="transparent" fill="#000000" transform="matrix(0.0666667 0 0 0.0666667 -70.8533 -275)" d="M 1922.42,6226.08 L 1907.05,6213.28 L 2232.06,5823.21 L 2247.43,5836.02 L 1922.42,6226.08 Z " />
<path stroke="transparent" fill="#000000" transform="matrix(0.0666667 0 0 0.0666667 -70.8533 -275)" d="M 2024.59,5325.38 L 2043.11,5317.82 L 2217.55,5744.97 L 2210.47,5754.09 L 2198.94,5752.3 L 2024.59,5325.38 Z " />
<path stroke="transparent" fill="#000000" transform="matrix(0.0666667 0 0 0.0666667 -70.8533 -275)" d="M 1381.98,5122.48 L 1395.95,5104.28 L 1890.68,5175.36 L 1887.83,5195.16 L 1381.98,5122.48 Z " />
<path stroke="transparent" fill="#000000" transform="matrix(0.0666667 0 0 0.0666667 -70.8533 -275)" d="M 1187.75,4667.39 L 1206.14,4659.54 L 1395.95,5104.28 L 1381.98,5122.48 L 1187.75,4667.39 Z " />
<path stroke="transparent" fill="#000000" transform="matrix(0.0666667 0 0 0.0666667 -70.8533 -275)" d="M 1255.16,4638.62 L 1273.56,4630.77 L 1449.4,5042.76 L 1431,5050.61 L 1255.16,4638.62 Z " />
<path stroke="transparent" fill="#000000" transform="matrix(0.0666667 0 0 0.0666667 -70.8533 -275)" d="M 4606.49,6071.11 L 4585.39,6068.03 L 4868.06,5549.13 L 4882.35,5564.72 L 4606.49,6071.11 Z " />
<path stroke="transparent" fill="#000000" transform="matrix(0.0666667 0 0 0.0666667 -70.8533 -275)" d="M 1820.99,6205.9 L 1844.19,6209.31 L 2076.16,6753.84 L 2062.17,6772.03 L 1820.99,6205.9 Z " />
</svg>
