<?xml version="1.0" standalone="no" ?>
<!DOCTYPE svg PUBLIC "-//W3C//DTD SVG 1.1//EN" "http://www.w3.org/Graphics/SVG/1.1/DTD/svg11.dtd">
<svg width="318px" height="271px" viewBox="0 0 318 271" style="background-color: #ffffff00" xmlns="http://www.w3.org/2000/svg" xmlns:xlink="http://www.w3.org/1999/xlink" version="1.1" >
<path stroke="transparent" fill="#000000" transform="matrix(0.0833333 0 0 0.0833333 -277.208 -224)" d="M 5973.74,2808 L 5973.74,2831.1 L 5464.08,3125.33 L 5454.08,3119.56 L 5454.08,3108.01 L 5973.74,2808 Z " />
<path stroke="transparent" fill="#000000" transform="matrix(0.0833333 0 0 0.0833333 -277.208 -224)" d="M 5973.74,2831.1 L 5973.74,2808 L 6503.35,3113.78 L 6483.35,3125.33 L 5973.74,2831.1 Z " />
<path stroke="transparent" fill="#000000" transform="matrix(0.0833333 0 0 0.0833333 -277.208 -224)" d="M 6483.35,3125.33 L 6503.35,3113.78 L 6503.35,3592.9 L 6483.35,3592.9 L 6483.35,3125.33 Z " />
<path stroke="transparent" fill="#000000" transform="matrix(0.0833333 0 0 0.0833333 -277.208 -224)" d="M 6802.01,4234.18 L 6784.69,4244.18 L 6552.18,3841.46 L 6569.5,3831.46 L 6802.01,4234.18 Z " />
<path stroke="transparent" fill="#000000" transform="matrix(0.0833333 0 0 0.0833333 -277.208 -224)" d="M 7093.36,3709.53 L 7093.36,3729.53 L 6684.35,3729.56 L 6684.35,3709.56 L 7093.36,3709.53 Z " />
<path stroke="transparent" fill="#000000" transform="matrix(0.0833333 0 0 0.0833333 -277.208 -224)" d="M 6378.22,3774.49 L 6388.22,3791.81 L 5973.74,4031.12 L 5973.74,4008.03 L 6378.22,3774.49 Z " />
<path stroke="transparent" fill="#000000" transform="matrix(0.0833333 0 0 0.0833333 -277.208 -224)" d="M 4934.47,4631.14 L 4934.47,4608.04 L 5454.08,4908.05 L 5454.08,4919.6 L 5444.08,4925.37 L 4934.47,4631.14 Z " />
<path stroke="transparent" fill="#000000" transform="matrix(0.0833333 0 0 0.0833333 -277.208 -224)" d="M 4934.47,4608.04 L 4934.47,4631.14 L 4424.86,4925.37 L 4404.86,4913.82 L 4934.47,4608.04 Z " />
<path stroke="transparent" fill="#000000" transform="matrix(0.0833333 0 0 0.0833333 -277.208 -224)" d="M 4929.47,4694.07 L 4939.47,4711.39 L 4491.86,4969.83 L 4481.86,4952.5 L 4929.47,4694.07 Z " />
<path stroke="transparent" fill="#000000" transform="matrix(0.0833333 0 0 0.0833333 -277.208 -224)" d="M 4404.86,4913.82 L 4424.86,4925.37 L 4424.86,5513.84 L 4414.86,5519.61 L 4404.86,5513.84 L 4404.86,4913.82 Z " />
<path stroke="transparent" fill="#000000" transform="matrix(0.0833333 0 0 0.0833333 -277.208 -224)" d="M 3992.86,5774.81 L 3982.86,5757.49 L 4404.86,5513.84 L 4414.86,5519.61 L 4414.86,5531.16 L 3992.86,5774.81 Z " />
<path stroke="transparent" fill="#000000" transform="matrix(0.0833333 0 0 0.0833333 -277.208 -224)" d="M 4414.86,5531.16 L 4414.86,5519.61 L 4424.86,5513.84 L 4934.47,5808.07 L 4934.47,5831.16 L 4414.86,5531.16 Z " />
<path stroke="transparent" fill="#000000" transform="matrix(0.0833333 0 0 0.0833333 -277.208 -224)" d="M 4481.86,5486.7 L 4491.86,5469.38 L 4939.47,5727.82 L 4929.47,5745.14 L 4481.86,5486.7 Z " />
<path stroke="transparent" fill="#000000" transform="matrix(0.0833333 0 0 0.0833333 -277.208 -224)" d="M 4934.47,5831.16 L 4934.47,5808.07 L 5444.08,5513.84 L 5464.08,5525.38 L 4934.47,5831.16 Z " />
<path stroke="transparent" fill="#000000" transform="matrix(0.0833333 0 0 0.0833333 -277.208 -224)" d="M 5464.08,5525.38 L 5444.08,5513.84 L 5444.08,4925.37 L 5454.08,4919.6 L 5464.08,4925.37 L 5464.08,5525.38 Z " />
<path stroke="transparent" fill="#000000" transform="matrix(0.0833333 0 0 0.0833333 -277.208 -224)" d="M 5392.08,5478.04 L 5372.08,5478.04 L 5372.08,4961.17 L 5392.08,4961.17 L 5392.08,5478.04 Z " />
<path stroke="transparent" fill="#000000" transform="matrix(0.0833333 0 0 0.0833333 -277.208 -224)" d="M 5464.08,4925.37 L 5454.08,4919.6 L 5454.08,4908.05 L 5968.74,4610.93 L 5978.74,4628.25 L 5464.08,4925.37 Z " />
<path stroke="transparent" fill="#000000" transform="matrix(0.0833333 0 0 0.0833333 -277.208 -224)" d="M 6033.74,4565.59 L 5913.74,4565.59 L 5915.77,4545.59 L 6031.7,4545.59 L 6033.74,4565.59 Z " />
<path stroke="transparent" fill="#000000" transform="matrix(0.0833333 0 0 0.0833333 -277.208 -224)" d="M 6027.74,4506.59 L 5919.73,4506.59 L 5921.76,4486.59 L 6025.71,4486.59 L 6027.74,4506.59 Z " />
<path stroke="transparent" fill="#000000" transform="matrix(0.0833333 0 0 0.0833333 -277.208 -224)" d="M 6021.74,4447.59 L 5925.73,4447.59 L 5927.76,4427.59 L 6019.71,4427.59 L 6021.74,4447.59 Z " />
<path stroke="transparent" fill="#000000" transform="matrix(0.0833333 0 0 0.0833333 -277.208 -224)" d="M 6015.75,4388.58 L 5931.72,4388.58 L 5933.76,4368.58 L 6013.72,4368.58 L 6015.75,4388.58 Z " />
<path stroke="transparent" fill="#000000" transform="matrix(0.0833333 0 0 0.0833333 -277.208 -224)" d="M 6009.75,4329.58 L 5937.72,4329.58 L 5939.75,4309.58 L 6007.72,4309.58 L 6009.75,4329.58 Z " />
<path stroke="transparent" fill="#000000" transform="matrix(0.0833333 0 0 0.0833333 -277.208 -224)" d="M 6003.76,4270.58 L 5943.72,4270.58 L 5945.75,4250.58 L 6001.72,4250.58 L 6003.76,4270.58 Z " />
<path stroke="transparent" fill="#000000" transform="matrix(0.0833333 0 0 0.0833333 -277.208 -224)" d="M 5997.76,4211.58 L 5949.71,4211.58 L 5951.74,4191.58 L 5995.73,4191.58 L 5997.76,4211.58 Z " />
<path stroke="transparent" fill="#000000" transform="matrix(0.0833333 0 0 0.0833333 -277.208 -224)" d="M 5991.76,4152.58 L 5955.71,4152.58 L 5957.74,4132.58 L 5989.73,4132.58 L 5991.76,4152.58 Z " />
<path stroke="transparent" fill="#000000" transform="matrix(0.0833333 0 0 0.0833333 -277.208 -224)" d="M 5985.77,4093.58 L 5961.7,4093.58 L 5963.74,4073.58 L 5983.74,4073.58 L 5985.77,4093.58 Z " />
<path stroke="transparent" fill="#000000" transform="matrix(0.0833333 0 0 0.0833333 -277.208 -224)" d="M 5454.08,3731.12 L 5454.08,3719.57 L 5464.08,3713.8 L 5973.74,4008.03 L 5973.74,4031.12 L 5454.08,3731.12 Z " />
<path stroke="transparent" fill="#000000" transform="matrix(0.0833333 0 0 0.0833333 -277.208 -224)" d="M 3992.86,3974.77 L 3982.86,3957.45 L 4404.86,3713.8 L 4414.86,3719.57 L 4414.86,3731.12 L 3992.86,3974.77 Z " />
<path stroke="transparent" fill="#000000" transform="matrix(0.0833333 0 0 0.0833333 -277.208 -224)" d="M 4424.86,3713.8 L 4414.86,3719.57 L 4404.86,3713.8 L 4404.86,3125.33 L 4414.86,3119.56 L 4424.86,3125.33 L 4424.86,3713.8 Z " />
<path stroke="transparent" fill="#000000" transform="matrix(0.0833333 0 0 0.0833333 -277.208 -224)" d="M 4414.86,3731.12 L 4414.86,3719.57 L 4424.86,3713.8 L 4934.47,4008.03 L 4934.47,4031.12 L 4414.86,3731.12 Z " />
<path stroke="transparent" fill="#000000" transform="matrix(0.0833333 0 0 0.0833333 -277.208 -224)" d="M 4481.86,3686.66 L 4491.86,3669.34 L 4939.47,3927.78 L 4929.47,3945.1 L 4481.86,3686.66 Z " />
<path stroke="transparent" fill="#000000" transform="matrix(0.0833333 0 0 0.0833333 -277.208 -224)" d="M 4934.47,4031.12 L 4934.47,4008.03 L 5444.08,3713.8 L 5454.08,3719.57 L 5454.08,3731.12 L 4934.47,4031.12 Z " />
<path stroke="transparent" fill="#000000" transform="matrix(0.0833333 0 0 0.0833333 -277.208 -224)" d="M 5464.08,3713.8 L 5454.08,3719.57 L 5444.08,3713.8 L 5444.08,3125.33 L 5454.08,3119.56 L 5464.08,3125.33 L 5464.08,3713.8 Z " />
<path stroke="transparent" fill="#000000" transform="matrix(0.0833333 0 0 0.0833333 -277.208 -224)" d="M 5392.08,3678 L 5372.08,3678 L 5372.08,3161.13 L 5392.08,3161.13 L 5392.08,3678 Z " />
<path stroke="transparent" fill="#000000" transform="matrix(0.0833333 0 0 0.0833333 -277.208 -224)" d="M 5454.08,3108.01 L 5454.08,3119.56 L 5444.08,3125.33 L 4934.47,2831.1 L 4934.47,2808 L 5454.08,3108.01 Z " />
<path stroke="transparent" fill="#000000" transform="matrix(0.0833333 0 0 0.0833333 -277.208 -224)" d="M 4934.47,2808 L 4934.47,2831.1 L 4424.86,3125.33 L 4414.86,3119.56 L 4414.86,3108.01 L 4934.47,2808 Z " />
<path stroke="transparent" fill="#000000" transform="matrix(0.0833333 0 0 0.0833333 -277.208 -224)" d="M 4929.47,2894.03 L 4939.47,2911.35 L 4491.86,3169.79 L 4481.86,3152.47 L 4929.47,2894.03 Z " />
<path stroke="transparent" fill="#000000" transform="matrix(0.0833333 0 0 0.0833333 -277.208 -224)" d="M 4414.86,3108.01 L 4414.86,3119.56 L 4404.86,3125.33 L 3990.29,2885.97 L 4000.29,2868.65 L 4414.86,3108.01 Z " />
<path stroke="transparent" fill="#000000" transform="matrix(0.0833333 0 0 0.0833333 -277.208 -224)" d="M 3790.65,2868.4 L 3800.65,2885.72 L 3380.64,3128.22 L 3370.64,3110.9 L 3790.65,2868.4 Z " />
<text x="0" y="0" stroke="transparent" fill="#000000" transform="matrix(0.0833333 0 0 0.0833333 257.904 92.4642)" style="font:normal normal normal 200px 'Arial'" >
N</text>
<text x="0" y="0" stroke="transparent" fill="#000000" transform="matrix(0.0833333 0 0 0.0833333 269.94 85.9642)" style="font:normal normal normal 150px 'Arial'" >
+</text>
<text x="0" y="0" stroke="transparent" fill="#000000" transform="matrix(0.0833333 0 0 0.0833333 28.8597 267.468)" style="font:normal normal normal 200px 'Arial'" >
HO</text>
<text x="0" y="0" stroke="transparent" fill="#000000" transform="matrix(0.0833333 0 0 0.0833333 28.8597 117.465)" style="font:normal normal normal 200px 'Arial'" >
HO</text>
<text x="0" y="0" stroke="transparent" fill="#000000" transform="matrix(0.0833333 0 0 0.0833333 40.8959 17.4625)" style="font:normal normal normal 200px 'Arial'" >
O</text>
</svg>
