<?xml version="1.0" standalone="no" ?>
<!DOCTYPE svg PUBLIC "-//W3C//DTD SVG 1.1//EN" "http://www.w3.org/Graphics/SVG/1.1/DTD/svg11.dtd">
<svg width="178px" height="314px" viewBox="0 0 178 314" style="background-color: #ffffff00" xmlns="http://www.w3.org/2000/svg" xmlns:xlink="http://www.w3.org/1999/xlink" version="1.1" >
<text x="0" y="0" stroke="transparent" fill="#000000" transform="matrix(0.0833333 0 0 0.0833333 161.262 106.048)" style="font:normal normal normal 200px 'Arial'" >
O</text>
<text x="0" y="0" stroke="transparent" fill="#000000" transform="matrix(0.0833333 0 0 0.0833333 147.29 18.0501)" style="font:normal normal normal 200px 'Arial'" >
O</text>
<path stroke="transparent" fill="#000000" transform="matrix(0.0833333 0 0 0.0833333 -359.208 -232)" d="M 5929.79,6048.85 L 5952.38,6053.65 L 5547.2,6504.03 L 5532.33,6490.66 L 5929.79,6048.85 Z " />
<path stroke="transparent" fill="#000000" transform="matrix(0.0833333 0 0 0.0833333 -359.208 -232)" d="M 5744.15,5478.29 L 5766.75,5483.09 L 5952.38,6053.65 L 5929.79,6048.85 L 5744.15,5478.29 Z " />
<path stroke="transparent" fill="#000000" transform="matrix(0.0833333 0 0 0.0833333 -359.208 -232)" d="M 6145.47,5032.26 L 6168.06,5037.05 L 5766.75,5483.09 L 5744.15,5478.29 L 6145.47,5032.26 Z " />
<path stroke="transparent" fill="#000000" transform="matrix(0.0833333 0 0 0.0833333 -359.208 -232)" d="M 5963.19,4472.03 L 5971.13,4464.09 L 5982.21,4465.84 L 6168.06,5037.05 L 6145.47,5032.26 L 5963.19,4472.03 Z " />
<path stroke="transparent" fill="#000000" transform="matrix(0.0833333 0 0 0.0833333 -359.208 -232)" d="M 6245.05,4069.81 L 6261.23,4081.56 L 5982.21,4465.84 L 5971.13,4464.09 L 5967.3,4452.34 L 6245.05,4069.81 Z " />
<path stroke="transparent" fill="#000000" transform="matrix(0.0833333 0 0 0.0833333 -359.208 -232)" d="M 5966.93,3505.05 L 5974.56,3481.54 L 6268.96,3886.36 L 6252.78,3898.12 L 5966.93,3505.05 Z " />
<path stroke="transparent" fill="#000000" transform="matrix(0.0833333 0 0 0.0833333 -359.208 -232)" d="M 6074.63,3024.25 L 6093.65,3030.42 L 5937.94,3510.15 L 5918.92,3503.98 L 6074.63,3024.25 Z " />
<path stroke="transparent" fill="#000000" transform="matrix(0.0833333 0 0 0.0833333 -359.208 -232)" d="M 6143.11,3046.48 L 6162.13,3052.65 L 6006.43,3532.37 L 5987.41,3526.19 L 6143.11,3046.48 Z " />
<path stroke="transparent" fill="#000000" transform="matrix(0.0833333 0 0 0.0833333 -359.208 -232)" d="M 5410.19,3686.19 L 5400.19,3678.93 L 5401.33,3668.05 L 5974.56,3481.54 L 5966.93,3505.05 L 5410.19,3686.19 Z " />
<path stroke="transparent" fill="#000000" transform="matrix(0.0833333 0 0 0.0833333 -359.208 -232)" d="M 4880.48,3390.69 L 4880.47,3367.6 L 5401.33,3668.05 L 5400.19,3678.93 L 5390.19,3684.71 L 4880.48,3390.69 Z " />
<path stroke="transparent" fill="#000000" transform="matrix(0.0833333 0 0 0.0833333 -359.208 -232)" d="M 4875.51,3470.94 L 4885.5,3453.62 L 5333.2,3711.87 L 5323.21,3729.19 L 4875.51,3470.94 Z " />
<path stroke="transparent" fill="#000000" transform="matrix(0.0833333 0 0 0.0833333 -359.208 -232)" d="M 4370.94,3685.09 L 4350.93,3673.55 L 4880.47,3367.6 L 4880.48,3390.69 L 4370.94,3685.09 Z " />
<path stroke="transparent" fill="#000000" transform="matrix(0.0833333 0 0 0.0833333 -359.208 -232)" d="M 4371.18,4273.47 L 4351.18,4285.03 L 4350.93,3673.55 L 4370.94,3685.09 L 4371.18,4273.47 Z " />
<path stroke="transparent" fill="#000000" transform="matrix(0.0833333 0 0 0.0833333 -359.208 -232)" d="M 4443.15,4237.66 L 4423.15,4237.67 L 4422.94,3720.87 L 4442.94,3720.86 L 4443.15,4237.66 Z " />
<path stroke="transparent" fill="#000000" transform="matrix(0.0833333 0 0 0.0833333 -359.208 -232)" d="M 4880.93,4567.56 L 4880.94,4590.66 L 4351.18,4285.03 L 4371.18,4273.47 L 4880.93,4567.56 Z " />
<path stroke="transparent" fill="#000000" transform="matrix(0.0833333 0 0 0.0833333 -359.208 -232)" d="M 5390.41,4273.15 L 5400.42,4278.92 L 5401.57,4289.8 L 4880.94,4590.66 L 4880.93,4567.56 L 5390.41,4273.15 Z " />
<path stroke="transparent" fill="#000000" transform="matrix(0.0833333 0 0 0.0833333 -359.208 -232)" d="M 5323.4,4228.72 L 5333.41,4246.04 L 4885.91,4504.63 L 4875.9,4487.32 L 5323.4,4228.72 Z " />
<path stroke="transparent" fill="#000000" transform="matrix(0.0833333 0 0 0.0833333 -359.208 -232)" d="M 5410.41,4271.65 L 5400.42,4278.92 L 5390.41,4273.15 L 5390.19,3684.71 L 5400.19,3678.93 L 5410.19,3686.19 L 5410.41,4271.65 Z " />
<path stroke="transparent" fill="#000000" transform="matrix(0.0833333 0 0 0.0833333 -359.208 -232)" d="M 5401.57,4289.8 L 5400.42,4278.92 L 5410.41,4271.65 L 5967.3,4452.34 L 5971.13,4464.09 L 5963.19,4472.03 L 5401.57,4289.8 Z " />
</svg>
