<?xml version="1.0" standalone="no" ?>
<!DOCTYPE svg PUBLIC "-//W3C//DTD SVG 1.1//EN" "http://www.w3.org/Graphics/SVG/1.1/DTD/svg11.dtd">
<svg width="454px" height="791px" viewBox="0 0 454 791" style="background-color: #ffffff00" xmlns="http://www.w3.org/2000/svg" xmlns:xlink="http://www.w3.org/1999/xlink" version="1.1" >
<text x="0" y="0" stroke="transparent" fill="#000000" transform="matrix(0.0833333 0 0 0.0833333 278.832 661.957)" style="font:normal normal normal 200px 'Arial'" >
O</text>
<text x="0" y="0" stroke="transparent" fill="#000000" transform="matrix(0.0833333 0 0 0.0833333 235.53 586.957)" style="font:normal normal normal 200px 'Arial'" >
O</text>
<text x="0" y="0" stroke="transparent" fill="#000000" transform="matrix(0.0833333 0 0 0.0833333 308.221 602.408)" style="font:normal normal normal 200px 'Arial'" >
O</text>
<text x="0" y="0" stroke="transparent" fill="#000000" transform="matrix(0.0833333 0 0 0.0833333 378.962 666.072)" style="font:normal normal normal 200px 'Arial'" >
HO</text>
<text x="0" y="0" stroke="transparent" fill="#000000" transform="matrix(0.0833333 0 0 0.0833333 396.225 507.568)" style="font:normal normal normal 200px 'Arial'" >
OH</text>
<text x="0" y="0" stroke="transparent" fill="#000000" transform="matrix(0.0833333 0 0 0.0833333 280.734 473.953)" style="font:normal normal normal 200px 'Arial'" >
HO</text>
<text x="0" y="0" stroke="transparent" fill="#000000" transform="matrix(0.0833333 0 0 0.0833333 235.53 486.957)" style="font:normal normal normal 200px 'Arial'" >
O</text>
<text x="0" y="0" stroke="transparent" fill="#000000" transform="matrix(0.0833333 0 0 0.0833333 149.849 414.006)" style="font:normal normal normal 200px 'Arial'" >
O</text>
<text x="0" y="0" stroke="transparent" fill="#000000" transform="matrix(0.0833333 0 0 0.0833333 4.13241 420.405)" style="font:normal normal normal 200px 'Arial'" >
HO</text>
<text x="0" y="0" stroke="transparent" fill="#000000" transform="matrix(0.0833333 0 0 0.0833333 49.8097 508.846)" style="font:normal normal normal 200px 'Arial'" >
HO</text>
<text x="0" y="0" stroke="transparent" fill="#000000" transform="matrix(0.0833333 0 0 0.0833333 165.3 542.461)" style="font:normal normal normal 200px 'Arial'" >
OH</text>
<text x="0" y="0" stroke="transparent" fill="#000000" transform="matrix(0.0833333 0 0 0.0833333 235.53 371.957)" style="font:normal normal normal 200px 'Arial'" >
O</text>
<text x="0" y="0" stroke="transparent" fill="#000000" transform="matrix(0.0833333 0 0 0.0833333 308.221 306.506)" style="font:normal normal normal 200px 'Arial'" >
O</text>
<text x="0" y="0" stroke="transparent" fill="#000000" transform="matrix(0.0833333 0 0 0.0833333 378.962 242.842)" style="font:normal normal normal 200px 'Arial'" >
HO</text>
<text x="0" y="0" stroke="transparent" fill="#000000" transform="matrix(0.0833333 0 0 0.0833333 396.225 401.346)" style="font:normal normal normal 200px 'Arial'" >
OH</text>
<text x="0" y="0" stroke="transparent" fill="#000000" transform="matrix(0.0833333 0 0 0.0833333 280.734 434.961)" style="font:normal normal normal 200px 'Arial'" >
HO</text>
<text x="0" y="0" stroke="transparent" fill="#000000" transform="matrix(0.0833333 0 0 0.0833333 235.53 271.957)" style="font:normal normal normal 200px 'Arial'" >
O</text>
<text x="0" y="0" stroke="transparent" fill="#000000" transform="matrix(0.0833333 0 0 0.0833333 162.84 206.506)" style="font:normal normal normal 200px 'Arial'" >
O</text>
<text x="0" y="0" stroke="transparent" fill="#000000" transform="matrix(0.0833333 0 0 0.0833333 17.1228 212.905)" style="font:normal normal normal 200px 'Arial'" >
HO</text>
<text x="0" y="0" stroke="transparent" fill="#000000" transform="matrix(0.0833333 0 0 0.0833333 62.8001 301.346)" style="font:normal normal normal 200px 'Arial'" >
HO</text>
<text x="0" y="0" stroke="transparent" fill="#000000" transform="matrix(0.0833333 0 0 0.0833333 178.291 334.961)" style="font:normal normal normal 200px 'Arial'" >
OH</text>
<text x="0" y="0" stroke="transparent" fill="#000000" transform="matrix(0.0833333 0 0 0.0833333 235.53 171.957)" style="font:normal normal normal 200px 'Arial'" >
O</text>
<text x="0" y="0" stroke="transparent" fill="#000000" transform="matrix(0.0833333 0 0 0.0833333 328.558 141.731)" style="font:normal normal normal 200px 'Arial'" >
O</text>
<text x="0" y="0" stroke="transparent" fill="#000000" transform="matrix(0.0833333 0 0 0.0833333 425.081 101.876)" style="font:normal normal normal 200px 'Arial'" >
OH</text>
<text x="0" y="0" stroke="transparent" fill="#000000" transform="matrix(0.0833333 0 0 0.0833333 278.389 18.0972)" style="font:normal normal normal 200px 'Arial'" >
HO</text>
<text x="0" y="0" stroke="transparent" fill="#000000" transform="matrix(0.0833333 0 0 0.0833333 197.551 90.8842)" style="font:normal normal normal 200px 'Arial'" >
HO</text>
<text x="0" y="0" stroke="transparent" fill="#000000" transform="matrix(0.0833333 0 0 0.0833333 322.133 221.957)" style="font:normal normal normal 200px 'Arial'" >
OH</text>
<text x="0" y="0" stroke="transparent" fill="#000000" transform="matrix(0.0833333 0 0 0.0833333 136.892 636.957)" style="font:normal normal normal 200px 'Arial'" >
HO</text>
<text x="0" y="0" stroke="transparent" fill="#000000" transform="matrix(0.0833333 0 0 0.0833333 136.892 736.957)" style="font:normal normal normal 200px 'Arial'" >
HO</text>
<text x="0" y="0" stroke="transparent" fill="#000000" transform="matrix(0.0833333 0 0 0.0833333 235.53 786.957)" style="font:normal normal normal 200px 'Arial'" >
OH</text>
<text x="0" y="0" stroke="transparent" fill="#000000" transform="matrix(0.0833333 0 0 0.0833333 322.133 786.957)" style="font:normal normal normal 200px 'Arial'" >
OH</text>
<path stroke="transparent" fill="#000000" transform="matrix(0.0833333 0 0 0.0833333 -208.875 -21)" d="M 6433.25,8938.48 L 6373.25,9042.4 L 6356.95,9030.64 L 6414.91,8930.24 L 6433.25,8938.48 Z " />
<path stroke="transparent" fill="#000000" transform="matrix(0.0833333 0 0 0.0833333 -208.875 -21)" d="M 6379.18,8914.18 L 6325.17,9007.72 L 6308.87,8995.96 L 6360.84,8905.94 L 6379.18,8914.18 Z " />
<path stroke="transparent" fill="#000000" transform="matrix(0.0833333 0 0 0.0833333 -208.875 -21)" d="M 6325.1,8889.88 L 6277.1,8973.04 L 6260.79,8961.28 L 6306.77,8881.65 L 6325.1,8889.88 Z " />
<path stroke="transparent" fill="#000000" transform="matrix(0.0833333 0 0 0.0833333 -208.875 -21)" d="M 6271.03,8865.59 L 6229.02,8938.36 L 6212.71,8926.6 L 6252.69,8857.35 L 6271.03,8865.59 Z " />
<path stroke="transparent" fill="#000000" transform="matrix(0.0833333 0 0 0.0833333 -208.875 -21)" d="M 6216.96,8841.29 L 6180.94,8903.67 L 6164.64,8891.91 L 6198.62,8833.05 L 6216.96,8841.29 Z " />
<path stroke="transparent" fill="#000000" transform="matrix(0.0833333 0 0 0.0833333 -208.875 -21)" d="M 6162.88,8817 L 6132.86,8868.99 L 6116.56,8857.23 L 6144.54,8808.76 L 6162.88,8817 Z " />
<path stroke="transparent" fill="#000000" transform="matrix(0.0833333 0 0 0.0833333 -208.875 -21)" d="M 6108.81,8792.7 L 6084.78,8834.31 L 6068.48,8822.55 L 6090.47,8784.46 L 6108.81,8792.7 Z " />
<path stroke="transparent" fill="#000000" transform="matrix(0.0833333 0 0 0.0833333 -208.875 -21)" d="M 6054.73,8768.4 L 6036.7,8799.63 L 6020.4,8787.87 L 6036.4,8760.16 L 6054.73,8768.4 Z " />
<path stroke="transparent" fill="#000000" transform="matrix(0.0833333 0 0 0.0833333 -208.875 -21)" d="M 6000.66,8744.11 L 5988.63,8764.95 L 5972.32,8753.19 L 5982.32,8735.87 L 6000.66,8744.11 Z " />
<path stroke="transparent" fill="#000000" transform="matrix(0.0833333 0 0 0.0833333 -208.875 -21)" d="M 5421.42,9022.94 L 5410.86,9017.48 L 5410.86,9005.94 L 5920.48,8711.71 L 5940.48,8723.26 L 5421.42,9022.94 Z " />
<path stroke="transparent" fill="#000000" transform="matrix(0.0833333 0 0 0.0833333 -208.875 -21)" d="M 4881.25,8723.26 L 4901.25,8711.71 L 5410.86,9005.94 L 5410.86,9017.48 L 5400.31,9022.94 L 4881.25,8723.26 Z " />
<path stroke="transparent" fill="#000000" transform="matrix(0.0833333 0 0 0.0833333 -208.875 -21)" d="M 4881.25,8123.91 L 4891.25,8117.48 L 4901.25,8123.26 L 4901.25,8711.71 L 4881.25,8723.26 L 4881.25,8123.91 Z " />
<path stroke="transparent" fill="#000000" transform="matrix(0.0833333 0 0 0.0833333 -208.875 -21)" d="M 5400.3,7812.04 L 5410.86,7817.48 L 5410.86,7829.03 L 4901.25,8123.26 L 4891.25,8117.48 L 4891.81,8105.61 L 5400.3,7812.04 Z " />
<path stroke="transparent" fill="#000000" transform="matrix(0.0833333 0 0 0.0833333 -208.875 -21)" d="M 5842.86,8055.35 L 5832.86,8072.67 L 5410.86,7829.03 L 5410.86,7817.48 L 5421.43,7812.04 L 5842.86,8055.35 Z " />
<path stroke="transparent" fill="#000000" transform="matrix(0.0833333 0 0 0.0833333 -208.875 -21)" d="M 5920.48,8237.32 L 5940.48,8237.32 L 5940.48,8723.26 L 5920.48,8711.71 L 5920.48,8237.32 Z " />
<path stroke="transparent" fill="#000000" transform="matrix(0.0833333 0 0 0.0833333 -208.875 -21)" d="M 5350.86,7337.32 L 5470.86,7337.32 L 5421.43,7812.04 L 5410.86,7817.48 L 5400.3,7812.04 L 5350.86,7337.32 Z " />
<path stroke="transparent" fill="#000000" transform="matrix(0.0833333 0 0 0.0833333 -208.875 -21)" d="M 5533.48,7215.97 L 5473.48,7112.05 L 5923.89,6909.54 L 5930.48,6917.48 L 5928.22,6931.38 L 5533.48,7215.97 Z " />
<path stroke="transparent" fill="#000000" transform="matrix(0.0833333 0 0 0.0833333 -208.875 -21)" d="M 6271.71,6430.81 L 6283.15,6432.07 L 6286.97,6443.83 L 5942.84,6917.48 L 5930.48,6917.48 L 5923.89,6909.54 L 6271.71,6430.81 Z " />
<path stroke="transparent" fill="#000000" transform="matrix(0.0833333 0 0 0.0833333 -208.875 -21)" d="M 6863.78,6610.22 L 6843.78,6624.75 L 6286.97,6443.83 L 6283.15,6432.07 L 6291.67,6424.33 L 6863.78,6610.22 Z " />
<path stroke="transparent" fill="#000000" transform="matrix(0.0833333 0 0 0.0833333 -208.875 -21)" d="M 6863.78,7211.89 L 6853.78,7217.48 L 6843.78,7210.22 L 6843.78,6624.75 L 6863.78,6610.22 L 6863.78,7211.89 Z " />
<path stroke="transparent" fill="#000000" transform="matrix(0.0833333 0 0 0.0833333 -208.875 -21)" d="M 6388.1,7379.31 L 6381.92,7360.29 L 6843.78,7210.22 L 6853.78,7217.48 L 6851.56,7228.72 L 6388.1,7379.31 Z " />
<path stroke="transparent" fill="#000000" transform="matrix(0.0833333 0 0 0.0833333 -208.875 -21)" d="M 6228.5,7310.66 L 6212.32,7322.41 L 5928.22,6931.38 L 5930.48,6917.48 L 5942.84,6917.48 L 6228.5,7310.66 Z " />
<path stroke="transparent" fill="#000000" transform="matrix(0.0833333 0 0 0.0833333 -208.875 -21)" d="M 7355.56,7510.15 L 7322.37,7634.59 L 6851.56,7228.72 L 6853.78,7217.48 L 6863.78,7211.89 L 7355.56,7510.15 Z " />
<path stroke="transparent" fill="#000000" transform="matrix(0.0833333 0 0 0.0833333 -208.875 -21)" d="M 7297.38,8063.68 L 7277.49,8061.59 L 7322.37,7634.59 L 7355.56,7510.15 L 7297.38,8063.68 Z " />
<path stroke="transparent" fill="#000000" transform="matrix(0.0833333 0 0 0.0833333 -208.875 -21)" d="M 7209.67,6284.75 L 7280.21,6381.83 L 7262.66,6391.71 L 7194.86,6298.39 L 7209.67,6284.75 Z " />
<path stroke="transparent" fill="#000000" transform="matrix(0.0833333 0 0 0.0833333 -208.875 -21)" d="M 7166.36,6324.64 L 7228.88,6410.7 L 7211.34,6420.58 L 7151.54,6338.28 L 7166.36,6324.64 Z " />
<path stroke="transparent" fill="#000000" transform="matrix(0.0833333 0 0 0.0833333 -208.875 -21)" d="M 7123.04,6364.53 L 7177.56,6439.58 L 7160.01,6449.45 L 7108.23,6378.17 L 7123.04,6364.53 Z " />
<path stroke="transparent" fill="#000000" transform="matrix(0.0833333 0 0 0.0833333 -208.875 -21)" d="M 7079.72,6404.42 L 7126.24,6468.45 L 7108.69,6478.32 L 7064.91,6418.06 L 7079.72,6404.42 Z " />
<path stroke="transparent" fill="#000000" transform="matrix(0.0833333 0 0 0.0833333 -208.875 -21)" d="M 7036.4,6444.31 L 7074.91,6497.32 L 7057.36,6507.19 L 7021.59,6457.95 L 7036.4,6444.31 Z " />
<path stroke="transparent" fill="#000000" transform="matrix(0.0833333 0 0 0.0833333 -208.875 -21)" d="M 6993.09,6484.2 L 7023.59,6526.19 L 7006.04,6536.06 L 6978.27,6497.84 L 6993.09,6484.2 Z " />
<path stroke="transparent" fill="#000000" transform="matrix(0.0833333 0 0 0.0833333 -208.875 -21)" d="M 6949.77,6524.09 L 6972.27,6555.06 L 6954.72,6564.93 L 6934.96,6537.73 L 6949.77,6524.09 Z " />
<path stroke="transparent" fill="#000000" transform="matrix(0.0833333 0 0 0.0833333 -208.875 -21)" d="M 6906.45,6563.98 L 6920.94,6583.93 L 6903.39,6593.8 L 6891.64,6577.62 L 6906.45,6563.98 Z " />
<path stroke="transparent" fill="#000000" transform="matrix(0.0833333 0 0 0.0833333 -208.875 -21)" d="M 6078.37,5995.98 L 6192.5,5958.9 L 6291.67,6424.33 L 6283.15,6432.07 L 6271.71,6430.81 L 6078.37,5995.98 Z " />
<path stroke="transparent" fill="#000000" transform="matrix(0.0833333 0 0 0.0833333 -208.875 -21)" d="M 5427.71,6696.49 L 5487.71,6592.57 L 5504.01,6604.33 L 5446.04,6704.73 L 5427.71,6696.49 Z " />
<path stroke="transparent" fill="#000000" transform="matrix(0.0833333 0 0 0.0833333 -208.875 -21)" d="M 5481.78,6720.79 L 5535.79,6627.25 L 5552.09,6639.01 L 5500.12,6729.03 L 5481.78,6720.79 Z " />
<path stroke="transparent" fill="#000000" transform="matrix(0.0833333 0 0 0.0833333 -208.875 -21)" d="M 5535.86,6745.08 L 5583.86,6661.93 L 5600.17,6673.69 L 5554.19,6753.32 L 5535.86,6745.08 Z " />
<path stroke="transparent" fill="#000000" transform="matrix(0.0833333 0 0 0.0833333 -208.875 -21)" d="M 5589.93,6769.38 L 5631.94,6696.61 L 5648.25,6708.37 L 5608.27,6777.62 L 5589.93,6769.38 Z " />
<path stroke="transparent" fill="#000000" transform="matrix(0.0833333 0 0 0.0833333 -208.875 -21)" d="M 5644,6793.68 L 5680.02,6731.29 L 5696.32,6743.05 L 5662.34,6801.91 L 5644,6793.68 Z " />
<path stroke="transparent" fill="#000000" transform="matrix(0.0833333 0 0 0.0833333 -208.875 -21)" d="M 5698.08,6817.97 L 5728.1,6765.97 L 5744.4,6777.73 L 5716.41,6826.21 L 5698.08,6817.97 Z " />
<path stroke="transparent" fill="#000000" transform="matrix(0.0833333 0 0 0.0833333 -208.875 -21)" d="M 5752.15,6842.27 L 5776.18,6800.66 L 5792.48,6812.42 L 5770.49,6850.51 L 5752.15,6842.27 Z " />
<path stroke="transparent" fill="#000000" transform="matrix(0.0833333 0 0 0.0833333 -208.875 -21)" d="M 5806.23,6866.56 L 5824.25,6835.34 L 5840.56,6847.1 L 5824.56,6874.8 L 5806.23,6866.56 Z " />
<path stroke="transparent" fill="#000000" transform="matrix(0.0833333 0 0 0.0833333 -208.875 -21)" d="M 5860.3,6890.86 L 5872.33,6870.02 L 5888.64,6881.78 L 5878.64,6899.1 L 5860.3,6890.86 Z " />
<path stroke="transparent" fill="#000000" transform="matrix(0.0833333 0 0 0.0833333 -208.875 -21)" d="M 5400.86,6137.32 L 5420.86,6137.32 L 5420.86,6617.48 L 5400.86,6617.48 L 5400.86,6137.32 Z " />
<path stroke="transparent" fill="#000000" transform="matrix(0.0833333 0 0 0.0833333 -208.875 -21)" d="M 5348.25,5912.05 L 5288.25,6015.97 L 4737.77,5641.19 L 4735.36,5627.48 L 4742.01,5619.62 L 5348.25,5912.05 Z " />
<path stroke="transparent" fill="#000000" transform="matrix(0.0833333 0 0 0.0833333 -208.875 -21)" d="M 4394.13,6114.17 L 4382.69,6112.89 L 4378.87,6101.14 L 4723,5627.48 L 4735.36,5627.48 L 4737.77,5641.19 L 4394.13,6114.17 Z " />
<path stroke="transparent" fill="#000000" transform="matrix(0.0833333 0 0 0.0833333 -208.875 -21)" d="M 3802.06,5934.75 L 3822.06,5920.22 L 4378.87,6101.14 L 4382.69,6112.89 L 4374.19,6120.65 L 3802.06,5934.75 Z " />
<path stroke="transparent" fill="#000000" transform="matrix(0.0833333 0 0 0.0833333 -208.875 -21)" d="M 3802.06,5333.07 L 3812.06,5327.48 L 3822.06,5334.75 L 3822.06,5920.22 L 3802.06,5934.75 L 3802.06,5333.07 Z " />
<path stroke="transparent" fill="#000000" transform="matrix(0.0833333 0 0 0.0833333 -208.875 -21)" d="M 4273.12,5167.16 L 4279.3,5186.18 L 3822.06,5334.75 L 3812.06,5327.48 L 3814.29,5316.25 L 4273.12,5167.16 Z " />
<path stroke="transparent" fill="#000000" transform="matrix(0.0833333 0 0 0.0833333 -208.875 -21)" d="M 4445.36,5245.34 L 4461.54,5233.58 L 4742.01,5619.62 L 4735.36,5627.48 L 4723,5627.48 L 4445.36,5245.34 Z " />
<path stroke="transparent" fill="#000000" transform="matrix(0.0833333 0 0 0.0833333 -208.875 -21)" d="M 3270.57,5010.73 L 3378.66,4940.71 L 3814.29,5316.25 L 3812.06,5327.48 L 3802.06,5333.07 L 3270.57,5010.73 Z " />
<path stroke="transparent" fill="#000000" transform="matrix(0.0833333 0 0 0.0833333 -208.875 -21)" d="M 2880.24,5184.52 L 2872.1,5166.24 L 3378.66,4940.71 L 3270.57,5010.73 L 2880.24,5184.52 Z " />
<path stroke="transparent" fill="#000000" transform="matrix(0.0833333 0 0 0.0833333 -208.875 -21)" d="M 3448.44,6265.84 L 3377.9,6168.75 L 3395.42,6158.84 L 3463.28,6252.24 L 3448.44,6265.84 Z " />
<path stroke="transparent" fill="#000000" transform="matrix(0.0833333 0 0 0.0833333 -208.875 -21)" d="M 3492.86,6225.13 L 3430.34,6139.08 L 3447.86,6129.17 L 3507.7,6211.53 L 3492.86,6225.13 Z " />
<path stroke="transparent" fill="#000000" transform="matrix(0.0833333 0 0 0.0833333 -208.875 -21)" d="M 3537.28,6184.43 L 3482.78,6109.41 L 3500.3,6099.5 L 3552.13,6170.83 L 3537.28,6184.43 Z " />
<path stroke="transparent" fill="#000000" transform="matrix(0.0833333 0 0 0.0833333 -208.875 -21)" d="M 3581.71,6143.73 L 3535.22,6079.74 L 3552.74,6069.83 L 3596.55,6130.13 L 3581.71,6143.73 Z " />
<path stroke="transparent" fill="#000000" transform="matrix(0.0833333 0 0 0.0833333 -208.875 -21)" d="M 3626.13,6103.02 L 3587.66,6050.07 L 3605.18,6040.15 L 3640.97,6089.43 L 3626.13,6103.02 Z " />
<path stroke="transparent" fill="#000000" transform="matrix(0.0833333 0 0 0.0833333 -208.875 -21)" d="M 3670.56,6062.32 L 3640.09,6020.39 L 3657.61,6010.48 L 3685.4,6048.72 L 3670.56,6062.32 Z " />
<path stroke="transparent" fill="#000000" transform="matrix(0.0833333 0 0 0.0833333 -208.875 -21)" d="M 3714.98,6021.62 L 3692.53,5990.72 L 3710.05,5980.81 L 3729.82,6008.02 L 3714.98,6021.62 Z " />
<path stroke="transparent" fill="#000000" transform="matrix(0.0833333 0 0 0.0833333 -208.875 -21)" d="M 3759.4,5980.92 L 3744.97,5961.05 L 3762.49,5951.14 L 3774.25,5967.32 L 3759.4,5980.92 Z " />
<path stroke="transparent" fill="#000000" transform="matrix(0.0833333 0 0 0.0833333 -208.875 -21)" d="M 4592.43,6564.23 L 4478.3,6601.31 L 4374.19,6120.65 L 4382.69,6112.89 L 4394.13,6114.17 L 4592.43,6564.23 Z " />
<path stroke="transparent" fill="#000000" transform="matrix(0.0833333 0 0 0.0833333 -208.875 -21)" d="M 5334.1,5212.52 L 5394.1,5316.45 L 5376.03,5325.16 L 5317.52,5223.81 L 5334.1,5212.52 Z " />
<path stroke="transparent" fill="#000000" transform="matrix(0.0833333 0 0 0.0833333 -208.875 -21)" d="M 5289.07,5243.19 L 5345.02,5340.11 L 5326.96,5348.82 L 5272.49,5254.48 L 5289.07,5243.19 Z " />
<path stroke="transparent" fill="#000000" transform="matrix(0.0833333 0 0 0.0833333 -208.875 -21)" d="M 5244.03,5273.86 L 5295.95,5363.78 L 5277.88,5372.49 L 5227.46,5285.15 L 5244.03,5273.86 Z " />
<path stroke="transparent" fill="#000000" transform="matrix(0.0833333 0 0 0.0833333 -208.875 -21)" d="M 5199,5304.53 L 5246.87,5387.44 L 5228.81,5396.15 L 5182.42,5315.81 L 5199,5304.53 Z " />
<path stroke="transparent" fill="#000000" transform="matrix(0.0833333 0 0 0.0833333 -208.875 -21)" d="M 5153.97,5335.19 L 5197.8,5411.11 L 5179.73,5419.82 L 5137.39,5346.48 L 5153.97,5335.19 Z " />
<path stroke="transparent" fill="#000000" transform="matrix(0.0833333 0 0 0.0833333 -208.875 -21)" d="M 5108.94,5365.86 L 5148.72,5434.77 L 5130.66,5443.48 L 5092.36,5377.15 L 5108.94,5365.86 Z " />
<path stroke="transparent" fill="#000000" transform="matrix(0.0833333 0 0 0.0833333 -208.875 -21)" d="M 5063.9,5396.53 L 5099.65,5458.44 L 5081.58,5467.15 L 5047.33,5407.82 L 5063.9,5396.53 Z " />
<path stroke="transparent" fill="#000000" transform="matrix(0.0833333 0 0 0.0833333 -208.875 -21)" d="M 5018.87,5427.2 L 5050.57,5482.1 L 5032.51,5490.82 L 5002.29,5438.49 L 5018.87,5427.2 Z " />
<path stroke="transparent" fill="#000000" transform="matrix(0.0833333 0 0 0.0833333 -208.875 -21)" d="M 4973.84,5457.86 L 5001.5,5505.77 L 4983.43,5514.48 L 4957.26,5469.15 L 4973.84,5457.86 Z " />
<path stroke="transparent" fill="#000000" transform="matrix(0.0833333 0 0 0.0833333 -208.875 -21)" d="M 4928.8,5488.53 L 4952.42,5529.44 L 4934.36,5538.15 L 4912.23,5499.82 L 4928.8,5488.53 Z " />
<path stroke="transparent" fill="#000000" transform="matrix(0.0833333 0 0 0.0833333 -208.875 -21)" d="M 4883.77,5519.2 L 4903.34,5553.1 L 4885.28,5561.81 L 4867.19,5530.49 L 4883.77,5519.2 Z " />
<path stroke="transparent" fill="#000000" transform="matrix(0.0833333 0 0 0.0833333 -208.875 -21)" d="M 4838.74,5549.87 L 4854.27,5576.77 L 4836.2,5585.48 L 4822.16,5561.16 L 4838.74,5549.87 Z " />
<path stroke="transparent" fill="#000000" transform="matrix(0.0833333 0 0 0.0833333 -208.875 -21)" d="M 4793.71,5580.54 L 4805.19,5600.43 L 4787.13,5609.14 L 4777.13,5591.82 L 4793.71,5580.54 Z " />
<path stroke="transparent" fill="#000000" transform="matrix(0.0833333 0 0 0.0833333 -208.875 -21)" d="M 5400.86,4757.32 L 5420.86,4757.32 L 5420.86,5237.48 L 5400.86,5237.48 L 5400.86,4757.32 Z " />
<path stroke="transparent" fill="#000000" transform="matrix(0.0833333 0 0 0.0833333 -208.875 -21)" d="M 5533.48,4635.97 L 5473.48,4532.05 L 5491.94,4524.02 L 5549.66,4624 L 5533.48,4635.97 Z " />
<path stroke="transparent" fill="#000000" transform="matrix(0.0833333 0 0 0.0833333 -208.875 -21)" d="M 5581.92,4600.14 L 5528.74,4508.02 L 5547.19,4499.99 L 5598.1,4588.16 L 5581.92,4600.14 Z " />
<path stroke="transparent" fill="#000000" transform="matrix(0.0833333 0 0 0.0833333 -208.875 -21)" d="M 5630.35,4564.3 L 5583.99,4483.99 L 5602.45,4475.97 L 5646.53,4552.33 L 5630.35,4564.3 Z " />
<path stroke="transparent" fill="#000000" transform="matrix(0.0833333 0 0 0.0833333 -208.875 -21)" d="M 5678.79,4528.46 L 5639.24,4459.97 L 5657.7,4451.94 L 5694.97,4516.49 L 5678.79,4528.46 Z " />
<path stroke="transparent" fill="#000000" transform="matrix(0.0833333 0 0 0.0833333 -208.875 -21)" d="M 5727.22,4492.63 L 5694.49,4435.94 L 5712.95,4427.91 L 5743.4,4480.66 L 5727.22,4492.63 Z " />
<path stroke="transparent" fill="#000000" transform="matrix(0.0833333 0 0 0.0833333 -208.875 -21)" d="M 5775.66,4456.79 L 5749.75,4411.91 L 5768.2,4403.88 L 5791.84,4444.82 L 5775.66,4456.79 Z " />
<path stroke="transparent" fill="#000000" transform="matrix(0.0833333 0 0 0.0833333 -208.875 -21)" d="M 5824.09,4420.96 L 5805,4387.88 L 5823.46,4379.86 L 5840.27,4408.98 L 5824.09,4420.96 Z " />
<path stroke="transparent" fill="#000000" transform="matrix(0.0833333 0 0 0.0833333 -208.875 -21)" d="M 5872.53,4385.12 L 5860.25,4363.85 L 5878.71,4355.83 L 5888.71,4373.15 L 5872.53,4385.12 Z " />
<path stroke="transparent" fill="#000000" transform="matrix(0.0833333 0 0 0.0833333 -208.875 -21)" d="M 6286.97,4811.14 L 6279.33,4834.65 L 5923.85,4345.38 L 5930.48,4337.48 L 5942.84,4337.48 L 6286.97,4811.14 Z " />
<path stroke="transparent" fill="#000000" transform="matrix(0.0833333 0 0 0.0833333 -208.875 -21)" d="M 6843.78,4630.22 L 6853.78,4637.48 L 6851.46,4648.75 L 6279.33,4834.65 L 6286.97,4811.14 L 6843.78,4630.22 Z " />
<path stroke="transparent" fill="#000000" transform="matrix(0.0833333 0 0 0.0833333 -208.875 -21)" d="M 6843.78,4044.75 L 6863.78,4030.22 L 6863.78,4631.79 L 6853.78,4637.48 L 6843.78,4630.22 L 6843.78,4044.75 Z " />
<path stroke="transparent" fill="#000000" transform="matrix(0.0833333 0 0 0.0833333 -208.875 -21)" d="M 6386.86,3896.29 L 6393.04,3877.27 L 6863.78,4030.22 L 6843.78,4044.75 L 6386.86,3896.29 Z " />
<path stroke="transparent" fill="#000000" transform="matrix(0.0833333 0 0 0.0833333 -208.875 -21)" d="M 6204.52,3943.28 L 6220.7,3955.04 L 5942.84,4337.48 L 5930.48,4337.48 L 5928.12,4323.72 L 6204.52,3943.28 Z " />
<path stroke="transparent" fill="#000000" transform="matrix(0.0833333 0 0 0.0833333 -208.875 -21)" d="M 7260.24,3668.01 L 7330.78,3765.09 L 7313.4,3775.21 L 7245.26,3681.41 L 7260.24,3668.01 Z " />
<path stroke="transparent" fill="#000000" transform="matrix(0.0833333 0 0 0.0833333 -208.875 -21)" d="M 7216.03,3707.54 L 7279.52,3794.92 L 7262.14,3805.03 L 7201.05,3720.94 L 7216.03,3707.54 Z " />
<path stroke="transparent" fill="#000000" transform="matrix(0.0833333 0 0 0.0833333 -208.875 -21)" d="M 7171.83,3747.07 L 7228.26,3824.75 L 7210.89,3834.86 L 7156.84,3760.47 L 7171.83,3747.07 Z " />
<path stroke="transparent" fill="#000000" transform="matrix(0.0833333 0 0 0.0833333 -208.875 -21)" d="M 7127.62,3786.6 L 7177.01,3854.58 L 7159.63,3864.69 L 7112.63,3800 L 7127.62,3786.6 Z " />
<path stroke="transparent" fill="#000000" transform="matrix(0.0833333 0 0 0.0833333 -208.875 -21)" d="M 7083.41,3826.13 L 7125.75,3884.41 L 7108.37,3894.52 L 7068.42,3839.53 L 7083.41,3826.13 Z " />
<path stroke="transparent" fill="#000000" transform="matrix(0.0833333 0 0 0.0833333 -208.875 -21)" d="M 7039.2,3865.66 L 7074.49,3914.24 L 7057.12,3924.35 L 7024.22,3879.06 L 7039.2,3865.66 Z " />
<path stroke="transparent" fill="#000000" transform="matrix(0.0833333 0 0 0.0833333 -208.875 -21)" d="M 6994.99,3905.19 L 7023.24,3944.07 L 7005.86,3954.18 L 6980.01,3918.59 L 6994.99,3905.19 Z " />
<path stroke="transparent" fill="#000000" transform="matrix(0.0833333 0 0 0.0833333 -208.875 -21)" d="M 6950.79,3944.72 L 6971.98,3973.89 L 6954.61,3984.01 L 6935.8,3958.12 L 6950.79,3944.72 Z " />
<path stroke="transparent" fill="#000000" transform="matrix(0.0833333 0 0 0.0833333 -208.875 -21)" d="M 6906.58,3984.25 L 6920.72,4003.72 L 6903.35,4013.83 L 6891.59,3997.65 L 6906.58,3984.25 Z " />
<path stroke="transparent" fill="#000000" transform="matrix(0.0833333 0 0 0.0833333 -208.875 -21)" d="M 7279.01,3207.89 L 7298.9,3205.8 L 7349.14,3683.77 L 7329.25,3685.86 L 7279.01,3207.89 Z " />
<path stroke="transparent" fill="#000000" transform="matrix(0.0833333 0 0 0.0833333 -208.875 -21)" d="M 7287.95,4878.76 L 7217.42,4975.84 L 6851.46,4648.75 L 6853.78,4637.48 L 6863.78,4631.79 L 7287.95,4878.76 Z " />
<path stroke="transparent" fill="#000000" transform="matrix(0.0833333 0 0 0.0833333 -208.875 -21)" d="M 6187.5,5311.44 L 6073.37,5274.35 L 6081.72,5256.04 L 6191.52,5291.71 L 6187.5,5311.44 Z " />
<path stroke="transparent" fill="#000000" transform="matrix(0.0833333 0 0 0.0833333 -208.875 -21)" d="M 6199.57,5252.24 L 6098.41,5219.38 L 6106.75,5201.06 L 6203.59,5232.52 L 6199.57,5252.24 Z " />
<path stroke="transparent" fill="#000000" transform="matrix(0.0833333 0 0 0.0833333 -208.875 -21)" d="M 6211.63,5193.05 L 6123.44,5164.4 L 6131.78,5146.08 L 6215.65,5173.33 L 6211.63,5193.05 Z " />
<path stroke="transparent" fill="#000000" transform="matrix(0.0833333 0 0 0.0833333 -208.875 -21)" d="M 6223.69,5133.86 L 6148.47,5109.42 L 6156.82,5091.1 L 6227.71,5114.13 L 6223.69,5133.86 Z " />
<path stroke="transparent" fill="#000000" transform="matrix(0.0833333 0 0 0.0833333 -208.875 -21)" d="M 6235.76,5074.66 L 6173.51,5054.44 L 6181.85,5036.12 L 6239.78,5054.94 L 6235.76,5074.66 Z " />
<path stroke="transparent" fill="#000000" transform="matrix(0.0833333 0 0 0.0833333 -208.875 -21)" d="M 6247.82,5015.47 L 6198.54,4999.46 L 6206.88,4981.14 L 6251.84,4995.75 L 6247.82,5015.47 Z " />
<path stroke="transparent" fill="#000000" transform="matrix(0.0833333 0 0 0.0833333 -208.875 -21)" d="M 6259.88,4956.28 L 6223.57,4944.48 L 6231.91,4926.16 L 6263.9,4936.55 L 6259.88,4956.28 Z " />
<path stroke="transparent" fill="#000000" transform="matrix(0.0833333 0 0 0.0833333 -208.875 -21)" d="M 6271.95,4897.08 L 6248.61,4889.5 L 6256.95,4871.18 L 6275.97,4877.36 L 6271.95,4897.08 Z " />
<path stroke="transparent" fill="#000000" transform="matrix(0.0833333 0 0 0.0833333 -208.875 -21)" d="M 5400.86,4098.87 L 5420.86,3971.64 L 5928.12,4323.72 L 5930.48,4337.48 L 5923.85,4345.38 L 5400.86,4098.87 Z " />
<path stroke="transparent" fill="#000000" transform="matrix(0.0833333 0 0 0.0833333 -208.875 -21)" d="M 5400.86,3557.32 L 5420.86,3557.32 L 5420.86,3971.64 L 5400.86,4098.87 L 5400.86,3557.32 Z " />
<path stroke="transparent" fill="#000000" transform="matrix(0.0833333 0 0 0.0833333 -208.875 -21)" d="M 5348.25,3332.05 L 5288.25,3435.97 L 4893.51,3151.38 L 4891.25,3137.48 L 4897.84,3129.54 L 5348.25,3332.05 Z " />
<path stroke="transparent" fill="#000000" transform="matrix(0.0833333 0 0 0.0833333 -208.875 -21)" d="M 4550.01,3624.17 L 4538.58,3622.89 L 4534.76,3611.14 L 4878.89,3137.48 L 4891.25,3137.48 L 4893.51,3151.38 L 4550.01,3624.17 Z " />
<path stroke="transparent" fill="#000000" transform="matrix(0.0833333 0 0 0.0833333 -208.875 -21)" d="M 3957.94,3444.75 L 3977.94,3430.22 L 4534.76,3611.14 L 4538.58,3622.89 L 4530.08,3630.65 L 3957.94,3444.75 Z " />
<path stroke="transparent" fill="#000000" transform="matrix(0.0833333 0 0 0.0833333 -208.875 -21)" d="M 3957.94,2843.07 L 3967.94,2837.48 L 3977.94,2844.75 L 3977.94,3430.22 L 3957.94,3444.75 L 3957.94,2843.07 Z " />
<path stroke="transparent" fill="#000000" transform="matrix(0.0833333 0 0 0.0833333 -208.875 -21)" d="M 4429,2677.16 L 4435.18,2696.18 L 3977.94,2844.75 L 3967.94,2837.48 L 3970.17,2826.25 L 4429,2677.16 Z " />
<path stroke="transparent" fill="#000000" transform="matrix(0.0833333 0 0 0.0833333 -208.875 -21)" d="M 4601.24,2755.34 L 4617.42,2743.58 L 4897.84,3129.54 L 4891.25,3137.48 L 4878.89,3137.48 L 4601.24,2755.34 Z " />
<path stroke="transparent" fill="#000000" transform="matrix(0.0833333 0 0 0.0833333 -208.875 -21)" d="M 3426.45,2520.73 L 3534.55,2450.71 L 3970.17,2826.25 L 3967.94,2837.48 L 3957.94,2843.07 L 3426.45,2520.73 Z " />
<path stroke="transparent" fill="#000000" transform="matrix(0.0833333 0 0 0.0833333 -208.875 -21)" d="M 3036.12,2694.52 L 3027.99,2676.25 L 3534.55,2450.71 L 3426.45,2520.73 L 3036.12,2694.52 Z " />
<path stroke="transparent" fill="#000000" transform="matrix(0.0833333 0 0 0.0833333 -208.875 -21)" d="M 3604.32,3775.84 L 3533.79,3678.75 L 3551.31,3668.84 L 3619.16,3762.24 L 3604.32,3775.84 Z " />
<path stroke="transparent" fill="#000000" transform="matrix(0.0833333 0 0 0.0833333 -208.875 -21)" d="M 3648.75,3735.13 L 3586.23,3649.08 L 3603.75,3639.17 L 3663.59,3721.53 L 3648.75,3735.13 Z " />
<path stroke="transparent" fill="#000000" transform="matrix(0.0833333 0 0 0.0833333 -208.875 -21)" d="M 3693.17,3694.43 L 3638.66,3619.41 L 3656.18,3609.5 L 3708.01,3680.83 L 3693.17,3694.43 Z " />
<path stroke="transparent" fill="#000000" transform="matrix(0.0833333 0 0 0.0833333 -208.875 -21)" d="M 3737.59,3653.73 L 3691.1,3589.74 L 3708.62,3579.83 L 3752.44,3640.13 L 3737.59,3653.73 Z " />
<path stroke="transparent" fill="#000000" transform="matrix(0.0833333 0 0 0.0833333 -208.875 -21)" d="M 3782.02,3613.03 L 3743.54,3560.07 L 3761.06,3550.15 L 3796.86,3599.43 L 3782.02,3613.03 Z " />
<path stroke="transparent" fill="#000000" transform="matrix(0.0833333 0 0 0.0833333 -208.875 -21)" d="M 3826.44,3572.32 L 3795.98,3530.39 L 3813.5,3520.48 L 3841.28,3558.72 L 3826.44,3572.32 Z " />
<path stroke="transparent" fill="#000000" transform="matrix(0.0833333 0 0 0.0833333 -208.875 -21)" d="M 3870.87,3531.62 L 3848.42,3500.72 L 3865.94,3490.81 L 3885.71,3518.02 L 3870.87,3531.62 Z " />
<path stroke="transparent" fill="#000000" transform="matrix(0.0833333 0 0 0.0833333 -208.875 -21)" d="M 3915.29,3490.92 L 3900.86,3471.05 L 3918.38,3461.14 L 3930.13,3477.32 L 3915.29,3490.92 Z " />
<path stroke="transparent" fill="#000000" transform="matrix(0.0833333 0 0 0.0833333 -208.875 -21)" d="M 4748.31,4074.23 L 4634.19,4111.31 L 4530.08,3630.65 L 4538.58,3622.89 L 4550.01,3624.17 L 4748.31,4074.23 Z " />
<path stroke="transparent" fill="#000000" transform="matrix(0.0833333 0 0 0.0833333 -208.875 -21)" d="M 5334.02,2812.57 L 5394.02,2916.49 L 5375.68,2924.73 L 5317.72,2824.33 L 5334.02,2812.57 Z " />
<path stroke="transparent" fill="#000000" transform="matrix(0.0833333 0 0 0.0833333 -208.875 -21)" d="M 5285.94,2847.25 L 5339.95,2940.79 L 5321.61,2949.03 L 5269.64,2859.01 L 5285.94,2847.25 Z " />
<path stroke="transparent" fill="#000000" transform="matrix(0.0833333 0 0 0.0833333 -208.875 -21)" d="M 5237.86,2881.93 L 5285.87,2965.08 L 5267.54,2973.32 L 5221.56,2893.69 L 5237.86,2881.93 Z " />
<path stroke="transparent" fill="#000000" transform="matrix(0.0833333 0 0 0.0833333 -208.875 -21)" d="M 5189.79,2916.61 L 5231.8,2989.38 L 5213.46,2997.62 L 5173.48,2928.37 L 5189.79,2916.61 Z " />
<path stroke="transparent" fill="#000000" transform="matrix(0.0833333 0 0 0.0833333 -208.875 -21)" d="M 5141.71,2951.29 L 5177.73,3013.68 L 5159.39,3021.91 L 5125.4,2963.05 L 5141.71,2951.29 Z " />
<path stroke="transparent" fill="#000000" transform="matrix(0.0833333 0 0 0.0833333 -208.875 -21)" d="M 5093.63,2985.97 L 5123.65,3037.97 L 5105.31,3046.21 L 5077.33,2997.74 L 5093.63,2985.97 Z " />
<path stroke="transparent" fill="#000000" transform="matrix(0.0833333 0 0 0.0833333 -208.875 -21)" d="M 5045.55,3020.66 L 5069.58,3062.27 L 5051.24,3070.51 L 5029.25,3032.42 L 5045.55,3020.66 Z " />
<path stroke="transparent" fill="#000000" transform="matrix(0.0833333 0 0 0.0833333 -208.875 -21)" d="M 4997.47,3055.34 L 5015.5,3086.56 L 4997.17,3094.8 L 4981.17,3067.1 L 4997.47,3055.34 Z " />
<path stroke="transparent" fill="#000000" transform="matrix(0.0833333 0 0 0.0833333 -208.875 -21)" d="M 4949.4,3090.02 L 4961.43,3110.86 L 4943.09,3119.1 L 4933.09,3101.78 L 4949.4,3090.02 Z " />
<path stroke="transparent" fill="#000000" transform="matrix(0.0833333 0 0 0.0833333 -208.875 -21)" d="M 5400.86,2357.32 L 5420.86,2357.32 L 5420.86,2837.48 L 5400.86,2837.48 L 5400.86,2357.32 Z " />
<path stroke="transparent" fill="#000000" transform="matrix(0.0833333 0 0 0.0833333 -208.875 -21)" d="M 5533.48,2235.97 L 5473.48,2132.05 L 5917.31,1932.5 L 5930.48,1937.48 L 5934.07,1947.16 L 5533.48,2235.97 Z " />
<path stroke="transparent" fill="#000000" transform="matrix(0.0833333 0 0 0.0833333 -208.875 -21)" d="M 5679.62,1398.63 L 5686.44,1389.36 L 5698.53,1391.93 L 5936.66,1926.78 L 5930.48,1937.48 L 5917.31,1932.5 L 5679.62,1398.63 Z " />
<path stroke="transparent" fill="#000000" transform="matrix(0.0833333 0 0 0.0833333 -208.875 -21)" d="M 6131.03,975.586 L 6133.62,1000.17 L 5698.53,1391.93 L 5686.44,1389.36 L 5683.98,1378.12 L 6131.03,975.586 Z " />
<path stroke="transparent" fill="#000000" transform="matrix(0.0833333 0 0 0.0833333 -208.875 -21)" d="M 6652.1,1276.42 L 6651.94,1287.88 L 6640.65,1292.91 L 6133.62,1000.17 L 6131.03,975.586 L 6652.1,1276.42 Z " />
<path stroke="transparent" fill="#000000" transform="matrix(0.0833333 0 0 0.0833333 -208.875 -21)" d="M 6558.96,1773.42 L 6539.39,1769.26 L 6640.65,1292.91 L 6651.94,1287.88 L 6660.56,1295.43 L 6558.96,1773.42 Z " />
<path stroke="transparent" fill="#000000" transform="matrix(0.0833333 0 0 0.0833333 -208.875 -21)" d="M 6419.11,1876.07 L 6421.2,1895.96 L 5934.07,1947.16 L 5930.48,1937.48 L 5936.66,1926.78 L 6419.11,1876.07 Z " />
<path stroke="transparent" fill="#000000" transform="matrix(0.0833333 0 0 0.0833333 -208.875 -21)" d="M 7156.28,999.664 L 7247.46,1090.63 L 6660.56,1295.43 L 6651.94,1287.88 L 6652.1,1276.42 L 7156.28,999.664 Z " />
<path stroke="transparent" fill="#000000" transform="matrix(0.0833333 0 0 0.0833333 -208.875 -21)" d="M 7604.85,1325.57 L 7593.09,1341.75 L 7247.46,1090.63 L 7156.28,999.664 L 7604.85,1325.57 Z " />
<path stroke="transparent" fill="#000000" transform="matrix(0.0833333 0 0 0.0833333 -208.875 -21)" d="M 6022.42,516.18 L 6141.76,503.637 L 6141.52,523.772 L 6026.84,535.826 L 6022.42,516.18 Z " />
<path stroke="transparent" fill="#000000" transform="matrix(0.0833333 0 0 0.0833333 -208.875 -21)" d="M 6035.26,573.227 L 6141.06,562.107 L 6140.82,582.242 L 6039.68,592.872 L 6035.26,573.227 Z " />
<path stroke="transparent" fill="#000000" transform="matrix(0.0833333 0 0 0.0833333 -208.875 -21)" d="M 6048.1,630.274 L 6140.36,620.577 L 6140.12,640.712 L 6052.52,649.919 L 6048.1,630.274 Z " />
<path stroke="transparent" fill="#000000" transform="matrix(0.0833333 0 0 0.0833333 -208.875 -21)" d="M 6060.94,687.32 L 6139.66,679.047 L 6139.42,699.182 L 6065.36,706.966 L 6060.94,687.32 Z " />
<path stroke="transparent" fill="#000000" transform="matrix(0.0833333 0 0 0.0833333 -208.875 -21)" d="M 6073.78,744.367 L 6138.96,737.517 L 6138.72,757.652 L 6078.2,764.012 L 6073.78,744.367 Z " />
<path stroke="transparent" fill="#000000" transform="matrix(0.0833333 0 0 0.0833333 -208.875 -21)" d="M 6086.62,801.414 L 6138.26,795.987 L 6138.02,816.122 L 6091.05,821.059 L 6086.62,801.414 Z " />
<path stroke="transparent" fill="#000000" transform="matrix(0.0833333 0 0 0.0833333 -208.875 -21)" d="M 6099.46,858.46 L 6137.56,854.457 L 6137.32,874.592 L 6103.89,878.106 L 6099.46,858.46 Z " />
<path stroke="transparent" fill="#000000" transform="matrix(0.0833333 0 0 0.0833333 -208.875 -21)" d="M 6112.31,915.507 L 6136.86,912.926 L 6136.62,933.062 L 6116.73,935.153 L 6112.31,915.507 Z " />
<path stroke="transparent" fill="#000000" transform="matrix(0.0833333 0 0 0.0833333 -208.875 -21)" d="M 5195.55,1346.36 L 5220.5,1228.98 L 5683.98,1378.12 L 5686.44,1389.36 L 5679.62,1398.63 L 5195.55,1346.36 Z " />
<path stroke="transparent" fill="#000000" transform="matrix(0.0833333 0 0 0.0833333 -208.875 -21)" d="M 5990.48,2483.48 L 5870.48,2483.48 L 5872.51,2463.48 L 5988.45,2463.48 L 5990.48,2483.48 Z " />
<path stroke="transparent" fill="#000000" transform="matrix(0.0833333 0 0 0.0833333 -208.875 -21)" d="M 5984.48,2424.48 L 5876.48,2424.48 L 5878.51,2404.48 L 5982.45,2404.48 L 5984.48,2424.48 Z " />
<path stroke="transparent" fill="#000000" transform="matrix(0.0833333 0 0 0.0833333 -208.875 -21)" d="M 5978.49,2365.48 L 5882.47,2365.48 L 5884.5,2345.48 L 5976.46,2345.48 L 5978.49,2365.48 Z " />
<path stroke="transparent" fill="#000000" transform="matrix(0.0833333 0 0 0.0833333 -208.875 -21)" d="M 5972.49,2306.48 L 5888.47,2306.48 L 5890.5,2286.48 L 5970.46,2286.48 L 5972.49,2306.48 Z " />
<path stroke="transparent" fill="#000000" transform="matrix(0.0833333 0 0 0.0833333 -208.875 -21)" d="M 5966.5,2247.48 L 5894.46,2247.48 L 5896.5,2227.48 L 5964.46,2227.48 L 5966.5,2247.48 Z " />
<path stroke="transparent" fill="#000000" transform="matrix(0.0833333 0 0 0.0833333 -208.875 -21)" d="M 5960.5,2188.48 L 5900.46,2188.48 L 5902.49,2168.48 L 5958.47,2168.48 L 5960.5,2188.48 Z " />
<path stroke="transparent" fill="#000000" transform="matrix(0.0833333 0 0 0.0833333 -208.875 -21)" d="M 5954.5,2129.48 L 5906.46,2129.48 L 5908.49,2109.48 L 5952.47,2109.48 L 5954.5,2129.48 Z " />
<path stroke="transparent" fill="#000000" transform="matrix(0.0833333 0 0 0.0833333 -208.875 -21)" d="M 5948.51,2070.48 L 5912.45,2070.48 L 5914.48,2050.48 L 5946.48,2050.48 L 5948.51,2070.48 Z " />
<path stroke="transparent" fill="#000000" transform="matrix(0.0833333 0 0 0.0833333 -208.875 -21)" d="M 5942.51,2011.48 L 5918.45,2011.48 L 5920.48,1991.48 L 5940.48,1991.48 L 5942.51,2011.48 Z " />
<path stroke="transparent" fill="#000000" transform="matrix(0.0833333 0 0 0.0833333 -208.875 -21)" d="M 6362.48,2775.35 L 6352.48,2792.67 L 5925.48,2546.14 L 5935.48,2528.82 L 6362.48,2775.35 Z " />
<path stroke="transparent" fill="#000000" transform="matrix(0.0833333 0 0 0.0833333 -208.875 -21)" d="M 4441.66,7927.2 L 4501.66,7823.27 L 4891.81,8105.61 L 4891.25,8117.48 L 4881.25,8123.91 L 4441.66,7927.2 Z " />
<path stroke="transparent" fill="#000000" transform="matrix(0.0833333 0 0 0.0833333 -208.875 -21)" d="M 4494.24,9015.98 L 4434.24,8912.05 L 4452.7,8904.03 L 4510.43,9004 L 4494.24,9015.98 Z " />
<path stroke="transparent" fill="#000000" transform="matrix(0.0833333 0 0 0.0833333 -208.875 -21)" d="M 4542.68,8980.14 L 4489.5,8888.03 L 4507.96,8880 L 4558.86,8968.17 L 4542.68,8980.14 Z " />
<path stroke="transparent" fill="#000000" transform="matrix(0.0833333 0 0 0.0833333 -208.875 -21)" d="M 4591.12,8944.3 L 4544.75,8864 L 4563.21,8855.97 L 4607.3,8932.33 L 4591.12,8944.3 Z " />
<path stroke="transparent" fill="#000000" transform="matrix(0.0833333 0 0 0.0833333 -208.875 -21)" d="M 4639.55,8908.47 L 4600,8839.97 L 4618.46,8831.94 L 4655.73,8896.49 L 4639.55,8908.47 Z " />
<path stroke="transparent" fill="#000000" transform="matrix(0.0833333 0 0 0.0833333 -208.875 -21)" d="M 4687.99,8872.63 L 4655.26,8815.94 L 4673.72,8807.91 L 4704.17,8860.66 L 4687.99,8872.63 Z " />
<path stroke="transparent" fill="#000000" transform="matrix(0.0833333 0 0 0.0833333 -208.875 -21)" d="M 4736.42,8836.79 L 4710.51,8791.91 L 4728.97,8783.88 L 4752.61,8824.82 L 4736.42,8836.79 Z " />
<path stroke="transparent" fill="#000000" transform="matrix(0.0833333 0 0 0.0833333 -208.875 -21)" d="M 4784.86,8800.96 L 4765.77,8767.88 L 4784.22,8759.86 L 4801.04,8788.98 L 4784.86,8800.96 Z " />
<path stroke="transparent" fill="#000000" transform="matrix(0.0833333 0 0 0.0833333 -208.875 -21)" d="M 4833.3,8765.12 L 4821.02,8743.85 L 4839.48,8735.83 L 4849.48,8753.15 L 4833.3,8765.12 Z " />
<path stroke="transparent" fill="#000000" transform="matrix(0.0833333 0 0 0.0833333 -208.875 -21)" d="M 5470.86,9512.32 L 5350.86,9512.32 L 5400.31,9022.94 L 5410.86,9017.48 L 5421.42,9022.94 L 5470.86,9512.32 Z " />
<path stroke="transparent" fill="#000000" transform="matrix(0.0833333 0 0 0.0833333 -208.875 -21)" d="M 6460.09,9512.32 L 6440.09,9512.32 L 6440.09,9017.48 L 6460.09,9017.48 L 6460.09,9512.32 Z " />
</svg>
