<?xml version="1.0" standalone="no" ?>
<!DOCTYPE svg PUBLIC "-//W3C//DTD SVG 1.1//EN" "http://www.w3.org/Graphics/SVG/1.1/DTD/svg11.dtd">
<svg width="273px" height="122px" viewBox="0 0 273 122" style="background-color: #ffffff00" xmlns="http://www.w3.org/2000/svg" xmlns:xlink="http://www.w3.org/1999/xlink" version="1.1" >
<text x="0" y="0" stroke="transparent" fill="#000000" transform="matrix(0.0833333 0 0 0.0833333 214.564 17.7986)" style="font:normal normal normal 200px 'Arial'" >
O</text>
<text x="0" y="0" stroke="transparent" fill="#000000" transform="matrix(0.0833333 0 0 0.0833333 41.3523 17.7986)" style="font:normal normal normal 200px 'Arial'" >
O</text>
<text x="0" y="0" stroke="transparent" fill="#000000" transform="matrix(0.0833333 0 0 0.0833333 41.3523 117.799)" style="font:normal normal normal 200px 'Arial'" >
O</text>
<text x="0" y="0" stroke="transparent" fill="#000000" transform="matrix(0.0833333 0 0 0.0833333 256.361 90.2008)" style="font:normal normal normal 200px 'Arial'" >
O</text>
<path stroke="transparent" fill="#000000" transform="matrix(0.0833333 0 0 0.0833333 -299.25 -296)" d="M 6338.81,3754 L 6348.81,3736.68 L 6768.34,3978.92 L 6758.34,3996.24 L 6338.81,3754 Z " />
<path stroke="transparent" fill="#000000" transform="matrix(0.0833333 0 0 0.0833333 -299.25 -296)" d="M 5734.14,3993.36 L 5724.14,3987.58 L 5724.14,3976.04 L 6139.17,3736.43 L 6149.17,3753.75 L 5734.14,3993.36 Z " />
<path stroke="transparent" fill="#000000" transform="matrix(0.0833333 0 0 0.0833333 -299.25 -296)" d="M 5204.5,3699.13 L 5204.5,3676.04 L 5724.14,3976.04 L 5724.14,3987.58 L 5714.14,3993.36 L 5204.5,3699.13 Z " />
<path stroke="transparent" fill="#000000" transform="matrix(0.0833333 0 0 0.0833333 -299.25 -296)" d="M 5199.5,3779.39 L 5209.5,3762.06 L 5657.13,4020.49 L 5647.13,4037.81 L 5199.5,3779.39 Z " />
<path stroke="transparent" fill="#000000" transform="matrix(0.0833333 0 0 0.0833333 -299.25 -296)" d="M 4694.94,3993.36 L 4684.94,3987.58 L 4684.94,3976.04 L 5204.5,3676.04 L 5204.5,3699.13 L 4694.94,3993.36 Z " />
<path stroke="transparent" fill="#000000" transform="matrix(0.0833333 0 0 0.0833333 -299.25 -296)" d="M 4260.27,3753.99 L 4270.27,3736.67 L 4684.94,3976.04 L 4684.94,3987.58 L 4674.94,3993.36 L 4260.27,3753.99 Z " />
<path stroke="transparent" fill="#000000" transform="matrix(0.0833333 0 0 0.0833333 -299.25 -296)" d="M 3650.66,3996.24 L 3640.66,3978.92 L 4060.63,3736.43 L 4070.63,3753.75 L 3650.66,3996.24 Z " />
<path stroke="transparent" fill="#000000" transform="matrix(0.0833333 0 0 0.0833333 -299.25 -296)" d="M 4694.94,4581.81 L 4684.94,4587.58 L 4674.94,4581.81 L 4674.94,3993.36 L 4684.94,3987.58 L 4694.94,3993.36 L 4694.94,4581.81 Z " />
<path stroke="transparent" fill="#000000" transform="matrix(0.0833333 0 0 0.0833333 -299.25 -296)" d="M 4766.94,4546.02 L 4746.94,4546.02 L 4746.94,4029.15 L 4766.94,4029.15 L 4766.94,4546.02 Z " />
<path stroke="transparent" fill="#000000" transform="matrix(0.0833333 0 0 0.0833333 -299.25 -296)" d="M 4262.85,4842.78 L 4252.85,4825.46 L 4674.94,4581.81 L 4684.94,4587.58 L 4684.94,4599.13 L 4262.85,4842.78 Z " />
<path stroke="transparent" fill="#000000" transform="matrix(0.0833333 0 0 0.0833333 -299.25 -296)" d="M 5204.5,4876.04 L 5204.5,4899.13 L 4684.94,4599.13 L 4684.94,4587.58 L 4694.94,4581.81 L 5204.5,4876.04 Z " />
<path stroke="transparent" fill="#000000" transform="matrix(0.0833333 0 0 0.0833333 -299.25 -296)" d="M 5714.14,4581.81 L 5724.14,4587.58 L 5724.14,4599.13 L 5204.5,4899.13 L 5204.5,4876.04 L 5714.14,4581.81 Z " />
<path stroke="transparent" fill="#000000" transform="matrix(0.0833333 0 0 0.0833333 -299.25 -296)" d="M 5647.13,4537.35 L 5657.13,4554.67 L 5209.5,4813.1 L 5199.5,4795.78 L 5647.13,4537.35 Z " />
<path stroke="transparent" fill="#000000" transform="matrix(0.0833333 0 0 0.0833333 -299.25 -296)" d="M 5734.14,4581.81 L 5724.14,4587.58 L 5714.14,4581.81 L 5714.14,3993.36 L 5724.14,3987.58 L 5734.14,3993.36 L 5734.14,4581.81 Z " />
<path stroke="transparent" fill="#000000" transform="matrix(0.0833333 0 0 0.0833333 -299.25 -296)" d="M 6243.77,4876.04 L 6243.77,4899.13 L 5724.14,4599.13 L 5724.14,4587.58 L 5734.14,4581.81 L 6243.77,4876.04 Z " />
<path stroke="transparent" fill="#000000" transform="matrix(0.0833333 0 0 0.0833333 -299.25 -296)" d="M 6658.73,4636.43 L 6668.73,4653.75 L 6243.77,4899.13 L 6243.77,4876.04 L 6658.73,4636.43 Z " />
<path stroke="transparent" fill="#000000" transform="matrix(0.0833333 0 0 0.0833333 -299.25 -296)" d="M 6622.73,4574.09 L 6632.73,4591.41 L 6248.77,4813.11 L 6238.77,4795.79 L 6622.73,4574.09 Z " />
<path stroke="transparent" fill="#000000" transform="matrix(0.0833333 0 0 0.0833333 -299.25 -296)" d="M 3640.62,4596.22 L 3650.62,4578.9 L 4077.61,4825.45 L 4067.61,4842.77 L 3640.62,4596.22 Z " />
</svg>
