<?xml version="1.0" standalone="no" ?>
<!DOCTYPE svg PUBLIC "-//W3C//DTD SVG 1.1//EN" "http://www.w3.org/Graphics/SVG/1.1/DTD/svg11.dtd">
<svg width="398px" height="241px" viewBox="0 0 398 241" style="background-color: #ffffff00" xmlns="http://www.w3.org/2000/svg" xmlns:xlink="http://www.w3.org/1999/xlink" version="1.1" >
<text x="0" y="0" stroke="transparent" fill="#000000" transform="matrix(0.0833333 0 0 0.0833333 343.845 92.9359)" style="font:normal normal normal 200px 'Arial'" >
O</text>
<text x="0" y="0" stroke="transparent" fill="#000000" transform="matrix(0.0833333 0 0 0.0833333 300.543 17.9381)" style="font:normal normal normal 200px 'Arial'" >
O</text>
<text x="0" y="0" stroke="transparent" fill="#000000" transform="matrix(0.0833333 0 0 0.0833333 40.7386 67.9366)" style="font:normal normal normal 200px 'Arial'" >
O</text>
<text x="0" y="0" stroke="transparent" fill="#000000" transform="matrix(0.0833333 0 0 0.0833333 28.7025 167.934)" style="font:normal normal normal 200px 'Arial'" >
HO</text>
<text x="0" y="0" stroke="transparent" fill="#000000" transform="matrix(0.0833333 0 0 0.0833333 127.342 217.932)" style="font:normal normal normal 200px 'Arial'" >
O</text>
<path stroke="transparent" fill="#000000" transform="matrix(0.0833333 0 0 0.0833333 -237.208 -239)" d="M 7148.25,3860.41 L 7138.25,3843.09 L 7565.18,3596.58 L 7575.18,3613.9 L 7148.25,3860.41 Z " />
<path stroke="transparent" fill="#000000" transform="matrix(0.0833333 0 0 0.0833333 -237.208 -239)" d="M 6531.02,3616.79 L 6531.02,3593.69 L 6963.02,3843.1 L 6953.02,3860.42 L 6531.02,3616.79 Z " />
<path stroke="transparent" fill="#000000" transform="matrix(0.0833333 0 0 0.0833333 -237.208 -239)" d="M 6485.02,3125.09 L 6505.02,3125.09 L 6505.02,3626.02 L 6485.02,3626.02 L 6485.02,3125.09 Z " />
<path stroke="transparent" fill="#000000" transform="matrix(0.0833333 0 0 0.0833333 -237.208 -239)" d="M 6557.01,3125.09 L 6577.01,3125.09 L 6577.01,3626.02 L 6557.01,3626.02 L 6557.01,3125.09 Z " />
<path stroke="transparent" fill="#000000" transform="matrix(0.0833333 0 0 0.0833333 -237.208 -239)" d="M 6011.39,3916.78 L 6011.39,3893.68 L 6531.02,3593.69 L 6531.02,3616.79 L 6011.39,3916.78 Z " />
<path stroke="transparent" fill="#000000" transform="matrix(0.0833333 0 0 0.0833333 -237.208 -239)" d="M 5491.77,3616.79 L 5491.77,3593.69 L 6011.39,3893.68 L 6011.39,3916.78 L 5491.77,3616.79 Z " />
<path stroke="transparent" fill="#000000" transform="matrix(0.0833333 0 0 0.0833333 -237.208 -239)" d="M 5486.78,3697.04 L 5496.78,3679.72 L 5980.4,3958.92 L 5970.4,3976.25 L 5486.78,3697.04 Z " />
<path stroke="transparent" fill="#000000" transform="matrix(0.0833333 0 0 0.0833333 -237.208 -239)" d="M 4982.23,3911 L 4972.23,3905.23 L 4972.23,3893.68 L 5491.77,3593.69 L 5491.77,3616.79 L 4982.23,3911 Z " />
<path stroke="transparent" fill="#000000" transform="matrix(0.0833333 0 0 0.0833333 -237.208 -239)" d="M 4452.61,3616.79 L 4452.61,3593.69 L 4972.23,3893.68 L 4972.23,3905.23 L 4962.23,3911 L 4452.61,3616.79 Z " />
<path stroke="transparent" fill="#000000" transform="matrix(0.0833333 0 0 0.0833333 -237.208 -239)" d="M 4447.61,3697.04 L 4457.6,3679.72 L 4905.23,3938.14 L 4895.23,3955.46 L 4447.61,3697.04 Z " />
<path stroke="transparent" fill="#000000" transform="matrix(0.0833333 0 0 0.0833333 -237.208 -239)" d="M 3942.98,3911 L 3932.98,3905.23 L 3932.98,3893.68 L 4452.61,3593.69 L 4452.61,3616.79 L 3942.98,3911 Z " />
<path stroke="transparent" fill="#000000" transform="matrix(0.0833333 0 0 0.0833333 -237.208 -239)" d="M 3508.4,3671.65 L 3518.4,3654.33 L 3932.98,3893.68 L 3932.98,3905.23 L 3922.98,3911 L 3508.4,3671.65 Z " />
<path stroke="transparent" fill="#000000" transform="matrix(0.0833333 0 0 0.0833333 -237.208 -239)" d="M 2898.82,3913.89 L 2888.82,3896.57 L 3308.76,3654.09 L 3318.76,3671.41 L 2898.82,3913.89 Z " />
<path stroke="transparent" fill="#000000" transform="matrix(0.0833333 0 0 0.0833333 -237.208 -239)" d="M 3942.98,4499.44 L 3932.98,4505.21 L 3922.98,4499.44 L 3922.98,3911 L 3932.98,3905.23 L 3942.98,3911 L 3942.98,4499.44 Z " />
<path stroke="transparent" fill="#000000" transform="matrix(0.0833333 0 0 0.0833333 -237.208 -239)" d="M 4014.98,4463.64 L 3994.98,4463.64 L 3994.98,3946.8 L 4014.98,3946.8 L 4014.98,4463.64 Z " />
<path stroke="transparent" fill="#000000" transform="matrix(0.0833333 0 0 0.0833333 -237.208 -239)" d="M 3510.97,4760.4 L 3500.98,4743.08 L 3922.98,4499.44 L 3932.98,4505.21 L 3932.98,4516.76 L 3510.97,4760.4 Z " />
<path stroke="transparent" fill="#000000" transform="matrix(0.0833333 0 0 0.0833333 -237.208 -239)" d="M 4452.61,4793.66 L 4452.61,4805.2 L 4442.61,4810.98 L 3932.98,4516.76 L 3932.98,4505.21 L 3942.98,4499.44 L 4452.61,4793.66 Z " />
<path stroke="transparent" fill="#000000" transform="matrix(0.0833333 0 0 0.0833333 -237.208 -239)" d="M 4462.61,5300.02 L 4442.61,5300.02 L 4442.61,4810.98 L 4452.61,4805.2 L 4462.61,4810.98 L 4462.61,5300.02 Z " />
<path stroke="transparent" fill="#000000" transform="matrix(0.0833333 0 0 0.0833333 -237.208 -239)" d="M 4962.23,4499.51 L 4982.23,4511.06 L 4462.61,4810.98 L 4452.61,4805.2 L 4452.61,4793.66 L 4962.23,4499.51 Z " />
<path stroke="transparent" fill="#000000" transform="matrix(0.0833333 0 0 0.0833333 -237.208 -239)" d="M 4895.23,4455.05 L 4905.23,4472.37 L 4457.61,4730.73 L 4447.61,4713.41 L 4895.23,4455.05 Z " />
<path stroke="transparent" fill="#000000" transform="matrix(0.0833333 0 0 0.0833333 -237.208 -239)" d="M 4982.23,4511.06 L 4962.23,4499.51 L 4962.23,3911 L 4972.23,3905.23 L 4982.23,3911 L 4982.23,4511.06 Z " />
<path stroke="transparent" fill="#000000" transform="matrix(0.0833333 0 0 0.0833333 -237.208 -239)" d="M 3937.98,5713.82 L 3927.98,5696.5 L 4348,5454.03 L 4358,5471.35 L 3937.98,5713.82 Z " />
</svg>
