<?xml version="1.0" standalone="no" ?>
<!DOCTYPE svg PUBLIC "-//W3C//DTD SVG 1.1//EN" "http://www.w3.org/Graphics/SVG/1.1/DTD/svg11.dtd">
<svg width="303px" height="284px" viewBox="0 0 303 284" style="background-color: #ffffff00" xmlns="http://www.w3.org/2000/svg" xmlns:xlink="http://www.w3.org/1999/xlink" version="1.1" >
<text x="0" y="0" stroke="transparent" fill="#000000" transform="matrix(0.0833333 0 0 0.0833333 262.028 158.39)" style="font:normal normal normal 200px 'Arial'" >
O</text>
<text x="0" y="0" stroke="transparent" fill="#000000" transform="matrix(0.0833333 0 0 0.0833333 171.174 17.9396)" style="font:normal normal normal 200px 'Arial'" >
O</text>
<text x="0" y="0" stroke="transparent" fill="#000000" transform="matrix(0.0833333 0 0 0.0833333 84.5716 67.9396)" style="font:normal normal normal 200px 'Arial'" >
O</text>
<path stroke="transparent" fill="#000000" transform="matrix(0.0833333 0 0 0.0833333 -234.208 -305)" d="M 6043.92,4510.11 L 6032.84,4511.87 L 6024.9,4503.93 L 6208.74,3938.14 L 6227.76,3944.32 L 6043.92,4510.11 Z " />
<path stroke="transparent" fill="#000000" transform="matrix(0.0833333 0 0 0.0833333 -234.208 -305)" d="M 6397.87,4997.28 L 6373.15,4997.28 L 6029.02,4523.62 L 6032.84,4511.87 L 6043.92,4510.11 L 6397.87,4997.28 Z " />
<path stroke="transparent" fill="#000000" transform="matrix(0.0833333 0 0 0.0833333 -234.208 -305)" d="M 6304.6,4991.4 L 6288.42,5003.15 L 5997.25,4602.38 L 6013.43,4590.63 L 6304.6,4991.4 Z " />
<path stroke="transparent" fill="#000000" transform="matrix(0.0833333 0 0 0.0833333 -234.208 -305)" d="M 6103.63,5402.27 L 6087.45,5390.51 L 6373.15,4997.28 L 6397.87,4997.28 L 6103.63,5402.27 Z " />
<path stroke="transparent" fill="#000000" transform="matrix(0.0833333 0 0 0.0833333 -234.208 -305)" d="M 5463.35,5308.16 L 5462.21,5297.28 L 5472.21,5290.01 L 5934.34,5440.17 L 5928.16,5459.19 L 5463.35,5308.16 Z " />
<path stroke="transparent" fill="#000000" transform="matrix(0.0833333 0 0 0.0833333 -234.208 -305)" d="M 5452.21,4703.05 L 5462.21,4697.28 L 5472.21,4704.54 L 5472.21,5290.01 L 5462.21,5297.28 L 5452.21,5291.5 L 5452.21,4703.05 Z " />
<path stroke="transparent" fill="#000000" transform="matrix(0.0833333 0 0 0.0833333 -234.208 -305)" d="M 5380.21,4738.84 L 5400.21,4738.84 L 5400.21,5255.71 L 5380.21,5255.71 L 5380.21,4738.84 Z " />
<path stroke="transparent" fill="#000000" transform="matrix(0.0833333 0 0 0.0833333 -234.208 -305)" d="M 5472.21,4704.54 L 5462.21,4697.28 L 5463.35,4686.39 L 6024.9,4503.93 L 6032.84,4511.87 L 6029.02,4523.62 L 5472.21,4704.54 Z " />
<path stroke="transparent" fill="#000000" transform="matrix(0.0833333 0 0 0.0833333 -234.208 -305)" d="M 4942.59,4408.82 L 4942.59,4385.73 L 5463.35,4686.39 L 5462.21,4697.28 L 5452.21,4703.05 L 4942.59,4408.82 Z " />
<path stroke="transparent" fill="#000000" transform="matrix(0.0833333 0 0 0.0833333 -234.208 -305)" d="M 4896.59,3917.11 L 4916.59,3917.11 L 4916.59,4418.06 L 4896.59,4418.06 L 4896.59,3917.11 Z " />
<path stroke="transparent" fill="#000000" transform="matrix(0.0833333 0 0 0.0833333 -234.208 -305)" d="M 4968.59,3917.11 L 4988.59,3917.11 L 4988.59,4418.06 L 4968.59,4418.06 L 4968.59,3917.11 Z " />
<path stroke="transparent" fill="#000000" transform="matrix(0.0833333 0 0 0.0833333 -234.208 -305)" d="M 4432.97,4703.05 L 4412.97,4691.5 L 4942.59,4385.73 L 4942.59,4408.82 L 4432.97,4703.05 Z " />
<path stroke="transparent" fill="#000000" transform="matrix(0.0833333 0 0 0.0833333 -234.208 -305)" d="M 3980.4,4494.87 L 3990.4,4477.55 L 4427.97,4730.18 L 4417.97,4747.51 L 3980.4,4494.87 Z " />
<path stroke="transparent" fill="#000000" transform="matrix(0.0833333 0 0 0.0833333 -234.208 -305)" d="M 4016.4,4432.52 L 4026.4,4415.19 L 4463.97,4667.83 L 4453.97,4685.15 L 4016.4,4432.52 Z " />
<path stroke="transparent" fill="#000000" transform="matrix(0.0833333 0 0 0.0833333 -234.208 -305)" d="M 4432.97,5291.5 L 4422.97,5297.28 L 4412.97,5291.5 L 4412.97,4691.5 L 4432.97,4703.05 L 4432.97,5291.5 Z " />
<path stroke="transparent" fill="#000000" transform="matrix(0.0833333 0 0 0.0833333 -234.208 -305)" d="M 4942.59,5585.73 L 4942.59,5597.28 L 4932.59,5603.05 L 4422.97,5308.82 L 4422.97,5297.28 L 4432.97,5291.5 L 4942.59,5585.73 Z " />
<path stroke="transparent" fill="#000000" transform="matrix(0.0833333 0 0 0.0833333 -234.208 -305)" d="M 4875.59,5630.18 L 4865.59,5647.51 L 4417.97,5389.07 L 4427.97,5371.75 L 4875.59,5630.18 Z " />
<path stroke="transparent" fill="#000000" transform="matrix(0.0833333 0 0 0.0833333 -234.208 -305)" d="M 4952.59,5603.05 L 4942.59,5597.28 L 4942.59,5585.73 L 5452.21,5291.5 L 5462.21,5297.28 L 5463.35,5308.16 L 4952.59,5603.05 Z " />
<path stroke="transparent" fill="#000000" transform="matrix(0.0833333 0 0 0.0833333 -234.208 -305)" d="M 4952.59,6203.05 L 4932.59,6191.5 L 4932.59,5603.05 L 4942.59,5597.28 L 4952.59,5603.05 L 4952.59,6203.05 Z " />
<path stroke="transparent" fill="#000000" transform="matrix(0.0833333 0 0 0.0833333 -234.208 -305)" d="M 4422.97,6508.82 L 4422.97,6485.73 L 4932.59,6191.5 L 4952.59,6203.05 L 4422.97,6508.82 Z " />
<path stroke="transparent" fill="#000000" transform="matrix(0.0833333 0 0 0.0833333 -234.208 -305)" d="M 4427.97,6422.8 L 4417.97,6405.48 L 4865.59,6147.05 L 4875.59,6164.37 L 4427.97,6422.8 Z " />
<path stroke="transparent" fill="#000000" transform="matrix(0.0833333 0 0 0.0833333 -234.208 -305)" d="M 3903.36,6208.82 L 3903.36,6197.28 L 3913.36,6191.5 L 4422.97,6485.73 L 4422.97,6508.82 L 3903.36,6208.82 Z " />
<path stroke="transparent" fill="#000000" transform="matrix(0.0833333 0 0 0.0833333 -234.208 -305)" d="M 3893.36,5603.05 L 3903.36,5597.28 L 3913.36,5603.05 L 3913.36,6191.5 L 3903.36,6197.28 L 3893.36,6191.5 L 3893.36,5603.05 Z " />
<path stroke="transparent" fill="#000000" transform="matrix(0.0833333 0 0 0.0833333 -234.208 -305)" d="M 3965.36,5638.84 L 3985.36,5638.84 L 3985.36,6155.71 L 3965.36,6155.71 L 3965.36,5638.84 Z " />
<path stroke="transparent" fill="#000000" transform="matrix(0.0833333 0 0 0.0833333 -234.208 -305)" d="M 3913.36,5603.05 L 3903.36,5597.28 L 3903.36,5585.73 L 4412.97,5291.5 L 4422.97,5297.28 L 4422.97,5308.82 L 3913.36,5603.05 Z " />
<path stroke="transparent" fill="#000000" transform="matrix(0.0833333 0 0 0.0833333 -234.208 -305)" d="M 3383.74,5308.82 L 3383.74,5285.73 L 3903.36,5585.73 L 3903.36,5597.28 L 3893.36,5603.05 L 3383.74,5308.82 Z " />
<path stroke="transparent" fill="#000000" transform="matrix(0.0833333 0 0 0.0833333 -234.208 -305)" d="M 2874.13,5603.05 L 2854.13,5591.5 L 3383.74,5285.73 L 3383.74,5308.82 L 2874.13,5603.05 Z " />
<path stroke="transparent" fill="#000000" transform="matrix(0.0833333 0 0 0.0833333 -234.208 -305)" d="M 2874.13,6191.5 L 2854.13,6203.05 L 2854.13,5591.5 L 2874.13,5603.05 L 2874.13,6191.5 Z " />
<path stroke="transparent" fill="#000000" transform="matrix(0.0833333 0 0 0.0833333 -234.208 -305)" d="M 3383.74,6485.73 L 3383.74,6497.28 L 3370.08,6500.94 L 2854.13,6203.05 L 2874.13,6191.5 L 3383.74,6485.73 Z " />
<path stroke="transparent" fill="#000000" transform="matrix(0.0833333 0 0 0.0833333 -234.208 -305)" d="M 3397.4,6500.94 L 3383.74,6497.28 L 3383.74,6485.73 L 3893.36,6191.5 L 3903.36,6197.28 L 3903.36,6208.82 L 3397.4,6500.94 Z " />
<path stroke="transparent" fill="#000000" transform="matrix(0.0833333 0 0 0.0833333 -234.208 -305)" d="M 3692.4,7011.89 L 3675.08,7021.89 L 3383.74,6517.28 L 3383.74,6497.28 L 3397.4,6500.94 L 3692.4,7011.89 Z " />
<path stroke="transparent" fill="#000000" transform="matrix(0.0833333 0 0 0.0833333 -234.208 -305)" d="M 3092.4,7021.89 L 3075.08,7011.89 L 3370.08,6500.94 L 3383.74,6497.28 L 3383.74,6517.28 L 3092.4,7021.89 Z " />
</svg>
