<?xml version="1.0" standalone="no" ?>
<!DOCTYPE svg PUBLIC "-//W3C//DTD SVG 1.1//EN" "http://www.w3.org/Graphics/SVG/1.1/DTD/svg11.dtd">
<svg width="156px" height="131px" viewBox="0 0 156 131" style="background-color: #ffffff00" xmlns="http://www.w3.org/2000/svg" xmlns:xlink="http://www.w3.org/1999/xlink" version="1.1" >
<text x="0" y="0" stroke="transparent" fill="#000000" transform="matrix(0.0666667 0 0 0.0666667 142.027 48.0333)" style="font:normal normal normal 200px 'Arial'" >
O</text>
<text x="0" y="0" stroke="transparent" fill="#000000" transform="matrix(0.0666667 0 0 0.0666667 3.46669 128.033)" style="font:normal normal normal 200px 'Arial'" >
O</text>
<path stroke="transparent" fill="#000000" transform="matrix(0.0666667 0 0 0.0666667 -270.853 -328)" d="M 5761.64,6456.73 L 5751.64,6462.5 L 5741.64,6456.73 L 5741.64,5868.27 L 5761.64,5856.73 L 5761.64,6456.73 Z " />
<path stroke="transparent" fill="#000000" transform="matrix(0.0666667 0 0 0.0666667 -270.853 -328)" d="M 5232,6774.05 L 5232,6750.95 L 5741.64,6456.73 L 5751.64,6462.5 L 5751.64,6474.05 L 5232,6774.05 Z " />
<path stroke="transparent" fill="#000000" transform="matrix(0.0666667 0 0 0.0666667 -270.853 -328)" d="M 5237,6688.02 L 5227,6670.7 L 5674.63,6412.27 L 5684.63,6429.59 L 5237,6688.02 Z " />
<path stroke="transparent" fill="#000000" transform="matrix(0.0666667 0 0 0.0666667 -270.853 -328)" d="M 4702.36,6468.27 L 4722.36,6456.73 L 5232,6750.95 L 5232,6774.05 L 4702.36,6468.27 Z " />
<path stroke="transparent" fill="#000000" transform="matrix(0.0666667 0 0 0.0666667 -270.853 -328)" d="M 4702.36,5856.73 L 4722.36,5868.27 L 4722.36,6456.73 L 4702.36,6468.27 L 4702.36,5856.73 Z " />
<path stroke="transparent" fill="#000000" transform="matrix(0.0666667 0 0 0.0666667 -270.853 -328)" d="M 5222,5556.73 L 5232,5562.5 L 5232,5574.05 L 4722.36,5868.27 L 4702.36,5856.73 L 5222,5556.73 Z " />
<path stroke="transparent" fill="#000000" transform="matrix(0.0666667 0 0 0.0666667 -270.853 -328)" d="M 5227,5636.98 L 5237,5654.3 L 4789.37,5912.73 L 4779.37,5895.41 L 5227,5636.98 Z " />
<path stroke="transparent" fill="#000000" transform="matrix(0.0666667 0 0 0.0666667 -270.853 -328)" d="M 5232,5574.05 L 5232,5562.5 L 5242,5556.73 L 5761.64,5856.73 L 5741.64,5868.27 L 5232,5574.05 Z " />
<path stroke="transparent" fill="#000000" transform="matrix(0.0666667 0 0 0.0666667 -270.853 -328)" d="M 6148.6,5580.18 L 6158.6,5597.5 L 5720.64,5850.38 L 5710.64,5833.06 L 6148.6,5580.18 Z " />
<path stroke="transparent" fill="#000000" transform="matrix(0.0666667 0 0 0.0666667 -270.853 -328)" d="M 6184.6,5642.52 L 6194.6,5659.84 L 5756.64,5912.73 L 5746.64,5895.41 L 6184.6,5642.52 Z " />
<path stroke="transparent" fill="#000000" transform="matrix(0.0666667 0 0 0.0666667 -270.853 -328)" d="M 4308.42,6748.86 L 4298.42,6731.54 L 4743.36,6474.62 L 4753.36,6491.94 L 4308.42,6748.86 Z " />
<path stroke="transparent" fill="#000000" transform="matrix(0.0666667 0 0 0.0666667 -270.853 -328)" d="M 4272.42,6686.51 L 4262.42,6669.19 L 4707.36,6412.27 L 4717.36,6429.59 L 4272.42,6686.51 Z " />
<path stroke="transparent" fill="#000000" transform="matrix(0.0666667 0 0 0.0666667 -270.853 -328)" d="M 5222,4962.5 L 5242,4962.5 L 5242,5556.73 L 5232,5562.5 L 5222,5556.73 L 5222,4962.5 Z " />
<path stroke="transparent" fill="#000000" transform="matrix(0.0666667 0 0 0.0666667 -270.853 -328)" d="M 6276.2,6753.84 L 6266.2,6771.16 L 5751.64,6474.05 L 5751.64,6462.5 L 5761.64,6456.73 L 6276.2,6753.84 Z " />
</svg>
