<?xml version="1.0" standalone="no" ?>
<!DOCTYPE svg PUBLIC "-//W3C//DTD SVG 1.1//EN" "http://www.w3.org/Graphics/SVG/1.1/DTD/svg11.dtd">
<svg width="280px" height="233px" viewBox="0 0 280 233" style="background-color: #ffffff00" xmlns="http://www.w3.org/2000/svg" xmlns:xlink="http://www.w3.org/1999/xlink" version="1.1" >
<path stroke="transparent" fill="#000000" transform="matrix(0.0833333 0 0 0.0833333 -296.208 -243)" d="M 4712.35,5056.86 L 4712.35,5079.95 L 4192.84,4779.85 L 4192.85,4768.31 L 4202.85,4762.54 L 4712.35,5056.86 Z " />
<path stroke="transparent" fill="#000000" transform="matrix(0.0833333 0 0 0.0833333 -296.208 -243)" d="M 4712.35,5079.95 L 4712.35,5056.86 L 5222.04,4762.76 L 5232.04,4768.53 L 5232.04,4780.08 L 4712.35,5079.95 Z " />
<path stroke="transparent" fill="#000000" transform="matrix(0.0833333 0 0 0.0833333 -296.208 -243)" d="M 4717.37,4993.93 L 4707.37,4976.6 L 5155.05,4718.28 L 5165.05,4735.61 L 4717.37,4993.93 Z " />
<path stroke="transparent" fill="#000000" transform="matrix(0.0833333 0 0 0.0833333 -296.208 -243)" d="M 5242.04,4762.76 L 5232.04,4768.53 L 5222.04,4762.76 L 5222.17,4174.3 L 5232.17,4168.53 L 5242.17,4174.31 L 5242.04,4762.76 Z " />
<path stroke="transparent" fill="#000000" transform="matrix(0.0833333 0 0 0.0833333 -296.208 -243)" d="M 5232.04,4780.08 L 5232.04,4768.53 L 5242.04,4762.76 L 5664.04,5006.53 L 5654.04,5023.85 L 5232.04,4780.08 Z " />
<path stroke="transparent" fill="#000000" transform="matrix(0.0833333 0 0 0.0833333 -296.208 -243)" d="M 5849.27,5023.89 L 5839.28,5006.57 L 6261.29,4763.01 L 6281.28,4774.56 L 5849.27,5023.89 Z " />
<path stroke="transparent" fill="#000000" transform="matrix(0.0833333 0 0 0.0833333 -296.208 -243)" d="M 6721.24,4975.59 L 6711.24,4992.9 L 6266.29,4735.87 L 6276.3,4718.56 L 6721.24,4975.59 Z " />
<path stroke="transparent" fill="#000000" transform="matrix(0.0833333 0 0 0.0833333 -296.208 -243)" d="M 6685.23,5037.93 L 6675.23,5055.25 L 6230.28,4798.22 L 6240.28,4780.9 L 6685.23,5037.93 Z " />
<path stroke="transparent" fill="#000000" transform="matrix(0.0833333 0 0 0.0833333 -296.208 -243)" d="M 6281.28,4774.56 L 6261.29,4763.01 L 6261.42,4174.56 L 6281.42,4163.01 L 6281.28,4774.56 Z " />
<path stroke="transparent" fill="#000000" transform="matrix(0.0833333 0 0 0.0833333 -296.208 -243)" d="M 6281.42,4163.01 L 6261.42,4174.56 L 5751.86,3880.21 L 5751.86,3857.11 L 6281.42,4163.01 Z " />
<path stroke="transparent" fill="#000000" transform="matrix(0.0833333 0 0 0.0833333 -296.208 -243)" d="M 6204.41,4201.68 L 6194.4,4219 L 5746.84,3960.46 L 5756.84,3943.14 L 6204.41,4201.68 Z " />
<path stroke="transparent" fill="#000000" transform="matrix(0.0833333 0 0 0.0833333 -296.208 -243)" d="M 5751.86,3857.11 L 5751.86,3880.21 L 5242.17,4174.31 L 5232.17,4168.53 L 5232.17,4156.98 L 5751.86,3857.11 Z " />
<path stroke="transparent" fill="#000000" transform="matrix(0.0833333 0 0 0.0833333 -296.208 -243)" d="M 5232.17,4156.98 L 5232.17,4168.53 L 5222.17,4174.3 L 4712.61,3879.95 L 4712.62,3868.4 L 4722.62,3862.63 L 5232.17,4156.98 Z " />
<path stroke="transparent" fill="#000000" transform="matrix(0.0833333 0 0 0.0833333 -296.208 -243)" d="M 5165.16,4201.43 L 5155.16,4218.74 L 4707.6,3960.21 L 4717.6,3942.89 L 5165.16,4201.43 Z " />
<path stroke="transparent" fill="#000000" transform="matrix(0.0833333 0 0 0.0833333 -296.208 -243)" d="M 5227.47,2959.82 L 5237.46,2977.14 L 4810.42,3223.63 L 4800.42,3206.31 L 5227.47,2959.82 Z " />
<path stroke="transparent" fill="#000000" transform="matrix(0.0833333 0 0 0.0833333 -296.208 -243)" d="M 4702.76,3388.26 L 4722.76,3388.27 L 4722.62,3862.63 L 4712.62,3868.4 L 4702.62,3862.63 L 4702.76,3388.26 Z " />
<path stroke="transparent" fill="#000000" transform="matrix(0.0833333 0 0 0.0833333 -296.208 -243)" d="M 4702.62,3862.63 L 4712.62,3868.4 L 4712.61,3879.95 L 4202.98,4174.08 L 4182.98,4162.53 L 4702.62,3862.63 Z " />
<path stroke="transparent" fill="#000000" transform="matrix(0.0833333 0 0 0.0833333 -296.208 -243)" d="M 4182.98,4162.53 L 4202.98,4174.08 L 4202.85,4762.54 L 4192.85,4768.31 L 4182.85,4762.53 L 4182.98,4162.53 Z " />
<path stroke="transparent" fill="#000000" transform="matrix(0.0833333 0 0 0.0833333 -296.208 -243)" d="M 4254.97,4209.89 L 4274.97,4209.89 L 4274.86,4726.76 L 4254.86,4726.75 L 4254.97,4209.89 Z " />
<path stroke="transparent" fill="#000000" transform="matrix(0.0833333 0 0 0.0833333 -296.208 -243)" d="M 4182.85,4762.53 L 4192.85,4768.31 L 4192.84,4779.85 L 3770.79,5023.39 L 3760.79,5006.07 L 4182.85,4762.53 Z " />
<path stroke="transparent" fill="#000000" transform="matrix(0.0833333 0 0 0.0833333 -296.208 -243)" d="M 3663.13,5188.01 L 3683.13,5188.01 L 3683.03,5668.18 L 3663.03,5668.18 L 3663.13,5188.01 Z " />
<text x="0" y="0" stroke="transparent" fill="#000000" transform="matrix(0.0833333 0 0 0.0833333 176.596 185.891)" style="font:normal normal normal 200px 'Arial'" >
O</text>
<text x="0" y="0" stroke="transparent" fill="#000000" transform="matrix(0.0833333 0 0 0.0833333 263.195 185.909)" style="font:normal normal normal 200px 'Arial'" >
O</text>
<text x="0" y="0" stroke="transparent" fill="#000000" transform="matrix(0.0833333 0 0 0.0833333 90.0249 35.8695)" style="font:normal normal normal 200px 'Arial'" >
O</text>
<text x="0" y="0" stroke="transparent" fill="#000000" transform="matrix(0.0833333 0 0 0.0833333 3.38819 185.848)" style="font:normal normal normal 200px 'Arial'" >
O</text>
</svg>
