<?xml version="1.0" standalone="no" ?>
<!DOCTYPE svg PUBLIC "-//W3C//DTD SVG 1.1//EN" "http://www.w3.org/Graphics/SVG/1.1/DTD/svg11.dtd">
<svg width="232px" height="207px" viewBox="0 0 232 207" style="background-color: #ffffff00" xmlns="http://www.w3.org/2000/svg" xmlns:xlink="http://www.w3.org/1999/xlink" version="1.1" >
<text x="0" y="0" stroke="none" fill="#000000" transform="matrix(0.0666667 0 0 0.0666667 106.315 193.003)" font-style="normal" font-weight="normal" font-size="200px" font-family="Arial" >
N</text>
<text x="0" y="0" stroke="none" fill="#000000" transform="matrix(0.0666667 0 0 0.0666667 106.315 204.126)" font-style="normal" font-weight="normal" font-size="200px" font-family="Arial" >
H</text>
<text x="0" y="0" stroke="none" fill="#000000" transform="matrix(0.0666667 0 0 0.0666667 208.892 35.5631)" font-style="normal" font-weight="normal" font-size="200px" font-family="Arial" >
OH</text>
<text x="0" y="0" stroke="none" fill="#000000" transform="matrix(0.0666667 0 0 0.0666667 143.001 14.1522)" font-style="normal" font-weight="normal" font-size="200px" font-family="Arial" >
O</text>
<path stroke="none" fill="#000000" transform="matrix(0.0666667 0 0 0.0666667 -232.859 -181)" d="M 3559.71,4752.37 L 3539.71,4740.82 L 4069.27,4435.05 L 4069.27,4458.14 L 3559.71,4752.37 Z " />
<path stroke="none" fill="#000000" transform="matrix(0.0666667 0 0 0.0666667 -232.859 -181)" d="M 4590.13,4735.71 L 4588.98,4746.59 L 4578.98,4752.37 L 4069.27,4458.14 L 4069.27,4435.05 L 4590.13,4735.71 Z " />
<path stroke="none" fill="#000000" transform="matrix(0.0666667 0 0 0.0666667 -232.859 -181)" d="M 4521.97,4779.51 L 4511.97,4796.83 L 4064.28,4538.4 L 4074.28,4521.08 L 4521.97,4779.51 Z " />
<path stroke="none" fill="#000000" transform="matrix(0.0666667 0 0 0.0666667 -232.859 -181)" d="M 3559.71,5340.82 L 3539.71,5352.37 L 3539.71,4740.82 L 3559.71,4752.37 L 3559.71,5340.82 Z " />
<path stroke="none" fill="#000000" transform="matrix(0.0666667 0 0 0.0666667 -232.859 -181)" d="M 3631.71,5305.03 L 3611.71,5305.03 L 3611.71,4788.16 L 3631.71,4788.16 L 3631.71,5305.03 Z " />
<path stroke="none" fill="#000000" transform="matrix(0.0666667 0 0 0.0666667 -232.859 -181)" d="M 4069.27,5635.12 L 4069.27,5658.22 L 3539.71,5352.37 L 3559.71,5340.82 L 4069.27,5635.12 Z " />
<path stroke="none" fill="#000000" transform="matrix(0.0666667 0 0 0.0666667 -232.859 -181)" d="M 4578.98,5340.82 L 4588.98,5346.6 L 4590.13,5357.48 L 4069.27,5658.22 L 4069.27,5635.12 L 4578.98,5340.82 Z " />
<path stroke="none" fill="#000000" transform="matrix(0.0666667 0 0 0.0666667 -232.859 -181)" d="M 4511.97,5296.36 L 4521.97,5313.68 L 4074.28,5572.17 L 4064.28,5554.85 L 4511.97,5296.36 Z " />
<path stroke="none" fill="#000000" transform="matrix(0.0666667 0 0 0.0666667 -232.859 -181)" d="M 5055.53,5487.71 L 5049.35,5506.73 L 4590.13,5357.48 L 4588.98,5346.6 L 4598.98,5339.33 L 5055.53,5487.71 Z " />
<path stroke="none" fill="#000000" transform="matrix(0.0666667 0 0 0.0666667 -232.859 -181)" d="M 4578.98,4752.37 L 4588.98,4746.59 L 4598.98,4753.86 L 4598.98,5339.33 L 4588.98,5346.6 L 4578.98,5340.82 L 4578.98,4752.37 Z " />
<path stroke="none" fill="#000000" transform="matrix(0.0666667 0 0 0.0666667 -232.859 -181)" d="M 5499.9,5046.6 L 5524.62,5046.59 L 5240.42,5437.81 L 5224.24,5426.05 L 5499.9,5046.6 Z " />
<path stroke="none" fill="#000000" transform="matrix(0.0666667 0 0 0.0666667 -232.859 -181)" d="M 5155.78,4572.97 L 5159.6,4561.21 L 5170.69,4559.46 L 5524.62,5046.59 L 5499.9,5046.6 L 5155.78,4572.97 Z " />
<path stroke="none" fill="#000000" transform="matrix(0.0666667 0 0 0.0666667 -232.859 -181)" d="M 5124.01,4651.73 L 5140.19,4639.97 L 5431.36,5040.72 L 5415.18,5052.48 L 5124.01,4651.73 Z " />
<path stroke="none" fill="#000000" transform="matrix(0.0666667 0 0 0.0666667 -232.859 -181)" d="M 4598.98,4753.86 L 4588.98,4746.59 L 4590.13,4735.71 L 5151.67,4553.28 L 5159.6,4561.21 L 5155.78,4572.97 L 4598.98,4753.86 Z " />
<path stroke="none" fill="#000000" transform="matrix(0.0666667 0 0 0.0666667 -232.859 -181)" d="M 5337.33,3982.01 L 5352.78,3999.17 L 5170.69,4559.46 L 5159.6,4561.21 L 5151.67,4553.28 L 5337.33,3982.01 Z " />
<path stroke="none" fill="#000000" transform="matrix(0.0666667 0 0 0.0666667 -232.859 -181)" d="M 5924.17,3857.28 L 5939.62,3874.45 L 5352.78,3999.17 L 5337.33,3982.01 L 5924.17,3857.28 Z " />
<path stroke="none" fill="#000000" transform="matrix(0.0666667 0 0 0.0666667 -232.859 -181)" d="M 6109.62,3286.59 L 6125.07,3303.76 L 5939.62,3874.45 L 5924.17,3857.28 L 6109.62,3286.59 Z " />
<path stroke="none" fill="#000000" transform="matrix(0.0666667 0 0 0.0666667 -232.859 -181)" d="M 6594.04,3183.65 L 6598.2,3203.21 L 6125.07,3303.76 L 6109.62,3286.59 L 6594.04,3183.65 Z " />
<path stroke="none" fill="#000000" transform="matrix(0.0666667 0 0 0.0666667 -232.859 -181)" d="M 5761.7,2968.91 L 5776.57,2955.53 L 6111.93,3328.02 L 6097.07,3341.4 L 5761.7,2968.91 Z " />
<path stroke="none" fill="#000000" transform="matrix(0.0666667 0 0 0.0666667 -232.859 -181)" d="M 5815.21,2920.74 L 5830.07,2907.35 L 6165.44,3279.84 L 6150.58,3293.22 L 5815.21,2920.74 Z " />
</svg>
