<?xml version="1.0" standalone="no" ?>
<!DOCTYPE svg PUBLIC "-//W3C//DTD SVG 1.1//EN" "http://www.w3.org/Graphics/SVG/1.1/DTD/svg11.dtd">
<svg width="580px" height="377px" viewBox="0 0 580 377" style="background-color: #ffffff00" xmlns="http://www.w3.org/2000/svg" xmlns:xlink="http://www.w3.org/1999/xlink" version="1.1" >
<text x="0" y="0" stroke="transparent" fill="#000000" transform="matrix(0.0666667 0 0 0.0666667 566.693 54.0731)" style="font:normal normal normal 200px 'Arial'" >
O</text>
<text x="0" y="0" stroke="transparent" fill="#000000" transform="matrix(0.0666667 0 0 0.0666667 532.052 194.076)" style="font:normal normal normal 200px 'Arial'" >
OH</text>
<text x="0" y="0" stroke="transparent" fill="#000000" transform="matrix(0.0666667 0 0 0.0666667 428.126 134.075)" style="font:normal normal normal 200px 'Arial'" >
OH</text>
<text x="0" y="0" stroke="transparent" fill="#000000" transform="matrix(0.0666667 0 0 0.0666667 462.767 234.077)" style="font:normal normal normal 200px 'Arial'" >
O</text>
<text x="0" y="0" stroke="transparent" fill="#000000" transform="matrix(0.0666667 0 0 0.0666667 254.918 354.076)" style="font:normal normal normal 200px 'Arial'" >
OH</text>
<text x="0" y="0" stroke="transparent" fill="#000000" transform="matrix(0.0666667 0 0 0.0666667 220.674 294.074)" style="font:normal normal normal 200px 'Arial'" >
N</text>
<text x="0" y="0" stroke="transparent" fill="#000000" transform="matrix(0.0666667 0 0 0.0666667 2.80018 374.072)" style="font:normal normal normal 200px 'Arial'" >
HO</text>
<text x="0" y="0" stroke="transparent" fill="#000000" transform="matrix(0.0666667 0 0 0.0666667 462.767 314.075)" style="font:normal normal normal 200px 'Arial'" >
O</text>
<text x="0" y="0" stroke="transparent" fill="#000000" transform="matrix(0.0666667 0 0 0.0666667 497.408 14.0723)" style="font:normal normal normal 200px 'Arial'" >
OH</text>
<path stroke="transparent" fill="#000000" transform="matrix(0.0666667 0 0 0.0666667 -58.8533 -221)" d="M 9471.2,3942.93 L 9451.2,3942.93 L 9451.2,3448.08 L 9471.2,3448.08 L 9471.2,3942.93 Z " />
<path stroke="transparent" fill="#000000" transform="matrix(0.0666667 0 0 0.0666667 -58.8533 -221)" d="M 8951.59,4353.88 L 8941.59,4348.1 L 8941.59,4336.56 L 9356.59,4096.94 L 9366.59,4114.26 L 8951.59,4353.88 Z " />
<path stroke="transparent" fill="#000000" transform="matrix(0.0666667 0 0 0.0666667 -58.8533 -221)" d="M 8951.59,4953.89 L 8931.59,4942.34 L 8931.59,4353.88 L 8941.59,4348.1 L 8951.59,4353.88 L 8951.59,4953.89 Z " />
<path stroke="transparent" fill="#000000" transform="matrix(0.0666667 0 0 0.0666667 -58.8533 -221)" d="M 8879.58,4906.55 L 8859.58,4906.55 L 8859.58,4389.68 L 8879.58,4389.68 L 8879.58,4906.55 Z " />
<path stroke="transparent" fill="#000000" transform="matrix(0.0666667 0 0 0.0666667 -58.8533 -221)" d="M 8431.91,5253.9 L 8421.91,5248.12 L 8421.91,5236.58 L 8931.59,4942.34 L 8951.59,4953.89 L 8431.91,5253.9 Z " />
<path stroke="transparent" fill="#000000" transform="matrix(0.0666667 0 0 0.0666667 -58.8533 -221)" d="M 8431.91,5842.36 L 8421.91,5848.14 L 8411.91,5842.36 L 8411.91,5253.9 L 8421.91,5248.12 L 8431.91,5253.9 L 8431.91,5842.36 Z " />
<path stroke="transparent" fill="#000000" transform="matrix(0.0666667 0 0 0.0666667 -58.8533 -221)" d="M 8853.97,6086.01 L 8843.97,6103.33 L 8421.91,5859.68 L 8421.91,5848.14 L 8431.91,5842.36 L 8853.97,6086.01 Z " />
<path stroke="transparent" fill="#000000" transform="matrix(0.0666667 0 0 0.0666667 -58.8533 -221)" d="M 7912.3,6153.92 L 7902.3,6148.14 L 7902.3,6136.6 L 8411.91,5842.36 L 8421.91,5848.14 L 8421.91,5859.68 L 7912.3,6153.92 Z " />
<path stroke="transparent" fill="#000000" transform="matrix(0.0666667 0 0 0.0666667 -58.8533 -221)" d="M 7372.69,5853.91 L 7392.69,5842.36 L 7902.3,6136.6 L 7902.3,6148.14 L 7892.3,6153.92 L 7372.69,5853.91 Z " />
<path stroke="transparent" fill="#000000" transform="matrix(0.0666667 0 0 0.0666667 -58.8533 -221)" d="M 7372.69,5367.96 L 7392.69,5367.96 L 7392.69,5842.36 L 7372.69,5853.91 L 7372.69,5367.96 Z " />
<path stroke="transparent" fill="#000000" transform="matrix(0.0666667 0 0 0.0666667 -58.8533 -221)" d="M 7912.3,6642.99 L 7892.3,6642.99 L 7892.3,6153.92 L 7902.3,6148.14 L 7912.3,6153.92 L 7912.3,6642.99 Z " />
<path stroke="transparent" fill="#000000" transform="matrix(0.0666667 0 0 0.0666667 -58.8533 -221)" d="M 7392.69,7053.94 L 7382.69,7048.16 L 7382.69,7036.62 L 7797.7,6797 L 7807.7,6814.32 L 7392.69,7053.94 Z " />
<path stroke="transparent" fill="#000000" transform="matrix(0.0666667 0 0 0.0666667 -58.8533 -221)" d="M 6863.08,6759.7 L 6863.08,6736.61 L 7382.69,7036.62 L 7382.69,7048.16 L 7372.69,7053.94 L 6863.08,6759.7 Z " />
<path stroke="transparent" fill="#000000" transform="matrix(0.0666667 0 0 0.0666667 -58.8533 -221)" d="M 6858.08,6839.95 L 6868.08,6822.63 L 7315.69,7081.07 L 7305.69,7098.39 L 6858.08,6839.95 Z " />
<path stroke="transparent" fill="#000000" transform="matrix(0.0666667 0 0 0.0666667 -58.8533 -221)" d="M 6353.41,7053.94 L 6333.41,7042.39 L 6863.08,6736.61 L 6863.08,6759.7 L 6353.41,7053.94 Z " />
<path stroke="transparent" fill="#000000" transform="matrix(0.0666667 0 0 0.0666667 -58.8533 -221)" d="M 6353.41,7642.34 L 6343.41,7648.12 L 6333.41,7642.34 L 6333.41,7042.39 L 6353.41,7053.94 L 6353.41,7642.34 Z " />
<path stroke="transparent" fill="#000000" transform="matrix(0.0666667 0 0 0.0666667 -58.8533 -221)" d="M 6425.4,7606.55 L 6405.4,7606.55 L 6405.4,7089.73 L 6425.4,7089.73 L 6425.4,7606.55 Z " />
<path stroke="transparent" fill="#000000" transform="matrix(0.0666667 0 0 0.0666667 -58.8533 -221)" d="M 5823.8,7959.67 L 5823.8,7936.58 L 6333.41,7642.34 L 6343.41,7648.12 L 6343.41,7659.66 L 5823.8,7959.67 Z " />
<path stroke="transparent" fill="#000000" transform="matrix(0.0666667 0 0 0.0666667 -58.8533 -221)" d="M 5304.19,7659.66 L 5304.19,7636.57 L 5823.8,7936.58 L 5823.8,7959.67 L 5304.19,7659.66 Z " />
<path stroke="transparent" fill="#000000" transform="matrix(0.0666667 0 0 0.0666667 -58.8533 -221)" d="M 5299.19,7739.91 L 5309.19,7722.59 L 5792.8,8001.82 L 5782.8,8019.14 L 5299.19,7739.91 Z " />
<path stroke="transparent" fill="#000000" transform="matrix(0.0666667 0 0 0.0666667 -58.8533 -221)" d="M 4794.58,7953.9 L 4784.58,7948.12 L 4784.58,7936.58 L 5304.19,7636.57 L 5304.19,7659.66 L 4794.58,7953.9 Z " />
<path stroke="transparent" fill="#000000" transform="matrix(0.0666667 0 0 0.0666667 -58.8533 -221)" d="M 4794.58,8442.97 L 4774.58,8442.97 L 4774.58,7953.9 L 4784.58,7948.12 L 4794.58,7953.9 L 4794.58,8442.97 Z " />
<path stroke="transparent" fill="#000000" transform="matrix(0.0666667 0 0 0.0666667 -58.8533 -221)" d="M 4369.96,7720.31 L 4379.96,7702.99 L 4784.58,7936.58 L 4784.58,7948.12 L 4774.58,7953.9 L 4369.96,7720.31 Z " />
<path stroke="transparent" fill="#000000" transform="matrix(0.0666667 0 0 0.0666667 -58.8533 -221)" d="M 4333.96,7782.67 L 4343.96,7765.35 L 4717.57,7981.04 L 4707.57,7998.36 L 4333.96,7782.67 Z " />
<path stroke="transparent" fill="#000000" transform="matrix(0.0666667 0 0 0.0666667 -58.8533 -221)" d="M 3745.29,7959.67 L 3745.29,7936.58 L 4149.85,7703 L 4159.85,7720.32 L 3745.29,7959.67 Z " />
<path stroke="transparent" fill="#000000" transform="matrix(0.0666667 0 0 0.0666667 -58.8533 -221)" d="M 3225.68,7659.66 L 3225.68,7636.57 L 3745.29,7936.58 L 3745.29,7959.67 L 3225.68,7659.66 Z " />
<path stroke="transparent" fill="#000000" transform="matrix(0.0666667 0 0 0.0666667 -58.8533 -221)" d="M 2716.07,7953.9 L 2706.07,7948.12 L 2706.07,7936.58 L 3225.68,7636.57 L 3225.68,7659.66 L 2716.07,7953.9 Z " />
<path stroke="transparent" fill="#000000" transform="matrix(0.0666667 0 0 0.0666667 -58.8533 -221)" d="M 2186.46,7659.66 L 2186.46,7636.57 L 2706.07,7936.58 L 2706.07,7948.12 L 2696.07,7953.9 L 2186.46,7659.66 Z " />
<path stroke="transparent" fill="#000000" transform="matrix(0.0666667 0 0 0.0666667 -58.8533 -221)" d="M 2181.45,7739.91 L 2191.46,7722.59 L 2639.07,7981.03 L 2629.07,7998.35 L 2181.45,7739.91 Z " />
<path stroke="transparent" fill="#000000" transform="matrix(0.0666667 0 0 0.0666667 -58.8533 -221)" d="M 1676.85,7953.84 L 1656.85,7942.29 L 2186.46,7636.57 L 2186.46,7659.66 L 1676.85,7953.84 Z " />
<path stroke="transparent" fill="#000000" transform="matrix(0.0666667 0 0 0.0666667 -58.8533 -221)" d="M 1676.85,8542.3 L 1666.85,8548.08 L 1656.85,8542.3 L 1656.85,7942.29 L 1676.85,7953.84 L 1676.85,8542.3 Z " />
<path stroke="transparent" fill="#000000" transform="matrix(0.0666667 0 0 0.0666667 -58.8533 -221)" d="M 1748.85,8506.51 L 1728.85,8506.51 L 1728.85,7989.64 L 1748.85,7989.64 L 1748.85,8506.51 Z " />
<path stroke="transparent" fill="#000000" transform="matrix(0.0666667 0 0 0.0666667 -58.8533 -221)" d="M 1244.85,8803.27 L 1234.85,8785.95 L 1656.85,8542.3 L 1666.85,8548.08 L 1666.85,8559.62 L 1244.85,8803.27 Z " />
<path stroke="transparent" fill="#000000" transform="matrix(0.0666667 0 0 0.0666667 -58.8533 -221)" d="M 2186.46,8836.54 L 2186.46,8859.63 L 1666.85,8559.62 L 1666.85,8548.08 L 1676.85,8542.3 L 2186.46,8836.54 Z " />
<path stroke="transparent" fill="#000000" transform="matrix(0.0666667 0 0 0.0666667 -58.8533 -221)" d="M 2696.07,8542.3 L 2716.07,8553.85 L 2186.46,8859.63 L 2186.46,8836.54 L 2696.07,8542.3 Z " />
<path stroke="transparent" fill="#000000" transform="matrix(0.0666667 0 0 0.0666667 -58.8533 -221)" d="M 2629.07,8497.85 L 2639.07,8515.17 L 2191.46,8773.6 L 2181.46,8756.28 L 2629.07,8497.85 Z " />
<path stroke="transparent" fill="#000000" transform="matrix(0.0666667 0 0 0.0666667 -58.8533 -221)" d="M 2716.07,8553.85 L 2696.07,8542.3 L 2696.07,7953.9 L 2706.07,7948.12 L 2716.07,7953.9 L 2716.07,8553.85 Z " />
<path stroke="transparent" fill="#000000" transform="matrix(0.0666667 0 0 0.0666667 -58.8533 -221)" d="M 6863.08,7936.58 L 6863.08,7959.67 L 6343.41,7659.66 L 6343.41,7648.12 L 6353.41,7642.34 L 6863.08,7936.58 Z " />
<path stroke="transparent" fill="#000000" transform="matrix(0.0666667 0 0 0.0666667 -58.8533 -221)" d="M 7372.69,7642.34 L 7382.69,7648.12 L 7382.69,7659.66 L 6863.08,7959.67 L 6863.08,7936.58 L 7372.69,7642.34 Z " />
<path stroke="transparent" fill="#000000" transform="matrix(0.0666667 0 0 0.0666667 -58.8533 -221)" d="M 7305.69,7597.89 L 7315.69,7615.21 L 6868.08,7873.64 L 6858.08,7856.32 L 7305.69,7597.89 Z " />
<path stroke="transparent" fill="#000000" transform="matrix(0.0666667 0 0 0.0666667 -58.8533 -221)" d="M 7392.69,7642.34 L 7382.69,7648.12 L 7372.69,7642.34 L 7372.69,7053.94 L 7382.69,7048.16 L 7392.69,7053.94 L 7392.69,7642.34 Z " />
<path stroke="transparent" fill="#000000" transform="matrix(0.0666667 0 0 0.0666667 -58.8533 -221)" d="M 7814.69,7885.99 L 7804.68,7903.31 L 7382.69,7659.66 L 7382.69,7648.12 L 7392.69,7642.34 L 7814.69,7885.99 Z " />
<path stroke="transparent" fill="#000000" transform="matrix(0.0666667 0 0 0.0666667 -58.8533 -221)" d="M 8416.91,7639.46 L 8426.91,7656.78 L 7999.92,7903.31 L 7989.92,7885.99 L 8416.91,7639.46 Z " />
<path stroke="transparent" fill="#000000" transform="matrix(0.0666667 0 0 0.0666667 -58.8533 -221)" d="M 7892.3,4953.89 L 7912.3,4942.34 L 8421.91,5236.58 L 8421.91,5248.12 L 8411.91,5253.9 L 7892.3,4953.89 Z " />
<path stroke="transparent" fill="#000000" transform="matrix(0.0666667 0 0 0.0666667 -58.8533 -221)" d="M 7969.3,4915.21 L 7979.3,4897.89 L 8426.92,5156.33 L 8416.92,5173.65 L 7969.3,4915.21 Z " />
<path stroke="transparent" fill="#000000" transform="matrix(0.0666667 0 0 0.0666667 -58.8533 -221)" d="M 7892.3,4342.33 L 7912.3,4353.88 L 7912.3,4942.34 L 7892.3,4953.89 L 7892.3,4342.33 Z " />
<path stroke="transparent" fill="#000000" transform="matrix(0.0666667 0 0 0.0666667 -58.8533 -221)" d="M 8411.91,4042.32 L 8421.91,4048.1 L 8421.91,4059.64 L 7912.3,4353.88 L 7892.3,4342.33 L 8411.91,4042.32 Z " />
<path stroke="transparent" fill="#000000" transform="matrix(0.0666667 0 0 0.0666667 -58.8533 -221)" d="M 8416.92,4122.57 L 8426.92,4139.9 L 7979.3,4398.33 L 7969.3,4381.01 L 8416.92,4122.57 Z " />
<path stroke="transparent" fill="#000000" transform="matrix(0.0666667 0 0 0.0666667 -58.8533 -221)" d="M 8421.91,4059.64 L 8421.91,4048.1 L 8431.91,4042.32 L 8941.59,4336.56 L 8941.59,4348.1 L 8931.59,4353.88 L 8421.91,4059.64 Z " />
<path stroke="transparent" fill="#000000" transform="matrix(0.0666667 0 0 0.0666667 -58.8533 -221)" d="M 8411.91,3567.92 L 8431.91,3567.92 L 8431.91,4042.32 L 8421.91,4048.1 L 8411.91,4042.32 L 8411.91,3567.92 Z " />
</svg>
