<?xml version="1.0" standalone="no" ?>
<!DOCTYPE svg PUBLIC "-//W3C//DTD SVG 1.1//EN" "http://www.w3.org/Graphics/SVG/1.1/DTD/svg11.dtd">
<svg width="346px" height="384px" viewBox="0 0 346 384" style="background-color: #ffffff00" xmlns="http://www.w3.org/2000/svg" xmlns:xlink="http://www.w3.org/1999/xlink" version="1.1" >
<text x="0" y="0" stroke="transparent" fill="#000000" transform="matrix(0.0833333 0 0 0.0833333 230.964 155.467)" style="font:normal normal normal 200px 'Arial'" >
OH</text>
<text x="0" y="0" stroke="transparent" fill="#000000" transform="matrix(0.0833333 0 0 0.0833333 317.567 205.467)" style="font:normal normal normal 200px 'Arial'" >
OH</text>
<text x="0" y="0" stroke="transparent" fill="#000000" transform="matrix(0.0833333 0 0 0.0833333 317.567 305.469)" style="font:normal normal normal 200px 'Arial'" >
OH</text>
<text x="0" y="0" stroke="transparent" fill="#000000" transform="matrix(0.0833333 0 0 0.0833333 274.266 380.467)" style="font:normal normal normal 200px 'Arial'" >
OH</text>
<text x="0" y="0" stroke="transparent" fill="#000000" transform="matrix(0.0833333 0 0 0.0833333 187.662 280.467)" style="font:normal normal normal 200px 'Arial'" >
O</text>
<text x="0" y="0" stroke="transparent" fill="#000000" transform="matrix(0.0833333 0 0 0.0833333 144.36 205.468)" style="font:normal normal normal 200px 'Arial'" >
O</text>
<text x="0" y="0" stroke="transparent" fill="#000000" transform="matrix(0.0833333 0 0 0.0833333 187.662 130.467)" style="font:normal normal normal 200px 'Arial'" >
O</text>
<text x="0" y="0" stroke="transparent" fill="#000000" transform="matrix(0.0833333 0 0 0.0833333 101.059 30.4663)" style="font:normal normal normal 200px 'Arial'" >
OH</text>
<text x="0" y="0" stroke="transparent" fill="#000000" transform="matrix(0.0833333 0 0 0.0833333 26.0195 17.4637)" style="font:normal normal normal 200px 'Arial'" >
HO</text>
<text x="0" y="0" stroke="transparent" fill="#000000" transform="matrix(0.0833333 0 0 0.0833333 4.31361 179.374)" style="font:normal normal normal 200px 'Arial'" >
HO</text>
<path stroke="transparent" fill="#000000" transform="matrix(0.0833333 0 0 0.0833333 -262.542 -158)" d="M 4451.2,3377.85 L 4441.2,3383.62 L 4431.2,3376.36 L 4431.21,2790.86 L 4441.21,2783.6 L 4451.21,2789.37 L 4451.2,3377.85 Z " />
<path stroke="transparent" fill="#000000" transform="matrix(0.0833333 0 0 0.0833333 -262.542 -158)" d="M 4431.2,3376.36 L 4441.2,3383.62 L 4429.77,3397.85 L 3882.21,3575.76 L 3870.56,3569.03 L 3874.38,3557.27 L 4431.2,3376.36 Z " />
<path stroke="transparent" fill="#000000" transform="matrix(0.0833333 0 0 0.0833333 -262.542 -158)" d="M 4960.81,3672.08 L 4960.81,3683.62 L 4950.26,3689.08 L 4453.05,3402.01 L 4441.2,3383.62 L 4451.2,3377.85 L 4960.81,3672.08 Z " />
<path stroke="transparent" fill="#000000" transform="matrix(0.0833333 0 0 0.0833333 -262.542 -158)" d="M 5940.06,3803.43 L 6060.06,3803.44 L 6057.72,3823.44 L 5942.41,3823.43 L 5940.06,3803.43 Z " />
<path stroke="transparent" fill="#000000" transform="matrix(0.0833333 0 0 0.0833333 -262.542 -158)" d="M 5946.87,3861.46 L 6053.25,3861.46 L 6050.91,3881.46 L 5949.22,3881.46 L 5946.87,3861.46 Z " />
<path stroke="transparent" fill="#000000" transform="matrix(0.0833333 0 0 0.0833333 -262.542 -158)" d="M 5953.68,3919.48 L 6046.44,3919.49 L 6044.1,3939.49 L 5956.02,3939.48 L 5953.68,3919.48 Z " />
<path stroke="transparent" fill="#000000" transform="matrix(0.0833333 0 0 0.0833333 -262.542 -158)" d="M 5960.48,3977.51 L 6039.64,3977.51 L 6037.29,3997.51 L 5962.83,3997.51 L 5960.48,3977.51 Z " />
<path stroke="transparent" fill="#000000" transform="matrix(0.0833333 0 0 0.0833333 -262.542 -158)" d="M 5967.29,4035.53 L 6032.83,4035.53 L 6030.48,4055.53 L 5969.63,4055.53 L 5967.29,4035.53 Z " />
<path stroke="transparent" fill="#000000" transform="matrix(0.0833333 0 0 0.0833333 -262.542 -158)" d="M 5974.1,4093.56 L 6026.02,4093.56 L 6023.67,4113.56 L 5976.44,4113.56 L 5974.1,4093.56 Z " />
<path stroke="transparent" fill="#000000" transform="matrix(0.0833333 0 0 0.0833333 -262.542 -158)" d="M 5980.9,4151.58 L 6019.21,4151.58 L 6016.86,4171.58 L 5983.25,4171.58 L 5980.9,4151.58 Z " />
<path stroke="transparent" fill="#000000" transform="matrix(0.0833333 0 0 0.0833333 -262.542 -158)" d="M 5987.71,4209.61 L 6012.4,4209.61 L 6010.05,4229.61 L 5990.05,4229.61 L 5987.71,4209.61 Z " />
<path stroke="transparent" fill="#000000" transform="matrix(0.0833333 0 0 0.0833333 -262.542 -158)" d="M 6000.05,4272.08 L 6000.05,4295.18 L 5490.44,4589.39 L 5480.44,4583.62 L 5481,4571.75 L 6000.05,4272.08 Z " />
<path stroke="transparent" fill="#000000" transform="matrix(0.0833333 0 0 0.0833333 -262.542 -158)" d="M 6519.11,4571.76 L 6519.67,4583.63 L 6509.67,4589.4 L 6000.05,4295.18 L 6000.05,4272.08 L 6519.11,4571.76 Z " />
<path stroke="transparent" fill="#000000" transform="matrix(0.0833333 0 0 0.0833333 -262.542 -158)" d="M 6909.7,4289.15 L 6969.7,4393.08 L 6529.67,4590.05 L 6519.67,4583.63 L 6519.11,4571.76 L 6909.7,4289.15 Z " />
<path stroke="transparent" fill="#000000" transform="matrix(0.0833333 0 0 0.0833333 -262.542 -158)" d="M 6529.68,5189.39 L 6509.68,5177.85 L 6509.67,4589.4 L 6519.67,4583.63 L 6529.67,4590.05 L 6529.68,5189.39 Z " />
<path stroke="transparent" fill="#000000" transform="matrix(0.0833333 0 0 0.0833333 -262.542 -158)" d="M 6976.68,5378.19 L 6916.68,5482.11 L 6900.5,5470.14 L 6958.22,5370.16 L 6976.68,5378.19 Z " />
<path stroke="transparent" fill="#000000" transform="matrix(0.0833333 0 0 0.0833333 -262.542 -158)" d="M 6921.43,5354.16 L 6868.24,5446.27 L 6852.06,5434.3 L 6902.97,5346.13 L 6921.43,5354.16 Z " />
<path stroke="transparent" fill="#000000" transform="matrix(0.0833333 0 0 0.0833333 -262.542 -158)" d="M 6866.17,5330.13 L 6819.81,5410.44 L 6803.63,5398.47 L 6847.71,5322.1 L 6866.17,5330.13 Z " />
<path stroke="transparent" fill="#000000" transform="matrix(0.0833333 0 0 0.0833333 -262.542 -158)" d="M 6810.92,5306.1 L 6771.37,5374.6 L 6755.19,5362.63 L 6792.46,5298.08 L 6810.92,5306.1 Z " />
<path stroke="transparent" fill="#000000" transform="matrix(0.0833333 0 0 0.0833333 -262.542 -158)" d="M 6755.67,5282.08 L 6722.94,5338.77 L 6706.76,5326.79 L 6737.21,5274.05 L 6755.67,5282.08 Z " />
<path stroke="transparent" fill="#000000" transform="matrix(0.0833333 0 0 0.0833333 -262.542 -158)" d="M 6700.42,5258.05 L 6674.5,5302.93 L 6658.32,5290.96 L 6681.96,5250.02 L 6700.42,5258.05 Z " />
<path stroke="transparent" fill="#000000" transform="matrix(0.0833333 0 0 0.0833333 -262.542 -158)" d="M 6645.16,5234.02 L 6626.07,5267.09 L 6609.89,5255.12 L 6626.7,5225.99 L 6645.16,5234.02 Z " />
<path stroke="transparent" fill="#000000" transform="matrix(0.0833333 0 0 0.0833333 -262.542 -158)" d="M 6589.91,5209.99 L 6577.63,5231.26 L 6561.45,5219.28 L 6571.45,5201.96 L 6589.91,5209.99 Z " />
<path stroke="transparent" fill="#000000" transform="matrix(0.0833333 0 0 0.0833333 -262.542 -158)" d="M 6010.53,5489.12 L 6000.07,5483.61 L 6000.07,5472.06 L 6509.68,5177.85 L 6529.68,5189.39 L 6010.53,5489.12 Z " />
<path stroke="transparent" fill="#000000" transform="matrix(0.0833333 0 0 0.0833333 -262.542 -158)" d="M 6432.08,6321.47 L 6422.08,6338.79 L 5941.91,6061.57 L 6062.1,6107.86 L 6432.08,6321.47 Z " />
<path stroke="transparent" fill="#000000" transform="matrix(0.0833333 0 0 0.0833333 -262.542 -158)" d="M 6062.1,6107.86 L 5941.91,6061.57 L 5989.61,5489.12 L 6000.07,5483.61 L 6010.53,5489.12 L 6062.1,6107.86 Z " />
<path stroke="transparent" fill="#000000" transform="matrix(0.0833333 0 0 0.0833333 -262.542 -158)" d="M 5575.49,5250.02 L 5585.49,5232.7 L 6000.07,5472.06 L 6000.07,5483.61 L 5989.61,5489.12 L 5575.49,5250.02 Z " />
<path stroke="transparent" fill="#000000" transform="matrix(0.0833333 0 0 0.0833333 -262.542 -158)" d="M 5490.45,5078.44 L 5470.45,5078.44 L 5470.44,4590.04 L 5480.44,4583.62 L 5490.44,4589.39 L 5490.45,5078.44 Z " />
<path stroke="transparent" fill="#000000" transform="matrix(0.0833333 0 0 0.0833333 -262.542 -158)" d="M 5030.86,4393.33 L 5090.86,4289.41 L 5481,4571.75 L 5480.44,4583.62 L 5470.44,4590.04 L 5030.86,4393.33 Z " />
<path stroke="transparent" fill="#000000" transform="matrix(0.0833333 0 0 0.0833333 -262.542 -158)" d="M 5020.82,4178.45 L 4900.82,4178.45 L 4950.26,3689.08 L 4960.81,3683.62 L 4971.37,3689.08 L 5020.82,4178.45 Z " />
<path stroke="transparent" fill="#000000" transform="matrix(0.0833333 0 0 0.0833333 -262.542 -158)" d="M 5375.84,3432.45 L 5385.84,3449.77 L 4971.37,3689.08 L 4960.81,3683.62 L 4960.81,3672.08 L 5375.84,3432.45 Z " />
<path stroke="transparent" fill="#000000" transform="matrix(0.0833333 0 0 0.0833333 -262.542 -158)" d="M 5490.44,3278.43 L 5470.44,3278.43 L 5470.44,2789.38 L 5490.44,2777.84 L 5490.44,3278.43 Z " />
<path stroke="transparent" fill="#000000" transform="matrix(0.0833333 0 0 0.0833333 -262.542 -158)" d="M 5490.44,2777.84 L 5470.44,2789.38 L 4960.82,2495.15 L 4960.82,2472.06 L 5490.44,2777.84 Z " />
<path stroke="transparent" fill="#000000" transform="matrix(0.0833333 0 0 0.0833333 -262.542 -158)" d="M 5413.44,2816.52 L 5403.44,2833.84 L 4955.82,2575.41 L 4965.82,2558.09 L 5413.44,2816.52 Z " />
<path stroke="transparent" fill="#000000" transform="matrix(0.0833333 0 0 0.0833333 -262.542 -158)" d="M 4960.82,2472.06 L 4960.82,2495.15 L 4451.21,2789.37 L 4441.21,2783.6 L 4453.13,2765.17 L 4960.82,2472.06 Z " />
<path stroke="transparent" fill="#000000" transform="matrix(0.0833333 0 0 0.0833333 -262.542 -158)" d="M 4381.21,2303.43 L 4501.21,2303.43 L 4453.13,2765.17 L 4441.21,2783.6 L 4429.73,2769.35 L 4381.21,2303.43 Z " />
<path stroke="transparent" fill="#000000" transform="matrix(0.0833333 0 0 0.0833333 -262.542 -158)" d="M 3874.39,2609.96 L 3870.57,2598.2 L 3879.09,2590.45 L 4429.73,2769.35 L 4441.21,2783.6 L 4431.21,2790.86 L 3874.39,2609.96 Z " />
<path stroke="transparent" fill="#000000" transform="matrix(0.0833333 0 0 0.0833333 -262.542 -158)" d="M 3665.79,2162.11 L 3779.92,2125.03 L 3879.09,2590.45 L 3870.57,2598.2 L 3859.13,2596.94 L 3665.79,2162.11 Z " />
<path stroke="transparent" fill="#000000" transform="matrix(0.0833333 0 0 0.0833333 -262.542 -158)" d="M 3530.25,3083.62 L 3505.53,3083.62 L 3859.13,2596.94 L 3870.57,2598.2 L 3874.39,2609.96 L 3530.25,3083.62 Z " />
<path stroke="transparent" fill="#000000" transform="matrix(0.0833333 0 0 0.0833333 -262.542 -158)" d="M 3505.53,3083.62 L 3530.25,3083.62 L 3874.38,3557.27 L 3870.56,3569.03 L 3856.64,3566.89 L 3505.53,3083.62 Z " />
<path stroke="transparent" fill="#000000" transform="matrix(0.0833333 0 0 0.0833333 -262.542 -158)" d="M 3544.4,3943.44 L 3464.11,3854.26 L 3856.64,3566.89 L 3870.56,3569.03 L 3864.83,3590.16 L 3544.4,3943.44 Z " />
<path stroke="transparent" fill="#000000" transform="matrix(0.0833333 0 0 0.0833333 -262.542 -158)" d="M 4005.09,4153.83 L 3985.53,4157.99 L 3864.83,3590.16 L 3870.56,3569.03 L 3882.21,3575.76 L 4005.09,4153.83 Z " />
<text x="0" y="0" stroke="transparent" fill="#000000" transform="matrix(0.0833333 0 0 0.0833333 101.558 180.469)" style="font:normal normal normal 200px 'Arial'" >
H</text>
<path stroke="transparent" fill="#000000" transform="matrix(0.0833333 0 0 0.0833333 -262.542 -158)" d="M 4501.2,3880.96 L 4381.2,3880.96 L 4429.77,3397.85 L 4441.2,3383.62 L 4453.05,3402.01 L 4501.2,3880.96 Z " />
</svg>
