<?xml version="1.0" standalone="no" ?>
<!DOCTYPE svg PUBLIC "-//W3C//DTD SVG 1.1//EN" "http://www.w3.org/Graphics/SVG/1.1/DTD/svg11.dtd">
<svg width="392px" height="283px" viewBox="0 0 392 283" style="background-color: #ffffff00" xmlns="http://www.w3.org/2000/svg" xmlns:xlink="http://www.w3.org/1999/xlink" version="1.1" >
<text x="0" y="0" stroke="transparent" fill="#000000" transform="matrix(0.0833333 0 0 0.0833333 374.142 60.404)" style="font:normal normal normal 200px 'Arial'" >
O</text>
<text x="0" y="0" stroke="transparent" fill="#000000" transform="matrix(0.0833333 0 0 0.0833333 287.541 60.7989)" style="font:normal normal normal 200px 'Arial'" >
O</text>
<text x="0" y="0" stroke="transparent" fill="#000000" transform="matrix(0.0833333 0 0 0.0833333 374.827 210.398)" style="font:normal normal normal 200px 'Arial'" >
O</text>
<text x="0" y="0" stroke="transparent" fill="#000000" transform="matrix(0.0833333 0 0 0.0833333 202.126 211.192)" style="font:normal normal normal 200px 'Arial'" >
N</text>
<text x="0" y="0" stroke="transparent" fill="#000000" transform="matrix(0.0833333 0 0 0.0833333 147.867 87.5317)" style="font:normal normal normal 200px 'Arial'" >
NH</text>
<path stroke="transparent" fill="#000000" transform="matrix(0.0833333 0 0 0.0833333 -240.208 -218)" d="M 7459.73,3157.64 L 7439.73,3157.73 L 7437.48,2662.88 L 7457.48,2662.79 L 7459.73,3157.64 Z " />
<path stroke="transparent" fill="#000000" transform="matrix(0.0833333 0 0 0.0833333 -240.208 -218)" d="M 6942.01,3570.94 L 6921.95,3559.48 L 7345.78,3312.2 L 7355.86,3329.47 L 6942.01,3570.94 Z " />
<path stroke="transparent" fill="#000000" transform="matrix(0.0833333 0 0 0.0833333 -240.208 -218)" d="M 6488.43,3364.8 L 6498.35,3347.43 L 6937.13,3598.09 L 6927.21,3615.46 L 6488.43,3364.8 Z " />
<path stroke="transparent" fill="#000000" transform="matrix(0.0833333 0 0 0.0833333 -240.208 -218)" d="M 6524.14,3302.28 L 6534.06,3284.91 L 6972.84,3535.58 L 6962.92,3552.94 L 6524.14,3302.28 Z " />
<path stroke="transparent" fill="#000000" transform="matrix(0.0833333 0 0 0.0833333 -240.208 -218)" d="M 6944.7,4159.37 L 6934.73,4165.19 L 6924.7,4159.46 L 6921.95,3559.48 L 6942.01,3570.94 L 6944.7,4159.37 Z " />
<path stroke="transparent" fill="#000000" transform="matrix(0.0833333 0 0 0.0833333 -240.208 -218)" d="M 7465.69,4456.99 L 7445.74,4468.63 L 6934.78,4176.74 L 6934.73,4165.19 L 6944.7,4159.37 L 7465.69,4456.99 Z " />
<path stroke="transparent" fill="#000000" transform="matrix(0.0833333 0 0 0.0833333 -240.208 -218)" d="M 7388.86,4496.02 L 7378.94,4513.39 L 6930.15,4257.01 L 6940.07,4239.64 L 7388.86,4496.02 Z " />
<path stroke="transparent" fill="#000000" transform="matrix(0.0833333 0 0 0.0833333 -240.208 -218)" d="M 7467.95,4957.56 L 7447.95,4957.65 L 7445.74,4468.63 L 7465.69,4456.99 L 7467.95,4957.56 Z " />
<path stroke="transparent" fill="#000000" transform="matrix(0.0833333 0 0 0.0833333 -240.208 -218)" d="M 6950.26,5370.88 L 6940.23,5365.15 L 6940.18,5353.6 L 7354.01,5112.13 L 7364.09,5129.4 L 6950.26,5370.88 Z " />
<path stroke="transparent" fill="#000000" transform="matrix(0.0833333 0 0 0.0833333 -240.208 -218)" d="M 6952.96,5965.12 L 6932.97,5965.21 L 6930.26,5370.97 L 6940.23,5365.15 L 6950.26,5370.88 L 6952.96,5965.12 Z " />
<path stroke="transparent" fill="#000000" transform="matrix(0.0833333 0 0 0.0833333 -240.208 -218)" d="M 6419.27,5079.06 L 6419.22,5067.51 L 6429.19,5061.69 L 6940.18,5353.6 L 6940.23,5365.15 L 6930.26,5370.97 L 6419.27,5079.06 Z " />
<path stroke="transparent" fill="#000000" transform="matrix(0.0833333 0 0 0.0833333 -240.208 -218)" d="M 5901.05,5381.47 L 5900.95,5358.38 L 6409.19,5061.78 L 6419.22,5067.51 L 6419.27,5079.06 L 5901.05,5381.47 Z " />
<path stroke="transparent" fill="#000000" transform="matrix(0.0833333 0 0 0.0833333 -240.208 -218)" d="M 5485.32,5143.98 L 5495.24,5126.61 L 5900.95,5358.38 L 5901.05,5381.47 L 5485.32,5143.98 Z " />
<path stroke="transparent" fill="#000000" transform="matrix(0.0833333 0 0 0.0833333 -240.208 -218)" d="M 4861.84,5386.21 L 4861.73,5363.12 L 5264.99,5127.84 L 5275.07,5145.11 L 4861.84,5386.21 Z " />
<path stroke="transparent" fill="#000000" transform="matrix(0.0833333 0 0 0.0833333 -240.208 -218)" d="M 4330.83,5082.86 L 4350.78,5071.22 L 4861.73,5363.12 L 4861.84,5386.21 L 4330.83,5082.86 Z " />
<path stroke="transparent" fill="#000000" transform="matrix(0.0833333 0 0 0.0833333 -240.208 -218)" d="M 4328.07,4481.56 L 4338.05,4477.06 L 4348.08,4482.79 L 4350.78,5071.22 L 4330.83,5082.86 L 4328.07,4481.56 Z " />
<path stroke="transparent" fill="#000000" transform="matrix(0.0833333 0 0 0.0833333 -240.208 -218)" d="M 4844.99,4169.69 L 4856.3,4174.67 L 4856.36,4186.21 L 4348.08,4482.79 L 4338.05,4477.06 L 4339.29,4464.76 L 4844.99,4169.69 Z " />
<path stroke="transparent" fill="#000000" transform="matrix(0.0833333 0 0 0.0833333 -240.208 -218)" d="M 4769.8,4130.2 L 4779.87,4147.48 L 4351.99,4397.14 L 4341.91,4379.87 L 4769.8,4130.2 Z " />
<path stroke="transparent" fill="#000000" transform="matrix(0.0833333 0 0 0.0833333 -240.208 -218)" d="M 4746.2,3715.06 L 4765.74,3710.81 L 4865.13,4168.19 L 4856.3,4174.67 L 4844.99,4169.69 L 4746.2,3715.06 Z " />
<path stroke="transparent" fill="#000000" transform="matrix(0.0833333 0 0 0.0833333 -240.208 -218)" d="M 4138.11,3539.05 L 4131.88,3528.37 L 4137.31,3518.87 L 4634.66,3568.86 L 4632.66,3588.76 L 4138.11,3539.05 Z " />
<path stroke="transparent" fill="#000000" transform="matrix(0.0833333 0 0 0.0833333 -240.208 -218)" d="M 3772.35,3055.16 L 3781.65,3034.02 L 4137.31,3518.87 L 4131.88,3528.37 L 4120.4,3529.63 L 3772.35,3055.16 Z " />
<path stroke="transparent" fill="#000000" transform="matrix(0.0833333 0 0 0.0833333 -240.208 -218)" d="M 3735.47,3126.61 L 3751.6,3114.78 L 4057.3,3531.53 L 4041.18,3543.36 L 3735.47,3126.61 Z " />
<path stroke="transparent" fill="#000000" transform="matrix(0.0833333 0 0 0.0833333 -240.208 -218)" d="M 3187.41,3119.36 L 3173.75,3100.74 L 3781.65,3034.02 L 3772.35,3055.16 L 3187.41,3119.36 Z " />
<path stroke="transparent" fill="#000000" transform="matrix(0.0833333 0 0 0.0833333 -240.208 -218)" d="M 2950.53,3658.03 L 2927.57,3660.55 L 3173.75,3100.74 L 3187.41,3119.36 L 2950.53,3658.03 Z " />
<path stroke="transparent" fill="#000000" transform="matrix(0.0833333 0 0 0.0833333 -240.208 -218)" d="M 3030.85,3654.25 L 3012.54,3646.2 L 3220.6,3173.06 L 3238.91,3181.11 L 3030.85,3654.25 Z " />
<path stroke="transparent" fill="#000000" transform="matrix(0.0833333 0 0 0.0833333 -240.208 -218)" d="M 3298.58,4132.51 L 3289.28,4153.65 L 2927.57,3660.55 L 2950.53,3658.03 L 3298.58,4132.51 Z " />
<path stroke="transparent" fill="#000000" transform="matrix(0.0833333 0 0 0.0833333 -240.208 -218)" d="M 3883.52,4068.31 L 3890.35,4077.62 L 3887.01,4088.05 L 3289.28,4153.65 L 3298.58,4132.51 L 3883.52,4068.31 Z " />
<path stroke="transparent" fill="#000000" transform="matrix(0.0833333 0 0 0.0833333 -240.208 -218)" d="M 3840.08,4000.65 L 3842.26,4020.53 L 3328.49,4076.91 L 3326.31,4057.03 L 3840.08,4000.65 Z " />
<path stroke="transparent" fill="#000000" transform="matrix(0.0833333 0 0 0.0833333 -240.208 -218)" d="M 3887.01,4088.05 L 3890.35,4077.62 L 3902.43,4075 L 4339.29,4464.76 L 4338.05,4477.06 L 4328.07,4481.56 L 3887.01,4088.05 Z " />
<path stroke="transparent" fill="#000000" transform="matrix(0.0833333 0 0 0.0833333 -240.208 -218)" d="M 3902.43,4075 L 3890.35,4077.62 L 3883.52,4068.31 L 4120.4,3529.63 L 4131.88,3528.37 L 4138.11,3539.05 L 3902.43,4075 Z " />
<path stroke="transparent" fill="#000000" transform="matrix(0.0833333 0 0 0.0833333 -240.208 -218)" d="M 5377.27,4460.76 L 5377.32,4472.31 L 5367.35,4478.13 L 4856.36,4186.21 L 4856.3,4174.67 L 4865.13,4168.19 L 5377.27,4460.76 Z " />
<path stroke="transparent" fill="#000000" transform="matrix(0.0833333 0 0 0.0833333 -240.208 -218)" d="M 5367.35,4478.13 L 5377.32,4472.31 L 5387.35,4478.04 L 5389.56,4969.59 L 5369.56,4969.68 L 5367.35,4478.13 Z " />
<path stroke="transparent" fill="#000000" transform="matrix(0.0833333 0 0 0.0833333 -240.208 -218)" d="M 5895.46,4158.38 L 5895.57,4181.48 L 5387.35,4478.04 L 5377.32,4472.31 L 5377.27,4460.76 L 5895.46,4158.38 Z " />
<path stroke="transparent" fill="#000000" transform="matrix(0.0833333 0 0 0.0833333 -240.208 -218)" d="M 6416.45,4456 L 6416.5,4467.55 L 6406.53,4473.37 L 5895.57,4181.48 L 5895.46,4158.38 L 6416.45,4456 Z " />
<path stroke="transparent" fill="#000000" transform="matrix(0.0833333 0 0 0.0833333 -240.208 -218)" d="M 6426.53,4473.28 L 6416.5,4467.55 L 6416.45,4456 L 6924.7,4159.46 L 6934.73,4165.19 L 6934.78,4176.74 L 6426.53,4473.28 Z " />
<path stroke="transparent" fill="#000000" transform="matrix(0.0833333 0 0 0.0833333 -240.208 -218)" d="M 6406.53,4473.37 L 6416.5,4467.55 L 6426.53,4473.28 L 6429.19,5061.69 L 6419.22,5067.51 L 6409.19,5061.78 L 6406.53,4473.37 Z " />
</svg>
