<?xml version="1.0" standalone="no" ?>
<!DOCTYPE svg PUBLIC "-//W3C//DTD SVG 1.1//EN" "http://www.w3.org/Graphics/SVG/1.1/DTD/svg11.dtd">
<svg width="466px" height="327px" viewBox="0 0 466 327" style="background-color: #ffffff00" xmlns="http://www.w3.org/2000/svg" xmlns:xlink="http://www.w3.org/1999/xlink" version="1.1" >
<text x="0" y="0" stroke="transparent" fill="#000000" transform="matrix(0.0833333 0 0 0.0833333 437.019 29.1889)" style="font:normal normal normal 200px 'Arial'" >
OH</text>
<text x="0" y="0" stroke="transparent" fill="#000000" transform="matrix(0.0833333 0 0 0.0833333 251.774 29.1882)" style="font:normal normal normal 200px 'Arial'" >
HO</text>
<text x="0" y="0" stroke="transparent" fill="#000000" transform="matrix(0.0833333 0 0 0.0833333 220.509 104.192)" style="font:normal normal normal 200px 'Arial'" >
O</text>
<text x="0" y="0" stroke="transparent" fill="#000000" transform="matrix(0.0833333 0 0 0.0833333 133.903 254.193)" style="font:normal normal normal 200px 'Arial'" >
OH</text>
<text x="0" y="0" stroke="transparent" fill="#000000" transform="matrix(0.0833333 0 0 0.0833333 220.507 254.192)" style="font:normal normal normal 200px 'Arial'" >
O</text>
<text x="0" y="0" stroke="transparent" fill="#000000" transform="matrix(0.0833333 0 0 0.0833333 47.2996 104.191)" style="font:normal normal normal 200px 'Arial'" >
O</text>
<path stroke="transparent" fill="#000000" transform="matrix(0.0833333 0 0 0.0833333 -161.25 -262)" d="M 6207.97,6422.09 L 6217.97,6416.31 L 6227.97,6422.09 L 6227.96,7016.31 L 6207.96,7016.31 L 6207.97,6422.09 Z " />
<path stroke="transparent" fill="#000000" transform="matrix(0.0833333 0 0 0.0833333 -161.25 -262)" d="M 6732.59,6107.65 L 6742.59,6124.97 L 6227.97,6422.09 L 6217.97,6416.31 L 6217.97,6404.77 L 6732.59,6107.65 Z " />
<path stroke="transparent" fill="#000000" transform="matrix(0.0833333 0 0 0.0833333 -161.25 -262)" d="M 5688.33,6122.06 L 5708.33,6110.51 L 6217.97,6404.77 L 6217.97,6416.31 L 6207.97,6422.09 L 5688.33,6122.06 Z " />
<path stroke="transparent" fill="#000000" transform="matrix(0.0833333 0 0 0.0833333 -161.25 -262)" d="M 5765.33,6083.37 L 5775.33,6066.05 L 6222.97,6324.51 L 6212.97,6341.83 L 5765.33,6083.37 Z " />
<path stroke="transparent" fill="#000000" transform="matrix(0.0833333 0 0 0.0833333 -161.25 -262)" d="M 5688.34,5522.06 L 5708.34,5510.51 L 5708.33,6110.51 L 5688.33,6122.06 L 5688.34,5522.06 Z " />
<path stroke="transparent" fill="#000000" transform="matrix(0.0833333 0 0 0.0833333 -161.25 -262)" d="M 5178.72,5227.84 L 5178.72,5216.29 L 5188.72,5210.52 L 5708.34,5510.51 L 5688.34,5522.06 L 5178.72,5227.84 Z " />
<path stroke="transparent" fill="#000000" transform="matrix(0.0833333 0 0 0.0833333 -161.25 -262)" d="M 5168.72,4622.07 L 5178.72,4616.29 L 5188.72,4622.07 L 5188.72,5210.52 L 5178.72,5216.29 L 5168.72,5210.52 L 5168.72,4622.07 Z " />
<path stroke="transparent" fill="#000000" transform="matrix(0.0833333 0 0 0.0833333 -161.25 -262)" d="M 5096.72,4657.86 L 5116.72,4657.86 L 5116.72,5174.72 L 5096.72,5174.72 L 5096.72,4657.86 Z " />
<path stroke="transparent" fill="#000000" transform="matrix(0.0833333 0 0 0.0833333 -161.25 -262)" d="M 5688.35,4310.51 L 5698.35,4316.29 L 5698.35,4327.83 L 5188.72,4622.07 L 5178.72,4616.29 L 5178.72,4604.75 L 5688.35,4310.51 Z " />
<path stroke="transparent" fill="#000000" transform="matrix(0.0833333 0 0 0.0833333 -161.25 -262)" d="M 6217.97,4604.73 L 6217.97,4627.83 L 5698.35,4327.83 L 5698.35,4316.29 L 5708.35,4310.51 L 6217.97,4604.73 Z " />
<path stroke="transparent" fill="#000000" transform="matrix(0.0833333 0 0 0.0833333 -161.25 -262)" d="M 6222.97,4524.48 L 6212.97,4541.8 L 5765.35,4283.38 L 5775.35,4266.06 L 6222.97,4524.48 Z " />
<path stroke="transparent" fill="#000000" transform="matrix(0.0833333 0 0 0.0833333 -161.25 -262)" d="M 6727.6,4310.5 L 6747.6,4322.05 L 6217.97,4627.83 L 6217.97,4604.73 L 6727.6,4310.5 Z " />
<path stroke="transparent" fill="#000000" transform="matrix(0.0833333 0 0 0.0833333 -161.25 -262)" d="M 6727.6,3722.05 L 6737.6,3716.27 L 6747.6,3722.05 L 6747.6,4322.05 L 6727.6,4310.5 L 6727.6,3722.05 Z " />
<path stroke="transparent" fill="#000000" transform="matrix(0.0833333 0 0 0.0833333 -161.25 -262)" d="M 6655.6,3757.84 L 6675.6,3757.84 L 6675.6,4274.7 L 6655.6,4274.7 L 6655.6,3757.84 Z " />
<path stroke="transparent" fill="#000000" transform="matrix(0.0833333 0 0 0.0833333 -161.25 -262)" d="M 7152.63,3465.11 L 7162.63,3482.43 L 6747.6,3722.05 L 6737.6,3716.27 L 6737.6,3704.73 L 7152.63,3465.11 Z " />
<path stroke="transparent" fill="#000000" transform="matrix(0.0833333 0 0 0.0833333 -161.25 -262)" d="M 6217.98,3427.83 L 6217.98,3404.73 L 6737.6,3704.73 L 6737.6,3716.27 L 6727.6,3722.05 L 6217.98,3427.83 Z " />
<path stroke="transparent" fill="#000000" transform="matrix(0.0833333 0 0 0.0833333 -161.25 -262)" d="M 5708.36,3722.06 L 5698.36,3716.29 L 5698.36,3704.74 L 6217.98,3404.73 L 6217.98,3427.83 L 5708.36,3722.06 Z " />
<path stroke="transparent" fill="#000000" transform="matrix(0.0833333 0 0 0.0833333 -161.25 -262)" d="M 5775.36,3766.52 L 5765.36,3749.2 L 6212.99,3490.76 L 6222.99,3508.08 L 5775.36,3766.52 Z " />
<path stroke="transparent" fill="#000000" transform="matrix(0.0833333 0 0 0.0833333 -161.25 -262)" d="M 5688.36,3722.06 L 5698.36,3716.29 L 5708.36,3722.06 L 5708.35,4310.51 L 5698.35,4316.29 L 5688.35,4310.51 L 5688.36,3722.06 Z " />
<path stroke="transparent" fill="#000000" transform="matrix(0.0833333 0 0 0.0833333 -161.25 -262)" d="M 5273.75,3482.67 L 5283.75,3465.35 L 5698.36,3704.74 L 5698.36,3716.29 L 5688.36,3722.06 L 5273.75,3482.67 Z " />
<path stroke="transparent" fill="#000000" transform="matrix(0.0833333 0 0 0.0833333 -161.25 -262)" d="M 4754.14,4382.71 L 4764.14,4365.39 L 5178.72,4604.75 L 5178.72,4616.29 L 5168.72,4622.07 L 4754.14,4382.71 Z " />
<path stroke="transparent" fill="#000000" transform="matrix(0.0833333 0 0 0.0833333 -161.25 -262)" d="M 4149.48,4622.08 L 4139.48,4616.31 L 4139.48,4604.76 L 4554.5,4365.14 L 4564.5,4382.47 L 4149.48,4622.08 Z " />
<path stroke="transparent" fill="#000000" transform="matrix(0.0833333 0 0 0.0833333 -161.25 -262)" d="M 3619.84,4327.82 L 3619.84,4316.28 L 3629.84,4310.5 L 4139.48,4604.76 L 4139.48,4616.31 L 4129.48,4622.08 L 3619.84,4327.82 Z " />
<path stroke="transparent" fill="#000000" transform="matrix(0.0833333 0 0 0.0833333 -161.25 -262)" d="M 3614.84,4408.08 L 3624.84,4390.76 L 4072.47,4649.22 L 4062.47,4666.54 L 3614.84,4408.08 Z " />
<path stroke="transparent" fill="#000000" transform="matrix(0.0833333 0 0 0.0833333 -161.25 -262)" d="M 3110.21,4622.06 L 3100.21,4616.28 L 3100.21,4604.74 L 3609.84,4310.5 L 3619.84,4316.28 L 3619.84,4327.82 L 3110.21,4622.06 Z " />
<path stroke="transparent" fill="#000000" transform="matrix(0.0833333 0 0 0.0833333 -161.25 -262)" d="M 3110.23,5210.54 L 3090.23,5222.09 L 3090.21,4622.06 L 3100.21,4616.28 L 3110.21,4622.06 L 3110.23,5210.54 Z " />
<path stroke="transparent" fill="#000000" transform="matrix(0.0833333 0 0 0.0833333 -161.25 -262)" d="M 3182.23,5174.75 L 3162.23,5174.75 L 3162.22,4657.86 L 3182.22,4657.85 L 3182.23,5174.75 Z " />
<path stroke="transparent" fill="#000000" transform="matrix(0.0833333 0 0 0.0833333 -161.25 -262)" d="M 3619.84,5504.76 L 3619.85,5516.31 L 3609.84,5522.09 L 3090.23,5222.09 L 3110.23,5210.54 L 3619.84,5504.76 Z " />
<path stroke="transparent" fill="#000000" transform="matrix(0.0833333 0 0 0.0833333 -161.25 -262)" d="M 3629.84,6011.14 L 3609.84,6011.14 L 3609.84,5522.09 L 3619.85,5516.31 L 3629.84,5522.09 L 3629.84,6011.14 Z " />
<path stroke="transparent" fill="#000000" transform="matrix(0.0833333 0 0 0.0833333 -161.25 -262)" d="M 4129.47,5210.53 L 4139.47,5216.31 L 4139.47,5227.85 L 3629.84,5522.09 L 3619.85,5516.31 L 3619.84,5504.76 L 4129.47,5210.53 Z " />
<path stroke="transparent" fill="#000000" transform="matrix(0.0833333 0 0 0.0833333 -161.25 -262)" d="M 4062.47,5166.07 L 4072.47,5183.4 L 3624.84,5441.83 L 3614.84,5424.51 L 4062.47,5166.07 Z " />
<path stroke="transparent" fill="#000000" transform="matrix(0.0833333 0 0 0.0833333 -161.25 -262)" d="M 4149.47,5210.53 L 4139.47,5216.31 L 4129.47,5210.53 L 4129.48,4622.08 L 4139.48,4616.31 L 4149.48,4622.08 L 4149.47,5210.53 Z " />
<path stroke="transparent" fill="#000000" transform="matrix(0.0833333 0 0 0.0833333 -161.25 -262)" d="M 4659.09,5504.75 L 4659.09,5527.85 L 4139.47,5227.85 L 4139.47,5216.31 L 4149.47,5210.53 L 4659.09,5504.75 Z " />
<path stroke="transparent" fill="#000000" transform="matrix(0.0833333 0 0 0.0833333 -161.25 -262)" d="M 4659.09,5527.85 L 4659.09,5504.75 L 5168.72,5210.52 L 5178.72,5216.29 L 5178.72,5227.84 L 4659.09,5527.85 Z " />
<path stroke="transparent" fill="#000000" transform="matrix(0.0833333 0 0 0.0833333 -161.25 -262)" d="M 4705.08,6011.13 L 4685.08,6011.13 L 4685.09,5495.51 L 4705.09,5495.51 L 4705.08,6011.13 Z " />
<path stroke="transparent" fill="#000000" transform="matrix(0.0833333 0 0 0.0833333 -161.25 -262)" d="M 4633.08,6011.13 L 4613.08,6011.13 L 4613.09,5495.51 L 4633.09,5495.51 L 4633.08,6011.13 Z " />
<path stroke="transparent" fill="#000000" transform="matrix(0.0833333 0 0 0.0833333 -161.25 -262)" d="M 2675.63,4382.71 L 2685.63,4365.39 L 3100.21,4604.74 L 3100.21,4616.28 L 3090.21,4622.06 L 2675.63,4382.71 Z " />
<path stroke="transparent" fill="#000000" transform="matrix(0.0833333 0 0 0.0833333 -161.25 -262)" d="M 2570.6,3726.29 L 2580.6,3716.29 L 2590.6,3722.06 L 2590.6,4211.12 L 2570.6,4211.12 L 2570.6,3726.29 Z " />
<path stroke="transparent" fill="#000000" transform="matrix(0.0833333 0 0 0.0833333 -161.25 -262)" d="M 2271.97,3201.64 L 2289.29,3191.64 L 2584.26,3702.63 L 2580.6,3716.29 L 2563.28,3706.29 L 2271.97,3201.64 Z " />
<path stroke="transparent" fill="#000000" transform="matrix(0.0833333 0 0 0.0833333 -161.25 -262)" d="M 1980.6,3726.28 L 1980.6,3706.28 L 2563.28,3706.29 L 2580.6,3716.29 L 2570.6,3726.29 L 1980.6,3726.28 Z " />
<path stroke="transparent" fill="#000000" transform="matrix(0.0833333 0 0 0.0833333 -161.25 -262)" d="M 3100.23,3404.74 L 3100.23,3427.83 L 2590.6,3722.06 L 2580.6,3716.29 L 2584.26,3702.63 L 3100.23,3404.74 Z " />
<path stroke="transparent" fill="#000000" transform="matrix(0.0833333 0 0 0.0833333 -161.25 -262)" d="M 3629.85,3710.5 L 3609.85,3722.05 L 3100.23,3427.83 L 3100.23,3404.74 L 3629.85,3710.5 Z " />
<path stroke="transparent" fill="#000000" transform="matrix(0.0833333 0 0 0.0833333 -161.25 -262)" d="M 3552.85,3749.19 L 3542.85,3766.51 L 3095.23,3508.08 L 3105.23,3490.76 L 3552.85,3749.19 Z " />
<path stroke="transparent" fill="#000000" transform="matrix(0.0833333 0 0 0.0833333 -161.25 -262)" d="M 3609.85,3722.05 L 3629.85,3710.5 L 3629.84,4310.5 L 3619.84,4316.28 L 3609.84,4310.5 L 3609.85,3722.05 Z " />
</svg>
