<?xml version="1.0" standalone="no" ?>
<!DOCTYPE svg PUBLIC "-//W3C//DTD SVG 1.1//EN" "http://www.w3.org/Graphics/SVG/1.1/DTD/svg11.dtd">
<svg width="284px" height="133px" viewBox="0 0 284 133" style="background-color: #ffffff00" xmlns="http://www.w3.org/2000/svg" xmlns:xlink="http://www.w3.org/1999/xlink" version="1.1" >
<text x="0" y="0" stroke="transparent" fill="#000000" transform="matrix(0.0666667 0 0 0.0666667 102.105 14.3558)" style="font:normal normal normal 200px 'Arial'" >
O</text>
<path stroke="transparent" fill="#000000" transform="matrix(0.0666667 0 0 0.0666667 -206.853 -327)" d="M 5232,5930.76 L 5232,5953.86 L 4712.38,5653.87 L 4712.38,5630.77 L 5232,5930.76 Z " />
<path stroke="transparent" fill="#000000" transform="matrix(0.0666667 0 0 0.0666667 -206.853 -327)" d="M 5709.63,5571.96 L 5721.62,5587.97 L 5232.71,5954.27 L 5231.28,5930.35 L 5709.63,5571.96 Z " />
<path stroke="transparent" fill="#000000" transform="matrix(0.0666667 0 0 0.0666667 -206.853 -327)" d="M 5752.67,5631.38 L 5750.57,5653.26 L 5238,5867.17 L 5226,5851.17 L 5752.67,5631.38 Z " />
<path stroke="transparent" fill="#000000" transform="matrix(0.0666667 0 0 0.0666667 -206.853 -327)" d="M 4666.38,5162.17 L 4686.38,5162.17 L 4686.38,5663.1 L 4666.38,5663.1 L 4666.38,5162.17 Z " />
<path stroke="transparent" fill="#000000" transform="matrix(0.0666667 0 0 0.0666667 -206.853 -327)" d="M 4738.38,5162.17 L 4758.38,5162.17 L 4758.38,5663.1 L 4738.38,5663.1 L 4738.38,5162.17 Z " />
<path stroke="transparent" fill="#000000" transform="matrix(0.0666667 0 0 0.0666667 -206.853 -327)" d="M 6790.79,5630.77 L 6790.79,5653.87 L 6281.17,5948.08 L 6271.17,5942.31 L 6271.17,5930.76 L 6790.79,5630.77 Z " />
<path stroke="transparent" fill="#000000" transform="matrix(0.0666667 0 0 0.0666667 -206.853 -327)" d="M 7320.41,5936.54 L 7300.41,5948.08 L 6790.79,5653.87 L 6790.79,5630.77 L 7320.41,5936.54 Z " />
<path stroke="transparent" fill="#000000" transform="matrix(0.0666667 0 0 0.0666667 -206.853 -327)" d="M 7243.41,5975.22 L 7233.41,5992.54 L 6785.79,5734.12 L 6795.79,5716.8 L 7243.41,5975.22 Z " />
<path stroke="transparent" fill="#000000" transform="matrix(0.0666667 0 0 0.0666667 -206.853 -327)" d="M 7320.41,6548.07 L 7300.41,6536.52 L 7300.41,5948.08 L 7320.41,5936.54 L 7320.41,6548.07 Z " />
<path stroke="transparent" fill="#000000" transform="matrix(0.0666667 0 0 0.0666667 -206.853 -327)" d="M 6790.79,6853.83 L 6790.79,6830.74 L 7300.41,6536.52 L 7320.41,6548.07 L 6790.79,6853.83 Z " />
<path stroke="transparent" fill="#000000" transform="matrix(0.0666667 0 0 0.0666667 -206.853 -327)" d="M 6795.79,6767.81 L 6785.79,6750.48 L 7233.41,6492.06 L 7243.41,6509.38 L 6795.79,6767.81 Z " />
<path stroke="transparent" fill="#000000" transform="matrix(0.0666667 0 0 0.0666667 -206.853 -327)" d="M 6261.17,6548.07 L 6281.17,6536.52 L 6790.79,6830.74 L 6790.79,6853.83 L 6261.17,6548.07 Z " />
<path stroke="transparent" fill="#000000" transform="matrix(0.0666667 0 0 0.0666667 -206.853 -327)" d="M 6281.17,6536.52 L 6261.17,6548.07 L 6261.17,5948.08 L 6271.17,5942.31 L 6281.17,5948.08 L 6281.17,6536.52 Z " />
<path stroke="transparent" fill="#000000" transform="matrix(0.0666667 0 0 0.0666667 -206.853 -327)" d="M 6353.17,6500.72 L 6333.17,6500.72 L 6333.17,5983.88 L 6353.17,5983.88 L 6353.17,6500.72 Z " />
<path stroke="transparent" fill="#000000" transform="matrix(0.0666667 0 0 0.0666667 -206.853 -327)" d="M 6271.17,5930.76 L 6271.17,5942.31 L 6261.17,5948.08 L 5751.62,5653.87 L 5751.62,5630.77 L 6271.17,5930.76 Z " />
<path stroke="transparent" fill="#000000" transform="matrix(0.0666667 0 0 0.0666667 -206.853 -327)" d="M 4202.83,6548.07 L 4182.83,6536.52 L 4182.83,5948.08 L 4192.83,5942.31 L 4202.83,5948.08 L 4202.83,6548.07 Z " />
<path stroke="transparent" fill="#000000" transform="matrix(0.0666667 0 0 0.0666667 -206.853 -327)" d="M 3673.21,6853.83 L 3673.21,6830.74 L 4182.83,6536.52 L 4202.83,6548.07 L 3673.21,6853.83 Z " />
<path stroke="transparent" fill="#000000" transform="matrix(0.0666667 0 0 0.0666667 -206.853 -327)" d="M 3678.21,6767.81 L 3668.21,6750.48 L 4115.83,6492.06 L 4125.83,6509.38 L 3678.21,6767.81 Z " />
<path stroke="transparent" fill="#000000" transform="matrix(0.0666667 0 0 0.0666667 -206.853 -327)" d="M 3143.59,6548.07 L 3163.59,6536.52 L 3673.21,6830.74 L 3673.21,6853.83 L 3143.59,6548.07 Z " />
<path stroke="transparent" fill="#000000" transform="matrix(0.0666667 0 0 0.0666667 -206.853 -327)" d="M 3143.59,5936.54 L 3163.59,5948.08 L 3163.59,6536.52 L 3143.59,6548.07 L 3143.59,5936.54 Z " />
<path stroke="transparent" fill="#000000" transform="matrix(0.0666667 0 0 0.0666667 -206.853 -327)" d="M 3215.59,5983.88 L 3235.59,5983.88 L 3235.59,6500.72 L 3215.59,6500.72 L 3215.59,5983.88 Z " />
<path stroke="transparent" fill="#000000" transform="matrix(0.0666667 0 0 0.0666667 -206.853 -327)" d="M 3673.21,5630.77 L 3673.21,5653.87 L 3163.59,5948.08 L 3143.59,5936.54 L 3673.21,5630.77 Z " />
<path stroke="transparent" fill="#000000" transform="matrix(0.0666667 0 0 0.0666667 -206.853 -327)" d="M 3673.21,5653.87 L 3673.21,5630.77 L 4192.83,5930.76 L 4192.83,5942.31 L 4182.83,5948.08 L 3673.21,5653.87 Z " />
<path stroke="transparent" fill="#000000" transform="matrix(0.0666667 0 0 0.0666667 -206.853 -327)" d="M 3668.21,5734.12 L 3678.21,5716.8 L 4125.83,5975.22 L 4115.83,5992.54 L 3668.21,5734.12 Z " />
<path stroke="transparent" fill="#000000" transform="matrix(0.0666667 0 0 0.0666667 -206.853 -327)" d="M 4202.83,5948.08 L 4192.83,5942.31 L 4192.83,5930.76 L 4712.38,5630.77 L 4712.38,5653.87 L 4202.83,5948.08 Z " />
</svg>
