<?xml version="1.0" standalone="no" ?>
<!DOCTYPE svg PUBLIC "-//W3C//DTD SVG 1.1//EN" "http://www.w3.org/Graphics/SVG/1.1/DTD/svg11.dtd">
<svg width="694px" height="390px" viewBox="0 0 694 390" style="background-color: #ffffff00" xmlns="http://www.w3.org/2000/svg" xmlns:xlink="http://www.w3.org/1999/xlink" version="1.1" >
<text x="0" y="0" stroke="transparent" fill="#000000" transform="matrix(0.0833333 0 0 0.0833333 145.394 385.75)" style="font:normal normal normal 200px 'Arial'" >
O</text>
<text x="0" y="0" stroke="transparent" fill="#000000" transform="matrix(0.0833333 0 0 0.0833333 46.7556 385.75)" style="font:normal normal normal 200px 'Arial'" >
HO</text>
<text x="0" y="0" stroke="transparent" fill="#000000" transform="matrix(0.0833333 0 0 0.0833333 3.45434 310.75)" style="font:normal normal normal 200px 'Arial'" >
HO</text>
<text x="0" y="0" stroke="transparent" fill="#000000" transform="matrix(0.0833333 0 0 0.0833333 256.563 85.75)" style="font:normal normal normal 200px 'Arial'" >
HO</text>
<text x="0" y="0" stroke="transparent" fill="#000000" transform="matrix(0.0833333 0 0 0.0833333 405.202 235.75)" style="font:normal normal normal 200px 'Arial'" >
O</text>
<text x="0" y="0" stroke="transparent" fill="#000000" transform="matrix(0.0833333 0 0 0.0833333 448.503 160.75)" style="font:normal normal normal 200px 'Arial'" >
O</text>
<text x="0" y="0" stroke="transparent" fill="#000000" transform="matrix(0.0833333 0 0 0.0833333 535.106 160.75)" style="font:normal normal normal 200px 'Arial'" >
O</text>
<text x="0" y="0" stroke="transparent" fill="#000000" transform="matrix(0.0833333 0 0 0.0833333 665.01 185.75)" style="font:normal normal normal 200px 'Arial'" >
OH</text>
<text x="0" y="0" stroke="transparent" fill="#000000" transform="matrix(0.0833333 0 0 0.0833333 621.708 260.75)" style="font:normal normal normal 200px 'Arial'" >
OH</text>
<text x="0" y="0" stroke="transparent" fill="#000000" transform="matrix(0.0833333 0 0 0.0833333 535.106 310.75)" style="font:normal normal normal 200px 'Arial'" >
OH</text>
<text x="0" y="0" stroke="transparent" fill="#000000" transform="matrix(0.0833333 0 0 0.0833333 436.467 260.75)" style="font:normal normal normal 200px 'Arial'" >
HO</text>
<path stroke="transparent" fill="#000000" transform="matrix(0.0833333 0 0 0.0833333 -109.25 -340.917)" d="M 5741.81,4688 L 5721.81,4688 L 5719.98,4668 L 5743.64,4668 L 5741.81,4688 Z " />
<path stroke="transparent" fill="#000000" transform="matrix(0.0833333 0 0 0.0833333 -109.25 -340.917)" d="M 5747.16,4629.56 L 5716.46,4629.56 L 5714.62,4609.56 L 5748.99,4609.56 L 5747.16,4629.56 Z " />
<path stroke="transparent" fill="#000000" transform="matrix(0.0833333 0 0 0.0833333 -109.25 -340.917)" d="M 5752.51,4571.11 L 5711.1,4571.11 L 5709.27,4551.11 L 5754.34,4551.11 L 5752.51,4571.11 Z " />
<path stroke="transparent" fill="#000000" transform="matrix(0.0833333 0 0 0.0833333 -109.25 -340.917)" d="M 5757.86,4512.67 L 5705.75,4512.67 L 5703.92,4492.67 L 5759.7,4492.67 L 5757.86,4512.67 Z " />
<path stroke="transparent" fill="#000000" transform="matrix(0.0833333 0 0 0.0833333 -109.25 -340.917)" d="M 5763.22,4454.22 L 5700.4,4454.22 L 5698.57,4434.22 L 5765.05,4434.22 L 5763.22,4454.22 Z " />
<path stroke="transparent" fill="#000000" transform="matrix(0.0833333 0 0 0.0833333 -109.25 -340.917)" d="M 5768.57,4395.78 L 5695.05,4395.78 L 5693.22,4375.78 L 5770.4,4375.78 L 5768.57,4395.78 Z " />
<path stroke="transparent" fill="#000000" transform="matrix(0.0833333 0 0 0.0833333 -109.25 -340.917)" d="M 5773.92,4337.33 L 5689.7,4337.33 L 5687.86,4317.33 L 5775.75,4317.33 L 5773.92,4337.33 Z " />
<path stroke="transparent" fill="#000000" transform="matrix(0.0833333 0 0 0.0833333 -109.25 -340.917)" d="M 5779.27,4278.89 L 5684.34,4278.89 L 5682.51,4258.89 L 5781.1,4258.89 L 5779.27,4278.89 Z " />
<path stroke="transparent" fill="#000000" transform="matrix(0.0833333 0 0 0.0833333 -109.25 -340.917)" d="M 5784.62,4220.44 L 5678.99,4220.44 L 5677.16,4200.44 L 5786.46,4200.44 L 5784.62,4220.44 Z " />
<path stroke="transparent" fill="#000000" transform="matrix(0.0833333 0 0 0.0833333 -109.25 -340.917)" d="M 5789.98,4162 L 5673.64,4162 L 5671.81,4142 L 5791.81,4142 L 5789.98,4162 Z " />
<path stroke="transparent" fill="#000000" transform="matrix(0.0833333 0 0 0.0833333 -109.25 -340.917)" d="M 6261.42,5036.23 L 6241.42,5047.77 L 5731.81,4753.55 L 5731.81,4730.45 L 6261.42,5036.23 Z " />
<path stroke="transparent" fill="#000000" transform="matrix(0.0833333 0 0 0.0833333 -109.25 -340.917)" d="M 6261.42,5647.77 L 6241.42,5636.23 L 6241.42,5047.77 L 6261.42,5036.23 L 6261.42,5647.77 Z " />
<path stroke="transparent" fill="#000000" transform="matrix(0.0833333 0 0 0.0833333 -109.25 -340.917)" d="M 5753.32,5941.12 L 5731.81,5942 L 5731.81,5930.45 L 6241.42,5636.23 L 6261.42,5647.77 L 5753.32,5941.12 Z " />
<path stroke="transparent" fill="#000000" transform="matrix(0.0833333 0 0 0.0833333 -109.25 -340.917)" d="M 5741.81,6547.77 L 5721.81,6536.23 L 5721.81,5947.77 L 5731.81,5942 L 5741.81,5961.07 L 5741.81,6547.77 Z " />
<path stroke="transparent" fill="#000000" transform="matrix(0.0833333 0 0 0.0833333 -109.25 -340.917)" d="M 5212.19,6853.55 L 5212.19,6830.45 L 5721.81,6536.23 L 5741.81,6547.77 L 5212.19,6853.55 Z " />
<path stroke="transparent" fill="#000000" transform="matrix(0.0833333 0 0 0.0833333 -109.25 -340.917)" d="M 4692.58,6553.55 L 4692.58,6542 L 4702.58,6536.23 L 5212.19,6830.45 L 5212.19,6853.55 L 4692.58,6553.55 Z " />
<path stroke="transparent" fill="#000000" transform="matrix(0.0833333 0 0 0.0833333 -109.25 -340.917)" d="M 4682.58,5947.77 L 4702.58,5936.23 L 4702.58,6536.23 L 4692.58,6542 L 4682.58,6536.23 L 4682.58,5947.77 Z " />
<path stroke="transparent" fill="#000000" transform="matrix(0.0833333 0 0 0.0833333 -109.25 -340.917)" d="M 4172.96,5653.55 L 4172.96,5630.45 L 4702.58,5936.23 L 4682.58,5947.77 L 4172.96,5653.55 Z " />
<path stroke="transparent" fill="#000000" transform="matrix(0.0833333 0 0 0.0833333 -109.25 -340.917)" d="M 4167.96,5733.8 L 4177.96,5716.48 L 4625.58,5974.91 L 4615.58,5992.23 L 4167.96,5733.8 Z " />
<path stroke="transparent" fill="#000000" transform="matrix(0.0833333 0 0 0.0833333 -109.25 -340.917)" d="M 3715.37,5917.74 L 3595.18,5964.03 L 4172.96,5630.45 L 4172.96,5653.55 L 3715.37,5917.74 Z " />
<path stroke="transparent" fill="#000000" transform="matrix(0.0833333 0 0 0.0833333 -109.25 -340.917)" d="M 3663.81,6536.49 L 3653.35,6542 L 3642.89,6536.49 L 3595.18,5964.03 L 3715.37,5917.74 L 3663.81,6536.49 Z " />
<path stroke="transparent" fill="#000000" transform="matrix(0.0833333 0 0 0.0833333 -109.25 -340.917)" d="M 4161.45,6823.8 L 4172.96,6842 L 4162.96,6847.77 L 3653.35,6553.55 L 3653.35,6542 L 3663.81,6536.49 L 4161.45,6823.8 Z " />
<path stroke="transparent" fill="#000000" transform="matrix(0.0833333 0 0 0.0833333 -109.25 -340.917)" d="M 4182.96,6847.77 L 4172.96,6842 L 4184.48,6823.8 L 4682.58,6536.23 L 4692.58,6542 L 4692.58,6553.55 L 4182.96,6847.77 Z " />
<path stroke="transparent" fill="#000000" transform="matrix(0.0833333 0 0 0.0833333 -109.25 -340.917)" d="M 4182.96,7447.77 L 4162.96,7436.23 L 4162.96,6847.77 L 4172.96,6842 L 4182.96,6847.77 L 4182.96,7447.77 Z " />
<path stroke="transparent" fill="#000000" transform="matrix(0.0833333 0 0 0.0833333 -109.25 -340.917)" d="M 3605.18,7781.35 L 3705.37,7700.42 L 4162.96,7436.23 L 4182.96,7447.77 L 3605.18,7781.35 Z " />
<path stroke="transparent" fill="#000000" transform="matrix(0.0833333 0 0 0.0833333 -109.25 -340.917)" d="M 3133.27,7453.81 L 3133.73,7442 L 3143.73,7435.7 L 3705.37,7700.42 L 3605.18,7781.35 L 3133.27,7453.81 Z " />
<path stroke="transparent" fill="#000000" transform="matrix(0.0833333 0 0 0.0833333 -109.25 -340.917)" d="M 3123.73,6847.77 L 3133.73,6842 L 3143.73,6847.77 L 3143.73,7435.7 L 3133.73,7442 L 3123.73,7436.23 L 3123.73,6847.77 Z " />
<path stroke="transparent" fill="#000000" transform="matrix(0.0833333 0 0 0.0833333 -109.25 -340.917)" d="M 3143.73,6847.77 L 3133.73,6842 L 3145.25,6823.8 L 3642.89,6536.49 L 3653.35,6542 L 3653.35,6553.55 L 3143.73,6847.77 Z " />
<path stroke="transparent" fill="#000000" transform="matrix(0.0833333 0 0 0.0833333 -109.25 -340.917)" d="M 2614.12,6553.55 L 2614.12,6530.45 L 3122.22,6823.8 L 3133.73,6842 L 3123.73,6847.77 L 2614.12,6553.55 Z " />
<path stroke="transparent" fill="#000000" transform="matrix(0.0833333 0 0 0.0833333 -109.25 -340.917)" d="M 2104.5,6847.77 L 2084.5,6836.23 L 2614.12,6530.45 L 2614.12,6553.55 L 2104.5,6847.77 Z " />
<path stroke="transparent" fill="#000000" transform="matrix(0.0833333 0 0 0.0833333 -109.25 -340.917)" d="M 2104.5,7436.23 L 2094.5,7442 L 2084.5,7435.59 L 2084.5,6836.23 L 2104.5,6847.77 L 2104.5,7436.23 Z " />
<path stroke="transparent" fill="#000000" transform="matrix(0.0833333 0 0 0.0833333 -109.25 -340.917)" d="M 2614.12,7730.45 L 2614.12,7742 L 2604.12,7747.77 L 2095.05,7453.87 L 2094.5,7442 L 2104.5,7436.23 L 2614.12,7730.45 Z " />
<path stroke="transparent" fill="#000000" transform="matrix(0.0833333 0 0 0.0833333 -109.25 -340.917)" d="M 2624.12,7747.77 L 2614.12,7742 L 2614.12,7730.45 L 3123.73,7436.23 L 3133.73,7442 L 3133.27,7453.81 L 2624.12,7747.77 Z " />
<path stroke="transparent" fill="#000000" transform="matrix(0.0833333 0 0 0.0833333 -109.25 -340.917)" d="M 3163.73,7990.04 L 3103.73,8093.96 L 3087.33,8082.38 L 3145.5,7981.62 L 3163.73,7990.04 Z " />
<path stroke="transparent" fill="#000000" transform="matrix(0.0833333 0 0 0.0833333 -109.25 -340.917)" d="M 3110.44,7965.45 L 3055.79,8060.1 L 3039.39,8048.52 L 3092.2,7957.04 L 3110.44,7965.45 Z " />
<path stroke="transparent" fill="#000000" transform="matrix(0.0833333 0 0 0.0833333 -109.25 -340.917)" d="M 3057.15,7940.86 L 3007.85,8026.25 L 2991.45,8014.66 L 3038.91,7932.45 L 3057.15,7940.86 Z " />
<path stroke="transparent" fill="#000000" transform="matrix(0.0833333 0 0 0.0833333 -109.25 -340.917)" d="M 3003.86,7916.28 L 2959.92,7992.39 L 2943.51,7980.8 L 2985.62,7907.86 L 3003.86,7916.28 Z " />
<path stroke="transparent" fill="#000000" transform="matrix(0.0833333 0 0 0.0833333 -109.25 -340.917)" d="M 2950.57,7891.69 L 2911.98,7958.53 L 2895.57,7946.95 L 2932.33,7883.28 L 2950.57,7891.69 Z " />
<path stroke="transparent" fill="#000000" transform="matrix(0.0833333 0 0 0.0833333 -109.25 -340.917)" d="M 2897.28,7867.1 L 2864.04,7924.68 L 2847.63,7913.09 L 2879.04,7858.69 L 2897.28,7867.1 Z " />
<path stroke="transparent" fill="#000000" transform="matrix(0.0833333 0 0 0.0833333 -109.25 -340.917)" d="M 2843.99,7842.52 L 2816.1,7890.82 L 2799.7,7879.23 L 2825.75,7834.1 L 2843.99,7842.52 Z " />
<path stroke="transparent" fill="#000000" transform="matrix(0.0833333 0 0 0.0833333 -109.25 -340.917)" d="M 2790.7,7817.93 L 2768.16,7856.96 L 2751.76,7845.37 L 2772.46,7809.51 L 2790.7,7817.93 Z " />
<path stroke="transparent" fill="#000000" transform="matrix(0.0833333 0 0 0.0833333 -109.25 -340.917)" d="M 2737.41,7793.34 L 2720.22,7823.1 L 2703.82,7811.52 L 2719.17,7784.93 L 2737.41,7793.34 Z " />
<path stroke="transparent" fill="#000000" transform="matrix(0.0833333 0 0 0.0833333 -109.25 -340.917)" d="M 2684.12,7768.75 L 2672.29,7789.25 L 2655.88,7777.66 L 2665.88,7760.34 L 2684.12,7768.75 Z " />
<path stroke="transparent" fill="#000000" transform="matrix(0.0833333 0 0 0.0833333 -109.25 -340.917)" d="M 2624.12,8347.77 L 2604.12,8336.23 L 2604.12,7747.77 L 2614.12,7742 L 2624.12,7747.77 L 2624.12,8347.77 Z " />
<path stroke="transparent" fill="#000000" transform="matrix(0.0833333 0 0 0.0833333 -109.25 -340.917)" d="M 3064.11,8548.69 L 3054.11,8566.01 L 2609.12,8309.09 L 2619.12,8291.77 L 3064.11,8548.69 Z " />
<path stroke="transparent" fill="#000000" transform="matrix(0.0833333 0 0 0.0833333 -109.25 -340.917)" d="M 3028.11,8611.04 L 3018.11,8628.36 L 2573.12,8371.44 L 2583.12,8354.12 L 3028.11,8611.04 Z " />
<path stroke="transparent" fill="#000000" transform="matrix(0.0833333 0 0 0.0833333 -109.25 -340.917)" d="M 2192.11,8597.19 L 2182.11,8579.87 L 2604.12,8336.23 L 2624.12,8347.77 L 2192.11,8597.19 Z " />
<path stroke="transparent" fill="#000000" transform="matrix(0.0833333 0 0 0.0833333 -109.25 -340.917)" d="M 1697.5,7740.49 L 1637.5,7636.57 L 2084.5,7435.59 L 2094.5,7442 L 2095.05,7453.87 L 1697.5,7740.49 Z " />
<path stroke="transparent" fill="#000000" transform="matrix(0.0833333 0 0 0.0833333 -109.25 -340.917)" d="M 3073.73,6242 L 3193.73,6242 L 3145.25,6823.8 L 3133.73,6842 L 3122.22,6823.8 L 3073.73,6242 Z " />
<path stroke="transparent" fill="#000000" transform="matrix(0.0833333 0 0 0.0833333 -109.25 -340.917)" d="M 4112.96,6242 L 4232.96,6242 L 4184.48,6823.8 L 4172.96,6842 L 4161.45,6823.8 L 4112.96,6242 Z " />
<path stroke="transparent" fill="#000000" transform="matrix(0.0833333 0 0 0.0833333 -109.25 -340.917)" d="M 5160.35,5660.38 L 5170.35,5677.71 L 5154.05,5689.47 L 5142.01,5668.62 L 5160.35,5660.38 Z " />
<path stroke="transparent" fill="#000000" transform="matrix(0.0833333 0 0 0.0833333 -109.25 -340.917)" d="M 5106.28,5684.68 L 5122.27,5712.39 L 5105.97,5724.15 L 5087.94,5692.92 L 5106.28,5684.68 Z " />
<path stroke="transparent" fill="#000000" transform="matrix(0.0833333 0 0 0.0833333 -109.25 -340.917)" d="M 5052.2,5708.98 L 5074.19,5747.07 L 5057.89,5758.83 L 5033.86,5717.22 L 5052.2,5708.98 Z " />
<path stroke="transparent" fill="#000000" transform="matrix(0.0833333 0 0 0.0833333 -109.25 -340.917)" d="M 4998.13,5733.27 L 5026.11,5781.75 L 5009.81,5793.51 L 4979.79,5741.51 L 4998.13,5733.27 Z " />
<path stroke="transparent" fill="#000000" transform="matrix(0.0833333 0 0 0.0833333 -109.25 -340.917)" d="M 4944.05,5757.57 L 4978.04,5816.43 L 4961.73,5828.19 L 4925.72,5765.81 L 4944.05,5757.57 Z " />
<path stroke="transparent" fill="#000000" transform="matrix(0.0833333 0 0 0.0833333 -109.25 -340.917)" d="M 4889.98,5781.87 L 4929.96,5851.11 L 4913.65,5862.87 L 4871.64,5790.1 L 4889.98,5781.87 Z " />
<path stroke="transparent" fill="#000000" transform="matrix(0.0833333 0 0 0.0833333 -109.25 -340.917)" d="M 4835.91,5806.16 L 4881.88,5885.79 L 4865.58,5897.55 L 4817.57,5814.4 L 4835.91,5806.16 Z " />
<path stroke="transparent" fill="#000000" transform="matrix(0.0833333 0 0 0.0833333 -109.25 -340.917)" d="M 4781.83,5830.46 L 4833.8,5920.47 L 4817.5,5932.24 L 4763.49,5838.7 L 4781.83,5830.46 Z " />
<path stroke="transparent" fill="#000000" transform="matrix(0.0833333 0 0 0.0833333 -109.25 -340.917)" d="M 4727.76,5854.75 L 4785.72,5955.16 L 4769.42,5966.92 L 4709.42,5862.99 L 4727.76,5854.75 Z " />
<path stroke="transparent" fill="#000000" transform="matrix(0.0833333 0 0 0.0833333 -109.25 -340.917)" d="M 5202.19,5647.77 L 5222.19,5636.23 L 5731.81,5930.45 L 5731.81,5942 L 5721.81,5947.77 L 5202.19,5647.77 Z " />
<path stroke="transparent" fill="#000000" transform="matrix(0.0833333 0 0 0.0833333 -109.25 -340.917)" d="M 5202.19,5045.07 L 5212.19,5042 L 5222.19,5047.77 L 5222.19,5636.23 L 5202.19,5647.77 L 5202.19,5045.07 Z " />
<path stroke="transparent" fill="#000000" transform="matrix(0.0833333 0 0 0.0833333 -109.25 -340.917)" d="M 5222.19,5047.77 L 5212.19,5042 L 5216.57,5027.92 L 5731.81,4730.45 L 5731.81,4753.55 L 5222.19,5047.77 Z " />
<path stroke="transparent" fill="#000000" transform="matrix(0.0833333 0 0 0.0833333 -109.25 -340.917)" d="M 4860.23,4552.38 L 4964.15,4492.38 L 5216.57,5027.92 L 5212.19,5042 L 5202.19,5045.07 L 4860.23,4552.38 Z " />
<path stroke="transparent" fill="#000000" transform="matrix(0.0833333 0 0 0.0833333 -109.25 -340.917)" d="M 4720.76,5102 L 4720.76,4982 L 4740.76,4984.29 L 4740.76,5099.71 L 4720.76,5102 Z " />
<path stroke="transparent" fill="#000000" transform="matrix(0.0833333 0 0 0.0833333 -109.25 -340.917)" d="M 4780.39,5095.18 L 4780.39,4988.82 L 4800.39,4991.1 L 4800.39,5092.9 L 4780.39,5095.18 Z " />
<path stroke="transparent" fill="#000000" transform="matrix(0.0833333 0 0 0.0833333 -109.25 -340.917)" d="M 4840.01,5088.37 L 4840.01,4995.63 L 4860.01,4997.92 L 4860.01,5086.08 L 4840.01,5088.37 Z " />
<path stroke="transparent" fill="#000000" transform="matrix(0.0833333 0 0 0.0833333 -109.25 -340.917)" d="M 4899.64,5081.55 L 4899.64,5002.45 L 4919.64,5004.74 L 4919.64,5079.26 L 4899.64,5081.55 Z " />
<path stroke="transparent" fill="#000000" transform="matrix(0.0833333 0 0 0.0833333 -109.25 -340.917)" d="M 4959.27,5074.74 L 4959.27,5009.26 L 4979.27,5011.55 L 4979.27,5072.45 L 4959.27,5074.74 Z " />
<path stroke="transparent" fill="#000000" transform="matrix(0.0833333 0 0 0.0833333 -109.25 -340.917)" d="M 5018.89,5067.92 L 5018.89,5016.08 L 5038.89,5018.37 L 5038.89,5065.63 L 5018.89,5067.92 Z " />
<path stroke="transparent" fill="#000000" transform="matrix(0.0833333 0 0 0.0833333 -109.25 -340.917)" d="M 5078.52,5061.1 L 5078.52,5022.9 L 5098.52,5025.18 L 5098.52,5058.82 L 5078.52,5061.1 Z " />
<path stroke="transparent" fill="#000000" transform="matrix(0.0833333 0 0 0.0833333 -109.25 -340.917)" d="M 5138.14,5054.29 L 5138.14,5029.71 L 5158.14,5032 L 5158.14,5052 L 5138.14,5054.29 Z " />
<path stroke="transparent" fill="#000000" transform="matrix(0.0833333 0 0 0.0833333 -109.25 -340.917)" d="M 4752.58,7142 L 4632.58,7142 L 4634.41,7122 L 4750.75,7122 L 4752.58,7142 Z " />
<path stroke="transparent" fill="#000000" transform="matrix(0.0833333 0 0 0.0833333 -109.25 -340.917)" d="M 4747.23,7083.56 L 4637.93,7083.56 L 4639.76,7063.56 L 4745.39,7063.56 L 4747.23,7083.56 Z " />
<path stroke="transparent" fill="#000000" transform="matrix(0.0833333 0 0 0.0833333 -109.25 -340.917)" d="M 4741.87,7025.11 L 4643.28,7025.11 L 4645.11,7005.11 L 4740.04,7005.11 L 4741.87,7025.11 Z " />
<path stroke="transparent" fill="#000000" transform="matrix(0.0833333 0 0 0.0833333 -109.25 -340.917)" d="M 4736.52,6966.67 L 4648.63,6966.67 L 4650.46,6946.67 L 4734.69,6946.67 L 4736.52,6966.67 Z " />
<path stroke="transparent" fill="#000000" transform="matrix(0.0833333 0 0 0.0833333 -109.25 -340.917)" d="M 4731.17,6908.22 L 4653.99,6908.22 L 4655.82,6888.22 L 4729.34,6888.22 L 4731.17,6908.22 Z " />
<path stroke="transparent" fill="#000000" transform="matrix(0.0833333 0 0 0.0833333 -109.25 -340.917)" d="M 4725.82,6849.78 L 4659.34,6849.78 L 4661.17,6829.78 L 4723.99,6829.78 L 4725.82,6849.78 Z " />
<path stroke="transparent" fill="#000000" transform="matrix(0.0833333 0 0 0.0833333 -109.25 -340.917)" d="M 4720.46,6791.33 L 4664.69,6791.33 L 4666.52,6771.33 L 4718.63,6771.33 L 4720.46,6791.33 Z " />
<path stroke="transparent" fill="#000000" transform="matrix(0.0833333 0 0 0.0833333 -109.25 -340.917)" d="M 4715.11,6732.89 L 4670.04,6732.89 L 4671.87,6712.89 L 4713.28,6712.89 L 4715.11,6732.89 Z " />
<path stroke="transparent" fill="#000000" transform="matrix(0.0833333 0 0 0.0833333 -109.25 -340.917)" d="M 4709.76,6674.44 L 4675.39,6674.44 L 4677.23,6654.44 L 4707.93,6654.44 L 4709.76,6674.44 Z " />
<path stroke="transparent" fill="#000000" transform="matrix(0.0833333 0 0 0.0833333 -109.25 -340.917)" d="M 4704.41,6616 L 4680.75,6616 L 4682.58,6596 L 4702.58,6596 L 4704.41,6616 Z " />
<path stroke="transparent" fill="#000000" transform="matrix(0.0833333 0 0 0.0833333 -109.25 -340.917)" d="M 6303.44,6200.42 L 6203.26,6281.35 L 5741.81,5961.07 L 5731.81,5942 L 5753.32,5941.12 L 6303.44,6200.42 Z " />
<path stroke="transparent" fill="#000000" transform="matrix(0.0833333 0 0 0.0833333 -109.25 -340.917)" d="M 6297.42,6736.83 L 6277.42,6736.83 L 6277.42,6221.22 L 6297.42,6221.22 L 6297.42,6736.83 Z " />
<path stroke="transparent" fill="#000000" transform="matrix(0.0833333 0 0 0.0833333 -109.25 -340.917)" d="M 6225.42,6736.83 L 6205.42,6736.83 L 6205.42,6221.22 L 6225.42,6221.22 L 6225.42,6736.83 Z " />
<path stroke="transparent" fill="#000000" transform="matrix(0.0833333 0 0 0.0833333 -109.25 -340.917)" d="M 6666.43,5990.85 L 6676.43,6008.17 L 6203.26,6281.35 L 6303.44,6200.42 L 6666.43,5990.85 Z " />
<path stroke="transparent" fill="#000000" transform="matrix(0.0833333 0 0 0.0833333 -109.25 -340.917)" d="M 7248.84,6206.31 L 7238.84,6223.63 L 7220.36,6215.65 L 7232.68,6194.3 L 7248.84,6206.31 Z " />
<path stroke="transparent" fill="#000000" transform="matrix(0.0833333 0 0 0.0833333 -109.25 -340.917)" d="M 7201.47,6171.1 L 7184.66,6200.21 L 7166.18,6192.23 L 7185.31,6159.09 L 7201.47,6171.1 Z " />
<path stroke="transparent" fill="#000000" transform="matrix(0.0833333 0 0 0.0833333 -109.25 -340.917)" d="M 7154.1,6135.88 L 7130.47,6176.8 L 7111.99,6168.81 L 7137.94,6123.87 L 7154.1,6135.88 Z " />
<path stroke="transparent" fill="#000000" transform="matrix(0.0833333 0 0 0.0833333 -109.25 -340.917)" d="M 7106.72,6100.67 L 7076.29,6153.38 L 7057.81,6145.39 L 7090.56,6088.66 L 7106.72,6100.67 Z " />
<path stroke="transparent" fill="#000000" transform="matrix(0.0833333 0 0 0.0833333 -109.25 -340.917)" d="M 7059.35,6065.45 L 7022.11,6129.96 L 7003.62,6121.97 L 7043.19,6053.44 L 7059.35,6065.45 Z " />
<path stroke="transparent" fill="#000000" transform="matrix(0.0833333 0 0 0.0833333 -109.25 -340.917)" d="M 7011.98,6030.24 L 6967.92,6106.54 L 6949.44,6098.55 L 6995.82,6018.22 L 7011.98,6030.24 Z " />
<path stroke="transparent" fill="#000000" transform="matrix(0.0833333 0 0 0.0833333 -109.25 -340.917)" d="M 6964.61,5995.02 L 6913.74,6083.12 L 6895.26,6075.14 L 6948.45,5983.01 L 6964.61,5995.02 Z " />
<path stroke="transparent" fill="#000000" transform="matrix(0.0833333 0 0 0.0833333 -109.25 -340.917)" d="M 6917.23,5959.81 L 6859.56,6059.71 L 6841.07,6051.72 L 6901.07,5947.79 L 6917.23,5959.81 Z " />
<path stroke="transparent" fill="#000000" transform="matrix(0.0833333 0 0 0.0833333 -109.25 -340.917)" d="M 7300.65,6836.23 L 7290.65,6842 L 7280.65,6835.59 L 7280.65,6236.23 L 7300.65,6247.77 L 7300.65,6836.23 Z " />
<path stroke="transparent" fill="#000000" transform="matrix(0.0833333 0 0 0.0833333 -109.25 -340.917)" d="M 7810.27,7130.45 L 7810.27,7153.55 L 7291.21,6853.87 L 7290.65,6842 L 7300.65,6836.23 L 7810.27,7130.45 Z " />
<path stroke="transparent" fill="#000000" transform="matrix(0.0833333 0 0 0.0833333 -109.25 -340.917)" d="M 8319.88,6836.23 L 8329.88,6842 L 8329.33,6853.87 L 7810.27,7153.55 L 7810.27,7130.45 L 8319.88,6836.23 Z " />
<path stroke="transparent" fill="#000000" transform="matrix(0.0833333 0 0 0.0833333 -109.25 -340.917)" d="M 8319.88,6247.77 L 8339.88,6236.23 L 8339.88,6835.59 L 8329.88,6842 L 8319.88,6836.23 L 8319.88,6247.77 Z " />
<path stroke="transparent" fill="#000000" transform="matrix(0.0833333 0 0 0.0833333 -109.25 -340.917)" d="M 7905.31,6008.42 L 7915.31,5991.1 L 8339.88,6236.23 L 8319.88,6247.77 L 7905.31,6008.42 Z " />
<path stroke="transparent" fill="#000000" transform="matrix(0.0833333 0 0 0.0833333 -109.25 -340.917)" d="M 7705.67,5990.85 L 7715.67,6008.17 L 7300.65,6247.77 L 7280.65,6236.23 L 7705.67,5990.85 Z " />
<path stroke="transparent" fill="#000000" transform="matrix(0.0833333 0 0 0.0833333 -109.25 -340.917)" d="M 8772.66,5917.08 L 8832.66,6021.01 L 8814.32,6029.25 L 8756.35,5928.84 L 8772.66,5917.08 Z " />
<path stroke="transparent" fill="#000000" transform="matrix(0.0833333 0 0 0.0833333 -109.25 -340.917)" d="M 8724.58,5951.76 L 8778.58,6045.3 L 8760.24,6053.54 L 8708.27,5963.53 L 8724.58,5951.76 Z " />
<path stroke="transparent" fill="#000000" transform="matrix(0.0833333 0 0 0.0833333 -109.25 -340.917)" d="M 8676.5,5986.45 L 8724.51,6069.6 L 8706.17,6077.84 L 8660.2,5998.21 L 8676.5,5986.45 Z " />
<path stroke="transparent" fill="#000000" transform="matrix(0.0833333 0 0 0.0833333 -109.25 -340.917)" d="M 8628.42,6021.13 L 8670.43,6093.9 L 8652.1,6102.13 L 8612.12,6032.89 L 8628.42,6021.13 Z " />
<path stroke="transparent" fill="#000000" transform="matrix(0.0833333 0 0 0.0833333 -109.25 -340.917)" d="M 8580.34,6055.81 L 8616.36,6118.19 L 8598.02,6126.43 L 8564.04,6067.57 L 8580.34,6055.81 Z " />
<path stroke="transparent" fill="#000000" transform="matrix(0.0833333 0 0 0.0833333 -109.25 -340.917)" d="M 8532.27,6090.49 L 8562.29,6142.49 L 8543.95,6150.73 L 8515.96,6102.25 L 8532.27,6090.49 Z " />
<path stroke="transparent" fill="#000000" transform="matrix(0.0833333 0 0 0.0833333 -109.25 -340.917)" d="M 8484.19,6125.17 L 8508.21,6166.78 L 8489.88,6175.02 L 8467.88,6136.93 L 8484.19,6125.17 Z " />
<path stroke="transparent" fill="#000000" transform="matrix(0.0833333 0 0 0.0833333 -109.25 -340.917)" d="M 8436.11,6159.85 L 8454.14,6191.08 L 8435.8,6199.32 L 8419.81,6171.61 L 8436.11,6159.85 Z " />
<path stroke="transparent" fill="#000000" transform="matrix(0.0833333 0 0 0.0833333 -109.25 -340.917)" d="M 8388.03,6194.53 L 8400.06,6215.38 L 8381.73,6223.62 L 8371.73,6206.29 L 8388.03,6194.53 Z " />
<path stroke="transparent" fill="#000000" transform="matrix(0.0833333 0 0 0.0833333 -109.25 -340.917)" d="M 9281.5,6179.87 L 9271.5,6197.19 L 8844.5,5950.66 L 8854.5,5933.34 L 9281.5,6179.87 Z " />
<path stroke="transparent" fill="#000000" transform="matrix(0.0833333 0 0 0.0833333 -109.25 -340.917)" d="M 8786.88,7036.57 L 8726.88,7140.49 L 8329.33,6853.87 L 8329.88,6842 L 8339.88,6835.59 L 8786.88,7036.57 Z " />
<path stroke="transparent" fill="#000000" transform="matrix(0.0833333 0 0 0.0833333 -109.25 -340.917)" d="M 7870.27,7636.83 L 7750.27,7636.83 L 7752.54,7616.83 L 7868,7616.83 L 7870.27,7636.83 Z " />
<path stroke="transparent" fill="#000000" transform="matrix(0.0833333 0 0 0.0833333 -109.25 -340.917)" d="M 7863.45,7576.73 L 7757.09,7576.73 L 7759.36,7556.73 L 7861.18,7556.73 L 7863.45,7576.73 Z " />
<path stroke="transparent" fill="#000000" transform="matrix(0.0833333 0 0 0.0833333 -109.25 -340.917)" d="M 7856.63,7516.62 L 7763.91,7516.62 L 7766.17,7496.62 L 7854.36,7496.62 L 7856.63,7516.62 Z " />
<path stroke="transparent" fill="#000000" transform="matrix(0.0833333 0 0 0.0833333 -109.25 -340.917)" d="M 7849.81,7456.52 L 7770.72,7456.52 L 7772.99,7436.52 L 7847.54,7436.52 L 7849.81,7456.52 Z " />
<path stroke="transparent" fill="#000000" transform="matrix(0.0833333 0 0 0.0833333 -109.25 -340.917)" d="M 7842.99,7396.41 L 7777.54,7396.41 L 7779.81,7376.41 L 7840.72,7376.41 L 7842.99,7396.41 Z " />
<path stroke="transparent" fill="#000000" transform="matrix(0.0833333 0 0 0.0833333 -109.25 -340.917)" d="M 7836.17,7336.3 L 7784.36,7336.3 L 7786.63,7316.3 L 7833.91,7316.3 L 7836.17,7336.3 Z " />
<path stroke="transparent" fill="#000000" transform="matrix(0.0833333 0 0 0.0833333 -109.25 -340.917)" d="M 7829.36,7276.2 L 7791.18,7276.2 L 7793.45,7256.2 L 7827.09,7256.2 L 7829.36,7276.2 Z " />
<path stroke="transparent" fill="#000000" transform="matrix(0.0833333 0 0 0.0833333 -109.25 -340.917)" d="M 7822.54,7216.09 L 7798,7216.09 L 7800.27,7196.09 L 7820.27,7196.09 L 7822.54,7216.09 Z " />
<path stroke="transparent" fill="#000000" transform="matrix(0.0833333 0 0 0.0833333 -109.25 -340.917)" d="M 6893.65,7140.49 L 6833.65,7036.57 L 7280.65,6835.59 L 7290.65,6842 L 7291.21,6853.87 L 6893.65,7140.49 Z " />
</svg>
