<?xml version="1.0" standalone="no" ?>
<!DOCTYPE svg PUBLIC "-//W3C//DTD SVG 1.1//EN" "http://www.w3.org/Graphics/SVG/1.1/DTD/svg11.dtd">
<svg width="615px" height="315px" viewBox="0 0 615 315" style="background-color: #ffffff00" xmlns="http://www.w3.org/2000/svg" xmlns:xlink="http://www.w3.org/1999/xlink" version="1.1" >
<path stroke="transparent" fill="#000000" transform="matrix(0.0833333 0 0 0.0833333 -128.875 -211)" d="M 7817.58,2882 L 7837.58,2893.55 L 7837.58,3482 L 7827.58,3487.77 L 7817.58,3482 L 7817.58,2882 Z " />
<path stroke="transparent" fill="#000000" transform="matrix(0.0833333 0 0 0.0833333 -128.875 -211)" d="M 7837.58,2893.55 L 7817.58,2882 L 8347.19,2576.23 L 8347.19,2599.32 L 7837.58,2893.55 Z " />
<path stroke="transparent" fill="#000000" transform="matrix(0.0833333 0 0 0.0833333 -128.875 -211)" d="M 7904.58,2938 L 7894.58,2920.68 L 8342.19,2662.25 L 8352.19,2679.57 L 7904.58,2938 Z " />
<path stroke="transparent" fill="#000000" transform="matrix(0.0833333 0 0 0.0833333 -128.875 -211)" d="M 8347.19,2599.32 L 8347.19,2576.23 L 8876.81,2882 L 8856.81,2893.55 L 8347.19,2599.32 Z " />
<path stroke="transparent" fill="#000000" transform="matrix(0.0833333 0 0 0.0833333 -128.875 -211)" d="M 8856.81,2893.55 L 8876.81,2882 L 8876.81,3493.55 L 8856.81,3482 L 8856.81,2893.55 Z " />
<path stroke="transparent" fill="#000000" transform="matrix(0.0833333 0 0 0.0833333 -128.875 -211)" d="M 8784.81,2929.34 L 8804.81,2929.34 L 8804.81,3446.2 L 8784.81,3446.2 L 8784.81,2929.34 Z " />
<path stroke="transparent" fill="#000000" transform="matrix(0.0833333 0 0 0.0833333 -128.875 -211)" d="M 8856.81,3482 L 8876.81,3493.55 L 8347.19,3799.32 L 8347.19,3776.23 L 8856.81,3482 Z " />
<path stroke="transparent" fill="#000000" transform="matrix(0.0833333 0 0 0.0833333 -128.875 -211)" d="M 8347.19,3776.23 L 8347.19,3799.32 L 7827.58,3499.32 L 7827.58,3487.77 L 7837.58,3482 L 8347.19,3776.23 Z " />
<path stroke="transparent" fill="#000000" transform="matrix(0.0833333 0 0 0.0833333 -128.875 -211)" d="M 8352.19,3695.97 L 8342.19,3713.3 L 7894.58,3454.86 L 7904.58,3437.54 L 8352.19,3695.97 Z " />
<path stroke="transparent" fill="#000000" transform="matrix(0.0833333 0 0 0.0833333 -128.875 -211)" d="M 7817.58,3482 L 7827.58,3487.77 L 7827.58,3499.32 L 7307.96,3799.32 L 7307.96,3776.23 L 7817.58,3482 Z " />
<path stroke="transparent" fill="#000000" transform="matrix(0.0833333 0 0 0.0833333 -128.875 -211)" d="M 7307.96,3776.23 L 7307.96,3799.32 L 6883.38,3554.19 L 6893.38,3536.87 L 7307.96,3776.23 Z " />
<path stroke="transparent" fill="#000000" transform="matrix(0.0833333 0 0 0.0833333 -128.875 -211)" d="M 6683.74,3536.62 L 6693.74,3553.94 L 6278.73,3793.55 L 6268.73,3787.77 L 6268.73,3776.23 L 6683.74,3536.62 Z " />
<path stroke="transparent" fill="#000000" transform="matrix(0.0833333 0 0 0.0833333 -128.875 -211)" d="M 5744.12,5279.11 L 5754.12,5296.43 L 5327.12,5542.96 L 5317.12,5525.64 L 5744.12,5279.11 Z " />
<path stroke="transparent" fill="#000000" transform="matrix(0.0833333 0 0 0.0833333 -128.875 -211)" d="M 5141.88,5525.64 L 5131.88,5542.96 L 4709.88,5299.32 L 4709.88,5287.77 L 4719.88,5282 L 5141.88,5525.64 Z " />
<path stroke="transparent" fill="#000000" transform="matrix(0.0833333 0 0 0.0833333 -128.875 -211)" d="M 3161.04,6082.61 L 3141.04,6082.61 L 3141.04,5593.55 L 3151.04,5587.77 L 3161.04,5593.55 L 3161.04,6082.61 Z " />
<path stroke="transparent" fill="#000000" transform="matrix(0.0833333 0 0 0.0833333 -128.875 -211)" d="M 1597.19,4696.43 L 1587.19,4679.11 L 2007.21,4436.62 L 2017.21,4453.94 L 1597.19,4696.43 Z " />
<path stroke="transparent" fill="#000000" transform="matrix(0.0833333 0 0 0.0833333 -128.875 -211)" d="M 2206.85,4454.19 L 2216.85,4436.87 L 2631.42,4676.23 L 2631.42,4687.77 L 2621.42,4693.55 L 2206.85,4454.19 Z " />
<path stroke="transparent" fill="#000000" transform="matrix(0.0833333 0 0 0.0833333 -128.875 -211)" d="M 4285.31,4454.19 L 4295.31,4436.87 L 4709.88,4676.23 L 4709.88,4687.77 L 4699.88,4693.55 L 4285.31,4454.19 Z " />
<path stroke="transparent" fill="#000000" transform="matrix(0.0833333 0 0 0.0833333 -128.875 -211)" d="M 4085.67,4436.62 L 4095.67,4453.94 L 3680.65,4693.55 L 3670.65,4687.77 L 3670.65,4676.23 L 4085.67,4436.62 Z " />
<path stroke="transparent" fill="#000000" transform="matrix(0.0833333 0 0 0.0833333 -128.875 -211)" d="M 3660.65,4693.55 L 3670.65,4687.77 L 3680.65,4693.55 L 3680.65,5282 L 3670.65,5287.77 L 3660.65,5282 L 3660.65,4693.55 Z " />
<path stroke="transparent" fill="#000000" transform="matrix(0.0833333 0 0 0.0833333 -128.875 -211)" d="M 3670.65,4676.23 L 3670.65,4687.77 L 3660.65,4693.55 L 3151.04,4399.32 L 3151.04,4376.23 L 3670.65,4676.23 Z " />
<path stroke="transparent" fill="#000000" transform="matrix(0.0833333 0 0 0.0833333 -128.875 -211)" d="M 3603.65,4720.68 L 3593.65,4738 L 3146.04,4479.57 L 3156.04,4462.25 L 3603.65,4720.68 Z " />
<path stroke="transparent" fill="#000000" transform="matrix(0.0833333 0 0 0.0833333 -128.875 -211)" d="M 3151.04,4376.23 L 3151.04,4399.32 L 2641.42,4693.55 L 2631.42,4687.77 L 2631.42,4676.23 L 3151.04,4376.23 Z " />
<path stroke="transparent" fill="#000000" transform="matrix(0.0833333 0 0 0.0833333 -128.875 -211)" d="M 2621.42,4693.55 L 2631.42,4687.77 L 2641.42,4693.55 L 2641.42,5282 L 2621.42,5293.55 L 2621.42,4693.55 Z " />
<path stroke="transparent" fill="#000000" transform="matrix(0.0833333 0 0 0.0833333 -128.875 -211)" d="M 2693.42,4729.34 L 2713.42,4729.34 L 2713.42,5246.2 L 2693.42,5246.2 L 2693.42,4729.34 Z " />
<path stroke="transparent" fill="#000000" transform="matrix(0.0833333 0 0 0.0833333 -128.875 -211)" d="M 2621.42,5293.55 L 2641.42,5282 L 3151.04,5576.23 L 3151.04,5587.77 L 3141.04,5593.55 L 2621.42,5293.55 Z " />
<path stroke="transparent" fill="#000000" transform="matrix(0.0833333 0 0 0.0833333 -128.875 -211)" d="M 3161.04,5593.55 L 3151.04,5587.77 L 3151.04,5576.23 L 3660.65,5282 L 3670.65,5287.77 L 3670.65,5299.32 L 3161.04,5593.55 Z " />
<path stroke="transparent" fill="#000000" transform="matrix(0.0833333 0 0 0.0833333 -128.875 -211)" d="M 3156.04,5513.3 L 3146.04,5495.97 L 3593.65,5237.54 L 3603.65,5254.86 L 3156.04,5513.3 Z " />
<path stroke="transparent" fill="#000000" transform="matrix(0.0833333 0 0 0.0833333 -128.875 -211)" d="M 3670.65,5299.32 L 3670.65,5287.77 L 3680.65,5282 L 4190.27,5576.23 L 4190.27,5599.32 L 3670.65,5299.32 Z " />
<path stroke="transparent" fill="#000000" transform="matrix(0.0833333 0 0 0.0833333 -128.875 -211)" d="M 4236.27,6082.61 L 4216.27,6082.61 L 4216.27,5566.99 L 4236.27,5566.99 L 4236.27,6082.61 Z " />
<path stroke="transparent" fill="#000000" transform="matrix(0.0833333 0 0 0.0833333 -128.875 -211)" d="M 4164.27,6082.61 L 4144.27,6082.61 L 4144.27,5566.99 L 4164.27,5566.99 L 4164.27,6082.61 Z " />
<path stroke="transparent" fill="#000000" transform="matrix(0.0833333 0 0 0.0833333 -128.875 -211)" d="M 4190.27,5599.32 L 4190.27,5576.23 L 4699.88,5282 L 4709.88,5287.77 L 4709.88,5299.32 L 4190.27,5599.32 Z " />
<path stroke="transparent" fill="#000000" transform="matrix(0.0833333 0 0 0.0833333 -128.875 -211)" d="M 4719.88,5282 L 4709.88,5287.77 L 4699.88,5282 L 4699.88,4693.55 L 4709.88,4687.77 L 4719.88,4693.55 L 4719.88,5282 Z " />
<path stroke="transparent" fill="#000000" transform="matrix(0.0833333 0 0 0.0833333 -128.875 -211)" d="M 4647.88,5246.2 L 4627.88,5246.2 L 4627.88,4729.34 L 4647.88,4729.34 L 4647.88,5246.2 Z " />
<path stroke="transparent" fill="#000000" transform="matrix(0.0833333 0 0 0.0833333 -128.875 -211)" d="M 4719.88,4693.55 L 4709.88,4687.77 L 4709.88,4676.23 L 5219.5,4382 L 5229.5,4387.77 L 5229.5,4399.32 L 4719.88,4693.55 Z " />
<path stroke="transparent" fill="#000000" transform="matrix(0.0833333 0 0 0.0833333 -128.875 -211)" d="M 5749.12,4699.32 L 5749.12,4676.23 L 6258.73,4382 L 6268.73,4387.77 L 6268.73,4399.32 L 5749.12,4699.32 Z " />
<path stroke="transparent" fill="#000000" transform="matrix(0.0833333 0 0 0.0833333 -128.875 -211)" d="M 5749.12,4676.23 L 5749.12,4699.32 L 5229.5,4399.32 L 5229.5,4387.77 L 5239.5,4382 L 5749.12,4676.23 Z " />
<path stroke="transparent" fill="#000000" transform="matrix(0.0833333 0 0 0.0833333 -128.875 -211)" d="M 5754.12,4595.97 L 5744.12,4613.3 L 5296.5,4354.86 L 5306.5,4337.54 L 5754.12,4595.97 Z " />
<path stroke="transparent" fill="#000000" transform="matrix(0.0833333 0 0 0.0833333 -128.875 -211)" d="M 5239.5,4382 L 5229.5,4387.77 L 5219.5,4382 L 5219.5,3782 L 5239.5,3793.55 L 5239.5,4382 Z " />
<path stroke="transparent" fill="#000000" transform="matrix(0.0833333 0 0 0.0833333 -128.875 -211)" d="M 5239.5,3793.55 L 5219.5,3782 L 5749.12,3476.23 L 5749.12,3499.32 L 5239.5,3793.55 Z " />
<path stroke="transparent" fill="#000000" transform="matrix(0.0833333 0 0 0.0833333 -128.875 -211)" d="M 5306.5,3838 L 5296.5,3820.68 L 5744.12,3562.25 L 5754.12,3579.57 L 5306.5,3838 Z " />
<path stroke="transparent" fill="#000000" transform="matrix(0.0833333 0 0 0.0833333 -128.875 -211)" d="M 5749.12,3499.32 L 5749.12,3476.23 L 6268.73,3776.23 L 6268.73,3787.77 L 6258.73,3793.55 L 5749.12,3499.32 Z " />
<path stroke="transparent" fill="#000000" transform="matrix(0.0833333 0 0 0.0833333 -128.875 -211)" d="M 6258.73,3793.55 L 6268.73,3787.77 L 6278.73,3793.55 L 6278.73,4382 L 6268.73,4387.77 L 6258.73,4382 L 6258.73,3793.55 Z " />
<path stroke="transparent" fill="#000000" transform="matrix(0.0833333 0 0 0.0833333 -128.875 -211)" d="M 6186.73,3829.34 L 6206.73,3829.34 L 6206.73,4346.2 L 6186.73,4346.2 L 6186.73,3829.34 Z " />
<path stroke="transparent" fill="#000000" transform="matrix(0.0833333 0 0 0.0833333 -128.875 -211)" d="M 6268.73,4399.32 L 6268.73,4387.77 L 6278.73,4382 L 6700.73,4625.64 L 6690.73,4642.96 L 6268.73,4399.32 Z " />
<path stroke="transparent" fill="#000000" transform="matrix(0.0833333 0 0 0.0833333 -128.875 -211)" d="M 6885.96,4642.96 L 6875.96,4625.64 L 7307.96,4376.23 L 7307.96,4399.32 L 6885.96,4642.96 Z " />
<path stroke="transparent" fill="#000000" transform="matrix(0.0833333 0 0 0.0833333 -128.875 -211)" d="M 7307.96,4399.32 L 7307.96,4376.23 L 7739.96,4625.64 L 7729.96,4642.96 L 7307.96,4399.32 Z " />
<path stroke="transparent" fill="#000000" transform="matrix(0.0833333 0 0 0.0833333 -128.875 -211)" d="M 7925.19,4642.96 L 7915.19,4625.64 L 8342.19,4379.11 L 8352.19,4396.43 L 7925.19,4642.96 Z " />
<text x="0" y="0" stroke="transparent" fill="#000000" transform="matrix(0.0833333 0 0 0.0833333 430.32 86.1478)" style="font:normal normal normal 200px 'Arial'" >
O</text>
<text x="0" y="0" stroke="transparent" fill="#000000" transform="matrix(0.0833333 0 0 0.0833333 300.417 261.148)" style="font:normal normal normal 200px 'Arial'" >
O</text>
<text x="0" y="0" stroke="transparent" fill="#000000" transform="matrix(0.0833333 0 0 0.0833333 127.212 311.148)" style="font:normal normal normal 200px 'Arial'" >
OH</text>
<text x="0" y="0" stroke="transparent" fill="#000000" transform="matrix(0.0833333 0 0 0.0833333 40.6091 161.148)" style="font:normal normal normal 200px 'Arial'" >
O</text>
<text x="0" y="0" stroke="transparent" fill="#000000" transform="matrix(0.0833333 0 0 0.0833333 213.814 161.148)" style="font:normal normal normal 200px 'Arial'" >
O</text>
<text x="0" y="0" stroke="transparent" fill="#000000" transform="matrix(0.0833333 0 0 0.0833333 213.814 311.148)" style="font:normal normal normal 200px 'Arial'" >
O</text>
<text x="0" y="0" stroke="transparent" fill="#000000" transform="matrix(0.0833333 0 0 0.0833333 430.32 186.148)" style="font:normal normal normal 200px 'Arial'" >
O</text>
<text x="0" y="0" stroke="transparent" fill="#000000" transform="matrix(0.0833333 0 0 0.0833333 516.923 186.148)" style="font:normal normal normal 200px 'Arial'" >
O</text>
</svg>
