<?xml version="1.0" standalone="no" ?>
<!DOCTYPE svg PUBLIC "-//W3C//DTD SVG 1.1//EN" "http://www.w3.org/Graphics/SVG/1.1/DTD/svg11.dtd">
<svg width="309px" height="321px" viewBox="0 0 309 321" style="background-color: #ffffff00" xmlns="http://www.w3.org/2000/svg" xmlns:xlink="http://www.w3.org/1999/xlink" version="1.1" >
<path stroke="transparent" fill="#000000" transform="matrix(0.0833333 0 0 0.0833333 -311.208 -228)" d="M 5766.4,3687.42 L 5756.4,3693.19 L 5746.4,3687.42 L 5746.4,3098.96 L 5756.4,3093.19 L 5766.4,3098.96 L 5766.4,3687.42 Z " />
<path stroke="transparent" fill="#000000" transform="matrix(0.0833333 0 0 0.0833333 -311.208 -228)" d="M 5694.4,3651.62 L 5674.4,3651.62 L 5674.4,3134.76 L 5694.4,3134.76 L 5694.4,3651.62 Z " />
<path stroke="transparent" fill="#000000" transform="matrix(0.0833333 0 0 0.0833333 -311.208 -228)" d="M 5746.4,3687.42 L 5756.4,3693.19 L 5756.4,3704.74 L 5246.77,3998.97 L 5236.77,3993.2 L 5236.77,3981.65 L 5746.4,3687.42 Z " />
<path stroke="transparent" fill="#000000" transform="matrix(0.0833333 0 0 0.0833333 -311.208 -228)" d="M 5756.4,3704.74 L 5756.4,3693.19 L 5766.4,3687.42 L 6188.39,3931.05 L 6178.4,3948.37 L 5756.4,3704.74 Z " />
<path stroke="transparent" fill="#000000" transform="matrix(0.0833333 0 0 0.0833333 -311.208 -228)" d="M 6373.63,3948.37 L 6363.63,3931.05 L 6785.64,3687.4 L 6805.64,3698.95 L 6373.63,3948.37 Z " />
<path stroke="transparent" fill="#000000" transform="matrix(0.0833333 0 0 0.0833333 -311.208 -228)" d="M 7245.64,3899.86 L 7235.64,3917.18 L 6790.64,3660.27 L 6800.64,3642.95 L 7245.64,3899.86 Z " />
<path stroke="transparent" fill="#000000" transform="matrix(0.0833333 0 0 0.0833333 -311.208 -228)" d="M 7209.64,3962.22 L 7199.64,3979.54 L 6754.64,3722.62 L 6764.64,3705.3 L 7209.64,3962.22 Z " />
<path stroke="transparent" fill="#000000" transform="matrix(0.0833333 0 0 0.0833333 -311.208 -228)" d="M 6805.64,3698.95 L 6785.64,3687.4 L 6785.65,3098.95 L 6805.65,3087.4 L 6805.64,3698.95 Z " />
<path stroke="transparent" fill="#000000" transform="matrix(0.0833333 0 0 0.0833333 -311.208 -228)" d="M 6805.65,3087.4 L 6785.65,3098.95 L 6276.03,2804.73 L 6276.03,2781.64 L 6805.65,3087.4 Z " />
<path stroke="transparent" fill="#000000" transform="matrix(0.0833333 0 0 0.0833333 -311.208 -228)" d="M 6728.65,3126.09 L 6718.65,3143.41 L 6271.03,2884.98 L 6281.03,2867.66 L 6728.65,3126.09 Z " />
<path stroke="transparent" fill="#000000" transform="matrix(0.0833333 0 0 0.0833333 -311.208 -228)" d="M 6276.03,2781.64 L 6276.03,2804.73 L 5766.4,3098.96 L 5756.4,3093.19 L 5756.4,3081.64 L 6276.03,2781.64 Z " />
<path stroke="transparent" fill="#000000" transform="matrix(0.0833333 0 0 0.0833333 -311.208 -228)" d="M 5756.4,3081.64 L 5756.4,3093.19 L 5746.4,3098.96 L 5236.78,2804.74 L 5236.78,2781.65 L 5756.4,3081.64 Z " />
<path stroke="transparent" fill="#000000" transform="matrix(0.0833333 0 0 0.0833333 -311.208 -228)" d="M 5236.78,2781.65 L 5236.78,2804.74 L 4727.16,3098.98 L 4717.16,3093.2 L 4716.01,3082.32 L 5236.78,2781.65 Z " />
<path stroke="transparent" fill="#000000" transform="matrix(0.0833333 0 0 0.0833333 -311.208 -228)" d="M 5231.78,2867.68 L 5241.78,2885 L 4794.16,3143.43 L 4784.16,3126.11 L 5231.78,2867.68 Z " />
<path stroke="transparent" fill="#000000" transform="matrix(0.0833333 0 0 0.0833333 -311.208 -228)" d="M 4707.16,3100.47 L 4717.16,3093.2 L 4727.16,3098.98 L 4727.15,3687.43 L 4717.15,3693.2 L 4707.15,3685.94 L 4707.16,3100.47 Z " />
<path stroke="transparent" fill="#000000" transform="matrix(0.0833333 0 0 0.0833333 -311.208 -228)" d="M 4716.01,3082.32 L 4717.16,3093.2 L 4707.16,3100.47 L 4150.35,2919.5 L 4142.71,2895.99 L 4716.01,3082.32 Z " />
<path stroke="transparent" fill="#000000" transform="matrix(0.0833333 0 0 0.0833333 -311.208 -228)" d="M 4142.71,2895.99 L 4150.35,2919.5 L 3806.2,3393.21 L 3781.48,3393.21 L 4142.71,2895.99 Z " />
<path stroke="transparent" fill="#000000" transform="matrix(0.0833333 0 0 0.0833333 -311.208 -228)" d="M 4165.94,2986.52 L 4182.12,2998.27 L 3890.93,3399.09 L 3874.75,3387.33 L 4165.94,2986.52 Z " />
<path stroke="transparent" fill="#000000" transform="matrix(0.0833333 0 0 0.0833333 -311.208 -228)" d="M 3781.48,3393.21 L 3806.2,3393.21 L 4091.85,3786.37 L 4075.67,3798.12 L 3781.48,3393.21 Z " />
<path stroke="transparent" fill="#000000" transform="matrix(0.0833333 0 0 0.0833333 -311.208 -228)" d="M 4251.45,3855.02 L 4245.27,3836 L 4707.15,3685.94 L 4717.15,3693.2 L 4716.01,3704.09 L 4251.45,3855.02 Z " />
<path stroke="transparent" fill="#000000" transform="matrix(0.0833333 0 0 0.0833333 -311.208 -228)" d="M 4716.01,3704.09 L 4717.15,3693.2 L 4727.15,3687.43 L 5236.77,3981.65 L 5236.77,3993.2 L 5226.77,3998.97 L 4716.01,3704.09 Z " />
<path stroke="transparent" fill="#000000" transform="matrix(0.0833333 0 0 0.0833333 -311.208 -228)" d="M 4784.15,3660.29 L 4794.15,3642.97 L 5241.77,3901.4 L 5231.77,3918.72 L 4784.15,3660.29 Z " />
<path stroke="transparent" fill="#000000" transform="matrix(0.0833333 0 0 0.0833333 -311.208 -228)" d="M 5226.77,3998.97 L 5236.77,3993.2 L 5246.77,3998.97 L 5246.76,4488.03 L 5226.76,4488.03 L 5226.77,3998.97 Z " />
<path stroke="transparent" fill="#000000" transform="matrix(0.0833333 0 0 0.0833333 -311.208 -228)" d="M 5331.8,4659.61 L 5341.8,4642.29 L 5766.38,4887.42 L 5746.38,4898.96 L 5331.8,4659.61 Z " />
<path stroke="transparent" fill="#000000" transform="matrix(0.0833333 0 0 0.0833333 -311.208 -228)" d="M 5746.38,4898.96 L 5766.38,4887.42 L 5766.39,5490.55 L 5756.39,5493.23 L 5746.39,5490.55 L 5746.38,4898.96 Z " />
<path stroke="transparent" fill="#000000" transform="matrix(0.0833333 0 0 0.0833333 -311.208 -228)" d="M 5756.39,5513.23 L 5756.39,5493.23 L 5766.39,5490.55 L 6062.17,6002.85 L 6056.4,6012.85 L 6039.08,6002.85 L 5756.39,5513.23 Z " />
<path stroke="transparent" fill="#000000" transform="matrix(0.0833333 0 0 0.0833333 -311.208 -228)" d="M 5746.39,5490.55 L 5756.39,5493.23 L 5756.39,5513.23 L 5518.31,5925.6 L 5500.99,5915.61 L 5746.39,5490.55 Z " />
<path stroke="transparent" fill="#000000" transform="matrix(0.0833333 0 0 0.0833333 -311.208 -228)" d="M 5564.4,6022.85 L 5564.4,6002.85 L 6039.08,6002.85 L 6056.4,6012.85 L 6050.63,6022.85 L 5564.4,6022.85 Z " />
<path stroke="transparent" fill="#000000" transform="matrix(0.0833333 0 0 0.0833333 -311.208 -228)" d="M 6365.05,6527.44 L 6347.73,6537.44 L 6050.63,6022.85 L 6056.4,6012.85 L 6073.72,6022.85 L 6365.05,6527.44 Z " />
<path stroke="transparent" fill="#000000" transform="matrix(0.0833333 0 0 0.0833333 -311.208 -228)" d="M 6073.72,6022.85 L 6056.4,6012.85 L 6062.17,6002.85 L 6656.38,6002.82 L 6656.38,6022.82 L 6073.72,6022.85 Z " />
<text x="0" y="0" stroke="transparent" fill="#000000" transform="matrix(0.0833333 0 0 0.0833333 205.293 111.265)" style="font:normal normal normal 200px 'Arial'" >
O</text>
<text x="0" y="0" stroke="transparent" fill="#000000" transform="matrix(0.0833333 0 0 0.0833333 291.897 111.264)" style="font:normal normal normal 200px 'Arial'" >
O</text>
<text x="0" y="0" stroke="transparent" fill="#000000" transform="matrix(0.0833333 0 0 0.0833333 27.8337 101.717)" style="font:normal normal normal 200px 'Arial'" >
O</text>
<text x="0" y="0" stroke="transparent" fill="#000000" transform="matrix(0.0833333 0 0 0.0833333 118.688 161.266)" style="font:normal normal normal 200px 'Arial'" >
O</text>
<text x="0" y="0" stroke="transparent" fill="#000000" transform="matrix(0.0833333 0 0 0.0833333 136.992 279.57)" style="font:normal normal normal 200px 'Arial'" >
O</text>
</svg>
