<?xml version="1.0" standalone="no" ?>
<!DOCTYPE svg PUBLIC "-//W3C//DTD SVG 1.1//EN" "http://www.w3.org/Graphics/SVG/1.1/DTD/svg11.dtd">
<svg width="422px" height="334px" viewBox="0 0 422 334" style="background-color: #ffffff00" xmlns="http://www.w3.org/2000/svg" xmlns:xlink="http://www.w3.org/1999/xlink" version="1.1" >
<text x="0" y="0" stroke="transparent" fill="#000000" transform="matrix(0.0833333 0 0 0.0833333 306.587 35.8823)" style="font:normal normal normal 200px 'Arial'" >
O</text>
<text x="0" y="0" stroke="transparent" fill="#000000" transform="matrix(0.0833333 0 0 0.0833333 393.16 85.9369)" style="font:normal normal normal 200px 'Arial'" >
OH</text>
<text x="0" y="0" stroke="transparent" fill="#000000" transform="matrix(0.0833333 0 0 0.0833333 220.355 235.829)" style="font:normal normal normal 200px 'Arial'" >
N</text>
<text x="0" y="0" stroke="transparent" fill="#000000" transform="matrix(0.0833333 0 0 0.0833333 3.33527 260.695)" style="font:normal normal normal 200px 'Arial'" >
O</text>
<text x="0" y="0" stroke="transparent" fill="#000000" transform="matrix(0.0833333 0 0 0.0833333 89.9087 310.75)" style="font:normal normal normal 200px 'Arial'" >
O</text>
<path stroke="transparent" fill="#000000" transform="matrix(0.0833333 0 0 0.0833333 -225.208 -194)" d="M 6557.19,2635.84 L 6547.2,2618.51 L 6974.35,2372.25 L 6984.34,2389.58 L 6557.19,2635.84 Z " />
<path stroke="transparent" fill="#000000" transform="matrix(0.0833333 0 0 0.0833333 -225.208 -194)" d="M 6469.18,3274.82 L 6459.18,3280.59 L 6449.18,3274.81 L 6449.47,2800.41 L 6469.47,2800.43 L 6469.18,3274.82 Z " />
<path stroke="transparent" fill="#000000" transform="matrix(0.0833333 0 0 0.0833333 -225.208 -194)" d="M 5949.37,3586.04 L 5929.38,3574.48 L 6449.18,3274.81 L 6459.18,3280.59 L 6459.17,3292.13 L 5949.37,3586.04 Z " />
<path stroke="transparent" fill="#000000" transform="matrix(0.0833333 0 0 0.0833333 -225.208 -194)" d="M 6016.34,3630.54 L 6006.35,3613.21 L 6454.13,3355.06 L 6464.12,3372.39 L 6016.34,3630.54 Z " />
<path stroke="transparent" fill="#000000" transform="matrix(0.0833333 0 0 0.0833333 -225.208 -194)" d="M 5948.97,4174.46 L 5938.96,4180.23 L 5928.97,4174.45 L 5929.38,3574.48 L 5949.37,3586.04 L 5948.97,4174.46 Z " />
<path stroke="transparent" fill="#000000" transform="matrix(0.0833333 0 0 0.0833333 -225.208 -194)" d="M 6458.41,4469.01 L 6458.4,4480.56 L 6448.4,4486.32 L 5938.95,4191.78 L 5938.96,4180.23 L 5948.97,4174.46 L 6458.41,4469.01 Z " />
<path stroke="transparent" fill="#000000" transform="matrix(0.0833333 0 0 0.0833333 -225.208 -194)" d="M 6463.46,4388.76 L 6453.45,4406.07 L 6005.99,4147.36 L 6016,4130.05 L 6463.46,4388.76 Z " />
<path stroke="transparent" fill="#000000" transform="matrix(0.0833333 0 0 0.0833333 -225.208 -194)" d="M 6968.21,4175.1 L 6988.2,4186.66 L 6468.4,4486.34 L 6458.4,4480.56 L 6458.41,4469.01 L 6968.21,4175.1 Z " />
<path stroke="transparent" fill="#000000" transform="matrix(0.0833333 0 0 0.0833333 -225.208 -194)" d="M 6968.57,3586.65 L 6978.57,3580.88 L 6988.57,3586.66 L 6988.2,4186.66 L 6968.21,4175.1 L 6968.57,3586.65 Z " />
<path stroke="transparent" fill="#000000" transform="matrix(0.0833333 0 0 0.0833333 -225.208 -194)" d="M 6896.55,3622.4 L 6916.55,3622.42 L 6916.23,4139.28 L 6896.23,4139.26 L 6896.55,3622.4 Z " />
<path stroke="transparent" fill="#000000" transform="matrix(0.0833333 0 0 0.0833333 -225.208 -194)" d="M 6978.58,3569.34 L 6978.57,3580.88 L 6968.57,3586.65 L 6459.17,3292.13 L 6459.18,3280.59 L 6469.18,3274.82 L 6978.58,3569.34 Z " />
<path stroke="transparent" fill="#000000" transform="matrix(0.0833333 0 0 0.0833333 -225.208 -194)" d="M 7393.79,3330.01 L 7403.78,3347.34 L 6988.57,3586.66 L 6978.57,3580.88 L 6978.58,3569.34 L 7393.79,3330.01 Z " />
<path stroke="transparent" fill="#000000" transform="matrix(0.0833333 0 0 0.0833333 -225.208 -194)" d="M 6468.04,5086.33 L 6448.04,5074.78 L 6448.4,4486.32 L 6458.4,4480.56 L 6468.4,4486.34 L 6468.04,5086.33 Z " />
<path stroke="transparent" fill="#000000" transform="matrix(0.0833333 0 0 0.0833333 -225.208 -194)" d="M 5938.2,5391.83 L 5938.21,5368.73 L 6448.04,5074.78 L 6468.04,5086.33 L 5938.2,5391.83 Z " />
<path stroke="transparent" fill="#000000" transform="matrix(0.0833333 0 0 0.0833333 -225.208 -194)" d="M 5523.87,5152.27 L 5533.88,5134.96 L 5938.21,5368.73 L 5938.2,5391.83 L 5523.87,5152.27 Z " />
<path stroke="transparent" fill="#000000" transform="matrix(0.0833333 0 0 0.0833333 -225.208 -194)" d="M 4899.01,5391.2 L 4899.02,5368.11 L 5303.63,5134.8 L 5313.62,5152.13 L 4899.01,5391.2 Z " />
<path stroke="transparent" fill="#000000" transform="matrix(0.0833333 0 0 0.0833333 -225.208 -194)" d="M 4379.56,5090.87 L 4379.57,5079.33 L 4389.58,5073.56 L 4899.02,5368.11 L 4899.01,5391.2 L 4379.56,5090.87 Z " />
<path stroke="transparent" fill="#000000" transform="matrix(0.0833333 0 0 0.0833333 -225.208 -194)" d="M 4369.93,4485.09 L 4379.93,4479.33 L 4389.93,4485.11 L 4389.58,5073.56 L 4379.57,5079.33 L 4369.58,5073.55 L 4369.93,4485.09 Z " />
<path stroke="transparent" fill="#000000" transform="matrix(0.0833333 0 0 0.0833333 -225.208 -194)" d="M 4297.91,4520.85 L 4317.91,4520.86 L 4317.6,5037.72 L 4297.6,5037.71 L 4297.91,4520.85 Z " />
<path stroke="transparent" fill="#000000" transform="matrix(0.0833333 0 0 0.0833333 -225.208 -194)" d="M 3860.49,4190.55 L 3860.5,4167.45 L 4379.94,4467.78 L 4379.93,4479.33 L 4369.93,4485.09 L 3860.49,4190.55 Z " />
<path stroke="transparent" fill="#000000" transform="matrix(0.0833333 0 0 0.0833333 -225.208 -194)" d="M 3350.69,4484.45 L 3330.69,4472.89 L 3860.5,4167.45 L 3860.49,4190.55 L 3350.69,4484.45 Z " />
<path stroke="transparent" fill="#000000" transform="matrix(0.0833333 0 0 0.0833333 -225.208 -194)" d="M 3417.66,4528.95 L 3407.67,4511.62 L 3855.45,4253.47 L 3865.44,4270.8 L 3417.66,4528.95 Z " />
<path stroke="transparent" fill="#000000" transform="matrix(0.0833333 0 0 0.0833333 -225.208 -194)" d="M 3350.33,5072.9 L 3340.33,5078.67 L 3330.33,5072.89 L 3330.69,4472.89 L 3350.69,4484.45 L 3350.33,5072.9 Z " />
<path stroke="transparent" fill="#000000" transform="matrix(0.0833333 0 0 0.0833333 -225.208 -194)" d="M 2918.17,5333.59 L 2908.18,5316.27 L 3330.33,5072.89 L 3340.33,5078.67 L 3340.32,5090.22 L 2918.17,5333.59 Z " />
<path stroke="transparent" fill="#000000" transform="matrix(0.0833333 0 0 0.0833333 -225.208 -194)" d="M 2830.13,5978.4 L 2810.13,5978.39 L 2810.44,5498.17 L 2830.44,5498.18 L 2830.13,5978.4 Z " />
<path stroke="transparent" fill="#000000" transform="matrix(0.0833333 0 0 0.0833333 -225.208 -194)" d="M 3859.77,5367.45 L 3859.77,5379 L 3849.76,5384.77 L 3340.32,5090.22 L 3340.33,5078.67 L 3350.33,5072.9 L 3859.77,5367.45 Z " />
<path stroke="transparent" fill="#000000" transform="matrix(0.0833333 0 0 0.0833333 -225.208 -194)" d="M 3864.82,5287.2 L 3854.81,5304.52 L 3407.35,5045.8 L 3417.36,5028.49 L 3864.82,5287.2 Z " />
<path stroke="transparent" fill="#000000" transform="matrix(0.0833333 0 0 0.0833333 -225.208 -194)" d="M 3869.76,5384.78 L 3859.77,5379 L 3859.77,5367.45 L 4369.58,5073.55 L 4379.57,5079.33 L 4379.56,5090.87 L 3869.76,5384.78 Z " />
<path stroke="transparent" fill="#000000" transform="matrix(0.0833333 0 0 0.0833333 -225.208 -194)" d="M 3869.47,5873.84 L 3849.47,5873.83 L 3849.76,5384.77 L 3859.77,5379 L 3869.76,5384.78 L 3869.47,5873.84 Z " />
<path stroke="transparent" fill="#000000" transform="matrix(0.0833333 0 0 0.0833333 -225.208 -194)" d="M 4899.78,4168.06 L 4899.76,4191.15 L 4389.93,4485.11 L 4379.93,4479.33 L 4379.94,4467.78 L 4899.78,4168.06 Z " />
<path stroke="transparent" fill="#000000" transform="matrix(0.0833333 0 0 0.0833333 -225.208 -194)" d="M 5419.22,4468.38 L 5419.21,4479.93 L 5409.21,4485.7 L 4899.76,4191.15 L 4899.78,4168.06 L 5419.22,4468.38 Z " />
<path stroke="transparent" fill="#000000" transform="matrix(0.0833333 0 0 0.0833333 -225.208 -194)" d="M 5429.21,4485.71 L 5419.21,4479.93 L 5419.22,4468.38 L 5928.97,4174.45 L 5938.96,4180.23 L 5938.95,4191.78 L 5429.21,4485.71 Z " />
<path stroke="transparent" fill="#000000" transform="matrix(0.0833333 0 0 0.0833333 -225.208 -194)" d="M 5409.21,4485.7 L 5419.21,4479.93 L 5429.21,4485.71 L 5428.84,4977.29 L 5408.84,4977.28 L 5409.21,4485.7 Z " />
<path stroke="transparent" fill="#000000" transform="matrix(0.0833333 0 0 0.0833333 -225.208 -194)" d="M 3344.6,6287.34 L 3334.61,6270.02 L 3754.78,6027.78 L 3764.77,6045.1 L 3344.6,6287.34 Z " />
</svg>
