<?xml version="1.0"?><svg xmlns="http://www.w3.org/2000/svg" xmlns:xlink="http://www.w3.org/1999/xlink" viewBox="185.61 133.98 151.98 113.34" preserveAspectRatio="xMidYMid" width="100%" height="100%"><clipPath id="29"><rect x="0.5" y="0.5" width="522.2" height="768.8" /></clipPath><g id="drawing"><rect x="185.61" y="133.98" width="100%" height="100%" fill="rgb(255, 255, 255)" /><g id="page" clip-path="url(#29)"><g><text xml:space="preserve" text-anchor="start" text-rendering="geometricPrecision"><tspan x="245.02" y="247.32" font-family="Arial" font-size="10" fill="rgb(0, 0, 0)">N</tspan></text></g><g><text xml:space="preserve" text-anchor="start" text-rendering="geometricPrecision"><tspan x="322.64" y="202.42" font-family="Arial" font-size="10" fill="rgb(0, 0, 0)">OH</tspan></text></g><g><text xml:space="preserve" text-anchor="end" text-rendering="geometricPrecision"><tspan x="200.56" y="187.43" font-family="Arial" font-size="10" fill="rgb(0, 0, 0)">HO</tspan></text></g><g><text xml:space="preserve" text-anchor="start" text-rendering="geometricPrecision"><tspan x="218.72" y="142.43" font-family="Arial" font-size="10" fill="rgb(0, 0, 0)">O</tspan></text></g><g><text xml:space="preserve" text-anchor="start" text-rendering="geometricPrecision"><tspan x="271" y="142.33" font-family="Arial" font-size="10" fill="rgb(0, 0, 0)">H</tspan></text></g><g id="Solid"><path d="M201.48 187.12 L201.48 187.12 L201.73 186.68 L201.98 186.25 L222.63 198.17 L222.63 198.75 L222.13 199.04 Z" stroke="rgb(0, 0, 0)" stroke-width="0" fill-rule="evenodd" stroke-linejoin="miter" fill="rgb(0, 0, 0)" shape-rendering="geometricPrecision" /></g><g id="Solid"><path d="M223.13 228.46 L223.13 228.46 L222.63 228.75 L222.13 228.46 L222.13 199.04 L222.63 198.75 L223.13 199.04 Z" stroke="rgb(0, 0, 0)" stroke-width="0" fill-rule="evenodd" stroke-linejoin="miter" fill="rgb(0, 0, 0)" shape-rendering="geometricPrecision" /><line x1="226.23" y1="226.67" x2="226.23" y2="200.83" stroke="rgb(0, 0, 0)" stroke-width="1" shape-rendering="auto" /></g><g id="Solid"><path d="M196.9 244.18 L196.9 244.18 L196.65 243.75 L196.4 243.32 L222.13 228.46 L222.63 228.75 L222.63 229.33 Z" stroke="rgb(0, 0, 0)" stroke-width="0" fill-rule="evenodd" stroke-linejoin="miter" fill="rgb(0, 0, 0)" shape-rendering="geometricPrecision" /></g><g id="Solid"><path d="M300.57 183.17 L300.57 183.17 L300.57 183.75 L300.57 184.33 L275.09 199.04 L274.59 198.75 L274.59 198.17 Z" stroke="rgb(0, 0, 0)" stroke-width="0" fill-rule="evenodd" stroke-linejoin="miter" fill="rgb(0, 0, 0)" shape-rendering="geometricPrecision" /></g><g id="Solid"><path d="M222.63 229.33 L222.63 229.33 L222.63 228.75 L223.13 228.46 L244.32 240.69 L244.07 241.13 L243.82 241.56 Z" stroke="rgb(0, 0, 0)" stroke-width="0" fill-rule="evenodd" stroke-linejoin="miter" fill="rgb(0, 0, 0)" shape-rendering="geometricPrecision" /></g><g id="Solid"><path d="M274.09 199.04 L274.09 199.04 L274.59 198.75 L275.09 199.04 L275.09 229.04 L274.59 228.75 L274.09 228.46 Z" stroke="rgb(0, 0, 0)" stroke-width="0" fill-rule="evenodd" stroke-linejoin="miter" fill="rgb(0, 0, 0)" shape-rendering="geometricPrecision" /></g><g id="Solid"><path d="M274.09 228.46 L274.09 228.46 L274.59 228.75 L275.09 229.04 L253.48 241.51 L253.23 241.08 L252.98 240.65 Z" stroke="rgb(0, 0, 0)" stroke-width="0" fill-rule="evenodd" stroke-linejoin="miter" fill="rgb(0, 0, 0)" shape-rendering="geometricPrecision" /><line x1="270.99" y1="226.67" x2="251.43" y2="237.96" stroke="rgb(0, 0, 0)" stroke-width="1" shape-rendering="auto" /></g><g id="Solid"><path d="M223.13 199.04 L223.13 199.04 L222.63 198.75 L222.63 198.17 L248.11 183.46 L248.61 183.75 L248.61 184.33 Z" stroke="rgb(0, 0, 0)" stroke-width="0" fill-rule="evenodd" stroke-linejoin="miter" fill="rgb(0, 0, 0)" shape-rendering="geometricPrecision" /></g><g id="Solid"><path d="M248.61 184.33 L248.61 184.33 L248.61 183.75 L249.11 183.46 L274.59 198.17 L274.59 198.75 L274.09 199.04 Z" stroke="rgb(0, 0, 0)" stroke-width="0" fill-rule="evenodd" stroke-linejoin="miter" fill="rgb(0, 0, 0)" shape-rendering="geometricPrecision" /><line x1="248.61" y1="187.91" x2="270.99" y2="200.83" stroke="rgb(0, 0, 0)" stroke-width="1" shape-rendering="auto" /></g><g id="Solid"><path d="M248.11 153.46 L248.11 153.46 L248.61 153.75 L249.11 154.04 L249.11 183.46 L248.61 183.75 L248.11 183.46 Z" stroke="rgb(0, 0, 0)" stroke-width="0" fill-rule="evenodd" stroke-linejoin="miter" fill="rgb(0, 0, 0)" shape-rendering="geometricPrecision" /></g><g id="Solid"><path d="M321.92 195.5 L321.92 195.5 L321.67 195.93 L321.42 196.36 L300.57 184.33 L300.57 183.75 L300.57 183.17 Z" stroke="rgb(0, 0, 0)" stroke-width="0" fill-rule="evenodd" stroke-linejoin="miter" fill="rgb(0, 0, 0)" shape-rendering="geometricPrecision" /></g><g id="Solid"><path d="M269.82 140.93 L269.82 140.93 L270.07 141.36 L270.32 141.79 L249.11 154.04 L248.61 153.75 L248.11 153.46 Z" stroke="rgb(0, 0, 0)" stroke-width="0" fill-rule="evenodd" stroke-linejoin="miter" fill="rgb(0, 0, 0)" shape-rendering="geometricPrecision" /></g><g id="Solid"><line x1="247.71" y1="155.31" x2="226.93" y2="143.31" stroke="rgb(0, 0, 0)" stroke-width="1" shape-rendering="auto" /><path d="M249.41 152.71 L249.41 152.71 L250.41 152.13 L228.98 139.76 L228.48 140.63 Z" stroke="rgb(0, 0, 0)" stroke-width="0" fill-rule="evenodd" stroke-linejoin="miter" fill="rgb(0, 0, 0)" shape-rendering="geometricPrecision" /><path d="M248.11 156.12 L248.11 156.12 L248.11 154.96 L227.18 142.88 L226.68 143.75 Z" stroke="rgb(0, 0, 0)" stroke-width="0" fill-rule="evenodd" stroke-linejoin="miter" fill="rgb(0, 0, 0)" shape-rendering="geometricPrecision" /></g></g></g></svg>