<?xml version="1.0" standalone="no" ?>
<!DOCTYPE svg PUBLIC "-//W3C//DTD SVG 1.1//EN" "http://www.w3.org/Graphics/SVG/1.1/DTD/svg11.dtd">
<svg width="444px" height="275px" viewBox="0 0 444 275" style="background-color: #ffffff00" xmlns="http://www.w3.org/2000/svg" xmlns:xlink="http://www.w3.org/1999/xlink" version="1.1" >
<path stroke="transparent" fill="#000000" transform="matrix(0.0833333 0 0 0.0833333 -184.875 -268)" d="M 3738,4334 L 3738,4354 L 3234,4354 L 3234,4334 L 3738,4334 Z " />
<path stroke="transparent" fill="#000000" transform="matrix(0.0833333 0 0 0.0833333 -184.875 -268)" d="M 3227.27,4249.19 L 3111.82,4216.44 L 3119.11,4197.72 L 3230.89,4229.43 L 3227.27,4249.19 Z " />
<path stroke="transparent" fill="#000000" transform="matrix(0.0833333 0 0 0.0833333 -184.875 -268)" d="M 3237.43,4193.79 L 3132.27,4163.95 L 3139.56,4145.23 L 3241.05,4174.03 L 3237.43,4193.79 Z " />
<path stroke="transparent" fill="#000000" transform="matrix(0.0833333 0 0 0.0833333 -184.875 -268)" d="M 3247.59,4138.39 L 3152.71,4111.47 L 3160.01,4092.75 L 3251.22,4118.63 L 3247.59,4138.39 Z " />
<path stroke="transparent" fill="#000000" transform="matrix(0.0833333 0 0 0.0833333 -184.875 -268)" d="M 3257.76,4082.98 L 3173.16,4058.98 L 3180.45,4040.26 L 3261.38,4063.22 L 3257.76,4082.98 Z " />
<path stroke="transparent" fill="#000000" transform="matrix(0.0833333 0 0 0.0833333 -184.875 -268)" d="M 3267.92,4027.58 L 3193.6,4006.5 L 3200.9,3987.78 L 3271.55,4007.82 L 3267.92,4027.58 Z " />
<path stroke="transparent" fill="#000000" transform="matrix(0.0833333 0 0 0.0833333 -184.875 -268)" d="M 3278.08,3972.18 L 3214.05,3954.01 L 3221.34,3935.29 L 3281.71,3952.42 L 3278.08,3972.18 Z " />
<path stroke="transparent" fill="#000000" transform="matrix(0.0833333 0 0 0.0833333 -184.875 -268)" d="M 3288.25,3916.78 L 3234.49,3901.53 L 3241.79,3882.8 L 3291.87,3897.01 L 3288.25,3916.78 Z " />
<path stroke="transparent" fill="#000000" transform="matrix(0.0833333 0 0 0.0833333 -184.875 -268)" d="M 3298.41,3861.37 L 3254.94,3849.04 L 3262.23,3830.32 L 3302.04,3841.61 L 3298.41,3861.37 Z " />
<path stroke="transparent" fill="#000000" transform="matrix(0.0833333 0 0 0.0833333 -184.875 -268)" d="M 3308.57,3805.97 L 3275.39,3796.55 L 3282.68,3777.83 L 3312.2,3786.21 L 3308.57,3805.97 Z " />
<path stroke="transparent" fill="#000000" transform="matrix(0.0833333 0 0 0.0833333 -184.875 -268)" d="M 3318.74,3750.57 L 3295.83,3744.07 L 3303.12,3725.35 L 3322.36,3730.81 L 3318.74,3750.57 Z " />
<path stroke="transparent" fill="#000000" transform="matrix(0.0833333 0 0 0.0833333 -184.875 -268)" d="M 3118.09,4485.97 L 3232.99,4451.37 L 3236.94,4471.06 L 3125.68,4504.57 L 3118.09,4485.97 Z " />
<path stroke="transparent" fill="#000000" transform="matrix(0.0833333 0 0 0.0833333 -184.875 -268)" d="M 3139.42,4538.27 L 3244.09,4506.75 L 3248.04,4526.45 L 3147.01,4556.87 L 3139.42,4538.27 Z " />
<path stroke="transparent" fill="#000000" transform="matrix(0.0833333 0 0 0.0833333 -184.875 -268)" d="M 3160.75,4590.57 L 3255.19,4562.14 L 3259.13,4581.83 L 3168.34,4609.18 L 3160.75,4590.57 Z " />
<path stroke="transparent" fill="#000000" transform="matrix(0.0833333 0 0 0.0833333 -184.875 -268)" d="M 3182.08,4642.88 L 3266.28,4617.52 L 3270.23,4637.22 L 3189.67,4661.48 L 3182.08,4642.88 Z " />
<path stroke="transparent" fill="#000000" transform="matrix(0.0833333 0 0 0.0833333 -184.875 -268)" d="M 3203.42,4695.18 L 3277.38,4672.91 L 3281.33,4692.6 L 3211,4713.78 L 3203.42,4695.18 Z " />
<path stroke="transparent" fill="#000000" transform="matrix(0.0833333 0 0 0.0833333 -184.875 -268)" d="M 3224.75,4747.48 L 3288.48,4728.29 L 3292.42,4747.99 L 3232.34,4766.08 L 3224.75,4747.48 Z " />
<path stroke="transparent" fill="#000000" transform="matrix(0.0833333 0 0 0.0833333 -184.875 -268)" d="M 3246.08,4799.78 L 3299.57,4783.68 L 3303.52,4803.37 L 3253.67,4818.39 L 3246.08,4799.78 Z " />
<path stroke="transparent" fill="#000000" transform="matrix(0.0833333 0 0 0.0833333 -184.875 -268)" d="M 3267.41,4852.09 L 3310.67,4839.06 L 3314.62,4858.76 L 3275,4870.69 L 3267.41,4852.09 Z " />
<path stroke="transparent" fill="#000000" transform="matrix(0.0833333 0 0 0.0833333 -184.875 -268)" d="M 3288.74,4904.39 L 3321.77,4894.45 L 3325.72,4914.14 L 3296.33,4922.99 L 3288.74,4904.39 Z " />
<path stroke="transparent" fill="#000000" transform="matrix(0.0833333 0 0 0.0833333 -184.875 -268)" d="M 3310.08,4956.69 L 3332.87,4949.83 L 3336.81,4969.53 L 3317.66,4975.3 L 3310.08,4956.69 Z " />
<path stroke="transparent" fill="#000000" transform="matrix(0.0833333 0 0 0.0833333 -184.875 -268)" d="M 3933.26,4892.56 L 3919.22,4875.37 L 4169.28,4340.59 L 4180.38,4340.46 L 4186.78,4350.39 L 3933.26,4892.56 Z " />
<path stroke="transparent" fill="#000000" transform="matrix(0.0833333 0 0 0.0833333 -184.875 -268)" d="M 3919.22,4875.37 L 3933.26,4892.56 L 3340.46,5034.98 L 3345.16,5013.28 L 3919.22,4875.37 Z " />
<path stroke="transparent" fill="#000000" transform="matrix(0.0833333 0 0 0.0833333 -184.875 -268)" d="M 3345.16,5013.28 L 3340.46,5034.98 L 2859.57,4660.29 L 2879.46,4650.43 L 3345.16,5013.28 Z " />
<path stroke="transparent" fill="#000000" transform="matrix(0.0833333 0 0 0.0833333 -184.875 -268)" d="M 2469.16,4358.37 L 2407.98,4255.14 L 2426.35,4246.9 L 2485.2,4346.22 L 2469.16,4358.37 Z " />
<path stroke="transparent" fill="#000000" transform="matrix(0.0833333 0 0 0.0833333 -184.875 -268)" d="M 2517.18,4321.99 L 2462.95,4230.48 L 2481.32,4222.25 L 2533.22,4309.83 L 2517.18,4321.99 Z " />
<path stroke="transparent" fill="#000000" transform="matrix(0.0833333 0 0 0.0833333 -184.875 -268)" d="M 2565.2,4285.61 L 2517.93,4205.83 L 2536.29,4197.59 L 2581.25,4273.45 L 2565.2,4285.61 Z " />
<path stroke="transparent" fill="#000000" transform="matrix(0.0833333 0 0 0.0833333 -184.875 -268)" d="M 2613.22,4249.22 L 2572.9,4181.18 L 2591.27,4172.94 L 2629.27,4237.07 L 2613.22,4249.22 Z " />
<path stroke="transparent" fill="#000000" transform="matrix(0.0833333 0 0 0.0833333 -184.875 -268)" d="M 2661.25,4212.84 L 2627.87,4156.52 L 2646.24,4148.29 L 2677.29,4200.68 L 2661.25,4212.84 Z " />
<path stroke="transparent" fill="#000000" transform="matrix(0.0833333 0 0 0.0833333 -184.875 -268)" d="M 2709.27,4176.46 L 2682.85,4131.87 L 2701.22,4123.63 L 2725.31,4164.3 L 2709.27,4176.46 Z " />
<path stroke="transparent" fill="#000000" transform="matrix(0.0833333 0 0 0.0833333 -184.875 -268)" d="M 2757.29,4140.07 L 2737.82,4107.22 L 2756.19,4098.98 L 2773.34,4127.92 L 2757.29,4140.07 Z " />
<path stroke="transparent" fill="#000000" transform="matrix(0.0833333 0 0 0.0833333 -184.875 -268)" d="M 2805.31,4103.69 L 2792.8,4082.57 L 2811.16,4074.33 L 2821.36,4091.53 L 2805.31,4103.69 Z " />
<path stroke="transparent" fill="#000000" transform="matrix(0.0833333 0 0 0.0833333 -184.875 -268)" d="M 2417.69,4470.13 L 2476.51,4365.53 L 2492.8,4377.36 L 2436.26,4477.91 L 2417.69,4470.13 Z " />
<path stroke="transparent" fill="#000000" transform="matrix(0.0833333 0 0 0.0833333 -184.875 -268)" d="M 2472.15,4492.94 L 2524.29,4400.21 L 2540.59,4412.04 L 2490.72,4500.72 L 2472.15,4492.94 Z " />
<path stroke="transparent" fill="#000000" transform="matrix(0.0833333 0 0 0.0833333 -184.875 -268)" d="M 2526.61,4515.75 L 2572.08,4434.9 L 2588.37,4446.73 L 2545.19,4523.53 L 2526.61,4515.75 Z " />
<path stroke="transparent" fill="#000000" transform="matrix(0.0833333 0 0 0.0833333 -184.875 -268)" d="M 2581.07,4538.56 L 2619.86,4469.58 L 2636.16,4481.41 L 2599.65,4546.34 L 2581.07,4538.56 Z " />
<path stroke="transparent" fill="#000000" transform="matrix(0.0833333 0 0 0.0833333 -184.875 -268)" d="M 2635.53,4561.37 L 2667.64,4504.27 L 2683.94,4516.09 L 2654.11,4569.15 L 2635.53,4561.37 Z " />
<path stroke="transparent" fill="#000000" transform="matrix(0.0833333 0 0 0.0833333 -184.875 -268)" d="M 2689.99,4584.18 L 2715.43,4538.95 L 2731.72,4550.78 L 2708.57,4591.96 L 2689.99,4584.18 Z " />
<path stroke="transparent" fill="#000000" transform="matrix(0.0833333 0 0 0.0833333 -184.875 -268)" d="M 2744.46,4606.99 L 2763.21,4573.63 L 2779.51,4585.46 L 2763.03,4614.77 L 2744.46,4606.99 Z " />
<path stroke="transparent" fill="#000000" transform="matrix(0.0833333 0 0 0.0833333 -184.875 -268)" d="M 2798.92,4629.8 L 2811,4608.32 L 2827.29,4620.14 L 2817.49,4637.58 L 2798.92,4629.8 Z " />
<path stroke="transparent" fill="#000000" transform="matrix(0.0833333 0 0 0.0833333 -184.875 -268)" d="M 2879.46,4650.43 L 2859.57,4660.29 L 2852.67,4050.7 L 2872.77,4060.1 L 2879.46,4650.43 Z " />
<path stroke="transparent" fill="#000000" transform="matrix(0.0833333 0 0 0.0833333 -184.875 -268)" d="M 2872.77,4060.1 L 2852.67,4050.7 L 3324.91,3665.27 L 3330.09,3686.85 L 2872.77,4060.1 Z " />
<path stroke="transparent" fill="#000000" transform="matrix(0.0833333 0 0 0.0833333 -184.875 -268)" d="M 3330.09,3686.85 L 3324.91,3665.27 L 3920.78,3794.17 L 3907.14,3811.68 L 3330.09,3686.85 Z " />
<path stroke="transparent" fill="#000000" transform="matrix(0.0833333 0 0 0.0833333 -184.875 -268)" d="M 3907.14,3811.68 L 3920.78,3794.17 L 4186.55,4330.39 L 4180.38,4340.46 L 4169.28,4340.59 L 3907.14,3811.68 Z " />
<path stroke="transparent" fill="#000000" transform="matrix(0.0833333 0 0 0.0833333 -184.875 -268)" d="M 4186.78,4350.39 L 4180.38,4340.46 L 4186.55,4330.39 L 4672.24,4324.89 L 4672.47,4344.89 L 4186.78,4350.39 Z " />
<path stroke="transparent" fill="#000000" transform="matrix(0.0833333 0 0 0.0833333 -184.875 -268)" d="M 4833.43,4442.87 L 4850.63,4432.68 L 5091.83,4839.74 L 5080.51,4859.87 L 4833.43,4442.87 Z " />
<path stroke="transparent" fill="#000000" transform="matrix(0.0833333 0 0 0.0833333 -184.875 -268)" d="M 4884.38,5302.49 L 4866.95,5292.69 L 5119.02,4844.43 L 5136.45,4854.23 L 4884.38,5302.49 Z " />
<path stroke="transparent" fill="#000000" transform="matrix(0.0833333 0 0 0.0833333 -184.875 -268)" d="M 4821.63,5267.2 L 4804.19,5257.4 L 5056.26,4809.14 L 5073.69,4818.94 L 4821.63,5267.2 Z " />
<path stroke="transparent" fill="#000000" transform="matrix(0.0833333 0 0 0.0833333 -184.875 -268)" d="M 5080.51,4859.87 L 5091.83,4839.74 L 5679.71,4833.08 L 5686.13,4843 L 5680.47,4853.07 L 5080.51,4859.87 Z " />
<path stroke="transparent" fill="#000000" transform="matrix(0.0833333 0 0 0.0833333 -184.875 -268)" d="M 6574.28,4303.3 L 6586.05,4323.17 L 6046.16,4329.29 L 5980.2,4320.03 L 5985.86,4309.97 L 6574.28,4303.3 Z " />
<path stroke="transparent" fill="#000000" transform="matrix(0.0833333 0 0 0.0833333 -184.875 -268)" d="M 6586.05,4323.17 L 6574.28,4303.3 L 6862.7,3790.4 L 6885.79,3790.14 L 6586.05,4323.17 Z " />
<path stroke="transparent" fill="#000000" transform="matrix(0.0833333 0 0 0.0833333 -184.875 -268)" d="M 6546.5,4246.62 L 6529.07,4236.81 L 6782.4,3786.31 L 6799.83,3796.11 L 6546.5,4246.62 Z " />
<path stroke="transparent" fill="#000000" transform="matrix(0.0833333 0 0 0.0833333 -184.875 -268)" d="M 6885.79,3790.14 L 6862.7,3790.4 L 6562.7,3284.16 L 6574.02,3264.03 L 6885.79,3790.14 Z " />
<path stroke="transparent" fill="#000000" transform="matrix(0.0833333 0 0 0.0833333 -184.875 -268)" d="M 6574.02,3264.03 L 6562.7,3284.16 L 5974.28,3290.83 L 5962.51,3270.96 L 6574.02,3264.03 Z " />
<path stroke="transparent" fill="#000000" transform="matrix(0.0833333 0 0 0.0833333 -184.875 -268)" d="M 6527.49,3336.56 L 6527.72,3356.56 L 6010.89,3362.42 L 6010.67,3342.42 L 6527.49,3336.56 Z " />
<path stroke="transparent" fill="#000000" transform="matrix(0.0833333 0 0 0.0833333 -184.875 -268)" d="M 5962.51,3270.96 L 5974.28,3290.83 L 5685.87,3803.73 L 5662.77,3803.99 L 5962.51,3270.96 Z " />
<path stroke="transparent" fill="#000000" transform="matrix(0.0833333 0 0 0.0833333 -184.875 -268)" d="M 5662.77,3803.99 L 5685.87,3803.73 L 5985.86,4309.97 L 5980.2,4320.03 L 5938.03,4268.49 L 5662.77,3803.99 Z " />
<path stroke="transparent" fill="#000000" transform="matrix(0.0833333 0 0 0.0833333 -184.875 -268)" d="M 5748.85,3808.02 L 5766.06,3797.82 L 6029.56,4242.47 L 6012.35,4252.67 L 5748.85,3808.02 Z " />
<path stroke="transparent" fill="#000000" transform="matrix(0.0833333 0 0 0.0833333 -184.875 -268)" d="M 5938.03,4268.49 L 5980.2,4320.03 L 6046.16,4329.29 L 5697.95,4843.33 L 5686.13,4843 L 5679.71,4833.08 L 5938.03,4268.49 Z " />
<path stroke="transparent" fill="#000000" transform="matrix(0.0833333 0 0 0.0833333 -184.875 -268)" d="M 5680.47,4853.07 L 5686.13,4843 L 5697.95,4843.33 L 5997.67,5349.11 L 5986.35,5369.24 L 5680.47,4853.07 Z " />
<path stroke="transparent" fill="#000000" transform="matrix(0.0833333 0 0 0.0833333 -184.875 -268)" d="M 5986.35,5369.24 L 5997.67,5349.11 L 6483.87,5343.6 L 6484.1,5363.6 L 5986.35,5369.24 Z " />
<path stroke="transparent" fill="#000000" transform="matrix(0.0833333 0 0 0.0833333 -184.875 -268)" d="M 6645.06,5461.59 L 6662.27,5451.39 L 6903.46,5858.45 L 6892.14,5878.58 L 6645.06,5461.59 Z " />
<path stroke="transparent" fill="#000000" transform="matrix(0.0833333 0 0 0.0833333 -184.875 -268)" d="M 6696.01,6321.21 L 6678.58,6311.41 L 6930.65,5863.14 L 6948.08,5872.95 L 6696.01,6321.21 Z " />
<path stroke="transparent" fill="#000000" transform="matrix(0.0833333 0 0 0.0833333 -184.875 -268)" d="M 6633.26,6285.92 L 6615.82,6276.12 L 6867.89,5827.85 L 6885.32,5837.66 L 6633.26,6285.92 Z " />
<path stroke="transparent" fill="#000000" transform="matrix(0.0833333 0 0 0.0833333 -184.875 -268)" d="M 6892.14,5878.58 L 6903.46,5858.45 L 7497.65,5851.72 L 7497.87,5871.72 L 6892.14,5878.58 Z " />
<text x="0" y="0" stroke="transparent" fill="#000000" transform="matrix(0.0833333 0 0 0.0833333 70.625 100.5)" style="font:normal normal normal 200px 'Arial'" >
N</text>
<text x="0" y="0" stroke="transparent" fill="#000000" transform="matrix(0.0833333 0 0 0.0833333 4.17058 101.94)" style="font:normal normal normal 200px 'Arial'" >
O</text>
<text x="0" y="0" stroke="transparent" fill="#000000" transform="matrix(0.0833333 0 0 0.0833333 206.987 99.6387)" style="font:normal normal normal 200px 'Arial'" >
O</text>
<text x="0" y="0" stroke="transparent" fill="#000000" transform="matrix(0.0833333 0 0 0.0833333 207.966 186.231)" style="font:normal normal normal 200px 'Arial'" >
O</text>
<text x="0" y="0" stroke="transparent" fill="#000000" transform="matrix(0.0833333 0 0 0.0833333 357.956 184.532)" style="font:normal normal normal 200px 'Arial'" >
O</text>
<text x="0" y="0" stroke="transparent" fill="#000000" transform="matrix(0.0833333 0 0 0.0833333 358.935 271.124)" style="font:normal normal normal 200px 'Arial'" >
O</text>
</svg>
