<?xml version="1.0" standalone="no" ?>
<!DOCTYPE svg PUBLIC "-//W3C//DTD SVG 1.1//EN" "http://www.w3.org/Graphics/SVG/1.1/DTD/svg11.dtd">
<svg width="486px" height="371px" viewBox="0 0 486 371" style="background-color: #ffffff00" xmlns="http://www.w3.org/2000/svg" xmlns:xlink="http://www.w3.org/1999/xlink" version="1.1" >
<text x="0" y="0" stroke="transparent" fill="#000000" transform="matrix(0.0833333 0 0 0.0833333 87.9082 286.824)" style="font:normal normal normal 200px 'Arial'" >
O</text>
<text x="0" y="0" stroke="transparent" fill="#000000" transform="matrix(0.0833333 0 0 0.0833333 156.614 339.544)" style="font:normal normal normal 200px 'Arial'" >
O</text>
<text x="0" y="0" stroke="transparent" fill="#000000" transform="matrix(0.0833333 0 0 0.0833333 141.078 192.717)" style="font:normal normal normal 200px 'Arial'" >
HO</text>
<text x="0" y="0" stroke="transparent" fill="#000000" transform="matrix(0.0833333 0 0 0.0833333 169.974 132.692)" style="font:normal normal normal 200px 'Arial'" >
O</text>
<text x="0" y="0" stroke="transparent" fill="#000000" transform="matrix(0.0833333 0 0 0.0833333 118.514 202.348)" style="font:normal normal normal 200px 'Arial'" >
O</text>
<text x="0" y="0" stroke="transparent" fill="#000000" transform="matrix(0.0833333 0 0 0.0833333 385.442 127.932)" style="font:normal normal normal 200px 'Arial'" >
O</text>
<text x="0" y="0" stroke="transparent" fill="#000000" transform="matrix(0.0833333 0 0 0.0833333 469.093 105.516)" style="font:normal normal normal 200px 'Arial'" >
O</text>
<text x="0" y="0" stroke="transparent" fill="#000000" transform="matrix(0.0833333 0 0 0.0833333 240.55 18.4)" style="font:normal normal normal 200px 'Arial'" >
O</text>
<text x="0" y="0" stroke="transparent" fill="#000000" transform="matrix(0.0833333 0 0 0.0833333 197.25 114.111)" style="font:normal normal normal 200px 'Arial'" >
O</text>
<text x="0" y="0" stroke="transparent" fill="#000000" transform="matrix(0.0833333 0 0 0.0833333 111.244 113.301)" style="font:normal normal normal 200px 'Arial'" >
O</text>
<text x="0" y="0" stroke="transparent" fill="#000000" transform="matrix(0.0833333 0 0 0.0833333 376.362 187.122)" style="font:normal normal normal 200px 'Arial'" >
O</text>
<text x="0" y="0" stroke="transparent" fill="#000000" transform="matrix(0.0833333 0 0 0.0833333 456.373 220.263)" style="font:normal normal normal 200px 'Arial'" >
O</text>
<text x="0" y="0" stroke="transparent" fill="#000000" transform="matrix(0.0833333 0 0 0.0833333 352.957 273.099)" style="font:normal normal normal 200px 'Arial'" >
O</text>
<text x="0" y="0" stroke="transparent" fill="#000000" transform="matrix(0.0833333 0 0 0.0833333 384.637 353.7)" style="font:normal normal normal 200px 'Arial'" >
O</text>
<path stroke="transparent" fill="#000000" transform="matrix(0.0833333 0 0 0.0833333 -193.208 -174)" d="M 3676.6,5995.56 L 3685.44,6016.9 L 3323.67,6488.37 L 3307.8,6476.19 L 3676.6,5995.56 Z " />
<path stroke="transparent" fill="#000000" transform="matrix(0.0833333 0 0 0.0833333 -193.208 -174)" d="M 3455.47,5581.92 L 3473.95,5574.27 L 3664.95,6035.39 L 3646.48,6043.04 L 3455.47,5581.92 Z " />
<path stroke="transparent" fill="#000000" transform="matrix(0.0833333 0 0 0.0833333 -193.208 -174)" d="M 3521.99,5554.37 L 3540.47,5546.72 L 3731.48,6007.83 L 3713,6015.48 L 3521.99,5554.37 Z " />
<path stroke="transparent" fill="#000000" transform="matrix(0.0833333 0 0 0.0833333 -193.208 -174)" d="M 4170.68,6060.6 L 4168.07,6080.43 L 3685.44,6016.9 L 3676.6,5995.56 L 4170.68,6060.6 Z " />
<path stroke="transparent" fill="#000000" transform="matrix(0.0833333 0 0 0.0833333 -193.208 -174)" d="M 4629.65,5607.04 L 4641.1,5608.55 L 4645.51,5619.21 L 4348.8,6005.91 L 4332.93,5993.74 L 4629.65,5607.04 Z " />
<path stroke="transparent" fill="#000000" transform="matrix(0.0833333 0 0 0.0833333 -193.208 -174)" d="M 4400.02,5052.69 L 4422.92,5055.71 L 4648.12,5599.39 L 4641.1,5608.55 L 4629.65,5607.04 L 4400.02,5052.69 Z " />
<path stroke="transparent" fill="#000000" transform="matrix(0.0833333 0 0 0.0833333 -193.208 -174)" d="M 4422.92,5055.71 L 4400.02,5052.69 L 4767.5,4573.79 L 4776.76,4578.15 L 4781.18,4588.82 L 4422.92,5055.71 Z " />
<path stroke="transparent" fill="#000000" transform="matrix(0.0833333 0 0 0.0833333 -193.208 -174)" d="M 4311.75,4425.58 L 4362.86,4317.01 L 4379.96,4327.62 L 4330.83,4432 L 4311.75,4425.58 Z " />
<path stroke="transparent" fill="#000000" transform="matrix(0.0833333 0 0 0.0833333 -193.208 -174)" d="M 4367.85,4444.46 L 4413.16,4348.22 L 4430.27,4358.83 L 4386.94,4450.88 L 4367.85,4444.46 Z " />
<path stroke="transparent" fill="#000000" transform="matrix(0.0833333 0 0 0.0833333 -193.208 -174)" d="M 4423.96,4463.34 L 4463.46,4379.42 L 4480.57,4390.04 L 4443.04,4469.77 L 4423.96,4463.34 Z " />
<path stroke="transparent" fill="#000000" transform="matrix(0.0833333 0 0 0.0833333 -193.208 -174)" d="M 4480.07,4482.22 L 4513.77,4410.63 L 4530.87,4421.24 L 4499.15,4488.65 L 4480.07,4482.22 Z " />
<path stroke="transparent" fill="#000000" transform="matrix(0.0833333 0 0 0.0833333 -193.208 -174)" d="M 4536.17,4501.11 L 4564.07,4441.84 L 4581.18,4452.45 L 4555.25,4507.53 L 4536.17,4501.11 Z " />
<path stroke="transparent" fill="#000000" transform="matrix(0.0833333 0 0 0.0833333 -193.208 -174)" d="M 4592.28,4519.99 L 4614.37,4473.05 L 4631.48,4483.66 L 4611.36,4526.41 L 4592.28,4519.99 Z " />
<path stroke="transparent" fill="#000000" transform="matrix(0.0833333 0 0 0.0833333 -193.208 -174)" d="M 4648.38,4538.87 L 4664.68,4504.25 L 4681.78,4514.87 L 4667.46,4545.29 L 4648.38,4538.87 Z " />
<path stroke="transparent" fill="#000000" transform="matrix(0.0833333 0 0 0.0833333 -193.208 -174)" d="M 4704.49,4557.75 L 4714.98,4535.46 L 4732.09,4546.07 L 4723.57,4564.17 L 4704.49,4557.75 Z " />
<path stroke="transparent" fill="#000000" transform="matrix(0.0833333 0 0 0.0833333 -193.208 -174)" d="M 4907.57,3963.03 L 4918.78,3958.88 L 4911.13,4036.98 L 4788.96,4569.67 L 4776.76,4578.15 L 4767.5,4573.79 L 4907.57,3963.03 Z " />
<path stroke="transparent" fill="#000000" transform="matrix(0.0833333 0 0 0.0833333 -193.208 -174)" d="M 4524.51,3679.99 L 4536.4,3663.91 L 4874.43,3913.68 L 4918.78,3958.88 L 4907.57,3963.03 L 4524.51,3679.99 Z " />
<path stroke="transparent" fill="#000000" transform="matrix(0.0833333 0 0 0.0833333 -193.208 -174)" d="M 3884.87,3853.42 L 3887.46,3830.47 L 4328.21,3638.44 L 4336.2,3656.77 L 3884.87,3853.42 Z " />
<path stroke="transparent" fill="#000000" transform="matrix(0.0833333 0 0 0.0833333 -193.208 -174)" d="M 3876.16,4339.26 L 3856.29,4337.01 L 3914.34,3824.21 L 3934.21,3826.46 L 3876.16,4339.26 Z " />
<path stroke="transparent" fill="#000000" transform="matrix(0.0833333 0 0 0.0833333 -193.208 -174)" d="M 3804.61,4331.16 L 3784.74,4328.91 L 3842.79,3816.11 L 3862.67,3818.36 L 3804.61,4331.16 Z " />
<path stroke="transparent" fill="#000000" transform="matrix(0.0833333 0 0 0.0833333 -193.208 -174)" d="M 3402.34,3496.89 L 3403.64,3485.42 L 3414.22,3480.81 L 3887.46,3830.47 L 3884.87,3853.42 L 3402.34,3496.89 Z " />
<path stroke="transparent" fill="#000000" transform="matrix(0.0833333 0 0 0.0833333 -193.208 -174)" d="M 2852.25,3736.53 L 2854.85,3713.59 L 3394.35,3478.56 L 3403.64,3485.42 L 3402.34,3496.89 L 2852.25,3736.53 Z " />
<path stroke="transparent" fill="#000000" transform="matrix(0.0833333 0 0 0.0833333 -193.208 -174)" d="M 2866.9,3651.62 L 2858.91,3633.28 L 3332.78,3426.84 L 3340.76,3445.18 L 2866.9,3651.62 Z " />
<path stroke="transparent" fill="#000000" transform="matrix(0.0833333 0 0 0.0833333 -193.208 -174)" d="M 2360.38,3373.15 L 2381.55,3363.92 L 2854.85,3713.59 L 2852.25,3736.53 L 2360.38,3373.15 Z " />
<path stroke="transparent" fill="#000000" transform="matrix(0.0833333 0 0 0.0833333 -193.208 -174)" d="M 2429.18,2765.51 L 2447.75,2779.23 L 2381.55,3363.92 L 2360.38,3373.15 L 2429.18,2765.51 Z " />
<path stroke="transparent" fill="#000000" transform="matrix(0.0833333 0 0 0.0833333 -193.208 -174)" d="M 2495.39,2820.65 L 2515.27,2822.9 L 2457.12,3336.45 L 2437.24,3334.2 L 2495.39,2820.65 Z " />
<path stroke="transparent" fill="#000000" transform="matrix(0.0833333 0 0 0.0833333 -193.208 -174)" d="M 2989.85,2521.25 L 2987.25,2544.2 L 2447.75,2779.23 L 2429.18,2765.51 L 2989.85,2521.25 Z " />
<path stroke="transparent" fill="#000000" transform="matrix(0.0833333 0 0 0.0833333 -193.208 -174)" d="M 3481.73,2884.64 L 3460.55,2893.86 L 2987.25,2544.2 L 2989.85,2521.25 L 3481.73,2884.64 Z " />
<path stroke="transparent" fill="#000000" transform="matrix(0.0833333 0 0 0.0833333 -193.208 -174)" d="M 3400.86,2914.41 L 3388.98,2930.5 L 2973.26,2623.38 L 2985.14,2607.29 L 3400.86,2914.41 Z " />
<path stroke="transparent" fill="#000000" transform="matrix(0.0833333 0 0 0.0833333 -193.208 -174)" d="M 3460.55,2893.86 L 3481.73,2884.64 L 3414.22,3480.81 L 3403.64,3485.42 L 3394.35,3478.56 L 3460.55,2893.86 Z " />
<path stroke="transparent" fill="#000000" transform="matrix(0.0833333 0 0 0.0833333 -193.208 -174)" d="M 4911.13,4036.98 L 4918.78,3958.88 L 4874.43,3913.68 L 5426.57,3653.43 L 5438.39,3658.88 L 5440.23,3669.73 L 4911.13,4036.98 Z " />
<path stroke="transparent" fill="#000000" transform="matrix(0.0833333 0 0 0.0833333 -193.208 -174)" d="M 5440.23,3669.73 L 5438.39,3658.88 L 5446.55,3650.71 L 6015.01,3803.01 L 6017.99,3814.16 L 6011.41,3822.75 L 5440.23,3669.73 Z " />
<path stroke="transparent" fill="#000000" transform="matrix(0.0833333 0 0 0.0833333 -193.208 -174)" d="M 6620.67,3832.98 L 6605.01,3951.95 L 6585.42,3947.52 L 6600.6,3832.18 L 6620.67,3832.98 Z " />
<path stroke="transparent" fill="#000000" transform="matrix(0.0833333 0 0 0.0833333 -193.208 -174)" d="M 6562.04,3830.66 L 6547.78,3939.02 L 6528.19,3934.59 L 6541.97,3829.86 L 6562.04,3830.66 Z " />
<path stroke="transparent" fill="#000000" transform="matrix(0.0833333 0 0 0.0833333 -193.208 -174)" d="M 6503.41,3828.34 L 6490.54,3926.09 L 6470.95,3921.66 L 6483.34,3827.54 L 6503.41,3828.34 Z " />
<path stroke="transparent" fill="#000000" transform="matrix(0.0833333 0 0 0.0833333 -193.208 -174)" d="M 6444.78,3826.02 L 6433.31,3913.15 L 6413.72,3908.73 L 6424.71,3825.22 L 6444.78,3826.02 Z " />
<path stroke="transparent" fill="#000000" transform="matrix(0.0833333 0 0 0.0833333 -193.208 -174)" d="M 6386.15,3823.7 L 6376.08,3900.22 L 6356.49,3895.8 L 6366.08,3822.9 L 6386.15,3823.7 Z " />
<path stroke="transparent" fill="#000000" transform="matrix(0.0833333 0 0 0.0833333 -193.208 -174)" d="M 6327.52,3821.38 L 6318.84,3887.29 L 6299.25,3882.86 L 6307.45,3820.58 L 6327.52,3821.38 Z " />
<path stroke="transparent" fill="#000000" transform="matrix(0.0833333 0 0 0.0833333 -193.208 -174)" d="M 6268.89,3819.06 L 6261.61,3874.36 L 6242.02,3869.93 L 6248.82,3818.27 L 6268.89,3819.06 Z " />
<path stroke="transparent" fill="#000000" transform="matrix(0.0833333 0 0 0.0833333 -193.208 -174)" d="M 6210.26,3816.74 L 6204.37,3861.43 L 6184.78,3857 L 6190.19,3815.95 L 6210.26,3816.74 Z " />
<path stroke="transparent" fill="#000000" transform="matrix(0.0833333 0 0 0.0833333 -193.208 -174)" d="M 6151.62,3814.42 L 6147.14,3848.49 L 6127.55,3844.07 L 6131.56,3813.63 L 6151.62,3814.42 Z " />
<path stroke="transparent" fill="#000000" transform="matrix(0.0833333 0 0 0.0833333 -193.208 -174)" d="M 6092.99,3812.1 L 6089.9,3835.56 L 6070.31,3831.14 L 6072.92,3811.31 L 6092.99,3812.1 Z " />
<path stroke="transparent" fill="#000000" transform="matrix(0.0833333 0 0 0.0833333 -193.208 -174)" d="M 6431.11,3386.91 L 6442.26,3389.9 L 6445.25,3401.05 L 6030.49,3815.81 L 6017.99,3814.16 L 6015.01,3803.01 L 6431.11,3386.91 Z " />
<path stroke="transparent" fill="#000000" transform="matrix(0.0833333 0 0 0.0833333 -193.208 -174)" d="M 6921.07,3507.83 L 6915.9,3527.15 L 6445.25,3401.05 L 6442.26,3389.9 L 6450.42,3381.73 L 6921.07,3507.83 Z " />
<path stroke="transparent" fill="#000000" transform="matrix(0.0833333 0 0 0.0833333 -193.208 -174)" d="M 7434.92,3117.92 L 7457.23,3123.9 L 7104.25,3476.88 L 7090.1,3462.74 L 7434.92,3117.92 Z " />
<path stroke="transparent" fill="#000000" transform="matrix(0.0833333 0 0 0.0833333 -193.208 -174)" d="M 7281.13,2544.01 L 7300.45,2538.84 L 7457.23,3123.9 L 7434.92,3117.92 L 7281.13,2544.01 Z " />
<path stroke="transparent" fill="#000000" transform="matrix(0.0833333 0 0 0.0833333 -193.208 -174)" d="M 7934.2,3204.08 L 7929.03,3223.4 L 7432.73,3090.42 L 7437.9,3071.1 L 7934.2,3204.08 Z " />
<path stroke="transparent" fill="#000000" transform="matrix(0.0833333 0 0 0.0833333 -193.208 -174)" d="M 7915.57,3273.62 L 7910.39,3292.94 L 7414.09,3159.97 L 7419.27,3140.65 L 7915.57,3273.62 Z " />
<path stroke="transparent" fill="#000000" transform="matrix(0.0833333 0 0 0.0833333 -193.208 -174)" d="M 6278.81,2818.57 L 6295.14,2802.24 L 6450.42,3381.73 L 6442.26,3389.9 L 6431.11,3386.91 L 6278.81,2818.57 Z " />
<path stroke="transparent" fill="#000000" transform="matrix(0.0833333 0 0 0.0833333 -193.208 -174)" d="M 6295.14,2802.24 L 6278.81,2818.57 L 5710.36,2666.22 L 5707.37,2655.07 L 5713,2646.22 L 6295.14,2802.24 Z " />
<path stroke="transparent" fill="#000000" transform="matrix(0.0833333 0 0 0.0833333 -193.208 -174)" d="M 5324.88,2357.43 L 5409.73,2272.57 L 5713,2646.22 L 5707.37,2655.07 L 5692.49,2655.8 L 5324.88,2357.43 Z " />
<path stroke="transparent" fill="#000000" transform="matrix(0.0833333 0 0 0.0833333 -193.208 -174)" d="M 4872.98,2655.07 L 4844.7,2655.07 L 5192.33,2307.43 L 5206.47,2321.57 L 4872.98,2655.07 Z " />
<path stroke="transparent" fill="#000000" transform="matrix(0.0833333 0 0 0.0833333 -193.208 -174)" d="M 4844.7,2655.07 L 4872.98,2655.07 L 5283.1,3065.19 L 5283.1,3079.33 L 5265.82,3076.19 L 4844.7,2655.07 Z " />
<path stroke="transparent" fill="#000000" transform="matrix(0.0833333 0 0 0.0833333 -193.208 -174)" d="M 5294.26,3082.32 L 5283.1,3079.33 L 5283.1,3065.19 L 5692.49,2655.8 L 5707.37,2655.07 L 5710.36,2666.22 L 5294.26,3082.32 Z " />
<path stroke="transparent" fill="#000000" transform="matrix(0.0833333 0 0 0.0833333 -193.208 -174)" d="M 5277.18,3095.87 L 5283.1,3079.33 L 5294.26,3082.32 L 5446.55,3650.71 L 5438.39,3658.88 L 5426.57,3653.43 L 5277.18,3095.87 Z " />
<path stroke="transparent" fill="#000000" transform="matrix(0.0833333 0 0 0.0833333 -193.208 -174)" d="M 4886.12,3377.82 L 4826.11,3273.9 L 5265.82,3076.19 L 5283.1,3079.33 L 5277.18,3095.87 L 4886.12,3377.82 Z " />
<path stroke="transparent" fill="#000000" transform="matrix(0.0833333 0 0 0.0833333 -193.208 -174)" d="M 4233.89,3085.11 L 4253.89,3073.56 L 4675.88,3317.2 L 4665.88,3334.52 L 4233.89,3085.11 Z " />
<path stroke="transparent" fill="#000000" transform="matrix(0.0833333 0 0 0.0833333 -193.208 -174)" d="M 4233.89,2479.38 L 4253.89,2479.38 L 4253.89,3073.56 L 4233.89,3085.11 L 4233.89,2479.38 Z " />
<path stroke="transparent" fill="#000000" transform="matrix(0.0833333 0 0 0.0833333 -193.208 -174)" d="M 3846.81,3356.36 L 3836.95,3338.96 L 4274.47,3091.13 L 4284.33,3108.53 L 3846.81,3356.36 Z " />
<path stroke="transparent" fill="#000000" transform="matrix(0.0833333 0 0 0.0833333 -193.208 -174)" d="M 3811.97,3294.87 L 3802.12,3277.47 L 4238.96,3030.02 L 4248.82,3047.42 L 3811.97,3294.87 Z " />
<path stroke="transparent" fill="#000000" transform="matrix(0.0833333 0 0 0.0833333 -193.208 -174)" d="M 6323.32,4322.98 L 6318,4333.77 L 6307.27,4335.18 L 6011.41,3822.75 L 6017.99,3814.16 L 6030.49,3815.81 L 6323.32,4322.98 Z " />
<path stroke="transparent" fill="#000000" transform="matrix(0.0833333 0 0 0.0833333 -193.208 -174)" d="M 6805.04,4259.57 L 6807.65,4279.4 L 6325.93,4342.81 L 6318,4333.77 L 6323.32,4322.98 L 6805.04,4259.57 Z " />
<path stroke="transparent" fill="#000000" transform="matrix(0.0833333 0 0 0.0833333 -193.208 -174)" d="M 7289.58,4729.95 L 7266.68,4732.96 L 6978.08,4356.89 L 6993.94,4344.72 L 7289.58,4729.95 Z " />
<path stroke="transparent" fill="#000000" transform="matrix(0.0833333 0 0 0.0833333 -193.208 -174)" d="M 7057.75,5289.63 L 7039.27,5281.98 L 7266.68,4732.96 L 7289.58,4729.95 L 7057.75,5289.63 Z " />
<path stroke="transparent" fill="#000000" transform="matrix(0.0833333 0 0 0.0833333 -193.208 -174)" d="M 7760.48,4621.57 L 7763.09,4641.4 L 7254.13,4708.39 L 7251.52,4688.56 L 7760.48,4621.57 Z " />
<path stroke="transparent" fill="#000000" transform="matrix(0.0833333 0 0 0.0833333 -193.208 -174)" d="M 7769.87,4692.95 L 7772.48,4712.78 L 7263.53,4779.77 L 7260.92,4759.94 L 7769.87,4692.95 Z " />
<path stroke="transparent" fill="#000000" transform="matrix(0.0833333 0 0 0.0833333 -193.208 -174)" d="M 6174.07,4909.58 L 6162.72,4913.32 L 6154.18,4906.52 L 6307.27,4335.18 L 6318,4333.77 L 6325.93,4342.81 L 6174.07,4909.58 Z " />
<path stroke="transparent" fill="#000000" transform="matrix(0.0833333 0 0 0.0833333 -193.208 -174)" d="M 6554.68,5212.81 L 6542.22,5228.45 L 6161.61,4925.22 L 6162.72,4913.32 L 6174.07,4909.58 L 6554.68,5212.81 Z " />
<path stroke="transparent" fill="#000000" transform="matrix(0.0833333 0 0 0.0833333 -193.208 -174)" d="M 6551.91,5887.72 L 6533.85,5873.34 L 6604.43,5403.33 L 6624.21,5406.3 L 6551.91,5887.72 Z " />
<path stroke="transparent" fill="#000000" transform="matrix(0.0833333 0 0 0.0833333 -193.208 -174)" d="M 5988.11,6109.38 L 5980.79,6090.77 L 6533.85,5873.34 L 6551.91,5887.72 L 5988.11,6109.38 Z " />
<path stroke="transparent" fill="#000000" transform="matrix(0.0833333 0 0 0.0833333 -193.208 -174)" d="M 6957.28,6151.87 L 6944.82,6167.51 L 6542.82,5847.24 L 6555.29,5831.6 L 6957.28,6151.87 Z " />
<path stroke="transparent" fill="#000000" transform="matrix(0.0833333 0 0 0.0833333 -193.208 -174)" d="M 6912.42,6208.18 L 6899.95,6223.82 L 6497.97,5903.56 L 6510.43,5887.92 L 6912.42,6208.18 Z " />
<path stroke="transparent" fill="#000000" transform="matrix(0.0833333 0 0 0.0833333 -193.208 -174)" d="M 5607.84,5218.68 L 5601.23,5210.86 L 5606.26,5196.88 L 6154.18,4906.52 L 6162.72,4913.32 L 6161.61,4925.22 L 5607.84,5218.68 Z " />
<path stroke="transparent" fill="#000000" transform="matrix(0.0833333 0 0 0.0833333 -193.208 -174)" d="M 5247.45,5688.36 L 5236,5686.85 L 5231.58,5676.18 L 5589.78,5209.35 L 5601.23,5210.86 L 5607.84,5218.68 L 5247.45,5688.36 Z " />
<path stroke="transparent" fill="#000000" transform="matrix(0.0833333 0 0 0.0833333 -193.208 -174)" d="M 5212.12,5616.13 L 5196.25,5603.96 L 5510.87,5193.92 L 5526.74,5206.1 L 5212.12,5616.13 Z " />
<path stroke="transparent" fill="#000000" transform="matrix(0.0833333 0 0 0.0833333 -193.208 -174)" d="M 5231.58,5676.18 L 5236,5686.85 L 5228.97,5696.01 L 4645.51,5619.21 L 4641.1,5608.55 L 4648.12,5599.39 L 5231.58,5676.18 Z " />
<path stroke="transparent" fill="#000000" transform="matrix(0.0833333 0 0 0.0833333 -193.208 -174)" d="M 5474.81,6237.37 L 5456.33,6245.02 L 5228.97,5696.01 L 5236,5686.85 L 5247.45,5688.36 L 5474.81,6237.37 Z " />
<path stroke="transparent" fill="#000000" transform="matrix(0.0833333 0 0 0.0833333 -193.208 -174)" d="M 5364.58,4665.67 L 5371.61,4656.51 L 5384.67,4661.93 L 5606.26,5196.88 L 5601.23,5210.86 L 5589.78,5209.35 L 5364.58,4665.67 Z " />
<path stroke="transparent" fill="#000000" transform="matrix(0.0833333 0 0 0.0833333 -193.208 -174)" d="M 5363,4645.29 L 5371.61,4656.51 L 5364.58,4665.67 L 4781.18,4588.82 L 4776.76,4578.15 L 4788.96,4569.67 L 5363,4645.29 Z " />
<path stroke="transparent" fill="#000000" transform="matrix(0.0833333 0 0 0.0833333 -193.208 -174)" d="M 5922.13,4417.65 L 5929.78,4436.13 L 5384.67,4661.93 L 5371.61,4656.51 L 5383.78,4640.65 L 5922.13,4417.65 Z " />
<path stroke="transparent" fill="#000000" transform="matrix(0.0833333 0 0 0.0833333 -193.208 -174)" d="M 5439.99,4060.3 L 5459.82,4062.91 L 5383.78,4640.65 L 5371.61,4656.51 L 5363,4645.29 L 5439.99,4060.3 Z " />
</svg>
