<?xml version="1.0" standalone="no" ?>
<!DOCTYPE svg PUBLIC "-//W3C//DTD SVG 1.1//EN" "http://www.w3.org/Graphics/SVG/1.1/DTD/svg11.dtd">
<svg width="280px" height="137px" viewBox="0 0 280 137" style="background-color: #ffffff00" xmlns="http://www.w3.org/2000/svg" xmlns:xlink="http://www.w3.org/1999/xlink" version="1.1" >
<text x="0" y="0" stroke="transparent" fill="#000000" transform="matrix(0.0666667 0 0 0.0666667 222.53 13.9696)" style="font:normal normal normal 200px 'Arial'" >
O</text>
<text x="0" y="0" stroke="transparent" fill="#000000" transform="matrix(0.0666667 0 0 0.0666667 256.645 74.0702)" style="font:normal normal normal 200px 'Arial'" >
OH</text>
<text x="0" y="0" stroke="transparent" fill="#000000" transform="matrix(0.0666667 0 0 0.0666667 3.35286 134.175)" style="font:normal normal normal 200px 'Arial'" >
HO</text>
<text x="0" y="0" stroke="transparent" fill="#000000" transform="matrix(0.0666667 0 0 0.0666667 187.608 114.679)" style="font:normal normal normal 200px 'Arial'" >
O</text>
<path stroke="transparent" fill="#000000" transform="matrix(0.0666667 0 0 0.0666667 -208.787 -325)" d="M 6547.8,5604.19 L 6547.69,5627.16 L 6023.93,5919.51 L 6023.93,5896.6 L 6547.8,5604.19 Z " />
<path stroke="transparent" fill="#000000" transform="matrix(0.0666667 0 0 0.0666667 -208.787 -325)" d="M 6547.69,5627.16 L 6547.8,5604.19 L 6971.58,5846.32 L 6961.66,5863.68 L 6547.69,5627.16 Z " />
<path stroke="transparent" fill="#000000" transform="matrix(0.0666667 0 0 0.0666667 -208.787 -325)" d="M 6594.29,5636.55 L 6574.29,5636.55 L 6574.29,5126.38 L 6594.29,5126.38 L 6594.29,5636.55 Z " />
<path stroke="transparent" fill="#000000" transform="matrix(0.0666667 0 0 0.0666667 -208.787 -325)" d="M 6521.2,5636.07 L 6501.2,5636.07 L 6501.2,5126.38 L 6521.2,5126.38 L 6521.2,5636.07 Z " />
<path stroke="transparent" fill="#000000" transform="matrix(0.0666667 0 0 0.0666667 -208.787 -325)" d="M 6023.93,5896.6 L 6023.93,5919.51 L 5499.99,5627.12 L 5499.99,5604.22 L 6023.93,5896.6 Z " />
<path stroke="transparent" fill="#000000" transform="matrix(0.0666667 0 0 0.0666667 -208.787 -325)" d="M 5977.38,5887.66 L 5997.38,5887.66 L 5997.38,6412.01 L 5977.38,6412.01 L 5977.38,5887.66 Z " />
<path stroke="transparent" fill="#000000" transform="matrix(0.0666667 0 0 0.0666667 -208.787 -325)" d="M 6050.47,5887.65 L 6070.47,5887.65 L 6070.47,6412.01 L 6050.47,6412.01 L 6050.47,5887.65 Z " />
<path stroke="transparent" fill="#000000" transform="matrix(0.0666667 0 0 0.0666667 -208.787 -325)" d="M 5499.99,5604.22 L 5499.99,5627.12 L 4986.17,5913.92 L 4976.17,5908.05 L 4976.27,5896.54 L 5499.99,5604.22 Z " />
<path stroke="transparent" fill="#000000" transform="matrix(0.0666667 0 0 0.0666667 -208.787 -325)" d="M 4966.17,5913.81 L 4976.17,5908.05 L 4986.17,5913.92 L 4986.17,6510.78 L 4966.17,6499.28 L 4966.17,5913.81 Z " />
<path stroke="transparent" fill="#000000" transform="matrix(0.0666667 0 0 0.0666667 -208.787 -325)" d="M 4894.53,5949.27 L 4914.53,5949.27 L 4914.53,6463.81 L 4894.53,6463.81 L 4894.53,5949.27 Z " />
<path stroke="transparent" fill="#000000" transform="matrix(0.0666667 0 0 0.0666667 -208.787 -325)" d="M 4976.27,5896.54 L 4976.17,5908.05 L 4966.17,5913.81 L 4452.35,5615.12 L 4452.23,5591.92 L 4976.27,5896.54 Z " />
<path stroke="transparent" fill="#000000" transform="matrix(0.0666667 0 0 0.0666667 -208.787 -325)" d="M 4966.17,6499.28 L 4986.17,6510.78 L 4452.29,6821.19 L 4452.29,6798.05 L 4966.17,6499.28 Z " />
<path stroke="transparent" fill="#000000" transform="matrix(0.0666667 0 0 0.0666667 -208.787 -325)" d="M 4452.23,5591.92 L 4452.35,5615.12 L 3950.5,5913.81 L 3930.73,5902.3 L 4452.23,5591.92 Z " />
<path stroke="transparent" fill="#000000" transform="matrix(0.0666667 0 0 0.0666667 -208.787 -325)" d="M 4447.6,5677.82 L 4457.83,5695.01 L 4016.36,5957.76 L 4006.13,5940.58 L 4447.6,5677.82 Z " />
<path stroke="transparent" fill="#000000" transform="matrix(0.0666667 0 0 0.0666667 -208.787 -325)" d="M 4452.29,6798.05 L 4452.29,6821.19 L 3928.41,6516.6 L 3928.41,6505.03 L 3938.52,6499.34 L 4452.29,6798.05 Z " />
<path stroke="transparent" fill="#000000" transform="matrix(0.0666667 0 0 0.0666667 -208.787 -325)" d="M 4457.31,6716.86 L 4447.26,6734.15 L 3996.96,6472.34 L 4007.01,6455.05 L 4457.31,6716.86 Z " />
<path stroke="transparent" fill="#000000" transform="matrix(0.0666667 0 0 0.0666667 -208.787 -325)" d="M 3930.73,5902.3 L 3950.5,5913.81 L 3938.52,6499.34 L 3928.41,6505.03 L 3918.52,6499.21 L 3930.73,5902.3 Z " />
<path stroke="transparent" fill="#000000" transform="matrix(0.0666667 0 0 0.0666667 -208.787 -325)" d="M 3918.52,6499.21 L 3928.41,6505.03 L 3928.41,6516.6 L 3502,6764.52 L 3491.95,6747.23 L 3918.52,6499.21 Z " />
</svg>
