<?xml version="1.0" standalone="no" ?>
<!DOCTYPE svg PUBLIC "-//W3C//DTD SVG 1.1//EN" "http://www.w3.org/Graphics/SVG/1.1/DTD/svg11.dtd">
<svg width="882px" height="411px" viewBox="0 0 882 411" style="background-color: #ffffff00" xmlns="http://www.w3.org/2000/svg" xmlns:xlink="http://www.w3.org/1999/xlink" version="1.1" >
<text x="0" y="0" stroke="transparent" fill="#000000" transform="matrix(0.0833333 0 0 0.0833333 265.239 238.054)" style="font:normal normal normal 200px 'Arial'" >
O</text>
<text x="0" y="0" stroke="transparent" fill="#000000" transform="matrix(0.0833333 0 0 0.0833333 308.535 312.985)" style="font:normal normal normal 200px 'Arial'" >
O</text>
<text x="0" y="0" stroke="transparent" fill="#000000" transform="matrix(0.0833333 0 0 0.0833333 395.126 313.24)" style="font:normal normal normal 200px 'Arial'" >
O</text>
<text x="0" y="0" stroke="transparent" fill="#000000" transform="matrix(0.0833333 0 0 0.0833333 481.578 262.987)" style="font:normal normal normal 200px 'Arial'" >
O</text>
<text x="0" y="0" stroke="transparent" fill="#000000" transform="matrix(0.0833333 0 0 0.0833333 352.33 86.8889)" style="font:normal normal normal 200px 'Arial'" >
N</text>
<text x="0" y="0" stroke="transparent" fill="#000000" transform="matrix(0.0833333 0 0 0.0833333 222.801 112.003)" style="font:normal normal normal 200px 'Arial'" >
N</text>
<text x="0" y="0" stroke="transparent" fill="#000000" transform="matrix(0.0833333 0 0 0.0833333 222.801 125.809)" style="font:normal normal normal 200px 'Arial'" >
H</text>
<text x="0" y="0" stroke="transparent" fill="#000000" transform="matrix(0.0833333 0 0 0.0833333 524.946 188.001)" style="font:normal normal normal 200px 'Arial'" >
O</text>
<text x="0" y="0" stroke="transparent" fill="#000000" transform="matrix(0.0833333 0 0 0.0833333 611.313 388.043)" style="font:normal normal normal 200px 'Arial'" >
O</text>
<text x="0" y="0" stroke="transparent" fill="#000000" transform="matrix(0.0833333 0 0 0.0833333 698.062 238.054)" style="font:normal normal normal 200px 'Arial'" >
O</text>
<text x="0" y="0" stroke="transparent" fill="#000000" transform="matrix(0.0833333 0 0 0.0833333 49.4879 111.888)" style="font:normal normal normal 200px 'Arial'" >
O</text>
<text x="0" y="0" stroke="transparent" fill="#000000" transform="matrix(0.0833333 0 0 0.0833333 698.062 338.045)" style="font:normal normal normal 200px 'Arial'" >
O</text>
<text x="0" y="0" stroke="transparent" fill="#000000" transform="matrix(0.0833333 0 0 0.0833333 784.678 338.045)" style="font:normal normal normal 200px 'Arial'" >
O</text>
<text x="0" y="0" stroke="transparent" fill="#000000" transform="matrix(0.0833333 0 0 0.0833333 741.431 262.987)" style="font:normal normal normal 200px 'Arial'" >
O</text>
<text x="0" y="0" stroke="transparent" fill="#000000" transform="matrix(0.0833333 0 0 0.0833333 309.15 62.0108)" style="font:normal normal normal 200px 'Arial'" >
H</text>
<text x="0" y="0" stroke="transparent" fill="#000000" transform="matrix(0.0833333 0 0 0.0833333 352.33 137.633)" style="font:normal normal normal 200px 'Arial'" >
H</text>
<text x="0" y="0" stroke="transparent" fill="#000000" transform="matrix(0.0833333 0 0 0.0833333 395.626 212.503)" style="font:normal normal normal 200px 'Arial'" >
H</text>
<path stroke="transparent" fill="#000000" transform="matrix(0.0833333 0 0 0.0833333 -21.1667 -154)" d="M 3609.97,4692.95 L 3619.95,4675.62 L 3982.28,4884.27 L 4082.66,4965.16 L 3609.97,4692.95 Z " />
<path stroke="transparent" fill="#000000" transform="matrix(0.0833333 0 0 0.0833333 -21.1667 -154)" d="M 4080.41,5420.65 L 4060.41,5420.65 L 4060.41,4905.11 L 4080.41,4905.11 L 4080.41,5420.65 Z " />
<path stroke="transparent" fill="#000000" transform="matrix(0.0833333 0 0 0.0833333 -21.1667 -154)" d="M 4008.42,5420.65 L 3988.42,5420.65 L 3988.42,4905.11 L 4008.42,4905.11 L 4008.42,5420.65 Z " />
<path stroke="transparent" fill="#000000" transform="matrix(0.0833333 0 0 0.0833333 -21.1667 -154)" d="M 4082.66,4965.16 L 3982.28,4884.27 L 4543.96,4620.34 L 4553.96,4626.65 L 4554.4,4638.47 L 4082.66,4965.16 Z " />
<path stroke="transparent" fill="#000000" transform="matrix(0.0833333 0 0 0.0833333 -21.1667 -154)" d="M 2998.79,4936.03 L 2988.79,4918.71 L 3410.26,4675.47 L 3420.25,4692.8 L 2998.79,4936.03 Z " />
<path stroke="transparent" fill="#000000" transform="matrix(0.0833333 0 0 0.0833333 -21.1667 -154)" d="M 4543.96,4027.33 L 4553.96,4021.58 L 4563.96,4027.33 L 4563.96,4620.9 L 4553.96,4626.65 L 4543.96,4620.34 L 4543.96,4027.33 Z " />
<path stroke="transparent" fill="#000000" transform="matrix(0.0833333 0 0 0.0833333 -21.1667 -154)" d="M 5073.51,4917.32 L 5073.52,4940.47 L 4554.4,4638.47 L 4553.96,4626.65 L 4563.96,4620.9 L 5073.51,4917.32 Z " />
<path stroke="transparent" fill="#000000" transform="matrix(0.0833333 0 0 0.0833333 -21.1667 -154)" d="M 4025.8,3725.81 L 4045.8,3714.31 L 4553.97,4010.01 L 4553.96,4021.58 L 4543.96,4027.33 L 4025.8,3725.81 Z " />
<path stroke="transparent" fill="#000000" transform="matrix(0.0833333 0 0 0.0833333 -21.1667 -154)" d="M 5063.51,3714.3 L 5073.51,3720.06 L 5073.51,3731.62 L 4563.96,4027.33 L 4553.96,4021.58 L 4553.97,4010.01 L 5063.51,3714.3 Z " />
<path stroke="transparent" fill="#000000" transform="matrix(0.0833333 0 0 0.0833333 -21.1667 -154)" d="M 4493.96,3538.93 L 4613.96,3538.93 L 4611.63,3558.93 L 4496.3,3558.93 L 4493.96,3538.93 Z " />
<path stroke="transparent" fill="#000000" transform="matrix(0.0833333 0 0 0.0833333 -21.1667 -154)" d="M 4500.77,3597.29 L 4607.15,3597.29 L 4604.82,3617.29 L 4503.11,3617.29 L 4500.77,3597.29 Z " />
<path stroke="transparent" fill="#000000" transform="matrix(0.0833333 0 0 0.0833333 -21.1667 -154)" d="M 4507.58,3655.66 L 4600.34,3655.66 L 4598.01,3675.66 L 4509.92,3675.66 L 4507.58,3655.66 Z " />
<path stroke="transparent" fill="#000000" transform="matrix(0.0833333 0 0 0.0833333 -21.1667 -154)" d="M 4514.39,3714.03 L 4593.54,3714.03 L 4591.2,3734.03 L 4516.73,3734.03 L 4514.39,3714.03 Z " />
<path stroke="transparent" fill="#000000" transform="matrix(0.0833333 0 0 0.0833333 -21.1667 -154)" d="M 4521.2,3772.4 L 4586.73,3772.4 L 4584.39,3792.4 L 4523.54,3792.4 L 4521.2,3772.4 Z " />
<path stroke="transparent" fill="#000000" transform="matrix(0.0833333 0 0 0.0833333 -21.1667 -154)" d="M 4528.01,3830.77 L 4579.92,3830.77 L 4577.58,3850.77 L 4530.34,3850.77 L 4528.01,3830.77 Z " />
<path stroke="transparent" fill="#000000" transform="matrix(0.0833333 0 0 0.0833333 -21.1667 -154)" d="M 4534.82,3889.13 L 4573.11,3889.13 L 4570.77,3909.13 L 4537.15,3909.13 L 4534.82,3889.13 Z " />
<path stroke="transparent" fill="#000000" transform="matrix(0.0833333 0 0 0.0833333 -21.1667 -154)" d="M 4541.63,3947.5 L 4566.3,3947.5 L 4563.96,3967.5 L 4543.96,3967.5 L 4541.63,3947.5 Z " />
<path stroke="transparent" fill="#000000" transform="matrix(0.0833333 0 0 0.0833333 -21.1667 -154)" d="M 5133.51,5423.71 L 5013.51,5423.71 L 5015.78,5403.71 L 5131.24,5403.71 L 5133.51,5423.71 Z " />
<path stroke="transparent" fill="#000000" transform="matrix(0.0833333 0 0 0.0833333 -21.1667 -154)" d="M 5126.69,5363.61 L 5020.33,5363.61 L 5022.6,5343.61 L 5124.42,5343.61 L 5126.69,5363.61 Z " />
<path stroke="transparent" fill="#000000" transform="matrix(0.0833333 0 0 0.0833333 -21.1667 -154)" d="M 5119.87,5303.5 L 5027.15,5303.5 L 5029.42,5283.5 L 5117.61,5283.5 L 5119.87,5303.5 Z " />
<path stroke="transparent" fill="#000000" transform="matrix(0.0833333 0 0 0.0833333 -21.1667 -154)" d="M 5113.06,5243.4 L 5033.97,5243.4 L 5036.24,5223.4 L 5110.79,5223.4 L 5113.06,5243.4 Z " />
<path stroke="transparent" fill="#000000" transform="matrix(0.0833333 0 0 0.0833333 -21.1667 -154)" d="M 5106.24,5183.29 L 5040.79,5183.29 L 5043.06,5163.29 L 5103.97,5163.29 L 5106.24,5183.29 Z " />
<path stroke="transparent" fill="#000000" transform="matrix(0.0833333 0 0 0.0833333 -21.1667 -154)" d="M 5099.42,5123.19 L 5047.61,5123.19 L 5049.87,5103.19 L 5097.15,5103.19 L 5099.42,5123.19 Z " />
<path stroke="transparent" fill="#000000" transform="matrix(0.0833333 0 0 0.0833333 -21.1667 -154)" d="M 5092.6,5063.09 L 5054.42,5063.09 L 5056.69,5043.09 L 5090.33,5043.09 L 5092.6,5063.09 Z " />
<path stroke="transparent" fill="#000000" transform="matrix(0.0833333 0 0 0.0833333 -21.1667 -154)" d="M 5085.78,5002.98 L 5061.24,5002.98 L 5063.51,4982.98 L 5083.51,4982.98 L 5085.78,5002.98 Z " />
<path stroke="transparent" fill="#000000" transform="matrix(0.0833333 0 0 0.0833333 -21.1667 -154)" d="M 5581.9,4620.9 L 5591.9,4626.65 L 5591.37,4638.53 L 5073.52,4940.47 L 5073.51,4917.32 L 5581.9,4620.9 Z " />
<path stroke="transparent" fill="#000000" transform="matrix(0.0833333 0 0 0.0833333 -21.1667 -154)" d="M 4025.8,3119.79 L 4035.8,3114.04 L 4045.8,3119.79 L 4045.8,3714.31 L 4025.8,3725.81 L 4025.8,3119.79 Z " />
<path stroke="transparent" fill="#000000" transform="matrix(0.0833333 0 0 0.0833333 -21.1667 -154)" d="M 5063.51,3119.8 L 5083.51,3108.28 L 5083.51,3714.31 L 5073.51,3720.06 L 5063.51,3714.3 L 5063.51,3119.8 Z " />
<path stroke="transparent" fill="#000000" transform="matrix(0.0833333 0 0 0.0833333 -21.1667 -154)" d="M 5601.9,4015.82 L 5581.9,4027.33 L 5073.51,3731.62 L 5073.51,3720.06 L 5083.51,3714.31 L 5601.9,4015.82 Z " />
<path stroke="transparent" fill="#000000" transform="matrix(0.0833333 0 0 0.0833333 -21.1667 -154)" d="M 5133.51,4217.37 L 5013.51,4217.37 L 5015.77,4197.37 L 5131.26,4197.37 L 5133.51,4217.37 Z " />
<path stroke="transparent" fill="#000000" transform="matrix(0.0833333 0 0 0.0833333 -21.1667 -154)" d="M 5126.69,4156.9 L 5020.33,4156.9 L 5022.59,4136.9 L 5124.43,4136.9 L 5126.69,4156.9 Z " />
<path stroke="transparent" fill="#000000" transform="matrix(0.0833333 0 0 0.0833333 -21.1667 -154)" d="M 5119.87,4096.44 L 5027.15,4096.44 L 5029.41,4076.44 L 5117.61,4076.44 L 5119.87,4096.44 Z " />
<path stroke="transparent" fill="#000000" transform="matrix(0.0833333 0 0 0.0833333 -21.1667 -154)" d="M 5113.05,4035.97 L 5033.97,4035.97 L 5036.23,4015.97 L 5110.79,4015.97 L 5113.05,4035.97 Z " />
<path stroke="transparent" fill="#000000" transform="matrix(0.0833333 0 0 0.0833333 -21.1667 -154)" d="M 5106.23,3975.5 L 5040.79,3975.5 L 5043.05,3955.5 L 5103.97,3955.5 L 5106.23,3975.5 Z " />
<path stroke="transparent" fill="#000000" transform="matrix(0.0833333 0 0 0.0833333 -21.1667 -154)" d="M 5099.41,3915.03 L 5047.61,3915.03 L 5049.87,3895.03 L 5097.15,3895.03 L 5099.41,3915.03 Z " />
<path stroke="transparent" fill="#000000" transform="matrix(0.0833333 0 0 0.0833333 -21.1667 -154)" d="M 5092.59,3854.56 L 5054.43,3854.56 L 5056.69,3834.56 L 5090.33,3834.56 L 5092.59,3854.56 Z " />
<path stroke="transparent" fill="#000000" transform="matrix(0.0833333 0 0 0.0833333 -21.1667 -154)" d="M 5085.77,3794.09 L 5061.26,3794.09 L 5063.51,3774.09 L 5083.51,3774.09 L 5085.77,3794.09 Z " />
<path stroke="transparent" fill="#000000" transform="matrix(0.0833333 0 0 0.0833333 -21.1667 -154)" d="M 5598.41,5819.33 L 5588.44,5836.66 L 5168.63,5595.14 L 5178.61,5577.8 L 5598.41,5819.33 Z " />
<path stroke="transparent" fill="#000000" transform="matrix(0.0833333 0 0 0.0833333 -21.1667 -154)" d="M 5581.9,4027.33 L 5601.9,4015.82 L 5601.9,4620.23 L 5591.9,4626.65 L 5581.9,4620.9 L 5581.9,4027.33 Z " />
<path stroke="transparent" fill="#000000" transform="matrix(0.0833333 0 0 0.0833333 -21.1667 -154)" d="M 6048.24,4820.45 L 5988.32,4924.41 L 5591.37,4638.53 L 5591.9,4626.65 L 5601.9,4620.23 L 6048.24,4820.45 Z " />
<path stroke="transparent" fill="#000000" transform="matrix(0.0833333 0 0 0.0833333 -21.1667 -154)" d="M 3517.7,2824.24 L 3517.7,2812.67 L 3527.7,2806.91 L 4023.88,3095.54 L 4035.8,3114.04 L 4025.8,3119.79 L 3517.7,2824.24 Z " />
<path stroke="transparent" fill="#000000" transform="matrix(0.0833333 0 0 0.0833333 -21.1667 -154)" d="M 4438.91,2868.02 L 4448.96,2885.31 L 4045.8,3119.79 L 4035.8,3114.04 L 4047.71,3095.54 L 4438.91,2868.02 Z " />
<path stroke="transparent" fill="#000000" transform="matrix(0.0833333 0 0 0.0833333 -21.1667 -154)" d="M 3975.8,2631.46 L 4095.8,2631.46 L 4047.71,3095.54 L 4035.8,3114.04 L 4023.88,3095.54 L 3975.8,2631.46 Z " />
<path stroke="transparent" fill="#000000" transform="matrix(0.0833333 0 0 0.0833333 -21.1667 -154)" d="M 4659.01,2885.16 L 4669.05,2867.86 L 5083.51,3108.28 L 5063.51,3119.8 L 4659.01,2885.16 Z " />
<path stroke="transparent" fill="#000000" transform="matrix(0.0833333 0 0 0.0833333 -21.1667 -154)" d="M 6631.36,4615.11 L 6631.35,4638.19 L 6208.63,4881.21 L 6198.66,4863.87 L 6631.36,4615.11 Z " />
<path stroke="transparent" fill="#000000" transform="matrix(0.0833333 0 0 0.0833333 -21.1667 -154)" d="M 3507.7,2218.18 L 3517.7,2208.18 L 3527.7,2213.91 L 3527.7,2806.91 L 3517.7,2812.67 L 3507.7,2806.91 L 3507.7,2218.18 Z " />
<path stroke="transparent" fill="#000000" transform="matrix(0.0833333 0 0 0.0833333 -21.1667 -154)" d="M 3435.16,2280.71 L 3455.16,2280.71 L 3455.16,2770.94 L 3435.16,2770.94 L 3435.16,2280.71 Z " />
<path stroke="transparent" fill="#000000" transform="matrix(0.0833333 0 0 0.0833333 -21.1667 -154)" d="M 3108.29,3062.39 L 3098.24,3045.1 L 3507.7,2806.91 L 3517.7,2812.67 L 3517.7,2824.24 L 3108.29,3062.39 Z " />
<path stroke="transparent" fill="#000000" transform="matrix(0.0833333 0 0 0.0833333 -21.1667 -154)" d="M 4543.96,2213.91 L 4563.96,2202.44 L 4563.96,2710 L 4543.96,2710 L 4543.96,2213.91 Z " />
<path stroke="transparent" fill="#000000" transform="matrix(0.0833333 0 0 0.0833333 -21.1667 -154)" d="M 6585.32,4145.84 L 6605.32,4145.84 L 6605.32,4647.37 L 6585.32,4647.37 L 6585.32,4145.84 Z " />
<path stroke="transparent" fill="#000000" transform="matrix(0.0833333 0 0 0.0833333 -21.1667 -154)" d="M 6657.39,4145.84 L 6677.39,4145.84 L 6677.39,4647.42 L 6657.39,4647.42 L 6657.39,4145.84 Z " />
<path stroke="transparent" fill="#000000" transform="matrix(0.0833333 0 0 0.0833333 -21.1667 -154)" d="M 7150.31,4914.29 L 7150.32,4925.84 L 7140.32,4931.62 L 6631.35,4638.19 L 6631.36,4615.11 L 7150.31,4914.29 Z " />
<path stroke="transparent" fill="#000000" transform="matrix(0.0833333 0 0 0.0833333 -21.1667 -154)" d="M 2491.52,2218.18 L 2481.52,2208.18 L 2484.23,2198.18 L 3514.99,2198.18 L 3517.7,2208.18 L 3507.7,2218.18 L 2491.52,2218.18 Z " />
<path stroke="transparent" fill="#000000" transform="matrix(0.0833333 0 0 0.0833333 -21.1667 -154)" d="M 4035.8,1893.62 L 4035.8,1916.79 L 3527.7,2213.91 L 3517.7,2208.18 L 3514.99,2198.18 L 4035.8,1893.62 Z " />
<path stroke="transparent" fill="#000000" transform="matrix(0.0833333 0 0 0.0833333 -21.1667 -154)" d="M 2481.52,2824.24 L 2481.52,2812.67 L 2491.52,2806.91 L 2900.98,3045.1 L 2890.93,3062.39 L 2481.52,2824.24 Z " />
<path stroke="transparent" fill="#000000" transform="matrix(0.0833333 0 0 0.0833333 -21.1667 -154)" d="M 4035.8,1916.79 L 4035.8,1893.62 L 4563.96,2202.44 L 4543.96,2213.91 L 4035.8,1916.79 Z " />
<path stroke="transparent" fill="#000000" transform="matrix(0.0833333 0 0 0.0833333 -21.1667 -154)" d="M 7160.32,5520.07 L 7140.32,5531.58 L 7140.32,4931.62 L 7150.32,4925.84 L 7160.32,4931.61 L 7160.32,5520.07 Z " />
<path stroke="transparent" fill="#000000" transform="matrix(0.0833333 0 0 0.0833333 -21.1667 -154)" d="M 7232.32,5484.39 L 7212.32,5484.39 L 7212.32,4967.38 L 7232.32,4967.38 L 7232.32,5484.39 Z " />
<path stroke="transparent" fill="#000000" transform="matrix(0.0833333 0 0 0.0833333 -21.1667 -154)" d="M 7667.74,4615.11 L 7667.78,4638.19 L 7160.32,4931.61 L 7150.32,4925.84 L 7150.31,4914.29 L 7667.74,4615.11 Z " />
<path stroke="transparent" fill="#000000" transform="matrix(0.0833333 0 0 0.0833333 -21.1667 -154)" d="M 2491.52,2806.91 L 2481.52,2812.67 L 2471.52,2806.91 L 2471.52,2213.91 L 2481.52,2208.18 L 2491.52,2218.18 L 2491.52,2806.91 Z " />
<path stroke="transparent" fill="#000000" transform="matrix(0.0833333 0 0 0.0833333 -21.1667 -154)" d="M 1963.42,1916.79 L 1963.42,1893.62 L 2484.23,2198.18 L 2481.52,2208.18 L 2471.52,2213.91 L 1963.42,1916.79 Z " />
<path stroke="transparent" fill="#000000" transform="matrix(0.0833333 0 0 0.0833333 -21.1667 -154)" d="M 1958.38,1997.27 L 1968.48,1980.01 L 2414.54,2240.86 L 2404.45,2258.12 L 1958.38,1997.27 Z " />
<path stroke="transparent" fill="#000000" transform="matrix(0.0833333 0 0 0.0833333 -21.1667 -154)" d="M 1963.42,3125.61 L 1963.42,3102.47 L 2471.52,2806.91 L 2481.52,2812.67 L 2481.52,2824.24 L 1963.42,3125.61 Z " />
<path stroke="transparent" fill="#000000" transform="matrix(0.0833333 0 0 0.0833333 -21.1667 -154)" d="M 1968.46,3039.47 L 1958.4,3022.18 L 2404.56,2762.65 L 2414.62,2779.94 L 1968.46,3039.47 Z " />
<path stroke="transparent" fill="#000000" transform="matrix(0.0833333 0 0 0.0833333 -21.1667 -154)" d="M 7667.78,5814.99 L 7667.76,5826.54 L 7657.76,5832.29 L 7140.32,5531.58 L 7160.32,5520.07 L 7667.78,5814.99 Z " />
<path stroke="transparent" fill="#000000" transform="matrix(0.0833333 0 0 0.0833333 -21.1667 -154)" d="M 8189.77,4914.3 L 8189.78,4925.84 L 8179.78,4931.63 L 7667.78,4638.19 L 7667.74,4615.11 L 8189.77,4914.3 Z " />
<path stroke="transparent" fill="#000000" transform="matrix(0.0833333 0 0 0.0833333 -21.1667 -154)" d="M 8122.55,4959 L 8112.61,4976.35 L 7662.95,4718.64 L 7672.89,4701.28 L 8122.55,4959 Z " />
<path stroke="transparent" fill="#000000" transform="matrix(0.0833333 0 0 0.0833333 -21.1667 -154)" d="M 1455.48,2213.91 L 1435.48,2202.44 L 1963.42,1893.62 L 1963.42,1916.79 L 1455.48,2213.91 Z " />
<path stroke="transparent" fill="#000000" transform="matrix(0.0833333 0 0 0.0833333 -21.1667 -154)" d="M 1445.46,2824.22 L 1445.48,2812.67 L 1455.48,2806.92 L 1963.42,3102.47 L 1963.42,3125.61 L 1445.46,2824.22 Z " />
<path stroke="transparent" fill="#000000" transform="matrix(0.0833333 0 0 0.0833333 -21.1667 -154)" d="M 7677.76,6321.35 L 7657.76,6321.35 L 7657.76,5832.29 L 7667.76,5826.54 L 7677.76,5832.32 L 7677.76,6321.35 Z " />
<path stroke="transparent" fill="#000000" transform="matrix(0.0833333 0 0 0.0833333 -21.1667 -154)" d="M 8179.78,5520.04 L 8189.78,5525.82 L 8189.77,5537.37 L 7677.76,5832.32 L 7667.76,5826.54 L 7667.78,5814.99 L 8179.78,5520.04 Z " />
<path stroke="transparent" fill="#000000" transform="matrix(0.0833333 0 0 0.0833333 -21.1667 -154)" d="M 8112.5,5475.37 L 8122.48,5492.7 L 7672.91,5751.68 L 7662.93,5734.35 L 8112.5,5475.37 Z " />
<path stroke="transparent" fill="#000000" transform="matrix(0.0833333 0 0 0.0833333 -21.1667 -154)" d="M 8199.78,5520.06 L 8189.78,5525.82 L 8179.78,5520.04 L 8179.78,4931.63 L 8189.78,4925.84 L 8199.78,4931.62 L 8199.78,5520.06 Z " />
<path stroke="transparent" fill="#000000" transform="matrix(0.0833333 0 0 0.0833333 -21.1667 -154)" d="M 8604.12,4675.42 L 8614.11,4692.75 L 8199.78,4931.62 L 8189.78,4925.84 L 8189.77,4914.3 L 8604.12,4675.42 Z " />
<path stroke="transparent" fill="#000000" transform="matrix(0.0833333 0 0 0.0833333 -21.1667 -154)" d="M 1455.48,2806.92 L 1445.48,2812.67 L 1435.48,2806.89 L 1435.48,2202.44 L 1455.48,2213.91 L 1455.48,2806.92 Z " />
<path stroke="transparent" fill="#000000" transform="matrix(0.0833333 0 0 0.0833333 -21.1667 -154)" d="M 1528.01,2770.95 L 1508.01,2770.95 L 1508.01,2249.78 L 1528.01,2249.78 L 1528.01,2770.95 Z " />
<path stroke="transparent" fill="#000000" transform="matrix(0.0833333 0 0 0.0833333 -21.1667 -154)" d="M 1023.47,3067.85 L 1013.47,3050.53 L 1435.48,2806.89 L 1445.48,2812.67 L 1445.46,2824.22 L 1023.47,3067.85 Z " />
<path stroke="transparent" fill="#000000" transform="matrix(0.0833333 0 0 0.0833333 -21.1667 -154)" d="M 8193.24,6717.04 L 8183.27,6734.38 L 7762.9,6492.74 L 7772.87,6475.41 L 8193.24,6717.04 Z " />
<path stroke="transparent" fill="#000000" transform="matrix(0.0833333 0 0 0.0833333 -21.1667 -154)" d="M 8621.22,5764.27 L 8611.2,5781.57 L 8189.77,5537.37 L 8189.78,5525.82 L 8199.78,5520.06 L 8621.22,5764.27 Z " />
<path stroke="transparent" fill="#000000" transform="matrix(0.0833333 0 0 0.0833333 -21.1667 -154)" d="M 8698.75,4026.01 L 8718.75,4026.01 L 8718.75,4521.48 L 8698.75,4521.48 L 8698.75,4026.01 Z " />
<path stroke="transparent" fill="#000000" transform="matrix(0.0833333 0 0 0.0833333 -21.1667 -154)" d="M 300,2762.78 L 310.002,2745.46 L 838.242,3050.51 L 828.24,3067.83 L 300,2762.78 Z " />
<path stroke="transparent" fill="#000000" transform="matrix(0.0833333 0 0 0.0833333 -21.1667 -154)" d="M 9229.17,5514.27 L 9229.16,5537.37 L 8806.35,5781.69 L 8796.34,5764.37 L 9229.17,5514.27 Z " />
<path stroke="transparent" fill="#000000" transform="matrix(0.0833333 0 0 0.0833333 -21.1667 -154)" d="M 9660.61,5764.27 L 9650.58,5781.57 L 9229.16,5537.37 L 9229.17,5514.27 L 9660.61,5764.27 Z " />
<path stroke="transparent" fill="#000000" transform="matrix(0.0833333 0 0 0.0833333 -21.1667 -154)" d="M 9183.17,5045.67 L 9203.17,5045.67 L 9203.17,5546.62 L 9183.17,5546.62 L 9183.17,5045.67 Z " />
<path stroke="transparent" fill="#000000" transform="matrix(0.0833333 0 0 0.0833333 -21.1667 -154)" d="M 9255.17,5045.67 L 9275.17,5045.67 L 9275.17,5546.68 L 9255.17,5546.68 L 9255.17,5045.67 Z " />
<path stroke="transparent" fill="#000000" transform="matrix(0.0833333 0 0 0.0833333 -21.1667 -154)" d="M 10265.6,5514.26 L 10265.7,5537.38 L 9845.63,5781.45 L 9835.58,5764.16 L 10265.6,5514.26 Z " />
<path stroke="transparent" fill="#000000" transform="matrix(0.0833333 0 0 0.0833333 -21.1667 -154)" d="M 10791.1,5817.88 L 10781.1,5835.2 L 10265.7,5537.38 L 10265.6,5514.26 L 10791.1,5817.88 Z " />
</svg>
