<?xml version="1.0" standalone="no" ?>
<!DOCTYPE svg PUBLIC "-//W3C//DTD SVG 1.1//EN" "http://www.w3.org/Graphics/SVG/1.1/DTD/svg11.dtd">
<svg width="327px" height="239px" viewBox="0 0 327 239" style="background-color: #ffffff00" xmlns="http://www.w3.org/2000/svg" xmlns:xlink="http://www.w3.org/1999/xlink" version="1.1" >
<text x="0" y="0" stroke="transparent" fill="#000000" transform="matrix(0.0833333 0 0 0.0833333 135.612 18.0981)" style="font:normal normal normal 200px 'Arial'" >
O</text>
<text x="0" y="0" stroke="transparent" fill="#000000" transform="matrix(0.0833333 0 0 0.0833333 265.466 143.7)" style="font:normal normal normal 200px 'Arial'" >
N</text>
<text x="0" y="0" stroke="transparent" fill="#000000" transform="matrix(0.0833333 0 0 0.0833333 290.221 50.2381)" style="font:normal normal normal 200px 'Arial'" >
O</text>
<text x="0" y="0" stroke="transparent" fill="#000000" transform="matrix(0.0833333 0 0 0.0833333 49.301 118.639)" style="font:normal normal normal 200px 'Arial'" >
O</text>
<text x="0" y="0" stroke="transparent" fill="#000000" transform="matrix(0.0833333 0 0 0.0833333 49.301 218.871)" style="font:normal normal normal 200px 'Arial'" >
O</text>
<path stroke="transparent" fill="#000000" transform="matrix(0.0833333 0 0 0.0833333 -263.208 -240)" d="M 4347.37,3327.99 L 4337.39,3310.66 L 4759.19,3067.88 L 4769.16,3085.21 L 4347.37,3327.99 Z " />
<path stroke="transparent" fill="#000000" transform="matrix(0.0833333 0 0 0.0833333 -263.208 -240)" d="M 4933.97,3128.82 L 4993.87,3024.85 L 5010.04,3036.85 L 4952.46,3136.79 L 4933.97,3128.82 Z " />
<path stroke="transparent" fill="#000000" transform="matrix(0.0833333 0 0 0.0833333 -263.208 -240)" d="M 4987.95,3152.06 L 5041.05,3059.89 L 5057.22,3071.89 L 5006.44,3160.03 L 4987.95,3152.06 Z " />
<path stroke="transparent" fill="#000000" transform="matrix(0.0833333 0 0 0.0833333 -263.208 -240)" d="M 5041.93,3175.3 L 5088.24,3094.93 L 5104.4,3106.93 L 5060.42,3183.27 L 5041.93,3175.3 Z " />
<path stroke="transparent" fill="#000000" transform="matrix(0.0833333 0 0 0.0833333 -263.208 -240)" d="M 5095.91,3198.54 L 5135.42,3129.97 L 5151.58,3141.97 L 5114.4,3206.51 L 5095.91,3198.54 Z " />
<path stroke="transparent" fill="#000000" transform="matrix(0.0833333 0 0 0.0833333 -263.208 -240)" d="M 5149.89,3221.79 L 5182.6,3165.01 L 5198.77,3177.02 L 5168.39,3229.75 L 5149.89,3221.79 Z " />
<path stroke="transparent" fill="#000000" transform="matrix(0.0833333 0 0 0.0833333 -263.208 -240)" d="M 5203.87,3245.03 L 5229.78,3200.05 L 5245.95,3212.06 L 5222.37,3252.99 L 5203.87,3245.03 Z " />
<path stroke="transparent" fill="#000000" transform="matrix(0.0833333 0 0 0.0833333 -263.208 -240)" d="M 5257.85,3268.27 L 5276.96,3235.09 L 5293.13,3247.1 L 5276.35,3276.23 L 5257.85,3268.27 Z " />
<path stroke="transparent" fill="#000000" transform="matrix(0.0833333 0 0 0.0833333 -263.208 -240)" d="M 5311.83,3291.51 L 5324.15,3270.13 L 5340.31,3282.14 L 5330.33,3299.47 L 5311.83,3291.51 Z " />
<path stroke="transparent" fill="#000000" transform="matrix(0.0833333 0 0 0.0833333 -263.208 -240)" d="M 5392.18,3855.02 L 5372.18,3982.59 L 5372.18,3312.05 L 5392.18,3323.55 L 5392.18,3855.02 Z " />
<path stroke="transparent" fill="#000000" transform="matrix(0.0833333 0 0 0.0833333 -263.208 -240)" d="M 5899.87,3004.62 L 5899.85,3027.77 L 5392.18,3323.55 L 5372.18,3312.05 L 5899.87,3004.62 Z " />
<path stroke="transparent" fill="#000000" transform="matrix(0.0833333 0 0 0.0833333 -263.208 -240)" d="M 5372.18,3982.59 L 5392.18,3855.02 L 5900.31,4212.35 L 5899.86,4224.22 L 5878.56,4225.07 L 5372.18,3982.59 Z " />
<path stroke="transparent" fill="#000000" transform="matrix(0.0833333 0 0 0.0833333 -263.208 -240)" d="M 6426.09,3312.06 L 6406.09,3323.54 L 5899.85,3027.77 L 5899.87,3004.62 L 6426.09,3312.06 L 6426.09,3312.06 Z " />
<path stroke="transparent" fill="#000000" transform="matrix(0.0833333 0 0 0.0833333 -263.208 -240)" d="M 6349.39,3350.34 L 6339.3,3367.61 L 5894.76,3107.89 L 5904.85,3090.62 L 6349.39,3350.34 L 6349.39,3350.34 Z " />
<path stroke="transparent" fill="#000000" transform="matrix(0.0833333 0 0 0.0833333 -263.208 -240)" d="M 6406.09,3915.36 L 6416.09,3921.08 L 6418.81,3931.08 L 5919.63,4224.2 L 5899.86,4224.22 L 5900.31,4212.35 L 6406.09,3915.36 Z " />
<path stroke="transparent" fill="#000000" transform="matrix(0.0833333 0 0 0.0833333 -263.208 -240)" d="M 5392.18,4532.15 L 5382.18,4526.4 L 5382.18,4514.82 L 5878.56,4225.07 L 5899.86,4224.22 L 5899.85,4235.8 L 5392.18,4532.15 Z " />
<path stroke="transparent" fill="#000000" transform="matrix(0.0833333 0 0 0.0833333 -263.208 -240)" d="M 6317.59,4457.16 L 6307.49,4474.42 L 5899.85,4235.8 L 5899.86,4224.22 L 5919.63,4224.2 L 6317.59,4457.16 Z " />
<path stroke="transparent" fill="#000000" transform="matrix(0.0833333 0 0 0.0833333 -263.208 -240)" d="M 6426.09,3911.08 L 6416.09,3921.08 L 6406.09,3915.36 L 6406.09,3323.54 L 6426.09,3312.06 L 6426.09,3911.08 Z " />
<path stroke="transparent" fill="#000000" transform="matrix(0.0833333 0 0 0.0833333 -263.208 -240)" d="M 7030.83,3911.08 L 7010.83,3931.08 L 6418.81,3931.08 L 6416.09,3921.08 L 6426.09,3911.08 L 7030.83,3911.08 Z " />
<path stroke="transparent" fill="#000000" transform="matrix(0.0833333 0 0 0.0833333 -263.208 -240)" d="M 6606.31,3478.55 L 6709.79,3539.3 L 6697.63,3555.36 L 6598.22,3496.99 L 6606.31,3478.55 Z " />
<path stroke="transparent" fill="#000000" transform="matrix(0.0833333 0 0 0.0833333 -263.208 -240)" d="M 6582.97,3531.75 L 6674.72,3585.61 L 6662.56,3601.66 L 6574.88,3550.19 L 6582.97,3531.75 Z " />
<path stroke="transparent" fill="#000000" transform="matrix(0.0833333 0 0 0.0833333 -263.208 -240)" d="M 6559.63,3584.94 L 6639.64,3631.91 L 6627.48,3647.97 L 6551.54,3603.38 L 6559.63,3584.94 Z " />
<path stroke="transparent" fill="#000000" transform="matrix(0.0833333 0 0 0.0833333 -263.208 -240)" d="M 6536.3,3638.14 L 6604.57,3678.22 L 6592.41,3694.27 L 6528.21,3656.58 L 6536.3,3638.14 Z " />
<path stroke="transparent" fill="#000000" transform="matrix(0.0833333 0 0 0.0833333 -263.208 -240)" d="M 6512.96,3691.33 L 6569.49,3724.52 L 6557.33,3740.57 L 6504.87,3709.78 L 6512.96,3691.33 Z " />
<path stroke="transparent" fill="#000000" transform="matrix(0.0833333 0 0 0.0833333 -263.208 -240)" d="M 6489.62,3744.53 L 6534.42,3770.83 L 6522.26,3786.88 L 6481.53,3762.97 L 6489.62,3744.53 Z " />
<path stroke="transparent" fill="#000000" transform="matrix(0.0833333 0 0 0.0833333 -263.208 -240)" d="M 6466.28,3797.72 L 6499.34,3817.13 L 6487.18,3833.18 L 6458.19,3816.17 L 6466.28,3797.72 Z " />
<path stroke="transparent" fill="#000000" transform="matrix(0.0833333 0 0 0.0833333 -263.208 -240)" d="M 6442.95,3850.92 L 6464.26,3863.43 L 6452.1,3879.49 L 6434.86,3869.36 L 6442.95,3850.92 Z " />
<path stroke="transparent" fill="#000000" transform="matrix(0.0833333 0 0 0.0833333 -263.208 -240)" d="M 5392.18,5127.83 L 5382.18,5129.69 L 5372.18,5123.95 L 5372.18,4532.14 L 5382.18,4526.4 L 5392.18,4532.15 L 5392.18,5127.83 Z " />
<path stroke="transparent" fill="#000000" transform="matrix(0.0833333 0 0 0.0833333 -263.208 -240)" d="M 5319.78,5088.13 L 5299.78,5088.13 L 5299.78,4567.94 L 5319.78,4567.94 L 5319.78,5088.13 Z " />
<path stroke="transparent" fill="#000000" transform="matrix(0.0833333 0 0 0.0833333 -263.208 -240)" d="M 4865.37,4235.8 L 4865.37,4212.63 L 5382.18,4514.82 L 5382.18,4526.4 L 5372.18,4532.14 L 4865.37,4235.8 Z " />
<path stroke="transparent" fill="#000000" transform="matrix(0.0833333 0 0 0.0833333 -263.208 -240)" d="M 7010.83,4516.4 L 7030.83,4536.4 L 6512.09,4536.4 L 6512.09,4516.4 L 7010.83,4516.4 Z " />
<path stroke="transparent" fill="#000000" transform="matrix(0.0833333 0 0 0.0833333 -263.208 -240)" d="M 6426.09,5131.54 L 6406.09,5127.84 L 6406.09,4643.74 L 6426.09,4643.74 L 6426.09,5131.54 Z " />
<path stroke="transparent" fill="#000000" transform="matrix(0.0833333 0 0 0.0833333 -263.208 -240)" d="M 6728.42,3539.64 L 6832.03,3479.09 L 6840.07,3497.55 L 6740.55,3555.71 L 6728.42,3539.64 Z " />
<path stroke="transparent" fill="#000000" transform="matrix(0.0833333 0 0 0.0833333 -263.208 -240)" d="M 6763.33,3585.88 L 6855.18,3532.2 L 6863.23,3550.67 L 6775.46,3601.96 L 6763.33,3585.88 Z " />
<path stroke="transparent" fill="#000000" transform="matrix(0.0833333 0 0 0.0833333 -263.208 -240)" d="M 6798.23,3632.13 L 6878.34,3585.32 L 6886.39,3603.78 L 6810.37,3648.2 L 6798.23,3632.13 Z " />
<path stroke="transparent" fill="#000000" transform="matrix(0.0833333 0 0 0.0833333 -263.208 -240)" d="M 6833.14,3678.37 L 6901.49,3638.43 L 6909.54,3656.89 L 6845.27,3694.45 L 6833.14,3678.37 Z " />
<path stroke="transparent" fill="#000000" transform="matrix(0.0833333 0 0 0.0833333 -263.208 -240)" d="M 6868.04,3724.62 L 6924.65,3691.54 L 6932.7,3710 L 6880.18,3740.69 L 6868.04,3724.62 Z " />
<path stroke="transparent" fill="#000000" transform="matrix(0.0833333 0 0 0.0833333 -263.208 -240)" d="M 6902.95,3770.86 L 6947.8,3744.65 L 6955.85,3763.11 L 6915.08,3786.93 L 6902.95,3770.86 Z " />
<path stroke="transparent" fill="#000000" transform="matrix(0.0833333 0 0 0.0833333 -263.208 -240)" d="M 6937.86,3817.1 L 6970.96,3797.76 L 6979.01,3816.22 L 6949.99,3833.18 L 6937.86,3817.1 Z " />
<path stroke="transparent" fill="#000000" transform="matrix(0.0833333 0 0 0.0833333 -263.208 -240)" d="M 6972.76,3863.35 L 6994.12,3850.87 L 7002.16,3869.33 L 6984.9,3879.42 L 6972.76,3863.35 Z " />
<path stroke="transparent" fill="#000000" transform="matrix(0.0833333 0 0 0.0833333 -263.208 -240)" d="M 7030.83,4536.4 L 7010.83,4516.4 L 7010.83,3931.08 L 7030.83,3911.08 L 7030.83,4536.4 Z " />
<path stroke="transparent" fill="#000000" transform="matrix(0.0833333 0 0 0.0833333 -263.208 -240)" d="M 4865.37,5443.02 L 4865.37,5419.86 L 5372.18,5123.95 L 5382.18,5129.69 L 5377.07,5144.25 L 4865.37,5443.02 Z " />
<path stroke="transparent" fill="#000000" transform="matrix(0.0833333 0 0 0.0833333 -263.208 -240)" d="M 5605.12,5679.99 L 5591.39,5699.99 L 5377.07,5144.25 L 5382.18,5129.69 L 5392.18,5127.83 L 5605.12,5679.99 Z " />
<path stroke="transparent" fill="#000000" transform="matrix(0.0833333 0 0 0.0833333 -263.208 -240)" d="M 4358.19,4532.14 L 4348.19,4526.4 L 4348.17,4514.84 L 4865.37,4212.63 L 4865.37,4235.8 L 4358.19,4532.14 Z " />
<path stroke="transparent" fill="#000000" transform="matrix(0.0833333 0 0 0.0833333 -263.208 -240)" d="M 4425.12,4576.29 L 4415.03,4559.02 L 4860.31,4298.84 L 4870.4,4316.11 L 4425.12,4576.29 Z " />
<path stroke="transparent" fill="#000000" transform="matrix(0.0833333 0 0 0.0833333 -263.208 -240)" d="M 6208.34,5699.99 L 6194.59,5679.99 L 6406.09,5127.84 L 6426.09,5131.54 L 6208.34,5699.99 Z " />
<path stroke="transparent" fill="#000000" transform="matrix(0.0833333 0 0 0.0833333 -263.208 -240)" d="M 4348.16,5141.24 L 4348.19,5129.69 L 4358.19,5123.95 L 4865.37,5419.86 L 4865.37,5443.02 L 4348.16,5141.24 Z " />
<path stroke="transparent" fill="#000000" transform="matrix(0.0833333 0 0 0.0833333 -263.208 -240)" d="M 4415.01,5097.06 L 4425.09,5079.79 L 4870.39,5339.61 L 4860.32,5356.88 L 4415.01,5097.06 Z " />
<path stroke="transparent" fill="#000000" transform="matrix(0.0833333 0 0 0.0833333 -263.208 -240)" d="M 6194.59,5679.99 L 6208.34,5699.99 L 5591.39,5699.99 L 5605.12,5679.99 L 6194.59,5679.99 Z " />
<path stroke="transparent" fill="#000000" transform="matrix(0.0833333 0 0 0.0833333 -263.208 -240)" d="M 4358.19,5123.95 L 4348.19,5129.69 L 4338.19,5123.9 L 4338.19,4532.17 L 4348.19,4526.4 L 4358.19,4532.14 L 4358.19,5123.95 Z " />
<path stroke="transparent" fill="#000000" transform="matrix(0.0833333 0 0 0.0833333 -263.208 -240)" d="M 3923.11,4292.16 L 3933.12,4274.84 L 4348.17,4514.84 L 4348.19,4526.4 L 4338.19,4532.17 L 3923.11,4292.16 Z " />
<path stroke="transparent" fill="#000000" transform="matrix(0.0833333 0 0 0.0833333 -263.208 -240)" d="M 3925.82,5383.86 L 3915.86,5366.52 L 4338.19,5123.9 L 4348.19,5129.69 L 4348.16,5141.24 L 3925.82,5383.86 Z " />
<path stroke="transparent" fill="#000000" transform="matrix(0.0833333 0 0 0.0833333 -263.208 -240)" d="M 3313.04,4535.06 L 3303.02,4517.75 L 3723.53,4274.59 L 3733.55,4291.91 L 3313.04,4535.06 Z " />
<path stroke="transparent" fill="#000000" transform="matrix(0.0833333 0 0 0.0833333 -263.208 -240)" d="M 3204.99,5080.39 L 3214.99,5063.06 L 3740.48,5366.34 L 3730.49,5383.66 L 3204.99,5080.39 Z " />
</svg>
