<?xml version="1.0" standalone="no" ?>
<!DOCTYPE svg PUBLIC "-//W3C//DTD SVG 1.1//EN" "http://www.w3.org/Graphics/SVG/1.1/DTD/svg11.dtd">
<svg width="268px" height="167px" viewBox="0 0 268 167" style="background-color: #ffffff00" xmlns="http://www.w3.org/2000/svg" xmlns:xlink="http://www.w3.org/1999/xlink" version="1.1" >
<text x="0" y="0" stroke="transparent" fill="#000000" transform="matrix(0.0666667 0 0 0.0666667 179.688 45.219)" style="font:normal normal normal 200px 'Arial'" >
H</text>
<text x="0" y="0" stroke="transparent" fill="#000000" transform="matrix(0.0666667 0 0 0.0666667 179.688 56.3412)" style="font:normal normal normal 200px 'Arial'" >
N</text>
<text x="0" y="0" stroke="transparent" fill="#000000" transform="matrix(0.0666667 0 0 0.0666667 3.0815 108.7)" style="font:normal normal normal 200px 'Arial'" >
N</text>
<path stroke="transparent" fill="#000000" transform="matrix(0.0666667 0 0 0.0666667 -214.853 -310)" d="M 5429.49,5609.77 L 5419.49,5602.5 L 5420.64,5591.61 L 5877.66,5443.14 L 5883.84,5462.16 L 5429.49,5609.77 Z " />
<path stroke="transparent" fill="#000000" transform="matrix(0.0666667 0 0 0.0666667 -214.853 -310)" d="M 4899.86,5314.05 L 4899.86,5302.5 L 4909.86,5296.73 L 5420.64,5591.61 L 5419.49,5602.5 L 5409.49,5608.27 L 4899.86,5314.05 Z " />
<path stroke="transparent" fill="#000000" transform="matrix(0.0666667 0 0 0.0666667 -214.853 -310)" d="M 4390.22,5608.27 L 4380.22,5602.5 L 4380.22,5590.95 L 4889.86,5296.73 L 4899.86,5302.5 L 4899.86,5314.05 L 4390.22,5608.27 Z " />
<path stroke="transparent" fill="#000000" transform="matrix(0.0666667 0 0 0.0666667 -214.853 -310)" d="M 4457.22,5652.73 L 4447.22,5635.41 L 4894.86,5376.98 L 4904.86,5394.3 L 4457.22,5652.73 Z " />
<path stroke="transparent" fill="#000000" transform="matrix(0.0666667 0 0 0.0666667 -214.853 -310)" d="M 4390.22,6196.73 L 4380.22,6202.5 L 4370.22,6196.73 L 4370.22,5608.27 L 4380.22,5602.5 L 4390.22,5608.27 L 4390.22,6196.73 Z " />
<path stroke="transparent" fill="#000000" transform="matrix(0.0666667 0 0 0.0666667 -214.853 -310)" d="M 4899.86,6490.95 L 4899.86,6502.5 L 4889.86,6508.27 L 4380.22,6214.05 L 4380.22,6202.5 L 4390.22,6196.73 L 4899.86,6490.95 Z " />
<path stroke="transparent" fill="#000000" transform="matrix(0.0666667 0 0 0.0666667 -214.853 -310)" d="M 4904.86,6410.7 L 4894.86,6428.02 L 4447.22,6169.59 L 4457.22,6152.27 L 4904.86,6410.7 Z " />
<path stroke="transparent" fill="#000000" transform="matrix(0.0666667 0 0 0.0666667 -214.853 -310)" d="M 5409.49,6196.73 L 5419.49,6202.5 L 5420.64,6213.39 L 4909.86,6508.27 L 4899.86,6502.5 L 4899.86,6490.95 L 5409.49,6196.73 Z " />
<path stroke="transparent" fill="#000000" transform="matrix(0.0666667 0 0 0.0666667 -214.853 -310)" d="M 5429.49,6195.23 L 5419.49,6202.5 L 5409.49,6196.73 L 5409.49,5608.27 L 5419.49,5602.5 L 5429.49,5609.77 L 5429.49,6195.23 Z " />
<path stroke="transparent" fill="#000000" transform="matrix(0.0666667 0 0 0.0666667 -214.853 -310)" d="M 5357.49,6160.93 L 5337.49,6160.93 L 5337.49,5644.07 L 5357.49,5644.07 L 5357.49,6160.93 Z " />
<path stroke="transparent" fill="#000000" transform="matrix(0.0666667 0 0 0.0666667 -214.853 -310)" d="M 5986.29,6376.13 L 5990.11,6387.88 L 5982.79,6396.02 L 5420.64,6213.39 L 5419.49,6202.5 L 5429.49,6195.23 L 5986.29,6376.13 Z " />
<path stroke="transparent" fill="#000000" transform="matrix(0.0666667 0 0 0.0666667 -214.853 -310)" d="M 6240.9,6926.69 L 6227.32,6945.37 L 5982.79,6396.02 L 5990.11,6387.88 L 6001.6,6389.09 L 6240.9,6926.69 Z " />
<path stroke="transparent" fill="#000000" transform="matrix(0.0666667 0 0 0.0666667 -214.853 -310)" d="M 6826.14,6988.24 L 6835.54,7009.34 L 6227.32,6945.37 L 6240.9,6926.69 L 6826.14,6988.24 Z " />
<path stroke="transparent" fill="#000000" transform="matrix(0.0666667 0 0 0.0666667 -214.853 -310)" d="M 6798.07,6912.89 L 6795.98,6932.78 L 6281.94,6878.71 L 6284.03,6858.82 L 6798.07,6912.89 Z " />
<path stroke="transparent" fill="#000000" transform="matrix(0.0666667 0 0 0.0666667 -214.853 -310)" d="M 7172.01,6512.13 L 7194.98,6514.54 L 6835.54,7009.34 L 6826.14,6988.24 L 7172.01,6512.13 Z " />
<path stroke="transparent" fill="#000000" transform="matrix(0.0666667 0 0 0.0666667 -214.853 -310)" d="M 6932.71,5974.53 L 6946.28,5955.85 L 7194.98,6514.54 L 7172.01,6512.13 L 6932.71,5974.53 Z " />
<path stroke="transparent" fill="#000000" transform="matrix(0.0666667 0 0 0.0666667 -214.853 -310)" d="M 6881.49,6036.52 L 6899.76,6028.39 L 7109.95,6500.58 L 7091.68,6508.71 L 6881.49,6036.52 Z " />
<path stroke="transparent" fill="#000000" transform="matrix(0.0666667 0 0 0.0666667 -214.853 -310)" d="M 6347.46,5913.05 L 6342.77,5902.5 L 6348.24,5893.02 L 6946.28,5955.85 L 6932.71,5974.53 L 6347.46,5913.05 Z " />
<path stroke="transparent" fill="#000000" transform="matrix(0.0666667 0 0 0.0666667 -214.853 -310)" d="M 6330.41,5902.5 L 6342.77,5902.5 L 6347.46,5913.05 L 6001.6,6389.09 L 5990.11,6387.88 L 5986.29,6376.13 L 6330.41,5902.5 Z " />
<path stroke="transparent" fill="#000000" transform="matrix(0.0666667 0 0 0.0666667 -214.853 -310)" d="M 6368.49,5972.57 L 6384.67,5984.32 L 6080.88,6402.45 L 6064.7,6390.7 L 6368.49,5972.57 Z " />
<path stroke="transparent" fill="#000000" transform="matrix(0.0666667 0 0 0.0666667 -214.853 -310)" d="M 6348.24,5893.02 L 6342.77,5902.5 L 6330.41,5902.5 L 6061.66,5532.6 L 6077.84,5520.85 L 6348.24,5893.02 Z " />
<path stroke="transparent" fill="#000000" transform="matrix(0.0666667 0 0 0.0666667 -214.853 -310)" d="M 3351.02,5608.27 L 3331.02,5596.73 L 3860.59,5290.95 L 3860.59,5314.05 L 3351.02,5608.27 Z " />
<path stroke="transparent" fill="#000000" transform="matrix(0.0666667 0 0 0.0666667 -214.853 -310)" d="M 3418.02,5652.72 L 3408.02,5635.4 L 3855.59,5376.97 L 3865.59,5394.29 L 3418.02,5652.72 Z " />
<path stroke="transparent" fill="#000000" transform="matrix(0.0666667 0 0 0.0666667 -214.853 -310)" d="M 3351.02,6099.67 L 3331.02,6099.67 L 3331.02,5596.73 L 3351.02,5608.27 L 3351.02,6099.67 Z " />
<path stroke="transparent" fill="#000000" transform="matrix(0.0666667 0 0 0.0666667 -214.853 -310)" d="M 3446.08,6274.71 L 3456.08,6257.39 L 3860.59,6490.95 L 3860.59,6514.05 L 3446.08,6274.71 Z " />
<path stroke="transparent" fill="#000000" transform="matrix(0.0666667 0 0 0.0666667 -214.853 -310)" d="M 3482.08,6212.36 L 3492.08,6195.04 L 3865.59,6410.71 L 3855.59,6428.03 L 3482.08,6212.36 Z " />
<path stroke="transparent" fill="#000000" transform="matrix(0.0666667 0 0 0.0666667 -214.853 -310)" d="M 4380.22,5590.95 L 4380.22,5602.5 L 4370.22,5608.27 L 3860.59,5314.05 L 3860.59,5290.95 L 4380.22,5590.95 Z " />
<path stroke="transparent" fill="#000000" transform="matrix(0.0666667 0 0 0.0666667 -214.853 -310)" d="M 4370.22,6196.73 L 4380.22,6202.5 L 4380.22,6214.05 L 3860.59,6514.05 L 3860.59,6490.95 L 4370.22,6196.73 Z " />
<path stroke="transparent" fill="#000000" transform="matrix(0.0666667 0 0 0.0666667 -214.853 -310)" d="M 4909.86,7102.5 L 4889.86,7102.5 L 4889.86,6508.27 L 4899.86,6502.5 L 4909.86,6508.27 L 4909.86,7102.5 Z " />
<path stroke="transparent" fill="#000000" transform="matrix(0.0666667 0 0 0.0666667 -214.853 -310)" d="M 4889.86,4702.5 L 4909.86,4702.5 L 4909.86,5296.73 L 4899.86,5302.5 L 4889.86,5296.73 L 4889.86,4702.5 Z " />
</svg>
