<?xml version="1.0" standalone="no" ?>
<!DOCTYPE svg PUBLIC "-//W3C//DTD SVG 1.1//EN" "http://www.w3.org/Graphics/SVG/1.1/DTD/svg11.dtd">
<svg width="174px" height="157px" viewBox="0 0 174 157" style="background-color: #ffffff00" xmlns="http://www.w3.org/2000/svg" xmlns:xlink="http://www.w3.org/1999/xlink" version="1.1" >
<text x="0" y="0" stroke="none" fill="#000000" transform="matrix(0.0666667 0 0 0.0666667 81.8235 34.0669)" font-style="normal" font-weight="normal" font-size="200px" font-family="Arial" >
O</text>
<text x="0" y="0" stroke="none" fill="#000000" transform="matrix(0.0666667 0 0 0.0666667 2.91076 114.071)" font-style="normal" font-weight="normal" font-size="200px" font-family="Arial" >
HO</text>
<text x="0" y="0" stroke="none" fill="#000000" transform="matrix(0.0666667 0 0 0.0666667 151.103 114.071)" font-style="normal" font-weight="normal" font-size="200px" font-family="Arial" >
OH</text>
<text x="0" y="0" stroke="none" fill="#000000" transform="matrix(0.0666667 0 0 0.0666667 81.8235 154.071)" font-style="normal" font-weight="normal" font-size="200px" font-family="Arial" >
OH</text>
<text x="0" y="0" stroke="none" fill="#000000" transform="matrix(0.0666667 0 0 0.0666667 116.463 14.0733)" font-style="normal" font-weight="normal" font-size="200px" font-family="Arial" >
O</text>
<path stroke="none" fill="#000000" transform="matrix(0.0666667 0 0 0.0666667 -261.859 -206)" d="M 4723.57,3828.87 L 4713.57,3823.1 L 4725.09,3804.9 L 5128.63,3571.86 L 5138.63,3589.18 L 4723.57,3828.87 Z " />
<path stroke="none" fill="#000000" transform="matrix(0.0666667 0 0 0.0666667 -261.859 -206)" d="M 4723.57,4417.33 L 4703.57,4428.87 L 4703.57,3823.1 L 4713.57,3823.1 L 4723.57,3828.87 L 4723.57,4417.33 Z " />
<path stroke="none" fill="#000000" transform="matrix(0.0666667 0 0 0.0666667 -261.859 -206)" d="M 5233.23,4711.52 L 5233.23,4723.07 L 5222.68,4728.52 L 4703.57,4428.87 L 4723.57,4417.33 L 5233.23,4711.52 Z " />
<path stroke="none" fill="#000000" transform="matrix(0.0666667 0 0 0.0666667 -261.859 -206)" d="M 5742.83,4417.33 L 5762.83,4428.87 L 5243.78,4728.52 L 5233.23,4723.07 L 5233.23,4711.52 L 5742.83,4417.33 Z " />
<path stroke="none" fill="#000000" transform="matrix(0.0666667 0 0 0.0666667 -261.859 -206)" d="M 5742.83,3828.87 L 5752.83,3823.1 L 5762.83,3823.1 L 5762.83,4428.87 L 5742.83,4417.33 L 5742.83,3828.87 Z " />
<path stroke="none" fill="#000000" transform="matrix(0.0666667 0 0 0.0666667 -261.859 -206)" d="M 5740.91,3804.67 L 5752.83,3823.1 L 5742.83,3828.87 L 5328.26,3589.44 L 5338.26,3572.12 L 5740.91,3804.67 Z " />
<path stroke="none" fill="#000000" transform="matrix(0.0666667 0 0 0.0666667 -261.859 -206)" d="M 4316.59,4721.56 L 4256.59,4617.64 L 4275.05,4609.61 L 4332.77,4709.59 L 4316.59,4721.56 Z " />
<path stroke="none" fill="#000000" transform="matrix(0.0666667 0 0 0.0666667 -261.859 -206)" d="M 4365.02,4685.73 L 4311.84,4593.61 L 4330.3,4585.59 L 4381.2,4673.76 L 4365.02,4685.73 Z " />
<path stroke="none" fill="#000000" transform="matrix(0.0666667 0 0 0.0666667 -261.859 -206)" d="M 4413.45,4649.9 L 4367.09,4569.59 L 4385.55,4561.56 L 4429.63,4637.93 L 4413.45,4649.9 Z " />
<path stroke="none" fill="#000000" transform="matrix(0.0666667 0 0 0.0666667 -261.859 -206)" d="M 4461.89,4614.06 L 4422.34,4545.56 L 4440.8,4537.54 L 4478.07,4602.09 L 4461.89,4614.06 Z " />
<path stroke="none" fill="#000000" transform="matrix(0.0666667 0 0 0.0666667 -261.859 -206)" d="M 4510.32,4578.23 L 4477.59,4521.54 L 4496.05,4513.51 L 4526.5,4566.26 L 4510.32,4578.23 Z " />
<path stroke="none" fill="#000000" transform="matrix(0.0666667 0 0 0.0666667 -261.859 -206)" d="M 4558.75,4542.4 L 4532.84,4497.52 L 4551.3,4489.49 L 4574.94,4530.43 L 4558.75,4542.4 Z " />
<path stroke="none" fill="#000000" transform="matrix(0.0666667 0 0 0.0666667 -261.859 -206)" d="M 4607.19,4506.57 L 4588.09,4473.49 L 4606.55,4465.46 L 4623.37,4494.59 L 4607.19,4506.57 Z " />
<path stroke="none" fill="#000000" transform="matrix(0.0666667 0 0 0.0666667 -261.859 -206)" d="M 4655.62,4470.73 L 4643.34,4449.47 L 4661.8,4441.44 L 4671.8,4458.76 L 4655.62,4470.73 Z " />
<path stroke="none" fill="#000000" transform="matrix(0.0666667 0 0 0.0666667 -261.859 -206)" d="M 6209.8,4617.63 L 6149.81,4721.56 L 6133.62,4709.59 L 6191.34,4609.61 L 6209.8,4617.63 Z " />
<path stroke="none" fill="#000000" transform="matrix(0.0666667 0 0 0.0666667 -261.859 -206)" d="M 6154.55,4593.61 L 6101.37,4685.73 L 6085.19,4673.75 L 6136.09,4585.58 L 6154.55,4593.61 Z " />
<path stroke="none" fill="#000000" transform="matrix(0.0666667 0 0 0.0666667 -261.859 -206)" d="M 6099.3,4569.59 L 6052.94,4649.89 L 6036.76,4637.92 L 6080.84,4561.56 L 6099.3,4569.59 Z " />
<path stroke="none" fill="#000000" transform="matrix(0.0666667 0 0 0.0666667 -261.859 -206)" d="M 6044.05,4545.56 L 6004.51,4614.06 L 5988.33,4602.09 L 6025.59,4537.54 L 6044.05,4545.56 Z " />
<path stroke="none" fill="#000000" transform="matrix(0.0666667 0 0 0.0666667 -261.859 -206)" d="M 5988.8,4521.54 L 5956.08,4578.23 L 5939.89,4566.26 L 5970.35,4513.51 L 5988.8,4521.54 Z " />
<path stroke="none" fill="#000000" transform="matrix(0.0666667 0 0 0.0666667 -261.859 -206)" d="M 5933.56,4497.51 L 5907.64,4542.4 L 5891.46,4530.42 L 5915.1,4489.49 L 5933.56,4497.51 Z " />
<path stroke="none" fill="#000000" transform="matrix(0.0666667 0 0 0.0666667 -261.859 -206)" d="M 5878.31,4473.49 L 5859.21,4506.56 L 5843.03,4494.59 L 5859.85,4465.46 L 5878.31,4473.49 Z " />
<path stroke="none" fill="#000000" transform="matrix(0.0666667 0 0 0.0666667 -261.859 -206)" d="M 5823.06,4449.47 L 5810.78,4470.73 L 5794.6,4458.76 L 5804.6,4441.44 L 5823.06,4449.47 Z " />
<path stroke="none" fill="#000000" transform="matrix(0.0666667 0 0 0.0666667 -261.859 -206)" d="M 5293.23,5217.9 L 5173.23,5217.9 L 5222.68,4728.52 L 5233.23,4723.07 L 5243.78,4728.52 L 5293.23,5217.9 Z " />
<path stroke="none" fill="#000000" transform="matrix(0.0666667 0 0 0.0666667 -261.859 -206)" d="M 4652.74,3213.1 L 4772.74,3233.1 L 4725.09,3804.9 L 4713.57,3823.1 L 4703.57,3823.1 L 4652.74,3213.1 Z " />
<path stroke="none" fill="#000000" transform="matrix(0.0666667 0 0 0.0666667 -261.859 -206)" d="M 5692.83,3342.93 L 5812.83,3342.93 L 5762.83,3823.1 L 5752.83,3823.1 L 5740.91,3804.67 L 5692.83,3342.93 Z " />
<path stroke="none" fill="#000000" transform="matrix(0.0666667 0 0 0.0666667 -261.859 -206)" d="M 5644.83,3213.1 L 5644.83,3233.1 L 4772.74,3233.1 L 4652.74,3213.1 L 5644.83,3213.1 Z " />
</svg>
