<?xml version="1.0" standalone="no" ?>
<!DOCTYPE svg PUBLIC "-//W3C//DTD SVG 1.1//EN" "http://www.w3.org/Graphics/SVG/1.1/DTD/svg11.dtd">
<svg width="361px" height="115px" viewBox="0 0 361 115" style="background-color: #ffffff00" xmlns="http://www.w3.org/2000/svg" xmlns:xlink="http://www.w3.org/1999/xlink" version="1.1" >
<path stroke="transparent" fill="#000000" transform="matrix(0.0833333 0 0 0.0833333 -256.208 -301)" d="M 4262.95,4819.35 L 4252.95,4802.03 L 4674.88,4558.4 L 4684.88,4564.18 L 4684.88,4575.72 L 4262.95,4819.35 Z " />
<path stroke="transparent" fill="#000000" transform="matrix(0.0833333 0 0 0.0833333 -256.208 -301)" d="M 3645.71,4575.72 L 3645.71,4552.63 L 4077.71,4802.03 L 4067.71,4819.36 L 3645.71,4575.72 Z " />
<path stroke="transparent" fill="#000000" transform="matrix(0.0833333 0 0 0.0833333 -256.208 -301)" d="M 3131.09,4872.83 L 3121.09,4855.51 L 3645.71,4552.63 L 3645.71,4575.72 L 3131.09,4872.83 Z " />
<path stroke="transparent" fill="#000000" transform="matrix(0.0833333 0 0 0.0833333 -256.208 -301)" d="M 7213.29,4770.86 L 7203.29,4788.18 L 6758.29,4531.27 L 6768.29,4513.95 L 7213.29,4770.86 Z " />
<path stroke="transparent" fill="#000000" transform="matrix(0.0833333 0 0 0.0833333 -256.208 -301)" d="M 7177.29,4833.21 L 7167.29,4850.53 L 6722.29,4593.62 L 6732.29,4576.3 L 7177.29,4833.21 Z " />
<path stroke="transparent" fill="#000000" transform="matrix(0.0833333 0 0 0.0833333 -256.208 -301)" d="M 5714.12,4558.4 L 5724.12,4564.18 L 5724.12,4575.72 L 5204.5,4875.71 L 5204.5,4852.62 L 5714.12,4558.4 Z " />
<path stroke="transparent" fill="#000000" transform="matrix(0.0833333 0 0 0.0833333 -256.208 -301)" d="M 5647.12,4513.95 L 5657.12,4531.27 L 5209.5,4789.69 L 5199.5,4772.37 L 5647.12,4513.95 Z " />
<path stroke="transparent" fill="#000000" transform="matrix(0.0833333 0 0 0.0833333 -256.208 -301)" d="M 5724.12,3952.65 L 5724.12,3964.19 L 5714.12,3969.97 L 5204.5,3675.75 L 5204.5,3652.66 L 5724.12,3952.65 Z " />
<path stroke="transparent" fill="#000000" transform="matrix(0.0833333 0 0 0.0833333 -256.208 -301)" d="M 5657.12,3997.1 L 5647.12,4014.42 L 5199.5,3756 L 5209.5,3738.68 L 5657.12,3997.1 Z " />
<path stroke="transparent" fill="#000000" transform="matrix(0.0833333 0 0 0.0833333 -256.208 -301)" d="M 5204.5,3652.66 L 5204.5,3675.75 L 4694.88,3969.97 L 4674.88,3958.42 L 5204.5,3652.66 Z " />
<path stroke="transparent" fill="#000000" transform="matrix(0.0833333 0 0 0.0833333 -256.208 -301)" d="M 4674.88,3958.42 L 4694.88,3969.97 L 4694.88,4558.4 L 4684.88,4564.18 L 4674.88,4558.4 L 4674.88,3958.42 Z " />
<path stroke="transparent" fill="#000000" transform="matrix(0.0833333 0 0 0.0833333 -256.208 -301)" d="M 4746.88,4005.76 L 4766.88,4005.76 L 4766.88,4522.61 L 4746.88,4522.61 L 4746.88,4005.76 Z " />
<path stroke="transparent" fill="#000000" transform="matrix(0.0833333 0 0 0.0833333 -256.208 -301)" d="M 4684.88,4575.72 L 4684.88,4564.18 L 4694.88,4558.4 L 5204.5,4852.62 L 5204.5,4875.71 L 4684.88,4575.72 Z " />
<path stroke="transparent" fill="#000000" transform="matrix(0.0833333 0 0 0.0833333 -256.208 -301)" d="M 6341.29,4819.36 L 6331.29,4802.03 L 6753.29,4558.4 L 6773.29,4569.95 L 6341.29,4819.36 Z " />
<path stroke="transparent" fill="#000000" transform="matrix(0.0833333 0 0 0.0833333 -256.208 -301)" d="M 6156.05,4802.03 L 6146.05,4819.35 L 5724.12,4575.72 L 5724.12,4564.18 L 5734.12,4558.4 L 6156.05,4802.03 Z " />
<path stroke="transparent" fill="#000000" transform="matrix(0.0833333 0 0 0.0833333 -256.208 -301)" d="M 5734.12,4558.4 L 5724.12,4564.18 L 5714.12,4558.4 L 5714.12,3969.97 L 5724.12,3964.19 L 5734.12,3969.97 L 5734.12,4558.4 Z " />
<path stroke="transparent" fill="#000000" transform="matrix(0.0833333 0 0 0.0833333 -256.208 -301)" d="M 5734.12,3969.97 L 5724.12,3964.19 L 5724.12,3952.65 L 6243.67,3652.66 L 6243.67,3675.75 L 5734.12,3969.97 Z " />
<path stroke="transparent" fill="#000000" transform="matrix(0.0833333 0 0 0.0833333 -256.208 -301)" d="M 6243.67,3675.75 L 6243.67,3652.66 L 6773.29,3958.42 L 6753.29,3969.97 L 6243.67,3675.75 Z " />
<path stroke="transparent" fill="#000000" transform="matrix(0.0833333 0 0 0.0833333 -256.208 -301)" d="M 6238.67,3756 L 6248.67,3738.68 L 6696.29,3997.1 L 6686.29,4014.42 L 6238.67,3756 Z " />
<path stroke="transparent" fill="#000000" transform="matrix(0.0833333 0 0 0.0833333 -256.208 -301)" d="M 6753.29,3969.97 L 6773.29,3958.42 L 6773.29,4569.95 L 6753.29,4558.4 L 6753.29,3969.97 Z " />
<text x="0" y="0" stroke="transparent" fill="#000000" transform="matrix(0.0833333 0 0 0.0833333 84.4025 110.847)" style="font:normal normal normal 200px 'Arial'" >
O</text>
<text x="0" y="0" stroke="transparent" fill="#000000" transform="matrix(0.0833333 0 0 0.0833333 344.201 110.847)" style="font:normal normal normal 200px 'Arial'" >
O</text>
<text x="0" y="0" stroke="transparent" fill="#000000" transform="matrix(0.0833333 0 0 0.0833333 257.597 110.847)" style="font:normal normal normal 200px 'Arial'" >
O</text>
</svg>
