<?xml version="1.0" standalone="no" ?>
<!DOCTYPE svg PUBLIC "-//W3C//DTD SVG 1.1//EN" "http://www.w3.org/Graphics/SVG/1.1/DTD/svg11.dtd">
<svg width="331px" height="171px" viewBox="0 0 331 171" style="background-color: #ffffff00" xmlns="http://www.w3.org/2000/svg" xmlns:xlink="http://www.w3.org/1999/xlink" version="1.1" >
<path stroke="transparent" fill="#000000" transform="matrix(0.0833333 0 0 0.0833333 -270.667 -267)" d="M 5488.11,3385.94 L 5498.19,3403.21 L 5087.72,3642.68 L 5077.69,3636.96 L 5077.64,3625.41 L 5488.11,3385.94 Z " />
<path stroke="transparent" fill="#000000" transform="matrix(0.0833333 0 0 0.0833333 -270.667 -267)" d="M 5649.69,5029.2 L 5629.69,5029.29 L 5627.31,4513.67 L 5647.31,4513.58 L 5649.69,5029.2 Z " />
<path stroke="transparent" fill="#000000" transform="matrix(0.0833333 0 0 0.0833333 -270.667 -267)" d="M 5577.69,5029.53 L 5557.69,5029.62 L 5555.31,4514 L 5575.31,4513.9 L 5577.69,5029.53 Z " />
<path stroke="transparent" fill="#000000" transform="matrix(0.0833333 0 0 0.0833333 -270.667 -267)" d="M 5601.35,4523.02 L 5601.46,4546.12 L 5080.51,4248.51 L 5080.45,4236.97 L 5090.43,4231.15 L 5601.35,4523.02 Z " />
<path stroke="transparent" fill="#000000" transform="matrix(0.0833333 0 0 0.0833333 -270.667 -267)" d="M 4562.24,4550.84 L 4562.14,4527.75 L 5070.43,4231.24 L 5080.45,4236.97 L 5080.51,4248.51 L 4562.24,4550.84 Z " />
<path stroke="transparent" fill="#000000" transform="matrix(0.0833333 0 0 0.0833333 -270.667 -267)" d="M 4566.85,4464.8 L 4556.78,4447.52 L 5003.22,4187.09 L 5013.3,4204.36 L 4566.85,4464.8 Z " />
<path stroke="transparent" fill="#000000" transform="matrix(0.0833333 0 0 0.0833333 -270.667 -267)" d="M 3612.81,3410.03 L 3622.73,3392.66 L 4038.42,3630.14 L 4038.48,3641.68 L 4028.5,3647.5 L 3612.81,3410.03 Z " />
<path stroke="transparent" fill="#000000" transform="matrix(0.0833333 0 0 0.0833333 -270.667 -267)" d="M 5601.46,4546.12 L 5601.35,4523.02 L 6109.64,4226.51 L 6119.67,4232.24 L 6119.72,4243.78 L 5601.46,4546.12 Z " />
<path stroke="transparent" fill="#000000" transform="matrix(0.0833333 0 0 0.0833333 -270.667 -267)" d="M 4562.14,4527.75 L 4562.24,4550.84 L 4031.27,4247.51 L 4051.21,4235.87 L 4562.14,4527.75 Z " />
<path stroke="transparent" fill="#000000" transform="matrix(0.0833333 0 0 0.0833333 -270.667 -267)" d="M 4028.5,3647.5 L 4038.48,3641.68 L 4048.5,3647.41 L 4051.21,4235.87 L 4031.27,4247.51 L 4028.5,3647.5 Z " />
<path stroke="transparent" fill="#000000" transform="matrix(0.0833333 0 0 0.0833333 -270.667 -267)" d="M 4100.67,3682.97 L 4120.67,3682.88 L 4123.05,4199.75 L 4103.05,4199.84 L 4100.67,3682.97 Z " />
<path stroke="transparent" fill="#000000" transform="matrix(0.0833333 0 0 0.0833333 -270.667 -267)" d="M 5090.43,4231.15 L 5080.45,4236.97 L 5070.43,4231.24 L 5067.72,3642.78 L 5077.69,3636.96 L 5087.72,3642.68 L 5090.43,4231.15 Z " />
<path stroke="transparent" fill="#000000" transform="matrix(0.0833333 0 0 0.0833333 -270.667 -267)" d="M 4048.5,3647.41 L 4038.48,3641.68 L 4038.42,3630.14 L 4556.69,3327.81 L 4556.79,3350.9 L 4048.5,3647.41 Z " />
<path stroke="transparent" fill="#000000" transform="matrix(0.0833333 0 0 0.0833333 -270.667 -267)" d="M 5077.64,3625.41 L 5077.69,3636.96 L 5067.72,3642.78 L 4556.79,3350.9 L 4556.69,3327.81 L 5077.64,3625.41 Z " />
<path stroke="transparent" fill="#000000" transform="matrix(0.0833333 0 0 0.0833333 -270.667 -267)" d="M 5010.85,3670.17 L 5000.93,3687.54 L 4552.15,3431.17 L 4562.08,3413.8 L 5010.85,3670.17 Z " />
<path stroke="transparent" fill="#000000" transform="matrix(0.0833333 0 0 0.0833333 -270.667 -267)" d="M 6129.64,4226.42 L 6119.67,4232.24 L 6109.64,4226.51 L 6106.88,3626.57 L 6126.93,3638.03 L 6129.64,4226.42 Z " />
<path stroke="transparent" fill="#000000" transform="matrix(0.0833333 0 0 0.0833333 -270.667 -267)" d="M 6119.72,4243.78 L 6119.67,4232.24 L 6129.64,4226.42 L 6640.57,4518.37 L 6640.67,4541.46 L 6119.72,4243.78 Z " />
<path stroke="transparent" fill="#000000" transform="matrix(0.0833333 0 0 0.0833333 -270.667 -267)" d="M 6186.52,4199.03 L 6196.44,4181.66 L 6645.21,4438.09 L 6635.29,4455.46 L 6186.52,4199.03 Z " />
<path stroke="transparent" fill="#000000" transform="matrix(0.0833333 0 0 0.0833333 -270.667 -267)" d="M 6126.93,3638.03 L 6106.88,3626.57 L 6635.11,3318.35 L 6635.22,3341.44 L 6126.93,3638.03 Z " />
<path stroke="transparent" fill="#000000" transform="matrix(0.0833333 0 0 0.0833333 -270.667 -267)" d="M 6194.14,3682.18 L 6184.06,3664.9 L 6630.51,3404.4 L 6640.59,3421.68 L 6194.14,3682.18 Z " />
<path stroke="transparent" fill="#000000" transform="matrix(0.0833333 0 0 0.0833333 -270.667 -267)" d="M 6640.67,4541.46 L 6640.57,4518.37 L 7148.86,4221.85 L 7168.91,4233.31 L 6640.67,4541.46 Z " />
<path stroke="transparent" fill="#000000" transform="matrix(0.0833333 0 0 0.0833333 -270.667 -267)" d="M 6635.22,3341.44 L 6635.11,3318.35 L 7166.17,3621.68 L 7146.22,3633.32 L 6635.22,3341.44 Z " />
<path stroke="transparent" fill="#000000" transform="matrix(0.0833333 0 0 0.0833333 -270.667 -267)" d="M 7168.91,4233.31 L 7148.86,4221.85 L 7146.22,3633.32 L 7166.17,3621.68 L 7168.91,4233.31 Z " />
<path stroke="transparent" fill="#000000" transform="matrix(0.0833333 0 0 0.0833333 -270.667 -267)" d="M 7096.69,4186.29 L 7076.69,4186.38 L 7074.37,3669.45 L 7094.37,3669.36 L 7096.69,4186.29 Z " />
<text x="0" y="0" stroke="transparent" fill="#000000" transform="matrix(0.0833333 0 0 0.0833333 188.878 17.5491)" style="font:normal normal normal 200px 'Arial'" >
OH</text>
<text x="0" y="0" stroke="transparent" fill="#000000" transform="matrix(0.0833333 0 0 0.0833333 189.848 167.381)" style="font:normal normal normal 200px 'Arial'" >
O</text>
<text x="0" y="0" stroke="transparent" fill="#000000" transform="matrix(0.0833333 0 0 0.0833333 3.92416 18.1733)" style="font:normal normal normal 200px 'Arial'" >
HO</text>
</svg>
