<?xml version="1.0" standalone="no" ?>
<!DOCTYPE svg PUBLIC "-//W3C//DTD SVG 1.1//EN" "http://www.w3.org/Graphics/SVG/1.1/DTD/svg11.dtd">
<svg width="273px" height="230px" viewBox="0 0 273 230" style="background-color: #ffffff00" xmlns="http://www.w3.org/2000/svg" xmlns:xlink="http://www.w3.org/1999/xlink" version="1.1" >
<text x="0" y="0" stroke="transparent" fill="#000000" transform="matrix(0.0833333 0 0 0.0833333 131.208 18.0019)" style="font:normal normal normal 200px 'Arial'" >
O</text>
<text x="0" y="0" stroke="transparent" fill="#000000" transform="matrix(0.0833333 0 0 0.0833333 79.1662 97.3813)" style="font:normal normal normal 200px 'Arial'" >
HN</text>
<text x="0" y="0" stroke="transparent" fill="#000000" transform="matrix(0.0833333 0 0 0.0833333 256.346 115.427)" style="font:normal normal normal 200px 'Arial'" >
O</text>
<text x="0" y="0" stroke="transparent" fill="#000000" transform="matrix(0.0833333 0 0 0.0833333 185.557 185.408)" style="font:normal normal normal 200px 'Arial'" >
OH</text>
<path stroke="transparent" fill="#000000" transform="matrix(0.0833333 0 0 0.0833333 -317.875 -253)" d="M 4212.45,5109.17 L 4221.84,5130.27 L 3872.45,5610.92 L 3856.27,5599.16 L 4212.45,5109.17 Z " />
<path stroke="transparent" fill="#000000" transform="matrix(0.0833333 0 0 0.0833333 -317.875 -253)" d="M 4809.15,5172.03 L 4813.84,5182.58 L 4806.53,5191.86 L 4221.84,5130.27 L 4212.45,5109.17 L 4809.15,5172.03 Z " />
<path stroke="transparent" fill="#000000" transform="matrix(0.0833333 0 0 0.0833333 -317.875 -253)" d="M 5112.57,5706.37 L 5002.94,5755.16 L 4806.53,5191.86 L 4813.84,5182.58 L 4825.64,5183.36 L 5112.57,5706.37 Z " />
<path stroke="transparent" fill="#000000" transform="matrix(0.0833333 0 0 0.0833333 -317.875 -253)" d="M 5161.54,4687.25 L 5171.73,4707.25 L 4825.64,5183.36 L 4813.84,5182.58 L 4809.15,5172.03 L 5161.54,4687.25 Z " />
<path stroke="transparent" fill="#000000" transform="matrix(0.0833333 0 0 0.0833333 -317.875 -253)" d="M 5759.37,4687.4 L 5766.63,4697.4 L 5761.54,4707.4 L 5171.73,4707.25 L 5161.54,4687.25 L 5759.37,4687.4 Z " />
<path stroke="transparent" fill="#000000" transform="matrix(0.0833333 0 0 0.0833333 -317.875 -253)" d="M 5940.42,4130.63 L 5952.18,4126.81 L 5960.12,4134.75 L 5777.72,4695.65 L 5766.63,4697.4 L 5759.37,4687.4 L 5940.42,4130.63 Z " />
<path stroke="transparent" fill="#000000" transform="matrix(0.0833333 0 0 0.0833333 -317.875 -253)" d="M 5858.02,4151.2 L 5877.04,4157.38 L 5723.85,4628.48 L 5704.83,4622.29 L 5858.02,4151.2 Z " />
<path stroke="transparent" fill="#000000" transform="matrix(0.0833333 0 0 0.0833333 -317.875 -253)" d="M 5466.85,3786.38 L 5466.86,3761.66 L 5953.94,4115.73 L 5952.18,4126.81 L 5940.42,4130.63 L 5466.85,3786.38 Z " />
<path stroke="transparent" fill="#000000" transform="matrix(0.0833333 0 0 0.0833333 -317.875 -253)" d="M 5420.97,3293.84 L 5440.97,3293.85 L 5440.85,3800.17 L 5420.85,3800.17 L 5420.97,3293.84 Z " />
<path stroke="transparent" fill="#000000" transform="matrix(0.0833333 0 0 0.0833333 -317.875 -253)" d="M 5492.97,3293.86 L 5512.97,3293.87 L 5512.85,3800.19 L 5492.85,3800.18 L 5492.97,3293.86 Z " />
<path stroke="transparent" fill="#000000" transform="matrix(0.0833333 0 0 0.0833333 -317.875 -253)" d="M 5085.5,4063.31 L 5073.74,4047.13 L 5466.86,3761.66 L 5466.85,3786.38 L 5085.5,4063.31 Z " />
<path stroke="transparent" fill="#000000" transform="matrix(0.0833333 0 0 0.0833333 -317.875 -253)" d="M 4964.61,4269.3 L 5078.75,4232.25 L 5082.64,4252.01 L 4973.08,4287.58 L 4964.61,4269.3 Z " />
<path stroke="transparent" fill="#000000" transform="matrix(0.0833333 0 0 0.0833333 -317.875 -253)" d="M 4988.52,4320.92 L 5089.72,4288.07 L 5093.61,4307.83 L 4996.99,4339.2 L 4988.52,4320.92 Z " />
<path stroke="transparent" fill="#000000" transform="matrix(0.0833333 0 0 0.0833333 -317.875 -253)" d="M 5012.43,4372.54 L 5100.7,4343.89 L 5104.58,4363.65 L 5020.89,4390.82 L 5012.43,4372.54 Z " />
<path stroke="transparent" fill="#000000" transform="matrix(0.0833333 0 0 0.0833333 -317.875 -253)" d="M 5036.34,4424.17 L 5111.67,4399.71 L 5115.56,4419.47 L 5044.8,4442.45 L 5036.34,4424.17 Z " />
<path stroke="transparent" fill="#000000" transform="matrix(0.0833333 0 0 0.0833333 -317.875 -253)" d="M 5060.24,4475.79 L 5122.65,4455.53 L 5126.53,4475.3 L 5068.71,4494.07 L 5060.24,4475.79 Z " />
<path stroke="transparent" fill="#000000" transform="matrix(0.0833333 0 0 0.0833333 -317.875 -253)" d="M 5084.15,4527.41 L 5133.62,4511.35 L 5137.51,4531.12 L 5092.62,4545.69 L 5084.15,4527.41 Z " />
<path stroke="transparent" fill="#000000" transform="matrix(0.0833333 0 0 0.0833333 -317.875 -253)" d="M 5108.06,4579.03 L 5144.59,4567.17 L 5148.48,4586.94 L 5116.52,4597.31 L 5108.06,4579.03 Z " />
<path stroke="transparent" fill="#000000" transform="matrix(0.0833333 0 0 0.0833333 -317.875 -253)" d="M 5131.97,4630.65 L 5155.57,4622.99 L 5159.45,4642.76 L 5140.43,4648.93 L 5131.97,4630.65 Z " />
<path stroke="transparent" fill="#000000" transform="matrix(0.0833333 0 0 0.0833333 -317.875 -253)" d="M 6514.28,3933.81 L 6531.44,3949.27 L 5960.12,4134.75 L 5952.18,4126.81 L 5953.94,4115.73 L 6514.28,3933.81 Z " />
<path stroke="transparent" fill="#000000" transform="matrix(0.0833333 0 0 0.0833333 -317.875 -253)" d="M 6920.1,4237.48 L 6906.71,4252.34 L 6524.82,3908.31 L 6538.21,3893.45 L 6920.1,4237.48 Z " />
<path stroke="transparent" fill="#000000" transform="matrix(0.0833333 0 0 0.0833333 -317.875 -253)" d="M 6871.91,4290.97 L 6858.52,4305.83 L 6476.63,3961.8 L 6490.02,3946.94 L 6871.91,4290.97 Z " />
<path stroke="transparent" fill="#000000" transform="matrix(0.0833333 0 0 0.0833333 -317.875 -253)" d="M 6637.97,3352.6 L 6657.53,3356.76 L 6531.44,3949.27 L 6514.28,3933.81 L 6637.97,3352.6 Z " />
<path stroke="transparent" fill="#000000" transform="matrix(0.0833333 0 0 0.0833333 -317.875 -253)" d="M 6064.56,5090.64 L 6048.37,5102.4 L 5761.54,4707.4 L 5766.63,4697.4 L 5777.72,4695.65 L 6064.56,5090.64 Z " />
</svg>
