<?xml version="1.0" standalone="no" ?>
<!DOCTYPE svg PUBLIC "-//W3C//DTD SVG 1.1//EN" "http://www.w3.org/Graphics/SVG/1.1/DTD/svg11.dtd">
<svg width="437px" height="194px" viewBox="0 0 437 194" style="background-color: #ffffff00" xmlns="http://www.w3.org/2000/svg" xmlns:xlink="http://www.w3.org/1999/xlink" version="1.1" >
<text x="0" y="0" stroke="transparent" fill="#000000" transform="matrix(0.0666667 0 0 0.0666667 206.174 174.856)" style="font:normal normal normal 200px 'Arial'" >
O</text>
<text x="0" y="0" stroke="transparent" fill="#000000" transform="matrix(0.0666667 0 0 0.0666667 414.022 54.8569)" style="font:normal normal normal 200px 'Arial'" >
OH</text>
<text x="0" y="0" stroke="transparent" fill="#000000" transform="matrix(0.0666667 0 0 0.0666667 344.741 14.856)" style="font:normal normal normal 200px 'Arial'" >
OH</text>
<text x="0" y="0" stroke="transparent" fill="#000000" transform="matrix(0.0666667 0 0 0.0666667 171.529 114.854)" style="font:normal normal normal 200px 'Arial'" >
O</text>
<path stroke="transparent" fill="#000000" transform="matrix(0.0666667 0 0 0.0666667 -130.425 -216)" d="M 5080.98,5164.04 L 5100.98,5164.04 L 5100.98,5679.67 L 5080.98,5679.67 L 5080.98,5164.04 Z " />
<path stroke="transparent" fill="#000000" transform="matrix(0.0666667 0 0 0.0666667 -130.425 -216)" d="M 5152.98,5164.03 L 5172.98,5164.03 L 5172.98,5679.67 L 5152.98,5679.67 L 5152.98,5164.03 Z " />
<path stroke="transparent" fill="#000000" transform="matrix(0.0666667 0 0 0.0666667 -130.425 -216)" d="M 5646.59,4873.27 L 5646.59,4896.36 L 5126.98,5196.37 L 5126.98,5173.27 L 5646.59,4873.27 Z " />
<path stroke="transparent" fill="#000000" transform="matrix(0.0666667 0 0 0.0666667 -130.425 -216)" d="M 6166.21,5173.27 L 6166.21,5196.37 L 5646.59,4896.36 L 5646.59,4873.27 L 6166.21,5173.27 Z " />
<path stroke="transparent" fill="#000000" transform="matrix(0.0666667 0 0 0.0666667 -130.425 -216)" d="M 6171.21,5093.02 L 6161.21,5110.34 L 5677.6,4831.12 L 5687.6,4813.8 L 6171.21,5093.02 Z " />
<path stroke="transparent" fill="#000000" transform="matrix(0.0666667 0 0 0.0666667 -130.425 -216)" d="M 6675.82,4879.04 L 6685.82,4884.81 L 6685.82,4896.36 L 6166.21,5196.37 L 6166.21,5173.27 L 6675.82,4879.04 Z " />
<path stroke="transparent" fill="#000000" transform="matrix(0.0666667 0 0 0.0666667 -130.425 -216)" d="M 7205.49,5173.27 L 7205.49,5196.37 L 6685.82,4896.36 L 6685.82,4884.81 L 6695.82,4879.04 L 7205.49,5173.27 Z " />
<path stroke="transparent" fill="#000000" transform="matrix(0.0666667 0 0 0.0666667 -130.425 -216)" d="M 7210.49,5093.01 L 7200.49,5110.34 L 6752.82,4851.9 L 6762.82,4834.58 L 7210.49,5093.01 Z " />
<path stroke="transparent" fill="#000000" transform="matrix(0.0666667 0 0 0.0666667 -130.425 -216)" d="M 7715.1,4879.04 L 7735.1,4890.59 L 7205.49,5196.37 L 7205.49,5173.27 L 7715.1,4879.04 Z " />
<path stroke="transparent" fill="#000000" transform="matrix(0.0666667 0 0 0.0666667 -130.425 -216)" d="M 7715.1,4290.63 L 7725.1,4284.86 L 7735.1,4290.63 L 7735.1,4890.59 L 7715.1,4879.04 L 7715.1,4290.63 Z " />
<path stroke="transparent" fill="#000000" transform="matrix(0.0666667 0 0 0.0666667 -130.425 -216)" d="M 7643.11,4326.43 L 7663.11,4326.43 L 7663.11,4843.25 L 7643.11,4843.25 L 7643.11,4326.43 Z " />
<path stroke="transparent" fill="#000000" transform="matrix(0.0666667 0 0 0.0666667 -130.425 -216)" d="M 8140.11,4033.7 L 8150.11,4051.02 L 7735.1,4290.63 L 7725.1,4284.86 L 7725.1,4273.31 L 8140.11,4033.7 Z " />
<path stroke="transparent" fill="#000000" transform="matrix(0.0666667 0 0 0.0666667 -130.425 -216)" d="M 7205.49,3996.4 L 7205.49,3984.85 L 7215.49,3979.08 L 7725.1,4273.31 L 7725.1,4284.86 L 7715.1,4290.63 L 7205.49,3996.4 Z " />
<path stroke="transparent" fill="#000000" transform="matrix(0.0666667 0 0 0.0666667 -130.425 -216)" d="M 7195.49,3504.67 L 7215.49,3504.67 L 7215.49,3979.08 L 7205.49,3984.85 L 7195.49,3979.08 L 7195.49,3504.67 Z " />
<path stroke="transparent" fill="#000000" transform="matrix(0.0666667 0 0 0.0666667 -130.425 -216)" d="M 6695.82,4290.63 L 6675.82,4279.09 L 7195.49,3979.08 L 7205.49,3984.85 L 7205.49,3996.4 L 6695.82,4290.63 Z " />
<path stroke="transparent" fill="#000000" transform="matrix(0.0666667 0 0 0.0666667 -130.425 -216)" d="M 6762.82,4335.09 L 6752.82,4317.77 L 7200.49,4059.34 L 7210.49,4076.66 L 6762.82,4335.09 Z " />
<path stroke="transparent" fill="#000000" transform="matrix(0.0666667 0 0 0.0666667 -130.425 -216)" d="M 6675.82,4279.09 L 6695.82,4290.63 L 6695.82,4879.04 L 6685.82,4884.81 L 6675.82,4879.04 L 6675.82,4279.09 Z " />
<path stroke="transparent" fill="#000000" transform="matrix(0.0666667 0 0 0.0666667 -130.425 -216)" d="M 4702.35,4951.23 L 4712.35,4933.9 L 5126.98,5173.27 L 5126.98,5196.37 L 4702.35,4951.23 Z " />
<path stroke="transparent" fill="#000000" transform="matrix(0.0666667 0 0 0.0666667 -130.425 -216)" d="M 4087.7,5196.37 L 4087.7,5173.27 L 4502.71,4933.66 L 4512.71,4950.98 L 4087.7,5196.37 Z " />
<path stroke="transparent" fill="#000000" transform="matrix(0.0666667 0 0 0.0666667 -130.425 -216)" d="M 3568.09,4896.36 L 3568.09,4873.27 L 4087.7,5173.27 L 4087.7,5196.37 L 3568.09,4896.36 Z " />
<path stroke="transparent" fill="#000000" transform="matrix(0.0666667 0 0 0.0666667 -130.425 -216)" d="M 3058.48,5190.59 L 3048.48,5184.82 L 3048.48,5173.27 L 3568.09,4873.27 L 3568.09,4896.36 L 3058.48,5190.59 Z " />
<path stroke="transparent" fill="#000000" transform="matrix(0.0666667 0 0 0.0666667 -130.425 -216)" d="M 2528.87,4896.36 L 2528.87,4873.27 L 3048.48,5173.27 L 3048.48,5184.82 L 3038.48,5190.59 L 2528.87,4896.36 Z " />
<path stroke="transparent" fill="#000000" transform="matrix(0.0666667 0 0 0.0666667 -130.425 -216)" d="M 2523.86,4976.61 L 2533.86,4959.29 L 2981.48,5217.73 L 2971.48,5235.05 L 2523.86,4976.61 Z " />
<path stroke="transparent" fill="#000000" transform="matrix(0.0666667 0 0 0.0666667 -130.425 -216)" d="M 2019.26,5190.53 L 1999.26,5178.99 L 2528.87,4873.27 L 2528.87,4896.36 L 2019.26,5190.53 Z " />
<path stroke="transparent" fill="#000000" transform="matrix(0.0666667 0 0 0.0666667 -130.425 -216)" d="M 2019.26,5779 L 1999.26,5790.55 L 1999.26,5178.99 L 2019.26,5190.53 L 2019.26,5779 Z " />
<path stroke="transparent" fill="#000000" transform="matrix(0.0666667 0 0 0.0666667 -130.425 -216)" d="M 2091.26,5743.2 L 2071.26,5743.2 L 2071.26,5226.33 L 2091.26,5226.33 L 2091.26,5743.2 Z " />
<path stroke="transparent" fill="#000000" transform="matrix(0.0666667 0 0 0.0666667 -130.425 -216)" d="M 2528.87,6073.23 L 2528.87,6096.33 L 1999.26,5790.55 L 2019.26,5779 L 2528.87,6073.23 Z " />
<path stroke="transparent" fill="#000000" transform="matrix(0.0666667 0 0 0.0666667 -130.425 -216)" d="M 3038.48,5779 L 3058.48,5790.55 L 2528.87,6096.33 L 2528.87,6073.23 L 3038.48,5779 Z " />
<path stroke="transparent" fill="#000000" transform="matrix(0.0666667 0 0 0.0666667 -130.425 -216)" d="M 2971.48,5734.54 L 2981.48,5751.86 L 2533.87,6010.3 L 2523.87,5992.98 L 2971.48,5734.54 Z " />
<path stroke="transparent" fill="#000000" transform="matrix(0.0666667 0 0 0.0666667 -130.425 -216)" d="M 3058.48,5790.55 L 3038.48,5779 L 3038.48,5190.59 L 3048.48,5184.82 L 3058.48,5190.59 L 3058.48,5790.55 Z " />
</svg>
