<?xml version="1.0" standalone="no" ?>
<!DOCTYPE svg PUBLIC "-//W3C//DTD SVG 1.1//EN" "http://www.w3.org/Graphics/SVG/1.1/DTD/svg11.dtd">
<svg width="406px" height="331px" viewBox="0 0 406 331" style="background-color: #ffffff00" xmlns="http://www.w3.org/2000/svg" xmlns:xlink="http://www.w3.org/1999/xlink" version="1.1" >
<path stroke="transparent" fill="#000000" transform="matrix(0.0833333 0 0 0.0833333 -250.875 -177)" d="M 6334.97,2984.32 L 6383.74,2874.67 L 6401.07,2884.92 L 6354.18,2990.33 L 6334.97,2984.32 Z " />
<path stroke="transparent" fill="#000000" transform="matrix(0.0833333 0 0 0.0833333 -250.875 -177)" d="M 6391.52,3002.01 L 6434.75,2904.82 L 6452.08,2915.06 L 6410.73,3008.03 L 6391.52,3002.01 Z " />
<path stroke="transparent" fill="#000000" transform="matrix(0.0833333 0 0 0.0833333 -250.875 -177)" d="M 6448.07,3019.71 L 6485.76,2934.97 L 6503.1,2945.21 L 6467.28,3025.73 L 6448.07,3019.71 Z " />
<path stroke="transparent" fill="#000000" transform="matrix(0.0833333 0 0 0.0833333 -250.875 -177)" d="M 6504.61,3037.41 L 6536.77,2965.12 L 6554.11,2975.36 L 6523.83,3043.43 L 6504.61,3037.41 Z " />
<path stroke="transparent" fill="#000000" transform="matrix(0.0833333 0 0 0.0833333 -250.875 -177)" d="M 6561.16,3055.11 L 6587.79,2995.26 L 6605.12,3005.51 L 6580.38,3061.13 L 6561.16,3055.11 Z " />
<path stroke="transparent" fill="#000000" transform="matrix(0.0833333 0 0 0.0833333 -250.875 -177)" d="M 6617.71,3072.81 L 6638.8,3025.41 L 6656.13,3035.66 L 6636.93,3078.83 L 6617.71,3072.81 Z " />
<path stroke="transparent" fill="#000000" transform="matrix(0.0833333 0 0 0.0833333 -250.875 -177)" d="M 6674.26,3090.51 L 6689.81,3055.56 L 6707.14,3065.8 L 6693.48,3096.52 L 6674.26,3090.51 Z " />
<path stroke="transparent" fill="#000000" transform="matrix(0.0833333 0 0 0.0833333 -250.875 -177)" d="M 6730.81,3108.21 L 6740.82,3085.71 L 6758.15,3095.95 L 6750.03,3114.22 L 6730.81,3108.21 Z " />
<path stroke="transparent" fill="#000000" transform="matrix(0.0833333 0 0 0.0833333 -250.875 -177)" d="M 5969.67,3747.5 L 5956.09,3728.82 L 6552.78,3665.9 L 6559.57,3675.24 L 6554.88,3685.79 L 5969.67,3747.5 Z " />
<path stroke="transparent" fill="#000000" transform="matrix(0.0833333 0 0 0.0833333 -250.875 -177)" d="M 5956.09,3728.82 L 5969.67,3747.5 L 5730.5,4285.15 L 5719.02,4286.36 L 5711.69,4278.23 L 5956.09,3728.82 Z " />
<path stroke="transparent" fill="#000000" transform="matrix(0.0833333 0 0 0.0833333 -250.875 -177)" d="M 6002.63,3801.34 L 6020.9,3809.47 L 5810.83,4281.71 L 5792.56,4273.58 L 6002.63,3801.34 Z " />
<path stroke="transparent" fill="#000000" transform="matrix(0.0833333 0 0 0.0833333 -250.875 -177)" d="M 5715.2,4298.12 L 5719.02,4286.36 L 5730.5,4285.15 L 6007.24,4665.79 L 5991.06,4677.55 L 5715.2,4298.12 Z " />
<path stroke="transparent" fill="#000000" transform="matrix(0.0833333 0 0 0.0833333 -250.875 -177)" d="M 5711.69,4278.23 L 5719.02,4286.36 L 5715.2,4298.12 L 5158.44,4479.22 L 5148.44,4471.96 L 5149.58,4461.07 L 5711.69,4278.23 Z " />
<path stroke="transparent" fill="#000000" transform="matrix(0.0833333 0 0 0.0833333 -250.875 -177)" d="M 5138.44,4477.74 L 5148.44,4471.96 L 5158.44,4479.22 L 5158.64,5064.69 L 5148.64,5071.96 L 5138.64,5066.19 L 5138.44,4477.74 Z " />
<path stroke="transparent" fill="#000000" transform="matrix(0.0833333 0 0 0.0833333 -250.875 -177)" d="M 5149.58,4461.07 L 5148.44,4471.96 L 5138.44,4477.74 L 4733.87,4244.33 L 4743.86,4227.01 L 5149.58,4461.07 Z " />
<path stroke="transparent" fill="#000000" transform="matrix(0.0833333 0 0 0.0833333 -250.875 -177)" d="M 5081.45,4504.89 L 5071.46,4522.22 L 4697.89,4306.7 L 4707.88,4289.37 L 5081.45,4504.89 Z " />
<path stroke="transparent" fill="#000000" transform="matrix(0.0833333 0 0 0.0833333 -250.875 -177)" d="M 4513.61,4227.1 L 4523.61,4244.41 L 4119.21,4478.07 L 4109.21,4472.3 L 4109.21,4460.75 L 4513.61,4227.1 Z " />
<path stroke="transparent" fill="#000000" transform="matrix(0.0833333 0 0 0.0833333 -250.875 -177)" d="M 3600.06,5867.3 L 3580.06,5867.31 L 3579.89,5378.25 L 3589.89,5372.47 L 3599.89,5378.24 L 3600.06,5867.3 Z " />
<path stroke="transparent" fill="#000000" transform="matrix(0.0833333 0 0 0.0833333 -250.875 -177)" d="M 3599.89,5378.24 L 3589.89,5372.47 L 3589.89,5360.93 L 4099.41,5066.53 L 4109.41,5072.3 L 4109.41,5083.85 L 3599.89,5378.24 Z " />
<path stroke="transparent" fill="#000000" transform="matrix(0.0833333 0 0 0.0833333 -250.875 -177)" d="M 3589.89,5360.93 L 3589.89,5372.47 L 3579.89,5378.25 L 3060.18,5078.42 L 3080.18,5066.87 L 3589.89,5360.93 Z " />
<path stroke="transparent" fill="#000000" transform="matrix(0.0833333 0 0 0.0833333 -250.875 -177)" d="M 3594.86,5280.67 L 3584.87,5298 L 3137.17,5039.71 L 3147.16,5022.39 L 3594.86,5280.67 Z " />
<path stroke="transparent" fill="#000000" transform="matrix(0.0833333 0 0 0.0833333 -250.875 -177)" d="M 3080.18,5066.87 L 3060.18,5078.42 L 3059.98,4466.87 L 3079.98,4478.41 L 3080.18,5066.87 Z " />
<path stroke="transparent" fill="#000000" transform="matrix(0.0833333 0 0 0.0833333 -250.875 -177)" d="M 3079.98,4478.41 L 3059.98,4466.87 L 3589.5,4160.93 L 3589.5,4184.02 L 3079.98,4478.41 Z " />
<path stroke="transparent" fill="#000000" transform="matrix(0.0833333 0 0 0.0833333 -250.875 -177)" d="M 3147,4522.85 L 3136.99,4505.53 L 3584.52,4246.95 L 3594.53,4264.27 L 3147,4522.85 Z " />
<path stroke="transparent" fill="#000000" transform="matrix(0.0833333 0 0 0.0833333 -250.875 -177)" d="M 3589.5,4184.02 L 3589.5,4160.93 L 4109.21,4460.75 L 4109.21,4472.3 L 4099.21,4478.08 L 3589.5,4184.02 Z " />
<path stroke="transparent" fill="#000000" transform="matrix(0.0833333 0 0 0.0833333 -250.875 -177)" d="M 4099.21,4478.08 L 4109.21,4472.3 L 4119.21,4478.07 L 4119.41,5066.53 L 4109.41,5072.3 L 4099.41,5066.53 L 4099.21,4478.08 Z " />
<path stroke="transparent" fill="#000000" transform="matrix(0.0833333 0 0 0.0833333 -250.875 -177)" d="M 4027.23,4513.9 L 4047.23,4513.89 L 4047.4,5030.75 L 4027.4,5030.76 L 4027.23,4513.9 Z " />
<path stroke="transparent" fill="#000000" transform="matrix(0.0833333 0 0 0.0833333 -250.875 -177)" d="M 4109.41,5083.85 L 4109.41,5072.3 L 4119.41,5066.53 L 4629.12,5360.58 L 4629.13,5383.68 L 4109.41,5083.85 Z " />
<path stroke="transparent" fill="#000000" transform="matrix(0.0833333 0 0 0.0833333 -250.875 -177)" d="M 4629.13,5383.68 L 4629.12,5360.58 L 5138.64,5066.19 L 5148.64,5071.96 L 5149.79,5082.85 L 4629.13,5383.68 Z " />
<path stroke="transparent" fill="#000000" transform="matrix(0.0833333 0 0 0.0833333 -250.875 -177)" d="M 4634.1,5297.65 L 4624.09,5280.33 L 5071.62,5021.76 L 5081.63,5039.07 L 4634.1,5297.65 Z " />
<path stroke="transparent" fill="#000000" transform="matrix(0.0833333 0 0 0.0833333 -250.875 -177)" d="M 5149.79,5082.85 L 5148.64,5071.96 L 5158.64,5064.69 L 5715.51,5245.43 L 5723.16,5268.94 L 5149.79,5082.85 Z " />
<path stroke="transparent" fill="#000000" transform="matrix(0.0833333 0 0 0.0833333 -250.875 -177)" d="M 5723.16,5268.94 L 5715.51,5245.43 L 5984.16,4875.41 L 6000.34,4887.16 L 5723.16,5268.94 Z " />
<path stroke="transparent" fill="#000000" transform="matrix(0.0833333 0 0 0.0833333 -250.875 -177)" d="M 6168.06,4771.57 L 6165.96,4751.68 L 6661.75,4699.41 L 6675.33,4718.08 L 6168.06,4771.57 Z " />
<path stroke="transparent" fill="#000000" transform="matrix(0.0833333 0 0 0.0833333 -250.875 -177)" d="M 6995.8,5080.65 L 6979.63,5092.41 L 6677.35,4676.64 L 6693.52,4664.88 L 6995.8,5080.65 Z " />
<path stroke="transparent" fill="#000000" transform="matrix(0.0833333 0 0 0.0833333 -250.875 -177)" d="M 6937.57,5122.99 L 6921.39,5134.75 L 6619.11,4718.98 L 6635.29,4707.22 L 6937.57,5122.99 Z " />
<path stroke="transparent" fill="#000000" transform="matrix(0.0833333 0 0 0.0833333 -250.875 -177)" d="M 6675.33,4718.08 L 6661.75,4699.41 L 6900.92,4161.75 L 6912.4,4160.54 L 6919.19,4169.88 L 6675.33,4718.08 Z " />
<path stroke="transparent" fill="#000000" transform="matrix(0.0833333 0 0 0.0833333 -250.875 -177)" d="M 7552.54,2608.31 L 7570.82,2616.43 L 7367.92,3072.55 L 7349.65,3064.42 L 7552.54,2608.31 Z " />
<path stroke="transparent" fill="#000000" transform="matrix(0.0833333 0 0 0.0833333 -250.875 -177)" d="M 7618.33,2637.57 L 7636.6,2645.7 L 7433.71,3101.81 L 7415.43,3093.68 L 7618.33,2637.57 Z " />
<path stroke="transparent" fill="#000000" transform="matrix(0.0833333 0 0 0.0833333 -250.875 -177)" d="M 7404.82,3053.57 L 7395.43,3074.67 L 6810.22,3136.38 L 6803.43,3127.04 L 6813.16,3115.96 L 7404.82,3053.57 Z " />
<path stroke="transparent" fill="#000000" transform="matrix(0.0833333 0 0 0.0833333 -250.875 -177)" d="M 7395.43,3074.67 L 7404.82,3053.57 L 7698.27,3457.2 L 7682.09,3468.96 L 7395.43,3074.67 Z " />
<path stroke="transparent" fill="#000000" transform="matrix(0.0833333 0 0 0.0833333 -250.875 -177)" d="M 7694.4,3656.44 L 7712.68,3664.57 L 7515.88,4106.96 L 7502.3,4088.29 L 7694.4,3656.44 Z " />
<path stroke="transparent" fill="#000000" transform="matrix(0.0833333 0 0 0.0833333 -250.875 -177)" d="M 7502.3,4088.29 L 7515.88,4106.96 L 6919.19,4169.88 L 6912.4,4160.54 L 6917.09,4149.99 L 7502.3,4088.29 Z " />
<path stroke="transparent" fill="#000000" transform="matrix(0.0833333 0 0 0.0833333 -250.875 -177)" d="M 6917.09,4149.99 L 6912.4,4160.54 L 6900.92,4161.75 L 6554.88,3685.79 L 6559.57,3675.24 L 6571.05,3674.03 L 6917.09,4149.99 Z " />
<path stroke="transparent" fill="#000000" transform="matrix(0.0833333 0 0 0.0833333 -250.875 -177)" d="M 6837.81,4163.37 L 6821.63,4175.14 L 6517.69,3757.09 L 6533.87,3745.32 L 6837.81,4163.37 Z " />
<path stroke="transparent" fill="#000000" transform="matrix(0.0833333 0 0 0.0833333 -250.875 -177)" d="M 6571.05,3674.03 L 6559.57,3675.24 L 6552.78,3665.9 L 6793.05,3125.78 L 6803.43,3127.04 L 6810.22,3136.38 L 6571.05,3674.03 Z " />
<path stroke="transparent" fill="#000000" transform="matrix(0.0833333 0 0 0.0833333 -250.875 -177)" d="M 6684.99,2558.35 L 6799.65,2499.71 L 6813.16,3115.96 L 6803.43,3127.04 L 6793.05,3125.78 L 6684.99,2558.35 Z " />
<path stroke="transparent" fill="#000000" transform="matrix(0.0833333 0 0 0.0833333 -250.875 -177)" d="M 6799.65,2499.71 L 6684.99,2558.35 L 7219.93,2169.42 L 7231.69,2185.6 L 6799.65,2499.71 Z " />
<text x="0" y="0" stroke="transparent" fill="#000000" transform="matrix(0.0833333 0 0 0.0833333 251.858 69.7645)" style="font:normal normal normal 200px 'Arial'" >
HO</text>
<text x="0" y="0" stroke="transparent" fill="#000000" transform="matrix(0.0833333 0 0 0.0833333 128.852 177.178)" style="font:normal normal normal 200px 'Arial'" >
N</text>
<text x="0" y="0" stroke="transparent" fill="#000000" transform="matrix(0.0833333 0 0 0.0833333 41.7991 327.206)" style="font:normal normal normal 200px 'Arial'" >
OH</text>
<text x="0" y="0" stroke="transparent" fill="#000000" transform="matrix(0.0833333 0 0 0.0833333 249.112 227.138)" style="font:normal normal normal 200px 'Arial'" >
N</text>
<text x="0" y="0" stroke="transparent" fill="#000000" transform="matrix(0.0833333 0 0 0.0833333 327.739 262.337)" style="font:normal normal normal 200px 'Arial'" >
O</text>
<text x="0" y="0" stroke="transparent" fill="#000000" transform="matrix(0.0833333 0 0 0.0833333 379.624 39.1596)" style="font:normal normal normal 200px 'Arial'" >
O</text>
<text x="0" y="0" stroke="transparent" fill="#000000" transform="matrix(0.0833333 0 0 0.0833333 388.705 125.285)" style="font:normal normal normal 200px 'Arial'" >
O</text>
</svg>
