<?xml version="1.0" standalone="no" ?>
<!DOCTYPE svg PUBLIC "-//W3C//DTD SVG 1.1//EN" "http://www.w3.org/Graphics/SVG/1.1/DTD/svg11.dtd">
<svg width="378px" height="275px" viewBox="0 0 378 275" style="background-color: #ffffff00" xmlns="http://www.w3.org/2000/svg" xmlns:xlink="http://www.w3.org/1999/xlink" version="1.1" >
<text x="0" y="0" stroke="transparent" fill="#000000" transform="matrix(0.0833333 0 0 0.0833333 164.494 17.9424)" style="font:normal normal normal 200px 'Arial'" >
O</text>
<text x="0" y="0" stroke="transparent" fill="#000000" transform="matrix(0.0833333 0 0 0.0833333 172.628 106.66)" style="font:normal normal normal 200px 'Arial'" >
O</text>
<text x="0" y="0" stroke="transparent" fill="#000000" transform="matrix(0.0833333 0 0 0.0833333 342.508 81.0469)" style="font:normal normal normal 200px 'Arial'" >
N</text>
<text x="0" y="0" stroke="transparent" fill="#000000" transform="matrix(0.0833333 0 0 0.0833333 239.199 162.061)" style="font:normal normal normal 200px 'Arial'" >
O</text>
<text x="0" y="0" stroke="transparent" fill="#000000" transform="matrix(0.0833333 0 0 0.0833333 224.514 247.415)" style="font:normal normal normal 200px 'Arial'" >
O</text>
<text x="0" y="0" stroke="transparent" fill="#000000" transform="matrix(0.0833333 0 0 0.0833333 4.1942 106.629)" style="font:normal normal normal 200px 'Arial'" >
HO</text>
<text x="0" y="0" stroke="transparent" fill="#000000" transform="matrix(0.0833333 0 0 0.0833333 68.1594 29.7608)" style="font:normal normal normal 200px 'Arial'" >
HO</text>
<path stroke="transparent" fill="#000000" transform="matrix(0.0833333 0 0 0.0833333 -246.875 -231)" d="M 4540.64,5457.45 L 4563.4,5461.37 L 4768.83,6018.94 L 4750.06,6025.86 L 4540.64,5457.45 Z " />
<path stroke="transparent" fill="#000000" transform="matrix(0.0833333 0 0 0.0833333 -246.875 -231)" d="M 4924.43,4996.2 L 4935.81,4998.16 L 4939.81,5008.99 L 4563.4,5461.37 L 4540.64,5457.45 L 4924.43,4996.2 Z " />
<path stroke="transparent" fill="#000000" transform="matrix(0.0833333 0 0 0.0833333 -246.875 -231)" d="M 4956.88,5069.78 L 4972.26,5082.57 L 4641.64,5479.91 L 4626.27,5467.12 L 4956.88,5069.78 Z " />
<path stroke="transparent" fill="#000000" transform="matrix(0.0833333 0 0 0.0833333 -246.875 -231)" d="M 4720.4,4442.8 L 4736.09,4427.53 L 4943.2,4989.28 L 4935.81,4998.16 L 4924.43,4996.2 L 4720.4,4442.8 Z " />
<path stroke="transparent" fill="#000000" transform="matrix(0.0833333 0 0 0.0833333 -246.875 -231)" d="M 4172.24,4224.02 L 4171,4212.76 L 4181.45,4206.16 L 4736.09,4427.53 L 4720.4,4442.8 L 4172.24,4224.02 Z " />
<path stroke="transparent" fill="#000000" transform="matrix(0.0833333 0 0 0.0833333 -246.875 -231)" d="M 4200.27,3615.81 L 4210.41,3613.91 L 4219.92,3621.82 L 4181.45,4206.16 L 4171,4212.76 L 4161.4,4206.26 L 4200.27,3615.81 Z " />
<path stroke="transparent" fill="#000000" transform="matrix(0.0833333 0 0 0.0833333 -246.875 -231)" d="M 4796.61,3455.08 L 4787.44,3478.04 L 4219.92,3621.82 L 4210.41,3613.91 L 4217.59,3601.77 L 4796.61,3455.08 Z " />
<path stroke="transparent" fill="#000000" transform="matrix(0.0833333 0 0 0.0833333 -246.875 -231)" d="M 4926.59,3005.32 L 4945.16,3012.74 L 4758.2,3481.19 L 4739.62,3473.78 L 4926.59,3005.32 Z " />
<path stroke="transparent" fill="#000000" transform="matrix(0.0833333 0 0 0.0833333 -246.875 -231)" d="M 4993.45,3032.01 L 5012.03,3039.43 L 4825.06,3507.9 L 4806.48,3500.49 L 4993.45,3032.01 Z " />
<path stroke="transparent" fill="#000000" transform="matrix(0.0833333 0 0 0.0833333 -246.875 -231)" d="M 5063.61,3878.4 L 5046.7,3889.07 L 4787.44,3478.04 L 4796.61,3455.08 L 5063.61,3878.4 Z " />
<path stroke="transparent" fill="#000000" transform="matrix(0.0833333 0 0 0.0833333 -246.875 -231)" d="M 5700.56,4065.13 L 5705.94,4086.35 L 5215.8,4001.93 L 5219.19,3982.22 L 5700.56,4065.13 Z " />
<path stroke="transparent" fill="#000000" transform="matrix(0.0833333 0 0 0.0833333 -246.875 -231)" d="M 6165.94,3698.46 L 6174.68,3704.31 L 6175.16,3716.66 L 5705.94,4086.35 L 5700.56,4065.13 L 6165.94,3698.46 Z " />
<path stroke="transparent" fill="#000000" transform="matrix(0.0833333 0 0 0.0833333 -246.875 -231)" d="M 6330.02,3117.2 L 6345.32,3136.62 L 6186.28,3700.03 L 6174.68,3704.31 L 6165.94,3698.46 L 6330.02,3117.2 Z " />
<path stroke="transparent" fill="#000000" transform="matrix(0.0833333 0 0 0.0833333 -246.875 -231)" d="M 6383.12,3194.1 L 6402.37,3199.53 L 6267.8,3676.26 L 6248.55,3670.82 L 6383.12,3194.1 Z " />
<path stroke="transparent" fill="#000000" transform="matrix(0.0833333 0 0 0.0833333 -246.875 -231)" d="M 6944.12,3093.22 L 6930.37,3113.77 L 6345.32,3136.62 L 6330.02,3117.2 L 6944.12,3093.22 Z " />
<path stroke="transparent" fill="#000000" transform="matrix(0.0833333 0 0 0.0833333 -246.875 -231)" d="M 7113.15,3552.23 L 7094.38,3559.14 L 6930.37,3113.77 L 6944.12,3093.22 L 7113.15,3552.23 Z " />
<path stroke="transparent" fill="#000000" transform="matrix(0.0833333 0 0 0.0833333 -246.875 -231)" d="M 7003.9,3701.06 L 7078.18,3795.31 L 6682.06,4044.26 L 6673.46,4037.92 L 6672.32,4025.13 L 7003.9,3701.06 Z " />
<path stroke="transparent" fill="#000000" transform="matrix(0.0833333 0 0 0.0833333 -246.875 -231)" d="M 6672.32,4025.13 L 6673.46,4037.92 L 6661.86,4042.19 L 6175.16,3716.66 L 6174.68,3704.31 L 6186.28,3700.03 L 6672.32,4025.13 Z " />
<path stroke="transparent" fill="#000000" transform="matrix(0.0833333 0 0 0.0833333 -246.875 -231)" d="M 6523.53,4605.91 L 6510.47,4615.39 L 6502.82,4605.68 L 6661.86,4042.19 L 6673.46,4037.92 L 6682.06,4044.26 L 6523.53,4605.91 Z " />
<path stroke="transparent" fill="#000000" transform="matrix(0.0833333 0 0 0.0833333 -246.875 -231)" d="M 7133.32,4629.17 L 7080.77,4743.79 L 6509.78,4625.42 L 6510.47,4615.39 L 6523.53,4605.91 L 7133.32,4629.17 Z " />
<path stroke="transparent" fill="#000000" transform="matrix(0.0833333 0 0 0.0833333 -246.875 -231)" d="M 7427.71,4188.68 L 7451.17,4189.56 L 7080.77,4743.79 L 7133.32,4629.17 L 7427.71,4188.68 Z " />
<path stroke="transparent" fill="#000000" transform="matrix(0.0833333 0 0 0.0833333 -246.875 -231)" d="M 7451.17,4189.56 L 7427.71,4188.68 L 7202.16,3788.94 L 7219.58,3779.11 L 7451.17,4189.56 Z " />
<path stroke="transparent" fill="#000000" transform="matrix(0.0833333 0 0 0.0833333 -246.875 -231)" d="M 6019.15,4644.52 L 6018.37,4624.54 L 6502.82,4605.68 L 6510.47,4615.39 L 6510.86,4625.38 L 6019.15,4644.52 Z " />
<path stroke="transparent" fill="#000000" transform="matrix(0.0833333 0 0 0.0833333 -246.875 -231)" d="M 5531.02,5110.81 L 5523.04,5089.14 L 5826.75,4724.2 L 5842.13,4736.99 L 5531.02,5110.81 Z " />
<path stroke="transparent" fill="#000000" transform="matrix(0.0833333 0 0 0.0833333 -246.875 -231)" d="M 5523.04,5089.14 L 5531.02,5110.81 L 4939.81,5008.99 L 4935.81,4998.16 L 4943.2,4989.28 L 5523.04,5089.14 Z " />
<path stroke="transparent" fill="#000000" transform="matrix(0.0833333 0 0 0.0833333 -246.875 -231)" d="M 5741.1,5547.47 L 5722.34,5554.39 L 5544.24,5071.49 L 5563,5064.57 L 5741.1,5547.47 Z " />
<path stroke="transparent" fill="#000000" transform="matrix(0.0833333 0 0 0.0833333 -246.875 -231)" d="M 5673.54,5572.39 L 5654.78,5579.31 L 5476.67,5096.38 L 5495.43,5089.46 L 5673.54,5572.39 Z " />
<path stroke="transparent" fill="#000000" transform="matrix(0.0833333 0 0 0.0833333 -246.875 -231)" d="M 3662.12,3580.58 L 3682.44,3462.31 L 3701.8,3467.7 L 3682.17,3581.97 L 3662.12,3580.58 Z " />
<path stroke="transparent" fill="#000000" transform="matrix(0.0833333 0 0 0.0833333 -246.875 -231)" d="M 3721.28,3584.66 L 3739.57,3478.22 L 3758.94,3483.6 L 3741.34,3586.05 L 3721.28,3584.66 Z " />
<path stroke="transparent" fill="#000000" transform="matrix(0.0833333 0 0 0.0833333 -246.875 -231)" d="M 3780.45,3588.75 L 3796.71,3494.12 L 3816.07,3499.51 L 3800.5,3590.13 L 3780.45,3588.75 Z " />
<path stroke="transparent" fill="#000000" transform="matrix(0.0833333 0 0 0.0833333 -246.875 -231)" d="M 3839.61,3592.83 L 3853.84,3510.02 L 3873.21,3515.41 L 3859.67,3594.21 L 3839.61,3592.83 Z " />
<path stroke="transparent" fill="#000000" transform="matrix(0.0833333 0 0 0.0833333 -246.875 -231)" d="M 3898.78,3596.91 L 3910.98,3525.92 L 3930.34,3531.31 L 3918.84,3598.29 L 3898.78,3596.91 Z " />
<path stroke="transparent" fill="#000000" transform="matrix(0.0833333 0 0 0.0833333 -246.875 -231)" d="M 3957.95,3600.99 L 3968.11,3541.82 L 3987.48,3547.21 L 3978,3602.37 L 3957.95,3600.99 Z " />
<path stroke="transparent" fill="#000000" transform="matrix(0.0833333 0 0 0.0833333 -246.875 -231)" d="M 4017.11,3605.07 L 4025.25,3557.72 L 4044.62,3563.11 L 4037.17,3606.45 L 4017.11,3605.07 Z " />
<path stroke="transparent" fill="#000000" transform="matrix(0.0833333 0 0 0.0833333 -246.875 -231)" d="M 4076.28,3609.15 L 4082.38,3573.62 L 4101.75,3579.01 L 4096.33,3610.54 L 4076.28,3609.15 Z " />
<path stroke="transparent" fill="#000000" transform="matrix(0.0833333 0 0 0.0833333 -246.875 -231)" d="M 4135.44,3613.23 L 4139.52,3589.52 L 4158.89,3594.91 L 4155.5,3614.62 L 4135.44,3613.23 Z " />
<path stroke="transparent" fill="#000000" transform="matrix(0.0833333 0 0 0.0833333 -246.875 -231)" d="M 3311.19,3897.94 L 3295.82,3885.15 L 3611.37,3505.91 L 3626.74,3518.7 L 3311.19,3897.94 Z " />
<path stroke="transparent" fill="#000000" transform="matrix(0.0833333 0 0 0.0833333 -246.875 -231)" d="M 3988.73,3186.23 L 4101.31,3144.71 L 4217.59,3601.77 L 4210.41,3613.91 L 4200.27,3615.81 L 3988.73,3186.23 Z " />
<path stroke="transparent" fill="#000000" transform="matrix(0.0833333 0 0 0.0833333 -246.875 -231)" d="M 3681.5,4564.72 L 3621.49,4460.81 L 4161.4,4206.26 L 4171,4212.76 L 4172.24,4224.02 L 3681.5,4564.72 Z " />
</svg>
