<?xml version="1.0" standalone="no" ?>
<!DOCTYPE svg PUBLIC "-//W3C//DTD SVG 1.1//EN" "http://www.w3.org/Graphics/SVG/1.1/DTD/svg11.dtd">
<svg width="311px" height="270px" viewBox="0 0 311 270" style="background-color: #ffffff00" xmlns="http://www.w3.org/2000/svg" xmlns:xlink="http://www.w3.org/1999/xlink" version="1.1" >
<text x="0" y="0" stroke="transparent" fill="#000000" transform="matrix(0.0833333 0 0 0.0833333 83.8844 18.242)" style="font:normal normal normal 200px 'Arial'" >
O</text>
<text x="0" y="0" stroke="transparent" fill="#000000" transform="matrix(0.0833333 0 0 0.0833333 90.9559 49.4656)" style="font:normal normal normal 200px 'Arial'" >
HO</text>
<text x="0" y="0" stroke="transparent" fill="#000000" transform="matrix(0.0833333 0 0 0.0833333 214.583 91.8336)" style="font:normal normal normal 200px 'Arial'" >
O</text>
<text x="0" y="0" stroke="transparent" fill="#000000" transform="matrix(0.0833333 0 0 0.0833333 215.668 191.83)" style="font:normal normal normal 200px 'Arial'" >
O</text>
<text x="0" y="0" stroke="transparent" fill="#000000" transform="matrix(0.0833333 0 0 0.0833333 259.776 266.355)" style="font:normal normal normal 200px 'Arial'" >
O</text>
<text x="0" y="0" stroke="transparent" fill="#000000" transform="matrix(0.0833333 0 0 0.0833333 129.616 242.756)" style="font:normal normal normal 200px 'Arial'" >
OH</text>
<text x="0" y="0" stroke="transparent" fill="#000000" transform="matrix(0.0833333 0 0 0.0833333 40.8555 43.7078)" style="font:normal normal normal 200px 'Arial'" >
OH</text>
<path stroke="transparent" fill="#000000" transform="matrix(0.0833333 0 0 0.0833333 -280.208 -224.167)" d="M 6525.5,2820.05 L 6525.25,2796.96 L 7053.17,3094.11 L 7043.36,3111.54 L 6525.5,2820.05 Z " />
<path stroke="transparent" fill="#000000" transform="matrix(0.0833333 0 0 0.0833333 -280.208 -224.167)" d="M 6521.37,2900.35 L 6531.18,2882.93 L 7017.85,3156.86 L 7008.04,3174.28 L 6521.37,2900.35 Z " />
<path stroke="transparent" fill="#000000" transform="matrix(0.0833333 0 0 0.0833333 -280.208 -224.167)" d="M 6029.03,3113.88 L 6009.03,3114.1 L 6008.9,3102.55 L 6525.25,2796.96 L 6525.5,2820.05 L 6029.03,3113.88 Z " />
<path stroke="transparent" fill="#000000" transform="matrix(0.0833333 0 0 0.0833333 -280.208 -224.167)" d="M 6536.82,3399.7 L 6527.01,3417.13 L 6019.21,3131.3 L 6009.03,3114.1 L 6029.03,3113.88 L 6536.82,3399.7 Z " />
<path stroke="transparent" fill="#000000" transform="matrix(0.0833333 0 0 0.0833333 -280.208 -224.167)" d="M 5486.33,2831.25 L 5486.08,2808.16 L 6008.9,3102.55 L 6009.03,3114.1 L 5999.09,3119.98 L 5486.33,2831.25 Z " />
<path stroke="transparent" fill="#000000" transform="matrix(0.0833333 0 0 0.0833333 -280.208 -224.167)" d="M 4979.92,3130.96 L 4959.8,3119.63 L 5486.08,2808.16 L 5486.33,2831.25 L 4979.92,3130.96 Z " />
<path stroke="transparent" fill="#000000" transform="matrix(0.0833333 0 0 0.0833333 -280.208 -224.167)" d="M 4525.07,2927.59 L 4534.88,2910.17 L 4975.22,3158.15 L 4965.41,3175.58 L 4525.07,2927.59 Z " />
<path stroke="transparent" fill="#000000" transform="matrix(0.0833333 0 0 0.0833333 -280.208 -224.167)" d="M 4560.4,2864.86 L 4570.21,2847.44 L 5010.53,3095.41 L 5000.72,3112.84 L 4560.4,2864.86 Z " />
<path stroke="transparent" fill="#000000" transform="matrix(0.0833333 0 0 0.0833333 -280.208 -224.167)" d="M 4986.34,3719.32 L 4976.4,3725.2 L 4965.99,3687.16 L 4959.8,3119.63 L 4979.92,3130.96 L 4986.34,3719.32 Z " />
<path stroke="transparent" fill="#000000" transform="matrix(0.0833333 0 0 0.0833333 -280.208 -224.167)" d="M 4728.36,3315.57 L 4745.68,3305.57 L 4965.99,3687.16 L 4976.4,3725.2 L 4962.8,3721.63 L 4728.36,3315.57 Z " />
<path stroke="transparent" fill="#000000" transform="matrix(0.0833333 0 0 0.0833333 -280.208 -224.167)" d="M 5499.03,4008.05 L 5499.15,4019.59 L 5489.22,4025.47 L 4976.53,3736.75 L 4976.4,3725.2 L 4986.34,3719.32 L 5499.03,4008.05 Z " />
<path stroke="transparent" fill="#000000" transform="matrix(0.0833333 0 0 0.0833333 -280.208 -224.167)" d="M 6026.95,4305.27 L 6017.14,4322.7 L 5509.34,4036.8 L 5499.15,4019.59 L 5519.15,4019.38 L 6026.95,4305.27 Z " />
<path stroke="transparent" fill="#000000" transform="matrix(0.0833333 0 0 0.0833333 -280.208 -224.167)" d="M 5911.32,3764.04 L 5921.51,3781.25 L 5519.15,4019.38 L 5499.15,4019.59 L 5499.03,4008.05 L 5911.32,3764.04 Z " />
<path stroke="transparent" fill="#000000" transform="matrix(0.0833333 0 0 0.0833333 -280.208 -224.167)" d="M 6024.36,3608.74 L 6004.36,3608.95 L 5999.09,3119.98 L 6009.03,3114.1 L 6019.21,3131.3 L 6024.36,3608.74 Z " />
<path stroke="transparent" fill="#000000" transform="matrix(0.0833333 0 0 0.0833333 -280.208 -224.167)" d="M 5515.63,4613.69 L 5505.7,4619.57 L 5495.63,4613.91 L 5489.22,4025.47 L 5499.15,4019.59 L 5509.34,4036.8 L 5515.63,4613.69 Z " />
<path stroke="transparent" fill="#000000" transform="matrix(0.0833333 0 0 0.0833333 -280.208 -224.167)" d="M 5940.26,4852.79 L 5930.44,4870.22 L 5505.82,4631.12 L 5505.7,4619.57 L 5515.63,4613.69 L 5940.26,4852.79 Z " />
<path stroke="transparent" fill="#000000" transform="matrix(0.0833333 0 0 0.0833333 -280.208 -224.167)" d="M 6045.05,5519.54 L 6024.93,5508.21 L 6019.81,5033.89 L 6039.81,5033.68 L 6045.05,5519.54 Z " />
<path stroke="transparent" fill="#000000" transform="matrix(0.0833333 0 0 0.0833333 -280.208 -224.167)" d="M 5523.74,5828.07 L 5513.55,5810.86 L 6024.93,5508.21 L 6045.05,5519.54 L 5523.74,5828.07 Z " />
<path stroke="transparent" fill="#000000" transform="matrix(0.0833333 0 0 0.0833333 -280.208 -224.167)" d="M 6487.21,5715.72 L 6477.4,5733.15 L 6029.63,5481.02 L 6039.45,5463.59 L 6487.21,5715.72 Z " />
<path stroke="transparent" fill="#000000" transform="matrix(0.0833333 0 0 0.0833333 -280.208 -224.167)" d="M 6451.88,5778.46 L 6442.07,5795.88 L 5994.31,5543.76 L 6004.12,5526.33 L 6451.88,5778.46 Z " />
<path stroke="transparent" fill="#000000" transform="matrix(0.0833333 0 0 0.0833333 -280.208 -224.167)" d="M 4999.48,4930.83 L 4989.42,4925.16 L 4989.3,4913.62 L 5495.63,4613.91 L 5505.7,4619.57 L 5505.82,4631.12 L 4999.48,4930.83 Z " />
<path stroke="transparent" fill="#000000" transform="matrix(0.0833333 0 0 0.0833333 -280.208 -224.167)" d="M 5004.76,5419.81 L 4984.76,5420.02 L 4979.49,4931.05 L 4989.42,4925.16 L 4999.48,4930.83 L 5004.76,5419.81 Z " />
<path stroke="transparent" fill="#000000" transform="matrix(0.0833333 0 0 0.0833333 -280.208 -224.167)" d="M 4466.66,4642.32 L 4466.53,4630.77 L 4476.47,4624.89 L 4989.3,4913.62 L 4989.42,4925.16 L 4979.49,4931.05 L 4466.66,4642.32 Z " />
<path stroke="transparent" fill="#000000" transform="matrix(0.0833333 0 0 0.0833333 -280.208 -224.167)" d="M 3963.88,4939.88 L 3950.18,4936.36 L 3950.06,4924.82 L 4456.47,4625.11 L 4466.53,4630.77 L 4466.66,4642.32 L 3963.88,4939.88 Z " />
<path stroke="transparent" fill="#000000" transform="matrix(0.0833333 0 0 0.0833333 -280.208 -224.167)" d="M 3664.58,5464.09 L 3647.15,5454.28 L 3936.56,4940.17 L 3950.18,4936.36 L 3950.4,4956.36 L 3664.58,5464.09 Z " />
<path stroke="transparent" fill="#000000" transform="matrix(0.0833333 0 0 0.0833333 -280.208 -224.167)" d="M 4264.45,5447.54 L 4247.24,5457.73 L 3950.4,4956.36 L 3950.18,4936.36 L 3963.88,4939.88 L 4264.45,5447.54 Z " />
<path stroke="transparent" fill="#000000" transform="matrix(0.0833333 0 0 0.0833333 -280.208 -224.167)" d="M 3417.43,4647.85 L 3437.3,4636.09 L 3950.06,4924.82 L 3950.18,4936.36 L 3936.56,4940.17 L 3417.43,4647.85 Z " />
<path stroke="transparent" fill="#000000" transform="matrix(0.0833333 0 0 0.0833333 -280.208 -224.167)" d="M 3410.83,4036.4 L 3430.95,4047.73 L 3437.3,4636.09 L 3417.43,4647.85 L 3410.83,4036.4 Z " />
<path stroke="transparent" fill="#000000" transform="matrix(0.0833333 0 0 0.0833333 -280.208 -224.167)" d="M 3927.18,3730.81 L 3937.24,3736.47 L 3937.36,3748.02 L 3430.95,4047.73 L 3410.83,4036.4 L 3927.18,3730.81 Z " />
<path stroke="transparent" fill="#000000" transform="matrix(0.0833333 0 0 0.0833333 -280.208 -224.167)" d="M 3922.06,3256.42 L 3942.06,3256.21 L 3947.18,3730.59 L 3937.24,3736.47 L 3927.18,3730.81 L 3922.06,3256.42 Z " />
<path stroke="transparent" fill="#000000" transform="matrix(0.0833333 0 0 0.0833333 -280.208 -224.167)" d="M 4450.06,4013.69 L 4460.06,4030.79 L 4450.12,4036.67 L 3937.36,3748.02 L 3937.24,3736.47 L 3947.18,3730.59 L 4450.06,4013.69 Z " />
<path stroke="transparent" fill="#000000" transform="matrix(0.0833333 0 0 0.0833333 -280.208 -224.167)" d="M 4450.12,4036.67 L 4460.06,4030.79 L 4470.12,4036.46 L 4476.47,4624.89 L 4466.53,4630.77 L 4456.47,4625.11 L 4450.12,4036.67 Z " />
<path stroke="transparent" fill="#000000" transform="matrix(0.0833333 0 0 0.0833333 -280.208 -224.167)" d="M 4470.12,4036.46 L 4460.06,4030.79 L 4470.06,4013.25 L 4962.8,3721.63 L 4976.4,3725.2 L 4976.53,3736.75 L 4470.12,4036.46 Z " />
<path stroke="transparent" fill="#000000" transform="matrix(0.0833333 0 0 0.0833333 -280.208 -224.167)" d="M 4450.06,3430.79 L 4470.06,3430.79 L 4470.06,4013.25 L 4460.06,4030.79 L 4450.06,4013.69 L 4450.06,3430.79 Z " />
</svg>
