<?xml version="1.0" standalone="no" ?>
<!DOCTYPE svg PUBLIC "-//W3C//DTD SVG 1.1//EN" "http://www.w3.org/Graphics/SVG/1.1/DTD/svg11.dtd">
<svg width="404px" height="209px" viewBox="0 0 404 209" style="background-color: #ffffff00" xmlns="http://www.w3.org/2000/svg" xmlns:xlink="http://www.w3.org/1999/xlink" version="1.1" >
<text x="0" y="0" stroke="transparent" fill="#000000" transform="matrix(0.0833333 0 0 0.0833333 3.48467 135.518)" style="font:normal normal normal 200px 'Arial'" >
O</text>
<text x="0" y="0" stroke="transparent" fill="#000000" transform="matrix(0.0833333 0 0 0.0833333 46.7864 60.5204)" style="font:normal normal normal 200px 'Arial'" >
OH</text>
<path stroke="transparent" fill="#000000" transform="matrix(0.0833333 0 0 0.0833333 -234.208 -255)" d="M 7087.06,3419.8 L 7087.06,3396.71 L 7611.68,3699.58 L 7601.68,3716.9 L 7087.06,3419.8 Z " />
<path stroke="transparent" fill="#000000" transform="matrix(0.0833333 0 0 0.0833333 -234.208 -255)" d="M 7082.07,3500.05 L 7092.07,3482.73 L 7575.69,3761.94 L 7565.69,3779.26 L 7082.07,3500.05 Z " />
<path stroke="transparent" fill="#000000" transform="matrix(0.0833333 0 0 0.0833333 -234.208 -255)" d="M 6577.52,3714.02 L 6567.52,3708.24 L 6577.52,3690.92 L 7087.06,3396.71 L 7087.06,3419.8 L 6577.52,3714.02 Z " />
<path stroke="transparent" fill="#000000" transform="matrix(0.0833333 0 0 0.0833333 -234.208 -255)" d="M 6557.52,3108.26 L 6577.52,3108.26 L 6577.52,3690.92 L 6567.52,3708.24 L 6557.52,3690.92 L 6557.52,3108.26 Z " />
<path stroke="transparent" fill="#000000" transform="matrix(0.0833333 0 0 0.0833333 -234.208 -255)" d="M 6577.52,4314 L 6557.52,4302.45 L 6557.52,3714.02 L 6567.52,3708.24 L 6577.52,3714.02 L 6577.52,4314 Z " />
<path stroke="transparent" fill="#000000" transform="matrix(0.0833333 0 0 0.0833333 -234.208 -255)" d="M 6047.89,4619.76 L 6047.89,4596.67 L 6557.52,4302.45 L 6577.52,4314 L 6047.89,4619.76 Z " />
<path stroke="transparent" fill="#000000" transform="matrix(0.0833333 0 0 0.0833333 -234.208 -255)" d="M 5528.35,4319.77 L 5528.35,4308.23 L 5538.35,4302.45 L 6047.89,4596.67 L 6047.89,4619.76 L 5528.35,4319.77 Z " />
<path stroke="transparent" fill="#000000" transform="matrix(0.0833333 0 0 0.0833333 -234.208 -255)" d="M 5518.35,3714.02 L 5528.35,3708.24 L 5538.35,3714.02 L 5538.35,4302.45 L 5528.35,4308.23 L 5518.35,4302.45 L 5518.35,3714.02 Z " />
<path stroke="transparent" fill="#000000" transform="matrix(0.0833333 0 0 0.0833333 -234.208 -255)" d="M 5008.73,3419.8 L 5008.73,3396.71 L 5528.35,3696.7 L 5528.35,3708.24 L 5518.35,3714.02 L 5008.73,3419.8 Z " />
<path stroke="transparent" fill="#000000" transform="matrix(0.0833333 0 0 0.0833333 -234.208 -255)" d="M 5003.73,3500.05 L 5013.73,3482.73 L 5461.35,3741.15 L 5451.35,3758.47 L 5003.73,3500.05 Z " />
<path stroke="transparent" fill="#000000" transform="matrix(0.0833333 0 0 0.0833333 -234.208 -255)" d="M 4499.11,3714.02 L 4479.11,3702.47 L 5008.73,3396.71 L 5008.73,3419.8 L 4499.11,3714.02 Z " />
<path stroke="transparent" fill="#000000" transform="matrix(0.0833333 0 0 0.0833333 -234.208 -255)" d="M 4499.11,4302.45 L 4489.11,4308.23 L 4479.11,4302.45 L 4479.11,3702.47 L 4499.11,3714.02 L 4499.11,4302.45 Z " />
<path stroke="transparent" fill="#000000" transform="matrix(0.0833333 0 0 0.0833333 -234.208 -255)" d="M 3979.48,4613.99 L 3969.48,4608.22 L 3979.48,4590.9 L 4479.11,4302.45 L 4489.11,4308.23 L 4489.11,4319.77 L 3979.48,4613.99 Z " />
<path stroke="transparent" fill="#000000" transform="matrix(0.0833333 0 0 0.0833333 -234.208 -255)" d="M 3959.48,4008.24 L 3979.48,4008.24 L 3979.48,4590.9 L 3969.48,4608.22 L 3959.48,4590.9 L 3959.48,4008.24 Z " />
<path stroke="transparent" fill="#000000" transform="matrix(0.0833333 0 0 0.0833333 -234.208 -255)" d="M 3439.94,4314 L 3459.94,4302.45 L 3959.48,4590.9 L 3969.48,4608.22 L 3959.48,4613.99 L 3439.94,4314 Z " />
<path stroke="transparent" fill="#000000" transform="matrix(0.0833333 0 0 0.0833333 -234.208 -255)" d="M 3045.93,4594.58 L 3035.94,4577.26 L 3480.94,4320.35 L 3490.93,4337.67 L 3045.93,4594.58 Z " />
<path stroke="transparent" fill="#000000" transform="matrix(0.0833333 0 0 0.0833333 -234.208 -255)" d="M 3009.94,4532.23 L 2999.94,4514.91 L 3444.94,4258 L 3454.94,4275.32 L 3009.94,4532.23 Z " />
<path stroke="transparent" fill="#000000" transform="matrix(0.0833333 0 0 0.0833333 -234.208 -255)" d="M 3439.94,3828.08 L 3459.94,3828.08 L 3459.94,4302.45 L 3439.94,4314 L 3439.94,3828.08 Z " />
<path stroke="transparent" fill="#000000" transform="matrix(0.0833333 0 0 0.0833333 -234.208 -255)" d="M 3979.48,5202.43 L 3959.48,5213.97 L 3959.48,4613.99 L 3969.48,4608.22 L 3979.48,4613.99 L 3979.48,5202.43 Z " />
<path stroke="transparent" fill="#000000" transform="matrix(0.0833333 0 0 0.0833333 -234.208 -255)" d="M 4489.11,5496.64 L 4489.11,5519.74 L 3959.48,5213.97 L 3979.48,5202.43 L 4489.11,5496.64 Z " />
<path stroke="transparent" fill="#000000" transform="matrix(0.0833333 0 0 0.0833333 -234.208 -255)" d="M 4998.73,5202.43 L 5018.73,5213.97 L 4489.11,5519.74 L 4489.11,5496.64 L 4998.73,5202.43 Z " />
<path stroke="transparent" fill="#000000" transform="matrix(0.0833333 0 0 0.0833333 -234.208 -255)" d="M 4998.73,4613.99 L 5008.73,4608.22 L 5018.73,4625.54 L 5018.73,5213.97 L 4998.73,5202.43 L 4998.73,4613.99 Z " />
<path stroke="transparent" fill="#000000" transform="matrix(0.0833333 0 0 0.0833333 -234.208 -255)" d="M 5028.73,4608.22 L 5008.73,4608.22 L 5008.73,4596.67 L 5518.35,4302.45 L 5528.35,4308.23 L 5528.35,4319.77 L 5028.73,4608.22 Z " />
<path stroke="transparent" fill="#000000" transform="matrix(0.0833333 0 0 0.0833333 -234.208 -255)" d="M 5008.73,4596.67 L 5008.73,4608.22 L 4998.73,4613.99 L 4489.11,4319.77 L 4489.11,4308.23 L 4499.11,4302.45 L 5008.73,4596.67 Z " />
<path stroke="transparent" fill="#000000" transform="matrix(0.0833333 0 0 0.0833333 -234.208 -255)" d="M 5533.35,4899.55 L 5523.35,4916.87 L 5018.73,4625.54 L 5008.73,4608.22 L 5028.73,4608.22 L 5533.35,4899.55 Z " />
<path stroke="transparent" fill="#000000" transform="matrix(0.0833333 0 0 0.0833333 -234.208 -255)" d="M 6047.89,3396.71 L 6047.89,3419.8 L 5538.35,3714.02 L 5528.35,3708.24 L 5528.35,3696.7 L 6047.89,3396.71 Z " />
<path stroke="transparent" fill="#000000" transform="matrix(0.0833333 0 0 0.0833333 -234.208 -255)" d="M 6047.89,3419.8 L 6047.89,3396.71 L 6557.52,3690.92 L 6567.52,3708.24 L 6557.52,3714.02 L 6047.89,3419.8 Z " />
</svg>
