<?xml version="1.0" standalone="no" ?>
<!DOCTYPE svg PUBLIC "-//W3C//DTD SVG 1.1//EN" "http://www.w3.org/Graphics/SVG/1.1/DTD/svg11.dtd">
<svg width="471px" height="193px" viewBox="0 0 471 193" style="background-color: #ffffff00" xmlns="http://www.w3.org/2000/svg" xmlns:xlink="http://www.w3.org/1999/xlink" version="1.1" >
<text x="0" y="0" stroke="transparent" fill="#000000" transform="matrix(0.0666667 0 0 0.0666667 289.464 14.4503)" style="font:normal normal normal 200px 'Arial'" >
O</text>
<text x="0" y="0" stroke="transparent" fill="#000000" transform="matrix(0.0666667 0 0 0.0666667 220.178 14.4503)" style="font:normal normal normal 200px 'Arial'" >
O</text>
<text x="0" y="0" stroke="transparent" fill="#000000" transform="matrix(0.0666667 0 0 0.0666667 2.70465 134.449)" style="font:normal normal normal 200px 'Arial'" >
HO</text>
<text x="0" y="0" stroke="transparent" fill="#000000" transform="matrix(0.0666667 0 0 0.0666667 81.6151 174.45)" style="font:normal normal normal 200px 'Arial'" >
O</text>
<path stroke="transparent" fill="#000000" transform="matrix(0.0666667 0 0 0.0666667 -113.425 -236)" d="M 8199.84,4290.31 L 8199.84,4267.22 L 8724.45,4570.11 L 8714.45,4587.43 L 8199.84,4290.31 Z " />
<path stroke="transparent" fill="#000000" transform="matrix(0.0666667 0 0 0.0666667 -113.425 -236)" d="M 7680.23,4590.32 L 7680.23,4567.23 L 8199.84,4267.22 L 8199.84,4290.31 L 7680.23,4590.32 Z " />
<path stroke="transparent" fill="#000000" transform="matrix(0.0666667 0 0 0.0666667 -113.425 -236)" d="M 7160.56,4290.31 L 7160.56,4267.22 L 7680.23,4567.23 L 7680.23,4590.32 L 7160.56,4290.31 Z " />
<path stroke="transparent" fill="#000000" transform="matrix(0.0666667 0 0 0.0666667 -113.425 -236)" d="M 6640.94,4590.32 L 6640.94,4567.23 L 7160.56,4267.22 L 7160.56,4290.31 L 6640.94,4590.32 Z " />
<path stroke="transparent" fill="#000000" transform="matrix(0.0666667 0 0 0.0666667 -113.425 -236)" d="M 6121.33,4290.31 L 6121.33,4267.22 L 6640.94,4567.23 L 6640.94,4590.32 L 6121.33,4290.31 Z " />
<path stroke="transparent" fill="#000000" transform="matrix(0.0666667 0 0 0.0666667 -113.425 -236)" d="M 6075.33,3798.59 L 6095.33,3798.59 L 6095.33,4299.55 L 6075.33,4299.55 L 6075.33,3798.59 Z " />
<path stroke="transparent" fill="#000000" transform="matrix(0.0666667 0 0 0.0666667 -113.425 -236)" d="M 6147.33,3798.59 L 6167.33,3798.59 L 6167.33,4299.55 L 6147.33,4299.55 L 6147.33,3798.59 Z " />
<path stroke="transparent" fill="#000000" transform="matrix(0.0666667 0 0 0.0666667 -113.425 -236)" d="M 5601.72,4590.32 L 5601.72,4567.23 L 6121.33,4267.22 L 6121.33,4290.31 L 5601.72,4590.32 Z " />
<path stroke="transparent" fill="#000000" transform="matrix(0.0666667 0 0 0.0666667 -113.425 -236)" d="M 5082.05,4290.31 L 5082.05,4267.22 L 5601.72,4567.23 L 5601.72,4590.32 L 5082.05,4290.31 Z " />
<path stroke="transparent" fill="#000000" transform="matrix(0.0666667 0 0 0.0666667 -113.425 -236)" d="M 5036.05,3798.59 L 5056.05,3798.59 L 5056.05,4299.55 L 5036.05,4299.55 L 5036.05,3798.59 Z " />
<path stroke="transparent" fill="#000000" transform="matrix(0.0666667 0 0 0.0666667 -113.425 -236)" d="M 5108.05,3798.59 L 5128.05,3798.59 L 5128.05,4299.55 L 5108.05,4299.55 L 5108.05,3798.59 Z " />
<path stroke="transparent" fill="#000000" transform="matrix(0.0666667 0 0 0.0666667 -113.425 -236)" d="M 4562.44,4590.32 L 4562.44,4567.23 L 5082.05,4267.22 L 5082.05,4290.31 L 4562.44,4590.32 Z " />
<path stroke="transparent" fill="#000000" transform="matrix(0.0666667 0 0 0.0666667 -113.425 -236)" d="M 4042.83,4290.31 L 4042.83,4267.22 L 4562.44,4567.23 L 4562.44,4590.32 L 4042.83,4290.31 Z " />
<path stroke="transparent" fill="#000000" transform="matrix(0.0666667 0 0 0.0666667 -113.425 -236)" d="M 4037.83,4370.57 L 4047.83,4353.25 L 4531.44,4632.47 L 4521.44,4649.79 L 4037.83,4370.57 Z " />
<path stroke="transparent" fill="#000000" transform="matrix(0.0666667 0 0 0.0666667 -113.425 -236)" d="M 3533.22,4584.55 L 3523.22,4578.77 L 3523.22,4567.23 L 4042.83,4267.22 L 4042.83,4290.31 L 3533.22,4584.55 Z " />
<path stroke="transparent" fill="#000000" transform="matrix(0.0666667 0 0 0.0666667 -113.425 -236)" d="M 3003.61,4290.31 L 3003.61,4267.22 L 3523.22,4567.23 L 3523.22,4578.77 L 3513.22,4584.55 L 3003.61,4290.31 Z " />
<path stroke="transparent" fill="#000000" transform="matrix(0.0666667 0 0 0.0666667 -113.425 -236)" d="M 2998.6,4370.56 L 3008.6,4353.24 L 3456.22,4611.68 L 3446.22,4629 L 2998.6,4370.56 Z " />
<path stroke="transparent" fill="#000000" transform="matrix(0.0666667 0 0 0.0666667 -113.425 -236)" d="M 2493.99,4584.49 L 2473.99,4572.94 L 3003.61,4267.22 L 3003.61,4290.31 L 2493.99,4584.49 Z " />
<path stroke="transparent" fill="#000000" transform="matrix(0.0666667 0 0 0.0666667 -113.425 -236)" d="M 2493.99,5172.95 L 2483.99,5178.73 L 2473.99,5172.95 L 2473.99,4572.94 L 2493.99,4584.49 L 2493.99,5172.95 Z " />
<path stroke="transparent" fill="#000000" transform="matrix(0.0666667 0 0 0.0666667 -113.425 -236)" d="M 2566,5137.16 L 2546,5137.16 L 2546,4620.29 L 2566,4620.29 L 2566,5137.16 Z " />
<path stroke="transparent" fill="#000000" transform="matrix(0.0666667 0 0 0.0666667 -113.425 -236)" d="M 2061.99,5433.92 L 2051.99,5416.6 L 2473.99,5172.95 L 2483.99,5178.73 L 2483.99,5190.27 L 2061.99,5433.92 Z " />
<path stroke="transparent" fill="#000000" transform="matrix(0.0666667 0 0 0.0666667 -113.425 -236)" d="M 3003.61,5467.19 L 3003.61,5478.73 L 2993.61,5484.51 L 2483.99,5190.27 L 2483.99,5178.73 L 2493.99,5172.95 L 3003.61,5467.19 Z " />
<path stroke="transparent" fill="#000000" transform="matrix(0.0666667 0 0 0.0666667 -113.425 -236)" d="M 3013.61,5973.58 L 2993.61,5973.58 L 2993.61,5484.51 L 3003.61,5478.73 L 3013.61,5484.51 L 3013.61,5973.58 Z " />
<path stroke="transparent" fill="#000000" transform="matrix(0.0666667 0 0 0.0666667 -113.425 -236)" d="M 3528.22,6370.09 L 3518.22,6387.41 L 3098.64,6145.16 L 3108.64,6127.84 L 3528.22,6370.09 Z " />
<path stroke="transparent" fill="#000000" transform="matrix(0.0666667 0 0 0.0666667 -113.425 -236)" d="M 3513.22,5172.95 L 3533.22,5184.5 L 3013.61,5484.51 L 3003.61,5478.73 L 3003.61,5467.19 L 3513.22,5172.95 Z " />
<path stroke="transparent" fill="#000000" transform="matrix(0.0666667 0 0 0.0666667 -113.425 -236)" d="M 3446.22,5128.5 L 3456.22,5145.82 L 3008.61,5404.25 L 2998.61,5386.93 L 3446.22,5128.5 Z " />
<path stroke="transparent" fill="#000000" transform="matrix(0.0666667 0 0 0.0666667 -113.425 -236)" d="M 3533.22,5184.5 L 3513.22,5172.95 L 3513.22,4584.55 L 3523.22,4578.77 L 3533.22,4584.55 L 3533.22,5184.5 Z " />
</svg>
