<?xml version="1.0" standalone="no" ?>
<!DOCTYPE svg PUBLIC "-//W3C//DTD SVG 1.1//EN" "http://www.w3.org/Graphics/SVG/1.1/DTD/svg11.dtd">
<svg width="293px" height="122px" viewBox="0 0 293 122" style="background-color: #ffffff00" xmlns="http://www.w3.org/2000/svg" xmlns:xlink="http://www.w3.org/1999/xlink" version="1.1" >
<text x="0" y="0" stroke="transparent" fill="#000000" transform="matrix(0.0833333 0 0 0.0833333 275.677 117.946)" style="font:normal normal normal 200px 'Arial'" >
O</text>
<text x="0" y="0" stroke="transparent" fill="#000000" transform="matrix(0.0833333 0 0 0.0833333 3.8325 17.9427)" style="font:normal normal normal 200px 'Arial'" >
HO</text>
<text x="0" y="0" stroke="transparent" fill="#000000" transform="matrix(0.0833333 0 0 0.0833333 189.077 117.945)" style="font:normal normal normal 200px 'Arial'" >
O</text>
<path stroke="transparent" fill="#000000" transform="matrix(0.0833333 0 0 0.0833333 -286.333 -309)" d="M 6261.5,4774.81 L 6271.5,4757.49 L 6716.5,5014.4 L 6706.5,5031.72 L 6261.5,4774.81 Z " />
<path stroke="transparent" fill="#000000" transform="matrix(0.0833333 0 0 0.0833333 -286.333 -309)" d="M 6297.5,4712.45 L 6307.5,4695.13 L 6752.5,4952.04 L 6742.5,4969.37 L 6297.5,4712.45 Z " />
<path stroke="transparent" fill="#000000" transform="matrix(0.0833333 0 0 0.0833333 -286.333 -309)" d="M 6292.51,4151.13 L 6312.51,4139.59 L 6312.5,4751.13 L 6292.5,4739.59 L 6292.51,4151.13 Z " />
<path stroke="transparent" fill="#000000" transform="matrix(0.0833333 0 0 0.0833333 -286.333 -309)" d="M 5782.94,3856.88 L 5782.95,3833.79 L 6312.51,4139.59 L 6292.51,4151.13 L 5782.94,3856.88 Z " />
<path stroke="transparent" fill="#000000" transform="matrix(0.0833333 0 0 0.0833333 -286.333 -309)" d="M 5777.94,3937.13 L 5787.94,3919.81 L 6235.52,4178.26 L 6225.51,4195.58 L 5777.94,3937.13 Z " />
<path stroke="transparent" fill="#000000" transform="matrix(0.0833333 0 0 0.0833333 -286.333 -309)" d="M 5273.32,4151.12 L 5263.32,4145.34 L 5263.32,4133.8 L 5782.95,3833.79 L 5782.94,3856.88 L 5273.32,4151.12 Z " />
<path stroke="transparent" fill="#000000" transform="matrix(0.0833333 0 0 0.0833333 -286.333 -309)" d="M 4743.7,3856.9 L 4743.7,3833.8 L 5263.32,4133.8 L 5263.32,4145.34 L 5253.32,4151.12 L 4743.7,3856.9 Z " />
<path stroke="transparent" fill="#000000" transform="matrix(0.0833333 0 0 0.0833333 -286.333 -309)" d="M 4738.7,3937.15 L 4748.7,3919.83 L 5196.32,4178.25 L 5186.32,4195.57 L 4738.7,3937.15 Z " />
<path stroke="transparent" fill="#000000" transform="matrix(0.0833333 0 0 0.0833333 -286.333 -309)" d="M 4234.07,4151.13 L 4224.07,4145.36 L 4224.07,4133.81 L 4743.7,3833.8 L 4743.7,3856.9 L 4234.07,4151.13 Z " />
<path stroke="transparent" fill="#000000" transform="matrix(0.0833333 0 0 0.0833333 -286.333 -309)" d="M 3799.45,3911.73 L 3809.45,3894.41 L 4224.07,4133.81 L 4224.07,4145.36 L 4214.07,4151.13 L 3799.45,3911.73 Z " />
<path stroke="transparent" fill="#000000" transform="matrix(0.0833333 0 0 0.0833333 -286.333 -309)" d="M 4234.06,4739.58 L 4214.06,4751.13 L 4214.07,4151.13 L 4224.07,4145.36 L 4234.07,4151.13 L 4234.06,4739.58 Z " />
<path stroke="transparent" fill="#000000" transform="matrix(0.0833333 0 0 0.0833333 -286.333 -309)" d="M 4306.07,4703.79 L 4286.07,4703.79 L 4286.07,4186.93 L 4306.07,4186.93 L 4306.07,4703.79 Z " />
<path stroke="transparent" fill="#000000" transform="matrix(0.0833333 0 0 0.0833333 -286.333 -309)" d="M 4743.63,5033.83 L 4743.63,5056.93 L 4214.06,4751.13 L 4234.06,4739.58 L 4743.63,5033.83 Z " />
<path stroke="transparent" fill="#000000" transform="matrix(0.0833333 0 0 0.0833333 -286.333 -309)" d="M 5253.31,4739.57 L 5263.31,4745.34 L 5263.31,4756.89 L 4743.63,5056.93 L 4743.63,5033.83 L 5253.31,4739.57 Z " />
<path stroke="transparent" fill="#000000" transform="matrix(0.0833333 0 0 0.0833333 -286.333 -309)" d="M 5186.3,4695.11 L 5196.3,4712.43 L 4748.63,4970.89 L 4738.63,4953.57 L 5186.3,4695.11 Z " />
<path stroke="transparent" fill="#000000" transform="matrix(0.0833333 0 0 0.0833333 -286.333 -309)" d="M 5273.31,4739.57 L 5263.31,4745.34 L 5253.31,4739.57 L 5253.32,4151.12 L 5263.32,4145.34 L 5273.32,4151.12 L 5273.31,4739.57 Z " />
<path stroke="transparent" fill="#000000" transform="matrix(0.0833333 0 0 0.0833333 -286.333 -309)" d="M 5695.31,4983.2 L 5685.31,5000.53 L 5263.31,4756.89 L 5263.31,4745.34 L 5273.31,4739.57 L 5695.31,4983.2 Z " />
<path stroke="transparent" fill="#000000" transform="matrix(0.0833333 0 0 0.0833333 -286.333 -309)" d="M 5880.55,5000.52 L 5870.55,4983.2 L 6292.5,4739.59 L 6312.5,4751.13 L 5880.55,5000.52 Z " />
</svg>
