<?xml version="1.0" standalone="no" ?>
<!DOCTYPE svg PUBLIC "-//W3C//DTD SVG 1.1//EN" "http://www.w3.org/Graphics/SVG/1.1/DTD/svg11.dtd">
<svg width="424px" height="134px" viewBox="0 0 424 134" style="background-color: #ffffff00" xmlns="http://www.w3.org/2000/svg" xmlns:xlink="http://www.w3.org/1999/xlink" version="1.1" >
<text x="0" y="0" stroke="transparent" fill="#000000" transform="matrix(0.0666667 0 0 0.0666667 241.321 14.8547)" style="font:normal normal normal 200px 'Arial'" >
O</text>
<text x="0" y="0" stroke="transparent" fill="#000000" transform="matrix(0.0666667 0 0 0.0666667 206.68 74.852)" style="font:normal normal normal 200px 'Arial'" >
O</text>
<path stroke="transparent" fill="#000000" transform="matrix(0.0666667 0 0 0.0666667 -136.92 -278)" d="M 5797.61,4935.56 L 5777.61,4935.56 L 5777.61,4434.65 L 5797.61,4434.65 L 5797.61,4935.56 Z " />
<path stroke="transparent" fill="#000000" transform="matrix(0.0666667 0 0 0.0666667 -136.92 -278)" d="M 5725.61,4935.56 L 5705.61,4935.56 L 5705.61,4434.65 L 5725.61,4434.65 L 5725.61,4935.56 Z " />
<path stroke="transparent" fill="#000000" transform="matrix(0.0666667 0 0 0.0666667 -136.92 -278)" d="M 6271.22,5203.23 L 6271.22,5226.33 L 5751.61,4926.32 L 5751.61,4903.23 L 6271.22,5203.23 Z " />
<path stroke="transparent" fill="#000000" transform="matrix(0.0666667 0 0 0.0666667 -136.92 -278)" d="M 6790.83,4903.23 L 6790.83,4926.32 L 6271.22,5226.33 L 6271.22,5203.23 L 6790.83,4903.23 Z " />
<path stroke="transparent" fill="#000000" transform="matrix(0.0666667 0 0 0.0666667 -136.92 -278)" d="M 6749.83,4843.76 L 6759.83,4861.08 L 6276.22,5140.3 L 6266.22,5122.98 L 6749.83,4843.76 Z " />
<path stroke="transparent" fill="#000000" transform="matrix(0.0666667 0 0 0.0666667 -136.92 -278)" d="M 7310.5,5203.23 L 7310.51,5214.78 L 7300.51,5220.55 L 6790.83,4926.32 L 6790.83,4903.23 L 7310.5,5203.23 Z " />
<path stroke="transparent" fill="#000000" transform="matrix(0.0666667 0 0 0.0666667 -136.92 -278)" d="M 7320.51,5809.02 L 7300.51,5820.57 L 7300.51,5220.55 L 7310.51,5214.78 L 7320.51,5220.55 L 7320.51,5809.02 Z " />
<path stroke="transparent" fill="#000000" transform="matrix(0.0666667 0 0 0.0666667 -136.92 -278)" d="M 7392.51,5773.22 L 7372.51,5773.22 L 7372.51,5256.35 L 7392.51,5256.35 L 7392.51,5773.22 Z " />
<path stroke="transparent" fill="#000000" transform="matrix(0.0666667 0 0 0.0666667 -136.92 -278)" d="M 7830.12,6103.25 L 7830.12,6126.35 L 7300.51,5820.57 L 7320.51,5809.02 L 7830.12,6103.25 Z " />
<path stroke="transparent" fill="#000000" transform="matrix(0.0666667 0 0 0.0666667 -136.92 -278)" d="M 8339.73,5808.96 L 8359.73,5820.51 L 7830.12,6126.35 L 7830.12,6103.25 L 8339.73,5808.96 Z " />
<path stroke="transparent" fill="#000000" transform="matrix(0.0666667 0 0 0.0666667 -136.92 -278)" d="M 8272.72,5764.51 L 8282.73,5781.83 L 7835.11,6040.31 L 7825.11,6022.99 L 8272.72,5764.51 Z " />
<path stroke="transparent" fill="#000000" transform="matrix(0.0666667 0 0 0.0666667 -136.92 -278)" d="M 8339.73,5220.55 L 8359.73,5209.01 L 8359.73,5820.51 L 8339.73,5808.96 L 8339.73,5220.55 Z " />
<path stroke="transparent" fill="#000000" transform="matrix(0.0666667 0 0 0.0666667 -136.92 -278)" d="M 7830.12,4926.32 L 7830.12,4903.23 L 8359.73,5209.01 L 8339.73,5220.55 L 7830.12,4926.32 Z " />
<path stroke="transparent" fill="#000000" transform="matrix(0.0666667 0 0 0.0666667 -136.92 -278)" d="M 7825.12,5006.57 L 7835.12,4989.25 L 8282.73,5247.69 L 8272.73,5265.01 L 7825.12,5006.57 Z " />
<path stroke="transparent" fill="#000000" transform="matrix(0.0666667 0 0 0.0666667 -136.92 -278)" d="M 7830.12,4903.23 L 7830.12,4926.32 L 7320.51,5220.55 L 7310.51,5214.78 L 7310.5,5203.23 L 7830.12,4903.23 Z " />
<path stroke="transparent" fill="#000000" transform="matrix(0.0666667 0 0 0.0666667 -136.92 -278)" d="M 5329.62,5169.97 L 5319.62,5152.64 L 5751.61,4903.23 L 5751.61,4926.32 L 5329.62,5169.97 Z " />
<path stroke="transparent" fill="#000000" transform="matrix(0.0666667 0 0 0.0666667 -136.92 -278)" d="M 4712.33,4926.32 L 4712.33,4903.23 L 5144.38,5152.65 L 5134.38,5169.97 L 4712.33,4926.32 Z " />
<path stroke="transparent" fill="#000000" transform="matrix(0.0666667 0 0 0.0666667 -136.92 -278)" d="M 4192.72,5226.33 L 4192.72,5203.23 L 4712.33,4903.23 L 4712.33,4926.32 L 4192.72,5226.33 Z " />
<path stroke="transparent" fill="#000000" transform="matrix(0.0666667 0 0 0.0666667 -136.92 -278)" d="M 3673.11,4926.32 L 3673.11,4903.23 L 4192.72,5203.23 L 4192.72,5226.33 L 3673.11,4926.32 Z " />
<path stroke="transparent" fill="#000000" transform="matrix(0.0666667 0 0 0.0666667 -136.92 -278)" d="M 3668.11,5006.57 L 3678.11,4989.25 L 4161.72,5268.47 L 4151.72,5285.79 L 3668.11,5006.57 Z " />
<path stroke="transparent" fill="#000000" transform="matrix(0.0666667 0 0 0.0666667 -136.92 -278)" d="M 3163.49,5220.55 L 3153.49,5214.78 L 3153.49,5203.23 L 3673.11,4903.23 L 3673.11,4926.32 L 3163.49,5220.55 Z " />
<path stroke="transparent" fill="#000000" transform="matrix(0.0666667 0 0 0.0666667 -136.92 -278)" d="M 2633.88,4926.32 L 2633.88,4903.23 L 3153.49,5203.23 L 3153.49,5214.78 L 3143.49,5220.55 L 2633.88,4926.32 Z " />
<path stroke="transparent" fill="#000000" transform="matrix(0.0666667 0 0 0.0666667 -136.92 -278)" d="M 2628.88,5006.57 L 2638.88,4989.25 L 3086.49,5247.69 L 3076.49,5265.01 L 2628.88,5006.57 Z " />
<path stroke="transparent" fill="#000000" transform="matrix(0.0666667 0 0 0.0666667 -136.92 -278)" d="M 2124.27,5220.49 L 2104.27,5208.95 L 2633.88,4903.23 L 2633.88,4926.32 L 2124.27,5220.49 Z " />
<path stroke="transparent" fill="#000000" transform="matrix(0.0666667 0 0 0.0666667 -136.92 -278)" d="M 2124.27,5808.96 L 2104.27,5820.51 L 2104.27,5208.95 L 2124.27,5220.49 L 2124.27,5808.96 Z " />
<path stroke="transparent" fill="#000000" transform="matrix(0.0666667 0 0 0.0666667 -136.92 -278)" d="M 2196.27,5773.16 L 2176.27,5773.16 L 2176.27,5256.29 L 2196.27,5256.29 L 2196.27,5773.16 Z " />
<path stroke="transparent" fill="#000000" transform="matrix(0.0666667 0 0 0.0666667 -136.92 -278)" d="M 2633.88,6103.19 L 2633.88,6126.29 L 2104.27,5820.51 L 2124.27,5808.96 L 2633.88,6103.19 Z " />
<path stroke="transparent" fill="#000000" transform="matrix(0.0666667 0 0 0.0666667 -136.92 -278)" d="M 3143.49,5808.96 L 3163.49,5820.51 L 2633.88,6126.29 L 2633.88,6103.19 L 3143.49,5808.96 Z " />
<path stroke="transparent" fill="#000000" transform="matrix(0.0666667 0 0 0.0666667 -136.92 -278)" d="M 3076.49,5764.5 L 3086.49,5781.82 L 2638.88,6040.26 L 2628.88,6022.94 L 3076.49,5764.5 Z " />
<path stroke="transparent" fill="#000000" transform="matrix(0.0666667 0 0 0.0666667 -136.92 -278)" d="M 3163.49,5820.51 L 3143.49,5808.96 L 3143.49,5220.55 L 3153.49,5214.78 L 3163.49,5220.55 L 3163.49,5820.51 Z " />
</svg>
