<?xml version="1.0"?><svg xmlns="http://www.w3.org/2000/svg" xmlns:xlink="http://www.w3.org/1999/xlink" viewBox="207.49 136.13 108.34 128.87" preserveAspectRatio="xMidYMid" width="100%" height="100%"><clipPath id="23"><rect x="0.5" y="0.5" width="522.32" height="768.92" /></clipPath><g id="drawing"><rect x="207.49" y="136.13" width="100%" height="100%" fill="rgb(255, 255, 255)" /><g id="page" clip-path="url(#23)"><g><text xml:space="preserve" text-anchor="start" text-rendering="geometricPrecision"><tspan x="207.49" y="189.57" font-family="Arial" font-size="10" fill="rgb(0, 0, 0)">O</tspan></text></g><g><text xml:space="preserve" text-anchor="start" text-rendering="geometricPrecision"><tspan x="285.44" y="264.57" font-family="Arial" font-size="10" fill="rgb(0, 0, 0)">O</tspan><tspan font-family="Arial" dy="-4.07" font-size="7.5" fill="rgb(0, 0, 0)">-</tspan></text></g><g><text xml:space="preserve" text-anchor="start" text-rendering="geometricPrecision"><tspan x="233.79" y="144.48" font-family="Arial" font-size="10" fill="rgb(0, 0, 0)">NH</tspan><tspan font-family="Arial" dy="2.26" font-size="7.5" fill="rgb(0, 0, 0)">2</tspan></text></g><g><text xml:space="preserve" text-anchor="start" text-rendering="geometricPrecision"><tspan x="285.75" y="234.47" font-family="Arial" font-size="10" fill="rgb(0, 0, 0)">N</tspan><tspan font-family="Arial" dy="-4.07" font-size="7.5" fill="rgb(0, 0, 0)">+</tspan></text></g><g id="Solid"><line x1="215.86" y1="181.55" x2="236.61" y2="169.57" stroke="rgb(0, 0, 0)" stroke-width="1" shape-rendering="auto" /><path d="M217.15 183.78 L217.15 183.78 L217.65 184.64 L238.92 172.36 L237.92 171.79 Z" stroke="rgb(0, 0, 0)" stroke-width="0" fill-rule="evenodd" stroke-linejoin="miter" fill="rgb(0, 0, 0)" shape-rendering="geometricPrecision" /><path d="M215.61 181.12 L215.61 181.12 L216.11 181.98 L237.88 169.41 L237.88 168.26 Z" stroke="rgb(0, 0, 0)" stroke-width="0" fill-rule="evenodd" stroke-linejoin="miter" fill="rgb(0, 0, 0)" shape-rendering="geometricPrecision" /></g><g id="Solid"><path d="M289.84 255.3 L289.84 255.3 L289.34 255.3 L288.84 255.3 L288.84 236.5 L289.34 236.5 L289.84 236.5 Z" stroke="rgb(0, 0, 0)" stroke-width="0" fill-rule="evenodd" stroke-linejoin="miter" fill="rgb(0, 0, 0)" shape-rendering="geometricPrecision" /></g><g id="Solid"><path d="M236.88 148.3 L236.88 148.3 L237.38 148.3 L237.88 148.3 L237.88 170.61 L237.38 170.9 L236.88 171.19 Z" stroke="rgb(0, 0, 0)" stroke-width="0" fill-rule="evenodd" stroke-linejoin="miter" fill="rgb(0, 0, 0)" shape-rendering="geometricPrecision" /></g><g id="Solid"><path d="M285.12 227.88 L285.12 227.88 L284.87 228.32 L284.62 228.75 L262.87 216.19 L263.37 215.9 L263.87 215.61 Z" stroke="rgb(0, 0, 0)" stroke-width="0" fill-rule="evenodd" stroke-linejoin="miter" fill="rgb(0, 0, 0)" shape-rendering="geometricPrecision" /></g><g id="Solid"><path d="M298.98 225.91 L298.98 225.91 L298.73 225.48 L298.48 225.05 L314.83 215.61 L315.33 215.9 L315.83 216.19 Z" stroke="rgb(0, 0, 0)" stroke-width="0" fill-rule="evenodd" stroke-linejoin="miter" fill="rgb(0, 0, 0)" shape-rendering="geometricPrecision" /><line x1="297.39" y1="223.15" x2="312.65" y2="214.35" stroke="rgb(0, 0, 0)" stroke-width="1" shape-rendering="auto" /></g><g id="Solid"><path d="M236.88 171.19 L236.88 171.19 L237.38 170.9 L237.88 170.61 L263.37 185.32 L263.37 185.9 L262.87 186.19 Z" stroke="rgb(0, 0, 0)" stroke-width="0" fill-rule="evenodd" stroke-linejoin="miter" fill="rgb(0, 0, 0)" shape-rendering="geometricPrecision" /></g><g id="Solid"><path d="M262.87 186.19 L262.87 186.19 L263.37 185.9 L263.87 186.19 L263.87 215.61 L263.37 215.9 L262.87 216.19 Z" stroke="rgb(0, 0, 0)" stroke-width="0" fill-rule="evenodd" stroke-linejoin="miter" fill="rgb(0, 0, 0)" shape-rendering="geometricPrecision" /><line x1="266.97" y1="187.98" x2="266.97" y2="213.82" stroke="rgb(0, 0, 0)" stroke-width="1" shape-rendering="auto" /></g><g id="Solid"><path d="M263.87 186.19 L263.87 186.19 L263.37 185.9 L263.37 185.32 L289.34 170.32 L289.34 170.9 L289.34 171.48 Z" stroke="rgb(0, 0, 0)" stroke-width="0" fill-rule="evenodd" stroke-linejoin="miter" fill="rgb(0, 0, 0)" shape-rendering="geometricPrecision" /></g><g id="Solid"><path d="M315.83 216.19 L315.83 216.19 L315.33 215.9 L314.83 215.61 L314.83 186.19 L315.33 185.9 L315.83 185.61 Z" stroke="rgb(0, 0, 0)" stroke-width="0" fill-rule="evenodd" stroke-linejoin="miter" fill="rgb(0, 0, 0)" shape-rendering="geometricPrecision" /></g><g id="Solid"><path d="M289.34 171.48 L289.34 171.48 L289.34 170.9 L289.34 170.32 L315.83 185.61 L315.33 185.9 L314.83 186.19 Z" stroke="rgb(0, 0, 0)" stroke-width="0" fill-rule="evenodd" stroke-linejoin="miter" fill="rgb(0, 0, 0)" shape-rendering="geometricPrecision" /><line x1="289.34" y1="175.06" x2="311.73" y2="187.98" stroke="rgb(0, 0, 0)" stroke-width="1" shape-rendering="auto" /></g></g></g></svg>