<?xml version="1.0" standalone="no" ?>
<!DOCTYPE svg PUBLIC "-//W3C//DTD SVG 1.1//EN" "http://www.w3.org/Graphics/SVG/1.1/DTD/svg11.dtd">
<svg width="280px" height="118px" viewBox="0 0 280 118" style="background-color: #ffffff00" xmlns="http://www.w3.org/2000/svg" xmlns:xlink="http://www.w3.org/1999/xlink" version="1.1" >
<text x="0" y="0" stroke="transparent" fill="#000000" transform="matrix(0.0666667 0 0 0.0666667 47.9155 14.3819)" style="font:normal normal normal 200px 'Arial'" >
O</text>
<text x="0" y="0" stroke="transparent" fill="#000000" transform="matrix(0.0666667 0 0 0.0666667 3.35822 74.4838)" style="font:normal normal normal 200px 'Arial'" >
HO</text>
<text x="0" y="0" stroke="transparent" fill="#000000" transform="matrix(0.0666667 0 0 0.0666667 221.731 115.096)" style="font:normal normal normal 200px 'Arial'" >
O</text>
<text x="0" y="0" stroke="transparent" fill="#000000" transform="matrix(0.0666667 0 0 0.0666667 256.656 54.99)" style="font:normal normal normal 200px 'Arial'" >
OH</text>
<text x="0" y="0" stroke="transparent" fill="#000000" transform="matrix(0.0666667 0 0 0.0666667 82.8359 115.096)" style="font:normal normal normal 200px 'Arial'" >
O</text>
<path stroke="transparent" fill="#000000" transform="matrix(0.0666667 0 0 0.0666667 -208.859 -206.333)" d="M 3929.61,3853.3 L 3929.61,3830.4 L 4453.36,4122.77 L 4453.48,4145.74 L 3929.61,3853.3 Z " />
<path stroke="transparent" fill="#000000" transform="matrix(0.0666667 0 0 0.0666667 -208.859 -206.333)" d="M 3929.61,3830.4 L 3929.61,3853.3 L 3503.92,4090.88 L 3494.18,4073.42 L 3929.61,3830.4 Z " />
<path stroke="transparent" fill="#000000" transform="matrix(0.0666667 0 0 0.0666667 -208.859 -206.333)" d="M 3976.16,3862.25 L 3956.16,3862.25 L 3956.16,3352.56 L 3976.16,3352.56 L 3976.16,3862.25 Z " />
<path stroke="transparent" fill="#000000" transform="matrix(0.0666667 0 0 0.0666667 -208.859 -206.333)" d="M 3903.07,3862.25 L 3883.07,3862.25 L 3883.07,3352.56 L 3903.07,3352.56 L 3903.07,3862.25 Z " />
<path stroke="transparent" fill="#000000" transform="matrix(0.0666667 0 0 0.0666667 -208.859 -206.333)" d="M 4453.48,4145.74 L 4453.36,4122.77 L 4965.13,3830.37 L 4965.25,3853.33 L 4453.48,4145.74 Z " />
<path stroke="transparent" fill="#000000" transform="matrix(0.0666667 0 0 0.0666667 -208.859 -206.333)" d="M 4406.87,4113.85 L 4426.87,4113.85 L 4426.87,4638.27 L 4406.87,4638.27 L 4406.87,4113.85 Z " />
<path stroke="transparent" fill="#000000" transform="matrix(0.0666667 0 0 0.0666667 -208.859 -206.333)" d="M 4479.97,4113.37 L 4499.97,4113.37 L 4499.97,4638.27 L 4479.97,4638.27 L 4479.97,4113.37 Z " />
<path stroke="transparent" fill="#000000" transform="matrix(0.0666667 0 0 0.0666667 -208.859 -206.333)" d="M 4965.25,3853.33 L 4965.13,3830.37 L 5489,4122.8 L 5489,4145.71 L 4965.25,3853.33 Z " />
<path stroke="transparent" fill="#000000" transform="matrix(0.0666667 0 0 0.0666667 -208.859 -206.333)" d="M 5489,4145.71 L 5489,4122.8 L 6012.92,3830.4 L 6012.92,3853.3 L 5489,4145.71 Z " />
<path stroke="transparent" fill="#000000" transform="matrix(0.0666667 0 0 0.0666667 -208.859 -206.333)" d="M 6012.92,3853.3 L 6012.92,3830.4 L 6536.85,4122.8 L 6536.85,4145.71 L 6012.92,3853.3 Z " />
<path stroke="transparent" fill="#000000" transform="matrix(0.0666667 0 0 0.0666667 -208.859 -206.333)" d="M 6536.85,4145.71 L 6536.85,4122.8 L 6955.57,3889.09 L 6965.32,3906.55 L 6536.85,4145.71 Z " />
<path stroke="transparent" fill="#000000" transform="matrix(0.0666667 0 0 0.0666667 -208.859 -206.333)" d="M 6490.3,4113.86 L 6510.3,4113.86 L 6510.3,4638.27 L 6490.3,4638.27 L 6490.3,4113.86 Z " />
<path stroke="transparent" fill="#000000" transform="matrix(0.0666667 0 0 0.0666667 -208.859 -206.333)" d="M 6563.4,4113.86 L 6583.4,4113.86 L 6583.4,4638.27 L 6563.4,4638.27 L 6563.4,4113.86 Z " />
</svg>
