<?xml version="1.0" standalone="no" ?>
<!DOCTYPE svg PUBLIC "-//W3C//DTD SVG 1.1//EN" "http://www.w3.org/Graphics/SVG/1.1/DTD/svg11.dtd">
<svg width="228px" height="201px" viewBox="0 0 228 201" style="background-color: #ffffff00" xmlns="http://www.w3.org/2000/svg" xmlns:xlink="http://www.w3.org/1999/xlink" version="1.1" >
<text x="0" y="0" stroke="transparent" fill="#000000" transform="matrix(0.0666667 0 0 0.0666667 139.007 14.1482)" style="font:normal normal normal 200px 'Arial'" >
O</text>
<text x="0" y="0" stroke="transparent" fill="#000000" transform="matrix(0.0666667 0 0 0.0666667 3.23595 99.9301)" style="font:normal normal normal 200px 'Arial'" >
N</text>
<text x="0" y="0" stroke="transparent" fill="#000000" transform="matrix(0.0666667 0 0 0.0666667 204.628 197.996)" style="font:normal normal normal 200px 'Arial'" >
OH</text>
<text x="0" y="0" stroke="transparent" fill="#000000" transform="matrix(0.0666667 0 0 0.0666667 104.766 74.1455)" style="font:normal normal normal 200px 'Arial'" >
N</text>
<path stroke="transparent" fill="#000000" transform="matrix(0.0666667 0 0 0.0666667 -234.853 -309)" d="M 5171.29,5119.46 L 5161.29,5102.14 L 5599.3,4849.25 L 5609.3,4866.57 L 5171.29,5119.46 Z " />
<path stroke="transparent" fill="#000000" transform="matrix(0.0666667 0 0 0.0666667 -234.853 -309)" d="M 5135.29,5057.1 L 5125.29,5039.78 L 5563.3,4786.89 L 5573.3,4804.21 L 5135.29,5057.1 Z " />
<path stroke="transparent" fill="#000000" transform="matrix(0.0666667 0 0 0.0666667 -234.853 -309)" d="M 4646.68,4780.77 L 4646.68,4757.68 L 5176.29,5063.46 L 5156.29,5075 L 4646.68,4780.77 Z " />
<path stroke="transparent" fill="#000000" transform="matrix(0.0666667 0 0 0.0666667 -234.853 -309)" d="M 4137.07,5074.94 L 4117.07,5063.39 L 4646.68,4757.68 L 4646.68,4780.77 L 4137.07,5074.94 Z " />
<path stroke="transparent" fill="#000000" transform="matrix(0.0666667 0 0 0.0666667 -234.853 -309)" d="M 4204.07,5119.4 L 4194.07,5102.08 L 4641.68,4843.69 L 4651.68,4861.02 L 4204.07,5119.4 Z " />
<path stroke="transparent" fill="#000000" transform="matrix(0.0666667 0 0 0.0666667 -234.853 -309)" d="M 4137.07,5663.41 L 4127.07,5669.18 L 4117.07,5664.37 L 4117.07,5063.39 L 4137.07,5074.94 L 4137.07,5663.41 Z " />
<path stroke="transparent" fill="#000000" transform="matrix(0.0666667 0 0 0.0666667 -234.853 -309)" d="M 3745.63,5986.96 L 3733.14,5971.34 L 4117.07,5664.37 L 4127.07,5669.18 L 4127.98,5681.26 L 3745.63,5986.96 Z " />
<path stroke="transparent" fill="#000000" transform="matrix(0.0666667 0 0 0.0666667 -234.853 -309)" d="M 3792.05,6045.01 L 3779.56,6029.39 L 4127.61,5751.11 L 4140.1,5766.73 L 3792.05,6045.01 Z " />
<path stroke="transparent" fill="#000000" transform="matrix(0.0666667 0 0 0.0666667 -234.853 -309)" d="M 3715.38,6645.88 L 3696.7,6659.45 L 3645.59,6173.1 L 3665.48,6171.01 L 3715.38,6645.88 Z " />
<path stroke="transparent" fill="#000000" transform="matrix(0.0666667 0 0 0.0666667 -234.853 -309)" d="M 4253.22,6885.33 L 4255.08,6908.05 L 3696.7,6659.45 L 3715.38,6645.88 L 4253.22,6885.33 Z " />
<path stroke="transparent" fill="#000000" transform="matrix(0.0666667 0 0 0.0666667 -234.853 -309)" d="M 4251.52,6805.76 L 4243.39,6824.03 L 3769.23,6612.93 L 3777.37,6594.66 L 4251.52,6805.76 Z " />
<path stroke="transparent" fill="#000000" transform="matrix(0.0666667 0 0 0.0666667 -234.853 -309)" d="M 4760.22,6551.52 L 4771.42,6556.12 L 4773.94,6566.44 L 4255.08,6908.05 L 4253.22,6885.33 L 4760.22,6551.52 Z " />
<path stroke="transparent" fill="#000000" transform="matrix(0.0666667 0 0 0.0666667 -234.853 -309)" d="M 5361.96,6608.12 L 5368.14,6618.82 L 5362.66,6628.3 L 4773.94,6566.44 L 4771.42,6556.12 L 4779.7,6546.94 L 5361.96,6608.12 Z " />
<path stroke="transparent" fill="#000000" transform="matrix(0.0666667 0 0 0.0666667 -234.853 -309)" d="M 5725.46,7093.69 L 5716.07,7114.78 L 5362.66,6628.3 L 5368.14,6618.82 L 5379.62,6617.62 L 5725.46,7093.69 Z " />
<path stroke="transparent" fill="#000000" transform="matrix(0.0666667 0 0 0.0666667 -234.853 -309)" d="M 5762.67,7022.41 L 5746.49,7034.17 L 5442.73,6616.01 L 5458.91,6604.26 L 5762.67,7022.41 Z " />
<path stroke="transparent" fill="#000000" transform="matrix(0.0666667 0 0 0.0666667 -234.853 -309)" d="M 6310.75,7032.19 L 6317.54,7041.53 L 6312.84,7052.08 L 5716.07,7114.78 L 5725.46,7093.69 L 6310.75,7032.19 Z " />
<path stroke="transparent" fill="#000000" transform="matrix(0.0666667 0 0 0.0666667 -234.853 -309)" d="M 6615.57,7434.71 L 6599.39,7446.46 L 6312.84,7052.08 L 6317.54,7041.53 L 6329.02,7040.33 L 6615.57,7434.71 Z " />
<path stroke="transparent" fill="#000000" transform="matrix(0.0666667 0 0 0.0666667 -234.853 -309)" d="M 6550.08,6494.63 L 6573.05,6492.21 L 6329.02,7040.33 L 6317.54,7041.53 L 6310.75,7032.19 L 6550.08,6494.63 Z " />
<path stroke="transparent" fill="#000000" transform="matrix(0.0666667 0 0 0.0666667 -234.853 -309)" d="M 6469.75,6498.05 L 6488.02,6506.18 L 6277.81,6978.34 L 6259.54,6970.21 L 6469.75,6498.05 Z " />
<path stroke="transparent" fill="#000000" transform="matrix(0.0666667 0 0 0.0666667 -234.853 -309)" d="M 6204.18,6018.56 L 6213.57,5997.46 L 6573.05,6492.21 L 6550.08,6494.63 L 6204.18,6018.56 Z " />
<path stroke="transparent" fill="#000000" transform="matrix(0.0666667 0 0 0.0666667 -234.853 -309)" d="M 5618.95,6080.05 L 5612.16,6070.71 L 5615.55,6060.3 L 6213.57,5997.46 L 6204.18,6018.56 L 5618.95,6080.05 Z " />
<path stroke="transparent" fill="#000000" transform="matrix(0.0666667 0 0 0.0666667 -234.853 -309)" d="M 5662.08,6147.92 L 5659.99,6128.03 L 6174.02,6074.01 L 6176.11,6093.9 L 5662.08,6147.92 Z " />
<path stroke="transparent" fill="#000000" transform="matrix(0.0666667 0 0 0.0666667 -234.853 -309)" d="M 5600.07,6073.28 L 5612.16,6070.71 L 5618.95,6080.05 L 5379.62,6617.62 L 5368.14,6618.82 L 5361.96,6608.12 L 5600.07,6073.28 Z " />
<path stroke="transparent" fill="#000000" transform="matrix(0.0666667 0 0 0.0666667 -234.853 -309)" d="M 5258.62,5765.78 L 5272,5750.92 L 5615.55,6060.3 L 5612.16,6070.71 L 5600.07,6073.28 L 5258.62,5765.78 Z " />
<path stroke="transparent" fill="#000000" transform="matrix(0.0666667 0 0 0.0666667 -234.853 -309)" d="M 5176.29,5566.35 L 5156.29,5566.35 L 5156.29,5075 L 5176.29,5063.46 L 5176.29,5566.35 Z " />
<path stroke="transparent" fill="#000000" transform="matrix(0.0666667 0 0 0.0666667 -234.853 -309)" d="M 4657.97,5974.22 L 4646.68,5969.19 L 4646.68,5957.64 L 5051.24,5724.06 L 5061.24,5741.38 L 4657.97,5974.22 Z " />
<path stroke="transparent" fill="#000000" transform="matrix(0.0666667 0 0 0.0666667 -234.853 -309)" d="M 4646.68,5957.64 L 4646.68,5969.19 L 4637.83,5975.62 L 4127.98,5681.26 L 4127.07,5669.18 L 4137.07,5663.41 L 4646.68,5957.64 Z " />
<path stroke="transparent" fill="#000000" transform="matrix(0.0666667 0 0 0.0666667 -234.853 -309)" d="M 4637.83,5975.62 L 4646.68,5969.19 L 4657.97,5974.22 L 4779.7,6546.94 L 4771.42,6556.12 L 4760.22,6551.52 L 4637.83,5975.62 Z " />
<path stroke="transparent" fill="#000000" transform="matrix(0.0666667 0 0 0.0666667 -234.853 -309)" d="M 4573.13,6017.6 L 4592.7,6013.44 L 4700.56,6520.93 L 4680.99,6525.09 L 4573.13,6017.6 Z " />
</svg>
