<?xml version="1.0" standalone="no" ?>
<!DOCTYPE svg PUBLIC "-//W3C//DTD SVG 1.1//EN" "http://www.w3.org/Graphics/SVG/1.1/DTD/svg11.dtd">
<svg width="158px" height="85px" viewBox="0 0 158 85" style="background-color: #ffffff00" xmlns="http://www.w3.org/2000/svg" xmlns:xlink="http://www.w3.org/1999/xlink" version="1.1" >
<text x="0" y="0" stroke="transparent" fill="#000000" transform="matrix(0.0666667 0 0 0.0666667 74.1238 70.6481)" style="font:normal normal normal 200px 'Arial'" >
N</text>
<text x="0" y="0" stroke="transparent" fill="#000000" transform="matrix(0.0666667 0 0 0.0666667 74.1238 81.7703)" style="font:normal normal normal 200px 'Arial'" >
H</text>
<text x="0" y="0" stroke="transparent" fill="#000000" transform="matrix(0.0666667 0 0 0.0666667 3.31938 59.4974)" style="font:normal normal normal 200px 'Arial'" >
O</text>
<text x="0" y="0" stroke="transparent" fill="#000000" transform="matrix(0.0666667 0 0 0.0666667 144.123 59.4974)" style="font:normal normal normal 200px 'Arial'" >
O</text>
<path stroke="transparent" fill="#000000" transform="matrix(0.0666667 0 0 0.0666667 -269.959 -367)" d="M 5338.01,6422.96 L 5326.25,6406.78 L 5706.83,6130.27 L 5730.34,6137.91 L 5338.01,6422.96 Z " />
<path stroke="transparent" fill="#000000" transform="matrix(0.0666667 0 0 0.0666667 -269.959 -367)" d="M 5140.22,6406.79 L 5128.46,6422.97 L 4736.06,6137.91 L 4759.57,6130.27 L 5140.22,6406.79 Z " />
<path stroke="transparent" fill="#000000" transform="matrix(0.0666667 0 0 0.0666667 -269.959 -367)" d="M 4759.57,6130.27 L 4736.06,6137.91 L 4925.92,5553.45 L 4940.45,5573.45 L 4759.57,6130.27 Z " />
<path stroke="transparent" fill="#000000" transform="matrix(0.0666667 0 0 0.0666667 -269.959 -367)" d="M 4758.48,6082.27 L 4764.65,6101.29 L 4271,6261.64 L 4264.82,6242.62 L 4758.48,6082.27 Z " />
<path stroke="transparent" fill="#000000" transform="matrix(0.0666667 0 0 0.0666667 -269.959 -367)" d="M 4780.73,6150.74 L 4786.91,6169.76 L 4293.24,6330.12 L 4287.06,6311.1 L 4780.73,6150.74 Z " />
<path stroke="transparent" fill="#000000" transform="matrix(0.0666667 0 0 0.0666667 -269.959 -367)" d="M 5540.48,5553.45 L 5525.95,5573.45 L 4940.45,5573.45 L 4925.92,5553.45 L 5540.48,5553.45 Z " />
<path stroke="transparent" fill="#000000" transform="matrix(0.0666667 0 0 0.0666667 -269.959 -367)" d="M 5480.9,5625.45 L 5480.9,5645.45 L 4985.5,5645.45 L 4985.5,5625.45 L 5480.9,5625.45 Z " />
<path stroke="transparent" fill="#000000" transform="matrix(0.0666667 0 0 0.0666667 -269.959 -367)" d="M 5730.34,6137.91 L 5706.83,6130.27 L 5525.95,5573.45 L 5540.48,5553.45 L 5730.34,6137.91 Z " />
<path stroke="transparent" fill="#000000" transform="matrix(0.0666667 0 0 0.0666667 -269.959 -367)" d="M 5679.49,6169.76 L 5685.67,6150.74 L 6179.61,6311.19 L 6173.43,6330.21 L 5679.49,6169.76 Z " />
<path stroke="transparent" fill="#000000" transform="matrix(0.0666667 0 0 0.0666667 -269.959 -367)" d="M 5701.75,6101.29 L 5707.92,6082.27 L 6201.85,6242.71 L 6195.67,6261.73 L 5701.75,6101.29 Z " />
</svg>
