<?xml version="1.0" standalone="no" ?>
<!DOCTYPE svg PUBLIC "-//W3C//DTD SVG 1.1//EN" "http://www.w3.org/Graphics/SVG/1.1/DTD/svg11.dtd">
<svg width="603px" height="305px" viewBox="0 0 603 305" style="background-color: #ffffff00" xmlns="http://www.w3.org/2000/svg" xmlns:xlink="http://www.w3.org/1999/xlink" version="1.1" >
<path stroke="transparent" fill="#000000" transform="matrix(0.0833333 0 0 0.0833333 -132.25 -189)" d="M 8485.42,3677.54 L 8470.56,3690.92 L 8144.37,3328.64 L 8151.5,3306.68 L 8485.42,3677.54 Z " />
<path stroke="transparent" fill="#000000" transform="matrix(0.0833333 0 0 0.0833333 -132.25 -189)" d="M 8151.5,3306.68 L 8144.37,3328.64 L 7568.78,3450.99 L 7561.06,3442.41 L 7564.62,3431.43 L 8151.5,3306.68 Z " />
<path stroke="transparent" fill="#000000" transform="matrix(0.0833333 0 0 0.0833333 -132.25 -189)" d="M 4831.29,2953.16 L 4950.64,2965.7 L 4841.2,3541.43 L 4828.26,3556.14 L 4818.66,3539.06 L 4831.29,2953.16 Z " />
<path stroke="transparent" fill="#000000" transform="matrix(0.0833333 0 0 0.0833333 -132.25 -189)" d="M 4818.26,3561.92 L 4828.26,3556.14 L 4838.26,3563.41 L 4838.25,4148.89 L 4828.25,4156.15 L 4818.25,4150.38 L 4818.26,3561.92 Z " />
<path stroke="transparent" fill="#000000" transform="matrix(0.0833333 0 0 0.0833333 -132.25 -189)" d="M 4838.26,3563.41 L 4828.26,3556.14 L 4841.2,3541.43 L 5390.94,3362.82 L 5398.88,3370.76 L 5394.47,3382.71 L 4838.26,3563.41 Z " />
<path stroke="transparent" fill="#000000" transform="matrix(0.0833333 0 0 0.0833333 -132.25 -189)" d="M 4308.64,3267.72 L 4308.64,3244.62 L 4818.66,3539.06 L 4828.26,3556.14 L 4818.26,3561.92 L 4308.64,3267.72 Z " />
<path stroke="transparent" fill="#000000" transform="matrix(0.0833333 0 0 0.0833333 -132.25 -189)" d="M 4308.64,3244.62 L 4308.64,3267.72 L 3799.02,3561.94 L 3779.02,3550.39 L 4308.64,3244.62 Z " />
<path stroke="transparent" fill="#000000" transform="matrix(0.0833333 0 0 0.0833333 -132.25 -189)" d="M 3779.02,3550.39 L 3799.02,3561.94 L 3799.01,4150.4 L 3789.01,4156.17 L 3779.01,4150.4 L 3779.02,3550.39 Z " />
<path stroke="transparent" fill="#000000" transform="matrix(0.0833333 0 0 0.0833333 -132.25 -189)" d="M 3851.02,3597.74 L 3871.02,3597.74 L 3871.01,4114.6 L 3851.01,4114.6 L 3851.02,3597.74 Z " />
<path stroke="transparent" fill="#000000" transform="matrix(0.0833333 0 0 0.0833333 -132.25 -189)" d="M 3789.01,4167.72 L 3789.01,4156.17 L 3799.01,4150.4 L 4308.63,4444.6 L 4308.63,4456.15 L 4298.63,4461.92 L 3789.01,4167.72 Z " />
<path stroke="transparent" fill="#000000" transform="matrix(0.0833333 0 0 0.0833333 -132.25 -189)" d="M 3779.01,4150.4 L 3789.01,4156.17 L 3789.01,4167.72 L 3279.39,4461.94 L 3269.39,4456.17 L 3280.91,4437.97 L 3779.01,4150.4 Z " />
<path stroke="transparent" fill="#000000" transform="matrix(0.0833333 0 0 0.0833333 -132.25 -189)" d="M 3209.41,3856.16 L 3329.41,3856.16 L 3280.91,4437.97 L 3269.39,4456.17 L 3257.88,4437.97 L 3209.41,3856.16 Z " />
<path stroke="transparent" fill="#000000" transform="matrix(0.0833333 0 0 0.0833333 -132.25 -189)" d="M 3259.39,4461.94 L 3269.39,4456.17 L 3279.39,4461.94 L 3279.38,5049.87 L 3269.38,5056.17 L 3259.38,5050.4 L 3259.39,4461.94 Z " />
<path stroke="transparent" fill="#000000" transform="matrix(0.0833333 0 0 0.0833333 -132.25 -189)" d="M 2749.79,4167.7 L 2749.79,4144.61 L 3257.88,4437.97 L 3269.39,4456.17 L 3259.39,4461.94 L 2749.79,4167.7 Z " />
<path stroke="transparent" fill="#000000" transform="matrix(0.0833333 0 0 0.0833333 -132.25 -189)" d="M 2749.79,4144.61 L 2749.79,4167.7 L 2240.17,4461.92 L 2220.17,4450.38 L 2749.79,4144.61 Z " />
<path stroke="transparent" fill="#000000" transform="matrix(0.0833333 0 0 0.0833333 -132.25 -189)" d="M 2220.17,4450.38 L 2240.17,4461.92 L 2240.16,5050.38 L 2220.16,5061.93 L 2220.17,4450.38 Z " />
<path stroke="transparent" fill="#000000" transform="matrix(0.0833333 0 0 0.0833333 -132.25 -189)" d="M 1826.16,5342.52 L 1816.16,5325.2 L 2261.16,5068.28 L 2271.16,5085.6 L 1826.16,5342.52 Z " />
<path stroke="transparent" fill="#000000" transform="matrix(0.0833333 0 0 0.0833333 -132.25 -189)" d="M 1790.16,5280.16 L 1780.16,5262.84 L 2225.16,5005.93 L 2235.16,5023.25 L 1790.16,5280.16 Z " />
<path stroke="transparent" fill="#000000" transform="matrix(0.0833333 0 0 0.0833333 -132.25 -189)" d="M 2220.16,5061.93 L 2240.16,5050.38 L 2749.76,5344.62 L 2749.76,5356.17 L 2736.1,5359.83 L 2220.16,5061.93 Z " />
<path stroke="transparent" fill="#000000" transform="matrix(0.0833333 0 0 0.0833333 -132.25 -189)" d="M 2458.41,5880.78 L 2441.09,5870.78 L 2736.1,5359.83 L 2749.76,5356.17 L 2749.76,5376.17 L 2458.41,5880.78 Z " />
<path stroke="transparent" fill="#000000" transform="matrix(0.0833333 0 0 0.0833333 -132.25 -189)" d="M 3058.42,5870.79 L 3041.1,5880.79 L 2749.76,5376.17 L 2749.76,5356.17 L 2763.42,5359.83 L 3058.42,5870.79 Z " />
<path stroke="transparent" fill="#000000" transform="matrix(0.0833333 0 0 0.0833333 -132.25 -189)" d="M 2763.42,5359.83 L 2749.76,5356.17 L 2749.76,5344.62 L 3259.38,5050.4 L 3269.38,5056.17 L 3268.92,5067.99 L 2763.42,5359.83 Z " />
<path stroke="transparent" fill="#000000" transform="matrix(0.0833333 0 0 0.0833333 -132.25 -189)" d="M 3841.03,5314.57 L 3740.84,5395.5 L 3268.92,5067.99 L 3269.38,5056.17 L 3279.38,5049.87 L 3841.03,5314.57 Z " />
<path stroke="transparent" fill="#000000" transform="matrix(0.0833333 0 0 0.0833333 -132.25 -189)" d="M 3740.84,5395.5 L 3841.03,5314.57 L 4298.62,5050.38 L 4318.62,5061.93 L 3740.84,5395.5 Z " />
<path stroke="transparent" fill="#000000" transform="matrix(0.0833333 0 0 0.0833333 -132.25 -189)" d="M 4318.62,5061.93 L 4298.62,5050.38 L 4298.63,4461.92 L 4308.63,4456.15 L 4318.63,4461.92 L 4318.62,5061.93 Z " />
<path stroke="transparent" fill="#000000" transform="matrix(0.0833333 0 0 0.0833333 -132.25 -189)" d="M 4246.62,5014.58 L 4226.62,5014.58 L 4226.63,4497.72 L 4246.63,4497.72 L 4246.62,5014.58 Z " />
<path stroke="transparent" fill="#000000" transform="matrix(0.0833333 0 0 0.0833333 -132.25 -189)" d="M 4318.63,4461.92 L 4308.63,4456.15 L 4308.63,4444.6 L 4818.25,4150.38 L 4828.25,4156.15 L 4829.39,4167.04 L 4318.63,4461.92 Z " />
<path stroke="transparent" fill="#000000" transform="matrix(0.0833333 0 0 0.0833333 -132.25 -189)" d="M 4950.64,4746.59 L 4831.3,4759.13 L 4831.03,4739.05 L 4946.73,4726.89 L 4950.64,4746.59 Z " />
<path stroke="transparent" fill="#000000" transform="matrix(0.0833333 0 0 0.0833333 -132.25 -189)" d="M 4939.21,4689.03 L 4830.51,4700.46 L 4830.24,4680.38 L 4935.3,4669.34 L 4939.21,4689.03 Z " />
<path stroke="transparent" fill="#000000" transform="matrix(0.0833333 0 0 0.0833333 -132.25 -189)" d="M 4927.78,4631.48 L 4829.73,4641.79 L 4829.46,4621.7 L 4923.86,4611.78 L 4927.78,4631.48 Z " />
<path stroke="transparent" fill="#000000" transform="matrix(0.0833333 0 0 0.0833333 -132.25 -189)" d="M 4916.35,4573.93 L 4828.94,4583.11 L 4828.67,4563.03 L 4912.43,4554.23 L 4916.35,4573.93 Z " />
<path stroke="transparent" fill="#000000" transform="matrix(0.0833333 0 0 0.0833333 -132.25 -189)" d="M 4904.92,4516.37 L 4828.15,4524.44 L 4827.89,4504.36 L 4901,4496.67 L 4904.92,4516.37 Z " />
<path stroke="transparent" fill="#000000" transform="matrix(0.0833333 0 0 0.0833333 -132.25 -189)" d="M 4893.48,4458.82 L 4827.37,4465.77 L 4827.1,4445.68 L 4889.57,4439.12 L 4893.48,4458.82 Z " />
<path stroke="transparent" fill="#000000" transform="matrix(0.0833333 0 0 0.0833333 -132.25 -189)" d="M 4882.05,4401.26 L 4826.58,4407.09 L 4826.31,4387.01 L 4878.14,4381.56 L 4882.05,4401.26 Z " />
<path stroke="transparent" fill="#000000" transform="matrix(0.0833333 0 0 0.0833333 -132.25 -189)" d="M 4870.62,4343.71 L 4825.8,4348.42 L 4825.53,4328.34 L 4866.71,4324.01 L 4870.62,4343.71 Z " />
<path stroke="transparent" fill="#000000" transform="matrix(0.0833333 0 0 0.0833333 -132.25 -189)" d="M 4859.19,4286.15 L 4825.01,4289.75 L 4824.74,4269.66 L 4855.28,4266.45 L 4859.19,4286.15 Z " />
<path stroke="transparent" fill="#000000" transform="matrix(0.0833333 0 0 0.0833333 -132.25 -189)" d="M 4847.76,4228.6 L 4824.23,4231.07 L 4823.96,4210.99 L 4843.85,4208.9 L 4847.76,4228.6 Z " />
<path stroke="transparent" fill="#000000" transform="matrix(0.0833333 0 0 0.0833333 -132.25 -189)" d="M 5395.07,4329.81 L 5402.71,4353.32 L 4829.39,4167.04 L 4828.25,4156.15 L 4838.25,4148.89 L 5395.07,4329.81 Z " />
<path stroke="transparent" fill="#000000" transform="matrix(0.0833333 0 0 0.0833333 -132.25 -189)" d="M 5402.71,4353.32 L 5395.07,4329.81 L 5707.82,3899.33 L 5794.36,3814.23 L 5402.71,4353.32 Z " />
<path stroke="transparent" fill="#000000" transform="matrix(0.0833333 0 0 0.0833333 -132.25 -189)" d="M 5794.36,3814.23 L 5707.82,3899.33 L 5394.47,3382.71 L 5398.88,3370.76 L 5410.12,3368.53 L 5794.36,3814.23 Z " />
<path stroke="transparent" fill="#000000" transform="matrix(0.0833333 0 0 0.0833333 -132.25 -189)" d="M 5576.57,2791.54 L 5592.02,2808.7 L 5410.12,3368.53 L 5398.88,3370.76 L 5390.94,3362.82 L 5576.57,2791.54 Z " />
<path stroke="transparent" fill="#000000" transform="matrix(0.0833333 0 0 0.0833333 -132.25 -189)" d="M 5138.24,2394.38 L 5227.41,2314.09 L 5239.43,2330.18 L 5152.98,2408.02 L 5138.24,2394.38 Z " />
<path stroke="transparent" fill="#000000" transform="matrix(0.0833333 0 0 0.0833333 -132.25 -189)" d="M 5181.31,2434.23 L 5262.54,2361.1 L 5274.56,2377.18 L 5196.06,2447.87 L 5181.31,2434.23 Z " />
<path stroke="transparent" fill="#000000" transform="matrix(0.0833333 0 0 0.0833333 -132.25 -189)" d="M 5224.39,2474.07 L 5297.66,2408.1 L 5309.68,2424.19 L 5239.13,2487.71 L 5224.39,2474.07 Z " />
<path stroke="transparent" fill="#000000" transform="matrix(0.0833333 0 0 0.0833333 -132.25 -189)" d="M 5267.46,2513.92 L 5332.78,2455.11 L 5344.8,2471.2 L 5282.21,2527.55 L 5267.46,2513.92 Z " />
<path stroke="transparent" fill="#000000" transform="matrix(0.0833333 0 0 0.0833333 -132.25 -189)" d="M 5310.54,2553.76 L 5367.9,2502.11 L 5379.92,2518.2 L 5325.29,2567.4 L 5310.54,2553.76 Z " />
<path stroke="transparent" fill="#000000" transform="matrix(0.0833333 0 0 0.0833333 -132.25 -189)" d="M 5353.62,2593.6 L 5403.02,2549.12 L 5415.04,2565.21 L 5368.36,2607.24 L 5353.62,2593.6 Z " />
<path stroke="transparent" fill="#000000" transform="matrix(0.0833333 0 0 0.0833333 -132.25 -189)" d="M 5396.69,2633.45 L 5438.14,2596.13 L 5450.17,2612.22 L 5411.44,2647.09 L 5396.69,2633.45 Z " />
<path stroke="transparent" fill="#000000" transform="matrix(0.0833333 0 0 0.0833333 -132.25 -189)" d="M 5439.77,2673.29 L 5473.27,2643.13 L 5485.29,2659.22 L 5454.51,2686.93 L 5439.77,2673.29 Z " />
<path stroke="transparent" fill="#000000" transform="matrix(0.0833333 0 0 0.0833333 -132.25 -189)" d="M 5482.85,2713.14 L 5508.39,2690.14 L 5520.41,2706.23 L 5497.59,2726.77 L 5482.85,2713.14 Z " />
<path stroke="transparent" fill="#000000" transform="matrix(0.0833333 0 0 0.0833333 -132.25 -189)" d="M 5525.92,2752.98 L 5543.51,2737.15 L 5555.53,2753.23 L 5540.67,2766.62 L 5525.92,2752.98 Z " />
<path stroke="transparent" fill="#000000" transform="matrix(0.0833333 0 0 0.0833333 -132.25 -189)" d="M 6174.78,2664.4 L 6167.64,2686.36 L 5592.02,2808.7 L 5576.57,2791.54 L 6174.78,2664.4 Z " />
<path stroke="transparent" fill="#000000" transform="matrix(0.0833333 0 0 0.0833333 -132.25 -189)" d="M 6167.64,2686.36 L 6174.78,2664.4 L 6576.24,3110.29 L 6569.11,3132.25 L 6167.64,2686.36 Z " />
<path stroke="transparent" fill="#000000" transform="matrix(0.0833333 0 0 0.0833333 -132.25 -189)" d="M 6569.11,3132.25 L 6576.24,3110.29 L 7163.12,2985.53 L 7155.98,3007.5 L 6569.11,3132.25 Z " />
<path stroke="transparent" fill="#000000" transform="matrix(0.0833333 0 0 0.0833333 -132.25 -189)" d="M 7155.98,3007.5 L 7163.12,2985.53 L 7564.62,3431.43 L 7561.06,3442.41 L 7549.76,3444.81 L 7155.98,3007.5 Z " />
<path stroke="transparent" fill="#000000" transform="matrix(0.0833333 0 0 0.0833333 -132.25 -189)" d="M 7126.43,3082.28 L 7141.29,3068.9 L 7487.16,3453.01 L 7472.3,3466.39 L 7126.43,3082.28 Z " />
<path stroke="transparent" fill="#000000" transform="matrix(0.0833333 0 0 0.0833333 -132.25 -189)" d="M 7549.76,3444.81 L 7561.06,3442.41 L 7568.78,3450.99 L 7385.16,4016.14 L 7366.13,4009.96 L 7549.76,3444.81 Z " />
<text x="0" y="0" stroke="transparent" fill="#000000" transform="matrix(0.0833333 0 0 0.0833333 573.7 131.129)" style="font:normal normal normal 200px 'Arial'" >
OH</text>
<text x="0" y="0" stroke="transparent" fill="#000000" transform="matrix(0.0833333 0 0 0.0833333 3.79499 263.846)" style="font:normal normal normal 200px 'Arial'" >
O</text>
</svg>
