<?xml version="1.0" standalone="no" ?>
<!DOCTYPE svg PUBLIC "-//W3C//DTD SVG 1.1//EN" "http://www.w3.org/Graphics/SVG/1.1/DTD/svg11.dtd">
<svg width="361px" height="259px" viewBox="0 0 361 259" style="background-color: #ffffff00" xmlns="http://www.w3.org/2000/svg" xmlns:xlink="http://www.w3.org/1999/xlink" version="1.1" >
<text x="0" y="0" stroke="transparent" fill="#000000" transform="matrix(0.0833333 0 0 0.0833333 3.57 85.956)" style="font:normal normal normal 200px 'Arial'" >
O</text>
<text x="0" y="0" stroke="transparent" fill="#000000" transform="matrix(0.0833333 0 0 0.0833333 90.1719 235.955)" style="font:normal normal normal 200px 'Arial'" >
O</text>
<text x="0" y="0" stroke="transparent" fill="#000000" transform="matrix(0.0833333 0 0 0.0833333 176.774 235.961)" style="font:normal normal normal 200px 'Arial'" >
O</text>
<text x="0" y="0" stroke="transparent" fill="#000000" transform="matrix(0.0833333 0 0 0.0833333 176.778 85.9538)" style="font:normal normal normal 200px 'Arial'" >
O</text>
<text x="0" y="0" stroke="transparent" fill="#000000" transform="matrix(0.0833333 0 0 0.0833333 90.1701 35.9574)" style="font:normal normal normal 200px 'Arial'" >
O</text>
<path stroke="transparent" fill="#000000" transform="matrix(0.0833333 0 0 0.0833333 -243.25 -301)" d="M 3049.84,4460.31 L 3029.84,4460.31 L 3029.85,3965.47 L 3049.85,3965.47 L 3049.84,4460.31 Z " />
<path stroke="transparent" fill="#000000" transform="matrix(0.0833333 0 0 0.0833333 -243.25 -301)" d="M 3559.46,4853.92 L 3559.46,4865.47 L 3549.46,4871.24 L 3134.88,4631.89 L 3144.88,4614.57 L 3559.46,4853.92 Z " />
<path stroke="transparent" fill="#000000" transform="matrix(0.0833333 0 0 0.0833333 -243.25 -301)" d="M 3569.45,5459.69 L 3549.45,5471.24 L 3549.46,4871.24 L 3559.46,4865.47 L 3569.46,4871.24 L 3569.45,5459.69 Z " />
<path stroke="transparent" fill="#000000" transform="matrix(0.0833333 0 0 0.0833333 -243.25 -301)" d="M 3641.45,5423.9 L 3621.45,5423.9 L 3621.46,4907.03 L 3641.46,4907.04 L 3641.45,5423.9 Z " />
<path stroke="transparent" fill="#000000" transform="matrix(0.0833333 0 0 0.0833333 -243.25 -301)" d="M 4079.02,5753.94 L 4079.02,5765.49 L 4069.02,5771.26 L 3549.45,5471.24 L 3569.45,5459.69 L 4079.02,5753.94 Z " />
<path stroke="transparent" fill="#000000" transform="matrix(0.0833333 0 0 0.0833333 -243.25 -301)" d="M 4089.05,6260.29 L 4069.05,6260.29 L 4069.02,5771.26 L 4079.02,5765.49 L 4089.02,5771.26 L 4089.05,6260.29 Z " />
<path stroke="transparent" fill="#000000" transform="matrix(0.0833333 0 0 0.0833333 -243.25 -301)" d="M 4603.66,6656.87 L 4593.66,6674.19 L 4174.09,6431.89 L 4184.09,6414.57 L 4603.66,6656.87 Z " />
<path stroke="transparent" fill="#000000" transform="matrix(0.0833333 0 0 0.0833333 -243.25 -301)" d="M 4588.64,5459.71 L 4598.64,5465.48 L 4598.64,5477.03 L 4089.02,5771.26 L 4079.02,5765.49 L 4079.02,5753.94 L 4588.64,5459.71 Z " />
<path stroke="transparent" fill="#000000" transform="matrix(0.0833333 0 0 0.0833333 -243.25 -301)" d="M 4521.64,5415.25 L 4531.64,5432.57 L 4084.02,5691.01 L 4074.02,5673.69 L 4521.64,5415.25 Z " />
<path stroke="transparent" fill="#000000" transform="matrix(0.0833333 0 0 0.0833333 -243.25 -301)" d="M 5118.26,5753.93 L 5118.26,5777.02 L 4598.64,5477.03 L 4598.64,5465.48 L 4608.64,5459.71 L 5118.26,5753.93 Z " />
<path stroke="transparent" fill="#000000" transform="matrix(0.0833333 0 0 0.0833333 -243.25 -301)" d="M 5164.28,6260.36 L 5144.28,6260.36 L 5144.27,5744.69 L 5164.27,5744.69 L 5164.28,6260.36 Z " />
<path stroke="transparent" fill="#000000" transform="matrix(0.0833333 0 0 0.0833333 -243.25 -301)" d="M 5092.28,6260.36 L 5072.28,6260.36 L 5072.26,5744.69 L 5092.26,5744.69 L 5092.28,6260.36 Z " />
<path stroke="transparent" fill="#000000" transform="matrix(0.0833333 0 0 0.0833333 -243.25 -301)" d="M 5627.89,5459.7 L 5647.89,5471.24 L 5118.26,5777.02 L 5118.26,5753.93 L 5627.89,5459.7 Z " />
<path stroke="transparent" fill="#000000" transform="matrix(0.0833333 0 0 0.0833333 -243.25 -301)" d="M 5627.9,4871.24 L 5637.9,4865.47 L 5647.9,4871.24 L 5647.89,5471.24 L 5627.89,5459.7 L 5627.9,4871.24 Z " />
<path stroke="transparent" fill="#000000" transform="matrix(0.0833333 0 0 0.0833333 -243.25 -301)" d="M 5555.9,4907.03 L 5575.9,4907.03 L 5575.89,5423.9 L 5555.89,5423.9 L 5555.9,4907.03 Z " />
<path stroke="transparent" fill="#000000" transform="matrix(0.0833333 0 0 0.0833333 -243.25 -301)" d="M 6147.52,4559.69 L 6157.52,4565.46 L 6157.52,4577.01 L 5647.9,4871.24 L 5637.9,4865.47 L 5637.9,4853.92 L 6147.52,4559.69 Z " />
<path stroke="transparent" fill="#000000" transform="matrix(0.0833333 0 0 0.0833333 -243.25 -301)" d="M 6677.14,4853.91 L 6677.14,4877 L 6157.52,4577.01 L 6157.52,4565.46 L 6167.52,4559.69 L 6677.14,4853.91 Z " />
<path stroke="transparent" fill="#000000" transform="matrix(0.0833333 0 0 0.0833333 -243.25 -301)" d="M 6682.14,4773.66 L 6672.14,4790.98 L 6224.53,4532.55 L 6234.52,4515.23 L 6682.14,4773.66 Z " />
<path stroke="transparent" fill="#000000" transform="matrix(0.0833333 0 0 0.0833333 -243.25 -301)" d="M 7186.77,4559.68 L 7206.77,4571.22 L 6677.14,4877 L 6677.14,4853.91 L 7186.77,4559.68 Z " />
<path stroke="transparent" fill="#000000" transform="matrix(0.0833333 0 0 0.0833333 -243.25 -301)" d="M 7186.78,3971.22 L 7206.78,3959.68 L 7206.77,4571.22 L 7186.77,4559.68 L 7186.78,3971.22 Z " />
<path stroke="transparent" fill="#000000" transform="matrix(0.0833333 0 0 0.0833333 -243.25 -301)" d="M 7114.78,4007.01 L 7134.78,4007.02 L 7134.77,4523.88 L 7114.77,4523.88 L 7114.78,4007.01 Z " />
<path stroke="transparent" fill="#000000" transform="matrix(0.0833333 0 0 0.0833333 -243.25 -301)" d="M 6677.21,3676.97 L 6677.21,3653.88 L 7206.78,3959.68 L 7186.78,3971.22 L 6677.21,3676.97 Z " />
<path stroke="transparent" fill="#000000" transform="matrix(0.0833333 0 0 0.0833333 -243.25 -301)" d="M 6167.53,3971.24 L 6147.53,3959.69 L 6677.21,3653.88 L 6677.21,3676.97 L 6167.53,3971.24 Z " />
<path stroke="transparent" fill="#000000" transform="matrix(0.0833333 0 0 0.0833333 -243.25 -301)" d="M 6234.54,4015.7 L 6224.54,3998.38 L 6672.21,3739.92 L 6682.21,3757.24 L 6234.54,4015.7 Z " />
<path stroke="transparent" fill="#000000" transform="matrix(0.0833333 0 0 0.0833333 -243.25 -301)" d="M 6147.53,3959.69 L 6167.53,3971.24 L 6167.52,4559.69 L 6157.52,4565.46 L 6147.52,4559.69 L 6147.53,3959.69 Z " />
<path stroke="transparent" fill="#000000" transform="matrix(0.0833333 0 0 0.0833333 -243.25 -301)" d="M 5213.36,4631.87 L 5223.36,4614.55 L 5637.9,4853.92 L 5637.9,4865.47 L 5627.9,4871.24 L 5213.36,4631.87 Z " />
<path stroke="transparent" fill="#000000" transform="matrix(0.0833333 0 0 0.0833333 -243.25 -301)" d="M 4608.65,4871.26 L 4598.65,4865.48 L 4598.65,4853.94 L 5013.73,4614.29 L 5023.73,4631.61 L 4608.65,4871.26 Z " />
<path stroke="transparent" fill="#000000" transform="matrix(0.0833333 0 0 0.0833333 -243.25 -301)" d="M 4588.65,4871.26 L 4598.65,4865.48 L 4608.65,4871.26 L 4608.64,5459.71 L 4598.64,5465.48 L 4588.64,5459.71 L 4588.65,4871.26 Z " />
<path stroke="transparent" fill="#000000" transform="matrix(0.0833333 0 0 0.0833333 -243.25 -301)" d="M 4079.03,4577.04 L 4079.03,4565.49 L 4089.03,4559.72 L 4598.65,4853.94 L 4598.65,4865.48 L 4588.65,4871.26 L 4079.03,4577.04 Z " />
<path stroke="transparent" fill="#000000" transform="matrix(0.0833333 0 0 0.0833333 -243.25 -301)" d="M 4074.03,4657.29 L 4084.03,4639.97 L 4531.65,4898.39 L 4521.65,4915.71 L 4074.03,4657.29 Z " />
<path stroke="transparent" fill="#000000" transform="matrix(0.0833333 0 0 0.0833333 -243.25 -301)" d="M 4069.03,4559.72 L 4079.03,4565.49 L 4079.03,4577.04 L 3569.46,4871.24 L 3559.46,4865.47 L 3559.46,4853.92 L 4069.03,4559.72 Z " />
<path stroke="transparent" fill="#000000" transform="matrix(0.0833333 0 0 0.0833333 -243.25 -301)" d="M 4069.04,4085.32 L 4089.04,4085.32 L 4089.03,4559.72 L 4079.03,4565.49 L 4069.03,4559.72 L 4069.04,4085.32 Z " />
<path stroke="transparent" fill="#000000" transform="matrix(0.0833333 0 0 0.0833333 -243.25 -301)" d="M 3554.47,3674.13 L 3564.47,3656.81 L 3991.43,3903.35 L 3981.43,3920.67 L 3554.47,3674.13 Z " />
</svg>
