<?xml version="1.0" standalone="no" ?>
<!DOCTYPE svg PUBLIC "-//W3C//DTD SVG 1.1//EN" "http://www.w3.org/Graphics/SVG/1.1/DTD/svg11.dtd">
<svg width="367px" height="202px" viewBox="0 0 367 202" style="background-color: #ffffff00" xmlns="http://www.w3.org/2000/svg" xmlns:xlink="http://www.w3.org/1999/xlink" version="1.1" >
<text x="0" y="0" stroke="transparent" fill="#000000" transform="matrix(0.0833333 0 0 0.0833333 176.86 35.694)" style="font:normal normal normal 200px 'Arial'" >
O</text>
<text x="0" y="0" stroke="transparent" fill="#000000" transform="matrix(0.0833333 0 0 0.0833333 263.465 185.695)" style="font:normal normal normal 200px 'Arial'" >
O</text>
<text x="0" y="0" stroke="transparent" fill="#000000" transform="matrix(0.0833333 0 0 0.0833333 350.069 185.696)" style="font:normal normal normal 200px 'Arial'" >
O</text>
<text x="0" y="0" stroke="transparent" fill="#000000" transform="matrix(0.0833333 0 0 0.0833333 90.2561 185.696)" style="font:normal normal normal 200px 'Arial'" >
O</text>
<path stroke="transparent" fill="#000000" transform="matrix(0.0833333 0 0 0.0833333 -254.208 -177)" d="M 5348.44,2429.52 L 5338.44,2412.2 L 5765.44,2165.67 L 5775.43,2183 L 5348.44,2429.52 Z " />
<path stroke="transparent" fill="#000000" transform="matrix(0.0833333 0 0 0.0833333 -254.208 -177)" d="M 5260.82,3068.55 L 5250.82,3074.33 L 5240.82,3068.55 L 5240.82,2594.16 L 5260.82,2594.16 L 5260.82,3068.55 Z " />
<path stroke="transparent" fill="#000000" transform="matrix(0.0833333 0 0 0.0833333 -254.208 -177)" d="M 4741.2,3380.1 L 4731.2,3374.32 L 4731.2,3362.78 L 5240.82,3068.55 L 5250.82,3074.33 L 5250.82,3085.88 L 4741.2,3380.1 Z " />
<path stroke="transparent" fill="#000000" transform="matrix(0.0833333 0 0 0.0833333 -254.208 -177)" d="M 4808.21,3424.55 L 4798.21,3407.23 L 5245.82,3148.81 L 5255.82,3166.13 L 4808.21,3424.55 Z " />
<path stroke="transparent" fill="#000000" transform="matrix(0.0833333 0 0 0.0833333 -254.208 -177)" d="M 4741.21,3968.55 L 4731.21,3974.32 L 4721.21,3968.55 L 4721.2,3380.1 L 4731.2,3374.32 L 4741.2,3380.1 L 4741.21,3968.55 Z " />
<path stroke="transparent" fill="#000000" transform="matrix(0.0833333 0 0 0.0833333 -254.208 -177)" d="M 5250.84,4262.78 L 5250.84,4285.88 L 4731.21,3985.87 L 4731.21,3974.32 L 4741.21,3968.55 L 5250.84,4262.78 Z " />
<path stroke="transparent" fill="#000000" transform="matrix(0.0833333 0 0 0.0833333 -254.208 -177)" d="M 5255.84,4182.53 L 5245.84,4199.85 L 4798.21,3941.41 L 4808.21,3924.09 L 5255.84,4182.53 Z " />
<path stroke="transparent" fill="#000000" transform="matrix(0.0833333 0 0 0.0833333 -254.208 -177)" d="M 5760.46,3968.56 L 5770.46,3974.34 L 5770.46,3985.88 L 5250.84,4285.88 L 5250.84,4262.78 L 5760.46,3968.56 Z " />
<path stroke="transparent" fill="#000000" transform="matrix(0.0833333 0 0 0.0833333 -254.208 -177)" d="M 6202.47,4212.21 L 6192.47,4229.53 L 5770.46,3985.88 L 5770.46,3974.34 L 5780.46,3968.56 L 6202.47,4212.21 Z " />
<path stroke="transparent" fill="#000000" transform="matrix(0.0833333 0 0 0.0833333 -254.208 -177)" d="M 6799.7,3968.57 L 6819.7,3980.12 L 6387.7,4229.53 L 6377.7,4212.21 L 6799.7,3968.57 Z " />
<path stroke="transparent" fill="#000000" transform="matrix(0.0833333 0 0 0.0833333 -254.208 -177)" d="M 7259.71,4181.04 L 7249.71,4198.36 L 6804.7,3941.44 L 6814.7,3924.12 L 7259.71,4181.04 Z " />
<path stroke="transparent" fill="#000000" transform="matrix(0.0833333 0 0 0.0833333 -254.208 -177)" d="M 7223.71,4243.4 L 7213.71,4260.72 L 6768.7,4003.79 L 6778.7,3986.47 L 7223.71,4243.4 Z " />
<path stroke="transparent" fill="#000000" transform="matrix(0.0833333 0 0 0.0833333 -254.208 -177)" d="M 6799.7,3380.12 L 6819.7,3368.57 L 6819.7,3980.12 L 6799.7,3968.57 L 6799.7,3380.12 Z " />
<path stroke="transparent" fill="#000000" transform="matrix(0.0833333 0 0 0.0833333 -254.208 -177)" d="M 6290.07,3085.89 L 6290.07,3062.79 L 6819.7,3368.57 L 6799.7,3380.12 L 6290.07,3085.89 Z " />
<path stroke="transparent" fill="#000000" transform="matrix(0.0833333 0 0 0.0833333 -254.208 -177)" d="M 6285.07,3166.14 L 6295.07,3148.82 L 6742.7,3407.26 L 6732.7,3424.58 L 6285.07,3166.14 Z " />
<path stroke="transparent" fill="#000000" transform="matrix(0.0833333 0 0 0.0833333 -254.208 -177)" d="M 5780.45,3380.11 L 5770.45,3374.34 L 5770.45,3362.79 L 6290.07,3062.79 L 6290.07,3085.89 L 5780.45,3380.11 Z " />
<path stroke="transparent" fill="#000000" transform="matrix(0.0833333 0 0 0.0833333 -254.208 -177)" d="M 5770.45,3362.79 L 5770.45,3374.34 L 5760.45,3380.11 L 5250.82,3085.88 L 5250.82,3074.33 L 5260.82,3068.55 L 5770.45,3362.79 Z " />
<path stroke="transparent" fill="#000000" transform="matrix(0.0833333 0 0 0.0833333 -254.208 -177)" d="M 5760.45,3380.11 L 5770.45,3374.34 L 5780.45,3380.11 L 5780.46,3968.56 L 5770.46,3974.34 L 5760.46,3968.56 L 5760.45,3380.11 Z " />
<path stroke="transparent" fill="#000000" transform="matrix(0.0833333 0 0 0.0833333 -254.208 -177)" d="M 5688.45,3415.9 L 5708.45,3415.9 L 5708.46,3932.77 L 5688.46,3932.77 L 5688.45,3415.9 Z " />
<path stroke="transparent" fill="#000000" transform="matrix(0.0833333 0 0 0.0833333 -254.208 -177)" d="M 4309.19,4229.53 L 4299.19,4212.21 L 4721.21,3968.55 L 4731.21,3974.32 L 4731.21,3985.87 L 4309.19,4229.53 Z " />
<path stroke="transparent" fill="#000000" transform="matrix(0.0833333 0 0 0.0833333 -254.208 -177)" d="M 3695.61,3988 L 3691.95,3974.34 L 3701.95,3968.57 L 4123.95,4212.22 L 4113.95,4229.54 L 3695.61,3988 Z " />
<path stroke="transparent" fill="#000000" transform="matrix(0.0833333 0 0 0.0833333 -254.208 -177)" d="M 3091.97,3984.32 L 3091.97,3964.32 L 3681.95,3964.34 L 3691.95,3974.34 L 3674.63,3984.34 L 3091.97,3984.32 Z " />
<path stroke="transparent" fill="#000000" transform="matrix(0.0833333 0 0 0.0833333 -254.208 -177)" d="M 3400.66,4498.95 L 3383.33,4488.96 L 3674.63,3984.34 L 3691.95,3974.34 L 3695.61,3988 L 3400.66,4498.95 Z " />
<path stroke="transparent" fill="#000000" transform="matrix(0.0833333 0 0 0.0833333 -254.208 -177)" d="M 3681.96,3368.54 L 3701.96,3380.08 L 3701.95,3968.57 L 3691.95,3974.34 L 3681.95,3964.34 L 3681.96,3368.54 Z " />
<path stroke="transparent" fill="#000000" transform="matrix(0.0833333 0 0 0.0833333 -254.208 -177)" d="M 4211.58,3062.77 L 4211.58,3085.86 L 3701.96,3380.08 L 3681.96,3368.54 L 4211.58,3062.77 Z " />
<path stroke="transparent" fill="#000000" transform="matrix(0.0833333 0 0 0.0833333 -254.208 -177)" d="M 4206.58,3148.79 L 4216.58,3166.11 L 3768.96,3424.54 L 3758.96,3407.22 L 4206.58,3148.79 Z " />
<path stroke="transparent" fill="#000000" transform="matrix(0.0833333 0 0 0.0833333 -254.208 -177)" d="M 4211.58,3085.86 L 4211.58,3062.77 L 4731.2,3362.78 L 4731.2,3374.32 L 4721.2,3380.1 L 4211.58,3085.86 Z " />
</svg>
