<?xml version="1.0" standalone="no" ?>
<!DOCTYPE svg PUBLIC "-//W3C//DTD SVG 1.1//EN" "http://www.w3.org/Graphics/SVG/1.1/DTD/svg11.dtd">
<svg width="639px" height="359px" viewBox="0 0 639 359" style="background-color: #ffffff00" xmlns="http://www.w3.org/2000/svg" xmlns:xlink="http://www.w3.org/1999/xlink" version="1.1" >
<path stroke="transparent" fill="#000000" transform="matrix(0.0833333 0 0 0.0833333 -116.208 -180)" d="M 6778.68,6231.16 L 6658.68,6231.16 L 6660.94,6211.16 L 6776.41,6211.16 L 6778.68,6231.16 Z " />
<path stroke="transparent" fill="#000000" transform="matrix(0.0833333 0 0 0.0833333 -116.208 -180)" d="M 6771.86,6171.05 L 6665.49,6171.05 L 6667.76,6151.05 L 6769.59,6151.05 L 6771.86,6171.05 Z " />
<path stroke="transparent" fill="#000000" transform="matrix(0.0833333 0 0 0.0833333 -116.208 -180)" d="M 6765.04,6110.95 L 6672.31,6110.95 L 6674.58,6090.95 L 6762.77,6090.95 L 6765.04,6110.95 Z " />
<path stroke="transparent" fill="#000000" transform="matrix(0.0833333 0 0 0.0833333 -116.208 -180)" d="M 6758.22,6050.84 L 6679.13,6050.84 L 6681.4,6030.84 L 6755.95,6030.84 L 6758.22,6050.84 Z " />
<path stroke="transparent" fill="#000000" transform="matrix(0.0833333 0 0 0.0833333 -116.208 -180)" d="M 6751.4,5990.74 L 6685.95,5990.74 L 6688.22,5970.74 L 6749.13,5970.74 L 6751.4,5990.74 Z " />
<path stroke="transparent" fill="#000000" transform="matrix(0.0833333 0 0 0.0833333 -116.208 -180)" d="M 6744.58,5930.63 L 6692.77,5930.63 L 6695.04,5910.63 L 6742.31,5910.63 L 6744.58,5930.63 Z " />
<path stroke="transparent" fill="#000000" transform="matrix(0.0833333 0 0 0.0833333 -116.208 -180)" d="M 6737.76,5870.52 L 6699.59,5870.52 L 6701.86,5850.52 L 6735.49,5850.52 L 6737.76,5870.52 Z " />
<path stroke="transparent" fill="#000000" transform="matrix(0.0833333 0 0 0.0833333 -116.208 -180)" d="M 6730.94,5810.42 L 6706.41,5810.42 L 6708.68,5790.42 L 6728.68,5790.42 L 6730.94,5810.42 Z " />
<path stroke="transparent" fill="#000000" transform="matrix(0.0833333 0 0 0.0833333 -116.208 -180)" d="M 6718.68,5747.87 L 6718.68,5724.78 L 7228.29,5430.55 L 7238.29,5436.33 L 7237.83,5448.14 L 6718.68,5747.87 Z " />
<path stroke="transparent" fill="#000000" transform="matrix(0.0833333 0 0 0.0833333 -116.208 -180)" d="M 6199.62,5448.19 L 6199.07,5436.33 L 6209.07,5430.55 L 6718.68,5724.78 L 6718.68,5747.87 L 6199.62,5448.19 Z " />
<path stroke="transparent" fill="#000000" transform="matrix(0.0833333 0 0 0.0833333 -116.208 -180)" d="M 5802.06,5734.82 L 5742.06,5630.9 L 6189.07,5429.91 L 6199.07,5436.33 L 6199.62,5448.19 L 5802.06,5734.82 Z " />
<path stroke="transparent" fill="#000000" transform="matrix(0.0833333 0 0 0.0833333 -116.208 -180)" d="M 6189.07,4842.75 L 6199.07,4836.33 L 6209.07,4842.1 L 6209.07,5430.55 L 6199.07,5436.33 L 6189.07,5429.91 L 6189.07,4842.75 Z " />
<path stroke="transparent" fill="#000000" transform="matrix(0.0833333 0 0 0.0833333 -116.208 -180)" d="M 5749.48,4646 L 5809.48,4542.08 L 6199.63,4824.45 L 6199.07,4836.33 L 6189.07,4842.75 L 5749.48,4646 Z " />
<path stroke="transparent" fill="#000000" transform="matrix(0.0833333 0 0 0.0833333 -116.208 -180)" d="M 6718.68,4524.74 L 6718.68,4547.83 L 6209.07,4842.1 L 6199.07,4836.33 L 6199.63,4824.45 L 6718.68,4524.74 Z " />
<path stroke="transparent" fill="#000000" transform="matrix(0.0833333 0 0 0.0833333 -116.208 -180)" d="M 7817.9,4431.12 L 7697.9,4431.12 L 7700.17,4411.12 L 7815.63,4411.12 L 7817.9,4431.12 Z " />
<path stroke="transparent" fill="#000000" transform="matrix(0.0833333 0 0 0.0833333 -116.208 -180)" d="M 7811.08,4371.01 L 7704.72,4371.01 L 7706.99,4351.01 L 7808.81,4351.01 L 7811.08,4371.01 Z " />
<path stroke="transparent" fill="#000000" transform="matrix(0.0833333 0 0 0.0833333 -116.208 -180)" d="M 7804.26,4310.91 L 7711.54,4310.91 L 7713.8,4290.91 L 7801.99,4290.91 L 7804.26,4310.91 Z " />
<path stroke="transparent" fill="#000000" transform="matrix(0.0833333 0 0 0.0833333 -116.208 -180)" d="M 7797.44,4250.8 L 7718.35,4250.8 L 7720.62,4230.8 L 7795.17,4230.8 L 7797.44,4250.8 Z " />
<path stroke="transparent" fill="#000000" transform="matrix(0.0833333 0 0 0.0833333 -116.208 -180)" d="M 7790.62,4190.69 L 7725.17,4190.69 L 7727.44,4170.69 L 7788.35,4170.69 L 7790.62,4190.69 Z " />
<path stroke="transparent" fill="#000000" transform="matrix(0.0833333 0 0 0.0833333 -116.208 -180)" d="M 7783.8,4130.59 L 7731.99,4130.59 L 7734.26,4110.59 L 7781.54,4110.59 L 7783.8,4130.59 Z " />
<path stroke="transparent" fill="#000000" transform="matrix(0.0833333 0 0 0.0833333 -116.208 -180)" d="M 7776.99,4070.48 L 7738.81,4070.48 L 7741.08,4050.48 L 7774.72,4050.48 L 7776.99,4070.48 Z " />
<path stroke="transparent" fill="#000000" transform="matrix(0.0833333 0 0 0.0833333 -116.208 -180)" d="M 7770.17,4010.38 L 7745.63,4010.38 L 7747.9,3990.38 L 7767.9,3990.38 L 7770.17,4010.38 Z " />
<path stroke="transparent" fill="#000000" transform="matrix(0.0833333 0 0 0.0833333 -116.208 -180)" d="M 7757.9,3924.74 L 7757.9,3947.83 L 7238.84,3648.15 L 7238.29,3636.29 L 7248.29,3630.51 L 7757.9,3924.74 Z " />
<path stroke="transparent" fill="#000000" transform="matrix(0.0833333 0 0 0.0833333 -116.208 -180)" d="M 8267.51,3630.51 L 8287.51,3642.06 L 7757.9,3947.83 L 7757.9,3924.74 L 8267.51,3630.51 Z " />
<path stroke="transparent" fill="#000000" transform="matrix(0.0833333 0 0 0.0833333 -116.208 -180)" d="M 8734.5,3830.85 L 8674.5,3934.77 L 8658.32,3922.8 L 8716.04,3822.82 L 8734.5,3830.85 Z " />
<path stroke="transparent" fill="#000000" transform="matrix(0.0833333 0 0 0.0833333 -116.208 -180)" d="M 8679.25,3806.82 L 8626.07,3898.94 L 8609.89,3886.96 L 8660.79,3798.8 L 8679.25,3806.82 Z " />
<path stroke="transparent" fill="#000000" transform="matrix(0.0833333 0 0 0.0833333 -116.208 -180)" d="M 8624,3782.79 L 8577.63,3863.1 L 8561.45,3851.13 L 8605.54,3774.77 L 8624,3782.79 Z " />
<path stroke="transparent" fill="#000000" transform="matrix(0.0833333 0 0 0.0833333 -116.208 -180)" d="M 8568.75,3758.77 L 8529.2,3827.27 L 8513.02,3815.29 L 8550.29,3750.74 L 8568.75,3758.77 Z " />
<path stroke="transparent" fill="#000000" transform="matrix(0.0833333 0 0 0.0833333 -116.208 -180)" d="M 8513.49,3734.74 L 8480.76,3791.43 L 8464.58,3779.46 L 8495.03,3726.71 L 8513.49,3734.74 Z " />
<path stroke="transparent" fill="#000000" transform="matrix(0.0833333 0 0 0.0833333 -116.208 -180)" d="M 8458.24,3710.71 L 8432.33,3755.59 L 8416.15,3743.62 L 8439.78,3702.68 L 8458.24,3710.71 Z " />
<path stroke="transparent" fill="#000000" transform="matrix(0.0833333 0 0 0.0833333 -116.208 -180)" d="M 8402.99,3686.68 L 8383.89,3719.76 L 8367.71,3707.78 L 8384.53,3678.66 L 8402.99,3686.68 Z " />
<path stroke="transparent" fill="#000000" transform="matrix(0.0833333 0 0 0.0833333 -116.208 -180)" d="M 8347.74,3662.66 L 8335.46,3683.92 L 8319.28,3671.95 L 8329.28,3654.63 L 8347.74,3662.66 Z " />
<path stroke="transparent" fill="#000000" transform="matrix(0.0833333 0 0 0.0833333 -116.208 -180)" d="M 8267.51,3042.06 L 8287.51,3030.51 L 8287.51,3642.06 L 8267.51,3630.51 L 8267.51,3042.06 Z " />
<path stroke="transparent" fill="#000000" transform="matrix(0.0833333 0 0 0.0833333 -116.208 -180)" d="M 8287.51,3030.51 L 8267.51,3042.06 L 7852.93,2802.7 L 7862.93,2785.38 L 8287.51,3030.51 Z " />
<path stroke="transparent" fill="#000000" transform="matrix(0.0833333 0 0 0.0833333 -116.208 -180)" d="M 7653.29,2785.13 L 7663.29,2802.45 L 7248.29,3042.06 L 7228.29,3030.51 L 7653.29,2785.13 Z " />
<path stroke="transparent" fill="#000000" transform="matrix(0.0833333 0 0 0.0833333 -116.208 -180)" d="M 5970.79,2211.67 L 5988.11,2221.67 L 5693.11,2732.62 L 5679.45,2736.29 L 5679.45,2716.29 L 5970.79,2211.67 Z " />
<path stroke="transparent" fill="#000000" transform="matrix(0.0833333 0 0 0.0833333 -116.208 -180)" d="M 5370.75,2221.67 L 5388.07,2211.67 L 5679.45,2716.29 L 5679.45,2736.29 L 5665.79,2732.62 L 5370.75,2221.67 Z " />
<path stroke="transparent" fill="#000000" transform="matrix(0.0833333 0 0 0.0833333 -116.208 -180)" d="M 5679.45,2747.83 L 5679.45,2736.29 L 5693.11,2732.62 L 6198.5,3024.41 L 6199.07,3036.29 L 6189.07,3042.06 L 5679.45,2747.83 Z " />
<path stroke="transparent" fill="#000000" transform="matrix(0.0833333 0 0 0.0833333 -116.208 -180)" d="M 5665.79,2732.62 L 5679.45,2736.29 L 5679.45,2747.83 L 5169.8,3042.06 L 5159.8,3036.29 L 5160.26,3024.47 L 5665.79,2732.62 Z " />
<path stroke="transparent" fill="#000000" transform="matrix(0.0833333 0 0 0.0833333 -116.208 -180)" d="M 3540.93,3336.29 L 3660.93,3336.29 L 3659.1,3356.29 L 3542.76,3356.29 L 3540.93,3336.29 Z " />
<path stroke="transparent" fill="#000000" transform="matrix(0.0833333 0 0 0.0833333 -116.208 -180)" d="M 3546.28,3394.73 L 3655.58,3394.73 L 3653.75,3414.73 L 3548.11,3414.73 L 3546.28,3394.73 Z " />
<path stroke="transparent" fill="#000000" transform="matrix(0.0833333 0 0 0.0833333 -116.208 -180)" d="M 3551.63,3453.17 L 3650.23,3453.17 L 3648.39,3473.17 L 3553.47,3473.17 L 3551.63,3453.17 Z " />
<path stroke="transparent" fill="#000000" transform="matrix(0.0833333 0 0 0.0833333 -116.208 -180)" d="M 3556.99,3511.62 L 3644.87,3511.62 L 3643.04,3531.62 L 3558.82,3531.62 L 3556.99,3511.62 Z " />
<path stroke="transparent" fill="#000000" transform="matrix(0.0833333 0 0 0.0833333 -116.208 -180)" d="M 3562.34,3570.06 L 3639.52,3570.06 L 3637.69,3590.06 L 3564.17,3590.06 L 3562.34,3570.06 Z " />
<path stroke="transparent" fill="#000000" transform="matrix(0.0833333 0 0 0.0833333 -116.208 -180)" d="M 3567.69,3628.51 L 3634.17,3628.51 L 3632.34,3648.51 L 3569.52,3648.51 L 3567.69,3628.51 Z " />
<path stroke="transparent" fill="#000000" transform="matrix(0.0833333 0 0 0.0833333 -116.208 -180)" d="M 3573.04,3686.95 L 3628.82,3686.95 L 3626.99,3706.95 L 3574.87,3706.95 L 3573.04,3686.95 Z " />
<path stroke="transparent" fill="#000000" transform="matrix(0.0833333 0 0 0.0833333 -116.208 -180)" d="M 3578.39,3745.4 L 3623.47,3745.4 L 3621.63,3765.4 L 3580.23,3765.4 L 3578.39,3745.4 Z " />
<path stroke="transparent" fill="#000000" transform="matrix(0.0833333 0 0 0.0833333 -116.208 -180)" d="M 3583.75,3803.84 L 3618.11,3803.84 L 3616.28,3823.84 L 3585.58,3823.84 L 3583.75,3803.84 Z " />
<path stroke="transparent" fill="#000000" transform="matrix(0.0833333 0 0 0.0833333 -116.208 -180)" d="M 3589.1,3862.29 L 3612.76,3862.29 L 3610.93,3882.29 L 3590.93,3882.29 L 3589.1,3862.29 Z " />
<path stroke="transparent" fill="#000000" transform="matrix(0.0833333 0 0 0.0833333 -116.208 -180)" d="M 3610.93,3942.06 L 3600.93,3936.29 L 3600.93,3924.74 L 4110.58,3630.51 L 4120.58,3636.29 L 4109.07,3654.48 L 3610.93,3942.06 Z " />
<path stroke="transparent" fill="#000000" transform="matrix(0.0833333 0 0 0.0833333 -116.208 -180)" d="M 3590.93,3942.06 L 3600.93,3936.29 L 3610.93,3942.06 L 3610.93,4530.51 L 3600.93,4536.29 L 3590.93,4530.51 L 3590.93,3942.06 Z " />
<path stroke="transparent" fill="#000000" transform="matrix(0.0833333 0 0 0.0833333 -116.208 -180)" d="M 3081.32,3647.83 L 3081.32,3624.74 L 3600.93,3924.74 L 3600.93,3936.29 L 3590.93,3942.06 L 3081.32,3647.83 Z " />
<path stroke="transparent" fill="#000000" transform="matrix(0.0833333 0 0 0.0833333 -116.208 -180)" d="M 3081.32,3624.74 L 3081.32,3647.83 L 2571.71,3942.06 L 2551.71,3930.51 L 3081.32,3624.74 Z " />
<path stroke="transparent" fill="#000000" transform="matrix(0.0833333 0 0 0.0833333 -116.208 -180)" d="M 2551.71,3930.51 L 2571.71,3942.06 L 2571.71,4530.51 L 2561.71,4536.29 L 2551.71,4517.22 L 2551.71,3930.51 Z " />
<path stroke="transparent" fill="#000000" transform="matrix(0.0833333 0 0 0.0833333 -116.208 -180)" d="M 2032.06,3756.12 L 2052.06,3756.12 L 2052.06,4170.44 L 2032.06,4297.67 L 2032.06,3756.12 Z " />
<path stroke="transparent" fill="#000000" transform="matrix(0.0833333 0 0 0.0833333 -116.208 -180)" d="M 1638.07,4522.65 L 1628.06,4505.33 L 2073.06,4248.41 L 2083.06,4265.73 L 1638.07,4522.65 Z " />
<path stroke="transparent" fill="#000000" transform="matrix(0.0833333 0 0 0.0833333 -116.208 -180)" d="M 1602.07,4460.3 L 1592.06,4442.98 L 2037.06,4186.06 L 2047.06,4203.38 L 1602.07,4460.3 Z " />
<path stroke="transparent" fill="#000000" transform="matrix(0.0833333 0 0 0.0833333 -116.208 -180)" d="M 2032.06,4297.67 L 2052.06,4170.44 L 2551.71,4517.22 L 2561.71,4536.29 L 2540.19,4537.16 L 2032.06,4297.67 Z " />
<path stroke="transparent" fill="#000000" transform="matrix(0.0833333 0 0 0.0833333 -116.208 -180)" d="M 2561.71,4547.83 L 2561.71,4536.29 L 2571.71,4530.51 L 3081.32,4824.78 L 3081.32,4847.87 L 2561.71,4547.83 Z " />
<path stroke="transparent" fill="#000000" transform="matrix(0.0833333 0 0 0.0833333 -116.208 -180)" d="M 2052.06,4842.1 L 2032.06,4830.55 L 2540.19,4537.16 L 2561.71,4536.29 L 2561.71,4547.83 L 2052.06,4842.1 Z " />
<path stroke="transparent" fill="#000000" transform="matrix(0.0833333 0 0 0.0833333 -116.208 -180)" d="M 2032.06,4830.55 L 2052.06,4842.1 L 2052.06,5430.55 L 2032.06,5442.1 L 2032.06,4830.55 Z " />
<path stroke="transparent" fill="#000000" transform="matrix(0.0833333 0 0 0.0833333 -116.208 -180)" d="M 2032.06,5442.1 L 2052.06,5430.55 L 2561.71,5724.78 L 2561.71,5736.33 L 2548.05,5739.99 L 2032.06,5442.1 Z " />
<path stroke="transparent" fill="#000000" transform="matrix(0.0833333 0 0 0.0833333 -116.208 -180)" d="M 2270.33,6260.94 L 2253.01,6250.94 L 2548.05,5739.99 L 2561.71,5736.33 L 2561.71,5756.33 L 2270.33,6260.94 Z " />
<path stroke="transparent" fill="#000000" transform="matrix(0.0833333 0 0 0.0833333 -116.208 -180)" d="M 2870.37,6250.94 L 2853.05,6260.94 L 2561.71,5756.33 L 2561.71,5736.33 L 2575.37,5739.99 L 2870.37,6250.94 Z " />
<path stroke="transparent" fill="#000000" transform="matrix(0.0833333 0 0 0.0833333 -116.208 -180)" d="M 2575.37,5739.99 L 2561.71,5736.33 L 2561.71,5724.78 L 3076.32,5427.67 L 3086.32,5444.99 L 2575.37,5739.99 Z " />
<path stroke="transparent" fill="#000000" transform="matrix(0.0833333 0 0 0.0833333 -116.208 -180)" d="M 3141.32,5382.33 L 3021.32,5382.33 L 3023.35,5362.33 L 3139.29,5362.33 L 3141.32,5382.33 Z " />
<path stroke="transparent" fill="#000000" transform="matrix(0.0833333 0 0 0.0833333 -116.208 -180)" d="M 3135.32,5323.33 L 3027.32,5323.33 L 3029.35,5303.33 L 3133.29,5303.33 L 3135.32,5323.33 Z " />
<path stroke="transparent" fill="#000000" transform="matrix(0.0833333 0 0 0.0833333 -116.208 -180)" d="M 3129.33,5264.33 L 3033.31,5264.33 L 3035.34,5244.33 L 3127.29,5244.33 L 3129.33,5264.33 Z " />
<path stroke="transparent" fill="#000000" transform="matrix(0.0833333 0 0 0.0833333 -116.208 -180)" d="M 3123.33,5205.33 L 3039.31,5205.33 L 3041.34,5185.33 L 3121.3,5185.33 L 3123.33,5205.33 Z " />
<path stroke="transparent" fill="#000000" transform="matrix(0.0833333 0 0 0.0833333 -116.208 -180)" d="M 3117.34,5146.33 L 3045.3,5146.33 L 3047.34,5126.33 L 3115.3,5126.33 L 3117.34,5146.33 Z " />
<path stroke="transparent" fill="#000000" transform="matrix(0.0833333 0 0 0.0833333 -116.208 -180)" d="M 3111.34,5087.33 L 3051.3,5087.33 L 3053.33,5067.33 L 3109.31,5067.33 L 3111.34,5087.33 Z " />
<path stroke="transparent" fill="#000000" transform="matrix(0.0833333 0 0 0.0833333 -116.208 -180)" d="M 3105.34,5028.33 L 3057.29,5028.33 L 3059.33,5008.33 L 3103.31,5008.33 L 3105.34,5028.33 Z " />
<path stroke="transparent" fill="#000000" transform="matrix(0.0833333 0 0 0.0833333 -116.208 -180)" d="M 3099.35,4969.33 L 3063.29,4969.33 L 3065.32,4949.33 L 3097.32,4949.33 L 3099.35,4969.33 Z " />
<path stroke="transparent" fill="#000000" transform="matrix(0.0833333 0 0 0.0833333 -116.208 -180)" d="M 3093.35,4910.33 L 3069.29,4910.33 L 3071.32,4890.33 L 3091.32,4890.33 L 3093.35,4910.33 Z " />
<path stroke="transparent" fill="#000000" transform="matrix(0.0833333 0 0 0.0833333 -116.208 -180)" d="M 3590.93,4530.51 L 3600.93,4536.29 L 3600.93,4547.83 L 3081.32,4847.87 L 3081.32,4824.78 L 3590.93,4530.51 Z " />
<path stroke="transparent" fill="#000000" transform="matrix(0.0833333 0 0 0.0833333 -116.208 -180)" d="M 3600.93,4547.83 L 3600.93,4536.29 L 3610.93,4530.51 L 4120.58,4824.78 L 4120.58,4847.87 L 3600.93,4547.83 Z " />
<path stroke="transparent" fill="#000000" transform="matrix(0.0833333 0 0 0.0833333 -116.208 -180)" d="M 3667.94,4503.37 L 3677.94,4486.05 L 4125.58,4744.52 L 4115.58,4761.84 L 3667.94,4503.37 Z " />
<path stroke="transparent" fill="#000000" transform="matrix(0.0833333 0 0 0.0833333 -116.208 -180)" d="M 4120.58,4847.87 L 4120.58,4824.78 L 4578.17,4560.55 L 4698.36,4514.25 L 4120.58,4847.87 Z " />
<path stroke="transparent" fill="#000000" transform="matrix(0.0833333 0 0 0.0833333 -116.208 -180)" d="M 4698.36,4514.25 L 4578.17,4560.55 L 4629.73,3941.79 L 4640.19,3936.29 L 4650.65,3941.79 L 4698.36,4514.25 Z " />
<path stroke="transparent" fill="#000000" transform="matrix(0.0833333 0 0 0.0833333 -116.208 -180)" d="M 4650.65,3941.79 L 4640.19,3936.29 L 4640.19,3924.74 L 5149.8,3630.51 L 5159.8,3636.29 L 5148.29,3654.48 L 4650.65,3941.79 Z " />
<path stroke="transparent" fill="#000000" transform="matrix(0.0833333 0 0 0.0833333 -116.208 -180)" d="M 4132.1,3654.48 L 4120.58,3636.29 L 4130.58,3630.51 L 4640.19,3924.74 L 4640.19,3936.29 L 4629.73,3941.79 L 4132.1,3654.48 Z " />
<path stroke="transparent" fill="#000000" transform="matrix(0.0833333 0 0 0.0833333 -116.208 -180)" d="M 4180.58,4236.29 L 4060.58,4236.29 L 4109.07,3654.48 L 4120.58,3636.29 L 4132.1,3654.48 L 4180.58,4236.29 Z " />
<path stroke="transparent" fill="#000000" transform="matrix(0.0833333 0 0 0.0833333 -116.208 -180)" d="M 4110.58,3030.51 L 4130.58,3042.06 L 4130.58,3630.51 L 4120.58,3636.29 L 4110.58,3630.51 L 4110.58,3030.51 Z " />
<path stroke="transparent" fill="#000000" transform="matrix(0.0833333 0 0 0.0833333 -116.208 -180)" d="M 4130.58,3042.06 L 4110.58,3030.51 L 4688.36,2696.93 L 4588.17,2777.87 L 4130.58,3042.06 Z " />
<path stroke="transparent" fill="#000000" transform="matrix(0.0833333 0 0 0.0833333 -116.208 -180)" d="M 4588.17,2777.87 L 4688.36,2696.93 L 5160.26,3024.47 L 5159.8,3036.29 L 5149.8,3042.59 L 4588.17,2777.87 Z " />
<path stroke="transparent" fill="#000000" transform="matrix(0.0833333 0 0 0.0833333 -116.208 -180)" d="M 5169.8,3630.51 L 5159.8,3636.29 L 5149.8,3630.51 L 5149.8,3042.59 L 5159.8,3036.29 L 5169.8,3042.06 L 5169.8,3630.51 Z " />
<path stroke="transparent" fill="#000000" transform="matrix(0.0833333 0 0 0.0833333 -116.208 -180)" d="M 5219.8,4236.29 L 5099.8,4236.29 L 5148.29,3654.48 L 5159.8,3636.29 L 5171.32,3654.48 L 5219.8,4236.29 Z " />
<path stroke="transparent" fill="#000000" transform="matrix(0.0833333 0 0 0.0833333 -116.208 -180)" d="M 5679.45,3924.74 L 5679.45,3947.83 L 5171.32,3654.48 L 5159.8,3636.29 L 5169.8,3630.51 L 5679.45,3924.74 Z " />
<path stroke="transparent" fill="#000000" transform="matrix(0.0833333 0 0 0.0833333 -116.208 -180)" d="M 5679.45,3947.83 L 5679.45,3924.74 L 6189.07,3630.51 L 6209.07,3642.06 L 5679.45,3947.83 Z " />
<path stroke="transparent" fill="#000000" transform="matrix(0.0833333 0 0 0.0833333 -116.208 -180)" d="M 6209.07,3642.06 L 6189.07,3630.51 L 6189.07,3042.06 L 6199.07,3036.29 L 6209.07,3042.71 L 6209.07,3642.06 Z " />
<path stroke="transparent" fill="#000000" transform="matrix(0.0833333 0 0 0.0833333 -116.208 -180)" d="M 6589.07,2741.83 L 6649.07,2845.75 L 6209.07,3042.71 L 6199.07,3036.29 L 6198.5,3024.41 L 6589.07,2741.83 Z " />
<path stroke="transparent" fill="#000000" transform="matrix(0.0833333 0 0 0.0833333 -116.208 -180)" d="M 6788.71,2846 L 6848.71,2742.08 L 6864.87,2754.09 L 6807.19,2853.99 L 6788.71,2846 Z " />
<path stroke="transparent" fill="#000000" transform="matrix(0.0833333 0 0 0.0833333 -116.208 -180)" d="M 6842.9,2869.42 L 6896.08,2777.3 L 6912.24,2789.31 L 6861.38,2877.41 L 6842.9,2869.42 Z " />
<path stroke="transparent" fill="#000000" transform="matrix(0.0833333 0 0 0.0833333 -116.208 -180)" d="M 6897.08,2892.84 L 6943.46,2812.51 L 6959.62,2824.52 L 6915.56,2900.83 L 6897.08,2892.84 Z " />
<path stroke="transparent" fill="#000000" transform="matrix(0.0833333 0 0 0.0833333 -116.208 -180)" d="M 6951.26,2916.26 L 6990.83,2847.73 L 7006.99,2859.74 L 6969.74,2924.25 L 6951.26,2916.26 Z " />
<path stroke="transparent" fill="#000000" transform="matrix(0.0833333 0 0 0.0833333 -116.208 -180)" d="M 7005.44,2939.68 L 7038.2,2882.94 L 7054.36,2894.95 L 7023.93,2947.66 L 7005.44,2939.68 Z " />
<path stroke="transparent" fill="#000000" transform="matrix(0.0833333 0 0 0.0833333 -116.208 -180)" d="M 7059.63,2963.09 L 7085.57,2918.16 L 7101.73,2930.17 L 7078.11,2971.08 L 7059.63,2963.09 Z " />
<path stroke="transparent" fill="#000000" transform="matrix(0.0833333 0 0 0.0833333 -116.208 -180)" d="M 7113.81,2986.51 L 7132.94,2953.37 L 7149.1,2965.38 L 7132.29,2994.5 L 7113.81,2986.51 Z " />
<path stroke="transparent" fill="#000000" transform="matrix(0.0833333 0 0 0.0833333 -116.208 -180)" d="M 7167.99,3009.93 L 7180.32,2988.59 L 7196.48,3000.6 L 7186.48,3017.92 L 7167.99,3009.93 Z " />
<path stroke="transparent" fill="#000000" transform="matrix(0.0833333 0 0 0.0833333 -116.208 -180)" d="M 7248.29,3630.51 L 7238.29,3636.29 L 7228.29,3629.87 L 7228.29,3030.51 L 7248.29,3042.06 L 7248.29,3630.51 Z " />
<path stroke="transparent" fill="#000000" transform="matrix(0.0833333 0 0 0.0833333 -116.208 -180)" d="M 6841.29,3934.77 L 6781.29,3830.85 L 7228.29,3629.87 L 7238.29,3636.29 L 7238.84,3648.15 L 6841.29,3934.77 Z " />
<path stroke="transparent" fill="#000000" transform="matrix(0.0833333 0 0 0.0833333 -116.208 -180)" d="M 6658.68,4056.12 L 6778.68,4056.12 L 6776.33,4076.12 L 6661.02,4076.12 L 6658.68,4056.12 Z " />
<path stroke="transparent" fill="#000000" transform="matrix(0.0833333 0 0 0.0833333 -116.208 -180)" d="M 6665.48,4114.14 L 6771.87,4114.14 L 6769.52,4134.14 L 6667.83,4134.14 L 6665.48,4114.14 Z " />
<path stroke="transparent" fill="#000000" transform="matrix(0.0833333 0 0 0.0833333 -116.208 -180)" d="M 6672.29,4172.16 L 6765.06,4172.16 L 6762.71,4192.16 L 6674.64,4192.16 L 6672.29,4172.16 Z " />
<path stroke="transparent" fill="#000000" transform="matrix(0.0833333 0 0 0.0833333 -116.208 -180)" d="M 6679.1,4230.18 L 6758.25,4230.18 L 6755.91,4250.18 L 6681.45,4250.18 L 6679.1,4230.18 Z " />
<path stroke="transparent" fill="#000000" transform="matrix(0.0833333 0 0 0.0833333 -116.208 -180)" d="M 6685.91,4288.2 L 6751.45,4288.2 L 6749.1,4308.2 L 6688.25,4308.2 L 6685.91,4288.2 Z " />
<path stroke="transparent" fill="#000000" transform="matrix(0.0833333 0 0 0.0833333 -116.208 -180)" d="M 6692.71,4346.22 L 6744.64,4346.22 L 6742.29,4366.22 L 6695.06,4366.22 L 6692.71,4346.22 Z " />
<path stroke="transparent" fill="#000000" transform="matrix(0.0833333 0 0 0.0833333 -116.208 -180)" d="M 6699.52,4404.25 L 6737.83,4404.25 L 6735.48,4424.25 L 6701.87,4424.25 L 6699.52,4404.25 Z " />
<path stroke="transparent" fill="#000000" transform="matrix(0.0833333 0 0 0.0833333 -116.208 -180)" d="M 6706.33,4462.27 L 6731.02,4462.27 L 6728.68,4482.27 L 6708.68,4482.27 L 6706.33,4462.27 Z " />
<path stroke="transparent" fill="#000000" transform="matrix(0.0833333 0 0 0.0833333 -116.208 -180)" d="M 7150.67,4774.19 L 7140.67,4791.51 L 6718.68,4547.83 L 6718.68,4524.74 L 7150.67,4774.19 Z " />
<path stroke="transparent" fill="#000000" transform="matrix(0.0833333 0 0 0.0833333 -116.208 -180)" d="M 7228.29,4956.16 L 7248.29,4956.16 L 7248.29,5430.02 L 7238.29,5436.33 L 7228.29,5430.55 L 7228.29,4956.16 Z " />
<path stroke="transparent" fill="#000000" transform="matrix(0.0833333 0 0 0.0833333 -116.208 -180)" d="M 7787.9,5684.37 L 7727.9,5788.29 L 7237.83,5448.14 L 7238.29,5436.33 L 7248.29,5430.02 L 7787.9,5684.37 Z " />
<text x="0" y="0" stroke="transparent" fill="#000000" transform="matrix(0.0833333 0 0 0.0833333 437.181 354.527)" style="font:normal normal normal 200px 'Arial'" >
OH</text>
<text x="0" y="0" stroke="transparent" fill="#000000" transform="matrix(0.0833333 0 0 0.0833333 338.543 304.527)" style="font:normal normal normal 200px 'Arial'" >
HO</text>
<text x="0" y="0" stroke="transparent" fill="#000000" transform="matrix(0.0833333 0 0 0.0833333 338.543 204.524)" style="font:normal normal normal 200px 'Arial'" >
HO</text>
<text x="0" y="0" stroke="transparent" fill="#000000" transform="matrix(0.0833333 0 0 0.0833333 523.783 204.524)" style="font:normal normal normal 200px 'Arial'" >
OH</text>
<text x="0" y="0" stroke="transparent" fill="#000000" transform="matrix(0.0833333 0 0 0.0833333 610.385 154.524)" style="font:normal normal normal 200px 'Arial'" >
OH</text>
<text x="0" y="0" stroke="transparent" fill="#000000" transform="matrix(0.0833333 0 0 0.0833333 523.783 54.5238)" style="font:normal normal normal 200px 'Arial'" >
O</text>
<text x="0" y="0" stroke="transparent" fill="#000000" transform="matrix(0.0833333 0 0 0.0833333 47.4631 129.524)" style="font:normal normal normal 200px 'Arial'" >
OH</text>
<text x="0" y="0" stroke="transparent" fill="#000000" transform="matrix(0.0833333 0 0 0.0833333 4.16222 204.524)" style="font:normal normal normal 200px 'Arial'" >
O</text>
<text x="0" y="0" stroke="transparent" fill="#000000" transform="matrix(0.0833333 0 0 0.0833333 437.181 54.5238)" style="font:normal normal normal 200px 'Arial'" >
O</text>
<text x="0" y="0" stroke="transparent" fill="#000000" transform="matrix(0.0833333 0 0 0.0833333 437.181 154.524)" style="font:normal normal normal 200px 'Arial'" >
O</text>
<text x="0" y="0" stroke="transparent" fill="#000000" transform="matrix(0.0833333 0 0 0.0833333 480.482 229.527)" style="font:normal normal normal 200px 'Arial'" >
O</text>
</svg>
