<?xml version="1.0" standalone="no" ?>
<!DOCTYPE svg PUBLIC "-//W3C//DTD SVG 1.1//EN" "http://www.w3.org/Graphics/SVG/1.1/DTD/svg11.dtd">
<svg width="406px" height="345px" viewBox="0 0 406 345" style="background-color: #ffffff00" xmlns="http://www.w3.org/2000/svg" xmlns:xlink="http://www.w3.org/1999/xlink" version="1.1" >
<path stroke="transparent" fill="#000000" transform="matrix(0.0833333 0 0 0.0833333 -233.208 -187)" d="M 6560.09,3122.63 L 6550.09,3105.31 L 7061.04,2810.31 L 7074.7,2813.97 L 7074.7,2825.51 L 6560.09,3122.63 Z " />
<path stroke="transparent" fill="#000000" transform="matrix(0.0833333 0 0 0.0833333 -233.208 -187)" d="M 6495.09,3167.97 L 6615.09,3167.97 L 6613.06,3187.97 L 6497.12,3187.97 L 6495.09,3167.97 Z " />
<path stroke="transparent" fill="#000000" transform="matrix(0.0833333 0 0 0.0833333 -233.208 -187)" d="M 6501.08,3226.98 L 6609.09,3226.98 L 6607.06,3246.98 L 6503.12,3246.98 L 6501.08,3226.98 Z " />
<path stroke="transparent" fill="#000000" transform="matrix(0.0833333 0 0 0.0833333 -233.208 -187)" d="M 6507.08,3285.98 L 6603.1,3285.98 L 6601.06,3305.98 L 6509.11,3305.98 L 6507.08,3285.98 Z " />
<path stroke="transparent" fill="#000000" transform="matrix(0.0833333 0 0 0.0833333 -233.208 -187)" d="M 6513.08,3344.98 L 6597.1,3344.98 L 6595.07,3364.98 L 6515.11,3364.98 L 6513.08,3344.98 Z " />
<path stroke="transparent" fill="#000000" transform="matrix(0.0833333 0 0 0.0833333 -233.208 -187)" d="M 6519.07,3403.98 L 6591.1,3403.98 L 6589.07,3423.98 L 6521.1,3423.98 L 6519.07,3403.98 Z " />
<path stroke="transparent" fill="#000000" transform="matrix(0.0833333 0 0 0.0833333 -233.208 -187)" d="M 6525.07,3462.98 L 6585.11,3462.98 L 6583.08,3482.98 L 6527.1,3482.98 L 6525.07,3462.98 Z " />
<path stroke="transparent" fill="#000000" transform="matrix(0.0833333 0 0 0.0833333 -233.208 -187)" d="M 6531.06,3521.98 L 6579.11,3521.98 L 6577.08,3541.98 L 6533.1,3541.98 L 6531.06,3521.98 Z " />
<path stroke="transparent" fill="#000000" transform="matrix(0.0833333 0 0 0.0833333 -233.208 -187)" d="M 6537.06,3580.98 L 6573.12,3580.98 L 6571.08,3600.98 L 6539.09,3600.98 L 6537.06,3580.98 Z " />
<path stroke="transparent" fill="#000000" transform="matrix(0.0833333 0 0 0.0833333 -233.208 -187)" d="M 6543.06,3639.99 L 6567.12,3639.99 L 6565.09,3659.99 L 6545.09,3659.99 L 6543.06,3639.99 Z " />
<path stroke="transparent" fill="#000000" transform="matrix(0.0833333 0 0 0.0833333 -233.208 -187)" d="M 6555.09,3725.53 L 6555.09,3702.44 L 7074.7,4002.45 L 7074.7,4013.99 L 7064.7,4019.77 L 6555.09,3725.53 Z " />
<path stroke="transparent" fill="#000000" transform="matrix(0.0833333 0 0 0.0833333 -233.208 -187)" d="M 6045.44,4019.77 L 6035.44,4013.99 L 6035.44,4002.45 L 6555.09,3702.44 L 6555.09,3725.53 L 6045.44,4019.77 Z " />
<path stroke="transparent" fill="#000000" transform="matrix(0.0833333 0 0 0.0833333 -233.208 -187)" d="M 5975.44,3413.98 L 6095.44,3413.98 L 6093.61,3433.98 L 5977.27,3433.98 L 5975.44,3413.98 Z " />
<path stroke="transparent" fill="#000000" transform="matrix(0.0833333 0 0 0.0833333 -233.208 -187)" d="M 5980.79,3472.43 L 6090.08,3472.43 L 6088.25,3492.43 L 5982.62,3492.43 L 5980.79,3472.43 Z " />
<path stroke="transparent" fill="#000000" transform="matrix(0.0833333 0 0 0.0833333 -233.208 -187)" d="M 5986.14,3530.87 L 6084.73,3530.87 L 6082.9,3550.87 L 5987.97,3550.87 L 5986.14,3530.87 Z " />
<path stroke="transparent" fill="#000000" transform="matrix(0.0833333 0 0 0.0833333 -233.208 -187)" d="M 5991.49,3589.32 L 6079.38,3589.32 L 6077.55,3609.32 L 5993.32,3609.32 L 5991.49,3589.32 Z " />
<path stroke="transparent" fill="#000000" transform="matrix(0.0833333 0 0 0.0833333 -233.208 -187)" d="M 5996.84,3647.76 L 6074.03,3647.76 L 6072.2,3667.76 L 5998.68,3667.76 L 5996.84,3647.76 Z " />
<path stroke="transparent" fill="#000000" transform="matrix(0.0833333 0 0 0.0833333 -233.208 -187)" d="M 6002.2,3706.21 L 6068.68,3706.21 L 6066.84,3726.21 L 6004.03,3726.21 L 6002.2,3706.21 Z " />
<path stroke="transparent" fill="#000000" transform="matrix(0.0833333 0 0 0.0833333 -233.208 -187)" d="M 6007.55,3764.66 L 6063.32,3764.66 L 6061.49,3784.66 L 6009.38,3784.66 L 6007.55,3764.66 Z " />
<path stroke="transparent" fill="#000000" transform="matrix(0.0833333 0 0 0.0833333 -233.208 -187)" d="M 6012.9,3823.1 L 6057.97,3823.1 L 6056.14,3843.1 L 6014.73,3843.1 L 6012.9,3823.1 Z " />
<path stroke="transparent" fill="#000000" transform="matrix(0.0833333 0 0 0.0833333 -233.208 -187)" d="M 6018.25,3881.55 L 6052.62,3881.55 L 6050.79,3901.55 L 6020.08,3901.55 L 6018.25,3881.55 Z " />
<path stroke="transparent" fill="#000000" transform="matrix(0.0833333 0 0 0.0833333 -233.208 -187)" d="M 6023.61,3939.99 L 6047.27,3939.99 L 6045.44,3959.99 L 6025.44,3959.99 L 6023.61,3939.99 Z " />
<path stroke="transparent" fill="#000000" transform="matrix(0.0833333 0 0 0.0833333 -233.208 -187)" d="M 6025.44,4019.77 L 6035.44,4013.99 L 6045.44,4019.77 L 6045.44,4608.23 L 6035.44,4614.01 L 6025.44,4608.23 L 6025.44,4019.77 Z " />
<path stroke="transparent" fill="#000000" transform="matrix(0.0833333 0 0 0.0833333 -233.208 -187)" d="M 5515.83,3725.53 L 5515.83,3702.44 L 6035.44,4002.45 L 6035.44,4013.99 L 6025.44,4019.77 L 5515.83,3725.53 Z " />
<path stroke="transparent" fill="#000000" transform="matrix(0.0833333 0 0 0.0833333 -233.208 -187)" d="M 5515.83,3702.44 L 5515.83,3725.53 L 5006.17,4019.77 L 4986.17,4008.22 L 5515.83,3702.44 Z " />
<path stroke="transparent" fill="#000000" transform="matrix(0.0833333 0 0 0.0833333 -233.208 -187)" d="M 4986.17,4008.22 L 5006.17,4019.77 L 5006.17,4608.23 L 4996.17,4614.01 L 4986.17,4594.93 L 4986.17,4008.22 Z " />
<path stroke="transparent" fill="#000000" transform="matrix(0.0833333 0 0 0.0833333 -233.208 -187)" d="M 4446.56,4365.96 L 4506.56,4262.04 L 4986.17,4594.93 L 4996.17,4614.01 L 4974.66,4614.88 L 4446.56,4365.96 Z " />
<path stroke="transparent" fill="#000000" transform="matrix(0.0833333 0 0 0.0833333 -233.208 -187)" d="M 4996.17,4625.55 L 4996.17,4614.01 L 5006.17,4608.23 L 5515.83,4902.47 L 5515.83,4914.01 L 5505.37,4919.52 L 4996.17,4625.55 Z " />
<path stroke="transparent" fill="#000000" transform="matrix(0.0833333 0 0 0.0833333 -233.208 -187)" d="M 4486.56,4919.79 L 4476.56,4914.01 L 4477.02,4902.2 L 4974.66,4614.88 L 4996.17,4614.01 L 4996.17,4625.55 L 4486.56,4919.79 Z " />
<path stroke="transparent" fill="#000000" transform="matrix(0.0833333 0 0 0.0833333 -233.208 -187)" d="M 3665.61,6338.64 L 3648.28,6328.64 L 3943.29,5817.69 L 3956.95,5814.03 L 3956.95,5834.03 L 3665.61,6338.64 Z " />
<path stroke="transparent" fill="#000000" transform="matrix(0.0833333 0 0 0.0833333 -233.208 -187)" d="M 4265.62,6328.64 L 4248.3,6338.64 L 3956.95,5834.03 L 3956.95,5814.03 L 3970.61,5817.69 L 4265.62,6328.64 Z " />
<path stroke="transparent" fill="#000000" transform="matrix(0.0833333 0 0 0.0833333 -233.208 -187)" d="M 3970.61,5817.69 L 3956.95,5814.03 L 3956.95,5802.49 L 4466.56,5508.25 L 4476.56,5514.03 L 4476.56,5525.57 L 3970.61,5817.69 Z " />
<path stroke="transparent" fill="#000000" transform="matrix(0.0833333 0 0 0.0833333 -233.208 -187)" d="M 3956.95,5802.49 L 3956.95,5814.03 L 3943.29,5817.69 L 3427.3,5519.8 L 3447.3,5508.25 L 3956.95,5802.49 Z " />
<path stroke="transparent" fill="#000000" transform="matrix(0.0833333 0 0 0.0833333 -233.208 -187)" d="M 3033.31,5800.39 L 3023.31,5783.07 L 3468.3,5526.15 L 3478.3,5543.47 L 3033.31,5800.39 Z " />
<path stroke="transparent" fill="#000000" transform="matrix(0.0833333 0 0 0.0833333 -233.208 -187)" d="M 2997.31,5738.04 L 2987.31,5720.72 L 3432.3,5463.8 L 3442.3,5481.12 L 2997.31,5738.04 Z " />
<path stroke="transparent" fill="#000000" transform="matrix(0.0833333 0 0 0.0833333 -233.208 -187)" d="M 3447.3,5508.25 L 3427.3,5519.8 L 3427.3,4908.24 L 3447.3,4919.79 L 3447.3,5508.25 Z " />
<path stroke="transparent" fill="#000000" transform="matrix(0.0833333 0 0 0.0833333 -233.208 -187)" d="M 3447.3,4919.79 L 3427.3,4908.24 L 4005.12,4574.65 L 3904.93,4655.59 L 3447.3,4919.79 Z " />
<path stroke="transparent" fill="#000000" transform="matrix(0.0833333 0 0 0.0833333 -233.208 -187)" d="M 3904.93,4655.59 L 4005.12,4574.65 L 4477.02,4902.2 L 4476.56,4914.01 L 4466.56,4920.32 L 3904.93,4655.59 Z " />
<path stroke="transparent" fill="#000000" transform="matrix(0.0833333 0 0 0.0833333 -233.208 -187)" d="M 4486.56,5508.25 L 4476.56,5514.03 L 4466.56,5508.25 L 4466.56,4920.32 L 4476.56,4914.01 L 4486.56,4919.79 L 4486.56,5508.25 Z " />
<path stroke="transparent" fill="#000000" transform="matrix(0.0833333 0 0 0.0833333 -233.208 -187)" d="M 4476.56,5525.57 L 4476.56,5514.03 L 4486.56,5508.25 L 4996.17,5802.49 L 4996.17,5825.58 L 4476.56,5525.57 Z " />
<path stroke="transparent" fill="#000000" transform="matrix(0.0833333 0 0 0.0833333 -233.208 -187)" d="M 4543.56,5481.12 L 4553.56,5463.8 L 5001.18,5722.23 L 4991.18,5739.55 L 4543.56,5481.12 Z " />
<path stroke="transparent" fill="#000000" transform="matrix(0.0833333 0 0 0.0833333 -233.208 -187)" d="M 4996.17,5825.58 L 4996.17,5802.49 L 5453.8,5538.29 L 5573.99,5491.99 L 4996.17,5825.58 Z " />
<path stroke="transparent" fill="#000000" transform="matrix(0.0833333 0 0 0.0833333 -233.208 -187)" d="M 5573.99,5491.99 L 5453.8,5538.29 L 5505.37,4919.52 L 5515.83,4914.01 L 5526.28,4919.52 L 5573.99,5491.99 Z " />
<path stroke="transparent" fill="#000000" transform="matrix(0.0833333 0 0 0.0833333 -233.208 -187)" d="M 6025.44,4608.23 L 6035.44,4614.01 L 6023.92,4632.2 L 5526.28,4919.52 L 5515.83,4914.01 L 5515.83,4902.47 L 6025.44,4608.23 Z " />
<path stroke="transparent" fill="#000000" transform="matrix(0.0833333 0 0 0.0833333 -233.208 -187)" d="M 6095.44,5214.02 L 5975.44,5214.02 L 6023.92,4632.2 L 6035.44,4614.01 L 6046.95,4632.2 L 6095.44,5214.02 Z " />
<path stroke="transparent" fill="#000000" transform="matrix(0.0833333 0 0 0.0833333 -233.208 -187)" d="M 6555.09,4902.47 L 6555.09,4925.56 L 6046.95,4632.2 L 6035.44,4614.01 L 6045.44,4608.23 L 6555.09,4902.47 Z " />
<path stroke="transparent" fill="#000000" transform="matrix(0.0833333 0 0 0.0833333 -233.208 -187)" d="M 6555.09,4925.56 L 6555.09,4902.47 L 7064.7,4608.23 L 7084.7,4619.78 L 6555.09,4925.56 Z " />
<path stroke="transparent" fill="#000000" transform="matrix(0.0833333 0 0 0.0833333 -233.208 -187)" d="M 7084.7,4619.78 L 7064.7,4608.23 L 7064.7,4019.77 L 7074.7,4013.99 L 7084.7,4033.07 L 7084.7,4619.78 Z " />
<path stroke="transparent" fill="#000000" transform="matrix(0.0833333 0 0 0.0833333 -233.208 -187)" d="M 7624.31,4262.04 L 7564.31,4365.96 L 7084.7,4033.07 L 7074.7,4013.99 L 7096.21,4013.12 L 7624.31,4262.04 Z " />
<path stroke="transparent" fill="#000000" transform="matrix(0.0833333 0 0 0.0833333 -233.208 -187)" d="M 7584.31,3708.21 L 7604.31,3719.76 L 7096.21,4013.12 L 7074.7,4013.99 L 7074.7,4002.45 L 7584.31,3708.21 Z " />
<path stroke="transparent" fill="#000000" transform="matrix(0.0833333 0 0 0.0833333 -233.208 -187)" d="M 7604.31,3719.76 L 7584.31,3708.21 L 7584.31,3119.75 L 7604.31,3108.2 L 7604.31,3719.76 Z " />
<path stroke="transparent" fill="#000000" transform="matrix(0.0833333 0 0 0.0833333 -233.208 -187)" d="M 7604.31,3108.2 L 7584.31,3119.75 L 7074.7,2825.51 L 7074.7,2813.97 L 7088.36,2810.31 L 7604.31,3108.2 Z " />
<path stroke="transparent" fill="#000000" transform="matrix(0.0833333 0 0 0.0833333 -233.208 -187)" d="M 7366.05,2289.36 L 7383.37,2299.36 L 7088.36,2810.31 L 7074.7,2813.97 L 7074.7,2793.97 L 7366.05,2289.36 Z " />
<path stroke="transparent" fill="#000000" transform="matrix(0.0833333 0 0 0.0833333 -233.208 -187)" d="M 7074.7,2793.97 L 7074.7,2813.97 L 7061.04,2810.31 L 6766.03,2299.36 L 6783.35,2289.36 L 7074.7,2793.97 Z " />
<text x="0" y="0" stroke="transparent" fill="#000000" transform="matrix(0.0833333 0 0 0.0833333 3.43243 304.003)" style="font:normal normal normal 200px 'Arial'" >
O</text>
</svg>
