<?xml version="1.0" standalone="no" ?>
<!DOCTYPE svg PUBLIC "-//W3C//DTD SVG 1.1//EN" "http://www.w3.org/Graphics/SVG/1.1/DTD/svg11.dtd">
<svg width="418px" height="389px" viewBox="0 0 418 389" style="background-color: #ffffff00" xmlns="http://www.w3.org/2000/svg" xmlns:xlink="http://www.w3.org/1999/xlink" version="1.1" >
<path stroke="transparent" fill="#000000" transform="matrix(0.0833333 0 0 0.0833333 -227.25 -184)" d="M 6617.27,3757.79 L 6637.27,3746.24 L 7146.89,4040.47 L 7146.89,4052.02 L 7136.89,4057.79 L 6617.27,3757.79 Z " />
<path stroke="transparent" fill="#000000" transform="matrix(0.0833333 0 0 0.0833333 -227.25 -184)" d="M 6637.27,3746.24 L 6617.27,3757.79 L 6617.27,3158.3 L 6627.27,3152 L 6637.27,3157.77 L 6637.27,3746.24 Z " />
<path stroke="transparent" fill="#000000" transform="matrix(0.0833333 0 0 0.0833333 -227.25 -184)" d="M 6184.37,4076.93 L 6124.38,3973 L 6142.72,3964.76 L 6200.67,4065.17 L 6184.37,4076.93 Z " />
<path stroke="transparent" fill="#000000" transform="matrix(0.0833333 0 0 0.0833333 -227.25 -184)" d="M 6232.47,4042.24 L 6178.48,3948.7 L 6196.82,3940.46 L 6248.78,4030.48 L 6232.47,4042.24 Z " />
<path stroke="transparent" fill="#000000" transform="matrix(0.0833333 0 0 0.0833333 -227.25 -184)" d="M 6280.57,4007.55 L 6232.58,3924.4 L 6250.91,3916.16 L 6296.88,3995.8 L 6280.57,4007.55 Z " />
<path stroke="transparent" fill="#000000" transform="matrix(0.0833333 0 0 0.0833333 -227.25 -184)" d="M 6328.68,3972.87 L 6286.68,3900.09 L 6305.01,3891.86 L 6344.98,3961.11 L 6328.68,3972.87 Z " />
<path stroke="transparent" fill="#000000" transform="matrix(0.0833333 0 0 0.0833333 -227.25 -184)" d="M 6376.78,3938.18 L 6340.77,3875.79 L 6359.11,3867.55 L 6393.09,3926.42 L 6376.78,3938.18 Z " />
<path stroke="transparent" fill="#000000" transform="matrix(0.0833333 0 0 0.0833333 -227.25 -184)" d="M 6424.89,3903.49 L 6394.87,3851.49 L 6413.21,3843.25 L 6441.19,3891.73 L 6424.89,3903.49 Z " />
<path stroke="transparent" fill="#000000" transform="matrix(0.0833333 0 0 0.0833333 -227.25 -184)" d="M 6472.99,3868.8 L 6448.97,3827.19 L 6467.31,3818.95 L 6489.3,3857.05 L 6472.99,3868.8 Z " />
<path stroke="transparent" fill="#000000" transform="matrix(0.0833333 0 0 0.0833333 -227.25 -184)" d="M 6521.09,3834.12 L 6503.07,3802.89 L 6521.41,3794.65 L 6537.4,3822.36 L 6521.09,3834.12 Z " />
<path stroke="transparent" fill="#000000" transform="matrix(0.0833333 0 0 0.0833333 -227.25 -184)" d="M 6569.2,3799.43 L 6557.17,3778.59 L 6575.51,3770.35 L 6585.5,3787.67 L 6569.2,3799.43 Z " />
<path stroke="transparent" fill="#000000" transform="matrix(0.0833333 0 0 0.0833333 -227.25 -184)" d="M 5527.99,4351.98 L 5647.99,4351.98 L 5599.51,4933.79 L 5587.99,4951.98 L 5576.48,4933.78 L 5527.99,4351.98 Z " />
<path stroke="transparent" fill="#000000" transform="matrix(0.0833333 0 0 0.0833333 -227.25 -184)" d="M 5597.99,4957.75 L 5587.99,4951.98 L 5599.51,4933.79 L 6097.6,4646.26 L 6107.6,4652.03 L 6107.6,4663.58 L 5597.99,4957.75 Z " />
<path stroke="transparent" fill="#000000" transform="matrix(0.0833333 0 0 0.0833333 -227.25 -184)" d="M 5576.48,4933.78 L 5587.99,4951.98 L 5577.99,4957.75 L 5068.38,4663.52 L 5068.38,4651.97 L 5078.84,4646.46 L 5576.48,4933.78 Z " />
<path stroke="transparent" fill="#000000" transform="matrix(0.0833333 0 0 0.0833333 -227.25 -184)" d="M 5597.99,5557.77 L 5577.99,5546.22 L 5577.99,4957.75 L 5587.99,4951.98 L 5597.99,4957.75 L 5597.99,5557.77 Z " />
<path stroke="transparent" fill="#000000" transform="matrix(0.0833333 0 0 0.0833333 -227.25 -184)" d="M 5577.99,5546.22 L 5597.99,5557.77 L 5020.22,5891.35 L 5120.4,5810.42 L 5577.99,5546.22 Z " />
<path stroke="transparent" fill="#000000" transform="matrix(0.0833333 0 0 0.0833333 -227.25 -184)" d="M 5120.4,5810.42 L 5020.22,5891.35 L 4548.31,5563.86 L 4548.77,5552.05 L 4558.77,5545.75 L 5120.4,5810.42 Z " />
<path stroke="transparent" fill="#000000" transform="matrix(0.0833333 0 0 0.0833333 -227.25 -184)" d="M 4558.77,5545.75 L 4548.77,5552.05 L 4538.77,5546.28 L 4538.77,4957.75 L 4548.77,4951.98 L 4558.77,4957.75 L 4558.77,5545.75 Z " />
<path stroke="transparent" fill="#000000" transform="matrix(0.0833333 0 0 0.0833333 -227.25 -184)" d="M 4039.16,5857.77 L 4029.16,5852 L 4029.16,5840.45 L 4538.77,5546.28 L 4548.77,5552.05 L 4548.31,5563.86 L 4039.16,5857.77 Z " />
<path stroke="transparent" fill="#000000" transform="matrix(0.0833333 0 0 0.0833333 -227.25 -184)" d="M 4461.15,6689.88 L 4451.15,6707.2 L 4019.16,6457.79 L 4039.16,6446.24 L 4461.15,6689.88 Z " />
<path stroke="transparent" fill="#000000" transform="matrix(0.0833333 0 0 0.0833333 -227.25 -184)" d="M 3625.17,6738.38 L 3615.16,6721.06 L 4060.16,6464.14 L 4070.16,6481.46 L 3625.17,6738.38 Z " />
<path stroke="transparent" fill="#000000" transform="matrix(0.0833333 0 0 0.0833333 -227.25 -184)" d="M 3589.16,6676.03 L 3579.16,6658.71 L 4024.16,6401.78 L 4034.16,6419.1 L 3589.16,6676.03 Z " />
<path stroke="transparent" fill="#000000" transform="matrix(0.0833333 0 0 0.0833333 -227.25 -184)" d="M 4039.16,6446.24 L 4019.16,6457.79 L 4019.16,5857.77 L 4029.16,5852 L 4039.16,5857.77 L 4039.16,6446.24 Z " />
<path stroke="transparent" fill="#000000" transform="matrix(0.0833333 0 0 0.0833333 -227.25 -184)" d="M 4578.77,6100.11 L 4518.76,6204.02 L 4502.36,6192.44 L 4560.54,6091.69 L 4578.77,6100.11 Z " />
<path stroke="transparent" fill="#000000" transform="matrix(0.0833333 0 0 0.0833333 -227.25 -184)" d="M 4525.48,6075.51 L 4470.83,6170.16 L 4454.42,6158.57 L 4507.25,6067.1 L 4525.48,6075.51 Z " />
<path stroke="transparent" fill="#000000" transform="matrix(0.0833333 0 0 0.0833333 -227.25 -184)" d="M 4472.19,6050.92 L 4422.89,6136.3 L 4406.49,6124.71 L 4453.96,6042.5 L 4472.19,6050.92 Z " />
<path stroke="transparent" fill="#000000" transform="matrix(0.0833333 0 0 0.0833333 -227.25 -184)" d="M 4418.9,6026.33 L 4374.95,6102.43 L 4358.55,6090.85 L 4400.67,6017.91 L 4418.9,6026.33 Z " />
<path stroke="transparent" fill="#000000" transform="matrix(0.0833333 0 0 0.0833333 -227.25 -184)" d="M 4365.61,6001.73 L 4327.01,6068.57 L 4310.61,6056.98 L 4347.38,5993.32 L 4365.61,6001.73 Z " />
<path stroke="transparent" fill="#000000" transform="matrix(0.0833333 0 0 0.0833333 -227.25 -184)" d="M 4312.32,5977.14 L 4279.08,6034.71 L 4262.67,6023.12 L 4294.09,5968.72 L 4312.32,5977.14 Z " />
<path stroke="transparent" fill="#000000" transform="matrix(0.0833333 0 0 0.0833333 -227.25 -184)" d="M 4259.03,5952.54 L 4231.14,6000.84 L 4214.74,5989.26 L 4240.8,5944.13 L 4259.03,5952.54 Z " />
<path stroke="transparent" fill="#000000" transform="matrix(0.0833333 0 0 0.0833333 -227.25 -184)" d="M 4205.74,5927.95 L 4183.2,5966.98 L 4166.8,5955.39 L 4187.51,5919.53 L 4205.74,5927.95 Z " />
<path stroke="transparent" fill="#000000" transform="matrix(0.0833333 0 0 0.0833333 -227.25 -184)" d="M 4152.45,5903.36 L 4135.26,5933.12 L 4118.86,5921.53 L 4134.21,5894.94 L 4152.45,5903.36 Z " />
<path stroke="transparent" fill="#000000" transform="matrix(0.0833333 0 0 0.0833333 -227.25 -184)" d="M 4099.16,5878.76 L 4087.33,5899.25 L 4070.92,5887.66 L 4080.92,5870.35 L 4099.16,5878.76 Z " />
<path stroke="transparent" fill="#000000" transform="matrix(0.0833333 0 0 0.0833333 -227.25 -184)" d="M 3499.55,5557.77 L 3519.55,5546.22 L 4029.16,5840.45 L 4029.16,5852 L 4019.16,5857.77 L 3499.55,5557.77 Z " />
<path stroke="transparent" fill="#000000" transform="matrix(0.0833333 0 0 0.0833333 -227.25 -184)" d="M 3112.55,5850.49 L 3052.54,5746.57 L 3071,5738.54 L 3128.73,5838.52 L 3112.55,5850.49 Z " />
<path stroke="transparent" fill="#000000" transform="matrix(0.0833333 0 0 0.0833333 -227.25 -184)" d="M 3160.98,5814.65 L 3107.8,5722.54 L 3126.26,5714.51 L 3177.16,5802.68 L 3160.98,5814.65 Z " />
<path stroke="transparent" fill="#000000" transform="matrix(0.0833333 0 0 0.0833333 -227.25 -184)" d="M 3209.42,5778.82 L 3163.05,5698.51 L 3181.51,5690.48 L 3225.6,5766.84 L 3209.42,5778.82 Z " />
<path stroke="transparent" fill="#000000" transform="matrix(0.0833333 0 0 0.0833333 -227.25 -184)" d="M 3257.85,5742.98 L 3218.3,5674.48 L 3236.76,5666.45 L 3274.03,5731.01 L 3257.85,5742.98 Z " />
<path stroke="transparent" fill="#000000" transform="matrix(0.0833333 0 0 0.0833333 -227.25 -184)" d="M 3306.29,5707.14 L 3273.56,5650.45 L 3292.02,5642.42 L 3322.47,5695.17 L 3306.29,5707.14 Z " />
<path stroke="transparent" fill="#000000" transform="matrix(0.0833333 0 0 0.0833333 -227.25 -184)" d="M 3354.72,5671.3 L 3328.81,5626.42 L 3347.27,5618.39 L 3370.9,5659.33 L 3354.72,5671.3 Z " />
<path stroke="transparent" fill="#000000" transform="matrix(0.0833333 0 0 0.0833333 -227.25 -184)" d="M 3403.16,5635.47 L 3384.06,5602.39 L 3402.52,5594.37 L 3419.34,5623.49 L 3403.16,5635.47 Z " />
<path stroke="transparent" fill="#000000" transform="matrix(0.0833333 0 0 0.0833333 -227.25 -184)" d="M 3451.59,5599.63 L 3439.32,5578.36 L 3457.78,5570.34 L 3467.78,5587.66 L 3451.59,5599.63 Z " />
<path stroke="transparent" fill="#000000" transform="matrix(0.0833333 0 0 0.0833333 -227.25 -184)" d="M 3499.55,4946.21 L 3519.55,4957.75 L 3519.55,5546.22 L 3499.55,5557.77 L 3499.55,4946.21 Z " />
<path stroke="transparent" fill="#000000" transform="matrix(0.0833333 0 0 0.0833333 -227.25 -184)" d="M 3519.55,4957.75 L 3499.55,4946.21 L 4029.16,4640.43 L 4029.16,4663.52 L 3519.55,4957.75 Z " />
<path stroke="transparent" fill="#000000" transform="matrix(0.0833333 0 0 0.0833333 -227.25 -184)" d="M 4029.16,4663.52 L 4029.16,4640.43 L 4537.25,4933.78 L 4548.77,4951.98 L 4538.77,4957.75 L 4029.16,4663.52 Z " />
<path stroke="transparent" fill="#000000" transform="matrix(0.0833333 0 0 0.0833333 -227.25 -184)" d="M 4488.77,4351.97 L 4608.77,4351.97 L 4560.29,4933.78 L 4548.77,4951.98 L 4537.25,4933.78 L 4488.77,4351.97 Z " />
<path stroke="transparent" fill="#000000" transform="matrix(0.0833333 0 0 0.0833333 -227.25 -184)" d="M 5057.92,4646.46 L 5068.38,4651.97 L 5068.38,4663.52 L 4558.77,4957.75 L 4548.77,4951.98 L 4560.29,4933.78 L 5057.92,4646.46 Z " />
<path stroke="transparent" fill="#000000" transform="matrix(0.0833333 0 0 0.0833333 -227.25 -184)" d="M 5010.22,4073.99 L 5130.4,4027.7 L 5078.84,4646.46 L 5068.38,4651.97 L 5057.92,4646.46 L 5010.22,4073.99 Z " />
<path stroke="transparent" fill="#000000" transform="matrix(0.0833333 0 0 0.0833333 -227.25 -184)" d="M 5130.4,4027.7 L 5010.22,4073.99 L 5587.99,3740.41 L 5587.99,3763.5 L 5130.4,4027.7 Z " />
<path stroke="transparent" fill="#000000" transform="matrix(0.0833333 0 0 0.0833333 -227.25 -184)" d="M 5587.99,3763.5 L 5587.99,3740.41 L 6117.6,4046.19 L 6097.6,4057.73 L 5587.99,3763.5 Z " />
<path stroke="transparent" fill="#000000" transform="matrix(0.0833333 0 0 0.0833333 -227.25 -184)" d="M 5582.99,3843.75 L 5592.99,3826.43 L 6040.6,4084.87 L 6030.6,4102.19 L 5582.99,3843.75 Z " />
<path stroke="transparent" fill="#000000" transform="matrix(0.0833333 0 0 0.0833333 -227.25 -184)" d="M 6097.6,4057.73 L 6117.6,4046.19 L 6117.6,4646.26 L 6107.6,4652.03 L 6097.6,4646.26 L 6097.6,4057.73 Z " />
<path stroke="transparent" fill="#000000" transform="matrix(0.0833333 0 0 0.0833333 -227.25 -184)" d="M 6167.6,5252.03 L 6047.6,5252.03 L 6049.43,5232.03 L 6165.77,5232.03 L 6167.6,5252.03 Z " />
<path stroke="transparent" fill="#000000" transform="matrix(0.0833333 0 0 0.0833333 -227.25 -184)" d="M 6162.25,5193.59 L 6052.96,5193.59 L 6054.79,5173.59 L 6160.42,5173.59 L 6162.25,5193.59 Z " />
<path stroke="transparent" fill="#000000" transform="matrix(0.0833333 0 0 0.0833333 -227.25 -184)" d="M 6156.9,5135.14 L 6058.31,5135.14 L 6060.14,5115.14 L 6155.07,5115.14 L 6156.9,5135.14 Z " />
<path stroke="transparent" fill="#000000" transform="matrix(0.0833333 0 0 0.0833333 -227.25 -184)" d="M 6151.55,5076.7 L 6063.66,5076.7 L 6065.49,5056.7 L 6149.72,5056.7 L 6151.55,5076.7 Z " />
<path stroke="transparent" fill="#000000" transform="matrix(0.0833333 0 0 0.0833333 -227.25 -184)" d="M 6146.2,5018.26 L 6069.01,5018.26 L 6070.84,4998.26 L 6144.36,4998.26 L 6146.2,5018.26 Z " />
<path stroke="transparent" fill="#000000" transform="matrix(0.0833333 0 0 0.0833333 -227.25 -184)" d="M 6140.84,4959.81 L 6074.36,4959.81 L 6076.2,4939.81 L 6139.01,4939.81 L 6140.84,4959.81 Z " />
<path stroke="transparent" fill="#000000" transform="matrix(0.0833333 0 0 0.0833333 -227.25 -184)" d="M 6135.49,4901.37 L 6079.72,4901.37 L 6081.55,4881.37 L 6133.66,4881.37 L 6135.49,4901.37 Z " />
<path stroke="transparent" fill="#000000" transform="matrix(0.0833333 0 0 0.0833333 -227.25 -184)" d="M 6130.14,4842.92 L 6085.07,4842.92 L 6086.9,4822.92 L 6128.31,4822.92 L 6130.14,4842.92 Z " />
<path stroke="transparent" fill="#000000" transform="matrix(0.0833333 0 0 0.0833333 -227.25 -184)" d="M 6124.79,4784.48 L 6090.42,4784.48 L 6092.25,4764.48 L 6122.96,4764.48 L 6124.79,4784.48 Z " />
<path stroke="transparent" fill="#000000" transform="matrix(0.0833333 0 0 0.0833333 -227.25 -184)" d="M 6119.43,4726.03 L 6095.77,4726.03 L 6097.6,4706.03 L 6117.6,4706.03 L 6119.43,4726.03 Z " />
<path stroke="transparent" fill="#000000" transform="matrix(0.0833333 0 0 0.0833333 -227.25 -184)" d="M 6627.27,4940.43 L 6627.28,4963.53 L 6107.6,4663.58 L 6107.6,4652.03 L 6117.6,4646.26 L 6627.27,4940.43 Z " />
<path stroke="transparent" fill="#000000" transform="matrix(0.0833333 0 0 0.0833333 -227.25 -184)" d="M 6627.28,4963.53 L 6627.27,4940.43 L 7136.89,4646.2 L 7156.89,4657.75 L 6627.28,4963.53 Z " />
<path stroke="transparent" fill="#000000" transform="matrix(0.0833333 0 0 0.0833333 -227.25 -184)" d="M 7156.89,4657.75 L 7136.89,4646.2 L 7136.89,4057.79 L 7146.89,4052.02 L 7156.89,4071.09 L 7156.89,4657.75 Z " />
<path stroke="transparent" fill="#000000" transform="matrix(0.0833333 0 0 0.0833333 -227.25 -184)" d="M 7696.5,4300.07 L 7636.5,4403.99 L 7156.89,4071.09 L 7146.89,4052.02 L 7168.4,4051.14 L 7696.5,4300.07 Z " />
<path stroke="transparent" fill="#000000" transform="matrix(0.0833333 0 0 0.0833333 -227.25 -184)" d="M 7656.5,3746.24 L 7676.5,3757.79 L 7168.4,4051.14 L 7146.89,4052.02 L 7146.89,4040.47 L 7656.5,3746.24 Z " />
<path stroke="transparent" fill="#000000" transform="matrix(0.0833333 0 0 0.0833333 -227.25 -184)" d="M 7676.5,3757.79 L 7656.5,3746.24 L 7656.5,3157.77 L 7676.5,3146.23 L 7676.5,3757.79 Z " />
<path stroke="transparent" fill="#000000" transform="matrix(0.0833333 0 0 0.0833333 -227.25 -184)" d="M 7676.5,3146.23 L 7656.5,3157.77 L 7146.89,2863.54 L 7146.89,2840.45 L 7676.5,3146.23 Z " />
<path stroke="transparent" fill="#000000" transform="matrix(0.0833333 0 0 0.0833333 -227.25 -184)" d="M 7086.89,2251.98 L 7206.89,2251.98 L 7205.05,2271.98 L 7088.72,2271.98 L 7086.89,2251.98 Z " />
<path stroke="transparent" fill="#000000" transform="matrix(0.0833333 0 0 0.0833333 -227.25 -184)" d="M 7092.24,2310.43 L 7201.53,2310.43 L 7199.7,2330.43 L 7094.07,2330.43 L 7092.24,2310.43 Z " />
<path stroke="transparent" fill="#000000" transform="matrix(0.0833333 0 0 0.0833333 -227.25 -184)" d="M 7097.59,2368.87 L 7196.18,2368.87 L 7194.35,2388.87 L 7099.42,2388.87 L 7097.59,2368.87 Z " />
<path stroke="transparent" fill="#000000" transform="matrix(0.0833333 0 0 0.0833333 -227.25 -184)" d="M 7102.94,2427.32 L 7190.83,2427.32 L 7189,2447.32 L 7104.77,2447.32 L 7102.94,2427.32 Z " />
<path stroke="transparent" fill="#000000" transform="matrix(0.0833333 0 0 0.0833333 -227.25 -184)" d="M 7108.29,2485.76 L 7185.48,2485.76 L 7183.65,2505.76 L 7110.13,2505.76 L 7108.29,2485.76 Z " />
<path stroke="transparent" fill="#000000" transform="matrix(0.0833333 0 0 0.0833333 -227.25 -184)" d="M 7113.65,2544.21 L 7180.13,2544.21 L 7178.29,2564.21 L 7115.48,2564.21 L 7113.65,2544.21 Z " />
<path stroke="transparent" fill="#000000" transform="matrix(0.0833333 0 0 0.0833333 -227.25 -184)" d="M 7119,2602.66 L 7174.77,2602.66 L 7172.94,2622.66 L 7120.83,2622.66 L 7119,2602.66 Z " />
<path stroke="transparent" fill="#000000" transform="matrix(0.0833333 0 0 0.0833333 -227.25 -184)" d="M 7124.35,2661.1 L 7169.42,2661.1 L 7167.59,2681.1 L 7126.18,2681.1 L 7124.35,2661.1 Z " />
<path stroke="transparent" fill="#000000" transform="matrix(0.0833333 0 0 0.0833333 -227.25 -184)" d="M 7129.7,2719.55 L 7164.07,2719.55 L 7162.24,2739.55 L 7131.53,2739.55 L 7129.7,2719.55 Z " />
<path stroke="transparent" fill="#000000" transform="matrix(0.0833333 0 0 0.0833333 -227.25 -184)" d="M 7135.05,2777.99 L 7158.72,2777.99 L 7156.89,2797.99 L 7136.89,2797.99 L 7135.05,2777.99 Z " />
<path stroke="transparent" fill="#000000" transform="matrix(0.0833333 0 0 0.0833333 -227.25 -184)" d="M 6637.27,3157.77 L 6627.27,3152 L 6627.73,3140.19 L 7146.89,2840.45 L 7146.89,2863.54 L 6637.27,3157.77 Z " />
<path stroke="transparent" fill="#000000" transform="matrix(0.0833333 0 0 0.0833333 -227.25 -184)" d="M 6077.61,2903.96 L 6137.6,2800.03 L 6627.73,3140.19 L 6627.27,3152 L 6617.27,3158.3 L 6077.61,2903.96 Z " />
<text x="0" y="0" stroke="transparent" fill="#000000" transform="matrix(0.0833333 0 0 0.0833333 145.314 385.168)" style="font:normal normal normal 200px 'Arial'" >
OH</text>
<text x="0" y="0" stroke="transparent" fill="#000000" transform="matrix(0.0833333 0 0 0.0833333 58.7122 385.168)" style="font:normal normal normal 200px 'Arial'" >
O</text>
<text x="0" y="0" stroke="transparent" fill="#000000" transform="matrix(0.0833333 0 0 0.0833333 3.37517 310.167)" style="font:normal normal normal 200px 'Arial'" >
HO</text>
</svg>
