<?xml version="1.0" standalone="no" ?>
<!DOCTYPE svg PUBLIC "-//W3C//DTD SVG 1.1//EN" "http://www.w3.org/Graphics/SVG/1.1/DTD/svg11.dtd">
<svg width="142px" height="141px" viewBox="0 0 142 141" style="background-color: #ffffff00" xmlns="http://www.w3.org/2000/svg" xmlns:xlink="http://www.w3.org/1999/xlink" version="1.1" >
<text x="0" y="0" stroke="none" fill="#000000" transform="matrix(0.0666667 0 0 0.0666667 110.043 61.9618)" font-style="normal" font-weight="normal" font-size="200px" font-family="Arial" >
N</text>
<text x="0" y="0" stroke="none" fill="#000000" transform="matrix(0.0666667 0 0 0.0666667 37.3589 134.321)" font-style="normal" font-weight="normal" font-size="200px" font-family="Arial" >
N</text>
<text x="0" y="0" stroke="none" fill="#000000" transform="matrix(0.0666667 0 0 0.0666667 2.71648 74.3206)" font-style="normal" font-weight="normal" font-size="200px" font-family="Arial" >
N</text>
<text x="0" y="0" stroke="none" fill="#000000" transform="matrix(0.0666667 0 0 0.0666667 37.3589 14.3206)" font-style="normal" font-weight="normal" font-size="200px" font-family="Arial" >
NH</text>
<text x="0" y="0" stroke="none" fill="#000000" transform="matrix(0.0666667 0 0 0.0666667 56.6167 17.254)" font-style="normal" font-weight="normal" font-size="150px" font-family="Arial" >
2</text>
<text x="0" y="0" stroke="none" fill="#000000" transform="matrix(0.0666667 0 0 0.0666667 110.043 126.679)" font-style="normal" font-weight="normal" font-size="200px" font-family="Arial" >
N</text>
<text x="0" y="0" stroke="none" fill="#000000" transform="matrix(0.0666667 0 0 0.0666667 110.043 137.802)" font-style="normal" font-weight="normal" font-size="200px" font-family="Arial" >
H</text>
<path stroke="none" fill="#000000" transform="matrix(0.0666667 0 0 0.0666667 -277.853 -214)" d="M 5329.82,4839.54 L 5319.82,4846.81 L 5309.82,4841.04 L 5309.82,4252.58 L 5319.82,4246.81 L 5329.82,4254.07 L 5329.82,4839.54 Z " />
<path stroke="none" fill="#000000" transform="matrix(0.0666667 0 0 0.0666667 -277.853 -214)" d="M 4800.18,3958.36 L 4800.18,3946.81 L 4810.18,3941.04 L 5320.96,4235.92 L 5319.82,4246.81 L 5309.82,4252.58 L 4800.18,3958.36 Z " />
<path stroke="none" fill="#000000" transform="matrix(0.0666667 0 0 0.0666667 -277.853 -214)" d="M 4795.18,4038.61 L 4805.18,4021.29 L 5252.82,4279.72 L 5242.82,4297.04 L 4795.18,4038.61 Z " />
<path stroke="none" fill="#000000" transform="matrix(0.0666667 0 0 0.0666667 -277.853 -214)" d="M 5778.03,4087.43 L 5784.21,4106.45 L 5329.82,4254.07 L 5319.82,4246.81 L 5320.96,4235.92 L 5778.03,4087.43 Z " />
<path stroke="none" fill="#000000" transform="matrix(0.0666667 0 0 0.0666667 -277.853 -214)" d="M 4909.03,5095.51 L 4899.03,5078.19 L 5309.82,4841.04 L 5319.82,4846.81 L 5320.96,4857.7 L 4909.03,5095.51 Z " />
<path stroke="none" fill="#000000" transform="matrix(0.0666667 0 0 0.0666667 -277.853 -214)" d="M 4873.03,5033.16 L 4863.03,5015.84 L 5242.82,4796.58 L 5252.82,4813.9 L 4873.03,5033.16 Z " />
<path stroke="none" fill="#000000" transform="matrix(0.0666667 0 0 0.0666667 -277.853 -214)" d="M 5786.37,4987.87 L 5780.19,5006.89 L 5320.96,4857.7 L 5319.82,4846.81 L 5329.82,4839.54 L 5786.37,4987.87 Z " />
<path stroke="none" fill="#000000" transform="matrix(0.0666667 0 0 0.0666667 -277.853 -214)" d="M 4389.4,4195.51 L 4379.4,4178.19 L 4790.18,3941.04 L 4800.18,3946.81 L 4800.18,3958.36 L 4389.4,4195.51 Z " />
<path stroke="none" fill="#000000" transform="matrix(0.0666667 0 0 0.0666667 -277.853 -214)" d="M 4790.18,3465.98 L 4810.18,3465.98 L 4810.18,3941.04 L 4800.18,3946.81 L 4790.18,3941.04 L 4790.18,3465.98 Z " />
<path stroke="none" fill="#000000" transform="matrix(0.0666667 0 0 0.0666667 -277.853 -214)" d="M 6255.45,4546.81 L 6230.73,4546.81 L 5961.9,4176.8 L 5978.08,4165.05 L 6255.45,4546.81 Z " />
<path stroke="none" fill="#000000" transform="matrix(0.0666667 0 0 0.0666667 -277.853 -214)" d="M 6162.19,4540.93 L 6146.01,4552.69 L 5903.66,4219.12 L 5919.84,4207.36 L 6162.19,4540.93 Z " />
<path stroke="none" fill="#000000" transform="matrix(0.0666667 0 0 0.0666667 -277.853 -214)" d="M 4270.55,4852.58 L 4290.55,4841.04 L 4701.33,5078.19 L 4691.33,5095.51 L 4270.55,4852.58 Z " />
<path stroke="none" fill="#000000" transform="matrix(0.0666667 0 0 0.0666667 -277.853 -214)" d="M 6230.73,4546.81 L 6255.45,4546.81 L 5971.27,4937.95 L 5955.09,4926.2 L 6230.73,4546.81 Z " />
<path stroke="none" fill="#000000" transform="matrix(0.0666667 0 0 0.0666667 -277.853 -214)" d="M 4290.55,4841.04 L 4270.55,4852.58 L 4270.55,4363.98 L 4290.55,4363.98 L 4290.55,4841.04 Z " />
<path stroke="none" fill="#000000" transform="matrix(0.0666667 0 0 0.0666667 -277.853 -214)" d="M 4362.55,4805.24 L 4342.55,4805.24 L 4342.55,4363.98 L 4362.55,4363.98 L 4362.55,4805.24 Z " />
</svg>
