<?xml version="1.0"?><svg xmlns="http://www.w3.org/2000/svg" xmlns:xlink="http://www.w3.org/1999/xlink" viewBox="183.7 295.3 155.92 100.7" preserveAspectRatio="xMidYMid" width="100%" height="100%"><clipPath id="319"><rect x="0.5" y="0.5" width="522.32" height="768.92" /></clipPath><g id="drawing"><rect x="183.7" y="295.3" width="100%" height="100%" fill="rgb(255, 255, 255)" /><g id="page" clip-path="url(#319)"><g><text xml:space="preserve" text-anchor="start" text-rendering="geometricPrecision"><tspan x="247.04" y="393.6" font-family="Arial" font-size="10" fill="rgb(0, 0, 0)">N</tspan></text></g><g><text xml:space="preserve" text-anchor="start" text-rendering="geometricPrecision"><tspan x="298.69" y="303.7" font-family="Arial" font-size="10" fill="rgb(0, 0, 0)">O</tspan></text></g><g><text xml:space="preserve" text-anchor="start" text-rendering="geometricPrecision"><tspan x="324.67" y="348.7" font-family="Arial" font-size="10" fill="rgb(0, 0, 0)">OH</tspan></text></g><g><text xml:space="preserve" text-anchor="end" text-rendering="geometricPrecision"><tspan x="202.26" y="393.6" font-family="Arial" font-size="10" fill="rgb(0, 0, 0)">H</tspan><tspan font-family="Arial" dy="2.26" font-size="7.5" fill="rgb(0, 0, 0)">2</tspan><tspan font-family="Arial" dy="-2.26" font-size="10" fill="rgb(0, 0, 0)">N</tspan></text></g><g id="Solid"><path d="M250.63 329.44 L250.63 329.44 L250.63 330.02 L250.63 330.6 L225.15 345.31 L224.65 345.02 L224.15 344.73 Z" stroke="rgb(0, 0, 0)" stroke-width="0" fill-rule="evenodd" stroke-linejoin="miter" fill="rgb(0, 0, 0)" shape-rendering="geometricPrecision" /><line x1="250.63" y1="334.18" x2="228.25" y2="347.1" stroke="rgb(0, 0, 0)" stroke-width="1" shape-rendering="auto" /></g><g id="Solid"><path d="M224.15 344.73 L224.15 344.73 L224.65 345.02 L225.15 345.31 L225.15 374.73 L224.65 375.02 L224.15 374.73 Z" stroke="rgb(0, 0, 0)" stroke-width="0" fill-rule="evenodd" stroke-linejoin="miter" fill="rgb(0, 0, 0)" shape-rendering="geometricPrecision" /></g><g id="Solid"><path d="M224.65 375.6 L224.65 375.6 L224.65 375.02 L225.15 374.73 L246.32 386.95 L246.07 387.39 L245.82 387.82 Z" stroke="rgb(0, 0, 0)" stroke-width="0" fill-rule="evenodd" stroke-linejoin="miter" fill="rgb(0, 0, 0)" shape-rendering="geometricPrecision" /><line x1="228.25" y1="372.94" x2="247.87" y2="384.27" stroke="rgb(0, 0, 0)" stroke-width="1" shape-rendering="auto" /></g><g id="Solid"><path d="M255.48 387.8 L255.48 387.8 L255.23 387.36 L254.98 386.93 L276.11 374.73 L276.61 375.02 L277.11 375.31 Z" stroke="rgb(0, 0, 0)" stroke-width="0" fill-rule="evenodd" stroke-linejoin="miter" fill="rgb(0, 0, 0)" shape-rendering="geometricPrecision" /></g><g id="Solid"><path d="M277.11 375.31 L277.11 375.31 L276.61 375.02 L276.11 374.73 L276.11 345.31 L276.61 345.02 L277.11 345.31 Z" stroke="rgb(0, 0, 0)" stroke-width="0" fill-rule="evenodd" stroke-linejoin="miter" fill="rgb(0, 0, 0)" shape-rendering="geometricPrecision" /><line x1="273.01" y1="372.94" x2="273.01" y2="347.1" stroke="rgb(0, 0, 0)" stroke-width="1" shape-rendering="auto" /></g><g id="Solid"><path d="M250.63 330.6 L250.63 330.6 L250.63 330.02 L250.63 329.44 L276.61 344.44 L276.61 345.02 L276.11 345.31 Z" stroke="rgb(0, 0, 0)" stroke-width="0" fill-rule="evenodd" stroke-linejoin="miter" fill="rgb(0, 0, 0)" shape-rendering="geometricPrecision" /></g><g id="Solid"><path d="M277.11 345.31 L277.11 345.31 L276.61 345.02 L276.61 344.44 L302.59 329.44 L302.59 330.02 L302.59 330.6 Z" stroke="rgb(0, 0, 0)" stroke-width="0" fill-rule="evenodd" stroke-linejoin="miter" fill="rgb(0, 0, 0)" shape-rendering="geometricPrecision" /></g><g id="Solid"><line x1="300.79" y1="330.02" x2="300.79" y2="305.9" stroke="rgb(0, 0, 0)" stroke-width="1" shape-rendering="auto" /><path d="M303.89 330.19 L303.89 330.19 L304.89 330.77 L304.89 305.9 L303.89 305.9 Z" stroke="rgb(0, 0, 0)" stroke-width="0" fill-rule="evenodd" stroke-linejoin="miter" fill="rgb(0, 0, 0)" shape-rendering="geometricPrecision" /><path d="M300.29 330.77 L300.29 330.77 L301.29 330.19 L301.29 305.9 L300.29 305.9 Z" stroke="rgb(0, 0, 0)" stroke-width="0" fill-rule="evenodd" stroke-linejoin="miter" fill="rgb(0, 0, 0)" shape-rendering="geometricPrecision" /></g><g id="Solid"><path d="M302.59 330.6 L302.59 330.6 L302.59 330.02 L302.59 329.44 L323.92 341.76 L323.67 342.19 L323.42 342.62 Z" stroke="rgb(0, 0, 0)" stroke-width="0" fill-rule="evenodd" stroke-linejoin="miter" fill="rgb(0, 0, 0)" shape-rendering="geometricPrecision" /></g><g id="Solid"><path d="M224.15 374.73 L224.15 374.73 L224.65 375.02 L224.65 375.6 L203.48 387.82 L203.23 387.39 L202.98 386.95 Z" stroke="rgb(0, 0, 0)" stroke-width="0" fill-rule="evenodd" stroke-linejoin="miter" fill="rgb(0, 0, 0)" shape-rendering="geometricPrecision" /></g></g></g></svg>