<?xml version="1.0" standalone="no" ?>
<!DOCTYPE svg PUBLIC "-//W3C//DTD SVG 1.1//EN" "http://www.w3.org/Graphics/SVG/1.1/DTD/svg11.dtd">
<svg width="525px" height="364px" viewBox="0 0 525 364" style="background-color: #ffffff00" xmlns="http://www.w3.org/2000/svg" xmlns:xlink="http://www.w3.org/1999/xlink" version="1.1" >
<path stroke="transparent" fill="#000000" transform="matrix(0.0833333 0 0 0.0833333 -175.25 -205)" d="M 5417.34,3469.4 L 5477.59,3573.18 L 5459.27,3581.46 L 5401.06,3481.2 L 5417.34,3469.4 Z " />
<path stroke="transparent" fill="#000000" transform="matrix(0.0833333 0 0 0.0833333 -175.25 -205)" d="M 5369.32,3504.21 L 5423.55,3597.61 L 5405.23,3605.9 L 5353.05,3516.01 L 5369.32,3504.21 Z " />
<path stroke="transparent" fill="#000000" transform="matrix(0.0833333 0 0 0.0833333 -175.25 -205)" d="M 5321.31,3539.01 L 5369.52,3622.05 L 5351.2,3630.33 L 5305.03,3550.81 L 5321.31,3539.01 Z " />
<path stroke="transparent" fill="#000000" transform="matrix(0.0833333 0 0 0.0833333 -175.25 -205)" d="M 5273.29,3573.82 L 5315.48,3646.49 L 5297.16,3654.77 L 5257.02,3585.62 L 5273.29,3573.82 Z " />
<path stroke="transparent" fill="#000000" transform="matrix(0.0833333 0 0 0.0833333 -175.25 -205)" d="M 5225.28,3608.63 L 5261.45,3670.92 L 5243.13,3679.21 L 5209,3620.43 L 5225.28,3608.63 Z " />
<path stroke="transparent" fill="#000000" transform="matrix(0.0833333 0 0 0.0833333 -175.25 -205)" d="M 5177.27,3643.44 L 5207.41,3695.36 L 5189.09,3703.65 L 5160.99,3655.24 L 5177.27,3643.44 Z " />
<path stroke="transparent" fill="#000000" transform="matrix(0.0833333 0 0 0.0833333 -175.25 -205)" d="M 5129.25,3678.24 L 5153.38,3719.8 L 5135.06,3728.08 L 5112.98,3690.04 L 5129.25,3678.24 Z " />
<path stroke="transparent" fill="#000000" transform="matrix(0.0833333 0 0 0.0833333 -175.25 -205)" d="M 5081.24,3713.05 L 5099.34,3744.24 L 5081.02,3752.52 L 5064.96,3724.85 L 5081.24,3713.05 Z " />
<path stroke="transparent" fill="#000000" transform="matrix(0.0833333 0 0 0.0833333 -175.25 -205)" d="M 5033.22,3747.86 L 5045.31,3768.67 L 5026.99,3776.96 L 5016.95,3759.66 L 5033.22,3747.86 Z " />
<path stroke="transparent" fill="#000000" transform="matrix(0.0833333 0 0 0.0833333 -175.25 -205)" d="M 4965.28,3801.22 L 4985.25,3789.62 L 4986.7,4390.97 L 4976.71,4395.42 L 4966.69,4389.14 L 4965.28,3801.22 Z " />
<path stroke="transparent" fill="#000000" transform="matrix(0.0833333 0 0 0.0833333 -175.25 -205)" d="M 4550.1,3562.83 L 4560.06,3545.49 L 4985.25,3789.62 L 4965.28,3801.22 L 4550.1,3562.83 Z " />
<path stroke="transparent" fill="#000000" transform="matrix(0.0833333 0 0 0.0833333 -175.25 -205)" d="M 4350.42,3545.77 L 4360.46,3563.07 L 3946.05,3803.65 L 3936.04,3797.9 L 3936.01,3786.36 L 4350.42,3545.77 Z " />
<path stroke="transparent" fill="#000000" transform="matrix(0.0833333 0 0 0.0833333 -175.25 -205)" d="M 3926.05,3803.7 L 3936.04,3797.9 L 3946.05,3803.65 L 3947.46,4392.11 L 3937.48,4397.91 L 3927.46,4392.16 L 3926.05,3803.7 Z " />
<path stroke="transparent" fill="#000000" transform="matrix(0.0833333 0 0 0.0833333 -175.25 -205)" d="M 3936.01,3786.36 L 3936.04,3797.9 L 3926.05,3803.7 L 3415.73,3510.69 L 3415.68,3487.6 L 3936.01,3786.36 Z " />
<path stroke="transparent" fill="#000000" transform="matrix(0.0833333 0 0 0.0833333 -175.25 -205)" d="M 3869.12,3830.97 L 3859.16,3848.32 L 3410.92,3590.96 L 3420.88,3573.61 L 3869.12,3830.97 Z " />
<path stroke="transparent" fill="#000000" transform="matrix(0.0833333 0 0 0.0833333 -175.25 -205)" d="M 3415.68,3487.6 L 3415.73,3510.69 L 2906.82,3806.14 L 2896.81,3800.39 L 2896.78,3788.84 L 3415.68,3487.6 Z " />
<path stroke="transparent" fill="#000000" transform="matrix(0.0833333 0 0 0.0833333 -175.25 -205)" d="M 2471.66,3567.83 L 2481.62,3550.49 L 2896.78,3788.84 L 2896.81,3800.39 L 2886.82,3806.19 L 2471.66,3567.83 Z " />
<path stroke="transparent" fill="#000000" transform="matrix(0.0833333 0 0 0.0833333 -175.25 -205)" d="M 2886.82,3806.19 L 2896.81,3800.39 L 2906.82,3806.14 L 2908.23,4394.59 L 2888.26,4406.19 L 2886.82,3806.19 Z " />
<path stroke="transparent" fill="#000000" transform="matrix(0.0833333 0 0 0.0833333 -175.25 -205)" d="M 2958.91,3841.81 L 2978.91,3841.76 L 2980.15,4358.63 L 2960.15,4358.67 L 2958.91,3841.81 Z " />
<path stroke="transparent" fill="#000000" transform="matrix(0.0833333 0 0 0.0833333 -175.25 -205)" d="M 2888.26,4406.19 L 2908.23,4394.59 L 3418.55,4687.6 L 3418.58,4699.15 L 3408.6,4704.95 L 2888.26,4406.19 Z " />
<path stroke="transparent" fill="#000000" transform="matrix(0.0833333 0 0 0.0833333 -175.25 -205)" d="M 3429.77,5193.96 L 3409.77,5194.01 L 3408.6,4704.95 L 3418.58,4699.15 L 3428.59,4704.9 L 3429.77,5193.96 Z " />
<path stroke="transparent" fill="#000000" transform="matrix(0.0833333 0 0 0.0833333 -175.25 -205)" d="M 3428.59,4704.9 L 3418.58,4699.15 L 3418.55,4687.6 L 3927.46,4392.16 L 3937.48,4397.91 L 3937.5,4409.45 L 3428.59,4704.9 Z " />
<path stroke="transparent" fill="#000000" transform="matrix(0.0833333 0 0 0.0833333 -175.25 -205)" d="M 3423.4,4624.66 L 3413.36,4607.36 L 3860.36,4347.86 L 3870.4,4365.16 L 3423.4,4624.66 Z " />
<path stroke="transparent" fill="#000000" transform="matrix(0.0833333 0 0 0.0833333 -175.25 -205)" d="M 3937.5,4409.45 L 3937.48,4397.91 L 3947.46,4392.11 L 4405.69,4655.21 L 4506.07,4735.9 L 3937.5,4409.45 Z " />
<path stroke="transparent" fill="#000000" transform="matrix(0.0833333 0 0 0.0833333 -175.25 -205)" d="M 4503.81,5191.5 L 4483.81,5191.5 L 4483.81,4675.76 L 4503.81,4675.76 L 4503.81,5191.5 Z " />
<path stroke="transparent" fill="#000000" transform="matrix(0.0833333 0 0 0.0833333 -175.25 -205)" d="M 4431.81,5191.5 L 4411.81,5191.5 L 4411.81,4675.99 L 4431.81,4675.99 L 4431.81,5191.5 Z " />
<path stroke="transparent" fill="#000000" transform="matrix(0.0833333 0 0 0.0833333 -175.25 -205)" d="M 4506.07,4735.9 L 4405.69,4655.21 L 4966.69,4389.14 L 4976.71,4395.42 L 4975.88,4408.15 L 4506.07,4735.9 Z " />
<path stroke="transparent" fill="#000000" transform="matrix(0.0833333 0 0 0.0833333 -175.25 -205)" d="M 5543.01,4893.69 L 5523.03,4902.6 L 4975.88,4408.15 L 4976.71,4395.42 L 4986.7,4390.97 L 5543.01,4893.69 Z " />
<path stroke="transparent" fill="#000000" transform="matrix(0.0833333 0 0 0.0833333 -175.25 -205)" d="M 5975.09,4572.12 L 6035.34,4675.9 L 6017.02,4684.19 L 5958.81,4583.92 L 5975.09,4572.12 Z " />
<path stroke="transparent" fill="#000000" transform="matrix(0.0833333 0 0 0.0833333 -175.25 -205)" d="M 5927.08,4606.93 L 5981.3,4700.34 L 5962.99,4708.62 L 5910.8,4618.73 L 5927.08,4606.93 Z " />
<path stroke="transparent" fill="#000000" transform="matrix(0.0833333 0 0 0.0833333 -175.25 -205)" d="M 5879.06,4641.74 L 5927.27,4724.78 L 5908.95,4733.06 L 5862.79,4653.54 L 5879.06,4641.74 Z " />
<path stroke="transparent" fill="#000000" transform="matrix(0.0833333 0 0 0.0833333 -175.25 -205)" d="M 5831.05,4676.55 L 5873.23,4749.21 L 5854.92,4757.5 L 5814.77,4688.35 L 5831.05,4676.55 Z " />
<path stroke="transparent" fill="#000000" transform="matrix(0.0833333 0 0 0.0833333 -175.25 -205)" d="M 5783.03,4711.36 L 5819.2,4773.65 L 5800.88,4781.93 L 5766.76,4723.15 L 5783.03,4711.36 Z " />
<path stroke="transparent" fill="#000000" transform="matrix(0.0833333 0 0 0.0833333 -175.25 -205)" d="M 5735.02,4746.16 L 5765.16,4798.09 L 5746.85,4806.37 L 5718.74,4757.96 L 5735.02,4746.16 Z " />
<path stroke="transparent" fill="#000000" transform="matrix(0.0833333 0 0 0.0833333 -175.25 -205)" d="M 5687,4780.97 L 5711.13,4822.52 L 5692.81,4830.81 L 5670.73,4792.77 L 5687,4780.97 Z " />
<path stroke="transparent" fill="#000000" transform="matrix(0.0833333 0 0 0.0833333 -175.25 -205)" d="M 5638.99,4815.78 L 5657.09,4846.96 L 5638.78,4855.24 L 5622.71,4827.58 L 5638.99,4815.78 Z " />
<path stroke="transparent" fill="#000000" transform="matrix(0.0833333 0 0 0.0833333 -175.25 -205)" d="M 5590.98,4850.59 L 5603.06,4871.4 L 5584.74,4879.68 L 5574.7,4862.39 L 5590.98,4850.59 Z " />
<path stroke="transparent" fill="#000000" transform="matrix(0.0833333 0 0 0.0833333 -175.25 -205)" d="M 5544.43,5492.32 L 5534.44,5498.11 L 5524.42,5491.83 L 5523.03,4902.6 L 5543.01,4893.69 L 5544.43,5492.32 Z " />
<path stroke="transparent" fill="#000000" transform="matrix(0.0833333 0 0 0.0833333 -175.25 -205)" d="M 5025.54,5865.28 L 5015.54,5799.36 L 4963.25,5757.98 L 5524.42,5491.83 L 5534.44,5498.11 L 5534.93,5509.92 L 5025.54,5865.28 Z " />
<path stroke="transparent" fill="#000000" transform="matrix(0.0833333 0 0 0.0833333 -175.25 -205)" d="M 5967.01,5734.95 L 5957.05,5752.29 L 5534.93,5509.92 L 5534.44,5498.11 L 5544.43,5492.32 L 5967.01,5734.95 Z " />
<path stroke="transparent" fill="#000000" transform="matrix(0.0833333 0 0 0.0833333 -175.25 -205)" d="M 6152.29,5751.82 L 6142.25,5734.53 L 6563.65,5489.88 L 6573.67,5495.63 L 6573.7,5507.17 L 6152.29,5751.82 Z " />
<path stroke="transparent" fill="#000000" transform="matrix(0.0833333 0 0 0.0833333 -175.25 -205)" d="M 6583.65,5489.83 L 6573.67,5495.63 L 6563.65,5489.88 L 6562.21,4901.44 L 6572.2,4895.65 L 6582.21,4901.4 L 6583.65,5489.83 Z " />
<path stroke="transparent" fill="#000000" transform="matrix(0.0833333 0 0 0.0833333 -175.25 -205)" d="M 6573.7,5507.17 L 6573.67,5495.63 L 6583.65,5489.83 L 7093.94,5782.86 L 7094,5805.95 L 6573.7,5507.17 Z " />
<path stroke="transparent" fill="#000000" transform="matrix(0.0833333 0 0 0.0833333 -175.25 -205)" d="M 6640.58,5462.56 L 6650.54,5445.22 L 7098.75,5702.6 L 7088.79,5719.94 L 6640.58,5462.56 Z " />
<path stroke="transparent" fill="#000000" transform="matrix(0.0833333 0 0 0.0833333 -175.25 -205)" d="M 7094,5805.95 L 7093.94,5782.86 L 7602.82,5487.43 L 7612.83,5493.18 L 7612.86,5504.73 L 7094,5805.95 Z " />
<path stroke="transparent" fill="#000000" transform="matrix(0.0833333 0 0 0.0833333 -175.25 -205)" d="M 8045.4,5730.02 L 8035.44,5747.36 L 7612.86,5504.73 L 7612.83,5493.18 L 7622.82,5487.39 L 8045.4,5730.02 Z " />
<path stroke="transparent" fill="#000000" transform="matrix(0.0833333 0 0 0.0833333 -175.25 -205)" d="M 7622.82,5487.39 L 7612.83,5493.18 L 7602.82,5487.43 L 7601.4,4898.98 L 7621.38,4887.38 L 7622.82,5487.39 Z " />
<path stroke="transparent" fill="#000000" transform="matrix(0.0833333 0 0 0.0833333 -175.25 -205)" d="M 7550.73,5451.76 L 7530.73,5451.81 L 7529.49,4934.95 L 7549.49,4934.9 L 7550.73,5451.76 Z " />
<path stroke="transparent" fill="#000000" transform="matrix(0.0833333 0 0 0.0833333 -175.25 -205)" d="M 7621.38,4887.38 L 7601.4,4898.98 L 7091.08,4605.97 L 7091.06,4594.42 L 7101.04,4588.63 L 7621.38,4887.38 Z " />
<path stroke="transparent" fill="#000000" transform="matrix(0.0833333 0 0 0.0833333 -175.25 -205)" d="M 7079.92,4114.31 L 7099.92,4114.26 L 7101.04,4588.63 L 7091.06,4594.42 L 7081.04,4588.67 L 7079.92,4114.31 Z " />
<path stroke="transparent" fill="#000000" transform="matrix(0.0833333 0 0 0.0833333 -175.25 -205)" d="M 7081.04,4588.67 L 7091.06,4594.42 L 7091.08,4605.97 L 6582.21,4901.4 L 6572.2,4895.65 L 6572.17,4884.1 L 7081.04,4588.67 Z " />
<path stroke="transparent" fill="#000000" transform="matrix(0.0833333 0 0 0.0833333 -175.25 -205)" d="M 7086.23,4668.91 L 7096.28,4686.2 L 6649.31,4945.69 L 6639.27,4928.39 L 7086.23,4668.91 Z " />
<path stroke="transparent" fill="#000000" transform="matrix(0.0833333 0 0 0.0833333 -175.25 -205)" d="M 6572.17,4884.1 L 6572.2,4895.65 L 6562.21,4901.44 L 6046.94,4605.57 L 6056.9,4588.23 L 6572.17,4884.1 Z " />
<path stroke="transparent" fill="#000000" transform="matrix(0.0833333 0 0 0.0833333 -175.25 -205)" d="M 6097.92,4617.57 L 6077.92,4617.57 L 6077.92,4116.74 L 6097.92,4116.74 L 6097.92,4617.57 Z " />
<path stroke="transparent" fill="#000000" transform="matrix(0.0833333 0 0 0.0833333 -175.25 -205)" d="M 6025.92,4617.8 L 6005.92,4617.8 L 6005.92,4116.74 L 6025.92,4116.74 L 6025.92,4617.8 Z " />
<text x="0" y="0" stroke="transparent" fill="#000000" transform="matrix(0.0833333 0 0 0.0833333 189.494 92.8884)" style="font:normal normal normal 200px 'Arial'" >
O</text>
<text x="0" y="0" stroke="transparent" fill="#000000" transform="matrix(0.0833333 0 0 0.0833333 4.25504 93.3054)" style="font:normal normal normal 200px 'Arial'" >
HO</text>
<text x="0" y="0" stroke="transparent" fill="#000000" transform="matrix(0.0833333 0 0 0.0833333 103.252 243.096)" style="font:normal normal normal 200px 'Arial'" >
OH</text>
<text x="0" y="0" stroke="transparent" fill="#000000" transform="matrix(0.0833333 0 0 0.0833333 189.734 242.889)" style="font:normal normal normal 200px 'Arial'" >
O</text>
<text x="0" y="0" stroke="transparent" fill="#000000" transform="matrix(0.0833333 0 0 0.0833333 322.814 284.573)" style="font:normal normal normal 200px 'Arial'" >
O</text>
<text x="0" y="0" stroke="transparent" fill="#000000" transform="matrix(0.0833333 0 0 0.0833333 496.014 284.162)" style="font:normal normal normal 200px 'Arial'" >
OH</text>
<text x="0" y="0" stroke="transparent" fill="#000000" transform="matrix(0.0833333 0 0 0.0833333 409.053 134.371)" style="font:normal normal normal 200px 'Arial'" >
OH</text>
<text x="0" y="0" stroke="transparent" fill="#000000" transform="matrix(0.0833333 0 0 0.0833333 322.576 134.575)" style="font:normal normal normal 200px 'Arial'" >
O</text>
<path stroke="transparent" fill="#000000" transform="matrix(0.0833333 0 0 0.0833333 -175.25 -205)" d="M 4494.51,5513.37 L 4494.48,5490.32 L 4963.25,5757.98 L 5015.54,5799.36 L 5005.54,5805.16 L 4494.51,5513.37 Z " />
<path stroke="transparent" fill="#000000" transform="matrix(0.0833333 0 0 0.0833333 -175.25 -205)" d="M 4489.64,5593.5 L 4499.56,5576.13 L 4948.5,5832.47 L 4938.59,5849.84 L 4489.64,5593.5 Z " />
<path stroke="transparent" fill="#000000" transform="matrix(0.0833333 0 0 0.0833333 -175.25 -205)" d="M 3986.33,5805.15 L 3966.33,5793.57 L 4494.48,5490.32 L 4494.51,5513.37 L 3986.33,5805.15 Z " />
<path stroke="transparent" fill="#000000" transform="matrix(0.0833333 0 0 0.0833333 -175.25 -205)" d="M 3986.33,6393.56 L 3976.33,6399.35 L 3966.33,6393.58 L 3966.33,5793.57 L 3986.33,5805.15 L 3986.33,6393.56 Z " />
<path stroke="transparent" fill="#000000" transform="matrix(0.0833333 0 0 0.0833333 -175.25 -205)" d="M 4058.32,6357.66 L 4038.32,6357.66 L 4038.32,5841.04 L 4058.32,5841.04 L 4058.32,6357.66 Z " />
<path stroke="transparent" fill="#000000" transform="matrix(0.0833333 0 0 0.0833333 -175.25 -205)" d="M 4494.51,6685.33 L 4494.48,6708.38 L 3976.35,6410.89 L 3976.33,6399.35 L 3986.33,6393.56 L 4494.51,6685.33 Z " />
<path stroke="transparent" fill="#000000" transform="matrix(0.0833333 0 0 0.0833333 -175.25 -205)" d="M 5005.54,6393.54 L 5025.54,6405.15 L 4494.48,6708.38 L 4494.51,6685.33 L 5005.54,6393.54 Z " />
<path stroke="transparent" fill="#000000" transform="matrix(0.0833333 0 0 0.0833333 -175.25 -205)" d="M 4938.59,6348.87 L 4948.5,6366.23 L 4499.56,6622.57 L 4489.64,6605.21 L 4938.59,6348.87 Z " />
<path stroke="transparent" fill="#000000" transform="matrix(0.0833333 0 0 0.0833333 -175.25 -205)" d="M 5005.54,5805.16 L 5015.54,5799.36 L 5025.54,5865.28 L 5025.54,6405.15 L 5005.54,6393.54 L 5005.54,5805.16 Z " />
<text x="0" y="0" stroke="transparent" fill="#000000" transform="matrix(0.0833333 0 0 0.0833333 94.3031 359.831)" style="font:normal normal normal 200px 'Arial'" >
HO</text>
<path stroke="transparent" fill="#000000" transform="matrix(0.0833333 0 0 0.0833333 -175.25 -205)" d="M 3554.63,6655.05 L 3544.61,6637.74 L 3966.33,6393.58 L 3976.33,6399.35 L 3976.35,6410.89 L 3554.63,6655.05 Z " />
<path stroke="transparent" fill="#000000" transform="matrix(0.0833333 0 0 0.0833333 -175.25 -205)" d="M 6015.2,3780.16 L 6015.22,3803.21 L 5484.16,3499.98 L 5504.16,3488.37 L 6015.2,3780.16 Z " />
<path stroke="transparent" fill="#000000" transform="matrix(0.0833333 0 0 0.0833333 -175.25 -205)" d="M 6020.07,3700.03 L 6010.15,3717.4 L 5561.2,3461.06 L 5571.12,3443.69 L 6020.07,3700.03 Z " />
<path stroke="transparent" fill="#000000" transform="matrix(0.0833333 0 0 0.0833333 -175.25 -205)" d="M 6523.38,3488.39 L 6543.38,3499.97 L 6015.22,3803.21 L 6015.2,3780.16 L 6523.38,3488.39 Z " />
<path stroke="transparent" fill="#000000" transform="matrix(0.0833333 0 0 0.0833333 -175.25 -205)" d="M 6523.38,2899.97 L 6533.38,2894.18 L 6543.38,2899.95 L 6543.38,3499.97 L 6523.38,3488.39 L 6523.38,2899.97 Z " />
<path stroke="transparent" fill="#000000" transform="matrix(0.0833333 0 0 0.0833333 -175.25 -205)" d="M 6451.38,2935.87 L 6471.38,2935.87 L 6471.38,3452.49 L 6451.38,3452.49 L 6451.38,2935.87 Z " />
<path stroke="transparent" fill="#000000" transform="matrix(0.0833333 0 0 0.0833333 -175.25 -205)" d="M 6015.2,2608.2 L 6015.22,2585.15 L 6533.36,2882.64 L 6533.38,2894.18 L 6523.38,2899.97 L 6015.2,2608.2 Z " />
<path stroke="transparent" fill="#000000" transform="matrix(0.0833333 0 0 0.0833333 -175.25 -205)" d="M 5504.16,2899.99 L 5484.16,2888.38 L 6015.22,2585.15 L 6015.2,2608.2 L 5504.16,2899.99 Z " />
<path stroke="transparent" fill="#000000" transform="matrix(0.0833333 0 0 0.0833333 -175.25 -205)" d="M 5571.12,2944.67 L 5561.2,2927.3 L 6010.15,2670.96 L 6020.07,2688.33 L 5571.12,2944.67 Z " />
<path stroke="transparent" fill="#000000" transform="matrix(0.0833333 0 0 0.0833333 -175.25 -205)" d="M 5504.16,3488.37 L 5484.16,3499.98 L 5484.16,2888.38 L 5504.16,2899.99 L 5504.16,3488.37 Z " />
<text x="0" y="0" stroke="transparent" fill="#000000" transform="matrix(0.0833333 0 0 0.0833333 405.97 17.6299)" style="font:normal normal normal 200px 'Arial'" >
OH</text>
<path stroke="transparent" fill="#000000" transform="matrix(0.0833333 0 0 0.0833333 -175.25 -205)" d="M 6948.08,2642.54 L 6958.1,2659.85 L 6543.38,2899.95 L 6533.38,2894.18 L 6533.36,2882.64 L 6948.08,2642.54 Z " />
</svg>
