<?xml version="1.0" standalone="no" ?>
<!DOCTYPE svg PUBLIC "-//W3C//DTD SVG 1.1//EN" "http://www.w3.org/Graphics/SVG/1.1/DTD/svg11.dtd">
<svg width="334px" height="219px" viewBox="0 0 334 219" style="background-color: #ffffff00" xmlns="http://www.w3.org/2000/svg" xmlns:xlink="http://www.w3.org/1999/xlink" version="1.1" >
<text x="0" y="0" stroke="transparent" fill="#000000" transform="matrix(0.0666667 0 0 0.0666667 206.691 155.021)" style="font:normal normal normal 200px 'Arial'" >
N</text>
<text x="0" y="0" stroke="transparent" fill="#000000" transform="matrix(0.0666667 0 0 0.0666667 216.32 149.821)" style="font:normal normal normal 150px 'Arial'" >
+</text>
<text x="0" y="0" stroke="transparent" fill="#000000" transform="matrix(0.0666667 0 0 0.0666667 33.447 134.973)" style="font:normal normal normal 200px 'Arial'" >
O</text>
<text x="0" y="0" stroke="transparent" fill="#000000" transform="matrix(0.0666667 0 0 0.0666667 310.388 14.871)" style="font:normal normal normal 200px 'Arial'" >
OH</text>
<text x="0" y="0" stroke="transparent" fill="#000000" transform="matrix(0.0666667 0 0 0.0666667 23.8181 215.273)" style="font:normal normal normal 200px 'Arial'" >
HO</text>
<path stroke="transparent" fill="#000000" transform="matrix(0.0666667 0 0 0.0666667 -181.853 -284)" d="M 5322.94,5627.05 L 5443.12,5580.86 L 5391.56,6199.58 L 5381.1,6205.07 L 5370.65,6199.59 L 5322.94,5627.05 Z " />
<path stroke="transparent" fill="#000000" transform="matrix(0.0666667 0 0 0.0666667 -181.853 -284)" d="M 5891.61,5299.29 L 5901.61,5305.07 L 5901.61,5316.61 L 5443.12,5580.86 L 5322.94,5627.05 L 5891.61,5299.29 Z " />
<path stroke="transparent" fill="#000000" transform="matrix(0.0666667 0 0 0.0666667 -181.853 -284)" d="M 4873.36,6513.06 L 4863.36,6507.32 L 4863.36,6495.74 L 5370.65,6199.59 L 5381.1,6205.07 L 5381.11,6216.64 L 4873.36,6513.06 Z " />
<path stroke="transparent" fill="#000000" transform="matrix(0.0666667 0 0 0.0666667 -181.853 -284)" d="M 5801.55,6438.33 L 5791.49,6455.61 L 5381.11,6216.64 L 5381.1,6205.07 L 5391.56,6199.58 L 5801.55,6438.33 Z " />
<path stroke="transparent" fill="#000000" transform="matrix(0.0666667 0 0 0.0666667 -181.853 -284)" d="M 5891.61,4699.29 L 5911.61,4710.84 L 5911.61,5299.29 L 5901.61,5305.07 L 5891.61,5299.29 L 5891.61,4699.29 Z " />
<path stroke="transparent" fill="#000000" transform="matrix(0.0666667 0 0 0.0666667 -181.853 -284)" d="M 5963.61,4746.67 L 5983.61,4746.67 L 5983.61,5263.46 L 5963.61,5263.46 L 5963.61,4746.67 Z " />
<path stroke="transparent" fill="#000000" transform="matrix(0.0666667 0 0 0.0666667 -181.853 -284)" d="M 6422.12,5593.52 L 6422.13,5616.61 L 5901.61,5316.61 L 5901.61,5305.07 L 5911.61,5299.29 L 6422.12,5593.52 Z " />
<path stroke="transparent" fill="#000000" transform="matrix(0.0666667 0 0 0.0666667 -181.853 -284)" d="M 4873.36,7106.09 L 4863.36,7111.83 L 4853.36,7106.08 L 4853.36,6513.06 L 4863.36,6507.32 L 4873.36,6513.06 L 4873.36,7106.09 Z " />
<path stroke="transparent" fill="#000000" transform="matrix(0.0666667 0 0 0.0666667 -181.853 -284)" d="M 4345.25,6216.64 L 4345.25,6193.49 L 4863.36,6495.74 L 4863.36,6507.32 L 4853.36,6513.06 L 4345.25,6216.64 Z " />
<path stroke="transparent" fill="#000000" transform="matrix(0.0666667 0 0 0.0666667 -181.853 -284)" d="M 4340.21,6297.04 L 4350.29,6279.76 L 4796.42,6540.02 L 4786.34,6557.3 L 4340.21,6297.04 Z " />
<path stroke="transparent" fill="#000000" transform="matrix(0.0666667 0 0 0.0666667 -181.853 -284)" d="M 6046.5,5925.59 L 6065.82,5930.79 L 5939.75,6398.81 L 5920.43,6393.6 L 6046.5,5925.59 Z " />
<path stroke="transparent" fill="#000000" transform="matrix(0.0666667 0 0 0.0666667 -181.853 -284)" d="M 6499.5,6549.58 L 6497.76,6569.5 L 6089,6533.83 L 6090.74,6513.91 L 6499.5,6549.58 Z " />
<path stroke="transparent" fill="#000000" transform="matrix(0.0666667 0 0 0.0666667 -181.853 -284)" d="M 5910.16,7117.58 L 5890.16,7106.08 L 5890.16,6624.65 L 5910.16,6624.65 L 5910.16,7117.58 Z " />
<path stroke="transparent" fill="#000000" transform="matrix(0.0666667 0 0 0.0666667 -181.853 -284)" d="M 6422.13,4393.52 L 6422.12,4416.61 L 5911.61,4710.84 L 5891.61,4699.29 L 6422.13,4393.52 Z " />
<path stroke="transparent" fill="#000000" transform="matrix(0.0666667 0 0 0.0666667 -181.853 -284)" d="M 6931.1,5299.3 L 6951.1,5310.84 L 6422.13,5616.61 L 6422.12,5593.52 L 6931.1,5299.3 Z " />
<path stroke="transparent" fill="#000000" transform="matrix(0.0666667 0 0 0.0666667 -181.853 -284)" d="M 6864.17,5254.9 L 6874.17,5272.22 L 6427.07,5530.67 L 6417.07,5513.35 L 6864.17,5254.9 Z " />
<path stroke="transparent" fill="#000000" transform="matrix(0.0666667 0 0 0.0666667 -181.853 -284)" d="M 4345.25,7425.66 L 4345.25,7402.51 L 4853.36,7106.08 L 4863.36,7111.83 L 4863.36,7123.41 L 4345.25,7425.66 Z " />
<path stroke="transparent" fill="#000000" transform="matrix(0.0666667 0 0 0.0666667 -181.853 -284)" d="M 4350.29,7339.39 L 4340.21,7322.11 L 4786.34,7061.85 L 4796.42,7079.12 L 4350.29,7339.39 Z " />
<path stroke="transparent" fill="#000000" transform="matrix(0.0666667 0 0 0.0666667 -181.853 -284)" d="M 5381.11,7402.51 L 5381.1,7425.66 L 4863.36,7123.41 L 4863.36,7111.83 L 4873.36,7106.09 L 5381.11,7402.51 Z " />
<path stroke="transparent" fill="#000000" transform="matrix(0.0666667 0 0 0.0666667 -181.853 -284)" d="M 3837.14,6513.06 L 3827.14,6507.32 L 3827.12,6495.75 L 4345.25,6193.49 L 4345.25,6216.64 L 3837.14,6513.06 Z " />
<path stroke="transparent" fill="#000000" transform="matrix(0.0666667 0 0 0.0666667 -181.853 -284)" d="M 5381.1,7425.66 L 5381.11,7402.51 L 5890.16,7106.08 L 5910.16,7117.58 L 5381.1,7425.66 Z " />
<path stroke="transparent" fill="#000000" transform="matrix(0.0666667 0 0 0.0666667 -181.853 -284)" d="M 6941.11,4693.52 L 6941.1,4705.07 L 6931.1,4710.84 L 6422.12,4416.61 L 6422.13,4393.52 L 6941.11,4693.52 Z " />
<path stroke="transparent" fill="#000000" transform="matrix(0.0666667 0 0 0.0666667 -181.853 -284)" d="M 6874.17,4737.91 L 6864.17,4755.23 L 6417.07,4496.78 L 6427.07,4479.47 L 6874.17,4737.91 Z " />
<path stroke="transparent" fill="#000000" transform="matrix(0.0666667 0 0 0.0666667 -181.853 -284)" d="M 6931.1,4710.84 L 6941.1,4705.07 L 6951.1,4710.84 L 6951.1,5310.84 L 6931.1,5299.3 L 6931.1,4710.84 Z " />
<path stroke="transparent" fill="#000000" transform="matrix(0.0666667 0 0 0.0666667 -181.853 -284)" d="M 3827.11,7123.39 L 3827.14,7111.83 L 3837.14,7106.08 L 4345.25,7402.51 L 4345.25,7425.66 L 3827.11,7123.39 Z " />
<path stroke="transparent" fill="#000000" transform="matrix(0.0666667 0 0 0.0666667 -181.853 -284)" d="M 3837.14,7106.08 L 3827.14,7111.83 L 3817.14,7106.05 L 3817.14,6513.09 L 3827.14,6507.32 L 3837.14,6513.06 L 3837.14,7106.08 Z " />
<path stroke="transparent" fill="#000000" transform="matrix(0.0666667 0 0 0.0666667 -181.853 -284)" d="M 3909.68,7070.16 L 3889.68,7070.16 L 3889.68,6548.98 L 3909.68,6548.98 L 3909.68,7070.16 Z " />
<path stroke="transparent" fill="#000000" transform="matrix(0.0666667 0 0 0.0666667 -181.853 -284)" d="M 3402.48,6273.11 L 3412.5,6255.8 L 3827.12,6495.75 L 3827.14,6507.32 L 3817.14,6513.09 L 3402.48,6273.11 Z " />
<path stroke="transparent" fill="#000000" transform="matrix(0.0666667 0 0 0.0666667 -181.853 -284)" d="M 7356.98,4453.83 L 7366.97,4471.16 L 6951.1,4710.84 L 6941.1,4705.07 L 6941.11,4693.52 L 7356.98,4453.83 Z " />
<path stroke="transparent" fill="#000000" transform="matrix(0.0666667 0 0 0.0666667 -181.853 -284)" d="M 3405.16,7366.4 L 3395.18,7349.07 L 3817.14,7106.05 L 3827.14,7111.83 L 3827.11,7123.39 L 3405.16,7366.4 Z " />
<path stroke="transparent" fill="#000000" transform="matrix(0.0666667 0 0 0.0666667 -181.853 -284)" d="M 2789.97,6517.5 L 2779.95,6500.19 L 3202.93,6255.53 L 3212.95,6272.84 L 2789.97,6517.5 Z " />
</svg>
