<?xml version="1.0" standalone="no" ?>
<!DOCTYPE svg PUBLIC "-//W3C//DTD SVG 1.1//EN" "http://www.w3.org/Graphics/SVG/1.1/DTD/svg11.dtd">
<svg width="405px" height="345px" viewBox="0 0 405 345" style="background-color: #ffffff00" xmlns="http://www.w3.org/2000/svg" xmlns:xlink="http://www.w3.org/1999/xlink" version="1.1" >
<path stroke="transparent" fill="#000000" transform="matrix(0.0833333 0 0 0.0833333 -233.208 -187)" d="M 6575.04,3119.81 L 6555.04,3108.26 L 7071,2810.35 L 7084.66,2814.01 L 7084.66,2825.56 L 6575.04,3119.81 Z " />
<path stroke="transparent" fill="#000000" transform="matrix(0.0833333 0 0 0.0833333 -233.208 -187)" d="M 6555.04,3108.26 L 6575.04,3119.81 L 6575.04,3708.24 L 6565.04,3714.01 L 6555.04,3708.24 L 6555.04,3108.26 Z " />
<path stroke="transparent" fill="#000000" transform="matrix(0.0833333 0 0 0.0833333 -233.208 -187)" d="M 6565.04,3725.56 L 6565.04,3714.01 L 6575.04,3708.24 L 7084.66,4002.45 L 7084.66,4013.99 L 7074.66,4019.77 L 6565.04,3725.56 Z " />
<path stroke="transparent" fill="#000000" transform="matrix(0.0833333 0 0 0.0833333 -233.208 -187)" d="M 6555.04,3708.24 L 6565.04,3714.01 L 6565.04,3725.56 L 6055.42,4019.77 L 6045.42,4013.99 L 6045.42,4002.45 L 6555.04,3708.24 Z " />
<path stroke="transparent" fill="#000000" transform="matrix(0.0833333 0 0 0.0833333 -233.208 -187)" d="M 5515.83,4313.95 L 5535.83,4313.95 L 5535.83,4896.63 L 5525.83,4913.95 L 5515.83,4896.63 L 5515.83,4313.95 Z " />
<path stroke="transparent" fill="#000000" transform="matrix(0.0833333 0 0 0.0833333 -233.208 -187)" d="M 5535.83,4919.72 L 5525.83,4913.95 L 5535.83,4896.63 L 6035.42,4608.19 L 6045.42,4613.97 L 6035.42,4631.29 L 5535.83,4919.72 Z " />
<path stroke="transparent" fill="#000000" transform="matrix(0.0833333 0 0 0.0833333 -233.208 -187)" d="M 5515.83,4896.63 L 5525.83,4913.95 L 5515.83,4919.72 L 5006.21,4625.51 L 5006.21,4613.97 L 5016.21,4608.19 L 5515.83,4896.63 Z " />
<path stroke="transparent" fill="#000000" transform="matrix(0.0833333 0 0 0.0833333 -233.208 -187)" d="M 5515.83,4919.72 L 5525.83,4913.95 L 5535.83,4919.72 L 5535.83,5519.74 L 5515.83,5508.19 L 5515.83,4919.72 Z " />
<path stroke="transparent" fill="#000000" transform="matrix(0.0833333 0 0 0.0833333 -233.208 -187)" d="M 5515.83,5508.19 L 5535.83,5519.74 L 5006.21,5825.5 L 5006.21,5802.4 L 5515.83,5508.19 Z " />
<path stroke="transparent" fill="#000000" transform="matrix(0.0833333 0 0 0.0833333 -233.208 -187)" d="M 5006.21,5802.4 L 5006.21,5825.5 L 4486.58,5525.51 L 4486.58,5513.96 L 4496.58,5508.19 L 5006.21,5802.4 Z " />
<path stroke="transparent" fill="#000000" transform="matrix(0.0833333 0 0 0.0833333 -233.208 -187)" d="M 4496.58,5508.19 L 4486.58,5513.96 L 4476.58,5508.19 L 4476.58,4919.72 L 4486.58,4913.95 L 4496.58,4919.72 L 4496.58,5508.19 Z " />
<path stroke="transparent" fill="#000000" transform="matrix(0.0833333 0 0 0.0833333 -233.208 -187)" d="M 4476.58,5508.19 L 4486.58,5513.96 L 4486.58,5525.51 L 3980.62,5817.61 L 3966.96,5813.95 L 3966.96,5802.4 L 4476.58,5508.19 Z " />
<path stroke="transparent" fill="#000000" transform="matrix(0.0833333 0 0 0.0833333 -233.208 -187)" d="M 3675.64,6338.57 L 3658.31,6328.57 L 3953.3,5817.61 L 3966.96,5813.95 L 3966.96,5833.95 L 3675.64,6338.57 Z " />
<path stroke="transparent" fill="#000000" transform="matrix(0.0833333 0 0 0.0833333 -233.208 -187)" d="M 4275.65,6328.57 L 4258.33,6338.57 L 3966.96,5833.95 L 3966.96,5813.95 L 3980.62,5817.61 L 4275.65,6328.57 Z " />
<path stroke="transparent" fill="#000000" transform="matrix(0.0833333 0 0 0.0833333 -233.208 -187)" d="M 3966.96,5802.4 L 3966.96,5813.95 L 3953.3,5817.61 L 3437.38,5519.74 L 3457.38,5508.19 L 3966.96,5802.4 Z " />
<path stroke="transparent" fill="#000000" transform="matrix(0.0833333 0 0 0.0833333 -233.208 -187)" d="M 3043.37,5800.32 L 3033.37,5782.99 L 3478.38,5526.09 L 3488.38,5543.41 L 3043.37,5800.32 Z " />
<path stroke="transparent" fill="#000000" transform="matrix(0.0833333 0 0 0.0833333 -233.208 -187)" d="M 3007.37,5737.96 L 2997.37,5720.64 L 3442.38,5463.73 L 3452.38,5481.05 L 3007.37,5737.96 Z " />
<path stroke="transparent" fill="#000000" transform="matrix(0.0833333 0 0 0.0833333 -233.208 -187)" d="M 3457.38,5508.19 L 3437.38,5519.74 L 3437.38,4908.18 L 3457.38,4919.72 L 3457.38,5508.19 Z " />
<path stroke="transparent" fill="#000000" transform="matrix(0.0833333 0 0 0.0833333 -233.208 -187)" d="M 3457.38,4919.72 L 3437.38,4908.18 L 3966.96,4602.42 L 3966.96,4625.51 L 3457.38,4919.72 Z " />
<path stroke="transparent" fill="#000000" transform="matrix(0.0833333 0 0 0.0833333 -233.208 -187)" d="M 3966.96,4625.51 L 3966.96,4602.42 L 4476.58,4896.63 L 4486.58,4913.95 L 4476.58,4919.72 L 3966.96,4625.51 Z " />
<path stroke="transparent" fill="#000000" transform="matrix(0.0833333 0 0 0.0833333 -233.208 -187)" d="M 4476.58,4313.98 L 4496.58,4313.98 L 4496.58,4896.63 L 4486.58,4913.95 L 4476.58,4896.63 L 4476.58,4313.98 Z " />
<path stroke="transparent" fill="#000000" transform="matrix(0.0833333 0 0 0.0833333 -233.208 -187)" d="M 4496.58,4919.72 L 4486.58,4913.95 L 4496.58,4896.63 L 4996.21,4608.19 L 5006.21,4613.97 L 5006.21,4625.51 L 4496.58,4919.72 Z " />
<path stroke="transparent" fill="#000000" transform="matrix(0.0833333 0 0 0.0833333 -233.208 -187)" d="M 5016.21,4608.19 L 5006.21,4613.97 L 4996.21,4608.19 L 4996.21,4008.22 L 5016.21,4019.77 L 5016.21,4608.19 Z " />
<path stroke="transparent" fill="#000000" transform="matrix(0.0833333 0 0 0.0833333 -233.208 -187)" d="M 5016.21,4019.77 L 4996.21,4008.22 L 5525.83,3702.46 L 5525.83,3725.56 L 5016.21,4019.77 Z " />
<path stroke="transparent" fill="#000000" transform="matrix(0.0833333 0 0 0.0833333 -233.208 -187)" d="M 5525.83,3725.56 L 5525.83,3702.46 L 6045.42,4002.45 L 6045.42,4013.99 L 6035.42,4019.77 L 5525.83,3725.56 Z " />
<path stroke="transparent" fill="#000000" transform="matrix(0.0833333 0 0 0.0833333 -233.208 -187)" d="M 5520.83,3805.8 L 5530.83,3788.48 L 5978.42,4046.9 L 5968.42,4064.22 L 5520.83,3805.8 Z " />
<path stroke="transparent" fill="#000000" transform="matrix(0.0833333 0 0 0.0833333 -233.208 -187)" d="M 6035.42,4019.77 L 6045.42,4013.99 L 6055.42,4019.77 L 6055.42,4608.19 L 6045.42,4613.97 L 6035.42,4608.19 L 6035.42,4019.77 Z " />
<path stroke="transparent" fill="#000000" transform="matrix(0.0833333 0 0 0.0833333 -233.208 -187)" d="M 6055.42,5213.97 L 6035.42,5213.97 L 6035.42,4631.29 L 6045.42,4613.97 L 6055.42,4631.29 L 6055.42,5213.97 Z " />
<path stroke="transparent" fill="#000000" transform="matrix(0.0833333 0 0 0.0833333 -233.208 -187)" d="M 6055.42,4631.29 L 6045.42,4613.97 L 6055.42,4608.19 L 6565.04,4902.4 L 6565.04,4925.5 L 6055.42,4631.29 Z " />
<path stroke="transparent" fill="#000000" transform="matrix(0.0833333 0 0 0.0833333 -233.208 -187)" d="M 6565.04,4925.5 L 6565.04,4902.4 L 7074.66,4608.19 L 7094.66,4619.74 L 6565.04,4925.5 Z " />
<path stroke="transparent" fill="#000000" transform="matrix(0.0833333 0 0 0.0833333 -233.208 -187)" d="M 7094.66,4619.74 L 7074.66,4608.19 L 7074.66,4019.77 L 7084.66,4013.99 L 7094.66,4031.31 L 7094.66,4619.74 Z " />
<path stroke="transparent" fill="#000000" transform="matrix(0.0833333 0 0 0.0833333 -233.208 -187)" d="M 7609.25,4305.32 L 7599.25,4322.64 L 7094.66,4031.31 L 7084.66,4013.99 L 7104.66,4013.99 L 7609.25,4305.32 Z " />
<path stroke="transparent" fill="#000000" transform="matrix(0.0833333 0 0 0.0833333 -233.208 -187)" d="M 7104.66,4013.99 L 7084.66,4013.99 L 7084.66,4002.45 L 7594.25,3708.24 L 7614.25,3719.78 L 7104.66,4013.99 Z " />
<path stroke="transparent" fill="#000000" transform="matrix(0.0833333 0 0 0.0833333 -233.208 -187)" d="M 7614.25,3719.78 L 7594.25,3708.24 L 7594.25,3119.81 L 7614.25,3108.26 L 7614.25,3719.78 Z " />
<path stroke="transparent" fill="#000000" transform="matrix(0.0833333 0 0 0.0833333 -233.208 -187)" d="M 7614.25,3108.26 L 7594.25,3119.81 L 7084.66,2825.56 L 7084.66,2814.01 L 7098.32,2810.35 L 7614.25,3108.26 Z " />
<path stroke="transparent" fill="#000000" transform="matrix(0.0833333 0 0 0.0833333 -233.208 -187)" d="M 7375.99,2289.43 L 7393.31,2299.43 L 7098.32,2810.35 L 7084.66,2814.01 L 7084.66,2794.01 L 7375.99,2289.43 Z " />
<path stroke="transparent" fill="#000000" transform="matrix(0.0833333 0 0 0.0833333 -233.208 -187)" d="M 7084.66,2794.01 L 7084.66,2814.01 L 7071,2810.35 L 6775.98,2299.43 L 6793.3,2289.43 L 7084.66,2794.01 Z " />
<text x="0" y="0" stroke="transparent" fill="#000000" transform="matrix(0.0833333 0 0 0.0833333 4.27108 303.996)" style="font:normal normal normal 200px 'Arial'" >
O</text>
</svg>
