<?xml version="1.0" standalone="no" ?>
<!DOCTYPE svg PUBLIC "-//W3C//DTD SVG 1.1//EN" "http://www.w3.org/Graphics/SVG/1.1/DTD/svg11.dtd">
<svg width="186px" height="211px" viewBox="0 0 186 211" style="background-color: #ffffff00" xmlns="http://www.w3.org/2000/svg" xmlns:xlink="http://www.w3.org/1999/xlink" version="1.1" >
<text x="0" y="0" stroke="transparent" fill="#000000" transform="matrix(0.0833333 0 0 0.0833333 69.9039 122.853)" style="font:normal normal normal 200px 'Arial'" >
NH</text>
<text x="0" y="0" stroke="transparent" fill="#000000" transform="matrix(0.0833333 0 0 0.0833333 117.022 206.999)" style="font:normal normal normal 200px 'Arial'" >
OH</text>
<text x="0" y="0" stroke="transparent" fill="#000000" transform="matrix(0.0833333 0 0 0.0833333 157.537 122.853)" style="font:normal normal normal 200px 'Arial'" >
OH</text>
<text x="0" y="0" stroke="transparent" fill="#000000" transform="matrix(0.0833333 0 0 0.0833333 117.022 38.7138)" style="font:normal normal normal 200px 'Arial'" >
OH</text>
<text x="0" y="0" stroke="transparent" fill="#000000" transform="matrix(0.0833333 0 0 0.0833333 13.9375 17.932)" style="font:normal normal normal 200px 'Arial'" >
HO</text>
<path stroke="transparent" fill="#000000" transform="matrix(0.0833333 0 0 0.0833333 -342.875 -263)" d="M 4158.62,4247.42 L 4178.62,4257.05 L 4178.62,4847.42 L 4158.62,4857.05 L 4158.62,4247.42 Z " />
<path stroke="transparent" fill="#000000" transform="matrix(0.0833333 0 0 0.0833333 -342.875 -263)" d="M 4626.56,3874.3 L 4637.71,3878.2 L 4634.13,3893.84 L 4178.62,4257.05 L 4158.62,4247.42 L 4626.56,3874.3 Z " />
<path stroke="transparent" fill="#000000" transform="matrix(0.0833333 0 0 0.0833333 -342.875 -263)" d="M 5229.58,4002.98 L 5215.74,4020.33 L 4660.27,3893.61 L 4637.71,3878.2 L 4646.06,3869.85 L 5229.58,4002.98 Z " />
<path stroke="transparent" fill="#000000" transform="matrix(0.0833333 0 0 0.0833333 -342.875 -263)" d="M 5494.05,4552.24 L 5471.85,4552.24 L 5215.74,4020.33 L 5229.58,4002.98 L 5494.05,4552.24 Z " />
<path stroke="transparent" fill="#000000" transform="matrix(0.0833333 0 0 0.0833333 -342.875 -263)" d="M 5234.68,5090.89 L 5222.66,5092.82 L 5215.74,5084.14 L 5471.85,4552.24 L 5494.05,4552.24 L 5234.68,5090.89 Z " />
<path stroke="transparent" fill="#000000" transform="matrix(0.0833333 0 0 0.0833333 -342.875 -263)" d="M 4635.24,5237.17 L 4637.71,5226.35 L 4660.32,5210.93 L 5215.74,5084.14 L 5222.66,5092.82 L 5218.1,5104.12 L 4635.24,5237.17 Z " />
<path stroke="transparent" fill="#000000" transform="matrix(0.0833333 0 0 0.0833333 -342.875 -263)" d="M 4634.12,5210.69 L 4637.71,5226.35 L 4635.24,5237.17 L 4158.62,4857.05 L 4178.62,4847.42 L 4634.12,5210.69 Z " />
<path stroke="transparent" fill="#000000" transform="matrix(0.0833333 0 0 0.0833333 -342.875 -263)" d="M 4906.06,4639.32 L 5010.09,4699.14 L 4660.32,5210.93 L 4637.71,5226.35 L 4634.12,5210.69 L 4906.06,4639.32 L 4906.06,4639.32 Z " />
<path stroke="transparent" fill="#000000" transform="matrix(0.0833333 0 0 0.0833333 -342.875 -263)" d="M 5016.42,4416.36 L 4912.39,4476.18 L 4634.13,3893.84 L 4637.71,3878.2 L 4660.27,3893.61 L 5016.42,4416.36 L 5016.42,4416.36 Z " />
<path stroke="transparent" fill="#000000" transform="matrix(0.0833333 0 0 0.0833333 -342.875 -263)" d="M 5577.18,5441.18 L 5483.35,5515.99 L 5218.1,5104.12 L 5222.66,5092.82 L 5234.68,5090.89 L 5577.18,5441.18 Z " />
<path stroke="transparent" fill="#000000" transform="matrix(0.0833333 0 0 0.0833333 -342.875 -263)" d="M 5974.95,4492.24 L 5974.95,4612.24 L 5954.95,4609.95 L 5954.95,4494.52 L 5974.95,4492.24 Z " />
<path stroke="transparent" fill="#000000" transform="matrix(0.0833333 0 0 0.0833333 -342.875 -263)" d="M 5915.25,4499.05 L 5915.25,4605.42 L 5895.25,4603.14 L 5895.25,4501.34 L 5915.25,4499.05 Z " />
<path stroke="transparent" fill="#000000" transform="matrix(0.0833333 0 0 0.0833333 -342.875 -263)" d="M 5855.55,4505.87 L 5855.55,4598.6 L 5835.55,4596.32 L 5835.55,4508.15 L 5855.55,4505.87 Z " />
<path stroke="transparent" fill="#000000" transform="matrix(0.0833333 0 0 0.0833333 -342.875 -263)" d="M 5795.85,4512.69 L 5795.85,4591.79 L 5775.85,4589.5 L 5775.85,4514.97 L 5795.85,4512.69 Z " />
<path stroke="transparent" fill="#000000" transform="matrix(0.0833333 0 0 0.0833333 -342.875 -263)" d="M 5736.15,4519.5 L 5736.15,4584.97 L 5716.15,4582.69 L 5716.15,4521.79 L 5736.15,4519.5 Z " />
<path stroke="transparent" fill="#000000" transform="matrix(0.0833333 0 0 0.0833333 -342.875 -263)" d="M 5676.45,4526.32 L 5676.45,4578.15 L 5656.45,4575.87 L 5656.45,4528.6 L 5676.45,4526.32 Z " />
<path stroke="transparent" fill="#000000" transform="matrix(0.0833333 0 0 0.0833333 -342.875 -263)" d="M 5616.76,4533.14 L 5616.76,4571.34 L 5596.76,4569.05 L 5596.76,4535.42 L 5616.76,4533.14 Z " />
<path stroke="transparent" fill="#000000" transform="matrix(0.0833333 0 0 0.0833333 -342.875 -263)" d="M 5557.06,4539.95 L 5557.06,4564.52 L 5537.06,4562.24 L 5537.06,4542.24 L 5557.06,4539.95 Z " />
<path stroke="transparent" fill="#000000" transform="matrix(0.0833333 0 0 0.0833333 -342.875 -263)" d="M 5475.23,3598.73 L 5569.05,3673.55 L 5554.74,3687.72 L 5464.59,3615.83 L 5475.23,3598.73 Z " />
<path stroke="transparent" fill="#000000" transform="matrix(0.0833333 0 0 0.0833333 -342.875 -263)" d="M 5444.36,3648.35 L 5527.54,3714.68 L 5513.23,3728.85 L 5433.73,3665.45 L 5444.36,3648.35 Z " />
<path stroke="transparent" fill="#000000" transform="matrix(0.0833333 0 0 0.0833333 -342.875 -263)" d="M 5413.5,3697.97 L 5486.03,3755.81 L 5471.72,3769.99 L 5402.86,3715.07 L 5413.5,3697.97 Z " />
<path stroke="transparent" fill="#000000" transform="matrix(0.0833333 0 0 0.0833333 -342.875 -263)" d="M 5382.63,3747.59 L 5444.51,3796.94 L 5430.21,3811.12 L 5372,3764.69 L 5382.63,3747.59 Z " />
<path stroke="transparent" fill="#000000" transform="matrix(0.0833333 0 0 0.0833333 -342.875 -263)" d="M 5351.77,3797.21 L 5403,3838.08 L 5388.7,3852.25 L 5341.13,3814.31 L 5351.77,3797.21 Z " />
<path stroke="transparent" fill="#000000" transform="matrix(0.0833333 0 0 0.0833333 -342.875 -263)" d="M 5320.9,3846.83 L 5361.49,3879.21 L 5347.19,3893.38 L 5310.26,3863.93 L 5320.9,3846.83 Z " />
<path stroke="transparent" fill="#000000" transform="matrix(0.0833333 0 0 0.0833333 -342.875 -263)" d="M 5290.03,3896.45 L 5319.98,3920.34 L 5305.68,3934.51 L 5279.4,3913.55 L 5290.03,3896.45 Z " />
<path stroke="transparent" fill="#000000" transform="matrix(0.0833333 0 0 0.0833333 -342.875 -263)" d="M 5259.17,3946.08 L 5278.47,3961.47 L 5264.17,3975.65 L 5248.53,3963.17 L 5259.17,3946.08 Z " />
<path stroke="transparent" fill="#000000" transform="matrix(0.0833333 0 0 0.0833333 -342.875 -263)" d="M 4521.62,3414.53 L 4541.12,3410.08 L 4646.06,3869.85 L 4637.71,3878.2 L 4626.56,3874.3 L 4521.62,3414.53 Z " />
</svg>
