<?xml version="1.0"?><svg xmlns="http://www.w3.org/2000/svg" xmlns:xlink="http://www.w3.org/1999/xlink" viewBox="139.72 139.64 248.22 98.77" preserveAspectRatio="xMidYMid" width="100%" height="100%"><clipPath id="32"><rect x="0.5" y="0.5" width="522.2" height="768.8" /></clipPath><g id="drawing"><rect x="139.72" y="139.64" width="100%" height="100%" fill="rgb(255, 255, 255)" /><g id="page" clip-path="url(#32)"><g><text xml:space="preserve" text-anchor="start" text-rendering="geometricPrecision"><tspan x="344.16" y="196.5" font-family="Arial" font-size="10" fill="rgb(0, 0, 0)">OH</tspan></text></g><g><text xml:space="preserve" text-anchor="start" text-rendering="geometricPrecision"><tspan x="318.17" y="151.5" font-family="Arial" font-size="10" fill="rgb(0, 0, 0)">O</tspan></text></g><g><text xml:space="preserve" text-anchor="start" text-rendering="geometricPrecision"><tspan x="266.53" y="173.06" font-family="Arial" font-size="10" fill="rgb(0, 0, 0)">H</tspan><tspan x="266.53" y="183.25" font-family="Arial" font-size="10" fill="rgb(0, 0, 0)">N</tspan></text></g><g><text xml:space="preserve" text-anchor="start" text-rendering="geometricPrecision"><tspan x="240.23" y="226.5" font-family="Arial" font-size="10" fill="rgb(0, 0, 0)">O</tspan></text></g><g id="Solid"><path d="M296.1 193.41 L296.1 193.41 L296.1 192.83 L296.1 192.25 L322.08 177.25 L322.08 177.83 L322.08 178.41 Z" stroke="rgb(0, 0, 0)" stroke-width="0" fill-rule="evenodd" stroke-linejoin="miter" fill="rgb(0, 0, 0)" shape-rendering="geometricPrecision" /></g><g id="Solid"><line x1="323.88" y1="153.7" x2="323.88" y2="177.83" stroke="rgb(0, 0, 0)" stroke-width="1" shape-rendering="auto" /><path d="M320.78 153.7 L320.78 153.7 L319.78 153.7 L319.78 179.74 L320.78 179.16 Z" stroke="rgb(0, 0, 0)" stroke-width="0" fill-rule="evenodd" stroke-linejoin="miter" fill="rgb(0, 0, 0)" shape-rendering="geometricPrecision" /><path d="M324.38 153.7 L324.38 153.7 L323.38 153.7 L323.38 179.16 L324.38 179.74 Z" stroke="rgb(0, 0, 0)" stroke-width="0" fill-rule="evenodd" stroke-linejoin="miter" fill="rgb(0, 0, 0)" shape-rendering="geometricPrecision" /></g><g id="Solid"><path d="M343.42 189.57 L343.42 189.57 L343.17 190.01 L342.92 190.44 L322.08 178.41 L322.08 177.83 L322.08 177.25 Z" stroke="rgb(0, 0, 0)" stroke-width="0" fill-rule="evenodd" stroke-linejoin="miter" fill="rgb(0, 0, 0)" shape-rendering="geometricPrecision" /></g><g id="Solid"><path d="M296.1 192.25 L296.1 192.25 L296.1 192.83 L296.1 193.41 L274.48 180.93 L274.73 180.49 L274.98 180.06 Z" stroke="rgb(0, 0, 0)" stroke-width="0" fill-rule="evenodd" stroke-linejoin="miter" fill="rgb(0, 0, 0)" shape-rendering="geometricPrecision" /></g><g id="Solid"><path d="M265.32 180.03 L265.32 180.03 L265.57 180.46 L265.82 180.89 L244.14 193.41 L244.14 192.83 L244.14 192.25 Z" stroke="rgb(0, 0, 0)" stroke-width="0" fill-rule="evenodd" stroke-linejoin="miter" fill="rgb(0, 0, 0)" shape-rendering="geometricPrecision" /></g><g id="Solid"><line x1="245.94" y1="192.83" x2="245.94" y2="217.3" stroke="rgb(0, 0, 0)" stroke-width="1" shape-rendering="auto" /><path d="M242.84 192.66 L242.84 192.66 L241.84 192.08 L241.84 217.3 L242.84 217.3 Z" stroke="rgb(0, 0, 0)" stroke-width="0" fill-rule="evenodd" stroke-linejoin="miter" fill="rgb(0, 0, 0)" shape-rendering="geometricPrecision" /><path d="M246.44 192.08 L246.44 192.08 L245.44 192.66 L245.44 217.3 L246.44 217.3 Z" stroke="rgb(0, 0, 0)" stroke-width="0" fill-rule="evenodd" stroke-linejoin="miter" fill="rgb(0, 0, 0)" shape-rendering="geometricPrecision" /></g><g id="Solid"><path d="M244.14 192.25 L244.14 192.25 L244.14 192.83 L244.14 193.41 L218.16 178.41 L218.16 177.83 L218.16 177.25 Z" stroke="rgb(0, 0, 0)" stroke-width="0" fill-rule="evenodd" stroke-linejoin="miter" fill="rgb(0, 0, 0)" shape-rendering="geometricPrecision" /></g><g id="Solid"><path d="M218.16 177.25 L218.16 177.25 L218.16 177.83 L218.16 178.41 L192.68 193.12 L192.18 192.83 L192.18 192.25 Z" stroke="rgb(0, 0, 0)" stroke-width="0" fill-rule="evenodd" stroke-linejoin="miter" fill="rgb(0, 0, 0)" shape-rendering="geometricPrecision" /></g><g id="Solid"><path d="M192.68 223.12 L192.68 223.12 L192.18 222.83 L191.68 222.54 L191.68 193.12 L192.18 192.83 L192.68 193.12 Z" stroke="rgb(0, 0, 0)" stroke-width="0" fill-rule="evenodd" stroke-linejoin="miter" fill="rgb(0, 0, 0)" shape-rendering="geometricPrecision" /><line x1="188.58" y1="220.75" x2="188.58" y2="194.91" stroke="rgb(0, 0, 0)" stroke-width="1" shape-rendering="auto" /></g><g id="Solid"><path d="M166.2 178.41 L166.2 178.41 L166.2 177.83 L166.2 177.25 L192.18 192.25 L192.18 192.83 L191.68 193.12 Z" stroke="rgb(0, 0, 0)" stroke-width="0" fill-rule="evenodd" stroke-linejoin="miter" fill="rgb(0, 0, 0)" shape-rendering="geometricPrecision" /></g><g id="Solid"><path d="M166.2 177.25 L166.2 177.25 L166.2 177.83 L166.2 178.41 L140.72 193.12 L140.22 192.83 L139.72 192.54 Z" stroke="rgb(0, 0, 0)" stroke-width="0" fill-rule="evenodd" stroke-linejoin="miter" fill="rgb(0, 0, 0)" shape-rendering="geometricPrecision" /><line x1="166.2" y1="181.99" x2="143.82" y2="194.91" stroke="rgb(0, 0, 0)" stroke-width="1" shape-rendering="auto" /></g><g id="Solid"><path d="M139.72 192.54 L139.72 192.54 L140.22 192.83 L140.72 193.12 L140.72 222.54 L140.22 222.83 L139.72 223.12 Z" stroke="rgb(0, 0, 0)" stroke-width="0" fill-rule="evenodd" stroke-linejoin="miter" fill="rgb(0, 0, 0)" shape-rendering="geometricPrecision" /></g><g id="Solid"><path d="M139.72 223.12 L139.72 223.12 L140.22 222.83 L140.72 222.54 L166.2 237.25 L166.2 237.83 L166.2 238.41 Z" stroke="rgb(0, 0, 0)" stroke-width="0" fill-rule="evenodd" stroke-linejoin="miter" fill="rgb(0, 0, 0)" shape-rendering="geometricPrecision" /><line x1="143.82" y1="220.75" x2="166.2" y2="233.67" stroke="rgb(0, 0, 0)" stroke-width="1" shape-rendering="auto" /></g><g id="Solid"><path d="M166.2 238.41 L166.2 238.41 L166.2 237.83 L166.2 237.25 L191.68 222.54 L192.18 222.83 L192.68 223.12 Z" stroke="rgb(0, 0, 0)" stroke-width="0" fill-rule="evenodd" stroke-linejoin="miter" fill="rgb(0, 0, 0)" shape-rendering="geometricPrecision" /></g><path d="M354.12 140.64 L382.94 140.64 Q386.94 140.64 386.94 144.64 L386.94 154.31 Q386.94 158.31 382.94 158.31 L354.12 158.31 Q350.12 158.31 350.12 154.31 L350.12 144.64 Q350.12 140.64 354.12 140.64 " stroke="rgb(0, 0, 0)" stroke-width="1" fill-rule="evenodd" stroke-linejoin="round" fill="none" shape-rendering="geometricPrecision" /><g><text xml:space="preserve" text-anchor="start" text-rendering="geometricPrecision"><tspan x="353.58" y="154.85" font-family="Times New Roman" font-size="12" fill="rgb(0, 0, 0)">Chiral</tspan></text></g></g></g></svg>