<?xml version="1.0" standalone="no" ?>
<!DOCTYPE svg PUBLIC "-//W3C//DTD SVG 1.1//EN" "http://www.w3.org/Graphics/SVG/1.1/DTD/svg11.dtd">
<svg width="432px" height="299px" viewBox="0 0 432 299" style="background-color: #ffffff00" xmlns="http://www.w3.org/2000/svg" xmlns:xlink="http://www.w3.org/1999/xlink" version="1.1" >
<text x="0" y="0" stroke="transparent" fill="#000000" transform="matrix(0.0833333 0 0 0.0833333 200.846 106.752)" style="font:normal normal normal 200px 'Arial'" >
N</text>
<text x="0" y="0" stroke="transparent" fill="#000000" transform="matrix(0.0833333 0 0 0.0833333 3.56586 201.592)" style="font:normal normal normal 200px 'Arial'" >
O</text>
<text x="0" y="0" stroke="transparent" fill="#000000" transform="matrix(0.0833333 0 0 0.0833333 91.5708 187.657)" style="font:normal normal normal 200px 'Arial'" >
O</text>
<text x="0" y="0" stroke="transparent" fill="#000000" transform="matrix(0.0833333 0 0 0.0833333 376.321 294.642)" style="font:normal normal normal 200px 'Arial'" >
O</text>
<text x="0" y="0" stroke="transparent" fill="#000000" transform="matrix(0.0833333 0 0 0.0833333 371.656 205.662)" style="font:normal normal normal 200px 'Arial'" >
O</text>
<path stroke="transparent" fill="#000000" transform="matrix(0.0833333 0 0 0.0833333 -220.208 -210)" d="M 7254.11,3620.03 L 7254.11,3596.94 L 7778.71,3899.82 L 7768.71,3917.14 L 7254.11,3620.03 Z " />
<path stroke="transparent" fill="#000000" transform="matrix(0.0833333 0 0 0.0833333 -220.208 -210)" d="M 6744.51,3914.26 L 6734.51,3908.48 L 6734.51,3896.94 L 7254.11,3596.94 L 7254.11,3620.03 L 6744.51,3914.26 Z " />
<path stroke="transparent" fill="#000000" transform="matrix(0.0833333 0 0 0.0833333 -220.208 -210)" d="M 6214.91,3620.03 L 6214.91,3608.48 L 6225.54,3603.07 L 6734.51,3896.94 L 6734.51,3908.48 L 6724.51,3914.26 L 6214.91,3620.03 Z " />
<path stroke="transparent" fill="#000000" transform="matrix(0.0833333 0 0 0.0833333 -220.208 -210)" d="M 6268.07,3011.83 L 6288.95,3004.54 L 6225.54,3603.07 L 6214.91,3608.48 L 6205.5,3602.37 L 6268.07,3011.83 Z " />
<path stroke="transparent" fill="#000000" transform="matrix(0.0833333 0 0 0.0833333 -220.208 -210)" d="M 5853.69,2591.19 L 5861.17,2570.3 L 6288.95,3004.54 L 6268.07,3011.83 L 5853.69,2591.19 Z " />
<path stroke="transparent" fill="#000000" transform="matrix(0.0833333 0 0 0.0833333 -220.208 -210)" d="M 5266.5,2652.95 L 5254.83,2634.06 L 5861.17,2570.3 L 5853.69,2591.19 L 5266.5,2652.95 Z " />
<path stroke="transparent" fill="#000000" transform="matrix(0.0833333 0 0 0.0833333 -220.208 -210)" d="M 4948.66,3150.52 L 4926.72,3147.73 L 5254.83,2634.06 L 5266.5,2652.95 L 4948.66,3150.52 Z " />
<path stroke="transparent" fill="#000000" transform="matrix(0.0833333 0 0 0.0833333 -220.208 -210)" d="M 5097.94,3608.75 L 5078.92,3614.94 L 4926.72,3147.73 L 4948.66,3150.52 L 5097.94,3608.75 Z " />
<path stroke="transparent" fill="#000000" transform="matrix(0.0833333 0 0 0.0833333 -220.208 -210)" d="M 4784.39,4208.42 L 4772.03,4208.42 L 4766.93,4198.42 L 5036.93,3826.76 L 5053.11,3838.51 L 4784.39,4208.42 Z " />
<path stroke="transparent" fill="#000000" transform="matrix(0.0833333 0 0 0.0833333 -220.208 -210)" d="M 4177.13,4218.42 L 4172.03,4208.42 L 4177.12,4198.42 L 4766.93,4198.42 L 4772.03,4208.42 L 4766.93,4218.42 L 4177.13,4218.42 Z " />
<path stroke="transparent" fill="#000000" transform="matrix(0.0833333 0 0 0.0833333 -220.208 -210)" d="M 3815.53,3734.78 L 3823.17,3711.27 L 4177.12,4198.42 L 4172.03,4208.42 L 4159.67,4208.42 L 3815.53,3734.78 Z " />
<path stroke="transparent" fill="#000000" transform="matrix(0.0833333 0 0 0.0833333 -220.208 -210)" d="M 3258.69,3915.69 L 3248.69,3908.42 L 3250.44,3897.34 L 3823.17,3711.27 L 3815.53,3734.78 L 3258.69,3915.69 Z " />
<path stroke="transparent" fill="#000000" transform="matrix(0.0833333 0 0 0.0833333 -220.208 -210)" d="M 2757.41,3563.96 L 2769.17,3547.77 L 3250.44,3897.34 L 3248.69,3908.42 L 3238.69,3913.52 L 2757.41,3563.96 Z " />
<path stroke="transparent" fill="#000000" transform="matrix(0.0833333 0 0 0.0833333 -220.208 -210)" d="M 3258.69,4501.16 L 3238.69,4515.69 L 3238.69,3913.52 L 3248.69,3908.42 L 3258.69,3915.69 L 3258.69,4501.16 Z " />
<path stroke="transparent" fill="#000000" transform="matrix(0.0833333 0 0 0.0833333 -220.208 -210)" d="M 2876.84,4835.46 L 2865.08,4819.28 L 3285.13,4514.09 L 3296.88,4530.27 L 2876.84,4835.46 Z " />
<path stroke="transparent" fill="#000000" transform="matrix(0.0833333 0 0 0.0833333 -220.208 -210)" d="M 2834.51,4777.22 L 2822.76,4761.04 L 3242.81,4455.84 L 3254.57,4472.02 L 2834.51,4777.22 Z " />
<path stroke="transparent" fill="#000000" transform="matrix(0.0833333 0 0 0.0833333 -220.208 -210)" d="M 3720.86,4651.36 L 3714.68,4670.38 L 3238.69,4515.69 L 3258.69,4501.16 L 3720.86,4651.36 Z " />
<path stroke="transparent" fill="#000000" transform="matrix(0.0833333 0 0 0.0833333 -220.208 -210)" d="M 3890.14,4613.46 L 3873.96,4601.71 L 4159.67,4208.42 L 4172.03,4208.42 L 4177.13,4218.42 L 3890.14,4613.46 Z " />
<path stroke="transparent" fill="#000000" transform="matrix(0.0833333 0 0 0.0833333 -220.208 -210)" d="M 5128.47,4682.13 L 5120.83,4705.64 L 4766.93,4218.42 L 4772.03,4208.42 L 4784.39,4208.42 L 5128.47,4682.13 Z " />
<path stroke="transparent" fill="#000000" transform="matrix(0.0833333 0 0 0.0833333 -220.208 -210)" d="M 5685.31,4501.16 L 5695.31,4508.42 L 5694.17,4519.31 L 5120.83,4705.64 L 5128.47,4682.13 L 5685.31,4501.16 Z " />
<path stroke="transparent" fill="#000000" transform="matrix(0.0833333 0 0 0.0833333 -220.208 -210)" d="M 6214.91,4796.88 L 6214.91,4808.42 L 6206.05,4814.86 L 5694.17,4519.31 L 5695.31,4508.42 L 5705.31,4502.65 L 6214.91,4796.88 Z " />
<path stroke="transparent" fill="#000000" transform="matrix(0.0833333 0 0 0.0833333 -220.208 -210)" d="M 6347.92,5386.16 L 6339.65,5395.34 L 6328.81,5392.44 L 6206.05,4814.86 L 6214.91,4808.42 L 6226.2,4813.45 L 6347.92,5386.16 Z " />
<path stroke="transparent" fill="#000000" transform="matrix(0.0833333 0 0 0.0833333 -220.208 -210)" d="M 5945.62,5847.9 L 5930.76,5834.51 L 6328.81,5392.44 L 6339.65,5395.34 L 6343.67,5405.82 L 5945.62,5847.9 Z " />
<path stroke="transparent" fill="#000000" transform="matrix(0.0833333 0 0 0.0833333 -220.208 -210)" d="M 6930.17,5447.34 L 6942.53,5468.75 L 6343.67,5405.82 L 6339.65,5395.34 L 6347.92,5386.16 L 6930.17,5447.34 Z " />
<path stroke="transparent" fill="#000000" transform="matrix(0.0833333 0 0 0.0833333 -220.208 -210)" d="M 7222.94,5862.46 L 7205.62,5872.46 L 6945.79,5422.39 L 6963.11,5412.39 L 7222.94,5862.46 Z " />
<path stroke="transparent" fill="#000000" transform="matrix(0.0833333 0 0 0.0833333 -220.208 -210)" d="M 7160.58,5898.46 L 7143.26,5908.46 L 6883.43,5458.39 L 6900.75,5448.39 L 7160.58,5898.46 Z " />
<path stroke="transparent" fill="#000000" transform="matrix(0.0833333 0 0 0.0833333 -220.208 -210)" d="M 7121.78,5016.95 L 7140.06,5025.08 L 6942.53,5468.75 L 6930.17,5447.34 L 7121.78,5016.95 Z " />
<path stroke="transparent" fill="#000000" transform="matrix(0.0833333 0 0 0.0833333 -220.208 -210)" d="M 6733.22,4520.72 L 6734.51,4508.42 L 6744.51,4503.97 L 7107.71,4831.05 L 7094.33,4845.92 L 6733.22,4520.72 Z " />
<path stroke="transparent" fill="#000000" transform="matrix(0.0833333 0 0 0.0833333 -220.208 -210)" d="M 6744.51,4503.97 L 6734.51,4508.42 L 6724.51,4502.65 L 6724.51,3914.26 L 6734.51,3908.48 L 6744.51,3914.26 L 6744.51,4503.97 Z " />
<path stroke="transparent" fill="#000000" transform="matrix(0.0833333 0 0 0.0833333 -220.208 -210)" d="M 6724.51,4502.65 L 6734.51,4508.42 L 6733.22,4520.72 L 6226.2,4813.45 L 6214.91,4808.42 L 6214.91,4796.88 L 6724.51,4502.65 Z " />
<path stroke="transparent" fill="#000000" transform="matrix(0.0833333 0 0 0.0833333 -220.208 -210)" d="M 5685.31,3915.69 L 5695.31,3908.42 L 5705.31,3914.2 L 5705.31,4502.65 L 5695.31,4508.42 L 5685.31,4501.16 L 5685.31,3915.69 Z " />
<path stroke="transparent" fill="#000000" transform="matrix(0.0833333 0 0 0.0833333 -220.208 -210)" d="M 5705.31,3914.2 L 5695.31,3908.42 L 5694.17,3897.54 L 6205.5,3602.37 L 6214.91,3608.48 L 6214.91,3620.03 L 5705.31,3914.2 Z " />
<path stroke="transparent" fill="#000000" transform="matrix(0.0833333 0 0 0.0833333 -220.208 -210)" d="M 5694.17,3897.54 L 5695.31,3908.42 L 5685.31,3915.69 L 5230.92,3768.07 L 5237.1,3749.04 L 5694.17,3897.54 Z " />
</svg>
