<?xml version="1.0" standalone="no" ?>
<!DOCTYPE svg PUBLIC "-//W3C//DTD SVG 1.1//EN" "http://www.w3.org/Graphics/SVG/1.1/DTD/svg11.dtd">
<svg width="144px" height="38px" viewBox="0 0 144 38" style="background-color: #ffffff00" xmlns="http://www.w3.org/2000/svg" xmlns:xlink="http://www.w3.org/1999/xlink" version="1.1" >
<text x="0" y="0" stroke="transparent" fill="#000000" transform="matrix(0.0666667 0 0 0.0666667 122.507 34.4944)" style="font:normal normal normal 200px 'Arial'" >
SH</text>
<text x="0" y="0" stroke="transparent" fill="#000000" transform="matrix(0.0666667 0 0 0.0666667 2.99774 14.4944)" style="font:normal normal normal 200px 'Arial'" >
H</text>
<text x="0" y="0" stroke="transparent" fill="#000000" transform="matrix(0.0666667 0 0 0.0666667 12.6266 17.4278)" style="font:normal normal normal 150px 'Arial'" >
2</text>
<text x="0" y="0" stroke="transparent" fill="#000000" transform="matrix(0.0666667 0 0 0.0666667 18.1882 14.4944)" style="font:normal normal normal 200px 'Arial'" >
N</text>
<path stroke="transparent" fill="#000000" transform="matrix(0.0666667 0 0 0.0666667 -277.787 -273)" d="M 5551.29,4222.87 L 5551.29,4245.96 L 5031.67,4545.96 L 5031.67,4522.87 L 5551.29,4222.87 Z " />
<path stroke="transparent" fill="#000000" transform="matrix(0.0666667 0 0 0.0666667 -277.787 -273)" d="M 5986.83,4474.33 L 5976.83,4491.65 L 5551.29,4245.96 L 5551.29,4222.87 L 5986.83,4474.33 Z " />
<path stroke="transparent" fill="#000000" transform="matrix(0.0666667 0 0 0.0666667 -277.787 -273)" d="M 4617.01,4306.56 L 4627.01,4289.24 L 5031.67,4522.87 L 5031.67,4545.96 L 4617.01,4306.56 Z " />
</svg>
