<?xml version="1.0" standalone="no" ?>
<!DOCTYPE svg PUBLIC "-//W3C//DTD SVG 1.1//EN" "http://www.w3.org/Graphics/SVG/1.1/DTD/svg11.dtd">
<svg width="234px" height="119px" viewBox="0 0 234 119" style="background-color: #ffffff00" xmlns="http://www.w3.org/2000/svg" xmlns:xlink="http://www.w3.org/1999/xlink" version="1.1" >
<text x="0" y="0" stroke="transparent" fill="#000000" transform="matrix(0.0666667 0 0 0.0666667 219.979 76.2307)" style="font:normal normal normal 200px 'Arial'" >
O</text>
<text x="0" y="0" stroke="transparent" fill="#000000" transform="matrix(0.0666667 0 0 0.0666667 151.881 114.718)" style="font:normal normal normal 200px 'Arial'" >
OH</text>
<text x="0" y="0" stroke="transparent" fill="#000000" transform="matrix(0.0666667 0 0 0.0666667 116.972 14.8541)" style="font:normal normal normal 200px 'Arial'" >
OH</text>
<text x="0" y="0" stroke="transparent" fill="#000000" transform="matrix(0.0666667 0 0 0.0666667 82.5868 115.29)" style="font:normal normal normal 200px 'Arial'" >
OH</text>
<text x="0" y="0" stroke="transparent" fill="#000000" transform="matrix(0.0666667 0 0 0.0666667 3.66341 75.8674)" style="font:normal normal normal 200px 'Arial'" >
HO</text>
<path stroke="transparent" fill="#000000" transform="matrix(0.0666667 0 0 0.0666667 -231.859 -206)" d="M 6349.99,3837.72 L 6349.77,3814.59 L 6785.45,4062.47 L 6775.55,4079.86 L 6349.99,3837.72 Z " />
<path stroke="transparent" fill="#000000" transform="matrix(0.0666667 0 0 0.0666667 -231.859 -206)" d="M 6345.73,3918.47 L 6355.62,3901.08 L 6749.7,4125.3 L 6739.81,4142.68 L 6345.73,3918.47 Z " />
<path stroke="transparent" fill="#000000" transform="matrix(0.0666667 0 0 0.0666667 -231.859 -206)" d="M 6349.77,3814.59 L 6349.99,3837.72 L 5844.64,4138.14 L 5834.1,4132.77 L 5833.99,4121.21 L 6349.77,3814.59 Z " />
<path stroke="transparent" fill="#000000" transform="matrix(0.0666667 0 0 0.0666667 -231.859 -206)" d="M 5894.1,4627.61 L 5774.1,4627.61 L 5823.54,4138.27 L 5834.1,4132.77 L 5844.64,4138.14 L 5894.1,4627.61 Z " />
<path stroke="transparent" fill="#000000" transform="matrix(0.0666667 0 0 0.0666667 -231.859 -206)" d="M 5833.99,4121.21 L 5834.1,4132.77 L 5823.54,4138.27 L 5310.57,3846.38 L 5310.35,3823.24 L 5833.99,4121.21 Z " />
<path stroke="transparent" fill="#000000" transform="matrix(0.0666667 0 0 0.0666667 -231.859 -206)" d="M 5250.46,3354.65 L 5370.46,3354.65 L 5368.12,3374.65 L 5252.81,3374.65 L 5250.46,3354.65 Z " />
<path stroke="transparent" fill="#000000" transform="matrix(0.0666667 0 0 0.0666667 -231.859 -206)" d="M 5257.27,3412.67 L 5363.65,3412.67 L 5361.31,3432.67 L 5259.62,3432.67 L 5257.27,3412.67 Z " />
<path stroke="transparent" fill="#000000" transform="matrix(0.0666667 0 0 0.0666667 -231.859 -206)" d="M 5264.08,3470.69 L 5356.85,3470.69 L 5354.5,3490.69 L 5266.42,3490.69 L 5264.08,3470.69 Z " />
<path stroke="transparent" fill="#000000" transform="matrix(0.0666667 0 0 0.0666667 -231.859 -206)" d="M 5270.89,3528.71 L 5350.04,3528.71 L 5347.69,3548.71 L 5273.23,3548.71 L 5270.89,3528.71 Z " />
<path stroke="transparent" fill="#000000" transform="matrix(0.0666667 0 0 0.0666667 -231.859 -206)" d="M 5277.69,3586.73 L 5343.23,3586.73 L 5340.89,3606.73 L 5280.04,3606.73 L 5277.69,3586.73 Z " />
<path stroke="transparent" fill="#000000" transform="matrix(0.0666667 0 0 0.0666667 -231.859 -206)" d="M 5284.5,3644.75 L 5336.42,3644.75 L 5334.08,3664.75 L 5286.85,3664.75 L 5284.5,3644.75 Z " />
<path stroke="transparent" fill="#000000" transform="matrix(0.0666667 0 0 0.0666667 -231.859 -206)" d="M 5291.31,3702.77 L 5329.62,3702.77 L 5327.27,3722.77 L 5293.65,3722.77 L 5291.31,3702.77 Z " />
<path stroke="transparent" fill="#000000" transform="matrix(0.0666667 0 0 0.0666667 -231.859 -206)" d="M 5298.12,3760.79 L 5322.81,3760.79 L 5320.46,3780.79 L 5300.46,3780.79 L 5298.12,3760.79 Z " />
<path stroke="transparent" fill="#000000" transform="matrix(0.0666667 0 0 0.0666667 -231.859 -206)" d="M 5310.35,3823.24 L 5310.57,3846.38 L 4794.79,4152.92 L 4794.57,4129.79 L 5310.35,3823.24 Z " />
<path stroke="transparent" fill="#000000" transform="matrix(0.0666667 0 0 0.0666667 -231.859 -206)" d="M 4854.68,4636.19 L 4734.68,4636.19 L 4736.95,4616.19 L 4852.41,4616.19 L 4854.68,4636.19 Z " />
<path stroke="transparent" fill="#000000" transform="matrix(0.0666667 0 0 0.0666667 -231.859 -206)" d="M 4847.86,4576.08 L 4741.5,4576.08 L 4743.77,4556.08 L 4845.59,4556.08 L 4847.86,4576.08 Z " />
<path stroke="transparent" fill="#000000" transform="matrix(0.0666667 0 0 0.0666667 -231.859 -206)" d="M 4841.04,4515.98 L 4748.32,4515.98 L 4750.59,4495.98 L 4838.78,4495.98 L 4841.04,4515.98 Z " />
<path stroke="transparent" fill="#000000" transform="matrix(0.0666667 0 0 0.0666667 -231.859 -206)" d="M 4834.23,4455.87 L 4755.14,4455.87 L 4757.41,4435.87 L 4831.96,4435.87 L 4834.23,4455.87 Z " />
<path stroke="transparent" fill="#000000" transform="matrix(0.0666667 0 0 0.0666667 -231.859 -206)" d="M 4827.41,4395.76 L 4761.96,4395.76 L 4764.23,4375.76 L 4825.14,4375.76 L 4827.41,4395.76 Z " />
<path stroke="transparent" fill="#000000" transform="matrix(0.0666667 0 0 0.0666667 -231.859 -206)" d="M 4820.59,4335.66 L 4768.78,4335.66 L 4771.04,4315.66 L 4818.32,4315.66 L 4820.59,4335.66 Z " />
<path stroke="transparent" fill="#000000" transform="matrix(0.0666667 0 0 0.0666667 -231.859 -206)" d="M 4813.77,4275.55 L 4775.59,4275.55 L 4777.86,4255.55 L 4811.5,4255.55 L 4813.77,4275.55 Z " />
<path stroke="transparent" fill="#000000" transform="matrix(0.0666667 0 0 0.0666667 -231.859 -206)" d="M 4806.95,4215.45 L 4782.41,4215.45 L 4784.68,4195.45 L 4804.68,4195.45 L 4806.95,4215.45 Z " />
<path stroke="transparent" fill="#000000" transform="matrix(0.0666667 0 0 0.0666667 -231.859 -206)" d="M 4794.57,4129.79 L 4794.79,4152.92 L 4271.16,3855.03 L 4270.94,3831.9 L 4794.57,4129.79 Z " />
<path stroke="transparent" fill="#000000" transform="matrix(0.0666667 0 0 0.0666667 -231.859 -206)" d="M 4270.94,3831.9 L 4271.16,3855.03 L 3852.3,4103.97 L 3842.09,4086.78 L 4270.94,3831.9 Z " />
</svg>
