<?xml version="1.0" standalone="no" ?>
<!DOCTYPE svg PUBLIC "-//W3C//DTD SVG 1.1//EN" "http://www.w3.org/Graphics/SVG/1.1/DTD/svg11.dtd">
<svg width="394px" height="283px" viewBox="0 0 394 283" style="background-color: #ffffff00" xmlns="http://www.w3.org/2000/svg" xmlns:xlink="http://www.w3.org/1999/xlink" version="1.1" >
<text x="0" y="0" stroke="transparent" fill="#000000" transform="matrix(0.0833333 0 0 0.0833333 238.162 18.3586)" style="font:normal normal normal 200px 'Arial'" >
O</text>
<text x="0" y="0" stroke="transparent" fill="#000000" transform="matrix(0.0833333 0 0 0.0833333 308.221 69.2606)" style="font:normal normal normal 200px 'Arial'" >
O</text>
<text x="0" y="0" stroke="transparent" fill="#000000" transform="matrix(0.0833333 0 0 0.0833333 337.515 195.392)" style="font:normal normal normal 200px 'Arial'" >
N</text>
<text x="0" y="0" stroke="transparent" fill="#000000" transform="matrix(0.0833333 0 0 0.0833333 349.551 188.892)" style="font:normal normal normal 150px 'Arial'" >
+</text>
<text x="0" y="0" stroke="transparent" fill="#000000" transform="matrix(0.0833333 0 0 0.0833333 171.285 178.574)" style="font:normal normal normal 200px 'Arial'" >
O</text>
<text x="0" y="0" stroke="transparent" fill="#000000" transform="matrix(0.0833333 0 0 0.0833333 127.982 103.575)" style="font:normal normal normal 200px 'Arial'" >
O</text>
<text x="0" y="0" stroke="transparent" fill="#000000" transform="matrix(0.0833333 0 0 0.0833333 41.384 103.575)" style="font:normal normal normal 200px 'Arial'" >
OH</text>
<text x="0" y="0" stroke="transparent" fill="#000000" transform="matrix(0.0833333 0 0 0.0833333 84.6801 278.572)" style="font:normal normal normal 200px 'Arial'" >
OH</text>
<text x="0" y="0" stroke="transparent" fill="#000000" transform="matrix(0.0833333 0 0 0.0833333 84.6801 128.575)" style="font:normal normal normal 200px 'Arial'" >
OH</text>
<text x="0" y="0" stroke="transparent" fill="#000000" transform="matrix(0.0833333 0 0 0.0833333 370.475 232.549)" style="font:normal normal normal 200px 'Arial'" >
O</text>
<text x="0" y="0" stroke="transparent" fill="#000000" transform="matrix(0.0833333 0 0 0.0833333 383.475 226.049)" style="font:normal normal normal 150px 'Arial'" >
-</text>
<path stroke="transparent" fill="#000000" transform="matrix(0.0833333 0 0 0.0833333 -238.875 -227)" d="M 5103.94,3827.78 L 5090.36,3846.46 L 4843.95,3293.05 L 4862.22,3284.92 L 5103.94,3827.78 Z " />
<path stroke="transparent" fill="#000000" transform="matrix(0.0833333 0 0 0.0833333 -238.875 -227)" d="M 5689.1,3889.26 L 5693.79,3899.81 L 5687.01,3909.15 L 5090.36,3846.46 L 5103.94,3827.78 L 5689.1,3889.26 Z " />
<path stroke="transparent" fill="#000000" transform="matrix(0.0833333 0 0 0.0833333 -238.875 -227)" d="M 5661.03,3813.93 L 5658.94,3833.82 L 5144.96,3779.81 L 5147.05,3759.92 L 5661.03,3813.93 Z " />
<path stroke="transparent" fill="#000000" transform="matrix(0.0833333 0 0 0.0833333 -238.875 -227)" d="M 5947,4443.88 L 5928.73,4452.01 L 5687.01,3909.15 L 5693.79,3899.81 L 5705.28,3901.02 L 5947,4443.88 Z " />
<path stroke="transparent" fill="#000000" transform="matrix(0.0833333 0 0 0.0833333 -238.875 -227)" d="M 6041.82,3403.89 L 6051.21,3424.99 L 5705.28,3901.02 L 5693.79,3899.81 L 5689.1,3889.26 L 6041.82,3403.89 Z " />
<path stroke="transparent" fill="#000000" transform="matrix(0.0833333 0 0 0.0833333 -238.875 -227)" d="M 5809.88,2996.08 L 5828.15,2987.95 L 6031.21,3444 L 6012.94,3452.13 L 5809.88,2996.08 Z " />
<path stroke="transparent" fill="#000000" transform="matrix(0.0833333 0 0 0.0833333 -238.875 -227)" d="M 5875.65,2966.79 L 5893.92,2958.66 L 6096.99,3414.71 L 6078.72,3422.85 L 5875.65,2966.79 Z " />
<path stroke="transparent" fill="#000000" transform="matrix(0.0833333 0 0 0.0833333 -238.875 -227)" d="M 6537.16,3455.94 L 6535.07,3475.83 L 6051.21,3424.99 L 6041.82,3403.89 L 6537.16,3455.94 Z " />
<path stroke="transparent" fill="#000000" transform="matrix(0.0833333 0 0 0.0833333 -238.875 -227)" d="M 6894.29,4016.54 L 6887.23,4025.26 L 6876.02,4024.68 L 6683.48,3592.26 L 6701.75,3584.13 L 6894.29,4016.54 Z " />
<path stroke="transparent" fill="#000000" transform="matrix(0.0833333 0 0 0.0833333 -238.875 -227)" d="M 7483.31,4141.72 L 7464.94,4158.26 L 6892.25,4036.55 L 6887.23,4025.26 L 6894.29,4016.54 L 7483.31,4141.72 Z " />
<path stroke="transparent" fill="#000000" transform="matrix(0.0833333 0 0 0.0833333 -238.875 -227)" d="M 7547.52,4752.89 L 7526.11,4740.52 L 7464.94,4158.26 L 7483.31,4141.72 L 7547.52,4752.89 Z " />
<path stroke="transparent" fill="#000000" transform="matrix(0.0833333 0 0 0.0833333 -238.875 -227)" d="M 7176.74,4917.93 L 7168.61,4899.66 L 7526.11,4740.52 L 7547.52,4752.89 L 7176.74,4917.93 Z " />
<path stroke="transparent" fill="#000000" transform="matrix(0.0833333 0 0 0.0833333 -238.875 -227)" d="M 6584.66,4556.91 L 6587.23,4544.82 L 6599.52,4543.53 L 6913.11,4891.83 L 6898.25,4905.21 L 6584.66,4556.91 Z " />
<path stroke="transparent" fill="#000000" transform="matrix(0.0833333 0 0 0.0833333 -238.875 -227)" d="M 6599.52,4543.53 L 6587.23,4544.82 L 6580.2,4537 L 6876.02,4024.68 L 6887.23,4025.26 L 6892.25,4036.55 L 6599.52,4543.53 Z " />
<path stroke="transparent" fill="#000000" transform="matrix(0.0833333 0 0 0.0833333 -238.875 -227)" d="M 6049.8,4795.07 L 6039.1,4788.89 L 6039.68,4777.68 L 6580.2,4537 L 6587.23,4544.82 L 6584.66,4556.91 L 6049.8,4795.07 Z " />
<path stroke="transparent" fill="#000000" transform="matrix(0.0833333 0 0 0.0833333 -238.875 -227)" d="M 6111.04,5377.33 L 6092.67,5393.87 L 6029.68,4795 L 6039.1,4788.89 L 6049.8,4795.07 L 6111.04,5377.33 Z " />
<path stroke="transparent" fill="#000000" transform="matrix(0.0833333 0 0 0.0833333 -238.875 -227)" d="M 6177.94,5325 L 6158.05,5327.1 L 6106.23,4834.43 L 6126.12,4832.34 L 6177.94,5325 Z " />
<path stroke="transparent" fill="#000000" transform="matrix(0.0833333 0 0 0.0833333 -238.875 -227)" d="M 6683.66,5499.03 L 6693.71,5521.62 L 6092.67,5393.87 L 6111.04,5377.33 L 6683.66,5499.03 Z " />
<path stroke="transparent" fill="#000000" transform="matrix(0.0833333 0 0 0.0833333 -238.875 -227)" d="M 6693.71,5521.62 L 6683.66,5499.03 L 6912.53,5102.59 L 6929.86,5112.59 L 6693.71,5521.62 Z " />
<path stroke="transparent" fill="#000000" transform="matrix(0.0833333 0 0 0.0833333 -238.875 -227)" d="M 5519.54,4500.44 L 5519.54,4477.34 L 6039.68,4777.68 L 6039.1,4788.89 L 6029.68,4795 L 5519.54,4500.44 Z " />
<path stroke="transparent" fill="#000000" transform="matrix(0.0833333 0 0 0.0833333 -238.875 -227)" d="M 5097.53,4744.07 L 5087.53,4726.75 L 5519.54,4477.34 L 5519.54,4500.44 L 5097.53,4744.07 Z " />
<path stroke="transparent" fill="#000000" transform="matrix(0.0833333 0 0 0.0833333 -238.875 -227)" d="M 4480.29,4500.44 L 4480.29,4477.34 L 4912.3,4726.75 L 4902.3,4744.07 L 4480.29,4500.44 Z " />
<path stroke="transparent" fill="#000000" transform="matrix(0.0833333 0 0 0.0833333 -238.875 -227)" d="M 4434.29,4008.74 L 4454.29,4008.74 L 4454.29,4509.67 L 4434.29,4509.67 L 4434.29,4008.74 Z " />
<path stroke="transparent" fill="#000000" transform="matrix(0.0833333 0 0 0.0833333 -238.875 -227)" d="M 4506.29,4008.74 L 4526.29,4008.74 L 4526.29,4509.67 L 4506.29,4509.67 L 4506.29,4008.74 Z " />
<path stroke="transparent" fill="#000000" transform="matrix(0.0833333 0 0 0.0833333 -238.875 -227)" d="M 3970.66,4794.66 L 3960.66,4788.89 L 3970.66,4771.57 L 4480.29,4477.34 L 4480.29,4500.44 L 3970.66,4794.66 Z " />
<path stroke="transparent" fill="#000000" transform="matrix(0.0833333 0 0 0.0833333 -238.875 -227)" d="M 3441.11,4500.44 L 3441.11,4488.89 L 3451.11,4483.12 L 3950.66,4771.56 L 3960.66,4788.89 L 3950.66,4794.66 L 3441.11,4500.44 Z " />
<path stroke="transparent" fill="#000000" transform="matrix(0.0833333 0 0 0.0833333 -238.875 -227)" d="M 2926.48,4797.55 L 2916.48,4780.23 L 3431.11,4483.12 L 3441.11,4488.89 L 3441.11,4500.44 L 2926.48,4797.55 Z " />
<path stroke="transparent" fill="#000000" transform="matrix(0.0833333 0 0 0.0833333 -238.875 -227)" d="M 3431.11,4008.74 L 3451.11,4008.74 L 3451.11,4483.12 L 3441.11,4488.89 L 3431.11,4483.12 L 3431.11,4008.74 Z " />
<path stroke="transparent" fill="#000000" transform="matrix(0.0833333 0 0 0.0833333 -238.875 -227)" d="M 3970.66,5383.1 L 3960.66,5388.87 L 3950.66,5383.1 L 3950.66,4794.66 L 3960.66,4788.89 L 3970.66,4794.66 L 3970.66,5383.1 Z " />
<path stroke="transparent" fill="#000000" transform="matrix(0.0833333 0 0 0.0833333 -238.875 -227)" d="M 3446.11,5697.53 L 3436.11,5680.21 L 3950.66,5383.1 L 3960.66,5388.87 L 3950.66,5406.2 L 3446.11,5697.53 Z " />
<path stroke="transparent" fill="#000000" transform="matrix(0.0833333 0 0 0.0833333 -238.875 -227)" d="M 4485.29,5680.21 L 4475.29,5697.53 L 3970.66,5406.19 L 3960.66,5388.87 L 3970.66,5383.1 L 4485.29,5680.21 Z " />
<path stroke="transparent" fill="#000000" transform="matrix(0.0833333 0 0 0.0833333 -238.875 -227)" d="M 3970.66,5883.7 L 3950.66,5883.7 L 3950.66,5406.2 L 3960.66,5388.87 L 3970.66,5406.19 L 3970.66,5883.7 Z " />
<path stroke="transparent" fill="#000000" transform="matrix(0.0833333 0 0 0.0833333 -238.875 -227)" d="M 3950.66,4308.73 L 3970.66,4308.73 L 3970.66,4771.57 L 3960.66,4788.89 L 3950.66,4771.56 L 3950.66,4308.73 Z " />
<path stroke="transparent" fill="#000000" transform="matrix(0.0833333 0 0 0.0833333 -238.875 -227)" d="M 7326.21,5350.58 L 7311.35,5363.97 L 7071.55,5097.67 L 7086.41,5084.28 L 7326.21,5350.58 Z " />
</svg>
