<?xml version="1.0" standalone="no" ?>
<!DOCTYPE svg PUBLIC "-//W3C//DTD SVG 1.1//EN" "http://www.w3.org/Graphics/SVG/1.1/DTD/svg11.dtd">
<svg width="503px" height="353px" viewBox="0 0 503 353" style="background-color: #ffffff00" xmlns="http://www.w3.org/2000/svg" xmlns:xlink="http://www.w3.org/1999/xlink" version="1.1" >
<text x="0" y="0" stroke="transparent" fill="#000000" transform="matrix(0.0833333 0 0 0.0833333 364.309 231.207)" style="font:normal normal normal 200px 'Arial'" >
N</text>
<text x="0" y="0" stroke="transparent" fill="#000000" transform="matrix(0.0833333 0 0 0.0833333 73.0203 160.684)" style="font:normal normal normal 200px 'Arial'" >
O</text>
<text x="0" y="0" stroke="transparent" fill="#000000" transform="matrix(0.0833333 0 0 0.0833333 4.14522 98.724)" style="font:normal normal normal 200px 'Arial'" >
O</text>
<text x="0" y="0" stroke="transparent" fill="#000000" transform="matrix(0.0833333 0 0 0.0833333 169.882 17.7708)" style="font:normal normal normal 200px 'Arial'" >
OH</text>
<path stroke="transparent" fill="#000000" transform="matrix(0.0833333 0 0 0.0833333 -202.208 -186)" d="M 4999.47,3814.4 L 4996.53,3793.6 L 5525.9,3537.09 L 5525.05,3559.73 L 4999.47,3814.4 Z " />
<path stroke="transparent" fill="#000000" transform="matrix(0.0833333 0 0 0.0833333 -202.208 -186)" d="M 6358.67,4021.15 L 6355.98,4031.15 L 6343.91,4035.7 L 5525.05,3559.73 L 5525.9,3537.09 L 6358.67,4021.15 Z " />
<path stroke="transparent" fill="#000000" transform="matrix(0.0833333 0 0 0.0833333 -202.208 -186)" d="M 3892.64,3623.98 L 3882,3612 L 3888.94,3603.05 L 4495.22,3707.35 L 4490.79,3726.88 L 3892.64,3623.98 L 3892.64,3623.98 Z " />
<path stroke="transparent" fill="#000000" transform="matrix(0.0833333 0 0 0.0833333 -202.208 -186)" d="M 4996.53,3793.6 L 4999.47,3814.4 L 4589.48,3743.86 L 4593.91,3724.33 L 4996.53,3793.6 L 4996.53,3793.6 Z " />
<path stroke="transparent" fill="#000000" transform="matrix(0.0833333 0 0 0.0833333 -202.208 -186)" d="M 6365.98,4622.47 L 6355.98,4628.21 L 6345.98,4618.21 L 6345.98,4092.65 L 6355.98,4031.15 L 6365.98,4041.15 L 6365.98,4622.47 Z " />
<path stroke="transparent" fill="#000000" transform="matrix(0.0833333 0 0 0.0833333 -202.208 -186)" d="M 7380.11,4021.15 L 7382.83,4031.15 L 7372.83,4041.15 L 6365.98,4041.15 L 6355.98,4031.15 L 6358.67,4021.15 L 7380.11,4021.15 Z " />
<path stroke="transparent" fill="#000000" transform="matrix(0.0833333 0 0 0.0833333 -202.208 -186)" d="M 5770.26,5816.25 L 5756.37,5826.25 L 5750.78,5811.42 L 6129.3,4678.21 L 6150.39,4678.21 L 5770.26,5816.25 L 5770.26,5816.25 Z " />
<path stroke="transparent" fill="#000000" transform="matrix(0.0833333 0 0 0.0833333 -202.208 -186)" d="M 6343.91,4035.7 L 6355.98,4031.15 L 6345.98,4092.65 L 6183.79,4578.21 L 6162.7,4578.21 L 6343.91,4035.7 L 6343.91,4035.7 Z " />
<path stroke="transparent" fill="#000000" transform="matrix(0.0833333 0 0 0.0833333 -202.208 -186)" d="M 3617.75,3048.87 L 3620.15,3029.83 L 3635.61,3039.83 L 3888.94,3603.05 L 3882,3612 L 3872.11,3614.39 L 3617.75,3048.87 Z " />
<path stroke="transparent" fill="#000000" transform="matrix(0.0833333 0 0 0.0833333 -202.208 -186)" d="M 3929.55,4326.04 L 3920.35,4341.54 L 3909.48,4325.22 L 3872.11,3614.39 L 3882,3612 L 3892.64,3623.98 L 3929.55,4326.04 Z " />
<path stroke="transparent" fill="#000000" transform="matrix(0.0833333 0 0 0.0833333 -202.208 -186)" d="M 6771.66,4859.36 L 6761.57,4876.63 L 6353.27,4638.21 L 6355.98,4628.21 L 6365.98,4622.47 L 6771.66,4859.36 Z " />
<path stroke="transparent" fill="#000000" transform="matrix(0.0833333 0 0 0.0833333 -202.208 -186)" d="M 5759.09,4638.21 L 5756.37,4628.21 L 5757.69,4618.21 L 6345.98,4618.21 L 6355.98,4628.21 L 6353.27,4638.21 L 5759.09,4638.21 Z " />
<path stroke="transparent" fill="#000000" transform="matrix(0.0833333 0 0 0.0833333 -202.208 -186)" d="M 7392.83,4618.21 L 7382.83,4628.21 L 7372.83,4622.48 L 7372.83,4041.15 L 7382.83,4031.15 L 7392.83,4036.87 L 7392.83,4618.21 Z " />
<path stroke="transparent" fill="#000000" transform="matrix(0.0833333 0 0 0.0833333 -202.208 -186)" d="M 7895.52,3718.19 L 7895.54,3741.38 L 7392.83,4036.87 L 7382.83,4031.15 L 7380.11,4021.15 L 7895.52,3718.19 Z " />
<path stroke="transparent" fill="#000000" transform="matrix(0.0833333 0 0 0.0833333 -202.208 -186)" d="M 6345.98,5816.25 L 6355.98,5826.25 L 6358.67,5836.25 L 5766.37,5836.25 L 5756.37,5826.25 L 5770.26,5816.25 L 6345.98,5816.25 Z " />
<path stroke="transparent" fill="#000000" transform="matrix(0.0833333 0 0 0.0833333 -202.208 -186)" d="M 5233.82,5533.25 L 5253.82,5521.76 L 5750.78,5811.42 L 5756.37,5826.25 L 5746.37,5832 L 5233.82,5533.25 Z " />
<path stroke="transparent" fill="#000000" transform="matrix(0.0833333 0 0 0.0833333 -202.208 -186)" d="M 3256.31,3501.5 L 3234.64,3496.59 L 3608.08,3028.92 L 3620.15,3029.83 L 3617.75,3048.87 L 3256.31,3501.5 Z " />
<path stroke="transparent" fill="#000000" transform="matrix(0.0833333 0 0 0.0833333 -202.208 -186)" d="M 4212.93,3019.83 L 4219.17,3029.83 L 4214.36,3039.83 L 3635.61,3039.83 L 3620.15,3029.83 L 3625.92,3019.83 L 4212.93,3019.83 Z " />
<path stroke="transparent" fill="#000000" transform="matrix(0.0833333 0 0 0.0833333 -202.208 -186)" d="M 3479.52,4140.78 L 3488.19,4122.75 L 3909.48,4325.22 L 3920.35,4341.54 L 3908.55,4346.96 L 3479.52,4140.78 Z " />
<path stroke="transparent" fill="#000000" transform="matrix(0.0833333 0 0 0.0833333 -202.208 -186)" d="M 4452.73,4075.28 L 4470.09,4089.14 L 3928.82,4348.57 L 3920.35,4341.54 L 3929.55,4326.04 L 4452.73,4075.28 Z " />
<path stroke="transparent" fill="#000000" transform="matrix(0.0833333 0 0 0.0833333 -202.208 -186)" d="M 7372.83,4622.48 L 7382.83,4628.21 L 7372.83,4645.66 L 6978.8,4876.46 L 6968.69,4859.21 L 7372.83,4622.48 Z " />
<path stroke="transparent" fill="#000000" transform="matrix(0.0833333 0 0 0.0833333 -202.208 -186)" d="M 6880.2,5533.26 L 6860.2,5521.75 L 6860.2,5277.23 L 6880.2,5277.23 L 6880.2,5533.26 L 6880.2,5533.26 Z " />
<path stroke="transparent" fill="#000000" transform="matrix(0.0833333 0 0 0.0833333 -202.208 -186)" d="M 6860.2,5045.82 L 6880.2,5045.82 L 6880.2,5177.23 L 6860.2,5177.23 L 6860.2,5045.82 L 6860.2,5045.82 Z " />
<path stroke="transparent" fill="#000000" transform="matrix(0.0833333 0 0 0.0833333 -202.208 -186)" d="M 4791.52,4379.66 L 4781.52,4366.62 L 4780.11,4355.89 L 5757.69,4618.21 L 5756.37,4628.21 L 5730.68,4631.67 L 4791.52,4379.66 Z " />
<path stroke="transparent" fill="#000000" transform="matrix(0.0833333 0 0 0.0833333 -202.208 -186)" d="M 5253.82,4934.21 L 5233.82,4922.75 L 5730.68,4631.67 L 5756.37,4628.21 L 5759.09,4638.21 L 5253.82,4934.21 Z " />
<path stroke="transparent" fill="#000000" transform="matrix(0.0833333 0 0 0.0833333 -202.208 -186)" d="M 7392.83,5237.23 L 7372.83,5217.23 L 7372.83,4645.66 L 7382.83,4628.21 L 7392.83,4638.21 L 7392.83,5237.23 Z " />
<path stroke="transparent" fill="#000000" transform="matrix(0.0833333 0 0 0.0833333 -202.208 -186)" d="M 8399.76,4618.21 L 8419.76,4638.21 L 7392.83,4638.21 L 7382.83,4628.21 L 7392.83,4618.21 L 8399.76,4618.21 Z " />
<path stroke="transparent" fill="#000000" transform="matrix(0.0833333 0 0 0.0833333 -202.208 -186)" d="M 8419.76,4025.42 L 8399.76,4036.88 L 7895.54,3741.38 L 7895.52,3718.19 L 8419.76,4025.42 Z " />
<path stroke="transparent" fill="#000000" transform="matrix(0.0833333 0 0 0.0833333 -202.208 -186)" d="M 6860.2,5521.75 L 6880.2,5533.26 L 6358.67,5836.25 L 6355.98,5826.25 L 6365.98,5808.88 L 6860.2,5521.75 Z " />
<path stroke="transparent" fill="#000000" transform="matrix(0.0833333 0 0 0.0833333 -202.208 -186)" d="M 6345.98,5217.23 L 6365.98,5237.23 L 6365.98,5808.88 L 6355.98,5826.25 L 6345.98,5816.25 L 6345.98,5217.23 Z " />
<path stroke="transparent" fill="#000000" transform="matrix(0.0833333 0 0 0.0833333 -202.208 -186)" d="M 5233.82,4922.75 L 5253.82,4934.21 L 5253.82,5521.76 L 5233.82,5533.25 L 5233.82,4922.75 Z " />
<path stroke="transparent" fill="#000000" transform="matrix(0.0833333 0 0 0.0833333 -202.208 -186)" d="M 3366.57,3976.86 L 3347.09,3981.38 L 3234.64,3496.59 L 3256.31,3501.5 L 3366.57,3976.86 Z " />
<path stroke="transparent" fill="#000000" transform="matrix(0.0833333 0 0 0.0833333 -202.208 -186)" d="M 2650.74,3415.05 L 2655.26,3395.56 L 3258.45,3535.49 L 3253.93,3554.98 L 2650.74,3415.05 Z " />
<path stroke="transparent" fill="#000000" transform="matrix(0.0833333 0 0 0.0833333 -202.208 -186)" d="M 2669.99,3332.1 L 2674.51,3312.62 L 3277.18,3452.43 L 3272.66,3471.91 L 2669.99,3332.1 Z " />
<path stroke="transparent" fill="#000000" transform="matrix(0.0833333 0 0 0.0833333 -202.208 -186)" d="M 4480.81,2471.85 L 4498.78,2480.64 L 4230.93,3028.54 L 4219.17,3029.83 L 4212.93,3019.83 L 4480.81,2471.85 Z " />
<path stroke="transparent" fill="#000000" transform="matrix(0.0833333 0 0 0.0833333 -202.208 -186)" d="M 4604.59,3496.56 L 4582.95,3501.52 L 4214.36,3039.83 L 4219.17,3029.83 L 4230.93,3028.54 L 4604.59,3496.56 Z " />
<path stroke="transparent" fill="#000000" transform="matrix(0.0833333 0 0 0.0833333 -202.208 -186)" d="M 4582.95,3501.52 L 4604.59,3496.56 L 4470.09,4089.14 L 4452.73,4075.28 L 4582.95,3501.52 Z " />
<path stroke="transparent" fill="#000000" transform="matrix(0.0833333 0 0 0.0833333 -202.208 -186)" d="M 6365.98,5237.23 L 6345.98,5217.23 L 7372.83,5217.23 L 7392.83,5237.23 L 6365.98,5237.23 Z " />
<path stroke="transparent" fill="#000000" transform="matrix(0.0833333 0 0 0.0833333 -202.208 -186)" d="M 8399.76,4036.88 L 8419.76,4025.42 L 8419.76,4638.21 L 8399.76,4618.21 L 8399.76,4036.88 Z " />
<path stroke="transparent" fill="#000000" transform="matrix(0.0833333 0 0 0.0833333 -202.208 -186)" d="M 4266.9,4675.28 L 4256.9,4657.96 L 4780.11,4355.89 L 4781.52,4366.62 L 4771.52,4383.94 L 4266.9,4675.28 Z " />
<path stroke="transparent" fill="#000000" transform="matrix(0.0833333 0 0 0.0833333 -202.208 -186)" d="M 4791.52,4966.62 L 4771.52,4966.62 L 4771.52,4383.94 L 4781.52,4366.62 L 4791.52,4379.66 L 4791.52,4966.62 Z " />
<path stroke="transparent" fill="#000000" transform="matrix(0.0833333 0 0 0.0833333 -202.208 -186)" d="M 5766.37,6426.25 L 5746.37,6426.25 L 5746.37,5832 L 5756.37,5826.25 L 5766.37,5836.25 L 5766.37,6426.25 Z " />
<path stroke="transparent" fill="#000000" transform="matrix(0.0833333 0 0 0.0833333 -202.208 -186)" d="M 3774.72,4923.69 L 3755.4,4918.51 L 3908.55,4346.96 L 3920.35,4341.54 L 3928.82,4348.57 L 3774.72,4923.69 Z " />
<path stroke="transparent" fill="#000000" transform="matrix(0.0833333 0 0 0.0833333 -202.208 -186)" d="M 3311.49,2515.22 L 3328.81,2505.22 L 3625.92,3019.83 L 3620.15,3029.83 L 3608.08,3028.92 L 3311.49,2515.22 Z " />
</svg>
