<?xml version="1.0" standalone="no" ?>
<!DOCTYPE svg PUBLIC "-//W3C//DTD SVG 1.1//EN" "http://www.w3.org/Graphics/SVG/1.1/DTD/svg11.dtd">
<svg width="384px" height="255px" viewBox="0 0 384 255" style="background-color: #ffffff00" xmlns="http://www.w3.org/2000/svg" xmlns:xlink="http://www.w3.org/1999/xlink" version="1.1" >
<path stroke="transparent" fill="#000000" transform="matrix(0.0833333 0 0 0.0833333 -221.25 -219)" d="M 5001.54,3991.86 L 4989.64,3987.11 L 4989.74,3975.56 L 5501.85,3685.7 L 5511.8,3691.56 L 5510.4,3703.84 L 5001.54,3991.86 Z " />
<path stroke="transparent" fill="#000000" transform="matrix(0.0833333 0 0 0.0833333 -221.25 -219)" d="M 4989.74,3975.56 L 4989.64,3987.11 L 4980.25,3993.18 L 4472.53,3694.24 L 4472.63,3682.7 L 4482.67,3677.01 L 4989.74,3975.56 Z " />
<path stroke="transparent" fill="#000000" transform="matrix(0.0833333 0 0 0.0833333 -221.25 -219)" d="M 5147.06,4459.51 L 5029.48,4483.45 L 4980.25,3993.18 L 4989.64,3987.11 L 5001.54,3991.86 L 5147.06,4459.51 Z " />
<path stroke="transparent" fill="#000000" transform="matrix(0.0833333 0 0 0.0833333 -221.25 -219)" d="M 5215.1,4597.14 L 5217.36,4577.26 L 5699.42,4632.09 L 5705.51,4642.85 L 5699.95,4652.28 L 5215.1,4597.14 Z " />
<path stroke="transparent" fill="#000000" transform="matrix(0.0833333 0 0 0.0833333 -221.25 -219)" d="M 5717,4641.74 L 5705.51,4642.85 L 5699.42,4632.09 L 5942.1,4099.29 L 5954.21,4096.82 L 5960.92,4106.22 L 5717,4641.74 Z " />
<path stroke="transparent" fill="#000000" transform="matrix(0.0833333 0 0 0.0833333 -221.25 -219)" d="M 5699.95,4652.28 L 5705.51,4642.85 L 5717,4641.74 L 6058.82,5120.75 L 6049.24,5141.77 L 5699.95,4652.28 Z " />
<path stroke="transparent" fill="#000000" transform="matrix(0.0833333 0 0 0.0833333 -221.25 -219)" d="M 5780.12,4640.67 L 5796.4,4629.06 L 6096.63,5049.79 L 6080.35,5061.41 L 5780.12,4640.67 Z " />
<path stroke="transparent" fill="#000000" transform="matrix(0.0833333 0 0 0.0833333 -221.25 -219)" d="M 6049.24,5141.77 L 6058.82,5120.75 L 6644.55,5064.24 L 6651.26,5073.64 L 6646.47,5084.15 L 6049.24,5141.77 Z " />
<path stroke="transparent" fill="#000000" transform="matrix(0.0833333 0 0 0.0833333 -221.25 -219)" d="M 6945.9,5469.37 L 6929.62,5480.99 L 6646.47,5084.15 L 6651.26,5073.64 L 6662.75,5072.53 L 6945.9,5469.37 Z " />
<path stroke="transparent" fill="#000000" transform="matrix(0.0833333 0 0 0.0833333 -221.25 -219)" d="M 6662.75,5072.53 L 6651.26,5073.64 L 6644.55,5064.24 L 6888.47,4528.72 L 6911.46,4526.5 L 6662.75,5072.53 Z " />
<path stroke="transparent" fill="#000000" transform="matrix(0.0833333 0 0 0.0833333 -221.25 -219)" d="M 6612.07,5010.11 L 6593.86,5001.82 L 6808.11,4531.45 L 6826.31,4539.74 L 6612.07,5010.11 Z " />
<path stroke="transparent" fill="#000000" transform="matrix(0.0833333 0 0 0.0833333 -221.25 -219)" d="M 6911.46,4526.5 L 6888.47,4528.72 L 6546.69,4049.73 L 6556.26,4028.72 L 6911.46,4526.5 Z " />
<path stroke="transparent" fill="#000000" transform="matrix(0.0833333 0 0 0.0833333 -221.25 -219)" d="M 6556.26,4028.72 L 6546.69,4049.73 L 5960.92,4106.22 L 5954.21,4096.82 L 5957.68,4086.44 L 6556.26,4028.72 Z " />
<path stroke="transparent" fill="#000000" transform="matrix(0.0833333 0 0 0.0833333 -221.25 -219)" d="M 6516.05,4104.93 L 6517.97,4124.84 L 6003.47,4174.46 L 6001.55,4154.55 L 6516.05,4104.93 Z " />
<path stroke="transparent" fill="#000000" transform="matrix(0.0833333 0 0 0.0833333 -221.25 -219)" d="M 5957.68,4086.44 L 5954.21,4096.82 L 5942.1,4099.29 L 5510.4,3703.84 L 5511.8,3691.56 L 5521.83,3687.2 L 5957.68,4086.44 Z " />
<path stroke="transparent" fill="#000000" transform="matrix(0.0833333 0 0 0.0833333 -221.25 -219)" d="M 5901.81,3397.11 L 5961.81,3501.03 L 5943.33,3509.02 L 5885.65,3409.12 L 5901.81,3397.11 Z " />
<path stroke="transparent" fill="#000000" transform="matrix(0.0833333 0 0 0.0833333 -221.25 -219)" d="M 5854.38,3432.35 L 5907.57,3524.48 L 5889.09,3532.47 L 5838.22,3444.36 L 5854.38,3432.35 Z " />
<path stroke="transparent" fill="#000000" transform="matrix(0.0833333 0 0 0.0833333 -221.25 -219)" d="M 5806.95,3467.6 L 5853.33,3547.93 L 5834.85,3555.92 L 5790.79,3479.61 L 5806.95,3467.6 Z " />
<path stroke="transparent" fill="#000000" transform="matrix(0.0833333 0 0 0.0833333 -221.25 -219)" d="M 5759.53,3502.85 L 5799.09,3571.38 L 5780.61,3579.37 L 5743.37,3514.86 L 5759.53,3502.85 Z " />
<path stroke="transparent" fill="#000000" transform="matrix(0.0833333 0 0 0.0833333 -221.25 -219)" d="M 5712.1,3538.09 L 5744.85,3594.83 L 5726.37,3602.82 L 5695.94,3550.1 L 5712.1,3538.09 Z " />
<path stroke="transparent" fill="#000000" transform="matrix(0.0833333 0 0 0.0833333 -221.25 -219)" d="M 5664.67,3573.34 L 5690.62,3618.28 L 5672.13,3626.27 L 5648.51,3585.35 L 5664.67,3573.34 Z " />
<path stroke="transparent" fill="#000000" transform="matrix(0.0833333 0 0 0.0833333 -221.25 -219)" d="M 5617.25,3608.59 L 5636.38,3641.73 L 5617.9,3649.72 L 5601.09,3620.6 L 5617.25,3608.59 Z " />
<path stroke="transparent" fill="#000000" transform="matrix(0.0833333 0 0 0.0833333 -221.25 -219)" d="M 5569.82,3643.84 L 5582.14,3665.18 L 5563.66,3673.17 L 5553.66,3655.85 L 5569.82,3643.84 Z " />
<path stroke="transparent" fill="#000000" transform="matrix(0.0833333 0 0 0.0833333 -221.25 -219)" d="M 5506.9,3097.29 L 5526.99,3085.92 L 5521.83,3687.2 L 5511.8,3691.56 L 5501.85,3685.7 L 5506.9,3097.29 Z " />
<path stroke="transparent" fill="#000000" transform="matrix(0.0833333 0 0 0.0833333 -221.25 -219)" d="M 5526.99,3085.92 L 5506.9,3097.29 L 5094.46,2854.45 L 5104.61,2837.21 L 5526.99,3085.92 Z " />
<path stroke="transparent" fill="#000000" transform="matrix(0.0833333 0 0 0.0833333 -221.25 -219)" d="M 4894.97,2835.07 L 4904.83,2852.47 L 4487.69,3088.57 L 4477.74,3082.71 L 4477.84,3071.17 L 4894.97,2835.07 Z " />
<path stroke="transparent" fill="#000000" transform="matrix(0.0833333 0 0 0.0833333 -221.25 -219)" d="M 3960.8,2766.73 L 3960.6,2789.83 L 3448.49,3079.68 L 3438.54,3073.82 L 3438.64,3062.28 L 3960.8,2766.73 Z " />
<path stroke="transparent" fill="#000000" transform="matrix(0.0833333 0 0 0.0833333 -221.25 -219)" d="M 3960.6,2789.83 L 3960.8,2766.73 L 4477.84,3071.17 L 4477.74,3082.71 L 4467.69,3088.4 L 3960.6,2789.83 Z " />
<path stroke="transparent" fill="#000000" transform="matrix(0.0833333 0 0 0.0833333 -221.25 -219)" d="M 3954.91,2870.03 L 3965.06,2852.8 L 4410.46,3115.05 L 4400.31,3132.29 L 3954.91,2870.03 Z " />
<path stroke="transparent" fill="#000000" transform="matrix(0.0833333 0 0 0.0833333 -221.25 -219)" d="M 4467.69,3088.4 L 4477.74,3082.71 L 4487.69,3088.57 L 4482.67,3677.01 L 4472.63,3682.7 L 4462.68,3676.84 L 4467.69,3088.4 Z " />
<path stroke="transparent" fill="#000000" transform="matrix(0.0833333 0 0 0.0833333 -221.25 -219)" d="M 4462.68,3676.84 L 4472.63,3682.7 L 4472.53,3694.24 L 3950.37,3989.79 L 3950.56,3966.69 L 4462.68,3676.84 Z " />
<path stroke="transparent" fill="#000000" transform="matrix(0.0833333 0 0 0.0833333 -221.25 -219)" d="M 4396.06,3631.81 L 4405.91,3649.22 L 3956.1,3903.81 L 3946.25,3886.4 L 4396.06,3631.81 Z " />
<path stroke="transparent" fill="#000000" transform="matrix(0.0833333 0 0 0.0833333 -221.25 -219)" d="M 3950.56,3966.69 L 3950.37,3989.79 L 3423.37,3679.49 L 3443.47,3668.12 L 3950.56,3966.69 Z " />
<path stroke="transparent" fill="#000000" transform="matrix(0.0833333 0 0 0.0833333 -221.25 -219)" d="M 3443.47,3668.12 L 3423.37,3679.49 L 3428.49,3079.51 L 3438.54,3073.82 L 3448.49,3079.68 L 3443.47,3668.12 Z " />
<path stroke="transparent" fill="#000000" transform="matrix(0.0833333 0 0 0.0833333 -221.25 -219)" d="M 3515.77,3632.94 L 3495.77,3632.77 L 3500.18,3115.92 L 3520.18,3116.09 L 3515.77,3632.94 Z " />
<path stroke="transparent" fill="#000000" transform="matrix(0.0833333 0 0 0.0833333 -221.25 -219)" d="M 3438.64,3062.28 L 3438.54,3073.82 L 3428.49,3079.51 L 3016.04,2836.66 L 3026.18,2819.43 L 3438.64,3062.28 Z " />
<text x="0" y="0" stroke="transparent" fill="#000000" transform="matrix(0.0833333 0 0 0.0833333 198.03 168.754)" style="font:normal normal normal 200px 'Arial'" >
O</text>
<text x="0" y="0" stroke="transparent" fill="#000000" transform="matrix(0.0833333 0 0 0.0833333 355.563 251.006)" style="font:normal normal normal 200px 'Arial'" >
OH</text>
<text x="0" y="0" stroke="transparent" fill="#000000" transform="matrix(0.0833333 0 0 0.0833333 274.868 70.1301)" style="font:normal normal normal 200px 'Arial'" >
OH</text>
<text x="0" y="0" stroke="transparent" fill="#000000" transform="matrix(0.0833333 0 0 0.0833333 188.908 19.7641)" style="font:normal normal normal 200px 'Arial'" >
O</text>
<text x="0" y="0" stroke="transparent" fill="#000000" transform="matrix(0.0833333 0 0 0.0833333 3.67175 18.2825)" style="font:normal normal normal 200px 'Arial'" >
HO</text>
</svg>
