<?xml version="1.0" standalone="no" ?>
<!DOCTYPE svg PUBLIC "-//W3C//DTD SVG 1.1//EN" "http://www.w3.org/Graphics/SVG/1.1/DTD/svg11.dtd">
<svg width="498px" height="251px" viewBox="0 0 498 251" style="background-color: #ffffff00" xmlns="http://www.w3.org/2000/svg" xmlns:xlink="http://www.w3.org/1999/xlink" version="1.1" >
<text x="0" y="0" stroke="transparent" fill="#000000" transform="matrix(0.0833333 0 0 0.0833333 213.869 97.3745)" style="font:normal normal normal 200px 'Arial'" >
O</text>
<text x="0" y="0" stroke="transparent" fill="#000000" transform="matrix(0.0833333 0 0 0.0833333 115.226 247.368)" style="font:normal normal normal 200px 'Arial'" >
HO</text>
<text x="0" y="0" stroke="transparent" fill="#000000" transform="matrix(0.0833333 0 0 0.0833333 300.471 247.368)" style="font:normal normal normal 200px 'Arial'" >
O</text>
<text x="0" y="0" stroke="transparent" fill="#000000" transform="matrix(0.0833333 0 0 0.0833333 387.078 247.368)" style="font:normal normal normal 200px 'Arial'" >
O</text>
<text x="0" y="0" stroke="transparent" fill="#000000" transform="matrix(0.0833333 0 0 0.0833333 469.105 17.5628)" style="font:normal normal normal 200px 'Arial'" >
OH</text>
<text x="0" y="0" stroke="transparent" fill="#000000" transform="matrix(0.0833333 0 0 0.0833333 310.866 98.4645)" style="font:normal normal normal 200px 'Arial'" >
O</text>
<path stroke="transparent" fill="#000000" transform="matrix(0.0833333 0 0 0.0833333 -187.208 -234)" d="M 4988.54,3853.67 L 4978.54,3836.35 L 5405.54,3589.77 L 5415.54,3607.09 L 4988.54,3853.67 Z " />
<path stroke="transparent" fill="#000000" transform="matrix(0.0833333 0 0 0.0833333 -187.208 -234)" d="M 4900.93,4492.67 L 4890.93,4498.45 L 4880.93,4492.67 L 4880.93,4018.33 L 4900.93,4018.33 L 4900.93,4492.67 Z " />
<path stroke="transparent" fill="#000000" transform="matrix(0.0833333 0 0 0.0833333 -187.208 -234)" d="M 4381.32,4804.23 L 4371.32,4798.45 L 4371.32,4786.91 L 4880.93,4492.67 L 4890.93,4498.45 L 4890.93,4509.99 L 4381.32,4804.23 Z " />
<path stroke="transparent" fill="#000000" transform="matrix(0.0833333 0 0 0.0833333 -187.208 -234)" d="M 4448.32,4848.68 L 4438.32,4831.36 L 4885.93,4572.93 L 4895.93,4590.25 L 4448.32,4848.68 Z " />
<path stroke="transparent" fill="#000000" transform="matrix(0.0833333 0 0 0.0833333 -187.208 -234)" d="M 3851.65,4509.99 L 3851.65,4486.9 L 4371.32,4786.91 L 4371.32,4798.45 L 4361.32,4804.23 L 3851.65,4509.99 Z " />
<path stroke="transparent" fill="#000000" transform="matrix(0.0833333 0 0 0.0833333 -187.208 -234)" d="M 3332.03,4810 L 3332.03,4786.91 L 3851.65,4486.9 L 3851.65,4509.99 L 3332.03,4810 Z " />
<path stroke="transparent" fill="#000000" transform="matrix(0.0833333 0 0 0.0833333 -187.208 -234)" d="M 2812.42,4509.99 L 2812.42,4498.45 L 2822.42,4492.67 L 3332.03,4786.91 L 3332.03,4810 L 2812.42,4509.99 Z " />
<path stroke="transparent" fill="#000000" transform="matrix(0.0833333 0 0 0.0833333 -187.208 -234)" d="M 2879.42,4465.54 L 2889.42,4448.22 L 3337.03,4706.65 L 3327.03,4723.97 L 2879.42,4465.54 Z " />
<path stroke="transparent" fill="#000000" transform="matrix(0.0833333 0 0 0.0833333 -187.208 -234)" d="M 2802.42,3898.43 L 2822.42,3898.43 L 2822.42,4492.67 L 2812.42,4498.45 L 2802.42,4492.67 L 2802.42,3898.43 Z " />
<path stroke="transparent" fill="#000000" transform="matrix(0.0833333 0 0 0.0833333 -187.208 -234)" d="M 2297.81,4807.11 L 2287.81,4789.79 L 2802.42,4492.67 L 2812.42,4498.45 L 2812.42,4509.99 L 2297.81,4807.11 Z " />
<path stroke="transparent" fill="#000000" transform="matrix(0.0833333 0 0 0.0833333 -187.208 -234)" d="M 4381.32,5392.69 L 4371.32,5398.47 L 4361.32,5392.69 L 4361.32,4804.23 L 4371.32,4798.45 L 4381.32,4804.23 L 4381.32,5392.69 Z " />
<path stroke="transparent" fill="#000000" transform="matrix(0.0833333 0 0 0.0833333 -187.208 -234)" d="M 3949.26,5653.62 L 3939.26,5636.3 L 4361.32,5392.69 L 4371.32,5398.47 L 4371.32,5410.01 L 3949.26,5653.62 Z " />
<path stroke="transparent" fill="#000000" transform="matrix(0.0833333 0 0 0.0833333 -187.208 -234)" d="M 4890.93,5686.87 L 4890.93,5709.96 L 4371.32,5410.01 L 4371.32,5398.47 L 4381.32,5392.69 L 4890.93,5686.87 Z " />
<path stroke="transparent" fill="#000000" transform="matrix(0.0833333 0 0 0.0833333 -187.208 -234)" d="M 4895.92,5606.62 L 4885.93,5623.94 L 4438.31,5365.56 L 4448.31,5348.24 L 4895.92,5606.62 Z " />
<path stroke="transparent" fill="#000000" transform="matrix(0.0833333 0 0 0.0833333 -187.208 -234)" d="M 5400.54,5392.63 L 5410.54,5398.41 L 5410.54,5409.95 L 4890.93,5709.96 L 4890.93,5686.87 L 5400.54,5392.63 Z " />
<path stroke="transparent" fill="#000000" transform="matrix(0.0833333 0 0 0.0833333 -187.208 -234)" d="M 5842.53,5636.28 L 5832.53,5653.6 L 5410.54,5409.95 L 5410.54,5398.41 L 5420.54,5392.63 L 5842.53,5636.28 Z " />
<path stroke="transparent" fill="#000000" transform="matrix(0.0833333 0 0 0.0833333 -187.208 -234)" d="M 6439.82,5392.63 L 6459.82,5404.18 L 6027.77,5653.6 L 6017.77,5636.28 L 6439.82,5392.63 Z " />
<path stroke="transparent" fill="#000000" transform="matrix(0.0833333 0 0 0.0833333 -187.208 -234)" d="M 6899.82,5605.1 L 6889.82,5622.42 L 6444.82,5365.5 L 6454.82,5348.18 L 6899.82,5605.1 Z " />
<path stroke="transparent" fill="#000000" transform="matrix(0.0833333 0 0 0.0833333 -187.208 -234)" d="M 6863.81,5667.46 L 6853.81,5684.78 L 6408.82,5427.85 L 6418.82,5410.53 L 6863.81,5667.46 Z " />
<path stroke="transparent" fill="#000000" transform="matrix(0.0833333 0 0 0.0833333 -187.208 -234)" d="M 6439.82,4804.17 L 6449.82,4798.39 L 6459.82,4802.85 L 6459.82,5404.18 L 6439.82,5392.63 L 6439.82,4804.17 Z " />
<path stroke="transparent" fill="#000000" transform="matrix(0.0833333 0 0 0.0833333 -187.208 -234)" d="M 6883.6,4394.41 L 6895.69,4396.98 L 6899.07,4407.4 L 6459.82,4802.85 L 6449.82,4798.39 L 6448.53,4786.1 L 6883.6,4394.41 Z " />
<path stroke="transparent" fill="#000000" transform="matrix(0.0833333 0 0 0.0833333 -187.208 -234)" d="M 7487.71,4449.14 L 7497.1,4470.23 L 6899.07,4407.4 L 6895.69,4396.98 L 6902.48,4387.64 L 7487.71,4449.14 Z " />
<path stroke="transparent" fill="#000000" transform="matrix(0.0833333 0 0 0.0833333 -187.208 -234)" d="M 7459.63,4373.79 L 7457.54,4393.68 L 6943.51,4339.67 L 6945.6,4319.78 L 7459.63,4373.79 Z " />
<path stroke="transparent" fill="#000000" transform="matrix(0.0833333 0 0 0.0833333 -187.208 -234)" d="M 7833.61,3973.07 L 7856.58,3975.48 L 7497.1,4470.23 L 7487.71,4449.14 L 7833.61,3973.07 Z " />
<path stroke="transparent" fill="#000000" transform="matrix(0.0833333 0 0 0.0833333 -187.208 -234)" d="M 7594.28,3435.51 L 7601.07,3426.16 L 7612.55,3427.37 L 7856.58,3975.48 L 7833.61,3973.07 L 7594.28,3435.51 Z " />
<path stroke="transparent" fill="#000000" transform="matrix(0.0833333 0 0 0.0833333 -187.208 -234)" d="M 7543.07,3497.49 L 7561.34,3489.36 L 7771.55,3961.52 L 7753.28,3969.65 L 7543.07,3497.49 Z " />
<path stroke="transparent" fill="#000000" transform="matrix(0.0833333 0 0 0.0833333 -187.208 -234)" d="M 7875.12,3031.96 L 7891.3,3043.72 L 7612.55,3427.37 L 7601.07,3426.16 L 7596.37,3415.62 L 7875.12,3031.96 Z " />
<path stroke="transparent" fill="#000000" transform="matrix(0.0833333 0 0 0.0833333 -187.208 -234)" d="M 7008.99,3374.01 L 6999.6,3352.91 L 7596.37,3415.62 L 7601.07,3426.16 L 7594.28,3435.51 L 7008.99,3374.01 Z " />
<path stroke="transparent" fill="#000000" transform="matrix(0.0833333 0 0 0.0833333 -187.208 -234)" d="M 6663.15,3850.08 L 6651.67,3848.87 L 6646.19,3839.39 L 6999.6,3352.91 L 7008.99,3374.01 L 6663.15,3850.08 Z " />
<path stroke="transparent" fill="#000000" transform="matrix(0.0833333 0 0 0.0833333 -187.208 -234)" d="M 6742.43,3863.44 L 6726.25,3851.68 L 7030.02,3433.53 L 7046.2,3445.29 L 6742.43,3863.44 Z " />
<path stroke="transparent" fill="#000000" transform="matrix(0.0833333 0 0 0.0833333 -187.208 -234)" d="M 6645.49,3859.58 L 6651.67,3848.87 L 6663.15,3850.08 L 6902.48,4387.64 L 6895.69,4396.98 L 6883.6,4394.41 L 6645.49,3859.58 Z " />
<path stroke="transparent" fill="#000000" transform="matrix(0.0833333 0 0 0.0833333 -187.208 -234)" d="M 6162.98,3910.27 L 6160.89,3890.38 L 6646.19,3839.39 L 6651.67,3848.87 L 6645.49,3859.58 L 6162.98,3910.27 Z " />
<path stroke="transparent" fill="#000000" transform="matrix(0.0833333 0 0 0.0833333 -187.208 -234)" d="M 5941.44,4493.42 L 5930.15,4498.45 L 5921.3,4492.01 L 6019.74,4028.87 L 6039.3,4033.03 L 5941.44,4493.42 Z " />
<path stroke="transparent" fill="#000000" transform="matrix(0.0833333 0 0 0.0833333 -187.208 -234)" d="M 5930.15,4509.99 L 5930.15,4498.45 L 5941.44,4493.42 L 6448.53,4786.1 L 6449.82,4798.39 L 6439.82,4804.17 L 5930.15,4509.99 Z " />
<path stroke="transparent" fill="#000000" transform="matrix(0.0833333 0 0 0.0833333 -187.208 -234)" d="M 5925.16,4590.25 L 5935.16,4572.93 L 6382.82,4831.31 L 6372.82,4848.63 L 5925.16,4590.25 Z " />
<path stroke="transparent" fill="#000000" transform="matrix(0.0833333 0 0 0.0833333 -187.208 -234)" d="M 5420.54,4804.23 L 5410.54,4798.45 L 5410.54,4786.91 L 5921.3,4492.01 L 5930.15,4498.45 L 5930.15,4509.99 L 5420.54,4804.23 Z " />
<path stroke="transparent" fill="#000000" transform="matrix(0.0833333 0 0 0.0833333 -187.208 -234)" d="M 5410.54,4786.91 L 5410.54,4798.45 L 5400.54,4804.23 L 4890.93,4509.99 L 4890.93,4498.45 L 4900.93,4492.67 L 5410.54,4786.91 Z " />
<path stroke="transparent" fill="#000000" transform="matrix(0.0833333 0 0 0.0833333 -187.208 -234)" d="M 5400.54,4804.23 L 5410.54,4798.45 L 5420.54,4804.23 L 5420.54,5392.63 L 5410.54,5398.41 L 5400.54,5392.63 L 5400.54,4804.23 Z " />
<path stroke="transparent" fill="#000000" transform="matrix(0.0833333 0 0 0.0833333 -187.208 -234)" d="M 5328.55,4840.02 L 5348.55,4840.02 L 5348.55,5356.84 L 5328.55,5356.84 L 5328.55,4840.02 Z " />
</svg>
