<?xml version="1.0" standalone="no" ?>
<!DOCTYPE svg PUBLIC "-//W3C//DTD SVG 1.1//EN" "http://www.w3.org/Graphics/SVG/1.1/DTD/svg11.dtd">
<svg width="254px" height="133px" viewBox="0 0 254 133" style="background-color: #ffffff00" xmlns="http://www.w3.org/2000/svg" xmlns:xlink="http://www.w3.org/1999/xlink" version="1.1" >
<path stroke="none" fill="#000000" transform="matrix(0.0666667 0 0 0.0666667 -221.787 -221)" d="M 4408.56,3684.05 L 4428.56,3672.51 L 4428.56,4272.48 L 4418.56,4278.25 L 4408.56,4272.48 L 4408.56,3684.05 Z " />
<path stroke="none" fill="#000000" transform="matrix(0.0666667 0 0 0.0666667 -221.787 -221)" d="M 4428.56,3672.51 L 4408.56,3684.05 L 3898.95,3389.82 L 3898.95,3366.73 L 4428.56,3672.51 Z " />
<path stroke="none" fill="#000000" transform="matrix(0.0666667 0 0 0.0666667 -221.787 -221)" d="M 4351.56,3711.19 L 4341.56,3728.51 L 3893.95,3470.07 L 3903.95,3452.75 L 4351.56,3711.19 Z " />
<path stroke="none" fill="#000000" transform="matrix(0.0666667 0 0 0.0666667 -221.787 -221)" d="M 3898.95,3366.73 L 3898.95,3389.82 L 3389.34,3684.05 L 3369.34,3672.51 L 3898.95,3366.73 Z " />
<path stroke="none" fill="#000000" transform="matrix(0.0666667 0 0 0.0666667 -221.787 -221)" d="M 3369.34,3672.51 L 3389.34,3684.05 L 3389.34,4272.52 L 3369.34,4284.07 L 3369.34,3672.51 Z " />
<path stroke="none" fill="#000000" transform="matrix(0.0666667 0 0 0.0666667 -221.787 -221)" d="M 3441.34,3719.85 L 3461.34,3719.85 L 3461.34,4236.72 L 3441.34,4236.72 L 3441.34,3719.85 Z " />
<path stroke="none" fill="#000000" transform="matrix(0.0666667 0 0 0.0666667 -221.787 -221)" d="M 3369.34,4284.07 L 3389.34,4272.52 L 3898.95,4566.71 L 3898.95,4589.81 L 3369.34,4284.07 Z " />
<path stroke="none" fill="#000000" transform="matrix(0.0666667 0 0 0.0666667 -221.787 -221)" d="M 3898.95,4589.81 L 3898.95,4566.71 L 4408.56,4272.48 L 4418.56,4278.25 L 4418.56,4289.8 L 3898.95,4589.81 Z " />
<path stroke="none" fill="#000000" transform="matrix(0.0666667 0 0 0.0666667 -221.787 -221)" d="M 3903.95,4503.78 L 3893.95,4486.46 L 4341.56,4228.02 L 4351.56,4245.35 L 3903.95,4503.78 Z " />
<path stroke="none" fill="#000000" transform="matrix(0.0666667 0 0 0.0666667 -221.787 -221)" d="M 4418.56,4289.8 L 4418.56,4278.25 L 4428.56,4272.48 L 4938.17,4566.71 L 4938.17,4578.26 L 4928.17,4584.03 L 4418.56,4289.8 Z " />
<path stroke="none" fill="#000000" transform="matrix(0.0666667 0 0 0.0666667 -221.787 -221)" d="M 4948.17,5073.11 L 4928.17,5073.11 L 4928.17,4584.03 L 4938.17,4578.26 L 4948.17,4584.03 L 4948.17,5073.11 Z " />
<path stroke="none" fill="#000000" transform="matrix(0.0666667 0 0 0.0666667 -221.787 -221)" d="M 4948.17,4584.03 L 4938.17,4578.26 L 4938.17,4566.71 L 5342.73,4333.14 L 5352.73,4350.46 L 4948.17,4584.03 Z " />
<path stroke="none" fill="#000000" transform="matrix(0.0666667 0 0 0.0666667 -221.787 -221)" d="M 5015.17,4628.49 L 5005.17,4611.17 L 5378.73,4395.49 L 5388.73,4412.81 L 5015.17,4628.49 Z " />
<path stroke="none" fill="#000000" transform="matrix(0.0666667 0 0 0.0666667 -221.787 -221)" d="M 5562.84,4350.45 L 5572.84,4333.13 L 5977.44,4566.71 L 5977.44,4589.81 L 5562.84,4350.45 Z " />
<path stroke="none" fill="#000000" transform="matrix(0.0666667 0 0 0.0666667 -221.787 -221)" d="M 5977.44,4589.81 L 5977.44,4566.71 L 6487.05,4272.48 L 6507.05,4284.03 L 5977.44,4589.81 Z " />
<path stroke="none" fill="#000000" transform="matrix(0.0666667 0 0 0.0666667 -221.787 -221)" d="M 6487.05,3798.07 L 6507.05,3798.07 L 6507.05,4284.03 L 6487.05,4272.48 L 6487.05,3798.07 Z " />
<path stroke="none" fill="#000000" transform="matrix(0.0666667 0 0 0.0666667 -221.787 -221)" d="M 6456.05,4307.7 L 6466.05,4290.38 L 6911.04,4547.3 L 6901.04,4564.62 L 6456.05,4307.7 Z " />
<path stroke="none" fill="#000000" transform="matrix(0.0666667 0 0 0.0666667 -221.787 -221)" d="M 6492.05,4245.34 L 6502.05,4228.02 L 6947.04,4484.95 L 6937.04,4502.27 L 6492.05,4245.34 Z " />
<text x="0" y="0" stroke="none" fill="#000000" transform="matrix(0.0666667 0 0 0.0666667 102.225 129.418)" font-style="normal" font-weight="normal" font-size="200px" font-family="Arial" >
OH</text>
<text x="0" y="0" stroke="none" fill="#000000" transform="matrix(0.0666667 0 0 0.0666667 137.266 69.4169)" font-style="normal" font-weight="normal" font-size="200px" font-family="Arial" >
N</text>
<text x="0" y="0" stroke="none" fill="#000000" transform="matrix(0.0666667 0 0 0.0666667 206.15 29.4161)" font-style="normal" font-weight="normal" font-size="200px" font-family="Arial" >
OH</text>
<text x="0" y="0" stroke="none" fill="#000000" transform="matrix(0.0666667 0 0 0.0666667 240.791 89.4174)" font-style="normal" font-weight="normal" font-size="200px" font-family="Arial" >
O</text>
</svg>
