<?xml version="1.0" standalone="no" ?>
<!DOCTYPE svg PUBLIC "-//W3C//DTD SVG 1.1//EN" "http://www.w3.org/Graphics/SVG/1.1/DTD/svg11.dtd">
<svg width="679px" height="679px" viewBox="0 0 679 679" style="background-color: #ffffff00" xmlns="http://www.w3.org/2000/svg" xmlns:xlink="http://www.w3.org/1999/xlink" version="1.1" >
<text x="0" y="0" stroke="transparent" fill="#000000" transform="matrix(0.0833333 0 0 0.0833333 146.152 375.214)" style="font:normal normal normal 200px 'Arial'" >
O</text>
<text x="0" y="0" stroke="transparent" fill="#000000" transform="matrix(0.0833333 0 0 0.0833333 492.563 675.214)" style="font:normal normal normal 200px 'Arial'" >
O</text>
<text x="0" y="0" stroke="transparent" fill="#000000" transform="matrix(0.0833333 0 0 0.0833333 535.864 600.214)" style="font:normal normal normal 200px 'Arial'" >
O</text>
<text x="0" y="0" stroke="transparent" fill="#000000" transform="matrix(0.0833333 0 0 0.0833333 523.828 450.214)" style="font:normal normal normal 200px 'Arial'" >
HO</text>
<text x="0" y="0" stroke="transparent" fill="#000000" transform="matrix(0.0833333 0 0 0.0833333 405.96 675.214)" style="font:normal normal normal 200px 'Arial'" >
OH</text>
<text x="0" y="0" stroke="transparent" fill="#000000" transform="matrix(0.0833333 0 0 0.0833333 319.357 675.214)" style="font:normal normal normal 200px 'Arial'" >
OH</text>
<text x="0" y="0" stroke="transparent" fill="#000000" transform="matrix(0.0833333 0 0 0.0833333 232.755 675.214)" style="font:normal normal normal 200px 'Arial'" >
OH</text>
<text x="0" y="0" stroke="transparent" fill="#000000" transform="matrix(0.0833333 0 0 0.0833333 90.815 550.214)" style="font:normal normal normal 200px 'Arial'" >
HO</text>
<text x="0" y="0" stroke="transparent" fill="#000000" transform="matrix(0.0833333 0 0 0.0833333 189.454 450.214)" style="font:normal normal normal 200px 'Arial'" >
OH</text>
<text x="0" y="0" stroke="transparent" fill="#000000" transform="matrix(0.0833333 0 0 0.0833333 47.5137 425.214)" style="font:normal normal normal 200px 'Arial'" >
HO</text>
<text x="0" y="0" stroke="transparent" fill="#000000" transform="matrix(0.0833333 0 0 0.0833333 4.21257 300.213)" style="font:normal normal normal 200px 'Arial'" >
HO</text>
<text x="0" y="0" stroke="transparent" fill="#000000" transform="matrix(0.0833333 0 0 0.0833333 117.89 214.927)" style="font:normal normal normal 200px 'Arial'" >
O</text>
<text x="0" y="0" stroke="transparent" fill="#000000" transform="matrix(0.0833333 0 0 0.0833333 24.4737 244.546)" style="font:normal normal normal 200px 'Arial'" >
HO</text>
<text x="0" y="0" stroke="transparent" fill="#000000" transform="matrix(0.0833333 0 0 0.0833333 151.151 218.074)" style="font:normal normal normal 200px 'Arial'" >
O</text>
<text x="0" y="0" stroke="transparent" fill="#000000" transform="matrix(0.0833333 0 0 0.0833333 109.495 142.148)" style="font:normal normal normal 200px 'Arial'" >
O</text>
<text x="0" y="0" stroke="transparent" fill="#000000" transform="matrix(0.0833333 0 0 0.0833333 155.51 18.1217)" style="font:normal normal normal 200px 'Arial'" >
OH</text>
<text x="0" y="0" stroke="transparent" fill="#000000" transform="matrix(0.0833333 0 0 0.0833333 241.503 69.9974)" style="font:normal normal normal 200px 'Arial'" >
NH</text>
<text x="0" y="0" stroke="transparent" fill="#000000" transform="matrix(0.0833333 0 0 0.0833333 265.575 73.664)" style="font:normal normal normal 150px 'Arial'" >
2</text>
<text x="0" y="0" stroke="transparent" fill="#000000" transform="matrix(0.0833333 0 0 0.0833333 238.823 169.974)" style="font:normal normal normal 200px 'Arial'" >
OH</text>
<path stroke="transparent" fill="#000000" transform="matrix(0.0833333 0 0 0.0833333 -178.733 -53.2917)" d="M 9734.16,5999.72 L 9744.16,5982.4 L 9762.4,5990.82 L 9750.57,6011.31 L 9734.16,5999.72 Z " />
<path stroke="transparent" fill="#000000" transform="matrix(0.0833333 0 0 0.0833333 -178.733 -53.2917)" d="M 9782.1,6033.58 L 9797.45,6006.99 L 9815.69,6015.4 L 9798.5,6045.17 L 9782.1,6033.58 Z " />
<path stroke="transparent" fill="#000000" transform="matrix(0.0833333 0 0 0.0833333 -178.733 -53.2917)" d="M 9830.04,6067.44 L 9850.74,6031.58 L 9868.98,6039.99 L 9846.44,6079.02 L 9830.04,6067.44 Z " />
<path stroke="transparent" fill="#000000" transform="matrix(0.0833333 0 0 0.0833333 -178.733 -53.2917)" d="M 9877.98,6101.3 L 9904.03,6056.16 L 9922.27,6064.58 L 9894.38,6112.88 L 9877.98,6101.3 Z " />
<path stroke="transparent" fill="#000000" transform="matrix(0.0833333 0 0 0.0833333 -178.733 -53.2917)" d="M 9925.91,6135.15 L 9957.32,6080.75 L 9975.56,6089.17 L 9942.32,6146.74 L 9925.91,6135.15 Z " />
<path stroke="transparent" fill="#000000" transform="matrix(0.0833333 0 0 0.0833333 -178.733 -53.2917)" d="M 9973.85,6169.01 L 10010.6,6105.34 L 10028.8,6113.75 L 9990.26,6180.6 L 9973.85,6169.01 Z " />
<path stroke="transparent" fill="#000000" transform="matrix(0.0833333 0 0 0.0833333 -178.733 -53.2917)" d="M 10021.8,6202.87 L 10063.9,6129.93 L 10082.1,6138.34 L 10038.2,6214.45 L 10021.8,6202.87 Z " />
<path stroke="transparent" fill="#000000" transform="matrix(0.0833333 0 0 0.0833333 -178.733 -53.2917)" d="M 10069.7,6236.72 L 10117.2,6154.51 L 10135.4,6162.93 L 10086.1,6248.31 L 10069.7,6236.72 Z " />
<path stroke="transparent" fill="#000000" transform="matrix(0.0833333 0 0 0.0833333 -178.733 -53.2917)" d="M 10117.7,6270.58 L 10170.5,6179.1 L 10188.7,6187.51 L 10134.1,6282.17 L 10117.7,6270.58 Z " />
<path stroke="transparent" fill="#000000" transform="matrix(0.0833333 0 0 0.0833333 -178.733 -53.2917)" d="M 10165.6,6304.44 L 10223.8,6203.69 L 10242,6212.1 L 10182,6316.02 L 10165.6,6304.44 Z " />
<path stroke="transparent" fill="#000000" transform="matrix(0.0833333 0 0 0.0833333 -178.733 -53.2917)" d="M 9682.4,5369.84 L 9702.4,5358.29 L 9702.4,5969.84 L 9682.4,5958.29 L 9682.4,5369.84 Z " />
<path stroke="transparent" fill="#000000" transform="matrix(0.0833333 0 0 0.0833333 -178.733 -53.2917)" d="M 9162.78,5069.84 L 9182.78,5058.29 L 9702.4,5358.29 L 9682.4,5369.84 L 9162.78,5069.84 Z " />
<path stroke="transparent" fill="#000000" transform="matrix(0.0833333 0 0 0.0833333 -178.733 -53.2917)" d="M 9131.78,5135.08 L 9141.78,5117.76 L 9625.4,5396.97 L 9615.4,5414.29 L 9131.78,5135.08 Z " />
<path stroke="transparent" fill="#000000" transform="matrix(0.0833333 0 0 0.0833333 -178.733 -53.2917)" d="M 9162.78,4458.29 L 9182.78,4469.84 L 9182.78,5058.29 L 9162.78,5069.84 L 9162.78,4458.29 Z " />
<path stroke="transparent" fill="#000000" transform="matrix(0.0833333 0 0 0.0833333 -178.733 -53.2917)" d="M 9682.4,4158.29 L 9702.4,4169.84 L 9182.78,4469.84 L 9162.78,4458.29 L 9682.4,4158.29 Z " />
<path stroke="transparent" fill="#000000" transform="matrix(0.0833333 0 0 0.0833333 -178.733 -53.2917)" d="M 9615.4,4113.83 L 9625.4,4131.15 L 9141.78,4410.37 L 9131.78,4393.05 L 9615.4,4113.83 Z " />
<path stroke="transparent" fill="#000000" transform="matrix(0.0833333 0 0 0.0833333 -178.733 -53.2917)" d="M 9682.4,3569.84 L 9702.4,3558.29 L 9702.4,4169.84 L 9682.4,4158.29 L 9682.4,3569.84 Z " />
<path stroke="transparent" fill="#000000" transform="matrix(0.0833333 0 0 0.0833333 -178.733 -53.2917)" d="M 9172.78,3275.61 L 9172.78,3252.52 L 9702.4,3558.29 L 9682.4,3569.84 L 9172.78,3275.61 Z " />
<path stroke="transparent" fill="#000000" transform="matrix(0.0833333 0 0 0.0833333 -178.733 -53.2917)" d="M 8653.17,3575.61 L 8653.17,3552.52 L 9172.78,3252.52 L 9172.78,3275.61 L 8653.17,3575.61 Z " />
<path stroke="transparent" fill="#000000" transform="matrix(0.0833333 0 0 0.0833333 -178.733 -53.2917)" d="M 8133.55,3275.61 L 8133.55,3252.52 L 8653.17,3552.52 L 8653.17,3575.61 L 8133.55,3275.61 Z " />
<path stroke="transparent" fill="#000000" transform="matrix(0.0833333 0 0 0.0833333 -178.733 -53.2917)" d="M 8128.55,3355.86 L 8138.55,3338.54 L 8622.17,3617.76 L 8612.17,3635.08 L 8128.55,3355.86 Z " />
<path stroke="transparent" fill="#000000" transform="matrix(0.0833333 0 0 0.0833333 -178.733 -53.2917)" d="M 7613.93,3575.61 L 7613.93,3552.52 L 8133.55,3252.52 L 8133.55,3275.61 L 7613.93,3575.61 Z " />
<path stroke="transparent" fill="#000000" transform="matrix(0.0833333 0 0 0.0833333 -178.733 -53.2917)" d="M 7094.32,3275.61 L 7094.32,3252.52 L 7613.93,3552.52 L 7613.93,3575.61 L 7094.32,3275.61 Z " />
<path stroke="transparent" fill="#000000" transform="matrix(0.0833333 0 0 0.0833333 -178.733 -53.2917)" d="M 7089.32,3355.86 L 7099.32,3338.54 L 7582.93,3617.76 L 7572.93,3635.08 L 7089.32,3355.86 Z " />
<path stroke="transparent" fill="#000000" transform="matrix(0.0833333 0 0 0.0833333 -178.733 -53.2917)" d="M 6574.7,3575.61 L 6574.7,3552.52 L 7094.32,3252.52 L 7094.32,3275.61 L 6574.7,3575.61 Z " />
<path stroke="transparent" fill="#000000" transform="matrix(0.0833333 0 0 0.0833333 -178.733 -53.2917)" d="M 6055.09,3275.61 L 6055.09,3252.52 L 6574.7,3552.52 L 6574.7,3575.61 L 6055.09,3275.61 Z " />
<path stroke="transparent" fill="#000000" transform="matrix(0.0833333 0 0 0.0833333 -178.733 -53.2917)" d="M 6050.09,3355.86 L 6060.09,3338.54 L 6543.7,3617.76 L 6533.7,3635.08 L 6050.09,3355.86 Z " />
<path stroke="transparent" fill="#000000" transform="matrix(0.0833333 0 0 0.0833333 -178.733 -53.2917)" d="M 5535.47,3575.61 L 5535.47,3552.52 L 6055.09,3252.52 L 6055.09,3275.61 L 5535.47,3575.61 Z " />
<path stroke="transparent" fill="#000000" transform="matrix(0.0833333 0 0 0.0833333 -178.733 -53.2917)" d="M 5015.86,3275.61 L 5015.86,3252.52 L 5535.47,3552.52 L 5535.47,3575.61 L 5015.86,3275.61 Z " />
<path stroke="transparent" fill="#000000" transform="matrix(0.0833333 0 0 0.0833333 -178.733 -53.2917)" d="M 5010.86,3355.86 L 5020.86,3338.54 L 5504.47,3617.76 L 5494.47,3635.08 L 5010.86,3355.86 Z " />
<path stroke="transparent" fill="#000000" transform="matrix(0.0833333 0 0 0.0833333 -178.733 -53.2917)" d="M 4506.24,3569.84 L 4496.24,3564.06 L 4497.31,3551.9 L 5015.86,3252.52 L 5015.86,3275.61 L 4506.24,3569.84 Z " />
<path stroke="transparent" fill="#000000" transform="matrix(0.0833333 0 0 0.0833333 -178.733 -53.2917)" d="M 4506.24,4169.84 L 4486.24,4158.29 L 4486.24,3568.73 L 4496.24,3564.06 L 4506.24,3569.84 L 4506.24,4169.84 Z " />
<path stroke="transparent" fill="#000000" transform="matrix(0.0833333 0 0 0.0833333 -178.733 -53.2917)" d="M 3986.63,4469.84 L 3976.63,4464.06 L 3976.63,4452.52 L 4486.24,4158.29 L 4506.24,4169.84 L 3986.63,4469.84 Z " />
<path stroke="transparent" fill="#000000" transform="matrix(0.0833333 0 0 0.0833333 -178.733 -53.2917)" d="M 3457.01,4175.61 L 3457.01,4164.06 L 3465.17,4157.22 L 3976.63,4452.52 L 3976.63,4464.06 L 3966.63,4469.84 L 3457.01,4175.61 Z " />
<path stroke="transparent" fill="#000000" transform="matrix(0.0833333 0 0 0.0833333 -178.733 -53.2917)" d="M 2947.4,4469.83 L 2937.4,4464.06 L 2937.4,4452.51 L 3444.75,4159.6 L 3457.01,4164.06 L 3457.01,4175.61 L 2947.4,4469.83 Z " />
<path stroke="transparent" fill="#000000" transform="matrix(0.0833333 0 0 0.0833333 -178.733 -53.2917)" d="M 2947.4,5058.29 L 2927.4,5069.83 L 2927.4,4469.83 L 2937.4,4464.06 L 2947.4,4469.83 L 2947.4,5058.29 Z " />
<path stroke="transparent" fill="#000000" transform="matrix(0.0833333 0 0 0.0833333 -178.733 -53.2917)" d="M 3457.01,5352.52 L 3457.01,5364.06 L 3435.15,5362.99 L 2927.4,5069.83 L 2947.4,5058.29 L 3457.01,5352.52 Z " />
<path stroke="transparent" fill="#000000" transform="matrix(0.0833333 0 0 0.0833333 -178.733 -53.2917)" d="M 3872.02,5112.91 L 3882.02,5130.23 L 3467.01,5369.84 L 3457.01,5364.06 L 3457.01,5352.52 L 3872.02,5112.91 Z " />
<path stroke="transparent" fill="#000000" transform="matrix(0.0833333 0 0 0.0833333 -178.733 -53.2917)" d="M 3986.63,4958.9 L 3966.63,4958.9 L 3966.63,4469.84 L 3976.63,4464.06 L 3986.63,4469.84 L 3986.63,4958.9 Z " />
<path stroke="transparent" fill="#000000" transform="matrix(0.0833333 0 0 0.0833333 -178.733 -53.2917)" d="M 3467.01,5958.29 L 3447.01,5969.84 L 3447.01,5383.54 L 3457.01,5364.06 L 3467.01,5369.84 L 3467.01,5958.29 Z " />
<path stroke="transparent" fill="#000000" transform="matrix(0.0833333 0 0 0.0833333 -178.733 -53.2917)" d="M 3976.63,6252.52 L 3976.63,6264.06 L 3966.63,6269.84 L 3447.01,5969.84 L 3467.01,5958.29 L 3976.63,6252.52 Z " />
<path stroke="transparent" fill="#000000" transform="matrix(0.0833333 0 0 0.0833333 -178.733 -53.2917)" d="M 3986.63,6858.29 L 3976.63,6864.06 L 3966.63,6858.29 L 3966.63,6269.84 L 3976.63,6264.06 L 3986.63,6269.84 L 3986.63,6858.29 Z " />
<path stroke="transparent" fill="#000000" transform="matrix(0.0833333 0 0 0.0833333 -178.733 -53.2917)" d="M 4506.24,7158.29 L 4486.24,7169.84 L 3976.63,6875.61 L 3976.63,6864.06 L 3986.63,6858.29 L 4506.24,7158.29 Z " />
<path stroke="transparent" fill="#000000" transform="matrix(0.0833333 0 0 0.0833333 -178.733 -53.2917)" d="M 4506.24,7758.29 L 4486.24,7769.84 L 4486.24,7169.84 L 4506.24,7158.29 L 4506.24,7758.29 Z " />
<path stroke="transparent" fill="#000000" transform="matrix(0.0833333 0 0 0.0833333 -178.733 -53.2917)" d="M 5015.86,8052.52 L 5015.86,8064.06 L 5005.86,8069.84 L 4486.24,7769.84 L 4506.24,7758.29 L 5015.86,8052.52 Z " />
<path stroke="transparent" fill="#000000" transform="matrix(0.0833333 0 0 0.0833333 -178.733 -53.2917)" d="M 5535.47,7752.52 L 5535.47,7775.61 L 5025.86,8069.84 L 5015.86,8064.06 L 5015.86,8052.52 L 5535.47,7752.52 Z " />
<path stroke="transparent" fill="#000000" transform="matrix(0.0833333 0 0 0.0833333 -178.733 -53.2917)" d="M 6055.09,8052.52 L 6055.09,8064.06 L 6045.09,8069.84 L 5535.47,7775.61 L 5535.47,7752.52 L 6055.09,8052.52 Z " />
<path stroke="transparent" fill="#000000" transform="matrix(0.0833333 0 0 0.0833333 -178.733 -53.2917)" d="M 6574.7,7752.52 L 6574.7,7775.61 L 6065.09,8069.84 L 6055.09,8064.06 L 6055.09,8052.52 L 6574.7,7752.52 Z " />
<path stroke="transparent" fill="#000000" transform="matrix(0.0833333 0 0 0.0833333 -178.733 -53.2917)" d="M 7094.32,8052.52 L 7094.32,8064.06 L 7084.32,8069.84 L 6574.7,7775.61 L 6574.7,7752.52 L 7094.32,8052.52 Z " />
<path stroke="transparent" fill="#000000" transform="matrix(0.0833333 0 0 0.0833333 -178.733 -53.2917)" d="M 7613.93,7752.52 L 7613.93,7775.61 L 7104.32,8069.84 L 7094.32,8064.06 L 7094.32,8052.52 L 7613.93,7752.52 Z " />
<path stroke="transparent" fill="#000000" transform="matrix(0.0833333 0 0 0.0833333 -178.733 -53.2917)" d="M 8133.55,8052.52 L 8133.55,8075.61 L 7613.93,7775.61 L 7613.93,7752.52 L 8133.55,8052.52 Z " />
<path stroke="transparent" fill="#000000" transform="matrix(0.0833333 0 0 0.0833333 -178.733 -53.2917)" d="M 8179.55,8558.9 L 8159.55,8558.9 L 8159.55,8043.28 L 8179.55,8043.28 L 8179.55,8558.9 Z " />
<path stroke="transparent" fill="#000000" transform="matrix(0.0833333 0 0 0.0833333 -178.733 -53.2917)" d="M 8107.55,8558.9 L 8087.55,8558.9 L 8087.55,8043.28 L 8107.55,8043.28 L 8107.55,8558.9 Z " />
<path stroke="transparent" fill="#000000" transform="matrix(0.0833333 0 0 0.0833333 -178.733 -53.2917)" d="M 8548.56,7812.91 L 8558.56,7830.23 L 8133.55,8075.61 L 8133.55,8052.52 L 8548.56,7812.91 Z " />
<path stroke="transparent" fill="#000000" transform="matrix(0.0833333 0 0 0.0833333 -178.733 -53.2917)" d="M 8643.17,7170.37 L 8653.17,7164.06 L 8663.17,7169.84 L 8663.17,7658.9 L 8643.17,7658.9 L 8643.17,7170.37 Z " />
<path stroke="transparent" fill="#000000" transform="matrix(0.0833333 0 0 0.0833333 -178.733 -53.2917)" d="M 9162.78,6858.29 L 9172.78,6864.06 L 9172.32,6875.88 L 8663.17,7169.84 L 8653.17,7164.06 L 8653.62,7152.25 L 9162.78,6858.29 Z " />
<path stroke="transparent" fill="#000000" transform="matrix(0.0833333 0 0 0.0833333 -178.733 -53.2917)" d="M 9162.78,6258.29 L 9182.78,6269.84 L 9182.78,6857.76 L 9172.78,6864.06 L 9162.78,6858.29 L 9162.78,6258.29 Z " />
<path stroke="transparent" fill="#000000" transform="matrix(0.0833333 0 0 0.0833333 -178.733 -53.2917)" d="M 9182.78,6269.84 L 9162.78,6258.29 L 9682.4,5958.29 L 9702.4,5969.84 L 9182.78,6269.84 Z " />
<path stroke="transparent" fill="#000000" transform="matrix(0.0833333 0 0 0.0833333 -178.733 -53.2917)" d="M 8723.19,6073.78 L 8783.19,5969.85 L 8799.35,5981.87 L 8741.68,6081.76 L 8723.19,6073.78 Z " />
<path stroke="transparent" fill="#000000" transform="matrix(0.0833333 0 0 0.0833333 -178.733 -53.2917)" d="M 8777.38,6097.2 L 8830.57,6005.07 L 8846.73,6017.08 L 8795.86,6105.18 L 8777.38,6097.2 Z " />
<path stroke="transparent" fill="#000000" transform="matrix(0.0833333 0 0 0.0833333 -178.733 -53.2917)" d="M 8831.56,6120.61 L 8877.94,6040.28 L 8894.1,6052.3 L 8850.04,6128.6 L 8831.56,6120.61 Z " />
<path stroke="transparent" fill="#000000" transform="matrix(0.0833333 0 0 0.0833333 -178.733 -53.2917)" d="M 8885.75,6144.03 L 8925.31,6075.5 L 8941.47,6087.51 L 8904.23,6152.02 L 8885.75,6144.03 Z " />
<path stroke="transparent" fill="#000000" transform="matrix(0.0833333 0 0 0.0833333 -178.733 -53.2917)" d="M 8939.93,6167.45 L 8972.69,6110.72 L 8988.85,6122.73 L 8958.41,6175.44 L 8939.93,6167.45 Z " />
<path stroke="transparent" fill="#000000" transform="matrix(0.0833333 0 0 0.0833333 -178.733 -53.2917)" d="M 8994.12,6190.87 L 9020.06,6145.93 L 9036.22,6157.94 L 9012.6,6198.86 L 8994.12,6190.87 Z " />
<path stroke="transparent" fill="#000000" transform="matrix(0.0833333 0 0 0.0833333 -178.733 -53.2917)" d="M 9048.3,6214.29 L 9067.43,6181.15 L 9083.59,6193.16 L 9066.78,6222.28 L 9048.3,6214.29 Z " />
<path stroke="transparent" fill="#000000" transform="matrix(0.0833333 0 0 0.0833333 -178.733 -53.2917)" d="M 9102.49,6237.71 L 9114.81,6216.36 L 9130.97,6228.38 L 9120.97,6245.7 L 9102.49,6237.71 Z " />
<path stroke="transparent" fill="#000000" transform="matrix(0.0833333 0 0 0.0833333 -178.733 -53.2917)" d="M 9722.4,7112.1 L 9662.4,7216.02 L 9172.32,6875.88 L 9172.78,6864.06 L 9182.78,6857.76 L 9722.4,7112.1 Z " />
<path stroke="transparent" fill="#000000" transform="matrix(0.0833333 0 0 0.0833333 -178.733 -53.2917)" d="M 8103.55,6916.02 L 8163.55,6812.1 L 8653.62,7152.25 L 8653.17,7164.06 L 8643.17,7170.37 L 8103.55,6916.02 Z " />
<path stroke="transparent" fill="#000000" transform="matrix(0.0833333 0 0 0.0833333 -178.733 -53.2917)" d="M 7104.32,8558.9 L 7084.32,8558.9 L 7084.32,8069.84 L 7094.32,8064.06 L 7104.32,8069.84 L 7104.32,8558.9 Z " />
<path stroke="transparent" fill="#000000" transform="matrix(0.0833333 0 0 0.0833333 -178.733 -53.2917)" d="M 6065.09,8558.9 L 6045.09,8558.9 L 6045.09,8069.84 L 6055.09,8064.06 L 6065.09,8069.84 L 6065.09,8558.9 Z " />
<path stroke="transparent" fill="#000000" transform="matrix(0.0833333 0 0 0.0833333 -178.733 -53.2917)" d="M 5025.86,8558.9 L 5005.86,8558.9 L 5005.86,8069.84 L 5015.86,8064.06 L 5025.86,8069.84 L 5025.86,8558.9 Z " />
<path stroke="transparent" fill="#000000" transform="matrix(0.0833333 0 0 0.0833333 -178.733 -53.2917)" d="M 3554.62,7119.25 L 3544.62,7101.93 L 3966.63,6858.29 L 3976.63,6864.06 L 3976.63,6875.61 L 3554.62,7119.25 Z " />
<path stroke="transparent" fill="#000000" transform="matrix(0.0833333 0 0 0.0833333 -178.733 -53.2917)" d="M 4391.64,6012.91 L 4401.64,6030.23 L 3986.63,6269.84 L 3976.63,6264.06 L 3976.63,6252.52 L 4391.64,6012.91 Z " />
<path stroke="transparent" fill="#000000" transform="matrix(0.0833333 0 0 0.0833333 -178.733 -53.2917)" d="M 3060.01,5662.56 L 3000.01,5558.63 L 3435.15,5362.99 L 3457.01,5364.06 L 3447.01,5383.54 L 3060.01,5662.56 Z " />
<path stroke="transparent" fill="#000000" transform="matrix(0.0833333 0 0 0.0833333 -178.733 -53.2917)" d="M 2512.81,4230.47 L 2522.81,4213.15 L 2937.4,4452.51 L 2937.4,4464.06 L 2927.4,4469.83 L 2512.81,4230.47 Z " />
<path stroke="transparent" fill="#000000" transform="matrix(0.0833333 0 0 0.0833333 -178.733 -53.2917)" d="M 3244.38,3609.09 L 3259.22,3591.4 L 3465.17,4157.22 L 3457.01,4164.06 L 3444.75,4159.6 L 3244.38,3609.09 Z " />
<path stroke="transparent" fill="#000000" transform="matrix(0.0833333 0 0 0.0833333 -178.733 -53.2917)" d="M 3525.44,3202.58 L 3540.76,3215.43 L 3218.53,3599.45 L 3203.2,3586.6 L 3525.44,3202.58 Z " />
<path stroke="transparent" fill="#000000" transform="matrix(0.0833333 0 0 0.0833333 -178.733 -53.2917)" d="M 3580.59,3248.86 L 3595.91,3261.71 L 3273.68,3645.74 L 3258.36,3632.88 L 3580.59,3248.86 Z " />
<path stroke="transparent" fill="#000000" transform="matrix(0.0833333 0 0 0.0833333 -178.733 -53.2917)" d="M 2767.89,3525.07 L 2771.37,3505.38 L 3259.22,3591.4 L 3244.38,3609.09 L 2767.89,3525.07 Z " />
<path stroke="transparent" fill="#000000" transform="matrix(0.0833333 0 0 0.0833333 -178.733 -53.2917)" d="M 4120.52,3261.85 L 4133.38,3246.53 L 4497.31,3551.9 L 4496.24,3564.06 L 4486.24,3568.73 L 4120.52,3261.85 Z " />
<path stroke="transparent" fill="#000000" transform="matrix(0.0833333 0 0 0.0833333 -178.733 -53.2917)" d="M 4039.03,2583.76 L 4049.69,2578.53 L 4060.12,2584.22 L 4098.89,3074.57 L 3978.92,3071.96 L 4039.03,2583.76 Z " />
<path stroke="transparent" fill="#000000" transform="matrix(0.0833333 0 0 0.0833333 -178.733 -53.2917)" d="M 4565.85,2283.94 L 4585.6,2295.92 L 4060.12,2584.22 L 4049.69,2578.53 L 4049.95,2566.99 L 4565.85,2283.94 Z " />
<path stroke="transparent" fill="#000000" transform="matrix(0.0833333 0 0 0.0833333 -178.733 -53.2917)" d="M 4578.68,1695.63 L 4598.92,1684.52 L 4585.6,2295.92 L 4565.85,2283.94 L 4578.68,1695.63 Z " />
<path stroke="transparent" fill="#000000" transform="matrix(0.0833333 0 0 0.0833333 -178.733 -53.2917)" d="M 4075.6,1390.36 L 4075.85,1378.82 L 4086.53,1373.6 L 4598.92,1684.52 L 4578.68,1695.63 L 4075.6,1390.36 Z " />
<path stroke="transparent" fill="#000000" transform="matrix(0.0833333 0 0 0.0833333 -178.733 -53.2917)" d="M 3559.69,1673.41 L 3539.95,1661.43 L 4065.4,1373.14 L 4075.85,1378.82 L 4075.6,1390.36 L 3559.69,1673.41 Z " />
<path stroke="transparent" fill="#000000" transform="matrix(0.0833333 0 0 0.0833333 -178.733 -53.2917)" d="M 3549.03,2162.37 L 3529.03,2161.94 L 3539.95,1661.43 L 3559.69,1673.41 L 3549.03,2162.37 Z " />
<path stroke="transparent" fill="#000000" transform="matrix(0.0833333 0 0 0.0833333 -178.733 -53.2917)" d="M 3630.55,2335.9 L 3640.93,2318.8 L 4049.95,2566.99 L 4049.69,2578.53 L 4039.03,2583.76 L 3630.55,2335.9 Z " />
<path stroke="transparent" fill="#000000" transform="matrix(0.0833333 0 0 0.0833333 -178.733 -53.2917)" d="M 3005.74,1407.46 L 3067.99,1304.87 L 3084.14,1316.81 L 3023.79,1416.27 L 3005.74,1407.46 Z " />
<path stroke="transparent" fill="#000000" transform="matrix(0.0833333 0 0 0.0833333 -178.733 -53.2917)" d="M 3058.48,1433.21 L 3115.18,1339.77 L 3131.33,1351.71 L 3076.53,1442.02 L 3058.48,1433.21 Z " />
<path stroke="transparent" fill="#000000" transform="matrix(0.0833333 0 0 0.0833333 -178.733 -53.2917)" d="M 3111.22,1458.95 L 3162.37,1374.66 L 3178.52,1386.6 L 3129.27,1467.76 L 3111.22,1458.95 Z " />
<path stroke="transparent" fill="#000000" transform="matrix(0.0833333 0 0 0.0833333 -178.733 -53.2917)" d="M 3163.96,1484.69 L 3209.56,1409.55 L 3225.71,1421.5 L 3182.01,1493.5 L 3163.96,1484.69 Z " />
<path stroke="transparent" fill="#000000" transform="matrix(0.0833333 0 0 0.0833333 -178.733 -53.2917)" d="M 3216.71,1510.43 L 3256.75,1444.45 L 3272.89,1456.39 L 3234.76,1519.24 L 3216.71,1510.43 Z " />
<path stroke="transparent" fill="#000000" transform="matrix(0.0833333 0 0 0.0833333 -178.733 -53.2917)" d="M 3269.45,1536.18 L 3303.94,1479.34 L 3320.08,1491.28 L 3287.5,1544.99 L 3269.45,1536.18 Z " />
<path stroke="transparent" fill="#000000" transform="matrix(0.0833333 0 0 0.0833333 -178.733 -53.2917)" d="M 3322.19,1561.92 L 3351.12,1514.24 L 3367.27,1526.18 L 3340.24,1570.73 L 3322.19,1561.92 Z " />
<path stroke="transparent" fill="#000000" transform="matrix(0.0833333 0 0 0.0833333 -178.733 -53.2917)" d="M 3374.93,1587.66 L 3398.31,1549.13 L 3414.46,1561.07 L 3392.98,1596.47 L 3374.93,1587.66 Z " />
<path stroke="transparent" fill="#000000" transform="matrix(0.0833333 0 0 0.0833333 -178.733 -53.2917)" d="M 3427.67,1613.41 L 3445.5,1584.03 L 3461.65,1595.97 L 3445.72,1622.22 L 3427.67,1613.41 Z " />
<path stroke="transparent" fill="#000000" transform="matrix(0.0833333 0 0 0.0833333 -178.733 -53.2917)" d="M 3480.42,1639.15 L 3492.69,1618.92 L 3508.84,1630.86 L 3498.46,1647.96 L 3480.42,1639.15 Z " />
<path stroke="transparent" fill="#000000" transform="matrix(0.0833333 0 0 0.0833333 -178.733 -53.2917)" d="M 4026.33,897.439 L 4146.3,900.055 L 4086.53,1373.6 L 4075.85,1378.82 L 4065.4,1373.14 L 4026.33,897.439 Z " />
<path stroke="transparent" fill="#000000" transform="matrix(0.0833333 0 0 0.0833333 -178.733 -53.2917)" d="M 4974.4,1410.08 L 5032.12,1515.28 L 5013.44,1522.81 L 4958.02,1421.79 L 4974.4,1410.08 Z " />
<path stroke="transparent" fill="#000000" transform="matrix(0.0833333 0 0 0.0833333 -178.733 -53.2917)" d="M 4927.75,1443.43 L 4978.92,1536.71 L 4960.24,1544.24 L 4911.36,1455.15 L 4927.75,1443.43 Z " />
<path stroke="transparent" fill="#000000" transform="matrix(0.0833333 0 0 0.0833333 -178.733 -53.2917)" d="M 4881.09,1476.79 L 4925.72,1558.14 L 4907.04,1565.67 L 4864.7,1488.5 L 4881.09,1476.79 Z " />
<path stroke="transparent" fill="#000000" transform="matrix(0.0833333 0 0 0.0833333 -178.733 -53.2917)" d="M 4834.43,1510.15 L 4872.52,1579.57 L 4853.84,1587.1 L 4818.04,1521.86 L 4834.43,1510.15 Z " />
<path stroke="transparent" fill="#000000" transform="matrix(0.0833333 0 0 0.0833333 -178.733 -53.2917)" d="M 4787.77,1543.5 L 4819.32,1601.01 L 4800.63,1608.53 L 4771.38,1555.22 L 4787.77,1543.5 Z " />
<path stroke="transparent" fill="#000000" transform="matrix(0.0833333 0 0 0.0833333 -178.733 -53.2917)" d="M 4741.11,1576.86 L 4766.12,1622.44 L 4747.43,1629.96 L 4724.73,1588.58 L 4741.11,1576.86 Z " />
<path stroke="transparent" fill="#000000" transform="matrix(0.0833333 0 0 0.0833333 -178.733 -53.2917)" d="M 4694.45,1610.22 L 4712.91,1643.87 L 4694.23,1651.39 L 4678.07,1621.93 L 4694.45,1610.22 Z " />
<path stroke="transparent" fill="#000000" transform="matrix(0.0833333 0 0 0.0833333 -178.733 -53.2917)" d="M 4647.79,1643.58 L 4659.71,1665.3 L 4641.03,1672.82 L 4631.41,1655.29 L 4647.79,1643.58 Z " />
<path stroke="transparent" fill="#000000" transform="matrix(0.0833333 0 0 0.0833333 -178.733 -53.2917)" d="M 5028.35,2494.4 L 4966.1,2596.99 L 4950.18,2584.66 L 5010.07,2485.97 L 5028.35,2494.4 Z " />
<path stroke="transparent" fill="#000000" transform="matrix(0.0833333 0 0 0.0833333 -178.733 -53.2917)" d="M 4973.64,2469.17 L 4918.46,2560.1 L 4902.54,2547.78 L 4955.36,2460.74 L 4973.64,2469.17 Z " />
<path stroke="transparent" fill="#000000" transform="matrix(0.0833333 0 0 0.0833333 -178.733 -53.2917)" d="M 4918.92,2443.95 L 4870.82,2523.22 L 4854.9,2510.9 L 4900.64,2435.52 L 4918.92,2443.95 Z " />
<path stroke="transparent" fill="#000000" transform="matrix(0.0833333 0 0 0.0833333 -178.733 -53.2917)" d="M 4864.21,2418.72 L 4823.18,2486.34 L 4807.26,2474.02 L 4845.93,2410.29 L 4864.21,2418.72 Z " />
<path stroke="transparent" fill="#000000" transform="matrix(0.0833333 0 0 0.0833333 -178.733 -53.2917)" d="M 4809.5,2393.5 L 4775.54,2449.46 L 4759.62,2437.14 L 4791.22,2385.07 L 4809.5,2393.5 Z " />
<path stroke="transparent" fill="#000000" transform="matrix(0.0833333 0 0 0.0833333 -178.733 -53.2917)" d="M 4754.79,2368.27 L 4727.9,2412.58 L 4711.98,2400.26 L 4736.51,2359.84 L 4754.79,2368.27 Z " />
<path stroke="transparent" fill="#000000" transform="matrix(0.0833333 0 0 0.0833333 -178.733 -53.2917)" d="M 4700.07,2343.05 L 4680.26,2375.7 L 4664.34,2363.37 L 4681.79,2334.62 L 4700.07,2343.05 Z " />
<path stroke="transparent" fill="#000000" transform="matrix(0.0833333 0 0 0.0833333 -178.733 -53.2917)" d="M 4645.36,2317.82 L 4632.62,2338.82 L 4616.7,2326.49 L 4627.08,2309.39 L 4645.36,2317.82 Z " />
</svg>
