<?xml version="1.0" standalone="no" ?>
<!DOCTYPE svg PUBLIC "-//W3C//DTD SVG 1.1//EN" "http://www.w3.org/Graphics/SVG/1.1/DTD/svg11.dtd">
<svg width="355px" height="172px" viewBox="0 0 355 172" style="background-color: #ffffff00" xmlns="http://www.w3.org/2000/svg" xmlns:xlink="http://www.w3.org/1999/xlink" version="1.1" >
<text x="0" y="0" stroke="transparent" fill="#000000" transform="matrix(0.0833333 0 0 0.0833333 41.0912 18.207)" style="font:normal normal normal 200px 'Arial'" >
O</text>
<text x="0" y="0" stroke="transparent" fill="#000000" transform="matrix(0.0833333 0 0 0.0833333 127.693 168.206)" style="font:normal normal normal 200px 'Arial'" >
OH</text>
<text x="0" y="0" stroke="transparent" fill="#000000" transform="matrix(0.0833333 0 0 0.0833333 214.292 168.206)" style="font:normal normal normal 200px 'Arial'" >
O</text>
<text x="0" y="0" stroke="transparent" fill="#000000" transform="matrix(0.0833333 0 0 0.0833333 214.292 18.2065)" style="font:normal normal normal 200px 'Arial'" >
OH</text>
<path stroke="transparent" fill="#000000" transform="matrix(0.0833333 0 0 0.0833333 -238.208 -331)" d="M 3949.2,4400.92 L 3949.2,4412.47 L 3939.2,4418.24 L 3524.63,4178.9 L 3534.63,4161.58 L 3949.2,4400.92 Z " />
<path stroke="transparent" fill="#000000" transform="matrix(0.0833333 0 0 0.0833333 -238.208 -331)" d="M 3959.2,5006.69 L 3939.2,5018.23 L 3939.2,4418.24 L 3949.2,4412.47 L 3959.2,4418.24 L 3959.2,5006.69 Z " />
<path stroke="transparent" fill="#000000" transform="matrix(0.0833333 0 0 0.0833333 -238.208 -331)" d="M 4031.19,4970.89 L 4011.19,4970.89 L 4011.2,4454.04 L 4031.2,4454.04 L 4031.19,4970.89 Z " />
<path stroke="transparent" fill="#000000" transform="matrix(0.0833333 0 0 0.0833333 -238.208 -331)" d="M 4468.77,5300.92 L 4468.77,5312.47 L 4458.77,5318.24 L 3939.2,5018.23 L 3959.2,5006.69 L 4468.77,5300.92 Z " />
<path stroke="transparent" fill="#000000" transform="matrix(0.0833333 0 0 0.0833333 -238.208 -331)" d="M 4478.81,5807.3 L 4458.81,5807.3 L 4458.77,5318.24 L 4468.77,5312.47 L 4478.77,5318.24 L 4478.81,5807.3 Z " />
<path stroke="transparent" fill="#000000" transform="matrix(0.0833333 0 0 0.0833333 -238.208 -331)" d="M 4978.38,5006.69 L 4988.38,5012.47 L 4988.38,5024.01 L 4478.77,5318.24 L 4468.77,5312.47 L 4468.77,5300.92 L 4978.38,5006.69 Z " />
<path stroke="transparent" fill="#000000" transform="matrix(0.0833333 0 0 0.0833333 -238.208 -331)" d="M 4911.38,4962.24 L 4921.38,4979.56 L 4473.77,5237.99 L 4463.77,5220.67 L 4911.38,4962.24 Z " />
<path stroke="transparent" fill="#000000" transform="matrix(0.0833333 0 0 0.0833333 -238.208 -331)" d="M 5508.01,5300.94 L 5508.01,5324.03 L 4988.38,5024.01 L 4988.38,5012.47 L 4998.38,5006.69 L 5508.01,5300.94 Z " />
<path stroke="transparent" fill="#000000" transform="matrix(0.0833333 0 0 0.0833333 -238.208 -331)" d="M 5554,5807.31 L 5534,5807.31 L 5534.01,5291.7 L 5554.01,5291.7 L 5554,5807.31 Z " />
<path stroke="transparent" fill="#000000" transform="matrix(0.0833333 0 0 0.0833333 -238.208 -331)" d="M 5482.01,5807.31 L 5462.01,5807.31 L 5462.01,5291.7 L 5482.01,5291.7 L 5482.01,5807.31 Z " />
<path stroke="transparent" fill="#000000" transform="matrix(0.0833333 0 0 0.0833333 -238.208 -331)" d="M 6017.63,5006.71 L 6027.63,5012.49 L 6027.63,5024.03 L 5508.01,5324.03 L 5508.01,5300.94 L 6017.63,5006.71 Z " />
<path stroke="transparent" fill="#000000" transform="matrix(0.0833333 0 0 0.0833333 -238.208 -331)" d="M 6547.23,5300.93 L 6547.23,5324.02 L 6027.63,5024.03 L 6027.63,5012.49 L 6037.63,5006.71 L 6547.23,5300.93 Z " />
<path stroke="transparent" fill="#000000" transform="matrix(0.0833333 0 0 0.0833333 -238.208 -331)" d="M 6552.23,5220.68 L 6542.23,5238 L 6094.62,4979.58 L 6104.62,4962.26 L 6552.23,5220.68 Z " />
<path stroke="transparent" fill="#000000" transform="matrix(0.0833333 0 0 0.0833333 -238.208 -331)" d="M 7056.85,5006.7 L 7076.85,5018.25 L 6547.23,5324.02 L 6547.23,5300.93 L 7056.85,5006.7 Z " />
<path stroke="transparent" fill="#000000" transform="matrix(0.0833333 0 0 0.0833333 -238.208 -331)" d="M 7056.86,4418.26 L 7076.86,4406.71 L 7076.85,5018.25 L 7056.85,5006.7 L 7056.86,4418.26 Z " />
<path stroke="transparent" fill="#000000" transform="matrix(0.0833333 0 0 0.0833333 -238.208 -331)" d="M 6984.86,4454.05 L 7004.86,4454.05 L 7004.85,4970.9 L 6984.85,4970.9 L 6984.86,4454.05 Z " />
<path stroke="transparent" fill="#000000" transform="matrix(0.0833333 0 0 0.0833333 -238.208 -331)" d="M 6547.23,4124.01 L 6547.23,4100.92 L 7076.86,4406.71 L 7056.86,4418.26 L 6547.23,4124.01 Z " />
<path stroke="transparent" fill="#000000" transform="matrix(0.0833333 0 0 0.0833333 -238.208 -331)" d="M 6037.61,4418.24 L 6017.61,4406.69 L 6547.23,4100.92 L 6547.23,4124.01 L 6037.61,4418.24 Z " />
<path stroke="transparent" fill="#000000" transform="matrix(0.0833333 0 0 0.0833333 -238.208 -331)" d="M 6104.62,4462.69 L 6094.62,4445.37 L 6542.23,4186.94 L 6552.23,4204.26 L 6104.62,4462.69 Z " />
<path stroke="transparent" fill="#000000" transform="matrix(0.0833333 0 0 0.0833333 -238.208 -331)" d="M 6017.61,4406.69 L 6037.61,4418.24 L 6037.63,5006.71 L 6027.63,5012.49 L 6017.63,5006.71 L 6017.61,4406.69 Z " />
<path stroke="transparent" fill="#000000" transform="matrix(0.0833333 0 0 0.0833333 -238.208 -331)" d="M 4978.39,4418.25 L 4988.39,4412.48 L 4998.39,4418.25 L 4998.38,5006.69 L 4988.38,5012.47 L 4978.38,5006.69 L 4978.39,4418.25 Z " />
<path stroke="transparent" fill="#000000" transform="matrix(0.0833333 0 0 0.0833333 -238.208 -331)" d="M 5403.4,4161.32 L 5413.4,4178.64 L 4998.39,4418.25 L 4988.39,4412.48 L 4988.39,4400.93 L 5403.4,4161.32 Z " />
<path stroke="transparent" fill="#000000" transform="matrix(0.0833333 0 0 0.0833333 -238.208 -331)" d="M 4468.82,4124.02 L 4468.82,4100.92 L 4988.39,4400.93 L 4988.39,4412.48 L 4978.39,4418.25 L 4468.82,4124.02 Z " />
<path stroke="transparent" fill="#000000" transform="matrix(0.0833333 0 0 0.0833333 -238.208 -331)" d="M 4463.82,4204.27 L 4473.82,4186.95 L 4921.4,4445.38 L 4911.39,4462.7 L 4463.82,4204.27 Z " />
<path stroke="transparent" fill="#000000" transform="matrix(0.0833333 0 0 0.0833333 -238.208 -331)" d="M 4468.82,4100.92 L 4468.82,4124.02 L 3959.2,4418.24 L 3949.2,4412.47 L 3949.2,4400.92 L 4468.82,4100.92 Z " />
<path stroke="transparent" fill="#000000" transform="matrix(0.0833333 0 0 0.0833333 -238.208 -331)" d="M 2914.98,4421.14 L 2904.98,4403.82 L 3324.99,4161.33 L 3334.99,4178.65 L 2914.98,4421.14 Z " />
</svg>
