<?xml version="1.0" standalone="no" ?>
<!DOCTYPE svg PUBLIC "-//W3C//DTD SVG 1.1//EN" "http://www.w3.org/Graphics/SVG/1.1/DTD/svg11.dtd">
<svg width="374px" height="301px" viewBox="0 0 374 301" style="background-color: #ffffff00" xmlns="http://www.w3.org/2000/svg" xmlns:xlink="http://www.w3.org/1999/xlink" version="1.1" >
<text x="0" y="0" stroke="transparent" fill="#000000" transform="matrix(0.0666667 0 0 0.0666667 305.564 296.587)" style="font:normal normal normal 200px 'Arial'" >
OH</text>
<text x="0" y="0" stroke="transparent" fill="#000000" transform="matrix(0.0666667 0 0 0.0666667 248.175 148.267)" style="font:normal normal normal 200px 'Arial'" >
N</text>
<text x="0" y="0" stroke="transparent" fill="#000000" transform="matrix(0.0666667 0 0 0.0666667 310.83 118.803)" style="font:normal normal normal 200px 'Arial'" >
O</text>
<text x="0" y="0" stroke="transparent" fill="#000000" transform="matrix(0.0666667 0 0 0.0666667 360.221 227.264)" style="font:normal normal normal 200px 'Arial'" >
O</text>
<text x="0" y="0" stroke="transparent" fill="#000000" transform="matrix(0.0666667 0 0 0.0666667 353.962 297.727)" style="font:normal normal normal 200px 'Arial'" >
O</text>
<text x="0" y="0" stroke="transparent" fill="#000000" transform="matrix(0.0666667 0 0 0.0666667 152.374 188.262)" style="font:normal normal normal 200px 'Arial'" >
N</text>
<text x="0" y="0" stroke="transparent" fill="#000000" transform="matrix(0.0666667 0 0 0.0666667 3.42146 108.267)" style="font:normal normal normal 200px 'Arial'" >
HO</text>
<text x="0" y="0" stroke="transparent" fill="#000000" transform="matrix(0.0666667 0 0 0.0666667 117.644 48.34)" style="font:normal normal normal 200px 'Arial'" >
N</text>
<path stroke="transparent" fill="#000000" transform="matrix(0.0666667 0 0 0.0666667 -161.859 -115)" d="M 7045.86,4470.02 L 7057.34,4470.94 L 7062.33,4481.36 L 6723.02,4977.84 L 6711.45,4977.04 L 6706.57,4966.47 L 7045.86,4470.02 Z " />
<path stroke="transparent" fill="#000000" transform="matrix(0.0666667 0 0 0.0666667 -161.859 -115)" d="M 6964.62,4458.52 L 6981.13,4469.8 L 6683.79,4904.87 L 6667.28,4893.58 L 6964.62,4458.52 Z " />
<path stroke="transparent" fill="#000000" transform="matrix(0.0666667 0 0 0.0666667 -161.859 -115)" d="M 6984.79,5503.38 L 6978.36,5512.9 L 6968.63,5515.78 L 6704.94,4986.41 L 6711.45,4977.04 L 6723.02,4977.84 L 6984.79,5503.38 Z " />
<path stroke="transparent" fill="#000000" transform="matrix(0.0666667 0 0 0.0666667 -161.859 -115)" d="M 6104.57,4922.22 L 6118.34,4903.58 L 6706.57,4966.47 L 6711.45,4977.04 L 6704.94,4986.41 L 6104.57,4922.22 Z " />
<path stroke="transparent" fill="#000000" transform="matrix(0.0666667 0 0 0.0666667 -161.859 -115)" d="M 6798.75,3944.34 L 6812.08,3925.68 L 7063.92,4461.42 L 7057.34,4470.94 L 7045.86,4470.02 L 6798.75,3944.34 Z " />
<path stroke="transparent" fill="#000000" transform="matrix(0.0666667 0 0 0.0666667 -161.859 -115)" d="M 7663.86,4508.4 L 7650.68,4527.43 L 7062.33,4481.36 L 7057.34,4470.94 L 7063.92,4461.42 L 7663.86,4508.4 Z " />
<path stroke="transparent" fill="#000000" transform="matrix(0.0666667 0 0 0.0666667 -161.859 -115)" d="M 7558.34,5549.45 L 7568.28,5570.31 L 6992.07,5524.03 L 6978.36,5512.9 L 6984.79,5503.38 L 7558.34,5549.45 Z " />
<path stroke="transparent" fill="#000000" transform="matrix(0.0666667 0 0 0.0666667 -161.859 -115)" d="M 6459.7,5672.78 L 6437.24,5554.9 L 6457.27,5553.18 L 6478.96,5667.01 L 6459.7,5672.78 Z " />
<path stroke="transparent" fill="#000000" transform="matrix(0.0666667 0 0 0.0666667 -161.859 -115)" d="M 6515.72,5656.01 L 6495.51,5549.9 L 6515.54,5548.18 L 6534.98,5650.24 L 6515.72,5656.01 Z " />
<path stroke="transparent" fill="#000000" transform="matrix(0.0666667 0 0 0.0666667 -161.859 -115)" d="M 6571.74,5639.24 L 6553.77,5544.9 L 6573.8,5543.18 L 6591,5633.47 L 6571.74,5639.24 Z " />
<path stroke="transparent" fill="#000000" transform="matrix(0.0666667 0 0 0.0666667 -161.859 -115)" d="M 6627.77,5622.46 L 6612.04,5539.9 L 6632.07,5538.18 L 6647.03,5616.7 L 6627.77,5622.46 Z " />
<path stroke="transparent" fill="#000000" transform="matrix(0.0666667 0 0 0.0666667 -161.859 -115)" d="M 6683.79,5605.69 L 6670.31,5534.9 L 6690.34,5533.19 L 6703.05,5599.93 L 6683.79,5605.69 Z " />
<path stroke="transparent" fill="#000000" transform="matrix(0.0666667 0 0 0.0666667 -161.859 -115)" d="M 6739.81,5588.92 L 6728.57,5529.91 L 6748.6,5528.19 L 6759.07,5583.15 L 6739.81,5588.92 Z " />
<path stroke="transparent" fill="#000000" transform="matrix(0.0666667 0 0 0.0666667 -161.859 -115)" d="M 6795.84,5572.15 L 6786.84,5524.91 L 6806.87,5523.19 L 6815.1,5566.38 L 6795.84,5572.15 Z " />
<path stroke="transparent" fill="#000000" transform="matrix(0.0666667 0 0 0.0666667 -161.859 -115)" d="M 6851.86,5555.37 L 6845.1,5519.91 L 6865.14,5518.19 L 6871.12,5549.61 L 6851.86,5555.37 Z " />
<path stroke="transparent" fill="#000000" transform="matrix(0.0666667 0 0 0.0666667 -161.859 -115)" d="M 6907.88,5538.6 L 6903.37,5514.91 L 6923.4,5513.19 L 6927.15,5532.84 L 6907.88,5538.6 Z " />
<path stroke="transparent" fill="#000000" transform="matrix(0.0666667 0 0 0.0666667 -161.859 -115)" d="M 7128.52,5980.8 L 7010.64,6003.24 L 6968.63,5515.78 L 6978.36,5512.9 L 6992.07,5524.03 L 7128.52,5980.8 Z " />
<path stroke="transparent" fill="#000000" transform="matrix(0.0666667 0 0 0.0666667 -161.859 -115)" d="M 5867.02,4368.03 L 5874.43,4359.95 L 5885.84,4361.18 L 6118.34,4903.58 L 6104.57,4922.22 L 5867.02,4368.03 Z " />
<path stroke="transparent" fill="#000000" transform="matrix(0.0666667 0 0 0.0666667 -161.859 -115)" d="M 5947.57,4372.73 L 5965.96,4364.85 L 6170.35,4841.67 L 6151.96,4849.55 L 5947.57,4372.73 Z " />
<path stroke="transparent" fill="#000000" transform="matrix(0.0666667 0 0 0.0666667 -161.859 -115)" d="M 6316.51,3891.39 L 6318.69,3871.51 L 6812.08,3925.68 L 6798.75,3944.34 L 6316.51,3891.39 Z " />
<path stroke="transparent" fill="#000000" transform="matrix(0.0666667 0 0 0.0666667 -161.859 -115)" d="M 7059.87,3499 L 7076.12,3510.66 L 6770.92,3936.16 L 6754.67,3924.5 L 7059.87,3499 Z " />
<path stroke="transparent" fill="#000000" transform="matrix(0.0666667 0 0 0.0666667 -161.859 -115)" d="M 7120.58,3542.55 L 7136.83,3554.21 L 6831.74,3979.56 L 6815.49,3967.9 L 7120.58,3542.55 Z " />
<path stroke="transparent" fill="#000000" transform="matrix(0.0666667 0 0 0.0666667 -161.859 -115)" d="M 7873.15,4955.39 L 7855.04,4963.87 L 7650.68,4527.43 L 7663.86,4508.4 L 7873.15,4955.39 Z " />
<path stroke="transparent" fill="#000000" transform="matrix(0.0666667 0 0 0.0666667 -161.859 -115)" d="M 7813.48,5996.85 L 7795.28,6005.14 L 7578.29,5528.94 L 7596.49,5520.65 L 7813.48,5996.85 Z " />
<path stroke="transparent" fill="#000000" transform="matrix(0.0666667 0 0 0.0666667 -161.859 -115)" d="M 7747.12,6027.09 L 7728.92,6035.38 L 7512.61,5560.69 L 7530.81,5552.39 L 7747.12,6027.09 Z " />
<path stroke="transparent" fill="#000000" transform="matrix(0.0666667 0 0 0.0666667 -161.859 -115)" d="M 7832.92,5149.41 L 7849.41,5160.72 L 7568.28,5570.31 L 7558.34,5549.45 L 7832.92,5149.41 Z " />
<path stroke="transparent" fill="#000000" transform="matrix(0.0666667 0 0 0.0666667 -161.859 -115)" d="M 6279.16,6106.85 L 6259.82,6101.78 L 6385.71,5621.42 L 6405.05,5626.49 L 6279.16,6106.85 Z " />
<path stroke="transparent" fill="#000000" transform="matrix(0.0666667 0 0 0.0666667 -161.859 -115)" d="M 5307.61,4183 L 5306.51,4172.1 L 5316.51,4164.87 L 5870.57,4348.14 L 5874.43,4359.95 L 5867.02,4368.03 L 5307.61,4183 Z " />
<path stroke="transparent" fill="#000000" transform="matrix(0.0666667 0 0 0.0666667 -161.859 -115)" d="M 6135.87,3975.47 L 6152.16,3987.06 L 5885.84,4361.18 L 5874.43,4359.95 L 5870.57,4348.14 L 6135.87,3975.47 Z " />
<path stroke="transparent" fill="#000000" transform="matrix(0.0666667 0 0 0.0666667 -161.859 -115)" d="M 5870.58,3408.62 L 5878.28,3385.32 L 6157.3,3765.31 L 6141.18,3777.15 L 5870.58,3408.62 Z " />
<path stroke="transparent" fill="#000000" transform="matrix(0.0666667 0 0 0.0666667 -161.859 -115)" d="M 5296.51,3577.87 L 5306.51,3572.1 L 5316.51,3579.48 L 5316.51,4164.87 L 5306.51,4172.1 L 5296.51,4166.31 L 5296.51,3577.87 Z " />
<path stroke="transparent" fill="#000000" transform="matrix(0.0666667 0 0 0.0666667 -161.859 -115)" d="M 5224.51,3613.65 L 5244.51,3613.65 L 5244.51,4130.39 L 5224.51,4130.39 L 5224.51,3613.65 Z " />
<path stroke="transparent" fill="#000000" transform="matrix(0.0666667 0 0 0.0666667 -161.859 -115)" d="M 4894.42,4419.99 L 4884.47,4402.64 L 5296.51,4166.31 L 5306.51,4172.1 L 5307.61,4183 L 4894.42,4419.99 Z " />
<path stroke="transparent" fill="#000000" transform="matrix(0.0666667 0 0 0.0666667 -161.859 -115)" d="M 5316.51,3579.48 L 5306.51,3572.1 L 5307.73,3561.26 L 5878.28,3385.32 L 5870.58,3408.62 L 5316.51,3579.48 Z " />
<path stroke="transparent" fill="#000000" transform="matrix(0.0666667 0 0 0.0666667 -161.859 -115)" d="M 4785.49,3282.56 L 4785.49,3259.46 L 5307.73,3561.26 L 5306.51,3572.1 L 5296.51,3577.87 L 4785.49,3282.56 Z " />
<path stroke="transparent" fill="#000000" transform="matrix(0.0666667 0 0 0.0666667 -161.859 -115)" d="M 4264.62,4183.67 L 4264.54,4172.1 L 4274.54,4166.31 L 4686.51,4402.63 L 4676.56,4419.98 L 4264.62,4183.67 Z " />
<path stroke="transparent" fill="#000000" transform="matrix(0.0666667 0 0 0.0666667 -161.859 -115)" d="M 4331.64,4139.03 L 4341.59,4121.68 L 4722.37,4340.12 L 4712.42,4357.47 L 4331.64,4139.03 Z " />
<path stroke="transparent" fill="#000000" transform="matrix(0.0666667 0 0 0.0666667 -161.859 -115)" d="M 4274.54,3577.87 L 4264.54,3572.1 L 4264.62,3560.51 L 4785.49,3259.46 L 4785.49,3282.56 L 4274.54,3577.87 Z " />
<path stroke="transparent" fill="#000000" transform="matrix(0.0666667 0 0 0.0666667 -161.859 -115)" d="M 4341.75,3622.42 L 4331.74,3605.11 L 4780.49,3345.75 L 4790.5,3363.06 L 4341.75,3622.42 Z " />
<path stroke="transparent" fill="#000000" transform="matrix(0.0666667 0 0 0.0666667 -161.859 -115)" d="M 3758.58,4482.51 L 3758.43,4459.37 L 4254.54,4166.39 L 4264.54,4172.1 L 4264.62,4183.67 L 3758.58,4482.51 Z " />
<path stroke="transparent" fill="#000000" transform="matrix(0.0666667 0 0 0.0666667 -161.859 -115)" d="M 4254.54,3577.79 L 4264.54,3572.1 L 4274.54,3577.87 L 4274.54,4166.31 L 4264.54,4172.1 L 4254.54,4166.39 L 4254.54,3577.79 Z " />
<path stroke="transparent" fill="#000000" transform="matrix(0.0666667 0 0 0.0666667 -161.859 -115)" d="M 3758.43,3282.6 L 3758.51,3271.01 L 3768.51,3265.32 L 4264.62,3560.51 L 4264.54,3572.1 L 4254.54,3577.79 L 3758.43,3282.6 Z " />
<path stroke="transparent" fill="#000000" transform="matrix(0.0666667 0 0 0.0666667 -161.859 -115)" d="M 3227.49,4177.89 L 3247.49,4166.31 L 3758.43,4459.37 L 3758.58,4482.51 L 3227.49,4177.89 Z " />
<path stroke="transparent" fill="#000000" transform="matrix(0.0666667 0 0 0.0666667 -161.859 -115)" d="M 3304.59,4139.02 L 3314.54,4121.68 L 3762.95,4378.87 L 3753,4396.22 L 3304.59,4139.02 Z " />
<path stroke="transparent" fill="#000000" transform="matrix(0.0666667 0 0 0.0666667 -161.859 -115)" d="M 3247.49,3577.87 L 3237.49,3572.1 L 3237.42,3560.59 L 3748.51,3265.24 L 3758.51,3271.01 L 3758.43,3282.6 L 3247.49,3577.87 Z " />
<path stroke="transparent" fill="#000000" transform="matrix(0.0666667 0 0 0.0666667 -161.859 -115)" d="M 3314.7,3622.43 L 3304.7,3605.11 L 3752.97,3346.06 L 3762.98,3363.38 L 3314.7,3622.43 Z " />
<path stroke="transparent" fill="#000000" transform="matrix(0.0666667 0 0 0.0666667 -161.859 -115)" d="M 3748.51,2665.3 L 3768.51,2676.72 L 3768.51,3265.32 L 3758.51,3271.01 L 3748.51,3265.24 L 3748.51,2665.3 Z " />
<path stroke="transparent" fill="#000000" transform="matrix(0.0666667 0 0 0.0666667 -161.859 -115)" d="M 3227.49,3577.95 L 3237.49,3572.1 L 3247.49,3577.87 L 3247.49,4166.31 L 3227.49,4177.89 L 3227.49,3577.95 Z " />
<path stroke="transparent" fill="#000000" transform="matrix(0.0666667 0 0 0.0666667 -161.859 -115)" d="M 2797.31,3336.24 L 2807.11,3318.8 L 3237.42,3560.59 L 3237.49,3572.1 L 3227.49,3577.95 L 2797.31,3336.24 Z " />
<path stroke="transparent" fill="#000000" transform="matrix(0.0666667 0 0 0.0666667 -161.859 -115)" d="M 4149.71,2428.32 L 4159.88,2445.54 L 3768.51,2676.72 L 3748.51,2665.3 L 4149.71,2428.32 Z " />
<path stroke="transparent" fill="#000000" transform="matrix(0.0666667 0 0 0.0666667 -161.859 -115)" d="M 4254.54,1772.1 L 4274.54,1772.1 L 4274.54,2269.27 L 4254.54,2269.27 L 4254.54,1772.1 Z " />
<path stroke="transparent" fill="#000000" transform="matrix(0.0666667 0 0 0.0666667 -161.859 -115)" d="M 4790.47,2662.34 L 4780.51,2679.68 L 4369.7,2443.97 L 4379.66,2426.62 L 4790.47,2662.34 Z " />
</svg>
