<?xml version="1.0" standalone="no" ?>
<!DOCTYPE svg PUBLIC "-//W3C//DTD SVG 1.1//EN" "http://www.w3.org/Graphics/SVG/1.1/DTD/svg11.dtd">
<svg width="393px" height="258px" viewBox="0 0 393 258" style="background-color: #ffffff00" xmlns="http://www.w3.org/2000/svg" xmlns:xlink="http://www.w3.org/1999/xlink" version="1.1" >
<text x="0" y="0" stroke="transparent" fill="#000000" transform="matrix(0.0666667 0 0 0.0666667 142.17 214.677)" style="font:normal normal normal 200px 'Arial'" >
Cl</text>
<text x="0" y="0" stroke="transparent" fill="#000000" transform="matrix(0.0666667 0 0 0.0666667 101.193 114.303)" style="font:normal normal normal 200px 'Arial'" >
Cl</text>
<text x="0" y="0" stroke="transparent" fill="#000000" transform="matrix(0.0666667 0 0 0.0666667 280.075 94.1476)" style="font:normal normal normal 200px 'Arial'" >
OH</text>
<text x="0" y="0" stroke="transparent" fill="#000000" transform="matrix(0.0666667 0 0 0.0666667 3.3691 255.09)" style="font:normal normal normal 200px 'Arial'" >
O</text>
<text x="0" y="0" stroke="transparent" fill="#000000" transform="matrix(0.0666667 0 0 0.0666667 210.775 54.1376)" style="font:normal normal normal 200px 'Arial'" >
O</text>
<text x="0" y="0" stroke="transparent" fill="#000000" transform="matrix(0.0666667 0 0 0.0666667 314.722 74.0941)" style="font:normal normal normal 200px 'Arial'" >
O</text>
<text x="0" y="0" stroke="transparent" fill="#000000" transform="matrix(0.0666667 0 0 0.0666667 176.721 154.812)" style="font:normal normal normal 200px 'Arial'" >
H</text>
<text x="0" y="0" stroke="transparent" fill="#000000" transform="matrix(0.0666667 0 0 0.0666667 211.272 214.677)" style="font:normal normal normal 200px 'Arial'" >
H</text>
<text x="0" y="0" stroke="transparent" fill="#000000" transform="matrix(0.0666667 0 0 0.0666667 349.297 14.0548)" style="font:normal normal normal 200px 'Arial'" >
O</text>
<path stroke="transparent" fill="#000000" transform="matrix(0.0666667 0 0 0.0666667 -152.425 -184)" d="M 4550.93,5796.99 L 4430.93,5796.99 L 4433.2,5776.99 L 4548.67,5776.99 L 4550.93,5796.99 Z " />
<path stroke="transparent" fill="#000000" transform="matrix(0.0666667 0 0 0.0666667 -152.425 -184)" d="M 4544.12,5736.87 L 4437.75,5736.87 L 4440.02,5716.87 L 4541.85,5716.87 L 4544.12,5736.87 Z " />
<path stroke="transparent" fill="#000000" transform="matrix(0.0666667 0 0 0.0666667 -152.425 -184)" d="M 4537.3,5676.74 L 4444.57,5676.74 L 4446.84,5656.74 L 4535.03,5656.74 L 4537.3,5676.74 Z " />
<path stroke="transparent" fill="#000000" transform="matrix(0.0666667 0 0 0.0666667 -152.425 -184)" d="M 4530.48,5616.61 L 4451.39,5616.61 L 4453.66,5596.61 L 4528.21,5596.61 L 4530.48,5616.61 Z " />
<path stroke="transparent" fill="#000000" transform="matrix(0.0666667 0 0 0.0666667 -152.425 -184)" d="M 4523.66,5556.49 L 4458.21,5556.49 L 4460.48,5536.49 L 4521.39,5536.49 L 4523.66,5556.49 Z " />
<path stroke="transparent" fill="#000000" transform="matrix(0.0666667 0 0 0.0666667 -152.425 -184)" d="M 4516.84,5496.36 L 4465.03,5496.36 L 4467.3,5476.36 L 4514.57,5476.36 L 4516.84,5496.36 Z " />
<path stroke="transparent" fill="#000000" transform="matrix(0.0666667 0 0 0.0666667 -152.425 -184)" d="M 4510.02,5436.24 L 4471.85,5436.24 L 4474.12,5416.24 L 4507.75,5416.24 L 4510.02,5436.24 Z " />
<path stroke="transparent" fill="#000000" transform="matrix(0.0666667 0 0 0.0666667 -152.425 -184)" d="M 4503.2,5376.11 L 4478.67,5376.11 L 4480.93,5356.11 L 4500.93,5356.11 L 4503.2,5376.11 Z " />
<path stroke="transparent" fill="#000000" transform="matrix(0.0666667 0 0 0.0666667 -152.425 -184)" d="M 4490.93,5313.58 L 4490.93,5302.01 L 4500.93,5296.26 L 4997.28,5585.81 L 5009.19,5604.34 L 4999.19,5610.08 L 4490.93,5313.58 Z " />
<path stroke="transparent" fill="#000000" transform="matrix(0.0666667 0 0 0.0666667 -152.425 -184)" d="M 3982.67,5610.08 L 3972.67,5604.34 L 3984.2,5586.04 L 4480.93,5296.26 L 4490.93,5302.01 L 4490.93,5313.58 L 3982.67,5610.08 Z " />
<path stroke="transparent" fill="#000000" transform="matrix(0.0666667 0 0 0.0666667 -152.425 -184)" d="M 4480.93,4702.29 L 4490.93,4695.89 L 4500.93,4701.64 L 4500.93,5296.26 L 4490.93,5302.01 L 4480.93,5296.26 L 4480.93,4702.29 Z " />
<path stroke="transparent" fill="#000000" transform="matrix(0.0666667 0 0 0.0666667 -152.425 -184)" d="M 5019.19,5610.08 L 5009.19,5604.34 L 5021.11,5585.81 L 5517.45,5296.26 L 5527.45,5302.01 L 5530.16,5312.01 L 5019.19,5610.08 Z " />
<path stroke="transparent" fill="#000000" transform="matrix(0.0666667 0 0 0.0666667 -152.425 -184)" d="M 5019.19,6214.74 L 4999.19,6203.25 L 4999.19,5610.08 L 5009.19,5604.34 L 5019.19,5610.08 L 5019.19,6214.74 Z " />
<path stroke="transparent" fill="#000000" transform="matrix(0.0666667 0 0 0.0666667 -152.425 -184)" d="M 4949.19,5121.35 L 5069.19,5121.35 L 5021.11,5585.81 L 5009.19,5604.34 L 4997.28,5585.81 L 4949.19,5121.35 Z " />
<path stroke="transparent" fill="#000000" transform="matrix(0.0666667 0 0 0.0666667 -152.425 -184)" d="M 3912.67,5004.19 L 4032.67,5004.19 L 3984.2,5586.04 L 3972.67,5604.34 L 3961.15,5586.04 L 3912.67,5004.19 Z " />
<path stroke="transparent" fill="#000000" transform="matrix(0.0666667 0 0 0.0666667 -152.425 -184)" d="M 3982.67,6203.25 L 3972.67,6209 L 3962.67,6203.25 L 3962.67,5610.08 L 3972.67,5604.34 L 3982.67,5610.08 L 3982.67,6203.25 Z " />
<path stroke="transparent" fill="#000000" transform="matrix(0.0666667 0 0 0.0666667 -152.425 -184)" d="M 3454.41,5313.58 L 3454.42,5290.43 L 3961.15,5586.04 L 3972.67,5604.34 L 3962.67,5610.08 L 3454.41,5313.58 Z " />
<path stroke="transparent" fill="#000000" transform="matrix(0.0666667 0 0 0.0666667 -152.425 -184)" d="M 4015.75,4491.47 L 4075.64,4387.48 L 4491.43,4684.02 L 4490.93,4695.89 L 4480.93,4702.29 L 4015.75,4491.47 Z " />
<path stroke="transparent" fill="#000000" transform="matrix(0.0666667 0 0 0.0666667 -152.425 -184)" d="M 5009.19,4381.99 L 5009.19,4405.14 L 4500.93,4701.64 L 4490.93,4695.89 L 4491.43,4684.02 L 5009.19,4381.99 Z " />
<path stroke="transparent" fill="#000000" transform="matrix(0.0666667 0 0 0.0666667 -152.425 -184)" d="M 5537.45,5292.01 L 5527.45,5302.01 L 5517.45,5296.26 L 5517.45,4701.64 L 5527.45,4695.89 L 5537.45,4701.64 L 5537.45,5292.01 Z " />
<path stroke="transparent" fill="#000000" transform="matrix(0.0666667 0 0 0.0666667 -152.425 -184)" d="M 6553.97,5292.01 L 6573.97,5312.01 L 5530.16,5312.01 L 5527.45,5302.01 L 5537.45,5292.01 L 6553.97,5292.01 Z " />
<path stroke="transparent" fill="#000000" transform="matrix(0.0666667 0 0 0.0666667 -152.425 -184)" d="M 5587.45,5799.32 L 5467.45,5799.32 L 5469.71,5779.32 L 5585.2,5779.32 L 5587.45,5799.32 Z " />
<path stroke="transparent" fill="#000000" transform="matrix(0.0666667 0 0 0.0666667 -152.425 -184)" d="M 5580.63,5738.85 L 5474.27,5738.85 L 5476.53,5718.85 L 5578.38,5718.85 L 5580.63,5738.85 Z " />
<path stroke="transparent" fill="#000000" transform="matrix(0.0666667 0 0 0.0666667 -152.425 -184)" d="M 5573.81,5678.39 L 5481.09,5678.39 L 5483.35,5658.39 L 5571.56,5658.39 L 5573.81,5678.39 Z " />
<path stroke="transparent" fill="#000000" transform="matrix(0.0666667 0 0 0.0666667 -152.425 -184)" d="M 5566.99,5617.92 L 5487.91,5617.92 L 5490.17,5597.92 L 5564.74,5597.92 L 5566.99,5617.92 Z " />
<path stroke="transparent" fill="#000000" transform="matrix(0.0666667 0 0 0.0666667 -152.425 -184)" d="M 5560.17,5557.45 L 5494.74,5557.45 L 5496.99,5537.45 L 5557.91,5537.45 L 5560.17,5557.45 Z " />
<path stroke="transparent" fill="#000000" transform="matrix(0.0666667 0 0 0.0666667 -152.425 -184)" d="M 5553.35,5496.98 L 5501.56,5496.98 L 5503.81,5476.98 L 5551.09,5476.98 L 5553.35,5496.98 Z " />
<path stroke="transparent" fill="#000000" transform="matrix(0.0666667 0 0 0.0666667 -152.425 -184)" d="M 5546.53,5436.51 L 5508.38,5436.51 L 5510.63,5416.51 L 5544.27,5416.51 L 5546.53,5436.51 Z " />
<path stroke="transparent" fill="#000000" transform="matrix(0.0666667 0 0 0.0666667 -152.425 -184)" d="M 5539.71,5376.04 L 5515.2,5376.04 L 5517.45,5356.04 L 5537.45,5356.04 L 5539.71,5376.04 Z " />
<path stroke="transparent" fill="#000000" transform="matrix(0.0666667 0 0 0.0666667 -152.425 -184)" d="M 4490.93,6522.9 L 4490.93,6499.75 L 4999.19,6203.25 L 5019.19,6214.74 L 4490.93,6522.9 Z " />
<path stroke="transparent" fill="#000000" transform="matrix(0.0666667 0 0 0.0666667 -152.425 -184)" d="M 4490.93,6499.75 L 4490.93,6522.9 L 3972.67,6220.57 L 3972.67,6209 L 3982.67,6203.25 L 4490.93,6499.75 Z " />
<path stroke="transparent" fill="#000000" transform="matrix(0.0666667 0 0 0.0666667 -152.425 -184)" d="M 3454.42,6522.9 L 3454.41,6499.75 L 3962.67,6203.25 L 3972.67,6209 L 3972.67,6220.57 L 3454.42,6522.9 Z " />
<path stroke="transparent" fill="#000000" transform="matrix(0.0666667 0 0 0.0666667 -152.425 -184)" d="M 3459.4,6436.64 L 3449.32,6419.36 L 3895.64,6159.01 L 3905.71,6176.28 L 3459.4,6436.64 Z " />
<path stroke="transparent" fill="#000000" transform="matrix(0.0666667 0 0 0.0666667 -152.425 -184)" d="M 2944.63,5610.09 L 2924.63,5598.58 L 3454.42,5290.43 L 3454.41,5313.58 L 2944.63,5610.09 Z " />
<path stroke="transparent" fill="#000000" transform="matrix(0.0666667 0 0 0.0666667 -152.425 -184)" d="M 3011.82,5654.49 L 3001.76,5637.2 L 3449.34,5376.87 L 3459.39,5394.16 L 3011.82,5654.49 Z " />
<path stroke="transparent" fill="#000000" transform="matrix(0.0666667 0 0 0.0666667 -152.425 -184)" d="M 5009.19,4405.14 L 5009.19,4381.99 L 5515.93,4677.59 L 5527.45,4695.89 L 5517.45,4701.64 L 5009.19,4405.14 Z " />
<path stroke="transparent" fill="#000000" transform="matrix(0.0666667 0 0 0.0666667 -152.425 -184)" d="M 5467.45,4095.74 L 5587.45,4095.74 L 5538.98,4677.59 L 5527.45,4695.89 L 5515.93,4677.59 L 5467.45,4095.74 Z " />
<path stroke="transparent" fill="#000000" transform="matrix(0.0666667 0 0 0.0666667 -152.425 -184)" d="M 6035.26,4388.08 L 6045.71,4393.56 L 6045.71,4405.14 L 5537.45,4701.64 L 5527.45,4695.89 L 5538.98,4677.59 L 6035.26,4388.08 Z " />
<path stroke="transparent" fill="#000000" transform="matrix(0.0666667 0 0 0.0666667 -152.425 -184)" d="M 6553.97,4701.64 L 6573.97,4690.15 L 6573.97,5312.01 L 6553.97,5292.01 L 6553.97,4701.64 Z " />
<path stroke="transparent" fill="#000000" transform="matrix(0.0666667 0 0 0.0666667 -152.425 -184)" d="M 2924.63,6214.75 L 2944.63,6203.24 L 3454.41,6499.75 L 3454.42,6522.9 L 2924.63,6214.75 Z " />
<path stroke="transparent" fill="#000000" transform="matrix(0.0666667 0 0 0.0666667 -152.425 -184)" d="M 2944.63,6203.24 L 2924.63,6214.75 L 2924.63,5598.58 L 2944.63,5610.09 L 2944.63,6203.24 Z " />
<path stroke="transparent" fill="#000000" transform="matrix(0.0666667 0 0 0.0666667 -152.425 -184)" d="M 6573.97,4690.15 L 6553.97,4701.64 L 6045.71,4405.14 L 6045.71,4393.56 L 6056.17,4388.08 L 6573.97,4690.15 Z " />
<path stroke="transparent" fill="#000000" transform="matrix(0.0666667 0 0 0.0666667 -152.425 -184)" d="M 5987.54,3815.37 L 6107.73,3769.24 L 6056.17,4388.08 L 6045.71,4393.56 L 6035.26,4388.08 L 5987.54,3815.37 Z " />
<path stroke="transparent" fill="#000000" transform="matrix(0.0666667 0 0 0.0666667 -152.425 -184)" d="M 6435.9,4099.61 L 6495.79,4203.6 L 6477.3,4211.57 L 6419.73,4111.6 L 6435.9,4099.61 Z " />
<path stroke="transparent" fill="#000000" transform="matrix(0.0666667 0 0 0.0666667 -152.425 -184)" d="M 6388.45,4134.8 L 6441.54,4226.98 L 6423.05,4234.95 L 6372.28,4146.79 L 6388.45,4134.8 Z " />
<path stroke="transparent" fill="#000000" transform="matrix(0.0666667 0 0 0.0666667 -152.425 -184)" d="M 6341,4169.98 L 6387.3,4250.36 L 6368.81,4258.33 L 6324.83,4181.98 L 6341,4169.98 Z " />
<path stroke="transparent" fill="#000000" transform="matrix(0.0666667 0 0 0.0666667 -152.425 -184)" d="M 6293.56,4205.17 L 6333.05,4273.74 L 6314.56,4281.71 L 6277.38,4217.16 L 6293.56,4205.17 Z " />
<path stroke="transparent" fill="#000000" transform="matrix(0.0666667 0 0 0.0666667 -152.425 -184)" d="M 6246.11,4240.35 L 6278.8,4297.12 L 6260.31,4305.09 L 6229.94,4252.35 L 6246.11,4240.35 Z " />
<path stroke="transparent" fill="#000000" transform="matrix(0.0666667 0 0 0.0666667 -152.425 -184)" d="M 6198.66,4275.54 L 6224.56,4320.5 L 6206.07,4328.47 L 6182.49,4287.53 L 6198.66,4275.54 Z " />
<path stroke="transparent" fill="#000000" transform="matrix(0.0666667 0 0 0.0666667 -152.425 -184)" d="M 6151.22,4310.72 L 6170.31,4343.88 L 6151.82,4351.85 L 6135.04,4322.72 L 6151.22,4310.72 Z " />
<path stroke="transparent" fill="#000000" transform="matrix(0.0666667 0 0 0.0666667 -152.425 -184)" d="M 6103.77,4345.91 L 6116.07,4367.26 L 6097.58,4375.23 L 6087.59,4357.9 L 6103.77,4345.91 Z " />
<path stroke="transparent" fill="#000000" transform="matrix(0.0666667 0 0 0.0666667 -152.425 -184)" d="M 2530.54,6494.82 L 2520.56,6477.48 L 2965.51,6221.2 L 2975.49,6238.53 L 2530.54,6494.82 Z " />
<path stroke="transparent" fill="#000000" transform="matrix(0.0666667 0 0 0.0666667 -152.425 -184)" d="M 2494.62,6432.45 L 2484.64,6415.12 L 2929.64,6158.8 L 2939.62,6176.13 L 2494.62,6432.45 Z " />
<path stroke="transparent" fill="#000000" transform="matrix(0.0666667 0 0 0.0666667 -152.425 -184)" d="M 6565.5,3482.52 L 6565.5,3505.6 L 6107.73,3769.24 L 5987.54,3815.37 L 6565.5,3482.52 Z " />
<path stroke="transparent" fill="#000000" transform="matrix(0.0666667 0 0 0.0666667 -152.425 -184)" d="M 5603.13,3591.56 L 5613.11,3574.23 L 6050.7,3826.27 L 6040.72,3843.61 L 5603.13,3591.56 Z " />
<path stroke="transparent" fill="#000000" transform="matrix(0.0666667 0 0 0.0666667 -152.425 -184)" d="M 5639.05,3529.19 L 5649.03,3511.86 L 6086.75,3763.98 L 6076.77,3781.31 L 5639.05,3529.19 Z " />
<path stroke="transparent" fill="#000000" transform="matrix(0.0666667 0 0 0.0666667 -152.425 -184)" d="M 6997.53,3731.37 L 6987.55,3748.7 L 6565.5,3505.6 L 6565.5,3482.52 L 6997.53,3731.37 Z " />
<path stroke="transparent" fill="#000000" transform="matrix(0.0666667 0 0 0.0666667 -152.425 -184)" d="M 7604.48,3481.28 L 7604.5,3504.37 L 7182.78,3748.49 L 7172.76,3731.18 L 7604.48,3481.28 Z " />
<path stroke="transparent" fill="#000000" transform="matrix(0.0666667 0 0 0.0666667 -152.425 -184)" d="M 8129.48,3783.58 L 8119.5,3800.91 L 7604.5,3504.37 L 7604.48,3481.28 L 8129.48,3783.58 Z " />
<path stroke="transparent" fill="#000000" transform="matrix(0.0666667 0 0 0.0666667 -152.425 -184)" d="M 7557.96,3012.71 L 7577.96,3012.68 L 7578.51,3513.64 L 7558.51,3513.66 L 7557.96,3012.71 Z " />
<path stroke="transparent" fill="#000000" transform="matrix(0.0666667 0 0 0.0666667 -152.425 -184)" d="M 7629.97,3012.63 L 7649.97,3012.61 L 7650.51,3513.56 L 7630.51,3513.58 L 7629.97,3012.63 Z " />
</svg>
