<?xml version="1.0" standalone="no" ?>
<!DOCTYPE svg PUBLIC "-//W3C//DTD SVG 1.1//EN" "http://www.w3.org/Graphics/SVG/1.1/DTD/svg11.dtd">
<svg width="534px" height="297px" viewBox="0 0 534 297" style="background-color: #ffffff00" xmlns="http://www.w3.org/2000/svg" xmlns:xlink="http://www.w3.org/1999/xlink" version="1.1" >
<text x="0" y="0" stroke="transparent" fill="#000000" transform="matrix(0.0833333 0 0 0.0833333 3.34328 293.285)" style="font:normal normal normal 200px 'Arial'" >
HO</text>
<text x="0" y="0" stroke="transparent" fill="#000000" transform="matrix(0.0833333 0 0 0.0833333 399.519 152.395)" style="font:normal normal normal 200px 'Arial'" >
O</text>
<text x="0" y="0" stroke="transparent" fill="#000000" transform="matrix(0.0833333 0 0 0.0833333 382.605 52.6778)" style="font:normal normal normal 200px 'Arial'" >
HN</text>
<path stroke="transparent" fill="#000000" transform="matrix(0.0833333 0 0 0.0833333 -169.25 -230)" d="M 6088.6,3174.19 L 6202.69,3136.97 L 6207.15,3156.56 L 6096.55,3192.63 L 6088.6,3174.19 Z " />
<path stroke="transparent" fill="#000000" transform="matrix(0.0833333 0 0 0.0833333 -169.25 -230)" d="M 6111.81,3228.08 L 6215.72,3194.19 L 6220.18,3213.77 L 6119.76,3246.53 L 6111.81,3228.08 Z " />
<path stroke="transparent" fill="#000000" transform="matrix(0.0833333 0 0 0.0833333 -169.25 -230)" d="M 6135.02,3281.97 L 6228.75,3251.4 L 6233.22,3270.98 L 6142.97,3300.42 L 6135.02,3281.97 Z " />
<path stroke="transparent" fill="#000000" transform="matrix(0.0833333 0 0 0.0833333 -169.25 -230)" d="M 6158.23,3335.87 L 6241.79,3308.61 L 6246.25,3328.19 L 6166.18,3354.31 L 6158.23,3335.87 Z " />
<path stroke="transparent" fill="#000000" transform="matrix(0.0833333 0 0 0.0833333 -169.25 -230)" d="M 6181.44,3389.76 L 6254.82,3365.82 L 6259.28,3385.4 L 6189.39,3408.2 L 6181.44,3389.76 Z " />
<path stroke="transparent" fill="#000000" transform="matrix(0.0833333 0 0 0.0833333 -169.25 -230)" d="M 6204.65,3443.65 L 6267.85,3423.04 L 6272.31,3442.62 L 6212.6,3462.1 L 6204.65,3443.65 Z " />
<path stroke="transparent" fill="#000000" transform="matrix(0.0833333 0 0 0.0833333 -169.25 -230)" d="M 6227.86,3497.54 L 6280.89,3480.25 L 6285.35,3499.83 L 6235.8,3515.99 L 6227.86,3497.54 Z " />
<path stroke="transparent" fill="#000000" transform="matrix(0.0833333 0 0 0.0833333 -169.25 -230)" d="M 6251.07,3551.44 L 6293.92,3537.46 L 6298.38,3557.04 L 6259.01,3569.88 L 6251.07,3551.44 Z " />
<path stroke="transparent" fill="#000000" transform="matrix(0.0833333 0 0 0.0833333 -169.25 -230)" d="M 6274.28,3605.33 L 6306.95,3594.67 L 6311.41,3614.25 L 6282.22,3623.78 L 6274.28,3605.33 Z " />
<path stroke="transparent" fill="#000000" transform="matrix(0.0833333 0 0 0.0833333 -169.25 -230)" d="M 6297.49,3659.22 L 6319.99,3651.88 L 6324.45,3671.47 L 6305.43,3677.67 L 6297.49,3659.22 Z " />
<path stroke="transparent" fill="#000000" transform="matrix(0.0833333 0 0 0.0833333 -169.25 -230)" d="M 6327.88,3714.24 L 6335.55,3737.74 L 5991.92,4211.78 L 5979.56,4211.79 L 5973.37,4203.29 L 6327.88,3714.24 Z " />
<path stroke="transparent" fill="#000000" transform="matrix(0.0833333 0 0 0.0833333 -169.25 -230)" d="M 5975.76,4223.55 L 5979.56,4211.79 L 5991.92,4211.78 L 6336.63,4685.05 L 6332.82,4696.81 L 6320.46,4696.82 L 5975.76,4223.55 Z " />
<path stroke="transparent" fill="#000000" transform="matrix(0.0833333 0 0 0.0833333 -169.25 -230)" d="M 5984.54,5194.37 L 5976.88,5170.87 L 6320.46,4696.82 L 6332.82,4696.81 L 6339.01,4705.31 L 5984.54,5194.37 Z " />
<path stroke="transparent" fill="#000000" transform="matrix(0.0833333 0 0 0.0833333 -169.25 -230)" d="M 5976.88,5170.87 L 5984.54,5194.37 L 5411.05,5008.75 L 5409.89,4997.87 L 5419.89,4990.59 L 5976.88,5170.87 Z " />
<path stroke="transparent" fill="#000000" transform="matrix(0.0833333 0 0 0.0833333 -169.25 -230)" d="M 5399.89,4992.11 L 5409.89,4997.87 L 5411.05,5008.75 L 4900.63,5304.23 L 4890.63,5298.47 L 4902.54,5280.02 L 5399.89,4992.11 Z " />
<path stroke="transparent" fill="#000000" transform="matrix(0.0833333 0 0 0.0833333 -169.25 -230)" d="M 4901.3,5904.22 L 4881.28,5892.69 L 4880.63,5304.25 L 4890.63,5298.47 L 4900.63,5304.23 L 4901.3,5904.22 Z " />
<path stroke="transparent" fill="#000000" transform="matrix(0.0833333 0 0 0.0833333 -169.25 -230)" d="M 4372.03,6210.6 L 4372.01,6187.51 L 4881.28,5892.69 L 4901.3,5904.22 L 4372.03,6210.6 Z " />
<path stroke="transparent" fill="#000000" transform="matrix(0.0833333 0 0 0.0833333 -169.25 -230)" d="M 3852.06,5911.21 L 3852.05,5899.66 L 3862.04,5893.87 L 4372.01,6187.51 L 4372.03,6210.6 L 3852.06,5911.21 Z " />
<path stroke="transparent" fill="#000000" transform="matrix(0.0833333 0 0 0.0833333 -169.25 -230)" d="M 3919.02,5866.67 L 3929,5849.34 L 4376.91,6107.25 L 4366.93,6124.58 L 3919.02,5866.67 Z " />
<path stroke="transparent" fill="#000000" transform="matrix(0.0833333 0 0 0.0833333 -169.25 -230)" d="M 3332.8,6211.81 L 3332.77,6188.71 L 3842.04,5893.9 L 3852.05,5899.66 L 3852.06,5911.21 L 3332.8,6211.81 Z " />
<path stroke="transparent" fill="#000000" transform="matrix(0.0833333 0 0 0.0833333 -169.25 -230)" d="M 3332.77,6188.71 L 3332.8,6211.81 L 2813.39,5912.69 L 2812.82,5900.82 L 2822.81,5895.04 L 3332.77,6188.71 Z " />
<path stroke="transparent" fill="#000000" transform="matrix(0.0833333 0 0 0.0833333 -169.25 -230)" d="M 2416.16,6199.78 L 2356.04,6095.92 L 2802.81,5894.42 L 2812.82,5900.82 L 2813.39,5912.69 L 2416.16,6199.78 Z " />
<path stroke="transparent" fill="#000000" transform="matrix(0.0833333 0 0 0.0833333 -169.25 -230)" d="M 2802.15,5295.07 L 2822.16,5306.6 L 2822.81,5895.04 L 2812.82,5900.82 L 2802.81,5894.42 L 2802.15,5295.07 Z " />
<path stroke="transparent" fill="#000000" transform="matrix(0.0833333 0 0 0.0833333 -169.25 -230)" d="M 3331.41,4988.69 L 3331.44,5011.78 L 2822.16,5306.6 L 2802.15,5295.07 L 3331.41,4988.69 Z " />
<path stroke="transparent" fill="#000000" transform="matrix(0.0833333 0 0 0.0833333 -169.25 -230)" d="M 3331.44,5011.78 L 3331.41,4988.69 L 3839.85,5281.49 L 3851.39,5299.67 L 3841.39,5305.46 L 3331.44,5011.78 Z " />
<path stroke="transparent" fill="#000000" transform="matrix(0.0833333 0 0 0.0833333 -169.25 -230)" d="M 3841.39,5305.46 L 3851.39,5299.67 L 3861.39,5305.43 L 3862.04,5893.87 L 3852.05,5899.66 L 3842.04,5893.9 L 3841.39,5305.46 Z " />
<path stroke="transparent" fill="#000000" transform="matrix(0.0833333 0 0 0.0833333 -169.25 -230)" d="M 3790.69,4699.7 L 3910.69,4699.56 L 3862.88,5281.46 L 3851.39,5299.67 L 3839.85,5281.49 L 3790.69,4699.7 Z " />
<path stroke="transparent" fill="#000000" transform="matrix(0.0833333 0 0 0.0833333 -169.25 -230)" d="M 3861.39,5305.43 L 3851.39,5299.67 L 3862.88,5281.46 L 4360.65,4993.31 L 4370.66,4999.07 L 4370.67,5010.62 L 3861.39,5305.43 Z " />
<path stroke="transparent" fill="#000000" transform="matrix(0.0833333 0 0 0.0833333 -169.25 -230)" d="M 4370.67,5010.62 L 4370.66,4999.07 L 4380.65,4993.29 L 4878.72,5280.07 L 4890.63,5298.47 L 4880.63,5304.25 L 4370.67,5010.62 Z " />
<path stroke="transparent" fill="#000000" transform="matrix(0.0833333 0 0 0.0833333 -169.25 -230)" d="M 4359.95,4393.27 L 4379.97,4404.8 L 4380.65,4993.29 L 4370.66,4999.07 L 4360.65,4993.31 L 4359.95,4393.27 Z " />
<path stroke="transparent" fill="#000000" transform="matrix(0.0833333 0 0 0.0833333 -169.25 -230)" d="M 4889.22,4086.89 L 4889.24,4109.98 L 4379.97,4404.8 L 4359.95,4393.27 L 4889.22,4086.89 Z " />
<path stroke="transparent" fill="#000000" transform="matrix(0.0833333 0 0 0.0833333 -169.25 -230)" d="M 4889.24,4109.98 L 4889.22,4086.89 L 5397.68,4379.7 L 5409.19,4397.87 L 5399.2,4403.65 L 4889.24,4109.98 Z " />
<path stroke="transparent" fill="#000000" transform="matrix(0.0833333 0 0 0.0833333 -169.25 -230)" d="M 5399.2,4403.65 L 5409.19,4397.87 L 5419.2,4405.12 L 5419.89,4990.59 L 5409.89,4997.87 L 5399.89,4992.11 L 5399.2,4403.65 Z " />
<path stroke="transparent" fill="#000000" transform="matrix(0.0833333 0 0 0.0833333 -169.25 -230)" d="M 5419.2,4405.12 L 5409.19,4397.87 L 5420.37,4383.7 L 5973.37,4203.29 L 5979.56,4211.79 L 5975.76,4223.55 L 5419.2,4405.12 Z " />
<path stroke="transparent" fill="#000000" transform="matrix(0.0833333 0 0 0.0833333 -169.25 -230)" d="M 5349.19,3797.87 L 5469.19,3797.87 L 5420.37,4383.7 L 5409.19,4397.87 L 5397.68,4379.7 L 5349.19,3797.87 Z " />
<path stroke="transparent" fill="#000000" transform="matrix(0.0833333 0 0 0.0833333 -169.25 -230)" d="M 6793.68,4535.96 L 6799.88,4554.97 L 6339.01,4705.31 L 6332.82,4696.81 L 6336.63,4685.05 L 6793.68,4535.96 Z " />
<path stroke="transparent" fill="#000000" transform="matrix(0.0833333 0 0 0.0833333 -169.25 -230)" d="M 6913.11,4405.56 L 6893.11,4405.59 L 6892.55,3917.98 L 6902.54,3910.7 L 6912.56,3926.09 L 6913.11,4405.56 Z " />
<path stroke="transparent" fill="#000000" transform="matrix(0.0833333 0 0 0.0833333 -169.25 -230)" d="M 6889.23,3895.89 L 6902.54,3910.7 L 6892.55,3917.98 L 6335.55,3737.74 L 6327.88,3714.24 L 6889.23,3895.89 Z " />
<path stroke="transparent" fill="#000000" transform="matrix(0.0833333 0 0 0.0833333 -169.25 -230)" d="M 7449.76,4142.66 L 7452.2,4165.62 L 6912.56,3926.09 L 6902.54,3910.7 L 6912.47,3904.17 L 7449.76,4142.66 Z " />
<path stroke="transparent" fill="#000000" transform="matrix(0.0833333 0 0 0.0833333 -169.25 -230)" d="M 7925.42,3796.27 L 7946.53,3805.64 L 7452.2,4165.62 L 7449.76,4142.66 L 7925.42,3796.27 Z " />
<path stroke="transparent" fill="#000000" transform="matrix(0.0833333 0 0 0.0833333 -169.25 -230)" d="M 7946.53,3805.64 L 7925.42,3796.27 L 7863.22,3211.1 L 7881.88,3197.5 L 7946.53,3805.64 Z " />
<path stroke="transparent" fill="#000000" transform="matrix(0.0833333 0 0 0.0833333 -169.25 -230)" d="M 8322.24,2802.58 L 8392.88,2899.58 L 8375.64,2909.87 L 8307.15,2815.83 L 8322.24,2802.58 Z " />
<path stroke="transparent" fill="#000000" transform="matrix(0.0833333 0 0 0.0833333 -169.25 -230)" d="M 8278.14,2841.31 L 8342.49,2929.66 L 8325.24,2939.95 L 8263.05,2854.56 L 8278.14,2841.31 Z " />
<path stroke="transparent" fill="#000000" transform="matrix(0.0833333 0 0 0.0833333 -169.25 -230)" d="M 8234.05,2880.04 L 8292.09,2959.74 L 8274.85,2970.03 L 8218.96,2893.3 L 8234.05,2880.04 Z " />
<path stroke="transparent" fill="#000000" transform="matrix(0.0833333 0 0 0.0833333 -169.25 -230)" d="M 8189.96,2918.77 L 8241.7,2989.82 L 8224.45,3000.11 L 8174.87,2932.03 L 8189.96,2918.77 Z " />
<path stroke="transparent" fill="#000000" transform="matrix(0.0833333 0 0 0.0833333 -169.25 -230)" d="M 8145.87,2957.51 L 8191.3,3019.9 L 8174.06,3030.19 L 8130.78,2970.76 L 8145.87,2957.51 Z " />
<path stroke="transparent" fill="#000000" transform="matrix(0.0833333 0 0 0.0833333 -169.25 -230)" d="M 8101.77,2996.24 L 8140.91,3049.98 L 8123.66,3060.27 L 8086.68,3009.49 L 8101.77,2996.24 Z " />
<path stroke="transparent" fill="#000000" transform="matrix(0.0833333 0 0 0.0833333 -169.25 -230)" d="M 8057.68,3034.97 L 8090.51,3080.06 L 8073.27,3090.35 L 8042.59,3048.23 L 8057.68,3034.97 Z " />
<path stroke="transparent" fill="#000000" transform="matrix(0.0833333 0 0 0.0833333 -169.25 -230)" d="M 8013.59,3073.71 L 8040.12,3110.14 L 8022.88,3120.43 L 7998.5,3086.96 L 8013.59,3073.71 Z " />
<path stroke="transparent" fill="#000000" transform="matrix(0.0833333 0 0 0.0833333 -169.25 -230)" d="M 7969.49,3112.44 L 7989.73,3140.22 L 7972.48,3150.51 L 7954.41,3125.69 L 7969.49,3112.44 Z " />
<path stroke="transparent" fill="#000000" transform="matrix(0.0833333 0 0 0.0833333 -169.25 -230)" d="M 7925.4,3151.17 L 7939.33,3170.3 L 7922.09,3180.59 L 7910.31,3164.43 L 7925.4,3151.17 Z " />
<path stroke="transparent" fill="#000000" transform="matrix(0.0833333 0 0 0.0833333 -169.25 -230)" d="M 7325.37,2972.36 L 7322.93,2949.39 L 7881.88,3197.5 L 7863.22,3211.1 L 7325.37,2972.36 Z " />
<path stroke="transparent" fill="#000000" transform="matrix(0.0833333 0 0 0.0833333 -169.25 -230)" d="M 6943.2,3250.71 L 6931.42,3234.54 L 7322.93,2949.39 L 7325.37,2972.36 L 6943.2,3250.71 Z " />
<path stroke="transparent" fill="#000000" transform="matrix(0.0833333 0 0 0.0833333 -169.25 -230)" d="M 6791.82,3436.72 L 6911.15,3424.04 L 6912.47,3904.17 L 6902.54,3910.7 L 6889.23,3895.89 L 6791.82,3436.72 Z " />
<text x="0" y="0" stroke="transparent" fill="#000000" transform="matrix(0.0833333 0 0 0.0833333 188.971 243.089)" style="font:normal normal normal 200px 'Arial'" >
H</text>
<path stroke="transparent" fill="#000000" transform="matrix(0.0833333 0 0 0.0833333 -169.25 -230)" d="M 4430.66,5496.4 L 4310.66,5496.4 L 4312.91,5476.4 L 4428.4,5476.4 L 4430.66,5496.4 Z " />
<path stroke="transparent" fill="#000000" transform="matrix(0.0833333 0 0 0.0833333 -169.25 -230)" d="M 4423.84,5435.93 L 4317.48,5435.93 L 4319.73,5415.93 L 4421.58,5415.93 L 4423.84,5435.93 Z " />
<path stroke="transparent" fill="#000000" transform="matrix(0.0833333 0 0 0.0833333 -169.25 -230)" d="M 4417.01,5375.46 L 4324.3,5375.46 L 4326.55,5355.46 L 4414.76,5355.46 L 4417.01,5375.46 Z " />
<path stroke="transparent" fill="#000000" transform="matrix(0.0833333 0 0 0.0833333 -169.25 -230)" d="M 4410.19,5314.99 L 4331.12,5314.99 L 4333.37,5294.99 L 4407.94,5294.99 L 4410.19,5314.99 Z " />
<path stroke="transparent" fill="#000000" transform="matrix(0.0833333 0 0 0.0833333 -169.25 -230)" d="M 4403.37,5254.52 L 4337.94,5254.52 L 4340.19,5234.52 L 4401.12,5234.52 L 4403.37,5254.52 Z " />
<path stroke="transparent" fill="#000000" transform="matrix(0.0833333 0 0 0.0833333 -169.25 -230)" d="M 4396.55,5194.05 L 4344.76,5194.05 L 4347.01,5174.05 L 4394.3,5174.05 L 4396.55,5194.05 Z " />
<path stroke="transparent" fill="#000000" transform="matrix(0.0833333 0 0 0.0833333 -169.25 -230)" d="M 4389.73,5133.58 L 4351.58,5133.58 L 4353.84,5113.58 L 4387.48,5113.58 L 4389.73,5133.58 Z " />
<path stroke="transparent" fill="#000000" transform="matrix(0.0833333 0 0 0.0833333 -169.25 -230)" d="M 4382.91,5073.11 L 4358.4,5073.11 L 4360.66,5053.11 L 4380.66,5053.11 L 4382.91,5073.11 Z " />
<text x="0" y="0" stroke="transparent" fill="#000000" transform="matrix(0.0833333 0 0 0.0833333 232.302 168.039)" style="font:normal normal normal 200px 'Arial'" >
H</text>
<path stroke="transparent" fill="#000000" transform="matrix(0.0833333 0 0 0.0833333 -169.25 -230)" d="M 4830.63,4815.8 L 4950.63,4815.8 L 4902.54,5280.02 L 4890.63,5298.47 L 4878.72,5280.07 L 4830.63,4815.8 Z " />
<text x="0" y="0" stroke="transparent" fill="#000000" transform="matrix(0.0833333 0 0 0.0833333 275.574 242.989)" style="font:normal normal normal 200px 'Arial'" >
H</text>
<path stroke="transparent" fill="#000000" transform="matrix(0.0833333 0 0 0.0833333 -169.25 -230)" d="M 5469.89,5495.2 L 5349.89,5495.2 L 5352.15,5475.2 L 5467.64,5475.2 L 5469.89,5495.2 Z " />
<path stroke="transparent" fill="#000000" transform="matrix(0.0833333 0 0 0.0833333 -169.25 -230)" d="M 5463.07,5434.73 L 5356.71,5434.73 L 5358.97,5414.73 L 5460.82,5414.73 L 5463.07,5434.73 Z " />
<path stroke="transparent" fill="#000000" transform="matrix(0.0833333 0 0 0.0833333 -169.25 -230)" d="M 5456.25,5374.26 L 5363.53,5374.26 L 5365.79,5354.26 L 5454,5354.26 L 5456.25,5374.26 Z " />
<path stroke="transparent" fill="#000000" transform="matrix(0.0833333 0 0 0.0833333 -169.25 -230)" d="M 5449.43,5313.79 L 5370.36,5313.79 L 5372.61,5293.79 L 5447.18,5293.79 L 5449.43,5313.79 Z " />
<path stroke="transparent" fill="#000000" transform="matrix(0.0833333 0 0 0.0833333 -169.25 -230)" d="M 5442.61,5253.32 L 5377.18,5253.32 L 5379.43,5233.32 L 5440.36,5233.32 L 5442.61,5253.32 Z " />
<path stroke="transparent" fill="#000000" transform="matrix(0.0833333 0 0 0.0833333 -169.25 -230)" d="M 5435.79,5192.85 L 5384,5192.85 L 5386.25,5172.85 L 5433.53,5172.85 L 5435.79,5192.85 Z " />
<path stroke="transparent" fill="#000000" transform="matrix(0.0833333 0 0 0.0833333 -169.25 -230)" d="M 5428.97,5132.38 L 5390.82,5132.38 L 5393.07,5112.38 L 5426.71,5112.38 L 5428.97,5132.38 Z " />
<path stroke="transparent" fill="#000000" transform="matrix(0.0833333 0 0 0.0833333 -169.25 -230)" d="M 5422.15,5071.9 L 5397.64,5071.9 L 5399.89,5051.9 L 5419.89,5051.9 L 5422.15,5071.9 Z " />
<text x="0" y="0" stroke="transparent" fill="#000000" transform="matrix(0.0833333 0 0 0.0833333 310.106 79.1865)" style="font:normal normal normal 200px 'Arial'" >
H</text>
<path stroke="transparent" fill="#000000" transform="matrix(0.0833333 0 0 0.0833333 -169.25 -230)" d="M 5799.75,3772.56 L 5915.66,3741.5 L 5918.52,3761.44 L 5807.25,3791.25 L 5799.75,3772.56 Z " />
<path stroke="transparent" fill="#000000" transform="matrix(0.0833333 0 0 0.0833333 -169.25 -230)" d="M 5820.99,3825.54 L 5923.76,3798 L 5926.62,3817.94 L 5828.48,3844.24 L 5820.99,3825.54 Z " />
<path stroke="transparent" fill="#000000" transform="matrix(0.0833333 0 0 0.0833333 -169.25 -230)" d="M 5842.23,3878.52 L 5931.86,3854.5 L 5934.72,3874.44 L 5849.72,3897.22 L 5842.23,3878.52 Z " />
<path stroke="transparent" fill="#000000" transform="matrix(0.0833333 0 0 0.0833333 -169.25 -230)" d="M 5863.46,3931.5 L 5939.96,3911.01 L 5942.82,3930.95 L 5870.96,3950.2 L 5863.46,3931.5 Z " />
<path stroke="transparent" fill="#000000" transform="matrix(0.0833333 0 0 0.0833333 -169.25 -230)" d="M 5884.7,3984.49 L 5948.06,3967.51 L 5950.92,3987.45 L 5892.19,4003.18 L 5884.7,3984.49 Z " />
<path stroke="transparent" fill="#000000" transform="matrix(0.0833333 0 0 0.0833333 -169.25 -230)" d="M 5905.93,4037.47 L 5956.16,4024.01 L 5959.02,4043.95 L 5913.43,4056.17 L 5905.93,4037.47 Z " />
<path stroke="transparent" fill="#000000" transform="matrix(0.0833333 0 0 0.0833333 -169.25 -230)" d="M 5927.17,4090.45 L 5964.26,4080.51 L 5967.12,4100.45 L 5934.67,4109.15 L 5927.17,4090.45 Z " />
<path stroke="transparent" fill="#000000" transform="matrix(0.0833333 0 0 0.0833333 -169.25 -230)" d="M 5948.41,4143.43 L 5972.36,4137.02 L 5975.22,4156.96 L 5955.9,4162.13 L 5948.41,4143.43 Z " />
<text x="0" y="0" stroke="transparent" fill="#000000" transform="matrix(0.0833333 0 0 0.0833333 395.787 192.901)" style="font:normal normal normal 200px 'Arial'" >
H</text>
<path stroke="transparent" fill="#000000" transform="matrix(0.0833333 0 0 0.0833333 -169.25 -230)" d="M 6779.41,4885.37 L 6719.41,4989.29 L 6703.26,4977.26 L 6760.92,4877.39 L 6779.41,4885.37 Z " />
<path stroke="transparent" fill="#000000" transform="matrix(0.0833333 0 0 0.0833333 -169.25 -230)" d="M 6725.65,4862.19 L 6672.46,4954.32 L 6656.31,4942.29 L 6707.16,4854.22 L 6725.65,4862.19 Z " />
<path stroke="transparent" fill="#000000" transform="matrix(0.0833333 0 0 0.0833333 -169.25 -230)" d="M 6671.89,4839.01 L 6625.51,4919.35 L 6609.36,4907.32 L 6653.4,4831.04 L 6671.89,4839.01 Z " />
<path stroke="transparent" fill="#000000" transform="matrix(0.0833333 0 0 0.0833333 -169.25 -230)" d="M 6618.13,4815.83 L 6578.55,4884.38 L 6562.4,4872.35 L 6599.64,4807.86 L 6618.13,4815.83 Z " />
<path stroke="transparent" fill="#000000" transform="matrix(0.0833333 0 0 0.0833333 -169.25 -230)" d="M 6564.37,4792.66 L 6531.6,4849.41 L 6515.45,4837.38 L 6545.88,4784.68 L 6564.37,4792.66 Z " />
<path stroke="transparent" fill="#000000" transform="matrix(0.0833333 0 0 0.0833333 -169.25 -230)" d="M 6510.61,4769.48 L 6484.65,4814.44 L 6468.5,4802.41 L 6492.11,4761.51 L 6510.61,4769.48 Z " />
<path stroke="transparent" fill="#000000" transform="matrix(0.0833333 0 0 0.0833333 -169.25 -230)" d="M 6456.84,4746.3 L 6437.69,4779.47 L 6421.55,4767.44 L 6438.35,4738.33 L 6456.84,4746.3 Z " />
<path stroke="transparent" fill="#000000" transform="matrix(0.0833333 0 0 0.0833333 -169.25 -230)" d="M 6403.08,4723.12 L 6390.74,4744.5 L 6374.59,4732.47 L 6384.59,4715.15 L 6403.08,4723.12 Z " />
</svg>
