<?xml version="1.0" standalone="no" ?>
<!DOCTYPE svg PUBLIC "-//W3C//DTD SVG 1.1//EN" "http://www.w3.org/Graphics/SVG/1.1/DTD/svg11.dtd">
<svg width="743px" height="418px" viewBox="0 0 743 418" style="background-color: #ffffff00" xmlns="http://www.w3.org/2000/svg" xmlns:xlink="http://www.w3.org/1999/xlink" version="1.1" >
<text x="0" y="0" stroke="transparent" fill="#000000" transform="matrix(0.0833333 0 0 0.0833333 232.217 376.782)" style="font:normal normal normal 200px 'Arial'" >
O</text>
<text x="0" y="0" stroke="transparent" fill="#000000" transform="matrix(0.0833333 0 0 0.0833333 145.615 376.782)" style="font:normal normal normal 200px 'Arial'" >
O</text>
<text x="0" y="0" stroke="transparent" fill="#000000" transform="matrix(0.0833333 0 0 0.0833333 3.67456 351.782)" style="font:normal normal normal 200px 'Arial'" >
HO</text>
<text x="0" y="0" stroke="transparent" fill="#000000" transform="matrix(0.0833333 0 0 0.0833333 46.9758 276.782)" style="font:normal normal normal 200px 'Arial'" >
HO</text>
<text x="0" y="0" stroke="transparent" fill="#000000" transform="matrix(0.0833333 0 0 0.0833333 145.615 226.782)" style="font:normal normal normal 200px 'Arial'" >
OH</text>
<text x="0" y="0" stroke="transparent" fill="#000000" transform="matrix(0.0833333 0 0 0.0833333 232.217 276.782)" style="font:normal normal normal 200px 'Arial'" >
O</text>
<text x="0" y="0" stroke="transparent" fill="#000000" transform="matrix(0.0833333 0 0 0.0833333 188.916 201.782)" style="font:normal normal normal 200px 'Arial'" >
O</text>
<text x="0" y="0" stroke="transparent" fill="#000000" transform="matrix(0.0833333 0 0 0.0833333 90.2771 151.782)" style="font:normal normal normal 200px 'Arial'" >
HO</text>
<text x="0" y="0" stroke="transparent" fill="#000000" transform="matrix(0.0833333 0 0 0.0833333 232.217 76.782)" style="font:normal normal normal 200px 'Arial'" >
OH</text>
<text x="0" y="0" stroke="transparent" fill="#000000" transform="matrix(0.0833333 0 0 0.0833333 318.82 126.782)" style="font:normal normal normal 200px 'Arial'" >
OH</text>
<text x="0" y="0" stroke="transparent" fill="#000000" transform="matrix(0.0833333 0 0 0.0833333 318.82 226.782)" style="font:normal normal normal 200px 'Arial'" >
OH</text>
<text x="0" y="0" stroke="transparent" fill="#000000" transform="matrix(0.0833333 0 0 0.0833333 448.723 151.782)" style="font:normal normal normal 200px 'Arial'" >
OH</text>
<path stroke="transparent" fill="#000000" transform="matrix(0.0833333 0 0 0.0833333 -51.1667 -123.167)" d="M 8900.51,1963.6 L 8896.94,1974.58 L 8885.64,1976.98 L 8488.03,1535.38 L 8502.89,1522 L 8900.51,1963.6 Z " />
<path stroke="transparent" fill="#000000" transform="matrix(0.0833333 0 0 0.0833333 -51.1667 -123.167)" d="M 8719.25,2553.79 L 8703.8,2536.63 L 8885.64,1976.98 L 8896.94,1974.58 L 8904.66,1983.16 L 8719.25,2553.79 Z " />
<path stroke="transparent" fill="#000000" transform="matrix(0.0833333 0 0 0.0833333 -51.1667 -123.167)" d="M 8665.41,2486.52 L 8646.39,2480.34 L 8806.11,1988.77 L 8825.13,1994.95 L 8665.41,2486.52 Z " />
<path stroke="transparent" fill="#000000" transform="matrix(0.0833333 0 0 0.0833333 -51.1667 -123.167)" d="M 8132.37,2678.54 L 8116.91,2661.38 L 8703.8,2536.63 L 8719.25,2553.79 L 8132.37,2678.54 Z " />
<path stroke="transparent" fill="#000000" transform="matrix(0.0833333 0 0 0.0833333 -51.1667 -123.167)" d="M 7946.96,3249.17 L 7931.5,3232.01 L 8116.91,2661.38 L 8132.37,2678.54 L 7946.96,3249.17 Z " />
<path stroke="transparent" fill="#000000" transform="matrix(0.0833333 0 0 0.0833333 -51.1667 -123.167)" d="M 7418.82,3361.43 L 7352.34,3365.34 L 7355.91,3354.36 L 7931.5,3232.01 L 7946.96,3249.17 L 7418.82,3361.43 Z " />
<path stroke="transparent" fill="#000000" transform="matrix(0.0833333 0 0 0.0833333 -51.1667 -123.167)" d="M 7380.11,3296.05 L 7375.95,3276.49 L 7881.52,3169.03 L 7885.68,3188.59 L 7380.11,3296.05 Z " />
<path stroke="transparent" fill="#000000" transform="matrix(0.0833333 0 0 0.0833333 -51.1667 -123.167)" d="M 6943.43,2926.14 L 6958.29,2912.76 L 7355.91,3354.36 L 7352.34,3365.34 L 7300.85,3323.1 L 6943.43,2926.14 Z " />
<path stroke="transparent" fill="#000000" transform="matrix(0.0833333 0 0 0.0833333 -51.1667 -123.167)" d="M 7178.31,3934.62 L 7156.17,3938.18 L 7300.85,3323.1 L 7352.34,3365.34 L 7418.82,3361.43 L 7178.31,3934.62 Z " />
<path stroke="transparent" fill="#000000" transform="matrix(0.0833333 0 0 0.0833333 -51.1667 -123.167)" d="M 7531.96,4421.38 L 7507.24,4421.38 L 7156.17,3938.18 L 7178.31,3934.62 L 7531.96,4421.38 Z " />
<path stroke="transparent" fill="#000000" transform="matrix(0.0833333 0 0 0.0833333 -51.1667 -123.167)" d="M 7170.75,4918.55 L 7163.11,4895.04 L 7507.24,4421.38 L 7531.96,4421.38 L 7170.75,4918.55 Z " />
<path stroke="transparent" fill="#000000" transform="matrix(0.0833333 0 0 0.0833333 -51.1667 -123.167)" d="M 6597.44,4732.27 L 6596.3,4721.38 L 6606.3,4714.12 L 7163.11,4895.04 L 7170.75,4918.55 L 6597.44,4732.27 Z " />
<path stroke="transparent" fill="#000000" transform="matrix(0.0833333 0 0 0.0833333 -51.1667 -123.167)" d="M 6586.3,4127.16 L 6606.3,4115.61 L 6606.3,4714.12 L 6596.3,4721.38 L 6586.3,4715.61 L 6586.3,4127.16 Z " />
<path stroke="transparent" fill="#000000" transform="matrix(0.0833333 0 0 0.0833333 -51.1667 -123.167)" d="M 6650.74,4114.21 L 6644.56,4095.19 L 6662.96,4087.07 L 6670.39,4109.96 L 6650.74,4114.21 Z " />
<path stroke="transparent" fill="#000000" transform="matrix(0.0833333 0 0 0.0833333 -51.1667 -123.167)" d="M 6708.71,4101.68 L 6698.82,4071.25 L 6717.22,4063.14 L 6728.36,4097.43 L 6708.71,4101.68 Z " />
<path stroke="transparent" fill="#000000" transform="matrix(0.0833333 0 0 0.0833333 -51.1667 -123.167)" d="M 6766.67,4089.15 L 6753.08,4047.32 L 6771.47,4039.2 L 6786.32,4084.9 L 6766.67,4089.15 Z " />
<path stroke="transparent" fill="#000000" transform="matrix(0.0833333 0 0 0.0833333 -51.1667 -123.167)" d="M 6824.64,4076.62 L 6807.34,4023.38 L 6825.73,4015.27 L 6844.29,4072.37 L 6824.64,4076.62 Z " />
<path stroke="transparent" fill="#000000" transform="matrix(0.0833333 0 0 0.0833333 -51.1667 -123.167)" d="M 6882.6,4064.09 L 6861.6,3999.45 L 6879.99,3991.34 L 6902.25,4059.84 L 6882.6,4064.09 Z " />
<path stroke="transparent" fill="#000000" transform="matrix(0.0833333 0 0 0.0833333 -51.1667 -123.167)" d="M 6940.57,4051.56 L 6915.86,3975.51 L 6934.25,3967.4 L 6960.22,4047.31 L 6940.57,4051.56 Z " />
<path stroke="transparent" fill="#000000" transform="matrix(0.0833333 0 0 0.0833333 -51.1667 -123.167)" d="M 6998.53,4039.03 L 6970.12,3951.58 L 6988.51,3943.47 L 7018.18,4034.78 L 6998.53,4039.03 Z " />
<path stroke="transparent" fill="#000000" transform="matrix(0.0833333 0 0 0.0833333 -51.1667 -123.167)" d="M 7056.5,4026.5 L 7024.38,3927.65 L 7042.77,3919.53 L 7076.15,4022.25 L 7056.5,4026.5 Z " />
<path stroke="transparent" fill="#000000" transform="matrix(0.0833333 0 0 0.0833333 -51.1667 -123.167)" d="M 7114.46,4013.97 L 7078.64,3903.71 L 7097.03,3895.6 L 7134.11,4009.72 L 7114.46,4013.97 Z " />
<path stroke="transparent" fill="#000000" transform="matrix(0.0833333 0 0 0.0833333 -51.1667 -123.167)" d="M 6076.68,3832.93 L 6076.68,3821.38 L 6087.25,3815.94 L 6606.3,4115.61 L 6586.3,4127.16 L 6076.68,3832.93 Z " />
<path stroke="transparent" fill="#000000" transform="matrix(0.0833333 0 0 0.0833333 -51.1667 -123.167)" d="M 5619.09,4097.12 L 5498.9,4143.42 L 6066.11,3815.94 L 6076.68,3821.38 L 6076.68,3832.93 L 5619.09,4097.12 Z " />
<path stroke="transparent" fill="#000000" transform="matrix(0.0833333 0 0 0.0833333 -51.1667 -123.167)" d="M 5567.52,4715.88 L 5557.07,4721.38 L 5546.61,4715.88 L 5498.9,4143.42 L 5619.09,4097.12 L 5567.52,4715.88 Z " />
<path stroke="transparent" fill="#000000" transform="matrix(0.0833333 0 0 0.0833333 -51.1667 -123.167)" d="M 6065.16,5003.19 L 6076.68,5021.38 L 6066.68,5027.16 L 5557.07,4732.93 L 5557.07,4721.38 L 5567.52,4715.88 L 6065.16,5003.19 Z " />
<path stroke="transparent" fill="#000000" transform="matrix(0.0833333 0 0 0.0833333 -51.1667 -123.167)" d="M 6086.68,5027.16 L 6076.68,5021.38 L 6088.2,5003.19 L 6586.3,4715.61 L 6596.3,4721.38 L 6597.44,4732.27 L 6086.68,5027.16 Z " />
<path stroke="transparent" fill="#000000" transform="matrix(0.0833333 0 0 0.0833333 -51.1667 -123.167)" d="M 6086.68,5627.16 L 6066.68,5615.61 L 6066.68,5027.16 L 6076.68,5021.38 L 6086.68,5027.16 L 6086.68,5627.16 Z " />
<path stroke="transparent" fill="#000000" transform="matrix(0.0833333 0 0 0.0833333 -51.1667 -123.167)" d="M 5508.9,5960.74 L 5609.09,5879.8 L 6066.68,5615.61 L 6086.68,5627.16 L 5508.9,5960.74 Z " />
<path stroke="transparent" fill="#000000" transform="matrix(0.0833333 0 0 0.0833333 -51.1667 -123.167)" d="M 5036.99,5633.2 L 5037.45,5621.38 L 5047.45,5615.08 L 5609.09,5879.8 L 5508.9,5960.74 L 5036.99,5633.2 Z " />
<path stroke="transparent" fill="#000000" transform="matrix(0.0833333 0 0 0.0833333 -51.1667 -123.167)" d="M 5027.45,5027.16 L 5037.45,5021.38 L 5047.45,5027.16 L 5047.45,5615.08 L 5037.45,5621.38 L 5027.45,5615.61 L 5027.45,5027.16 Z " />
<path stroke="transparent" fill="#000000" transform="matrix(0.0833333 0 0 0.0833333 -51.1667 -123.167)" d="M 5047.45,5027.16 L 5037.45,5021.38 L 5048.97,5003.19 L 5546.61,4715.88 L 5557.07,4721.38 L 5557.07,4732.93 L 5047.45,5027.16 Z " />
<path stroke="transparent" fill="#000000" transform="matrix(0.0833333 0 0 0.0833333 -51.1667 -123.167)" d="M 4517.84,4732.93 L 4517.84,4709.84 L 5025.93,5003.19 L 5037.45,5021.38 L 5027.45,5027.16 L 4517.84,4732.93 Z " />
<path stroke="transparent" fill="#000000" transform="matrix(0.0833333 0 0 0.0833333 -51.1667 -123.167)" d="M 4008.22,5027.16 L 3988.22,5015.61 L 4517.84,4709.84 L 4517.84,4732.93 L 4008.22,5027.16 Z " />
<path stroke="transparent" fill="#000000" transform="matrix(0.0833333 0 0 0.0833333 -51.1667 -123.167)" d="M 4008.22,5615.61 L 3998.22,5621.38 L 3988.22,5614.97 L 3988.22,5015.61 L 4008.22,5027.16 L 4008.22,5615.61 Z " />
<path stroke="transparent" fill="#000000" transform="matrix(0.0833333 0 0 0.0833333 -51.1667 -123.167)" d="M 4517.84,5909.84 L 4517.84,5921.38 L 4504.17,5925.04 L 3998.77,5633.25 L 3998.22,5621.38 L 4008.22,5615.61 L 4517.84,5909.84 Z " />
<path stroke="transparent" fill="#000000" transform="matrix(0.0833333 0 0 0.0833333 -51.1667 -123.167)" d="M 4531.5,5925.04 L 4517.84,5921.38 L 4517.84,5909.84 L 5027.45,5615.61 L 5037.45,5621.38 L 5036.99,5633.2 L 4531.5,5925.04 Z " />
<path stroke="transparent" fill="#000000" transform="matrix(0.0833333 0 0 0.0833333 -51.1667 -123.167)" d="M 4826.5,6436 L 4809.17,6446 L 4517.84,5941.38 L 4517.84,5921.38 L 4531.5,5925.04 L 4826.5,6436 Z " />
<path stroke="transparent" fill="#000000" transform="matrix(0.0833333 0 0 0.0833333 -51.1667 -123.167)" d="M 4226.5,6446 L 4209.17,6436 L 4504.17,5925.04 L 4517.84,5921.38 L 4517.84,5941.38 L 4226.5,6446 Z " />
<path stroke="transparent" fill="#000000" transform="matrix(0.0833333 0 0 0.0833333 -51.1667 -123.167)" d="M 3601.22,5919.87 L 3541.22,5815.95 L 3988.22,5614.97 L 3998.22,5621.38 L 3998.77,5633.25 L 3601.22,5919.87 Z " />
<path stroke="transparent" fill="#000000" transform="matrix(0.0833333 0 0 0.0833333 -51.1667 -123.167)" d="M 3000.76,5657.05 L 3010.76,5639.73 L 3029.22,5647.75 L 3016.94,5669.02 L 3000.76,5657.05 Z " />
<path stroke="transparent" fill="#000000" transform="matrix(0.0833333 0 0 0.0833333 -51.1667 -123.167)" d="M 3049.19,5692.88 L 3066.01,5663.75 L 3084.47,5671.78 L 3065.38,5704.86 L 3049.19,5692.88 Z " />
<path stroke="transparent" fill="#000000" transform="matrix(0.0833333 0 0 0.0833333 -51.1667 -123.167)" d="M 3097.63,5728.72 L 3121.26,5687.78 L 3139.72,5695.81 L 3113.81,5740.69 L 3097.63,5728.72 Z " />
<path stroke="transparent" fill="#000000" transform="matrix(0.0833333 0 0 0.0833333 -51.1667 -123.167)" d="M 3146.06,5764.56 L 3176.52,5711.81 L 3194.98,5719.84 L 3162.25,5776.53 L 3146.06,5764.56 Z " />
<path stroke="transparent" fill="#000000" transform="matrix(0.0833333 0 0 0.0833333 -51.1667 -123.167)" d="M 3194.5,5800.39 L 3231.77,5735.84 L 3250.23,5743.87 L 3210.68,5812.36 L 3194.5,5800.39 Z " />
<path stroke="transparent" fill="#000000" transform="matrix(0.0833333 0 0 0.0833333 -51.1667 -123.167)" d="M 3242.93,5836.23 L 3287.02,5759.87 L 3305.48,5767.89 L 3259.12,5848.2 L 3242.93,5836.23 Z " />
<path stroke="transparent" fill="#000000" transform="matrix(0.0833333 0 0 0.0833333 -51.1667 -123.167)" d="M 3291.37,5872.06 L 3342.27,5783.89 L 3360.73,5791.92 L 3307.55,5884.04 L 3291.37,5872.06 Z " />
<path stroke="transparent" fill="#000000" transform="matrix(0.0833333 0 0 0.0833333 -51.1667 -123.167)" d="M 3339.8,5907.9 L 3397.53,5807.92 L 3415.99,5815.95 L 3355.99,5919.87 L 3339.8,5907.9 Z " />
<path stroke="transparent" fill="#000000" transform="matrix(0.0833333 0 0 0.0833333 -51.1667 -123.167)" d="M 2948.99,5027.16 L 2958.99,5021.38 L 2968.99,5027.81 L 2968.99,5627.16 L 2948.99,5615.61 L 2948.99,5027.16 Z " />
<path stroke="transparent" fill="#000000" transform="matrix(0.0833333 0 0 0.0833333 -51.1667 -123.167)" d="M 2439.37,4732.93 L 2439.37,4709.84 L 2958.43,5009.51 L 2958.99,5021.38 L 2948.99,5027.16 L 2439.37,4732.93 Z " />
<path stroke="transparent" fill="#000000" transform="matrix(0.0833333 0 0 0.0833333 -51.1667 -123.167)" d="M 1929.76,5027.16 L 1919.76,5021.38 L 1920.32,5009.51 L 2439.37,4709.84 L 2439.37,4732.93 L 1929.76,5027.16 Z " />
<path stroke="transparent" fill="#000000" transform="matrix(0.0833333 0 0 0.0833333 -51.1667 -123.167)" d="M 1929.76,5615.61 L 1909.76,5627.16 L 1909.76,5027.81 L 1919.76,5021.38 L 1929.76,5027.16 L 1929.76,5615.61 Z " />
<path stroke="transparent" fill="#000000" transform="matrix(0.0833333 0 0 0.0833333 -51.1667 -123.167)" d="M 2351.76,5859.25 L 2341.76,5876.57 L 1909.76,5627.16 L 1929.76,5615.61 L 2351.76,5859.25 Z " />
<path stroke="transparent" fill="#000000" transform="matrix(0.0833333 0 0 0.0833333 -51.1667 -123.167)" d="M 2536.99,5876.57 L 2526.99,5859.25 L 2948.99,5615.61 L 2968.99,5627.16 L 2536.99,5876.57 Z " />
<path stroke="transparent" fill="#000000" transform="matrix(0.0833333 0 0 0.0833333 -51.1667 -123.167)" d="M 1476.91,5946.35 L 1416.91,5842.42 L 1435.25,5834.18 L 1493.21,5934.59 L 1476.91,5946.35 Z " />
<path stroke="transparent" fill="#000000" transform="matrix(0.0833333 0 0 0.0833333 -51.1667 -123.167)" d="M 1525.01,5911.65 L 1471,5818.12 L 1489.34,5809.88 L 1541.31,5899.89 L 1525.01,5911.65 Z " />
<path stroke="transparent" fill="#000000" transform="matrix(0.0833333 0 0 0.0833333 -51.1667 -123.167)" d="M 1573.1,5876.96 L 1525.1,5793.81 L 1543.43,5785.57 L 1589.41,5865.2 L 1573.1,5876.96 Z " />
<path stroke="transparent" fill="#000000" transform="matrix(0.0833333 0 0 0.0833333 -51.1667 -123.167)" d="M 1621.2,5842.27 L 1579.19,5769.5 L 1597.53,5761.26 L 1637.51,5830.51 L 1621.2,5842.27 Z " />
<path stroke="transparent" fill="#000000" transform="matrix(0.0833333 0 0 0.0833333 -51.1667 -123.167)" d="M 1669.3,5807.58 L 1633.28,5745.19 L 1651.62,5736.95 L 1685.6,5795.82 L 1669.3,5807.58 Z " />
<path stroke="transparent" fill="#000000" transform="matrix(0.0833333 0 0 0.0833333 -51.1667 -123.167)" d="M 1717.4,5772.88 L 1687.38,5720.89 L 1705.71,5712.65 L 1733.7,5761.12 L 1717.4,5772.88 Z " />
<path stroke="transparent" fill="#000000" transform="matrix(0.0833333 0 0 0.0833333 -51.1667 -123.167)" d="M 1765.49,5738.19 L 1741.47,5696.58 L 1759.81,5688.34 L 1781.8,5726.43 L 1765.49,5738.19 Z " />
<path stroke="transparent" fill="#000000" transform="matrix(0.0833333 0 0 0.0833333 -51.1667 -123.167)" d="M 1813.59,5703.5 L 1795.56,5672.27 L 1813.9,5664.03 L 1829.9,5691.74 L 1813.59,5703.5 Z " />
<path stroke="transparent" fill="#000000" transform="matrix(0.0833333 0 0 0.0833333 -51.1667 -123.167)" d="M 1861.69,5668.8 L 1849.66,5647.96 L 1867.99,5639.72 L 1877.99,5657.04 L 1861.69,5668.8 Z " />
<path stroke="transparent" fill="#000000" transform="matrix(0.0833333 0 0 0.0833333 -51.1667 -123.167)" d="M 975.557,5687.8 L 985.557,5670.48 L 1405.14,5912.72 L 1395.14,5930.04 L 975.557,5687.8 Z " />
<path stroke="transparent" fill="#000000" transform="matrix(0.0833333 0 0 0.0833333 -51.1667 -123.167)" d="M 1470.17,4831.1 L 1530.17,4727.17 L 1920.32,5009.51 L 1919.76,5021.38 L 1909.76,5027.81 L 1470.17,4831.1 Z " />
<path stroke="transparent" fill="#000000" transform="matrix(0.0833333 0 0 0.0833333 -51.1667 -123.167)" d="M 2379.37,4241.22 L 2499.37,4241.22 L 2497.03,4261.22 L 2381.72,4261.22 L 2379.37,4241.22 Z " />
<path stroke="transparent" fill="#000000" transform="matrix(0.0833333 0 0 0.0833333 -51.1667 -123.167)" d="M 2386.18,4299.24 L 2492.57,4299.24 L 2490.22,4319.24 L 2388.53,4319.24 L 2386.18,4299.24 Z " />
<path stroke="transparent" fill="#000000" transform="matrix(0.0833333 0 0 0.0833333 -51.1667 -123.167)" d="M 2392.99,4357.26 L 2485.76,4357.26 L 2483.41,4377.26 L 2395.34,4377.26 L 2392.99,4357.26 Z " />
<path stroke="transparent" fill="#000000" transform="matrix(0.0833333 0 0 0.0833333 -51.1667 -123.167)" d="M 2399.8,4415.28 L 2478.95,4415.28 L 2476.6,4435.28 L 2402.14,4435.28 L 2399.8,4415.28 Z " />
<path stroke="transparent" fill="#000000" transform="matrix(0.0833333 0 0 0.0833333 -51.1667 -123.167)" d="M 2406.6,4473.3 L 2472.14,4473.3 L 2469.8,4493.3 L 2408.95,4493.3 L 2406.6,4473.3 Z " />
<path stroke="transparent" fill="#000000" transform="matrix(0.0833333 0 0 0.0833333 -51.1667 -123.167)" d="M 2413.41,4531.32 L 2465.34,4531.32 L 2462.99,4551.32 L 2415.76,4551.32 L 2413.41,4531.32 Z " />
<path stroke="transparent" fill="#000000" transform="matrix(0.0833333 0 0 0.0833333 -51.1667 -123.167)" d="M 2420.22,4589.34 L 2458.53,4589.34 L 2456.18,4609.34 L 2422.57,4609.34 L 2420.22,4589.34 Z " />
<path stroke="transparent" fill="#000000" transform="matrix(0.0833333 0 0 0.0833333 -51.1667 -123.167)" d="M 2427.03,4647.37 L 2451.72,4647.37 L 2449.37,4667.37 L 2429.37,4667.37 L 2427.03,4647.37 Z " />
<path stroke="transparent" fill="#000000" transform="matrix(0.0833333 0 0 0.0833333 -51.1667 -123.167)" d="M 3349,4726.93 L 3409,4830.85 L 2968.99,5027.81 L 2958.99,5021.38 L 2958.43,5009.51 L 3349,4726.93 Z " />
<path stroke="transparent" fill="#000000" transform="matrix(0.0833333 0 0 0.0833333 -51.1667 -123.167)" d="M 3468.6,4175.48 L 3488.6,4175.48 L 3490.87,4195.48 L 3466.34,4195.48 L 3468.6,4175.48 Z " />
<path stroke="transparent" fill="#000000" transform="matrix(0.0833333 0 0 0.0833333 -51.1667 -123.167)" d="M 3461.79,4235.58 L 3495.42,4235.58 L 3497.69,4255.58 L 3459.52,4255.58 L 3461.79,4235.58 Z " />
<path stroke="transparent" fill="#000000" transform="matrix(0.0833333 0 0 0.0833333 -51.1667 -123.167)" d="M 3454.97,4295.69 L 3502.24,4295.69 L 3504.51,4315.69 L 3452.7,4315.69 L 3454.97,4295.69 Z " />
<path stroke="transparent" fill="#000000" transform="matrix(0.0833333 0 0 0.0833333 -51.1667 -123.167)" d="M 3448.15,4355.79 L 3509.06,4355.79 L 3511.33,4375.79 L 3445.88,4375.79 L 3448.15,4355.79 Z " />
<path stroke="transparent" fill="#000000" transform="matrix(0.0833333 0 0 0.0833333 -51.1667 -123.167)" d="M 3441.33,4415.9 L 3515.88,4415.9 L 3518.15,4435.9 L 3439.06,4435.9 L 3441.33,4415.9 Z " />
<path stroke="transparent" fill="#000000" transform="matrix(0.0833333 0 0 0.0833333 -51.1667 -123.167)" d="M 3434.51,4476.01 L 3522.7,4476.01 L 3524.97,4496.01 L 3432.24,4496.01 L 3434.51,4476.01 Z " />
<path stroke="transparent" fill="#000000" transform="matrix(0.0833333 0 0 0.0833333 -51.1667 -123.167)" d="M 3427.69,4536.11 L 3529.52,4536.11 L 3531.79,4556.11 L 3425.42,4556.11 L 3427.69,4536.11 Z " />
<path stroke="transparent" fill="#000000" transform="matrix(0.0833333 0 0 0.0833333 -51.1667 -123.167)" d="M 3420.87,4596.22 L 3536.34,4596.22 L 3538.6,4616.22 L 3418.6,4616.22 L 3420.87,4596.22 Z " />
<path stroke="transparent" fill="#000000" transform="matrix(0.0833333 0 0 0.0833333 -51.1667 -123.167)" d="M 3988.22,3815.61 L 3998.22,3821.38 L 3997.67,3833.25 L 3478.6,4132.93 L 3478.6,4109.84 L 3988.22,3815.61 Z " />
<path stroke="transparent" fill="#000000" transform="matrix(0.0833333 0 0 0.0833333 -51.1667 -123.167)" d="M 3988.22,3227.16 L 4008.22,3215.61 L 4008.22,3814.97 L 3998.22,3821.38 L 3988.22,3815.61 L 3988.22,3227.16 Z " />
<path stroke="transparent" fill="#000000" transform="matrix(0.0833333 0 0 0.0833333 -51.1667 -123.167)" d="M 3478.6,2932.93 L 3478.6,2921.38 L 3489.17,2915.94 L 4008.22,3215.61 L 3988.22,3227.16 L 3478.6,2932.93 Z " />
<path stroke="transparent" fill="#000000" transform="matrix(0.0833333 0 0 0.0833333 -51.1667 -123.167)" d="M 2968.99,3227.16 L 2948.99,3215.61 L 3468.04,2915.94 L 3478.6,2921.38 L 3478.6,2932.93 L 2968.99,3227.16 Z " />
<path stroke="transparent" fill="#000000" transform="matrix(0.0833333 0 0 0.0833333 -51.1667 -123.167)" d="M 2968.99,3716.22 L 2948.99,3716.22 L 2948.99,3215.61 L 2968.99,3227.16 L 2968.99,3716.22 Z " />
<path stroke="transparent" fill="#000000" transform="matrix(0.0833333 0 0 0.0833333 -51.1667 -123.167)" d="M 3054.03,3887.8 L 3064.03,3870.48 L 3478.6,4109.84 L 3478.6,4132.93 L 3054.03,3887.8 Z " />
<path stroke="transparent" fill="#000000" transform="matrix(0.0833333 0 0 0.0833333 -51.1667 -123.167)" d="M 2456.14,3000.35 L 2516.14,2896.42 L 2532.44,2908.18 L 2474.48,3008.59 L 2456.14,3000.35 Z " />
<path stroke="transparent" fill="#000000" transform="matrix(0.0833333 0 0 0.0833333 -51.1667 -123.167)" d="M 2510.23,3024.65 L 2564.24,2931.12 L 2580.54,2942.88 L 2528.57,3032.89 L 2510.23,3024.65 Z " />
<path stroke="transparent" fill="#000000" transform="matrix(0.0833333 0 0 0.0833333 -51.1667 -123.167)" d="M 2564.33,3048.96 L 2612.33,2965.81 L 2628.64,2977.57 L 2582.66,3057.2 L 2564.33,3048.96 Z " />
<path stroke="transparent" fill="#000000" transform="matrix(0.0833333 0 0 0.0833333 -51.1667 -123.167)" d="M 2618.42,3073.27 L 2660.43,3000.5 L 2676.74,3012.26 L 2636.76,3081.51 L 2618.42,3073.27 Z " />
<path stroke="transparent" fill="#000000" transform="matrix(0.0833333 0 0 0.0833333 -51.1667 -123.167)" d="M 2672.51,3097.58 L 2708.53,3035.19 L 2724.83,3046.95 L 2690.85,3105.82 L 2672.51,3097.58 Z " />
<path stroke="transparent" fill="#000000" transform="matrix(0.0833333 0 0 0.0833333 -51.1667 -123.167)" d="M 2726.61,3121.88 L 2756.63,3069.89 L 2772.93,3081.65 L 2744.94,3130.12 L 2726.61,3121.88 Z " />
<path stroke="transparent" fill="#000000" transform="matrix(0.0833333 0 0 0.0833333 -51.1667 -123.167)" d="M 2780.7,3146.19 L 2804.72,3104.58 L 2821.03,3116.34 L 2799.04,3154.43 L 2780.7,3146.19 Z " />
<path stroke="transparent" fill="#000000" transform="matrix(0.0833333 0 0 0.0833333 -51.1667 -123.167)" d="M 2834.79,3170.5 L 2852.82,3139.27 L 2869.13,3151.03 L 2853.13,3178.74 L 2834.79,3170.5 Z " />
<path stroke="transparent" fill="#000000" transform="matrix(0.0833333 0 0 0.0833333 -51.1667 -123.167)" d="M 2888.89,3194.8 L 2900.92,3173.96 L 2917.22,3185.72 L 2907.22,3203.04 L 2888.89,3194.8 Z " />
<path stroke="transparent" fill="#000000" transform="matrix(0.0833333 0 0 0.0833333 -51.1667 -123.167)" d="M 2017.37,3176.58 L 2007.37,3159.26 L 2434.37,2912.72 L 2444.37,2930.04 L 2017.37,3176.58 Z " />
<path stroke="transparent" fill="#000000" transform="matrix(0.0833333 0 0 0.0833333 -51.1667 -123.167)" d="M 3418.6,2441.22 L 3538.6,2441.22 L 3489.17,2915.94 L 3478.6,2921.38 L 3468.04,2915.94 L 3418.6,2441.22 Z " />
<path stroke="transparent" fill="#000000" transform="matrix(0.0833333 0 0 0.0833333 -51.1667 -123.167)" d="M 4388.23,2926.93 L 4448.23,3030.85 L 4429.75,3038.84 L 4372.07,2938.94 L 4388.23,2926.93 Z " />
<path stroke="transparent" fill="#000000" transform="matrix(0.0833333 0 0 0.0833333 -51.1667 -123.167)" d="M 4340.8,2962.18 L 4393.99,3054.3 L 4375.51,3062.29 L 4324.64,2974.19 L 4340.8,2962.18 Z " />
<path stroke="transparent" fill="#000000" transform="matrix(0.0833333 0 0 0.0833333 -51.1667 -123.167)" d="M 4293.38,2997.42 L 4339.75,3077.75 L 4321.27,3085.74 L 4277.22,3009.43 L 4293.38,2997.42 Z " />
<path stroke="transparent" fill="#000000" transform="matrix(0.0833333 0 0 0.0833333 -51.1667 -123.167)" d="M 4245.95,3032.67 L 4285.52,3101.2 L 4267.03,3109.19 L 4229.79,3044.68 L 4245.95,3032.67 Z " />
<path stroke="transparent" fill="#000000" transform="matrix(0.0833333 0 0 0.0833333 -51.1667 -123.167)" d="M 4198.52,3067.92 L 4231.28,3124.65 L 4212.8,3132.64 L 4182.36,3079.93 L 4198.52,3067.92 Z " />
<path stroke="transparent" fill="#000000" transform="matrix(0.0833333 0 0 0.0833333 -51.1667 -123.167)" d="M 4151.1,3103.16 L 4177.04,3148.1 L 4158.56,3156.09 L 4134.94,3115.17 L 4151.1,3103.16 Z " />
<path stroke="transparent" fill="#000000" transform="matrix(0.0833333 0 0 0.0833333 -51.1667 -123.167)" d="M 4103.67,3138.41 L 4122.8,3171.55 L 4104.32,3179.54 L 4087.51,3150.42 L 4103.67,3138.41 Z " />
<path stroke="transparent" fill="#000000" transform="matrix(0.0833333 0 0 0.0833333 -51.1667 -123.167)" d="M 4056.24,3173.66 L 4068.56,3195 L 4050.08,3202.99 L 4040.08,3185.67 L 4056.24,3173.66 Z " />
<path stroke="transparent" fill="#000000" transform="matrix(0.0833333 0 0 0.0833333 -51.1667 -123.167)" d="M 4455.22,4015.95 L 4395.22,4119.87 L 3997.67,3833.25 L 3998.22,3821.38 L 4008.22,3814.97 L 4455.22,4015.95 Z " />
<path stroke="transparent" fill="#000000" transform="matrix(0.0833333 0 0 0.0833333 -51.1667 -123.167)" d="M 4977.45,4421.38 L 5097.45,4421.38 L 5048.97,5003.19 L 5037.45,5021.38 L 5025.93,5003.19 L 4977.45,4421.38 Z " />
<path stroke="transparent" fill="#000000" transform="matrix(0.0833333 0 0 0.0833333 -51.1667 -123.167)" d="M 6016.68,4421.38 L 6136.68,4421.38 L 6088.2,5003.19 L 6076.68,5021.38 L 6065.16,5003.19 L 6016.68,4421.38 Z " />
<path stroke="transparent" fill="#000000" transform="matrix(0.0833333 0 0 0.0833333 -51.1667 -123.167)" d="M 6016.68,3341.22 L 6136.68,3341.22 L 6087.25,3815.94 L 6076.68,3821.38 L 6066.11,3815.94 L 6016.68,3341.22 Z " />
<path stroke="transparent" fill="#000000" transform="matrix(0.0833333 0 0 0.0833333 -51.1667 -123.167)" d="M 6656.3,5321.38 L 6536.3,5321.38 L 6538.13,5301.38 L 6654.46,5301.38 L 6656.3,5321.38 Z " />
<path stroke="transparent" fill="#000000" transform="matrix(0.0833333 0 0 0.0833333 -51.1667 -123.167)" d="M 6650.94,5262.94 L 6541.65,5262.94 L 6543.48,5242.94 L 6649.11,5242.94 L 6650.94,5262.94 Z " />
<path stroke="transparent" fill="#000000" transform="matrix(0.0833333 0 0 0.0833333 -51.1667 -123.167)" d="M 6645.59,5204.5 L 6547,5204.5 L 6548.83,5184.5 L 6643.76,5184.5 L 6645.59,5204.5 Z " />
<path stroke="transparent" fill="#000000" transform="matrix(0.0833333 0 0 0.0833333 -51.1667 -123.167)" d="M 6640.24,5146.05 L 6552.35,5146.05 L 6554.18,5126.05 L 6638.41,5126.05 L 6640.24,5146.05 Z " />
<path stroke="transparent" fill="#000000" transform="matrix(0.0833333 0 0 0.0833333 -51.1667 -123.167)" d="M 6634.89,5087.61 L 6557.7,5087.61 L 6559.54,5067.61 L 6633.06,5067.61 L 6634.89,5087.61 Z " />
<path stroke="transparent" fill="#000000" transform="matrix(0.0833333 0 0 0.0833333 -51.1667 -123.167)" d="M 6629.54,5029.16 L 6563.06,5029.16 L 6564.89,5009.16 L 6627.7,5009.16 L 6629.54,5029.16 Z " />
<path stroke="transparent" fill="#000000" transform="matrix(0.0833333 0 0 0.0833333 -51.1667 -123.167)" d="M 6624.18,4970.72 L 6568.41,4970.72 L 6570.24,4950.72 L 6622.35,4950.72 L 6624.18,4970.72 Z " />
<path stroke="transparent" fill="#000000" transform="matrix(0.0833333 0 0 0.0833333 -51.1667 -123.167)" d="M 6618.83,4912.27 L 6573.76,4912.27 L 6575.59,4892.27 L 6617,4892.27 L 6618.83,4912.27 Z " />
<path stroke="transparent" fill="#000000" transform="matrix(0.0833333 0 0 0.0833333 -51.1667 -123.167)" d="M 6613.48,4853.83 L 6579.11,4853.83 L 6580.94,4833.83 L 6611.65,4833.83 L 6613.48,4853.83 Z " />
<path stroke="transparent" fill="#000000" transform="matrix(0.0833333 0 0 0.0833333 -51.1667 -123.167)" d="M 6608.13,4795.38 L 6584.46,4795.38 L 6586.3,4775.38 L 6606.3,4775.38 L 6608.13,4795.38 Z " />
<path stroke="transparent" fill="#000000" transform="matrix(0.0833333 0 0 0.0833333 -51.1667 -123.167)" d="M 9481.75,1840.05 L 9485.91,1859.61 L 8904.66,1983.16 L 8896.94,1974.58 L 8900.51,1963.6 L 9481.75,1840.05 Z " />
</svg>
