<?xml version="1.0" standalone="no" ?>
<!DOCTYPE svg PUBLIC "-//W3C//DTD SVG 1.1//EN" "http://www.w3.org/Graphics/SVG/1.1/DTD/svg11.dtd">
<svg width="951px" height="356px" viewBox="0 0 951 356" style="background-color: #ffffff00" xmlns="http://www.w3.org/2000/svg" xmlns:xlink="http://www.w3.org/1999/xlink" version="1.1" >
<path stroke="transparent" fill="#000000" transform="matrix(0.0833333 0 0 0.0833333 -247.167 -112.858)" d="M 14327.8,3597.68 L 14317.8,3614.96 L 13804.5,3315.53 L 13804.6,3292.44 L 14327.8,3597.68 Z " />
<path stroke="transparent" fill="#000000" transform="matrix(0.0833333 0 0 0.0833333 -247.167 -112.858)" d="M 13804.6,3292.44 L 13804.5,3315.53 L 13283.5,3613.19 L 13283.6,3590.1 L 13804.6,3292.44 Z " />
<path stroke="transparent" fill="#000000" transform="matrix(0.0833333 0 0 0.0833333 -247.167 -112.858)" d="M 13283.6,3590.1 L 13283.5,3613.19 L 12765.2,3310.85 L 12765.3,3287.76 L 13283.6,3590.1 Z " />
<path stroke="transparent" fill="#000000" transform="matrix(0.0833333 0 0 0.0833333 -247.167 -112.858)" d="M 12765.3,3287.76 L 12765.2,3310.85 L 12244.3,3608.51 L 12244.4,3585.42 L 12765.3,3287.76 Z " />
<path stroke="transparent" fill="#000000" transform="matrix(0.0833333 0 0 0.0833333 -247.167 -112.858)" d="M 12244.4,3585.42 L 12244.3,3608.51 L 11726,3306.18 L 11726.1,3283.08 L 12244.4,3585.42 Z " />
<path stroke="transparent" fill="#000000" transform="matrix(0.0833333 0 0 0.0833333 -247.167 -112.858)" d="M 11726.1,3283.08 L 11726,3306.18 L 11205,3603.83 L 11205.1,3580.74 L 11726.1,3283.08 Z " />
<path stroke="transparent" fill="#000000" transform="matrix(0.0833333 0 0 0.0833333 -247.167 -112.858)" d="M 11205.1,3580.74 L 11205,3603.83 L 10686.8,3301.5 L 10686.9,3278.4 L 11205.1,3580.74 Z " />
<path stroke="transparent" fill="#000000" transform="matrix(0.0833333 0 0 0.0833333 -247.167 -112.858)" d="M 10686.9,3278.4 L 10686.8,3301.5 L 10165.8,3599.21 L 10165.9,3576.11 L 10686.9,3278.4 Z " />
<path stroke="transparent" fill="#000000" transform="matrix(0.0833333 0 0 0.0833333 -247.167 -112.858)" d="M 10165.9,3576.11 L 10165.8,3599.21 L 9647.5,3296.87 L 9647.61,3273.78 L 10165.9,3576.11 Z " />
<path stroke="transparent" fill="#000000" transform="matrix(0.0833333 0 0 0.0833333 -247.167 -112.858)" d="M 9647.61,3273.78 L 9647.5,3296.87 L 9126.54,3594.53 L 9126.65,3571.44 L 9647.61,3273.78 Z " />
<path stroke="transparent" fill="#000000" transform="matrix(0.0833333 0 0 0.0833333 -247.167 -112.858)" d="M 9126.65,3571.44 L 9126.54,3594.53 L 8608.27,3292.2 L 8608.37,3269.1 L 9126.65,3571.44 Z " />
<path stroke="transparent" fill="#000000" transform="matrix(0.0833333 0 0 0.0833333 -247.167 -112.858)" d="M 8608.37,3269.1 L 8608.27,3292.2 L 8087.31,3589.85 L 8087.41,3566.76 L 8608.37,3269.1 Z " />
<path stroke="transparent" fill="#000000" transform="matrix(0.0833333 0 0 0.0833333 -247.167 -112.858)" d="M 8087.41,3566.76 L 8087.31,3589.85 L 7569.03,3287.52 L 7569.14,3264.42 L 8087.41,3566.76 Z " />
<path stroke="transparent" fill="#000000" transform="matrix(0.0833333 0 0 0.0833333 -247.167 -112.858)" d="M 7569.14,3264.42 L 7569.03,3287.52 L 7048.07,3585.18 L 7048.18,3562.08 L 7569.14,3264.42 Z " />
<path stroke="transparent" fill="#000000" transform="matrix(0.0833333 0 0 0.0833333 -247.167 -112.858)" d="M 7048.18,3562.08 L 7048.07,3585.18 L 6529.8,3282.84 L 6529.9,3259.75 L 7048.18,3562.08 Z " />
<path stroke="transparent" fill="#000000" transform="matrix(0.0833333 0 0 0.0833333 -247.167 -112.858)" d="M 6529.9,3259.75 L 6529.8,3282.84 L 6008.81,3580.55 L 6008.91,3557.46 L 6529.9,3259.75 Z " />
<path stroke="transparent" fill="#000000" transform="matrix(0.0833333 0 0 0.0833333 -247.167 -112.858)" d="M 6008.91,3557.46 L 6008.81,3580.55 L 5490.53,3278.21 L 5490.64,3255.12 L 6008.91,3557.46 Z " />
<path stroke="transparent" fill="#000000" transform="matrix(0.0833333 0 0 0.0833333 -247.167 -112.858)" d="M 5490.64,3255.12 L 5490.53,3278.21 L 4969.57,3575.87 L 4969.68,3552.78 L 5490.64,3255.12 Z " />
<path stroke="transparent" fill="#000000" transform="matrix(0.0833333 0 0 0.0833333 -247.167 -112.858)" d="M 4969.68,3552.78 L 4969.57,3575.87 L 4451.25,3273.51 L 4451.35,3250.41 L 4969.68,3552.78 Z " />
<path stroke="transparent" fill="#000000" transform="matrix(0.0833333 0 0 0.0833333 -247.167 -112.858)" d="M 4407.45,2781.59 L 4427.45,2781.68 L 4425.2,3282.63 L 4405.21,3282.54 L 4407.45,2781.59 Z " />
<path stroke="transparent" fill="#000000" transform="matrix(0.0833333 0 0 0.0833333 -247.167 -112.858)" d="M 4479.45,2781.91 L 4499.45,2782 L 4497.2,3282.95 L 4477.2,3282.86 L 4479.45,2781.91 Z " />
<path stroke="transparent" fill="#000000" transform="matrix(0.0833333 0 0 0.0833333 -247.167 -112.858)" d="M 4451.35,3250.41 L 4451.25,3273.51 L 4028.15,3515.25 L 4018.23,3497.88 L 4451.35,3250.41 Z " />
<path stroke="transparent" fill="#000000" transform="matrix(0.0833333 0 0 0.0833333 -247.167 -112.858)" d="M 3822.19,3551.5 L 3822.54,3571.5 L 3336.42,3579.96 L 3330.48,3570.06 L 3336.07,3559.97 L 3822.19,3551.5 Z " />
<path stroke="transparent" fill="#000000" transform="matrix(0.0833333 0 0 0.0833333 -247.167 -112.858)" d="M 13973.9,2398.15 L 13963.9,2415.45 L 13449.8,2117.35 L 13449.9,2094.26 L 13973.9,2398.15 Z " />
<path stroke="transparent" fill="#000000" transform="matrix(0.0833333 0 0 0.0833333 -247.167 -112.858)" d="M 13449.9,2094.26 L 13449.8,2117.35 L 12929.6,2416.37 L 12929.7,2393.27 L 13449.9,2094.26 Z " />
<path stroke="transparent" fill="#000000" transform="matrix(0.0833333 0 0 0.0833333 -247.167 -112.858)" d="M 12929.7,2393.27 L 12929.6,2416.37 L 12410.6,2115.37 L 12410.6,2092.28 L 12929.7,2393.27 Z " />
<path stroke="transparent" fill="#000000" transform="matrix(0.0833333 0 0 0.0833333 -247.167 -112.858)" d="M 12410.6,2092.28 L 12410.6,2115.37 L 11890.4,2414.39 L 11890.4,2391.29 L 12410.6,2092.28 Z " />
<path stroke="transparent" fill="#000000" transform="matrix(0.0833333 0 0 0.0833333 -247.167 -112.858)" d="M 11890.4,2391.29 L 11890.4,2414.39 L 11371.3,2113.39 L 11371.4,2090.3 L 11890.4,2391.29 Z " />
<path stroke="transparent" fill="#000000" transform="matrix(0.0833333 0 0 0.0833333 -247.167 -112.858)" d="M 11371.4,2090.3 L 11371.3,2113.39 L 10851.1,2412.41 L 10851.2,2389.31 L 11371.4,2090.3 Z " />
<path stroke="transparent" fill="#000000" transform="matrix(0.0833333 0 0 0.0833333 -247.167 -112.858)" d="M 10851.2,2389.31 L 10851.1,2412.41 L 10332.1,2111.41 L 10332.1,2088.32 L 10851.2,2389.31 Z " />
<path stroke="transparent" fill="#000000" transform="matrix(0.0833333 0 0 0.0833333 -247.167 -112.858)" d="M 10332.1,2088.32 L 10332.1,2111.41 L 9811.86,2410.43 L 9811.91,2387.33 L 10332.1,2088.32 Z " />
<path stroke="transparent" fill="#000000" transform="matrix(0.0833333 0 0 0.0833333 -247.167 -112.858)" d="M 9811.91,2387.33 L 9811.86,2410.43 L 9292.82,2109.43 L 9292.87,2086.34 L 9811.91,2387.33 Z " />
<path stroke="transparent" fill="#000000" transform="matrix(0.0833333 0 0 0.0833333 -247.167 -112.858)" d="M 9292.87,2086.34 L 9292.82,2109.43 L 8772.64,2408.45 L 8772.69,2385.35 L 9292.87,2086.34 Z " />
<path stroke="transparent" fill="#000000" transform="matrix(0.0833333 0 0 0.0833333 -247.167 -112.858)" d="M 8772.69,2385.35 L 8772.64,2408.45 L 8253.6,2107.45 L 8253.65,2084.36 L 8772.69,2385.35 Z " />
<path stroke="transparent" fill="#000000" transform="matrix(0.0833333 0 0 0.0833333 -247.167 -112.858)" d="M 8253.65,2084.36 L 8253.6,2107.45 L 7733.36,2406.47 L 7733.4,2383.37 L 8253.65,2084.36 Z " />
<path stroke="transparent" fill="#000000" transform="matrix(0.0833333 0 0 0.0833333 -247.167 -112.858)" d="M 7733.4,2383.37 L 7733.36,2406.47 L 7214.32,2105.47 L 7214.37,2082.38 L 7733.4,2383.37 Z " />
<path stroke="transparent" fill="#000000" transform="matrix(0.0833333 0 0 0.0833333 -247.167 -112.858)" d="M 7214.37,2082.38 L 7214.32,2105.47 L 6694.14,2404.49 L 6694.18,2381.39 L 7214.37,2082.38 Z " />
<path stroke="transparent" fill="#000000" transform="matrix(0.0833333 0 0 0.0833333 -247.167 -112.858)" d="M 6694.18,2381.39 L 6694.14,2404.49 L 6175.1,2103.49 L 6175.15,2080.4 L 6694.18,2381.39 Z " />
<path stroke="transparent" fill="#000000" transform="matrix(0.0833333 0 0 0.0833333 -247.167 -112.858)" d="M 6175.15,2080.4 L 6175.1,2103.49 L 5654.86,2402.51 L 5654.9,2379.41 L 6175.15,2080.4 Z " />
<path stroke="transparent" fill="#000000" transform="matrix(0.0833333 0 0 0.0833333 -247.167 -112.858)" d="M 5654.9,2379.41 L 5654.86,2402.51 L 5135.82,2101.51 L 5135.86,2078.42 L 5654.9,2379.41 Z " />
<path stroke="transparent" fill="#000000" transform="matrix(0.0833333 0 0 0.0833333 -247.167 -112.858)" d="M 5135.86,2078.42 L 5135.82,2101.51 L 4615.64,2400.53 L 4615.68,2377.43 L 5135.86,2078.42 Z " />
<path stroke="transparent" fill="#000000" transform="matrix(0.0833333 0 0 0.0833333 -247.167 -112.858)" d="M 4615.68,2377.43 L 4615.64,2400.53 L 4096.6,2099.53 L 4096.64,2076.44 L 4615.68,2377.43 Z " />
<path stroke="transparent" fill="#000000" transform="matrix(0.0833333 0 0 0.0833333 -247.167 -112.858)" d="M 4051.54,1607.72 L 4071.54,1607.76 L 4070.58,2108.72 L 4050.58,2108.68 L 4051.54,1607.72 Z " />
<path stroke="transparent" fill="#000000" transform="matrix(0.0833333 0 0 0.0833333 -247.167 -112.858)" d="M 4123.54,1607.85 L 4143.54,1607.89 L 4142.58,2108.86 L 4122.58,2108.82 L 4123.54,1607.85 Z " />
<path stroke="transparent" fill="#000000" transform="matrix(0.0833333 0 0 0.0833333 -247.167 -112.858)" d="M 4096.64,2076.44 L 4096.6,2099.53 L 3674.08,2342.38 L 3664.12,2325.04 L 4096.64,2076.44 Z " />
<path stroke="transparent" fill="#000000" transform="matrix(0.0833333 0 0 0.0833333 -247.167 -112.858)" d="M 3492.36,2472.6 L 3507.75,2485.37 L 3033.69,3056.68 L 3009.24,3054.83 L 3492.36,2472.6 Z " />
<path stroke="transparent" fill="#000000" transform="matrix(0.0833333 0 0 0.0833333 -247.167 -112.858)" d="M 3009.24,3054.83 L 3033.69,3056.68 L 3336.07,3559.97 L 3330.48,3570.06 L 3318.93,3570.27 L 3009.24,3054.83 Z " />
<path stroke="transparent" fill="#000000" transform="matrix(0.0833333 0 0 0.0833333 -247.167 -112.858)" d="M 3318.93,3570.27 L 3330.48,3570.06 L 3336.42,3579.96 L 3051.11,4094.62 L 3028.02,4095.02 L 3318.93,3570.27 Z " />
<path stroke="transparent" fill="#000000" transform="matrix(0.0833333 0 0 0.0833333 -247.167 -112.858)" d="M 3028.02,4095.02 L 3051.11,4094.62 L 3302.29,4512.73 L 3285.15,4523.03 L 3028.02,4095.02 Z " />
<path stroke="transparent" fill="#000000" transform="matrix(0.0833333 0 0 0.0833333 -247.167 -112.858)" d="M 3444.52,4673.88 L 3454.22,4656.4 L 3872.98,4888.84 L 3873.37,4911.93 L 3444.52,4673.88 Z " />
<path stroke="transparent" fill="#000000" transform="matrix(0.0833333 0 0 0.0833333 -247.167 -112.858)" d="M 3927.51,5394.33 L 3907.51,5394.67 L 3898.81,4879.17 L 3918.81,4878.83 L 3927.51,5394.33 Z " />
<path stroke="transparent" fill="#000000" transform="matrix(0.0833333 0 0 0.0833333 -247.167 -112.858)" d="M 3855.53,5395.55 L 3835.53,5395.89 L 3826.83,4880.38 L 3846.83,4880.04 L 3855.53,5395.55 Z " />
<path stroke="transparent" fill="#000000" transform="matrix(0.0833333 0 0 0.0833333 -247.167 -112.858)" d="M 3873.37,4911.93 L 3872.98,4888.84 L 4387.45,4580.11 L 4387.84,4603.2 L 3873.37,4911.93 Z " />
<path stroke="transparent" fill="#000000" transform="matrix(0.0833333 0 0 0.0833333 -247.167 -112.858)" d="M 4387.84,4603.2 L 4387.45,4580.11 L 4912.05,4871.31 L 4912.44,4894.4 L 4387.84,4603.2 Z " />
<path stroke="transparent" fill="#000000" transform="matrix(0.0833333 0 0 0.0833333 -247.167 -112.858)" d="M 4912.44,4894.4 L 4912.05,4871.31 L 5426.59,4562.57 L 5426.98,4585.66 L 4912.44,4894.4 Z " />
<path stroke="transparent" fill="#000000" transform="matrix(0.0833333 0 0 0.0833333 -247.167 -112.858)" d="M 5426.98,4585.66 L 5426.59,4562.57 L 5951.19,4853.77 L 5951.58,4876.86 L 5426.98,4585.66 Z " />
<path stroke="transparent" fill="#000000" transform="matrix(0.0833333 0 0 0.0833333 -247.167 -112.858)" d="M 5951.58,4876.86 L 5951.19,4853.77 L 6465.66,4545.04 L 6466.05,4568.13 L 5951.58,4876.86 Z " />
<path stroke="transparent" fill="#000000" transform="matrix(0.0833333 0 0 0.0833333 -247.167 -112.858)" d="M 6466.05,4568.13 L 6465.66,4545.04 L 6990.26,4836.24 L 6990.65,4859.33 L 6466.05,4568.13 Z " />
<path stroke="transparent" fill="#000000" transform="matrix(0.0833333 0 0 0.0833333 -247.167 -112.858)" d="M 6990.65,4859.33 L 6990.26,4836.24 L 7504.8,4527.5 L 7505.19,4550.59 L 6990.65,4859.33 Z " />
<path stroke="transparent" fill="#000000" transform="matrix(0.0833333 0 0 0.0833333 -247.167 -112.858)" d="M 7505.19,4550.59 L 7504.8,4527.5 L 8029.4,4818.7 L 8029.79,4841.79 L 7505.19,4550.59 Z " />
<path stroke="transparent" fill="#000000" transform="matrix(0.0833333 0 0 0.0833333 -247.167 -112.858)" d="M 8029.79,4841.79 L 8029.4,4818.7 L 8543.87,4509.97 L 8544.26,4533.06 L 8029.79,4841.79 Z " />
<path stroke="transparent" fill="#000000" transform="matrix(0.0833333 0 0 0.0833333 -247.167 -112.858)" d="M 8544.26,4533.06 L 8543.87,4509.97 L 9068.47,4801.16 L 9068.86,4824.26 L 8544.26,4533.06 Z " />
<path stroke="transparent" fill="#000000" transform="matrix(0.0833333 0 0 0.0833333 -247.167 -112.858)" d="M 9068.86,4824.26 L 9068.47,4801.16 L 9583.01,4492.43 L 9583.39,4515.52 L 9068.86,4824.26 Z " />
<path stroke="transparent" fill="#000000" transform="matrix(0.0833333 0 0 0.0833333 -247.167 -112.858)" d="M 9583.39,4515.52 L 9583.01,4492.43 L 10107.6,4783.63 L 10108,4806.72 L 9583.39,4515.52 Z " />
<path stroke="transparent" fill="#000000" transform="matrix(0.0833333 0 0 0.0833333 -247.167 -112.858)" d="M 10108,4806.72 L 10107.6,4783.63 L 10622.1,4474.9 L 10622.5,4497.99 L 10108,4806.72 Z " />
<path stroke="transparent" fill="#000000" transform="matrix(0.0833333 0 0 0.0833333 -247.167 -112.858)" d="M 10622.5,4497.99 L 10622.1,4474.9 L 11146.7,4766.09 L 11147.1,4789.18 L 10622.5,4497.99 Z " />
<path stroke="transparent" fill="#000000" transform="matrix(0.0833333 0 0 0.0833333 -247.167 -112.858)" d="M 11147.1,4789.18 L 11146.7,4766.09 L 11661.2,4457.36 L 11661.6,4480.45 L 11147.1,4789.18 Z " />
<path stroke="transparent" fill="#000000" transform="matrix(0.0833333 0 0 0.0833333 -247.167 -112.858)" d="M 11661.6,4480.45 L 11661.2,4457.36 L 12185.8,4748.56 L 12186.2,4771.65 L 11661.6,4480.45 Z " />
<path stroke="transparent" fill="#000000" transform="matrix(0.0833333 0 0 0.0833333 -247.167 -112.858)" d="M 12186.2,4771.65 L 12185.8,4748.56 L 12700.3,4439.83 L 12700.7,4462.92 L 12186.2,4771.65 Z " />
<path stroke="transparent" fill="#000000" transform="matrix(0.0833333 0 0 0.0833333 -247.167 -112.858)" d="M 12700.7,4462.92 L 12700.3,4439.83 L 13224.9,4731.02 L 13225.3,4754.11 L 12700.7,4462.92 Z " />
<path stroke="transparent" fill="#000000" transform="matrix(0.0833333 0 0 0.0833333 -247.167 -112.858)" d="M 13225.3,4754.11 L 13224.9,4731.02 L 13734.5,4425.26 L 13744.8,4442.41 L 13225.3,4754.11 Z " />
<text x="0" y="0" stroke="transparent" fill="#000000" transform="matrix(0.0833333 0 0 0.0833333 117.499 115.472)" style="font:normal normal normal 200px 'Arial'" >
O</text>
<text x="0" y="0" stroke="transparent" fill="#000000" transform="matrix(0.0833333 0 0 0.0833333 73.8615 190.276)" style="font:normal normal normal 200px 'Arial'" >
O</text>
<text x="0" y="0" stroke="transparent" fill="#000000" transform="matrix(0.0833333 0 0 0.0833333 87.8137 17.6393)" style="font:normal normal normal 200px 'Arial'" >
O</text>
<text x="0" y="0" stroke="transparent" fill="#000000" transform="matrix(0.0833333 0 0 0.0833333 44.365 92.5583)" style="font:normal normal normal 200px 'Arial'" >
O</text>
<text x="0" y="0" stroke="transparent" fill="#000000" transform="matrix(0.0833333 0 0 0.0833333 25.381 277.741)" style="font:normal normal normal 200px 'Arial'" >
O</text>
<text x="0" y="0" stroke="transparent" fill="#000000" transform="matrix(0.0833333 0 0 0.0833333 69.9412 351.996)" style="font:normal normal normal 200px 'Arial'" >
O</text>
</svg>
