<?xml version="1.0" standalone="no" ?>
<!DOCTYPE svg PUBLIC "-//W3C//DTD SVG 1.1//EN" "http://www.w3.org/Graphics/SVG/1.1/DTD/svg11.dtd">
<svg width="910px" height="371px" viewBox="0 0 910 371" style="background-color: #ffffff00" xmlns="http://www.w3.org/2000/svg" xmlns:xlink="http://www.w3.org/1999/xlink" version="1.1" >
<path stroke="transparent" fill="#000000" transform="matrix(0.0833333 0 0 0.0833333 -42.5833 -166)" d="M 7019.95,3029.36 L 6999.95,3017.81 L 7515.96,2719.92 L 7529.62,2723.58 L 7529.62,2735.13 L 7019.95,3029.36 Z " />
<path stroke="transparent" fill="#000000" transform="matrix(0.0833333 0 0 0.0833333 -42.5833 -166)" d="M 6999.95,3017.81 L 7019.95,3029.36 L 7019.95,3617.83 L 7009.95,3623.6 L 6999.95,3604.03 L 6999.95,3017.81 Z " />
<path stroke="transparent" fill="#000000" transform="matrix(0.0833333 0 0 0.0833333 -42.5833 -166)" d="M 7009.95,3635.15 L 7009.95,3623.6 L 7019.95,3617.83 L 7529.62,3912 L 7529.62,3923.55 L 7519.62,3929.32 L 7009.95,3635.15 Z " />
<path stroke="transparent" fill="#000000" transform="matrix(0.0833333 0 0 0.0833333 -42.5833 -166)" d="M 6500.34,3929.32 L 6490.34,3923.55 L 6490.34,3912 L 6988,3624.73 L 7009.95,3623.6 L 7009.95,3635.15 L 6500.34,3929.32 Z " />
<path stroke="transparent" fill="#000000" transform="matrix(0.0833333 0 0 0.0833333 -42.5833 -166)" d="M 5910.73,4223.57 L 6030.73,4223.57 L 5982.24,4805.37 L 5970.73,4823.57 L 5959.21,4805.37 L 5910.73,4223.57 Z " />
<path stroke="transparent" fill="#000000" transform="matrix(0.0833333 0 0 0.0833333 -42.5833 -166)" d="M 5980.73,4829.34 L 5970.73,4823.57 L 5982.24,4805.37 L 6480.34,4517.79 L 6490.34,4523.56 L 6490.34,4535.11 L 5980.73,4829.34 Z " />
<path stroke="transparent" fill="#000000" transform="matrix(0.0833333 0 0 0.0833333 -42.5833 -166)" d="M 5959.21,4805.37 L 5970.73,4823.57 L 5960.73,4829.34 L 5451.12,4535.11 L 5451.12,4523.56 L 5461.12,4517.79 L 5959.21,4805.37 Z " />
<path stroke="transparent" fill="#000000" transform="matrix(0.0833333 0 0 0.0833333 -42.5833 -166)" d="M 5980.73,5429.35 L 5960.73,5417.81 L 5960.73,4829.34 L 5970.73,4823.57 L 5980.73,4829.34 L 5980.73,5429.35 Z " />
<path stroke="transparent" fill="#000000" transform="matrix(0.0833333 0 0 0.0833333 -42.5833 -166)" d="M 5960.73,5417.81 L 5980.73,5429.35 L 5451.12,5735.07 L 5451.12,5711.98 L 5960.73,5417.81 Z " />
<path stroke="transparent" fill="#000000" transform="matrix(0.0833333 0 0 0.0833333 -42.5833 -166)" d="M 5451.12,5711.98 L 5451.12,5735.07 L 4931.44,5435.13 L 4931.44,5423.58 L 4941.44,5417.8 L 5451.12,5711.98 Z " />
<path stroke="transparent" fill="#000000" transform="matrix(0.0833333 0 0 0.0833333 -42.5833 -166)" d="M 4941.44,5417.8 L 4931.44,5423.58 L 4921.44,5417.81 L 4921.44,4829.34 L 4931.44,4823.57 L 4941.44,4829.34 L 4941.44,5417.8 Z " />
<path stroke="transparent" fill="#000000" transform="matrix(0.0833333 0 0 0.0833333 -42.5833 -166)" d="M 4425.49,5727.25 L 4411.83,5723.59 L 4411.83,5712.04 L 4921.44,5417.81 L 4931.44,5423.58 L 4931.44,5435.13 L 4425.49,5727.25 Z " />
<path stroke="transparent" fill="#000000" transform="matrix(0.0833333 0 0 0.0833333 -42.5833 -166)" d="M 4120.49,6248.2 L 4103.17,6238.2 L 4398.17,5727.25 L 4411.83,5723.59 L 4411.83,5743.59 L 4120.49,6248.2 Z " />
<path stroke="transparent" fill="#000000" transform="matrix(0.0833333 0 0 0.0833333 -42.5833 -166)" d="M 4720.5,6238.2 L 4703.18,6248.2 L 4411.83,5743.59 L 4411.83,5723.59 L 4425.49,5727.25 L 4720.5,6238.2 Z " />
<path stroke="transparent" fill="#000000" transform="matrix(0.0833333 0 0 0.0833333 -42.5833 -166)" d="M 4411.83,5712.04 L 4411.83,5723.59 L 4398.17,5727.25 L 3892.77,5435.45 L 3892.22,5423.58 L 3902.22,5417.81 L 4411.83,5712.04 Z " />
<path stroke="transparent" fill="#000000" transform="matrix(0.0833333 0 0 0.0833333 -42.5833 -166)" d="M 4349.21,3818.12 L 4289.21,3922.04 L 3891.67,3635.47 L 3892.22,3623.6 L 3902.22,3617.19 L 4349.21,3818.12 Z " />
<path stroke="transparent" fill="#000000" transform="matrix(0.0833333 0 0 0.0833333 -42.5833 -166)" d="M 3882.22,3617.83 L 3892.22,3623.6 L 3891.67,3635.47 L 3372.61,3935.09 L 3372.61,3912 L 3882.22,3617.83 Z " />
<path stroke="transparent" fill="#000000" transform="matrix(0.0833333 0 0 0.0833333 -42.5833 -166)" d="M 3882.22,3029.36 L 3902.22,3017.81 L 3902.22,3617.19 L 3892.22,3623.6 L 3882.22,3617.83 L 3882.22,3029.36 Z " />
<path stroke="transparent" fill="#000000" transform="matrix(0.0833333 0 0 0.0833333 -42.5833 -166)" d="M 4282.23,2729.08 L 4342.24,2833 L 4323.76,2840.99 L 4266.07,2741.09 L 4282.23,2729.08 Z " />
<path stroke="transparent" fill="#000000" transform="matrix(0.0833333 0 0 0.0833333 -42.5833 -166)" d="M 4234.79,2764.34 L 4287.99,2856.46 L 4269.51,2864.45 L 4218.63,2776.35 L 4234.79,2764.34 Z " />
<path stroke="transparent" fill="#000000" transform="matrix(0.0833333 0 0 0.0833333 -42.5833 -166)" d="M 4187.35,2799.6 L 4233.73,2879.92 L 4215.25,2887.92 L 4171.19,2811.61 L 4187.35,2799.6 Z " />
<path stroke="transparent" fill="#000000" transform="matrix(0.0833333 0 0 0.0833333 -42.5833 -166)" d="M 4139.91,2834.86 L 4179.48,2903.39 L 4161,2911.38 L 4123.75,2846.87 L 4139.91,2834.86 Z " />
<path stroke="transparent" fill="#000000" transform="matrix(0.0833333 0 0 0.0833333 -42.5833 -166)" d="M 4092.47,2870.13 L 4125.23,2926.85 L 4106.75,2934.85 L 4076.31,2882.14 L 4092.47,2870.13 Z " />
<path stroke="transparent" fill="#000000" transform="matrix(0.0833333 0 0 0.0833333 -42.5833 -166)" d="M 4045.03,2905.39 L 4070.97,2950.32 L 4052.49,2958.31 L 4028.87,2917.4 L 4045.03,2905.39 Z " />
<path stroke="transparent" fill="#000000" transform="matrix(0.0833333 0 0 0.0833333 -42.5833 -166)" d="M 3997.59,2940.65 L 4016.72,2973.78 L 3998.24,2981.78 L 3981.43,2952.66 L 3997.59,2940.65 Z " />
<path stroke="transparent" fill="#000000" transform="matrix(0.0833333 0 0 0.0833333 -42.5833 -166)" d="M 3950.14,2975.91 L 3962.47,2997.25 L 3943.99,3005.24 L 3933.99,2987.92 L 3950.14,2975.91 Z " />
<path stroke="transparent" fill="#000000" transform="matrix(0.0833333 0 0 0.0833333 -42.5833 -166)" d="M 3372.61,2735.13 L 3372.61,2723.58 L 3383.18,2718.13 L 3902.22,3017.81 L 3882.22,3029.36 L 3372.61,2735.13 Z " />
<path stroke="transparent" fill="#000000" transform="matrix(0.0833333 0 0 0.0833333 -42.5833 -166)" d="M 3312.61,2243.4 L 3432.61,2243.4 L 3383.18,2718.13 L 3372.61,2723.58 L 3362.04,2718.13 L 3312.61,2243.4 Z " />
<path stroke="transparent" fill="#000000" transform="matrix(0.0833333 0 0 0.0833333 -42.5833 -166)" d="M 2862.94,3029.36 L 2842.94,3017.81 L 3362.04,2718.13 L 3372.61,2723.58 L 3372.61,2735.13 L 2862.94,3029.36 Z " />
<path stroke="transparent" fill="#000000" transform="matrix(0.0833333 0 0 0.0833333 -42.5833 -166)" d="M 2323.33,2243.4 L 2343.33,2243.4 L 2343.33,2723.58 L 2323.33,2723.58 L 2323.33,2243.4 Z " />
<path stroke="transparent" fill="#000000" transform="matrix(0.0833333 0 0 0.0833333 -42.5833 -166)" d="M 2350.17,2802.59 L 2410.17,2698.66 L 2426.47,2710.43 L 2368.51,2810.83 L 2350.17,2802.59 Z " />
<path stroke="transparent" fill="#000000" transform="matrix(0.0833333 0 0 0.0833333 -42.5833 -166)" d="M 2404.24,2826.88 L 2458.25,2733.35 L 2474.55,2745.11 L 2422.58,2835.12 L 2404.24,2826.88 Z " />
<path stroke="transparent" fill="#000000" transform="matrix(0.0833333 0 0 0.0833333 -42.5833 -166)" d="M 2458.32,2851.18 L 2506.33,2768.03 L 2522.63,2779.79 L 2476.65,2859.42 L 2458.32,2851.18 Z " />
<path stroke="transparent" fill="#000000" transform="matrix(0.0833333 0 0 0.0833333 -42.5833 -166)" d="M 2512.39,2875.48 L 2554.4,2802.71 L 2570.71,2814.47 L 2530.73,2883.72 L 2512.39,2875.48 Z " />
<path stroke="transparent" fill="#000000" transform="matrix(0.0833333 0 0 0.0833333 -42.5833 -166)" d="M 2566.46,2899.77 L 2602.48,2837.39 L 2618.79,2849.15 L 2584.8,2908.01 L 2566.46,2899.77 Z " />
<path stroke="transparent" fill="#000000" transform="matrix(0.0833333 0 0 0.0833333 -42.5833 -166)" d="M 2620.54,2924.07 L 2650.56,2872.07 L 2666.86,2883.84 L 2638.87,2932.31 L 2620.54,2924.07 Z " />
<path stroke="transparent" fill="#000000" transform="matrix(0.0833333 0 0 0.0833333 -42.5833 -166)" d="M 2674.61,2948.37 L 2698.64,2906.76 L 2714.94,2918.52 L 2692.95,2956.61 L 2674.61,2948.37 Z " />
<path stroke="transparent" fill="#000000" transform="matrix(0.0833333 0 0 0.0833333 -42.5833 -166)" d="M 2728.69,2972.67 L 2746.71,2941.44 L 2763.02,2953.2 L 2747.02,2980.9 L 2728.69,2972.67 Z " />
<path stroke="transparent" fill="#000000" transform="matrix(0.0833333 0 0 0.0833333 -42.5833 -166)" d="M 2782.76,2996.96 L 2794.79,2976.12 L 2811.1,2987.88 L 2801.1,3005.2 L 2782.76,2996.96 Z " />
<path stroke="transparent" fill="#000000" transform="matrix(0.0833333 0 0 0.0833333 -42.5833 -166)" d="M 2862.94,3518.43 L 2842.94,3518.43 L 2842.94,3017.81 L 2862.94,3029.36 L 2862.94,3518.43 Z " />
<path stroke="transparent" fill="#000000" transform="matrix(0.0833333 0 0 0.0833333 -42.5833 -166)" d="M 2947.98,3690 L 2957.98,3672.68 L 3372.61,3912 L 3372.61,3935.09 L 2947.98,3690 Z " />
<path stroke="transparent" fill="#000000" transform="matrix(0.0833333 0 0 0.0833333 -42.5833 -166)" d="M 3432.61,4418.39 L 3312.61,4418.39 L 3314.88,4398.39 L 3430.34,4398.39 L 3432.61,4418.39 Z " />
<path stroke="transparent" fill="#000000" transform="matrix(0.0833333 0 0 0.0833333 -42.5833 -166)" d="M 3425.79,4358.29 L 3319.43,4358.29 L 3321.7,4338.29 L 3423.52,4338.29 L 3425.79,4358.29 Z " />
<path stroke="transparent" fill="#000000" transform="matrix(0.0833333 0 0 0.0833333 -42.5833 -166)" d="M 3418.97,4298.18 L 3326.25,4298.18 L 3328.52,4278.18 L 3416.7,4278.18 L 3418.97,4298.18 Z " />
<path stroke="transparent" fill="#000000" transform="matrix(0.0833333 0 0 0.0833333 -42.5833 -166)" d="M 3412.15,4238.07 L 3333.07,4238.07 L 3335.34,4218.07 L 3409.89,4218.07 L 3412.15,4238.07 Z " />
<path stroke="transparent" fill="#000000" transform="matrix(0.0833333 0 0 0.0833333 -42.5833 -166)" d="M 3405.34,4177.96 L 3339.89,4177.96 L 3342.15,4157.96 L 3403.07,4157.96 L 3405.34,4177.96 Z " />
<path stroke="transparent" fill="#000000" transform="matrix(0.0833333 0 0 0.0833333 -42.5833 -166)" d="M 3398.52,4117.85 L 3346.7,4117.85 L 3348.97,4097.85 L 3396.25,4097.85 L 3398.52,4117.85 Z " />
<path stroke="transparent" fill="#000000" transform="matrix(0.0833333 0 0 0.0833333 -42.5833 -166)" d="M 3391.7,4057.75 L 3353.52,4057.75 L 3355.79,4037.75 L 3389.43,4037.75 L 3391.7,4057.75 Z " />
<path stroke="transparent" fill="#000000" transform="matrix(0.0833333 0 0 0.0833333 -42.5833 -166)" d="M 3384.88,3997.64 L 3360.34,3997.64 L 3362.61,3977.64 L 3382.61,3977.64 L 3384.88,3997.64 Z " />
<path stroke="transparent" fill="#000000" transform="matrix(0.0833333 0 0 0.0833333 -42.5833 -166)" d="M 3243.01,4529.1 L 3303,4633.02 L 2862.94,4829.99 L 2852.94,4823.57 L 2852.38,4811.7 L 3243.01,4529.1 Z " />
<path stroke="transparent" fill="#000000" transform="matrix(0.0833333 0 0 0.0833333 -42.5833 -166)" d="M 2842.94,4829.34 L 2852.94,4823.57 L 2862.94,4829.99 L 2862.94,5429.35 L 2842.94,5417.81 L 2842.94,4829.34 Z " />
<path stroke="transparent" fill="#000000" transform="matrix(0.0833333 0 0 0.0833333 -42.5833 -166)" d="M 2333.33,4535.11 L 2333.33,4512.01 L 2852.38,4811.7 L 2852.94,4823.57 L 2842.94,4829.34 L 2333.33,4535.11 Z " />
<path stroke="transparent" fill="#000000" transform="matrix(0.0833333 0 0 0.0833333 -42.5833 -166)" d="M 2273.33,4043.38 L 2393.33,4043.38 L 2390.98,4063.38 L 2275.67,4063.38 L 2273.33,4043.38 Z " />
<path stroke="transparent" fill="#000000" transform="matrix(0.0833333 0 0 0.0833333 -42.5833 -166)" d="M 2280.14,4101.4 L 2386.52,4101.4 L 2384.17,4121.4 L 2282.48,4121.4 L 2280.14,4101.4 Z " />
<path stroke="transparent" fill="#000000" transform="matrix(0.0833333 0 0 0.0833333 -42.5833 -166)" d="M 2286.94,4159.43 L 2379.71,4159.43 L 2377.37,4179.43 L 2289.29,4179.43 L 2286.94,4159.43 Z " />
<path stroke="transparent" fill="#000000" transform="matrix(0.0833333 0 0 0.0833333 -42.5833 -166)" d="M 2293.75,4217.45 L 2372.9,4217.45 L 2370.56,4237.45 L 2296.1,4237.45 L 2293.75,4217.45 Z " />
<path stroke="transparent" fill="#000000" transform="matrix(0.0833333 0 0 0.0833333 -42.5833 -166)" d="M 2300.56,4275.47 L 2366.1,4275.47 L 2363.75,4295.47 L 2302.9,4295.47 L 2300.56,4275.47 Z " />
<path stroke="transparent" fill="#000000" transform="matrix(0.0833333 0 0 0.0833333 -42.5833 -166)" d="M 2307.37,4333.49 L 2359.29,4333.49 L 2356.94,4353.49 L 2309.71,4353.49 L 2307.37,4333.49 Z " />
<path stroke="transparent" fill="#000000" transform="matrix(0.0833333 0 0 0.0833333 -42.5833 -166)" d="M 2314.17,4391.52 L 2352.48,4391.52 L 2350.14,4411.52 L 2316.52,4411.52 L 2314.17,4391.52 Z " />
<path stroke="transparent" fill="#000000" transform="matrix(0.0833333 0 0 0.0833333 -42.5833 -166)" d="M 2320.98,4449.54 L 2345.67,4449.54 L 2343.33,4469.54 L 2323.33,4469.54 L 2320.98,4449.54 Z " />
<path stroke="transparent" fill="#000000" transform="matrix(0.0833333 0 0 0.0833333 -42.5833 -166)" d="M 1823.72,4829.34 L 1813.72,4823.57 L 1814.28,4811.69 L 2333.33,4512.01 L 2333.33,4535.11 L 1823.72,4829.34 Z " />
<path stroke="transparent" fill="#000000" transform="matrix(0.0833333 0 0 0.0833333 -42.5833 -166)" d="M 1364.13,4633.27 L 1424.13,4529.35 L 1814.28,4811.69 L 1813.72,4823.57 L 1803.72,4829.99 L 1364.13,4633.27 Z " />
<path stroke="transparent" fill="#000000" transform="matrix(0.0833333 0 0 0.0833333 -42.5833 -166)" d="M 1823.72,5417.81 L 1803.72,5429.35 L 1803.72,4829.99 L 1813.72,4823.57 L 1823.72,4829.34 L 1823.72,5417.81 Z " />
<path stroke="transparent" fill="#000000" transform="matrix(0.0833333 0 0 0.0833333 -42.5833 -166)" d="M 869.464,5489.99 L 879.463,5472.67 L 1299.1,5714.93 L 1289.11,5732.25 L 869.464,5489.99 Z " />
<path stroke="transparent" fill="#000000" transform="matrix(0.0833333 0 0 0.0833333 -42.5833 -166)" d="M 1340.11,6218.43 L 1320.11,6218.43 L 1320.11,5702.8 L 1340.11,5702.8 L 1340.11,6218.43 Z " />
<path stroke="transparent" fill="#000000" transform="matrix(0.0833333 0 0 0.0833333 -42.5833 -166)" d="M 1268.1,6218.43 L 1248.1,6218.43 L 1248.1,5702.8 L 1268.1,5702.8 L 1268.1,6218.43 Z " />
<path stroke="transparent" fill="#000000" transform="matrix(0.0833333 0 0 0.0833333 -42.5833 -166)" d="M 1370.87,5748.55 L 1310.87,5644.62 L 1329.21,5636.38 L 1387.17,5736.79 L 1370.87,5748.55 Z " />
<path stroke="transparent" fill="#000000" transform="matrix(0.0833333 0 0 0.0833333 -42.5833 -166)" d="M 1418.97,5713.85 L 1364.96,5620.32 L 1383.3,5612.08 L 1435.27,5702.09 L 1418.97,5713.85 Z " />
<path stroke="transparent" fill="#000000" transform="matrix(0.0833333 0 0 0.0833333 -42.5833 -166)" d="M 1467.06,5679.16 L 1419.06,5596.01 L 1437.39,5587.77 L 1483.37,5667.4 L 1467.06,5679.16 Z " />
<path stroke="transparent" fill="#000000" transform="matrix(0.0833333 0 0 0.0833333 -42.5833 -166)" d="M 1515.16,5644.47 L 1473.15,5571.7 L 1491.49,5563.46 L 1531.47,5632.71 L 1515.16,5644.47 Z " />
<path stroke="transparent" fill="#000000" transform="matrix(0.0833333 0 0 0.0833333 -42.5833 -166)" d="M 1563.26,5609.77 L 1527.24,5547.39 L 1545.58,5539.15 L 1579.56,5598.01 L 1563.26,5609.77 Z " />
<path stroke="transparent" fill="#000000" transform="matrix(0.0833333 0 0 0.0833333 -42.5833 -166)" d="M 1611.36,5575.08 L 1581.34,5523.08 L 1599.67,5514.84 L 1627.66,5563.32 L 1611.36,5575.08 Z " />
<path stroke="transparent" fill="#000000" transform="matrix(0.0833333 0 0 0.0833333 -42.5833 -166)" d="M 1659.45,5540.39 L 1635.43,5498.78 L 1653.77,5490.54 L 1675.76,5528.63 L 1659.45,5540.39 Z " />
<path stroke="transparent" fill="#000000" transform="matrix(0.0833333 0 0 0.0833333 -42.5833 -166)" d="M 1707.55,5505.69 L 1689.52,5474.47 L 1707.86,5466.23 L 1723.85,5493.93 L 1707.55,5505.69 Z " />
<path stroke="transparent" fill="#000000" transform="matrix(0.0833333 0 0 0.0833333 -42.5833 -166)" d="M 1755.65,5471 L 1743.61,5450.16 L 1761.95,5441.92 L 1771.95,5459.24 L 1755.65,5471 Z " />
<path stroke="transparent" fill="#000000" transform="matrix(0.0833333 0 0 0.0833333 -42.5833 -166)" d="M 2245.71,5661.45 L 2235.71,5678.77 L 1803.72,5429.35 L 1823.72,5417.81 L 2245.71,5661.45 Z " />
<path stroke="transparent" fill="#000000" transform="matrix(0.0833333 0 0 0.0833333 -42.5833 -166)" d="M 2430.95,5678.77 L 2420.95,5661.45 L 2842.94,5417.81 L 2862.94,5429.35 L 2430.95,5678.77 Z " />
<path stroke="transparent" fill="#000000" transform="matrix(0.0833333 0 0 0.0833333 -42.5833 -166)" d="M 3309.99,5618.15 L 3249.99,5722.08 L 3233.81,5710.11 L 3291.53,5610.13 L 3309.99,5618.15 Z " />
<path stroke="transparent" fill="#000000" transform="matrix(0.0833333 0 0 0.0833333 -42.5833 -166)" d="M 3254.73,5594.12 L 3201.55,5686.24 L 3185.37,5674.27 L 3236.27,5586.1 L 3254.73,5594.12 Z " />
<path stroke="transparent" fill="#000000" transform="matrix(0.0833333 0 0 0.0833333 -42.5833 -166)" d="M 3199.47,5570.1 L 3153.11,5650.4 L 3136.93,5638.43 L 3181.01,5562.07 L 3199.47,5570.1 Z " />
<path stroke="transparent" fill="#000000" transform="matrix(0.0833333 0 0 0.0833333 -42.5833 -166)" d="M 3144.21,5546.07 L 3104.67,5614.57 L 3088.48,5602.59 L 3125.75,5538.04 L 3144.21,5546.07 Z " />
<path stroke="transparent" fill="#000000" transform="matrix(0.0833333 0 0 0.0833333 -42.5833 -166)" d="M 3088.95,5522.04 L 3056.22,5578.73 L 3040.04,5566.76 L 3070.49,5514.01 L 3088.95,5522.04 Z " />
<path stroke="transparent" fill="#000000" transform="matrix(0.0833333 0 0 0.0833333 -42.5833 -166)" d="M 3033.69,5498.01 L 3007.78,5542.89 L 2991.6,5530.92 L 3015.23,5489.98 L 3033.69,5498.01 Z " />
<path stroke="transparent" fill="#000000" transform="matrix(0.0833333 0 0 0.0833333 -42.5833 -166)" d="M 2978.43,5473.98 L 2959.34,5507.05 L 2943.16,5495.08 L 2959.97,5465.95 L 2978.43,5473.98 Z " />
<path stroke="transparent" fill="#000000" transform="matrix(0.0833333 0 0 0.0833333 -42.5833 -166)" d="M 2923.17,5449.95 L 2910.9,5471.22 L 2894.72,5459.24 L 2904.71,5441.92 L 2923.17,5449.95 Z " />
<path stroke="transparent" fill="#000000" transform="matrix(0.0833333 0 0 0.0833333 -42.5833 -166)" d="M 3495.23,5722.07 L 3435.23,5618.15 L 3882.22,5417.17 L 3892.22,5423.58 L 3892.77,5435.45 L 3495.23,5722.07 Z " />
<path stroke="transparent" fill="#000000" transform="matrix(0.0833333 0 0 0.0833333 -42.5833 -166)" d="M 3882.22,4817.79 L 3902.22,4829.34 L 3902.22,5417.81 L 3892.22,5423.58 L 3882.22,5417.17 L 3882.22,4817.79 Z " />
<path stroke="transparent" fill="#000000" transform="matrix(0.0833333 0 0 0.0833333 -42.5833 -166)" d="M 3902.22,4829.34 L 3882.22,4817.79 L 4411.83,4512.01 L 4411.83,4535.11 L 3902.22,4829.34 Z " />
<path stroke="transparent" fill="#000000" transform="matrix(0.0833333 0 0 0.0833333 -42.5833 -166)" d="M 4411.83,4535.11 L 4411.83,4512.01 L 4919.93,4805.37 L 4931.44,4823.57 L 4921.44,4829.34 L 4411.83,4535.11 Z " />
<path stroke="transparent" fill="#000000" transform="matrix(0.0833333 0 0 0.0833333 -42.5833 -166)" d="M 4871.44,4223.55 L 4991.44,4223.55 L 4942.96,4805.37 L 4931.44,4823.57 L 4919.93,4805.37 L 4871.44,4223.55 Z " />
<path stroke="transparent" fill="#000000" transform="matrix(0.0833333 0 0 0.0833333 -42.5833 -166)" d="M 5441.12,4517.79 L 5451.12,4523.56 L 5451.12,4535.11 L 4941.44,4829.34 L 4931.44,4823.57 L 4942.96,4805.37 L 5441.12,4517.79 Z " />
<path stroke="transparent" fill="#000000" transform="matrix(0.0833333 0 0 0.0833333 -42.5833 -166)" d="M 5441.12,3917.77 L 5461.12,3929.32 L 5461.12,4517.79 L 5451.12,4523.56 L 5441.12,4517.79 L 5441.12,3917.77 Z " />
<path stroke="transparent" fill="#000000" transform="matrix(0.0833333 0 0 0.0833333 -42.5833 -166)" d="M 5461.12,3929.32 L 5441.12,3917.77 L 5970.73,3612.05 L 5970.73,3635.15 L 5461.12,3929.32 Z " />
<path stroke="transparent" fill="#000000" transform="matrix(0.0833333 0 0 0.0833333 -42.5833 -166)" d="M 5970.73,3635.15 L 5970.73,3612.05 L 6490.34,3912 L 6490.34,3923.55 L 6480.34,3929.32 L 5970.73,3635.15 Z " />
<path stroke="transparent" fill="#000000" transform="matrix(0.0833333 0 0 0.0833333 -42.5833 -166)" d="M 5965.73,3715.39 L 5975.73,3698.07 L 6423.34,3956.46 L 6413.34,3973.78 L 5965.73,3715.39 Z " />
<path stroke="transparent" fill="#000000" transform="matrix(0.0833333 0 0 0.0833333 -42.5833 -166)" d="M 6480.34,3929.32 L 6490.34,3923.55 L 6500.34,3929.32 L 6500.34,4517.79 L 6490.34,4523.56 L 6480.34,4517.79 L 6480.34,3929.32 Z " />
<path stroke="transparent" fill="#000000" transform="matrix(0.0833333 0 0 0.0833333 -42.5833 -166)" d="M 6550.34,5123.56 L 6430.34,5123.56 L 6432.17,5103.56 L 6548.51,5103.56 L 6550.34,5123.56 Z " />
<path stroke="transparent" fill="#000000" transform="matrix(0.0833333 0 0 0.0833333 -42.5833 -166)" d="M 6544.99,5065.12 L 6435.69,5065.12 L 6437.52,5045.12 L 6543.15,5045.12 L 6544.99,5065.12 Z " />
<path stroke="transparent" fill="#000000" transform="matrix(0.0833333 0 0 0.0833333 -42.5833 -166)" d="M 6539.63,5006.67 L 6441.04,5006.67 L 6442.87,4986.67 L 6537.8,4986.67 L 6539.63,5006.67 Z " />
<path stroke="transparent" fill="#000000" transform="matrix(0.0833333 0 0 0.0833333 -42.5833 -166)" d="M 6534.28,4948.23 L 6446.39,4948.23 L 6448.23,4928.23 L 6532.45,4928.23 L 6534.28,4948.23 Z " />
<path stroke="transparent" fill="#000000" transform="matrix(0.0833333 0 0 0.0833333 -42.5833 -166)" d="M 6528.93,4889.78 L 6451.75,4889.78 L 6453.58,4869.78 L 6527.1,4869.78 L 6528.93,4889.78 Z " />
<path stroke="transparent" fill="#000000" transform="matrix(0.0833333 0 0 0.0833333 -42.5833 -166)" d="M 6523.58,4831.34 L 6457.1,4831.34 L 6458.93,4811.34 L 6521.75,4811.34 L 6523.58,4831.34 Z " />
<path stroke="transparent" fill="#000000" transform="matrix(0.0833333 0 0 0.0833333 -42.5833 -166)" d="M 6518.23,4772.89 L 6462.45,4772.89 L 6464.28,4752.89 L 6516.39,4752.89 L 6518.23,4772.89 Z " />
<path stroke="transparent" fill="#000000" transform="matrix(0.0833333 0 0 0.0833333 -42.5833 -166)" d="M 6512.87,4714.45 L 6467.8,4714.45 L 6469.63,4694.45 L 6511.04,4694.45 L 6512.87,4714.45 Z " />
<path stroke="transparent" fill="#000000" transform="matrix(0.0833333 0 0 0.0833333 -42.5833 -166)" d="M 6507.52,4656 L 6473.15,4656 L 6474.99,4636 L 6505.69,4636 L 6507.52,4656 Z " />
<path stroke="transparent" fill="#000000" transform="matrix(0.0833333 0 0 0.0833333 -42.5833 -166)" d="M 6502.17,4597.56 L 6478.51,4597.56 L 6480.34,4577.56 L 6500.34,4577.56 L 6502.17,4597.56 Z " />
<path stroke="transparent" fill="#000000" transform="matrix(0.0833333 0 0 0.0833333 -42.5833 -166)" d="M 7009.95,4812.02 L 7009.95,4835.11 L 6490.34,4535.11 L 6490.34,4523.56 L 6500.34,4517.79 L 7009.95,4812.02 Z " />
<path stroke="transparent" fill="#000000" transform="matrix(0.0833333 0 0 0.0833333 -42.5833 -166)" d="M 7009.95,4835.11 L 7009.95,4812.02 L 7519.62,4517.79 L 7539.62,4529.33 L 7009.95,4835.11 Z " />
<path stroke="transparent" fill="#000000" transform="matrix(0.0833333 0 0 0.0833333 -42.5833 -166)" d="M 7539.62,4529.33 L 7519.62,4517.79 L 7519.62,3929.32 L 7529.62,3923.55 L 7539.62,3942.62 L 7539.62,4529.33 Z " />
<path stroke="transparent" fill="#000000" transform="matrix(0.0833333 0 0 0.0833333 -42.5833 -166)" d="M 8691.45,5122.05 L 8631.44,5018.14 L 9078.45,4817.09 L 9088.45,4823.51 L 9089.01,4835.37 L 8691.45,5122.05 Z " />
<path stroke="transparent" fill="#000000" transform="matrix(0.0833333 0 0 0.0833333 -42.5833 -166)" d="M 9098.45,4817.73 L 9088.45,4823.51 L 9078.45,4817.09 L 9078.45,4217.78 L 9098.45,4229.33 L 9098.45,4817.73 Z " />
<path stroke="transparent" fill="#000000" transform="matrix(0.0833333 0 0 0.0833333 -42.5833 -166)" d="M 9608.07,5111.97 L 9608.07,5135.06 L 9089.01,4835.37 L 9088.45,4823.51 L 9098.45,4817.73 L 9608.07,5111.97 Z " />
<path stroke="transparent" fill="#000000" transform="matrix(0.0833333 0 0 0.0833333 -42.5833 -166)" d="M 9668.07,5618.36 L 9548.07,5618.36 L 9550.33,5598.36 L 9665.8,5598.36 L 9668.07,5618.36 Z " />
<path stroke="transparent" fill="#000000" transform="matrix(0.0833333 0 0 0.0833333 -42.5833 -166)" d="M 9661.25,5558.25 L 9554.88,5558.25 L 9557.15,5538.25 L 9658.98,5538.25 L 9661.25,5558.25 Z " />
<path stroke="transparent" fill="#000000" transform="matrix(0.0833333 0 0 0.0833333 -42.5833 -166)" d="M 9654.43,5498.14 L 9561.7,5498.14 L 9563.97,5478.14 L 9652.16,5478.14 L 9654.43,5498.14 Z " />
<path stroke="transparent" fill="#000000" transform="matrix(0.0833333 0 0 0.0833333 -42.5833 -166)" d="M 9647.61,5438.04 L 9568.52,5438.04 L 9570.79,5418.04 L 9645.34,5418.04 L 9647.61,5438.04 Z " />
<path stroke="transparent" fill="#000000" transform="matrix(0.0833333 0 0 0.0833333 -42.5833 -166)" d="M 9640.79,5377.93 L 9575.34,5377.93 L 9577.61,5357.93 L 9638.52,5357.93 L 9640.79,5377.93 Z " />
<path stroke="transparent" fill="#000000" transform="matrix(0.0833333 0 0 0.0833333 -42.5833 -166)" d="M 9633.97,5317.82 L 9582.16,5317.82 L 9584.43,5297.82 L 9631.7,5297.82 L 9633.97,5317.82 Z " />
<path stroke="transparent" fill="#000000" transform="matrix(0.0833333 0 0 0.0833333 -42.5833 -166)" d="M 9627.15,5257.71 L 9588.98,5257.71 L 9591.25,5237.71 L 9624.88,5237.71 L 9627.15,5257.71 Z " />
<path stroke="transparent" fill="#000000" transform="matrix(0.0833333 0 0 0.0833333 -42.5833 -166)" d="M 9620.33,5197.61 L 9595.8,5197.61 L 9598.07,5177.61 L 9618.07,5177.61 L 9620.33,5197.61 Z " />
<path stroke="transparent" fill="#000000" transform="matrix(0.0833333 0 0 0.0833333 -42.5833 -166)" d="M 10117.7,4817.73 L 10127.7,4823.51 L 10127.1,4835.37 L 9608.07,5135.06 L 9608.07,5111.97 L 10117.7,4817.73 Z " />
<path stroke="transparent" fill="#000000" transform="matrix(0.0833333 0 0 0.0833333 -42.5833 -166)" d="M 10584.7,5018.08 L 10524.7,5122 L 10127.1,4835.37 L 10127.7,4823.51 L 10137.7,4817.09 L 10584.7,5018.08 Z " />
<path stroke="transparent" fill="#000000" transform="matrix(0.0833333 0 0 0.0833333 -42.5833 -166)" d="M 10117.7,4229.27 L 10137.7,4217.72 L 10137.7,4817.09 L 10127.7,4823.51 L 10117.7,4817.73 L 10117.7,4229.27 Z " />
<path stroke="transparent" fill="#000000" transform="matrix(0.0833333 0 0 0.0833333 -42.5833 -166)" d="M 11079.3,4161.37 L 11069.3,4178.69 L 10642.3,3932.21 L 10652.3,3914.89 L 11079.3,4161.37 Z " />
<path stroke="transparent" fill="#000000" transform="matrix(0.0833333 0 0 0.0833333 -42.5833 -166)" d="M 10570.4,3898.62 L 10630.4,4002.55 L 10612.1,4010.79 L 10554.1,3910.38 L 10570.4,3898.62 Z " />
<path stroke="transparent" fill="#000000" transform="matrix(0.0833333 0 0 0.0833333 -42.5833 -166)" d="M 10522.4,3933.3 L 10576.4,4026.84 L 10558,4035.08 L 10506.1,3945.06 L 10522.4,3933.3 Z " />
<path stroke="transparent" fill="#000000" transform="matrix(0.0833333 0 0 0.0833333 -42.5833 -166)" d="M 10474.3,3967.98 L 10522.3,4051.13 L 10504,4059.37 L 10458,3979.74 L 10474.3,3967.98 Z " />
<path stroke="transparent" fill="#000000" transform="matrix(0.0833333 0 0 0.0833333 -42.5833 -166)" d="M 10426.2,4002.65 L 10468.2,4075.42 L 10449.9,4083.66 L 10409.9,4014.41 L 10426.2,4002.65 Z " />
<path stroke="transparent" fill="#000000" transform="matrix(0.0833333 0 0 0.0833333 -42.5833 -166)" d="M 10378.1,4037.33 L 10414.1,4099.71 L 10395.8,4107.95 L 10361.8,4049.09 L 10378.1,4037.33 Z " />
<path stroke="transparent" fill="#000000" transform="matrix(0.0833333 0 0 0.0833333 -42.5833 -166)" d="M 10330.1,4072 L 10360.1,4124 L 10341.7,4132.24 L 10313.8,4083.76 L 10330.1,4072 Z " />
<path stroke="transparent" fill="#000000" transform="matrix(0.0833333 0 0 0.0833333 -42.5833 -166)" d="M 10282,4106.68 L 10306,4148.29 L 10287.7,4156.53 L 10265.7,4118.44 L 10282,4106.68 Z " />
<path stroke="transparent" fill="#000000" transform="matrix(0.0833333 0 0 0.0833333 -42.5833 -166)" d="M 10233.9,4141.36 L 10251.9,4172.59 L 10233.6,4180.82 L 10217.6,4153.12 L 10233.9,4141.36 Z " />
<path stroke="transparent" fill="#000000" transform="matrix(0.0833333 0 0 0.0833333 -42.5833 -166)" d="M 10185.8,4176.03 L 10197.9,4196.88 L 10179.5,4205.11 L 10169.5,4187.79 L 10185.8,4176.03 Z " />
<path stroke="transparent" fill="#000000" transform="matrix(0.0833333 0 0 0.0833333 -42.5833 -166)" d="M 9703.11,3989.96 L 9713.11,3972.63 L 10137.7,4217.72 L 10117.7,4229.27 L 9703.11,3989.96 Z " />
<path stroke="transparent" fill="#000000" transform="matrix(0.0833333 0 0 0.0833333 -42.5833 -166)" d="M 9503.46,3972.39 L 9513.46,3989.71 L 9098.45,4229.33 L 9078.45,4217.78 L 9503.46,3972.39 Z " />
<path stroke="transparent" fill="#000000" transform="matrix(0.0833333 0 0 0.0833333 -42.5833 -166)" d="M 8638.88,4033.27 L 8698.88,3929.34 L 8715.04,3941.36 L 8657.36,4041.25 L 8638.88,4033.27 Z " />
<path stroke="transparent" fill="#000000" transform="matrix(0.0833333 0 0 0.0833333 -42.5833 -166)" d="M 8693.06,4056.68 L 8746.25,3964.56 L 8762.41,3976.57 L 8711.54,4064.67 L 8693.06,4056.68 Z " />
<path stroke="transparent" fill="#000000" transform="matrix(0.0833333 0 0 0.0833333 -42.5833 -166)" d="M 8747.25,4080.1 L 8793.62,3999.77 L 8809.78,4011.79 L 8765.73,4088.09 L 8747.25,4080.1 Z " />
<path stroke="transparent" fill="#000000" transform="matrix(0.0833333 0 0 0.0833333 -42.5833 -166)" d="M 8801.43,4103.52 L 8841,4034.99 L 8857.15,4047 L 8819.91,4111.51 L 8801.43,4103.52 Z " />
<path stroke="transparent" fill="#000000" transform="matrix(0.0833333 0 0 0.0833333 -42.5833 -166)" d="M 8855.61,4126.94 L 8888.37,4070.21 L 8904.53,4082.22 L 8874.09,4134.93 L 8855.61,4126.94 Z " />
<path stroke="transparent" fill="#000000" transform="matrix(0.0833333 0 0 0.0833333 -42.5833 -166)" d="M 8909.79,4150.36 L 8935.74,4105.42 L 8951.9,4117.43 L 8928.28,4158.35 L 8909.79,4150.36 Z " />
<path stroke="transparent" fill="#000000" transform="matrix(0.0833333 0 0 0.0833333 -42.5833 -166)" d="M 8963.98,4173.78 L 8983.11,4140.64 L 8999.27,4152.65 L 8982.46,4181.77 L 8963.98,4173.78 Z " />
<path stroke="transparent" fill="#000000" transform="matrix(0.0833333 0 0 0.0833333 -42.5833 -166)" d="M 9018.16,4197.2 L 9030.48,4175.85 L 9046.64,4187.87 L 9036.64,4205.19 L 9018.16,4197.2 Z " />
<path stroke="transparent" fill="#000000" transform="matrix(0.0833333 0 0 0.0833333 -42.5833 -166)" d="M 8464.24,3972.39 L 8474.24,3989.71 L 8001.07,4262.91 L 8101.25,4181.97 L 8464.24,3972.39 Z " />
<path stroke="transparent" fill="#000000" transform="matrix(0.0833333 0 0 0.0833333 -42.5833 -166)" d="M 8095.23,4718.4 L 8075.23,4718.4 L 8075.23,4202.77 L 8095.23,4202.77 L 8095.23,4718.4 Z " />
<path stroke="transparent" fill="#000000" transform="matrix(0.0833333 0 0 0.0833333 -42.5833 -166)" d="M 8023.23,4718.4 L 8003.23,4718.4 L 8003.23,4202.77 L 8023.23,4202.77 L 8023.23,4718.4 Z " />
<path stroke="transparent" fill="#000000" transform="matrix(0.0833333 0 0 0.0833333 -42.5833 -166)" d="M 8101.25,4181.97 L 8001.07,4262.91 L 7539.62,3942.62 L 7529.62,3923.55 L 7551.14,3922.67 L 8101.25,4181.97 Z " />
<path stroke="transparent" fill="#000000" transform="matrix(0.0833333 0 0 0.0833333 -42.5833 -166)" d="M 8039.23,3617.83 L 8059.23,3629.37 L 7551.14,3922.67 L 7529.62,3923.55 L 7529.62,3912 L 8039.23,3617.83 Z " />
<path stroke="transparent" fill="#000000" transform="matrix(0.0833333 0 0 0.0833333 -42.5833 -166)" d="M 8059.23,3629.37 L 8039.23,3617.83 L 8039.23,3029.36 L 8059.23,3017.81 L 8059.23,3629.37 Z " />
<path stroke="transparent" fill="#000000" transform="matrix(0.0833333 0 0 0.0833333 -42.5833 -166)" d="M 8059.23,3017.81 L 8039.23,3029.36 L 7529.62,2735.13 L 7529.62,2723.58 L 7543.28,2719.92 L 8059.23,3017.81 Z " />
<path stroke="transparent" fill="#000000" transform="matrix(0.0833333 0 0 0.0833333 -42.5833 -166)" d="M 7820.97,2198.97 L 7838.29,2208.97 L 7543.28,2719.92 L 7529.62,2723.58 L 7529.62,2703.58 L 7820.97,2198.97 Z " />
<path stroke="transparent" fill="#000000" transform="matrix(0.0833333 0 0 0.0833333 -42.5833 -166)" d="M 7529.62,2703.58 L 7529.62,2723.58 L 7515.96,2719.92 L 7220.95,2208.97 L 7238.27,2198.97 L 7529.62,2703.58 Z " />
<text x="0" y="0" stroke="transparent" fill="#000000" transform="matrix(0.0833333 0 0 0.0833333 318.569 167.462)" style="font:normal normal normal 200px 'Arial'" >
OH</text>
<text x="0" y="0" stroke="transparent" fill="#000000" transform="matrix(0.0833333 0 0 0.0833333 318.569 67.46)" style="font:normal normal normal 200px 'Arial'" >
OH</text>
<text x="0" y="0" stroke="transparent" fill="#000000" transform="matrix(0.0833333 0 0 0.0833333 231.968 17.464)" style="font:normal normal normal 200px 'Arial'" >
OH</text>
<text x="0" y="0" stroke="transparent" fill="#000000" transform="matrix(0.0833333 0 0 0.0833333 145.361 17.464)" style="font:normal normal normal 200px 'Arial'" >
OH</text>
<text x="0" y="0" stroke="transparent" fill="#000000" transform="matrix(0.0833333 0 0 0.0833333 188.662 142.467)" style="font:normal normal normal 200px 'Arial'" >
O</text>
<text x="0" y="0" stroke="transparent" fill="#000000" transform="matrix(0.0833333 0 0 0.0833333 231.968 217.463)" style="font:normal normal normal 200px 'Arial'" >
O</text>
<text x="0" y="0" stroke="transparent" fill="#000000" transform="matrix(0.0833333 0 0 0.0833333 145.361 167.462)" style="font:normal normal normal 200px 'Arial'" >
OH</text>
<text x="0" y="0" stroke="transparent" fill="#000000" transform="matrix(0.0833333 0 0 0.0833333 46.7226 217.463)" style="font:normal normal normal 200px 'Arial'" >
HO</text>
<text x="0" y="0" stroke="transparent" fill="#000000" transform="matrix(0.0833333 0 0 0.0833333 3.41667 292.465)" style="font:normal normal normal 200px 'Arial'" >
HO</text>
<text x="0" y="0" stroke="transparent" fill="#000000" transform="matrix(0.0833333 0 0 0.0833333 58.7587 367.467)" style="font:normal normal normal 200px 'Arial'" >
O</text>
<text x="0" y="0" stroke="transparent" fill="#000000" transform="matrix(0.0833333 0 0 0.0833333 145.361 317.465)" style="font:normal normal normal 200px 'Arial'" >
O</text>
<text x="0" y="0" stroke="transparent" fill="#000000" transform="matrix(0.0833333 0 0 0.0833333 231.968 317.465)" style="font:normal normal normal 200px 'Arial'" >
O</text>
<text x="0" y="0" stroke="transparent" fill="#000000" transform="matrix(0.0833333 0 0 0.0833333 652.951 267.464)" style="font:normal normal normal 200px 'Arial'" >
HO</text>
<text x="0" y="0" stroke="transparent" fill="#000000" transform="matrix(0.0833333 0 0 0.0833333 751.589 317.46)" style="font:normal normal normal 200px 'Arial'" >
OH</text>
<text x="0" y="0" stroke="transparent" fill="#000000" transform="matrix(0.0833333 0 0 0.0833333 838.191 267.459)" style="font:normal normal normal 200px 'Arial'" >
OH</text>
<text x="0" y="0" stroke="transparent" fill="#000000" transform="matrix(0.0833333 0 0 0.0833333 881.497 192.458)" style="font:normal normal normal 200px 'Arial'" >
OH</text>
<text x="0" y="0" stroke="transparent" fill="#000000" transform="matrix(0.0833333 0 0 0.0833333 751.589 167.462)" style="font:normal normal normal 200px 'Arial'" >
O</text>
<text x="0" y="0" stroke="transparent" fill="#000000" transform="matrix(0.0833333 0 0 0.0833333 664.987 167.462)" style="font:normal normal normal 200px 'Arial'" >
O</text>
<text x="0" y="0" stroke="transparent" fill="#000000" transform="matrix(0.0833333 0 0 0.0833333 621.686 242.464)" style="font:normal normal normal 200px 'Arial'" >
O</text>
<text x="0" y="0" stroke="transparent" fill="#000000" transform="matrix(0.0833333 0 0 0.0833333 362.37 342.465)" style="font:normal normal normal 200px 'Arial'" >
H</text>
<path stroke="transparent" fill="#000000" transform="matrix(0.0833333 0 0 0.0833333 -42.5833 -166)" d="M 4991.44,5920.91 L 4871.44,5920.91 L 4873.7,5900.91 L 4989.19,5900.91 L 4991.44,5920.91 Z " />
<path stroke="transparent" fill="#000000" transform="matrix(0.0833333 0 0 0.0833333 -42.5833 -166)" d="M 4984.62,5860.44 L 4878.26,5860.44 L 4880.52,5840.44 L 4982.37,5840.44 L 4984.62,5860.44 Z " />
<path stroke="transparent" fill="#000000" transform="matrix(0.0833333 0 0 0.0833333 -42.5833 -166)" d="M 4977.8,5799.97 L 4885.09,5799.97 L 4887.34,5779.97 L 4975.55,5779.97 L 4977.8,5799.97 Z " />
<path stroke="transparent" fill="#000000" transform="matrix(0.0833333 0 0 0.0833333 -42.5833 -166)" d="M 4970.98,5739.5 L 4891.91,5739.5 L 4894.16,5719.5 L 4968.73,5719.5 L 4970.98,5739.5 Z " />
<path stroke="transparent" fill="#000000" transform="matrix(0.0833333 0 0 0.0833333 -42.5833 -166)" d="M 4964.16,5679.03 L 4898.73,5679.03 L 4900.98,5659.03 L 4961.91,5659.03 L 4964.16,5679.03 Z " />
<path stroke="transparent" fill="#000000" transform="matrix(0.0833333 0 0 0.0833333 -42.5833 -166)" d="M 4957.34,5618.56 L 4905.55,5618.56 L 4907.8,5598.56 L 4955.09,5598.56 L 4957.34,5618.56 Z " />
<path stroke="transparent" fill="#000000" transform="matrix(0.0833333 0 0 0.0833333 -42.5833 -166)" d="M 4950.52,5558.09 L 4912.37,5558.09 L 4914.62,5538.09 L 4948.26,5538.09 L 4950.52,5558.09 Z " />
<path stroke="transparent" fill="#000000" transform="matrix(0.0833333 0 0 0.0833333 -42.5833 -166)" d="M 4943.7,5497.62 L 4919.19,5497.62 L 4921.44,5477.62 L 4941.44,5477.62 L 4943.7,5497.62 Z " />
<text x="0" y="0" stroke="transparent" fill="#000000" transform="matrix(0.0833333 0 0 0.0833333 405.676 267.463)" style="font:normal normal normal 200px 'Arial'" >
H</text>
<path stroke="transparent" fill="#000000" transform="matrix(0.0833333 0 0 0.0833333 -42.5833 -166)" d="M 5511.12,5020.89 L 5391.12,5020.89 L 5393.37,5000.89 L 5508.86,5000.89 L 5511.12,5020.89 Z " />
<path stroke="transparent" fill="#000000" transform="matrix(0.0833333 0 0 0.0833333 -42.5833 -166)" d="M 5504.29,4960.42 L 5397.94,4960.42 L 5400.19,4940.42 L 5502.04,4940.42 L 5504.29,4960.42 Z " />
<path stroke="transparent" fill="#000000" transform="matrix(0.0833333 0 0 0.0833333 -42.5833 -166)" d="M 5497.47,4899.95 L 5404.76,4899.95 L 5407.01,4879.95 L 5495.22,4879.95 L 5497.47,4899.95 Z " />
<path stroke="transparent" fill="#000000" transform="matrix(0.0833333 0 0 0.0833333 -42.5833 -166)" d="M 5490.65,4839.48 L 5411.58,4839.48 L 5413.83,4819.48 L 5488.4,4819.48 L 5490.65,4839.48 Z " />
<path stroke="transparent" fill="#000000" transform="matrix(0.0833333 0 0 0.0833333 -42.5833 -166)" d="M 5483.83,4779.01 L 5418.4,4779.01 L 5420.65,4759.01 L 5481.58,4759.01 L 5483.83,4779.01 Z " />
<path stroke="transparent" fill="#000000" transform="matrix(0.0833333 0 0 0.0833333 -42.5833 -166)" d="M 5477.01,4718.54 L 5425.22,4718.54 L 5427.47,4698.54 L 5474.76,4698.54 L 5477.01,4718.54 Z " />
<path stroke="transparent" fill="#000000" transform="matrix(0.0833333 0 0 0.0833333 -42.5833 -166)" d="M 5470.19,4658.07 L 5432.04,4658.07 L 5434.29,4638.07 L 5467.94,4638.07 L 5470.19,4658.07 Z " />
<path stroke="transparent" fill="#000000" transform="matrix(0.0833333 0 0 0.0833333 -42.5833 -166)" d="M 5463.37,4597.6 L 5438.86,4597.6 L 5441.12,4577.6 L 5461.12,4577.6 L 5463.37,4597.6 Z " />
<text x="0" y="0" stroke="transparent" fill="#000000" transform="matrix(0.0833333 0 0 0.0833333 492.278 117.467)" style="font:normal normal normal 200px 'Arial'" >
H</text>
<path stroke="transparent" fill="#000000" transform="matrix(0.0833333 0 0 0.0833333 -42.5833 -166)" d="M 6570.46,3439.14 L 6630.46,3335.22 L 6999.95,3604.03 L 7009.95,3623.6 L 6988,3624.73 L 6570.46,3439.14 Z " />
</svg>
