<?xml version="1.0" standalone="no" ?>
<!DOCTYPE svg PUBLIC "-//W3C//DTD SVG 1.1//EN" "http://www.w3.org/Graphics/SVG/1.1/DTD/svg11.dtd">
<svg width="432px" height="245px" viewBox="0 0 432 245" style="background-color: #ffffff00" xmlns="http://www.w3.org/2000/svg" xmlns:xlink="http://www.w3.org/1999/xlink" version="1.1" >
<text x="0" y="0" stroke="transparent" fill="#000000" transform="matrix(0.0833333 0 0 0.0833333 214.285 91.4194)" style="font:normal normal normal 200px 'Arial'" >
N</text>
<text x="0" y="0" stroke="transparent" fill="#000000" transform="matrix(0.0833333 0 0 0.0833333 73.4852 17.5112)" style="font:normal normal normal 200px 'Arial'" >
O</text>
<text x="0" y="0" stroke="transparent" fill="#000000" transform="matrix(0.0833333 0 0 0.0833333 3.4204 57.9654)" style="font:normal normal normal 200px 'Arial'" >
O</text>
<text x="0" y="0" stroke="transparent" fill="#000000" transform="matrix(0.0833333 0 0 0.0833333 115.147 241.419)" style="font:normal normal normal 200px 'Arial'" >
HO</text>
<text x="0" y="0" stroke="transparent" fill="#000000" transform="matrix(0.0833333 0 0 0.0833333 391.242 150.967)" style="font:normal normal normal 200px 'Arial'" >
O</text>
<text x="0" y="0" stroke="transparent" fill="#000000" transform="matrix(0.0833333 0 0 0.0833333 391.242 231.873)" style="font:normal normal normal 200px 'Arial'" >
O</text>
<path stroke="transparent" fill="#000000" transform="matrix(0.0833333 0 0 0.0833333 -220.208 -237)" d="M 5394.7,3811.78 L 5384.7,3794.46 L 5800.53,3554.37 L 5810.53,3571.69 L 5394.7,3811.78 Z " />
<path stroke="transparent" fill="#000000" transform="matrix(0.0833333 0 0 0.0833333 -220.208 -237)" d="M 4766.31,3574.57 L 4766.31,3551.48 L 5187.14,3794.46 L 5177.14,3811.78 L 4766.31,3574.57 Z " />
<path stroke="transparent" fill="#000000" transform="matrix(0.0833333 0 0 0.0833333 -220.208 -237)" d="M 4256.7,3868.77 L 4246.7,3862.99 L 4246.7,3851.45 L 4766.31,3551.48 L 4766.31,3574.57 L 4256.7,3868.77 Z " />
<path stroke="transparent" fill="#000000" transform="matrix(0.0833333 0 0 0.0833333 -220.208 -237)" d="M 4256.7,4457.23 L 4246.7,4463.01 L 4236.7,4457.23 L 4236.7,3868.77 L 4246.7,3862.99 L 4256.7,3868.77 L 4256.7,4457.23 Z " />
<path stroke="transparent" fill="#000000" transform="matrix(0.0833333 0 0 0.0833333 -220.208 -237)" d="M 4184.7,4421.44 L 4164.7,4421.44 L 4164.7,3904.57 L 4184.7,3904.57 L 4184.7,4421.44 Z " />
<path stroke="transparent" fill="#000000" transform="matrix(0.0833333 0 0 0.0833333 -220.208 -237)" d="M 3727.05,4774.56 L 3727.05,4751.47 L 4236.7,4457.23 L 4246.7,4463.01 L 4246.7,4474.55 L 3727.05,4774.56 Z " />
<path stroke="transparent" fill="#000000" transform="matrix(0.0833333 0 0 0.0833333 -220.208 -237)" d="M 3197.43,4468.78 L 3217.43,4457.23 L 3727.05,4751.47 L 3727.05,4774.56 L 3197.43,4468.78 Z " />
<path stroke="transparent" fill="#000000" transform="matrix(0.0833333 0 0 0.0833333 -220.208 -237)" d="M 3274.43,4430.1 L 3284.43,4412.78 L 3732.05,4671.21 L 3722.05,4688.53 L 3274.43,4430.1 Z " />
<path stroke="transparent" fill="#000000" transform="matrix(0.0833333 0 0 0.0833333 -220.208 -237)" d="M 3197.43,3867.45 L 3207.43,3862.99 L 3217.43,3868.77 L 3217.43,4457.23 L 3197.43,4468.78 L 3197.43,3867.45 Z " />
<path stroke="transparent" fill="#000000" transform="matrix(0.0833333 0 0 0.0833333 -220.208 -237)" d="M 3715.75,3558 L 3727.05,3563.03 L 3727.05,3574.57 L 3217.43,3868.77 L 3207.43,3862.99 L 3208.73,3850.7 L 3715.75,3558 Z " />
<path stroke="transparent" fill="#000000" transform="matrix(0.0833333 0 0 0.0833333 -220.208 -237)" d="M 3722.05,3637.5 L 3732.05,3654.82 L 3284.43,3913.22 L 3274.43,3895.9 L 3722.05,3637.5 Z " />
<path stroke="transparent" fill="#000000" transform="matrix(0.0833333 0 0 0.0833333 -220.208 -237)" d="M 3727.05,3574.57 L 3727.05,3563.03 L 3735.9,3556.59 L 4246.7,3851.45 L 4246.7,3862.99 L 4236.7,3868.77 L 3727.05,3574.57 Z " />
<path stroke="transparent" fill="#000000" transform="matrix(0.0833333 0 0 0.0833333 -220.208 -237)" d="M 3617.91,3097.59 L 3637.47,3093.43 L 3735.9,3556.59 L 3727.05,3563.03 L 3715.75,3558 L 3617.91,3097.59 Z " />
<path stroke="transparent" fill="#000000" transform="matrix(0.0833333 0 0 0.0833333 -220.208 -237)" d="M 3011.77,2924.12 L 2999.41,2902.71 L 3496.33,2954.94 L 3494.24,2974.83 L 3011.77,2924.12 Z " />
<path stroke="transparent" fill="#000000" transform="matrix(0.0833333 0 0 0.0833333 -220.208 -237)" d="M 2813.94,3368.49 L 2795.66,3360.36 L 2999.41,2902.71 L 3011.77,2924.12 L 2813.94,3368.49 Z " />
<path stroke="transparent" fill="#000000" transform="matrix(0.0833333 0 0 0.0833333 -220.208 -237)" d="M 2842.89,3548.27 L 2856.27,3533.41 L 3208.73,3850.7 L 3207.43,3862.99 L 3197.43,3867.45 L 2842.89,3548.27 Z " />
<path stroke="transparent" fill="#000000" transform="matrix(0.0833333 0 0 0.0833333 -220.208 -237)" d="M 4766.31,4751.47 L 4766.31,4763.01 L 4746.31,4763.01 L 4246.7,4474.55 L 4246.7,4463.01 L 4256.7,4457.23 L 4766.31,4751.47 Z " />
<path stroke="transparent" fill="#000000" transform="matrix(0.0833333 0 0 0.0833333 -220.208 -237)" d="M 4251.7,5071.68 L 4241.7,5054.36 L 4746.31,4763.01 L 4766.31,4763.01 L 4756.31,4780.33 L 4251.7,5071.68 Z " />
<path stroke="transparent" fill="#000000" transform="matrix(0.0833333 0 0 0.0833333 -220.208 -237)" d="M 4776.31,5357.29 L 4766.31,5363.07 L 4756.31,5357.29 L 4756.31,4780.33 L 4766.31,4763.01 L 4776.31,4768.79 L 4776.31,5357.29 Z " />
<path stroke="transparent" fill="#000000" transform="matrix(0.0833333 0 0 0.0833333 -220.208 -237)" d="M 4344.31,5618.23 L 4334.31,5600.91 L 4756.31,5357.29 L 4766.31,5363.07 L 4766.31,5374.61 L 4344.31,5618.23 Z " />
<path stroke="transparent" fill="#000000" transform="matrix(0.0833333 0 0 0.0833333 -220.208 -237)" d="M 5285.92,5651.53 L 5285.92,5674.62 L 4766.31,5374.61 L 4766.31,5363.07 L 4776.31,5357.29 L 5285.92,5651.53 Z " />
<path stroke="transparent" fill="#000000" transform="matrix(0.0833333 0 0 0.0833333 -220.208 -237)" d="M 5795.53,5357.29 L 5805.53,5363.07 L 5805.53,5374.61 L 5285.92,5674.62 L 5285.92,5651.53 L 5795.53,5357.29 Z " />
<path stroke="transparent" fill="#000000" transform="matrix(0.0833333 0 0 0.0833333 -220.208 -237)" d="M 6325.14,5651.53 L 6325.14,5674.62 L 5805.53,5374.61 L 5805.53,5363.07 L 5815.53,5357.29 L 6325.14,5651.53 Z " />
<path stroke="transparent" fill="#000000" transform="matrix(0.0833333 0 0 0.0833333 -220.208 -237)" d="M 6330.14,5571.27 L 6320.14,5588.59 L 5872.53,5330.16 L 5882.53,5312.84 L 6330.14,5571.27 Z " />
<path stroke="transparent" fill="#000000" transform="matrix(0.0833333 0 0 0.0833333 -220.208 -237)" d="M 6834.79,5357.29 L 6844.79,5363.07 L 6845.94,5373.95 L 6325.14,5674.62 L 6325.14,5651.53 L 6834.79,5357.29 Z " />
<path stroke="transparent" fill="#000000" transform="matrix(0.0833333 0 0 0.0833333 -220.208 -237)" d="M 6834.79,4768.79 L 6844.79,4763.01 L 6854.79,4770.28 L 6854.79,5355.8 L 6844.79,5363.07 L 6834.79,5357.29 L 6834.79,4768.79 Z " />
<path stroke="transparent" fill="#000000" transform="matrix(0.0833333 0 0 0.0833333 -220.208 -237)" d="M 6762.79,4804.59 L 6782.79,4804.59 L 6782.79,5321.49 L 6762.79,5321.49 L 6762.79,4804.59 Z " />
<path stroke="transparent" fill="#000000" transform="matrix(0.0833333 0 0 0.0833333 -220.208 -237)" d="M 6325.14,4474.59 L 6325.14,4451.5 L 6845.94,4752.13 L 6844.79,4763.01 L 6834.79,4768.79 L 6325.14,4474.59 Z " />
<path stroke="transparent" fill="#000000" transform="matrix(0.0833333 0 0 0.0833333 -220.208 -237)" d="M 5815.53,4768.83 L 5805.53,4763.05 L 5805.53,4751.51 L 6325.14,4451.5 L 6325.14,4474.59 L 5815.53,4768.83 Z " />
<path stroke="transparent" fill="#000000" transform="matrix(0.0833333 0 0 0.0833333 -220.208 -237)" d="M 5882.53,4813.28 L 5872.53,4795.96 L 6320.15,4537.52 L 6330.15,4554.84 L 5882.53,4813.28 Z " />
<path stroke="transparent" fill="#000000" transform="matrix(0.0833333 0 0 0.0833333 -220.208 -237)" d="M 5795.53,4768.83 L 5805.53,4763.05 L 5815.53,4768.83 L 5815.53,5357.29 L 5805.53,5363.07 L 5795.53,5357.29 L 5795.53,4768.83 Z " />
<path stroke="transparent" fill="#000000" transform="matrix(0.0833333 0 0 0.0833333 -220.208 -237)" d="M 5285.92,4474.59 L 5285.92,4463.05 L 5295.92,4457.27 L 5805.53,4751.51 L 5805.53,4763.05 L 5795.53,4768.83 L 5285.92,4474.59 Z " />
<path stroke="transparent" fill="#000000" transform="matrix(0.0833333 0 0 0.0833333 -220.208 -237)" d="M 5295.92,4457.27 L 5285.92,4463.05 L 5275.92,4457.27 L 5275.92,3980.37 L 5295.92,3980.37 L 5295.92,4457.27 Z " />
<path stroke="transparent" fill="#000000" transform="matrix(0.0833333 0 0 0.0833333 -220.208 -237)" d="M 5275.92,4457.27 L 5285.92,4463.05 L 5285.92,4474.59 L 4776.31,4768.79 L 4766.31,4763.01 L 4766.31,4751.47 L 5275.92,4457.27 Z " />
<path stroke="transparent" fill="#000000" transform="matrix(0.0833333 0 0 0.0833333 -220.208 -237)" d="M 7305.83,4602.7 L 7312.01,4621.72 L 6854.79,4770.28 L 6844.79,4763.01 L 6845.94,4752.13 L 7305.83,4602.7 Z " />
<path stroke="transparent" fill="#000000" transform="matrix(0.0833333 0 0 0.0833333 -220.208 -237)" d="M 7780.46,5063.06 L 7755.73,5063.06 L 7478.07,4680.87 L 7494.25,4669.12 L 7780.46,5063.06 Z " />
<path stroke="transparent" fill="#000000" transform="matrix(0.0833333 0 0 0.0833333 -220.208 -237)" d="M 7486.2,5468.05 L 7470.02,5456.3 L 7755.73,5063.06 L 7780.46,5063.06 L 7486.2,5468.05 Z " />
<path stroke="transparent" fill="#000000" transform="matrix(0.0833333 0 0 0.0833333 -220.208 -237)" d="M 7316.91,5505.95 L 7310.73,5524.97 L 6845.94,5373.95 L 6844.79,5363.07 L 6854.79,5355.8 L 7316.91,5505.95 Z " />
</svg>
