<?xml version="1.0" standalone="no" ?>
<!DOCTYPE svg PUBLIC "-//W3C//DTD SVG 1.1//EN" "http://www.w3.org/Graphics/SVG/1.1/DTD/svg11.dtd">
<svg width="187px" height="250px" viewBox="0 0 187 250" style="background-color: #ffffff00" xmlns="http://www.w3.org/2000/svg" xmlns:xlink="http://www.w3.org/1999/xlink" version="1.1" >
<text x="0" y="0" stroke="transparent" fill="#000000" transform="matrix(0.0666667 0 0 0.0666667 173.022 14.2817)" style="font:normal normal normal 200px 'Arial'" >
O</text>
<text x="0" y="0" stroke="transparent" fill="#000000" transform="matrix(0.0666667 0 0 0.0666667 67.903 152.199)" style="font:normal normal normal 200px 'Arial'" >
O</text>
<text x="0" y="0" stroke="transparent" fill="#000000" transform="matrix(0.0666667 0 0 0.0666667 137.181 192.198)" style="font:normal normal normal 200px 'Arial'" >
O</text>
<text x="0" y="0" stroke="transparent" fill="#000000" transform="matrix(0.0666667 0 0 0.0666667 67.903 192.198)" style="font:normal normal normal 200px 'Arial'" >
O</text>
<path stroke="transparent" fill="#000000" transform="matrix(0.0666667 0 0 0.0666667 -255.425 -188)" d="M 5977.09,3819.25 L 5967.09,3825.02 L 5957.09,3819.25 L 5957.09,3219.27 L 5977.09,3230.81 L 5977.09,3819.25 Z " />
<path stroke="transparent" fill="#000000" transform="matrix(0.0666667 0 0 0.0666667 -255.425 -188)" d="M 5457.47,4130.79 L 5437.47,4119.24 L 5957.09,3819.25 L 5967.09,3825.02 L 5967.09,3836.57 L 5457.47,4130.79 Z " />
<path stroke="transparent" fill="#000000" transform="matrix(0.0666667 0 0 0.0666667 -255.425 -188)" d="M 5457.47,4719.22 L 5447.47,4724.99 L 5437.47,4719.22 L 5437.47,4119.24 L 5457.47,4130.79 L 5457.47,4719.22 Z " />
<path stroke="transparent" fill="#000000" transform="matrix(0.0666667 0 0 0.0666667 -255.425 -188)" d="M 5529.47,4683.43 L 5509.47,4683.43 L 5509.47,4166.58 L 5529.47,4166.58 L 5529.47,4683.43 Z " />
<path stroke="transparent" fill="#000000" transform="matrix(0.0666667 0 0 0.0666667 -255.425 -188)" d="M 5967.09,5013.44 L 5967.09,5024.99 L 5957.09,5030.76 L 5447.47,4736.54 L 5447.47,4724.99 L 5457.47,4719.22 L 5967.09,5013.44 Z " />
<path stroke="transparent" fill="#000000" transform="matrix(0.0666667 0 0 0.0666667 -255.425 -188)" d="M 6476.72,4719.22 L 6496.72,4730.77 L 5977.09,5030.76 L 5967.09,5024.99 L 5967.09,5013.44 L 6476.72,4719.22 Z " />
<path stroke="transparent" fill="#000000" transform="matrix(0.0666667 0 0 0.0666667 -255.425 -188)" d="M 6409.72,4674.76 L 6419.72,4692.08 L 5972.09,4950.51 L 5962.1,4933.19 L 6409.72,4674.76 Z " />
<path stroke="transparent" fill="#000000" transform="matrix(0.0666667 0 0 0.0666667 -255.425 -188)" d="M 6476.72,4130.79 L 6496.72,4119.24 L 6496.72,4730.77 L 6476.72,4719.22 L 6476.72,4130.79 Z " />
<path stroke="transparent" fill="#000000" transform="matrix(0.0666667 0 0 0.0666667 -255.425 -188)" d="M 6496.72,4119.24 L 6476.72,4130.79 L 5967.09,3836.57 L 5967.09,3825.02 L 5977.09,3819.25 L 6496.72,4119.24 Z " />
<path stroke="transparent" fill="#000000" transform="matrix(0.0666667 0 0 0.0666667 -255.425 -188)" d="M 6419.72,4157.92 L 6409.72,4175.24 L 5962.1,3916.82 L 5972.09,3899.5 L 6419.72,4157.92 Z " />
<path stroke="transparent" fill="#000000" transform="matrix(0.0666667 0 0 0.0666667 -255.425 -188)" d="M 6382.11,2973.89 L 6392.11,2991.21 L 5977.09,3230.81 L 5957.09,3219.27 L 6382.11,2973.89 Z " />
<path stroke="transparent" fill="#000000" transform="matrix(0.0666667 0 0 0.0666667 -255.425 -188)" d="M 6418.11,3036.25 L 6428.11,3053.57 L 6044.09,3275.27 L 6034.1,3257.95 L 6418.11,3036.25 Z " />
<path stroke="transparent" fill="#000000" transform="matrix(0.0666667 0 0 0.0666667 -255.425 -188)" d="M 3893.68,5033.65 L 3883.68,5016.33 L 4408.3,4713.45 L 4408.3,4736.54 L 3893.68,5033.65 Z " />
<path stroke="transparent" fill="#000000" transform="matrix(0.0666667 0 0 0.0666667 -255.425 -188)" d="M 4408.3,4736.54 L 4408.3,4713.45 L 4840.31,4962.85 L 4830.31,4980.17 L 4408.3,4736.54 Z " />
<path stroke="transparent" fill="#000000" transform="matrix(0.0666667 0 0 0.0666667 -255.425 -188)" d="M 5025.54,4980.17 L 5015.54,4962.85 L 5437.47,4719.22 L 5447.47,4724.99 L 5447.47,4736.54 L 5025.54,4980.17 Z " />
<path stroke="transparent" fill="#000000" transform="matrix(0.0666667 0 0 0.0666667 -255.425 -188)" d="M 5004.96,5722.56 L 5014.96,5705.24 L 5452.47,5957.86 L 5442.47,5975.18 L 5004.96,5722.56 Z " />
<path stroke="transparent" fill="#000000" transform="matrix(0.0666667 0 0 0.0666667 -255.425 -188)" d="M 5040.96,5660.22 L 5050.96,5642.9 L 5488.47,5895.52 L 5478.47,5912.84 L 5040.96,5660.22 Z " />
<path stroke="transparent" fill="#000000" transform="matrix(0.0666667 0 0 0.0666667 -255.425 -188)" d="M 5457.47,6524.94 L 5437.47,6524.94 L 5437.47,5919.19 L 5457.47,5930.73 L 5457.47,6524.94 Z " />
<path stroke="transparent" fill="#000000" transform="matrix(0.0666667 0 0 0.0666667 -255.425 -188)" d="M 5457.47,5930.73 L 5437.47,5919.19 L 5862.49,5673.81 L 5872.49,5691.13 L 5457.47,5930.73 Z " />
<path stroke="transparent" fill="#000000" transform="matrix(0.0666667 0 0 0.0666667 -255.425 -188)" d="M 5977.09,5519.8 L 5957.09,5519.8 L 5957.09,5030.76 L 5967.09,5024.99 L 5977.09,5030.76 L 5977.09,5519.8 Z " />
</svg>
