<?xml version="1.0" standalone="no" ?>
<!DOCTYPE svg PUBLIC "-//W3C//DTD SVG 1.1//EN" "http://www.w3.org/Graphics/SVG/1.1/DTD/svg11.dtd">
<svg width="347px" height="248px" viewBox="0 0 347 248" style="background-color: #ffffff00" xmlns="http://www.w3.org/2000/svg" xmlns:xlink="http://www.w3.org/1999/xlink" version="1.1" >
<text x="0" y="0" stroke="transparent" fill="#000000" transform="matrix(0.0833333 0 0 0.0833333 232.453 169.087)" style="font:normal normal normal 200px 'Arial'" >
N</text>
<text x="0" y="0" stroke="transparent" fill="#000000" transform="matrix(0.0833333 0 0 0.0833333 188.792 244.168)" style="font:normal normal normal 200px 'Arial'" >
O</text>
<text x="0" y="0" stroke="transparent" fill="#000000" transform="matrix(0.0833333 0 0 0.0833333 145.756 119.249)" style="font:normal normal normal 200px 'Arial'" >
N</text>
<text x="0" y="0" stroke="transparent" fill="#000000" transform="matrix(0.0833333 0 0 0.0833333 188.417 44.168)" style="font:normal normal normal 200px 'Arial'" >
O</text>
<text x="0" y="0" stroke="transparent" fill="#000000" transform="matrix(0.0833333 0 0 0.0833333 216.181 152.695)" style="font:normal normal normal 200px 'Arial'" >
S</text>
<text x="0" y="0" stroke="transparent" fill="#000000" transform="matrix(0.0833333 0 0 0.0833333 183.74 171.506)" style="font:normal normal normal 200px 'Arial'" >
S</text>
<text x="0" y="0" stroke="transparent" fill="#000000" transform="matrix(0.0833333 0 0 0.0833333 318.461 118.925)" style="font:normal normal normal 200px 'Arial'" >
OH</text>
<text x="0" y="0" stroke="transparent" fill="#000000" transform="matrix(0.0833333 0 0 0.0833333 106.566 17.7422)" style="font:normal normal normal 200px 'Arial'" >
OH</text>
<path stroke="transparent" fill="#000000" transform="matrix(0.0833333 0 0 0.0833333 -270.875 -241)" d="M 6217.13,4915.05 L 6227.1,4897.71 L 6637.09,5133.4 L 6627.12,5150.74 L 6217.13,4915.05 Z " />
<path stroke="transparent" fill="#000000" transform="matrix(0.0833333 0 0 0.0833333 -270.875 -241)" d="M 5592.9,5155.56 L 5592.86,5132.47 L 5996.84,4898.21 L 6006.88,4915.52 L 5592.9,5155.56 Z " />
<path stroke="transparent" fill="#000000" transform="matrix(0.0833333 0 0 0.0833333 -270.875 -241)" d="M 5639.8,5638.76 L 5619.8,5638.8 L 5618.84,5123.18 L 5638.84,5123.14 L 5639.8,5638.76 Z " />
<path stroke="transparent" fill="#000000" transform="matrix(0.0833333 0 0 0.0833333 -270.875 -241)" d="M 5567.8,5638.89 L 5547.8,5638.93 L 5546.84,5123.31 L 5566.84,5123.28 L 5567.8,5638.89 Z " />
<path stroke="transparent" fill="#000000" transform="matrix(0.0833333 0 0 0.0833333 -270.875 -241)" d="M 5071.58,4855.87 L 5072.7,4844.99 L 5130.96,4866.94 L 5592.86,5132.47 L 5592.9,5155.56 L 5071.58,4855.87 Z " />
<path stroke="transparent" fill="#000000" transform="matrix(0.0833333 0 0 0.0833333 -270.875 -241)" d="M 4498.62,5043.23 L 4506.21,5019.7 L 5062.69,4837.74 L 5072.7,4844.99 L 5071.58,4855.87 L 4498.62,5043.23 Z " />
<path stroke="transparent" fill="#000000" transform="matrix(0.0833333 0 0 0.0833333 -270.875 -241)" d="M 4143.38,4556.21 L 4148.84,4546.72 L 4161.2,4546.69 L 4506.21,5019.7 L 4498.62,5043.23 L 4143.38,4556.21 Z " />
<path stroke="transparent" fill="#000000" transform="matrix(0.0833333 0 0 0.0833333 -270.875 -241)" d="M 3545.24,4494.47 L 3558.78,4475.76 L 4144.12,4536.18 L 4148.84,4546.72 L 4143.38,4556.21 L 3545.24,4494.47 Z " />
<path stroke="transparent" fill="#000000" transform="matrix(0.0833333 0 0 0.0833333 -270.875 -241)" d="M 3599.72,4427.71 L 3601.77,4407.82 L 4115.9,4460.88 L 4113.85,4480.78 L 3599.72,4427.71 Z " />
<path stroke="transparent" fill="#000000" transform="matrix(0.0833333 0 0 0.0833333 -270.875 -241)" d="M 3295.45,3936.26 L 3318.42,3938.63 L 3558.78,4475.76 L 3545.24,4494.47 L 3295.45,3936.26 Z " />
<path stroke="transparent" fill="#000000" transform="matrix(0.0833333 0 0 0.0833333 -270.875 -241)" d="M 3653.98,3440.84 L 3663.42,3461.92 L 3318.42,3938.63 L 3295.45,3936.26 L 3653.98,3440.84 Z " />
<path stroke="transparent" fill="#000000" transform="matrix(0.0833333 0 0 0.0833333 -270.875 -241)" d="M 3684.56,3521.4 L 3700.76,3533.13 L 3397.74,3951.85 L 3381.54,3940.12 L 3684.56,3521.4 Z " />
<path stroke="transparent" fill="#000000" transform="matrix(0.0833333 0 0 0.0833333 -270.875 -241)" d="M 4262.3,3503.62 L 4248.76,3522.33 L 3663.42,3461.92 L 3653.98,3440.84 L 4262.3,3503.62 Z " />
<path stroke="transparent" fill="#000000" transform="matrix(0.0833333 0 0 0.0833333 -270.875 -241)" d="M 4507.68,4051.98 L 4500.6,4060.65 L 4489.11,4059.46 L 4248.76,3522.33 L 4262.3,3503.62 L 4507.68,4051.98 Z " />
<path stroke="transparent" fill="#000000" transform="matrix(0.0833333 0 0 0.0833333 -270.875 -241)" d="M 4489.11,4059.46 L 4500.6,4060.65 L 4503.99,4073.01 L 4161.2,4546.69 L 4148.84,4546.72 L 4144.12,4536.18 L 4489.11,4059.46 Z " />
<path stroke="transparent" fill="#000000" transform="matrix(0.0833333 0 0 0.0833333 -270.875 -241)" d="M 4982.91,4153.31 L 4946.04,4267.51 L 4503.99,4073.01 L 4500.6,4060.65 L 4507.68,4051.98 L 4982.91,4153.31 Z " />
<path stroke="transparent" fill="#000000" transform="matrix(0.0833333 0 0 0.0833333 -270.875 -241)" d="M 5061.8,4362.34 L 5081.8,4362.3 L 5082.68,4834.25 L 5072.7,4844.99 L 5062.69,4837.74 L 5061.8,4362.34 Z " />
<path stroke="transparent" fill="#000000" transform="matrix(0.0833333 0 0 0.0833333 -270.875 -241)" d="M 5590.61,3932.47 L 5590.65,3955.56 L 5180.3,4193.5 L 5170.27,4176.2 L 5590.61,3932.47 Z " />
<path stroke="transparent" fill="#000000" transform="matrix(0.0833333 0 0 0.0833333 -270.875 -241)" d="M 5543.73,3463.93 L 5563.73,3463.9 L 5564.67,3964.85 L 5544.67,3964.89 L 5543.73,3463.93 Z " />
<path stroke="transparent" fill="#000000" transform="matrix(0.0833333 0 0 0.0833333 -270.875 -241)" d="M 5615.73,3463.8 L 5635.73,3463.76 L 5636.67,3964.71 L 5616.67,3964.75 L 5615.73,3463.8 Z " />
<path stroke="transparent" fill="#000000" transform="matrix(0.0833333 0 0 0.0833333 -270.875 -241)" d="M 6110.79,4231.49 L 6110.81,4243.04 L 6096.5,4246.35 L 5590.65,3955.56 L 5590.61,3932.47 L 6110.79,4231.49 Z " />
<path stroke="transparent" fill="#000000" transform="matrix(0.0833333 0 0 0.0833333 -270.875 -241)" d="M 6100.92,4305.23 L 6110.81,4243.04 L 6120.82,4248.8 L 6121.74,4740.35 L 6101.74,4740.39 L 6100.92,4305.23 Z " />
<path stroke="transparent" fill="#000000" transform="matrix(0.0833333 0 0 0.0833333 -270.875 -241)" d="M 6011.83,4578.25 L 5904.28,4525.01 L 6096.5,4246.35 L 6110.81,4243.04 L 6100.92,4305.23 L 6011.83,4578.25 Z " />
<path stroke="transparent" fill="#000000" transform="matrix(0.0833333 0 0 0.0833333 -270.875 -241)" d="M 5614.72,4829.8 L 5604.69,4812.49 L 5808.55,4694.29 L 5818.58,4711.59 L 5614.72,4829.8 Z " />
<path stroke="transparent" fill="#000000" transform="matrix(0.0833333 0 0 0.0833333 -270.875 -241)" d="M 5429.27,4806.38 L 5422.05,4926.16 L 5130.96,4866.94 L 5072.7,4844.99 L 5082.68,4834.25 L 5429.27,4806.38 Z " />
<path stroke="transparent" fill="#000000" transform="matrix(0.0833333 0 0 0.0833333 -270.875 -241)" d="M 6629.84,3930.52 L 6629.88,3953.62 L 6120.82,4248.8 L 6110.81,4243.04 L 6110.79,4231.49 L 6629.84,3930.52 Z " />
<path stroke="transparent" fill="#000000" transform="matrix(0.0833333 0 0 0.0833333 -270.875 -241)" d="M 7062.3,4179.13 L 7052.34,4196.47 L 6629.88,3953.62 L 6629.84,3930.52 L 7062.3,4179.13 Z " />
<path stroke="transparent" fill="#000000" transform="matrix(0.0833333 0 0 0.0833333 -270.875 -241)" d="M 4488.32,3088.96 L 4585.53,3159.32 L 4571.9,3174.14 L 4478.49,3106.54 L 4488.32,3088.96 Z " />
<path stroke="transparent" fill="#000000" transform="matrix(0.0833333 0 0 0.0833333 -270.875 -241)" d="M 4459.84,3139.93 L 4546.02,3202.3 L 4532.4,3217.12 L 4450.02,3157.51 L 4459.84,3139.93 Z " />
<path stroke="transparent" fill="#000000" transform="matrix(0.0833333 0 0 0.0833333 -270.875 -241)" d="M 4431.36,3190.89 L 4506.52,3245.28 L 4492.89,3260.1 L 4421.54,3208.47 L 4431.36,3190.89 Z " />
<path stroke="transparent" fill="#000000" transform="matrix(0.0833333 0 0 0.0833333 -270.875 -241)" d="M 4402.88,3241.85 L 4467.01,3288.26 L 4453.38,3303.08 L 4393.06,3259.43 L 4402.88,3241.85 Z " />
<path stroke="transparent" fill="#000000" transform="matrix(0.0833333 0 0 0.0833333 -270.875 -241)" d="M 4374.41,3292.81 L 4427.5,3331.24 L 4413.87,3346.06 L 4364.58,3310.39 L 4374.41,3292.81 Z " />
<path stroke="transparent" fill="#000000" transform="matrix(0.0833333 0 0 0.0833333 -270.875 -241)" d="M 4345.93,3343.77 L 4388,3374.22 L 4374.37,3389.04 L 4336.11,3361.35 L 4345.93,3343.77 Z " />
<path stroke="transparent" fill="#000000" transform="matrix(0.0833333 0 0 0.0833333 -270.875 -241)" d="M 4317.45,3394.74 L 4348.49,3417.2 L 4334.86,3432.02 L 4307.63,3412.32 L 4317.45,3394.74 Z " />
<path stroke="transparent" fill="#000000" transform="matrix(0.0833333 0 0 0.0833333 -270.875 -241)" d="M 4288.97,3445.7 L 4308.98,3460.18 L 4295.35,3475 L 4279.15,3463.28 L 4288.97,3445.7 Z " />
</svg>
