<?xml version="1.0" standalone="no" ?>
<!DOCTYPE svg PUBLIC "-//W3C//DTD SVG 1.1//EN" "http://www.w3.org/Graphics/SVG/1.1/DTD/svg11.dtd">
<svg width="230px" height="177px" viewBox="0 0 230 177" style="background-color: #ffffff00" xmlns="http://www.w3.org/2000/svg" xmlns:xlink="http://www.w3.org/1999/xlink" version="1.1" >
<text x="0" y="0" stroke="transparent" fill="#000000" transform="matrix(0.0666667 0 0 0.0666667 186.351 74.0731)" style="font:normal normal normal 200px 'Arial'" >
O</text>
<text x="0" y="0" stroke="transparent" fill="#000000" transform="matrix(0.0666667 0 0 0.0666667 151.71 14.0718)" style="font:normal normal normal 200px 'Arial'" >
O</text>
<text x="0" y="0" stroke="transparent" fill="#000000" transform="matrix(0.0666667 0 0 0.0666667 3.51531 134.072)" style="font:normal normal normal 200px 'Arial'" >
HO</text>
<text x="0" y="0" stroke="transparent" fill="#000000" transform="matrix(0.0666667 0 0 0.0666667 82.4284 174.073)" style="font:normal normal normal 200px 'Arial'" >
OH</text>
<path stroke="transparent" fill="#000000" transform="matrix(0.0666667 0 0 0.0666667 -233.859 -177)" d="M 6478.76,3643.29 L 6468.76,3625.97 L 6895.79,3379.43 L 6905.79,3396.75 L 6478.76,3643.29 Z " />
<path stroke="transparent" fill="#000000" transform="matrix(0.0666667 0 0 0.0666667 -233.859 -177)" d="M 5861.53,3399.64 L 5861.53,3376.54 L 6293.52,3625.96 L 6283.52,3643.28 L 5861.53,3399.64 Z " />
<path stroke="transparent" fill="#000000" transform="matrix(0.0666667 0 0 0.0666667 -233.859 -177)" d="M 5815.53,2907.91 L 5835.53,2907.91 L 5835.53,3408.88 L 5815.53,3408.88 L 5815.53,2907.91 Z " />
<path stroke="transparent" fill="#000000" transform="matrix(0.0666667 0 0 0.0666667 -233.859 -177)" d="M 5887.53,2907.91 L 5907.53,2907.91 L 5907.53,3408.88 L 5887.53,3408.88 L 5887.53,2907.91 Z " />
<path stroke="transparent" fill="#000000" transform="matrix(0.0666667 0 0 0.0666667 -233.859 -177)" d="M 5351.92,3693.87 L 5341.92,3688.1 L 5341.92,3676.55 L 5861.53,3376.54 L 5861.53,3399.64 L 5351.92,3693.87 Z " />
<path stroke="transparent" fill="#000000" transform="matrix(0.0666667 0 0 0.0666667 -233.859 -177)" d="M 4822.31,3399.64 L 4822.31,3376.54 L 5341.92,3676.55 L 5341.92,3688.1 L 5331.92,3693.87 L 4822.31,3399.64 Z " />
<path stroke="transparent" fill="#000000" transform="matrix(0.0666667 0 0 0.0666667 -233.859 -177)" d="M 4817.3,3479.89 L 4827.3,3462.57 L 5274.92,3721.01 L 5264.92,3738.33 L 4817.3,3479.89 Z " />
<path stroke="transparent" fill="#000000" transform="matrix(0.0666667 0 0 0.0666667 -233.859 -177)" d="M 4312.69,3693.83 L 4292.69,3682.28 L 4822.31,3376.54 L 4822.31,3399.64 L 4312.69,3693.83 Z " />
<path stroke="transparent" fill="#000000" transform="matrix(0.0666667 0 0 0.0666667 -233.859 -177)" d="M 4312.69,4282.3 L 4302.69,4288.07 L 4292.69,4282.3 L 4292.69,3682.28 L 4312.69,3693.83 L 4312.69,4282.3 Z " />
<path stroke="transparent" fill="#000000" transform="matrix(0.0666667 0 0 0.0666667 -233.859 -177)" d="M 4384.7,4246.5 L 4364.7,4246.5 L 4364.7,3729.63 L 4384.7,3729.63 L 4384.7,4246.5 Z " />
<path stroke="transparent" fill="#000000" transform="matrix(0.0666667 0 0 0.0666667 -233.859 -177)" d="M 3880.65,4543.27 L 3870.65,4525.95 L 4292.69,4282.3 L 4302.69,4288.07 L 4302.69,4299.62 L 3880.65,4543.27 Z " />
<path stroke="transparent" fill="#000000" transform="matrix(0.0666667 0 0 0.0666667 -233.859 -177)" d="M 4822.31,4576.53 L 4822.31,4588.08 L 4812.31,4593.85 L 4302.69,4299.62 L 4302.69,4288.07 L 4312.69,4282.3 L 4822.31,4576.53 Z " />
<path stroke="transparent" fill="#000000" transform="matrix(0.0666667 0 0 0.0666667 -233.859 -177)" d="M 4832.31,5082.92 L 4812.31,5082.92 L 4812.31,4593.85 L 4822.31,4588.08 L 4832.31,4593.85 L 4832.31,5082.92 Z " />
<path stroke="transparent" fill="#000000" transform="matrix(0.0666667 0 0 0.0666667 -233.859 -177)" d="M 5331.92,4282.3 L 5351.92,4293.84 L 4832.31,4593.85 L 4822.31,4588.08 L 4822.31,4576.53 L 5331.92,4282.3 Z " />
<path stroke="transparent" fill="#000000" transform="matrix(0.0666667 0 0 0.0666667 -233.859 -177)" d="M 5264.92,4237.84 L 5274.92,4255.16 L 4827.31,4513.6 L 4817.31,4496.28 L 5264.92,4237.84 Z " />
<path stroke="transparent" fill="#000000" transform="matrix(0.0666667 0 0 0.0666667 -233.859 -177)" d="M 5351.92,4293.84 L 5331.92,4282.3 L 5331.92,3693.87 L 5341.92,3688.1 L 5351.92,3693.87 L 5351.92,4293.84 Z " />
</svg>
