<?xml version="1.0" standalone="no" ?>
<!DOCTYPE svg PUBLIC "-//W3C//DTD SVG 1.1//EN" "http://www.w3.org/Graphics/SVG/1.1/DTD/svg11.dtd">
<svg width="131px" height="187px" viewBox="0 0 131 187" style="background-color: #ffffff00" xmlns="http://www.w3.org/2000/svg" xmlns:xlink="http://www.w3.org/1999/xlink" version="1.1" >
<path stroke="transparent" fill="#000000" transform="matrix(0.0833333 0 0 0.0833333 -244.792 -78)" d="M 4436.98,2604.79 L 4458,2588.38 L 4468,2591.06 L 4162.85,3119.61 L 4153.15,3096.39 L 4436.98,2604.79 Z " />
<path stroke="transparent" fill="#000000" transform="matrix(0.0833333 0 0 0.0833333 -244.792 -78)" d="M 3881.2,2763.64 L 3880.97,2742.9 L 4448,2580.84 L 4458,2588.38 L 4436.98,2604.79 L 3881.2,2763.64 Z " />
<path stroke="transparent" fill="#000000" transform="matrix(0.0833333 0 0 0.0833333 -244.792 -78)" d="M 3305.53,2612.75 L 3300.69,2601.14 L 3310.69,2593.42 L 3527.57,2650.27 L 3527.57,2670.95 L 3305.53,2612.75 L 3305.53,2612.75 Z " />
<path stroke="transparent" fill="#000000" transform="matrix(0.0833333 0 0 0.0833333 -244.792 -78)" d="M 3880.97,2742.9 L 3881.2,2763.64 L 3627.57,2697.16 L 3627.57,2676.48 L 3880.97,2742.9 L 3880.97,2742.9 Z " />
<path stroke="transparent" fill="#000000" transform="matrix(0.0833333 0 0 0.0833333 -244.792 -78)" d="M 3021.64,3104.34 L 2979.59,3137.15 L 3290.69,2598.46 L 3300.69,2601.14 L 3305.53,2612.75 L 3021.64,3104.34 Z " />
<path stroke="transparent" fill="#000000" transform="matrix(0.0833333 0 0 0.0833333 -244.792 -78)" d="M 3567.57,2948.37 L 3577.57,2955.92 L 3577.69,2966.28 L 2979.59,3137.15 L 3021.64,3104.34 L 3567.57,2948.37 Z " />
<path stroke="transparent" fill="#000000" transform="matrix(0.0833333 0 0 0.0833333 -244.792 -78)" d="M 4153.15,3096.39 L 4162.85,3119.61 L 3577.69,2966.28 L 3577.57,2955.92 L 3587.57,2948.2 L 4153.15,3096.39 Z " />
<path stroke="transparent" fill="#000000" transform="matrix(0.0833333 0 0 0.0833333 -244.792 -78)" d="M 3290.69,1995.19 L 3310.69,2007.09 L 3310.69,2593.42 L 3300.69,2601.14 L 3290.69,2598.46 L 3290.69,1995.19 Z " />
<path stroke="transparent" fill="#000000" transform="matrix(0.0833333 0 0 0.0833333 -244.792 -78)" d="M 4448,1994.16 L 4468,1982.61 L 4468,2591.06 L 4458,2588.38 L 4448,2580.84 L 4448,1994.16 Z " />
<path stroke="transparent" fill="#000000" transform="matrix(0.0833333 0 0 0.0833333 -244.792 -78)" d="M 3898.58,1665.01 L 3908.5,1671 L 3885.99,1694.61 L 3310.69,2007.09 L 3290.69,1995.19 L 3898.58,1665.01 Z " />
<path stroke="transparent" fill="#000000" transform="matrix(0.0833333 0 0 0.0833333 -244.792 -78)" d="M 3912.82,1685.04 L 3908.5,1671 L 3918.58,1665.27 L 4468,1982.61 L 4448,1994.16 L 3912.82,1685.04 Z " />
<text x="0" y="0" stroke="transparent" fill="#000000" transform="matrix(0.0833333 0 0 0.0833333 79.2384 17.7543)" style="font:normal normal normal 200px 'Arial'" >
I</text>
<path stroke="transparent" fill="#000000" transform="matrix(0.0833333 0 0 0.0833333 -244.792 -78)" d="M 3904.82,1188.24 L 3924.82,1188.5 L 3918.58,1665.27 L 3908.5,1671 L 3898.58,1665.01 L 3904.82,1188.24 Z " />
<path stroke="transparent" fill="#000000" transform="matrix(0.0833333 0 0 0.0833333 -244.792 -78)" d="M 3567.57,2353.63 L 3587.57,2358.21 L 3587.57,2948.2 L 3577.57,2955.92 L 3567.57,2948.37 L 3567.57,2353.63 Z " />
<path stroke="transparent" fill="#000000" transform="matrix(0.0833333 0 0 0.0833333 -244.792 -78)" d="M 3885.99,1694.61 L 3908.5,1671 L 3912.82,1685.04 L 3587.57,2358.21 L 3567.57,2353.63 L 3885.99,1694.61 Z " />
</svg>
