<?xml version="1.0" standalone="no" ?>
<!DOCTYPE svg PUBLIC "-//W3C//DTD SVG 1.1//EN" "http://www.w3.org/Graphics/SVG/1.1/DTD/svg11.dtd">
<svg width="521px" height="173px" viewBox="0 0 521 173" style="background-color: #ffffff00" xmlns="http://www.w3.org/2000/svg" xmlns:xlink="http://www.w3.org/1999/xlink" version="1.1" >
<text x="0" y="0" stroke="transparent" fill="#000000" transform="matrix(0.0833333 0 0 0.0833333 146.085 19.0471)" style="font:normal normal normal 200px 'Arial'" >
O</text>
<text x="0" y="0" stroke="transparent" fill="#000000" transform="matrix(0.0833333 0 0 0.0833333 233.345 18.0774)" style="font:normal normal normal 200px 'Arial'" >
O</text>
<text x="0" y="0" stroke="transparent" fill="#000000" transform="matrix(0.0833333 0 0 0.0833333 233.345 118.853)" style="font:normal normal normal 200px 'Arial'" >
OH</text>
<text x="0" y="0" stroke="transparent" fill="#000000" transform="matrix(0.0833333 0 0 0.0833333 146.855 168.853)" style="font:normal normal normal 200px 'Arial'" >
OH</text>
<text x="0" y="0" stroke="transparent" fill="#000000" transform="matrix(0.0833333 0 0 0.0833333 46.0124 118.853)" style="font:normal normal normal 200px 'Arial'" >
HO</text>
<text x="0" y="0" stroke="transparent" fill="#000000" transform="matrix(0.0833333 0 0 0.0833333 3.73967 43.9501)" style="font:normal normal normal 200px 'Arial'" >
HO</text>
<text x="0" y="0" stroke="transparent" fill="#000000" transform="matrix(0.0833333 0 0 0.0833333 492.224 119.823)" style="font:normal normal normal 200px 'Arial'" >
OH</text>
<path stroke="transparent" fill="#000000" transform="matrix(0.0833333 0 0 0.0833333 -175.5 -285)" d="M 4032.01,3637.07 L 4042.02,3619.76 L 4453.02,3857.51 L 4453.6,3869.4 L 4443.6,3875.17 L 4032.01,3637.07 Z " />
<path stroke="transparent" fill="#000000" transform="matrix(0.0833333 0 0 0.0833333 -175.5 -285)" d="M 4463.6,4475.17 L 4443.6,4463.63 L 4443.6,3875.17 L 4453.6,3869.4 L 4463.6,3875.76 L 4463.6,4475.17 Z " />
<path stroke="transparent" fill="#000000" transform="matrix(0.0833333 0 0 0.0833333 -175.5 -285)" d="M 4854.52,3565.27 L 4915.13,3668.84 L 4463.6,3875.76 L 4453.6,3869.4 L 4453.02,3857.51 L 4854.52,3565.27 Z " />
<path stroke="transparent" fill="#000000" transform="matrix(0.0833333 0 0 0.0833333 -175.5 -285)" d="M 3421.13,3875.22 L 3411.13,3869.4 L 3411.72,3857.56 L 3832.15,3618.65 L 3842.04,3636.04 L 3421.13,3875.22 Z " />
<path stroke="transparent" fill="#000000" transform="matrix(0.0833333 0 0 0.0833333 -175.5 -285)" d="M 3947.66,4773.63 L 3937.02,4768.24 L 3936.97,4756.71 L 4443.6,4463.63 L 4463.6,4475.17 L 3947.66,4773.63 Z " />
<path stroke="transparent" fill="#000000" transform="matrix(0.0833333 0 0 0.0833333 -175.5 -285)" d="M 4920.43,4663.49 L 4861.54,4768.04 L 4845.21,4756.28 L 4901.91,4655.62 L 4920.43,4663.49 Z " />
<path stroke="transparent" fill="#000000" transform="matrix(0.0833333 0 0 0.0833333 -175.5 -285)" d="M 4863.82,4639.43 L 4811.63,4732.1 L 4795.3,4720.34 L 4845.3,4631.56 L 4863.82,4639.43 Z " />
<path stroke="transparent" fill="#000000" transform="matrix(0.0833333 0 0 0.0833333 -175.5 -285)" d="M 4807.21,4615.38 L 4761.72,4696.15 L 4745.39,4684.39 L 4788.69,4607.51 L 4807.21,4615.38 Z " />
<path stroke="transparent" fill="#000000" transform="matrix(0.0833333 0 0 0.0833333 -175.5 -285)" d="M 4750.61,4591.33 L 4711.81,4660.21 L 4695.48,4648.45 L 4732.08,4583.46 L 4750.61,4591.33 Z " />
<path stroke="transparent" fill="#000000" transform="matrix(0.0833333 0 0 0.0833333 -175.5 -285)" d="M 4694,4567.27 L 4661.9,4624.26 L 4645.57,4612.5 L 4675.48,4559.4 L 4694,4567.27 Z " />
<path stroke="transparent" fill="#000000" transform="matrix(0.0833333 0 0 0.0833333 -175.5 -285)" d="M 4637.39,4543.22 L 4611.99,4588.32 L 4595.66,4576.56 L 4618.87,4535.35 L 4637.39,4543.22 Z " />
<path stroke="transparent" fill="#000000" transform="matrix(0.0833333 0 0 0.0833333 -175.5 -285)" d="M 4580.78,4519.17 L 4562.08,4552.37 L 4545.75,4540.61 L 4562.26,4511.3 L 4580.78,4519.17 Z " />
<path stroke="transparent" fill="#000000" transform="matrix(0.0833333 0 0 0.0833333 -175.5 -285)" d="M 4524.17,4495.11 L 4512.17,4516.43 L 4495.84,4504.67 L 4505.65,4487.24 L 4524.17,4495.11 Z " />
<path stroke="transparent" fill="#000000" transform="matrix(0.0833333 0 0 0.0833333 -175.5 -285)" d="M 5510.03,3857.83 L 5509.9,3880.98 L 5078.63,3626.33 L 5088.8,3609.11 L 5510.03,3857.83 Z " />
<path stroke="transparent" fill="#000000" transform="matrix(0.0833333 0 0 0.0833333 -175.5 -285)" d="M 3421.13,4463.58 L 3401.13,4475.22 L 3401.13,3875.59 L 3411.13,3869.4 L 3421.13,3875.22 L 3421.13,4463.58 Z " />
<path stroke="transparent" fill="#000000" transform="matrix(0.0833333 0 0 0.0833333 -175.5 -285)" d="M 2841.77,3600.77 L 2939.3,3519.1 L 3411.72,3857.56 L 3411.13,3869.4 L 3401.13,3875.59 L 2841.77,3600.77 Z " />
<path stroke="transparent" fill="#000000" transform="matrix(0.0833333 0 0 0.0833333 -175.5 -285)" d="M 4004.63,5262.17 L 3884.64,5264.01 L 3926.56,4773.8 L 3937.02,4768.24 L 3947.66,4773.63 L 4004.63,5262.17 Z " />
<path stroke="transparent" fill="#000000" transform="matrix(0.0833333 0 0 0.0833333 -175.5 -285)" d="M 3401.13,4475.22 L 3421.13,4463.58 L 3936.97,4756.71 L 3937.02,4768.24 L 3926.56,4773.8 L 3401.13,4475.22 Z " />
<path stroke="transparent" fill="#000000" transform="matrix(0.0833333 0 0 0.0833333 -175.5 -285)" d="M 6028.77,3559.08 L 6028.97,3582.05 L 5509.9,3880.98 L 5510.03,3857.83 L 6028.77,3559.08 Z " />
<path stroke="transparent" fill="#000000" transform="matrix(0.0833333 0 0 0.0833333 -175.5 -285)" d="M 3003.19,4768.04 L 2944.3,4663.49 L 2962.82,4655.62 L 3019.52,4756.28 L 3003.19,4768.04 Z " />
<path stroke="transparent" fill="#000000" transform="matrix(0.0833333 0 0 0.0833333 -175.5 -285)" d="M 3053.1,4732.1 L 3000.91,4639.43 L 3019.43,4631.56 L 3069.43,4720.33 L 3053.1,4732.1 Z " />
<path stroke="transparent" fill="#000000" transform="matrix(0.0833333 0 0 0.0833333 -175.5 -285)" d="M 3103.01,4696.15 L 3057.51,4615.38 L 3076.04,4607.51 L 3119.34,4684.39 L 3103.01,4696.15 Z " />
<path stroke="transparent" fill="#000000" transform="matrix(0.0833333 0 0 0.0833333 -175.5 -285)" d="M 3152.92,4660.21 L 3114.12,4591.33 L 3132.64,4583.46 L 3169.25,4648.45 L 3152.92,4660.21 Z " />
<path stroke="transparent" fill="#000000" transform="matrix(0.0833333 0 0 0.0833333 -175.5 -285)" d="M 3202.83,4624.26 L 3170.73,4567.27 L 3189.25,4559.4 L 3219.16,4612.5 L 3202.83,4624.26 Z " />
<path stroke="transparent" fill="#000000" transform="matrix(0.0833333 0 0 0.0833333 -175.5 -285)" d="M 3252.74,4588.32 L 3227.34,4543.22 L 3245.86,4535.35 L 3269.07,4576.56 L 3252.74,4588.32 Z " />
<path stroke="transparent" fill="#000000" transform="matrix(0.0833333 0 0 0.0833333 -175.5 -285)" d="M 3302.65,4552.37 L 3283.95,4519.17 L 3302.47,4511.3 L 3318.98,4540.61 L 3302.65,4552.37 Z " />
<path stroke="transparent" fill="#000000" transform="matrix(0.0833333 0 0 0.0833333 -175.5 -285)" d="M 3352.56,4516.43 L 3340.56,4495.11 L 3359.08,4487.24 L 3368.89,4504.67 L 3352.56,4516.43 Z " />
<path stroke="transparent" fill="#000000" transform="matrix(0.0833333 0 0 0.0833333 -175.5 -285)" d="M 2470.21,3823.08 L 2459.95,3805.91 L 2939.3,3519.1 L 2841.77,3600.77 L 2470.21,3823.08 Z " />
<path stroke="transparent" fill="#000000" transform="matrix(0.0833333 0 0 0.0833333 -175.5 -285)" d="M 6547.72,3846.33 L 6547.85,3857.84 L 6537.85,3863.73 L 6028.97,3582.05 L 6028.77,3559.08 L 6547.72,3846.33 Z " />
<path stroke="transparent" fill="#000000" transform="matrix(0.0833333 0 0 0.0833333 -175.5 -285)" d="M 7059.5,3547.51 L 7060.06,3570.34 L 6557.85,3863.58 L 6547.85,3857.84 L 6547.72,3846.33 L 7059.5,3547.51 Z " />
<path stroke="transparent" fill="#000000" transform="matrix(0.0833333 0 0 0.0833333 -175.5 -285)" d="M 7056.74,3631.5 L 7066.82,3648.77 L 6624.03,3907.31 L 6613.95,3890.04 L 7056.74,3631.5 Z " />
<path stroke="transparent" fill="#000000" transform="matrix(0.0833333 0 0 0.0833333 -175.5 -285)" d="M 6557.85,4451.96 L 6537.85,4463.72 L 6537.85,3863.73 L 6547.85,3857.84 L 6557.85,3863.58 L 6557.85,4451.96 Z " />
<path stroke="transparent" fill="#000000" transform="matrix(0.0833333 0 0 0.0833333 -175.5 -285)" d="M 7600.33,3828.56 L 7580.33,3840.71 L 7060.06,3570.34 L 7059.5,3547.51 L 7600.33,3828.56 Z " />
<path stroke="transparent" fill="#000000" transform="matrix(0.0833333 0 0 0.0833333 -175.5 -285)" d="M 7064.48,4733.69 L 7064.39,4756.53 L 6537.85,4463.72 L 6557.85,4451.96 L 7064.48,4733.69 Z " />
<path stroke="transparent" fill="#000000" transform="matrix(0.0833333 0 0 0.0833333 -175.5 -285)" d="M 7069.6,4655.38 L 7059.88,4672.86 L 6613.92,4424.86 L 6623.64,4407.38 L 7069.6,4655.38 Z " />
<path stroke="transparent" fill="#000000" transform="matrix(0.0833333 0 0 0.0833333 -175.5 -285)" d="M 7600.33,4452.38 L 7590.33,4457.84 L 7580.33,4451.91 L 7580.33,3840.71 L 7600.33,3828.56 L 7600.33,4452.38 Z " />
<path stroke="transparent" fill="#000000" transform="matrix(0.0833333 0 0 0.0833333 -175.5 -285)" d="M 7525.54,4413.47 L 7505.54,4413.47 L 7505.54,3880.05 L 7525.54,3880.05 L 7525.54,4413.47 Z " />
<path stroke="transparent" fill="#000000" transform="matrix(0.0833333 0 0 0.0833333 -175.5 -285)" d="M 7580.33,4451.91 L 7590.33,4457.84 L 7589.91,4469.46 L 7064.39,4756.53 L 7064.48,4733.69 L 7580.33,4451.91 Z " />
<path stroke="transparent" fill="#000000" transform="matrix(0.0833333 0 0 0.0833333 -175.5 -285)" d="M 8006.16,4713.58 L 7995.33,4730.39 L 7589.91,4469.46 L 7590.33,4457.84 L 7600.33,4452.38 L 8006.16,4713.58 Z " />
</svg>
