<?xml version="1.0" standalone="no" ?>
<!DOCTYPE svg PUBLIC "-//W3C//DTD SVG 1.1//EN" "http://www.w3.org/Graphics/SVG/1.1/DTD/svg11.dtd">
<svg width="460px" height="297px" viewBox="0 0 460 297" style="background-color: #ffffff00" xmlns="http://www.w3.org/2000/svg" xmlns:xlink="http://www.w3.org/1999/xlink" version="1.1" >
<text x="0" y="0" stroke="transparent" fill="#000000" transform="matrix(0.0833333 0 0 0.0833333 41.3751 142.965)" style="font:normal normal normal 200px 'Arial'" >
O</text>
<text x="0" y="0" stroke="transparent" fill="#000000" transform="matrix(0.0833333 0 0 0.0833333 127.977 292.964)" style="font:normal normal normal 200px 'Arial'" >
OH</text>
<text x="0" y="0" stroke="transparent" fill="#000000" transform="matrix(0.0833333 0 0 0.0833333 214.579 292.969)" style="font:normal normal normal 200px 'Arial'" >
O</text>
<text x="0" y="0" stroke="transparent" fill="#000000" transform="matrix(0.0833333 0 0 0.0833333 301.183 242.968)" style="font:normal normal normal 200px 'Arial'" >
O</text>
<text x="0" y="0" stroke="transparent" fill="#000000" transform="matrix(0.0833333 0 0 0.0833333 431.089 67.9625)" style="font:normal normal normal 200px 'Arial'" >
OH</text>
<text x="0" y="0" stroke="transparent" fill="#000000" transform="matrix(0.0833333 0 0 0.0833333 344.49 17.9611)" style="font:normal normal normal 200px 'Arial'" >
OH</text>
<text x="0" y="0" stroke="transparent" fill="#000000" transform="matrix(0.0833333 0 0 0.0833333 214.583 142.963)" style="font:normal normal normal 200px 'Arial'" >
O</text>
<path stroke="transparent" fill="#000000" transform="matrix(0.0833333 0 0 0.0833333 -187.25 -230)" d="M 3341.12,4686.02 L 3341.12,4697.57 L 3331.12,4703.35 L 2916.54,4463.99 L 2926.54,4446.67 L 3341.12,4686.02 Z " />
<path stroke="transparent" fill="#000000" transform="matrix(0.0833333 0 0 0.0833333 -187.25 -230)" d="M 3351.11,5291.8 L 3331.11,5303.34 L 3331.12,4703.35 L 3341.12,4697.57 L 3351.12,4703.35 L 3351.11,5291.8 Z " />
<path stroke="transparent" fill="#000000" transform="matrix(0.0833333 0 0 0.0833333 -187.25 -230)" d="M 3423.11,5256.01 L 3403.11,5256.01 L 3403.12,4739.14 L 3423.12,4739.14 L 3423.11,5256.01 Z " />
<path stroke="transparent" fill="#000000" transform="matrix(0.0833333 0 0 0.0833333 -187.25 -230)" d="M 3860.68,5586.05 L 3860.68,5597.6 L 3850.68,5603.37 L 3331.11,5303.34 L 3351.11,5291.8 L 3860.68,5586.05 Z " />
<path stroke="transparent" fill="#000000" transform="matrix(0.0833333 0 0 0.0833333 -187.25 -230)" d="M 3870.72,6092.4 L 3850.72,6092.4 L 3850.68,5603.37 L 3860.68,5597.6 L 3870.68,5603.37 L 3870.72,6092.4 Z " />
<path stroke="transparent" fill="#000000" transform="matrix(0.0833333 0 0 0.0833333 -187.25 -230)" d="M 4370.31,5291.81 L 4380.31,5297.59 L 4380.31,5309.14 L 3870.68,5603.37 L 3860.68,5597.6 L 3860.68,5586.05 L 4370.31,5291.81 Z " />
<path stroke="transparent" fill="#000000" transform="matrix(0.0833333 0 0 0.0833333 -187.25 -230)" d="M 4303.3,5247.36 L 4313.3,5264.68 L 3865.68,5523.11 L 3855.68,5505.79 L 4303.3,5247.36 Z " />
<path stroke="transparent" fill="#000000" transform="matrix(0.0833333 0 0 0.0833333 -187.25 -230)" d="M 4899.92,5586.04 L 4899.92,5609.13 L 4380.31,5309.14 L 4380.31,5297.59 L 4390.31,5291.81 L 4899.92,5586.04 Z " />
<path stroke="transparent" fill="#000000" transform="matrix(0.0833333 0 0 0.0833333 -187.25 -230)" d="M 4945.95,6092.46 L 4925.95,6092.47 L 4925.93,5576.8 L 4945.93,5576.8 L 4945.95,6092.46 Z " />
<path stroke="transparent" fill="#000000" transform="matrix(0.0833333 0 0 0.0833333 -187.25 -230)" d="M 4873.94,6092.47 L 4853.94,6092.47 L 4853.92,5576.8 L 4873.92,5576.8 L 4873.94,6092.47 Z " />
<path stroke="transparent" fill="#000000" transform="matrix(0.0833333 0 0 0.0833333 -187.25 -230)" d="M 5409.55,5291.8 L 5419.55,5297.58 L 5419.55,5309.12 L 4899.92,5609.13 L 4899.92,5586.04 L 5409.55,5291.8 Z " />
<path stroke="transparent" fill="#000000" transform="matrix(0.0833333 0 0 0.0833333 -187.25 -230)" d="M 5851.58,5535.48 L 5841.58,5552.8 L 5419.55,5309.12 L 5419.55,5297.58 L 5429.55,5291.8 L 5851.58,5535.48 Z " />
<path stroke="transparent" fill="#000000" transform="matrix(0.0833333 0 0 0.0833333 -187.25 -230)" d="M 6453.83,5288.95 L 6463.83,5306.27 L 6036.82,5552.81 L 6026.82,5535.49 L 6453.83,5288.95 Z " />
<path stroke="transparent" fill="#000000" transform="matrix(0.0833333 0 0 0.0833333 -187.25 -230)" d="M 5409.56,4703.35 L 5419.56,4697.58 L 5429.56,4703.35 L 5429.55,5291.8 L 5419.55,5297.58 L 5409.55,5291.8 L 5409.56,4703.35 Z " />
<path stroke="transparent" fill="#000000" transform="matrix(0.0833333 0 0 0.0833333 -187.25 -230)" d="M 5337.56,4739.14 L 5357.56,4739.14 L 5357.55,5256.01 L 5337.55,5256.01 L 5337.56,4739.14 Z " />
<path stroke="transparent" fill="#000000" transform="matrix(0.0833333 0 0 0.0833333 -187.25 -230)" d="M 5929.19,4391.8 L 5939.19,4397.57 L 5939.19,4409.12 L 5429.56,4703.35 L 5419.56,4697.58 L 5419.56,4686.03 L 5929.19,4391.8 Z " />
<path stroke="transparent" fill="#000000" transform="matrix(0.0833333 0 0 0.0833333 -187.25 -230)" d="M 6458.8,4686.02 L 6458.8,4709.11 L 5939.19,4409.12 L 5939.19,4397.57 L 5949.19,4391.8 L 6458.8,4686.02 Z " />
<path stroke="transparent" fill="#000000" transform="matrix(0.0833333 0 0 0.0833333 -187.25 -230)" d="M 6463.8,4605.76 L 6453.8,4623.09 L 6006.19,4364.66 L 6016.19,4347.34 L 6463.8,4605.76 Z " />
<path stroke="transparent" fill="#000000" transform="matrix(0.0833333 0 0 0.0833333 -187.25 -230)" d="M 6968.43,4391.78 L 6988.43,4403.33 L 6458.8,4709.11 L 6458.8,4686.02 L 6968.43,4391.78 Z " />
<path stroke="transparent" fill="#000000" transform="matrix(0.0833333 0 0 0.0833333 -187.25 -230)" d="M 6968.44,3803.33 L 6978.44,3797.56 L 6988.44,3803.33 L 6988.43,4403.33 L 6968.43,4391.78 L 6968.44,3803.33 Z " />
<path stroke="transparent" fill="#000000" transform="matrix(0.0833333 0 0 0.0833333 -187.25 -230)" d="M 6896.44,3839.12 L 6916.44,3839.12 L 6916.43,4355.99 L 6896.43,4355.99 L 6896.44,3839.12 Z " />
<path stroke="transparent" fill="#000000" transform="matrix(0.0833333 0 0 0.0833333 -187.25 -230)" d="M 7393.46,3546.4 L 7403.46,3563.72 L 6988.44,3803.33 L 6978.44,3797.56 L 6978.44,3786.01 L 7393.46,3546.4 Z " />
<path stroke="transparent" fill="#000000" transform="matrix(0.0833333 0 0 0.0833333 -187.25 -230)" d="M 6458.87,3509.08 L 6458.87,3497.53 L 6468.87,3491.76 L 6978.44,3786.01 L 6978.44,3797.56 L 6968.44,3803.33 L 6458.87,3509.08 Z " />
<path stroke="transparent" fill="#000000" transform="matrix(0.0833333 0 0 0.0833333 -187.25 -230)" d="M 6448.88,3017.37 L 6468.88,3017.37 L 6468.87,3491.76 L 6458.87,3497.53 L 6448.87,3491.76 L 6448.88,3017.37 Z " />
<path stroke="transparent" fill="#000000" transform="matrix(0.0833333 0 0 0.0833333 -187.25 -230)" d="M 5949.19,3803.34 L 5929.19,3791.8 L 6448.87,3491.76 L 6458.87,3497.53 L 6458.87,3509.08 L 5949.19,3803.34 Z " />
<path stroke="transparent" fill="#000000" transform="matrix(0.0833333 0 0 0.0833333 -187.25 -230)" d="M 6016.2,3847.8 L 6006.2,3830.48 L 6453.87,3572.02 L 6463.87,3589.34 L 6016.2,3847.8 Z " />
<path stroke="transparent" fill="#000000" transform="matrix(0.0833333 0 0 0.0833333 -187.25 -230)" d="M 5929.19,3791.8 L 5949.19,3803.34 L 5949.19,4391.8 L 5939.19,4397.57 L 5929.19,4391.8 L 5929.19,3791.8 Z " />
<path stroke="transparent" fill="#000000" transform="matrix(0.0833333 0 0 0.0833333 -187.25 -230)" d="M 4995.02,4463.98 L 5005.03,4446.66 L 5419.56,4686.03 L 5419.56,4697.58 L 5409.56,4703.35 L 4995.02,4463.98 Z " />
<path stroke="transparent" fill="#000000" transform="matrix(0.0833333 0 0 0.0833333 -187.25 -230)" d="M 4390.31,4703.36 L 4380.31,4697.59 L 4380.31,4686.04 L 4795.39,4446.4 L 4805.39,4463.72 L 4390.31,4703.36 Z " />
<path stroke="transparent" fill="#000000" transform="matrix(0.0833333 0 0 0.0833333 -187.25 -230)" d="M 4370.31,4703.36 L 4380.31,4697.59 L 4390.31,4703.36 L 4390.31,5291.81 L 4380.31,5297.59 L 4370.31,5291.81 L 4370.31,4703.36 Z " />
<path stroke="transparent" fill="#000000" transform="matrix(0.0833333 0 0 0.0833333 -187.25 -230)" d="M 3860.69,4409.14 L 3860.69,4386.05 L 4380.31,4686.04 L 4380.31,4697.59 L 4370.31,4703.36 L 3860.69,4409.14 Z " />
<path stroke="transparent" fill="#000000" transform="matrix(0.0833333 0 0 0.0833333 -187.25 -230)" d="M 3855.7,4489.39 L 3865.7,4472.07 L 4313.31,4730.5 L 4303.31,4747.82 L 3855.7,4489.39 Z " />
<path stroke="transparent" fill="#000000" transform="matrix(0.0833333 0 0 0.0833333 -187.25 -230)" d="M 3860.69,4386.05 L 3860.69,4409.14 L 3351.12,4703.35 L 3341.12,4697.57 L 3341.12,4686.02 L 3860.69,4386.05 Z " />
<path stroke="transparent" fill="#000000" transform="matrix(0.0833333 0 0 0.0833333 -187.25 -230)" d="M 2306.89,4706.24 L 2296.89,4688.92 L 2716.9,4446.42 L 2726.9,4463.75 L 2306.89,4706.24 Z " />
</svg>
