<?xml version="1.0" standalone="no" ?>
<!DOCTYPE svg PUBLIC "-//W3C//DTD SVG 1.1//EN" "http://www.w3.org/Graphics/SVG/1.1/DTD/svg11.dtd">
<svg width="457px" height="148px" viewBox="0 0 457 148" style="background-color: #ffffff00" xmlns="http://www.w3.org/2000/svg" xmlns:xlink="http://www.w3.org/1999/xlink" version="1.1" >
<text x="0" y="0" stroke="transparent" fill="#000000" transform="matrix(0.0833333 0 0 0.0833333 193.67 53.4683)" style="font:normal normal normal 200px 'Arial'" >
N</text>
<text x="0" y="0" stroke="transparent" fill="#000000" transform="matrix(0.0833333 0 0 0.0833333 194.128 134.371)" style="font:normal normal normal 200px 'Arial'" >
S</text>
<text x="0" y="0" stroke="transparent" fill="#000000" transform="matrix(0.0833333 0 0 0.0833333 302.445 53.4683)" style="font:normal normal normal 200px 'Arial'" >
N</text>
<text x="0" y="0" stroke="transparent" fill="#000000" transform="matrix(0.0833333 0 0 0.0833333 302.904 134.371)" style="font:normal normal normal 200px 'Arial'" >
S</text>
<text x="0" y="0" stroke="transparent" fill="#000000" transform="matrix(0.0833333 0 0 0.0833333 3.67907 143.917)" style="font:normal normal normal 200px 'Arial'" >
HO</text>
<text x="0" y="0" stroke="transparent" fill="#000000" transform="matrix(0.0833333 0 0 0.0833333 419.564 18.0138)" style="font:normal normal normal 200px 'Arial'" >
O</text>
<text x="0" y="0" stroke="transparent" fill="#000000" transform="matrix(0.0833333 0 0 0.0833333 428.618 104.141)" style="font:normal normal normal 200px 'Arial'" >
OH</text>
<text x="0" y="0" stroke="transparent" fill="#000000" transform="matrix(0.0833333 0 0 0.0833333 370.336 23.238)" style="font:normal normal normal 200px 'Arial'" >
H</text>
<path stroke="transparent" fill="#000000" transform="matrix(0.0833333 0 0 0.0833333 -207.333 -291)" d="M 4314.56,4230.19 L 4313.42,4241.07 L 4303.42,4246.85 L 3793.78,3952.55 L 3793.78,3929.45 L 4314.56,4230.19 Z " />
<path stroke="transparent" fill="#000000" transform="matrix(0.0833333 0 0 0.0833333 -207.333 -291)" d="M 4246.41,4273.98 L 4236.41,4291.3 L 3788.78,4032.81 L 3798.78,4015.49 L 4246.41,4273.98 Z " />
<path stroke="transparent" fill="#000000" transform="matrix(0.0833333 0 0 0.0833333 -207.333 -291)" d="M 4303.42,4835.3 L 4313.42,4841.07 L 4314.56,4851.96 L 3793.78,5152.55 L 3793.78,5129.46 L 4303.42,4835.3 Z " />
<path stroke="transparent" fill="#000000" transform="matrix(0.0833333 0 0 0.0833333 -207.333 -291)" d="M 4236.42,4790.84 L 4246.42,4808.16 L 3798.78,5066.53 L 3788.78,5049.21 L 4236.42,4790.84 Z " />
<path stroke="transparent" fill="#000000" transform="matrix(0.0833333 0 0 0.0833333 -207.333 -291)" d="M 3793.78,3929.45 L 3793.78,3952.55 L 3284.15,4246.85 L 3264.15,4235.3 L 3793.78,3929.45 Z " />
<path stroke="transparent" fill="#000000" transform="matrix(0.0833333 0 0 0.0833333 -207.333 -291)" d="M 3793.78,5129.46 L 3793.78,5152.55 L 3274.15,4852.62 L 3274.15,4841.07 L 3284.15,4835.3 L 3793.78,5129.46 Z " />
<path stroke="transparent" fill="#000000" transform="matrix(0.0833333 0 0 0.0833333 -207.333 -291)" d="M 3264.15,4235.3 L 3284.15,4246.85 L 3284.15,4835.3 L 3274.15,4841.07 L 3264.15,4835.3 L 3264.15,4235.3 Z " />
<path stroke="transparent" fill="#000000" transform="matrix(0.0833333 0 0 0.0833333 -207.333 -291)" d="M 3336.15,4282.64 L 3356.15,4282.64 L 3356.15,4799.5 L 3336.15,4799.5 L 3336.15,4282.64 Z " />
<path stroke="transparent" fill="#000000" transform="matrix(0.0833333 0 0 0.0833333 -207.333 -291)" d="M 4323.42,4248.34 L 4313.42,4241.07 L 4314.56,4230.19 L 4771.58,4081.65 L 4777.76,4100.67 L 4323.42,4248.34 Z " />
<path stroke="transparent" fill="#000000" transform="matrix(0.0833333 0 0 0.0833333 -207.333 -291)" d="M 4303.42,4246.85 L 4313.42,4241.07 L 4323.42,4248.34 L 4323.42,4833.81 L 4313.42,4841.07 L 4303.42,4835.3 L 4303.42,4246.85 Z " />
<path stroke="transparent" fill="#000000" transform="matrix(0.0833333 0 0 0.0833333 -207.333 -291)" d="M 4955.58,4171.1 L 4971.76,4159.35 L 5241.79,4531 L 5236.69,4541 L 5224.33,4541 L 4955.58,4171.1 Z " />
<path stroke="transparent" fill="#000000" transform="matrix(0.0833333 0 0 0.0833333 -207.333 -291)" d="M 4897.33,4213.42 L 4913.51,4201.67 L 5155.79,4535.13 L 5139.61,4546.88 L 4897.33,4213.42 Z " />
<path stroke="transparent" fill="#000000" transform="matrix(0.0833333 0 0 0.0833333 -207.333 -291)" d="M 5224.33,4541 L 5236.69,4541 L 5241.79,4551 L 4954.13,4946.98 L 4937.95,4935.23 L 5224.33,4541 Z " />
<path stroke="transparent" fill="#000000" transform="matrix(0.0833333 0 0 0.0833333 -207.333 -291)" d="M 4314.56,4851.96 L 4313.42,4841.07 L 4323.42,4833.81 L 4792.78,4986.29 L 4786.6,5005.31 L 4314.56,4851.96 Z " />
<path stroke="transparent" fill="#000000" transform="matrix(0.0833333 0 0 0.0833333 -207.333 -291)" d="M 5849.05,4541 L 5836.69,4541 L 5831.6,4531 L 6101.62,4159.35 L 6117.8,4171.1 L 5849.05,4541 Z " />
<path stroke="transparent" fill="#000000" transform="matrix(0.0833333 0 0 0.0833333 -207.333 -291)" d="M 5933.77,4546.88 L 5917.59,4535.13 L 6159.87,4201.67 L 6176.05,4213.42 L 5933.77,4546.88 Z " />
<path stroke="transparent" fill="#000000" transform="matrix(0.0833333 0 0 0.0833333 -207.333 -291)" d="M 5831.59,4551 L 5836.69,4541 L 5849.05,4541 L 6134.83,4934.39 L 6118.64,4946.15 L 5831.59,4551 Z " />
<path stroke="transparent" fill="#000000" transform="matrix(0.0833333 0 0 0.0833333 -207.333 -291)" d="M 6295.62,4100.67 L 6301.8,4081.65 L 6760.76,4230.79 L 6760.04,4241.07 L 6750.04,4248.34 L 6295.62,4100.67 Z " />
<path stroke="transparent" fill="#000000" transform="matrix(0.0833333 0 0 0.0833333 -207.333 -291)" d="M 6750.04,4248.34 L 6760.04,4241.07 L 6770.04,4250.83 L 6770.04,4848.34 L 6750.04,4833.81 L 6750.04,4248.34 Z " />
<path stroke="transparent" fill="#000000" transform="matrix(0.0833333 0 0 0.0833333 -207.333 -291)" d="M 6285.9,5005.6 L 6279.72,4986.58 L 6750.04,4833.81 L 6770.04,4848.34 L 6285.9,5005.6 Z " />
<path stroke="transparent" fill="#000000" transform="matrix(0.0833333 0 0 0.0833333 -207.333 -291)" d="M 5831.6,4531 L 5836.69,4541 L 5831.59,4551 L 5241.79,4551 L 5236.69,4541 L 5241.79,4531 L 5831.6,4531 Z " />
<path stroke="transparent" fill="#000000" transform="matrix(0.0833333 0 0 0.0833333 -207.333 -291)" d="M 3264.15,4835.3 L 3274.15,4841.07 L 3274.15,4852.62 L 2852.2,5096.2 L 2842.2,5078.88 L 3264.15,4835.3 Z " />
<path stroke="transparent" fill="#000000" transform="matrix(0.0833333 0 0 0.0833333 -207.333 -291)" d="M 7390.26,4216 L 7371.99,4207.87 L 7575.06,3751.81 L 7593.33,3759.94 L 7390.26,4216 Z " />
<path stroke="transparent" fill="#000000" transform="matrix(0.0833333 0 0 0.0833333 -207.333 -291)" d="M 7324.48,4186.73 L 7306.21,4178.59 L 7509.28,3722.52 L 7527.56,3730.66 L 7324.48,4186.73 Z " />
<path stroke="transparent" fill="#000000" transform="matrix(0.0833333 0 0 0.0833333 -207.333 -291)" d="M 7387.31,4237.45 L 7328.69,4122.77 L 7654.75,4571.46 L 7638.58,4583.22 L 7387.31,4237.45 Z " />
<path stroke="transparent" fill="#000000" transform="matrix(0.0833333 0 0 0.0833333 -207.333 -291)" d="M 7328.69,4122.77 L 7387.31,4237.45 L 6770.04,4250.83 L 6760.04,4241.07 L 6760.76,4230.79 L 7328.69,4122.77 Z " />
<path stroke="transparent" fill="#000000" transform="matrix(0.0833333 0 0 0.0833333 -207.333 -291)" d="M 6895.13,3789.98 L 7004.76,3838.78 L 6994.42,3856.06 L 6889.21,3809.24 L 6895.13,3789.98 Z " />
<path stroke="transparent" fill="#000000" transform="matrix(0.0833333 0 0 0.0833333 -207.333 -291)" d="M 6878.51,3844.04 L 6975.72,3887.31 L 6965.38,3904.6 L 6872.59,3863.3 L 6878.51,3844.04 Z " />
<path stroke="transparent" fill="#000000" transform="matrix(0.0833333 0 0 0.0833333 -207.333 -291)" d="M 6861.89,3898.1 L 6946.68,3935.84 L 6936.34,3953.13 L 6855.97,3917.36 L 6861.89,3898.1 Z " />
<path stroke="transparent" fill="#000000" transform="matrix(0.0833333 0 0 0.0833333 -207.333 -291)" d="M 6845.27,3952.17 L 6917.64,3984.38 L 6907.3,4001.67 L 6839.35,3971.42 L 6845.27,3952.17 Z " />
<path stroke="transparent" fill="#000000" transform="matrix(0.0833333 0 0 0.0833333 -207.333 -291)" d="M 6828.65,4006.23 L 6888.6,4032.91 L 6878.26,4050.2 L 6822.73,4025.48 L 6828.65,4006.23 Z " />
<path stroke="transparent" fill="#000000" transform="matrix(0.0833333 0 0 0.0833333 -207.333 -291)" d="M 6812.02,4060.29 L 6859.56,4081.45 L 6849.21,4098.73 L 6806.1,4079.55 L 6812.02,4060.29 Z " />
<path stroke="transparent" fill="#000000" transform="matrix(0.0833333 0 0 0.0833333 -207.333 -291)" d="M 6795.4,4114.35 L 6830.52,4129.98 L 6820.17,4147.27 L 6789.48,4133.61 L 6795.4,4114.35 Z " />
<path stroke="transparent" fill="#000000" transform="matrix(0.0833333 0 0 0.0833333 -207.333 -291)" d="M 6778.78,4168.41 L 6801.48,4178.51 L 6791.13,4195.8 L 6772.86,4187.67 L 6778.78,4168.41 Z " />
</svg>
