<?xml version="1.0" standalone="no" ?>
<!DOCTYPE svg PUBLIC "-//W3C//DTD SVG 1.1//EN" "http://www.w3.org/Graphics/SVG/1.1/DTD/svg11.dtd">
<svg width="198px" height="177px" viewBox="0 0 198 177" style="background-color: #ffffff00" xmlns="http://www.w3.org/2000/svg" xmlns:xlink="http://www.w3.org/1999/xlink" version="1.1" >
<text x="0" y="0" stroke="none" fill="#000000" transform="matrix(0.0666667 0 0 0.0666667 106.286 163.058)" font-style="normal" font-weight="normal" font-size="200px" font-family="Arial" >
N</text>
<text x="0" y="0" stroke="none" fill="#000000" transform="matrix(0.0666667 0 0 0.0666667 106.286 174.18)" font-style="normal" font-weight="normal" font-size="200px" font-family="Arial" >
H</text>
<text x="0" y="0" stroke="none" fill="#000000" transform="matrix(0.0666667 0 0 0.0666667 170.13 13.9424)" font-style="normal" font-weight="normal" font-size="200px" font-family="Arial" >
NH</text>
<text x="0" y="0" stroke="none" fill="#000000" transform="matrix(0.0666667 0 0 0.0666667 189.388 16.8758)" font-style="normal" font-weight="normal" font-size="150px" font-family="Arial" >
2</text>
<path stroke="none" fill="#000000" transform="matrix(0.0666667 0 0 0.0666667 -249.859 -199)" d="M 4323.91,5479.03 L 4323.91,5455.93 L 4833.55,5161.71 L 4843.55,5167.48 L 4844.69,5178.37 L 4323.91,5479.03 Z " />
<path stroke="none" fill="#000000" transform="matrix(0.0666667 0 0 0.0666667 -249.859 -199)" d="M 4328.91,5393 L 4318.91,5375.68 L 4766.54,5117.25 L 4776.54,5134.57 L 4328.91,5393 Z " />
<path stroke="none" fill="#000000" transform="matrix(0.0666667 0 0 0.0666667 -249.859 -199)" d="M 5310.09,5308.54 L 5303.91,5327.56 L 4844.69,5178.37 L 4843.55,5167.48 L 4853.55,5160.22 L 5310.09,5308.54 Z " />
<path stroke="none" fill="#000000" transform="matrix(0.0666667 0 0 0.0666667 -249.859 -199)" d="M 4853.55,5160.22 L 4843.55,5167.48 L 4833.55,5161.71 L 4833.55,4573.26 L 4843.55,4567.48 L 4853.55,4574.75 L 4853.55,5160.22 Z " />
<path stroke="none" fill="#000000" transform="matrix(0.0666667 0 0 0.0666667 -249.859 -199)" d="M 5406.23,4374.09 L 5414.16,4382.03 L 5410.34,4393.78 L 4853.55,4574.75 L 4843.55,4567.48 L 4844.69,4556.59 L 5406.23,4374.09 Z " />
<path stroke="none" fill="#000000" transform="matrix(0.0666667 0 0 0.0666667 -249.859 -199)" d="M 4323.91,4279.03 L 4323.91,4255.93 L 4844.69,4556.59 L 4843.55,4567.48 L 4833.55,4573.26 L 4323.91,4279.03 Z " />
<path stroke="none" fill="#000000" transform="matrix(0.0666667 0 0 0.0666667 -249.859 -199)" d="M 4318.91,4359.28 L 4328.91,4341.96 L 4776.54,4600.39 L 4766.54,4617.71 L 4318.91,4359.28 Z " />
<path stroke="none" fill="#000000" transform="matrix(0.0666667 0 0 0.0666667 -249.859 -199)" d="M 3814.27,4573.26 L 3794.27,4561.71 L 4323.91,4255.93 L 4323.91,4279.03 L 3814.27,4573.26 Z " />
<path stroke="none" fill="#000000" transform="matrix(0.0666667 0 0 0.0666667 -249.859 -199)" d="M 3814.27,5161.71 L 3794.27,5173.26 L 3794.27,4561.71 L 3814.27,4573.26 L 3814.27,5161.71 Z " />
<path stroke="none" fill="#000000" transform="matrix(0.0666667 0 0 0.0666667 -249.859 -199)" d="M 3886.27,5125.91 L 3866.27,5125.91 L 3866.27,4609.05 L 3886.27,4609.05 L 3886.27,5125.91 Z " />
<path stroke="none" fill="#000000" transform="matrix(0.0666667 0 0 0.0666667 -249.859 -199)" d="M 3794.27,5173.26 L 3814.27,5161.71 L 4323.91,5455.93 L 4323.91,5479.03 L 3794.27,5173.26 Z " />
<path stroke="none" fill="#000000" transform="matrix(0.0666667 0 0 0.0666667 -249.859 -199)" d="M 5779.18,4867.48 L 5754.46,4867.48 L 5410.34,4393.78 L 5414.16,4382.03 L 5425.25,4380.27 L 5779.18,4867.48 Z " />
<path stroke="none" fill="#000000" transform="matrix(0.0666667 0 0 0.0666667 -249.859 -199)" d="M 5685.91,4861.6 L 5669.73,4873.36 L 5378.57,4472.55 L 5394.75,4460.8 L 5685.91,4861.6 Z " />
<path stroke="none" fill="#000000" transform="matrix(0.0666667 0 0 0.0666667 -249.859 -199)" d="M 5591.89,3802.9 L 5607.34,3820.06 L 5425.25,4380.27 L 5414.16,4382.03 L 5406.23,4374.09 L 5591.89,3802.9 Z " />
<path stroke="none" fill="#000000" transform="matrix(0.0666667 0 0 0.0666667 -249.859 -199)" d="M 5754.46,4867.48 L 5779.18,4867.48 L 5494.99,5258.63 L 5478.81,5246.87 L 5754.46,4867.48 Z " />
<path stroke="none" fill="#000000" transform="matrix(0.0666667 0 0 0.0666667 -249.859 -199)" d="M 6178.73,3678.1 L 6194.18,3695.26 L 5607.34,3820.06 L 5591.89,3802.9 L 6178.73,3678.1 Z " />
<path stroke="none" fill="#000000" transform="matrix(0.0666667 0 0 0.0666667 -249.859 -199)" d="M 6321.35,3239.15 L 6340.37,3245.33 L 6194.18,3695.26 L 6178.73,3678.1 L 6321.35,3239.15 Z " />
</svg>
