<?xml version="1.0" standalone="no" ?>
<!DOCTYPE svg PUBLIC "-//W3C//DTD SVG 1.1//EN" "http://www.w3.org/Graphics/SVG/1.1/DTD/svg11.dtd">
<svg width="302px" height="221px" viewBox="0 0 302 221" style="background-color: #ffffff00" xmlns="http://www.w3.org/2000/svg" xmlns:xlink="http://www.w3.org/1999/xlink" version="1.1" >
<path stroke="transparent" fill="#000000" transform="matrix(0.0833333 0 0 0.0833333 -284.875 -258)" d="M 6728.42,3340.1 L 6747.44,3346.28 L 6597.91,3806.55 L 6582.45,3789.39 L 6728.42,3340.1 Z " />
<path stroke="transparent" fill="#000000" transform="matrix(0.0833333 0 0 0.0833333 -284.875 -258)" d="M 6582.45,3789.39 L 6597.91,3806.55 L 6011,3931.28 L 5995.55,3914.11 L 6582.45,3789.39 Z " />
<path stroke="transparent" fill="#000000" transform="matrix(0.0833333 0 0 0.0833333 -284.875 -258)" d="M 5995.55,3914.11 L 6011,3931.28 L 5828.98,4491.63 L 5817.89,4493.39 L 5809.95,4485.45 L 5995.55,3914.11 Z " />
<path stroke="transparent" fill="#000000" transform="matrix(0.0833333 0 0 0.0833333 -284.875 -258)" d="M 5713.87,5419.84 L 5707.69,5438.86 L 5248.42,5289.65 L 5247.27,5278.77 L 5257.27,5271.5 L 5713.87,5419.84 Z " />
<path stroke="transparent" fill="#000000" transform="matrix(0.0833333 0 0 0.0833333 -284.875 -258)" d="M 5898.64,5370.02 L 5882.46,5358.27 L 6158.18,4978.77 L 6182.91,4978.77 L 5898.64,5370.02 Z " />
<path stroke="transparent" fill="#000000" transform="matrix(0.0833333 0 0 0.0833333 -284.875 -258)" d="M 6182.91,4978.77 L 6158.18,4978.77 L 5814.07,4505.14 L 5817.89,4493.39 L 5828.98,4491.63 L 6182.91,4978.77 Z " />
<path stroke="transparent" fill="#000000" transform="matrix(0.0833333 0 0 0.0833333 -284.875 -258)" d="M 6089.64,4972.89 L 6073.46,4984.65 L 5782.3,4583.9 L 5798.48,4572.14 L 6089.64,4972.89 Z " />
<path stroke="transparent" fill="#000000" transform="matrix(0.0833333 0 0 0.0833333 -284.875 -258)" d="M 5809.95,4485.45 L 5817.89,4493.39 L 5814.07,4505.14 L 5257.27,4686.03 L 5247.27,4678.77 L 5248.42,4667.88 L 5809.95,4485.45 Z " />
<path stroke="transparent" fill="#000000" transform="matrix(0.0833333 0 0 0.0833333 -284.875 -258)" d="M 3783.46,4445.18 L 3793.46,4427.86 L 4208,4667.22 L 4208,4678.77 L 4198,4684.54 L 3783.46,4445.18 Z " />
<path stroke="transparent" fill="#000000" transform="matrix(0.0833333 0 0 0.0833333 -284.875 -258)" d="M 4198,4684.54 L 4208,4678.77 L 4218,4684.54 L 4218,5272.99 L 4198,5284.54 L 4198,4684.54 Z " />
<path stroke="transparent" fill="#000000" transform="matrix(0.0833333 0 0 0.0833333 -284.875 -258)" d="M 4218,4684.54 L 4208,4678.77 L 4208,4667.22 L 4727.64,4367.22 L 4727.64,4390.32 L 4218,4684.54 Z " />
<path stroke="transparent" fill="#000000" transform="matrix(0.0833333 0 0 0.0833333 -284.875 -258)" d="M 4285,4729 L 4275,4711.68 L 4722.64,4453.25 L 4732.64,4470.57 L 4285,4729 Z " />
<path stroke="transparent" fill="#000000" transform="matrix(0.0833333 0 0 0.0833333 -284.875 -258)" d="M 4727.64,4390.32 L 4727.64,4367.22 L 5248.42,4667.88 L 5247.27,4678.77 L 5237.27,4684.54 L 4727.64,4390.32 Z " />
<path stroke="transparent" fill="#000000" transform="matrix(0.0833333 0 0 0.0833333 -284.875 -258)" d="M 5237.27,4684.54 L 5247.27,4678.77 L 5257.27,4686.03 L 5257.27,5271.5 L 5247.27,5278.77 L 5237.27,5272.99 L 5237.27,4684.54 Z " />
<path stroke="transparent" fill="#000000" transform="matrix(0.0833333 0 0 0.0833333 -284.875 -258)" d="M 5165.27,4720.34 L 5185.27,4720.34 L 5185.27,5237.2 L 5165.27,5237.2 L 5165.27,4720.34 Z " />
<path stroke="transparent" fill="#000000" transform="matrix(0.0833333 0 0 0.0833333 -284.875 -258)" d="M 5237.27,5272.99 L 5247.27,5278.77 L 5248.42,5289.65 L 4727.64,5590.31 L 4727.64,5567.22 L 5237.27,5272.99 Z " />
<path stroke="transparent" fill="#000000" transform="matrix(0.0833333 0 0 0.0833333 -284.875 -258)" d="M 4727.64,5567.22 L 4727.64,5590.31 L 4198,5284.54 L 4218,5272.99 L 4727.64,5567.22 Z " />
<path stroke="transparent" fill="#000000" transform="matrix(0.0833333 0 0 0.0833333 -284.875 -258)" d="M 4732.64,5486.97 L 4722.64,5504.29 L 4275,5245.86 L 4285,5228.54 L 4732.64,5486.97 Z " />
<text x="0" y="0" stroke="transparent" fill="#000000" transform="matrix(0.0833333 0 0 0.0833333 273.255 17.4458)" style="font:normal normal normal 200px 'Arial'" >
OH</text>
<text x="0" y="0" stroke="transparent" fill="#000000" transform="matrix(0.0833333 0 0 0.0833333 193.949 203.846)" style="font:normal normal normal 200px 'Arial'" >
N</text>
<text x="0" y="0" stroke="transparent" fill="#000000" transform="matrix(0.0833333 0 0 0.0833333 193.949 217.651)" style="font:normal normal normal 200px 'Arial'" >
H</text>
<text x="0" y="0" stroke="transparent" fill="#000000" transform="matrix(0.0833333 0 0 0.0833333 3.95861 113.397)" style="font:normal normal normal 200px 'Arial'" >
HO</text>
</svg>
