<?xml version="1.0" standalone="no" ?>
<!DOCTYPE svg PUBLIC "-//W3C//DTD SVG 1.1//EN" "http://www.w3.org/Graphics/SVG/1.1/DTD/svg11.dtd">
<svg width="563px" height="303px" viewBox="0 0 563 303" style="background-color: #ffffff00" xmlns="http://www.w3.org/2000/svg" xmlns:xlink="http://www.w3.org/1999/xlink" version="1.1" >
<text x="0" y="0" stroke="transparent" fill="#000000" transform="matrix(0.0833333 0 0 0.0833333 4.17774 262.147)" style="font:normal normal normal 200px 'Arial'" >
HO</text>
<path stroke="transparent" fill="#000000" transform="matrix(0.0833333 0 0 0.0833333 -135.25 -350.917)" d="M 5738.19,4677.46 L 5724.05,4691.61 L 5708.61,4678.76 L 5725.34,4662.03 L 5738.19,4677.46 Z " />
<path stroke="transparent" fill="#000000" transform="matrix(0.0833333 0 0 0.0833333 -135.25 -350.917)" d="M 5700.65,4632.35 L 5678.94,4654.06 L 5663.5,4641.22 L 5687.8,4616.92 L 5700.65,4632.35 Z " />
<path stroke="transparent" fill="#000000" transform="matrix(0.0833333 0 0 0.0833333 -135.25 -350.917)" d="M 5663.11,4587.24 L 5633.83,4616.52 L 5618.39,4603.68 L 5650.26,4571.8 L 5663.11,4587.24 Z " />
<path stroke="transparent" fill="#000000" transform="matrix(0.0833333 0 0 0.0833333 -135.25 -350.917)" d="M 5625.56,4542.13 L 5588.71,4578.98 L 5573.28,4566.13 L 5612.72,4526.69 L 5625.56,4542.13 Z " />
<path stroke="transparent" fill="#000000" transform="matrix(0.0833333 0 0 0.0833333 -135.25 -350.917)" d="M 5588.02,4497.02 L 5543.6,4541.44 L 5528.17,4528.59 L 5575.17,4481.58 L 5588.02,4497.02 Z " />
<path stroke="transparent" fill="#000000" transform="matrix(0.0833333 0 0 0.0833333 -135.25 -350.917)" d="M 5550.48,4451.91 L 5498.49,4503.9 L 5483.06,4491.05 L 5537.63,4436.47 L 5550.48,4451.91 Z " />
<path stroke="transparent" fill="#000000" transform="matrix(0.0833333 0 0 0.0833333 -135.25 -350.917)" d="M 5512.94,4406.8 L 5453.38,4466.35 L 5437.94,4453.51 L 5500.09,4391.36 L 5512.94,4406.8 Z " />
<path stroke="transparent" fill="#000000" transform="matrix(0.0833333 0 0 0.0833333 -135.25 -350.917)" d="M 5475.4,4361.69 L 5408.27,4428.81 L 5392.83,4415.97 L 5462.55,4346.25 L 5475.4,4361.69 Z " />
<path stroke="transparent" fill="#000000" transform="matrix(0.0833333 0 0 0.0833333 -135.25 -350.917)" d="M 5437.85,4316.58 L 5363.16,4391.27 L 5347.72,4378.42 L 5425.01,4301.14 L 5437.85,4316.58 Z " />
<path stroke="transparent" fill="#000000" transform="matrix(0.0833333 0 0 0.0833333 -135.25 -350.917)" d="M 5400.31,4271.47 L 5318.05,4353.73 L 5302.61,4340.88 L 5387.46,4256.03 L 5400.31,4271.47 Z " />
<path stroke="transparent" fill="#000000" transform="matrix(0.0833333 0 0 0.0833333 -135.25 -350.917)" d="M 6359.76,4586.99 L 6352.62,4608.95 L 5777.03,4731.3 L 5761.58,4714.14 L 6359.76,4586.99 Z " />
<path stroke="transparent" fill="#000000" transform="matrix(0.0833333 0 0 0.0833333 -135.25 -350.917)" d="M 5591.83,5301.29 L 5575.96,5285.42 L 5761.58,4714.14 L 5777.03,4731.3 L 5591.83,5301.29 Z " />
<path stroke="transparent" fill="#000000" transform="matrix(0.0833333 0 0 0.0833333 -135.25 -350.917)" d="M 5953.31,5699.74 L 5856.23,5770.27 L 5846.12,5752.89 L 5939.91,5684.75 L 5953.31,5699.74 Z " />
<path stroke="transparent" fill="#000000" transform="matrix(0.0833333 0 0 0.0833333 -135.25 -350.917)" d="M 5913.79,5655.55 L 5826.41,5719.03 L 5816.3,5701.66 L 5900.39,5640.56 L 5913.79,5655.55 Z " />
<path stroke="transparent" fill="#000000" transform="matrix(0.0833333 0 0 0.0833333 -135.25 -350.917)" d="M 5874.28,5611.36 L 5796.6,5667.79 L 5786.49,5650.42 L 5860.88,5596.37 L 5874.28,5611.36 Z " />
<path stroke="transparent" fill="#000000" transform="matrix(0.0833333 0 0 0.0833333 -135.25 -350.917)" d="M 5834.76,5567.17 L 5766.78,5616.56 L 5756.67,5599.18 L 5821.36,5552.18 L 5834.76,5567.17 Z " />
<path stroke="transparent" fill="#000000" transform="matrix(0.0833333 0 0 0.0833333 -135.25 -350.917)" d="M 5795.24,5522.98 L 5736.97,5565.32 L 5726.86,5547.94 L 5781.84,5507.99 L 5795.24,5522.98 Z " />
<path stroke="transparent" fill="#000000" transform="matrix(0.0833333 0 0 0.0833333 -135.25 -350.917)" d="M 5755.73,5478.79 L 5707.15,5514.08 L 5697.04,5496.7 L 5742.33,5463.8 L 5755.73,5478.79 Z " />
<path stroke="transparent" fill="#000000" transform="matrix(0.0833333 0 0 0.0833333 -135.25 -350.917)" d="M 5716.21,5434.6 L 5677.34,5462.84 L 5667.23,5445.47 L 5702.81,5419.61 L 5716.21,5434.6 Z " />
<path stroke="transparent" fill="#000000" transform="matrix(0.0833333 0 0 0.0833333 -135.25 -350.917)" d="M 5676.69,5390.41 L 5647.52,5411.6 L 5637.41,5394.23 L 5663.29,5375.42 L 5676.69,5390.41 Z " />
<path stroke="transparent" fill="#000000" transform="matrix(0.0833333 0 0 0.0833333 -135.25 -350.917)" d="M 5637.18,5346.22 L 5617.71,5360.37 L 5607.59,5342.99 L 5623.78,5331.23 L 5637.18,5346.22 Z " />
<path stroke="transparent" fill="#000000" transform="matrix(0.0833333 0 0 0.0833333 -135.25 -350.917)" d="M 5587.71,6275.93 L 5580.07,6252.42 L 5928.47,5772.89 L 5944.65,5784.64 L 5587.71,6275.93 Z " />
<path stroke="transparent" fill="#000000" transform="matrix(0.0833333 0 0 0.0833333 -135.25 -350.917)" d="M 5026.2,6093.48 L 5013.26,6078.76 L 5023.26,6071.5 L 5580.07,6252.42 L 5587.71,6275.93 L 5026.2,6093.48 Z " />
<path stroke="transparent" fill="#000000" transform="matrix(0.0833333 0 0 0.0833333 -135.25 -350.917)" d="M 5003.26,5484.54 L 5013.26,5478.76 L 5023.26,5486.03 L 5023.26,6071.5 L 5013.26,6078.76 L 5003.26,6072.99 L 5003.26,5484.54 Z " />
<path stroke="transparent" fill="#000000" transform="matrix(0.0833333 0 0 0.0833333 -135.25 -350.917)" d="M 5023.26,5486.03 L 5013.26,5478.76 L 5014.4,5467.88 L 5575.96,5285.42 L 5591.83,5301.29 L 5023.26,5486.03 Z " />
<path stroke="transparent" fill="#000000" transform="matrix(0.0833333 0 0 0.0833333 -135.25 -350.917)" d="M 4493.64,5190.31 L 4493.64,5167.22 L 5014.4,5467.88 L 5013.26,5478.76 L 5003.26,5484.54 L 4493.64,5190.31 Z " />
<path stroke="transparent" fill="#000000" transform="matrix(0.0833333 0 0 0.0833333 -135.25 -350.917)" d="M 4036.05,5454.5 L 3915.86,5500.8 L 4493.64,5167.22 L 4493.64,5190.31 L 4036.05,5454.5 Z " />
<path stroke="transparent" fill="#000000" transform="matrix(0.0833333 0 0 0.0833333 -135.25 -350.917)" d="M 3984.49,6073.25 L 3974.03,6078.76 L 3963.57,6073.25 L 3915.86,5500.8 L 4036.05,5454.5 L 3984.49,6073.25 Z " />
<path stroke="transparent" fill="#000000" transform="matrix(0.0833333 0 0 0.0833333 -135.25 -350.917)" d="M 4493.64,6367.22 L 4493.64,6378.76 L 4483.64,6384.54 L 3974.03,6090.31 L 3974.03,6078.76 L 3984.49,6073.25 L 4493.64,6367.22 Z " />
<path stroke="transparent" fill="#000000" transform="matrix(0.0833333 0 0 0.0833333 -135.25 -350.917)" d="M 4503.64,6384.54 L 4493.64,6378.76 L 4493.64,6367.22 L 5003.26,6072.99 L 5013.26,6078.76 L 5003.66,6095.85 L 4503.64,6384.54 Z " />
<path stroke="transparent" fill="#000000" transform="matrix(0.0833333 0 0 0.0833333 -135.25 -350.917)" d="M 4503.64,6984.54 L 4483.64,6972.99 L 4483.64,6384.54 L 4493.64,6378.76 L 4503.64,6384.54 L 4503.64,6984.54 Z " />
<path stroke="transparent" fill="#000000" transform="matrix(0.0833333 0 0 0.0833333 -135.25 -350.917)" d="M 4431.64,6937.19 L 4411.64,6937.19 L 4411.64,6420.33 L 4431.64,6420.33 L 4431.64,6937.19 Z " />
<path stroke="transparent" fill="#000000" transform="matrix(0.0833333 0 0 0.0833333 -135.25 -350.917)" d="M 3925.86,7318.12 L 4026.05,7237.18 L 4483.64,6972.99 L 4503.64,6984.54 L 3925.86,7318.12 Z " />
<path stroke="transparent" fill="#000000" transform="matrix(0.0833333 0 0 0.0833333 -135.25 -350.917)" d="M 3453.95,6990.57 L 3454.41,6978.76 L 3464.41,6972.46 L 4026.05,7237.18 L 3925.86,7318.12 L 3453.95,6990.57 Z " />
<path stroke="transparent" fill="#000000" transform="matrix(0.0833333 0 0 0.0833333 -135.25 -350.917)" d="M 3444.41,6384.54 L 3454.41,6378.76 L 3464.41,6384.54 L 3464.41,6972.46 L 3454.41,6978.76 L 3444.41,6972.99 L 3444.41,6384.54 Z " />
<path stroke="transparent" fill="#000000" transform="matrix(0.0833333 0 0 0.0833333 -135.25 -350.917)" d="M 3464.41,6384.54 L 3454.41,6378.76 L 3465.93,6360.57 L 3963.57,6073.25 L 3974.03,6078.76 L 3974.03,6090.31 L 3464.41,6384.54 Z " />
<path stroke="transparent" fill="#000000" transform="matrix(0.0833333 0 0 0.0833333 -135.25 -350.917)" d="M 2934.8,6090.31 L 2934.8,6067.22 L 3442.9,6360.57 L 3454.41,6378.76 L 3444.41,6384.54 L 2934.8,6090.31 Z " />
<path stroke="transparent" fill="#000000" transform="matrix(0.0833333 0 0 0.0833333 -135.25 -350.917)" d="M 2425.18,6384.54 L 2405.18,6372.99 L 2934.8,6067.22 L 2934.8,6090.31 L 2425.18,6384.54 Z " />
<path stroke="transparent" fill="#000000" transform="matrix(0.0833333 0 0 0.0833333 -135.25 -350.917)" d="M 2425.18,6972.99 L 2415.18,6978.76 L 2405.18,6972.35 L 2405.18,6372.99 L 2425.18,6384.54 L 2425.18,6972.99 Z " />
<path stroke="transparent" fill="#000000" transform="matrix(0.0833333 0 0 0.0833333 -135.25 -350.917)" d="M 2934.8,7267.22 L 2934.8,7278.76 L 2921.14,7282.42 L 2415.73,6990.63 L 2415.18,6978.76 L 2425.18,6972.99 L 2934.8,7267.22 Z " />
<path stroke="transparent" fill="#000000" transform="matrix(0.0833333 0 0 0.0833333 -135.25 -350.917)" d="M 2948.46,7282.42 L 2934.8,7278.76 L 2934.8,7267.22 L 3444.41,6972.99 L 3454.41,6978.76 L 3453.95,6990.57 L 2948.46,7282.42 Z " />
<path stroke="transparent" fill="#000000" transform="matrix(0.0833333 0 0 0.0833333 -135.25 -350.917)" d="M 3243.46,7793.38 L 3226.14,7803.38 L 2934.8,7298.76 L 2934.8,7278.76 L 2948.46,7282.42 L 3243.46,7793.38 Z " />
<path stroke="transparent" fill="#000000" transform="matrix(0.0833333 0 0 0.0833333 -135.25 -350.917)" d="M 2643.46,7803.38 L 2626.14,7793.38 L 2921.14,7282.42 L 2934.8,7278.76 L 2934.8,7298.76 L 2643.46,7803.38 Z " />
<path stroke="transparent" fill="#000000" transform="matrix(0.0833333 0 0 0.0833333 -135.25 -350.917)" d="M 2018.18,7277.26 L 1958.18,7173.33 L 2405.18,6972.35 L 2415.18,6978.76 L 2415.73,6990.63 L 2018.18,7277.26 Z " />
<path stroke="transparent" fill="#000000" transform="matrix(0.0833333 0 0 0.0833333 -135.25 -350.917)" d="M 3394.41,5778.76 L 3514.41,5778.76 L 3465.93,6360.57 L 3454.41,6378.76 L 3442.9,6360.57 L 3394.41,5778.76 Z " />
<path stroke="transparent" fill="#000000" transform="matrix(0.0833333 0 0 0.0833333 -135.25 -350.917)" d="M 5016.3,4875.78 L 5135.65,4888.32 L 5131.73,4908.02 L 5016.03,4895.86 L 5016.3,4875.78 Z " />
<path stroke="transparent" fill="#000000" transform="matrix(0.0833333 0 0 0.0833333 -135.25 -350.917)" d="M 5015.52,4934.46 L 5124.21,4945.89 L 5120.3,4965.59 L 5015.25,4954.54 L 5015.52,4934.46 Z " />
<path stroke="transparent" fill="#000000" transform="matrix(0.0833333 0 0 0.0833333 -135.25 -350.917)" d="M 5014.73,4993.15 L 5112.78,5003.45 L 5108.87,5023.15 L 5014.46,5013.23 L 5014.73,4993.15 Z " />
<path stroke="transparent" fill="#000000" transform="matrix(0.0833333 0 0 0.0833333 -135.25 -350.917)" d="M 5013.94,5051.83 L 5101.35,5061.02 L 5097.44,5080.72 L 5013.68,5071.91 L 5013.94,5051.83 Z " />
<path stroke="transparent" fill="#000000" transform="matrix(0.0833333 0 0 0.0833333 -135.25 -350.917)" d="M 5013.16,5110.51 L 5089.92,5118.58 L 5086.01,5138.28 L 5012.89,5130.59 L 5013.16,5110.51 Z " />
<path stroke="transparent" fill="#000000" transform="matrix(0.0833333 0 0 0.0833333 -135.25 -350.917)" d="M 5012.37,5169.2 L 5078.49,5176.15 L 5074.58,5195.84 L 5012.1,5189.28 L 5012.37,5169.2 Z " />
<path stroke="transparent" fill="#000000" transform="matrix(0.0833333 0 0 0.0833333 -135.25 -350.917)" d="M 5011.59,5227.88 L 5067.06,5233.71 L 5063.14,5253.41 L 5011.32,5247.96 L 5011.59,5227.88 Z " />
<path stroke="transparent" fill="#000000" transform="matrix(0.0833333 0 0 0.0833333 -135.25 -350.917)" d="M 5010.8,5286.56 L 5055.62,5291.28 L 5051.71,5310.97 L 5010.53,5306.65 L 5010.8,5286.56 Z " />
<path stroke="transparent" fill="#000000" transform="matrix(0.0833333 0 0 0.0833333 -135.25 -350.917)" d="M 5010.01,5345.25 L 5044.19,5348.84 L 5040.28,5368.54 L 5009.74,5365.33 L 5010.01,5345.25 Z " />
<path stroke="transparent" fill="#000000" transform="matrix(0.0833333 0 0 0.0833333 -135.25 -350.917)" d="M 5009.23,5403.93 L 5032.76,5406.41 L 5028.85,5426.1 L 5008.96,5424.01 L 5009.23,5403.93 Z " />
<path stroke="transparent" fill="#000000" transform="matrix(0.0833333 0 0 0.0833333 -135.25 -350.917)" d="M 5135.65,6669.2 L 5016.3,6681.75 L 5003.66,6095.85 L 5013.26,6078.76 L 5026.2,6093.48 L 5135.65,6669.2 Z " />
<path stroke="transparent" fill="#000000" transform="matrix(0.0833333 0 0 0.0833333 -135.25 -350.917)" d="M 6761.24,5032.88 L 6754.1,5054.84 L 6352.62,4608.95 L 6359.76,4586.99 L 6761.24,5032.88 Z " />
<path stroke="transparent" fill="#000000" transform="matrix(0.0833333 0 0 0.0833333 -135.25 -350.917)" d="M 7348.13,4908.13 L 7340.99,4930.09 L 6754.1,5054.84 L 6761.24,5032.88 L 7348.13,4908.13 Z " />
<path stroke="transparent" fill="#000000" transform="matrix(0.0833333 0 0 0.0833333 -135.25 -350.917)" d="M 7749.6,5354.02 L 7746.04,5365 L 7734.74,5367.4 L 7340.99,4930.09 L 7348.13,4908.13 L 7749.6,5354.02 Z " />
<path stroke="transparent" fill="#000000" transform="matrix(0.0833333 0 0 0.0833333 -135.25 -350.917)" d="M 7672.15,5375.59 L 7657.28,5388.98 L 7311.43,5004.87 L 7326.3,4991.49 L 7672.15,5375.59 Z " />
<path stroke="transparent" fill="#000000" transform="matrix(0.0833333 0 0 0.0833333 -135.25 -350.917)" d="M 8330.85,5230.47 L 8335,5250.03 L 7753.76,5373.58 L 7746.04,5365 L 7749.6,5354.02 L 8330.85,5230.47 Z " />
<path stroke="transparent" fill="#000000" transform="matrix(0.0833333 0 0 0.0833333 -135.25 -350.917)" d="M 7570.14,5938.72 L 7551.12,5932.54 L 7734.74,5367.4 L 7746.04,5365 L 7753.76,5373.58 L 7570.14,5938.72 Z " />
</svg>
