<?xml version="1.0" standalone="no" ?>
<!DOCTYPE svg PUBLIC "-//W3C//DTD SVG 1.1//EN" "http://www.w3.org/Graphics/SVG/1.1/DTD/svg11.dtd">
<svg width="750px" height="413px" viewBox="0 0 750 413" style="background-color: #ffffff00" xmlns="http://www.w3.org/2000/svg" xmlns:xlink="http://www.w3.org/1999/xlink" version="1.1" >
<text x="0" y="0" stroke="transparent" fill="#000000" transform="matrix(0.0833333 0 0 0.0833333 201.915 365.731)" style="font:normal normal normal 200px 'Arial'" >
O</text>
<text x="0" y="0" stroke="transparent" fill="#000000" transform="matrix(0.0833333 0 0 0.0833333 288.518 365.731)" style="font:normal normal normal 200px 'Arial'" >
O</text>
<text x="0" y="0" stroke="transparent" fill="#000000" transform="matrix(0.0833333 0 0 0.0833333 450.12 409.033)" style="font:normal normal normal 200px 'Arial'" >
OH</text>
<text x="0" y="0" stroke="transparent" fill="#000000" transform="matrix(0.0833333 0 0 0.0833333 678.229 290.731)" style="font:normal normal normal 200px 'Arial'" >
OH</text>
<text x="0" y="0" stroke="transparent" fill="#000000" transform="matrix(0.0833333 0 0 0.0833333 721.53 215.731)" style="font:normal normal normal 200px 'Arial'" >
OH</text>
<text x="0" y="0" stroke="transparent" fill="#000000" transform="matrix(0.0833333 0 0 0.0833333 288.518 265.731)" style="font:normal normal normal 200px 'Arial'" >
O</text>
<text x="0" y="0" stroke="transparent" fill="#000000" transform="matrix(0.0833333 0 0 0.0833333 245.216 190.731)" style="font:normal normal normal 200px 'Arial'" >
O</text>
<text x="0" y="0" stroke="transparent" fill="#000000" transform="matrix(0.0833333 0 0 0.0833333 201.915 65.7313)" style="font:normal normal normal 200px 'Arial'" >
OH</text>
<text x="0" y="0" stroke="transparent" fill="#000000" transform="matrix(0.0833333 0 0 0.0833333 288.518 65.7313)" style="font:normal normal normal 200px 'Arial'" >
OH</text>
<text x="0" y="0" stroke="transparent" fill="#000000" transform="matrix(0.0833333 0 0 0.0833333 375.12 115.731)" style="font:normal normal normal 200px 'Arial'" >
OH</text>
<text x="0" y="0" stroke="transparent" fill="#000000" transform="matrix(0.0833333 0 0 0.0833333 375.12 215.731)" style="font:normal normal normal 200px 'Arial'" >
OH</text>
<text x="0" y="0" stroke="transparent" fill="#000000" transform="matrix(0.0833333 0 0 0.0833333 201.915 200.731)" style="font:normal normal normal 200px 'Arial'" >
O</text>
<text x="0" y="0" stroke="transparent" fill="#000000" transform="matrix(0.0833333 0 0 0.0833333 145.623 118.231)" style="font:normal normal normal 200px 'Arial'" >
O</text>
<text x="0" y="0" stroke="transparent" fill="#000000" transform="matrix(0.0833333 0 0 0.0833333 46.9848 18.2313)" style="font:normal normal normal 200px 'Arial'" >
HO</text>
<text x="0" y="0" stroke="transparent" fill="#000000" transform="matrix(0.0833333 0 0 0.0833333 3.68352 93.2313)" style="font:normal normal normal 200px 'Arial'" >
HO</text>
<text x="0" y="0" stroke="transparent" fill="#000000" transform="matrix(0.0833333 0 0 0.0833333 3.68352 193.231)" style="font:normal normal normal 200px 'Arial'" >
HO</text>
<text x="0" y="0" stroke="transparent" fill="#000000" transform="matrix(0.0833333 0 0 0.0833333 102.322 243.231)" style="font:normal normal normal 200px 'Arial'" >
OH</text>
<text x="0" y="0" stroke="transparent" fill="#000000" transform="matrix(0.0833333 0 0 0.0833333 103.276 265.731)" style="font:normal normal normal 200px 'Arial'" >
HO</text>
<path stroke="transparent" fill="#000000" transform="matrix(0.0833333 0 0 0.0833333 -266.375 -229.333)" d="M 5126.02,6781.16 L 5136.02,6798.48 L 5119.62,6810.07 L 5107.79,6789.57 L 5126.02,6781.16 Z " />
<path stroke="transparent" fill="#000000" transform="matrix(0.0833333 0 0 0.0833333 -266.375 -229.333)" d="M 5072.74,6805.74 L 5088.09,6832.33 L 5071.69,6843.92 L 5054.5,6814.16 L 5072.74,6805.74 Z " />
<path stroke="transparent" fill="#000000" transform="matrix(0.0833333 0 0 0.0833333 -266.375 -229.333)" d="M 5019.46,6830.32 L 5040.16,6866.19 L 5023.76,6877.77 L 5001.22,6838.74 L 5019.46,6830.32 Z " />
<path stroke="transparent" fill="#000000" transform="matrix(0.0833333 0 0 0.0833333 -266.375 -229.333)" d="M 4966.18,6854.91 L 4992.23,6900.04 L 4975.83,6911.62 L 4947.94,6863.32 L 4966.18,6854.91 Z " />
<path stroke="transparent" fill="#000000" transform="matrix(0.0833333 0 0 0.0833333 -266.375 -229.333)" d="M 4912.9,6879.49 L 4944.3,6933.89 L 4927.9,6945.48 L 4894.66,6887.9 L 4912.9,6879.49 Z " />
<path stroke="transparent" fill="#000000" transform="matrix(0.0833333 0 0 0.0833333 -266.375 -229.333)" d="M 4859.61,6904.07 L 4896.37,6967.74 L 4879.97,6979.33 L 4841.38,6912.49 L 4859.61,6904.07 Z " />
<path stroke="transparent" fill="#000000" transform="matrix(0.0833333 0 0 0.0833333 -266.375 -229.333)" d="M 4806.33,6928.65 L 4848.44,7001.59 L 4832.04,7013.18 L 4788.1,6937.07 L 4806.33,6928.65 Z " />
<path stroke="transparent" fill="#000000" transform="matrix(0.0833333 0 0 0.0833333 -266.375 -229.333)" d="M 4753.05,6953.24 L 4800.51,7035.45 L 4784.11,7047.03 L 4734.81,6961.65 L 4753.05,6953.24 Z " />
<path stroke="transparent" fill="#000000" transform="matrix(0.0833333 0 0 0.0833333 -266.375 -229.333)" d="M 4699.77,6977.82 L 4752.59,7069.3 L 4736.18,7080.89 L 4681.53,6986.23 L 4699.77,6977.82 Z " />
<path stroke="transparent" fill="#000000" transform="matrix(0.0833333 0 0 0.0833333 -266.375 -229.333)" d="M 4646.49,7002.4 L 4704.66,7103.15 L 4688.25,7114.74 L 4628.25,7010.81 L 4646.49,7002.4 Z " />
<path stroke="transparent" fill="#000000" transform="matrix(0.0833333 0 0 0.0833333 -266.375 -229.333)" d="M 5167.87,6157 L 5187.87,6168.55 L 5187.87,6757 L 5167.87,6768.55 L 5167.87,6157 Z " />
<path stroke="transparent" fill="#000000" transform="matrix(0.0833333 0 0 0.0833333 -266.375 -229.333)" d="M 5697.48,5851.23 L 5697.48,5874.32 L 5187.87,6168.55 L 5167.87,6157 L 5697.48,5851.23 Z " />
<path stroke="transparent" fill="#000000" transform="matrix(0.0833333 0 0 0.0833333 -266.375 -229.333)" d="M 6216.53,6150.9 L 6217.1,6162.78 L 6207.1,6168.55 L 5697.48,5874.32 L 5697.48,5851.23 L 6216.53,6150.9 Z " />
<path stroke="transparent" fill="#000000" transform="matrix(0.0833333 0 0 0.0833333 -266.375 -229.333)" d="M 6227.1,6768.55 L 6207.1,6757 L 6207.1,6168.55 L 6217.1,6162.78 L 6227.1,6169.2 L 6227.1,6768.55 Z " />
<path stroke="transparent" fill="#000000" transform="matrix(0.0833333 0 0 0.0833333 -266.375 -229.333)" d="M 5795.1,7017.96 L 5785.1,7000.64 L 6207.1,6757 L 6227.1,6768.55 L 5795.1,7017.96 Z " />
<path stroke="transparent" fill="#000000" transform="matrix(0.0833333 0 0 0.0833333 -266.375 -229.333)" d="M 5609.86,7000.64 L 5599.86,7017.96 L 5167.87,6768.55 L 5187.87,6757 L 5609.86,7000.64 Z " />
<path stroke="transparent" fill="#000000" transform="matrix(0.0833333 0 0 0.0833333 -266.375 -229.333)" d="M 6674.09,6957.34 L 6614.09,7061.26 L 6597.91,7049.29 L 6655.63,6949.31 L 6674.09,6957.34 Z " />
<path stroke="transparent" fill="#000000" transform="matrix(0.0833333 0 0 0.0833333 -266.375 -229.333)" d="M 6618.84,6933.31 L 6565.66,7025.43 L 6549.48,7013.46 L 6600.38,6925.29 L 6618.84,6933.31 Z " />
<path stroke="transparent" fill="#000000" transform="matrix(0.0833333 0 0 0.0833333 -266.375 -229.333)" d="M 6563.59,6909.29 L 6517.22,6989.59 L 6501.04,6977.62 L 6545.13,6901.26 L 6563.59,6909.29 Z " />
<path stroke="transparent" fill="#000000" transform="matrix(0.0833333 0 0 0.0833333 -266.375 -229.333)" d="M 6508.34,6885.26 L 6468.79,6953.76 L 6452.61,6941.78 L 6489.88,6877.23 L 6508.34,6885.26 Z " />
<path stroke="transparent" fill="#000000" transform="matrix(0.0833333 0 0 0.0833333 -266.375 -229.333)" d="M 6453.08,6861.23 L 6420.35,6917.92 L 6404.17,6905.95 L 6434.62,6853.2 L 6453.08,6861.23 Z " />
<path stroke="transparent" fill="#000000" transform="matrix(0.0833333 0 0 0.0833333 -266.375 -229.333)" d="M 6397.83,6837.2 L 6371.92,6882.08 L 6355.74,6870.11 L 6379.37,6829.17 L 6397.83,6837.2 Z " />
<path stroke="transparent" fill="#000000" transform="matrix(0.0833333 0 0 0.0833333 -266.375 -229.333)" d="M 6342.58,6813.17 L 6323.48,6846.25 L 6307.3,6834.27 L 6324.12,6805.15 L 6342.58,6813.17 Z " />
<path stroke="transparent" fill="#000000" transform="matrix(0.0833333 0 0 0.0833333 -266.375 -229.333)" d="M 6287.33,6789.15 L 6275.05,6810.41 L 6258.87,6798.44 L 6268.87,6781.12 L 6287.33,6789.15 Z " />
<path stroke="transparent" fill="#000000" transform="matrix(0.0833333 0 0 0.0833333 -266.375 -229.333)" d="M 7246.33,6756.36 L 7256.33,6762.78 L 7256.88,6774.64 L 6859.33,7061.26 L 6799.33,6957.34 L 7246.33,6756.36 Z " />
<path stroke="transparent" fill="#000000" transform="matrix(0.0833333 0 0 0.0833333 -266.375 -229.333)" d="M 7246.33,6157 L 7266.33,6168.55 L 7266.33,6757 L 7256.33,6762.78 L 7246.33,6756.36 L 7246.33,6157 Z " />
<path stroke="transparent" fill="#000000" transform="matrix(0.0833333 0 0 0.0833333 -266.375 -229.333)" d="M 7775.94,5851.23 L 7775.94,5874.32 L 7266.33,6168.55 L 7246.33,6157 L 7775.94,5851.23 Z " />
<path stroke="transparent" fill="#000000" transform="matrix(0.0833333 0 0 0.0833333 -266.375 -229.333)" d="M 8284.04,6144.58 L 8295.56,6162.78 L 8285.56,6168.55 L 7775.94,5874.32 L 7775.94,5851.23 L 8284.04,6144.58 Z " />
<path stroke="transparent" fill="#000000" transform="matrix(0.0833333 0 0 0.0833333 -266.375 -229.333)" d="M 8305.56,6756.47 L 8295.56,6762.78 L 8285.56,6757 L 8285.56,6168.55 L 8295.56,6162.78 L 8305.56,6168.55 L 8305.56,6756.47 Z " />
<path stroke="transparent" fill="#000000" transform="matrix(0.0833333 0 0 0.0833333 -266.375 -229.333)" d="M 7783.6,7069.9 L 7775.94,7062.78 L 7775.94,7051.23 L 8285.56,6757 L 8295.56,6762.78 L 8295.1,6774.59 L 7783.6,7069.9 Z " />
<path stroke="transparent" fill="#000000" transform="matrix(0.0833333 0 0 0.0833333 -266.375 -229.333)" d="M 7775.94,7051.23 L 7775.94,7062.78 L 7761.56,7066.02 L 7256.88,6774.64 L 7256.33,6762.78 L 7266.33,6757 L 7775.94,7051.23 Z " />
<path stroke="transparent" fill="#000000" transform="matrix(0.0833333 0 0 0.0833333 -266.375 -229.333)" d="M 7527.9,7612.39 L 7423.98,7552.39 L 7761.56,7066.02 L 7775.94,7062.78 L 7783.6,7069.9 L 7527.9,7612.39 Z " />
<path stroke="transparent" fill="#000000" transform="matrix(0.0833333 0 0 0.0833333 -266.375 -229.333)" d="M 8100.9,7505.63 L 7996.98,7565.63 L 7988.74,7547.29 L 8089.14,7489.32 L 8100.9,7505.63 Z " />
<path stroke="transparent" fill="#000000" transform="matrix(0.0833333 0 0 0.0833333 -266.375 -229.333)" d="M 8066.21,7457.53 L 7972.67,7511.53 L 7964.43,7493.2 L 8054.45,7441.22 L 8066.21,7457.53 Z " />
<path stroke="transparent" fill="#000000" transform="matrix(0.0833333 0 0 0.0833333 -266.375 -229.333)" d="M 8031.52,7409.43 L 7948.37,7457.44 L 7940.13,7439.1 L 8019.76,7393.13 L 8031.52,7409.43 Z " />
<path stroke="transparent" fill="#000000" transform="matrix(0.0833333 0 0 0.0833333 -266.375 -229.333)" d="M 7996.83,7361.33 L 7924.06,7403.35 L 7915.82,7385.01 L 7985.07,7345.03 L 7996.83,7361.33 Z " />
<path stroke="transparent" fill="#000000" transform="matrix(0.0833333 0 0 0.0833333 -266.375 -229.333)" d="M 7962.13,7313.24 L 7899.75,7349.25 L 7891.51,7330.91 L 7950.37,7296.93 L 7962.13,7313.24 Z " />
<path stroke="transparent" fill="#000000" transform="matrix(0.0833333 0 0 0.0833333 -266.375 -229.333)" d="M 7927.44,7265.14 L 7875.44,7295.16 L 7867.2,7276.82 L 7915.68,7248.83 L 7927.44,7265.14 Z " />
<path stroke="transparent" fill="#000000" transform="matrix(0.0833333 0 0 0.0833333 -266.375 -229.333)" d="M 7892.75,7217.04 L 7851.14,7241.06 L 7842.9,7222.73 L 7880.99,7200.74 L 7892.75,7217.04 Z " />
<path stroke="transparent" fill="#000000" transform="matrix(0.0833333 0 0 0.0833333 -266.375 -229.333)" d="M 7858.06,7168.94 L 7826.83,7186.97 L 7818.59,7168.63 L 7846.3,7152.64 L 7858.06,7168.94 Z " />
<path stroke="transparent" fill="#000000" transform="matrix(0.0833333 0 0 0.0833333 -266.375 -229.333)" d="M 7823.36,7120.85 L 7802.52,7132.88 L 7794.28,7114.54 L 7811.6,7104.54 L 7823.36,7120.85 Z " />
<path stroke="transparent" fill="#000000" transform="matrix(0.0833333 0 0 0.0833333 -266.375 -229.333)" d="M 8567.94,7572.39 L 8567.94,7592.39 L 8075.94,7592.39 L 8075.94,7572.39 L 8567.94,7572.39 Z " />
<path stroke="transparent" fill="#000000" transform="matrix(0.0833333 0 0 0.0833333 -266.375 -229.333)" d="M 8867.19,7021.19 L 8767.01,7102.13 L 8295.1,6774.59 L 8295.56,6762.78 L 8305.56,6756.47 L 8867.19,7021.19 Z " />
<path stroke="transparent" fill="#000000" transform="matrix(0.0833333 0 0 0.0833333 -266.375 -229.333)" d="M 9324.79,6757 L 9344.79,6768.55 L 8767.01,7102.13 L 8867.19,7021.19 L 9324.79,6757 Z " />
<path stroke="transparent" fill="#000000" transform="matrix(0.0833333 0 0 0.0833333 -266.375 -229.333)" d="M 9324.79,6168.55 L 9334.79,6162.78 L 9344.79,6168.55 L 9344.79,6768.55 L 9324.79,6757 L 9324.79,6168.55 Z " />
<path stroke="transparent" fill="#000000" transform="matrix(0.0833333 0 0 0.0833333 -266.375 -229.333)" d="M 8815.17,5874.32 L 8815.17,5862.78 L 8825.63,5857.27 L 9323.27,6144.58 L 9334.79,6162.78 L 9324.79,6168.55 L 8815.17,5874.32 Z " />
<path stroke="transparent" fill="#000000" transform="matrix(0.0833333 0 0 0.0833333 -266.375 -229.333)" d="M 8804.71,5857.27 L 8815.17,5862.78 L 8815.17,5874.32 L 8305.56,6168.55 L 8295.56,6162.78 L 8307.07,6144.58 L 8804.71,5857.27 Z " />
<path stroke="transparent" fill="#000000" transform="matrix(0.0833333 0 0 0.0833333 -266.375 -229.333)" d="M 8757.01,5284.81 L 8877.19,5238.51 L 8825.63,5857.27 L 8815.17,5862.78 L 8804.71,5857.27 L 8757.01,5284.81 Z " />
<path stroke="transparent" fill="#000000" transform="matrix(0.0833333 0 0 0.0833333 -266.375 -229.333)" d="M 9334.79,4951.23 L 9334.79,4974.32 L 8877.19,5238.51 L 8757.01,5284.81 L 9334.79,4951.23 Z " />
<path stroke="transparent" fill="#000000" transform="matrix(0.0833333 0 0 0.0833333 -266.375 -229.333)" d="M 9329.79,5037.25 L 9339.79,5054.57 L 8892.17,5313.01 L 8882.17,5295.68 L 9329.79,5037.25 Z " />
<path stroke="transparent" fill="#000000" transform="matrix(0.0833333 0 0 0.0833333 -266.375 -229.333)" d="M 9854.4,5251.23 L 9854.4,5262.78 L 9844.4,5268.55 L 9334.79,4974.32 L 9334.79,4951.23 L 9854.4,5251.23 Z " />
<path stroke="transparent" fill="#000000" transform="matrix(0.0833333 0 0 0.0833333 -266.375 -229.333)" d="M 10364,4957 L 10374,4962.78 L 10374,4974.32 L 9864.4,5268.55 L 9854.4,5262.78 L 9854.4,5251.23 L 10364,4957 Z " />
<path stroke="transparent" fill="#000000" transform="matrix(0.0833333 0 0 0.0833333 -266.375 -229.333)" d="M 10369,5037.25 L 10379,5054.57 L 9931.4,5313.01 L 9921.4,5295.68 L 10369,5037.25 Z " />
<path stroke="transparent" fill="#000000" transform="matrix(0.0833333 0 0 0.0833333 -266.375 -229.333)" d="M 10364,4357 L 10384,4368.55 L 10384,4957 L 10374,4962.78 L 10364,4957 L 10364,4357 Z " />
<path stroke="transparent" fill="#000000" transform="matrix(0.0833333 0 0 0.0833333 -266.375 -229.333)" d="M 10880,4059.12 L 10893.6,4062.78 L 10893.6,4074.32 L 10384,4368.55 L 10364,4357 L 10880,4059.12 Z " />
<path stroke="transparent" fill="#000000" transform="matrix(0.0833333 0 0 0.0833333 -266.375 -229.333)" d="M 11423.2,4357 L 11403.2,4368.55 L 10893.6,4074.32 L 10893.6,4062.78 L 10907.3,4059.12 L 11423.2,4357 Z " />
<path stroke="transparent" fill="#000000" transform="matrix(0.0833333 0 0 0.0833333 -266.375 -229.333)" d="M 11423.2,4968.55 L 11403.2,4957 L 11403.2,4368.55 L 11423.2,4357 L 11423.2,4968.55 Z " />
<path stroke="transparent" fill="#000000" transform="matrix(0.0833333 0 0 0.0833333 -266.375 -229.333)" d="M 10915.2,5261.9 L 10893.6,5262.78 L 10893.6,5251.23 L 11403.2,4957 L 11423.2,4968.55 L 10915.2,5261.9 Z " />
<path stroke="transparent" fill="#000000" transform="matrix(0.0833333 0 0 0.0833333 -266.375 -229.333)" d="M 10893.6,5251.23 L 10893.6,5262.78 L 10883.6,5268.55 L 10374,4974.32 L 10374,4962.78 L 10384,4957 L 10893.6,5251.23 Z " />
<path stroke="transparent" fill="#000000" transform="matrix(0.0833333 0 0 0.0833333 -266.375 -229.333)" d="M 10903.6,5856.36 L 10893.6,5862.78 L 10883.6,5857 L 10883.6,5268.55 L 10893.6,5262.78 L 10903.6,5281.85 L 10903.6,5856.36 Z " />
<path stroke="transparent" fill="#000000" transform="matrix(0.0833333 0 0 0.0833333 -266.375 -229.333)" d="M 10374,6174.32 L 10374,6151.23 L 10883.6,5857 L 10893.6,5862.78 L 10893.1,5874.64 L 10374,6174.32 Z " />
<path stroke="transparent" fill="#000000" transform="matrix(0.0833333 0 0 0.0833333 -266.375 -229.333)" d="M 9854.4,5874.32 L 9854.4,5862.78 L 9864.4,5857 L 10374,6151.23 L 10374,6174.32 L 9854.4,5874.32 Z " />
<path stroke="transparent" fill="#000000" transform="matrix(0.0833333 0 0 0.0833333 -266.375 -229.333)" d="M 9864.4,5857 L 9854.4,5862.78 L 9844.4,5857 L 9844.4,5268.55 L 9854.4,5262.78 L 9864.4,5268.55 L 9864.4,5857 Z " />
<path stroke="transparent" fill="#000000" transform="matrix(0.0833333 0 0 0.0833333 -266.375 -229.333)" d="M 9844.4,5857 L 9854.4,5862.78 L 9854.4,5874.32 L 9344.79,6168.55 L 9334.79,6162.78 L 9346.3,6144.58 L 9844.4,5857 Z " />
<path stroke="transparent" fill="#000000" transform="matrix(0.0833333 0 0 0.0833333 -266.375 -229.333)" d="M 9914.4,6462.78 L 9794.4,6462.78 L 9796.23,6442.78 L 9912.57,6442.78 L 9914.4,6462.78 Z " />
<path stroke="transparent" fill="#000000" transform="matrix(0.0833333 0 0 0.0833333 -266.375 -229.333)" d="M 9909.05,6404.33 L 9799.76,6404.33 L 9801.59,6384.33 L 9907.22,6384.33 L 9909.05,6404.33 Z " />
<path stroke="transparent" fill="#000000" transform="matrix(0.0833333 0 0 0.0833333 -266.375 -229.333)" d="M 9903.7,6345.89 L 9805.11,6345.89 L 9806.94,6325.89 L 9901.87,6325.89 L 9903.7,6345.89 Z " />
<path stroke="transparent" fill="#000000" transform="matrix(0.0833333 0 0 0.0833333 -266.375 -229.333)" d="M 9898.35,6287.44 L 9810.46,6287.44 L 9812.29,6267.44 L 9896.52,6267.44 L 9898.35,6287.44 Z " />
<path stroke="transparent" fill="#000000" transform="matrix(0.0833333 0 0 0.0833333 -266.375 -229.333)" d="M 9893,6229 L 9815.81,6229 L 9817.64,6209 L 9891.16,6209 L 9893,6229 Z " />
<path stroke="transparent" fill="#000000" transform="matrix(0.0833333 0 0 0.0833333 -266.375 -229.333)" d="M 9887.64,6170.55 L 9821.16,6170.55 L 9823,6150.55 L 9885.81,6150.55 L 9887.64,6170.55 Z " />
<path stroke="transparent" fill="#000000" transform="matrix(0.0833333 0 0 0.0833333 -266.375 -229.333)" d="M 9882.29,6112.11 L 9826.52,6112.11 L 9828.35,6092.11 L 9880.46,6092.11 L 9882.29,6112.11 Z " />
<path stroke="transparent" fill="#000000" transform="matrix(0.0833333 0 0 0.0833333 -266.375 -229.333)" d="M 9876.94,6053.66 L 9831.87,6053.66 L 9833.7,6033.66 L 9875.11,6033.66 L 9876.94,6053.66 Z " />
<path stroke="transparent" fill="#000000" transform="matrix(0.0833333 0 0 0.0833333 -266.375 -229.333)" d="M 9871.59,5995.22 L 9837.22,5995.22 L 9839.05,5975.22 L 9869.76,5975.22 L 9871.59,5995.22 Z " />
<path stroke="transparent" fill="#000000" transform="matrix(0.0833333 0 0 0.0833333 -266.375 -229.333)" d="M 9866.23,5936.78 L 9842.57,5936.78 L 9844.4,5916.78 L 9864.4,5916.78 L 9866.23,5936.78 Z " />
<path stroke="transparent" fill="#000000" transform="matrix(0.0833333 0 0 0.0833333 -266.375 -229.333)" d="M 11350.6,6057.34 L 11290.6,6161.26 L 10893.1,5874.64 L 10893.6,5862.78 L 10903.6,5856.36 L 11350.6,6057.34 Z " />
<path stroke="transparent" fill="#000000" transform="matrix(0.0833333 0 0 0.0833333 -266.375 -229.333)" d="M 11465.3,5521.19 L 11365.1,5602.13 L 10903.6,5281.85 L 10893.6,5262.78 L 10915.2,5261.9 L 11465.3,5521.19 Z " />
<path stroke="transparent" fill="#000000" transform="matrix(0.0833333 0 0 0.0833333 -266.375 -229.333)" d="M 11828.3,5311.62 L 11838.3,5328.94 L 11365.1,5602.13 L 11465.3,5521.19 L 11828.3,5311.62 Z " />
<path stroke="transparent" fill="#000000" transform="matrix(0.0833333 0 0 0.0833333 -266.375 -229.333)" d="M 10585,3548.16 L 10602.3,3538.16 L 10893.6,4042.78 L 10893.6,4062.78 L 10880,4059.12 L 10585,3548.16 Z " />
<path stroke="transparent" fill="#000000" transform="matrix(0.0833333 0 0 0.0833333 -266.375 -229.333)" d="M 11185,3538.16 L 11202.3,3548.16 L 10907.3,4059.12 L 10893.6,4062.78 L 10893.6,4042.78 L 11185,3538.16 Z " />
<path stroke="transparent" fill="#000000" transform="matrix(0.0833333 0 0 0.0833333 -266.375 -229.333)" d="M 9274.79,5562.78 L 9394.79,5562.78 L 9346.3,6144.58 L 9334.79,6162.78 L 9323.27,6144.58 L 9274.79,5562.78 Z " />
<path stroke="transparent" fill="#000000" transform="matrix(0.0833333 0 0 0.0833333 -266.375 -229.333)" d="M 8235.56,5562.78 L 8355.56,5562.78 L 8307.07,6144.58 L 8295.56,6162.78 L 8284.04,6144.58 L 8235.56,5562.78 Z " />
<path stroke="transparent" fill="#000000" transform="matrix(0.0833333 0 0 0.0833333 -266.375 -229.333)" d="M 6607.11,5868.32 L 6667.11,5972.24 L 6227.1,6169.2 L 6217.1,6162.78 L 6216.53,6150.9 L 6607.11,5868.32 Z " />
<path stroke="transparent" fill="#000000" transform="matrix(0.0833333 0 0 0.0833333 -266.375 -229.333)" d="M 6726.71,5316.87 L 6746.71,5316.87 L 6748.98,5336.87 L 6724.44,5336.87 L 6726.71,5316.87 Z " />
<path stroke="transparent" fill="#000000" transform="matrix(0.0833333 0 0 0.0833333 -266.375 -229.333)" d="M 6719.89,5376.97 L 6753.53,5376.97 L 6755.8,5396.97 L 6717.62,5396.97 L 6719.89,5376.97 Z " />
<path stroke="transparent" fill="#000000" transform="matrix(0.0833333 0 0 0.0833333 -266.375 -229.333)" d="M 6713.07,5437.08 L 6760.35,5437.08 L 6762.62,5457.08 L 6710.81,5457.08 L 6713.07,5437.08 Z " />
<path stroke="transparent" fill="#000000" transform="matrix(0.0833333 0 0 0.0833333 -266.375 -229.333)" d="M 6706.26,5497.18 L 6767.17,5497.18 L 6769.44,5517.18 L 6703.99,5517.18 L 6706.26,5497.18 Z " />
<path stroke="transparent" fill="#000000" transform="matrix(0.0833333 0 0 0.0833333 -266.375 -229.333)" d="M 6699.44,5557.29 L 6773.99,5557.29 L 6776.26,5577.29 L 6697.17,5577.29 L 6699.44,5557.29 Z " />
<path stroke="transparent" fill="#000000" transform="matrix(0.0833333 0 0 0.0833333 -266.375 -229.333)" d="M 6692.62,5617.4 L 6780.81,5617.4 L 6783.07,5637.4 L 6690.35,5637.4 L 6692.62,5617.4 Z " />
<path stroke="transparent" fill="#000000" transform="matrix(0.0833333 0 0 0.0833333 -266.375 -229.333)" d="M 6685.8,5677.5 L 6787.62,5677.5 L 6789.89,5697.5 L 6683.53,5697.5 L 6685.8,5677.5 Z " />
<path stroke="transparent" fill="#000000" transform="matrix(0.0833333 0 0 0.0833333 -266.375 -229.333)" d="M 6678.98,5737.61 L 6794.44,5737.61 L 6796.71,5757.61 L 6676.71,5757.61 L 6678.98,5737.61 Z " />
<path stroke="transparent" fill="#000000" transform="matrix(0.0833333 0 0 0.0833333 -266.375 -229.333)" d="M 7246.33,4957 L 7256.33,4962.78 L 7255.77,4974.64 L 6736.71,5274.32 L 6736.71,5251.23 L 7246.33,4957 Z " />
<path stroke="transparent" fill="#000000" transform="matrix(0.0833333 0 0 0.0833333 -266.375 -229.333)" d="M 7246.33,4368.55 L 7266.33,4357 L 7266.33,4956.36 L 7256.33,4962.78 L 7246.33,4957 L 7246.33,4368.55 Z " />
<path stroke="transparent" fill="#000000" transform="matrix(0.0833333 0 0 0.0833333 -266.375 -229.333)" d="M 6736.71,4074.32 L 6736.71,4062.78 L 6747.28,4057.33 L 7266.33,4357 L 7246.33,4368.55 L 6736.71,4074.32 Z " />
<path stroke="transparent" fill="#000000" transform="matrix(0.0833333 0 0 0.0833333 -266.375 -229.333)" d="M 6227.1,4368.55 L 6207.1,4357 L 6726.14,4057.33 L 6736.71,4062.78 L 6736.71,4074.32 L 6227.1,4368.55 Z " />
<path stroke="transparent" fill="#000000" transform="matrix(0.0833333 0 0 0.0833333 -266.375 -229.333)" d="M 6227.1,4857.61 L 6207.1,4857.61 L 6207.1,4357 L 6227.1,4368.55 L 6227.1,4857.61 Z " />
<path stroke="transparent" fill="#000000" transform="matrix(0.0833333 0 0 0.0833333 -266.375 -229.333)" d="M 6312.13,5029.19 L 6322.13,5011.87 L 6736.71,5251.23 L 6736.71,5274.32 L 6312.13,5029.19 Z " />
<path stroke="transparent" fill="#000000" transform="matrix(0.0833333 0 0 0.0833333 -266.375 -229.333)" d="M 5714.25,4141.74 L 5774.25,4037.81 L 5790.55,4049.57 L 5732.58,4149.98 L 5714.25,4141.74 Z " />
<path stroke="transparent" fill="#000000" transform="matrix(0.0833333 0 0 0.0833333 -266.375 -229.333)" d="M 5768.34,4166.04 L 5822.34,4072.51 L 5838.65,4084.27 L 5786.68,4174.28 L 5768.34,4166.04 Z " />
<path stroke="transparent" fill="#000000" transform="matrix(0.0833333 0 0 0.0833333 -266.375 -229.333)" d="M 5822.43,4190.35 L 5870.44,4107.2 L 5886.75,4118.96 L 5840.77,4198.59 L 5822.43,4190.35 Z " />
<path stroke="transparent" fill="#000000" transform="matrix(0.0833333 0 0 0.0833333 -266.375 -229.333)" d="M 5876.53,4214.66 L 5918.54,4141.89 L 5934.84,4153.65 L 5894.86,4222.9 L 5876.53,4214.66 Z " />
<path stroke="transparent" fill="#000000" transform="matrix(0.0833333 0 0 0.0833333 -266.375 -229.333)" d="M 5930.62,4238.97 L 5966.64,4176.58 L 5982.94,4188.34 L 5948.96,4247.21 L 5930.62,4238.97 Z " />
<path stroke="transparent" fill="#000000" transform="matrix(0.0833333 0 0 0.0833333 -266.375 -229.333)" d="M 5984.71,4263.27 L 6014.73,4211.28 L 6031.04,4223.04 L 6003.05,4271.51 L 5984.71,4263.27 Z " />
<path stroke="transparent" fill="#000000" transform="matrix(0.0833333 0 0 0.0833333 -266.375 -229.333)" d="M 6038.81,4287.58 L 6062.83,4245.97 L 6079.14,4257.73 L 6057.14,4295.82 L 6038.81,4287.58 Z " />
<path stroke="transparent" fill="#000000" transform="matrix(0.0833333 0 0 0.0833333 -266.375 -229.333)" d="M 6092.9,4311.89 L 6110.93,4280.66 L 6127.23,4292.42 L 6111.24,4320.13 L 6092.9,4311.89 Z " />
<path stroke="transparent" fill="#000000" transform="matrix(0.0833333 0 0 0.0833333 -266.375 -229.333)" d="M 6146.99,4336.2 L 6159.03,4315.36 L 6175.33,4327.12 L 6165.33,4344.44 L 6146.99,4336.2 Z " />
<path stroke="transparent" fill="#000000" transform="matrix(0.0833333 0 0 0.0833333 -266.375 -229.333)" d="M 5687.48,3582.61 L 5707.48,3582.61 L 5707.48,4062.78 L 5687.48,4062.78 L 5687.48,3582.61 Z " />
<path stroke="transparent" fill="#000000" transform="matrix(0.0833333 0 0 0.0833333 -266.375 -229.333)" d="M 6676.71,3582.61 L 6796.71,3582.61 L 6747.28,4057.33 L 6736.71,4062.78 L 6726.14,4057.33 L 6676.71,3582.61 Z " />
<path stroke="transparent" fill="#000000" transform="matrix(0.0833333 0 0 0.0833333 -266.375 -229.333)" d="M 7646.34,4068.32 L 7706.34,4172.24 L 7687.86,4180.23 L 7630.18,4080.33 L 7646.34,4068.32 Z " />
<path stroke="transparent" fill="#000000" transform="matrix(0.0833333 0 0 0.0833333 -266.375 -229.333)" d="M 7598.91,4103.57 L 7652.1,4195.69 L 7633.62,4203.68 L 7582.75,4115.58 L 7598.91,4103.57 Z " />
<path stroke="transparent" fill="#000000" transform="matrix(0.0833333 0 0 0.0833333 -266.375 -229.333)" d="M 7551.48,4138.81 L 7597.86,4219.14 L 7579.38,4227.13 L 7535.32,4150.82 L 7551.48,4138.81 Z " />
<path stroke="transparent" fill="#000000" transform="matrix(0.0833333 0 0 0.0833333 -266.375 -229.333)" d="M 7504.06,4174.06 L 7543.62,4242.59 L 7525.14,4250.58 L 7487.9,4186.07 L 7504.06,4174.06 Z " />
<path stroke="transparent" fill="#000000" transform="matrix(0.0833333 0 0 0.0833333 -266.375 -229.333)" d="M 7456.63,4209.31 L 7489.38,4266.04 L 7470.9,4274.03 L 7440.47,4221.32 L 7456.63,4209.31 Z " />
<path stroke="transparent" fill="#000000" transform="matrix(0.0833333 0 0 0.0833333 -266.375 -229.333)" d="M 7409.2,4244.56 L 7435.15,4289.49 L 7416.66,4297.48 L 7393.04,4256.57 L 7409.2,4244.56 Z " />
<path stroke="transparent" fill="#000000" transform="matrix(0.0833333 0 0 0.0833333 -266.375 -229.333)" d="M 7361.78,4279.8 L 7380.91,4312.94 L 7362.43,4320.93 L 7345.62,4291.81 L 7361.78,4279.8 Z " />
<path stroke="transparent" fill="#000000" transform="matrix(0.0833333 0 0 0.0833333 -266.375 -229.333)" d="M 7314.35,4315.05 L 7326.67,4336.39 L 7308.19,4344.38 L 7298.19,4327.06 L 7314.35,4315.05 Z " />
<path stroke="transparent" fill="#000000" transform="matrix(0.0833333 0 0 0.0833333 -266.375 -229.333)" d="M 7713.32,5157.34 L 7653.32,5261.26 L 7255.77,4974.64 L 7256.33,4962.78 L 7266.33,4956.36 L 7713.32,5157.34 Z " />
<path stroke="transparent" fill="#000000" transform="matrix(0.0833333 0 0 0.0833333 -266.375 -229.333)" d="M 5637.48,5202.61 L 5757.48,5202.61 L 5755.83,5222.61 L 5639.13,5222.61 L 5637.48,5202.61 Z " />
<path stroke="transparent" fill="#000000" transform="matrix(0.0833333 0 0 0.0833333 -266.375 -229.333)" d="M 5642.32,5261.22 L 5752.65,5261.22 L 5751,5281.22 L 5643.97,5281.22 L 5642.32,5261.22 Z " />
<path stroke="transparent" fill="#000000" transform="matrix(0.0833333 0 0 0.0833333 -266.375 -229.333)" d="M 5647.15,5319.84 L 5747.81,5319.84 L 5746.16,5339.84 L 5648.8,5339.84 L 5647.15,5319.84 Z " />
<path stroke="transparent" fill="#000000" transform="matrix(0.0833333 0 0 0.0833333 -266.375 -229.333)" d="M 5651.99,5378.45 L 5742.98,5378.45 L 5741.33,5398.45 L 5653.64,5398.45 L 5651.99,5378.45 Z " />
<path stroke="transparent" fill="#000000" transform="matrix(0.0833333 0 0 0.0833333 -266.375 -229.333)" d="M 5656.82,5437.07 L 5738.14,5437.07 L 5736.49,5457.07 L 5658.47,5457.07 L 5656.82,5437.07 Z " />
<path stroke="transparent" fill="#000000" transform="matrix(0.0833333 0 0 0.0833333 -266.375 -229.333)" d="M 5661.66,5495.69 L 5733.31,5495.69 L 5731.66,5515.69 L 5663.31,5515.69 L 5661.66,5495.69 Z " />
<path stroke="transparent" fill="#000000" transform="matrix(0.0833333 0 0 0.0833333 -266.375 -229.333)" d="M 5666.49,5554.3 L 5728.47,5554.3 L 5726.82,5574.3 L 5668.14,5574.3 L 5666.49,5554.3 Z " />
<path stroke="transparent" fill="#000000" transform="matrix(0.0833333 0 0 0.0833333 -266.375 -229.333)" d="M 5671.33,5612.92 L 5723.64,5612.92 L 5721.99,5632.92 L 5672.98,5632.92 L 5671.33,5612.92 Z " />
<path stroke="transparent" fill="#000000" transform="matrix(0.0833333 0 0 0.0833333 -266.375 -229.333)" d="M 5676.16,5671.53 L 5718.8,5671.53 L 5717.15,5691.53 L 5677.81,5691.53 L 5676.16,5671.53 Z " />
<path stroke="transparent" fill="#000000" transform="matrix(0.0833333 0 0 0.0833333 -266.375 -229.333)" d="M 5681,5730.15 L 5713.97,5730.15 L 5712.32,5750.15 L 5682.65,5750.15 L 5681,5730.15 Z " />
<path stroke="transparent" fill="#000000" transform="matrix(0.0833333 0 0 0.0833333 -266.375 -229.333)" d="M 5685.83,5788.76 L 5709.13,5788.76 L 5707.48,5808.76 L 5687.48,5808.76 L 5685.83,5788.76 Z " />
<path stroke="transparent" fill="#000000" transform="matrix(0.0833333 0 0 0.0833333 -266.375 -229.333)" d="M 5021.57,4704.56 L 5021.98,4692.78 L 5031.98,4686.53 L 5634.86,4977.34 L 5574.86,5081.26 L 5021.57,4704.56 Z " />
<path stroke="transparent" fill="#000000" transform="matrix(0.0833333 0 0 0.0833333 -266.375 -229.333)" d="M 4502.37,5004.32 L 4502.37,4981.23 L 5011.98,4687 L 5021.98,4692.78 L 5021.57,4704.56 L 4502.37,5004.32 Z " />
<path stroke="transparent" fill="#000000" transform="matrix(0.0833333 0 0 0.0833333 -266.375 -229.333)" d="M 3983.3,4704.64 L 3982.75,4692.78 L 3992.75,4687 L 4502.37,4981.23 L 4502.37,5004.32 L 3983.3,4704.64 Z " />
<path stroke="transparent" fill="#000000" transform="matrix(0.0833333 0 0 0.0833333 -266.375 -229.333)" d="M 3972.75,4087 L 3992.75,4098.55 L 3992.75,4687 L 3982.75,4692.78 L 3972.75,4686.36 L 3972.75,4087 Z " />
<path stroke="transparent" fill="#000000" transform="matrix(0.0833333 0 0 0.0833333 -266.375 -229.333)" d="M 4491.91,3787.27 L 4502.37,3792.78 L 4502.37,3804.32 L 3992.75,4098.55 L 3972.75,4087 L 4491.91,3787.27 Z " />
<path stroke="transparent" fill="#000000" transform="matrix(0.0833333 0 0 0.0833333 -266.375 -229.333)" d="M 4934.36,4030.64 L 4924.36,4047.96 L 4502.37,3804.32 L 4502.37,3792.78 L 4512.83,3787.27 L 4934.36,4030.64 Z " />
<path stroke="transparent" fill="#000000" transform="matrix(0.0833333 0 0 0.0833333 -266.375 -229.333)" d="M 5011.98,4212.61 L 5031.98,4212.61 L 5031.98,4686.53 L 5021.98,4692.78 L 5011.98,4687 L 5011.98,4212.61 Z " />
<path stroke="transparent" fill="#000000" transform="matrix(0.0833333 0 0 0.0833333 -266.375 -229.333)" d="M 4440.34,3168.51 L 4560.53,3214.81 L 4512.83,3787.27 L 4502.37,3792.78 L 4491.91,3787.27 L 4440.34,3168.51 Z " />
<path stroke="transparent" fill="#000000" transform="matrix(0.0833333 0 0 0.0833333 -266.375 -229.333)" d="M 4077.78,2959.19 L 4087.78,2941.87 L 4560.53,3214.81 L 4440.34,3168.51 L 4077.78,2959.19 Z " />
<path stroke="transparent" fill="#000000" transform="matrix(0.0833333 0 0 0.0833333 -266.375 -229.333)" d="M 3533.16,3902.49 L 3593.16,3798.57 L 3609.32,3810.58 L 3551.65,3910.48 L 3533.16,3902.49 Z " />
<path stroke="transparent" fill="#000000" transform="matrix(0.0833333 0 0 0.0833333 -266.375 -229.333)" d="M 3587.35,3925.91 L 3640.54,3833.78 L 3656.7,3845.79 L 3605.83,3933.9 L 3587.35,3925.91 Z " />
<path stroke="transparent" fill="#000000" transform="matrix(0.0833333 0 0 0.0833333 -266.375 -229.333)" d="M 3641.53,3949.33 L 3687.91,3869 L 3704.07,3881.01 L 3660.02,3957.31 L 3641.53,3949.33 Z " />
<path stroke="transparent" fill="#000000" transform="matrix(0.0833333 0 0 0.0833333 -266.375 -229.333)" d="M 3695.72,3972.74 L 3735.28,3904.21 L 3751.44,3916.22 L 3714.2,3980.73 L 3695.72,3972.74 Z " />
<path stroke="transparent" fill="#000000" transform="matrix(0.0833333 0 0 0.0833333 -266.375 -229.333)" d="M 3749.9,3996.16 L 3782.66,3939.43 L 3798.82,3951.44 L 3768.38,4004.15 L 3749.9,3996.16 Z " />
<path stroke="transparent" fill="#000000" transform="matrix(0.0833333 0 0 0.0833333 -266.375 -229.333)" d="M 3804.09,4019.58 L 3830.03,3974.64 L 3846.19,3986.66 L 3822.57,4027.57 L 3804.09,4019.58 Z " />
<path stroke="transparent" fill="#000000" transform="matrix(0.0833333 0 0 0.0833333 -266.375 -229.333)" d="M 3858.27,4043 L 3877.41,4009.86 L 3893.56,4021.87 L 3876.75,4050.99 L 3858.27,4043 Z " />
<path stroke="transparent" fill="#000000" transform="matrix(0.0833333 0 0 0.0833333 -266.375 -229.333)" d="M 3912.46,4066.42 L 3924.78,4045.08 L 3940.94,4057.09 L 3930.94,4074.41 L 3912.46,4066.42 Z " />
<path stroke="transparent" fill="#000000" transform="matrix(0.0833333 0 0 0.0833333 -266.375 -229.333)" d="M 3585.75,4991.27 L 3525.75,4887.35 L 3972.75,4686.36 L 3982.75,4692.78 L 3983.3,4704.64 L 3585.75,4991.27 Z " />
<path stroke="transparent" fill="#000000" transform="matrix(0.0833333 0 0 0.0833333 -266.375 -229.333)" d="M 4562.37,5487.61 L 4442.37,5487.61 L 4444.64,5467.61 L 4560.1,5467.61 L 4562.37,5487.61 Z " />
<path stroke="transparent" fill="#000000" transform="matrix(0.0833333 0 0 0.0833333 -266.375 -229.333)" d="M 4555.55,5427.5 L 4449.18,5427.5 L 4451.45,5407.5 L 4553.28,5407.5 L 4555.55,5427.5 Z " />
<path stroke="transparent" fill="#000000" transform="matrix(0.0833333 0 0 0.0833333 -266.375 -229.333)" d="M 4548.73,5367.4 L 4456,5367.4 L 4458.27,5347.4 L 4546.46,5347.4 L 4548.73,5367.4 Z " />
<path stroke="transparent" fill="#000000" transform="matrix(0.0833333 0 0 0.0833333 -266.375 -229.333)" d="M 4541.91,5307.29 L 4462.82,5307.29 L 4465.09,5287.29 L 4539.64,5287.29 L 4541.91,5307.29 Z " />
<path stroke="transparent" fill="#000000" transform="matrix(0.0833333 0 0 0.0833333 -266.375 -229.333)" d="M 4535.09,5247.18 L 4469.64,5247.18 L 4471.91,5227.18 L 4532.82,5227.18 L 4535.09,5247.18 Z " />
<path stroke="transparent" fill="#000000" transform="matrix(0.0833333 0 0 0.0833333 -266.375 -229.333)" d="M 4528.27,5187.08 L 4476.46,5187.08 L 4478.73,5167.08 L 4526,5167.08 L 4528.27,5187.08 Z " />
<path stroke="transparent" fill="#000000" transform="matrix(0.0833333 0 0 0.0833333 -266.375 -229.333)" d="M 4521.45,5126.97 L 4483.28,5126.97 L 4485.55,5106.97 L 4519.18,5106.97 L 4521.45,5126.97 Z " />
<path stroke="transparent" fill="#000000" transform="matrix(0.0833333 0 0 0.0833333 -266.375 -229.333)" d="M 4514.64,5066.87 L 4490.1,5066.87 L 4492.37,5046.87 L 4512.37,5046.87 L 4514.64,5066.87 Z " />
<path stroke="transparent" fill="#000000" transform="matrix(0.0833333 0 0 0.0833333 -266.375 -229.333)" d="M 4728.28,5972.49 L 4788.28,5868.57 L 4804.44,5880.58 L 4746.76,5980.48 L 4728.28,5972.49 Z " />
<path stroke="transparent" fill="#000000" transform="matrix(0.0833333 0 0 0.0833333 -266.375 -229.333)" d="M 4782.46,5995.91 L 4835.65,5903.78 L 4851.81,5915.79 L 4800.95,6003.9 L 4782.46,5995.91 Z " />
<path stroke="transparent" fill="#000000" transform="matrix(0.0833333 0 0 0.0833333 -266.375 -229.333)" d="M 4836.65,6019.33 L 4883.03,5939 L 4899.19,5951.01 L 4855.13,6027.31 L 4836.65,6019.33 Z " />
<path stroke="transparent" fill="#000000" transform="matrix(0.0833333 0 0 0.0833333 -266.375 -229.333)" d="M 4890.83,6042.74 L 4930.4,5974.21 L 4946.56,5986.22 L 4909.31,6050.73 L 4890.83,6042.74 Z " />
<path stroke="transparent" fill="#000000" transform="matrix(0.0833333 0 0 0.0833333 -266.375 -229.333)" d="M 4945.02,6066.16 L 4977.77,6009.43 L 4993.93,6021.44 L 4963.5,6074.15 L 4945.02,6066.16 Z " />
<path stroke="transparent" fill="#000000" transform="matrix(0.0833333 0 0 0.0833333 -266.375 -229.333)" d="M 4999.2,6089.58 L 5025.15,6044.64 L 5041.31,6056.66 L 5017.68,6097.57 L 4999.2,6089.58 Z " />
<path stroke="transparent" fill="#000000" transform="matrix(0.0833333 0 0 0.0833333 -266.375 -229.333)" d="M 5053.39,6113 L 5072.52,6079.86 L 5088.68,6091.87 L 5071.87,6120.99 L 5053.39,6113 Z " />
<path stroke="transparent" fill="#000000" transform="matrix(0.0833333 0 0 0.0833333 -266.375 -229.333)" d="M 5107.57,6136.42 L 5119.89,6115.08 L 5136.05,6127.09 L 5126.05,6144.41 L 5107.57,6136.42 Z " />
</svg>
