<?xml version="1.0" standalone="no" ?>
<!DOCTYPE svg PUBLIC "-//W3C//DTD SVG 1.1//EN" "http://www.w3.org/Graphics/SVG/1.1/DTD/svg11.dtd">
<svg width="210px" height="121px" viewBox="0 0 210 121" style="background-color: #ffffff00" xmlns="http://www.w3.org/2000/svg" xmlns:xlink="http://www.w3.org/1999/xlink" version="1.1" >
<text x="0" y="0" stroke="transparent" fill="#000000" transform="matrix(0.0666667 0 0 0.0666667 186.414 74.6719)" style="font:normal normal normal 200px 'Arial'" >
OH</text>
<text x="0" y="0" stroke="transparent" fill="#000000" transform="matrix(0.0666667 0 0 0.0666667 151.773 14.6737)" style="font:normal normal normal 200px 'Arial'" >
O</text>
<text x="0" y="0" stroke="transparent" fill="#000000" transform="matrix(0.0666667 0 0 0.0666667 117.532 114.671)" style="font:normal normal normal 200px 'Arial'" >
NH</text>
<text x="0" y="0" stroke="transparent" fill="#000000" transform="matrix(0.0666667 0 0 0.0666667 136.789 117.604)" style="font:normal normal normal 150px 'Arial'" >
2</text>
<text x="0" y="0" stroke="transparent" fill="#000000" transform="matrix(0.0666667 0 0 0.0666667 3.58341 54.6725)" style="font:normal normal normal 200px 'Arial'" >
HO</text>
<text x="0" y="0" stroke="transparent" fill="#000000" transform="matrix(0.0666667 0 0 0.0666667 47.8537 114.671)" style="font:normal normal normal 200px 'Arial'" >
O</text>
<path stroke="transparent" fill="#000000" transform="matrix(0.0666667 0 0 0.0666667 -243.787 -333)" d="M 6443.4,5974.95 L 6433.4,5992.27 L 6011.39,5748.63 L 6011.39,5725.54 L 6443.4,5974.95 Z " />
<path stroke="transparent" fill="#000000" transform="matrix(0.0666667 0 0 0.0666667 -243.787 -333)" d="M 6057.39,5757.87 L 6037.39,5757.87 L 6037.39,5256.94 L 6057.39,5256.94 L 6057.39,5757.87 Z " />
<path stroke="transparent" fill="#000000" transform="matrix(0.0666667 0 0 0.0666667 -243.787 -333)" d="M 5985.4,5757.87 L 5965.4,5757.87 L 5965.4,5256.94 L 5985.4,5256.94 L 5985.4,5757.87 Z " />
<path stroke="transparent" fill="#000000" transform="matrix(0.0666667 0 0 0.0666667 -243.787 -333)" d="M 6011.39,5725.54 L 6011.39,5748.63 L 5502.32,6042.54 L 5491.77,6037.08 L 5491.77,6025.53 L 6011.39,5725.54 Z " />
<path stroke="transparent" fill="#000000" transform="matrix(0.0666667 0 0 0.0666667 -243.787 -333)" d="M 5551.77,6534.23 L 5431.77,6534.23 L 5481.23,6042.54 L 5491.77,6037.08 L 5502.32,6042.54 L 5551.77,6534.23 Z " />
<path stroke="transparent" fill="#000000" transform="matrix(0.0666667 0 0 0.0666667 -243.787 -333)" d="M 5491.77,6025.53 L 5491.77,6037.08 L 5481.23,6042.54 L 4972.15,5748.63 L 4972.15,5725.54 L 5491.77,6025.53 Z " />
<path stroke="transparent" fill="#000000" transform="matrix(0.0666667 0 0 0.0666667 -243.787 -333)" d="M 4972.15,5725.54 L 4972.15,5748.63 L 4452.61,6048.63 L 4452.6,6025.53 L 4972.15,5725.54 Z " />
<path stroke="transparent" fill="#000000" transform="matrix(0.0666667 0 0 0.0666667 -243.787 -333)" d="M 4452.6,6025.53 L 4452.61,6048.63 L 4028.01,5803.5 L 4038.01,5786.18 L 4452.6,6025.53 Z " />
<path stroke="transparent" fill="#000000" transform="matrix(0.0666667 0 0 0.0666667 -243.787 -333)" d="M 4406.61,6016.3 L 4426.61,6016.3 L 4426.61,6531.89 L 4406.61,6531.89 L 4406.61,6016.3 Z " />
<path stroke="transparent" fill="#000000" transform="matrix(0.0666667 0 0 0.0666667 -243.787 -333)" d="M 4478.6,6016.29 L 4498.6,6016.29 L 4498.6,6531.89 L 4478.6,6531.89 L 4478.6,6016.29 Z " />
</svg>
