<?xml version="1.0" standalone="no" ?>
<!DOCTYPE svg PUBLIC "-//W3C//DTD SVG 1.1//EN" "http://www.w3.org/Graphics/SVG/1.1/DTD/svg11.dtd">
<svg width="546px" height="247px" viewBox="0 0 546 247" style="background-color: #ffffff00" xmlns="http://www.w3.org/2000/svg" xmlns:xlink="http://www.w3.org/1999/xlink" version="1.1" >
<text x="0" y="0" stroke="transparent" fill="#000000" transform="matrix(0.0833333 0 0 0.0833333 188.705 17.9653)" style="font:normal normal normal 200px 'Arial'" >
O</text>
<text x="0" y="0" stroke="transparent" fill="#000000" transform="matrix(0.0833333 0 0 0.0833333 3.46046 17.9653)" style="font:normal normal normal 200px 'Arial'" >
HO</text>
<text x="0" y="0" stroke="transparent" fill="#000000" transform="matrix(0.0833333 0 0 0.0833333 102.103 167.964)" style="font:normal normal normal 200px 'Arial'" >
OH</text>
<text x="0" y="0" stroke="transparent" fill="#000000" transform="matrix(0.0833333 0 0 0.0833333 188.705 167.964)" style="font:normal normal normal 200px 'Arial'" >
O</text>
<text x="0" y="0" stroke="transparent" fill="#000000" transform="matrix(0.0833333 0 0 0.0833333 318.613 242.965)" style="font:normal normal normal 200px 'Arial'" >
OH</text>
<text x="0" y="0" stroke="transparent" fill="#000000" transform="matrix(0.0833333 0 0 0.0833333 405.215 192.969)" style="font:normal normal normal 200px 'Arial'" >
OH</text>
<path stroke="transparent" fill="#000000" transform="matrix(0.0833333 0 0 0.0833333 -163.25 -255)" d="M 7938.8,4109.15 L 7938.8,4097.6 L 7948.8,4091.83 L 8463.47,4388.95 L 8453.48,4406.27 L 7938.8,4109.15 Z " />
<path stroke="transparent" fill="#000000" transform="matrix(0.0833333 0 0 0.0833333 -163.25 -255)" d="M 7928.8,3497.59 L 7948.8,3497.59 L 7948.8,4091.83 L 7938.8,4097.6 L 7928.8,4091.83 L 7928.8,3497.59 Z " />
<path stroke="transparent" fill="#000000" transform="matrix(0.0833333 0 0 0.0833333 -163.25 -255)" d="M 7419.19,4409.16 L 7419.19,4386.06 L 7928.8,4091.83 L 7938.8,4097.6 L 7938.8,4109.15 L 7419.19,4409.16 Z " />
<path stroke="transparent" fill="#000000" transform="matrix(0.0833333 0 0 0.0833333 -163.25 -255)" d="M 7424.19,4323.13 L 7414.19,4305.81 L 7861.8,4047.37 L 7871.8,4064.69 L 7424.19,4323.13 Z " />
<path stroke="transparent" fill="#000000" transform="matrix(0.0833333 0 0 0.0833333 -163.25 -255)" d="M 6899.58,4109.15 L 6899.58,4086.06 L 7419.19,4386.06 L 7419.19,4409.16 L 6899.58,4109.15 Z " />
<path stroke="transparent" fill="#000000" transform="matrix(0.0833333 0 0 0.0833333 -163.25 -255)" d="M 6389.97,4403.38 L 6379.97,4397.61 L 6379.97,4386.06 L 6899.58,4086.06 L 6899.58,4109.15 L 6389.97,4403.38 Z " />
<path stroke="transparent" fill="#000000" transform="matrix(0.0833333 0 0 0.0833333 -163.25 -255)" d="M 5860.36,4109.15 L 5860.36,4086.06 L 6379.97,4386.06 L 6379.97,4397.61 L 6369.97,4403.38 L 5860.36,4109.15 Z " />
<path stroke="transparent" fill="#000000" transform="matrix(0.0833333 0 0 0.0833333 -163.25 -255)" d="M 5855.35,4189.4 L 5865.35,4172.08 L 6312.97,4430.52 L 6302.97,4447.84 L 5855.35,4189.4 Z " />
<path stroke="transparent" fill="#000000" transform="matrix(0.0833333 0 0 0.0833333 -163.25 -255)" d="M 5350.75,4403.32 L 5340.75,4397.55 L 5340.75,4386 L 5860.36,4086.06 L 5860.36,4109.15 L 5350.75,4403.32 Z " />
<path stroke="transparent" fill="#000000" transform="matrix(0.0833333 0 0 0.0833333 -163.25 -255)" d="M 4821.13,4109.15 L 4821.14,4097.6 L 4831.14,4091.83 L 5340.75,4386 L 5340.75,4397.55 L 5330.75,4403.32 L 4821.13,4109.15 Z " />
<path stroke="transparent" fill="#000000" transform="matrix(0.0833333 0 0 0.0833333 -163.25 -255)" d="M 4811.14,3503.36 L 4831.14,3491.82 L 4831.14,4091.83 L 4821.14,4097.6 L 4811.14,4091.83 L 4811.14,3503.36 Z " />
<path stroke="transparent" fill="#000000" transform="matrix(0.0833333 0 0 0.0833333 -163.25 -255)" d="M 4739.13,3539.16 L 4759.13,3539.16 L 4759.13,4056.03 L 4739.13,4056.03 L 4739.13,3539.16 Z " />
<path stroke="transparent" fill="#000000" transform="matrix(0.0833333 0 0 0.0833333 -163.25 -255)" d="M 4396.5,3264 L 4406.5,3246.68 L 4831.14,3491.82 L 4811.14,3503.36 L 4396.5,3264 Z " />
<path stroke="transparent" fill="#000000" transform="matrix(0.0833333 0 0 0.0833333 -163.25 -255)" d="M 3791.85,3503.36 L 3781.85,3497.59 L 3781.85,3486.04 L 4196.86,3246.43 L 4206.86,3263.75 L 3791.85,3503.36 Z " />
<path stroke="transparent" fill="#000000" transform="matrix(0.0833333 0 0 0.0833333 -163.25 -255)" d="M 3262.24,3209.13 L 3262.24,3186.04 L 3781.85,3486.04 L 3781.85,3497.59 L 3771.85,3503.36 L 3262.24,3209.13 Z " />
<path stroke="transparent" fill="#000000" transform="matrix(0.0833333 0 0 0.0833333 -163.25 -255)" d="M 3257.24,3289.38 L 3267.24,3272.06 L 3714.85,3530.5 L 3704.85,3547.82 L 3257.24,3289.38 Z " />
<path stroke="transparent" fill="#000000" transform="matrix(0.0833333 0 0 0.0833333 -163.25 -255)" d="M 2752.63,3503.36 L 2742.63,3497.59 L 2742.63,3486.04 L 3262.24,3186.04 L 3262.24,3209.13 L 2752.63,3503.36 Z " />
<path stroke="transparent" fill="#000000" transform="matrix(0.0833333 0 0 0.0833333 -163.25 -255)" d="M 2317.99,3263.99 L 2327.99,3246.67 L 2742.63,3486.04 L 2742.63,3497.59 L 2732.63,3503.36 L 2317.99,3263.99 Z " />
<path stroke="transparent" fill="#000000" transform="matrix(0.0833333 0 0 0.0833333 -163.25 -255)" d="M 2752.63,4091.83 L 2732.63,4103.38 L 2732.63,3503.36 L 2742.63,3497.59 L 2752.63,3503.36 L 2752.63,4091.83 Z " />
<path stroke="transparent" fill="#000000" transform="matrix(0.0833333 0 0 0.0833333 -163.25 -255)" d="M 2824.63,4056.03 L 2804.63,4056.03 L 2804.63,3539.16 L 2824.63,3539.16 L 2824.63,4056.03 Z " />
<path stroke="transparent" fill="#000000" transform="matrix(0.0833333 0 0 0.0833333 -163.25 -255)" d="M 3262.24,4386 L 3262.24,4397.55 L 3252.24,4403.32 L 2732.63,4103.38 L 2752.63,4091.83 L 3262.24,4386 Z " />
<path stroke="transparent" fill="#000000" transform="matrix(0.0833333 0 0 0.0833333 -163.25 -255)" d="M 3272.24,4892.4 L 3252.24,4892.4 L 3252.24,4403.32 L 3262.24,4397.55 L 3272.24,4403.32 L 3272.24,4892.4 Z " />
<path stroke="transparent" fill="#000000" transform="matrix(0.0833333 0 0 0.0833333 -163.25 -255)" d="M 3771.85,4091.83 L 3781.85,4097.6 L 3781.85,4109.15 L 3272.24,4403.32 L 3262.24,4397.55 L 3262.24,4386 L 3771.85,4091.83 Z " />
<path stroke="transparent" fill="#000000" transform="matrix(0.0833333 0 0 0.0833333 -163.25 -255)" d="M 3704.86,4047.37 L 3714.86,4064.69 L 3267.24,4323.08 L 3257.24,4305.76 L 3704.86,4047.37 Z " />
<path stroke="transparent" fill="#000000" transform="matrix(0.0833333 0 0 0.0833333 -163.25 -255)" d="M 3791.85,4091.83 L 3781.85,4097.6 L 3771.85,4091.83 L 3771.85,3503.36 L 3781.85,3497.59 L 3791.85,3503.36 L 3791.85,4091.83 Z " />
<path stroke="transparent" fill="#000000" transform="matrix(0.0833333 0 0 0.0833333 -163.25 -255)" d="M 4301.46,4386 L 4301.46,4409.1 L 3781.85,4109.15 L 3781.85,4097.6 L 3791.85,4091.83 L 4301.46,4386 Z " />
<path stroke="transparent" fill="#000000" transform="matrix(0.0833333 0 0 0.0833333 -163.25 -255)" d="M 4301.46,4409.1 L 4301.46,4386 L 4811.14,4091.83 L 4821.14,4097.6 L 4821.13,4109.15 L 4301.46,4409.1 Z " />
<path stroke="transparent" fill="#000000" transform="matrix(0.0833333 0 0 0.0833333 -163.25 -255)" d="M 4347.47,4892.4 L 4327.47,4892.4 L 4327.47,4376.77 L 4347.47,4376.77 L 4347.47,4892.4 Z " />
<path stroke="transparent" fill="#000000" transform="matrix(0.0833333 0 0 0.0833333 -163.25 -255)" d="M 4275.46,4892.4 L 4255.46,4892.4 L 4255.46,4376.77 L 4275.46,4376.77 L 4275.46,4892.4 Z " />
<path stroke="transparent" fill="#000000" transform="matrix(0.0833333 0 0 0.0833333 -163.25 -255)" d="M 5350.75,4991.79 L 5330.75,5003.34 L 5330.75,4403.32 L 5340.75,4397.55 L 5350.75,4403.32 L 5350.75,4991.79 Z " />
<path stroke="transparent" fill="#000000" transform="matrix(0.0833333 0 0 0.0833333 -163.25 -255)" d="M 5422.75,4955.99 L 5402.75,4955.99 L 5402.75,4439.12 L 5422.75,4439.12 L 5422.75,4955.99 Z " />
<path stroke="transparent" fill="#000000" transform="matrix(0.0833333 0 0 0.0833333 -163.25 -255)" d="M 5860.36,5286.02 L 5860.36,5297.57 L 5850.36,5303.34 L 5330.75,5003.34 L 5350.75,4991.79 L 5860.36,5286.02 Z " />
<path stroke="transparent" fill="#000000" transform="matrix(0.0833333 0 0 0.0833333 -163.25 -255)" d="M 5870.36,5792.42 L 5850.36,5792.42 L 5850.36,5303.34 L 5860.36,5297.57 L 5870.36,5303.34 L 5870.36,5792.42 Z " />
<path stroke="transparent" fill="#000000" transform="matrix(0.0833333 0 0 0.0833333 -163.25 -255)" d="M 6369.97,4991.79 L 6379.97,4997.56 L 6379.97,5009.11 L 5870.36,5303.34 L 5860.36,5297.57 L 5860.36,5286.02 L 6369.97,4991.79 Z " />
<path stroke="transparent" fill="#000000" transform="matrix(0.0833333 0 0 0.0833333 -163.25 -255)" d="M 6302.97,4947.33 L 6312.97,4964.65 L 5865.36,5223.09 L 5855.36,5205.77 L 6302.97,4947.33 Z " />
<path stroke="transparent" fill="#000000" transform="matrix(0.0833333 0 0 0.0833333 -163.25 -255)" d="M 6389.97,4991.79 L 6379.97,4997.56 L 6369.97,4991.79 L 6369.97,4403.38 L 6379.97,4397.61 L 6389.97,4403.38 L 6389.97,4991.79 Z " />
<path stroke="transparent" fill="#000000" transform="matrix(0.0833333 0 0 0.0833333 -163.25 -255)" d="M 6811.97,5235.49 L 6801.97,5252.81 L 6379.97,5009.11 L 6379.97,4997.56 L 6389.97,4991.79 L 6811.97,5235.49 Z " />
</svg>
