<?xml version="1.0"?><svg xmlns="http://www.w3.org/2000/svg" xmlns:xlink="http://www.w3.org/1999/xlink" viewBox="205.74 258.77 111.84 97.46" preserveAspectRatio="xMidYMid" width="100%" height="100%"><clipPath id="25"><rect x="0.5" y="0.5" width="522.32" height="768.92" /></clipPath><g id="drawing"><rect x="205.74" y="258.77" width="100%" height="100%" fill="rgb(255, 255, 255)" /><g id="page" clip-path="url(#25)"><g><text xml:space="preserve" text-anchor="start" text-rendering="geometricPrecision"><tspan x="205.74" y="348.68" font-family="Arial" font-size="10" fill="rgb(0, 0, 0)">O</tspan></text></g><g><text xml:space="preserve" text-anchor="start" text-rendering="geometricPrecision"><tspan x="283.99" y="303.57" font-family="Arial" font-size="10" fill="rgb(0, 0, 0)">NH</tspan></text></g><g id="Solid"><path d="M276.17 258.77 L276.17 258.77 L276.6 259.02 L277.03 259.27 L262.28 284.82 L261.6 285 L261.6 284 Z" stroke="rgb(0, 0, 0)" stroke-width="0" fill-rule="evenodd" stroke-linejoin="miter" fill="rgb(0, 0, 0)" shape-rendering="geometricPrecision" /></g><g id="Solid"><path d="M261.6 284 L261.6 284 L261.6 285 L260.92 284.82 L246.17 259.27 L246.6 259.02 L247.03 258.77 Z" stroke="rgb(0, 0, 0)" stroke-width="0" fill-rule="evenodd" stroke-linejoin="miter" fill="rgb(0, 0, 0)" shape-rendering="geometricPrecision" /></g><g id="Solid"><path d="M260.92 284.82 L260.92 284.82 L261.6 285 L261.6 285.58 L236.12 300.29 L235.62 300 L235.12 299.71 Z" stroke="rgb(0, 0, 0)" stroke-width="0" fill-rule="evenodd" stroke-linejoin="miter" fill="rgb(0, 0, 0)" shape-rendering="geometricPrecision" /></g><g id="Solid"><path d="M235.12 299.71 L235.12 299.71 L235.62 300 L236.12 300.29 L236.12 329.71 L235.62 330 L235.12 330.29 Z" stroke="rgb(0, 0, 0)" stroke-width="0" fill-rule="evenodd" stroke-linejoin="miter" fill="rgb(0, 0, 0)" shape-rendering="geometricPrecision" /></g><g id="Solid"><line x1="236.52" y1="331.56" x2="215.73" y2="343.56" stroke="rgb(0, 0, 0)" stroke-width="1" shape-rendering="auto" /><path d="M235.12 328.79 L235.12 328.79 L235.12 327.63 L213.68 340.01 L214.18 340.88 Z" stroke="rgb(0, 0, 0)" stroke-width="0" fill-rule="evenodd" stroke-linejoin="miter" fill="rgb(0, 0, 0)" shape-rendering="geometricPrecision" /><path d="M237.42 331.62 L237.42 331.62 L236.42 331.04 L215.48 343.13 L215.98 343.99 Z" stroke="rgb(0, 0, 0)" stroke-width="0" fill-rule="evenodd" stroke-linejoin="miter" fill="rgb(0, 0, 0)" shape-rendering="geometricPrecision" /></g><g id="Solid"><path d="M235.12 330.29 L235.12 330.29 L235.62 330 L236.12 329.71 L261.6 344.42 L261.6 345 L261.6 345.58 Z" stroke="rgb(0, 0, 0)" stroke-width="0" fill-rule="evenodd" stroke-linejoin="miter" fill="rgb(0, 0, 0)" shape-rendering="geometricPrecision" /></g><g id="Solid"><path d="M261.6 345.58 L261.6 345.58 L261.6 345 L261.6 344.42 L287.08 329.71 L287.58 330 L287.4 330.68 Z" stroke="rgb(0, 0, 0)" stroke-width="0" fill-rule="evenodd" stroke-linejoin="miter" fill="rgb(0, 0, 0)" shape-rendering="geometricPrecision" /></g><g id="Solid"><path d="M287.4 330.68 L287.4 330.68 L287.58 330 L288.45 330.5 L303.01 355.73 L302.58 355.98 L302.15 356.23 Z" stroke="rgb(0, 0, 0)" stroke-width="0" fill-rule="evenodd" stroke-linejoin="miter" fill="rgb(0, 0, 0)" shape-rendering="geometricPrecision" /></g><g id="Solid"><path d="M288.45 330.5 L288.45 330.5 L287.58 330 L288.08 329.5 L317.58 329.5 L317.58 330 L317.58 330.5 Z" stroke="rgb(0, 0, 0)" stroke-width="0" fill-rule="evenodd" stroke-linejoin="miter" fill="rgb(0, 0, 0)" shape-rendering="geometricPrecision" /></g><g id="Solid"><path d="M288.08 329.5 L288.08 329.5 L287.58 330 L287.08 329.71 L287.08 305.6 L287.58 305.6 L288.08 305.6 Z" stroke="rgb(0, 0, 0)" stroke-width="0" fill-rule="evenodd" stroke-linejoin="miter" fill="rgb(0, 0, 0)" shape-rendering="geometricPrecision" /></g><g id="Solid"><path d="M261.6 285.58 L261.6 285.58 L261.6 285 L262.28 284.82 L283.32 296.96 L283.07 297.39 L282.82 297.83 Z" stroke="rgb(0, 0, 0)" stroke-width="0" fill-rule="evenodd" stroke-linejoin="miter" fill="rgb(0, 0, 0)" shape-rendering="geometricPrecision" /></g></g></g></svg>