<?xml version="1.0" standalone="no" ?>
<!DOCTYPE svg PUBLIC "-//W3C//DTD SVG 1.1//EN" "http://www.w3.org/Graphics/SVG/1.1/DTD/svg11.dtd">
<svg width="478px" height="358px" viewBox="0 0 478 358" style="background-color: #ffffff00" xmlns="http://www.w3.org/2000/svg" xmlns:xlink="http://www.w3.org/1999/xlink" version="1.1" >
<text x="0" y="0" stroke="transparent" fill="#000000" transform="matrix(0.0833333 0 0 0.0833333 177.346 353.984)" style="font:normal normal normal 200px 'Arial'" >
OH</text>
<text x="0" y="0" stroke="transparent" fill="#000000" transform="matrix(0.0833333 0 0 0.0833333 3.70752 310.683)" style="font:normal normal normal 200px 'Arial'" >
HO</text>
<text x="0" y="0" stroke="transparent" fill="#000000" transform="matrix(0.0833333 0 0 0.0833333 256.816 85.6827)" style="font:normal normal normal 200px 'Arial'" >
HO</text>
<text x="0" y="0" stroke="transparent" fill="#000000" transform="matrix(0.0833333 0 0 0.0833333 405.455 235.683)" style="font:normal normal normal 200px 'Arial'" >
O</text>
<text x="0" y="0" stroke="transparent" fill="#000000" transform="matrix(0.0833333 0 0 0.0833333 448.756 160.683)" style="font:normal normal normal 200px 'Arial'" >
OH</text>
<path stroke="transparent" fill="#000000" transform="matrix(0.0833333 0 0 0.0833333 -188.25 -671.833)" d="M 6692.85,8658.19 L 6672.85,8658.19 L 6671.01,8638.19 L 6694.68,8638.19 L 6692.85,8658.19 Z " />
<path stroke="transparent" fill="#000000" transform="matrix(0.0833333 0 0 0.0833333 -188.25 -671.833)" d="M 6698.2,8599.75 L 6667.49,8599.75 L 6665.66,8579.75 L 6700.03,8579.75 L 6698.2,8599.75 Z " />
<path stroke="transparent" fill="#000000" transform="matrix(0.0833333 0 0 0.0833333 -188.25 -671.833)" d="M 6703.55,8541.3 L 6662.14,8541.3 L 6660.31,8521.3 L 6705.38,8521.3 L 6703.55,8541.3 Z " />
<path stroke="transparent" fill="#000000" transform="matrix(0.0833333 0 0 0.0833333 -188.25 -671.833)" d="M 6708.9,8482.86 L 6656.79,8482.86 L 6654.96,8462.86 L 6710.73,8462.86 L 6708.9,8482.86 Z " />
<path stroke="transparent" fill="#000000" transform="matrix(0.0833333 0 0 0.0833333 -188.25 -671.833)" d="M 6714.25,8424.41 L 6651.44,8424.41 L 6649.61,8404.41 L 6716.09,8404.41 L 6714.25,8424.41 Z " />
<path stroke="transparent" fill="#000000" transform="matrix(0.0833333 0 0 0.0833333 -188.25 -671.833)" d="M 6719.61,8365.97 L 6646.09,8365.97 L 6644.25,8345.97 L 6721.44,8345.97 L 6719.61,8365.97 Z " />
<path stroke="transparent" fill="#000000" transform="matrix(0.0833333 0 0 0.0833333 -188.25 -671.833)" d="M 6724.96,8307.53 L 6640.73,8307.53 L 6638.9,8287.53 L 6726.79,8287.53 L 6724.96,8307.53 Z " />
<path stroke="transparent" fill="#000000" transform="matrix(0.0833333 0 0 0.0833333 -188.25 -671.833)" d="M 6730.31,8249.08 L 6635.38,8249.08 L 6633.55,8229.08 L 6732.14,8229.08 L 6730.31,8249.08 Z " />
<path stroke="transparent" fill="#000000" transform="matrix(0.0833333 0 0 0.0833333 -188.25 -671.833)" d="M 6735.66,8190.64 L 6630.03,8190.64 L 6628.2,8170.64 L 6737.49,8170.64 L 6735.66,8190.64 Z " />
<path stroke="transparent" fill="#000000" transform="matrix(0.0833333 0 0 0.0833333 -188.25 -671.833)" d="M 6741.01,8132.19 L 6624.68,8132.19 L 6622.85,8112.19 L 6742.85,8112.19 L 6741.01,8132.19 Z " />
<path stroke="transparent" fill="#000000" transform="matrix(0.0833333 0 0 0.0833333 -188.25 -671.833)" d="M 7212.46,9006.42 L 7192.46,9017.97 L 6682.85,8723.74 L 6682.85,8700.65 L 7212.46,9006.42 Z " />
<path stroke="transparent" fill="#000000" transform="matrix(0.0833333 0 0 0.0833333 -188.25 -671.833)" d="M 7212.46,9617.97 L 7192.46,9606.42 L 7192.46,9017.97 L 7212.46,9006.42 L 7212.46,9617.97 Z " />
<path stroke="transparent" fill="#000000" transform="matrix(0.0833333 0 0 0.0833333 -188.25 -671.833)" d="M 6704.36,9911.32 L 6682.85,9912.19 L 6682.85,9900.65 L 7192.46,9606.42 L 7212.46,9617.97 L 6704.36,9911.32 Z " />
<path stroke="transparent" fill="#000000" transform="matrix(0.0833333 0 0 0.0833333 -188.25 -671.833)" d="M 6692.85,10518 L 6672.85,10506.4 L 6672.85,9917.97 L 6682.85,9912.19 L 6692.85,9931.26 L 6692.85,10518 Z " />
<path stroke="transparent" fill="#000000" transform="matrix(0.0833333 0 0 0.0833333 -188.25 -671.833)" d="M 6163.23,10823.7 L 6163.23,10800.6 L 6672.85,10506.4 L 6692.85,10518 L 6163.23,10823.7 Z " />
<path stroke="transparent" fill="#000000" transform="matrix(0.0833333 0 0 0.0833333 -188.25 -671.833)" d="M 5643.62,10523.7 L 5643.62,10512.2 L 5653.62,10506.4 L 6163.23,10800.6 L 6163.23,10823.7 L 5643.62,10523.7 Z " />
<path stroke="transparent" fill="#000000" transform="matrix(0.0833333 0 0 0.0833333 -188.25 -671.833)" d="M 5633.62,9917.97 L 5653.62,9906.42 L 5653.62,10506.4 L 5643.62,10512.2 L 5633.62,10506.4 L 5633.62,9917.97 Z " />
<path stroke="transparent" fill="#000000" transform="matrix(0.0833333 0 0 0.0833333 -188.25 -671.833)" d="M 5124,9623.74 L 5124,9600.65 L 5653.62,9906.42 L 5633.62,9917.97 L 5124,9623.74 Z " />
<path stroke="transparent" fill="#000000" transform="matrix(0.0833333 0 0 0.0833333 -188.25 -671.833)" d="M 5119,9703.99 L 5129,9686.67 L 5576.62,9945.1 L 5566.62,9962.42 L 5119,9703.99 Z " />
<path stroke="transparent" fill="#000000" transform="matrix(0.0833333 0 0 0.0833333 -188.25 -671.833)" d="M 4666.41,9887.93 L 4546.22,9934.23 L 5124,9600.65 L 5124,9623.74 L 4666.41,9887.93 Z " />
<path stroke="transparent" fill="#000000" transform="matrix(0.0833333 0 0 0.0833333 -188.25 -671.833)" d="M 4614.84,10506.7 L 4604.38,10512.2 L 4593.93,10506.7 L 4546.22,9934.23 L 4666.41,9887.93 L 4614.84,10506.7 Z " />
<path stroke="transparent" fill="#000000" transform="matrix(0.0833333 0 0 0.0833333 -188.25 -671.833)" d="M 5112.48,10794 L 5124,10812.2 L 5114,10818 L 4604.38,10523.7 L 4604.38,10512.2 L 4614.84,10506.7 L 5112.48,10794 Z " />
<path stroke="transparent" fill="#000000" transform="matrix(0.0833333 0 0 0.0833333 -188.25 -671.833)" d="M 5134,10818 L 5124,10812.2 L 5135.52,10794 L 5633.62,10506.4 L 5643.62,10512.2 L 5643.62,10523.7 L 5134,10818 Z " />
<path stroke="transparent" fill="#000000" transform="matrix(0.0833333 0 0 0.0833333 -188.25 -671.833)" d="M 5134,11418 L 5114,11406.4 L 5114,10818 L 5124,10812.2 L 5134,10818 L 5134,11418 Z " />
<path stroke="transparent" fill="#000000" transform="matrix(0.0833333 0 0 0.0833333 -188.25 -671.833)" d="M 4556.22,11751.5 L 4656.41,11670.6 L 5114,11406.4 L 5134,11418 L 4556.22,11751.5 Z " />
<path stroke="transparent" fill="#000000" transform="matrix(0.0833333 0 0 0.0833333 -188.25 -671.833)" d="M 4084.31,11424 L 4084.77,11412.2 L 4094.77,11405.9 L 4656.41,11670.6 L 4556.22,11751.5 L 4084.31,11424 Z " />
<path stroke="transparent" fill="#000000" transform="matrix(0.0833333 0 0 0.0833333 -188.25 -671.833)" d="M 4074.77,10818 L 4084.77,10812.2 L 4094.77,10818 L 4094.77,11405.9 L 4084.77,11412.2 L 4074.77,11406.4 L 4074.77,10818 Z " />
<path stroke="transparent" fill="#000000" transform="matrix(0.0833333 0 0 0.0833333 -188.25 -671.833)" d="M 4094.77,10818 L 4084.77,10812.2 L 4096.29,10794 L 4593.93,10506.7 L 4604.38,10512.2 L 4604.38,10523.7 L 4094.77,10818 Z " />
<path stroke="transparent" fill="#000000" transform="matrix(0.0833333 0 0 0.0833333 -188.25 -671.833)" d="M 3565.15,10523.7 L 3565.15,10500.6 L 4073.25,10794 L 4084.77,10812.2 L 4074.77,10818 L 3565.15,10523.7 Z " />
<path stroke="transparent" fill="#000000" transform="matrix(0.0833333 0 0 0.0833333 -188.25 -671.833)" d="M 3055.54,10818 L 3035.54,10806.4 L 3565.15,10500.6 L 3565.15,10523.7 L 3055.54,10818 Z " />
<path stroke="transparent" fill="#000000" transform="matrix(0.0833333 0 0 0.0833333 -188.25 -671.833)" d="M 3055.54,11406.4 L 3045.54,11412.2 L 3035.54,11405.8 L 3035.54,10806.4 L 3055.54,10818 L 3055.54,11406.4 Z " />
<path stroke="transparent" fill="#000000" transform="matrix(0.0833333 0 0 0.0833333 -188.25 -671.833)" d="M 3565.15,11700.6 L 3565.15,11712.2 L 3550.77,11715.4 L 3046.09,11424.1 L 3045.54,11412.2 L 3055.54,11406.4 L 3565.15,11700.6 Z " />
<path stroke="transparent" fill="#000000" transform="matrix(0.0833333 0 0 0.0833333 -188.25 -671.833)" d="M 3572.81,11719.3 L 3565.15,11712.2 L 3565.15,11700.6 L 4074.77,11406.4 L 4084.77,11412.2 L 4084.31,11424 L 3572.81,11719.3 Z " />
<path stroke="transparent" fill="#000000" transform="matrix(0.0833333 0 0 0.0833333 -188.25 -671.833)" d="M 3317.12,12261.8 L 3213.19,12201.8 L 3550.77,11715.4 L 3565.15,11712.2 L 3572.81,11719.3 L 3317.12,12261.8 Z " />
<path stroke="transparent" fill="#000000" transform="matrix(0.0833333 0 0 0.0833333 -188.25 -671.833)" d="M 3890.12,12155 L 3786.19,12215 L 3777.95,12196.7 L 3878.36,12138.7 L 3890.12,12155 Z " />
<path stroke="transparent" fill="#000000" transform="matrix(0.0833333 0 0 0.0833333 -188.25 -671.833)" d="M 3855.42,12106.9 L 3761.89,12160.9 L 3753.65,12142.6 L 3843.66,12090.6 L 3855.42,12106.9 Z " />
<path stroke="transparent" fill="#000000" transform="matrix(0.0833333 0 0 0.0833333 -188.25 -671.833)" d="M 3820.73,12058.8 L 3737.58,12106.9 L 3729.34,12088.5 L 3808.97,12042.5 L 3820.73,12058.8 Z " />
<path stroke="transparent" fill="#000000" transform="matrix(0.0833333 0 0 0.0833333 -188.25 -671.833)" d="M 3786.04,12010.7 L 3713.27,12052.8 L 3705.03,12034.4 L 3774.28,11994.4 L 3786.04,12010.7 Z " />
<path stroke="transparent" fill="#000000" transform="matrix(0.0833333 0 0 0.0833333 -188.25 -671.833)" d="M 3751.35,11962.7 L 3688.96,11998.7 L 3680.72,11980.3 L 3739.59,11946.3 L 3751.35,11962.7 Z " />
<path stroke="transparent" fill="#000000" transform="matrix(0.0833333 0 0 0.0833333 -188.25 -671.833)" d="M 3716.65,11914.6 L 3664.66,11944.6 L 3656.42,11926.2 L 3704.89,11898.3 L 3716.65,11914.6 Z " />
<path stroke="transparent" fill="#000000" transform="matrix(0.0833333 0 0 0.0833333 -188.25 -671.833)" d="M 3681.96,11866.5 L 3640.35,11890.5 L 3632.11,11872.1 L 3670.2,11850.2 L 3681.96,11866.5 Z " />
<path stroke="transparent" fill="#000000" transform="matrix(0.0833333 0 0 0.0833333 -188.25 -671.833)" d="M 3647.27,11818.4 L 3616.04,11836.4 L 3607.8,11818.1 L 3635.51,11802.1 L 3647.27,11818.4 Z " />
<path stroke="transparent" fill="#000000" transform="matrix(0.0833333 0 0 0.0833333 -188.25 -671.833)" d="M 3612.57,11770.3 L 3591.73,11782.3 L 3583.49,11764 L 3600.81,11754 L 3612.57,11770.3 Z " />
<path stroke="transparent" fill="#000000" transform="matrix(0.0833333 0 0 0.0833333 -188.25 -671.833)" d="M 4357.15,12221.8 L 4357.15,12241.8 L 3865.15,12241.8 L 3865.15,12221.8 L 4357.15,12221.8 Z " />
<path stroke="transparent" fill="#000000" transform="matrix(0.0833333 0 0 0.0833333 -188.25 -671.833)" d="M 2648.53,11710.7 L 2588.53,11606.8 L 3035.54,11405.8 L 3045.54,11412.2 L 3046.09,11424.1 L 2648.53,11710.7 Z " />
<path stroke="transparent" fill="#000000" transform="matrix(0.0833333 0 0 0.0833333 -188.25 -671.833)" d="M 4024.77,10212.2 L 4144.77,10212.2 L 4096.29,10794 L 4084.77,10812.2 L 4073.25,10794 L 4024.77,10212.2 Z " />
<path stroke="transparent" fill="#000000" transform="matrix(0.0833333 0 0 0.0833333 -188.25 -671.833)" d="M 5064,10212.2 L 5184,10212.2 L 5135.52,10794 L 5124,10812.2 L 5112.48,10794 L 5064,10212.2 Z " />
<path stroke="transparent" fill="#000000" transform="matrix(0.0833333 0 0 0.0833333 -188.25 -671.833)" d="M 6111.39,9630.58 L 6121.39,9647.9 L 6105.08,9659.66 L 6093.05,9638.82 L 6111.39,9630.58 Z " />
<path stroke="transparent" fill="#000000" transform="matrix(0.0833333 0 0 0.0833333 -188.25 -671.833)" d="M 6057.31,9654.87 L 6073.31,9682.58 L 6057.01,9694.34 L 6038.98,9663.11 L 6057.31,9654.87 Z " />
<path stroke="transparent" fill="#000000" transform="matrix(0.0833333 0 0 0.0833333 -188.25 -671.833)" d="M 6003.24,9679.17 L 6025.23,9717.26 L 6008.93,9729.02 L 5984.9,9687.41 L 6003.24,9679.17 Z " />
<path stroke="transparent" fill="#000000" transform="matrix(0.0833333 0 0 0.0833333 -188.25 -671.833)" d="M 5949.17,9703.47 L 5977.15,9751.94 L 5960.85,9763.7 L 5930.83,9711.7 L 5949.17,9703.47 Z " />
<path stroke="transparent" fill="#000000" transform="matrix(0.0833333 0 0 0.0833333 -188.25 -671.833)" d="M 5895.09,9727.76 L 5929.07,9786.62 L 5912.77,9798.38 L 5876.75,9736 L 5895.09,9727.76 Z " />
<path stroke="transparent" fill="#000000" transform="matrix(0.0833333 0 0 0.0833333 -188.25 -671.833)" d="M 5841.02,9752.06 L 5881,9821.3 L 5864.69,9833.06 L 5822.68,9760.3 L 5841.02,9752.06 Z " />
<path stroke="transparent" fill="#000000" transform="matrix(0.0833333 0 0 0.0833333 -188.25 -671.833)" d="M 5786.94,9776.35 L 5832.92,9855.99 L 5816.61,9867.75 L 5768.61,9784.59 L 5786.94,9776.35 Z " />
<path stroke="transparent" fill="#000000" transform="matrix(0.0833333 0 0 0.0833333 -188.25 -671.833)" d="M 5732.87,9800.65 L 5784.84,9890.67 L 5768.54,9902.43 L 5714.53,9808.89 L 5732.87,9800.65 Z " />
<path stroke="transparent" fill="#000000" transform="matrix(0.0833333 0 0 0.0833333 -188.25 -671.833)" d="M 5678.8,9824.95 L 5736.76,9925.35 L 5720.46,9937.11 L 5660.46,9833.19 L 5678.8,9824.95 Z " />
<path stroke="transparent" fill="#000000" transform="matrix(0.0833333 0 0 0.0833333 -188.25 -671.833)" d="M 6153.23,9617.97 L 6173.23,9606.42 L 6682.85,9900.65 L 6682.85,9912.19 L 6672.85,9917.97 L 6153.23,9617.97 Z " />
<path stroke="transparent" fill="#000000" transform="matrix(0.0833333 0 0 0.0833333 -188.25 -671.833)" d="M 6153.23,9015.26 L 6163.23,9012.19 L 6173.23,9017.97 L 6173.23,9606.42 L 6153.23,9617.97 L 6153.23,9015.26 Z " />
<path stroke="transparent" fill="#000000" transform="matrix(0.0833333 0 0 0.0833333 -188.25 -671.833)" d="M 6173.23,9017.97 L 6163.23,9012.19 L 6167.61,8998.12 L 6682.85,8700.65 L 6682.85,8723.74 L 6173.23,9017.97 Z " />
<path stroke="transparent" fill="#000000" transform="matrix(0.0833333 0 0 0.0833333 -188.25 -671.833)" d="M 5811.27,8522.58 L 5915.19,8462.58 L 6167.61,8998.12 L 6163.23,9012.19 L 6153.23,9015.26 L 5811.27,8522.58 Z " />
<path stroke="transparent" fill="#000000" transform="matrix(0.0833333 0 0 0.0833333 -188.25 -671.833)" d="M 5671.8,9072.19 L 5671.8,8952.19 L 5691.8,8954.48 L 5691.8,9069.91 L 5671.8,9072.19 Z " />
<path stroke="transparent" fill="#000000" transform="matrix(0.0833333 0 0 0.0833333 -188.25 -671.833)" d="M 5731.42,9065.38 L 5731.42,8959.01 L 5751.42,8961.29 L 5751.42,9063.09 L 5731.42,9065.38 Z " />
<path stroke="transparent" fill="#000000" transform="matrix(0.0833333 0 0 0.0833333 -188.25 -671.833)" d="M 5791.05,9058.56 L 5791.05,8965.82 L 5811.05,8968.11 L 5811.05,9056.27 L 5791.05,9058.56 Z " />
<path stroke="transparent" fill="#000000" transform="matrix(0.0833333 0 0 0.0833333 -188.25 -671.833)" d="M 5850.68,9051.74 L 5850.68,8972.64 L 5870.68,8974.93 L 5870.68,9049.46 L 5850.68,9051.74 Z " />
<path stroke="transparent" fill="#000000" transform="matrix(0.0833333 0 0 0.0833333 -188.25 -671.833)" d="M 5910.3,9044.93 L 5910.3,8979.46 L 5930.3,8981.74 L 5930.3,9042.64 L 5910.3,9044.93 Z " />
<path stroke="transparent" fill="#000000" transform="matrix(0.0833333 0 0 0.0833333 -188.25 -671.833)" d="M 5969.93,9038.11 L 5969.93,8986.27 L 5989.93,8988.56 L 5989.93,9035.82 L 5969.93,9038.11 Z " />
<path stroke="transparent" fill="#000000" transform="matrix(0.0833333 0 0 0.0833333 -188.25 -671.833)" d="M 6029.56,9031.29 L 6029.56,8993.09 L 6049.56,8995.38 L 6049.56,9029.01 L 6029.56,9031.29 Z " />
<path stroke="transparent" fill="#000000" transform="matrix(0.0833333 0 0 0.0833333 -188.25 -671.833)" d="M 6089.18,9024.48 L 6089.18,8999.91 L 6109.18,9002.19 L 6109.18,9022.19 L 6089.18,9024.48 Z " />
<path stroke="transparent" fill="#000000" transform="matrix(0.0833333 0 0 0.0833333 -188.25 -671.833)" d="M 5703.62,11112.2 L 5583.62,11112.2 L 5585.45,11092.2 L 5701.78,11092.2 L 5703.62,11112.2 Z " />
<path stroke="transparent" fill="#000000" transform="matrix(0.0833333 0 0 0.0833333 -188.25 -671.833)" d="M 5698.26,11053.7 L 5588.97,11053.7 L 5590.8,11033.7 L 5696.43,11033.7 L 5698.26,11053.7 Z " />
<path stroke="transparent" fill="#000000" transform="matrix(0.0833333 0 0 0.0833333 -188.25 -671.833)" d="M 5692.91,10995.3 L 5594.32,10995.3 L 5596.15,10975.3 L 5691.08,10975.3 L 5692.91,10995.3 Z " />
<path stroke="transparent" fill="#000000" transform="matrix(0.0833333 0 0 0.0833333 -188.25 -671.833)" d="M 5687.56,10936.9 L 5599.67,10936.9 L 5601.5,10916.9 L 5685.73,10916.9 L 5687.56,10936.9 Z " />
<path stroke="transparent" fill="#000000" transform="matrix(0.0833333 0 0 0.0833333 -188.25 -671.833)" d="M 5682.21,10878.4 L 5605.02,10878.4 L 5606.85,10858.4 L 5680.38,10858.4 L 5682.21,10878.4 Z " />
<path stroke="transparent" fill="#000000" transform="matrix(0.0833333 0 0 0.0833333 -188.25 -671.833)" d="M 5676.85,10820 L 5610.38,10820 L 5612.21,10800 L 5675.02,10800 L 5676.85,10820 Z " />
<path stroke="transparent" fill="#000000" transform="matrix(0.0833333 0 0 0.0833333 -188.25 -671.833)" d="M 5671.5,10761.5 L 5615.73,10761.5 L 5617.56,10741.5 L 5669.67,10741.5 L 5671.5,10761.5 Z " />
<path stroke="transparent" fill="#000000" transform="matrix(0.0833333 0 0 0.0833333 -188.25 -671.833)" d="M 5666.15,10703.1 L 5621.08,10703.1 L 5622.91,10683.1 L 5664.32,10683.1 L 5666.15,10703.1 Z " />
<path stroke="transparent" fill="#000000" transform="matrix(0.0833333 0 0 0.0833333 -188.25 -671.833)" d="M 5660.8,10644.6 L 5626.43,10644.6 L 5628.26,10624.6 L 5658.97,10624.6 L 5660.8,10644.6 Z " />
<path stroke="transparent" fill="#000000" transform="matrix(0.0833333 0 0 0.0833333 -188.25 -671.833)" d="M 5655.45,10586.2 L 5631.78,10586.2 L 5633.62,10566.2 L 5653.62,10566.2 L 5655.45,10586.2 Z " />
<path stroke="transparent" fill="#000000" transform="matrix(0.0833333 0 0 0.0833333 -188.25 -671.833)" d="M 7254.48,10170.6 L 7154.3,10251.5 L 6692.85,9931.26 L 6682.85,9912.19 L 6704.36,9911.32 L 7254.48,10170.6 Z " />
<path stroke="transparent" fill="#000000" transform="matrix(0.0833333 0 0 0.0833333 -188.25 -671.833)" d="M 7248.46,10707 L 7228.46,10707 L 7228.46,10191.4 L 7248.46,10191.4 L 7248.46,10707 Z " />
<path stroke="transparent" fill="#000000" transform="matrix(0.0833333 0 0 0.0833333 -188.25 -671.833)" d="M 7176.46,10707 L 7156.46,10707 L 7156.46,10191.4 L 7176.46,10191.4 L 7176.46,10707 Z " />
<path stroke="transparent" fill="#000000" transform="matrix(0.0833333 0 0 0.0833333 -188.25 -671.833)" d="M 7617.47,9961.04 L 7627.47,9978.36 L 7154.3,10251.5 L 7254.48,10170.6 L 7617.47,9961.04 Z " />
</svg>
