<?xml version="1.0" standalone="no" ?>
<!DOCTYPE svg PUBLIC "-//W3C//DTD SVG 1.1//EN" "http://www.w3.org/Graphics/SVG/1.1/DTD/svg11.dtd">
<svg width="444px" height="205px" viewBox="0 0 444 205" style="background-color: #ffffff00" xmlns="http://www.w3.org/2000/svg" xmlns:xlink="http://www.w3.org/1999/xlink" version="1.1" >
<path stroke="transparent" fill="#000000" transform="matrix(0.0833333 0 0 0.0833333 -214.208 -257)" d="M 2635.79,3740.75 L 2612.93,3743.15 L 2854.51,3188.88 L 2868.12,3207.7 L 2635.79,3740.75 Z " />
<path stroke="transparent" fill="#000000" transform="matrix(0.0833333 0 0 0.0833333 -214.208 -257)" d="M 2714.88,3737.41 L 2696.55,3729.41 L 2900.59,3261.26 L 2918.93,3269.25 L 2714.88,3737.41 Z " />
<path stroke="transparent" fill="#000000" transform="matrix(0.0833333 0 0 0.0833333 -214.208 -257)" d="M 3584.29,4171.53 L 3572.25,4174.11 L 3565.45,4164.7 L 3797.78,3631.65 L 3809.21,3630.45 L 3815.49,3641.08 L 3584.29,4171.53 Z " />
<path stroke="transparent" fill="#000000" transform="matrix(0.0833333 0 0 0.0833333 -214.208 -257)" d="M 4028.31,5158.07 L 4008.31,5169.44 L 4008.31,4582.71 L 4018.31,4578.28 L 4028.31,4583.96 L 4028.31,5158.07 Z " />
<path stroke="transparent" fill="#000000" transform="matrix(0.0833333 0 0 0.0833333 -214.208 -257)" d="M 5109.84,5061.09 L 4989.84,5061.09 L 5039.29,4583.63 L 5049.84,4578.28 L 5060.4,4583.63 L 5109.84,5061.09 Z " />
<path stroke="transparent" fill="#000000" transform="matrix(0.0833333 0 0 0.0833333 -214.208 -257)" d="M 6597.18,5458.96 L 6597.18,5481.96 L 6071.38,5183.54 L 6091.38,5171.9 L 6597.18,5458.96 Z " />
<path stroke="transparent" fill="#000000" transform="matrix(0.0833333 0 0 0.0833333 -214.208 -257)" d="M 2612.93,3743.15 L 2635.79,3740.75 L 2977.61,4219.34 L 2968.01,4240.31 L 2612.93,3743.15 Z " />
<path stroke="transparent" fill="#000000" transform="matrix(0.0833333 0 0 0.0833333 -214.208 -257)" d="M 2868.12,3207.7 L 2854.51,3188.88 L 3465.55,3132.02 L 3455.96,3153 L 2868.12,3207.7 Z " />
<path stroke="transparent" fill="#000000" transform="matrix(0.0833333 0 0 0.0833333 -214.208 -257)" d="M 2968.01,4240.31 L 2977.61,4219.34 L 3565.45,4164.7 L 3572.25,4174.11 L 3568.8,4184.48 L 2968.01,4240.31 Z " />
<path stroke="transparent" fill="#000000" transform="matrix(0.0833333 0 0 0.0833333 -214.208 -257)" d="M 3008.39,4164.01 L 3006.54,4144.09 L 3522.15,4096.17 L 3524,4116.09 L 3008.39,4164.01 Z " />
<path stroke="transparent" fill="#000000" transform="matrix(0.0833333 0 0 0.0833333 -214.208 -257)" d="M 3455.96,3153 L 3465.55,3132.02 L 3814.69,3620.92 L 3809.21,3630.45 L 3797.78,3631.65 L 3455.96,3153 Z " />
<path stroke="transparent" fill="#000000" transform="matrix(0.0833333 0 0 0.0833333 -214.208 -257)" d="M 3418.1,3223.79 L 3434.38,3212.17 L 3735.1,3633.27 L 3718.82,3644.9 L 3418.1,3223.79 Z " />
<path stroke="transparent" fill="#000000" transform="matrix(0.0833333 0 0 0.0833333 -214.208 -257)" d="M 3568.8,4184.48 L 3572.25,4174.11 L 3584.29,4171.53 L 4019.55,4565.9 L 4018.31,4578.28 L 4008.31,4582.71 L 3568.8,4184.48 Z " />
<path stroke="transparent" fill="#000000" transform="matrix(0.0833333 0 0 0.0833333 -214.208 -257)" d="M 3815.49,3641.08 L 3809.21,3630.45 L 3814.69,3620.92 L 4314.23,3667.41 L 4312.38,3687.32 L 3815.49,3641.08 Z " />
<path stroke="transparent" fill="#000000" transform="matrix(0.0833333 0 0 0.0833333 -214.208 -257)" d="M 4008.31,5169.44 L 4028.31,5158.07 L 4534.11,5458.82 L 4534.11,5482.09 L 4008.31,5169.44 Z " />
<path stroke="transparent" fill="#000000" transform="matrix(0.0833333 0 0 0.0833333 -214.208 -257)" d="M 4028.31,4583.96 L 4018.31,4578.28 L 4019.55,4565.9 L 4522.83,4266.72 L 4534.11,4271.64 L 4534.11,4283.28 L 4028.31,4583.96 Z " />
<path stroke="transparent" fill="#000000" transform="matrix(0.0833333 0 0 0.0833333 -214.208 -257)" d="M 4032.35,4497.79 L 4022.13,4480.6 L 4447.76,4227.58 L 4457.98,4244.77 L 4032.35,4497.79 Z " />
<path stroke="transparent" fill="#000000" transform="matrix(0.0833333 0 0 0.0833333 -214.208 -257)" d="M 4425.56,3812.86 L 4445.12,3808.67 L 4542.97,4265.28 L 4534.11,4271.64 L 4522.83,4266.72 L 4425.56,3812.86 Z " />
<path stroke="transparent" fill="#000000" transform="matrix(0.0833333 0 0 0.0833333 -214.208 -257)" d="M 4534.11,5482.09 L 4534.11,5458.82 L 4935.01,5220.41 L 4945.23,5237.6 L 4534.11,5482.09 Z " />
<path stroke="transparent" fill="#000000" transform="matrix(0.0833333 0 0 0.0833333 -214.208 -257)" d="M 4534.11,4283.28 L 4534.11,4271.64 L 4542.97,4265.28 L 5049.84,4566.64 L 5049.84,4578.28 L 5039.29,4583.63 L 4534.11,4283.28 Z " />
<path stroke="transparent" fill="#000000" transform="matrix(0.0833333 0 0 0.0833333 -214.208 -257)" d="M 5154.45,5237.6 L 5164.68,5220.41 L 5570.68,5461.86 L 5560.46,5479.05 L 5154.45,5237.6 Z " />
<path stroke="transparent" fill="#000000" transform="matrix(0.0833333 0 0 0.0833333 -214.208 -257)" d="M 5060.4,4583.63 L 5049.84,4578.28 L 5049.84,4566.64 L 5560.46,4263.05 L 5570.68,4280.24 L 5060.4,4583.63 Z " />
<path stroke="transparent" fill="#000000" transform="matrix(0.0833333 0 0 0.0833333 -214.208 -257)" d="M 5642.16,5495.98 L 5582.93,5391.62 L 5601.34,5383.54 L 5658.53,5484.32 L 5642.16,5495.98 Z " />
<path stroke="transparent" fill="#000000" transform="matrix(0.0833333 0 0 0.0833333 -214.208 -257)" d="M 5689.76,5462.08 L 5636.44,5368.14 L 5654.85,5360.06 L 5706.13,5450.41 L 5689.76,5462.08 Z " />
<path stroke="transparent" fill="#000000" transform="matrix(0.0833333 0 0 0.0833333 -214.208 -257)" d="M 5737.36,5428.17 L 5689.96,5344.65 L 5708.37,5336.57 L 5753.74,5416.51 L 5737.36,5428.17 Z " />
<path stroke="transparent" fill="#000000" transform="matrix(0.0833333 0 0 0.0833333 -214.208 -257)" d="M 5784.96,5394.27 L 5743.48,5321.17 L 5761.89,5313.09 L 5801.34,5382.6 L 5784.96,5394.27 Z " />
<path stroke="transparent" fill="#000000" transform="matrix(0.0833333 0 0 0.0833333 -214.208 -257)" d="M 5832.56,5360.36 L 5796.99,5297.69 L 5815.4,5289.61 L 5848.94,5348.7 L 5832.56,5360.36 Z " />
<path stroke="transparent" fill="#000000" transform="matrix(0.0833333 0 0 0.0833333 -214.208 -257)" d="M 5880.16,5326.45 L 5850.51,5274.21 L 5868.92,5266.13 L 5896.54,5314.79 L 5880.16,5326.45 Z " />
<path stroke="transparent" fill="#000000" transform="matrix(0.0833333 0 0 0.0833333 -214.208 -257)" d="M 5927.76,5292.55 L 5904.02,5250.72 L 5922.44,5242.64 L 5944.14,5280.88 L 5927.76,5292.55 Z " />
<path stroke="transparent" fill="#000000" transform="matrix(0.0833333 0 0 0.0833333 -214.208 -257)" d="M 5975.36,5258.64 L 5957.54,5227.24 L 5975.95,5219.16 L 5991.74,5246.98 L 5975.36,5258.64 Z " />
<path stroke="transparent" fill="#000000" transform="matrix(0.0833333 0 0 0.0833333 -214.208 -257)" d="M 6022.96,5224.74 L 6011.06,5203.76 L 6029.47,5195.68 L 6039.34,5213.07 L 6022.96,5224.74 Z " />
<path stroke="transparent" fill="#000000" transform="matrix(0.0833333 0 0 0.0833333 -214.208 -257)" d="M 6597.18,5481.96 L 6597.18,5458.96 L 7102.91,5171.9 L 7122.91,5183.54 L 6597.18,5481.96 Z " />
<path stroke="transparent" fill="#000000" transform="matrix(0.0833333 0 0 0.0833333 -214.208 -257)" d="M 5581.33,4350.82 L 5642.65,4247.67 L 5658.81,4259.63 L 5599.56,4359.29 L 5581.33,4350.82 Z " />
<path stroke="transparent" fill="#000000" transform="matrix(0.0833333 0 0 0.0833333 -214.208 -257)" d="M 5635.12,4375.81 L 5690.31,4282.97 L 5706.46,4294.94 L 5653.35,4384.29 L 5635.12,4375.81 Z " />
<path stroke="transparent" fill="#000000" transform="matrix(0.0833333 0 0 0.0833333 -214.208 -257)" d="M 5688.9,4400.81 L 5737.97,4318.28 L 5754.12,4330.25 L 5707.13,4409.29 L 5688.9,4400.81 Z " />
<path stroke="transparent" fill="#000000" transform="matrix(0.0833333 0 0 0.0833333 -214.208 -257)" d="M 5742.69,4425.81 L 5785.62,4353.59 L 5801.78,4365.55 L 5760.92,4434.28 L 5742.69,4425.81 Z " />
<path stroke="transparent" fill="#000000" transform="matrix(0.0833333 0 0 0.0833333 -214.208 -257)" d="M 5796.47,4450.81 L 5833.28,4388.89 L 5849.43,4400.86 L 5814.7,4459.28 L 5796.47,4450.81 Z " />
<path stroke="transparent" fill="#000000" transform="matrix(0.0833333 0 0 0.0833333 -214.208 -257)" d="M 5850.26,4475.81 L 5880.94,4424.2 L 5897.09,4436.16 L 5868.49,4484.28 L 5850.26,4475.81 Z " />
<path stroke="transparent" fill="#000000" transform="matrix(0.0833333 0 0 0.0833333 -214.208 -257)" d="M 5904.04,4500.81 L 5928.6,4459.5 L 5944.75,4471.47 L 5922.27,4509.28 L 5904.04,4500.81 Z " />
<path stroke="transparent" fill="#000000" transform="matrix(0.0833333 0 0 0.0833333 -214.208 -257)" d="M 5957.83,4525.8 L 5976.25,4494.81 L 5992.41,4506.78 L 5976.06,4534.28 L 5957.83,4525.8 Z " />
<path stroke="transparent" fill="#000000" transform="matrix(0.0833333 0 0 0.0833333 -214.208 -257)" d="M 6011.61,4550.8 L 6023.91,4530.12 L 6040.06,4542.08 L 6029.84,4559.27 L 6011.61,4550.8 Z " />
<path stroke="transparent" fill="#000000" transform="matrix(0.0833333 0 0 0.0833333 -214.208 -257)" d="M 6091.38,5171.9 L 6071.38,5183.54 L 6071.38,4572.59 L 6091.38,4583.96 L 6091.38,5171.9 Z " />
<path stroke="transparent" fill="#000000" transform="matrix(0.0833333 0 0 0.0833333 -214.208 -257)" d="M 7122.91,5183.54 L 7102.91,5171.9 L 7102.91,4583.96 L 7112.91,4578.28 L 7122.91,4584.76 L 7122.91,5183.54 Z " />
<path stroke="transparent" fill="#000000" transform="matrix(0.0833333 0 0 0.0833333 -214.208 -257)" d="M 7499.08,4290.15 L 7558.3,4394.51 L 7122.91,4584.76 L 7112.91,4578.28 L 7112.46,4566.37 L 7499.08,4290.15 Z " />
<path stroke="transparent" fill="#000000" transform="matrix(0.0833333 0 0 0.0833333 -214.208 -257)" d="M 6091.38,4583.96 L 6071.38,4572.59 L 6597.18,4260.01 L 6597.18,4283.28 L 6091.38,4583.96 Z " />
<path stroke="transparent" fill="#000000" transform="matrix(0.0833333 0 0 0.0833333 -214.208 -257)" d="M 7112.46,4566.37 L 7112.91,4578.28 L 7102.91,4583.96 L 6597.18,4283.28 L 6597.18,4260.01 L 7112.46,4566.37 Z " />
<path stroke="transparent" fill="#000000" transform="matrix(0.0833333 0 0 0.0833333 -214.208 -257)" d="M 7633.75,3677.64 L 7623.53,3694.83 L 7207.21,3447.19 L 7217.43,3430 L 7633.75,3677.64 Z " />
<path stroke="transparent" fill="#000000" transform="matrix(0.0833333 0 0 0.0833333 -214.208 -257)" d="M 6537.18,3726.31 L 6657.18,3726.31 L 6655.14,3746.31 L 6539.21,3746.31 L 6537.18,3726.31 Z " />
<path stroke="transparent" fill="#000000" transform="matrix(0.0833333 0 0 0.0833333 -214.208 -257)" d="M 6543.17,3785.22 L 6651.18,3785.22 L 6649.15,3805.22 L 6545.21,3805.22 L 6543.17,3785.22 Z " />
<path stroke="transparent" fill="#000000" transform="matrix(0.0833333 0 0 0.0833333 -214.208 -257)" d="M 6549.17,3844.13 L 6645.19,3844.13 L 6643.15,3864.13 L 6551.21,3864.13 L 6549.17,3844.13 Z " />
<path stroke="transparent" fill="#000000" transform="matrix(0.0833333 0 0 0.0833333 -214.208 -257)" d="M 6555.17,3903.05 L 6639.19,3903.05 L 6637.16,3923.05 L 6557.2,3923.05 L 6555.17,3903.05 Z " />
<path stroke="transparent" fill="#000000" transform="matrix(0.0833333 0 0 0.0833333 -214.208 -257)" d="M 6561.16,3961.96 L 6633.2,3961.96 L 6631.16,3981.96 L 6563.2,3981.96 L 6561.16,3961.96 Z " />
<path stroke="transparent" fill="#000000" transform="matrix(0.0833333 0 0 0.0833333 -214.208 -257)" d="M 6567.16,4020.87 L 6627.2,4020.87 L 6625.17,4040.87 L 6569.19,4040.87 L 6567.16,4020.87 Z " />
<path stroke="transparent" fill="#000000" transform="matrix(0.0833333 0 0 0.0833333 -214.208 -257)" d="M 6573.15,4079.79 L 6621.21,4079.79 L 6619.17,4099.79 L 6575.19,4099.79 L 6573.15,4079.79 Z " />
<path stroke="transparent" fill="#000000" transform="matrix(0.0833333 0 0 0.0833333 -214.208 -257)" d="M 6579.15,4138.7 L 6615.21,4138.7 L 6613.17,4158.7 L 6581.18,4158.7 L 6579.15,4138.7 Z " />
<path stroke="transparent" fill="#000000" transform="matrix(0.0833333 0 0 0.0833333 -214.208 -257)" d="M 6585.14,4197.61 L 6609.21,4197.61 L 6607.18,4217.61 L 6587.18,4217.61 L 6585.14,4197.61 Z " />
<path stroke="transparent" fill="#000000" transform="matrix(0.0833333 0 0 0.0833333 -214.208 -257)" d="M 7008.03,3427.51 L 7017.91,3444.9 L 6602.12,3680.97 L 6592.24,3663.58 L 7008.03,3427.51 Z " />
<path stroke="transparent" fill="#000000" transform="matrix(0.0833333 0 0 0.0833333 -214.208 -257)" d="M 6638.33,3643.22 L 6628.11,3660.41 L 6194.09,3402.34 L 6204.31,3385.14 L 6638.33,3643.22 Z " />
<path stroke="transparent" fill="#000000" transform="matrix(0.0833333 0 0 0.0833333 -214.208 -257)" d="M 6602.29,3705.57 L 6592.07,3722.76 L 6157.28,3464.23 L 6167.51,3447.04 L 6602.29,3705.57 Z " />
<text x="0" y="0" stroke="transparent" fill="#000000" transform="matrix(0.0833333 0 0 0.0833333 147.179 56.6866)" style="font:normal normal normal 200px 'Arial'" >
NH</text>
<text x="0" y="0" stroke="transparent" fill="#000000" transform="matrix(0.0833333 0 0 0.0833333 200.612 179.813)" style="font:normal normal normal 200px 'Arial'" >
N</text>
<text x="0" y="0" stroke="transparent" fill="#000000" transform="matrix(0.0833333 0 0 0.0833333 415.012 106.634)" style="font:normal normal normal 200px 'Arial'" >
OH</text>
<text x="0" y="0" stroke="transparent" fill="#000000" transform="matrix(0.0833333 0 0 0.0833333 372.034 31.1219)" style="font:normal normal normal 200px 'Arial'" >
O</text>
<text x="0" y="0" stroke="transparent" fill="#000000" transform="matrix(0.0833333 0 0 0.0833333 286.073 29.9642)" style="font:normal normal normal 200px 'Arial'" >
O</text>
</svg>
