<?xml version="1.0" standalone="no" ?>
<!DOCTYPE svg PUBLIC "-//W3C//DTD SVG 1.1//EN" "http://www.w3.org/Graphics/SVG/1.1/DTD/svg11.dtd">
<svg width="625px" height="318px" viewBox="0 0 625 318" style="background-color: #ffffff00" xmlns="http://www.w3.org/2000/svg" xmlns:xlink="http://www.w3.org/1999/xlink" version="1.1" >
<text x="0" y="0" stroke="transparent" fill="#000000" transform="matrix(0.0666667 0 0 0.0666667 394.284 194.569)" style="font:normal normal normal 200px 'Arial'" >
O</text>
<text x="0" y="0" stroke="transparent" fill="#000000" transform="matrix(0.0666667 0 0 0.0666667 324.998 194.573)" style="font:normal normal normal 200px 'Arial'" >
O</text>
<text x="0" y="0" stroke="transparent" fill="#000000" transform="matrix(0.0666667 0 0 0.0666667 394.284 154.572)" style="font:normal normal normal 200px 'Arial'" >
O</text>
<text x="0" y="0" stroke="transparent" fill="#000000" transform="matrix(0.0666667 0 0 0.0666667 602.132 74.5742)" style="font:normal normal normal 200px 'Arial'" >
OH</text>
<text x="0" y="0" stroke="transparent" fill="#000000" transform="matrix(0.0666667 0 0 0.0666667 532.851 34.5734)" style="font:normal normal normal 200px 'Arial'" >
OH</text>
<text x="0" y="0" stroke="transparent" fill="#000000" transform="matrix(0.0666667 0 0 0.0666667 359.639 94.5747)" style="font:normal normal normal 200px 'Arial'" >
O</text>
<text x="0" y="0" stroke="transparent" fill="#000000" transform="matrix(0.0666667 0 0 0.0666667 280.729 14.569)" style="font:normal normal normal 200px 'Arial'" >
HO</text>
<text x="0" y="0" stroke="transparent" fill="#000000" transform="matrix(0.0666667 0 0 0.0666667 246.088 74.5702)" style="font:normal normal normal 200px 'Arial'" >
HO</text>
<text x="0" y="0" stroke="transparent" fill="#000000" transform="matrix(0.0666667 0 0 0.0666667 255.717 154.572)" style="font:normal normal normal 200px 'Arial'" >
O</text>
<text x="0" y="0" stroke="transparent" fill="#000000" transform="matrix(0.0666667 0 0 0.0666667 221.072 94.5707)" style="font:normal normal normal 200px 'Arial'" >
O</text>
<text x="0" y="0" stroke="transparent" fill="#000000" transform="matrix(0.0666667 0 0 0.0666667 3.59869 214.569)" style="font:normal normal normal 200px 'Arial'" >
HO</text>
<text x="0" y="0" stroke="transparent" fill="#000000" transform="matrix(0.0666667 0 0 0.0666667 82.5091 254.57)" style="font:normal normal normal 200px 'Arial'" >
OH</text>
<text x="0" y="0" stroke="transparent" fill="#000000" transform="matrix(0.0666667 0 0 0.0666667 315.369 274.571)" style="font:normal normal normal 200px 'Arial'" >
HO</text>
<text x="0" y="0" stroke="transparent" fill="#000000" transform="matrix(0.0666667 0 0 0.0666667 394.284 314.575)" style="font:normal normal normal 200px 'Arial'" >
OH</text>
<text x="0" y="0" stroke="transparent" fill="#000000" transform="matrix(0.0666667 0 0 0.0666667 463.565 274.571)" style="font:normal normal normal 200px 'Arial'" >
OH</text>
<path stroke="transparent" fill="#000000" transform="matrix(0.0666667 0 0 0.0666667 -35.92 -186)" d="M 7540.28,5578.57 L 7600.28,5682.49 L 7060.67,5936.84 L 7050.67,5930.54 L 7050.21,5918.73 L 7540.28,5578.57 Z " />
<path stroke="transparent" fill="#000000" transform="matrix(0.0666667 0 0 0.0666667 -35.92 -186)" d="M 6626.09,5696.95 L 6636.09,5679.63 L 7050.21,5918.73 L 7050.67,5930.54 L 7040.67,5936.31 L 6626.09,5696.95 Z " />
<path stroke="transparent" fill="#000000" transform="matrix(0.0666667 0 0 0.0666667 -35.92 -186)" d="M 6426.46,5679.38 L 6436.46,5696.7 L 6021.39,5936.37 L 6001.39,5924.83 L 6426.46,5679.38 Z " />
<path stroke="transparent" fill="#000000" transform="matrix(0.0666667 0 0 0.0666667 -35.92 -186)" d="M 5561.81,5740.31 L 5621.81,5636.39 L 5637.97,5648.4 L 5580.29,5748.3 L 5561.81,5740.31 Z " />
<path stroke="transparent" fill="#000000" transform="matrix(0.0666667 0 0 0.0666667 -35.92 -186)" d="M 5615.99,5763.73 L 5669.18,5671.61 L 5685.34,5683.62 L 5634.48,5771.72 L 5615.99,5763.73 Z " />
<path stroke="transparent" fill="#000000" transform="matrix(0.0666667 0 0 0.0666667 -35.92 -186)" d="M 5670.18,5787.15 L 5716.56,5706.82 L 5732.71,5718.83 L 5688.66,5795.14 L 5670.18,5787.15 Z " />
<path stroke="transparent" fill="#000000" transform="matrix(0.0666667 0 0 0.0666667 -35.92 -186)" d="M 5724.36,5810.57 L 5763.93,5742.04 L 5780.09,5754.05 L 5742.84,5818.56 L 5724.36,5810.57 Z " />
<path stroke="transparent" fill="#000000" transform="matrix(0.0666667 0 0 0.0666667 -35.92 -186)" d="M 5778.54,5833.99 L 5811.3,5777.25 L 5827.46,5789.26 L 5797.03,5841.98 L 5778.54,5833.99 Z " />
<path stroke="transparent" fill="#000000" transform="matrix(0.0666667 0 0 0.0666667 -35.92 -186)" d="M 5832.73,5857.41 L 5858.67,5812.47 L 5874.83,5824.48 L 5851.21,5865.39 L 5832.73,5857.41 Z " />
<path stroke="transparent" fill="#000000" transform="matrix(0.0666667 0 0 0.0666667 -35.92 -186)" d="M 5886.91,5880.83 L 5906.04,5847.68 L 5922.2,5859.7 L 5905.39,5888.81 L 5886.91,5880.83 Z " />
<path stroke="transparent" fill="#000000" transform="matrix(0.0666667 0 0 0.0666667 -35.92 -186)" d="M 5941.09,5904.24 L 5953.42,5882.9 L 5969.57,5894.91 L 5959.57,5912.23 L 5941.09,5904.24 Z " />
<path stroke="transparent" fill="#000000" transform="matrix(0.0666667 0 0 0.0666667 -35.92 -186)" d="M 5551.78,5525.43 L 5431.78,5525.43 L 5434.04,5505.43 L 5549.51,5505.43 L 5551.78,5525.43 Z " />
<path stroke="transparent" fill="#000000" transform="matrix(0.0666667 0 0 0.0666667 -35.92 -186)" d="M 5544.96,5465.32 L 5438.59,5465.32 L 5440.86,5445.32 L 5542.69,5445.32 L 5544.96,5465.32 Z " />
<path stroke="transparent" fill="#000000" transform="matrix(0.0666667 0 0 0.0666667 -35.92 -186)" d="M 5538.14,5405.21 L 5445.41,5405.21 L 5447.68,5385.21 L 5535.87,5385.21 L 5538.14,5405.21 Z " />
<path stroke="transparent" fill="#000000" transform="matrix(0.0666667 0 0 0.0666667 -35.92 -186)" d="M 5531.32,5345.1 L 5452.23,5345.1 L 5454.5,5325.1 L 5529.05,5325.1 L 5531.32,5345.1 Z " />
<path stroke="transparent" fill="#000000" transform="matrix(0.0666667 0 0 0.0666667 -35.92 -186)" d="M 5524.5,5285 L 5459.05,5285 L 5461.32,5265 L 5522.23,5265 L 5524.5,5285 Z " />
<path stroke="transparent" fill="#000000" transform="matrix(0.0666667 0 0 0.0666667 -35.92 -186)" d="M 5517.68,5224.89 L 5465.87,5224.89 L 5468.14,5204.89 L 5515.41,5204.89 L 5517.68,5224.89 Z " />
<path stroke="transparent" fill="#000000" transform="matrix(0.0666667 0 0 0.0666667 -35.92 -186)" d="M 5510.86,5164.78 L 5472.69,5164.78 L 5474.96,5144.78 L 5508.59,5144.78 L 5510.86,5164.78 Z " />
<path stroke="transparent" fill="#000000" transform="matrix(0.0666667 0 0 0.0666667 -35.92 -186)" d="M 5504.04,5104.67 L 5479.51,5104.67 L 5481.78,5084.67 L 5501.78,5084.67 L 5504.04,5104.67 Z " />
<path stroke="transparent" fill="#000000" transform="matrix(0.0666667 0 0 0.0666667 -35.92 -186)" d="M 5491.78,5042.13 L 5491.78,5019.03 L 6001.39,4724.8 L 6011.39,4730.57 L 6010.83,4742.44 L 5491.78,5042.13 Z " />
<path stroke="transparent" fill="#000000" transform="matrix(0.0666667 0 0 0.0666667 -35.92 -186)" d="M 6468.44,4925.15 L 6408.44,5029.07 L 6010.83,4742.44 L 6011.39,4730.57 L 6021.39,4724.16 L 6468.44,4925.15 Z " />
<path stroke="transparent" fill="#000000" transform="matrix(0.0666667 0 0 0.0666667 -35.92 -186)" d="M 7050.67,4719.03 L 7050.67,4742.12 L 6628.68,4985.77 L 6618.68,4968.45 L 7050.67,4719.03 Z " />
<path stroke="transparent" fill="#000000" transform="matrix(0.0666667 0 0 0.0666667 -35.92 -186)" d="M 7570.28,5019.03 L 7570.28,5042.13 L 7050.67,4742.12 L 7050.67,4719.03 L 7570.28,5019.03 Z " />
<path stroke="transparent" fill="#000000" transform="matrix(0.0666667 0 0 0.0666667 -35.92 -186)" d="M 8079.89,4724.8 L 8089.89,4730.57 L 8089.89,4742.12 L 7570.28,5042.13 L 7570.28,5019.03 L 8079.89,4724.8 Z " />
<path stroke="transparent" fill="#000000" transform="matrix(0.0666667 0 0 0.0666667 -35.92 -186)" d="M 8609.56,5019.03 L 8609.56,5042.13 L 8089.89,4742.12 L 8089.89,4730.57 L 8099.89,4724.8 L 8609.56,5019.03 Z " />
<path stroke="transparent" fill="#000000" transform="matrix(0.0666667 0 0 0.0666667 -35.92 -186)" d="M 8614.56,4938.77 L 8604.56,4956.1 L 8156.9,4697.66 L 8166.9,4680.34 L 8614.56,4938.77 Z " />
<path stroke="transparent" fill="#000000" transform="matrix(0.0666667 0 0 0.0666667 -35.92 -186)" d="M 9119.18,4724.8 L 9139.18,4736.35 L 8609.56,5042.13 L 8609.56,5019.03 L 9119.18,4724.8 Z " />
<path stroke="transparent" fill="#000000" transform="matrix(0.0666667 0 0 0.0666667 -35.92 -186)" d="M 9119.18,4136.39 L 9129.18,4130.62 L 9139.18,4136.39 L 9139.18,4736.35 L 9119.18,4724.8 L 9119.18,4136.39 Z " />
<path stroke="transparent" fill="#000000" transform="matrix(0.0666667 0 0 0.0666667 -35.92 -186)" d="M 9047.18,4172.19 L 9067.18,4172.19 L 9067.18,4689.01 L 9047.18,4689.01 L 9047.18,4172.19 Z " />
<path stroke="transparent" fill="#000000" transform="matrix(0.0666667 0 0 0.0666667 -35.92 -186)" d="M 9544.18,3879.46 L 9554.18,3896.78 L 9139.18,4136.39 L 9129.18,4130.62 L 9129.18,4119.07 L 9544.18,3879.46 Z " />
<path stroke="transparent" fill="#000000" transform="matrix(0.0666667 0 0 0.0666667 -35.92 -186)" d="M 8609.56,3842.16 L 8609.56,3830.61 L 8619.56,3824.84 L 9129.18,4119.07 L 9129.18,4130.62 L 9119.18,4136.39 L 8609.56,3842.16 Z " />
<path stroke="transparent" fill="#000000" transform="matrix(0.0666667 0 0 0.0666667 -35.92 -186)" d="M 8599.56,3350.43 L 8619.56,3350.43 L 8619.56,3824.84 L 8609.56,3830.61 L 8599.56,3824.84 L 8599.56,3350.43 Z " />
<path stroke="transparent" fill="#000000" transform="matrix(0.0666667 0 0 0.0666667 -35.92 -186)" d="M 8099.89,4136.39 L 8079.89,4124.85 L 8599.56,3824.84 L 8609.56,3830.61 L 8609.56,3842.16 L 8099.89,4136.39 Z " />
<path stroke="transparent" fill="#000000" transform="matrix(0.0666667 0 0 0.0666667 -35.92 -186)" d="M 8166.9,4180.86 L 8156.9,4163.53 L 8604.56,3905.1 L 8614.56,3922.42 L 8166.9,4180.86 Z " />
<path stroke="transparent" fill="#000000" transform="matrix(0.0666667 0 0 0.0666667 -35.92 -186)" d="M 8079.89,4124.85 L 8099.89,4136.39 L 8099.89,4724.8 L 8089.89,4730.57 L 8079.89,4724.8 L 8079.89,4124.85 Z " />
<path stroke="transparent" fill="#000000" transform="matrix(0.0666667 0 0 0.0666667 -35.92 -186)" d="M 6001.39,4250.45 L 6021.39,4250.45 L 6021.39,4724.16 L 6011.39,4730.57 L 6001.39,4724.8 L 6001.39,4250.45 Z " />
<path stroke="transparent" fill="#000000" transform="matrix(0.0666667 0 0 0.0666667 -35.92 -186)" d="M 5923.77,4068.49 L 5913.77,4085.81 L 5491.78,3842.16 L 5491.78,3830.61 L 5502.23,3825.11 L 5923.77,4068.49 Z " />
<path stroke="transparent" fill="#000000" transform="matrix(0.0666667 0 0 0.0666667 -35.92 -186)" d="M 5429.75,3206.28 L 5549.94,3252.58 L 5502.23,3825.11 L 5491.78,3830.61 L 5481.32,3825.11 L 5429.75,3206.28 Z " />
<path stroke="transparent" fill="#000000" transform="matrix(0.0666667 0 0 0.0666667 -35.92 -186)" d="M 5067.19,2996.95 L 5077.19,2979.63 L 5549.94,3252.58 L 5429.75,3206.28 L 5067.19,2996.95 Z " />
<path stroke="transparent" fill="#000000" transform="matrix(0.0666667 0 0 0.0666667 -35.92 -186)" d="M 5481.32,3825.11 L 5491.78,3830.61 L 5491.78,3842.16 L 4982.16,4136.39 L 4962.16,4124.85 L 5481.32,3825.11 Z " />
<path stroke="transparent" fill="#000000" transform="matrix(0.0666667 0 0 0.0666667 -35.92 -186)" d="M 4522.57,3940.27 L 4582.58,3836.36 L 4598.74,3848.37 L 4541.05,3948.26 L 4522.57,3940.27 Z " />
<path stroke="transparent" fill="#000000" transform="matrix(0.0666667 0 0 0.0666667 -35.92 -186)" d="M 4576.76,3963.7 L 4629.95,3871.58 L 4646.11,3883.59 L 4595.24,3971.69 L 4576.76,3963.7 Z " />
<path stroke="transparent" fill="#000000" transform="matrix(0.0666667 0 0 0.0666667 -35.92 -186)" d="M 4630.94,3987.13 L 4677.33,3906.8 L 4693.49,3918.82 L 4649.42,3995.12 L 4630.94,3987.13 Z " />
<path stroke="transparent" fill="#000000" transform="matrix(0.0666667 0 0 0.0666667 -35.92 -186)" d="M 4685.13,4010.55 L 4724.7,3942.02 L 4740.86,3954.04 L 4703.61,4018.54 L 4685.13,4010.55 Z " />
<path stroke="transparent" fill="#000000" transform="matrix(0.0666667 0 0 0.0666667 -35.92 -186)" d="M 4739.31,4033.98 L 4772.07,3977.25 L 4788.23,3989.26 L 4757.79,4041.97 L 4739.31,4033.98 Z " />
<path stroke="transparent" fill="#000000" transform="matrix(0.0666667 0 0 0.0666667 -35.92 -186)" d="M 4793.5,4057.4 L 4819.45,4012.47 L 4835.61,4024.48 L 4811.98,4065.39 L 4793.5,4057.4 Z " />
<path stroke="transparent" fill="#000000" transform="matrix(0.0666667 0 0 0.0666667 -35.92 -186)" d="M 4847.68,4080.83 L 4866.82,4047.69 L 4882.98,4059.7 L 4866.16,4088.82 L 4847.68,4080.83 Z " />
<path stroke="transparent" fill="#000000" transform="matrix(0.0666667 0 0 0.0666667 -35.92 -186)" d="M 4901.87,4104.26 L 4914.19,4082.91 L 4930.35,4094.93 L 4920.35,4112.25 L 4901.87,4104.26 Z " />
<path stroke="transparent" fill="#000000" transform="matrix(0.0666667 0 0 0.0666667 -35.92 -186)" d="M 4962.16,4124.85 L 4982.16,4136.39 L 4982.16,4724.8 L 4962.16,4736.35 L 4962.16,4124.85 Z " />
<path stroke="transparent" fill="#000000" transform="matrix(0.0666667 0 0 0.0666667 -35.92 -186)" d="M 4962.16,4736.35 L 4982.16,4724.8 L 5491.78,5019.03 L 5491.78,5042.13 L 4962.16,4736.35 Z " />
<path stroke="transparent" fill="#000000" transform="matrix(0.0666667 0 0 0.0666667 -35.92 -186)" d="M 4575.17,5029.07 L 4515.17,4925.14 L 4533.63,4917.12 L 4591.35,5017.09 L 4575.17,5029.07 Z " />
<path stroke="transparent" fill="#000000" transform="matrix(0.0666667 0 0 0.0666667 -35.92 -186)" d="M 4623.61,4993.23 L 4570.42,4901.12 L 4588.88,4893.09 L 4639.79,4981.26 L 4623.61,4993.23 Z " />
<path stroke="transparent" fill="#000000" transform="matrix(0.0666667 0 0 0.0666667 -35.92 -186)" d="M 4672.04,4957.39 L 4625.67,4877.09 L 4644.13,4869.06 L 4688.22,4945.42 L 4672.04,4957.39 Z " />
<path stroke="transparent" fill="#000000" transform="matrix(0.0666667 0 0 0.0666667 -35.92 -186)" d="M 4720.48,4921.56 L 4680.93,4853.06 L 4699.39,4845.03 L 4736.66,4909.58 L 4720.48,4921.56 Z " />
<path stroke="transparent" fill="#000000" transform="matrix(0.0666667 0 0 0.0666667 -35.92 -186)" d="M 4768.91,4885.72 L 4736.18,4829.03 L 4754.64,4821 L 4785.09,4873.75 L 4768.91,4885.72 Z " />
<path stroke="transparent" fill="#000000" transform="matrix(0.0666667 0 0 0.0666667 -35.92 -186)" d="M 4817.34,4849.88 L 4791.43,4805 L 4809.89,4796.97 L 4833.53,4837.91 L 4817.34,4849.88 Z " />
<path stroke="transparent" fill="#000000" transform="matrix(0.0666667 0 0 0.0666667 -35.92 -186)" d="M 4865.78,4814.05 L 4846.68,4780.97 L 4865.14,4772.95 L 4881.96,4802.07 L 4865.78,4814.05 Z " />
<path stroke="transparent" fill="#000000" transform="matrix(0.0666667 0 0 0.0666667 -35.92 -186)" d="M 4914.21,4778.21 L 4901.94,4756.94 L 4920.39,4748.92 L 4930.39,4766.24 L 4914.21,4778.21 Z " />
<path stroke="transparent" fill="#000000" transform="matrix(0.0666667 0 0 0.0666667 -35.92 -186)" d="M 3932.88,4742.12 L 3932.88,4719.03 L 4364.93,4968.45 L 4354.93,4985.77 L 3932.88,4742.12 Z " />
<path stroke="transparent" fill="#000000" transform="matrix(0.0666667 0 0 0.0666667 -35.92 -186)" d="M 3886.88,4250.39 L 3906.88,4250.39 L 3906.88,4751.36 L 3886.88,4751.36 L 3886.88,4250.39 Z " />
<path stroke="transparent" fill="#000000" transform="matrix(0.0666667 0 0 0.0666667 -35.92 -186)" d="M 3958.88,4250.39 L 3978.88,4250.39 L 3978.88,4751.36 L 3958.88,4751.36 L 3958.88,4250.39 Z " />
<path stroke="transparent" fill="#000000" transform="matrix(0.0666667 0 0 0.0666667 -35.92 -186)" d="M 3413.27,5042.13 L 3413.27,5019.03 L 3932.88,4719.03 L 3932.88,4742.12 L 3413.27,5042.13 Z " />
<path stroke="transparent" fill="#000000" transform="matrix(0.0666667 0 0 0.0666667 -35.92 -186)" d="M 2893.66,4742.12 L 2893.66,4719.03 L 3413.27,5019.03 L 3413.27,5042.13 L 2893.66,4742.12 Z " />
<path stroke="transparent" fill="#000000" transform="matrix(0.0666667 0 0 0.0666667 -35.92 -186)" d="M 2888.66,4822.37 L 2898.66,4805.05 L 3382.27,5084.27 L 3372.27,5101.59 L 2888.66,4822.37 Z " />
<path stroke="transparent" fill="#000000" transform="matrix(0.0666667 0 0 0.0666667 -35.92 -186)" d="M 2384.05,5036.35 L 2374.05,5030.58 L 2374.05,5019.03 L 2893.66,4719.03 L 2893.66,4742.12 L 2384.05,5036.35 Z " />
<path stroke="transparent" fill="#000000" transform="matrix(0.0666667 0 0 0.0666667 -35.92 -186)" d="M 1854.44,4742.12 L 1854.44,4719.03 L 2374.05,5019.03 L 2374.05,5030.58 L 2364.05,5036.35 L 1854.44,4742.12 Z " />
<path stroke="transparent" fill="#000000" transform="matrix(0.0666667 0 0 0.0666667 -35.92 -186)" d="M 1849.43,4822.37 L 1859.43,4805.05 L 2307.05,5063.49 L 2297.05,5080.81 L 1849.43,4822.37 Z " />
<path stroke="transparent" fill="#000000" transform="matrix(0.0666667 0 0 0.0666667 -35.92 -186)" d="M 1344.82,5036.29 L 1324.82,5024.75 L 1854.44,4719.03 L 1854.44,4742.12 L 1344.82,5036.29 Z " />
<path stroke="transparent" fill="#000000" transform="matrix(0.0666667 0 0 0.0666667 -35.92 -186)" d="M 1344.82,5624.76 L 1334.82,5630.53 L 1324.82,5624.76 L 1324.82,5024.75 L 1344.82,5036.29 L 1344.82,5624.76 Z " />
<path stroke="transparent" fill="#000000" transform="matrix(0.0666667 0 0 0.0666667 -35.92 -186)" d="M 1416.83,5588.96 L 1396.83,5588.96 L 1396.83,5072.09 L 1416.83,5072.09 L 1416.83,5588.96 Z " />
<path stroke="transparent" fill="#000000" transform="matrix(0.0666667 0 0 0.0666667 -35.92 -186)" d="M 912.824,5885.73 L 902.824,5868.41 L 1324.82,5624.76 L 1334.82,5630.53 L 1334.82,5642.08 L 912.824,5885.73 Z " />
<path stroke="transparent" fill="#000000" transform="matrix(0.0666667 0 0 0.0666667 -35.92 -186)" d="M 1854.44,5918.99 L 1854.44,5930.54 L 1844.44,5936.31 L 1334.82,5642.08 L 1334.82,5630.53 L 1344.82,5624.76 L 1854.44,5918.99 Z " />
<path stroke="transparent" fill="#000000" transform="matrix(0.0666667 0 0 0.0666667 -35.92 -186)" d="M 1864.44,6425.39 L 1844.44,6425.39 L 1844.44,5936.31 L 1854.44,5930.54 L 1864.44,5936.31 L 1864.44,6425.39 Z " />
<path stroke="transparent" fill="#000000" transform="matrix(0.0666667 0 0 0.0666667 -35.92 -186)" d="M 2364.05,5624.76 L 2384.05,5636.31 L 1864.44,5936.31 L 1854.44,5930.54 L 1854.44,5918.99 L 2364.05,5624.76 Z " />
<path stroke="transparent" fill="#000000" transform="matrix(0.0666667 0 0 0.0666667 -35.92 -186)" d="M 2297.05,5580.3 L 2307.05,5597.62 L 1859.44,5856.06 L 1849.44,5838.74 L 2297.05,5580.3 Z " />
<path stroke="transparent" fill="#000000" transform="matrix(0.0666667 0 0 0.0666667 -35.92 -186)" d="M 2384.05,5636.31 L 2364.05,5624.76 L 2364.05,5036.35 L 2374.05,5030.58 L 2384.05,5036.35 L 2384.05,5636.31 Z " />
<path stroke="transparent" fill="#000000" transform="matrix(0.0666667 0 0 0.0666667 -35.92 -186)" d="M 6001.39,5924.83 L 6021.39,5936.37 L 6021.39,6524.78 L 6011.39,6530.55 L 6001.39,6524.14 L 6001.39,5924.83 Z " />
<path stroke="transparent" fill="#000000" transform="matrix(0.0666667 0 0 0.0666667 -35.92 -186)" d="M 5614.39,6829.05 L 5554.38,6725.13 L 6001.39,6524.14 L 6011.39,6530.55 L 6011.94,6542.42 L 5614.39,6829.05 Z " />
<path stroke="transparent" fill="#000000" transform="matrix(0.0666667 0 0 0.0666667 -35.92 -186)" d="M 6011.94,6542.42 L 6011.39,6530.55 L 6021.39,6524.78 L 6531.06,6819.07 L 6531.06,6830.62 L 6520.51,6836.07 L 6011.94,6542.42 Z " />
<path stroke="transparent" fill="#000000" transform="matrix(0.0666667 0 0 0.0666667 -35.92 -186)" d="M 6591.06,7325.47 L 6471.06,7325.47 L 6520.51,6836.07 L 6531.06,6830.62 L 6541.61,6836.07 L 6591.06,7325.47 Z " />
<path stroke="transparent" fill="#000000" transform="matrix(0.0666667 0 0 0.0666667 -35.92 -186)" d="M 6541.61,6836.07 L 6531.06,6830.62 L 6531.06,6819.07 L 7040.67,6524.78 L 7060.67,6536.33 L 6541.61,6836.07 Z " />
<path stroke="transparent" fill="#000000" transform="matrix(0.0666667 0 0 0.0666667 -35.92 -186)" d="M 7060.67,6536.33 L 7040.67,6524.78 L 7040.67,5936.31 L 7050.67,5930.54 L 7060.67,5936.84 L 7060.67,6536.33 Z " />
<path stroke="transparent" fill="#000000" transform="matrix(0.0666667 0 0 0.0666667 -35.92 -186)" d="M 7507.66,6725.12 L 7447.66,6829.05 L 7431.48,6817.07 L 7489.2,6717.1 L 7507.66,6725.12 Z " />
<path stroke="transparent" fill="#000000" transform="matrix(0.0666667 0 0 0.0666667 -35.92 -186)" d="M 7452.41,6701.09 L 7399.23,6793.21 L 7383.05,6781.24 L 7433.95,6693.07 L 7452.41,6701.09 Z " />
<path stroke="transparent" fill="#000000" transform="matrix(0.0666667 0 0 0.0666667 -35.92 -186)" d="M 7397.16,6677.07 L 7350.79,6757.37 L 7334.61,6745.4 L 7378.7,6669.04 L 7397.16,6677.07 Z " />
<path stroke="transparent" fill="#000000" transform="matrix(0.0666667 0 0 0.0666667 -35.92 -186)" d="M 7341.91,6653.04 L 7302.36,6721.54 L 7286.18,6709.56 L 7323.45,6645.01 L 7341.91,6653.04 Z " />
<path stroke="transparent" fill="#000000" transform="matrix(0.0666667 0 0 0.0666667 -35.92 -186)" d="M 7286.66,6629.01 L 7253.92,6685.7 L 7237.74,6673.73 L 7268.2,6620.98 L 7286.66,6629.01 Z " />
<path stroke="transparent" fill="#000000" transform="matrix(0.0666667 0 0 0.0666667 -35.92 -186)" d="M 7231.4,6604.98 L 7205.49,6649.86 L 7189.31,6637.89 L 7212.94,6596.95 L 7231.4,6604.98 Z " />
<path stroke="transparent" fill="#000000" transform="matrix(0.0666667 0 0 0.0666667 -35.92 -186)" d="M 7176.15,6580.95 L 7157.06,6614.03 L 7140.87,6602.05 L 7157.69,6572.92 L 7176.15,6580.95 Z " />
<path stroke="transparent" fill="#000000" transform="matrix(0.0666667 0 0 0.0666667 -35.92 -186)" d="M 7120.9,6556.92 L 7108.62,6578.19 L 7092.44,6566.22 L 7102.44,6548.9 L 7120.9,6556.92 Z " />
</svg>
