<?xml version="1.0" standalone="no" ?>
<!DOCTYPE svg PUBLIC "-//W3C//DTD SVG 1.1//EN" "http://www.w3.org/Graphics/SVG/1.1/DTD/svg11.dtd">
<svg width="416px" height="233px" viewBox="0 0 416 233" style="background-color: #ffffff00" xmlns="http://www.w3.org/2000/svg" xmlns:xlink="http://www.w3.org/1999/xlink" version="1.1" >
<text x="0" y="0" stroke="none" fill="#000000" transform="matrix(0.0666667 0 0 0.0666667 33.1604 54.6169)" font-style="normal" font-weight="normal" font-size="200px" font-family="Arial" >
O</text>
<text x="0" y="0" stroke="none" fill="#000000" transform="matrix(0.0666667 0 0 0.0666667 67.8014 114.617)" font-style="normal" font-weight="normal" font-size="200px" font-family="Arial" >
O</text>
<text x="0" y="0" stroke="none" fill="#000000" transform="matrix(0.0666667 0 0 0.0666667 171.724 94.6169)" font-style="normal" font-weight="normal" font-size="200px" font-family="Arial" >
O</text>
<text x="0" y="0" stroke="none" fill="#000000" transform="matrix(0.0666667 0 0 0.0666667 382.972 102.256)" font-style="normal" font-weight="normal" font-size="200px" font-family="Arial" >
O</text>
<text x="0" y="0" stroke="none" fill="#000000" transform="matrix(0.0666667 0 0 0.0666667 310.689 94.6169)" font-style="normal" font-weight="normal" font-size="200px" font-family="Arial" >
N</text>
<text x="0" y="0" stroke="none" fill="#000000" transform="matrix(0.0666667 0 0 0.0666667 310.289 214.617)" font-style="normal" font-weight="normal" font-size="200px" font-family="Arial" >
O</text>
<text x="0" y="0" stroke="none" fill="#000000" transform="matrix(0.0666667 0 0 0.0666667 241.007 54.6169)" font-style="normal" font-weight="normal" font-size="200px" font-family="Arial" >
O</text>
<text x="0" y="0" stroke="none" fill="#000000" transform="matrix(0.0666667 0 0 0.0666667 102.442 14.6169)" font-style="normal" font-weight="normal" font-size="200px" font-family="Arial" >
OH</text>
<path stroke="none" fill="#000000" transform="matrix(0.0666667 0 0 0.0666667 -159.853 -216.333)" d="M 2973.21,4574.71 L 2973.21,4597.8 L 2458.59,4894.91 L 2448.59,4877.59 L 2973.21,4574.71 Z " />
<path stroke="none" fill="#000000" transform="matrix(0.0666667 0 0 0.0666667 -159.853 -216.333)" d="M 2927.21,4106.09 L 2947.21,4106.09 L 2947.21,4607.04 L 2927.21,4607.04 L 2927.21,4106.09 Z " />
<path stroke="none" fill="#000000" transform="matrix(0.0666667 0 0 0.0666667 -159.853 -216.333)" d="M 2999.21,4106.09 L 3019.21,4106.09 L 3019.21,4607.04 L 2999.21,4607.04 L 2999.21,4106.09 Z " />
<path stroke="none" fill="#000000" transform="matrix(0.0666667 0 0 0.0666667 -159.853 -216.333)" d="M 3405.2,4824.12 L 3395.2,4841.44 L 2973.21,4597.8 L 2973.21,4574.71 L 3405.2,4824.12 Z " />
<path stroke="none" fill="#000000" transform="matrix(0.0666667 0 0 0.0666667 -159.853 -216.333)" d="M 4002.44,4580.48 L 4012.44,4586.25 L 4012.44,4597.8 L 3590.44,4841.44 L 3580.44,4824.12 L 4002.44,4580.48 Z " />
<path stroke="none" fill="#000000" transform="matrix(0.0666667 0 0 0.0666667 -159.853 -216.333)" d="M 4532.05,4874.71 L 4532.05,4897.8 L 4012.44,4597.8 L 4012.44,4586.25 L 4022.44,4580.48 L 4532.05,4874.71 Z " />
<path stroke="none" fill="#000000" transform="matrix(0.0666667 0 0 0.0666667 -159.853 -216.333)" d="M 4947.06,4635.1 L 4957.06,4652.42 L 4532.05,4897.8 L 4532.05,4874.71 L 4947.06,4635.1 Z " />
<path stroke="none" fill="#000000" transform="matrix(0.0666667 0 0 0.0666667 -159.853 -216.333)" d="M 5571.28,4874.71 L 5571.28,4886.25 L 5561.28,4892.03 L 5146.7,4652.67 L 5156.7,4635.35 L 5571.28,4874.71 Z " />
<path stroke="none" fill="#000000" transform="matrix(0.0666667 0 0 0.0666667 -159.853 -216.333)" d="M 6080.9,4580.48 L 6090.9,4586.25 L 6090.9,4597.8 L 5581.28,4892.03 L 5571.28,4886.25 L 5571.28,4874.71 L 6080.9,4580.48 Z " />
<path stroke="none" fill="#000000" transform="matrix(0.0666667 0 0 0.0666667 -159.853 -216.333)" d="M 6085.9,4660.73 L 6095.9,4678.05 L 5648.28,4936.48 L 5638.28,4919.16 L 6085.9,4660.73 Z " />
<path stroke="none" fill="#000000" transform="matrix(0.0666667 0 0 0.0666667 -159.853 -216.333)" d="M 6610.51,4874.71 L 6610.51,4886.25 L 6600.51,4892.03 L 6090.9,4597.8 L 6090.9,4586.25 L 6100.9,4580.48 L 6610.51,4874.71 Z " />
<path stroke="none" fill="#000000" transform="matrix(0.0666667 0 0 0.0666667 -159.853 -216.333)" d="M 6620.51,5480.48 L 6610.51,5486.25 L 6600.51,5480.48 L 6600.51,4892.03 L 6610.51,4886.25 L 6620.51,4892.03 L 6620.51,5480.48 Z " />
<path stroke="none" fill="#000000" transform="matrix(0.0666667 0 0 0.0666667 -159.853 -216.333)" d="M 6692.51,5444.68 L 6672.51,5444.68 L 6672.51,4927.82 L 6692.51,4927.82 L 6692.51,5444.68 Z " />
<path stroke="none" fill="#000000" transform="matrix(0.0666667 0 0 0.0666667 -159.853 -216.333)" d="M 6090.9,5797.8 L 6090.9,5774.71 L 6600.51,5480.48 L 6610.51,5486.25 L 6610.51,5497.8 L 6090.9,5797.8 Z " />
<path stroke="none" fill="#000000" transform="matrix(0.0666667 0 0 0.0666667 -159.853 -216.333)" d="M 5561.28,5492.03 L 5581.28,5480.48 L 6090.9,5774.71 L 6090.9,5797.8 L 5561.28,5492.03 Z " />
<path stroke="none" fill="#000000" transform="matrix(0.0666667 0 0 0.0666667 -159.853 -216.333)" d="M 5638.28,5453.34 L 5648.28,5436.02 L 6095.9,5694.45 L 6085.9,5711.78 L 5638.28,5453.34 Z " />
<path stroke="none" fill="#000000" transform="matrix(0.0666667 0 0 0.0666667 -159.853 -216.333)" d="M 5581.28,5480.48 L 5561.28,5492.03 L 5561.28,4892.03 L 5571.28,4886.25 L 5581.28,4892.03 L 5581.28,5480.48 Z " />
<path stroke="none" fill="#000000" transform="matrix(0.0666667 0 0 0.0666667 -159.853 -216.333)" d="M 7130.13,5774.71 L 7130.13,5786.25 L 7120.13,5792.03 L 6610.51,5497.8 L 6610.51,5486.25 L 6620.51,5480.48 L 7130.13,5774.71 Z " />
<path stroke="none" fill="#000000" transform="matrix(0.0666667 0 0 0.0666667 -159.853 -216.333)" d="M 7639.74,5480.48 L 7649.74,5486.25 L 7650.89,5497.14 L 7140.13,5792.03 L 7130.13,5786.25 L 7130.13,5774.71 L 7639.74,5480.48 Z " />
<path stroke="none" fill="#000000" transform="matrix(0.0666667 0 0 0.0666667 -159.853 -216.333)" d="M 7572.74,5436.02 L 7582.74,5453.34 L 7135.13,5711.78 L 7125.13,5694.45 L 7572.74,5436.02 Z " />
<path stroke="none" fill="#000000" transform="matrix(0.0666667 0 0 0.0666667 -159.853 -216.333)" d="M 8216.56,5659.91 L 8224.2,5683.42 L 7650.89,5497.14 L 7649.74,5486.25 L 7659.74,5478.99 L 8216.56,5659.91 Z " />
<path stroke="none" fill="#000000" transform="matrix(0.0666667 0 0 0.0666667 -159.853 -216.333)" d="M 8560.69,5186.25 L 8585.41,5186.25 L 8224.2,5683.42 L 8216.56,5659.91 L 8560.69,5186.25 Z " />
<path stroke="none" fill="#000000" transform="matrix(0.0666667 0 0 0.0666667 -159.853 -216.333)" d="M 8475.96,5180.38 L 8492.14,5192.13 L 8200.97,5592.9 L 8184.79,5581.14 L 8475.96,5180.38 Z " />
<path stroke="none" fill="#000000" transform="matrix(0.0666667 0 0 0.0666667 -159.853 -216.333)" d="M 8283.04,4804.11 L 8299.22,4792.35 L 8585.41,5186.25 L 8560.69,5186.25 L 8283.04,4804.11 Z " />
<path stroke="none" fill="#000000" transform="matrix(0.0666667 0 0 0.0666667 -159.853 -216.333)" d="M 7659.74,4893.52 L 7649.74,4886.25 L 7650.89,4875.37 L 8110.8,4725.93 L 8116.98,4744.95 L 7659.74,4893.52 Z " />
<path stroke="none" fill="#000000" transform="matrix(0.0666667 0 0 0.0666667 -159.853 -216.333)" d="M 7639.74,4892.03 L 7649.74,4886.25 L 7659.74,4893.52 L 7659.74,5478.99 L 7649.74,5486.25 L 7639.74,5480.48 L 7639.74,4892.03 Z " />
<path stroke="none" fill="#000000" transform="matrix(0.0666667 0 0 0.0666667 -159.853 -216.333)" d="M 7235.18,4658.45 L 7245.18,4641.13 L 7650.89,4875.37 L 7649.74,4886.25 L 7639.74,4892.03 L 7235.18,4658.45 Z " />
<path stroke="none" fill="#000000" transform="matrix(0.0666667 0 0 0.0666667 -159.853 -216.333)" d="M 7199.18,4720.81 L 7209.18,4703.49 L 7582.74,4919.16 L 7572.74,4936.48 L 7199.18,4720.81 Z " />
<path stroke="none" fill="#000000" transform="matrix(0.0666667 0 0 0.0666667 -159.853 -216.333)" d="M 7015.07,4641.13 L 7025.07,4658.45 L 6620.51,4892.03 L 6610.51,4886.25 L 6610.51,4874.71 L 7015.07,4641.13 Z " />
<path stroke="none" fill="#000000" transform="matrix(0.0666667 0 0 0.0666667 -159.853 -216.333)" d="M 7140.13,6281.09 L 7120.13,6281.09 L 7120.13,5792.03 L 7130.13,5786.25 L 7140.13,5792.03 L 7140.13,6281.09 Z " />
<path stroke="none" fill="#000000" transform="matrix(0.0666667 0 0 0.0666667 -159.853 -216.333)" d="M 7654.74,6677.59 L 7644.74,6694.91 L 7225.16,6452.67 L 7235.16,6435.35 L 7654.74,6677.59 Z " />
<path stroke="none" fill="#000000" transform="matrix(0.0666667 0 0 0.0666667 -159.853 -216.333)" d="M 6080.9,4106.09 L 6100.9,4106.09 L 6100.9,4580.48 L 6090.9,4586.25 L 6080.9,4580.48 L 6080.9,4106.09 Z " />
<path stroke="none" fill="#000000" transform="matrix(0.0666667 0 0 0.0666667 -159.853 -216.333)" d="M 5566.28,3694.91 L 5576.28,3677.59 L 6003.28,3924.12 L 5993.28,3941.44 L 5566.28,3694.91 Z " />
<path stroke="none" fill="#000000" transform="matrix(0.0666667 0 0 0.0666667 -159.853 -216.333)" d="M 4002.44,3992.03 L 4012.44,3986.25 L 4022.44,3992.03 L 4022.44,4580.48 L 4012.44,4586.25 L 4002.44,4580.48 L 4002.44,3992.03 Z " />
<path stroke="none" fill="#000000" transform="matrix(0.0666667 0 0 0.0666667 -159.853 -216.333)" d="M 3487.82,3694.91 L 3497.82,3677.59 L 4002.44,3968.93 L 4012.44,3986.25 L 4002.44,3992.03 L 3487.82,3694.91 Z " />
<path stroke="none" fill="#000000" transform="matrix(0.0666667 0 0 0.0666667 -159.853 -216.333)" d="M 4527.05,3677.59 L 4537.05,3694.91 L 4022.44,3992.03 L 4012.44,3986.25 L 4022.44,3968.93 L 4527.05,3677.59 Z " />
<path stroke="none" fill="#000000" transform="matrix(0.0666667 0 0 0.0666667 -159.853 -216.333)" d="M 4002.44,3506.09 L 4022.44,3506.09 L 4022.44,3968.93 L 4012.44,3986.25 L 4002.44,3968.93 L 4002.44,3506.09 Z " />
</svg>
