<?xml version="1.0" standalone="no" ?>
<!DOCTYPE svg PUBLIC "-//W3C//DTD SVG 1.1//EN" "http://www.w3.org/Graphics/SVG/1.1/DTD/svg11.dtd">
<svg width="583px" height="465px" viewBox="0 0 583 465" style="background-color: #ffffff00" xmlns="http://www.w3.org/2000/svg" xmlns:xlink="http://www.w3.org/1999/xlink" version="1.1" >
<text x="0" y="0" stroke="transparent" fill="#000000" transform="matrix(0.0833333 0 0 0.0833333 4.15843 327.613)" style="font:normal normal normal 200px 'Arial'" >
HO</text>
<text x="0" y="0" stroke="transparent" fill="#000000" transform="matrix(0.0833333 0 0 0.0833333 189.345 377.598)" style="font:normal normal normal 200px 'Arial'" >
OH</text>
<text x="0" y="0" stroke="transparent" fill="#000000" transform="matrix(0.0833333 0 0 0.0833333 232.633 102.684)" style="font:normal normal normal 200px 'Arial'" >
OH</text>
<text x="0" y="0" stroke="transparent" fill="#000000" transform="matrix(0.0833333 0 0 0.0833333 389.796 91.2845)" style="font:normal normal normal 200px 'Arial'" >
O</text>
<text x="0" y="0" stroke="transparent" fill="#000000" transform="matrix(0.0833333 0 0 0.0833333 407.796 175.968)" style="font:normal normal normal 200px 'Arial'" >
O</text>
<text x="0" y="0" stroke="transparent" fill="#000000" transform="matrix(0.0833333 0 0 0.0833333 376.904 271.044)" style="font:normal normal normal 200px 'Arial'" >
O</text>
<text x="0" y="0" stroke="transparent" fill="#000000" transform="matrix(0.0833333 0 0 0.0833333 312.566 328.974)" style="font:normal normal normal 200px 'Arial'" >
O</text>
<text x="0" y="0" stroke="transparent" fill="#000000" transform="matrix(0.0833333 0 0 0.0833333 303.084 461.195)" style="font:normal normal normal 200px 'Arial'" >
HO</text>
<text x="0" y="0" stroke="transparent" fill="#000000" transform="matrix(0.0833333 0 0 0.0833333 412.904 440.41)" style="font:normal normal normal 200px 'Arial'" >
OH</text>
<text x="0" y="0" stroke="transparent" fill="#000000" transform="matrix(0.0833333 0 0 0.0833333 443.796 345.335)" style="font:normal normal normal 200px 'Arial'" >
OH</text>
<text x="0" y="0" stroke="transparent" fill="#000000" transform="matrix(0.0833333 0 0 0.0833333 523.58 239.867)" style="font:normal normal normal 200px 'Arial'" >
OH</text>
<text x="0" y="0" stroke="transparent" fill="#000000" transform="matrix(0.0833333 0 0 0.0833333 554.472 144.791)" style="font:normal normal normal 200px 'Arial'" >
OH</text>
<text x="0" y="0" stroke="transparent" fill="#000000" transform="matrix(0.0833333 0 0 0.0833333 487.58 70.4999)" style="font:normal normal normal 200px 'Arial'" >
OH</text>
<path stroke="transparent" fill="#000000" transform="matrix(0.0833333 0 0 0.0833333 -264.167 -113.333)" d="M 5351.53,1862.43 L 5362.74,1860.04 L 5370.4,1868.56 L 5186.82,2433.56 L 5167.95,2427.43 L 5351.53,1862.43 Z " />
<path stroke="transparent" fill="#000000" transform="matrix(0.0833333 0 0 0.0833333 -264.167 -113.333)" d="M 5952.98,1724.44 L 5945.9,1746.23 L 5370.4,1868.56 L 5362.74,1860.04 L 5366.28,1849.15 L 5952.98,1724.44 Z " />
<path stroke="transparent" fill="#000000" transform="matrix(0.0833333 0 0 0.0833333 -264.167 -113.333)" d="M 5921.7,1804.68 L 5925.82,1824.09 L 5420.41,1931.51 L 5416.29,1912.1 L 5921.7,1804.68 Z " />
<path stroke="transparent" fill="#000000" transform="matrix(0.0833333 0 0 0.0833333 -264.167 -113.333)" d="M 6354.33,2170.19 L 6347.25,2191.98 L 5945.9,1746.23 L 5952.98,1724.44 L 6354.33,2170.19 Z " />
<path stroke="transparent" fill="#000000" transform="matrix(0.0833333 0 0 0.0833333 -264.167 -113.333)" d="M 6941.04,2045.48 L 6933.96,2067.27 L 6347.25,2191.98 L 6354.33,2170.19 L 6941.04,2045.48 Z " />
<path stroke="transparent" fill="#000000" transform="matrix(0.0833333 0 0 0.0833333 -264.167 -113.333)" d="M 7342.39,2491.23 L 7338.85,2502.12 L 7318.81,2494.7 L 6933.96,2067.27 L 6941.04,2045.48 L 7342.39,2491.23 Z " />
<path stroke="transparent" fill="#000000" transform="matrix(0.0833333 0 0 0.0833333 -264.167 -113.333)" d="M 6764.62,2685.52 L 6739.67,2568.14 L 7318.81,2494.7 L 7338.85,2502.12 L 7324.28,2516.84 L 6764.62,2685.52 Z " />
<path stroke="transparent" fill="#000000" transform="matrix(0.0833333 0 0 0.0833333 -264.167 -113.333)" d="M 7140.37,3226.67 L 7129.5,3228.58 L 7121.42,3220.77 L 7324.28,2516.84 L 7338.85,2502.12 L 7346.74,2510.59 L 7140.37,3226.67 Z " />
<path stroke="transparent" fill="#000000" transform="matrix(0.0833333 0 0 0.0833333 -264.167 -113.333)" d="M 7494.32,3713.83 L 7469.8,3713.83 L 7125.71,3240.24 L 7129.5,3228.58 L 7140.37,3226.67 L 7494.32,3713.83 Z " />
<path stroke="transparent" fill="#000000" transform="matrix(0.0833333 0 0 0.0833333 -264.167 -113.333)" d="M 7133.29,4210.75 L 7125.71,4187.43 L 7469.8,3713.83 L 7494.32,3713.83 L 7133.29,4210.75 Z " />
<path stroke="transparent" fill="#000000" transform="matrix(0.0833333 0 0 0.0833333 -264.167 -113.333)" d="M 6560.18,4024.54 L 6559.04,4013.74 L 6568.97,4006.53 L 7125.71,4187.43 L 7133.29,4210.75 L 6560.18,4024.54 Z " />
<path stroke="transparent" fill="#000000" transform="matrix(0.0833333 0 0 0.0833333 -264.167 -113.333)" d="M 6549.12,3419.66 L 6559.04,3413.93 L 6568.97,3421.14 L 6568.97,4006.53 L 6559.04,4013.74 L 6549.12,4008.01 L 6549.12,3419.66 Z " />
<path stroke="transparent" fill="#000000" transform="matrix(0.0833333 0 0 0.0833333 -264.167 -113.333)" d="M 6568.97,3421.14 L 6559.04,3413.93 L 6570.43,3399.8 L 7121.42,3220.77 L 7129.5,3228.58 L 7125.71,3240.24 L 6568.97,3421.14 Z " />
<path stroke="transparent" fill="#000000" transform="matrix(0.0833333 0 0 0.0833333 -264.167 -113.333)" d="M 6039.59,3125.48 L 6039.59,3114.02 L 6050.08,3108.62 L 6547.22,3395.65 L 6559.04,3413.93 L 6549.12,3419.66 L 6039.59,3125.48 Z " />
<path stroke="transparent" fill="#000000" transform="matrix(0.0833333 0 0 0.0833333 -264.167 -113.333)" d="M 5530.06,3419.66 L 5510.22,3408.2 L 6029.11,3108.62 L 6039.59,3114.02 L 6039.59,3125.48 L 5530.06,3419.66 Z " />
<path stroke="transparent" fill="#000000" transform="matrix(0.0833333 0 0 0.0833333 -264.167 -113.333)" d="M 5530.06,4008.01 L 5520.14,4013.74 L 5510.22,4008.01 L 5510.22,3408.2 L 5530.06,3419.66 L 5530.06,4008.01 Z " />
<path stroke="transparent" fill="#000000" transform="matrix(0.0833333 0 0 0.0833333 -264.167 -113.333)" d="M 6028.16,4295.59 L 6039.59,4313.64 L 6029.67,4319.37 L 5520.14,4025.2 L 5520.14,4013.74 L 5530.06,4008.01 L 6028.16,4295.59 Z " />
<path stroke="transparent" fill="#000000" transform="matrix(0.0833333 0 0 0.0833333 -264.167 -113.333)" d="M 6049.51,4319.37 L 6039.59,4313.64 L 6051.02,4295.59 L 6549.12,4008.01 L 6559.04,4013.74 L 6560.18,4024.54 L 6049.51,4319.37 Z " />
<path stroke="transparent" fill="#000000" transform="matrix(0.0833333 0 0 0.0833333 -264.167 -113.333)" d="M 6049.51,4919.18 L 6029.67,4907.73 L 6029.67,4319.37 L 6039.59,4313.64 L 6049.51,4319.37 L 6049.51,4919.18 Z " />
<path stroke="transparent" fill="#000000" transform="matrix(0.0833333 0 0 0.0833333 -264.167 -113.333)" d="M 5520.14,5224.82 L 5520.14,5201.91 L 6029.67,4907.73 L 6049.51,4919.18 L 5520.14,5224.82 Z " />
<path stroke="transparent" fill="#000000" transform="matrix(0.0833333 0 0 0.0833333 -264.167 -113.333)" d="M 5000.69,4924.91 L 5000.69,4913.46 L 5010.61,4907.73 L 5520.14,5201.91 L 5520.14,5224.82 L 5000.69,4924.91 Z " />
<path stroke="transparent" fill="#000000" transform="matrix(0.0833333 0 0 0.0833333 -264.167 -113.333)" d="M 4990.77,4319.37 L 5000.69,4313.64 L 5010.61,4319.37 L 5010.61,4907.73 L 5000.69,4913.46 L 4990.77,4907.73 L 4990.77,4319.37 Z " />
<path stroke="transparent" fill="#000000" transform="matrix(0.0833333 0 0 0.0833333 -264.167 -113.333)" d="M 5010.61,4319.37 L 5000.69,4313.64 L 5012.12,4295.59 L 5510.22,4008.01 L 5520.14,4013.74 L 5520.14,4025.2 L 5010.61,4319.37 Z " />
<path stroke="transparent" fill="#000000" transform="matrix(0.0833333 0 0 0.0833333 -264.167 -113.333)" d="M 4481.24,4025.2 L 4481.24,4002.28 L 4989.26,4295.59 L 5000.69,4313.64 L 4990.77,4319.37 L 4481.24,4025.2 Z " />
<path stroke="transparent" fill="#000000" transform="matrix(0.0833333 0 0 0.0833333 -264.167 -113.333)" d="M 3971.71,4319.37 L 3951.87,4307.92 L 4481.24,4002.28 L 4481.24,4025.2 L 3971.71,4319.37 Z " />
<path stroke="transparent" fill="#000000" transform="matrix(0.0833333 0 0 0.0833333 -264.167 -113.333)" d="M 3971.71,4907.73 L 3961.79,4913.46 L 3951.87,4907.09 L 3951.87,4307.92 L 3971.71,4319.37 L 3971.71,4907.73 Z " />
<path stroke="transparent" fill="#000000" transform="matrix(0.0833333 0 0 0.0833333 -264.167 -113.333)" d="M 4481.24,5201.91 L 4481.24,5213.36 L 4467.69,5216.99 L 3962.34,4925.23 L 3961.79,4913.46 L 3971.71,4907.73 L 4481.24,5201.91 Z " />
<path stroke="transparent" fill="#000000" transform="matrix(0.0833333 0 0 0.0833333 -264.167 -113.333)" d="M 4494.79,5216.99 L 4481.24,5213.36 L 4481.24,5201.91 L 4990.77,4907.73 L 5000.69,4913.46 L 5000.69,4924.91 L 4494.79,5216.99 Z " />
<path stroke="transparent" fill="#000000" transform="matrix(0.0833333 0 0 0.0833333 -264.167 -113.333)" d="M 4789.74,5727.85 L 4772.55,5737.77 L 4481.24,5233.2 L 4481.24,5213.36 L 4494.79,5216.99 L 4789.74,5727.85 Z " />
<path stroke="transparent" fill="#000000" transform="matrix(0.0833333 0 0 0.0833333 -264.167 -113.333)" d="M 4189.92,5737.77 L 4172.74,5727.85 L 4467.69,5216.99 L 4481.24,5213.36 L 4481.24,5233.2 L 4189.92,5737.77 Z " />
<path stroke="transparent" fill="#000000" transform="matrix(0.0833333 0 0 0.0833333 -264.167 -113.333)" d="M 3565.16,5211.73 L 3505.16,5107.81 L 3951.87,4907.09 L 3961.79,4913.46 L 3962.34,4925.23 L 3565.16,5211.73 Z " />
<path stroke="transparent" fill="#000000" transform="matrix(0.0833333 0 0 0.0833333 -264.167 -113.333)" d="M 4940.69,3713.83 L 5060.69,3713.83 L 5012.12,4295.59 L 5000.69,4313.64 L 4989.26,4295.59 L 4940.69,3713.83 Z " />
<path stroke="transparent" fill="#000000" transform="matrix(0.0833333 0 0 0.0833333 -264.167 -113.333)" d="M 5580.14,5707.75 L 5460.14,5707.75 L 5462.4,5687.91 L 5577.89,5687.91 L 5580.14,5707.75 Z " />
<path stroke="transparent" fill="#000000" transform="matrix(0.0833333 0 0 0.0833333 -264.167 -113.333)" d="M 5573.31,5647.66 L 5466.97,5647.66 L 5469.23,5627.82 L 5571.05,5627.82 L 5573.31,5647.66 Z " />
<path stroke="transparent" fill="#000000" transform="matrix(0.0833333 0 0 0.0833333 -264.167 -113.333)" d="M 5566.48,5587.57 L 5473.8,5587.57 L 5476.06,5567.73 L 5564.22,5567.73 L 5566.48,5587.57 Z " />
<path stroke="transparent" fill="#000000" transform="matrix(0.0833333 0 0 0.0833333 -264.167 -113.333)" d="M 5559.65,5527.48 L 5480.64,5527.48 L 5482.89,5507.63 L 5557.39,5507.63 L 5559.65,5527.48 Z " />
<path stroke="transparent" fill="#000000" transform="matrix(0.0833333 0 0 0.0833333 -264.167 -113.333)" d="M 5552.81,5467.38 L 5487.47,5467.38 L 5489.72,5447.54 L 5550.56,5447.54 L 5552.81,5467.38 Z " />
<path stroke="transparent" fill="#000000" transform="matrix(0.0833333 0 0 0.0833333 -264.167 -113.333)" d="M 5545.98,5407.29 L 5494.3,5407.29 L 5496.56,5387.45 L 5543.73,5387.45 L 5545.98,5407.29 Z " />
<path stroke="transparent" fill="#000000" transform="matrix(0.0833333 0 0 0.0833333 -264.167 -113.333)" d="M 5539.15,5347.2 L 5501.13,5347.2 L 5503.39,5327.36 L 5536.89,5327.36 L 5539.15,5347.2 Z " />
<path stroke="transparent" fill="#000000" transform="matrix(0.0833333 0 0 0.0833333 -264.167 -113.333)" d="M 5532.32,5287.1 L 5507.96,5287.1 L 5510.22,5267.26 L 5530.06,5267.26 L 5532.32,5287.1 Z " />
<path stroke="transparent" fill="#000000" transform="matrix(0.0833333 0 0 0.0833333 -264.167 -113.333)" d="M 5979.59,3713.83 L 6099.59,3713.83 L 6051.02,4295.59 L 6039.59,4313.64 L 6028.16,4295.59 L 5979.59,3713.83 Z " />
<path stroke="transparent" fill="#000000" transform="matrix(0.0833333 0 0 0.0833333 -264.167 -113.333)" d="M 5979.59,2634.3 L 6099.59,2634.3 L 6050.08,3108.62 L 6039.59,3114.02 L 6029.11,3108.62 L 5979.59,2634.3 Z " />
<path stroke="transparent" fill="#000000" transform="matrix(0.0833333 0 0 0.0833333 -264.167 -113.333)" d="M 6619.04,4613.55 L 6499.04,4613.55 L 6500.86,4593.71 L 6617.22,4593.71 L 6619.04,4613.55 Z " />
<path stroke="transparent" fill="#000000" transform="matrix(0.0833333 0 0 0.0833333 -264.167 -113.333)" d="M 6613.68,4555.1 L 6504.41,4555.1 L 6506.23,4535.26 L 6611.86,4535.26 L 6613.68,4555.1 Z " />
<path stroke="transparent" fill="#000000" transform="matrix(0.0833333 0 0 0.0833333 -264.167 -113.333)" d="M 6608.32,4496.65 L 6509.77,4496.65 L 6511.59,4476.81 L 6606.5,4476.81 L 6608.32,4496.65 Z " />
<path stroke="transparent" fill="#000000" transform="matrix(0.0833333 0 0 0.0833333 -264.167 -113.333)" d="M 6602.96,4438.2 L 6515.13,4438.2 L 6516.95,4418.36 L 6601.14,4418.36 L 6602.96,4438.2 Z " />
<path stroke="transparent" fill="#000000" transform="matrix(0.0833333 0 0 0.0833333 -264.167 -113.333)" d="M 6597.6,4379.76 L 6520.49,4379.76 L 6522.31,4359.91 L 6595.78,4359.91 L 6597.6,4379.76 Z " />
<path stroke="transparent" fill="#000000" transform="matrix(0.0833333 0 0 0.0833333 -264.167 -113.333)" d="M 6592.23,4321.31 L 6525.85,4321.31 L 6527.67,4301.46 L 6590.41,4301.46 L 6592.23,4321.31 Z " />
<path stroke="transparent" fill="#000000" transform="matrix(0.0833333 0 0 0.0833333 -264.167 -113.333)" d="M 6586.87,4262.86 L 6531.22,4262.86 L 6533.04,4243.02 L 6585.05,4243.02 L 6586.87,4262.86 Z " />
<path stroke="transparent" fill="#000000" transform="matrix(0.0833333 0 0 0.0833333 -264.167 -113.333)" d="M 6581.51,4204.41 L 6536.58,4204.41 L 6538.4,4184.57 L 6579.69,4184.57 L 6581.51,4204.41 Z " />
<path stroke="transparent" fill="#000000" transform="matrix(0.0833333 0 0 0.0833333 -264.167 -113.333)" d="M 6576.15,4145.96 L 6541.94,4145.96 L 6543.76,4126.12 L 6574.33,4126.12 L 6576.15,4145.96 Z " />
<path stroke="transparent" fill="#000000" transform="matrix(0.0833333 0 0 0.0833333 -264.167 -113.333)" d="M 6570.79,4087.51 L 6547.3,4087.51 L 6549.12,4067.67 L 6568.97,4067.67 L 6570.79,4087.51 Z " />
<path stroke="transparent" fill="#000000" transform="matrix(0.0833333 0 0 0.0833333 -264.167 -113.333)" d="M 7815.11,2390.75 L 7819.23,2410.16 L 7346.74,2510.59 L 7338.85,2502.12 L 7342.39,2491.23 L 7815.11,2390.75 Z " />
<path stroke="transparent" fill="#000000" transform="matrix(0.0833333 0 0 0.0833333 -264.167 -113.333)" d="M 8331.08,2812.13 L 8326.91,2823.16 L 8315.5,2826.16 L 7961.13,2506.6 L 8050.31,2426.3 L 8331.08,2812.13 Z " />
<path stroke="transparent" fill="#000000" transform="matrix(0.0833333 0 0 0.0833333 -264.167 -113.333)" d="M 8917.15,2687.56 L 8910.07,2709.35 L 8334.57,2831.67 L 8326.91,2823.16 L 8331.08,2812.13 L 8917.15,2687.56 Z " />
<path stroke="transparent" fill="#000000" transform="matrix(0.0833333 0 0 0.0833333 -264.167 -113.333)" d="M 9318.07,3132.83 L 9314.96,3144.2 L 9303.76,3146.58 L 8910.07,2709.35 L 8917.15,2687.56 L 9318.07,3132.83 Z " />
<path stroke="transparent" fill="#000000" transform="matrix(0.0833333 0 0 0.0833333 -264.167 -113.333)" d="M 9137.28,3723.17 L 9121.94,3706.14 L 9303.76,3146.58 L 9314.96,3144.2 L 9322.43,3153.32 L 9137.28,3723.17 Z " />
<path stroke="transparent" fill="#000000" transform="matrix(0.0833333 0 0 0.0833333 -264.167 -113.333)" d="M 8551.09,3847.77 L 8542.91,3839.36 L 8546.45,3828.47 L 9121.94,3706.14 L 9137.28,3723.17 L 8551.09,3847.77 Z " />
<path stroke="transparent" fill="#000000" transform="matrix(0.0833333 0 0 0.0833333 -264.167 -113.333)" d="M 8214.35,3489.29 L 8229.09,3476.01 L 8546.45,3828.47 L 8542.91,3839.36 L 8531.35,3841.35 L 8214.35,3489.29 Z " />
<path stroke="transparent" fill="#000000" transform="matrix(0.0833333 0 0 0.0833333 -264.167 -113.333)" d="M 8183.81,3295.68 L 8164.94,3289.55 L 8315.5,2826.16 L 8326.91,2823.16 L 8334.57,2831.67 L 8183.81,3295.68 Z " />
<path stroke="transparent" fill="#000000" transform="matrix(0.0833333 0 0 0.0833333 -264.167 -113.333)" d="M 8419.7,4406.75 L 8291.03,4413.81 L 8531.35,3841.35 L 8542.91,3839.36 L 8551.09,3847.77 L 8419.7,4406.75 Z " />
<path stroke="transparent" fill="#000000" transform="matrix(0.0833333 0 0 0.0833333 -264.167 -113.333)" d="M 7878.11,4521.87 L 7873.98,4502.46 L 8291.03,4413.81 L 8419.7,4406.75 L 7878.11,4521.87 Z " />
<path stroke="transparent" fill="#000000" transform="matrix(0.0833333 0 0 0.0833333 -264.167 -113.333)" d="M 7597.14,5103.08 L 7585.5,5104.98 L 7577.19,5096.6 L 7676.07,4632.06 L 7790.2,4669.14 L 7597.14,5103.08 Z " />
<path stroke="transparent" fill="#000000" transform="matrix(0.0833333 0 0 0.0833333 -264.167 -113.333)" d="M 7998.06,5548.34 L 7975.64,5553.11 L 7581.96,5115.87 L 7585.5,5104.98 L 7597.14,5103.08 L 7998.06,5548.34 Z " />
<path stroke="transparent" fill="#000000" transform="matrix(0.0833333 0 0 0.0833333 -264.167 -113.333)" d="M 7812.9,6118.19 L 7801.5,6121.18 L 7793.83,6112.66 L 7975.64,5553.11 L 7998.06,5548.34 L 7812.9,6118.19 Z " />
<path stroke="transparent" fill="#000000" transform="matrix(0.0833333 0 0 0.0833333 -264.167 -113.333)" d="M 7223.08,6254.27 L 7214.8,6245.89 L 7218.34,6234.99 L 7793.83,6112.66 L 7801.5,6121.18 L 7797.34,6132.21 L 7223.08,6254.27 Z " />
<path stroke="transparent" fill="#000000" transform="matrix(0.0833333 0 0 0.0833333 -264.167 -113.333)" d="M 6802.24,5802.52 L 6824.65,5797.76 L 7218.34,6234.99 L 7214.8,6245.89 L 7203.17,6247.8 L 6802.24,5802.52 Z " />
<path stroke="transparent" fill="#000000" transform="matrix(0.0833333 0 0 0.0833333 -264.167 -113.333)" d="M 6951.64,5342.7 L 6970.52,5348.83 L 6824.65,5797.76 L 6802.24,5802.52 L 6951.64,5342.7 Z " />
<path stroke="transparent" fill="#000000" transform="matrix(0.0833333 0 0 0.0833333 -264.167 -113.333)" d="M 7106.05,5217.03 L 7101.93,5197.62 L 7577.19,5096.6 L 7585.5,5104.98 L 7581.96,5115.87 L 7106.05,5217.03 Z " />
<path stroke="transparent" fill="#000000" transform="matrix(0.0833333 0 0 0.0833333 -264.167 -113.333)" d="M 7119.28,6734.01 L 7005.16,6696.93 L 7203.17,6247.8 L 7214.8,6245.89 L 7223.08,6254.27 L 7119.28,6734.01 Z " />
<path stroke="transparent" fill="#000000" transform="matrix(0.0833333 0 0 0.0833333 -264.167 -113.333)" d="M 8175.86,6447.28 L 8086.68,6527.57 L 7797.34,6132.21 L 7801.5,6121.18 L 7812.9,6118.19 L 8175.86,6447.28 Z " />
<path stroke="transparent" fill="#000000" transform="matrix(0.0833333 0 0 0.0833333 -264.167 -113.333)" d="M 8452.7,5390.37 L 8477.65,5507.74 L 8457.76,5509.63 L 8433.76,5396.72 L 8452.7,5390.37 Z " />
<path stroke="transparent" fill="#000000" transform="matrix(0.0833333 0 0 0.0833333 -264.167 -113.333)" d="M 8396.08,5409.38 L 8418.19,5513.4 L 8398.31,5515.29 L 8377.15,5415.74 L 8396.08,5409.38 Z " />
<path stroke="transparent" fill="#000000" transform="matrix(0.0833333 0 0 0.0833333 -264.167 -113.333)" d="M 8339.47,5428.39 L 8358.74,5519.06 L 8338.86,5520.95 L 8320.54,5434.75 L 8339.47,5428.39 Z " />
<path stroke="transparent" fill="#000000" transform="matrix(0.0833333 0 0 0.0833333 -264.167 -113.333)" d="M 8282.86,5447.41 L 8299.29,5524.71 L 8279.4,5526.6 L 8263.92,5453.77 L 8282.86,5447.41 Z " />
<path stroke="transparent" fill="#000000" transform="matrix(0.0833333 0 0 0.0833333 -264.167 -113.333)" d="M 8226.24,5466.42 L 8239.84,5530.37 L 8219.95,5532.26 L 8207.31,5472.78 L 8226.24,5466.42 Z " />
<path stroke="transparent" fill="#000000" transform="matrix(0.0833333 0 0 0.0833333 -264.167 -113.333)" d="M 8169.63,5485.43 L 8180.38,5536.03 L 8160.5,5537.92 L 8150.7,5491.79 L 8169.63,5485.43 Z " />
<path stroke="transparent" fill="#000000" transform="matrix(0.0833333 0 0 0.0833333 -264.167 -113.333)" d="M 8113.02,5504.45 L 8120.93,5541.68 L 8101.05,5543.57 L 8094.08,5510.81 L 8113.02,5504.45 Z " />
<path stroke="transparent" fill="#000000" transform="matrix(0.0833333 0 0 0.0833333 -264.167 -113.333)" d="M 8056.4,5523.46 L 8061.48,5547.34 L 8041.6,5549.23 L 8037.47,5529.82 L 8056.4,5523.46 Z " />
<path stroke="transparent" fill="#000000" transform="matrix(0.0833333 0 0 0.0833333 -264.167 -113.333)" d="M 9503.97,4040.75 L 9414.79,4121.05 L 9403.2,4104.79 L 9489.01,4027.52 L 9503.97,4040.75 Z " />
<path stroke="transparent" fill="#000000" transform="matrix(0.0833333 0 0 0.0833333 -264.167 -113.333)" d="M 9458.84,4000.84 L 9379.81,4071.99 L 9368.22,4055.73 L 9443.88,3987.61 L 9458.84,4000.84 Z " />
<path stroke="transparent" fill="#000000" transform="matrix(0.0833333 0 0 0.0833333 -264.167 -113.333)" d="M 9413.7,3960.92 L 9344.83,4022.93 L 9333.24,4006.67 L 9398.75,3947.69 L 9413.7,3960.92 Z " />
<path stroke="transparent" fill="#000000" transform="matrix(0.0833333 0 0 0.0833333 -264.167 -113.333)" d="M 9368.57,3921.01 L 9309.85,3973.88 L 9298.26,3957.62 L 9353.61,3907.77 L 9368.57,3921.01 Z " />
<path stroke="transparent" fill="#000000" transform="matrix(0.0833333 0 0 0.0833333 -264.167 -113.333)" d="M 9323.44,3881.09 L 9274.87,3924.82 L 9263.28,3908.56 L 9308.48,3867.86 L 9323.44,3881.09 Z " />
<path stroke="transparent" fill="#000000" transform="matrix(0.0833333 0 0 0.0833333 -264.167 -113.333)" d="M 9278.31,3841.17 L 9239.89,3875.76 L 9228.3,3859.5 L 9263.35,3827.94 L 9278.31,3841.17 Z " />
<path stroke="transparent" fill="#000000" transform="matrix(0.0833333 0 0 0.0833333 -264.167 -113.333)" d="M 9233.17,3801.26 L 9204.91,3826.7 L 9193.32,3810.44 L 9218.21,3788.02 L 9233.17,3801.26 Z " />
<path stroke="transparent" fill="#000000" transform="matrix(0.0833333 0 0 0.0833333 -264.167 -113.333)" d="M 9188.04,3761.34 L 9169.93,3777.65 L 9158.34,3761.39 L 9173.08,3748.11 L 9188.04,3761.34 Z " />
<path stroke="transparent" fill="#000000" transform="matrix(0.0833333 0 0 0.0833333 -264.167 -113.333)" d="M 9780.81,2983.84 L 9805.76,3101.22 L 9322.43,3153.32 L 9314.96,3144.2 L 9318.07,3132.83 L 9780.81,2983.84 Z " />
<path stroke="transparent" fill="#000000" transform="matrix(0.0833333 0 0 0.0833333 -264.167 -113.333)" d="M 9004.18,2225.53 L 9118.31,2262.62 L 9109.95,2280.76 L 9000.28,2245.13 L 9004.18,2225.53 Z " />
<path stroke="transparent" fill="#000000" transform="matrix(0.0833333 0 0 0.0833333 -264.167 -113.333)" d="M 8992.83,2282.53 L 9093.99,2315.39 L 9085.63,2333.54 L 8988.93,2302.12 L 8992.83,2282.53 Z " />
<path stroke="transparent" fill="#000000" transform="matrix(0.0833333 0 0 0.0833333 -264.167 -113.333)" d="M 8981.49,2339.52 L 9069.67,2368.17 L 9061.31,2386.32 L 8977.58,2359.12 L 8981.49,2339.52 Z " />
<path stroke="transparent" fill="#000000" transform="matrix(0.0833333 0 0 0.0833333 -264.167 -113.333)" d="M 8970.14,2396.51 L 9045.35,2420.95 L 9036.99,2439.1 L 8966.24,2416.11 L 8970.14,2396.51 Z " />
<path stroke="transparent" fill="#000000" transform="matrix(0.0833333 0 0 0.0833333 -264.167 -113.333)" d="M 8958.79,2453.51 L 9021.03,2473.73 L 9012.67,2491.88 L 8954.89,2473.1 L 8958.79,2453.51 Z " />
<path stroke="transparent" fill="#000000" transform="matrix(0.0833333 0 0 0.0833333 -264.167 -113.333)" d="M 8947.44,2510.5 L 8996.71,2526.51 L 8988.35,2544.66 L 8943.54,2530.1 L 8947.44,2510.5 Z " />
<path stroke="transparent" fill="#000000" transform="matrix(0.0833333 0 0 0.0833333 -264.167 -113.333)" d="M 8936.09,2567.49 L 8972.4,2579.29 L 8964.03,2597.44 L 8932.19,2587.09 L 8936.09,2567.49 Z " />
<path stroke="transparent" fill="#000000" transform="matrix(0.0833333 0 0 0.0833333 -264.167 -113.333)" d="M 8924.75,2624.49 L 8948.08,2632.07 L 8939.71,2650.22 L 8920.84,2644.08 L 8924.75,2624.49 Z " />
<path stroke="transparent" fill="#000000" transform="matrix(0.0833333 0 0 0.0833333 -264.167 -113.333)" d="M 4954.01,1420.94 L 4968.76,1407.66 L 5366.28,1849.15 L 5362.74,1860.04 L 5351.53,1862.43 L 4954.01,1420.94 Z " />
<text x="0" y="0" stroke="transparent" fill="#000000" transform="matrix(0.0833333 0 0 0.0833333 146.557 352.606)" style="font:normal normal normal 200px 'Arial'" >
H</text>
<path stroke="transparent" fill="#000000" transform="matrix(0.0833333 0 0 0.0833333 -264.167 -113.333)" d="M 5060.69,5410.35 L 4940.69,5410.35 L 4942.93,5390.51 L 5058.45,5390.51 L 5060.69,5410.35 Z " />
<path stroke="transparent" fill="#000000" transform="matrix(0.0833333 0 0 0.0833333 -264.167 -113.333)" d="M 5053.86,5349.91 L 4947.52,5349.91 L 4949.77,5330.06 L 5051.61,5330.06 L 5053.86,5349.91 Z " />
<path stroke="transparent" fill="#000000" transform="matrix(0.0833333 0 0 0.0833333 -264.167 -113.333)" d="M 5047.02,5289.46 L 4954.36,5289.46 L 4956.6,5269.62 L 5044.78,5269.62 L 5047.02,5289.46 Z " />
<path stroke="transparent" fill="#000000" transform="matrix(0.0833333 0 0 0.0833333 -264.167 -113.333)" d="M 5040.19,5229.02 L 4961.19,5229.02 L 4963.43,5209.18 L 5037.95,5209.18 L 5040.19,5229.02 Z " />
<path stroke="transparent" fill="#000000" transform="matrix(0.0833333 0 0 0.0833333 -264.167 -113.333)" d="M 5033.36,5168.58 L 4968.02,5168.58 L 4970.27,5148.74 L 5031.11,5148.74 L 5033.36,5168.58 Z " />
<path stroke="transparent" fill="#000000" transform="matrix(0.0833333 0 0 0.0833333 -264.167 -113.333)" d="M 5026.52,5108.14 L 4974.86,5108.14 L 4977.1,5088.3 L 5024.28,5088.3 L 5026.52,5108.14 Z " />
<path stroke="transparent" fill="#000000" transform="matrix(0.0833333 0 0 0.0833333 -264.167 -113.333)" d="M 5019.69,5047.7 L 4981.69,5047.7 L 4983.93,5027.85 L 5017.44,5027.85 L 5019.69,5047.7 Z " />
<path stroke="transparent" fill="#000000" transform="matrix(0.0833333 0 0 0.0833333 -264.167 -113.333)" d="M 5012.85,4987.25 L 4988.52,4987.25 L 4990.77,4967.41 L 5010.61,4967.41 L 5012.85,4987.25 Z " />
<text x="0" y="0" stroke="transparent" fill="#000000" transform="matrix(0.0833333 0 0 0.0833333 189.845 277.629)" style="font:normal normal normal 200px 'Arial'" >
H</text>
<path stroke="transparent" fill="#000000" transform="matrix(0.0833333 0 0 0.0833333 -264.167 -113.333)" d="M 5580.14,4510.63 L 5460.14,4510.63 L 5462.38,4490.79 L 5577.9,4490.79 L 5580.14,4510.63 Z " />
<path stroke="transparent" fill="#000000" transform="matrix(0.0833333 0 0 0.0833333 -264.167 -113.333)" d="M 5573.31,4450.19 L 5466.97,4450.19 L 5469.22,4430.35 L 5571.06,4430.35 L 5573.31,4450.19 Z " />
<path stroke="transparent" fill="#000000" transform="matrix(0.0833333 0 0 0.0833333 -264.167 -113.333)" d="M 5566.47,4389.75 L 5473.81,4389.75 L 5476.05,4369.9 L 5564.23,4369.9 L 5566.47,4389.75 Z " />
<path stroke="transparent" fill="#000000" transform="matrix(0.0833333 0 0 0.0833333 -264.167 -113.333)" d="M 5559.64,4329.31 L 5480.64,4329.31 L 5482.89,4309.46 L 5557.4,4309.46 L 5559.64,4329.31 Z " />
<path stroke="transparent" fill="#000000" transform="matrix(0.0833333 0 0 0.0833333 -264.167 -113.333)" d="M 5552.81,4268.86 L 5487.48,4268.86 L 5489.72,4249.02 L 5550.56,4249.02 L 5552.81,4268.86 Z " />
<path stroke="transparent" fill="#000000" transform="matrix(0.0833333 0 0 0.0833333 -264.167 -113.333)" d="M 5545.97,4208.42 L 5494.31,4208.42 L 5496.55,4188.58 L 5543.73,4188.58 L 5545.97,4208.42 Z " />
<path stroke="transparent" fill="#000000" transform="matrix(0.0833333 0 0 0.0833333 -264.167 -113.333)" d="M 5539.14,4147.98 L 5501.14,4147.98 L 5503.39,4128.14 L 5536.9,4128.14 L 5539.14,4147.98 Z " />
<path stroke="transparent" fill="#000000" transform="matrix(0.0833333 0 0 0.0833333 -264.167 -113.333)" d="M 5532.31,4087.54 L 5507.98,4087.54 L 5510.22,4067.69 L 5530.06,4067.69 L 5532.31,4087.54 Z " />
<text x="0" y="0" stroke="transparent" fill="#000000" transform="matrix(0.0833333 0 0 0.0833333 276.42 127.676)" style="font:normal normal normal 200px 'Arial'" >
H</text>
<path stroke="transparent" fill="#000000" transform="matrix(0.0833333 0 0 0.0833333 -264.167 -113.333)" d="M 6499.04,2931.7 L 6619.04,2931.7 L 6570.43,3399.8 L 6559.04,3413.93 L 6547.22,3395.65 L 6499.04,2931.7 Z " />
</svg>
