<?xml version="1.0" standalone="no" ?>
<!DOCTYPE svg PUBLIC "-//W3C//DTD SVG 1.1//EN" "http://www.w3.org/Graphics/SVG/1.1/DTD/svg11.dtd">
<svg width="184px" height="140px" viewBox="0 0 184 140" style="background-color: #ffffff00" xmlns="http://www.w3.org/2000/svg" xmlns:xlink="http://www.w3.org/1999/xlink" version="1.1" >
<text x="0" y="0" stroke="transparent" fill="#000000" transform="matrix(0.0833333 0 0 0.0833333 140.206 135.391)" style="font:normal normal normal 200px 'Arial'" >
O</text>
<text x="0" y="0" stroke="transparent" fill="#000000" transform="matrix(0.0833333 0 0 0.0833333 85.6575 18.0719)" style="font:normal normal normal 200px 'Arial'" >
O</text>
<text x="0" y="0" stroke="transparent" fill="#000000" transform="matrix(0.0833333 0 0 0.0833333 19.3919 135.539)" style="font:normal normal normal 200px 'Arial'" >
HO</text>
<path stroke="transparent" fill="#000000" transform="matrix(0.0833333 0 0 0.0833333 -343.875 -299)" d="M 5726.23,4086.8 L 5718.28,4078.87 L 5720.02,4067.79 L 6285.56,3883.18 L 6291.76,3902.19 L 5726.23,4086.8 Z " />
<path stroke="transparent" fill="#000000" transform="matrix(0.0833333 0 0 0.0833333 -343.875 -299)" d="M 5540.93,4659.75 L 5526.37,4639.77 L 5706.53,4082.71 L 5718.28,4078.87 L 5726.23,4086.8 L 5540.93,4659.75 Z " />
<path stroke="transparent" fill="#000000" transform="matrix(0.0833333 0 0 0.0833333 -343.875 -299)" d="M 5861.29,5021.33 L 5845.13,5033.1 L 5539.26,4613.31 L 5555.42,4601.53 L 5861.29,5021.33 Z " />
<path stroke="transparent" fill="#000000" transform="matrix(0.0833333 0 0 0.0833333 -343.875 -299)" d="M 5803.1,5063.73 L 5786.94,5075.5 L 5481.07,4655.71 L 5497.23,4643.93 L 5803.1,5063.73 Z " />
<path stroke="transparent" fill="#000000" transform="matrix(0.0833333 0 0 0.0833333 -343.875 -299)" d="M 4938.76,4660.57 L 4933.65,4650.57 L 4940.9,4640.56 L 5526.37,4639.77 L 5540.93,4659.75 L 4938.76,4660.57 Z " />
<path stroke="transparent" fill="#000000" transform="matrix(0.0833333 0 0 0.0833333 -343.875 -299)" d="M 4739.54,4088.14 L 4747.46,4080.19 L 4759.22,4084 L 4940.9,4640.56 L 4933.65,4650.57 L 4922.56,4648.83 L 4739.54,4088.14 Z " />
<path stroke="transparent" fill="#000000" transform="matrix(0.0833333 0 0 0.0833333 -343.875 -299)" d="M 4822.63,4110.68 L 4841.65,4104.48 L 4995.37,4575.4 L 4976.35,4581.61 L 4822.63,4110.68 Z " />
<path stroke="transparent" fill="#000000" transform="matrix(0.0833333 0 0 0.0833333 -343.875 -299)" d="M 5132.33,3787.4 L 5144.1,3803.56 L 4759.22,4084 L 4747.46,4080.19 L 4745.69,4069.11 L 5132.33,3787.4 Z " />
<path stroke="transparent" fill="#000000" transform="matrix(0.0833333 0 0 0.0833333 -343.875 -299)" d="M 5321.33,3803.65 L 5333.06,3787.45 L 5720.02,4067.79 L 5718.28,4078.87 L 5706.53,4082.71 L 5321.33,3803.65 Z " />
<path stroke="transparent" fill="#000000" transform="matrix(0.0833333 0 0 0.0833333 -343.875 -299)" d="M 4173.5,3905.07 L 4179.65,3886.05 L 4745.69,4069.11 L 4747.46,4080.19 L 4739.54,4088.14 L 4173.5,3905.07 Z " />
<path stroke="transparent" fill="#000000" transform="matrix(0.0833333 0 0 0.0833333 -343.875 -299)" d="M 4652.29,5055.98 L 4636.1,5044.25 L 4922.56,4648.83 L 4933.65,4650.57 L 4938.76,4660.57 L 4652.29,5055.98 Z " />
</svg>
