<?xml version="1.0" standalone="no" ?>
<!DOCTYPE svg PUBLIC "-//W3C//DTD SVG 1.1//EN" "http://www.w3.org/Graphics/SVG/1.1/DTD/svg11.dtd">
<svg width="527px" height="534px" viewBox="0 0 527 534" style="background-color: #ffffff00" xmlns="http://www.w3.org/2000/svg" xmlns:xlink="http://www.w3.org/1999/xlink" version="1.1" >
<text x="0" y="0" stroke="transparent" fill="#000000" transform="matrix(0.0833333 0 0 0.0833333 3.92932 399.75)" style="font:normal normal normal 200px 'Arial'" >
HO</text>
<text x="0" y="0" stroke="transparent" fill="#000000" transform="matrix(0.0833333 0 0 0.0833333 236.512 211.528)" style="font:normal normal normal 200px 'Arial'" >
O</text>
<text x="0" y="0" stroke="transparent" fill="#000000" transform="matrix(0.0833333 0 0 0.0833333 62.669 162.086)" style="font:normal normal normal 200px 'Arial'" >
OH</text>
<text x="0" y="0" stroke="transparent" fill="#000000" transform="matrix(0.0833333 0 0 0.0833333 19.7644 237.319)" style="font:normal normal normal 200px 'Arial'" >
O</text>
<text x="0" y="0" stroke="transparent" fill="#000000" transform="matrix(0.0833333 0 0 0.0833333 280.203 286.318)" style="font:normal normal normal 200px 'Arial'" >
O</text>
<text x="0" y="0" stroke="transparent" fill="#000000" transform="matrix(0.0833333 0 0 0.0833333 322.705 161.08)" style="font:normal normal normal 200px 'Arial'" >
O</text>
<text x="0" y="0" stroke="transparent" fill="#000000" transform="matrix(0.0833333 0 0 0.0833333 409.69 210.607)" style="font:normal normal normal 200px 'Arial'" >
O</text>
<text x="0" y="0" stroke="transparent" fill="#000000" transform="matrix(0.0833333 0 0 0.0833333 409.301 160.614)" style="font:normal normal normal 200px 'Arial'" >
O</text>
<text x="0" y="0" stroke="transparent" fill="#000000" transform="matrix(0.0833333 0 0 0.0833333 453.586 236.132)" style="font:normal normal normal 200px 'Arial'" >
S</text>
<text x="0" y="0" stroke="transparent" fill="#000000" transform="matrix(0.0833333 0 0 0.0833333 409.723 311.316)" style="font:normal normal normal 200px 'Arial'" >
O</text>
<text x="0" y="0" stroke="transparent" fill="#000000" transform="matrix(0.0833333 0 0 0.0833333 269.079 386.925)" style="font:normal normal normal 200px 'Arial'" >
HO</text>
<text x="0" y="0" stroke="transparent" fill="#000000" transform="matrix(0.0833333 0 0 0.0833333 477.916 279.313)" style="font:normal normal normal 200px 'Arial'" >
O</text>
<text x="0" y="0" stroke="transparent" fill="#000000" transform="matrix(0.0833333 0 0 0.0833333 427.916 279.58)" style="font:normal normal normal 200px 'Arial'" >
O</text>
<text x="0" y="0" stroke="transparent" fill="#000000" transform="matrix(0.0833333 0 0 0.0833333 497.888 209.644)" style="font:normal normal normal 200px 'Arial'" >
OH</text>
<text x="0" y="0" stroke="transparent" fill="#000000" transform="matrix(0.0833333 0 0 0.0833333 411.01 372.344)" style="font:normal normal normal 200px 'Arial'" >
S</text>
<text x="0" y="0" stroke="transparent" fill="#000000" transform="matrix(0.0833333 0 0 0.0833333 435.347 415.501)" style="font:normal normal normal 200px 'Arial'" >
O</text>
<text x="0" y="0" stroke="transparent" fill="#000000" transform="matrix(0.0833333 0 0 0.0833333 460.047 372.08)" style="font:normal normal normal 200px 'Arial'" >
O</text>
<text x="0" y="0" stroke="transparent" fill="#000000" transform="matrix(0.0833333 0 0 0.0833333 354.492 396.772)" style="font:normal normal normal 200px 'Arial'" >
HO</text>
<path stroke="transparent" fill="#000000" transform="matrix(0.0833333 0 0 0.0833333 -116.208 -90)" d="M 1756.63,5885.43 L 1787.2,5769.39 L 1805.96,5776.72 L 1776.56,5888.3 L 1756.63,5885.43 Z " />
<path stroke="transparent" fill="#000000" transform="matrix(0.0833333 0 0 0.0833333 -116.208 -90)" d="M 1815.46,5893.88 L 1842.56,5791.02 L 1861.31,5798.35 L 1835.39,5896.75 L 1815.46,5893.88 Z " />
<path stroke="transparent" fill="#000000" transform="matrix(0.0833333 0 0 0.0833333 -116.208 -90)" d="M 1874.29,5902.34 L 1897.92,5812.65 L 1916.67,5819.98 L 1894.22,5905.2 L 1874.29,5902.34 Z " />
<path stroke="transparent" fill="#000000" transform="matrix(0.0833333 0 0 0.0833333 -116.208 -90)" d="M 1933.12,5910.79 L 1953.28,5834.28 L 1972.03,5841.61 L 1953.05,5913.65 L 1933.12,5910.79 Z " />
<path stroke="transparent" fill="#000000" transform="matrix(0.0833333 0 0 0.0833333 -116.208 -90)" d="M 1991.95,5919.24 L 2008.63,5855.91 L 2027.39,5863.24 L 2011.88,5922.11 L 1991.95,5919.24 Z " />
<path stroke="transparent" fill="#000000" transform="matrix(0.0833333 0 0 0.0833333 -116.208 -90)" d="M 2050.78,5927.69 L 2063.99,5877.54 L 2082.74,5884.86 L 2070.71,5930.56 L 2050.78,5927.69 Z " />
<path stroke="transparent" fill="#000000" transform="matrix(0.0833333 0 0 0.0833333 -116.208 -90)" d="M 2109.61,5936.15 L 2119.35,5899.17 L 2138.1,5906.49 L 2129.54,5939.01 L 2109.61,5936.15 Z " />
<path stroke="transparent" fill="#000000" transform="matrix(0.0833333 0 0 0.0833333 -116.208 -90)" d="M 2168.44,5944.6 L 2174.71,5920.8 L 2193.46,5928.12 L 2188.36,5947.46 L 2168.44,5944.6 Z " />
<path stroke="transparent" fill="#000000" transform="matrix(0.0833333 0 0 0.0833333 -116.208 -90)" d="M 2745.23,5645 L 2765.19,5644.88 L 2770.26,5653.5 L 2256.88,5955.1 L 2229.45,5948.02 L 2745.23,5645 Z " />
<path stroke="transparent" fill="#000000" transform="matrix(0.0833333 0 0 0.0833333 -116.208 -90)" d="M 2778.63,6836.82 L 2771.57,6864.17 L 2229.45,5948.02 L 2256.88,5955.1 L 2778.63,6836.82 L 2778.63,6836.82 Z " />
<path stroke="transparent" fill="#000000" transform="matrix(0.0833333 0 0 0.0833333 -116.208 -90)" d="M 3274.06,5337.7 L 3284.11,5343.43 L 3284.16,5354.97 L 2770.22,5653.52 L 2765.19,5644.88 L 2765.15,5633.34 L 3274.06,5337.7 Z " />
<path stroke="transparent" fill="#000000" transform="matrix(0.0833333 0 0 0.0833333 -116.208 -90)" d="M 2830.18,6189.1 L 2710.18,6190.2 L 2712.04,6170.18 L 2827.96,6169.12 L 2830.18,6189.1 Z " />
<path stroke="transparent" fill="#000000" transform="matrix(0.0833333 0 0 0.0833333 -116.208 -90)" d="M 2823.64,6130.32 L 2715.64,6131.31 L 2717.49,6111.29 L 2821.42,6110.34 L 2823.64,6130.32 Z " />
<path stroke="transparent" fill="#000000" transform="matrix(0.0833333 0 0 0.0833333 -116.208 -90)" d="M 2817.11,6071.54 L 2721.09,6072.42 L 2722.95,6052.4 L 2814.89,6051.56 L 2817.11,6071.54 Z " />
<path stroke="transparent" fill="#000000" transform="matrix(0.0833333 0 0 0.0833333 -116.208 -90)" d="M 2810.58,6012.75 L 2726.55,6013.52 L 2728.41,5993.51 L 2808.35,5992.77 L 2810.58,6012.75 Z " />
<path stroke="transparent" fill="#000000" transform="matrix(0.0833333 0 0 0.0833333 -116.208 -90)" d="M 2804.04,5953.97 L 2732.01,5954.63 L 2733.86,5934.61 L 2801.82,5933.99 L 2804.04,5953.97 Z " />
<path stroke="transparent" fill="#000000" transform="matrix(0.0833333 0 0 0.0833333 -116.208 -90)" d="M 2797.51,5895.19 L 2737.46,5895.74 L 2739.32,5875.72 L 2795.29,5875.21 L 2797.51,5895.19 Z " />
<path stroke="transparent" fill="#000000" transform="matrix(0.0833333 0 0 0.0833333 -116.208 -90)" d="M 2790.98,5836.41 L 2742.92,5836.85 L 2744.78,5816.83 L 2788.75,5816.43 L 2790.98,5836.41 Z " />
<path stroke="transparent" fill="#000000" transform="matrix(0.0833333 0 0 0.0833333 -116.208 -90)" d="M 2784.44,5777.62 L 2748.38,5777.95 L 2750.23,5757.94 L 2782.22,5757.64 L 2784.44,5777.62 Z " />
<path stroke="transparent" fill="#000000" transform="matrix(0.0833333 0 0 0.0833333 -116.208 -90)" d="M 2777.91,5718.84 L 2753.83,5719.06 L 2755.69,5699.04 L 2775.69,5698.86 L 2777.91,5718.84 Z " />
<path stroke="transparent" fill="#000000" transform="matrix(0.0833333 0 0 0.0833333 -116.208 -90)" d="M 2229.89,5351.08 L 2249.79,5339.41 L 2765.15,5633.34 L 2765.19,5644.88 L 2745.23,5645 L 2229.89,5351.08 Z " />
<path stroke="transparent" fill="#000000" transform="matrix(0.0833333 0 0 0.0833333 -116.208 -90)" d="M 2666.98,7441.7 L 2647.64,7436.61 L 2809.41,6822.11 L 2828.75,6827.2 L 2666.98,7441.7 Z " />
<path stroke="transparent" fill="#000000" transform="matrix(0.0833333 0 0 0.0833333 -116.208 -90)" d="M 2597.44,7423.39 L 2578.1,7418.3 L 2739.7,6804.46 L 2759.04,6809.56 L 2597.44,7423.39 Z " />
<path stroke="transparent" fill="#000000" transform="matrix(0.0833333 0 0 0.0833333 -116.208 -90)" d="M 3277.04,6544.01 L 3297,6543.88 L 3302.07,6552.51 L 2771.57,6864.17 L 2778.63,6836.82 L 3277.04,6544.01 Z " />
<path stroke="transparent" fill="#000000" transform="matrix(0.0833333 0 0 0.0833333 -116.208 -90)" d="M 3268.65,4750.35 L 3278.6,4744.51 L 3288.65,4750.24 L 3294.06,5337.59 L 3284.11,5343.43 L 3274.06,5337.7 L 3268.65,4750.35 Z " />
<path stroke="transparent" fill="#000000" transform="matrix(0.0833333 0 0 0.0833333 -116.208 -90)" d="M 3820.48,5637.77 L 3800.6,5649.45 L 3284.16,5354.97 L 3284.11,5343.43 L 3294.06,5337.59 L 3820.48,5637.77 Z " />
<path stroke="transparent" fill="#000000" transform="matrix(0.0833333 0 0 0.0833333 -116.208 -90)" d="M 3296.97,6532.36 L 3297,6543.88 L 3277.04,6544.01 L 2765.72,6252.41 L 2775.63,6235.04 L 3296.97,6532.36 Z " />
<path stroke="transparent" fill="#000000" transform="matrix(0.0833333 0 0 0.0833333 -116.208 -90)" d="M 2224.37,4739.02 L 2244.48,4750.5 L 2249.79,5339.41 L 2229.89,5351.08 L 2224.37,4739.02 Z " />
<path stroke="transparent" fill="#000000" transform="matrix(0.0833333 0 0 0.0833333 -116.208 -90)" d="M 3806.5,6238.67 L 3826.62,6250.16 L 3301.99,6552.55 L 3297,6543.88 L 3296.97,6532.36 L 3806.5,6238.67 Z " />
<path stroke="transparent" fill="#000000" transform="matrix(0.0833333 0 0 0.0833333 -116.208 -90)" d="M 3829.52,4989.63 L 3770.07,5093.87 L 3753.61,5082.37 L 3811.24,4981.32 L 3829.52,4989.63 Z " />
<path stroke="transparent" fill="#000000" transform="matrix(0.0833333 0 0 0.0833333 -116.208 -90)" d="M 3776.1,4965.33 L 3721.95,5060.27 L 3705.49,5048.77 L 3757.82,4957.01 L 3776.1,4965.33 Z " />
<path stroke="transparent" fill="#000000" transform="matrix(0.0833333 0 0 0.0833333 -116.208 -90)" d="M 3722.68,4941.02 L 3673.84,5026.67 L 3657.37,5015.17 L 3704.4,4932.71 L 3722.68,4941.02 Z " />
<path stroke="transparent" fill="#000000" transform="matrix(0.0833333 0 0 0.0833333 -116.208 -90)" d="M 3669.26,4916.72 L 3625.72,4993.07 L 3609.25,4981.57 L 3650.98,4908.4 L 3669.26,4916.72 Z " />
<path stroke="transparent" fill="#000000" transform="matrix(0.0833333 0 0 0.0833333 -116.208 -90)" d="M 3615.84,4892.42 L 3577.6,4959.46 L 3561.14,4947.96 L 3597.56,4884.1 L 3615.84,4892.42 Z " />
<path stroke="transparent" fill="#000000" transform="matrix(0.0833333 0 0 0.0833333 -116.208 -90)" d="M 3562.42,4868.11 L 3529.49,4925.86 L 3513.02,4914.36 L 3544.14,4859.79 L 3562.42,4868.11 Z " />
<path stroke="transparent" fill="#000000" transform="matrix(0.0833333 0 0 0.0833333 -116.208 -90)" d="M 3509,4843.81 L 3481.37,4892.26 L 3464.9,4880.76 L 3490.72,4835.49 L 3509,4843.81 Z " />
<path stroke="transparent" fill="#000000" transform="matrix(0.0833333 0 0 0.0833333 -116.208 -90)" d="M 3455.58,4819.5 L 3433.25,4858.66 L 3416.79,4847.16 L 3437.3,4811.19 L 3455.58,4819.5 Z " />
<path stroke="transparent" fill="#000000" transform="matrix(0.0833333 0 0 0.0833333 -116.208 -90)" d="M 3402.16,4795.2 L 3385.13,4825.05 L 3368.67,4813.55 L 3383.88,4786.88 L 3402.16,4795.2 Z " />
<path stroke="transparent" fill="#000000" transform="matrix(0.0833333 0 0 0.0833333 -116.208 -90)" d="M 3348.74,4770.89 L 3337.02,4791.45 L 3320.55,4779.95 L 3330.46,4762.58 L 3348.74,4770.89 Z " />
<path stroke="transparent" fill="#000000" transform="matrix(0.0833333 0 0 0.0833333 -116.208 -90)" d="M 2753.32,4456.48 L 2753.28,4444.95 L 2763.23,4439.11 L 3278.55,4732.97 L 3278.6,4744.51 L 3268.65,4750.35 L 2753.32,4456.48 Z " />
<path stroke="transparent" fill="#000000" transform="matrix(0.0833333 0 0 0.0833333 -116.208 -90)" d="M 3787.41,4437.37 L 3807.5,4448.83 L 3288.65,4750.24 L 3278.6,4744.51 L 3278.55,4732.97 L 3787.41,4437.37 Z " />
<path stroke="transparent" fill="#000000" transform="matrix(0.0833333 0 0 0.0833333 -116.208 -90)" d="M 3826.62,6250.16 L 3806.5,6238.67 L 3800.6,5649.45 L 3820.48,5637.77 L 3826.62,6250.16 Z " />
<path stroke="transparent" fill="#000000" transform="matrix(0.0833333 0 0 0.0833333 -116.208 -90)" d="M 2743.23,4439.21 L 2753.28,4444.95 L 2753.32,4456.48 L 2244.48,4750.5 L 2224.37,4739.02 L 2743.23,4439.21 Z " />
<path stroke="transparent" fill="#000000" transform="matrix(0.0833333 0 0 0.0833333 -116.208 -90)" d="M 2737.92,3850.3 L 2747.87,3844.46 L 2757.92,3850.2 L 2763.23,4439.11 L 2753.28,4444.95 L 2743.23,4439.21 L 2737.92,3850.3 Z " />
<path stroke="transparent" fill="#000000" transform="matrix(0.0833333 0 0 0.0833333 -116.208 -90)" d="M 3782.7,3848.94 L 3792.65,3843.1 L 3802.71,3849.46 L 3807.5,4448.83 L 3787.41,4437.37 L 3782.7,3848.94 Z " />
<path stroke="transparent" fill="#000000" transform="matrix(0.0833333 0 0 0.0833333 -116.208 -90)" d="M 2216.73,3553.11 L 2236.68,3541.46 L 2747.83,3832.93 L 2747.87,3844.46 L 2737.92,3850.3 L 2216.73,3553.11 Z " />
<path stroke="transparent" fill="#000000" transform="matrix(0.0833333 0 0 0.0833333 -116.208 -90)" d="M 3267.34,3532.06 L 3267.42,3555.13 L 2757.92,3850.2 L 2747.87,3844.46 L 2747.83,3832.93 L 3267.34,3532.06 Z " />
<path stroke="transparent" fill="#000000" transform="matrix(0.0833333 0 0 0.0833333 -116.208 -90)" d="M 3267.42,3555.13 L 3267.34,3532.06 L 3792.03,3831.23 L 3792.65,3843.1 L 3782.7,3848.94 L 3267.42,3555.13 Z " />
<path stroke="transparent" fill="#000000" transform="matrix(0.0833333 0 0 0.0833333 -116.208 -90)" d="M 4181.02,3546.61 L 4241.58,3650.21 L 3802.71,3849.46 L 3792.65,3843.1 L 3792.03,3831.23 L 4181.02,3546.61 Z " />
<path stroke="transparent" fill="#000000" transform="matrix(0.0833333 0 0 0.0833333 -116.208 -90)" d="M 2214.96,3066.9 L 2234.96,3066.82 L 2236.68,3541.46 L 2216.73,3553.11 L 2214.96,3066.9 Z " />
<path stroke="transparent" fill="#000000" transform="matrix(0.0833333 0 0 0.0833333 -116.208 -90)" d="M 1825.19,3835.46 L 1815.09,3818.2 L 2257.7,3559.21 L 2267.8,3576.47 L 1825.19,3835.46 Z " />
<path stroke="transparent" fill="#000000" transform="matrix(0.0833333 0 0 0.0833333 -116.208 -90)" d="M 1788.89,3773.42 L 1778.78,3756.15 L 2221.5,3497.1 L 2231.6,3514.36 L 1788.89,3773.42 Z " />
<path stroke="transparent" fill="#000000" transform="matrix(0.0833333 0 0 0.0833333 -116.208 -90)" d="M 4831.68,3826 L 4831.75,3837.56 L 4821.78,3843.38 L 4405.98,3606.22 L 4415.88,3588.85 L 4831.68,3826 Z " />
<path stroke="transparent" fill="#000000" transform="matrix(0.0833333 0 0 0.0833333 -116.208 -90)" d="M 5337.59,3529.48 L 5348.18,3534.86 L 5348.26,3546.4 L 4841.78,3843.27 L 4831.75,3837.56 L 4831.68,3826 L 5337.59,3529.48 Z " />
<path stroke="transparent" fill="#000000" transform="matrix(0.0833333 0 0 0.0833333 -116.208 -90)" d="M 4844.38,4332.6 L 4824.38,4332.7 L 4821.78,3843.38 L 4831.75,3837.56 L 4841.78,3843.27 L 4844.38,4332.6 Z " />
<path stroke="transparent" fill="#000000" transform="matrix(0.0833333 0 0 0.0833333 -116.208 -90)" d="M 5285.6,3055.11 L 5405.6,3054.46 L 5358.72,3529.35 L 5348.18,3534.86 L 5337.59,3529.48 L 5285.6,3055.11 Z " />
<path stroke="transparent" fill="#000000" transform="matrix(0.0833333 0 0 0.0833333 -116.208 -90)" d="M 5880.75,3826.21 L 5860.81,3837.88 L 5348.26,3546.4 L 5348.18,3534.86 L 5358.72,3529.35 L 5880.75,3826.21 Z " />
<path stroke="transparent" fill="#000000" transform="matrix(0.0833333 0 0 0.0833333 -116.208 -90)" d="M 5354.58,4722.79 L 5354.67,4745.87 L 4930.25,4503.71 L 4940.17,4486.34 L 5354.58,4722.79 Z " />
<path stroke="transparent" fill="#000000" transform="matrix(0.0833333 0 0 0.0833333 -116.208 -90)" d="M 5852.92,2626.48 L 5872.98,2637.92 L 5442.34,2889.62 L 5432.25,2872.35 L 5852.92,2626.48 Z " />
<path stroke="transparent" fill="#000000" transform="matrix(0.0833333 0 0 0.0833333 -116.208 -90)" d="M 6259.15,3535.55 L 6319.7,3639.15 L 6301.27,3647.24 L 6243.06,3547.65 L 6259.15,3535.55 Z " />
<path stroke="transparent" fill="#000000" transform="matrix(0.0833333 0 0 0.0833333 -116.208 -90)" d="M 6211.92,3571.05 L 6265.6,3662.89 L 6247.16,3670.98 L 6195.83,3583.14 L 6211.92,3571.05 Z " />
<path stroke="transparent" fill="#000000" transform="matrix(0.0833333 0 0 0.0833333 -116.208 -90)" d="M 6164.69,3606.54 L 6211.5,3686.62 L 6193.06,3694.71 L 6148.6,3618.64 L 6164.69,3606.54 Z " />
<path stroke="transparent" fill="#000000" transform="matrix(0.0833333 0 0 0.0833333 -116.208 -90)" d="M 6117.46,3642.04 L 6157.39,3710.35 L 6138.95,3718.44 L 6101.36,3654.13 L 6117.46,3642.04 Z " />
<path stroke="transparent" fill="#000000" transform="matrix(0.0833333 0 0 0.0833333 -116.208 -90)" d="M 6070.23,3677.53 L 6103.29,3734.09 L 6084.85,3742.18 L 6054.13,3689.63 L 6070.23,3677.53 Z " />
<path stroke="transparent" fill="#000000" transform="matrix(0.0833333 0 0 0.0833333 -116.208 -90)" d="M 6023,3713.03 L 6049.18,3757.82 L 6030.74,3765.91 L 6006.9,3725.12 L 6023,3713.03 Z " />
<path stroke="transparent" fill="#000000" transform="matrix(0.0833333 0 0 0.0833333 -116.208 -90)" d="M 5975.77,3748.52 L 5995.08,3781.56 L 5976.64,3789.64 L 5959.67,3760.62 L 5975.77,3748.52 Z " />
<path stroke="transparent" fill="#000000" transform="matrix(0.0833333 0 0 0.0833333 -116.208 -90)" d="M 5928.54,3784.01 L 5940.97,3805.29 L 5922.54,3813.38 L 5912.44,3796.11 L 5928.54,3784.01 Z " />
<path stroke="transparent" fill="#000000" transform="matrix(0.0833333 0 0 0.0833333 -116.208 -90)" d="M 5884,4425.92 L 5874.03,4432.27 L 5864,4426.53 L 5860.81,3837.88 L 5880.75,3826.21 L 5884,4425.92 Z " />
<path stroke="transparent" fill="#000000" transform="matrix(0.0833333 0 0 0.0833333 -116.208 -90)" d="M 5864,4426.53 L 5874.03,4432.27 L 5873.42,4444.19 L 5354.67,4745.87 L 5354.58,4722.79 L 5864,4426.53 Z " />
<path stroke="transparent" fill="#000000" transform="matrix(0.0833333 0 0 0.0833333 -116.208 -90)" d="M 5417.53,5279.77 L 5297.53,5280.41 L 5299.46,5260.4 L 5415.39,5259.78 L 5417.53,5279.77 Z " />
<path stroke="transparent" fill="#000000" transform="matrix(0.0833333 0 0 0.0833333 -116.208 -90)" d="M 5411.22,5220.84 L 5303.22,5221.42 L 5305.14,5201.41 L 5409.08,5200.86 L 5411.22,5220.84 Z " />
<path stroke="transparent" fill="#000000" transform="matrix(0.0833333 0 0 0.0833333 -116.208 -90)" d="M 5404.91,5161.92 L 5308.9,5162.43 L 5310.82,5142.42 L 5402.77,5141.93 L 5404.91,5161.92 Z " />
<path stroke="transparent" fill="#000000" transform="matrix(0.0833333 0 0 0.0833333 -116.208 -90)" d="M 5398.6,5102.99 L 5314.58,5103.43 L 5316.51,5083.42 L 5396.46,5083 L 5398.6,5102.99 Z " />
<path stroke="transparent" fill="#000000" transform="matrix(0.0833333 0 0 0.0833333 -116.208 -90)" d="M 5392.29,5044.06 L 5320.26,5044.44 L 5322.19,5024.43 L 5390.15,5024.07 L 5392.29,5044.06 Z " />
<path stroke="transparent" fill="#000000" transform="matrix(0.0833333 0 0 0.0833333 -116.208 -90)" d="M 5385.98,4985.13 L 5325.94,4985.45 L 5327.87,4965.44 L 5383.84,4965.14 L 5385.98,4985.13 Z " />
<path stroke="transparent" fill="#000000" transform="matrix(0.0833333 0 0 0.0833333 -116.208 -90)" d="M 5379.67,4926.2 L 5331.62,4926.46 L 5333.55,4906.44 L 5377.53,4906.21 L 5379.67,4926.2 Z " />
<path stroke="transparent" fill="#000000" transform="matrix(0.0833333 0 0 0.0833333 -116.208 -90)" d="M 5373.36,4867.27 L 5337.31,4867.46 L 5339.23,4847.45 L 5371.22,4847.28 L 5373.36,4867.27 Z " />
<path stroke="transparent" fill="#000000" transform="matrix(0.0833333 0 0 0.0833333 -116.208 -90)" d="M 5367.05,4808.34 L 5342.99,4808.47 L 5344.91,4788.46 L 5364.91,4788.35 L 5367.05,4808.34 Z " />
<path stroke="transparent" fill="#000000" transform="matrix(0.0833333 0 0 0.0833333 -116.208 -90)" d="M 5849.79,2026.6 L 5869.85,2038.04 L 5872.98,2637.92 L 5852.92,2626.48 L 5849.79,2026.6 Z " />
<path stroke="transparent" fill="#000000" transform="matrix(0.0833333 0 0 0.0833333 -116.208 -90)" d="M 6314,2836.45 L 6304.1,2853.82 L 5857.78,2599.32 L 5867.69,2581.95 L 6314,2836.45 Z " />
<path stroke="transparent" fill="#000000" transform="matrix(0.0833333 0 0 0.0833333 -116.208 -90)" d="M 6278.34,2898.99 L 6268.43,2916.36 L 5822.11,2661.86 L 5832.02,2644.48 L 6278.34,2898.99 Z " />
<path stroke="transparent" fill="#000000" transform="matrix(0.0833333 0 0 0.0833333 -116.208 -90)" d="M 6820.56,3774.33 L 6810.35,3791.52 L 6483.1,3596.99 L 6493.31,3579.79 L 6820.56,3774.33 Z " />
<path stroke="transparent" fill="#000000" transform="matrix(0.0833333 0 0 0.0833333 -116.208 -90)" d="M 6327.78,4631.62 L 6266.57,4734.83 L 5873.42,4444.19 L 5874.03,4432.27 L 5884,4425.92 L 6327.78,4631.62 Z " />
<path stroke="transparent" fill="#000000" transform="matrix(0.0833333 0 0 0.0833333 -116.208 -90)" d="M 4942.48,5598.13 L 4932.1,5581.04 L 5352.63,5325.62 L 5363.01,5342.71 L 4942.48,5598.13 Z " />
<path stroke="transparent" fill="#000000" transform="matrix(0.0833333 0 0 0.0833333 -116.208 -90)" d="M 6367.66,1723.91 L 6377.69,1729.64 L 6377.75,1741.18 L 5869.85,2038.04 L 5849.79,2026.6 L 6367.66,1723.91 Z " />
<path stroke="transparent" fill="#000000" transform="matrix(0.0833333 0 0 0.0833333 -116.208 -90)" d="M 7193.39,4238.59 L 7176.13,4248.7 L 6988.23,3927.84 L 7005.49,3917.73 L 7193.39,4238.59 Z " />
<path stroke="transparent" fill="#000000" transform="matrix(0.0833333 0 0 0.0833333 -116.208 -90)" d="M 7131.2,4275 L 7113.95,4285.11 L 6926.05,3964.25 L 6943.31,3954.15 L 7131.2,4275 Z " />
<path stroke="transparent" fill="#000000" transform="matrix(0.0833333 0 0 0.0833333 -116.208 -90)" d="M 6700.12,4287.13 L 6682.74,4277.24 L 6866.69,3953.81 L 6884.07,3963.7 L 6700.12,4287.13 Z " />
<path stroke="transparent" fill="#000000" transform="matrix(0.0833333 0 0 0.0833333 -116.208 -90)" d="M 6637.55,4251.54 L 6620.17,4241.65 L 6804.12,3918.23 L 6821.51,3928.11 L 6637.55,4251.54 Z " />
<path stroke="transparent" fill="#000000" transform="matrix(0.0833333 0 0 0.0833333 -116.208 -90)" d="M 7342.79,3567.22 L 7352.89,3584.48 L 6996.76,3792.9 L 6986.65,3775.64 L 7342.79,3567.22 Z " />
<path stroke="transparent" fill="#000000" transform="matrix(0.0833333 0 0 0.0833333 -116.208 -90)" d="M 6402.56,5364.91 L 6382.56,5365.01 L 6379.82,4857.67 L 6399.82,4857.57 L 6402.56,5364.91 Z " />
<path stroke="transparent" fill="#000000" transform="matrix(0.0833333 0 0 0.0833333 -116.208 -90)" d="M 6365.25,1128.39 L 6385.25,1128.31 L 6387.66,1723.81 L 6377.69,1729.64 L 6367.66,1723.91 L 6365.25,1128.39 Z " />
<path stroke="transparent" fill="#000000" transform="matrix(0.0833333 0 0 0.0833333 -116.208 -90)" d="M 6903.77,2018.06 L 6893.86,2035.44 L 6377.75,1741.18 L 6377.69,1729.64 L 6387.66,1723.81 L 6903.77,2018.06 Z " />
<path stroke="transparent" fill="#000000" transform="matrix(0.0833333 0 0 0.0833333 -116.208 -90)" d="M 6682.5,5872.85 L 6665.25,5882.96 L 6477.34,5562.36 L 6494.59,5552.24 L 6682.5,5872.85 Z " />
<path stroke="transparent" fill="#000000" transform="matrix(0.0833333 0 0 0.0833333 -116.208 -90)" d="M 6620.36,5909.27 L 6603.1,5919.38 L 6415.19,5598.78 L 6432.45,5588.67 L 6620.36,5909.27 Z " />
<path stroke="transparent" fill="#000000" transform="matrix(0.0833333 0 0 0.0833333 -116.208 -90)" d="M 6884.82,5421.53 L 6884.93,5441.53 L 6488.49,5443.62 L 6488.38,5423.62 L 6884.82,5421.53 Z " />
<path stroke="transparent" fill="#000000" transform="matrix(0.0833333 0 0 0.0833333 -116.208 -90)" d="M 6885.2,5493.52 L 6885.31,5513.52 L 6488.87,5515.62 L 6488.76,5495.62 L 6885.2,5493.52 Z " />
<path stroke="transparent" fill="#000000" transform="matrix(0.0833333 0 0 0.0833333 -116.208 -90)" d="M 5968.97,5719.66 L 5959.18,5702.22 L 6290.17,5516.44 L 6299.96,5533.88 L 5968.97,5719.66 Z " />
</svg>
