<?xml version="1.0" standalone="no" ?>
<!DOCTYPE svg PUBLIC "-//W3C//DTD SVG 1.1//EN" "http://www.w3.org/Graphics/SVG/1.1/DTD/svg11.dtd">
<svg width="354px" height="219px" viewBox="0 0 354 219" style="background-color: #ffffff00" xmlns="http://www.w3.org/2000/svg" xmlns:xlink="http://www.w3.org/1999/xlink" version="1.1" >
<text x="0" y="0" stroke="transparent" fill="#000000" transform="matrix(0.0666667 0 0 0.0666667 209.255 155.078)" style="font:normal normal normal 200px 'Arial'" >
NH</text>
<text x="0" y="0" stroke="transparent" fill="#000000" transform="matrix(0.0666667 0 0 0.0666667 33.1048 134.472)" style="font:normal normal normal 200px 'Arial'" >
O</text>
<text x="0" y="0" stroke="transparent" fill="#000000" transform="matrix(0.0666667 0 0 0.0666667 33.1048 215.673)" style="font:normal normal normal 200px 'Arial'" >
O</text>
<text x="0" y="0" stroke="transparent" fill="#000000" transform="matrix(0.0666667 0 0 0.0666667 311.049 14.4717)" style="font:normal normal normal 200px 'Arial'" >
O</text>
<text x="0" y="0" stroke="transparent" fill="#000000" transform="matrix(0.0666667 0 0 0.0666667 311.049 94.4717)" style="font:normal normal normal 200px 'Arial'" >
O</text>
<path stroke="transparent" fill="#000000" transform="matrix(0.0666667 0 0 0.0666667 -171.859 -156)" d="M 5689.49,4520.46 L 5679.63,4537.86 L 5243.32,4290.62 L 5243.23,4279.08 L 5253.23,4273.25 L 5689.49,4520.46 Z " />
<path stroke="transparent" fill="#000000" transform="matrix(0.0666667 0 0 0.0666667 -171.859 -156)" d="M 5778.7,4705.34 L 5798.7,4705.34 L 5798.7,5193.94 L 5778.7,5182.28 L 5778.7,4705.34 Z " />
<path stroke="transparent" fill="#000000" transform="matrix(0.0666667 0 0 0.0666667 -171.859 -156)" d="M 4706.02,4593.8 L 4716.02,4588.17 L 4726.02,4593.9 L 4726.02,5182.38 L 4716.02,5188.11 L 4706.02,5182.48 L 4706.02,4593.8 Z " />
<path stroke="transparent" fill="#000000" transform="matrix(0.0666667 0 0 0.0666667 -171.859 -156)" d="M 4634.03,4628.69 L 4654.03,4628.69 L 4654.03,5147.59 L 4634.03,5147.59 L 4634.03,4628.69 Z " />
<path stroke="transparent" fill="#000000" transform="matrix(0.0666667 0 0 0.0666667 -171.859 -156)" d="M 4726.02,4593.9 L 4716.02,4588.17 L 4716.11,4576.53 L 5233.23,4273.35 L 5243.23,4279.08 L 5243.32,4290.62 L 4726.02,4593.9 Z " />
<path stroke="transparent" fill="#000000" transform="matrix(0.0666667 0 0 0.0666667 -171.859 -156)" d="M 4716.11,4576.53 L 4716.02,4588.17 L 4706.02,4593.8 L 4206.79,4290.72 L 4206.97,4267.43 L 4716.11,4576.53 Z " />
<path stroke="transparent" fill="#000000" transform="matrix(0.0666667 0 0 0.0666667 -171.859 -156)" d="M 4716.11,5199.76 L 4716.02,5188.11 L 4726.02,5182.38 L 5243.32,5485.55 L 5243.15,5508.63 L 4716.11,5199.76 Z " />
<path stroke="transparent" fill="#000000" transform="matrix(0.0666667 0 0 0.0666667 -171.859 -156)" d="M 4706.02,5182.48 L 4716.02,5188.11 L 4716.11,5199.76 L 4206.97,5508.73 L 4206.79,5485.45 L 4706.02,5182.48 Z " />
<path stroke="transparent" fill="#000000" transform="matrix(0.0666667 0 0 0.0666667 -171.859 -156)" d="M 5233.23,3673.3 L 5253.23,3684.85 L 5253.23,4273.25 L 5243.23,4279.08 L 5233.23,4273.35 L 5233.23,3673.3 Z " />
<path stroke="transparent" fill="#000000" transform="matrix(0.0666667 0 0 0.0666667 -171.859 -156)" d="M 5778.7,5182.28 L 5798.7,5193.94 L 5243.15,5508.63 L 5243.32,5485.55 L 5778.7,5182.28 Z " />
<path stroke="transparent" fill="#000000" transform="matrix(0.0666667 0 0 0.0666667 -171.859 -156)" d="M 4206.97,4267.43 L 4206.79,4290.72 L 3689.73,4593.9 L 3679.73,4588.17 L 3679.73,4576.58 L 4206.97,4267.43 Z " />
<path stroke="transparent" fill="#000000" transform="matrix(0.0666667 0 0 0.0666667 -171.859 -156)" d="M 4201.17,4355.84 L 4211.29,4373.09 L 3758.12,4638.81 L 3748,4621.56 L 4201.17,4355.84 Z " />
<path stroke="transparent" fill="#000000" transform="matrix(0.0666667 0 0 0.0666667 -171.859 -156)" d="M 4206.79,5485.45 L 4206.97,5508.73 L 3679.73,5199.7 L 3679.73,5188.11 L 3689.73,5182.38 L 4206.79,5485.45 Z " />
<path stroke="transparent" fill="#000000" transform="matrix(0.0666667 0 0 0.0666667 -171.859 -156)" d="M 4211.28,5403.09 L 4201.17,5420.34 L 3747.99,5154.73 L 3758.11,5137.47 L 4211.28,5403.09 Z " />
<path stroke="transparent" fill="#000000" transform="matrix(0.0666667 0 0 0.0666667 -171.859 -156)" d="M 3689.73,5182.38 L 3679.73,5188.11 L 3669.73,5182.38 L 3669.73,4593.9 L 3679.73,4588.17 L 3689.73,4593.9 L 3689.73,5182.38 Z " />
<path stroke="transparent" fill="#000000" transform="matrix(0.0666667 0 0 0.0666667 -171.859 -156)" d="M 3669.73,5182.38 L 3679.73,5188.11 L 3679.73,5199.7 L 3249.79,5451.64 L 3239.68,5434.39 L 3669.73,5182.38 Z " />
<path stroke="transparent" fill="#000000" transform="matrix(0.0666667 0 0 0.0666667 -171.859 -156)" d="M 3679.73,4576.58 L 3679.73,4588.17 L 3669.73,4593.9 L 3247.12,4346.16 L 3257.23,4328.91 L 3679.73,4576.58 Z " />
<path stroke="transparent" fill="#000000" transform="matrix(0.0666667 0 0 0.0666667 -171.859 -156)" d="M 3065.23,5434.38 L 3055.12,5451.63 L 2620.24,5196.74 L 2630.36,5179.49 L 3065.23,5434.38 Z " />
<path stroke="transparent" fill="#000000" transform="matrix(0.0666667 0 0 0.0666667 -171.859 -156)" d="M 5752.83,3373.33 L 5762.83,3379.11 L 5762.83,3390.65 L 5253.23,3684.85 L 5233.23,3673.3 L 5752.83,3373.33 Z " />
<path stroke="transparent" fill="#000000" transform="matrix(0.0666667 0 0 0.0666667 -171.859 -156)" d="M 5772.83,3373.33 L 5762.83,3379.11 L 5752.83,3373.33 L 5752.83,2773.33 L 5772.83,2784.88 L 5772.83,3373.33 Z " />
<path stroke="transparent" fill="#000000" transform="matrix(0.0666667 0 0 0.0666667 -171.859 -156)" d="M 5844.83,3337.54 L 5824.83,3337.54 L 5824.83,2820.67 L 5844.83,2820.67 L 5844.83,3337.54 Z " />
<path stroke="transparent" fill="#000000" transform="matrix(0.0666667 0 0 0.0666667 -171.859 -156)" d="M 6282.37,3667.53 L 6282.37,3690.62 L 5762.83,3390.65 L 5762.83,3379.11 L 5772.83,3373.33 L 6282.37,3667.53 Z " />
<path stroke="transparent" fill="#000000" transform="matrix(0.0666667 0 0 0.0666667 -171.859 -156)" d="M 5772.83,2784.88 L 5752.83,2773.33 L 6282.37,2467.53 L 6282.37,2490.62 L 5772.83,2784.88 Z " />
<path stroke="transparent" fill="#000000" transform="matrix(0.0666667 0 0 0.0666667 -171.859 -156)" d="M 6802.02,2767.56 L 6802.02,2779.11 L 6792.02,2784.88 L 6282.37,2490.62 L 6282.37,2467.53 L 6802.02,2767.56 Z " />
<path stroke="transparent" fill="#000000" transform="matrix(0.0666667 0 0 0.0666667 -171.859 -156)" d="M 6735.02,2812.02 L 6725.02,2829.34 L 6277.37,2570.88 L 6287.37,2553.56 L 6735.02,2812.02 Z " />
<path stroke="transparent" fill="#000000" transform="matrix(0.0666667 0 0 0.0666667 -171.859 -156)" d="M 6792.02,3373.33 L 6802.02,3379.11 L 6802.02,3390.65 L 6282.37,3690.62 L 6282.37,3667.53 L 6792.02,3373.33 Z " />
<path stroke="transparent" fill="#000000" transform="matrix(0.0666667 0 0 0.0666667 -171.859 -156)" d="M 6725.02,3328.87 L 6735.02,3346.19 L 6287.37,3604.6 L 6277.37,3587.28 L 6725.02,3328.87 Z " />
<path stroke="transparent" fill="#000000" transform="matrix(0.0666667 0 0 0.0666667 -171.859 -156)" d="M 6792.02,2784.88 L 6802.02,2779.11 L 6812.02,2784.88 L 6812.02,3373.33 L 6802.02,3379.11 L 6792.02,3373.33 L 6792.02,2784.88 Z " />
<path stroke="transparent" fill="#000000" transform="matrix(0.0666667 0 0 0.0666667 -171.859 -156)" d="M 7217.02,2527.93 L 7227.02,2545.25 L 6812.02,2784.88 L 6802.02,2779.11 L 6802.02,2767.56 L 7217.02,2527.93 Z " />
<path stroke="transparent" fill="#000000" transform="matrix(0.0666667 0 0 0.0666667 -171.859 -156)" d="M 7846.16,2770.45 L 7836.16,2787.77 L 7416.65,2545.5 L 7426.65,2528.18 L 7846.16,2770.45 Z " />
<path stroke="transparent" fill="#000000" transform="matrix(0.0666667 0 0 0.0666667 -171.859 -156)" d="M 7234,3616.94 L 7224,3634.27 L 6802.02,3390.65 L 6802.02,3379.11 L 6812.02,3373.33 L 7234,3616.94 Z " />
<path stroke="transparent" fill="#000000" transform="matrix(0.0666667 0 0 0.0666667 -171.859 -156)" d="M 2635.8,4584.35 L 2625.92,4566.97 L 3047.6,4327.19 L 3057.49,4344.58 L 2635.8,4584.35 Z " />
<path stroke="transparent" fill="#000000" transform="matrix(0.0666667 0 0 0.0666667 -171.859 -156)" d="M 7836.16,3370.45 L 7846.16,3387.77 L 7419.24,3634.26 L 7409.24,3616.94 L 7836.16,3370.45 Z " />
</svg>
