<?xml version="1.0"?><svg xmlns="http://www.w3.org/2000/svg" xmlns:xlink="http://www.w3.org/1999/xlink" viewBox="185.6 130.46 152 106.91" preserveAspectRatio="xMidYMid" width="100%" height="100%"><clipPath id="25"><rect x="0.5" y="0.5" width="522.2" height="768.8" /></clipPath><g id="drawing"><rect x="185.6" y="130.46" width="100%" height="100%" fill="rgb(255, 255, 255)" /><g id="page" clip-path="url(#25)"><g><text xml:space="preserve" text-anchor="start" text-rendering="geometricPrecision"><tspan x="322.65" y="162.25" font-family="Arial" font-size="10" fill="rgb(0, 0, 0)">OH</tspan></text></g><g><text xml:space="preserve" text-anchor="start" text-rendering="geometricPrecision"><tspan x="245.02" y="138.8" font-family="Arial" font-size="10" fill="rgb(0, 0, 0)">H</tspan><tspan x="245.02" y="148.99" font-family="Arial" font-size="10" fill="rgb(0, 0, 0)">N</tspan></text></g><g><text xml:space="preserve" text-anchor="end" text-rendering="geometricPrecision"><tspan x="200.55" y="207.25" font-family="Arial" font-size="10" fill="rgb(0, 0, 0)">HO</tspan></text></g><g><text xml:space="preserve" text-anchor="start" text-rendering="geometricPrecision"><tspan x="244.7" y="237.25" font-family="Arial" font-size="10" fill="rgb(0, 0, 0)">OH</tspan></text></g><g><text xml:space="preserve" text-anchor="start" text-rendering="geometricPrecision"><tspan x="296.67" y="207.25" font-family="Arial" font-size="10" fill="rgb(0, 0, 0)">OH</tspan></text></g><g id="Solid"><path d="M321.92 155.32 L321.92 155.32 L321.67 155.75 L321.42 156.18 L300.32 144 L300.57 143.57 L300.82 143.14 Z" stroke="rgb(0, 0, 0)" stroke-width="0" fill-rule="evenodd" stroke-linejoin="miter" fill="rgb(0, 0, 0)" shape-rendering="geometricPrecision" /></g><g id="Wedged Hash Begin Bond"><path d="M274.84 159 L274.84 159 L274.34 158.14 L275.16 157.56 L275.75 158.58 Z" stroke="rgb(0, 0, 0)" stroke-width="0" fill-rule="evenodd" stroke-linejoin="miter" fill="rgb(0, 0, 0)" shape-rendering="geometricPrecision" /><path d="M277.47 157.76 L277.47 157.76 L276.73 156.48 L277.55 155.91 L278.38 157.33 Z" stroke="rgb(0, 0, 0)" stroke-width="0" fill-rule="evenodd" stroke-linejoin="miter" fill="rgb(0, 0, 0)" shape-rendering="geometricPrecision" /><path d="M280.1 156.52 L280.1 156.52 L279.12 154.82 L279.95 154.25 L281.01 156.09 Z" stroke="rgb(0, 0, 0)" stroke-width="0" fill-rule="evenodd" stroke-linejoin="miter" fill="rgb(0, 0, 0)" shape-rendering="geometricPrecision" /><path d="M282.74 155.28 L282.74 155.28 L281.51 153.16 L282.34 152.59 L283.64 154.85 Z" stroke="rgb(0, 0, 0)" stroke-width="0" fill-rule="evenodd" stroke-linejoin="miter" fill="rgb(0, 0, 0)" shape-rendering="geometricPrecision" /><path d="M285.37 154.04 L285.37 154.04 L283.9 151.5 L284.73 150.93 L286.28 153.61 Z" stroke="rgb(0, 0, 0)" stroke-width="0" fill-rule="evenodd" stroke-linejoin="miter" fill="rgb(0, 0, 0)" shape-rendering="geometricPrecision" /><path d="M288 152.8 L288 152.8 L286.29 149.84 L287.12 149.27 L288.91 152.37 Z" stroke="rgb(0, 0, 0)" stroke-width="0" fill-rule="evenodd" stroke-linejoin="miter" fill="rgb(0, 0, 0)" shape-rendering="geometricPrecision" /><path d="M290.63 151.56 L290.63 151.56 L288.68 148.18 L289.51 147.61 L291.54 151.13 Z" stroke="rgb(0, 0, 0)" stroke-width="0" fill-rule="evenodd" stroke-linejoin="miter" fill="rgb(0, 0, 0)" shape-rendering="geometricPrecision" /><path d="M293.27 150.32 L293.27 150.32 L291.07 146.52 L291.9 145.95 L294.17 149.89 Z" stroke="rgb(0, 0, 0)" stroke-width="0" fill-rule="evenodd" stroke-linejoin="miter" fill="rgb(0, 0, 0)" shape-rendering="geometricPrecision" /><path d="M295.9 149.08 L295.9 149.08 L293.46 144.86 L294.29 144.29 L296.81 148.65 Z" stroke="rgb(0, 0, 0)" stroke-width="0" fill-rule="evenodd" stroke-linejoin="miter" fill="rgb(0, 0, 0)" shape-rendering="geometricPrecision" /><path d="M298.53 147.84 L298.53 147.84 L295.86 143.2 L296.68 142.63 L299.44 147.41 Z" stroke="rgb(0, 0, 0)" stroke-width="0" fill-rule="evenodd" stroke-linejoin="miter" fill="rgb(0, 0, 0)" shape-rendering="geometricPrecision" /><path d="M301.16 146.6 L301.16 146.6 L298.25 141.54 L299.07 140.97 L302.07 146.17 Z" stroke="rgb(0, 0, 0)" stroke-width="0" fill-rule="evenodd" stroke-linejoin="miter" fill="rgb(0, 0, 0)" shape-rendering="geometricPrecision" /></g><g id="Solid"><path d="M275.09 158.28 L275.09 158.28 L274.59 158.57 L274.09 158.86 L252.98 146.67 L253.23 146.24 L253.48 145.81 Z" stroke="rgb(0, 0, 0)" stroke-width="0" fill-rule="evenodd" stroke-linejoin="miter" fill="rgb(0, 0, 0)" shape-rendering="geometricPrecision" /></g><g id="Solid"><path d="M243.82 145.76 L243.82 145.76 L244.07 146.19 L244.32 146.63 L223.13 158.86 L222.63 158.57 L222.13 158.28 Z" stroke="rgb(0, 0, 0)" stroke-width="0" fill-rule="evenodd" stroke-linejoin="miter" fill="rgb(0, 0, 0)" shape-rendering="geometricPrecision" /></g><g id="Solid"><path d="M223.13 188.28 L223.13 188.28 L222.63 188.57 L222.13 188.25 L222.13 158.28 L222.63 158.57 L223.13 158.86 Z" stroke="rgb(0, 0, 0)" stroke-width="0" fill-rule="evenodd" stroke-linejoin="miter" fill="rgb(0, 0, 0)" shape-rendering="geometricPrecision" /></g><g id="WedgeBegin"><path d="M222.13 188.25 L222.13 188.25 L222.63 188.57 L222.65 189.16 L203.43 203.12 L201.93 200.52 L200.43 197.92 Z" stroke="rgb(0, 0, 0)" stroke-width="0" fill-rule="evenodd" stroke-linejoin="miter" fill="rgb(0, 0, 0)" shape-rendering="geometricPrecision" /></g><g id="Solid"><path d="M248.61 202.99 L248.61 202.99 L248.61 203.57 L248.61 204.15 L222.65 189.16 L222.63 188.57 L223.13 188.28 Z" stroke="rgb(0, 0, 0)" stroke-width="0" fill-rule="evenodd" stroke-linejoin="miter" fill="rgb(0, 0, 0)" shape-rendering="geometricPrecision" /></g><g id="Wedged Hash Begin Bond"><path d="M248.11 203.57 L248.11 203.57 L249.11 203.57 L249.21 204.57 L248.01 204.57 Z" stroke="rgb(0, 0, 0)" stroke-width="0" fill-rule="evenodd" stroke-linejoin="miter" fill="rgb(0, 0, 0)" shape-rendering="geometricPrecision" /><path d="M247.81 206.5 L247.81 206.5 L249.41 206.5 L249.51 207.5 L247.71 207.5 Z" stroke="rgb(0, 0, 0)" stroke-width="0" fill-rule="evenodd" stroke-linejoin="miter" fill="rgb(0, 0, 0)" shape-rendering="geometricPrecision" /><path d="M247.51 209.43 L247.51 209.43 L249.71 209.43 L249.81 210.43 L247.41 210.43 Z" stroke="rgb(0, 0, 0)" stroke-width="0" fill-rule="evenodd" stroke-linejoin="miter" fill="rgb(0, 0, 0)" shape-rendering="geometricPrecision" /><path d="M247.21 212.36 L247.21 212.36 L250.01 212.36 L250.11 213.36 L247.11 213.36 Z" stroke="rgb(0, 0, 0)" stroke-width="0" fill-rule="evenodd" stroke-linejoin="miter" fill="rgb(0, 0, 0)" shape-rendering="geometricPrecision" /><path d="M246.91 215.29 L246.91 215.29 L250.31 215.28 L250.41 216.28 L246.81 216.29 Z" stroke="rgb(0, 0, 0)" stroke-width="0" fill-rule="evenodd" stroke-linejoin="miter" fill="rgb(0, 0, 0)" shape-rendering="geometricPrecision" /><path d="M246.61 218.21 L246.61 218.21 L250.61 218.21 L250.71 219.21 L246.51 219.21 Z" stroke="rgb(0, 0, 0)" stroke-width="0" fill-rule="evenodd" stroke-linejoin="miter" fill="rgb(0, 0, 0)" shape-rendering="geometricPrecision" /><path d="M246.31 221.14 L246.31 221.14 L250.91 221.14 L251.01 222.14 L246.21 222.14 Z" stroke="rgb(0, 0, 0)" stroke-width="0" fill-rule="evenodd" stroke-linejoin="miter" fill="rgb(0, 0, 0)" shape-rendering="geometricPrecision" /><path d="M246.01 224.07 L246.01 224.07 L251.21 224.07 L251.31 225.07 L245.91 225.07 Z" stroke="rgb(0, 0, 0)" stroke-width="0" fill-rule="evenodd" stroke-linejoin="miter" fill="rgb(0, 0, 0)" shape-rendering="geometricPrecision" /><path d="M245.71 227 L245.71 227 L251.51 227 L251.61 228 L245.61 228 Z" stroke="rgb(0, 0, 0)" stroke-width="0" fill-rule="evenodd" stroke-linejoin="miter" fill="rgb(0, 0, 0)" shape-rendering="geometricPrecision" /></g><g id="Solid"><path d="M274.09 188.28 L274.09 188.28 L274.59 188.57 L274.57 189.16 L248.61 204.15 L248.61 203.57 L248.61 202.99 Z" stroke="rgb(0, 0, 0)" stroke-width="0" fill-rule="evenodd" stroke-linejoin="miter" fill="rgb(0, 0, 0)" shape-rendering="geometricPrecision" /></g><g id="Solid"><path d="M274.09 158.86 L274.09 158.86 L274.59 158.57 L275.09 158.28 L275.09 188.25 L274.59 188.57 L274.09 188.28 Z" stroke="rgb(0, 0, 0)" stroke-width="0" fill-rule="evenodd" stroke-linejoin="miter" fill="rgb(0, 0, 0)" shape-rendering="geometricPrecision" /></g><g id="WedgeBegin"><path d="M274.57 189.16 L274.57 189.16 L274.59 188.57 L275.09 188.25 L296.97 198.03 L295.47 200.62 L293.97 203.22 Z" stroke="rgb(0, 0, 0)" stroke-width="0" fill-rule="evenodd" stroke-linejoin="miter" fill="rgb(0, 0, 0)" shape-rendering="geometricPrecision" /></g></g></g></svg>