<?xml version="1.0" standalone="no" ?>
<!DOCTYPE svg PUBLIC "-//W3C//DTD SVG 1.1//EN" "http://www.w3.org/Graphics/SVG/1.1/DTD/svg11.dtd">
<svg width="284px" height="313px" viewBox="0 0 284 313" style="background-color: #ffffff00" xmlns="http://www.w3.org/2000/svg" xmlns:xlink="http://www.w3.org/1999/xlink" version="1.1" >
<path stroke="transparent" fill="#000000" transform="matrix(0.0666667 0 0 0.0666667 -206.853 -253)" d="M 6261.22,5651.07 L 6281.22,5662.61 L 5761.61,5962.62 L 5751.61,5956.85 L 5751.61,5945.3 L 6261.22,5651.07 Z " />
<path stroke="transparent" fill="#000000" transform="matrix(0.0666667 0 0 0.0666667 -206.853 -253)" d="M 6281.22,5662.61 L 6261.22,5651.07 L 6261.22,5062.6 L 6271.22,5056.83 L 6281.22,5062.6 L 6281.22,5662.61 Z " />
<path stroke="transparent" fill="#000000" transform="matrix(0.0666667 0 0 0.0666667 -206.853 -253)" d="M 6209.22,5615.27 L 6189.22,5615.27 L 6189.22,5098.4 L 6209.22,5098.4 L 6209.22,5615.27 Z " />
<path stroke="transparent" fill="#000000" transform="matrix(0.0666667 0 0 0.0666667 -206.853 -253)" d="M 7315.49,5048.17 L 7305.49,5065.49 L 6885.87,4823.23 L 6895.87,4805.91 L 7315.49,5048.17 Z " />
<path stroke="transparent" fill="#000000" transform="matrix(0.0666667 0 0 0.0666667 -206.853 -253)" d="M 6686.23,4805.67 L 6696.23,4822.99 L 6281.22,5062.6 L 6271.22,5056.83 L 6271.22,5045.28 L 6686.23,4805.67 Z " />
<path stroke="transparent" fill="#000000" transform="matrix(0.0666667 0 0 0.0666667 -206.853 -253)" d="M 6271.22,5045.28 L 6271.22,5056.83 L 6261.22,5062.6 L 5751.61,4768.37 L 5751.61,4756.82 L 5761.61,4751.05 L 6271.22,5045.28 Z " />
<path stroke="transparent" fill="#000000" transform="matrix(0.0666667 0 0 0.0666667 -206.853 -253)" d="M 6266.22,3848.14 L 6276.22,3865.46 L 5849.23,4111.99 L 5839.23,4094.67 L 6266.22,3848.14 Z " />
<path stroke="transparent" fill="#000000" transform="matrix(0.0666667 0 0 0.0666667 -206.853 -253)" d="M 5741.61,4276.64 L 5761.61,4276.64 L 5761.61,4751.05 L 5751.61,4756.82 L 5741.61,4751.05 L 5741.61,4276.64 Z " />
<path stroke="transparent" fill="#000000" transform="matrix(0.0666667 0 0 0.0666667 -206.853 -253)" d="M 5741.61,4751.05 L 5751.61,4756.82 L 5751.61,4768.37 L 5241.96,5062.6 L 5221.96,5051.05 L 5741.61,4751.05 Z " />
<path stroke="transparent" fill="#000000" transform="matrix(0.0666667 0 0 0.0666667 -206.853 -253)" d="M 5746.61,4831.3 L 5756.61,4848.62 L 5308.96,5107.06 L 5298.96,5089.74 L 5746.61,4831.3 Z " />
<path stroke="transparent" fill="#000000" transform="matrix(0.0666667 0 0 0.0666667 -206.853 -253)" d="M 5221.96,5051.05 L 5241.96,5062.6 L 5241.96,5651.07 L 5221.96,5662.61 L 5221.96,5051.05 Z " />
<path stroke="transparent" fill="#000000" transform="matrix(0.0666667 0 0 0.0666667 -206.853 -253)" d="M 5221.96,5662.61 L 5241.96,5651.07 L 5751.61,5945.3 L 5751.61,5956.85 L 5741.61,5962.62 L 5221.96,5662.61 Z " />
<path stroke="transparent" fill="#000000" transform="matrix(0.0666667 0 0 0.0666667 -206.853 -253)" d="M 5298.96,5623.93 L 5308.96,5606.61 L 5756.61,5865.04 L 5746.61,5882.36 L 5298.96,5623.93 Z " />
<path stroke="transparent" fill="#000000" transform="matrix(0.0666667 0 0 0.0666667 -206.853 -253)" d="M 5741.61,5962.62 L 5751.61,5956.85 L 5761.61,5962.62 L 5761.61,6551.09 L 5751.61,6556.86 L 5741.61,6551.09 L 5741.61,5962.62 Z " />
<path stroke="transparent" fill="#000000" transform="matrix(0.0666667 0 0 0.0666667 -206.853 -253)" d="M 5741.61,6551.09 L 5751.61,6556.86 L 5751.61,6568.41 L 5241.96,6862.6 L 5231.96,6856.83 L 5231.96,6845.28 L 5741.61,6551.09 Z " />
<path stroke="transparent" fill="#000000" transform="matrix(0.0666667 0 0 0.0666667 -206.853 -253)" d="M 5751.61,6568.41 L 5751.61,6556.86 L 5761.61,6551.09 L 6271.22,6845.28 L 6271.22,6856.83 L 6261.22,6862.6 L 5751.61,6568.41 Z " />
<path stroke="transparent" fill="#000000" transform="matrix(0.0666667 0 0 0.0666667 -206.853 -253)" d="M 6785.83,6548.2 L 6795.83,6565.52 L 6281.22,6862.6 L 6271.22,6856.83 L 6271.22,6845.28 L 6785.83,6548.2 Z " />
<path stroke="transparent" fill="#000000" transform="matrix(0.0666667 0 0 0.0666667 -206.853 -253)" d="M 6261.22,6862.6 L 6271.22,6856.83 L 6281.22,6862.6 L 6281.22,7451.07 L 6271.22,7456.84 L 6261.22,7451.07 L 6261.22,6862.6 Z " />
<path stroke="transparent" fill="#000000" transform="matrix(0.0666667 0 0 0.0666667 -206.853 -253)" d="M 6795.83,7748.19 L 6785.83,7765.51 L 6271.22,7468.39 L 6271.22,7456.84 L 6281.22,7451.07 L 6795.83,7748.19 Z " />
<path stroke="transparent" fill="#000000" transform="matrix(0.0666667 0 0 0.0666667 -206.853 -253)" d="M 6261.22,7451.07 L 6271.22,7456.84 L 6271.22,7468.39 L 5751.61,7768.39 L 5751.61,7745.3 L 6261.22,7451.07 Z " />
<path stroke="transparent" fill="#000000" transform="matrix(0.0666667 0 0 0.0666667 -206.853 -253)" d="M 5797.61,8251.69 L 5777.61,8251.69 L 5777.61,7736.06 L 5797.61,7736.06 L 5797.61,8251.69 Z " />
<path stroke="transparent" fill="#000000" transform="matrix(0.0666667 0 0 0.0666667 -206.853 -253)" d="M 5725.61,8251.69 L 5705.61,8251.69 L 5705.61,7736.06 L 5725.61,7736.06 L 5725.61,8251.69 Z " />
<path stroke="transparent" fill="#000000" transform="matrix(0.0666667 0 0 0.0666667 -206.853 -253)" d="M 5751.61,7745.3 L 5751.61,7768.39 L 5231.96,7468.39 L 5231.96,7456.84 L 5241.96,7451.07 L 5751.61,7745.3 Z " />
<path stroke="transparent" fill="#000000" transform="matrix(0.0666667 0 0 0.0666667 -206.853 -253)" d="M 3770.73,7712.07 L 3760.73,7694.75 L 4182.74,7451.07 L 4192.74,7456.84 L 4192.74,7468.39 L 3770.73,7712.07 Z " />
<path stroke="transparent" fill="#000000" transform="matrix(0.0666667 0 0 0.0666667 -206.853 -253)" d="M 4202.74,7451.07 L 4192.74,7456.84 L 4182.74,7451.07 L 4182.74,6862.64 L 4192.74,6856.87 L 4202.74,6862.64 L 4202.74,7451.07 Z " />
<path stroke="transparent" fill="#000000" transform="matrix(0.0666667 0 0 0.0666667 -206.853 -253)" d="M 4192.74,7468.39 L 4192.74,7456.84 L 4202.74,7451.07 L 4712.35,7745.3 L 4712.35,7768.39 L 4192.74,7468.39 Z " />
<path stroke="transparent" fill="#000000" transform="matrix(0.0666667 0 0 0.0666667 -206.853 -253)" d="M 4259.74,7423.93 L 4269.74,7406.61 L 4717.35,7665.05 L 4707.35,7682.37 L 4259.74,7423.93 Z " />
<path stroke="transparent" fill="#000000" transform="matrix(0.0666667 0 0 0.0666667 -206.853 -253)" d="M 4712.35,7768.39 L 4712.35,7745.3 L 5221.96,7451.07 L 5231.96,7456.84 L 5231.96,7468.39 L 4712.35,7768.39 Z " />
<path stroke="transparent" fill="#000000" transform="matrix(0.0666667 0 0 0.0666667 -206.853 -253)" d="M 5241.96,7451.07 L 5231.96,7456.84 L 5221.96,7451.07 L 5221.96,6862.6 L 5231.96,6856.83 L 5241.96,6862.6 L 5241.96,7451.07 Z " />
<path stroke="transparent" fill="#000000" transform="matrix(0.0666667 0 0 0.0666667 -206.853 -253)" d="M 5169.96,7415.27 L 5149.96,7415.27 L 5149.96,6898.4 L 5169.96,6898.4 L 5169.96,7415.27 Z " />
<path stroke="transparent" fill="#000000" transform="matrix(0.0666667 0 0 0.0666667 -206.853 -253)" d="M 5231.96,6845.28 L 5231.96,6856.83 L 5221.96,6862.6 L 4712.35,6568.41 L 4712.35,6545.31 L 5231.96,6845.28 Z " />
<path stroke="transparent" fill="#000000" transform="matrix(0.0666667 0 0 0.0666667 -206.853 -253)" d="M 4712.35,6545.31 L 4712.35,6568.41 L 4202.74,6862.64 L 4192.74,6856.87 L 4192.74,6845.32 L 4712.35,6545.31 Z " />
<path stroke="transparent" fill="#000000" transform="matrix(0.0666667 0 0 0.0666667 -206.853 -253)" d="M 4707.35,6631.34 L 4717.35,6648.66 L 4269.74,6907.1 L 4259.74,6889.77 L 4707.35,6631.34 Z " />
<path stroke="transparent" fill="#000000" transform="matrix(0.0666667 0 0 0.0666667 -206.853 -253)" d="M 4192.74,6845.32 L 4192.74,6856.87 L 4182.74,6862.64 L 3768.16,6623.28 L 3778.16,6605.96 L 4192.74,6845.32 Z " />
<path stroke="transparent" fill="#000000" transform="matrix(0.0666667 0 0 0.0666667 -206.853 -253)" d="M 3568.52,6605.71 L 3578.52,6623.03 L 3158.51,6865.53 L 3148.51,6848.21 L 3568.52,6605.71 Z " />
<text x="0" y="0" stroke="transparent" fill="#000000" transform="matrix(0.0666667 0 0 0.0666667 240.669 69.3214)" style="font:normal normal normal 200px 'Arial'" >
O</text>
<text x="0" y="0" stroke="transparent" fill="#000000" transform="matrix(0.0666667 0 0 0.0666667 171.387 29.3205)" style="font:normal normal normal 200px 'Arial'" >
O</text>
<text x="0" y="0" stroke="transparent" fill="#000000" transform="matrix(0.0666667 0 0 0.0666667 171.387 309.324)" style="font:normal normal normal 200px 'Arial'" >
O</text>
<text x="0" y="0" stroke="transparent" fill="#000000" transform="matrix(0.0666667 0 0 0.0666667 23.1928 269.326)" style="font:normal normal normal 200px 'Arial'" >
HO</text>
<text x="0" y="0" stroke="transparent" fill="#000000" transform="matrix(0.0666667 0 0 0.0666667 32.8217 189.324)" style="font:normal normal normal 200px 'Arial'" >
O</text>
</svg>
