<?xml version="1.0" standalone="no" ?>
<!DOCTYPE svg PUBLIC "-//W3C//DTD SVG 1.1//EN" "http://www.w3.org/Graphics/SVG/1.1/DTD/svg11.dtd">
<svg width="435px" height="197px" viewBox="0 0 435 197" style="background-color: #ffffff00" xmlns="http://www.w3.org/2000/svg" xmlns:xlink="http://www.w3.org/1999/xlink" version="1.1" >
<text x="0" y="0" stroke="transparent" fill="#000000" transform="matrix(0.0833333 0 0 0.0833333 102.636 43.2691)" style="font:normal normal normal 200px 'Arial'" >
O</text>
<text x="0" y="0" stroke="transparent" fill="#000000" transform="matrix(0.0833333 0 0 0.0833333 3.99769 193.268)" style="font:normal normal normal 200px 'Arial'" >
HO</text>
<text x="0" y="0" stroke="transparent" fill="#000000" transform="matrix(0.0833333 0 0 0.0833333 189.236 193.265)" style="font:normal normal normal 200px 'Arial'" >
O</text>
<text x="0" y="0" stroke="transparent" fill="#000000" transform="matrix(0.0833333 0 0 0.0833333 275.841 193.268)" style="font:normal normal normal 200px 'Arial'" >
O</text>
<text x="0" y="0" stroke="transparent" fill="#000000" transform="matrix(0.0833333 0 0 0.0833333 405.744 18.2706)" style="font:normal normal normal 200px 'Arial'" >
OH</text>
<text x="0" y="0" stroke="transparent" fill="#000000" transform="matrix(0.0833333 0 0 0.0833333 220.504 18.2684)" style="font:normal normal normal 200px 'Arial'" >
HO</text>
<path stroke="transparent" fill="#000000" transform="matrix(0.0833333 0 0 0.0833333 -218.208 -260)" d="M 4025.75,3516.42 L 4015.75,3499.1 L 4442.73,3252.58 L 4452.73,3269.9 L 4025.75,3516.42 Z " />
<path stroke="transparent" fill="#000000" transform="matrix(0.0833333 0 0 0.0833333 -218.208 -260)" d="M 3938.13,4155.44 L 3928.13,4161.22 L 3918.13,4155.44 L 3918.13,3681.06 L 3938.13,3681.06 L 3938.13,4155.44 Z " />
<path stroke="transparent" fill="#000000" transform="matrix(0.0833333 0 0 0.0833333 -218.208 -260)" d="M 3418.53,4466.98 L 3398.53,4455.43 L 3918.13,4155.44 L 3928.13,4161.22 L 3928.13,4172.76 L 3418.53,4466.98 Z " />
<path stroke="transparent" fill="#000000" transform="matrix(0.0833333 0 0 0.0833333 -218.208 -260)" d="M 3485.52,4511.43 L 3475.52,4494.11 L 3923.13,4235.69 L 3933.13,4253.01 L 3485.52,4511.43 Z " />
<path stroke="transparent" fill="#000000" transform="matrix(0.0833333 0 0 0.0833333 -218.208 -260)" d="M 3418.5,5055.4 L 3408.5,5061.17 L 3398.5,5055.4 L 3398.53,4455.43 L 3418.53,4466.98 L 3418.5,5055.4 Z " />
<path stroke="transparent" fill="#000000" transform="matrix(0.0833333 0 0 0.0833333 -218.208 -260)" d="M 2986.51,5316.4 L 2976.51,5299.08 L 3398.5,5055.4 L 3408.5,5061.17 L 3408.5,5072.72 L 2986.51,5316.4 Z " />
<path stroke="transparent" fill="#000000" transform="matrix(0.0833333 0 0 0.0833333 -218.208 -260)" d="M 3928.11,5349.62 L 3928.11,5372.72 L 3408.5,5072.72 L 3408.5,5061.17 L 3418.5,5055.4 L 3928.11,5349.62 Z " />
<path stroke="transparent" fill="#000000" transform="matrix(0.0833333 0 0 0.0833333 -218.208 -260)" d="M 3933.11,5269.37 L 3923.11,5286.69 L 3475.5,5028.26 L 3485.5,5010.94 L 3933.11,5269.37 Z " />
<path stroke="transparent" fill="#000000" transform="matrix(0.0833333 0 0 0.0833333 -218.208 -260)" d="M 4437.72,5055.41 L 4447.72,5061.18 L 4447.72,5072.73 L 3928.11,5372.72 L 3928.11,5349.62 L 4437.72,5055.41 Z " />
<path stroke="transparent" fill="#000000" transform="matrix(0.0833333 0 0 0.0833333 -218.208 -260)" d="M 4879.72,5299.05 L 4869.72,5316.37 L 4447.72,5072.73 L 4447.72,5061.18 L 4457.72,5055.41 L 4879.72,5299.05 Z " />
<path stroke="transparent" fill="#000000" transform="matrix(0.0833333 0 0 0.0833333 -218.208 -260)" d="M 5476.98,5055.44 L 5496.98,5066.99 L 5064.96,5316.38 L 5054.96,5299.06 L 5476.98,5055.44 Z " />
<path stroke="transparent" fill="#000000" transform="matrix(0.0833333 0 0 0.0833333 -218.208 -260)" d="M 5936.98,5267.91 L 5926.98,5285.23 L 5481.98,5028.31 L 5491.98,5010.99 L 5936.98,5267.91 Z " />
<path stroke="transparent" fill="#000000" transform="matrix(0.0833333 0 0 0.0833333 -218.208 -260)" d="M 5900.98,5330.26 L 5890.98,5347.58 L 5445.98,5090.66 L 5455.98,5073.34 L 5900.98,5330.26 Z " />
<path stroke="transparent" fill="#000000" transform="matrix(0.0833333 0 0 0.0833333 -218.208 -260)" d="M 5476.97,4467 L 5486.97,4461.23 L 5496.97,4467 L 5496.98,5066.99 L 5476.98,5055.44 L 5476.97,4467 Z " />
<path stroke="transparent" fill="#000000" transform="matrix(0.0833333 0 0 0.0833333 -218.208 -260)" d="M 5996.58,4155.47 L 6006.58,4161.24 L 6006.58,4172.79 L 5496.97,4467 L 5486.97,4461.23 L 5486.97,4449.68 L 5996.58,4155.47 Z " />
<path stroke="transparent" fill="#000000" transform="matrix(0.0833333 0 0 0.0833333 -218.208 -260)" d="M 6526.2,4449.7 L 6526.2,4472.79 L 6006.58,4172.79 L 6006.58,4161.24 L 6016.58,4155.47 L 6526.2,4449.7 Z " />
<path stroke="transparent" fill="#000000" transform="matrix(0.0833333 0 0 0.0833333 -218.208 -260)" d="M 6531.19,4369.44 L 6521.19,4386.76 L 6073.58,4128.33 L 6083.58,4111.01 L 6531.19,4369.44 Z " />
<path stroke="transparent" fill="#000000" transform="matrix(0.0833333 0 0 0.0833333 -218.208 -260)" d="M 7035.82,4155.45 L 7055.82,4166.99 L 6526.2,4472.79 L 6526.2,4449.7 L 7035.82,4155.45 Z " />
<path stroke="transparent" fill="#000000" transform="matrix(0.0833333 0 0 0.0833333 -218.208 -260)" d="M 7035.82,3567.01 L 7045.82,3561.23 L 7055.82,3567.01 L 7055.82,4166.99 L 7035.82,4155.45 L 7035.82,3567.01 Z " />
<path stroke="transparent" fill="#000000" transform="matrix(0.0833333 0 0 0.0833333 -218.208 -260)" d="M 6963.82,3602.8 L 6983.82,3602.8 L 6983.82,4119.65 L 6963.82,4119.65 L 6963.82,3602.8 Z " />
<path stroke="transparent" fill="#000000" transform="matrix(0.0833333 0 0 0.0833333 -218.208 -260)" d="M 7460.82,3310.09 L 7470.82,3327.41 L 7055.82,3567.01 L 7045.82,3561.23 L 7045.82,3549.69 L 7460.82,3310.09 Z " />
<path stroke="transparent" fill="#000000" transform="matrix(0.0833333 0 0 0.0833333 -218.208 -260)" d="M 6526.2,3272.78 L 6526.2,3249.69 L 7045.82,3549.69 L 7045.82,3561.23 L 7035.82,3567.01 L 6526.2,3272.78 Z " />
<path stroke="transparent" fill="#000000" transform="matrix(0.0833333 0 0 0.0833333 -218.208 -260)" d="M 6016.59,3566.99 L 6006.59,3561.22 L 6006.59,3549.67 L 6526.2,3249.69 L 6526.2,3272.78 L 6016.59,3566.99 Z " />
<path stroke="transparent" fill="#000000" transform="matrix(0.0833333 0 0 0.0833333 -218.208 -260)" d="M 6083.59,3611.45 L 6073.59,3594.13 L 6521.2,3335.71 L 6531.2,3353.03 L 6083.59,3611.45 Z " />
<path stroke="transparent" fill="#000000" transform="matrix(0.0833333 0 0 0.0833333 -218.208 -260)" d="M 5996.59,3566.99 L 6006.59,3561.22 L 6016.59,3566.99 L 6016.58,4155.47 L 6006.58,4161.24 L 5996.58,4155.47 L 5996.59,3566.99 Z " />
<path stroke="transparent" fill="#000000" transform="matrix(0.0833333 0 0 0.0833333 -218.208 -260)" d="M 5582.01,3327.63 L 5592.01,3310.31 L 6006.59,3549.67 L 6006.59,3561.22 L 5996.59,3566.99 L 5582.01,3327.63 Z " />
<path stroke="transparent" fill="#000000" transform="matrix(0.0833333 0 0 0.0833333 -218.208 -260)" d="M 4967.36,4172.78 L 4967.36,4149.68 L 5486.97,4449.68 L 5486.97,4461.23 L 5476.97,4467 L 4967.36,4172.78 Z " />
<path stroke="transparent" fill="#000000" transform="matrix(0.0833333 0 0 0.0833333 -218.208 -260)" d="M 4962.35,4253.03 L 4972.35,4235.71 L 5419.97,4494.14 L 5409.97,4511.46 L 4962.35,4253.03 Z " />
<path stroke="transparent" fill="#000000" transform="matrix(0.0833333 0 0 0.0833333 -218.208 -260)" d="M 4457.71,4466.97 L 4447.71,4461.2 L 4447.71,4449.65 L 4967.36,4149.68 L 4967.36,4172.78 L 4457.71,4466.97 Z " />
<path stroke="transparent" fill="#000000" transform="matrix(0.0833333 0 0 0.0833333 -218.208 -260)" d="M 4447.71,4449.65 L 4447.71,4461.2 L 4437.71,4466.97 L 3928.13,4172.76 L 3928.13,4161.22 L 3938.13,4155.44 L 4447.71,4449.65 Z " />
<path stroke="transparent" fill="#000000" transform="matrix(0.0833333 0 0 0.0833333 -218.208 -260)" d="M 4437.71,4466.97 L 4447.71,4461.2 L 4457.71,4466.97 L 4457.72,5055.41 L 4447.72,5061.18 L 4437.72,5055.41 L 4437.71,4466.97 Z " />
<path stroke="transparent" fill="#000000" transform="matrix(0.0833333 0 0 0.0833333 -218.208 -260)" d="M 4365.72,4502.77 L 4385.72,4502.76 L 4385.72,5019.61 L 4365.72,5019.61 L 4365.72,4502.77 Z " />
</svg>
