<?xml version="1.0" standalone="no" ?>
<!DOCTYPE svg PUBLIC "-//W3C//DTD SVG 1.1//EN" "http://www.w3.org/Graphics/SVG/1.1/DTD/svg11.dtd">
<svg width="437px" height="283px" viewBox="0 0 437 283" style="background-color: #ffffff00" xmlns="http://www.w3.org/2000/svg" xmlns:xlink="http://www.w3.org/1999/xlink" version="1.1" >
<text x="0" y="0" stroke="transparent" fill="#000000" transform="matrix(0.0833333 0 0 0.0833333 280.81 18.3586)" style="font:normal normal normal 200px 'Arial'" >
O</text>
<text x="0" y="0" stroke="transparent" fill="#000000" transform="matrix(0.0833333 0 0 0.0833333 350.876 69.2606)" style="font:normal normal normal 200px 'Arial'" >
O</text>
<text x="0" y="0" stroke="transparent" fill="#000000" transform="matrix(0.0833333 0 0 0.0833333 380.169 195.392)" style="font:normal normal normal 200px 'Arial'" >
N</text>
<text x="0" y="0" stroke="transparent" fill="#000000" transform="matrix(0.0833333 0 0 0.0833333 213.933 178.574)" style="font:normal normal normal 200px 'Arial'" >
O</text>
<text x="0" y="0" stroke="transparent" fill="#000000" transform="matrix(0.0833333 0 0 0.0833333 170.63 103.575)" style="font:normal normal normal 200px 'Arial'" >
O</text>
<text x="0" y="0" stroke="transparent" fill="#000000" transform="matrix(0.0833333 0 0 0.0833333 40.7299 178.574)" style="font:normal normal normal 200px 'Arial'" >
O</text>
<text x="0" y="0" stroke="transparent" fill="#000000" transform="matrix(0.0833333 0 0 0.0833333 127.334 278.572)" style="font:normal normal normal 200px 'Arial'" >
OH</text>
<text x="0" y="0" stroke="transparent" fill="#000000" transform="matrix(0.0833333 0 0 0.0833333 127.334 128.575)" style="font:normal normal normal 200px 'Arial'" >
OH</text>
<path stroke="transparent" fill="#000000" transform="matrix(0.0833333 0 0 0.0833333 -217.875 -227)" d="M 5363.71,3827.78 L 5350.14,3846.46 L 5103.72,3293.05 L 5121.99,3284.92 L 5363.71,3827.78 Z " />
<path stroke="transparent" fill="#000000" transform="matrix(0.0833333 0 0 0.0833333 -217.875 -227)" d="M 5948.95,3889.26 L 5953.64,3899.81 L 5946.86,3909.15 L 5350.14,3846.46 L 5363.71,3827.78 L 5948.95,3889.26 Z " />
<path stroke="transparent" fill="#000000" transform="matrix(0.0833333 0 0 0.0833333 -217.875 -227)" d="M 5920.87,3813.92 L 5918.78,3833.81 L 5404.75,3779.8 L 5406.84,3759.91 L 5920.87,3813.92 Z " />
<path stroke="transparent" fill="#000000" transform="matrix(0.0833333 0 0 0.0833333 -217.875 -227)" d="M 6206.78,4443.88 L 6188.5,4452.01 L 5946.86,3909.15 L 5953.64,3899.81 L 5965.13,3901.02 L 6206.78,4443.88 Z " />
<path stroke="transparent" fill="#000000" transform="matrix(0.0833333 0 0 0.0833333 -217.875 -227)" d="M 6301.6,3403.89 L 6310.99,3424.99 L 5965.13,3901.02 L 5953.64,3899.81 L 5948.95,3889.26 L 6301.6,3403.89 Z " />
<path stroke="transparent" fill="#000000" transform="matrix(0.0833333 0 0 0.0833333 -217.875 -227)" d="M 6069.65,2996.08 L 6087.93,2987.95 L 6290.99,3444 L 6272.72,3452.14 L 6069.65,2996.08 Z " />
<path stroke="transparent" fill="#000000" transform="matrix(0.0833333 0 0 0.0833333 -217.875 -227)" d="M 6135.43,2966.79 L 6153.7,2958.66 L 6356.77,3414.71 L 6338.5,3422.85 L 6135.43,2966.79 Z " />
<path stroke="transparent" fill="#000000" transform="matrix(0.0833333 0 0 0.0833333 -217.875 -227)" d="M 6797.01,3455.94 L 6794.92,3475.83 L 6310.99,3424.99 L 6301.6,3403.89 L 6797.01,3455.94 Z " />
<path stroke="transparent" fill="#000000" transform="matrix(0.0833333 0 0 0.0833333 -217.875 -227)" d="M 6897.64,3612.6 L 7007.27,3563.8 L 7154.67,4016.67 L 7147,4025.26 L 7135.49,4025.2 L 6897.64,3612.6 Z " />
<path stroke="transparent" fill="#000000" transform="matrix(0.0833333 0 0 0.0833333 -217.875 -227)" d="M 7743.09,4141.72 L 7724.72,4158.26 L 7152.03,4036.55 L 7147,4025.26 L 7154.67,4016.67 L 7743.09,4141.72 Z " />
<path stroke="transparent" fill="#000000" transform="matrix(0.0833333 0 0 0.0833333 -217.875 -227)" d="M 7807.3,4752.89 L 7785.89,4740.52 L 7724.72,4158.26 L 7743.09,4141.72 L 7807.3,4752.89 Z " />
<path stroke="transparent" fill="#000000" transform="matrix(0.0833333 0 0 0.0833333 -217.875 -227)" d="M 7359.16,4952.39 L 7351.03,4934.12 L 7785.89,4740.52 L 7807.3,4752.89 L 7359.16,4952.39 Z " />
<path stroke="transparent" fill="#000000" transform="matrix(0.0833333 0 0 0.0833333 -217.875 -227)" d="M 6834.72,4546.11 L 6859.3,4543.52 L 7172.96,4891.83 L 7158.09,4905.22 L 6834.72,4546.11 Z " />
<path stroke="transparent" fill="#000000" transform="matrix(0.0833333 0 0 0.0833333 -217.875 -227)" d="M 6859.3,4543.52 L 6834.72,4546.11 L 7135.49,4025.2 L 7147,4025.26 L 7152.03,4036.55 L 6859.3,4543.52 Z " />
<path stroke="transparent" fill="#000000" transform="matrix(0.0833333 0 0 0.0833333 -217.875 -227)" d="M 6372.76,4821.69 L 6323.95,4712.07 L 6343.04,4705.79 L 6390.21,4811.7 L 6372.76,4821.69 Z " />
<path stroke="transparent" fill="#000000" transform="matrix(0.0833333 0 0 0.0833333 -217.875 -227)" d="M 6424.2,4792.23 L 6380.26,4693.56 L 6399.35,4687.28 L 6441.64,4782.23 L 6424.2,4792.23 Z " />
<path stroke="transparent" fill="#000000" transform="matrix(0.0833333 0 0 0.0833333 -217.875 -227)" d="M 6475.63,4762.76 L 6436.57,4675.04 L 6455.67,4668.77 L 6493.07,4752.76 L 6475.63,4762.76 Z " />
<path stroke="transparent" fill="#000000" transform="matrix(0.0833333 0 0 0.0833333 -217.875 -227)" d="M 6527.06,4733.29 L 6492.88,4656.53 L 6511.98,4650.25 L 6544.5,4723.3 L 6527.06,4733.29 Z " />
<path stroke="transparent" fill="#000000" transform="matrix(0.0833333 0 0 0.0833333 -217.875 -227)" d="M 6578.49,4703.82 L 6549.19,4638.02 L 6568.29,4631.74 L 6595.94,4693.83 L 6578.49,4703.82 Z " />
<path stroke="transparent" fill="#000000" transform="matrix(0.0833333 0 0 0.0833333 -217.875 -227)" d="M 6629.93,4674.35 L 6605.5,4619.5 L 6624.6,4613.23 L 6647.37,4664.36 L 6629.93,4674.35 Z " />
<path stroke="transparent" fill="#000000" transform="matrix(0.0833333 0 0 0.0833333 -217.875 -227)" d="M 6681.36,4644.89 L 6661.81,4600.99 L 6680.91,4594.71 L 6698.8,4634.89 L 6681.36,4644.89 Z " />
<path stroke="transparent" fill="#000000" transform="matrix(0.0833333 0 0 0.0833333 -217.875 -227)" d="M 6732.79,4615.42 L 6718.12,4582.48 L 6737.22,4576.2 L 6750.24,4605.42 L 6732.79,4615.42 Z " />
<path stroke="transparent" fill="#000000" transform="matrix(0.0833333 0 0 0.0833333 -217.875 -227)" d="M 6784.23,4585.95 L 6774.44,4563.96 L 6793.53,4557.68 L 6801.67,4575.96 L 6784.23,4585.95 Z " />
<path stroke="transparent" fill="#000000" transform="matrix(0.0833333 0 0 0.0833333 -217.875 -227)" d="M 6370.82,5377.33 L 6352.45,5393.87 L 6289.53,4795 L 6308.36,4782.77 L 6370.82,5377.33 Z " />
<path stroke="transparent" fill="#000000" transform="matrix(0.0833333 0 0 0.0833333 -217.875 -227)" d="M 6437.72,5325.01 L 6417.83,5327.09 L 6366.07,4834.43 L 6385.96,4832.34 L 6437.72,5325.01 Z " />
<path stroke="transparent" fill="#000000" transform="matrix(0.0833333 0 0 0.0833333 -217.875 -227)" d="M 6943.51,5499.03 L 6953.56,5521.62 L 6352.45,5393.87 L 6370.82,5377.33 L 6943.51,5499.03 Z " />
<path stroke="transparent" fill="#000000" transform="matrix(0.0833333 0 0 0.0833333 -217.875 -227)" d="M 6953.56,5521.62 L 6943.51,5499.03 L 7172.38,5102.59 L 7189.71,5112.59 L 6953.56,5521.62 Z " />
<path stroke="transparent" fill="#000000" transform="matrix(0.0833333 0 0 0.0833333 -217.875 -227)" d="M 5779.32,4500.44 L 5779.32,4477.34 L 6308.36,4782.77 L 6289.53,4795 L 5779.32,4500.44 Z " />
<path stroke="transparent" fill="#000000" transform="matrix(0.0833333 0 0 0.0833333 -217.875 -227)" d="M 5357.31,4744.07 L 5347.31,4726.75 L 5779.32,4477.34 L 5779.32,4500.44 L 5357.31,4744.07 Z " />
<path stroke="transparent" fill="#000000" transform="matrix(0.0833333 0 0 0.0833333 -217.875 -227)" d="M 4740.07,4500.44 L 4740.07,4477.34 L 5172.07,4726.75 L 5162.07,4744.07 L 4740.07,4500.44 Z " />
<path stroke="transparent" fill="#000000" transform="matrix(0.0833333 0 0 0.0833333 -217.875 -227)" d="M 4694.07,4008.74 L 4714.07,4008.74 L 4714.07,4509.68 L 4694.07,4509.68 L 4694.07,4008.74 Z " />
<path stroke="transparent" fill="#000000" transform="matrix(0.0833333 0 0 0.0833333 -217.875 -227)" d="M 4766.07,4008.74 L 4786.07,4008.74 L 4786.07,4509.67 L 4766.07,4509.67 L 4766.07,4008.74 Z " />
<path stroke="transparent" fill="#000000" transform="matrix(0.0833333 0 0 0.0833333 -217.875 -227)" d="M 4230.51,4794.66 L 4220.51,4788.89 L 4232.43,4770.46 L 4740.07,4477.34 L 4740.07,4500.44 L 4230.51,4794.66 Z " />
<path stroke="transparent" fill="#000000" transform="matrix(0.0833333 0 0 0.0833333 -217.875 -227)" d="M 3700.88,4500.44 L 3700.88,4488.89 L 3711.34,4483.38 L 4208.59,4770.46 L 4220.51,4788.89 L 4210.51,4794.66 L 3700.88,4500.44 Z " />
<path stroke="transparent" fill="#000000" transform="matrix(0.0833333 0 0 0.0833333 -217.875 -227)" d="M 3640.88,3888.9 L 3760.88,3888.9 L 3711.34,4483.38 L 3700.88,4488.89 L 3690.43,4483.38 L 3640.88,3888.9 Z " />
<path stroke="transparent" fill="#000000" transform="matrix(0.0833333 0 0 0.0833333 -217.875 -227)" d="M 3278.88,4744.07 L 3268.88,4726.75 L 3690.43,4483.38 L 3700.88,4488.89 L 3700.88,4500.44 L 3278.88,4744.07 Z " />
<path stroke="transparent" fill="#000000" transform="matrix(0.0833333 0 0 0.0833333 -217.875 -227)" d="M 2656.7,4497.55 L 2666.7,4480.23 L 3093.64,4726.75 L 3083.64,4744.07 L 2656.7,4497.55 Z " />
<path stroke="transparent" fill="#000000" transform="matrix(0.0833333 0 0 0.0833333 -217.875 -227)" d="M 4230.51,5383.1 L 4220.51,5388.87 L 4210.51,5383.1 L 4210.51,4794.66 L 4220.51,4788.89 L 4230.51,4794.66 L 4230.51,5383.1 Z " />
<path stroke="transparent" fill="#000000" transform="matrix(0.0833333 0 0 0.0833333 -217.875 -227)" d="M 3705.88,5697.53 L 3695.88,5680.21 L 4210.51,5383.1 L 4220.51,5388.87 L 4210.51,5406.19 L 3705.88,5697.53 Z " />
<path stroke="transparent" fill="#000000" transform="matrix(0.0833333 0 0 0.0833333 -217.875 -227)" d="M 4745.07,5680.21 L 4735.07,5697.53 L 4230.51,5406.2 L 4220.51,5388.87 L 4230.51,5383.1 L 4745.07,5680.21 Z " />
<path stroke="transparent" fill="#000000" transform="matrix(0.0833333 0 0 0.0833333 -217.875 -227)" d="M 4230.51,5883.7 L 4210.51,5883.7 L 4210.51,5406.19 L 4220.51,5388.87 L 4230.51,5406.2 L 4230.51,5883.7 Z " />
<path stroke="transparent" fill="#000000" transform="matrix(0.0833333 0 0 0.0833333 -217.875 -227)" d="M 4160.51,4308.73 L 4280.51,4308.73 L 4232.43,4770.46 L 4220.51,4788.89 L 4208.59,4770.46 L 4160.51,4308.73 Z " />
</svg>
