<?xml version="1.0" standalone="no" ?>
<!DOCTYPE svg PUBLIC "-//W3C//DTD SVG 1.1//EN" "http://www.w3.org/Graphics/SVG/1.1/DTD/svg11.dtd">
<svg width="299px" height="193px" viewBox="0 0 299 193" style="background-color: #ffffff00" xmlns="http://www.w3.org/2000/svg" xmlns:xlink="http://www.w3.org/1999/xlink" version="1.1" >
<text x="0" y="0" stroke="transparent" fill="#000000" transform="matrix(0.0666667 0 0 0.0666667 82.5498 189.418)" style="font:normal normal normal 200px 'Arial'" >
OH</text>
<text x="0" y="0" stroke="transparent" fill="#000000" transform="matrix(0.0666667 0 0 0.0666667 3.63816 69.4167)" style="font:normal normal normal 200px 'Arial'" >
HO</text>
<path stroke="transparent" fill="#000000" transform="matrix(0.0666667 0 0 0.0666667 -198.853 -297)" d="M 3769.43,6324.07 L 3789.43,6312.52 L 4299.05,6606.74 L 4299.05,6618.29 L 4289.05,6624.06 L 3769.43,6324.07 Z " />
<path stroke="transparent" fill="#000000" transform="matrix(0.0666667 0 0 0.0666667 -198.853 -297)" d="M 3769.43,5724.09 L 3779.43,5718.31 L 3789.43,5724.09 L 3789.43,6312.52 L 3769.43,6324.07 L 3769.43,5724.09 Z " />
<path stroke="transparent" fill="#000000" transform="matrix(0.0666667 0 0 0.0666667 -198.853 -297)" d="M 3841.42,5759.88 L 3861.42,5759.88 L 3861.42,6276.73 L 3841.42,6276.73 L 3841.42,5759.88 Z " />
<path stroke="transparent" fill="#000000" transform="matrix(0.0666667 0 0 0.0666667 -198.853 -297)" d="M 4299.05,5406.7 L 4299.05,5429.8 L 3789.43,5724.09 L 3779.43,5718.31 L 3779.43,5706.77 L 4299.05,5406.7 Z " />
<path stroke="transparent" fill="#000000" transform="matrix(0.0666667 0 0 0.0666667 -198.853 -297)" d="M 4818.6,5706.77 L 4818.6,5718.31 L 4808.6,5724.09 L 4299.05,5429.8 L 4299.05,5406.7 L 4818.6,5706.77 Z " />
<path stroke="transparent" fill="#000000" transform="matrix(0.0666667 0 0 0.0666667 -198.853 -297)" d="M 4751.6,5751.21 L 4741.6,5768.53 L 4294.04,5510.05 L 4304.05,5492.73 L 4751.6,5751.21 Z " />
<path stroke="transparent" fill="#000000" transform="matrix(0.0666667 0 0 0.0666667 -198.853 -297)" d="M 4828.6,6324.07 L 4808.6,6312.52 L 4808.6,5724.09 L 4818.6,5718.31 L 4828.6,5724.09 L 4828.6,6324.07 Z " />
<path stroke="transparent" fill="#000000" transform="matrix(0.0666667 0 0 0.0666667 -198.853 -297)" d="M 4808.6,6312.52 L 4828.6,6324.07 L 4309.05,6624.06 L 4299.05,6618.29 L 4299.05,6606.74 L 4808.6,6312.52 Z " />
<path stroke="transparent" fill="#000000" transform="matrix(0.0666667 0 0 0.0666667 -198.853 -297)" d="M 4741.6,6268.07 L 4751.6,6285.39 L 4304.05,6543.82 L 4294.04,6526.5 L 4741.6,6268.07 Z " />
<path stroke="transparent" fill="#000000" transform="matrix(0.0666667 0 0 0.0666667 -198.853 -297)" d="M 4309.05,7113.1 L 4289.05,7113.1 L 4289.05,6624.06 L 4299.05,6618.29 L 4309.05,6624.06 L 4309.05,7113.1 Z " />
<path stroke="transparent" fill="#000000" transform="matrix(0.0666667 0 0 0.0666667 -198.853 -297)" d="M 3354.83,5484.67 L 3364.83,5467.35 L 3779.43,5706.77 L 3779.43,5718.31 L 3769.43,5724.09 L 3354.83,5484.67 Z " />
<path stroke="transparent" fill="#000000" transform="matrix(0.0666667 0 0 0.0666667 -198.853 -297)" d="M 5857.84,5706.77 L 5857.84,5729.86 L 5338.22,5429.8 L 5338.22,5406.7 L 5857.84,5706.77 Z " />
<path stroke="transparent" fill="#000000" transform="matrix(0.0666667 0 0 0.0666667 -198.853 -297)" d="M 5862.84,5626.5 L 5852.83,5643.82 L 5369.22,5364.56 L 5379.22,5347.24 L 5862.84,5626.5 Z " />
<path stroke="transparent" fill="#000000" transform="matrix(0.0666667 0 0 0.0666667 -198.853 -297)" d="M 6367.39,4812.49 L 6387.39,4824.04 L 6387.39,5412.48 L 6377.39,5418.25 L 6367.39,5412.48 L 6367.39,4812.49 Z " />
<path stroke="transparent" fill="#000000" transform="matrix(0.0666667 0 0 0.0666667 -198.853 -297)" d="M 6897.01,4506.73 L 6897.01,4529.82 L 6387.39,4824.04 L 6367.39,4812.49 L 6897.01,4506.73 Z " />
<path stroke="transparent" fill="#000000" transform="matrix(0.0666667 0 0 0.0666667 -198.853 -297)" d="M 6892.01,4592.75 L 6902.01,4610.08 L 6454.39,4868.5 L 6444.39,4851.18 L 6892.01,4592.75 Z " />
<path stroke="transparent" fill="#000000" transform="matrix(0.0666667 0 0 0.0666667 -198.853 -297)" d="M 7426.63,4812.49 L 7406.63,4824.04 L 6897.01,4529.82 L 6897.01,4506.73 L 7426.63,4812.49 Z " />
<path stroke="transparent" fill="#000000" transform="matrix(0.0666667 0 0 0.0666667 -198.853 -297)" d="M 7426.63,5424.02 L 7406.63,5412.48 L 7406.63,4824.04 L 7426.63,4812.49 L 7426.63,5424.02 Z " />
<path stroke="transparent" fill="#000000" transform="matrix(0.0666667 0 0 0.0666667 -198.853 -297)" d="M 7354.63,5376.69 L 7334.63,5376.69 L 7334.63,4859.84 L 7354.63,4859.84 L 7354.63,5376.69 Z " />
<path stroke="transparent" fill="#000000" transform="matrix(0.0666667 0 0 0.0666667 -198.853 -297)" d="M 6897.01,5729.86 L 6897.01,5706.77 L 7406.63,5412.48 L 7426.63,5424.02 L 6897.01,5729.86 Z " />
<path stroke="transparent" fill="#000000" transform="matrix(0.0666667 0 0 0.0666667 -198.853 -297)" d="M 6897.01,5706.77 L 6897.01,5729.86 L 6377.39,5429.8 L 6377.39,5418.25 L 6387.39,5412.48 L 6897.01,5706.77 Z " />
<path stroke="transparent" fill="#000000" transform="matrix(0.0666667 0 0 0.0666667 -198.853 -297)" d="M 6902.01,5626.51 L 6892.01,5643.83 L 6444.39,5385.34 L 6454.39,5368.02 L 6902.01,5626.51 Z " />
<path stroke="transparent" fill="#000000" transform="matrix(0.0666667 0 0 0.0666667 -198.853 -297)" d="M 6367.39,5412.48 L 6377.39,5418.25 L 6377.39,5429.8 L 5857.84,5729.86 L 5857.84,5706.77 L 6367.39,5412.48 Z " />
<path stroke="transparent" fill="#000000" transform="matrix(0.0666667 0 0 0.0666667 -198.853 -297)" d="M 5338.22,5406.7 L 5338.22,5429.8 L 4828.6,5724.09 L 4818.6,5718.31 L 4818.6,5706.77 L 5338.22,5406.7 Z " />
</svg>
