<?xml version="1.0" standalone="no" ?>
<!DOCTYPE svg PUBLIC "-//W3C//DTD SVG 1.1//EN" "http://www.w3.org/Graphics/SVG/1.1/DTD/svg11.dtd">
<svg width="399px" height="434px" viewBox="0 0 399 434" style="background-color: #ffffff00" xmlns="http://www.w3.org/2000/svg" xmlns:xlink="http://www.w3.org/1999/xlink" version="1.1" >
<path stroke="transparent" fill="#000000" transform="matrix(0.0833333 0 0 0.0833333 -219.5 -127)" d="M 5970.35,4206.73 L 6090.33,4209.29 L 6029.09,4793.61 L 6017.57,4807.88 L 6006.47,4789.93 L 5970.35,4206.73 Z " />
<path stroke="transparent" fill="#000000" transform="matrix(0.0833333 0 0 0.0833333 -219.5 -127)" d="M 6027.57,4815.14 L 6017.57,4807.88 L 6029.09,4793.61 L 6580.16,4614.32 L 6588.1,4622.25 L 6584.29,4634.01 L 6027.57,4815.14 Z " />
<path stroke="transparent" fill="#000000" transform="matrix(0.0833333 0 0 0.0833333 -219.5 -127)" d="M 6007.57,4813.65 L 6017.57,4807.88 L 6027.57,4815.14 L 6027.83,5400.64 L 6017.83,5407.91 L 6007.83,5402.14 L 6007.57,4813.65 Z " />
<path stroke="transparent" fill="#000000" transform="matrix(0.0833333 0 0 0.0833333 -219.5 -127)" d="M 5497.8,4519.7 L 5497.79,4496.6 L 6006.47,4789.93 L 6017.57,4807.88 L 6007.57,4813.65 L 5497.8,4519.7 Z " />
<path stroke="transparent" fill="#000000" transform="matrix(0.0833333 0 0 0.0833333 -219.5 -127)" d="M 5497.79,4496.6 L 5497.8,4519.7 L 4988.35,4814.17 L 4968.35,4802.64 L 5497.79,4496.6 Z " />
<path stroke="transparent" fill="#000000" transform="matrix(0.0833333 0 0 0.0833333 -219.5 -127)" d="M 4968.35,4802.64 L 4988.35,4814.17 L 4988.59,5402.59 L 4978.59,5408.36 L 4968.59,5402.6 L 4968.35,4802.64 Z " />
<path stroke="transparent" fill="#000000" transform="matrix(0.0833333 0 0 0.0833333 -219.5 -127)" d="M 4978.6,5419.91 L 4978.59,5408.36 L 4988.59,5402.59 L 5498.33,5696.59 L 5498.34,5708.14 L 5488.34,5713.92 L 4978.6,5419.91 Z " />
<path stroke="transparent" fill="#000000" transform="matrix(0.0833333 0 0 0.0833333 -219.5 -127)" d="M 4469.1,5714.36 L 4459.1,5708.59 L 4470.61,5690.39 L 4968.59,5402.6 L 4978.59,5408.36 L 4978.6,5419.91 L 4469.1,5714.36 Z " />
<path stroke="transparent" fill="#000000" transform="matrix(0.0833333 0 0 0.0833333 -219.5 -127)" d="M 4398.85,5108.62 L 4518.85,5108.57 L 4470.61,5690.39 L 4459.1,5708.59 L 4447.58,5690.4 L 4398.85,5108.62 Z " />
<path stroke="transparent" fill="#000000" transform="matrix(0.0833333 0 0 0.0833333 -219.5 -127)" d="M 4449.1,5714.37 L 4459.1,5708.59 L 4469.1,5714.36 L 4469.35,6302.81 L 4459.35,6308.59 L 4449.35,6302.82 L 4449.1,5714.37 Z " />
<path stroke="transparent" fill="#000000" transform="matrix(0.0833333 0 0 0.0833333 -219.5 -127)" d="M 3939.36,5420.36 L 3939.35,5397.27 L 4447.58,5690.4 L 4459.1,5708.59 L 4449.1,5714.37 L 3939.36,5420.36 Z " />
<path stroke="transparent" fill="#000000" transform="matrix(0.0833333 0 0 0.0833333 -219.5 -127)" d="M 3939.35,5397.27 L 3939.36,5420.36 L 3429.86,5714.81 L 3409.86,5703.27 L 3939.35,5397.27 Z " />
<path stroke="transparent" fill="#000000" transform="matrix(0.0833333 0 0 0.0833333 -219.5 -127)" d="M 3409.86,5703.27 L 3429.86,5714.81 L 3430.12,6303.3 L 3420.12,6309.08 L 3410.12,6302.67 L 3409.86,5703.27 Z " />
<path stroke="transparent" fill="#000000" transform="matrix(0.0833333 0 0 0.0833333 -219.5 -127)" d="M 3023.28,6607.73 L 2963.23,6503.84 L 3410.12,6302.67 L 3420.12,6309.08 L 3420.68,6320.94 L 3023.28,6607.73 Z " />
<path stroke="transparent" fill="#000000" transform="matrix(0.0833333 0 0 0.0833333 -219.5 -127)" d="M 3939.9,6597.3 L 3939.91,6620.39 L 3420.68,6320.94 L 3420.12,6309.08 L 3430.12,6303.3 L 3939.9,6597.3 Z " />
<path stroke="transparent" fill="#000000" transform="matrix(0.0833333 0 0 0.0833333 -219.5 -127)" d="M 3939.91,6620.39 L 3939.9,6597.3 L 4449.35,6302.82 L 4459.35,6308.59 L 4459.36,6320.14 L 3939.91,6620.39 Z " />
<path stroke="transparent" fill="#000000" transform="matrix(0.0833333 0 0 0.0833333 -219.5 -127)" d="M 4459.36,6320.14 L 4459.35,6308.59 L 4469.35,6302.81 L 4979.13,6596.81 L 4979.14,6619.9 L 4459.36,6320.14 Z " />
<path stroke="transparent" fill="#000000" transform="matrix(0.0833333 0 0 0.0833333 -219.5 -127)" d="M 4526.34,6275.65 L 4536.33,6258.32 L 4984.1,6516.55 L 4974.1,6533.87 L 4526.34,6275.65 Z " />
<path stroke="transparent" fill="#000000" transform="matrix(0.0833333 0 0 0.0833333 -219.5 -127)" d="M 4979.14,6619.9 L 4979.13,6596.81 L 5488.59,6302.37 L 5508.59,6313.91 L 4979.14,6619.9 Z " />
<path stroke="transparent" fill="#000000" transform="matrix(0.0833333 0 0 0.0833333 -219.5 -127)" d="M 5508.59,6313.91 L 5488.59,6302.37 L 5488.34,5713.92 L 5498.34,5708.14 L 5508.34,5713.91 L 5508.59,6313.91 Z " />
<path stroke="transparent" fill="#000000" transform="matrix(0.0833333 0 0 0.0833333 -219.5 -127)" d="M 5436.57,6266.59 L 5416.57,6266.6 L 5416.36,5749.74 L 5436.36,5749.73 L 5436.57,6266.59 Z " />
<path stroke="transparent" fill="#000000" transform="matrix(0.0833333 0 0 0.0833333 -219.5 -127)" d="M 5508.34,5713.91 L 5498.34,5708.14 L 5498.33,5696.59 L 6007.83,5402.14 L 6017.83,5407.91 L 6018.98,5418.8 L 5508.34,5713.91 Z " />
<path stroke="transparent" fill="#000000" transform="matrix(0.0833333 0 0 0.0833333 -219.5 -127)" d="M 6584.71,5581.32 L 6592.36,5604.83 L 6018.98,5418.8 L 6017.83,5407.91 L 6027.83,5400.64 L 6584.71,5581.32 Z " />
<path stroke="transparent" fill="#000000" transform="matrix(0.0833333 0 0 0.0833333 -219.5 -127)" d="M 6592.36,5604.83 L 6584.71,5581.32 L 6928.67,5107.5 L 6953.39,5107.49 L 6592.36,5604.83 Z " />
<path stroke="transparent" fill="#000000" transform="matrix(0.0833333 0 0 0.0833333 -219.5 -127)" d="M 6953.39,5107.49 L 6928.67,5107.5 L 6584.29,4634.01 L 6588.1,4622.25 L 6599.19,4620.49 L 6953.39,5107.49 Z " />
<path stroke="transparent" fill="#000000" transform="matrix(0.0833333 0 0 0.0833333 -219.5 -127)" d="M 6761.97,4053.95 L 6773.26,4051.55 L 6780.83,4060.63 L 6599.19,4620.49 L 6588.1,4622.25 L 6580.16,4614.32 L 6761.97,4053.95 Z " />
<path stroke="transparent" fill="#000000" transform="matrix(0.0833333 0 0 0.0833333 -219.5 -127)" d="M 7347.6,3867.85 L 7372.6,3985.22 L 6780.83,4060.63 L 6773.26,4051.55 L 6776.47,4040.17 L 7347.6,3867.85 Z " />
<path stroke="transparent" fill="#000000" transform="matrix(0.0833333 0 0 0.0833333 -219.5 -127)" d="M 6360.29,3608.26 L 6382.88,3603.45 L 6776.47,4040.17 L 6773.26,4051.55 L 6761.97,4053.95 L 6360.29,3608.26 Z " />
<path stroke="transparent" fill="#000000" transform="matrix(0.0833333 0 0 0.0833333 -219.5 -127)" d="M 6382.88,3603.45 L 6360.29,3608.26 L 6545.44,3037.51 L 6568.03,3032.7 L 6382.88,3603.45 Z " />
<path stroke="transparent" fill="#000000" transform="matrix(0.0833333 0 0 0.0833333 -219.5 -127)" d="M 6462.41,3591.61 L 6443.39,3585.44 L 6615.71,3054.24 L 6634.74,3060.41 L 6462.41,3591.61 Z " />
<path stroke="transparent" fill="#000000" transform="matrix(0.0833333 0 0 0.0833333 -219.5 -127)" d="M 6568.03,3032.7 L 6545.44,3037.51 L 6143.77,2591.82 L 6166.35,2587.01 L 6568.03,3032.7 Z " />
<path stroke="transparent" fill="#000000" transform="matrix(0.0833333 0 0 0.0833333 -219.5 -127)" d="M 5580.72,2773.1 L 5555.72,2655.74 L 5575.66,2653.36 L 5599.9,2767.15 L 5580.72,2773.1 Z " />
<path stroke="transparent" fill="#000000" transform="matrix(0.0833333 0 0 0.0833333 -219.5 -127)" d="M 5636.77,2755.69 L 5614,2648.8 L 5633.94,2646.42 L 5655.95,2749.73 L 5636.77,2755.69 Z " />
<path stroke="transparent" fill="#000000" transform="matrix(0.0833333 0 0 0.0833333 -219.5 -127)" d="M 5692.82,2738.28 L 5672.28,2641.85 L 5692.22,2639.48 L 5712,2732.32 L 5692.82,2738.28 Z " />
<path stroke="transparent" fill="#000000" transform="matrix(0.0833333 0 0 0.0833333 -219.5 -127)" d="M 5748.87,2720.87 L 5730.55,2634.91 L 5750.5,2632.53 L 5768.04,2714.91 L 5748.87,2720.87 Z " />
<path stroke="transparent" fill="#000000" transform="matrix(0.0833333 0 0 0.0833333 -219.5 -127)" d="M 5804.91,2703.46 L 5788.83,2627.97 L 5808.77,2625.59 L 5824.09,2697.5 L 5804.91,2703.46 Z " />
<path stroke="transparent" fill="#000000" transform="matrix(0.0833333 0 0 0.0833333 -219.5 -127)" d="M 5860.96,2686.05 L 5847.11,2621.03 L 5867.05,2618.65 L 5880.14,2680.09 L 5860.96,2686.05 Z " />
<path stroke="transparent" fill="#000000" transform="matrix(0.0833333 0 0 0.0833333 -219.5 -127)" d="M 5917.01,2668.64 L 5905.39,2614.08 L 5925.33,2611.71 L 5936.19,2662.68 L 5917.01,2668.64 Z " />
<path stroke="transparent" fill="#000000" transform="matrix(0.0833333 0 0 0.0833333 -219.5 -127)" d="M 5973.05,2651.22 L 5963.66,2607.14 L 5983.61,2604.77 L 5992.23,2645.27 L 5973.05,2651.22 Z " />
<path stroke="transparent" fill="#000000" transform="matrix(0.0833333 0 0 0.0833333 -219.5 -127)" d="M 6029.1,2633.81 L 6021.94,2600.2 L 6041.88,2597.82 L 6048.28,2627.85 L 6029.1,2633.81 Z " />
<path stroke="transparent" fill="#000000" transform="matrix(0.0833333 0 0 0.0833333 -219.5 -127)" d="M 6085.15,2616.4 L 6080.22,2593.26 L 6100.16,2590.88 L 6104.33,2610.44 L 6085.15,2616.4 Z " />
<path stroke="transparent" fill="#000000" transform="matrix(0.0833333 0 0 0.0833333 -219.5 -127)" d="M 6328.93,2021.11 L 6340.22,2018.71 L 6347.95,2027.28 L 6166.35,2587.01 L 6143.77,2591.82 L 6328.93,2021.11 Z " />
<path stroke="transparent" fill="#000000" transform="matrix(0.0833333 0 0 0.0833333 -219.5 -127)" d="M 6924.97,1883.92 L 6929.14,1903.48 L 6347.95,2027.28 L 6340.22,2018.71 L 6343.78,2007.72 L 6924.97,1883.92 Z " />
<path stroke="transparent" fill="#000000" transform="matrix(0.0833333 0 0 0.0833333 -219.5 -127)" d="M 6343.78,2007.72 L 6340.22,2018.71 L 6328.93,2021.11 L 5931.11,1579.67 L 5945.96,1566.28 L 6343.78,2007.72 Z " />
<text x="0" y="0" stroke="transparent" fill="#000000" transform="matrix(0.0833333 0 0 0.0833333 3.6862 430.275)" style="font:normal normal normal 200px 'Arial'" >
HO</text>
<text x="0" y="0" stroke="transparent" fill="#000000" transform="matrix(0.0833333 0 0 0.0833333 274.922 380.148)" style="font:normal normal normal 200px 'Arial'" >
H</text>
<path stroke="transparent" fill="#000000" transform="matrix(0.0833333 0 0 0.0833333 -219.5 -127)" d="M 6067.23,5906.43 L 5947.26,5903.87 L 5949.94,5883.92 L 6065.4,5886.38 L 6067.23,5906.43 Z " />
<path stroke="transparent" fill="#000000" transform="matrix(0.0833333 0 0 0.0833333 -219.5 -127)" d="M 6061.7,5845.82 L 5955.37,5843.56 L 5958.05,5823.61 L 6059.87,5825.78 L 6061.7,5845.82 Z " />
<path stroke="transparent" fill="#000000" transform="matrix(0.0833333 0 0 0.0833333 -219.5 -127)" d="M 6056.17,5785.22 L 5963.47,5783.24 L 5966.15,5763.3 L 6054.34,5765.17 L 6056.17,5785.22 Z " />
<path stroke="transparent" fill="#000000" transform="matrix(0.0833333 0 0 0.0833333 -219.5 -127)" d="M 6050.64,5724.61 L 5971.58,5722.93 L 5974.26,5702.98 L 6048.81,5704.57 L 6050.64,5724.61 Z " />
<path stroke="transparent" fill="#000000" transform="matrix(0.0833333 0 0 0.0833333 -219.5 -127)" d="M 6045.11,5664.01 L 5979.69,5662.62 L 5982.37,5642.67 L 6043.28,5643.96 L 6045.11,5664.01 Z " />
<path stroke="transparent" fill="#000000" transform="matrix(0.0833333 0 0 0.0833333 -219.5 -127)" d="M 6039.57,5603.4 L 5987.79,5602.3 L 5990.47,5582.35 L 6037.74,5583.36 L 6039.57,5603.4 Z " />
<path stroke="transparent" fill="#000000" transform="matrix(0.0833333 0 0 0.0833333 -219.5 -127)" d="M 6034.04,5542.8 L 5995.9,5541.99 L 5998.58,5522.04 L 6032.21,5522.76 L 6034.04,5542.8 Z " />
<path stroke="transparent" fill="#000000" transform="matrix(0.0833333 0 0 0.0833333 -219.5 -127)" d="M 6028.51,5482.2 L 6004,5481.67 L 6006.68,5461.73 L 6026.68,5462.15 L 6028.51,5482.2 Z " />
<text x="0" y="0" stroke="transparent" fill="#000000" transform="matrix(0.0833333 0 0 0.0833333 188.319 380.186)" style="font:normal normal normal 200px 'Arial'" >
H</text>
<path stroke="transparent" fill="#000000" transform="matrix(0.0833333 0 0 0.0833333 -219.5 -127)" d="M 5028,5906.88 L 4908.02,5904.32 L 4910.7,5884.38 L 5026.17,5886.83 L 5028,5906.88 Z " />
<path stroke="transparent" fill="#000000" transform="matrix(0.0833333 0 0 0.0833333 -219.5 -127)" d="M 5022.46,5846.27 L 4916.13,5844.01 L 4918.81,5824.06 L 5020.63,5826.23 L 5022.46,5846.27 Z " />
<path stroke="transparent" fill="#000000" transform="matrix(0.0833333 0 0 0.0833333 -219.5 -127)" d="M 5016.93,5785.67 L 4924.23,5783.69 L 4926.92,5763.75 L 5015.1,5765.62 L 5016.93,5785.67 Z " />
<path stroke="transparent" fill="#000000" transform="matrix(0.0833333 0 0 0.0833333 -219.5 -127)" d="M 5011.4,5725.06 L 4932.34,5723.38 L 4935.02,5703.43 L 5009.57,5705.02 L 5011.4,5725.06 Z " />
<path stroke="transparent" fill="#000000" transform="matrix(0.0833333 0 0 0.0833333 -219.5 -127)" d="M 5005.87,5664.46 L 4940.45,5663.07 L 4943.13,5643.12 L 5004.04,5644.42 L 5005.87,5664.46 Z " />
<path stroke="transparent" fill="#000000" transform="matrix(0.0833333 0 0 0.0833333 -219.5 -127)" d="M 5000.33,5603.86 L 4948.55,5602.75 L 4951.23,5582.81 L 4998.5,5583.81 L 5000.33,5603.86 Z " />
<path stroke="transparent" fill="#000000" transform="matrix(0.0833333 0 0 0.0833333 -219.5 -127)" d="M 4994.8,5543.25 L 4956.66,5542.44 L 4959.34,5522.49 L 4992.97,5523.21 L 4994.8,5543.25 Z " />
<path stroke="transparent" fill="#000000" transform="matrix(0.0833333 0 0 0.0833333 -219.5 -127)" d="M 4989.27,5482.65 L 4964.76,5482.13 L 4967.45,5462.18 L 4987.44,5462.6 L 4989.27,5482.65 Z " />
<text x="0" y="0" stroke="transparent" fill="#000000" transform="matrix(0.0833333 0 0 0.0833333 372.069 252.778)" style="font:normal normal normal 200px 'Arial'" >
H</text>
<path stroke="transparent" fill="#000000" transform="matrix(0.0833333 0 0 0.0833333 -219.5 -127)" d="M 7047.92,4447.7 L 7076.5,4564.24 L 7056.53,4566.77 L 7029.04,4454.7 L 7047.92,4447.7 Z " />
<path stroke="transparent" fill="#000000" transform="matrix(0.0833333 0 0 0.0833333 -219.5 -127)" d="M 6992.08,4468.41 L 7017.42,4571.72 L 6997.45,4574.25 L 6973.21,4475.41 L 6992.08,4468.41 Z " />
<path stroke="transparent" fill="#000000" transform="matrix(0.0833333 0 0 0.0833333 -219.5 -127)" d="M 6936.24,4489.12 L 6958.34,4579.19 L 6938.36,4581.72 L 6917.37,4496.12 L 6936.24,4489.12 Z " />
<path stroke="transparent" fill="#000000" transform="matrix(0.0833333 0 0 0.0833333 -219.5 -127)" d="M 6880.41,4509.83 L 6899.25,4586.67 L 6879.28,4589.2 L 6861.53,4516.83 L 6880.41,4509.83 Z " />
<path stroke="transparent" fill="#000000" transform="matrix(0.0833333 0 0 0.0833333 -219.5 -127)" d="M 6824.57,4530.54 L 6840.17,4594.14 L 6820.2,4596.67 L 6805.69,4537.54 L 6824.57,4530.54 Z " />
<path stroke="transparent" fill="#000000" transform="matrix(0.0833333 0 0 0.0833333 -219.5 -127)" d="M 6768.73,4551.25 L 6781.09,4601.62 L 6761.11,4604.15 L 6749.86,4558.25 L 6768.73,4551.25 Z " />
<path stroke="transparent" fill="#000000" transform="matrix(0.0833333 0 0 0.0833333 -219.5 -127)" d="M 6712.89,4571.96 L 6722,4609.1 L 6702.03,4611.62 L 6694.02,4578.96 L 6712.89,4571.96 Z " />
<path stroke="transparent" fill="#000000" transform="matrix(0.0833333 0 0 0.0833333 -219.5 -127)" d="M 6657.06,4592.67 L 6662.92,4616.57 L 6642.95,4619.1 L 6638.18,4599.67 L 6657.06,4592.67 Z " />
</svg>
