<?xml version="1.0" standalone="no" ?>
<!DOCTYPE svg PUBLIC "-//W3C//DTD SVG 1.1//EN" "http://www.w3.org/Graphics/SVG/1.1/DTD/svg11.dtd">
<svg width="781px" height="358px" viewBox="0 0 781 358" style="background-color: #ffffff00" xmlns="http://www.w3.org/2000/svg" xmlns:xlink="http://www.w3.org/1999/xlink" version="1.1" >
<text x="0" y="0" stroke="transparent" fill="#000000" transform="matrix(0.0833333 0 0 0.0833333 319.298 229.059)" style="font:normal normal normal 200px 'Arial'" >
O</text>
<text x="0" y="0" stroke="transparent" fill="#000000" transform="matrix(0.0833333 0 0 0.0833333 362.599 304.059)" style="font:normal normal normal 200px 'Arial'" >
O</text>
<text x="0" y="0" stroke="transparent" fill="#000000" transform="matrix(0.0833333 0 0 0.0833333 524.202 347.36)" style="font:normal normal normal 200px 'Arial'" >
OH</text>
<text x="0" y="0" stroke="transparent" fill="#000000" transform="matrix(0.0833333 0 0 0.0833333 645.083 119.601)" style="font:normal normal normal 200px 'Arial'" >
O</text>
<text x="0" y="0" stroke="transparent" fill="#000000" transform="matrix(0.0833333 0 0 0.0833333 752.311 229.059)" style="font:normal normal normal 200px 'Arial'" >
OH</text>
<text x="0" y="0" stroke="transparent" fill="#000000" transform="matrix(0.0833333 0 0 0.0833333 275.997 354.059)" style="font:normal normal normal 200px 'Arial'" >
OH</text>
<text x="0" y="0" stroke="transparent" fill="#000000" transform="matrix(0.0833333 0 0 0.0833333 189.394 304.059)" style="font:normal normal normal 200px 'Arial'" >
O</text>
<text x="0" y="0" stroke="transparent" fill="#000000" transform="matrix(0.0833333 0 0 0.0833333 146.093 229.059)" style="font:normal normal normal 200px 'Arial'" >
O</text>
<text x="0" y="0" stroke="transparent" fill="#000000" transform="matrix(0.0833333 0 0 0.0833333 59.4905 129.059)" style="font:normal normal normal 200px 'Arial'" >
O</text>
<text x="0" y="0" stroke="transparent" fill="#000000" transform="matrix(0.0833333 0 0 0.0833333 102.792 54.059)" style="font:normal normal normal 200px 'Arial'" >
O</text>
<text x="0" y="0" stroke="transparent" fill="#000000" transform="matrix(0.0833333 0 0 0.0833333 4.15307 204.059)" style="font:normal normal normal 200px 'Arial'" >
HO</text>
<text x="0" y="0" stroke="transparent" fill="#000000" transform="matrix(0.0833333 0 0 0.0833333 4.15307 304.059)" style="font:normal normal normal 200px 'Arial'" >
HO</text>
<text x="0" y="0" stroke="transparent" fill="#000000" transform="matrix(0.0833333 0 0 0.0833333 102.792 354.059)" style="font:normal normal normal 200px 'Arial'" >
OH</text>
<text x="0" y="0" stroke="transparent" fill="#000000" transform="matrix(0.0833333 0 0 0.0833333 177.358 204.059)" style="font:normal normal normal 200px 'Arial'" >
HO</text>
<path stroke="transparent" fill="#000000" transform="matrix(0.0833333 0 0 0.0833333 -42.25 -123.167)" d="M 3906.96,3842.93 L 3896.96,3848.71 L 3886.96,3842.93 L 3886.96,3248.71 L 3906.96,3248.71 L 3906.96,3842.93 Z " />
<path stroke="transparent" fill="#000000" transform="matrix(0.0833333 0 0 0.0833333 -42.25 -123.167)" d="M 3387.35,4154.48 L 3377.35,4148.71 L 3377.35,4137.16 L 3886.96,3842.93 L 3896.96,3848.71 L 3896.96,3860.25 L 3387.35,4154.48 Z " />
<path stroke="transparent" fill="#000000" transform="matrix(0.0833333 0 0 0.0833333 -42.25 -123.167)" d="M 3387.35,4742.93 L 3377.35,4748.71 L 3367.35,4742.93 L 3367.35,4154.48 L 3377.35,4148.71 L 3387.35,4154.48 L 3387.35,4742.93 Z " />
<path stroke="transparent" fill="#000000" transform="matrix(0.0833333 0 0 0.0833333 -42.25 -123.167)" d="M 3896.96,5037.16 L 3896.96,5048.71 L 3886.96,5054.48 L 3377.35,4760.25 L 3377.35,4748.71 L 3387.35,4742.93 L 3896.96,5037.16 Z " />
<path stroke="transparent" fill="#000000" transform="matrix(0.0833333 0 0 0.0833333 -42.25 -123.167)" d="M 4406.58,4742.93 L 4416.58,4748.71 L 4416.58,4760.25 L 3906.96,5054.48 L 3896.96,5048.71 L 3896.96,5037.16 L 4406.58,4742.93 Z " />
<path stroke="transparent" fill="#000000" transform="matrix(0.0833333 0 0 0.0833333 -42.25 -123.167)" d="M 4406.58,4268.54 L 4426.58,4268.54 L 4426.58,4742.93 L 4416.58,4748.71 L 4406.58,4742.93 L 4406.58,4268.54 Z " />
<path stroke="transparent" fill="#000000" transform="matrix(0.0833333 0 0 0.0833333 -42.25 -123.167)" d="M 4328.96,4086.57 L 4318.96,4103.89 L 3896.96,3860.25 L 3896.96,3848.71 L 3906.96,3842.93 L 4328.96,4086.57 Z " />
<path stroke="transparent" fill="#000000" transform="matrix(0.0833333 0 0 0.0833333 -42.25 -123.167)" d="M 4848.57,4986.57 L 4838.57,5003.89 L 4416.58,4760.25 L 4416.58,4748.71 L 4426.58,4742.93 L 4848.57,4986.57 Z " />
<path stroke="transparent" fill="#000000" transform="matrix(0.0833333 0 0 0.0833333 -42.25 -123.167)" d="M 5445.81,4742.93 L 5455.81,4748.71 L 5455.81,4760.25 L 5033.81,5003.89 L 5023.81,4986.57 L 5445.81,4742.93 Z " />
<path stroke="transparent" fill="#000000" transform="matrix(0.0833333 0 0 0.0833333 -42.25 -123.167)" d="M 5445.81,4142.93 L 5465.81,4154.48 L 5465.81,4742.93 L 5455.81,4748.71 L 5445.81,4742.93 L 5445.81,4142.93 Z " />
<path stroke="transparent" fill="#000000" transform="matrix(0.0833333 0 0 0.0833333 -42.25 -123.167)" d="M 5975.42,3837.16 L 5975.42,3860.25 L 5465.81,4154.48 L 5445.81,4142.93 L 5975.42,3837.16 Z " />
<path stroke="transparent" fill="#000000" transform="matrix(0.0833333 0 0 0.0833333 -42.25 -123.167)" d="M 6485.04,4131.39 L 6495.04,4148.71 L 6485.04,4154.48 L 5975.42,3860.25 L 5975.42,3837.16 L 6485.04,4131.39 Z " />
<path stroke="transparent" fill="#000000" transform="matrix(0.0833333 0 0 0.0833333 -42.25 -123.167)" d="M 6505.04,4742.93 L 6495.04,4748.71 L 6485.04,4742.93 L 6485.04,4154.48 L 6495.04,4148.71 L 6505.04,4154.48 L 6505.04,4742.93 Z " />
<path stroke="transparent" fill="#000000" transform="matrix(0.0833333 0 0 0.0833333 -42.25 -123.167)" d="M 5989.08,5052.37 L 5975.42,5048.71 L 5975.42,5037.16 L 6485.04,4742.93 L 6495.04,4748.71 L 6495.04,4760.25 L 5989.08,5052.37 Z " />
<path stroke="transparent" fill="#000000" transform="matrix(0.0833333 0 0 0.0833333 -42.25 -123.167)" d="M 5975.42,5037.16 L 5975.42,5048.71 L 5961.76,5052.37 L 5455.81,4760.25 L 5455.81,4748.71 L 5465.81,4742.93 L 5975.42,5037.16 Z " />
<path stroke="transparent" fill="#000000" transform="matrix(0.0833333 0 0 0.0833333 -42.25 -123.167)" d="M 5684.08,5573.32 L 5666.76,5563.32 L 5961.76,5052.37 L 5975.42,5048.71 L 5975.42,5068.71 L 5684.08,5573.32 Z " />
<path stroke="transparent" fill="#000000" transform="matrix(0.0833333 0 0 0.0833333 -42.25 -123.167)" d="M 6281.2,5558.32 L 6269.65,5578.32 L 5975.42,5068.71 L 5975.42,5048.71 L 5989.08,5052.37 L 6281.2,5558.32 Z " />
<path stroke="transparent" fill="#000000" transform="matrix(0.0833333 0 0 0.0833333 -42.25 -123.167)" d="M 6767.42,5558.32 L 6767.42,5578.32 L 6269.65,5578.32 L 6281.2,5558.32 L 6767.42,5558.32 Z " />
<path stroke="transparent" fill="#000000" transform="matrix(0.0833333 0 0 0.0833333 -42.25 -123.167)" d="M 7014.65,5037.16 L 7014.65,5060.25 L 6495.04,4760.25 L 6495.04,4748.71 L 6505.04,4742.93 L 7014.65,5037.16 Z " />
<path stroke="transparent" fill="#000000" transform="matrix(0.0833333 0 0 0.0833333 -42.25 -123.167)" d="M 7524.27,4742.93 L 7544.27,4754.48 L 7014.65,5060.25 L 7014.65,5037.16 L 7524.27,4742.93 Z " />
<path stroke="transparent" fill="#000000" transform="matrix(0.0833333 0 0 0.0833333 -42.25 -123.167)" d="M 7524.27,4154.48 L 7534.27,4148.71 L 7544.27,4154.48 L 7544.27,4754.48 L 7524.27,4742.93 L 7524.27,4154.48 Z " />
<path stroke="transparent" fill="#000000" transform="matrix(0.0833333 0 0 0.0833333 -42.25 -123.167)" d="M 7014.65,3860.25 L 7014.65,3848.71 L 7024.65,3842.93 L 7524.27,4131.39 L 7534.27,4148.71 L 7524.27,4154.48 L 7014.65,3860.25 Z " />
<path stroke="transparent" fill="#000000" transform="matrix(0.0833333 0 0 0.0833333 -42.25 -123.167)" d="M 7004.65,3842.93 L 7014.65,3848.71 L 7014.65,3860.25 L 6505.04,4154.48 L 6495.04,4148.71 L 6505.04,4131.39 L 7004.65,3842.93 Z " />
<path stroke="transparent" fill="#000000" transform="matrix(0.0833333 0 0 0.0833333 -42.25 -123.167)" d="M 7004.65,3242.93 L 7024.65,3254.48 L 7024.65,3842.93 L 7014.65,3848.71 L 7004.65,3842.93 L 7004.65,3242.93 Z " />
<path stroke="transparent" fill="#000000" transform="matrix(0.0833333 0 0 0.0833333 -42.25 -123.167)" d="M 7534.27,2937.16 L 7534.27,2960.25 L 7024.65,3254.48 L 7004.65,3242.93 L 7534.27,2937.16 Z " />
<path stroke="transparent" fill="#000000" transform="matrix(0.0833333 0 0 0.0833333 -42.25 -123.167)" d="M 7529.27,3023.19 L 7539.27,3040.51 L 7091.65,3298.94 L 7081.65,3281.62 L 7529.27,3023.19 Z " />
<path stroke="transparent" fill="#000000" transform="matrix(0.0833333 0 0 0.0833333 -42.25 -123.167)" d="M 8050.72,3235.33 L 8053.88,3248.71 L 8043.88,3254.48 L 7534.27,2960.25 L 7534.27,2937.16 L 8050.72,3235.33 Z " />
<path stroke="transparent" fill="#000000" transform="matrix(0.0833333 0 0 0.0833333 -42.25 -123.167)" d="M 8063.88,3842.93 L 8053.88,3848.71 L 8043.88,3842.93 L 8043.88,3254.48 L 8053.88,3248.71 L 8063.88,3254.48 L 8063.88,3842.93 Z " />
<path stroke="transparent" fill="#000000" transform="matrix(0.0833333 0 0 0.0833333 -42.25 -123.167)" d="M 8043.88,3842.93 L 8053.88,3848.71 L 8043.88,3866.03 L 7544.27,4154.48 L 7534.27,4148.71 L 7544.27,4131.39 L 8043.88,3842.93 Z " />
<path stroke="transparent" fill="#000000" transform="matrix(0.0833333 0 0 0.0833333 -42.25 -123.167)" d="M 8573.5,4137.16 L 8573.5,4160.25 L 8063.88,3866.03 L 8053.88,3848.71 L 8063.88,3842.93 L 8573.5,4137.16 Z " />
<path stroke="transparent" fill="#000000" transform="matrix(0.0833333 0 0 0.0833333 -42.25 -123.167)" d="M 9083.11,3842.93 L 9093.11,3848.71 L 9093.11,3860.25 L 8573.5,4160.25 L 8573.5,4137.16 L 9083.11,3842.93 Z " />
<path stroke="transparent" fill="#000000" transform="matrix(0.0833333 0 0 0.0833333 -42.25 -123.167)" d="M 9083.11,3254.48 L 9093.11,3248.71 L 9103.11,3254.48 L 9103.11,3842.93 L 9093.11,3848.71 L 9083.11,3842.93 L 9083.11,3254.48 Z " />
<path stroke="transparent" fill="#000000" transform="matrix(0.0833333 0 0 0.0833333 -42.25 -123.167)" d="M 8573.5,2960.25 L 8573.5,2948.71 L 8583.5,2942.93 L 9061.55,3218.94 L 9093.11,3248.71 L 9083.11,3254.48 L 8573.5,2960.25 Z " />
<path stroke="transparent" fill="#000000" transform="matrix(0.0833333 0 0 0.0833333 -42.25 -123.167)" d="M 8563.5,2942.93 L 8573.5,2948.71 L 8573.5,2960.25 L 8063.88,3254.48 L 8053.88,3248.71 L 8085.45,3218.94 L 8563.5,2942.93 Z " />
<path stroke="transparent" fill="#000000" transform="matrix(0.0833333 0 0 0.0833333 -42.25 -123.167)" d="M 8563.5,2342.93 L 8583.5,2354.48 L 8583.5,2785.21 L 8563.5,2785.21 L 8563.5,2342.93 L 8563.5,2342.93 Z " />
<path stroke="transparent" fill="#000000" transform="matrix(0.0833333 0 0 0.0833333 -42.25 -123.167)" d="M 8583.5,2942.93 L 8573.5,2948.71 L 8563.5,2942.93 L 8563.5,2885.21 L 8583.5,2885.21 L 8583.5,2942.93 L 8583.5,2942.93 Z " />
<path stroke="transparent" fill="#000000" transform="matrix(0.0833333 0 0 0.0833333 -42.25 -123.167)" d="M 9079.45,2045.05 L 9093.11,2048.71 L 9093.11,2060.25 L 8583.5,2354.48 L 8563.5,2342.93 L 9079.45,2045.05 Z " />
<path stroke="transparent" fill="#000000" transform="matrix(0.0833333 0 0 0.0833333 -42.25 -123.167)" d="M 9622.73,2342.93 L 9602.73,2354.48 L 9093.11,2060.25 L 9093.11,2048.71 L 9106.77,2045.05 L 9622.73,2342.93 Z " />
<path stroke="transparent" fill="#000000" transform="matrix(0.0833333 0 0 0.0833333 -42.25 -123.167)" d="M 9622.73,2954.48 L 9602.73,2942.93 L 9602.73,2354.48 L 9622.73,2342.93 L 9622.73,2954.48 Z " />
<path stroke="transparent" fill="#000000" transform="matrix(0.0833333 0 0 0.0833333 -42.25 -123.167)" d="M 9602.73,2942.93 L 9622.73,2954.48 L 9103.11,3254.48 L 9093.11,3248.71 L 9096.28,3235.33 L 9602.73,2942.93 Z " />
<path stroke="transparent" fill="#000000" transform="matrix(0.0833333 0 0 0.0833333 -42.25 -123.167)" d="M 8784.45,1534.09 L 8801.77,1524.09 L 9093.11,2028.71 L 9093.11,2048.71 L 9079.45,2045.05 L 8784.45,1534.09 Z " />
<path stroke="transparent" fill="#000000" transform="matrix(0.0833333 0 0 0.0833333 -42.25 -123.167)" d="M 9384.45,1524.09 L 9401.77,1534.09 L 9106.77,2045.05 L 9093.11,2048.71 L 9093.11,2028.71 L 9384.45,1524.09 Z " />
<path stroke="transparent" fill="#000000" transform="matrix(0.0833333 0 0 0.0833333 -42.25 -123.167)" d="M 8815.61,2845.21 L 8826.39,2825.21 L 9096.28,3235.33 L 9093.11,3248.71 L 9061.55,3218.94 L 8815.61,2845.21 Z " />
<path stroke="transparent" fill="#000000" transform="matrix(0.0833333 0 0 0.0833333 -42.25 -123.167)" d="M 8434,2845.21 L 8434,2825.21 L 8826.39,2825.21 L 8815.61,2845.21 L 8434,2845.21 Z " />
<path stroke="transparent" fill="#000000" transform="matrix(0.0833333 0 0 0.0833333 -42.25 -123.167)" d="M 8251.49,2930.24 L 8268.2,2941.24 L 8085.45,3218.94 L 8053.88,3248.71 L 8050.72,3235.33 L 8251.49,2930.24 Z " />
<path stroke="transparent" fill="#000000" transform="matrix(0.0833333 0 0 0.0833333 -42.25 -123.167)" d="M 9525.11,4086.57 L 9515.11,4103.89 L 9093.11,3860.25 L 9093.11,3848.71 L 9103.11,3842.93 L 9525.11,4086.57 Z " />
<path stroke="transparent" fill="#000000" transform="matrix(0.0833333 0 0 0.0833333 -42.25 -123.167)" d="M 8063.88,4448.71 L 8043.88,4448.71 L 8043.88,3866.03 L 8053.88,3848.71 L 8063.88,3866.03 L 8063.88,4448.71 Z " />
<path stroke="transparent" fill="#000000" transform="matrix(0.0833333 0 0 0.0833333 -42.25 -123.167)" d="M 7524.27,3548.71 L 7544.27,3548.71 L 7544.27,4131.39 L 7534.27,4148.71 L 7524.27,4131.39 L 7524.27,3548.71 Z " />
<path stroke="transparent" fill="#000000" transform="matrix(0.0833333 0 0 0.0833333 -42.25 -123.167)" d="M 6485.04,3548.71 L 6505.04,3548.71 L 6505.04,4131.39 L 6495.04,4148.71 L 6485.04,4131.39 L 6485.04,3548.71 Z " />
<path stroke="transparent" fill="#000000" transform="matrix(0.0833333 0 0 0.0833333 -42.25 -123.167)" d="M 3906.96,5543.54 L 3886.96,5543.54 L 3886.96,5054.48 L 3896.96,5048.71 L 3906.96,5054.48 L 3906.96,5543.54 Z " />
<path stroke="transparent" fill="#000000" transform="matrix(0.0833333 0 0 0.0833333 -42.25 -123.167)" d="M 2955.35,5003.89 L 2945.35,4986.57 L 3367.35,4742.93 L 3377.35,4748.71 L 3377.35,4760.25 L 2955.35,5003.89 Z " />
<path stroke="transparent" fill="#000000" transform="matrix(0.0833333 0 0 0.0833333 -42.25 -123.167)" d="M 2338.12,4760.25 L 2338.12,4748.71 L 2348.12,4742.93 L 2770.11,4986.57 L 2760.11,5003.89 L 2338.12,4760.25 Z " />
<path stroke="transparent" fill="#000000" transform="matrix(0.0833333 0 0 0.0833333 -42.25 -123.167)" d="M 1828.5,5054.48 L 1818.5,5048.71 L 1818.5,5037.16 L 2328.12,4742.93 L 2338.12,4748.71 L 2338.12,4760.25 L 1828.5,5054.48 Z " />
<path stroke="transparent" fill="#000000" transform="matrix(0.0833333 0 0 0.0833333 -42.25 -123.167)" d="M 1298.89,4760.25 L 1298.89,4748.71 L 1308.89,4742.93 L 1818.5,5037.16 L 1818.5,5048.71 L 1808.5,5054.48 L 1298.89,4760.25 Z " />
<path stroke="transparent" fill="#000000" transform="matrix(0.0833333 0 0 0.0833333 -42.25 -123.167)" d="M 1288.89,4154.48 L 1298.89,4148.71 L 1308.89,4154.48 L 1308.89,4742.93 L 1298.89,4748.71 L 1288.89,4742.93 L 1288.89,4154.48 Z " />
<path stroke="transparent" fill="#000000" transform="matrix(0.0833333 0 0 0.0833333 -42.25 -123.167)" d="M 1808.5,3842.93 L 1818.5,3848.71 L 1818.5,3860.25 L 1308.89,4154.48 L 1298.89,4148.71 L 1298.89,4137.16 L 1808.5,3842.93 Z " />
<path stroke="transparent" fill="#000000" transform="matrix(0.0833333 0 0 0.0833333 -42.25 -123.167)" d="M 2250.5,4086.57 L 2240.5,4103.89 L 1818.5,3860.25 L 1818.5,3848.71 L 1828.5,3842.93 L 2250.5,4086.57 Z " />
<path stroke="transparent" fill="#000000" transform="matrix(0.0833333 0 0 0.0833333 -42.25 -123.167)" d="M 2328.12,4268.54 L 2348.12,4268.54 L 2348.12,4742.93 L 2338.12,4748.71 L 2328.12,4742.93 L 2328.12,4268.54 Z " />
<path stroke="transparent" fill="#000000" transform="matrix(0.0833333 0 0 0.0833333 -42.25 -123.167)" d="M 1808.5,3254.48 L 1828.5,3242.93 L 1828.5,3842.93 L 1818.5,3848.71 L 1808.5,3842.93 L 1808.5,3254.48 Z " />
<path stroke="transparent" fill="#000000" transform="matrix(0.0833333 0 0 0.0833333 -42.25 -123.167)" d="M 1393.92,3015.12 L 1403.92,2997.8 L 1828.5,3242.93 L 1808.5,3254.48 L 1393.92,3015.12 Z " />
<path stroke="transparent" fill="#000000" transform="matrix(0.0833333 0 0 0.0833333 -42.25 -123.167)" d="M 1288.89,2354.48 L 1308.89,2342.93 L 1308.89,2843.54 L 1288.89,2843.54 L 1288.89,2354.48 Z " />
<path stroke="transparent" fill="#000000" transform="matrix(0.0833333 0 0 0.0833333 -42.25 -123.167)" d="M 1695.9,2066.38 L 1705.9,2083.7 L 1267.89,2336.58 L 1257.89,2319.26 L 1695.9,2066.38 Z " />
<path stroke="transparent" fill="#000000" transform="matrix(0.0833333 0 0 0.0833333 -42.25 -123.167)" d="M 1731.9,2128.73 L 1741.9,2146.05 L 1303.89,2398.94 L 1293.89,2381.62 L 1731.9,2128.73 Z " />
<path stroke="transparent" fill="#000000" transform="matrix(0.0833333 0 0 0.0833333 -42.25 -123.167)" d="M 774.27,2057.37 L 784.27,2040.05 L 1308.89,2342.93 L 1288.89,2354.48 L 774.27,2057.37 Z " />
<path stroke="transparent" fill="#000000" transform="matrix(0.0833333 0 0 0.0833333 -42.25 -123.167)" d="M 874.299,3915.12 L 884.299,3897.8 L 1298.89,4137.16 L 1298.89,4148.71 L 1288.89,4154.48 L 874.299,3915.12 Z " />
<path stroke="transparent" fill="#000000" transform="matrix(0.0833333 0 0 0.0833333 -42.25 -123.167)" d="M 876.881,5003.9 L 866.881,4986.58 L 1288.89,4742.93 L 1298.89,4748.71 L 1298.89,4760.25 L 876.881,5003.9 Z " />
<path stroke="transparent" fill="#000000" transform="matrix(0.0833333 0 0 0.0833333 -42.25 -123.167)" d="M 1828.5,5543.54 L 1808.5,5543.54 L 1808.5,5054.48 L 1818.5,5048.71 L 1828.5,5054.48 L 1828.5,5543.54 Z " />
<path stroke="transparent" fill="#000000" transform="matrix(0.0833333 0 0 0.0833333 -42.25 -123.167)" d="M 2952.76,3915.12 L 2962.76,3897.8 L 3377.35,4137.16 L 3377.35,4148.71 L 3367.35,4154.48 L 2952.76,3915.12 Z " />
</svg>
