<?xml version="1.0" standalone="no" ?>
<!DOCTYPE svg PUBLIC "-//W3C//DTD SVG 1.1//EN" "http://www.w3.org/Graphics/SVG/1.1/DTD/svg11.dtd">
<svg width="435px" height="465px" viewBox="0 0 435 465" style="background-color: #ffffff00" xmlns="http://www.w3.org/2000/svg" xmlns:xlink="http://www.w3.org/1999/xlink" version="1.1" >
<text x="0" y="0" stroke="transparent" fill="#000000" transform="matrix(0.0833333 0 0 0.0833333 4.10817 161.231)" style="font:normal normal normal 200px 'Arial'" >
HO</text>
<text x="0" y="0" stroke="transparent" fill="#000000" transform="matrix(0.0833333 0 0 0.0833333 102.745 311.233)" style="font:normal normal normal 200px 'Arial'" >
OH</text>
<text x="0" y="0" stroke="transparent" fill="#000000" transform="matrix(0.0833333 0 0 0.0833333 189.351 311.231)" style="font:normal normal normal 200px 'Arial'" >
O</text>
<text x="0" y="0" stroke="transparent" fill="#000000" transform="matrix(0.0833333 0 0 0.0833333 275.957 261.234)" style="font:normal normal normal 200px 'Arial'" >
O</text>
<text x="0" y="0" stroke="transparent" fill="#000000" transform="matrix(0.0833333 0 0 0.0833333 232.653 336.232)" style="font:normal normal normal 200px 'Arial'" >
O</text>
<text x="0" y="0" stroke="transparent" fill="#000000" transform="matrix(0.0833333 0 0 0.0833333 275.955 461.235)" style="font:normal normal normal 200px 'Arial'" >
OH</text>
<text x="0" y="0" stroke="transparent" fill="#000000" transform="matrix(0.0833333 0 0 0.0833333 362.56 411.233)" style="font:normal normal normal 200px 'Arial'" >
OH</text>
<text x="0" y="0" stroke="transparent" fill="#000000" transform="matrix(0.0833333 0 0 0.0833333 362.561 311.235)" style="font:normal normal normal 200px 'Arial'" >
OH</text>
<text x="0" y="0" stroke="transparent" fill="#000000" transform="matrix(0.0833333 0 0 0.0833333 405.862 86.2328)" style="font:normal normal normal 200px 'Arial'" >
OH</text>
<text x="0" y="0" stroke="transparent" fill="#000000" transform="matrix(0.0833333 0 0 0.0833333 189.352 161.233)" style="font:normal normal normal 200px 'Arial'" >
O</text>
<path stroke="transparent" fill="#000000" transform="matrix(0.0833333 0 0 0.0833333 -197.25 -174)" d="M 4207.6,2450.53 L 4197.6,2444.75 L 4197.6,2433.21 L 4712.22,2136.1 L 4722.22,2153.42 L 4207.6,2450.53 Z " />
<path stroke="transparent" fill="#000000" transform="matrix(0.0833333 0 0 0.0833333 -197.25 -174)" d="M 3672.97,2153.41 L 3682.97,2136.09 L 4197.6,2433.21 L 4197.6,2444.75 L 4187.6,2450.53 L 3672.97,2153.41 Z " />
<path stroke="transparent" fill="#000000" transform="matrix(0.0833333 0 0 0.0833333 -197.25 -174)" d="M 4207.59,3050.56 L 4187.59,3039.02 L 4187.6,2450.53 L 4197.6,2444.75 L 4207.6,2450.53 L 4207.59,3050.56 Z " />
<path stroke="transparent" fill="#000000" transform="matrix(0.0833333 0 0 0.0833333 -197.25 -174)" d="M 4135.58,3003.22 L 4115.58,3003.22 L 4115.6,2486.33 L 4135.6,2486.33 L 4135.58,3003.22 Z " />
<path stroke="transparent" fill="#000000" transform="matrix(0.0833333 0 0 0.0833333 -197.25 -174)" d="M 3687.97,3350.56 L 3667.97,3339.01 L 4187.59,3039.02 L 4207.59,3050.56 L 3687.97,3350.56 Z " />
<path stroke="transparent" fill="#000000" transform="matrix(0.0833333 0 0 0.0833333 -197.25 -174)" d="M 3687.98,3939.01 L 3677.98,3944.78 L 3667.98,3939.01 L 3667.97,3339.01 L 3687.97,3350.56 L 3687.98,3939.01 Z " />
<path stroke="transparent" fill="#000000" transform="matrix(0.0833333 0 0 0.0833333 -197.25 -174)" d="M 3168.36,4250.55 L 3158.36,4244.78 L 3158.36,4233.23 L 3667.98,3939.01 L 3677.98,3944.78 L 3677.98,3956.33 L 3168.36,4250.55 Z " />
<path stroke="transparent" fill="#000000" transform="matrix(0.0833333 0 0 0.0833333 -197.25 -174)" d="M 3235.36,4295.01 L 3225.36,4277.69 L 3672.98,4019.26 L 3682.98,4036.58 L 3235.36,4295.01 Z " />
<path stroke="transparent" fill="#000000" transform="matrix(0.0833333 0 0 0.0833333 -197.25 -174)" d="M 2733.76,4011.18 L 2743.76,3993.86 L 3158.36,4233.23 L 3158.36,4244.78 L 3148.36,4250.55 L 2733.76,4011.18 Z " />
<path stroke="transparent" fill="#000000" transform="matrix(0.0833333 0 0 0.0833333 -197.25 -174)" d="M 3168.33,4838.98 L 3148.33,4850.53 L 3148.36,4250.55 L 3158.36,4244.78 L 3168.36,4250.55 L 3168.33,4838.98 Z " />
<path stroke="transparent" fill="#000000" transform="matrix(0.0833333 0 0 0.0833333 -197.25 -174)" d="M 3677.96,5133.21 L 3677.96,5144.76 L 3667.96,5150.54 L 3148.33,4850.53 L 3168.33,4838.98 L 3677.96,5133.21 Z " />
<path stroke="transparent" fill="#000000" transform="matrix(0.0833333 0 0 0.0833333 -197.25 -174)" d="M 3682.96,5052.96 L 3672.96,5070.28 L 3225.33,4811.85 L 3235.33,4794.53 L 3682.96,5052.96 Z " />
<path stroke="transparent" fill="#000000" transform="matrix(0.0833333 0 0 0.0833333 -197.25 -174)" d="M 3687.95,5639.63 L 3667.95,5639.63 L 3667.96,5150.54 L 3677.96,5144.76 L 3687.96,5150.54 L 3687.95,5639.63 Z " />
<path stroke="transparent" fill="#000000" transform="matrix(0.0833333 0 0 0.0833333 -197.25 -174)" d="M 4187.58,4838.99 L 4197.58,4844.77 L 4197.58,4856.32 L 3687.96,5150.54 L 3677.96,5144.76 L 3677.96,5133.21 L 4187.58,4838.99 Z " />
<path stroke="transparent" fill="#000000" transform="matrix(0.0833333 0 0 0.0833333 -197.25 -174)" d="M 4717.2,5133.23 L 4717.2,5156.32 L 4197.58,4856.32 L 4197.58,4844.77 L 4207.58,4839 L 4717.2,5133.23 Z " />
<path stroke="transparent" fill="#000000" transform="matrix(0.0833333 0 0 0.0833333 -197.25 -174)" d="M 4763.21,5639.61 L 4743.21,5639.61 L 4743.2,5123.99 L 4763.2,5123.99 L 4763.21,5639.61 Z " />
<path stroke="transparent" fill="#000000" transform="matrix(0.0833333 0 0 0.0833333 -197.25 -174)" d="M 4691.21,5639.61 L 4671.21,5639.61 L 4671.2,5123.99 L 4691.2,5123.99 L 4691.21,5639.61 Z " />
<path stroke="transparent" fill="#000000" transform="matrix(0.0833333 0 0 0.0833333 -197.25 -174)" d="M 5226.86,4839.03 L 5236.86,4844.8 L 5236.86,4856.35 L 4717.2,5156.32 L 4717.2,5133.23 L 5226.86,4839.03 Z " />
<path stroke="transparent" fill="#000000" transform="matrix(0.0833333 0 0 0.0833333 -197.25 -174)" d="M 5668.86,5082.67 L 5658.86,5099.99 L 5236.86,4856.35 L 5236.86,4844.8 L 5246.86,4839.03 L 5668.86,5082.67 Z " />
<path stroke="transparent" fill="#000000" transform="matrix(0.0833333 0 0 0.0833333 -197.25 -174)" d="M 5696.48,5264.64 L 5816.48,5264.64 L 5767.02,5739.34 L 5756.46,5744.79 L 5745.89,5739.34 L 5696.48,5264.64 Z " />
<path stroke="transparent" fill="#000000" transform="matrix(0.0833333 0 0 0.0833333 -197.25 -174)" d="M 5334.46,5999.97 L 5324.46,5982.65 L 5745.89,5739.34 L 5756.46,5744.79 L 5756.46,5756.34 L 5334.46,5999.97 Z " />
<path stroke="transparent" fill="#000000" transform="matrix(0.0833333 0 0 0.0833333 -197.25 -174)" d="M 5226.83,6164.61 L 5246.83,6164.61 L 5246.82,6639.04 L 5226.82,6650.59 L 5226.83,6164.61 Z " />
<path stroke="transparent" fill="#000000" transform="matrix(0.0833333 0 0 0.0833333 -197.25 -174)" d="M 4747.21,6996.77 L 4687.21,6892.85 L 4705.44,6884.43 L 4763.61,6985.18 L 4747.21,6996.77 Z " />
<path stroke="transparent" fill="#000000" transform="matrix(0.0833333 0 0 0.0833333 -197.25 -174)" d="M 4795.14,6962.92 L 4740.49,6868.27 L 4758.72,6859.85 L 4811.54,6951.33 L 4795.14,6962.92 Z " />
<path stroke="transparent" fill="#000000" transform="matrix(0.0833333 0 0 0.0833333 -197.25 -174)" d="M 4843.07,6929.07 L 4793.77,6843.68 L 4812.01,6835.27 L 4859.47,6917.48 L 4843.07,6929.07 Z " />
<path stroke="transparent" fill="#000000" transform="matrix(0.0833333 0 0 0.0833333 -197.25 -174)" d="M 4891,6895.22 L 4847.05,6819.1 L 4865.29,6810.69 L 4907.4,6883.63 L 4891,6895.22 Z " />
<path stroke="transparent" fill="#000000" transform="matrix(0.0833333 0 0 0.0833333 -197.25 -174)" d="M 4938.93,6861.36 L 4900.33,6794.52 L 4918.57,6786.11 L 4955.33,6849.78 L 4938.93,6861.36 Z " />
<path stroke="transparent" fill="#000000" transform="matrix(0.0833333 0 0 0.0833333 -197.25 -174)" d="M 4986.86,6827.51 L 4953.62,6769.94 L 4971.85,6761.53 L 5003.26,6815.93 L 4986.86,6827.51 Z " />
<path stroke="transparent" fill="#000000" transform="matrix(0.0833333 0 0 0.0833333 -197.25 -174)" d="M 5034.79,6793.66 L 5006.9,6745.36 L 5025.14,6736.94 L 5051.19,6782.08 L 5034.79,6793.66 Z " />
<path stroke="transparent" fill="#000000" transform="matrix(0.0833333 0 0 0.0833333 -197.25 -174)" d="M 5082.72,6759.81 L 5060.18,6720.78 L 5078.42,6712.36 L 5099.12,6748.22 L 5082.72,6759.81 Z " />
<path stroke="transparent" fill="#000000" transform="matrix(0.0833333 0 0 0.0833333 -197.25 -174)" d="M 5130.65,6725.96 L 5113.46,6696.19 L 5131.7,6687.78 L 5147.05,6714.37 L 5130.65,6725.96 Z " />
<path stroke="transparent" fill="#000000" transform="matrix(0.0833333 0 0 0.0833333 -197.25 -174)" d="M 5178.58,6692.11 L 5166.74,6671.61 L 5184.98,6663.2 L 5194.98,6680.52 L 5178.58,6692.11 Z " />
<path stroke="transparent" fill="#000000" transform="matrix(0.0833333 0 0 0.0833333 -197.25 -174)" d="M 5226.82,6650.59 L 5246.82,6639.04 L 5756.45,6933.28 L 5756.45,6944.82 L 5745.9,6950.28 L 5226.82,6650.59 Z " />
<path stroke="transparent" fill="#000000" transform="matrix(0.0833333 0 0 0.0833333 -197.25 -174)" d="M 5816.46,7439.65 L 5696.46,7439.66 L 5745.9,6950.28 L 5756.45,6944.82 L 5767,6950.28 L 5816.46,7439.65 Z " />
<path stroke="transparent" fill="#000000" transform="matrix(0.0833333 0 0 0.0833333 -197.25 -174)" d="M 5767,6950.28 L 5756.45,6944.82 L 5756.45,6933.28 L 6266.09,6639.02 L 6286.09,6650.57 L 5767,6950.28 Z " />
<path stroke="transparent" fill="#000000" transform="matrix(0.0833333 0 0 0.0833333 -197.25 -174)" d="M 6733.1,6839.37 L 6673.1,6943.29 L 6656.92,6931.32 L 6714.64,6831.34 L 6733.1,6839.37 Z " />
<path stroke="transparent" fill="#000000" transform="matrix(0.0833333 0 0 0.0833333 -197.25 -174)" d="M 6677.84,6815.34 L 6624.66,6907.45 L 6608.48,6895.48 L 6659.38,6807.31 L 6677.84,6815.34 Z " />
<path stroke="transparent" fill="#000000" transform="matrix(0.0833333 0 0 0.0833333 -197.25 -174)" d="M 6622.59,6791.31 L 6576.23,6871.61 L 6560.04,6859.64 L 6604.13,6783.28 L 6622.59,6791.31 Z " />
<path stroke="transparent" fill="#000000" transform="matrix(0.0833333 0 0 0.0833333 -197.25 -174)" d="M 6567.34,6767.28 L 6527.79,6835.78 L 6511.61,6823.81 L 6548.88,6759.25 L 6567.34,6767.28 Z " />
<path stroke="transparent" fill="#000000" transform="matrix(0.0833333 0 0 0.0833333 -197.25 -174)" d="M 6512.08,6743.25 L 6479.35,6799.94 L 6463.17,6787.97 L 6493.62,6735.22 L 6512.08,6743.25 Z " />
<path stroke="transparent" fill="#000000" transform="matrix(0.0833333 0 0 0.0833333 -197.25 -174)" d="M 6456.83,6719.22 L 6430.92,6764.1 L 6414.73,6752.13 L 6438.37,6711.19 L 6456.83,6719.22 Z " />
<path stroke="transparent" fill="#000000" transform="matrix(0.0833333 0 0 0.0833333 -197.25 -174)" d="M 6401.57,6695.19 L 6382.48,6728.27 L 6366.3,6716.29 L 6383.12,6687.17 L 6401.57,6695.19 Z " />
<path stroke="transparent" fill="#000000" transform="matrix(0.0833333 0 0 0.0833333 -197.25 -174)" d="M 6346.32,6671.17 L 6334.04,6692.43 L 6317.86,6680.46 L 6327.86,6663.14 L 6346.32,6671.17 Z " />
<path stroke="transparent" fill="#000000" transform="matrix(0.0833333 0 0 0.0833333 -197.25 -174)" d="M 6286.09,6650.57 L 6266.09,6639.02 L 6266.12,6050.59 L 6286.12,6039.04 L 6286.09,6650.57 Z " />
<path stroke="transparent" fill="#000000" transform="matrix(0.0833333 0 0 0.0833333 -197.25 -174)" d="M 6286.12,6039.04 L 6266.12,6050.59 L 5756.46,5756.34 L 5756.46,5744.79 L 5767.02,5739.34 L 6286.12,6039.04 Z " />
<path stroke="transparent" fill="#000000" transform="matrix(0.0833333 0 0 0.0833333 -197.25 -174)" d="M 6666.13,5750.36 L 6726.13,5854.29 L 6707.65,5862.28 L 6649.97,5762.37 L 6666.13,5750.36 Z " />
<path stroke="transparent" fill="#000000" transform="matrix(0.0833333 0 0 0.0833333 -197.25 -174)" d="M 6618.7,5785.61 L 6671.89,5877.74 L 6653.41,5885.73 L 6602.54,5797.62 L 6618.7,5785.61 Z " />
<path stroke="transparent" fill="#000000" transform="matrix(0.0833333 0 0 0.0833333 -197.25 -174)" d="M 6571.28,5820.86 L 6617.65,5901.19 L 6599.17,5909.18 L 6555.12,5832.87 L 6571.28,5820.86 Z " />
<path stroke="transparent" fill="#000000" transform="matrix(0.0833333 0 0 0.0833333 -197.25 -174)" d="M 6523.85,5856.1 L 6563.41,5924.63 L 6544.93,5932.62 L 6507.69,5868.11 L 6523.85,5856.1 Z " />
<path stroke="transparent" fill="#000000" transform="matrix(0.0833333 0 0 0.0833333 -197.25 -174)" d="M 6476.42,5891.35 L 6509.18,5948.08 L 6490.69,5956.07 L 6460.26,5903.36 L 6476.42,5891.35 Z " />
<path stroke="transparent" fill="#000000" transform="matrix(0.0833333 0 0 0.0833333 -197.25 -174)" d="M 6428.99,5926.6 L 6454.94,5971.53 L 6436.46,5979.52 L 6412.83,5938.61 L 6428.99,5926.6 Z " />
<path stroke="transparent" fill="#000000" transform="matrix(0.0833333 0 0 0.0833333 -197.25 -174)" d="M 6381.57,5961.84 L 6400.7,5994.98 L 6382.22,6002.97 L 6365.41,5973.85 L 6381.57,5961.84 Z " />
<path stroke="transparent" fill="#000000" transform="matrix(0.0833333 0 0 0.0833333 -197.25 -174)" d="M 6334.14,5997.09 L 6346.46,6018.43 L 6327.98,6026.42 L 6317.98,6009.1 L 6334.14,5997.09 Z " />
<path stroke="transparent" fill="#000000" transform="matrix(0.0833333 0 0 0.0833333 -197.25 -174)" d="M 5226.85,4250.58 L 5236.85,4244.8 L 5246.85,4250.58 L 5246.86,4839.03 L 5236.86,4844.8 L 5226.86,4839.03 L 5226.85,4250.58 Z " />
<path stroke="transparent" fill="#000000" transform="matrix(0.0833333 0 0 0.0833333 -197.25 -174)" d="M 5154.85,4286.37 L 5174.85,4286.37 L 5174.86,4803.23 L 5154.86,4803.23 L 5154.85,4286.37 Z " />
<path stroke="transparent" fill="#000000" transform="matrix(0.0833333 0 0 0.0833333 -197.25 -174)" d="M 5746.47,3939.03 L 5756.47,3944.81 L 5756.47,3956.36 L 5246.85,4250.58 L 5236.85,4244.8 L 5236.85,4233.25 L 5746.47,3939.03 Z " />
<path stroke="transparent" fill="#000000" transform="matrix(0.0833333 0 0 0.0833333 -197.25 -174)" d="M 6276.09,4233.27 L 6276.09,4256.36 L 5756.47,3956.36 L 5756.47,3944.81 L 5766.47,3939.04 L 6276.09,4233.27 Z " />
<path stroke="transparent" fill="#000000" transform="matrix(0.0833333 0 0 0.0833333 -197.25 -174)" d="M 6281.09,4153.01 L 6271.09,4170.33 L 5823.47,3911.9 L 5833.47,3894.58 L 6281.09,4153.01 Z " />
<path stroke="transparent" fill="#000000" transform="matrix(0.0833333 0 0 0.0833333 -197.25 -174)" d="M 6785.73,3939.01 L 6805.73,3950.56 L 6276.09,4256.36 L 6276.09,4233.27 L 6785.73,3939.01 Z " />
<path stroke="transparent" fill="#000000" transform="matrix(0.0833333 0 0 0.0833333 -197.25 -174)" d="M 6785.73,3350.56 L 6795.73,3344.79 L 6805.73,3350.56 L 6805.73,3950.56 L 6785.73,3939.01 L 6785.73,3350.56 Z " />
<path stroke="transparent" fill="#000000" transform="matrix(0.0833333 0 0 0.0833333 -197.25 -174)" d="M 6713.73,3386.36 L 6733.73,3386.36 L 6733.73,3903.22 L 6713.73,3903.22 L 6713.73,3386.36 Z " />
<path stroke="transparent" fill="#000000" transform="matrix(0.0833333 0 0 0.0833333 -197.25 -174)" d="M 7210.74,3093.64 L 7220.74,3110.96 L 6805.73,3350.56 L 6795.73,3344.79 L 6795.73,3333.24 L 7210.74,3093.64 Z " />
<path stroke="transparent" fill="#000000" transform="matrix(0.0833333 0 0 0.0833333 -197.25 -174)" d="M 6276.1,3056.33 L 6276.1,3033.23 L 6795.73,3333.24 L 6795.73,3344.79 L 6785.73,3350.56 L 6276.1,3056.33 Z " />
<path stroke="transparent" fill="#000000" transform="matrix(0.0833333 0 0 0.0833333 -197.25 -174)" d="M 5766.48,3350.55 L 5746.48,3339 L 6276.1,3033.23 L 6276.1,3056.33 L 5766.48,3350.55 Z " />
<path stroke="transparent" fill="#000000" transform="matrix(0.0833333 0 0 0.0833333 -197.25 -174)" d="M 5833.48,3395 L 5823.48,3377.68 L 6271.1,3119.26 L 6281.1,3136.58 L 5833.48,3395 Z " />
<path stroke="transparent" fill="#000000" transform="matrix(0.0833333 0 0 0.0833333 -197.25 -174)" d="M 5746.48,3339 L 5766.48,3350.55 L 5766.47,3939.04 L 5756.47,3944.81 L 5746.47,3939.03 L 5746.48,3339 Z " />
<path stroke="transparent" fill="#000000" transform="matrix(0.0833333 0 0 0.0833333 -197.25 -174)" d="M 4812.26,4011.21 L 4822.26,3993.89 L 5236.85,4233.25 L 5236.85,4244.8 L 5226.85,4250.58 L 4812.26,4011.21 Z " />
<path stroke="transparent" fill="#000000" transform="matrix(0.0833333 0 0 0.0833333 -197.25 -174)" d="M 4207.6,4250.56 L 4197.6,4244.79 L 4197.6,4233.24 L 4612.62,3993.64 L 4622.62,4010.96 L 4207.6,4250.56 Z " />
<path stroke="transparent" fill="#000000" transform="matrix(0.0833333 0 0 0.0833333 -197.25 -174)" d="M 4197.6,4233.24 L 4197.6,4244.79 L 4187.6,4250.56 L 3677.98,3956.33 L 3677.98,3944.78 L 3687.98,3939.01 L 4197.6,4233.24 Z " />
<path stroke="transparent" fill="#000000" transform="matrix(0.0833333 0 0 0.0833333 -197.25 -174)" d="M 4187.6,4250.56 L 4197.6,4244.79 L 4207.6,4250.56 L 4207.58,4839 L 4197.58,4844.77 L 4187.58,4838.99 L 4187.6,4250.56 Z " />
<path stroke="transparent" fill="#000000" transform="matrix(0.0833333 0 0 0.0833333 -197.25 -174)" d="M 4115.6,4286.35 L 4135.6,4286.36 L 4135.58,4803.2 L 4115.58,4803.2 L 4115.6,4286.35 Z " />
</svg>
