<?xml version="1.0" standalone="no" ?>
<!DOCTYPE svg PUBLIC "-//W3C//DTD SVG 1.1//EN" "http://www.w3.org/Graphics/SVG/1.1/DTD/svg11.dtd">
<svg width="447px" height="236px" viewBox="0 0 447 236" style="background-color: #ffffff00" xmlns="http://www.w3.org/2000/svg" xmlns:xlink="http://www.w3.org/1999/xlink" version="1.1" >
<path stroke="transparent" fill="#000000" transform="matrix(0.0833333 0 0 0.0833333 -215.208 -535)" d="M 7543.21,7971.84 L 7603.21,8075.77 L 7163.2,8272.72 L 7153.2,8266.3 L 7152.64,8254.43 L 7543.21,7971.84 Z " />
<path stroke="transparent" fill="#000000" transform="matrix(0.0833333 0 0 0.0833333 -215.208 -535)" d="M 4447.06,7506 L 4466.62,7501.84 L 4563.98,7959.87 L 4555.12,7966.3 L 4543.83,7961.27 L 4447.06,7506 Z " />
<path stroke="transparent" fill="#000000" transform="matrix(0.0833333 0 0 0.0833333 -215.208 -535)" d="M 4336.25,7359.46 L 4334.16,7379.35 L 3839.84,7327.4 L 3833.66,7316.69 L 3839.14,7307.21 L 4336.25,7359.46 Z " />
<path stroke="transparent" fill="#000000" transform="matrix(0.0833333 0 0 0.0833333 -215.208 -535)" d="M 3822.18,7317.9 L 3833.66,7316.69 L 3839.84,7327.4 L 3601.71,7862.25 L 3589.62,7864.82 L 3582.83,7855.48 L 3822.18,7317.9 Z " />
<path stroke="transparent" fill="#000000" transform="matrix(0.0833333 0 0 0.0833333 -215.208 -535)" d="M 3839.14,7307.21 L 3833.66,7316.69 L 3822.18,7317.9 L 3476.29,6841.83 L 3485.69,6820.74 L 3839.14,7307.21 Z " />
<path stroke="transparent" fill="#000000" transform="matrix(0.0833333 0 0 0.0833333 -215.208 -535)" d="M 3759.07,7319.51 L 3742.89,7331.26 L 3439.09,6913.11 L 3455.27,6901.36 L 3759.07,7319.51 Z " />
<path stroke="transparent" fill="#000000" transform="matrix(0.0833333 0 0 0.0833333 -215.208 -535)" d="M 3485.69,6820.74 L 3476.29,6841.83 L 2891.07,6903.34 L 2877.49,6884.66 L 3485.69,6820.74 Z " />
<path stroke="transparent" fill="#000000" transform="matrix(0.0833333 0 0 0.0833333 -215.208 -535)" d="M 2877.49,6884.66 L 2891.07,6903.34 L 2651.72,7440.92 L 2628.75,7443.34 L 2877.49,6884.66 Z " />
<path stroke="transparent" fill="#000000" transform="matrix(0.0833333 0 0 0.0833333 -215.208 -535)" d="M 2924.01,6957.19 L 2942.28,6965.33 L 2732.05,7437.51 L 2713.78,7429.37 L 2924.01,6957.19 Z " />
<path stroke="transparent" fill="#000000" transform="matrix(0.0833333 0 0 0.0833333 -215.208 -535)" d="M 2628.75,7443.34 L 2651.72,7440.92 L 2997.6,7916.99 L 2988.21,7938.09 L 2628.75,7443.34 Z " />
<path stroke="transparent" fill="#000000" transform="matrix(0.0833333 0 0 0.0833333 -215.208 -535)" d="M 2988.21,7938.09 L 2997.6,7916.99 L 3582.83,7855.48 L 3589.62,7864.82 L 3586.24,7875.23 L 2988.21,7938.09 Z " />
<path stroke="transparent" fill="#000000" transform="matrix(0.0833333 0 0 0.0833333 -215.208 -535)" d="M 3027.77,7861.53 L 3025.68,7841.64 L 3539.71,7787.62 L 3541.8,7807.51 L 3027.77,7861.53 Z " />
<path stroke="transparent" fill="#000000" transform="matrix(0.0833333 0 0 0.0833333 -215.208 -535)" d="M 3586.24,7875.23 L 3589.62,7864.82 L 3601.71,7862.25 L 4036.8,8254.01 L 4035.51,8266.3 L 4025.51,8270.75 L 3586.24,7875.23 Z " />
<path stroke="transparent" fill="#000000" transform="matrix(0.0833333 0 0 0.0833333 -215.208 -535)" d="M 5594.35,9177.85 L 5594.35,9154.75 L 6103.97,8860.53 L 6113.97,8866.3 L 6113.51,8878.11 L 5594.35,9177.85 Z " />
<path stroke="transparent" fill="#000000" transform="matrix(0.0833333 0 0 0.0833333 -215.208 -535)" d="M 5594.35,9154.75 L 5594.35,9177.85 L 5179.87,8938.54 L 5189.87,8921.22 L 5594.35,9154.75 Z " />
<path stroke="transparent" fill="#000000" transform="matrix(0.0833333 0 0 0.0833333 -215.208 -535)" d="M 5084.74,8763.63 L 5064.74,8763.63 L 5064.74,8272.07 L 5084.74,8260.53 L 5084.74,8763.63 Z " />
<path stroke="transparent" fill="#000000" transform="matrix(0.0833333 0 0 0.0833333 -215.208 -535)" d="M 4959.61,8921.22 L 4969.61,8938.54 L 4555.12,9177.85 L 4555.12,9154.75 L 4959.61,8921.22 Z " />
<path stroke="transparent" fill="#000000" transform="matrix(0.0833333 0 0 0.0833333 -215.208 -535)" d="M 4555.12,9154.75 L 4555.12,9177.85 L 4025.51,8872.07 L 4045.51,8860.53 L 4555.12,9154.75 Z " />
<path stroke="transparent" fill="#000000" transform="matrix(0.0833333 0 0 0.0833333 -215.208 -535)" d="M 4045.51,8860.53 L 4025.51,8872.07 L 4025.51,8270.75 L 4035.51,8266.3 L 4045.51,8272.07 L 4045.51,8860.53 Z " />
<path stroke="transparent" fill="#000000" transform="matrix(0.0833333 0 0 0.0833333 -215.208 -535)" d="M 4045.51,8272.07 L 4035.51,8266.3 L 4036.8,8254.01 L 4543.83,7961.27 L 4555.12,7966.3 L 4555.12,7977.85 L 4045.51,8272.07 Z " />
<path stroke="transparent" fill="#000000" transform="matrix(0.0833333 0 0 0.0833333 -215.208 -535)" d="M 4049.81,8186.45 L 4039.81,8169.13 L 4468.82,7921.44 L 4478.82,7938.76 L 4049.81,8186.45 Z " />
<path stroke="transparent" fill="#000000" transform="matrix(0.0833333 0 0 0.0833333 -215.208 -535)" d="M 4555.12,7977.85 L 4555.12,7966.3 L 4563.98,7959.87 L 5084.74,8260.53 L 5064.74,8272.07 L 4555.12,7977.85 Z " />
<path stroke="transparent" fill="#000000" transform="matrix(0.0833333 0 0 0.0833333 -215.208 -535)" d="M 5126.5,8247.96 L 5116.5,8230.64 L 5132.81,8218.88 L 5144.84,8239.72 L 5126.5,8247.96 Z " />
<path stroke="transparent" fill="#000000" transform="matrix(0.0833333 0 0 0.0833333 -215.208 -535)" d="M 5180.6,8223.65 L 5164.6,8195.95 L 5180.9,8184.19 L 5198.93,8215.41 L 5180.6,8223.65 Z " />
<path stroke="transparent" fill="#000000" transform="matrix(0.0833333 0 0 0.0833333 -215.208 -535)" d="M 5234.69,8199.35 L 5212.7,8161.25 L 5229,8149.49 L 5253.03,8191.11 L 5234.69,8199.35 Z " />
<path stroke="transparent" fill="#000000" transform="matrix(0.0833333 0 0 0.0833333 -215.208 -535)" d="M 5288.78,8175.04 L 5260.8,8126.56 L 5277.1,8114.8 L 5307.12,8166.8 L 5288.78,8175.04 Z " />
<path stroke="transparent" fill="#000000" transform="matrix(0.0833333 0 0 0.0833333 -215.208 -535)" d="M 5342.88,8150.73 L 5308.89,8091.87 L 5325.2,8080.11 L 5361.21,8142.49 L 5342.88,8150.73 Z " />
<path stroke="transparent" fill="#000000" transform="matrix(0.0833333 0 0 0.0833333 -215.208 -535)" d="M 5396.97,8126.42 L 5356.99,8057.18 L 5373.3,8045.42 L 5415.31,8118.18 L 5396.97,8126.42 Z " />
<path stroke="transparent" fill="#000000" transform="matrix(0.0833333 0 0 0.0833333 -215.208 -535)" d="M 5451.06,8102.12 L 5405.09,8022.48 L 5421.39,8010.72 L 5469.4,8093.88 L 5451.06,8102.12 Z " />
<path stroke="transparent" fill="#000000" transform="matrix(0.0833333 0 0 0.0833333 -215.208 -535)" d="M 5505.16,8077.81 L 5453.19,7987.79 L 5469.49,7976.03 L 5523.49,8069.57 L 5505.16,8077.81 Z " />
<path stroke="transparent" fill="#000000" transform="matrix(0.0833333 0 0 0.0833333 -215.208 -535)" d="M 5559.25,8053.5 L 5501.28,7953.1 L 5517.59,7941.34 L 5577.59,8045.26 L 5559.25,8053.5 Z " />
<path stroke="transparent" fill="#000000" transform="matrix(0.0833333 0 0 0.0833333 -215.208 -535)" d="M 5611.2,8045.31 L 5671.2,7941.38 L 5687.5,7953.14 L 5629.53,8053.55 L 5611.2,8045.31 Z " />
<path stroke="transparent" fill="#000000" transform="matrix(0.0833333 0 0 0.0833333 -215.208 -535)" d="M 5665.27,8069.6 L 5719.27,7976.07 L 5735.58,7987.83 L 5683.61,8077.84 L 5665.27,8069.6 Z " />
<path stroke="transparent" fill="#000000" transform="matrix(0.0833333 0 0 0.0833333 -215.208 -535)" d="M 5719.34,8093.9 L 5767.35,8010.75 L 5783.66,8022.51 L 5737.68,8102.14 L 5719.34,8093.9 Z " />
<path stroke="transparent" fill="#000000" transform="matrix(0.0833333 0 0 0.0833333 -215.208 -535)" d="M 5773.42,8118.2 L 5815.43,8045.43 L 5831.73,8057.19 L 5791.76,8126.43 L 5773.42,8118.2 Z " />
<path stroke="transparent" fill="#000000" transform="matrix(0.0833333 0 0 0.0833333 -215.208 -535)" d="M 5827.49,8142.49 L 5863.51,8080.11 L 5879.81,8091.87 L 5845.83,8150.73 L 5827.49,8142.49 Z " />
<path stroke="transparent" fill="#000000" transform="matrix(0.0833333 0 0 0.0833333 -215.208 -535)" d="M 5881.57,8166.79 L 5911.59,8114.79 L 5927.89,8126.55 L 5899.9,8175.03 L 5881.57,8166.79 Z " />
<path stroke="transparent" fill="#000000" transform="matrix(0.0833333 0 0 0.0833333 -215.208 -535)" d="M 5935.64,8191.08 L 5959.66,8149.47 L 5975.97,8161.23 L 5953.98,8199.32 L 5935.64,8191.08 Z " />
<path stroke="transparent" fill="#000000" transform="matrix(0.0833333 0 0 0.0833333 -215.208 -535)" d="M 5989.71,8215.38 L 6007.74,8184.15 L 6024.05,8195.91 L 6008.05,8223.62 L 5989.71,8215.38 Z " />
<path stroke="transparent" fill="#000000" transform="matrix(0.0833333 0 0 0.0833333 -215.208 -535)" d="M 6043.79,8239.68 L 6055.82,8218.83 L 6072.12,8230.59 L 6062.12,8247.92 L 6043.79,8239.68 Z " />
<path stroke="transparent" fill="#000000" transform="matrix(0.0833333 0 0 0.0833333 -215.208 -535)" d="M 6123.97,8272.07 L 6103.97,8260.53 L 6623.12,7960.79 L 6633.58,7966.3 L 6633.58,7977.85 L 6123.97,8272.07 Z " />
<path stroke="transparent" fill="#000000" transform="matrix(0.0833333 0 0 0.0833333 -215.208 -535)" d="M 6103.97,8260.53 L 6123.97,8272.07 L 6123.97,8860 L 6113.97,8866.3 L 6103.97,8860.53 L 6103.97,8260.53 Z " />
<path stroke="transparent" fill="#000000" transform="matrix(0.0833333 0 0 0.0833333 -215.208 -535)" d="M 6113.51,8878.11 L 6113.97,8866.3 L 6123.97,8860 L 6685.61,9124.72 L 6585.42,9205.65 L 6113.51,8878.11 Z " />
<path stroke="transparent" fill="#000000" transform="matrix(0.0833333 0 0 0.0833333 -215.208 -535)" d="M 6585.42,9205.65 L 6685.61,9124.72 L 7143.2,8860.53 L 7163.2,8872.07 L 6585.42,9205.65 Z " />
<path stroke="transparent" fill="#000000" transform="matrix(0.0833333 0 0 0.0833333 -215.208 -535)" d="M 7163.2,8872.07 L 7143.2,8860.53 L 7143.2,8272.07 L 7153.2,8266.3 L 7163.2,8272.72 L 7163.2,8872.07 Z " />
<path stroke="transparent" fill="#000000" transform="matrix(0.0833333 0 0 0.0833333 -215.208 -535)" d="M 7152.64,8254.43 L 7153.2,8266.3 L 7143.2,8272.07 L 6633.58,7977.85 L 6633.58,7966.3 L 6644.04,7960.79 L 7152.64,8254.43 Z " />
<path stroke="transparent" fill="#000000" transform="matrix(0.0833333 0 0 0.0833333 -215.208 -535)" d="M 6644.04,7960.79 L 6633.58,7966.3 L 6623.12,7960.79 L 6575.42,7388.33 L 6695.61,7342.04 L 6644.04,7960.79 Z " />
<path stroke="transparent" fill="#000000" transform="matrix(0.0833333 0 0 0.0833333 -215.208 -535)" d="M 6191,7163.89 L 6201,7146.57 L 6638.58,7399.21 L 6628.58,7416.53 L 6191,7163.89 Z " />
<path stroke="transparent" fill="#000000" transform="matrix(0.0833333 0 0 0.0833333 -215.208 -535)" d="M 6227,7101.54 L 6237,7084.22 L 6674.58,7336.86 L 6664.58,7354.18 L 6227,7101.54 Z " />
<path stroke="transparent" fill="#000000" transform="matrix(0.0833333 0 0 0.0833333 -215.208 -535)" d="M 6695.61,7342.04 L 6575.42,7388.33 L 7048.6,7115.15 L 7058.6,7132.47 L 6695.61,7342.04 Z " />
<path stroke="transparent" fill="#000000" transform="matrix(0.0833333 0 0 0.0833333 -215.208 -535)" d="M 7163.2,6961.13 L 7143.2,6961.13 L 7143.2,6466.3 L 7163.2,6466.3 L 7163.2,6961.13 Z " />
<text x="0" y="0" stroke="transparent" fill="#000000" transform="matrix(0.0833333 0 0 0.0833333 417.693 135.358)" style="font:normal normal normal 200px 'Arial'" >
OH</text>
<text x="0" y="0" stroke="transparent" fill="#000000" transform="matrix(0.0833333 0 0 0.0833333 147.99 86.451)" style="font:normal normal normal 200px 'Arial'" >
NH</text>
<text x="0" y="0" stroke="transparent" fill="#000000" transform="matrix(0.0833333 0 0 0.0833333 201.686 210.358)" style="font:normal normal normal 200px 'Arial'" >
N</text>
<text x="0" y="0" stroke="transparent" fill="#000000" transform="matrix(0.0833333 0 0 0.0833333 287.789 60.3584)" style="font:normal normal normal 200px 'Arial'" >
O</text>
<text x="0" y="0" stroke="transparent" fill="#000000" transform="matrix(0.0833333 0 0 0.0833333 374.392 60.3584)" style="font:normal normal normal 200px 'Arial'" >
O</text>
</svg>
