<?xml version="1.0" standalone="no" ?>
<!DOCTYPE svg PUBLIC "-//W3C//DTD SVG 1.1//EN" "http://www.w3.org/Graphics/SVG/1.1/DTD/svg11.dtd">
<svg width="219px" height="198px" viewBox="0 0 219 198" style="background-color: #ffffff00" xmlns="http://www.w3.org/2000/svg" xmlns:xlink="http://www.w3.org/1999/xlink" version="1.1" >
<text x="0" y="0" stroke="transparent" fill="#000000" transform="matrix(0.0666667 0 0 0.0666667 32.7907 54.5772)" style="font:normal normal normal 200px 'Arial'" >
O</text>
<text x="0" y="0" stroke="transparent" fill="#000000" transform="matrix(0.0666667 0 0 0.0666667 206.396 74.5672)" style="font:normal normal normal 200px 'Arial'" >
H</text>
<text x="0" y="0" stroke="transparent" fill="#000000" transform="matrix(0.0666667 0 0 0.0666667 171.357 14.5692)" style="font:normal normal normal 200px 'Arial'" >
O</text>
<text x="0" y="0" stroke="transparent" fill="#000000" transform="matrix(0.0666667 0 0 0.0666667 32.7907 134.573)" style="font:normal normal normal 200px 'Arial'" >
O</text>
<text x="0" y="0" stroke="transparent" fill="#000000" transform="matrix(0.0666667 0 0 0.0666667 67.4341 194.575)" style="font:normal normal normal 200px 'Arial'" >
O</text>
<path stroke="transparent" fill="#000000" transform="matrix(0.0666667 0 0 0.0666667 -239.425 -214)" d="M 5200.48,3939.05 L 5200.49,3962.14 L 4690.89,4256.4 L 4680.89,4250.63 L 4680.89,4239.08 L 5200.48,3939.05 Z " />
<path stroke="transparent" fill="#000000" transform="matrix(0.0666667 0 0 0.0666667 -239.425 -214)" d="M 5200.49,3962.14 L 5200.48,3939.05 L 5720.14,4238.96 L 5720.14,4250.51 L 5710.14,4256.28 L 5200.49,3962.14 Z " />
<path stroke="transparent" fill="#000000" transform="matrix(0.0666667 0 0 0.0666667 -239.425 -214)" d="M 5195.5,4042.39 L 5205.49,4025.07 L 5653.14,4283.43 L 5643.14,4300.75 L 5195.5,4042.39 Z " />
<path stroke="transparent" fill="#000000" transform="matrix(0.0666667 0 0 0.0666667 -239.425 -214)" d="M 4670.89,4256.4 L 4680.89,4250.63 L 4690.89,4256.4 L 4690.89,4844.8 L 4680.89,4850.57 L 4670.89,4844.8 L 4670.89,4256.4 Z " />
<path stroke="transparent" fill="#000000" transform="matrix(0.0666667 0 0 0.0666667 -239.425 -214)" d="M 4742.89,4292.19 L 4762.89,4292.19 L 4762.89,4809 L 4742.89,4809 L 4742.89,4292.19 Z " />
<path stroke="transparent" fill="#000000" transform="matrix(0.0666667 0 0 0.0666667 -239.425 -214)" d="M 5710.14,4256.28 L 5720.14,4250.51 L 5730.14,4256.28 L 5730.2,4856.34 L 5710.2,4844.8 L 5710.14,4256.28 Z " />
<path stroke="transparent" fill="#000000" transform="matrix(0.0666667 0 0 0.0666667 -239.425 -214)" d="M 4680.89,4862.12 L 4680.89,4850.57 L 4690.89,4844.8 L 5200.54,5139.05 L 5200.54,5162.15 L 4680.89,4862.12 Z " />
<path stroke="transparent" fill="#000000" transform="matrix(0.0666667 0 0 0.0666667 -239.425 -214)" d="M 5710.2,4844.8 L 5730.2,4856.34 L 5200.54,5162.15 L 5200.54,5139.05 L 5710.2,4844.8 Z " />
<path stroke="transparent" fill="#000000" transform="matrix(0.0666667 0 0 0.0666667 -239.425 -214)" d="M 5643.19,4800.34 L 5653.19,4817.66 L 5205.54,5076.11 L 5195.54,5058.79 L 5643.19,4800.34 Z " />
<path stroke="transparent" fill="#000000" transform="matrix(0.0666667 0 0 0.0666667 -239.425 -214)" d="M 4680.89,4239.08 L 4680.89,4250.63 L 4670.89,4256.4 L 4256.28,4017.07 L 4266.28,3999.75 L 4680.89,4239.08 Z " />
<path stroke="transparent" fill="#000000" transform="matrix(0.0666667 0 0 0.0666667 -239.425 -214)" d="M 5730.14,4256.28 L 5720.14,4250.51 L 5720.14,4238.96 L 6239.73,3938.99 L 6239.73,3962.08 L 5730.14,4256.28 Z " />
<path stroke="transparent" fill="#000000" transform="matrix(0.0666667 0 0 0.0666667 -239.425 -214)" d="M 6239.73,3962.08 L 6239.73,3938.99 L 6661.22,4182.33 L 6651.22,4199.65 L 6239.73,3962.08 Z " />
<path stroke="transparent" fill="#000000" transform="matrix(0.0666667 0 0 0.0666667 -239.425 -214)" d="M 6285.73,3971.32 L 6265.73,3971.32 L 6265.73,3470.37 L 6285.73,3470.37 L 6285.73,3971.32 Z " />
<path stroke="transparent" fill="#000000" transform="matrix(0.0666667 0 0 0.0666667 -239.425 -214)" d="M 6213.73,3971.32 L 6193.73,3971.32 L 6193.73,3470.37 L 6213.73,3470.37 L 6213.73,3971.32 Z " />
<path stroke="transparent" fill="#000000" transform="matrix(0.0666667 0 0 0.0666667 -239.425 -214)" d="M 3644.57,4257.51 L 3634.65,4240.15 L 4056.47,3999.03 L 4066.4,4016.39 L 3644.57,4257.51 Z " />
<path stroke="transparent" fill="#000000" transform="matrix(0.0666667 0 0 0.0666667 -239.425 -214)" d="M 4258.86,5105.78 L 4248.86,5088.46 L 4670.89,4844.8 L 4680.89,4850.57 L 4680.89,4862.12 L 4258.86,5105.78 Z " />
<path stroke="transparent" fill="#000000" transform="matrix(0.0666667 0 0 0.0666667 -239.425 -214)" d="M 4171.24,5756.37 L 4151.24,5744.83 L 4151.24,5270.43 L 4171.24,5270.43 L 4171.24,5756.37 Z " />
<path stroke="transparent" fill="#000000" transform="matrix(0.0666667 0 0 0.0666667 -239.425 -214)" d="M 3646.65,6059.29 L 3636.65,6041.97 L 4151.24,5744.83 L 4171.24,5756.37 L 3646.65,6059.29 Z " />
<path stroke="transparent" fill="#000000" transform="matrix(0.0666667 0 0 0.0666667 -239.425 -214)" d="M 4611.28,5957.31 L 4601.28,5974.64 L 4156.24,5717.69 L 4166.24,5700.37 L 4611.28,5957.31 Z " />
<path stroke="transparent" fill="#000000" transform="matrix(0.0666667 0 0 0.0666667 -239.425 -214)" d="M 4575.27,6019.67 L 4565.27,6036.99 L 4120.24,5780.05 L 4130.24,5762.73 L 4575.27,6019.67 Z " />
</svg>
