<?xml version="1.0" standalone="no" ?>
<!DOCTYPE svg PUBLIC "-//W3C//DTD SVG 1.1//EN" "http://www.w3.org/Graphics/SVG/1.1/DTD/svg11.dtd">
<svg width="609px" height="383px" viewBox="0 0 609 383" style="background-color: #ffffff00" xmlns="http://www.w3.org/2000/svg" xmlns:xlink="http://www.w3.org/1999/xlink" version="1.1" >
<text x="0" y="0" stroke="transparent" fill="#000000" transform="matrix(0.0833333 0 0 0.0833333 361.876 118.354)" style="font:normal normal normal 200px 'Arial'" >
O</text>
<text x="0" y="0" stroke="transparent" fill="#000000" transform="matrix(0.0833333 0 0 0.0833333 491.778 93.3558)" style="font:normal normal normal 200px 'Arial'" >
OH</text>
<text x="0" y="0" stroke="transparent" fill="#000000" transform="matrix(0.0833333 0 0 0.0833333 405.178 243.351)" style="font:normal normal normal 200px 'Arial'" >
OH</text>
<text x="0" y="0" stroke="transparent" fill="#000000" transform="matrix(0.0833333 0 0 0.0833333 318.576 193.351)" style="font:normal normal normal 200px 'Arial'" >
O</text>
<text x="0" y="0" stroke="transparent" fill="#000000" transform="matrix(0.0833333 0 0 0.0833333 318.575 93.3535)" style="font:normal normal normal 200px 'Arial'" >
O</text>
<text x="0" y="0" stroke="transparent" fill="#000000" transform="matrix(0.0833333 0 0 0.0833333 231.972 243.354)" style="font:normal normal normal 200px 'Arial'" >
O</text>
<text x="0" y="0" stroke="transparent" fill="#000000" transform="matrix(0.0833333 0 0 0.0833333 349.838 18.3558)" style="font:normal normal normal 200px 'Arial'" >
HO</text>
<text x="0" y="0" stroke="transparent" fill="#000000" transform="matrix(0.0833333 0 0 0.0833333 491.78 193.354)" style="font:normal normal normal 200px 'Arial'" >
O</text>
<text x="0" y="0" stroke="transparent" fill="#000000" transform="matrix(0.0833333 0 0 0.0833333 451.328 272.739)" style="font:normal normal normal 200px 'Arial'" >
O</text>
<text x="0" y="0" stroke="transparent" fill="#000000" transform="matrix(0.0833333 0 0 0.0833333 578.623 378.984)" style="font:normal normal normal 200px 'Arial'" >
OH</text>
<text x="0" y="0" stroke="transparent" fill="#000000" transform="matrix(0.0833333 0 0 0.0833333 499.515 370.017)" style="font:normal normal normal 200px 'Arial'" >
HO</text>
<text x="0" y="0" stroke="transparent" fill="#000000" transform="matrix(0.0833333 0 0 0.0833333 579.783 257.291)" style="font:normal normal normal 200px 'Arial'" >
OH</text>
<path stroke="transparent" fill="#000000" transform="matrix(0.0833333 0 0 0.0833333 -90.5 -183)" d="M 6015.68,3232.72 L 6026.14,3238.22 L 6026.14,3249.77 L 5604.13,3493.43 L 5594.13,3476.11 L 6015.68,3232.72 Z " />
<path stroke="transparent" fill="#000000" transform="matrix(0.0833333 0 0 0.0833333 -90.5 -183)" d="M 6545.19,3526.35 L 6545.75,3538.22 L 6535.75,3544 L 6026.14,3249.77 L 6026.14,3238.22 L 6036.6,3232.72 L 6545.19,3526.35 Z " />
<path stroke="transparent" fill="#000000" transform="matrix(0.0833333 0 0 0.0833333 -90.5 -183)" d="M 6555.74,4144.02 L 6535.74,4132.47 L 6535.75,3544 L 6545.75,3538.22 L 6555.75,3544.65 L 6555.74,4144.02 Z " />
<path stroke="transparent" fill="#000000" transform="matrix(0.0833333 0 0 0.0833333 -90.5 -183)" d="M 6036.67,4443.72 L 6026.12,4438.26 L 6026.12,4426.71 L 6535.74,4132.47 L 6555.74,4144.02 L 6036.67,4443.72 Z " />
<path stroke="transparent" fill="#000000" transform="matrix(0.0833333 0 0 0.0833333 -90.5 -183)" d="M 5496.5,4144.03 L 5516.5,4132.49 L 6026.12,4426.71 L 6026.12,4438.26 L 6015.56,4443.72 L 5496.5,4144.03 Z " />
<path stroke="transparent" fill="#000000" transform="matrix(0.0833333 0 0 0.0833333 -90.5 -183)" d="M 5516.5,4132.49 L 5496.5,4144.03 L 5496.51,3658.08 L 5516.51,3658.08 L 5516.5,4132.49 Z " />
<path stroke="transparent" fill="#000000" transform="matrix(0.0833333 0 0 0.0833333 -90.5 -183)" d="M 6935.74,3243.81 L 6995.73,3347.73 L 6555.75,3544.65 L 6545.75,3538.22 L 6545.19,3526.35 L 6935.74,3243.81 Z " />
<path stroke="transparent" fill="#000000" transform="matrix(0.0833333 0 0 0.0833333 -90.5 -183)" d="M 6086.14,4933.05 L 5966.14,4933.05 L 6015.56,4443.72 L 6026.12,4438.26 L 6036.67,4443.72 L 6086.14,4933.05 Z " />
<path stroke="transparent" fill="#000000" transform="matrix(0.0833333 0 0 0.0833333 -90.5 -183)" d="M 3957.67,4444.01 L 3947.67,4438.23 L 3947.67,4426.69 L 4457.3,4132.44 L 4467.3,4138.22 L 4467.3,4149.76 L 3957.67,4444.01 Z " />
<path stroke="transparent" fill="#000000" transform="matrix(0.0833333 0 0 0.0833333 -90.5 -183)" d="M 3418.05,4144.01 L 3438.06,4132.46 L 3947.67,4426.69 L 3947.67,4438.23 L 3937.67,4444.01 L 3418.05,4144.01 Z " />
<path stroke="transparent" fill="#000000" transform="matrix(0.0833333 0 0 0.0833333 -90.5 -183)" d="M 3495.06,4105.33 L 3505.06,4088.01 L 3952.67,4346.44 L 3942.67,4363.76 L 3495.06,4105.33 Z " />
<path stroke="transparent" fill="#000000" transform="matrix(0.0833333 0 0 0.0833333 -90.5 -183)" d="M 3418.07,3543.99 L 3428.07,3538.22 L 3438.07,3543.99 L 3438.06,4132.46 L 3418.05,4144.01 L 3418.07,3543.99 Z " />
<path stroke="transparent" fill="#000000" transform="matrix(0.0833333 0 0 0.0833333 -90.5 -183)" d="M 3947.66,3226.71 L 3947.65,3249.81 L 3438.07,3543.99 L 3428.07,3538.22 L 3428.07,3526.67 L 3947.66,3226.71 Z " />
<path stroke="transparent" fill="#000000" transform="matrix(0.0833333 0 0 0.0833333 -90.5 -183)" d="M 3942.65,3312.73 L 3952.65,3330.05 L 3505.06,3588.44 L 3495.06,3571.12 L 3942.65,3312.73 Z " />
<path stroke="transparent" fill="#000000" transform="matrix(0.0833333 0 0 0.0833333 -90.5 -183)" d="M 4467.27,3526.71 L 4467.27,3538.26 L 4457.27,3544.03 L 3947.65,3249.81 L 3947.66,3226.71 L 4467.27,3526.71 Z " />
<path stroke="transparent" fill="#000000" transform="matrix(0.0833333 0 0 0.0833333 -90.5 -183)" d="M 4457.27,3544.03 L 4467.27,3538.26 L 4477.27,3544.03 L 4477.3,4132.44 L 4467.3,4138.22 L 4457.3,4132.44 L 4457.27,3544.03 Z " />
<path stroke="transparent" fill="#000000" transform="matrix(0.0833333 0 0 0.0833333 -90.5 -183)" d="M 4385.28,3579.83 L 4405.28,3579.83 L 4405.3,4096.65 L 4385.3,4096.65 L 4385.28,3579.83 Z " />
<path stroke="transparent" fill="#000000" transform="matrix(0.0833333 0 0 0.0833333 -90.5 -183)" d="M 4467.3,4149.76 L 4467.3,4138.22 L 4477.3,4132.44 L 4899.29,4376.08 L 4889.29,4393.4 L 4467.3,4149.76 Z " />
<path stroke="transparent" fill="#000000" transform="matrix(0.0833333 0 0 0.0833333 -90.5 -183)" d="M 4976.91,2638.22 L 4996.91,2638.22 L 4996.9,3133.08 L 4976.9,3133.08 L 4976.91,2638.22 Z " />
<path stroke="transparent" fill="#000000" transform="matrix(0.0833333 0 0 0.0833333 -90.5 -183)" d="M 4882.29,3287.09 L 4892.29,3304.41 L 4477.27,3544.03 L 4467.27,3538.26 L 4467.27,3526.71 L 4882.29,3287.09 Z " />
<path stroke="transparent" fill="#000000" transform="matrix(0.0833333 0 0 0.0833333 -90.5 -183)" d="M 3433.07,5346.87 L 3423.07,5329.55 L 3843.05,5087.09 L 3853.05,5104.41 L 3433.07,5346.87 Z " />
<path stroke="transparent" fill="#000000" transform="matrix(0.0833333 0 0 0.0833333 -90.5 -183)" d="M 3957.66,4933.09 L 3937.66,4933.09 L 3937.67,4444.01 L 3947.67,4438.23 L 3957.67,4444.01 L 3957.66,4933.09 Z " />
<path stroke="transparent" fill="#000000" transform="matrix(0.0833333 0 0 0.0833333 -90.5 -183)" d="M 2388.82,3549.78 L 2388.82,3526.69 L 2908.45,3226.67 L 2908.45,3249.76 L 2388.82,3549.78 Z " />
<path stroke="transparent" fill="#000000" transform="matrix(0.0833333 0 0 0.0833333 -90.5 -183)" d="M 2429.83,3609.25 L 2419.83,3591.93 L 2903.45,3312.7 L 2913.45,3330.02 L 2429.83,3609.25 Z " />
<path stroke="transparent" fill="#000000" transform="matrix(0.0833333 0 0 0.0833333 -90.5 -183)" d="M 1869.21,3249.78 L 1869.21,3226.69 L 2388.82,3526.69 L 2388.82,3549.78 L 1869.21,3249.78 Z " />
<path stroke="transparent" fill="#000000" transform="matrix(0.0833333 0 0 0.0833333 -90.5 -183)" d="M 2908.45,3249.76 L 2908.45,3226.67 L 3428.07,3526.67 L 3428.07,3538.22 L 3418.07,3543.99 L 2908.45,3249.76 Z " />
<path stroke="transparent" fill="#000000" transform="matrix(0.0833333 0 0 0.0833333 -90.5 -183)" d="M 5109.53,4436.71 L 5049.53,4332.78 L 5067.99,4324.76 L 5125.71,4424.74 L 5109.53,4436.71 Z " />
<path stroke="transparent" fill="#000000" transform="matrix(0.0833333 0 0 0.0833333 -90.5 -183)" d="M 5157.96,4400.88 L 5104.78,4308.76 L 5123.24,4300.73 L 5174.14,4388.91 L 5157.96,4400.88 Z " />
<path stroke="transparent" fill="#000000" transform="matrix(0.0833333 0 0 0.0833333 -90.5 -183)" d="M 5206.39,4365.05 L 5160.03,4284.74 L 5178.49,4276.71 L 5222.57,4353.07 L 5206.39,4365.05 Z " />
<path stroke="transparent" fill="#000000" transform="matrix(0.0833333 0 0 0.0833333 -90.5 -183)" d="M 5254.82,4329.22 L 5215.28,4260.72 L 5233.74,4252.69 L 5271.01,4317.24 L 5254.82,4329.22 Z " />
<path stroke="transparent" fill="#000000" transform="matrix(0.0833333 0 0 0.0833333 -90.5 -183)" d="M 5303.26,4293.38 L 5270.53,4236.69 L 5288.99,4228.67 L 5319.44,4281.41 L 5303.26,4293.38 Z " />
<path stroke="transparent" fill="#000000" transform="matrix(0.0833333 0 0 0.0833333 -90.5 -183)" d="M 5351.69,4257.55 L 5325.78,4212.67 L 5344.24,4204.64 L 5367.87,4245.58 L 5351.69,4257.55 Z " />
<path stroke="transparent" fill="#000000" transform="matrix(0.0833333 0 0 0.0833333 -90.5 -183)" d="M 5400.12,4221.72 L 5381.02,4188.65 L 5399.48,4180.62 L 5416.3,4209.75 L 5400.12,4221.72 Z " />
<path stroke="transparent" fill="#000000" transform="matrix(0.0833333 0 0 0.0833333 -90.5 -183)" d="M 5448.55,4185.89 L 5436.27,4164.62 L 5454.73,4156.6 L 5464.73,4173.92 L 5448.55,4185.89 Z " />
<path stroke="transparent" fill="#000000" transform="matrix(0.0833333 0 0 0.0833333 -90.5 -183)" d="M 5601.52,2404.68 L 5611.52,2387.36 L 6084.27,2660.3 L 5964.09,2614.01 L 5601.52,2404.68 Z " />
<path stroke="transparent" fill="#000000" transform="matrix(0.0833333 0 0 0.0833333 -90.5 -183)" d="M 5964.09,2614.01 L 6084.27,2660.3 L 6036.6,3232.72 L 6026.14,3238.22 L 6015.68,3232.72 L 5964.09,2614.01 Z " />
<path stroke="transparent" fill="#000000" transform="matrix(0.0833333 0 0 0.0833333 -90.5 -183)" d="M 7055.35,5033.16 L 7065.35,5038.26 L 7065.35,5050.62 L 6672.33,5336.12 L 6660.57,5319.93 L 7055.35,5033.16 Z " />
<path stroke="transparent" fill="#000000" transform="matrix(0.0833333 0 0 0.0833333 -90.5 -183)" d="M 7562.47,5387.06 L 7538.96,5394.7 L 7065.35,5050.62 L 7065.35,5038.26 L 7075.35,5033.16 L 7562.47,5387.06 Z " />
<path stroke="transparent" fill="#000000" transform="matrix(0.0833333 0 0 0.0833333 -90.5 -183)" d="M 7378.58,5953.19 L 7365.34,5961.56 L 7358.08,5951.56 L 7538.96,5394.7 L 7562.47,5387.06 L 7378.58,5953.19 Z " />
<path stroke="transparent" fill="#000000" transform="matrix(0.0833333 0 0 0.0833333 -90.5 -183)" d="M 6758.06,5971.55 L 6772.59,5951.55 L 7358.08,5951.56 L 7365.34,5961.56 L 7363.99,5971.56 L 6758.06,5971.55 Z " />
<path stroke="transparent" fill="#000000" transform="matrix(0.0833333 0 0 0.0833333 -90.5 -183)" d="M 6772.59,5951.55 L 6758.06,5971.55 L 6608.06,5509.8 L 6627.08,5503.62 L 6772.59,5951.55 Z " />
<path stroke="transparent" fill="#000000" transform="matrix(0.0833333 0 0 0.0833333 -90.5 -183)" d="M 8089.73,6560.9 L 8070.41,6566.08 L 7959.17,6150.79 L 7946.24,6025.23 L 8089.73,6560.9 Z " />
<path stroke="transparent" fill="#000000" transform="matrix(0.0833333 0 0 0.0833333 -90.5 -183)" d="M 7946.24,6025.23 L 7959.17,6150.79 L 7363.99,5971.56 L 7365.34,5961.56 L 7378.58,5953.19 L 7946.24,6025.23 Z " />
<path stroke="transparent" fill="#000000" transform="matrix(0.0833333 0 0 0.0833333 -90.5 -183)" d="M 7373.25,6460.24 L 7253.9,6447.69 L 7258.25,6428.04 L 7373.08,6440.11 L 7373.25,6460.24 Z " />
<path stroke="transparent" fill="#000000" transform="matrix(0.0833333 0 0 0.0833333 -90.5 -183)" d="M 7372.76,6399.7 L 7266.98,6388.58 L 7271.32,6368.92 L 7372.59,6379.57 L 7372.76,6399.7 Z " />
<path stroke="transparent" fill="#000000" transform="matrix(0.0833333 0 0 0.0833333 -90.5 -183)" d="M 7372.26,6339.16 L 7280.05,6329.46 L 7284.39,6309.81 L 7372.1,6319.03 L 7372.26,6339.16 Z " />
<path stroke="transparent" fill="#000000" transform="matrix(0.0833333 0 0 0.0833333 -90.5 -183)" d="M 7371.77,6278.61 L 7293.12,6270.35 L 7297.46,6250.69 L 7371.61,6258.49 L 7371.77,6278.61 Z " />
<path stroke="transparent" fill="#000000" transform="matrix(0.0833333 0 0 0.0833333 -90.5 -183)" d="M 7371.28,6218.07 L 7306.19,6211.23 L 7310.54,6191.58 L 7371.12,6197.95 L 7371.28,6218.07 Z " />
<path stroke="transparent" fill="#000000" transform="matrix(0.0833333 0 0 0.0833333 -90.5 -183)" d="M 7370.79,6157.53 L 7319.26,6152.11 L 7323.61,6132.46 L 7370.62,6137.4 L 7370.79,6157.53 Z " />
<path stroke="transparent" fill="#000000" transform="matrix(0.0833333 0 0 0.0833333 -90.5 -183)" d="M 7370.3,6096.99 L 7332.33,6093 L 7336.68,6073.35 L 7370.13,6076.86 L 7370.3,6096.99 Z " />
<path stroke="transparent" fill="#000000" transform="matrix(0.0833333 0 0 0.0833333 -90.5 -183)" d="M 7369.8,6036.45 L 7345.41,6033.88 L 7349.75,6014.23 L 7369.64,6016.32 L 7369.8,6036.45 Z " />
<path stroke="transparent" fill="#000000" transform="matrix(0.0833333 0 0 0.0833333 -90.5 -183)" d="M 7996.37,5183.02 L 8033.45,5297.15 L 8013.71,5301.14 L 7978.06,5191.39 L 7996.37,5183.02 Z " />
<path stroke="transparent" fill="#000000" transform="matrix(0.0833333 0 0 0.0833333 -90.5 -183)" d="M 7942.22,5207.77 L 7975.08,5308.94 L 7955.35,5312.93 L 7923.91,5216.15 L 7942.22,5207.77 Z " />
<path stroke="transparent" fill="#000000" transform="matrix(0.0833333 0 0 0.0833333 -90.5 -183)" d="M 7888.07,5232.53 L 7916.72,5320.74 L 7896.99,5324.73 L 7869.76,5240.9 L 7888.07,5232.53 Z " />
<path stroke="transparent" fill="#000000" transform="matrix(0.0833333 0 0 0.0833333 -90.5 -183)" d="M 7833.91,5257.29 L 7858.36,5332.53 L 7838.63,5336.52 L 7815.6,5265.66 L 7833.91,5257.29 Z " />
<path stroke="transparent" fill="#000000" transform="matrix(0.0833333 0 0 0.0833333 -90.5 -183)" d="M 7779.76,5282.04 L 7800,5344.33 L 7780.26,5348.32 L 7761.45,5290.41 L 7779.76,5282.04 Z " />
<path stroke="transparent" fill="#000000" transform="matrix(0.0833333 0 0 0.0833333 -90.5 -183)" d="M 7725.61,5306.8 L 7741.63,5356.12 L 7721.9,5360.11 L 7707.3,5315.17 L 7725.61,5306.8 Z " />
<path stroke="transparent" fill="#000000" transform="matrix(0.0833333 0 0 0.0833333 -90.5 -183)" d="M 7671.46,5331.56 L 7683.27,5367.92 L 7663.54,5371.91 L 7653.15,5339.93 L 7671.46,5331.56 Z " />
<path stroke="transparent" fill="#000000" transform="matrix(0.0833333 0 0 0.0833333 -90.5 -183)" d="M 7617.3,5356.31 L 7624.91,5379.72 L 7605.17,5383.7 L 7598.99,5364.68 L 7617.3,5356.31 Z " />
<path stroke="transparent" fill="#000000" transform="matrix(0.0833333 0 0 0.0833333 -90.5 -183)" d="M 7075.35,5033.16 L 7065.35,5038.26 L 7055.35,5033.16 L 7055.35,4558.08 L 7075.35,4558.08 L 7075.35,5033.16 Z " />
<path stroke="transparent" fill="#000000" transform="matrix(0.0833333 0 0 0.0833333 -90.5 -183)" d="M 7002.74,4332.81 L 6942.74,4436.73 L 6926.56,4424.76 L 6984.28,4324.78 L 7002.74,4332.81 Z " />
<path stroke="transparent" fill="#000000" transform="matrix(0.0833333 0 0 0.0833333 -90.5 -183)" d="M 6947.49,4308.78 L 6894.3,4400.89 L 6878.12,4388.92 L 6929.03,4300.75 L 6947.49,4308.78 Z " />
<path stroke="transparent" fill="#000000" transform="matrix(0.0833333 0 0 0.0833333 -90.5 -183)" d="M 6892.23,4284.75 L 6845.87,4365.06 L 6829.69,4353.09 L 6873.77,4276.72 L 6892.23,4284.75 Z " />
<path stroke="transparent" fill="#000000" transform="matrix(0.0833333 0 0 0.0833333 -90.5 -183)" d="M 6836.98,4260.72 L 6797.43,4329.22 L 6781.25,4317.25 L 6818.52,4252.7 L 6836.98,4260.72 Z " />
<path stroke="transparent" fill="#000000" transform="matrix(0.0833333 0 0 0.0833333 -90.5 -183)" d="M 6781.73,4236.7 L 6749,4293.39 L 6732.82,4281.41 L 6763.27,4228.67 L 6781.73,4236.7 Z " />
<path stroke="transparent" fill="#000000" transform="matrix(0.0833333 0 0 0.0833333 -90.5 -183)" d="M 6726.48,4212.67 L 6700.56,4257.55 L 6684.38,4245.58 L 6708.02,4204.64 L 6726.48,4212.67 Z " />
<path stroke="transparent" fill="#000000" transform="matrix(0.0833333 0 0 0.0833333 -90.5 -183)" d="M 6671.22,4188.64 L 6652.13,4221.71 L 6635.95,4209.74 L 6652.76,4180.61 L 6671.22,4188.64 Z " />
<path stroke="transparent" fill="#000000" transform="matrix(0.0833333 0 0 0.0833333 -90.5 -183)" d="M 6615.97,4164.61 L 6603.69,4185.88 L 6587.51,4173.91 L 6597.51,4156.58 L 6615.97,4164.61 Z " />
<text x="0" y="0" stroke="transparent" fill="#000000" transform="matrix(0.0833333 0 0 0.0833333 3.4298 118.352)" style="font:normal normal normal 200px 'Arial'" >
HO</text>
<path stroke="transparent" fill="#000000" transform="matrix(0.0833333 0 0 0.0833333 -90.5 -183)" d="M 1447.2,3493.42 L 1437.2,3476.1 L 1869.21,3226.69 L 1869.21,3249.78 L 1447.2,3493.42 Z " />
</svg>
