<?xml version="1.0" standalone="no" ?>
<!DOCTYPE svg PUBLIC "-//W3C//DTD SVG 1.1//EN" "http://www.w3.org/Graphics/SVG/1.1/DTD/svg11.dtd">
<svg width="466px" height="558px" viewBox="0 0 466 558" style="background-color: #ffffff00" xmlns="http://www.w3.org/2000/svg" xmlns:xlink="http://www.w3.org/1999/xlink" version="1.1" >
<text x="0" y="0" stroke="transparent" fill="#000000" transform="matrix(0.0833333 0 0 0.0833333 264.27 29.3938)" style="font:normal normal normal 200px 'Arial'" >
O</text>
<text x="0" y="0" stroke="transparent" fill="#000000" transform="matrix(0.0833333 0 0 0.0833333 307.572 104.395)" style="font:normal normal normal 200px 'Arial'" >
O</text>
<text x="0" y="0" stroke="transparent" fill="#000000" transform="matrix(0.0833333 0 0 0.0833333 264.27 179.393)" style="font:normal normal normal 200px 'Arial'" >
O</text>
<text x="0" y="0" stroke="transparent" fill="#000000" transform="matrix(0.0833333 0 0 0.0833333 307.57 254.391)" style="font:normal normal normal 200px 'Arial'" >
O</text>
<text x="0" y="0" stroke="transparent" fill="#000000" transform="matrix(0.0833333 0 0 0.0833333 307.57 354.392)" style="font:normal normal normal 200px 'Arial'" >
O</text>
<text x="0" y="0" stroke="transparent" fill="#000000" transform="matrix(0.0833333 0 0 0.0833333 264.268 429.391)" style="font:normal normal normal 200px 'Arial'" >
O</text>
<text x="0" y="0" stroke="transparent" fill="#000000" transform="matrix(0.0833333 0 0 0.0833333 220.968 554.391)" style="font:normal normal normal 200px 'Arial'" >
OH</text>
<text x="0" y="0" stroke="transparent" fill="#000000" transform="matrix(0.0833333 0 0 0.0833333 307.569 554.39)" style="font:normal normal normal 200px 'Arial'" >
OH</text>
<text x="0" y="0" stroke="transparent" fill="#000000" transform="matrix(0.0833333 0 0 0.0833333 394.172 504.39)" style="font:normal normal normal 200px 'Arial'" >
OH</text>
<text x="0" y="0" stroke="transparent" fill="#000000" transform="matrix(0.0833333 0 0 0.0833333 394.172 404.39)" style="font:normal normal normal 200px 'Arial'" >
OH</text>
<text x="0" y="0" stroke="transparent" fill="#000000" transform="matrix(0.0833333 0 0 0.0833333 437.474 279.392)" style="font:normal normal normal 200px 'Arial'" >
OH</text>
<text x="0" y="0" stroke="transparent" fill="#000000" transform="matrix(0.0833333 0 0 0.0833333 437.474 179.391)" style="font:normal normal normal 200px 'Arial'" >
OH</text>
<text x="0" y="0" stroke="transparent" fill="#000000" transform="matrix(0.0833333 0 0 0.0833333 350.872 129.393)" style="font:normal normal normal 200px 'Arial'" >
OH</text>
<text x="0" y="0" stroke="transparent" fill="#000000" transform="matrix(0.0833333 0 0 0.0833333 91.0647 29.3931)" style="font:normal normal normal 200px 'Arial'" >
O</text>
<path stroke="transparent" fill="#000000" transform="matrix(0.0833333 0 0 0.0833333 -173.5 -137)" d="M 5426.28,1985.14 L 5436.28,1967.82 L 5855.85,2210.05 L 5845.85,2227.37 L 5426.28,1985.14 Z " />
<path stroke="transparent" fill="#000000" transform="matrix(0.0833333 0 0 0.0833333 -173.5 -137)" d="M 4821.63,2224.5 L 4811.63,2218.73 L 4811.63,2207.18 L 5226.64,1967.57 L 5236.64,1984.89 L 4821.63,2224.5 Z " />
<path stroke="transparent" fill="#000000" transform="matrix(0.0833333 0 0 0.0833333 -173.5 -137)" d="M 4292.02,1930.29 L 4292.02,1907.19 L 4811.63,2207.18 L 4811.63,2218.73 L 4801.63,2224.5 L 4292.02,1930.29 Z " />
<path stroke="transparent" fill="#000000" transform="matrix(0.0833333 0 0 0.0833333 -173.5 -137)" d="M 4287.02,2010.54 L 4297.02,1993.21 L 4744.63,2251.63 L 4734.63,2268.95 L 4287.02,2010.54 Z " />
<path stroke="transparent" fill="#000000" transform="matrix(0.0833333 0 0 0.0833333 -173.5 -137)" d="M 3782.4,2224.51 L 3772.4,2218.74 L 3772.4,2207.19 L 4292.02,1907.19 L 4292.02,1930.29 L 3782.4,2224.51 Z " />
<path stroke="transparent" fill="#000000" transform="matrix(0.0833333 0 0 0.0833333 -173.5 -137)" d="M 3782.4,2812.95 L 3772.4,2818.73 L 3762.4,2812.95 L 3762.4,2224.51 L 3772.4,2218.74 L 3782.4,2224.51 L 3782.4,2812.95 Z " />
<path stroke="transparent" fill="#000000" transform="matrix(0.0833333 0 0 0.0833333 -173.5 -137)" d="M 3854.4,2777.16 L 3834.4,2777.16 L 3834.4,2260.31 L 3854.4,2260.31 L 3854.4,2777.16 Z " />
<path stroke="transparent" fill="#000000" transform="matrix(0.0833333 0 0 0.0833333 -173.5 -137)" d="M 4292,3107.16 L 4292,3130.26 L 3772.4,2830.27 L 3772.4,2818.73 L 3782.4,2812.95 L 4292,3107.16 Z " />
<path stroke="transparent" fill="#000000" transform="matrix(0.0833333 0 0 0.0833333 -173.5 -137)" d="M 4801.62,2812.94 L 4811.62,2818.71 L 4811.62,2830.26 L 4292,3130.26 L 4292,3107.16 L 4801.62,2812.94 Z " />
<path stroke="transparent" fill="#000000" transform="matrix(0.0833333 0 0 0.0833333 -173.5 -137)" d="M 4734.62,2768.48 L 4744.62,2785.8 L 4297,3044.23 L 4287,3026.91 L 4734.62,2768.48 Z " />
<path stroke="transparent" fill="#000000" transform="matrix(0.0833333 0 0 0.0833333 -173.5 -137)" d="M 4821.62,2812.94 L 4811.62,2818.71 L 4801.62,2812.94 L 4801.63,2224.5 L 4811.63,2218.73 L 4821.63,2224.5 L 4821.62,2812.94 Z " />
<path stroke="transparent" fill="#000000" transform="matrix(0.0833333 0 0 0.0833333 -173.5 -137)" d="M 5341.25,3112.96 L 5321.25,3124.51 L 4811.62,2830.26 L 4811.62,2818.71 L 4821.62,2812.94 L 5341.25,3112.96 Z " />
<path stroke="transparent" fill="#000000" transform="matrix(0.0833333 0 0 0.0833333 -173.5 -137)" d="M 5728.26,2836.4 L 5738.26,2853.72 L 5300.25,3106.61 L 5290.25,3089.29 L 5728.26,2836.4 Z " />
<path stroke="transparent" fill="#000000" transform="matrix(0.0833333 0 0 0.0833333 -173.5 -137)" d="M 5764.26,2898.76 L 5774.26,2916.08 L 5336.25,3168.96 L 5326.25,3151.64 L 5764.26,2898.76 Z " />
<path stroke="transparent" fill="#000000" transform="matrix(0.0833333 0 0 0.0833333 -173.5 -137)" d="M 5341.24,3613.55 L 5321.24,3613.55 L 5321.25,3124.51 L 5341.25,3112.96 L 5341.24,3613.55 Z " />
<path stroke="transparent" fill="#000000" transform="matrix(0.0833333 0 0 0.0833333 -173.5 -137)" d="M 5401.28,3828.44 L 5461.27,3724.51 L 5851.41,4006.83 L 5850.85,4018.71 L 5840.85,4025.13 L 5401.28,3828.44 Z " />
<path stroke="transparent" fill="#000000" transform="matrix(0.0833333 0 0 0.0833333 -173.5 -137)" d="M 5860.84,4513.53 L 5840.84,4513.53 L 5840.85,4025.13 L 5850.85,4018.71 L 5860.85,4024.48 L 5860.84,4513.53 Z " />
<path stroke="transparent" fill="#000000" transform="matrix(0.0833333 0 0 0.0833333 -173.5 -137)" d="M 5945.88,4685.11 L 5955.88,4667.79 L 6370.45,4907.13 L 6370.45,4918.68 L 6359.99,4924.19 L 5945.88,4685.11 Z " />
<path stroke="transparent" fill="#000000" transform="matrix(0.0833333 0 0 0.0833333 -173.5 -137)" d="M 6428.62,5496.67 L 6308.44,5542.96 L 6359.99,4924.19 L 6370.45,4918.68 L 6380.9,4924.19 L 6428.62,5496.67 Z " />
<path stroke="transparent" fill="#000000" transform="matrix(0.0833333 0 0 0.0833333 -173.5 -137)" d="M 5948.46,5773.89 L 5938.46,5756.57 L 6308.44,5542.96 L 6428.62,5496.67 L 5948.46,5773.89 Z " />
<path stroke="transparent" fill="#000000" transform="matrix(0.0833333 0 0 0.0833333 -173.5 -137)" d="M 5790.84,5938.53 L 5910.84,5938.54 L 5861.4,6413.24 L 5850.84,6418.69 L 5840.27,6413.24 L 5790.84,5938.53 Z " />
<path stroke="transparent" fill="#000000" transform="matrix(0.0833333 0 0 0.0833333 -173.5 -137)" d="M 5428.84,6673.87 L 5418.84,6656.55 L 5840.27,6413.24 L 5850.84,6418.69 L 5850.84,6430.23 L 5428.84,6673.87 Z " />
<path stroke="transparent" fill="#000000" transform="matrix(0.0833333 0 0 0.0833333 -173.5 -137)" d="M 5321.22,6838.52 L 5341.22,6838.52 L 5341.21,7312.9 L 5331.21,7318.67 L 5321.21,7312.37 L 5321.22,6838.52 Z " />
<path stroke="transparent" fill="#000000" transform="matrix(0.0833333 0 0 0.0833333 -173.5 -137)" d="M 4821.6,7684.52 L 4801.6,7557.29 L 5321.21,7312.37 L 5331.21,7318.67 L 5331.67,7330.49 L 4821.6,7684.52 Z " />
<path stroke="transparent" fill="#000000" transform="matrix(0.0833333 0 0 0.0833333 -173.5 -137)" d="M 4821.61,8113.53 L 4801.61,8113.53 L 4801.6,7557.29 L 4821.6,7684.52 L 4821.61,8113.53 Z " />
<path stroke="transparent" fill="#000000" transform="matrix(0.0833333 0 0 0.0833333 -173.5 -137)" d="M 5331.67,7330.49 L 5331.21,7318.67 L 5341.21,7312.9 L 5850.84,7607.15 L 5850.84,7630.24 L 5331.67,7330.49 Z " />
<path stroke="transparent" fill="#000000" transform="matrix(0.0833333 0 0 0.0833333 -173.5 -137)" d="M 5910.83,8113.52 L 5790.83,8113.51 L 5793.1,8093.51 L 5908.56,8093.52 L 5910.83,8113.52 Z " />
<path stroke="transparent" fill="#000000" transform="matrix(0.0833333 0 0 0.0833333 -173.5 -137)" d="M 5904.02,8053.41 L 5797.65,8053.41 L 5799.92,8033.41 L 5901.75,8033.41 L 5904.02,8053.41 Z " />
<path stroke="transparent" fill="#000000" transform="matrix(0.0833333 0 0 0.0833333 -173.5 -137)" d="M 5897.2,7993.31 L 5804.47,7993.31 L 5806.74,7973.31 L 5894.93,7973.31 L 5897.2,7993.31 Z " />
<path stroke="transparent" fill="#000000" transform="matrix(0.0833333 0 0 0.0833333 -173.5 -137)" d="M 5890.38,7933.2 L 5811.29,7933.2 L 5813.56,7913.2 L 5888.11,7913.2 L 5890.38,7933.2 Z " />
<path stroke="transparent" fill="#000000" transform="matrix(0.0833333 0 0 0.0833333 -173.5 -137)" d="M 5883.56,7873.1 L 5818.11,7873.1 L 5820.38,7853.1 L 5881.29,7853.1 L 5883.56,7873.1 Z " />
<path stroke="transparent" fill="#000000" transform="matrix(0.0833333 0 0 0.0833333 -173.5 -137)" d="M 5876.74,7812.99 L 5824.93,7812.99 L 5827.2,7792.99 L 5874.48,7792.99 L 5876.74,7812.99 Z " />
<path stroke="transparent" fill="#000000" transform="matrix(0.0833333 0 0 0.0833333 -173.5 -137)" d="M 5869.93,7752.89 L 5831.75,7752.89 L 5834.02,7732.89 L 5867.66,7732.89 L 5869.93,7752.89 Z " />
<path stroke="transparent" fill="#000000" transform="matrix(0.0833333 0 0 0.0833333 -173.5 -137)" d="M 5863.11,7692.79 L 5838.57,7692.79 L 5840.84,7672.79 L 5860.84,7672.79 L 5863.11,7692.79 Z " />
<path stroke="transparent" fill="#000000" transform="matrix(0.0833333 0 0 0.0833333 -173.5 -137)" d="M 5850.84,7630.24 L 5850.84,7607.15 L 6360.46,7312.92 L 6370.46,7318.7 L 6369.9,7330.56 L 5850.84,7630.24 Z " />
<path stroke="transparent" fill="#000000" transform="matrix(0.0833333 0 0 0.0833333 -173.5 -137)" d="M 6827.44,7513.25 L 6767.44,7617.17 L 6369.9,7330.56 L 6370.46,7318.7 L 6380.46,7312.28 L 6827.44,7513.25 Z " />
<path stroke="transparent" fill="#000000" transform="matrix(0.0833333 0 0 0.0833333 -173.5 -137)" d="M 6380.46,7312.28 L 6370.46,7318.7 L 6360.46,7312.92 L 6360.44,6724.45 L 6380.44,6712.9 L 6380.46,7312.28 Z " />
<path stroke="transparent" fill="#000000" transform="matrix(0.0833333 0 0 0.0833333 -173.5 -137)" d="M 6380.44,6712.9 L 6360.44,6724.45 L 5850.84,6430.23 L 5850.84,6418.69 L 5861.4,6413.24 L 6380.44,6712.9 Z " />
<path stroke="transparent" fill="#000000" transform="matrix(0.0833333 0 0 0.0833333 -173.5 -137)" d="M 6760.45,6424.22 L 6820.45,6528.14 L 6801.97,6536.13 L 6744.29,6436.23 L 6760.45,6424.22 Z " />
<path stroke="transparent" fill="#000000" transform="matrix(0.0833333 0 0 0.0833333 -173.5 -137)" d="M 6713.03,6459.47 L 6766.22,6551.59 L 6747.74,6559.58 L 6696.87,6471.48 L 6713.03,6459.47 Z " />
<path stroke="transparent" fill="#000000" transform="matrix(0.0833333 0 0 0.0833333 -173.5 -137)" d="M 6665.6,6494.71 L 6711.98,6575.04 L 6693.5,6583.03 L 6649.44,6506.72 L 6665.6,6494.71 Z " />
<path stroke="transparent" fill="#000000" transform="matrix(0.0833333 0 0 0.0833333 -173.5 -137)" d="M 6618.17,6529.96 L 6657.74,6598.49 L 6639.26,6606.48 L 6602.01,6541.97 L 6618.17,6529.96 Z " />
<path stroke="transparent" fill="#000000" transform="matrix(0.0833333 0 0 0.0833333 -173.5 -137)" d="M 6570.75,6565.21 L 6603.5,6621.94 L 6585.02,6629.93 L 6554.59,6577.22 L 6570.75,6565.21 Z " />
<path stroke="transparent" fill="#000000" transform="matrix(0.0833333 0 0 0.0833333 -173.5 -137)" d="M 6523.32,6600.45 L 6549.26,6645.39 L 6530.78,6653.38 L 6507.16,6612.46 L 6523.32,6600.45 Z " />
<path stroke="transparent" fill="#000000" transform="matrix(0.0833333 0 0 0.0833333 -173.5 -137)" d="M 6475.89,6635.7 L 6495.02,6668.84 L 6476.54,6676.83 L 6459.73,6647.71 L 6475.89,6635.7 Z " />
<path stroke="transparent" fill="#000000" transform="matrix(0.0833333 0 0 0.0833333 -173.5 -137)" d="M 6428.46,6670.95 L 6440.78,6692.29 L 6422.3,6700.28 L 6412.3,6682.96 L 6428.46,6670.95 Z " />
<path stroke="transparent" fill="#000000" transform="matrix(0.0833333 0 0 0.0833333 -173.5 -137)" d="M 6380.9,4924.19 L 6370.45,4918.68 L 6370.45,4907.13 L 6880.06,4612.91 L 6900.06,4624.45 L 6380.9,4924.19 Z " />
<path stroke="transparent" fill="#000000" transform="matrix(0.0833333 0 0 0.0833333 -173.5 -137)" d="M 7347.07,4813.27 L 7287.07,4917.19 L 7270.89,4905.21 L 7328.61,4805.24 L 7347.07,4813.27 Z " />
<path stroke="transparent" fill="#000000" transform="matrix(0.0833333 0 0 0.0833333 -173.5 -137)" d="M 7291.82,4789.23 L 7238.63,4881.35 L 7222.45,4869.38 L 7273.36,4781.21 L 7291.82,4789.23 Z " />
<path stroke="transparent" fill="#000000" transform="matrix(0.0833333 0 0 0.0833333 -173.5 -137)" d="M 7236.56,4765.2 L 7190.2,4845.51 L 7174.02,4833.54 L 7218.1,4757.18 L 7236.56,4765.2 Z " />
<path stroke="transparent" fill="#000000" transform="matrix(0.0833333 0 0 0.0833333 -173.5 -137)" d="M 7181.31,4741.17 L 7141.76,4809.67 L 7125.58,4797.7 L 7162.85,4733.15 L 7181.31,4741.17 Z " />
<path stroke="transparent" fill="#000000" transform="matrix(0.0833333 0 0 0.0833333 -173.5 -137)" d="M 7126.05,4717.14 L 7093.32,4773.83 L 7077.14,4761.86 L 7107.6,4709.12 L 7126.05,4717.14 Z " />
<path stroke="transparent" fill="#000000" transform="matrix(0.0833333 0 0 0.0833333 -173.5 -137)" d="M 7070.8,4693.11 L 7044.89,4737.99 L 7028.71,4726.02 L 7052.34,4685.09 L 7070.8,4693.11 Z " />
<path stroke="transparent" fill="#000000" transform="matrix(0.0833333 0 0 0.0833333 -173.5 -137)" d="M 7015.55,4669.08 L 6996.45,4702.16 L 6980.27,4690.18 L 6997.09,4661.06 L 7015.55,4669.08 Z " />
<path stroke="transparent" fill="#000000" transform="matrix(0.0833333 0 0 0.0833333 -173.5 -137)" d="M 6960.29,4645.05 L 6948.01,4666.32 L 6931.83,4654.35 L 6941.83,4637.02 L 6960.29,4645.05 Z " />
<path stroke="transparent" fill="#000000" transform="matrix(0.0833333 0 0 0.0833333 -173.5 -137)" d="M 6900.06,4624.45 L 6880.06,4612.91 L 6880.07,4024.47 L 6890.07,4018.69 L 6900.07,4025.12 L 6900.06,4624.45 Z " />
<path stroke="transparent" fill="#000000" transform="matrix(0.0833333 0 0 0.0833333 -173.5 -137)" d="M 7280.08,3724.24 L 7340.08,3828.16 L 6900.07,4025.12 L 6890.07,4018.69 L 6889.51,4006.82 L 7280.08,3724.24 Z " />
<path stroke="transparent" fill="#000000" transform="matrix(0.0833333 0 0 0.0833333 -173.5 -137)" d="M 6889.51,4006.82 L 6890.07,4018.69 L 6880.07,4024.47 L 6370.46,3730.25 L 6370.46,3707.16 L 6889.51,4006.82 Z " />
<path stroke="transparent" fill="#000000" transform="matrix(0.0833333 0 0 0.0833333 -173.5 -137)" d="M 6370.46,3707.16 L 6370.46,3730.25 L 5860.85,4024.48 L 5850.85,4018.71 L 5851.41,4006.83 L 6370.46,3707.16 Z " />
<path stroke="transparent" fill="#000000" transform="matrix(0.0833333 0 0 0.0833333 -173.5 -137)" d="M 6310.47,3238.55 L 6430.47,3238.55 L 6428.12,3258.55 L 6312.81,3258.55 L 6310.47,3238.55 Z " />
<path stroke="transparent" fill="#000000" transform="matrix(0.0833333 0 0 0.0833333 -173.5 -137)" d="M 6317.27,3296.57 L 6423.66,3296.57 L 6421.31,3316.57 L 6319.62,3316.57 L 6317.27,3296.57 Z " />
<path stroke="transparent" fill="#000000" transform="matrix(0.0833333 0 0 0.0833333 -173.5 -137)" d="M 6324.08,3354.59 L 6416.85,3354.59 L 6414.5,3374.59 L 6326.43,3374.59 L 6324.08,3354.59 Z " />
<path stroke="transparent" fill="#000000" transform="matrix(0.0833333 0 0 0.0833333 -173.5 -137)" d="M 6330.89,3412.61 L 6410.04,3412.61 L 6407.7,3432.61 L 6333.23,3432.61 L 6330.89,3412.61 Z " />
<path stroke="transparent" fill="#000000" transform="matrix(0.0833333 0 0 0.0833333 -173.5 -137)" d="M 6337.69,3470.63 L 6403.23,3470.63 L 6400.89,3490.63 L 6340.04,3490.63 L 6337.69,3470.63 Z " />
<path stroke="transparent" fill="#000000" transform="matrix(0.0833333 0 0 0.0833333 -173.5 -137)" d="M 6344.5,3528.65 L 6396.43,3528.65 L 6394.08,3548.65 L 6346.85,3548.65 L 6344.5,3528.65 Z " />
<path stroke="transparent" fill="#000000" transform="matrix(0.0833333 0 0 0.0833333 -173.5 -137)" d="M 6351.31,3586.67 L 6389.62,3586.67 L 6387.27,3606.67 L 6353.65,3606.67 L 6351.31,3586.67 Z " />
<path stroke="transparent" fill="#000000" transform="matrix(0.0833333 0 0 0.0833333 -173.5 -137)" d="M 6358.12,3644.69 L 6382.81,3644.69 L 6380.46,3664.69 L 6360.46,3664.69 L 6358.12,3644.69 Z " />
<path stroke="transparent" fill="#000000" transform="matrix(0.0833333 0 0 0.0833333 -173.5 -137)" d="M 3252.78,3130.27 L 3252.78,3107.18 L 3762.4,2812.95 L 3772.4,2818.73 L 3772.4,2830.27 L 3252.78,3130.27 Z " />
<path stroke="transparent" fill="#000000" transform="matrix(0.0833333 0 0 0.0833333 -173.5 -137)" d="M 2723.17,2824.51 L 2743.17,2812.97 L 3252.78,3107.18 L 3252.78,3130.27 L 2723.17,2824.51 Z " />
<path stroke="transparent" fill="#000000" transform="matrix(0.0833333 0 0 0.0833333 -173.5 -137)" d="M 2800.17,2785.83 L 2810.17,2768.51 L 3257.78,3026.93 L 3247.78,3044.25 L 2800.17,2785.83 Z " />
<path stroke="transparent" fill="#000000" transform="matrix(0.0833333 0 0 0.0833333 -173.5 -137)" d="M 2723.16,2228.72 L 2733.16,2218.72 L 2743.16,2224.49 L 2743.17,2812.97 L 2723.17,2824.51 L 2723.16,2228.72 Z " />
<path stroke="transparent" fill="#000000" transform="matrix(0.0833333 0 0 0.0833333 -173.5 -137)" d="M 2424.54,1704.08 L 2441.86,1694.08 L 2736.82,2205.06 L 2733.16,2218.72 L 2715.84,2208.72 L 2424.54,1704.08 Z " />
<path stroke="transparent" fill="#000000" transform="matrix(0.0833333 0 0 0.0833333 -173.5 -137)" d="M 2133.17,2228.71 L 2133.17,2208.71 L 2715.84,2208.72 L 2733.16,2218.72 L 2723.16,2228.72 L 2133.17,2228.71 Z " />
<path stroke="transparent" fill="#000000" transform="matrix(0.0833333 0 0 0.0833333 -173.5 -137)" d="M 3148.17,1967.56 L 3158.17,1984.88 L 2743.16,2224.49 L 2733.16,2218.72 L 2736.82,2205.06 L 3148.17,1967.56 Z " />
<path stroke="transparent" fill="#000000" transform="matrix(0.0833333 0 0 0.0833333 -173.5 -137)" d="M 3347.81,1985.14 L 3357.81,1967.82 L 3772.4,2207.19 L 3772.4,2218.74 L 3762.4,2224.51 L 3347.81,1985.14 Z " />
</svg>
