<?xml version="1.0" standalone="no" ?>
<!DOCTYPE svg PUBLIC "-//W3C//DTD SVG 1.1//EN" "http://www.w3.org/Graphics/SVG/1.1/DTD/svg11.dtd">
<svg width="536px" height="453px" viewBox="0 0 536 453" style="background-color: #ffffff00" xmlns="http://www.w3.org/2000/svg" xmlns:xlink="http://www.w3.org/1999/xlink" version="1.1" >
<text x="0" y="0" stroke="transparent" fill="#000000" transform="matrix(0.0833333 0 0 0.0833333 204.383 377.043)" style="font:normal normal normal 200px 'Arial'" >
N</text>
<text x="0" y="0" stroke="transparent" fill="#000000" transform="matrix(0.0833333 0 0 0.0833333 248.223 430.491)" style="font:normal normal normal 200px 'Arial'" >
O</text>
<text x="0" y="0" stroke="transparent" fill="#000000" transform="matrix(0.0833333 0 0 0.0833333 344.393 353.024)" style="font:normal normal normal 200px 'Arial'" >
O</text>
<text x="0" y="0" stroke="transparent" fill="#000000" transform="matrix(0.0833333 0 0 0.0833333 409.168 331.673)" style="font:normal normal normal 200px 'Arial'" >
O</text>
<text x="0" y="0" stroke="transparent" fill="#000000" transform="matrix(0.0833333 0 0 0.0833333 392.256 205.424)" style="font:normal normal normal 200px 'Arial'" >
N</text>
<text x="0" y="0" stroke="transparent" fill="#000000" transform="matrix(0.0833333 0 0 0.0833333 414.684 131.024)" style="font:normal normal normal 200px 'Arial'" >
O</text>
<text x="0" y="0" stroke="transparent" fill="#000000" transform="matrix(0.0833333 0 0 0.0833333 290.562 91.1512)" style="font:normal normal normal 200px 'Arial'" >
O</text>
<text x="0" y="0" stroke="transparent" fill="#000000" transform="matrix(0.0833333 0 0 0.0833333 235.932 37.1814)" style="font:normal normal normal 200px 'Arial'" >
O</text>
<text x="0" y="0" stroke="transparent" fill="#000000" transform="matrix(0.0833333 0 0 0.0833333 125.359 133.654)" style="font:normal normal normal 200px 'Arial'" >
N</text>
<text x="0" y="0" stroke="transparent" fill="#000000" transform="matrix(0.0833333 0 0 0.0833333 58.3254 152.206)" style="font:normal normal normal 200px 'Arial'" >
O</text>
<text x="0" y="0" stroke="transparent" fill="#000000" transform="matrix(0.0833333 0 0 0.0833333 94.7557 276.036)" style="font:normal normal normal 200px 'Arial'" >
O</text>
<text x="0" y="0" stroke="transparent" fill="#000000" transform="matrix(0.0833333 0 0 0.0833333 79.5739 351.946)" style="font:normal normal normal 200px 'Arial'" >
O</text>
<path stroke="transparent" fill="#000000" transform="matrix(0.0833333 0 0 0.0833333 -168.208 -133)" d="M 3698.59,6176.52 L 3687.97,6175.02 L 3682.21,6164.83 L 3915.15,5748.06 L 3927.68,5746.15 L 3931.41,5759.96 L 3698.59,6176.52 Z " />
<path stroke="transparent" fill="#000000" transform="matrix(0.0833333 0 0 0.0833333 -168.208 -133)" d="M 3933.16,5737.57 L 3927.68,5746.15 L 3915.15,5748.06 L 3481.16,5337.17 L 3497.4,5325.01 L 3933.16,5737.57 Z " />
<path stroke="transparent" fill="#000000" transform="matrix(0.0833333 0 0 0.0833333 -168.208 -133)" d="M 4463.14,5937.41 L 4411.07,6045.53 L 3931.41,5759.96 L 3927.68,5746.15 L 3933.16,5737.57 L 4463.14,5937.41 Z " />
<path stroke="transparent" fill="#000000" transform="matrix(0.0833333 0 0 0.0833333 -168.208 -133)" d="M 4378.71,6619.59 L 4359.56,6613.79 L 4495.76,6164.26 L 4514.9,6170.06 L 4378.71,6619.59 Z " />
<path stroke="transparent" fill="#000000" transform="matrix(0.0833333 0 0 0.0833333 -168.208 -133)" d="M 4637.91,6059.73 L 4639.42,6039.78 L 5094.32,6074.27 L 5095.15,6094.39 L 4637.91,6059.73 Z " />
<path stroke="transparent" fill="#000000" transform="matrix(0.0833333 0 0 0.0833333 -168.208 -133)" d="M 5048.82,6081.28 L 5068.81,6081.93 L 5052.62,6577.97 L 5032.63,6577.32 L 5048.82,6081.28 Z " />
<path stroke="transparent" fill="#000000" transform="matrix(0.0833333 0 0 0.0833333 -168.208 -133)" d="M 5120.94,6078.24 L 5140.93,6078.9 L 5124.57,6580.32 L 5104.58,6579.67 L 5120.94,6078.24 Z " />
<path stroke="transparent" fill="#000000" transform="matrix(0.0833333 0 0 0.0833333 -168.208 -133)" d="M 5677.72,5981.44 L 5664.48,6003.8 L 5095.15,6094.39 L 5094.32,6074.27 L 5677.72,5981.44 Z " />
<path stroke="transparent" fill="#000000" transform="matrix(0.0833333 0 0 0.0833333 -168.208 -133)" d="M 5849.64,6461.61 L 5842.52,6471.38 L 5831.48,6470.21 L 5664.48,6003.8 L 5677.72,5981.44 L 5849.64,6461.61 Z " />
<path stroke="transparent" fill="#000000" transform="matrix(0.0833333 0 0 0.0833333 -168.208 -133)" d="M 6101.44,5743.61 L 6148.56,5853.97 L 6129.28,5859.73 L 6083.94,5753.56 L 6101.44,5743.61 Z " />
<path stroke="transparent" fill="#000000" transform="matrix(0.0833333 0 0 0.0833333 -168.208 -133)" d="M 6049,5773.42 L 6090.77,5871.24 L 6071.49,5877 L 6031.5,5783.36 L 6049,5773.42 Z " />
<path stroke="transparent" fill="#000000" transform="matrix(0.0833333 0 0 0.0833333 -168.208 -133)" d="M 5996.57,5803.22 L 6032.98,5888.5 L 6013.7,5894.26 L 5979.07,5813.17 L 5996.57,5803.22 Z " />
<path stroke="transparent" fill="#000000" transform="matrix(0.0833333 0 0 0.0833333 -168.208 -133)" d="M 5944.13,5833.03 L 5975.19,5905.77 L 5955.91,5911.53 L 5926.63,5842.97 L 5944.13,5833.03 Z " />
<path stroke="transparent" fill="#000000" transform="matrix(0.0833333 0 0 0.0833333 -168.208 -133)" d="M 5891.7,5862.83 L 5917.4,5923.03 L 5898.12,5928.79 L 5874.2,5872.78 L 5891.7,5862.83 Z " />
<path stroke="transparent" fill="#000000" transform="matrix(0.0833333 0 0 0.0833333 -168.208 -133)" d="M 5839.26,5892.64 L 5859.61,5940.29 L 5840.33,5946.06 L 5821.76,5902.58 L 5839.26,5892.64 Z " />
<path stroke="transparent" fill="#000000" transform="matrix(0.0833333 0 0 0.0833333 -168.208 -133)" d="M 5786.83,5922.44 L 5801.82,5957.56 L 5782.53,5963.32 L 5769.33,5932.39 L 5786.83,5922.44 Z " />
<path stroke="transparent" fill="#000000" transform="matrix(0.0833333 0 0 0.0833333 -168.208 -133)" d="M 5734.39,5952.25 L 5744.03,5974.82 L 5724.74,5980.59 L 5716.89,5962.19 L 5734.39,5952.25 Z " />
<path stroke="transparent" fill="#000000" transform="matrix(0.0833333 0 0 0.0833333 -168.208 -133)" d="M 6573.1,5259.5 L 6589.33,5271.19 L 6299.64,5673.58 L 6283.41,5661.9 L 6573.1,5259.5 Z " />
<path stroke="transparent" fill="#000000" transform="matrix(0.0833333 0 0 0.0833333 -168.208 -133)" d="M 6559.29,5297.91 L 6568.89,5280.36 L 6903.59,5463.51 L 6893.99,5481.06 L 6559.29,5297.91 Z " />
<path stroke="transparent" fill="#000000" transform="matrix(0.0833333 0 0 0.0833333 -168.208 -133)" d="M 6590.03,5248.41 L 6599.63,5230.87 L 6931.52,5412.48 L 6921.92,5430.02 L 6590.03,5248.41 Z " />
<path stroke="transparent" fill="#000000" transform="matrix(0.0833333 0 0 0.0833333 -168.208 -133)" d="M 6864,4710.11 L 6874.45,4711.75 L 6879.53,4723.51 L 6589.73,5270.63 L 6572.69,5260.06 L 6864,4710.11 Z " />
<path stroke="transparent" fill="#000000" transform="matrix(0.0833333 0 0 0.0833333 -168.208 -133)" d="M 6750.17,4105.65 L 6869.51,4093.06 L 6884.23,4704.06 L 6874.45,4711.75 L 6864,4710.11 L 6750.17,4105.65 Z " />
<path stroke="transparent" fill="#000000" transform="matrix(0.0833333 0 0 0.0833333 -168.208 -133)" d="M 7406.51,4847.06 L 7413.37,4869.67 L 6879.53,4723.51 L 6874.45,4711.75 L 6884.23,4704.06 L 7406.51,4847.06 Z " />
<path stroke="transparent" fill="#000000" transform="matrix(0.0833333 0 0 0.0833333 -168.208 -133)" d="M 7374.55,3818.08 L 7379.73,3837.4 L 6906.72,3964.19 L 6901.54,3944.87 L 7374.55,3818.08 Z " />
<path stroke="transparent" fill="#000000" transform="matrix(0.0833333 0 0 0.0833333 -168.208 -133)" d="M 6535.13,3378.84 L 6552.09,3367.56 L 6760.92,3869.04 L 6742.45,3876.73 L 6535.13,3378.84 Z " />
<path stroke="transparent" fill="#000000" transform="matrix(0.0833333 0 0 0.0833333 -168.208 -133)" d="M 6562.23,3415.4 L 6552.8,3397.77 L 6983.92,3167.25 L 6993.35,3184.88 L 6562.23,3415.4 Z " />
<path stroke="transparent" fill="#000000" transform="matrix(0.0833333 0 0 0.0833333 -168.208 -133)" d="M 6521.94,3355.3 L 6512.51,3337.67 L 6949.97,3103.75 L 6959.4,3121.39 L 6521.94,3355.3 Z " />
<path stroke="transparent" fill="#000000" transform="matrix(0.0833333 0 0 0.0833333 -168.208 -133)" d="M 6109.83,2948.24 L 6137.82,2948.12 L 6552.09,3367.56 L 6535.13,3378.84 L 6109.83,2948.24 Z " />
<path stroke="transparent" fill="#000000" transform="matrix(0.0833333 0 0 0.0833333 -168.208 -133)" d="M 5650.03,2724.03 L 5713.42,2622.15 L 5729.27,2634.53 L 5668.14,2732.78 L 5650.03,2724.03 Z " />
<path stroke="transparent" fill="#000000" transform="matrix(0.0833333 0 0 0.0833333 -168.208 -133)" d="M 5700.59,2748.45 L 5757.66,2656.72 L 5773.51,2669.11 L 5718.7,2757.2 L 5700.59,2748.45 Z " />
<path stroke="transparent" fill="#000000" transform="matrix(0.0833333 0 0 0.0833333 -168.208 -133)" d="M 5751.15,2772.87 L 5801.91,2691.3 L 5817.75,2703.68 L 5769.26,2781.61 L 5751.15,2772.87 Z " />
<path stroke="transparent" fill="#000000" transform="matrix(0.0833333 0 0 0.0833333 -168.208 -133)" d="M 5801.71,2797.28 L 5846.15,2725.87 L 5862,2738.25 L 5819.83,2806.03 L 5801.71,2797.28 Z " />
<path stroke="transparent" fill="#000000" transform="matrix(0.0833333 0 0 0.0833333 -168.208 -133)" d="M 5852.27,2821.7 L 5890.39,2760.44 L 5906.24,2772.83 L 5870.39,2830.44 L 5852.27,2821.7 Z " />
<path stroke="transparent" fill="#000000" transform="matrix(0.0833333 0 0 0.0833333 -168.208 -133)" d="M 5902.84,2846.11 L 5934.63,2795.02 L 5950.48,2807.4 L 5920.95,2854.86 L 5902.84,2846.11 Z " />
<path stroke="transparent" fill="#000000" transform="matrix(0.0833333 0 0 0.0833333 -168.208 -133)" d="M 5953.4,2870.53 L 5978.87,2829.59 L 5994.72,2841.97 L 5971.51,2879.27 L 5953.4,2870.53 Z " />
<path stroke="transparent" fill="#000000" transform="matrix(0.0833333 0 0 0.0833333 -168.208 -133)" d="M 6003.96,2894.94 L 6023.11,2864.16 L 6038.96,2876.55 L 6022.07,2903.69 L 6003.96,2894.94 Z " />
<path stroke="transparent" fill="#000000" transform="matrix(0.0833333 0 0 0.0833333 -168.208 -133)" d="M 6054.52,2919.36 L 6067.35,2898.74 L 6083.2,2911.12 L 6072.63,2928.1 L 6054.52,2919.36 Z " />
<path stroke="transparent" fill="#000000" transform="matrix(0.0833333 0 0 0.0833333 -168.208 -133)" d="M 6477.43,2569.71 L 6488.41,2572.76 L 6492.5,2582.9 L 6137.82,2948.12 L 6109.83,2948.24 L 6477.43,2569.71 Z " />
<path stroke="transparent" fill="#000000" transform="matrix(0.0833333 0 0 0.0833333 -168.208 -133)" d="M 4908.83,2573.96 L 4907.4,2553.81 L 5476.39,2594.2 L 5474.98,2614.15 L 4908.83,2573.96 Z " />
<path stroke="transparent" fill="#000000" transform="matrix(0.0833333 0 0 0.0833333 -168.208 -133)" d="M 4954.05,2566.76 L 4934.06,2566.11 L 4949.76,2084.75 L 4969.75,2085.4 L 4954.05,2566.76 Z " />
<path stroke="transparent" fill="#000000" transform="matrix(0.0833333 0 0 0.0833333 -168.208 -133)" d="M 4881.84,2572.05 L 4861.85,2571.4 L 4877.8,2082.4 L 4897.79,2083.06 L 4881.84,2572.05 Z " />
<path stroke="transparent" fill="#000000" transform="matrix(0.0833333 0 0 0.0833333 -168.208 -133)" d="M 4308.44,2703.65 L 4304.41,2694.29 L 4312.02,2682.41 L 4907.4,2553.81 L 4908.83,2573.96 L 4308.44,2703.65 Z " />
<path stroke="transparent" fill="#000000" transform="matrix(0.0833333 0 0 0.0833333 -168.208 -133)" d="M 4176.78,2164.49 L 4185.28,2156.61 L 4195.92,2158.43 L 4312.02,2682.41 L 4304.41,2694.29 L 4292.98,2688.92 L 4176.78,2164.49 Z " />
<path stroke="transparent" fill="#000000" transform="matrix(0.0833333 0 0 0.0833333 -168.208 -133)" d="M 3728.82,3111.15 L 3666.89,3008.37 L 4292.98,2688.92 L 4304.41,2694.29 L 4308.44,2703.65 L 3728.82,3111.15 Z " />
<path stroke="transparent" fill="#000000" transform="matrix(0.0833333 0 0 0.0833333 -168.208 -133)" d="M 3080,2813.54 L 3090.56,2796.56 L 3497.63,3049.66 L 3487.07,3066.64 L 3080,2813.54 Z " />
<path stroke="transparent" fill="#000000" transform="matrix(0.0833333 0 0 0.0833333 -168.208 -133)" d="M 3315.36,3664.7 L 3296.5,3657.55 L 3522.43,3235.79 L 3540.06,3245.23 L 3315.36,3664.7 Z " />
<path stroke="transparent" fill="#000000" transform="matrix(0.0833333 0 0 0.0833333 -168.208 -133)" d="M 3328.24,3620.84 L 3317.69,3637.82 L 2908.63,3383.61 L 2919.19,3366.62 L 3328.24,3620.84 Z " />
<path stroke="transparent" fill="#000000" transform="matrix(0.0833333 0 0 0.0833333 -168.208 -133)" d="M 3302.48,3689.58 L 3291.92,3706.57 L 2870.63,3444.75 L 2881.19,3427.77 L 3302.48,3689.58 Z " />
<path stroke="transparent" fill="#000000" transform="matrix(0.0833333 0 0 0.0833333 -168.208 -133)" d="M 3203.1,4139.75 L 3187.53,4118.65 L 3296.5,3657.55 L 3315.36,3664.7 L 3203.1,4139.75 Z " />
<path stroke="transparent" fill="#000000" transform="matrix(0.0833333 0 0 0.0833333 -168.208 -133)" d="M 3287.76,4722.25 L 3167.93,4728.79 L 3168.68,4708.72 L 3284.83,4702.38 L 3287.76,4722.25 Z " />
<path stroke="transparent" fill="#000000" transform="matrix(0.0833333 0 0 0.0833333 -168.208 -133)" d="M 3279.25,4664.5 L 3170.11,4670.45 L 3170.86,4650.38 L 3276.32,4644.63 L 3279.25,4664.5 Z " />
<path stroke="transparent" fill="#000000" transform="matrix(0.0833333 0 0 0.0833333 -168.208 -133)" d="M 3270.74,4606.74 L 3172.29,4612.12 L 3173.04,4592.05 L 3267.81,4586.87 L 3270.74,4606.74 Z " />
<path stroke="transparent" fill="#000000" transform="matrix(0.0833333 0 0 0.0833333 -168.208 -133)" d="M 3262.23,4548.99 L 3174.46,4553.78 L 3175.21,4533.71 L 3259.3,4529.12 L 3262.23,4548.99 Z " />
<path stroke="transparent" fill="#000000" transform="matrix(0.0833333 0 0 0.0833333 -168.208 -133)" d="M 3253.72,4491.24 L 3176.64,4495.44 L 3177.39,4475.37 L 3250.79,4471.37 L 3253.72,4491.24 Z " />
<path stroke="transparent" fill="#000000" transform="matrix(0.0833333 0 0 0.0833333 -168.208 -133)" d="M 3245.21,4433.48 L 3178.82,4437.1 L 3179.57,4417.03 L 3242.28,4413.61 L 3245.21,4433.48 Z " />
<path stroke="transparent" fill="#000000" transform="matrix(0.0833333 0 0 0.0833333 -168.208 -133)" d="M 3236.7,4375.73 L 3180.99,4378.77 L 3181.74,4358.69 L 3233.77,4355.86 L 3236.7,4375.73 Z " />
<path stroke="transparent" fill="#000000" transform="matrix(0.0833333 0 0 0.0833333 -168.208 -133)" d="M 3228.19,4317.97 L 3183.17,4320.43 L 3183.92,4300.36 L 3225.26,4298.1 L 3228.19,4317.97 Z " />
<path stroke="transparent" fill="#000000" transform="matrix(0.0833333 0 0 0.0833333 -168.208 -133)" d="M 3219.68,4260.22 L 3185.35,4262.09 L 3186.1,4242.02 L 3216.75,4240.35 L 3219.68,4260.22 Z " />
<path stroke="transparent" fill="#000000" transform="matrix(0.0833333 0 0 0.0833333 -168.208 -133)" d="M 3211.17,4202.46 L 3187.52,4203.75 L 3188.27,4183.68 L 3208.24,4182.59 L 3211.17,4202.46 Z " />
<path stroke="transparent" fill="#000000" transform="matrix(0.0833333 0 0 0.0833333 -168.208 -133)" d="M 2598.59,4098.86 L 2596.4,4088.69 L 2602.61,4079.09 L 3187.53,4118.65 L 3203.1,4139.75 L 2598.59,4098.86 Z " />
<path stroke="transparent" fill="#000000" transform="matrix(0.0833333 0 0 0.0833333 -168.208 -133)" d="M 3497.4,5325.01 L 3481.16,5337.17 L 3279.81,4942.95 L 3297.62,4933.86 L 3497.4,5325.01 Z " />
<path stroke="transparent" fill="#000000" transform="matrix(0.0833333 0 0 0.0833333 -168.208 -133)" d="M 3160.76,5701.91 L 3147.09,5687.32 L 3508.63,5348.59 L 3522.31,5363.19 L 3160.76,5701.91 Z " />
<path stroke="transparent" fill="#000000" transform="matrix(0.0833333 0 0 0.0833333 -168.208 -133)" d="M 3111.53,5649.37 L 3097.86,5634.77 L 3465.4,5290.43 L 3479.07,5305.02 L 3111.53,5649.37 Z " />
<path stroke="transparent" fill="#000000" transform="matrix(0.0833333 0 0 0.0833333 -168.208 -133)" d="M 5534.21,6986.19 L 5517.23,6975.63 L 5831.48,6470.21 L 5842.52,6471.38 L 5847.96,6481.57 L 5534.21,6986.19 Z " />
<path stroke="transparent" fill="#000000" transform="matrix(0.0833333 0 0 0.0833333 -168.208 -133)" d="M 6442.48,6480.95 L 6441.83,6500.94 L 5847.96,6481.57 L 5842.52,6471.38 L 5849.64,6461.61 L 6442.48,6480.95 Z " />
<path stroke="transparent" fill="#000000" transform="matrix(0.0833333 0 0 0.0833333 -168.208 -133)" d="M 3087.93,6165.52 L 3088.58,6145.53 L 3682.21,6164.83 L 3687.97,6175.02 L 3679.97,6184.77 L 3087.93,6165.52 Z " />
<path stroke="transparent" fill="#000000" transform="matrix(0.0833333 0 0 0.0833333 -168.208 -133)" d="M 3834,6757.04 L 3814.52,6761.58 L 3679.97,6184.77 L 3687.97,6175.02 L 3698.59,6176.52 L 3834,6757.04 Z " />
<path stroke="transparent" fill="#000000" transform="matrix(0.0833333 0 0 0.0833333 -168.208 -133)" d="M 2304.68,3564.24 L 2322.31,3554.81 L 2602.61,4079.09 L 2596.4,4088.69 L 2582.87,4084.59 L 2304.68,3564.24 Z " />
<path stroke="transparent" fill="#000000" transform="matrix(0.0833333 0 0 0.0833333 -168.208 -133)" d="M 2072.03,4380.42 L 2062.6,4362.78 L 2582.87,4084.59 L 2596.4,4088.69 L 2598.59,4098.86 L 2072.03,4380.42 Z " />
<path stroke="transparent" fill="#000000" transform="matrix(0.0833333 0 0 0.0833333 -168.208 -133)" d="M 4493.44,1641.81 L 4510.43,1652.36 L 4195.92,2158.43 L 4185.28,2156.61 L 4180.84,2144.82 L 4493.44,1641.81 Z " />
<path stroke="transparent" fill="#000000" transform="matrix(0.0833333 0 0 0.0833333 -168.208 -133)" d="M 3608.2,1992.07 L 3614,1972.93 L 4180.84,2144.82 L 4185.28,2156.61 L 4176.78,2164.49 L 3608.2,1992.07 Z " />
<path stroke="transparent" fill="#000000" transform="matrix(0.0833333 0 0 0.0833333 -168.208 -133)" d="M 7088.45,2582.33 L 7087.79,2602.32 L 6492.5,2582.9 L 6488.41,2572.76 L 6496.41,2563.02 L 7088.45,2582.33 Z " />
<path stroke="transparent" fill="#000000" transform="matrix(0.0833333 0 0 0.0833333 -168.208 -133)" d="M 6342.38,1990.74 L 6361.86,1986.2 L 6496.41,2563.02 L 6488.41,2572.76 L 6477.43,2569.71 L 6342.38,1990.74 Z " />
<path stroke="transparent" fill="#000000" transform="matrix(0.0833333 0 0 0.0833333 -168.208 -133)" d="M 7745.69,5359.17 L 7639.86,5415.74 L 7632.05,5397.24 L 7734.65,5342.39 L 7745.69,5359.17 Z " />
<path stroke="transparent" fill="#000000" transform="matrix(0.0833333 0 0 0.0833333 -168.208 -133)" d="M 7713.42,5310.16 L 7617.04,5361.69 L 7609.22,5343.19 L 7702.38,5293.39 L 7713.42,5310.16 Z " />
<path stroke="transparent" fill="#000000" transform="matrix(0.0833333 0 0 0.0833333 -168.208 -133)" d="M 7681.16,5261.16 L 7594.21,5307.64 L 7586.4,5289.14 L 7670.11,5244.38 L 7681.16,5261.16 Z " />
<path stroke="transparent" fill="#000000" transform="matrix(0.0833333 0 0 0.0833333 -168.208 -133)" d="M 7648.89,5212.15 L 7571.39,5253.59 L 7563.57,5235.09 L 7637.85,5195.38 L 7648.89,5212.15 Z " />
<path stroke="transparent" fill="#000000" transform="matrix(0.0833333 0 0 0.0833333 -168.208 -133)" d="M 7616.63,5163.15 L 7548.56,5199.54 L 7540.75,5181.03 L 7605.58,5146.37 L 7616.63,5163.15 Z " />
<path stroke="transparent" fill="#000000" transform="matrix(0.0833333 0 0 0.0833333 -168.208 -133)" d="M 7584.36,5114.14 L 7525.73,5145.48 L 7517.92,5126.98 L 7573.32,5097.37 L 7584.36,5114.14 Z " />
<path stroke="transparent" fill="#000000" transform="matrix(0.0833333 0 0 0.0833333 -168.208 -133)" d="M 7552.1,5065.14 L 7502.91,5091.43 L 7495.1,5072.93 L 7541.05,5048.36 L 7552.1,5065.14 Z " />
<path stroke="transparent" fill="#000000" transform="matrix(0.0833333 0 0 0.0833333 -168.208 -133)" d="M 7519.83,5016.13 L 7480.08,5037.38 L 7472.27,5018.88 L 7508.79,4999.36 L 7519.83,5016.13 Z " />
<path stroke="transparent" fill="#000000" transform="matrix(0.0833333 0 0 0.0833333 -168.208 -133)" d="M 7487.57,4967.13 L 7457.26,4983.33 L 7449.44,4964.83 L 7476.52,4950.35 L 7487.57,4967.13 Z " />
<path stroke="transparent" fill="#000000" transform="matrix(0.0833333 0 0 0.0833333 -168.208 -133)" d="M 7455.3,4918.12 L 7434.43,4929.28 L 7426.62,4910.78 L 7444.26,4901.35 L 7455.3,4918.12 Z " />
<path stroke="transparent" fill="#000000" transform="matrix(0.0833333 0 0 0.0833333 -168.208 -133)" d="M 7815.8,4375.59 L 7822.7,4398.15 L 7413.37,4869.67 L 7406.51,4847.06 L 7815.8,4375.59 Z " />
<path stroke="transparent" fill="#000000" transform="matrix(0.0833333 0 0 0.0833333 -168.208 -133)" d="M 8401.4,4532.56 L 8396.22,4551.88 L 7822.7,4398.15 L 7815.8,4375.59 L 8401.4,4532.56 Z " />
</svg>
