<?xml version="1.0" standalone="no" ?>
<!DOCTYPE svg PUBLIC "-//W3C//DTD SVG 1.1//EN" "http://www.w3.org/Graphics/SVG/1.1/DTD/svg11.dtd">
<svg width="319px" height="222px" viewBox="0 0 319 222" style="background-color: #ffffff00" xmlns="http://www.w3.org/2000/svg" xmlns:xlink="http://www.w3.org/1999/xlink" version="1.1" >
<text x="0" y="0" stroke="transparent" fill="#000000" transform="matrix(0.0833333 0 0 0.0833333 91.0154 67.5839)" style="font:normal normal normal 200px 'Arial'" >
O</text>
<text x="0" y="0" stroke="transparent" fill="#000000" transform="matrix(0.0833333 0 0 0.0833333 177.619 17.5851)" style="font:normal normal normal 200px 'Arial'" >
O</text>
<text x="0" y="0" stroke="transparent" fill="#000000" transform="matrix(0.0833333 0 0 0.0833333 177.619 217.588)" style="font:normal normal normal 200px 'Arial'" >
O</text>
<path stroke="transparent" fill="#000000" transform="matrix(0.0833333 0 0 0.0833333 -267.208 -261)" d="M 3860.71,4151.37 L 3857.05,4165.03 L 3839.73,4155.04 L 3548.39,3650.42 L 3565.71,3640.42 L 3860.71,4151.37 Z " />
<path stroke="transparent" fill="#000000" transform="matrix(0.0833333 0 0 0.0833333 -267.208 -261)" d="M 3257.05,4175.04 L 3257.05,4155.04 L 3839.73,4155.04 L 3857.05,4165.03 L 3847.05,4175.04 L 3257.05,4175.04 Z " />
<path stroke="transparent" fill="#000000" transform="matrix(0.0833333 0 0 0.0833333 -267.208 -261)" d="M 3867.05,4759.26 L 3847.05,4770.81 L 3847.05,4175.04 L 3857.05,4165.03 L 3867.05,4170.81 L 3867.05,4759.26 Z " />
<path stroke="transparent" fill="#000000" transform="matrix(0.0833333 0 0 0.0833333 -267.208 -261)" d="M 4376.68,5053.49 L 4376.68,5076.59 L 3847.05,4770.81 L 3867.05,4759.26 L 4376.68,5053.49 Z " />
<path stroke="transparent" fill="#000000" transform="matrix(0.0833333 0 0 0.0833333 -267.208 -261)" d="M 4381.68,4973.24 L 4371.68,4990.56 L 3924.06,4732.12 L 3934.06,4714.8 L 4381.68,4973.24 Z " />
<path stroke="transparent" fill="#000000" transform="matrix(0.0833333 0 0 0.0833333 -267.208 -261)" d="M 4886.3,4759.27 L 4896.3,4765.05 L 4896.3,4776.59 L 4376.68,5076.59 L 4376.68,5053.49 L 4886.3,4759.27 Z " />
<path stroke="transparent" fill="#000000" transform="matrix(0.0833333 0 0 0.0833333 -267.208 -261)" d="M 4886.31,4170.79 L 4896.31,4165.01 L 4906.31,4170.79 L 4906.3,4759.27 L 4896.3,4765.05 L 4886.3,4759.27 L 4886.31,4170.79 Z " />
<path stroke="transparent" fill="#000000" transform="matrix(0.0833333 0 0 0.0833333 -267.208 -261)" d="M 4814.31,4206.58 L 4834.31,4206.58 L 4834.3,4723.48 L 4814.3,4723.47 L 4814.31,4206.58 Z " />
<path stroke="transparent" fill="#000000" transform="matrix(0.0833333 0 0 0.0833333 -267.208 -261)" d="M 4471.72,3931.42 L 4481.72,3914.1 L 4896.31,4153.47 L 4896.31,4165.01 L 4886.31,4170.79 L 4471.72,3931.42 Z " />
<path stroke="transparent" fill="#000000" transform="matrix(0.0833333 0 0 0.0833333 -267.208 -261)" d="M 4272.08,3913.86 L 4282.08,3931.18 L 3867.05,4170.81 L 3857.05,4165.03 L 3860.71,4151.37 L 4272.08,3913.86 Z " />
<path stroke="transparent" fill="#000000" transform="matrix(0.0833333 0 0 0.0833333 -267.208 -261)" d="M 5415.93,3853.47 L 5415.93,3876.57 L 4906.31,4170.79 L 4896.31,4165.01 L 4896.31,4153.47 L 5415.93,3853.47 Z " />
<path stroke="transparent" fill="#000000" transform="matrix(0.0833333 0 0 0.0833333 -267.208 -261)" d="M 5369.92,3384.85 L 5389.92,3384.85 L 5389.93,3885.8 L 5369.93,3885.8 L 5369.92,3384.85 Z " />
<path stroke="transparent" fill="#000000" transform="matrix(0.0833333 0 0 0.0833333 -267.208 -261)" d="M 5441.92,3384.85 L 5461.92,3384.85 L 5461.93,3885.8 L 5441.93,3885.81 L 5441.92,3384.85 Z " />
<path stroke="transparent" fill="#000000" transform="matrix(0.0833333 0 0 0.0833333 -267.208 -261)" d="M 5935.56,4153.48 L 5935.56,4165.03 L 5925.56,4170.8 L 5415.93,3876.57 L 5415.93,3853.47 L 5935.56,4153.48 Z " />
<path stroke="transparent" fill="#000000" transform="matrix(0.0833333 0 0 0.0833333 -267.208 -261)" d="M 6455.18,3853.49 L 6455.18,3876.58 L 5945.56,4170.8 L 5935.56,4165.03 L 5935.56,4153.48 L 6455.18,3853.49 Z " />
<path stroke="transparent" fill="#000000" transform="matrix(0.0833333 0 0 0.0833333 -267.208 -261)" d="M 6450.18,3939.51 L 6460.18,3956.83 L 6012.56,4215.26 L 6002.56,4197.94 L 6450.18,3939.51 Z " />
<path stroke="transparent" fill="#000000" transform="matrix(0.0833333 0 0 0.0833333 -267.208 -261)" d="M 6984.8,4159.27 L 6964.8,4170.81 L 6455.18,3876.58 L 6455.18,3853.49 L 6984.8,4159.27 Z " />
<path stroke="transparent" fill="#000000" transform="matrix(0.0833333 0 0 0.0833333 -267.208 -261)" d="M 6984.81,4770.81 L 6964.81,4759.27 L 6964.8,4170.81 L 6984.8,4159.27 L 6984.81,4770.81 Z " />
<path stroke="transparent" fill="#000000" transform="matrix(0.0833333 0 0 0.0833333 -267.208 -261)" d="M 6912.81,4723.47 L 6892.81,4723.47 L 6892.8,4206.61 L 6912.8,4206.61 L 6912.81,4723.47 Z " />
<path stroke="transparent" fill="#000000" transform="matrix(0.0833333 0 0 0.0833333 -267.208 -261)" d="M 6455.19,5076.58 L 6455.19,5053.49 L 6964.81,4759.27 L 6984.81,4770.81 L 6455.19,5076.58 Z " />
<path stroke="transparent" fill="#000000" transform="matrix(0.0833333 0 0 0.0833333 -267.208 -261)" d="M 5935.56,4776.57 L 5935.56,4765.03 L 5945.56,4759.25 L 6455.19,5053.49 L 6455.19,5076.58 L 5935.56,4776.57 Z " />
<path stroke="transparent" fill="#000000" transform="matrix(0.0833333 0 0 0.0833333 -267.208 -261)" d="M 6002.57,4732.12 L 6012.57,4714.8 L 6460.19,4973.23 L 6450.19,4990.55 L 6002.57,4732.12 Z " />
<path stroke="transparent" fill="#000000" transform="matrix(0.0833333 0 0 0.0833333 -267.208 -261)" d="M 5945.56,4759.25 L 5935.56,4765.03 L 5925.56,4759.25 L 5925.56,4170.8 L 5935.56,4165.03 L 5945.56,4170.8 L 5945.56,4759.25 Z " />
<path stroke="transparent" fill="#000000" transform="matrix(0.0833333 0 0 0.0833333 -267.208 -261)" d="M 5415.93,5076.6 L 5415.93,5053.51 L 5925.56,4759.25 L 5935.56,4765.03 L 5935.56,4776.57 L 5415.93,5076.6 Z " />
<path stroke="transparent" fill="#000000" transform="matrix(0.0833333 0 0 0.0833333 -267.208 -261)" d="M 5415.93,5053.51 L 5415.93,5076.6 L 4896.3,4776.59 L 4896.3,4765.05 L 4906.3,4759.27 L 5415.93,5053.51 Z " />
<path stroke="transparent" fill="#000000" transform="matrix(0.0833333 0 0 0.0833333 -267.208 -261)" d="M 5461.93,5559.89 L 5441.93,5559.89 L 5441.93,5044.27 L 5461.93,5044.27 L 5461.93,5559.89 Z " />
<path stroke="transparent" fill="#000000" transform="matrix(0.0833333 0 0 0.0833333 -267.208 -261)" d="M 5389.93,5559.89 L 5369.93,5559.89 L 5369.93,5044.27 L 5389.93,5044.27 L 5389.93,5559.89 Z " />
</svg>
