<?xml version="1.0" standalone="no" ?>
<!DOCTYPE svg PUBLIC "-//W3C//DTD SVG 1.1//EN" "http://www.w3.org/Graphics/SVG/1.1/DTD/svg11.dtd">
<svg width="1257px" height="601px" viewBox="0 0 1257 601" style="background-color: #ffffff00" xmlns="http://www.w3.org/2000/svg" xmlns:xlink="http://www.w3.org/1999/xlink" version="1.1" >
<text x="0" y="0" stroke="transparent" fill="#000000" transform="matrix(0.0833333 0 0 0.0833333 665.225 427.756)" style="font:normal normal normal 200px 'Arial'" >
O</text>
<text x="0" y="0" stroke="transparent" fill="#000000" transform="matrix(0.0833333 0 0 0.0833333 621.937 352.779)" style="font:normal normal normal 200px 'Arial'" >
O</text>
<text x="0" y="0" stroke="transparent" fill="#000000" transform="matrix(0.0833333 0 0 0.0833333 578.649 427.756)" style="font:normal normal normal 200px 'Arial'" >
O</text>
<text x="0" y="0" stroke="transparent" fill="#000000" transform="matrix(0.0833333 0 0 0.0833333 318.924 577.709)" style="font:normal normal normal 200px 'Arial'" >
O</text>
<text x="0" y="0" stroke="transparent" fill="#000000" transform="matrix(0.0833333 0 0 0.0833333 220.312 577.709)" style="font:normal normal normal 200px 'Arial'" >
HO</text>
<text x="0" y="0" stroke="transparent" fill="#000000" transform="matrix(0.0833333 0 0 0.0833333 189.061 502.732)" style="font:normal normal normal 200px 'Arial'" >
O</text>
<text x="0" y="0" stroke="transparent" fill="#000000" transform="matrix(0.0833333 0 0 0.0833333 145.773 427.756)" style="font:normal normal normal 200px 'Arial'" >
O</text>
<text x="0" y="0" stroke="transparent" fill="#000000" transform="matrix(0.0833333 0 0 0.0833333 47.1617 327.787)" style="font:normal normal normal 200px 'Arial'" >
HO</text>
<text x="0" y="0" stroke="transparent" fill="#000000" transform="matrix(0.0833333 0 0 0.0833333 3.87404 402.764)" style="font:normal normal normal 200px 'Arial'" >
HO</text>
<text x="0" y="0" stroke="transparent" fill="#000000" transform="matrix(0.0833333 0 0 0.0833333 3.87404 502.732)" style="font:normal normal normal 200px 'Arial'" >
HO</text>
<text x="0" y="0" stroke="transparent" fill="#000000" transform="matrix(0.0833333 0 0 0.0833333 102.485 552.716)" style="font:normal normal normal 200px 'Arial'" >
OH</text>
<text x="0" y="0" stroke="transparent" fill="#000000" transform="matrix(0.0833333 0 0 0.0833333 177.025 402.764)" style="font:normal normal normal 200px 'Arial'" >
HO</text>
<text x="0" y="0" stroke="transparent" fill="#000000" transform="matrix(0.0833333 0 0 0.0833333 492.074 477.74)" style="font:normal normal normal 200px 'Arial'" >
OH</text>
<text x="0" y="0" stroke="transparent" fill="#000000" transform="matrix(0.0833333 0 0 0.0833333 708.512 302.795)" style="font:normal normal normal 200px 'Arial'" >
O</text>
<text x="0" y="0" stroke="transparent" fill="#000000" transform="matrix(0.0833333 0 0 0.0833333 795.088 302.795)" style="font:normal normal normal 200px 'Arial'" >
O</text>
<text x="0" y="0" stroke="transparent" fill="#000000" transform="matrix(0.0833333 0 0 0.0833333 881.663 202.827)" style="font:normal normal normal 200px 'Arial'" >
O</text>
<text x="0" y="0" stroke="transparent" fill="#000000" transform="matrix(0.0833333 0 0 0.0833333 924.95 277.803)" style="font:normal normal normal 200px 'Arial'" >
O</text>
<text x="0" y="0" stroke="transparent" fill="#000000" transform="matrix(0.0833333 0 0 0.0833333 1054.81 302.795)" style="font:normal normal normal 200px 'Arial'" >
OH</text>
<text x="0" y="0" stroke="transparent" fill="#000000" transform="matrix(0.0833333 0 0 0.0833333 1054.81 202.827)" style="font:normal normal normal 200px 'Arial'" >
O</text>
<text x="0" y="0" stroke="transparent" fill="#000000" transform="matrix(0.0833333 0 0 0.0833333 1098.1 277.803)" style="font:normal normal normal 200px 'Arial'" >
O</text>
<text x="0" y="0" stroke="transparent" fill="#000000" transform="matrix(0.0833333 0 0 0.0833333 1227.96 302.795)" style="font:normal normal normal 200px 'Arial'" >
OH</text>
<text x="0" y="0" stroke="transparent" fill="#000000" transform="matrix(0.0833333 0 0 0.0833333 1227.96 202.827)" style="font:normal normal normal 200px 'Arial'" >
OH</text>
<text x="0" y="0" stroke="transparent" fill="#000000" transform="matrix(0.0833333 0 0 0.0833333 1141.39 152.842)" style="font:normal normal normal 200px 'Arial'" >
OH</text>
<text x="0" y="0" stroke="transparent" fill="#000000" transform="matrix(0.0833333 0 0 0.0833333 968.238 152.842)" style="font:normal normal normal 200px 'Arial'" >
OH</text>
<text x="0" y="0" stroke="transparent" fill="#000000" transform="matrix(0.0833333 0 0 0.0833333 795.088 152.842)" style="font:normal normal normal 200px 'Arial'" >
O</text>
<text x="0" y="0" stroke="transparent" fill="#000000" transform="matrix(0.0833333 0 0 0.0833333 884.038 148.181)" style="font:normal normal normal 200px 'Arial'" >
O</text>
<text x="0" y="0" stroke="transparent" fill="#000000" transform="matrix(0.0833333 0 0 0.0833333 978.593 58.6979)" style="font:normal normal normal 200px 'Arial'" >
OH</text>
<text x="0" y="0" stroke="transparent" fill="#000000" transform="matrix(0.0833333 0 0 0.0833333 875.231 18.0371)" style="font:normal normal normal 200px 'Arial'" >
HO</text>
<text x="0" y="0" stroke="transparent" fill="#000000" transform="matrix(0.0833333 0 0 0.0833333 794.418 44.6938)" style="font:normal normal normal 200px 'Arial'" >
HO</text>
<text x="0" y="0" stroke="transparent" fill="#000000" transform="matrix(0.0833333 0 0 0.0833333 696.476 202.827)" style="font:normal normal normal 200px 'Arial'" >
HO</text>
<text x="0" y="0" stroke="transparent" fill="#000000" transform="matrix(0.0833333 0 0 0.0833333 795.088 352.779)" style="font:normal normal normal 200px 'Arial'" >
OH</text>
<text x="0" y="0" stroke="transparent" fill="#000000" transform="matrix(0.0833333 0 0 0.0833333 795.088 452.748)" style="font:normal normal normal 200px 'Arial'" >
O</text>
<text x="0" y="0" stroke="transparent" fill="#000000" transform="matrix(0.0833333 0 0 0.0833333 838.375 377.772)" style="font:normal normal normal 200px 'Arial'" >
O</text>
<text x="0" y="0" stroke="transparent" fill="#000000" transform="matrix(0.0833333 0 0 0.0833333 1098.1 427.756)" style="font:normal normal normal 200px 'Arial'" >
O</text>
<text x="0" y="0" stroke="transparent" fill="#000000" transform="matrix(0.0833333 0 0 0.0833333 1098.1 527.724)" style="font:normal normal normal 200px 'Arial'" >
O</text>
<text x="0" y="0" stroke="transparent" fill="#000000" transform="matrix(0.0833333 0 0 0.0833333 1011.53 577.709)" style="font:normal normal normal 200px 'Arial'" >
O</text>
<path stroke="transparent" fill="#000000" transform="matrix(0.0833333 0 0 0.0833333 -64.4167 -43.1667)" d="M 9342.77,5878.44 L 9353.15,5872.97 L 9363.52,5878.44 L 9413.15,6472.79 L 9293.15,6472.79 L 9342.77,5878.44 Z " />
<path stroke="transparent" fill="#000000" transform="matrix(0.0833333 0 0 0.0833333 -64.4167 -43.1667)" d="M 9862.68,5567.34 L 9872.6,5573.07 L 9872.05,5584.84 L 9363.52,5878.44 L 9353.15,5872.97 L 9353.15,5861.52 L 9862.68,5567.34 Z " />
<path stroke="transparent" fill="#000000" transform="matrix(0.0833333 0 0 0.0833333 -64.4167 -43.1667)" d="M 9862.68,4978.99 L 9872.6,4973.26 L 9882.52,4979.63 L 9882.52,5566.71 L 9872.6,5573.07 L 9862.68,5567.34 L 9862.68,4978.99 Z " />
<path stroke="transparent" fill="#000000" transform="matrix(0.0833333 0 0 0.0833333 -64.4167 -43.1667)" d="M 9353.15,4684.81 L 9353.15,4661.9 L 9872.04,4961.48 L 9872.6,4973.26 L 9862.68,4978.99 L 9353.15,4684.81 Z " />
<path stroke="transparent" fill="#000000" transform="matrix(0.0833333 0 0 0.0833333 -64.4167 -43.1667)" d="M 8843.62,4978.99 L 8833.7,4973.26 L 8834.26,4961.48 L 9353.15,4661.9 L 9353.15,4684.81 L 8843.62,4978.99 Z " />
<path stroke="transparent" fill="#000000" transform="matrix(0.0833333 0 0 0.0833333 -64.4167 -43.1667)" d="M 8843.62,5467.65 L 8823.77,5467.65 L 8823.77,4979.63 L 8833.7,4973.26 L 8843.62,4978.99 L 8843.62,5467.65 Z " />
<path stroke="transparent" fill="#000000" transform="matrix(0.0833333 0 0 0.0833333 -64.4167 -43.1667)" d="M 8928.99,5639.54 L 8938.91,5622.36 L 9353.15,5861.52 L 9353.15,5872.97 L 9342.77,5878.44 L 8928.99,5639.54 Z " />
<path stroke="transparent" fill="#000000" transform="matrix(0.0833333 0 0 0.0833333 -64.4167 -43.1667)" d="M 8384.5,4783.2 L 8444.5,4679.27 L 8834.26,4961.48 L 8833.7,4973.26 L 8823.77,4979.63 L 8384.5,4783.2 Z " />
<path stroke="transparent" fill="#000000" transform="matrix(0.0833333 0 0 0.0833333 -64.4167 -43.1667)" d="M 7746.56,5012.56 L 7846.91,4931.72 L 8209.46,4722.39 L 8219.38,4739.58 L 7746.56,5012.56 Z " />
<path stroke="transparent" fill="#000000" transform="matrix(0.0833333 0 0 0.0833333 -64.4167 -43.1667)" d="M 7840.7,5467.65 L 7820.86,5467.65 L 7820.86,4952.48 L 7840.7,4952.48 L 7840.7,5467.65 Z " />
<path stroke="transparent" fill="#000000" transform="matrix(0.0833333 0 0 0.0833333 -64.4167 -43.1667)" d="M 7768.73,5467.65 L 7748.88,5467.65 L 7748.88,4952.48 L 7768.73,4952.48 L 7768.73,5467.65 Z " />
<path stroke="transparent" fill="#000000" transform="matrix(0.0833333 0 0 0.0833333 -64.4167 -43.1667)" d="M 7285.26,4692.28 L 7275.34,4673.35 L 7296.69,4672.48 L 7846.91,4931.72 L 7746.56,5012.56 L 7285.26,4692.28 Z " />
<path stroke="transparent" fill="#000000" transform="matrix(0.0833333 0 0 0.0833333 -64.4167 -43.1667)" d="M 7285.26,5278.89 L 7265.42,5267.44 L 7265.42,4679.08 L 7275.34,4673.35 L 7285.26,4692.28 L 7285.26,5278.89 Z " />
<path stroke="transparent" fill="#000000" transform="matrix(0.0833333 0 0 0.0833333 -64.4167 -43.1667)" d="M 6755.89,5584.53 L 6755.89,5561.61 L 7265.42,5267.44 L 7285.26,5278.89 L 6755.89,5584.53 Z " />
<path stroke="transparent" fill="#000000" transform="matrix(0.0833333 0 0 0.0833333 -64.4167 -43.1667)" d="M 6236.44,5284.62 L 6236.44,5273.16 L 6246.36,5267.44 L 6755.89,5561.61 L 6755.89,5584.53 L 6236.44,5284.62 Z " />
<path stroke="transparent" fill="#000000" transform="matrix(0.0833333 0 0 0.0833333 -64.4167 -43.1667)" d="M 6226.52,4679.08 L 6236.44,4673.35 L 6246.36,4679.08 L 6246.36,5267.44 L 6236.44,5273.16 L 6226.52,5267.44 L 6226.52,4679.08 Z " />
<path stroke="transparent" fill="#000000" transform="matrix(0.0833333 0 0 0.0833333 -64.4167 -43.1667)" d="M 5716.99,4384.9 L 5716.99,4361.99 L 6236.44,4661.9 L 6236.44,4673.35 L 6226.52,4679.08 L 5716.99,4384.9 Z " />
<path stroke="transparent" fill="#000000" transform="matrix(0.0833333 0 0 0.0833333 -64.4167 -43.1667)" d="M 5712.03,4465.15 L 5721.95,4447.97 L 6169.42,4706.32 L 6159.5,4723.5 L 5712.03,4465.15 Z " />
<path stroke="transparent" fill="#000000" transform="matrix(0.0833333 0 0 0.0833333 -64.4167 -43.1667)" d="M 5259.57,4648.99 L 5139.38,4695.47 L 5716.99,4361.99 L 5716.99,4384.9 L 5259.57,4648.99 Z " />
<path stroke="transparent" fill="#000000" transform="matrix(0.0833333 0 0 0.0833333 -64.4167 -43.1667)" d="M 5207.91,5267.7 L 5197.53,5273.16 L 5187.16,5267.7 L 5139.38,4695.47 L 5259.57,4648.99 L 5207.91,5267.7 Z " />
<path stroke="transparent" fill="#000000" transform="matrix(0.0833333 0 0 0.0833333 -64.4167 -43.1667)" d="M 5705.56,5555.01 L 5716.99,5573.07 L 5707.07,5578.8 L 5197.53,5284.62 L 5197.53,5273.16 L 5207.91,5267.7 L 5705.56,5555.01 Z " />
<path stroke="transparent" fill="#000000" transform="matrix(0.0833333 0 0 0.0833333 -64.4167 -43.1667)" d="M 5726.91,5578.8 L 5716.99,5573.07 L 5728.41,5555.01 L 6226.52,5267.44 L 6236.44,5273.16 L 6236.44,5284.62 L 5726.91,5578.8 Z " />
<path stroke="transparent" fill="#000000" transform="matrix(0.0833333 0 0 0.0833333 -64.4167 -43.1667)" d="M 5726.91,6178.61 L 5707.07,6167.15 L 5707.07,5578.8 L 5716.99,5573.07 L 5726.91,5578.8 L 5726.91,6178.61 Z " />
<path stroke="transparent" fill="#000000" transform="matrix(0.0833333 0 0 0.0833333 -64.4167 -43.1667)" d="M 5149.3,6512.09 L 5249.65,6431.24 L 5707.07,6167.15 L 5726.91,6178.61 L 5149.3,6512.09 Z " />
<path stroke="transparent" fill="#000000" transform="matrix(0.0833333 0 0 0.0833333 -64.4167 -43.1667)" d="M 4677.63,6184.6 L 4678.08,6172.88 L 4688,6166.63 L 5249.65,6431.24 L 5149.3,6512.09 L 4677.63,6184.6 Z " />
<path stroke="transparent" fill="#000000" transform="matrix(0.0833333 0 0 0.0833333 -64.4167 -43.1667)" d="M 4668.16,5578.8 L 4678.08,5573.07 L 4688,5578.8 L 4688,6166.63 L 4678.08,6172.88 L 4668.16,6167.15 L 4668.16,5578.8 Z " />
<path stroke="transparent" fill="#000000" transform="matrix(0.0833333 0 0 0.0833333 -64.4167 -43.1667)" d="M 4688,5578.8 L 4678.08,5573.07 L 4689.51,5555.01 L 5187.16,5267.7 L 5197.53,5273.16 L 5197.53,5284.62 L 4688,5578.8 Z " />
<path stroke="transparent" fill="#000000" transform="matrix(0.0833333 0 0 0.0833333 -64.4167 -43.1667)" d="M 4158.63,5284.62 L 4158.63,5261.71 L 4666.65,5555.01 L 4678.08,5573.07 L 4668.16,5578.8 L 4158.63,5284.62 Z " />
<path stroke="transparent" fill="#000000" transform="matrix(0.0833333 0 0 0.0833333 -64.4167 -43.1667)" d="M 3649.1,5578.8 L 3639.18,5573.07 L 3639.74,5561.29 L 4158.63,5261.71 L 4158.63,5284.62 L 3649.1,5578.8 Z " />
<path stroke="transparent" fill="#000000" transform="matrix(0.0833333 0 0 0.0833333 -64.4167 -43.1667)" d="M 3649.1,6167.15 L 3639.18,6172.88 L 3629.26,6166.52 L 3629.26,5579.44 L 3639.18,5573.07 L 3649.1,5578.8 L 3649.1,6167.15 Z " />
<path stroke="transparent" fill="#000000" transform="matrix(0.0833333 0 0 0.0833333 -64.4167 -43.1667)" d="M 4158.63,6461.33 L 4158.63,6472.79 L 4137.28,6471.92 L 3639.73,6184.65 L 3639.18,6172.88 L 3649.1,6167.15 L 4158.63,6461.33 Z " />
<path stroke="transparent" fill="#000000" transform="matrix(0.0833333 0 0 0.0833333 -64.4167 -43.1667)" d="M 4168.55,6478.51 L 4158.63,6472.79 L 4158.63,6461.33 L 4668.16,6167.15 L 4678.08,6172.88 L 4677.63,6184.6 L 4168.55,6478.51 Z " />
<path stroke="transparent" fill="#000000" transform="matrix(0.0833333 0 0 0.0833333 -64.4167 -43.1667)" d="M 3669.18,6824.65 L 3609.18,6720.73 L 4137.28,6471.92 L 4158.63,6472.79 L 4148.71,6491.71 L 3669.18,6824.65 Z " />
<path stroke="transparent" fill="#000000" transform="matrix(0.0833333 0 0 0.0833333 -64.4167 -43.1667)" d="M 4168.55,7078.32 L 4148.71,7066.87 L 4148.71,6491.71 L 4158.63,6472.79 L 4168.55,6478.51 L 4168.55,7078.32 Z " />
<path stroke="transparent" fill="#000000" transform="matrix(0.0833333 0 0 0.0833333 -64.4167 -43.1667)" d="M 4608.2,7279.14 L 4598.28,7296.33 L 4153.67,7039.63 L 4163.59,7022.45 L 4608.2,7279.14 Z " />
<path stroke="transparent" fill="#000000" transform="matrix(0.0833333 0 0 0.0833333 -64.4167 -43.1667)" d="M 4572.21,7341.48 L 4562.29,7358.66 L 4117.68,7101.97 L 4127.6,7084.78 L 4572.21,7341.48 Z " />
<path stroke="transparent" fill="#000000" transform="matrix(0.0833333 0 0 0.0833333 -64.4167 -43.1667)" d="M 3736.97,7327.5 L 3727.05,7310.32 L 4148.71,7066.87 L 4168.55,7078.32 L 3736.97,7327.5 Z " />
<path stroke="transparent" fill="#000000" transform="matrix(0.0833333 0 0 0.0833333 -64.4167 -43.1667)" d="M 3242.57,6471.15 L 3182.57,6367.22 L 3629.26,6166.52 L 3639.18,6172.88 L 3639.73,6184.65 L 3242.57,6471.15 Z " />
<path stroke="transparent" fill="#000000" transform="matrix(0.0833333 0 0 0.0833333 -64.4167 -43.1667)" d="M 2599.73,6184.65 L 2600.28,6172.88 L 2610.2,6166.52 L 3056.89,6367.22 L 2996.89,6471.15 L 2599.73,6184.65 Z " />
<path stroke="transparent" fill="#000000" transform="matrix(0.0833333 0 0 0.0833333 -64.4167 -43.1667)" d="M 2080.83,6484.24 L 2080.83,6461.33 L 2590.36,6167.15 L 2600.28,6172.88 L 2599.73,6184.65 L 2080.83,6484.24 Z " />
<path stroke="transparent" fill="#000000" transform="matrix(0.0833333 0 0 0.0833333 -64.4167 -43.1667)" d="M 1561.92,6184.65 L 1561.37,6172.88 L 1571.29,6167.15 L 2080.83,6461.33 L 2080.83,6484.24 L 1561.92,6184.65 Z " />
<path stroke="transparent" fill="#000000" transform="matrix(0.0833333 0 0 0.0833333 -64.4167 -43.1667)" d="M 1551.45,5567.34 L 1571.29,5578.8 L 1571.29,6167.15 L 1561.37,6172.88 L 1551.45,6166.52 L 1551.45,5567.34 Z " />
<path stroke="transparent" fill="#000000" transform="matrix(0.0833333 0 0 0.0833333 -64.4167 -43.1667)" d="M 2070.45,5267.7 L 2080.83,5273.16 L 2080.83,5284.62 L 1571.29,5578.8 L 1551.45,5567.34 L 2070.45,5267.7 Z " />
<path stroke="transparent" fill="#000000" transform="matrix(0.0833333 0 0 0.0833333 -64.4167 -43.1667)" d="M 2512.4,5510.88 L 2502.48,5528.06 L 2080.83,5284.62 L 2080.83,5273.16 L 2091.2,5267.7 L 2512.4,5510.88 Z " />
<path stroke="transparent" fill="#000000" transform="matrix(0.0833333 0 0 0.0833333 -64.4167 -43.1667)" d="M 2590.36,5693.15 L 2610.2,5693.15 L 2610.2,6166.52 L 2600.28,6172.88 L 2590.36,6167.15 L 2590.36,5693.15 Z " />
<path stroke="transparent" fill="#000000" transform="matrix(0.0833333 0 0 0.0833333 -64.4167 -43.1667)" d="M 2018.79,4648.99 L 2138.98,4695.47 L 2091.2,5267.7 L 2080.83,5273.16 L 2070.45,5267.7 L 2018.79,4648.99 Z " />
<path stroke="transparent" fill="#000000" transform="matrix(0.0833333 0 0 0.0833333 -64.4167 -43.1667)" d="M 1656.66,4439.92 L 1666.58,4422.73 L 2138.98,4695.47 L 2018.79,4648.99 L 1656.66,4439.92 Z " />
<path stroke="transparent" fill="#000000" transform="matrix(0.0833333 0 0 0.0833333 -64.4167 -43.1667)" d="M 1112.17,5383 L 1172.17,5279.08 L 1188.2,5291 L 1130.51,5390.92 L 1112.17,5383 Z " />
<path stroke="transparent" fill="#000000" transform="matrix(0.0833333 0 0 0.0833333 -64.4167 -43.1667)" d="M 1166.35,5406.4 L 1219.52,5314.3 L 1235.55,5326.22 L 1184.69,5414.32 L 1166.35,5406.4 Z " />
<path stroke="transparent" fill="#000000" transform="matrix(0.0833333 0 0 0.0833333 -64.4167 -43.1667)" d="M 1220.53,5429.8 L 1266.88,5349.52 L 1282.91,5361.44 L 1238.87,5437.73 L 1220.53,5429.8 Z " />
<path stroke="transparent" fill="#000000" transform="matrix(0.0833333 0 0 0.0833333 -64.4167 -43.1667)" d="M 1274.71,5453.21 L 1314.24,5384.74 L 1330.26,5396.66 L 1293.05,5461.13 L 1274.71,5453.21 Z " />
<path stroke="transparent" fill="#000000" transform="matrix(0.0833333 0 0 0.0833333 -64.4167 -43.1667)" d="M 1328.89,5476.61 L 1361.59,5419.96 L 1377.62,5431.88 L 1347.23,5484.53 L 1328.89,5476.61 Z " />
<path stroke="transparent" fill="#000000" transform="matrix(0.0833333 0 0 0.0833333 -64.4167 -43.1667)" d="M 1383.07,5500.01 L 1408.95,5455.18 L 1424.98,5467.1 L 1401.41,5507.93 L 1383.07,5500.01 Z " />
<path stroke="transparent" fill="#000000" transform="matrix(0.0833333 0 0 0.0833333 -64.4167 -43.1667)" d="M 1437.25,5523.41 L 1456.3,5490.4 L 1472.33,5502.32 L 1455.59,5531.33 L 1437.25,5523.41 Z " />
<path stroke="transparent" fill="#000000" transform="matrix(0.0833333 0 0 0.0833333 -64.4167 -43.1667)" d="M 1491.43,5546.81 L 1503.66,5525.62 L 1519.69,5537.55 L 1509.76,5554.73 L 1491.43,5546.81 Z " />
<path stroke="transparent" fill="#000000" transform="matrix(0.0833333 0 0 0.0833333 -64.4167 -43.1667)" d="M 1164.75,6471.15 L 1104.75,6367.23 L 1551.45,6166.52 L 1561.37,6172.88 L 1561.92,6184.65 L 1164.75,6471.15 Z " />
<path stroke="transparent" fill="#000000" transform="matrix(0.0833333 0 0 0.0833333 -64.4167 -43.1667)" d="M 2140.83,6967.18 L 2020.83,6967.18 L 2023.08,6947.34 L 2138.57,6947.34 L 2140.83,6967.18 Z " />
<path stroke="transparent" fill="#000000" transform="matrix(0.0833333 0 0 0.0833333 -64.4167 -43.1667)" d="M 2133.99,6907.09 L 2027.66,6907.09 L 2029.91,6887.24 L 2131.74,6887.24 L 2133.99,6907.09 Z " />
<path stroke="transparent" fill="#000000" transform="matrix(0.0833333 0 0 0.0833333 -64.4167 -43.1667)" d="M 2127.16,6846.99 L 2034.49,6846.99 L 2036.74,6827.15 L 2124.91,6827.15 L 2127.16,6846.99 Z " />
<path stroke="transparent" fill="#000000" transform="matrix(0.0833333 0 0 0.0833333 -64.4167 -43.1667)" d="M 2120.33,6786.9 L 2041.32,6786.9 L 2043.58,6767.06 L 2118.07,6767.06 L 2120.33,6786.9 Z " />
<path stroke="transparent" fill="#000000" transform="matrix(0.0833333 0 0 0.0833333 -64.4167 -43.1667)" d="M 2113.5,6726.81 L 2048.15,6726.81 L 2050.41,6706.97 L 2111.24,6706.97 L 2113.5,6726.81 Z " />
<path stroke="transparent" fill="#000000" transform="matrix(0.0833333 0 0 0.0833333 -64.4167 -43.1667)" d="M 2106.67,6666.71 L 2054.98,6666.71 L 2057.24,6646.87 L 2104.41,6646.87 L 2106.67,6666.71 Z " />
<path stroke="transparent" fill="#000000" transform="matrix(0.0833333 0 0 0.0833333 -64.4167 -43.1667)" d="M 2099.83,6606.62 L 2061.82,6606.62 L 2064.07,6586.78 L 2097.58,6586.78 L 2099.83,6606.62 Z " />
<path stroke="transparent" fill="#000000" transform="matrix(0.0833333 0 0 0.0833333 -64.4167 -43.1667)" d="M 2093,6546.53 L 2068.65,6546.53 L 2070.9,6526.69 L 2090.75,6526.69 L 2093,6546.53 Z " />
<path stroke="transparent" fill="#000000" transform="matrix(0.0833333 0 0 0.0833333 -64.4167 -43.1667)" d="M 3189.97,5383 L 3249.97,5279.08 L 3639.74,5561.29 L 3639.18,5573.07 L 3629.26,5579.44 L 3189.97,5383 Z " />
<path stroke="transparent" fill="#000000" transform="matrix(0.0833333 0 0 0.0833333 -64.4167 -43.1667)" d="M 4618.08,4973.26 L 4738.08,4973.26 L 4689.51,5555.01 L 4678.08,5573.07 L 4666.65,5555.01 L 4618.08,4973.26 Z " />
<path stroke="transparent" fill="#000000" transform="matrix(0.0833333 0 0 0.0833333 -64.4167 -43.1667)" d="M 5656.99,4973.26 L 5776.99,4973.26 L 5728.41,5555.01 L 5716.99,5573.07 L 5705.56,5555.01 L 5656.99,4973.26 Z " />
<path stroke="transparent" fill="#000000" transform="matrix(0.0833333 0 0 0.0833333 -64.4167 -43.1667)" d="M 6755.89,4361.99 L 6755.89,4384.9 L 6246.36,4679.08 L 6236.44,4673.35 L 6236.44,4661.9 L 6755.89,4361.99 Z " />
<path stroke="transparent" fill="#000000" transform="matrix(0.0833333 0 0 0.0833333 -64.4167 -43.1667)" d="M 6755.89,4384.9 L 6755.89,4361.99 L 7275.34,4661.9 L 7275.34,4673.35 L 7265.42,4679.08 L 6755.89,4384.9 Z " />
<path stroke="transparent" fill="#000000" transform="matrix(0.0833333 0 0 0.0833333 -64.4167 -43.1667)" d="M 6695.89,3827.57 L 6815.89,3827.57 L 6813.87,3847.41 L 6697.91,3847.41 L 6695.89,3827.57 Z " />
<path stroke="transparent" fill="#000000" transform="matrix(0.0833333 0 0 0.0833333 -64.4167 -43.1667)" d="M 6701.9,3886.58 L 6809.88,3886.58 L 6807.86,3906.42 L 6703.92,3906.42 L 6701.9,3886.58 Z " />
<path stroke="transparent" fill="#000000" transform="matrix(0.0833333 0 0 0.0833333 -64.4167 -43.1667)" d="M 6707.9,3945.59 L 6803.87,3945.59 L 6801.85,3965.44 L 6709.92,3965.44 L 6707.9,3945.59 Z " />
<path stroke="transparent" fill="#000000" transform="matrix(0.0833333 0 0 0.0833333 -64.4167 -43.1667)" d="M 6713.91,4004.61 L 6797.87,4004.61 L 6795.85,4024.45 L 6715.93,4024.45 L 6713.91,4004.61 Z " />
<path stroke="transparent" fill="#000000" transform="matrix(0.0833333 0 0 0.0833333 -64.4167 -43.1667)" d="M 6719.92,4063.62 L 6791.86,4063.62 L 6789.84,4083.46 L 6721.94,4083.46 L 6719.92,4063.62 Z " />
<path stroke="transparent" fill="#000000" transform="matrix(0.0833333 0 0 0.0833333 -64.4167 -43.1667)" d="M 6725.93,4122.63 L 6785.85,4122.63 L 6783.83,4142.48 L 6727.95,4142.48 L 6725.93,4122.63 Z " />
<path stroke="transparent" fill="#000000" transform="matrix(0.0833333 0 0 0.0833333 -64.4167 -43.1667)" d="M 6731.93,4181.65 L 6779.85,4181.65 L 6777.83,4201.49 L 6733.95,4201.49 L 6731.93,4181.65 Z " />
<path stroke="transparent" fill="#000000" transform="matrix(0.0833333 0 0 0.0833333 -64.4167 -43.1667)" d="M 6737.94,4240.66 L 6773.84,4240.66 L 6771.82,4260.5 L 6739.96,4260.5 L 6737.94,4240.66 Z " />
<path stroke="transparent" fill="#000000" transform="matrix(0.0833333 0 0 0.0833333 -64.4167 -43.1667)" d="M 6743.95,4299.67 L 6767.83,4299.67 L 6765.81,4319.52 L 6745.97,4319.52 L 6743.95,4299.67 Z " />
<path stroke="transparent" fill="#000000" transform="matrix(0.0833333 0 0 0.0833333 -64.4167 -43.1667)" d="M 7261.79,3470.1 L 7275.34,3473.73 L 7275.34,3485.19 L 6760.85,3782.23 L 6750.93,3765.04 L 7261.79,3470.1 Z " />
<path stroke="transparent" fill="#000000" transform="matrix(0.0833333 0 0 0.0833333 -64.4167 -43.1667)" d="M 7804.71,3767.91 L 7784.87,3779.36 L 7275.34,3485.19 L 7275.34,3473.73 L 7288.89,3470.1 L 7804.71,3767.91 Z " />
<path stroke="transparent" fill="#000000" transform="matrix(0.0833333 0 0 0.0833333 -64.4167 -43.1667)" d="M 7804.71,4379.18 L 7784.87,4367.72 L 7784.87,3779.36 L 7804.71,3767.91 L 7804.71,4379.18 Z " />
<path stroke="transparent" fill="#000000" transform="matrix(0.0833333 0 0 0.0833333 -64.4167 -43.1667)" d="M 7784.87,4367.72 L 7804.71,4379.18 L 7296.69,4672.48 L 7275.34,4673.35 L 7275.34,4661.9 L 7784.87,4367.72 Z " />
<path stroke="transparent" fill="#000000" transform="matrix(0.0833333 0 0 0.0833333 -64.4167 -43.1667)" d="M 6966.84,2959.24 L 6984.03,2949.32 L 7275.34,3453.89 L 7275.34,3473.73 L 7261.79,3470.1 L 6966.84,2959.24 Z " />
<path stroke="transparent" fill="#000000" transform="matrix(0.0833333 0 0 0.0833333 -64.4167 -43.1667)" d="M 7566.65,2949.32 L 7583.84,2959.24 L 7288.89,3470.1 L 7275.34,3473.73 L 7275.34,3453.89 L 7566.65,2949.32 Z " />
<path stroke="transparent" fill="#000000" transform="matrix(0.0833333 0 0 0.0833333 -64.4167 -43.1667)" d="M 6296.44,5819.04 L 6176.44,5819.04 L 6178.46,5799.2 L 6294.42,5799.2 L 6296.44,5819.04 Z " />
<path stroke="transparent" fill="#000000" transform="matrix(0.0833333 0 0 0.0833333 -64.4167 -43.1667)" d="M 6290.43,5760.03 L 6182.45,5760.03 L 6184.47,5740.19 L 6288.41,5740.19 L 6290.43,5760.03 Z " />
<path stroke="transparent" fill="#000000" transform="matrix(0.0833333 0 0 0.0833333 -64.4167 -43.1667)" d="M 6284.42,5701.02 L 6188.45,5701.02 L 6190.47,5681.17 L 6282.4,5681.17 L 6284.42,5701.02 Z " />
<path stroke="transparent" fill="#000000" transform="matrix(0.0833333 0 0 0.0833333 -64.4167 -43.1667)" d="M 6278.42,5642 L 6194.46,5642 L 6196.48,5622.16 L 6276.4,5622.16 L 6278.42,5642 Z " />
<path stroke="transparent" fill="#000000" transform="matrix(0.0833333 0 0 0.0833333 -64.4167 -43.1667)" d="M 6272.41,5582.99 L 6200.47,5582.99 L 6202.49,5563.15 L 6270.39,5563.15 L 6272.41,5582.99 Z " />
<path stroke="transparent" fill="#000000" transform="matrix(0.0833333 0 0 0.0833333 -64.4167 -43.1667)" d="M 6266.4,5523.98 L 6206.47,5523.98 L 6208.49,5504.13 L 6264.38,5504.13 L 6266.4,5523.98 Z " />
<path stroke="transparent" fill="#000000" transform="matrix(0.0833333 0 0 0.0833333 -64.4167 -43.1667)" d="M 6260.39,5464.96 L 6212.48,5464.96 L 6214.5,5445.12 L 6258.37,5445.12 L 6260.39,5464.96 Z " />
<path stroke="transparent" fill="#000000" transform="matrix(0.0833333 0 0 0.0833333 -64.4167 -43.1667)" d="M 6254.39,5405.95 L 6218.49,5405.95 L 6220.51,5386.11 L 6252.37,5386.11 L 6254.39,5405.95 Z " />
<path stroke="transparent" fill="#000000" transform="matrix(0.0833333 0 0 0.0833333 -64.4167 -43.1667)" d="M 6248.38,5346.94 L 6224.5,5346.94 L 6226.52,5327.1 L 6246.36,5327.1 L 6248.38,5346.94 Z " />
<path stroke="transparent" fill="#000000" transform="matrix(0.0833333 0 0 0.0833333 -64.4167 -43.1667)" d="M 6668.01,6110.69 L 6658.09,6127.87 L 6231.48,5881.57 L 6241.4,5864.38 L 6668.01,6110.69 Z " />
<path stroke="transparent" fill="#000000" transform="matrix(0.0833333 0 0 0.0833333 -64.4167 -43.1667)" d="M 9293.15,4193.63 L 9413.15,4193.63 L 9410.81,4213.47 L 9295.48,4213.47 L 9293.15,4193.63 Z " />
<path stroke="transparent" fill="#000000" transform="matrix(0.0833333 0 0 0.0833333 -64.4167 -43.1667)" d="M 9299.97,4251.62 L 9406.33,4251.62 L 9403.99,4271.46 L 9302.3,4271.46 L 9299.97,4251.62 Z " />
<path stroke="transparent" fill="#000000" transform="matrix(0.0833333 0 0 0.0833333 -64.4167 -43.1667)" d="M 9306.79,4309.61 L 9399.51,4309.61 L 9397.17,4329.45 L 9309.12,4329.45 L 9306.79,4309.61 Z " />
<path stroke="transparent" fill="#000000" transform="matrix(0.0833333 0 0 0.0833333 -64.4167 -43.1667)" d="M 9313.61,4367.6 L 9392.69,4367.6 L 9390.35,4387.45 L 9315.94,4387.45 L 9313.61,4367.6 Z " />
<path stroke="transparent" fill="#000000" transform="matrix(0.0833333 0 0 0.0833333 -64.4167 -43.1667)" d="M 9320.43,4425.59 L 9385.86,4425.59 L 9383.53,4445.44 L 9322.76,4445.44 L 9320.43,4425.59 Z " />
<path stroke="transparent" fill="#000000" transform="matrix(0.0833333 0 0 0.0833333 -64.4167 -43.1667)" d="M 9327.25,4483.59 L 9379.04,4483.59 L 9376.71,4503.43 L 9329.58,4503.43 L 9327.25,4483.59 Z " />
<path stroke="transparent" fill="#000000" transform="matrix(0.0833333 0 0 0.0833333 -64.4167 -43.1667)" d="M 9334.07,4541.58 L 9372.22,4541.58 L 9369.89,4561.42 L 9336.41,4561.42 L 9334.07,4541.58 Z " />
<path stroke="transparent" fill="#000000" transform="matrix(0.0833333 0 0 0.0833333 -64.4167 -43.1667)" d="M 9340.89,4599.57 L 9365.4,4599.57 L 9363.07,4619.41 L 9343.23,4619.41 L 9340.89,4599.57 Z " />
<path stroke="transparent" fill="#000000" transform="matrix(0.0833333 0 0 0.0833333 -64.4167 -43.1667)" d="M 9862.68,3767.27 L 9872.6,3773.64 L 9873.15,3785.41 L 9475.98,4071.9 L 9415.98,3967.98 L 9862.68,3767.27 Z " />
<path stroke="transparent" fill="#000000" transform="matrix(0.0833333 0 0 0.0833333 -64.4167 -43.1667)" d="M 9862.68,3168.1 L 9882.52,3179.55 L 9882.52,3767.91 L 9872.6,3773.64 L 9862.68,3767.27 L 9862.68,3168.1 Z " />
<path stroke="transparent" fill="#000000" transform="matrix(0.0833333 0 0 0.0833333 -64.4167 -43.1667)" d="M 10392.1,2862.46 L 10392.1,2885.38 L 9882.52,3179.55 L 9862.68,3168.1 L 10392.1,2862.46 Z " />
<path stroke="transparent" fill="#000000" transform="matrix(0.0833333 0 0 0.0833333 -64.4167 -43.1667)" d="M 10910.9,3162.05 L 10911.5,3173.83 L 10901.6,3179.55 L 10392.1,2885.38 L 10392.1,2862.46 L 10910.9,3162.05 Z " />
<path stroke="transparent" fill="#000000" transform="matrix(0.0833333 0 0 0.0833333 -64.4167 -43.1667)" d="M 10921.4,3779.36 L 10901.6,3767.91 L 10901.6,3179.55 L 10911.5,3173.83 L 10921.4,3180.2 L 10921.4,3779.36 Z " />
<path stroke="transparent" fill="#000000" transform="matrix(0.0833333 0 0 0.0833333 -64.4167 -43.1667)" d="M 10489.8,4028.53 L 10479.9,4011.35 L 10901.6,3767.91 L 10921.4,3779.36 L 10489.8,4028.53 Z " />
<path stroke="transparent" fill="#000000" transform="matrix(0.0833333 0 0 0.0833333 -64.4167 -43.1667)" d="M 10304.2,4011.35 L 10294.3,4028.53 L 9873.15,3785.41 L 9872.6,3773.64 L 9882.52,3767.91 L 10304.2,4011.35 Z " />
<path stroke="transparent" fill="#000000" transform="matrix(0.0833333 0 0 0.0833333 -64.4167 -43.1667)" d="M 11461,4021.58 L 11401,4125.5 L 11384.7,4114.01 L 11442.9,4013.24 L 11461,4021.58 Z " />
<path stroke="transparent" fill="#000000" transform="matrix(0.0833333 0 0 0.0833333 -64.4167 -43.1667)" d="M 11407.7,3997 L 11353,4091.64 L 11336.7,4080.14 L 11389.6,3988.65 L 11407.7,3997 Z " />
<path stroke="transparent" fill="#000000" transform="matrix(0.0833333 0 0 0.0833333 -64.4167 -43.1667)" d="M 11354.4,3972.42 L 11305.1,4057.77 L 11288.8,4046.27 L 11336.3,3964.07 L 11354.4,3972.42 Z " />
<path stroke="transparent" fill="#000000" transform="matrix(0.0833333 0 0 0.0833333 -64.4167 -43.1667)" d="M 11301.1,3947.84 L 11257.1,4023.9 L 11240.9,4012.4 L 11283,3939.49 L 11301.1,3947.84 Z " />
<path stroke="transparent" fill="#000000" transform="matrix(0.0833333 0 0 0.0833333 -64.4167 -43.1667)" d="M 11247.8,3923.26 L 11209.2,3990.03 L 11192.9,3978.53 L 11229.7,3914.91 L 11247.8,3923.26 Z " />
<path stroke="transparent" fill="#000000" transform="matrix(0.0833333 0 0 0.0833333 -64.4167 -43.1667)" d="M 11194.5,3898.68 L 11161.3,3956.16 L 11145,3944.67 L 11176.4,3890.33 L 11194.5,3898.68 Z " />
<path stroke="transparent" fill="#000000" transform="matrix(0.0833333 0 0 0.0833333 -64.4167 -43.1667)" d="M 11141.2,3874.1 L 11113.3,3922.3 L 11097.1,3910.8 L 11123.1,3865.75 L 11141.2,3874.1 Z " />
<path stroke="transparent" fill="#000000" transform="matrix(0.0833333 0 0 0.0833333 -64.4167 -43.1667)" d="M 11087.9,3849.52 L 11065.4,3888.43 L 11049.1,3876.93 L 11069.8,3841.17 L 11087.9,3849.52 Z " />
<path stroke="transparent" fill="#000000" transform="matrix(0.0833333 0 0 0.0833333 -64.4167 -43.1667)" d="M 11034.6,3824.94 L 11017.5,3854.56 L 11001.2,3843.06 L 11016.5,3816.59 L 11034.6,3824.94 Z " />
<path stroke="transparent" fill="#000000" transform="matrix(0.0833333 0 0 0.0833333 -64.4167 -43.1667)" d="M 10981.3,3800.35 L 10969.5,3820.69 L 10953.2,3809.19 L 10963.2,3792.01 L 10981.3,3800.35 Z " />
<path stroke="transparent" fill="#000000" transform="matrix(0.0833333 0 0 0.0833333 -64.4167 -43.1667)" d="M 11301.1,2879.59 L 11361.1,2983.51 L 10921.4,3180.2 L 10911.5,3173.83 L 10910.9,3162.05 L 11301.1,2879.59 Z " />
<path stroke="transparent" fill="#000000" transform="matrix(0.0833333 0 0 0.0833333 -64.4167 -43.1667)" d="M 11951,3162.05 L 11950.4,3173.83 L 11940.5,3180.2 L 11501.2,2983.76 L 11561.2,2879.84 L 11951,3162.05 Z " />
<path stroke="transparent" fill="#000000" transform="matrix(0.0833333 0 0 0.0833333 -64.4167 -43.1667)" d="M 12469.9,2862.46 L 12469.9,2885.38 L 11960.3,3179.55 L 11950.4,3173.83 L 11951,3162.05 L 12469.9,2862.46 Z " />
<path stroke="transparent" fill="#000000" transform="matrix(0.0833333 0 0 0.0833333 -64.4167 -43.1667)" d="M 12988.7,3162.05 L 12989.3,3173.83 L 12979.4,3179.55 L 12469.9,2885.38 L 12469.9,2862.46 L 12988.7,3162.05 Z " />
<path stroke="transparent" fill="#000000" transform="matrix(0.0833333 0 0 0.0833333 -64.4167 -43.1667)" d="M 12999.2,3779.36 L 12979.4,3767.91 L 12979.4,3179.55 L 12989.3,3173.83 L 12999.2,3180.2 L 12999.2,3779.36 Z " />
<path stroke="transparent" fill="#000000" transform="matrix(0.0833333 0 0 0.0833333 -64.4167 -43.1667)" d="M 12469.9,4085 L 12469.9,4062.09 L 12979.4,3767.91 L 12999.2,3779.36 L 12469.9,4085 Z " />
<path stroke="transparent" fill="#000000" transform="matrix(0.0833333 0 0 0.0833333 -64.4167 -43.1667)" d="M 12045.7,3840.11 L 12055.6,3822.93 L 12469.9,4062.09 L 12469.9,4085 L 12045.7,3840.11 Z " />
<path stroke="transparent" fill="#000000" transform="matrix(0.0833333 0 0 0.0833333 -64.4167 -43.1667)" d="M 11960.3,3668.22 L 11940.5,3668.22 L 11940.5,3180.2 L 11950.4,3173.83 L 11960.3,3179.55 L 11960.3,3668.22 Z " />
<path stroke="transparent" fill="#000000" transform="matrix(0.0833333 0 0 0.0833333 -64.4167 -43.1667)" d="M 13445.9,3967.98 L 13385.9,4071.9 L 13369.9,4060.02 L 13427.6,3960.02 L 13445.9,3967.98 Z " />
<path stroke="transparent" fill="#000000" transform="matrix(0.0833333 0 0 0.0833333 -64.4167 -43.1667)" d="M 13390.7,3943.98 L 13337.5,4036.07 L 13321.5,4024.19 L 13372.4,3936.02 L 13390.7,3943.98 Z " />
<path stroke="transparent" fill="#000000" transform="matrix(0.0833333 0 0 0.0833333 -64.4167 -43.1667)" d="M 13335.5,3919.98 L 13289.1,4000.24 L 13273.1,3988.36 L 13317.1,3912.02 L 13335.5,3919.98 Z " />
<path stroke="transparent" fill="#000000" transform="matrix(0.0833333 0 0 0.0833333 -64.4167 -43.1667)" d="M 13280.2,3895.97 L 13240.7,3964.41 L 13224.7,3952.52 L 13261.9,3888.02 L 13280.2,3895.97 Z " />
<path stroke="transparent" fill="#000000" transform="matrix(0.0833333 0 0 0.0833333 -64.4167 -43.1667)" d="M 13225,3871.97 L 13192.3,3928.57 L 13176.3,3916.69 L 13206.7,3864.01 L 13225,3871.97 Z " />
<path stroke="transparent" fill="#000000" transform="matrix(0.0833333 0 0 0.0833333 -64.4167 -43.1667)" d="M 13169.8,3847.97 L 13143.9,3892.74 L 13127.9,3880.86 L 13151.4,3840.01 L 13169.8,3847.97 Z " />
<path stroke="transparent" fill="#000000" transform="matrix(0.0833333 0 0 0.0833333 -64.4167 -43.1667)" d="M 13114.5,3823.97 L 13095.5,3856.91 L 13079.5,3845.02 L 13096.2,3816.01 L 13114.5,3823.97 Z " />
<path stroke="transparent" fill="#000000" transform="matrix(0.0833333 0 0 0.0833333 -64.4167 -43.1667)" d="M 13059.3,3799.97 L 13047.1,3821.07 L 13031,3809.19 L 13041,3792.01 L 13059.3,3799.97 Z " />
<path stroke="transparent" fill="#000000" transform="matrix(0.0833333 0 0 0.0833333 -64.4167 -43.1667)" d="M 13378.9,2879.59 L 13438.9,2983.51 L 12999.2,3180.2 L 12989.3,3173.83 L 12988.7,3162.05 L 13378.9,2879.59 Z " />
<path stroke="transparent" fill="#000000" transform="matrix(0.0833333 0 0 0.0833333 -64.4167 -43.1667)" d="M 14028.8,3162.05 L 14028.2,3173.83 L 14018.3,3180.2 L 13579,2983.76 L 13639,2879.84 L 14028.8,3162.05 Z " />
<path stroke="transparent" fill="#000000" transform="matrix(0.0833333 0 0 0.0833333 -64.4167 -43.1667)" d="M 14547.7,2862.46 L 14547.7,2885.38 L 14038.1,3179.55 L 14028.2,3173.83 L 14028.8,3162.05 L 14547.7,2862.46 Z " />
<path stroke="transparent" fill="#000000" transform="matrix(0.0833333 0 0 0.0833333 -64.4167 -43.1667)" d="M 15066.6,3162.05 L 15067.1,3173.83 L 15057.2,3179.55 L 14547.7,2885.38 L 14547.7,2862.46 L 15066.6,3162.05 Z " />
<path stroke="transparent" fill="#000000" transform="matrix(0.0833333 0 0 0.0833333 -64.4167 -43.1667)" d="M 15077,3767.27 L 15067.1,3773.64 L 15057.2,3767.91 L 15057.2,3179.55 L 15067.1,3173.83 L 15077,3180.2 L 15077,3767.27 Z " />
<path stroke="transparent" fill="#000000" transform="matrix(0.0833333 0 0 0.0833333 -64.4167 -43.1667)" d="M 14547.7,4085 L 14547.7,4062.09 L 15057.2,3767.91 L 15067.1,3773.64 L 15066.6,3785.41 L 14547.7,4085 Z " />
<path stroke="transparent" fill="#000000" transform="matrix(0.0833333 0 0 0.0833333 -64.4167 -43.1667)" d="M 14123.5,3840.11 L 14133.4,3822.93 L 14547.7,4062.09 L 14547.7,4085 L 14123.5,3840.11 Z " />
<path stroke="transparent" fill="#000000" transform="matrix(0.0833333 0 0 0.0833333 -64.4167 -43.1667)" d="M 14038.1,3668.22 L 14018.3,3668.22 L 14018.3,3180.2 L 14028.2,3173.83 L 14038.1,3179.55 L 14038.1,3668.22 Z " />
<path stroke="transparent" fill="#000000" transform="matrix(0.0833333 0 0 0.0833333 -64.4167 -43.1667)" d="M 15523.7,3967.98 L 15463.7,4071.9 L 15066.6,3785.41 L 15067.1,3773.64 L 15077,3767.27 L 15523.7,3967.98 Z " />
<path stroke="transparent" fill="#000000" transform="matrix(0.0833333 0 0 0.0833333 -64.4167 -43.1667)" d="M 15456.7,2879.59 L 15516.7,2983.51 L 15077,3180.2 L 15067.1,3173.83 L 15066.6,3162.05 L 15456.7,2879.59 Z " />
<path stroke="transparent" fill="#000000" transform="matrix(0.0833333 0 0 0.0833333 -64.4167 -43.1667)" d="M 14487.7,2394.19 L 14607.7,2394.19 L 14605.3,2414.04 L 14490,2414.04 L 14487.7,2394.19 Z " />
<path stroke="transparent" fill="#000000" transform="matrix(0.0833333 0 0 0.0833333 -64.4167 -43.1667)" d="M 14494.5,2452.19 L 14600.8,2452.19 L 14598.5,2472.03 L 14496.8,2472.03 L 14494.5,2452.19 Z " />
<path stroke="transparent" fill="#000000" transform="matrix(0.0833333 0 0 0.0833333 -64.4167 -43.1667)" d="M 14501.3,2510.18 L 14594,2510.18 L 14591.7,2530.02 L 14503.6,2530.02 L 14501.3,2510.18 Z " />
<path stroke="transparent" fill="#000000" transform="matrix(0.0833333 0 0 0.0833333 -64.4167 -43.1667)" d="M 14508.1,2568.17 L 14587.2,2568.17 L 14584.9,2588.01 L 14510.5,2588.01 L 14508.1,2568.17 Z " />
<path stroke="transparent" fill="#000000" transform="matrix(0.0833333 0 0 0.0833333 -64.4167 -43.1667)" d="M 14514.9,2626.16 L 14580.4,2626.16 L 14578,2646 L 14517.3,2646 L 14514.9,2626.16 Z " />
<path stroke="transparent" fill="#000000" transform="matrix(0.0833333 0 0 0.0833333 -64.4167 -43.1667)" d="M 14521.8,2684.15 L 14573.6,2684.15 L 14571.2,2704 L 14524.1,2704 L 14521.8,2684.15 Z " />
<path stroke="transparent" fill="#000000" transform="matrix(0.0833333 0 0 0.0833333 -64.4167 -43.1667)" d="M 14528.6,2742.15 L 14566.7,2742.15 L 14564.4,2761.99 L 14530.9,2761.99 L 14528.6,2742.15 Z " />
<path stroke="transparent" fill="#000000" transform="matrix(0.0833333 0 0 0.0833333 -64.4167 -43.1667)" d="M 14535.4,2800.14 L 14559.9,2800.14 L 14557.6,2819.98 L 14537.7,2819.98 L 14535.4,2800.14 Z " />
<path stroke="transparent" fill="#000000" transform="matrix(0.0833333 0 0 0.0833333 -64.4167 -43.1667)" d="M 12409.9,2394.19 L 12529.9,2394.19 L 12527.5,2414.04 L 12412.2,2414.04 L 12409.9,2394.19 Z " />
<path stroke="transparent" fill="#000000" transform="matrix(0.0833333 0 0 0.0833333 -64.4167 -43.1667)" d="M 12416.7,2452.19 L 12523,2452.19 L 12520.7,2472.03 L 12419,2472.03 L 12416.7,2452.19 Z " />
<path stroke="transparent" fill="#000000" transform="matrix(0.0833333 0 0 0.0833333 -64.4167 -43.1667)" d="M 12423.5,2510.18 L 12516.2,2510.18 L 12513.9,2530.02 L 12425.8,2530.02 L 12423.5,2510.18 Z " />
<path stroke="transparent" fill="#000000" transform="matrix(0.0833333 0 0 0.0833333 -64.4167 -43.1667)" d="M 12430.3,2568.17 L 12509.4,2568.17 L 12507.1,2588.01 L 12432.7,2588.01 L 12430.3,2568.17 Z " />
<path stroke="transparent" fill="#000000" transform="matrix(0.0833333 0 0 0.0833333 -64.4167 -43.1667)" d="M 12437.1,2626.16 L 12502.6,2626.16 L 12500.2,2646 L 12439.5,2646 L 12437.1,2626.16 Z " />
<path stroke="transparent" fill="#000000" transform="matrix(0.0833333 0 0 0.0833333 -64.4167 -43.1667)" d="M 12444,2684.15 L 12495.8,2684.15 L 12493.4,2704 L 12446.3,2704 L 12444,2684.15 Z " />
<path stroke="transparent" fill="#000000" transform="matrix(0.0833333 0 0 0.0833333 -64.4167 -43.1667)" d="M 12450.8,2742.15 L 12488.9,2742.15 L 12486.6,2761.99 L 12453.1,2761.99 L 12450.8,2742.15 Z " />
<path stroke="transparent" fill="#000000" transform="matrix(0.0833333 0 0 0.0833333 -64.4167 -43.1667)" d="M 12457.6,2800.14 L 12482.1,2800.14 L 12479.8,2819.98 L 12459.9,2819.98 L 12457.6,2800.14 Z " />
<path stroke="transparent" fill="#000000" transform="matrix(0.0833333 0 0 0.0833333 -64.4167 -43.1667)" d="M 10332.1,2394.19 L 10452.1,2394.19 L 10449.7,2414.04 L 10334.4,2414.04 L 10332.1,2394.19 Z " />
<path stroke="transparent" fill="#000000" transform="matrix(0.0833333 0 0 0.0833333 -64.4167 -43.1667)" d="M 10338.9,2452.19 L 10445.2,2452.19 L 10442.9,2472.03 L 10341.2,2472.03 L 10338.9,2452.19 Z " />
<path stroke="transparent" fill="#000000" transform="matrix(0.0833333 0 0 0.0833333 -64.4167 -43.1667)" d="M 10345.7,2510.18 L 10438.4,2510.18 L 10436.1,2530.02 L 10348,2530.02 L 10345.7,2510.18 Z " />
<path stroke="transparent" fill="#000000" transform="matrix(0.0833333 0 0 0.0833333 -64.4167 -43.1667)" d="M 10352.5,2568.17 L 10431.6,2568.17 L 10429.3,2588.01 L 10354.8,2588.01 L 10352.5,2568.17 Z " />
<path stroke="transparent" fill="#000000" transform="matrix(0.0833333 0 0 0.0833333 -64.4167 -43.1667)" d="M 10359.3,2626.16 L 10424.8,2626.16 L 10422.4,2646 L 10361.7,2646 L 10359.3,2626.16 Z " />
<path stroke="transparent" fill="#000000" transform="matrix(0.0833333 0 0 0.0833333 -64.4167 -43.1667)" d="M 10366.2,2684.15 L 10417.9,2684.15 L 10415.6,2704 L 10368.5,2704 L 10366.2,2684.15 Z " />
<path stroke="transparent" fill="#000000" transform="matrix(0.0833333 0 0 0.0833333 -64.4167 -43.1667)" d="M 10373,2742.15 L 10411.1,2742.15 L 10408.8,2761.99 L 10375.3,2761.99 L 10373,2742.15 Z " />
<path stroke="transparent" fill="#000000" transform="matrix(0.0833333 0 0 0.0833333 -64.4167 -43.1667)" d="M 10379.8,2800.14 L 10404.3,2800.14 L 10402,2819.98 L 10382.1,2819.98 L 10379.8,2800.14 Z " />
<path stroke="transparent" fill="#000000" transform="matrix(0.0833333 0 0 0.0833333 -64.4167 -43.1667)" d="M 10902.2,1967.55 L 10911.5,1974.2 L 10912.6,1985.56 L 10514.9,2272.47 L 10454.9,2168.55 L 10902.2,1967.55 Z " />
<path stroke="transparent" fill="#000000" transform="matrix(0.0833333 0 0 0.0833333 -64.4167 -43.1667)" d="M 10965.1,1369.47 L 10983.3,1385.88 L 10922.1,1968.07 L 10911.5,1974.2 L 10902.2,1967.55 L 10965.1,1369.47 Z " />
<path stroke="transparent" fill="#000000" transform="matrix(0.0833333 0 0 0.0833333 -64.4167 -43.1667)" d="M 11556.4,1243.78 L 11560.9,1252.97 L 11555.9,1264.17 L 10983.3,1385.88 L 10965.1,1369.47 L 11556.4,1243.78 Z " />
<path stroke="transparent" fill="#000000" transform="matrix(0.0833333 0 0 0.0833333 -64.4167 -43.1667)" d="M 11873,1773.7 L 11848.6,1771.14 L 11555.9,1264.17 L 11560.9,1252.97 L 11574.3,1256.39 L 11873,1773.7 Z " />
<path stroke="transparent" fill="#000000" transform="matrix(0.0833333 0 0 0.0833333 -64.4167 -43.1667)" d="M 11538.5,2145.25 L 11523.7,2131.98 L 11848.6,1771.14 L 11873,1773.7 L 11538.5,2145.25 Z " />
<path stroke="transparent" fill="#000000" transform="matrix(0.0833333 0 0 0.0833333 -64.4167 -43.1667)" d="M 11365.6,2165.53 L 11357.6,2183.66 L 10912.6,1985.56 L 10911.5,1974.2 L 10922.1,1968.07 L 11365.6,2165.53 Z " />
<path stroke="transparent" fill="#000000" transform="matrix(0.0833333 0 0 0.0833333 -64.4167 -43.1667)" d="M 11994.1,866.364 L 12102.3,936.279 L 11574.3,1256.39 L 11560.9,1252.97 L 11556.4,1243.78 L 11994.1,866.364 Z " />
<path stroke="transparent" fill="#000000" transform="matrix(0.0833333 0 0 0.0833333 -64.4167 -43.1667)" d="M 12500.3,1091.74 L 12492.2,1109.87 L 12102.3,936.279 L 11994.1,866.364 L 12500.3,1091.74 Z " />
<path stroke="transparent" fill="#000000" transform="matrix(0.0833333 0 0 0.0833333 -64.4167 -43.1667)" d="M 11451,781.709 L 11570.4,769.166 L 11570.1,789.143 L 11455.4,801.199 L 11451,781.709 Z " />
<path stroke="transparent" fill="#000000" transform="matrix(0.0833333 0 0 0.0833333 -64.4167 -43.1667)" d="M 11463.9,838.742 L 11569.7,827.624 L 11569.4,847.602 L 11468.3,858.232 L 11463.9,838.742 Z " />
<path stroke="transparent" fill="#000000" transform="matrix(0.0833333 0 0 0.0833333 -64.4167 -43.1667)" d="M 11476.7,895.774 L 11569,886.083 L 11568.7,906.06 L 11481.1,915.264 L 11476.7,895.774 Z " />
<path stroke="transparent" fill="#000000" transform="matrix(0.0833333 0 0 0.0833333 -64.4167 -43.1667)" d="M 11489.6,952.806 L 11568.2,944.541 L 11568,964.518 L 11494,972.297 L 11489.6,952.806 Z " />
<path stroke="transparent" fill="#000000" transform="matrix(0.0833333 0 0 0.0833333 -64.4167 -43.1667)" d="M 11502.5,1009.84 L 11567.5,1003 L 11567.3,1022.98 L 11506.8,1029.33 L 11502.5,1009.84 Z " />
<path stroke="transparent" fill="#000000" transform="matrix(0.0833333 0 0 0.0833333 -64.4167 -43.1667)" d="M 11515.3,1066.87 L 11566.8,1061.46 L 11566.6,1081.44 L 11519.7,1086.36 L 11515.3,1066.87 Z " />
<path stroke="transparent" fill="#000000" transform="matrix(0.0833333 0 0 0.0833333 -64.4167 -43.1667)" d="M 11528.2,1123.9 L 11566.1,1119.92 L 11565.9,1139.89 L 11532.6,1143.39 L 11528.2,1123.9 Z " />
<path stroke="transparent" fill="#000000" transform="matrix(0.0833333 0 0 0.0833333 -64.4167 -43.1667)" d="M 11541,1180.94 L 11565.4,1178.37 L 11565.1,1198.35 L 11545.4,1200.43 L 11541,1180.94 Z " />
<path stroke="transparent" fill="#000000" transform="matrix(0.0833333 0 0 0.0833333 -64.4167 -43.1667)" d="M 10576.4,1100.28 L 10656.7,1011.1 L 10669.9,1026.11 L 10592.8,1111.83 L 10576.4,1100.28 Z " />
<path stroke="transparent" fill="#000000" transform="matrix(0.0833333 0 0 0.0833333 -64.4167 -43.1667)" d="M 10624.3,1134.16 L 10695.4,1055.12 L 10708.6,1070.13 L 10640.6,1145.71 L 10624.3,1134.16 Z " />
<path stroke="transparent" fill="#000000" transform="matrix(0.0833333 0 0 0.0833333 -64.4167 -43.1667)" d="M 10672.1,1168.04 L 10734.1,1099.14 L 10747.3,1114.15 L 10688.4,1179.59 L 10672.1,1168.04 Z " />
<path stroke="transparent" fill="#000000" transform="matrix(0.0833333 0 0 0.0833333 -64.4167 -43.1667)" d="M 10719.9,1201.92 L 10772.8,1143.16 L 10786,1158.17 L 10736.2,1213.47 L 10719.9,1201.92 Z " />
<path stroke="transparent" fill="#000000" transform="matrix(0.0833333 0 0 0.0833333 -64.4167 -43.1667)" d="M 10767.7,1235.8 L 10811.5,1187.18 L 10824.7,1202.19 L 10784,1247.35 L 10767.7,1235.8 Z " />
<path stroke="transparent" fill="#000000" transform="matrix(0.0833333 0 0 0.0833333 -64.4167 -43.1667)" d="M 10815.6,1269.69 L 10850.2,1231.21 L 10863.4,1246.21 L 10831.9,1281.24 L 10815.6,1269.69 Z " />
<path stroke="transparent" fill="#000000" transform="matrix(0.0833333 0 0 0.0833333 -64.4167 -43.1667)" d="M 10863.4,1303.57 L 10888.9,1275.23 L 10902.1,1290.23 L 10879.7,1315.12 L 10863.4,1303.57 Z " />
<path stroke="transparent" fill="#000000" transform="matrix(0.0833333 0 0 0.0833333 -64.4167 -43.1667)" d="M 10911.2,1337.45 L 10927.6,1319.25 L 10940.8,1334.25 L 10927.5,1349 L 10911.2,1337.45 Z " />
<path stroke="transparent" fill="#000000" transform="matrix(0.0833333 0 0 0.0833333 -64.4167 -43.1667)" d="M 9423.39,2983.76 L 9483.39,2879.84 L 9499.42,2891.76 L 9441.73,2991.68 L 9423.39,2983.76 Z " />
<path stroke="transparent" fill="#000000" transform="matrix(0.0833333 0 0 0.0833333 -64.4167 -43.1667)" d="M 9477.57,3007.16 L 9530.75,2915.06 L 9546.78,2926.98 L 9495.91,3015.08 L 9477.57,3007.16 Z " />
<path stroke="transparent" fill="#000000" transform="matrix(0.0833333 0 0 0.0833333 -64.4167 -43.1667)" d="M 9531.75,3030.56 L 9578.1,2950.28 L 9594.13,2962.2 L 9550.09,3038.48 L 9531.75,3030.56 Z " />
<path stroke="transparent" fill="#000000" transform="matrix(0.0833333 0 0 0.0833333 -64.4167 -43.1667)" d="M 9585.93,3053.96 L 9625.46,2985.5 L 9641.49,2997.42 L 9604.27,3061.88 L 9585.93,3053.96 Z " />
<path stroke="transparent" fill="#000000" transform="matrix(0.0833333 0 0 0.0833333 -64.4167 -43.1667)" d="M 9640.11,3077.36 L 9672.82,3020.72 L 9688.85,3032.64 L 9658.45,3085.28 L 9640.11,3077.36 Z " />
<path stroke="transparent" fill="#000000" transform="matrix(0.0833333 0 0 0.0833333 -64.4167 -43.1667)" d="M 9694.29,3100.76 L 9720.17,3055.94 L 9736.2,3067.86 L 9712.63,3108.68 L 9694.29,3100.76 Z " />
<path stroke="transparent" fill="#000000" transform="matrix(0.0833333 0 0 0.0833333 -64.4167 -43.1667)" d="M 9748.47,3124.16 L 9767.53,3091.16 L 9783.56,3103.08 L 9766.81,3132.08 L 9748.47,3124.16 Z " />
<path stroke="transparent" fill="#000000" transform="matrix(0.0833333 0 0 0.0833333 -64.4167 -43.1667)" d="M 9802.65,3147.56 L 9814.88,3126.38 L 9830.91,3138.3 L 9820.99,3155.49 L 9802.65,3147.56 Z " />
<path stroke="transparent" fill="#000000" transform="matrix(0.0833333 0 0 0.0833333 -64.4167 -43.1667)" d="M 10262.2,4679.02 L 10322.2,4782.95 L 9882.52,4979.63 L 9872.6,4973.26 L 9872.04,4961.48 L 10262.2,4679.02 Z " />
<path stroke="transparent" fill="#000000" transform="matrix(0.0833333 0 0 0.0833333 -64.4167 -43.1667)" d="M 10329.2,5767.41 L 10269.2,5871.34 L 9872.05,5584.84 L 9872.6,5573.07 L 9882.52,5566.71 L 10329.2,5767.41 Z " />
<path stroke="transparent" fill="#000000" transform="matrix(0.0833333 0 0 0.0833333 -64.4167 -43.1667)" d="M 10911.5,5561.61 L 10911.5,5584.53 L 10489.8,5827.97 L 10479.9,5810.78 L 10911.5,5561.61 Z " />
<path stroke="transparent" fill="#000000" transform="matrix(0.0833333 0 0 0.0833333 -64.4167 -43.1667)" d="M 10865.6,5093.34 L 10885.4,5093.34 L 10885.4,5593.85 L 10865.6,5593.85 L 10865.6,5093.34 Z " />
<path stroke="transparent" fill="#000000" transform="matrix(0.0833333 0 0 0.0833333 -64.4167 -43.1667)" d="M 10937.6,5093.34 L 10957.4,5093.34 L 10957.4,5593.85 L 10937.6,5593.85 L 10937.6,5093.34 Z " />
<path stroke="transparent" fill="#000000" transform="matrix(0.0833333 0 0 0.0833333 -64.4167 -43.1667)" d="M 11431,5861.52 L 11431,5884.43 L 10911.5,5584.53 L 10911.5,5561.61 L 11431,5861.52 Z " />
<path stroke="transparent" fill="#000000" transform="matrix(0.0833333 0 0 0.0833333 -64.4167 -43.1667)" d="M 11950.4,5561.61 L 11950.4,5584.53 L 11431,5884.43 L 11431,5861.52 L 11950.4,5561.61 Z " />
<path stroke="transparent" fill="#000000" transform="matrix(0.0833333 0 0 0.0833333 -64.4167 -43.1667)" d="M 11909.5,5502.14 L 11919.4,5519.33 L 11435.9,5798.45 L 11426,5781.27 L 11909.5,5502.14 Z " />
<path stroke="transparent" fill="#000000" transform="matrix(0.0833333 0 0 0.0833333 -64.4167 -43.1667)" d="M 12469.9,5861.52 L 12469.9,5872.97 L 12459.9,5878.7 L 11950.4,5584.53 L 11950.4,5561.61 L 12469.9,5861.52 Z " />
<path stroke="transparent" fill="#000000" transform="matrix(0.0833333 0 0 0.0833333 -64.4167 -43.1667)" d="M 12479.8,6467.06 L 12459.9,6478.51 L 12459.9,5878.7 L 12469.9,5872.97 L 12479.8,5878.7 L 12479.8,6467.06 Z " />
<path stroke="transparent" fill="#000000" transform="matrix(0.0833333 0 0 0.0833333 -64.4167 -43.1667)" d="M 12551.8,6431.23 L 12531.9,6431.23 L 12531.9,5914.53 L 12551.8,5914.53 L 12551.8,6431.23 Z " />
<path stroke="transparent" fill="#000000" transform="matrix(0.0833333 0 0 0.0833333 -64.4167 -43.1667)" d="M 12989.3,6761.24 L 12989.3,6772.69 L 12979.4,6778.42 L 12459.9,6478.51 L 12479.8,6467.06 L 12989.3,6761.24 Z " />
<path stroke="transparent" fill="#000000" transform="matrix(0.0833333 0 0 0.0833333 -64.4167 -43.1667)" d="M 13498.8,6467.06 L 13508.8,6472.79 L 13508.8,6484.24 L 12999.2,6778.42 L 12989.3,6772.69 L 12989.3,6761.24 L 13498.8,6467.06 Z " />
<path stroke="transparent" fill="#000000" transform="matrix(0.0833333 0 0 0.0833333 -64.4167 -43.1667)" d="M 13431.8,6422.64 L 13441.7,6439.82 L 12994.3,6698.17 L 12984.3,6680.99 L 13431.8,6422.64 Z " />
<path stroke="transparent" fill="#000000" transform="matrix(0.0833333 0 0 0.0833333 -64.4167 -43.1667)" d="M 13498.8,5878.7 L 13508.8,5872.97 L 13518.7,5878.7 L 13518.7,6467.06 L 13508.8,6472.79 L 13498.8,6467.06 L 13498.8,5878.7 Z " />
<path stroke="transparent" fill="#000000" transform="matrix(0.0833333 0 0 0.0833333 -64.4167 -43.1667)" d="M 12989.3,5584.53 L 12989.3,5561.61 L 13508.8,5861.52 L 13508.8,5872.97 L 13498.8,5878.7 L 12989.3,5584.53 Z " />
<path stroke="transparent" fill="#000000" transform="matrix(0.0833333 0 0 0.0833333 -64.4167 -43.1667)" d="M 12984.3,5664.77 L 12994.3,5647.59 L 13441.7,5905.94 L 13431.8,5923.12 L 12984.3,5664.77 Z " />
<path stroke="transparent" fill="#000000" transform="matrix(0.0833333 0 0 0.0833333 -64.4167 -43.1667)" d="M 12989.3,5561.61 L 12989.3,5584.53 L 12479.8,5878.7 L 12469.9,5872.97 L 12469.9,5861.52 L 12989.3,5561.61 Z " />
<path stroke="transparent" fill="#000000" transform="matrix(0.0833333 0 0 0.0833333 -64.4167 -43.1667)" d="M 13923.4,5622.11 L 13933.4,5639.29 L 13518.7,5878.7 L 13508.8,5872.97 L 13508.8,5861.52 L 13923.4,5622.11 Z " />
<path stroke="transparent" fill="#000000" transform="matrix(0.0833333 0 0 0.0833333 -64.4167 -43.1667)" d="M 14552.6,5864.38 L 14542.7,5881.57 L 14123.5,5639.54 L 14133.4,5622.36 L 14552.6,5864.38 Z " />
<path stroke="transparent" fill="#000000" transform="matrix(0.0833333 0 0 0.0833333 -64.4167 -43.1667)" d="M 13940.3,6710.5 L 13930.4,6727.68 L 13508.8,6484.24 L 13508.8,6472.79 L 13518.7,6467.06 L 13940.3,6710.5 Z " />
<path stroke="transparent" fill="#000000" transform="matrix(0.0833333 0 0 0.0833333 -64.4167 -43.1667)" d="M 14542.7,6464.19 L 14552.6,6481.38 L 14126,6727.68 L 14116.1,6710.5 L 14542.7,6464.19 Z " />
<path stroke="transparent" fill="#000000" transform="matrix(0.0833333 0 0 0.0833333 -64.4167 -43.1667)" d="M 12999.2,7267.08 L 12979.4,7267.08 L 12979.4,6778.42 L 12989.3,6772.69 L 12999.2,6778.42 L 12999.2,7267.08 Z " />
<path stroke="transparent" fill="#000000" transform="matrix(0.0833333 0 0 0.0833333 -64.4167 -43.1667)" d="M 13513.7,7663.82 L 13503.8,7681 L 13084.6,7438.98 L 13094.5,7421.79 L 13513.7,7663.82 Z " />
</svg>
