<?xml version="1.0" standalone="no" ?>
<!DOCTYPE svg PUBLIC "-//W3C//DTD SVG 1.1//EN" "http://www.w3.org/Graphics/SVG/1.1/DTD/svg11.dtd">
<svg width="487px" height="383px" viewBox="0 0 487 383" style="background-color: #ffffff00" xmlns="http://www.w3.org/2000/svg" xmlns:xlink="http://www.w3.org/1999/xlink" version="1.1" >
<text x="0" y="0" stroke="transparent" fill="#000000" transform="matrix(0.0833333 0 0 0.0833333 41.3526 229.359)" style="font:normal normal normal 200px 'Arial'" >
O</text>
<text x="0" y="0" stroke="transparent" fill="#000000" transform="matrix(0.0833333 0 0 0.0833333 84.6539 304.359)" style="font:normal normal normal 200px 'Arial'" >
O</text>
<text x="0" y="0" stroke="transparent" fill="#000000" transform="matrix(0.0833333 0 0 0.0833333 214.558 379.359)" style="font:normal normal normal 200px 'Arial'" >
O</text>
<text x="0" y="0" stroke="transparent" fill="#000000" transform="matrix(0.0833333 0 0 0.0833333 115.919 379.359)" style="font:normal normal normal 200px 'Arial'" >
HO</text>
<path stroke="transparent" fill="#000000" transform="matrix(0.0833333 0 0 0.0833333 -187.25 -78.1667)" d="M 2821.23,4200.76 L 2821.23,4223.85 L 2306.62,4520.97 L 2296.62,4503.65 L 2821.23,4200.76 Z " />
<path stroke="transparent" fill="#000000" transform="matrix(0.0833333 0 0 0.0833333 -187.25 -78.1667)" d="M 2775.23,3732.14 L 2795.23,3732.14 L 2795.23,4233.09 L 2775.23,4233.09 L 2775.23,3732.14 Z " />
<path stroke="transparent" fill="#000000" transform="matrix(0.0833333 0 0 0.0833333 -187.25 -78.1667)" d="M 2847.23,3732.14 L 2867.23,3732.14 L 2867.23,4233.09 L 2847.23,4233.09 L 2847.23,3732.14 Z " />
<path stroke="transparent" fill="#000000" transform="matrix(0.0833333 0 0 0.0833333 -187.25 -78.1667)" d="M 3253.23,4450.17 L 3243.23,4467.49 L 2821.23,4223.85 L 2821.23,4200.76 L 3253.23,4450.17 Z " />
<path stroke="transparent" fill="#000000" transform="matrix(0.0833333 0 0 0.0833333 -187.25 -78.1667)" d="M 3808.69,4230.65 L 3818.69,4247.97 L 3802.51,4259.94 L 3790.23,4238.68 L 3808.69,4230.65 Z " />
<path stroke="transparent" fill="#000000" transform="matrix(0.0833333 0 0 0.0833333 -187.25 -78.1667)" d="M 3753.44,4254.68 L 3770.26,4283.81 L 3754.07,4295.78 L 3734.98,4262.71 L 3753.44,4254.68 Z " />
<path stroke="transparent" fill="#000000" transform="matrix(0.0833333 0 0 0.0833333 -187.25 -78.1667)" d="M 3698.19,4278.71 L 3721.82,4319.64 L 3705.64,4331.62 L 3679.73,4286.73 L 3698.19,4278.71 Z " />
<path stroke="transparent" fill="#000000" transform="matrix(0.0833333 0 0 0.0833333 -187.25 -78.1667)" d="M 3642.93,4302.73 L 3673.39,4355.48 L 3657.21,4367.45 L 3624.47,4310.76 L 3642.93,4302.73 Z " />
<path stroke="transparent" fill="#000000" transform="matrix(0.0833333 0 0 0.0833333 -187.25 -78.1667)" d="M 3587.68,4326.76 L 3624.95,4391.32 L 3608.77,4403.29 L 3569.22,4334.79 L 3587.68,4326.76 Z " />
<path stroke="transparent" fill="#000000" transform="matrix(0.0833333 0 0 0.0833333 -187.25 -78.1667)" d="M 3532.43,4350.79 L 3576.52,4427.15 L 3560.34,4439.12 L 3513.97,4358.82 L 3532.43,4350.79 Z " />
<path stroke="transparent" fill="#000000" transform="matrix(0.0833333 0 0 0.0833333 -187.25 -78.1667)" d="M 3477.18,4374.82 L 3528.08,4462.99 L 3511.9,4474.96 L 3458.72,4382.84 L 3477.18,4374.82 Z " />
<path stroke="transparent" fill="#000000" transform="matrix(0.0833333 0 0 0.0833333 -187.25 -78.1667)" d="M 3421.92,4398.85 L 3479.65,4498.82 L 3463.47,4510.8 L 3403.47,4406.87 L 3421.92,4398.85 Z " />
<path stroke="transparent" fill="#000000" transform="matrix(0.0833333 0 0 0.0833333 -187.25 -78.1667)" d="M 3850.46,3606.53 L 3870.46,3618.08 L 3870.46,4206.53 L 3850.46,4218.08 L 3850.46,3606.53 Z " />
<path stroke="transparent" fill="#000000" transform="matrix(0.0833333 0 0 0.0833333 -187.25 -78.1667)" d="M 4380.08,3300.76 L 4380.08,3323.85 L 3870.46,3618.08 L 3850.46,3606.53 L 4380.08,3300.76 Z " />
<path stroke="transparent" fill="#000000" transform="matrix(0.0833333 0 0 0.0833333 -187.25 -78.1667)" d="M 4888.18,3594.11 L 4899.69,3612.31 L 4889.69,3618.08 L 4380.08,3323.85 L 4380.08,3300.76 L 4888.18,3594.11 Z " />
<path stroke="transparent" fill="#000000" transform="matrix(0.0833333 0 0 0.0833333 -187.25 -78.1667)" d="M 4909.69,4206 L 4899.69,4212.31 L 4889.69,4206.53 L 4889.69,3618.08 L 4899.69,3612.31 L 4909.69,3618.08 L 4909.69,4206 Z " />
<path stroke="transparent" fill="#000000" transform="matrix(0.0833333 0 0 0.0833333 -187.25 -78.1667)" d="M 4390.08,4518.08 L 4380.08,4512.31 L 4380.08,4500.76 L 4889.69,4206.53 L 4899.69,4212.31 L 4899.23,4224.12 L 4390.08,4518.08 Z " />
<path stroke="transparent" fill="#000000" transform="matrix(0.0833333 0 0 0.0833333 -187.25 -78.1667)" d="M 4380.08,4500.76 L 4380.08,4512.31 L 4370.08,4518.08 L 3850.46,4218.08 L 3870.46,4206.53 L 4380.08,4500.76 Z " />
<path stroke="transparent" fill="#000000" transform="matrix(0.0833333 0 0 0.0833333 -187.25 -78.1667)" d="M 4929.69,4760.35 L 4869.69,4864.27 L 4853.29,4852.68 L 4911.46,4751.93 L 4929.69,4760.35 Z " />
<path stroke="transparent" fill="#000000" transform="matrix(0.0833333 0 0 0.0833333 -187.25 -78.1667)" d="M 4876.4,4735.76 L 4821.75,4830.41 L 4805.35,4818.83 L 4858.17,4727.35 L 4876.4,4735.76 Z " />
<path stroke="transparent" fill="#000000" transform="matrix(0.0833333 0 0 0.0833333 -187.25 -78.1667)" d="M 4823.11,4711.17 L 4773.82,4796.55 L 4757.41,4784.97 L 4804.88,4702.76 L 4823.11,4711.17 Z " />
<path stroke="transparent" fill="#000000" transform="matrix(0.0833333 0 0 0.0833333 -187.25 -78.1667)" d="M 4769.82,4686.58 L 4725.88,4762.7 L 4709.47,4751.11 L 4751.58,4678.17 L 4769.82,4686.58 Z " />
<path stroke="transparent" fill="#000000" transform="matrix(0.0833333 0 0 0.0833333 -187.25 -78.1667)" d="M 4716.53,4662 L 4677.94,4728.84 L 4661.53,4717.25 L 4698.29,4653.58 L 4716.53,4662 Z " />
<path stroke="transparent" fill="#000000" transform="matrix(0.0833333 0 0 0.0833333 -187.25 -78.1667)" d="M 4663.24,4637.41 L 4630,4694.98 L 4613.6,4683.4 L 4645,4629 L 4663.24,4637.41 Z " />
<path stroke="transparent" fill="#000000" transform="matrix(0.0833333 0 0 0.0833333 -187.25 -78.1667)" d="M 4609.95,4612.82 L 4582.06,4661.13 L 4565.66,4649.54 L 4591.71,4604.41 L 4609.95,4612.82 Z " />
<path stroke="transparent" fill="#000000" transform="matrix(0.0833333 0 0 0.0833333 -187.25 -78.1667)" d="M 4556.66,4588.24 L 4534.12,4627.27 L 4517.72,4615.68 L 4538.42,4579.82 L 4556.66,4588.24 Z " />
<path stroke="transparent" fill="#000000" transform="matrix(0.0833333 0 0 0.0833333 -187.25 -78.1667)" d="M 4503.37,4563.65 L 4486.19,4593.41 L 4469.78,4581.83 L 4485.13,4555.23 L 4503.37,4563.65 Z " />
<path stroke="transparent" fill="#000000" transform="matrix(0.0833333 0 0 0.0833333 -187.25 -78.1667)" d="M 4450.08,4539.06 L 4438.25,4559.55 L 4421.84,4547.97 L 4431.84,4530.65 L 4450.08,4539.06 Z " />
<path stroke="transparent" fill="#000000" transform="matrix(0.0833333 0 0 0.0833333 -187.25 -78.1667)" d="M 4390.08,5118.08 L 4370.08,5106.53 L 4370.08,4518.08 L 4380.08,4512.31 L 4390.08,4518.08 L 4390.08,5118.08 Z " />
<path stroke="transparent" fill="#000000" transform="matrix(0.0833333 0 0 0.0833333 -187.25 -78.1667)" d="M 4830.07,5319 L 4820.07,5336.32 L 4375.08,5079.4 L 4385.08,5062.08 L 4830.07,5319 Z " />
<path stroke="transparent" fill="#000000" transform="matrix(0.0833333 0 0 0.0833333 -187.25 -78.1667)" d="M 4794.07,5381.35 L 4784.07,5398.67 L 4339.08,5141.75 L 4349.08,5124.43 L 4794.07,5381.35 Z " />
<path stroke="transparent" fill="#000000" transform="matrix(0.0833333 0 0 0.0833333 -187.25 -78.1667)" d="M 3958.07,5367.5 L 3948.07,5350.18 L 4370.08,5106.53 L 4390.08,5118.08 L 3958.07,5367.5 Z " />
<path stroke="transparent" fill="#000000" transform="matrix(0.0833333 0 0 0.0833333 -187.25 -78.1667)" d="M 5471.33,4470.73 L 5371.14,4551.66 L 4899.23,4224.12 L 4899.69,4212.31 L 4909.69,4206 L 5471.33,4470.73 Z " />
<path stroke="transparent" fill="#000000" transform="matrix(0.0833333 0 0 0.0833333 -187.25 -78.1667)" d="M 5928.92,4206.53 L 5948.92,4218.08 L 5371.14,4551.66 L 5471.33,4470.73 L 5928.92,4206.53 Z " />
<path stroke="transparent" fill="#000000" transform="matrix(0.0833333 0 0 0.0833333 -187.25 -78.1667)" d="M 5928.92,3618.08 L 5938.92,3612.31 L 5948.92,3618.08 L 5948.92,4218.08 L 5928.92,4206.53 L 5928.92,3618.08 Z " />
<path stroke="transparent" fill="#000000" transform="matrix(0.0833333 0 0 0.0833333 -187.25 -78.1667)" d="M 5419.31,3323.85 L 5419.31,3312.31 L 5429.77,3306.8 L 5927.41,3594.11 L 5938.92,3612.31 L 5928.92,3618.08 L 5419.31,3323.85 Z " />
<path stroke="transparent" fill="#000000" transform="matrix(0.0833333 0 0 0.0833333 -187.25 -78.1667)" d="M 5408.85,3306.8 L 5419.31,3312.31 L 5419.31,3323.85 L 4909.69,3618.08 L 4899.69,3612.31 L 4911.21,3594.11 L 5408.85,3306.8 Z " />
<path stroke="transparent" fill="#000000" transform="matrix(0.0833333 0 0 0.0833333 -187.25 -78.1667)" d="M 5361.14,2734.34 L 5481.33,2688.05 L 5429.77,3306.8 L 5419.31,3312.31 L 5408.85,3306.8 L 5361.14,2734.34 Z " />
<path stroke="transparent" fill="#000000" transform="matrix(0.0833333 0 0 0.0833333 -187.25 -78.1667)" d="M 5938.92,2400.76 L 5938.92,2423.85 L 5481.33,2688.05 L 5361.14,2734.34 L 5938.92,2400.76 Z " />
<path stroke="transparent" fill="#000000" transform="matrix(0.0833333 0 0 0.0833333 -187.25 -78.1667)" d="M 6458.54,2700.76 L 6458.54,2712.31 L 6448.54,2718.08 L 5938.92,2423.85 L 5938.92,2400.76 L 6458.54,2700.76 Z " />
<path stroke="transparent" fill="#000000" transform="matrix(0.0833333 0 0 0.0833333 -187.25 -78.1667)" d="M 6391.54,2745.22 L 6381.54,2762.54 L 5933.92,2504.11 L 5943.92,2486.79 L 6391.54,2745.22 Z " />
<path stroke="transparent" fill="#000000" transform="matrix(0.0833333 0 0 0.0833333 -187.25 -78.1667)" d="M 6468.54,3306.53 L 6458.54,3312.31 L 6448.54,3306.53 L 6448.54,2718.08 L 6458.54,2712.31 L 6468.54,2718.08 L 6468.54,3306.53 Z " />
<path stroke="transparent" fill="#000000" transform="matrix(0.0833333 0 0 0.0833333 -187.25 -78.1667)" d="M 6448.54,3306.53 L 6458.54,3312.31 L 6458.54,3323.85 L 5948.92,3618.08 L 5938.92,3612.31 L 5950.44,3594.11 L 6448.54,3306.53 Z " />
<path stroke="transparent" fill="#000000" transform="matrix(0.0833333 0 0 0.0833333 -187.25 -78.1667)" d="M 6978.15,3600.76 L 6978.15,3623.85 L 6458.54,3323.85 L 6458.54,3312.31 L 6468.54,3306.53 L 6978.15,3600.76 Z " />
<path stroke="transparent" fill="#000000" transform="matrix(0.0833333 0 0 0.0833333 -187.25 -78.1667)" d="M 7487.77,3306.53 L 7507.77,3318.08 L 6978.15,3623.85 L 6978.15,3600.76 L 7487.77,3306.53 Z " />
<path stroke="transparent" fill="#000000" transform="matrix(0.0833333 0 0 0.0833333 -187.25 -78.1667)" d="M 7487.77,2718.08 L 7497.77,2712.31 L 7507.77,2731.38 L 7507.77,3318.08 L 7487.77,3306.53 L 7487.77,2718.08 Z " />
<path stroke="transparent" fill="#000000" transform="matrix(0.0833333 0 0 0.0833333 -187.25 -78.1667)" d="M 6978.15,2423.85 L 6978.15,2400.76 L 7497.77,2700.76 L 7497.77,2712.31 L 7487.77,2718.08 L 6978.15,2423.85 Z " />
<path stroke="transparent" fill="#000000" transform="matrix(0.0833333 0 0 0.0833333 -187.25 -78.1667)" d="M 6978.15,2400.76 L 6978.15,2423.85 L 6468.54,2718.08 L 6458.54,2712.31 L 6458.54,2700.76 L 6978.15,2400.76 Z " />
<path stroke="transparent" fill="#000000" transform="matrix(0.0833333 0 0 0.0833333 -187.25 -78.1667)" d="M 6918.15,1866.31 L 7038.15,1866.31 L 7036.12,1886.31 L 6920.19,1886.31 L 6918.15,1866.31 Z " />
<path stroke="transparent" fill="#000000" transform="matrix(0.0833333 0 0 0.0833333 -187.25 -78.1667)" d="M 6924.15,1925.31 L 7032.16,1925.31 L 7030.12,1945.31 L 6926.18,1945.31 L 6924.15,1925.31 Z " />
<path stroke="transparent" fill="#000000" transform="matrix(0.0833333 0 0 0.0833333 -187.25 -78.1667)" d="M 6930.15,1984.31 L 7026.16,1984.31 L 7024.13,2004.31 L 6932.18,2004.31 L 6930.15,1984.31 Z " />
<path stroke="transparent" fill="#000000" transform="matrix(0.0833333 0 0 0.0833333 -187.25 -78.1667)" d="M 6936.14,2043.31 L 7020.17,2043.31 L 7018.13,2063.31 L 6938.17,2063.31 L 6936.14,2043.31 Z " />
<path stroke="transparent" fill="#000000" transform="matrix(0.0833333 0 0 0.0833333 -187.25 -78.1667)" d="M 6942.14,2102.31 L 7014.17,2102.31 L 7012.14,2122.31 L 6944.17,2122.31 L 6942.14,2102.31 Z " />
<path stroke="transparent" fill="#000000" transform="matrix(0.0833333 0 0 0.0833333 -187.25 -78.1667)" d="M 6948.13,2161.31 L 7008.17,2161.31 L 7006.14,2181.31 L 6950.17,2181.31 L 6948.13,2161.31 Z " />
<path stroke="transparent" fill="#000000" transform="matrix(0.0833333 0 0 0.0833333 -187.25 -78.1667)" d="M 6954.13,2220.31 L 7002.18,2220.31 L 7000.15,2240.31 L 6956.16,2240.31 L 6954.13,2220.31 Z " />
<path stroke="transparent" fill="#000000" transform="matrix(0.0833333 0 0 0.0833333 -187.25 -78.1667)" d="M 6960.12,2279.31 L 6996.18,2279.31 L 6994.15,2299.31 L 6962.16,2299.31 L 6960.12,2279.31 Z " />
<path stroke="transparent" fill="#000000" transform="matrix(0.0833333 0 0 0.0833333 -187.25 -78.1667)" d="M 6966.12,2338.31 L 6990.19,2338.31 L 6988.15,2358.31 L 6968.15,2358.31 L 6966.12,2338.31 Z " />
<path stroke="transparent" fill="#000000" transform="matrix(0.0833333 0 0 0.0833333 -187.25 -78.1667)" d="M 7484.11,1508.65 L 7497.77,1512.31 L 7497.77,1523.85 L 6983.15,1820.97 L 6973.15,1803.65 L 7484.11,1508.65 Z " />
<path stroke="transparent" fill="#000000" transform="matrix(0.0833333 0 0 0.0833333 -187.25 -78.1667)" d="M 8027.38,1806.53 L 8007.38,1818.08 L 7497.77,1523.85 L 7497.77,1512.31 L 7511.43,1508.65 L 8027.38,1806.53 Z " />
<path stroke="transparent" fill="#000000" transform="matrix(0.0833333 0 0 0.0833333 -187.25 -78.1667)" d="M 8027.38,2418.08 L 8007.38,2406.53 L 8007.38,1818.08 L 8027.38,1806.53 L 8027.38,2418.08 Z " />
<path stroke="transparent" fill="#000000" transform="matrix(0.0833333 0 0 0.0833333 -187.25 -78.1667)" d="M 8007.38,2406.53 L 8027.38,2418.08 L 7519.28,2711.43 L 7497.77,2712.31 L 7497.77,2700.76 L 8007.38,2406.53 Z " />
<path stroke="transparent" fill="#000000" transform="matrix(0.0833333 0 0 0.0833333 -187.25 -78.1667)" d="M 7189.11,997.692 L 7206.43,987.692 L 7497.77,1492.31 L 7497.77,1512.31 L 7484.11,1508.65 L 7189.11,997.692 Z " />
<path stroke="transparent" fill="#000000" transform="matrix(0.0833333 0 0 0.0833333 -187.25 -78.1667)" d="M 7789.11,987.692 L 7806.43,997.692 L 7511.43,1508.65 L 7497.77,1512.31 L 7497.77,1492.31 L 7789.11,987.692 Z " />
<path stroke="transparent" fill="#000000" transform="matrix(0.0833333 0 0 0.0833333 -187.25 -78.1667)" d="M 8047.38,2960.35 L 7987.38,3064.27 L 7507.77,2731.38 L 7497.77,2712.31 L 7519.28,2711.43 L 8047.38,2960.35 Z " />
<path stroke="transparent" fill="#000000" transform="matrix(0.0833333 0 0 0.0833333 -187.25 -78.1667)" d="M 6518.54,3912.31 L 6398.54,3912.31 L 6400.37,3892.31 L 6516.71,3892.31 L 6518.54,3912.31 Z " />
<path stroke="transparent" fill="#000000" transform="matrix(0.0833333 0 0 0.0833333 -187.25 -78.1667)" d="M 6513.19,3853.86 L 6403.89,3853.86 L 6405.72,3833.86 L 6511.35,3833.86 L 6513.19,3853.86 Z " />
<path stroke="transparent" fill="#000000" transform="matrix(0.0833333 0 0 0.0833333 -187.25 -78.1667)" d="M 6507.83,3795.42 L 6409.24,3795.42 L 6411.07,3775.42 L 6506,3775.42 L 6507.83,3795.42 Z " />
<path stroke="transparent" fill="#000000" transform="matrix(0.0833333 0 0 0.0833333 -187.25 -78.1667)" d="M 6502.48,3736.97 L 6414.59,3736.97 L 6416.43,3716.97 L 6500.65,3716.97 L 6502.48,3736.97 Z " />
<path stroke="transparent" fill="#000000" transform="matrix(0.0833333 0 0 0.0833333 -187.25 -78.1667)" d="M 6497.13,3678.53 L 6419.95,3678.53 L 6421.78,3658.53 L 6495.3,3658.53 L 6497.13,3678.53 Z " />
<path stroke="transparent" fill="#000000" transform="matrix(0.0833333 0 0 0.0833333 -187.25 -78.1667)" d="M 6491.78,3620.09 L 6425.3,3620.09 L 6427.13,3600.09 L 6489.95,3600.09 L 6491.78,3620.09 Z " />
<path stroke="transparent" fill="#000000" transform="matrix(0.0833333 0 0 0.0833333 -187.25 -78.1667)" d="M 6486.43,3561.64 L 6430.65,3561.64 L 6432.48,3541.64 L 6484.59,3541.64 L 6486.43,3561.64 Z " />
<path stroke="transparent" fill="#000000" transform="matrix(0.0833333 0 0 0.0833333 -187.25 -78.1667)" d="M 6481.07,3503.2 L 6436,3503.2 L 6437.83,3483.2 L 6479.24,3483.2 L 6481.07,3503.2 Z " />
<path stroke="transparent" fill="#000000" transform="matrix(0.0833333 0 0 0.0833333 -187.25 -78.1667)" d="M 6475.72,3444.75 L 6441.35,3444.75 L 6443.19,3424.75 L 6473.89,3424.75 L 6475.72,3444.75 Z " />
<path stroke="transparent" fill="#000000" transform="matrix(0.0833333 0 0 0.0833333 -187.25 -78.1667)" d="M 6470.37,3386.31 L 6446.71,3386.31 L 6448.54,3366.31 L 6468.54,3366.31 L 6470.37,3386.31 Z " />
<path stroke="transparent" fill="#000000" transform="matrix(0.0833333 0 0 0.0833333 -187.25 -78.1667)" d="M 5878.92,3012.31 L 5998.92,3012.31 L 5950.44,3594.11 L 5938.92,3612.31 L 5927.41,3594.11 L 5878.92,3012.31 Z " />
<path stroke="transparent" fill="#000000" transform="matrix(0.0833333 0 0 0.0833333 -187.25 -78.1667)" d="M 4839.69,3012.31 L 4959.69,3012.31 L 4911.21,3594.11 L 4899.69,3612.31 L 4888.18,3594.11 L 4839.69,3012.31 Z " />
</svg>
