<?xml version="1.0" standalone="no" ?>
<!DOCTYPE svg PUBLIC "-//W3C//DTD SVG 1.1//EN" "http://www.w3.org/Graphics/SVG/1.1/DTD/svg11.dtd">
<svg width="694px" height="389px" viewBox="0 0 694 389" style="background-color: #ffffff00" xmlns="http://www.w3.org/2000/svg" xmlns:xlink="http://www.w3.org/1999/xlink" version="1.1" >
<text x="0" y="0" stroke="transparent" fill="#000000" transform="matrix(0.0833333 0 0 0.0833333 145.394 385)" style="font:normal normal normal 200px 'Arial'" >
O</text>
<text x="0" y="0" stroke="transparent" fill="#000000" transform="matrix(0.0833333 0 0 0.0833333 46.7556 385)" style="font:normal normal normal 200px 'Arial'" >
HO</text>
<text x="0" y="0" stroke="transparent" fill="#000000" transform="matrix(0.0833333 0 0 0.0833333 3.45434 310)" style="font:normal normal normal 200px 'Arial'" >
HO</text>
<text x="0" y="0" stroke="transparent" fill="#000000" transform="matrix(0.0833333 0 0 0.0833333 3.45434 210)" style="font:normal normal normal 200px 'Arial'" >
HO</text>
<text x="0" y="0" stroke="transparent" fill="#000000" transform="matrix(0.0833333 0 0 0.0833333 256.563 85)" style="font:normal normal normal 200px 'Arial'" >
HO</text>
<text x="0" y="0" stroke="transparent" fill="#000000" transform="matrix(0.0833333 0 0 0.0833333 405.202 235)" style="font:normal normal normal 200px 'Arial'" >
O</text>
<text x="0" y="0" stroke="transparent" fill="#000000" transform="matrix(0.0833333 0 0 0.0833333 448.503 160)" style="font:normal normal normal 200px 'Arial'" >
O</text>
<text x="0" y="0" stroke="transparent" fill="#000000" transform="matrix(0.0833333 0 0 0.0833333 535.106 160)" style="font:normal normal normal 200px 'Arial'" >
O</text>
<text x="0" y="0" stroke="transparent" fill="#000000" transform="matrix(0.0833333 0 0 0.0833333 665.01 185)" style="font:normal normal normal 200px 'Arial'" >
OH</text>
<text x="0" y="0" stroke="transparent" fill="#000000" transform="matrix(0.0833333 0 0 0.0833333 621.708 260)" style="font:normal normal normal 200px 'Arial'" >
OH</text>
<text x="0" y="0" stroke="transparent" fill="#000000" transform="matrix(0.0833333 0 0 0.0833333 535.106 310)" style="font:normal normal normal 200px 'Arial'" >
OH</text>
<text x="0" y="0" stroke="transparent" fill="#000000" transform="matrix(0.0833333 0 0 0.0833333 436.467 260)" style="font:normal normal normal 200px 'Arial'" >
HO</text>
<path stroke="transparent" fill="#000000" transform="matrix(0.0833333 0 0 0.0833333 -97.25 -643.667)" d="M 5597.81,8312 L 5577.81,8312 L 5575.98,8292 L 5599.64,8292 L 5597.81,8312 Z " />
<path stroke="transparent" fill="#000000" transform="matrix(0.0833333 0 0 0.0833333 -97.25 -643.667)" d="M 5603.16,8253.56 L 5572.46,8253.56 L 5570.62,8233.56 L 5604.99,8233.56 L 5603.16,8253.56 Z " />
<path stroke="transparent" fill="#000000" transform="matrix(0.0833333 0 0 0.0833333 -97.25 -643.667)" d="M 5608.51,8195.11 L 5567.1,8195.11 L 5565.27,8175.11 L 5610.34,8175.11 L 5608.51,8195.11 Z " />
<path stroke="transparent" fill="#000000" transform="matrix(0.0833333 0 0 0.0833333 -97.25 -643.667)" d="M 5613.86,8136.67 L 5561.75,8136.67 L 5559.92,8116.67 L 5615.7,8116.67 L 5613.86,8136.67 Z " />
<path stroke="transparent" fill="#000000" transform="matrix(0.0833333 0 0 0.0833333 -97.25 -643.667)" d="M 5619.22,8078.22 L 5556.4,8078.22 L 5554.57,8058.22 L 5621.05,8058.22 L 5619.22,8078.22 Z " />
<path stroke="transparent" fill="#000000" transform="matrix(0.0833333 0 0 0.0833333 -97.25 -643.667)" d="M 5624.57,8019.78 L 5551.05,8019.78 L 5549.22,7999.78 L 5626.4,7999.78 L 5624.57,8019.78 Z " />
<path stroke="transparent" fill="#000000" transform="matrix(0.0833333 0 0 0.0833333 -97.25 -643.667)" d="M 5629.92,7961.33 L 5545.7,7961.33 L 5543.86,7941.33 L 5631.75,7941.33 L 5629.92,7961.33 Z " />
<path stroke="transparent" fill="#000000" transform="matrix(0.0833333 0 0 0.0833333 -97.25 -643.667)" d="M 5635.27,7902.89 L 5540.34,7902.89 L 5538.51,7882.89 L 5637.1,7882.89 L 5635.27,7902.89 Z " />
<path stroke="transparent" fill="#000000" transform="matrix(0.0833333 0 0 0.0833333 -97.25 -643.667)" d="M 5640.62,7844.44 L 5534.99,7844.44 L 5533.16,7824.44 L 5642.46,7824.44 L 5640.62,7844.44 Z " />
<path stroke="transparent" fill="#000000" transform="matrix(0.0833333 0 0 0.0833333 -97.25 -643.667)" d="M 5645.98,7786 L 5529.64,7786 L 5527.81,7766 L 5647.81,7766 L 5645.98,7786 Z " />
<path stroke="transparent" fill="#000000" transform="matrix(0.0833333 0 0 0.0833333 -97.25 -643.667)" d="M 6117.42,8660.23 L 6097.42,8671.77 L 5587.81,8377.55 L 5587.81,8354.45 L 6117.42,8660.23 Z " />
<path stroke="transparent" fill="#000000" transform="matrix(0.0833333 0 0 0.0833333 -97.25 -643.667)" d="M 6117.42,9271.77 L 6097.42,9260.23 L 6097.42,8671.77 L 6117.42,8660.23 L 6117.42,9271.77 Z " />
<path stroke="transparent" fill="#000000" transform="matrix(0.0833333 0 0 0.0833333 -97.25 -643.667)" d="M 5609.32,9565.12 L 5587.81,9566 L 5587.81,9554.45 L 6097.42,9260.23 L 6117.42,9271.77 L 5609.32,9565.12 Z " />
<path stroke="transparent" fill="#000000" transform="matrix(0.0833333 0 0 0.0833333 -97.25 -643.667)" d="M 5597.81,10171.8 L 5577.81,10160.2 L 5577.81,9571.77 L 5587.81,9566 L 5597.81,9585.07 L 5597.81,10171.8 Z " />
<path stroke="transparent" fill="#000000" transform="matrix(0.0833333 0 0 0.0833333 -97.25 -643.667)" d="M 5068.19,10477.5 L 5068.19,10454.5 L 5577.81,10160.2 L 5597.81,10171.8 L 5068.19,10477.5 Z " />
<path stroke="transparent" fill="#000000" transform="matrix(0.0833333 0 0 0.0833333 -97.25 -643.667)" d="M 4548.58,10177.5 L 4548.58,10166 L 4558.58,10160.2 L 5068.19,10454.5 L 5068.19,10477.5 L 4548.58,10177.5 Z " />
<path stroke="transparent" fill="#000000" transform="matrix(0.0833333 0 0 0.0833333 -97.25 -643.667)" d="M 4538.58,9571.77 L 4558.58,9560.23 L 4558.58,10160.2 L 4548.58,10166 L 4538.58,10160.2 L 4538.58,9571.77 Z " />
<path stroke="transparent" fill="#000000" transform="matrix(0.0833333 0 0 0.0833333 -97.25 -643.667)" d="M 4028.96,9277.55 L 4028.96,9254.45 L 4558.58,9560.23 L 4538.58,9571.77 L 4028.96,9277.55 Z " />
<path stroke="transparent" fill="#000000" transform="matrix(0.0833333 0 0 0.0833333 -97.25 -643.667)" d="M 4023.96,9357.8 L 4033.96,9340.48 L 4481.58,9598.91 L 4471.58,9616.23 L 4023.96,9357.8 Z " />
<path stroke="transparent" fill="#000000" transform="matrix(0.0833333 0 0 0.0833333 -97.25 -643.667)" d="M 3571.37,9541.74 L 3451.18,9588.03 L 4028.96,9254.45 L 4028.96,9277.55 L 3571.37,9541.74 Z " />
<path stroke="transparent" fill="#000000" transform="matrix(0.0833333 0 0 0.0833333 -97.25 -643.667)" d="M 3519.81,10160.5 L 3509.35,10166 L 3498.89,10160.5 L 3451.18,9588.03 L 3571.37,9541.74 L 3519.81,10160.5 Z " />
<path stroke="transparent" fill="#000000" transform="matrix(0.0833333 0 0 0.0833333 -97.25 -643.667)" d="M 4017.45,10447.8 L 4028.96,10466 L 4018.96,10471.8 L 3509.35,10177.5 L 3509.35,10166 L 3519.81,10160.5 L 4017.45,10447.8 Z " />
<path stroke="transparent" fill="#000000" transform="matrix(0.0833333 0 0 0.0833333 -97.25 -643.667)" d="M 4038.96,10471.8 L 4028.96,10466 L 4040.48,10447.8 L 4538.58,10160.2 L 4548.58,10166 L 4548.58,10177.5 L 4038.96,10471.8 Z " />
<path stroke="transparent" fill="#000000" transform="matrix(0.0833333 0 0 0.0833333 -97.25 -643.667)" d="M 4038.96,11071.8 L 4018.96,11060.2 L 4018.96,10471.8 L 4028.96,10466 L 4038.96,10471.8 L 4038.96,11071.8 Z " />
<path stroke="transparent" fill="#000000" transform="matrix(0.0833333 0 0 0.0833333 -97.25 -643.667)" d="M 3461.18,11405.4 L 3561.37,11324.4 L 4018.96,11060.2 L 4038.96,11071.8 L 3461.18,11405.4 Z " />
<path stroke="transparent" fill="#000000" transform="matrix(0.0833333 0 0 0.0833333 -97.25 -643.667)" d="M 2989.27,11077.8 L 2989.73,11066 L 2999.73,11059.7 L 3561.37,11324.4 L 3461.18,11405.4 L 2989.27,11077.8 Z " />
<path stroke="transparent" fill="#000000" transform="matrix(0.0833333 0 0 0.0833333 -97.25 -643.667)" d="M 2979.73,10471.8 L 2989.73,10466 L 2999.73,10471.8 L 2999.73,11059.7 L 2989.73,11066 L 2979.73,11060.2 L 2979.73,10471.8 Z " />
<path stroke="transparent" fill="#000000" transform="matrix(0.0833333 0 0 0.0833333 -97.25 -643.667)" d="M 2999.73,10471.8 L 2989.73,10466 L 3001.25,10447.8 L 3498.89,10160.5 L 3509.35,10166 L 3509.35,10177.5 L 2999.73,10471.8 Z " />
<path stroke="transparent" fill="#000000" transform="matrix(0.0833333 0 0 0.0833333 -97.25 -643.667)" d="M 2470.12,10177.5 L 2470.12,10154.5 L 2978.22,10447.8 L 2989.73,10466 L 2979.73,10471.8 L 2470.12,10177.5 Z " />
<path stroke="transparent" fill="#000000" transform="matrix(0.0833333 0 0 0.0833333 -97.25 -643.667)" d="M 1960.5,10471.8 L 1940.5,10460.2 L 2470.12,10154.5 L 2470.12,10177.5 L 1960.5,10471.8 Z " />
<path stroke="transparent" fill="#000000" transform="matrix(0.0833333 0 0 0.0833333 -97.25 -643.667)" d="M 1960.5,11060.2 L 1950.5,11066 L 1940.5,11059.6 L 1940.5,10460.2 L 1960.5,10471.8 L 1960.5,11060.2 Z " />
<path stroke="transparent" fill="#000000" transform="matrix(0.0833333 0 0 0.0833333 -97.25 -643.667)" d="M 2470.12,11354.5 L 2470.12,11366 L 2448.6,11365.1 L 1951.05,11077.9 L 1950.5,11066 L 1960.5,11060.2 L 2470.12,11354.5 Z " />
<path stroke="transparent" fill="#000000" transform="matrix(0.0833333 0 0 0.0833333 -97.25 -643.667)" d="M 2480.12,11371.8 L 2470.12,11366 L 2470.12,11354.5 L 2979.73,11060.2 L 2989.73,11066 L 2989.27,11077.8 L 2480.12,11371.8 Z " />
<path stroke="transparent" fill="#000000" transform="matrix(0.0833333 0 0 0.0833333 -97.25 -643.667)" d="M 1980.5,11718 L 1920.5,11614 L 2448.6,11365.1 L 2470.12,11366 L 2460.12,11385.1 L 1980.5,11718 Z " />
<path stroke="transparent" fill="#000000" transform="matrix(0.0833333 0 0 0.0833333 -97.25 -643.667)" d="M 2480.12,11971.8 L 2460.12,11960.2 L 2460.12,11385.1 L 2470.12,11366 L 2480.12,11371.8 L 2480.12,11971.8 Z " />
<path stroke="transparent" fill="#000000" transform="matrix(0.0833333 0 0 0.0833333 -97.25 -643.667)" d="M 2920.11,12172.7 L 2910.11,12190 L 2465.12,11933.1 L 2475.12,11915.8 L 2920.11,12172.7 Z " />
<path stroke="transparent" fill="#000000" transform="matrix(0.0833333 0 0 0.0833333 -97.25 -643.667)" d="M 2884.11,12235 L 2874.11,12252.4 L 2429.12,11995.4 L 2439.12,11978.1 L 2884.11,12235 Z " />
<path stroke="transparent" fill="#000000" transform="matrix(0.0833333 0 0 0.0833333 -97.25 -643.667)" d="M 2048.11,12221.2 L 2038.11,12203.9 L 2460.12,11960.2 L 2480.12,11971.8 L 2048.11,12221.2 Z " />
<path stroke="transparent" fill="#000000" transform="matrix(0.0833333 0 0 0.0833333 -97.25 -643.667)" d="M 1553.5,11364.5 L 1493.5,11260.6 L 1940.5,11059.6 L 1950.5,11066 L 1951.05,11077.9 L 1553.5,11364.5 Z " />
<path stroke="transparent" fill="#000000" transform="matrix(0.0833333 0 0 0.0833333 -97.25 -643.667)" d="M 1500.91,10275.7 L 1560.91,10171.8 L 1577.07,10183.8 L 1519.4,10283.7 L 1500.91,10275.7 Z " />
<path stroke="transparent" fill="#000000" transform="matrix(0.0833333 0 0 0.0833333 -97.25 -643.667)" d="M 1555.1,10299.1 L 1608.29,10207 L 1624.45,10219 L 1573.58,10307.1 L 1555.1,10299.1 Z " />
<path stroke="transparent" fill="#000000" transform="matrix(0.0833333 0 0 0.0833333 -97.25 -643.667)" d="M 1609.28,10322.6 L 1655.66,10242.2 L 1671.82,10254.2 L 1627.77,10330.5 L 1609.28,10322.6 Z " />
<path stroke="transparent" fill="#000000" transform="matrix(0.0833333 0 0 0.0833333 -97.25 -643.667)" d="M 1663.47,10346 L 1703.03,10277.4 L 1719.19,10289.4 L 1681.95,10354 L 1663.47,10346 Z " />
<path stroke="transparent" fill="#000000" transform="matrix(0.0833333 0 0 0.0833333 -97.25 -643.667)" d="M 1717.65,10369.4 L 1750.41,10312.7 L 1766.57,10324.7 L 1736.13,10377.4 L 1717.65,10369.4 Z " />
<path stroke="transparent" fill="#000000" transform="matrix(0.0833333 0 0 0.0833333 -97.25 -643.667)" d="M 1771.84,10392.8 L 1797.78,10347.9 L 1813.94,10359.9 L 1790.32,10400.8 L 1771.84,10392.8 Z " />
<path stroke="transparent" fill="#000000" transform="matrix(0.0833333 0 0 0.0833333 -97.25 -643.667)" d="M 1826.02,10416.2 L 1845.16,10383.1 L 1861.31,10395.1 L 1844.5,10424.2 L 1826.02,10416.2 Z " />
<path stroke="transparent" fill="#000000" transform="matrix(0.0833333 0 0 0.0833333 -97.25 -643.667)" d="M 1880.21,10439.6 L 1892.53,10418.3 L 1908.69,10430.3 L 1898.69,10447.6 L 1880.21,10439.6 Z " />
<path stroke="transparent" fill="#000000" transform="matrix(0.0833333 0 0 0.0833333 -97.25 -643.667)" d="M 2929.73,9866 L 3049.73,9866 L 3001.25,10447.8 L 2989.73,10466 L 2978.22,10447.8 L 2929.73,9866 Z " />
<path stroke="transparent" fill="#000000" transform="matrix(0.0833333 0 0 0.0833333 -97.25 -643.667)" d="M 3968.96,9866 L 4088.96,9866 L 4040.48,10447.8 L 4028.96,10466 L 4017.45,10447.8 L 3968.96,9866 Z " />
<path stroke="transparent" fill="#000000" transform="matrix(0.0833333 0 0 0.0833333 -97.25 -643.667)" d="M 5016.43,9284.34 L 5026.43,9301.66 L 5010.12,9313.42 L 4998.09,9292.58 L 5016.43,9284.34 Z " />
<path stroke="transparent" fill="#000000" transform="matrix(0.0833333 0 0 0.0833333 -97.25 -643.667)" d="M 4962.33,9308.65 L 4978.33,9336.35 L 4962.03,9348.11 L 4944,9316.89 L 4962.33,9308.65 Z " />
<path stroke="transparent" fill="#000000" transform="matrix(0.0833333 0 0 0.0833333 -97.25 -643.667)" d="M 4908.24,9332.95 L 4930.23,9371.05 L 4913.93,9382.81 L 4889.9,9341.19 L 4908.24,9332.95 Z " />
<path stroke="transparent" fill="#000000" transform="matrix(0.0833333 0 0 0.0833333 -97.25 -643.667)" d="M 4854.15,9357.26 L 4882.13,9405.74 L 4865.83,9417.5 L 4835.81,9365.5 L 4854.15,9357.26 Z " />
<path stroke="transparent" fill="#000000" transform="matrix(0.0833333 0 0 0.0833333 -97.25 -643.667)" d="M 4800.05,9381.57 L 4834.04,9440.43 L 4817.73,9452.19 L 4781.72,9389.81 L 4800.05,9381.57 Z " />
<path stroke="transparent" fill="#000000" transform="matrix(0.0833333 0 0 0.0833333 -97.25 -643.667)" d="M 4745.96,9405.88 L 4785.94,9475.12 L 4769.64,9486.88 L 4727.62,9414.12 L 4745.96,9405.88 Z " />
<path stroke="transparent" fill="#000000" transform="matrix(0.0833333 0 0 0.0833333 -97.25 -643.667)" d="M 4691.87,9430.18 L 4737.84,9509.82 L 4721.54,9521.58 L 4673.53,9438.42 L 4691.87,9430.18 Z " />
<path stroke="transparent" fill="#000000" transform="matrix(0.0833333 0 0 0.0833333 -97.25 -643.667)" d="M 4637.77,9454.49 L 4689.74,9544.51 L 4673.44,9556.27 L 4619.44,9462.73 L 4637.77,9454.49 Z " />
<path stroke="transparent" fill="#000000" transform="matrix(0.0833333 0 0 0.0833333 -97.25 -643.667)" d="M 4583.68,9478.8 L 4641.65,9579.2 L 4625.34,9590.96 L 4565.34,9487.04 L 4583.68,9478.8 Z " />
<path stroke="transparent" fill="#000000" transform="matrix(0.0833333 0 0 0.0833333 -97.25 -643.667)" d="M 5058.19,9271.77 L 5078.19,9260.23 L 5587.81,9554.45 L 5587.81,9566 L 5577.81,9571.77 L 5058.19,9271.77 Z " />
<path stroke="transparent" fill="#000000" transform="matrix(0.0833333 0 0 0.0833333 -97.25 -643.667)" d="M 5058.19,8669.07 L 5068.19,8666 L 5078.19,8671.77 L 5078.19,9260.23 L 5058.19,9271.77 L 5058.19,8669.07 Z " />
<path stroke="transparent" fill="#000000" transform="matrix(0.0833333 0 0 0.0833333 -97.25 -643.667)" d="M 5078.19,8671.77 L 5068.19,8666 L 5072.57,8651.92 L 5587.81,8354.45 L 5587.81,8377.55 L 5078.19,8671.77 Z " />
<path stroke="transparent" fill="#000000" transform="matrix(0.0833333 0 0 0.0833333 -97.25 -643.667)" d="M 4716.23,8176.38 L 4820.15,8116.38 L 5072.57,8651.92 L 5068.19,8666 L 5058.19,8669.07 L 4716.23,8176.38 Z " />
<path stroke="transparent" fill="#000000" transform="matrix(0.0833333 0 0 0.0833333 -97.25 -643.667)" d="M 4576.76,8726 L 4576.76,8606 L 4596.76,8608.29 L 4596.76,8723.71 L 4576.76,8726 Z " />
<path stroke="transparent" fill="#000000" transform="matrix(0.0833333 0 0 0.0833333 -97.25 -643.667)" d="M 4636.39,8719.18 L 4636.39,8612.82 L 4656.39,8615.1 L 4656.39,8716.9 L 4636.39,8719.18 Z " />
<path stroke="transparent" fill="#000000" transform="matrix(0.0833333 0 0 0.0833333 -97.25 -643.667)" d="M 4696.01,8712.37 L 4696.01,8619.63 L 4716.01,8621.92 L 4716.01,8710.08 L 4696.01,8712.37 Z " />
<path stroke="transparent" fill="#000000" transform="matrix(0.0833333 0 0 0.0833333 -97.25 -643.667)" d="M 4755.64,8705.55 L 4755.64,8626.45 L 4775.64,8628.74 L 4775.64,8703.26 L 4755.64,8705.55 Z " />
<path stroke="transparent" fill="#000000" transform="matrix(0.0833333 0 0 0.0833333 -97.25 -643.667)" d="M 4815.27,8698.74 L 4815.27,8633.26 L 4835.27,8635.55 L 4835.27,8696.45 L 4815.27,8698.74 Z " />
<path stroke="transparent" fill="#000000" transform="matrix(0.0833333 0 0 0.0833333 -97.25 -643.667)" d="M 4874.89,8691.92 L 4874.89,8640.08 L 4894.89,8642.37 L 4894.89,8689.63 L 4874.89,8691.92 Z " />
<path stroke="transparent" fill="#000000" transform="matrix(0.0833333 0 0 0.0833333 -97.25 -643.667)" d="M 4934.52,8685.1 L 4934.52,8646.9 L 4954.52,8649.18 L 4954.52,8682.82 L 4934.52,8685.1 Z " />
<path stroke="transparent" fill="#000000" transform="matrix(0.0833333 0 0 0.0833333 -97.25 -643.667)" d="M 4994.14,8678.29 L 4994.14,8653.71 L 5014.14,8656 L 5014.14,8676 L 4994.14,8678.29 Z " />
<path stroke="transparent" fill="#000000" transform="matrix(0.0833333 0 0 0.0833333 -97.25 -643.667)" d="M 4608.58,10766 L 4488.58,10766 L 4490.41,10746 L 4606.75,10746 L 4608.58,10766 Z " />
<path stroke="transparent" fill="#000000" transform="matrix(0.0833333 0 0 0.0833333 -97.25 -643.667)" d="M 4603.23,10707.6 L 4493.93,10707.6 L 4495.76,10687.6 L 4601.39,10687.6 L 4603.23,10707.6 Z " />
<path stroke="transparent" fill="#000000" transform="matrix(0.0833333 0 0 0.0833333 -97.25 -643.667)" d="M 4597.87,10649.1 L 4499.28,10649.1 L 4501.11,10629.1 L 4596.04,10629.1 L 4597.87,10649.1 Z " />
<path stroke="transparent" fill="#000000" transform="matrix(0.0833333 0 0 0.0833333 -97.25 -643.667)" d="M 4592.52,10590.7 L 4504.63,10590.7 L 4506.46,10570.7 L 4590.69,10570.7 L 4592.52,10590.7 Z " />
<path stroke="transparent" fill="#000000" transform="matrix(0.0833333 0 0 0.0833333 -97.25 -643.667)" d="M 4587.17,10532.2 L 4509.99,10532.2 L 4511.82,10512.2 L 4585.34,10512.2 L 4587.17,10532.2 Z " />
<path stroke="transparent" fill="#000000" transform="matrix(0.0833333 0 0 0.0833333 -97.25 -643.667)" d="M 4581.82,10473.8 L 4515.34,10473.8 L 4517.17,10453.8 L 4579.99,10453.8 L 4581.82,10473.8 Z " />
<path stroke="transparent" fill="#000000" transform="matrix(0.0833333 0 0 0.0833333 -97.25 -643.667)" d="M 4576.46,10415.3 L 4520.69,10415.3 L 4522.52,10395.3 L 4574.63,10395.3 L 4576.46,10415.3 Z " />
<path stroke="transparent" fill="#000000" transform="matrix(0.0833333 0 0 0.0833333 -97.25 -643.667)" d="M 4571.11,10356.9 L 4526.04,10356.9 L 4527.87,10336.9 L 4569.28,10336.9 L 4571.11,10356.9 Z " />
<path stroke="transparent" fill="#000000" transform="matrix(0.0833333 0 0 0.0833333 -97.25 -643.667)" d="M 4565.76,10298.4 L 4531.39,10298.4 L 4533.23,10278.4 L 4563.93,10278.4 L 4565.76,10298.4 Z " />
<path stroke="transparent" fill="#000000" transform="matrix(0.0833333 0 0 0.0833333 -97.25 -643.667)" d="M 4560.41,10240 L 4536.75,10240 L 4538.58,10220 L 4558.58,10220 L 4560.41,10240 Z " />
<path stroke="transparent" fill="#000000" transform="matrix(0.0833333 0 0 0.0833333 -97.25 -643.667)" d="M 6159.44,9824.42 L 6059.26,9905.35 L 5597.81,9585.07 L 5587.81,9566 L 5609.32,9565.12 L 6159.44,9824.42 Z " />
<path stroke="transparent" fill="#000000" transform="matrix(0.0833333 0 0 0.0833333 -97.25 -643.667)" d="M 6153.42,10360.8 L 6133.42,10360.8 L 6133.42,9845.22 L 6153.42,9845.22 L 6153.42,10360.8 Z " />
<path stroke="transparent" fill="#000000" transform="matrix(0.0833333 0 0 0.0833333 -97.25 -643.667)" d="M 6081.42,10360.8 L 6061.42,10360.8 L 6061.42,9845.22 L 6081.42,9845.22 L 6081.42,10360.8 Z " />
<path stroke="transparent" fill="#000000" transform="matrix(0.0833333 0 0 0.0833333 -97.25 -643.667)" d="M 6522.43,9614.85 L 6532.43,9632.17 L 6059.26,9905.35 L 6159.44,9824.42 L 6522.43,9614.85 Z " />
<path stroke="transparent" fill="#000000" transform="matrix(0.0833333 0 0 0.0833333 -97.25 -643.667)" d="M 7104.84,9830.31 L 7094.84,9847.63 L 7076.36,9839.65 L 7088.68,9818.3 L 7104.84,9830.31 Z " />
<path stroke="transparent" fill="#000000" transform="matrix(0.0833333 0 0 0.0833333 -97.25 -643.667)" d="M 7057.47,9795.1 L 7040.66,9824.21 L 7022.18,9816.23 L 7041.31,9783.09 L 7057.47,9795.1 Z " />
<path stroke="transparent" fill="#000000" transform="matrix(0.0833333 0 0 0.0833333 -97.25 -643.667)" d="M 7010.1,9759.88 L 6986.47,9800.8 L 6967.99,9792.81 L 6993.94,9747.87 L 7010.1,9759.88 Z " />
<path stroke="transparent" fill="#000000" transform="matrix(0.0833333 0 0 0.0833333 -97.25 -643.667)" d="M 6962.72,9724.67 L 6932.29,9777.38 L 6913.81,9769.39 L 6946.56,9712.66 L 6962.72,9724.67 Z " />
<path stroke="transparent" fill="#000000" transform="matrix(0.0833333 0 0 0.0833333 -97.25 -643.667)" d="M 6915.35,9689.45 L 6878.11,9753.96 L 6859.62,9745.97 L 6899.19,9677.44 L 6915.35,9689.45 Z " />
<path stroke="transparent" fill="#000000" transform="matrix(0.0833333 0 0 0.0833333 -97.25 -643.667)" d="M 6867.98,9654.24 L 6823.92,9730.54 L 6805.44,9722.55 L 6851.82,9642.22 L 6867.98,9654.24 Z " />
<path stroke="transparent" fill="#000000" transform="matrix(0.0833333 0 0 0.0833333 -97.25 -643.667)" d="M 6820.61,9619.02 L 6769.74,9707.12 L 6751.26,9699.14 L 6804.45,9607.01 L 6820.61,9619.02 Z " />
<path stroke="transparent" fill="#000000" transform="matrix(0.0833333 0 0 0.0833333 -97.25 -643.667)" d="M 6773.23,9583.81 L 6715.56,9683.71 L 6697.07,9675.72 L 6757.07,9571.79 L 6773.23,9583.81 Z " />
<path stroke="transparent" fill="#000000" transform="matrix(0.0833333 0 0 0.0833333 -97.25 -643.667)" d="M 7156.65,10460.2 L 7146.65,10466 L 7136.65,10459.6 L 7136.65,9860.23 L 7156.65,9871.77 L 7156.65,10460.2 Z " />
<path stroke="transparent" fill="#000000" transform="matrix(0.0833333 0 0 0.0833333 -97.25 -643.667)" d="M 7666.27,10754.5 L 7666.27,10777.5 L 7147.21,10477.9 L 7146.65,10466 L 7156.65,10460.2 L 7666.27,10754.5 Z " />
<path stroke="transparent" fill="#000000" transform="matrix(0.0833333 0 0 0.0833333 -97.25 -643.667)" d="M 8175.88,10460.2 L 8185.88,10466 L 8185.33,10477.9 L 7666.27,10777.5 L 7666.27,10754.5 L 8175.88,10460.2 Z " />
<path stroke="transparent" fill="#000000" transform="matrix(0.0833333 0 0 0.0833333 -97.25 -643.667)" d="M 8175.88,9871.77 L 8195.88,9860.23 L 8195.88,10459.6 L 8185.88,10466 L 8175.88,10460.2 L 8175.88,9871.77 Z " />
<path stroke="transparent" fill="#000000" transform="matrix(0.0833333 0 0 0.0833333 -97.25 -643.667)" d="M 7761.31,9632.42 L 7771.31,9615.1 L 8195.88,9860.23 L 8175.88,9871.77 L 7761.31,9632.42 Z " />
<path stroke="transparent" fill="#000000" transform="matrix(0.0833333 0 0 0.0833333 -97.25 -643.667)" d="M 7561.67,9614.85 L 7571.67,9632.17 L 7156.65,9871.77 L 7136.65,9860.23 L 7561.67,9614.85 Z " />
<path stroke="transparent" fill="#000000" transform="matrix(0.0833333 0 0 0.0833333 -97.25 -643.667)" d="M 8628.66,9541.08 L 8688.66,9645.01 L 8670.32,9653.25 L 8612.35,9552.84 L 8628.66,9541.08 Z " />
<path stroke="transparent" fill="#000000" transform="matrix(0.0833333 0 0 0.0833333 -97.25 -643.667)" d="M 8580.58,9575.76 L 8634.58,9669.3 L 8616.24,9677.54 L 8564.27,9587.53 L 8580.58,9575.76 Z " />
<path stroke="transparent" fill="#000000" transform="matrix(0.0833333 0 0 0.0833333 -97.25 -643.667)" d="M 8532.5,9610.45 L 8580.51,9693.6 L 8562.17,9701.84 L 8516.2,9622.21 L 8532.5,9610.45 Z " />
<path stroke="transparent" fill="#000000" transform="matrix(0.0833333 0 0 0.0833333 -97.25 -643.667)" d="M 8484.42,9645.13 L 8526.43,9717.9 L 8508.1,9726.13 L 8468.12,9656.89 L 8484.42,9645.13 Z " />
<path stroke="transparent" fill="#000000" transform="matrix(0.0833333 0 0 0.0833333 -97.25 -643.667)" d="M 8436.34,9679.81 L 8472.36,9742.19 L 8454.02,9750.43 L 8420.04,9691.57 L 8436.34,9679.81 Z " />
<path stroke="transparent" fill="#000000" transform="matrix(0.0833333 0 0 0.0833333 -97.25 -643.667)" d="M 8388.27,9714.49 L 8418.29,9766.49 L 8399.95,9774.73 L 8371.96,9726.25 L 8388.27,9714.49 Z " />
<path stroke="transparent" fill="#000000" transform="matrix(0.0833333 0 0 0.0833333 -97.25 -643.667)" d="M 8340.19,9749.17 L 8364.21,9790.78 L 8345.88,9799.02 L 8323.88,9760.93 L 8340.19,9749.17 Z " />
<path stroke="transparent" fill="#000000" transform="matrix(0.0833333 0 0 0.0833333 -97.25 -643.667)" d="M 8292.11,9783.85 L 8310.14,9815.08 L 8291.8,9823.32 L 8275.81,9795.61 L 8292.11,9783.85 Z " />
<path stroke="transparent" fill="#000000" transform="matrix(0.0833333 0 0 0.0833333 -97.25 -643.667)" d="M 8244.03,9818.53 L 8256.06,9839.38 L 8237.73,9847.62 L 8227.73,9830.29 L 8244.03,9818.53 Z " />
<path stroke="transparent" fill="#000000" transform="matrix(0.0833333 0 0 0.0833333 -97.25 -643.667)" d="M 9137.5,9803.87 L 9127.5,9821.19 L 8700.5,9574.66 L 8710.5,9557.34 L 9137.5,9803.87 Z " />
<path stroke="transparent" fill="#000000" transform="matrix(0.0833333 0 0 0.0833333 -97.25 -643.667)" d="M 8642.88,10660.6 L 8582.88,10764.5 L 8185.33,10477.9 L 8185.88,10466 L 8195.88,10459.6 L 8642.88,10660.6 Z " />
<path stroke="transparent" fill="#000000" transform="matrix(0.0833333 0 0 0.0833333 -97.25 -643.667)" d="M 7726.27,11260.8 L 7606.27,11260.8 L 7608.54,11240.8 L 7724,11240.8 L 7726.27,11260.8 Z " />
<path stroke="transparent" fill="#000000" transform="matrix(0.0833333 0 0 0.0833333 -97.25 -643.667)" d="M 7719.45,11200.7 L 7613.09,11200.7 L 7615.36,11180.7 L 7717.18,11180.7 L 7719.45,11200.7 Z " />
<path stroke="transparent" fill="#000000" transform="matrix(0.0833333 0 0 0.0833333 -97.25 -643.667)" d="M 7712.63,11140.6 L 7619.91,11140.6 L 7622.17,11120.6 L 7710.36,11120.6 L 7712.63,11140.6 Z " />
<path stroke="transparent" fill="#000000" transform="matrix(0.0833333 0 0 0.0833333 -97.25 -643.667)" d="M 7705.81,11080.5 L 7626.72,11080.5 L 7628.99,11060.5 L 7703.54,11060.5 L 7705.81,11080.5 Z " />
<path stroke="transparent" fill="#000000" transform="matrix(0.0833333 0 0 0.0833333 -97.25 -643.667)" d="M 7698.99,11020.4 L 7633.54,11020.4 L 7635.81,11000.4 L 7696.72,11000.4 L 7698.99,11020.4 Z " />
<path stroke="transparent" fill="#000000" transform="matrix(0.0833333 0 0 0.0833333 -97.25 -643.667)" d="M 7692.17,10960.3 L 7640.36,10960.3 L 7642.63,10940.3 L 7689.91,10940.3 L 7692.17,10960.3 Z " />
<path stroke="transparent" fill="#000000" transform="matrix(0.0833333 0 0 0.0833333 -97.25 -643.667)" d="M 7685.36,10900.2 L 7647.18,10900.2 L 7649.45,10880.2 L 7683.09,10880.2 L 7685.36,10900.2 Z " />
<path stroke="transparent" fill="#000000" transform="matrix(0.0833333 0 0 0.0833333 -97.25 -643.667)" d="M 7678.54,10840.1 L 7654,10840.1 L 7656.27,10820.1 L 7676.27,10820.1 L 7678.54,10840.1 Z " />
<path stroke="transparent" fill="#000000" transform="matrix(0.0833333 0 0 0.0833333 -97.25 -643.667)" d="M 6749.65,10764.5 L 6689.65,10660.6 L 7136.65,10459.6 L 7146.65,10466 L 7147.21,10477.9 L 6749.65,10764.5 Z " />
</svg>
