<?xml version="1.0" standalone="no" ?>
<!DOCTYPE svg PUBLIC "-//W3C//DTD SVG 1.1//EN" "http://www.w3.org/Graphics/SVG/1.1/DTD/svg11.dtd">
<svg width="528px" height="172px" viewBox="0 0 528 172" style="background-color: #ffffff00" xmlns="http://www.w3.org/2000/svg" xmlns:xlink="http://www.w3.org/1999/xlink" version="1.1" >
<path stroke="transparent" fill="#000000" transform="matrix(0.0833333 0 0 0.0833333 -172.208 -295)" d="M 6790.86,3685.59 L 6790.86,3662.5 L 7310.48,3962.51 L 7310.48,3974.05 L 7300.48,3979.83 L 6790.86,3685.59 Z " />
<path stroke="transparent" fill="#000000" transform="matrix(0.0833333 0 0 0.0833333 -172.208 -295)" d="M 6790.86,3662.5 L 6790.86,3685.59 L 6281.25,3979.77 L 6261.25,3968.22 L 6790.86,3662.5 Z " />
<path stroke="transparent" fill="#000000" transform="matrix(0.0833333 0 0 0.0833333 -172.208 -295)" d="M 6785.86,3748.52 L 6795.86,3765.84 L 6348.25,4024.22 L 6338.25,4006.9 L 6785.86,3748.52 Z " />
<path stroke="transparent" fill="#000000" transform="matrix(0.0833333 0 0 0.0833333 -172.208 -295)" d="M 6261.25,3968.22 L 6281.25,3979.77 L 6281.25,4568.23 L 6271.25,4574.01 L 6261.25,4568.23 L 6261.25,3968.22 Z " />
<path stroke="transparent" fill="#000000" transform="matrix(0.0833333 0 0 0.0833333 -172.208 -295)" d="M 5236.97,3965.33 L 5226.97,3982.65 L 4807.39,3740.4 L 4817.39,3723.08 L 5236.97,3965.33 Z " />
<path stroke="transparent" fill="#000000" transform="matrix(0.0833333 0 0 0.0833333 -172.208 -295)" d="M 4607.76,3722.84 L 4617.76,3740.16 L 4202.75,3979.83 L 4192.75,3974.05 L 4192.75,3962.51 L 4607.76,3722.84 Z " />
<path stroke="transparent" fill="#000000" transform="matrix(0.0833333 0 0 0.0833333 -172.208 -295)" d="M 4182.75,3979.83 L 4192.75,3974.05 L 4202.75,3979.83 L 4202.75,4568.23 L 4192.75,4574.01 L 4182.75,4568.23 L 4182.75,3979.83 Z " />
<path stroke="transparent" fill="#000000" transform="matrix(0.0833333 0 0 0.0833333 -172.208 -295)" d="M 4192.75,3962.51 L 4192.75,3974.05 L 4182.75,3979.83 L 3673.14,3685.59 L 3673.14,3662.5 L 4192.75,3962.51 Z " />
<path stroke="transparent" fill="#000000" transform="matrix(0.0833333 0 0 0.0833333 -172.208 -295)" d="M 4125.75,4006.96 L 4115.75,4024.28 L 3668.14,3765.85 L 3678.14,3748.53 L 4125.75,4006.96 Z " />
<path stroke="transparent" fill="#000000" transform="matrix(0.0833333 0 0 0.0833333 -172.208 -295)" d="M 3673.14,3662.5 L 3673.14,3685.59 L 3163.52,3979.83 L 3153.52,3974.05 L 3153.52,3962.51 L 3673.14,3662.5 Z " />
<path stroke="transparent" fill="#000000" transform="matrix(0.0833333 0 0 0.0833333 -172.208 -295)" d="M 2728.95,3740.46 L 2738.95,3723.14 L 3153.52,3962.51 L 3153.52,3974.05 L 3143.52,3979.83 L 2728.95,3740.46 Z " />
<path stroke="transparent" fill="#000000" transform="matrix(0.0833333 0 0 0.0833333 -172.208 -295)" d="M 3143.52,3979.83 L 3153.52,3974.05 L 3163.52,3979.83 L 3163.52,4568.29 L 3143.52,4579.84 L 3143.52,3979.83 Z " />
<path stroke="transparent" fill="#000000" transform="matrix(0.0833333 0 0 0.0833333 -172.208 -295)" d="M 3215.53,4015.62 L 3235.53,4015.62 L 3235.53,4532.49 L 3215.53,4532.49 L 3215.53,4015.62 Z " />
<path stroke="transparent" fill="#000000" transform="matrix(0.0833333 0 0 0.0833333 -172.208 -295)" d="M 3143.52,4579.84 L 3163.52,4568.29 L 3673.14,4862.47 L 3673.14,4874.01 L 3663.14,4879.79 L 3143.52,4579.84 Z " />
<path stroke="transparent" fill="#000000" transform="matrix(0.0833333 0 0 0.0833333 -172.208 -295)" d="M 3683.14,5368.86 L 3663.14,5368.86 L 3663.14,4879.79 L 3673.14,4874.01 L 3683.14,4879.79 L 3683.14,5368.86 Z " />
<path stroke="transparent" fill="#000000" transform="matrix(0.0833333 0 0 0.0833333 -172.208 -295)" d="M 3683.14,4879.79 L 3673.14,4874.01 L 3673.14,4862.47 L 4182.75,4568.23 L 4192.75,4574.01 L 4192.75,4585.55 L 3683.14,4879.79 Z " />
<path stroke="transparent" fill="#000000" transform="matrix(0.0833333 0 0 0.0833333 -172.208 -295)" d="M 3678.13,4799.54 L 3668.13,4782.22 L 4115.75,4523.78 L 4125.75,4541.1 L 3678.13,4799.54 Z " />
<path stroke="transparent" fill="#000000" transform="matrix(0.0833333 0 0 0.0833333 -172.208 -295)" d="M 4192.75,4585.55 L 4192.75,4574.01 L 4202.75,4568.23 L 4712.36,4862.47 L 4712.36,4885.56 L 4192.75,4585.55 Z " />
<path stroke="transparent" fill="#000000" transform="matrix(0.0833333 0 0 0.0833333 -172.208 -295)" d="M 4758.36,5368.86 L 4738.36,5368.86 L 4738.36,4853.23 L 4758.36,4853.23 L 4758.36,5368.86 Z " />
<path stroke="transparent" fill="#000000" transform="matrix(0.0833333 0 0 0.0833333 -172.208 -295)" d="M 4686.36,5368.86 L 4666.36,5368.86 L 4666.36,4853.23 L 4686.36,4853.23 L 4686.36,5368.86 Z " />
<path stroke="transparent" fill="#000000" transform="matrix(0.0833333 0 0 0.0833333 -172.208 -295)" d="M 4712.36,4885.56 L 4712.36,4862.47 L 5231.97,4562.46 L 5231.97,4585.55 L 4712.36,4885.56 Z " />
<path stroke="transparent" fill="#000000" transform="matrix(0.0833333 0 0 0.0833333 -172.208 -295)" d="M 5231.97,4585.55 L 5231.97,4562.46 L 5751.58,4862.47 L 5751.58,4885.56 L 5231.97,4585.55 Z " />
<path stroke="transparent" fill="#000000" transform="matrix(0.0833333 0 0 0.0833333 -172.208 -295)" d="M 5226.97,4665.81 L 5236.97,4648.49 L 5720.58,4927.71 L 5710.58,4945.03 L 5226.97,4665.81 Z " />
<path stroke="transparent" fill="#000000" transform="matrix(0.0833333 0 0 0.0833333 -172.208 -295)" d="M 5751.58,4885.56 L 5751.58,4862.47 L 6261.25,4568.23 L 6271.25,4574.01 L 6271.25,4585.55 L 5751.58,4885.56 Z " />
<path stroke="transparent" fill="#000000" transform="matrix(0.0833333 0 0 0.0833333 -172.208 -295)" d="M 6271.25,4585.55 L 6271.25,4574.01 L 6281.25,4568.23 L 6790.86,4862.47 L 6790.86,4885.56 L 6271.25,4585.55 Z " />
<path stroke="transparent" fill="#000000" transform="matrix(0.0833333 0 0 0.0833333 -172.208 -295)" d="M 6338.25,4541.1 L 6348.25,4523.78 L 6795.86,4782.21 L 6785.86,4799.53 L 6338.25,4541.1 Z " />
<path stroke="transparent" fill="#000000" transform="matrix(0.0833333 0 0 0.0833333 -172.208 -295)" d="M 6790.86,4885.56 L 6790.86,4862.47 L 7300.48,4568.23 L 7320.48,4579.78 L 6790.86,4885.56 Z " />
<path stroke="transparent" fill="#000000" transform="matrix(0.0833333 0 0 0.0833333 -172.208 -295)" d="M 7320.48,4579.78 L 7300.48,4568.23 L 7300.48,3979.83 L 7310.48,3974.05 L 7320.48,3979.83 L 7320.48,4579.78 Z " />
<path stroke="transparent" fill="#000000" transform="matrix(0.0833333 0 0 0.0833333 -172.208 -295)" d="M 7248.48,4532.44 L 7228.48,4532.44 L 7228.48,4015.62 L 7248.48,4015.62 L 7248.48,4532.44 Z " />
<path stroke="transparent" fill="#000000" transform="matrix(0.0833333 0 0 0.0833333 -172.208 -295)" d="M 7320.48,3979.83 L 7310.48,3974.05 L 7310.48,3962.51 L 7725.48,3722.89 L 7735.48,3740.21 L 7320.48,3979.83 Z " />
<text x="0" y="0" stroke="transparent" fill="#000000" transform="matrix(0.0833333 0 0 0.0833333 213.988 17.6656)" style="font:normal normal normal 200px 'Arial'" >
O</text>
<text x="0" y="0" stroke="transparent" fill="#000000" transform="matrix(0.0833333 0 0 0.0833333 40.7845 17.6706)" style="font:normal normal normal 200px 'Arial'" >
O</text>
<text x="0" y="0" stroke="transparent" fill="#000000" transform="matrix(0.0833333 0 0 0.0833333 127.386 167.669)" style="font:normal normal normal 200px 'Arial'" >
OH</text>
<text x="0" y="0" stroke="transparent" fill="#000000" transform="matrix(0.0833333 0 0 0.0833333 213.988 167.669)" style="font:normal normal normal 200px 'Arial'" >
O</text>
<text x="0" y="0" stroke="transparent" fill="#000000" transform="matrix(0.0833333 0 0 0.0833333 473.799 17.6706)" style="font:normal normal normal 200px 'Arial'" >
O</text>
<path stroke="transparent" fill="#000000" transform="matrix(0.0833333 0 0 0.0833333 -172.208 -295)" d="M 2119.3,3982.7 L 2109.3,3965.38 L 2529.31,3722.89 L 2539.31,3740.21 L 2119.3,3982.7 Z " />
<path stroke="transparent" fill="#000000" transform="matrix(0.0833333 0 0 0.0833333 -172.208 -295)" d="M 8354.71,3965.38 L 8344.71,3982.7 L 7925.12,3740.46 L 7935.12,3723.14 L 8354.71,3965.38 Z " />
</svg>
