<?xml version="1.0" standalone="no" ?>
<!DOCTYPE svg PUBLIC "-//W3C//DTD SVG 1.1//EN" "http://www.w3.org/Graphics/SVG/1.1/DTD/svg11.dtd">
<svg width="521px" height="474px" viewBox="0 0 521 474" style="background-color: #ffffff00" xmlns="http://www.w3.org/2000/svg" xmlns:xlink="http://www.w3.org/1999/xlink" version="1.1" >
<text x="0" y="0" stroke="transparent" fill="#000000" transform="matrix(0.0833333 0 0 0.0833333 3.75711 143.061)" style="font:normal normal normal 200px 'Arial'" >
HO</text>
<text x="0" y="0" stroke="transparent" fill="#000000" transform="matrix(0.0833333 0 0 0.0833333 102.391 293.063)" style="font:normal normal normal 200px 'Arial'" >
OH</text>
<text x="0" y="0" stroke="transparent" fill="#000000" transform="matrix(0.0833333 0 0 0.0833333 188.996 143.062)" style="font:normal normal normal 200px 'Arial'" >
O</text>
<text x="0" y="0" stroke="transparent" fill="#000000" transform="matrix(0.0833333 0 0 0.0833333 405.507 68.0589)" style="font:normal normal normal 200px 'Arial'" >
OH</text>
<text x="0" y="0" stroke="transparent" fill="#000000" transform="matrix(0.0833333 0 0 0.0833333 318.908 18.0575)" style="font:normal normal normal 200px 'Arial'" >
OH</text>
<text x="0" y="0" stroke="transparent" fill="#000000" transform="matrix(0.0833333 0 0 0.0833333 275.601 243.065)" style="font:normal normal normal 200px 'Arial'" >
OH</text>
<text x="0" y="0" stroke="transparent" fill="#000000" transform="matrix(0.0833333 0 0 0.0833333 189 470.063)" style="font:normal normal normal 200px 'Arial'" >
OH</text>
<text x="0" y="0" stroke="transparent" fill="#000000" transform="matrix(0.0833333 0 0 0.0833333 275.601 320.065)" style="font:normal normal normal 200px 'Arial'" >
O</text>
<text x="0" y="0" stroke="transparent" fill="#000000" transform="matrix(0.0833333 0 0 0.0833333 492.111 245.062)" style="font:normal normal normal 200px 'Arial'" >
OH</text>
<text x="0" y="0" stroke="transparent" fill="#000000" transform="matrix(0.0833333 0 0 0.0833333 405.508 195.063)" style="font:normal normal normal 200px 'Arial'" >
OH</text>
<text x="0" y="0" stroke="transparent" fill="#000000" transform="matrix(0.0833333 0 0 0.0833333 362.206 420.068)" style="font:normal normal normal 200px 'Arial'" >
OH</text>
<path stroke="transparent" fill="#000000" transform="matrix(0.0833333 0 0 0.0833333 -157.25 -165)" d="M 2674.14,3907.18 L 2674.14,3918.73 L 2664.14,3924.5 L 2249.55,3685.15 L 2259.55,3667.83 L 2674.14,3907.18 Z " />
<path stroke="transparent" fill="#000000" transform="matrix(0.0833333 0 0 0.0833333 -157.25 -165)" d="M 2684.13,4512.96 L 2664.13,4524.5 L 2664.14,3924.5 L 2674.14,3918.73 L 2684.14,3924.5 L 2684.13,4512.96 Z " />
<path stroke="transparent" fill="#000000" transform="matrix(0.0833333 0 0 0.0833333 -157.25 -165)" d="M 2756.13,4477.16 L 2736.13,4477.16 L 2736.14,3960.3 L 2756.14,3960.3 L 2756.13,4477.16 Z " />
<path stroke="transparent" fill="#000000" transform="matrix(0.0833333 0 0 0.0833333 -157.25 -165)" d="M 3193.7,4807.21 L 3193.7,4818.75 L 3183.7,4824.53 L 2664.13,4524.5 L 2684.13,4512.96 L 3193.7,4807.21 Z " />
<path stroke="transparent" fill="#000000" transform="matrix(0.0833333 0 0 0.0833333 -157.25 -165)" d="M 3203.7,5313.59 L 3183.7,5313.59 L 3183.7,4824.53 L 3193.7,4818.75 L 3203.7,4824.53 L 3203.7,5313.59 Z " />
<path stroke="transparent" fill="#000000" transform="matrix(0.0833333 0 0 0.0833333 -157.25 -165)" d="M 3703.32,4512.97 L 3713.32,4518.75 L 3713.32,4530.29 L 3203.7,4824.53 L 3193.7,4818.75 L 3193.7,4807.21 L 3703.32,4512.97 Z " />
<path stroke="transparent" fill="#000000" transform="matrix(0.0833333 0 0 0.0833333 -157.25 -165)" d="M 3636.32,4468.52 L 3646.32,4485.84 L 3198.7,4744.27 L 3188.7,4726.95 L 3636.32,4468.52 Z " />
<path stroke="transparent" fill="#000000" transform="matrix(0.0833333 0 0 0.0833333 -157.25 -165)" d="M 3703.33,3924.52 L 3713.33,3918.75 L 3723.33,3924.52 L 3723.32,4512.97 L 3713.32,4518.75 L 3703.32,4512.97 L 3703.33,3924.52 Z " />
<path stroke="transparent" fill="#000000" transform="matrix(0.0833333 0 0 0.0833333 -157.25 -165)" d="M 3193.71,3630.3 L 3193.71,3607.21 L 3713.33,3907.2 L 3713.33,3918.75 L 3703.33,3924.52 L 3193.71,3630.3 Z " />
<path stroke="transparent" fill="#000000" transform="matrix(0.0833333 0 0 0.0833333 -157.25 -165)" d="M 3188.71,3710.55 L 3198.71,3693.23 L 3646.33,3951.66 L 3636.33,3968.98 L 3188.71,3710.55 Z " />
<path stroke="transparent" fill="#000000" transform="matrix(0.0833333 0 0 0.0833333 -157.25 -165)" d="M 3193.71,3607.21 L 3193.71,3630.3 L 2684.14,3924.5 L 2674.14,3918.73 L 2674.14,3907.18 L 3193.71,3607.21 Z " />
<path stroke="transparent" fill="#000000" transform="matrix(0.0833333 0 0 0.0833333 -157.25 -165)" d="M 4128.35,3667.59 L 4138.35,3684.91 L 3723.33,3924.52 L 3713.33,3918.75 L 3713.33,3907.2 L 4128.35,3667.59 Z " />
<path stroke="transparent" fill="#000000" transform="matrix(0.0833333 0 0 0.0833333 -157.25 -165)" d="M 4752.58,3907.19 L 4752.58,3918.73 L 4742.58,3924.51 L 4327.99,3685.15 L 4337.99,3667.83 L 4752.58,3907.19 Z " />
<path stroke="transparent" fill="#000000" transform="matrix(0.0833333 0 0 0.0833333 -157.25 -165)" d="M 5262.2,3612.95 L 5272.2,3618.73 L 5272.2,3630.27 L 4762.58,3924.51 L 4752.58,3918.73 L 4752.58,3907.19 L 5262.2,3612.95 Z " />
<path stroke="transparent" fill="#000000" transform="matrix(0.0833333 0 0 0.0833333 -157.25 -165)" d="M 5791.82,3907.17 L 5791.82,3930.27 L 5272.2,3630.27 L 5272.2,3618.73 L 5282.2,3612.95 L 5791.82,3907.17 Z " />
<path stroke="transparent" fill="#000000" transform="matrix(0.0833333 0 0 0.0833333 -157.25 -165)" d="M 5796.82,3826.92 L 5786.82,3844.24 L 5339.2,3585.82 L 5349.2,3568.5 L 5796.82,3826.92 Z " />
<path stroke="transparent" fill="#000000" transform="matrix(0.0833333 0 0 0.0833333 -157.25 -165)" d="M 6301.45,3612.94 L 6321.45,3624.49 L 5791.82,3930.27 L 5791.82,3907.17 L 6301.45,3612.94 Z " />
<path stroke="transparent" fill="#000000" transform="matrix(0.0833333 0 0 0.0833333 -157.25 -165)" d="M 6301.46,3024.49 L 6311.46,3018.71 L 6321.46,3024.49 L 6321.45,3624.49 L 6301.45,3612.94 L 6301.46,3024.49 Z " />
<path stroke="transparent" fill="#000000" transform="matrix(0.0833333 0 0 0.0833333 -157.25 -165)" d="M 6229.46,3060.28 L 6249.46,3060.28 L 6249.45,3577.14 L 6229.45,3577.14 L 6229.46,3060.28 Z " />
<path stroke="transparent" fill="#000000" transform="matrix(0.0833333 0 0 0.0833333 -157.25 -165)" d="M 6726.48,2767.55 L 6736.48,2784.87 L 6321.46,3024.49 L 6311.46,3018.71 L 6311.46,3007.17 L 6726.48,2767.55 Z " />
<path stroke="transparent" fill="#000000" transform="matrix(0.0833333 0 0 0.0833333 -157.25 -165)" d="M 5791.84,2730.27 L 5791.84,2718.72 L 5801.84,2712.95 L 6311.46,3007.17 L 6311.46,3018.71 L 6301.46,3024.49 L 5791.84,2730.27 Z " />
<path stroke="transparent" fill="#000000" transform="matrix(0.0833333 0 0 0.0833333 -157.25 -165)" d="M 5781.88,2238.52 L 5801.88,2238.52 L 5801.84,2712.95 L 5791.84,2718.72 L 5781.84,2712.95 L 5781.88,2238.52 Z " />
<path stroke="transparent" fill="#000000" transform="matrix(0.0833333 0 0 0.0833333 -157.25 -165)" d="M 5282.21,3024.5 L 5262.21,3012.95 L 5781.84,2712.95 L 5791.84,2718.72 L 5791.84,2730.27 L 5282.21,3024.5 Z " />
<path stroke="transparent" fill="#000000" transform="matrix(0.0833333 0 0 0.0833333 -157.25 -165)" d="M 5349.21,3068.96 L 5339.21,3051.64 L 5786.84,2793.2 L 5796.84,2810.52 L 5349.21,3068.96 Z " />
<path stroke="transparent" fill="#000000" transform="matrix(0.0833333 0 0 0.0833333 -157.25 -165)" d="M 5262.21,3012.95 L 5282.21,3024.5 L 5282.2,3612.95 L 5272.2,3618.73 L 5262.2,3612.95 L 5262.21,3012.95 Z " />
<path stroke="transparent" fill="#000000" transform="matrix(0.0833333 0 0 0.0833333 -157.25 -165)" d="M 4762.57,4512.96 L 4752.57,4518.73 L 4742.57,4512.96 L 4742.58,3924.51 L 4752.58,3918.73 L 4762.58,3924.51 L 4762.57,4512.96 Z " />
<path stroke="transparent" fill="#000000" transform="matrix(0.0833333 0 0 0.0833333 -157.25 -165)" d="M 5184.6,4756.64 L 5174.6,4773.96 L 4752.57,4530.28 L 4752.57,4518.73 L 4762.57,4512.96 L 5184.6,4756.64 Z " />
<path stroke="transparent" fill="#000000" transform="matrix(0.0833333 0 0 0.0833333 -157.25 -165)" d="M 4242.94,4824.51 L 4232.94,4818.74 L 4232.94,4807.19 L 4742.57,4512.96 L 4752.57,4518.73 L 4752.57,4530.28 L 4242.94,4824.51 Z " />
<path stroke="transparent" fill="#000000" transform="matrix(0.0833333 0 0 0.0833333 -157.25 -165)" d="M 4232.94,4807.19 L 4232.94,4818.74 L 4222.94,4824.51 L 3713.32,4530.29 L 3713.32,4518.75 L 3723.32,4512.97 L 4232.94,4807.19 Z " />
<path stroke="transparent" fill="#000000" transform="matrix(0.0833333 0 0 0.0833333 -157.25 -165)" d="M 4242.96,5737.02 L 4232.96,5742.79 L 4222.96,5737.02 L 4222.94,4824.51 L 4232.94,4818.74 L 4242.94,4824.51 L 4242.96,5737.02 Z " />
<path stroke="transparent" fill="#000000" transform="matrix(0.0833333 0 0 0.0833333 -157.25 -165)" d="M 3723.34,6048.57 L 3713.34,6042.8 L 3713.34,6031.25 L 4222.96,5737.02 L 4232.96,5742.79 L 4232.96,5754.34 L 3723.34,6048.57 Z " />
<path stroke="transparent" fill="#000000" transform="matrix(0.0833333 0 0 0.0833333 -157.25 -165)" d="M 3790.34,6093.03 L 3780.34,6075.71 L 4227.97,5817.27 L 4237.97,5834.59 L 3790.34,6093.03 Z " />
<path stroke="transparent" fill="#000000" transform="matrix(0.0833333 0 0 0.0833333 -157.25 -165)" d="M 3723.38,6636.99 L 3703.38,6648.54 L 3703.34,6048.57 L 3713.34,6042.8 L 3723.34,6048.57 L 3723.38,6636.99 Z " />
<path stroke="transparent" fill="#000000" transform="matrix(0.0833333 0 0 0.0833333 -157.25 -165)" d="M 4232.95,6931.24 L 4232.95,6942.79 L 4222.95,6948.56 L 3703.38,6648.54 L 3723.38,6636.99 L 4232.95,6931.24 Z " />
<path stroke="transparent" fill="#000000" transform="matrix(0.0833333 0 0 0.0833333 -157.25 -165)" d="M 4237.95,6850.99 L 4227.95,6868.31 L 3780.38,6609.86 L 3790.38,6592.54 L 4237.95,6850.99 Z " />
<path stroke="transparent" fill="#000000" transform="matrix(0.0833333 0 0 0.0833333 -157.25 -165)" d="M 4242.99,7437.59 L 4222.99,7437.59 L 4222.95,6948.56 L 4232.95,6942.79 L 4242.95,6948.56 L 4242.99,7437.59 Z " />
<path stroke="transparent" fill="#000000" transform="matrix(0.0833333 0 0 0.0833333 -157.25 -165)" d="M 4742.58,6637.01 L 4752.58,6642.78 L 4752.58,6654.33 L 4242.95,6948.56 L 4232.95,6942.79 L 4232.95,6931.24 L 4742.58,6637.01 Z " />
<path stroke="transparent" fill="#000000" transform="matrix(0.0833333 0 0 0.0833333 -157.25 -165)" d="M 4742.58,6048.56 L 4752.58,6042.78 L 4762.58,6048.56 L 4762.58,6637.01 L 4752.58,6642.78 L 4742.58,6637.01 L 4742.58,6048.56 Z " />
<path stroke="transparent" fill="#000000" transform="matrix(0.0833333 0 0 0.0833333 -157.25 -165)" d="M 4670.58,6084.35 L 4690.58,6084.35 L 4690.58,6601.21 L 4670.58,6601.21 L 4670.58,6084.35 Z " />
<path stroke="transparent" fill="#000000" transform="matrix(0.0833333 0 0 0.0833333 -157.25 -165)" d="M 4752.58,6031.24 L 4752.58,6042.78 L 4742.58,6048.56 L 4232.96,5754.34 L 4232.96,5742.79 L 4242.96,5737.02 L 4752.58,6031.24 Z " />
<path stroke="transparent" fill="#000000" transform="matrix(0.0833333 0 0 0.0833333 -157.25 -165)" d="M 5167.61,5791.62 L 5177.61,5808.94 L 4762.58,6048.56 L 4752.58,6042.78 L 4752.58,6031.24 L 5167.61,5791.62 Z " />
<path stroke="transparent" fill="#000000" transform="matrix(0.0833333 0 0 0.0833333 -157.25 -165)" d="M 5791.83,6031.22 L 5791.83,6042.77 L 5781.83,6048.54 L 5367.25,5809.19 L 5377.25,5791.87 L 5791.83,6031.22 Z " />
<path stroke="transparent" fill="#000000" transform="matrix(0.0833333 0 0 0.0833333 -157.25 -165)" d="M 6301.46,5736.99 L 6311.46,5742.76 L 6311.46,5754.31 L 5801.83,6048.54 L 5791.83,6042.77 L 5791.83,6031.22 L 6301.46,5736.99 Z " />
<path stroke="transparent" fill="#000000" transform="matrix(0.0833333 0 0 0.0833333 -157.25 -165)" d="M 6831.07,6031.21 L 6831.08,6054.3 L 6311.46,5754.31 L 6311.46,5742.76 L 6321.46,5736.99 L 6831.07,6031.21 Z " />
<path stroke="transparent" fill="#000000" transform="matrix(0.0833333 0 0 0.0833333 -157.25 -165)" d="M 6836.07,5950.96 L 6826.07,5968.28 L 6378.46,5709.86 L 6388.46,5692.53 L 6836.07,5950.96 Z " />
<path stroke="transparent" fill="#000000" transform="matrix(0.0833333 0 0 0.0833333 -157.25 -165)" d="M 7340.7,5736.98 L 7360.7,5748.53 L 6831.08,6054.3 L 6831.07,6031.21 L 7340.7,5736.98 Z " />
<path stroke="transparent" fill="#000000" transform="matrix(0.0833333 0 0 0.0833333 -157.25 -165)" d="M 7340.71,5148.53 L 7350.71,5142.75 L 7360.71,5148.53 L 7360.7,5748.53 L 7340.7,5736.98 L 7340.71,5148.53 Z " />
<path stroke="transparent" fill="#000000" transform="matrix(0.0833333 0 0 0.0833333 -157.25 -165)" d="M 7268.71,5184.32 L 7288.71,5184.32 L 7288.7,5701.18 L 7268.7,5701.18 L 7268.71,5184.32 Z " />
<path stroke="transparent" fill="#000000" transform="matrix(0.0833333 0 0 0.0833333 -157.25 -165)" d="M 7765.73,4891.59 L 7775.73,4908.91 L 7360.71,5148.53 L 7350.71,5142.75 L 7350.71,5131.2 L 7765.73,4891.59 Z " />
<path stroke="transparent" fill="#000000" transform="matrix(0.0833333 0 0 0.0833333 -157.25 -165)" d="M 6831.09,4854.31 L 6831.09,4842.76 L 6841.09,4836.98 L 7350.71,5131.2 L 7350.71,5142.75 L 7340.71,5148.53 L 6831.09,4854.31 Z " />
<path stroke="transparent" fill="#000000" transform="matrix(0.0833333 0 0 0.0833333 -157.25 -165)" d="M 6821.1,4362.59 L 6841.1,4362.59 L 6841.09,4836.98 L 6831.09,4842.76 L 6821.09,4836.98 L 6821.1,4362.59 Z " />
<path stroke="transparent" fill="#000000" transform="matrix(0.0833333 0 0 0.0833333 -157.25 -165)" d="M 6321.46,5148.54 L 6301.46,5136.99 L 6821.09,4836.98 L 6831.09,4842.76 L 6831.09,4854.31 L 6321.46,5148.54 Z " />
<path stroke="transparent" fill="#000000" transform="matrix(0.0833333 0 0 0.0833333 -157.25 -165)" d="M 6388.46,5193 L 6378.46,5175.67 L 6826.09,4917.24 L 6836.09,4934.56 L 6388.46,5193 Z " />
<path stroke="transparent" fill="#000000" transform="matrix(0.0833333 0 0 0.0833333 -157.25 -165)" d="M 6301.46,5136.99 L 6321.46,5148.54 L 6321.46,5736.99 L 6311.46,5742.76 L 6301.46,5736.99 L 6301.46,5136.99 Z " />
<path stroke="transparent" fill="#000000" transform="matrix(0.0833333 0 0 0.0833333 -157.25 -165)" d="M 5801.82,6637 L 5791.82,6642.77 L 5781.82,6637 L 5781.83,6048.54 L 5791.83,6042.77 L 5801.83,6048.54 L 5801.82,6637 Z " />
<path stroke="transparent" fill="#000000" transform="matrix(0.0833333 0 0 0.0833333 -157.25 -165)" d="M 6223.85,6880.68 L 6213.85,6898 L 5791.82,6654.32 L 5791.82,6642.77 L 5801.82,6637 L 6223.85,6880.68 Z " />
<path stroke="transparent" fill="#000000" transform="matrix(0.0833333 0 0 0.0833333 -157.25 -165)" d="M 5272.2,6954.32 L 5272.2,6931.23 L 5781.82,6637 L 5791.82,6642.77 L 5791.82,6654.32 L 5272.2,6954.32 Z " />
<path stroke="transparent" fill="#000000" transform="matrix(0.0833333 0 0 0.0833333 -157.25 -165)" d="M 5272.2,6931.23 L 5272.2,6954.32 L 4752.58,6654.33 L 4752.58,6642.78 L 4762.58,6637.01 L 5272.2,6931.23 Z " />
<text x="0" y="0" stroke="transparent" fill="#000000" transform="matrix(0.0833333 0 0 0.0833333 90.3565 320.068)" style="font:normal normal normal 200px 'Arial'" >
HO</text>
<path stroke="transparent" fill="#000000" transform="matrix(0.0833333 0 0 0.0833333 -157.25 -165)" d="M 3288.74,5809.22 L 3298.74,5791.9 L 3713.34,6031.25 L 3713.34,6042.8 L 3703.34,6048.57 L 3288.74,5809.22 Z " />
</svg>
