<?xml version="1.0"?><svg xmlns="http://www.w3.org/2000/svg" xmlns:xlink="http://www.w3.org/1999/xlink" viewBox="155.48 295.63 212.36 101.01" preserveAspectRatio="xMidYMid" width="100%" height="100%"><clipPath id="935"><rect x="0.5" y="0.5" width="522.32" height="768.92" /></clipPath><g id="drawing"><rect x="155.48" y="295.63" width="100%" height="100%" fill="rgb(255, 255, 255)" /><g id="page" clip-path="url(#935)"><g><text xml:space="preserve" text-anchor="start" text-rendering="geometricPrecision"><tspan x="311.72" y="351.52" font-family="Arial" font-size="10" fill="rgb(0, 0, 0)">O</tspan></text></g><g><text xml:space="preserve" text-anchor="start" text-rendering="geometricPrecision"><tspan x="285.74" y="396.52" font-family="Arial" font-size="10" fill="rgb(0, 0, 0)">O</tspan></text></g><g id="Solid"><path d="M367.34 347.41 L367.34 347.41 L367.59 347.84 L367.84 348.27 L341.61 363.42 L341.61 362.84 L341.61 362.26 Z" stroke="rgb(0, 0, 0)" stroke-width="0" fill-rule="evenodd" stroke-linejoin="miter" fill="rgb(0, 0, 0)" shape-rendering="geometricPrecision" /></g><g id="Solid"><path d="M341.61 362.26 L341.61 362.26 L341.61 362.84 L341.61 363.42 L320.38 351.16 L320.63 350.73 L320.88 350.3 Z" stroke="rgb(0, 0, 0)" stroke-width="0" fill-rule="evenodd" stroke-linejoin="miter" fill="rgb(0, 0, 0)" shape-rendering="geometricPrecision" /></g><g id="Solid"><path d="M310.42 350.27 L310.42 350.27 L310.67 350.7 L310.92 351.14 L289.65 363.42 L289.65 362.84 L289.65 362.26 Z" stroke="rgb(0, 0, 0)" stroke-width="0" fill-rule="evenodd" stroke-linejoin="miter" fill="rgb(0, 0, 0)" shape-rendering="geometricPrecision" /></g><g id="Solid"><line x1="291.45" y1="362.84" x2="291.45" y2="387.3" stroke="rgb(0, 0, 0)" stroke-width="1" shape-rendering="auto" /><path d="M288.35 362.67 L288.35 362.67 L287.35 362.09 L287.35 387.3 L288.35 387.3 Z" stroke="rgb(0, 0, 0)" stroke-width="0" fill-rule="evenodd" stroke-linejoin="miter" fill="rgb(0, 0, 0)" shape-rendering="geometricPrecision" /><path d="M291.95 362.09 L291.95 362.09 L290.95 362.67 L290.95 387.3 L291.95 387.3 Z" stroke="rgb(0, 0, 0)" stroke-width="0" fill-rule="evenodd" stroke-linejoin="miter" fill="rgb(0, 0, 0)" shape-rendering="geometricPrecision" /></g><g id="Solid"><path d="M289.65 362.26 L289.65 362.26 L289.65 362.84 L289.65 363.42 L263.54 348.34 L263.67 347.84 L264.04 347.47 Z" stroke="rgb(0, 0, 0)" stroke-width="0" fill-rule="evenodd" stroke-linejoin="miter" fill="rgb(0, 0, 0)" shape-rendering="geometricPrecision" /></g><g id="Solid"><path d="M262.8 347.34 L262.8 347.34 L263.67 347.84 L263.54 348.34 L233.8 348.34 L233.67 347.84 L234.54 347.34 Z" stroke="rgb(0, 0, 0)" stroke-width="0" fill-rule="evenodd" stroke-linejoin="miter" fill="rgb(0, 0, 0)" shape-rendering="geometricPrecision" /></g><g id="Solid"><path d="M234.54 347.34 L234.54 347.34 L233.67 347.84 L233.3 347.47 L248.09 321.86 L248.67 321.86 L248.67 322.86 Z" stroke="rgb(0, 0, 0)" stroke-width="0" fill-rule="evenodd" stroke-linejoin="miter" fill="rgb(0, 0, 0)" shape-rendering="geometricPrecision" /></g><g id="Solid"><path d="M264.04 347.47 L264.04 347.47 L263.67 347.84 L262.8 347.34 L248.67 322.86 L248.67 321.86 L249.25 321.86 Z" stroke="rgb(0, 0, 0)" stroke-width="0" fill-rule="evenodd" stroke-linejoin="miter" fill="rgb(0, 0, 0)" shape-rendering="geometricPrecision" /></g><g id="Solid"><path d="M248.67 320.86 L248.67 320.86 L248.67 321.86 L248.09 321.86 L233.24 296.13 L233.67 295.88 L234.1 295.63 Z" stroke="rgb(0, 0, 0)" stroke-width="0" fill-rule="evenodd" stroke-linejoin="miter" fill="rgb(0, 0, 0)" shape-rendering="geometricPrecision" /></g><g id="Solid"><path d="M249.25 321.86 L249.25 321.86 L248.67 321.86 L248.67 320.86 L263.24 295.63 L263.67 295.88 L264.1 296.13 Z" stroke="rgb(0, 0, 0)" stroke-width="0" fill-rule="evenodd" stroke-linejoin="miter" fill="rgb(0, 0, 0)" shape-rendering="geometricPrecision" /></g><g id="Solid"><path d="M233.3 347.47 L233.3 347.47 L233.67 347.84 L233.8 348.34 L207.69 363.42 L207.69 362.84 L207.69 362.26 Z" stroke="rgb(0, 0, 0)" stroke-width="0" fill-rule="evenodd" stroke-linejoin="miter" fill="rgb(0, 0, 0)" shape-rendering="geometricPrecision" /></g><g id="Solid"><path d="M207.69 362.26 L207.69 362.26 L207.69 362.84 L207.69 363.42 L181.71 348.42 L181.71 347.84 L182.21 347.55 Z" stroke="rgb(0, 0, 0)" stroke-width="0" fill-rule="evenodd" stroke-linejoin="miter" fill="rgb(0, 0, 0)" shape-rendering="geometricPrecision" /><line x1="207.69" y1="358.68" x2="185.31" y2="345.76" stroke="rgb(0, 0, 0)" stroke-width="1" shape-rendering="auto" /></g><g id="Solid"><path d="M182.21 347.55 L182.21 347.55 L181.71 347.84 L181.21 347.55 L181.21 317.84 L181.71 317.84 L182.21 317.84 Z" stroke="rgb(0, 0, 0)" stroke-width="0" fill-rule="evenodd" stroke-linejoin="miter" fill="rgb(0, 0, 0)" shape-rendering="geometricPrecision" /></g><g id="Solid"><path d="M181.21 347.55 L181.21 347.55 L181.71 347.84 L181.71 348.42 L155.98 363.27 L155.73 362.84 L155.48 362.41 Z" stroke="rgb(0, 0, 0)" stroke-width="0" fill-rule="evenodd" stroke-linejoin="miter" fill="rgb(0, 0, 0)" shape-rendering="geometricPrecision" /></g></g></g></svg>