<?xml version="1.0" standalone="no" ?>
<!DOCTYPE svg PUBLIC "-//W3C//DTD SVG 1.1//EN" "http://www.w3.org/Graphics/SVG/1.1/DTD/svg11.dtd">
<svg width="625px" height="298px" viewBox="0 0 625 298" style="background-color: #ffffff00" xmlns="http://www.w3.org/2000/svg" xmlns:xlink="http://www.w3.org/1999/xlink" version="1.1" >
<text x="0" y="0" stroke="transparent" fill="#000000" transform="matrix(0.0666667 0 0 0.0666667 463.564 114.57)" style="font:normal normal normal 200px 'Arial'" >
O</text>
<text x="0" y="0" stroke="transparent" fill="#000000" transform="matrix(0.0666667 0 0 0.0666667 221.076 134.57)" style="font:normal normal normal 200px 'Arial'" >
O</text>
<text x="0" y="0" stroke="transparent" fill="#000000" transform="matrix(0.0666667 0 0 0.0666667 186.436 74.5702)" style="font:normal normal normal 200px 'Arial'" >
O</text>
<text x="0" y="0" stroke="transparent" fill="#000000" transform="matrix(0.0666667 0 0 0.0666667 47.8718 74.5742)" style="font:normal normal normal 200px 'Arial'" >
O</text>
<text x="0" y="0" stroke="transparent" fill="#000000" transform="matrix(0.0666667 0 0 0.0666667 82.5118 14.5741)" style="font:normal normal normal 200px 'Arial'" >
OH</text>
<text x="0" y="0" stroke="transparent" fill="#000000" transform="matrix(0.0666667 0 0 0.0666667 82.5118 134.57)" style="font:normal normal normal 200px 'Arial'" >
O</text>
<text x="0" y="0" stroke="transparent" fill="#000000" transform="matrix(0.0666667 0 0 0.0666667 117.152 194.566)" style="font:normal normal normal 200px 'Arial'" >
O</text>
<text x="0" y="0" stroke="transparent" fill="#000000" transform="matrix(0.0666667 0 0 0.0666667 151.796 294.57)" style="font:normal normal normal 200px 'Arial'" >
OH</text>
<text x="0" y="0" stroke="transparent" fill="#000000" transform="matrix(0.0666667 0 0 0.0666667 82.5118 294.57)" style="font:normal normal normal 200px 'Arial'" >
OH</text>
<text x="0" y="0" stroke="transparent" fill="#000000" transform="matrix(0.0666667 0 0 0.0666667 3.60291 254.57)" style="font:normal normal normal 200px 'Arial'" >
HO</text>
<text x="0" y="0" stroke="transparent" fill="#000000" transform="matrix(0.0666667 0 0 0.0666667 3.60291 174.566)" style="font:normal normal normal 200px 'Arial'" >
HO</text>
<text x="0" y="0" stroke="transparent" fill="#000000" transform="matrix(0.0666667 0 0 0.0666667 394.28 234.57)" style="font:normal normal normal 200px 'Arial'" >
O</text>
<text x="0" y="0" stroke="transparent" fill="#000000" transform="matrix(0.0666667 0 0 0.0666667 463.564 194.566)" style="font:normal normal normal 200px 'Arial'" >
O</text>
<text x="0" y="0" stroke="transparent" fill="#000000" transform="matrix(0.0666667 0 0 0.0666667 498.204 134.566)" style="font:normal normal normal 200px 'Arial'" >
O</text>
<text x="0" y="0" stroke="transparent" fill="#000000" transform="matrix(0.0666667 0 0 0.0666667 567.488 54.5701)" style="font:normal normal normal 200px 'Arial'" >
OH</text>
<text x="0" y="0" stroke="transparent" fill="#000000" transform="matrix(0.0666667 0 0 0.0666667 602.128 114.57)" style="font:normal normal normal 200px 'Arial'" >
OH</text>
<text x="0" y="0" stroke="transparent" fill="#000000" transform="matrix(0.0666667 0 0 0.0666667 602.128 194.566)" style="font:normal normal normal 200px 'Arial'" >
OH</text>
<text x="0" y="0" stroke="transparent" fill="#000000" transform="matrix(0.0666667 0 0 0.0666667 532.844 234.566)" style="font:normal normal normal 200px 'Arial'" >
OH</text>
<path stroke="transparent" fill="#000000" transform="matrix(0.0666667 0 0 0.0666667 -35.92 -196)" d="M 7580.26,4475.39 L 7560.26,4475.39 L 7560.26,3980.55 L 7580.26,3980.55 L 7580.26,4475.39 Z " />
<path stroke="transparent" fill="#000000" transform="matrix(0.0666667 0 0 0.0666667 -35.92 -196)" d="M 7060.66,4886.27 L 7050.66,4880.49 L 7050.66,4868.95 L 7465.65,4629.39 L 7475.65,4646.71 L 7060.66,4886.27 Z " />
<path stroke="transparent" fill="#000000" transform="matrix(0.0666667 0 0 0.0666667 -35.92 -196)" d="M 6531,4592.1 L 6531,4569.01 L 7050.66,4868.95 L 7050.66,4880.49 L 7040.66,4886.27 L 6531,4592.1 Z " />
<path stroke="transparent" fill="#000000" transform="matrix(0.0666667 0 0 0.0666667 -35.92 -196)" d="M 6526.01,4672.35 L 6536.01,4655.03 L 6983.66,4913.41 L 6973.66,4930.73 L 6526.01,4672.35 Z " />
<path stroke="transparent" fill="#000000" transform="matrix(0.0666667 0 0 0.0666667 -35.92 -196)" d="M 6021.4,4886.33 L 6011.4,4880.55 L 6011.4,4869.01 L 6531,4569.01 L 6531,4592.1 L 6021.4,4886.33 Z " />
<path stroke="transparent" fill="#000000" transform="matrix(0.0666667 0 0 0.0666667 -35.92 -196)" d="M 5491.8,4592.1 L 5491.8,4569.01 L 6011.4,4869.01 L 6011.4,4880.55 L 6001.4,4886.33 L 5491.8,4592.1 Z " />
<path stroke="transparent" fill="#000000" transform="matrix(0.0666667 0 0 0.0666667 -35.92 -196)" d="M 4972.2,4892.1 L 4972.2,4869.01 L 5491.8,4569.01 L 5491.8,4592.1 L 4972.2,4892.1 Z " />
<path stroke="transparent" fill="#000000" transform="matrix(0.0666667 0 0 0.0666667 -35.92 -196)" d="M 5013.2,4951.57 L 5003.2,4934.24 L 5486.8,4655.03 L 5496.8,4672.35 L 5013.2,4951.57 Z " />
<path stroke="transparent" fill="#000000" transform="matrix(0.0666667 0 0 0.0666667 -35.92 -196)" d="M 4452.54,4592.1 L 4452.54,4569.01 L 4972.2,4869.01 L 4972.2,4892.1 L 4452.54,4592.1 Z " />
<path stroke="transparent" fill="#000000" transform="matrix(0.0666667 0 0 0.0666667 -35.92 -196)" d="M 4030.56,4835.74 L 4020.56,4818.42 L 4452.54,4569.01 L 4452.54,4592.1 L 4030.56,4835.74 Z " />
<path stroke="transparent" fill="#000000" transform="matrix(0.0666667 0 0 0.0666667 -35.92 -196)" d="M 3413.34,4592.1 L 3413.34,4569.01 L 3845.32,4818.42 L 3835.32,4835.74 L 3413.34,4592.1 Z " />
<path stroke="transparent" fill="#000000" transform="matrix(0.0666667 0 0 0.0666667 -35.92 -196)" d="M 3367.34,4100.39 L 3387.34,4100.39 L 3387.34,4601.34 L 3367.34,4601.34 L 3367.34,4100.39 Z " />
<path stroke="transparent" fill="#000000" transform="matrix(0.0666667 0 0 0.0666667 -35.92 -196)" d="M 3439.34,4100.39 L 3459.34,4100.39 L 3459.34,4601.34 L 3439.34,4601.34 L 3439.34,4100.39 Z " />
<path stroke="transparent" fill="#000000" transform="matrix(0.0666667 0 0 0.0666667 -35.92 -196)" d="M 2893.74,4892.1 L 2893.74,4869.01 L 3413.34,4569.01 L 3413.34,4592.1 L 2893.74,4892.1 Z " />
<path stroke="transparent" fill="#000000" transform="matrix(0.0666667 0 0 0.0666667 -35.92 -196)" d="M 2374.08,4592.1 L 2374.08,4580.55 L 2394.08,4580.55 L 2893.74,4869.01 L 2893.74,4892.1 L 2374.08,4592.1 Z " />
<path stroke="transparent" fill="#000000" transform="matrix(0.0666667 0 0 0.0666667 -35.92 -196)" d="M 2888.74,4271.89 L 2898.74,4289.21 L 2394.08,4580.55 L 2374.08,4580.55 L 2384.08,4563.23 L 2888.74,4271.89 Z " />
<path stroke="transparent" fill="#000000" transform="matrix(0.0666667 0 0 0.0666667 -35.92 -196)" d="M 2364.08,3986.39 L 2384.08,3974.84 L 2384.08,4563.23 L 2374.08,4580.55 L 2364.08,4574.78 L 2364.08,3986.39 Z " />
<path stroke="transparent" fill="#000000" transform="matrix(0.0666667 0 0 0.0666667 -35.92 -196)" d="M 1844.48,3686.39 L 1864.48,3674.84 L 2384.08,3974.84 L 2364.08,3986.39 L 1844.48,3686.39 Z " />
<path stroke="transparent" fill="#000000" transform="matrix(0.0666667 0 0 0.0666667 -35.92 -196)" d="M 1450.5,3966.97 L 1440.5,3949.65 L 1885.48,3692.74 L 1895.48,3710.06 L 1450.5,3966.97 Z " />
<path stroke="transparent" fill="#000000" transform="matrix(0.0666667 0 0 0.0666667 -35.92 -196)" d="M 1414.5,3904.62 L 1404.5,3887.3 L 1849.48,3630.38 L 1859.48,3647.7 L 1414.5,3904.62 Z " />
<path stroke="transparent" fill="#000000" transform="matrix(0.0666667 0 0 0.0666667 -35.92 -196)" d="M 1844.48,3200.45 L 1864.48,3200.45 L 1864.48,3674.84 L 1844.48,3686.39 L 1844.48,3200.45 Z " />
<path stroke="transparent" fill="#000000" transform="matrix(0.0666667 0 0 0.0666667 -35.92 -196)" d="M 1952.1,4835.74 L 1942.1,4818.42 L 2364.08,4574.78 L 2374.08,4580.55 L 2374.08,4592.1 L 1952.1,4835.74 Z " />
<path stroke="transparent" fill="#000000" transform="matrix(0.0666667 0 0 0.0666667 -35.92 -196)" d="M 1794.48,5000.39 L 1914.48,5000.39 L 1912.13,5020.39 L 1796.82,5020.39 L 1794.48,5000.39 Z " />
<path stroke="transparent" fill="#000000" transform="matrix(0.0666667 0 0 0.0666667 -35.92 -196)" d="M 1801.29,5058.41 L 1907.67,5058.41 L 1905.32,5078.41 L 1803.63,5078.41 L 1801.29,5058.41 Z " />
<path stroke="transparent" fill="#000000" transform="matrix(0.0666667 0 0 0.0666667 -35.92 -196)" d="M 1808.09,5116.43 L 1900.86,5116.43 L 1898.52,5136.43 L 1810.44,5136.43 L 1808.09,5116.43 Z " />
<path stroke="transparent" fill="#000000" transform="matrix(0.0666667 0 0 0.0666667 -35.92 -196)" d="M 1814.9,5174.45 L 1894.05,5174.45 L 1891.71,5194.45 L 1817.25,5194.45 L 1814.9,5174.45 Z " />
<path stroke="transparent" fill="#000000" transform="matrix(0.0666667 0 0 0.0666667 -35.92 -196)" d="M 1821.71,5232.47 L 1887.25,5232.47 L 1884.9,5252.47 L 1824.05,5252.47 L 1821.71,5232.47 Z " />
<path stroke="transparent" fill="#000000" transform="matrix(0.0666667 0 0 0.0666667 -35.92 -196)" d="M 1828.52,5290.49 L 1880.44,5290.49 L 1878.09,5310.49 L 1830.86,5310.49 L 1828.52,5290.49 Z " />
<path stroke="transparent" fill="#000000" transform="matrix(0.0666667 0 0 0.0666667 -35.92 -196)" d="M 1835.32,5348.51 L 1873.63,5348.51 L 1871.29,5368.51 L 1837.67,5368.51 L 1835.32,5348.51 Z " />
<path stroke="transparent" fill="#000000" transform="matrix(0.0666667 0 0 0.0666667 -35.92 -196)" d="M 1842.13,5406.53 L 1866.82,5406.53 L 1864.48,5426.53 L 1844.48,5426.53 L 1842.13,5406.53 Z " />
<path stroke="transparent" fill="#000000" transform="matrix(0.0666667 0 0 0.0666667 -35.92 -196)" d="M 2286.45,5718.37 L 2276.46,5735.69 L 1854.48,5492.1 L 1854.48,5469.01 L 2286.45,5718.37 Z " />
<path stroke="transparent" fill="#000000" transform="matrix(0.0666667 0 0 0.0666667 -35.92 -196)" d="M 2364.08,5900.33 L 2384.08,5900.33 L 2384.08,6386.33 L 2364.08,6374.78 L 2364.08,5900.33 Z " />
<path stroke="transparent" fill="#000000" transform="matrix(0.0666667 0 0 0.0666667 -35.92 -196)" d="M 2876.97,6601.59 L 2816.97,6705.52 L 2800.67,6693.76 L 2858.63,6593.35 L 2876.97,6601.59 Z " />
<path stroke="transparent" fill="#000000" transform="matrix(0.0666667 0 0 0.0666667 -35.92 -196)" d="M 2822.87,6577.28 L 2768.87,6670.82 L 2752.56,6659.06 L 2804.53,6569.04 L 2822.87,6577.28 Z " />
<path stroke="transparent" fill="#000000" transform="matrix(0.0666667 0 0 0.0666667 -35.92 -196)" d="M 2768.77,6552.98 L 2720.77,6636.13 L 2704.46,6624.37 L 2750.43,6544.74 L 2768.77,6552.98 Z " />
<path stroke="transparent" fill="#000000" transform="matrix(0.0666667 0 0 0.0666667 -35.92 -196)" d="M 2714.67,6528.67 L 2672.66,6601.44 L 2656.36,6589.68 L 2696.34,6520.43 L 2714.67,6528.67 Z " />
<path stroke="transparent" fill="#000000" transform="matrix(0.0666667 0 0 0.0666667 -35.92 -196)" d="M 2660.58,6504.36 L 2624.56,6566.75 L 2608.26,6554.99 L 2642.24,6496.12 L 2660.58,6504.36 Z " />
<path stroke="transparent" fill="#000000" transform="matrix(0.0666667 0 0 0.0666667 -35.92 -196)" d="M 2606.48,6480.05 L 2576.46,6532.05 L 2560.15,6520.29 L 2588.14,6471.82 L 2606.48,6480.05 Z " />
<path stroke="transparent" fill="#000000" transform="matrix(0.0666667 0 0 0.0666667 -35.92 -196)" d="M 2552.38,6455.75 L 2528.36,6497.36 L 2512.05,6485.6 L 2534.04,6447.51 L 2552.38,6455.75 Z " />
<path stroke="transparent" fill="#000000" transform="matrix(0.0666667 0 0 0.0666667 -35.92 -196)" d="M 2498.28,6431.44 L 2480.25,6462.67 L 2463.95,6450.91 L 2479.95,6423.2 L 2498.28,6431.44 Z " />
<path stroke="transparent" fill="#000000" transform="matrix(0.0666667 0 0 0.0666667 -35.92 -196)" d="M 2444.18,6407.13 L 2432.15,6427.97 L 2415.85,6416.21 L 2425.85,6398.89 L 2444.18,6407.13 Z " />
<path stroke="transparent" fill="#000000" transform="matrix(0.0666667 0 0 0.0666667 -35.92 -196)" d="M 2903.74,7175.39 L 2883.74,7175.39 L 2883.74,6680.55 L 2903.74,6680.55 L 2903.74,7175.39 Z " />
<path stroke="transparent" fill="#000000" transform="matrix(0.0666667 0 0 0.0666667 -35.92 -196)" d="M 2364.08,6374.78 L 2384.08,6386.33 L 1865.03,6685.95 L 1854.48,6680.49 L 1854.48,6668.95 L 2364.08,6374.78 Z " />
<path stroke="transparent" fill="#000000" transform="matrix(0.0666667 0 0 0.0666667 -35.92 -196)" d="M 1914.48,7175.39 L 1794.48,7175.39 L 1843.93,6685.95 L 1854.48,6680.49 L 1865.03,6685.95 L 1914.48,7175.39 Z " />
<path stroke="transparent" fill="#000000" transform="matrix(0.0666667 0 0 0.0666667 -35.92 -196)" d="M 1854.48,6668.95 L 1854.48,6680.49 L 1843.93,6685.95 L 1324.88,6386.33 L 1344.88,6374.78 L 1854.48,6668.95 Z " />
<path stroke="transparent" fill="#000000" transform="matrix(0.0666667 0 0 0.0666667 -35.92 -196)" d="M 937.888,6679.05 L 877.886,6575.12 L 896.346,6567.1 L 954.069,6667.07 L 937.888,6679.05 Z " />
<path stroke="transparent" fill="#000000" transform="matrix(0.0666667 0 0 0.0666667 -35.92 -196)" d="M 986.322,6643.21 L 933.138,6551.09 L 951.597,6543.07 L 1002.5,6631.24 L 986.322,6643.21 Z " />
<path stroke="transparent" fill="#000000" transform="matrix(0.0666667 0 0 0.0666667 -35.92 -196)" d="M 1034.76,6607.37 L 988.39,6527.07 L 1006.85,6519.04 L 1050.94,6595.4 L 1034.76,6607.37 Z " />
<path stroke="transparent" fill="#000000" transform="matrix(0.0666667 0 0 0.0666667 -35.92 -196)" d="M 1083.19,6571.54 L 1043.64,6503.04 L 1062.1,6495.01 L 1099.37,6559.56 L 1083.19,6571.54 Z " />
<path stroke="transparent" fill="#000000" transform="matrix(0.0666667 0 0 0.0666667 -35.92 -196)" d="M 1131.62,6535.7 L 1098.89,6479.01 L 1117.35,6470.98 L 1147.81,6523.73 L 1131.62,6535.7 Z " />
<path stroke="transparent" fill="#000000" transform="matrix(0.0666667 0 0 0.0666667 -35.92 -196)" d="M 1180.06,6499.86 L 1154.14,6454.98 L 1172.6,6446.95 L 1196.24,6487.89 L 1180.06,6499.86 Z " />
<path stroke="transparent" fill="#000000" transform="matrix(0.0666667 0 0 0.0666667 -35.92 -196)" d="M 1228.49,6464.03 L 1209.4,6430.95 L 1227.86,6422.93 L 1244.67,6452.05 L 1228.49,6464.03 Z " />
<path stroke="transparent" fill="#000000" transform="matrix(0.0666667 0 0 0.0666667 -35.92 -196)" d="M 1276.93,6428.19 L 1264.65,6406.92 L 1283.11,6398.9 L 1293.11,6416.22 L 1276.93,6428.19 Z " />
<path stroke="transparent" fill="#000000" transform="matrix(0.0666667 0 0 0.0666667 -35.92 -196)" d="M 1344.88,6374.78 L 1324.88,6386.33 L 1324.88,5786.98 L 1334.88,5780.55 L 1344.88,5786.33 L 1344.88,6374.78 Z " />
<path stroke="transparent" fill="#000000" transform="matrix(0.0666667 0 0 0.0666667 -35.92 -196)" d="M 1344.88,5786.33 L 1334.88,5780.55 L 1335.44,5768.68 L 1854.48,5469.01 L 1854.48,5492.1 L 1344.88,5786.33 Z " />
<path stroke="transparent" fill="#000000" transform="matrix(0.0666667 0 0 0.0666667 -35.92 -196)" d="M 885.296,5590.21 L 945.306,5486.3 L 1335.44,5768.68 L 1334.88,5780.55 L 1324.88,5786.98 L 885.296,5590.21 Z " />
<path stroke="transparent" fill="#000000" transform="matrix(0.0666667 0 0 0.0666667 -35.92 -196)" d="M 6021.4,5474.78 L 6001.4,5486.33 L 6001.4,4886.33 L 6011.4,4880.55 L 6021.4,4886.33 L 6021.4,5474.78 Z " />
<path stroke="transparent" fill="#000000" transform="matrix(0.0666667 0 0 0.0666667 -35.92 -196)" d="M 6093.4,5438.98 L 6073.4,5438.98 L 6073.4,4922.12 L 6093.4,4922.12 L 6093.4,5438.98 Z " />
<path stroke="transparent" fill="#000000" transform="matrix(0.0666667 0 0 0.0666667 -35.92 -196)" d="M 6531,5769.01 L 6531,5780.55 L 6521,5786.33 L 6001.4,5486.33 L 6021.4,5474.78 L 6531,5769.01 Z " />
<path stroke="transparent" fill="#000000" transform="matrix(0.0666667 0 0 0.0666667 -35.92 -196)" d="M 6541,6275.39 L 6521,6275.39 L 6521,5786.33 L 6531,5780.55 L 6541,5786.33 L 6541,6275.39 Z " />
<path stroke="transparent" fill="#000000" transform="matrix(0.0666667 0 0 0.0666667 -35.92 -196)" d="M 7055.66,6671.89 L 7045.66,6689.21 L 6626.04,6446.97 L 6636.04,6429.65 L 7055.66,6671.89 Z " />
<path stroke="transparent" fill="#000000" transform="matrix(0.0666667 0 0 0.0666667 -35.92 -196)" d="M 7040.66,5474.72 L 7050.66,5480.49 L 7050.66,5492.04 L 6541,5786.33 L 6531,5780.55 L 6531,5769.01 L 7040.66,5474.72 Z " />
<path stroke="transparent" fill="#000000" transform="matrix(0.0666667 0 0 0.0666667 -35.92 -196)" d="M 6973.65,5430.26 L 6983.65,5447.58 L 6536,5706.06 L 6526,5688.74 L 6973.65,5430.26 Z " />
<path stroke="transparent" fill="#000000" transform="matrix(0.0666667 0 0 0.0666667 -35.92 -196)" d="M 7060.66,5474.72 L 7050.66,5480.49 L 7040.66,5474.72 L 7040.66,4886.27 L 7050.66,4880.49 L 7060.66,4886.27 L 7060.66,5474.72 Z " />
<path stroke="transparent" fill="#000000" transform="matrix(0.0666667 0 0 0.0666667 -35.92 -196)" d="M 7482.64,5718.36 L 7472.64,5735.68 L 7050.66,5492.04 L 7050.66,5480.49 L 7060.66,5474.72 L 7482.64,5718.36 Z " />
<path stroke="transparent" fill="#000000" transform="matrix(0.0666667 0 0 0.0666667 -35.92 -196)" d="M 7692.88,5778.98 L 7632.88,5675.06 L 7651.34,5667.03 L 7709.06,5767.01 L 7692.88,5778.98 Z " />
<path stroke="transparent" fill="#000000" transform="matrix(0.0666667 0 0 0.0666667 -35.92 -196)" d="M 7741.31,5743.14 L 7688.13,5651.03 L 7706.59,5643 L 7757.49,5731.17 L 7741.31,5743.14 Z " />
<path stroke="transparent" fill="#000000" transform="matrix(0.0666667 0 0 0.0666667 -35.92 -196)" d="M 7789.75,5707.31 L 7743.38,5627 L 7761.84,5618.97 L 7805.93,5695.34 L 7789.75,5707.31 Z " />
<path stroke="transparent" fill="#000000" transform="matrix(0.0666667 0 0 0.0666667 -35.92 -196)" d="M 7838.18,5671.47 L 7798.63,5602.97 L 7817.09,5594.95 L 7854.36,5659.5 L 7838.18,5671.47 Z " />
<path stroke="transparent" fill="#000000" transform="matrix(0.0666667 0 0 0.0666667 -35.92 -196)" d="M 7886.61,5635.64 L 7853.88,5578.95 L 7872.34,5570.92 L 7902.79,5623.66 L 7886.61,5635.64 Z " />
<path stroke="transparent" fill="#000000" transform="matrix(0.0666667 0 0 0.0666667 -35.92 -196)" d="M 7935.05,5599.8 L 7909.13,5554.92 L 7927.59,5546.89 L 7951.23,5587.83 L 7935.05,5599.8 Z " />
<path stroke="transparent" fill="#000000" transform="matrix(0.0666667 0 0 0.0666667 -35.92 -196)" d="M 7983.48,5563.97 L 7964.38,5530.89 L 7982.84,5522.86 L 7999.66,5551.99 L 7983.48,5563.97 Z " />
<path stroke="transparent" fill="#000000" transform="matrix(0.0666667 0 0 0.0666667 -35.92 -196)" d="M 8031.91,5528.13 L 8019.63,5506.86 L 8038.09,5498.84 L 8048.09,5516.16 L 8031.91,5528.13 Z " />
<path stroke="transparent" fill="#000000" transform="matrix(0.0666667 0 0 0.0666667 -35.92 -196)" d="M 8079.86,5000.33 L 8099.86,5000.33 L 8099.86,5474.72 L 8079.86,5486.27 L 8079.86,5000.33 Z " />
<path stroke="transparent" fill="#000000" transform="matrix(0.0666667 0 0 0.0666667 -35.92 -196)" d="M 8187.48,4835.69 L 8177.48,4818.37 L 8609.46,4569.01 L 8609.46,4592.1 L 8187.48,4835.69 Z " />
<path stroke="transparent" fill="#000000" transform="matrix(0.0666667 0 0 0.0666667 -35.92 -196)" d="M 8549.46,4034.55 L 8669.46,4034.55 L 8667.43,4054.55 L 8551.49,4054.55 L 8549.46,4034.55 Z " />
<path stroke="transparent" fill="#000000" transform="matrix(0.0666667 0 0 0.0666667 -35.92 -196)" d="M 8555.46,4093.55 L 8663.47,4093.55 L 8661.43,4113.55 L 8557.49,4113.55 L 8555.46,4093.55 Z " />
<path stroke="transparent" fill="#000000" transform="matrix(0.0666667 0 0 0.0666667 -35.92 -196)" d="M 8561.45,4152.55 L 8657.47,4152.55 L 8655.44,4172.55 L 8563.49,4172.55 L 8561.45,4152.55 Z " />
<path stroke="transparent" fill="#000000" transform="matrix(0.0666667 0 0 0.0666667 -35.92 -196)" d="M 8567.45,4211.55 L 8651.47,4211.55 L 8649.44,4231.55 L 8569.48,4231.55 L 8567.45,4211.55 Z " />
<path stroke="transparent" fill="#000000" transform="matrix(0.0666667 0 0 0.0666667 -35.92 -196)" d="M 8573.45,4270.55 L 8645.48,4270.55 L 8643.45,4290.55 L 8575.48,4290.55 L 8573.45,4270.55 Z " />
<path stroke="transparent" fill="#000000" transform="matrix(0.0666667 0 0 0.0666667 -35.92 -196)" d="M 8579.44,4329.55 L 8639.48,4329.55 L 8637.45,4349.55 L 8581.47,4349.55 L 8579.44,4329.55 Z " />
<path stroke="transparent" fill="#000000" transform="matrix(0.0666667 0 0 0.0666667 -35.92 -196)" d="M 8585.44,4388.55 L 8633.49,4388.55 L 8631.45,4408.55 L 8587.47,4408.55 L 8585.44,4388.55 Z " />
<path stroke="transparent" fill="#000000" transform="matrix(0.0666667 0 0 0.0666667 -35.92 -196)" d="M 8591.43,4447.55 L 8627.49,4447.55 L 8625.46,4467.55 L 8593.47,4467.55 L 8591.43,4447.55 Z " />
<path stroke="transparent" fill="#000000" transform="matrix(0.0666667 0 0 0.0666667 -35.92 -196)" d="M 8597.43,4506.55 L 8621.49,4506.55 L 8619.46,4526.55 L 8599.46,4526.55 L 8597.43,4506.55 Z " />
<path stroke="transparent" fill="#000000" transform="matrix(0.0666667 0 0 0.0666667 -35.92 -196)" d="M 9024.52,3729.39 L 9034.52,3746.71 L 8614.46,3989.21 L 8604.46,3971.89 L 9024.52,3729.39 Z " />
<path stroke="transparent" fill="#000000" transform="matrix(0.0666667 0 0 0.0666667 -35.92 -196)" d="M 8609.46,4592.1 L 8609.46,4569.01 L 9128.56,4868.62 L 9129.12,4880.49 L 9119.12,4886.27 L 8609.46,4592.1 Z " />
<path stroke="transparent" fill="#000000" transform="matrix(0.0666667 0 0 0.0666667 -35.92 -196)" d="M 9519.12,4586.09 L 9579.11,4690.01 L 9139.12,4886.92 L 9129.12,4880.49 L 9128.56,4868.62 L 9519.12,4586.09 Z " />
<path stroke="transparent" fill="#000000" transform="matrix(0.0666667 0 0 0.0666667 -35.92 -196)" d="M 9119.12,4886.27 L 9129.12,4880.49 L 9139.12,4886.92 L 9139.12,5486.27 L 9119.12,5474.72 L 9119.12,4886.27 Z " />
<path stroke="transparent" fill="#000000" transform="matrix(0.0666667 0 0 0.0666667 -35.92 -196)" d="M 9586.11,5675.06 L 9526.1,5778.98 L 9509.92,5767.01 L 9567.65,5667.03 L 9586.11,5675.06 Z " />
<path stroke="transparent" fill="#000000" transform="matrix(0.0666667 0 0 0.0666667 -35.92 -196)" d="M 9530.85,5651.03 L 9477.67,5743.14 L 9461.49,5731.17 L 9512.4,5643 L 9530.85,5651.03 Z " />
<path stroke="transparent" fill="#000000" transform="matrix(0.0666667 0 0 0.0666667 -35.92 -196)" d="M 9475.6,5627 L 9429.24,5707.31 L 9413.06,5695.34 L 9457.14,5618.97 L 9475.6,5627 Z " />
<path stroke="transparent" fill="#000000" transform="matrix(0.0666667 0 0 0.0666667 -35.92 -196)" d="M 9420.35,5602.97 L 9380.8,5671.47 L 9364.62,5659.5 L 9401.89,5594.95 L 9420.35,5602.97 Z " />
<path stroke="transparent" fill="#000000" transform="matrix(0.0666667 0 0 0.0666667 -35.92 -196)" d="M 9365.1,5578.95 L 9332.37,5635.64 L 9316.19,5623.66 L 9346.64,5570.92 L 9365.1,5578.95 Z " />
<path stroke="transparent" fill="#000000" transform="matrix(0.0666667 0 0 0.0666667 -35.92 -196)" d="M 9309.85,5554.92 L 9283.94,5599.8 L 9267.76,5587.83 L 9291.39,5546.89 L 9309.85,5554.92 Z " />
<path stroke="transparent" fill="#000000" transform="matrix(0.0666667 0 0 0.0666667 -35.92 -196)" d="M 9254.6,5530.89 L 9235.51,5563.97 L 9219.32,5551.99 L 9236.14,5522.86 L 9254.6,5530.89 Z " />
<path stroke="transparent" fill="#000000" transform="matrix(0.0666667 0 0 0.0666667 -35.92 -196)" d="M 9199.35,5506.86 L 9187.07,5528.13 L 9170.89,5516.16 L 9180.89,5498.84 L 9199.35,5506.86 Z " />
<path stroke="transparent" fill="#000000" transform="matrix(0.0666667 0 0 0.0666667 -35.92 -196)" d="M 9119.12,5474.72 L 9139.12,5486.27 L 8620.01,5785.95 L 8609.46,5780.49 L 8609.46,5768.95 L 9119.12,5474.72 Z " />
<path stroke="transparent" fill="#000000" transform="matrix(0.0666667 0 0 0.0666667 -35.92 -196)" d="M 8609.46,5768.95 L 8609.46,5780.49 L 8598.91,5785.95 L 8079.86,5486.27 L 8099.86,5474.72 L 8609.46,5768.95 Z " />
<path stroke="transparent" fill="#000000" transform="matrix(0.0666667 0 0 0.0666667 -35.92 -196)" d="M 8669.46,6275.33 L 8549.46,6275.33 L 8598.91,5785.95 L 8609.46,5780.49 L 8620.01,5785.95 L 8669.46,6275.33 Z " />
</svg>
