<?xml version="1.0" standalone="no" ?>
<!DOCTYPE svg PUBLIC "-//W3C//DTD SVG 1.1//EN" "http://www.w3.org/Graphics/SVG/1.1/DTD/svg11.dtd">
<svg width="402px" height="281px" viewBox="0 0 402 281" style="background-color: #ffffff00" xmlns="http://www.w3.org/2000/svg" xmlns:xlink="http://www.w3.org/1999/xlink" version="1.1" >
<text x="0" y="0" stroke="none" fill="#000000" transform="matrix(0.0666667 0 0 0.0666667 2.83996 248.379)" font-style="normal" font-weight="normal" font-size="200px" font-family="Arial" >
HO</text>
<text x="0" y="0" stroke="none" fill="#000000" transform="matrix(0.0666667 0 0 0.0666667 324.238 188.379)" font-style="normal" font-weight="normal" font-size="200px" font-family="Arial" >
O</text>
<text x="0" y="0" stroke="none" fill="#000000" transform="matrix(0.0666667 0 0 0.0666667 358.879 128.379)" font-style="normal" font-weight="normal" font-size="200px" font-family="Arial" >
O</text>
<path stroke="none" fill="#000000" transform="matrix(0.0666667 0 0 0.0666667 -140.853 -171.333)" d="M 6544.75,3163.69 L 6524.75,3163.69 L 6522.92,3143.69 L 6546.59,3143.69 L 6544.75,3163.69 Z " />
<path stroke="none" fill="#000000" transform="matrix(0.0666667 0 0 0.0666667 -140.853 -171.333)" d="M 6550.11,3105.25 L 6519.4,3105.25 L 6517.57,3085.25 L 6551.94,3085.25 L 6550.11,3105.25 Z " />
<path stroke="none" fill="#000000" transform="matrix(0.0666667 0 0 0.0666667 -140.853 -171.333)" d="M 6555.46,3046.8 L 6514.05,3046.8 L 6512.22,3026.8 L 6557.29,3026.8 L 6555.46,3046.8 Z " />
<path stroke="none" fill="#000000" transform="matrix(0.0666667 0 0 0.0666667 -140.853 -171.333)" d="M 6560.81,2988.36 L 6508.7,2988.36 L 6506.87,2968.36 L 6562.64,2968.36 L 6560.81,2988.36 Z " />
<path stroke="none" fill="#000000" transform="matrix(0.0666667 0 0 0.0666667 -140.853 -171.333)" d="M 6566.16,2929.91 L 6503.35,2929.91 L 6501.52,2909.91 L 6567.99,2909.91 L 6566.16,2929.91 Z " />
<path stroke="none" fill="#000000" transform="matrix(0.0666667 0 0 0.0666667 -140.853 -171.333)" d="M 6571.52,2871.47 L 6497.99,2871.47 L 6496.16,2851.47 L 6573.35,2851.47 L 6571.52,2871.47 Z " />
<path stroke="none" fill="#000000" transform="matrix(0.0666667 0 0 0.0666667 -140.853 -171.333)" d="M 6576.87,2813.03 L 6492.64,2813.03 L 6490.81,2793.03 L 6578.7,2793.03 L 6576.87,2813.03 Z " />
<path stroke="none" fill="#000000" transform="matrix(0.0666667 0 0 0.0666667 -140.853 -171.333)" d="M 6582.22,2754.58 L 6487.29,2754.58 L 6485.46,2734.58 L 6584.05,2734.58 L 6582.22,2754.58 Z " />
<path stroke="none" fill="#000000" transform="matrix(0.0666667 0 0 0.0666667 -140.853 -171.333)" d="M 6587.57,2696.14 L 6481.94,2696.14 L 6480.11,2676.14 L 6589.4,2676.14 L 6587.57,2696.14 Z " />
<path stroke="none" fill="#000000" transform="matrix(0.0666667 0 0 0.0666667 -140.853 -171.333)" d="M 6592.92,2637.69 L 6476.59,2637.69 L 6474.75,2617.69 L 6594.75,2617.69 L 6592.92,2637.69 Z " />
<path stroke="none" fill="#000000" transform="matrix(0.0666667 0 0 0.0666667 -140.853 -171.333)" d="M 7064.37,3511.92 L 7044.37,3523.47 L 6534.75,3229.24 L 6534.75,3206.15 L 7064.37,3511.92 Z " />
<path stroke="none" fill="#000000" transform="matrix(0.0666667 0 0 0.0666667 -140.853 -171.333)" d="M 7064.37,4123.47 L 7044.37,4111.92 L 7044.37,3523.47 L 7064.37,3511.92 L 7064.37,4123.47 Z " />
<path stroke="none" fill="#000000" transform="matrix(0.0666667 0 0 0.0666667 -140.853 -171.333)" d="M 6556.27,4416.82 L 6534.75,4417.69 L 6534.75,4406.15 L 7044.37,4111.92 L 7064.37,4123.47 L 6556.27,4416.82 Z " />
<path stroke="none" fill="#000000" transform="matrix(0.0666667 0 0 0.0666667 -140.853 -171.333)" d="M 6544.75,5023.47 L 6524.75,5011.92 L 6524.75,4423.47 L 6534.75,4417.69 L 6544.75,4436.76 L 6544.75,5023.47 Z " />
<path stroke="none" fill="#000000" transform="matrix(0.0666667 0 0 0.0666667 -140.853 -171.333)" d="M 6015.14,5329.24 L 6015.14,5306.15 L 6524.75,5011.92 L 6544.75,5023.47 L 6015.14,5329.24 Z " />
<path stroke="none" fill="#000000" transform="matrix(0.0666667 0 0 0.0666667 -140.853 -171.333)" d="M 5495.52,5029.24 L 5495.52,5017.69 L 5505.52,5011.92 L 6015.14,5306.15 L 6015.14,5329.24 L 5495.52,5029.24 Z " />
<path stroke="none" fill="#000000" transform="matrix(0.0666667 0 0 0.0666667 -140.853 -171.333)" d="M 5485.52,4423.47 L 5495.52,4417.69 L 5505.52,4423.47 L 5505.52,5011.92 L 5495.52,5017.69 L 5485.52,5011.92 L 5485.52,4423.47 Z " />
<path stroke="none" fill="#000000" transform="matrix(0.0666667 0 0 0.0666667 -140.853 -171.333)" d="M 4975.91,4129.24 L 4975.91,4106.15 L 5495.52,4406.15 L 5495.52,4417.69 L 5485.52,4423.47 L 4975.91,4129.24 Z " />
<path stroke="none" fill="#000000" transform="matrix(0.0666667 0 0 0.0666667 -140.853 -171.333)" d="M 4970.91,4209.49 L 4980.91,4192.17 L 5428.52,4450.6 L 5418.52,4467.92 L 4970.91,4209.49 Z " />
<path stroke="none" fill="#000000" transform="matrix(0.0666667 0 0 0.0666667 -140.853 -171.333)" d="M 4466.29,4423.47 L 4446.29,4411.92 L 4975.91,4106.15 L 4975.91,4129.24 L 4466.29,4423.47 Z " />
<path stroke="none" fill="#000000" transform="matrix(0.0666667 0 0 0.0666667 -140.853 -171.333)" d="M 4466.29,5011.92 L 4456.29,5017.69 L 4446.29,5011.92 L 4446.29,4411.92 L 4466.29,4423.47 L 4466.29,5011.92 Z " />
<path stroke="none" fill="#000000" transform="matrix(0.0666667 0 0 0.0666667 -140.853 -171.333)" d="M 4964.39,5299.5 L 4975.91,5317.69 L 4965.91,5323.47 L 4456.29,5029.24 L 4456.29,5017.69 L 4466.29,5011.92 L 4964.39,5299.5 Z " />
<path stroke="none" fill="#000000" transform="matrix(0.0666667 0 0 0.0666667 -140.853 -171.333)" d="M 4985.91,5323.47 L 4975.91,5317.69 L 4987.43,5299.5 L 5485.52,5011.92 L 5495.52,5017.69 L 5495.52,5029.24 L 4985.91,5323.47 Z " />
<path stroke="none" fill="#000000" transform="matrix(0.0666667 0 0 0.0666667 -140.853 -171.333)" d="M 4985.91,5923.47 L 4965.91,5911.92 L 4965.91,5323.47 L 4975.91,5317.69 L 4985.91,5323.47 L 4985.91,5923.47 Z " />
<path stroke="none" fill="#000000" transform="matrix(0.0666667 0 0 0.0666667 -140.853 -171.333)" d="M 4456.29,6229.24 L 4456.29,6206.15 L 4965.91,5911.92 L 4985.91,5923.47 L 4456.29,6229.24 Z " />
<path stroke="none" fill="#000000" transform="matrix(0.0666667 0 0 0.0666667 -140.853 -171.333)" d="M 3936.68,5929.24 L 3936.68,5917.69 L 3946.68,5911.92 L 4456.29,6206.15 L 4456.29,6229.24 L 3936.68,5929.24 Z " />
<path stroke="none" fill="#000000" transform="matrix(0.0666667 0 0 0.0666667 -140.853 -171.333)" d="M 3926.68,5323.47 L 3936.68,5317.69 L 3946.68,5323.47 L 3946.68,5911.92 L 3936.68,5917.69 L 3926.68,5911.92 L 3926.68,5323.47 Z " />
<path stroke="none" fill="#000000" transform="matrix(0.0666667 0 0 0.0666667 -140.853 -171.333)" d="M 3946.68,5323.47 L 3936.68,5317.69 L 3948.2,5299.5 L 4446.29,5011.92 L 4456.29,5017.69 L 4456.29,5029.24 L 3946.68,5323.47 Z " />
<path stroke="none" fill="#000000" transform="matrix(0.0666667 0 0 0.0666667 -140.853 -171.333)" d="M 3417.06,5029.24 L 3417.06,5006.15 L 3925.16,5299.5 L 3936.68,5317.69 L 3926.68,5323.47 L 3417.06,5029.24 Z " />
<path stroke="none" fill="#000000" transform="matrix(0.0666667 0 0 0.0666667 -140.853 -171.333)" d="M 2907.45,5323.47 L 2887.45,5311.92 L 3417.06,5006.15 L 3417.06,5029.24 L 2907.45,5323.47 Z " />
<path stroke="none" fill="#000000" transform="matrix(0.0666667 0 0 0.0666667 -140.853 -171.333)" d="M 2907.45,5911.92 L 2897.45,5917.69 L 2887.45,5911.28 L 2887.45,5311.92 L 2907.45,5323.47 L 2907.45,5911.92 Z " />
<path stroke="none" fill="#000000" transform="matrix(0.0666667 0 0 0.0666667 -140.853 -171.333)" d="M 3417.06,6206.15 L 3417.06,6217.69 L 3403.4,6221.35 L 2898,5929.56 L 2897.45,5917.69 L 2907.45,5911.92 L 3417.06,6206.15 Z " />
<path stroke="none" fill="#000000" transform="matrix(0.0666667 0 0 0.0666667 -140.853 -171.333)" d="M 3430.72,6221.35 L 3417.06,6217.69 L 3417.06,6206.15 L 3926.68,5911.92 L 3936.68,5917.69 L 3936.68,5929.24 L 3430.72,6221.35 Z " />
<path stroke="none" fill="#000000" transform="matrix(0.0666667 0 0 0.0666667 -140.853 -171.333)" d="M 3725.72,6732.31 L 3708.4,6742.31 L 3417.06,6237.69 L 3417.06,6217.69 L 3430.72,6221.35 L 3725.72,6732.31 Z " />
<path stroke="none" fill="#000000" transform="matrix(0.0666667 0 0 0.0666667 -140.853 -171.333)" d="M 3125.72,6742.31 L 3108.4,6732.31 L 3403.4,6221.35 L 3417.06,6217.69 L 3417.06,6237.69 L 3125.72,6742.31 Z " />
<path stroke="none" fill="#000000" transform="matrix(0.0666667 0 0 0.0666667 -140.853 -171.333)" d="M 2500.44,6216.19 L 2440.44,6112.26 L 2887.45,5911.28 L 2897.45,5917.69 L 2898,5929.56 L 2500.44,6216.19 Z " />
<path stroke="none" fill="#000000" transform="matrix(0.0666667 0 0 0.0666667 -140.853 -171.333)" d="M 3876.68,4717.69 L 3996.68,4717.69 L 3948.2,5299.5 L 3936.68,5317.69 L 3925.16,5299.5 L 3876.68,4717.69 Z " />
<path stroke="none" fill="#000000" transform="matrix(0.0666667 0 0 0.0666667 -140.853 -171.333)" d="M 4915.91,4717.69 L 5035.91,4717.69 L 4987.43,5299.5 L 4975.91,5317.69 L 4964.39,5299.5 L 4915.91,4717.69 Z " />
<path stroke="none" fill="#000000" transform="matrix(0.0666667 0 0 0.0666667 -140.853 -171.333)" d="M 6005.14,4111.92 L 6015.14,4117.69 L 6015.14,4129.24 L 5505.52,4423.47 L 5495.52,4417.69 L 5495.52,4406.15 L 6005.14,4111.92 Z " />
<path stroke="none" fill="#000000" transform="matrix(0.0666667 0 0 0.0666667 -140.853 -171.333)" d="M 6015.14,4129.24 L 6015.14,4117.69 L 6025.14,4111.92 L 6534.75,4406.15 L 6534.75,4417.69 L 6524.75,4423.47 L 6015.14,4129.24 Z " />
<path stroke="none" fill="#000000" transform="matrix(0.0666667 0 0 0.0666667 -140.853 -171.333)" d="M 6005.14,3524 L 6015.14,3517.69 L 6025.14,3523.47 L 6025.14,4111.92 L 6015.14,4117.69 L 6005.14,4111.92 L 6005.14,3524 Z " />
<path stroke="none" fill="#000000" transform="matrix(0.0666667 0 0 0.0666667 -140.853 -171.333)" d="M 6025.14,3523.47 L 6015.14,3517.69 L 6015.6,3505.88 L 6534.75,3206.15 L 6534.75,3229.24 L 6025.14,3523.47 Z " />
<path stroke="none" fill="#000000" transform="matrix(0.0666667 0 0 0.0666667 -140.853 -171.333)" d="M 5465.52,3269.65 L 5525.52,3165.73 L 6015.6,3505.88 L 6015.14,3517.69 L 6005.14,3524 L 5465.52,3269.65 Z " />
<path stroke="none" fill="#000000" transform="matrix(0.0666667 0 0 0.0666667 -140.853 -171.333)" d="M 5555.52,5617.69 L 5435.52,5617.69 L 5437.36,5597.69 L 5553.69,5597.69 L 5555.52,5617.69 Z " />
<path stroke="none" fill="#000000" transform="matrix(0.0666667 0 0 0.0666667 -140.853 -171.333)" d="M 5550.17,5559.25 L 5440.88,5559.25 L 5442.71,5539.25 L 5548.34,5539.25 L 5550.17,5559.25 Z " />
<path stroke="none" fill="#000000" transform="matrix(0.0666667 0 0 0.0666667 -140.853 -171.333)" d="M 5544.82,5500.8 L 5446.23,5500.8 L 5448.06,5480.8 L 5542.99,5480.8 L 5544.82,5500.8 Z " />
<path stroke="none" fill="#000000" transform="matrix(0.0666667 0 0 0.0666667 -140.853 -171.333)" d="M 5539.47,5442.36 L 5451.58,5442.36 L 5453.41,5422.36 L 5537.64,5422.36 L 5539.47,5442.36 Z " />
<path stroke="none" fill="#000000" transform="matrix(0.0666667 0 0 0.0666667 -140.853 -171.333)" d="M 5534.12,5383.91 L 5456.93,5383.91 L 5458.76,5363.91 L 5532.28,5363.91 L 5534.12,5383.91 Z " />
<path stroke="none" fill="#000000" transform="matrix(0.0666667 0 0 0.0666667 -140.853 -171.333)" d="M 5528.76,5325.47 L 5462.28,5325.47 L 5464.12,5305.47 L 5526.93,5305.47 L 5528.76,5325.47 Z " />
<path stroke="none" fill="#000000" transform="matrix(0.0666667 0 0 0.0666667 -140.853 -171.333)" d="M 5523.41,5267.03 L 5467.64,5267.03 L 5469.47,5247.03 L 5521.58,5247.03 L 5523.41,5267.03 Z " />
<path stroke="none" fill="#000000" transform="matrix(0.0666667 0 0 0.0666667 -140.853 -171.333)" d="M 5518.06,5208.58 L 5472.99,5208.58 L 5474.82,5188.58 L 5516.23,5188.58 L 5518.06,5208.58 Z " />
<path stroke="none" fill="#000000" transform="matrix(0.0666667 0 0 0.0666667 -140.853 -171.333)" d="M 5512.71,5150.14 L 5478.34,5150.14 L 5480.17,5130.14 L 5510.88,5130.14 L 5512.71,5150.14 Z " />
<path stroke="none" fill="#000000" transform="matrix(0.0666667 0 0 0.0666667 -140.853 -171.333)" d="M 5507.36,5091.69 L 5483.69,5091.69 L 5485.52,5071.69 L 5505.52,5071.69 L 5507.36,5091.69 Z " />
<path stroke="none" fill="#000000" transform="matrix(0.0666667 0 0 0.0666667 -140.853 -171.333)" d="M 7106.39,4676.11 L 7006.21,4757.05 L 6544.75,4436.76 L 6534.75,4417.69 L 6556.27,4416.82 L 7106.39,4676.11 Z " />
<path stroke="none" fill="#000000" transform="matrix(0.0666667 0 0 0.0666667 -140.853 -171.333)" d="M 7100.37,5212.53 L 7080.37,5212.53 L 7080.37,4696.91 L 7100.37,4696.91 L 7100.37,5212.53 Z " />
<path stroke="none" fill="#000000" transform="matrix(0.0666667 0 0 0.0666667 -140.853 -171.333)" d="M 7028.37,5212.53 L 7008.37,5212.53 L 7008.37,4696.91 L 7028.37,4696.91 L 7028.37,5212.53 Z " />
<path stroke="none" fill="#000000" transform="matrix(0.0666667 0 0 0.0666667 -140.853 -171.333)" d="M 7469.38,4466.54 L 7479.38,4483.86 L 7006.21,4757.05 L 7106.39,4676.11 L 7469.38,4466.54 Z " />
<path stroke="none" fill="#000000" transform="matrix(0.0666667 0 0 0.0666667 -140.853 -171.333)" d="M 8098.6,4709.03 L 8088.6,4726.35 L 7669.02,4484.11 L 7679.02,4466.79 L 8098.6,4709.03 Z " />
</svg>
