<?xml version="1.0" standalone="no" ?>
<!DOCTYPE svg PUBLIC "-//W3C//DTD SVG 1.1//EN" "http://www.w3.org/Graphics/SVG/1.1/DTD/svg11.dtd">
<svg width="505px" height="360px" viewBox="0 0 505 360" style="background-color: #ffffff00" xmlns="http://www.w3.org/2000/svg" xmlns:xlink="http://www.w3.org/1999/xlink" version="1.1" >
<text x="0" y="0" stroke="transparent" fill="#000000" transform="matrix(0.0833333 0 0 0.0833333 4.20468 319.365)" style="font:normal normal normal 200px 'Arial'" >
HO</text>
<text x="0" y="0" stroke="transparent" fill="#000000" transform="matrix(0.0833333 0 0 0.0833333 413.555 239.428)" style="font:normal normal normal 200px 'Arial'" >
O</text>
<text x="0" y="0" stroke="transparent" fill="#000000" transform="matrix(0.0833333 0 0 0.0833333 448.779 160.313)" style="font:normal normal normal 200px 'Arial'" >
O</text>
<path stroke="transparent" fill="#000000" transform="matrix(0.0833333 0 0 0.0833333 -143.25 -605.5)" d="M 5361.98,7890.7 L 5342.95,7884.52 L 5528.36,7313.89 L 5547.39,7320.07 L 5361.98,7890.7 Z " />
<path stroke="transparent" fill="#000000" transform="matrix(0.0833333 0 0 0.0833333 -143.25 -605.5)" d="M 4775.14,8057.35 L 4770.98,8037.79 L 5378.2,7908.72 L 5382.36,7928.28 L 4775.14,8057.35 Z " />
<path stroke="transparent" fill="#000000" transform="matrix(0.0833333 0 0 0.0833333 -143.25 -605.5)" d="M 4760.17,7986.92 L 4756.01,7967.36 L 5363.23,7838.29 L 5367.39,7857.86 L 4760.17,7986.92 Z " />
<path stroke="transparent" fill="#000000" transform="matrix(0.0833333 0 0 0.0833333 -143.25 -605.5)" d="M 5725.18,8286.61 L 5710.32,8299.99 L 5695.43,8286.49 L 5713.31,8270.38 L 5725.18,8286.61 Z " />
<path stroke="transparent" fill="#000000" transform="matrix(0.0833333 0 0 0.0833333 -143.25 -605.5)" d="M 5690.17,8238.77 L 5666.4,8260.17 L 5651.51,8246.67 L 5678.3,8222.54 L 5690.17,8238.77 Z " />
<path stroke="transparent" fill="#000000" transform="matrix(0.0833333 0 0 0.0833333 -143.25 -605.5)" d="M 5655.17,8190.93 L 5622.48,8220.36 L 5607.59,8206.85 L 5643.29,8174.7 L 5655.17,8190.93 Z " />
<path stroke="transparent" fill="#000000" transform="matrix(0.0833333 0 0 0.0833333 -143.25 -605.5)" d="M 5620.16,8143.09 L 5578.56,8180.54 L 5563.67,8167.04 L 5608.29,8126.86 L 5620.16,8143.09 Z " />
<path stroke="transparent" fill="#000000" transform="matrix(0.0833333 0 0 0.0833333 -143.25 -605.5)" d="M 5585.15,8095.24 L 5534.64,8140.72 L 5519.75,8127.22 L 5573.28,8079.02 L 5585.15,8095.24 Z " />
<path stroke="transparent" fill="#000000" transform="matrix(0.0833333 0 0 0.0833333 -143.25 -605.5)" d="M 5550.14,8047.4 L 5490.72,8100.91 L 5475.83,8087.4 L 5538.27,8031.18 L 5550.14,8047.4 Z " />
<path stroke="transparent" fill="#000000" transform="matrix(0.0833333 0 0 0.0833333 -143.25 -605.5)" d="M 5515.13,7999.56 L 5446.8,8061.09 L 5431.91,8047.59 L 5503.26,7983.34 L 5515.13,7999.56 Z " />
<path stroke="transparent" fill="#000000" transform="matrix(0.0833333 0 0 0.0833333 -143.25 -605.5)" d="M 5480.13,7951.72 L 5402.88,8021.27 L 5387.99,8007.77 L 5468.25,7935.5 L 5480.13,7951.72 Z " />
<path stroke="transparent" fill="#000000" transform="matrix(0.0833333 0 0 0.0833333 -143.25 -605.5)" d="M 5445.12,7903.88 L 5358.96,7981.46 L 5344.07,7967.95 L 5433.25,7887.66 L 5445.12,7903.88 Z " />
<path stroke="transparent" fill="#000000" transform="matrix(0.0833333 0 0 0.0833333 -143.25 -605.5)" d="M 6356.84,8260.07 L 6344.48,8281.48 L 5815.3,8337.1 L 5694.15,8329.73 L 6356.84,8260.07 Z " />
<path stroke="transparent" fill="#000000" transform="matrix(0.0833333 0 0 0.0833333 -143.25 -605.5)" d="M 6606.79,8821.48 L 6582.61,8816.34 L 6344.48,8281.48 L 6356.84,8260.07 L 6606.79,8821.48 Z " />
<path stroke="transparent" fill="#000000" transform="matrix(0.0833333 0 0 0.0833333 -143.25 -605.5)" d="M 6168.03,9216.54 L 6148.81,9220.38 L 6147.52,9208.09 L 6582.61,8816.34 L 6606.79,8821.48 L 6168.03,9216.54 Z " />
<path stroke="transparent" fill="#000000" transform="matrix(0.0833333 0 0 0.0833333 -143.25 -605.5)" d="M 5629.2,8931.93 L 5629.2,8920.38 L 5641.03,8915.67 L 6147.52,9208.09 L 6148.81,9220.38 L 6138.81,9226.16 L 5629.2,8931.93 Z " />
<path stroke="transparent" fill="#000000" transform="matrix(0.0833333 0 0 0.0833333 -143.25 -605.5)" d="M 5641.03,8915.67 L 5629.2,8920.38 L 5619.94,8914.18 L 5694.15,8329.73 L 5815.3,8337.1 L 5641.03,8915.67 Z " />
<path stroke="transparent" fill="#000000" transform="matrix(0.0833333 0 0 0.0833333 -143.25 -605.5)" d="M 5119.58,9226.16 L 5099.58,9214.61 L 5619.94,8914.18 L 5629.2,8920.38 L 5629.2,8931.93 L 5119.58,9226.16 Z " />
<path stroke="transparent" fill="#000000" transform="matrix(0.0833333 0 0 0.0833333 -143.25 -605.5)" d="M 4606.73,8999.35 L 4666.73,8895.42 L 4683.04,8907.18 L 4625.07,9007.59 L 4606.73,8999.35 Z " />
<path stroke="transparent" fill="#000000" transform="matrix(0.0833333 0 0 0.0833333 -143.25 -605.5)" d="M 4660.82,9023.65 L 4714.83,8930.12 L 4731.13,8941.88 L 4679.16,9031.89 L 4660.82,9023.65 Z " />
<path stroke="transparent" fill="#000000" transform="matrix(0.0833333 0 0 0.0833333 -143.25 -605.5)" d="M 4714.92,9047.96 L 4762.93,8964.81 L 4779.23,8976.57 L 4733.26,9056.2 L 4714.92,9047.96 Z " />
<path stroke="transparent" fill="#000000" transform="matrix(0.0833333 0 0 0.0833333 -143.25 -605.5)" d="M 4769.01,9072.27 L 4811.02,8999.5 L 4827.33,9011.26 L 4787.35,9080.51 L 4769.01,9072.27 Z " />
<path stroke="transparent" fill="#000000" transform="matrix(0.0833333 0 0 0.0833333 -143.25 -605.5)" d="M 4823.11,9096.58 L 4859.12,9034.19 L 4875.43,9045.95 L 4841.44,9104.82 L 4823.11,9096.58 Z " />
<path stroke="transparent" fill="#000000" transform="matrix(0.0833333 0 0 0.0833333 -143.25 -605.5)" d="M 4877.2,9120.88 L 4907.22,9068.89 L 4923.52,9080.65 L 4895.54,9129.12 L 4877.2,9120.88 Z " />
<path stroke="transparent" fill="#000000" transform="matrix(0.0833333 0 0 0.0833333 -143.25 -605.5)" d="M 4931.29,9145.19 L 4955.32,9103.58 L 4971.62,9115.34 L 4949.63,9153.43 L 4931.29,9145.19 Z " />
<path stroke="transparent" fill="#000000" transform="matrix(0.0833333 0 0 0.0833333 -143.25 -605.5)" d="M 4985.39,9169.5 L 5003.41,9138.27 L 5019.72,9150.03 L 5003.72,9177.74 L 4985.39,9169.5 Z " />
<path stroke="transparent" fill="#000000" transform="matrix(0.0833333 0 0 0.0833333 -143.25 -605.5)" d="M 5039.48,9193.81 L 5051.51,9172.96 L 5067.82,9184.72 L 5057.82,9202.05 L 5039.48,9193.81 Z " />
<path stroke="transparent" fill="#000000" transform="matrix(0.0833333 0 0 0.0833333 -143.25 -605.5)" d="M 4132.37,9196.12 L 4012.19,9242.42 L 4584.97,8911.72 L 4594.97,8929.05 L 4132.37,9196.12 Z " />
<path stroke="transparent" fill="#000000" transform="matrix(0.0833333 0 0 0.0833333 -143.25 -605.5)" d="M 4080.81,9814.88 L 4070.35,9820.38 L 4059.89,9814.88 L 4012.19,9242.42 L 4132.37,9196.12 L 4080.81,9814.88 Z " />
<path stroke="transparent" fill="#000000" transform="matrix(0.0833333 0 0 0.0833333 -143.25 -605.5)" d="M 3560.74,10126.2 L 3550.74,10120.4 L 3562.25,10102.2 L 4059.89,9814.88 L 4070.35,9820.38 L 4070.35,9831.93 L 3560.74,10126.2 Z " />
<path stroke="transparent" fill="#000000" transform="matrix(0.0833333 0 0 0.0833333 -143.25 -605.5)" d="M 3031.12,9831.93 L 3031.12,9808.84 L 3539.22,10102.2 L 3550.74,10120.4 L 3540.74,10126.2 L 3031.12,9831.93 Z " />
<path stroke="transparent" fill="#000000" transform="matrix(0.0833333 0 0 0.0833333 -143.25 -605.5)" d="M 2521.51,10126.2 L 2501.51,10114.6 L 3031.12,9808.84 L 3031.12,9831.93 L 2521.51,10126.2 Z " />
<path stroke="transparent" fill="#000000" transform="matrix(0.0833333 0 0 0.0833333 -143.25 -605.5)" d="M 2521.51,10714.6 L 2511.51,10720.4 L 2501.51,10714 L 2501.51,10114.6 L 2521.51,10126.2 L 2521.51,10714.6 Z " />
<path stroke="transparent" fill="#000000" transform="matrix(0.0833333 0 0 0.0833333 -143.25 -605.5)" d="M 3031.12,11008.8 L 3031.12,11020.4 L 3017.46,11024 L 2512.06,10732.3 L 2511.51,10720.4 L 2521.51,10714.6 L 3031.12,11008.8 Z " />
<path stroke="transparent" fill="#000000" transform="matrix(0.0833333 0 0 0.0833333 -143.25 -605.5)" d="M 3540.74,10714.6 L 3550.74,10720.4 L 3550.28,10732.2 L 3044.78,11024 L 3031.12,11020.4 L 3031.12,11008.8 L 3540.74,10714.6 Z " />
<path stroke="transparent" fill="#000000" transform="matrix(0.0833333 0 0 0.0833333 -143.25 -605.5)" d="M 3560.74,10714.1 L 3550.74,10720.4 L 3540.74,10714.6 L 3540.74,10126.2 L 3550.74,10120.4 L 3560.74,10126.2 L 3560.74,10714.1 Z " />
<path stroke="transparent" fill="#000000" transform="matrix(0.0833333 0 0 0.0833333 -143.25 -605.5)" d="M 4122.37,10978.8 L 4022.19,11059.7 L 3550.28,10732.2 L 3550.74,10720.4 L 3560.74,10714.1 L 4122.37,10978.8 Z " />
<path stroke="transparent" fill="#000000" transform="matrix(0.0833333 0 0 0.0833333 -143.25 -605.5)" d="M 4579.97,10714.6 L 4599.97,10726.2 L 4022.19,11059.7 L 4122.37,10978.8 L 4579.97,10714.6 Z " />
<path stroke="transparent" fill="#000000" transform="matrix(0.0833333 0 0 0.0833333 -143.25 -605.5)" d="M 4579.97,10126.2 L 4589.97,10120.4 L 4599.97,10126.2 L 4599.97,10726.2 L 4579.97,10714.6 L 4579.97,10126.2 Z " />
<path stroke="transparent" fill="#000000" transform="matrix(0.0833333 0 0 0.0833333 -143.25 -605.5)" d="M 4578.45,10102.2 L 4589.97,10120.4 L 4579.97,10126.2 L 4070.35,9831.93 L 4070.35,9820.38 L 4080.81,9814.88 L 4578.45,10102.2 Z " />
<path stroke="transparent" fill="#000000" transform="matrix(0.0833333 0 0 0.0833333 -143.25 -605.5)" d="M 5099.58,9814.61 L 5109.58,9820.38 L 5109.58,9831.93 L 4599.97,10126.2 L 4589.97,10120.4 L 4601.48,10102.2 L 5099.58,9814.61 Z " />
<path stroke="transparent" fill="#000000" transform="matrix(0.0833333 0 0 0.0833333 -143.25 -605.5)" d="M 5119.58,9814.61 L 5109.58,9820.38 L 5099.58,9814.61 L 5099.58,9214.61 L 5119.58,9226.16 L 5119.58,9814.61 Z " />
<path stroke="transparent" fill="#000000" transform="matrix(0.0833333 0 0 0.0833333 -143.25 -605.5)" d="M 5629.2,10108.8 L 5629.2,10131.9 L 5109.58,9831.93 L 5109.58,9820.38 L 5119.58,9814.61 L 5629.2,10108.8 Z " />
<path stroke="transparent" fill="#000000" transform="matrix(0.0833333 0 0 0.0833333 -143.25 -605.5)" d="M 6138.81,9814.61 L 6158.81,9826.16 L 5629.2,10131.9 L 5629.2,10108.8 L 6138.81,9814.61 Z " />
<path stroke="transparent" fill="#000000" transform="matrix(0.0833333 0 0 0.0833333 -143.25 -605.5)" d="M 6158.81,9826.16 L 6138.81,9814.61 L 6138.81,9226.16 L 6148.81,9220.38 L 6158.81,9237.24 L 6158.81,9826.16 Z " />
<path stroke="transparent" fill="#000000" transform="matrix(0.0833333 0 0 0.0833333 -143.25 -605.5)" d="M 5169.58,10420.4 L 5049.58,10420.4 L 5051.41,10400.4 L 5167.75,10400.4 L 5169.58,10420.4 Z " />
<path stroke="transparent" fill="#000000" transform="matrix(0.0833333 0 0 0.0833333 -143.25 -605.5)" d="M 5164.23,10361.9 L 5054.93,10361.9 L 5056.76,10341.9 L 5162.4,10341.9 L 5164.23,10361.9 Z " />
<path stroke="transparent" fill="#000000" transform="matrix(0.0833333 0 0 0.0833333 -143.25 -605.5)" d="M 5158.88,10303.5 L 5060.29,10303.5 L 5062.12,10283.5 L 5157.05,10283.5 L 5158.88,10303.5 Z " />
<path stroke="transparent" fill="#000000" transform="matrix(0.0833333 0 0 0.0833333 -143.25 -605.5)" d="M 5153.53,10245.1 L 5065.64,10245.1 L 5067.47,10225.1 L 5151.69,10225.1 L 5153.53,10245.1 Z " />
<path stroke="transparent" fill="#000000" transform="matrix(0.0833333 0 0 0.0833333 -143.25 -605.5)" d="M 5148.17,10186.6 L 5070.99,10186.6 L 5072.82,10166.6 L 5146.34,10166.6 L 5148.17,10186.6 Z " />
<path stroke="transparent" fill="#000000" transform="matrix(0.0833333 0 0 0.0833333 -143.25 -605.5)" d="M 5142.82,10128.2 L 5076.34,10128.2 L 5078.17,10108.2 L 5140.99,10108.2 L 5142.82,10128.2 Z " />
<path stroke="transparent" fill="#000000" transform="matrix(0.0833333 0 0 0.0833333 -143.25 -605.5)" d="M 5137.47,10069.7 L 5081.69,10069.7 L 5083.53,10049.7 L 5135.64,10049.7 L 5137.47,10069.7 Z " />
<path stroke="transparent" fill="#000000" transform="matrix(0.0833333 0 0 0.0833333 -143.25 -605.5)" d="M 5132.12,10011.3 L 5087.05,10011.3 L 5088.88,9991.27 L 5130.29,9991.27 L 5132.12,10011.3 Z " />
<path stroke="transparent" fill="#000000" transform="matrix(0.0833333 0 0 0.0833333 -143.25 -605.5)" d="M 5126.76,9952.83 L 5092.4,9952.83 L 5094.23,9932.83 L 5124.93,9932.83 L 5126.76,9952.83 Z " />
<path stroke="transparent" fill="#000000" transform="matrix(0.0833333 0 0 0.0833333 -143.25 -605.5)" d="M 5121.41,9894.38 L 5097.75,9894.38 L 5099.58,9874.38 L 5119.58,9874.38 L 5121.41,9894.38 Z " />
<path stroke="transparent" fill="#000000" transform="matrix(0.0833333 0 0 0.0833333 -143.25 -605.5)" d="M 4529.97,9520.38 L 4649.97,9520.38 L 4601.48,10102.2 L 4589.97,10120.4 L 4578.45,10102.2 L 4529.97,9520.38 Z " />
<path stroke="transparent" fill="#000000" transform="matrix(0.0833333 0 0 0.0833333 -143.25 -605.5)" d="M 3339.78,11535 L 3322.46,11545 L 3031.12,11040.4 L 3031.12,11020.4 L 3044.78,11024 L 3339.78,11535 Z " />
<path stroke="transparent" fill="#000000" transform="matrix(0.0833333 0 0 0.0833333 -143.25 -605.5)" d="M 2739.78,11545 L 2722.46,11535 L 3017.46,11024 L 3031.12,11020.4 L 3031.12,11040.4 L 2739.78,11545 Z " />
<path stroke="transparent" fill="#000000" transform="matrix(0.0833333 0 0 0.0833333 -143.25 -605.5)" d="M 2114.5,11018.9 L 2054.5,10915 L 2501.51,10714 L 2511.51,10720.4 L 2512.06,10732.3 L 2114.5,11018.9 Z " />
<path stroke="transparent" fill="#000000" transform="matrix(0.0833333 0 0 0.0833333 -143.25 -605.5)" d="M 3490.74,9520.38 L 3610.74,9520.38 L 3562.25,10102.2 L 3550.74,10120.4 L 3539.22,10102.2 L 3490.74,9520.38 Z " />
<path stroke="transparent" fill="#000000" transform="matrix(0.0833333 0 0 0.0833333 -143.25 -605.5)" d="M 6744.33,9417.63 L 6653.15,9508.6 L 6158.81,9237.24 L 6148.81,9220.38 L 6168.03,9216.54 L 6744.33,9417.63 Z " />
<path stroke="transparent" fill="#000000" transform="matrix(0.0833333 0 0 0.0833333 -143.25 -605.5)" d="M 6794.45,9952.1 L 6774.56,9954.19 L 6720.62,9441.04 L 6740.51,9438.95 L 6794.45,9952.1 Z " />
<path stroke="transparent" fill="#000000" transform="matrix(0.0833333 0 0 0.0833333 -143.25 -605.5)" d="M 6722.84,9959.62 L 6702.95,9961.71 L 6649.02,9448.56 L 6668.91,9446.47 L 6722.84,9959.62 Z " />
<path stroke="transparent" fill="#000000" transform="matrix(0.0833333 0 0 0.0833333 -143.25 -605.5)" d="M 7082.22,9172.15 L 7093.97,9188.33 L 6653.15,9508.6 L 6744.33,9417.63 L 7082.22,9172.15 Z " />
<path stroke="transparent" fill="#000000" transform="matrix(0.0833333 0 0 0.0833333 -143.25 -605.5)" d="M 7734.54,9346.66 L 7726.41,9364.93 L 7282.39,9167.24 L 7290.53,9148.97 L 7734.54,9346.66 Z " />
</svg>
