<?xml version="1.0" standalone="no" ?>
<!DOCTYPE svg PUBLIC "-//W3C//DTD SVG 1.1//EN" "http://www.w3.org/Graphics/SVG/1.1/DTD/svg11.dtd">
<svg width="701px" height="422px" viewBox="0 0 701 422" style="background-color: #ffffff00" xmlns="http://www.w3.org/2000/svg" xmlns:xlink="http://www.w3.org/1999/xlink" version="1.1" >
<path stroke="transparent" fill="#000000" transform="matrix(0.0833333 0 0 0.0833333 -75.2083 -188)" d="M 8237,5104 L 8217,5092.45 L 8217,4504 L 8227,4498.22 L 8237,4504 L 8237,5104 Z " />
<path stroke="transparent" fill="#000000" transform="matrix(0.0833333 0 0 0.0833333 -75.2083 -188)" d="M 8217,5092.45 L 8237,5104 L 7707.37,5409.78 L 7707.37,5386.68 L 8217,5092.45 Z " />
<path stroke="transparent" fill="#000000" transform="matrix(0.0833333 0 0 0.0833333 -75.2083 -188)" d="M 8150,5047.99 L 8160,5065.31 L 7712.37,5323.75 L 7702.37,5306.43 L 8150,5047.99 Z " />
<path stroke="transparent" fill="#000000" transform="matrix(0.0833333 0 0 0.0833333 -75.2083 -188)" d="M 7707.37,5386.68 L 7707.37,5409.78 L 7187.75,5109.78 L 7187.75,5098.24 L 7197.75,5092.46 L 7707.37,5386.68 Z " />
<path stroke="transparent" fill="#000000" transform="matrix(0.0833333 0 0 0.0833333 -75.2083 -188)" d="M 7702.36,5989.57 L 7712.36,6006.89 L 7296.56,6246.95 L 7286.56,6229.63 L 7702.36,5989.57 Z " />
<path stroke="transparent" fill="#000000" transform="matrix(0.0833333 0 0 0.0833333 -75.2083 -188)" d="M 7089.01,6229.64 L 7079.01,6246.96 L 6668.12,6009.79 L 6668.12,5998.24 L 6678.12,5992.47 L 7089.01,6229.64 Z " />
<path stroke="transparent" fill="#000000" transform="matrix(0.0833333 0 0 0.0833333 -75.2083 -188)" d="M 7177.79,6415.54 L 7197.79,6415.54 L 7197.81,6904.03 L 7177.81,6892.48 L 7177.79,6415.54 Z " />
<path stroke="transparent" fill="#000000" transform="matrix(0.0833333 0 0 0.0833333 -75.2083 -188)" d="M 7177.81,6892.48 L 7197.81,6904.03 L 6668.18,7209.81 L 6668.18,7186.72 L 7177.81,6892.48 Z " />
<path stroke="transparent" fill="#000000" transform="matrix(0.0833333 0 0 0.0833333 -75.2083 -188)" d="M 6668.18,7186.72 L 6668.18,7209.81 L 6148.48,6909.79 L 6148.48,6898.25 L 6158.48,6892.47 L 6668.18,7186.72 Z " />
<path stroke="transparent" fill="#000000" transform="matrix(0.0833333 0 0 0.0833333 -75.2083 -188)" d="M 6158.48,6892.47 L 6148.48,6898.25 L 6138.48,6892.47 L 6138.49,6304.02 L 6148.49,6298.25 L 6158.49,6304.02 L 6158.48,6892.47 Z " />
<path stroke="transparent" fill="#000000" transform="matrix(0.0833333 0 0 0.0833333 -75.2083 -188)" d="M 6138.48,6892.47 L 6148.48,6898.25 L 6148.48,6909.79 L 5628.86,7209.8 L 5628.86,7186.71 L 6138.48,6892.47 Z " />
<path stroke="transparent" fill="#000000" transform="matrix(0.0833333 0 0 0.0833333 -75.2083 -188)" d="M 6071.48,6848.02 L 6081.48,6865.34 L 5633.86,7123.77 L 5623.86,7106.45 L 6071.48,6848.02 Z " />
<path stroke="transparent" fill="#000000" transform="matrix(0.0833333 0 0 0.0833333 -75.2083 -188)" d="M 5628.86,7186.71 L 5628.86,7209.8 L 5109.24,6909.81 L 5109.24,6898.26 L 5119.24,6892.49 L 5628.86,7186.71 Z " />
<path stroke="transparent" fill="#000000" transform="matrix(0.0833333 0 0 0.0833333 -75.2083 -188)" d="M 4687.23,7153.45 L 4677.23,7136.13 L 5099.24,6892.49 L 5109.24,6898.26 L 5109.24,6909.81 L 4687.23,7153.45 Z " />
<path stroke="transparent" fill="#000000" transform="matrix(0.0833333 0 0 0.0833333 -75.2083 -188)" d="M 5119.24,6892.49 L 5109.24,6898.26 L 5099.24,6892.49 L 5099.24,6304.03 L 5109.24,6298.26 L 5119.24,6304.03 L 5119.24,6892.49 Z " />
<path stroke="transparent" fill="#000000" transform="matrix(0.0833333 0 0 0.0833333 -75.2083 -188)" d="M 5191.24,6856.69 L 5171.24,6856.69 L 5171.24,6339.83 L 5191.24,6339.83 L 5191.24,6856.69 Z " />
<path stroke="transparent" fill="#000000" transform="matrix(0.0833333 0 0 0.0833333 -75.2083 -188)" d="M 5541.26,5336.12 L 5531.26,5353.44 L 5109.23,5109.76 L 5109.23,5098.21 L 5119.23,5092.44 L 5541.26,5336.12 Z " />
<path stroke="transparent" fill="#000000" transform="matrix(0.0833333 0 0 0.0833333 -75.2083 -188)" d="M 5099.23,5092.44 L 5109.23,5098.21 L 5109.23,5109.76 L 4599.6,5403.99 L 4589.6,5398.22 L 4589.6,5386.67 L 5099.23,5092.44 Z " />
<path stroke="transparent" fill="#000000" transform="matrix(0.0833333 0 0 0.0833333 -75.2083 -188)" d="M 5119.23,5092.44 L 5109.23,5098.21 L 5099.23,5092.44 L 5099.24,4503.98 L 5119.24,4492.44 L 5119.23,5092.44 Z " />
<path stroke="transparent" fill="#000000" transform="matrix(0.0833333 0 0 0.0833333 -75.2083 -188)" d="M 5047.23,5056.64 L 5027.23,5056.64 L 5027.24,4539.78 L 5047.24,4539.78 L 5047.23,5056.64 Z " />
<path stroke="transparent" fill="#000000" transform="matrix(0.0833333 0 0 0.0833333 -75.2083 -188)" d="M 5119.24,4492.44 L 5099.24,4503.98 L 4589.62,4209.76 L 4589.62,4186.67 L 5119.24,4492.44 Z " />
<path stroke="transparent" fill="#000000" transform="matrix(0.0833333 0 0 0.0833333 -75.2083 -188)" d="M 4589.62,4186.67 L 4589.62,4209.76 L 4079.99,4504 L 4069.99,4498.22 L 4069.99,4486.68 L 4589.62,4186.67 Z " />
<path stroke="transparent" fill="#000000" transform="matrix(0.0833333 0 0 0.0833333 -75.2083 -188)" d="M 4584.62,4272.7 L 4594.62,4290.02 L 4146.99,4548.45 L 4136.99,4531.13 L 4584.62,4272.7 Z " />
<path stroke="transparent" fill="#000000" transform="matrix(0.0833333 0 0 0.0833333 -75.2083 -188)" d="M 4594.63,3589.56 L 4584.63,3606.88 L 4175.1,3370.42 L 4185.1,3353.1 L 4594.63,3589.56 Z " />
<path stroke="transparent" fill="#000000" transform="matrix(0.0833333 0 0 0.0833333 -75.2083 -188)" d="M 3954.85,3353.09 L 3964.85,3370.41 L 3560.35,3603.95 L 3550.35,3598.18 L 3550.35,3586.63 L 3954.85,3353.09 Z " />
<path stroke="transparent" fill="#000000" transform="matrix(0.0833333 0 0 0.0833333 -75.2083 -188)" d="M 4079.98,3195.5 L 4059.98,3195.5 L 4059.98,2703.95 L 4079.98,2692.4 L 4079.98,3195.5 Z " />
<path stroke="transparent" fill="#000000" transform="matrix(0.0833333 0 0 0.0833333 -75.2083 -188)" d="M 4079.98,2692.4 L 4059.98,2703.95 L 3550.37,2409.73 L 3550.37,2386.63 L 4079.98,2692.4 Z " />
<path stroke="transparent" fill="#000000" transform="matrix(0.0833333 0 0 0.0833333 -75.2083 -188)" d="M 3550.37,2386.63 L 3550.37,2409.73 L 3040.74,2703.96 L 3030.74,2698.18 L 3030.74,2686.64 L 3550.37,2386.63 Z " />
<path stroke="transparent" fill="#000000" transform="matrix(0.0833333 0 0 0.0833333 -75.2083 -188)" d="M 3020.74,2703.96 L 3030.74,2698.18 L 3040.74,2703.96 L 3040.73,3292.41 L 3030.73,3298.18 L 3020.73,3292.41 L 3020.74,2703.96 Z " />
<path stroke="transparent" fill="#000000" transform="matrix(0.0833333 0 0 0.0833333 -75.2083 -188)" d="M 3030.74,2686.64 L 3030.74,2698.18 L 3020.74,2703.96 L 2511.12,2409.74 L 2511.12,2386.64 L 3030.74,2686.64 Z " />
<path stroke="transparent" fill="#000000" transform="matrix(0.0833333 0 0 0.0833333 -75.2083 -188)" d="M 2963.74,2731.09 L 2953.74,2748.41 L 2506.12,2489.99 L 2516.12,2472.67 L 2963.74,2731.09 Z " />
<path stroke="transparent" fill="#000000" transform="matrix(0.0833333 0 0 0.0833333 -75.2083 -188)" d="M 2511.12,2386.64 L 2511.12,2409.74 L 2001.49,2703.97 L 1991.49,2698.2 L 1991.49,2686.65 L 2511.12,2386.64 Z " />
<path stroke="transparent" fill="#000000" transform="matrix(0.0833333 0 0 0.0833333 -75.2083 -188)" d="M 1566.88,2464.57 L 1576.88,2447.25 L 1991.49,2686.65 L 1991.49,2698.2 L 1981.49,2703.97 L 1566.88,2464.57 Z " />
<path stroke="transparent" fill="#000000" transform="matrix(0.0833333 0 0 0.0833333 -75.2083 -188)" d="M 1981.49,2703.97 L 1991.49,2698.2 L 2001.49,2703.97 L 2001.49,3292.42 L 1991.49,3298.2 L 1981.49,3292.42 L 1981.49,2703.97 Z " />
<path stroke="transparent" fill="#000000" transform="matrix(0.0833333 0 0 0.0833333 -75.2083 -188)" d="M 2053.49,2739.77 L 2073.49,2739.77 L 2073.49,3256.63 L 2053.49,3256.63 L 2053.49,2739.77 Z " />
<path stroke="transparent" fill="#000000" transform="matrix(0.0833333 0 0 0.0833333 -75.2083 -188)" d="M 1569.47,3553.4 L 1559.47,3536.08 L 1981.49,3292.42 L 1991.49,3298.2 L 1991.49,3309.74 L 1569.47,3553.4 Z " />
<path stroke="transparent" fill="#000000" transform="matrix(0.0833333 0 0 0.0833333 -75.2083 -188)" d="M 1991.49,3309.74 L 1991.49,3298.2 L 2001.49,3292.42 L 2511.1,3586.64 L 2511.11,3609.74 L 1991.49,3309.74 Z " />
<path stroke="transparent" fill="#000000" transform="matrix(0.0833333 0 0 0.0833333 -75.2083 -188)" d="M 2511.11,3609.74 L 2511.1,3586.64 L 3020.73,3292.41 L 3030.73,3298.18 L 3030.73,3309.73 L 2511.11,3609.74 Z " />
<path stroke="transparent" fill="#000000" transform="matrix(0.0833333 0 0 0.0833333 -75.2083 -188)" d="M 2516.1,3523.71 L 2506.1,3506.39 L 2953.73,3247.95 L 2963.73,3265.27 L 2516.1,3523.71 Z " />
<path stroke="transparent" fill="#000000" transform="matrix(0.0833333 0 0 0.0833333 -75.2083 -188)" d="M 3030.73,3309.73 L 3030.73,3298.18 L 3040.73,3292.41 L 3550.35,3586.63 L 3550.35,3598.18 L 3540.35,3603.95 L 3030.73,3309.73 Z " />
<path stroke="transparent" fill="#000000" transform="matrix(0.0833333 0 0 0.0833333 -75.2083 -188)" d="M 3540.35,3603.95 L 3550.35,3598.18 L 3560.35,3603.95 L 3560.37,4192.46 L 3540.37,4204 L 3540.35,3603.95 Z " />
<path stroke="transparent" fill="#000000" transform="matrix(0.0833333 0 0 0.0833333 -75.2083 -188)" d="M 3540.37,4204 L 3560.37,4192.46 L 4069.99,4486.68 L 4069.99,4498.22 L 4059.99,4504 L 3540.37,4204 Z " />
<path stroke="transparent" fill="#000000" transform="matrix(0.0833333 0 0 0.0833333 -75.2083 -188)" d="M 4059.99,4504 L 4069.99,4498.22 L 4079.99,4504 L 4079.98,5092.45 L 4059.98,5104 L 4059.99,4504 Z " />
<path stroke="transparent" fill="#000000" transform="matrix(0.0833333 0 0 0.0833333 -75.2083 -188)" d="M 4059.98,5104 L 4079.98,5092.45 L 4589.6,5386.67 L 4589.6,5398.22 L 4579.6,5403.99 L 4059.98,5104 Z " />
<path stroke="transparent" fill="#000000" transform="matrix(0.0833333 0 0 0.0833333 -75.2083 -188)" d="M 4136.98,5065.31 L 4146.98,5047.99 L 4594.6,5306.42 L 4584.6,5323.74 L 4136.98,5065.31 Z " />
<path stroke="transparent" fill="#000000" transform="matrix(0.0833333 0 0 0.0833333 -75.2083 -188)" d="M 4579.6,5403.99 L 4589.6,5398.22 L 4599.6,5403.99 L 4599.62,5893.1 L 4579.62,5893.1 L 4579.6,5403.99 Z " />
<path stroke="transparent" fill="#000000" transform="matrix(0.0833333 0 0 0.0833333 -75.2083 -188)" d="M 4684.66,6064.68 L 4694.66,6047.36 L 5109.24,6286.71 L 5109.24,6298.26 L 5099.24,6304.03 L 4684.66,6064.68 Z " />
<path stroke="transparent" fill="#000000" transform="matrix(0.0833333 0 0 0.0833333 -75.2083 -188)" d="M 5119.24,6304.03 L 5109.24,6298.26 L 5109.24,6286.71 L 5628.87,5986.71 L 5628.87,6009.8 L 5119.24,6304.03 Z " />
<path stroke="transparent" fill="#000000" transform="matrix(0.0833333 0 0 0.0833333 -75.2083 -188)" d="M 5628.87,6009.8 L 5628.87,5986.71 L 6148.49,6286.7 L 6148.49,6298.25 L 6138.49,6304.02 L 5628.87,6009.8 Z " />
<path stroke="transparent" fill="#000000" transform="matrix(0.0833333 0 0 0.0833333 -75.2083 -188)" d="M 5623.87,6090.05 L 5633.87,6072.73 L 6081.49,6331.16 L 6071.49,6348.48 L 5623.87,6090.05 Z " />
<path stroke="transparent" fill="#000000" transform="matrix(0.0833333 0 0 0.0833333 -75.2083 -188)" d="M 6158.49,6304.02 L 6148.49,6298.25 L 6148.49,6286.7 L 6658.12,5992.47 L 6668.12,5998.24 L 6668.12,6009.79 L 6158.49,6304.02 Z " />
<path stroke="transparent" fill="#000000" transform="matrix(0.0833333 0 0 0.0833333 -75.2083 -188)" d="M 6678.12,5992.47 L 6668.12,5998.24 L 6658.12,5992.47 L 6658.12,5392.47 L 6678.12,5404.02 L 6678.12,5992.47 Z " />
<path stroke="transparent" fill="#000000" transform="matrix(0.0833333 0 0 0.0833333 -75.2083 -188)" d="M 6678.12,5404.02 L 6658.12,5392.47 L 7177.75,5092.46 L 7187.75,5098.24 L 7187.75,5109.78 L 6678.12,5404.02 Z " />
<path stroke="transparent" fill="#000000" transform="matrix(0.0833333 0 0 0.0833333 -75.2083 -188)" d="M 7197.75,5092.46 L 7187.75,5098.24 L 7177.75,5092.46 L 7177.76,4492.46 L 7197.76,4504.01 L 7197.75,5092.46 Z " />
<path stroke="transparent" fill="#000000" transform="matrix(0.0833333 0 0 0.0833333 -75.2083 -188)" d="M 7269.75,5056.67 L 7249.75,5056.67 L 7249.76,4539.8 L 7269.76,4539.8 L 7269.75,5056.67 Z " />
<path stroke="transparent" fill="#000000" transform="matrix(0.0833333 0 0 0.0833333 -75.2083 -188)" d="M 7197.76,4504.01 L 7177.76,4492.46 L 7707.38,4186.68 L 7707.38,4209.78 L 7197.76,4504.01 Z " />
<path stroke="transparent" fill="#000000" transform="matrix(0.0833333 0 0 0.0833333 -75.2083 -188)" d="M 7707.38,4209.78 L 7707.38,4186.68 L 8227,4486.68 L 8227,4498.22 L 8217,4504 L 7707.38,4209.78 Z " />
<path stroke="transparent" fill="#000000" transform="matrix(0.0833333 0 0 0.0833333 -75.2083 -188)" d="M 7702.39,4290.03 L 7712.39,4272.71 L 8160,4531.13 L 8150,4548.45 L 7702.39,4290.03 Z " />
<path stroke="transparent" fill="#000000" transform="matrix(0.0833333 0 0 0.0833333 -75.2083 -188)" d="M 8237,4504 L 8227,4498.22 L 8227,4486.68 L 8642.03,4247.06 L 8652.03,4264.38 L 8237,4504 Z " />
<path stroke="transparent" fill="#000000" transform="matrix(0.0833333 0 0 0.0833333 -75.2083 -188)" d="M 8841.67,4264.63 L 8851.67,4247.31 L 9271.25,4489.55 L 9261.25,4506.87 L 8841.67,4264.63 Z " />
<text x="0" y="0" stroke="transparent" fill="#000000" transform="matrix(0.0833333 0 0 0.0833333 517.774 343.35)" style="font:normal normal normal 200px 'Arial'" >
N</text>
<text x="0" y="0" stroke="transparent" fill="#000000" transform="matrix(0.0833333 0 0 0.0833333 300.759 418.356)" style="font:normal normal normal 200px 'Arial'" >
O</text>
<text x="0" y="0" stroke="transparent" fill="#000000" transform="matrix(0.0833333 0 0 0.0833333 387.365 268.355)" style="font:normal normal normal 200px 'Arial'" >
OH</text>
<text x="0" y="0" stroke="transparent" fill="#000000" transform="matrix(0.0833333 0 0 0.0833333 257.956 93.3476)" style="font:normal normal normal 200px 'Arial'" >
N</text>
<text x="0" y="0" stroke="transparent" fill="#000000" transform="matrix(0.0833333 0 0 0.0833333 40.9454 18.346)" style="font:normal normal normal 200px 'Arial'" >
O</text>
<text x="0" y="0" stroke="transparent" fill="#000000" transform="matrix(0.0833333 0 0 0.0833333 28.9105 118.35)" style="font:normal normal normal 200px 'Arial'" >
HO</text>
<text x="0" y="0" stroke="transparent" fill="#000000" transform="matrix(0.0833333 0 0 0.0833333 300.76 318.356)" style="font:normal normal normal 200px 'Arial'" >
O</text>
<text x="0" y="0" stroke="transparent" fill="#000000" transform="matrix(0.0833333 0 0 0.0833333 647.178 168.351)" style="font:normal normal normal 200px 'Arial'" >
O</text>
<path stroke="transparent" fill="#000000" transform="matrix(0.0833333 0 0 0.0833333 -75.2083 -188)" d="M 957.221,2706.8 L 947.222,2689.48 L 1367.24,2447 L 1377.24,2464.32 L 957.221,2706.8 Z " />
<path stroke="transparent" fill="#000000" transform="matrix(0.0833333 0 0 0.0833333 -75.2083 -188)" d="M 4065,6906.92 L 4075,6889.6 L 4501.99,7136.13 L 4491.99,7153.45 L 4065,6906.92 Z " />
</svg>
