<?xml version="1.0" standalone="no" ?>
<!DOCTYPE svg PUBLIC "-//W3C//DTD SVG 1.1//EN" "http://www.w3.org/Graphics/SVG/1.1/DTD/svg11.dtd">
<svg width="807px" height="259px" viewBox="0 0 807 259" style="background-color: #ffffff00" xmlns="http://www.w3.org/2000/svg" xmlns:xlink="http://www.w3.org/1999/xlink" version="1.1" >
<path stroke="transparent" fill="#000000" transform="matrix(0.0833333 0 0 0.0833333 -25.2083 -299.5)" d="M 674.044,5883.19 L 664.044,5865.87 L 1086.05,5622.23 L 1096.05,5628 L 1096.05,5639.55 L 674.044,5883.19 Z " />
<path stroke="transparent" fill="#000000" transform="matrix(0.0833333 0 0 0.0833333 -25.2083 -299.5)" d="M 671.462,4794.41 L 681.462,4777.09 L 1096.05,5016.45 L 1096.05,5028 L 1086.05,5033.77 L 671.462,4794.41 Z " />
<path stroke="transparent" fill="#000000" transform="matrix(0.0833333 0 0 0.0833333 -25.2083 -299.5)" d="M 2125.28,5033.77 L 2145.28,5022.23 L 2145.28,5622.23 L 2135.28,5628 L 2125.28,5622.23 L 2125.28,5033.77 Z " />
<path stroke="transparent" fill="#000000" transform="matrix(0.0833333 0 0 0.0833333 -25.2083 -299.5)" d="M 2145.28,5022.23 L 2125.28,5033.77 L 1615.66,4739.55 L 1615.66,4716.45 L 2145.28,5022.23 Z " />
<path stroke="transparent" fill="#000000" transform="matrix(0.0833333 0 0 0.0833333 -25.2083 -299.5)" d="M 2068.28,5060.91 L 2058.28,5078.23 L 1610.66,4819.8 L 1620.66,4802.48 L 2068.28,5060.91 Z " />
<path stroke="transparent" fill="#000000" transform="matrix(0.0833333 0 0 0.0833333 -25.2083 -299.5)" d="M 1615.66,4716.45 L 1615.66,4739.55 L 1106.05,5033.77 L 1096.05,5028 L 1096.05,5016.45 L 1615.66,4716.45 Z " />
<path stroke="transparent" fill="#000000" transform="matrix(0.0833333 0 0 0.0833333 -25.2083 -299.5)" d="M 1086.05,5033.77 L 1096.05,5028 L 1106.05,5033.77 L 1106.05,5622.23 L 1096.05,5628 L 1086.05,5622.23 L 1086.05,5033.77 Z " />
<path stroke="transparent" fill="#000000" transform="matrix(0.0833333 0 0 0.0833333 -25.2083 -299.5)" d="M 1158.05,5069.57 L 1178.05,5069.57 L 1178.05,5586.43 L 1158.05,5586.43 L 1158.05,5069.57 Z " />
<path stroke="transparent" fill="#000000" transform="matrix(0.0833333 0 0 0.0833333 -25.2083 -299.5)" d="M 1096.05,5639.55 L 1096.05,5628 L 1106.05,5622.23 L 1615.66,5916.45 L 1615.66,5939.55 L 1096.05,5639.55 Z " />
<path stroke="transparent" fill="#000000" transform="matrix(0.0833333 0 0 0.0833333 -25.2083 -299.5)" d="M 1615.66,5939.55 L 1615.66,5916.45 L 2125.28,5622.23 L 2135.28,5628 L 2135.28,5639.55 L 1615.66,5939.55 Z " />
<path stroke="transparent" fill="#000000" transform="matrix(0.0833333 0 0 0.0833333 -25.2083 -299.5)" d="M 1620.66,5853.52 L 1610.66,5836.2 L 2058.28,5577.77 L 2068.28,5595.09 L 1620.66,5853.52 Z " />
<path stroke="transparent" fill="#000000" transform="matrix(0.0833333 0 0 0.0833333 -25.2083 -299.5)" d="M 2135.28,5639.55 L 2135.28,5628 L 2145.28,5622.23 L 2654.89,5916.45 L 2654.89,5939.55 L 2135.28,5639.55 Z " />
<path stroke="transparent" fill="#000000" transform="matrix(0.0833333 0 0 0.0833333 -25.2083 -299.5)" d="M 2654.89,5939.55 L 2654.89,5916.45 L 3174.51,5616.45 L 3174.51,5639.55 L 2654.89,5939.55 Z " />
<path stroke="transparent" fill="#000000" transform="matrix(0.0833333 0 0 0.0833333 -25.2083 -299.5)" d="M 3174.51,5639.55 L 3174.51,5616.45 L 3606.51,5865.87 L 3596.51,5883.19 L 3174.51,5639.55 Z " />
<path stroke="transparent" fill="#000000" transform="matrix(0.0833333 0 0 0.0833333 -25.2083 -299.5)" d="M 3791.74,5883.19 L 3781.74,5865.87 L 4213.74,5616.45 L 4213.74,5639.55 L 3791.74,5883.19 Z " />
<path stroke="transparent" fill="#000000" transform="matrix(0.0833333 0 0 0.0833333 -25.2083 -299.5)" d="M 4167.74,5147.83 L 4187.74,5147.83 L 4187.74,5648.78 L 4167.74,5648.78 L 4167.74,5147.83 Z " />
<path stroke="transparent" fill="#000000" transform="matrix(0.0833333 0 0 0.0833333 -25.2083 -299.5)" d="M 4239.74,5147.83 L 4259.74,5147.83 L 4259.74,5648.78 L 4239.74,5648.78 L 4239.74,5147.83 Z " />
<path stroke="transparent" fill="#000000" transform="matrix(0.0833333 0 0 0.0833333 -25.2083 -299.5)" d="M 4213.74,5639.55 L 4213.74,5616.45 L 4738.36,5919.34 L 4728.36,5936.66 L 4213.74,5639.55 Z " />
<path stroke="transparent" fill="#000000" transform="matrix(0.0833333 0 0 0.0833333 -25.2083 -299.5)" d="M 4810.12,5952.96 L 4750.12,5849.04 L 4768.03,5840.05 L 4826.85,5941.95 L 4810.12,5952.96 Z " />
<path stroke="transparent" fill="#000000" transform="matrix(0.0833333 0 0 0.0833333 -25.2083 -299.5)" d="M 4856.53,5922.41 L 4799.78,5824.12 L 4817.69,5815.14 L 4873.26,5911.39 L 4856.53,5922.41 Z " />
<path stroke="transparent" fill="#000000" transform="matrix(0.0833333 0 0 0.0833333 -25.2083 -299.5)" d="M 4902.94,5891.86 L 4849.45,5799.21 L 4867.35,5790.23 L 4919.67,5880.84 L 4902.94,5891.86 Z " />
<path stroke="transparent" fill="#000000" transform="matrix(0.0833333 0 0 0.0833333 -25.2083 -299.5)" d="M 4949.34,5861.3 L 4899.11,5774.3 L 4917.02,5765.31 L 4966.08,5850.29 L 4949.34,5861.3 Z " />
<path stroke="transparent" fill="#000000" transform="matrix(0.0833333 0 0 0.0833333 -25.2083 -299.5)" d="M 4995.75,5830.75 L 4948.77,5749.38 L 4966.68,5740.4 L 5012.49,5819.74 L 4995.75,5830.75 Z " />
<path stroke="transparent" fill="#000000" transform="matrix(0.0833333 0 0 0.0833333 -25.2083 -299.5)" d="M 5042.16,5800.2 L 4998.44,5724.47 L 5016.34,5715.48 L 5058.89,5789.18 L 5042.16,5800.2 Z " />
<path stroke="transparent" fill="#000000" transform="matrix(0.0833333 0 0 0.0833333 -25.2083 -299.5)" d="M 5088.57,5769.65 L 5048.1,5699.55 L 5066.01,5690.57 L 5105.3,5758.63 L 5088.57,5769.65 Z " />
<path stroke="transparent" fill="#000000" transform="matrix(0.0833333 0 0 0.0833333 -25.2083 -299.5)" d="M 5134.98,5739.1 L 5097.76,5674.64 L 5115.67,5665.65 L 5151.71,5728.08 L 5134.98,5739.1 Z " />
<path stroke="transparent" fill="#000000" transform="matrix(0.0833333 0 0 0.0833333 -25.2083 -299.5)" d="M 5181.38,5708.54 L 5147.43,5649.72 L 5165.33,5640.74 L 5198.12,5697.53 L 5181.38,5708.54 Z " />
<path stroke="transparent" fill="#000000" transform="matrix(0.0833333 0 0 0.0833333 -25.2083 -299.5)" d="M 5227.79,5677.99 L 5197.09,5624.81 L 5215,5615.83 L 5244.53,5666.97 L 5227.79,5677.99 Z " />
<path stroke="transparent" fill="#000000" transform="matrix(0.0833333 0 0 0.0833333 -25.2083 -299.5)" d="M 5274.2,5647.44 L 5246.75,5599.9 L 5264.66,5590.91 L 5290.93,5636.42 L 5274.2,5647.44 Z " />
<path stroke="transparent" fill="#000000" transform="matrix(0.0833333 0 0 0.0833333 -25.2083 -299.5)" d="M 5320.61,5616.89 L 5296.41,5574.98 L 5314.32,5566 L 5337.34,5605.87 L 5320.61,5616.89 Z " />
<path stroke="transparent" fill="#000000" transform="matrix(0.0833333 0 0 0.0833333 -25.2083 -299.5)" d="M 5367.02,5586.33 L 5346.08,5550.07 L 5363.99,5541.08 L 5383.75,5575.32 L 5367.02,5586.33 Z " />
<path stroke="transparent" fill="#000000" transform="matrix(0.0833333 0 0 0.0833333 -25.2083 -299.5)" d="M 5413.42,5555.78 L 5395.74,5525.15 L 5413.65,5516.17 L 5430.16,5544.76 L 5413.42,5555.78 Z " />
<path stroke="transparent" fill="#000000" transform="matrix(0.0833333 0 0 0.0833333 -25.2083 -299.5)" d="M 5459.83,5525.23 L 5445.4,5500.24 L 5463.31,5491.25 L 5476.57,5514.21 L 5459.83,5525.23 Z " />
<path stroke="transparent" fill="#000000" transform="matrix(0.0833333 0 0 0.0833333 -25.2083 -299.5)" d="M 5506.24,5494.68 L 5495.07,5475.32 L 5512.97,5466.34 L 5522.97,5483.66 L 5506.24,5494.68 Z " />
<path stroke="transparent" fill="#000000" transform="matrix(0.0833333 0 0 0.0833333 -25.2083 -299.5)" d="M 4520.51,3656.66 L 4530.51,3639.34 L 4957.51,3885.87 L 4947.51,3903.19 L 4520.51,3656.66 Z " />
<path stroke="transparent" fill="#000000" transform="matrix(0.0833333 0 0 0.0833333 -25.2083 -299.5)" d="M 5035.12,4067.83 L 5055.12,4067.83 L 5055.12,4542.23 L 5035.12,4553.77 L 5035.12,4067.83 Z " />
<path stroke="transparent" fill="#000000" transform="matrix(0.0833333 0 0 0.0833333 -25.2083 -299.5)" d="M 4641.13,4834.36 L 4631.13,4817.04 L 5076.12,4560.12 L 5086.12,4577.44 L 4641.13,4834.36 Z " />
<path stroke="transparent" fill="#000000" transform="matrix(0.0833333 0 0 0.0833333 -25.2083 -299.5)" d="M 4605.13,4772.01 L 4595.13,4754.69 L 5040.12,4497.77 L 5050.12,4515.09 L 4605.13,4772.01 Z " />
<path stroke="transparent" fill="#000000" transform="matrix(0.0833333 0 0 0.0833333 -25.2083 -299.5)" d="M 5035.12,4553.77 L 5055.12,4542.23 L 5564.74,4836.45 L 5564.74,4848 L 5554.74,4853.77 L 5035.12,4553.77 Z " />
<path stroke="transparent" fill="#000000" transform="matrix(0.0833333 0 0 0.0833333 -25.2083 -299.5)" d="M 7193.61,4657.71 L 7253.61,4553.79 L 7269.77,4565.8 L 7212.1,4665.7 L 7193.61,4657.71 Z " />
<path stroke="transparent" fill="#000000" transform="matrix(0.0833333 0 0 0.0833333 -25.2083 -299.5)" d="M 7247.8,4681.13 L 7300.99,4589.01 L 7317.15,4601.02 L 7266.28,4689.12 L 7247.8,4681.13 Z " />
<path stroke="transparent" fill="#000000" transform="matrix(0.0833333 0 0 0.0833333 -25.2083 -299.5)" d="M 7301.98,4704.55 L 7348.36,4624.22 L 7364.52,4636.23 L 7320.47,4712.54 L 7301.98,4704.55 Z " />
<path stroke="transparent" fill="#000000" transform="matrix(0.0833333 0 0 0.0833333 -25.2083 -299.5)" d="M 7356.17,4727.97 L 7395.73,4659.44 L 7411.89,4671.45 L 7374.65,4735.96 L 7356.17,4727.97 Z " />
<path stroke="transparent" fill="#000000" transform="matrix(0.0833333 0 0 0.0833333 -25.2083 -299.5)" d="M 7410.35,4751.39 L 7443.11,4694.65 L 7459.27,4706.66 L 7428.83,4759.38 L 7410.35,4751.39 Z " />
<path stroke="transparent" fill="#000000" transform="matrix(0.0833333 0 0 0.0833333 -25.2083 -299.5)" d="M 7464.54,4774.81 L 7490.48,4729.87 L 7506.64,4741.88 L 7483.02,4782.79 L 7464.54,4774.81 Z " />
<path stroke="transparent" fill="#000000" transform="matrix(0.0833333 0 0 0.0833333 -25.2083 -299.5)" d="M 7518.72,4798.23 L 7537.86,4765.08 L 7554.01,4777.1 L 7537.2,4806.21 L 7518.72,4798.23 Z " />
<path stroke="transparent" fill="#000000" transform="matrix(0.0833333 0 0 0.0833333 -25.2083 -299.5)" d="M 7572.91,4821.64 L 7585.23,4800.3 L 7601.39,4812.31 L 7591.39,4829.63 L 7572.91,4821.64 Z " />
<path stroke="transparent" fill="#000000" transform="matrix(0.0833333 0 0 0.0833333 -25.2083 -299.5)" d="M 8102.82,4067.83 L 8222.82,4067.83 L 8173.38,4542.55 L 8162.82,4548 L 8152.25,4542.55 L 8102.82,4067.83 Z " />
<path stroke="transparent" fill="#000000" transform="matrix(0.0833333 0 0 0.0833333 -25.2083 -299.5)" d="M 9072.44,4553.54 L 9132.44,4657.47 L 9113.96,4665.46 L 9056.28,4565.55 L 9072.44,4553.54 Z " />
<path stroke="transparent" fill="#000000" transform="matrix(0.0833333 0 0 0.0833333 -25.2083 -299.5)" d="M 9025.02,4588.79 L 9078.2,4680.92 L 9059.72,4688.91 L 9008.86,4600.8 L 9025.02,4588.79 Z " />
<path stroke="transparent" fill="#000000" transform="matrix(0.0833333 0 0 0.0833333 -25.2083 -299.5)" d="M 8977.59,4624.04 L 9023.97,4704.37 L 9005.49,4712.36 L 8961.43,4636.05 L 8977.59,4624.04 Z " />
<path stroke="transparent" fill="#000000" transform="matrix(0.0833333 0 0 0.0833333 -25.2083 -299.5)" d="M 8930.16,4659.29 L 8969.73,4727.82 L 8951.25,4735.81 L 8914,4671.3 L 8930.16,4659.29 Z " />
<path stroke="transparent" fill="#000000" transform="matrix(0.0833333 0 0 0.0833333 -25.2083 -299.5)" d="M 8882.73,4694.53 L 8915.49,4751.27 L 8897.01,4759.26 L 8866.57,4706.54 L 8882.73,4694.53 Z " />
<path stroke="transparent" fill="#000000" transform="matrix(0.0833333 0 0 0.0833333 -25.2083 -299.5)" d="M 8835.31,4729.78 L 8861.25,4774.72 L 8842.77,4782.71 L 8819.15,4741.79 L 8835.31,4729.78 Z " />
<path stroke="transparent" fill="#000000" transform="matrix(0.0833333 0 0 0.0833333 -25.2083 -299.5)" d="M 8787.88,4765.03 L 8807.01,4798.17 L 8788.53,4806.16 L 8771.72,4777.04 L 8787.88,4765.03 Z " />
<path stroke="transparent" fill="#000000" transform="matrix(0.0833333 0 0 0.0833333 -25.2083 -299.5)" d="M 8740.45,4800.27 L 8752.77,4821.62 L 8734.29,4829.61 L 8724.29,4812.28 L 8740.45,4800.27 Z " />
<path stroke="transparent" fill="#000000" transform="matrix(0.0833333 0 0 0.0833333 -25.2083 -299.5)" d="M 9617.06,5496.85 L 9627.06,5514.17 L 9153.88,5787.35 L 9254.07,5706.42 L 9617.06,5496.85 Z " />
<path stroke="transparent" fill="#000000" transform="matrix(0.0833333 0 0 0.0833333 -25.2083 -299.5)" d="M 9254.07,5706.42 L 9153.88,5787.35 L 8681.97,5459.81 L 8682.43,5448 L 8692.43,5441.7 L 9254.07,5706.42 Z " />
<path stroke="transparent" fill="#000000" transform="matrix(0.0833333 0 0 0.0833333 -25.2083 -299.5)" d="M 8075.2,5685.87 L 8065.2,5703.19 L 7643.75,5459.87 L 7643.2,5448 L 7653.2,5442.23 L 8075.2,5685.87 Z " />
<path stroke="transparent" fill="#000000" transform="matrix(0.0833333 0 0 0.0833333 -25.2083 -299.5)" d="M 8260.43,5703.19 L 8250.43,5685.87 L 8672.43,5442.23 L 8682.43,5448 L 8681.97,5459.81 L 8260.43,5703.19 Z " />
<path stroke="transparent" fill="#000000" transform="matrix(0.0833333 0 0 0.0833333 -25.2083 -299.5)" d="M 8692.43,5441.7 L 8682.43,5448 L 8672.43,5442.23 L 8672.43,4853.77 L 8692.43,4842.23 L 8692.43,5441.7 Z " />
<path stroke="transparent" fill="#000000" transform="matrix(0.0833333 0 0 0.0833333 -25.2083 -299.5)" d="M 8692.43,4842.23 L 8672.43,4853.77 L 8162.82,4559.55 L 8162.82,4548 L 8173.38,4542.55 L 8692.43,4842.23 Z " />
<path stroke="transparent" fill="#000000" transform="matrix(0.0833333 0 0 0.0833333 -25.2083 -299.5)" d="M 8152.25,4542.55 L 8162.82,4548 L 8162.82,4559.55 L 7653.2,4853.77 L 7633.2,4842.23 L 8152.25,4542.55 Z " />
<path stroke="transparent" fill="#000000" transform="matrix(0.0833333 0 0 0.0833333 -25.2083 -299.5)" d="M 7633.2,4842.23 L 7653.2,4853.77 L 7653.2,5442.23 L 7643.2,5448 L 7633.2,5441.59 L 7633.2,4842.23 Z " />
<path stroke="transparent" fill="#000000" transform="matrix(0.0833333 0 0 0.0833333 -25.2083 -299.5)" d="M 7633.2,5441.59 L 7643.2,5448 L 7643.75,5459.87 L 7246.2,5746.49 L 7186.2,5642.57 L 7633.2,5441.59 Z " />
<path stroke="transparent" fill="#000000" transform="matrix(0.0833333 0 0 0.0833333 -25.2083 -299.5)" d="M 7060.97,5642.57 L 7000.97,5746.49 L 6603.42,5459.87 L 6603.97,5448 L 6613.97,5441.59 L 7060.97,5642.57 Z " />
<path stroke="transparent" fill="#000000" transform="matrix(0.0833333 0 0 0.0833333 -25.2083 -299.5)" d="M 6593.97,5442.23 L 6603.97,5448 L 6603.42,5459.87 L 6094.36,5753.77 L 6084.36,5748 L 6084.36,5736.45 L 6593.97,5442.23 Z " />
<path stroke="transparent" fill="#000000" transform="matrix(0.0833333 0 0 0.0833333 -25.2083 -299.5)" d="M 6613.97,5441.59 L 6603.97,5448 L 6593.97,5442.23 L 6593.97,4967.83 L 6613.97,4967.83 L 6613.97,5441.59 Z " />
<path stroke="transparent" fill="#000000" transform="matrix(0.0833333 0 0 0.0833333 -25.2083 -299.5)" d="M 6516.35,4785.87 L 6506.35,4803.19 L 6084.36,4559.55 L 6084.36,4536.45 L 6516.35,4785.87 Z " />
<path stroke="transparent" fill="#000000" transform="matrix(0.0833333 0 0 0.0833333 -25.2083 -299.5)" d="M 6084.36,4536.45 L 6084.36,4559.55 L 5574.74,4853.77 L 5564.74,4848 L 5564.74,4836.45 L 6084.36,4536.45 Z " />
<path stroke="transparent" fill="#000000" transform="matrix(0.0833333 0 0 0.0833333 -25.2083 -299.5)" d="M 6079.36,4622.48 L 6089.36,4639.8 L 5641.74,4898.23 L 5631.74,4880.91 L 6079.36,4622.48 Z " />
<path stroke="transparent" fill="#000000" transform="matrix(0.0833333 0 0 0.0833333 -25.2083 -299.5)" d="M 5554.74,4853.77 L 5564.74,4848 L 5574.74,4853.77 L 5574.74,5442.23 L 5554.74,5453.77 L 5554.74,4853.77 Z " />
<path stroke="transparent" fill="#000000" transform="matrix(0.0833333 0 0 0.0833333 -25.2083 -299.5)" d="M 5554.74,5453.77 L 5574.74,5442.23 L 6084.36,5736.45 L 6084.36,5748 L 6074.36,5753.77 L 5554.74,5453.77 Z " />
<path stroke="transparent" fill="#000000" transform="matrix(0.0833333 0 0 0.0833333 -25.2083 -299.5)" d="M 6074.36,5753.77 L 6084.36,5748 L 6094.36,5753.77 L 6094.36,6353.77 L 6074.36,6342.23 L 6074.36,5753.77 Z " />
<path stroke="transparent" fill="#000000" transform="matrix(0.0833333 0 0 0.0833333 -25.2083 -299.5)" d="M 6002.36,5789.57 L 6022.36,5789.57 L 6022.36,6306.43 L 6002.36,6306.43 L 6002.36,5789.57 Z " />
<path stroke="transparent" fill="#000000" transform="matrix(0.0833333 0 0 0.0833333 -25.2083 -299.5)" d="M 6074.36,6342.23 L 6094.36,6353.77 L 5569.74,6656.66 L 5559.74,6639.34 L 6074.36,6342.23 Z " />
<text x="0" y="0" stroke="transparent" fill="#000000" transform="matrix(0.0833333 0 0 0.0833333 4.29167 201)" style="font:normal normal normal 200px 'Arial'" >
HO</text>
<text x="0" y="0" stroke="transparent" fill="#000000" transform="matrix(0.0833333 0 0 0.0833333 4.29167 101)" style="font:normal normal normal 200px 'Arial'" >
HO</text>
<text x="0" y="0" stroke="transparent" fill="#000000" transform="matrix(0.0833333 0 0 0.0833333 276.135 201)" style="font:normal normal normal 200px 'Arial'" >
O</text>
<text x="0" y="0" stroke="transparent" fill="#000000" transform="matrix(0.0833333 0 0 0.0833333 319.437 126)" style="font:normal normal normal 200px 'Arial'" >
O</text>
<text x="0" y="0" stroke="transparent" fill="#000000" transform="matrix(0.0833333 0 0 0.0833333 388.719 36)" style="font:normal normal normal 200px 'Arial'" >
O</text>
<text x="0" y="0" stroke="transparent" fill="#000000" transform="matrix(0.0833333 0 0 0.0833333 345.417 111)" style="font:normal normal normal 200px 'Arial'" >
O</text>
<text x="0" y="0" stroke="transparent" fill="#000000" transform="matrix(0.0833333 0 0 0.0833333 549.888 86)" style="font:normal normal normal 200px 'Arial'" >
HO</text>
<text x="0" y="0" stroke="transparent" fill="#000000" transform="matrix(0.0833333 0 0 0.0833333 648.526 36)" style="font:normal normal normal 200px 'Arial'" >
OH</text>
<text x="0" y="0" stroke="transparent" fill="#000000" transform="matrix(0.0833333 0 0 0.0833333 735.129 86)" style="font:normal normal normal 200px 'Arial'" >
OH</text>
<text x="0" y="0" stroke="transparent" fill="#000000" transform="matrix(0.0833333 0 0 0.0833333 778.43 161)" style="font:normal normal normal 200px 'Arial'" >
OH</text>
<text x="0" y="0" stroke="transparent" fill="#000000" transform="matrix(0.0833333 0 0 0.0833333 648.526 186)" style="font:normal normal normal 200px 'Arial'" >
O</text>
<text x="0" y="0" stroke="transparent" fill="#000000" transform="matrix(0.0833333 0 0 0.0833333 561.924 186)" style="font:normal normal normal 200px 'Arial'" >
O</text>
<text x="0" y="0" stroke="transparent" fill="#000000" transform="matrix(0.0833333 0 0 0.0833333 518.623 111)" style="font:normal normal normal 200px 'Arial'" >
O</text>
</svg>
