<?xml version="1.0"?><svg xmlns="http://www.w3.org/2000/svg" xmlns:xlink="http://www.w3.org/1999/xlink" viewBox="157.69 139.14 207.82 89.59" preserveAspectRatio="xMidYMid" width="100%" height="100%"><clipPath id="27"><rect x="0.5" y="0.5" width="522.2" height="768.8" /></clipPath><g id="drawing"><rect x="157.69" y="139.14" width="100%" height="100%" fill="rgb(255, 255, 255)" /><g id="page" clip-path="url(#27)"><g><text xml:space="preserve" text-anchor="start" text-rendering="geometricPrecision"><tspan x="357.76" y="192.54" font-family="Arial" font-size="10" fill="rgb(0, 0, 0)">O</tspan></text></g><g><text xml:space="preserve" text-anchor="start" text-rendering="geometricPrecision"><tspan x="331.78" y="147.54" font-family="Arial" font-size="10" fill="rgb(0, 0, 0)">OH</tspan></text></g><g><text xml:space="preserve" text-anchor="start" text-rendering="geometricPrecision"><tspan x="169.94" y="228.61" font-family="Arial" font-size="10" fill="rgb(0, 0, 0)">S</tspan></text></g><g><text xml:space="preserve" text-anchor="start" text-rendering="geometricPrecision"><tspan x="199.29" y="222.37" font-family="Arial" font-size="10" fill="rgb(0, 0, 0)">S</tspan></text></g><g id="Solid"><line x1="355.8" y1="187.25" x2="334.92" y2="175.2" stroke="rgb(0, 0, 0)" stroke-width="1" shape-rendering="auto" /><path d="M357.09 185.01 L357.09 185.01 L357.59 184.15 L336.19 171.79 L336.19 172.94 Z" stroke="rgb(0, 0, 0)" stroke-width="0" fill-rule="evenodd" stroke-linejoin="miter" fill="rgb(0, 0, 0)" shape-rendering="geometricPrecision" /><path d="M355.55 187.68 L355.55 187.68 L356.05 186.82 L335.15 174.75 L334.15 175.33 Z" stroke="rgb(0, 0, 0)" stroke-width="0" fill-rule="evenodd" stroke-linejoin="miter" fill="rgb(0, 0, 0)" shape-rendering="geometricPrecision" /></g><g id="Solid"><path d="M336.19 174.15 L336.19 174.15 L335.69 173.86 L335.19 173.57 L335.19 149.7 L335.69 149.7 L336.19 149.7 Z" stroke="rgb(0, 0, 0)" stroke-width="0" fill-rule="evenodd" stroke-linejoin="miter" fill="rgb(0, 0, 0)" shape-rendering="geometricPrecision" /></g><g id="Solid"><path d="M335.19 173.57 L335.19 173.57 L335.69 173.86 L336.19 174.15 L309.71 189.44 L309.71 188.86 L309.71 188.28 Z" stroke="rgb(0, 0, 0)" stroke-width="0" fill-rule="evenodd" stroke-linejoin="miter" fill="rgb(0, 0, 0)" shape-rendering="geometricPrecision" /></g><g id="Solid"><path d="M309.71 188.28 L309.71 188.28 L309.71 188.86 L309.71 189.44 L283.72 174.44 L283.72 173.86 L283.72 173.28 Z" stroke="rgb(0, 0, 0)" stroke-width="0" fill-rule="evenodd" stroke-linejoin="miter" fill="rgb(0, 0, 0)" shape-rendering="geometricPrecision" /></g><g id="Solid"><path d="M283.72 173.28 L283.72 173.28 L283.72 173.86 L283.72 174.44 L257.74 189.44 L257.74 188.86 L257.74 188.28 Z" stroke="rgb(0, 0, 0)" stroke-width="0" fill-rule="evenodd" stroke-linejoin="miter" fill="rgb(0, 0, 0)" shape-rendering="geometricPrecision" /></g><g id="Solid"><path d="M257.74 188.28 L257.74 188.28 L257.74 188.86 L257.74 189.44 L231.76 174.44 L231.76 173.86 L231.76 173.28 Z" stroke="rgb(0, 0, 0)" stroke-width="0" fill-rule="evenodd" stroke-linejoin="miter" fill="rgb(0, 0, 0)" shape-rendering="geometricPrecision" /></g><g id="Solid"><path d="M231.76 173.28 L231.76 173.28 L231.76 173.86 L231.76 174.44 L206.25 189.17 L205.78 188.86 L205.75 188.3 Z" stroke="rgb(0, 0, 0)" stroke-width="0" fill-rule="evenodd" stroke-linejoin="miter" fill="rgb(0, 0, 0)" shape-rendering="geometricPrecision" /></g><g id="Solid"><path d="M205.75 188.3 L205.75 188.3 L205.78 188.86 L205.24 189.17 L178.51 177.26 L178.38 176.66 L178.25 176.06 Z" stroke="rgb(0, 0, 0)" stroke-width="0" fill-rule="evenodd" stroke-linejoin="miter" fill="rgb(0, 0, 0)" shape-rendering="geometricPrecision" /></g><g id="Solid"><path d="M178.25 176.06 L178.25 176.06 L178.38 176.66 L178.51 177.26 L158.91 199.02 L158.3 198.96 L157.69 198.9 Z" stroke="rgb(0, 0, 0)" stroke-width="0" fill-rule="evenodd" stroke-linejoin="miter" fill="rgb(0, 0, 0)" shape-rendering="geometricPrecision" /></g><g id="Solid"><path d="M157.69 198.9 L157.69 198.9 L158.3 198.96 L158.91 199.02 L170.8 219.62 L170.37 219.87 L169.94 220.12 Z" stroke="rgb(0, 0, 0)" stroke-width="0" fill-rule="evenodd" stroke-linejoin="miter" fill="rgb(0, 0, 0)" shape-rendering="geometricPrecision" /></g><g id="Solid"><path d="M178.16 224.42 L178.16 224.42 L178.06 223.93 L177.95 223.44 L197.74 219.23 L197.84 219.72 L197.95 220.21 Z" stroke="rgb(0, 0, 0)" stroke-width="0" fill-rule="evenodd" stroke-linejoin="miter" fill="rgb(0, 0, 0)" shape-rendering="geometricPrecision" /></g><g id="Solid"><path d="M205.24 189.17 L205.24 189.17 L205.78 188.86 L206.25 189.17 L203.73 213.16 L203.24 213.11 L202.74 213.06 Z" stroke="rgb(0, 0, 0)" stroke-width="0" fill-rule="evenodd" stroke-linejoin="miter" fill="rgb(0, 0, 0)" shape-rendering="geometricPrecision" /></g></g></g></svg>