<?xml version="1.0" standalone="no" ?>
<!DOCTYPE svg PUBLIC "-//W3C//DTD SVG 1.1//EN" "http://www.w3.org/Graphics/SVG/1.1/DTD/svg11.dtd">
<svg width="403px" height="340px" viewBox="0 0 403 340" style="background-color: #ffffff00" xmlns="http://www.w3.org/2000/svg" xmlns:xlink="http://www.w3.org/1999/xlink" version="1.1" >
<text x="0" y="0" stroke="transparent" fill="#000000" transform="matrix(0.0666667 0 0 0.0666667 389.739 128.123)" style="font:normal normal normal 200px 'Arial'" >
O</text>
<text x="0" y="0" stroke="transparent" fill="#000000" transform="matrix(0.0666667 0 0 0.0666667 216.529 68.1256)" style="font:normal normal normal 200px 'Arial'" >
O</text>
<text x="0" y="0" stroke="transparent" fill="#000000" transform="matrix(0.0666667 0 0 0.0666667 251.173 128.123)" style="font:normal normal normal 200px 'Arial'" >
O</text>
<text x="0" y="0" stroke="transparent" fill="#000000" transform="matrix(0.0666667 0 0 0.0666667 216.529 188.124)" style="font:normal normal normal 200px 'Arial'" >
O</text>
<text x="0" y="0" stroke="transparent" fill="#000000" transform="matrix(0.0666667 0 0 0.0666667 147.248 228.124)" style="font:normal normal normal 200px 'Arial'" >
O</text>
<text x="0" y="0" stroke="transparent" fill="#000000" transform="matrix(0.0666667 0 0 0.0666667 76.0664 231.852)" style="font:normal normal normal 200px 'Arial'" >
O</text>
<text x="0" y="0" stroke="transparent" fill="#000000" transform="matrix(0.0666667 0 0 0.0666667 19.7248 298.313)" style="font:normal normal normal 200px 'Arial'" >
HO</text>
<text x="0" y="0" stroke="transparent" fill="#000000" transform="matrix(0.0666667 0 0 0.0666667 3.62052 336.946)" style="font:normal normal normal 200px 'Arial'" >
HO</text>
<text x="0" y="0" stroke="transparent" fill="#000000" transform="matrix(0.0666667 0 0 0.0666667 138.151 314.67)" style="font:normal normal normal 200px 'Arial'" >
OH</text>
<text x="0" y="0" stroke="transparent" fill="#000000" transform="matrix(0.0666667 0 0 0.0666667 251.173 288.125)" style="font:normal normal normal 200px 'Arial'" >
OH</text>
<text x="0" y="0" stroke="transparent" fill="#000000" transform="matrix(0.0666667 0 0 0.0666667 320.454 248.125)" style="font:normal normal normal 200px 'Arial'" >
OH</text>
<text x="0" y="0" stroke="transparent" fill="#000000" transform="matrix(0.0666667 0 0 0.0666667 320.454 168.123)" style="font:normal normal normal 200px 'Arial'" >
OH</text>
<path stroke="transparent" fill="#000000" transform="matrix(0.0666667 0 0 0.0666667 -146.92 -175)" d="M 8117.89,4588.67 L 8137.89,4588.67 L 8137.89,5068.91 L 8117.89,5068.91 L 8117.89,4588.67 Z " />
<path stroke="transparent" fill="#000000" transform="matrix(0.0666667 0 0 0.0666667 -146.92 -175)" d="M 7608.22,4180.38 L 7608.22,4168.83 L 7618.22,4163.06 L 8040.27,4406.71 L 8030.27,4424.03 L 7608.22,4180.38 Z " />
<path stroke="transparent" fill="#000000" transform="matrix(0.0666667 0 0 0.0666667 -146.92 -175)" d="M 7598.22,3574.6 L 7618.22,3563.05 L 7618.22,4163.06 L 7608.22,4168.83 L 7598.22,4163.06 L 7598.22,3574.6 Z " />
<path stroke="transparent" fill="#000000" transform="matrix(0.0666667 0 0 0.0666667 -146.92 -175)" d="M 7526.22,3610.39 L 7546.22,3610.39 L 7546.22,4127.27 L 7526.22,4127.27 L 7526.22,3610.39 Z " />
<path stroke="transparent" fill="#000000" transform="matrix(0.0666667 0 0 0.0666667 -146.92 -175)" d="M 7088.62,3280.37 L 7088.62,3257.27 L 7618.22,3563.05 L 7598.22,3574.6 L 7088.62,3280.37 Z " />
<path stroke="transparent" fill="#000000" transform="matrix(0.0666667 0 0 0.0666667 -146.92 -175)" d="M 6579.01,3574.6 L 6569.01,3568.82 L 6569.01,3557.28 L 7088.62,3257.27 L 7088.62,3280.37 L 6579.01,3574.6 Z " />
<path stroke="transparent" fill="#000000" transform="matrix(0.0666667 0 0 0.0666667 -146.92 -175)" d="M 6646.01,3619.05 L 6636.01,3601.73 L 7083.62,3343.3 L 7093.62,3360.62 L 6646.01,3619.05 Z " />
<path stroke="transparent" fill="#000000" transform="matrix(0.0666667 0 0 0.0666667 -146.92 -175)" d="M 6039.4,3274.59 L 6059.4,3263.05 L 6569.01,3557.28 L 6569.01,3568.82 L 6559.01,3574.6 L 6039.4,3274.59 Z " />
<path stroke="transparent" fill="#000000" transform="matrix(0.0666667 0 0 0.0666667 -146.92 -175)" d="M 6039.4,2668.81 L 6059.4,2668.81 L 6059.4,3263.05 L 6039.4,3274.59 L 6039.4,2668.81 Z " />
<path stroke="transparent" fill="#000000" transform="matrix(0.0666667 0 0 0.0666667 -146.92 -175)" d="M 5645.35,3555.25 L 5635.35,3537.93 L 6080.4,3280.95 L 6090.4,3298.27 L 5645.35,3555.25 Z " />
<path stroke="transparent" fill="#000000" transform="matrix(0.0666667 0 0 0.0666667 -146.92 -175)" d="M 5609.34,3492.89 L 5599.34,3475.57 L 6044.4,3218.58 L 6054.4,3235.9 L 5609.34,3492.89 Z " />
<path stroke="transparent" fill="#000000" transform="matrix(0.0666667 0 0 0.0666667 -146.92 -175)" d="M 6579.01,4163.06 L 6569.01,4168.83 L 6559.01,4163.06 L 6559.01,3574.6 L 6569.01,3568.82 L 6579.01,3574.6 L 6579.01,4163.06 Z " />
<path stroke="transparent" fill="#000000" transform="matrix(0.0666667 0 0 0.0666667 -146.92 -175)" d="M 6147.02,4424.02 L 6137.02,4406.7 L 6559.01,4163.06 L 6569.01,4168.83 L 6569.01,4180.38 L 6147.02,4424.02 Z " />
<path stroke="transparent" fill="#000000" transform="matrix(0.0666667 0 0 0.0666667 -146.92 -175)" d="M 6059.4,5063.08 L 6049.4,5068.85 L 6039.4,5063.08 L 6039.4,4588.67 L 6059.4,4588.67 L 6059.4,5063.08 Z " />
<path stroke="transparent" fill="#000000" transform="matrix(0.0666667 0 0 0.0666667 -146.92 -175)" d="M 5627.35,5324.04 L 5617.35,5306.72 L 6039.4,5063.08 L 6049.4,5068.85 L 6049.4,5080.4 L 5627.35,5324.04 Z " />
<path stroke="transparent" fill="#000000" transform="matrix(0.0666667 0 0 0.0666667 -146.92 -175)" d="M 5539.73,5963.09 L 5529.73,5968.86 L 5519.73,5963.09 L 5519.73,5488.69 L 5539.73,5488.69 L 5539.73,5963.09 Z " />
<path stroke="transparent" fill="#000000" transform="matrix(0.0666667 0 0 0.0666667 -146.92 -175)" d="M 5010.12,6280.42 L 5010.12,6257.32 L 5519.73,5963.09 L 5529.73,5968.86 L 5529.73,5980.41 L 5010.12,6280.42 Z " />
<path stroke="transparent" fill="#000000" transform="matrix(0.0666667 0 0 0.0666667 -146.92 -175)" d="M 4585.55,6035.28 L 4595.55,6017.96 L 5010.12,6257.32 L 5010.12,6280.42 L 4585.55,6035.28 Z " />
<path stroke="transparent" fill="#000000" transform="matrix(0.0666667 0 0 0.0666667 -146.92 -175)" d="M 3980.32,6274.98 L 3970.91,6268.87 L 3970.32,6257.66 L 4385.91,6017.71 L 4395.91,6035.03 L 3980.32,6274.98 Z " />
<path stroke="transparent" fill="#000000" transform="matrix(0.0666667 0 0 0.0666667 -146.92 -175)" d="M 3522.83,6080.28 L 3530.97,6062.01 L 3970.32,6257.66 L 3970.91,6268.87 L 3960.2,6275.05 L 3522.83,6080.28 Z " />
<path stroke="transparent" fill="#000000" transform="matrix(0.0666667 0 0 0.0666667 -146.92 -175)" d="M 3033.62,6472 L 3009.04,6469.42 L 3335.67,6106.61 L 3350.53,6120 L 3033.62,6472 Z " />
<path stroke="transparent" fill="#000000" transform="matrix(0.0666667 0 0 0.0666667 -146.92 -175)" d="M 3326.36,6979.03 L 3321.33,6990.32 L 3304.51,6981.19 L 3009.04,6469.42 L 3033.62,6472 L 3326.36,6979.03 Z " />
<path stroke="transparent" fill="#000000" transform="matrix(0.0666667 0 0 0.0666667 -146.92 -175)" d="M 2830.95,7026.01 L 2829.91,7006.04 L 3304.51,6981.19 L 3321.33,6990.32 L 3305.56,7001.16 L 2830.95,7026.01 Z " />
<path stroke="transparent" fill="#000000" transform="matrix(0.0666667 0 0 0.0666667 -146.92 -175)" d="M 3084.04,7547.77 L 3070.46,7529.09 L 3305.56,7001.16 L 3321.33,6990.32 L 3328.4,6999.04 L 3084.04,7547.77 Z " />
<path stroke="transparent" fill="#000000" transform="matrix(0.0666667 0 0 0.0666667 -146.92 -175)" d="M 2589.18,7599.82 L 2587.09,7579.93 L 3070.46,7529.09 L 3084.04,7547.77 L 2589.18,7599.82 Z " />
<path stroke="transparent" fill="#000000" transform="matrix(0.0666667 0 0 0.0666667 -146.92 -175)" d="M 3899.02,6857.31 L 3908.2,6865.58 L 3905.3,6876.42 L 3328.4,6999.04 L 3321.33,6990.32 L 3326.36,6979.03 L 3899.02,6857.31 Z " />
<path stroke="transparent" fill="#000000" transform="matrix(0.0666667 0 0 0.0666667 -146.92 -175)" d="M 3918.68,6861.56 L 3908.2,6865.58 L 3899.02,6857.31 L 3960.2,6275.05 L 3970.91,6268.87 L 3980.32,6274.98 L 3918.68,6861.56 Z " />
<path stroke="transparent" fill="#000000" transform="matrix(0.0666667 0 0 0.0666667 -146.92 -175)" d="M 4281.41,7188.16 L 4268.02,7203.02 L 3905.3,6876.42 L 3908.2,6865.58 L 3918.68,6861.56 L 4281.41,7188.16 Z " />
<path stroke="transparent" fill="#000000" transform="matrix(0.0666667 0 0 0.0666667 -146.92 -175)" d="M 6049.4,6257.26 L 6049.4,6268.81 L 6039.4,6274.58 L 5529.73,5980.41 L 5529.73,5968.86 L 5539.73,5963.09 L 6049.4,6257.26 Z " />
<path stroke="transparent" fill="#000000" transform="matrix(0.0666667 0 0 0.0666667 -146.92 -175)" d="M 6059.4,6763.71 L 6039.4,6763.71 L 6039.4,6274.58 L 6049.4,6268.81 L 6059.4,6274.58 L 6059.4,6763.71 Z " />
<path stroke="transparent" fill="#000000" transform="matrix(0.0666667 0 0 0.0666667 -146.92 -175)" d="M 6559.01,5963.09 L 6569.01,5968.86 L 6569.01,5980.41 L 6059.4,6274.58 L 6049.4,6268.81 L 6049.4,6257.26 L 6559.01,5963.09 Z " />
<path stroke="transparent" fill="#000000" transform="matrix(0.0666667 0 0 0.0666667 -146.92 -175)" d="M 7001,6206.73 L 6991,6224.05 L 6569.01,5980.41 L 6569.01,5968.86 L 6579.01,5963.09 L 7001,6206.73 Z " />
<path stroke="transparent" fill="#000000" transform="matrix(0.0666667 0 0 0.0666667 -146.92 -175)" d="M 6559.01,5374.63 L 6569.01,5368.85 L 6579.01,5374.63 L 6579.01,5963.09 L 6569.01,5968.86 L 6559.01,5963.09 L 6559.01,5374.63 Z " />
<path stroke="transparent" fill="#000000" transform="matrix(0.0666667 0 0 0.0666667 -146.92 -175)" d="M 6569.01,5357.31 L 6569.01,5368.85 L 6559.01,5374.63 L 6049.4,5080.4 L 6049.4,5068.85 L 6059.4,5063.08 L 6569.01,5357.31 Z " />
<path stroke="transparent" fill="#000000" transform="matrix(0.0666667 0 0 0.0666667 -146.92 -175)" d="M 6984.01,5117.7 L 6994.01,5135.02 L 6579.01,5374.63 L 6569.01,5368.85 L 6569.01,5357.31 L 6984.01,5117.7 Z " />
<path stroke="transparent" fill="#000000" transform="matrix(0.0666667 0 0 0.0666667 -146.92 -175)" d="M 7088.62,4457.29 L 7088.62,4480.39 L 6569.01,4180.38 L 6569.01,4168.83 L 6579.01,4163.06 L 7088.62,4457.29 Z " />
<path stroke="transparent" fill="#000000" transform="matrix(0.0666667 0 0 0.0666667 -146.92 -175)" d="M 7093.62,4377.04 L 7083.62,4394.36 L 6636.01,4135.93 L 6646.01,4118.61 L 7093.62,4377.04 Z " />
<path stroke="transparent" fill="#000000" transform="matrix(0.0666667 0 0 0.0666667 -146.92 -175)" d="M 7088.62,4480.39 L 7088.62,4457.29 L 7598.22,4163.06 L 7608.22,4168.83 L 7608.22,4180.38 L 7088.62,4480.39 Z " />
</svg>
