<?xml version="1.0" standalone="no" ?>
<!DOCTYPE svg PUBLIC "-//W3C//DTD SVG 1.1//EN" "http://www.w3.org/Graphics/SVG/1.1/DTD/svg11.dtd">
<svg width="230px" height="133px" viewBox="0 0 230 133" style="background-color: #ffffff00" xmlns="http://www.w3.org/2000/svg" xmlns:xlink="http://www.w3.org/1999/xlink" version="1.1" >
<text x="0" y="0" stroke="none" fill="#000000" transform="matrix(0.0666667 0 0 0.0666667 137.383 114.354)" font-style="normal" font-weight="normal" font-size="200px" font-family="Arial" >
OH</text>
<text x="0" y="0" stroke="none" fill="#000000" transform="matrix(0.0666667 0 0 0.0666667 172.02 14.354)" font-style="normal" font-weight="normal" font-size="200px" font-family="Arial" >
O</text>
<text x="0" y="0" stroke="none" fill="#000000" transform="matrix(0.0666667 0 0 0.0666667 206.663 74.354)" font-style="normal" font-weight="normal" font-size="200px" font-family="Arial" >
OH</text>
<path stroke="none" fill="#000000" transform="matrix(0.0666667 0 0 0.0666667 -233.859 -218)" d="M 5706.62,4802.14 L 5586.62,4802.14 L 5588.89,4782.14 L 5704.35,4782.14 L 5706.62,4802.14 Z " />
<path stroke="none" fill="#000000" transform="matrix(0.0666667 0 0 0.0666667 -233.859 -218)" d="M 5699.8,4742.04 L 5593.44,4742.04 L 5595.71,4722.04 L 5697.53,4722.04 L 5699.8,4742.04 Z " />
<path stroke="none" fill="#000000" transform="matrix(0.0666667 0 0 0.0666667 -233.859 -218)" d="M 5692.98,4681.93 L 5600.26,4681.93 L 5602.53,4661.93 L 5690.71,4661.93 L 5692.98,4681.93 Z " />
<path stroke="none" fill="#000000" transform="matrix(0.0666667 0 0 0.0666667 -233.859 -218)" d="M 5686.16,4621.82 L 5607.08,4621.82 L 5609.34,4601.82 L 5683.89,4601.82 L 5686.16,4621.82 Z " />
<path stroke="none" fill="#000000" transform="matrix(0.0666667 0 0 0.0666667 -233.859 -218)" d="M 5679.34,4561.72 L 5613.89,4561.72 L 5616.16,4541.72 L 5677.08,4541.72 L 5679.34,4561.72 Z " />
<path stroke="none" fill="#000000" transform="matrix(0.0666667 0 0 0.0666667 -233.859 -218)" d="M 5672.53,4501.61 L 5620.71,4501.61 L 5622.98,4481.61 L 5670.26,4481.61 L 5672.53,4501.61 Z " />
<path stroke="none" fill="#000000" transform="matrix(0.0666667 0 0 0.0666667 -233.859 -218)" d="M 5665.71,4441.51 L 5627.53,4441.51 L 5629.8,4421.51 L 5663.44,4421.51 L 5665.71,4441.51 Z " />
<path stroke="none" fill="#000000" transform="matrix(0.0666667 0 0 0.0666667 -233.859 -218)" d="M 5658.89,4381.4 L 5634.35,4381.4 L 5636.62,4361.4 L 5656.62,4361.4 L 5658.89,4381.4 Z " />
<path stroke="none" fill="#000000" transform="matrix(0.0666667 0 0 0.0666667 -233.859 -218)" d="M 6166.18,3995.76 L 6166.18,4018.86 L 5646.62,4318.86 L 5646.62,4295.76 L 6166.18,3995.76 Z " />
<path stroke="none" fill="#000000" transform="matrix(0.0666667 0 0 0.0666667 -233.859 -218)" d="M 5126.98,4018.86 L 5126.98,3995.76 L 5646.62,4295.76 L 5646.62,4318.86 L 5126.98,4018.86 Z " />
<path stroke="none" fill="#000000" transform="matrix(0.0666667 0 0 0.0666667 -233.859 -218)" d="M 4617.35,4313.08 L 4607.35,4307.31 L 4607.35,4295.76 L 5126.98,3995.76 L 5126.98,4018.86 L 4617.35,4313.08 Z " />
<path stroke="none" fill="#000000" transform="matrix(0.0666667 0 0 0.0666667 -233.859 -218)" d="M 4087.78,4018.86 L 4087.78,3995.76 L 4607.35,4295.76 L 4607.35,4307.31 L 4597.35,4313.08 L 4087.78,4018.86 Z " />
<path stroke="none" fill="#000000" transform="matrix(0.0666667 0 0 0.0666667 -233.859 -218)" d="M 4082.78,4099.1 L 4092.78,4081.78 L 4540.35,4340.21 L 4530.35,4357.53 L 4082.78,4099.1 Z " />
<path stroke="none" fill="#000000" transform="matrix(0.0666667 0 0 0.0666667 -233.859 -218)" d="M 4617.35,4913.08 L 4597.35,4901.54 L 4597.35,4313.08 L 4607.35,4307.31 L 4617.35,4313.08 L 4617.35,4913.08 Z " />
<path stroke="none" fill="#000000" transform="matrix(0.0666667 0 0 0.0666667 -233.859 -218)" d="M 4087.78,5218.86 L 4087.78,5195.76 L 4597.35,4901.54 L 4617.35,4913.08 L 4087.78,5218.86 Z " />
<path stroke="none" fill="#000000" transform="matrix(0.0666667 0 0 0.0666667 -233.859 -218)" d="M 4092.78,5132.84 L 4082.78,5115.52 L 4530.35,4857.09 L 4540.35,4874.41 L 4092.78,5132.84 Z " />
<path stroke="none" fill="#000000" transform="matrix(0.0666667 0 0 0.0666667 -233.859 -218)" d="M 3558.15,4913.08 L 3578.15,4901.54 L 4087.78,5195.76 L 4087.78,5218.86 L 3558.15,4913.08 Z " />
<path stroke="none" fill="#000000" transform="matrix(0.0666667 0 0 0.0666667 -233.859 -218)" d="M 3558.15,4301.54 L 3578.15,4313.08 L 3578.15,4901.54 L 3558.15,4913.08 L 3558.15,4301.54 Z " />
<path stroke="none" fill="#000000" transform="matrix(0.0666667 0 0 0.0666667 -233.859 -218)" d="M 3630.15,4348.88 L 3650.15,4348.88 L 3650.15,4865.74 L 3630.15,4865.74 L 3630.15,4348.88 Z " />
<path stroke="none" fill="#000000" transform="matrix(0.0666667 0 0 0.0666667 -233.859 -218)" d="M 4087.78,3995.76 L 4087.78,4018.86 L 3578.15,4313.08 L 3558.15,4301.54 L 4087.78,3995.76 Z " />
<path stroke="none" fill="#000000" transform="matrix(0.0666667 0 0 0.0666667 -233.859 -218)" d="M 6120.18,3527.14 L 6140.18,3527.14 L 6140.18,4028.1 L 6120.18,4028.1 L 6120.18,3527.14 Z " />
<path stroke="none" fill="#000000" transform="matrix(0.0666667 0 0 0.0666667 -233.859 -218)" d="M 6192.18,3527.14 L 6212.18,3527.14 L 6212.18,4028.09 L 6192.18,4028.09 L 6192.18,3527.14 Z " />
<path stroke="none" fill="#000000" transform="matrix(0.0666667 0 0 0.0666667 -233.859 -218)" d="M 6598.2,4245.18 L 6588.2,4262.5 L 6166.18,4018.86 L 6166.18,3995.76 L 6598.2,4245.18 Z " />
</svg>
