<?xml version="1.0" standalone="no" ?>
<!DOCTYPE svg PUBLIC "-//W3C//DTD SVG 1.1//EN" "http://www.w3.org/Graphics/SVG/1.1/DTD/svg11.dtd">
<svg width="711px" height="452px" viewBox="0 0 711 452" style="background-color: #ffffff00" xmlns="http://www.w3.org/2000/svg" xmlns:xlink="http://www.w3.org/1999/xlink" version="1.1" >
<text x="0" y="0" stroke="transparent" fill="#000000" transform="matrix(0.0833333 0 0 0.0833333 638.699 244.333)" style="font:normal normal normal 200px 'Arial'" >
O</text>
<text x="0" y="0" stroke="transparent" fill="#000000" transform="matrix(0.0833333 0 0 0.0833333 682 169.333)" style="font:normal normal normal 200px 'Arial'" >
OH</text>
<text x="0" y="0" stroke="transparent" fill="#000000" transform="matrix(0.0833333 0 0 0.0833333 612.718 229.333)" style="font:normal normal normal 200px 'Arial'" >
OH</text>
<text x="0" y="0" stroke="transparent" fill="#000000" transform="matrix(0.0833333 0 0 0.0833333 223.006 304.333)" style="font:normal normal normal 200px 'Arial'" >
O</text>
<path stroke="transparent" fill="#000000" transform="matrix(0.0833333 0 0 0.0833333 -95.25 -132.167)" d="M 3942.46,6182.57 L 3882.46,6286.49 L 3866.28,6274.52 L 3924,6174.54 L 3942.46,6182.57 Z " />
<path stroke="transparent" fill="#000000" transform="matrix(0.0833333 0 0 0.0833333 -95.25 -132.167)" d="M 3887.21,6158.54 L 3834.02,6250.65 L 3817.84,6238.68 L 3868.75,6150.51 L 3887.21,6158.54 Z " />
<path stroke="transparent" fill="#000000" transform="matrix(0.0833333 0 0 0.0833333 -95.25 -132.167)" d="M 3831.95,6134.51 L 3785.59,6214.82 L 3769.41,6202.84 L 3813.49,6126.48 L 3831.95,6134.51 Z " />
<path stroke="transparent" fill="#000000" transform="matrix(0.0833333 0 0 0.0833333 -95.25 -132.167)" d="M 3776.7,6110.48 L 3737.15,6178.98 L 3720.97,6167.01 L 3758.24,6102.45 L 3776.7,6110.48 Z " />
<path stroke="transparent" fill="#000000" transform="matrix(0.0833333 0 0 0.0833333 -95.25 -132.167)" d="M 3721.45,6086.45 L 3688.72,6143.14 L 3672.54,6131.17 L 3702.99,6078.43 L 3721.45,6086.45 Z " />
<path stroke="transparent" fill="#000000" transform="matrix(0.0833333 0 0 0.0833333 -95.25 -132.167)" d="M 3666.2,6062.43 L 3640.28,6107.31 L 3624.1,6095.34 L 3647.74,6054.4 L 3666.2,6062.43 Z " />
<path stroke="transparent" fill="#000000" transform="matrix(0.0833333 0 0 0.0833333 -95.25 -132.167)" d="M 3610.94,6038.4 L 3591.85,6071.47 L 3575.67,6059.5 L 3592.48,6030.37 L 3610.94,6038.4 Z " />
<path stroke="transparent" fill="#000000" transform="matrix(0.0833333 0 0 0.0833333 -95.25 -132.167)" d="M 3555.69,6014.37 L 3543.41,6035.64 L 3527.23,6023.66 L 3537.23,6006.34 L 3555.69,6014.37 Z " />
<path stroke="transparent" fill="#000000" transform="matrix(0.0833333 0 0 0.0833333 -95.25 -132.167)" d="M 3025.85,6782.83 L 2905.85,6782.83 L 2955.3,6293.46 L 2965.85,6288 L 2976.4,6293.46 L 3025.85,6782.83 Z " />
<path stroke="transparent" fill="#000000" transform="matrix(0.0833333 0 0 0.0833333 -95.25 -132.167)" d="M 2049.23,6286.49 L 1989.23,6182.57 L 2007.69,6174.54 L 2065.41,6274.52 L 2049.23,6286.49 Z " />
<path stroke="transparent" fill="#000000" transform="matrix(0.0833333 0 0 0.0833333 -95.25 -132.167)" d="M 2097.66,6250.66 L 2044.48,6158.54 L 2062.94,6150.51 L 2113.84,6238.68 L 2097.66,6250.66 Z " />
<path stroke="transparent" fill="#000000" transform="matrix(0.0833333 0 0 0.0833333 -95.25 -132.167)" d="M 2146.1,6214.82 L 2099.73,6134.51 L 2118.19,6126.49 L 2162.28,6202.85 L 2146.1,6214.82 Z " />
<path stroke="transparent" fill="#000000" transform="matrix(0.0833333 0 0 0.0833333 -95.25 -132.167)" d="M 2194.53,6178.98 L 2154.99,6110.48 L 2173.45,6102.46 L 2210.72,6167.01 L 2194.53,6178.98 Z " />
<path stroke="transparent" fill="#000000" transform="matrix(0.0833333 0 0 0.0833333 -95.25 -132.167)" d="M 2242.97,6143.15 L 2210.24,6086.46 L 2228.7,6078.43 L 2259.15,6131.17 L 2242.97,6143.15 Z " />
<path stroke="transparent" fill="#000000" transform="matrix(0.0833333 0 0 0.0833333 -95.25 -132.167)" d="M 2291.41,6107.31 L 2265.49,6062.43 L 2283.95,6054.4 L 2307.59,6095.34 L 2291.41,6107.31 Z " />
<path stroke="transparent" fill="#000000" transform="matrix(0.0833333 0 0 0.0833333 -95.25 -132.167)" d="M 2339.84,6071.47 L 2320.75,6038.4 L 2339.21,6030.37 L 2356.02,6059.5 L 2339.84,6071.47 Z " />
<path stroke="transparent" fill="#000000" transform="matrix(0.0833333 0 0 0.0833333 -95.25 -132.167)" d="M 2388.28,6035.64 L 2376,6014.37 L 2394.46,6006.34 L 2404.46,6023.66 L 2388.28,6035.64 Z " />
<path stroke="transparent" fill="#000000" transform="matrix(0.0833333 0 0 0.0833333 -95.25 -132.167)" d="M 1504.61,5343.19 L 1494.61,5325.87 L 1974.78,5048.65 L 1874.59,5129.58 L 1504.61,5343.19 Z " />
<path stroke="transparent" fill="#000000" transform="matrix(0.0833333 0 0 0.0833333 -95.25 -132.167)" d="M 1874.59,5129.58 L 1974.78,5048.65 L 2446.69,5376.19 L 2446.23,5388 L 2436.23,5394.3 L 1874.59,5129.58 Z " />
<path stroke="transparent" fill="#000000" transform="matrix(0.0833333 0 0 0.0833333 -95.25 -132.167)" d="M 3060.88,5154.42 L 3070.88,5137.1 L 3485.56,5376.51 L 3485.46,5388 L 3475.46,5393.77 L 3060.88,5154.42 Z " />
<path stroke="transparent" fill="#000000" transform="matrix(0.0833333 0 0 0.0833333 -95.25 -132.167)" d="M 2861.24,5136.85 L 2871.24,5154.17 L 2456.23,5393.77 L 2446.23,5388 L 2446.69,5376.19 L 2861.24,5136.85 Z " />
<path stroke="transparent" fill="#000000" transform="matrix(0.0833333 0 0 0.0833333 -95.25 -132.167)" d="M 2436.23,5394.3 L 2446.23,5388 L 2456.23,5393.77 L 2456.23,5982.23 L 2436.23,5993.77 L 2436.23,5394.3 Z " />
<path stroke="transparent" fill="#000000" transform="matrix(0.0833333 0 0 0.0833333 -95.25 -132.167)" d="M 2436.23,5993.77 L 2456.23,5982.23 L 2965.85,6276.45 L 2965.85,6288 L 2955.3,6293.46 L 2436.23,5993.77 Z " />
<path stroke="transparent" fill="#000000" transform="matrix(0.0833333 0 0 0.0833333 -95.25 -132.167)" d="M 2976.4,6293.46 L 2965.85,6288 L 2965.85,6276.45 L 3475.46,5982.23 L 3495.46,5993.77 L 2976.4,6293.46 Z " />
<path stroke="transparent" fill="#000000" transform="matrix(0.0833333 0 0 0.0833333 -95.25 -132.167)" d="M 5467.44,4241.8 L 5455.92,4260 L 5444.41,4241.8 L 5395.92,3660 L 5515.92,3660 L 5467.44,4241.8 Z " />
<path stroke="transparent" fill="#000000" transform="matrix(0.0833333 0 0 0.0833333 -95.25 -132.167)" d="M 4936.31,3971.55 L 4936.31,3948.45 L 5444.41,4241.8 L 5455.92,4260 L 5445.92,4265.77 L 4936.31,3971.55 Z " />
<path stroke="transparent" fill="#000000" transform="matrix(0.0833333 0 0 0.0833333 -95.25 -132.167)" d="M 4426.69,4265.77 L 4406.69,4254.23 L 4936.31,3948.45 L 4936.31,3971.55 L 4426.69,4265.77 Z " />
<path stroke="transparent" fill="#000000" transform="matrix(0.0833333 0 0 0.0833333 -95.25 -132.167)" d="M 4426.69,4854.23 L 4416.69,4860 L 4406.69,4853.59 L 4406.69,4254.23 L 4426.69,4265.77 L 4426.69,4854.23 Z " />
<path stroke="transparent" fill="#000000" transform="matrix(0.0833333 0 0 0.0833333 -95.25 -132.167)" d="M 4936.31,5148.45 L 4936.31,5160 L 4922.65,5163.66 L 4417.25,4871.87 L 4416.69,4860 L 4426.69,4854.23 L 4936.31,5148.45 Z " />
<path stroke="transparent" fill="#000000" transform="matrix(0.0833333 0 0 0.0833333 -95.25 -132.167)" d="M 5445.92,4854.23 L 5455.92,4860 L 5455.92,4871.55 L 4949.97,5163.66 L 4936.31,5160 L 4936.31,5148.45 L 5445.92,4854.23 Z " />
<path stroke="transparent" fill="#000000" transform="matrix(0.0833333 0 0 0.0833333 -95.25 -132.167)" d="M 5465.92,4854.23 L 5455.92,4860 L 5445.92,4854.23 L 5445.92,4265.77 L 5455.92,4260 L 5465.92,4265.77 L 5465.92,4854.23 Z " />
<path stroke="transparent" fill="#000000" transform="matrix(0.0833333 0 0 0.0833333 -95.25 -132.167)" d="M 5975.54,5148.45 L 5975.54,5171.55 L 5455.92,4871.55 L 5455.92,4860 L 5465.92,4854.23 L 5975.54,5148.45 Z " />
<path stroke="transparent" fill="#000000" transform="matrix(0.0833333 0 0 0.0833333 -95.25 -132.167)" d="M 6485.15,4854.23 L 6505.15,4865.77 L 5975.54,5171.55 L 5975.54,5148.45 L 6485.15,4854.23 Z " />
<path stroke="transparent" fill="#000000" transform="matrix(0.0833333 0 0 0.0833333 -95.25 -132.167)" d="M 6485.15,4265.77 L 6495.15,4260 L 6505.15,4265.77 L 6505.15,4865.77 L 6485.15,4854.23 L 6485.15,4265.77 Z " />
<path stroke="transparent" fill="#000000" transform="matrix(0.0833333 0 0 0.0833333 -95.25 -132.167)" d="M 5975.54,3971.55 L 5975.54,3960 L 5985.54,3954.23 L 6483.64,4241.8 L 6495.15,4260 L 6485.15,4265.77 L 5975.54,3971.55 Z " />
<path stroke="transparent" fill="#000000" transform="matrix(0.0833333 0 0 0.0833333 -95.25 -132.167)" d="M 5965.54,3954.23 L 5975.54,3960 L 5975.54,3971.55 L 5465.92,4265.77 L 5455.92,4260 L 5467.44,4241.8 L 5965.54,3954.23 Z " />
<path stroke="transparent" fill="#000000" transform="matrix(0.0833333 0 0 0.0833333 -95.25 -132.167)" d="M 5965.54,3354.23 L 5985.54,3365.77 L 5985.54,3954.23 L 5975.54,3960 L 5965.54,3954.23 L 5965.54,3354.23 Z " />
<path stroke="transparent" fill="#000000" transform="matrix(0.0833333 0 0 0.0833333 -95.25 -132.167)" d="M 6495.15,3048.45 L 6495.15,3071.55 L 5985.54,3365.77 L 5965.54,3354.23 L 6495.15,3048.45 Z " />
<path stroke="transparent" fill="#000000" transform="matrix(0.0833333 0 0 0.0833333 -95.25 -132.167)" d="M 7014.77,3348.45 L 7014.77,3360 L 7004.77,3365.77 L 6495.15,3071.55 L 6495.15,3048.45 L 7014.77,3348.45 Z " />
<path stroke="transparent" fill="#000000" transform="matrix(0.0833333 0 0 0.0833333 -95.25 -132.167)" d="M 6947.77,3392.91 L 6937.77,3410.23 L 6490.15,3151.8 L 6500.15,3134.48 L 6947.77,3392.91 Z " />
<path stroke="transparent" fill="#000000" transform="matrix(0.0833333 0 0 0.0833333 -95.25 -132.167)" d="M 7024.77,3954.23 L 7014.77,3960 L 7004.77,3954.23 L 7004.77,3365.77 L 7014.77,3360 L 7024.77,3365.77 L 7024.77,3954.23 Z " />
<path stroke="transparent" fill="#000000" transform="matrix(0.0833333 0 0 0.0833333 -95.25 -132.167)" d="M 7004.77,3954.23 L 7014.77,3960 L 7014.77,3971.55 L 6505.15,4265.77 L 6495.15,4260 L 6506.67,4241.8 L 7004.77,3954.23 Z " />
<path stroke="transparent" fill="#000000" transform="matrix(0.0833333 0 0 0.0833333 -95.25 -132.167)" d="M 7534.38,4248.45 L 7534.38,4271.55 L 7014.77,3971.55 L 7014.77,3960 L 7024.77,3954.23 L 7534.38,4248.45 Z " />
<path stroke="transparent" fill="#000000" transform="matrix(0.0833333 0 0 0.0833333 -95.25 -132.167)" d="M 8044,3954.23 L 8064,3965.77 L 7534.38,4271.55 L 7534.38,4248.45 L 8044,3954.23 Z " />
<path stroke="transparent" fill="#000000" transform="matrix(0.0833333 0 0 0.0833333 -95.25 -132.167)" d="M 8044,3365.77 L 8054,3360 L 8064,3378.39 L 8064,3965.77 L 8044,3954.23 L 8044,3365.77 Z " />
<path stroke="transparent" fill="#000000" transform="matrix(0.0833333 0 0 0.0833333 -95.25 -132.167)" d="M 7534.38,3071.55 L 7534.38,3060 L 7544.38,3054.23 L 8054,3348.45 L 8054,3360 L 8044,3365.77 L 7534.38,3071.55 Z " />
<path stroke="transparent" fill="#000000" transform="matrix(0.0833333 0 0 0.0833333 -95.25 -132.167)" d="M 7512.43,3061.13 L 7534.38,3060 L 7534.38,3071.55 L 7024.77,3365.77 L 7014.77,3360 L 7014.77,3348.45 L 7512.43,3061.13 Z " />
<path stroke="transparent" fill="#000000" transform="matrix(0.0833333 0 0 0.0833333 -95.25 -132.167)" d="M 7524.38,2454.23 L 7544.38,2465.77 L 7544.38,3054.23 L 7534.38,3060 L 7524.38,3040.43 L 7524.38,2454.23 Z " />
<path stroke="transparent" fill="#000000" transform="matrix(0.0833333 0 0 0.0833333 -95.25 -132.167)" d="M 8040.34,2156.34 L 8054,2160 L 8054,2171.55 L 7544.38,2465.77 L 7524.38,2454.23 L 8040.34,2156.34 Z " />
<path stroke="transparent" fill="#000000" transform="matrix(0.0833333 0 0 0.0833333 -95.25 -132.167)" d="M 8583.61,2454.23 L 8563.61,2465.77 L 8054,2171.55 L 8054,2160 L 8067.66,2156.34 L 8583.61,2454.23 Z " />
<path stroke="transparent" fill="#000000" transform="matrix(0.0833333 0 0 0.0833333 -95.25 -132.167)" d="M 8583.61,3065.77 L 8563.61,3054.23 L 8563.61,2465.77 L 8583.61,2454.23 L 8583.61,3065.77 Z " />
<path stroke="transparent" fill="#000000" transform="matrix(0.0833333 0 0 0.0833333 -95.25 -132.167)" d="M 8563.61,3054.23 L 8583.61,3065.77 L 8074.93,3359.46 L 8054,3360 L 8054,3348.45 L 8563.61,3054.23 Z " />
<path stroke="transparent" fill="#000000" transform="matrix(0.0833333 0 0 0.0833333 -95.25 -132.167)" d="M 7745.34,1645.38 L 7762.66,1635.38 L 8054,2140 L 8054,2160 L 8040.34,2156.34 L 7745.34,1645.38 Z " />
<path stroke="transparent" fill="#000000" transform="matrix(0.0833333 0 0 0.0833333 -95.25 -132.167)" d="M 8345.34,1635.38 L 8362.66,1645.38 L 8067.66,2156.34 L 8054,2160 L 8054,2140 L 8345.34,1635.38 Z " />
<path stroke="transparent" fill="#000000" transform="matrix(0.0833333 0 0 0.0833333 -95.25 -132.167)" d="M 8936.62,3798.87 L 8836.55,3879.74 L 8064,3378.39 L 8054,3360 L 8074.93,3359.46 L 8936.62,3798.87 Z " />
<path stroke="transparent" fill="#000000" transform="matrix(0.0833333 0 0 0.0833333 -95.25 -132.167)" d="M 8931.38,4334.83 L 8911.38,4334.83 L 8911.38,3819.22 L 8931.38,3819.22 L 8931.38,4334.83 Z " />
<path stroke="transparent" fill="#000000" transform="matrix(0.0833333 0 0 0.0833333 -95.25 -132.167)" d="M 8859.38,4334.83 L 8839.38,4334.83 L 8839.38,3819.22 L 8859.38,3819.22 L 8859.38,4334.83 Z " />
<path stroke="transparent" fill="#000000" transform="matrix(0.0833333 0 0 0.0833333 -95.25 -132.167)" d="M 9300.4,3588.85 L 9310.4,3606.17 L 8836.55,3879.74 L 8936.62,3798.87 L 9300.4,3588.85 Z " />
<path stroke="transparent" fill="#000000" transform="matrix(0.0833333 0 0 0.0833333 -95.25 -132.167)" d="M 8511,4154.57 L 8451,4258.49 L 8434.81,4246.52 L 8492.54,4146.54 L 8511,4154.57 Z " />
<path stroke="transparent" fill="#000000" transform="matrix(0.0833333 0 0 0.0833333 -95.25 -132.167)" d="M 8455.74,4130.54 L 8402.56,4222.65 L 8386.38,4210.68 L 8437.28,4122.51 L 8455.74,4130.54 Z " />
<path stroke="transparent" fill="#000000" transform="matrix(0.0833333 0 0 0.0833333 -95.25 -132.167)" d="M 8400.49,4106.51 L 8354.13,4186.82 L 8337.94,4174.84 L 8382.03,4098.48 L 8400.49,4106.51 Z " />
<path stroke="transparent" fill="#000000" transform="matrix(0.0833333 0 0 0.0833333 -95.25 -132.167)" d="M 8345.24,4082.48 L 8305.69,4150.98 L 8289.51,4139.01 L 8326.78,4074.45 L 8345.24,4082.48 Z " />
<path stroke="transparent" fill="#000000" transform="matrix(0.0833333 0 0 0.0833333 -95.25 -132.167)" d="M 8289.99,4058.45 L 8257.26,4115.14 L 8241.07,4103.17 L 8271.53,4050.43 L 8289.99,4058.45 Z " />
<path stroke="transparent" fill="#000000" transform="matrix(0.0833333 0 0 0.0833333 -95.25 -132.167)" d="M 8234.73,4034.43 L 8208.82,4079.31 L 8192.64,4067.34 L 8216.27,4026.4 L 8234.73,4034.43 Z " />
<path stroke="transparent" fill="#000000" transform="matrix(0.0833333 0 0 0.0833333 -95.25 -132.167)" d="M 8179.48,4010.4 L 8160.39,4043.47 L 8144.2,4031.5 L 8161.02,4002.37 L 8179.48,4010.4 Z " />
<path stroke="transparent" fill="#000000" transform="matrix(0.0833333 0 0 0.0833333 -95.25 -132.167)" d="M 8124.23,3986.37 L 8111.95,4007.64 L 8095.77,3995.66 L 8105.77,3978.34 L 8124.23,3986.37 Z " />
<path stroke="transparent" fill="#000000" transform="matrix(0.0833333 0 0 0.0833333 -95.25 -132.167)" d="M 7074.77,4560 L 6954.77,4560 L 6956.6,4540 L 7072.94,4540 L 7074.77,4560 Z " />
<path stroke="transparent" fill="#000000" transform="matrix(0.0833333 0 0 0.0833333 -95.25 -132.167)" d="M 7069.42,4501.56 L 6960.12,4501.56 L 6961.95,4481.56 L 7067.59,4481.56 L 7069.42,4501.56 Z " />
<path stroke="transparent" fill="#000000" transform="matrix(0.0833333 0 0 0.0833333 -95.25 -132.167)" d="M 7064.06,4443.11 L 6965.47,4443.11 L 6967.3,4423.11 L 7062.23,4423.11 L 7064.06,4443.11 Z " />
<path stroke="transparent" fill="#000000" transform="matrix(0.0833333 0 0 0.0833333 -95.25 -132.167)" d="M 7058.71,4384.67 L 6970.82,4384.67 L 6972.66,4364.67 L 7056.88,4364.67 L 7058.71,4384.67 Z " />
<path stroke="transparent" fill="#000000" transform="matrix(0.0833333 0 0 0.0833333 -95.25 -132.167)" d="M 7053.36,4326.22 L 6976.18,4326.22 L 6978.01,4306.22 L 7051.53,4306.22 L 7053.36,4326.22 Z " />
<path stroke="transparent" fill="#000000" transform="matrix(0.0833333 0 0 0.0833333 -95.25 -132.167)" d="M 7048.01,4267.78 L 6981.53,4267.78 L 6983.36,4247.78 L 7046.18,4247.78 L 7048.01,4267.78 Z " />
<path stroke="transparent" fill="#000000" transform="matrix(0.0833333 0 0 0.0833333 -95.25 -132.167)" d="M 7042.66,4209.33 L 6986.88,4209.33 L 6988.71,4189.33 L 7040.82,4189.33 L 7042.66,4209.33 Z " />
<path stroke="transparent" fill="#000000" transform="matrix(0.0833333 0 0 0.0833333 -95.25 -132.167)" d="M 7037.3,4150.89 L 6992.23,4150.89 L 6994.06,4130.89 L 7035.47,4130.89 L 7037.3,4150.89 Z " />
<path stroke="transparent" fill="#000000" transform="matrix(0.0833333 0 0 0.0833333 -95.25 -132.167)" d="M 7031.95,4092.44 L 6997.59,4092.44 L 6999.42,4072.44 L 7030.12,4072.44 L 7031.95,4092.44 Z " />
<path stroke="transparent" fill="#000000" transform="matrix(0.0833333 0 0 0.0833333 -95.25 -132.167)" d="M 7026.6,4034 L 7002.94,4034 L 7004.77,4014 L 7024.77,4014 L 7026.6,4034 Z " />
<path stroke="transparent" fill="#000000" transform="matrix(0.0833333 0 0 0.0833333 -95.25 -132.167)" d="M 6435.15,3660 L 6555.15,3660 L 6506.67,4241.8 L 6495.15,4260 L 6483.64,4241.8 L 6435.15,3660 Z " />
<path stroke="transparent" fill="#000000" transform="matrix(0.0833333 0 0 0.0833333 -95.25 -132.167)" d="M 5244.97,5674.62 L 5227.65,5684.62 L 4936.31,5180 L 4936.31,5160 L 4949.97,5163.66 L 5244.97,5674.62 Z " />
<path stroke="transparent" fill="#000000" transform="matrix(0.0833333 0 0 0.0833333 -95.25 -132.167)" d="M 4644.97,5684.62 L 4627.65,5674.62 L 4922.65,5163.66 L 4936.31,5160 L 4936.31,5180 L 4644.97,5684.62 Z " />
<path stroke="transparent" fill="#000000" transform="matrix(0.0833333 0 0 0.0833333 -95.25 -132.167)" d="M 4019.7,5158.49 L 3959.7,5054.57 L 4406.69,4853.59 L 4416.69,4860 L 4417.25,4871.87 L 4019.7,5158.49 Z " />
<path stroke="transparent" fill="#000000" transform="matrix(0.0833333 0 0 0.0833333 -95.25 -132.167)" d="M 3495.46,5993.77 L 3475.46,5982.23 L 3475.46,5393.77 L 3485.46,5388 L 3495.46,5393.89 L 3495.46,5993.77 Z " />
<text x="0" y="0" stroke="transparent" fill="#000000" transform="matrix(0.0833333 0 0 0.0833333 232.006 398.333)" style="font:normal normal normal 200px 'Arial'" >
OH</text>
<text x="0" y="0" stroke="transparent" fill="#000000" transform="matrix(0.0833333 0 0 0.0833333 145.404 448.333)" style="font:normal normal normal 200px 'Arial'" >
OH</text>
<text x="0" y="0" stroke="transparent" fill="#000000" transform="matrix(0.0833333 0 0 0.0833333 46.7652 398.333)" style="font:normal normal normal 200px 'Arial'" >
HO</text>
<text x="0" y="0" stroke="transparent" fill="#000000" transform="matrix(0.0833333 0 0 0.0833333 3.46396 323.333)" style="font:normal normal normal 200px 'Arial'" >
HO</text>
<text x="0" y="0" stroke="transparent" fill="#000000" transform="matrix(0.0833333 0 0 0.0833333 145.404 298.333)" style="font:normal normal normal 200px 'Arial'" >
O</text>
<text x="0" y="0" stroke="transparent" fill="#000000" transform="matrix(0.0833333 0 0 0.0833333 353.41 329.333)" style="font:normal normal normal 200px 'Arial'" >
H</text>
<path stroke="transparent" fill="#000000" transform="matrix(0.0833333 0 0 0.0833333 -95.25 -132.167)" d="M 5515.92,5357.33 L 5395.92,5357.33 L 5398.18,5337.33 L 5513.67,5337.33 L 5515.92,5357.33 Z " />
<path stroke="transparent" fill="#000000" transform="matrix(0.0833333 0 0 0.0833333 -95.25 -132.167)" d="M 5509.1,5296.86 L 5402.74,5296.86 L 5405,5276.86 L 5506.85,5276.86 L 5509.1,5296.86 Z " />
<path stroke="transparent" fill="#000000" transform="matrix(0.0833333 0 0 0.0833333 -95.25 -132.167)" d="M 5502.28,5236.39 L 5409.56,5236.39 L 5411.82,5216.39 L 5500.03,5216.39 L 5502.28,5236.39 Z " />
<path stroke="transparent" fill="#000000" transform="matrix(0.0833333 0 0 0.0833333 -95.25 -132.167)" d="M 5495.46,5175.92 L 5416.38,5175.92 L 5418.64,5155.92 L 5493.21,5155.92 L 5495.46,5175.92 Z " />
<path stroke="transparent" fill="#000000" transform="matrix(0.0833333 0 0 0.0833333 -95.25 -132.167)" d="M 5488.64,5115.45 L 5423.21,5115.45 L 5425.46,5095.45 L 5486.38,5095.45 L 5488.64,5115.45 Z " />
<path stroke="transparent" fill="#000000" transform="matrix(0.0833333 0 0 0.0833333 -95.25 -132.167)" d="M 5481.82,5054.98 L 5430.03,5054.98 L 5432.28,5034.98 L 5479.56,5034.98 L 5481.82,5054.98 Z " />
<path stroke="transparent" fill="#000000" transform="matrix(0.0833333 0 0 0.0833333 -95.25 -132.167)" d="M 5475,4994.51 L 5436.85,4994.51 L 5439.1,4974.51 L 5472.74,4974.51 L 5475,4994.51 Z " />
<path stroke="transparent" fill="#000000" transform="matrix(0.0833333 0 0 0.0833333 -95.25 -132.167)" d="M 5468.18,4934.04 L 5443.67,4934.04 L 5445.92,4914.04 L 5465.92,4914.04 L 5468.18,4934.04 Z " />
<text x="0" y="0" stroke="transparent" fill="#000000" transform="matrix(0.0833333 0 0 0.0833333 396.712 254.333)" style="font:normal normal normal 200px 'Arial'" >
H</text>
<path stroke="transparent" fill="#000000" transform="matrix(0.0833333 0 0 0.0833333 -95.25 -132.167)" d="M 6035.54,4457.33 L 5915.54,4457.33 L 5917.79,4437.33 L 6033.28,4437.33 L 6035.54,4457.33 Z " />
<path stroke="transparent" fill="#000000" transform="matrix(0.0833333 0 0 0.0833333 -95.25 -132.167)" d="M 6028.72,4396.86 L 5922.36,4396.86 L 5924.61,4376.86 L 6026.46,4376.86 L 6028.72,4396.86 Z " />
<path stroke="transparent" fill="#000000" transform="matrix(0.0833333 0 0 0.0833333 -95.25 -132.167)" d="M 6021.9,4336.39 L 5929.18,4336.39 L 5931.44,4316.39 L 6019.64,4316.39 L 6021.9,4336.39 Z " />
<path stroke="transparent" fill="#000000" transform="matrix(0.0833333 0 0 0.0833333 -95.25 -132.167)" d="M 6015.08,4275.92 L 5936,4275.92 L 5938.26,4255.92 L 6012.82,4255.92 L 6015.08,4275.92 Z " />
<path stroke="transparent" fill="#000000" transform="matrix(0.0833333 0 0 0.0833333 -95.25 -132.167)" d="M 6008.26,4215.45 L 5942.82,4215.45 L 5945.08,4195.45 L 6006,4195.45 L 6008.26,4215.45 Z " />
<path stroke="transparent" fill="#000000" transform="matrix(0.0833333 0 0 0.0833333 -95.25 -132.167)" d="M 6001.44,4154.98 L 5949.64,4154.98 L 5951.9,4134.98 L 5999.18,4134.98 L 6001.44,4154.98 Z " />
<path stroke="transparent" fill="#000000" transform="matrix(0.0833333 0 0 0.0833333 -95.25 -132.167)" d="M 5994.61,4094.51 L 5956.46,4094.51 L 5958.72,4074.51 L 5992.36,4074.51 L 5994.61,4094.51 Z " />
<path stroke="transparent" fill="#000000" transform="matrix(0.0833333 0 0 0.0833333 -95.25 -132.167)" d="M 5987.79,4034.04 L 5963.28,4034.04 L 5965.54,4014.04 L 5985.54,4014.04 L 5987.79,4034.04 Z " />
<text x="0" y="0" stroke="transparent" fill="#000000" transform="matrix(0.0833333 0 0 0.0833333 483.314 104.333)" style="font:normal normal normal 200px 'Arial'" >
H</text>
<path stroke="transparent" fill="#000000" transform="matrix(0.0833333 0 0 0.0833333 -95.25 -132.167)" d="M 7094.9,2875.54 L 7154.9,2771.62 L 7524.38,3040.43 L 7534.38,3060 L 7512.43,3061.13 L 7094.9,2875.54 Z " />
<path stroke="transparent" fill="#000000" transform="matrix(0.0833333 0 0 0.0833333 -95.25 -132.167)" d="M 3791.82,5206.87 L 3801.51,5224.37 L 3495.46,5393.89 L 3485.46,5388 L 3485.56,5376.51 L 3791.82,5206.87 Z " />
</svg>
