<?xml version="1.0" standalone="no" ?>
<!DOCTYPE svg PUBLIC "-//W3C//DTD SVG 1.1//EN" "http://www.w3.org/Graphics/SVG/1.1/DTD/svg11.dtd">
<svg width="303px" height="334px" viewBox="0 0 303 334" style="background-color: #ffffff00" xmlns="http://www.w3.org/2000/svg" xmlns:xlink="http://www.w3.org/1999/xlink" version="1.1" >
<text x="0" y="0" stroke="transparent" fill="#000000" transform="matrix(0.0833333 0 0 0.0833333 118.742 36.0421)" style="font:normal normal normal 200px 'Arial'" >
O</text>
<text x="0" y="0" stroke="transparent" fill="#000000" transform="matrix(0.0833333 0 0 0.0833333 205.346 86.0432)" style="font:normal normal normal 200px 'Arial'" >
O</text>
<text x="0" y="0" stroke="transparent" fill="#000000" transform="matrix(0.0833333 0 0 0.0833333 27.8843 245.593)" style="font:normal normal normal 200px 'Arial'" >
O</text>
<text x="0" y="0" stroke="transparent" fill="#000000" transform="matrix(0.0833333 0 0 0.0833333 27.8851 326.493)" style="font:normal normal normal 200px 'Arial'" >
O</text>
<text x="0" y="0" stroke="transparent" fill="#000000" transform="matrix(0.0833333 0 0 0.0833333 249.146 261.041)" style="font:normal normal normal 200px 'Arial'" >
N</text>
<path stroke="transparent" fill="#000000" transform="matrix(0.0833333 0 0 0.0833333 -284.208 -208)" d="M 5011.02,2805.69 L 5001.02,2788.37 L 5428.02,2541.85 L 5438.02,2559.17 L 5011.02,2805.69 Z " />
<path stroke="transparent" fill="#000000" transform="matrix(0.0833333 0 0 0.0833333 -284.208 -208)" d="M 4923.41,3444.73 L 4913.41,3450.51 L 4903.41,3444.73 L 4903.4,2970.34 L 4923.4,2970.34 L 4923.41,3444.73 Z " />
<path stroke="transparent" fill="#000000" transform="matrix(0.0833333 0 0 0.0833333 -284.208 -208)" d="M 4403.79,3756.27 L 4383.79,3744.72 L 4903.41,3444.73 L 4913.41,3450.51 L 4913.41,3462.05 L 4403.79,3756.27 Z " />
<path stroke="transparent" fill="#000000" transform="matrix(0.0833333 0 0 0.0833333 -284.208 -208)" d="M 4470.79,3800.73 L 4460.79,3783.41 L 4908.41,3524.98 L 4918.41,3542.3 L 4470.79,3800.73 Z " />
<path stroke="transparent" fill="#000000" transform="matrix(0.0833333 0 0 0.0833333 -284.208 -208)" d="M 4403.74,4344.7 L 4383.74,4356.24 L 4383.79,3744.72 L 4403.79,3756.27 L 4403.74,4344.7 Z " />
<path stroke="transparent" fill="#000000" transform="matrix(0.0833333 0 0 0.0833333 -284.208 -208)" d="M 4913.37,4638.93 L 4913.37,4650.48 L 4903.37,4656.25 L 4383.74,4356.24 L 4403.74,4344.7 L 4913.37,4638.93 Z " />
<path stroke="transparent" fill="#000000" transform="matrix(0.0833333 0 0 0.0833333 -284.208 -208)" d="M 4918.37,4558.67 L 4908.37,4576 L 4460.75,4317.56 L 4470.75,4300.24 L 4918.37,4558.67 Z " />
<path stroke="transparent" fill="#000000" transform="matrix(0.0833333 0 0 0.0833333 -284.208 -208)" d="M 5422.99,4344.71 L 5432.99,4350.48 L 5432.99,4362.03 L 4923.37,4656.25 L 4913.37,4650.48 L 4913.37,4638.93 L 5422.99,4344.71 Z " />
<path stroke="transparent" fill="#000000" transform="matrix(0.0833333 0 0 0.0833333 -284.208 -208)" d="M 5423.03,3756.29 L 5433.03,3750.51 L 5443.03,3756.29 L 5442.99,4344.71 L 5432.99,4350.48 L 5422.99,4344.71 L 5423.03,3756.29 Z " />
<path stroke="transparent" fill="#000000" transform="matrix(0.0833333 0 0 0.0833333 -284.208 -208)" d="M 5351.03,3792.08 L 5371.03,3792.08 L 5371,4308.91 L 5351,4308.91 L 5351.03,3792.08 Z " />
<path stroke="transparent" fill="#000000" transform="matrix(0.0833333 0 0 0.0833333 -284.208 -208)" d="M 5433.03,3738.97 L 5433.03,3750.51 L 5423.03,3756.29 L 4913.41,3462.05 L 4913.41,3450.51 L 4923.41,3444.73 L 5433.03,3738.97 Z " />
<path stroke="transparent" fill="#000000" transform="matrix(0.0833333 0 0 0.0833333 -284.208 -208)" d="M 5848.05,3499.36 L 5858.05,3516.68 L 5443.03,3756.29 L 5433.03,3750.51 L 5433.03,3738.97 L 5848.05,3499.36 Z " />
<path stroke="transparent" fill="#000000" transform="matrix(0.0833333 0 0 0.0833333 -284.208 -208)" d="M 5942.65,2850.52 L 5962.65,2850.52 L 5962.65,3345.35 L 5942.65,3345.35 L 5942.65,2850.52 Z " />
<path stroke="transparent" fill="#000000" transform="matrix(0.0833333 0 0 0.0833333 -284.208 -208)" d="M 5962.62,4644.71 L 5942.62,4656.26 L 5432.99,4362.03 L 5432.99,4350.48 L 5442.99,4344.71 L 5962.62,4644.71 Z " />
<path stroke="transparent" fill="#000000" transform="matrix(0.0833333 0 0 0.0833333 -284.208 -208)" d="M 5962.62,5244.71 L 5952.62,5250.49 L 5942.62,5244.71 L 5942.62,4656.26 L 5962.62,4644.71 L 5962.62,5244.71 Z " />
<path stroke="transparent" fill="#000000" transform="matrix(0.0833333 0 0 0.0833333 -284.208 -208)" d="M 5443.01,5556.26 L 5433.01,5550.48 L 5433.01,5538.93 L 5942.62,5244.71 L 5952.62,5250.49 L 5952.62,5262.04 L 5443.01,5556.26 Z " />
<path stroke="transparent" fill="#000000" transform="matrix(0.0833333 0 0 0.0833333 -284.208 -208)" d="M 5442.98,6144.76 L 5432.98,6150.53 L 5422.98,6144.76 L 5423.01,5556.26 L 5433.01,5550.48 L 5443.01,5556.26 L 5442.98,6144.76 Z " />
<path stroke="transparent" fill="#000000" transform="matrix(0.0833333 0 0 0.0833333 -284.208 -208)" d="M 5370.98,6108.96 L 5350.98,6108.96 L 5351,5592.05 L 5371,5592.05 L 5370.98,6108.96 Z " />
<path stroke="transparent" fill="#000000" transform="matrix(0.0833333 0 0 0.0833333 -284.208 -208)" d="M 4913.36,6462.07 L 4913.36,6438.98 L 5422.98,6144.76 L 5432.98,6150.53 L 5432.98,6162.08 L 4913.36,6462.07 Z " />
<path stroke="transparent" fill="#000000" transform="matrix(0.0833333 0 0 0.0833333 -284.208 -208)" d="M 4392.59,6161.41 L 4393.74,6150.52 L 4403.74,6144.75 L 4913.36,6438.98 L 4913.36,6462.07 L 4392.59,6161.41 Z " />
<path stroke="transparent" fill="#000000" transform="matrix(0.0833333 0 0 0.0833333 -284.208 -208)" d="M 4460.74,6117.61 L 4470.74,6100.29 L 4918.36,6358.73 L 4908.36,6376.05 L 4460.74,6117.61 Z " />
<path stroke="transparent" fill="#000000" transform="matrix(0.0833333 0 0 0.0833333 -284.208 -208)" d="M 4383.73,5557.79 L 4393.73,5550.52 L 4403.73,5556.29 L 4403.74,6144.75 L 4393.74,6150.52 L 4383.74,6143.25 L 4383.73,5557.79 Z " />
<path stroke="transparent" fill="#000000" transform="matrix(0.0833333 0 0 0.0833333 -284.208 -208)" d="M 4903.38,5244.7 L 4913.38,5250.48 L 4913.38,5262.02 L 4403.73,5556.29 L 4393.73,5550.52 L 4392.59,5539.63 L 4903.38,5244.7 Z " />
<path stroke="transparent" fill="#000000" transform="matrix(0.0833333 0 0 0.0833333 -284.208 -208)" d="M 4908.38,5324.96 L 4918.38,5342.28 L 4470.74,5600.75 L 4460.74,5583.43 L 4908.38,5324.96 Z " />
<path stroke="transparent" fill="#000000" transform="matrix(0.0833333 0 0 0.0833333 -284.208 -208)" d="M 4913.38,5262.02 L 4913.38,5250.48 L 4923.38,5244.7 L 5433.01,5538.93 L 5433.01,5550.48 L 5423.01,5556.26 L 4913.38,5262.02 Z " />
<path stroke="transparent" fill="#000000" transform="matrix(0.0833333 0 0 0.0833333 -284.208 -208)" d="M 4923.38,5244.7 L 4913.38,5250.48 L 4903.38,5244.7 L 4903.37,4656.25 L 4913.37,4650.48 L 4923.37,4656.25 L 4923.38,5244.7 Z " />
<path stroke="transparent" fill="#000000" transform="matrix(0.0833333 0 0 0.0833333 -284.208 -208)" d="M 3926.82,5409.33 L 3933,5390.31 L 4392.59,5539.63 L 4393.73,5550.52 L 4383.73,5557.79 L 3926.82,5409.33 Z " />
<path stroke="transparent" fill="#000000" transform="matrix(0.0833333 0 0 0.0833333 -284.208 -208)" d="M 3482.81,5850.53 L 3458.09,5850.53 L 3744.49,5456.33 L 3760.67,5468.08 L 3482.81,5850.53 Z " />
<path stroke="transparent" fill="#000000" transform="matrix(0.0833333 0 0 0.0833333 -284.208 -208)" d="M 3768.47,6243.68 L 3752.29,6255.44 L 3458.09,5850.53 L 3482.81,5850.53 L 3768.47,6243.68 Z " />
<path stroke="transparent" fill="#000000" transform="matrix(0.0833333 0 0 0.0833333 -284.208 -208)" d="M 3928.07,6312.34 L 3921.89,6293.31 L 4383.74,6143.25 L 4393.74,6150.52 L 4392.59,6161.41 L 3928.07,6312.34 Z " />
<path stroke="transparent" fill="#000000" transform="matrix(0.0833333 0 0 0.0833333 -284.208 -208)" d="M 5952.61,6438.99 L 5952.61,6462.09 L 5432.98,6162.08 L 5432.98,6150.53 L 5442.98,6144.76 L 5952.61,6438.99 Z " />
<path stroke="transparent" fill="#000000" transform="matrix(0.0833333 0 0 0.0833333 -284.208 -208)" d="M 6462.26,6144.72 L 6482.26,6156.27 L 5952.61,6462.09 L 5952.61,6438.99 L 6462.26,6144.72 Z " />
<path stroke="transparent" fill="#000000" transform="matrix(0.0833333 0 0 0.0833333 -284.208 -208)" d="M 6462.25,5667.83 L 6482.25,5667.83 L 6482.26,6156.27 L 6462.26,6144.72 L 6462.25,5667.83 Z " />
<path stroke="transparent" fill="#000000" transform="matrix(0.0833333 0 0 0.0833333 -284.208 -208)" d="M 6373.47,5481.92 L 6363.47,5499.24 L 5952.62,5262.04 L 5952.62,5250.49 L 5962.62,5244.71 L 6373.47,5481.92 Z " />
<path stroke="transparent" fill="#000000" transform="matrix(0.0833333 0 0 0.0833333 -284.208 -208)" d="M 6986.87,5241.84 L 6996.87,5259.16 L 6581.03,5499.24 L 6571.03,5481.92 L 6986.87,5241.84 Z " />
</svg>
