<?xml version="1.0" standalone="no" ?>
<!DOCTYPE svg PUBLIC "-//W3C//DTD SVG 1.1//EN" "http://www.w3.org/Graphics/SVG/1.1/DTD/svg11.dtd">
<svg width="405px" height="275px" viewBox="0 0 405 275" style="background-color: #ffffff00" xmlns="http://www.w3.org/2000/svg" xmlns:xlink="http://www.w3.org/1999/xlink" version="1.1" >
<text x="0" y="0" stroke="transparent" fill="#000000" transform="matrix(0.0833333 0 0 0.0833333 48.8889 98.7758)" style="font:normal normal normal 200px 'Arial'" >
O</text>
<text x="0" y="0" stroke="transparent" fill="#000000" transform="matrix(0.0833333 0 0 0.0833333 160.743 17.9396)" style="font:normal normal normal 200px 'Arial'" >
O</text>
<text x="0" y="0" stroke="transparent" fill="#000000" transform="matrix(0.0833333 0 0 0.0833333 168.877 106.673)" style="font:normal normal normal 200px 'Arial'" >
O</text>
<text x="0" y="0" stroke="transparent" fill="#000000" transform="matrix(0.0833333 0 0 0.0833333 338.764 81.0546)" style="font:normal normal normal 200px 'Arial'" >
N</text>
<text x="0" y="0" stroke="transparent" fill="#000000" transform="matrix(0.0833333 0 0 0.0833333 350.8 74.5546)" style="font:normal normal normal 150px 'Arial'" >
+</text>
<text x="0" y="0" stroke="transparent" fill="#000000" transform="matrix(0.0833333 0 0 0.0833333 235.446 162.067)" style="font:normal normal normal 200px 'Arial'" >
O</text>
<text x="0" y="0" stroke="transparent" fill="#000000" transform="matrix(0.0833333 0 0 0.0833333 220.755 247.412)" style="font:normal normal normal 200px 'Arial'" >
O</text>
<text x="0" y="0" stroke="transparent" fill="#000000" transform="matrix(0.0833333 0 0 0.0833333 383.64 60.0547)" style="font:normal normal normal 200px 'Arial'" >
O</text>
<text x="0" y="0" stroke="transparent" fill="#000000" transform="matrix(0.0833333 0 0 0.0833333 396.64 53.5547)" style="font:normal normal normal 150px 'Arial'" >
-</text>
<text x="0" y="0" stroke="transparent" fill="#000000" transform="matrix(0.0833333 0 0 0.0833333 3.42258 169.867)" style="font:normal normal normal 200px 'Arial'" >
HO</text>
<path stroke="transparent" fill="#000000" transform="matrix(0.0833333 0 0 0.0833333 -233.875 -231)" d="M 4339.57,5457.49 L 4362.33,5461.41 L 4567.82,6018.98 L 4549.06,6025.89 L 4339.57,5457.49 Z " />
<path stroke="transparent" fill="#000000" transform="matrix(0.0833333 0 0 0.0833333 -233.875 -231)" d="M 4723.35,4996.26 L 4734.73,4998.22 L 4738.72,5009.05 L 4362.33,5461.41 L 4339.57,5457.49 L 4723.35,4996.26 Z " />
<path stroke="transparent" fill="#000000" transform="matrix(0.0833333 0 0 0.0833333 -233.875 -231)" d="M 4755.8,5069.83 L 4771.17,5082.62 L 4440.57,5479.95 L 4425.2,5467.16 L 4755.8,5069.83 Z " />
<path stroke="transparent" fill="#000000" transform="matrix(0.0833333 0 0 0.0833333 -233.875 -231)" d="M 4519.4,4442.87 L 4535.08,4427.6 L 4742.12,4989.34 L 4734.73,4998.22 L 4723.35,4996.26 L 4519.4,4442.87 Z " />
<path stroke="transparent" fill="#000000" transform="matrix(0.0833333 0 0 0.0833333 -233.875 -231)" d="M 3965.32,4221.66 L 3970,4212.76 L 3980.46,4206.17 L 4535.08,4427.6 L 4519.4,4442.87 L 3965.32,4221.66 Z " />
<path stroke="transparent" fill="#000000" transform="matrix(0.0833333 0 0 0.0833333 -233.875 -231)" d="M 3998.23,3630.7 L 4009.35,3614.07 L 4018.85,3621.98 L 3980.46,4206.17 L 3970,4212.76 L 3961.16,4194.82 L 3998.23,3630.7 Z " />
<path stroke="transparent" fill="#000000" transform="matrix(0.0833333 0 0 0.0833333 -233.875 -231)" d="M 3571.33,3841.09 L 3562.49,3823.15 L 4005.87,3604.64 L 4009.35,3614.07 L 3998.23,3630.7 L 3571.33,3841.09 Z " />
<path stroke="transparent" fill="#000000" transform="matrix(0.0833333 0 0 0.0833333 -233.875 -231)" d="M 3562.44,3952.35 L 3573.56,3935.73 L 3961.16,4194.82 L 3970,4212.76 L 3965.32,4221.66 L 3562.44,3952.35 Z " />
<path stroke="transparent" fill="#000000" transform="matrix(0.0833333 0 0 0.0833333 -233.875 -231)" d="M 4595.53,3455.03 L 4586.36,3477.99 L 4018.85,3621.98 L 4009.35,3614.07 L 4005.87,3604.64 L 4595.53,3455.03 Z " />
<path stroke="transparent" fill="#000000" transform="matrix(0.0833333 0 0 0.0833333 -233.875 -231)" d="M 4725.56,3005.28 L 4744.13,3012.7 L 4557.1,3481.16 L 4538.53,3473.75 L 4725.56,3005.28 Z " />
<path stroke="transparent" fill="#000000" transform="matrix(0.0833333 0 0 0.0833333 -233.875 -231)" d="M 4792.43,3031.98 L 4811,3039.39 L 4623.97,3507.86 L 4605.4,3500.44 L 4792.43,3031.98 Z " />
<path stroke="transparent" fill="#000000" transform="matrix(0.0833333 0 0 0.0833333 -233.875 -231)" d="M 4862.61,3878.55 L 4845.69,3889.22 L 4586.36,3477.99 L 4595.53,3455.03 L 4862.61,3878.55 Z " />
<path stroke="transparent" fill="#000000" transform="matrix(0.0833333 0 0 0.0833333 -233.875 -231)" d="M 5499.6,4065.21 L 5504.98,4086.43 L 5014.79,4002.08 L 5018.18,3982.37 L 5499.6,4065.21 Z " />
<path stroke="transparent" fill="#000000" transform="matrix(0.0833333 0 0 0.0833333 -233.875 -231)" d="M 5964.82,3698.63 L 5973.56,3704.47 L 5932.12,3749.86 L 5504.98,4086.43 L 5499.6,4065.21 L 5964.82,3698.63 Z " />
<path stroke="transparent" fill="#000000" transform="matrix(0.0833333 0 0 0.0833333 -233.875 -231)" d="M 6128.97,3117.38 L 6144.27,3136.8 L 5999.67,3648.83 L 5973.56,3704.47 L 5964.82,3698.63 L 6128.97,3117.38 Z " />
<path stroke="transparent" fill="#000000" transform="matrix(0.0833333 0 0 0.0833333 -233.875 -231)" d="M 6182.07,3194.27 L 6201.31,3199.71 L 6066.69,3676.41 L 6047.44,3670.98 L 6182.07,3194.27 Z " />
<path stroke="transparent" fill="#000000" transform="matrix(0.0833333 0 0 0.0833333 -233.875 -231)" d="M 6742.98,3093.4 L 6729.24,3113.95 L 6144.27,3136.8 L 6128.97,3117.38 L 6742.98,3093.4 Z " />
<path stroke="transparent" fill="#000000" transform="matrix(0.0833333 0 0 0.0833333 -233.875 -231)" d="M 6912.18,3552.32 L 6893.41,3559.24 L 6729.24,3113.95 L 6742.98,3093.4 L 6912.18,3552.32 Z " />
<path stroke="transparent" fill="#000000" transform="matrix(0.0833333 0 0 0.0833333 -233.875 -231)" d="M 6481.14,4043.77 L 6472.4,4037.93 L 6472.4,4025.19 L 6833.92,3740.39 L 6846.29,3756.1 L 6481.14,4043.77 Z " />
<path stroke="transparent" fill="#000000" transform="matrix(0.0833333 0 0 0.0833333 -233.875 -231)" d="M 5932.12,3749.86 L 5973.56,3704.47 L 5999.67,3648.83 L 6472.4,4025.19 L 6472.4,4037.93 L 6460.63,4042.8 L 5932.12,3749.86 Z " />
<path stroke="transparent" fill="#000000" transform="matrix(0.0833333 0 0 0.0833333 -233.875 -231)" d="M 6322.41,4605.91 L 6309.34,4615.38 L 6301.69,4605.67 L 6460.63,4042.8 L 6472.4,4037.93 L 6481.14,4043.77 L 6322.41,4605.91 Z " />
<path stroke="transparent" fill="#000000" transform="matrix(0.0833333 0 0 0.0833333 -233.875 -231)" d="M 6932.25,4629.24 L 6879.69,4743.86 L 6308.65,4625.42 L 6309.34,4615.38 L 6322.41,4605.91 L 6932.25,4629.24 Z " />
<path stroke="transparent" fill="#000000" transform="matrix(0.0833333 0 0 0.0833333 -233.875 -231)" d="M 7226.7,4188.76 L 7250.17,4189.64 L 6879.69,4743.86 L 6932.25,4629.24 L 7226.7,4188.76 Z " />
<path stroke="transparent" fill="#000000" transform="matrix(0.0833333 0 0 0.0833333 -233.875 -231)" d="M 7250.17,4189.64 L 7226.7,4188.76 L 7001.22,3789.04 L 7018.64,3779.21 L 7250.17,4189.64 Z " />
<path stroke="transparent" fill="#000000" transform="matrix(0.0833333 0 0 0.0833333 -233.875 -231)" d="M 5818.11,4644.58 L 5817.33,4624.59 L 6301.69,4605.67 L 6309.34,4615.38 L 6309.73,4625.37 L 5818.11,4644.58 Z " />
<path stroke="transparent" fill="#000000" transform="matrix(0.0833333 0 0 0.0833333 -233.875 -231)" d="M 5329.99,5110.8 L 5322.01,5089.13 L 5625.71,4724.26 L 5641.08,4737.06 L 5329.99,5110.8 Z " />
<path stroke="transparent" fill="#000000" transform="matrix(0.0833333 0 0 0.0833333 -233.875 -231)" d="M 5322.01,5089.13 L 5329.99,5110.8 L 4738.72,5009.05 L 4734.73,4998.22 L 4742.12,4989.34 L 5322.01,5089.13 Z " />
<path stroke="transparent" fill="#000000" transform="matrix(0.0833333 0 0 0.0833333 -233.875 -231)" d="M 5540.01,5547.44 L 5521.24,5554.36 L 5343.21,5071.47 L 5361.97,5064.56 L 5540.01,5547.44 Z " />
<path stroke="transparent" fill="#000000" transform="matrix(0.0833333 0 0 0.0833333 -233.875 -231)" d="M 5472.45,5572.35 L 5453.69,5579.27 L 5275.65,5096.37 L 5294.41,5089.45 L 5472.45,5572.35 Z " />
<path stroke="transparent" fill="#000000" transform="matrix(0.0833333 0 0 0.0833333 -233.875 -231)" d="M 7380.73,3453.36 L 7389.13,3471.51 L 7130.52,3591.2 L 7122.12,3573.05 L 7380.73,3453.36 Z " />
<path stroke="transparent" fill="#000000" transform="matrix(0.0833333 0 0 0.0833333 -233.875 -231)" d="M 3745.56,3071.84 L 3858.16,3030.34 L 3863.35,3049.74 L 3754.19,3089.97 L 3745.56,3071.84 Z " />
<path stroke="transparent" fill="#000000" transform="matrix(0.0833333 0 0 0.0833333 -233.875 -231)" d="M 3770.79,3124.82 L 3873.34,3087.02 L 3878.54,3106.42 L 3779.42,3142.95 L 3770.79,3124.82 Z " />
<path stroke="transparent" fill="#000000" transform="matrix(0.0833333 0 0 0.0833333 -233.875 -231)" d="M 3796.02,3177.8 L 3888.53,3143.7 L 3893.72,3163.1 L 3804.65,3195.93 L 3796.02,3177.8 Z " />
<path stroke="transparent" fill="#000000" transform="matrix(0.0833333 0 0 0.0833333 -233.875 -231)" d="M 3821.25,3230.78 L 3903.71,3200.38 L 3908.91,3219.78 L 3829.88,3248.91 L 3821.25,3230.78 Z " />
<path stroke="transparent" fill="#000000" transform="matrix(0.0833333 0 0 0.0833333 -233.875 -231)" d="M 3846.48,3283.76 L 3918.9,3257.06 L 3924.1,3276.46 L 3855.11,3301.89 L 3846.48,3283.76 Z " />
<path stroke="transparent" fill="#000000" transform="matrix(0.0833333 0 0 0.0833333 -233.875 -231)" d="M 3871.71,3336.73 L 3934.08,3313.74 L 3939.28,3333.14 L 3880.34,3354.87 L 3871.71,3336.73 Z " />
<path stroke="transparent" fill="#000000" transform="matrix(0.0833333 0 0 0.0833333 -233.875 -231)" d="M 3896.94,3389.71 L 3949.27,3370.42 L 3954.47,3389.82 L 3905.57,3407.84 L 3896.94,3389.71 Z " />
<path stroke="transparent" fill="#000000" transform="matrix(0.0833333 0 0 0.0833333 -233.875 -231)" d="M 3922.17,3442.69 L 3964.46,3427.1 L 3969.65,3446.5 L 3930.8,3460.82 L 3922.17,3442.69 Z " />
<path stroke="transparent" fill="#000000" transform="matrix(0.0833333 0 0 0.0833333 -233.875 -231)" d="M 3947.4,3495.67 L 3979.64,3483.78 L 3984.84,3503.18 L 3956.03,3513.8 L 3947.4,3495.67 Z " />
<path stroke="transparent" fill="#000000" transform="matrix(0.0833333 0 0 0.0833333 -233.875 -231)" d="M 3972.62,3548.65 L 3994.83,3540.46 L 4000.03,3559.86 L 3981.26,3566.78 L 3972.62,3548.65 Z " />
<path stroke="transparent" fill="#000000" transform="matrix(0.0833333 0 0 0.0833333 -233.875 -231)" d="M 3748.97,4715.63 L 3645.04,4655.63 L 3656.8,4639.33 L 3757.2,4697.29 L 3748.97,4715.63 Z " />
<path stroke="transparent" fill="#000000" transform="matrix(0.0833333 0 0 0.0833333 -233.875 -231)" d="M 3773.27,4661.54 L 3679.73,4607.53 L 3691.49,4591.23 L 3781.51,4643.2 L 3773.27,4661.54 Z " />
<path stroke="transparent" fill="#000000" transform="matrix(0.0833333 0 0 0.0833333 -233.875 -231)" d="M 3797.58,4607.44 L 3714.43,4559.43 L 3726.19,4543.13 L 3805.82,4589.1 L 3797.58,4607.44 Z " />
<path stroke="transparent" fill="#000000" transform="matrix(0.0833333 0 0 0.0833333 -233.875 -231)" d="M 3821.89,4553.34 L 3749.12,4511.33 L 3760.88,4495.03 L 3830.13,4535.01 L 3821.89,4553.34 Z " />
<path stroke="transparent" fill="#000000" transform="matrix(0.0833333 0 0 0.0833333 -233.875 -231)" d="M 3846.19,4499.25 L 3783.81,4463.23 L 3795.57,4446.93 L 3854.43,4480.91 L 3846.19,4499.25 Z " />
<path stroke="transparent" fill="#000000" transform="matrix(0.0833333 0 0 0.0833333 -233.875 -231)" d="M 3870.5,4445.15 L 3818.5,4415.13 L 3830.26,4398.83 L 3878.74,4426.82 L 3870.5,4445.15 Z " />
<path stroke="transparent" fill="#000000" transform="matrix(0.0833333 0 0 0.0833333 -233.875 -231)" d="M 3894.81,4391.06 L 3853.2,4367.03 L 3864.96,4350.73 L 3903.05,4372.72 L 3894.81,4391.06 Z " />
<path stroke="transparent" fill="#000000" transform="matrix(0.0833333 0 0 0.0833333 -233.875 -231)" d="M 3919.12,4336.96 L 3887.89,4318.94 L 3899.65,4302.63 L 3927.36,4318.63 L 3919.12,4336.96 Z " />
<path stroke="transparent" fill="#000000" transform="matrix(0.0833333 0 0 0.0833333 -233.875 -231)" d="M 3943.42,4282.87 L 3922.58,4270.84 L 3934.34,4254.53 L 3951.66,4264.53 L 3943.42,4282.87 Z " />
<path stroke="transparent" fill="#000000" transform="matrix(0.0833333 0 0 0.0833333 -233.875 -231)" d="M 3178.57,4742.4 L 3178.57,4722.4 L 3670,4722.4 L 3670,4742.4 L 3178.57,4742.4 Z " />
</svg>
