<?xml version="1.0" standalone="no" ?>
<!DOCTYPE svg PUBLIC "-//W3C//DTD SVG 1.1//EN" "http://www.w3.org/Graphics/SVG/1.1/DTD/svg11.dtd">
<svg width="271px" height="261px" viewBox="0 0 271 261" style="background-color: #ffffff00" xmlns="http://www.w3.org/2000/svg" xmlns:xlink="http://www.w3.org/1999/xlink" version="1.1" >
<path stroke="transparent" fill="#000000" transform="matrix(0.0833333 0 0 0.0833333 -300.667 -222)" d="M 6814.35,5727.3 L 6810.19,5746.86 L 6217.71,5620.64 L 6233.17,5603.49 L 6814.35,5727.3 Z " />
<path stroke="transparent" fill="#000000" transform="matrix(0.0833333 0 0 0.0833333 -300.667 -222)" d="M 6233.17,5603.49 L 6217.71,5620.64 L 6032.62,5049.95 L 6048.08,5032.8 L 6233.17,5603.49 Z " />
<path stroke="transparent" fill="#000000" transform="matrix(0.0833333 0 0 0.0833333 -300.667 -222)" d="M 6048.08,5032.8 L 6032.62,5049.95 L 5445.79,4924.94 L 5461.25,4907.78 L 6048.08,5032.8 Z " />
<path stroke="transparent" fill="#000000" transform="matrix(0.0833333 0 0 0.0833333 -300.667 -222)" d="M 3669.65,4153.11 L 3649.65,4164.56 L 3649.65,3549.95 L 3669.65,3561.63 L 3669.65,4153.11 Z " />
<path stroke="transparent" fill="#000000" transform="matrix(0.0833333 0 0 0.0833333 -300.667 -222)" d="M 5544.37,3952.77 L 5560.52,3964.58 L 5279.81,4348.47 L 5268.72,4346.69 L 5264.94,4334.92 L 5544.37,3952.77 Z " />
<path stroke="transparent" fill="#000000" transform="matrix(0.0833333 0 0 0.0833333 -300.667 -222)" d="M 4180.79,4453.27 L 4180.82,4476.48 L 3649.65,4164.56 L 3669.65,4153.11 L 4180.79,4453.27 Z " />
<path stroke="transparent" fill="#000000" transform="matrix(0.0833333 0 0 0.0833333 -300.667 -222)" d="M 4688.98,4153.13 L 4698.98,4158.84 L 4700.16,4169.76 L 4180.82,4476.48 L 4180.79,4453.27 L 4688.98,4153.13 Z " />
<path stroke="transparent" fill="#000000" transform="matrix(0.0833333 0 0 0.0833333 -300.667 -222)" d="M 4180.84,3250.33 L 4180.76,3273.33 L 3669.65,3561.63 L 3649.65,3549.95 L 4180.84,3250.33 Z " />
<path stroke="transparent" fill="#000000" transform="matrix(0.0833333 0 0 0.0833333 -300.667 -222)" d="M 4175.61,3335.72 L 4185.43,3353.14 L 3736.36,3606.44 L 3726.53,3589.02 L 4175.61,3335.72 Z " />
<path stroke="transparent" fill="#000000" transform="matrix(0.0833333 0 0 0.0833333 -300.667 -222)" d="M 5260.77,4354.6 L 5268.72,4346.69 L 5279.81,4348.47 L 5461.25,4907.78 L 5445.79,4924.94 L 5260.77,4354.6 Z " />
<path stroke="transparent" fill="#000000" transform="matrix(0.0833333 0 0 0.0833333 -300.667 -222)" d="M 5338.9,4362.54 L 5357.93,4356.37 L 5518.59,4851.63 L 5499.56,4857.8 L 5338.9,4362.54 Z " />
<path stroke="transparent" fill="#000000" transform="matrix(0.0833333 0 0 0.0833333 -300.667 -222)" d="M 5304.56,3416.1 L 5285.53,3409.96 L 5440.96,2928.25 L 5459.99,2934.39 L 5304.56,3416.1 Z " />
<path stroke="transparent" fill="#000000" transform="matrix(0.0833333 0 0 0.0833333 -300.667 -222)" d="M 5235.94,3393.6 L 5216.91,3387.46 L 5372.23,2906.07 L 5391.27,2912.21 L 5235.94,3393.6 Z " />
<path stroke="transparent" fill="#000000" transform="matrix(0.0833333 0 0 0.0833333 -300.667 -222)" d="M 4700.13,3547.98 L 4698.98,3558.85 L 4688.98,3564.64 L 4180.76,3273.33 L 4180.84,3250.33 L 4700.13,3547.98 Z " />
<path stroke="transparent" fill="#000000" transform="matrix(0.0833333 0 0 0.0833333 -300.667 -222)" d="M 5264.9,3388.74 L 5272.54,3365.31 L 5568.32,3769.76 L 5552.18,3781.57 L 5264.9,3388.74 Z " />
<path stroke="transparent" fill="#000000" transform="matrix(0.0833333 0 0 0.0833333 -300.667 -222)" d="M 4700.16,4169.76 L 4698.98,4158.84 L 4708.98,4151.61 L 5264.94,4334.92 L 5268.72,4346.69 L 5260.77,4354.6 L 4700.16,4169.76 Z " />
<path stroke="transparent" fill="#000000" transform="matrix(0.0833333 0 0 0.0833333 -300.667 -222)" d="M 4688.98,3564.64 L 4698.98,3558.85 L 4708.98,3566.15 L 4708.98,4151.61 L 4698.98,4158.84 L 4688.98,4153.13 L 4688.98,3564.64 Z " />
<path stroke="transparent" fill="#000000" transform="matrix(0.0833333 0 0 0.0833333 -300.667 -222)" d="M 4616.98,3600.56 L 4636.98,3600.56 L 4636.98,4117.74 L 4616.98,4117.74 L 4616.98,3600.56 Z " />
<path stroke="transparent" fill="#000000" transform="matrix(0.0833333 0 0 0.0833333 -300.667 -222)" d="M 4708.98,3566.15 L 4698.98,3558.85 L 4700.13,3547.98 L 5272.54,3365.31 L 5264.9,3388.74 L 4708.98,3566.15 Z " />
<text x="0" y="0" stroke="transparent" fill="#000000" transform="matrix(0.0833333 0 0 0.0833333 147.293 18.1922)" style="font:normal normal normal 200px 'Arial'" >
O</text>
<text x="0" y="0" stroke="transparent" fill="#000000" transform="matrix(0.0833333 0 0 0.0833333 161.439 106.319)" style="font:normal normal normal 200px 'Arial'" >
O</text>
</svg>
