<?xml version="1.0" standalone="no" ?>
<!DOCTYPE svg PUBLIC "-//W3C//DTD SVG 1.1//EN" "http://www.w3.org/Graphics/SVG/1.1/DTD/svg11.dtd">
<svg width="303px" height="343px" viewBox="0 0 303 343" style="background-color: #ffffff00" xmlns="http://www.w3.org/2000/svg" xmlns:xlink="http://www.w3.org/1999/xlink" version="1.1" >
<text x="0" y="0" stroke="transparent" fill="#000000" transform="matrix(0.0833333 0 0 0.0833333 249.101 270.165)" style="font:normal normal normal 200px 'Arial'" >
N</text>
<text x="0" y="0" stroke="transparent" fill="#000000" transform="matrix(0.0833333 0 0 0.0833333 245.756 165.781)" style="font:normal normal normal 200px 'Arial'" >
O</text>
<text x="0" y="0" stroke="transparent" fill="#000000" transform="matrix(0.0833333 0 0 0.0833333 259.694 77.7776)" style="font:normal normal normal 200px 'Arial'" >
O</text>
<text x="0" y="0" stroke="transparent" fill="#000000" transform="matrix(0.0833333 0 0 0.0833333 152.072 31.3402)" style="font:normal normal normal 200px 'Arial'" >
O</text>
<text x="0" y="0" stroke="transparent" fill="#000000" transform="matrix(0.0833333 0 0 0.0833333 72.9371 48.1629)" style="font:normal normal normal 200px 'Arial'" >
O</text>
<text x="0" y="0" stroke="transparent" fill="#000000" transform="matrix(0.0833333 0 0 0.0833333 27.8466 254.715)" style="font:normal normal normal 200px 'Arial'" >
O</text>
<text x="0" y="0" stroke="transparent" fill="#000000" transform="matrix(0.0833333 0 0 0.0833333 27.8449 335.62)" style="font:normal normal normal 200px 'Arial'" >
O</text>
<path stroke="transparent" fill="#000000" transform="matrix(0.0833333 0 0 0.0833333 -285.208 -159)" d="M 6592.49,5020.73 L 6582.49,5003.4 L 6998.34,4763.32 L 7008.34,4780.65 L 6592.49,5020.73 Z " />
<path stroke="transparent" fill="#000000" transform="matrix(0.0833333 0 0 0.0833333 -285.208 -159)" d="M 6493.72,5677.75 L 6473.72,5666.21 L 6473.72,5189.31 L 6493.72,5189.31 L 6493.72,5677.75 Z " />
<path stroke="transparent" fill="#000000" transform="matrix(0.0833333 0 0 0.0833333 -285.208 -159)" d="M 5964.11,5983.52 L 5964.11,5960.43 L 6473.72,5666.21 L 6493.72,5677.75 L 5964.11,5983.52 Z " />
<path stroke="transparent" fill="#000000" transform="matrix(0.0833333 0 0 0.0833333 -285.208 -159)" d="M 5444.53,5683.54 L 5444.53,5672 L 5454.53,5666.22 L 5964.11,5960.43 L 5964.11,5983.52 L 5444.53,5683.54 Z " />
<path stroke="transparent" fill="#000000" transform="matrix(0.0833333 0 0 0.0833333 -285.208 -159)" d="M 4924.88,5983.59 L 4924.88,5960.49 L 5434.53,5666.22 L 5444.53,5672 L 5444.53,5683.54 L 4924.88,5983.59 Z " />
<path stroke="transparent" fill="#000000" transform="matrix(0.0833333 0 0 0.0833333 -285.208 -159)" d="M 4929.88,5897.55 L 4919.88,5880.23 L 5367.52,5621.76 L 5377.52,5639.08 L 4929.88,5897.55 Z " />
<path stroke="transparent" fill="#000000" transform="matrix(0.0833333 0 0 0.0833333 -285.208 -159)" d="M 4404.11,5682.92 L 4405.26,5672.03 L 4415.26,5666.26 L 4924.88,5960.49 L 4924.88,5983.59 L 4404.11,5682.92 Z " />
<path stroke="transparent" fill="#000000" transform="matrix(0.0833333 0 0 0.0833333 -285.208 -159)" d="M 4395.28,5079.25 L 4405.28,5071.98 L 4415.28,5077.76 L 4415.26,5666.26 L 4405.26,5672.03 L 4395.26,5664.77 L 4395.28,5079.25 Z " />
<path stroke="transparent" fill="#000000" transform="matrix(0.0833333 0 0 0.0833333 -285.208 -159)" d="M 4467.28,5113.56 L 4487.28,5113.56 L 4487.26,5630.46 L 4467.26,5630.46 L 4467.28,5113.56 Z " />
<path stroke="transparent" fill="#000000" transform="matrix(0.0833333 0 0 0.0833333 -285.208 -159)" d="M 4924.9,4760.44 L 4924.9,4783.54 L 4415.28,5077.76 L 4405.28,5071.98 L 4404.13,5061.1 L 4924.9,4760.44 Z " />
<path stroke="transparent" fill="#000000" transform="matrix(0.0833333 0 0 0.0833333 -285.208 -159)" d="M 5444.52,5060.45 L 5444.52,5072 L 5434.52,5077.77 L 4924.9,4783.54 L 4924.9,4760.44 L 5444.52,5060.45 Z " />
<path stroke="transparent" fill="#000000" transform="matrix(0.0833333 0 0 0.0833333 -285.208 -159)" d="M 5377.52,5104.91 L 5367.52,5122.23 L 4919.9,4863.79 L 4929.9,4846.47 L 5377.52,5104.91 Z " />
<path stroke="transparent" fill="#000000" transform="matrix(0.0833333 0 0 0.0833333 -285.208 -159)" d="M 5434.52,5077.77 L 5444.52,5072 L 5454.52,5077.77 L 5454.53,5666.22 L 5444.53,5672 L 5434.53,5666.22 L 5434.52,5077.77 Z " />
<path stroke="transparent" fill="#000000" transform="matrix(0.0833333 0 0 0.0833333 -285.208 -159)" d="M 5954.14,4766.23 L 5964.14,4772 L 5964.14,4783.55 L 5454.52,5077.77 L 5444.52,5072 L 5444.52,5060.45 L 5954.14,4766.23 Z " />
<path stroke="transparent" fill="#000000" transform="matrix(0.0833333 0 0 0.0833333 -285.208 -159)" d="M 5964.14,4783.55 L 5964.14,4772 L 5974.14,4766.23 L 6384.94,5003.4 L 6374.94,5020.72 L 5964.14,4783.55 Z " />
<path stroke="transparent" fill="#000000" transform="matrix(0.0833333 0 0 0.0833333 -285.208 -159)" d="M 5954.13,4177.1 L 5964.13,4172 L 5974.13,4177.1 L 5974.14,4766.23 L 5964.14,4772 L 5954.14,4766.23 L 5954.13,4177.1 Z " />
<path stroke="transparent" fill="#000000" transform="matrix(0.0833333 0 0 0.0833333 -285.208 -159)" d="M 6349.44,3879.75 L 6361.19,3895.93 L 5974.13,4177.1 L 5964.13,4172 L 5964.13,4159.64 L 6349.44,3879.75 Z " />
<path stroke="transparent" fill="#000000" transform="matrix(0.0833333 0 0 0.0833333 -285.208 -159)" d="M 6256.86,3258.72 L 6271.39,3238.72 L 6426.34,3715.52 L 6407.32,3721.7 L 6256.86,3258.72 Z " />
<path stroke="transparent" fill="#000000" transform="matrix(0.0833333 0 0 0.0833333 -285.208 -159)" d="M 6509.07,2833.37 L 6525.25,2845.13 L 6227.71,3254.6 L 6211.53,3242.84 L 6509.07,2833.37 Z " />
<path stroke="transparent" fill="#000000" transform="matrix(0.0833333 0 0 0.0833333 -285.208 -159)" d="M 6567.32,2875.7 L 6583.5,2887.45 L 6285.96,3296.91 L 6269.78,3285.16 L 6567.32,2875.7 Z " />
<path stroke="transparent" fill="#000000" transform="matrix(0.0833333 0 0 0.0833333 -285.208 -159)" d="M 5671.39,3258.73 L 5664.12,3248.73 L 5668.57,3238.73 L 6271.39,3238.72 L 6256.86,3258.72 L 5671.39,3258.73 Z " />
<path stroke="transparent" fill="#000000" transform="matrix(0.0833333 0 0 0.0833333 -285.208 -159)" d="M 5490.47,3815.53 L 5478.72,3819.34 L 5470.99,3810.76 L 5652.83,3251.13 L 5664.12,3248.73 L 5671.39,3258.73 L 5490.47,3815.53 Z " />
<path stroke="transparent" fill="#000000" transform="matrix(0.0833333 0 0 0.0833333 -285.208 -159)" d="M 5432.6,3760.65 L 5413.58,3754.47 L 5573.29,3262.92 L 5592.31,3269.1 L 5432.6,3760.65 Z " />
<path stroke="transparent" fill="#000000" transform="matrix(0.0833333 0 0 0.0833333 -285.208 -159)" d="M 5476.44,3830.05 L 5478.72,3819.34 L 5490.47,3815.53 L 5964.13,4159.64 L 5964.13,4172 L 5954.13,4177.1 L 5476.44,3830.05 Z " />
<path stroke="transparent" fill="#000000" transform="matrix(0.0833333 0 0 0.0833333 -285.208 -159)" d="M 4888.28,3955.07 L 4895.42,3933.11 L 5470.99,3810.76 L 5478.72,3819.34 L 5476.44,3830.05 L 4888.28,3955.07 Z " />
<path stroke="transparent" fill="#000000" transform="matrix(0.0833333 0 0 0.0833333 -285.208 -159)" d="M 4479.07,3500.54 L 4501.66,3495.74 L 4895.42,3933.11 L 4888.28,3955.07 L 4479.07,3500.54 Z " />
<path stroke="transparent" fill="#000000" transform="matrix(0.0833333 0 0 0.0833333 -285.208 -159)" d="M 4564.26,3487.55 L 4579.12,3474.16 L 4924.98,3858.32 L 4910.11,3871.71 L 4564.26,3487.55 Z " />
<path stroke="transparent" fill="#000000" transform="matrix(0.0833333 0 0 0.0833333 -285.208 -159)" d="M 4664.85,2928.72 L 4675.74,2927.57 L 4683.47,2936.15 L 4501.66,3495.74 L 4479.07,3500.54 L 4664.85,2928.72 Z " />
<path stroke="transparent" fill="#000000" transform="matrix(0.0833333 0 0 0.0833333 -285.208 -159)" d="M 5253.47,2794.58 L 5262.66,2802.86 L 5259.09,2813.84 L 4683.47,2936.15 L 4675.74,2927.57 L 4680.77,2916.28 L 5253.47,2794.58 Z " />
<path stroke="transparent" fill="#000000" transform="matrix(0.0833333 0 0 0.0833333 -285.208 -159)" d="M 5234.89,2872.14 L 5239.04,2891.71 L 4733.45,2999.14 L 4729.29,2979.58 L 5234.89,2872.14 Z " />
<path stroke="transparent" fill="#000000" transform="matrix(0.0833333 0 0 0.0833333 -285.208 -159)" d="M 5259.09,2813.84 L 5262.66,2802.86 L 5273.07,2799.47 L 5668.57,3238.73 L 5664.12,3248.73 L 5652.83,3251.13 L 5259.09,2813.84 Z " />
<path stroke="transparent" fill="#000000" transform="matrix(0.0833333 0 0 0.0833333 -285.208 -159)" d="M 5302.94,2323.78 L 5322.83,2325.87 L 5273.07,2799.47 L 5262.66,2802.86 L 5253.47,2794.58 L 5302.94,2323.78 Z " />
<path stroke="transparent" fill="#000000" transform="matrix(0.0833333 0 0 0.0833333 -285.208 -159)" d="M 4779.81,1974.12 L 4774.67,1949.94 L 5231.79,2153.47 L 5223.66,2171.74 L 4779.81,1974.12 Z " />
<path stroke="transparent" fill="#000000" transform="matrix(0.0833333 0 0 0.0833333 -285.208 -159)" d="M 4454.64,2335.28 L 4439.77,2321.9 L 4774.67,1949.94 L 4779.81,1974.12 L 4454.64,2335.28 Z " />
<path stroke="transparent" fill="#000000" transform="matrix(0.0833333 0 0 0.0833333 -285.208 -159)" d="M 4427.62,2517.81 L 4444.94,2507.81 L 4680.77,2916.28 L 4675.74,2927.57 L 4664.85,2928.72 L 4427.62,2517.81 Z " />
<path stroke="transparent" fill="#000000" transform="matrix(0.0833333 0 0 0.0833333 -285.208 -159)" d="M 3938.37,4930.79 L 3944.55,4911.77 L 4404.13,5061.1 L 4405.28,5071.98 L 4395.28,5079.25 L 3938.37,4930.79 Z " />
<path stroke="transparent" fill="#000000" transform="matrix(0.0833333 0 0 0.0833333 -285.208 -159)" d="M 3494.33,5372.05 L 3469.61,5372.05 L 3756.03,4977.79 L 3772.21,4989.55 L 3494.33,5372.05 Z " />
<path stroke="transparent" fill="#000000" transform="matrix(0.0833333 0 0 0.0833333 -285.208 -159)" d="M 3779.98,5765.2 L 3763.8,5776.95 L 3469.61,5372.05 L 3494.33,5372.05 L 3779.98,5765.2 Z " />
<path stroke="transparent" fill="#000000" transform="matrix(0.0833333 0 0 0.0833333 -285.208 -159)" d="M 3939.59,5833.85 L 3933.41,5814.83 L 4395.26,5664.77 L 4405.26,5672.03 L 4404.11,5682.92 L 3939.59,5833.85 Z " />
</svg>
