<?xml version="1.0" standalone="no" ?>
<!DOCTYPE svg PUBLIC "-//W3C//DTD SVG 1.1//EN" "http://www.w3.org/Graphics/SVG/1.1/DTD/svg11.dtd">
<svg width="502px" height="397px" viewBox="0 0 502 397" style="background-color: #ffffff00" xmlns="http://www.w3.org/2000/svg" xmlns:xlink="http://www.w3.org/1999/xlink" version="1.1" >
<path stroke="transparent" fill="#000000" transform="matrix(0.0833333 0 0 0.0833333 -174.208 -146)" d="M 5520.12,5086.95 L 5400.12,5086.95 L 5448.69,4603.85 L 5460.12,4589.62 L 5471.97,4608.01 L 5520.12,5086.95 Z " />
<path stroke="transparent" fill="#000000" transform="matrix(0.0833333 0 0 0.0833333 -174.208 -146)" d="M 4044.84,4349.55 L 4044.84,4229.55 L 4532.1,4279.06 L 4536.85,4289.55 L 4532.1,4300.03 L 4044.84,4349.55 Z " />
<path stroke="transparent" fill="#000000" transform="matrix(0.0833333 0 0 0.0833333 -174.208 -146)" d="M 2136.84,3260.35 L 2136.84,3240.35 L 2731.07,3240.35 L 2736.84,3250.35 L 2731.07,3260.35 L 2136.84,3260.35 Z " />
<path stroke="transparent" fill="#000000" transform="matrix(0.0833333 0 0 0.0833333 -174.208 -146)" d="M 3892.25,4192.31 L 3874.93,4202.31 L 3631.07,3779.98 L 3642.62,3759.98 L 3892.25,4192.31 Z " />
<path stroke="transparent" fill="#000000" transform="matrix(0.0833333 0 0 0.0833333 -174.208 -146)" d="M 3836.65,3331.89 L 3853.97,3341.88 L 3603.93,3774.98 L 3586.61,3764.98 L 3836.65,3331.89 Z " />
<path stroke="transparent" fill="#000000" transform="matrix(0.0833333 0 0 0.0833333 -174.208 -146)" d="M 3899.01,3367.89 L 3916.33,3377.88 L 3666.29,3810.98 L 3648.97,3800.98 L 3899.01,3367.89 Z " />
<path stroke="transparent" fill="#000000" transform="matrix(0.0833333 0 0 0.0833333 -174.208 -146)" d="M 3028.18,2725.71 L 3045.5,2735.71 L 2748.39,3250.35 L 2736.84,3250.35 L 2731.07,3240.35 L 3028.18,2725.71 Z " />
<path stroke="transparent" fill="#000000" transform="matrix(0.0833333 0 0 0.0833333 -174.208 -146)" d="M 2731.07,3260.35 L 2736.84,3250.35 L 2748.39,3250.35 L 3042.62,3759.98 L 3031.07,3779.98 L 2731.07,3260.35 Z " />
<path stroke="transparent" fill="#000000" transform="matrix(0.0833333 0 0 0.0833333 -174.208 -146)" d="M 3031.07,3779.98 L 3042.62,3759.98 L 3642.62,3759.98 L 3631.07,3779.98 L 3031.07,3779.98 Z " />
<path stroke="transparent" fill="#000000" transform="matrix(0.0833333 0 0 0.0833333 -174.208 -146)" d="M 6039.76,5384.45 L 5919.76,5384.45 L 5969.2,4895.08 L 5979.76,4889.62 L 5990.31,4895.08 L 6039.76,5384.45 Z " />
<path stroke="transparent" fill="#000000" transform="matrix(0.0833333 0 0 0.0833333 -174.208 -146)" d="M 8053.16,5480.96 L 8063.16,5498.28 L 7548.59,5795.32 L 7538.59,5789.55 L 7538.59,5778 L 8053.16,5480.96 Z " />
<path stroke="transparent" fill="#000000" transform="matrix(0.0833333 0 0 0.0833333 -174.208 -146)" d="M 6074.8,5556.03 L 6084.79,5538.71 L 6499.32,5778 L 6499.32,5801.09 L 6074.8,5556.03 Z " />
<path stroke="transparent" fill="#000000" transform="matrix(0.0833333 0 0 0.0833333 -174.208 -146)" d="M 6545.32,6284.45 L 6525.32,6284.45 L 6525.32,5768.77 L 6545.32,5768.77 L 6545.32,6284.45 Z " />
<path stroke="transparent" fill="#000000" transform="matrix(0.0833333 0 0 0.0833333 -174.208 -146)" d="M 6473.32,6284.45 L 6453.32,6284.45 L 6453.32,5768.76 L 6473.32,5768.76 L 6473.32,6284.45 Z " />
<path stroke="transparent" fill="#000000" transform="matrix(0.0833333 0 0 0.0833333 -174.208 -146)" d="M 7548.59,6389.62 L 7528.59,6389.62 L 7528.59,5795.32 L 7538.59,5789.55 L 7548.59,5795.32 L 7548.59,6389.62 Z " />
<path stroke="transparent" fill="#000000" transform="matrix(0.0833333 0 0 0.0833333 -174.208 -146)" d="M 7538.59,5778 L 7538.59,5789.55 L 7528.59,5795.32 L 7018.96,5501.17 L 7018.96,5478.07 L 7538.59,5778 Z " />
<path stroke="transparent" fill="#000000" transform="matrix(0.0833333 0 0 0.0833333 -174.208 -146)" d="M 7018.96,5478.07 L 7018.96,5501.17 L 6499.32,5801.09 L 6499.32,5778 L 7018.96,5478.07 Z " />
<path stroke="transparent" fill="#000000" transform="matrix(0.0833333 0 0 0.0833333 -174.208 -146)" d="M 5969.76,3083.77 L 5989.76,3095.32 L 5989.76,3683.77 L 5979.76,3689.55 L 5969.76,3683.77 L 5969.76,3083.77 Z " />
<path stroke="transparent" fill="#000000" transform="matrix(0.0833333 0 0 0.0833333 -174.208 -146)" d="M 6394.72,2838.4 L 6404.72,2855.72 L 5989.76,3095.32 L 5969.76,3083.77 L 6394.72,2838.4 Z " />
<path stroke="transparent" fill="#000000" transform="matrix(0.0833333 0 0 0.0833333 -174.208 -146)" d="M 6489.32,2183.84 L 6509.32,2195.39 L 6509.32,2684.38 L 6489.32,2684.38 L 6489.32,2183.84 Z " />
<path stroke="transparent" fill="#000000" transform="matrix(0.0833333 0 0 0.0833333 -174.208 -146)" d="M 7013.96,1880.89 L 7023.96,1898.21 L 6509.32,2195.39 L 6489.32,2183.84 L 7013.96,1880.89 Z " />
<path stroke="transparent" fill="#000000" transform="matrix(0.0833333 0 0 0.0833333 -174.208 -146)" d="M 6056.78,1987.15 L 6066.78,1969.83 L 6504.32,2222.53 L 6494.32,2239.85 L 6056.78,1987.15 Z " />
<path stroke="transparent" fill="#000000" transform="matrix(0.0833333 0 0 0.0833333 -174.208 -146)" d="M 6092.79,1924.8 L 6102.79,1907.48 L 6540.31,2160.17 L 6530.31,2177.49 L 6092.79,1924.8 Z " />
<path stroke="transparent" fill="#000000" transform="matrix(0.0833333 0 0 0.0833333 -174.208 -146)" d="M 5086.96,5396.06 L 4949.97,5330.51 L 4879.94,4778.86 L 4889.5,4775 L 4901.86,4781.5 L 5086.96,5396.06 Z " />
<path stroke="transparent" fill="#000000" transform="matrix(0.0833333 0 0 0.0833333 -174.208 -146)" d="M 4563.17,5149.55 L 4482.88,5060.37 L 4499.26,5048.68 L 4576.51,5134.47 L 4563.17,5149.55 Z " />
<path stroke="transparent" fill="#000000" transform="matrix(0.0833333 0 0 0.0833333 -174.208 -146)" d="M 4603.1,5104.42 L 4531.93,5025.37 L 4548.32,5013.68 L 4616.44,5089.34 L 4603.1,5104.42 Z " />
<path stroke="transparent" fill="#000000" transform="matrix(0.0833333 0 0 0.0833333 -174.208 -146)" d="M 4643.04,5059.29 L 4580.99,4990.38 L 4597.38,4978.69 L 4656.38,5044.22 L 4643.04,5059.29 Z " />
<path stroke="transparent" fill="#000000" transform="matrix(0.0833333 0 0 0.0833333 -174.208 -146)" d="M 4682.97,5014.16 L 4630.05,4955.38 L 4646.44,4943.69 L 4696.31,4999.09 L 4682.97,5014.16 Z " />
<path stroke="transparent" fill="#000000" transform="matrix(0.0833333 0 0 0.0833333 -174.208 -146)" d="M 4722.91,4969.03 L 4679.11,4920.39 L 4695.49,4908.7 L 4736.25,4953.96 L 4722.91,4969.03 Z " />
<path stroke="transparent" fill="#000000" transform="matrix(0.0833333 0 0 0.0833333 -174.208 -146)" d="M 4762.84,4923.91 L 4728.17,4885.39 L 4744.55,4873.7 L 4776.18,4908.83 L 4762.84,4923.91 Z " />
<path stroke="transparent" fill="#000000" transform="matrix(0.0833333 0 0 0.0833333 -174.208 -146)" d="M 4802.78,4878.78 L 4777.22,4850.4 L 4793.61,4838.71 L 4816.12,4863.7 L 4802.78,4878.78 Z " />
<path stroke="transparent" fill="#000000" transform="matrix(0.0833333 0 0 0.0833333 -174.208 -146)" d="M 4842.71,4833.65 L 4826.28,4815.4 L 4842.67,4803.71 L 4856.05,4818.57 L 4842.71,4833.65 Z " />
<path stroke="transparent" fill="#000000" transform="matrix(0.0833333 0 0 0.0833333 -174.208 -146)" d="M 4949.97,5330.51 L 5086.96,5396.06 L 4547.32,5220.68 L 4553.5,5201.66 L 4949.97,5330.51 Z " />
<path stroke="transparent" fill="#000000" transform="matrix(0.0833333 0 0 0.0833333 -174.208 -146)" d="M 5458.97,3978.73 L 5460.12,3989.62 L 5450.12,3996.88 L 4893.32,3815.92 L 4885.68,3792.41 L 5458.97,3978.73 Z " />
<path stroke="transparent" fill="#000000" transform="matrix(0.0833333 0 0 0.0833333 -174.208 -146)" d="M 5391.21,4032.42 L 5385.03,4051.44 L 4913.91,3898.32 L 4920.09,3879.3 L 5391.21,4032.42 Z " />
<path stroke="transparent" fill="#000000" transform="matrix(0.0833333 0 0 0.0833333 -174.208 -146)" d="M 5450.12,4582.35 L 5460.12,4589.62 L 5448.69,4603.85 L 4901.86,4781.5 L 4889.5,4775 L 4893.32,4763.25 L 5450.12,4582.35 Z " />
<path stroke="transparent" fill="#000000" transform="matrix(0.0833333 0 0 0.0833333 -174.208 -146)" d="M 4893.32,4763.25 L 4889.5,4775 L 4879.94,4778.86 L 4532.1,4300.03 L 4536.85,4289.55 L 4549.21,4289.55 L 4893.32,4763.25 Z " />
<path stroke="transparent" fill="#000000" transform="matrix(0.0833333 0 0 0.0833333 -174.208 -146)" d="M 4549.21,4289.55 L 4536.85,4289.55 L 4532.1,4279.06 L 4885.68,3792.41 L 4893.32,3815.92 L 4549.21,4289.55 Z " />
<path stroke="transparent" fill="#000000" transform="matrix(0.0833333 0 0 0.0833333 -174.208 -146)" d="M 6394.72,4638.47 L 6404.72,4655.79 L 5990.31,4895.08 L 5979.76,4889.62 L 5979.76,4878.07 L 6394.72,4638.47 Z " />
<path stroke="transparent" fill="#000000" transform="matrix(0.0833333 0 0 0.0833333 -174.208 -146)" d="M 6509.32,4484.45 L 6489.32,4484.45 L 6489.32,3995.39 L 6509.32,3983.85 L 6509.32,4484.45 Z " />
<path stroke="transparent" fill="#000000" transform="matrix(0.0833333 0 0 0.0833333 -174.208 -146)" d="M 6509.32,3983.85 L 6489.32,3995.39 L 5979.76,3701.09 L 5979.76,3689.55 L 5989.76,3683.77 L 6509.32,3983.85 Z " />
<path stroke="transparent" fill="#000000" transform="matrix(0.0833333 0 0 0.0833333 -174.208 -146)" d="M 6432.32,4022.52 L 6422.32,4039.84 L 5974.75,3781.35 L 5984.75,3764.03 L 6432.32,4022.52 Z " />
<path stroke="transparent" fill="#000000" transform="matrix(0.0833333 0 0 0.0833333 -174.208 -146)" d="M 5969.76,3683.77 L 5979.76,3689.55 L 5979.76,3701.09 L 5470.12,3995.39 L 5460.12,3989.62 L 5458.97,3978.73 L 5969.76,3683.77 Z " />
<path stroke="transparent" fill="#000000" transform="matrix(0.0833333 0 0 0.0833333 -174.208 -146)" d="M 5450.12,3996.88 L 5460.12,3989.62 L 5470.12,3995.39 L 5470.12,4583.85 L 5460.12,4589.62 L 5450.12,4582.35 L 5450.12,3996.88 Z " />
<path stroke="transparent" fill="#000000" transform="matrix(0.0833333 0 0 0.0833333 -174.208 -146)" d="M 5471.97,4608.01 L 5460.12,4589.62 L 5470.12,4583.85 L 5979.76,4878.07 L 5979.76,4889.62 L 5969.2,4895.08 L 5471.97,4608.01 Z " />
<text x="0" y="0" stroke="transparent" fill="#000000" transform="matrix(0.0833333 0 0 0.0833333 274.802 292.968)" style="font:normal normal normal 200px 'Arial'" >
H</text>
<text x="0" y="0" stroke="transparent" fill="#000000" transform="matrix(0.0833333 0 0 0.0833333 147.362 217.962)" style="font:normal normal normal 200px 'Arial'" >
O</text>
<text x="0" y="0" stroke="transparent" fill="#000000" transform="matrix(0.0833333 0 0 0.0833333 147.362 131.362)" style="font:normal normal normal 200px 'Arial'" >
O</text>
<text x="0" y="0" stroke="transparent" fill="#000000" transform="matrix(0.0833333 0 0 0.0833333 317.605 317.968)" style="font:normal normal normal 200px 'Arial'" >
O</text>
<text x="0" y="0" stroke="transparent" fill="#000000" transform="matrix(0.0833333 0 0 0.0833333 360.902 392.968)" style="font:normal normal normal 200px 'Arial'" >
O</text>
<text x="0" y="0" stroke="transparent" fill="#000000" transform="matrix(0.0833333 0 0 0.0833333 317.605 17.9621)" style="font:normal normal normal 200px 'Arial'" >
O</text>
<text x="0" y="0" stroke="transparent" fill="#000000" transform="matrix(0.0833333 0 0 0.0833333 360.902 92.9621)" style="font:normal normal normal 200px 'Arial'" >
O</text>
<text x="0" y="0" stroke="transparent" fill="#000000" transform="matrix(0.0833333 0 0 0.0833333 189.592 291.871)" style="font:normal normal normal 200px 'Arial'" >
O</text>
<text x="0" y="0" stroke="transparent" fill="#000000" transform="matrix(0.0833333 0 0 0.0833333 360.902 242.968)" style="font:normal normal normal 200px 'Arial'" >
O</text>
</svg>
