<?xml version="1.0" standalone="no" ?>
<!DOCTYPE svg PUBLIC "-//W3C//DTD SVG 1.1//EN" "http://www.w3.org/Graphics/SVG/1.1/DTD/svg11.dtd">
<svg width="440px" height="346px" viewBox="0 0 440 346" style="background-color: #ffffff00" xmlns="http://www.w3.org/2000/svg" xmlns:xlink="http://www.w3.org/1999/xlink" version="1.1" >
<text x="0" y="0" stroke="transparent" fill="#000000" transform="matrix(0.0833333 0 0 0.0833333 3.69493 304.53)" style="font:normal normal normal 200px 'Arial'" >
O</text>
<text x="0" y="0" stroke="transparent" fill="#000000" transform="matrix(0.0833333 0 0 0.0833333 388.355 32.834)" style="font:normal normal normal 200px 'Arial'" >
O</text>
<text x="0" y="0" stroke="transparent" fill="#000000" transform="matrix(0.0833333 0 0 0.0833333 410.769 116.486)" style="font:normal normal normal 200px 'Arial'" >
OH</text>
<path stroke="transparent" fill="#000000" transform="matrix(0.0833333 0 0 0.0833333 -190.25 -522)" d="M 4260.28,6749.35 L 4271.44,6746.37 L 4279.6,6754.53 L 4125.8,7328.51 L 4106.48,7323.33 L 4260.28,6749.35 Z " />
<path stroke="transparent" fill="#000000" transform="matrix(0.0833333 0 0 0.0833333 -190.25 -522)" d="M 4853.98,6579.92 L 4848,6602.23 L 4279.6,6754.53 L 4271.44,6746.37 L 4274.42,6735.21 L 4853.98,6579.92 Z " />
<path stroke="transparent" fill="#000000" transform="matrix(0.0833333 0 0 0.0833333 -190.25 -522)" d="M 4826.89,6661.72 L 4832.06,6681.04 L 4332.81,6814.81 L 4327.64,6795.49 L 4826.89,6661.72 Z " />
<path stroke="transparent" fill="#000000" transform="matrix(0.0833333 0 0 0.0833333 -190.25 -522)" d="M 5278.24,7004.18 L 5272.27,7026.49 L 4848,6602.23 L 4853.98,6579.92 L 5278.24,7004.18 Z " />
<path stroke="transparent" fill="#000000" transform="matrix(0.0833333 0 0 0.0833333 -190.25 -522)" d="M 5852.22,6850.39 L 5857.4,6869.71 L 5272.27,7026.49 L 5278.24,7004.18 L 5852.22,6850.39 Z " />
<path stroke="transparent" fill="#000000" transform="matrix(0.0833333 0 0 0.0833333 -190.25 -522)" d="M 6247.9,7238.99 L 6233.76,7253.13 L 6218.18,7240.43 L 6235.19,7223.41 L 6247.9,7238.99 Z " />
<path stroke="transparent" fill="#000000" transform="matrix(0.0833333 0 0 0.0833333 -190.25 -522)" d="M 6210.43,7193.05 L 6187.81,7215.67 L 6172.23,7202.97 L 6197.73,7177.47 L 6210.43,7193.05 Z " />
<path stroke="transparent" fill="#000000" transform="matrix(0.0833333 0 0 0.0833333 -190.25 -522)" d="M 6172.97,7147.11 L 6141.87,7178.21 L 6126.29,7165.5 L 6160.27,7131.53 L 6172.97,7147.11 Z " />
<path stroke="transparent" fill="#000000" transform="matrix(0.0833333 0 0 0.0833333 -190.25 -522)" d="M 6135.51,7101.16 L 6095.93,7140.74 L 6080.35,7128.04 L 6122.8,7085.58 L 6135.51,7101.16 Z " />
<path stroke="transparent" fill="#000000" transform="matrix(0.0833333 0 0 0.0833333 -190.25 -522)" d="M 6098.04,7055.22 L 6049.98,7103.28 L 6034.4,7090.58 L 6085.34,7039.64 L 6098.04,7055.22 Z " />
<path stroke="transparent" fill="#000000" transform="matrix(0.0833333 0 0 0.0833333 -190.25 -522)" d="M 6060.58,7009.28 L 6004.04,7065.82 L 5988.46,7053.11 L 6047.88,6993.7 L 6060.58,7009.28 Z " />
<path stroke="transparent" fill="#000000" transform="matrix(0.0833333 0 0 0.0833333 -190.25 -522)" d="M 6023.12,6963.33 L 5958.1,7028.35 L 5942.52,7015.65 L 6010.41,6947.75 L 6023.12,6963.33 Z " />
<path stroke="transparent" fill="#000000" transform="matrix(0.0833333 0 0 0.0833333 -190.25 -522)" d="M 5985.65,6917.39 L 5912.15,6990.89 L 5896.57,6978.18 L 5972.95,6901.81 L 5985.65,6917.39 Z " />
<path stroke="transparent" fill="#000000" transform="matrix(0.0833333 0 0 0.0833333 -190.25 -522)" d="M 5948.19,6871.45 L 5866.21,6953.42 L 5850.63,6940.72 L 5935.48,6855.87 L 5948.19,6871.45 Z " />
<path stroke="transparent" fill="#000000" transform="matrix(0.0833333 0 0 0.0833333 -190.25 -522)" d="M 6101.6,7862.88 L 6085.73,7847.01 L 6271.35,7275.73 L 6286.8,7292.89 L 6101.6,7862.88 Z " />
<path stroke="transparent" fill="#000000" transform="matrix(0.0833333 0 0 0.0833333 -190.25 -522)" d="M 6463.14,8261.4 L 6366.05,8331.93 L 6355.94,8314.56 L 6449.74,8246.42 L 6463.14,8261.4 Z " />
<path stroke="transparent" fill="#000000" transform="matrix(0.0833333 0 0 0.0833333 -190.25 -522)" d="M 6423.61,8217.19 L 6336.23,8280.68 L 6326.11,8263.3 L 6410.21,8202.21 L 6423.61,8217.19 Z " />
<path stroke="transparent" fill="#000000" transform="matrix(0.0833333 0 0 0.0833333 -190.25 -522)" d="M 6384.08,8172.99 L 6306.4,8229.42 L 6296.29,8212.05 L 6370.68,8158 L 6384.08,8172.99 Z " />
<path stroke="transparent" fill="#000000" transform="matrix(0.0833333 0 0 0.0833333 -190.25 -522)" d="M 6344.55,8128.78 L 6276.57,8178.17 L 6266.46,8160.79 L 6331.15,8113.79 L 6344.55,8128.78 Z " />
<path stroke="transparent" fill="#000000" transform="matrix(0.0833333 0 0 0.0833333 -190.25 -522)" d="M 6305.02,8084.57 L 6246.74,8126.91 L 6236.63,8109.53 L 6291.62,8069.58 L 6305.02,8084.57 Z " />
<path stroke="transparent" fill="#000000" transform="matrix(0.0833333 0 0 0.0833333 -190.25 -522)" d="M 6265.49,8040.36 L 6216.91,8075.65 L 6206.8,8058.28 L 6252.09,8025.38 L 6265.49,8040.36 Z " />
<path stroke="transparent" fill="#000000" transform="matrix(0.0833333 0 0 0.0833333 -190.25 -522)" d="M 6225.96,7996.15 L 6187.08,8024.4 L 6176.97,8007.02 L 6212.56,7981.17 L 6225.96,7996.15 Z " />
<path stroke="transparent" fill="#000000" transform="matrix(0.0833333 0 0 0.0833333 -190.25 -522)" d="M 6186.43,7951.95 L 6157.25,7973.14 L 6147.14,7955.77 L 6173.03,7936.96 L 6186.43,7951.95 Z " />
<path stroke="transparent" fill="#000000" transform="matrix(0.0833333 0 0 0.0833333 -190.25 -522)" d="M 6146.9,7907.74 L 6127.43,7921.88 L 6117.31,7904.51 L 6133.5,7892.75 L 6146.9,7907.74 Z " />
<path stroke="transparent" fill="#000000" transform="matrix(0.0833333 0 0 0.0833333 -190.25 -522)" d="M 6097.48,8837.52 L 6089.84,8814.01 L 6438.25,8334.48 L 6454.43,8346.23 L 6097.48,8837.52 Z " />
<path stroke="transparent" fill="#000000" transform="matrix(0.0833333 0 0 0.0833333 -190.25 -522)" d="M 5535.97,8655.07 L 5523.03,8640.35 L 5533.03,8633.09 L 6089.84,8814.01 L 6097.48,8837.52 L 5535.97,8655.07 Z " />
<path stroke="transparent" fill="#000000" transform="matrix(0.0833333 0 0 0.0833333 -190.25 -522)" d="M 5513.03,8046.13 L 5523.03,8040.35 L 5533.03,8047.62 L 5533.03,8633.09 L 5523.03,8640.35 L 5513.03,8634.58 L 5513.03,8046.13 Z " />
<path stroke="transparent" fill="#000000" transform="matrix(0.0833333 0 0 0.0833333 -190.25 -522)" d="M 5533.03,8047.62 L 5523.03,8040.35 L 5524.17,8029.47 L 6085.73,7847.01 L 6101.6,7862.88 L 5533.03,8047.62 Z " />
<path stroke="transparent" fill="#000000" transform="matrix(0.0833333 0 0 0.0833333 -190.25 -522)" d="M 5003.42,7751.9 L 5003.42,7728.81 L 5524.17,8029.47 L 5523.03,8040.35 L 5513.03,8046.13 L 5003.42,7751.9 Z " />
<path stroke="transparent" fill="#000000" transform="matrix(0.0833333 0 0 0.0833333 -190.25 -522)" d="M 4493.8,8046.13 L 4473.8,8034.58 L 5003.42,7728.81 L 5003.42,7751.9 L 4493.8,8046.13 Z " />
<path stroke="transparent" fill="#000000" transform="matrix(0.0833333 0 0 0.0833333 -190.25 -522)" d="M 4493.8,8634.58 L 4483.8,8640.35 L 4473.8,8634.58 L 4473.8,8034.58 L 4493.8,8046.13 L 4493.8,8634.58 Z " />
<path stroke="transparent" fill="#000000" transform="matrix(0.0833333 0 0 0.0833333 -190.25 -522)" d="M 5003.42,8928.81 L 5003.42,8940.35 L 4993.42,8946.13 L 4483.8,8651.9 L 4483.8,8640.35 L 4493.8,8634.58 L 5003.42,8928.81 Z " />
<path stroke="transparent" fill="#000000" transform="matrix(0.0833333 0 0 0.0833333 -190.25 -522)" d="M 5008.42,8848.56 L 4998.42,8865.88 L 4550.8,8607.45 L 4560.8,8590.13 L 5008.42,8848.56 Z " />
<path stroke="transparent" fill="#000000" transform="matrix(0.0833333 0 0 0.0833333 -190.25 -522)" d="M 5013.42,8946.13 L 5003.42,8940.35 L 5003.42,8928.81 L 5513.03,8634.58 L 5523.03,8640.35 L 5513.43,8657.44 L 5013.42,8946.13 Z " />
<path stroke="transparent" fill="#000000" transform="matrix(0.0833333 0 0 0.0833333 -190.25 -522)" d="M 5013.42,9546.13 L 4993.42,9534.58 L 4993.42,8946.13 L 5003.42,8940.35 L 5013.42,8946.13 L 5013.42,9546.13 Z " />
<path stroke="transparent" fill="#000000" transform="matrix(0.0833333 0 0 0.0833333 -190.25 -522)" d="M 4435.64,9879.71 L 4535.82,9798.77 L 4993.42,9534.58 L 5013.42,9546.13 L 4435.64,9879.71 Z " />
<path stroke="transparent" fill="#000000" transform="matrix(0.0833333 0 0 0.0833333 -190.25 -522)" d="M 3963.73,9552.17 L 3964.18,9540.35 L 3974.18,9534.05 L 4535.82,9798.77 L 4435.64,9879.71 L 3963.73,9552.17 Z " />
<path stroke="transparent" fill="#000000" transform="matrix(0.0833333 0 0 0.0833333 -190.25 -522)" d="M 3954.18,8946.13 L 3964.18,8940.35 L 3974.18,8946.13 L 3974.18,9534.05 L 3964.18,9540.35 L 3954.18,9534.58 L 3954.18,8946.13 Z " />
<path stroke="transparent" fill="#000000" transform="matrix(0.0833333 0 0 0.0833333 -190.25 -522)" d="M 3974.18,8946.13 L 3964.18,8940.35 L 3975.7,8922.16 L 4473.8,8634.58 L 4483.8,8640.35 L 4483.8,8651.9 L 3974.18,8946.13 Z " />
<path stroke="transparent" fill="#000000" transform="matrix(0.0833333 0 0 0.0833333 -190.25 -522)" d="M 3444.57,8651.9 L 3444.57,8628.81 L 3952.67,8922.16 L 3964.18,8940.35 L 3954.18,8946.13 L 3444.57,8651.9 Z " />
<path stroke="transparent" fill="#000000" transform="matrix(0.0833333 0 0 0.0833333 -190.25 -522)" d="M 2934.95,8946.13 L 2914.95,8934.58 L 3444.57,8628.81 L 3444.57,8651.9 L 2934.95,8946.13 Z " />
<path stroke="transparent" fill="#000000" transform="matrix(0.0833333 0 0 0.0833333 -190.25 -522)" d="M 2934.95,9534.58 L 2914.95,9546.13 L 2914.95,8934.58 L 2934.95,8946.13 L 2934.95,9534.58 Z " />
<path stroke="transparent" fill="#000000" transform="matrix(0.0833333 0 0 0.0833333 -190.25 -522)" d="M 2520.96,9826.72 L 2510.96,9809.4 L 2955.95,9552.48 L 2965.95,9569.8 L 2520.96,9826.72 Z " />
<path stroke="transparent" fill="#000000" transform="matrix(0.0833333 0 0 0.0833333 -190.25 -522)" d="M 2484.96,9764.36 L 2474.96,9747.04 L 2919.95,9490.13 L 2929.95,9507.45 L 2484.96,9764.36 Z " />
<path stroke="transparent" fill="#000000" transform="matrix(0.0833333 0 0 0.0833333 -190.25 -522)" d="M 3444.57,9828.81 L 3444.57,9840.35 L 3430.91,9844.01 L 2914.95,9546.13 L 2934.95,9534.58 L 3444.57,9828.81 Z " />
<path stroke="transparent" fill="#000000" transform="matrix(0.0833333 0 0 0.0833333 -190.25 -522)" d="M 3458.23,9844.01 L 3444.57,9840.35 L 3444.57,9828.81 L 3954.18,9534.58 L 3964.18,9540.35 L 3963.73,9552.17 L 3458.23,9844.01 Z " />
<path stroke="transparent" fill="#000000" transform="matrix(0.0833333 0 0 0.0833333 -190.25 -522)" d="M 3753.23,10355 L 3735.91,10365 L 3444.57,9860.35 L 3444.57,9840.35 L 3458.23,9844.01 L 3753.23,10355 Z " />
<path stroke="transparent" fill="#000000" transform="matrix(0.0833333 0 0 0.0833333 -190.25 -522)" d="M 3153.23,10365 L 3135.91,10355 L 3430.91,9844.01 L 3444.57,9840.35 L 3444.57,9860.35 L 3153.23,10365 Z " />
<path stroke="transparent" fill="#000000" transform="matrix(0.0833333 0 0 0.0833333 -190.25 -522)" d="M 3904.18,8340.35 L 4024.18,8340.35 L 3975.7,8922.16 L 3964.18,8940.35 L 3952.67,8922.16 L 3904.18,8340.35 Z " />
<path stroke="transparent" fill="#000000" transform="matrix(0.0833333 0 0 0.0833333 -190.25 -522)" d="M 5526.08,7437.37 L 5645.42,7449.91 L 5641.51,7469.61 L 5525.81,7457.45 L 5526.08,7437.37 Z " />
<path stroke="transparent" fill="#000000" transform="matrix(0.0833333 0 0 0.0833333 -190.25 -522)" d="M 5525.29,7496.05 L 5633.99,7507.48 L 5630.08,7527.18 L 5525.02,7516.14 L 5525.29,7496.05 Z " />
<path stroke="transparent" fill="#000000" transform="matrix(0.0833333 0 0 0.0833333 -190.25 -522)" d="M 5524.5,7554.74 L 5622.56,7565.04 L 5618.64,7584.74 L 5524.23,7574.82 L 5524.5,7554.74 Z " />
<path stroke="transparent" fill="#000000" transform="matrix(0.0833333 0 0 0.0833333 -190.25 -522)" d="M 5523.72,7613.42 L 5611.12,7622.61 L 5607.21,7642.31 L 5523.45,7633.5 L 5523.72,7613.42 Z " />
<path stroke="transparent" fill="#000000" transform="matrix(0.0833333 0 0 0.0833333 -190.25 -522)" d="M 5522.93,7672.1 L 5599.69,7680.17 L 5595.78,7699.87 L 5522.66,7692.19 L 5522.93,7672.1 Z " />
<path stroke="transparent" fill="#000000" transform="matrix(0.0833333 0 0 0.0833333 -190.25 -522)" d="M 5522.14,7730.79 L 5588.26,7737.74 L 5584.35,7757.44 L 5521.88,7750.87 L 5522.14,7730.79 Z " />
<path stroke="transparent" fill="#000000" transform="matrix(0.0833333 0 0 0.0833333 -190.25 -522)" d="M 5521.36,7789.47 L 5576.83,7795.3 L 5572.92,7815 L 5521.09,7809.55 L 5521.36,7789.47 Z " />
<path stroke="transparent" fill="#000000" transform="matrix(0.0833333 0 0 0.0833333 -190.25 -522)" d="M 5520.57,7848.16 L 5565.4,7852.87 L 5561.48,7872.57 L 5520.3,7868.24 L 5520.57,7848.16 Z " />
<path stroke="transparent" fill="#000000" transform="matrix(0.0833333 0 0 0.0833333 -190.25 -522)" d="M 5519.79,7906.84 L 5553.96,7910.43 L 5550.05,7930.13 L 5519.52,7926.92 L 5519.79,7906.84 Z " />
<path stroke="transparent" fill="#000000" transform="matrix(0.0833333 0 0 0.0833333 -190.25 -522)" d="M 5519,7965.52 L 5542.53,7968 L 5538.62,7987.7 L 5518.73,7985.61 L 5519,7965.52 Z " />
<path stroke="transparent" fill="#000000" transform="matrix(0.0833333 0 0 0.0833333 -190.25 -522)" d="M 5645.42,9230.8 L 5526.08,9243.34 L 5513.43,8657.44 L 5523.03,8640.35 L 5535.97,8655.07 L 5645.42,9230.8 Z " />
<path stroke="transparent" fill="#000000" transform="matrix(0.0833333 0 0 0.0833333 -190.25 -522)" d="M 6869.2,7148.65 L 6862.73,7170.47 L 6286.8,7292.89 L 6271.35,7275.73 L 6869.2,7148.65 Z " />
<path stroke="transparent" fill="#000000" transform="matrix(0.0833333 0 0 0.0833333 -190.25 -522)" d="M 6945.24,6685.97 L 6964.56,6691.15 L 6836.1,7170.55 L 6816.78,7165.38 L 6945.24,6685.97 Z " />
<path stroke="transparent" fill="#000000" transform="matrix(0.0833333 0 0 0.0833333 -190.25 -522)" d="M 7014.78,6704.61 L 7034.1,6709.79 L 6905.02,7191.55 L 6885.7,7186.37 L 7014.78,6704.61 Z " />
<path stroke="transparent" fill="#000000" transform="matrix(0.0833333 0 0 0.0833333 -190.25 -522)" d="M 7221.93,7501.39 L 7207.79,7515.53 L 6862.73,7170.47 L 6869.2,7148.65 L 7221.93,7501.39 Z " />
<path stroke="transparent" fill="#000000" transform="matrix(0.0833333 0 0 0.0833333 -190.25 -522)" d="M 3840.1,6329.17 L 3854.24,6315.03 L 4274.42,6735.21 L 4271.44,6746.37 L 4260.28,6749.35 L 3840.1,6329.17 Z " />
</svg>
