<?xml version="1.0" standalone="no" ?>
<!DOCTYPE svg PUBLIC "-//W3C//DTD SVG 1.1//EN" "http://www.w3.org/Graphics/SVG/1.1/DTD/svg11.dtd">
<svg width="434px" height="247px" viewBox="0 0 434 247" style="background-color: #ffffff00" xmlns="http://www.w3.org/2000/svg" xmlns:xlink="http://www.w3.org/1999/xlink" version="1.1" >
<text x="0" y="0" stroke="transparent" fill="#000000" transform="matrix(0.0833333 0 0 0.0833333 405.151 17.9653)" style="font:normal normal normal 200px 'Arial'" >
OH</text>
<text x="0" y="0" stroke="transparent" fill="#000000" transform="matrix(0.0833333 0 0 0.0833333 188.641 92.9619)" style="font:normal normal normal 200px 'Arial'" >
O</text>
<text x="0" y="0" stroke="transparent" fill="#000000" transform="matrix(0.0833333 0 0 0.0833333 3.3963 92.9619)" style="font:normal normal normal 200px 'Arial'" >
HO</text>
<text x="0" y="0" stroke="transparent" fill="#000000" transform="matrix(0.0833333 0 0 0.0833333 102.039 242.965)" style="font:normal normal normal 200px 'Arial'" >
OH</text>
<text x="0" y="0" stroke="transparent" fill="#000000" transform="matrix(0.0833333 0 0 0.0833333 275.248 192.964)" style="font:normal normal normal 200px 'Arial'" >
OH</text>
<path stroke="transparent" fill="#000000" transform="matrix(0.0833333 0 0 0.0833333 -219.208 -236)" d="M 7060.7,3275.36 L 7050.7,3269.59 L 7050.7,3258.04 L 7465.71,3018.43 L 7475.71,3035.75 L 7060.7,3275.36 Z " />
<path stroke="transparent" fill="#000000" transform="matrix(0.0833333 0 0 0.0833333 -219.208 -236)" d="M 6531.09,2981.13 L 6531.09,2958.04 L 7050.7,3258.04 L 7050.7,3269.59 L 7040.7,3275.36 L 6531.09,2981.13 Z " />
<path stroke="transparent" fill="#000000" transform="matrix(0.0833333 0 0 0.0833333 -219.208 -236)" d="M 6526.08,3061.38 L 6536.08,3044.06 L 6983.7,3302.5 L 6973.7,3319.82 L 6526.08,3061.38 Z " />
<path stroke="transparent" fill="#000000" transform="matrix(0.0833333 0 0 0.0833333 -219.208 -236)" d="M 6021.48,3275.3 L 6001.48,3263.76 L 6531.09,2958.04 L 6531.09,2981.13 L 6021.48,3275.3 Z " />
<path stroke="transparent" fill="#000000" transform="matrix(0.0833333 0 0 0.0833333 -219.208 -236)" d="M 6021.48,3863.77 L 6011.48,3869.54 L 6001.48,3863.77 L 6001.48,3263.76 L 6021.48,3275.3 L 6021.48,3863.77 Z " />
<path stroke="transparent" fill="#000000" transform="matrix(0.0833333 0 0 0.0833333 -219.208 -236)" d="M 6093.48,3827.97 L 6073.48,3827.97 L 6073.48,3311.1 L 6093.48,3311.1 L 6093.48,3827.97 Z " />
<path stroke="transparent" fill="#000000" transform="matrix(0.0833333 0 0 0.0833333 -219.208 -236)" d="M 5501.87,4175.32 L 5491.87,4169.55 L 5491.87,4158 L 6001.48,3863.77 L 6011.48,3869.54 L 6011.48,3881.09 L 5501.87,4175.32 Z " />
<path stroke="transparent" fill="#000000" transform="matrix(0.0833333 0 0 0.0833333 -219.208 -236)" d="M 5067.23,3935.96 L 5077.23,3918.63 L 5491.87,4158 L 5491.87,4169.55 L 5481.87,4175.32 L 5067.23,3935.96 Z " />
<path stroke="transparent" fill="#000000" transform="matrix(0.0833333 0 0 0.0833333 -219.208 -236)" d="M 4462.58,4175.32 L 4452.58,4169.55 L 4452.58,4158 L 4867.59,3918.39 L 4877.59,3935.71 L 4462.58,4175.32 Z " />
<path stroke="transparent" fill="#000000" transform="matrix(0.0833333 0 0 0.0833333 -219.208 -236)" d="M 3932.97,3881.09 L 3932.97,3858 L 4452.58,4158 L 4452.58,4169.55 L 4442.58,4175.32 L 3932.97,3881.09 Z " />
<path stroke="transparent" fill="#000000" transform="matrix(0.0833333 0 0 0.0833333 -219.208 -236)" d="M 3927.97,3961.34 L 3937.97,3944.02 L 4385.58,4202.46 L 4375.58,4219.78 L 3927.97,3961.34 Z " />
<path stroke="transparent" fill="#000000" transform="matrix(0.0833333 0 0 0.0833333 -219.208 -236)" d="M 3423.36,4175.32 L 3413.36,4169.55 L 3413.36,4158 L 3932.97,3858 L 3932.97,3881.09 L 3423.36,4175.32 Z " />
<path stroke="transparent" fill="#000000" transform="matrix(0.0833333 0 0 0.0833333 -219.208 -236)" d="M 2988.72,3935.95 L 2998.72,3918.63 L 3413.36,4158 L 3413.36,4169.55 L 3403.36,4175.32 L 2988.72,3935.95 Z " />
<path stroke="transparent" fill="#000000" transform="matrix(0.0833333 0 0 0.0833333 -219.208 -236)" d="M 3423.36,4763.79 L 3403.36,4775.34 L 3403.36,4175.32 L 3413.36,4169.55 L 3423.36,4175.32 L 3423.36,4763.79 Z " />
<path stroke="transparent" fill="#000000" transform="matrix(0.0833333 0 0 0.0833333 -219.208 -236)" d="M 3495.36,4727.99 L 3475.36,4727.99 L 3475.36,4211.12 L 3495.36,4211.12 L 3495.36,4727.99 Z " />
<path stroke="transparent" fill="#000000" transform="matrix(0.0833333 0 0 0.0833333 -219.208 -236)" d="M 3932.97,5058.02 L 3932.97,5069.57 L 3922.97,5075.34 L 3403.36,4775.34 L 3423.36,4763.79 L 3932.97,5058.02 Z " />
<path stroke="transparent" fill="#000000" transform="matrix(0.0833333 0 0 0.0833333 -219.208 -236)" d="M 3942.97,5564.42 L 3922.97,5564.42 L 3922.97,5075.34 L 3932.97,5069.57 L 3942.97,5075.34 L 3942.97,5564.42 Z " />
<path stroke="transparent" fill="#000000" transform="matrix(0.0833333 0 0 0.0833333 -219.208 -236)" d="M 4442.58,4763.79 L 4452.58,4769.56 L 4452.58,4781.11 L 3942.97,5075.34 L 3932.97,5069.57 L 3932.97,5058.02 L 4442.58,4763.79 Z " />
<path stroke="transparent" fill="#000000" transform="matrix(0.0833333 0 0 0.0833333 -219.208 -236)" d="M 4375.58,4719.33 L 4385.58,4736.65 L 3937.97,4995.09 L 3927.97,4977.77 L 4375.58,4719.33 Z " />
<path stroke="transparent" fill="#000000" transform="matrix(0.0833333 0 0 0.0833333 -219.208 -236)" d="M 4462.58,4763.79 L 4452.58,4769.56 L 4442.58,4763.79 L 4442.58,4175.32 L 4452.58,4169.55 L 4462.58,4175.32 L 4462.58,4763.79 Z " />
<path stroke="transparent" fill="#000000" transform="matrix(0.0833333 0 0 0.0833333 -219.208 -236)" d="M 4972.19,5058.02 L 4972.19,5081.12 L 4452.58,4781.11 L 4452.58,4769.56 L 4462.58,4763.79 L 4972.19,5058.02 Z " />
<path stroke="transparent" fill="#000000" transform="matrix(0.0833333 0 0 0.0833333 -219.208 -236)" d="M 5481.87,4763.79 L 5491.87,4769.56 L 5491.87,4781.11 L 4972.19,5081.12 L 4972.19,5058.02 L 5481.87,4763.79 Z " />
<path stroke="transparent" fill="#000000" transform="matrix(0.0833333 0 0 0.0833333 -219.208 -236)" d="M 5501.87,4763.79 L 5491.87,4769.56 L 5481.87,4763.79 L 5481.87,4175.32 L 5491.87,4169.55 L 5501.87,4175.32 L 5501.87,4763.79 Z " />
<path stroke="transparent" fill="#000000" transform="matrix(0.0833333 0 0 0.0833333 -219.208 -236)" d="M 5923.86,5007.43 L 5913.86,5024.76 L 5491.87,4781.11 L 5491.87,4769.56 L 5501.87,4763.79 L 5923.86,5007.43 Z " />
<path stroke="transparent" fill="#000000" transform="matrix(0.0833333 0 0 0.0833333 -219.208 -236)" d="M 6531.09,4158 L 6531.09,4181.1 L 6011.48,3881.09 L 6011.48,3869.54 L 6021.48,3863.77 L 6531.09,4158 Z " />
<path stroke="transparent" fill="#000000" transform="matrix(0.0833333 0 0 0.0833333 -219.208 -236)" d="M 7040.7,3863.77 L 7060.7,3875.32 L 6531.09,4181.1 L 6531.09,4158 L 7040.7,3863.77 Z " />
<path stroke="transparent" fill="#000000" transform="matrix(0.0833333 0 0 0.0833333 -219.208 -236)" d="M 6973.7,3819.31 L 6983.7,3836.63 L 6536.09,4095.07 L 6526.09,4077.75 L 6973.7,3819.31 Z " />
<path stroke="transparent" fill="#000000" transform="matrix(0.0833333 0 0 0.0833333 -219.208 -236)" d="M 7060.7,3875.32 L 7040.7,3863.77 L 7040.7,3275.36 L 7050.7,3269.59 L 7060.7,3275.36 L 7060.7,3875.32 Z " />
</svg>
