<?xml version="1.0" standalone="no" ?>
<!DOCTYPE svg PUBLIC "-//W3C//DTD SVG 1.1//EN" "http://www.w3.org/Graphics/SVG/1.1/DTD/svg11.dtd">
<svg width="1167px" height="317px" viewBox="0 0 1167 317" style="background-color: #ffffff00" xmlns="http://www.w3.org/2000/svg" xmlns:xlink="http://www.w3.org/1999/xlink" version="1.1" >
<path stroke="transparent" fill="#000000" transform="matrix(0.0833333 0 0 0.0833333 -72.7917 -337.5)" d="M 5677.58,7621.54 L 5657.74,7621.6 L 5656.42,7106.44 L 5676.26,7106.39 L 5677.58,7621.54 Z " />
<path stroke="transparent" fill="#000000" transform="matrix(0.0833333 0 0 0.0833333 -72.7917 -337.5)" d="M 5605.61,7621.73 L 5585.76,7621.78 L 5584.42,7095.4 L 5604.26,7095.35 L 5605.61,7621.73 Z " />
<path stroke="transparent" fill="#000000" transform="matrix(0.0833333 0 0 0.0833333 -72.7917 -337.5)" d="M 5629.2,7139.47 L 5631.62,7115.11 L 6148.99,6814.61 L 6149.05,6837.52 L 5629.2,7139.47 Z " />
<path stroke="transparent" fill="#000000" transform="matrix(0.0833333 0 0 0.0833333 -72.7917 -337.5)" d="M 6149.05,6837.52 L 6148.99,6814.61 L 6669.22,7113.17 L 6669.28,7136.09 L 6149.05,6837.52 Z " />
<path stroke="transparent" fill="#000000" transform="matrix(0.0833333 0 0 0.0833333 -72.7917 -337.5)" d="M 6669.28,7136.09 L 6669.22,7113.17 L 7187.9,6811.95 L 7187.96,6834.86 L 6669.28,7136.09 Z " />
<path stroke="transparent" fill="#000000" transform="matrix(0.0833333 0 0 0.0833333 -72.7917 -337.5)" d="M 7187.96,6834.86 L 7187.9,6811.95 L 7708.13,7110.51 L 7708.19,7133.43 L 7187.96,6834.86 Z " />
<path stroke="transparent" fill="#000000" transform="matrix(0.0833333 0 0 0.0833333 -72.7917 -337.5)" d="M 7708.19,7133.43 L 7708.13,7110.51 L 8226.74,6809.29 L 8226.8,6832.2 L 7708.19,7133.43 Z " />
<path stroke="transparent" fill="#000000" transform="matrix(0.0833333 0 0 0.0833333 -72.7917 -337.5)" d="M 8226.8,6832.2 L 8226.74,6809.29 L 8746.97,7107.85 L 8747.02,7130.77 L 8226.8,6832.2 Z " />
<path stroke="transparent" fill="#000000" transform="matrix(0.0833333 0 0 0.0833333 -72.7917 -337.5)" d="M 8747.02,7130.77 L 8746.97,7107.85 L 9265.65,6806.63 L 9265.71,6829.54 L 8747.02,7130.77 Z " />
<path stroke="transparent" fill="#000000" transform="matrix(0.0833333 0 0 0.0833333 -72.7917 -337.5)" d="M 9265.71,6829.54 L 9265.65,6806.63 L 9788.47,7106.72 L 9783.2,7126.58 L 9265.71,6829.54 Z " />
<path stroke="transparent" fill="#000000" transform="matrix(0.0833333 0 0 0.0833333 -72.7917 -337.5)" d="M 9783.2,7126.58 L 9788.47,7106.72 L 10382.9,7105.2 L 10388.3,7125.03 L 9783.2,7126.58 Z " />
<path stroke="transparent" fill="#000000" transform="matrix(0.0833333 0 0 0.0833333 -72.7917 -337.5)" d="M 9804.96,7054.55 L 9804.91,7034.7 L 10366.1,7033.27 L 10366.2,7053.11 L 9804.96,7054.55 Z " />
<path stroke="transparent" fill="#000000" transform="matrix(0.0833333 0 0 0.0833333 -72.7917 -337.5)" d="M 10388.3,7125.03 L 10382.9,7105.2 L 10904.3,6802.43 L 10904.3,6825.34 L 10388.3,7125.03 Z " />
<path stroke="transparent" fill="#000000" transform="matrix(0.0833333 0 0 0.0833333 -72.7917 -337.5)" d="M 10904.3,6825.34 L 10904.3,6802.43 L 11424.5,7101 L 11424.6,7123.91 L 10904.3,6825.34 Z " />
<path stroke="transparent" fill="#000000" transform="matrix(0.0833333 0 0 0.0833333 -72.7917 -337.5)" d="M 11424.6,7123.91 L 11424.5,7101 L 11943.2,6799.77 L 11943.3,6822.69 L 11424.6,7123.91 Z " />
<path stroke="transparent" fill="#000000" transform="matrix(0.0833333 0 0 0.0833333 -72.7917 -337.5)" d="M 11943.3,6822.69 L 11943.2,6799.77 L 12463.3,7098.34 L 12463.4,7121.25 L 11943.3,6822.69 Z " />
<path stroke="transparent" fill="#000000" transform="matrix(0.0833333 0 0 0.0833333 -72.7917 -337.5)" d="M 12463.4,7121.25 L 12463.3,7098.34 L 12982,6797.11 L 12982.1,6820.03 L 12463.4,7121.25 Z " />
<path stroke="transparent" fill="#000000" transform="matrix(0.0833333 0 0 0.0833333 -72.7917 -337.5)" d="M 12982.1,6820.03 L 12982,6797.11 L 13502.3,7095.68 L 13502.3,7118.59 L 12982.1,6820.03 Z " />
<path stroke="transparent" fill="#000000" transform="matrix(0.0833333 0 0 0.0833333 -72.7917 -337.5)" d="M 13502.3,7118.59 L 13502.3,7095.68 L 14020.9,6794.45 L 14020.9,6817.37 L 13502.3,7118.59 Z " />
<path stroke="transparent" fill="#000000" transform="matrix(0.0833333 0 0 0.0833333 -72.7917 -337.5)" d="M 14020.9,6817.37 L 14020.9,6794.45 L 14546.1,7095.87 L 14536.2,7113.08 L 14020.9,6817.37 Z " />
<text x="0" y="0" stroke="transparent" fill="#000000" transform="matrix(0.0833333 0 0 0.0833333 344.909 223.122)" style="font:normal normal normal 200px 'Arial'" >
O</text>
<text x="0" y="0" stroke="transparent" fill="#000000" transform="matrix(0.0833333 0 0 0.0833333 257.935 98.5967)" style="font:normal normal normal 200px 'Arial'" >
O</text>
<text x="0" y="0" stroke="transparent" fill="#000000" transform="matrix(0.0833333 0 0 0.0833333 215.558 123.502)" style="font:normal normal normal 200px 'Arial'" >
P</text>
<text x="0" y="0" stroke="transparent" fill="#000000" transform="matrix(0.0833333 0 0 0.0833333 214.502 173.487)" style="font:normal normal normal 200px 'Arial'" >
O</text>
<text x="0" y="0" stroke="transparent" fill="#000000" transform="matrix(0.0833333 0 0 0.0833333 214.698 73.5182)" style="font:normal normal normal 200px 'Arial'" >
O</text>
<text x="0" y="0" stroke="transparent" fill="#000000" transform="matrix(0.0833333 0 0 0.0833333 227.698 67.0182)" style="font:normal normal normal 150px 'Arial'" >
-</text>
<text x="0" y="0" stroke="transparent" fill="#000000" transform="matrix(0.0833333 0 0 0.0833333 171.362 98.4239)" style="font:normal normal normal 200px 'Arial'" >
O</text>
<text x="0" y="0" stroke="transparent" fill="#000000" transform="matrix(0.0833333 0 0 0.0833333 41.9559 123.162)" style="font:normal normal normal 200px 'Arial'" >
N</text>
<text x="0" y="0" stroke="transparent" fill="#000000" transform="matrix(0.0833333 0 0 0.0833333 53.9921 116.662)" style="font:normal normal normal 150px 'Arial'" >
+</text>
<text x="0" y="0" stroke="transparent" fill="#000000" transform="matrix(0.0833333 0 0 0.0833333 369.901 93.2633)" style="font:normal normal normal 200px 'Arial'" >
O</text>
<text x="0" y="0" stroke="transparent" fill="#000000" transform="matrix(0.0833333 0 0 0.0833333 413.25 18.3246)" style="font:normal normal normal 200px 'Arial'" >
O</text>
<text x="0" y="0" stroke="transparent" fill="#000000" transform="matrix(0.0833333 0 0 0.0833333 390.037 312.923)" style="font:normal normal normal 200px 'Arial'" >
O</text>
<path stroke="transparent" fill="#000000" transform="matrix(0.0833333 0 0 0.0833333 -72.7917 -337.5)" d="M 5378.85,6130 L 5401.77,6130 L 5152.38,6561.96 L 5135.2,6552.04 L 5378.85,6130 Z " />
<path stroke="transparent" fill="#000000" transform="matrix(0.0833333 0 0 0.0833333 -72.7917 -337.5)" d="M 5084.69,5620.54 L 5090.41,5610.62 L 5101.87,5610.62 L 5401.77,6130 L 5378.85,6130 L 5084.69,5620.54 Z " />
<path stroke="transparent" fill="#000000" transform="matrix(0.0833333 0 0 0.0833333 -72.7917 -337.5)" d="M 4486.44,5620.54 L 4494.8,5600.7 L 5084.69,5600.7 L 5090.41,5610.62 L 5084.69,5620.54 L 4486.44,5620.54 Z " />
<path stroke="transparent" fill="#000000" transform="matrix(0.0833333 0 0 0.0833333 -72.7917 -337.5)" d="M 4123,5247.64 L 4137.21,5233.79 L 4494.8,5600.7 L 4486.44,5620.54 L 4123,5247.64 Z " />
<path stroke="transparent" fill="#000000" transform="matrix(0.0833333 0 0 0.0833333 -72.7917 -337.5)" d="M 3624.87,5409.05 L 3614.98,5391.85 L 3941.87,5203.98 L 3951.75,5221.18 L 3624.87,5409.05 Z " />
<path stroke="transparent" fill="#000000" transform="matrix(0.0833333 0 0 0.0833333 -72.7917 -337.5)" d="M 3571.64,5948.51 L 3551.79,5948.47 L 3552.53,5571.66 L 3572.38,5571.7 L 3571.64,5948.51 Z " />
<path stroke="transparent" fill="#000000" transform="matrix(0.0833333 0 0 0.0833333 -72.7917 -337.5)" d="M 3499.66,5948.37 L 3479.82,5948.33 L 3480.56,5571.52 L 3500.4,5571.56 L 3499.66,5948.37 Z " />
<path stroke="transparent" fill="#000000" transform="matrix(0.0833333 0 0 0.0833333 -72.7917 -337.5)" d="M 3517.72,4974.28 L 3537.56,4974.32 L 3536.82,5351.13 L 3516.98,5351.09 L 3517.72,4974.28 Z " />
<path stroke="transparent" fill="#000000" transform="matrix(0.0833333 0 0 0.0833333 -72.7917 -337.5)" d="M 3103.03,5219.76 L 3112.98,5202.6 L 3431.87,5387.56 L 3421.91,5404.72 L 3103.03,5219.76 Z " />
<path stroke="transparent" fill="#000000" transform="matrix(0.0833333 0 0 0.0833333 -72.7917 -337.5)" d="M 2487.79,5463.41 L 2487.84,5440.5 L 2902.99,5201.91 L 2912.87,5219.11 L 2487.79,5463.41 Z " />
<path stroke="transparent" fill="#000000" transform="matrix(0.0833333 0 0 0.0833333 -72.7917 -337.5)" d="M 1968.98,5162.53 L 1969.02,5139.62 L 2487.84,5440.5 L 2487.79,5463.41 L 1968.98,5162.53 Z " />
<path stroke="transparent" fill="#000000" transform="matrix(0.0833333 0 0 0.0833333 -72.7917 -337.5)" d="M 1627.24,5358.94 L 1617.35,5341.73 L 1969.02,5139.62 L 1968.98,5162.53 L 1627.24,5358.94 Z " />
<path stroke="transparent" fill="#000000" transform="matrix(0.0833333 0 0 0.0833333 -72.7917 -337.5)" d="M 933.887,5757.42 L 924,5740.21 L 1333.62,5504.8 L 1343.51,5522 L 933.887,5757.42 Z " />
<path stroke="transparent" fill="#000000" transform="matrix(0.0833333 0 0 0.0833333 -72.7917 -337.5)" d="M 1457.68,6049.71 L 1437.84,6049.67 L 1438.81,5567.51 L 1458.65,5567.55 L 1457.68,6049.71 Z " />
<path stroke="transparent" fill="#000000" transform="matrix(0.0833333 0 0 0.0833333 -72.7917 -337.5)" d="M 925.141,5157.59 L 935.096,5140.42 L 1350.03,5381.09 L 1340.07,5398.25 L 925.141,5157.59 Z " />
<path stroke="transparent" fill="#000000" transform="matrix(0.0833333 0 0 0.0833333 -72.7917 -337.5)" d="M 5321.24,5190.96 L 5338.42,5200.88 L 5101.87,5610.62 L 5090.41,5610.62 L 5084.69,5600.7 L 5321.24,5190.96 Z " />
<path stroke="transparent" fill="#000000" transform="matrix(0.0833333 0 0 0.0833333 -72.7917 -337.5)" d="M 5910.02,4780.23 L 5910,4803.14 L 5488.14,5046.24 L 5478.24,5029.04 L 5910.02,4780.23 Z " />
<path stroke="transparent" fill="#000000" transform="matrix(0.0833333 0 0 0.0833333 -72.7917 -337.5)" d="M 5864.5,4311.94 L 5884.34,4311.96 L 5883.93,4812.44 L 5864.09,4812.43 L 5864.5,4311.94 Z " />
<path stroke="transparent" fill="#000000" transform="matrix(0.0833333 0 0 0.0833333 -72.7917 -337.5)" d="M 5936.47,4312 L 5956.31,4312.02 L 5955.9,4812.5 L 5936.06,4812.49 L 5936.47,4312 Z " />
<path stroke="transparent" fill="#000000" transform="matrix(0.0833333 0 0 0.0833333 -72.7917 -337.5)" d="M 6429.16,5080.55 L 6429.14,5103.47 L 5910,4803.14 L 5910.02,4780.23 L 6429.16,5080.55 Z " />
<path stroke="transparent" fill="#000000" transform="matrix(0.0833333 0 0 0.0833333 -72.7917 -337.5)" d="M 6948.86,4781.08 L 6948.84,4803.99 L 6429.14,5103.47 L 6429.16,5080.55 L 6948.86,4781.08 Z " />
<path stroke="transparent" fill="#000000" transform="matrix(0.0833333 0 0 0.0833333 -72.7917 -337.5)" d="M 7468.07,5081.4 L 7468.06,5104.31 L 6948.84,4803.99 L 6948.86,4781.08 L 7468.07,5081.4 Z " />
<path stroke="transparent" fill="#000000" transform="matrix(0.0833333 0 0 0.0833333 -72.7917 -337.5)" d="M 7987.78,4781.93 L 7987.76,4804.84 L 7468.06,5104.31 L 7468.07,5081.4 L 7987.78,4781.93 Z " />
<path stroke="transparent" fill="#000000" transform="matrix(0.0833333 0 0 0.0833333 -72.7917 -337.5)" d="M 8506.92,5082.25 L 8506.9,5105.16 L 7987.76,4804.84 L 7987.78,4781.93 L 8506.92,5082.25 Z " />
<path stroke="transparent" fill="#000000" transform="matrix(0.0833333 0 0 0.0833333 -72.7917 -337.5)" d="M 9026.62,4782.78 L 9026.6,4805.69 L 8506.9,5105.16 L 8506.92,5082.25 L 9026.62,4782.78 Z " />
<path stroke="transparent" fill="#000000" transform="matrix(0.0833333 0 0 0.0833333 -72.7917 -337.5)" d="M 9545.83,5083.1 L 9545.81,5106.01 L 9026.6,4805.69 L 9026.62,4782.78 L 9545.83,5083.1 Z " />
<path stroke="transparent" fill="#000000" transform="matrix(0.0833333 0 0 0.0833333 -72.7917 -337.5)" d="M 10062.8,4785.16 L 10068.1,4805.01 L 9545.81,5106.01 L 9545.83,5083.1 L 10062.8,4785.16 Z " />
<path stroke="transparent" fill="#000000" transform="matrix(0.0833333 0 0 0.0833333 -72.7917 -337.5)" d="M 10667.9,4785.66 L 10662.6,4805.49 L 10068.1,4805.01 L 10062.8,4785.16 L 10667.9,4785.66 Z " />
<path stroke="transparent" fill="#000000" transform="matrix(0.0833333 0 0 0.0833333 -72.7917 -337.5)" d="M 10645.9,4857.61 L 10645.9,4877.45 L 10084.7,4877 L 10084.7,4857.15 L 10645.9,4857.61 Z " />
<path stroke="transparent" fill="#000000" transform="matrix(0.0833333 0 0 0.0833333 -72.7917 -337.5)" d="M 11184.5,5084.44 L 11184.4,5107.35 L 10662.6,4805.49 L 10667.9,4785.66 L 11184.5,5084.44 Z " />
<path stroke="transparent" fill="#000000" transform="matrix(0.0833333 0 0 0.0833333 -72.7917 -337.5)" d="M 11704.2,4784.97 L 11704.1,4807.88 L 11184.4,5107.35 L 11184.5,5084.44 L 11704.2,4784.97 Z " />
<path stroke="transparent" fill="#000000" transform="matrix(0.0833333 0 0 0.0833333 -72.7917 -337.5)" d="M 12223.4,5085.29 L 12223.4,5108.2 L 11704.1,4807.88 L 11704.2,4784.97 L 12223.4,5085.29 Z " />
<path stroke="transparent" fill="#000000" transform="matrix(0.0833333 0 0 0.0833333 -72.7917 -337.5)" d="M 12743,4785.82 L 12743,4808.73 L 12223.4,5108.2 L 12223.4,5085.29 L 12743,4785.82 Z " />
<path stroke="transparent" fill="#000000" transform="matrix(0.0833333 0 0 0.0833333 -72.7917 -337.5)" d="M 13262.2,5086.14 L 13262.2,5109.05 L 12743,4808.73 L 12743,4785.82 L 13262.2,5086.14 Z " />
<path stroke="transparent" fill="#000000" transform="matrix(0.0833333 0 0 0.0833333 -72.7917 -337.5)" d="M 13781.9,4786.67 L 13781.9,4809.58 L 13262.2,5109.05 L 13262.2,5086.14 L 13781.9,4786.67 Z " />
<path stroke="transparent" fill="#000000" transform="matrix(0.0833333 0 0 0.0833333 -72.7917 -337.5)" d="M 14301.1,5086.99 L 14301,5109.9 L 13781.9,4809.58 L 13781.9,4786.67 L 14301.1,5086.99 Z " />
<path stroke="transparent" fill="#000000" transform="matrix(0.0833333 0 0 0.0833333 -72.7917 -337.5)" d="M 14815.8,4790.37 L 14825.7,4807.57 L 14301,5109.9 L 14301.1,5086.99 L 14815.8,4790.37 Z " />
<path stroke="transparent" fill="#000000" transform="matrix(0.0833333 0 0 0.0833333 -72.7917 -337.5)" d="M 5172.65,6735.47 L 5185.8,6720.61 L 5631.62,7115.11 L 5629.2,7139.47 L 5172.65,6735.47 Z " />
</svg>
