<?xml version="1.0" standalone="no" ?>
<!DOCTYPE svg PUBLIC "-//W3C//DTD SVG 1.1//EN" "http://www.w3.org/Graphics/SVG/1.1/DTD/svg11.dtd">
<svg width="327px" height="115px" viewBox="0 0 327 115" style="background-color: #ffffff00" xmlns="http://www.w3.org/2000/svg" xmlns:xlink="http://www.w3.org/1999/xlink" version="1.1" >
<text x="0" y="0" stroke="transparent" fill="#000000" transform="matrix(0.0833333 0 0 0.0833333 273.018 111.327)" style="font:normal normal normal 200px 'Arial'" >
O</text>
<text x="0" y="0" stroke="transparent" fill="#000000" transform="matrix(0.0833333 0 0 0.0833333 96.0618 20.8791)" style="font:normal normal normal 200px 'Arial'" >
N</text>
<text x="0" y="0" stroke="transparent" fill="#000000" transform="matrix(0.0833333 0 0 0.0833333 4.13252 61.33)" style="font:normal normal normal 200px 'Arial'" >
HO</text>
<text x="0" y="0" stroke="transparent" fill="#000000" transform="matrix(0.0833333 0 0 0.0833333 95.5611 101.78)" style="font:normal normal normal 200px 'Arial'" >
O</text>
<path stroke="transparent" fill="#000000" transform="matrix(0.0833333 0 0 0.0833333 -278.208 -269)" d="M 6173.1,4197.48 L 6173.1,4185.94 L 6183.1,4180.16 L 6605.1,4423.8 L 6595.1,4441.12 L 6173.1,4197.48 Z " />
<path stroke="transparent" fill="#000000" transform="matrix(0.0833333 0 0 0.0833333 -278.208 -269)" d="M 6163.1,3591.71 L 6183.11,3580.16 L 6183.1,4180.16 L 6173.1,4185.94 L 6163.1,4180.16 L 6163.1,3591.71 Z " />
<path stroke="transparent" fill="#000000" transform="matrix(0.0833333 0 0 0.0833333 -278.208 -269)" d="M 6091.1,3627.5 L 6111.1,3627.5 L 6111.1,4144.37 L 6091.1,4144.37 L 6091.1,3627.5 Z " />
<path stroke="transparent" fill="#000000" transform="matrix(0.0833333 0 0 0.0833333 -278.208 -269)" d="M 5653.54,3297.46 L 5653.54,3274.37 L 6183.11,3580.16 L 6163.1,3591.71 L 5653.54,3297.46 Z " />
<path stroke="transparent" fill="#000000" transform="matrix(0.0833333 0 0 0.0833333 -278.208 -269)" d="M 5143.91,3591.69 L 5133.91,3585.92 L 5132.77,3575.03 L 5653.54,3274.37 L 5653.54,3297.46 L 5143.91,3591.69 Z " />
<path stroke="transparent" fill="#000000" transform="matrix(0.0833333 0 0 0.0833333 -278.208 -269)" d="M 5210.91,3636.15 L 5200.91,3618.83 L 5648.54,3360.39 L 5658.54,3377.71 L 5210.91,3636.15 Z " />
<path stroke="transparent" fill="#000000" transform="matrix(0.0833333 0 0 0.0833333 -278.208 -269)" d="M 4669.52,3445.58 L 4675.7,3426.56 L 5132.77,3575.03 L 5133.91,3585.92 L 5123.91,3593.19 L 4669.52,3445.58 Z " />
<path stroke="transparent" fill="#000000" transform="matrix(0.0833333 0 0 0.0833333 -278.208 -269)" d="M 4222.94,3885.94 L 4210.58,3885.94 L 4205.48,3875.94 L 4475.52,3504.28 L 4491.7,3516.03 L 4222.94,3885.94 Z " />
<path stroke="transparent" fill="#000000" transform="matrix(0.0833333 0 0 0.0833333 -278.208 -269)" d="M 4307.66,3891.82 L 4291.48,3880.06 L 4533.76,3546.6 L 4549.94,3558.35 L 4307.66,3891.82 Z " />
<path stroke="transparent" fill="#000000" transform="matrix(0.0833333 0 0 0.0833333 -278.208 -269)" d="M 3719.09,3895.96 L 3719.09,3875.96 L 4205.48,3875.94 L 4210.58,3885.94 L 4205.48,3895.94 L 3719.09,3895.96 Z " />
<path stroke="transparent" fill="#000000" transform="matrix(0.0833333 0 0 0.0833333 -278.208 -269)" d="M 4508.58,4279.12 L 4492.4,4290.87 L 4205.48,3895.94 L 4210.58,3885.94 L 4222.94,3885.94 L 4508.58,4279.12 Z " />
<path stroke="transparent" fill="#000000" transform="matrix(0.0833333 0 0 0.0833333 -278.208 -269)" d="M 5123.9,4178.65 L 5133.9,4185.92 L 5132.76,4196.81 L 4668.18,4347.77 L 4662,4328.75 L 5123.9,4178.65 Z " />
<path stroke="transparent" fill="#000000" transform="matrix(0.0833333 0 0 0.0833333 -278.208 -269)" d="M 5143.9,4180.15 L 5133.9,4185.92 L 5123.9,4178.65 L 5123.91,3593.19 L 5133.91,3585.92 L 5143.91,3591.69 L 5143.9,4180.15 Z " />
<path stroke="transparent" fill="#000000" transform="matrix(0.0833333 0 0 0.0833333 -278.208 -269)" d="M 5653.52,4474.37 L 5653.52,4497.46 L 5132.76,4196.81 L 5133.9,4185.92 L 5143.9,4180.15 L 5653.52,4474.37 Z " />
<path stroke="transparent" fill="#000000" transform="matrix(0.0833333 0 0 0.0833333 -278.208 -269)" d="M 5658.52,4394.11 L 5648.52,4411.43 L 5200.9,4153.01 L 5210.9,4135.69 L 5658.52,4394.11 Z " />
<path stroke="transparent" fill="#000000" transform="matrix(0.0833333 0 0 0.0833333 -278.208 -269)" d="M 5653.52,4497.46 L 5653.52,4474.37 L 6163.1,4180.16 L 6173.1,4185.94 L 6173.1,4197.48 L 5653.52,4497.46 Z " />
<path stroke="transparent" fill="#000000" transform="matrix(0.0833333 0 0 0.0833333 -278.208 -269)" d="M 7207.33,4177.27 L 7217.33,4194.59 L 6790.34,4441.12 L 6780.34,4423.8 L 7207.33,4177.27 Z " />
</svg>
