<?xml version="1.0" standalone="no" ?>
<!DOCTYPE svg PUBLIC "-//W3C//DTD SVG 1.1//EN" "http://www.w3.org/Graphics/SVG/1.1/DTD/svg11.dtd">
<svg width="351px" height="471px" viewBox="0 0 351 471" style="background-color: #ffffff00" xmlns="http://www.w3.org/2000/svg" xmlns:xlink="http://www.w3.org/1999/xlink" version="1.1" >
<text x="0" y="0" stroke="transparent" fill="#000000" transform="matrix(0.0833333 0 0 0.0833333 46.1721 214.549)" style="font:normal normal normal 200px 'Arial'" >
N</text>
<text x="0" y="0" stroke="transparent" fill="#000000" transform="matrix(0.0833333 0 0 0.0833333 71.7864 119.401)" style="font:normal normal normal 200px 'Arial'" >
O</text>
<text x="0" y="0" stroke="transparent" fill="#000000" transform="matrix(0.0833333 0 0 0.0833333 101.44 345.993)" style="font:normal normal normal 200px 'Arial'" >
O</text>
<text x="0" y="0" stroke="transparent" fill="#000000" transform="matrix(0.0833333 0 0 0.0833333 262.974 191.98)" style="font:normal normal normal 200px 'Arial'" >
OH</text>
<text x="0" y="0" stroke="transparent" fill="#000000" transform="matrix(0.0833333 0 0 0.0833333 273.373 251.063)" style="font:normal normal normal 200px 'Arial'" >
OH</text>
<text x="0" y="0" stroke="transparent" fill="#000000" transform="matrix(0.0833333 0 0 0.0833333 302.585 123.382)" style="font:normal normal normal 200px 'Arial'" >
O</text>
<text x="0" y="0" stroke="transparent" fill="#000000" transform="matrix(0.0833333 0 0 0.0833333 174.686 301.291)" style="font:normal normal normal 200px 'Arial'" >
O</text>
<text x="0" y="0" stroke="transparent" fill="#000000" transform="matrix(0.0833333 0 0 0.0833333 284.222 18.2708)" style="font:normal normal normal 200px 'Arial'" >
O</text>
<text x="0" y="0" stroke="transparent" fill="#000000" transform="matrix(0.0833333 0 0 0.0833333 237.463 344.666)" style="font:normal normal normal 200px 'Arial'" >
HN</text>
<text x="0" y="0" stroke="transparent" fill="#000000" transform="matrix(0.0833333 0 0 0.0833333 318.742 387.598)" style="font:normal normal normal 200px 'Arial'" >
O</text>
<text x="0" y="0" stroke="transparent" fill="#000000" transform="matrix(0.0833333 0 0 0.0833333 115.43 289.789)" style="font:normal normal normal 200px 'Arial'" >
H</text>
<text x="0" y="0" stroke="transparent" fill="#000000" transform="matrix(0.0833333 0 0 0.0833333 122.963 126.922)" style="font:normal normal normal 200px 'Arial'" >
H</text>
<text x="0" y="0" stroke="transparent" fill="#000000" transform="matrix(0.0833333 0 0 0.0833333 242.675 296.649)" style="font:normal normal normal 200px 'Arial'" >
H</text>
<text x="0" y="0" stroke="transparent" fill="#000000" transform="matrix(0.0833333 0 0 0.0833333 190.228 45.9304)" style="font:normal normal normal 200px 'Arial'" >
H</text>
<path stroke="transparent" fill="#000000" transform="matrix(0.0833333 0 0 0.0833333 -260.5 -136)" d="M 4603.86,4479.71 L 4593.86,4484.43 L 4583.86,4478.63 L 4583.86,3898 L 4593.86,3892.23 L 4603.86,3897.01 L 4603.86,4479.71 Z " />
<path stroke="transparent" fill="#000000" transform="matrix(0.0833333 0 0 0.0833333 -260.5 -136)" d="M 4524.25,3408.39 L 4644.22,3406.01 L 4642.3,3426.05 L 4526.96,3428.34 L 4524.25,3408.39 Z " />
<path stroke="transparent" fill="#000000" transform="matrix(0.0833333 0 0 0.0833333 -260.5 -136)" d="M 4532.22,3466.97 L 4638.58,3464.86 L 4636.66,3484.91 L 4534.94,3486.92 L 4532.22,3466.97 Z " />
<path stroke="transparent" fill="#000000" transform="matrix(0.0833333 0 0 0.0833333 -260.5 -136)" d="M 4540.2,3525.56 L 4632.93,3523.72 L 4631.01,3543.76 L 4542.91,3545.51 L 4540.2,3525.56 Z " />
<path stroke="transparent" fill="#000000" transform="matrix(0.0833333 0 0 0.0833333 -260.5 -136)" d="M 4548.17,3584.14 L 4627.29,3582.57 L 4625.36,3602.61 L 4550.89,3604.09 L 4548.17,3584.14 Z " />
<path stroke="transparent" fill="#000000" transform="matrix(0.0833333 0 0 0.0833333 -260.5 -136)" d="M 4556.15,3642.72 L 4621.64,3641.43 L 4619.72,3661.47 L 4558.86,3662.67 L 4556.15,3642.72 Z " />
<path stroke="transparent" fill="#000000" transform="matrix(0.0833333 0 0 0.0833333 -260.5 -136)" d="M 4564.12,3701.31 L 4616,3700.28 L 4614.07,3720.32 L 4566.84,3721.26 L 4564.12,3701.31 Z " />
<path stroke="transparent" fill="#000000" transform="matrix(0.0833333 0 0 0.0833333 -260.5 -136)" d="M 4572.1,3759.89 L 4610.35,3759.13 L 4608.43,3779.18 L 4574.81,3779.84 L 4572.1,3759.89 Z " />
<path stroke="transparent" fill="#000000" transform="matrix(0.0833333 0 0 0.0833333 -260.5 -136)" d="M 4580.07,3818.48 L 4604.7,3817.99 L 4602.78,3838.03 L 4582.79,3838.43 L 4580.07,3818.48 Z " />
<path stroke="transparent" fill="#000000" transform="matrix(0.0833333 0 0 0.0833333 -260.5 -136)" d="M 5035.44,3522.52 L 5050.57,3523.15 L 5053.1,3533.96 L 4886.95,3668.23 L 4874.8,3652.34 L 5035.44,3522.52 L 5035.44,3522.52 Z " />
<path stroke="transparent" fill="#000000" transform="matrix(0.0833333 0 0 0.0833333 -260.5 -136)" d="M 4603.86,3897.01 L 4593.86,3892.23 L 4592.91,3880.14 L 4796.99,3715.21 L 4809.15,3731.11 L 4603.86,3897.01 L 4603.86,3897.01 Z " />
<path stroke="transparent" fill="#000000" transform="matrix(0.0833333 0 0 0.0833333 -260.5 -136)" d="M 4065.54,3598.54 L 4065.33,3575.32 L 4192.83,3648.99 L 4177.54,3663.25 L 4065.54,3598.54 L 4065.54,3598.54 Z " />
<path stroke="transparent" fill="#000000" transform="matrix(0.0833333 0 0 0.0833333 -260.5 -136)" d="M 4592.91,3880.14 L 4593.86,3892.23 L 4583.86,3898 L 4268.07,3715.55 L 4283.36,3701.29 L 4592.91,3880.14 L 4592.91,3880.14 Z " />
<path stroke="transparent" fill="#000000" transform="matrix(0.0833333 0 0 0.0833333 -260.5 -136)" d="M 4078.29,4791.34 L 4065.44,4787.18 L 4065.54,4775.6 L 4583.86,4478.63 L 4593.86,4484.43 L 4581.36,4503.11 L 4078.29,4791.34 Z " />
<path stroke="transparent" fill="#000000" transform="matrix(0.0833333 0 0 0.0833333 -260.5 -136)" d="M 5045.28,4842.8 L 5040,4864.36 L 4605.96,4507.33 L 4593.86,4484.43 L 4603.86,4479.71 L 5045.28,4842.8 Z " />
<path stroke="transparent" fill="#000000" transform="matrix(0.0833333 0 0 0.0833333 -260.5 -136)" d="M 4645.16,4930 L 4525.18,4927.66 L 4581.36,4503.11 L 4593.86,4484.43 L 4605.96,4507.33 L 4645.16,4930 Z " />
<path stroke="transparent" fill="#000000" transform="matrix(0.0833333 0 0 0.0833333 -260.5 -136)" d="M 5632.76,4709.63 L 5634.76,4728.71 L 5617.2,4722.2 L 4581.92,3368.03 L 4584.41,3338.36 L 5632.76,4709.63 Z " />
<path stroke="transparent" fill="#000000" transform="matrix(0.0833333 0 0 0.0833333 -260.5 -136)" d="M 3849.33,4051.52 L 3835.69,4036.89 L 4584.41,3338.36 L 4581.92,3368.03 L 3849.33,4051.52 L 3849.33,4051.52 Z " />
<path stroke="transparent" fill="#000000" transform="matrix(0.0833333 0 0 0.0833333 -260.5 -136)" d="M 5630.04,3642.03 L 5634.76,3653.33 L 5627.82,3662.03 L 5053.1,3533.96 L 5050.57,3523.15 L 5059.95,3515 L 5630.04,3642.03 Z " />
<path stroke="transparent" fill="#000000" transform="matrix(0.0833333 0 0 0.0833333 -260.5 -136)" d="M 4989.55,2882.14 L 5010.64,2894.98 L 5059.95,3515 L 5050.57,3523.15 L 5037.57,3485.94 L 4989.55,2882.14 Z " />
<path stroke="transparent" fill="#000000" transform="matrix(0.0833333 0 0 0.0833333 -260.5 -136)" d="M 4715.01,3219.06 L 4806.67,3141.6 L 5037.57,3485.94 L 5050.57,3523.15 L 5035.44,3522.52 L 4715.01,3219.06 Z " />
<path stroke="transparent" fill="#000000" transform="matrix(0.0833333 0 0 0.0833333 -260.5 -136)" d="M 3568.25,3897.88 L 3548.25,3886.58 L 4065.33,3575.32 L 4065.54,3598.54 L 3568.25,3897.88 L 3568.25,3897.88 Z " />
<path stroke="transparent" fill="#000000" transform="matrix(0.0833333 0 0 0.0833333 -260.5 -136)" d="M 4005.44,3106.64 L 4125.44,3106.64 L 4123.09,3126.64 L 4007.78,3126.64 L 4005.44,3106.64 Z " />
<path stroke="transparent" fill="#000000" transform="matrix(0.0833333 0 0 0.0833333 -260.5 -136)" d="M 4012.24,3164.68 L 4118.63,3164.68 L 4116.28,3184.68 L 4014.59,3184.68 L 4012.24,3164.68 Z " />
<path stroke="transparent" fill="#000000" transform="matrix(0.0833333 0 0 0.0833333 -260.5 -136)" d="M 4019.05,3222.72 L 4111.82,3222.72 L 4109.48,3242.72 L 4021.4,3242.72 L 4019.05,3222.72 Z " />
<path stroke="transparent" fill="#000000" transform="matrix(0.0833333 0 0 0.0833333 -260.5 -136)" d="M 4025.86,3280.75 L 4105.01,3280.75 L 4102.67,3300.75 L 4028.21,3300.75 L 4025.86,3280.75 Z " />
<path stroke="transparent" fill="#000000" transform="matrix(0.0833333 0 0 0.0833333 -260.5 -136)" d="M 4032.67,3338.79 L 4098.21,3338.79 L 4095.86,3358.79 L 4035.01,3358.79 L 4032.67,3338.79 Z " />
<path stroke="transparent" fill="#000000" transform="matrix(0.0833333 0 0 0.0833333 -260.5 -136)" d="M 4039.48,3396.83 L 4091.4,3396.83 L 4089.05,3416.83 L 4041.82,3416.83 L 4039.48,3396.83 Z " />
<path stroke="transparent" fill="#000000" transform="matrix(0.0833333 0 0 0.0833333 -260.5 -136)" d="M 4046.28,3454.86 L 4084.59,3454.86 L 4082.24,3474.86 L 4048.63,3474.86 L 4046.28,3454.86 Z " />
<path stroke="transparent" fill="#000000" transform="matrix(0.0833333 0 0 0.0833333 -260.5 -136)" d="M 4053.09,3512.9 L 4077.78,3512.9 L 4075.44,3532.9 L 4055.44,3532.9 L 4053.09,3512.9 Z " />
<path stroke="transparent" fill="#000000" transform="matrix(0.0833333 0 0 0.0833333 -260.5 -136)" d="M 3742.07,5352.07 L 3762.07,5279.13 L 4051.75,4790.66 L 4065.44,4787.18 L 4062.75,4811.32 L 3742.07,5352.07 Z " />
<path stroke="transparent" fill="#000000" transform="matrix(0.0833333 0 0 0.0833333 -260.5 -136)" d="M 3548.25,4490.11 L 3568.25,4478.75 L 4065.54,4775.6 L 4065.44,4787.18 L 4051.75,4790.66 L 3548.25,4490.11 Z " />
<path stroke="transparent" fill="#000000" transform="matrix(0.0833333 0 0 0.0833333 -260.5 -136)" d="M 4438.87,5585.2 L 4326.97,5628.54 L 4062.75,4811.32 L 4065.44,4787.18 L 4078.29,4791.34 L 4438.87,5585.2 Z " />
<path stroke="transparent" fill="#000000" transform="matrix(0.0833333 0 0 0.0833333 -260.5 -136)" d="M 5617.2,4722.2 L 5634.76,4728.71 L 5631.6,4739.6 L 5040,4864.36 L 5045.28,4842.8 L 5617.2,4722.2 Z " />
<path stroke="transparent" fill="#000000" transform="matrix(0.0833333 0 0 0.0833333 -260.5 -136)" d="M 5878.67,4192.36 L 5889.74,4192.37 L 5893.52,4207.69 L 5647.52,4725.17 L 5634.76,4728.71 L 5632.76,4709.63 L 5878.67,4192.36 Z " />
<path stroke="transparent" fill="#000000" transform="matrix(0.0833333 0 0 0.0833333 -260.5 -136)" d="M 6052.92,4990.26 L 5977.39,5083.5 L 5631.6,4739.6 L 5634.76,4728.71 L 5647.52,4725.17 L 6052.92,4990.26 Z " />
<path stroke="transparent" fill="#000000" transform="matrix(0.0833333 0 0 0.0833333 -260.5 -136)" d="M 3170.99,3872.04 L 3191.21,3859.33 L 3508.25,4005.31 L 3508.25,4027.33 L 3170.99,3872.04 L 3170.99,3872.04 Z " />
<path stroke="transparent" fill="#000000" transform="matrix(0.0833333 0 0 0.0833333 -260.5 -136)" d="M 3649.9,4070.54 L 3641.54,4088.7 L 3608.25,4073.38 L 3608.25,4051.36 L 3649.9,4070.54 L 3649.9,4070.54 Z " />
<path stroke="transparent" fill="#000000" transform="matrix(0.0833333 0 0 0.0833333 -260.5 -136)" d="M 3762.07,5279.13 L 3742.07,5352.07 L 3742.07,4245.92 L 3762.07,4245.92 L 3762.07,5279.13 Z " />
<path stroke="transparent" fill="#000000" transform="matrix(0.0833333 0 0 0.0833333 -260.5 -136)" d="M 5964.86,3107.35 L 5989.88,3105.09 L 5650.91,3646.4 L 5634.76,3653.33 L 5630.04,3642.03 L 5964.86,3107.35 Z " />
<path stroke="transparent" fill="#000000" transform="matrix(0.0833333 0 0 0.0833333 -260.5 -136)" d="M 6273.04,3770.98 L 6240.47,3886.48 L 5654.24,3671.11 L 5634.76,3653.33 L 5650.91,3646.4 L 6273.04,3770.98 Z " />
<path stroke="transparent" fill="#000000" transform="matrix(0.0833333 0 0 0.0833333 -260.5 -136)" d="M 5895.41,4180.98 L 5889.74,4192.37 L 5878.67,4192.36 L 5627.82,3662.03 L 5634.76,3653.33 L 5654.24,3671.11 L 5895.41,4180.98 Z " />
<path stroke="transparent" fill="#000000" transform="matrix(0.0833333 0 0 0.0833333 -260.5 -136)" d="M 5551.19,2646.34 L 5563.06,2652.2 L 5560.43,2664.15 L 5010.64,2894.98 L 4989.55,2882.14 L 5551.19,2646.34 Z " />
<path stroke="transparent" fill="#000000" transform="matrix(0.0833333 0 0 0.0833333 -260.5 -136)" d="M 3568.25,4478.75 L 3548.25,4490.11 L 3548.25,3886.58 L 3568.25,3897.88 L 3568.25,4478.75 Z " />
<path stroke="transparent" fill="#000000" transform="matrix(0.0833333 0 0 0.0833333 -260.5 -136)" d="M 4570.23,2683.4 L 4580.24,2700.71 L 4163.03,2941.93 L 4153.02,2924.62 L 4570.23,2683.4 Z " />
<path stroke="transparent" fill="#000000" transform="matrix(0.0833333 0 0 0.0833333 -260.5 -136)" d="M 5021.61,5687.84 L 5010.44,5707.99 L 4529.4,5714.46 L 4529.13,5694.46 L 5021.61,5687.84 Z " />
<path stroke="transparent" fill="#000000" transform="matrix(0.0833333 0 0 0.0833333 -260.5 -136)" d="M 6661.24,4022.55 L 6684.73,4038.12 L 5919.3,4196.46 L 5889.74,4192.37 L 5895.41,4180.98 L 6661.24,4022.55 Z " />
<path stroke="transparent" fill="#000000" transform="matrix(0.0833333 0 0 0.0833333 -260.5 -136)" d="M 6425.92,4458.99 L 6361.99,4560.54 L 5893.52,4207.69 L 5889.74,4192.37 L 5919.3,4196.46 L 6425.92,4458.99 Z " />
<path stroke="transparent" fill="#000000" transform="matrix(0.0833333 0 0 0.0833333 -260.5 -136)" d="M 3181.72,3244.16 L 3201.72,3244.5 L 3191.21,3859.33 L 3170.99,3872.04 L 3181.72,3244.16 Z " />
<path stroke="transparent" fill="#000000" transform="matrix(0.0833333 0 0 0.0833333 -260.5 -136)" d="M 6722.63,2983.77 L 6732.62,3103.35 L 6712.57,3103.59 L 6702.82,2986.86 L 6722.63,2983.77 L 6722.63,2983.77 Z " />
<path stroke="transparent" fill="#000000" transform="matrix(0.0833333 0 0 0.0833333 -260.5 -136)" d="M 6666.6,2992.51 L 6675.91,3104.02 L 6655.86,3104.26 L 6646.79,2995.6 L 6666.6,2992.51 L 6666.6,2992.51 Z " />
<path stroke="transparent" fill="#000000" transform="matrix(0.0833333 0 0 0.0833333 -260.5 -136)" d="M 6610.56,3001.25 L 6619.2,3104.7 L 6599.15,3104.94 L 6590.75,3004.34 L 6610.56,3001.25 L 6610.56,3001.25 Z " />
<path stroke="transparent" fill="#000000" transform="matrix(0.0833333 0 0 0.0833333 -260.5 -136)" d="M 6554.53,3009.99 L 6562.5,3105.37 L 6542.45,3105.61 L 6534.72,3013.08 L 6554.53,3009.99 L 6554.53,3009.99 Z " />
<path stroke="transparent" fill="#000000" transform="matrix(0.0833333 0 0 0.0833333 -260.5 -136)" d="M 6429.03,3106.96 L 6422.65,3030.56 L 6423.01,3030.51 L 6438.2,3106.85 L 6429.03,3106.96 L 6429.03,3106.96 Z " />
<path stroke="transparent" fill="#000000" transform="matrix(0.0833333 0 0 0.0833333 -260.5 -136)" d="M 6386.43,3036.22 L 6392.37,3107.4 L 6372.32,3107.64 L 6366.62,3039.31 L 6386.43,3036.22 L 6386.43,3036.22 Z " />
<path stroke="transparent" fill="#000000" transform="matrix(0.0833333 0 0 0.0833333 -260.5 -136)" d="M 6330.39,3044.96 L 6335.67,3108.07 L 6315.62,3108.31 L 6310.58,3048.05 L 6330.39,3044.96 L 6330.39,3044.96 Z " />
<path stroke="transparent" fill="#000000" transform="matrix(0.0833333 0 0 0.0833333 -260.5 -136)" d="M 6274.36,3053.7 L 6278.96,3108.75 L 6258.91,3108.99 L 6254.55,3056.79 L 6274.36,3053.7 L 6274.36,3053.7 Z " />
<path stroke="transparent" fill="#000000" transform="matrix(0.0833333 0 0 0.0833333 -260.5 -136)" d="M 6218.33,3062.44 L 6222.25,3109.42 L 6202.2,3109.66 L 6198.51,3065.53 L 6218.33,3062.44 L 6218.33,3062.44 Z " />
<path stroke="transparent" fill="#000000" transform="matrix(0.0833333 0 0 0.0833333 -260.5 -136)" d="M 6162.29,3071.18 L 6165.54,3110.1 L 6145.49,3110.34 L 6142.48,3074.27 L 6162.29,3071.18 L 6162.29,3071.18 Z " />
<path stroke="transparent" fill="#000000" transform="matrix(0.0833333 0 0 0.0833333 -260.5 -136)" d="M 6106.26,3079.92 L 6108.84,3110.77 L 6088.79,3111.01 L 6086.45,3083.02 L 6106.26,3079.92 L 6106.26,3079.92 Z " />
<path stroke="transparent" fill="#000000" transform="matrix(0.0833333 0 0 0.0833333 -260.5 -136)" d="M 6050.22,3088.67 L 6052.13,3111.45 L 6032.08,3111.69 L 6030.41,3091.76 L 6050.22,3088.67 L 6050.22,3088.67 Z " />
<path stroke="transparent" fill="#000000" transform="matrix(0.0833333 0 0 0.0833333 -260.5 -136)" d="M 5560.43,2664.15 L 5563.06,2652.2 L 5580.26,2656.22 L 5989.88,3105.09 L 5964.86,3107.35 L 5560.43,2664.15 Z " />
<path stroke="transparent" fill="#000000" transform="matrix(0.0833333 0 0 0.0833333 -260.5 -136)" d="M 6330.67,2341.82 L 6338.45,2349.52 L 6330.97,2363.17 L 5580.26,2656.22 L 5563.06,2652.2 L 5572.49,2637.78 L 6330.67,2341.82 Z " />
<path stroke="transparent" fill="#000000" transform="matrix(0.0833333 0 0 0.0833333 -260.5 -136)" d="M 5438.73,2229.27 L 5557.4,2211.41 L 5572.49,2637.78 L 5563.06,2652.2 L 5551.19,2646.34 L 5438.73,2229.27 Z " />
<path stroke="transparent" fill="#000000" transform="matrix(0.0833333 0 0 0.0833333 -260.5 -136)" d="M 5324.41,6187.17 L 5318.78,6197.17 L 5307.22,6197.4 L 5010.44,5707.99 L 5021.61,5687.84 L 5324.41,6187.17 Z " />
<path stroke="transparent" fill="#000000" transform="matrix(0.0833333 0 0 0.0833333 -260.5 -136)" d="M 5202.41,5254.27 L 5220.02,5263.74 L 4983.65,5703.21 L 4966.04,5693.73 L 5202.41,5254.27 Z " />
<path stroke="transparent" fill="#000000" transform="matrix(0.0833333 0 0 0.0833333 -260.5 -136)" d="M 5265.82,5288.37 L 5283.43,5297.85 L 5046.49,5738.38 L 5028.88,5728.9 L 5265.82,5288.37 Z " />
<path stroke="transparent" fill="#000000" transform="matrix(0.0833333 0 0 0.0833333 -260.5 -136)" d="M 6330.97,2363.17 L 6338.45,2349.52 L 6349,2351.3 L 6684.73,4038.12 L 6661.24,4022.55 L 6330.97,2363.17 Z " />
<path stroke="transparent" fill="#000000" transform="matrix(0.0833333 0 0 0.0833333 -260.5 -136)" d="M 7241.03,3508.85 L 7225.63,3521.61 L 6903.76,3133.21 L 6919.16,3120.45 L 7241.03,3508.85 Z " />
<path stroke="transparent" fill="#000000" transform="matrix(0.0833333 0 0 0.0833333 -260.5 -136)" d="M 6508.09,1856.78 L 6616.3,1908.65 L 6349,2351.3 L 6338.45,2349.52 L 6330.67,2341.82 L 6508.09,1856.78 Z " />
<path stroke="transparent" fill="#000000" transform="matrix(0.0833333 0 0 0.0833333 -260.5 -136)" d="M 5899.83,6187.17 L 5905.66,6197.17 L 5899.99,6207.17 L 5324.67,6207.17 L 5318.78,6197.17 L 5324.41,6187.17 L 5899.83,6187.17 Z " />
<path stroke="transparent" fill="#000000" transform="matrix(0.0833333 0 0 0.0833333 -260.5 -136)" d="M 5046.1,6709.61 L 5023.18,6709.72 L 5307.22,6197.4 L 5318.78,6197.17 L 5324.67,6207.17 L 5046.1,6709.61 Z " />
<path stroke="transparent" fill="#000000" transform="matrix(0.0833333 0 0 0.0833333 -260.5 -136)" d="M 5124,6714.13 L 5106.51,6704.43 L 5351.45,6262.64 L 5368.94,6272.34 L 5124,6714.13 Z " />
<path stroke="transparent" fill="#000000" transform="matrix(0.0833333 0 0 0.0833333 -260.5 -136)" d="M 7290.59,1681 L 7293.01,1700.85 L 6722.58,1770.2 L 6720.17,1750.35 L 7290.59,1681 Z " />
<path stroke="transparent" fill="#000000" transform="matrix(0.0833333 0 0 0.0833333 -260.5 -136)" d="M 6209.2,6685.5 L 6186.26,6686.11 L 5899.99,6207.17 L 5905.66,6197.17 L 5917.23,6197.03 L 6209.2,6685.5 Z " />
<path stroke="transparent" fill="#000000" transform="matrix(0.0833333 0 0 0.0833333 -260.5 -136)" d="M 6127.97,6682.76 L 6110.8,6693.02 L 5858.33,6270.61 L 5875.49,6260.35 L 6127.97,6682.76 Z " />
<path stroke="transparent" fill="#000000" transform="matrix(0.0833333 0 0 0.0833333 -260.5 -136)" d="M 6106.46,5821.7 L 6123.87,5831.55 L 5917.23,6197.03 L 5905.66,6197.17 L 5899.83,6187.17 L 6106.46,5821.7 Z " />
<path stroke="transparent" fill="#000000" transform="matrix(0.0833333 0 0 0.0833333 -260.5 -136)" d="M 5332.44,7214.69 L 5320.97,7235 L 5023.18,6709.72 L 5046.1,6709.61 L 5332.44,7214.69 Z " />
<path stroke="transparent" fill="#000000" transform="matrix(0.0833333 0 0 0.0833333 -260.5 -136)" d="M 5927.7,7218.76 L 5915.48,7199.08 L 6186.26,6686.11 L 6209.2,6685.5 L 5927.7,7218.76 Z " />
<path stroke="transparent" fill="#000000" transform="matrix(0.0833333 0 0 0.0833333 -260.5 -136)" d="M 6757.75,5674.73 L 6769.01,5694.63 L 6287.64,5699.1 L 6287.45,5679.1 L 6757.75,5674.73 Z " />
<path stroke="transparent" fill="#000000" transform="matrix(0.0833333 0 0 0.0833333 -260.5 -136)" d="M 5915.48,7199.08 L 5927.7,7218.76 L 5320.97,7235 L 5332.44,7214.69 L 5915.48,7199.08 Z " />
<path stroke="transparent" fill="#000000" transform="matrix(0.0833333 0 0 0.0833333 -260.5 -136)" d="M 5877.67,7128.65 L 5878.2,7148.65 L 5367.94,7162.31 L 5367.4,7142.31 L 5877.67,7128.65 Z " />
<path stroke="transparent" fill="#000000" transform="matrix(0.0833333 0 0 0.0833333 -260.5 -136)" d="M 7054.85,5190.81 L 7071.89,5201.27 L 6769.01,5694.63 L 6757.75,5674.73 L 7054.85,5190.81 Z " />
<path stroke="transparent" fill="#000000" transform="matrix(0.0833333 0 0 0.0833333 -260.5 -136)" d="M 7020.7,6089.94 L 7002.88,6099.03 L 6775.97,5654.21 L 6793.78,5645.12 L 7020.7,6089.94 Z " />
<path stroke="transparent" fill="#000000" transform="matrix(0.0833333 0 0 0.0833333 -260.5 -136)" d="M 6958.24,6121.8 L 6940.42,6130.89 L 6715.3,5689.59 L 6733.12,5680.5 L 6958.24,6121.8 Z " />
</svg>
