<?xml version="1.0" standalone="no" ?>
<!DOCTYPE svg PUBLIC "-//W3C//DTD SVG 1.1//EN" "http://www.w3.org/Graphics/SVG/1.1/DTD/svg11.dtd">
<svg width="210px" height="138px" viewBox="0 0 210 138" style="background-color: #ffffff00" xmlns="http://www.w3.org/2000/svg" xmlns:xlink="http://www.w3.org/1999/xlink" version="1.1" >
<text x="0" y="0" stroke="transparent" fill="#000000" transform="matrix(0.0666667 0 0 0.0666667 151.775 134.239)" style="font:normal normal normal 200px 'Arial'" >
O</text>
<text x="0" y="0" stroke="transparent" fill="#000000" transform="matrix(0.0666667 0 0 0.0666667 186.416 74.2389)" style="font:normal normal normal 200px 'Arial'" >
OH</text>
<text x="0" y="0" stroke="transparent" fill="#000000" transform="matrix(0.0666667 0 0 0.0666667 82.4928 94.2389)" style="font:normal normal normal 200px 'Arial'" >
O</text>
<text x="0" y="0" stroke="transparent" fill="#000000" transform="matrix(0.0666667 0 0 0.0666667 48.6185 74.2389)" style="font:normal normal normal 200px 'Arial'" >
P</text>
<text x="0" y="0" stroke="transparent" fill="#000000" transform="matrix(0.0666667 0 0 0.0666667 47.8518 34.2389)" style="font:normal normal normal 200px 'Arial'" >
O</text>
<text x="0" y="0" stroke="transparent" fill="#000000" transform="matrix(0.0666667 0 0 0.0666667 47.8518 114.239)" style="font:normal normal normal 200px 'Arial'" >
OH</text>
<text x="0" y="0" stroke="transparent" fill="#000000" transform="matrix(0.0666667 0 0 0.0666667 3.58189 94.2389)" style="font:normal normal normal 200px 'Arial'" >
HO</text>
<text x="0" y="0" stroke="transparent" fill="#000000" transform="matrix(0.0666667 0 0 0.0666667 151.775 14.2389)" style="font:normal normal normal 200px 'Arial'" >
OH</text>
<path stroke="transparent" fill="#000000" transform="matrix(0.0666667 0 0 0.0666667 -49.7867 -198.333)" d="M 2591.81,4004.81 L 2581.81,4010.58 L 2571.81,4004.81 L 2571.81,3404.81 L 2591.81,3416.36 L 2591.81,4004.81 Z " />
<path stroke="transparent" fill="#000000" transform="matrix(0.0666667 0 0 0.0666667 -49.7867 -198.333)" d="M 3101.42,4299.04 L 3101.42,4322.13 L 2581.81,4022.13 L 2581.81,4010.58 L 2591.81,4004.81 L 3101.42,4299.04 Z " />
<path stroke="transparent" fill="#000000" transform="matrix(0.0666667 0 0 0.0666667 -49.7867 -198.333)" d="M 3147.42,4805.42 L 3127.42,4805.42 L 3127.42,4289.8 L 3147.42,4289.8 L 3147.42,4805.42 Z " />
<path stroke="transparent" fill="#000000" transform="matrix(0.0666667 0 0 0.0666667 -49.7867 -198.333)" d="M 3075.42,4805.42 L 3055.42,4805.42 L 3055.42,4289.8 L 3075.42,4289.8 L 3075.42,4805.42 Z " />
<path stroke="transparent" fill="#000000" transform="matrix(0.0666667 0 0 0.0666667 -49.7867 -198.333)" d="M 3516.43,4059.43 L 3526.43,4076.75 L 3101.42,4322.13 L 3101.42,4299.04 L 3516.43,4059.43 Z " />
<path stroke="transparent" fill="#000000" transform="matrix(0.0666667 0 0 0.0666667 -49.7867 -198.333)" d="M 2159.81,4265.77 L 2149.81,4248.45 L 2571.81,4004.81 L 2581.81,4010.58 L 2581.81,4022.13 L 2159.81,4265.77 Z " />
<path stroke="transparent" fill="#000000" transform="matrix(0.0666667 0 0 0.0666667 -49.7867 -198.333)" d="M 1611.78,4062.09 L 1621.78,4044.76 L 1974.57,4248.45 L 1964.57,4265.77 L 1611.78,4062.09 Z " />
<path stroke="transparent" fill="#000000" transform="matrix(0.0666667 0 0 0.0666667 -49.7867 -198.333)" d="M 1496.58,3530.42 L 1516.58,3530.42 L 1516.58,3907.75 L 1496.58,3907.75 L 1496.58,3530.42 Z " />
<path stroke="transparent" fill="#000000" transform="matrix(0.0666667 0 0 0.0666667 -49.7867 -198.333)" d="M 1568.58,3530.42 L 1588.58,3530.42 L 1588.58,3907.75 L 1568.58,3907.75 L 1568.58,3530.42 Z " />
<path stroke="transparent" fill="#000000" transform="matrix(0.0666667 0 0 0.0666667 -49.7867 -198.333)" d="M 1552.58,4505.42 L 1532.58,4505.42 L 1532.58,4127.75 L 1552.58,4127.75 L 1552.58,4505.42 Z " />
<path stroke="transparent" fill="#000000" transform="matrix(0.0666667 0 0 0.0666667 -49.7867 -198.333)" d="M 1120.57,4265.77 L 1110.57,4248.45 L 1431.65,4063.08 L 1441.65,4080.4 L 1120.57,4265.77 Z " />
<path stroke="transparent" fill="#000000" transform="matrix(0.0666667 0 0 0.0666667 -49.7867 -198.333)" d="M 2996.82,3159.43 L 3006.82,3176.75 L 2591.81,3416.36 L 2571.81,3404.81 L 2996.82,3159.43 Z " />
</svg>
