<?xml version="1.0" standalone="no" ?>
<!DOCTYPE svg PUBLIC "-//W3C//DTD SVG 1.1//EN" "http://www.w3.org/Graphics/SVG/1.1/DTD/svg11.dtd">
<svg width="781px" height="465px" viewBox="0 0 781 465" style="background-color: #ffffff00" xmlns="http://www.w3.org/2000/svg" xmlns:xlink="http://www.w3.org/1999/xlink" version="1.1" >
<text x="0" y="0" stroke="transparent" fill="#000000" transform="matrix(0.0833333 0 0 0.0833333 621.802 85.6654)" style="font:normal normal normal 200px 'Arial'" >
O</text>
<text x="0" y="0" stroke="transparent" fill="#000000" transform="matrix(0.0833333 0 0 0.0833333 405.297 160.667)" style="font:normal normal normal 200px 'Arial'" >
O</text>
<text x="0" y="0" stroke="transparent" fill="#000000" transform="matrix(0.0833333 0 0 0.0833333 232.094 160.662)" style="font:normal normal normal 200px 'Arial'" >
O</text>
<text x="0" y="0" stroke="transparent" fill="#000000" transform="matrix(0.0833333 0 0 0.0833333 145.493 160.663)" style="font:normal normal normal 200px 'Arial'" >
O</text>
<text x="0" y="0" stroke="transparent" fill="#000000" transform="matrix(0.0833333 0 0 0.0833333 3.55312 185.664)" style="font:normal normal normal 200px 'Arial'" >
HO</text>
<text x="0" y="0" stroke="transparent" fill="#000000" transform="matrix(0.0833333 0 0 0.0833333 46.8488 260.664)" style="font:normal normal normal 200px 'Arial'" >
HO</text>
<text x="0" y="0" stroke="transparent" fill="#000000" transform="matrix(0.0833333 0 0 0.0833333 145.489 310.667)" style="font:normal normal normal 200px 'Arial'" >
OH</text>
<text x="0" y="0" stroke="transparent" fill="#000000" transform="matrix(0.0833333 0 0 0.0833333 232.091 260.667)" style="font:normal normal normal 200px 'Arial'" >
OH</text>
<text x="0" y="0" stroke="transparent" fill="#000000" transform="matrix(0.0833333 0 0 0.0833333 318.693 310.664)" style="font:normal normal normal 200px 'Arial'" >
OH</text>
<text x="0" y="0" stroke="transparent" fill="#000000" transform="matrix(0.0833333 0 0 0.0833333 405.297 310.668)" style="font:normal normal normal 200px 'Arial'" >
O</text>
<text x="0" y="0" stroke="transparent" fill="#000000" transform="matrix(0.0833333 0 0 0.0833333 491.895 260.67)" style="font:normal normal normal 200px 'Arial'" >
O</text>
<text x="0" y="0" stroke="transparent" fill="#000000" transform="matrix(0.0833333 0 0 0.0833333 448.598 335.667)" style="font:normal normal normal 200px 'Arial'" >
O</text>
<text x="0" y="0" stroke="transparent" fill="#000000" transform="matrix(0.0833333 0 0 0.0833333 491.9 460.668)" style="font:normal normal normal 200px 'Arial'" >
OH</text>
<text x="0" y="0" stroke="transparent" fill="#000000" transform="matrix(0.0833333 0 0 0.0833333 578.498 410.67)" style="font:normal normal normal 200px 'Arial'" >
O</text>
<text x="0" y="0" stroke="transparent" fill="#000000" transform="matrix(0.0833333 0 0 0.0833333 621.797 335.667)" style="font:normal normal normal 200px 'Arial'" >
O</text>
<text x="0" y="0" stroke="transparent" fill="#000000" transform="matrix(0.0833333 0 0 0.0833333 708.401 235.668)" style="font:normal normal normal 200px 'Arial'" >
OH</text>
<text x="0" y="0" stroke="transparent" fill="#000000" transform="matrix(0.0833333 0 0 0.0833333 751.703 310.67)" style="font:normal normal normal 200px 'Arial'" >
OH</text>
<text x="0" y="0" stroke="transparent" fill="#000000" transform="matrix(0.0833333 0 0 0.0833333 751.702 410.668)" style="font:normal normal normal 200px 'Arial'" >
OH</text>
<text x="0" y="0" stroke="transparent" fill="#000000" transform="matrix(0.0833333 0 0 0.0833333 665.099 460.668)" style="font:normal normal normal 200px 'Arial'" >
OH</text>
<text x="0" y="0" stroke="transparent" fill="#000000" transform="matrix(0.0833333 0 0 0.0833333 578.497 310.668)" style="font:normal normal normal 200px 'Arial'" >
OH</text>
<path stroke="transparent" fill="#000000" transform="matrix(0.0833333 0 0 0.0833333 -22.25 -115)" d="M 7901.66,2396.41 L 7911.66,2379.09 L 8331.19,2621.34 L 8321.18,2638.66 L 7901.66,2396.41 Z " />
<path stroke="transparent" fill="#000000" transform="matrix(0.0833333 0 0 0.0833333 -22.25 -115)" d="M 7297.01,2635.76 L 7287.01,2629.98 L 7287.01,2618.44 L 7702.03,2378.83 L 7712.03,2396.15 L 7297.01,2635.76 Z " />
<path stroke="transparent" fill="#000000" transform="matrix(0.0833333 0 0 0.0833333 -22.25 -115)" d="M 6767.41,2341.54 L 6767.41,2318.45 L 7287.01,2618.44 L 7287.01,2629.98 L 7277.01,2635.76 L 6767.41,2341.54 Z " />
<path stroke="transparent" fill="#000000" transform="matrix(0.0833333 0 0 0.0833333 -22.25 -115)" d="M 6762.41,2421.79 L 6772.41,2404.47 L 7220.01,2662.89 L 7210.01,2680.21 L 6762.41,2421.79 Z " />
<path stroke="transparent" fill="#000000" transform="matrix(0.0833333 0 0 0.0833333 -22.25 -115)" d="M 6257.79,2635.77 L 6237.79,2624.22 L 6767.41,2318.45 L 6767.41,2341.54 L 6257.79,2635.77 Z " />
<path stroke="transparent" fill="#000000" transform="matrix(0.0833333 0 0 0.0833333 -22.25 -115)" d="M 6257.78,3224.21 L 6247.78,3229.99 L 6237.78,3224.21 L 6237.79,2624.22 L 6257.79,2635.77 L 6257.78,3224.21 Z " />
<path stroke="transparent" fill="#000000" transform="matrix(0.0833333 0 0 0.0833333 -22.25 -115)" d="M 6329.78,3188.42 L 6309.78,3188.42 L 6309.79,2671.57 L 6329.79,2671.57 L 6329.78,3188.42 Z " />
<path stroke="transparent" fill="#000000" transform="matrix(0.0833333 0 0 0.0833333 -22.25 -115)" d="M 5738.11,3535.79 L 5728.11,3530.02 L 5728.12,3518.47 L 6237.78,3224.21 L 6247.78,3229.99 L 6247.78,3241.53 L 5738.11,3535.79 Z " />
<path stroke="transparent" fill="#000000" transform="matrix(0.0833333 0 0 0.0833333 -22.25 -115)" d="M 5303.59,3296.42 L 5313.59,3279.1 L 5728.12,3518.47 L 5728.11,3530.02 L 5718.11,3535.79 L 5303.59,3296.42 Z " />
<path stroke="transparent" fill="#000000" transform="matrix(0.0833333 0 0 0.0833333 -22.25 -115)" d="M 4698.94,3535.77 L 4688.94,3530 L 4688.94,3518.45 L 5103.96,3278.84 L 5113.96,3296.16 L 4698.94,3535.77 Z " />
<path stroke="transparent" fill="#000000" transform="matrix(0.0833333 0 0 0.0833333 -22.25 -115)" d="M 4169.34,3241.56 L 4169.34,3230.01 L 4179.34,3224.24 L 4688.94,3518.45 L 4688.94,3530 L 4678.94,3535.77 L 4169.34,3241.56 Z " />
<path stroke="transparent" fill="#000000" transform="matrix(0.0833333 0 0 0.0833333 -22.25 -115)" d="M 4164.34,3321.81 L 4174.34,3304.49 L 4621.94,3562.91 L 4611.94,3580.23 L 4164.34,3321.81 Z " />
<path stroke="transparent" fill="#000000" transform="matrix(0.0833333 0 0 0.0833333 -22.25 -115)" d="M 4159.31,2635.75 L 4179.31,2624.2 L 4179.34,3224.24 L 4169.34,3230.01 L 4159.34,3224.24 L 4159.31,2635.75 Z " />
<path stroke="transparent" fill="#000000" transform="matrix(0.0833333 0 0 0.0833333 -22.25 -115)" d="M 3639.7,2335.76 L 3659.71,2324.21 L 4179.31,2624.2 L 4159.31,2635.75 L 3639.7,2335.76 Z " />
<path stroke="transparent" fill="#000000" transform="matrix(0.0833333 0 0 0.0833333 -22.25 -115)" d="M 3639.71,1735.77 L 3649.71,1730 L 3659.71,1735.77 L 3659.71,2324.21 L 3639.7,2335.76 L 3639.71,1735.77 Z " />
<path stroke="transparent" fill="#000000" transform="matrix(0.0833333 0 0 0.0833333 -22.25 -115)" d="M 3711.71,1771.57 L 3731.71,1771.57 L 3731.7,2288.42 L 3711.7,2288.42 L 3711.71,1771.57 Z " />
<path stroke="transparent" fill="#000000" transform="matrix(0.0833333 0 0 0.0833333 -22.25 -115)" d="M 4164.33,1421.34 L 4174.33,1438.66 L 3659.71,1735.77 L 3649.71,1730 L 3649.71,1718.45 L 4164.33,1421.34 Z " />
<path stroke="transparent" fill="#000000" transform="matrix(0.0833333 0 0 0.0833333 -22.25 -115)" d="M 3125.1,1438.67 L 3135.1,1421.35 L 3649.71,1718.45 L 3649.71,1730 L 3639.71,1735.77 L 3125.1,1438.67 Z " />
<path stroke="transparent" fill="#000000" transform="matrix(0.0833333 0 0 0.0833333 -22.25 -115)" d="M 3659.72,3535.79 L 3649.72,3530.01 L 3649.72,3518.46 L 4159.34,3224.24 L 4169.34,3230.01 L 4169.34,3241.56 L 3659.72,3535.79 Z " />
<path stroke="transparent" fill="#000000" transform="matrix(0.0833333 0 0 0.0833333 -22.25 -115)" d="M 3225.16,3296.37 L 3235.17,3279.05 L 3649.72,3518.46 L 3649.72,3530.01 L 3639.72,3535.78 L 3225.16,3296.37 Z " />
<path stroke="transparent" fill="#000000" transform="matrix(0.0833333 0 0 0.0833333 -22.25 -115)" d="M 3000.53,3235.49 L 3060.53,3339.41 L 2620.52,3536.37 L 2610.52,3529.94 L 2609.96,3518.07 L 3000.53,3235.49 Z " />
<path stroke="transparent" fill="#000000" transform="matrix(0.0833333 0 0 0.0833333 -22.25 -115)" d="M 2185.95,3296.37 L 2195.95,3279.05 L 2609.96,3518.07 L 2610.52,3529.94 L 2600.52,3535.72 L 2185.95,3296.37 Z " />
<path stroke="transparent" fill="#000000" transform="matrix(0.0833333 0 0 0.0833333 -22.25 -115)" d="M 1581.29,3535.73 L 1571.29,3529.96 L 1571.29,3518.41 L 1986.31,3278.8 L 1996.31,3296.12 L 1581.29,3535.73 Z " />
<path stroke="transparent" fill="#000000" transform="matrix(0.0833333 0 0 0.0833333 -22.25 -115)" d="M 1051.69,3241.52 L 1051.69,3218.42 L 1571.29,3518.41 L 1571.29,3529.96 L 1561.29,3535.73 L 1051.69,3241.52 Z " />
<path stroke="transparent" fill="#000000" transform="matrix(0.0833333 0 0 0.0833333 -22.25 -115)" d="M 629.681,3485.16 L 619.681,3467.84 L 1051.69,3218.42 L 1051.69,3241.52 L 629.681,3485.16 Z " />
<path stroke="transparent" fill="#000000" transform="matrix(0.0833333 0 0 0.0833333 -22.25 -115)" d="M 1561.29,3535.73 L 1571.29,3529.96 L 1581.29,3535.73 L 1581.24,4124.2 L 1561.23,4135.75 L 1561.29,3535.73 Z " />
<path stroke="transparent" fill="#000000" transform="matrix(0.0833333 0 0 0.0833333 -22.25 -115)" d="M 1174.23,4428.47 L 1114.23,4324.54 L 1132.69,4316.52 L 1190.41,4416.49 L 1174.23,4428.47 Z " />
<path stroke="transparent" fill="#000000" transform="matrix(0.0833333 0 0 0.0833333 -22.25 -115)" d="M 1222.67,4392.63 L 1169.48,4300.51 L 1187.94,4292.49 L 1238.85,4380.66 L 1222.67,4392.63 Z " />
<path stroke="transparent" fill="#000000" transform="matrix(0.0833333 0 0 0.0833333 -22.25 -115)" d="M 1271.1,4356.79 L 1224.74,4276.49 L 1243.2,4268.46 L 1287.28,4344.82 L 1271.1,4356.79 Z " />
<path stroke="transparent" fill="#000000" transform="matrix(0.0833333 0 0 0.0833333 -22.25 -115)" d="M 1319.54,4320.96 L 1279.99,4252.46 L 1298.45,4244.43 L 1335.72,4308.98 L 1319.54,4320.96 Z " />
<path stroke="transparent" fill="#000000" transform="matrix(0.0833333 0 0 0.0833333 -22.25 -115)" d="M 1367.97,4285.12 L 1335.24,4228.43 L 1353.7,4220.4 L 1384.16,4273.15 L 1367.97,4285.12 Z " />
<path stroke="transparent" fill="#000000" transform="matrix(0.0833333 0 0 0.0833333 -22.25 -115)" d="M 1416.41,4249.28 L 1390.5,4204.4 L 1408.96,4196.37 L 1432.59,4237.31 L 1416.41,4249.28 Z " />
<path stroke="transparent" fill="#000000" transform="matrix(0.0833333 0 0 0.0833333 -22.25 -115)" d="M 1464.85,4213.45 L 1445.75,4180.37 L 1464.21,4172.34 L 1481.03,4201.47 L 1464.85,4213.45 Z " />
<path stroke="transparent" fill="#000000" transform="matrix(0.0833333 0 0 0.0833333 -22.25 -115)" d="M 1513.28,4177.61 L 1501,4156.34 L 1519.46,4148.32 L 1529.46,4165.64 L 1513.28,4177.61 Z " />
<path stroke="transparent" fill="#000000" transform="matrix(0.0833333 0 0 0.0833333 -22.25 -115)" d="M 1561.23,4135.75 L 1581.24,4124.2 L 2090.87,4418.47 L 2090.87,4430.01 L 2080.32,4435.47 L 1561.23,4135.75 Z " />
<path stroke="transparent" fill="#000000" transform="matrix(0.0833333 0 0 0.0833333 -22.25 -115)" d="M 2150.87,4924.83 L 2030.87,4924.83 L 2080.32,4435.47 L 2090.87,4430.01 L 2101.42,4435.47 L 2150.87,4924.83 Z " />
<path stroke="transparent" fill="#000000" transform="matrix(0.0833333 0 0 0.0833333 -22.25 -115)" d="M 2600.49,4124.24 L 2610.49,4130.01 L 2610.49,4141.56 L 2101.42,4435.47 L 2090.87,4430.01 L 2090.87,4418.47 L 2600.49,4124.24 Z " />
<path stroke="transparent" fill="#000000" transform="matrix(0.0833333 0 0 0.0833333 -22.25 -115)" d="M 2620.49,4124.24 L 2610.49,4130.01 L 2600.49,4124.24 L 2600.52,3535.72 L 2610.52,3529.94 L 2620.52,3536.37 L 2620.49,4124.24 Z " />
<path stroke="transparent" fill="#000000" transform="matrix(0.0833333 0 0 0.0833333 -22.25 -115)" d="M 3042.48,4367.87 L 3032.48,4385.19 L 2610.49,4141.56 L 2610.49,4130.01 L 2620.49,4124.24 L 3042.48,4367.87 Z " />
<path stroke="transparent" fill="#000000" transform="matrix(0.0833333 0 0 0.0833333 -22.25 -115)" d="M 3659.71,4124.23 L 3639.71,4135.77 L 3639.72,3535.78 L 3649.72,3530.01 L 3659.72,3535.79 L 3659.71,4124.23 Z " />
<path stroke="transparent" fill="#000000" transform="matrix(0.0833333 0 0 0.0833333 -22.25 -115)" d="M 3731.71,4088.43 L 3711.71,4088.43 L 3711.72,3571.58 L 3731.72,3571.58 L 3731.71,4088.43 Z " />
<path stroke="transparent" fill="#000000" transform="matrix(0.0833333 0 0 0.0833333 -22.25 -115)" d="M 4169.32,4418.44 L 4169.32,4429.99 L 4159.32,4435.76 L 3639.71,4135.77 L 3659.71,4124.23 L 4169.32,4418.44 Z " />
<path stroke="transparent" fill="#000000" transform="matrix(0.0833333 0 0 0.0833333 -22.25 -115)" d="M 4179.31,4924.81 L 4159.31,4924.81 L 4159.32,4435.76 L 4169.32,4429.99 L 4179.32,4435.76 L 4179.31,4924.81 Z " />
<path stroke="transparent" fill="#000000" transform="matrix(0.0833333 0 0 0.0833333 -22.25 -115)" d="M 4678.94,4124.21 L 4688.94,4129.99 L 4688.94,4141.53 L 4179.32,4435.76 L 4169.32,4429.99 L 4169.32,4418.44 L 4678.94,4124.21 Z " />
<path stroke="transparent" fill="#000000" transform="matrix(0.0833333 0 0 0.0833333 -22.25 -115)" d="M 4611.94,4079.76 L 4621.94,4097.08 L 4174.32,4355.51 L 4164.32,4338.19 L 4611.94,4079.76 Z " />
<path stroke="transparent" fill="#000000" transform="matrix(0.0833333 0 0 0.0833333 -22.25 -115)" d="M 4698.94,4124.21 L 4688.94,4129.99 L 4678.94,4124.21 L 4678.94,3535.77 L 4688.94,3530 L 4698.94,3535.77 L 4698.94,4124.21 Z " />
<path stroke="transparent" fill="#000000" transform="matrix(0.0833333 0 0 0.0833333 -22.25 -115)" d="M 5208.54,4418.43 L 5208.54,4441.52 L 4688.94,4141.53 L 4688.94,4129.99 L 4698.94,4124.21 L 5208.54,4418.43 Z " />
<path stroke="transparent" fill="#000000" transform="matrix(0.0833333 0 0 0.0833333 -22.25 -115)" d="M 5254.56,4924.84 L 5234.56,4924.84 L 5234.55,4409.19 L 5254.55,4409.19 L 5254.56,4924.84 Z " />
<path stroke="transparent" fill="#000000" transform="matrix(0.0833333 0 0 0.0833333 -22.25 -115)" d="M 5182.56,4924.85 L 5162.56,4924.85 L 5162.54,4409.19 L 5182.54,4409.19 L 5182.56,4924.85 Z " />
<path stroke="transparent" fill="#000000" transform="matrix(0.0833333 0 0 0.0833333 -22.25 -115)" d="M 5718.11,4124.23 L 5728.11,4130 L 5728.11,4141.55 L 5208.54,4441.52 L 5208.54,4418.43 L 5718.11,4124.23 Z " />
<path stroke="transparent" fill="#000000" transform="matrix(0.0833333 0 0 0.0833333 -22.25 -115)" d="M 5738.11,4124.23 L 5728.11,4130 L 5718.11,4124.23 L 5718.11,3535.79 L 5728.11,3530.02 L 5738.11,3535.79 L 5738.11,4124.23 Z " />
<path stroke="transparent" fill="#000000" transform="matrix(0.0833333 0 0 0.0833333 -22.25 -115)" d="M 5666.11,4088.43 L 5646.11,4088.43 L 5646.12,3571.58 L 5666.12,3571.58 L 5666.11,4088.43 Z " />
<path stroke="transparent" fill="#000000" transform="matrix(0.0833333 0 0 0.0833333 -22.25 -115)" d="M 6160.13,4367.9 L 6150.13,4385.22 L 5728.11,4141.55 L 5728.11,4130 L 5738.11,4124.23 L 6160.13,4367.9 Z " />
<path stroke="transparent" fill="#000000" transform="matrix(0.0833333 0 0 0.0833333 -22.25 -115)" d="M 6187.74,4549.87 L 6307.74,4549.88 L 6258.3,5024.58 L 6247.74,5030.03 L 6237.17,5024.58 L 6187.74,4549.87 Z " />
<path stroke="transparent" fill="#000000" transform="matrix(0.0833333 0 0 0.0833333 -22.25 -115)" d="M 5825.79,5285.19 L 5815.79,5267.86 L 6237.17,5024.58 L 6247.74,5030.03 L 6247.74,5041.58 L 5825.79,5285.19 Z " />
<path stroke="transparent" fill="#000000" transform="matrix(0.0833333 0 0 0.0833333 -22.25 -115)" d="M 5738.17,5924.21 L 5728.17,5929.99 L 5718.17,5924.21 L 5718.17,5449.83 L 5738.17,5449.83 L 5738.17,5924.21 Z " />
<path stroke="transparent" fill="#000000" transform="matrix(0.0833333 0 0 0.0833333 -22.25 -115)" d="M 5213.55,6238.65 L 5203.55,6221.33 L 5718.17,5924.21 L 5728.17,5929.99 L 5728.17,5941.53 L 5213.55,6238.65 Z " />
<path stroke="transparent" fill="#000000" transform="matrix(0.0833333 0 0 0.0833333 -22.25 -115)" d="M 5728.17,5941.53 L 5728.17,5929.99 L 5738.17,5924.21 L 6247.77,6218.43 L 6247.77,6229.97 L 6237.22,6235.43 L 5728.17,5941.53 Z " />
<path stroke="transparent" fill="#000000" transform="matrix(0.0833333 0 0 0.0833333 -22.25 -115)" d="M 6307.79,6724.84 L 6187.79,6724.85 L 6237.22,6235.43 L 6247.77,6229.97 L 6258.33,6235.43 L 6307.79,6724.84 Z " />
<path stroke="transparent" fill="#000000" transform="matrix(0.0833333 0 0 0.0833333 -22.25 -115)" d="M 6258.33,6235.43 L 6247.77,6229.97 L 6247.77,6218.43 L 6757.34,5924.23 L 6767.34,5930 L 6766.78,5941.87 L 6258.33,6235.43 Z " />
<path stroke="transparent" fill="#000000" transform="matrix(0.0833333 0 0 0.0833333 -22.25 -115)" d="M 7224.36,6124.6 L 7164.36,6228.53 L 6766.78,5941.87 L 6767.34,5930 L 6777.34,5923.59 L 7224.36,6124.6 Z " />
<path stroke="transparent" fill="#000000" transform="matrix(0.0833333 0 0 0.0833333 -22.25 -115)" d="M 7409.59,6228.53 L 7349.59,6124.61 L 7368.05,6116.58 L 7425.78,6216.56 L 7409.59,6228.53 Z " />
<path stroke="transparent" fill="#000000" transform="matrix(0.0833333 0 0 0.0833333 -22.25 -115)" d="M 7458.03,6192.69 L 7404.85,6100.58 L 7423.31,6092.55 L 7474.21,6180.72 L 7458.03,6192.69 Z " />
<path stroke="transparent" fill="#000000" transform="matrix(0.0833333 0 0 0.0833333 -22.25 -115)" d="M 7506.46,6156.86 L 7460.1,6076.55 L 7478.56,6068.52 L 7522.65,6144.89 L 7506.46,6156.86 Z " />
<path stroke="transparent" fill="#000000" transform="matrix(0.0833333 0 0 0.0833333 -22.25 -115)" d="M 7554.9,6121.02 L 7515.35,6052.52 L 7533.81,6044.5 L 7571.08,6109.05 L 7554.9,6121.02 Z " />
<path stroke="transparent" fill="#000000" transform="matrix(0.0833333 0 0 0.0833333 -22.25 -115)" d="M 7603.33,6085.19 L 7570.6,6028.5 L 7589.06,6020.47 L 7619.52,6073.21 L 7603.33,6085.19 Z " />
<path stroke="transparent" fill="#000000" transform="matrix(0.0833333 0 0 0.0833333 -22.25 -115)" d="M 7651.77,6049.35 L 7625.86,6004.47 L 7644.32,5996.44 L 7667.95,6037.38 L 7651.77,6049.35 Z " />
<path stroke="transparent" fill="#000000" transform="matrix(0.0833333 0 0 0.0833333 -22.25 -115)" d="M 7700.2,6013.51 L 7681.11,5980.44 L 7699.57,5972.41 L 7716.39,6001.54 L 7700.2,6013.51 Z " />
<path stroke="transparent" fill="#000000" transform="matrix(0.0833333 0 0 0.0833333 -22.25 -115)" d="M 7748.64,5977.68 L 7736.36,5956.41 L 7754.82,5948.38 L 7764.82,5965.7 L 7748.64,5977.68 Z " />
<path stroke="transparent" fill="#000000" transform="matrix(0.0833333 0 0 0.0833333 -22.25 -115)" d="M 7796.57,5449.84 L 7816.57,5449.84 L 7816.59,5924.27 L 7796.59,5935.82 L 7796.57,5449.84 Z " />
<path stroke="transparent" fill="#000000" transform="matrix(0.0833333 0 0 0.0833333 -22.25 -115)" d="M 8316.18,5024.23 L 8326.18,5030 L 8326.18,5041.55 L 7904.19,5285.19 L 7894.19,5267.87 L 8316.18,5024.23 Z " />
<path stroke="transparent" fill="#000000" transform="matrix(0.0833333 0 0 0.0833333 -22.25 -115)" d="M 8316.19,4424.24 L 8336.19,4435.79 L 8336.18,5024.23 L 8326.18,5030 L 8316.18,5024.23 L 8316.19,4424.24 Z " />
<path stroke="transparent" fill="#000000" transform="matrix(0.0833333 0 0 0.0833333 -22.25 -115)" d="M 8741.2,4178.86 L 8751.2,4196.18 L 8336.19,4435.79 L 8316.19,4424.24 L 8741.2,4178.86 Z " />
<path stroke="transparent" fill="#000000" transform="matrix(0.0833333 0 0 0.0833333 -22.25 -115)" d="M 8326.18,5041.55 L 8326.18,5030 L 8336.18,5024.23 L 8845.26,5318.17 L 8845.82,5330.04 L 8835.82,5335.81 L 8326.18,5041.55 Z " />
<path stroke="transparent" fill="#000000" transform="matrix(0.0833333 0 0 0.0833333 -22.25 -115)" d="M 9235.83,5035.59 L 9295.83,5139.51 L 8855.82,5336.46 L 8845.82,5330.04 L 8845.26,5318.17 L 9235.83,5035.59 Z " />
<path stroke="transparent" fill="#000000" transform="matrix(0.0833333 0 0 0.0833333 -22.25 -115)" d="M 8855.81,5924.25 L 8845.81,5930.03 L 8835.81,5924.25 L 8835.82,5335.81 L 8845.82,5330.04 L 8855.82,5336.46 L 8855.81,5924.25 Z " />
<path stroke="transparent" fill="#000000" transform="matrix(0.0833333 0 0 0.0833333 -22.25 -115)" d="M 9277.8,6167.88 L 9267.8,6185.2 L 8845.81,5941.58 L 8845.81,5930.03 L 8855.81,5924.25 L 9277.8,6167.88 Z " />
<path stroke="transparent" fill="#000000" transform="matrix(0.0833333 0 0 0.0833333 -22.25 -115)" d="M 8336.2,6235.8 L 8326.2,6230.03 L 8326.2,6218.48 L 8835.81,5924.25 L 8845.81,5930.03 L 8845.81,5941.58 L 8336.2,6235.8 Z " />
<path stroke="transparent" fill="#000000" transform="matrix(0.0833333 0 0 0.0833333 -22.25 -115)" d="M 8326.2,6218.48 L 8326.2,6230.03 L 8316.2,6235.8 L 7796.59,5935.82 L 7816.59,5924.27 L 8326.2,6218.48 Z " />
<path stroke="transparent" fill="#000000" transform="matrix(0.0833333 0 0 0.0833333 -22.25 -115)" d="M 8336.19,6724.85 L 8316.19,6724.85 L 8316.2,6235.8 L 8326.2,6230.03 L 8336.2,6235.8 L 8336.19,6724.85 Z " />
<path stroke="transparent" fill="#000000" transform="matrix(0.0833333 0 0 0.0833333 -22.25 -115)" d="M 6757.35,5335.79 L 6767.35,5330.02 L 6777.35,5335.79 L 6777.34,5923.59 L 6767.34,5930 L 6757.34,5924.23 L 6757.35,5335.79 Z " />
<path stroke="transparent" fill="#000000" transform="matrix(0.0833333 0 0 0.0833333 -22.25 -115)" d="M 6767.35,5318.47 L 6767.35,5330.02 L 6757.35,5335.79 L 6247.74,5041.58 L 6247.74,5030.03 L 6258.3,5024.58 L 6767.35,5318.47 Z " />
<path stroke="transparent" fill="#000000" transform="matrix(0.0833333 0 0 0.0833333 -22.25 -115)" d="M 7182.36,5078.86 L 7192.36,5096.18 L 6777.35,5335.79 L 6767.35,5330.02 L 6767.35,5318.47 L 7182.36,5078.86 Z " />
<path stroke="transparent" fill="#000000" transform="matrix(0.0833333 0 0 0.0833333 -22.25 -115)" d="M 6767.34,3518.45 L 6767.34,3541.55 L 6247.78,3241.53 L 6247.78,3229.99 L 6257.78,3224.21 L 6767.34,3518.45 Z " />
<path stroke="transparent" fill="#000000" transform="matrix(0.0833333 0 0 0.0833333 -22.25 -115)" d="M 7276.95,3224.23 L 7296.95,3235.78 L 6767.34,3541.55 L 6767.34,3518.45 L 7276.95,3224.23 Z " />
<path stroke="transparent" fill="#000000" transform="matrix(0.0833333 0 0 0.0833333 -22.25 -115)" d="M 7209.96,3179.77 L 7219.96,3197.09 L 6772.34,3455.52 L 6762.34,3438.2 L 7209.96,3179.77 Z " />
<path stroke="transparent" fill="#000000" transform="matrix(0.0833333 0 0 0.0833333 -22.25 -115)" d="M 7296.95,3235.78 L 7276.95,3224.23 L 7277.01,2635.76 L 7287.01,2629.98 L 7297.01,2635.76 L 7296.95,3235.78 Z " />
</svg>
