<?xml version="1.0" standalone="no" ?>
<!DOCTYPE svg PUBLIC "-//W3C//DTD SVG 1.1//EN" "http://www.w3.org/Graphics/SVG/1.1/DTD/svg11.dtd">
<svg width="230px" height="77px" viewBox="0 0 230 77" style="background-color: #ffffff00" xmlns="http://www.w3.org/2000/svg" xmlns:xlink="http://www.w3.org/1999/xlink" version="1.1" >
<text x="0" y="0" stroke="transparent" fill="#000000" transform="matrix(0.0666667 0 0 0.0666667 67.8575 14.0707)" style="font:normal normal normal 200px 'Arial'" >
O</text>
<text x="0" y="0" stroke="transparent" fill="#000000" transform="matrix(0.0666667 0 0 0.0666667 102.499 74.0737)" style="font:normal normal normal 200px 'Arial'" >
O</text>
<text x="0" y="0" stroke="transparent" fill="#000000" transform="matrix(0.0666667 0 0 0.0666667 206.423 14.0707)" style="font:normal normal normal 200px 'Arial'" >
OH</text>
<text x="0" y="0" stroke="transparent" fill="#000000" transform="matrix(0.0666667 0 0 0.0666667 171.777 74.0737)" style="font:normal normal normal 200px 'Arial'" >
O</text>
<path stroke="transparent" fill="#000000" transform="matrix(0.0666667 0 0 0.0666667 -233.853 -371)" d="M 4084.04,6009.6 L 4084.04,5986.5 L 4499.06,5746.9 L 4509.06,5764.23 L 4084.04,6009.6 Z " />
<path stroke="transparent" fill="#000000" transform="matrix(0.0666667 0 0 0.0666667 -233.853 -371)" d="M 5123.28,5986.5 L 5123.28,6009.6 L 4698.7,5764.48 L 4708.7,5747.15 L 5123.28,5986.5 Z " />
<path stroke="transparent" fill="#000000" transform="matrix(0.0666667 0 0 0.0666667 -233.853 -371)" d="M 5077.28,5977.27 L 5097.28,5977.27 L 5097.28,6492.94 L 5077.28,6492.94 L 5077.28,5977.27 Z " />
<path stroke="transparent" fill="#000000" transform="matrix(0.0666667 0 0 0.0666667 -233.853 -371)" d="M 5149.29,5977.27 L 5169.29,5977.27 L 5169.29,6492.94 L 5149.29,6492.94 L 5149.29,5977.27 Z " />
<path stroke="transparent" fill="#000000" transform="matrix(0.0666667 0 0 0.0666667 -233.853 -371)" d="M 6162.45,6009.6 L 6162.45,5986.5 L 6577.54,5746.9 L 6587.54,5764.22 L 6162.45,6009.6 Z " />
<path stroke="transparent" fill="#000000" transform="matrix(0.0666667 0 0 0.0666667 -233.853 -371)" d="M 6116.45,5977.26 L 6136.45,5977.26 L 6136.45,6492.94 L 6116.45,6492.94 L 6116.45,5977.26 Z " />
<path stroke="transparent" fill="#000000" transform="matrix(0.0666667 0 0 0.0666667 -233.853 -371)" d="M 6188.45,5977.27 L 6208.45,5977.27 L 6208.45,6492.94 L 6188.45,6492.94 L 6188.45,5977.27 Z " />
<path stroke="transparent" fill="#000000" transform="matrix(0.0666667 0 0 0.0666667 -233.853 -371)" d="M 3559.42,5706.72 L 3569.42,5689.4 L 4084.04,5986.5 L 4084.04,6009.6 L 3559.42,5706.72 Z " />
<path stroke="transparent" fill="#000000" transform="matrix(0.0666667 0 0 0.0666667 -233.853 -371)" d="M 5123.28,6009.6 L 5123.28,5986.5 L 5642.9,5686.51 L 5642.9,5709.61 L 5123.28,6009.6 Z " />
<path stroke="transparent" fill="#000000" transform="matrix(0.0666667 0 0 0.0666667 -233.853 -371)" d="M 6162.45,5986.5 L 6162.45,6009.6 L 5642.9,5709.61 L 5642.9,5686.51 L 6162.45,5986.5 Z " />
</svg>
