<?xml version="1.0" standalone="no" ?>
<!DOCTYPE svg PUBLIC "-//W3C//DTD SVG 1.1//EN" "http://www.w3.org/Graphics/SVG/1.1/DTD/svg11.dtd">
<svg width="250px" height="97px" viewBox="0 0 250 97" style="background-color: #ffffff00" xmlns="http://www.w3.org/2000/svg" xmlns:xlink="http://www.w3.org/1999/xlink" version="1.1" >
<text x="0" y="0" stroke="transparent" fill="#000000" transform="matrix(0.0666667 0 0 0.0666667 33.143 94.0722)" style="font:normal normal normal 200px 'Arial'" >
O</text>
<text x="0" y="0" stroke="transparent" fill="#000000" transform="matrix(0.0666667 0 0 0.0666667 33.143 14.0722)" style="font:normal normal normal 200px 'Arial'" >
O</text>
<path stroke="transparent" fill="#000000" transform="matrix(0.0666667 0 0 0.0666667 -223.853 -345)" d="M 4462.58,6202.31 L 4452.58,6208.08 L 4442.58,6202.31 L 4442.58,5613.86 L 4452.58,5608.08 L 4462.58,5613.86 L 4462.58,6202.31 Z " />
<path stroke="transparent" fill="#000000" transform="matrix(0.0666667 0 0 0.0666667 -223.853 -345)" d="M 4972.22,6496.54 L 4972.22,6519.63 L 4452.58,6219.63 L 4452.58,6208.08 L 4462.58,6202.31 L 4972.22,6496.54 Z " />
<path stroke="transparent" fill="#000000" transform="matrix(0.0666667 0 0 0.0666667 -223.853 -345)" d="M 4977.22,6416.28 L 4967.22,6433.6 L 4519.58,6175.17 L 4529.58,6157.85 L 4977.22,6416.28 Z " />
<path stroke="transparent" fill="#000000" transform="matrix(0.0666667 0 0 0.0666667 -223.853 -345)" d="M 5481.78,6202.31 L 5491.78,6208.08 L 5491.78,6219.63 L 4972.22,6519.63 L 4972.22,6496.54 L 5481.78,6202.31 Z " />
<path stroke="transparent" fill="#000000" transform="matrix(0.0666667 0 0 0.0666667 -223.853 -345)" d="M 5481.78,5613.86 L 5501.78,5602.31 L 5501.78,6202.31 L 5491.78,6208.08 L 5481.78,6202.31 L 5481.78,5613.86 Z " />
<path stroke="transparent" fill="#000000" transform="matrix(0.0666667 0 0 0.0666667 -223.853 -345)" d="M 5409.78,5649.65 L 5429.78,5649.65 L 5429.78,6166.52 L 5409.78,6166.52 L 5409.78,5649.65 Z " />
<path stroke="transparent" fill="#000000" transform="matrix(0.0666667 0 0 0.0666667 -223.853 -345)" d="M 4972.22,5319.63 L 4972.22,5296.54 L 5501.78,5602.31 L 5481.78,5613.86 L 4972.22,5319.63 Z " />
<path stroke="transparent" fill="#000000" transform="matrix(0.0666667 0 0 0.0666667 -223.853 -345)" d="M 4972.22,5296.54 L 4972.22,5319.63 L 4462.58,5613.86 L 4452.58,5608.08 L 4452.58,5596.54 L 4972.22,5296.54 Z " />
<path stroke="transparent" fill="#000000" transform="matrix(0.0666667 0 0 0.0666667 -223.853 -345)" d="M 4967.22,5382.56 L 4977.22,5399.89 L 4529.58,5658.31 L 4519.58,5640.99 L 4967.22,5382.56 Z " />
<path stroke="transparent" fill="#000000" transform="matrix(0.0666667 0 0 0.0666667 -223.853 -345)" d="M 6489.06,6137.72 L 6501.05,6153.73 L 6012.13,6520.04 L 6010.7,6496.12 L 6489.06,6137.72 Z " />
<path stroke="transparent" fill="#000000" transform="matrix(0.0666667 0 0 0.0666667 -223.853 -345)" d="M 6532.1,6197.14 L 6530.01,6219.03 L 6017.41,6432.95 L 6005.42,6416.94 L 6532.1,6197.14 Z " />
<path stroke="transparent" fill="#000000" transform="matrix(0.0666667 0 0 0.0666667 -223.853 -345)" d="M 7055.62,6499.42 L 7045.62,6516.74 L 6531.05,6219.63 L 6531.05,6196.54 L 7055.62,6499.42 Z " />
<path stroke="transparent" fill="#000000" transform="matrix(0.0666667 0 0 0.0666667 -223.853 -345)" d="M 6011.42,6496.54 L 6011.42,6519.63 L 5491.78,6219.63 L 5491.78,6208.08 L 5501.78,6202.31 L 6011.42,6496.54 Z " />
<path stroke="transparent" fill="#000000" transform="matrix(0.0666667 0 0 0.0666667 -223.853 -345)" d="M 3408.38,6216.74 L 3418.38,6199.42 L 3845.33,6445.95 L 3835.33,6463.27 L 3408.38,6216.74 Z " />
<path stroke="transparent" fill="#000000" transform="matrix(0.0666667 0 0 0.0666667 -223.853 -345)" d="M 4030.56,6463.27 L 4020.57,6445.95 L 4442.58,6202.31 L 4452.58,6208.08 L 4452.58,6219.63 L 4030.56,6463.27 Z " />
<path stroke="transparent" fill="#000000" transform="matrix(0.0666667 0 0 0.0666667 -223.853 -345)" d="M 3418.38,5616.74 L 3408.38,5599.42 L 3828.34,5356.93 L 3838.34,5374.25 L 3418.38,5616.74 Z " />
<path stroke="transparent" fill="#000000" transform="matrix(0.0666667 0 0 0.0666667 -223.853 -345)" d="M 4027.98,5374.5 L 4037.98,5357.18 L 4452.58,5596.54 L 4452.58,5608.08 L 4442.58,5613.86 L 4027.98,5374.5 Z " />
</svg>
