<?xml version="1.0" standalone="no" ?>
<!DOCTYPE svg PUBLIC "-//W3C//DTD SVG 1.1//EN" "http://www.w3.org/Graphics/SVG/1.1/DTD/svg11.dtd">
<svg width="608px" height="397px" viewBox="0 0 608 397" style="background-color: #ffffff00" xmlns="http://www.w3.org/2000/svg" xmlns:xlink="http://www.w3.org/1999/xlink" version="1.1" >
<text x="0" y="0" stroke="transparent" fill="#000000" transform="matrix(0.0833333 0 0 0.0833333 448.808 167.967)" style="font:normal normal normal 200px 'Arial'" >
O</text>
<text x="0" y="0" stroke="transparent" fill="#000000" transform="matrix(0.0833333 0 0 0.0833333 492.109 242.969)" style="font:normal normal normal 200px 'Arial'" >
O</text>
<text x="0" y="0" stroke="transparent" fill="#000000" transform="matrix(0.0833333 0 0 0.0833333 405.507 192.968)" style="font:normal normal normal 200px 'Arial'" >
O</text>
<text x="0" y="0" stroke="transparent" fill="#000000" transform="matrix(0.0833333 0 0 0.0833333 188.998 17.9637)" style="font:normal normal normal 200px 'Arial'" >
O</text>
<text x="0" y="0" stroke="transparent" fill="#000000" transform="matrix(0.0833333 0 0 0.0833333 3.75275 17.9637)" style="font:normal normal normal 200px 'Arial'" >
HO</text>
<text x="0" y="0" stroke="transparent" fill="#000000" transform="matrix(0.0833333 0 0 0.0833333 102.391 167.967)" style="font:normal normal normal 200px 'Arial'" >
OH</text>
<text x="0" y="0" stroke="transparent" fill="#000000" transform="matrix(0.0833333 0 0 0.0833333 188.998 167.967)" style="font:normal normal normal 200px 'Arial'" >
O</text>
<text x="0" y="0" stroke="transparent" fill="#000000" transform="matrix(0.0833333 0 0 0.0833333 362.206 267.964)" style="font:normal normal normal 200px 'Arial'" >
O</text>
<text x="0" y="0" stroke="transparent" fill="#000000" transform="matrix(0.0833333 0 0 0.0833333 318.905 392.967)" style="font:normal normal normal 200px 'Arial'" >
OH</text>
<text x="0" y="0" stroke="transparent" fill="#000000" transform="matrix(0.0833333 0 0 0.0833333 405.507 392.967)" style="font:normal normal normal 200px 'Arial'" >
OH</text>
<text x="0" y="0" stroke="transparent" fill="#000000" transform="matrix(0.0833333 0 0 0.0833333 492.109 342.971)" style="font:normal normal normal 200px 'Arial'" >
OH</text>
<text x="0" y="0" stroke="transparent" fill="#000000" transform="matrix(0.0833333 0 0 0.0833333 578.711 192.972)" style="font:normal normal normal 200px 'Arial'" >
OH</text>
<text x="0" y="0" stroke="transparent" fill="#000000" transform="matrix(0.0833333 0 0 0.0833333 578.711 92.9703)" style="font:normal normal normal 200px 'Arial'" >
OH</text>
<text x="0" y="0" stroke="transparent" fill="#000000" transform="matrix(0.0833333 0 0 0.0833333 492.109 42.9642)" style="font:normal normal normal 200px 'Arial'" >
OH</text>
<path stroke="transparent" fill="#000000" transform="matrix(0.0833333 0 0 0.0833333 -132.25 -180)" d="M 6501.09,3249.54 L 6561.09,3145.62 L 7051.16,3485.78 L 7050.7,3497.59 L 7040.7,3503.89 L 6501.09,3249.54 Z " />
<path stroke="transparent" fill="#000000" transform="matrix(0.0833333 0 0 0.0833333 -132.25 -180)" d="M 7060.7,3992.44 L 7040.7,3992.44 L 7040.7,3503.89 L 7050.7,3497.59 L 7060.7,3503.36 L 7060.7,3992.44 Z " />
<path stroke="transparent" fill="#000000" transform="matrix(0.0833333 0 0 0.0833333 -132.25 -180)" d="M 7145.73,4164.03 L 7155.73,4146.71 L 7570.31,4386.12 L 7570.31,4409.22 L 7145.73,4164.03 Z " />
<path stroke="transparent" fill="#000000" transform="matrix(0.0833333 0 0 0.0833333 -132.25 -180)" d="M 7630.31,4892.46 L 7510.31,4892.46 L 7512.58,4872.46 L 7628.04,4872.46 L 7630.31,4892.46 Z " />
<path stroke="transparent" fill="#000000" transform="matrix(0.0833333 0 0 0.0833333 -132.25 -180)" d="M 7623.49,4832.36 L 7517.13,4832.36 L 7519.4,4812.36 L 7621.22,4812.36 L 7623.49,4832.36 Z " />
<path stroke="transparent" fill="#000000" transform="matrix(0.0833333 0 0 0.0833333 -132.25 -180)" d="M 7616.67,4772.26 L 7523.95,4772.26 L 7526.22,4752.26 L 7614.4,4752.26 L 7616.67,4772.26 Z " />
<path stroke="transparent" fill="#000000" transform="matrix(0.0833333 0 0 0.0833333 -132.25 -180)" d="M 7609.85,4712.16 L 7530.77,4712.16 L 7533.04,4692.16 L 7607.59,4692.16 L 7609.85,4712.16 Z " />
<path stroke="transparent" fill="#000000" transform="matrix(0.0833333 0 0 0.0833333 -132.25 -180)" d="M 7603.04,4652.06 L 7537.59,4652.06 L 7539.85,4632.06 L 7600.77,4632.06 L 7603.04,4652.06 Z " />
<path stroke="transparent" fill="#000000" transform="matrix(0.0833333 0 0 0.0833333 -132.25 -180)" d="M 7596.22,4591.96 L 7544.4,4591.96 L 7546.67,4571.96 L 7593.95,4571.96 L 7596.22,4591.96 Z " />
<path stroke="transparent" fill="#000000" transform="matrix(0.0833333 0 0 0.0833333 -132.25 -180)" d="M 7589.4,4531.86 L 7551.22,4531.86 L 7553.49,4511.86 L 7587.13,4511.86 L 7589.4,4531.86 Z " />
<path stroke="transparent" fill="#000000" transform="matrix(0.0833333 0 0 0.0833333 -132.25 -180)" d="M 7582.58,4471.76 L 7558.04,4471.76 L 7560.31,4451.76 L 7580.31,4451.76 L 7582.58,4471.76 Z " />
<path stroke="transparent" fill="#000000" transform="matrix(0.0833333 0 0 0.0833333 -132.25 -180)" d="M 7440.71,5003.17 L 7500.71,5107.09 L 7482.23,5115.08 L 7424.55,5015.18 L 7440.71,5003.17 Z " />
<path stroke="transparent" fill="#000000" transform="matrix(0.0833333 0 0 0.0833333 -132.25 -180)" d="M 7393.28,5038.42 L 7446.47,5130.54 L 7427.99,5138.53 L 7377.12,5050.43 L 7393.28,5038.42 Z " />
<path stroke="transparent" fill="#000000" transform="matrix(0.0833333 0 0 0.0833333 -132.25 -180)" d="M 7345.85,5073.66 L 7392.23,5153.99 L 7373.75,5161.98 L 7329.69,5085.68 L 7345.85,5073.66 Z " />
<path stroke="transparent" fill="#000000" transform="matrix(0.0833333 0 0 0.0833333 -132.25 -180)" d="M 7298.43,5108.91 L 7337.99,5177.44 L 7319.51,5185.43 L 7282.27,5120.92 L 7298.43,5108.91 Z " />
<path stroke="transparent" fill="#000000" transform="matrix(0.0833333 0 0 0.0833333 -132.25 -180)" d="M 7251,5144.16 L 7283.76,5200.89 L 7265.27,5208.88 L 7234.84,5156.17 L 7251,5144.16 Z " />
<path stroke="transparent" fill="#000000" transform="matrix(0.0833333 0 0 0.0833333 -132.25 -180)" d="M 7203.57,5179.41 L 7229.52,5224.34 L 7211.04,5232.33 L 7187.41,5191.42 L 7203.57,5179.41 Z " />
<path stroke="transparent" fill="#000000" transform="matrix(0.0833333 0 0 0.0833333 -132.25 -180)" d="M 7156.15,5214.66 L 7175.28,5247.79 L 7156.8,5255.78 L 7139.99,5226.67 L 7156.15,5214.66 Z " />
<path stroke="transparent" fill="#000000" transform="matrix(0.0833333 0 0 0.0833333 -132.25 -180)" d="M 7108.72,5249.9 L 7121.04,5271.24 L 7102.56,5279.23 L 7092.56,5261.91 L 7108.72,5249.9 Z " />
<path stroke="transparent" fill="#000000" transform="matrix(0.0833333 0 0 0.0833333 -132.25 -180)" d="M 7060.7,5291.86 L 7040.7,5303.4 L 6531.09,5009.17 L 6531.09,4997.62 L 6541.66,4992.18 L 7060.7,5291.86 Z " />
<path stroke="transparent" fill="#000000" transform="matrix(0.0833333 0 0 0.0833333 -132.25 -180)" d="M 6471.09,4517.44 L 6591.09,4517.44 L 6541.66,4992.18 L 6531.09,4997.62 L 6520.52,4992.18 L 6471.09,4517.44 Z " />
<path stroke="transparent" fill="#000000" transform="matrix(0.0833333 0 0 0.0833333 -132.25 -180)" d="M 6011.48,4109.15 L 6011.48,4097.6 L 6021.48,4091.83 L 6443.47,4335.48 L 6433.47,4352.8 L 6011.48,4109.15 Z " />
<path stroke="transparent" fill="#000000" transform="matrix(0.0833333 0 0 0.0833333 -132.25 -180)" d="M 6001.48,3503.36 L 6021.48,3491.82 L 6021.48,4091.83 L 6011.48,4097.6 L 6001.48,4091.83 L 6001.48,3503.36 Z " />
<path stroke="transparent" fill="#000000" transform="matrix(0.0833333 0 0 0.0833333 -132.25 -180)" d="M 5929.48,3539.16 L 5949.48,3539.16 L 5949.48,4056.03 L 5929.48,4056.03 L 5929.48,3539.16 Z " />
<path stroke="transparent" fill="#000000" transform="matrix(0.0833333 0 0 0.0833333 -132.25 -180)" d="M 5491.87,3209.13 L 5491.87,3186.04 L 6021.48,3491.82 L 6001.48,3503.36 L 5491.87,3209.13 Z " />
<path stroke="transparent" fill="#000000" transform="matrix(0.0833333 0 0 0.0833333 -132.25 -180)" d="M 4982.19,3503.36 L 4972.19,3497.59 L 4972.19,3486.04 L 5491.87,3186.04 L 5491.87,3209.13 L 4982.19,3503.36 Z " />
<path stroke="transparent" fill="#000000" transform="matrix(0.0833333 0 0 0.0833333 -132.25 -180)" d="M 5049.2,3547.83 L 5039.2,3530.5 L 5486.86,3272.07 L 5496.86,3289.39 L 5049.2,3547.83 Z " />
<path stroke="transparent" fill="#000000" transform="matrix(0.0833333 0 0 0.0833333 -132.25 -180)" d="M 4452.58,3209.13 L 4452.58,3197.58 L 4462.58,3191.81 L 4972.19,3486.04 L 4972.19,3497.59 L 4962.19,3503.36 L 4452.58,3209.13 Z " />
<path stroke="transparent" fill="#000000" transform="matrix(0.0833333 0 0 0.0833333 -132.25 -180)" d="M 4442.58,2603.34 L 4462.58,2591.8 L 4462.58,3191.81 L 4452.58,3197.58 L 4442.58,3191.81 L 4442.58,2603.34 Z " />
<path stroke="transparent" fill="#000000" transform="matrix(0.0833333 0 0 0.0833333 -132.25 -180)" d="M 4370.58,2639.14 L 4390.58,2639.14 L 4390.58,3156.01 L 4370.58,3156.01 L 4370.58,2639.14 Z " />
<path stroke="transparent" fill="#000000" transform="matrix(0.0833333 0 0 0.0833333 -132.25 -180)" d="M 4028.01,2363.98 L 4038.01,2346.66 L 4462.58,2591.8 L 4442.58,2603.34 L 4028.01,2363.98 Z " />
<path stroke="transparent" fill="#000000" transform="matrix(0.0833333 0 0 0.0833333 -132.25 -180)" d="M 3423.36,2603.34 L 3413.36,2597.57 L 3413.36,2586.02 L 3828.37,2346.41 L 3838.37,2363.73 L 3423.36,2603.34 Z " />
<path stroke="transparent" fill="#000000" transform="matrix(0.0833333 0 0 0.0833333 -132.25 -180)" d="M 2893.69,2309.11 L 2893.69,2286.02 L 3413.36,2586.02 L 3413.36,2597.57 L 3403.36,2603.34 L 2893.69,2309.11 Z " />
<path stroke="transparent" fill="#000000" transform="matrix(0.0833333 0 0 0.0833333 -132.25 -180)" d="M 2888.69,2389.37 L 2898.69,2372.05 L 3346.35,2630.48 L 3336.35,2647.81 L 2888.69,2389.37 Z " />
<path stroke="transparent" fill="#000000" transform="matrix(0.0833333 0 0 0.0833333 -132.25 -180)" d="M 2384.08,2603.34 L 2374.08,2597.57 L 2374.08,2586.02 L 2893.69,2286.02 L 2893.69,2309.11 L 2384.08,2603.34 Z " />
<path stroke="transparent" fill="#000000" transform="matrix(0.0833333 0 0 0.0833333 -132.25 -180)" d="M 1949.49,2363.98 L 1959.49,2346.66 L 2374.08,2586.02 L 2374.08,2597.57 L 2364.08,2603.34 L 1949.49,2363.98 Z " />
<path stroke="transparent" fill="#000000" transform="matrix(0.0833333 0 0 0.0833333 -132.25 -180)" d="M 2384.08,3191.81 L 2364.08,3203.36 L 2364.08,2603.34 L 2374.08,2597.57 L 2384.08,2603.34 L 2384.08,3191.81 Z " />
<path stroke="transparent" fill="#000000" transform="matrix(0.0833333 0 0 0.0833333 -132.25 -180)" d="M 2456.08,3156.01 L 2436.08,3156.01 L 2436.08,2639.14 L 2456.08,2639.14 L 2456.08,3156.01 Z " />
<path stroke="transparent" fill="#000000" transform="matrix(0.0833333 0 0 0.0833333 -132.25 -180)" d="M 2893.69,3486.04 L 2893.69,3497.59 L 2883.69,3503.36 L 2364.08,3203.36 L 2384.08,3191.81 L 2893.69,3486.04 Z " />
<path stroke="transparent" fill="#000000" transform="matrix(0.0833333 0 0 0.0833333 -132.25 -180)" d="M 2903.69,3992.44 L 2883.69,3992.44 L 2883.69,3503.36 L 2893.69,3497.59 L 2903.69,3503.36 L 2903.69,3992.44 Z " />
<path stroke="transparent" fill="#000000" transform="matrix(0.0833333 0 0 0.0833333 -132.25 -180)" d="M 3403.36,3191.81 L 3413.36,3197.58 L 3413.36,3209.13 L 2903.69,3503.36 L 2893.69,3497.59 L 2893.69,3486.04 L 3403.36,3191.81 Z " />
<path stroke="transparent" fill="#000000" transform="matrix(0.0833333 0 0 0.0833333 -132.25 -180)" d="M 3336.35,3147.35 L 3346.35,3164.67 L 2898.69,3423.11 L 2888.69,3405.78 L 3336.35,3147.35 Z " />
<path stroke="transparent" fill="#000000" transform="matrix(0.0833333 0 0 0.0833333 -132.25 -180)" d="M 3423.36,3191.81 L 3413.36,3197.58 L 3403.36,3191.81 L 3403.36,2603.34 L 3413.36,2597.57 L 3423.36,2603.34 L 3423.36,3191.81 Z " />
<path stroke="transparent" fill="#000000" transform="matrix(0.0833333 0 0 0.0833333 -132.25 -180)" d="M 3932.97,3486.04 L 3932.97,3509.14 L 3413.36,3209.13 L 3413.36,3197.58 L 3423.36,3191.81 L 3932.97,3486.04 Z " />
<path stroke="transparent" fill="#000000" transform="matrix(0.0833333 0 0 0.0833333 -132.25 -180)" d="M 3932.97,3509.14 L 3932.97,3486.04 L 4442.58,3191.81 L 4452.58,3197.58 L 4452.58,3209.13 L 3932.97,3509.14 Z " />
<path stroke="transparent" fill="#000000" transform="matrix(0.0833333 0 0 0.0833333 -132.25 -180)" d="M 3978.97,3992.44 L 3958.97,3992.44 L 3958.97,3476.8 L 3978.97,3476.8 L 3978.97,3992.44 Z " />
<path stroke="transparent" fill="#000000" transform="matrix(0.0833333 0 0 0.0833333 -132.25 -180)" d="M 3906.97,3992.44 L 3886.97,3992.44 L 3886.97,3476.8 L 3906.97,3476.8 L 3906.97,3992.44 Z " />
<path stroke="transparent" fill="#000000" transform="matrix(0.0833333 0 0 0.0833333 -132.25 -180)" d="M 4982.19,4091.83 L 4962.19,4103.38 L 4962.19,3503.36 L 4972.19,3497.59 L 4982.19,3503.36 L 4982.19,4091.83 Z " />
<path stroke="transparent" fill="#000000" transform="matrix(0.0833333 0 0 0.0833333 -132.25 -180)" d="M 5491.87,4386.06 L 5491.87,4409.16 L 4962.19,4103.38 L 4982.19,4091.83 L 5491.87,4386.06 Z " />
<path stroke="transparent" fill="#000000" transform="matrix(0.0833333 0 0 0.0833333 -132.25 -180)" d="M 5496.86,4305.8 L 5486.86,4323.13 L 5039.2,4064.69 L 5049.2,4047.37 L 5496.86,4305.8 Z " />
<path stroke="transparent" fill="#000000" transform="matrix(0.0833333 0 0 0.0833333 -132.25 -180)" d="M 5491.87,4409.16 L 5491.87,4386.06 L 6001.48,4091.83 L 6011.48,4097.6 L 6011.48,4109.15 L 5491.87,4409.16 Z " />
<path stroke="transparent" fill="#000000" transform="matrix(0.0833333 0 0 0.0833333 -132.25 -180)" d="M 6109.1,5252.76 L 6099.1,5235.44 L 6520.52,4992.18 L 6531.09,4997.62 L 6531.09,5009.17 L 6109.1,5252.76 Z " />
<path stroke="transparent" fill="#000000" transform="matrix(0.0833333 0 0 0.0833333 -132.25 -180)" d="M 6001.48,5417.4 L 6021.48,5417.4 L 6021.48,5891.81 L 6011.48,5897.58 L 6001.48,5891.28 L 6001.48,5417.4 Z " />
<path stroke="transparent" fill="#000000" transform="matrix(0.0833333 0 0 0.0833333 -132.25 -180)" d="M 5501.87,6263.43 L 5481.87,6136.2 L 6001.48,5891.28 L 6011.48,5897.58 L 6011.94,5909.39 L 5501.87,6263.43 Z " />
<path stroke="transparent" fill="#000000" transform="matrix(0.0833333 0 0 0.0833333 -132.25 -180)" d="M 5501.87,6692.44 L 5481.87,6692.44 L 5481.87,6136.2 L 5501.87,6263.43 L 5501.87,6692.44 Z " />
<path stroke="transparent" fill="#000000" transform="matrix(0.0833333 0 0 0.0833333 -132.25 -180)" d="M 6011.94,5909.39 L 6011.48,5897.58 L 6021.48,5891.81 L 6531.09,6186.04 L 6531.09,6209.14 L 6011.94,5909.39 Z " />
<path stroke="transparent" fill="#000000" transform="matrix(0.0833333 0 0 0.0833333 -132.25 -180)" d="M 6591.09,6692.44 L 6471.09,6692.44 L 6473.36,6672.44 L 6588.82,6672.44 L 6591.09,6692.44 Z " />
<path stroke="transparent" fill="#000000" transform="matrix(0.0833333 0 0 0.0833333 -132.25 -180)" d="M 6584.27,6632.33 L 6477.91,6632.33 L 6480.18,6612.33 L 6582,6612.33 L 6584.27,6632.33 Z " />
<path stroke="transparent" fill="#000000" transform="matrix(0.0833333 0 0 0.0833333 -132.25 -180)" d="M 6577.45,6572.22 L 6484.73,6572.22 L 6486.99,6552.22 L 6575.18,6552.22 L 6577.45,6572.22 Z " />
<path stroke="transparent" fill="#000000" transform="matrix(0.0833333 0 0 0.0833333 -132.25 -180)" d="M 6570.63,6512.11 L 6491.54,6512.11 L 6493.81,6492.11 L 6568.36,6492.11 L 6570.63,6512.11 Z " />
<path stroke="transparent" fill="#000000" transform="matrix(0.0833333 0 0 0.0833333 -132.25 -180)" d="M 6563.81,6452 L 6498.36,6452 L 6500.63,6432 L 6561.54,6432 L 6563.81,6452 Z " />
<path stroke="transparent" fill="#000000" transform="matrix(0.0833333 0 0 0.0833333 -132.25 -180)" d="M 6556.99,6391.9 L 6505.18,6391.9 L 6507.45,6371.9 L 6554.73,6371.9 L 6556.99,6391.9 Z " />
<path stroke="transparent" fill="#000000" transform="matrix(0.0833333 0 0 0.0833333 -132.25 -180)" d="M 6550.18,6331.79 L 6512,6331.79 L 6514.27,6311.79 L 6547.91,6311.79 L 6550.18,6331.79 Z " />
<path stroke="transparent" fill="#000000" transform="matrix(0.0833333 0 0 0.0833333 -132.25 -180)" d="M 6543.36,6271.68 L 6518.82,6271.68 L 6521.09,6251.68 L 6541.09,6251.68 L 6543.36,6271.68 Z " />
<path stroke="transparent" fill="#000000" transform="matrix(0.0833333 0 0 0.0833333 -132.25 -180)" d="M 6531.09,6209.14 L 6531.09,6186.04 L 7040.7,5891.81 L 7050.7,5897.58 L 7050.15,5909.45 L 6531.09,6209.14 Z " />
<path stroke="transparent" fill="#000000" transform="matrix(0.0833333 0 0 0.0833333 -132.25 -180)" d="M 7060.7,5891.17 L 7050.7,5897.58 L 7040.7,5891.81 L 7040.7,5303.4 L 7060.7,5291.86 L 7060.7,5891.17 Z " />
<path stroke="transparent" fill="#000000" transform="matrix(0.0833333 0 0 0.0833333 -132.25 -180)" d="M 7507.7,6092.21 L 7447.69,6196.12 L 7050.15,5909.45 L 7050.7,5897.58 L 7060.7,5891.17 L 7507.7,6092.21 Z " />
<path stroke="transparent" fill="#000000" transform="matrix(0.0833333 0 0 0.0833333 -132.25 -180)" d="M 7570.31,4409.22 L 7570.31,4386.12 L 8079.92,4091.89 L 8089.92,4097.66 L 8089.37,4109.53 L 7570.31,4409.22 Z " />
<path stroke="transparent" fill="#000000" transform="matrix(0.0833333 0 0 0.0833333 -132.25 -180)" d="M 8546.92,4292.23 L 8486.91,4396.16 L 8089.37,4109.53 L 8089.92,4097.66 L 8099.92,4091.25 L 8546.92,4292.23 Z " />
<path stroke="transparent" fill="#000000" transform="matrix(0.0833333 0 0 0.0833333 -132.25 -180)" d="M 8099.92,4091.25 L 8089.92,4097.66 L 8079.92,4091.89 L 8079.92,3503.42 L 8089.92,3497.65 L 8099.92,3504.07 L 8099.92,4091.25 Z " />
<path stroke="transparent" fill="#000000" transform="matrix(0.0833333 0 0 0.0833333 -132.25 -180)" d="M 8479.93,3203.19 L 8539.93,3307.11 L 8099.92,3504.07 L 8089.92,3497.65 L 8089.36,3485.78 L 8479.93,3203.19 Z " />
<path stroke="transparent" fill="#000000" transform="matrix(0.0833333 0 0 0.0833333 -132.25 -180)" d="M 8089.36,3485.78 L 8089.92,3497.65 L 8079.92,3503.42 L 7570.31,3209.19 L 7570.31,3186.1 L 8089.36,3485.78 Z " />
<path stroke="transparent" fill="#000000" transform="matrix(0.0833333 0 0 0.0833333 -132.25 -180)" d="M 7570.31,3186.1 L 7570.31,3209.19 L 7060.7,3503.36 L 7050.7,3497.59 L 7051.16,3485.78 L 7570.31,3186.1 Z " />
<path stroke="transparent" fill="#000000" transform="matrix(0.0833333 0 0 0.0833333 -132.25 -180)" d="M 7510.31,2717.4 L 7630.31,2717.4 L 7627.96,2737.4 L 7512.66,2737.4 L 7510.31,2717.4 Z " />
<path stroke="transparent" fill="#000000" transform="matrix(0.0833333 0 0 0.0833333 -132.25 -180)" d="M 7517.12,2775.43 L 7623.5,2775.43 L 7621.16,2795.43 L 7519.46,2795.43 L 7517.12,2775.43 Z " />
<path stroke="transparent" fill="#000000" transform="matrix(0.0833333 0 0 0.0833333 -132.25 -180)" d="M 7523.93,2833.46 L 7616.7,2833.46 L 7614.35,2853.46 L 7526.27,2853.46 L 7523.93,2833.46 Z " />
<path stroke="transparent" fill="#000000" transform="matrix(0.0833333 0 0 0.0833333 -132.25 -180)" d="M 7530.73,2891.5 L 7609.89,2891.5 L 7607.54,2911.5 L 7533.08,2911.5 L 7530.73,2891.5 Z " />
<path stroke="transparent" fill="#000000" transform="matrix(0.0833333 0 0 0.0833333 -132.25 -180)" d="M 7537.54,2949.53 L 7603.08,2949.53 L 7600.73,2969.53 L 7539.89,2969.53 L 7537.54,2949.53 Z " />
<path stroke="transparent" fill="#000000" transform="matrix(0.0833333 0 0 0.0833333 -132.25 -180)" d="M 7544.35,3007.56 L 7596.27,3007.56 L 7593.93,3027.56 L 7546.7,3027.56 L 7544.35,3007.56 Z " />
<path stroke="transparent" fill="#000000" transform="matrix(0.0833333 0 0 0.0833333 -132.25 -180)" d="M 7551.16,3065.59 L 7589.46,3065.59 L 7587.12,3085.59 L 7553.5,3085.59 L 7551.16,3065.59 Z " />
<path stroke="transparent" fill="#000000" transform="matrix(0.0833333 0 0 0.0833333 -132.25 -180)" d="M 7557.96,3123.62 L 7582.66,3123.62 L 7580.31,3143.62 L 7560.31,3143.62 L 7557.96,3123.62 Z " />
</svg>
