<?xml version="1.0" standalone="no" ?>
<!DOCTYPE svg PUBLIC "-//W3C//DTD SVG 1.1//EN" "http://www.w3.org/Graphics/SVG/1.1/DTD/svg11.dtd">
<svg width="521px" height="471px" viewBox="0 0 521 471" style="background-color: #ffffff00" xmlns="http://www.w3.org/2000/svg" xmlns:xlink="http://www.w3.org/1999/xlink" version="1.1" >
<text x="0" y="0" stroke="transparent" fill="#000000" transform="matrix(0.0833333 0 0 0.0833333 275.899 242.47)" style="font:normal normal normal 200px 'Arial'" >
O</text>
<text x="0" y="0" stroke="transparent" fill="#000000" transform="matrix(0.0833333 0 0 0.0833333 362.504 192.466)" style="font:normal normal normal 200px 'Arial'" >
O</text>
<text x="0" y="0" stroke="transparent" fill="#000000" transform="matrix(0.0833333 0 0 0.0833333 319.203 267.467)" style="font:normal normal normal 200px 'Arial'" >
O</text>
<text x="0" y="0" stroke="transparent" fill="#000000" transform="matrix(0.0833333 0 0 0.0833333 232.598 317.469)" style="font:normal normal normal 200px 'Arial'" >
O</text>
<text x="0" y="0" stroke="transparent" fill="#000000" transform="matrix(0.0833333 0 0 0.0833333 145.996 317.469)" style="font:normal normal normal 200px 'Arial'" >
O</text>
<text x="0" y="0" stroke="transparent" fill="#000000" transform="matrix(0.0833333 0 0 0.0833333 4.05365 342.466)" style="font:normal normal normal 200px 'Arial'" >
HO</text>
<text x="0" y="0" stroke="transparent" fill="#000000" transform="matrix(0.0833333 0 0 0.0833333 47.3546 417.467)" style="font:normal normal normal 200px 'Arial'" >
HO</text>
<text x="0" y="0" stroke="transparent" fill="#000000" transform="matrix(0.0833333 0 0 0.0833333 145.996 467.469)" style="font:normal normal normal 200px 'Arial'" >
OH</text>
<text x="0" y="0" stroke="transparent" fill="#000000" transform="matrix(0.0833333 0 0 0.0833333 232.598 417.471)" style="font:normal normal normal 200px 'Arial'" >
OH</text>
<text x="0" y="0" stroke="transparent" fill="#000000" transform="matrix(0.0833333 0 0 0.0833333 362.504 392.47)" style="font:normal normal normal 200px 'Arial'" >
OH</text>
<text x="0" y="0" stroke="transparent" fill="#000000" transform="matrix(0.0833333 0 0 0.0833333 449.109 342.469)" style="font:normal normal normal 200px 'Arial'" >
OH</text>
<text x="0" y="0" stroke="transparent" fill="#000000" transform="matrix(0.0833333 0 0 0.0833333 449.109 242.467)" style="font:normal normal normal 200px 'Arial'" >
OH</text>
<text x="0" y="0" stroke="transparent" fill="#000000" transform="matrix(0.0833333 0 0 0.0833333 492.41 17.462)" style="font:normal normal normal 200px 'Arial'" >
OH</text>
<text x="0" y="0" stroke="transparent" fill="#000000" transform="matrix(0.0833333 0 0 0.0833333 275.899 92.467)" style="font:normal normal normal 200px 'Arial'" >
O</text>
<text x="0" y="0" stroke="transparent" fill="#000000" transform="matrix(0.0833333 0 0 0.0833333 90.6589 92.467)" style="font:normal normal normal 200px 'Arial'" >
HO</text>
<text x="0" y="0" stroke="transparent" fill="#000000" transform="matrix(0.0833333 0 0 0.0833333 189.297 242.47)" style="font:normal normal normal 200px 'Arial'" >
OH</text>
<path stroke="transparent" fill="#000000" transform="matrix(0.0833333 0 0 0.0833333 -175.25 -143)" d="M 5445.78,3926.84 L 5465.78,3926.84 L 5465.78,4442.48 L 5445.78,4442.48 L 5445.78,3926.84 Z " />
<path stroke="transparent" fill="#000000" transform="matrix(0.0833333 0 0 0.0833333 -175.25 -143)" d="M 5517.79,3926.84 L 5537.79,3926.84 L 5537.79,4442.48 L 5517.79,4442.48 L 5517.79,3926.84 Z " />
<path stroke="transparent" fill="#000000" transform="matrix(0.0833333 0 0 0.0833333 -175.25 -143)" d="M 6001.44,3641.81 L 6011.44,3647.58 L 6011.44,3659.13 L 5491.79,3959.18 L 5491.79,3936.08 L 6001.44,3641.81 Z " />
<path stroke="transparent" fill="#000000" transform="matrix(0.0833333 0 0 0.0833333 -175.25 -143)" d="M 6443.43,3885.46 L 6433.43,3902.78 L 6011.44,3659.13 L 6011.44,3647.58 L 6021.44,3641.81 L 6443.43,3885.46 Z " />
<path stroke="transparent" fill="#000000" transform="matrix(0.0833333 0 0 0.0833333 -175.25 -143)" d="M 6471.05,4067.42 L 6591.05,4067.42 L 6541.62,4542.16 L 6531.05,4547.6 L 6520.48,4542.16 L 6471.05,4067.42 Z " />
<path stroke="transparent" fill="#000000" transform="matrix(0.0833333 0 0 0.0833333 -175.25 -143)" d="M 6109.06,4802.8 L 6099.05,4785.48 L 6520.48,4542.16 L 6531.05,4547.6 L 6531.05,4559.15 L 6109.06,4802.8 Z " />
<path stroke="transparent" fill="#000000" transform="matrix(0.0833333 0 0 0.0833333 -175.25 -143)" d="M 6001.44,4967.44 L 6021.44,4967.44 L 6021.44,5441.85 L 6011.44,5447.62 L 6001.44,5441.32 L 6001.44,4967.44 Z " />
<path stroke="transparent" fill="#000000" transform="matrix(0.0833333 0 0 0.0833333 -175.25 -143)" d="M 5539.95,5786.98 L 5439.76,5706.05 L 6001.44,5441.32 L 6011.44,5447.62 L 6011.9,5459.43 L 5539.95,5786.98 Z " />
<path stroke="transparent" fill="#000000" transform="matrix(0.0833333 0 0 0.0833333 -175.25 -143)" d="M 5067.21,5514.04 L 5077.21,5496.72 L 5439.76,5706.05 L 5539.95,5786.98 L 5067.21,5514.04 Z " />
<path stroke="transparent" fill="#000000" transform="matrix(0.0833333 0 0 0.0833333 -175.25 -143)" d="M 4842.57,5453.17 L 4902.57,5557.09 L 4462.56,5754.05 L 4452.56,5747.63 L 4452,5735.76 L 4842.57,5453.17 Z " />
<path stroke="transparent" fill="#000000" transform="matrix(0.0833333 0 0 0.0833333 -175.25 -143)" d="M 4027.99,5514.04 L 4037.99,5496.72 L 4452,5735.76 L 4452.56,5747.63 L 4442.56,5753.4 L 4027.99,5514.04 Z " />
<path stroke="transparent" fill="#000000" transform="matrix(0.0833333 0 0 0.0833333 -175.25 -143)" d="M 3828.35,5496.46 L 3838.35,5513.78 L 3423.34,5753.36 L 3403.34,5741.82 L 3828.35,5496.46 Z " />
<path stroke="transparent" fill="#000000" transform="matrix(0.0833333 0 0 0.0833333 -175.25 -143)" d="M 2910.46,5526.58 L 2970.45,5422.66 L 2986.76,5434.41 L 2928.8,5534.82 L 2910.46,5526.58 Z " />
<path stroke="transparent" fill="#000000" transform="matrix(0.0833333 0 0 0.0833333 -175.25 -143)" d="M 2964.56,5550.89 L 3018.55,5457.35 L 3034.86,5469.1 L 2982.9,5559.13 L 2964.56,5550.89 Z " />
<path stroke="transparent" fill="#000000" transform="matrix(0.0833333 0 0 0.0833333 -175.25 -143)" d="M 3018.65,5575.19 L 3066.66,5492.04 L 3082.96,5503.79 L 3036.99,5583.43 L 3018.65,5575.19 Z " />
<path stroke="transparent" fill="#000000" transform="matrix(0.0833333 0 0 0.0833333 -175.25 -143)" d="M 3072.75,5599.5 L 3114.76,5526.72 L 3131.06,5538.48 L 3091.09,5607.73 L 3072.75,5599.5 Z " />
<path stroke="transparent" fill="#000000" transform="matrix(0.0833333 0 0 0.0833333 -175.25 -143)" d="M 3126.85,5623.8 L 3162.86,5561.41 L 3179.16,5573.17 L 3145.19,5632.04 L 3126.85,5623.8 Z " />
<path stroke="transparent" fill="#000000" transform="matrix(0.0833333 0 0 0.0833333 -175.25 -143)" d="M 3180.94,5648.1 L 3210.96,5596.1 L 3227.27,5607.86 L 3199.28,5656.34 L 3180.94,5648.1 Z " />
<path stroke="transparent" fill="#000000" transform="matrix(0.0833333 0 0 0.0833333 -175.25 -143)" d="M 3235.04,5672.41 L 3259.06,5630.79 L 3275.37,5642.55 L 3253.38,5680.65 L 3235.04,5672.41 Z " />
<path stroke="transparent" fill="#000000" transform="matrix(0.0833333 0 0 0.0833333 -175.25 -143)" d="M 3289.14,5696.71 L 3307.16,5665.48 L 3323.47,5677.24 L 3307.48,5704.95 L 3289.14,5696.71 Z " />
<path stroke="transparent" fill="#000000" transform="matrix(0.0833333 0 0 0.0833333 -175.25 -143)" d="M 3343.23,5721.01 L 3355.27,5700.17 L 3371.57,5711.93 L 3361.57,5729.25 L 3343.23,5721.01 Z " />
<path stroke="transparent" fill="#000000" transform="matrix(0.0833333 0 0 0.0833333 -175.25 -143)" d="M 2471.69,5702.79 L 2461.69,5685.46 L 2888.69,5438.96 L 2898.69,5456.28 L 2471.69,5702.79 Z " />
<path stroke="transparent" fill="#000000" transform="matrix(0.0833333 0 0 0.0833333 -175.25 -143)" d="M 3403.34,5741.82 L 3423.34,5753.36 L 3423.34,6341.83 L 3403.34,6353.38 L 3403.34,5741.82 Z " />
<path stroke="transparent" fill="#000000" transform="matrix(0.0833333 0 0 0.0833333 -175.25 -143)" d="M 3016.3,6646.1 L 2956.3,6542.18 L 2974.76,6534.15 L 3032.48,6634.13 L 3016.3,6646.1 Z " />
<path stroke="transparent" fill="#000000" transform="matrix(0.0833333 0 0 0.0833333 -175.25 -143)" d="M 3064.74,6610.27 L 3011.56,6518.15 L 3030.02,6510.12 L 3080.92,6598.29 L 3064.74,6610.27 Z " />
<path stroke="transparent" fill="#000000" transform="matrix(0.0833333 0 0 0.0833333 -175.25 -143)" d="M 3113.18,6574.43 L 3066.82,6494.12 L 3085.28,6486.09 L 3129.36,6562.46 L 3113.18,6574.43 Z " />
<path stroke="transparent" fill="#000000" transform="matrix(0.0833333 0 0 0.0833333 -175.25 -143)" d="M 3161.62,6538.59 L 3122.07,6470.09 L 3140.53,6462.06 L 3177.8,6526.62 L 3161.62,6538.59 Z " />
<path stroke="transparent" fill="#000000" transform="matrix(0.0833333 0 0 0.0833333 -175.25 -143)" d="M 3210.06,6502.75 L 3177.33,6446.06 L 3195.79,6438.04 L 3226.24,6490.78 L 3210.06,6502.75 Z " />
<path stroke="transparent" fill="#000000" transform="matrix(0.0833333 0 0 0.0833333 -175.25 -143)" d="M 3258.5,6466.92 L 3232.59,6422.03 L 3251.05,6414.01 L 3274.68,6454.94 L 3258.5,6466.92 Z " />
<path stroke="transparent" fill="#000000" transform="matrix(0.0833333 0 0 0.0833333 -175.25 -143)" d="M 3306.94,6431.08 L 3287.85,6398 L 3306.31,6389.98 L 3323.12,6419.11 L 3306.94,6431.08 Z " />
<path stroke="transparent" fill="#000000" transform="matrix(0.0833333 0 0 0.0833333 -175.25 -143)" d="M 3355.38,6395.24 L 3343.11,6373.97 L 3361.57,6365.95 L 3371.56,6383.27 L 3355.38,6395.24 Z " />
<path stroke="transparent" fill="#000000" transform="matrix(0.0833333 0 0 0.0833333 -175.25 -143)" d="M 3403.34,6353.38 L 3423.34,6341.83 L 3932.95,6636.06 L 3932.95,6659.16 L 3403.34,6353.38 Z " />
<path stroke="transparent" fill="#000000" transform="matrix(0.0833333 0 0 0.0833333 -175.25 -143)" d="M 3992.95,7142.46 L 3872.95,7142.46 L 3875.22,7122.46 L 3990.68,7122.46 L 3992.95,7142.46 Z " />
<path stroke="transparent" fill="#000000" transform="matrix(0.0833333 0 0 0.0833333 -175.25 -143)" d="M 3986.13,7082.35 L 3879.77,7082.35 L 3882.04,7062.35 L 3983.86,7062.35 L 3986.13,7082.35 Z " />
<path stroke="transparent" fill="#000000" transform="matrix(0.0833333 0 0 0.0833333 -175.25 -143)" d="M 3979.31,7022.24 L 3886.59,7022.24 L 3888.86,7002.24 L 3977.04,7002.24 L 3979.31,7022.24 Z " />
<path stroke="transparent" fill="#000000" transform="matrix(0.0833333 0 0 0.0833333 -175.25 -143)" d="M 3972.5,6962.13 L 3893.41,6962.13 L 3895.68,6942.13 L 3970.23,6942.13 L 3972.5,6962.13 Z " />
<path stroke="transparent" fill="#000000" transform="matrix(0.0833333 0 0 0.0833333 -175.25 -143)" d="M 3965.68,6902.02 L 3900.23,6902.02 L 3902.5,6882.02 L 3963.41,6882.02 L 3965.68,6902.02 Z " />
<path stroke="transparent" fill="#000000" transform="matrix(0.0833333 0 0 0.0833333 -175.25 -143)" d="M 3958.86,6841.92 L 3907.04,6841.92 L 3909.31,6821.92 L 3956.59,6821.92 L 3958.86,6841.92 Z " />
<path stroke="transparent" fill="#000000" transform="matrix(0.0833333 0 0 0.0833333 -175.25 -143)" d="M 3952.04,6781.81 L 3913.86,6781.81 L 3916.13,6761.81 L 3949.77,6761.81 L 3952.04,6781.81 Z " />
<path stroke="transparent" fill="#000000" transform="matrix(0.0833333 0 0 0.0833333 -175.25 -143)" d="M 3945.22,6721.7 L 3920.68,6721.7 L 3922.95,6701.7 L 3942.95,6701.7 L 3945.22,6721.7 Z " />
<path stroke="transparent" fill="#000000" transform="matrix(0.0833333 0 0 0.0833333 -175.25 -143)" d="M 3932.95,6659.16 L 3932.95,6636.06 L 4442.56,6341.87 L 4452.56,6347.64 L 4452.01,6359.51 L 3932.95,6659.16 Z " />
<path stroke="transparent" fill="#000000" transform="matrix(0.0833333 0 0 0.0833333 -175.25 -143)" d="M 4462.56,6341.23 L 4452.56,6347.64 L 4442.56,6341.87 L 4442.56,5753.4 L 4452.56,5747.63 L 4462.56,5754.05 L 4462.56,6341.23 Z " />
<path stroke="transparent" fill="#000000" transform="matrix(0.0833333 0 0 0.0833333 -175.25 -143)" d="M 4909.56,6542.21 L 4849.56,6646.14 L 4452.01,6359.51 L 4452.56,6347.64 L 4462.56,6341.23 L 4909.56,6542.21 Z " />
<path stroke="transparent" fill="#000000" transform="matrix(0.0833333 0 0 0.0833333 -175.25 -143)" d="M 6011.9,5459.43 L 6011.44,5447.62 L 6021.44,5441.85 L 6531.05,5736.04 L 6531.05,5759.14 L 6011.9,5459.43 Z " />
<path stroke="transparent" fill="#000000" transform="matrix(0.0833333 0 0 0.0833333 -175.25 -143)" d="M 6591.05,6242.48 L 6471.05,6242.48 L 6473.32,6222.48 L 6588.78,6222.48 L 6591.05,6242.48 Z " />
<path stroke="transparent" fill="#000000" transform="matrix(0.0833333 0 0 0.0833333 -175.25 -143)" d="M 6584.23,6182.36 L 6477.87,6182.36 L 6480.14,6162.36 L 6581.96,6162.36 L 6584.23,6182.36 Z " />
<path stroke="transparent" fill="#000000" transform="matrix(0.0833333 0 0 0.0833333 -175.25 -143)" d="M 6577.41,6122.25 L 6484.69,6122.25 L 6486.95,6102.25 L 6575.14,6102.25 L 6577.41,6122.25 Z " />
<path stroke="transparent" fill="#000000" transform="matrix(0.0833333 0 0 0.0833333 -175.25 -143)" d="M 6570.59,6062.14 L 6491.5,6062.14 L 6493.77,6042.14 L 6568.32,6042.14 L 6570.59,6062.14 Z " />
<path stroke="transparent" fill="#000000" transform="matrix(0.0833333 0 0 0.0833333 -175.25 -143)" d="M 6563.77,6002.02 L 6498.32,6002.02 L 6500.59,5982.02 L 6561.5,5982.02 L 6563.77,6002.02 Z " />
<path stroke="transparent" fill="#000000" transform="matrix(0.0833333 0 0 0.0833333 -175.25 -143)" d="M 6556.95,5941.91 L 6505.14,5941.91 L 6507.41,5921.91 L 6554.69,5921.91 L 6556.95,5941.91 Z " />
<path stroke="transparent" fill="#000000" transform="matrix(0.0833333 0 0 0.0833333 -175.25 -143)" d="M 6550.14,5881.8 L 6511.96,5881.8 L 6514.23,5861.8 L 6547.87,5861.8 L 6550.14,5881.8 Z " />
<path stroke="transparent" fill="#000000" transform="matrix(0.0833333 0 0 0.0833333 -175.25 -143)" d="M 6543.32,5821.69 L 6518.78,5821.69 L 6521.05,5801.69 L 6541.05,5801.69 L 6543.32,5821.69 Z " />
<path stroke="transparent" fill="#000000" transform="matrix(0.0833333 0 0 0.0833333 -175.25 -143)" d="M 6531.05,5759.14 L 6531.05,5736.04 L 7040.66,5441.85 L 7060.66,5453.4 L 6531.05,5759.14 Z " />
<path stroke="transparent" fill="#000000" transform="matrix(0.0833333 0 0 0.0833333 -175.25 -143)" d="M 7507.69,5642.2 L 7447.69,5746.12 L 7431.51,5734.15 L 7489.23,5634.17 L 7507.69,5642.2 Z " />
<path stroke="transparent" fill="#000000" transform="matrix(0.0833333 0 0 0.0833333 -175.25 -143)" d="M 7452.43,5618.17 L 7399.25,5710.28 L 7383.07,5698.31 L 7433.97,5610.14 L 7452.43,5618.17 Z " />
<path stroke="transparent" fill="#000000" transform="matrix(0.0833333 0 0 0.0833333 -175.25 -143)" d="M 7397.18,5594.14 L 7350.81,5674.45 L 7334.63,5662.47 L 7378.72,5586.11 L 7397.18,5594.14 Z " />
<path stroke="transparent" fill="#000000" transform="matrix(0.0833333 0 0 0.0833333 -175.25 -143)" d="M 7341.92,5570.11 L 7302.37,5638.61 L 7286.19,5626.64 L 7323.46,5562.08 L 7341.92,5570.11 Z " />
<path stroke="transparent" fill="#000000" transform="matrix(0.0833333 0 0 0.0833333 -175.25 -143)" d="M 7286.66,5546.08 L 7253.93,5602.77 L 7237.75,5590.8 L 7268.2,5538.05 L 7286.66,5546.08 Z " />
<path stroke="transparent" fill="#000000" transform="matrix(0.0833333 0 0 0.0833333 -175.25 -143)" d="M 7231.41,5522.05 L 7205.5,5566.93 L 7189.31,5554.96 L 7212.95,5514.02 L 7231.41,5522.05 Z " />
<path stroke="transparent" fill="#000000" transform="matrix(0.0833333 0 0 0.0833333 -175.25 -143)" d="M 7176.15,5498.02 L 7157.06,5531.1 L 7140.87,5519.12 L 7157.69,5490 L 7176.15,5498.02 Z " />
<path stroke="transparent" fill="#000000" transform="matrix(0.0833333 0 0 0.0833333 -175.25 -143)" d="M 7120.89,5473.99 L 7108.62,5495.26 L 7092.43,5483.29 L 7102.43,5465.97 L 7120.89,5473.99 Z " />
<path stroke="transparent" fill="#000000" transform="matrix(0.0833333 0 0 0.0833333 -175.25 -143)" d="M 7060.66,5453.4 L 7040.66,5441.85 L 7040.66,4853.38 L 7060.66,4841.84 L 7060.66,5453.4 Z " />
<path stroke="transparent" fill="#000000" transform="matrix(0.0833333 0 0 0.0833333 -175.25 -143)" d="M 7060.66,4841.84 L 7040.66,4853.38 L 6531.05,4559.15 L 6531.05,4547.6 L 6541.62,4542.16 L 7060.66,4841.84 Z " />
<path stroke="transparent" fill="#000000" transform="matrix(0.0833333 0 0 0.0833333 -175.25 -143)" d="M 7440.71,4553.15 L 7500.71,4657.07 L 7482.22,4665.06 L 7424.55,4565.15 L 7440.71,4553.15 Z " />
<path stroke="transparent" fill="#000000" transform="matrix(0.0833333 0 0 0.0833333 -175.25 -143)" d="M 7393.26,4588.4 L 7446.45,4680.53 L 7427.97,4688.52 L 7377.1,4600.41 L 7393.26,4588.4 Z " />
<path stroke="transparent" fill="#000000" transform="matrix(0.0833333 0 0 0.0833333 -175.25 -143)" d="M 7345.82,4623.66 L 7392.19,4703.99 L 7373.71,4711.98 L 7329.66,4635.67 L 7345.82,4623.66 Z " />
<path stroke="transparent" fill="#000000" transform="matrix(0.0833333 0 0 0.0833333 -175.25 -143)" d="M 7298.37,4658.91 L 7337.94,4727.45 L 7319.45,4735.44 L 7282.21,4670.92 L 7298.37,4658.91 Z " />
<path stroke="transparent" fill="#000000" transform="matrix(0.0833333 0 0 0.0833333 -175.25 -143)" d="M 7250.93,4694.17 L 7283.68,4750.9 L 7265.2,4758.89 L 7234.76,4706.18 L 7250.93,4694.17 Z " />
<path stroke="transparent" fill="#000000" transform="matrix(0.0833333 0 0 0.0833333 -175.25 -143)" d="M 7203.48,4729.43 L 7229.42,4774.36 L 7210.94,4782.35 L 7187.32,4741.44 L 7203.48,4729.43 Z " />
<path stroke="transparent" fill="#000000" transform="matrix(0.0833333 0 0 0.0833333 -175.25 -143)" d="M 7156.03,4764.68 L 7175.17,4797.82 L 7156.68,4805.81 L 7139.87,4776.69 L 7156.03,4764.68 Z " />
<path stroke="transparent" fill="#000000" transform="matrix(0.0833333 0 0 0.0833333 -175.25 -143)" d="M 7108.59,4799.94 L 7120.91,4821.28 L 7102.43,4829.27 L 7092.43,4811.95 L 7108.59,4799.94 Z " />
<path stroke="transparent" fill="#000000" transform="matrix(0.0833333 0 0 0.0833333 -175.25 -143)" d="M 6001.44,3053.38 L 6011.44,3047.61 L 6021.44,3053.38 L 6021.44,3641.81 L 6011.44,3647.58 L 6001.44,3641.81 L 6001.44,3053.38 Z " />
<path stroke="transparent" fill="#000000" transform="matrix(0.0833333 0 0 0.0833333 -175.25 -143)" d="M 5929.44,3089.18 L 5949.44,3089.18 L 5949.44,3606.02 L 5929.44,3606.02 L 5929.44,3089.18 Z " />
<path stroke="transparent" fill="#000000" transform="matrix(0.0833333 0 0 0.0833333 -175.25 -143)" d="M 6521.05,2741.79 L 6531.05,2747.56 L 6531.05,2759.11 L 6021.44,3053.38 L 6011.44,3047.61 L 6011.44,3036.06 L 6521.05,2741.79 Z " />
<path stroke="transparent" fill="#000000" transform="matrix(0.0833333 0 0 0.0833333 -175.25 -143)" d="M 7050.66,3036.02 L 7050.66,3059.12 L 6531.05,2759.11 L 6531.05,2747.56 L 6541.05,2741.79 L 7050.66,3036.02 Z " />
<path stroke="transparent" fill="#000000" transform="matrix(0.0833333 0 0 0.0833333 -175.25 -143)" d="M 7055.66,2955.77 L 7045.66,2973.09 L 6598.05,2714.66 L 6608.05,2697.34 L 7055.66,2955.77 Z " />
<path stroke="transparent" fill="#000000" transform="matrix(0.0833333 0 0 0.0833333 -175.25 -143)" d="M 7560.31,2741.79 L 7580.31,2753.34 L 7050.66,3059.12 L 7050.66,3036.02 L 7560.31,2741.79 Z " />
<path stroke="transparent" fill="#000000" transform="matrix(0.0833333 0 0 0.0833333 -175.25 -143)" d="M 7560.31,2153.32 L 7570.31,2147.55 L 7580.31,2153.32 L 7580.31,2753.34 L 7560.31,2741.79 L 7560.31,2153.32 Z " />
<path stroke="transparent" fill="#000000" transform="matrix(0.0833333 0 0 0.0833333 -175.25 -143)" d="M 7488.31,2189.12 L 7508.31,2189.12 L 7508.31,2705.99 L 7488.31,2705.99 L 7488.31,2189.12 Z " />
<path stroke="transparent" fill="#000000" transform="matrix(0.0833333 0 0 0.0833333 -175.25 -143)" d="M 7985.32,1896.39 L 7995.32,1913.71 L 7580.31,2153.32 L 7570.31,2147.55 L 7570.31,2136 L 7985.32,1896.39 Z " />
<path stroke="transparent" fill="#000000" transform="matrix(0.0833333 0 0 0.0833333 -175.25 -143)" d="M 7050.66,1859.09 L 7050.66,1836 L 7570.31,2136 L 7570.31,2147.55 L 7560.31,2153.32 L 7050.66,1859.09 Z " />
<path stroke="transparent" fill="#000000" transform="matrix(0.0833333 0 0 0.0833333 -175.25 -143)" d="M 6541.05,2153.32 L 6521.05,2141.78 L 7050.66,1836 L 7050.66,1859.09 L 6541.05,2153.32 Z " />
<path stroke="transparent" fill="#000000" transform="matrix(0.0833333 0 0 0.0833333 -175.25 -143)" d="M 6608.05,2197.78 L 6598.05,2180.46 L 7045.66,1922.02 L 7055.66,1939.34 L 6608.05,2197.78 Z " />
<path stroke="transparent" fill="#000000" transform="matrix(0.0833333 0 0 0.0833333 -175.25 -143)" d="M 6521.05,2141.78 L 6541.05,2153.32 L 6541.05,2741.79 L 6531.05,2747.56 L 6521.05,2741.79 L 6521.05,2141.78 Z " />
<path stroke="transparent" fill="#000000" transform="matrix(0.0833333 0 0 0.0833333 -175.25 -143)" d="M 5586.82,2814.02 L 5596.82,2796.7 L 6011.44,3036.06 L 6011.44,3047.61 L 6001.44,3053.38 L 5586.82,2814.02 Z " />
<path stroke="transparent" fill="#000000" transform="matrix(0.0833333 0 0 0.0833333 -175.25 -143)" d="M 4982.17,3053.38 L 4972.17,3047.61 L 4972.17,3036.06 L 5387.18,2796.45 L 5397.18,2813.77 L 4982.17,3053.38 Z " />
<path stroke="transparent" fill="#000000" transform="matrix(0.0833333 0 0 0.0833333 -175.25 -143)" d="M 4452.56,2759.15 L 4452.56,2736.06 L 4972.17,3036.06 L 4972.17,3047.61 L 4962.17,3053.38 L 4452.56,2759.15 Z " />
<path stroke="transparent" fill="#000000" transform="matrix(0.0833333 0 0 0.0833333 -175.25 -143)" d="M 4447.56,2839.4 L 4457.56,2822.08 L 4905.17,3080.52 L 4895.17,3097.84 L 4447.56,2839.4 Z " />
<path stroke="transparent" fill="#000000" transform="matrix(0.0833333 0 0 0.0833333 -175.25 -143)" d="M 3942.95,3053.38 L 3932.95,3047.61 L 3932.95,3036.06 L 4452.56,2736.06 L 4452.56,2759.15 L 3942.95,3053.38 Z " />
<path stroke="transparent" fill="#000000" transform="matrix(0.0833333 0 0 0.0833333 -175.25 -143)" d="M 3508.37,2814.02 L 3518.37,2796.7 L 3932.95,3036.06 L 3932.95,3047.61 L 3922.95,3053.38 L 3508.37,2814.02 Z " />
<path stroke="transparent" fill="#000000" transform="matrix(0.0833333 0 0 0.0833333 -175.25 -143)" d="M 3942.95,3641.85 L 3922.95,3653.4 L 3922.95,3053.38 L 3932.95,3047.61 L 3942.95,3053.38 L 3942.95,3641.85 Z " />
<path stroke="transparent" fill="#000000" transform="matrix(0.0833333 0 0 0.0833333 -175.25 -143)" d="M 4014.95,3606.05 L 3994.95,3606.05 L 3994.95,3089.18 L 4014.95,3089.18 L 4014.95,3606.05 Z " />
<path stroke="transparent" fill="#000000" transform="matrix(0.0833333 0 0 0.0833333 -175.25 -143)" d="M 4452.56,3936.08 L 4452.56,3947.63 L 4442.56,3953.4 L 3922.95,3653.4 L 3942.95,3641.85 L 4452.56,3936.08 Z " />
<path stroke="transparent" fill="#000000" transform="matrix(0.0833333 0 0 0.0833333 -175.25 -143)" d="M 4462.56,4442.48 L 4442.56,4442.48 L 4442.56,3953.4 L 4452.56,3947.63 L 4462.56,3953.4 L 4462.56,4442.48 Z " />
<path stroke="transparent" fill="#000000" transform="matrix(0.0833333 0 0 0.0833333 -175.25 -143)" d="M 4962.17,3641.85 L 4972.17,3647.62 L 4972.17,3659.17 L 4462.56,3953.4 L 4452.56,3947.63 L 4452.56,3936.08 L 4962.17,3641.85 Z " />
<path stroke="transparent" fill="#000000" transform="matrix(0.0833333 0 0 0.0833333 -175.25 -143)" d="M 4895.17,3597.39 L 4905.17,3614.72 L 4457.56,3873.15 L 4447.56,3855.83 L 4895.17,3597.39 Z " />
<path stroke="transparent" fill="#000000" transform="matrix(0.0833333 0 0 0.0833333 -175.25 -143)" d="M 4972.17,3659.17 L 4972.17,3647.62 L 4982.17,3641.85 L 5491.79,3936.08 L 5491.79,3959.18 L 4972.17,3659.17 Z " />
<path stroke="transparent" fill="#000000" transform="matrix(0.0833333 0 0 0.0833333 -175.25 -143)" d="M 4982.17,3641.85 L 4972.17,3647.62 L 4962.17,3641.85 L 4962.17,3053.38 L 4972.17,3047.61 L 4982.17,3053.38 L 4982.17,3641.85 Z " />
</svg>
