<?xml version="1.0" standalone="no" ?>
<!DOCTYPE svg PUBLIC "-//W3C//DTD SVG 1.1//EN" "http://www.w3.org/Graphics/SVG/1.1/DTD/svg11.dtd">
<svg width="140px" height="78px" viewBox="0 0 140 78" style="background-color: #ffffff00" xmlns="http://www.w3.org/2000/svg" xmlns:xlink="http://www.w3.org/1999/xlink" version="1.1" >
<text x="0" y="0" stroke="transparent" fill="#000000" transform="matrix(0.0666667 0 0 0.0666667 82.1338 14.5722)" style="font:normal normal normal 200px 'Arial'" >
O</text>
<text x="0" y="0" stroke="transparent" fill="#000000" transform="matrix(0.0666667 0 0 0.0666667 116.775 74.5722)" style="font:normal normal normal 200px 'Arial'" >
OH</text>
<text x="0" y="0" stroke="transparent" fill="#000000" transform="matrix(0.0666667 0 0 0.0666667 3.2229 54.5722)" style="font:normal normal normal 200px 'Arial'" >
HO</text>
<path stroke="transparent" fill="#000000" transform="matrix(0.0666667 0 0 0.0666667 -134.787 -267)" d="M 3331.81,4734.04 L 3331.81,4757.13 L 2812.19,5057.13 L 2812.19,5034.04 L 3331.81,4734.04 Z " />
<path stroke="transparent" fill="#000000" transform="matrix(0.0666667 0 0 0.0666667 -134.787 -267)" d="M 3285.81,4265.42 L 3305.81,4265.42 L 3305.81,4766.37 L 3285.81,4766.37 L 3285.81,4265.42 Z " />
<path stroke="transparent" fill="#000000" transform="matrix(0.0666667 0 0 0.0666667 -134.787 -267)" d="M 3357.81,4265.42 L 3377.81,4265.42 L 3377.81,4766.37 L 3357.81,4766.37 L 3357.81,4265.42 Z " />
<path stroke="transparent" fill="#000000" transform="matrix(0.0666667 0 0 0.0666667 -134.787 -267)" d="M 3763.8,4983.45 L 3753.8,5000.77 L 3331.81,4757.13 L 3331.81,4734.04 L 3763.8,4983.45 Z " />
<path stroke="transparent" fill="#000000" transform="matrix(0.0666667 0 0 0.0666667 -134.787 -267)" d="M 2387.61,4811.99 L 2397.61,4794.67 L 2812.19,5034.04 L 2812.19,5057.13 L 2387.61,4811.99 Z " />
</svg>
