<?xml version="1.0" standalone="no" ?>
<!DOCTYPE svg PUBLIC "-//W3C//DTD SVG 1.1//EN" "http://www.w3.org/Graphics/SVG/1.1/DTD/svg11.dtd">
<svg width="547px" height="247px" viewBox="0 0 547 247" style="background-color: #ffffff00" xmlns="http://www.w3.org/2000/svg" xmlns:xlink="http://www.w3.org/1999/xlink" version="1.1" >
<path stroke="transparent" fill="#000000" transform="matrix(0.0833333 0 0 0.0833333 -162.5 -229)" d="M 3322.24,5480.45 L 3202.24,5480.45 L 3204.51,5460.45 L 3319.98,5460.45 L 3322.24,5480.45 Z " />
<path stroke="transparent" fill="#000000" transform="matrix(0.0833333 0 0 0.0833333 -162.5 -229)" d="M 3315.43,5420.35 L 3209.06,5420.35 L 3211.33,5400.35 L 3313.16,5400.35 L 3315.43,5420.35 Z " />
<path stroke="transparent" fill="#000000" transform="matrix(0.0833333 0 0 0.0833333 -162.5 -229)" d="M 3308.61,5360.24 L 3215.88,5360.24 L 3218.15,5340.24 L 3306.34,5340.24 L 3308.61,5360.24 Z " />
<path stroke="transparent" fill="#000000" transform="matrix(0.0833333 0 0 0.0833333 -162.5 -229)" d="M 3301.79,5300.13 L 3222.7,5300.13 L 3224.97,5280.13 L 3299.52,5280.13 L 3301.79,5300.13 Z " />
<path stroke="transparent" fill="#000000" transform="matrix(0.0833333 0 0 0.0833333 -162.5 -229)" d="M 3294.97,5240.03 L 3229.52,5240.03 L 3231.79,5220.03 L 3292.7,5220.03 L 3294.97,5240.03 Z " />
<path stroke="transparent" fill="#000000" transform="matrix(0.0833333 0 0 0.0833333 -162.5 -229)" d="M 3288.15,5179.92 L 3236.34,5179.92 L 3238.61,5159.92 L 3285.88,5159.92 L 3288.15,5179.92 Z " />
<path stroke="transparent" fill="#000000" transform="matrix(0.0833333 0 0 0.0833333 -162.5 -229)" d="M 3281.33,5119.82 L 3243.16,5119.82 L 3245.43,5099.82 L 3279.06,5099.82 L 3281.33,5119.82 Z " />
<path stroke="transparent" fill="#000000" transform="matrix(0.0833333 0 0 0.0833333 -162.5 -229)" d="M 3274.51,5059.71 L 3249.98,5059.71 L 3252.24,5039.71 L 3272.24,5039.71 L 3274.51,5059.71 Z " />
<path stroke="transparent" fill="#000000" transform="matrix(0.0833333 0 0 0.0833333 -162.5 -229)" d="M 2345.66,4984.11 L 2285.65,4880.19 L 2304.11,4872.16 L 2361.84,4972.13 L 2345.66,4984.11 Z " />
<path stroke="transparent" fill="#000000" transform="matrix(0.0833333 0 0 0.0833333 -162.5 -229)" d="M 2394.08,4948.27 L 2340.9,4856.16 L 2359.36,4848.13 L 2410.27,4936.3 L 2394.08,4948.27 Z " />
<path stroke="transparent" fill="#000000" transform="matrix(0.0833333 0 0 0.0833333 -162.5 -229)" d="M 2442.51,4912.44 L 2396.15,4832.13 L 2414.6,4824.1 L 2458.7,4900.46 L 2442.51,4912.44 Z " />
<path stroke="transparent" fill="#000000" transform="matrix(0.0833333 0 0 0.0833333 -162.5 -229)" d="M 2490.94,4876.6 L 2451.39,4808.1 L 2469.85,4800.07 L 2507.12,4864.63 L 2490.94,4876.6 Z " />
<path stroke="transparent" fill="#000000" transform="matrix(0.0833333 0 0 0.0833333 -162.5 -229)" d="M 2539.37,4840.76 L 2506.64,4784.08 L 2525.1,4776.05 L 2555.55,4828.79 L 2539.37,4840.76 Z " />
<path stroke="transparent" fill="#000000" transform="matrix(0.0833333 0 0 0.0833333 -162.5 -229)" d="M 2587.8,4804.93 L 2561.89,4760.05 L 2580.35,4752.02 L 2603.98,4792.95 L 2587.8,4804.93 Z " />
<path stroke="transparent" fill="#000000" transform="matrix(0.0833333 0 0 0.0833333 -162.5 -229)" d="M 2636.23,4769.09 L 2617.14,4736.02 L 2635.59,4727.99 L 2652.41,4757.12 L 2636.23,4769.09 Z " />
<path stroke="transparent" fill="#000000" transform="matrix(0.0833333 0 0 0.0833333 -162.5 -229)" d="M 2684.66,4733.26 L 2672.38,4711.99 L 2690.84,4703.96 L 2700.84,4721.28 L 2684.66,4733.26 Z " />
<path stroke="transparent" fill="#000000" transform="matrix(0.0833333 0 0 0.0833333 -162.5 -229)" d="M 2293.06,3895.27 L 2353.07,3791.36 L 2743.17,4073.75 L 2742.61,4085.62 L 2732.61,4092.04 L 2293.06,3895.27 Z " />
<path stroke="transparent" fill="#000000" transform="matrix(0.0833333 0 0 0.0833333 -162.5 -229)" d="M 3252.24,3305.38 L 3272.24,3305.38 L 3272.24,3779.77 L 3262.24,3785.55 L 3252.24,3779.77 L 3252.24,3305.38 Z " />
<path stroke="transparent" fill="#000000" transform="matrix(0.0833333 0 0 0.0833333 -162.5 -229)" d="M 5340.72,3774 L 5340.72,3797.09 L 4831.08,4091.39 L 4821.08,4085.62 L 4821.08,4074.07 L 5340.72,3774 Z " />
<path stroke="transparent" fill="#000000" transform="matrix(0.0833333 0 0 0.0833333 -162.5 -229)" d="M 6369.92,3779.77 L 6379.92,3785.55 L 6379.92,3797.1 L 5860.35,4097.17 L 5860.35,4074.07 L 6369.92,3779.77 Z " />
<path stroke="transparent" fill="#000000" transform="matrix(0.0833333 0 0 0.0833333 -162.5 -229)" d="M 7834.22,2934.39 L 7844.22,2951.71 L 7429.19,3191.32 L 7419.19,3185.55 L 7419.19,3174 L 7834.22,2934.39 Z " />
<path stroke="transparent" fill="#000000" transform="matrix(0.0833333 0 0 0.0833333 -162.5 -229)" d="M 8463.39,3176.89 L 8453.39,3194.21 L 8033.86,2951.97 L 8043.86,2934.65 L 8463.39,3176.89 Z " />
<path stroke="transparent" fill="#000000" transform="matrix(0.0833333 0 0 0.0833333 -162.5 -229)" d="M 6369.92,3179.77 L 6389.92,3191.32 L 6389.92,3779.77 L 6379.92,3785.55 L 6369.92,3779.77 L 6369.92,3179.77 Z " />
<path stroke="transparent" fill="#000000" transform="matrix(0.0833333 0 0 0.0833333 -162.5 -229)" d="M 6441.92,3227.12 L 6461.92,3227.12 L 6461.92,3743.98 L 6441.92,3743.98 L 6441.92,3227.12 Z " />
<path stroke="transparent" fill="#000000" transform="matrix(0.0833333 0 0 0.0833333 -162.5 -229)" d="M 6389.92,3191.32 L 6369.92,3179.77 L 6899.55,2874 L 6899.55,2897.09 L 6389.92,3191.32 Z " />
<path stroke="transparent" fill="#000000" transform="matrix(0.0833333 0 0 0.0833333 -162.5 -229)" d="M 6899.55,2897.09 L 6899.55,2874 L 7419.19,3174 L 7419.19,3185.55 L 7409.19,3191.32 L 6899.55,2897.09 Z " />
<path stroke="transparent" fill="#000000" transform="matrix(0.0833333 0 0 0.0833333 -162.5 -229)" d="M 6894.55,2977.35 L 6904.55,2960.03 L 7352.19,3218.46 L 7342.19,3235.78 L 6894.55,2977.35 Z " />
<path stroke="transparent" fill="#000000" transform="matrix(0.0833333 0 0 0.0833333 -162.5 -229)" d="M 7409.19,3191.32 L 7419.19,3185.55 L 7429.19,3191.32 L 7429.19,3791.32 L 7409.19,3779.77 L 7409.19,3191.32 Z " />
<path stroke="transparent" fill="#000000" transform="matrix(0.0833333 0 0 0.0833333 -162.5 -229)" d="M 7409.19,3779.77 L 7429.19,3791.32 L 6899.55,4097.17 L 6899.55,4074.07 L 7409.19,3779.77 Z " />
<path stroke="transparent" fill="#000000" transform="matrix(0.0833333 0 0 0.0833333 -162.5 -229)" d="M 7342.18,3735.32 L 7352.18,3752.64 L 6904.55,4011.13 L 6894.55,3993.81 L 7342.18,3735.32 Z " />
<path stroke="transparent" fill="#000000" transform="matrix(0.0833333 0 0 0.0833333 -162.5 -229)" d="M 6899.55,4074.07 L 6899.55,4097.17 L 6379.92,3797.1 L 6379.92,3785.55 L 6389.92,3779.77 L 6899.55,4074.07 Z " />
<path stroke="transparent" fill="#000000" transform="matrix(0.0833333 0 0 0.0833333 -162.5 -229)" d="M 5860.35,4074.07 L 5860.35,4097.17 L 5340.72,3797.09 L 5340.72,3774 L 5860.35,4074.07 Z " />
<path stroke="transparent" fill="#000000" transform="matrix(0.0833333 0 0 0.0833333 -162.5 -229)" d="M 4347.52,5480.45 L 4327.52,5480.45 L 4327.52,4964.83 L 4347.52,4964.83 L 4347.52,5480.45 Z " />
<path stroke="transparent" fill="#000000" transform="matrix(0.0833333 0 0 0.0833333 -162.5 -229)" d="M 4275.52,5480.45 L 4255.52,5480.45 L 4255.52,4964.84 L 4275.52,4964.84 L 4275.52,5480.45 Z " />
<path stroke="transparent" fill="#000000" transform="matrix(0.0833333 0 0 0.0833333 -162.5 -229)" d="M 3781.88,4074.07 L 3781.88,4085.62 L 3771.88,4091.39 L 3262.24,3797.09 L 3262.24,3785.55 L 3272.24,3779.77 L 3781.88,4074.07 Z " />
<path stroke="transparent" fill="#000000" transform="matrix(0.0833333 0 0 0.0833333 -162.5 -229)" d="M 3771.88,4679.85 L 3781.88,4685.62 L 3781.88,4697.17 L 3262.24,4997.17 L 3262.24,4974.07 L 3771.88,4679.85 Z " />
<path stroke="transparent" fill="#000000" transform="matrix(0.0833333 0 0 0.0833333 -162.5 -229)" d="M 3262.24,4974.07 L 3262.24,4997.17 L 2732.61,4691.39 L 2752.61,4679.85 L 3262.24,4974.07 Z " />
<path stroke="transparent" fill="#000000" transform="matrix(0.0833333 0 0 0.0833333 -162.5 -229)" d="M 2752.61,4679.85 L 2732.61,4691.39 L 2732.61,4092.04 L 2742.61,4085.62 L 2752.61,4091.39 L 2752.61,4679.85 Z " />
<path stroke="transparent" fill="#000000" transform="matrix(0.0833333 0 0 0.0833333 -162.5 -229)" d="M 2752.61,4091.39 L 2742.61,4085.62 L 2743.17,4073.75 L 3252.24,3779.77 L 3262.24,3785.55 L 3262.24,3797.09 L 2752.61,4091.39 Z " />
<path stroke="transparent" fill="#000000" transform="matrix(0.0833333 0 0 0.0833333 -162.5 -229)" d="M 4396.54,3851.98 L 4406.55,3834.66 L 4821.08,4074.07 L 4821.08,4085.62 L 4811.08,4091.39 L 4396.54,3851.98 Z " />
<path stroke="transparent" fill="#000000" transform="matrix(0.0833333 0 0 0.0833333 -162.5 -229)" d="M 4196.92,3834.4 L 4206.92,3851.72 L 3791.88,4091.39 L 3781.88,4085.62 L 3781.88,4074.07 L 4196.92,3834.4 Z " />
<path stroke="transparent" fill="#000000" transform="matrix(0.0833333 0 0 0.0833333 -162.5 -229)" d="M 3771.88,4091.39 L 3781.88,4085.62 L 3791.88,4091.39 L 3791.88,4679.85 L 3781.88,4685.62 L 3771.88,4679.85 L 3771.88,4091.39 Z " />
<path stroke="transparent" fill="#000000" transform="matrix(0.0833333 0 0 0.0833333 -162.5 -229)" d="M 3843.88,4127.18 L 3863.88,4127.18 L 3863.88,4644.05 L 3843.88,4644.05 L 3843.88,4127.18 Z " />
<path stroke="transparent" fill="#000000" transform="matrix(0.0833333 0 0 0.0833333 -162.5 -229)" d="M 3781.88,4697.17 L 3781.88,4685.62 L 3791.88,4679.85 L 4301.52,4974.07 L 4301.52,4997.17 L 3781.88,4697.17 Z " />
<path stroke="transparent" fill="#000000" transform="matrix(0.0833333 0 0 0.0833333 -162.5 -229)" d="M 4301.52,4997.17 L 4301.52,4974.07 L 4811.08,4679.85 L 4831.08,4691.39 L 4301.52,4997.17 Z " />
<path stroke="transparent" fill="#000000" transform="matrix(0.0833333 0 0 0.0833333 -162.5 -229)" d="M 4831.08,4691.39 L 4811.08,4679.85 L 4811.08,4091.39 L 4821.08,4085.62 L 4831.08,4091.39 L 4831.08,4691.39 Z " />
<path stroke="transparent" fill="#000000" transform="matrix(0.0833333 0 0 0.0833333 -162.5 -229)" d="M 4759.08,4644.05 L 4739.08,4644.05 L 4739.08,4127.18 L 4759.08,4127.18 L 4759.08,4644.05 Z " />
<text x="0" y="0" stroke="transparent" fill="#000000" transform="matrix(0.0833333 0 0 0.0833333 102.854 242.968)" style="font:normal normal normal 200px 'Arial'" >
OH</text>
<text x="0" y="0" stroke="transparent" fill="#000000" transform="matrix(0.0833333 0 0 0.0833333 4.21759 192.968)" style="font:normal normal normal 200px 'Arial'" >
HO</text>
<text x="0" y="0" stroke="transparent" fill="#000000" transform="matrix(0.0833333 0 0 0.0833333 4.21759 92.9623)" style="font:normal normal normal 200px 'Arial'" >
HO</text>
<text x="0" y="0" stroke="transparent" fill="#000000" transform="matrix(0.0833333 0 0 0.0833333 102.854 42.9623)" style="font:normal normal normal 200px 'Arial'" >
OH</text>
<text x="0" y="0" stroke="transparent" fill="#000000" transform="matrix(0.0833333 0 0 0.0833333 492.569 17.9623)" style="font:normal normal normal 200px 'Arial'" >
O</text>
<text x="0" y="0" stroke="transparent" fill="#000000" transform="matrix(0.0833333 0 0 0.0833333 189.46 242.968)" style="font:normal normal normal 200px 'Arial'" >
O</text>
<text x="0" y="0" stroke="transparent" fill="#000000" transform="matrix(0.0833333 0 0 0.0833333 189.46 92.9623)" style="font:normal normal normal 200px 'Arial'" >
O</text>
</svg>
