<?xml version="1.0" standalone="no" ?>
<!DOCTYPE svg PUBLIC "-//W3C//DTD SVG 1.1//EN" "http://www.w3.org/Graphics/SVG/1.1/DTD/svg11.dtd">
<svg width="269px" height="117px" viewBox="0 0 269 117" style="background-color: #ffffff00" xmlns="http://www.w3.org/2000/svg" xmlns:xlink="http://www.w3.org/1999/xlink" version="1.1" >
<text x="0" y="0" stroke="transparent" fill="#000000" transform="matrix(0.0833333 0 0 0.0833333 171.427 18.2752)" style="font:normal normal normal 200px 'Arial'" >
OH</text>
<text x="0" y="0" stroke="transparent" fill="#000000" transform="matrix(0.0833333 0 0 0.0833333 84.8199 18.2802)" style="font:normal normal normal 200px 'Arial'" >
O</text>
<path stroke="transparent" fill="#000000" transform="matrix(0.0833333 0 0 0.0833333 -286.333 -280)" d="M 5466.52,3550.15 L 5476.52,3567.47 L 5061.51,3807.08 L 5041.51,3795.54 L 5466.52,3550.15 Z " />
<path stroke="transparent" fill="#000000" transform="matrix(0.0833333 0 0 0.0833333 -286.333 -280)" d="M 4608.89,3598.95 L 4618.88,3581.62 L 5056.51,3834.22 L 5046.51,3851.54 L 4608.89,3598.95 Z " />
<path stroke="transparent" fill="#000000" transform="matrix(0.0833333 0 0 0.0833333 -286.333 -280)" d="M 4644.88,3536.59 L 4654.88,3519.26 L 5092.51,3771.86 L 5082.52,3789.18 L 4644.88,3536.59 Z " />
<path stroke="transparent" fill="#000000" transform="matrix(0.0833333 0 0 0.0833333 -286.333 -280)" d="M 5041.51,3795.54 L 5061.51,3807.08 L 5061.51,4395.55 L 5051.51,4401.32 L 5041.51,4395.55 L 5041.51,3795.54 Z " />
<path stroke="transparent" fill="#000000" transform="matrix(0.0833333 0 0 0.0833333 -286.333 -280)" d="M 6615.34,4692.67 L 6605.34,4709.99 L 6090.73,4412.87 L 6090.73,4389.77 L 6615.34,4692.67 Z " />
<path stroke="transparent" fill="#000000" transform="matrix(0.0833333 0 0 0.0833333 -286.333 -280)" d="M 6090.73,4389.77 L 6090.73,4412.87 L 5571.12,4712.87 L 5571.12,4689.78 L 6090.73,4389.77 Z " />
<path stroke="transparent" fill="#000000" transform="matrix(0.0833333 0 0 0.0833333 -286.333 -280)" d="M 5571.12,4689.78 L 5571.12,4712.87 L 5051.51,4412.87 L 5051.51,4401.32 L 5061.51,4395.55 L 5571.12,4689.78 Z " />
<path stroke="transparent" fill="#000000" transform="matrix(0.0833333 0 0 0.0833333 -286.333 -280)" d="M 5041.51,4395.55 L 5051.51,4401.32 L 5051.51,4412.87 L 4531.84,4712.87 L 4531.84,4689.78 L 5041.51,4395.55 Z " />
<path stroke="transparent" fill="#000000" transform="matrix(0.0833333 0 0 0.0833333 -286.333 -280)" d="M 4531.84,4689.78 L 4531.84,4712.87 L 4012.23,4412.87 L 4012.23,4389.77 L 4531.84,4689.78 Z " />
<path stroke="transparent" fill="#000000" transform="matrix(0.0833333 0 0 0.0833333 -286.333 -280)" d="M 4012.23,4389.77 L 4012.23,4412.87 L 3497.62,4709.99 L 3487.62,4692.67 L 4012.23,4389.77 Z " />
</svg>
