<?xml version="1.0" standalone="no" ?>
<!DOCTYPE svg PUBLIC "-//W3C//DTD SVG 1.1//EN" "http://www.w3.org/Graphics/SVG/1.1/DTD/svg11.dtd">
<svg width="873px" height="175px" viewBox="0 0 873 175" style="background-color: #ffffff00" xmlns="http://www.w3.org/2000/svg" xmlns:xlink="http://www.w3.org/1999/xlink" version="1.1" >
<path stroke="transparent" fill="#000000" transform="matrix(0.0833333 0 0 0.0833333 -2.25 -291)" d="M 10458.4,5315.35 L 10448.4,5332.67 L 9943.92,5041.26 L 9943.92,5018.16 L 10458.4,5315.35 Z " />
<path stroke="transparent" fill="#000000" transform="matrix(0.0833333 0 0 0.0833333 -2.25 -291)" d="M 9943.92,5018.16 L 9943.92,5041.26 L 9432.92,5336.36 L 9432.92,5313.26 L 9943.92,5018.16 Z " />
<path stroke="transparent" fill="#000000" transform="matrix(0.0833333 0 0 0.0833333 -2.25 -291)" d="M 9432.92,5313.26 L 9432.92,5336.36 L 8916.24,5037.99 L 8916.24,5014.89 L 9432.92,5313.26 Z " />
<path stroke="transparent" fill="#000000" transform="matrix(0.0833333 0 0 0.0833333 -2.25 -291)" d="M 4231.53,4119.8 L 4251.53,4131.35 L 3817.82,4381.75 L 3807.82,4364.43 L 4231.53,4119.8 Z " />
<path stroke="transparent" fill="#000000" transform="matrix(0.0833333 0 0 0.0833333 -2.25 -291)" d="M 3710.2,4546.4 L 3730.2,4546.4 L 3730.2,5020.67 L 3720.2,5026.44 L 3710.2,5020.67 L 3710.2,4546.4 Z " />
<path stroke="transparent" fill="#000000" transform="matrix(0.0833333 0 0 0.0833333 -2.25 -291)" d="M 2634.95,4546.4 L 2654.95,4546.4 L 2654.95,5047.22 L 2634.95,5047.22 L 2634.95,4546.4 Z " />
<path stroke="transparent" fill="#000000" transform="matrix(0.0833333 0 0 0.0833333 -2.25 -291)" d="M 2706.94,4546.4 L 2726.94,4546.4 L 2726.94,5047.22 L 2706.94,5047.22 L 2706.94,4546.4 Z " />
<path stroke="transparent" fill="#000000" transform="matrix(0.0833333 0 0 0.0833333 -2.25 -291)" d="M 893.975,4501.92 L 911.294,4511.92 L 678.99,4914.15 L 661.671,4904.15 L 893.975,4501.92 Z " />
<path stroke="transparent" fill="#000000" transform="matrix(0.0833333 0 0 0.0833333 -2.25 -291)" d="M 311.277,5551.1 L 293.956,5541.1 L 526.451,5138.33 L 543.773,5148.33 L 311.277,5551.1 Z " />
<path stroke="transparent" fill="#000000" transform="matrix(0.0833333 0 0 0.0833333 -2.25 -291)" d="M 78,4735.13 L 87.9997,4717.8 L 503.812,4957.86 L 493.812,4975.19 L 78,4735.13 Z " />
<path stroke="transparent" fill="#000000" transform="matrix(0.0833333 0 0 0.0833333 -2.25 -291)" d="M 8916.24,5014.89 L 8916.24,5037.99 L 8396.65,5338.03 L 8396.65,5314.94 L 8916.24,5014.89 Z " />
<path stroke="transparent" fill="#000000" transform="matrix(0.0833333 0 0 0.0833333 -2.25 -291)" d="M 8396.65,5314.94 L 8396.65,5338.03 L 7877.06,5037.99 L 7877.06,5014.89 L 8396.65,5314.94 Z " />
<path stroke="transparent" fill="#000000" transform="matrix(0.0833333 0 0 0.0833333 -2.25 -291)" d="M 7877.06,5014.89 L 7877.06,5037.99 L 7357.39,5338.03 L 7357.39,5314.94 L 7877.06,5014.89 Z " />
<path stroke="transparent" fill="#000000" transform="matrix(0.0833333 0 0 0.0833333 -2.25 -291)" d="M 7357.39,5314.94 L 7357.39,5338.03 L 6837.81,5037.99 L 6837.81,5014.89 L 7357.39,5314.94 Z " />
<path stroke="transparent" fill="#000000" transform="matrix(0.0833333 0 0 0.0833333 -2.25 -291)" d="M 6837.81,5014.89 L 6837.81,5037.99 L 6318.22,5338.03 L 6318.22,5314.94 L 6837.81,5014.89 Z " />
<path stroke="transparent" fill="#000000" transform="matrix(0.0833333 0 0 0.0833333 -2.25 -291)" d="M 6318.22,5314.94 L 6318.22,5338.03 L 5798.7,5037.99 L 5798.7,5014.89 L 6318.22,5314.94 Z " />
<path stroke="transparent" fill="#000000" transform="matrix(0.0833333 0 0 0.0833333 -2.25 -291)" d="M 5798.7,5014.89 L 5798.7,5037.99 L 5278.96,5338.03 L 5278.97,5314.94 L 5798.7,5014.89 Z " />
<path stroke="transparent" fill="#000000" transform="matrix(0.0833333 0 0 0.0833333 -2.25 -291)" d="M 5278.97,5314.94 L 5278.96,5338.03 L 4759.38,5037.99 L 4759.38,5014.89 L 5278.97,5314.94 Z " />
<path stroke="transparent" fill="#000000" transform="matrix(0.0833333 0 0 0.0833333 -2.25 -291)" d="M 4759.38,5014.89 L 4759.38,5037.99 L 4239.79,5338.03 L 4239.79,5314.94 L 4759.38,5014.89 Z " />
<path stroke="transparent" fill="#000000" transform="matrix(0.0833333 0 0 0.0833333 -2.25 -291)" d="M 4239.79,5314.94 L 4239.79,5338.03 L 3720.2,5037.99 L 3720.2,5026.44 L 3730.2,5020.67 L 4239.79,5314.94 Z " />
<path stroke="transparent" fill="#000000" transform="matrix(0.0833333 0 0 0.0833333 -2.25 -291)" d="M 3710.2,5020.67 L 3720.2,5026.44 L 3720.2,5037.99 L 3200.61,5338.03 L 3200.61,5314.94 L 3710.2,5020.67 Z " />
<path stroke="transparent" fill="#000000" transform="matrix(0.0833333 0 0 0.0833333 -2.25 -291)" d="M 3200.61,5314.94 L 3200.61,5338.03 L 2680.95,5037.99 L 2680.95,5014.89 L 3200.61,5314.94 Z " />
<path stroke="transparent" fill="#000000" transform="matrix(0.0833333 0 0 0.0833333 -2.25 -291)" d="M 2680.95,5014.89 L 2680.95,5037.99 L 2258.97,5281.66 L 2248.97,5264.34 L 2680.95,5014.89 Z " />
<path stroke="transparent" fill="#000000" transform="matrix(0.0833333 0 0 0.0833333 -2.25 -291)" d="M 2073.75,5264.34 L 2063.74,5281.66 L 1641.84,5037.99 L 1641.84,5014.89 L 2073.75,5264.34 Z " />
<path stroke="transparent" fill="#000000" transform="matrix(0.0833333 0 0 0.0833333 -2.25 -291)" d="M 1641.84,5014.89 L 1641.84,5037.99 L 1122.18,5338.03 L 1122.18,5314.94 L 1641.84,5014.89 Z " />
<path stroke="transparent" fill="#000000" transform="matrix(0.0833333 0 0 0.0833333 -2.25 -291)" d="M 1122.18,5314.94 L 1122.18,5338.03 L 707.713,5098.69 L 717.714,5081.37 L 1122.18,5314.94 Z " />
<path stroke="transparent" fill="#000000" transform="matrix(0.0833333 0 0 0.0833333 -2.25 -291)" d="M 4231.53,3532.9 L 4251.53,3532.9 L 4251.53,4131.35 L 4231.53,4119.8 L 4231.53,3532.9 Z " />
<path stroke="transparent" fill="#000000" transform="matrix(0.0833333 0 0 0.0833333 -2.25 -291)" d="M 4690.52,4331.72 L 4680.52,4349.04 L 4236.53,4092.75 L 4246.53,4075.43 L 4690.52,4331.72 Z " />
<path stroke="transparent" fill="#000000" transform="matrix(0.0833333 0 0 0.0833333 -2.25 -291)" d="M 4654.59,4393.96 L 4644.59,4411.28 L 4200.6,4154.98 L 4210.6,4137.66 L 4654.59,4393.96 Z " />
<text x="0" y="0" stroke="transparent" fill="#000000" transform="matrix(0.0833333 0 0 0.0833333 387.931 84.2471)" style="font:normal normal normal 200px 'Arial'" >
O</text>
<text x="0" y="0" stroke="transparent" fill="#000000" transform="matrix(0.0833333 0 0 0.0833333 301.266 84.3804)" style="font:normal normal normal 200px 'Arial'" >
O</text>
<text x="0" y="0" stroke="transparent" fill="#000000" transform="matrix(0.0833333 0 0 0.0833333 214.662 84.3804)" style="font:normal normal normal 200px 'Arial'" >
O</text>
<text x="0" y="0" stroke="transparent" fill="#000000" transform="matrix(0.0833333 0 0 0.0833333 171.363 159.374)" style="font:normal normal normal 200px 'Arial'" >
O</text>
<text x="0" y="0" stroke="transparent" fill="#000000" transform="matrix(0.0833333 0 0 0.0833333 41.9657 134.37)" style="font:normal normal normal 200px 'Arial'" >
N</text>
<text x="0" y="0" stroke="transparent" fill="#000000" transform="matrix(0.0833333 0 0 0.0833333 54.0019 127.87)" style="font:normal normal normal 150px 'Arial'" >
+</text>
</svg>
