<?xml version="1.0" standalone="no" ?>
<!DOCTYPE svg PUBLIC "-//W3C//DTD SVG 1.1//EN" "http://www.w3.org/Graphics/SVG/1.1/DTD/svg11.dtd">
<svg width="324px" height="193px" viewBox="0 0 324 193" style="background-color: #ffffff00" xmlns="http://www.w3.org/2000/svg" xmlns:xlink="http://www.w3.org/1999/xlink" version="1.1" >
<text x="0" y="0" stroke="transparent" fill="#000000" transform="matrix(0.0666667 0 0 0.0666667 310.363 134.452)" style="font:normal normal normal 200px 'Arial'" >
O</text>
<text x="0" y="0" stroke="transparent" fill="#000000" transform="matrix(0.0666667 0 0 0.0666667 102.517 14.4515)" style="font:normal normal normal 200px 'Arial'" >
O</text>
<text x="0" y="0" stroke="transparent" fill="#000000" transform="matrix(0.0666667 0 0 0.0666667 68.2773 74.4515)" style="font:normal normal normal 200px 'Arial'" >
N</text>
<text x="0" y="0" stroke="transparent" fill="#000000" transform="matrix(0.0666667 0 0 0.0666667 102.517 134.452)" style="font:normal normal normal 200px 'Arial'" >
O</text>
<text x="0" y="0" stroke="transparent" fill="#000000" transform="matrix(0.0666667 0 0 0.0666667 241.08 174.452)" style="font:normal normal normal 200px 'Arial'" >
O</text>
<path stroke="transparent" fill="#000000" transform="matrix(0.0666667 0 0 0.0666667 -186.853 -313)" d="M 7526.24,6753.61 L 7546.24,6753.61 L 7546.24,7233.77 L 7526.24,7233.77 L 7526.24,6753.61 Z " />
<path stroke="transparent" fill="#000000" transform="matrix(0.0666667 0 0 0.0666667 -186.853 -313)" d="M 7016.64,6345.28 L 7016.64,6333.73 L 7026.64,6327.96 L 7448.63,6571.63 L 7438.63,6588.95 L 7016.64,6345.28 Z " />
<path stroke="transparent" fill="#000000" transform="matrix(0.0666667 0 0 0.0666667 -186.853 -313)" d="M 7006.64,5739.55 L 7026.64,5728 L 7026.64,6327.96 L 7016.64,6333.73 L 7006.64,6327.96 L 7006.64,5739.55 Z " />
<path stroke="transparent" fill="#000000" transform="matrix(0.0666667 0 0 0.0666667 -186.853 -313)" d="M 6934.65,5775.34 L 6954.65,5775.34 L 6954.65,6292.17 L 6934.65,6292.17 L 6934.65,5775.34 Z " />
<path stroke="transparent" fill="#000000" transform="matrix(0.0666667 0 0 0.0666667 -186.853 -313)" d="M 6497,5445.32 L 6497,5422.23 L 7026.64,5728 L 7006.64,5739.55 L 6497,5445.32 Z " />
<path stroke="transparent" fill="#000000" transform="matrix(0.0666667 0 0 0.0666667 -186.853 -313)" d="M 5987.4,5739.55 L 5977.4,5733.77 L 5977.4,5722.23 L 6497,5422.23 L 6497,5445.32 L 5987.4,5739.55 Z " />
<path stroke="transparent" fill="#000000" transform="matrix(0.0666667 0 0 0.0666667 -186.853 -313)" d="M 6054.4,5784 L 6044.4,5766.68 L 6492,5508.25 L 6502,5525.57 L 6054.4,5784 Z " />
<path stroke="transparent" fill="#000000" transform="matrix(0.0666667 0 0 0.0666667 -186.853 -313)" d="M 5457.8,5445.32 L 5457.8,5422.23 L 5977.4,5722.23 L 5977.4,5733.77 L 5967.4,5739.55 L 5457.8,5445.32 Z " />
<path stroke="transparent" fill="#000000" transform="matrix(0.0666667 0 0 0.0666667 -186.853 -313)" d="M 4938.16,5745.32 L 4938.16,5722.23 L 5457.8,5422.23 L 5457.8,5445.32 L 4938.16,5745.32 Z " />
<path stroke="transparent" fill="#000000" transform="matrix(0.0666667 0 0 0.0666667 -186.853 -313)" d="M 4979.16,5804.79 L 4969.16,5787.47 L 5452.8,5508.25 L 5462.8,5525.57 L 4979.16,5804.79 Z " />
<path stroke="transparent" fill="#000000" transform="matrix(0.0666667 0 0 0.0666667 -186.853 -313)" d="M 4418.56,5445.32 L 4418.56,5422.23 L 4938.16,5722.23 L 4938.16,5745.32 L 4418.56,5445.32 Z " />
<path stroke="transparent" fill="#000000" transform="matrix(0.0666667 0 0 0.0666667 -186.853 -313)" d="M 4372.56,4953.61 L 4392.56,4953.61 L 4392.56,5454.56 L 4372.56,5454.56 L 4372.56,4953.61 Z " />
<path stroke="transparent" fill="#000000" transform="matrix(0.0666667 0 0 0.0666667 -186.853 -313)" d="M 4444.56,4953.61 L 4464.56,4953.61 L 4464.56,5454.56 L 4444.56,5454.56 L 4444.56,4953.61 Z " />
<path stroke="transparent" fill="#000000" transform="matrix(0.0666667 0 0 0.0666667 -186.853 -313)" d="M 4007.81,5682.47 L 3997.81,5665.15 L 4418.56,5422.23 L 4418.56,5445.32 L 4007.81,5682.47 Z " />
<path stroke="transparent" fill="#000000" transform="matrix(0.0666667 0 0 0.0666667 -186.853 -313)" d="M 3379.36,5445.32 L 3379.36,5422.23 L 3800.11,5665.15 L 3790.11,5682.47 L 3379.36,5445.32 Z " />
<path stroke="transparent" fill="#000000" transform="matrix(0.0666667 0 0 0.0666667 -186.853 -313)" d="M 2869.76,5739.51 L 2849.76,5727.96 L 3379.36,5422.23 L 3379.36,5445.32 L 2869.76,5739.51 Z " />
<path stroke="transparent" fill="#000000" transform="matrix(0.0666667 0 0 0.0666667 -186.853 -313)" d="M 2869.76,6327.96 L 2849.76,6339.51 L 2849.76,5727.96 L 2869.76,5739.51 L 2869.76,6327.96 Z " />
<path stroke="transparent" fill="#000000" transform="matrix(0.0666667 0 0 0.0666667 -186.853 -313)" d="M 3379.36,6622.19 L 3379.36,6645.28 L 2849.76,6339.51 L 2869.76,6327.96 L 3379.36,6622.19 Z " />
<path stroke="transparent" fill="#000000" transform="matrix(0.0666667 0 0 0.0666667 -186.853 -313)" d="M 3384.36,6541.94 L 3374.36,6559.26 L 2926.76,6300.83 L 2936.76,6283.5 L 3384.36,6541.94 Z " />
<path stroke="transparent" fill="#000000" transform="matrix(0.0666667 0 0 0.0666667 -186.853 -313)" d="M 3888.96,6327.96 L 3908.96,6339.51 L 3379.36,6645.28 L 3379.36,6622.19 L 3888.96,6327.96 Z " />
<path stroke="transparent" fill="#000000" transform="matrix(0.0666667 0 0 0.0666667 -186.853 -313)" d="M 3908.96,6339.51 L 3888.96,6327.96 L 3888.96,5850.94 L 3908.96,5850.94 L 3908.96,6339.51 Z " />
<path stroke="transparent" fill="#000000" transform="matrix(0.0666667 0 0 0.0666667 -186.853 -313)" d="M 4348.95,6540.46 L 4338.95,6557.78 L 3893.96,6300.82 L 3903.96,6283.5 L 4348.95,6540.46 Z " />
<path stroke="transparent" fill="#000000" transform="matrix(0.0666667 0 0 0.0666667 -186.853 -313)" d="M 4312.94,6602.81 L 4302.94,6620.13 L 3857.96,6363.18 L 3867.96,6345.86 L 4312.94,6602.81 Z " />
<path stroke="transparent" fill="#000000" transform="matrix(0.0666667 0 0 0.0666667 -186.853 -313)" d="M 5987.4,6328 L 5967.4,6339.55 L 5967.4,5739.55 L 5977.4,5733.77 L 5987.4,5739.55 L 5987.4,6328 Z " />
<path stroke="transparent" fill="#000000" transform="matrix(0.0666667 0 0 0.0666667 -186.853 -313)" d="M 6497,6622.19 L 6497,6633.73 L 6487,6639.51 L 5967.4,6339.55 L 5987.4,6328 L 6497,6622.19 Z " />
<path stroke="transparent" fill="#000000" transform="matrix(0.0666667 0 0 0.0666667 -186.853 -313)" d="M 6502,6541.94 L 6492,6559.26 L 6044.4,6300.86 L 6054.4,6283.54 L 6502,6541.94 Z " />
<path stroke="transparent" fill="#000000" transform="matrix(0.0666667 0 0 0.0666667 -186.853 -313)" d="M 6507,6639.51 L 6497,6633.73 L 6497,6622.19 L 7006.64,6327.96 L 7016.64,6333.73 L 7016.64,6345.28 L 6507,6639.51 Z " />
<path stroke="transparent" fill="#000000" transform="matrix(0.0666667 0 0 0.0666667 -186.853 -313)" d="M 6507,7128.61 L 6487,7128.61 L 6487,6639.51 L 6497,6633.73 L 6507,6639.51 L 6507,7128.61 Z " />
<path stroke="transparent" fill="#000000" transform="matrix(0.0666667 0 0 0.0666667 -186.853 -313)" d="M 7021.64,7525.07 L 7011.64,7542.39 L 6592.04,7300.18 L 6602.04,7282.86 L 7021.64,7525.07 Z " />
</svg>
