<?xml version="1.0" standalone="no" ?>
<!DOCTYPE svg PUBLIC "-//W3C//DTD SVG 1.1//EN" "http://www.w3.org/Graphics/SVG/1.1/DTD/svg11.dtd">
<svg width="556px" height="385px" viewBox="0 0 556 385" style="background-color: #ffffff00" xmlns="http://www.w3.org/2000/svg" xmlns:xlink="http://www.w3.org/1999/xlink" version="1.1" >
<text x="0" y="0" stroke="transparent" fill="#000000" transform="matrix(0.0833333 0 0 0.0833333 458.929 26.8823)" style="font:normal normal normal 200px 'Arial'" >
O</text>
<text x="0" y="0" stroke="transparent" fill="#000000" transform="matrix(0.0833333 0 0 0.0833333 528.411 288.874)" style="font:normal normal normal 200px 'Arial'" >
O</text>
<text x="0" y="0" stroke="transparent" fill="#000000" transform="matrix(0.0833333 0 0 0.0833333 505.35 374.939)" style="font:normal normal normal 200px 'Arial'" >
O</text>
<text x="0" y="0" stroke="transparent" fill="#000000" transform="matrix(0.0833333 0 0 0.0833333 232.771 230.694)" style="font:normal normal normal 200px 'Arial'" >
O</text>
<text x="0" y="0" stroke="transparent" fill="#000000" transform="matrix(0.0833333 0 0 0.0833333 146.169 230.694)" style="font:normal normal normal 200px 'Arial'" >
O</text>
<text x="0" y="0" stroke="transparent" fill="#000000" transform="matrix(0.0833333 0 0 0.0833333 4.22862 255.694)" style="font:normal normal normal 200px 'Arial'" >
HO</text>
<text x="0" y="0" stroke="transparent" fill="#000000" transform="matrix(0.0833333 0 0 0.0833333 47.5299 330.694)" style="font:normal normal normal 200px 'Arial'" >
HO</text>
<text x="0" y="0" stroke="transparent" fill="#000000" transform="matrix(0.0833333 0 0 0.0833333 146.169 380.694)" style="font:normal normal normal 200px 'Arial'" >
OH</text>
<text x="0" y="0" stroke="transparent" fill="#000000" transform="matrix(0.0833333 0 0 0.0833333 232.771 330.694)" style="font:normal normal normal 200px 'Arial'" >
OH</text>
<text x="0" y="0" stroke="transparent" fill="#000000" transform="matrix(0.0833333 0 0 0.0833333 319.374 180.694)" style="font:normal normal normal 200px 'Arial'" >
O</text>
<text x="0" y="0" stroke="transparent" fill="#000000" transform="matrix(0.0833333 0 0 0.0833333 533.243 93.7954)" style="font:normal normal normal 200px 'Arial'" >
O</text>
<path stroke="transparent" fill="#000000" transform="matrix(0.0833333 0 0 0.0833333 -147.542 -289.5)" d="M 7460.6,3695 L 7454.42,3675.98 L 7923.19,3523.67 L 7929.37,3542.69 L 7460.6,3695 Z " />
<path stroke="transparent" fill="#000000" transform="matrix(0.0833333 0 0 0.0833333 -147.542 -289.5)" d="M 7241.88,4301.91 L 7230.9,4305.48 L 7222.32,4297.75 L 7320.49,3835.88 L 7340.06,3840.04 L 7241.88,4301.91 Z " />
<path stroke="transparent" fill="#000000" transform="matrix(0.0833333 0 0 0.0833333 -147.542 -289.5)" d="M 7679.19,4695.66 L 7676.79,4706.95 L 7665.81,4710.52 L 7228.5,4316.77 L 7230.9,4305.48 L 7241.88,4301.91 L 7679.19,4695.66 Z " />
<path stroke="transparent" fill="#000000" transform="matrix(0.0833333 0 0 0.0833333 -147.542 -289.5)" d="M 7604.41,4725.21 L 7591.03,4740.08 L 7206.92,4394.23 L 7220.31,4379.37 L 7604.41,4725.21 Z " />
<path stroke="transparent" fill="#000000" transform="matrix(0.0833333 0 0 0.0833333 -147.542 -289.5)" d="M 7560.62,5301.57 L 7543.46,5286.12 L 7665.81,4710.52 L 7676.79,4706.95 L 7685.37,4714.68 L 7560.62,5301.57 Z " />
<path stroke="transparent" fill="#000000" transform="matrix(0.0833333 0 0 0.0833333 -147.542 -289.5)" d="M 6989.99,5486.98 L 6981.41,5479.25 L 6983.81,5467.96 L 7543.46,5286.12 L 7560.62,5301.57 L 6989.99,5486.98 Z " />
<path stroke="transparent" fill="#000000" transform="matrix(0.0833333 0 0 0.0833333 -147.542 -289.5)" d="M 7001.78,5407.44 L 6995.6,5388.42 L 7487.17,5228.7 L 7493.35,5247.72 L 7001.78,5407.44 Z " />
<path stroke="transparent" fill="#000000" transform="matrix(0.0833333 0 0 0.0833333 -147.542 -289.5)" d="M 6524.54,5081.34 L 6546.5,5074.21 L 6983.81,5467.96 L 6981.41,5479.25 L 6970.42,5482.82 L 6524.54,5081.34 Z " />
<path stroke="transparent" fill="#000000" transform="matrix(0.0833333 0 0 0.0833333 -147.542 -289.5)" d="M 6651.69,4483.16 L 6668.85,4498.61 L 6546.5,5074.21 L 6524.54,5081.34 L 6651.69,4483.16 Z " />
<path stroke="transparent" fill="#000000" transform="matrix(0.0833333 0 0 0.0833333 -147.542 -289.5)" d="M 6712.27,4544.44 L 6731.83,4548.6 L 6624.37,5054.16 L 6604.81,5050 L 6712.27,4544.44 Z " />
<path stroke="transparent" fill="#000000" transform="matrix(0.0833333 0 0 0.0833333 -147.542 -289.5)" d="M 6668.85,4498.61 L 6651.69,4483.16 L 7222.32,4297.75 L 7230.9,4305.48 L 7228.5,4316.77 L 6668.85,4498.61 Z " />
<path stroke="transparent" fill="#000000" transform="matrix(0.0833333 0 0 0.0833333 -147.542 -289.5)" d="M 6880.13,6003.82 L 6834.11,6124.11 L 6970.42,5482.82 L 6981.41,5479.25 L 6989.99,5486.98 L 6880.13,6003.82 Z " />
<path stroke="transparent" fill="#000000" transform="matrix(0.0833333 0 0 0.0833333 -147.542 -289.5)" d="M 7305.94,6456.68 L 7302.55,6467.62 L 7292.02,6472.13 L 6834.11,6124.11 L 6880.13,6003.82 L 7305.94,6456.68 Z " />
<path stroke="transparent" fill="#000000" transform="matrix(0.0833333 0 0 0.0833333 -147.542 -289.5)" d="M 7894.46,6331.58 L 7884.41,6354.17 L 7311.73,6475.89 L 7302.55,6467.62 L 7305.94,6456.68 L 7894.46,6331.58 Z " />
<path stroke="transparent" fill="#000000" transform="matrix(0.0833333 0 0 0.0833333 -147.542 -289.5)" d="M 8144.84,6765.25 L 8127.52,6775.25 L 7884.41,6354.17 L 7894.46,6331.58 L 8144.84,6765.25 Z " />
<path stroke="transparent" fill="#000000" transform="matrix(0.0833333 0 0 0.0833333 -147.542 -289.5)" d="M 7790.53,7320.47 L 7785.39,7296.28 L 8102.3,6944.31 L 8117.17,6957.69 L 7790.53,7320.47 Z " />
<path stroke="transparent" fill="#000000" transform="matrix(0.0833333 0 0 0.0833333 -147.542 -289.5)" d="M 7935.71,7782.27 L 7916.15,7786.43 L 7807.95,7277.39 L 7827.51,7273.23 L 7935.71,7782.27 Z " />
<path stroke="transparent" fill="#000000" transform="matrix(0.0833333 0 0 0.0833333 -147.542 -289.5)" d="M 7865.29,7797.24 L 7845.73,7801.4 L 7737.52,7292.36 L 7757.09,7288.2 L 7865.29,7797.24 Z " />
<path stroke="transparent" fill="#000000" transform="matrix(0.0833333 0 0 0.0833333 -147.542 -289.5)" d="M 7229.12,7070.51 L 7250.53,7058.15 L 7785.39,7296.28 L 7790.53,7320.47 L 7229.12,7070.51 Z " />
<path stroke="transparent" fill="#000000" transform="matrix(0.0833333 0 0 0.0833333 -147.542 -289.5)" d="M 7250.53,7058.15 L 7229.12,7070.51 L 7292.02,6472.13 L 7302.55,6467.62 L 7311.73,6475.89 L 7250.53,7058.15 Z " />
<path stroke="transparent" fill="#000000" transform="matrix(0.0833333 0 0 0.0833333 -147.542 -289.5)" d="M 6797.06,7389.25 L 6737.06,7285.33 L 6755.39,7277.09 L 6813.36,7377.49 L 6797.06,7389.25 Z " />
<path stroke="transparent" fill="#000000" transform="matrix(0.0833333 0 0 0.0833333 -147.542 -289.5)" d="M 6845.14,7354.57 L 6791.13,7261.03 L 6809.47,7252.79 L 6861.44,7342.81 L 6845.14,7354.57 Z " />
<path stroke="transparent" fill="#000000" transform="matrix(0.0833333 0 0 0.0833333 -147.542 -289.5)" d="M 6893.21,7319.89 L 6845.21,7236.73 L 6863.54,7228.5 L 6909.52,7308.13 L 6893.21,7319.89 Z " />
<path stroke="transparent" fill="#000000" transform="matrix(0.0833333 0 0 0.0833333 -147.542 -289.5)" d="M 6941.29,7285.21 L 6899.28,7212.44 L 6917.62,7204.2 L 6957.6,7273.45 L 6941.29,7285.21 Z " />
<path stroke="transparent" fill="#000000" transform="matrix(0.0833333 0 0 0.0833333 -147.542 -289.5)" d="M 6989.37,7250.52 L 6953.35,7188.14 L 6971.69,7179.9 L 7005.67,7238.76 L 6989.37,7250.52 Z " />
<path stroke="transparent" fill="#000000" transform="matrix(0.0833333 0 0 0.0833333 -147.542 -289.5)" d="M 7037.45,7215.84 L 7007.43,7163.85 L 7025.76,7155.61 L 7053.75,7204.08 L 7037.45,7215.84 Z " />
<path stroke="transparent" fill="#000000" transform="matrix(0.0833333 0 0 0.0833333 -147.542 -289.5)" d="M 7085.53,7181.16 L 7061.5,7139.55 L 7079.84,7131.31 L 7101.83,7169.4 L 7085.53,7181.16 Z " />
<path stroke="transparent" fill="#000000" transform="matrix(0.0833333 0 0 0.0833333 -147.542 -289.5)" d="M 7133.6,7146.48 L 7115.57,7115.25 L 7133.91,7107.01 L 7149.91,7134.72 L 7133.6,7146.48 Z " />
<path stroke="transparent" fill="#000000" transform="matrix(0.0833333 0 0 0.0833333 -147.542 -289.5)" d="M 7181.68,7111.8 L 7169.65,7090.96 L 7187.99,7082.72 L 7197.99,7100.04 L 7181.68,7111.8 Z " />
<path stroke="transparent" fill="#000000" transform="matrix(0.0833333 0 0 0.0833333 -147.542 -289.5)" d="M 6200.6,7075.88 L 6200.6,7064.33 L 6210.6,7058.56 L 6725.21,7355.67 L 6715.21,7372.99 L 6200.6,7075.88 Z " />
<path stroke="transparent" fill="#000000" transform="matrix(0.0833333 0 0 0.0833333 -147.542 -289.5)" d="M 6190.6,6470.11 L 6210.6,6458.56 L 6210.6,7058.56 L 6200.6,7064.33 L 6190.6,7058.56 L 6190.6,6470.11 Z " />
<path stroke="transparent" fill="#000000" transform="matrix(0.0833333 0 0 0.0833333 -147.542 -289.5)" d="M 6118.6,6505.9 L 6138.6,6505.9 L 6138.6,7022.76 L 6118.6,7022.76 L 6118.6,6505.9 Z " />
<path stroke="transparent" fill="#000000" transform="matrix(0.0833333 0 0 0.0833333 -147.542 -289.5)" d="M 5680.98,6175.88 L 5680.98,6164.33 L 5690.98,6158.56 L 6210.6,6458.56 L 6190.6,6470.11 L 5680.98,6175.88 Z " />
<path stroke="transparent" fill="#000000" transform="matrix(0.0833333 0 0 0.0833333 -147.542 -289.5)" d="M 5171.37,6470.11 L 5161.37,6464.33 L 5161.37,6452.79 L 5670.98,6158.56 L 5680.98,6164.33 L 5680.98,6175.88 L 5171.37,6470.11 Z " />
<path stroke="transparent" fill="#000000" transform="matrix(0.0833333 0 0 0.0833333 -147.542 -289.5)" d="M 5238.37,6514.56 L 5228.37,6497.24 L 5675.98,6238.81 L 5685.98,6256.13 L 5238.37,6514.56 Z " />
<path stroke="transparent" fill="#000000" transform="matrix(0.0833333 0 0 0.0833333 -147.542 -289.5)" d="M 5171.37,7058.56 L 5151.37,7070.11 L 5151.37,6470.11 L 5161.37,6464.33 L 5171.37,6470.11 L 5171.37,7058.56 Z " />
<path stroke="transparent" fill="#000000" transform="matrix(0.0833333 0 0 0.0833333 -147.542 -289.5)" d="M 5680.98,7352.79 L 5680.98,7375.88 L 5151.37,7070.11 L 5171.37,7058.56 L 5680.98,7352.79 Z " />
<path stroke="transparent" fill="#000000" transform="matrix(0.0833333 0 0 0.0833333 -147.542 -289.5)" d="M 5685.98,7272.53 L 5675.98,7289.86 L 5228.37,7031.42 L 5238.37,7014.1 L 5685.98,7272.53 Z " />
<path stroke="transparent" fill="#000000" transform="matrix(0.0833333 0 0 0.0833333 -147.542 -289.5)" d="M 5680.98,7375.88 L 5680.98,7352.79 L 6190.6,7058.56 L 6200.6,7064.33 L 6200.6,7075.88 L 5680.98,7375.88 Z " />
<path stroke="transparent" fill="#000000" transform="matrix(0.0833333 0 0 0.0833333 -147.542 -289.5)" d="M 4736.79,6230.75 L 4746.79,6213.43 L 5161.37,6452.79 L 5161.37,6464.33 L 5151.37,6470.11 L 4736.79,6230.75 Z " />
<path stroke="transparent" fill="#000000" transform="matrix(0.0833333 0 0 0.0833333 -147.542 -289.5)" d="M 4132.14,6470.76 L 4122.14,6464.33 L 4121.58,6452.46 L 4512.15,6169.88 L 4572.15,6273.8 L 4132.14,6470.76 Z " />
<path stroke="transparent" fill="#000000" transform="matrix(0.0833333 0 0 0.0833333 -147.542 -289.5)" d="M 4132.14,7070.11 L 4112.14,7058.56 L 4112.14,6470.11 L 4122.14,6464.33 L 4132.14,6470.76 L 4132.14,7070.11 Z " />
<path stroke="transparent" fill="#000000" transform="matrix(0.0833333 0 0 0.0833333 -147.542 -289.5)" d="M 3613.07,7369.79 L 3602.52,7364.33 L 3602.52,7352.79 L 4112.14,7058.56 L 4132.14,7070.11 L 3613.07,7369.79 Z " />
<path stroke="transparent" fill="#000000" transform="matrix(0.0833333 0 0 0.0833333 -147.542 -289.5)" d="M 3072.91,7070.11 L 3092.91,7058.56 L 3602.52,7352.79 L 3602.52,7364.33 L 3591.97,7369.79 L 3072.91,7070.11 Z " />
<path stroke="transparent" fill="#000000" transform="matrix(0.0833333 0 0 0.0833333 -147.542 -289.5)" d="M 3072.91,6470.64 L 3082.91,6464.33 L 3092.91,6470.11 L 3092.91,7058.56 L 3072.91,7070.11 L 3072.91,6470.64 Z " />
<path stroke="transparent" fill="#000000" transform="matrix(0.0833333 0 0 0.0833333 -147.542 -289.5)" d="M 3497.92,6213.18 L 3507.92,6230.5 L 3092.91,6470.11 L 3082.91,6464.33 L 3083.37,6452.52 L 3497.92,6213.18 Z " />
<path stroke="transparent" fill="#000000" transform="matrix(0.0833333 0 0 0.0833333 -147.542 -289.5)" d="M 3697.56,6230.75 L 3707.56,6213.43 L 4121.58,6452.46 L 4122.14,6464.33 L 4112.14,6470.11 L 3697.56,6230.75 Z " />
<path stroke="transparent" fill="#000000" transform="matrix(0.0833333 0 0 0.0833333 -147.542 -289.5)" d="M 2511.27,6205.92 L 2611.46,6124.98 L 3083.37,6452.52 L 3082.91,6464.33 L 3072.91,6470.64 L 2511.27,6205.92 Z " />
<path stroke="transparent" fill="#000000" transform="matrix(0.0833333 0 0 0.0833333 -147.542 -289.5)" d="M 2141.29,6419.52 L 2131.29,6402.2 L 2611.46,6124.98 L 2511.27,6205.92 L 2141.29,6419.52 Z " />
<path stroke="transparent" fill="#000000" transform="matrix(0.0833333 0 0 0.0833333 -147.542 -289.5)" d="M 2685.9,7362.83 L 2625.9,7258.9 L 2644.36,7250.88 L 2702.08,7350.85 L 2685.9,7362.83 Z " />
<path stroke="transparent" fill="#000000" transform="matrix(0.0833333 0 0 0.0833333 -147.542 -289.5)" d="M 2734.34,7326.99 L 2681.16,7234.87 L 2699.62,7226.85 L 2750.52,7315.02 L 2734.34,7326.99 Z " />
<path stroke="transparent" fill="#000000" transform="matrix(0.0833333 0 0 0.0833333 -147.542 -289.5)" d="M 2782.77,7291.15 L 2736.41,7210.85 L 2754.87,7202.82 L 2798.96,7279.18 L 2782.77,7291.15 Z " />
<path stroke="transparent" fill="#000000" transform="matrix(0.0833333 0 0 0.0833333 -147.542 -289.5)" d="M 2831.21,7255.32 L 2791.66,7186.82 L 2810.12,7178.79 L 2847.39,7243.34 L 2831.21,7255.32 Z " />
<path stroke="transparent" fill="#000000" transform="matrix(0.0833333 0 0 0.0833333 -147.542 -289.5)" d="M 2879.65,7219.48 L 2846.92,7162.79 L 2865.38,7154.76 L 2895.83,7207.51 L 2879.65,7219.48 Z " />
<path stroke="transparent" fill="#000000" transform="matrix(0.0833333 0 0 0.0833333 -147.542 -289.5)" d="M 2928.08,7183.64 L 2902.17,7138.76 L 2920.63,7130.73 L 2944.26,7171.67 L 2928.08,7183.64 Z " />
<path stroke="transparent" fill="#000000" transform="matrix(0.0833333 0 0 0.0833333 -147.542 -289.5)" d="M 2976.52,7147.81 L 2957.42,7114.73 L 2975.88,7106.7 L 2992.7,7135.83 L 2976.52,7147.81 Z " />
<path stroke="transparent" fill="#000000" transform="matrix(0.0833333 0 0 0.0833333 -147.542 -289.5)" d="M 3024.95,7111.97 L 3012.68,7090.7 L 3031.14,7082.68 L 3041.14,7100 L 3024.95,7111.97 Z " />
<path stroke="transparent" fill="#000000" transform="matrix(0.0833333 0 0 0.0833333 -147.542 -289.5)" d="M 3662.52,7859.17 L 3542.52,7859.17 L 3591.97,7369.79 L 3602.52,7364.33 L 3613.07,7369.79 L 3662.52,7859.17 Z " />
<path stroke="transparent" fill="#000000" transform="matrix(0.0833333 0 0 0.0833333 -147.542 -289.5)" d="M 4579.13,7258.9 L 4519.13,7362.82 L 4502.95,7350.85 L 4560.68,7250.87 L 4579.13,7258.9 Z " />
<path stroke="transparent" fill="#000000" transform="matrix(0.0833333 0 0 0.0833333 -147.542 -289.5)" d="M 4523.88,7234.87 L 4470.7,7326.99 L 4454.52,7315.01 L 4505.42,7226.84 L 4523.88,7234.87 Z " />
<path stroke="transparent" fill="#000000" transform="matrix(0.0833333 0 0 0.0833333 -147.542 -289.5)" d="M 4468.63,7210.84 L 4422.26,7291.15 L 4406.08,7279.18 L 4450.17,7202.82 L 4468.63,7210.84 Z " />
<path stroke="transparent" fill="#000000" transform="matrix(0.0833333 0 0 0.0833333 -147.542 -289.5)" d="M 4413.38,7186.81 L 4373.83,7255.31 L 4357.65,7243.34 L 4394.92,7178.79 L 4413.38,7186.81 Z " />
<path stroke="transparent" fill="#000000" transform="matrix(0.0833333 0 0 0.0833333 -147.542 -289.5)" d="M 4358.12,7162.79 L 4325.39,7219.48 L 4309.21,7207.5 L 4339.67,7154.76 L 4358.12,7162.79 Z " />
<path stroke="transparent" fill="#000000" transform="matrix(0.0833333 0 0 0.0833333 -147.542 -289.5)" d="M 4302.87,7138.76 L 4276.96,7183.64 L 4260.78,7171.67 L 4284.41,7130.73 L 4302.87,7138.76 Z " />
<path stroke="transparent" fill="#000000" transform="matrix(0.0833333 0 0 0.0833333 -147.542 -289.5)" d="M 4247.62,7114.73 L 4228.52,7147.8 L 4212.34,7135.83 L 4229.16,7106.7 L 4247.62,7114.73 Z " />
<path stroke="transparent" fill="#000000" transform="matrix(0.0833333 0 0 0.0833333 -147.542 -289.5)" d="M 4192.37,7090.7 L 4180.09,7111.97 L 4163.91,7100 L 4173.91,7082.68 L 4192.37,7090.7 Z " />
<path stroke="transparent" fill="#000000" transform="matrix(0.0833333 0 0 0.0833333 -147.542 -289.5)" d="M 5670.98,5684.17 L 5690.98,5684.17 L 5690.98,6158.56 L 5680.98,6164.33 L 5670.98,6158.56 L 5670.98,5684.17 Z " />
<path stroke="transparent" fill="#000000" transform="matrix(0.0833333 0 0 0.0833333 -147.542 -289.5)" d="M 6195.6,5255.67 L 6205.6,5272.99 L 5778.6,5519.52 L 5768.6,5502.2 L 6195.6,5255.67 Z " />
<path stroke="transparent" fill="#000000" transform="matrix(0.0833333 0 0 0.0833333 -147.542 -289.5)" d="M 8137.85,4546.63 L 8144.03,4565.65 L 7685.37,4714.68 L 7676.79,4706.95 L 7679.19,4695.66 L 8137.85,4546.63 Z " />
<path stroke="transparent" fill="#000000" transform="matrix(0.0833333 0 0 0.0833333 -147.542 -289.5)" d="M 8377.76,3935.79 L 8397.21,3940.46 L 8281.86,4420.95 L 8262.41,4416.28 L 8377.76,3935.79 Z " />
</svg>
