<?xml version="1.0" standalone="no" ?>
<!DOCTYPE svg PUBLIC "-//W3C//DTD SVG 1.1//EN" "http://www.w3.org/Graphics/SVG/1.1/DTD/svg11.dtd">
<svg width="290px" height="193px" viewBox="0 0 290 193" style="background-color: #ffffff00" xmlns="http://www.w3.org/2000/svg" xmlns:xlink="http://www.w3.org/1999/xlink" version="1.1" >
<text x="0" y="0" stroke="transparent" fill="#000000" transform="matrix(0.0666667 0 0 0.0666667 276.12 134.356)" style="font:normal normal normal 200px 'Arial'" >
O</text>
<text x="0" y="0" stroke="transparent" fill="#000000" transform="matrix(0.0666667 0 0 0.0666667 206.836 14.3534)" style="font:normal normal normal 200px 'Arial'" >
O</text>
<text x="0" y="0" stroke="transparent" fill="#000000" transform="matrix(0.0666667 0 0 0.0666667 172.195 74.3547)" style="font:normal normal normal 200px 'Arial'" >
O</text>
<path stroke="transparent" fill="#000000" transform="matrix(0.0666667 0 0 0.0666667 -203.859 -169)" d="M 7267.69,4592.17 L 7287.69,4592.17 L 7287.69,5072.35 L 7267.69,5072.35 L 7267.69,4592.17 Z " />
<path stroke="transparent" fill="#000000" transform="matrix(0.0666667 0 0 0.0666667 -203.859 -169)" d="M 6758.03,4183.88 L 6758.03,4172.33 L 6768.03,4166.56 L 7190.07,4410.21 L 7180.07,4427.53 L 6758.03,4183.88 Z " />
<path stroke="transparent" fill="#000000" transform="matrix(0.0666667 0 0 0.0666667 -203.859 -169)" d="M 6748.03,3578.09 L 6768.03,3566.55 L 6768.03,4166.56 L 6758.03,4172.33 L 6748.03,4166.56 L 6748.03,3578.09 Z " />
<path stroke="transparent" fill="#000000" transform="matrix(0.0666667 0 0 0.0666667 -203.859 -169)" d="M 6676.03,3613.89 L 6696.03,3613.89 L 6696.03,4130.76 L 6676.03,4130.76 L 6676.03,3613.89 Z " />
<path stroke="transparent" fill="#000000" transform="matrix(0.0666667 0 0 0.0666667 -203.859 -169)" d="M 6238.42,3283.86 L 6238.42,3260.77 L 6768.03,3566.55 L 6748.03,3578.09 L 6238.42,3283.86 Z " />
<path stroke="transparent" fill="#000000" transform="matrix(0.0666667 0 0 0.0666667 -203.859 -169)" d="M 6192.42,2792.13 L 6212.42,2792.13 L 6212.42,3293.1 L 6192.42,3293.1 L 6192.42,2792.13 Z " />
<path stroke="transparent" fill="#000000" transform="matrix(0.0666667 0 0 0.0666667 -203.859 -169)" d="M 6264.42,2792.13 L 6284.42,2792.13 L 6284.42,3293.1 L 6264.42,3293.1 L 6264.42,2792.13 Z " />
<path stroke="transparent" fill="#000000" transform="matrix(0.0666667 0 0 0.0666667 -203.859 -169)" d="M 5816.43,3527.51 L 5806.43,3510.19 L 6238.42,3260.77 L 6238.42,3283.86 L 5816.43,3527.51 Z " />
<path stroke="transparent" fill="#000000" transform="matrix(0.0666667 0 0 0.0666667 -203.859 -169)" d="M 5728.81,4166.56 L 5718.81,4172.33 L 5708.81,4166.56 L 5708.81,3692.15 L 5728.81,3692.15 L 5728.81,4166.56 Z " />
<path stroke="transparent" fill="#000000" transform="matrix(0.0666667 0 0 0.0666667 -203.859 -169)" d="M 5199.16,4483.89 L 5199.16,4460.79 L 5708.81,4166.56 L 5718.81,4172.33 L 5718.81,4183.88 L 5199.16,4483.89 Z " />
<path stroke="transparent" fill="#000000" transform="matrix(0.0666667 0 0 0.0666667 -203.859 -169)" d="M 4679.55,4183.88 L 4679.55,4160.79 L 5199.16,4460.79 L 5199.16,4483.89 L 4679.55,4183.88 Z " />
<path stroke="transparent" fill="#000000" transform="matrix(0.0666667 0 0 0.0666667 -203.859 -169)" d="M 4674.55,4264.13 L 4684.55,4246.81 L 5168.16,4526.03 L 5158.16,4543.35 L 4674.55,4264.13 Z " />
<path stroke="transparent" fill="#000000" transform="matrix(0.0666667 0 0 0.0666667 -203.859 -169)" d="M 4169.94,4478.11 L 4159.94,4472.34 L 4159.94,4460.79 L 4679.55,4160.79 L 4679.55,4183.88 L 4169.94,4478.11 Z " />
<path stroke="transparent" fill="#000000" transform="matrix(0.0666667 0 0 0.0666667 -203.859 -169)" d="M 3640.33,4183.88 L 3640.33,4160.79 L 4159.94,4460.79 L 4159.94,4472.34 L 4149.94,4478.11 L 3640.33,4183.88 Z " />
<path stroke="transparent" fill="#000000" transform="matrix(0.0666667 0 0 0.0666667 -203.859 -169)" d="M 3635.32,4264.13 L 3645.32,4246.81 L 4092.94,4505.25 L 4082.94,4522.57 L 3635.32,4264.13 Z " />
<path stroke="transparent" fill="#000000" transform="matrix(0.0666667 0 0 0.0666667 -203.859 -169)" d="M 3130.71,4478.07 L 3110.71,4466.53 L 3640.33,4160.79 L 3640.33,4183.88 L 3130.71,4478.07 Z " />
<path stroke="transparent" fill="#000000" transform="matrix(0.0666667 0 0 0.0666667 -203.859 -169)" d="M 3130.71,5066.54 L 3110.71,5078.09 L 3110.71,4466.53 L 3130.71,4478.07 L 3130.71,5066.54 Z " />
<path stroke="transparent" fill="#000000" transform="matrix(0.0666667 0 0 0.0666667 -203.859 -169)" d="M 3202.72,5030.74 L 3182.72,5030.74 L 3182.72,4513.87 L 3202.72,4513.87 L 3202.72,5030.74 Z " />
<path stroke="transparent" fill="#000000" transform="matrix(0.0666667 0 0 0.0666667 -203.859 -169)" d="M 3640.33,5360.77 L 3640.33,5383.87 L 3110.71,5078.09 L 3130.71,5066.54 L 3640.33,5360.77 Z " />
<path stroke="transparent" fill="#000000" transform="matrix(0.0666667 0 0 0.0666667 -203.859 -169)" d="M 4149.94,5066.58 L 4169.94,5078.13 L 3640.33,5383.87 L 3640.33,5360.77 L 4149.94,5066.58 Z " />
<path stroke="transparent" fill="#000000" transform="matrix(0.0666667 0 0 0.0666667 -203.859 -169)" d="M 4082.94,5022.12 L 4092.94,5039.44 L 3645.33,5297.84 L 3635.33,5280.52 L 4082.94,5022.12 Z " />
<path stroke="transparent" fill="#000000" transform="matrix(0.0666667 0 0 0.0666667 -203.859 -169)" d="M 4169.94,5078.13 L 4149.94,5066.58 L 4149.94,4478.11 L 4159.94,4472.34 L 4169.94,4478.11 L 4169.94,5078.13 Z " />
<path stroke="transparent" fill="#000000" transform="matrix(0.0666667 0 0 0.0666667 -203.859 -169)" d="M 6238.42,4460.75 L 6238.42,4483.85 L 5718.81,4183.88 L 5718.81,4172.33 L 5728.81,4166.56 L 6238.42,4460.75 Z " />
<path stroke="transparent" fill="#000000" transform="matrix(0.0666667 0 0 0.0666667 -203.859 -169)" d="M 6238.42,4483.85 L 6238.42,4460.75 L 6748.03,4166.56 L 6758.03,4172.33 L 6758.03,4183.88 L 6238.42,4483.85 Z " />
</svg>
