<?xml version="1.0" standalone="no" ?>
<!DOCTYPE svg PUBLIC "-//W3C//DTD SVG 1.1//EN" "http://www.w3.org/Graphics/SVG/1.1/DTD/svg11.dtd">
<svg width="1127px" height="659px" viewBox="0 0 1127 659" style="background-color: #ffffff00" xmlns="http://www.w3.org/2000/svg" xmlns:xlink="http://www.w3.org/1999/xlink" version="1.1" >
<text x="0" y="0" stroke="transparent" fill="#000000" transform="matrix(0.0833333 0 0 0.0833333 968.612 318.306)" style="font:normal normal normal 200px 'Arial'" >
O</text>
<text x="0" y="0" stroke="transparent" fill="#000000" transform="matrix(0.0833333 0 0 0.0833333 1011.91 393.306)" style="font:normal normal normal 200px 'Arial'" >
O</text>
<text x="0" y="0" stroke="transparent" fill="#000000" transform="matrix(0.0833333 0 0 0.0833333 925.311 493.306)" style="font:normal normal normal 200px 'Arial'" >
O</text>
<text x="0" y="0" stroke="transparent" fill="#000000" transform="matrix(0.0833333 0 0 0.0833333 925.311 343.306)" style="font:normal normal normal 200px 'Arial'" >
OH</text>
<text x="0" y="0" stroke="transparent" fill="#000000" transform="matrix(0.0833333 0 0 0.0833333 826.672 393.306)" style="font:normal normal normal 200px 'Arial'" >
HO</text>
<text x="0" y="0" stroke="transparent" fill="#000000" transform="matrix(0.0833333 0 0 0.0833333 838.708 493.306)" style="font:normal normal normal 200px 'Arial'" >
O</text>
<text x="0" y="0" stroke="transparent" fill="#000000" transform="matrix(0.0833333 0 0 0.0833333 708.804 468.306)" style="font:normal normal normal 200px 'Arial'" >
O</text>
<text x="0" y="0" stroke="transparent" fill="#000000" transform="matrix(0.0833333 0 0 0.0833333 622.202 468.306)" style="font:normal normal normal 200px 'Arial'" >
O</text>
<text x="0" y="0" stroke="transparent" fill="#000000" transform="matrix(0.0833333 0 0 0.0833333 578.901 543.306)" style="font:normal normal normal 200px 'Arial'" >
O</text>
<text x="0" y="0" stroke="transparent" fill="#000000" transform="matrix(0.0833333 0 0 0.0833333 189.189 618.306)" style="font:normal normal normal 200px 'Arial'" >
O</text>
<text x="0" y="0" stroke="transparent" fill="#000000" transform="matrix(0.0833333 0 0 0.0833333 102.587 618.306)" style="font:normal normal normal 200px 'Arial'" >
O</text>
<text x="0" y="0" stroke="transparent" fill="#000000" transform="matrix(0.0833333 0 0 0.0833333 3.94799 518.306)" style="font:normal normal normal 200px 'Arial'" >
HO</text>
<text x="0" y="0" stroke="transparent" fill="#000000" transform="matrix(0.0833333 0 0 0.0833333 102.587 468.306)" style="font:normal normal normal 200px 'Arial'" >
OH</text>
<text x="0" y="0" stroke="transparent" fill="#000000" transform="matrix(0.0833333 0 0 0.0833333 189.189 518.306)" style="font:normal normal normal 200px 'Arial'" >
O</text>
<text x="0" y="0" stroke="transparent" fill="#000000" transform="matrix(0.0833333 0 0 0.0833333 145.888 443.306)" style="font:normal normal normal 200px 'Arial'" >
O</text>
<text x="0" y="0" stroke="transparent" fill="#000000" transform="matrix(0.0833333 0 0 0.0833333 189.189 318.306)" style="font:normal normal normal 200px 'Arial'" >
OH</text>
<text x="0" y="0" stroke="transparent" fill="#000000" transform="matrix(0.0833333 0 0 0.0833333 275.792 368.306)" style="font:normal normal normal 200px 'Arial'" >
O</text>
<text x="0" y="0" stroke="transparent" fill="#000000" transform="matrix(0.0833333 0 0 0.0833333 232.49 293.306)" style="font:normal normal normal 200px 'Arial'" >
O</text>
<text x="0" y="0" stroke="transparent" fill="#000000" transform="matrix(0.0833333 0 0 0.0833333 275.792 168.306)" style="font:normal normal normal 200px 'Arial'" >
O</text>
<text x="0" y="0" stroke="transparent" fill="#000000" transform="matrix(0.0833333 0 0 0.0833333 362.394 168.306)" style="font:normal normal normal 200px 'Arial'" >
O</text>
<text x="0" y="0" stroke="transparent" fill="#000000" transform="matrix(0.0833333 0 0 0.0833333 492.298 143.306)" style="font:normal normal normal 200px 'Arial'" >
OH</text>
<text x="0" y="0" stroke="transparent" fill="#000000" transform="matrix(0.0833333 0 0 0.0833333 448.997 68.3063)" style="font:normal normal normal 200px 'Arial'" >
OH</text>
<text x="0" y="0" stroke="transparent" fill="#000000" transform="matrix(0.0833333 0 0 0.0833333 362.394 18.3063)" style="font:normal normal normal 200px 'Arial'" >
OH</text>
<text x="0" y="0" stroke="transparent" fill="#000000" transform="matrix(0.0833333 0 0 0.0833333 263.756 68.3063)" style="font:normal normal normal 200px 'Arial'" >
HO</text>
<text x="0" y="0" stroke="transparent" fill="#000000" transform="matrix(0.0833333 0 0 0.0833333 362.394 218.306)" style="font:normal normal normal 200px 'Arial'" >
OH</text>
<text x="0" y="0" stroke="transparent" fill="#000000" transform="matrix(0.0833333 0 0 0.0833333 362.394 318.306)" style="font:normal normal normal 200px 'Arial'" >
OH</text>
<text x="0" y="0" stroke="transparent" fill="#000000" transform="matrix(0.0833333 0 0 0.0833333 275.792 468.306)" style="font:normal normal normal 200px 'Arial'" >
OH</text>
<text x="0" y="0" stroke="transparent" fill="#000000" transform="matrix(0.0833333 0 0 0.0833333 610.166 568.306)" style="font:normal normal normal 200px 'Arial'" >
HO</text>
<text x="0" y="0" stroke="transparent" fill="#000000" transform="matrix(0.0833333 0 0 0.0833333 708.804 618.306)" style="font:normal normal normal 200px 'Arial'" >
OH</text>
<text x="0" y="0" stroke="transparent" fill="#000000" transform="matrix(0.0833333 0 0 0.0833333 795.407 568.306)" style="font:normal normal normal 200px 'Arial'" >
OH</text>
<text x="0" y="0" stroke="transparent" fill="#000000" transform="matrix(0.0833333 0 0 0.0833333 1055.21 468.306)" style="font:normal normal normal 200px 'Arial'" >
OH</text>
<text x="0" y="0" stroke="transparent" fill="#000000" transform="matrix(0.0833333 0 0 0.0833333 1098.52 343.306)" style="font:normal normal normal 200px 'Arial'" >
OH</text>
<text x="0" y="0" stroke="transparent" fill="#000000" transform="matrix(0.0833333 0 0 0.0833333 1098.52 243.306)" style="font:normal normal normal 200px 'Arial'" >
OH</text>
<text x="0" y="0" stroke="transparent" fill="#000000" transform="matrix(0.0833333 0 0 0.0833333 1011.91 193.306)" style="font:normal normal normal 200px 'Arial'" >
OH</text>
<path stroke="transparent" fill="#000000" transform="matrix(0.0833333 0 0 0.0833333 -58.25 -25.7333)" d="M 12400.8,3438.66 L 12400.3,3450.48 L 12390.3,3456.78 L 11850.7,3202.44 L 11910.7,3098.51 L 12400.8,3438.66 Z " />
<path stroke="transparent" fill="#000000" transform="matrix(0.0833333 0 0 0.0833333 -58.25 -25.7333)" d="M 12920,3138.93 L 12920,3162.02 L 12410.3,3456.25 L 12400.3,3450.48 L 12400.8,3438.66 L 12920,3138.93 Z " />
<path stroke="transparent" fill="#000000" transform="matrix(0.0833333 0 0 0.0833333 -58.25 -25.7333)" d="M 13439,3438.6 L 13439.6,3450.48 L 13429.6,3456.25 L 12920,3162.02 L 12920,3138.93 L 13439,3438.6 Z " />
<path stroke="transparent" fill="#000000" transform="matrix(0.0833333 0 0 0.0833333 -58.25 -25.7333)" d="M 13449.6,4044.06 L 13439.6,4050.48 L 13429.6,4044.7 L 13429.6,3456.25 L 13439.6,3450.48 L 13449.6,3456.9 L 13449.6,4044.06 Z " />
<path stroke="transparent" fill="#000000" transform="matrix(0.0833333 0 0 0.0833333 -58.25 -25.7333)" d="M 12920,4362.02 L 12920,4338.93 L 13429.6,4044.7 L 13439.6,4050.48 L 13439,4062.34 L 12920,4362.02 Z " />
<path stroke="transparent" fill="#000000" transform="matrix(0.0833333 0 0 0.0833333 -58.25 -25.7333)" d="M 12495.4,4116.89 L 12505.4,4099.57 L 12920,4338.93 L 12920,4362.02 L 12495.4,4116.89 Z " />
<path stroke="transparent" fill="#000000" transform="matrix(0.0833333 0 0 0.0833333 -58.25 -25.7333)" d="M 12410.3,3945.31 L 12390.3,3945.31 L 12390.3,3456.78 L 12400.3,3450.48 L 12410.3,3456.25 L 12410.3,3945.31 Z " />
<path stroke="transparent" fill="#000000" transform="matrix(0.0833333 0 0 0.0833333 -58.25 -25.7333)" d="M 12980,4845.31 L 12860,4845.31 L 12862.2,4825.31 L 12977.7,4825.31 L 12980,4845.31 Z " />
<path stroke="transparent" fill="#000000" transform="matrix(0.0833333 0 0 0.0833333 -58.25 -25.7333)" d="M 12973.1,4785.2 L 12866.8,4785.2 L 12869,4765.2 L 12970.9,4765.2 L 12973.1,4785.2 Z " />
<path stroke="transparent" fill="#000000" transform="matrix(0.0833333 0 0 0.0833333 -58.25 -25.7333)" d="M 12966.3,4725.1 L 12873.6,4725.1 L 12875.9,4705.1 L 12964.1,4705.1 L 12966.3,4725.1 Z " />
<path stroke="transparent" fill="#000000" transform="matrix(0.0833333 0 0 0.0833333 -58.25 -25.7333)" d="M 12959.5,4664.99 L 12880.4,4664.99 L 12882.7,4644.99 L 12957.2,4644.99 L 12959.5,4664.99 Z " />
<path stroke="transparent" fill="#000000" transform="matrix(0.0833333 0 0 0.0833333 -58.25 -25.7333)" d="M 12952.7,4604.88 L 12887.2,4604.88 L 12889.5,4584.88 L 12950.4,4584.88 L 12952.7,4604.88 Z " />
<path stroke="transparent" fill="#000000" transform="matrix(0.0833333 0 0 0.0833333 -58.25 -25.7333)" d="M 12945.9,4544.78 L 12894.1,4544.78 L 12896.3,4524.78 L 12943.6,4524.78 L 12945.9,4544.78 Z " />
<path stroke="transparent" fill="#000000" transform="matrix(0.0833333 0 0 0.0833333 -58.25 -25.7333)" d="M 12939,4484.67 L 12900.9,4484.67 L 12903.1,4464.67 L 12936.8,4464.67 L 12939,4484.67 Z " />
<path stroke="transparent" fill="#000000" transform="matrix(0.0833333 0 0 0.0833333 -58.25 -25.7333)" d="M 12932.2,4424.57 L 12907.7,4424.57 L 12910,4404.57 L 12930,4404.57 L 12932.2,4424.57 Z " />
<path stroke="transparent" fill="#000000" transform="matrix(0.0833333 0 0 0.0833333 -58.25 -25.7333)" d="M 12452.2,5232.08 L 12442.2,5214.76 L 12458.4,5202.75 L 12470.7,5224.09 L 12452.2,5232.08 Z " />
<path stroke="transparent" fill="#000000" transform="matrix(0.0833333 0 0 0.0833333 -58.25 -25.7333)" d="M 12506.4,5208.63 L 12489.6,5179.51 L 12505.8,5167.5 L 12524.9,5200.64 L 12506.4,5208.63 Z " />
<path stroke="transparent" fill="#000000" transform="matrix(0.0833333 0 0 0.0833333 -58.25 -25.7333)" d="M 12560.7,5185.18 L 12537.1,5144.27 L 12553.2,5132.26 L 12579.2,5177.19 L 12560.7,5185.18 Z " />
<path stroke="transparent" fill="#000000" transform="matrix(0.0833333 0 0 0.0833333 -58.25 -25.7333)" d="M 12614.9,5161.73 L 12584.5,5109.02 L 12600.6,5097.01 L 12633.4,5153.74 L 12614.9,5161.73 Z " />
<path stroke="transparent" fill="#000000" transform="matrix(0.0833333 0 0 0.0833333 -58.25 -25.7333)" d="M 12669.2,5138.28 L 12631.9,5073.77 L 12648.1,5061.76 L 12687.6,5130.29 L 12669.2,5138.28 Z " />
<path stroke="transparent" fill="#000000" transform="matrix(0.0833333 0 0 0.0833333 -58.25 -25.7333)" d="M 12723.4,5114.83 L 12679.3,5038.52 L 12695.5,5026.51 L 12741.9,5106.84 L 12723.4,5114.83 Z " />
<path stroke="transparent" fill="#000000" transform="matrix(0.0833333 0 0 0.0833333 -58.25 -25.7333)" d="M 12777.6,5091.38 L 12726.8,5003.28 L 12742.9,4991.27 L 12796.1,5083.39 L 12777.6,5091.38 Z " />
<path stroke="transparent" fill="#000000" transform="matrix(0.0833333 0 0 0.0833333 -58.25 -25.7333)" d="M 12831.9,5067.93 L 12774.2,4968.03 L 12790.4,4956.02 L 12850.4,5059.94 L 12831.9,5067.93 Z " />
<path stroke="transparent" fill="#000000" transform="matrix(0.0833333 0 0 0.0833333 -58.25 -25.7333)" d="M 12410.3,5844.17 L 12400.3,5850.48 L 12390.3,5844.7 L 12390.3,5256.25 L 12410.3,5244.7 L 12410.3,5844.17 Z " />
<path stroke="transparent" fill="#000000" transform="matrix(0.0833333 0 0 0.0833333 -58.25 -25.7333)" d="M 11978.3,6105.66 L 11968.3,6088.34 L 12390.3,5844.7 L 12400.3,5850.48 L 12399.9,5862.29 L 11978.3,6105.66 Z " />
<path stroke="transparent" fill="#000000" transform="matrix(0.0833333 0 0 0.0833333 -58.25 -25.7333)" d="M 11361.7,5862.34 L 11361.1,5850.48 L 11371.1,5844.7 L 11793.1,6088.34 L 11783.1,6105.66 L 11361.7,5862.34 Z " />
<path stroke="transparent" fill="#000000" transform="matrix(0.0833333 0 0 0.0833333 -58.25 -25.7333)" d="M 11351.1,5244.7 L 11371.1,5256.25 L 11371.1,5844.7 L 11361.1,5850.48 L 11351.1,5844.06 L 11351.1,5244.7 Z " />
<path stroke="transparent" fill="#000000" transform="matrix(0.0833333 0 0 0.0833333 -58.25 -25.7333)" d="M 11870.2,4945.03 L 11880.7,4950.48 L 11880.7,4962.02 L 11371.1,5256.25 L 11351.1,5244.7 L 11870.2,4945.03 Z " />
<path stroke="transparent" fill="#000000" transform="matrix(0.0833333 0 0 0.0833333 -58.25 -25.7333)" d="M 11880.7,4962.02 L 11880.7,4950.48 L 11891.3,4945.03 L 12410.3,5244.7 L 12390.3,5256.25 L 11880.7,4962.02 Z " />
<path stroke="transparent" fill="#000000" transform="matrix(0.0833333 0 0 0.0833333 -58.25 -25.7333)" d="M 11820.7,4470.31 L 11940.7,4470.31 L 11891.3,4945.03 L 11880.7,4950.48 L 11870.2,4945.03 L 11820.7,4470.31 Z " />
<path stroke="transparent" fill="#000000" transform="matrix(0.0833333 0 0 0.0833333 -58.25 -25.7333)" d="M 10911.5,5060.19 L 10971.5,4956.27 L 10987.7,4968.28 L 10930,5068.18 L 10911.5,5060.19 Z " />
<path stroke="transparent" fill="#000000" transform="matrix(0.0833333 0 0 0.0833333 -58.25 -25.7333)" d="M 10965.7,5083.61 L 11018.9,4991.48 L 11035.1,5003.49 L 10984.2,5091.6 L 10965.7,5083.61 Z " />
<path stroke="transparent" fill="#000000" transform="matrix(0.0833333 0 0 0.0833333 -58.25 -25.7333)" d="M 11019.9,5107.03 L 11066.3,5026.7 L 11082.4,5038.71 L 11038.4,5115.01 L 11019.9,5107.03 Z " />
<path stroke="transparent" fill="#000000" transform="matrix(0.0833333 0 0 0.0833333 -58.25 -25.7333)" d="M 11074.1,5130.44 L 11113.6,5061.91 L 11129.8,5073.92 L 11092.6,5138.43 L 11074.1,5130.44 Z " />
<path stroke="transparent" fill="#000000" transform="matrix(0.0833333 0 0 0.0833333 -58.25 -25.7333)" d="M 11128.3,5153.86 L 11161,5097.13 L 11177.2,5109.14 L 11146.7,5161.85 L 11128.3,5153.86 Z " />
<path stroke="transparent" fill="#000000" transform="matrix(0.0833333 0 0 0.0833333 -58.25 -25.7333)" d="M 11182.4,5177.28 L 11208.4,5132.34 L 11224.6,5144.36 L 11200.9,5185.27 L 11182.4,5177.28 Z " />
<path stroke="transparent" fill="#000000" transform="matrix(0.0833333 0 0 0.0833333 -58.25 -25.7333)" d="M 11236.6,5200.7 L 11255.8,5167.56 L 11271.9,5179.57 L 11255.1,5208.69 L 11236.6,5200.7 Z " />
<path stroke="transparent" fill="#000000" transform="matrix(0.0833333 0 0 0.0833333 -58.25 -25.7333)" d="M 11290.8,5224.12 L 11303.1,5202.78 L 11319.3,5214.79 L 11309.3,5232.11 L 11290.8,5224.12 Z " />
<path stroke="transparent" fill="#000000" transform="matrix(0.0833333 0 0 0.0833333 -58.25 -25.7333)" d="M 10964.1,6148.96 L 10904.1,6045.04 L 11351.1,5844.06 L 11361.1,5850.48 L 11361.7,5862.34 L 10964.1,6148.96 Z " />
<path stroke="transparent" fill="#000000" transform="matrix(0.0833333 0 0 0.0833333 -58.25 -25.7333)" d="M 10316.9,5859.14 L 10326.9,5841.82 L 10753.9,6088.34 L 10743.9,6105.66 L 10316.9,5859.14 Z " />
<path stroke="transparent" fill="#000000" transform="matrix(0.0833333 0 0 0.0833333 -58.25 -25.7333)" d="M 9854.03,6132.14 L 9844.03,6114.82 L 9860.34,6103.06 L 9872.37,6123.9 L 9854.03,6132.14 Z " />
<path stroke="transparent" fill="#000000" transform="matrix(0.0833333 0 0 0.0833333 -58.25 -25.7333)" d="M 9908.13,6107.83 L 9892.13,6080.12 L 9908.44,6068.36 L 9926.46,6099.59 L 9908.13,6107.83 Z " />
<path stroke="transparent" fill="#000000" transform="matrix(0.0833333 0 0 0.0833333 -58.25 -25.7333)" d="M 9962.22,6083.52 L 9940.23,6045.43 L 9956.53,6033.67 L 9980.56,6075.28 L 9962.22,6083.52 Z " />
<path stroke="transparent" fill="#000000" transform="matrix(0.0833333 0 0 0.0833333 -58.25 -25.7333)" d="M 10016.3,6059.21 L 9988.33,6010.74 L 10004.6,5998.98 L 10034.7,6050.97 L 10016.3,6059.21 Z " />
<path stroke="transparent" fill="#000000" transform="matrix(0.0833333 0 0 0.0833333 -58.25 -25.7333)" d="M 10070.4,6034.91 L 10036.4,5976.04 L 10052.7,5964.28 L 10088.7,6026.67 L 10070.4,6034.91 Z " />
<path stroke="transparent" fill="#000000" transform="matrix(0.0833333 0 0 0.0833333 -58.25 -25.7333)" d="M 10124.5,6010.6 L 10084.5,5941.35 L 10100.8,5929.59 L 10142.8,6002.36 L 10124.5,6010.6 Z " />
<path stroke="transparent" fill="#000000" transform="matrix(0.0833333 0 0 0.0833333 -58.25 -25.7333)" d="M 10178.6,5986.29 L 10132.6,5906.66 L 10148.9,5894.9 L 10196.9,5978.05 L 10178.6,5986.29 Z " />
<path stroke="transparent" fill="#000000" transform="matrix(0.0833333 0 0 0.0833333 -58.25 -25.7333)" d="M 10232.7,5961.98 L 10180.7,5871.97 L 10197,5860.21 L 10251,5953.74 L 10232.7,5961.98 Z " />
<path stroke="transparent" fill="#000000" transform="matrix(0.0833333 0 0 0.0833333 -58.25 -25.7333)" d="M 10286.8,5937.68 L 10228.8,5837.27 L 10245.1,5825.51 L 10305.1,5929.44 L 10286.8,5937.68 Z " />
<path stroke="transparent" fill="#000000" transform="matrix(0.0833333 0 0 0.0833333 -58.25 -25.7333)" d="M 9812.27,6744.06 L 9802.27,6750.48 L 9792.27,6744.7 L 9792.27,6156.25 L 9812.27,6144.7 L 9812.27,6744.06 Z " />
<path stroke="transparent" fill="#000000" transform="matrix(0.0833333 0 0 0.0833333 -58.25 -25.7333)" d="M 9282.65,7062.02 L 9282.65,7038.93 L 9792.27,6744.7 L 9802.27,6750.48 L 9801.72,6762.34 L 9282.65,7062.02 Z " />
<path stroke="transparent" fill="#000000" transform="matrix(0.0833333 0 0 0.0833333 -58.25 -25.7333)" d="M 8763.59,6762.34 L 8763.04,6750.48 L 8773.04,6744.7 L 9282.65,7038.93 L 9282.65,7062.02 L 8763.59,6762.34 Z " />
<path stroke="transparent" fill="#000000" transform="matrix(0.0833333 0 0 0.0833333 -58.25 -25.7333)" d="M 8753.04,6144.7 L 8773.04,6156.25 L 8773.04,6744.7 L 8763.04,6750.48 L 8753.04,6744.06 L 8753.04,6144.7 Z " />
<path stroke="transparent" fill="#000000" transform="matrix(0.0833333 0 0 0.0833333 -58.25 -25.7333)" d="M 9178.05,5899.32 L 9188.05,5916.64 L 8773.04,6156.25 L 8753.04,6144.7 L 9178.05,5899.32 Z " />
<path stroke="transparent" fill="#000000" transform="matrix(0.0833333 0 0 0.0833333 -58.25 -25.7333)" d="M 9377.69,5916.89 L 9387.69,5899.57 L 9812.27,6144.7 L 9792.27,6156.25 L 9377.69,5916.89 Z " />
<path stroke="transparent" fill="#000000" transform="matrix(0.0833333 0 0 0.0833333 -58.25 -25.7333)" d="M 8313.46,5960.19 L 8373.46,5856.27 L 8389.62,5868.28 L 8331.94,5968.18 L 8313.46,5960.19 Z " />
<path stroke="transparent" fill="#000000" transform="matrix(0.0833333 0 0 0.0833333 -58.25 -25.7333)" d="M 8367.64,5983.61 L 8420.83,5891.49 L 8436.99,5903.5 L 8386.12,5991.6 L 8367.64,5983.61 Z " />
<path stroke="transparent" fill="#000000" transform="matrix(0.0833333 0 0 0.0833333 -58.25 -25.7333)" d="M 8421.83,6007.03 L 8468.2,5926.7 L 8484.36,5938.71 L 8440.31,6015.02 L 8421.83,6007.03 Z " />
<path stroke="transparent" fill="#000000" transform="matrix(0.0833333 0 0 0.0833333 -58.25 -25.7333)" d="M 8476.01,6030.45 L 8515.58,5961.92 L 8531.74,5973.93 L 8494.49,6038.44 L 8476.01,6030.45 Z " />
<path stroke="transparent" fill="#000000" transform="matrix(0.0833333 0 0 0.0833333 -58.25 -25.7333)" d="M 8530.19,6053.87 L 8562.95,5997.13 L 8579.11,6009.14 L 8548.68,6061.85 L 8530.19,6053.87 Z " />
<path stroke="transparent" fill="#000000" transform="matrix(0.0833333 0 0 0.0833333 -58.25 -25.7333)" d="M 8584.38,6077.28 L 8610.32,6032.35 L 8626.48,6044.36 L 8602.86,6085.27 L 8584.38,6077.28 Z " />
<path stroke="transparent" fill="#000000" transform="matrix(0.0833333 0 0 0.0833333 -58.25 -25.7333)" d="M 8638.56,6100.7 L 8657.69,6067.56 L 8673.85,6079.57 L 8657.04,6108.69 L 8638.56,6100.7 Z " />
<path stroke="transparent" fill="#000000" transform="matrix(0.0833333 0 0 0.0833333 -58.25 -25.7333)" d="M 8692.74,6124.12 L 8705.07,6102.78 L 8721.23,6114.79 L 8711.23,6132.11 L 8692.74,6124.12 Z " />
<path stroke="transparent" fill="#000000" transform="matrix(0.0833333 0 0 0.0833333 -58.25 -25.7333)" d="M 7675.64,6189.83 L 7775.83,6108.89 L 8138.82,5899.32 L 8148.82,5916.64 L 7675.64,6189.83 Z " />
<path stroke="transparent" fill="#000000" transform="matrix(0.0833333 0 0 0.0833333 -58.25 -25.7333)" d="M 7769.81,6645.31 L 7749.81,6645.31 L 7749.81,6129.69 L 7769.81,6129.69 L 7769.81,6645.31 Z " />
<path stroke="transparent" fill="#000000" transform="matrix(0.0833333 0 0 0.0833333 -58.25 -25.7333)" d="M 7697.81,6645.31 L 7677.81,6645.31 L 7677.81,6129.69 L 7697.81,6129.69 L 7697.81,6645.31 Z " />
<path stroke="transparent" fill="#000000" transform="matrix(0.0833333 0 0 0.0833333 -58.25 -25.7333)" d="M 7214.19,5869.55 L 7204.19,5850.48 L 7225.71,5849.6 L 7775.83,6108.89 L 7675.64,6189.83 L 7214.19,5869.55 Z " />
<path stroke="transparent" fill="#000000" transform="matrix(0.0833333 0 0 0.0833333 -58.25 -25.7333)" d="M 7214.19,6456.25 L 7194.19,6444.7 L 7194.19,5856.25 L 7204.19,5850.48 L 7214.19,5869.55 L 7214.19,6456.25 Z " />
<path stroke="transparent" fill="#000000" transform="matrix(0.0833333 0 0 0.0833333 -58.25 -25.7333)" d="M 6684.58,6762.02 L 6684.58,6738.93 L 7194.19,6444.7 L 7214.19,6456.25 L 6684.58,6762.02 Z " />
<path stroke="transparent" fill="#000000" transform="matrix(0.0833333 0 0 0.0833333 -58.25 -25.7333)" d="M 6164.96,6462.02 L 6164.96,6450.48 L 6174.96,6444.7 L 6684.58,6738.93 L 6684.58,6762.02 L 6164.96,6462.02 Z " />
<path stroke="transparent" fill="#000000" transform="matrix(0.0833333 0 0 0.0833333 -58.25 -25.7333)" d="M 6154.96,5856.25 L 6164.96,5850.48 L 6174.96,5856.25 L 6174.96,6444.7 L 6164.96,6450.48 L 6154.96,6444.7 L 6154.96,5856.25 Z " />
<path stroke="transparent" fill="#000000" transform="matrix(0.0833333 0 0 0.0833333 -58.25 -25.7333)" d="M 5645.35,5562.02 L 5645.35,5538.93 L 6164.96,5838.93 L 6164.96,5850.48 L 6154.96,5856.25 L 5645.35,5562.02 Z " />
<path stroke="transparent" fill="#000000" transform="matrix(0.0833333 0 0 0.0833333 -58.25 -25.7333)" d="M 5640.35,5642.27 L 5650.35,5624.95 L 6097.96,5883.38 L 6087.96,5900.71 L 5640.35,5642.27 Z " />
<path stroke="transparent" fill="#000000" transform="matrix(0.0833333 0 0 0.0833333 -58.25 -25.7333)" d="M 5187.75,5826.21 L 5067.57,5872.51 L 5645.35,5538.93 L 5645.35,5562.02 L 5187.75,5826.21 Z " />
<path stroke="transparent" fill="#000000" transform="matrix(0.0833333 0 0 0.0833333 -58.25 -25.7333)" d="M 5136.19,6444.97 L 5125.73,6450.48 L 5115.27,6444.97 L 5067.57,5872.51 L 5187.75,5826.21 L 5136.19,6444.97 Z " />
<path stroke="transparent" fill="#000000" transform="matrix(0.0833333 0 0 0.0833333 -58.25 -25.7333)" d="M 5633.83,6732.28 L 5645.35,6750.48 L 5635.35,6756.25 L 5125.73,6462.02 L 5125.73,6450.48 L 5136.19,6444.97 L 5633.83,6732.28 Z " />
<path stroke="transparent" fill="#000000" transform="matrix(0.0833333 0 0 0.0833333 -58.25 -25.7333)" d="M 5655.35,6756.25 L 5645.35,6750.48 L 5656.86,6732.28 L 6154.96,6444.7 L 6164.96,6450.48 L 6164.96,6462.02 L 5655.35,6756.25 Z " />
<path stroke="transparent" fill="#000000" transform="matrix(0.0833333 0 0 0.0833333 -58.25 -25.7333)" d="M 5655.35,7356.25 L 5635.35,7344.7 L 5635.35,6756.25 L 5645.35,6750.48 L 5655.35,6756.25 L 5655.35,7356.25 Z " />
<path stroke="transparent" fill="#000000" transform="matrix(0.0833333 0 0 0.0833333 -58.25 -25.7333)" d="M 5077.57,7689.83 L 5177.75,7608.89 L 5635.35,7344.7 L 5655.35,7356.25 L 5077.57,7689.83 Z " />
<path stroke="transparent" fill="#000000" transform="matrix(0.0833333 0 0 0.0833333 -58.25 -25.7333)" d="M 4605.66,7362.29 L 4606.12,7350.48 L 4616.12,7344.17 L 5177.75,7608.89 L 5077.57,7689.83 L 4605.66,7362.29 Z " />
<path stroke="transparent" fill="#000000" transform="matrix(0.0833333 0 0 0.0833333 -58.25 -25.7333)" d="M 4596.12,6756.25 L 4606.12,6750.48 L 4616.12,6756.25 L 4616.12,7344.17 L 4606.12,7350.48 L 4596.12,7344.7 L 4596.12,6756.25 Z " />
<path stroke="transparent" fill="#000000" transform="matrix(0.0833333 0 0 0.0833333 -58.25 -25.7333)" d="M 4616.12,6756.25 L 4606.12,6750.48 L 4617.63,6732.28 L 5115.27,6444.97 L 5125.73,6450.48 L 5125.73,6462.02 L 4616.12,6756.25 Z " />
<path stroke="transparent" fill="#000000" transform="matrix(0.0833333 0 0 0.0833333 -58.25 -25.7333)" d="M 4086.5,6462.02 L 4086.5,6438.93 L 4594.6,6732.28 L 4606.12,6750.48 L 4596.12,6756.25 L 4086.5,6462.02 Z " />
<path stroke="transparent" fill="#000000" transform="matrix(0.0833333 0 0 0.0833333 -58.25 -25.7333)" d="M 3576.89,6756.25 L 3556.89,6744.7 L 4086.5,6438.93 L 4086.5,6462.02 L 3576.89,6756.25 Z " />
<path stroke="transparent" fill="#000000" transform="matrix(0.0833333 0 0 0.0833333 -58.25 -25.7333)" d="M 3576.89,7344.7 L 3566.89,7350.48 L 3556.89,7344.06 L 3556.89,6744.7 L 3576.89,6756.25 L 3576.89,7344.7 Z " />
<path stroke="transparent" fill="#000000" transform="matrix(0.0833333 0 0 0.0833333 -58.25 -25.7333)" d="M 4086.5,7638.93 L 4086.5,7650.48 L 4072.84,7654.14 L 3567.44,7362.34 L 3566.89,7350.48 L 3576.89,7344.7 L 4086.5,7638.93 Z " />
<path stroke="transparent" fill="#000000" transform="matrix(0.0833333 0 0 0.0833333 -58.25 -25.7333)" d="M 4100.16,7654.14 L 4086.5,7650.48 L 4086.5,7638.93 L 4596.12,7344.7 L 4606.12,7350.48 L 4605.66,7362.29 L 4100.16,7654.14 Z " />
<path stroke="transparent" fill="#000000" transform="matrix(0.0833333 0 0 0.0833333 -58.25 -25.7333)" d="M 4395.16,8165.09 L 4377.84,8175.09 L 4086.5,7670.48 L 4086.5,7650.48 L 4100.16,7654.14 L 4395.16,8165.09 Z " />
<path stroke="transparent" fill="#000000" transform="matrix(0.0833333 0 0 0.0833333 -58.25 -25.7333)" d="M 3795.16,8175.09 L 3777.84,8165.09 L 4072.84,7654.14 L 4086.5,7650.48 L 4086.5,7670.48 L 3795.16,8175.09 Z " />
<path stroke="transparent" fill="#000000" transform="matrix(0.0833333 0 0 0.0833333 -58.25 -25.7333)" d="M 3169.89,7648.96 L 3109.89,7545.04 L 3556.89,7344.06 L 3566.89,7350.48 L 3567.44,7362.34 L 3169.89,7648.96 Z " />
<path stroke="transparent" fill="#000000" transform="matrix(0.0833333 0 0 0.0833333 -58.25 -25.7333)" d="M 2569.43,7386.14 L 2579.43,7368.82 L 2597.88,7376.85 L 2585.61,7398.11 L 2569.43,7386.14 Z " />
<path stroke="transparent" fill="#000000" transform="matrix(0.0833333 0 0 0.0833333 -58.25 -25.7333)" d="M 2617.86,7421.97 L 2634.68,7392.85 L 2653.14,7400.87 L 2634.04,7433.95 L 2617.86,7421.97 Z " />
<path stroke="transparent" fill="#000000" transform="matrix(0.0833333 0 0 0.0833333 -58.25 -25.7333)" d="M 2666.3,7457.81 L 2689.93,7416.87 L 2708.39,7424.9 L 2682.48,7469.78 L 2666.3,7457.81 Z " />
<path stroke="transparent" fill="#000000" transform="matrix(0.0833333 0 0 0.0833333 -58.25 -25.7333)" d="M 2714.73,7493.65 L 2745.18,7440.9 L 2763.64,7448.93 L 2730.91,7505.62 L 2714.73,7493.65 Z " />
<path stroke="transparent" fill="#000000" transform="matrix(0.0833333 0 0 0.0833333 -58.25 -25.7333)" d="M 2763.17,7529.48 L 2800.44,7464.93 L 2818.89,7472.96 L 2779.35,7541.46 L 2763.17,7529.48 Z " />
<path stroke="transparent" fill="#000000" transform="matrix(0.0833333 0 0 0.0833333 -58.25 -25.7333)" d="M 2811.6,7565.32 L 2855.69,7488.96 L 2874.15,7496.99 L 2827.78,7577.29 L 2811.6,7565.32 Z " />
<path stroke="transparent" fill="#000000" transform="matrix(0.0833333 0 0 0.0833333 -58.25 -25.7333)" d="M 2860.04,7601.16 L 2910.94,7512.99 L 2929.4,7521.01 L 2876.22,7613.13 L 2860.04,7601.16 Z " />
<path stroke="transparent" fill="#000000" transform="matrix(0.0833333 0 0 0.0833333 -58.25 -25.7333)" d="M 2908.47,7636.99 L 2966.19,7537.01 L 2984.65,7545.04 L 2924.65,7648.96 L 2908.47,7636.99 Z " />
<path stroke="transparent" fill="#000000" transform="matrix(0.0833333 0 0 0.0833333 -58.25 -25.7333)" d="M 2517.66,6756.25 L 2527.66,6750.48 L 2537.66,6756.9 L 2537.66,7356.25 L 2517.66,7344.7 L 2517.66,6756.25 Z " />
<path stroke="transparent" fill="#000000" transform="matrix(0.0833333 0 0 0.0833333 -58.25 -25.7333)" d="M 2008.04,6462.02 L 2008.04,6438.93 L 2527.09,6738.6 L 2527.66,6750.48 L 2517.66,6756.25 L 2008.04,6462.02 Z " />
<path stroke="transparent" fill="#000000" transform="matrix(0.0833333 0 0 0.0833333 -58.25 -25.7333)" d="M 1498.42,6756.25 L 1478.42,6744.7 L 2008.04,6438.93 L 2008.04,6462.02 L 1498.42,6756.25 Z " />
<path stroke="transparent" fill="#000000" transform="matrix(0.0833333 0 0 0.0833333 -58.25 -25.7333)" d="M 1498.42,7344.7 L 1478.42,7356.25 L 1478.42,6744.7 L 1498.42,6756.25 L 1498.42,7344.7 Z " />
<path stroke="transparent" fill="#000000" transform="matrix(0.0833333 0 0 0.0833333 -58.25 -25.7333)" d="M 1920.42,7588.34 L 1910.42,7605.66 L 1478.42,7356.25 L 1498.42,7344.7 L 1920.42,7588.34 Z " />
<path stroke="transparent" fill="#000000" transform="matrix(0.0833333 0 0 0.0833333 -58.25 -25.7333)" d="M 2105.66,7605.66 L 2095.66,7588.34 L 2517.66,7344.7 L 2537.66,7356.25 L 2105.66,7605.66 Z " />
<path stroke="transparent" fill="#000000" transform="matrix(0.0833333 0 0 0.0833333 -58.25 -25.7333)" d="M 1038.84,6560.19 L 1098.84,6456.27 L 1115,6468.28 L 1057.32,6568.18 L 1038.84,6560.19 Z " />
<path stroke="transparent" fill="#000000" transform="matrix(0.0833333 0 0 0.0833333 -58.25 -25.7333)" d="M 1093.02,6583.61 L 1146.21,6491.48 L 1162.37,6503.49 L 1111.5,6591.6 L 1093.02,6583.61 Z " />
<path stroke="transparent" fill="#000000" transform="matrix(0.0833333 0 0 0.0833333 -58.25 -25.7333)" d="M 1147.21,6607.03 L 1193.58,6526.7 L 1209.74,6538.71 L 1165.69,6615.01 L 1147.21,6607.03 Z " />
<path stroke="transparent" fill="#000000" transform="matrix(0.0833333 0 0 0.0833333 -58.25 -25.7333)" d="M 1201.39,6630.44 L 1240.96,6561.91 L 1257.12,6573.92 L 1219.87,6638.43 L 1201.39,6630.44 Z " />
<path stroke="transparent" fill="#000000" transform="matrix(0.0833333 0 0 0.0833333 -58.25 -25.7333)" d="M 1255.58,6653.86 L 1288.33,6597.13 L 1304.49,6609.14 L 1274.06,6661.85 L 1255.58,6653.86 Z " />
<path stroke="transparent" fill="#000000" transform="matrix(0.0833333 0 0 0.0833333 -58.25 -25.7333)" d="M 1309.76,6677.28 L 1335.71,6632.34 L 1351.86,6644.36 L 1328.24,6685.27 L 1309.76,6677.28 Z " />
<path stroke="transparent" fill="#000000" transform="matrix(0.0833333 0 0 0.0833333 -58.25 -25.7333)" d="M 1363.94,6700.7 L 1383.08,6667.56 L 1399.24,6679.57 L 1382.43,6708.69 L 1363.94,6700.7 Z " />
<path stroke="transparent" fill="#000000" transform="matrix(0.0833333 0 0 0.0833333 -58.25 -25.7333)" d="M 1418.13,6724.12 L 1430.45,6702.78 L 1446.61,6714.79 L 1436.61,6732.11 L 1418.13,6724.12 Z " />
<path stroke="transparent" fill="#000000" transform="matrix(0.0833333 0 0 0.0833333 -58.25 -25.7333)" d="M 1948.04,5970.31 L 2068.04,5970.31 L 2065.69,5990.31 L 1950.39,5990.31 L 1948.04,5970.31 Z " />
<path stroke="transparent" fill="#000000" transform="matrix(0.0833333 0 0 0.0833333 -58.25 -25.7333)" d="M 1954.85,6028.33 L 2061.23,6028.33 L 2058.89,6048.33 L 1957.19,6048.33 L 1954.85,6028.33 Z " />
<path stroke="transparent" fill="#000000" transform="matrix(0.0833333 0 0 0.0833333 -58.25 -25.7333)" d="M 1961.66,6086.35 L 2054.42,6086.35 L 2052.08,6106.35 L 1964,6106.35 L 1961.66,6086.35 Z " />
<path stroke="transparent" fill="#000000" transform="matrix(0.0833333 0 0 0.0833333 -58.25 -25.7333)" d="M 1968.46,6144.37 L 2047.62,6144.37 L 2045.27,6164.37 L 1970.81,6164.37 L 1968.46,6144.37 Z " />
<path stroke="transparent" fill="#000000" transform="matrix(0.0833333 0 0 0.0833333 -58.25 -25.7333)" d="M 1975.27,6202.39 L 2040.81,6202.39 L 2038.46,6222.39 L 1977.62,6222.39 L 1975.27,6202.39 Z " />
<path stroke="transparent" fill="#000000" transform="matrix(0.0833333 0 0 0.0833333 -58.25 -25.7333)" d="M 1982.08,6260.41 L 2034,6260.41 L 2031.66,6280.41 L 1984.42,6280.41 L 1982.08,6260.41 Z " />
<path stroke="transparent" fill="#000000" transform="matrix(0.0833333 0 0 0.0833333 -58.25 -25.7333)" d="M 1988.89,6318.44 L 2027.19,6318.44 L 2024.85,6338.44 L 1991.23,6338.44 L 1988.89,6318.44 Z " />
<path stroke="transparent" fill="#000000" transform="matrix(0.0833333 0 0 0.0833333 -58.25 -25.7333)" d="M 1995.69,6376.46 L 2020.39,6376.46 L 2018.04,6396.46 L 1998.04,6396.46 L 1995.69,6376.46 Z " />
<path stroke="transparent" fill="#000000" transform="matrix(0.0833333 0 0 0.0833333 -58.25 -25.7333)" d="M 2917.67,6456.02 L 2977.67,6559.94 L 2537.66,6756.9 L 2527.66,6750.48 L 2527.09,6738.6 L 2917.67,6456.02 Z " />
<path stroke="transparent" fill="#000000" transform="matrix(0.0833333 0 0 0.0833333 -58.25 -25.7333)" d="M 3037.27,5904.57 L 3057.27,5904.57 L 3059.54,5924.57 L 3035,5924.57 L 3037.27,5904.57 Z " />
<path stroke="transparent" fill="#000000" transform="matrix(0.0833333 0 0 0.0833333 -58.25 -25.7333)" d="M 3030.45,5964.67 L 3064.09,5964.67 L 3066.36,5984.67 L 3028.18,5984.67 L 3030.45,5964.67 Z " />
<path stroke="transparent" fill="#000000" transform="matrix(0.0833333 0 0 0.0833333 -58.25 -25.7333)" d="M 3023.63,6024.78 L 3070.91,6024.78 L 3073.18,6044.78 L 3021.36,6044.78 L 3023.63,6024.78 Z " />
<path stroke="transparent" fill="#000000" transform="matrix(0.0833333 0 0 0.0833333 -58.25 -25.7333)" d="M 3016.81,6084.88 L 3077.73,6084.88 L 3080,6104.88 L 3014.55,6104.88 L 3016.81,6084.88 Z " />
<path stroke="transparent" fill="#000000" transform="matrix(0.0833333 0 0 0.0833333 -58.25 -25.7333)" d="M 3010,6144.99 L 3084.55,6144.99 L 3086.81,6164.99 L 3007.73,6164.99 L 3010,6144.99 Z " />
<path stroke="transparent" fill="#000000" transform="matrix(0.0833333 0 0 0.0833333 -58.25 -25.7333)" d="M 3003.18,6205.1 L 3091.36,6205.1 L 3093.63,6225.1 L 3000.91,6225.1 L 3003.18,6205.1 Z " />
<path stroke="transparent" fill="#000000" transform="matrix(0.0833333 0 0 0.0833333 -58.25 -25.7333)" d="M 2996.36,6265.2 L 3098.18,6265.2 L 3100.45,6285.2 L 2994.09,6285.2 L 2996.36,6265.2 Z " />
<path stroke="transparent" fill="#000000" transform="matrix(0.0833333 0 0 0.0833333 -58.25 -25.7333)" d="M 2989.54,6325.31 L 3105,6325.31 L 3107.27,6345.31 L 2987.27,6345.31 L 2989.54,6325.31 Z " />
<path stroke="transparent" fill="#000000" transform="matrix(0.0833333 0 0 0.0833333 -58.25 -25.7333)" d="M 3556.89,5544.7 L 3566.89,5550.48 L 3566.33,5562.34 L 3047.27,5862.02 L 3047.27,5838.93 L 3556.89,5544.7 Z " />
<path stroke="transparent" fill="#000000" transform="matrix(0.0833333 0 0 0.0833333 -58.25 -25.7333)" d="M 3556.89,4956.25 L 3566.89,4950.48 L 3576.89,4956.9 L 3576.89,5544.06 L 3566.89,5550.48 L 3556.89,5544.7 L 3556.89,4956.25 Z " />
<path stroke="transparent" fill="#000000" transform="matrix(0.0833333 0 0 0.0833333 -58.25 -25.7333)" d="M 3047.27,4662.02 L 3047.27,4638.93 L 3566.32,4938.6 L 3566.89,4950.48 L 3556.89,4956.25 L 3047.27,4662.02 Z " />
<path stroke="transparent" fill="#000000" transform="matrix(0.0833333 0 0 0.0833333 -58.25 -25.7333)" d="M 2537.66,4956.25 L 2527.66,4950.48 L 2528.11,4938.66 L 3047.27,4638.93 L 3047.27,4662.02 L 2537.66,4956.25 Z " />
<path stroke="transparent" fill="#000000" transform="matrix(0.0833333 0 0 0.0833333 -58.25 -25.7333)" d="M 2537.66,5445.31 L 2517.66,5445.31 L 2517.66,4956.78 L 2527.66,4950.48 L 2537.66,4956.25 L 2537.66,5445.31 Z " />
<path stroke="transparent" fill="#000000" transform="matrix(0.0833333 0 0 0.0833333 -58.25 -25.7333)" d="M 2622.69,5616.89 L 2632.69,5599.57 L 3047.27,5838.93 L 3047.27,5862.02 L 2622.69,5616.89 Z " />
<path stroke="transparent" fill="#000000" transform="matrix(0.0833333 0 0 0.0833333 -58.25 -25.7333)" d="M 1978.04,4702.44 L 2038.04,4598.51 L 2528.11,4938.66 L 2527.66,4950.48 L 2517.66,4956.78 L 1978.04,4702.44 Z " />
<path stroke="transparent" fill="#000000" transform="matrix(0.0833333 0 0 0.0833333 -58.25 -25.7333)" d="M 2987.27,4170.31 L 3107.27,4170.31 L 3104.92,4190.31 L 2989.62,4190.31 L 2987.27,4170.31 Z " />
<path stroke="transparent" fill="#000000" transform="matrix(0.0833333 0 0 0.0833333 -58.25 -25.7333)" d="M 2994.08,4228.33 L 3100.46,4228.33 L 3098.12,4248.33 L 2996.42,4248.33 L 2994.08,4228.33 Z " />
<path stroke="transparent" fill="#000000" transform="matrix(0.0833333 0 0 0.0833333 -58.25 -25.7333)" d="M 3000.89,4286.35 L 3093.66,4286.35 L 3091.31,4306.35 L 3003.23,4306.35 L 3000.89,4286.35 Z " />
<path stroke="transparent" fill="#000000" transform="matrix(0.0833333 0 0 0.0833333 -58.25 -25.7333)" d="M 3007.69,4344.37 L 3086.85,4344.37 L 3084.5,4364.37 L 3010.04,4364.37 L 3007.69,4344.37 Z " />
<path stroke="transparent" fill="#000000" transform="matrix(0.0833333 0 0 0.0833333 -58.25 -25.7333)" d="M 3014.5,4402.39 L 3080.04,4402.39 L 3077.69,4422.39 L 3016.85,4422.39 L 3014.5,4402.39 Z " />
<path stroke="transparent" fill="#000000" transform="matrix(0.0833333 0 0 0.0833333 -58.25 -25.7333)" d="M 3021.31,4460.41 L 3073.23,4460.41 L 3070.89,4480.41 L 3023.66,4480.41 L 3021.31,4460.41 Z " />
<path stroke="transparent" fill="#000000" transform="matrix(0.0833333 0 0 0.0833333 -58.25 -25.7333)" d="M 3028.12,4518.44 L 3066.42,4518.44 L 3064.08,4538.44 L 3030.46,4538.44 L 3028.12,4518.44 Z " />
<path stroke="transparent" fill="#000000" transform="matrix(0.0833333 0 0 0.0833333 -58.25 -25.7333)" d="M 3034.92,4576.46 L 3059.62,4576.46 L 3057.27,4596.46 L 3037.27,4596.46 L 3034.92,4576.46 Z " />
<path stroke="transparent" fill="#000000" transform="matrix(0.0833333 0 0 0.0833333 -58.25 -25.7333)" d="M 3956.9,4656.02 L 4016.9,4759.94 L 3576.89,4956.9 L 3566.89,4950.48 L 3566.32,4938.6 L 3956.9,4656.02 Z " />
<path stroke="transparent" fill="#000000" transform="matrix(0.0833333 0 0 0.0833333 -58.25 -25.7333)" d="M 4076.5,4104.57 L 4096.5,4104.57 L 4098.77,4124.57 L 4074.23,4124.57 L 4076.5,4104.57 Z " />
<path stroke="transparent" fill="#000000" transform="matrix(0.0833333 0 0 0.0833333 -58.25 -25.7333)" d="M 4069.68,4164.67 L 4103.32,4164.67 L 4105.59,4184.67 L 4067.41,4184.67 L 4069.68,4164.67 Z " />
<path stroke="transparent" fill="#000000" transform="matrix(0.0833333 0 0 0.0833333 -58.25 -25.7333)" d="M 4062.86,4224.78 L 4110.14,4224.78 L 4112.41,4244.78 L 4060.59,4244.78 L 4062.86,4224.78 Z " />
<path stroke="transparent" fill="#000000" transform="matrix(0.0833333 0 0 0.0833333 -58.25 -25.7333)" d="M 4056.04,4284.88 L 4116.96,4284.88 L 4119.23,4304.88 L 4053.78,4304.88 L 4056.04,4284.88 Z " />
<path stroke="transparent" fill="#000000" transform="matrix(0.0833333 0 0 0.0833333 -58.25 -25.7333)" d="M 4049.23,4344.99 L 4123.78,4344.99 L 4126.04,4364.99 L 4046.96,4364.99 L 4049.23,4344.99 Z " />
<path stroke="transparent" fill="#000000" transform="matrix(0.0833333 0 0 0.0833333 -58.25 -25.7333)" d="M 4042.41,4405.1 L 4130.59,4405.1 L 4132.86,4425.1 L 4040.14,4425.1 L 4042.41,4405.1 Z " />
<path stroke="transparent" fill="#000000" transform="matrix(0.0833333 0 0 0.0833333 -58.25 -25.7333)" d="M 4035.59,4465.2 L 4137.41,4465.2 L 4139.68,4485.2 L 4033.32,4485.2 L 4035.59,4465.2 Z " />
<path stroke="transparent" fill="#000000" transform="matrix(0.0833333 0 0 0.0833333 -58.25 -25.7333)" d="M 4028.77,4525.31 L 4144.23,4525.31 L 4146.5,4545.31 L 4026.5,4545.31 L 4028.77,4525.31 Z " />
<path stroke="transparent" fill="#000000" transform="matrix(0.0833333 0 0 0.0833333 -58.25 -25.7333)" d="M 4596.12,3744.7 L 4606.12,3750.48 L 4605.56,3762.34 L 4086.5,4062.02 L 4086.5,4038.93 L 4596.12,3744.7 Z " />
<path stroke="transparent" fill="#000000" transform="matrix(0.0833333 0 0 0.0833333 -58.25 -25.7333)" d="M 4596.12,3156.25 L 4606.12,3150.48 L 4616.12,3156.9 L 4616.12,3744.06 L 4606.12,3750.48 L 4596.12,3744.7 L 4596.12,3156.25 Z " />
<path stroke="transparent" fill="#000000" transform="matrix(0.0833333 0 0 0.0833333 -58.25 -25.7333)" d="M 4086.5,2862.02 L 4086.5,2850.48 L 4097.07,2845.03 L 4605.55,3138.6 L 4606.12,3150.48 L 4596.12,3156.25 L 4086.5,2862.02 Z " />
<path stroke="transparent" fill="#000000" transform="matrix(0.0833333 0 0 0.0833333 -58.25 -25.7333)" d="M 3576.89,3156.25 L 3556.89,3144.7 L 4075.93,2845.03 L 4086.5,2850.48 L 4086.5,2862.02 L 3576.89,3156.25 Z " />
<path stroke="transparent" fill="#000000" transform="matrix(0.0833333 0 0 0.0833333 -58.25 -25.7333)" d="M 3576.89,3645.31 L 3556.89,3645.31 L 3556.89,3144.7 L 3576.89,3156.25 L 3576.89,3645.31 Z " />
<path stroke="transparent" fill="#000000" transform="matrix(0.0833333 0 0 0.0833333 -58.25 -25.7333)" d="M 3661.92,3816.89 L 3671.92,3799.57 L 4086.5,4038.93 L 4086.5,4062.02 L 3661.92,3816.89 Z " />
<path stroke="transparent" fill="#000000" transform="matrix(0.0833333 0 0 0.0833333 -58.25 -25.7333)" d="M 4026.5,2370.31 L 4146.5,2370.31 L 4097.07,2845.03 L 4086.5,2850.48 L 4075.93,2845.03 L 4026.5,2370.31 Z " />
<path stroke="transparent" fill="#000000" transform="matrix(0.0833333 0 0 0.0833333 -58.25 -25.7333)" d="M 4596.12,1944.06 L 4606.12,1950.48 L 4606.67,1962.34 L 4209.12,2248.96 L 4149.12,2145.04 L 4596.12,1944.06 Z " />
<path stroke="transparent" fill="#000000" transform="matrix(0.0833333 0 0 0.0833333 -58.25 -25.7333)" d="M 4596.12,1344.7 L 4616.12,1356.25 L 4616.12,1944.7 L 4606.12,1950.48 L 4596.12,1944.06 L 4596.12,1344.7 Z " />
<path stroke="transparent" fill="#000000" transform="matrix(0.0833333 0 0 0.0833333 -58.25 -25.7333)" d="M 5115.16,1045.03 L 5125.73,1050.48 L 5125.73,1062.02 L 4616.12,1356.25 L 4596.12,1344.7 L 5115.16,1045.03 Z " />
<path stroke="transparent" fill="#000000" transform="matrix(0.0833333 0 0 0.0833333 -58.25 -25.7333)" d="M 5655.35,1344.7 L 5635.35,1356.25 L 5125.73,1062.02 L 5125.73,1050.48 L 5136.3,1045.03 L 5655.35,1344.7 Z " />
<path stroke="transparent" fill="#000000" transform="matrix(0.0833333 0 0 0.0833333 -58.25 -25.7333)" d="M 5655.35,1944.17 L 5645.35,1950.48 L 5635.35,1944.7 L 5635.35,1356.25 L 5655.35,1344.7 L 5655.35,1944.17 Z " />
<path stroke="transparent" fill="#000000" transform="matrix(0.0833333 0 0 0.0833333 -58.25 -25.7333)" d="M 5223.35,2205.66 L 5213.35,2188.34 L 5635.35,1944.7 L 5645.35,1950.48 L 5644.89,1962.29 L 5223.35,2205.66 Z " />
<path stroke="transparent" fill="#000000" transform="matrix(0.0833333 0 0 0.0833333 -58.25 -25.7333)" d="M 5038.11,2188.34 L 5028.11,2205.66 L 4606.67,1962.34 L 4606.12,1950.48 L 4616.12,1944.7 L 5038.11,2188.34 Z " />
<path stroke="transparent" fill="#000000" transform="matrix(0.0833333 0 0 0.0833333 -58.25 -25.7333)" d="M 6216.98,2208.89 L 6116.8,2289.83 L 5644.89,1962.29 L 5645.35,1950.48 L 5655.35,1944.17 L 6216.98,2208.89 Z " />
<path stroke="transparent" fill="#000000" transform="matrix(0.0833333 0 0 0.0833333 -58.25 -25.7333)" d="M 6579.97,1999.32 L 6589.97,2016.64 L 6116.8,2289.83 L 6216.98,2208.89 L 6579.97,1999.32 Z " />
<path stroke="transparent" fill="#000000" transform="matrix(0.0833333 0 0 0.0833333 -58.25 -25.7333)" d="M 6035.36,1056.02 L 6095.36,1159.94 L 6076.88,1167.93 L 6019.2,1068.03 L 6035.36,1056.02 Z " />
<path stroke="transparent" fill="#000000" transform="matrix(0.0833333 0 0 0.0833333 -58.25 -25.7333)" d="M 5987.93,1091.27 L 6041.12,1183.39 L 6022.64,1191.38 L 5971.77,1103.28 L 5987.93,1091.27 Z " />
<path stroke="transparent" fill="#000000" transform="matrix(0.0833333 0 0 0.0833333 -58.25 -25.7333)" d="M 5940.5,1126.51 L 5986.88,1206.84 L 5968.4,1214.83 L 5924.34,1138.52 L 5940.5,1126.51 Z " />
<path stroke="transparent" fill="#000000" transform="matrix(0.0833333 0 0 0.0833333 -58.25 -25.7333)" d="M 5893.08,1161.76 L 5932.64,1230.29 L 5914.16,1238.28 L 5876.92,1173.77 L 5893.08,1161.76 Z " />
<path stroke="transparent" fill="#000000" transform="matrix(0.0833333 0 0 0.0833333 -58.25 -25.7333)" d="M 5845.65,1197.01 L 5878.4,1253.74 L 5859.92,1261.73 L 5829.49,1209.02 L 5845.65,1197.01 Z " />
<path stroke="transparent" fill="#000000" transform="matrix(0.0833333 0 0 0.0833333 -58.25 -25.7333)" d="M 5798.22,1232.26 L 5824.17,1277.19 L 5805.68,1285.18 L 5782.06,1244.27 L 5798.22,1232.26 Z " />
<path stroke="transparent" fill="#000000" transform="matrix(0.0833333 0 0 0.0833333 -58.25 -25.7333)" d="M 5750.79,1267.5 L 5769.93,1300.64 L 5751.45,1308.63 L 5734.63,1279.51 L 5750.79,1267.5 Z " />
<path stroke="transparent" fill="#000000" transform="matrix(0.0833333 0 0 0.0833333 -58.25 -25.7333)" d="M 5703.37,1302.75 L 5715.69,1324.09 L 5697.21,1332.08 L 5687.21,1314.76 L 5703.37,1302.75 Z " />
<path stroke="transparent" fill="#000000" transform="matrix(0.0833333 0 0 0.0833333 -58.25 -25.7333)" d="M 5065.73,570.309 L 5185.73,570.309 L 5136.3,1045.03 L 5125.73,1050.48 L 5115.16,1045.03 L 5065.73,570.309 Z " />
<path stroke="transparent" fill="#000000" transform="matrix(0.0833333 0 0 0.0833333 -58.25 -25.7333)" d="M 4156.53,1160.19 L 4216.53,1056.27 L 4232.69,1068.28 L 4175.01,1168.18 L 4156.53,1160.19 Z " />
<path stroke="transparent" fill="#000000" transform="matrix(0.0833333 0 0 0.0833333 -58.25 -25.7333)" d="M 4210.71,1183.61 L 4263.9,1091.48 L 4280.06,1103.49 L 4229.2,1191.6 L 4210.71,1183.61 Z " />
<path stroke="transparent" fill="#000000" transform="matrix(0.0833333 0 0 0.0833333 -58.25 -25.7333)" d="M 4264.9,1207.03 L 4311.28,1126.7 L 4327.44,1138.71 L 4283.38,1215.01 L 4264.9,1207.03 Z " />
<path stroke="transparent" fill="#000000" transform="matrix(0.0833333 0 0 0.0833333 -58.25 -25.7333)" d="M 4319.08,1230.44 L 4358.65,1161.91 L 4374.81,1173.92 L 4337.56,1238.43 L 4319.08,1230.44 Z " />
<path stroke="transparent" fill="#000000" transform="matrix(0.0833333 0 0 0.0833333 -58.25 -25.7333)" d="M 4373.27,1253.86 L 4406.02,1197.13 L 4422.18,1209.14 L 4391.75,1261.85 L 4373.27,1253.86 Z " />
<path stroke="transparent" fill="#000000" transform="matrix(0.0833333 0 0 0.0833333 -58.25 -25.7333)" d="M 4427.45,1277.28 L 4453.4,1232.34 L 4469.56,1244.36 L 4445.93,1285.27 L 4427.45,1277.28 Z " />
<path stroke="transparent" fill="#000000" transform="matrix(0.0833333 0 0 0.0833333 -58.25 -25.7333)" d="M 4481.64,1300.7 L 4500.77,1267.56 L 4516.93,1279.57 L 4500.12,1308.69 L 4481.64,1300.7 Z " />
<path stroke="transparent" fill="#000000" transform="matrix(0.0833333 0 0 0.0833333 -58.25 -25.7333)" d="M 4535.82,1324.12 L 4548.14,1302.78 L 4564.3,1314.79 L 4554.3,1332.11 L 4535.82,1324.12 Z " />
<path stroke="transparent" fill="#000000" transform="matrix(0.0833333 0 0 0.0833333 -58.25 -25.7333)" d="M 4996.13,2856.02 L 5056.13,2959.94 L 4616.12,3156.9 L 4606.12,3150.48 L 4605.55,3138.6 L 4996.13,2856.02 Z " />
<path stroke="transparent" fill="#000000" transform="matrix(0.0833333 0 0 0.0833333 -58.25 -25.7333)" d="M 5063.11,3945.04 L 5003.11,4048.96 L 4605.56,3762.34 L 4606.12,3750.48 L 4616.12,3744.06 L 5063.11,3945.04 Z " />
<path stroke="transparent" fill="#000000" transform="matrix(0.0833333 0 0 0.0833333 -58.25 -25.7333)" d="M 4023.88,5745.04 L 3963.88,5848.96 L 3566.33,5562.34 L 3566.89,5550.48 L 3576.89,5544.06 L 4023.88,5745.04 Z " />
<path stroke="transparent" fill="#000000" transform="matrix(0.0833333 0 0 0.0833333 -58.25 -25.7333)" d="M 4546.12,6150.48 L 4666.12,6150.48 L 4617.63,6732.28 L 4606.12,6750.48 L 4594.6,6732.28 L 4546.12,6150.48 Z " />
<path stroke="transparent" fill="#000000" transform="matrix(0.0833333 0 0 0.0833333 -58.25 -25.7333)" d="M 5585.35,6150.48 L 5705.35,6150.48 L 5656.86,6732.28 L 5645.35,6750.48 L 5633.83,6732.28 L 5585.35,6150.48 Z " />
<path stroke="transparent" fill="#000000" transform="matrix(0.0833333 0 0 0.0833333 -58.25 -25.7333)" d="M 6684.58,5538.93 L 6684.58,5562.02 L 6174.96,5856.25 L 6164.96,5850.48 L 6164.96,5838.93 L 6684.58,5538.93 Z " />
<path stroke="transparent" fill="#000000" transform="matrix(0.0833333 0 0 0.0833333 -58.25 -25.7333)" d="M 6684.58,5562.02 L 6684.58,5538.93 L 7204.19,5838.93 L 7204.19,5850.48 L 7194.19,5856.25 L 6684.58,5562.02 Z " />
<path stroke="transparent" fill="#000000" transform="matrix(0.0833333 0 0 0.0833333 -58.25 -25.7333)" d="M 6624.58,5004.57 L 6744.58,5004.57 L 6742.54,5024.57 L 6626.61,5024.57 L 6624.58,5004.57 Z " />
<path stroke="transparent" fill="#000000" transform="matrix(0.0833333 0 0 0.0833333 -58.25 -25.7333)" d="M 6630.57,5063.54 L 6738.58,5063.54 L 6736.55,5083.54 L 6632.61,5083.54 L 6630.57,5063.54 Z " />
<path stroke="transparent" fill="#000000" transform="matrix(0.0833333 0 0 0.0833333 -58.25 -25.7333)" d="M 6636.57,5122.52 L 6732.59,5122.52 L 6730.55,5142.52 L 6638.6,5142.52 L 6636.57,5122.52 Z " />
<path stroke="transparent" fill="#000000" transform="matrix(0.0833333 0 0 0.0833333 -58.25 -25.7333)" d="M 6642.56,5181.5 L 6726.59,5181.5 L 6724.56,5201.5 L 6644.6,5201.5 L 6642.56,5181.5 Z " />
<path stroke="transparent" fill="#000000" transform="matrix(0.0833333 0 0 0.0833333 -58.25 -25.7333)" d="M 6648.56,5240.48 L 6720.59,5240.48 L 6718.56,5260.48 L 6650.59,5260.48 L 6648.56,5240.48 Z " />
<path stroke="transparent" fill="#000000" transform="matrix(0.0833333 0 0 0.0833333 -58.25 -25.7333)" d="M 6654.56,5299.45 L 6714.6,5299.45 L 6712.56,5319.45 L 6656.59,5319.45 L 6654.56,5299.45 Z " />
<path stroke="transparent" fill="#000000" transform="matrix(0.0833333 0 0 0.0833333 -58.25 -25.7333)" d="M 6660.55,5358.43 L 6708.6,5358.43 L 6706.57,5378.43 L 6662.59,5378.43 L 6660.55,5358.43 Z " />
<path stroke="transparent" fill="#000000" transform="matrix(0.0833333 0 0 0.0833333 -58.25 -25.7333)" d="M 6666.55,5417.41 L 6702.61,5417.41 L 6700.57,5437.41 L 6668.58,5437.41 L 6666.55,5417.41 Z " />
<path stroke="transparent" fill="#000000" transform="matrix(0.0833333 0 0 0.0833333 -58.25 -25.7333)" d="M 6672.54,5476.39 L 6696.61,5476.39 L 6694.58,5496.39 L 6674.58,5496.39 L 6672.54,5476.39 Z " />
<path stroke="transparent" fill="#000000" transform="matrix(0.0833333 0 0 0.0833333 -58.25 -25.7333)" d="M 7190.53,4646.82 L 7204.19,4650.48 L 7204.19,4662.02 L 6689.58,4959.14 L 6679.58,4941.82 L 7190.53,4646.82 Z " />
<path stroke="transparent" fill="#000000" transform="matrix(0.0833333 0 0 0.0833333 -58.25 -25.7333)" d="M 7733.81,4944.7 L 7713.81,4956.25 L 7204.19,4662.02 L 7204.19,4650.48 L 7217.85,4646.82 L 7733.81,4944.7 Z " />
<path stroke="transparent" fill="#000000" transform="matrix(0.0833333 0 0 0.0833333 -58.25 -25.7333)" d="M 7733.81,5556.25 L 7713.81,5544.7 L 7713.81,4956.25 L 7733.81,4944.7 L 7733.81,5556.25 Z " />
<path stroke="transparent" fill="#000000" transform="matrix(0.0833333 0 0 0.0833333 -58.25 -25.7333)" d="M 7713.81,5544.7 L 7733.81,5556.25 L 7225.71,5849.6 L 7204.19,5850.48 L 7204.19,5838.93 L 7713.81,5544.7 Z " />
<path stroke="transparent" fill="#000000" transform="matrix(0.0833333 0 0 0.0833333 -58.25 -25.7333)" d="M 6895.53,4135.86 L 6912.85,4125.86 L 7204.19,4630.48 L 7204.19,4650.48 L 7190.53,4646.82 L 6895.53,4135.86 Z " />
<path stroke="transparent" fill="#000000" transform="matrix(0.0833333 0 0 0.0833333 -58.25 -25.7333)" d="M 7495.53,4125.86 L 7512.85,4135.86 L 7217.85,4646.82 L 7204.19,4650.48 L 7204.19,4630.48 L 7495.53,4125.86 Z " />
<path stroke="transparent" fill="#000000" transform="matrix(0.0833333 0 0 0.0833333 -58.25 -25.7333)" d="M 6224.96,7050.48 L 6104.96,7050.48 L 6106.79,7030.48 L 6223.13,7030.48 L 6224.96,7050.48 Z " />
<path stroke="transparent" fill="#000000" transform="matrix(0.0833333 0 0 0.0833333 -58.25 -25.7333)" d="M 6219.61,6992.03 L 6110.31,6992.03 L 6112.15,6972.03 L 6217.78,6972.03 L 6219.61,6992.03 Z " />
<path stroke="transparent" fill="#000000" transform="matrix(0.0833333 0 0 0.0833333 -58.25 -25.7333)" d="M 6214.26,6933.59 L 6115.67,6933.59 L 6117.5,6913.59 L 6212.43,6913.59 L 6214.26,6933.59 Z " />
<path stroke="transparent" fill="#000000" transform="matrix(0.0833333 0 0 0.0833333 -58.25 -25.7333)" d="M 6208.91,6875.14 L 6121.02,6875.14 L 6122.85,6855.14 L 6207.07,6855.14 L 6208.91,6875.14 Z " />
<path stroke="transparent" fill="#000000" transform="matrix(0.0833333 0 0 0.0833333 -58.25 -25.7333)" d="M 6203.55,6816.7 L 6126.37,6816.7 L 6128.2,6796.7 L 6201.72,6796.7 L 6203.55,6816.7 Z " />
<path stroke="transparent" fill="#000000" transform="matrix(0.0833333 0 0 0.0833333 -58.25 -25.7333)" d="M 6198.2,6758.25 L 6131.72,6758.25 L 6133.55,6738.25 L 6196.37,6738.25 L 6198.2,6758.25 Z " />
<path stroke="transparent" fill="#000000" transform="matrix(0.0833333 0 0 0.0833333 -58.25 -25.7333)" d="M 6192.85,6699.81 L 6137.07,6699.81 L 6138.91,6679.81 L 6191.02,6679.81 L 6192.85,6699.81 Z " />
<path stroke="transparent" fill="#000000" transform="matrix(0.0833333 0 0 0.0833333 -58.25 -25.7333)" d="M 6187.5,6641.36 L 6142.43,6641.36 L 6144.26,6621.36 L 6185.67,6621.36 L 6187.5,6641.36 Z " />
<path stroke="transparent" fill="#000000" transform="matrix(0.0833333 0 0 0.0833333 -58.25 -25.7333)" d="M 6182.15,6582.92 L 6147.78,6582.92 L 6149.61,6562.92 L 6180.31,6562.92 L 6182.15,6582.92 Z " />
<path stroke="transparent" fill="#000000" transform="matrix(0.0833333 0 0 0.0833333 -58.25 -25.7333)" d="M 6176.79,6524.48 L 6153.13,6524.48 L 6154.96,6504.48 L 6174.96,6504.48 L 6176.79,6524.48 Z " />
<path stroke="transparent" fill="#000000" transform="matrix(0.0833333 0 0 0.0833333 -58.25 -25.7333)" d="M 8366.03,7048.97 L 8306.03,6945.05 L 8753.04,6744.06 L 8763.04,6750.48 L 8763.59,6762.34 L 8366.03,7048.97 Z " />
<path stroke="transparent" fill="#000000" transform="matrix(0.0833333 0 0 0.0833333 -58.25 -25.7333)" d="M 9342.65,7545.31 L 9222.65,7545.31 L 9224.92,7525.31 L 9340.38,7525.31 L 9342.65,7545.31 Z " />
<path stroke="transparent" fill="#000000" transform="matrix(0.0833333 0 0 0.0833333 -58.25 -25.7333)" d="M 9335.83,7485.2 L 9229.47,7485.2 L 9231.74,7465.2 L 9333.57,7465.2 L 9335.83,7485.2 Z " />
<path stroke="transparent" fill="#000000" transform="matrix(0.0833333 0 0 0.0833333 -58.25 -25.7333)" d="M 9329.02,7425.1 L 9236.29,7425.1 L 9238.56,7405.1 L 9326.75,7405.1 L 9329.02,7425.1 Z " />
<path stroke="transparent" fill="#000000" transform="matrix(0.0833333 0 0 0.0833333 -58.25 -25.7333)" d="M 9322.2,7364.99 L 9243.11,7364.99 L 9245.38,7344.99 L 9319.93,7344.99 L 9322.2,7364.99 Z " />
<path stroke="transparent" fill="#000000" transform="matrix(0.0833333 0 0 0.0833333 -58.25 -25.7333)" d="M 9315.38,7304.88 L 9249.93,7304.88 L 9252.2,7284.88 L 9313.11,7284.88 L 9315.38,7304.88 Z " />
<path stroke="transparent" fill="#000000" transform="matrix(0.0833333 0 0 0.0833333 -58.25 -25.7333)" d="M 9308.56,7244.78 L 9256.75,7244.78 L 9259.02,7224.78 L 9306.29,7224.78 L 9308.56,7244.78 Z " />
<path stroke="transparent" fill="#000000" transform="matrix(0.0833333 0 0 0.0833333 -58.25 -25.7333)" d="M 9301.74,7184.67 L 9263.57,7184.67 L 9265.83,7164.67 L 9299.47,7164.67 L 9301.74,7184.67 Z " />
<path stroke="transparent" fill="#000000" transform="matrix(0.0833333 0 0 0.0833333 -58.25 -25.7333)" d="M 9294.92,7124.57 L 9270.38,7124.57 L 9272.65,7104.57 L 9292.65,7104.57 L 9294.92,7124.57 Z " />
<path stroke="transparent" fill="#000000" transform="matrix(0.0833333 0 0 0.0833333 -58.25 -25.7333)" d="M 10259.3,6945.04 L 10199.3,7048.96 L 9801.72,6762.34 L 9802.27,6750.48 L 9812.27,6744.06 L 10259.3,6945.04 Z " />
<path stroke="transparent" fill="#000000" transform="matrix(0.0833333 0 0 0.0833333 -58.25 -25.7333)" d="M 12972,6108.89 L 12871.8,6189.83 L 12399.9,5862.29 L 12400.3,5850.48 L 12410.3,5844.17 L 12972,6108.89 Z " />
<path stroke="transparent" fill="#000000" transform="matrix(0.0833333 0 0 0.0833333 -58.25 -25.7333)" d="M 13335,5899.32 L 13345,5916.64 L 12871.8,6189.83 L 12972,6108.89 L 13335,5899.32 Z " />
<path stroke="transparent" fill="#000000" transform="matrix(0.0833333 0 0 0.0833333 -58.25 -25.7333)" d="M 13896.6,4245.04 L 13836.6,4348.96 L 13439,4062.34 L 13439.6,4050.48 L 13449.6,4044.06 L 13896.6,4245.04 Z " />
<path stroke="transparent" fill="#000000" transform="matrix(0.0833333 0 0 0.0833333 -58.25 -25.7333)" d="M 13829.6,3156.02 L 13889.6,3259.94 L 13449.6,3456.9 L 13439.6,3450.48 L 13439,3438.6 L 13829.6,3156.02 Z " />
<path stroke="transparent" fill="#000000" transform="matrix(0.0833333 0 0 0.0833333 -58.25 -25.7333)" d="M 12860,2670.31 L 12980,2670.31 L 12977.6,2690.31 L 12862.3,2690.31 L 12860,2670.31 Z " />
<path stroke="transparent" fill="#000000" transform="matrix(0.0833333 0 0 0.0833333 -58.25 -25.7333)" d="M 12866.8,2728.33 L 12973.2,2728.33 L 12970.8,2748.33 L 12869.1,2748.33 L 12866.8,2728.33 Z " />
<path stroke="transparent" fill="#000000" transform="matrix(0.0833333 0 0 0.0833333 -58.25 -25.7333)" d="M 12873.6,2786.35 L 12966.3,2786.35 L 12964,2806.35 L 12875.9,2806.35 L 12873.6,2786.35 Z " />
<path stroke="transparent" fill="#000000" transform="matrix(0.0833333 0 0 0.0833333 -58.25 -25.7333)" d="M 12880.4,2844.37 L 12959.5,2844.37 L 12957.2,2864.37 L 12882.7,2864.37 L 12880.4,2844.37 Z " />
<path stroke="transparent" fill="#000000" transform="matrix(0.0833333 0 0 0.0833333 -58.25 -25.7333)" d="M 12887.2,2902.39 L 12952.7,2902.39 L 12950.4,2922.39 L 12889.5,2922.39 L 12887.2,2902.39 Z " />
<path stroke="transparent" fill="#000000" transform="matrix(0.0833333 0 0 0.0833333 -58.25 -25.7333)" d="M 12894,2960.41 L 12945.9,2960.41 L 12943.6,2980.41 L 12896.3,2980.41 L 12894,2960.41 Z " />
<path stroke="transparent" fill="#000000" transform="matrix(0.0833333 0 0 0.0833333 -58.25 -25.7333)" d="M 12900.8,3018.44 L 12939.1,3018.44 L 12936.8,3038.44 L 12903.2,3038.44 L 12900.8,3018.44 Z " />
<path stroke="transparent" fill="#000000" transform="matrix(0.0833333 0 0 0.0833333 -58.25 -25.7333)" d="M 12907.6,3076.46 L 12932.3,3076.46 L 12930,3096.46 L 12910,3096.46 L 12907.6,3076.46 Z " />
</svg>
