<?xml version="1.0" standalone="no" ?>
<!DOCTYPE svg PUBLIC "-//W3C//DTD SVG 1.1//EN" "http://www.w3.org/Graphics/SVG/1.1/DTD/svg11.dtd">
<svg width="434px" height="297px" viewBox="0 0 434 297" style="background-color: #ffffff00" xmlns="http://www.w3.org/2000/svg" xmlns:xlink="http://www.w3.org/1999/xlink" version="1.1" >
<text x="0" y="0" stroke="transparent" fill="#000000" transform="matrix(0.0833333 0 0 0.0833333 188.601 292.968)" style="font:normal normal normal 200px 'Arial'" >
O</text>
<text x="0" y="0" stroke="transparent" fill="#000000" transform="matrix(0.0833333 0 0 0.0833333 101.995 292.968)" style="font:normal normal normal 200px 'Arial'" >
OH</text>
<text x="0" y="0" stroke="transparent" fill="#000000" transform="matrix(0.0833333 0 0 0.0833333 3.35918 142.962)" style="font:normal normal normal 200px 'Arial'" >
HO</text>
<text x="0" y="0" stroke="transparent" fill="#000000" transform="matrix(0.0833333 0 0 0.0833333 188.601 142.968)" style="font:normal normal normal 200px 'Arial'" >
O</text>
<text x="0" y="0" stroke="transparent" fill="#000000" transform="matrix(0.0833333 0 0 0.0833333 318.505 17.9622)" style="font:normal normal normal 200px 'Arial'" >
OH</text>
<text x="0" y="0" stroke="transparent" fill="#000000" transform="matrix(0.0833333 0 0 0.0833333 405.105 67.9682)" style="font:normal normal normal 200px 'Arial'" >
OH</text>
<path stroke="transparent" fill="#000000" transform="matrix(0.0833333 0 0 0.0833333 -219.25 -230)" d="M 5501.78,5303.39 L 5481.78,5291.85 L 5481.78,4703.32 L 5491.78,4697.55 L 5501.78,4703.32 L 5501.78,5303.39 Z " />
<path stroke="transparent" fill="#000000" transform="matrix(0.0833333 0 0 0.0833333 -219.25 -230)" d="M 5429.77,5256.05 L 5409.77,5256.05 L 5409.77,4739.12 L 5429.77,4739.12 L 5429.77,5256.05 Z " />
<path stroke="transparent" fill="#000000" transform="matrix(0.0833333 0 0 0.0833333 -219.25 -230)" d="M 4972.22,5609.17 L 4972.22,5586.07 L 5481.78,5291.85 L 5501.78,5303.39 L 4972.22,5609.17 Z " />
<path stroke="transparent" fill="#000000" transform="matrix(0.0833333 0 0 0.0833333 -219.25 -230)" d="M 5018.22,6092.45 L 4998.22,6092.45 L 4998.22,5576.83 L 5018.22,5576.83 L 5018.22,6092.45 Z " />
<path stroke="transparent" fill="#000000" transform="matrix(0.0833333 0 0 0.0833333 -219.25 -230)" d="M 4946.22,6092.45 L 4926.22,6092.45 L 4926.22,5576.83 L 4946.22,5576.83 L 4946.22,6092.45 Z " />
<path stroke="transparent" fill="#000000" transform="matrix(0.0833333 0 0 0.0833333 -219.25 -230)" d="M 4452.58,5309.09 L 4452.58,5297.55 L 4462.58,5291.77 L 4972.22,5586.07 L 4972.22,5609.17 L 4452.58,5309.09 Z " />
<path stroke="transparent" fill="#000000" transform="matrix(0.0833333 0 0 0.0833333 -219.25 -230)" d="M 3942.94,5603.32 L 3932.94,5597.55 L 3932.94,5586 L 4442.58,5291.77 L 4452.58,5297.55 L 4452.58,5309.09 L 3942.94,5603.32 Z " />
<path stroke="transparent" fill="#000000" transform="matrix(0.0833333 0 0 0.0833333 -219.25 -230)" d="M 3942.94,6092.45 L 3922.94,6092.45 L 3922.94,5603.32 L 3932.94,5597.55 L 3942.94,5603.32 L 3942.94,6092.45 Z " />
<path stroke="transparent" fill="#000000" transform="matrix(0.0833333 0 0 0.0833333 -219.25 -230)" d="M 3403.38,5303.32 L 3423.38,5291.77 L 3932.94,5586 L 3932.94,5597.55 L 3922.94,5603.32 L 3403.38,5303.32 Z " />
<path stroke="transparent" fill="#000000" transform="matrix(0.0833333 0 0 0.0833333 -219.25 -230)" d="M 3480.37,5264.64 L 3490.38,5247.32 L 3937.95,5505.76 L 3927.95,5523.08 L 3480.37,5264.64 Z " />
<path stroke="transparent" fill="#000000" transform="matrix(0.0833333 0 0 0.0833333 -219.25 -230)" d="M 3403.38,4703.32 L 3413.38,4697.55 L 3423.38,4703.32 L 3423.38,5291.77 L 3403.38,5303.32 L 3403.38,4703.32 Z " />
<path stroke="transparent" fill="#000000" transform="matrix(0.0833333 0 0 0.0833333 -219.25 -230)" d="M 2988.77,4463.96 L 2998.77,4446.64 L 3413.38,4686 L 3413.38,4697.55 L 3403.38,4703.32 L 2988.77,4463.96 Z " />
<path stroke="transparent" fill="#000000" transform="matrix(0.0833333 0 0 0.0833333 -219.25 -230)" d="M 3932.94,4386.07 L 3932.94,4409.17 L 3423.38,4703.32 L 3413.38,4697.55 L 3413.38,4686 L 3932.94,4386.07 Z " />
<path stroke="transparent" fill="#000000" transform="matrix(0.0833333 0 0 0.0833333 -219.25 -230)" d="M 3927.94,4472.08 L 3937.94,4489.41 L 3490.37,4747.77 L 3480.37,4730.45 L 3927.94,4472.08 Z " />
<path stroke="transparent" fill="#000000" transform="matrix(0.0833333 0 0 0.0833333 -219.25 -230)" d="M 4452.58,4686.07 L 4452.58,4697.62 L 4442.58,4703.39 L 3932.94,4409.17 L 3932.94,4386.07 L 4452.58,4686.07 Z " />
<path stroke="transparent" fill="#000000" transform="matrix(0.0833333 0 0 0.0833333 -219.25 -230)" d="M 4442.58,4703.39 L 4452.58,4697.62 L 4462.58,4703.39 L 4462.58,5291.77 L 4452.58,5297.55 L 4442.58,5291.77 L 4442.58,4703.39 Z " />
<path stroke="transparent" fill="#000000" transform="matrix(0.0833333 0 0 0.0833333 -219.25 -230)" d="M 4370.59,4739.18 L 4390.59,4739.18 L 4390.59,5255.98 L 4370.59,5255.98 L 4370.59,4739.18 Z " />
<path stroke="transparent" fill="#000000" transform="matrix(0.0833333 0 0 0.0833333 -219.25 -230)" d="M 4867.61,4446.46 L 4877.61,4463.78 L 4462.58,4703.39 L 4452.58,4697.62 L 4452.58,4686.07 L 4867.61,4446.46 Z " />
<path stroke="transparent" fill="#000000" transform="matrix(0.0833333 0 0 0.0833333 -219.25 -230)" d="M 5067.26,4464.03 L 5077.26,4446.71 L 5491.78,4686 L 5491.78,4697.55 L 5481.78,4703.32 L 5067.26,4464.03 Z " />
<path stroke="transparent" fill="#000000" transform="matrix(0.0833333 0 0 0.0833333 -219.25 -230)" d="M 6001.42,4391.85 L 6011.42,4397.62 L 6011.42,4409.17 L 5501.78,4703.32 L 5491.78,4697.55 L 5491.78,4686 L 6001.42,4391.85 Z " />
<path stroke="transparent" fill="#000000" transform="matrix(0.0833333 0 0 0.0833333 -219.25 -230)" d="M 6001.42,3791.77 L 6021.42,3803.32 L 6021.42,4391.85 L 6011.42,4397.62 L 6001.42,4391.85 L 6001.42,3791.77 Z " />
<path stroke="transparent" fill="#000000" transform="matrix(0.0833333 0 0 0.0833333 -219.25 -230)" d="M 6521.06,3491.77 L 6531.06,3497.55 L 6531.05,3509.09 L 6021.42,3803.32 L 6001.42,3791.77 L 6521.06,3491.77 Z " />
<path stroke="transparent" fill="#000000" transform="matrix(0.0833333 0 0 0.0833333 -219.25 -230)" d="M 6526.05,3572.03 L 6536.05,3589.35 L 6088.42,3847.78 L 6078.42,3830.46 L 6526.05,3572.03 Z " />
<path stroke="transparent" fill="#000000" transform="matrix(0.0833333 0 0 0.0833333 -219.25 -230)" d="M 6521.06,3017.38 L 6541.06,3017.38 L 6541.06,3491.77 L 6531.06,3497.55 L 6521.06,3491.77 L 6521.06,3017.38 Z " />
<path stroke="transparent" fill="#000000" transform="matrix(0.0833333 0 0 0.0833333 -219.25 -230)" d="M 7050.62,3786.07 L 7050.62,3797.62 L 7040.62,3803.39 L 6531.05,3509.09 L 6531.06,3497.55 L 6541.06,3491.77 L 7050.62,3786.07 Z " />
<path stroke="transparent" fill="#000000" transform="matrix(0.0833333 0 0 0.0833333 -219.25 -230)" d="M 7465.65,3546.46 L 7475.65,3563.78 L 7060.62,3803.39 L 7050.62,3797.62 L 7050.62,3786.07 L 7465.65,3546.46 Z " />
<path stroke="transparent" fill="#000000" transform="matrix(0.0833333 0 0 0.0833333 -219.25 -230)" d="M 7060.62,4403.32 L 7040.62,4391.77 L 7040.62,3803.39 L 7050.62,3797.62 L 7060.62,3803.39 L 7060.62,4403.32 Z " />
<path stroke="transparent" fill="#000000" transform="matrix(0.0833333 0 0 0.0833333 -219.25 -230)" d="M 6988.63,4355.98 L 6968.63,4355.98 L 6968.63,3839.18 L 6988.63,3839.18 L 6988.63,4355.98 Z " />
<path stroke="transparent" fill="#000000" transform="matrix(0.0833333 0 0 0.0833333 -219.25 -230)" d="M 6531.06,4709.09 L 6531.05,4686 L 7040.62,4391.77 L 7060.62,4403.32 L 6531.06,4709.09 Z " />
<path stroke="transparent" fill="#000000" transform="matrix(0.0833333 0 0 0.0833333 -219.25 -230)" d="M 6531.05,4686 L 6531.06,4709.09 L 6011.42,4409.17 L 6011.42,4397.62 L 6021.42,4391.85 L 6531.05,4686 Z " />
<path stroke="transparent" fill="#000000" transform="matrix(0.0833333 0 0 0.0833333 -219.25 -230)" d="M 6536.05,4605.75 L 6526.05,4623.07 L 6078.42,4364.71 L 6088.42,4347.38 L 6536.05,4605.75 Z " />
</svg>
