<?xml version="1.0" standalone="no" ?>
<!DOCTYPE svg PUBLIC "-//W3C//DTD SVG 1.1//EN" "http://www.w3.org/Graphics/SVG/1.1/DTD/svg11.dtd">
<svg width="378px" height="259px" viewBox="0 0 378 259" style="background-color: #ffffff00" xmlns="http://www.w3.org/2000/svg" xmlns:xlink="http://www.w3.org/1999/xlink" version="1.1" >
<text x="0" y="0" stroke="transparent" fill="#000000" transform="matrix(0.0833333 0 0 0.0833333 206.334 211.924)" style="font:normal normal normal 200px 'Arial'" >
O</text>
<text x="0" y="0" stroke="transparent" fill="#000000" transform="matrix(0.0833333 0 0 0.0833333 181.552 132.555)" style="font:normal normal normal 200px 'Arial'" >
O</text>
<text x="0" y="0" stroke="transparent" fill="#000000" transform="matrix(0.0833333 0 0 0.0833333 307.24 81.9245)" style="font:normal normal normal 200px 'Arial'" >
N</text>
<text x="0" y="0" stroke="transparent" fill="#000000" transform="matrix(0.0833333 0 0 0.0833333 319.276 75.4245)" style="font:normal normal normal 150px 'Arial'" >
+</text>
<text x="0" y="0" stroke="transparent" fill="#000000" transform="matrix(0.0833333 0 0 0.0833333 157.625 88.6517)" style="font:normal normal normal 200px 'Arial'" >
O</text>
<text x="0" y="0" stroke="transparent" fill="#000000" transform="matrix(0.0833333 0 0 0.0833333 104.358 24.8093)" style="font:normal normal normal 200px 'Arial'" >
O</text>
<text x="0" y="0" stroke="transparent" fill="#000000" transform="matrix(0.0833333 0 0 0.0833333 4.3223 90.7063)" style="font:normal normal normal 200px 'Arial'" >
HO</text>
<text x="0" y="0" stroke="transparent" fill="#000000" transform="matrix(0.0833333 0 0 0.0833333 356.74 81.9245)" style="font:normal normal normal 200px 'Arial'" >
O</text>
<text x="0" y="0" stroke="transparent" fill="#000000" transform="matrix(0.0833333 0 0 0.0833333 369.74 75.4245)" style="font:normal normal normal 150px 'Arial'" >
-</text>
<text x="0" y="0" stroke="transparent" fill="#000000" transform="matrix(0.0833333 0 0 0.0833333 41.5041 255.458)" style="font:normal normal normal 200px 'Arial'" >
HO</text>
<text x="0" y="0" stroke="transparent" fill="#000000" transform="matrix(0.0833333 0 0 0.0833333 152.977 244.852)" style="font:normal normal normal 200px 'Arial'" >
OH</text>
<path stroke="transparent" fill="#000000" transform="matrix(0.0833333 0 0 0.0833333 -246.875 -239)" d="M 3069.86,4670.28 L 3057.13,4550.96 L 3077.21,4550.66 L 3089.55,4666.34 L 3069.86,4670.28 Z " />
<path stroke="transparent" fill="#000000" transform="matrix(0.0833333 0 0 0.0833333 -246.875 -239)" d="M 3127.39,4658.76 L 3115.8,4550.08 L 3135.88,4549.78 L 3147.08,4654.82 L 3127.39,4658.76 Z " />
<path stroke="transparent" fill="#000000" transform="matrix(0.0833333 0 0 0.0833333 -246.875 -239)" d="M 3184.92,4647.24 L 3174.47,4549.21 L 3194.55,4548.91 L 3204.62,4643.3 L 3184.92,4647.24 Z " />
<path stroke="transparent" fill="#000000" transform="matrix(0.0833333 0 0 0.0833333 -246.875 -239)" d="M 3242.46,4635.72 L 3233.14,4548.33 L 3253.22,4548.03 L 3262.15,4631.78 L 3242.46,4635.72 Z " />
<path stroke="transparent" fill="#000000" transform="matrix(0.0833333 0 0 0.0833333 -246.875 -239)" d="M 3299.99,4624.2 L 3291.8,4547.46 L 3311.89,4547.16 L 3319.68,4620.26 L 3299.99,4624.2 Z " />
<path stroke="transparent" fill="#000000" transform="matrix(0.0833333 0 0 0.0833333 -246.875 -239)" d="M 3357.52,4612.69 L 3350.47,4546.58 L 3370.56,4546.28 L 3377.22,4608.74 L 3357.52,4612.69 Z " />
<path stroke="transparent" fill="#000000" transform="matrix(0.0833333 0 0 0.0833333 -246.875 -239)" d="M 3415.06,4601.17 L 3409.14,4545.7 L 3429.22,4545.4 L 3434.75,4597.22 L 3415.06,4601.17 Z " />
<path stroke="transparent" fill="#000000" transform="matrix(0.0833333 0 0 0.0833333 -246.875 -239)" d="M 3472.59,4589.65 L 3467.81,4544.83 L 3487.89,4544.53 L 3492.29,4585.7 L 3472.59,4589.65 Z " />
<path stroke="transparent" fill="#000000" transform="matrix(0.0833333 0 0 0.0833333 -246.875 -239)" d="M 3530.13,4578.13 L 3526.48,4543.95 L 3546.56,4543.65 L 3549.82,4574.18 L 3530.13,4578.13 Z " />
<path stroke="transparent" fill="#000000" transform="matrix(0.0833333 0 0 0.0833333 -246.875 -239)" d="M 3587.66,4566.61 L 3585.15,4543.08 L 3605.23,4542.78 L 3607.35,4562.66 L 3587.66,4566.61 Z " />
<path stroke="transparent" fill="#000000" transform="matrix(0.0833333 0 0 0.0833333 -246.875 -239)" d="M 3954,5065.4 L 3947.2,5073.82 L 3935.22,5072.74 L 3649.31,4548.13 L 3670.84,4545.84 L 3954,5065.4 Z " />
<path stroke="transparent" fill="#000000" transform="matrix(0.0833333 0 0 0.0833333 -246.875 -239)" d="M 4521.62,5232.58 L 4522.76,5243.35 L 4509,5249.72 L 3950.79,5085.3 L 3947.2,5073.82 L 3954,5065.4 L 4521.62,5232.58 Z " />
<path stroke="transparent" fill="#000000" transform="matrix(0.0833333 0 0 0.0833333 -246.875 -239)" d="M 5041.18,4949.42 L 5058.02,4963.02 L 4537.56,5246.67 L 4522.76,5243.35 L 4521.62,5232.58 L 5041.18,4949.42 Z " />
<path stroke="transparent" fill="#000000" transform="matrix(0.0833333 0 0 0.0833333 -246.875 -239)" d="M 5462.3,5230.22 L 5449.74,5245.78 L 5054.33,4926.62 L 5066.89,4911.06 L 5462.3,5230.22 Z " />
<path stroke="transparent" fill="#000000" transform="matrix(0.0833333 0 0 0.0833333 -246.875 -239)" d="M 5417.07,5286.25 L 5404.51,5301.81 L 5009.1,4982.65 L 5021.67,4967.09 L 5417.07,5286.25 Z " />
<path stroke="transparent" fill="#000000" transform="matrix(0.0833333 0 0 0.0833333 -246.875 -239)" d="M 5175.08,4494.81 L 5194.27,4500.46 L 5058.02,4963.02 L 5041.18,4949.42 L 5175.08,4494.81 Z " />
<path stroke="transparent" fill="#000000" transform="matrix(0.0833333 0 0 0.0833333 -246.875 -239)" d="M 5813.38,4385.28 L 5818.91,4395.42 L 5815.64,4405.34 L 5326.83,4393.31 L 5327.32,4373.32 L 5813.38,4385.28 Z " />
<path stroke="transparent" fill="#000000" transform="matrix(0.0833333 0 0 0.0833333 -246.875 -239)" d="M 6379.42,4660.35 L 6289.65,4746.54 L 5815.64,4405.34 L 5818.91,4395.42 L 5833.13,4391.32 L 6379.42,4660.35 Z " />
<path stroke="transparent" fill="#000000" transform="matrix(0.0833333 0 0 0.0833333 -246.875 -239)" d="M 6816.29,4359.14 L 6838.25,4368.29 L 6289.65,4746.54 L 6379.42,4660.35 L 6816.29,4359.14 Z " />
<path stroke="transparent" fill="#000000" transform="matrix(0.0833333 0 0 0.0833333 -246.875 -239)" d="M 6733.78,3898.88 L 6753.46,3895.35 L 6838.25,4368.29 L 6816.29,4359.14 L 6733.78,3898.88 Z " />
<path stroke="transparent" fill="#000000" transform="matrix(0.0833333 0 0 0.0833333 -246.875 -239)" d="M 6137.85,3892.36 L 6131.64,3883.35 L 6137.55,3872.07 L 6615.04,3782.8 L 6618.71,3802.46 L 6137.85,3892.36 Z " />
<path stroke="transparent" fill="#000000" transform="matrix(0.0833333 0 0 0.0833333 -246.875 -239)" d="M 6119.82,3883.52 L 6131.64,3883.35 L 6137.85,3892.36 L 5833.13,4391.32 L 5818.91,4395.42 L 5813.38,4385.28 L 6119.82,3883.52 Z " />
<path stroke="transparent" fill="#000000" transform="matrix(0.0833333 0 0 0.0833333 -246.875 -239)" d="M 5778.44,3364.89 L 5844.51,3356.51 L 5893.45,3319.33 L 6137.55,3872.07 L 6131.64,3883.35 L 6119.82,3883.52 L 5778.44,3364.89 Z " />
<path stroke="transparent" fill="#000000" transform="matrix(0.0833333 0 0 0.0833333 -246.875 -239)" d="M 6254.6,2908.51 L 6259.14,2932.81 L 5893.45,3319.33 L 5844.51,3356.51 L 5840.31,3346.4 L 6254.6,2908.51 Z " />
<path stroke="transparent" fill="#000000" transform="matrix(0.0833333 0 0 0.0833333 -246.875 -239)" d="M 6265.96,3001.27 L 6280.49,3015.01 L 5940.03,3374.86 L 5925.5,3361.12 L 6265.96,3001.27 Z " />
<path stroke="transparent" fill="#000000" transform="matrix(0.0833333 0 0 0.0833333 -246.875 -239)" d="M 6809.62,3172.2 L 6787.91,3184.03 L 6259.14,2932.81 L 6254.6,2908.51 L 6809.62,3172.2 Z " />
<path stroke="transparent" fill="#000000" transform="matrix(0.0833333 0 0 0.0833333 -246.875 -239)" d="M 6787.91,3184.03 L 6809.62,3172.2 L 6747.54,3649.49 L 6727.71,3646.91 L 6787.91,3184.03 Z " />
<path stroke="transparent" fill="#000000" transform="matrix(0.0833333 0 0 0.0833333 -246.875 -239)" d="M 5250.18,3351.89 L 5239.13,3331.61 L 5840.31,3346.4 L 5844.51,3356.51 L 5778.44,3364.89 L 5250.18,3351.89 Z " />
<path stroke="transparent" fill="#000000" transform="matrix(0.0833333 0 0 0.0833333 -246.875 -239)" d="M 4996.04,3768.13 L 4978.97,3757.71 L 5239.13,3331.61 L 5250.18,3351.89 L 4996.04,3768.13 Z " />
<path stroke="transparent" fill="#000000" transform="matrix(0.0833333 0 0 0.0833333 -246.875 -239)" d="M 4357.59,3695.06 L 4355.29,3673.53 L 4832.26,3814.02 L 4826.61,3833.2 L 4357.59,3695.06 Z " />
<path stroke="transparent" fill="#000000" transform="matrix(0.0833333 0 0 0.0833333 -246.875 -239)" d="M 4259.72,3211.3 L 4279.61,3209.18 L 4332.17,3701.88 L 4312.28,3704 L 4259.72,3211.3 Z " />
<path stroke="transparent" fill="#000000" transform="matrix(0.0833333 0 0 0.0833333 -246.875 -239)" d="M 4331.31,3203.66 L 4351.2,3201.54 L 4403.76,3694.24 L 4383.87,3696.36 L 4331.31,3203.66 Z " />
<path stroke="transparent" fill="#000000" transform="matrix(0.0833333 0 0 0.0833333 -246.875 -239)" d="M 3838.02,3978.22 L 3829.6,3971.42 L 3834.83,3957.18 L 4355.29,3673.53 L 4357.59,3695.06 L 3838.02,3978.22 Z " />
<path stroke="transparent" fill="#000000" transform="matrix(0.0833333 0 0 0.0833333 -246.875 -239)" d="M 3816.79,3979.53 L 3829.6,3971.42 L 3838.02,3978.22 L 3670.84,4545.84 L 3649.31,4548.13 L 3816.79,3979.53 Z " />
<path stroke="transparent" fill="#000000" transform="matrix(0.0833333 0 0 0.0833333 -246.875 -239)" d="M 3604.34,3415.24 L 3623,3408.04 L 3834.83,3957.18 L 3829.6,3971.42 L 3814.04,3958.86 L 3604.34,3415.24 Z " />
<path stroke="transparent" fill="#000000" transform="matrix(0.0833333 0 0 0.0833333 -246.875 -239)" d="M 3341.69,3905.04 L 3344.79,3885.28 L 3814.04,3958.86 L 3829.6,3971.42 L 3816.79,3979.53 L 3341.69,3905.04 Z " />
<path stroke="transparent" fill="#000000" transform="matrix(0.0833333 0 0 0.0833333 -246.875 -239)" d="M 7213.38,3763.09 L 7213.38,3783.09 L 6912.38,3783.09 L 6912.38,3763.09 L 7213.38,3763.09 Z " />
<path stroke="transparent" fill="#000000" transform="matrix(0.0833333 0 0 0.0833333 -246.875 -239)" d="M 4286.37,5801.19 L 4272.76,5782.53 L 4509,5249.72 L 4522.76,5243.35 L 4524.89,5263.23 L 4286.37,5801.19 Z " />
<path stroke="transparent" fill="#000000" transform="matrix(0.0833333 0 0 0.0833333 -246.875 -239)" d="M 3791.61,5853.96 L 3789.49,5834.07 L 4272.76,5782.53 L 4286.37,5801.19 L 3791.61,5853.96 Z " />
<path stroke="transparent" fill="#000000" transform="matrix(0.0833333 0 0 0.0833333 -246.875 -239)" d="M 4821.42,5636.07 L 4805.26,5647.85 L 4524.89,5263.23 L 4522.76,5243.35 L 4537.56,5246.67 L 4821.42,5636.07 Z " />
<path stroke="transparent" fill="#000000" transform="matrix(0.0833333 0 0 0.0833333 -246.875 -239)" d="M 3578.11,5547.01 L 3562.55,5534.45 L 3935.22,5072.74 L 3947.2,5073.82 L 3950.79,5085.3 L 3578.11,5547.01 Z " />
</svg>
