<?xml version="1.0" standalone="no" ?>
<!DOCTYPE svg PUBLIC "-//W3C//DTD SVG 1.1//EN" "http://www.w3.org/Graphics/SVG/1.1/DTD/svg11.dtd">
<svg width="194px" height="178px" viewBox="0 0 194 178" style="background-color: #ffffff00" xmlns="http://www.w3.org/2000/svg" xmlns:xlink="http://www.w3.org/1999/xlink" version="1.1" >
<text x="0" y="0" stroke="transparent" fill="#000000" transform="matrix(0.0666667 0 0 0.0666667 150.89 14.5718)" style="font:normal normal normal 200px 'Arial'" >
O</text>
<text x="0" y="0" stroke="transparent" fill="#000000" transform="matrix(0.0666667 0 0 0.0666667 2.69567 134.572)" style="font:normal normal normal 200px 'Arial'" >
HO</text>
<text x="0" y="0" stroke="transparent" fill="#000000" transform="matrix(0.0666667 0 0 0.0666667 81.6087 174.573)" style="font:normal normal normal 200px 'Arial'" >
OH</text>
<path stroke="transparent" fill="#000000" transform="matrix(0.0666667 0 0 0.0666667 -251.92 -256)" d="M 6120.15,4592.14 L 6120.15,4569.04 L 6644.76,4871.94 L 6634.76,4889.26 L 6120.15,4592.14 Z " />
<path stroke="transparent" fill="#000000" transform="matrix(0.0666667 0 0 0.0666667 -251.92 -256)" d="M 6074.15,4100.41 L 6094.15,4100.41 L 6094.15,4601.38 L 6074.15,4601.38 L 6074.15,4100.41 Z " />
<path stroke="transparent" fill="#000000" transform="matrix(0.0666667 0 0 0.0666667 -251.92 -256)" d="M 6146.15,4100.41 L 6166.15,4100.41 L 6166.15,4601.38 L 6146.15,4601.38 L 6146.15,4100.41 Z " />
<path stroke="transparent" fill="#000000" transform="matrix(0.0666667 0 0 0.0666667 -251.92 -256)" d="M 5610.54,4886.37 L 5600.54,4880.6 L 5600.54,4869.05 L 6120.15,4569.04 L 6120.15,4592.14 L 5610.54,4886.37 Z " />
<path stroke="transparent" fill="#000000" transform="matrix(0.0666667 0 0 0.0666667 -251.92 -256)" d="M 5080.93,4592.14 L 5080.93,4569.04 L 5600.54,4869.05 L 5600.54,4880.6 L 5590.54,4886.37 L 5080.93,4592.14 Z " />
<path stroke="transparent" fill="#000000" transform="matrix(0.0666667 0 0 0.0666667 -251.92 -256)" d="M 5075.93,4672.39 L 5085.93,4655.07 L 5533.54,4913.51 L 5523.54,4930.83 L 5075.93,4672.39 Z " />
<path stroke="transparent" fill="#000000" transform="matrix(0.0666667 0 0 0.0666667 -251.92 -256)" d="M 4571.32,4886.33 L 4551.32,4874.78 L 5080.93,4569.04 L 5080.93,4592.14 L 4571.32,4886.33 Z " />
<path stroke="transparent" fill="#000000" transform="matrix(0.0666667 0 0 0.0666667 -251.92 -256)" d="M 4571.32,5474.8 L 4561.32,5480.57 L 4551.32,5474.8 L 4551.32,4874.78 L 4571.32,4886.33 L 4571.32,5474.8 Z " />
<path stroke="transparent" fill="#000000" transform="matrix(0.0666667 0 0 0.0666667 -251.92 -256)" d="M 4643.32,5439 L 4623.32,5439 L 4623.32,4922.13 L 4643.32,4922.13 L 4643.32,5439 Z " />
<path stroke="transparent" fill="#000000" transform="matrix(0.0666667 0 0 0.0666667 -251.92 -256)" d="M 4139.28,5735.77 L 4129.28,5718.45 L 4551.32,5474.8 L 4561.32,5480.57 L 4561.32,5492.12 L 4139.28,5735.77 Z " />
<path stroke="transparent" fill="#000000" transform="matrix(0.0666667 0 0 0.0666667 -251.92 -256)" d="M 5080.93,5769.03 L 5080.93,5780.58 L 5070.93,5786.35 L 4561.32,5492.12 L 4561.32,5480.57 L 4571.32,5474.8 L 5080.93,5769.03 Z " />
<path stroke="transparent" fill="#000000" transform="matrix(0.0666667 0 0 0.0666667 -251.92 -256)" d="M 5090.93,6275.42 L 5070.93,6275.42 L 5070.93,5786.35 L 5080.93,5780.58 L 5090.93,5786.35 L 5090.93,6275.42 Z " />
<path stroke="transparent" fill="#000000" transform="matrix(0.0666667 0 0 0.0666667 -251.92 -256)" d="M 5590.54,5474.8 L 5610.54,5486.34 L 5090.93,5786.35 L 5080.93,5780.58 L 5080.93,5769.03 L 5590.54,5474.8 Z " />
<path stroke="transparent" fill="#000000" transform="matrix(0.0666667 0 0 0.0666667 -251.92 -256)" d="M 5523.54,5430.34 L 5533.54,5447.66 L 5085.93,5706.1 L 5075.93,5688.78 L 5523.54,5430.34 Z " />
<path stroke="transparent" fill="#000000" transform="matrix(0.0666667 0 0 0.0666667 -251.92 -256)" d="M 5610.54,5486.34 L 5590.54,5474.8 L 5590.54,4886.37 L 5600.54,4880.6 L 5610.54,4886.37 L 5610.54,5486.34 Z " />
</svg>
