<?xml version="1.0" standalone="no" ?>
<!DOCTYPE svg PUBLIC "-//W3C//DTD SVG 1.1//EN" "http://www.w3.org/Graphics/SVG/1.1/DTD/svg11.dtd">
<svg width="187px" height="268px" viewBox="0 0 187 268" style="background-color: #ffffff00" xmlns="http://www.w3.org/2000/svg" xmlns:xlink="http://www.w3.org/1999/xlink" version="1.1" >
<text x="0" y="0" stroke="transparent" fill="#000000" transform="matrix(0.0666667 0 0 0.0666667 154.886 253.222)" style="font:normal normal normal 200px 'Arial'" >
N</text>
<text x="0" y="0" stroke="transparent" fill="#000000" transform="matrix(0.0666667 0 0 0.0666667 154.886 264.345)" style="font:normal normal normal 200px 'Arial'" >
H</text>
<text x="0" y="0" stroke="transparent" fill="#000000" transform="matrix(0.0666667 0 0 0.0666667 2.89036 180.857)" style="font:normal normal normal 200px 'Arial'" >
HO</text>
<text x="0" y="0" stroke="transparent" fill="#000000" transform="matrix(0.0666667 0 0 0.0666667 152.826 82.6946)" style="font:normal normal normal 200px 'Arial'" >
NH</text>
<text x="0" y="0" stroke="transparent" fill="#000000" transform="matrix(0.0666667 0 0 0.0666667 138.014 14.9331)" style="font:normal normal normal 200px 'Arial'" >
O</text>
<path stroke="transparent" fill="#000000" transform="matrix(0.0666667 0 0 0.0666667 -255.425 -179)" d="M 4606.78,6225.71 L 4626.78,6214.16 L 5136.33,6508.39 L 5136.33,6531.49 L 4606.78,6225.71 Z " />
<path stroke="transparent" fill="#000000" transform="matrix(0.0666667 0 0 0.0666667 -255.425 -179)" d="M 4683.77,6187.03 L 4693.77,6169.71 L 5141.34,6428.15 L 5131.34,6445.47 L 4683.77,6187.03 Z " />
<path stroke="transparent" fill="#000000" transform="matrix(0.0666667 0 0 0.0666667 -255.425 -179)" d="M 6218.74,5426.58 L 6226.68,5434.51 L 6222.86,5446.27 L 5666.06,5627.13 L 5656.06,5619.86 L 5657.21,5608.97 L 6218.74,5426.58 Z " />
<path stroke="transparent" fill="#000000" transform="matrix(0.0666667 0 0 0.0666667 -255.425 -179)" d="M 5136.33,6531.49 L 5136.33,6508.39 L 5646.06,6214.16 L 5656.06,6219.93 L 5657.21,6230.82 L 5136.33,6531.49 Z " />
<path stroke="transparent" fill="#000000" transform="matrix(0.0666667 0 0 0.0666667 -255.425 -179)" d="M 5666.06,6212.67 L 5656.06,6219.93 L 5646.06,6214.16 L 5646.06,5625.63 L 5656.06,5619.86 L 5666.06,5627.13 L 5666.06,6212.67 Z " />
<path stroke="transparent" fill="#000000" transform="matrix(0.0666667 0 0 0.0666667 -255.425 -179)" d="M 5594.06,6178.35 L 5574.06,6178.35 L 5574.06,5661.44 L 5594.06,5661.44 L 5594.06,6178.35 Z " />
<path stroke="transparent" fill="#000000" transform="matrix(0.0666667 0 0 0.0666667 -255.425 -179)" d="M 6122.61,6361.01 L 6116.43,6380.03 L 5657.21,6230.82 L 5656.06,6219.93 L 5666.06,6212.67 L 6122.61,6361.01 Z " />
<path stroke="transparent" fill="#000000" transform="matrix(0.0666667 0 0 0.0666667 -255.425 -179)" d="M 5136.33,5331.4 L 5136.33,5308.31 L 5657.21,5608.97 L 5656.06,5619.86 L 5646.06,5625.63 L 5136.33,5331.4 Z " />
<path stroke="transparent" fill="#000000" transform="matrix(0.0666667 0 0 0.0666667 -255.425 -179)" d="M 4626.78,5625.63 L 4616.78,5619.86 L 4616.78,5608.31 L 5136.33,5308.31 L 5136.33,5331.4 L 4626.78,5625.63 Z " />
<path stroke="transparent" fill="#000000" transform="matrix(0.0666667 0 0 0.0666667 -255.425 -179)" d="M 4693.77,5670.08 L 4683.77,5652.76 L 5131.34,5394.32 L 5141.34,5411.64 L 4693.77,5670.08 Z " />
<path stroke="transparent" fill="#000000" transform="matrix(0.0666667 0 0 0.0666667 -255.425 -179)" d="M 4626.78,6214.16 L 4606.78,6225.71 L 4606.78,5625.63 L 4616.78,5619.86 L 4626.78,5625.63 L 4626.78,6214.16 Z " />
<path stroke="transparent" fill="#000000" transform="matrix(0.0666667 0 0 0.0666667 -255.425 -179)" d="M 4192.2,5386.27 L 4202.2,5368.94 L 4616.78,5608.31 L 4616.78,5619.86 L 4606.78,5625.63 L 4192.2,5386.27 Z " />
<path stroke="transparent" fill="#000000" transform="matrix(0.0666667 0 0 0.0666667 -255.425 -179)" d="M 6591.66,5919.99 L 6566.94,5919.99 L 6222.86,5446.27 L 6226.68,5434.51 L 6237.76,5432.76 L 6591.66,5919.99 Z " />
<path stroke="transparent" fill="#000000" transform="matrix(0.0666667 0 0 0.0666667 -255.425 -179)" d="M 6498.4,5914.1 L 6482.22,5925.86 L 6191.07,5525.03 L 6207.26,5513.28 L 6498.4,5914.1 Z " />
<path stroke="transparent" fill="#000000" transform="matrix(0.0666667 0 0 0.0666667 -255.425 -179)" d="M 6400.73,4866.3 L 6423.32,4861.5 L 6237.76,5432.76 L 6226.68,5434.51 L 6218.74,5426.58 L 6400.73,4866.3 Z " />
<path stroke="transparent" fill="#000000" transform="matrix(0.0666667 0 0 0.0666667 -255.425 -179)" d="M 6566.94,5919.99 L 6591.66,5919.99 L 6307.5,6311.1 L 6291.32,6299.34 L 6566.94,5919.99 Z " />
<path stroke="transparent" fill="#000000" transform="matrix(0.0666667 0 0 0.0666667 -255.425 -179)" d="M 5999.08,4420.43 L 6021.67,4415.63 L 6423.32,4861.5 L 6400.73,4866.3 L 5999.08,4420.43 Z " />
<path stroke="transparent" fill="#000000" transform="matrix(0.0666667 0 0 0.0666667 -255.425 -179)" d="M 6145.88,3968.63 L 6164.9,3974.81 L 6021.67,4415.63 L 5999.08,4420.43 L 6145.88,3968.63 Z " />
<path stroke="transparent" fill="#000000" transform="matrix(0.0666667 0 0 0.0666667 -255.425 -179)" d="M 5790.62,3412.53 L 5797.75,3390.57 L 6120.11,3748.47 L 6105.25,3761.85 L 5790.62,3412.53 Z " />
<path stroke="transparent" fill="#000000" transform="matrix(0.0666667 0 0 0.0666667 -255.425 -179)" d="M 5209.33,3536.13 L 5205.17,3516.57 L 5797.75,3390.57 L 5790.62,3412.53 L 5209.33,3536.13 Z " />
<path stroke="transparent" fill="#000000" transform="matrix(0.0666667 0 0 0.0666667 -255.425 -179)" d="M 5898.21,2932.62 L 5917.23,2938.8 L 5763.04,3413.28 L 5744.02,3407.1 L 5898.21,2932.62 Z " />
<path stroke="transparent" fill="#000000" transform="matrix(0.0666667 0 0 0.0666667 -255.425 -179)" d="M 5966.67,2954.87 L 5985.69,2961.05 L 5831.51,3435.52 L 5812.49,3429.34 L 5966.67,2954.87 Z " />
</svg>
