<?xml version="1.0" standalone="no" ?>
<!DOCTYPE svg PUBLIC "-//W3C//DTD SVG 1.1//EN" "http://www.w3.org/Graphics/SVG/1.1/DTD/svg11.dtd">
<svg width="373px" height="171px" viewBox="0 0 373 171" style="background-color: #ffffff00" xmlns="http://www.w3.org/2000/svg" xmlns:xlink="http://www.w3.org/1999/xlink" version="1.1" >
<path stroke="transparent" fill="#000000" transform="matrix(0.0833333 0 0 0.0833333 -249.5 -267)" d="M 3662.06,5090.76 L 3652.06,5073.44 L 4074.06,4829.79 L 4084.06,4835.57 L 4084.06,4847.11 L 3662.06,5090.76 Z " />
<path stroke="transparent" fill="#000000" transform="matrix(0.0833333 0 0 0.0833333 -249.5 -267)" d="M 4094.06,4829.79 L 4084.06,4835.57 L 4074.06,4829.79 L 4074.06,4241.39 L 4084.06,4235.61 L 4094.06,4241.39 L 4094.06,4829.79 Z " />
<path stroke="transparent" fill="#000000" transform="matrix(0.0833333 0 0 0.0833333 -249.5 -267)" d="M 4084.06,4847.11 L 4084.06,4835.57 L 4094.06,4829.79 L 4603.67,5124.03 L 4603.67,5147.12 L 4084.06,4847.11 Z " />
<path stroke="transparent" fill="#000000" transform="matrix(0.0833333 0 0 0.0833333 -249.5 -267)" d="M 4151.06,4802.66 L 4161.06,4785.34 L 4608.67,5043.77 L 4598.67,5061.09 L 4151.06,4802.66 Z " />
<path stroke="transparent" fill="#000000" transform="matrix(0.0833333 0 0 0.0833333 -249.5 -267)" d="M 4603.67,5147.12 L 4603.67,5124.03 L 5113.28,4829.79 L 5133.28,4841.34 L 4603.67,5147.12 Z " />
<path stroke="transparent" fill="#000000" transform="matrix(0.0833333 0 0 0.0833333 -249.5 -267)" d="M 5133.28,4841.34 L 5113.28,4829.79 L 5113.28,4241.39 L 5123.28,4235.61 L 5133.28,4241.39 L 5133.28,4841.34 Z " />
<path stroke="transparent" fill="#000000" transform="matrix(0.0833333 0 0 0.0833333 -249.5 -267)" d="M 5061.29,4794 L 5041.29,4794 L 5041.29,4277.18 L 5061.29,4277.18 L 5061.29,4794 Z " />
<path stroke="transparent" fill="#000000" transform="matrix(0.0833333 0 0 0.0833333 -249.5 -267)" d="M 7114.17,4173.48 L 7104.17,4190.8 L 6682.18,3947.15 L 6682.18,3924.06 L 7114.17,4173.48 Z " />
<path stroke="transparent" fill="#000000" transform="matrix(0.0833333 0 0 0.0833333 -249.5 -267)" d="M 6636.18,3455.43 L 6656.18,3455.43 L 6656.18,3956.39 L 6636.18,3956.39 L 6636.18,3455.43 Z " />
<path stroke="transparent" fill="#000000" transform="matrix(0.0833333 0 0 0.0833333 -249.5 -267)" d="M 6708.18,3455.43 L 6728.18,3455.43 L 6728.18,3956.39 L 6708.18,3956.39 L 6708.18,3455.43 Z " />
<path stroke="transparent" fill="#000000" transform="matrix(0.0833333 0 0 0.0833333 -249.5 -267)" d="M 6682.18,3924.06 L 6682.18,3947.15 L 6162.57,4247.16 L 6162.57,4224.07 L 6682.18,3924.06 Z " />
<path stroke="transparent" fill="#000000" transform="matrix(0.0833333 0 0 0.0833333 -249.5 -267)" d="M 6162.57,4224.07 L 6162.57,4247.16 L 5642.95,3947.15 L 5642.95,3924.06 L 6162.57,4224.07 Z " />
<path stroke="transparent" fill="#000000" transform="matrix(0.0833333 0 0 0.0833333 -249.5 -267)" d="M 6167.57,4143.81 L 6157.57,4161.13 L 5673.96,3881.91 L 5683.96,3864.59 L 6167.57,4143.81 Z " />
<path stroke="transparent" fill="#000000" transform="matrix(0.0833333 0 0 0.0833333 -249.5 -267)" d="M 5642.95,3924.06 L 5642.95,3947.15 L 5133.28,4241.39 L 5123.28,4235.61 L 5123.28,4224.07 L 5642.95,3924.06 Z " />
<path stroke="transparent" fill="#000000" transform="matrix(0.0833333 0 0 0.0833333 -249.5 -267)" d="M 5123.28,4224.07 L 5123.28,4235.61 L 5113.28,4241.39 L 4603.67,3947.15 L 4603.67,3924.06 L 5123.28,4224.07 Z " />
<path stroke="transparent" fill="#000000" transform="matrix(0.0833333 0 0 0.0833333 -249.5 -267)" d="M 4603.67,3924.06 L 4603.67,3947.15 L 4094.06,4241.39 L 4084.06,4235.61 L 4084.06,4224.07 L 4603.67,3924.06 Z " />
<path stroke="transparent" fill="#000000" transform="matrix(0.0833333 0 0 0.0833333 -249.5 -267)" d="M 4598.67,4010.09 L 4608.67,4027.41 L 4161.06,4285.84 L 4151.06,4268.52 L 4598.67,4010.09 Z " />
<path stroke="transparent" fill="#000000" transform="matrix(0.0833333 0 0 0.0833333 -249.5 -267)" d="M 4084.06,4224.07 L 4084.06,4235.61 L 4074.06,4241.39 L 3659.48,4002.02 L 3669.49,3984.7 L 4084.06,4224.07 Z " />
<path stroke="transparent" fill="#000000" transform="matrix(0.0833333 0 0 0.0833333 -249.5 -267)" d="M 3459.84,3984.45 L 3469.84,4001.77 L 3049.78,4244.27 L 3039.78,4226.95 L 3459.84,3984.45 Z " />
<text x="0" y="0" stroke="transparent" fill="#000000" transform="matrix(0.0833333 0 0 0.0833333 29.0013 167.464)" style="font:normal normal normal 200px 'Arial'" >
HO</text>
<text x="0" y="0" stroke="transparent" fill="#000000" transform="matrix(0.0833333 0 0 0.0833333 344.149 92.4678)" style="font:normal normal normal 200px 'Arial'" >
OH</text>
<text x="0" y="0" stroke="transparent" fill="#000000" transform="matrix(0.0833333 0 0 0.0833333 300.848 17.4661)" style="font:normal normal normal 200px 'Arial'" >
O</text>
<text x="0" y="0" stroke="transparent" fill="#000000" transform="matrix(0.0833333 0 0 0.0833333 41.0374 67.4672)" style="font:normal normal normal 200px 'Arial'" >
O</text>
</svg>
