<?xml version="1.0" standalone="no" ?>
<!DOCTYPE svg PUBLIC "-//W3C//DTD SVG 1.1//EN" "http://www.w3.org/Graphics/SVG/1.1/DTD/svg11.dtd">
<svg width="421px" height="331px" viewBox="0 0 421 331" style="background-color: #ffffff00" xmlns="http://www.w3.org/2000/svg" xmlns:xlink="http://www.w3.org/1999/xlink" version="1.1" >
<text x="0" y="0" stroke="transparent" fill="#000000" transform="matrix(0.0833333 0 0 0.0833333 220.959 234.487)" style="font:normal normal normal 200px 'Arial'" >
N</text>
<text x="0" y="0" stroke="transparent" fill="#000000" transform="matrix(0.0833333 0 0 0.0833333 232.996 227.987)" style="font:normal normal normal 150px 'Arial'" >
+</text>
<text x="0" y="0" stroke="transparent" fill="#000000" transform="matrix(0.0833333 0 0 0.0833333 306.492 35.4273)" style="font:normal normal normal 200px 'Arial'" >
O</text>
<text x="0" y="0" stroke="transparent" fill="#000000" transform="matrix(0.0833333 0 0 0.0833333 392.518 84.0709)" style="font:normal normal normal 200px 'Arial'" >
OH</text>
<text x="0" y="0" stroke="transparent" fill="#000000" transform="matrix(0.0833333 0 0 0.0833333 90.123 308.573)" style="font:normal normal normal 200px 'Arial'" >
O</text>
<text x="0" y="0" stroke="transparent" fill="#000000" transform="matrix(0.0833333 0 0 0.0833333 3.39968 259.239)" style="font:normal normal normal 200px 'Arial'" >
O</text>
<path stroke="transparent" fill="#000000" transform="matrix(0.0833333 0 0 0.0833333 -244.208 -194)" d="M 6165.24,4169.12 L 6175.34,4174.87 L 6175.33,4186.39 L 5664.01,4477.71 L 5654.01,4471.9 L 5654.01,4460.39 L 6165.24,4169.12 Z " />
<path stroke="transparent" fill="#000000" transform="matrix(0.0833333 0 0 0.0833333 -244.208 -194)" d="M 5664.01,4937.17 L 5644.01,4937.17 L 5644.01,4477.71 L 5654.01,4471.9 L 5664.01,4477.71 L 5664.01,4937.17 Z " />
<path stroke="transparent" fill="#000000" transform="matrix(0.0833333 0 0 0.0833333 -244.208 -194)" d="M 5132.62,4186.38 L 5132.62,4163.36 L 5654.01,4460.39 L 5654.01,4471.9 L 5644.01,4477.71 L 5132.62,4186.38 Z " />
<path stroke="transparent" fill="#000000" transform="matrix(0.0833333 0 0 0.0833333 -244.208 -194)" d="M 5127.67,4266.44 L 5137.57,4249.06 L 5586.96,4505.06 L 5577.06,4522.44 L 5127.67,4266.44 Z " />
<path stroke="transparent" fill="#000000" transform="matrix(0.0833333 0 0 0.0833333 -244.208 -194)" d="M 6694.66,4460.36 L 6694.69,4471.9 L 6684.69,4477.7 L 6175.33,4186.39 L 6175.34,4174.87 L 6185.24,4169.02 L 6694.66,4460.36 Z " />
<path stroke="transparent" fill="#000000" transform="matrix(0.0833333 0 0 0.0833333 -244.208 -194)" d="M 6699.44,4380.39 L 6689.51,4397.75 L 6241.45,4141.5 L 6251.38,4124.14 L 6699.44,4380.39 Z " />
<path stroke="transparent" fill="#000000" transform="matrix(0.0833333 0 0 0.0833333 -244.208 -194)" d="M 6154.84,3566.86 L 6175.03,3578.21 L 6185.24,4169.02 L 6175.34,4174.87 L 6165.24,4169.12 L 6154.84,3566.86 Z " />
<path stroke="transparent" fill="#000000" transform="matrix(0.0833333 0 0 0.0833333 -244.208 -194)" d="M 5132.62,5372.37 L 5132.62,5349.36 L 5538.77,5117.98 L 5548.67,5135.36 L 5132.62,5372.37 Z " />
<path stroke="transparent" fill="#000000" transform="matrix(0.0833333 0 0 0.0833333 -244.208 -194)" d="M 5137.57,5286.68 L 5127.67,5269.3 L 5503.13,5055.42 L 5513.02,5072.79 L 5137.57,5286.68 Z " />
<path stroke="transparent" fill="#000000" transform="matrix(0.0833333 0 0 0.0833333 -244.208 -194)" d="M 6175.33,5349.35 L 6175.35,5372.38 L 5759.36,5135.37 L 5769.26,5117.99 L 6175.33,5349.35 Z " />
<path stroke="transparent" fill="#000000" transform="matrix(0.0833333 0 0 0.0833333 -244.208 -194)" d="M 4621.3,4477.71 L 4611.3,4471.9 L 4611.3,4460.39 L 5132.62,4163.36 L 5132.62,4186.38 L 4621.3,4477.71 Z " />
<path stroke="transparent" fill="#000000" transform="matrix(0.0833333 0 0 0.0833333 -244.208 -194)" d="M 6704.69,5069.64 L 6684.69,5058.04 L 6684.69,4477.7 L 6694.69,4471.9 L 6704.69,4477.66 L 6704.69,5069.64 Z " />
<path stroke="transparent" fill="#000000" transform="matrix(0.0833333 0 0 0.0833333 -244.208 -194)" d="M 7197.72,4169.11 L 7217.72,4180.64 L 6704.69,4477.66 L 6694.69,4471.9 L 6694.66,4460.36 L 7197.72,4169.11 Z " />
<path stroke="transparent" fill="#000000" transform="matrix(0.0833333 0 0 0.0833333 -244.208 -194)" d="M 6676.4,3261.41 L 6686.4,3267.14 L 6686.47,3278.69 L 6175.03,3578.21 L 6154.84,3566.86 L 6676.4,3261.41 Z " />
<path stroke="transparent" fill="#000000" transform="matrix(0.0833333 0 0 0.0833333 -244.208 -194)" d="M 6681.85,3342.26 L 6691.95,3359.52 L 6243.23,3622.31 L 6233.12,3605.05 L 6681.85,3342.26 Z " />
<path stroke="transparent" fill="#000000" transform="matrix(0.0833333 0 0 0.0833333 -244.208 -194)" d="M 4611.3,5075.35 L 4611.3,5063.84 L 4621.3,5058.03 L 5132.62,5349.36 L 5132.62,5372.37 L 4611.3,5075.35 Z " />
<path stroke="transparent" fill="#000000" transform="matrix(0.0833333 0 0 0.0833333 -244.208 -194)" d="M 6684.69,5058.04 L 6704.69,5069.64 L 6175.35,5372.38 L 6175.33,5349.35 L 6684.69,5058.04 Z " />
<path stroke="transparent" fill="#000000" transform="matrix(0.0833333 0 0 0.0833333 -244.208 -194)" d="M 4089.99,4186.39 L 4089.97,4163.36 L 4611.3,4460.39 L 4611.3,4471.9 L 4601.3,4477.71 L 4089.99,4186.39 Z " />
<path stroke="transparent" fill="#000000" transform="matrix(0.0833333 0 0 0.0833333 -244.208 -194)" d="M 4621.3,5058.03 L 4611.3,5063.84 L 4601.3,5058.03 L 4601.3,4477.71 L 4611.3,4471.9 L 4621.3,4477.71 L 4621.3,5058.03 Z " />
<path stroke="transparent" fill="#000000" transform="matrix(0.0833333 0 0 0.0833333 -244.208 -194)" d="M 4550.27,5022.56 L 4530.27,5022.56 L 4530.27,4513.18 L 4550.27,4513.18 L 4550.27,5022.56 Z " />
<path stroke="transparent" fill="#000000" transform="matrix(0.0833333 0 0 0.0833333 -244.208 -194)" d="M 7197.72,3569.98 L 7207.72,3564.17 L 7217.72,3569.84 L 7217.72,4180.64 L 7197.72,4169.11 L 7197.72,3569.98 Z " />
<path stroke="transparent" fill="#000000" transform="matrix(0.0833333 0 0 0.0833333 -244.208 -194)" d="M 7124.44,3606.76 L 7144.44,3606.76 L 7144.44,4132.62 L 7124.44,4132.62 L 7124.44,3606.76 Z " />
<path stroke="transparent" fill="#000000" transform="matrix(0.0833333 0 0 0.0833333 -244.208 -194)" d="M 6676.4,2794.96 L 6696.4,2794.96 L 6696.4,3261.33 L 6686.4,3267.14 L 6676.4,3261.41 L 6676.4,2794.96 Z " />
<path stroke="transparent" fill="#000000" transform="matrix(0.0833333 0 0 0.0833333 -244.208 -194)" d="M 7207.6,3552.59 L 7207.72,3564.17 L 7197.72,3569.98 L 6686.47,3278.69 L 6686.4,3267.14 L 6696.4,3261.33 L 7207.6,3552.59 Z " />
<path stroke="transparent" fill="#000000" transform="matrix(0.0833333 0 0 0.0833333 -244.208 -194)" d="M 4099.98,5366.68 L 4089.98,5360.87 L 4089.99,5349.35 L 4601.3,5058.03 L 4611.3,5063.84 L 4611.3,5075.35 L 4099.98,5366.68 Z " />
<path stroke="transparent" fill="#000000" transform="matrix(0.0833333 0 0 0.0833333 -244.208 -194)" d="M 3580.62,4477.7 L 3560.62,4466.1 L 4089.97,4163.36 L 4089.99,4186.39 L 3580.62,4477.7 Z " />
<path stroke="transparent" fill="#000000" transform="matrix(0.0833333 0 0 0.0833333 -244.208 -194)" d="M 3647.38,4522.23 L 3637.45,4504.87 L 4085.08,4248.86 L 4095.01,4266.22 L 3647.38,4522.23 Z " />
<path stroke="transparent" fill="#000000" transform="matrix(0.0833333 0 0 0.0833333 -244.208 -194)" d="M 7614.71,3309.35 L 7624.97,3326.51 L 7217.72,3569.84 L 7207.72,3564.17 L 7207.6,3552.59 L 7614.71,3309.35 Z " />
<path stroke="transparent" fill="#000000" transform="matrix(0.0833333 0 0 0.0833333 -244.208 -194)" d="M 7202.77,2369.41 L 7212.67,2386.79 L 6784.26,2630.88 L 6774.36,2613.5 L 7202.77,2369.41 Z " />
<path stroke="transparent" fill="#000000" transform="matrix(0.0833333 0 0 0.0833333 -244.208 -194)" d="M 3570.61,5075.35 L 3570.62,5063.84 L 3580.62,5058.04 L 4089.99,5349.35 L 4089.98,5360.87 L 4079.98,5366.67 L 3570.61,5075.35 Z " />
<path stroke="transparent" fill="#000000" transform="matrix(0.0833333 0 0 0.0833333 -244.208 -194)" d="M 3637.45,5030.87 L 3647.38,5013.51 L 4095.01,5269.52 L 4085.08,5286.88 L 3637.45,5030.87 Z " />
<path stroke="transparent" fill="#000000" transform="matrix(0.0833333 0 0 0.0833333 -244.208 -194)" d="M 4099.98,5847.71 L 4079.98,5847.71 L 4079.98,5366.67 L 4089.98,5360.87 L 4099.98,5366.68 L 4099.98,5847.71 Z " />
<path stroke="transparent" fill="#000000" transform="matrix(0.0833333 0 0 0.0833333 -244.208 -194)" d="M 3580.62,5058.04 L 3570.62,5063.84 L 3560.62,5058.03 L 3560.62,4466.1 L 3580.62,4477.7 L 3580.62,5058.04 Z " />
<path stroke="transparent" fill="#000000" transform="matrix(0.0833333 0 0 0.0833333 -244.208 -194)" d="M 3147.16,5316.62 L 3137.26,5299.24 L 3560.62,5058.03 L 3570.62,5063.84 L 3570.61,5075.35 L 3147.16,5316.62 Z " />
<path stroke="transparent" fill="#000000" transform="matrix(0.0833333 0 0 0.0833333 -244.208 -194)" d="M 3575.58,6258.59 L 3565.65,6241.22 L 3985.22,6001.27 L 3995.15,6018.63 L 3575.58,6258.59 Z " />
<path stroke="transparent" fill="#000000" transform="matrix(0.0833333 0 0 0.0833333 -244.208 -194)" d="M 3059.3,5960.87 L 3039.3,5960.87 L 3039.3,5480.7 L 3059.3,5480.7 L 3059.3,5960.87 Z " />
</svg>
