<?xml version="1.0" standalone="no" ?>
<!DOCTYPE svg PUBLIC "-//W3C//DTD SVG 1.1//EN" "http://www.w3.org/Graphics/SVG/1.1/DTD/svg11.dtd">
<svg width="552px" height="526px" viewBox="0 0 552 526" style="background-color: #ffffff00" xmlns="http://www.w3.org/2000/svg" xmlns:xlink="http://www.w3.org/1999/xlink" version="1.1" >
<text x="0" y="0" stroke="transparent" fill="#000000" transform="matrix(0.0833333 0 0 0.0833333 362.565 458.546)" style="font:normal normal normal 200px 'Arial'" >
N</text>
<text x="0" y="0" stroke="transparent" fill="#000000" transform="matrix(0.0833333 0 0 0.0833333 382.198 345.027)" style="font:normal normal normal 200px 'Arial'" >
O</text>
<text x="0" y="0" stroke="transparent" fill="#000000" transform="matrix(0.0833333 0 0 0.0833333 460.368 314.643)" style="font:normal normal normal 200px 'Arial'" >
O</text>
<text x="0" y="0" stroke="transparent" fill="#000000" transform="matrix(0.0833333 0 0 0.0833333 311.054 218.272)" style="font:normal normal normal 200px 'Arial'" >
O</text>
<text x="0" y="0" stroke="transparent" fill="#000000" transform="matrix(0.0833333 0 0 0.0833333 353.674 142.883)" style="font:normal normal normal 200px 'Arial'" >
O</text>
<text x="0" y="0" stroke="transparent" fill="#000000" transform="matrix(0.0833333 0 0 0.0833333 309.243 18.2802)" style="font:normal normal normal 200px 'Arial'" >
OH</text>
<text x="0" y="0" stroke="transparent" fill="#000000" transform="matrix(0.0833333 0 0 0.0833333 241.232 50.5959)" style="font:normal normal normal 200px 'Arial'" >
O</text>
<text x="0" y="0" stroke="transparent" fill="#000000" transform="matrix(0.0833333 0 0 0.0833333 213.942 276.459)" style="font:normal normal normal 200px 'Arial'" >
O</text>
<text x="0" y="0" stroke="transparent" fill="#000000" transform="matrix(0.0833333 0 0 0.0833333 170.86 351.585)" style="font:normal normal normal 200px 'Arial'" >
O</text>
<text x="0" y="0" stroke="transparent" fill="#000000" transform="matrix(0.0833333 0 0 0.0833333 41.238 276.965)" style="font:normal normal normal 200px 'Arial'" >
N</text>
<text x="0" y="0" stroke="transparent" fill="#000000" transform="matrix(0.0833333 0 0 0.0833333 127.194 226.712)" style="font:normal normal normal 200px 'Arial'" >
OH</text>
<text x="0" y="0" stroke="transparent" fill="#000000" transform="matrix(0.0833333 0 0 0.0833333 198.252 396.705)" style="font:normal normal normal 200px 'Arial'" >
HO</text>
<text x="0" y="0" stroke="transparent" fill="#000000" transform="matrix(0.0833333 0 0 0.0833333 493.917 469.276)" style="font:normal normal normal 200px 'Arial'" >
OH</text>
<text x="0" y="0" stroke="transparent" fill="#000000" transform="matrix(0.0833333 0 0 0.0833333 381.82 410.029)" style="font:normal normal normal 200px 'Arial'" >
HO</text>
<path stroke="transparent" fill="#000000" transform="matrix(0.0833333 0 0 0.0833333 -101.875 -105)" d="M 7590.64,5652.97 L 7609.63,5646.71 L 7797.44,6216.55 L 7778.44,6222.82 L 7590.64,5652.97 Z " />
<path stroke="transparent" fill="#000000" transform="matrix(0.0833333 0 0 0.0833333 -101.875 -105)" d="M 7559.41,5580.07 L 7534.95,5697.55 L 7515.78,5691.49 L 7539.41,5577.99 L 7559.41,5580.07 Z " />
<path stroke="transparent" fill="#000000" transform="matrix(0.0833333 0 0 0.0833333 -101.875 -105)" d="M 7500.44,5573.92 L 7478.43,5679.67 L 7459.27,5673.6 L 7480.45,5571.84 L 7500.44,5573.92 Z " />
<path stroke="transparent" fill="#000000" transform="matrix(0.0833333 0 0 0.0833333 -101.875 -105)" d="M 7441.48,5567.77 L 7421.91,5661.78 L 7402.75,5655.71 L 7421.49,5565.69 L 7441.48,5567.77 Z " />
<path stroke="transparent" fill="#000000" transform="matrix(0.0833333 0 0 0.0833333 -101.875 -105)" d="M 7382.52,5561.63 L 7365.4,5643.89 L 7346.23,5637.82 L 7362.53,5559.54 L 7382.52,5561.63 Z " />
<path stroke="transparent" fill="#000000" transform="matrix(0.0833333 0 0 0.0833333 -101.875 -105)" d="M 7323.56,5555.48 L 7308.88,5626 L 7289.71,5619.93 L 7303.56,5553.39 L 7323.56,5555.48 Z " />
<path stroke="transparent" fill="#000000" transform="matrix(0.0833333 0 0 0.0833333 -101.875 -105)" d="M 7264.6,5549.33 L 7252.36,5608.11 L 7233.2,5602.04 L 7244.6,5547.24 L 7264.6,5549.33 Z " />
<path stroke="transparent" fill="#000000" transform="matrix(0.0833333 0 0 0.0833333 -101.875 -105)" d="M 7205.64,5543.18 L 7195.84,5590.22 L 7176.68,5584.15 L 7185.64,5541.09 L 7205.64,5543.18 Z " />
<path stroke="transparent" fill="#000000" transform="matrix(0.0833333 0 0 0.0833333 -101.875 -105)" d="M 7146.67,5537.03 L 7139.33,5572.33 L 7120.16,5566.26 L 7126.68,5534.94 L 7146.67,5537.03 Z " />
<path stroke="transparent" fill="#000000" transform="matrix(0.0833333 0 0 0.0833333 -101.875 -105)" d="M 7087.71,5530.88 L 7082.81,5554.44 L 7063.64,5548.37 L 7067.72,5528.79 L 7087.71,5530.88 Z " />
<path stroke="transparent" fill="#000000" transform="matrix(0.0833333 0 0 0.0833333 -101.875 -105)" d="M 6623.55,5978.47 L 6613.13,5975.13 L 6613.69,5959.49 L 7001.42,5525.21 L 7024.03,5529.91 L 6623.55,5978.47 Z " />
<path stroke="transparent" fill="#000000" transform="matrix(0.0833333 0 0 0.0833333 -101.875 -105)" d="M 6688.92,6576.23 L 6667.78,6566.92 L 6603.58,5979.86 L 6613.13,5975.13 L 6623.55,5978.47 L 6688.92,6576.23 Z " />
<path stroke="transparent" fill="#000000" transform="matrix(0.0833333 0 0 0.0833333 -101.875 -105)" d="M 6205.43,6930.63 L 6194.43,6926.29 L 6193.18,6914.81 L 6667.78,6566.92 L 6688.92,6576.23 L 6205.43,6930.63 Z " />
<path stroke="transparent" fill="#000000" transform="matrix(0.0833333 0 0 0.0833333 -101.875 -105)" d="M 5753.29,6743.02 L 5761.35,6724.72 L 6193.18,6914.81 L 6194.43,6926.29 L 6184.63,6932.9 L 5753.29,6743.02 Z " />
<path stroke="transparent" fill="#000000" transform="matrix(0.0833333 0 0 0.0833333 -101.875 -105)" d="M 5097.03,6942.39 L 5099.35,6919.41 L 5529.19,6725.86 L 5537.4,6744.1 L 5097.03,6942.39 Z " />
<path stroke="transparent" fill="#000000" transform="matrix(0.0833333 0 0 0.0833333 -101.875 -105)" d="M 4600.77,6585.02 L 4621.83,6575.53 L 5099.35,6919.41 L 5097.03,6942.39 L 4600.77,6585.02 Z " />
<path stroke="transparent" fill="#000000" transform="matrix(0.0833333 0 0 0.0833333 -101.875 -105)" d="M 4661.11,5986.73 L 4681.9,5979.88 L 4621.83,6575.53 L 4600.77,6585.02 L 4661.11,5986.73 Z " />
<path stroke="transparent" fill="#000000" transform="matrix(0.0833333 0 0 0.0833333 -101.875 -105)" d="M 4268.15,5553.99 L 4268.15,5539.11 L 4279.44,5536.66 L 4681.9,5979.88 L 4661.11,5986.73 L 4268.15,5553.99 Z " />
<path stroke="transparent" fill="#000000" transform="matrix(0.0833333 0 0 0.0833333 -101.875 -105)" d="M 4443.4,4959.15 L 4458.92,4976.25 L 4279.44,5536.66 L 4268.15,5539.11 L 4259.59,5533.07 L 4443.4,4959.15 Z " />
<path stroke="transparent" fill="#000000" transform="matrix(0.0833333 0 0 0.0833333 -101.875 -105)" d="M 5031.05,4831.66 L 5043.99,4849.31 L 4458.92,4976.25 L 4443.4,4959.15 L 5031.05,4831.66 Z " />
<path stroke="transparent" fill="#000000" transform="matrix(0.0833333 0 0 0.0833333 -101.875 -105)" d="M 5329.51,4309.64 L 5341.14,4329.59 L 5043.99,4849.31 L 5031.05,4831.66 L 5329.51,4309.64 Z " />
<path stroke="transparent" fill="#000000" transform="matrix(0.0833333 0 0 0.0833333 -101.875 -105)" d="M 5928.98,4307.11 L 5935.32,4317.09 L 5929.59,4327.11 L 5341.14,4329.59 L 5329.51,4309.64 L 5928.98,4307.11 Z " />
<path stroke="transparent" fill="#000000" transform="matrix(0.0833333 0 0 0.0833333 -101.875 -105)" d="M 6243.9,4826.55 L 6231.11,4844.32 L 5929.59,4327.11 L 5935.32,4317.09 L 5947.14,4317.5 L 6243.9,4826.55 Z " />
<path stroke="transparent" fill="#000000" transform="matrix(0.0833333 0 0 0.0833333 -101.875 -105)" d="M 5986.53,5262.66 L 5970.3,5250.97 L 6267.97,4837.62 L 6284.2,4849.31 L 5986.53,5262.66 Z " />
<path stroke="transparent" fill="#000000" transform="matrix(0.0833333 0 0 0.0833333 -101.875 -105)" d="M 5928.11,5220.59 L 5911.88,5208.9 L 6209.54,4795.55 L 6225.77,4807.24 L 5928.11,5220.59 Z " />
<path stroke="transparent" fill="#000000" transform="matrix(0.0833333 0 0 0.0833333 -101.875 -105)" d="M 6722.11,4926.1 L 6718.03,4945.68 L 6231.11,4844.32 L 6243.9,4826.55 L 6722.11,4926.1 Z " />
<path stroke="transparent" fill="#000000" transform="matrix(0.0833333 0 0 0.0833333 -101.875 -105)" d="M 6853.53,5076.49 L 6872.53,5070.23 L 7024.03,5529.91 L 7001.42,5525.21 L 6853.53,5076.49 Z " />
<path stroke="transparent" fill="#000000" transform="matrix(0.0833333 0 0 0.0833333 -101.875 -105)" d="M 6181.05,3766.43 L 6285.22,3826 L 5947.14,4317.5 L 5935.32,4317.09 L 5928.98,4307.11 L 6181.05,3766.43 Z " />
<path stroke="transparent" fill="#000000" transform="matrix(0.0833333 0 0 0.0833333 -101.875 -105)" d="M 5042.28,3936.06 L 5145.95,3875.63 L 5153.99,3894.09 L 5054.38,3952.15 L 5042.28,3936.06 Z " />
<path stroke="transparent" fill="#000000" transform="matrix(0.0833333 0 0 0.0833333 -101.875 -105)" d="M 5077.28,3982.6 L 5169.19,3929.02 L 5177.23,3947.48 L 5089.39,3998.69 L 5077.28,3982.6 Z " />
<path stroke="transparent" fill="#000000" transform="matrix(0.0833333 0 0 0.0833333 -101.875 -105)" d="M 5112.29,4029.13 L 5192.44,3982.41 L 5200.48,4000.87 L 5124.4,4045.23 L 5112.29,4029.13 Z " />
<path stroke="transparent" fill="#000000" transform="matrix(0.0833333 0 0 0.0833333 -101.875 -105)" d="M 5147.3,4075.67 L 5215.69,4035.8 L 5223.73,4054.26 L 5159.41,4091.76 L 5147.3,4075.67 Z " />
<path stroke="transparent" fill="#000000" transform="matrix(0.0833333 0 0 0.0833333 -101.875 -105)" d="M 5182.31,4122.2 L 5238.94,4089.19 L 5246.97,4107.66 L 5194.41,4138.3 L 5182.31,4122.2 Z " />
<path stroke="transparent" fill="#000000" transform="matrix(0.0833333 0 0 0.0833333 -101.875 -105)" d="M 5217.32,4168.74 L 5262.18,4142.58 L 5270.22,4161.05 L 5229.42,4184.83 L 5217.32,4168.74 Z " />
<path stroke="transparent" fill="#000000" transform="matrix(0.0833333 0 0 0.0833333 -101.875 -105)" d="M 5252.32,4215.28 L 5285.43,4195.98 L 5293.47,4214.44 L 5264.43,4231.37 L 5252.32,4215.28 Z " />
<path stroke="transparent" fill="#000000" transform="matrix(0.0833333 0 0 0.0833333 -101.875 -105)" d="M 5287.33,4261.81 L 5308.68,4249.37 L 5316.72,4267.83 L 5299.44,4277.9 L 5287.33,4261.81 Z " />
<path stroke="transparent" fill="#000000" transform="matrix(0.0833333 0 0 0.0833333 -101.875 -105)" d="M 5092.19,3695.56 L 4972.19,3696.65 L 5017.21,3206.84 L 5027.71,3201.29 L 5038.31,3206.65 L 5092.19,3695.56 Z " />
<path stroke="transparent" fill="#000000" transform="matrix(0.0833333 0 0 0.0833333 -101.875 -105)" d="M 4495.46,2911.87 L 4515.35,2900.14 L 5027.61,3189.74 L 5027.71,3201.29 L 5017.21,3206.84 L 4495.46,2911.87 Z " />
<path stroke="transparent" fill="#000000" transform="matrix(0.0833333 0 0 0.0833333 -101.875 -105)" d="M 4490,2309.27 L 4499.97,2306.03 L 4510.03,2311.71 L 4515.35,2900.14 L 4495.46,2911.87 L 4490,2309.27 Z " />
<path stroke="transparent" fill="#000000" transform="matrix(0.0833333 0 0 0.0833333 -101.875 -105)" d="M 5006.24,1995.99 L 5016.85,2001.34 L 5016.96,2012.89 L 4510.03,2311.71 L 4499.97,2306.03 L 4504.41,2291.81 L 5006.24,1995.99 Z " />
<path stroke="transparent" fill="#000000" transform="matrix(0.0833333 0 0 0.0833333 -101.875 -105)" d="M 5549.11,2290.76 L 5529.21,2302.49 L 5016.96,2012.89 L 5016.85,2001.34 L 5027.37,1995.8 L 5549.11,2290.76 Z " />
<path stroke="transparent" fill="#000000" transform="matrix(0.0833333 0 0 0.0833333 -101.875 -105)" d="M 5553.64,2791.35 L 5533.64,2791.53 L 5529.21,2302.49 L 5549.11,2290.76 L 5553.64,2791.35 Z " />
<path stroke="transparent" fill="#000000" transform="matrix(0.0833333 0 0 0.0833333 -101.875 -105)" d="M 5440.34,2946.44 L 5450.5,2963.67 L 5038.31,3206.65 L 5027.71,3201.29 L 5027.61,3189.74 L 5440.34,2946.44 Z " />
<path stroke="transparent" fill="#000000" transform="matrix(0.0833333 0 0 0.0833333 -101.875 -105)" d="M 6025.57,1940.24 L 6086.51,2043.62 L 6068.35,2052.2 L 6009.27,1951.98 L 6025.57,1940.24 Z " />
<path stroke="transparent" fill="#000000" transform="matrix(0.0833333 0 0 0.0833333 -101.875 -105)" d="M 5977.95,1974.53 L 6033.45,2068.68 L 6015.29,2077.26 L 5961.65,1986.26 L 5977.95,1974.53 Z " />
<path stroke="transparent" fill="#000000" transform="matrix(0.0833333 0 0 0.0833333 -101.875 -105)" d="M 5930.33,2008.81 L 5980.39,2093.75 L 5962.24,2102.32 L 5914.03,2020.55 L 5930.33,2008.81 Z " />
<path stroke="transparent" fill="#000000" transform="matrix(0.0833333 0 0 0.0833333 -101.875 -105)" d="M 5882.71,2043.1 L 5927.34,2118.81 L 5909.18,2127.39 L 5866.41,2054.83 L 5882.71,2043.1 Z " />
<path stroke="transparent" fill="#000000" transform="matrix(0.0833333 0 0 0.0833333 -101.875 -105)" d="M 5835.09,2077.38 L 5874.28,2143.87 L 5856.12,2152.45 L 5818.79,2089.12 L 5835.09,2077.38 Z " />
<path stroke="transparent" fill="#000000" transform="matrix(0.0833333 0 0 0.0833333 -101.875 -105)" d="M 5787.46,2111.67 L 5821.22,2168.94 L 5803.06,2177.52 L 5771.16,2123.4 L 5787.46,2111.67 Z " />
<path stroke="transparent" fill="#000000" transform="matrix(0.0833333 0 0 0.0833333 -101.875 -105)" d="M 5739.84,2145.95 L 5768.17,2194 L 5750.01,2202.58 L 5723.54,2157.69 L 5739.84,2145.95 Z " />
<path stroke="transparent" fill="#000000" transform="matrix(0.0833333 0 0 0.0833333 -101.875 -105)" d="M 5692.22,2180.24 L 5715.11,2219.06 L 5696.95,2227.64 L 5675.92,2191.97 L 5692.22,2180.24 Z " />
<path stroke="transparent" fill="#000000" transform="matrix(0.0833333 0 0 0.0833333 -101.875 -105)" d="M 5644.6,2214.52 L 5662.05,2244.13 L 5643.89,2252.71 L 5628.3,2226.26 L 5644.6,2214.52 Z " />
<path stroke="transparent" fill="#000000" transform="matrix(0.0833333 0 0 0.0833333 -101.875 -105)" d="M 5596.98,2248.81 L 5609,2269.19 L 5590.84,2277.77 L 5580.68,2260.54 L 5596.98,2248.81 Z " />
<path stroke="transparent" fill="#000000" transform="matrix(0.0833333 0 0 0.0833333 -101.875 -105)" d="M 4952.51,1521.73 L 5072.5,1520.64 L 5027.37,1995.8 L 5016.85,2001.34 L 5006.24,1995.99 L 4952.51,1521.73 Z " />
<path stroke="transparent" fill="#000000" transform="matrix(0.0833333 0 0 0.0833333 -101.875 -105)" d="M 3900.54,2371.46 L 3899.46,2251.46 L 3919.47,2253.11 L 3920.52,2369.44 L 3900.54,2371.46 Z " />
<path stroke="transparent" fill="#000000" transform="matrix(0.0833333 0 0 0.0833333 -101.875 -105)" d="M 3958.93,2365.58 L 3957.94,2256.28 L 3977.95,2257.94 L 3978.91,2363.56 L 3958.93,2365.58 Z " />
<path stroke="transparent" fill="#000000" transform="matrix(0.0833333 0 0 0.0833333 -101.875 -105)" d="M 4017.31,2359.7 L 4016.42,2261.11 L 4036.43,2262.76 L 4037.29,2357.68 L 4017.31,2359.7 Z " />
<path stroke="transparent" fill="#000000" transform="matrix(0.0833333 0 0 0.0833333 -101.875 -105)" d="M 4075.69,2353.81 L 4074.9,2265.93 L 4094.91,2267.58 L 4095.67,2351.8 L 4075.69,2353.81 Z " />
<path stroke="transparent" fill="#000000" transform="matrix(0.0833333 0 0 0.0833333 -101.875 -105)" d="M 4134.08,2347.93 L 4133.38,2270.75 L 4153.39,2272.4 L 4154.06,2345.92 L 4134.08,2347.93 Z " />
<path stroke="transparent" fill="#000000" transform="matrix(0.0833333 0 0 0.0833333 -101.875 -105)" d="M 4192.46,2342.05 L 4191.86,2275.58 L 4211.87,2277.23 L 4212.44,2340.04 L 4192.46,2342.05 Z " />
<path stroke="transparent" fill="#000000" transform="matrix(0.0833333 0 0 0.0833333 -101.875 -105)" d="M 4250.84,2336.17 L 4250.34,2280.4 L 4270.35,2282.05 L 4270.83,2334.16 L 4250.84,2336.17 Z " />
<path stroke="transparent" fill="#000000" transform="matrix(0.0833333 0 0 0.0833333 -101.875 -105)" d="M 4309.23,2330.29 L 4308.82,2285.22 L 4328.83,2286.87 L 4329.21,2328.28 L 4309.23,2330.29 Z " />
<path stroke="transparent" fill="#000000" transform="matrix(0.0833333 0 0 0.0833333 -101.875 -105)" d="M 4367.61,2324.41 L 4367.3,2290.05 L 4387.31,2291.7 L 4387.59,2322.4 L 4367.61,2324.41 Z " />
<path stroke="transparent" fill="#000000" transform="matrix(0.0833333 0 0 0.0833333 -101.875 -105)" d="M 4425.99,2318.53 L 4425.78,2294.87 L 4445.8,2296.52 L 4445.98,2316.52 L 4425.99,2318.53 Z " />
<path stroke="transparent" fill="#000000" transform="matrix(0.0833333 0 0 0.0833333 -101.875 -105)" d="M 4205.05,1923.88 L 4308.43,1862.94 L 4504.41,2291.81 L 4499.97,2306.03 L 4490,2309.27 L 4205.05,1923.88 Z " />
<path stroke="transparent" fill="#000000" transform="matrix(0.0833333 0 0 0.0833333 -101.875 -105)" d="M 3595.4,1804.58 L 3595.22,1784.58 L 4087.2,1780.13 L 4087.38,1800.13 L 3595.4,1804.58 Z " />
<path stroke="transparent" fill="#000000" transform="matrix(0.0833333 0 0 0.0833333 -101.875 -105)" d="M 5440.62,5288.94 L 5343.84,5359.88 L 5333.49,5342.66 L 5427.32,5273.89 L 5440.62,5288.94 Z " />
<path stroke="transparent" fill="#000000" transform="matrix(0.0833333 0 0 0.0833333 -101.875 -105)" d="M 5401.76,5244.97 L 5313.61,5309.58 L 5303.26,5292.37 L 5388.46,5229.92 L 5401.76,5244.97 Z " />
<path stroke="transparent" fill="#000000" transform="matrix(0.0833333 0 0 0.0833333 -101.875 -105)" d="M 5362.9,5201.01 L 5283.38,5259.29 L 5273.03,5242.08 L 5349.59,5185.96 L 5362.9,5201.01 Z " />
<path stroke="transparent" fill="#000000" transform="matrix(0.0833333 0 0 0.0833333 -101.875 -105)" d="M 5324.03,5157.04 L 5253.15,5209 L 5242.8,5191.78 L 5310.73,5141.99 L 5324.03,5157.04 Z " />
<path stroke="transparent" fill="#000000" transform="matrix(0.0833333 0 0 0.0833333 -101.875 -105)" d="M 5285.17,5113.07 L 5222.92,5158.7 L 5212.57,5141.49 L 5271.87,5098.03 L 5285.17,5113.07 Z " />
<path stroke="transparent" fill="#000000" transform="matrix(0.0833333 0 0 0.0833333 -101.875 -105)" d="M 5246.31,5069.11 L 5192.69,5108.41 L 5182.35,5091.2 L 5233.01,5054.06 L 5246.31,5069.11 Z " />
<path stroke="transparent" fill="#000000" transform="matrix(0.0833333 0 0 0.0833333 -101.875 -105)" d="M 5207.45,5025.14 L 5162.46,5058.12 L 5152.12,5040.9 L 5194.15,5010.1 L 5207.45,5025.14 Z " />
<path stroke="transparent" fill="#000000" transform="matrix(0.0833333 0 0 0.0833333 -101.875 -105)" d="M 5168.59,4981.18 L 5132.23,5007.82 L 5121.89,4990.61 L 5155.28,4966.13 L 5168.59,4981.18 Z " />
<path stroke="transparent" fill="#000000" transform="matrix(0.0833333 0 0 0.0833333 -101.875 -105)" d="M 5129.72,4937.21 L 5102,4957.53 L 5091.66,4940.32 L 5116.42,4922.16 L 5129.72,4937.21 Z " />
<path stroke="transparent" fill="#000000" transform="matrix(0.0833333 0 0 0.0833333 -101.875 -105)" d="M 5090.86,4893.25 L 5071.78,4907.24 L 5061.43,4890.02 L 5077.56,4878.2 L 5090.86,4893.25 Z " />
<path stroke="transparent" fill="#000000" transform="matrix(0.0833333 0 0 0.0833333 -101.875 -105)" d="M 3922.03,4619.96 L 3997.15,4526.38 L 4011.66,4540.25 L 3938.72,4631.13 L 3922.03,4619.96 Z " />
<path stroke="transparent" fill="#000000" transform="matrix(0.0833333 0 0 0.0833333 -101.875 -105)" d="M 3968.44,4651.02 L 4037.51,4564.96 L 4052.02,4578.83 L 3985.12,4662.18 L 3968.44,4651.02 Z " />
<path stroke="transparent" fill="#000000" transform="matrix(0.0833333 0 0 0.0833333 -101.875 -105)" d="M 4014.84,4682.07 L 4077.87,4603.54 L 4092.38,4617.42 L 4031.53,4693.24 L 4014.84,4682.07 Z " />
<path stroke="transparent" fill="#000000" transform="matrix(0.0833333 0 0 0.0833333 -101.875 -105)" d="M 4061.25,4713.13 L 4118.23,4642.13 L 4132.75,4656 L 4077.93,4724.3 L 4061.25,4713.13 Z " />
<path stroke="transparent" fill="#000000" transform="matrix(0.0833333 0 0 0.0833333 -101.875 -105)" d="M 4107.65,4744.19 L 4158.6,4680.71 L 4173.11,4694.58 L 4124.34,4755.35 L 4107.65,4744.19 Z " />
<path stroke="transparent" fill="#000000" transform="matrix(0.0833333 0 0 0.0833333 -101.875 -105)" d="M 4154.06,4775.24 L 4198.96,4719.3 L 4213.47,4733.17 L 4170.74,4786.41 L 4154.06,4775.24 Z " />
<path stroke="transparent" fill="#000000" transform="matrix(0.0833333 0 0 0.0833333 -101.875 -105)" d="M 4200.46,4806.3 L 4239.32,4757.88 L 4253.83,4771.75 L 4217.15,4817.46 L 4200.46,4806.3 Z " />
<path stroke="transparent" fill="#000000" transform="matrix(0.0833333 0 0 0.0833333 -101.875 -105)" d="M 4246.87,4837.35 L 4279.68,4796.46 L 4294.2,4810.33 L 4263.55,4848.52 L 4246.87,4837.35 Z " />
<path stroke="transparent" fill="#000000" transform="matrix(0.0833333 0 0 0.0833333 -101.875 -105)" d="M 4293.27,4868.41 L 4320.05,4835.05 L 4334.56,4848.92 L 4309.96,4879.57 L 4293.27,4868.41 Z " />
<path stroke="transparent" fill="#000000" transform="matrix(0.0833333 0 0 0.0833333 -101.875 -105)" d="M 4339.68,4899.46 L 4360.41,4873.63 L 4374.92,4887.5 L 4356.36,4910.63 L 4339.68,4899.46 Z " />
<path stroke="transparent" fill="#000000" transform="matrix(0.0833333 0 0 0.0833333 -101.875 -105)" d="M 4386.08,4930.52 L 4400.77,4912.21 L 4415.28,4926.09 L 4402.77,4941.68 L 4386.08,4930.52 Z " />
<path stroke="transparent" fill="#000000" transform="matrix(0.0833333 0 0 0.0833333 -101.875 -105)" d="M 3738.19,4505.45 L 3798.49,4609.19 L 3780.04,4617.24 L 3722.07,4517.5 L 3738.19,4505.45 Z " />
<path stroke="transparent" fill="#000000" transform="matrix(0.0833333 0 0 0.0833333 -101.875 -105)" d="M 3690.87,4540.83 L 3744.33,4632.8 L 3725.87,4640.84 L 3674.75,4552.89 L 3690.87,4540.83 Z " />
<path stroke="transparent" fill="#000000" transform="matrix(0.0833333 0 0 0.0833333 -101.875 -105)" d="M 3643.55,4576.21 L 3690.16,4656.41 L 3671.7,4664.45 L 3627.43,4588.27 L 3643.55,4576.21 Z " />
<path stroke="transparent" fill="#000000" transform="matrix(0.0833333 0 0 0.0833333 -101.875 -105)" d="M 3596.23,4611.6 L 3636,4680.01 L 3617.54,4688.06 L 3580.11,4623.65 L 3596.23,4611.6 Z " />
<path stroke="transparent" fill="#000000" transform="matrix(0.0833333 0 0 0.0833333 -101.875 -105)" d="M 3548.91,4646.98 L 3581.83,4703.62 L 3563.37,4711.66 L 3532.79,4659.04 L 3548.91,4646.98 Z " />
<path stroke="transparent" fill="#000000" transform="matrix(0.0833333 0 0 0.0833333 -101.875 -105)" d="M 3501.59,4682.36 L 3527.66,4727.22 L 3509.21,4735.27 L 3485.46,4694.42 L 3501.59,4682.36 Z " />
<path stroke="transparent" fill="#000000" transform="matrix(0.0833333 0 0 0.0833333 -101.875 -105)" d="M 3454.27,4717.75 L 3473.5,4750.83 L 3455.04,4758.87 L 3438.14,4729.8 L 3454.27,4717.75 Z " />
<path stroke="transparent" fill="#000000" transform="matrix(0.0833333 0 0 0.0833333 -101.875 -105)" d="M 3406.95,4753.13 L 3419.33,4774.43 L 3400.87,4782.48 L 3390.82,4765.19 L 3406.95,4753.13 Z " />
<path stroke="transparent" fill="#000000" transform="matrix(0.0833333 0 0 0.0833333 -101.875 -105)" d="M 2828.62,4514.09 L 2828.58,4502.54 L 2839.13,4497.06 L 3359.05,4795.22 L 3339.09,4806.83 L 2828.62,4514.09 Z " />
<path stroke="transparent" fill="#000000" transform="matrix(0.0833333 0 0 0.0833333 -101.875 -105)" d="M 2319.86,4809.8 L 2299.83,4798.31 L 2818,4497.13 L 2828.58,4502.54 L 2828.62,4514.09 L 2319.86,4809.8 Z " />
<path stroke="transparent" fill="#000000" transform="matrix(0.0833333 0 0 0.0833333 -101.875 -105)" d="M 2321.58,5398.25 L 2301.61,5409.86 L 2299.83,4798.31 L 2319.86,4809.8 L 2321.58,5398.25 Z " />
<path stroke="transparent" fill="#000000" transform="matrix(0.0833333 0 0 0.0833333 -101.875 -105)" d="M 2832.05,5690.99 L 2832.12,5714.08 L 2301.61,5409.86 L 2321.58,5398.25 L 2832.05,5690.99 Z " />
<path stroke="transparent" fill="#000000" transform="matrix(0.0833333 0 0 0.0833333 -101.875 -105)" d="M 3246.33,5450.19 L 3256.38,5467.48 L 2832.12,5714.08 L 2832.05,5690.99 L 3246.33,5450.19 Z " />
<path stroke="transparent" fill="#000000" transform="matrix(0.0833333 0 0 0.0833333 -101.875 -105)" d="M 3360.52,5295.82 L 3340.52,5295.88 L 3339.09,4806.83 L 3359.05,4795.22 L 3360.52,5295.82 Z " />
<path stroke="transparent" fill="#000000" transform="matrix(0.0833333 0 0 0.0833333 -101.875 -105)" d="M 2893.84,6302.36 L 2773.84,6302.71 L 2775.61,6282.7 L 2891.95,6282.36 L 2893.84,6302.36 Z " />
<path stroke="transparent" fill="#000000" transform="matrix(0.0833333 0 0 0.0833333 -101.875 -105)" d="M 2888.31,6243.93 L 2779.02,6244.25 L 2780.79,6224.24 L 2886.42,6223.93 L 2888.31,6243.93 Z " />
<path stroke="transparent" fill="#000000" transform="matrix(0.0833333 0 0 0.0833333 -101.875 -105)" d="M 2882.79,6185.5 L 2784.2,6185.79 L 2785.97,6165.78 L 2880.9,6165.51 L 2882.79,6185.5 Z " />
<path stroke="transparent" fill="#000000" transform="matrix(0.0833333 0 0 0.0833333 -101.875 -105)" d="M 2877.27,6127.07 L 2789.38,6127.33 L 2791.15,6107.32 L 2875.38,6107.08 L 2877.27,6127.07 Z " />
<path stroke="transparent" fill="#000000" transform="matrix(0.0833333 0 0 0.0833333 -101.875 -105)" d="M 2871.75,6068.64 L 2794.56,6068.87 L 2796.34,6048.86 L 2869.86,6048.65 L 2871.75,6068.64 Z " />
<path stroke="transparent" fill="#000000" transform="matrix(0.0833333 0 0 0.0833333 -101.875 -105)" d="M 2866.22,6010.21 L 2799.74,6010.41 L 2801.52,5990.4 L 2864.33,5990.22 L 2866.22,6010.21 Z " />
<path stroke="transparent" fill="#000000" transform="matrix(0.0833333 0 0 0.0833333 -101.875 -105)" d="M 2860.7,5951.79 L 2804.93,5951.95 L 2806.7,5931.94 L 2858.81,5931.79 L 2860.7,5951.79 Z " />
<path stroke="transparent" fill="#000000" transform="matrix(0.0833333 0 0 0.0833333 -101.875 -105)" d="M 2855.18,5893.36 L 2810.11,5893.49 L 2811.88,5873.48 L 2853.29,5873.36 L 2855.18,5893.36 Z " />
<path stroke="transparent" fill="#000000" transform="matrix(0.0833333 0 0 0.0833333 -101.875 -105)" d="M 2849.66,5834.93 L 2815.29,5835.03 L 2817.06,5815.02 L 2847.77,5814.93 L 2849.66,5834.93 Z " />
<path stroke="transparent" fill="#000000" transform="matrix(0.0833333 0 0 0.0833333 -101.875 -105)" d="M 2844.13,5776.5 L 2820.47,5776.57 L 2822.24,5756.56 L 2842.24,5756.51 L 2844.13,5776.5 Z " />
<path stroke="transparent" fill="#000000" transform="matrix(0.0833333 0 0 0.0833333 -101.875 -105)" d="M 1869.72,4620.83 L 1929.42,4516.73 L 1945.58,4528.75 L 1888.26,4628.71 L 1869.72,4620.83 Z " />
<path stroke="transparent" fill="#000000" transform="matrix(0.0833333 0 0 0.0833333 -101.875 -105)" d="M 1922.53,4643.27 L 1975.46,4550.97 L 1991.62,4562.99 L 1941.07,4651.15 L 1922.53,4643.27 Z " />
<path stroke="transparent" fill="#000000" transform="matrix(0.0833333 0 0 0.0833333 -101.875 -105)" d="M 1975.34,4665.72 L 2021.5,4585.22 L 2037.67,4597.24 L 1993.88,4673.59 L 1975.34,4665.72 Z " />
<path stroke="transparent" fill="#000000" transform="matrix(0.0833333 0 0 0.0833333 -101.875 -105)" d="M 2028.15,4688.16 L 2067.55,4619.46 L 2083.71,4631.48 L 2046.69,4696.04 L 2028.15,4688.16 Z " />
<path stroke="transparent" fill="#000000" transform="matrix(0.0833333 0 0 0.0833333 -101.875 -105)" d="M 2080.96,4710.6 L 2113.59,4653.71 L 2129.75,4665.73 L 2099.5,4718.48 L 2080.96,4710.6 Z " />
<path stroke="transparent" fill="#000000" transform="matrix(0.0833333 0 0 0.0833333 -101.875 -105)" d="M 2133.77,4733.05 L 2159.63,4687.95 L 2175.8,4699.97 L 2152.31,4740.93 L 2133.77,4733.05 Z " />
<path stroke="transparent" fill="#000000" transform="matrix(0.0833333 0 0 0.0833333 -101.875 -105)" d="M 2186.58,4755.49 L 2205.68,4722.2 L 2221.84,4734.22 L 2205.12,4763.37 L 2186.58,4755.49 Z " />
<path stroke="transparent" fill="#000000" transform="matrix(0.0833333 0 0 0.0833333 -101.875 -105)" d="M 2239.4,4777.94 L 2251.72,4756.44 L 2267.88,4768.46 L 2257.93,4785.81 L 2239.4,4777.94 Z " />
<path stroke="transparent" fill="#000000" transform="matrix(0.0833333 0 0 0.0833333 -101.875 -105)" d="M 1275.64,4815.74 L 1265.59,4798.45 L 1674.29,4560.89 L 1684.34,4578.18 L 1275.64,4815.74 Z " />
<path stroke="transparent" fill="#000000" transform="matrix(0.0833333 0 0 0.0833333 -101.875 -105)" d="M 1777.61,3905.61 L 1797.61,3905.55 L 1799.06,4402.88 L 1779.06,4402.94 L 1777.61,3905.61 Z " />
<path stroke="transparent" fill="#000000" transform="matrix(0.0833333 0 0 0.0833333 -101.875 -105)" d="M 2767.18,4022.55 L 2887.18,4022.2 L 2839.13,4497.06 L 2828.58,4502.54 L 2818,4497.13 L 2767.18,4022.55 Z " />
<path stroke="transparent" fill="#000000" transform="matrix(0.0833333 0 0 0.0833333 -101.875 -105)" d="M 3678.44,5413.24 L 3715.04,5298.96 L 3733.53,5306.81 L 3698.05,5417.6 L 3678.44,5413.24 Z " />
<path stroke="transparent" fill="#000000" transform="matrix(0.0833333 0 0 0.0833333 -101.875 -105)" d="M 3735.72,5425.97 L 3769.06,5321.88 L 3787.55,5329.73 L 3755.33,5430.32 L 3735.72,5425.97 Z " />
<path stroke="transparent" fill="#000000" transform="matrix(0.0833333 0 0 0.0833333 -101.875 -105)" d="M 3793.01,5438.7 L 3823.08,5344.8 L 3841.57,5352.65 L 3812.61,5443.05 L 3793.01,5438.7 Z " />
<path stroke="transparent" fill="#000000" transform="matrix(0.0833333 0 0 0.0833333 -101.875 -105)" d="M 3850.29,5451.42 L 3877.1,5367.72 L 3895.58,5375.57 L 3869.9,5455.78 L 3850.29,5451.42 Z " />
<path stroke="transparent" fill="#000000" transform="matrix(0.0833333 0 0 0.0833333 -101.875 -105)" d="M 3907.57,5464.15 L 3931.11,5390.64 L 3949.6,5398.49 L 3927.18,5468.5 L 3907.57,5464.15 Z " />
<path stroke="transparent" fill="#000000" transform="matrix(0.0833333 0 0 0.0833333 -101.875 -105)" d="M 3964.85,5476.87 L 3985.13,5413.56 L 4003.62,5421.41 L 3984.46,5481.23 L 3964.85,5476.87 Z " />
<path stroke="transparent" fill="#000000" transform="matrix(0.0833333 0 0 0.0833333 -101.875 -105)" d="M 4022.14,5489.6 L 4039.15,5436.48 L 4057.64,5444.33 L 4041.74,5493.96 L 4022.14,5489.6 Z " />
<path stroke="transparent" fill="#000000" transform="matrix(0.0833333 0 0 0.0833333 -101.875 -105)" d="M 4079.42,5502.33 L 4093.17,5459.4 L 4111.65,5467.25 L 4099.02,5506.68 L 4079.42,5502.33 Z " />
<path stroke="transparent" fill="#000000" transform="matrix(0.0833333 0 0 0.0833333 -101.875 -105)" d="M 4136.7,5515.05 L 4147.18,5482.32 L 4165.67,5490.17 L 4156.31,5519.41 L 4136.7,5515.05 Z " />
<path stroke="transparent" fill="#000000" transform="matrix(0.0833333 0 0 0.0833333 -101.875 -105)" d="M 4193.98,5527.78 L 4201.2,5505.24 L 4219.69,5513.09 L 4213.59,5532.13 L 4193.98,5527.78 Z " />
<path stroke="transparent" fill="#000000" transform="matrix(0.0833333 0 0 0.0833333 -101.875 -105)" d="M 3943.55,5914.91 L 3862.88,5826.07 L 4259.59,5533.07 L 4268.15,5539.11 L 4268.15,5553.99 L 3943.55,5914.91 Z " />
<path stroke="transparent" fill="#000000" transform="matrix(0.0833333 0 0 0.0833333 -101.875 -105)" d="M 4088.84,6881.33 L 4039.57,6771.91 L 4058.56,6765.37 L 4106.32,6871.45 L 4088.84,6881.33 Z " />
<path stroke="transparent" fill="#000000" transform="matrix(0.0833333 0 0 0.0833333 -101.875 -105)" d="M 4139.93,6852.45 L 4095.06,6752.8 L 4114.04,6746.25 L 4157.41,6842.57 L 4139.93,6852.45 Z " />
<path stroke="transparent" fill="#000000" transform="matrix(0.0833333 0 0 0.0833333 -101.875 -105)" d="M 4191.02,6823.58 L 4150.54,6733.68 L 4169.53,6727.14 L 4208.51,6813.7 L 4191.02,6823.58 Z " />
<path stroke="transparent" fill="#000000" transform="matrix(0.0833333 0 0 0.0833333 -101.875 -105)" d="M 4242.12,6794.7 L 4206.03,6714.56 L 4225.02,6708.02 L 4259.6,6784.82 L 4242.12,6794.7 Z " />
<path stroke="transparent" fill="#000000" transform="matrix(0.0833333 0 0 0.0833333 -101.875 -105)" d="M 4293.21,6765.83 L 4261.52,6695.45 L 4280.51,6688.91 L 4310.7,6755.94 L 4293.21,6765.83 Z " />
<path stroke="transparent" fill="#000000" transform="matrix(0.0833333 0 0 0.0833333 -101.875 -105)" d="M 4344.31,6736.95 L 4317.01,6676.33 L 4336,6669.79 L 4361.79,6727.07 L 4344.31,6736.95 Z " />
<path stroke="transparent" fill="#000000" transform="matrix(0.0833333 0 0 0.0833333 -101.875 -105)" d="M 4395.4,6708.07 L 4372.5,6657.22 L 4391.49,6650.67 L 4412.88,6698.19 L 4395.4,6708.07 Z " />
<path stroke="transparent" fill="#000000" transform="matrix(0.0833333 0 0 0.0833333 -101.875 -105)" d="M 4446.49,6679.2 L 4427.99,6638.1 L 4446.98,6631.56 L 4463.98,6669.32 L 4446.49,6679.2 Z " />
<path stroke="transparent" fill="#000000" transform="matrix(0.0833333 0 0 0.0833333 -101.875 -105)" d="M 4497.59,6650.32 L 4483.48,6618.98 L 4502.46,6612.44 L 4515.07,6640.44 L 4497.59,6650.32 Z " />
<path stroke="transparent" fill="#000000" transform="matrix(0.0833333 0 0 0.0833333 -101.875 -105)" d="M 4548.68,6621.45 L 4538.96,6599.87 L 4557.95,6593.33 L 4566.16,6611.56 L 4548.68,6621.45 Z " />
<path stroke="transparent" fill="#000000" transform="matrix(0.0833333 0 0 0.0833333 -101.875 -105)" d="M 5632.76,6084.6 L 5652.76,6084.52 L 5654.85,6581.85 L 5634.85,6581.93 L 5632.76,6084.6 Z " />
<path stroke="transparent" fill="#000000" transform="matrix(0.0833333 0 0 0.0833333 -101.875 -105)" d="M 6319.3,7516.21 L 6200.01,7529.25 L 6184.63,6932.9 L 6194.43,6926.29 L 6205.43,6930.63 L 6319.3,7516.21 Z " />
<path stroke="transparent" fill="#000000" transform="matrix(0.0833333 0 0 0.0833333 -101.875 -105)" d="M 7153.85,6715.33 L 7105.5,6825.16 L 7088.12,6815.02 L 7134.63,6709.36 L 7153.85,6715.33 Z " />
<path stroke="transparent" fill="#000000" transform="matrix(0.0833333 0 0 0.0833333 -101.875 -105)" d="M 7096.31,6697.45 L 7053.45,6794.8 L 7036.06,6784.66 L 7077.08,6691.48 L 7096.31,6697.45 Z " />
<path stroke="transparent" fill="#000000" transform="matrix(0.0833333 0 0 0.0833333 -101.875 -105)" d="M 7038.76,6679.57 L 7001.4,6764.44 L 6984.01,6754.3 L 7019.54,6673.6 L 7038.76,6679.57 Z " />
<path stroke="transparent" fill="#000000" transform="matrix(0.0833333 0 0 0.0833333 -101.875 -105)" d="M 6981.22,6661.69 L 6949.35,6734.08 L 6931.96,6723.94 L 6961.99,6655.71 L 6981.22,6661.69 Z " />
<path stroke="transparent" fill="#000000" transform="matrix(0.0833333 0 0 0.0833333 -101.875 -105)" d="M 6923.67,6643.8 L 6897.3,6703.72 L 6879.91,6693.57 L 6904.45,6637.83 L 6923.67,6643.8 Z " />
<path stroke="transparent" fill="#000000" transform="matrix(0.0833333 0 0 0.0833333 -101.875 -105)" d="M 6866.13,6625.92 L 6845.25,6673.35 L 6827.86,6663.21 L 6846.91,6619.95 L 6866.13,6625.92 Z " />
<path stroke="transparent" fill="#000000" transform="matrix(0.0833333 0 0 0.0833333 -101.875 -105)" d="M 6808.58,6608.04 L 6793.2,6642.99 L 6775.81,6632.85 L 6789.36,6602.07 L 6808.58,6608.04 Z " />
<path stroke="transparent" fill="#000000" transform="matrix(0.0833333 0 0 0.0833333 -101.875 -105)" d="M 6751.04,6590.16 L 6741.15,6612.63 L 6723.76,6602.49 L 6731.82,6584.18 L 6751.04,6590.16 Z " />
<path stroke="transparent" fill="#000000" transform="matrix(0.0833333 0 0 0.0833333 -101.875 -105)" d="M 6165.36,5571.27 L 6254.19,5490.6 L 6613.69,5959.49 L 6613.13,5975.13 L 6603.58,5979.86 L 6165.36,5571.27 Z " />
<path stroke="transparent" fill="#000000" transform="matrix(0.0833333 0 0 0.0833333 -101.875 -105)" d="M 6144.47,6138.21 L 6119.02,6020.94 L 6139.05,6018.92 L 6163.53,6131.74 L 6144.47,6138.21 Z " />
<path stroke="transparent" fill="#000000" transform="matrix(0.0833333 0 0 0.0833333 -101.875 -105)" d="M 6201.45,6118.87 L 6178.9,6014.92 L 6198.93,6012.91 L 6220.51,6112.4 L 6201.45,6118.87 Z " />
<path stroke="transparent" fill="#000000" transform="matrix(0.0833333 0 0 0.0833333 -101.875 -105)" d="M 6258.43,6099.53 L 6238.77,6008.91 L 6258.8,6006.9 L 6277.5,6093.06 L 6258.43,6099.53 Z " />
<path stroke="transparent" fill="#000000" transform="matrix(0.0833333 0 0 0.0833333 -101.875 -105)" d="M 6315.42,6080.19 L 6298.65,6002.89 L 6318.68,6000.88 L 6334.48,6073.72 L 6315.42,6080.19 Z " />
<path stroke="transparent" fill="#000000" transform="matrix(0.0833333 0 0 0.0833333 -101.875 -105)" d="M 6372.4,6060.85 L 6358.52,5996.88 L 6378.55,5994.87 L 6391.46,6054.38 L 6372.4,6060.85 Z " />
<path stroke="transparent" fill="#000000" transform="matrix(0.0833333 0 0 0.0833333 -101.875 -105)" d="M 6429.38,6041.51 L 6418.39,5990.86 L 6438.42,5988.85 L 6448.45,6035.05 L 6429.38,6041.51 Z " />
<path stroke="transparent" fill="#000000" transform="matrix(0.0833333 0 0 0.0833333 -101.875 -105)" d="M 6486.37,6022.18 L 6478.27,5984.85 L 6498.3,5982.84 L 6505.43,6015.71 L 6486.37,6022.18 Z " />
<path stroke="transparent" fill="#000000" transform="matrix(0.0833333 0 0 0.0833333 -101.875 -105)" d="M 6543.35,6002.84 L 6538.14,5978.83 L 6558.17,5976.82 L 6562.41,5996.37 L 6543.35,6002.84 Z " />
</svg>
