<?xml version="1.0" standalone="no" ?>
<!DOCTYPE svg PUBLIC "-//W3C//DTD SVG 1.1//EN" "http://www.w3.org/Graphics/SVG/1.1/DTD/svg11.dtd">
<svg width="210px" height="137px" viewBox="0 0 210 137" style="background-color: #ffffff00" xmlns="http://www.w3.org/2000/svg" xmlns:xlink="http://www.w3.org/1999/xlink" version="1.1" >
<text x="0" y="0" stroke="none" fill="#000000" transform="matrix(0.0666667 0 0 0.0666667 186.417 34.0727)" font-style="normal" font-weight="normal" font-size="200px" font-family="Arial" >
OH</text>
<text x="0" y="0" stroke="none" fill="#000000" transform="matrix(0.0666667 0 0 0.0666667 82.4943 14.0723)" font-style="normal" font-weight="normal" font-size="200px" font-family="Arial" >
O</text>
<text x="0" y="0" stroke="none" fill="#000000" transform="matrix(0.0666667 0 0 0.0666667 3.58122 14.0723)" font-style="normal" font-weight="normal" font-size="200px" font-family="Arial" >
HO</text>
<text x="0" y="0" stroke="none" fill="#000000" transform="matrix(0.0666667 0 0 0.0666667 3.58122 94.0713)" font-style="normal" font-weight="normal" font-size="200px" font-family="Arial" >
HO</text>
<text x="0" y="0" stroke="none" fill="#000000" transform="matrix(0.0666667 0 0 0.0666667 82.4943 134.072)" font-style="normal" font-weight="normal" font-size="200px" font-family="Arial" >
OH</text>
<text x="0" y="0" stroke="none" fill="#000000" transform="matrix(0.0666667 0 0 0.0666667 151.776 94.074)" font-style="normal" font-weight="normal" font-size="200px" font-family="Arial" >
OH</text>
<path stroke="none" fill="#000000" transform="matrix(0.0666667 0 0 0.0666667 -243.787 -219)" d="M 6006.44,3426.74 L 6016.44,3409.42 L 6443.43,3655.96 L 6433.43,3673.28 L 6006.44,3426.74 Z " />
<path stroke="none" fill="#000000" transform="matrix(0.0666667 0 0 0.0666667 -243.787 -219)" d="M 5934.59,3393.17 L 5994.59,3497.09 L 5976.26,3505.33 L 5918.29,3404.93 L 5934.59,3393.17 Z " />
<path stroke="none" fill="#000000" transform="matrix(0.0666667 0 0 0.0666667 -243.787 -219)" d="M 5886.52,3427.85 L 5940.52,3521.39 L 5922.18,3529.63 L 5870.21,3439.61 L 5886.52,3427.85 Z " />
<path stroke="none" fill="#000000" transform="matrix(0.0666667 0 0 0.0666667 -243.787 -219)" d="M 5838.44,3462.53 L 5886.45,3545.68 L 5868.11,3553.92 L 5822.13,3474.29 L 5838.44,3462.53 Z " />
<path stroke="none" fill="#000000" transform="matrix(0.0666667 0 0 0.0666667 -243.787 -219)" d="M 5790.36,3497.21 L 5832.37,3569.98 L 5814.04,3578.22 L 5774.06,3508.98 L 5790.36,3497.21 Z " />
<path stroke="none" fill="#000000" transform="matrix(0.0666667 0 0 0.0666667 -243.787 -219)" d="M 5742.28,3531.9 L 5778.3,3594.28 L 5759.96,3602.52 L 5725.98,3543.66 L 5742.28,3531.9 Z " />
<path stroke="none" fill="#000000" transform="matrix(0.0666667 0 0 0.0666667 -243.787 -219)" d="M 5694.2,3566.58 L 5724.23,3618.57 L 5705.89,3626.81 L 5677.9,3578.34 L 5694.2,3566.58 Z " />
<path stroke="none" fill="#000000" transform="matrix(0.0666667 0 0 0.0666667 -243.787 -219)" d="M 5646.13,3601.26 L 5670.15,3642.87 L 5651.82,3651.11 L 5629.82,3613.02 L 5646.13,3601.26 Z " />
<path stroke="none" fill="#000000" transform="matrix(0.0666667 0 0 0.0666667 -243.787 -219)" d="M 5598.05,3635.94 L 5616.08,3667.17 L 5597.74,3675.41 L 5581.75,3647.7 L 5598.05,3635.94 Z " />
<path stroke="none" fill="#000000" transform="matrix(0.0666667 0 0 0.0666667 -243.787 -219)" d="M 5549.97,3670.62 L 5562.01,3691.47 L 5543.67,3699.7 L 5533.67,3682.38 L 5549.97,3670.62 Z " />
<path stroke="none" fill="#000000" transform="matrix(0.0666667 0 0 0.0666667 -243.787 -219)" d="M 5067.25,3484.5 L 5077.25,3467.18 L 5501.83,3712.32 L 5481.83,3723.86 L 5067.25,3484.5 Z " />
<path stroke="none" fill="#000000" transform="matrix(0.0666667 0 0 0.0666667 -243.787 -219)" d="M 4867.61,3466.92 L 4877.61,3484.25 L 4462.6,3723.82 L 4452.6,3718.05 L 4453.17,3706.18 L 4867.61,3466.92 Z " />
<path stroke="none" fill="#000000" transform="matrix(0.0666667 0 0 0.0666667 -243.787 -219)" d="M 4002.99,3527.79 L 4062.98,3423.86 L 4453.17,3706.18 L 4452.6,3718.05 L 4442.6,3724.47 L 4002.99,3527.79 Z " />
<path stroke="none" fill="#000000" transform="matrix(0.0666667 0 0 0.0666667 -243.787 -219)" d="M 4442.6,3724.47 L 4452.6,3718.05 L 4462.6,3723.82 L 4462.6,4312.29 L 4452.6,4318.06 L 4442.6,4311.65 L 4442.6,3724.47 Z " />
<path stroke="none" fill="#000000" transform="matrix(0.0666667 0 0 0.0666667 -243.787 -219)" d="M 4055.56,4616.57 L 3995.56,4512.64 L 4442.6,4311.65 L 4452.6,4318.06 L 4453.16,4329.93 L 4055.56,4616.57 Z " />
<path stroke="none" fill="#000000" transform="matrix(0.0666667 0 0 0.0666667 -243.787 -219)" d="M 4453.16,4329.93 L 4452.6,4318.06 L 4462.6,4312.29 L 4972.21,4606.52 L 4972.21,4629.62 L 4453.16,4329.93 Z " />
<path stroke="none" fill="#000000" transform="matrix(0.0666667 0 0 0.0666667 -243.787 -219)" d="M 5032.21,5112.92 L 4912.21,5112.92 L 4914.48,5092.92 L 5029.95,5092.92 L 5032.21,5112.92 Z " />
<path stroke="none" fill="#000000" transform="matrix(0.0666667 0 0 0.0666667 -243.787 -219)" d="M 5025.4,5052.81 L 4919.03,5052.81 L 4921.3,5032.81 L 5023.13,5032.81 L 5025.4,5052.81 Z " />
<path stroke="none" fill="#000000" transform="matrix(0.0666667 0 0 0.0666667 -243.787 -219)" d="M 5018.58,4992.7 L 4925.85,4992.7 L 4928.12,4972.7 L 5016.31,4972.7 L 5018.58,4992.7 Z " />
<path stroke="none" fill="#000000" transform="matrix(0.0666667 0 0 0.0666667 -243.787 -219)" d="M 5011.76,4932.59 L 4932.67,4932.59 L 4934.94,4912.59 L 5009.49,4912.59 L 5011.76,4932.59 Z " />
<path stroke="none" fill="#000000" transform="matrix(0.0666667 0 0 0.0666667 -243.787 -219)" d="M 5004.94,4872.49 L 4939.49,4872.49 L 4941.76,4852.49 L 5002.67,4852.49 L 5004.94,4872.49 Z " />
<path stroke="none" fill="#000000" transform="matrix(0.0666667 0 0 0.0666667 -243.787 -219)" d="M 4998.12,4812.38 L 4946.31,4812.38 L 4948.58,4792.38 L 4995.85,4792.38 L 4998.12,4812.38 Z " />
<path stroke="none" fill="#000000" transform="matrix(0.0666667 0 0 0.0666667 -243.787 -219)" d="M 4991.3,4752.27 L 4953.13,4752.27 L 4955.4,4732.27 L 4989.03,4732.27 L 4991.3,4752.27 Z " />
<path stroke="none" fill="#000000" transform="matrix(0.0666667 0 0 0.0666667 -243.787 -219)" d="M 4984.48,4692.16 L 4959.95,4692.16 L 4962.21,4672.16 L 4982.21,4672.16 L 4984.48,4692.16 Z " />
<path stroke="none" fill="#000000" transform="matrix(0.0666667 0 0 0.0666667 -243.787 -219)" d="M 4972.21,4629.62 L 4972.21,4606.52 L 5481.83,4312.29 L 5491.83,4318.06 L 5491.27,4329.93 L 4972.21,4629.62 Z " />
<path stroke="none" fill="#000000" transform="matrix(0.0666667 0 0 0.0666667 -243.787 -219)" d="M 5501.83,4311.65 L 5491.83,4318.06 L 5481.83,4312.29 L 5481.83,3723.86 L 5501.83,3712.32 L 5501.83,4311.65 Z " />
<path stroke="none" fill="#000000" transform="matrix(0.0666667 0 0 0.0666667 -243.787 -219)" d="M 5948.83,4512.67 L 5888.82,4616.59 L 5491.27,4329.93 L 5491.83,4318.06 L 5501.83,4311.65 L 5948.83,4512.67 Z " />
</svg>
