<?xml version="1.0" standalone="no" ?>
<!DOCTYPE svg PUBLIC "-//W3C//DTD SVG 1.1//EN" "http://www.w3.org/Graphics/SVG/1.1/DTD/svg11.dtd">
<svg width="472px" height="339px" viewBox="0 0 472 339" style="background-color: #ffffff00" xmlns="http://www.w3.org/2000/svg" xmlns:xlink="http://www.w3.org/1999/xlink" version="1.1" >
<text x="0" y="0" stroke="transparent" fill="#000000" transform="matrix(0.0833333 0 0 0.0833333 339.164 266.284)" style="font:normal normal normal 200px 'Arial'" >
O</text>
<text x="0" y="0" stroke="transparent" fill="#000000" transform="matrix(0.0833333 0 0 0.0833333 276.161 303.281)" style="font:normal normal normal 200px 'Arial'" >
OH</text>
<text x="0" y="0" stroke="transparent" fill="#000000" transform="matrix(0.0833333 0 0 0.0833333 146.255 128.277)" style="font:normal normal normal 200px 'Arial'" >
O</text>
<text x="0" y="0" stroke="transparent" fill="#000000" transform="matrix(0.0833333 0 0 0.0833333 455.019 17.9889)" style="font:normal normal normal 200px 'Arial'" >
O</text>
<text x="0" y="0" stroke="transparent" fill="#000000" transform="matrix(0.0833333 0 0 0.0833333 4.31622 303.281)" style="font:normal normal normal 200px 'Arial'" >
HO</text>
<text x="0" y="0" stroke="transparent" fill="#000000" transform="matrix(0.0833333 0 0 0.0833333 414.567 97.3764)" style="font:normal normal normal 200px 'Arial'" >
O</text>
<text x="0" y="0" stroke="transparent" fill="#000000" transform="matrix(0.0833333 0 0 0.0833333 303.877 92.1518)" style="font:normal normal normal 200px 'Arial'" >
H</text>
<text x="0" y="0" stroke="transparent" fill="#000000" transform="matrix(0.0833333 0 0 0.0833333 146.754 328.279)" style="font:normal normal normal 200px 'Arial'" >
H</text>
<path stroke="transparent" fill="#000000" transform="matrix(0.0833333 0 0 0.0833333 -181.5 -165)" d="M 5692.34,4931.8 L 5573,4944.35 L 5572.73,4924.27 L 5688.43,4912.1 L 5692.34,4931.8 Z " />
<path stroke="transparent" fill="#000000" transform="matrix(0.0833333 0 0 0.0833333 -181.5 -165)" d="M 5680.9,4874.23 L 5572.21,4885.67 L 5571.94,4865.59 L 5676.99,4854.54 L 5680.9,4874.23 Z " />
<path stroke="transparent" fill="#000000" transform="matrix(0.0833333 0 0 0.0833333 -181.5 -165)" d="M 5669.47,4816.67 L 5571.42,4826.98 L 5571.14,4806.9 L 5665.55,4796.97 L 5669.47,4816.67 Z " />
<path stroke="transparent" fill="#000000" transform="matrix(0.0833333 0 0 0.0833333 -181.5 -165)" d="M 5658.03,4759.1 L 5570.62,4768.29 L 5570.35,4748.21 L 5654.12,4739.4 L 5658.03,4759.1 Z " />
<path stroke="transparent" fill="#000000" transform="matrix(0.0833333 0 0 0.0833333 -181.5 -165)" d="M 5646.59,4701.53 L 5569.83,4709.61 L 5569.56,4689.52 L 5642.68,4681.83 L 5646.59,4701.53 Z " />
<path stroke="transparent" fill="#000000" transform="matrix(0.0833333 0 0 0.0833333 -181.5 -165)" d="M 5635.16,4643.97 L 5569.04,4650.92 L 5568.77,4630.84 L 5631.24,4624.27 L 5635.16,4643.97 Z " />
<path stroke="transparent" fill="#000000" transform="matrix(0.0833333 0 0 0.0833333 -181.5 -165)" d="M 5623.72,4586.4 L 5568.25,4592.23 L 5567.98,4572.15 L 5619.81,4566.7 L 5623.72,4586.4 Z " />
<path stroke="transparent" fill="#000000" transform="matrix(0.0833333 0 0 0.0833333 -181.5 -165)" d="M 5612.28,4528.83 L 5567.46,4533.55 L 5567.19,4513.46 L 5608.37,4509.13 L 5612.28,4528.83 Z " />
<path stroke="transparent" fill="#000000" transform="matrix(0.0833333 0 0 0.0833333 -181.5 -165)" d="M 5600.85,4471.26 L 5566.67,4474.86 L 5566.4,4454.78 L 5596.93,4451.57 L 5600.85,4471.26 Z " />
<path stroke="transparent" fill="#000000" transform="matrix(0.0833333 0 0 0.0833333 -181.5 -165)" d="M 5589.41,4413.7 L 5565.88,4416.17 L 5565.6,4396.09 L 5585.5,4394 L 5589.41,4413.7 Z " />
<path stroke="transparent" fill="#000000" transform="matrix(0.0833333 0 0 0.0833333 -181.5 -165)" d="M 5509.92,3141.37 L 5629.92,3141.37 L 5581.1,3727.22 L 5569.92,3741.37 L 5558.4,3723.18 L 5509.92,3141.37 Z " />
<path stroke="transparent" fill="#000000" transform="matrix(0.0833333 0 0 0.0833333 -181.5 -165)" d="M 6088.74,4516.13 L 6107.76,4509.95 L 6268.5,5004.68 L 6249.48,5010.86 L 6088.74,4516.13 Z " />
<path stroke="transparent" fill="#000000" transform="matrix(0.0833333 0 0 0.0833333 -181.5 -165)" d="M 6157.21,4493.88 L 6176.24,4487.7 L 6336.98,4982.43 L 6317.95,4988.61 L 6157.21,4493.88 Z " />
<path stroke="transparent" fill="#000000" transform="matrix(0.0833333 0 0 0.0833333 -181.5 -165)" d="M 5507.31,5435.93 L 5447.31,5539.86 L 5049.74,5253.2 L 5050.3,5241.33 L 5060.3,5234.92 L 5507.31,5435.93 Z " />
<path stroke="transparent" fill="#000000" transform="matrix(0.0833333 0 0 0.0833333 -181.5 -165)" d="M 3951.09,4041.36 L 4071.09,4041.36 L 4022.61,4623.17 L 4011.09,4641.36 L 3999.57,4623.17 L 3951.09,4041.36 Z " />
<path stroke="transparent" fill="#000000" transform="matrix(0.0833333 0 0 0.0833333 -181.5 -165)" d="M 4571.7,3711.92 L 4561.69,3729.24 L 4124.1,3476.57 L 4134.1,3459.25 L 4571.7,3711.92 Z " />
<path stroke="transparent" fill="#000000" transform="matrix(0.0833333 0 0 0.0833333 -181.5 -165)" d="M 4535.69,3774.28 L 4525.69,3791.6 L 4088.09,3538.93 L 4098.09,3521.61 L 4535.69,3774.28 Z " />
<path stroke="transparent" fill="#000000" transform="matrix(0.0833333 0 0 0.0833333 -181.5 -165)" d="M 6959,3779.66 L 6849.38,3828.47 L 6842.92,3809.45 L 6949.2,3762.14 L 6959,3779.66 Z " />
<path stroke="transparent" fill="#000000" transform="matrix(0.0833333 0 0 0.0833333 -181.5 -165)" d="M 6930.34,3728.45 L 6830.5,3772.9 L 6824.04,3753.89 L 6920.54,3710.92 L 6930.34,3728.45 Z " />
<path stroke="transparent" fill="#000000" transform="matrix(0.0833333 0 0 0.0833333 -181.5 -165)" d="M 6901.68,3677.23 L 6811.61,3717.33 L 6805.15,3698.32 L 6891.88,3659.71 L 6901.68,3677.23 Z " />
<path stroke="transparent" fill="#000000" transform="matrix(0.0833333 0 0 0.0833333 -181.5 -165)" d="M 6873.02,3626.02 L 6792.73,3661.76 L 6786.27,3642.75 L 6863.22,3608.49 L 6873.02,3626.02 Z " />
<path stroke="transparent" fill="#000000" transform="matrix(0.0833333 0 0 0.0833333 -181.5 -165)" d="M 6844.36,3574.8 L 6773.85,3606.19 L 6767.39,3587.18 L 6834.55,3557.27 L 6844.36,3574.8 Z " />
<path stroke="transparent" fill="#000000" transform="matrix(0.0833333 0 0 0.0833333 -181.5 -165)" d="M 6815.7,3523.58 L 6754.97,3550.62 L 6748.51,3531.61 L 6805.89,3506.06 L 6815.7,3523.58 Z " />
<path stroke="transparent" fill="#000000" transform="matrix(0.0833333 0 0 0.0833333 -181.5 -165)" d="M 6787.04,3472.37 L 6736.09,3495.05 L 6729.63,3476.04 L 6777.23,3454.84 L 6787.04,3472.37 Z " />
<path stroke="transparent" fill="#000000" transform="matrix(0.0833333 0 0 0.0833333 -181.5 -165)" d="M 6758.38,3421.15 L 6717.21,3439.48 L 6710.74,3420.47 L 6748.57,3403.63 L 6758.38,3421.15 Z " />
<path stroke="transparent" fill="#000000" transform="matrix(0.0833333 0 0 0.0833333 -181.5 -165)" d="M 6729.72,3369.94 L 6698.32,3383.91 L 6691.86,3364.9 L 6719.91,3352.41 L 6729.72,3369.94 Z " />
<path stroke="transparent" fill="#000000" transform="matrix(0.0833333 0 0 0.0833333 -181.5 -165)" d="M 6701.06,3318.72 L 6679.44,3328.34 L 6672.98,3309.33 L 6691.25,3301.19 L 6701.06,3318.72 Z " />
<path stroke="transparent" fill="#000000" transform="matrix(0.0833333 0 0 0.0833333 -181.5 -165)" d="M 3476.11,5544.05 L 3491.43,5541.34 L 3491.43,5556.9 L 3113.43,6007.38 L 3098.11,5994.53 L 3476.11,5544.05 Z " />
<path stroke="transparent" fill="#000000" transform="matrix(0.0833333 0 0 0.0833333 -181.5 -165)" d="M 3491.43,5556.9 L 3491.43,5541.34 L 3506.75,5544.05 L 3884.75,5994.54 L 3869.43,6007.39 L 3491.43,5556.9 Z " />
<path stroke="transparent" fill="#000000" transform="matrix(0.0833333 0 0 0.0833333 -181.5 -165)" d="M 7236.69,2523.14 L 7224.94,2506.96 L 7637.26,2207.38 L 7649.01,2223.56 L 7236.69,2523.14 Z " />
<path stroke="transparent" fill="#000000" transform="matrix(0.0833333 0 0 0.0833333 -181.5 -165)" d="M 7194.38,2464.89 L 7182.62,2448.71 L 7594.94,2149.13 L 7606.69,2165.31 L 7194.38,2464.89 Z " />
<path stroke="transparent" fill="#000000" transform="matrix(0.0833333 0 0 0.0833333 -181.5 -165)" d="M 2574.84,5539.86 L 2514.84,5435.94 L 2961.84,5234.96 L 2971.84,5241.37 L 2972.39,5253.24 L 2574.84,5539.86 Z " />
<path stroke="transparent" fill="#000000" transform="matrix(0.0833333 0 0 0.0833333 -181.5 -165)" d="M 5060.29,4647.11 L 5050.29,4641.34 L 5050.29,4629.79 L 5559.9,4335.57 L 5569.9,4341.34 L 5571.04,4352.23 L 5060.29,4647.11 Z " />
<path stroke="transparent" fill="#000000" transform="matrix(0.0833333 0 0 0.0833333 -181.5 -165)" d="M 5559.92,3747.15 L 5569.92,3741.37 L 5579.92,3748.64 L 5579.9,4334.07 L 5569.9,4341.34 L 5559.9,4335.57 L 5559.92,3747.15 Z " />
<path stroke="transparent" fill="#000000" transform="matrix(0.0833333 0 0 0.0833333 -181.5 -165)" d="M 6136.75,4515.04 L 6144.39,4538.55 L 5571.04,4352.23 L 5569.9,4341.34 L 5579.9,4334.07 L 6136.75,4515.04 Z " />
<path stroke="transparent" fill="#000000" transform="matrix(0.0833333 0 0 0.0833333 -181.5 -165)" d="M 4530.7,4352.91 L 4530.7,4341.37 L 4540.7,4335.59 L 5050.29,4629.79 L 5050.29,4641.34 L 5040.29,4647.11 L 4530.7,4352.91 Z " />
<path stroke="transparent" fill="#000000" transform="matrix(0.0833333 0 0 0.0833333 -181.5 -165)" d="M 4597.69,4308.46 L 4607.69,4291.14 L 5055.29,4549.54 L 5045.29,4566.86 L 4597.69,4308.46 Z " />
<path stroke="transparent" fill="#000000" transform="matrix(0.0833333 0 0 0.0833333 -181.5 -165)" d="M 5060.3,5234.92 L 5050.3,5241.33 L 5040.3,5235.56 L 5040.29,4647.11 L 5050.29,4641.34 L 5060.29,4647.11 L 5060.3,5234.92 Z " />
<path stroke="transparent" fill="#000000" transform="matrix(0.0833333 0 0 0.0833333 -181.5 -165)" d="M 6136.42,3546.76 L 6140.51,3555.95 L 6136.69,3567.7 L 5579.92,3748.64 L 5569.92,3741.37 L 5581.1,3727.22 L 6136.42,3546.76 Z " />
<path stroke="transparent" fill="#000000" transform="matrix(0.0833333 0 0 0.0833333 -181.5 -165)" d="M 5050.3,3452.92 L 5050.3,3429.82 L 5558.4,3723.18 L 5569.92,3741.37 L 5559.92,3747.15 L 5050.3,3452.92 Z " />
<path stroke="transparent" fill="#000000" transform="matrix(0.0833333 0 0 0.0833333 -181.5 -165)" d="M 6480.87,4041.34 L 6505.59,4041.34 L 6144.39,4538.55 L 6136.75,4515.04 L 6480.87,4041.34 Z " />
<path stroke="transparent" fill="#000000" transform="matrix(0.0833333 0 0 0.0833333 -181.5 -165)" d="M 4021.09,4647.14 L 4011.09,4641.36 L 4022.61,4623.17 L 4520.7,4335.59 L 4530.7,4341.37 L 4530.7,4352.91 L 4021.09,4647.14 Z " />
<path stroke="transparent" fill="#000000" transform="matrix(0.0833333 0 0 0.0833333 -181.5 -165)" d="M 4520.69,3735.59 L 4540.69,3747.14 L 4540.7,4335.59 L 4530.7,4341.37 L 4520.7,4335.59 L 4520.69,3735.59 Z " />
<path stroke="transparent" fill="#000000" transform="matrix(0.0833333 0 0 0.0833333 -181.5 -165)" d="M 4530.69,5552.88 L 4530.69,5529.78 L 5040.3,5235.56 L 5050.3,5241.33 L 5049.74,5253.2 L 4530.69,5552.88 Z " />
<path stroke="transparent" fill="#000000" transform="matrix(0.0833333 0 0 0.0833333 -181.5 -165)" d="M 6505.59,4041.34 L 6480.87,4041.34 L 6136.69,3567.7 L 6140.51,3555.95 L 6155.13,3559.05 L 6505.59,4041.34 Z " />
<path stroke="transparent" fill="#000000" transform="matrix(0.0833333 0 0 0.0833333 -181.5 -165)" d="M 6645.54,3252.82 L 6660.15,3255.93 L 6664.24,3265.12 L 6155.13,3559.05 L 6140.51,3555.95 L 6136.42,3546.76 L 6645.54,3252.82 Z " />
<path stroke="transparent" fill="#000000" transform="matrix(0.0833333 0 0 0.0833333 -181.5 -165)" d="M 5895.97,3154.11 L 6005.6,3105.31 L 6011.52,3124.57 L 5906.32,3171.4 L 5895.97,3154.11 Z " />
<path stroke="transparent" fill="#000000" transform="matrix(0.0833333 0 0 0.0833333 -181.5 -165)" d="M 5924.98,3202.57 L 6022.19,3159.3 L 6028.11,3178.56 L 5935.33,3219.86 L 5924.98,3202.57 Z " />
<path stroke="transparent" fill="#000000" transform="matrix(0.0833333 0 0 0.0833333 -181.5 -165)" d="M 5953.99,3251.03 L 6038.78,3213.29 L 6044.7,3232.55 L 5964.34,3268.32 L 5953.99,3251.03 Z " />
<path stroke="transparent" fill="#000000" transform="matrix(0.0833333 0 0 0.0833333 -181.5 -165)" d="M 5983,3299.49 L 6055.38,3267.28 L 6061.29,3286.54 L 5993.35,3316.78 L 5983,3299.49 Z " />
<path stroke="transparent" fill="#000000" transform="matrix(0.0833333 0 0 0.0833333 -181.5 -165)" d="M 6012.01,3347.95 L 6071.97,3321.27 L 6077.89,3340.52 L 6022.36,3365.24 L 6012.01,3347.95 Z " />
<path stroke="transparent" fill="#000000" transform="matrix(0.0833333 0 0 0.0833333 -181.5 -165)" d="M 6041.02,3396.41 L 6088.56,3375.25 L 6094.48,3394.51 L 6051.37,3413.7 L 6041.02,3396.41 Z " />
<path stroke="transparent" fill="#000000" transform="matrix(0.0833333 0 0 0.0833333 -181.5 -165)" d="M 6070.03,3444.87 L 6105.15,3429.24 L 6111.07,3448.5 L 6080.38,3462.16 L 6070.03,3444.87 Z " />
<path stroke="transparent" fill="#000000" transform="matrix(0.0833333 0 0 0.0833333 -181.5 -165)" d="M 6099.04,3493.33 L 6121.74,3483.23 L 6127.66,3502.49 L 6109.39,3510.62 L 6099.04,3493.33 Z " />
<path stroke="transparent" fill="#000000" transform="matrix(0.0833333 0 0 0.0833333 -181.5 -165)" d="M 4540.69,3747.14 L 4520.69,3735.59 L 5050.3,3429.82 L 5050.3,3452.92 L 4540.69,3747.14 Z " />
<path stroke="transparent" fill="#000000" transform="matrix(0.0833333 0 0 0.0833333 -181.5 -165)" d="M 4021.07,5235.55 L 4011.07,5241.33 L 4001.07,5235.55 L 4001.09,4647.13 L 4011.09,4641.36 L 4021.09,4647.14 L 4021.07,5235.55 Z " />
<path stroke="transparent" fill="#000000" transform="matrix(0.0833333 0 0 0.0833333 -181.5 -165)" d="M 3491.48,4352.91 L 3491.48,4329.81 L 3999.57,4623.17 L 4011.09,4641.36 L 4001.09,4647.13 L 3491.48,4352.91 Z " />
<path stroke="transparent" fill="#000000" transform="matrix(0.0833333 0 0 0.0833333 -181.5 -165)" d="M 4011.07,5252.87 L 4011.07,5241.33 L 4021.07,5235.55 L 4530.69,5529.78 L 4530.69,5552.88 L 4011.07,5252.87 Z " />
<path stroke="transparent" fill="#000000" transform="matrix(0.0833333 0 0 0.0833333 -181.5 -165)" d="M 3506.75,5544.05 L 3491.43,5541.34 L 3491.43,5529.8 L 4001.07,5235.55 L 4011.07,5241.33 L 4011.07,5252.87 L 3506.75,5544.05 Z " />
<path stroke="transparent" fill="#000000" transform="matrix(0.0833333 0 0 0.0833333 -181.5 -165)" d="M 4071.05,5738.68 L 3951.05,5738.68 L 3953.31,5718.68 L 4068.79,5718.68 L 4071.05,5738.68 Z " />
<path stroke="transparent" fill="#000000" transform="matrix(0.0833333 0 0 0.0833333 -181.5 -165)" d="M 4064.23,5678.21 L 3957.87,5678.2 L 3960.13,5658.2 L 4061.98,5658.21 L 4064.23,5678.21 Z " />
<path stroke="transparent" fill="#000000" transform="matrix(0.0833333 0 0 0.0833333 -181.5 -165)" d="M 4057.41,5617.74 L 3964.7,5617.73 L 3966.95,5597.73 L 4055.16,5597.74 L 4057.41,5617.74 Z " />
<path stroke="transparent" fill="#000000" transform="matrix(0.0833333 0 0 0.0833333 -181.5 -165)" d="M 4050.6,5557.26 L 3971.52,5557.26 L 3973.78,5537.26 L 4048.34,5537.26 L 4050.6,5557.26 Z " />
<path stroke="transparent" fill="#000000" transform="matrix(0.0833333 0 0 0.0833333 -181.5 -165)" d="M 4043.78,5496.79 L 3978.34,5496.78 L 3980.6,5476.79 L 4041.52,5476.79 L 4043.78,5496.79 Z " />
<path stroke="transparent" fill="#000000" transform="matrix(0.0833333 0 0 0.0833333 -181.5 -165)" d="M 4036.96,5436.31 L 3985.17,5436.31 L 3987.42,5416.31 L 4034.71,5416.31 L 4036.96,5436.31 Z " />
<path stroke="transparent" fill="#000000" transform="matrix(0.0833333 0 0 0.0833333 -181.5 -165)" d="M 4030.14,5375.84 L 3991.99,5375.84 L 3994.25,5355.84 L 4027.89,5355.84 L 4030.14,5375.84 Z " />
<path stroke="transparent" fill="#000000" transform="matrix(0.0833333 0 0 0.0833333 -181.5 -165)" d="M 4023.33,5315.37 L 3998.81,5315.37 L 4001.07,5295.37 L 4021.07,5295.37 L 4023.33,5315.37 Z " />
<path stroke="transparent" fill="#000000" transform="matrix(0.0833333 0 0 0.0833333 -181.5 -165)" d="M 2981.83,4647.15 L 2961.83,4635.6 L 3491.48,4329.81 L 3491.48,4352.91 L 2981.83,4647.15 Z " />
<path stroke="transparent" fill="#000000" transform="matrix(0.0833333 0 0 0.0833333 -181.5 -165)" d="M 2972.39,5253.24 L 2971.84,5241.37 L 2981.84,5235.6 L 3491.43,5529.8 L 3491.43,5541.34 L 3476.11,5544.05 L 2972.39,5253.24 Z " />
<path stroke="transparent" fill="#000000" transform="matrix(0.0833333 0 0 0.0833333 -181.5 -165)" d="M 2981.84,5235.6 L 2971.84,5241.37 L 2961.84,5234.96 L 2961.83,4635.6 L 2981.83,4647.15 L 2981.84,5235.6 Z " />
<path stroke="transparent" fill="#000000" transform="matrix(0.0833333 0 0 0.0833333 -181.5 -165)" d="M 7121.23,3095.6 L 7127.41,3114.63 L 6664.24,3265.12 L 6660.15,3255.93 L 6663.97,3244.17 L 7121.23,3095.6 Z " />
<path stroke="transparent" fill="#000000" transform="matrix(0.0833333 0 0 0.0833333 -181.5 -165)" d="M 6295.13,2770.55 L 6319.85,2770.55 L 6663.97,3244.17 L 6660.15,3255.93 L 6645.54,3252.82 L 6295.13,2770.55 Z " />
<path stroke="transparent" fill="#000000" transform="matrix(0.0833333 0 0 0.0833333 -181.5 -165)" d="M 7220.82,2477.81 L 7240.82,2463.29 L 7240.8,2965.35 L 7220.8,2965.35 L 7220.82,2477.81 Z " />
<path stroke="transparent" fill="#000000" transform="matrix(0.0833333 0 0 0.0833333 -181.5 -165)" d="M 6656.36,2273.32 L 6664,2296.83 L 6319.85,2770.55 L 6295.13,2770.55 L 6656.36,2273.32 Z " />
<path stroke="transparent" fill="#000000" transform="matrix(0.0833333 0 0 0.0833333 -181.5 -165)" d="M 6664,2296.83 L 6656.36,2273.32 L 7240.82,2463.29 L 7220.82,2477.81 L 6664,2296.83 Z " />
</svg>
