<?xml version="1.0" standalone="no" ?>
<!DOCTYPE svg PUBLIC "-//W3C//DTD SVG 1.1//EN" "http://www.w3.org/Graphics/SVG/1.1/DTD/svg11.dtd">
<svg width="481px" height="417px" viewBox="0 0 481 417" style="background-color: #ffffff00" xmlns="http://www.w3.org/2000/svg" xmlns:xlink="http://www.w3.org/1999/xlink" version="1.1" >
<text x="0" y="0" stroke="transparent" fill="#000000" transform="matrix(0.0833333 0 0 0.0833333 189.858 213.323)" style="font:normal normal normal 200px 'Arial'" >
H</text>
<path stroke="transparent" fill="#000000" transform="matrix(0.0833333 0 0 0.0833333 -128.333 -170.167)" d="M 4857.29,3584.55 L 4770.52,3669.42 L 4458.55,3151.92 L 4462.99,3139.98 L 4474.24,3137.78 L 4857.29,3584.55 Z " />
<path stroke="transparent" fill="#000000" transform="matrix(0.0833333 0 0 0.0833333 -128.333 -170.167)" d="M 4464.25,4122.55 L 4456.67,4099.02 L 4770.52,3669.42 L 4857.29,3584.55 L 4464.25,4122.55 Z " />
<path stroke="transparent" fill="#000000" transform="matrix(0.0833333 0 0 0.0833333 -128.333 -170.167)" d="M 3891.42,3934.76 L 3890.3,3923.87 L 3900.32,3916.63 L 4456.67,4099.02 L 4464.25,4122.55 L 3891.42,3934.76 Z " />
<path stroke="transparent" fill="#000000" transform="matrix(0.0833333 0 0 0.0833333 -128.333 -170.167)" d="M 3379.89,4228.34 L 3369.9,4222.54 L 3369.93,4210.99 L 3880.31,3918.07 L 3890.3,3923.87 L 3891.42,3934.76 L 3379.89,4228.34 Z " />
<path stroke="transparent" fill="#000000" transform="matrix(0.0833333 0 0 0.0833333 -128.333 -170.167)" d="M 2841.09,3926.93 L 2861.12,3915.43 L 3369.93,4210.99 L 3369.9,4222.54 L 3359.89,4228.29 L 2841.09,3926.93 Z " />
<path stroke="transparent" fill="#000000" transform="matrix(0.0833333 0 0 0.0833333 -128.333 -170.167)" d="M 2842.67,3315.4 L 2862.64,3327 L 2861.12,3915.43 L 2841.09,3926.93 L 2842.67,3315.4 Z " />
<path stroke="transparent" fill="#000000" transform="matrix(0.0833333 0 0 0.0833333 -128.333 -170.167)" d="M 3373.08,3010.98 L 3373.02,3034.07 L 2862.64,3327 L 2842.67,3315.4 L 3373.08,3010.98 Z " />
<path stroke="transparent" fill="#000000" transform="matrix(0.0833333 0 0 0.0833333 -128.333 -170.167)" d="M 3880.37,3305.68 L 3891.89,3323.94 L 3881.88,3329.69 L 3373.02,3034.07 L 3373.08,3010.98 L 3880.37,3305.68 Z " />
<path stroke="transparent" fill="#000000" transform="matrix(0.0833333 0 0 0.0833333 -128.333 -170.167)" d="M 3901.87,3331.23 L 3891.89,3323.94 L 3903.07,3309.84 L 4455.08,3132.02 L 4462.99,3139.98 L 4458.55,3151.92 L 3901.87,3331.23 Z " />
<path stroke="transparent" fill="#000000" transform="matrix(0.0833333 0 0 0.0833333 -128.333 -170.167)" d="M 3881.88,3329.69 L 3891.89,3323.94 L 3901.87,3331.23 L 3900.32,3916.63 L 3890.3,3923.87 L 3880.31,3918.07 L 3881.88,3329.69 Z " />
<path stroke="transparent" fill="#000000" transform="matrix(0.0833333 0 0 0.0833333 -128.333 -170.167)" d="M 3831.89,2723.94 L 3951.89,2723.94 L 3903.07,3309.84 L 3891.89,3323.94 L 3880.37,3305.68 L 3831.89,2723.94 Z " />
<path stroke="transparent" fill="#000000" transform="matrix(0.0833333 0 0 0.0833333 -128.333 -170.167)" d="M 5240.67,2435.67 L 5233.48,2457.61 L 4657.61,2578.42 L 4642.2,2561.22 L 5240.67,2435.67 Z " />
<path stroke="transparent" fill="#000000" transform="matrix(0.0833333 0 0 0.0833333 -128.333 -170.167)" d="M 4204.9,2162.92 L 4294.29,2082.86 L 4306.27,2098.98 L 4219.61,2176.6 L 4204.9,2162.92 Z " />
<path stroke="transparent" fill="#000000" transform="matrix(0.0833333 0 0 0.0833333 -128.333 -170.167)" d="M 4247.87,2202.88 L 4329.29,2129.96 L 4341.27,2146.08 L 4262.58,2216.55 L 4247.87,2202.88 Z " />
<path stroke="transparent" fill="#000000" transform="matrix(0.0833333 0 0 0.0833333 -128.333 -170.167)" d="M 4290.85,2242.83 L 4364.29,2177.05 L 4376.27,2193.17 L 4305.56,2256.51 L 4290.85,2242.83 Z " />
<path stroke="transparent" fill="#000000" transform="matrix(0.0833333 0 0 0.0833333 -128.333 -170.167)" d="M 4333.82,2282.79 L 4399.29,2224.15 L 4411.27,2240.27 L 4348.53,2296.47 L 4333.82,2282.79 Z " />
<path stroke="transparent" fill="#000000" transform="matrix(0.0833333 0 0 0.0833333 -128.333 -170.167)" d="M 4376.79,2322.75 L 4434.29,2271.25 L 4446.27,2287.37 L 4391.5,2336.42 L 4376.79,2322.75 Z " />
<path stroke="transparent" fill="#000000" transform="matrix(0.0833333 0 0 0.0833333 -128.333 -170.167)" d="M 4419.77,2362.7 L 4469.29,2318.35 L 4481.27,2334.47 L 4434.48,2376.38 L 4419.77,2362.7 Z " />
<path stroke="transparent" fill="#000000" transform="matrix(0.0833333 0 0 0.0833333 -128.333 -170.167)" d="M 4462.74,2402.66 L 4504.29,2365.45 L 4516.27,2381.57 L 4477.45,2416.33 L 4462.74,2402.66 Z " />
<path stroke="transparent" fill="#000000" transform="matrix(0.0833333 0 0 0.0833333 -128.333 -170.167)" d="M 4505.71,2442.61 L 4539.29,2412.54 L 4551.27,2428.66 L 4520.42,2456.29 L 4505.71,2442.61 Z " />
<path stroke="transparent" fill="#000000" transform="matrix(0.0833333 0 0 0.0833333 -128.333 -170.167)" d="M 4548.69,2482.57 L 4574.29,2459.64 L 4586.27,2475.76 L 4563.4,2496.25 L 4548.69,2482.57 Z " />
<path stroke="transparent" fill="#000000" transform="matrix(0.0833333 0 0 0.0833333 -128.333 -170.167)" d="M 4591.66,2522.53 L 4609.29,2506.74 L 4621.27,2522.86 L 4606.37,2536.2 L 4591.66,2522.53 Z " />
<path stroke="transparent" fill="#000000" transform="matrix(0.0833333 0 0 0.0833333 -128.333 -170.167)" d="M 4642.2,2561.22 L 4657.61,2578.42 L 4474.24,3137.78 L 4462.99,3139.98 L 4455.08,3132.02 L 4642.2,2561.22 Z " />
<path stroke="transparent" fill="#000000" transform="matrix(0.0833333 0 0 0.0833333 -128.333 -170.167)" d="M 3950.3,4421.2 L 3830.3,4421.2 L 3832.56,4401.2 L 3948.04,4401.2 L 3950.3,4421.2 Z " />
<path stroke="transparent" fill="#000000" transform="matrix(0.0833333 0 0 0.0833333 -128.333 -170.167)" d="M 3943.48,4360.73 L 3837.12,4360.73 L 3839.38,4340.73 L 3941.22,4340.73 L 3943.48,4360.73 Z " />
<path stroke="transparent" fill="#000000" transform="matrix(0.0833333 0 0 0.0833333 -128.333 -170.167)" d="M 3936.66,4300.26 L 3843.94,4300.26 L 3846.2,4280.26 L 3934.4,4280.26 L 3936.66,4300.26 Z " />
<path stroke="transparent" fill="#000000" transform="matrix(0.0833333 0 0 0.0833333 -128.333 -170.167)" d="M 3929.84,4239.79 L 3850.76,4239.79 L 3853.02,4219.79 L 3927.58,4219.79 L 3929.84,4239.79 Z " />
<path stroke="transparent" fill="#000000" transform="matrix(0.0833333 0 0 0.0833333 -128.333 -170.167)" d="M 3923.02,4179.32 L 3857.58,4179.32 L 3859.84,4159.32 L 3920.76,4159.32 L 3923.02,4179.32 Z " />
<path stroke="transparent" fill="#000000" transform="matrix(0.0833333 0 0 0.0833333 -128.333 -170.167)" d="M 3916.2,4118.85 L 3864.4,4118.85 L 3866.66,4098.85 L 3913.94,4098.85 L 3916.2,4118.85 Z " />
<path stroke="transparent" fill="#000000" transform="matrix(0.0833333 0 0 0.0833333 -128.333 -170.167)" d="M 3909.38,4058.38 L 3871.22,4058.38 L 3873.48,4038.38 L 3907.12,4038.38 L 3909.38,4058.38 Z " />
<path stroke="transparent" fill="#000000" transform="matrix(0.0833333 0 0 0.0833333 -128.333 -170.167)" d="M 3902.56,3997.91 L 3878.04,3997.91 L 3880.3,3977.91 L 3900.3,3977.91 L 3902.56,3997.91 Z " />
<path stroke="transparent" fill="#000000" transform="matrix(0.0833333 0 0 0.0833333 -128.333 -170.167)" d="M 5640.97,2882.61 L 5633.78,2904.56 L 5233.48,2457.61 L 5240.67,2435.67 L 5640.97,2882.61 Z " />
<path stroke="transparent" fill="#000000" transform="matrix(0.0833333 0 0 0.0833333 -128.333 -170.167)" d="M 6228.19,2759.42 L 6220.99,2781.36 L 5633.78,2904.56 L 5640.97,2882.61 L 6228.19,2759.42 Z " />
<path stroke="transparent" fill="#000000" transform="matrix(0.0833333 0 0 0.0833333 -128.333 -170.167)" d="M 6628.49,3206.36 L 6624.89,3217.34 L 6613.59,3219.71 L 6220.99,2781.36 L 6228.19,2759.42 L 6628.49,3206.36 Z " />
<path stroke="transparent" fill="#000000" transform="matrix(0.0833333 0 0 0.0833333 -128.333 -170.167)" d="M 7210.05,3084.35 L 7214.16,3103.93 L 6645.03,3223.33 L 6624.89,3217.34 L 6628.49,3206.36 L 7210.05,3084.35 Z " />
<path stroke="transparent" fill="#000000" transform="matrix(0.0833333 0 0 0.0833333 -128.333 -170.167)" d="M 6447.48,3790.59 L 6428.47,3784.36 L 6613.59,3219.71 L 6624.89,3217.34 L 6629.33,3235.91 L 6447.48,3790.59 Z " />
<text x="0" y="0" stroke="transparent" fill="#000000" transform="matrix(0.0833333 0 0 0.0833333 452.596 139.8)" style="font:normal normal normal 200px 'Arial'" >
OH</text>
<path stroke="transparent" fill="#000000" transform="matrix(0.0833333 0 0 0.0833333 -128.333 -170.167)" d="M 6980.86,3559.16 L 6966.72,3573.3 L 6629.33,3235.91 L 6624.89,3217.34 L 6645.03,3223.33 L 6980.86,3559.16 Z " />
<path stroke="transparent" fill="#000000" transform="matrix(0.0833333 0 0 0.0833333 -128.333 -170.167)" d="M 3378.32,4828.34 L 3358.35,4816.74 L 3359.89,4228.29 L 3369.9,4222.54 L 3379.89,4228.34 L 3378.32,4828.34 Z " />
<path stroke="transparent" fill="#000000" transform="matrix(0.0833333 0 0 0.0833333 -128.333 -170.167)" d="M 3306.45,4780.81 L 3286.45,4780.75 L 3287.79,4263.89 L 3307.79,4263.94 L 3306.45,4780.81 Z " />
<path stroke="transparent" fill="#000000" transform="matrix(0.0833333 0 0 0.0833333 -128.333 -170.167)" d="M 2857.94,5126.97 L 2837.94,5115.39 L 3358.35,4816.74 L 3378.32,4828.34 L 2857.94,5126.97 Z " />
<path stroke="transparent" fill="#000000" transform="matrix(0.0833333 0 0 0.0833333 -128.333 -170.167)" d="M 2857.94,5715.41 L 2847.94,5721.18 L 2837.94,5715.41 L 2837.94,5115.39 L 2857.94,5126.97 L 2857.94,5715.41 Z " />
<path stroke="transparent" fill="#000000" transform="matrix(0.0833333 0 0 0.0833333 -128.333 -170.167)" d="M 2929.94,5679.61 L 2909.94,5679.61 L 2909.94,5162.87 L 2929.94,5162.87 L 2929.94,5679.61 Z " />
<path stroke="transparent" fill="#000000" transform="matrix(0.0833333 0 0 0.0833333 -128.333 -170.167)" d="M 2338.33,6026.95 L 2318.33,6015.41 L 2837.94,5715.41 L 2847.94,5721.18 L 2847.94,5732.73 L 2338.33,6026.95 Z " />
<path stroke="transparent" fill="#000000" transform="matrix(0.0833333 0 0 0.0833333 -128.333 -170.167)" d="M 2338.33,6615.41 L 2318.33,6626.95 L 2318.33,6015.41 L 2338.33,6026.95 L 2338.33,6615.41 Z " />
<path stroke="transparent" fill="#000000" transform="matrix(0.0833333 0 0 0.0833333 -128.333 -170.167)" d="M 2847.94,6909.63 L 2847.94,6932.73 L 2318.33,6626.95 L 2338.33,6615.41 L 2847.94,6909.63 Z " />
<path stroke="transparent" fill="#000000" transform="matrix(0.0833333 0 0 0.0833333 -128.333 -170.167)" d="M 3357.56,6615.41 L 3367.56,6621.18 L 3367,6633.05 L 2847.94,6932.73 L 2847.94,6909.63 L 3357.56,6615.41 Z " />
<path stroke="transparent" fill="#000000" transform="matrix(0.0833333 0 0 0.0833333 -128.333 -170.167)" d="M 3357.56,6026.95 L 3377.56,6015.41 L 3377.56,6614.77 L 3367.56,6621.18 L 3357.56,6615.41 L 3357.56,6026.95 Z " />
<path stroke="transparent" fill="#000000" transform="matrix(0.0833333 0 0 0.0833333 -128.333 -170.167)" d="M 2847.94,5732.73 L 2847.94,5721.18 L 2857.94,5715.41 L 3377.56,6015.41 L 3357.56,6026.95 L 2847.94,5732.73 Z " />
<path stroke="transparent" fill="#000000" transform="matrix(0.0833333 0 0 0.0833333 -128.333 -170.167)" d="M 3864.17,5681.34 L 3874.17,5698.66 L 3336.56,6009.06 L 3326.56,5991.74 L 3864.17,5681.34 Z " />
<path stroke="transparent" fill="#000000" transform="matrix(0.0833333 0 0 0.0833333 -128.333 -170.167)" d="M 3900.17,5743.7 L 3910.17,5761.02 L 3372.56,6071.41 L 3362.56,6054.09 L 3900.17,5743.7 Z " />
<text x="0" y="0" stroke="transparent" fill="#000000" transform="matrix(0.0833333 0 0 0.0833333 3.85642 413.098)" style="font:normal normal normal 200px 'Arial'" >
HO</text>
<path stroke="transparent" fill="#000000" transform="matrix(0.0833333 0 0 0.0833333 -128.333 -170.167)" d="M 1931.32,6919.67 L 1871.32,6815.75 L 1889.78,6807.72 L 1947.5,6907.7 L 1931.32,6919.67 Z " />
<path stroke="transparent" fill="#000000" transform="matrix(0.0833333 0 0 0.0833333 -128.333 -170.167)" d="M 1979.76,6883.84 L 1926.57,6791.72 L 1945.03,6783.69 L 1995.94,6871.86 L 1979.76,6883.84 Z " />
<path stroke="transparent" fill="#000000" transform="matrix(0.0833333 0 0 0.0833333 -128.333 -170.167)" d="M 2028.19,6848 L 1981.83,6767.69 L 2000.29,6759.67 L 2044.37,6836.03 L 2028.19,6848 Z " />
<path stroke="transparent" fill="#000000" transform="matrix(0.0833333 0 0 0.0833333 -128.333 -170.167)" d="M 2076.63,6812.16 L 2037.08,6743.66 L 2055.54,6735.64 L 2092.81,6800.19 L 2076.63,6812.16 Z " />
<path stroke="transparent" fill="#000000" transform="matrix(0.0833333 0 0 0.0833333 -128.333 -170.167)" d="M 2125.07,6776.33 L 2092.33,6719.64 L 2110.79,6711.61 L 2141.25,6764.35 L 2125.07,6776.33 Z " />
<path stroke="transparent" fill="#000000" transform="matrix(0.0833333 0 0 0.0833333 -128.333 -170.167)" d="M 2173.5,6740.49 L 2147.59,6695.61 L 2166.05,6687.58 L 2189.68,6728.52 L 2173.5,6740.49 Z " />
<path stroke="transparent" fill="#000000" transform="matrix(0.0833333 0 0 0.0833333 -128.333 -170.167)" d="M 2221.94,6704.65 L 2202.84,6671.58 L 2221.3,6663.55 L 2238.12,6692.68 L 2221.94,6704.65 Z " />
<path stroke="transparent" fill="#000000" transform="matrix(0.0833333 0 0 0.0833333 -128.333 -170.167)" d="M 2270.37,6668.82 L 2258.1,6647.55 L 2276.55,6639.52 L 2286.55,6656.84 L 2270.37,6668.82 Z " />
<text x="0" y="0" stroke="transparent" fill="#000000" transform="matrix(0.0833333 0 0 0.0833333 189.098 413.098)" style="font:normal normal normal 200px 'Arial'" >
OH</text>
<path stroke="transparent" fill="#000000" transform="matrix(0.0833333 0 0 0.0833333 -128.333 -170.167)" d="M 3824.55,6815.75 L 3764.55,6919.67 L 3367,6633.05 L 3367.56,6621.18 L 3377.56,6614.77 L 3824.55,6815.75 Z " />
</svg>
