<?xml version="1.0" standalone="no" ?>
<!DOCTYPE svg PUBLIC "-//W3C//DTD SVG 1.1//EN" "http://www.w3.org/Graphics/SVG/1.1/DTD/svg11.dtd">
<svg width="234px" height="137px" viewBox="0 0 234 137" style="background-color: #ffffff00" xmlns="http://www.w3.org/2000/svg" xmlns:xlink="http://www.w3.org/1999/xlink" version="1.1" >
<text x="0" y="0" stroke="transparent" fill="#000000" transform="matrix(0.0666667 0 0 0.0666667 72.3655 14.074)" style="font:normal normal normal 200px 'Arial'" >
O</text>
<text x="0" y="0" stroke="transparent" fill="#000000" transform="matrix(0.0666667 0 0 0.0666667 141.648 14.074)" style="font:normal normal normal 200px 'Arial'" >
OH</text>
<text x="0" y="0" stroke="transparent" fill="#000000" transform="matrix(0.0666667 0 0 0.0666667 176.285 34.0734)" style="font:normal normal normal 200px 'Arial'" >
O</text>
<text x="0" y="0" stroke="transparent" fill="#000000" transform="matrix(0.0666667 0 0 0.0666667 210.926 94.0716)" style="font:normal normal normal 200px 'Arial'" >
OH</text>
<text x="0" y="0" stroke="transparent" fill="#000000" transform="matrix(0.0666667 0 0 0.0666667 37.7241 34.0734)" style="font:normal normal normal 200px 'Arial'" >
OH</text>
<text x="0" y="0" stroke="transparent" fill="#000000" transform="matrix(0.0666667 0 0 0.0666667 3.08755 94.0716)" style="font:normal normal normal 200px 'Arial'" >
O</text>
<text x="0" y="0" stroke="transparent" fill="#000000" transform="matrix(0.0666667 0 0 0.0666667 141.648 134.07)" style="font:normal normal normal 200px 'Arial'" >
OH</text>
<path stroke="transparent" fill="#000000" transform="matrix(0.0666667 0 0 0.0666667 -231.859 -197)" d="M 5690.6,4293.85 L 5680.6,4288.07 L 5680.6,4276.53 L 6200.15,3976.54 L 6200.15,3999.63 L 5690.6,4293.85 Z " />
<path stroke="transparent" fill="#000000" transform="matrix(0.0666667 0 0 0.0666667 -231.859 -197)" d="M 5201.98,3358.66 L 5191.98,3375.98 L 4754.4,3123.35 L 4764.4,3106.03 L 5201.98,3358.66 Z " />
<path stroke="transparent" fill="#000000" transform="matrix(0.0666667 0 0 0.0666667 -231.859 -197)" d="M 5165.98,3421.01 L 5155.98,3438.33 L 4718.4,3185.7 L 4728.4,3168.38 L 5165.98,3421.01 Z " />
<path stroke="transparent" fill="#000000" transform="matrix(0.0666667 0 0 0.0666667 -231.859 -197)" d="M 5170.98,3393.87 L 5150.98,3382.33 L 5576,3136.95 L 5586,3154.27 L 5170.98,3393.87 Z " />
<path stroke="transparent" fill="#000000" transform="matrix(0.0666667 0 0 0.0666667 -231.859 -197)" d="M 6246.15,4008.87 L 6226.15,4008.87 L 6226.15,3507.93 L 6246.15,3507.93 L 6246.15,4008.87 Z " />
<path stroke="transparent" fill="#000000" transform="matrix(0.0666667 0 0 0.0666667 -231.859 -197)" d="M 6174.15,4008.87 L 6154.15,4008.87 L 6154.15,3507.93 L 6174.15,3507.93 L 6174.15,4008.87 Z " />
<path stroke="transparent" fill="#000000" transform="matrix(0.0666667 0 0 0.0666667 -231.859 -197)" d="M 6200.15,3999.63 L 6200.15,3976.54 L 6632.15,4225.94 L 6622.15,4243.26 L 6200.15,3999.63 Z " />
<path stroke="transparent" fill="#000000" transform="matrix(0.0666667 0 0 0.0666667 -231.859 -197)" d="M 4111.74,3507.93 L 4131.74,3507.93 L 4131.74,3982.31 L 4111.74,3993.86 L 4111.74,3507.93 Z " />
<path stroke="transparent" fill="#000000" transform="matrix(0.0666667 0 0 0.0666667 -231.859 -197)" d="M 4111.74,3993.86 L 4131.74,3982.31 L 4641.36,4276.53 L 4641.36,4299.62 L 4111.74,3993.86 Z " />
<path stroke="transparent" fill="#000000" transform="matrix(0.0666667 0 0 0.0666667 -231.859 -197)" d="M 3717.81,4274.43 L 3707.81,4257.11 L 4152.74,4000.2 L 4162.74,4017.52 L 3717.81,4274.43 Z " />
<path stroke="transparent" fill="#000000" transform="matrix(0.0666667 0 0 0.0666667 -231.859 -197)" d="M 3681.81,4212.08 L 3671.81,4194.76 L 4116.74,3937.86 L 4126.74,3955.18 L 3681.81,4212.08 Z " />
<path stroke="transparent" fill="#000000" transform="matrix(0.0666667 0 0 0.0666667 -231.859 -197)" d="M 4641.36,4299.62 L 4641.36,4276.53 L 5150.98,3982.31 L 5160.98,3988.08 L 5160.98,3999.63 L 4641.36,4299.62 Z " />
<path stroke="transparent" fill="#000000" transform="matrix(0.0666667 0 0 0.0666667 -231.859 -197)" d="M 5160.98,3999.63 L 5160.98,3988.08 L 5170.98,3982.31 L 5680.6,4276.53 L 5680.6,4288.07 L 5670.6,4293.85 L 5160.98,3999.63 Z " />
<path stroke="transparent" fill="#000000" transform="matrix(0.0666667 0 0 0.0666667 -231.859 -197)" d="M 5170.98,3982.31 L 5160.98,3988.08 L 5150.98,3982.31 L 5150.98,3382.33 L 5170.98,3393.87 L 5170.98,3982.31 Z " />
<path stroke="transparent" fill="#000000" transform="matrix(0.0666667 0 0 0.0666667 -231.859 -197)" d="M 5690.6,4782.89 L 5670.6,4782.89 L 5670.6,4293.85 L 5680.6,4288.07 L 5690.6,4293.85 L 5690.6,4782.89 Z " />
</svg>
