<?xml version="1.0" standalone="no" ?>
<!DOCTYPE svg PUBLIC "-//W3C//DTD SVG 1.1//EN" "http://www.w3.org/Graphics/SVG/1.1/DTD/svg11.dtd">
<svg width="165px" height="78px" viewBox="0 0 165 78" style="background-color: #ffffff00" xmlns="http://www.w3.org/2000/svg" xmlns:xlink="http://www.w3.org/1999/xlink" version="1.1" >
<text x="0" y="0" stroke="transparent" fill="#000000" transform="matrix(0.0666667 0 0 0.0666667 102.057 74.4944)" style="font:normal normal normal 200px 'Arial'" >
O</text>
<text x="0" y="0" stroke="transparent" fill="#000000" transform="matrix(0.0666667 0 0 0.0666667 137.094 14.4945)" style="font:normal normal normal 200px 'Arial'" >
NH</text>
<text x="0" y="0" stroke="transparent" fill="#000000" transform="matrix(0.0666667 0 0 0.0666667 156.352 17.4278)" style="font:normal normal normal 150px 'Arial'" >
2</text>
<path stroke="transparent" fill="#000000" transform="matrix(0.0666667 0 0 0.0666667 -266.425 -274)" d="M 5559.23,4528.64 L 5579.23,4528.64 L 5579.23,5044.25 L 5559.23,5044.25 L 5559.23,4528.64 Z " />
<path stroke="transparent" fill="#000000" transform="matrix(0.0666667 0 0 0.0666667 -266.425 -274)" d="M 5631.23,4528.63 L 5651.23,4528.63 L 5651.23,5044.25 L 5631.23,5044.25 L 5631.23,4528.63 Z " />
<path stroke="transparent" fill="#000000" transform="matrix(0.0666667 0 0 0.0666667 -266.425 -274)" d="M 5605.23,4560.96 L 5605.23,4537.87 L 6008.87,4304.8 L 6018.87,4322.12 L 5605.23,4560.96 Z " />
<path stroke="transparent" fill="#000000" transform="matrix(0.0666667 0 0 0.0666667 -266.425 -274)" d="M 5085.52,4237.87 L 5085.52,4260.96 L 4575.95,4555.19 L 4565.95,4549.42 L 4565.95,4537.87 L 5085.52,4237.87 Z " />
<path stroke="transparent" fill="#000000" transform="matrix(0.0666667 0 0 0.0666667 -266.425 -274)" d="M 4041.32,4258.08 L 4051.32,4240.76 L 4565.95,4537.87 L 4565.95,4549.42 L 4555.95,4555.19 L 4041.32,4258.08 Z " />
<path stroke="transparent" fill="#000000" transform="matrix(0.0666667 0 0 0.0666667 -266.425 -274)" d="M 4575.95,5149.42 L 4555.95,5149.42 L 4555.95,4555.19 L 4565.95,4549.42 L 4575.95,4555.19 L 4575.95,5149.42 Z " />
<path stroke="transparent" fill="#000000" transform="matrix(0.0666667 0 0 0.0666667 -266.425 -274)" d="M 5605.23,4537.87 L 5605.23,4560.96 L 5085.52,4260.96 L 5085.52,4237.87 L 5605.23,4537.87 Z " />
</svg>
