<?xml version="1.0" standalone="no" ?>
<!DOCTYPE svg PUBLIC "-//W3C//DTD SVG 1.1//EN" "http://www.w3.org/Graphics/SVG/1.1/DTD/svg11.dtd">
<svg width="355px" height="472px" viewBox="0 0 355 472" style="background-color: #ffffff00" xmlns="http://www.w3.org/2000/svg" xmlns:xlink="http://www.w3.org/1999/xlink" version="1.1" >
<text x="0" y="0" stroke="transparent" fill="#000000" transform="matrix(0.0833333 0 0 0.0833333 84.0809 142.81)" style="font:normal normal normal 200px 'Arial'" >
O</text>
<text x="0" y="0" stroke="transparent" fill="#000000" transform="matrix(0.0833333 0 0 0.0833333 257.295 342.814)" style="font:normal normal normal 200px 'Arial'" >
O</text>
<text x="0" y="0" stroke="transparent" fill="#000000" transform="matrix(0.0833333 0 0 0.0833333 40.7799 117.809)" style="font:normal normal normal 200px 'Arial'" >
O</text>
<text x="0" y="0" stroke="transparent" fill="#000000" transform="matrix(0.0833333 0 0 0.0833333 300.596 367.815)" style="font:normal normal normal 200px 'Arial'" >
O</text>
<text x="0" y="0" stroke="transparent" fill="#000000" transform="matrix(0.0833333 0 0 0.0833333 40.7799 17.8073)" style="font:normal normal normal 200px 'Arial'" >
O</text>
<text x="0" y="0" stroke="transparent" fill="#000000" transform="matrix(0.0833333 0 0 0.0833333 300.596 467.817)" style="font:normal normal normal 200px 'Arial'" >
O</text>
<text x="0" y="0" stroke="transparent" fill="#000000" transform="matrix(0.0833333 0 0 0.0833333 257.795 92.8089)" style="font:normal normal normal 200px 'Arial'" >
N</text>
<text x="0" y="0" stroke="transparent" fill="#000000" transform="matrix(0.0833333 0 0 0.0833333 84.5859 392.815)" style="font:normal normal normal 200px 'Arial'" >
N</text>
<text x="0" y="0" stroke="transparent" fill="#000000" transform="matrix(0.0833333 0 0 0.0833333 193.238 154.615)" style="font:normal normal normal 200px 'Arial'" >
H</text>
<text x="0" y="0" stroke="transparent" fill="#000000" transform="matrix(0.0833333 0 0 0.0833333 149.137 331.009)" style="font:normal normal normal 200px 'Arial'" >
H</text>
<path stroke="transparent" fill="#000000" transform="matrix(0.0833333 0 0 0.0833333 -258.792 -127)" d="M 4692.14,2859.71 L 4712.14,2859.71 L 4717.14,2868.37 L 4290.09,3114.91 L 4280.09,3097.59 L 4692.14,2859.71 Z " />
<path stroke="transparent" fill="#000000" transform="matrix(0.0833333 0 0 0.0833333 -258.792 -127)" d="M 4202.47,3753.96 L 4192.47,3759.73 L 4182.47,3753.96 L 4182.47,3279.55 L 4202.47,3279.55 L 4202.47,3753.96 Z " />
<path stroke="transparent" fill="#000000" transform="matrix(0.0833333 0 0 0.0833333 -258.792 -127)" d="M 5771.37,5859.78 L 5751.36,5859.78 L 5746.36,5851.12 L 6166.43,5608.61 L 6176.43,5625.94 L 5771.37,5859.78 Z " />
<path stroke="transparent" fill="#000000" transform="matrix(0.0833333 0 0 0.0833333 -258.792 -127)" d="M 6261.04,4965.53 L 6271.04,4959.76 L 6281.04,4965.53 L 6281.04,5454.61 L 6261.04,5454.61 L 6261.04,4965.53 Z " />
<path stroke="transparent" fill="#000000" transform="matrix(0.0833333 0 0 0.0833333 -258.792 -127)" d="M 4182.47,2553.93 L 4192.47,2559.71 L 4192.47,2571.25 L 3770.48,2814.9 L 3760.48,2797.58 L 4182.47,2553.93 Z " />
<path stroke="transparent" fill="#000000" transform="matrix(0.0833333 0 0 0.0833333 -258.792 -127)" d="M 3148.25,2568.37 L 3158.25,2551.05 L 3585.24,2797.58 L 3575.24,2814.9 L 3148.25,2568.37 Z " />
<path stroke="transparent" fill="#000000" transform="matrix(0.0833333 0 0 0.0833333 -258.792 -127)" d="M 6281.04,6165.56 L 6271.04,6159.79 L 6271.04,6148.24 L 6686.04,5908.63 L 6696.04,5925.95 L 6281.04,6165.56 Z " />
<path stroke="transparent" fill="#000000" transform="matrix(0.0833333 0 0 0.0833333 -258.792 -127)" d="M 7315.26,6151.13 L 7305.26,6168.45 L 6885.68,5926.2 L 6895.68,5908.88 L 7315.26,6151.13 Z " />
<path stroke="transparent" fill="#000000" transform="matrix(0.0833333 0 0 0.0833333 -258.792 -127)" d="M 4192.47,1948.15 L 4192.47,1959.69 L 4182.47,1965.47 L 3767.89,1726.11 L 3777.89,1708.78 L 4192.47,1948.15 Z " />
<path stroke="transparent" fill="#000000" transform="matrix(0.0833333 0 0 0.0833333 -258.792 -127)" d="M 6271.04,6771.35 L 6271.04,6759.8 L 6281.04,6754.03 L 6703.03,6997.67 L 6693.03,7014.99 L 6271.04,6771.35 Z " />
<path stroke="transparent" fill="#000000" transform="matrix(0.0833333 0 0 0.0833333 -258.792 -127)" d="M 5771.37,2859.71 L 5751.36,2859.71 L 5751.36,2848.17 L 6155.91,2614.62 L 6165.91,2631.94 L 5771.37,2859.71 Z " />
<path stroke="transparent" fill="#000000" transform="matrix(0.0833333 0 0 0.0833333 -258.792 -127)" d="M 6261.04,1965.47 L 6281.04,1953.92 L 6281.04,2457.04 L 6261.04,2457.04 L 6261.04,1965.47 Z " />
<path stroke="transparent" fill="#000000" transform="matrix(0.0833333 0 0 0.0833333 -258.792 -127)" d="M 6795.65,2851.05 L 6785.65,2868.37 L 6376.16,2631.95 L 6386.16,2614.63 L 6795.65,2851.05 Z " />
<path stroke="transparent" fill="#000000" transform="matrix(0.0833333 0 0 0.0833333 -258.792 -127)" d="M 4692.14,5859.78 L 4712.14,5859.78 L 4712.14,5871.33 L 4301.31,6108.53 L 4291.31,6091.21 L 4692.14,5859.78 Z " />
<path stroke="transparent" fill="#000000" transform="matrix(0.0833333 0 0 0.0833333 -258.792 -127)" d="M 4202.53,6754.03 L 4182.53,6765.57 L 4182.53,6277.12 L 4202.53,6277.12 L 4202.53,6754.03 Z " />
<path stroke="transparent" fill="#000000" transform="matrix(0.0833333 0 0 0.0833333 -258.792 -127)" d="M 3667.86,5868.44 L 3677.86,5851.12 L 4093.75,6091.21 L 4083.75,6108.54 L 3667.86,5868.44 Z " />
<path stroke="transparent" fill="#000000" transform="matrix(0.0833333 0 0 0.0833333 -258.792 -127)" d="M 5231.75,2571.25 L 5231.75,2559.71 L 5241.75,2553.93 L 5751.36,2848.17 L 5751.36,2859.71 L 5736.59,2862.73 L 5231.75,2571.25 Z " />
<path stroke="transparent" fill="#000000" transform="matrix(0.0833333 0 0 0.0833333 -258.792 -127)" d="M 6281.04,3153.95 L 6261.04,3165.49 L 5756.14,2874.02 L 5751.36,2859.71 L 5771.37,2859.71 L 6281.04,3153.95 Z " />
<path stroke="transparent" fill="#000000" transform="matrix(0.0833333 0 0 0.0833333 -258.792 -127)" d="M 5609.46,3225.49 L 5505.53,3165.49 L 5736.59,2862.73 L 5751.36,2859.71 L 5756.14,2874.02 L 5609.46,3225.49 Z " />
<path stroke="transparent" fill="#000000" transform="matrix(0.0833333 0 0 0.0833333 -258.792 -127)" d="M 5231.75,6148.24 L 5231.75,6159.79 L 5221.75,6165.56 L 4712.14,5871.33 L 4712.14,5859.78 L 4726.96,5856.78 L 5231.75,6148.24 Z " />
<path stroke="transparent" fill="#000000" transform="matrix(0.0833333 0 0 0.0833333 -258.792 -127)" d="M 4182.53,5565.55 L 4202.53,5554 L 4707.33,5845.45 L 4712.14,5859.78 L 4692.14,5859.78 L 4182.53,5565.55 Z " />
<path stroke="transparent" fill="#000000" transform="matrix(0.0833333 0 0 0.0833333 -258.792 -127)" d="M 4847.95,5504.56 L 4951.87,5564.57 L 4726.96,5856.78 L 4712.14,5859.78 L 4707.33,5845.45 L 4847.95,5504.56 Z " />
<path stroke="transparent" fill="#000000" transform="matrix(0.0833333 0 0 0.0833333 -258.792 -127)" d="M 5221.75,1965.47 L 5231.75,1959.69 L 5241.75,1965.47 L 5241.75,2553.93 L 5231.75,2559.71 L 5221.75,2553.93 L 5221.75,1965.47 Z " />
<path stroke="transparent" fill="#000000" transform="matrix(0.0833333 0 0 0.0833333 -258.792 -127)" d="M 4717.14,2868.37 L 4712.14,2859.71 L 4712.14,2848.17 L 5221.75,2553.93 L 5231.75,2559.71 L 5231.75,2571.25 L 4717.14,2868.37 Z " />
<path stroke="transparent" fill="#000000" transform="matrix(0.0833333 0 0 0.0833333 -258.792 -127)" d="M 4717.14,2785.24 L 4707.14,2767.92 L 5154.75,2509.48 L 5164.75,2526.8 L 4717.14,2785.24 Z " />
<path stroke="transparent" fill="#000000" transform="matrix(0.0833333 0 0 0.0833333 -258.792 -127)" d="M 5241.75,6754.03 L 5231.75,6759.8 L 5221.75,6754.03 L 5221.75,6165.56 L 5231.75,6159.79 L 5241.75,6165.56 L 5241.75,6754.03 Z " />
<path stroke="transparent" fill="#000000" transform="matrix(0.0833333 0 0 0.0833333 -258.792 -127)" d="M 5746.36,5851.12 L 5751.36,5859.78 L 5751.36,5871.33 L 5241.75,6165.56 L 5231.75,6159.79 L 5231.75,6148.24 L 5746.36,5851.12 Z " />
<path stroke="transparent" fill="#000000" transform="matrix(0.0833333 0 0 0.0833333 -258.792 -127)" d="M 5746.37,5934.26 L 5756.37,5951.58 L 5308.75,6210.01 L 5298.75,6192.69 L 5746.37,5934.26 Z " />
<path stroke="transparent" fill="#000000" transform="matrix(0.0833333 0 0 0.0833333 -258.792 -127)" d="M 5751.36,1671.23 L 5751.36,1648.14 L 6281.04,1953.92 L 6261.04,1965.47 L 5751.36,1671.23 Z " />
<path stroke="transparent" fill="#000000" transform="matrix(0.0833333 0 0 0.0833333 -258.792 -127)" d="M 4712.14,7048.26 L 4712.14,7071.35 L 4182.53,6765.57 L 4202.53,6754.03 L 4712.14,7048.26 Z " />
<path stroke="transparent" fill="#000000" transform="matrix(0.0833333 0 0 0.0833333 -258.792 -127)" d="M 5751.36,1648.14 L 5751.36,1671.23 L 5241.75,1965.47 L 5231.75,1959.69 L 5231.75,1948.15 L 5751.36,1648.14 Z " />
<path stroke="transparent" fill="#000000" transform="matrix(0.0833333 0 0 0.0833333 -258.792 -127)" d="M 4712.14,1671.23 L 4712.14,1648.14 L 5231.75,1948.15 L 5231.75,1959.69 L 5221.75,1965.47 L 4712.14,1671.23 Z " />
<path stroke="transparent" fill="#000000" transform="matrix(0.0833333 0 0 0.0833333 -258.792 -127)" d="M 4707.14,1751.49 L 4717.14,1734.17 L 5164.75,1992.6 L 5154.75,2009.92 L 4707.14,1751.49 Z " />
<path stroke="transparent" fill="#000000" transform="matrix(0.0833333 0 0 0.0833333 -258.792 -127)" d="M 4712.14,7071.35 L 4712.14,7048.26 L 5221.75,6754.03 L 5231.75,6759.8 L 5231.75,6771.35 L 4712.14,7071.35 Z " />
<path stroke="transparent" fill="#000000" transform="matrix(0.0833333 0 0 0.0833333 -258.792 -127)" d="M 5751.36,7048.26 L 5751.36,7071.35 L 5231.75,6771.35 L 5231.75,6759.8 L 5241.75,6754.03 L 5751.36,7048.26 Z " />
<path stroke="transparent" fill="#000000" transform="matrix(0.0833333 0 0 0.0833333 -258.792 -127)" d="M 5756.37,6968.01 L 5746.37,6985.33 L 5298.75,6726.89 L 5308.75,6709.57 L 5756.37,6968.01 Z " />
<path stroke="transparent" fill="#000000" transform="matrix(0.0833333 0 0 0.0833333 -258.792 -127)" d="M 6281.04,3753.96 L 6271.04,3759.73 L 6261.04,3753.96 L 6261.04,3165.49 L 6281.04,3153.95 L 6281.04,3753.96 Z " />
<path stroke="transparent" fill="#000000" transform="matrix(0.0833333 0 0 0.0833333 -258.792 -127)" d="M 4182.53,4965.53 L 4192.53,4959.76 L 4202.53,4965.53 L 4202.53,5554 L 4182.53,5565.55 L 4182.53,4965.53 Z " />
<path stroke="transparent" fill="#000000" transform="matrix(0.0833333 0 0 0.0833333 -258.792 -127)" d="M 4192.47,2571.25 L 4192.47,2559.71 L 4202.47,2553.93 L 4712.14,2848.17 L 4712.14,2859.71 L 4692.14,2859.71 L 4192.47,2571.25 Z " />
<path stroke="transparent" fill="#000000" transform="matrix(0.0833333 0 0 0.0833333 -258.792 -127)" d="M 6271.04,6148.24 L 6271.04,6159.79 L 6261.04,6165.56 L 5751.36,5871.33 L 5751.36,5859.78 L 5771.37,5859.78 L 6271.04,6148.24 Z " />
<path stroke="transparent" fill="#000000" transform="matrix(0.0833333 0 0 0.0833333 -258.792 -127)" d="M 5761.36,4065.51 L 5741.36,4053.97 L 6261.04,3753.96 L 6271.04,3759.73 L 6271.04,3771.28 L 5761.36,4065.51 Z " />
<path stroke="transparent" fill="#000000" transform="matrix(0.0833333 0 0 0.0833333 -258.792 -127)" d="M 5828.37,4109.98 L 5818.37,4092.65 L 6266.03,3834.22 L 6276.03,3851.54 L 5828.37,4109.98 Z " />
<path stroke="transparent" fill="#000000" transform="matrix(0.0833333 0 0 0.0833333 -258.792 -127)" d="M 6800.65,4053.97 L 6780.65,4065.51 L 6271.04,3771.28 L 6271.04,3759.73 L 6281.04,3753.96 L 6800.65,4053.97 Z " />
<path stroke="transparent" fill="#000000" transform="matrix(0.0833333 0 0 0.0833333 -258.792 -127)" d="M 4702.14,4653.98 L 4722.14,4665.53 L 4202.53,4965.53 L 4192.53,4959.76 L 4192.53,4948.21 L 4702.14,4653.98 Z " />
<path stroke="transparent" fill="#000000" transform="matrix(0.0833333 0 0 0.0833333 -258.792 -127)" d="M 4635.14,4609.52 L 4645.14,4626.84 L 4197.53,4885.28 L 4187.53,4867.96 L 4635.14,4609.52 Z " />
<path stroke="transparent" fill="#000000" transform="matrix(0.0833333 0 0 0.0833333 -258.792 -127)" d="M 3662.86,4665.53 L 3682.86,4653.98 L 4192.53,4948.21 L 4192.53,4959.76 L 4182.53,4965.53 L 3662.86,4665.53 Z " />
<path stroke="transparent" fill="#000000" transform="matrix(0.0833333 0 0 0.0833333 -258.792 -127)" d="M 4202.47,1965.47 L 4192.47,1959.69 L 4192.47,1948.15 L 4712.14,1648.14 L 4712.14,1671.23 L 4202.47,1965.47 Z " />
<path stroke="transparent" fill="#000000" transform="matrix(0.0833333 0 0 0.0833333 -258.792 -127)" d="M 6261.04,6754.03 L 6271.04,6759.8 L 6271.04,6771.35 L 5751.36,7071.35 L 5751.36,7048.26 L 6261.04,6754.03 Z " />
<path stroke="transparent" fill="#000000" transform="matrix(0.0833333 0 0 0.0833333 -258.792 -127)" d="M 4182.47,1965.47 L 4192.47,1959.69 L 4202.47,1965.47 L 4202.47,2553.93 L 4192.47,2559.71 L 4182.47,2553.93 L 4182.47,1965.47 Z " />
<path stroke="transparent" fill="#000000" transform="matrix(0.0833333 0 0 0.0833333 -258.792 -127)" d="M 4254.47,2001.27 L 4274.47,2001.27 L 4274.47,2518.14 L 4254.47,2518.14 L 4254.47,2001.27 Z " />
<path stroke="transparent" fill="#000000" transform="matrix(0.0833333 0 0 0.0833333 -258.792 -127)" d="M 6281.04,6754.03 L 6271.04,6759.8 L 6261.04,6754.03 L 6261.04,6165.56 L 6271.04,6159.79 L 6281.04,6165.56 L 6281.04,6754.03 Z " />
<path stroke="transparent" fill="#000000" transform="matrix(0.0833333 0 0 0.0833333 -258.792 -127)" d="M 6209.03,6718.23 L 6189.03,6718.23 L 6189.03,6201.36 L 6209.03,6201.36 L 6209.03,6718.23 Z " />
<path stroke="transparent" fill="#000000" transform="matrix(0.0833333 0 0 0.0833333 -258.792 -127)" d="M 5761.36,4653.98 L 5741.36,4665.53 L 5741.36,4053.97 L 5761.36,4065.51 L 5761.36,4653.98 Z " />
<path stroke="transparent" fill="#000000" transform="matrix(0.0833333 0 0 0.0833333 -258.792 -127)" d="M 4702.14,4065.51 L 4722.14,4053.97 L 4722.14,4665.53 L 4702.14,4653.98 L 4702.14,4065.51 Z " />
<path stroke="transparent" fill="#000000" transform="matrix(0.0833333 0 0 0.0833333 -258.792 -127)" d="M 6800.65,4665.53 L 6780.65,4653.98 L 6780.65,4065.51 L 6800.65,4053.97 L 6800.65,4665.53 Z " />
<path stroke="transparent" fill="#000000" transform="matrix(0.0833333 0 0 0.0833333 -258.792 -127)" d="M 6728.65,4618.18 L 6708.65,4618.18 L 6708.65,4101.31 L 6728.65,4101.31 L 6728.65,4618.18 Z " />
<path stroke="transparent" fill="#000000" transform="matrix(0.0833333 0 0 0.0833333 -258.792 -127)" d="M 3662.86,4053.97 L 3682.86,4065.51 L 3682.86,4653.98 L 3662.86,4665.53 L 3662.86,4053.97 Z " />
<path stroke="transparent" fill="#000000" transform="matrix(0.0833333 0 0 0.0833333 -258.792 -127)" d="M 3734.86,4101.31 L 3754.86,4101.31 L 3754.86,4618.18 L 3734.86,4618.18 L 3734.86,4101.31 Z " />
<path stroke="transparent" fill="#000000" transform="matrix(0.0833333 0 0 0.0833333 -258.792 -127)" d="M 4722.14,4053.97 L 4702.14,4065.51 L 4192.47,3771.28 L 4192.47,3759.73 L 4202.47,3753.96 L 4722.14,4053.97 Z " />
<path stroke="transparent" fill="#000000" transform="matrix(0.0833333 0 0 0.0833333 -258.792 -127)" d="M 4645.14,4092.65 L 4635.14,4109.98 L 4187.47,3851.54 L 4197.47,3834.22 L 4645.14,4092.65 Z " />
<path stroke="transparent" fill="#000000" transform="matrix(0.0833333 0 0 0.0833333 -258.792 -127)" d="M 3682.86,4065.51 L 3662.86,4053.97 L 4182.47,3753.96 L 4192.47,3759.73 L 4192.47,3771.28 L 3682.86,4065.51 Z " />
<path stroke="transparent" fill="#000000" transform="matrix(0.0833333 0 0 0.0833333 -258.792 -127)" d="M 5741.36,4665.53 L 5761.36,4653.98 L 6271.04,4948.21 L 6271.04,4959.76 L 6261.04,4965.53 L 5741.36,4665.53 Z " />
<path stroke="transparent" fill="#000000" transform="matrix(0.0833333 0 0 0.0833333 -258.792 -127)" d="M 5818.37,4626.84 L 5828.37,4609.52 L 6276.03,4867.95 L 6266.03,4885.27 L 5818.37,4626.84 Z " />
<path stroke="transparent" fill="#000000" transform="matrix(0.0833333 0 0 0.0833333 -258.792 -127)" d="M 6780.65,4653.98 L 6800.65,4665.53 L 6281.04,4965.53 L 6271.04,4959.76 L 6271.04,4948.21 L 6780.65,4653.98 Z " />
<path stroke="transparent" fill="#000000" transform="matrix(0.0833333 0 0 0.0833333 -258.792 -127)" d="M 7305.26,6751.15 L 7315.26,6768.47 L 6888.27,7014.99 L 6878.27,6997.67 L 7305.26,6751.15 Z " />
<path stroke="transparent" fill="#000000" transform="matrix(0.0833333 0 0 0.0833333 -258.792 -127)" d="M 3158.24,1968.34 L 3148.24,1951.02 L 3568.26,1708.53 L 3578.26,1725.85 L 3158.24,1968.34 Z " />
</svg>
