<?xml version="1.0" standalone="no" ?>
<!DOCTYPE svg PUBLIC "-//W3C//DTD SVG 1.1//EN" "http://www.w3.org/Graphics/SVG/1.1/DTD/svg11.dtd">
<svg width="145px" height="197px" viewBox="0 0 145 197" style="background-color: #ffffff00" xmlns="http://www.w3.org/2000/svg" xmlns:xlink="http://www.w3.org/1999/xlink" version="1.1" >
<path stroke="transparent" fill="#000000" transform="matrix(0.0833333 0 0 0.0833333 -355.333 -269)" d="M 5418.98,4684.54 L 5438.98,4684.54 L 5438.97,5161.45 L 5428.97,5167.23 L 5418.97,5161.45 L 5418.98,4684.54 Z " />
<path stroke="transparent" fill="#000000" transform="matrix(0.0833333 0 0 0.0833333 -355.333 -269)" d="M 5330.2,4498.63 L 5320.2,4515.95 L 4909.36,4278.75 L 4909.36,4267.21 L 4919.82,4261.7 L 5330.2,4498.63 Z " />
<path stroke="transparent" fill="#000000" transform="matrix(0.0833333 0 0 0.0833333 -355.333 -269)" d="M 5324.36,3416.08 L 5334.36,3433.4 L 4971.38,3642.96 L 4851.19,3689.25 L 5324.36,3416.08 Z " />
<path stroke="transparent" fill="#000000" transform="matrix(0.0833333 0 0 0.0833333 -355.333 -269)" d="M 4466.78,3464.81 L 4476.78,3447.49 L 4914.36,3700.13 L 4904.36,3717.45 L 4466.78,3464.81 Z " />
<path stroke="transparent" fill="#000000" transform="matrix(0.0833333 0 0 0.0833333 -355.333 -269)" d="M 4502.78,3402.46 L 4512.78,3385.14 L 4950.36,3637.77 L 4940.36,3655.09 L 4502.78,3402.46 Z " />
<path stroke="transparent" fill="#000000" transform="matrix(0.0833333 0 0 0.0833333 -355.333 -269)" d="M 4851.19,3689.25 L 4971.38,3642.96 L 4919.82,4261.7 L 4909.36,4267.21 L 4898.91,4261.7 L 4851.19,3689.25 Z " />
<path stroke="transparent" fill="#000000" transform="matrix(0.0833333 0 0 0.0833333 -355.333 -269)" d="M 4399.74,4573 L 4379.74,4561.45 L 4898.91,4261.7 L 4909.36,4267.21 L 4909.36,4278.75 L 4399.74,4573 Z " />
<path stroke="transparent" fill="#000000" transform="matrix(0.0833333 0 0 0.0833333 -355.333 -269)" d="M 4379.74,4561.45 L 4399.74,4573 L 4399.74,5161.44 L 4379.74,5172.99 L 4379.74,4561.45 Z " />
<path stroke="transparent" fill="#000000" transform="matrix(0.0833333 0 0 0.0833333 -355.333 -269)" d="M 4379.74,5172.99 L 4399.74,5161.44 L 4810.58,5398.64 L 4800.58,5415.96 L 4379.74,5172.99 Z " />
<path stroke="transparent" fill="#000000" transform="matrix(0.0833333 0 0 0.0833333 -355.333 -269)" d="M 5018.14,5415.96 L 5008.14,5398.64 L 5418.97,5161.45 L 5428.97,5167.23 L 5428.97,5178.77 L 5018.14,5415.96 Z " />
<path stroke="transparent" fill="#000000" transform="matrix(0.0833333 0 0 0.0833333 -355.333 -269)" d="M 4982.14,5353.61 L 4972.14,5336.29 L 5351.97,5117 L 5361.97,5134.32 L 4982.14,5353.61 Z " />
<path stroke="transparent" fill="#000000" transform="matrix(0.0833333 0 0 0.0833333 -355.333 -269)" d="M 5428.97,5178.77 L 5428.97,5167.23 L 5438.97,5161.45 L 5953.58,5458.57 L 5943.58,5475.89 L 5428.97,5178.77 Z " />
<text x="0" y="0" stroke="transparent" fill="#000000" transform="matrix(0.0833333 0 0 0.0833333 91.0817 118.1)" style="font:normal normal normal 200px 'Arial'" >
NH</text>
<text x="0" y="0" stroke="transparent" fill="#000000" transform="matrix(0.0833333 0 0 0.0833333 90.5804 18.1026)" style="font:normal normal normal 200px 'Arial'" >
OH</text>
<text x="0" y="0" stroke="transparent" fill="#000000" transform="matrix(0.0833333 0 0 0.0833333 3.97846 18.1015)" style="font:normal normal normal 200px 'Arial'" >
O</text>
<text x="0" y="0" stroke="transparent" fill="#000000" transform="matrix(0.0833333 0 0 0.0833333 47.78 193.101)" style="font:normal normal normal 200px 'Arial'" >
N</text>
</svg>
