<?xml version="1.0" standalone="no" ?>
<!DOCTYPE svg PUBLIC "-//W3C//DTD SVG 1.1//EN" "http://www.w3.org/Graphics/SVG/1.1/DTD/svg11.dtd">
<svg width="329px" height="191px" viewBox="0 0 329 191" style="background-color: #ffffff00" xmlns="http://www.w3.org/2000/svg" xmlns:xlink="http://www.w3.org/1999/xlink" version="1.1" >
<path stroke="transparent" fill="#000000" transform="matrix(0.0833333 0 0 0.0833333 -271.5 -257)" d="M 3921.86,4376.39 L 3911.86,4359.07 L 4333.87,4115.42 L 4343.87,4121.19 L 4343.87,4132.74 L 3921.86,4376.39 Z " />
<path stroke="transparent" fill="#000000" transform="matrix(0.0833333 0 0 0.0833333 -271.5 -257)" d="M 4353.87,4115.42 L 4343.87,4121.19 L 4333.87,4115.42 L 4333.87,3527.01 L 4343.87,3521.24 L 4353.87,3527.01 L 4353.87,4115.42 Z " />
<path stroke="transparent" fill="#000000" transform="matrix(0.0833333 0 0 0.0833333 -271.5 -257)" d="M 4343.87,4132.74 L 4343.87,4121.19 L 4353.87,4115.42 L 4863.48,4409.65 L 4863.48,4421.2 L 4853.48,4426.97 L 4343.87,4132.74 Z " />
<path stroke="transparent" fill="#000000" transform="matrix(0.0833333 0 0 0.0833333 -271.5 -257)" d="M 4410.87,4088.28 L 4420.87,4070.96 L 4868.48,4329.4 L 4858.48,4346.72 L 4410.87,4088.28 Z " />
<path stroke="transparent" fill="#000000" transform="matrix(0.0833333 0 0 0.0833333 -271.5 -257)" d="M 4348.87,5329.94 L 4338.87,5312.62 L 4758.87,5070.12 L 4768.87,5087.44 L 4348.87,5329.94 Z " />
<path stroke="transparent" fill="#000000" transform="matrix(0.0833333 0 0 0.0833333 -271.5 -257)" d="M 4873.48,4916.1 L 4853.48,4916.1 L 4853.48,4426.97 L 4863.48,4421.2 L 4873.48,4426.97 L 4873.48,4916.1 Z " />
<path stroke="transparent" fill="#000000" transform="matrix(0.0833333 0 0 0.0833333 -271.5 -257)" d="M 4873.48,4426.97 L 4863.48,4421.2 L 4863.48,4409.65 L 5373.09,4115.42 L 5393.09,4126.96 L 4873.48,4426.97 Z " />
<path stroke="transparent" fill="#000000" transform="matrix(0.0833333 0 0 0.0833333 -271.5 -257)" d="M 5393.09,4126.96 L 5373.09,4115.42 L 5373.09,3527.01 L 5383.09,3521.24 L 5393.09,3527.01 L 5393.09,4126.96 Z " />
<path stroke="transparent" fill="#000000" transform="matrix(0.0833333 0 0 0.0833333 -271.5 -257)" d="M 5321.09,4079.62 L 5301.09,4079.62 L 5301.09,3562.8 L 5321.09,3562.8 L 5321.09,4079.62 Z " />
<path stroke="transparent" fill="#000000" transform="matrix(0.0833333 0 0 0.0833333 -271.5 -257)" d="M 6854.37,4359.12 L 6844.37,4376.44 L 6412.37,4127.02 L 6432.37,4115.48 L 6854.37,4359.12 Z " />
<path stroke="transparent" fill="#000000" transform="matrix(0.0833333 0 0 0.0833333 -271.5 -257)" d="M 6018.38,4407.62 L 6008.38,4390.3 L 6453.37,4133.37 L 6463.37,4150.69 L 6018.38,4407.62 Z " />
<path stroke="transparent" fill="#000000" transform="matrix(0.0833333 0 0 0.0833333 -271.5 -257)" d="M 5982.38,4345.27 L 5972.38,4327.94 L 6417.37,4071.02 L 6427.37,4088.34 L 5982.38,4345.27 Z " />
<path stroke="transparent" fill="#000000" transform="matrix(0.0833333 0 0 0.0833333 -271.5 -257)" d="M 6432.37,4115.48 L 6412.37,4127.02 L 6412.37,3527.01 L 6432.37,3515.46 L 6432.37,4115.48 Z " />
<path stroke="transparent" fill="#000000" transform="matrix(0.0833333 0 0 0.0833333 -271.5 -257)" d="M 6432.37,3515.46 L 6412.37,3527.01 L 5902.76,3232.78 L 5902.76,3209.68 L 6432.37,3515.46 Z " />
<path stroke="transparent" fill="#000000" transform="matrix(0.0833333 0 0 0.0833333 -271.5 -257)" d="M 6355.37,3554.14 L 6345.37,3571.47 L 5897.76,3313.03 L 5907.76,3295.71 L 6355.37,3554.14 Z " />
<path stroke="transparent" fill="#000000" transform="matrix(0.0833333 0 0 0.0833333 -271.5 -257)" d="M 5902.76,3209.68 L 5902.76,3232.78 L 5393.09,3527.01 L 5383.09,3521.24 L 5383.09,3509.69 L 5902.76,3209.68 Z " />
<path stroke="transparent" fill="#000000" transform="matrix(0.0833333 0 0 0.0833333 -271.5 -257)" d="M 5383.09,3509.69 L 5383.09,3521.24 L 5373.09,3527.01 L 4863.48,3232.78 L 4863.48,3209.68 L 5383.09,3509.69 Z " />
<path stroke="transparent" fill="#000000" transform="matrix(0.0833333 0 0 0.0833333 -271.5 -257)" d="M 4863.48,3209.68 L 4863.48,3232.78 L 4353.87,3527.01 L 4343.87,3521.24 L 4343.87,3509.69 L 4863.48,3209.68 Z " />
<path stroke="transparent" fill="#000000" transform="matrix(0.0833333 0 0 0.0833333 -271.5 -257)" d="M 4858.48,3295.71 L 4868.48,3313.03 L 4420.87,3571.47 L 4410.87,3554.14 L 4858.48,3295.71 Z " />
<path stroke="transparent" fill="#000000" transform="matrix(0.0833333 0 0 0.0833333 -271.5 -257)" d="M 4343.87,3509.69 L 4343.87,3521.24 L 4333.87,3527.01 L 3919.29,3287.65 L 3929.29,3270.33 L 4343.87,3509.69 Z " />
<path stroke="transparent" fill="#000000" transform="matrix(0.0833333 0 0 0.0833333 -271.5 -257)" d="M 3719.65,3270.07 L 3729.65,3287.39 L 3309.58,3529.9 L 3299.58,3512.58 L 3719.65,3270.07 Z " />
<text x="0" y="0" stroke="transparent" fill="#000000" transform="matrix(0.0833333 0 0 0.0833333 28.6517 117.933)" style="font:normal normal normal 200px 'Arial'" >
HO</text>
<text x="0" y="0" stroke="transparent" fill="#000000" transform="matrix(0.0833333 0 0 0.0833333 127.29 167.939)" style="font:normal normal normal 200px 'Arial'" >
O</text>
<text x="0" y="0" stroke="transparent" fill="#000000" transform="matrix(0.0833333 0 0 0.0833333 300.499 117.938)" style="font:normal normal normal 200px 'Arial'" >
OH</text>
<text x="0" y="0" stroke="transparent" fill="#000000" transform="matrix(0.0833333 0 0 0.0833333 213.897 117.938)" style="font:normal normal normal 200px 'Arial'" >
O</text>
<text x="0" y="0" stroke="transparent" fill="#000000" transform="matrix(0.0833333 0 0 0.0833333 40.6879 17.9358)" style="font:normal normal normal 200px 'Arial'" >
O</text>
</svg>
