<?xml version="1.0" standalone="no" ?>
<!DOCTYPE svg PUBLIC "-//W3C//DTD SVG 1.1//EN" "http://www.w3.org/Graphics/SVG/1.1/DTD/svg11.dtd">
<svg width="244px" height="153px" viewBox="0 0 244 153" style="background-color: #ffffff00" xmlns="http://www.w3.org/2000/svg" xmlns:xlink="http://www.w3.org/1999/xlink" version="1.1" >
<text x="0" y="0" stroke="transparent" fill="#000000" transform="matrix(0.0666667 0 0 0.0666667 82.1786 134.451)" style="font:normal normal normal 200px 'Arial'" >
O</text>
<text x="0" y="0" stroke="transparent" fill="#000000" transform="matrix(0.0666667 0 0 0.0666667 186.105 74.45)" style="font:normal normal normal 200px 'Arial'" >
O</text>
<text x="0" y="0" stroke="transparent" fill="#000000" transform="matrix(0.0666667 0 0 0.0666667 220.746 14.4487)" style="font:normal normal normal 200px 'Arial'" >
OH</text>
<text x="0" y="0" stroke="transparent" fill="#000000" transform="matrix(0.0666667 0 0 0.0666667 3.26817 94.4505)" style="font:normal normal normal 200px 'Arial'" >
HO</text>
<path stroke="transparent" fill="#000000" transform="matrix(0.0666667 0 0 0.0666667 -226.859 -189)" d="M 4608.96,4822.62 L 4618.96,4839.94 L 4198.95,5082.44 L 4188.95,5065.12 L 4608.96,4822.62 Z " />
<path stroke="transparent" fill="#000000" transform="matrix(0.0666667 0 0 0.0666667 -226.859 -189)" d="M 4703.56,4179.53 L 4713.56,4173.76 L 4723.56,4179.53 L 4723.56,4668.6 L 4703.56,4668.6 L 4703.56,4179.53 Z " />
<path stroke="transparent" fill="#000000" transform="matrix(0.0666667 0 0 0.0666667 -226.859 -189)" d="M 5223.23,3867.98 L 5243.23,3879.52 L 4723.56,4179.53 L 4713.56,4173.76 L 4713.56,4162.21 L 5223.23,3867.98 Z " />
<path stroke="transparent" fill="#000000" transform="matrix(0.0666667 0 0 0.0666667 -226.859 -189)" d="M 5156.22,3823.52 L 5166.22,3840.84 L 4718.56,4099.27 L 4708.56,4081.95 L 5156.22,3823.52 Z " />
<path stroke="transparent" fill="#000000" transform="matrix(0.0666667 0 0 0.0666667 -226.859 -189)" d="M 5223.23,3279.51 L 5233.23,3273.74 L 5243.23,3279.51 L 5243.23,3879.52 L 5223.23,3867.98 L 5223.23,3279.51 Z " />
<path stroke="transparent" fill="#000000" transform="matrix(0.0666667 0 0 0.0666667 -226.859 -189)" d="M 5752.84,2962.18 L 5752.84,2985.28 L 5243.23,3279.51 L 5233.23,3273.74 L 5233.23,3262.19 L 5752.84,2962.18 Z " />
<path stroke="transparent" fill="#000000" transform="matrix(0.0666667 0 0 0.0666667 -226.859 -189)" d="M 6272.45,3262.19 L 6272.45,3285.28 L 5752.84,2985.28 L 5752.84,2962.18 L 6272.45,3262.19 Z " />
<path stroke="transparent" fill="#000000" transform="matrix(0.0666667 0 0 0.0666667 -226.859 -189)" d="M 6318.45,3768.58 L 6298.45,3768.58 L 6298.45,3252.95 L 6318.45,3252.95 L 6318.45,3768.58 Z " />
<path stroke="transparent" fill="#000000" transform="matrix(0.0666667 0 0 0.0666667 -226.859 -189)" d="M 6246.45,3768.58 L 6226.45,3768.58 L 6226.45,3252.95 L 6246.45,3252.95 L 6246.45,3768.58 Z " />
<path stroke="transparent" fill="#000000" transform="matrix(0.0666667 0 0 0.0666667 -226.859 -189)" d="M 6687.46,3022.58 L 6697.46,3039.9 L 6272.45,3285.28 L 6272.45,3262.19 L 6687.46,3022.58 Z " />
<path stroke="transparent" fill="#000000" transform="matrix(0.0666667 0 0 0.0666667 -226.859 -189)" d="M 4713.56,2985.34 L 4713.56,2962.24 L 5233.23,3262.19 L 5233.23,3273.74 L 5223.23,3279.51 L 4713.56,2985.34 Z " />
<path stroke="transparent" fill="#000000" transform="matrix(0.0666667 0 0 0.0666667 -226.859 -189)" d="M 4708.56,3065.59 L 4718.56,3048.27 L 5166.23,3306.65 L 5156.23,3323.97 L 4708.56,3065.59 Z " />
<path stroke="transparent" fill="#000000" transform="matrix(0.0666667 0 0 0.0666667 -226.859 -189)" d="M 4203.95,3279.51 L 4183.95,3267.96 L 4713.56,2962.24 L 4713.56,2985.34 L 4203.95,3279.51 Z " />
<path stroke="transparent" fill="#000000" transform="matrix(0.0666667 0 0 0.0666667 -226.859 -189)" d="M 4203.95,3867.98 L 4193.95,3873.75 L 4183.95,3867.98 L 4183.95,3267.96 L 4203.95,3279.51 L 4203.95,3867.98 Z " />
<path stroke="transparent" fill="#000000" transform="matrix(0.0666667 0 0 0.0666667 -226.859 -189)" d="M 4275.95,3832.18 L 4255.95,3832.18 L 4255.95,3315.31 L 4275.95,3315.31 L 4275.95,3832.18 Z " />
<path stroke="transparent" fill="#000000" transform="matrix(0.0666667 0 0 0.0666667 -226.859 -189)" d="M 4193.95,3885.3 L 4193.95,3873.75 L 4203.95,3867.98 L 4713.56,4162.21 L 4713.56,4173.76 L 4703.56,4179.53 L 4193.95,3885.3 Z " />
<path stroke="transparent" fill="#000000" transform="matrix(0.0666667 0 0 0.0666667 -226.859 -189)" d="M 3771.95,4128.95 L 3761.95,4111.63 L 4183.95,3867.98 L 4193.95,3873.75 L 4193.95,3885.3 L 3771.95,4128.95 Z " />
</svg>
