<?xml version="1.0" standalone="no" ?>
<!DOCTYPE svg PUBLIC "-//W3C//DTD SVG 1.1//EN" "http://www.w3.org/Graphics/SVG/1.1/DTD/svg11.dtd">
<svg width="460px" height="437px" viewBox="0 0 460 437" style="background-color: #ffffff00" xmlns="http://www.w3.org/2000/svg" xmlns:xlink="http://www.w3.org/1999/xlink" version="1.1" >
<path stroke="transparent" fill="#000000" transform="matrix(0.0833333 0 0 0.0833333 -206.25 -160)" d="M 3787.09,4652.45 L 3767.09,4652.45 L 3767.09,4163.32 L 3777.09,4157.55 L 3787.09,4163.32 L 3787.09,4652.45 Z " />
<path stroke="transparent" fill="#000000" transform="matrix(0.0833333 0 0 0.0833333 -206.25 -160)" d="M 7638.56,5175.42 L 7628.56,5192.75 L 7206.54,4949.17 L 7206.54,4937.62 L 7216.54,4931.85 L 7638.56,5175.42 Z " />
<path stroke="transparent" fill="#000000" transform="matrix(0.0833333 0 0 0.0833333 -206.25 -160)" d="M 2832.85,3024.03 L 2842.85,3006.71 L 3257.45,3246.07 L 3257.45,3257.62 L 3247.45,3263.39 L 2832.85,3024.03 Z " />
<path stroke="transparent" fill="#000000" transform="matrix(0.0833333 0 0 0.0833333 -206.25 -160)" d="M 6676.91,3557.45 L 6696.91,3557.45 L 6696.91,4031.85 L 6686.91,4037.62 L 6676.91,4031.85 L 6676.91,3557.45 Z " />
<path stroke="transparent" fill="#000000" transform="matrix(0.0833333 0 0 0.0833333 -206.25 -160)" d="M 5845.56,2951.85 L 5855.56,2957.62 L 5855.56,2969.17 L 5345.93,3263.39 L 5335.93,3257.62 L 5335.93,3246.07 L 5845.56,2951.85 Z " />
<path stroke="transparent" fill="#000000" transform="matrix(0.0833333 0 0 0.0833333 -206.25 -160)" d="M 7309.79,2106.45 L 7319.79,2123.77 L 6904.76,2363.32 L 6894.76,2357.55 L 6894.76,2346 L 7309.79,2106.45 Z " />
<path stroke="transparent" fill="#000000" transform="matrix(0.0833333 0 0 0.0833333 -206.25 -160)" d="M 5845.56,2351.77 L 5865.56,2363.32 L 5865.56,2951.85 L 5855.56,2957.62 L 5845.56,2951.85 L 5845.56,2351.77 Z " />
<path stroke="transparent" fill="#000000" transform="matrix(0.0833333 0 0 0.0833333 -206.25 -160)" d="M 5917.57,2399.12 L 5937.57,2399.12 L 5937.57,2916.05 L 5917.57,2916.05 L 5917.57,2399.12 Z " />
<path stroke="transparent" fill="#000000" transform="matrix(0.0833333 0 0 0.0833333 -206.25 -160)" d="M 5865.56,2363.32 L 5845.56,2351.77 L 6375.13,2046.07 L 6375.13,2069.17 L 5865.56,2363.32 Z " />
<path stroke="transparent" fill="#000000" transform="matrix(0.0833333 0 0 0.0833333 -206.25 -160)" d="M 6375.13,2069.17 L 6375.13,2046.07 L 6894.76,2346 L 6894.76,2357.55 L 6884.76,2363.32 L 6375.13,2069.17 Z " />
<path stroke="transparent" fill="#000000" transform="matrix(0.0833333 0 0 0.0833333 -206.25 -160)" d="M 6370.13,2149.41 L 6380.13,2132.09 L 6827.76,2390.46 L 6817.77,2407.78 L 6370.13,2149.41 Z " />
<path stroke="transparent" fill="#000000" transform="matrix(0.0833333 0 0 0.0833333 -206.25 -160)" d="M 6884.76,2363.32 L 6894.76,2357.55 L 6904.76,2363.32 L 6904.76,2963.39 L 6884.76,2951.85 L 6884.76,2363.32 Z " />
<path stroke="transparent" fill="#000000" transform="matrix(0.0833333 0 0 0.0833333 -206.25 -160)" d="M 6884.76,2951.85 L 6904.76,2963.39 L 6375.13,3269.17 L 6375.13,3246.07 L 6884.76,2951.85 Z " />
<path stroke="transparent" fill="#000000" transform="matrix(0.0833333 0 0 0.0833333 -206.25 -160)" d="M 6817.76,2907.39 L 6827.76,2924.71 L 6380.13,3183.14 L 6370.13,3165.82 L 6817.76,2907.39 Z " />
<path stroke="transparent" fill="#000000" transform="matrix(0.0833333 0 0 0.0833333 -206.25 -160)" d="M 6375.13,3246.07 L 6375.13,3269.17 L 5855.56,2969.17 L 5855.56,2957.62 L 5865.56,2951.85 L 6375.13,3246.07 Z " />
<path stroke="transparent" fill="#000000" transform="matrix(0.0833333 0 0 0.0833333 -206.25 -160)" d="M 5138.07,6143.32 L 5128.07,6137.55 L 5128.07,6126 L 5637.71,5831.77 L 5647.71,5837.55 L 5647.71,5849.09 L 5138.07,6143.32 Z " />
<path stroke="transparent" fill="#000000" transform="matrix(0.0833333 0 0 0.0833333 -206.25 -160)" d="M 3666.85,6992.75 L 3656.85,6975.43 L 4078.87,6731.85 L 4088.87,6737.62 L 4088.87,6749.17 L 3666.85,6992.75 Z " />
<path stroke="transparent" fill="#000000" transform="matrix(0.0833333 0 0 0.0833333 -206.25 -160)" d="M 5138.07,6743.39 L 5118.07,6731.85 L 5118.07,6143.32 L 5128.07,6137.55 L 5138.07,6143.32 L 5138.07,6743.39 Z " />
<path stroke="transparent" fill="#000000" transform="matrix(0.0833333 0 0 0.0833333 -206.25 -160)" d="M 5066.06,6696.04 L 5046.06,6696.04 L 5046.06,6179.12 L 5066.06,6179.12 L 5066.06,6696.04 Z " />
<path stroke="transparent" fill="#000000" transform="matrix(0.0833333 0 0 0.0833333 -206.25 -160)" d="M 5118.07,6731.85 L 5138.07,6743.39 L 4608.44,7049.09 L 4608.44,7026 L 5118.07,6731.85 Z " />
<path stroke="transparent" fill="#000000" transform="matrix(0.0833333 0 0 0.0833333 -206.25 -160)" d="M 4608.44,7026 L 4608.44,7049.09 L 4088.87,6749.17 L 4088.87,6737.62 L 4098.87,6731.85 L 4608.44,7026 Z " />
<path stroke="transparent" fill="#000000" transform="matrix(0.0833333 0 0 0.0833333 -206.25 -160)" d="M 4613.44,6945.76 L 4603.44,6963.08 L 4155.86,6704.71 L 4165.86,6687.39 L 4613.44,6945.76 Z " />
<path stroke="transparent" fill="#000000" transform="matrix(0.0833333 0 0 0.0833333 -206.25 -160)" d="M 4098.87,6731.85 L 4088.87,6737.62 L 4078.87,6731.85 L 4078.87,6131.77 L 4098.87,6143.32 L 4098.87,6731.85 Z " />
<path stroke="transparent" fill="#000000" transform="matrix(0.0833333 0 0 0.0833333 -206.25 -160)" d="M 4098.87,6143.32 L 4078.87,6131.77 L 4608.44,5826 L 4608.44,5849.09 L 4098.87,6143.32 Z " />
<path stroke="transparent" fill="#000000" transform="matrix(0.0833333 0 0 0.0833333 -206.25 -160)" d="M 4165.87,6187.77 L 4155.87,6170.45 L 4603.44,5912.02 L 4613.44,5929.34 L 4165.87,6187.77 Z " />
<path stroke="transparent" fill="#000000" transform="matrix(0.0833333 0 0 0.0833333 -206.25 -160)" d="M 4608.44,5849.09 L 4608.44,5826 L 5128.07,6126 L 5128.07,6137.55 L 5118.07,6143.32 L 4608.44,5849.09 Z " />
<path stroke="transparent" fill="#000000" transform="matrix(0.0833333 0 0 0.0833333 -206.25 -160)" d="M 7136.93,6044.24 L 7126.93,6061.56 L 6681.91,5804.64 L 6691.91,5787.32 L 7136.93,6044.24 Z " />
<path stroke="transparent" fill="#000000" transform="matrix(0.0833333 0 0 0.0833333 -206.25 -160)" d="M 7100.93,6106.59 L 7090.93,6123.91 L 6645.91,5866.99 L 6655.91,5849.67 L 7100.93,6106.59 Z " />
<path stroke="transparent" fill="#000000" transform="matrix(0.0833333 0 0 0.0833333 -206.25 -160)" d="M 4862.29,4652.45 L 4842.29,4652.45 L 4842.29,4136.77 L 4862.29,4136.77 L 4862.29,4652.45 Z " />
<path stroke="transparent" fill="#000000" transform="matrix(0.0833333 0 0 0.0833333 -206.25 -160)" d="M 4790.29,4652.45 L 4770.29,4652.45 L 4770.29,4136.76 L 4790.29,4136.76 L 4790.29,4652.45 Z " />
<path stroke="transparent" fill="#000000" transform="matrix(0.0833333 0 0 0.0833333 -206.25 -160)" d="M 6167.27,4326 L 6167.27,4337.55 L 6157.27,4343.32 L 5335.93,3869.17 L 5335.93,3857.62 L 5345.93,3851.85 L 6167.27,4326 Z " />
<path stroke="transparent" fill="#000000" transform="matrix(0.0833333 0 0 0.0833333 -206.25 -160)" d="M 6177.27,4931.85 L 6167.27,4937.62 L 6157.27,4931.85 L 6157.27,4343.32 L 6167.27,4337.55 L 6177.27,4343.32 L 6177.27,4931.85 Z " />
<path stroke="transparent" fill="#000000" transform="matrix(0.0833333 0 0 0.0833333 -206.25 -160)" d="M 6249.28,4896.04 L 6229.28,4896.04 L 6229.28,4379.13 L 6249.28,4379.13 L 6249.28,4896.04 Z " />
<path stroke="transparent" fill="#000000" transform="matrix(0.0833333 0 0 0.0833333 -206.25 -160)" d="M 6696.91,5243.32 L 6686.91,5237.55 L 6686.91,5226 L 7196.54,4931.85 L 7206.54,4937.62 L 7206.54,4949.17 L 6696.91,5243.32 Z " />
<path stroke="transparent" fill="#000000" transform="matrix(0.0833333 0 0 0.0833333 -206.25 -160)" d="M 6691.91,5163.08 L 6681.91,5145.76 L 7129.55,4887.38 L 7139.55,4904.71 L 6691.91,5163.08 Z " />
<path stroke="transparent" fill="#000000" transform="matrix(0.0833333 0 0 0.0833333 -206.25 -160)" d="M 7216.54,4931.85 L 7206.54,4937.62 L 7196.54,4931.85 L 7196.54,4343.32 L 7216.54,4331.77 L 7216.54,4931.85 Z " />
<path stroke="transparent" fill="#000000" transform="matrix(0.0833333 0 0 0.0833333 -206.25 -160)" d="M 7216.54,4331.77 L 7196.54,4343.32 L 6686.91,4049.17 L 6686.91,4037.62 L 6696.91,4031.85 L 7216.54,4331.77 Z " />
<path stroke="transparent" fill="#000000" transform="matrix(0.0833333 0 0 0.0833333 -206.25 -160)" d="M 7139.55,4370.46 L 7129.55,4387.78 L 6681.91,4129.41 L 6691.91,4112.09 L 7139.55,4370.46 Z " />
<path stroke="transparent" fill="#000000" transform="matrix(0.0833333 0 0 0.0833333 -206.25 -160)" d="M 6676.91,4031.85 L 6686.91,4037.62 L 6686.91,4049.17 L 6177.27,4343.32 L 6167.27,4337.55 L 6167.27,4326 L 6676.91,4031.85 Z " />
<path stroke="transparent" fill="#000000" transform="matrix(0.0833333 0 0 0.0833333 -206.25 -160)" d="M 5637.71,5357.38 L 5657.71,5357.38 L 5657.71,5831.77 L 5647.71,5837.55 L 5637.71,5831.77 L 5637.71,5357.38 Z " />
<path stroke="transparent" fill="#000000" transform="matrix(0.0833333 0 0 0.0833333 -206.25 -160)" d="M 5745.33,5192.74 L 5735.33,5175.42 L 6157.27,4931.85 L 6167.27,4937.62 L 6167.27,4949.17 L 5745.33,5192.74 Z " />
<path stroke="transparent" fill="#000000" transform="matrix(0.0833333 0 0 0.0833333 -206.25 -160)" d="M 6167.27,4949.17 L 6167.27,4937.62 L 6177.27,4931.85 L 6686.91,5226 L 6686.91,5237.55 L 6676.91,5243.32 L 6167.27,4949.17 Z " />
<path stroke="transparent" fill="#000000" transform="matrix(0.0833333 0 0 0.0833333 -206.25 -160)" d="M 6676.91,5243.32 L 6686.91,5237.55 L 6696.91,5243.32 L 6696.91,5843.32 L 6676.91,5831.77 L 6676.91,5243.32 Z " />
<path stroke="transparent" fill="#000000" transform="matrix(0.0833333 0 0 0.0833333 -206.25 -160)" d="M 6676.91,5831.77 L 6696.91,5843.32 L 6167.27,6149.09 L 6167.27,6126 L 6676.91,5831.77 Z " />
<path stroke="transparent" fill="#000000" transform="matrix(0.0833333 0 0 0.0833333 -206.25 -160)" d="M 6167.27,6126 L 6167.27,6149.09 L 5647.71,5849.09 L 5647.71,5837.55 L 5657.71,5831.77 L 6167.27,6126 Z " />
<path stroke="transparent" fill="#000000" transform="matrix(0.0833333 0 0 0.0833333 -206.25 -160)" d="M 6172.28,6045.75 L 6162.27,6063.07 L 5714.7,5804.64 L 5724.7,5787.32 L 6172.28,6045.75 Z " />
<path stroke="transparent" fill="#000000" transform="matrix(0.0833333 0 0 0.0833333 -206.25 -160)" d="M 4296.73,3246.07 L 4296.73,3257.62 L 4286.73,3263.39 L 3777.09,2969.17 L 3777.09,2946.07 L 4296.73,3246.07 Z " />
<path stroke="transparent" fill="#000000" transform="matrix(0.0833333 0 0 0.0833333 -206.25 -160)" d="M 4229.72,3290.53 L 4219.73,3307.85 L 3772.09,3049.42 L 3782.09,3032.1 L 4229.72,3290.53 Z " />
<path stroke="transparent" fill="#000000" transform="matrix(0.0833333 0 0 0.0833333 -206.25 -160)" d="M 4286.73,3851.85 L 4296.73,3857.62 L 4296.73,3869.17 L 3787.09,4163.32 L 3777.09,4157.55 L 3777.09,4146 L 4286.73,3851.85 Z " />
<path stroke="transparent" fill="#000000" transform="matrix(0.0833333 0 0 0.0833333 -206.25 -160)" d="M 4219.73,3807.39 L 4229.73,3824.71 L 3782.09,4083.08 L 3772.09,4065.76 L 4219.73,3807.39 Z " />
<path stroke="transparent" fill="#000000" transform="matrix(0.0833333 0 0 0.0833333 -206.25 -160)" d="M 3777.09,4146 L 3777.09,4157.55 L 3767.09,4163.32 L 3247.45,3863.39 L 3267.45,3851.85 L 3777.09,4146 Z " />
<path stroke="transparent" fill="#000000" transform="matrix(0.0833333 0 0 0.0833333 -206.25 -160)" d="M 3267.45,3851.85 L 3247.45,3863.39 L 3247.45,3263.39 L 3257.45,3257.62 L 3267.45,3263.39 L 3267.45,3851.85 Z " />
<path stroke="transparent" fill="#000000" transform="matrix(0.0833333 0 0 0.0833333 -206.25 -160)" d="M 3339.45,3816.05 L 3319.45,3816.05 L 3319.45,3299.19 L 3339.45,3299.19 L 3339.45,3816.05 Z " />
<path stroke="transparent" fill="#000000" transform="matrix(0.0833333 0 0 0.0833333 -206.25 -160)" d="M 3267.45,3263.39 L 3257.45,3257.62 L 3257.45,3246.07 L 3777.09,2946.07 L 3777.09,2969.17 L 3267.45,3263.39 Z " />
<path stroke="transparent" fill="#000000" transform="matrix(0.0833333 0 0 0.0833333 -206.25 -160)" d="M 4911.33,3024.03 L 4921.33,3006.71 L 5335.93,3246.07 L 5335.93,3257.62 L 5325.93,3263.39 L 4911.33,3024.03 Z " />
<path stroke="transparent" fill="#000000" transform="matrix(0.0833333 0 0 0.0833333 -206.25 -160)" d="M 4711.69,3006.47 L 4721.69,3023.79 L 4306.73,3263.39 L 4296.73,3257.62 L 4296.73,3246.07 L 4711.69,3006.47 Z " />
<path stroke="transparent" fill="#000000" transform="matrix(0.0833333 0 0 0.0833333 -206.25 -160)" d="M 4286.73,3263.39 L 4296.73,3257.62 L 4306.73,3263.39 L 4306.73,3851.85 L 4296.73,3857.62 L 4286.73,3851.85 L 4286.73,3263.39 Z " />
<path stroke="transparent" fill="#000000" transform="matrix(0.0833333 0 0 0.0833333 -206.25 -160)" d="M 4296.73,3869.17 L 4296.73,3857.62 L 4306.73,3851.85 L 4816.29,4146 L 4816.29,4169.09 L 4296.73,3869.17 Z " />
<path stroke="transparent" fill="#000000" transform="matrix(0.0833333 0 0 0.0833333 -206.25 -160)" d="M 4816.29,4169.09 L 4816.29,4146 L 5325.93,3851.85 L 5335.93,3857.62 L 5335.93,3869.17 L 4816.29,4169.09 Z " />
<path stroke="transparent" fill="#000000" transform="matrix(0.0833333 0 0 0.0833333 -206.25 -160)" d="M 5345.93,3851.85 L 5335.93,3857.62 L 5325.93,3851.85 L 5325.93,3263.39 L 5335.93,3257.62 L 5345.93,3263.39 L 5345.93,3851.85 Z " />
<path stroke="transparent" fill="#000000" transform="matrix(0.0833333 0 0 0.0833333 -206.25 -160)" d="M 5273.93,3816.05 L 5253.93,3816.05 L 5253.93,3299.19 L 5273.93,3299.19 L 5273.93,3816.05 Z " />
<text x="0" y="0" stroke="transparent" fill="#000000" transform="matrix(0.0833333 0 0 0.0833333 102.008 242.968)" style="font:normal normal normal 200px 'Arial'" >
OH</text>
<text x="0" y="0" stroke="transparent" fill="#000000" transform="matrix(0.0833333 0 0 0.0833333 431.098 282.962)" style="font:normal normal normal 200px 'Arial'" >
OH</text>
<text x="0" y="0" stroke="transparent" fill="#000000" transform="matrix(0.0833333 0 0 0.0833333 3.36543 92.9684)" style="font:normal normal normal 200px 'Arial'" >
HO</text>
<text x="0" y="0" stroke="transparent" fill="#000000" transform="matrix(0.0833333 0 0 0.0833333 344.492 132.968)" style="font:normal normal normal 200px 'Arial'" >
OH</text>
<text x="0" y="0" stroke="transparent" fill="#000000" transform="matrix(0.0833333 0 0 0.0833333 405.117 17.9684)" style="font:normal normal normal 200px 'Arial'" >
OH</text>
<text x="0" y="0" stroke="transparent" fill="#000000" transform="matrix(0.0833333 0 0 0.0833333 72.6502 432.962)" style="font:normal normal normal 200px 'Arial'" >
HO</text>
<text x="0" y="0" stroke="transparent" fill="#000000" transform="matrix(0.0833333 0 0 0.0833333 387.795 357.962)" style="font:normal normal normal 200px 'Arial'" >
O</text>
<text x="0" y="0" stroke="transparent" fill="#000000" transform="matrix(0.0833333 0 0 0.0833333 188.608 242.968)" style="font:normal normal normal 200px 'Arial'" >
O</text>
<text x="0" y="0" stroke="transparent" fill="#000000" transform="matrix(0.0833333 0 0 0.0833333 257.892 282.962)" style="font:normal normal normal 200px 'Arial'" >
O</text>
<text x="0" y="0" stroke="transparent" fill="#000000" transform="matrix(0.0833333 0 0 0.0833333 188.608 92.9684)" style="font:normal normal normal 200px 'Arial'" >
O</text>
</svg>
