<?xml version="1.0" standalone="no" ?>
<!DOCTYPE svg PUBLIC "-//W3C//DTD SVG 1.1//EN" "http://www.w3.org/Graphics/SVG/1.1/DTD/svg11.dtd">
<svg width="324px" height="240px" viewBox="0 0 324 240" style="background-color: #ffffff00" xmlns="http://www.w3.org/2000/svg" xmlns:xlink="http://www.w3.org/1999/xlink" version="1.1" >
<path stroke="transparent" fill="#000000" transform="matrix(0.0833333 0 0 0.0833333 -269.875 -240)" d="M 3593.6,5262.62 L 3576.28,5252.62 L 3867.74,4748.08 L 3885.07,4738.08 L 3888.72,4751.74 L 3593.6,5262.62 Z " />
<path stroke="transparent" fill="#000000" transform="matrix(0.0833333 0 0 0.0833333 -269.875 -240)" d="M 4464.51,5533.01 L 4344.51,5532.98 L 4394.06,5043.66 L 4404.61,5038.21 L 4415.16,5043.66 L 4464.51,5533.01 Z " />
<path stroke="transparent" fill="#000000" transform="matrix(0.0833333 0 0 0.0833333 -269.875 -240)" d="M 5963.98,2927.01 L 5963.98,2950.1 L 5454.28,3244.22 L 5444.28,3238.45 L 5444.28,3226.9 L 5963.98,2927.01 Z " />
<path stroke="transparent" fill="#000000" transform="matrix(0.0833333 0 0 0.0833333 -269.875 -240)" d="M 5963.98,2950.1 L 5963.98,2927.01 L 6493.52,3232.91 L 6473.52,3244.45 L 5963.98,2950.1 Z " />
<path stroke="transparent" fill="#000000" transform="matrix(0.0833333 0 0 0.0833333 -269.875 -240)" d="M 5958.96,3030.35 L 5968.96,3013.04 L 6416.51,3271.57 L 6406.51,3288.89 L 5958.96,3030.35 Z " />
<path stroke="transparent" fill="#000000" transform="matrix(0.0833333 0 0 0.0833333 -269.875 -240)" d="M 6473.52,3244.45 L 6493.52,3232.91 L 6493.36,3844.48 L 6473.37,3832.92 L 6473.52,3244.45 Z " />
<path stroke="transparent" fill="#000000" transform="matrix(0.0833333 0 0 0.0833333 -269.875 -240)" d="M 6933.31,4045.5 L 6923.31,4062.82 L 6478.38,3805.79 L 6488.38,3788.47 L 6933.31,4045.5 Z " />
<path stroke="transparent" fill="#000000" transform="matrix(0.0833333 0 0 0.0833333 -269.875 -240)" d="M 6897.3,4107.84 L 6887.29,4125.16 L 6442.36,3868.13 L 6452.36,3850.82 L 6897.3,4107.84 Z " />
<path stroke="transparent" fill="#000000" transform="matrix(0.0833333 0 0 0.0833333 -269.875 -240)" d="M 6473.37,3832.92 L 6493.36,3844.48 L 6061.3,4093.8 L 6051.3,4076.48 L 6473.37,3832.92 Z " />
<path stroke="transparent" fill="#000000" transform="matrix(0.0833333 0 0 0.0833333 -269.875 -240)" d="M 5876.06,4076.44 L 5866.06,4093.75 L 5444.12,3850.01 L 5444.13,3838.47 L 5454.13,3832.69 L 5876.06,4076.44 Z " />
<path stroke="transparent" fill="#000000" transform="matrix(0.0833333 0 0 0.0833333 -269.875 -240)" d="M 5434.13,3832.69 L 5444.13,3838.47 L 5444.12,3850.01 L 4934.46,4144.07 L 4924.46,4138.3 L 4924.47,4126.75 L 5434.13,3832.69 Z " />
<path stroke="transparent" fill="#000000" transform="matrix(0.0833333 0 0 0.0833333 -269.875 -240)" d="M 5454.13,3832.69 L 5444.13,3838.47 L 5434.13,3832.69 L 5434.28,3244.22 L 5444.28,3238.45 L 5454.28,3244.22 L 5454.13,3832.69 Z " />
<path stroke="transparent" fill="#000000" transform="matrix(0.0833333 0 0 0.0833333 -269.875 -240)" d="M 5382.13,3796.88 L 5362.13,3796.87 L 5362.27,3280 L 5382.27,3280 L 5382.13,3796.88 Z " />
<path stroke="transparent" fill="#000000" transform="matrix(0.0833333 0 0 0.0833333 -269.875 -240)" d="M 5444.28,3226.9 L 5444.28,3238.45 L 5434.28,3244.22 L 4924.74,2949.87 L 4924.74,2926.78 L 5444.28,3226.9 Z " />
<path stroke="transparent" fill="#000000" transform="matrix(0.0833333 0 0 0.0833333 -269.875 -240)" d="M 4924.74,2926.78 L 4924.74,2949.87 L 4415.04,3243.99 L 4395.04,3232.44 L 4924.74,2926.78 Z " />
<path stroke="transparent" fill="#000000" transform="matrix(0.0833333 0 0 0.0833333 -269.875 -240)" d="M 4919.72,3012.8 L 4929.72,3030.12 L 4482.03,3288.46 L 4472.04,3271.14 L 4919.72,3012.8 Z " />
<path stroke="transparent" fill="#000000" transform="matrix(0.0833333 0 0 0.0833333 -269.875 -240)" d="M 4395.04,3232.44 L 4415.04,3243.99 L 4414.92,3832.4 L 4404.92,3838.17 L 4394.92,3832.39 L 4395.04,3232.44 Z " />
<path stroke="transparent" fill="#000000" transform="matrix(0.0833333 0 0 0.0833333 -269.875 -240)" d="M 3875.19,4257.89 L 3895.19,4257.9 L 3895.07,4732.31 L 3885.07,4738.08 L 3875.07,4728.08 L 3875.19,4257.89 Z " />
<path stroke="transparent" fill="#000000" transform="matrix(0.0833333 0 0 0.0833333 -269.875 -240)" d="M 3982.85,4093.27 L 3972.85,4075.95 L 4394.92,3832.39 L 4404.92,3838.17 L 4404.92,3849.72 L 3982.85,4093.27 Z " />
<path stroke="transparent" fill="#000000" transform="matrix(0.0833333 0 0 0.0833333 -269.875 -240)" d="M 4404.92,3849.72 L 4404.92,3838.17 L 4414.92,3832.4 L 4924.47,4126.75 L 4924.46,4138.3 L 4914.46,4144.07 L 4404.92,3849.72 Z " />
<path stroke="transparent" fill="#000000" transform="matrix(0.0833333 0 0 0.0833333 -269.875 -240)" d="M 4471.93,3805.28 L 4481.93,3787.96 L 4929.49,4046.5 L 4919.48,4063.82 L 4471.93,3805.28 Z " />
<path stroke="transparent" fill="#000000" transform="matrix(0.0833333 0 0 0.0833333 -269.875 -240)" d="M 4914.46,4144.07 L 4924.46,4138.3 L 4934.46,4144.07 L 4934.31,4744.09 L 4914.31,4732.54 L 4914.46,4144.07 Z " />
<path stroke="transparent" fill="#000000" transform="matrix(0.0833333 0 0 0.0833333 -269.875 -240)" d="M 4914.31,4732.54 L 4934.31,4744.09 L 4415.16,5043.66 L 4404.61,5038.21 L 4404.61,5026.66 L 4914.31,4732.54 Z " />
<path stroke="transparent" fill="#000000" transform="matrix(0.0833333 0 0 0.0833333 -269.875 -240)" d="M 4404.61,5026.66 L 4404.61,5038.21 L 4394.06,5043.66 L 3888.72,4751.74 L 3885.07,4738.08 L 3895.07,4732.31 L 4404.61,5026.66 Z " />
<path stroke="transparent" fill="#000000" transform="matrix(0.0833333 0 0 0.0833333 -269.875 -240)" d="M 3875.07,4728.08 L 3885.07,4738.08 L 3867.74,4748.08 L 3285.11,4747.96 L 3285.11,4727.96 L 3875.07,4728.08 Z " />
<text x="0" y="0" stroke="transparent" fill="#000000" transform="matrix(0.0833333 0 0 0.0833333 90.6658 236.347)" style="font:normal normal normal 200px 'Arial'" >
OH</text>
<text x="0" y="0" stroke="transparent" fill="#000000" transform="matrix(0.0833333 0 0 0.0833333 307.201 111.402)" style="font:normal normal normal 200px 'Arial'" >
O</text>
<text x="0" y="0" stroke="transparent" fill="#000000" transform="matrix(0.0833333 0 0 0.0833333 220.597 111.383)" style="font:normal normal normal 200px 'Arial'" >
O</text>
<text x="0" y="0" stroke="transparent" fill="#000000" transform="matrix(0.0833333 0 0 0.0833333 47.3936 111.339)" style="font:normal normal normal 200px 'Arial'" >
O</text>
</svg>
