<?xml version="1.0" standalone="no" ?>
<!DOCTYPE svg PUBLIC "-//W3C//DTD SVG 1.1//EN" "http://www.w3.org/Graphics/SVG/1.1/DTD/svg11.dtd">
<svg width="478px" height="383px" viewBox="0 0 478 383" style="background-color: #ffffff00" xmlns="http://www.w3.org/2000/svg" xmlns:xlink="http://www.w3.org/1999/xlink" version="1.1" >
<text x="0" y="0" stroke="transparent" fill="#000000" transform="matrix(0.0833333 0 0 0.0833333 4.16739 303.857)" style="font:normal normal normal 200px 'Arial'" >
HO</text>
<text x="0" y="0" stroke="transparent" fill="#000000" transform="matrix(0.0833333 0 0 0.0833333 47.4702 378.857)" style="font:normal normal normal 200px 'Arial'" >
HO</text>
<text x="0" y="0" stroke="transparent" fill="#000000" transform="matrix(0.0833333 0 0 0.0833333 449.223 153.858)" style="font:normal normal normal 200px 'Arial'" >
OH</text>
<path stroke="transparent" fill="#000000" transform="matrix(0.0833333 0 0 0.0833333 -204.25 -170)" d="M 6894.11,2604.57 L 6880.45,2608.23 L 6880.44,2588.23 L 7171.76,2083.66 L 7189.08,2093.66 L 6894.11,2604.57 Z " />
<path stroke="transparent" fill="#000000" transform="matrix(0.0833333 0 0 0.0833333 -204.25 -170)" d="M 6571.71,2093.63 L 6589.03,2083.63 L 6880.44,2588.23 L 6880.45,2608.23 L 6866.78,2604.57 L 6571.71,2093.63 Z " />
<path stroke="transparent" fill="#000000" transform="matrix(0.0833333 0 0 0.0833333 -204.25 -170)" d="M 6365.8,2916.94 L 6355.8,2899.62 L 6866.78,2604.57 L 6880.45,2608.23 L 6880.45,2619.78 L 6365.8,2916.94 Z " />
<path stroke="transparent" fill="#000000" transform="matrix(0.0833333 0 0 0.0833333 -204.25 -170)" d="M 6300.8,2962.28 L 6420.8,2962.28 L 6418.77,2982.28 L 6302.83,2982.28 L 6300.8,2962.28 Z " />
<path stroke="transparent" fill="#000000" transform="matrix(0.0833333 0 0 0.0833333 -204.25 -170)" d="M 6306.79,3021.28 L 6414.8,3021.28 L 6412.77,3041.28 L 6308.83,3041.28 L 6306.79,3021.28 Z " />
<path stroke="transparent" fill="#000000" transform="matrix(0.0833333 0 0 0.0833333 -204.25 -170)" d="M 6312.79,3080.28 L 6408.81,3080.28 L 6406.78,3100.28 L 6314.82,3100.28 L 6312.79,3080.28 Z " />
<path stroke="transparent" fill="#000000" transform="matrix(0.0833333 0 0 0.0833333 -204.25 -170)" d="M 6318.79,3139.28 L 6402.81,3139.28 L 6400.78,3159.28 L 6320.82,3159.28 L 6318.79,3139.28 Z " />
<path stroke="transparent" fill="#000000" transform="matrix(0.0833333 0 0 0.0833333 -204.25 -170)" d="M 6324.78,3198.28 L 6396.82,3198.28 L 6394.78,3218.28 L 6326.82,3218.28 L 6324.78,3198.28 Z " />
<path stroke="transparent" fill="#000000" transform="matrix(0.0833333 0 0 0.0833333 -204.25 -170)" d="M 6330.78,3257.28 L 6390.82,3257.28 L 6388.79,3277.28 L 6332.81,3277.28 L 6330.78,3257.28 Z " />
<path stroke="transparent" fill="#000000" transform="matrix(0.0833333 0 0 0.0833333 -204.25 -170)" d="M 6336.78,3316.28 L 6384.83,3316.28 L 6382.79,3336.28 L 6338.81,3336.28 L 6336.78,3316.28 Z " />
<path stroke="transparent" fill="#000000" transform="matrix(0.0833333 0 0 0.0833333 -204.25 -170)" d="M 6342.77,3375.28 L 6378.83,3375.28 L 6376.8,3395.28 L 6344.81,3395.28 L 6342.77,3375.28 Z " />
<path stroke="transparent" fill="#000000" transform="matrix(0.0833333 0 0 0.0833333 -204.25 -170)" d="M 6348.77,3434.28 L 6372.84,3434.28 L 6370.8,3454.28 L 6350.8,3454.28 L 6348.77,3434.28 Z " />
<path stroke="transparent" fill="#000000" transform="matrix(0.0833333 0 0 0.0833333 -204.25 -170)" d="M 5851.19,3814.04 L 5841.19,3808.27 L 5841.19,3796.72 L 6360.8,3496.73 L 6360.8,3519.82 L 5851.19,3814.04 Z " />
<path stroke="transparent" fill="#000000" transform="matrix(0.0833333 0 0 0.0833333 -204.25 -170)" d="M 5321.56,3519.81 L 5321.56,3496.72 L 5841.19,3796.72 L 5841.19,3808.27 L 5831.19,3814.04 L 5321.56,3519.81 Z " />
<path stroke="transparent" fill="#000000" transform="matrix(0.0833333 0 0 0.0833333 -204.25 -170)" d="M 5316.56,3600.06 L 5326.56,3582.74 L 5774.18,3841.18 L 5764.18,3858.5 L 5316.56,3600.06 Z " />
<path stroke="transparent" fill="#000000" transform="matrix(0.0833333 0 0 0.0833333 -204.25 -170)" d="M 4864.02,3784.02 L 4743.83,3830.33 L 5321.56,3496.72 L 5321.56,3519.81 L 4864.02,3784.02 Z " />
<path stroke="transparent" fill="#000000" transform="matrix(0.0833333 0 0 0.0833333 -204.25 -170)" d="M 4743.83,3830.33 L 4864.02,3784.02 L 4812.38,4402.8 L 4801.92,4408.31 L 4791.46,4402.8 L 4743.83,3830.33 Z " />
<path stroke="transparent" fill="#000000" transform="matrix(0.0833333 0 0 0.0833333 -204.25 -170)" d="M 4791.46,4402.8 L 4801.92,4408.31 L 4801.92,4419.85 L 4292.35,4714.1 L 4282.35,4708.33 L 4293.87,4690.13 L 4791.46,4402.8 Z " />
<path stroke="transparent" fill="#000000" transform="matrix(0.0833333 0 0 0.0833333 -204.25 -170)" d="M 4222.34,4108.33 L 4342.34,4108.33 L 4293.87,4690.13 L 4282.35,4708.33 L 4270.83,4690.13 L 4222.34,4108.33 Z " />
<path stroke="transparent" fill="#000000" transform="matrix(0.0833333 0 0 0.0833333 -204.25 -170)" d="M 3762.72,4419.87 L 3762.72,4396.78 L 4270.83,4690.13 L 4282.35,4708.33 L 4272.35,4714.1 L 3762.72,4419.87 Z " />
<path stroke="transparent" fill="#000000" transform="matrix(0.0833333 0 0 0.0833333 -204.25 -170)" d="M 3253.11,4714.09 L 3233.11,4702.54 L 3762.72,4396.78 L 3762.72,4419.87 L 3253.11,4714.09 Z " />
<path stroke="transparent" fill="#000000" transform="matrix(0.0833333 0 0 0.0833333 -204.25 -170)" d="M 3233.11,4702.54 L 3253.11,4714.09 L 3253.06,5302.51 L 3243.06,5308.29 L 3233.06,5301.88 L 3233.11,4702.54 Z " />
<path stroke="transparent" fill="#000000" transform="matrix(0.0833333 0 0 0.0833333 -204.25 -170)" d="M 2846.05,5606.78 L 2786.05,5502.85 L 3233.06,5301.88 L 3243.06,5308.29 L 3243.61,5320.15 L 2846.05,5606.78 Z " />
<path stroke="transparent" fill="#000000" transform="matrix(0.0833333 0 0 0.0833333 -204.25 -170)" d="M 3243.61,5320.15 L 3243.06,5308.29 L 3253.06,5302.51 L 3762.69,5596.75 L 3762.69,5608.29 L 3752.69,5614.07 L 3243.61,5320.15 Z " />
<path stroke="transparent" fill="#000000" transform="matrix(0.0833333 0 0 0.0833333 -204.25 -170)" d="M 3273.07,5960.25 L 3213.07,5856.33 L 3231.31,5847.91 L 3289.47,5948.66 L 3273.07,5960.25 Z " />
<path stroke="transparent" fill="#000000" transform="matrix(0.0833333 0 0 0.0833333 -204.25 -170)" d="M 3321.01,5926.39 L 3266.36,5831.74 L 3284.6,5823.33 L 3337.41,5914.81 L 3321.01,5926.39 Z " />
<path stroke="transparent" fill="#000000" transform="matrix(0.0833333 0 0 0.0833333 -204.25 -170)" d="M 3368.95,5892.54 L 3319.65,5807.15 L 3337.89,5798.74 L 3385.35,5880.95 L 3368.95,5892.54 Z " />
<path stroke="transparent" fill="#000000" transform="matrix(0.0833333 0 0 0.0833333 -204.25 -170)" d="M 3416.88,5858.68 L 3372.94,5782.57 L 3391.18,5774.15 L 3433.29,5847.09 L 3416.88,5858.68 Z " />
<path stroke="transparent" fill="#000000" transform="matrix(0.0833333 0 0 0.0833333 -204.25 -170)" d="M 3464.82,5824.82 L 3426.23,5757.98 L 3444.47,5749.57 L 3481.23,5813.24 L 3464.82,5824.82 Z " />
<path stroke="transparent" fill="#000000" transform="matrix(0.0833333 0 0 0.0833333 -204.25 -170)" d="M 3512.76,5790.97 L 3479.52,5733.39 L 3497.76,5724.98 L 3529.17,5779.38 L 3512.76,5790.97 Z " />
<path stroke="transparent" fill="#000000" transform="matrix(0.0833333 0 0 0.0833333 -204.25 -170)" d="M 3560.7,5757.11 L 3532.81,5708.81 L 3551.05,5700.39 L 3577.11,5745.52 L 3560.7,5757.11 Z " />
<path stroke="transparent" fill="#000000" transform="matrix(0.0833333 0 0 0.0833333 -204.25 -170)" d="M 3608.64,5723.25 L 3586.1,5684.22 L 3604.34,5675.81 L 3625.04,5711.67 L 3608.64,5723.25 Z " />
<path stroke="transparent" fill="#000000" transform="matrix(0.0833333 0 0 0.0833333 -204.25 -170)" d="M 3656.58,5689.4 L 3639.39,5659.63 L 3657.63,5651.22 L 3672.98,5677.81 L 3656.58,5689.4 Z " />
<path stroke="transparent" fill="#000000" transform="matrix(0.0833333 0 0 0.0833333 -204.25 -170)" d="M 3704.52,5655.54 L 3692.69,5635.05 L 3710.92,5626.63 L 3720.92,5643.95 L 3704.52,5655.54 Z " />
<path stroke="transparent" fill="#000000" transform="matrix(0.0833333 0 0 0.0833333 -204.25 -170)" d="M 3772.7,6214.07 L 3752.7,6202.52 L 3752.69,5614.07 L 3762.69,5608.29 L 3772.69,5614.07 L 3772.7,6214.07 Z " />
<path stroke="transparent" fill="#000000" transform="matrix(0.0833333 0 0 0.0833333 -204.25 -170)" d="M 3340.69,6463.48 L 3330.69,6446.16 L 3752.7,6202.52 L 3772.7,6214.07 L 3340.69,6463.48 Z " />
<path stroke="transparent" fill="#000000" transform="matrix(0.0833333 0 0 0.0833333 -204.25 -170)" d="M 3772.69,5614.07 L 3762.69,5608.29 L 3762.69,5596.75 L 4272.31,5302.53 L 4282.31,5308.3 L 4281.85,5320.11 L 3772.69,5614.07 Z " />
<path stroke="transparent" fill="#000000" transform="matrix(0.0833333 0 0 0.0833333 -204.25 -170)" d="M 4292.31,5302 L 4282.31,5308.3 L 4272.31,5302.53 L 4272.35,4714.1 L 4282.35,4708.33 L 4292.35,4714.1 L 4292.31,5302 Z " />
<path stroke="transparent" fill="#000000" transform="matrix(0.0833333 0 0 0.0833333 -204.25 -170)" d="M 4853.96,5566.73 L 4753.77,5647.66 L 4281.85,5320.11 L 4282.31,5308.3 L 4292.31,5302 L 4853.96,5566.73 Z " />
<path stroke="transparent" fill="#000000" transform="matrix(0.0833333 0 0 0.0833333 -204.25 -170)" d="M 5311.55,5302.54 L 5331.55,5314.09 L 4753.77,5647.66 L 4853.96,5566.73 L 5311.55,5302.54 Z " />
<path stroke="transparent" fill="#000000" transform="matrix(0.0833333 0 0 0.0833333 -204.25 -170)" d="M 5331.55,5314.09 L 5311.55,5302.54 L 5311.54,4714.09 L 5321.54,4708.31 L 5331.54,4714.09 L 5331.55,5314.09 Z " />
<path stroke="transparent" fill="#000000" transform="matrix(0.0833333 0 0 0.0833333 -204.25 -170)" d="M 5310.03,4690.12 L 5321.54,4708.31 L 5311.54,4714.09 L 4801.92,4419.85 L 4801.92,4408.31 L 4812.38,4402.8 L 5310.03,4690.12 Z " />
<path stroke="transparent" fill="#000000" transform="matrix(0.0833333 0 0 0.0833333 -204.25 -170)" d="M 5261.54,4108.31 L 5381.54,4108.31 L 5333.06,4690.12 L 5321.54,4708.31 L 5310.03,4690.12 L 5261.54,4108.31 Z " />
<path stroke="transparent" fill="#000000" transform="matrix(0.0833333 0 0 0.0833333 -204.25 -170)" d="M 5331.54,4714.09 L 5321.54,4708.31 L 5333.06,4690.12 L 5831.19,4402.5 L 5841.19,4408.27 L 5841.19,4419.82 L 5331.54,4714.09 Z " />
<path stroke="transparent" fill="#000000" transform="matrix(0.0833333 0 0 0.0833333 -204.25 -170)" d="M 5851.19,4402.5 L 5841.19,4408.27 L 5831.19,4402.5 L 5831.19,3814.04 L 5841.19,3808.27 L 5851.19,3814.04 L 5851.19,4402.5 Z " />
<path stroke="transparent" fill="#000000" transform="matrix(0.0833333 0 0 0.0833333 -204.25 -170)" d="M 5901.19,5008.27 L 5781.19,5008.27 L 5783.03,4988.27 L 5899.36,4988.27 L 5901.19,5008.27 Z " />
<path stroke="transparent" fill="#000000" transform="matrix(0.0833333 0 0 0.0833333 -204.25 -170)" d="M 5895.84,4949.82 L 5786.55,4949.82 L 5788.38,4929.82 L 5894.01,4929.82 L 5895.84,4949.82 Z " />
<path stroke="transparent" fill="#000000" transform="matrix(0.0833333 0 0 0.0833333 -204.25 -170)" d="M 5890.49,4891.38 L 5791.9,4891.38 L 5793.73,4871.38 L 5888.66,4871.38 L 5890.49,4891.38 Z " />
<path stroke="transparent" fill="#000000" transform="matrix(0.0833333 0 0 0.0833333 -204.25 -170)" d="M 5885.14,4832.94 L 5797.25,4832.94 L 5799.08,4812.94 L 5883.31,4812.94 L 5885.14,4832.94 Z " />
<path stroke="transparent" fill="#000000" transform="matrix(0.0833333 0 0 0.0833333 -204.25 -170)" d="M 5879.79,4774.49 L 5802.6,4774.49 L 5804.43,4754.49 L 5877.95,4754.49 L 5879.79,4774.49 Z " />
<path stroke="transparent" fill="#000000" transform="matrix(0.0833333 0 0 0.0833333 -204.25 -170)" d="M 5874.43,4716.05 L 5807.95,4716.05 L 5809.79,4696.05 L 5872.6,4696.05 L 5874.43,4716.05 Z " />
<path stroke="transparent" fill="#000000" transform="matrix(0.0833333 0 0 0.0833333 -204.25 -170)" d="M 5869.08,4657.6 L 5813.31,4657.6 L 5815.14,4637.6 L 5867.25,4637.6 L 5869.08,4657.6 Z " />
<path stroke="transparent" fill="#000000" transform="matrix(0.0833333 0 0 0.0833333 -204.25 -170)" d="M 5863.73,4599.16 L 5818.66,4599.16 L 5820.49,4579.16 L 5861.9,4579.16 L 5863.73,4599.16 Z " />
<path stroke="transparent" fill="#000000" transform="matrix(0.0833333 0 0 0.0833333 -204.25 -170)" d="M 5858.38,4540.71 L 5824.01,4540.71 L 5825.84,4520.71 L 5856.55,4520.71 L 5858.38,4540.71 Z " />
<path stroke="transparent" fill="#000000" transform="matrix(0.0833333 0 0 0.0833333 -204.25 -170)" d="M 5853.03,4482.27 L 5829.36,4482.27 L 5831.19,4462.27 L 5851.19,4462.27 L 5853.03,4482.27 Z " />
<path stroke="transparent" fill="#000000" transform="matrix(0.0833333 0 0 0.0833333 -204.25 -170)" d="M 6360.82,4696.73 L 6360.82,4719.82 L 5841.19,4419.82 L 5841.19,4408.27 L 5851.19,4402.5 L 6360.82,4696.73 Z " />
<path stroke="transparent" fill="#000000" transform="matrix(0.0833333 0 0 0.0833333 -204.25 -170)" d="M 6870.44,4402.51 L 6890.44,4414.06 L 6360.82,4719.82 L 6360.82,4696.73 L 6870.44,4402.51 Z " />
<path stroke="transparent" fill="#000000" transform="matrix(0.0833333 0 0 0.0833333 -204.25 -170)" d="M 6890.44,4414.06 L 6870.44,4402.51 L 6870.43,3814.06 L 6880.43,3808.28 L 6890.43,3827.35 L 6890.44,4414.06 Z " />
<path stroke="transparent" fill="#000000" transform="matrix(0.0833333 0 0 0.0833333 -204.25 -170)" d="M 6880.43,3796.74 L 6880.43,3808.28 L 6870.43,3814.06 L 6360.8,3519.82 L 6360.8,3496.73 L 6880.43,3796.74 Z " />
<path stroke="transparent" fill="#000000" transform="matrix(0.0833333 0 0 0.0833333 -204.25 -170)" d="M 7430.06,4056.33 L 7370.06,4160.25 L 6890.43,3827.35 L 6880.43,3808.28 L 6901.95,3807.41 L 7430.06,4056.33 Z " />
<path stroke="transparent" fill="#000000" transform="matrix(0.0833333 0 0 0.0833333 -204.25 -170)" d="M 6901.95,3807.41 L 6880.43,3808.28 L 6880.43,3796.74 L 7390.05,3502.52 L 7400.05,3508.29 L 7399.5,3520.16 L 6901.95,3807.41 Z " />
<path stroke="transparent" fill="#000000" transform="matrix(0.0833333 0 0 0.0833333 -204.25 -170)" d="M 7857.06,3702.86 L 7797.06,3806.78 L 7399.5,3520.16 L 7400.05,3508.29 L 7410.05,3501.88 L 7857.06,3702.86 Z " />
<path stroke="transparent" fill="#000000" transform="matrix(0.0833333 0 0 0.0833333 -204.25 -170)" d="M 7390.07,2914.01 L 7410.07,2902.46 L 7410.05,3501.88 L 7400.05,3508.29 L 7390.05,3502.52 L 7390.07,2914.01 Z " />
<path stroke="transparent" fill="#000000" transform="matrix(0.0833333 0 0 0.0833333 -204.25 -170)" d="M 7410.07,2902.46 L 7390.07,2914.01 L 6880.45,2619.78 L 6880.45,2608.23 L 6894.11,2604.57 L 7410.07,2902.46 Z " />
</svg>
