<?xml version="1.0" standalone="no" ?>
<!DOCTYPE svg PUBLIC "-//W3C//DTD SVG 1.1//EN" "http://www.w3.org/Graphics/SVG/1.1/DTD/svg11.dtd">
<svg width="615px" height="409px" viewBox="0 0 615 409" style="background-color: #ffffff00" xmlns="http://www.w3.org/2000/svg" xmlns:xlink="http://www.w3.org/1999/xlink" version="1.1" >
<text x="0" y="0" stroke="transparent" fill="#000000" transform="matrix(0.0833333 0 0 0.0833333 166.345 405.064)" style="font:normal normal normal 200px 'Arial'" >
O</text>
<text x="0" y="0" stroke="transparent" fill="#000000" transform="matrix(0.0833333 0 0 0.0833333 146.763 318.793)" style="font:normal normal normal 200px 'Arial'" >
HO</text>
<text x="0" y="0" stroke="transparent" fill="#000000" transform="matrix(0.0833333 0 0 0.0833333 176.815 207.444)" style="font:normal normal normal 200px 'Arial'" >
O</text>
<text x="0" y="0" stroke="transparent" fill="#000000" transform="matrix(0.0833333 0 0 0.0833333 349.312 209.892)" style="font:normal normal normal 200px 'Arial'" >
O</text>
<text x="0" y="0" stroke="transparent" fill="#000000" transform="matrix(0.0833333 0 0 0.0833333 149.63 264.024)" style="font:normal normal normal 200px 'Arial'" >
O</text>
<text x="0" y="0" stroke="transparent" fill="#000000" transform="matrix(0.0833333 0 0 0.0833333 132.756 18.1481)" style="font:normal normal normal 200px 'Arial'" >
O</text>
<text x="0" y="0" stroke="transparent" fill="#000000" transform="matrix(0.0833333 0 0 0.0833333 176.115 59.8939)" style="font:normal normal normal 200px 'Arial'" >
O</text>
<text x="0" y="0" stroke="transparent" fill="#000000" transform="matrix(0.0833333 0 0 0.0833333 262.713 59.8939)" style="font:normal normal normal 200px 'Arial'" >
OH</text>
<text x="0" y="0" stroke="transparent" fill="#000000" transform="matrix(0.0833333 0 0 0.0833333 49.562 239.279)" style="font:normal normal normal 200px 'Arial'" >
H</text>
<text x="0" y="0" stroke="transparent" fill="#000000" transform="matrix(0.0833333 0 0 0.0833333 3.41117 109.893)" style="font:normal normal normal 200px 'Arial'" >
H</text>
<path stroke="transparent" fill="#000000" transform="matrix(0.0833333 0 0 0.0833333 -128.667 -170)" d="M 4462.25,6217.3 L 4469.47,6226.71 L 4465.16,6237.12 L 3866.86,6289.46 L 3876.62,6268.53 L 4462.25,6217.3 Z " />
<path stroke="transparent" fill="#000000" transform="matrix(0.0833333 0 0 0.0833333 -128.667 -170)" d="M 4725.24,5494.74 L 4747.22,5492.81 L 4480.84,6224.7 L 4469.47,6226.71 L 4462.25,6217.3 L 4725.24,5494.74 Z " />
<path stroke="transparent" fill="#000000" transform="matrix(0.0833333 0 0 0.0833333 -128.667 -170)" d="M 4623.96,5499.35 L 4642.75,5506.19 L 4411.31,6142.08 L 4392.52,6135.24 L 4623.96,5499.35 Z " />
<path stroke="transparent" fill="#000000" transform="matrix(0.0833333 0 0 0.0833333 -128.667 -170)" d="M 4279.7,4723 L 4234.57,4604.84 L 4747.22,5492.81 L 4725.24,5494.74 L 4279.7,4723 Z " />
<path stroke="transparent" fill="#000000" transform="matrix(0.0833333 0 0 0.0833333 -128.667 -170)" d="M 3704.78,6745.82 L 3686.66,6737.36 L 3904.08,6271.15 L 3922.21,6279.6 L 3704.78,6745.82 Z " />
<path stroke="transparent" fill="#000000" transform="matrix(0.0833333 0 0 0.0833333 -128.667 -170)" d="M 3639.53,6715.39 L 3621.41,6706.93 L 3838.83,6240.72 L 3856.96,6249.17 L 3639.53,6715.39 Z " />
<path stroke="transparent" fill="#000000" transform="matrix(0.0833333 0 0 0.0833333 -128.667 -170)" d="M 3588.55,5892 L 3604.93,5880.53 L 3876.62,6268.53 L 3866.86,6289.46 L 3588.55,5892 Z " />
<path stroke="transparent" fill="#000000" transform="matrix(0.0833333 0 0 0.0833333 -128.667 -170)" d="M 4254.93,3569.17 L 4254.93,3580.71 L 4244.93,3586.49 L 3735.37,3292.26 L 3735.37,3269.17 L 4254.93,3569.17 Z " />
<path stroke="transparent" fill="#000000" transform="matrix(0.0833333 0 0 0.0833333 -128.667 -170)" d="M 4764.56,3274.94 L 4774.56,3280.72 L 4774.56,3292.26 L 4264.93,3586.49 L 4254.93,3580.71 L 4254.93,3569.17 L 4764.56,3274.94 Z " />
<path stroke="transparent" fill="#000000" transform="matrix(0.0833333 0 0 0.0833333 -128.667 -170)" d="M 5294.19,3569.17 L 5294.19,3580.71 L 5284.19,3586.49 L 4774.56,3292.26 L 4774.56,3280.72 L 4784.56,3274.94 L 5294.19,3569.17 Z " />
<path stroke="transparent" fill="#000000" transform="matrix(0.0833333 0 0 0.0833333 -128.667 -170)" d="M 5227.19,3613.62 L 5217.19,3630.94 L 4769.56,3372.52 L 4779.56,3355.2 L 5227.19,3613.62 Z " />
<path stroke="transparent" fill="#000000" transform="matrix(0.0833333 0 0 0.0833333 -128.667 -170)" d="M 5304.19,4174.93 L 5294.19,4180.7 L 5284.19,4174.93 L 5284.19,3586.49 L 5294.19,3580.71 L 5304.19,3586.49 L 5304.19,4174.93 Z " />
<path stroke="transparent" fill="#000000" transform="matrix(0.0833333 0 0 0.0833333 -128.667 -170)" d="M 4785.62,4485.86 L 4774.56,4480.7 L 4774.56,4469.15 L 5284.19,4174.93 L 5294.19,4180.7 L 5294.19,4192.25 L 4785.62,4485.86 Z " />
<path stroke="transparent" fill="#000000" transform="matrix(0.0833333 0 0 0.0833333 -128.667 -170)" d="M 4779.56,4406.22 L 4769.56,4388.9 L 5217.19,4130.47 L 5227.19,4147.79 L 4779.56,4406.22 Z " />
<path stroke="transparent" fill="#000000" transform="matrix(0.0833333 0 0 0.0833333 -128.667 -170)" d="M 4254.72,4192.13 L 4254.93,4180.7 L 4264.93,4174.93 L 4774.56,4469.15 L 4774.56,4480.7 L 4765.52,4487.03 L 4254.72,4192.13 Z " />
<path stroke="transparent" fill="#000000" transform="matrix(0.0833333 0 0 0.0833333 -128.667 -170)" d="M 4264.93,4174.93 L 4254.93,4180.7 L 4244.93,4174.68 L 4244.93,3586.49 L 4254.93,3580.71 L 4264.93,3586.49 L 4264.93,4174.93 Z " />
<path stroke="transparent" fill="#000000" transform="matrix(0.0833333 0 0 0.0833333 -128.667 -170)" d="M 4336.93,4139.13 L 4316.93,4139.13 L 4316.93,3622.28 L 4336.93,3622.28 L 4336.93,4139.13 Z " />
<path stroke="transparent" fill="#000000" transform="matrix(0.0833333 0 0 0.0833333 -128.667 -170)" d="M 3842.88,4410.18 L 3833.52,4392.51 L 4244.93,4174.68 L 4254.93,4180.7 L 4254.72,4192.13 L 3842.88,4410.18 Z " />
<path stroke="transparent" fill="#000000" transform="matrix(0.0833333 0 0 0.0833333 -128.667 -170)" d="M 3676.14,4349.24 L 3621.4,4456.03 L 3616.94,4453.13 L 3574.13,4309.53 L 3676.14,4349.24 L 3676.14,4349.24 Z " />
<path stroke="transparent" fill="#000000" transform="matrix(0.0833333 0 0 0.0833333 -128.667 -170)" d="M 3264.5,4224.23 L 3215.75,4180.7 L 3225.75,4173.92 L 3456.08,4263.58 L 3487.54,4369.09 L 3264.5,4224.23 L 3264.5,4224.23 Z " />
<path stroke="transparent" fill="#000000" transform="matrix(0.0833333 0 0 0.0833333 -128.667 -170)" d="M 2707.41,4485.73 L 2696.12,4480.7 L 2696.12,4469.15 L 3205.75,4174.93 L 3215.75,4180.7 L 3213.41,4193.6 L 2707.41,4485.73 Z " />
<path stroke="transparent" fill="#000000" transform="matrix(0.0833333 0 0 0.0833333 -128.667 -170)" d="M 2166.56,4186.48 L 2186.56,4174.93 L 2696.12,4469.15 L 2696.12,4480.7 L 2676.18,4480.73 L 2166.56,4186.48 Z " />
<path stroke="transparent" fill="#000000" transform="matrix(0.0833333 0 0 0.0833333 -128.667 -170)" d="M 2166.56,3576.36 L 2176.56,3580.71 L 2186.56,3586.49 L 2186.56,4174.93 L 2166.56,4186.48 L 2166.56,3576.36 Z " />
<path stroke="transparent" fill="#000000" transform="matrix(0.0833333 0 0 0.0833333 -128.667 -170)" d="M 2696.12,3269.17 L 2696.12,3292.26 L 2186.56,3586.49 L 2176.56,3580.71 L 2248.05,3527.89 L 2696.12,3269.17 Z " />
<path stroke="transparent" fill="#000000" transform="matrix(0.0833333 0 0 0.0833333 -128.667 -170)" d="M 3215.75,3569.17 L 3215.75,3580.71 L 3205.75,3586.49 L 2696.12,3292.26 L 2696.12,3269.17 L 3215.75,3569.17 L 3215.75,3569.17 Z " />
<path stroke="transparent" fill="#000000" transform="matrix(0.0833333 0 0 0.0833333 -128.667 -170)" d="M 3148.74,3613.62 L 3138.74,3630.94 L 2691.12,3372.52 L 2701.12,3355.2 L 3148.74,3613.62 L 3148.74,3613.62 Z " />
<path stroke="transparent" fill="#000000" transform="matrix(0.0833333 0 0 0.0833333 -128.667 -170)" d="M 3205.75,3586.49 L 3215.75,3580.71 L 3225.75,3586.49 L 3225.75,4173.92 L 3215.75,4180.7 L 3205.75,4174.93 L 3205.75,3586.49 Z " />
<path stroke="transparent" fill="#000000" transform="matrix(0.0833333 0 0 0.0833333 -128.667 -170)" d="M 3225.75,3586.49 L 3215.75,3580.71 L 3215.75,3569.17 L 3244.16,3552.76 L 3250.03,3572.46 L 3225.75,3586.49 L 3225.75,3586.49 Z " />
<path stroke="transparent" fill="#000000" transform="matrix(0.0833333 0 0 0.0833333 -128.667 -170)" d="M 3735.37,3269.17 L 3735.37,3292.26 L 3339.06,3521.07 L 3333.19,3501.37 L 3735.37,3269.17 L 3735.37,3269.17 Z " />
<path stroke="transparent" fill="#000000" transform="matrix(0.0833333 0 0 0.0833333 -128.667 -170)" d="M 6343.37,3574.94 L 6323.37,3586.49 L 5813.74,3292.26 L 5813.74,3269.17 L 6343.37,3574.94 Z " />
<path stroke="transparent" fill="#000000" transform="matrix(0.0833333 0 0 0.0833333 -128.667 -170)" d="M 6266.37,3613.62 L 6256.37,3630.94 L 5808.74,3372.52 L 5818.74,3355.2 L 6266.37,3613.62 Z " />
<path stroke="transparent" fill="#000000" transform="matrix(0.0833333 0 0 0.0833333 -128.667 -170)" d="M 6343.37,4167.76 L 6333.37,4180.7 L 6323.37,4174.93 L 6323.37,3586.49 L 6343.37,3574.94 L 6343.37,4167.76 Z " />
<path stroke="transparent" fill="#000000" transform="matrix(0.0833333 0 0 0.0833333 -128.667 -170)" d="M 5911.36,4435.89 L 5901.36,4418.57 L 6323.37,4174.93 L 6333.37,4180.7 L 6336.54,4190.42 L 5911.36,4435.89 Z " />
<path stroke="transparent" fill="#000000" transform="matrix(0.0833333 0 0 0.0833333 -128.667 -170)" d="M 5813.74,3269.17 L 5813.74,3292.26 L 5304.19,3586.49 L 5294.19,3580.71 L 5294.19,3569.17 L 5813.74,3269.17 Z " />
<path stroke="transparent" fill="#000000" transform="matrix(0.0833333 0 0 0.0833333 -128.667 -170)" d="M 5726.13,4418.56 L 5716.13,4435.88 L 5294.19,4192.25 L 5294.19,4180.7 L 5304.19,4174.93 L 5726.13,4418.56 Z " />
<path stroke="transparent" fill="#000000" transform="matrix(0.0833333 0 0 0.0833333 -128.667 -170)" d="M 3623.94,4692.68 L 3635.78,4691.33 L 3641.89,4701.51 L 3473.85,5039.52 L 3455.95,5030.61 L 3623.94,4692.68 Z " />
<path stroke="transparent" fill="#000000" transform="matrix(0.0833333 0 0 0.0833333 -128.667 -170)" d="M 2830.92,5078.7 L 2820.92,5067.6 L 2829.19,5058.41 L 3311.57,5109.1 L 3309.48,5128.99 L 2830.92,5078.7 Z " />
<path stroke="transparent" fill="#000000" transform="matrix(0.0833333 0 0 0.0833333 -128.667 -170)" d="M 3612.06,4646.75 L 3635.78,4691.33 L 3623.94,4692.68 L 3213.41,4193.6 L 3215.75,4180.7 L 3264.5,4224.23 L 3612.06,4646.75 Z " />
<path stroke="transparent" fill="#000000" transform="matrix(0.0833333 0 0 0.0833333 -128.667 -170)" d="M 2829.19,5058.41 L 2820.92,5067.6 L 2808.82,5058.81 L 2689.92,4499.65 L 2696.12,4480.7 L 2707.41,4485.73 L 2829.19,5058.41 Z " />
<path stroke="transparent" fill="#000000" transform="matrix(0.0833333 0 0 0.0833333 -128.667 -170)" d="M 3054.8,2777.62 L 3064.77,2741.04 L 3642.95,4680.37 L 3635.78,4691.33 L 3612.06,4646.75 L 3054.8,2777.62 Z " />
<path stroke="transparent" fill="#000000" transform="matrix(0.0833333 0 0 0.0833333 -128.667 -170)" d="M 3064.77,2741.04 L 3054.8,2777.62 L 2248.05,3527.89 L 2176.56,3580.71 L 2166.56,3576.36 L 3064.77,2741.04 Z " />
<path stroke="transparent" fill="#000000" transform="matrix(0.0833333 0 0 0.0833333 -128.667 -170)" d="M 3139.06,2285.74 L 3158.38,2290.92 L 3019.8,2808.08 L 3000.48,2802.91 L 3139.06,2285.74 Z " />
<path stroke="transparent" fill="#000000" transform="matrix(0.0833333 0 0 0.0833333 -128.667 -170)" d="M 3208.6,2304.38 L 3227.92,2309.56 L 3089.07,2827.76 L 3069.75,2822.58 L 3208.6,2304.38 Z " />
<path stroke="transparent" fill="#000000" transform="matrix(0.0833333 0 0 0.0833333 -128.667 -170)" d="M 3689.37,2800.56 L 3709.37,2800.56 L 3709.37,3301.5 L 3689.37,3301.5 L 3689.37,2800.56 Z " />
<path stroke="transparent" fill="#000000" transform="matrix(0.0833333 0 0 0.0833333 -128.667 -170)" d="M 3761.37,2800.56 L 3781.37,2800.56 L 3781.37,3301.5 L 3761.37,3301.5 L 3761.37,2800.56 Z " />
<path stroke="transparent" fill="#000000" transform="matrix(0.0833333 0 0 0.0833333 -128.667 -170)" d="M 7313.89,4525.27 L 7305.99,4546.97 L 6958.93,4133.35 L 6892.47,4023.03 L 7313.89,4525.27 Z " />
<path stroke="transparent" fill="#000000" transform="matrix(0.0833333 0 0 0.0833333 -128.667 -170)" d="M 7904.79,4421.05 L 7896.89,4442.75 L 7305.99,4546.97 L 7313.89,4525.27 L 7904.79,4421.05 Z " />
<path stroke="transparent" fill="#000000" transform="matrix(0.0833333 0 0 0.0833333 -128.667 -170)" d="M 8290.45,4880.68 L 8286.5,4891.53 L 8275.13,4893.53 L 7896.89,4442.75 L 7904.79,4421.05 L 8290.45,4880.68 Z " />
<path stroke="transparent" fill="#000000" transform="matrix(0.0833333 0 0 0.0833333 -128.667 -170)" d="M 8212.29,4899.54 L 8196.97,4912.39 L 7864.74,4516.45 L 7880.06,4503.6 L 8212.29,4899.54 Z " />
<path stroke="transparent" fill="#000000" transform="matrix(0.0833333 0 0 0.0833333 -128.667 -170)" d="M 8875.59,4777.54 L 8879.07,4797.23 L 8293.92,4900.37 L 8286.5,4891.53 L 8290.45,4880.68 L 8875.59,4777.54 Z " />
<path stroke="transparent" fill="#000000" transform="matrix(0.0833333 0 0 0.0833333 -128.667 -170)" d="M 8090.67,5458.8 L 8071.87,5451.95 L 8275.13,4893.53 L 8286.5,4891.53 L 8293.92,4900.37 L 8090.67,5458.8 Z " />
<path stroke="transparent" fill="#000000" transform="matrix(0.0833333 0 0 0.0833333 -128.667 -170)" d="M 6892.47,4023.03 L 6958.93,4133.35 L 6336.54,4190.42 L 6333.37,4180.7 L 6343.37,4167.76 L 6892.47,4023.03 Z " />
<path stroke="transparent" fill="#000000" transform="matrix(0.0833333 0 0 0.0833333 -128.667 -170)" d="M 5620.55,5330.94 L 5602.86,5345.78 L 4869.93,5078.95 L 4887.62,5064.1 L 5620.55,5330.94 Z " />
<path stroke="transparent" fill="#000000" transform="matrix(0.0833333 0 0 0.0833333 -128.667 -170)" d="M 5724.59,5921.18 L 5715.85,5929.19 L 5705.19,5926.33 L 5602.86,5345.78 L 5620.55,5330.94 L 5724.59,5921.18 Z " />
<path stroke="transparent" fill="#000000" transform="matrix(0.0833333 0 0 0.0833333 -128.667 -170)" d="M 5648.97,5906.89 L 5629.28,5910.36 L 5538.18,5393.52 L 5557.87,5390.05 L 5648.97,5906.89 Z " />
<path stroke="transparent" fill="#000000" transform="matrix(0.0833333 0 0 0.0833333 -128.667 -170)" d="M 6298,6074.87 L 6292.82,6094.19 L 5719.42,5940.49 L 5715.85,5929.19 L 5724.59,5921.18 L 6298,6074.87 Z " />
<path stroke="transparent" fill="#000000" transform="matrix(0.0833333 0 0 0.0833333 -128.667 -170)" d="M 5337.85,6395.24 L 5322.53,6382.39 L 5705.19,5926.33 L 5715.85,5929.19 L 5719.42,5940.49 L 5337.85,6395.24 Z " />
<path stroke="transparent" fill="#000000" transform="matrix(0.0833333 0 0 0.0833333 -128.667 -170)" d="M 4887.62,5064.1 L 4869.93,5078.95 L 4765.52,4487.03 L 4774.56,4480.7 L 4785.62,4485.86 L 4887.62,5064.1 Z " />
<path stroke="transparent" fill="#000000" transform="matrix(0.0833333 0 0 0.0833333 -128.667 -170)" d="M 6594.98,4723.95 L 6482.22,4765 L 6477.1,4745.58 L 6586.42,4705.79 L 6594.98,4723.95 Z " />
<path stroke="transparent" fill="#000000" transform="matrix(0.0833333 0 0 0.0833333 -128.667 -170)" d="M 6569.97,4670.88 L 6467.26,4708.26 L 6462.14,4688.84 L 6561.4,4652.71 L 6569.97,4670.88 Z " />
<path stroke="transparent" fill="#000000" transform="matrix(0.0833333 0 0 0.0833333 -128.667 -170)" d="M 6544.95,4617.8 L 6452.31,4651.53 L 6447.19,4632.11 L 6536.39,4599.63 L 6544.95,4617.8 Z " />
<path stroke="transparent" fill="#000000" transform="matrix(0.0833333 0 0 0.0833333 -128.667 -170)" d="M 6519.93,4564.73 L 6437.35,4594.79 L 6432.23,4575.37 L 6511.37,4546.56 L 6519.93,4564.73 Z " />
<path stroke="transparent" fill="#000000" transform="matrix(0.0833333 0 0 0.0833333 -128.667 -170)" d="M 6494.92,4511.65 L 6422.39,4538.05 L 6417.27,4518.63 L 6486.35,4493.48 L 6494.92,4511.65 Z " />
<path stroke="transparent" fill="#000000" transform="matrix(0.0833333 0 0 0.0833333 -128.667 -170)" d="M 6469.9,4458.58 L 6407.43,4481.32 L 6402.31,4461.9 L 6461.34,4440.41 L 6469.9,4458.58 Z " />
<path stroke="transparent" fill="#000000" transform="matrix(0.0833333 0 0 0.0833333 -128.667 -170)" d="M 6444.88,4405.5 L 6392.47,4424.58 L 6387.35,4405.16 L 6436.32,4387.33 L 6444.88,4405.5 Z " />
<path stroke="transparent" fill="#000000" transform="matrix(0.0833333 0 0 0.0833333 -128.667 -170)" d="M 6419.87,4352.42 L 6377.51,4367.84 L 6372.39,4348.42 L 6411.3,4334.26 L 6419.87,4352.42 Z " />
<path stroke="transparent" fill="#000000" transform="matrix(0.0833333 0 0 0.0833333 -128.667 -170)" d="M 6394.85,4299.35 L 6362.55,4311.11 L 6357.43,4291.69 L 6386.29,4281.18 L 6394.85,4299.35 Z " />
<path stroke="transparent" fill="#000000" transform="matrix(0.0833333 0 0 0.0833333 -128.667 -170)" d="M 6369.83,4246.27 L 6347.6,4254.37 L 6342.48,4234.95 L 6361.27,4228.11 L 6369.83,4246.27 Z " />
<path stroke="transparent" fill="#000000" transform="matrix(0.0833333 0 0 0.0833333 -128.667 -170)" d="M 2830.92,5667.59 L 2810.92,5667.59 L 2810.92,5078.7 L 2820.92,5067.6 L 2830.92,5078.7 L 2830.92,5667.59 Z " />
<path stroke="transparent" fill="#000000" transform="matrix(0.0833333 0 0 0.0833333 -128.667 -170)" d="M 2225.24,5140.23 L 2223.15,5120.34 L 2808.82,5058.81 L 2820.92,5067.6 L 2810.92,5078.7 L 2225.24,5140.23 Z " />
<path stroke="transparent" fill="#000000" transform="matrix(0.0833333 0 0 0.0833333 -128.667 -170)" d="M 4764.56,2800.56 L 4784.56,2800.56 L 4784.56,3274.94 L 4774.56,3280.72 L 4764.56,3274.94 L 4764.56,2800.56 Z " />
<path stroke="transparent" fill="#000000" transform="matrix(0.0833333 0 0 0.0833333 -128.667 -170)" d="M 4234.57,4604.84 L 4279.7,4723 L 3641.89,4701.51 L 3635.78,4691.33 L 3642.95,4680.37 L 4234.57,4604.84 Z " />
<path stroke="transparent" fill="#000000" transform="matrix(0.0833333 0 0 0.0833333 -128.667 -170)" d="M 4862.8,6679.91 L 4847.48,6692.77 L 4465.16,6237.12 L 4469.47,6226.71 L 4480.84,6224.7 L 4862.8,6679.91 Z " />
<path stroke="transparent" fill="#000000" transform="matrix(0.0833333 0 0 0.0833333 -128.667 -170)" d="M 2344.82,4810.1 L 2274.29,4713.01 L 2676.18,4480.73 L 2696.12,4480.7 L 2689.92,4499.65 L 2344.82,4810.1 Z " />
<path stroke="transparent" fill="#000000" transform="matrix(0.0833333 0 0 0.0833333 -128.667 -170)" d="M 1737.06,3396.26 L 1797.06,3292.34 L 1813.19,3304.4 L 1755.58,3404.19 L 1737.06,3396.26 Z " />
<path stroke="transparent" fill="#000000" transform="matrix(0.0833333 0 0 0.0833333 -128.667 -170)" d="M 1789.8,3418.85 L 1842.99,3326.71 L 1859.12,3338.77 L 1808.31,3426.78 L 1789.8,3418.85 Z " />
<path stroke="transparent" fill="#000000" transform="matrix(0.0833333 0 0 0.0833333 -128.667 -170)" d="M 1842.53,3441.44 L 1888.93,3361.08 L 1905.05,3373.15 L 1861.04,3449.37 L 1842.53,3441.44 Z " />
<path stroke="transparent" fill="#000000" transform="matrix(0.0833333 0 0 0.0833333 -128.667 -170)" d="M 1895.26,3464.03 L 1934.86,3395.45 L 1950.98,3407.52 L 1913.78,3471.96 L 1895.26,3464.03 Z " />
<path stroke="transparent" fill="#000000" transform="matrix(0.0833333 0 0 0.0833333 -128.667 -170)" d="M 1948,3486.62 L 1980.79,3429.82 L 1996.92,3441.89 L 1966.51,3494.55 L 1948,3486.62 Z " />
<path stroke="transparent" fill="#000000" transform="matrix(0.0833333 0 0 0.0833333 -128.667 -170)" d="M 2000.73,3509.21 L 2026.72,3464.19 L 2042.85,3476.26 L 2019.25,3517.14 L 2000.73,3509.21 Z " />
<path stroke="transparent" fill="#000000" transform="matrix(0.0833333 0 0 0.0833333 -128.667 -170)" d="M 2053.46,3531.8 L 2072.65,3498.57 L 2088.78,3510.63 L 2071.98,3539.74 L 2053.46,3531.8 Z " />
<path stroke="transparent" fill="#000000" transform="matrix(0.0833333 0 0 0.0833333 -128.667 -170)" d="M 2106.2,3554.39 L 2118.59,3532.94 L 2134.71,3545.01 L 2124.71,3562.33 L 2106.2,3554.39 Z " />
</svg>
