<?xml version="1.0" standalone="no" ?>
<!DOCTYPE svg PUBLIC "-//W3C//DTD SVG 1.1//EN" "http://www.w3.org/Graphics/SVG/1.1/DTD/svg11.dtd">
<svg width="370px" height="261px" viewBox="0 0 370 261" style="background-color: #ffffff00" xmlns="http://www.w3.org/2000/svg" xmlns:xlink="http://www.w3.org/1999/xlink" version="1.1" >
<text x="0" y="0" stroke="transparent" fill="#000000" transform="matrix(0.0833333 0 0 0.0833333 353.547 52.3205)" style="font:normal normal normal 200px 'Arial'" >
O</text>
<text x="0" y="0" stroke="transparent" fill="#000000" transform="matrix(0.0833333 0 0 0.0833333 305.945 65.9625)" style="font:normal normal normal 200px 'Arial'" >
N</text>
<text x="0" y="0" stroke="transparent" fill="#000000" transform="matrix(0.0833333 0 0 0.0833333 191.231 129.906)" style="font:normal normal normal 200px 'Arial'" >
O</text>
<text x="0" y="0" stroke="transparent" fill="#000000" transform="matrix(0.0833333 0 0 0.0833333 188.443 214.776)" style="font:normal normal normal 200px 'Arial'" >
O</text>
<text x="0" y="0" stroke="transparent" fill="#000000" transform="matrix(0.0833333 0 0 0.0833333 35.7989 196.74)" style="font:normal normal normal 200px 'Arial'" >
HO</text>
<text x="0" y="0" stroke="transparent" fill="#000000" transform="matrix(0.0833333 0 0 0.0833333 3.70294 120.47)" style="font:normal normal normal 200px 'Arial'" >
HO</text>
<text x="0" y="0" stroke="transparent" fill="#000000" transform="matrix(0.0833333 0 0 0.0833333 65.8709 19.5336)" style="font:normal normal normal 200px 'Arial'" >
O</text>
<text x="0" y="0" stroke="transparent" fill="#000000" transform="matrix(0.0833333 0 0 0.0833333 139.911 53.0841)" style="font:normal normal normal 200px 'Arial'" >
O</text>
<path stroke="transparent" fill="#000000" transform="matrix(0.0833333 0 0 0.0833333 -250.875 -238)" d="M 6873.16,3583.52 L 6867.7,3564.28 L 7230.9,3461.28 L 7236.35,3480.52 L 6873.16,3583.52 Z " />
<path stroke="transparent" fill="#000000" transform="matrix(0.0833333 0 0 0.0833333 -250.875 -238)" d="M 6853.51,3514.26 L 6848.06,3495.02 L 7211.25,3392.01 L 7216.71,3411.25 L 6853.51,3514.26 Z " />
<path stroke="transparent" fill="#000000" transform="matrix(0.0833333 0 0 0.0833333 -250.875 -238)" d="M 6238.02,3869.77 L 6230.3,3862.63 L 6232.29,3850.05 L 6638.46,3622.68 L 6648.23,3640.14 L 6238.02,3869.77 Z " />
<path stroke="transparent" fill="#000000" transform="matrix(0.0833333 0 0 0.0833333 -250.875 -238)" d="M 5993.42,4400.17 L 5979.03,4407.49 L 5972.99,4396.7 L 6217.92,3865.6 L 6230.3,3862.63 L 6238.02,3869.77 L 5993.42,4400.17 Z " />
<path stroke="transparent" fill="#000000" transform="matrix(0.0833333 0 0 0.0833333 -250.875 -238)" d="M 5488.87,4359.46 L 5491.23,4339.6 L 5972.99,4396.7 L 5979.03,4407.49 L 5977.86,4417.42 L 5488.87,4359.46 Z " />
<path stroke="transparent" fill="#000000" transform="matrix(0.0833333 0 0 0.0833333 -250.875 -238)" d="M 5055.84,4844.69 L 5043.81,4826.69 L 5308.11,4431.32 L 5324.74,4442.43 L 5055.84,4844.69 Z " />
<path stroke="transparent" fill="#000000" transform="matrix(0.0833333 0 0 0.0833333 -250.875 -238)" d="M 5336.4,5240.08 L 5319.08,5250.08 L 5063.47,4807.33 L 5080.79,4797.33 L 5336.4,5240.08 Z " />
<path stroke="transparent" fill="#000000" transform="matrix(0.0833333 0 0 0.0833333 -250.875 -238)" d="M 5274.05,5276.07 L 5256.73,5286.07 L 5003.88,4848.11 L 5021.2,4838.11 L 5274.05,5276.07 Z " />
<path stroke="transparent" fill="#000000" transform="matrix(0.0833333 0 0 0.0833333 -250.875 -238)" d="M 4459.29,4963.32 L 4463.52,4942.09 L 5043.81,4826.69 L 5055.84,4844.69 L 4459.29,4963.32 Z " />
<path stroke="transparent" fill="#000000" transform="matrix(0.0833333 0 0 0.0833333 -250.875 -238)" d="M 4413.65,5499.8 L 4295.96,5476.36 L 4301.86,5457.15 L 4415.56,5479.79 L 4413.65,5499.8 Z " />
<path stroke="transparent" fill="#000000" transform="matrix(0.0833333 0 0 0.0833333 -250.875 -238)" d="M 4419.29,5440.79 L 4313.36,5419.7 L 4319.26,5400.48 L 4421.2,5420.78 L 4419.29,5440.79 Z " />
<path stroke="transparent" fill="#000000" transform="matrix(0.0833333 0 0 0.0833333 -250.875 -238)" d="M 4424.92,5381.78 L 4330.76,5363.03 L 4336.66,5343.81 L 4426.84,5361.77 L 4424.92,5381.78 Z " />
<path stroke="transparent" fill="#000000" transform="matrix(0.0833333 0 0 0.0833333 -250.875 -238)" d="M 4430.56,5322.77 L 4348.15,5306.36 L 4354.05,5287.14 L 4432.47,5302.76 L 4430.56,5322.77 Z " />
<path stroke="transparent" fill="#000000" transform="matrix(0.0833333 0 0 0.0833333 -250.875 -238)" d="M 4436.2,5263.76 L 4365.55,5249.69 L 4371.45,5230.47 L 4438.11,5243.75 L 4436.2,5263.76 Z " />
<path stroke="transparent" fill="#000000" transform="matrix(0.0833333 0 0 0.0833333 -250.875 -238)" d="M 4441.83,5204.75 L 4382.95,5193.02 L 4388.85,5173.81 L 4443.74,5184.74 L 4441.83,5204.75 Z " />
<path stroke="transparent" fill="#000000" transform="matrix(0.0833333 0 0 0.0833333 -250.875 -238)" d="M 4447.47,5145.74 L 4400.34,5136.36 L 4406.24,5117.14 L 4449.38,5125.73 L 4447.47,5145.74 Z " />
<path stroke="transparent" fill="#000000" transform="matrix(0.0833333 0 0 0.0833333 -250.875 -238)" d="M 4453.1,5086.73 L 4417.74,5079.69 L 4423.64,5060.47 L 4455.02,5066.72 L 4453.1,5086.73 Z " />
<path stroke="transparent" fill="#000000" transform="matrix(0.0833333 0 0 0.0833333 -250.875 -238)" d="M 4458.74,5027.72 L 4435.14,5023.02 L 4441.04,5003.8 L 4460.65,5007.71 L 4458.74,5027.72 Z " />
<path stroke="transparent" fill="#000000" transform="matrix(0.0833333 0 0 0.0833333 -250.875 -238)" d="M 4801.88,5929.23 L 4788.69,5944.27 L 4341.99,5552.45 L 4346.5,5529.8 L 4801.88,5929.23 Z " />
<path stroke="transparent" fill="#000000" transform="matrix(0.0833333 0 0 0.0833333 -250.875 -238)" d="M 3779.26,5743.39 L 3772.83,5724.45 L 4346.5,5529.8 L 4341.99,5552.45 L 3779.26,5743.39 Z " />
<path stroke="transparent" fill="#000000" transform="matrix(0.0833333 0 0 0.0833333 -250.875 -238)" d="M 3966.74,4634.12 L 3962.51,4619.26 L 3971.51,4613.25 L 4463.52,4942.09 L 4459.29,4963.32 L 3966.74,4634.12 Z " />
<path stroke="transparent" fill="#000000" transform="matrix(0.0833333 0 0 0.0833333 -250.875 -238)" d="M 3362.53,4679.26 L 3362.53,4559.26 L 3382.53,4561.1 L 3382.53,4677.43 L 3362.53,4679.26 Z " />
<path stroke="transparent" fill="#000000" transform="matrix(0.0833333 0 0 0.0833333 -250.875 -238)" d="M 3420.96,4673.91 L 3420.96,4564.62 L 3440.96,4566.45 L 3440.96,4672.08 L 3420.96,4673.91 Z " />
<path stroke="transparent" fill="#000000" transform="matrix(0.0833333 0 0 0.0833333 -250.875 -238)" d="M 3479.39,4668.56 L 3479.39,4569.97 L 3499.39,4571.8 L 3499.39,4666.73 L 3479.39,4668.56 Z " />
<path stroke="transparent" fill="#000000" transform="matrix(0.0833333 0 0 0.0833333 -250.875 -238)" d="M 3537.83,4663.21 L 3537.83,4575.32 L 3557.83,4577.15 L 3557.83,4661.38 L 3537.83,4663.21 Z " />
<path stroke="transparent" fill="#000000" transform="matrix(0.0833333 0 0 0.0833333 -250.875 -238)" d="M 3596.26,4657.86 L 3596.26,4580.67 L 3616.26,4582.5 L 3616.26,4656.02 L 3596.26,4657.86 Z " />
<path stroke="transparent" fill="#000000" transform="matrix(0.0833333 0 0 0.0833333 -250.875 -238)" d="M 3654.69,4652.5 L 3654.69,4586.02 L 3674.69,4587.86 L 3674.69,4650.67 L 3654.69,4652.5 Z " />
<path stroke="transparent" fill="#000000" transform="matrix(0.0833333 0 0 0.0833333 -250.875 -238)" d="M 3713.13,4647.15 L 3713.13,4591.38 L 3733.13,4593.21 L 3733.13,4645.32 L 3713.13,4647.15 Z " />
<path stroke="transparent" fill="#000000" transform="matrix(0.0833333 0 0 0.0833333 -250.875 -238)" d="M 3771.56,4641.8 L 3771.56,4596.73 L 3791.56,4598.56 L 3791.56,4639.97 L 3771.56,4641.8 Z " />
<path stroke="transparent" fill="#000000" transform="matrix(0.0833333 0 0 0.0833333 -250.875 -238)" d="M 3829.99,4636.45 L 3829.99,4602.08 L 3849.99,4603.91 L 3849.99,4634.62 L 3829.99,4636.45 Z " />
<path stroke="transparent" fill="#000000" transform="matrix(0.0833333 0 0 0.0833333 -250.875 -238)" d="M 3888.42,4631.1 L 3888.42,4607.43 L 3908.42,4609.26 L 3908.42,4629.26 L 3888.42,4631.1 Z " />
<path stroke="transparent" fill="#000000" transform="matrix(0.0833333 0 0 0.0833333 -250.875 -238)" d="M 3767.69,5076.72 L 3663.77,5016.72 L 3951.87,4617.01 L 3962.51,4619.26 L 3966.74,4634.12 L 3767.69,5076.72 Z " />
<path stroke="transparent" fill="#000000" transform="matrix(0.0833333 0 0 0.0833333 -250.875 -238)" d="M 3838.21,4045.14 L 3845.57,4030.85 L 3856.19,4032.96 L 3971.51,4613.25 L 3962.51,4619.26 L 3951.87,4617.01 L 3838.21,4045.14 Z " />
<path stroke="transparent" fill="#000000" transform="matrix(0.0833333 0 0 0.0833333 -250.875 -238)" d="M 3354.96,3680.25 L 3434.1,3590.04 L 3447.92,3604.61 L 3371.2,3692.06 L 3354.96,3680.25 Z " />
<path stroke="transparent" fill="#000000" transform="matrix(0.0833333 0 0 0.0833333 -250.875 -238)" d="M 3402.42,3714.77 L 3474.5,3632.61 L 3488.33,3647.18 L 3418.67,3726.58 L 3402.42,3714.77 Z " />
<path stroke="transparent" fill="#000000" transform="matrix(0.0833333 0 0 0.0833333 -250.875 -238)" d="M 3449.89,3749.29 L 3514.91,3675.18 L 3528.73,3689.75 L 3466.13,3761.11 L 3449.89,3749.29 Z " />
<path stroke="transparent" fill="#000000" transform="matrix(0.0833333 0 0 0.0833333 -250.875 -238)" d="M 3497.35,3783.81 L 3555.31,3717.75 L 3569.14,3732.31 L 3513.6,3795.63 L 3497.35,3783.81 Z " />
<path stroke="transparent" fill="#000000" transform="matrix(0.0833333 0 0 0.0833333 -250.875 -238)" d="M 3544.82,3818.33 L 3595.72,3760.31 L 3609.55,3774.88 L 3561.06,3830.15 L 3544.82,3818.33 Z " />
<path stroke="transparent" fill="#000000" transform="matrix(0.0833333 0 0 0.0833333 -250.875 -238)" d="M 3592.28,3852.85 L 3636.12,3802.88 L 3649.95,3817.45 L 3608.52,3864.67 L 3592.28,3852.85 Z " />
<path stroke="transparent" fill="#000000" transform="matrix(0.0833333 0 0 0.0833333 -250.875 -238)" d="M 3639.75,3887.38 L 3676.53,3845.45 L 3690.36,3860.01 L 3655.99,3899.19 L 3639.75,3887.38 Z " />
<path stroke="transparent" fill="#000000" transform="matrix(0.0833333 0 0 0.0833333 -250.875 -238)" d="M 3687.21,3921.9 L 3716.93,3888.01 L 3730.76,3902.58 L 3703.45,3933.71 L 3687.21,3921.9 Z " />
<path stroke="transparent" fill="#000000" transform="matrix(0.0833333 0 0 0.0833333 -250.875 -238)" d="M 3734.67,3956.42 L 3757.34,3930.58 L 3771.17,3945.15 L 3750.92,3968.23 L 3734.67,3956.42 Z " />
<path stroke="transparent" fill="#000000" transform="matrix(0.0833333 0 0 0.0833333 -250.875 -238)" d="M 3782.14,3990.94 L 3797.74,3973.15 L 3811.57,3987.72 L 3798.38,4002.75 L 3782.14,3990.94 Z " />
<path stroke="transparent" fill="#000000" transform="matrix(0.0833333 0 0 0.0833333 -250.875 -238)" d="M 3397.97,4246.08 L 3359.41,4132.44 L 3839.42,4022.05 L 3845.57,4030.85 L 3838.21,4045.14 L 3397.97,4246.08 Z " />
<path stroke="transparent" fill="#000000" transform="matrix(0.0833333 0 0 0.0833333 -250.875 -238)" d="M 4172.93,3523.02 L 4184.95,3541.02 L 3856.19,4032.96 L 3845.57,4030.85 L 3839.42,4022.05 L 4172.93,3523.02 Z " />
<path stroke="transparent" fill="#000000" transform="matrix(0.0833333 0 0 0.0833333 -250.875 -238)" d="M 3899.65,3140.26 L 3916.97,3130.26 L 4165.3,3560.4 L 4147.98,3570.4 L 3899.65,3140.26 Z " />
<path stroke="transparent" fill="#000000" transform="matrix(0.0833333 0 0 0.0833333 -250.875 -238)" d="M 3962,3104.26 L 3979.32,3094.26 L 4224.89,3519.61 L 4207.57,3529.61 L 3962,3104.26 Z " />
<path stroke="transparent" fill="#000000" transform="matrix(0.0833333 0 0 0.0833333 -250.875 -238)" d="M 4657.24,3426.72 L 4661.14,3446.34 L 4184.95,3541.02 L 4172.93,3523.02 L 4657.24,3426.72 Z " />
<path stroke="transparent" fill="#000000" transform="matrix(0.0833333 0 0 0.0833333 -250.875 -238)" d="M 5266.72,3736.73 L 5265.79,3760.17 L 4858.71,3488.05 L 4869.82,3471.43 L 5266.72,3736.73 Z " />
<path stroke="transparent" fill="#000000" transform="matrix(0.0833333 0 0 0.0833333 -250.875 -238)" d="M 5782.08,3448.16 L 5789.8,3455.3 L 5741.77,3493.65 L 5265.79,3760.17 L 5266.72,3736.73 L 5782.08,3448.16 Z " />
<path stroke="transparent" fill="#000000" transform="matrix(0.0833333 0 0 0.0833333 -250.875 -238)" d="M 5741.77,3493.65 L 5789.8,3455.3 L 5824.28,3404.42 L 6232.29,3850.05 L 6230.3,3862.63 L 6217.92,3865.6 L 5741.77,3493.65 Z " />
<path stroke="transparent" fill="#000000" transform="matrix(0.0833333 0 0 0.0833333 -250.875 -238)" d="M 6035.03,2899.73 L 6047.11,2921.3 L 5824.28,3404.42 L 5789.8,3455.3 L 5782.08,3448.16 L 6035.03,2899.73 Z " />
<path stroke="transparent" fill="#000000" transform="matrix(0.0833333 0 0 0.0833333 -250.875 -238)" d="M 6075.46,2983.97 L 6093.62,2992.35 L 5886.16,3442.14 L 5868,3433.77 L 6075.46,2983.97 Z " />
<path stroke="transparent" fill="#000000" transform="matrix(0.0833333 0 0 0.0833333 -250.875 -238)" d="M 6645.22,2971.98 L 6628.44,2990.13 L 6047.11,2921.3 L 6035.03,2899.73 L 6645.22,2971.98 Z " />
<path stroke="transparent" fill="#000000" transform="matrix(0.0833333 0 0 0.0833333 -250.875 -238)" d="M 6628.44,2990.13 L 6645.22,2971.98 L 6741.74,3457.37 L 6722.12,3461.27 L 6628.44,2990.13 Z " />
<path stroke="transparent" fill="#000000" transform="matrix(0.0833333 0 0 0.0833333 -250.875 -238)" d="M 6592.1,4518.48 L 6522.25,4623.46 L 5976.78,4417.29 L 5979.03,4407.49 L 5993.42,4400.17 L 6592.1,4518.48 Z " />
<path stroke="transparent" fill="#000000" transform="matrix(0.0833333 0 0 0.0833333 -250.875 -238)" d="M 6951.78,4129.51 L 6974.81,4134.06 L 6522.25,4623.46 L 6592.1,4518.48 L 6951.78,4129.51 Z " />
<path stroke="transparent" fill="#000000" transform="matrix(0.0833333 0 0 0.0833333 -250.875 -238)" d="M 6974.81,4134.06 L 6951.78,4129.51 L 6790.56,3696.75 L 6809.3,3689.77 L 6974.81,4134.06 Z " />
</svg>
