<?xml version="1.0" standalone="no" ?>
<!DOCTYPE svg PUBLIC "-//W3C//DTD SVG 1.1//EN" "http://www.w3.org/Graphics/SVG/1.1/DTD/svg11.dtd">
<svg width="468px" height="393px" viewBox="0 0 468 393" style="background-color: #ffffff00" xmlns="http://www.w3.org/2000/svg" xmlns:xlink="http://www.w3.org/1999/xlink" version="1.1" >
<text x="0" y="0" stroke="transparent" fill="#000000" transform="matrix(0.0833333 0 0 0.0833333 80.8665 21.9294)" style="font:normal normal normal 200px 'Arial'" >
N</text>
<text x="0" y="0" stroke="transparent" fill="#000000" transform="matrix(0.0833333 0 0 0.0833333 44.3542 191.354)" style="font:normal normal normal 200px 'Arial'" >
O</text>
<text x="0" y="0" stroke="transparent" fill="#000000" transform="matrix(0.0833333 0 0 0.0833333 126.718 164.591)" style="font:normal normal normal 200px 'Arial'" >
O</text>
<text x="0" y="0" stroke="transparent" fill="#000000" transform="matrix(0.0833333 0 0 0.0833333 205.943 359.143)" style="font:normal normal normal 200px 'Arial'" >
O</text>
<text x="0" y="0" stroke="transparent" fill="#000000" transform="matrix(0.0833333 0 0 0.0833333 205.943 146.045)" style="font:normal normal normal 200px 'Arial'" >
O</text>
<text x="0" y="0" stroke="transparent" fill="#000000" transform="matrix(0.0833333 0 0 0.0833333 217.246 60.1842)" style="font:normal normal normal 200px 'Arial'" >
O</text>
<text x="0" y="0" stroke="transparent" fill="#000000" transform="matrix(0.0833333 0 0 0.0833333 178.046 326.216)" style="font:normal normal normal 200px 'Arial'" >
O</text>
<text x="0" y="0" stroke="transparent" fill="#000000" transform="matrix(0.0833333 0 0 0.0833333 117.167 388.713)" style="font:normal normal normal 200px 'Arial'" >
O</text>
<text x="0" y="0" stroke="transparent" fill="#000000" transform="matrix(0.0833333 0 0 0.0833333 348.092 341.955)" style="font:normal normal normal 200px 'Arial'" >
H</text>
<text x="0" y="0" stroke="transparent" fill="#000000" transform="matrix(0.0833333 0 0 0.0833333 178.546 178.979)" style="font:normal normal normal 200px 'Arial'" >
H</text>
<text x="0" y="0" stroke="transparent" fill="#000000" transform="matrix(0.0833333 0 0 0.0833333 431.177 227.597)" style="font:normal normal normal 200px 'Arial'" >
H</text>
<path stroke="transparent" fill="#000000" transform="matrix(0.0833333 0 0 0.0833333 -202.208 -163)" d="M 3264.12,3160.14 L 3252.82,3157.74 L 3249.26,3146.76 L 3642.99,2709.45 L 3665.57,2714.25 L 3264.12,3160.14 Z " />
<path stroke="transparent" fill="#000000" transform="matrix(0.0833333 0 0 0.0833333 -202.208 -163)" d="M 2658.18,3041.52 L 2673.64,3024.36 L 3249.26,3146.76 L 3252.82,3157.74 L 3245.1,3166.32 L 2658.18,3041.52 Z " />
<path stroke="transparent" fill="#000000" transform="matrix(0.0833333 0 0 0.0833333 -202.208 -163)" d="M 2719.47,2980.94 L 2723.63,2961.37 L 3229.21,3068.88 L 3225.05,3088.44 L 2719.47,2980.94 Z " />
<path stroke="transparent" fill="#000000" transform="matrix(0.0833333 0 0 0.0833333 -202.208 -163)" d="M 2469.24,2459.92 L 2491.82,2464.72 L 2673.64,3024.36 L 2658.18,3041.52 L 2469.24,2459.92 Z " />
<path stroke="transparent" fill="#000000" transform="matrix(0.0833333 0 0 0.0833333 -202.208 -163)" d="M 2878.42,2005.44 L 2885.55,2027.41 L 2491.82,2464.72 L 2469.24,2459.92 L 2878.42,2005.44 Z " />
<path stroke="transparent" fill="#000000" transform="matrix(0.0833333 0 0 0.0833333 -202.208 -163)" d="M 2900.25,2088.8 L 2915.11,2102.18 L 2569.28,2486.29 L 2554.42,2472.91 L 2900.25,2088.8 Z " />
<path stroke="transparent" fill="#000000" transform="matrix(0.0833333 0 0 0.0833333 -202.208 -163)" d="M 3365.53,2108.96 L 3361.37,2128.53 L 2885.55,2027.41 L 2878.42,2005.44 L 3365.53,2108.96 Z " />
<path stroke="transparent" fill="#000000" transform="matrix(0.0833333 0 0 0.0833333 -202.208 -163)" d="M 3499.81,2268.69 L 3518.83,2262.51 L 3665.57,2714.25 L 3642.99,2709.45 L 3499.81,2268.69 Z " />
<path stroke="transparent" fill="#000000" transform="matrix(0.0833333 0 0 0.0833333 -202.208 -163)" d="M 3431.33,2290.94 L 3450.35,2284.76 L 3582.47,2691.47 L 3563.44,2697.65 L 3431.33,2290.94 Z " />
<path stroke="transparent" fill="#000000" transform="matrix(0.0833333 0 0 0.0833333 -202.208 -163)" d="M 3142.39,4125.66 L 3127.53,4112.28 L 3471.44,3730.31 L 3486.3,3743.69 L 3142.39,4125.66 Z " />
<path stroke="transparent" fill="#000000" transform="matrix(0.0833333 0 0 0.0833333 -202.208 -163)" d="M 3088.89,4077.49 L 3074.02,4064.11 L 3417.93,3682.13 L 3432.79,3695.52 L 3088.89,4077.49 Z " />
<path stroke="transparent" fill="#000000" transform="matrix(0.0833333 0 0 0.0833333 -202.208 -163)" d="M 3922.45,3821.05 L 3918.29,3840.61 L 3430.48,3736.94 L 3445.93,3719.78 L 3922.45,3821.05 Z " />
<path stroke="transparent" fill="#000000" transform="matrix(0.0833333 0 0 0.0833333 -202.208 -163)" d="M 3445.93,3719.78 L 3430.48,3736.94 L 3245.1,3166.32 L 3252.82,3157.74 L 3264.12,3160.14 L 3445.93,3719.78 Z " />
<path stroke="transparent" fill="#000000" transform="matrix(0.0833333 0 0 0.0833333 -202.208 -163)" d="M 4791.12,5205.03 L 4781.12,5209.17 L 4771.12,5201.9 L 4771.12,4616.43 L 4781.12,4609.17 L 4791.12,4613.31 L 4791.12,5205.03 Z " />
<path stroke="transparent" fill="#000000" transform="matrix(0.0833333 0 0 0.0833333 -202.208 -163)" d="M 5209.56,5623.39 L 5201.27,5643.39 L 4778.38,5220.57 L 4781.12,5209.17 L 4791.12,5205.03 L 5209.56,5623.39 Z " />
<path stroke="transparent" fill="#000000" transform="matrix(0.0833333 0 0 0.0833333 -202.208 -163)" d="M 5801.28,5623.39 L 5805.42,5633.39 L 5798.74,5643.39 L 5201.27,5643.39 L 5209.56,5623.39 L 5801.28,5623.39 Z " />
<path stroke="transparent" fill="#000000" transform="matrix(0.0833333 0 0 0.0833333 -202.208 -163)" d="M 6226.97,5197.76 L 6232.45,5220.57 L 5817.21,5635.74 L 5805.42,5633.39 L 5801.28,5623.39 L 6226.97,5197.76 Z " />
<path stroke="transparent" fill="#000000" transform="matrix(0.0833333 0 0 0.0833333 -202.208 -163)" d="M 6242.35,5284.2 L 6256.49,5298.35 L 5897.42,5657.36 L 5883.28,5643.21 L 6242.35,5284.2 Z " />
<path stroke="transparent" fill="#000000" transform="matrix(0.0833333 0 0 0.0833333 -202.208 -163)" d="M 6796.51,5382.8 L 6800.33,5394.55 L 6787.8,5401 L 6232.45,5220.57 L 6226.97,5197.76 L 6796.51,5382.8 Z " />
<path stroke="transparent" fill="#000000" transform="matrix(0.0833333 0 0 0.0833333 -202.208 -163)" d="M 7140.63,4909.17 L 7152.99,4909.17 L 7150.9,4929.06 L 6818.6,5386.42 L 6800.33,5394.55 L 6796.51,5382.8 L 7140.63,4909.17 Z " />
<path stroke="transparent" fill="#000000" transform="matrix(0.0833333 0 0 0.0833333 -202.208 -163)" d="M 6796.51,4435.47 L 6804.15,4411.95 L 7155.23,4895.24 L 7152.99,4909.17 L 7140.63,4909.17 L 6796.51,4435.47 Z " />
<path stroke="transparent" fill="#000000" transform="matrix(0.0833333 0 0 0.0833333 -202.208 -163)" d="M 6226.97,4620.57 L 6232.45,4597.76 L 6804.15,4411.95 L 6796.51,4435.47 L 6226.97,4620.57 Z " />
<path stroke="transparent" fill="#000000" transform="matrix(0.0833333 0 0 0.0833333 -202.208 -163)" d="M 5801.28,4194.87 L 5809.56,4174.87 L 6232.45,4597.76 L 6226.97,4620.57 L 5801.28,4194.87 Z " />
<path stroke="transparent" fill="#000000" transform="matrix(0.0833333 0 0 0.0833333 -202.208 -163)" d="M 5209.56,4194.87 L 5205.41,4184.87 L 5212.82,4174.87 L 5809.56,4174.87 L 5801.28,4194.87 L 5209.56,4194.87 Z " />
<path stroke="transparent" fill="#000000" transform="matrix(0.0833333 0 0 0.0833333 -202.208 -163)" d="M 5193.11,4183.04 L 5205.41,4184.87 L 5209.56,4194.87 L 4791.12,4613.31 L 4781.12,4609.17 L 4788.36,4587.79 L 5193.11,4183.04 Z " />
<path stroke="transparent" fill="#000000" transform="matrix(0.0833333 0 0 0.0833333 -202.208 -163)" d="M 6809.16,5405.53 L 6800.33,5394.55 L 6818.6,5386.42 L 7380.88,5445.49 L 7397.06,5457.24 L 7390.27,5466.58 L 6809.16,5405.53 Z " />
<path stroke="transparent" fill="#000000" transform="matrix(0.0833333 0 0 0.0833333 -202.208 -163)" d="M 7150.9,4929.06 L 7152.99,4909.17 L 7166.17,4914.19 L 7403.85,5447.9 L 7397.06,5457.24 L 7380.88,5445.49 L 7150.9,4929.06 Z " />
<path stroke="transparent" fill="#000000" transform="matrix(0.0833333 0 0 0.0833333 -202.208 -163)" d="M 3845.48,4909.17 L 3870.21,4909.17 L 4214.32,5382.8 L 4206.68,5406.31 L 3845.48,4909.17 Z " />
<path stroke="transparent" fill="#000000" transform="matrix(0.0833333 0 0 0.0833333 -202.208 -163)" d="M 4206.68,4411.95 L 4214.32,4435.47 L 3870.21,4909.17 L 3845.48,4909.17 L 4206.68,4411.95 Z " />
<path stroke="transparent" fill="#000000" transform="matrix(0.0833333 0 0 0.0833333 -202.208 -163)" d="M 4764.97,4593.4 L 4781.12,4609.17 L 4771.12,4616.43 L 4214.32,4435.47 L 4206.68,4411.95 L 4764.97,4593.4 Z " />
<path stroke="transparent" fill="#000000" transform="matrix(0.0833333 0 0 0.0833333 -202.208 -163)" d="M 4771.12,5201.9 L 4781.12,5209.17 L 4778.38,5220.57 L 4206.68,5406.31 L 4214.32,5382.8 L 4771.12,5201.9 Z " />
<path stroke="transparent" fill="#000000" transform="matrix(0.0833333 0 0 0.0833333 -202.208 -163)" d="M 5058.99,6107.11 L 5040.51,6099.46 L 5235.14,5629.56 L 5253.62,5637.21 L 5058.99,6107.11 Z " />
<path stroke="transparent" fill="#000000" transform="matrix(0.0833333 0 0 0.0833333 -202.208 -163)" d="M 4992.47,6079.56 L 4973.99,6071.9 L 5168.62,5602.01 L 5187.1,5609.66 L 4992.47,6079.56 Z " />
<path stroke="transparent" fill="#000000" transform="matrix(0.0833333 0 0 0.0833333 -202.208 -163)" d="M 5992.52,3612.94 L 6011,3620.59 L 5775.69,4188.7 L 5757.21,4181.05 L 5992.52,3612.94 Z " />
<path stroke="transparent" fill="#000000" transform="matrix(0.0833333 0 0 0.0833333 -202.208 -163)" d="M 6059.04,3640.49 L 6077.52,3648.14 L 5842.21,4216.25 L 5823.73,4208.6 L 6059.04,3640.49 Z " />
<path stroke="transparent" fill="#000000" transform="matrix(0.0833333 0 0 0.0833333 -202.208 -163)" d="M 3257.84,4969.17 L 3257.84,4849.17 L 3277.84,4851 L 3277.84,4967.33 L 3257.84,4969.17 Z " />
<path stroke="transparent" fill="#000000" transform="matrix(0.0833333 0 0 0.0833333 -202.208 -163)" d="M 3316.29,4963.81 L 3316.29,4854.52 L 3336.29,4856.35 L 3336.29,4961.98 L 3316.29,4963.81 Z " />
<path stroke="transparent" fill="#000000" transform="matrix(0.0833333 0 0 0.0833333 -202.208 -163)" d="M 3374.73,4958.46 L 3374.73,4859.87 L 3394.73,4861.7 L 3394.73,4956.63 L 3374.73,4958.46 Z " />
<path stroke="transparent" fill="#000000" transform="matrix(0.0833333 0 0 0.0833333 -202.208 -163)" d="M 3433.18,4953.11 L 3433.18,4865.22 L 3453.18,4867.05 L 3453.18,4951.28 L 3433.18,4953.11 Z " />
<path stroke="transparent" fill="#000000" transform="matrix(0.0833333 0 0 0.0833333 -202.208 -163)" d="M 3491.62,4947.76 L 3491.62,4870.57 L 3511.62,4872.41 L 3511.62,4945.93 L 3491.62,4947.76 Z " />
<path stroke="transparent" fill="#000000" transform="matrix(0.0833333 0 0 0.0833333 -202.208 -163)" d="M 3550.07,4942.41 L 3550.07,4875.93 L 3570.07,4877.76 L 3570.07,4940.57 L 3550.07,4942.41 Z " />
<path stroke="transparent" fill="#000000" transform="matrix(0.0833333 0 0 0.0833333 -202.208 -163)" d="M 3608.51,4937.05 L 3608.51,4881.28 L 3628.51,4883.11 L 3628.51,4935.22 L 3608.51,4937.05 Z " />
<path stroke="transparent" fill="#000000" transform="matrix(0.0833333 0 0 0.0833333 -202.208 -163)" d="M 3666.96,4931.7 L 3666.96,4886.63 L 3686.96,4888.46 L 3686.96,4929.87 L 3666.96,4931.7 Z " />
<path stroke="transparent" fill="#000000" transform="matrix(0.0833333 0 0 0.0833333 -202.208 -163)" d="M 3725.4,4926.35 L 3725.4,4891.98 L 3745.4,4893.81 L 3745.4,4924.52 L 3725.4,4926.35 Z " />
<path stroke="transparent" fill="#000000" transform="matrix(0.0833333 0 0 0.0833333 -202.208 -163)" d="M 3783.84,4921 L 3783.84,4897.33 L 3803.84,4899.17 L 3803.84,4919.17 L 3783.84,4921 Z " />
<path stroke="transparent" fill="#000000" transform="matrix(0.0833333 0 0 0.0833333 -202.208 -163)" d="M 6044.26,6183.89 L 6025.78,6191.54 L 5798.74,5643.39 L 5805.42,5633.39 L 5817.21,5635.74 L 6044.26,6183.89 Z " />
<path stroke="transparent" fill="#000000" transform="matrix(0.0833333 0 0 0.0833333 -202.208 -163)" d="M 7994.76,5510.06 L 7992.67,5529.95 L 7413.24,5469 L 7397.06,5457.24 L 7403.85,5447.9 L 7994.76,5510.06 Z " />
<path stroke="transparent" fill="#000000" transform="matrix(0.0833333 0 0 0.0833333 -202.208 -163)" d="M 7650.2,6001.32 L 7631.93,6009.46 L 7390.27,5466.58 L 7397.06,5457.24 L 7413.24,5469 L 7650.2,6001.32 Z " />
<path stroke="transparent" fill="#000000" transform="matrix(0.0833333 0 0 0.0833333 -202.208 -163)" d="M 5115.52,2730.25 L 5134,2722.6 L 5324.98,3183.69 L 5306.51,3191.35 L 5115.52,2730.25 Z " />
<path stroke="transparent" fill="#000000" transform="matrix(0.0833333 0 0 0.0833333 -202.208 -163)" d="M 5182.04,2702.7 L 5200.52,2695.04 L 5391.5,3156.14 L 5373.03,3163.79 L 5182.04,2702.7 Z " />
<path stroke="transparent" fill="#000000" transform="matrix(0.0833333 0 0 0.0833333 -202.208 -163)" d="M 5937.27,3222.95 L 5934.66,3242.78 L 5345.47,3165.21 L 5336.63,3143.87 L 5937.27,3222.95 Z " />
<path stroke="transparent" fill="#000000" transform="matrix(0.0833333 0 0 0.0833333 -202.208 -163)" d="M 5336.63,3143.87 L 5345.47,3165.21 L 5048.74,3551.92 L 5032.88,3539.75 L 5336.63,3143.87 Z " />
<path stroke="transparent" fill="#000000" transform="matrix(0.0833333 0 0 0.0833333 -202.208 -163)" d="M 4966.95,3765.94 L 5077.82,3720.02 L 5212.82,4174.87 L 5205.41,4184.87 L 5193.11,4183.04 L 4966.95,3765.94 Z " />
<path stroke="transparent" fill="#000000" transform="matrix(0.0833333 0 0 0.0833333 -202.208 -163)" d="M 3982.35,6452.14 L 3963.03,6446.96 L 4096.6,5948.41 L 4115.91,5953.59 L 3982.35,6452.14 Z " />
<path stroke="transparent" fill="#000000" transform="matrix(0.0833333 0 0 0.0833333 -202.208 -163)" d="M 3912.8,6433.5 L 3893.48,6428.33 L 4026.72,5931 L 4046.04,5936.18 L 3912.8,6433.5 Z " />
<path stroke="transparent" fill="#000000" transform="matrix(0.0833333 0 0 0.0833333 -202.208 -163)" d="M 3634.48,5545.77 L 3648.62,5531.63 L 4068.64,5951.71 L 4062.91,5974.27 L 3634.48,5545.77 Z " />
<path stroke="transparent" fill="#000000" transform="matrix(0.0833333 0 0 0.0833333 -202.208 -163)" d="M 4062.91,5974.27 L 4068.64,5951.71 L 4531.16,5814.71 L 4536.84,5833.89 L 4062.91,5974.27 Z " />
<path stroke="transparent" fill="#000000" transform="matrix(0.0833333 0 0 0.0833333 -202.208 -163)" d="M 4724.1,5703.66 L 4607.42,5675.65 L 4614.3,5656.73 L 4726.56,5683.69 L 4724.1,5703.66 Z " />
<path stroke="transparent" fill="#000000" transform="matrix(0.0833333 0 0 0.0833333 -202.208 -163)" d="M 4731.49,5643.71 L 4628.06,5618.88 L 4634.94,5599.96 L 4733.94,5623.73 L 4731.49,5643.71 Z " />
<path stroke="transparent" fill="#000000" transform="matrix(0.0833333 0 0 0.0833333 -202.208 -163)" d="M 4738.87,5583.76 L 4648.7,5562.11 L 4655.58,5543.2 L 4741.33,5563.78 L 4738.87,5583.76 Z " />
<path stroke="transparent" fill="#000000" transform="matrix(0.0833333 0 0 0.0833333 -202.208 -163)" d="M 4746.25,5523.81 L 4669.34,5505.35 L 4676.22,5486.43 L 4748.71,5503.83 L 4746.25,5523.81 Z " />
<path stroke="transparent" fill="#000000" transform="matrix(0.0833333 0 0 0.0833333 -202.208 -163)" d="M 4753.63,5463.86 L 4689.99,5448.58 L 4696.86,5429.66 L 4756.09,5443.88 L 4753.63,5463.86 Z " />
<path stroke="transparent" fill="#000000" transform="matrix(0.0833333 0 0 0.0833333 -202.208 -163)" d="M 4761.01,5403.91 L 4710.63,5391.81 L 4717.5,5372.89 L 4763.47,5383.93 L 4761.01,5403.91 Z " />
<path stroke="transparent" fill="#000000" transform="matrix(0.0833333 0 0 0.0833333 -202.208 -163)" d="M 4768.39,5343.95 L 4731.27,5335.04 L 4738.15,5316.12 L 4770.85,5323.98 L 4768.39,5343.95 Z " />
<path stroke="transparent" fill="#000000" transform="matrix(0.0833333 0 0 0.0833333 -202.208 -163)" d="M 4775.78,5284 L 4751.91,5278.27 L 4758.79,5259.36 L 4778.24,5264.03 L 4775.78,5284 Z " />
<path stroke="transparent" fill="#000000" transform="matrix(0.0833333 0 0 0.0833333 -202.208 -163)" d="M 4005.69,3987.47 L 4119.82,3950.39 L 4123.75,3970.14 L 4014.11,4005.76 L 4005.69,3987.47 Z " />
<path stroke="transparent" fill="#000000" transform="matrix(0.0833333 0 0 0.0833333 -202.208 -163)" d="M 4030,4040.27 L 4131.18,4007.4 L 4135.12,4027.15 L 4038.42,4058.57 L 4030,4040.27 Z " />
<path stroke="transparent" fill="#000000" transform="matrix(0.0833333 0 0 0.0833333 -202.208 -163)" d="M 4054.31,4093.08 L 4142.55,4064.42 L 4146.49,4084.17 L 4062.74,4111.38 L 4054.31,4093.08 Z " />
<path stroke="transparent" fill="#000000" transform="matrix(0.0833333 0 0 0.0833333 -202.208 -163)" d="M 4078.63,4145.89 L 4153.92,4121.43 L 4157.85,4141.18 L 4087.05,4164.19 L 4078.63,4145.89 Z " />
<path stroke="transparent" fill="#000000" transform="matrix(0.0833333 0 0 0.0833333 -202.208 -163)" d="M 4102.94,4198.7 L 4165.28,4178.45 L 4169.22,4198.2 L 4111.36,4217 L 4102.94,4198.7 Z " />
<path stroke="transparent" fill="#000000" transform="matrix(0.0833333 0 0 0.0833333 -202.208 -163)" d="M 4127.25,4251.51 L 4176.65,4235.46 L 4180.59,4255.21 L 4135.67,4269.8 L 4127.25,4251.51 Z " />
<path stroke="transparent" fill="#000000" transform="matrix(0.0833333 0 0 0.0833333 -202.208 -163)" d="M 4151.56,4304.32 L 4188.02,4292.48 L 4191.95,4312.23 L 4159.99,4322.61 L 4151.56,4304.32 Z " />
<path stroke="transparent" fill="#000000" transform="matrix(0.0833333 0 0 0.0833333 -202.208 -163)" d="M 4175.88,4357.13 L 4199.38,4349.49 L 4203.32,4369.24 L 4184.3,4375.42 L 4175.88,4357.13 Z " />
<path stroke="transparent" fill="#000000" transform="matrix(0.0833333 0 0 0.0833333 -202.208 -163)" d="M 6757.77,5883.46 L 6640.39,5858.52 L 6787.8,5401 L 6800.33,5394.55 L 6809.16,5405.53 L 6757.77,5883.46 Z " />
<path stroke="transparent" fill="#000000" transform="matrix(0.0833333 0 0 0.0833333 -202.208 -163)" d="M 4612.65,4164.48 L 4729.34,4136.46 L 4788.36,4587.79 L 4781.12,4609.17 L 4764.97,4593.4 L 4612.65,4164.48 Z " />
<path stroke="transparent" fill="#000000" transform="matrix(0.0833333 0 0 0.0833333 -202.208 -163)" d="M 7533.25,4620.35 L 7593.25,4724.27 L 7166.17,4914.19 L 7152.99,4909.17 L 7155.23,4895.24 L 7533.25,4620.35 Z " />
</svg>
