<?xml version="1.0" standalone="no" ?>
<!DOCTYPE svg PUBLIC "-//W3C//DTD SVG 1.1//EN" "http://www.w3.org/Graphics/SVG/1.1/DTD/svg11.dtd">
<svg width="348px" height="117px" viewBox="0 0 348 117" style="background-color: #ffffff00" xmlns="http://www.w3.org/2000/svg" xmlns:xlink="http://www.w3.org/1999/xlink" version="1.1" >
<text x="0" y="0" stroke="transparent" fill="#000000" transform="matrix(0.0666667 0 0 0.0666667 186.54 74.0719)" style="font:normal normal normal 200px 'Arial'" >
N</text>
<text x="0" y="0" stroke="transparent" fill="#000000" transform="matrix(0.0666667 0 0 0.0666667 186.54 85.1941)" style="font:normal normal normal 200px 'Arial'" >
H</text>
<text x="0" y="0" stroke="transparent" fill="#000000" transform="matrix(0.0666667 0 0 0.0666667 116.862 114.071)" style="font:normal normal normal 200px 'Arial'" >
OH</text>
<text x="0" y="0" stroke="transparent" fill="#000000" transform="matrix(0.0666667 0 0 0.0666667 151.503 14.0737)" style="font:normal normal normal 200px 'Arial'" >
O</text>
<text x="0" y="0" stroke="transparent" fill="#000000" transform="matrix(0.0666667 0 0 0.0666667 3.31349 54.0725)" style="font:normal normal normal 200px 'Arial'" >
HO</text>
<text x="0" y="0" stroke="transparent" fill="#000000" transform="matrix(0.0666667 0 0 0.0666667 290.064 14.0737)" style="font:normal normal normal 200px 'Arial'" >
O</text>
<text x="0" y="0" stroke="transparent" fill="#000000" transform="matrix(0.0666667 0 0 0.0666667 324.7 74.0719)" style="font:normal normal normal 200px 'Arial'" >
OH</text>
<path stroke="transparent" fill="#000000" transform="matrix(0.0666667 0 0 0.0666667 -174.859 -351)" d="M 6012.59,5986.54 L 6012.59,6009.63 L 5601.82,6246.78 L 5591.82,6229.46 L 6012.59,5986.54 Z " />
<path stroke="transparent" fill="#000000" transform="matrix(0.0666667 0 0 0.0666667 -174.859 -351)" d="M 5394.13,6229.46 L 5384.13,6246.78 L 4973.43,6009.63 L 4973.43,5986.54 L 5394.13,6229.46 Z " />
<path stroke="transparent" fill="#000000" transform="matrix(0.0666667 0 0 0.0666667 -174.859 -351)" d="M 4927.43,5517.94 L 4947.43,5517.94 L 4947.43,6018.87 L 4927.43,6018.87 L 4927.43,5517.94 Z " />
<path stroke="transparent" fill="#000000" transform="matrix(0.0666667 0 0 0.0666667 -174.859 -351)" d="M 4999.42,5517.94 L 5019.42,5517.94 L 5019.42,6018.87 L 4999.42,6018.87 L 4999.42,5517.94 Z " />
<path stroke="transparent" fill="#000000" transform="matrix(0.0666667 0 0 0.0666667 -174.859 -351)" d="M 4973.43,5986.54 L 4973.43,6009.63 L 4453.81,6309.63 L 4453.81,6286.53 L 4973.43,5986.54 Z " />
<path stroke="transparent" fill="#000000" transform="matrix(0.0666667 0 0 0.0666667 -174.859 -351)" d="M 4513.81,6792.89 L 4393.81,6792.89 L 4396.07,6772.89 L 4511.54,6772.89 L 4513.81,6792.89 Z " />
<path stroke="transparent" fill="#000000" transform="matrix(0.0666667 0 0 0.0666667 -174.859 -351)" d="M 4506.99,6732.79 L 4400.62,6732.79 L 4402.89,6712.79 L 4504.72,6712.79 L 4506.99,6732.79 Z " />
<path stroke="transparent" fill="#000000" transform="matrix(0.0666667 0 0 0.0666667 -174.859 -351)" d="M 4500.17,6672.69 L 4407.44,6672.69 L 4409.71,6652.69 L 4497.9,6652.69 L 4500.17,6672.69 Z " />
<path stroke="transparent" fill="#000000" transform="matrix(0.0666667 0 0 0.0666667 -174.859 -351)" d="M 4493.35,6612.58 L 4414.26,6612.58 L 4416.53,6592.58 L 4491.08,6592.58 L 4493.35,6612.58 Z " />
<path stroke="transparent" fill="#000000" transform="matrix(0.0666667 0 0 0.0666667 -174.859 -351)" d="M 4486.53,6552.48 L 4421.08,6552.48 L 4423.35,6532.48 L 4484.26,6532.48 L 4486.53,6552.48 Z " />
<path stroke="transparent" fill="#000000" transform="matrix(0.0666667 0 0 0.0666667 -174.859 -351)" d="M 4479.71,6492.38 L 4427.9,6492.38 L 4430.17,6472.38 L 4477.44,6472.38 L 4479.71,6492.38 Z " />
<path stroke="transparent" fill="#000000" transform="matrix(0.0666667 0 0 0.0666667 -174.859 -351)" d="M 4472.89,6432.27 L 4434.72,6432.27 L 4436.99,6412.27 L 4470.62,6412.27 L 4472.89,6432.27 Z " />
<path stroke="transparent" fill="#000000" transform="matrix(0.0666667 0 0 0.0666667 -174.859 -351)" d="M 4466.07,6372.17 L 4441.54,6372.17 L 4443.81,6352.17 L 4463.81,6352.17 L 4466.07,6372.17 Z " />
<path stroke="transparent" fill="#000000" transform="matrix(0.0666667 0 0 0.0666667 -174.859 -351)" d="M 2990.05,6064.5 L 3000.04,6047.18 L 3414.64,6286.53 L 3414.64,6309.63 L 2990.05,6064.5 Z " />
<path stroke="transparent" fill="#000000" transform="matrix(0.0666667 0 0 0.0666667 -174.859 -351)" d="M 3934.18,6009.63 L 3934.18,5998.09 L 3947.84,5994.43 L 4453.81,6286.53 L 4453.81,6309.63 L 3934.18,6009.63 Z " />
<path stroke="transparent" fill="#000000" transform="matrix(0.0666667 0 0 0.0666667 -174.859 -351)" d="M 3414.64,6309.63 L 3414.64,6286.53 L 3920.52,5994.43 L 3934.18,5998.09 L 3934.18,6009.63 L 3414.64,6309.63 Z " />
<path stroke="transparent" fill="#000000" transform="matrix(0.0666667 0 0 0.0666667 -174.859 -351)" d="M 3625.53,5483.47 L 3642.85,5473.47 L 3934.18,5978.09 L 3934.18,5998.09 L 3920.52,5994.43 L 3625.53,5483.47 Z " />
<path stroke="transparent" fill="#000000" transform="matrix(0.0666667 0 0 0.0666667 -174.859 -351)" d="M 4225.51,5473.47 L 4242.84,5483.47 L 3947.84,5994.43 L 3934.18,5998.09 L 3934.18,5978.09 L 4225.51,5473.47 Z " />
<path stroke="transparent" fill="#000000" transform="matrix(0.0666667 0 0 0.0666667 -174.859 -351)" d="M 6532.22,6286.53 L 6532.22,6309.63 L 6012.59,6009.63 L 6012.59,5986.54 L 6532.22,6286.53 Z " />
<path stroke="transparent" fill="#000000" transform="matrix(0.0666667 0 0 0.0666667 -174.859 -351)" d="M 7051.84,5986.54 L 7051.84,6009.63 L 6532.22,6309.63 L 6532.22,6286.53 L 7051.84,5986.54 Z " />
<path stroke="transparent" fill="#000000" transform="matrix(0.0666667 0 0 0.0666667 -174.859 -351)" d="M 7005.84,5517.94 L 7025.84,5517.94 L 7025.84,6018.87 L 7005.84,6018.87 L 7005.84,5517.94 Z " />
<path stroke="transparent" fill="#000000" transform="matrix(0.0666667 0 0 0.0666667 -174.859 -351)" d="M 7077.83,5517.94 L 7097.83,5517.94 L 7097.83,6018.87 L 7077.83,6018.87 L 7077.83,5517.94 Z " />
<path stroke="transparent" fill="#000000" transform="matrix(0.0666667 0 0 0.0666667 -174.859 -351)" d="M 7483.77,6235.94 L 7473.77,6253.26 L 7051.84,6009.63 L 7051.84,5986.54 L 7483.77,6235.94 Z " />
</svg>
