<?xml version="1.0" standalone="no" ?>
<!DOCTYPE svg PUBLIC "-//W3C//DTD SVG 1.1//EN" "http://www.w3.org/Graphics/SVG/1.1/DTD/svg11.dtd">
<svg width="451px" height="378px" viewBox="0 0 451 378" style="background-color: #ffffff00" xmlns="http://www.w3.org/2000/svg" xmlns:xlink="http://www.w3.org/1999/xlink" version="1.1" >
<text x="0" y="0" stroke="transparent" fill="#000000" transform="matrix(0.0666667 0 0 0.0666667 220.311 174.236)" style="font:normal normal normal 200px 'Arial'" >
O</text>
<text x="0" y="0" stroke="transparent" fill="#000000" transform="matrix(0.0666667 0 0 0.0666667 428.164 54.2338)" style="font:normal normal normal 200px 'Arial'" >
OH</text>
<text x="0" y="0" stroke="transparent" fill="#000000" transform="matrix(0.0666667 0 0 0.0666667 358.878 14.237)" style="font:normal normal normal 200px 'Arial'" >
OH</text>
<text x="0" y="0" stroke="transparent" fill="#000000" transform="matrix(0.0666667 0 0 0.0666667 185.671 114.235)" style="font:normal normal normal 200px 'Arial'" >
O</text>
<text x="0" y="0" stroke="transparent" fill="#000000" transform="matrix(0.0666667 0 0 0.0666667 116.389 74.2343)" style="font:normal normal normal 200px 'Arial'" >
OH</text>
<text x="0" y="0" stroke="transparent" fill="#000000" transform="matrix(0.0666667 0 0 0.0666667 81.7483 214.233)" style="font:normal normal normal 200px 'Arial'" >
OH</text>
<text x="0" y="0" stroke="transparent" fill="#000000" transform="matrix(0.0666667 0 0 0.0666667 47.1075 234.234)" style="font:normal normal normal 200px 'Arial'" >
O</text>
<text x="0" y="0" stroke="transparent" fill="#000000" transform="matrix(0.0666667 0 0 0.0666667 2.8339 174.232)" style="font:normal normal normal 200px 'Arial'" >
HO</text>
<text x="0" y="0" stroke="transparent" fill="#000000" transform="matrix(0.0666667 0 0 0.0666667 185.671 194.237)" style="font:normal normal normal 200px 'Arial'" >
O</text>
<text x="0" y="0" stroke="transparent" fill="#000000" transform="matrix(0.0666667 0 0 0.0666667 151.03 254.238)" style="font:normal normal normal 200px 'Arial'" >
O</text>
<text x="0" y="0" stroke="transparent" fill="#000000" transform="matrix(0.0666667 0 0 0.0666667 358.878 374.241)" style="font:normal normal normal 200px 'Arial'" >
OH</text>
<text x="0" y="0" stroke="transparent" fill="#000000" transform="matrix(0.0666667 0 0 0.0666667 358.878 294.239)" style="font:normal normal normal 200px 'Arial'" >
OH</text>
<path stroke="transparent" fill="#000000" transform="matrix(0.0666667 0 0 0.0666667 -123.287 -91.3333)" d="M 5185.97,3284.75 L 5205.97,3284.75 L 5205.97,3800.38 L 5185.97,3800.38 L 5185.97,3284.75 Z " />
<path stroke="transparent" fill="#000000" transform="matrix(0.0666667 0 0 0.0666667 -123.287 -91.3333)" d="M 5257.97,3284.75 L 5277.97,3284.75 L 5277.97,3800.38 L 5257.97,3800.38 L 5257.97,3284.75 Z " />
<path stroke="transparent" fill="#000000" transform="matrix(0.0666667 0 0 0.0666667 -123.287 -91.3333)" d="M 5751.58,2993.98 L 5751.58,3017.07 L 5231.97,3317.08 L 5231.97,3293.99 L 5751.58,2993.98 Z " />
<path stroke="transparent" fill="#000000" transform="matrix(0.0666667 0 0 0.0666667 -123.287 -91.3333)" d="M 6271.25,3293.99 L 6271.25,3317.08 L 5751.58,3017.07 L 5751.58,2993.98 L 6271.25,3293.99 Z " />
<path stroke="transparent" fill="#000000" transform="matrix(0.0666667 0 0 0.0666667 -123.287 -91.3333)" d="M 6276.25,3213.73 L 6266.25,3231.05 L 5782.58,2951.83 L 5792.58,2934.51 L 6276.25,3213.73 Z " />
<path stroke="transparent" fill="#000000" transform="matrix(0.0666667 0 0 0.0666667 -123.287 -91.3333)" d="M 6780.86,2999.75 L 6790.86,3005.53 L 6790.86,3017.07 L 6271.25,3317.08 L 6271.25,3293.99 L 6780.86,2999.75 Z " />
<path stroke="transparent" fill="#000000" transform="matrix(0.0666667 0 0 0.0666667 -123.287 -91.3333)" d="M 7310.48,3293.93 L 7310.48,3317.02 L 6790.86,3017.07 L 6790.86,3005.53 L 6800.86,2999.75 L 7310.48,3293.93 Z " />
<path stroke="transparent" fill="#000000" transform="matrix(0.0666667 0 0 0.0666667 -123.287 -91.3333)" d="M 7315.47,3213.68 L 7305.48,3231 L 6857.86,2972.62 L 6867.86,2955.3 L 7315.47,3213.68 Z " />
<path stroke="transparent" fill="#000000" transform="matrix(0.0666667 0 0 0.0666667 -123.287 -91.3333)" d="M 7820.09,2999.75 L 7840.09,3011.3 L 7310.48,3317.02 L 7310.48,3293.93 L 7820.09,2999.75 Z " />
<path stroke="transparent" fill="#000000" transform="matrix(0.0666667 0 0 0.0666667 -123.287 -91.3333)" d="M 7820.09,2411.29 L 7830.09,2405.51 L 7840.09,2411.29 L 7840.09,3011.3 L 7820.09,2999.75 L 7820.09,2411.29 Z " />
<path stroke="transparent" fill="#000000" transform="matrix(0.0666667 0 0 0.0666667 -123.287 -91.3333)" d="M 7748.08,2447.09 L 7768.08,2447.09 L 7768.08,2963.95 L 7748.08,2963.95 L 7748.08,2447.09 Z " />
<path stroke="transparent" fill="#000000" transform="matrix(0.0666667 0 0 0.0666667 -123.287 -91.3333)" d="M 8245.15,2154.35 L 8255.15,2171.67 L 7840.09,2411.29 L 7830.09,2405.51 L 7830.09,2393.97 L 8245.15,2154.35 Z " />
<path stroke="transparent" fill="#000000" transform="matrix(0.0666667 0 0 0.0666667 -123.287 -91.3333)" d="M 7310.48,2117.11 L 7310.48,2105.57 L 7320.48,2099.79 L 7830.09,2393.97 L 7830.09,2405.51 L 7820.09,2411.29 L 7310.48,2117.11 Z " />
<path stroke="transparent" fill="#000000" transform="matrix(0.0666667 0 0 0.0666667 -123.287 -91.3333)" d="M 7300.48,1625.39 L 7320.48,1625.39 L 7320.48,2099.79 L 7310.48,2105.57 L 7300.48,2099.79 L 7300.48,1625.39 Z " />
<path stroke="transparent" fill="#000000" transform="matrix(0.0666667 0 0 0.0666667 -123.287 -91.3333)" d="M 6800.86,2411.35 L 6780.86,2399.8 L 7300.48,2099.79 L 7310.48,2105.57 L 7310.48,2117.11 L 6800.86,2411.35 Z " />
<path stroke="transparent" fill="#000000" transform="matrix(0.0666667 0 0 0.0666667 -123.287 -91.3333)" d="M 6867.86,2455.8 L 6857.86,2438.48 L 7305.48,2180.04 L 7315.48,2197.36 L 6867.86,2455.8 Z " />
<path stroke="transparent" fill="#000000" transform="matrix(0.0666667 0 0 0.0666667 -123.287 -91.3333)" d="M 6780.86,2399.8 L 6800.86,2411.35 L 6800.86,2999.75 L 6790.86,3005.53 L 6780.86,2999.75 L 6780.86,2399.8 Z " />
<path stroke="transparent" fill="#000000" transform="matrix(0.0666667 0 0 0.0666667 -123.287 -91.3333)" d="M 4807.39,3071.94 L 4817.39,3054.62 L 5231.97,3293.99 L 5231.97,3317.08 L 4807.39,3071.94 Z " />
<path stroke="transparent" fill="#000000" transform="matrix(0.0666667 0 0 0.0666667 -123.287 -91.3333)" d="M 4582.75,3011.07 L 4642.76,3115 L 4624.28,3122.99 L 4566.59,3023.08 L 4582.75,3011.07 Z " />
<path stroke="transparent" fill="#000000" transform="matrix(0.0666667 0 0 0.0666667 -123.287 -91.3333)" d="M 4535.33,3046.32 L 4588.52,3138.45 L 4570.04,3146.44 L 4519.17,3058.33 L 4535.33,3046.32 Z " />
<path stroke="transparent" fill="#000000" transform="matrix(0.0666667 0 0 0.0666667 -123.287 -91.3333)" d="M 4487.9,3081.57 L 4534.28,3161.9 L 4515.8,3169.89 L 4471.74,3093.58 L 4487.9,3081.57 Z " />
<path stroke="transparent" fill="#000000" transform="matrix(0.0666667 0 0 0.0666667 -123.287 -91.3333)" d="M 4440.47,3116.82 L 4480.04,3185.35 L 4461.56,3193.34 L 4424.31,3128.83 L 4440.47,3116.82 Z " />
<path stroke="transparent" fill="#000000" transform="matrix(0.0666667 0 0 0.0666667 -123.287 -91.3333)" d="M 4393.05,3152.06 L 4425.8,3208.8 L 4407.32,3216.79 L 4376.89,3164.07 L 4393.05,3152.06 Z " />
<path stroke="transparent" fill="#000000" transform="matrix(0.0666667 0 0 0.0666667 -123.287 -91.3333)" d="M 4345.62,3187.31 L 4371.57,3232.25 L 4353.08,3240.24 L 4329.46,3199.32 L 4345.62,3187.31 Z " />
<path stroke="transparent" fill="#000000" transform="matrix(0.0666667 0 0 0.0666667 -123.287 -91.3333)" d="M 4298.19,3222.56 L 4317.33,3255.7 L 4298.85,3263.69 L 4282.03,3234.57 L 4298.19,3222.56 Z " />
<path stroke="transparent" fill="#000000" transform="matrix(0.0666667 0 0 0.0666667 -123.287 -91.3333)" d="M 4250.77,3257.81 L 4263.09,3279.15 L 4244.61,3287.14 L 4234.61,3269.82 L 4250.77,3257.81 Z " />
<path stroke="transparent" fill="#000000" transform="matrix(0.0666667 0 0 0.0666667 -123.287 -91.3333)" d="M 4202.75,3299.76 L 4182.75,3311.31 L 3673.14,3017.07 L 3673.14,3005.53 L 3683.7,3000.08 L 4202.75,3299.76 Z " />
<path stroke="transparent" fill="#000000" transform="matrix(0.0666667 0 0 0.0666667 -123.287 -91.3333)" d="M 3613.14,2525.35 L 3733.14,2525.35 L 3683.7,3000.08 L 3673.14,3005.53 L 3662.57,3000.08 L 3613.14,2525.35 Z " />
<path stroke="transparent" fill="#000000" transform="matrix(0.0666667 0 0 0.0666667 -123.287 -91.3333)" d="M 3163.52,3311.25 L 3143.52,3299.7 L 3662.57,3000.08 L 3673.14,3005.53 L 3673.14,3017.07 L 3163.52,3311.25 Z " />
<path stroke="transparent" fill="#000000" transform="matrix(0.0666667 0 0 0.0666667 -123.287 -91.3333)" d="M 3143.52,3299.7 L 3163.52,3311.25 L 3163.52,3899.71 L 3153.52,3905.49 L 3143.52,3899.71 L 3143.52,3299.7 Z " />
<path stroke="transparent" fill="#000000" transform="matrix(0.0666667 0 0 0.0666667 -123.287 -91.3333)" d="M 3213.52,4400.33 L 3093.52,4400.33 L 3095.79,4380.33 L 3211.26,4380.33 L 3213.52,4400.33 Z " />
<path stroke="transparent" fill="#000000" transform="matrix(0.0666667 0 0 0.0666667 -123.287 -91.3333)" d="M 3206.71,4340.23 L 3100.34,4340.23 L 3102.61,4320.23 L 3204.44,4320.23 L 3206.71,4340.23 Z " />
<path stroke="transparent" fill="#000000" transform="matrix(0.0666667 0 0 0.0666667 -123.287 -91.3333)" d="M 3199.89,4280.12 L 3107.16,4280.12 L 3109.43,4260.12 L 3197.62,4260.12 L 3199.89,4280.12 Z " />
<path stroke="transparent" fill="#000000" transform="matrix(0.0666667 0 0 0.0666667 -123.287 -91.3333)" d="M 3193.07,4220.01 L 3113.98,4220.01 L 3116.25,4200.01 L 3190.8,4200.01 L 3193.07,4220.01 Z " />
<path stroke="transparent" fill="#000000" transform="matrix(0.0666667 0 0 0.0666667 -123.287 -91.3333)" d="M 3186.25,4159.9 L 3120.8,4159.9 L 3123.07,4139.9 L 3183.98,4139.9 L 3186.25,4159.9 Z " />
<path stroke="transparent" fill="#000000" transform="matrix(0.0666667 0 0 0.0666667 -123.287 -91.3333)" d="M 3179.43,4099.79 L 3127.62,4099.79 L 3129.89,4079.79 L 3177.16,4079.79 L 3179.43,4099.79 Z " />
<path stroke="transparent" fill="#000000" transform="matrix(0.0666667 0 0 0.0666667 -123.287 -91.3333)" d="M 3172.61,4039.69 L 3134.44,4039.69 L 3136.71,4019.69 L 3170.34,4019.69 L 3172.61,4039.69 Z " />
<path stroke="transparent" fill="#000000" transform="matrix(0.0666667 0 0 0.0666667 -123.287 -91.3333)" d="M 3165.79,3979.58 L 3141.26,3979.58 L 3143.52,3959.58 L 3163.52,3959.58 L 3165.79,3979.58 Z " />
<path stroke="transparent" fill="#000000" transform="matrix(0.0666667 0 0 0.0666667 -123.287 -91.3333)" d="M 2633.91,4217.04 L 2633.91,4193.95 L 3143.52,3899.71 L 3153.52,3905.49 L 3153.52,3917.03 L 2633.91,4217.04 Z " />
<path stroke="transparent" fill="#000000" transform="matrix(0.0666667 0 0 0.0666667 -123.287 -91.3333)" d="M 2679.91,4700.34 L 2659.91,4700.34 L 2659.91,4184.71 L 2679.91,4184.71 L 2679.91,4700.34 Z " />
<path stroke="transparent" fill="#000000" transform="matrix(0.0666667 0 0 0.0666667 -123.287 -91.3333)" d="M 2607.91,4700.34 L 2587.91,4700.34 L 2587.91,4184.71 L 2607.91,4184.71 L 2607.91,4700.34 Z " />
<path stroke="transparent" fill="#000000" transform="matrix(0.0666667 0 0 0.0666667 -123.287 -91.3333)" d="M 2209.27,3971.89 L 2219.27,3954.57 L 2633.91,4193.95 L 2633.91,4217.04 L 2209.27,3971.89 Z " />
<path stroke="transparent" fill="#000000" transform="matrix(0.0666667 0 0 0.0666667 -123.287 -91.3333)" d="M 3673.14,4193.95 L 3673.14,4217.04 L 3153.52,3917.03 L 3153.52,3905.49 L 3163.52,3899.71 L 3673.14,4193.95 Z " />
<path stroke="transparent" fill="#000000" transform="matrix(0.0666667 0 0 0.0666667 -123.287 -91.3333)" d="M 3673.14,4217.04 L 3673.14,4193.95 L 4182.75,3899.71 L 4202.75,3911.26 L 3673.14,4217.04 Z " />
<path stroke="transparent" fill="#000000" transform="matrix(0.0666667 0 0 0.0666667 -123.287 -91.3333)" d="M 4202.75,3911.26 L 4182.75,3899.71 L 4182.75,3311.31 L 4202.75,3299.76 L 4202.75,3911.26 Z " />
<path stroke="transparent" fill="#000000" transform="matrix(0.0666667 0 0 0.0666667 -123.287 -91.3333)" d="M 4649.75,4100.11 L 4589.74,4204.03 L 4573.56,4192.06 L 4631.29,4092.08 L 4649.75,4100.11 Z " />
<path stroke="transparent" fill="#000000" transform="matrix(0.0666667 0 0 0.0666667 -123.287 -91.3333)" d="M 4594.5,4076.08 L 4541.31,4168.19 L 4525.12,4156.21 L 4576.04,4068.05 L 4594.5,4076.08 Z " />
<path stroke="transparent" fill="#000000" transform="matrix(0.0666667 0 0 0.0666667 -123.287 -91.3333)" d="M 4539.24,4052.04 L 4492.87,4132.34 L 4476.69,4120.37 L 4520.79,4044.01 L 4539.24,4052.04 Z " />
<path stroke="transparent" fill="#000000" transform="matrix(0.0666667 0 0 0.0666667 -123.287 -91.3333)" d="M 4483.99,4028.01 L 4444.44,4096.5 L 4428.26,4084.53 L 4465.53,4019.98 L 4483.99,4028.01 Z " />
<path stroke="transparent" fill="#000000" transform="matrix(0.0666667 0 0 0.0666667 -123.287 -91.3333)" d="M 4428.74,4003.97 L 4396,4060.66 L 4379.82,4048.68 L 4410.28,3995.94 L 4428.74,4003.97 Z " />
<path stroke="transparent" fill="#000000" transform="matrix(0.0666667 0 0 0.0666667 -123.287 -91.3333)" d="M 4373.48,3979.94 L 4347.57,4024.82 L 4331.39,4012.84 L 4355.03,3971.91 L 4373.48,3979.94 Z " />
<path stroke="transparent" fill="#000000" transform="matrix(0.0666667 0 0 0.0666667 -123.287 -91.3333)" d="M 4318.23,3955.9 L 4299.13,3988.97 L 4282.95,3977 L 4299.77,3947.87 L 4318.23,3955.9 Z " />
<path stroke="transparent" fill="#000000" transform="matrix(0.0666667 0 0 0.0666667 -123.287 -91.3333)" d="M 4262.98,3931.87 L 4250.7,3953.13 L 4234.52,3941.16 L 4244.52,3923.84 L 4262.98,3931.87 Z " />
<path stroke="transparent" fill="#000000" transform="matrix(0.0666667 0 0 0.0666667 -123.287 -91.3333)" d="M 4722.36,4799.79 L 4702.36,4811.34 L 4702.36,4325.39 L 4722.36,4325.39 L 4722.36,4799.79 Z " />
<path stroke="transparent" fill="#000000" transform="matrix(0.0666667 0 0 0.0666667 -123.287 -91.3333)" d="M 4308.37,5091.93 L 4298.37,5074.61 L 4743.36,4817.69 L 4753.36,4835.01 L 4308.37,5091.93 Z " />
<path stroke="transparent" fill="#000000" transform="matrix(0.0666667 0 0 0.0666667 -123.287 -91.3333)" d="M 4272.37,5029.58 L 4262.36,5012.26 L 4707.36,4755.34 L 4717.36,4772.66 L 4272.37,5029.58 Z " />
<path stroke="transparent" fill="#000000" transform="matrix(0.0666667 0 0 0.0666667 -123.287 -91.3333)" d="M 5241.97,5099.8 L 5221.97,5111.35 L 4702.36,4811.34 L 4722.36,4799.79 L 5241.97,5099.8 Z " />
<path stroke="transparent" fill="#000000" transform="matrix(0.0666667 0 0 0.0666667 -123.287 -91.3333)" d="M 5241.97,5699.81 L 5221.97,5711.36 L 5221.97,5111.35 L 5241.97,5099.8 L 5241.97,5699.81 Z " />
<path stroke="transparent" fill="#000000" transform="matrix(0.0666667 0 0 0.0666667 -123.287 -91.3333)" d="M 5313.97,5664.02 L 5293.97,5664.02 L 5293.97,5105.57 L 5313.97,5105.57 L 5313.97,5664.02 Z " />
<path stroke="transparent" fill="#000000" transform="matrix(0.0666667 0 0 0.0666667 -123.287 -91.3333)" d="M 5751.58,5994.05 L 5751.58,6005.59 L 5741.58,6011.37 L 5221.97,5711.36 L 5241.97,5699.81 L 5751.58,5994.05 Z " />
<path stroke="transparent" fill="#000000" transform="matrix(0.0666667 0 0 0.0666667 -123.287 -91.3333)" d="M 5761.58,6599.83 L 5741.58,6611.38 L 5741.58,6011.37 L 5751.58,6005.59 L 5761.58,6011.37 L 5761.58,6599.83 Z " />
<path stroke="transparent" fill="#000000" transform="matrix(0.0666667 0 0 0.0666667 -123.287 -91.3333)" d="M 5833.58,6564.03 L 5813.58,6564.03 L 5813.58,6047.16 L 5833.58,6047.16 L 5833.58,6564.03 Z " />
<path stroke="transparent" fill="#000000" transform="matrix(0.0666667 0 0 0.0666667 -123.287 -91.3333)" d="M 6271.25,6894.07 L 6271.25,6917.16 L 5741.58,6611.38 L 5761.58,6599.83 L 6271.25,6894.07 Z " />
<path stroke="transparent" fill="#000000" transform="matrix(0.0666667 0 0 0.0666667 -123.287 -91.3333)" d="M 6780.86,6599.83 L 6790.86,6605.61 L 6790.86,6617.15 L 6271.25,6917.16 L 6271.25,6894.07 L 6780.86,6599.83 Z " />
<path stroke="transparent" fill="#000000" transform="matrix(0.0666667 0 0 0.0666667 -123.287 -91.3333)" d="M 6713.86,6555.38 L 6723.86,6572.7 L 6276.25,6831.13 L 6266.25,6813.81 L 6713.86,6555.38 Z " />
<path stroke="transparent" fill="#000000" transform="matrix(0.0666667 0 0 0.0666667 -123.287 -91.3333)" d="M 7222.86,6843.48 L 7212.86,6860.8 L 6790.86,6617.15 L 6790.86,6605.61 L 6800.86,6599.83 L 7222.86,6843.48 Z " />
<path stroke="transparent" fill="#000000" transform="matrix(0.0666667 0 0 0.0666667 -123.287 -91.3333)" d="M 6780.86,6011.37 L 6790.86,6005.59 L 6800.86,6011.37 L 6800.86,6599.83 L 6790.86,6605.61 L 6780.86,6599.83 L 6780.86,6011.37 Z " />
<path stroke="transparent" fill="#000000" transform="matrix(0.0666667 0 0 0.0666667 -123.287 -91.3333)" d="M 7205.87,5754.43 L 7215.87,5771.75 L 6800.86,6011.37 L 6790.86,6005.59 L 6790.86,5994.05 L 7205.87,5754.43 Z " />
<path stroke="transparent" fill="#000000" transform="matrix(0.0666667 0 0 0.0666667 -123.287 -91.3333)" d="M 6271.25,5717.13 L 6271.25,5694.04 L 6790.86,5994.05 L 6790.86,6005.59 L 6780.86,6011.37 L 6271.25,5717.13 Z " />
<path stroke="transparent" fill="#000000" transform="matrix(0.0666667 0 0 0.0666667 -123.287 -91.3333)" d="M 6266.25,5797.38 L 6276.25,5780.06 L 6723.86,6038.5 L 6713.86,6055.82 L 6266.25,5797.38 Z " />
<path stroke="transparent" fill="#000000" transform="matrix(0.0666667 0 0 0.0666667 -123.287 -91.3333)" d="M 6271.25,5694.04 L 6271.25,5717.13 L 5761.58,6011.37 L 5751.58,6005.59 L 5751.58,5994.05 L 6271.25,5694.04 Z " />
</svg>
