<?xml version="1.0" standalone="no" ?>
<!DOCTYPE svg PUBLIC "-//W3C//DTD SVG 1.1//EN" "http://www.w3.org/Graphics/SVG/1.1/DTD/svg11.dtd">
<svg width="1127px" height="477px" viewBox="0 0 1127 477" style="background-color: #ffffff00" xmlns="http://www.w3.org/2000/svg" xmlns:xlink="http://www.w3.org/1999/xlink" version="1.1" >
<text x="0" y="0" stroke="transparent" fill="#000000" transform="matrix(0.0833333 0 0 0.0833333 968.112 135.667)" style="font:normal normal normal 200px 'Arial'" >
O</text>
<text x="0" y="0" stroke="transparent" fill="#000000" transform="matrix(0.0833333 0 0 0.0833333 1011.41 210.667)" style="font:normal normal normal 200px 'Arial'" >
O</text>
<text x="0" y="0" stroke="transparent" fill="#000000" transform="matrix(0.0833333 0 0 0.0833333 924.811 310.667)" style="font:normal normal normal 200px 'Arial'" >
O</text>
<text x="0" y="0" stroke="transparent" fill="#000000" transform="matrix(0.0833333 0 0 0.0833333 924.811 160.667)" style="font:normal normal normal 200px 'Arial'" >
OH</text>
<text x="0" y="0" stroke="transparent" fill="#000000" transform="matrix(0.0833333 0 0 0.0833333 826.172 210.667)" style="font:normal normal normal 200px 'Arial'" >
HO</text>
<text x="0" y="0" stroke="transparent" fill="#000000" transform="matrix(0.0833333 0 0 0.0833333 838.208 310.667)" style="font:normal normal normal 200px 'Arial'" >
O</text>
<text x="0" y="0" stroke="transparent" fill="#000000" transform="matrix(0.0833333 0 0 0.0833333 708.304 285.667)" style="font:normal normal normal 200px 'Arial'" >
O</text>
<text x="0" y="0" stroke="transparent" fill="#000000" transform="matrix(0.0833333 0 0 0.0833333 621.702 285.667)" style="font:normal normal normal 200px 'Arial'" >
O</text>
<text x="0" y="0" stroke="transparent" fill="#000000" transform="matrix(0.0833333 0 0 0.0833333 578.401 360.667)" style="font:normal normal normal 200px 'Arial'" >
O</text>
<text x="0" y="0" stroke="transparent" fill="#000000" transform="matrix(0.0833333 0 0 0.0833333 188.689 435.667)" style="font:normal normal normal 200px 'Arial'" >
O</text>
<text x="0" y="0" stroke="transparent" fill="#000000" transform="matrix(0.0833333 0 0 0.0833333 102.087 435.667)" style="font:normal normal normal 200px 'Arial'" >
O</text>
<text x="0" y="0" stroke="transparent" fill="#000000" transform="matrix(0.0833333 0 0 0.0833333 3.44799 335.667)" style="font:normal normal normal 200px 'Arial'" >
HO</text>
<text x="0" y="0" stroke="transparent" fill="#000000" transform="matrix(0.0833333 0 0 0.0833333 102.087 285.667)" style="font:normal normal normal 200px 'Arial'" >
OH</text>
<text x="0" y="0" stroke="transparent" fill="#000000" transform="matrix(0.0833333 0 0 0.0833333 188.689 335.667)" style="font:normal normal normal 200px 'Arial'" >
O</text>
<text x="0" y="0" stroke="transparent" fill="#000000" transform="matrix(0.0833333 0 0 0.0833333 145.388 260.667)" style="font:normal normal normal 200px 'Arial'" >
O</text>
<text x="0" y="0" stroke="transparent" fill="#000000" transform="matrix(0.0833333 0 0 0.0833333 188.689 135.667)" style="font:normal normal normal 200px 'Arial'" >
OH</text>
<text x="0" y="0" stroke="transparent" fill="#000000" transform="matrix(0.0833333 0 0 0.0833333 275.292 185.667)" style="font:normal normal normal 200px 'Arial'" >
OH</text>
<text x="0" y="0" stroke="transparent" fill="#000000" transform="matrix(0.0833333 0 0 0.0833333 275.292 285.667)" style="font:normal normal normal 200px 'Arial'" >
OH</text>
<text x="0" y="0" stroke="transparent" fill="#000000" transform="matrix(0.0833333 0 0 0.0833333 609.666 385.667)" style="font:normal normal normal 200px 'Arial'" >
HO</text>
<text x="0" y="0" stroke="transparent" fill="#000000" transform="matrix(0.0833333 0 0 0.0833333 708.304 435.667)" style="font:normal normal normal 200px 'Arial'" >
OH</text>
<text x="0" y="0" stroke="transparent" fill="#000000" transform="matrix(0.0833333 0 0 0.0833333 794.907 385.667)" style="font:normal normal normal 200px 'Arial'" >
OH</text>
<text x="0" y="0" stroke="transparent" fill="#000000" transform="matrix(0.0833333 0 0 0.0833333 1054.71 285.667)" style="font:normal normal normal 200px 'Arial'" >
OH</text>
<text x="0" y="0" stroke="transparent" fill="#000000" transform="matrix(0.0833333 0 0 0.0833333 1098.02 160.667)" style="font:normal normal normal 200px 'Arial'" >
OH</text>
<text x="0" y="0" stroke="transparent" fill="#000000" transform="matrix(0.0833333 0 0 0.0833333 1098.02 60.6667)" style="font:normal normal normal 200px 'Arial'" >
OH</text>
<path stroke="transparent" fill="#000000" transform="matrix(0.0833333 0 0 0.0833333 -7.41667 -63.1667)" d="M 11784.8,1696.19 L 11784.3,1708 L 11774.3,1714.3 L 11234.7,1459.96 L 11294.7,1356.04 L 11784.8,1696.19 Z " />
<path stroke="transparent" fill="#000000" transform="matrix(0.0833333 0 0 0.0833333 -7.41667 -63.1667)" d="M 12304,1396.45 L 12304,1419.55 L 11794.3,1713.77 L 11784.3,1708 L 11784.8,1696.19 L 12304,1396.45 Z " />
<path stroke="transparent" fill="#000000" transform="matrix(0.0833333 0 0 0.0833333 -7.41667 -63.1667)" d="M 12823,1696.13 L 12823.6,1708 L 12813.6,1713.77 L 12304,1419.55 L 12304,1396.45 L 12823,1696.13 Z " />
<path stroke="transparent" fill="#000000" transform="matrix(0.0833333 0 0 0.0833333 -7.41667 -63.1667)" d="M 12833.6,2301.59 L 12823.6,2308 L 12813.6,2302.23 L 12813.6,1713.77 L 12823.6,1708 L 12833.6,1714.42 L 12833.6,2301.59 Z " />
<path stroke="transparent" fill="#000000" transform="matrix(0.0833333 0 0 0.0833333 -7.41667 -63.1667)" d="M 12304,2619.55 L 12304,2596.45 L 12813.6,2302.23 L 12823.6,2308 L 12823,2319.87 L 12304,2619.55 Z " />
<path stroke="transparent" fill="#000000" transform="matrix(0.0833333 0 0 0.0833333 -7.41667 -63.1667)" d="M 11879.4,2374.42 L 11889.4,2357.1 L 12304,2596.45 L 12304,2619.55 L 11879.4,2374.42 Z " />
<path stroke="transparent" fill="#000000" transform="matrix(0.0833333 0 0 0.0833333 -7.41667 -63.1667)" d="M 11794.3,2202.83 L 11774.3,2202.83 L 11774.3,1714.3 L 11784.3,1708 L 11794.3,1713.77 L 11794.3,2202.83 Z " />
<path stroke="transparent" fill="#000000" transform="matrix(0.0833333 0 0 0.0833333 -7.41667 -63.1667)" d="M 12364,3102.83 L 12244,3102.83 L 12246.2,3082.83 L 12361.7,3082.83 L 12364,3102.83 Z " />
<path stroke="transparent" fill="#000000" transform="matrix(0.0833333 0 0 0.0833333 -7.41667 -63.1667)" d="M 12357.1,3042.73 L 12250.8,3042.73 L 12253,3022.73 L 12354.9,3022.73 L 12357.1,3042.73 Z " />
<path stroke="transparent" fill="#000000" transform="matrix(0.0833333 0 0 0.0833333 -7.41667 -63.1667)" d="M 12350.3,2982.62 L 12257.6,2982.62 L 12259.9,2962.62 L 12348.1,2962.62 L 12350.3,2982.62 Z " />
<path stroke="transparent" fill="#000000" transform="matrix(0.0833333 0 0 0.0833333 -7.41667 -63.1667)" d="M 12343.5,2922.52 L 12264.4,2922.52 L 12266.7,2902.52 L 12341.2,2902.52 L 12343.5,2922.52 Z " />
<path stroke="transparent" fill="#000000" transform="matrix(0.0833333 0 0 0.0833333 -7.41667 -63.1667)" d="M 12336.7,2862.41 L 12271.2,2862.41 L 12273.5,2842.41 L 12334.4,2842.41 L 12336.7,2862.41 Z " />
<path stroke="transparent" fill="#000000" transform="matrix(0.0833333 0 0 0.0833333 -7.41667 -63.1667)" d="M 12329.9,2802.3 L 12278.1,2802.3 L 12280.3,2782.3 L 12327.6,2782.3 L 12329.9,2802.3 Z " />
<path stroke="transparent" fill="#000000" transform="matrix(0.0833333 0 0 0.0833333 -7.41667 -63.1667)" d="M 12323,2742.2 L 12284.9,2742.2 L 12287.1,2722.2 L 12320.8,2722.2 L 12323,2742.2 Z " />
<path stroke="transparent" fill="#000000" transform="matrix(0.0833333 0 0 0.0833333 -7.41667 -63.1667)" d="M 12316.2,2682.09 L 12291.7,2682.09 L 12294,2662.09 L 12314,2662.09 L 12316.2,2682.09 Z " />
<path stroke="transparent" fill="#000000" transform="matrix(0.0833333 0 0 0.0833333 -7.41667 -63.1667)" d="M 11836.2,3489.61 L 11826.2,3472.28 L 11842.4,3460.27 L 11854.7,3481.62 L 11836.2,3489.61 Z " />
<path stroke="transparent" fill="#000000" transform="matrix(0.0833333 0 0 0.0833333 -7.41667 -63.1667)" d="M 11890.4,3466.16 L 11873.6,3437.04 L 11889.8,3425.03 L 11908.9,3458.17 L 11890.4,3466.16 Z " />
<path stroke="transparent" fill="#000000" transform="matrix(0.0833333 0 0 0.0833333 -7.41667 -63.1667)" d="M 11944.7,3442.71 L 11921.1,3401.79 L 11937.2,3389.78 L 11963.2,3434.72 L 11944.7,3442.71 Z " />
<path stroke="transparent" fill="#000000" transform="matrix(0.0833333 0 0 0.0833333 -7.41667 -63.1667)" d="M 11998.9,3419.26 L 11968.5,3366.54 L 11984.6,3354.53 L 12017.4,3411.27 L 11998.9,3419.26 Z " />
<path stroke="transparent" fill="#000000" transform="matrix(0.0833333 0 0 0.0833333 -7.41667 -63.1667)" d="M 12053.2,3395.81 L 12015.9,3331.3 L 12032.1,3319.29 L 12071.6,3387.82 L 12053.2,3395.81 Z " />
<path stroke="transparent" fill="#000000" transform="matrix(0.0833333 0 0 0.0833333 -7.41667 -63.1667)" d="M 12107.4,3372.36 L 12063.3,3296.05 L 12079.5,3284.04 L 12125.9,3364.37 L 12107.4,3372.36 Z " />
<path stroke="transparent" fill="#000000" transform="matrix(0.0833333 0 0 0.0833333 -7.41667 -63.1667)" d="M 12161.6,3348.91 L 12110.8,3260.8 L 12126.9,3248.79 L 12180.1,3340.92 L 12161.6,3348.91 Z " />
<path stroke="transparent" fill="#000000" transform="matrix(0.0833333 0 0 0.0833333 -7.41667 -63.1667)" d="M 12215.9,3325.46 L 12158.2,3225.55 L 12174.4,3213.54 L 12234.4,3317.47 L 12215.9,3325.46 Z " />
<path stroke="transparent" fill="#000000" transform="matrix(0.0833333 0 0 0.0833333 -7.41667 -63.1667)" d="M 11794.3,4101.7 L 11784.3,4108 L 11774.3,4102.23 L 11774.3,3513.77 L 11794.3,3502.23 L 11794.3,4101.7 Z " />
<path stroke="transparent" fill="#000000" transform="matrix(0.0833333 0 0 0.0833333 -7.41667 -63.1667)" d="M 11362.3,4363.19 L 11352.3,4345.87 L 11774.3,4102.23 L 11784.3,4108 L 11783.9,4119.81 L 11362.3,4363.19 Z " />
<path stroke="transparent" fill="#000000" transform="matrix(0.0833333 0 0 0.0833333 -7.41667 -63.1667)" d="M 10745.7,4119.87 L 10745.1,4108 L 10755.1,4102.23 L 11177.1,4345.87 L 11167.1,4363.19 L 10745.7,4119.87 Z " />
<path stroke="transparent" fill="#000000" transform="matrix(0.0833333 0 0 0.0833333 -7.41667 -63.1667)" d="M 10735.1,3502.23 L 10755.1,3513.77 L 10755.1,4102.23 L 10745.1,4108 L 10735.1,4101.59 L 10735.1,3502.23 Z " />
<path stroke="transparent" fill="#000000" transform="matrix(0.0833333 0 0 0.0833333 -7.41667 -63.1667)" d="M 11254.2,3202.55 L 11264.7,3208 L 11264.7,3219.55 L 10755.1,3513.77 L 10735.1,3502.23 L 11254.2,3202.55 Z " />
<path stroke="transparent" fill="#000000" transform="matrix(0.0833333 0 0 0.0833333 -7.41667 -63.1667)" d="M 11264.7,3219.55 L 11264.7,3208 L 11275.3,3202.55 L 11794.3,3502.23 L 11774.3,3513.77 L 11264.7,3219.55 Z " />
<path stroke="transparent" fill="#000000" transform="matrix(0.0833333 0 0 0.0833333 -7.41667 -63.1667)" d="M 11204.7,2727.83 L 11324.7,2727.83 L 11275.3,3202.55 L 11264.7,3208 L 11254.2,3202.55 L 11204.7,2727.83 Z " />
<path stroke="transparent" fill="#000000" transform="matrix(0.0833333 0 0 0.0833333 -7.41667 -63.1667)" d="M 10295.5,3317.71 L 10355.5,3213.79 L 10371.7,3225.8 L 10314,3325.7 L 10295.5,3317.71 Z " />
<path stroke="transparent" fill="#000000" transform="matrix(0.0833333 0 0 0.0833333 -7.41667 -63.1667)" d="M 10349.7,3341.13 L 10402.9,3249.01 L 10419.1,3261.02 L 10368.2,3349.12 L 10349.7,3341.13 Z " />
<path stroke="transparent" fill="#000000" transform="matrix(0.0833333 0 0 0.0833333 -7.41667 -63.1667)" d="M 10403.9,3364.55 L 10450.3,3284.22 L 10466.4,3296.23 L 10422.4,3372.54 L 10403.9,3364.55 Z " />
<path stroke="transparent" fill="#000000" transform="matrix(0.0833333 0 0 0.0833333 -7.41667 -63.1667)" d="M 10458.1,3387.97 L 10497.6,3319.44 L 10513.8,3331.45 L 10476.6,3395.96 L 10458.1,3387.97 Z " />
<path stroke="transparent" fill="#000000" transform="matrix(0.0833333 0 0 0.0833333 -7.41667 -63.1667)" d="M 10512.3,3411.39 L 10545,3354.65 L 10561.2,3366.66 L 10530.7,3419.38 L 10512.3,3411.39 Z " />
<path stroke="transparent" fill="#000000" transform="matrix(0.0833333 0 0 0.0833333 -7.41667 -63.1667)" d="M 10566.4,3434.81 L 10592.4,3389.87 L 10608.6,3401.88 L 10584.9,3442.79 L 10566.4,3434.81 Z " />
<path stroke="transparent" fill="#000000" transform="matrix(0.0833333 0 0 0.0833333 -7.41667 -63.1667)" d="M 10620.6,3458.23 L 10639.8,3425.08 L 10655.9,3437.1 L 10639.1,3466.21 L 10620.6,3458.23 Z " />
<path stroke="transparent" fill="#000000" transform="matrix(0.0833333 0 0 0.0833333 -7.41667 -63.1667)" d="M 10674.8,3481.64 L 10687.1,3460.3 L 10703.3,3472.31 L 10693.3,3489.63 L 10674.8,3481.64 Z " />
<path stroke="transparent" fill="#000000" transform="matrix(0.0833333 0 0 0.0833333 -7.41667 -63.1667)" d="M 10348.1,4406.49 L 10288.1,4302.57 L 10735.1,4101.59 L 10745.1,4108 L 10745.7,4119.87 L 10348.1,4406.49 Z " />
<path stroke="transparent" fill="#000000" transform="matrix(0.0833333 0 0 0.0833333 -7.41667 -63.1667)" d="M 9700.88,4116.66 L 9710.88,4099.34 L 10137.9,4345.87 L 10127.9,4363.19 L 9700.88,4116.66 Z " />
<path stroke="transparent" fill="#000000" transform="matrix(0.0833333 0 0 0.0833333 -7.41667 -63.1667)" d="M 9238.03,4389.66 L 9228.03,4372.34 L 9244.34,4360.58 L 9256.37,4381.42 L 9238.03,4389.66 Z " />
<path stroke="transparent" fill="#000000" transform="matrix(0.0833333 0 0 0.0833333 -7.41667 -63.1667)" d="M 9292.13,4365.35 L 9276.13,4337.65 L 9292.44,4325.89 L 9310.46,4357.11 L 9292.13,4365.35 Z " />
<path stroke="transparent" fill="#000000" transform="matrix(0.0833333 0 0 0.0833333 -7.41667 -63.1667)" d="M 9346.22,4341.05 L 9324.23,4302.95 L 9340.53,4291.19 L 9364.56,4332.81 L 9346.22,4341.05 Z " />
<path stroke="transparent" fill="#000000" transform="matrix(0.0833333 0 0 0.0833333 -7.41667 -63.1667)" d="M 9400.31,4316.74 L 9372.33,4268.26 L 9388.63,4256.5 L 9418.65,4308.5 L 9400.31,4316.74 Z " />
<path stroke="transparent" fill="#000000" transform="matrix(0.0833333 0 0 0.0833333 -7.41667 -63.1667)" d="M 9454.41,4292.43 L 9420.42,4233.57 L 9436.73,4221.81 L 9472.74,4284.19 L 9454.41,4292.43 Z " />
<path stroke="transparent" fill="#000000" transform="matrix(0.0833333 0 0 0.0833333 -7.41667 -63.1667)" d="M 9508.5,4268.12 L 9468.52,4198.88 L 9484.83,4187.12 L 9526.84,4259.88 L 9508.5,4268.12 Z " />
<path stroke="transparent" fill="#000000" transform="matrix(0.0833333 0 0 0.0833333 -7.41667 -63.1667)" d="M 9562.59,4243.82 L 9516.62,4164.18 L 9532.92,4152.42 L 9580.93,4235.58 L 9562.59,4243.82 Z " />
<path stroke="transparent" fill="#000000" transform="matrix(0.0833333 0 0 0.0833333 -7.41667 -63.1667)" d="M 9616.69,4219.51 L 9564.72,4129.49 L 9581.02,4117.73 L 9635.03,4211.27 L 9616.69,4219.51 Z " />
<path stroke="transparent" fill="#000000" transform="matrix(0.0833333 0 0 0.0833333 -7.41667 -63.1667)" d="M 9670.78,4195.2 L 9612.81,4094.8 L 9629.12,4083.04 L 9689.12,4186.96 L 9670.78,4195.2 Z " />
<path stroke="transparent" fill="#000000" transform="matrix(0.0833333 0 0 0.0833333 -7.41667 -63.1667)" d="M 9196.27,5001.59 L 9186.27,5008 L 9176.27,5002.23 L 9176.27,4413.77 L 9196.27,4402.23 L 9196.27,5001.59 Z " />
<path stroke="transparent" fill="#000000" transform="matrix(0.0833333 0 0 0.0833333 -7.41667 -63.1667)" d="M 8666.65,5319.55 L 8666.65,5296.45 L 9176.27,5002.23 L 9186.27,5008 L 9185.72,5019.87 L 8666.65,5319.55 Z " />
<path stroke="transparent" fill="#000000" transform="matrix(0.0833333 0 0 0.0833333 -7.41667 -63.1667)" d="M 8147.59,5019.87 L 8147.04,5008 L 8157.04,5002.23 L 8666.65,5296.45 L 8666.65,5319.55 L 8147.59,5019.87 Z " />
<path stroke="transparent" fill="#000000" transform="matrix(0.0833333 0 0 0.0833333 -7.41667 -63.1667)" d="M 8137.04,4402.23 L 8157.04,4413.77 L 8157.04,5002.23 L 8147.04,5008 L 8137.04,5001.59 L 8137.04,4402.23 Z " />
<path stroke="transparent" fill="#000000" transform="matrix(0.0833333 0 0 0.0833333 -7.41667 -63.1667)" d="M 8562.05,4156.85 L 8572.05,4174.17 L 8157.04,4413.77 L 8137.04,4402.23 L 8562.05,4156.85 Z " />
<path stroke="transparent" fill="#000000" transform="matrix(0.0833333 0 0 0.0833333 -7.41667 -63.1667)" d="M 8761.69,4174.42 L 8771.69,4157.1 L 9196.27,4402.23 L 9176.27,4413.77 L 8761.69,4174.42 Z " />
<path stroke="transparent" fill="#000000" transform="matrix(0.0833333 0 0 0.0833333 -7.41667 -63.1667)" d="M 7697.46,4217.72 L 7757.46,4113.79 L 7773.62,4125.81 L 7715.94,4225.71 L 7697.46,4217.72 Z " />
<path stroke="transparent" fill="#000000" transform="matrix(0.0833333 0 0 0.0833333 -7.41667 -63.1667)" d="M 7751.64,4241.14 L 7804.83,4149.01 L 7820.99,4161.02 L 7770.12,4249.12 L 7751.64,4241.14 Z " />
<path stroke="transparent" fill="#000000" transform="matrix(0.0833333 0 0 0.0833333 -7.41667 -63.1667)" d="M 7805.83,4264.55 L 7852.2,4184.22 L 7868.36,4196.24 L 7824.31,4272.54 L 7805.83,4264.55 Z " />
<path stroke="transparent" fill="#000000" transform="matrix(0.0833333 0 0 0.0833333 -7.41667 -63.1667)" d="M 7860.01,4287.97 L 7899.58,4219.44 L 7915.74,4231.45 L 7878.49,4295.96 L 7860.01,4287.97 Z " />
<path stroke="transparent" fill="#000000" transform="matrix(0.0833333 0 0 0.0833333 -7.41667 -63.1667)" d="M 7914.19,4311.39 L 7946.95,4254.66 L 7963.11,4266.67 L 7932.68,4319.38 L 7914.19,4311.39 Z " />
<path stroke="transparent" fill="#000000" transform="matrix(0.0833333 0 0 0.0833333 -7.41667 -63.1667)" d="M 7968.38,4334.81 L 7994.32,4289.87 L 8010.48,4301.88 L 7986.86,4342.8 L 7968.38,4334.81 Z " />
<path stroke="transparent" fill="#000000" transform="matrix(0.0833333 0 0 0.0833333 -7.41667 -63.1667)" d="M 8022.56,4358.23 L 8041.69,4325.09 L 8057.85,4337.1 L 8041.04,4366.21 L 8022.56,4358.23 Z " />
<path stroke="transparent" fill="#000000" transform="matrix(0.0833333 0 0 0.0833333 -7.41667 -63.1667)" d="M 8076.74,4381.65 L 8089.07,4360.3 L 8105.23,4372.31 L 8095.23,4389.63 L 8076.74,4381.65 Z " />
<path stroke="transparent" fill="#000000" transform="matrix(0.0833333 0 0 0.0833333 -7.41667 -63.1667)" d="M 7059.64,4447.35 L 7159.83,4366.42 L 7522.82,4156.85 L 7532.82,4174.17 L 7059.64,4447.35 Z " />
<path stroke="transparent" fill="#000000" transform="matrix(0.0833333 0 0 0.0833333 -7.41667 -63.1667)" d="M 7153.81,4902.83 L 7133.81,4902.83 L 7133.81,4387.22 L 7153.81,4387.22 L 7153.81,4902.83 Z " />
<path stroke="transparent" fill="#000000" transform="matrix(0.0833333 0 0 0.0833333 -7.41667 -63.1667)" d="M 7081.81,4902.83 L 7061.81,4902.83 L 7061.81,4387.22 L 7081.81,4387.22 L 7081.81,4902.83 Z " />
<path stroke="transparent" fill="#000000" transform="matrix(0.0833333 0 0 0.0833333 -7.41667 -63.1667)" d="M 6598.19,4127.07 L 6588.19,4108 L 6609.71,4107.12 L 7159.83,4366.42 L 7059.64,4447.35 L 6598.19,4127.07 Z " />
<path stroke="transparent" fill="#000000" transform="matrix(0.0833333 0 0 0.0833333 -7.41667 -63.1667)" d="M 7097.81,3802.23 L 7117.81,3813.77 L 6609.71,4107.12 L 6588.19,4108 L 6588.19,4096.45 L 7097.81,3802.23 Z " />
<path stroke="transparent" fill="#000000" transform="matrix(0.0833333 0 0 0.0833333 -7.41667 -63.1667)" d="M 7097.81,3213.77 L 7117.81,3202.23 L 7117.81,3813.77 L 7097.81,3802.23 L 7097.81,3213.77 Z " />
<path stroke="transparent" fill="#000000" transform="matrix(0.0833333 0 0 0.0833333 -7.41667 -63.1667)" d="M 6588.19,2919.55 L 6588.19,2896.45 L 7117.81,3202.23 L 7097.81,3213.77 L 6588.19,2919.55 Z " />
<path stroke="transparent" fill="#000000" transform="matrix(0.0833333 0 0 0.0833333 -7.41667 -63.1667)" d="M 6542.19,2308 L 6562.19,2308 L 6562.19,2928.78 L 6542.19,2928.78 L 6542.19,2308 Z " />
<path stroke="transparent" fill="#000000" transform="matrix(0.0833333 0 0 0.0833333 -7.41667 -63.1667)" d="M 6614.19,2308 L 6634.19,2308 L 6634.19,2928.78 L 6614.19,2928.78 L 6614.19,2308 Z " />
<path stroke="transparent" fill="#000000" transform="matrix(0.0833333 0 0 0.0833333 -7.41667 -63.1667)" d="M 6073.58,3216.66 L 6063.58,3199.34 L 6588.19,2896.45 L 6588.19,2919.55 L 6073.58,3216.66 Z " />
<path stroke="transparent" fill="#000000" transform="matrix(0.0833333 0 0 0.0833333 -7.41667 -63.1667)" d="M 6078.58,3754 L 6058.58,3754 L 6056.54,3734 L 6080.61,3734 L 6078.58,3754 Z " />
<path stroke="transparent" fill="#000000" transform="matrix(0.0833333 0 0 0.0833333 -7.41667 -63.1667)" d="M 6084.57,3695 L 6052.58,3695 L 6050.55,3675 L 6086.61,3675 L 6084.57,3695 Z " />
<path stroke="transparent" fill="#000000" transform="matrix(0.0833333 0 0 0.0833333 -7.41667 -63.1667)" d="M 6090.57,3636 L 6046.59,3636 L 6044.55,3616 L 6092.6,3616 L 6090.57,3636 Z " />
<path stroke="transparent" fill="#000000" transform="matrix(0.0833333 0 0 0.0833333 -7.41667 -63.1667)" d="M 6096.56,3577 L 6040.59,3577 L 6038.56,3557 L 6098.6,3557 L 6096.56,3577 Z " />
<path stroke="transparent" fill="#000000" transform="matrix(0.0833333 0 0 0.0833333 -7.41667 -63.1667)" d="M 6102.56,3518 L 6034.59,3518 L 6032.56,3498 L 6104.59,3498 L 6102.56,3518 Z " />
<path stroke="transparent" fill="#000000" transform="matrix(0.0833333 0 0 0.0833333 -7.41667 -63.1667)" d="M 6108.56,3459 L 6028.6,3459 L 6026.56,3439 L 6110.59,3439 L 6108.56,3459 Z " />
<path stroke="transparent" fill="#000000" transform="matrix(0.0833333 0 0 0.0833333 -7.41667 -63.1667)" d="M 6114.55,3400 L 6022.6,3400 L 6020.57,3380 L 6116.59,3380 L 6114.55,3400 Z " />
<path stroke="transparent" fill="#000000" transform="matrix(0.0833333 0 0 0.0833333 -7.41667 -63.1667)" d="M 6120.55,3341 L 6016.61,3341 L 6014.57,3321 L 6122.58,3321 L 6120.55,3341 Z " />
<path stroke="transparent" fill="#000000" transform="matrix(0.0833333 0 0 0.0833333 -7.41667 -63.1667)" d="M 6126.54,3282 L 6010.61,3282 L 6008.58,3262 L 6128.58,3262 L 6126.54,3282 Z " />
<path stroke="transparent" fill="#000000" transform="matrix(0.0833333 0 0 0.0833333 -7.41667 -63.1667)" d="M 6068.58,3819.55 L 6068.58,3796.45 L 6588.19,4096.45 L 6588.19,4108 L 6578.19,4113.77 L 6068.58,3819.55 Z " />
<path stroke="transparent" fill="#000000" transform="matrix(0.0833333 0 0 0.0833333 -7.41667 -63.1667)" d="M 5558.96,4113.77 L 5548.96,4108 L 5548.96,4096.45 L 6068.58,3796.45 L 6068.58,3819.55 L 5558.96,4113.77 Z " />
<path stroke="transparent" fill="#000000" transform="matrix(0.0833333 0 0 0.0833333 -7.41667 -63.1667)" d="M 5029.35,3819.55 L 5029.35,3796.45 L 5548.96,4096.45 L 5548.96,4108 L 5538.96,4113.77 L 5029.35,3819.55 Z " />
<path stroke="transparent" fill="#000000" transform="matrix(0.0833333 0 0 0.0833333 -7.41667 -63.1667)" d="M 5024.35,3899.8 L 5034.35,3882.48 L 5481.96,4140.91 L 5471.96,4158.23 L 5024.35,3899.8 Z " />
<path stroke="transparent" fill="#000000" transform="matrix(0.0833333 0 0 0.0833333 -7.41667 -63.1667)" d="M 4571.75,4083.74 L 4451.57,4130.03 L 5029.35,3796.45 L 5029.35,3819.55 L 4571.75,4083.74 Z " />
<path stroke="transparent" fill="#000000" transform="matrix(0.0833333 0 0 0.0833333 -7.41667 -63.1667)" d="M 4520.19,4702.49 L 4509.73,4708 L 4499.27,4702.49 L 4451.57,4130.03 L 4571.75,4083.74 L 4520.19,4702.49 Z " />
<path stroke="transparent" fill="#000000" transform="matrix(0.0833333 0 0 0.0833333 -7.41667 -63.1667)" d="M 4000.12,5013.77 L 3990.12,5008 L 4001.63,4989.8 L 4499.27,4702.49 L 4509.73,4708 L 4509.73,4719.55 L 4000.12,5013.77 Z " />
<path stroke="transparent" fill="#000000" transform="matrix(0.0833333 0 0 0.0833333 -7.41667 -63.1667)" d="M 3470.5,4719.55 L 3470.5,4696.45 L 3978.6,4989.8 L 3990.12,5008 L 3980.12,5013.77 L 3470.5,4719.55 Z " />
<path stroke="transparent" fill="#000000" transform="matrix(0.0833333 0 0 0.0833333 -7.41667 -63.1667)" d="M 2960.89,5013.77 L 2940.89,5002.23 L 3470.5,4696.45 L 3470.5,4719.55 L 2960.89,5013.77 Z " />
<path stroke="transparent" fill="#000000" transform="matrix(0.0833333 0 0 0.0833333 -7.41667 -63.1667)" d="M 2960.89,5602.23 L 2950.89,5608 L 2940.89,5601.59 L 2940.89,5002.23 L 2960.89,5013.77 L 2960.89,5602.23 Z " />
<path stroke="transparent" fill="#000000" transform="matrix(0.0833333 0 0 0.0833333 -7.41667 -63.1667)" d="M 3470.5,5896.45 L 3470.5,5908 L 3456.84,5911.66 L 2951.44,5619.87 L 2950.89,5608 L 2960.89,5602.23 L 3470.5,5896.45 Z " />
<path stroke="transparent" fill="#000000" transform="matrix(0.0833333 0 0 0.0833333 -7.41667 -63.1667)" d="M 3980.12,5602.23 L 3990.12,5608 L 3989.66,5619.81 L 3484.16,5911.66 L 3470.5,5908 L 3470.5,5896.45 L 3980.12,5602.23 Z " />
<path stroke="transparent" fill="#000000" transform="matrix(0.0833333 0 0 0.0833333 -7.41667 -63.1667)" d="M 4000.12,5601.7 L 3990.12,5608 L 3980.12,5602.23 L 3980.12,5013.77 L 3990.12,5008 L 4000.12,5013.77 L 4000.12,5601.7 Z " />
<path stroke="transparent" fill="#000000" transform="matrix(0.0833333 0 0 0.0833333 -7.41667 -63.1667)" d="M 4561.75,5866.42 L 4461.57,5947.35 L 3989.66,5619.81 L 3990.12,5608 L 4000.12,5601.7 L 4561.75,5866.42 Z " />
<path stroke="transparent" fill="#000000" transform="matrix(0.0833333 0 0 0.0833333 -7.41667 -63.1667)" d="M 5019.35,5602.23 L 5039.35,5613.77 L 4461.57,5947.35 L 4561.75,5866.42 L 5019.35,5602.23 Z " />
<path stroke="transparent" fill="#000000" transform="matrix(0.0833333 0 0 0.0833333 -7.41667 -63.1667)" d="M 5019.35,5013.77 L 5029.35,5008 L 5039.35,5013.77 L 5039.35,5613.77 L 5019.35,5602.23 L 5019.35,5013.77 Z " />
<path stroke="transparent" fill="#000000" transform="matrix(0.0833333 0 0 0.0833333 -7.41667 -63.1667)" d="M 5017.83,4989.8 L 5029.35,5008 L 5019.35,5013.77 L 4509.73,4719.55 L 4509.73,4708 L 4520.19,4702.49 L 5017.83,4989.8 Z " />
<path stroke="transparent" fill="#000000" transform="matrix(0.0833333 0 0 0.0833333 -7.41667 -63.1667)" d="M 5538.96,4702.23 L 5548.96,4708 L 5548.96,4719.55 L 5039.35,5013.77 L 5029.35,5008 L 5040.86,4989.8 L 5538.96,4702.23 Z " />
<path stroke="transparent" fill="#000000" transform="matrix(0.0833333 0 0 0.0833333 -7.41667 -63.1667)" d="M 5558.96,4702.23 L 5548.96,4708 L 5538.96,4702.23 L 5538.96,4113.77 L 5548.96,4108 L 5558.96,4113.77 L 5558.96,4702.23 Z " />
<path stroke="transparent" fill="#000000" transform="matrix(0.0833333 0 0 0.0833333 -7.41667 -63.1667)" d="M 6068.58,4996.45 L 6068.58,5019.55 L 5548.96,4719.55 L 5548.96,4708 L 5558.96,4702.23 L 6068.58,4996.45 Z " />
<path stroke="transparent" fill="#000000" transform="matrix(0.0833333 0 0 0.0833333 -7.41667 -63.1667)" d="M 6578.19,4702.23 L 6598.19,4713.77 L 6068.58,5019.55 L 6068.58,4996.45 L 6578.19,4702.23 Z " />
<path stroke="transparent" fill="#000000" transform="matrix(0.0833333 0 0 0.0833333 -7.41667 -63.1667)" d="M 6598.19,4713.77 L 6578.19,4702.23 L 6578.19,4113.77 L 6588.19,4108 L 6598.19,4127.07 L 6598.19,4713.77 Z " />
<path stroke="transparent" fill="#000000" transform="matrix(0.0833333 0 0 0.0833333 -7.41667 -63.1667)" d="M 5608.96,5308 L 5488.96,5308 L 5490.79,5288 L 5607.13,5288 L 5608.96,5308 Z " />
<path stroke="transparent" fill="#000000" transform="matrix(0.0833333 0 0 0.0833333 -7.41667 -63.1667)" d="M 5603.61,5249.56 L 5494.31,5249.56 L 5496.15,5229.56 L 5601.78,5229.56 L 5603.61,5249.56 Z " />
<path stroke="transparent" fill="#000000" transform="matrix(0.0833333 0 0 0.0833333 -7.41667 -63.1667)" d="M 5598.26,5191.11 L 5499.67,5191.11 L 5501.5,5171.11 L 5596.43,5171.11 L 5598.26,5191.11 Z " />
<path stroke="transparent" fill="#000000" transform="matrix(0.0833333 0 0 0.0833333 -7.41667 -63.1667)" d="M 5592.91,5132.67 L 5505.02,5132.67 L 5506.85,5112.67 L 5591.07,5112.67 L 5592.91,5132.67 Z " />
<path stroke="transparent" fill="#000000" transform="matrix(0.0833333 0 0 0.0833333 -7.41667 -63.1667)" d="M 5587.55,5074.22 L 5510.37,5074.22 L 5512.2,5054.22 L 5585.72,5054.22 L 5587.55,5074.22 Z " />
<path stroke="transparent" fill="#000000" transform="matrix(0.0833333 0 0 0.0833333 -7.41667 -63.1667)" d="M 5582.2,5015.78 L 5515.72,5015.78 L 5517.55,4995.78 L 5580.37,4995.78 L 5582.2,5015.78 Z " />
<path stroke="transparent" fill="#000000" transform="matrix(0.0833333 0 0 0.0833333 -7.41667 -63.1667)" d="M 5576.85,4957.33 L 5521.07,4957.33 L 5522.91,4937.33 L 5575.02,4937.33 L 5576.85,4957.33 Z " />
<path stroke="transparent" fill="#000000" transform="matrix(0.0833333 0 0 0.0833333 -7.41667 -63.1667)" d="M 5571.5,4898.89 L 5526.43,4898.89 L 5528.26,4878.89 L 5569.67,4878.89 L 5571.5,4898.89 Z " />
<path stroke="transparent" fill="#000000" transform="matrix(0.0833333 0 0 0.0833333 -7.41667 -63.1667)" d="M 5566.15,4840.44 L 5531.78,4840.44 L 5533.61,4820.44 L 5564.31,4820.44 L 5566.15,4840.44 Z " />
<path stroke="transparent" fill="#000000" transform="matrix(0.0833333 0 0 0.0833333 -7.41667 -63.1667)" d="M 5560.79,4782 L 5537.13,4782 L 5538.96,4762 L 5558.96,4762 L 5560.79,4782 Z " />
<path stroke="transparent" fill="#000000" transform="matrix(0.0833333 0 0 0.0833333 -7.41667 -63.1667)" d="M 4969.35,4408 L 5089.35,4408 L 5040.86,4989.8 L 5029.35,5008 L 5017.83,4989.8 L 4969.35,4408 Z " />
<path stroke="transparent" fill="#000000" transform="matrix(0.0833333 0 0 0.0833333 -7.41667 -63.1667)" d="M 3779.16,6422.62 L 3761.84,6432.62 L 3470.5,5928 L 3470.5,5908 L 3484.16,5911.66 L 3779.16,6422.62 Z " />
<path stroke="transparent" fill="#000000" transform="matrix(0.0833333 0 0 0.0833333 -7.41667 -63.1667)" d="M 3179.16,6432.62 L 3161.84,6422.62 L 3456.84,5911.66 L 3470.5,5908 L 3470.5,5928 L 3179.16,6432.62 Z " />
<path stroke="transparent" fill="#000000" transform="matrix(0.0833333 0 0 0.0833333 -7.41667 -63.1667)" d="M 2553.89,5906.49 L 2493.89,5802.57 L 2940.89,5601.59 L 2950.89,5608 L 2951.44,5619.87 L 2553.89,5906.49 Z " />
<path stroke="transparent" fill="#000000" transform="matrix(0.0833333 0 0 0.0833333 -7.41667 -63.1667)" d="M 1953.43,5643.66 L 1963.43,5626.34 L 1981.88,5634.37 L 1969.61,5655.64 L 1953.43,5643.66 Z " />
<path stroke="transparent" fill="#000000" transform="matrix(0.0833333 0 0 0.0833333 -7.41667 -63.1667)" d="M 2001.86,5679.5 L 2018.68,5650.37 L 2037.14,5658.4 L 2018.04,5691.47 L 2001.86,5679.5 Z " />
<path stroke="transparent" fill="#000000" transform="matrix(0.0833333 0 0 0.0833333 -7.41667 -63.1667)" d="M 2050.3,5715.34 L 2073.93,5674.4 L 2092.39,5682.43 L 2066.48,5727.31 L 2050.3,5715.34 Z " />
<path stroke="transparent" fill="#000000" transform="matrix(0.0833333 0 0 0.0833333 -7.41667 -63.1667)" d="M 2098.73,5751.17 L 2129.18,5698.43 L 2147.64,5706.45 L 2114.91,5763.14 L 2098.73,5751.17 Z " />
<path stroke="transparent" fill="#000000" transform="matrix(0.0833333 0 0 0.0833333 -7.41667 -63.1667)" d="M 2147.17,5787.01 L 2184.44,5722.45 L 2202.89,5730.48 L 2163.35,5798.98 L 2147.17,5787.01 Z " />
<path stroke="transparent" fill="#000000" transform="matrix(0.0833333 0 0 0.0833333 -7.41667 -63.1667)" d="M 2195.6,5822.84 L 2239.69,5746.48 L 2258.15,5754.51 L 2211.78,5834.82 L 2195.6,5822.84 Z " />
<path stroke="transparent" fill="#000000" transform="matrix(0.0833333 0 0 0.0833333 -7.41667 -63.1667)" d="M 2244.04,5858.68 L 2294.94,5770.51 L 2313.4,5778.54 L 2260.22,5870.65 L 2244.04,5858.68 Z " />
<path stroke="transparent" fill="#000000" transform="matrix(0.0833333 0 0 0.0833333 -7.41667 -63.1667)" d="M 2292.47,5894.52 L 2350.19,5794.54 L 2368.65,5802.57 L 2308.65,5906.49 L 2292.47,5894.52 Z " />
<path stroke="transparent" fill="#000000" transform="matrix(0.0833333 0 0 0.0833333 -7.41667 -63.1667)" d="M 1901.66,5013.77 L 1911.66,5008 L 1921.66,5014.42 L 1921.66,5613.77 L 1901.66,5602.23 L 1901.66,5013.77 Z " />
<path stroke="transparent" fill="#000000" transform="matrix(0.0833333 0 0 0.0833333 -7.41667 -63.1667)" d="M 1392.04,4719.55 L 1392.04,4696.45 L 1911.09,4996.13 L 1911.66,5008 L 1901.66,5013.77 L 1392.04,4719.55 Z " />
<path stroke="transparent" fill="#000000" transform="matrix(0.0833333 0 0 0.0833333 -7.41667 -63.1667)" d="M 882.425,5013.77 L 862.425,5002.23 L 1392.04,4696.45 L 1392.04,4719.55 L 882.425,5013.77 Z " />
<path stroke="transparent" fill="#000000" transform="matrix(0.0833333 0 0 0.0833333 -7.41667 -63.1667)" d="M 882.425,5602.23 L 862.425,5613.77 L 862.425,5002.23 L 882.425,5013.77 L 882.425,5602.23 Z " />
<path stroke="transparent" fill="#000000" transform="matrix(0.0833333 0 0 0.0833333 -7.41667 -63.1667)" d="M 1304.42,5845.87 L 1294.42,5863.19 L 862.425,5613.77 L 882.425,5602.23 L 1304.42,5845.87 Z " />
<path stroke="transparent" fill="#000000" transform="matrix(0.0833333 0 0 0.0833333 -7.41667 -63.1667)" d="M 1489.66,5863.19 L 1479.66,5845.87 L 1901.66,5602.23 L 1921.66,5613.77 L 1489.66,5863.19 Z " />
<path stroke="transparent" fill="#000000" transform="matrix(0.0833333 0 0 0.0833333 -7.41667 -63.1667)" d="M 422.838,4817.71 L 482.838,4713.79 L 498.997,4725.8 L 441.32,4825.7 L 422.838,4817.71 Z " />
<path stroke="transparent" fill="#000000" transform="matrix(0.0833333 0 0 0.0833333 -7.41667 -63.1667)" d="M 477.022,4841.13 L 530.211,4749.01 L 546.37,4761.02 L 495.504,4849.12 L 477.022,4841.13 Z " />
<path stroke="transparent" fill="#000000" transform="matrix(0.0833333 0 0 0.0833333 -7.41667 -63.1667)" d="M 531.207,4864.55 L 577.585,4784.22 L 593.744,4796.23 L 549.689,4872.54 L 531.207,4864.55 Z " />
<path stroke="transparent" fill="#000000" transform="matrix(0.0833333 0 0 0.0833333 -7.41667 -63.1667)" d="M 585.391,4887.97 L 624.958,4819.44 L 641.117,4831.45 L 603.873,4895.96 L 585.391,4887.97 Z " />
<path stroke="transparent" fill="#000000" transform="matrix(0.0833333 0 0 0.0833333 -7.41667 -63.1667)" d="M 639.576,4911.39 L 672.332,4854.65 L 688.491,4866.66 L 658.058,4919.38 L 639.576,4911.39 Z " />
<path stroke="transparent" fill="#000000" transform="matrix(0.0833333 0 0 0.0833333 -7.41667 -63.1667)" d="M 693.76,4934.81 L 719.705,4889.87 L 735.864,4901.88 L 712.242,4942.79 L 693.76,4934.81 Z " />
<path stroke="transparent" fill="#000000" transform="matrix(0.0833333 0 0 0.0833333 -7.41667 -63.1667)" d="M 747.945,4958.23 L 767.079,4925.08 L 783.238,4937.1 L 766.427,4966.21 L 747.945,4958.23 Z " />
<path stroke="transparent" fill="#000000" transform="matrix(0.0833333 0 0 0.0833333 -7.41667 -63.1667)" d="M 802.129,4981.64 L 814.452,4960.3 L 830.611,4972.31 L 820.611,4989.63 L 802.129,4981.64 Z " />
<path stroke="transparent" fill="#000000" transform="matrix(0.0833333 0 0 0.0833333 -7.41667 -63.1667)" d="M 1332.04,4227.83 L 1452.04,4227.83 L 1449.69,4247.83 L 1334.39,4247.83 L 1332.04,4227.83 Z " />
<path stroke="transparent" fill="#000000" transform="matrix(0.0833333 0 0 0.0833333 -7.41667 -63.1667)" d="M 1338.85,4285.85 L 1445.23,4285.85 L 1442.89,4305.85 L 1341.19,4305.85 L 1338.85,4285.85 Z " />
<path stroke="transparent" fill="#000000" transform="matrix(0.0833333 0 0 0.0833333 -7.41667 -63.1667)" d="M 1345.66,4343.88 L 1438.42,4343.88 L 1436.08,4363.88 L 1348,4363.88 L 1345.66,4343.88 Z " />
<path stroke="transparent" fill="#000000" transform="matrix(0.0833333 0 0 0.0833333 -7.41667 -63.1667)" d="M 1352.46,4401.9 L 1431.62,4401.9 L 1429.27,4421.9 L 1354.81,4421.9 L 1352.46,4401.9 Z " />
<path stroke="transparent" fill="#000000" transform="matrix(0.0833333 0 0 0.0833333 -7.41667 -63.1667)" d="M 1359.27,4459.92 L 1424.81,4459.92 L 1422.46,4479.92 L 1361.62,4479.92 L 1359.27,4459.92 Z " />
<path stroke="transparent" fill="#000000" transform="matrix(0.0833333 0 0 0.0833333 -7.41667 -63.1667)" d="M 1366.08,4517.94 L 1418,4517.94 L 1415.66,4537.94 L 1368.42,4537.94 L 1366.08,4517.94 Z " />
<path stroke="transparent" fill="#000000" transform="matrix(0.0833333 0 0 0.0833333 -7.41667 -63.1667)" d="M 1372.89,4575.96 L 1411.19,4575.96 L 1408.85,4595.96 L 1375.23,4595.96 L 1372.89,4575.96 Z " />
<path stroke="transparent" fill="#000000" transform="matrix(0.0833333 0 0 0.0833333 -7.41667 -63.1667)" d="M 1379.69,4633.98 L 1404.39,4633.98 L 1402.04,4653.98 L 1382.04,4653.98 L 1379.69,4633.98 Z " />
<path stroke="transparent" fill="#000000" transform="matrix(0.0833333 0 0 0.0833333 -7.41667 -63.1667)" d="M 2301.67,4713.54 L 2361.67,4817.47 L 1921.66,5014.42 L 1911.66,5008 L 1911.09,4996.13 L 2301.67,4713.54 Z " />
<path stroke="transparent" fill="#000000" transform="matrix(0.0833333 0 0 0.0833333 -7.41667 -63.1667)" d="M 2421.27,4162.09 L 2441.27,4162.09 L 2443.54,4182.09 L 2419,4182.09 L 2421.27,4162.09 Z " />
<path stroke="transparent" fill="#000000" transform="matrix(0.0833333 0 0 0.0833333 -7.41667 -63.1667)" d="M 2414.45,4222.2 L 2448.09,4222.2 L 2450.36,4242.2 L 2412.18,4242.2 L 2414.45,4222.2 Z " />
<path stroke="transparent" fill="#000000" transform="matrix(0.0833333 0 0 0.0833333 -7.41667 -63.1667)" d="M 2407.63,4282.3 L 2454.91,4282.3 L 2457.18,4302.3 L 2405.36,4302.3 L 2407.63,4282.3 Z " />
<path stroke="transparent" fill="#000000" transform="matrix(0.0833333 0 0 0.0833333 -7.41667 -63.1667)" d="M 2400.81,4342.41 L 2461.73,4342.41 L 2464,4362.41 L 2398.55,4362.41 L 2400.81,4342.41 Z " />
<path stroke="transparent" fill="#000000" transform="matrix(0.0833333 0 0 0.0833333 -7.41667 -63.1667)" d="M 2394,4402.52 L 2468.55,4402.52 L 2470.81,4422.52 L 2391.73,4422.52 L 2394,4402.52 Z " />
<path stroke="transparent" fill="#000000" transform="matrix(0.0833333 0 0 0.0833333 -7.41667 -63.1667)" d="M 2387.18,4462.62 L 2475.36,4462.62 L 2477.63,4482.62 L 2384.91,4482.62 L 2387.18,4462.62 Z " />
<path stroke="transparent" fill="#000000" transform="matrix(0.0833333 0 0 0.0833333 -7.41667 -63.1667)" d="M 2380.36,4522.73 L 2482.18,4522.73 L 2484.45,4542.73 L 2378.09,4542.73 L 2380.36,4522.73 Z " />
<path stroke="transparent" fill="#000000" transform="matrix(0.0833333 0 0 0.0833333 -7.41667 -63.1667)" d="M 2373.54,4582.83 L 2489,4582.83 L 2491.27,4602.83 L 2371.27,4602.83 L 2373.54,4582.83 Z " />
<path stroke="transparent" fill="#000000" transform="matrix(0.0833333 0 0 0.0833333 -7.41667 -63.1667)" d="M 2940.89,3802.23 L 2950.89,3808 L 2950.33,3819.87 L 2431.27,4119.55 L 2431.27,4096.45 L 2940.89,3802.23 Z " />
<path stroke="transparent" fill="#000000" transform="matrix(0.0833333 0 0 0.0833333 -7.41667 -63.1667)" d="M 2940.89,3213.77 L 2950.89,3208 L 2960.89,3214.42 L 2960.89,3801.59 L 2950.89,3808 L 2940.89,3802.23 L 2940.89,3213.77 Z " />
<path stroke="transparent" fill="#000000" transform="matrix(0.0833333 0 0 0.0833333 -7.41667 -63.1667)" d="M 2431.27,2919.55 L 2431.27,2896.45 L 2950.32,3196.13 L 2950.89,3208 L 2940.89,3213.77 L 2431.27,2919.55 Z " />
<path stroke="transparent" fill="#000000" transform="matrix(0.0833333 0 0 0.0833333 -7.41667 -63.1667)" d="M 1921.66,3213.77 L 1911.66,3208 L 1912.11,3196.19 L 2431.27,2896.45 L 2431.27,2919.55 L 1921.66,3213.77 Z " />
<path stroke="transparent" fill="#000000" transform="matrix(0.0833333 0 0 0.0833333 -7.41667 -63.1667)" d="M 1921.66,3702.83 L 1901.66,3702.83 L 1901.66,3214.3 L 1911.66,3208 L 1921.66,3213.77 L 1921.66,3702.83 Z " />
<path stroke="transparent" fill="#000000" transform="matrix(0.0833333 0 0 0.0833333 -7.41667 -63.1667)" d="M 2006.69,3874.42 L 2016.69,3857.1 L 2431.27,4096.45 L 2431.27,4119.55 L 2006.69,3874.42 Z " />
<path stroke="transparent" fill="#000000" transform="matrix(0.0833333 0 0 0.0833333 -7.41667 -63.1667)" d="M 1362.04,2959.96 L 1422.04,2856.04 L 1912.11,3196.19 L 1911.66,3208 L 1901.66,3214.3 L 1362.04,2959.96 Z " />
<path stroke="transparent" fill="#000000" transform="matrix(0.0833333 0 0 0.0833333 -7.41667 -63.1667)" d="M 2371.27,2427.83 L 2491.27,2427.83 L 2488.92,2447.83 L 2373.62,2447.83 L 2371.27,2427.83 Z " />
<path stroke="transparent" fill="#000000" transform="matrix(0.0833333 0 0 0.0833333 -7.41667 -63.1667)" d="M 2378.08,2485.85 L 2484.46,2485.85 L 2482.12,2505.85 L 2380.42,2505.85 L 2378.08,2485.85 Z " />
<path stroke="transparent" fill="#000000" transform="matrix(0.0833333 0 0 0.0833333 -7.41667 -63.1667)" d="M 2384.89,2543.88 L 2477.66,2543.88 L 2475.31,2563.88 L 2387.23,2563.88 L 2384.89,2543.88 Z " />
<path stroke="transparent" fill="#000000" transform="matrix(0.0833333 0 0 0.0833333 -7.41667 -63.1667)" d="M 2391.69,2601.9 L 2470.85,2601.9 L 2468.5,2621.9 L 2394.04,2621.9 L 2391.69,2601.9 Z " />
<path stroke="transparent" fill="#000000" transform="matrix(0.0833333 0 0 0.0833333 -7.41667 -63.1667)" d="M 2398.5,2659.92 L 2464.04,2659.92 L 2461.69,2679.92 L 2400.85,2679.92 L 2398.5,2659.92 Z " />
<path stroke="transparent" fill="#000000" transform="matrix(0.0833333 0 0 0.0833333 -7.41667 -63.1667)" d="M 2405.31,2717.94 L 2457.23,2717.94 L 2454.89,2737.94 L 2407.66,2737.94 L 2405.31,2717.94 Z " />
<path stroke="transparent" fill="#000000" transform="matrix(0.0833333 0 0 0.0833333 -7.41667 -63.1667)" d="M 2412.12,2775.96 L 2450.42,2775.96 L 2448.08,2795.96 L 2414.46,2795.96 L 2412.12,2775.96 Z " />
<path stroke="transparent" fill="#000000" transform="matrix(0.0833333 0 0 0.0833333 -7.41667 -63.1667)" d="M 2418.92,2833.98 L 2443.62,2833.98 L 2441.27,2853.98 L 2421.27,2853.98 L 2418.92,2833.98 Z " />
<path stroke="transparent" fill="#000000" transform="matrix(0.0833333 0 0 0.0833333 -7.41667 -63.1667)" d="M 3340.9,2913.54 L 3400.9,3017.47 L 2960.89,3214.42 L 2950.89,3208 L 2950.32,3196.13 L 3340.9,2913.54 Z " />
<path stroke="transparent" fill="#000000" transform="matrix(0.0833333 0 0 0.0833333 -7.41667 -63.1667)" d="M 3407.88,4002.57 L 3347.88,4106.49 L 2950.33,3819.87 L 2950.89,3808 L 2960.89,3801.59 L 3407.88,4002.57 Z " />
<path stroke="transparent" fill="#000000" transform="matrix(0.0833333 0 0 0.0833333 -7.41667 -63.1667)" d="M 3930.12,4408 L 4050.12,4408 L 4001.63,4989.8 L 3990.12,5008 L 3978.6,4989.8 L 3930.12,4408 Z " />
<path stroke="transparent" fill="#000000" transform="matrix(0.0833333 0 0 0.0833333 -7.41667 -63.1667)" d="M 7750.03,5306.49 L 7690.03,5202.57 L 8137.04,5001.59 L 8147.04,5008 L 8147.59,5019.87 L 7750.03,5306.49 Z " />
<path stroke="transparent" fill="#000000" transform="matrix(0.0833333 0 0 0.0833333 -7.41667 -63.1667)" d="M 8726.65,5802.83 L 8606.65,5802.83 L 8608.92,5782.83 L 8724.38,5782.83 L 8726.65,5802.83 Z " />
<path stroke="transparent" fill="#000000" transform="matrix(0.0833333 0 0 0.0833333 -7.41667 -63.1667)" d="M 8719.83,5742.73 L 8613.47,5742.73 L 8615.74,5722.73 L 8717.57,5722.73 L 8719.83,5742.73 Z " />
<path stroke="transparent" fill="#000000" transform="matrix(0.0833333 0 0 0.0833333 -7.41667 -63.1667)" d="M 8713.02,5682.62 L 8620.29,5682.62 L 8622.56,5662.62 L 8710.75,5662.62 L 8713.02,5682.62 Z " />
<path stroke="transparent" fill="#000000" transform="matrix(0.0833333 0 0 0.0833333 -7.41667 -63.1667)" d="M 8706.2,5622.52 L 8627.11,5622.52 L 8629.38,5602.52 L 8703.93,5602.52 L 8706.2,5622.52 Z " />
<path stroke="transparent" fill="#000000" transform="matrix(0.0833333 0 0 0.0833333 -7.41667 -63.1667)" d="M 8699.38,5562.41 L 8633.93,5562.41 L 8636.2,5542.41 L 8697.11,5542.41 L 8699.38,5562.41 Z " />
<path stroke="transparent" fill="#000000" transform="matrix(0.0833333 0 0 0.0833333 -7.41667 -63.1667)" d="M 8692.56,5502.3 L 8640.75,5502.3 L 8643.02,5482.3 L 8690.29,5482.3 L 8692.56,5502.3 Z " />
<path stroke="transparent" fill="#000000" transform="matrix(0.0833333 0 0 0.0833333 -7.41667 -63.1667)" d="M 8685.74,5442.2 L 8647.57,5442.2 L 8649.83,5422.2 L 8683.47,5422.2 L 8685.74,5442.2 Z " />
<path stroke="transparent" fill="#000000" transform="matrix(0.0833333 0 0 0.0833333 -7.41667 -63.1667)" d="M 8678.92,5382.09 L 8654.38,5382.09 L 8656.65,5362.09 L 8676.65,5362.09 L 8678.92,5382.09 Z " />
<path stroke="transparent" fill="#000000" transform="matrix(0.0833333 0 0 0.0833333 -7.41667 -63.1667)" d="M 9643.27,5202.57 L 9583.27,5306.49 L 9185.72,5019.87 L 9186.27,5008 L 9196.27,5001.59 L 9643.27,5202.57 Z " />
<path stroke="transparent" fill="#000000" transform="matrix(0.0833333 0 0 0.0833333 -7.41667 -63.1667)" d="M 12356,4366.42 L 12255.8,4447.35 L 11783.9,4119.81 L 11784.3,4108 L 11794.3,4101.7 L 12356,4366.42 Z " />
<path stroke="transparent" fill="#000000" transform="matrix(0.0833333 0 0 0.0833333 -7.41667 -63.1667)" d="M 12719,4156.85 L 12729,4174.17 L 12255.8,4447.35 L 12356,4366.42 L 12719,4156.85 Z " />
<path stroke="transparent" fill="#000000" transform="matrix(0.0833333 0 0 0.0833333 -7.41667 -63.1667)" d="M 13280.6,2502.57 L 13220.6,2606.49 L 12823,2319.87 L 12823.6,2308 L 12833.6,2301.59 L 13280.6,2502.57 Z " />
<path stroke="transparent" fill="#000000" transform="matrix(0.0833333 0 0 0.0833333 -7.41667 -63.1667)" d="M 13213.6,1413.54 L 13273.6,1517.47 L 12833.6,1714.42 L 12823.6,1708 L 12823,1696.13 L 13213.6,1413.54 Z " />
<path stroke="transparent" fill="#000000" transform="matrix(0.0833333 0 0 0.0833333 -7.41667 -63.1667)" d="M 12244,808 L 12364,808 L 12362.1,828 L 12245.8,828 L 12244,808 Z " />
<path stroke="transparent" fill="#000000" transform="matrix(0.0833333 0 0 0.0833333 -7.41667 -63.1667)" d="M 12249.3,866.434 L 12358.6,866.434 L 12356.8,886.434 L 12251.1,886.434 L 12249.3,866.434 Z " />
<path stroke="transparent" fill="#000000" transform="matrix(0.0833333 0 0 0.0833333 -7.41667 -63.1667)" d="M 12254.7,924.869 L 12353.3,924.869 L 12351.4,944.869 L 12256.5,944.869 L 12254.7,924.869 Z " />
<path stroke="transparent" fill="#000000" transform="matrix(0.0833333 0 0 0.0833333 -7.41667 -63.1667)" d="M 12260,983.303 L 12347.9,983.303 L 12346.1,1003.3 L 12261.8,1003.3 L 12260,983.303 Z " />
<path stroke="transparent" fill="#000000" transform="matrix(0.0833333 0 0 0.0833333 -7.41667 -63.1667)" d="M 12265.4,1041.74 L 12342.6,1041.74 L 12340.7,1061.74 L 12267.2,1061.74 L 12265.4,1041.74 Z " />
<path stroke="transparent" fill="#000000" transform="matrix(0.0833333 0 0 0.0833333 -7.41667 -63.1667)" d="M 12270.7,1100.17 L 12337.2,1100.17 L 12335.4,1120.17 L 12272.6,1120.17 L 12270.7,1100.17 Z " />
<path stroke="transparent" fill="#000000" transform="matrix(0.0833333 0 0 0.0833333 -7.41667 -63.1667)" d="M 12276.1,1158.61 L 12331.8,1158.61 L 12330,1178.61 L 12277.9,1178.61 L 12276.1,1158.61 Z " />
<path stroke="transparent" fill="#000000" transform="matrix(0.0833333 0 0 0.0833333 -7.41667 -63.1667)" d="M 12281.4,1217.04 L 12326.5,1217.04 L 12324.7,1237.04 L 12283.3,1237.04 L 12281.4,1217.04 Z " />
<path stroke="transparent" fill="#000000" transform="matrix(0.0833333 0 0 0.0833333 -7.41667 -63.1667)" d="M 12286.8,1275.48 L 12321.1,1275.48 L 12319.3,1295.48 L 12288.6,1295.48 L 12286.8,1275.48 Z " />
<path stroke="transparent" fill="#000000" transform="matrix(0.0833333 0 0 0.0833333 -7.41667 -63.1667)" d="M 12292.1,1333.91 L 12315.8,1333.91 L 12314,1353.91 L 12294,1353.91 L 12292.1,1333.91 Z " />
</svg>
