<?xml version="1.0" standalone="no" ?>
<!DOCTYPE svg PUBLIC "-//W3C//DTD SVG 1.1//EN" "http://www.w3.org/Graphics/SVG/1.1/DTD/svg11.dtd">
<svg width="824px" height="522px" viewBox="0 0 824 522" style="background-color: #ffffff00" xmlns="http://www.w3.org/2000/svg" xmlns:xlink="http://www.w3.org/1999/xlink" version="1.1" >
<text x="0" y="0" stroke="transparent" fill="#000000" transform="matrix(0.0833333 0 0 0.0833333 275.594 142.799)" style="font:normal normal normal 200px 'Arial'" >
O</text>
<text x="0" y="0" stroke="transparent" fill="#000000" transform="matrix(0.0833333 0 0 0.0833333 232.292 217.799)" style="font:normal normal normal 200px 'Arial'" >
O</text>
<text x="0" y="0" stroke="transparent" fill="#000000" transform="matrix(0.0833333 0 0 0.0833333 318.895 317.799)" style="font:normal normal normal 200px 'Arial'" >
O</text>
<text x="0" y="0" stroke="transparent" fill="#000000" transform="matrix(0.0833333 0 0 0.0833333 318.895 167.799)" style="font:normal normal normal 200px 'Arial'" >
OH</text>
<text x="0" y="0" stroke="transparent" fill="#000000" transform="matrix(0.0833333 0 0 0.0833333 405.498 217.799)" style="font:normal normal normal 200px 'Arial'" >
OH</text>
<text x="0" y="0" stroke="transparent" fill="#000000" transform="matrix(0.0833333 0 0 0.0833333 405.498 317.799)" style="font:normal normal normal 200px 'Arial'" >
O</text>
<text x="0" y="0" stroke="transparent" fill="#000000" transform="matrix(0.0833333 0 0 0.0833333 689.25 117.333)" style="font:normal normal normal 200px 'Arial'" >
O</text>
<text x="0" y="0" stroke="transparent" fill="#000000" transform="matrix(0.0833333 0 0 0.0833333 795.209 242.799)" style="font:normal normal normal 200px 'Arial'" >
OH</text>
<text x="0" y="0" stroke="transparent" fill="#000000" transform="matrix(0.0833333 0 0 0.0833333 232.292 367.799)" style="font:normal normal normal 200px 'Arial'" >
O</text>
<text x="0" y="0" stroke="transparent" fill="#000000" transform="matrix(0.0833333 0 0 0.0833333 145.69 367.799)" style="font:normal normal normal 200px 'Arial'" >
O</text>
<text x="0" y="0" stroke="transparent" fill="#000000" transform="matrix(0.0833333 0 0 0.0833333 3.75 392.799)" style="font:normal normal normal 200px 'Arial'" >
HO</text>
<text x="0" y="0" stroke="transparent" fill="#000000" transform="matrix(0.0833333 0 0 0.0833333 47.0513 467.799)" style="font:normal normal normal 200px 'Arial'" >
HO</text>
<text x="0" y="0" stroke="transparent" fill="#000000" transform="matrix(0.0833333 0 0 0.0833333 145.69 517.799)" style="font:normal normal normal 200px 'Arial'" >
OH</text>
<text x="0" y="0" stroke="transparent" fill="#000000" transform="matrix(0.0833333 0 0 0.0833333 232.292 467.799)" style="font:normal normal normal 200px 'Arial'" >
OH</text>
<text x="0" y="0" stroke="transparent" fill="#000000" transform="matrix(0.0833333 0 0 0.0833333 133.654 167.799)" style="font:normal normal normal 200px 'Arial'" >
HO</text>
<text x="0" y="0" stroke="transparent" fill="#000000" transform="matrix(0.0833333 0 0 0.0833333 133.654 67.7986)" style="font:normal normal normal 200px 'Arial'" >
HO</text>
<text x="0" y="0" stroke="transparent" fill="#000000" transform="matrix(0.0833333 0 0 0.0833333 232.292 17.7986)" style="font:normal normal normal 200px 'Arial'" >
OH</text>
<path stroke="transparent" fill="#000000" transform="matrix(0.0833333 0 0 0.0833333 -13.25 -57.1667)" d="M 3595.97,1703.2 L 3585.97,1685.88 L 3602.37,1674.29 L 3614.2,1694.78 L 3595.97,1703.2 Z " />
<path stroke="transparent" fill="#000000" transform="matrix(0.0833333 0 0 0.0833333 -13.25 -57.1667)" d="M 3649.25,1678.62 L 3633.9,1652.03 L 3650.3,1640.44 L 3667.49,1670.2 L 3649.25,1678.62 Z " />
<path stroke="transparent" fill="#000000" transform="matrix(0.0833333 0 0 0.0833333 -13.25 -57.1667)" d="M 3702.53,1654.03 L 3681.83,1618.17 L 3698.23,1606.59 L 3720.77,1645.62 L 3702.53,1654.03 Z " />
<path stroke="transparent" fill="#000000" transform="matrix(0.0833333 0 0 0.0833333 -13.25 -57.1667)" d="M 3755.81,1629.45 L 3729.76,1584.32 L 3746.16,1572.74 L 3774.05,1621.04 L 3755.81,1629.45 Z " />
<path stroke="transparent" fill="#000000" transform="matrix(0.0833333 0 0 0.0833333 -13.25 -57.1667)" d="M 3809.1,1604.87 L 3777.69,1550.47 L 3794.09,1538.88 L 3827.33,1596.46 L 3809.1,1604.87 Z " />
<path stroke="transparent" fill="#000000" transform="matrix(0.0833333 0 0 0.0833333 -13.25 -57.1667)" d="M 3862.38,1580.29 L 3825.62,1516.62 L 3842.02,1505.03 L 3880.61,1571.87 L 3862.38,1580.29 Z " />
<path stroke="transparent" fill="#000000" transform="matrix(0.0833333 0 0 0.0833333 -13.25 -57.1667)" d="M 3915.66,1555.71 L 3873.55,1482.76 L 3889.95,1471.18 L 3933.9,1547.29 L 3915.66,1555.71 Z " />
<path stroke="transparent" fill="#000000" transform="matrix(0.0833333 0 0 0.0833333 -13.25 -57.1667)" d="M 3968.94,1531.12 L 3921.48,1448.91 L 3937.88,1437.33 L 3987.18,1522.71 L 3968.94,1531.12 Z " />
<path stroke="transparent" fill="#000000" transform="matrix(0.0833333 0 0 0.0833333 -13.25 -57.1667)" d="M 4022.22,1506.54 L 3969.41,1415.06 L 3985.81,1403.47 L 4040.46,1498.13 L 4022.22,1506.54 Z " />
<path stroke="transparent" fill="#000000" transform="matrix(0.0833333 0 0 0.0833333 -13.25 -57.1667)" d="M 4075.5,1481.96 L 4017.34,1381.21 L 4033.74,1369.62 L 4093.74,1473.54 L 4075.5,1481.96 Z " />
<path stroke="transparent" fill="#000000" transform="matrix(0.0833333 0 0 0.0833333 -13.25 -57.1667)" d="M 3024.51,1433.13 L 3024.51,1421.58 L 3035.08,1416.14 L 3554.13,1715.81 L 3534.13,1727.36 L 3024.51,1433.13 Z " />
<path stroke="transparent" fill="#000000" transform="matrix(0.0833333 0 0 0.0833333 -13.25 -57.1667)" d="M 2514.89,1727.36 L 2494.89,1715.81 L 3013.94,1416.14 L 3024.51,1421.58 L 3024.51,1433.13 L 2514.89,1727.36 Z " />
<path stroke="transparent" fill="#000000" transform="matrix(0.0833333 0 0 0.0833333 -13.25 -57.1667)" d="M 2514.89,2315.81 L 2494.89,2327.36 L 2494.89,1715.81 L 2514.89,1727.36 L 2514.89,2315.81 Z " />
<path stroke="transparent" fill="#000000" transform="matrix(0.0833333 0 0 0.0833333 -13.25 -57.1667)" d="M 3024.51,2610.04 L 3024.51,2621.58 L 3013.96,2627.04 L 2494.89,2327.36 L 2514.89,2315.81 L 3024.51,2610.04 Z " />
<path stroke="transparent" fill="#000000" transform="matrix(0.0833333 0 0 0.0833333 -13.25 -57.1667)" d="M 3439.52,2370.43 L 3449.52,2387.75 L 3035.06,2627.04 L 3024.51,2621.58 L 3024.51,2610.04 L 3439.52,2370.43 Z " />
<path stroke="transparent" fill="#000000" transform="matrix(0.0833333 0 0 0.0833333 -13.25 -57.1667)" d="M 3554.13,2216.42 L 3534.13,2216.42 L 3534.13,1727.36 L 3554.13,1715.81 L 3554.13,2216.42 Z " />
<path stroke="transparent" fill="#000000" transform="matrix(0.0833333 0 0 0.0833333 -13.25 -57.1667)" d="M 3084.51,3116.42 L 2964.51,3116.42 L 3013.96,2627.04 L 3024.51,2621.58 L 3035.06,2627.04 L 3084.51,3116.42 Z " />
<path stroke="transparent" fill="#000000" transform="matrix(0.0833333 0 0 0.0833333 -13.25 -57.1667)" d="M 3544.69,3509.71 L 3544.13,3521.58 L 3534.13,3528.01 L 3094.55,3331.3 L 3154.55,3227.38 L 3544.69,3509.71 Z " />
<path stroke="transparent" fill="#000000" transform="matrix(0.0833333 0 0 0.0833333 -13.25 -57.1667)" d="M 3554.13,4115.81 L 3534.13,4127.36 L 3534.13,3528.01 L 3544.13,3521.58 L 3554.13,3527.36 L 3554.13,4115.81 Z " />
<path stroke="transparent" fill="#000000" transform="matrix(0.0833333 0 0 0.0833333 -13.25 -57.1667)" d="M 3976.12,4359.45 L 3966.12,4376.77 L 3534.13,4127.36 L 3554.13,4115.81 L 3976.12,4359.45 Z " />
<path stroke="transparent" fill="#000000" transform="matrix(0.0833333 0 0 0.0833333 -13.25 -57.1667)" d="M 4573.36,4115.81 L 4593.36,4127.36 L 4161.36,4376.77 L 4151.36,4359.45 L 4573.36,4115.81 Z " />
<path stroke="transparent" fill="#000000" transform="matrix(0.0833333 0 0 0.0833333 -13.25 -57.1667)" d="M 4573.36,3527.36 L 4583.36,3521.58 L 4593.36,3528.01 L 4593.36,4127.36 L 4573.36,4115.81 L 4573.36,3527.36 Z " />
<path stroke="transparent" fill="#000000" transform="matrix(0.0833333 0 0 0.0833333 -13.25 -57.1667)" d="M 4063.74,3233.13 L 4063.74,3210.04 L 4582.79,3509.71 L 4583.36,3521.58 L 4573.36,3527.36 L 4063.74,3233.13 Z " />
<path stroke="transparent" fill="#000000" transform="matrix(0.0833333 0 0 0.0833333 -13.25 -57.1667)" d="M 4063.74,3210.04 L 4063.74,3233.13 L 3554.13,3527.36 L 3544.13,3521.58 L 3544.69,3509.71 L 4063.74,3210.04 Z " />
<path stroke="transparent" fill="#000000" transform="matrix(0.0833333 0 0 0.0833333 -13.25 -57.1667)" d="M 4003.74,2741.42 L 4123.74,2741.42 L 4121.39,2761.42 L 4006.09,2761.42 L 4003.74,2741.42 Z " />
<path stroke="transparent" fill="#000000" transform="matrix(0.0833333 0 0 0.0833333 -13.25 -57.1667)" d="M 4010.55,2799.44 L 4116.93,2799.44 L 4114.59,2819.44 L 4012.89,2819.44 L 4010.55,2799.44 Z " />
<path stroke="transparent" fill="#000000" transform="matrix(0.0833333 0 0 0.0833333 -13.25 -57.1667)" d="M 4017.36,2857.46 L 4110.13,2857.46 L 4107.78,2877.46 L 4019.7,2877.46 L 4017.36,2857.46 Z " />
<path stroke="transparent" fill="#000000" transform="matrix(0.0833333 0 0 0.0833333 -13.25 -57.1667)" d="M 4024.16,2915.48 L 4103.32,2915.48 L 4100.97,2935.48 L 4026.51,2935.48 L 4024.16,2915.48 Z " />
<path stroke="transparent" fill="#000000" transform="matrix(0.0833333 0 0 0.0833333 -13.25 -57.1667)" d="M 4030.97,2973.5 L 4096.51,2973.5 L 4094.16,2993.5 L 4033.32,2993.5 L 4030.97,2973.5 Z " />
<path stroke="transparent" fill="#000000" transform="matrix(0.0833333 0 0 0.0833333 -13.25 -57.1667)" d="M 4037.78,3031.52 L 4089.7,3031.52 L 4087.36,3051.52 L 4040.13,3051.52 L 4037.78,3031.52 Z " />
<path stroke="transparent" fill="#000000" transform="matrix(0.0833333 0 0 0.0833333 -13.25 -57.1667)" d="M 4044.59,3089.54 L 4082.89,3089.54 L 4080.55,3109.54 L 4046.93,3109.54 L 4044.59,3089.54 Z " />
<path stroke="transparent" fill="#000000" transform="matrix(0.0833333 0 0 0.0833333 -13.25 -57.1667)" d="M 4051.39,3147.56 L 4076.09,3147.56 L 4073.74,3167.56 L 4053.74,3167.56 L 4051.39,3147.56 Z " />
<path stroke="transparent" fill="#000000" transform="matrix(0.0833333 0 0 0.0833333 -13.25 -57.1667)" d="M 4973.37,3227.13 L 5033.37,3331.05 L 4593.36,3528.01 L 4583.36,3521.58 L 4582.79,3509.71 L 4973.37,3227.13 Z " />
<path stroke="transparent" fill="#000000" transform="matrix(0.0833333 0 0 0.0833333 -13.25 -57.1667)" d="M 5040.35,4316.15 L 4980.35,4420.07 L 4964.17,4408.1 L 5021.89,4308.12 L 5040.35,4316.15 Z " />
<path stroke="transparent" fill="#000000" transform="matrix(0.0833333 0 0 0.0833333 -13.25 -57.1667)" d="M 4985.1,4292.12 L 4931.92,4384.24 L 4915.74,4372.26 L 4966.64,4284.09 L 4985.1,4292.12 Z " />
<path stroke="transparent" fill="#000000" transform="matrix(0.0833333 0 0 0.0833333 -13.25 -57.1667)" d="M 4929.85,4268.09 L 4883.48,4348.4 L 4867.3,4336.43 L 4911.39,4260.07 L 4929.85,4268.09 Z " />
<path stroke="transparent" fill="#000000" transform="matrix(0.0833333 0 0 0.0833333 -13.25 -57.1667)" d="M 4874.59,4244.06 L 4835.05,4312.56 L 4818.87,4300.59 L 4856.14,4236.04 L 4874.59,4244.06 Z " />
<path stroke="transparent" fill="#000000" transform="matrix(0.0833333 0 0 0.0833333 -13.25 -57.1667)" d="M 4819.34,4220.04 L 4786.61,4276.73 L 4770.43,4264.75 L 4800.88,4212.01 L 4819.34,4220.04 Z " />
<path stroke="transparent" fill="#000000" transform="matrix(0.0833333 0 0 0.0833333 -13.25 -57.1667)" d="M 4764.09,4196.01 L 4738.18,4240.89 L 4722,4228.92 L 4745.63,4187.98 L 4764.09,4196.01 Z " />
<path stroke="transparent" fill="#000000" transform="matrix(0.0833333 0 0 0.0833333 -13.25 -57.1667)" d="M 4708.84,4171.98 L 4689.74,4205.06 L 4673.56,4193.08 L 4690.38,4163.95 L 4708.84,4171.98 Z " />
<path stroke="transparent" fill="#000000" transform="matrix(0.0833333 0 0 0.0833333 -13.25 -57.1667)" d="M 4653.59,4147.95 L 4641.31,4169.22 L 4625.13,4157.25 L 4635.13,4139.93 L 4653.59,4147.95 Z " />
<path stroke="transparent" fill="#000000" transform="matrix(0.0833333 0 0 0.0833333 -13.25 -57.1667)" d="M 5612.59,4115.17 L 5622.59,4121.58 L 5623.14,4133.45 L 5225.59,4420.07 L 5165.59,4316.15 L 5612.59,4115.17 Z " />
<path stroke="transparent" fill="#000000" transform="matrix(0.0833333 0 0 0.0833333 -13.25 -57.1667)" d="M 5612.59,3515.81 L 5632.59,3527.36 L 5632.59,4115.81 L 5622.59,4121.58 L 5612.59,4115.17 L 5612.59,3515.81 Z " />
<path stroke="transparent" fill="#000000" transform="matrix(0.0833333 0 0 0.0833333 -13.25 -57.1667)" d="M 6142.2,3210.04 L 6142.2,3233.13 L 5632.59,3527.36 L 5612.59,3515.81 L 6142.2,3210.04 Z " />
<path stroke="transparent" fill="#000000" transform="matrix(0.0833333 0 0 0.0833333 -13.25 -57.1667)" d="M 6650.3,3503.39 L 6661.82,3521.58 L 6651.82,3527.36 L 6142.2,3233.13 L 6142.2,3210.04 L 6650.3,3503.39 Z " />
<path stroke="transparent" fill="#000000" transform="matrix(0.0833333 0 0 0.0833333 -13.25 -57.1667)" d="M 6671.82,4115.81 L 6661.82,4121.58 L 6651.82,4115.81 L 6651.82,3527.36 L 6661.82,3521.58 L 6671.82,3527.36 L 6671.82,4115.81 Z " />
<path stroke="transparent" fill="#000000" transform="matrix(0.0833333 0 0 0.0833333 -13.25 -57.1667)" d="M 6155.86,4425.24 L 6142.2,4421.58 L 6142.2,4410.04 L 6651.82,4115.81 L 6661.82,4121.58 L 6661.82,4133.13 L 6155.86,4425.24 Z " />
<path stroke="transparent" fill="#000000" transform="matrix(0.0833333 0 0 0.0833333 -13.25 -57.1667)" d="M 6142.2,4410.04 L 6142.2,4421.58 L 6128.54,4425.24 L 5623.14,4133.45 L 5622.59,4121.58 L 5632.59,4115.81 L 6142.2,4410.04 Z " />
<path stroke="transparent" fill="#000000" transform="matrix(0.0833333 0 0 0.0833333 -13.25 -57.1667)" d="M 6450.86,4936.2 L 6433.54,4946.2 L 6142.2,4441.58 L 6142.2,4421.58 L 6155.86,4425.24 L 6450.86,4936.2 Z " />
<path stroke="transparent" fill="#000000" transform="matrix(0.0833333 0 0 0.0833333 -13.25 -57.1667)" d="M 5850.86,4946.2 L 5833.54,4936.2 L 6128.54,4425.24 L 6142.2,4421.58 L 6142.2,4441.58 L 5850.86,4946.2 Z " />
<path stroke="transparent" fill="#000000" transform="matrix(0.0833333 0 0 0.0833333 -13.25 -57.1667)" d="M 7181.43,4410.04 L 7181.43,4433.13 L 6661.82,4133.13 L 6661.82,4121.58 L 6671.82,4115.81 L 7181.43,4410.04 Z " />
<path stroke="transparent" fill="#000000" transform="matrix(0.0833333 0 0 0.0833333 -13.25 -57.1667)" d="M 7691.05,4115.81 L 7711.05,4127.36 L 7181.43,4433.13 L 7181.43,4410.04 L 7691.05,4115.81 Z " />
<path stroke="transparent" fill="#000000" transform="matrix(0.0833333 0 0 0.0833333 -13.25 -57.1667)" d="M 7691.05,3527.36 L 7701.05,3521.58 L 7711.05,3527.36 L 7711.05,4127.36 L 7691.05,4115.81 L 7691.05,3527.36 Z " />
<path stroke="transparent" fill="#000000" transform="matrix(0.0833333 0 0 0.0833333 -13.25 -57.1667)" d="M 7181.43,3233.13 L 7181.43,3221.58 L 7191.43,3215.81 L 7689.53,3503.39 L 7701.05,3521.58 L 7691.05,3527.36 L 7181.43,3233.13 Z " />
<path stroke="transparent" fill="#000000" transform="matrix(0.0833333 0 0 0.0833333 -13.25 -57.1667)" d="M 7171.43,3215.81 L 7181.43,3221.58 L 7181.43,3233.13 L 6671.82,3527.36 L 6661.82,3521.58 L 6673.33,3503.39 L 7171.43,3215.81 Z " />
<path stroke="transparent" fill="#000000" transform="matrix(0.0833333 0 0 0.0833333 -13.25 -57.1667)" d="M 7171.43,2615.81 L 7191.43,2627.36 L 7191.43,3215.81 L 7181.43,3221.58 L 7171.43,3215.81 L 7171.43,2615.81 Z " />
<path stroke="transparent" fill="#000000" transform="matrix(0.0833333 0 0 0.0833333 -13.25 -57.1667)" d="M 7701.05,2310.04 L 7701.05,2333.13 L 7191.43,2627.36 L 7171.43,2615.81 L 7701.05,2310.04 Z " />
<path stroke="transparent" fill="#000000" transform="matrix(0.0833333 0 0 0.0833333 -13.25 -57.1667)" d="M 7696.05,2396.06 L 7706.05,2413.38 L 7258.43,2671.81 L 7248.43,2654.49 L 7696.05,2396.06 Z " />
<path stroke="transparent" fill="#000000" transform="matrix(0.0833333 0 0 0.0833333 -13.25 -57.1667)" d="M 8215.41,2607 L 8220.66,2621.58 L 8210.66,2627.36 L 7701.05,2333.13 L 7701.05,2310.04 L 8215.41,2607 Z " />
<path stroke="transparent" fill="#000000" transform="matrix(0.0833333 0 0 0.0833333 -13.25 -57.1667)" d="M 8230.66,3215.81 L 8220.66,3221.58 L 8210.66,3215.81 L 8210.66,2627.36 L 8220.66,2621.58 L 8230.66,2627.36 L 8230.66,3215.81 Z " />
<path stroke="transparent" fill="#000000" transform="matrix(0.0833333 0 0 0.0833333 -13.25 -57.1667)" d="M 8210.66,3215.81 L 8220.66,3221.58 L 8220.66,3233.13 L 7711.05,3527.36 L 7701.05,3521.58 L 7712.56,3503.39 L 8210.66,3215.81 Z " />
<path stroke="transparent" fill="#000000" transform="matrix(0.0833333 0 0 0.0833333 -13.25 -57.1667)" d="M 8740.28,3510.04 L 8740.28,3533.13 L 8220.66,3233.13 L 8220.66,3221.58 L 8230.66,3215.81 L 8740.28,3510.04 Z " />
<path stroke="transparent" fill="#000000" transform="matrix(0.0833333 0 0 0.0833333 -13.25 -57.1667)" d="M 9249.89,3215.81 L 9259.89,3221.58 L 9259.34,3233.45 L 8740.28,3533.13 L 8740.28,3510.04 L 9249.89,3215.81 Z " />
<path stroke="transparent" fill="#000000" transform="matrix(0.0833333 0 0 0.0833333 -13.25 -57.1667)" d="M 9249.89,2627.36 L 9259.89,2621.58 L 9269.89,2627.36 L 9269.89,3215.17 L 9259.89,3221.58 L 9249.89,3215.81 L 9249.89,2627.36 Z " />
<path stroke="transparent" fill="#000000" transform="matrix(0.0833333 0 0 0.0833333 -13.25 -57.1667)" d="M 8752.13,2339.97 L 8740.28,2321.58 L 8750.28,2315.81 L 9234.25,2595.23 L 9259.89,2621.58 L 9249.89,2627.36 L 8752.13,2339.97 Z " />
<path stroke="transparent" fill="#000000" transform="matrix(0.0833333 0 0 0.0833333 -13.25 -57.1667)" d="M 8730.28,2315.81 L 8740.28,2321.58 L 8728.43,2339.97 L 8230.66,2627.36 L 8220.66,2621.58 L 8248.59,2593.91 L 8730.28,2315.81 Z " />
<path stroke="transparent" fill="#000000" transform="matrix(0.0833333 0 0 0.0833333 -13.25 -57.1667)" d="M 8730.28,1715.81 L 8750.28,1727.36 L 8750.28,1966 L 8730.28,1966 L 8730.28,1715.81 L 8730.28,1715.81 Z " />
<path stroke="transparent" fill="#000000" transform="matrix(0.0833333 0 0 0.0833333 -13.25 -57.1667)" d="M 8750.28,2315.81 L 8740.28,2321.58 L 8730.28,2315.81 L 8730.28,2066 L 8750.28,2066 L 8750.28,2315.81 L 8750.28,2315.81 Z " />
<path stroke="transparent" fill="#000000" transform="matrix(0.0833333 0 0 0.0833333 -13.25 -57.1667)" d="M 9246.23,1417.92 L 9259.89,1421.58 L 9259.89,1433.13 L 8750.28,1727.36 L 8730.28,1715.81 L 9246.23,1417.92 Z " />
<path stroke="transparent" fill="#000000" transform="matrix(0.0833333 0 0 0.0833333 -13.25 -57.1667)" d="M 9789.51,1715.81 L 9769.51,1727.36 L 9259.89,1433.13 L 9259.89,1421.58 L 9273.55,1417.92 L 9789.51,1715.81 Z " />
<path stroke="transparent" fill="#000000" transform="matrix(0.0833333 0 0 0.0833333 -13.25 -57.1667)" d="M 9789.51,2327.36 L 9769.51,2315.81 L 9769.51,1727.36 L 9789.51,1715.81 L 9789.51,2327.36 Z " />
<path stroke="transparent" fill="#000000" transform="matrix(0.0833333 0 0 0.0833333 -13.25 -57.1667)" d="M 9769.51,2315.81 L 9789.51,2327.36 L 9269.89,2627.36 L 9259.89,2621.58 L 9265.21,2606.97 L 9769.51,2315.81 Z " />
<path stroke="transparent" fill="#000000" transform="matrix(0.0833333 0 0 0.0833333 -13.25 -57.1667)" d="M 8951.23,906.968 L 8968.55,896.968 L 9259.89,1401.58 L 9259.89,1421.58 L 9246.23,1417.92 L 8951.23,906.968 Z " />
<path stroke="transparent" fill="#000000" transform="matrix(0.0833333 0 0 0.0833333 -13.25 -57.1667)" d="M 9551.23,896.968 L 9568.55,906.968 L 9273.55,1417.92 L 9259.89,1421.58 L 9259.89,1401.58 L 9551.23,896.968 Z " />
<path stroke="transparent" fill="#000000" transform="matrix(0.0833333 0 0 0.0833333 -13.25 -57.1667)" d="M 8925.35,2026 L 9048,2006 L 9265.21,2606.97 L 9259.89,2621.58 L 9234.25,2595.23 L 8925.35,2026 Z " />
<path stroke="transparent" fill="#000000" transform="matrix(0.0833333 0 0 0.0833333 -13.25 -57.1667)" d="M 8616,2026 L 8616,2006 L 9048,2006 L 8925.35,2026 L 8616,2026 Z " />
<path stroke="transparent" fill="#000000" transform="matrix(0.0833333 0 0 0.0833333 -13.25 -57.1667)" d="M 8401.74,2099.98 L 8510.16,2151.42 L 8248.59,2593.91 L 8220.66,2621.58 L 8215.41,2607 L 8401.74,2099.98 Z " />
<path stroke="transparent" fill="#000000" transform="matrix(0.0833333 0 0 0.0833333 -13.25 -57.1667)" d="M 9716.89,3416.15 L 9656.89,3520.07 L 9259.34,3233.45 L 9259.89,3221.58 L 9269.89,3215.17 L 9716.89,3416.15 Z " />
<path stroke="transparent" fill="#000000" transform="matrix(0.0833333 0 0 0.0833333 -13.25 -57.1667)" d="M 8280.66,3821.58 L 8160.66,3821.58 L 8162.49,3801.58 L 8278.83,3801.58 L 8280.66,3821.58 Z " />
<path stroke="transparent" fill="#000000" transform="matrix(0.0833333 0 0 0.0833333 -13.25 -57.1667)" d="M 8275.31,3763.14 L 8166.01,3763.14 L 8167.85,3743.14 L 8273.48,3743.14 L 8275.31,3763.14 Z " />
<path stroke="transparent" fill="#000000" transform="matrix(0.0833333 0 0 0.0833333 -13.25 -57.1667)" d="M 8269.96,3704.69 L 8171.37,3704.69 L 8173.2,3684.69 L 8268.13,3684.69 L 8269.96,3704.69 Z " />
<path stroke="transparent" fill="#000000" transform="matrix(0.0833333 0 0 0.0833333 -13.25 -57.1667)" d="M 8264.61,3646.25 L 8176.72,3646.25 L 8178.55,3626.25 L 8262.77,3626.25 L 8264.61,3646.25 Z " />
<path stroke="transparent" fill="#000000" transform="matrix(0.0833333 0 0 0.0833333 -13.25 -57.1667)" d="M 8259.25,3587.81 L 8182.07,3587.81 L 8183.9,3567.81 L 8257.42,3567.81 L 8259.25,3587.81 Z " />
<path stroke="transparent" fill="#000000" transform="matrix(0.0833333 0 0 0.0833333 -13.25 -57.1667)" d="M 8253.9,3529.36 L 8187.42,3529.36 L 8189.25,3509.36 L 8252.07,3509.36 L 8253.9,3529.36 Z " />
<path stroke="transparent" fill="#000000" transform="matrix(0.0833333 0 0 0.0833333 -13.25 -57.1667)" d="M 8248.55,3470.92 L 8192.77,3470.92 L 8194.61,3450.92 L 8246.72,3450.92 L 8248.55,3470.92 Z " />
<path stroke="transparent" fill="#000000" transform="matrix(0.0833333 0 0 0.0833333 -13.25 -57.1667)" d="M 8243.2,3412.47 L 8198.13,3412.47 L 8199.96,3392.47 L 8241.37,3392.47 L 8243.2,3412.47 Z " />
<path stroke="transparent" fill="#000000" transform="matrix(0.0833333 0 0 0.0833333 -13.25 -57.1667)" d="M 8237.85,3354.03 L 8203.48,3354.03 L 8205.31,3334.03 L 8236.01,3334.03 L 8237.85,3354.03 Z " />
<path stroke="transparent" fill="#000000" transform="matrix(0.0833333 0 0 0.0833333 -13.25 -57.1667)" d="M 8232.49,3295.58 L 8208.83,3295.58 L 8210.66,3275.58 L 8230.66,3275.58 L 8232.49,3295.58 Z " />
<path stroke="transparent" fill="#000000" transform="matrix(0.0833333 0 0 0.0833333 -13.25 -57.1667)" d="M 7641.05,2921.58 L 7761.05,2921.58 L 7712.56,3503.39 L 7701.05,3521.58 L 7689.53,3503.39 L 7641.05,2921.58 Z " />
<path stroke="transparent" fill="#000000" transform="matrix(0.0833333 0 0 0.0833333 -13.25 -57.1667)" d="M 6601.82,2921.58 L 6721.82,2921.58 L 6673.33,3503.39 L 6661.82,3521.58 L 6650.3,3503.39 L 6601.82,2921.58 Z " />
<path stroke="transparent" fill="#000000" transform="matrix(0.0833333 0 0 0.0833333 -13.25 -57.1667)" d="M 3101.35,4446.5 L 3041.35,4342.58 L 3059.69,4334.34 L 3117.66,4434.74 L 3101.35,4446.5 Z " />
<path stroke="transparent" fill="#000000" transform="matrix(0.0833333 0 0 0.0833333 -13.25 -57.1667)" d="M 3149.43,4411.82 L 3095.43,4318.28 L 3113.76,4310.04 L 3165.74,4400.06 L 3149.43,4411.82 Z " />
<path stroke="transparent" fill="#000000" transform="matrix(0.0833333 0 0 0.0833333 -13.25 -57.1667)" d="M 3197.51,4377.14 L 3149.5,4293.98 L 3167.84,4285.75 L 3213.81,4365.38 L 3197.51,4377.14 Z " />
<path stroke="transparent" fill="#000000" transform="matrix(0.0833333 0 0 0.0833333 -13.25 -57.1667)" d="M 3245.59,4342.46 L 3203.57,4269.69 L 3221.91,4261.45 L 3261.89,4330.7 L 3245.59,4342.46 Z " />
<path stroke="transparent" fill="#000000" transform="matrix(0.0833333 0 0 0.0833333 -13.25 -57.1667)" d="M 3293.67,4307.77 L 3257.65,4245.39 L 3275.99,4237.15 L 3309.97,4296.01 L 3293.67,4307.77 Z " />
<path stroke="transparent" fill="#000000" transform="matrix(0.0833333 0 0 0.0833333 -13.25 -57.1667)" d="M 3341.74,4273.09 L 3311.72,4221.1 L 3330.06,4212.86 L 3358.05,4261.33 L 3341.74,4273.09 Z " />
<path stroke="transparent" fill="#000000" transform="matrix(0.0833333 0 0 0.0833333 -13.25 -57.1667)" d="M 3389.82,4238.41 L 3365.8,4196.8 L 3384.13,4188.56 L 3406.13,4226.65 L 3389.82,4238.41 Z " />
<path stroke="transparent" fill="#000000" transform="matrix(0.0833333 0 0 0.0833333 -13.25 -57.1667)" d="M 3437.9,4203.73 L 3419.87,4172.5 L 3438.21,4164.26 L 3454.2,4191.97 L 3437.9,4203.73 Z " />
<path stroke="transparent" fill="#000000" transform="matrix(0.0833333 0 0 0.0833333 -13.25 -57.1667)" d="M 3485.98,4169.05 L 3473.94,4148.21 L 3492.28,4139.97 L 3502.28,4157.29 L 3485.98,4169.05 Z " />
<path stroke="transparent" fill="#000000" transform="matrix(0.0833333 0 0 0.0833333 -13.25 -57.1667)" d="M 3034.51,4916.42 L 3014.51,4916.42 L 3014.51,4421.58 L 3034.51,4421.58 L 3034.51,4916.42 Z " />
<path stroke="transparent" fill="#000000" transform="matrix(0.0833333 0 0 0.0833333 -13.25 -57.1667)" d="M 2514.89,5328.01 L 2504.89,5321.58 L 2504.33,5309.71 L 2894.91,5027.13 L 2954.91,5131.05 L 2514.89,5328.01 Z " />
<path stroke="transparent" fill="#000000" transform="matrix(0.0833333 0 0 0.0833333 -13.25 -57.1667)" d="M 2514.89,5927.36 L 2494.89,5915.81 L 2494.89,5327.36 L 2504.89,5321.58 L 2514.89,5328.01 L 2514.89,5927.36 Z " />
<path stroke="transparent" fill="#000000" transform="matrix(0.0833333 0 0 0.0833333 -13.25 -57.1667)" d="M 1995.83,6227.04 L 1985.28,6221.58 L 1985.28,6210.04 L 2494.89,5915.81 L 2514.89,5927.36 L 1995.83,6227.04 Z " />
<path stroke="transparent" fill="#000000" transform="matrix(0.0833333 0 0 0.0833333 -13.25 -57.1667)" d="M 1455.66,5927.36 L 1475.66,5915.81 L 1985.28,6210.04 L 1985.28,6221.58 L 1974.73,6227.04 L 1455.66,5927.36 Z " />
<path stroke="transparent" fill="#000000" transform="matrix(0.0833333 0 0 0.0833333 -13.25 -57.1667)" d="M 1455.66,5327.89 L 1465.66,5321.58 L 1475.66,5327.36 L 1475.66,5915.81 L 1455.66,5927.36 L 1455.66,5327.89 Z " />
<path stroke="transparent" fill="#000000" transform="matrix(0.0833333 0 0 0.0833333 -13.25 -57.1667)" d="M 1880.68,5070.43 L 1890.68,5087.75 L 1475.66,5327.36 L 1465.66,5321.58 L 1466.12,5309.77 L 1880.68,5070.43 Z " />
<path stroke="transparent" fill="#000000" transform="matrix(0.0833333 0 0 0.0833333 -13.25 -57.1667)" d="M 2080.32,5088 L 2090.32,5070.68 L 2504.33,5309.71 L 2504.89,5321.58 L 2494.89,5327.36 L 2080.32,5088 Z " />
<path stroke="transparent" fill="#000000" transform="matrix(0.0833333 0 0 0.0833333 -13.25 -57.1667)" d="M 894.027,5063.17 L 994.213,4982.23 L 1466.12,5309.77 L 1465.66,5321.58 L 1455.66,5327.89 L 894.027,5063.17 Z " />
<path stroke="transparent" fill="#000000" transform="matrix(0.0833333 0 0 0.0833333 -13.25 -57.1667)" d="M 524.044,5276.77 L 514.044,5259.45 L 994.213,4982.23 L 894.027,5063.17 L 524.044,5276.77 Z " />
<path stroke="transparent" fill="#000000" transform="matrix(0.0833333 0 0 0.0833333 -13.25 -57.1667)" d="M 1068.66,6220.08 L 1008.66,6116.15 L 1027.12,6108.13 L 1084.84,6208.1 L 1068.66,6220.08 Z " />
<path stroke="transparent" fill="#000000" transform="matrix(0.0833333 0 0 0.0833333 -13.25 -57.1667)" d="M 1117.1,6184.24 L 1063.91,6092.12 L 1082.37,6084.1 L 1133.28,6172.27 L 1117.1,6184.24 Z " />
<path stroke="transparent" fill="#000000" transform="matrix(0.0833333 0 0 0.0833333 -13.25 -57.1667)" d="M 1165.53,6148.4 L 1119.17,6068.1 L 1137.63,6060.07 L 1181.71,6136.43 L 1165.53,6148.4 Z " />
<path stroke="transparent" fill="#000000" transform="matrix(0.0833333 0 0 0.0833333 -13.25 -57.1667)" d="M 1213.97,6112.57 L 1174.42,6044.07 L 1192.88,6036.04 L 1230.15,6100.59 L 1213.97,6112.57 Z " />
<path stroke="transparent" fill="#000000" transform="matrix(0.0833333 0 0 0.0833333 -13.25 -57.1667)" d="M 1262.4,6076.73 L 1229.67,6020.04 L 1248.13,6012.01 L 1278.58,6064.76 L 1262.4,6076.73 Z " />
<path stroke="transparent" fill="#000000" transform="matrix(0.0833333 0 0 0.0833333 -13.25 -57.1667)" d="M 1310.84,6040.89 L 1284.93,5996.01 L 1303.39,5987.98 L 1327.02,6028.92 L 1310.84,6040.89 Z " />
<path stroke="transparent" fill="#000000" transform="matrix(0.0833333 0 0 0.0833333 -13.25 -57.1667)" d="M 1359.28,6005.06 L 1340.18,5971.98 L 1358.64,5963.95 L 1375.46,5993.08 L 1359.28,6005.06 Z " />
<path stroke="transparent" fill="#000000" transform="matrix(0.0833333 0 0 0.0833333 -13.25 -57.1667)" d="M 1407.71,5969.22 L 1395.43,5947.95 L 1413.89,5939.93 L 1423.89,5957.25 L 1407.71,5969.22 Z " />
<path stroke="transparent" fill="#000000" transform="matrix(0.0833333 0 0 0.0833333 -13.25 -57.1667)" d="M 2045.28,6716.42 L 1925.28,6716.42 L 1974.73,6227.04 L 1985.28,6221.58 L 1995.83,6227.04 L 2045.28,6716.42 Z " />
<path stroke="transparent" fill="#000000" transform="matrix(0.0833333 0 0 0.0833333 -13.25 -57.1667)" d="M 2961.89,6116.15 L 2901.89,6220.07 L 2885.71,6208.1 L 2943.43,6108.12 L 2961.89,6116.15 Z " />
<path stroke="transparent" fill="#000000" transform="matrix(0.0833333 0 0 0.0833333 -13.25 -57.1667)" d="M 2906.64,6092.12 L 2853.46,6184.24 L 2837.27,6172.26 L 2888.18,6084.09 L 2906.64,6092.12 Z " />
<path stroke="transparent" fill="#000000" transform="matrix(0.0833333 0 0 0.0833333 -13.25 -57.1667)" d="M 2851.39,6068.09 L 2805.02,6148.4 L 2788.84,6136.43 L 2832.93,6060.07 L 2851.39,6068.09 Z " />
<path stroke="transparent" fill="#000000" transform="matrix(0.0833333 0 0 0.0833333 -13.25 -57.1667)" d="M 2796.13,6044.06 L 2756.59,6112.56 L 2740.4,6100.59 L 2777.67,6036.04 L 2796.13,6044.06 Z " />
<path stroke="transparent" fill="#000000" transform="matrix(0.0833333 0 0 0.0833333 -13.25 -57.1667)" d="M 2740.88,6020.04 L 2708.15,6076.73 L 2691.97,6064.75 L 2722.42,6012.01 L 2740.88,6020.04 Z " />
<path stroke="transparent" fill="#000000" transform="matrix(0.0833333 0 0 0.0833333 -13.25 -57.1667)" d="M 2685.63,5996.01 L 2659.72,6040.89 L 2643.53,6028.92 L 2667.17,5987.98 L 2685.63,5996.01 Z " />
<path stroke="transparent" fill="#000000" transform="matrix(0.0833333 0 0 0.0833333 -13.25 -57.1667)" d="M 2630.38,5971.98 L 2611.28,6005.06 L 2595.1,5993.08 L 2611.92,5963.95 L 2630.38,5971.98 Z " />
<path stroke="transparent" fill="#000000" transform="matrix(0.0833333 0 0 0.0833333 -13.25 -57.1667)" d="M 2575.12,5947.95 L 2562.85,5969.22 L 2546.66,5957.25 L 2556.66,5939.93 L 2575.12,5947.95 Z " />
<path stroke="transparent" fill="#000000" transform="matrix(0.0833333 0 0 0.0833333 -13.25 -57.1667)" d="M 2107.89,2620.08 L 2047.89,2516.15 L 2066.35,2508.13 L 2124.07,2608.1 L 2107.89,2620.08 Z " />
<path stroke="transparent" fill="#000000" transform="matrix(0.0833333 0 0 0.0833333 -13.25 -57.1667)" d="M 2156.33,2584.24 L 2103.14,2492.12 L 2121.6,2484.1 L 2172.51,2572.27 L 2156.33,2584.24 Z " />
<path stroke="transparent" fill="#000000" transform="matrix(0.0833333 0 0 0.0833333 -13.25 -57.1667)" d="M 2204.76,2548.4 L 2158.4,2468.1 L 2176.86,2460.07 L 2220.94,2536.43 L 2204.76,2548.4 Z " />
<path stroke="transparent" fill="#000000" transform="matrix(0.0833333 0 0 0.0833333 -13.25 -57.1667)" d="M 2253.2,2512.57 L 2213.65,2444.07 L 2232.11,2436.04 L 2269.38,2500.59 L 2253.2,2512.57 Z " />
<path stroke="transparent" fill="#000000" transform="matrix(0.0833333 0 0 0.0833333 -13.25 -57.1667)" d="M 2301.63,2476.73 L 2268.9,2420.04 L 2287.36,2412.01 L 2317.82,2464.76 L 2301.63,2476.73 Z " />
<path stroke="transparent" fill="#000000" transform="matrix(0.0833333 0 0 0.0833333 -13.25 -57.1667)" d="M 2350.07,2440.89 L 2324.16,2396.01 L 2342.62,2387.98 L 2366.25,2428.92 L 2350.07,2440.89 Z " />
<path stroke="transparent" fill="#000000" transform="matrix(0.0833333 0 0 0.0833333 -13.25 -57.1667)" d="M 2398.51,2405.06 L 2379.41,2371.98 L 2397.87,2363.95 L 2414.69,2393.08 L 2398.51,2405.06 Z " />
<path stroke="transparent" fill="#000000" transform="matrix(0.0833333 0 0 0.0833333 -13.25 -57.1667)" d="M 2446.94,2369.22 L 2434.66,2347.95 L 2453.12,2339.93 L 2463.12,2357.25 L 2446.94,2369.22 Z " />
<path stroke="transparent" fill="#000000" transform="matrix(0.0833333 0 0 0.0833333 -13.25 -57.1667)" d="M 2055.31,1531.3 L 2115.31,1427.37 L 2131.47,1439.39 L 2073.79,1539.28 L 2055.31,1531.3 Z " />
<path stroke="transparent" fill="#000000" transform="matrix(0.0833333 0 0 0.0833333 -13.25 -57.1667)" d="M 2109.49,1554.72 L 2162.68,1462.59 L 2178.84,1474.6 L 2127.97,1562.7 L 2109.49,1554.72 Z " />
<path stroke="transparent" fill="#000000" transform="matrix(0.0833333 0 0 0.0833333 -13.25 -57.1667)" d="M 2163.68,1578.13 L 2210.05,1497.8 L 2226.21,1509.82 L 2182.16,1586.12 L 2163.68,1578.13 Z " />
<path stroke="transparent" fill="#000000" transform="matrix(0.0833333 0 0 0.0833333 -13.25 -57.1667)" d="M 2217.86,1601.55 L 2257.43,1533.02 L 2273.59,1545.03 L 2236.34,1609.54 L 2217.86,1601.55 Z " />
<path stroke="transparent" fill="#000000" transform="matrix(0.0833333 0 0 0.0833333 -13.25 -57.1667)" d="M 2272.05,1624.97 L 2304.8,1568.24 L 2320.96,1580.25 L 2290.53,1632.96 L 2272.05,1624.97 Z " />
<path stroke="transparent" fill="#000000" transform="matrix(0.0833333 0 0 0.0833333 -13.25 -57.1667)" d="M 2326.23,1648.39 L 2352.18,1603.45 L 2368.33,1615.46 L 2344.71,1656.38 L 2326.23,1648.39 Z " />
<path stroke="transparent" fill="#000000" transform="matrix(0.0833333 0 0 0.0833333 -13.25 -57.1667)" d="M 2380.41,1671.81 L 2399.55,1638.67 L 2415.71,1650.68 L 2398.9,1679.8 L 2380.41,1671.81 Z " />
<path stroke="transparent" fill="#000000" transform="matrix(0.0833333 0 0 0.0833333 -13.25 -57.1667)" d="M 2434.6,1695.23 L 2446.92,1673.88 L 2463.08,1685.9 L 2453.08,1703.22 L 2434.6,1695.23 Z " />
<path stroke="transparent" fill="#000000" transform="matrix(0.0833333 0 0 0.0833333 -13.25 -57.1667)" d="M 2964.51,941.417 L 3084.51,941.417 L 3035.08,1416.14 L 3024.51,1421.58 L 3013.94,1416.14 L 2964.51,941.417 Z " />
<text x="0" y="0" stroke="transparent" fill="#000000" transform="matrix(0.0833333 0 0 0.0833333 535.901 342.799)" style="font:normal normal normal 200px 'Arial'" >
H</text>
<path stroke="transparent" fill="#000000" transform="matrix(0.0833333 0 0 0.0833333 -13.25 -57.1667)" d="M 6721.82,4618.92 L 6601.82,4618.92 L 6604.07,4598.92 L 6719.56,4598.92 L 6721.82,4618.92 Z " />
<path stroke="transparent" fill="#000000" transform="matrix(0.0833333 0 0 0.0833333 -13.25 -57.1667)" d="M 6715,4558.45 L 6608.64,4558.45 L 6610.89,4538.45 L 6712.74,4538.45 L 6715,4558.45 Z " />
<path stroke="transparent" fill="#000000" transform="matrix(0.0833333 0 0 0.0833333 -13.25 -57.1667)" d="M 6708.18,4497.97 L 6615.46,4497.97 L 6617.71,4477.97 L 6705.92,4477.97 L 6708.18,4497.97 Z " />
<path stroke="transparent" fill="#000000" transform="matrix(0.0833333 0 0 0.0833333 -13.25 -57.1667)" d="M 6701.35,4437.5 L 6622.28,4437.5 L 6624.53,4417.5 L 6699.1,4417.5 L 6701.35,4437.5 Z " />
<path stroke="transparent" fill="#000000" transform="matrix(0.0833333 0 0 0.0833333 -13.25 -57.1667)" d="M 6694.53,4377.03 L 6629.1,4377.03 L 6631.35,4357.03 L 6692.28,4357.03 L 6694.53,4377.03 Z " />
<path stroke="transparent" fill="#000000" transform="matrix(0.0833333 0 0 0.0833333 -13.25 -57.1667)" d="M 6687.71,4316.56 L 6635.92,4316.56 L 6638.18,4296.56 L 6685.46,4296.56 L 6687.71,4316.56 Z " />
<path stroke="transparent" fill="#000000" transform="matrix(0.0833333 0 0 0.0833333 -13.25 -57.1667)" d="M 6680.89,4256.09 L 6642.74,4256.09 L 6645,4236.09 L 6678.64,4236.09 L 6680.89,4256.09 Z " />
<path stroke="transparent" fill="#000000" transform="matrix(0.0833333 0 0 0.0833333 -13.25 -57.1667)" d="M 6674.07,4195.62 L 6649.56,4195.62 L 6651.82,4175.62 L 6671.82,4175.62 L 6674.07,4195.62 Z " />
<text x="0" y="0" stroke="transparent" fill="#000000" transform="matrix(0.0833333 0 0 0.0833333 579.203 267.799)" style="font:normal normal normal 200px 'Arial'" >
H</text>
<path stroke="transparent" fill="#000000" transform="matrix(0.0833333 0 0 0.0833333 -13.25 -57.1667)" d="M 7241.43,3718.92 L 7121.43,3718.92 L 7123.69,3698.92 L 7239.18,3698.92 L 7241.43,3718.92 Z " />
<path stroke="transparent" fill="#000000" transform="matrix(0.0833333 0 0 0.0833333 -13.25 -57.1667)" d="M 7234.61,3658.45 L 7128.25,3658.45 L 7130.51,3638.45 L 7232.36,3638.45 L 7234.61,3658.45 Z " />
<path stroke="transparent" fill="#000000" transform="matrix(0.0833333 0 0 0.0833333 -13.25 -57.1667)" d="M 7227.79,3597.97 L 7135.07,3597.97 L 7137.33,3577.97 L 7225.53,3577.97 L 7227.79,3597.97 Z " />
<path stroke="transparent" fill="#000000" transform="matrix(0.0833333 0 0 0.0833333 -13.25 -57.1667)" d="M 7220.97,3537.5 L 7141.89,3537.5 L 7144.15,3517.5 L 7218.71,3517.5 L 7220.97,3537.5 Z " />
<path stroke="transparent" fill="#000000" transform="matrix(0.0833333 0 0 0.0833333 -13.25 -57.1667)" d="M 7214.15,3477.03 L 7148.71,3477.03 L 7150.97,3457.03 L 7211.89,3457.03 L 7214.15,3477.03 Z " />
<path stroke="transparent" fill="#000000" transform="matrix(0.0833333 0 0 0.0833333 -13.25 -57.1667)" d="M 7207.33,3416.56 L 7155.53,3416.56 L 7157.79,3396.56 L 7205.07,3396.56 L 7207.33,3416.56 Z " />
<path stroke="transparent" fill="#000000" transform="matrix(0.0833333 0 0 0.0833333 -13.25 -57.1667)" d="M 7200.51,3356.09 L 7162.36,3356.09 L 7164.61,3336.09 L 7198.25,3336.09 L 7200.51,3356.09 Z " />
<path stroke="transparent" fill="#000000" transform="matrix(0.0833333 0 0 0.0833333 -13.25 -57.1667)" d="M 7193.69,3295.62 L 7169.18,3295.62 L 7171.43,3275.62 L 7191.43,3275.62 L 7193.69,3295.62 Z " />
<text x="0" y="0" stroke="transparent" fill="#000000" transform="matrix(0.0833333 0 0 0.0833333 709.106 192.799)" style="font:normal normal normal 200px 'Arial'" >
H</text>
<path stroke="transparent" fill="#000000" transform="matrix(0.0833333 0 0 0.0833333 -13.25 -57.1667)" d="M 8800.28,2818.92 L 8680.28,2818.92 L 8728.43,2339.97 L 8740.28,2321.58 L 8752.13,2339.97 L 8800.28,2818.92 Z " />
</svg>
