<?xml version="1.0" standalone="no" ?>
<!DOCTYPE svg PUBLIC "-//W3C//DTD SVG 1.1//EN" "http://www.w3.org/Graphics/SVG/1.1/DTD/svg11.dtd">
<svg width="146px" height="133px" viewBox="0 0 146 133" style="background-color: #ffffff00" xmlns="http://www.w3.org/2000/svg" xmlns:xlink="http://www.w3.org/1999/xlink" version="1.1" >
<text x="0" y="0" stroke="none" fill="#000000" transform="matrix(0.0666667 0 0 0.0666667 33.2744 14.3534)" font-style="normal" font-weight="normal" font-size="200px" font-family="Arial" >
OH</text>
<text x="0" y="0" stroke="none" fill="#000000" transform="matrix(0.0666667 0 0 0.0666667 102.552 54.3522)" font-style="normal" font-weight="normal" font-size="200px" font-family="Arial" >
O</text>
<path stroke="none" fill="#000000" transform="matrix(0.0666667 0 0 0.0666667 -275.853 -218)" d="M 4205.3,4313.05 L 4185.3,4301.5 L 4704.92,4001.51 L 4714.92,4007.28 L 4714.92,4018.83 L 4205.3,4313.05 Z " />
<path stroke="none" fill="#000000" transform="matrix(0.0666667 0 0 0.0666667 -275.853 -218)" d="M 4272.3,4357.5 L 4262.3,4340.18 L 4709.92,4081.76 L 4719.92,4099.08 L 4272.3,4357.5 Z " />
<path stroke="none" fill="#000000" transform="matrix(0.0666667 0 0 0.0666667 -275.853 -218)" d="M 5234.54,4295.73 L 5234.54,4307.27 L 5224.54,4313.05 L 4714.92,4018.83 L 4714.92,4007.28 L 4724.92,4001.51 L 5234.54,4295.73 Z " />
<path stroke="none" fill="#000000" transform="matrix(0.0666667 0 0 0.0666667 -275.853 -218)" d="M 4205.3,4901.55 L 4185.3,4913.1 L 4185.3,4301.5 L 4205.3,4313.05 L 4205.3,4901.55 Z " />
<path stroke="none" fill="#000000" transform="matrix(0.0666667 0 0 0.0666667 -275.853 -218)" d="M 4714.92,5195.77 L 4714.92,5218.87 L 4185.3,4913.1 L 4205.3,4901.55 L 4714.92,5195.77 Z " />
<path stroke="none" fill="#000000" transform="matrix(0.0666667 0 0 0.0666667 -275.853 -218)" d="M 4719.92,5115.52 L 4709.92,5132.84 L 4262.3,4874.42 L 4272.3,4857.1 L 4719.92,5115.52 Z " />
<path stroke="none" fill="#000000" transform="matrix(0.0666667 0 0 0.0666667 -275.853 -218)" d="M 5224.54,4901.55 L 5244.54,4913.1 L 4714.92,5218.87 L 4714.92,5195.77 L 5224.54,4901.55 Z " />
<path stroke="none" fill="#000000" transform="matrix(0.0666667 0 0 0.0666667 -275.853 -218)" d="M 5224.54,4313.05 L 5234.54,4307.27 L 5244.54,4313.05 L 5244.54,4913.1 L 5224.54,4901.55 L 5224.54,4313.05 Z " />
<path stroke="none" fill="#000000" transform="matrix(0.0666667 0 0 0.0666667 -275.853 -218)" d="M 5152.53,4348.85 L 5172.53,4348.85 L 5172.53,4865.75 L 5152.53,4865.75 L 5152.53,4348.85 Z " />
<path stroke="none" fill="#000000" transform="matrix(0.0666667 0 0 0.0666667 -275.853 -218)" d="M 4704.92,3527.13 L 4724.92,3527.13 L 4724.92,4001.51 L 4714.92,4007.28 L 4704.92,4001.51 L 4704.92,3527.13 Z " />
<path stroke="none" fill="#000000" transform="matrix(0.0666667 0 0 0.0666667 -275.853 -218)" d="M 5649.48,4056.13 L 5659.48,4073.45 L 5244.54,4313.05 L 5234.54,4307.27 L 5234.54,4295.73 L 5649.48,4056.13 Z " />
<path stroke="none" fill="#000000" transform="matrix(0.0666667 0 0 0.0666667 -275.853 -218)" d="M 6278.7,4298.61 L 6268.71,4315.93 L 5849.12,4073.7 L 5859.12,4056.38 L 6278.7,4298.61 Z " />
</svg>
