<?xml version="1.0" standalone="no" ?>
<!DOCTYPE svg PUBLIC "-//W3C//DTD SVG 1.1//EN" "http://www.w3.org/Graphics/SVG/1.1/DTD/svg11.dtd">
<svg width="208px" height="287px" viewBox="0 0 208 287" style="background-color: #ffffff00" xmlns="http://www.w3.org/2000/svg" xmlns:xlink="http://www.w3.org/1999/xlink" version="1.1" >
<text x="0" y="0" stroke="transparent" fill="#000000" transform="matrix(0.0666667 0 0 0.0666667 105.554 218.45)" style="font:normal normal normal 200px 'Arial'" >
O</text>
<text x="0" y="0" stroke="transparent" fill="#000000" transform="matrix(0.0666667 0 0 0.0666667 71.217 229.258)" style="font:normal normal normal 200px 'Arial'" >
O</text>
<text x="0" y="0" stroke="transparent" fill="#000000" transform="matrix(0.0666667 0 0 0.0666667 91.1879 128.7)" style="font:normal normal normal 200px 'Arial'" >
O</text>
<text x="0" y="0" stroke="transparent" fill="#000000" transform="matrix(0.0666667 0 0 0.0666667 52.6182 179.435)" style="font:normal normal normal 200px 'Arial'" >
O</text>
<text x="0" y="0" stroke="transparent" fill="#000000" transform="matrix(0.0666667 0 0 0.0666667 125.83 68.6999)" style="font:normal normal normal 200px 'Arial'" >
O</text>
<text x="0" y="0" stroke="transparent" fill="#000000" transform="matrix(0.0666667 0 0 0.0666667 131.19 268.39)" style="font:normal normal normal 200px 'Arial'" >
H</text>
<text x="0" y="0" stroke="transparent" fill="#000000" transform="matrix(0.0666667 0 0 0.0666667 195.51 148.7)" style="font:normal normal normal 200px 'Arial'" >
H</text>
<text x="0" y="0" stroke="transparent" fill="#000000" transform="matrix(0.0666667 0 0 0.0666667 59.7382 144.501)" style="font:normal normal normal 200px 'Arial'" >
H</text>
<path stroke="transparent" fill="#000000" transform="matrix(0.0666667 0 0 0.0666667 -244.853 -250)" d="M 4924.22,7088.25 L 4918.21,7069.17 L 5224.41,6972.8 L 5230.41,6991.88 L 4924.22,7088.25 Z " />
<path stroke="transparent" fill="#000000" transform="matrix(0.0666667 0 0 0.0666667 -244.853 -250)" d="M 4740.38,7016.86 L 4697.83,7129.06 L 4339.78,6943.84 L 4314.11,6919.37 L 4327.68,6912.56 L 4740.38,7016.86 Z " />
<path stroke="transparent" fill="#000000" transform="matrix(0.0666667 0 0 0.0666667 -244.853 -250)" d="M 4620.32,7429.7 L 4607.89,7448.17 L 4308.34,6929.37 L 4314.11,6919.37 L 4339.78,6943.84 L 4620.32,7429.7 Z " />
<path stroke="transparent" fill="#000000" transform="matrix(0.0666667 0 0 0.0666667 -244.853 -250)" d="M 5204.96,7510.62 L 5211.91,7531.77 L 4607.89,7448.17 L 4620.32,7429.7 L 5204.96,7510.62 Z " />
<path stroke="transparent" fill="#000000" transform="matrix(0.0666667 0 0 0.0666667 -244.853 -250)" d="M 5628.26,7098.28 L 5638.26,7102.5 L 5628.86,7125.61 L 5211.91,7531.77 L 5204.96,7510.62 L 5628.26,7098.28 Z " />
<path stroke="transparent" fill="#000000" transform="matrix(0.0666667 0 0 0.0666667 -244.853 -250)" d="M 5628.26,6542.92 L 5638.26,6502.5 L 5648.26,6508.27 L 5648.26,7096.73 L 5638.26,7102.5 L 5628.26,7098.28 L 5628.26,6542.92 Z " />
<path stroke="transparent" fill="#000000" transform="matrix(0.0666667 0 0 0.0666667 -244.853 -250)" d="M 5443.67,6894.54 L 5344.51,6826.96 L 5622.84,6505.14 L 5638.26,6502.5 L 5628.26,6542.92 L 5443.67,6894.54 Z " />
<path stroke="transparent" fill="#000000" transform="matrix(0.0666667 0 0 0.0666667 -244.853 -250)" d="M 6667.46,7096.73 L 6687.46,7108.27 L 6168.28,7408.01 L 6157.82,7402.5 L 6157.82,7390.95 L 6667.46,7096.73 Z " />
<path stroke="transparent" fill="#000000" transform="matrix(0.0666667 0 0 0.0666667 -244.853 -250)" d="M 6667.46,6508.27 L 6687.46,6496.73 L 6687.46,7108.27 L 6667.46,7096.73 L 6667.46,6508.27 Z " />
<path stroke="transparent" fill="#000000" transform="matrix(0.0666667 0 0 0.0666667 -244.853 -250)" d="M 6157.82,6214.05 L 6157.82,6202.5 L 6179.77,6203.62 L 6687.46,6496.73 L 6667.46,6508.27 L 6157.82,6214.05 Z " />
<path stroke="transparent" fill="#000000" transform="matrix(0.0666667 0 0 0.0666667 -244.853 -250)" d="M 5648.26,6508.27 L 5638.26,6502.5 L 5638.26,6490.95 L 6147.82,6196.73 L 6157.82,6202.5 L 6157.82,6214.05 L 5648.26,6508.27 Z " />
<path stroke="transparent" fill="#000000" transform="matrix(0.0666667 0 0 0.0666667 -244.853 -250)" d="M 5653.05,7122.59 L 5638.26,7102.5 L 5648.26,7096.73 L 6157.82,7390.95 L 6157.82,7402.5 L 6147.36,7408.01 L 5653.05,7122.59 Z " />
<path stroke="transparent" fill="#000000" transform="matrix(0.0666667 0 0 0.0666667 -244.853 -250)" d="M 5638.26,5314.05 L 5638.26,5290.95 L 6167.82,5596.73 L 6147.82,5608.27 L 5638.26,5314.05 Z " />
<path stroke="transparent" fill="#000000" transform="matrix(0.0666667 0 0 0.0666667 -244.853 -250)" d="M 5216.24,5557.69 L 5206.24,5540.37 L 5638.26,5290.95 L 5638.26,5314.05 L 5216.24,5557.69 Z " />
<path stroke="transparent" fill="#000000" transform="matrix(0.0666667 0 0 0.0666667 -244.853 -250)" d="M 5108.62,5722.33 L 5128.62,5722.33 L 5128.62,6196.73 L 5118.62,6202.5 L 5108.62,6194.9 L 5108.62,5722.33 Z " />
<path stroke="transparent" fill="#000000" transform="matrix(0.0666667 0 0 0.0666667 -244.853 -250)" d="M 6167.82,6182.93 L 6157.82,6202.5 L 6147.82,6196.73 L 6147.82,5608.27 L 6167.82,5596.73 L 6167.82,6182.93 Z " />
<path stroke="transparent" fill="#000000" transform="matrix(0.0666667 0 0 0.0666667 -244.853 -250)" d="M 5638.26,6490.95 L 5638.26,6502.5 L 5622.84,6505.14 L 5117.26,6213.26 L 5118.62,6202.5 L 5128.62,6196.73 L 5638.26,6490.95 Z " />
<path stroke="transparent" fill="#000000" transform="matrix(0.0666667 0 0 0.0666667 -244.853 -250)" d="M 4484.97,6472.51 L 4503.5,6480.04 L 4327.68,6912.56 L 4314.11,6919.37 L 4307.38,6909.37 L 4484.97,6472.51 Z " />
<path stroke="transparent" fill="#000000" transform="matrix(0.0666667 0 0 0.0666667 -244.853 -250)" d="M 4645.95,6344.43 L 4640.58,6325.16 L 5108.62,6194.9 L 5118.62,6202.5 L 5117.26,6213.26 L 4645.95,6344.43 Z " />
<path stroke="transparent" fill="#000000" transform="matrix(0.0666667 0 0 0.0666667 -244.853 -250)" d="M 6647.46,5250.54 L 6707.46,5354.46 L 6689.22,5362.88 L 6631.05,5262.12 L 6647.46,5250.54 Z " />
<path stroke="transparent" fill="#000000" transform="matrix(0.0666667 0 0 0.0666667 -244.853 -250)" d="M 6599.52,5284.39 L 6654.16,5379.05 L 6635.93,5387.46 L 6583.11,5295.98 L 6599.52,5284.39 Z " />
<path stroke="transparent" fill="#000000" transform="matrix(0.0666667 0 0 0.0666667 -244.853 -250)" d="M 6551.58,5318.25 L 6600.87,5403.64 L 6582.63,5412.05 L 6535.17,5329.84 L 6551.58,5318.25 Z " />
<path stroke="transparent" fill="#000000" transform="matrix(0.0666667 0 0 0.0666667 -244.853 -250)" d="M 6503.64,5352.11 L 6547.58,5428.22 L 6529.34,5436.64 L 6487.23,5363.7 L 6503.64,5352.11 Z " />
<path stroke="transparent" fill="#000000" transform="matrix(0.0666667 0 0 0.0666667 -244.853 -250)" d="M 6455.7,5385.97 L 6494.29,5452.81 L 6476.05,5461.22 L 6439.29,5397.55 L 6455.7,5385.97 Z " />
<path stroke="transparent" fill="#000000" transform="matrix(0.0666667 0 0 0.0666667 -244.853 -250)" d="M 6407.75,5419.82 L 6440.99,5477.4 L 6422.76,5485.81 L 6391.35,5431.41 L 6407.75,5419.82 Z " />
<path stroke="transparent" fill="#000000" transform="matrix(0.0666667 0 0 0.0666667 -244.853 -250)" d="M 6359.81,5453.68 L 6387.7,5501.98 L 6369.46,5510.4 L 6343.41,5465.27 L 6359.81,5453.68 Z " />
<path stroke="transparent" fill="#000000" transform="matrix(0.0666667 0 0 0.0666667 -244.853 -250)" d="M 6311.87,5487.54 L 6334.41,5526.57 L 6316.17,5534.99 L 6295.47,5499.12 L 6311.87,5487.54 Z " />
<path stroke="transparent" fill="#000000" transform="matrix(0.0666667 0 0 0.0666667 -244.853 -250)" d="M 6263.93,5521.4 L 6281.12,5551.16 L 6262.88,5559.57 L 6247.53,5532.98 L 6263.93,5521.4 Z " />
<path stroke="transparent" fill="#000000" transform="matrix(0.0666667 0 0 0.0666667 -244.853 -250)" d="M 6215.99,5555.25 L 6227.82,5575.75 L 6209.59,5584.16 L 6199.59,5566.84 L 6215.99,5555.25 Z " />
<path stroke="transparent" fill="#000000" transform="matrix(0.0666667 0 0 0.0666667 -244.853 -250)" d="M 6217.82,8002.5 L 6097.82,8002.5 L 6147.36,7408.01 L 6157.82,7402.5 L 6168.28,7408.01 L 6217.82,8002.5 Z " />
<path stroke="transparent" fill="#000000" transform="matrix(0.0666667 0 0 0.0666667 -244.853 -250)" d="M 3714.11,6929.37 L 3714.11,6909.37 L 4307.38,6909.37 L 4314.11,6919.37 L 4308.34,6929.37 L 3714.11,6929.37 Z " />
<path stroke="transparent" fill="#000000" transform="matrix(0.0666667 0 0 0.0666667 -244.853 -250)" d="M 6147.82,3802.5 L 6167.82,3802.5 L 6167.82,4408.27 L 6147.82,4396.73 L 6147.82,3802.5 Z " />
<path stroke="transparent" fill="#000000" transform="matrix(0.0666667 0 0 0.0666667 -244.853 -250)" d="M 6147.82,4396.73 L 6167.82,4408.27 L 5735.87,4657.68 L 5725.87,4640.36 L 6147.82,4396.73 Z " />
<path stroke="transparent" fill="#000000" transform="matrix(0.0666667 0 0 0.0666667 -244.853 -250)" d="M 5578.26,4822.33 L 5698.26,4822.33 L 5695.91,4842.33 L 5580.6,4842.33 L 5578.26,4822.33 Z " />
<path stroke="transparent" fill="#000000" transform="matrix(0.0666667 0 0 0.0666667 -244.853 -250)" d="M 5585.06,4880.35 L 5691.45,4880.35 L 5689.1,4900.35 L 5587.41,4900.35 L 5585.06,4880.35 Z " />
<path stroke="transparent" fill="#000000" transform="matrix(0.0666667 0 0 0.0666667 -244.853 -250)" d="M 5591.87,4938.37 L 5684.64,4938.37 L 5682.29,4958.37 L 5594.22,4958.37 L 5591.87,4938.37 Z " />
<path stroke="transparent" fill="#000000" transform="matrix(0.0666667 0 0 0.0666667 -244.853 -250)" d="M 5598.68,4996.4 L 5677.83,4996.4 L 5675.49,5016.4 L 5601.03,5016.4 L 5598.68,4996.4 Z " />
<path stroke="transparent" fill="#000000" transform="matrix(0.0666667 0 0 0.0666667 -244.853 -250)" d="M 5605.49,5054.42 L 5671.03,5054.42 L 5668.68,5074.42 L 5607.83,5074.42 L 5605.49,5054.42 Z " />
<path stroke="transparent" fill="#000000" transform="matrix(0.0666667 0 0 0.0666667 -244.853 -250)" d="M 5612.29,5112.44 L 5664.22,5112.44 L 5661.87,5132.44 L 5614.64,5132.44 L 5612.29,5112.44 Z " />
<path stroke="transparent" fill="#000000" transform="matrix(0.0666667 0 0 0.0666667 -244.853 -250)" d="M 5619.1,5170.46 L 5657.41,5170.46 L 5655.06,5190.46 L 5621.45,5190.46 L 5619.1,5170.46 Z " />
<path stroke="transparent" fill="#000000" transform="matrix(0.0666667 0 0 0.0666667 -244.853 -250)" d="M 5625.91,5228.48 L 5650.6,5228.48 L 5648.26,5248.48 L 5628.26,5248.48 L 5625.91,5228.48 Z " />
<path stroke="transparent" fill="#000000" transform="matrix(0.0666667 0 0 0.0666667 -244.853 -250)" d="M 5759.5,7588.85 L 5640.43,7603.73 L 5628.86,7125.61 L 5638.26,7102.5 L 5653.05,7122.59 L 5759.5,7588.85 Z " />
<path stroke="transparent" fill="#000000" transform="matrix(0.0666667 0 0 0.0666667 -244.853 -250)" d="M 6538.15,5913.64 L 6598.15,6017.57 L 6179.77,6203.62 L 6157.82,6202.5 L 6167.82,6182.93 L 6538.15,5913.64 Z " />
<path stroke="transparent" fill="#000000" transform="matrix(0.0666667 0 0 0.0666667 -244.853 -250)" d="M 4709.1,5966.71 L 4781.7,5871.16 L 4796.16,5885.18 L 4726.48,5976.89 L 4709.1,5966.71 Z " />
<path stroke="transparent" fill="#000000" transform="matrix(0.0666667 0 0 0.0666667 -244.853 -250)" d="M 4758.1,5995.4 L 4822.48,5910.68 L 4836.94,5924.7 L 4775.49,6005.58 L 4758.1,5995.4 Z " />
<path stroke="transparent" fill="#000000" transform="matrix(0.0666667 0 0 0.0666667 -244.853 -250)" d="M 4807.11,6024.1 L 4863.25,5950.2 L 4877.72,5964.22 L 4824.49,6034.28 L 4807.11,6024.1 Z " />
<path stroke="transparent" fill="#000000" transform="matrix(0.0666667 0 0 0.0666667 -244.853 -250)" d="M 4856.11,6052.79 L 4904.03,5989.72 L 4918.5,6003.74 L 4873.49,6062.97 L 4856.11,6052.79 Z " />
<path stroke="transparent" fill="#000000" transform="matrix(0.0666667 0 0 0.0666667 -244.853 -250)" d="M 4905.11,6081.48 L 4944.81,6029.24 L 4959.27,6043.26 L 4922.5,6091.66 L 4905.11,6081.48 Z " />
<path stroke="transparent" fill="#000000" transform="matrix(0.0666667 0 0 0.0666667 -244.853 -250)" d="M 4954.12,6110.18 L 4985.58,6068.76 L 5000.05,6082.78 L 4971.5,6120.36 L 4954.12,6110.18 Z " />
<path stroke="transparent" fill="#000000" transform="matrix(0.0666667 0 0 0.0666667 -244.853 -250)" d="M 5003.12,6138.87 L 5026.36,6108.28 L 5040.83,6122.3 L 5020.5,6149.05 L 5003.12,6138.87 Z " />
<path stroke="transparent" fill="#000000" transform="matrix(0.0666667 0 0 0.0666667 -244.853 -250)" d="M 5052.12,6167.56 L 5067.14,6147.8 L 5081.61,6161.82 L 5069.51,6177.74 L 5052.12,6167.56 Z " />
</svg>
