<?xml version="1.0" standalone="no" ?>
<!DOCTYPE svg PUBLIC "-//W3C//DTD SVG 1.1//EN" "http://www.w3.org/Graphics/SVG/1.1/DTD/svg11.dtd">
<svg width="797px" height="613px" viewBox="0 0 797 613" style="background-color: #ffffff00" xmlns="http://www.w3.org/2000/svg" xmlns:xlink="http://www.w3.org/1999/xlink" version="1.1" >
<text x="0" y="0" stroke="transparent" fill="#000000" transform="matrix(0.0833333 0 0 0.0833333 386.419 50.139)" style="font:normal normal normal 200px 'Arial'" >
O</text>
<text x="0" y="0" stroke="transparent" fill="#000000" transform="matrix(0.0833333 0 0 0.0833333 318.169 68.2468)" style="font:normal normal normal 200px 'Arial'" >
O</text>
<text x="0" y="0" stroke="transparent" fill="#000000" transform="matrix(0.0833333 0 0 0.0833333 274.984 244.604)" style="font:normal normal normal 200px 'Arial'" >
O</text>
<text x="0" y="0" stroke="transparent" fill="#000000" transform="matrix(0.0833333 0 0 0.0833333 349.312 194.432)" style="font:normal normal normal 200px 'Arial'" >
HO</text>
<text x="0" y="0" stroke="transparent" fill="#000000" transform="matrix(0.0833333 0 0 0.0833333 231.794 18.2626)" style="font:normal normal normal 200px 'Arial'" >
OH</text>
<text x="0" y="0" stroke="transparent" fill="#000000" transform="matrix(0.0833333 0 0 0.0833333 361.348 294.588)" style="font:normal normal normal 200px 'Arial'" >
OH</text>
<text x="0" y="0" stroke="transparent" fill="#000000" transform="matrix(0.0833333 0 0 0.0833333 387.321 80.7914)" style="font:normal normal normal 200px 'Arial'" >
HO</text>
<text x="0" y="0" stroke="transparent" fill="#000000" transform="matrix(0.0833333 0 0 0.0833333 133.267 68.3438)" style="font:normal normal normal 200px 'Arial'" >
HO</text>
<text x="0" y="0" stroke="transparent" fill="#000000" transform="matrix(0.0833333 0 0 0.0833333 251.531 206.503)" style="font:normal normal normal 200px 'Arial'" >
O</text>
<text x="0" y="0" stroke="transparent" fill="#000000" transform="matrix(0.0833333 0 0 0.0833333 534.311 244.416)" style="font:normal normal normal 200px 'Arial'" >
O</text>
<text x="0" y="0" stroke="transparent" fill="#000000" transform="matrix(0.0833333 0 0 0.0833333 447.832 244.604)" style="font:normal normal normal 200px 'Arial'" >
O</text>
<text x="0" y="0" stroke="transparent" fill="#000000" transform="matrix(0.0833333 0 0 0.0833333 491.114 19.1171)" style="font:normal normal normal 200px 'Arial'" >
OH</text>
<text x="0" y="0" stroke="transparent" fill="#000000" transform="matrix(0.0833333 0 0 0.0833333 577.877 69.38)" style="font:normal normal normal 200px 'Arial'" >
OH</text>
<text x="0" y="0" stroke="transparent" fill="#000000" transform="matrix(0.0833333 0 0 0.0833333 102.239 93.8025)" style="font:normal normal normal 200px 'Arial'" >
OH</text>
<text x="0" y="0" stroke="transparent" fill="#000000" transform="matrix(0.0833333 0 0 0.0833333 145.303 269.687)" style="font:normal normal normal 200px 'Arial'" >
O</text>
<text x="0" y="0" stroke="transparent" fill="#000000" transform="matrix(0.0833333 0 0 0.0833333 188.609 294.964)" style="font:normal normal normal 200px 'Arial'" >
O</text>
<text x="0" y="0" stroke="transparent" fill="#000000" transform="matrix(0.0833333 0 0 0.0833333 3.58531 144.072)" style="font:normal normal normal 200px 'Arial'" >
HO</text>
<text x="0" y="0" stroke="transparent" fill="#000000" transform="matrix(0.0833333 0 0 0.0833333 417.18 368.54)" style="font:normal normal normal 200px 'Arial'" >
OH</text>
<text x="0" y="0" stroke="transparent" fill="#000000" transform="matrix(0.0833333 0 0 0.0833333 567.224 306.278)" style="font:normal normal normal 200px 'Arial'" >
O</text>
<text x="0" y="0" stroke="transparent" fill="#000000" transform="matrix(0.0833333 0 0 0.0833333 3.58531 244.416)" style="font:normal normal normal 200px 'Arial'" >
HO</text>
<text x="0" y="0" stroke="transparent" fill="#000000" transform="matrix(0.0833333 0 0 0.0833333 520.445 410.61)" style="font:normal normal normal 200px 'Arial'" >
O</text>
<text x="0" y="0" stroke="transparent" fill="#000000" transform="matrix(0.0833333 0 0 0.0833333 475.365 364.95)" style="font:normal normal normal 200px 'Arial'" >
O</text>
<text x="0" y="0" stroke="transparent" fill="#000000" transform="matrix(0.0833333 0 0 0.0833333 652.951 270.723)" style="font:normal normal normal 200px 'Arial'" >
O</text>
<text x="0" y="0" stroke="transparent" fill="#000000" transform="matrix(0.0833333 0 0 0.0833333 478.854 488.913)" style="font:normal normal normal 200px 'Arial'" >
O</text>
<text x="0" y="0" stroke="transparent" fill="#000000" transform="matrix(0.0833333 0 0 0.0833333 718.206 479.114)" style="font:normal normal normal 200px 'Arial'" >
OH</text>
<text x="0" y="0" stroke="transparent" fill="#000000" transform="matrix(0.0833333 0 0 0.0833333 718.206 306.09)" style="font:normal normal normal 200px 'Arial'" >
OH</text>
<text x="0" y="0" stroke="transparent" fill="#000000" transform="matrix(0.0833333 0 0 0.0833333 692.839 522.165)" style="font:normal normal normal 200px 'Arial'" >
OH</text>
<text x="0" y="0" stroke="transparent" fill="#000000" transform="matrix(0.0833333 0 0 0.0833333 530.098 608.668)" style="font:normal normal normal 200px 'Arial'" >
HO</text>
<text x="0" y="0" stroke="transparent" fill="#000000" transform="matrix(0.0833333 0 0 0.0833333 768.379 392.617)" style="font:normal normal normal 200px 'Arial'" >
OH</text>
<text x="0" y="0" stroke="transparent" fill="#000000" transform="matrix(0.0833333 0 0 0.0833333 642.576 608.668)" style="font:normal normal normal 200px 'Arial'" >
OH</text>
<path stroke="transparent" fill="#000000" transform="matrix(0.0833333 0 0 0.0833333 -37.5 -65)" d="M 4872.83,1900 L 4855.52,1889.97 L 5127.04,1421.16 L 5144.35,1431.18 L 4872.83,1900 Z " />
<path stroke="transparent" fill="#000000" transform="matrix(0.0833333 0 0 0.0833333 -37.5 -65)" d="M 4841.71,1809.99 L 4824.41,1799.97 L 5064.71,1385.06 L 5082.01,1395.08 L 4841.71,1809.99 Z " />
<path stroke="transparent" fill="#000000" transform="matrix(0.0833333 0 0 0.0833333 -37.5 -65)" d="M 4874.17,2421.7 L 4864.17,2427.44 L 4854.17,2421.7 L 4854.17,1828.87 L 4874.17,1817.38 L 4874.17,2421.7 Z " />
<path stroke="transparent" fill="#000000" transform="matrix(0.0833333 0 0 0.0833333 -37.5 -65)" d="M 4440.82,1587.82 L 4450.9,1570.54 L 4874.17,1817.38 L 4854.17,1828.87 L 4440.82,1587.82 Z " />
<path stroke="transparent" fill="#000000" transform="matrix(0.0833333 0 0 0.0833333 -37.5 -65)" d="M 4356.03,2735.35 L 4346.03,2729.6 L 4346.03,2718.02 L 4854.17,2421.7 L 4864.17,2427.44 L 4864.17,2439.02 L 4356.03,2735.35 Z " />
<path stroke="transparent" fill="#000000" transform="matrix(0.0833333 0 0 0.0833333 -37.5 -65)" d="M 5382.54,2718.03 L 5382.53,2729.6 L 5372.53,2735.35 L 4864.17,2439.02 L 4864.17,2427.44 L 4874.17,2421.7 L 5382.54,2718.03 Z " />
<path stroke="transparent" fill="#000000" transform="matrix(0.0833333 0 0 0.0833333 -37.5 -65)" d="M 5315.57,2762.33 L 5305.5,2779.61 L 4859.14,2519.42 L 4869.22,2502.15 L 5315.57,2762.33 Z " />
<path stroke="transparent" fill="#000000" transform="matrix(0.0833333 0 0 0.0833333 -37.5 -65)" d="M 3837.81,1828.87 L 3827.81,1823.12 L 3827.81,1811.55 L 4241.59,1570.28 L 4251.67,1587.56 L 3837.81,1828.87 Z " />
<path stroke="transparent" fill="#000000" transform="matrix(0.0833333 0 0 0.0833333 -37.5 -65)" d="M 3827.81,2439.02 L 3827.81,2427.44 L 3837.81,2421.7 L 4346.03,2718.02 L 4346.03,2729.6 L 4336.03,2735.35 L 3827.81,2439.02 Z " />
<path stroke="transparent" fill="#000000" transform="matrix(0.0833333 0 0 0.0833333 -37.5 -65)" d="M 4356.03,3329.34 L 4346.03,3335.08 L 4336.03,3329.34 L 4336.03,2735.35 L 4346.03,2729.6 L 4356.03,2735.35 L 4356.03,3329.34 Z " />
<path stroke="transparent" fill="#000000" transform="matrix(0.0833333 0 0 0.0833333 -37.5 -65)" d="M 4428.69,3293.35 L 4408.69,3293.35 L 4408.69,2771.34 L 4428.69,2771.34 L 4428.69,3293.35 Z " />
<path stroke="transparent" fill="#000000" transform="matrix(0.0833333 0 0 0.0833333 -37.5 -65)" d="M 5891.98,2421.7 L 5901.99,2427.44 L 5901.98,2439.01 L 5392.53,2735.35 L 5382.53,2729.6 L 5382.54,2718.03 L 5891.98,2421.7 Z " />
<path stroke="transparent" fill="#000000" transform="matrix(0.0833333 0 0 0.0833333 -37.5 -65)" d="M 5392.53,3340.83 L 5382.53,3335.08 L 5372.53,3317.75 L 5372.53,2735.35 L 5382.53,2729.6 L 5392.53,2735.35 L 5392.53,3340.83 Z " />
<path stroke="transparent" fill="#000000" transform="matrix(0.0833333 0 0 0.0833333 -37.5 -65)" d="M 3837.81,2421.7 L 3827.81,2427.44 L 3817.81,2421.7 L 3817.81,1828.87 L 3827.81,1823.12 L 3837.81,1828.87 L 3837.81,2421.7 Z " />
<path stroke="transparent" fill="#000000" transform="matrix(0.0833333 0 0 0.0833333 -37.5 -65)" d="M 3765.29,2385.78 L 3745.29,2385.78 L 3745.29,1864.79 L 3765.29,1864.79 L 3765.29,2385.78 Z " />
<path stroke="transparent" fill="#000000" transform="matrix(0.0833333 0 0 0.0833333 -37.5 -65)" d="M 3309.52,1532.54 L 3309.52,1520.96 L 3319.52,1515.22 L 3827.81,1811.55 L 3827.81,1823.12 L 3817.81,1828.87 L 3309.52,1532.54 Z " />
<path stroke="transparent" fill="#000000" transform="matrix(0.0833333 0 0 0.0833333 -37.5 -65)" d="M 3319.52,2735.35 L 3309.52,2729.6 L 3309.52,2718.03 L 3817.81,2421.7 L 3827.81,2427.44 L 3827.81,2439.02 L 3319.52,2735.35 Z " />
<path stroke="transparent" fill="#000000" transform="matrix(0.0833333 0 0 0.0833333 -37.5 -65)" d="M 3925.24,3592.01 L 3915.17,3574.73 L 4336.03,3329.34 L 4346.03,3335.08 L 4346.03,3346.66 L 3925.24,3592.01 Z " />
<path stroke="transparent" fill="#000000" transform="matrix(0.0833333 0 0 0.0833333 -37.5 -65)" d="M 4864.17,3625.67 L 4864.17,3637.24 L 4854.17,3642.99 L 4346.03,3346.66 L 4346.03,3335.08 L 4356.03,3329.34 L 4864.17,3625.67 Z " />
<path stroke="transparent" fill="#000000" transform="matrix(0.0833333 0 0 0.0833333 -37.5 -65)" d="M 6420.37,2718.08 L 6420.28,2729.6 L 6410.28,2735.35 L 5901.98,2439.01 L 5901.99,2427.44 L 5911.98,2421.69 L 6420.37,2718.08 Z " />
<path stroke="transparent" fill="#000000" transform="matrix(0.0833333 0 0 0.0833333 -37.5 -65)" d="M 5890.84,1834.22 L 5900.82,1826.54 L 5910.84,1832.36 L 5911.98,2421.69 L 5901.99,2427.44 L 5891.98,2421.7 L 5890.84,1834.22 Z " />
<path stroke="transparent" fill="#000000" transform="matrix(0.0833333 0 0 0.0833333 -37.5 -65)" d="M 5963.01,1868.5 L 5983.01,1868.46 L 5984.02,2385.95 L 5964.02,2385.98 L 5963.01,1868.5 Z " />
<path stroke="transparent" fill="#000000" transform="matrix(0.0833333 0 0 0.0833333 -37.5 -65)" d="M 4874.17,3642.99 L 4864.17,3637.24 L 4864.17,3625.67 L 5362.62,3335.12 L 5382.53,3335.08 L 5392.53,3340.83 L 4874.17,3642.99 Z " />
<path stroke="transparent" fill="#000000" transform="matrix(0.0833333 0 0 0.0833333 -37.5 -65)" d="M 4869.22,3562.54 L 4859.14,3545.26 L 5234.13,3326.68 L 5244.2,3343.96 L 4869.22,3562.54 Z " />
<path stroke="transparent" fill="#000000" transform="matrix(0.0833333 0 0 0.0833333 -37.5 -65)" d="M 4959.15,3101.68 L 4969.16,3084.37 L 5372.53,3317.75 L 5382.53,3335.08 L 5362.62,3335.12 L 4959.15,3101.68 Z " />
<path stroke="transparent" fill="#000000" transform="matrix(0.0833333 0 0 0.0833333 -37.5 -65)" d="M 3299.52,1040.98 L 3319.52,1040.98 L 3319.52,1515.22 L 3309.52,1520.96 L 3299.52,1515.22 L 3299.52,1040.98 Z " />
<path stroke="transparent" fill="#000000" transform="matrix(0.0833333 0 0 0.0833333 -37.5 -65)" d="M 2801.31,1828.87 L 2791.31,1823.12 L 2791.29,1811.56 L 3299.52,1515.22 L 3309.52,1520.96 L 3309.52,1532.54 L 2801.31,1828.87 Z " />
<path stroke="transparent" fill="#000000" transform="matrix(0.0833333 0 0 0.0833333 -37.5 -65)" d="M 2868.33,1873.12 L 2858.25,1855.84 L 3304.49,1595.65 L 3314.56,1612.93 L 2868.33,1873.12 Z " />
<path stroke="transparent" fill="#000000" transform="matrix(0.0833333 0 0 0.0833333 -37.5 -65)" d="M 2791.31,2439.02 L 2791.31,2427.44 L 2801.31,2421.7 L 3309.52,2718.03 L 3309.52,2729.6 L 3299.52,2735.35 L 2791.31,2439.02 Z " />
<path stroke="transparent" fill="#000000" transform="matrix(0.0833333 0 0 0.0833333 -37.5 -65)" d="M 2858.25,2394.72 L 2868.33,2377.45 L 3314.56,2637.64 L 3304.49,2654.91 L 2858.25,2394.72 Z " />
<path stroke="transparent" fill="#000000" transform="matrix(0.0833333 0 0 0.0833333 -37.5 -65)" d="M 3319.52,3329.34 L 3299.52,3340.83 L 3299.52,2735.35 L 3309.52,2729.6 L 3319.52,2735.35 L 3319.52,3329.34 Z " />
<path stroke="transparent" fill="#000000" transform="matrix(0.0833333 0 0 0.0833333 -37.5 -65)" d="M 3299.52,3340.83 L 3319.52,3329.34 L 3740.45,3574.74 L 3730.38,3592.01 L 3299.52,3340.83 Z " />
<path stroke="transparent" fill="#000000" transform="matrix(0.0833333 0 0 0.0833333 -37.5 -65)" d="M 4874.17,4131.89 L 4854.17,4131.89 L 4854.17,3642.99 L 4864.17,3637.24 L 4874.17,3642.99 L 4874.17,4131.89 Z " />
<path stroke="transparent" fill="#000000" transform="matrix(0.0833333 0 0 0.0833333 -37.5 -65)" d="M 6430.28,3340.83 L 6410.28,3329.34 L 6410.28,2735.35 L 6420.28,2729.6 L 6430.28,2735.45 L 6430.28,3340.83 Z " />
<path stroke="transparent" fill="#000000" transform="matrix(0.0833333 0 0 0.0833333 -37.5 -65)" d="M 6934.24,2429.51 L 6954.24,2441.22 L 6430.28,2735.45 L 6420.28,2729.6 L 6420.37,2718.08 L 6934.24,2429.51 Z " />
<path stroke="transparent" fill="#000000" transform="matrix(0.0833333 0 0 0.0833333 -37.5 -65)" d="M 6867.23,2384.44 L 6877.02,2401.88 L 6425.84,2655.24 L 6416.05,2637.8 L 6867.23,2384.44 Z " />
<path stroke="transparent" fill="#000000" transform="matrix(0.0833333 0 0 0.0833333 -37.5 -65)" d="M 5425.49,1709.94 L 5430.65,1690.62 L 5899.45,1815.82 L 5900.82,1826.54 L 5890.84,1834.22 L 5425.49,1709.94 Z " />
<path stroke="transparent" fill="#000000" transform="matrix(0.0833333 0 0 0.0833333 -37.5 -65)" d="M 6411.37,1525.32 L 6421.37,1531.14 L 6421.3,1542.68 L 5910.84,1832.36 L 5900.82,1826.54 L 5899.45,1815.82 L 6411.37,1525.32 Z " />
<path stroke="transparent" fill="#000000" transform="matrix(0.0833333 0 0 0.0833333 -37.5 -65)" d="M 2801.31,2421.7 L 2791.31,2427.44 L 2781.31,2421.7 L 2781.31,1828.89 L 2791.31,1823.12 L 2801.31,1828.87 L 2801.31,2421.7 Z " />
<path stroke="transparent" fill="#000000" transform="matrix(0.0833333 0 0 0.0833333 -37.5 -65)" d="M 2366.58,1588.68 L 2376.61,1571.37 L 2791.29,1811.56 L 2791.31,1823.12 L 2781.31,1828.89 L 2366.58,1588.68 Z " />
<path stroke="transparent" fill="#000000" transform="matrix(0.0833333 0 0 0.0833333 -37.5 -65)" d="M 2283.09,2735.35 L 2273.09,2729.6 L 2273.09,2718.03 L 2781.31,2421.7 L 2791.31,2427.44 L 2791.31,2439.02 L 2283.09,2735.35 Z " />
<path stroke="transparent" fill="#000000" transform="matrix(0.0833333 0 0 0.0833333 -37.5 -65)" d="M 3430.33,3214.17 L 3441.28,3230.91 L 3315,3313.57 L 3304.05,3296.84 L 3430.33,3214.17 Z " />
<path stroke="transparent" fill="#000000" transform="matrix(0.0833333 0 0 0.0833333 -37.5 -65)" d="M 3457.71,3256.01 L 3468.67,3272.74 L 3339.14,3357.53 L 3328.19,3340.79 L 3457.71,3256.01 Z " />
<path stroke="transparent" fill="#000000" transform="matrix(0.0833333 0 0 0.0833333 -37.5 -65)" d="M 6870.11,3541.69 L 6860.11,3559.01 L 6415.28,3302.19 L 6425.28,3284.87 L 6870.11,3541.69 Z " />
<path stroke="transparent" fill="#000000" transform="matrix(0.0833333 0 0 0.0833333 -37.5 -65)" d="M 6834.12,3604.02 L 6824.12,3621.34 L 6379.46,3364.62 L 6389.46,3347.3 L 6834.12,3604.02 Z " />
<path stroke="transparent" fill="#000000" transform="matrix(0.0833333 0 0 0.0833333 -37.5 -65)" d="M 5999.42,3592.01 L 5989.35,3574.74 L 6410.28,3329.34 L 6430.28,3340.83 L 5999.42,3592.01 Z " />
<path stroke="transparent" fill="#000000" transform="matrix(0.0833333 0 0 0.0833333 -37.5 -65)" d="M 6934.24,1841.31 L 6944.24,1835.56 L 6954.24,1841.31 L 6954.24,2441.22 L 6934.24,2429.51 L 6934.24,1841.31 Z " />
<path stroke="transparent" fill="#000000" transform="matrix(0.0833333 0 0 0.0833333 -37.5 -65)" d="M 6944.24,1823.99 L 6944.24,1835.56 L 6934.24,1841.31 L 6421.3,1542.68 L 6421.37,1531.14 L 6431.37,1525.39 L 6944.24,1823.99 Z " />
<path stroke="transparent" fill="#000000" transform="matrix(0.0833333 0 0 0.0833333 -37.5 -65)" d="M 6876.67,1868.66 L 6866.6,1885.94 L 6415.87,1623.53 L 6425.94,1606.24 L 6876.67,1868.66 Z " />
<path stroke="transparent" fill="#000000" transform="matrix(0.0833333 0 0 0.0833333 -37.5 -65)" d="M 6411.37,1051.24 L 6431.37,1051.24 L 6431.37,1525.39 L 6421.37,1531.14 L 6411.37,1525.32 L 6411.37,1051.24 Z " />
<path stroke="transparent" fill="#000000" transform="matrix(0.0833333 0 0 0.0833333 -37.5 -65)" d="M 2283.09,3329.34 L 2273.09,3335.08 L 2263.09,3329.34 L 2263.09,2735.35 L 2273.09,2729.6 L 2283.09,2735.35 L 2283.09,3329.34 Z " />
<path stroke="transparent" fill="#000000" transform="matrix(0.0833333 0 0 0.0833333 -37.5 -65)" d="M 1754.87,2439.01 L 1754.87,2427.44 L 1764.87,2421.7 L 2273.09,2718.03 L 2273.09,2729.6 L 2263.09,2735.35 L 1754.87,2439.01 Z " />
<path stroke="transparent" fill="#000000" transform="matrix(0.0833333 0 0 0.0833333 -37.5 -65)" d="M 1749.78,2519.38 L 1759.86,2502.1 L 2206.14,2762.32 L 2196.07,2779.59 L 1749.78,2519.38 Z " />
<path stroke="transparent" fill="#000000" transform="matrix(0.0833333 0 0 0.0833333 -37.5 -65)" d="M 5911.99,4235.79 L 5901.99,4241.56 L 5891.99,4235.81 L 5891.99,3757.08 L 5911.99,3757.08 L 5911.99,4235.79 Z " />
<path stroke="transparent" fill="#000000" transform="matrix(0.0833333 0 0 0.0833333 -37.5 -65)" d="M 7358.02,1583.69 L 7368.07,1600.98 L 6954.24,1841.31 L 6944.24,1835.56 L 6944.24,1823.99 L 7358.02,1583.69 Z " />
<path stroke="transparent" fill="#000000" transform="matrix(0.0833333 0 0 0.0833333 -37.5 -65)" d="M 1754.88,3648.82 L 1754.87,3625.67 L 2263.09,3329.34 L 2273.09,3335.08 L 2273.09,3346.66 L 1754.88,3648.82 Z " />
<path stroke="transparent" fill="#000000" transform="matrix(0.0833333 0 0 0.0833333 -37.5 -65)" d="M 1759.86,3562.58 L 1749.78,3545.31 L 2196.07,3285.09 L 2206.14,3302.37 L 1759.86,3562.58 Z " />
<path stroke="transparent" fill="#000000" transform="matrix(0.0833333 0 0 0.0833333 -37.5 -65)" d="M 2801.31,3631.5 L 2781.31,3642.99 L 2273.09,3346.66 L 2273.09,3335.08 L 2283.09,3329.34 L 2801.31,3631.5 Z " />
<path stroke="transparent" fill="#000000" transform="matrix(0.0833333 0 0 0.0833333 -37.5 -65)" d="M 1744.87,1947.46 L 1764.87,1947.46 L 1764.87,2421.7 L 1754.87,2427.44 L 1744.87,2421.69 L 1744.87,1947.46 Z " />
<path stroke="transparent" fill="#000000" transform="matrix(0.0833333 0 0 0.0833333 -37.5 -65)" d="M 1245.2,2735.35 L 1235.2,2729.6 L 1235.17,2718.05 L 1744.87,2421.69 L 1754.87,2427.44 L 1754.87,2439.01 L 1245.2,2735.35 Z " />
<path stroke="transparent" fill="#000000" transform="matrix(0.0833333 0 0 0.0833333 -37.5 -65)" d="M 5390.75,4550.13 L 5379.12,4545.32 L 5376.42,4535.32 L 5891.99,4235.81 L 5901.99,4241.56 L 5902,4253.12 L 5390.75,4550.13 Z " />
<path stroke="transparent" fill="#000000" transform="matrix(0.0833333 0 0 0.0833333 -37.5 -65)" d="M 7028.91,4881.55 L 7032.52,4895.19 L 7025.22,4902.52 L 5902,4253.12 L 5901.99,4241.56 L 5911.99,4235.79 L 7028.91,4881.55 Z " />
<path stroke="transparent" fill="#000000" transform="matrix(0.0833333 0 0 0.0833333 -37.5 -65)" d="M 1235.18,3346.64 L 1235.2,3335.08 L 1245.2,3329.33 L 1754.87,3625.67 L 1754.88,3648.82 L 1235.18,3346.64 Z " />
<path stroke="transparent" fill="#000000" transform="matrix(0.0833333 0 0 0.0833333 -37.5 -65)" d="M 2387.25,3924.47 L 2377.23,3907.16 L 2786.29,3670.23 L 2796.32,3687.54 L 2387.25,3924.47 Z " />
<path stroke="transparent" fill="#000000" transform="matrix(0.0833333 0 0 0.0833333 -37.5 -65)" d="M 2351.13,3862.11 L 2341.11,3844.8 L 2750.47,3607.7 L 2760.49,3625.01 L 2351.13,3862.11 Z " />
<path stroke="transparent" fill="#000000" transform="matrix(0.0833333 0 0 0.0833333 -37.5 -65)" d="M 2801.31,4136.4 L 2781.31,4136.4 L 2781.31,3642.99 L 2801.31,3631.5 L 2801.31,4136.4 Z " />
<path stroke="transparent" fill="#000000" transform="matrix(0.0833333 0 0 0.0833333 -37.5 -65)" d="M 1245.2,3329.33 L 1235.2,3335.08 L 1225.2,3329.31 L 1225.2,2735.39 L 1235.2,2729.6 L 1245.2,2735.35 L 1245.2,3329.33 Z " />
<path stroke="transparent" fill="#000000" transform="matrix(0.0833333 0 0 0.0833333 -37.5 -65)" d="M 1317.86,3293.28 L 1297.86,3293.28 L 1297.86,2771.4 L 1317.86,2771.4 L 1317.86,3293.28 Z " />
<path stroke="transparent" fill="#000000" transform="matrix(0.0833333 0 0 0.0833333 -37.5 -65)" d="M 810.594,2497.08 L 820.56,2479.74 L 1235.17,2718.05 L 1235.2,2729.6 L 1225.2,2735.39 L 810.594,2497.08 Z " />
<path stroke="transparent" fill="#000000" transform="matrix(0.0833333 0 0 0.0833333 -37.5 -65)" d="M 5516.43,5019.57 L 5497.11,5024.74 L 5371.44,4555.32 L 5379.12,4545.32 L 5390.75,4550.13 L 5516.43,5019.57 Z " />
<path stroke="transparent" fill="#000000" transform="matrix(0.0833333 0 0 0.0833333 -37.5 -65)" d="M 3312.8,4555.32 L 3318.17,4535.32 L 5376.42,4535.32 L 5379.12,4545.32 L 5371.44,4555.32 L 3312.8,4555.32 Z " />
<path stroke="transparent" fill="#000000" transform="matrix(0.0833333 0 0 0.0833333 -37.5 -65)" d="M 7349.24,5418.52 L 7334.68,5413.4 L 7317.28,5403.4 L 7025.22,4902.52 L 7032.52,4895.19 L 7044.1,4895.19 L 7349.24,5418.52 Z " />
<path stroke="transparent" fill="#000000" transform="matrix(0.0833333 0 0 0.0833333 -37.5 -65)" d="M 7265.22,4476.54 L 7282.5,4486.62 L 7044.1,4895.19 L 7032.52,4895.19 L 7028.91,4881.55 L 7265.22,4476.54 Z " />
<path stroke="transparent" fill="#000000" transform="matrix(0.0833333 0 0 0.0833333 -37.5 -65)" d="M 813.078,3590.2 L 803.083,3572.88 L 1225.2,3329.31 L 1235.2,3335.08 L 1235.18,3346.64 L 813.078,3590.2 Z " />
<path stroke="transparent" fill="#000000" transform="matrix(0.0833333 0 0 0.0833333 -37.5 -65)" d="M 3318.17,4535.32 L 3312.8,4555.32 L 2886.25,4308.14 L 2896.28,4290.84 L 3318.17,4535.32 Z " />
<path stroke="transparent" fill="#000000" transform="matrix(0.0833333 0 0 0.0833333 -37.5 -65)" d="M 6732.19,5423.4 L 6737.55,5403.4 L 7317.28,5403.4 L 7334.68,5413.4 L 7280.83,5423.4 L 6732.19,5423.4 Z " />
<path stroke="transparent" fill="#000000" transform="matrix(0.0833333 0 0 0.0833333 -37.5 -65)" d="M 6876.77,5600.25 L 6869.59,5581.58 L 7280.83,5423.4 L 7334.68,5413.4 L 7349.24,5418.52 L 6876.77,5600.25 Z " />
<path stroke="transparent" fill="#000000" transform="matrix(0.0833333 0 0 0.0833333 -37.5 -65)" d="M 7949,4367.33 L 7929,4387.33 L 7442.68,4387.33 L 7442.68,4367.33 L 7949,4367.33 Z " />
<path stroke="transparent" fill="#000000" transform="matrix(0.0833333 0 0 0.0833333 -37.5 -65)" d="M 6309.35,5179.08 L 6319.35,5161.76 L 6737.55,5403.4 L 6732.19,5423.4 L 6309.35,5179.08 Z " />
<path stroke="transparent" fill="#000000" transform="matrix(0.0833333 0 0 0.0833333 -37.5 -65)" d="M 6345.44,5116.61 L 6355.44,5099.3 L 6759.22,5332.6 L 6749.21,5349.92 L 6345.44,5116.61 Z " />
<path stroke="transparent" fill="#000000" transform="matrix(0.0833333 0 0 0.0833333 -37.5 -65)" d="M 6783.34,6226.99 L 6763.34,6240.72 L 6763.34,5749.15 L 6783.34,5749.15 L 6783.34,6226.99 Z " />
<path stroke="transparent" fill="#000000" transform="matrix(0.0833333 0 0 0.0833333 -37.5 -65)" d="M 8247.21,4002.11 L 8261.39,4016.22 L 7895.16,4384.39 L 7880.98,4370.28 L 8247.21,4002.11 Z " />
<path stroke="transparent" fill="#000000" transform="matrix(0.0833333 0 0 0.0833333 -37.5 -65)" d="M 8298.41,4053.04 L 8312.59,4067.14 L 7946.09,4435.59 L 7931.91,4421.48 L 8298.41,4053.04 Z " />
<path stroke="transparent" fill="#000000" transform="matrix(0.0833333 0 0 0.0833333 -37.5 -65)" d="M 7949,5376.4 L 7939,5413.4 L 7929,5416.11 L 7929,4387.33 L 7949,4367.33 L 7949,5376.4 Z " />
<path stroke="transparent" fill="#000000" transform="matrix(0.0833333 0 0 0.0833333 -37.5 -65)" d="M 6388.71,6547.59 L 6377.56,6530.99 L 6808.9,6241.38 L 6820.05,6257.98 L 6388.71,6547.59 Z " />
<path stroke="transparent" fill="#000000" transform="matrix(0.0833333 0 0 0.0833333 -37.5 -65)" d="M 6348.5,6487.7 L 6337.35,6471.1 L 6767.77,6182.11 L 6778.92,6198.71 L 6348.5,6487.7 Z " />
<path stroke="transparent" fill="#000000" transform="matrix(0.0833333 0 0 0.0833333 -37.5 -65)" d="M 7336.54,6439.84 L 7334.68,6449.84 L 7320.12,6454.95 L 6763.34,6240.72 L 6783.34,6226.99 L 7336.54,6439.84 Z " />
<path stroke="transparent" fill="#000000" transform="matrix(0.0833333 0 0 0.0833333 -37.5 -65)" d="M 8246.91,5921.62 L 8241.16,5931.62 L 8229.59,5931.62 L 7929,5416.11 L 7939,5413.4 L 7950.58,5413.4 L 8246.91,5921.62 Z " />
<path stroke="transparent" fill="#000000" transform="matrix(0.0833333 0 0 0.0833333 -37.5 -65)" d="M 8235.42,4885.19 L 8246.91,4905.19 L 7950.58,5413.4 L 7939,5413.4 L 7949,5376.4 L 8235.42,4885.19 Z " />
<path stroke="transparent" fill="#000000" transform="matrix(0.0833333 0 0 0.0833333 -37.5 -65)" d="M 8273.88,4962.14 L 8291.16,4972.21 L 8030.97,5418.44 L 8013.69,5408.37 L 8273.88,4962.14 Z " />
<path stroke="transparent" fill="#000000" transform="matrix(0.0833333 0 0 0.0833333 -37.5 -65)" d="M 7933.26,6439.84 L 7939,6449.84 L 7933.26,6459.84 L 7340.43,6459.84 L 7334.68,6449.84 L 7336.54,6439.84 L 7933.26,6439.84 Z " />
<path stroke="transparent" fill="#000000" transform="matrix(0.0833333 0 0 0.0833333 -37.5 -65)" d="M 7044.1,6967.98 L 7020.95,6967.98 L 7320.12,6454.95 L 7334.68,6449.84 L 7340.43,6459.84 L 7044.1,6967.98 Z " />
<path stroke="transparent" fill="#000000" transform="matrix(0.0833333 0 0 0.0833333 -37.5 -65)" d="M 7124.48,6973.03 L 7107.2,6962.95 L 7367.39,6516.78 L 7384.67,6526.85 L 7124.48,6973.03 Z " />
<path stroke="transparent" fill="#000000" transform="matrix(0.0833333 0 0 0.0833333 -37.5 -65)" d="M 7950.58,6449.84 L 7939,6449.84 L 7933.26,6439.84 L 8229.59,5931.62 L 8241.16,5931.62 L 8246.91,5941.62 L 7950.58,6449.84 Z " />
<path stroke="transparent" fill="#000000" transform="matrix(0.0833333 0 0 0.0833333 -37.5 -65)" d="M 8840.83,5921.62 L 8846.57,5931.62 L 8840.8,5941.62 L 8246.91,5941.62 L 8241.16,5931.62 L 8246.91,5921.62 L 8840.83,5921.62 Z " />
<path stroke="transparent" fill="#000000" transform="matrix(0.0833333 0 0 0.0833333 -37.5 -65)" d="M 8804.84,5848.97 L 8804.84,5868.97 L 8282.9,5868.97 L 8282.9,5848.97 L 8804.84,5848.97 Z " />
<path stroke="transparent" fill="#000000" transform="matrix(0.0833333 0 0 0.0833333 -37.5 -65)" d="M 8840.8,4885.19 L 8846.57,4895.19 L 8840.83,4905.19 L 8246.91,4905.19 L 8235.42,4885.19 L 8840.8,4885.19 Z " />
<path stroke="transparent" fill="#000000" transform="matrix(0.0833333 0 0 0.0833333 -37.5 -65)" d="M 8246.91,6957.98 L 8241.16,6967.98 L 8229.59,6967.98 L 7933.26,6459.84 L 7939,6449.84 L 7950.58,6449.84 L 8246.91,6957.98 Z " />
<path stroke="transparent" fill="#000000" transform="matrix(0.0833333 0 0 0.0833333 -37.5 -65)" d="M 8166.48,6962.95 L 8149.21,6973.03 L 7889.02,6526.85 L 7906.29,6516.78 L 8166.48,6962.95 Z " />
<path stroke="transparent" fill="#000000" transform="matrix(0.0833333 0 0 0.0833333 -37.5 -65)" d="M 7340.43,7476.34 L 7334.68,7486.34 L 7323.12,7486.36 L 7020.95,6967.98 L 7044.1,6967.98 L 7340.43,7476.34 Z " />
<path stroke="transparent" fill="#000000" transform="matrix(0.0833333 0 0 0.0833333 -37.5 -65)" d="M 9101.91,6354.12 L 9084.59,6364.11 L 8840.8,5941.62 L 8846.57,5931.62 L 8858.13,5931.65 L 9101.91,6354.12 Z " />
<path stroke="transparent" fill="#000000" transform="matrix(0.0833333 0 0 0.0833333 -37.5 -65)" d="M 9137.16,5413.4 L 9148.73,5413.4 L 9154.48,5423.4 L 8858.13,5931.65 L 8846.57,5931.62 L 8840.83,5921.62 L 9137.16,5413.4 Z " />
<path stroke="transparent" fill="#000000" transform="matrix(0.0833333 0 0 0.0833333 -37.5 -65)" d="M 9154.48,5403.4 L 9148.73,5413.4 L 9137.16,5413.4 L 8840.83,4905.19 L 8846.57,4895.19 L 8858.13,4895.16 L 9154.48,5403.4 Z " />
<path stroke="transparent" fill="#000000" transform="matrix(0.0833333 0 0 0.0833333 -37.5 -65)" d="M 9074.04,5408.37 L 9056.77,5418.44 L 8796.58,4972.21 L 8813.86,4962.14 L 9074.04,5408.37 Z " />
<path stroke="transparent" fill="#000000" transform="matrix(0.0833333 0 0 0.0833333 -37.5 -65)" d="M 9077.52,4474.66 L 9094.84,4484.65 L 8858.13,4895.16 L 8846.57,4895.19 L 8840.8,4885.19 L 9077.52,4474.66 Z " />
<path stroke="transparent" fill="#000000" transform="matrix(0.0833333 0 0 0.0833333 -37.5 -65)" d="M 8734.06,6957.98 L 8734.06,6977.98 L 8246.91,6977.98 L 8241.16,6967.98 L 8246.91,6957.98 L 8734.06,6957.98 Z " />
<path stroke="transparent" fill="#000000" transform="matrix(0.0833333 0 0 0.0833333 -37.5 -65)" d="M 7950.56,7486.37 L 7939,7486.34 L 7933.26,7476.34 L 8229.59,6967.98 L 8241.16,6967.98 L 8246.91,6977.98 L 7950.56,7486.37 Z " />
<path stroke="transparent" fill="#000000" transform="matrix(0.0833333 0 0 0.0833333 -37.5 -65)" d="M 7933.26,7476.34 L 7939,7486.34 L 7933.23,7496.34 L 7340.45,7496.34 L 7334.68,7486.34 L 7340.43,7476.34 L 7933.26,7476.34 Z " />
<path stroke="transparent" fill="#000000" transform="matrix(0.0833333 0 0 0.0833333 -37.5 -65)" d="M 7897.33,7403.83 L 7897.33,7423.83 L 7376.35,7423.83 L 7376.35,7403.83 L 7897.33,7403.83 Z " />
<path stroke="transparent" fill="#000000" transform="matrix(0.0833333 0 0 0.0833333 -37.5 -65)" d="M 7095.62,7918.94 L 7078.31,7908.91 L 7323.12,7486.36 L 7334.68,7486.34 L 7340.45,7496.34 L 7095.62,7918.94 Z " />
<path stroke="transparent" fill="#000000" transform="matrix(0.0833333 0 0 0.0833333 -37.5 -65)" d="M 9640.54,5403.4 L 9640.54,5423.4 L 9154.48,5423.4 L 9148.73,5413.4 L 9154.48,5403.4 L 9640.54,5403.4 Z " />
<path stroke="transparent" fill="#000000" transform="matrix(0.0833333 0 0 0.0833333 -37.5 -65)" d="M 8194.33,7908.77 L 8177.01,7918.77 L 7933.23,7496.34 L 7939,7486.34 L 7950.56,7486.37 L 8194.33,7908.77 Z " />
</svg>
