<?xml version="1.0" standalone="no" ?>
<!DOCTYPE svg PUBLIC "-//W3C//DTD SVG 1.1//EN" "http://www.w3.org/Graphics/SVG/1.1/DTD/svg11.dtd">
<svg width="1170px" height="509px" viewBox="0 0 1170 509" style="background-color: #ffffff00" xmlns="http://www.w3.org/2000/svg" xmlns:xlink="http://www.w3.org/1999/xlink" version="1.1" >
<text x="0" y="0" stroke="transparent" fill="#000000" transform="matrix(0.0833333 0 0 0.0833333 1011.38 229.525)" style="font:normal normal normal 200px 'Arial'" >
O</text>
<text x="0" y="0" stroke="transparent" fill="#000000" transform="matrix(0.0833333 0 0 0.0833333 968.075 154.527)" style="font:normal normal normal 200px 'Arial'" >
O</text>
<text x="0" y="0" stroke="transparent" fill="#000000" transform="matrix(0.0833333 0 0 0.0833333 826.134 79.5283)" style="font:normal normal normal 200px 'Arial'" >
HO</text>
<text x="0" y="0" stroke="transparent" fill="#000000" transform="matrix(0.0833333 0 0 0.0833333 838.17 179.526)" style="font:normal normal normal 200px 'Arial'" >
O</text>
<text x="0" y="0" stroke="transparent" fill="#000000" transform="matrix(0.0833333 0 0 0.0833333 794.868 254.525)" style="font:normal normal normal 200px 'Arial'" >
O</text>
<text x="0" y="0" stroke="transparent" fill="#000000" transform="matrix(0.0833333 0 0 0.0833333 664.97 229.525)" style="font:normal normal normal 200px 'Arial'" >
O</text>
<text x="0" y="0" stroke="transparent" fill="#000000" transform="matrix(0.0833333 0 0 0.0833333 578.367 229.525)" style="font:normal normal normal 200px 'Arial'" >
O</text>
<text x="0" y="0" stroke="transparent" fill="#000000" transform="matrix(0.0833333 0 0 0.0833333 621.668 154.527)" style="font:normal normal normal 200px 'Arial'" >
O</text>
<text x="0" y="0" stroke="transparent" fill="#000000" transform="matrix(0.0833333 0 0 0.0833333 188.656 304.524)" style="font:normal normal normal 200px 'Arial'" >
O</text>
<text x="0" y="0" stroke="transparent" fill="#000000" transform="matrix(0.0833333 0 0 0.0833333 231.957 379.522)" style="font:normal normal normal 200px 'Arial'" >
O</text>
<text x="0" y="0" stroke="transparent" fill="#000000" transform="matrix(0.0833333 0 0 0.0833333 188.656 504.523)" style="font:normal normal normal 200px 'Arial'" >
OH</text>
<text x="0" y="0" stroke="transparent" fill="#000000" transform="matrix(0.0833333 0 0 0.0833333 90.0165 454.524)" style="font:normal normal normal 200px 'Arial'" >
HO</text>
<text x="0" y="0" stroke="transparent" fill="#000000" transform="matrix(0.0833333 0 0 0.0833333 102.053 354.523)" style="font:normal normal normal 200px 'Arial'" >
O</text>
<text x="0" y="0" stroke="transparent" fill="#000000" transform="matrix(0.0833333 0 0 0.0833333 145.354 279.524)" style="font:normal normal normal 200px 'Arial'" >
O</text>
<text x="0" y="0" stroke="transparent" fill="#000000" transform="matrix(0.0833333 0 0 0.0833333 102.053 154.527)" style="font:normal normal normal 200px 'Arial'" >
OH</text>
<text x="0" y="0" stroke="transparent" fill="#000000" transform="matrix(0.0833333 0 0 0.0833333 3.41667 204.526)" style="font:normal normal normal 200px 'Arial'" >
HO</text>
<text x="0" y="0" stroke="transparent" fill="#000000" transform="matrix(0.0833333 0 0 0.0833333 3.41667 304.524)" style="font:normal normal normal 200px 'Arial'" >
HO</text>
<text x="0" y="0" stroke="transparent" fill="#000000" transform="matrix(0.0833333 0 0 0.0833333 318.561 379.522)" style="font:normal normal normal 200px 'Arial'" >
OH</text>
<text x="0" y="0" stroke="transparent" fill="#000000" transform="matrix(0.0833333 0 0 0.0833333 566.331 329.523)" style="font:normal normal normal 200px 'Arial'" >
HO</text>
<text x="0" y="0" stroke="transparent" fill="#000000" transform="matrix(0.0833333 0 0 0.0833333 664.97 379.522)" style="font:normal normal normal 200px 'Arial'" >
OH</text>
<text x="0" y="0" stroke="transparent" fill="#000000" transform="matrix(0.0833333 0 0 0.0833333 751.567 329.523)" style="font:normal normal normal 200px 'Arial'" >
OH</text>
<text x="0" y="0" stroke="transparent" fill="#000000" transform="matrix(0.0833333 0 0 0.0833333 881.471 304.524)" style="font:normal normal normal 200px 'Arial'" >
OH</text>
<text x="0" y="0" stroke="transparent" fill="#000000" transform="matrix(0.0833333 0 0 0.0833333 968.075 254.525)" style="font:normal normal normal 200px 'Arial'" >
OH</text>
<text x="0" y="0" stroke="transparent" fill="#000000" transform="matrix(0.0833333 0 0 0.0833333 1054.67 104.528)" style="font:normal normal normal 200px 'Arial'" >
OH</text>
<text x="0" y="0" stroke="transparent" fill="#000000" transform="matrix(0.0833333 0 0 0.0833333 1141.28 154.527)" style="font:normal normal normal 200px 'Arial'" >
OH</text>
<text x="0" y="0" stroke="transparent" fill="#000000" transform="matrix(0.0833333 0 0 0.0833333 1141.28 254.525)" style="font:normal normal normal 200px 'Arial'" >
OH</text>
<path stroke="transparent" fill="#000000" transform="matrix(0.0833333 0 0 0.0833333 -209.583 -131)" d="M 15309.1,5148.28 L 15189.1,5148.28 L 15190.9,5128.28 L 15307.3,5128.28 L 15309.1,5148.28 Z " />
<path stroke="transparent" fill="#000000" transform="matrix(0.0833333 0 0 0.0833333 -209.583 -131)" d="M 15303.7,5089.85 L 15194.4,5089.85 L 15196.3,5069.85 L 15301.9,5069.85 L 15303.7,5089.85 Z " />
<path stroke="transparent" fill="#000000" transform="matrix(0.0833333 0 0 0.0833333 -209.583 -131)" d="M 15298.4,5031.42 L 15199.8,5031.42 L 15201.6,5011.42 L 15296.6,5011.42 L 15298.4,5031.42 Z " />
<path stroke="transparent" fill="#000000" transform="matrix(0.0833333 0 0 0.0833333 -209.583 -131)" d="M 15293,4972.98 L 15205.1,4972.98 L 15207,4952.98 L 15291.2,4952.98 L 15293,4972.98 Z " />
<path stroke="transparent" fill="#000000" transform="matrix(0.0833333 0 0 0.0833333 -209.583 -131)" d="M 15287.7,4914.55 L 15210.5,4914.55 L 15212.3,4894.55 L 15285.9,4894.55 L 15287.7,4914.55 Z " />
<path stroke="transparent" fill="#000000" transform="matrix(0.0833333 0 0 0.0833333 -209.583 -131)" d="M 15282.3,4856.12 L 15215.9,4856.12 L 15217.7,4836.12 L 15280.5,4836.12 L 15282.3,4856.12 Z " />
<path stroke="transparent" fill="#000000" transform="matrix(0.0833333 0 0 0.0833333 -209.583 -131)" d="M 15277,4797.68 L 15221.2,4797.68 L 15223,4777.68 L 15275.1,4777.68 L 15277,4797.68 Z " />
<path stroke="transparent" fill="#000000" transform="matrix(0.0833333 0 0 0.0833333 -209.583 -131)" d="M 15271.6,4739.25 L 15226.6,4739.25 L 15228.4,4719.25 L 15269.8,4719.25 L 15271.6,4739.25 Z " />
<path stroke="transparent" fill="#000000" transform="matrix(0.0833333 0 0 0.0833333 -209.583 -131)" d="M 15266.3,4680.82 L 15231.9,4680.82 L 15233.7,4660.82 L 15264.4,4660.82 L 15266.3,4680.82 Z " />
<path stroke="transparent" fill="#000000" transform="matrix(0.0833333 0 0 0.0833333 -209.583 -131)" d="M 15260.9,4622.38 L 15237.3,4622.38 L 15239.1,4602.38 L 15259.1,4602.38 L 15260.9,4622.38 Z " />
<path stroke="transparent" fill="#000000" transform="matrix(0.0833333 0 0 0.0833333 -209.583 -131)" d="M 14824.5,4314.72 L 14834.5,4297.4 L 15249.1,4536.75 L 15249.1,4559.84 L 14824.5,4314.72 Z " />
<path stroke="transparent" fill="#000000" transform="matrix(0.0833333 0 0 0.0833333 -209.583 -131)" d="M 14739.5,4143.14 L 14719.5,4143.14 L 14719.5,3654.74 L 14729.5,3648.31 L 14739.5,3654.09 L 14739.5,4143.14 Z " />
<path stroke="transparent" fill="#000000" transform="matrix(0.0833333 0 0 0.0833333 -209.583 -131)" d="M 14279.9,3458.04 L 14339.9,3354.11 L 14730.1,3636.44 L 14729.5,3648.31 L 14719.5,3654.74 L 14279.9,3458.04 Z " />
<path stroke="transparent" fill="#000000" transform="matrix(0.0833333 0 0 0.0833333 -209.583 -131)" d="M 14080.3,3353.86 L 14140.3,3457.79 L 13700.3,3654.74 L 13690.3,3648.31 L 13689.7,3636.44 L 14080.3,3353.86 Z " />
<path stroke="transparent" fill="#000000" transform="matrix(0.0833333 0 0 0.0833333 -209.583 -131)" d="M 13689.7,3636.44 L 13690.3,3648.31 L 13680.3,3654.09 L 13170.7,3359.87 L 13170.7,3336.77 L 13689.7,3636.44 Z " />
<path stroke="transparent" fill="#000000" transform="matrix(0.0833333 0 0 0.0833333 -209.583 -131)" d="M 13110.7,2802.42 L 13230.7,2802.42 L 13228.6,2822.42 L 13112.7,2822.42 L 13110.7,2802.42 Z " />
<path stroke="transparent" fill="#000000" transform="matrix(0.0833333 0 0 0.0833333 -209.583 -131)" d="M 13116.7,2861.4 L 13224.7,2861.4 L 13222.6,2881.4 L 13118.7,2881.4 L 13116.7,2861.4 Z " />
<path stroke="transparent" fill="#000000" transform="matrix(0.0833333 0 0 0.0833333 -209.583 -131)" d="M 13122.6,2920.37 L 13218.7,2920.37 L 13216.6,2940.37 L 13124.7,2940.37 L 13122.6,2920.37 Z " />
<path stroke="transparent" fill="#000000" transform="matrix(0.0833333 0 0 0.0833333 -209.583 -131)" d="M 13128.6,2979.35 L 13212.7,2979.35 L 13210.6,2999.35 L 13130.7,2999.35 L 13128.6,2979.35 Z " />
<path stroke="transparent" fill="#000000" transform="matrix(0.0833333 0 0 0.0833333 -209.583 -131)" d="M 13134.6,3038.33 L 13206.7,3038.33 L 13204.6,3058.33 L 13136.7,3058.33 L 13134.6,3038.33 Z " />
<path stroke="transparent" fill="#000000" transform="matrix(0.0833333 0 0 0.0833333 -209.583 -131)" d="M 13140.6,3097.3 L 13200.7,3097.3 L 13198.6,3117.3 L 13142.7,3117.3 L 13140.6,3097.3 Z " />
<path stroke="transparent" fill="#000000" transform="matrix(0.0833333 0 0 0.0833333 -209.583 -131)" d="M 13146.6,3156.28 L 13194.7,3156.28 L 13192.6,3176.28 L 13148.7,3176.28 L 13146.6,3156.28 Z " />
<path stroke="transparent" fill="#000000" transform="matrix(0.0833333 0 0 0.0833333 -209.583 -131)" d="M 13152.6,3215.26 L 13188.7,3215.26 L 13186.7,3235.26 L 13154.7,3235.26 L 13152.6,3215.26 Z " />
<path stroke="transparent" fill="#000000" transform="matrix(0.0833333 0 0 0.0833333 -209.583 -131)" d="M 13158.6,3274.23 L 13182.7,3274.23 L 13180.7,3294.23 L 13160.7,3294.23 L 13158.6,3274.23 Z " />
<path stroke="transparent" fill="#000000" transform="matrix(0.0833333 0 0 0.0833333 -209.583 -131)" d="M 12746.1,2514.75 L 12756.1,2497.43 L 13175.7,2739.67 L 13165.7,2756.99 L 12746.1,2514.75 Z " />
<path stroke="transparent" fill="#000000" transform="matrix(0.0833333 0 0 0.0833333 -209.583 -131)" d="M 12748.7,3603.5 L 12738.7,3586.18 L 13170.7,3336.77 L 13170.7,3359.87 L 12748.7,3603.5 Z " />
<path stroke="transparent" fill="#000000" transform="matrix(0.0833333 0 0 0.0833333 -209.583 -131)" d="M 12641,3768.15 L 12661,3768.15 L 12661,4242.53 L 12641,4254.08 L 12641,3768.15 Z " />
<path stroke="transparent" fill="#000000" transform="matrix(0.0833333 0 0 0.0833333 -209.583 -131)" d="M 12254,4546.79 L 12194,4442.86 L 12212.5,4434.83 L 12270.2,4534.81 L 12254,4546.79 Z " />
<path stroke="transparent" fill="#000000" transform="matrix(0.0833333 0 0 0.0833333 -209.583 -131)" d="M 12302.5,4510.95 L 12249.3,4418.83 L 12267.7,4410.81 L 12318.7,4498.98 L 12302.5,4510.95 Z " />
<path stroke="transparent" fill="#000000" transform="matrix(0.0833333 0 0 0.0833333 -209.583 -131)" d="M 12350.9,4475.11 L 12304.5,4394.81 L 12323,4386.78 L 12367.1,4463.14 L 12350.9,4475.11 Z " />
<path stroke="transparent" fill="#000000" transform="matrix(0.0833333 0 0 0.0833333 -209.583 -131)" d="M 12399.3,4439.28 L 12359.8,4370.78 L 12378.3,4362.75 L 12415.5,4427.31 L 12399.3,4439.28 Z " />
<path stroke="transparent" fill="#000000" transform="matrix(0.0833333 0 0 0.0833333 -209.583 -131)" d="M 12447.8,4403.44 L 12415,4346.75 L 12433.5,4338.73 L 12464,4391.47 L 12447.8,4403.44 Z " />
<path stroke="transparent" fill="#000000" transform="matrix(0.0833333 0 0 0.0833333 -209.583 -131)" d="M 12496.2,4367.61 L 12470.3,4322.73 L 12488.8,4314.7 L 12512.4,4355.64 L 12496.2,4367.61 Z " />
<path stroke="transparent" fill="#000000" transform="matrix(0.0833333 0 0 0.0833333 -209.583 -131)" d="M 12544.6,4331.77 L 12525.6,4298.7 L 12544,4290.67 L 12560.8,4319.8 L 12544.6,4331.77 Z " />
<path stroke="transparent" fill="#000000" transform="matrix(0.0833333 0 0 0.0833333 -209.583 -131)" d="M 12593.1,4295.94 L 12580.8,4274.67 L 12599.3,4266.64 L 12609.3,4283.96 L 12593.1,4295.94 Z " />
<path stroke="transparent" fill="#000000" transform="matrix(0.0833333 0 0 0.0833333 -209.583 -131)" d="M 11606.8,4256.96 L 11616.8,4239.64 L 12043.8,4486.16 L 12033.8,4503.48 L 11606.8,4256.96 Z " />
<path stroke="transparent" fill="#000000" transform="matrix(0.0833333 0 0 0.0833333 -209.583 -131)" d="M 11535,4223.39 L 11595,4327.31 L 11576.6,4335.55 L 11518.7,4235.15 L 11535,4223.39 Z " />
<path stroke="transparent" fill="#000000" transform="matrix(0.0833333 0 0 0.0833333 -209.583 -131)" d="M 11486.9,4258.07 L 11540.9,4351.6 L 11522.6,4359.84 L 11470.6,4269.83 L 11486.9,4258.07 Z " />
<path stroke="transparent" fill="#000000" transform="matrix(0.0833333 0 0 0.0833333 -209.583 -131)" d="M 11438.8,4292.75 L 11486.8,4375.9 L 11468.5,4384.14 L 11422.5,4304.51 L 11438.8,4292.75 Z " />
<path stroke="transparent" fill="#000000" transform="matrix(0.0833333 0 0 0.0833333 -209.583 -131)" d="M 11390.7,4327.43 L 11432.7,4400.19 L 11414.4,4408.43 L 11374.4,4339.19 L 11390.7,4327.43 Z " />
<path stroke="transparent" fill="#000000" transform="matrix(0.0833333 0 0 0.0833333 -209.583 -131)" d="M 11342.7,4362.11 L 11378.7,4424.49 L 11360.3,4432.73 L 11326.4,4373.87 L 11342.7,4362.11 Z " />
<path stroke="transparent" fill="#000000" transform="matrix(0.0833333 0 0 0.0833333 -209.583 -131)" d="M 11294.6,4396.79 L 11324.6,4448.79 L 11306.3,4457.02 L 11278.3,4408.55 L 11294.6,4396.79 Z " />
<path stroke="transparent" fill="#000000" transform="matrix(0.0833333 0 0 0.0833333 -209.583 -131)" d="M 11246.5,4431.47 L 11270.5,4473.08 L 11252.2,4481.32 L 11230.2,4443.23 L 11246.5,4431.47 Z " />
<path stroke="transparent" fill="#000000" transform="matrix(0.0833333 0 0 0.0833333 -209.583 -131)" d="M 11198.4,4466.15 L 11216.5,4497.38 L 11198.1,4505.62 L 11182.1,4477.91 L 11198.4,4466.15 Z " />
<path stroke="transparent" fill="#000000" transform="matrix(0.0833333 0 0 0.0833333 -209.583 -131)" d="M 11150.4,4500.83 L 11162.4,4521.67 L 11144.1,4529.91 L 11134.1,4512.59 L 11150.4,4500.83 Z " />
<path stroke="transparent" fill="#000000" transform="matrix(0.0833333 0 0 0.0833333 -209.583 -131)" d="M 10667.7,4314.72 L 10677.7,4297.4 L 11102.2,4542.52 L 11082.2,4554.07 L 10667.7,4314.72 Z " />
<path stroke="transparent" fill="#000000" transform="matrix(0.0833333 0 0 0.0833333 -209.583 -131)" d="M 10468,4297.15 L 10478,4314.47 L 10063,4554.07 L 10043,4542.52 L 10468,4297.15 Z " />
<path stroke="transparent" fill="#000000" transform="matrix(0.0833333 0 0 0.0833333 -209.583 -131)" d="M 9603.44,4358.02 L 9663.44,4254.1 L 9679.6,4266.11 L 9621.92,4366.01 L 9603.44,4358.02 Z " />
<path stroke="transparent" fill="#000000" transform="matrix(0.0833333 0 0 0.0833333 -209.583 -131)" d="M 9657.62,4381.44 L 9710.81,4289.31 L 9726.97,4301.32 L 9676.11,4389.42 L 9657.62,4381.44 Z " />
<path stroke="transparent" fill="#000000" transform="matrix(0.0833333 0 0 0.0833333 -209.583 -131)" d="M 9711.81,4404.85 L 9758.18,4324.52 L 9774.34,4336.54 L 9730.29,4412.84 L 9711.81,4404.85 Z " />
<path stroke="transparent" fill="#000000" transform="matrix(0.0833333 0 0 0.0833333 -209.583 -131)" d="M 9765.99,4428.27 L 9805.56,4359.74 L 9821.72,4371.75 L 9784.47,4436.26 L 9765.99,4428.27 Z " />
<path stroke="transparent" fill="#000000" transform="matrix(0.0833333 0 0 0.0833333 -209.583 -131)" d="M 9820.17,4451.69 L 9852.93,4394.95 L 9869.09,4406.97 L 9838.66,4459.68 L 9820.17,4451.69 Z " />
<path stroke="transparent" fill="#000000" transform="matrix(0.0833333 0 0 0.0833333 -209.583 -131)" d="M 9874.36,4475.11 L 9900.3,4430.17 L 9916.46,4442.18 L 9892.84,4483.09 L 9874.36,4475.11 Z " />
<path stroke="transparent" fill="#000000" transform="matrix(0.0833333 0 0 0.0833333 -209.583 -131)" d="M 9928.54,4498.52 L 9947.68,4465.38 L 9963.84,4477.39 L 9947.02,4506.51 L 9928.54,4498.52 Z " />
<path stroke="transparent" fill="#000000" transform="matrix(0.0833333 0 0 0.0833333 -209.583 -131)" d="M 9982.73,4521.94 L 9995.05,4500.6 L 10011.2,4512.61 L 10001.2,4529.93 L 9982.73,4521.94 Z " />
<path stroke="transparent" fill="#000000" transform="matrix(0.0833333 0 0 0.0833333 -209.583 -131)" d="M 9523.4,3714.16 L 9543.4,3586.93 L 9543.4,4143.14 L 9523.4,4143.14 L 9523.4,3714.16 Z " />
<path stroke="transparent" fill="#000000" transform="matrix(0.0833333 0 0 0.0833333 -209.583 -131)" d="M 9930.42,3365.99 L 9940.42,3383.31 L 9502.4,3636.19 L 9492.4,3618.87 L 9930.42,3365.99 Z " />
<path stroke="transparent" fill="#000000" transform="matrix(0.0833333 0 0 0.0833333 -209.583 -131)" d="M 9966.42,3428.34 L 9976.42,3445.66 L 9538.4,3698.54 L 9528.4,3681.22 L 9966.42,3428.34 Z " />
<path stroke="transparent" fill="#000000" transform="matrix(0.0833333 0 0 0.0833333 -209.583 -131)" d="M 9543.4,3586.93 L 9523.4,3714.16 L 9023.78,3367.39 L 9013.78,3348.32 L 9035.3,3347.45 L 9543.4,3586.93 Z " />
<path stroke="transparent" fill="#000000" transform="matrix(0.0833333 0 0 0.0833333 -209.583 -131)" d="M 9523.4,3042.55 L 9543.4,3054.1 L 9035.3,3347.45 L 9013.78,3348.32 L 9013.78,3336.77 L 9523.4,3042.55 Z " />
<path stroke="transparent" fill="#000000" transform="matrix(0.0833333 0 0 0.0833333 -209.583 -131)" d="M 9523.4,2454.11 L 9543.4,2442.57 L 9543.4,3054.1 L 9523.4,3042.55 L 9523.4,2454.11 Z " />
<path stroke="transparent" fill="#000000" transform="matrix(0.0833333 0 0 0.0833333 -209.583 -131)" d="M 9013.78,2159.89 L 9013.78,2148.35 L 9027.44,2144.69 L 9543.4,2442.57 L 9523.4,2454.11 L 9013.78,2159.89 Z " />
<path stroke="transparent" fill="#000000" transform="matrix(0.0833333 0 0 0.0833333 -209.583 -131)" d="M 9305.12,1623.73 L 9322.44,1633.73 L 9027.44,2144.69 L 9013.78,2148.35 L 9013.78,2128.35 L 9305.12,1623.73 Z " />
<path stroke="transparent" fill="#000000" transform="matrix(0.0833333 0 0 0.0833333 -209.583 -131)" d="M 8705.13,1633.73 L 8722.45,1623.73 L 9013.78,2128.35 L 9013.78,2148.35 L 9000.12,2144.69 L 8705.13,1633.73 Z " />
<path stroke="transparent" fill="#000000" transform="matrix(0.0833333 0 0 0.0833333 -209.583 -131)" d="M 8504.16,2454.11 L 8484.16,2442.57 L 9000.12,2144.69 L 9013.78,2148.35 L 9013.78,2159.89 L 8504.16,2454.11 Z " />
<path stroke="transparent" fill="#000000" transform="matrix(0.0833333 0 0 0.0833333 -209.583 -131)" d="M 8484.16,2442.57 L 8504.16,2454.11 L 8504.16,3042.55 L 8494.16,3048.33 L 8484.16,3028.75 L 8484.16,2442.57 Z " />
<path stroke="transparent" fill="#000000" transform="matrix(0.0833333 0 0 0.0833333 -209.583 -131)" d="M 8494.16,3059.87 L 8494.16,3048.33 L 8504.16,3042.55 L 9013.78,3336.77 L 9013.78,3348.32 L 9003.78,3354.09 L 8494.16,3059.87 Z " />
<path stroke="transparent" fill="#000000" transform="matrix(0.0833333 0 0 0.0833333 -209.583 -131)" d="M 7984.54,3354.09 L 7974.54,3348.32 L 7974.54,3336.77 L 8472.21,3049.45 L 8494.16,3048.33 L 8494.16,3059.87 L 7984.54,3354.09 Z " />
<path stroke="transparent" fill="#000000" transform="matrix(0.0833333 0 0 0.0833333 -209.583 -131)" d="M 7454.93,3059.87 L 7454.93,3036.78 L 7974.54,3336.77 L 7974.54,3348.32 L 7964.54,3354.09 L 7454.93,3059.87 Z " />
<path stroke="transparent" fill="#000000" transform="matrix(0.0833333 0 0 0.0833333 -209.583 -131)" d="M 7449.93,3140.13 L 7459.93,3122.81 L 7907.54,3381.23 L 7897.54,3398.55 L 7449.93,3140.13 Z " />
<path stroke="transparent" fill="#000000" transform="matrix(0.0833333 0 0 0.0833333 -209.583 -131)" d="M 6945.35,3354.09 L 6925.35,3342.55 L 7454.93,3036.78 L 7454.93,3059.87 L 6945.35,3354.09 Z " />
<path stroke="transparent" fill="#000000" transform="matrix(0.0833333 0 0 0.0833333 -209.583 -131)" d="M 6925.35,3342.55 L 6945.35,3354.09 L 6945.35,3942.53 L 6935.35,3948.31 L 6925.35,3942.53 L 6925.35,3342.55 Z " />
<path stroke="transparent" fill="#000000" transform="matrix(0.0833333 0 0 0.0833333 -209.583 -131)" d="M 6925.35,3942.53 L 6935.35,3948.31 L 6935.35,3959.86 L 6425.73,4254.08 L 6415.73,4248.3 L 6427.24,4230.11 L 6925.35,3942.53 Z " />
<path stroke="transparent" fill="#000000" transform="matrix(0.0833333 0 0 0.0833333 -209.583 -131)" d="M 6355.73,3648.31 L 6475.73,3648.31 L 6427.24,4230.11 L 6415.73,4248.3 L 6404.21,4230.11 L 6355.73,3648.31 Z " />
<path stroke="transparent" fill="#000000" transform="matrix(0.0833333 0 0 0.0833333 -209.583 -131)" d="M 5896.11,3959.86 L 5896.11,3936.76 L 6404.21,4230.11 L 6415.73,4248.3 L 6405.73,4254.08 L 5896.11,3959.86 Z " />
<path stroke="transparent" fill="#000000" transform="matrix(0.0833333 0 0 0.0833333 -209.583 -131)" d="M 5386.49,4254.08 L 5366.49,4242.53 L 5896.11,3936.76 L 5896.11,3959.86 L 5386.49,4254.08 Z " />
<path stroke="transparent" fill="#000000" transform="matrix(0.0833333 0 0 0.0833333 -209.583 -131)" d="M 5366.49,4242.53 L 5386.49,4254.08 L 5386.49,4842.52 L 5376.49,4848.29 L 5366.49,4841.88 L 5366.49,4242.53 Z " />
<path stroke="transparent" fill="#000000" transform="matrix(0.0833333 0 0 0.0833333 -209.583 -131)" d="M 4979.49,5146.77 L 4919.49,5042.85 L 5366.49,4841.88 L 5376.49,4848.29 L 5377.04,4860.16 L 4979.49,5146.77 Z " />
<path stroke="transparent" fill="#000000" transform="matrix(0.0833333 0 0 0.0833333 -209.583 -131)" d="M 4796.87,5268.12 L 4916.87,5268.12 L 4914.52,5288.12 L 4799.22,5288.12 L 4796.87,5268.12 Z " />
<path stroke="transparent" fill="#000000" transform="matrix(0.0833333 0 0 0.0833333 -209.583 -131)" d="M 4803.68,5326.14 L 4910.06,5326.14 L 4907.72,5346.14 L 4806.02,5346.14 L 4803.68,5326.14 Z " />
<path stroke="transparent" fill="#000000" transform="matrix(0.0833333 0 0 0.0833333 -209.583 -131)" d="M 4810.49,5384.16 L 4903.25,5384.16 L 4900.91,5404.16 L 4812.83,5404.16 L 4810.49,5384.16 Z " />
<path stroke="transparent" fill="#000000" transform="matrix(0.0833333 0 0 0.0833333 -209.583 -131)" d="M 4817.29,5442.18 L 4896.45,5442.18 L 4894.1,5462.18 L 4819.64,5462.18 L 4817.29,5442.18 Z " />
<path stroke="transparent" fill="#000000" transform="matrix(0.0833333 0 0 0.0833333 -209.583 -131)" d="M 4824.1,5500.19 L 4889.64,5500.19 L 4887.29,5520.19 L 4826.45,5520.19 L 4824.1,5500.19 Z " />
<path stroke="transparent" fill="#000000" transform="matrix(0.0833333 0 0 0.0833333 -209.583 -131)" d="M 4830.91,5558.21 L 4882.83,5558.21 L 4880.49,5578.21 L 4833.25,5578.21 L 4830.91,5558.21 Z " />
<path stroke="transparent" fill="#000000" transform="matrix(0.0833333 0 0 0.0833333 -209.583 -131)" d="M 4837.72,5616.23 L 4876.02,5616.23 L 4873.68,5636.23 L 4840.06,5636.23 L 4837.72,5616.23 Z " />
<path stroke="transparent" fill="#000000" transform="matrix(0.0833333 0 0 0.0833333 -209.583 -131)" d="M 4844.52,5674.25 L 4869.22,5674.25 L 4866.87,5694.25 L 4846.87,5694.25 L 4844.52,5674.25 Z " />
<path stroke="transparent" fill="#000000" transform="matrix(0.0833333 0 0 0.0833333 -209.583 -131)" d="M 5288.87,5986.13 L 5278.87,6003.45 L 4856.87,5759.82 L 4856.87,5736.72 L 5288.87,5986.13 Z " />
<path stroke="transparent" fill="#000000" transform="matrix(0.0833333 0 0 0.0833333 -209.583 -131)" d="M 5386.49,6654.07 L 5366.49,6642.52 L 5366.49,6168.1 L 5386.49,6168.1 L 5386.49,6654.07 Z " />
<path stroke="transparent" fill="#000000" transform="matrix(0.0833333 0 0 0.0833333 -209.583 -131)" d="M 5366.49,6642.52 L 5386.49,6654.07 L 4856.87,6959.83 L 4856.87,6936.74 L 5366.49,6642.52 Z " />
<path stroke="transparent" fill="#000000" transform="matrix(0.0833333 0 0 0.0833333 -209.583 -131)" d="M 4916.87,7443.11 L 4796.87,7443.11 L 4799.14,7423.11 L 4914.6,7423.11 L 4916.87,7443.11 Z " />
<path stroke="transparent" fill="#000000" transform="matrix(0.0833333 0 0 0.0833333 -209.583 -131)" d="M 4910.05,7383 L 4803.69,7383 L 4805.96,7363 L 4907.78,7363 L 4910.05,7383 Z " />
<path stroke="transparent" fill="#000000" transform="matrix(0.0833333 0 0 0.0833333 -209.583 -131)" d="M 4903.23,7322.9 L 4810.51,7322.9 L 4812.78,7302.9 L 4900.96,7302.9 L 4903.23,7322.9 Z " />
<path stroke="transparent" fill="#000000" transform="matrix(0.0833333 0 0 0.0833333 -209.583 -131)" d="M 4896.41,7262.79 L 4817.33,7262.79 L 4819.6,7242.79 L 4894.14,7242.79 L 4896.41,7262.79 Z " />
<path stroke="transparent" fill="#000000" transform="matrix(0.0833333 0 0 0.0833333 -209.583 -131)" d="M 4889.6,7202.69 L 4824.14,7202.69 L 4826.41,7182.69 L 4887.33,7182.69 L 4889.6,7202.69 Z " />
<path stroke="transparent" fill="#000000" transform="matrix(0.0833333 0 0 0.0833333 -209.583 -131)" d="M 4882.78,7142.58 L 4830.96,7142.58 L 4833.23,7122.58 L 4880.51,7122.58 L 4882.78,7142.58 Z " />
<path stroke="transparent" fill="#000000" transform="matrix(0.0833333 0 0 0.0833333 -209.583 -131)" d="M 4875.96,7082.48 L 4837.78,7082.48 L 4840.05,7062.48 L 4873.69,7062.48 L 4875.96,7082.48 Z " />
<path stroke="transparent" fill="#000000" transform="matrix(0.0833333 0 0 0.0833333 -209.583 -131)" d="M 4869.14,7022.37 L 4844.6,7022.37 L 4846.87,7002.37 L 4866.87,7002.37 L 4869.14,7022.37 Z " />
<path stroke="transparent" fill="#000000" transform="matrix(0.0833333 0 0 0.0833333 -209.583 -131)" d="M 4856.87,6936.74 L 4856.87,6959.83 L 4327.25,6654.07 L 4347.25,6642.52 L 4856.87,6936.74 Z " />
<path stroke="transparent" fill="#000000" transform="matrix(0.0833333 0 0 0.0833333 -209.583 -131)" d="M 3940.24,6946.78 L 3880.24,6842.86 L 3898.7,6834.83 L 3956.42,6934.81 L 3940.24,6946.78 Z " />
<path stroke="transparent" fill="#000000" transform="matrix(0.0833333 0 0 0.0833333 -209.583 -131)" d="M 3988.68,6910.94 L 3935.5,6818.83 L 3953.96,6810.8 L 4004.86,6898.97 L 3988.68,6910.94 Z " />
<path stroke="transparent" fill="#000000" transform="matrix(0.0833333 0 0 0.0833333 -209.583 -131)" d="M 4037.11,6875.11 L 3990.75,6794.8 L 4009.21,6786.77 L 4053.3,6863.14 L 4037.11,6875.11 Z " />
<path stroke="transparent" fill="#000000" transform="matrix(0.0833333 0 0 0.0833333 -209.583 -131)" d="M 4085.55,6839.27 L 4046,6770.77 L 4064.46,6762.75 L 4101.73,6827.3 L 4085.55,6839.27 Z " />
<path stroke="transparent" fill="#000000" transform="matrix(0.0833333 0 0 0.0833333 -209.583 -131)" d="M 4133.99,6803.44 L 4101.26,6746.74 L 4119.72,6738.72 L 4150.17,6791.46 L 4133.99,6803.44 Z " />
<path stroke="transparent" fill="#000000" transform="matrix(0.0833333 0 0 0.0833333 -209.583 -131)" d="M 4182.42,6767.6 L 4156.51,6722.72 L 4174.97,6714.69 L 4198.61,6755.63 L 4182.42,6767.6 Z " />
<path stroke="transparent" fill="#000000" transform="matrix(0.0833333 0 0 0.0833333 -209.583 -131)" d="M 4230.86,6731.76 L 4211.77,6698.69 L 4230.23,6690.66 L 4247.04,6719.79 L 4230.86,6731.76 Z " />
<path stroke="transparent" fill="#000000" transform="matrix(0.0833333 0 0 0.0833333 -209.583 -131)" d="M 4279.3,6695.93 L 4267.02,6674.66 L 4285.48,6666.63 L 4295.48,6683.95 L 4279.3,6695.93 Z " />
<path stroke="transparent" fill="#000000" transform="matrix(0.0833333 0 0 0.0833333 -209.583 -131)" d="M 4347.25,6642.52 L 4327.25,6654.07 L 4327.25,6054.69 L 4337.25,6048.26 L 4347.25,6054.04 L 4347.25,6642.52 Z " />
<path stroke="transparent" fill="#000000" transform="matrix(0.0833333 0 0 0.0833333 -209.583 -131)" d="M 4347.25,6054.04 L 4337.25,6048.26 L 4337.81,6036.39 L 4856.87,5736.72 L 4856.87,5759.82 L 4347.25,6054.04 Z " />
<path stroke="transparent" fill="#000000" transform="matrix(0.0833333 0 0 0.0833333 -209.583 -131)" d="M 3887.67,5857.99 L 3947.67,5754.06 L 4337.81,6036.39 L 4337.25,6048.26 L 4327.25,6054.69 L 3887.67,5857.99 Z " />
<path stroke="transparent" fill="#000000" transform="matrix(0.0833333 0 0 0.0833333 -209.583 -131)" d="M 3877.63,5643.1 L 3757.63,5643.1 L 3807.08,5153.74 L 3817.63,5148.28 L 3828.18,5153.74 L 3877.63,5643.1 Z " />
<path stroke="transparent" fill="#000000" transform="matrix(0.0833333 0 0 0.0833333 -209.583 -131)" d="M 4232.65,4897.13 L 4242.65,4914.45 L 3828.18,5153.74 L 3817.63,5148.28 L 3817.63,5136.74 L 4232.65,4897.13 Z " />
<path stroke="transparent" fill="#000000" transform="matrix(0.0833333 0 0 0.0833333 -209.583 -131)" d="M 4347.25,4743.12 L 4327.25,4743.12 L 4327.25,4254.08 L 4347.25,4242.53 L 4347.25,4743.12 Z " />
<path stroke="transparent" fill="#000000" transform="matrix(0.0833333 0 0 0.0833333 -209.583 -131)" d="M 4826.87,3896.35 L 4886.87,4000.27 L 4868.63,4008.68 L 4810.47,3907.93 L 4826.87,3896.35 Z " />
<path stroke="transparent" fill="#000000" transform="matrix(0.0833333 0 0 0.0833333 -209.583 -131)" d="M 4778.93,3930.2 L 4833.58,4024.86 L 4815.34,4033.27 L 4762.53,3941.79 L 4778.93,3930.2 Z " />
<path stroke="transparent" fill="#000000" transform="matrix(0.0833333 0 0 0.0833333 -209.583 -131)" d="M 4730.99,3964.06 L 4780.29,4049.44 L 4762.05,4057.86 L 4714.59,3975.65 L 4730.99,3964.06 Z " />
<path stroke="transparent" fill="#000000" transform="matrix(0.0833333 0 0 0.0833333 -209.583 -131)" d="M 4683.05,3997.92 L 4727,4074.03 L 4708.76,4082.44 L 4666.65,4009.5 L 4683.05,3997.92 Z " />
<path stroke="transparent" fill="#000000" transform="matrix(0.0833333 0 0 0.0833333 -209.583 -131)" d="M 4635.12,4031.77 L 4673.71,4098.62 L 4655.47,4107.03 L 4618.71,4043.36 L 4635.12,4031.77 Z " />
<path stroke="transparent" fill="#000000" transform="matrix(0.0833333 0 0 0.0833333 -209.583 -131)" d="M 4587.18,4065.63 L 4620.42,4123.2 L 4602.18,4131.62 L 4570.77,4077.22 L 4587.18,4065.63 Z " />
<path stroke="transparent" fill="#000000" transform="matrix(0.0833333 0 0 0.0833333 -209.583 -131)" d="M 4539.24,4099.49 L 4567.12,4147.79 L 4548.89,4156.2 L 4522.83,4111.07 L 4539.24,4099.49 Z " />
<path stroke="transparent" fill="#000000" transform="matrix(0.0833333 0 0 0.0833333 -209.583 -131)" d="M 4491.3,4133.34 L 4513.83,4172.38 L 4495.6,4180.79 L 4474.89,4144.93 L 4491.3,4133.34 Z " />
<path stroke="transparent" fill="#000000" transform="matrix(0.0833333 0 0 0.0833333 -209.583 -131)" d="M 4443.36,4167.2 L 4460.54,4196.96 L 4442.31,4205.38 L 4426.96,4178.79 L 4443.36,4167.2 Z " />
<path stroke="transparent" fill="#000000" transform="matrix(0.0833333 0 0 0.0833333 -209.583 -131)" d="M 4395.42,4201.06 L 4407.25,4221.55 L 4389.02,4229.96 L 4379.02,4212.64 L 4395.42,4201.06 Z " />
<path stroke="transparent" fill="#000000" transform="matrix(0.0833333 0 0 0.0833333 -209.583 -131)" d="M 4347.25,4242.53 L 4327.25,4254.08 L 3817.63,3959.86 L 3817.63,3948.31 L 3828.2,3942.86 L 4347.25,4242.53 Z " />
<path stroke="transparent" fill="#000000" transform="matrix(0.0833333 0 0 0.0833333 -209.583 -131)" d="M 3757.63,3468.15 L 3877.63,3468.15 L 3828.2,3942.86 L 3817.63,3948.31 L 3807.06,3942.86 L 3757.63,3468.15 Z " />
<path stroke="transparent" fill="#000000" transform="matrix(0.0833333 0 0 0.0833333 -209.583 -131)" d="M 3807.06,3942.86 L 3817.63,3948.31 L 3817.63,3959.86 L 3308.05,4254.08 L 3288.05,4242.53 L 3807.06,3942.86 Z " />
<path stroke="transparent" fill="#000000" transform="matrix(0.0833333 0 0 0.0833333 -209.583 -131)" d="M 2848.46,4058.02 L 2908.46,3954.1 L 2924.62,3966.11 L 2866.95,4066.01 L 2848.46,4058.02 Z " />
<path stroke="transparent" fill="#000000" transform="matrix(0.0833333 0 0 0.0833333 -209.583 -131)" d="M 2902.65,4081.44 L 2955.84,3989.31 L 2971.99,4001.32 L 2921.13,4089.43 L 2902.65,4081.44 Z " />
<path stroke="transparent" fill="#000000" transform="matrix(0.0833333 0 0 0.0833333 -209.583 -131)" d="M 2956.83,4104.86 L 3003.21,4024.53 L 3019.37,4036.54 L 2975.31,4112.84 L 2956.83,4104.86 Z " />
<path stroke="transparent" fill="#000000" transform="matrix(0.0833333 0 0 0.0833333 -209.583 -131)" d="M 3011.02,4128.27 L 3050.58,4059.74 L 3066.74,4071.75 L 3029.5,4136.26 L 3011.02,4128.27 Z " />
<path stroke="transparent" fill="#000000" transform="matrix(0.0833333 0 0 0.0833333 -209.583 -131)" d="M 3065.2,4151.69 L 3097.96,4094.96 L 3114.12,4106.97 L 3083.68,4159.68 L 3065.2,4151.69 Z " />
<path stroke="transparent" fill="#000000" transform="matrix(0.0833333 0 0 0.0833333 -209.583 -131)" d="M 3119.39,4175.11 L 3145.33,4130.17 L 3161.49,4142.18 L 3137.87,4183.1 L 3119.39,4175.11 Z " />
<path stroke="transparent" fill="#000000" transform="matrix(0.0833333 0 0 0.0833333 -209.583 -131)" d="M 3173.57,4198.53 L 3192.71,4165.39 L 3208.86,4177.4 L 3192.05,4206.52 L 3173.57,4198.53 Z " />
<path stroke="transparent" fill="#000000" transform="matrix(0.0833333 0 0 0.0833333 -209.583 -131)" d="M 3227.76,4221.95 L 3240.08,4200.6 L 3256.24,4212.61 L 3246.24,4229.94 L 3227.76,4221.95 Z " />
<path stroke="transparent" fill="#000000" transform="matrix(0.0833333 0 0 0.0833333 -209.583 -131)" d="M 3288.05,4242.53 L 3308.05,4254.08 L 3308.05,4842.52 L 3288.05,4854.06 L 3288.05,4242.53 Z " />
<path stroke="transparent" fill="#000000" transform="matrix(0.0833333 0 0 0.0833333 -209.583 -131)" d="M 3288.05,4854.06 L 3308.05,4842.52 L 3817.63,5136.74 L 3817.63,5148.28 L 3807.08,5153.74 L 3288.05,4854.06 Z " />
<path stroke="transparent" fill="#000000" transform="matrix(0.0833333 0 0 0.0833333 -209.583 -131)" d="M 2901.04,5146.78 L 2841.05,5042.85 L 2859.5,5034.83 L 2917.23,5134.81 L 2901.04,5146.78 Z " />
<path stroke="transparent" fill="#000000" transform="matrix(0.0833333 0 0 0.0833333 -209.583 -131)" d="M 2949.48,5110.94 L 2896.3,5018.83 L 2914.76,5010.8 L 2965.66,5098.97 L 2949.48,5110.94 Z " />
<path stroke="transparent" fill="#000000" transform="matrix(0.0833333 0 0 0.0833333 -209.583 -131)" d="M 2997.92,5075.11 L 2951.55,4994.8 L 2970.01,4986.77 L 3014.1,5063.13 L 2997.92,5075.11 Z " />
<path stroke="transparent" fill="#000000" transform="matrix(0.0833333 0 0 0.0833333 -209.583 -131)" d="M 3046.35,5039.27 L 3006.81,4970.77 L 3025.27,4962.74 L 3062.54,5027.3 L 3046.35,5039.27 Z " />
<path stroke="transparent" fill="#000000" transform="matrix(0.0833333 0 0 0.0833333 -209.583 -131)" d="M 3094.79,5003.43 L 3062.06,4946.74 L 3080.52,4938.72 L 3110.97,4991.46 L 3094.79,5003.43 Z " />
<path stroke="transparent" fill="#000000" transform="matrix(0.0833333 0 0 0.0833333 -209.583 -131)" d="M 3143.23,4967.6 L 3117.31,4922.71 L 3135.77,4914.69 L 3159.41,4955.62 L 3143.23,4967.6 Z " />
<path stroke="transparent" fill="#000000" transform="matrix(0.0833333 0 0 0.0833333 -209.583 -131)" d="M 3191.66,4931.76 L 3172.57,4898.69 L 3191.03,4890.66 L 3207.84,4919.79 L 3191.66,4931.76 Z " />
<path stroke="transparent" fill="#000000" transform="matrix(0.0833333 0 0 0.0833333 -209.583 -131)" d="M 3240.1,4895.92 L 3227.82,4874.66 L 3246.28,4866.63 L 3256.28,4883.95 L 3240.1,4895.92 Z " />
<path stroke="transparent" fill="#000000" transform="matrix(0.0833333 0 0 0.0833333 -209.583 -131)" d="M 5377.04,4860.16 L 5376.49,4848.29 L 5386.49,4842.52 L 5896.11,5136.74 L 5896.11,5148.28 L 5874.59,5147.41 L 5377.04,4860.16 Z " />
<path stroke="transparent" fill="#000000" transform="matrix(0.0833333 0 0 0.0833333 -209.583 -131)" d="M 5406.49,5500.24 L 5346.49,5396.32 L 5874.59,5147.41 L 5896.11,5148.28 L 5886.11,5167.35 L 5406.49,5500.24 Z " />
<path stroke="transparent" fill="#000000" transform="matrix(0.0833333 0 0 0.0833333 -209.583 -131)" d="M 5906.11,5742.5 L 5886.11,5754.04 L 5886.11,5167.35 L 5896.11,5148.28 L 5906.11,5154.06 L 5906.11,5742.5 Z " />
<path stroke="transparent" fill="#000000" transform="matrix(0.0833333 0 0 0.0833333 -209.583 -131)" d="M 6328.11,5986.13 L 6318.11,6003.45 L 5886.11,5754.04 L 5906.11,5742.5 L 6328.11,5986.13 Z " />
<path stroke="transparent" fill="#000000" transform="matrix(0.0833333 0 0 0.0833333 -209.583 -131)" d="M 5906.11,5154.06 L 5896.11,5148.28 L 5896.11,5136.74 L 6405.73,4842.52 L 6415.73,4848.29 L 6415.73,4859.84 L 5906.11,5154.06 Z " />
<path stroke="transparent" fill="#000000" transform="matrix(0.0833333 0 0 0.0833333 -209.583 -131)" d="M 6425.73,4842.52 L 6415.73,4848.29 L 6405.73,4842.52 L 6405.73,4254.08 L 6415.73,4248.3 L 6425.73,4254.08 L 6425.73,4842.52 Z " />
<path stroke="transparent" fill="#000000" transform="matrix(0.0833333 0 0 0.0833333 -209.583 -131)" d="M 6935.35,5136.74 L 6935.35,5159.83 L 6415.73,4859.84 L 6415.73,4848.29 L 6425.73,4842.52 L 6935.35,5136.74 Z " />
<path stroke="transparent" fill="#000000" transform="matrix(0.0833333 0 0 0.0833333 -209.583 -131)" d="M 7444.93,4842.52 L 7464.93,4854.06 L 6935.35,5159.83 L 6935.35,5136.74 L 7444.93,4842.52 Z " />
<path stroke="transparent" fill="#000000" transform="matrix(0.0833333 0 0 0.0833333 -209.583 -131)" d="M 7464.93,4854.06 L 7444.93,4842.52 L 7444.93,4254.08 L 7454.93,4248.3 L 7464.93,4254.08 L 7464.93,4854.06 Z " />
<path stroke="transparent" fill="#000000" transform="matrix(0.0833333 0 0 0.0833333 -209.583 -131)" d="M 7443.41,4230.11 L 7454.93,4248.3 L 7444.93,4254.08 L 6935.35,3959.86 L 6935.35,3948.31 L 6945.35,3942.53 L 7443.41,4230.11 Z " />
<path stroke="transparent" fill="#000000" transform="matrix(0.0833333 0 0 0.0833333 -209.583 -131)" d="M 7394.93,3648.3 L 7514.93,3648.3 L 7466.44,4230.11 L 7454.93,4248.3 L 7443.41,4230.11 L 7394.93,3648.3 Z " />
<path stroke="transparent" fill="#000000" transform="matrix(0.0833333 0 0 0.0833333 -209.583 -131)" d="M 7464.93,4254.08 L 7454.93,4248.3 L 7466.44,4230.11 L 7964.54,3942.53 L 7974.54,3948.31 L 7974.54,3959.86 L 7464.93,4254.08 Z " />
<path stroke="transparent" fill="#000000" transform="matrix(0.0833333 0 0 0.0833333 -209.583 -131)" d="M 7984.54,3942.53 L 7974.54,3948.31 L 7964.54,3942.53 L 7964.54,3354.09 L 7974.54,3348.32 L 7984.54,3354.09 L 7984.54,3942.53 Z " />
<path stroke="transparent" fill="#000000" transform="matrix(0.0833333 0 0 0.0833333 -209.583 -131)" d="M 8034.54,4548.31 L 7914.54,4548.31 L 7916.38,4528.31 L 8032.71,4528.31 L 8034.54,4548.31 Z " />
<path stroke="transparent" fill="#000000" transform="matrix(0.0833333 0 0 0.0833333 -209.583 -131)" d="M 8029.19,4489.86 L 7919.9,4489.86 L 7921.73,4469.86 L 8027.36,4469.86 L 8029.19,4489.86 Z " />
<path stroke="transparent" fill="#000000" transform="matrix(0.0833333 0 0 0.0833333 -209.583 -131)" d="M 8023.84,4431.42 L 7925.25,4431.42 L 7927.08,4411.42 L 8022.01,4411.42 L 8023.84,4431.42 Z " />
<path stroke="transparent" fill="#000000" transform="matrix(0.0833333 0 0 0.0833333 -209.583 -131)" d="M 8018.49,4372.97 L 7930.6,4372.97 L 7932.43,4352.97 L 8016.66,4352.97 L 8018.49,4372.97 Z " />
<path stroke="transparent" fill="#000000" transform="matrix(0.0833333 0 0 0.0833333 -209.583 -131)" d="M 8013.14,4314.53 L 7935.95,4314.53 L 7937.78,4294.53 L 8011.31,4294.53 L 8013.14,4314.53 Z " />
<path stroke="transparent" fill="#000000" transform="matrix(0.0833333 0 0 0.0833333 -209.583 -131)" d="M 8007.78,4256.09 L 7941.31,4256.09 L 7943.14,4236.09 L 8005.95,4236.09 L 8007.78,4256.09 Z " />
<path stroke="transparent" fill="#000000" transform="matrix(0.0833333 0 0 0.0833333 -209.583 -131)" d="M 8002.43,4197.64 L 7946.66,4197.64 L 7948.49,4177.64 L 8000.6,4177.64 L 8002.43,4197.64 Z " />
<path stroke="transparent" fill="#000000" transform="matrix(0.0833333 0 0 0.0833333 -209.583 -131)" d="M 7997.08,4139.2 L 7952.01,4139.2 L 7953.84,4119.2 L 7995.25,4119.2 L 7997.08,4139.2 Z " />
<path stroke="transparent" fill="#000000" transform="matrix(0.0833333 0 0 0.0833333 -209.583 -131)" d="M 7991.73,4080.75 L 7957.36,4080.75 L 7959.19,4060.75 L 7989.9,4060.75 L 7991.73,4080.75 Z " />
<path stroke="transparent" fill="#000000" transform="matrix(0.0833333 0 0 0.0833333 -209.583 -131)" d="M 7986.38,4022.31 L 7962.71,4022.31 L 7964.54,4002.31 L 7984.54,4002.31 L 7986.38,4022.31 Z " />
<path stroke="transparent" fill="#000000" transform="matrix(0.0833333 0 0 0.0833333 -209.583 -131)" d="M 8494.16,4236.76 L 8494.16,4259.85 L 7974.54,3959.86 L 7974.54,3948.31 L 7984.54,3942.53 L 8494.16,4236.76 Z " />
<path stroke="transparent" fill="#000000" transform="matrix(0.0833333 0 0 0.0833333 -209.583 -131)" d="M 9003.78,3942.53 L 9023.78,3954.08 L 8494.16,4259.85 L 8494.16,4236.76 L 9003.78,3942.53 Z " />
<path stroke="transparent" fill="#000000" transform="matrix(0.0833333 0 0 0.0833333 -209.583 -131)" d="M 9023.78,3954.08 L 9003.78,3942.53 L 9003.78,3354.09 L 9013.78,3348.32 L 9023.78,3367.39 L 9023.78,3954.08 Z " />
<path stroke="transparent" fill="#000000" transform="matrix(0.0833333 0 0 0.0833333 -209.583 -131)" d="M 10043,4542.52 L 10063,4554.07 L 10063,5142.51 L 10053,5148.28 L 10043,5141.87 L 10043,4542.52 Z " />
<path stroke="transparent" fill="#000000" transform="matrix(0.0833333 0 0 0.0833333 -209.583 -131)" d="M 9656.01,5446.77 L 9596.01,5342.85 L 10043,5141.87 L 10053,5148.28 L 10053.6,5160.15 L 9656.01,5446.77 Z " />
<path stroke="transparent" fill="#000000" transform="matrix(0.0833333 0 0 0.0833333 -209.583 -131)" d="M 10053.6,5160.15 L 10053,5148.28 L 10063,5142.51 L 10572.6,5436.73 L 10572.6,5459.82 L 10053.6,5160.15 Z " />
<path stroke="transparent" fill="#000000" transform="matrix(0.0833333 0 0 0.0833333 -209.583 -131)" d="M 10632.6,5943.1 L 10512.6,5943.1 L 10514.9,5923.1 L 10630.4,5923.1 L 10632.6,5943.1 Z " />
<path stroke="transparent" fill="#000000" transform="matrix(0.0833333 0 0 0.0833333 -209.583 -131)" d="M 10625.8,5882.99 L 10519.5,5882.99 L 10521.7,5862.99 L 10623.6,5862.99 L 10625.8,5882.99 Z " />
<path stroke="transparent" fill="#000000" transform="matrix(0.0833333 0 0 0.0833333 -209.583 -131)" d="M 10619,5822.89 L 10526.3,5822.89 L 10528.5,5802.89 L 10616.7,5802.89 L 10619,5822.89 Z " />
<path stroke="transparent" fill="#000000" transform="matrix(0.0833333 0 0 0.0833333 -209.583 -131)" d="M 10612.2,5762.78 L 10533.1,5762.78 L 10535.4,5742.78 L 10609.9,5742.78 L 10612.2,5762.78 Z " />
<path stroke="transparent" fill="#000000" transform="matrix(0.0833333 0 0 0.0833333 -209.583 -131)" d="M 10605.4,5702.68 L 10539.9,5702.68 L 10542.2,5682.68 L 10603.1,5682.68 L 10605.4,5702.68 Z " />
<path stroke="transparent" fill="#000000" transform="matrix(0.0833333 0 0 0.0833333 -209.583 -131)" d="M 10598.5,5642.58 L 10546.7,5642.58 L 10549,5622.58 L 10596.3,5622.58 L 10598.5,5642.58 Z " />
<path stroke="transparent" fill="#000000" transform="matrix(0.0833333 0 0 0.0833333 -209.583 -131)" d="M 10591.7,5582.47 L 10553.6,5582.47 L 10555.8,5562.47 L 10589.5,5562.47 L 10591.7,5582.47 Z " />
<path stroke="transparent" fill="#000000" transform="matrix(0.0833333 0 0 0.0833333 -209.583 -131)" d="M 10584.9,5522.37 L 10560.4,5522.37 L 10562.6,5502.37 L 10582.6,5502.37 L 10584.9,5522.37 Z " />
<path stroke="transparent" fill="#000000" transform="matrix(0.0833333 0 0 0.0833333 -209.583 -131)" d="M 10572.6,5459.82 L 10572.6,5436.73 L 11082.2,5142.51 L 11092.2,5148.28 L 11091.7,5160.15 L 10572.6,5459.82 Z " />
<path stroke="transparent" fill="#000000" transform="matrix(0.0833333 0 0 0.0833333 -209.583 -131)" d="M 11102.2,5141.87 L 11092.2,5148.28 L 11082.2,5142.51 L 11082.2,4554.07 L 11102.2,4542.52 L 11102.2,5141.87 Z " />
<path stroke="transparent" fill="#000000" transform="matrix(0.0833333 0 0 0.0833333 -209.583 -131)" d="M 11549.2,5342.84 L 11489.2,5446.76 L 11091.7,5160.15 L 11092.2,5148.28 L 11102.2,5141.87 L 11549.2,5342.84 Z " />
<path stroke="transparent" fill="#000000" transform="matrix(0.0833333 0 0 0.0833333 -209.583 -131)" d="M 12641,4254.08 L 12661,4242.53 L 13170.7,4536.75 L 13170.7,4548.3 L 13160.1,4553.75 L 12641,4254.08 Z " />
<path stroke="transparent" fill="#000000" transform="matrix(0.0833333 0 0 0.0833333 -209.583 -131)" d="M 13230.7,5043.12 L 13110.7,5043.12 L 13160.1,4553.75 L 13170.7,4548.3 L 13181.2,4553.75 L 13230.7,5043.12 Z " />
<path stroke="transparent" fill="#000000" transform="matrix(0.0833333 0 0 0.0833333 -209.583 -131)" d="M 13181.2,4553.75 L 13170.7,4548.3 L 13170.7,4536.75 L 13680.3,4242.53 L 13700.3,4254.08 L 13181.2,4553.75 Z " />
<path stroke="transparent" fill="#000000" transform="matrix(0.0833333 0 0 0.0833333 -209.583 -131)" d="M 13700.3,4254.08 L 13680.3,4242.53 L 13680.3,3654.09 L 13690.3,3648.31 L 13700.3,3654.74 L 13700.3,4254.08 Z " />
<path stroke="transparent" fill="#000000" transform="matrix(0.0833333 0 0 0.0833333 -209.583 -131)" d="M 14147.3,4442.86 L 14087.3,4546.79 L 14071.1,4534.81 L 14128.8,4434.83 L 14147.3,4442.86 Z " />
<path stroke="transparent" fill="#000000" transform="matrix(0.0833333 0 0 0.0833333 -209.583 -131)" d="M 14092,4418.83 L 14038.8,4510.95 L 14022.7,4498.98 L 14073.6,4410.81 L 14092,4418.83 Z " />
<path stroke="transparent" fill="#000000" transform="matrix(0.0833333 0 0 0.0833333 -209.583 -131)" d="M 14036.8,4394.81 L 13990.4,4475.11 L 13974.2,4463.14 L 14018.3,4386.78 L 14036.8,4394.81 Z " />
<path stroke="transparent" fill="#000000" transform="matrix(0.0833333 0 0 0.0833333 -209.583 -131)" d="M 13981.5,4370.78 L 13942,4439.28 L 13925.8,4427.31 L 13963.1,4362.75 L 13981.5,4370.78 Z " />
<path stroke="transparent" fill="#000000" transform="matrix(0.0833333 0 0 0.0833333 -209.583 -131)" d="M 13926.3,4346.75 L 13893.5,4403.44 L 13877.4,4391.47 L 13907.8,4338.73 L 13926.3,4346.75 Z " />
<path stroke="transparent" fill="#000000" transform="matrix(0.0833333 0 0 0.0833333 -209.583 -131)" d="M 13871,4322.73 L 13845.1,4367.61 L 13828.9,4355.64 L 13852.6,4314.7 L 13871,4322.73 Z " />
<path stroke="transparent" fill="#000000" transform="matrix(0.0833333 0 0 0.0833333 -209.583 -131)" d="M 13815.8,4298.7 L 13796.7,4331.77 L 13780.5,4319.8 L 13797.3,4290.67 L 13815.8,4298.7 Z " />
<path stroke="transparent" fill="#000000" transform="matrix(0.0833333 0 0 0.0833333 -209.583 -131)" d="M 13760.5,4274.67 L 13748.2,4295.94 L 13732,4283.96 L 13742,4266.64 L 13760.5,4274.67 Z " />
<path stroke="transparent" fill="#000000" transform="matrix(0.0833333 0 0 0.0833333 -209.583 -131)" d="M 14739.5,3654.09 L 14729.5,3648.31 L 14730.1,3636.44 L 15249.1,3336.77 L 15249.1,3359.87 L 14739.5,3654.09 Z " />
<path stroke="transparent" fill="#000000" transform="matrix(0.0833333 0 0 0.0833333 -209.583 -131)" d="M 15189.1,2868.17 L 15309.1,2868.17 L 15306.7,2888.17 L 15191.4,2888.17 L 15189.1,2868.17 Z " />
<path stroke="transparent" fill="#000000" transform="matrix(0.0833333 0 0 0.0833333 -209.583 -131)" d="M 15195.9,2926.19 L 15302.3,2926.19 L 15299.9,2946.19 L 15198.2,2946.19 L 15195.9,2926.19 Z " />
<path stroke="transparent" fill="#000000" transform="matrix(0.0833333 0 0 0.0833333 -209.583 -131)" d="M 15202.7,2984.21 L 15295.5,2984.21 L 15293.1,3004.21 L 15205.1,3004.21 L 15202.7,2984.21 Z " />
<path stroke="transparent" fill="#000000" transform="matrix(0.0833333 0 0 0.0833333 -209.583 -131)" d="M 15209.5,3042.23 L 15288.7,3042.23 L 15286.3,3062.23 L 15211.9,3062.23 L 15209.5,3042.23 Z " />
<path stroke="transparent" fill="#000000" transform="matrix(0.0833333 0 0 0.0833333 -209.583 -131)" d="M 15216.3,3100.25 L 15281.9,3100.25 L 15279.5,3120.25 L 15218.7,3120.25 L 15216.3,3100.25 Z " />
<path stroke="transparent" fill="#000000" transform="matrix(0.0833333 0 0 0.0833333 -209.583 -131)" d="M 15223.1,3158.26 L 15275.1,3158.26 L 15272.7,3178.26 L 15225.5,3178.26 L 15223.1,3158.26 Z " />
<path stroke="transparent" fill="#000000" transform="matrix(0.0833333 0 0 0.0833333 -209.583 -131)" d="M 15229.9,3216.28 L 15268.2,3216.28 L 15265.9,3236.28 L 15232.3,3236.28 L 15229.9,3216.28 Z " />
<path stroke="transparent" fill="#000000" transform="matrix(0.0833333 0 0 0.0833333 -209.583 -131)" d="M 15236.7,3274.3 L 15261.4,3274.3 L 15259.1,3294.3 L 15239.1,3294.3 L 15236.7,3274.3 Z " />
<path stroke="transparent" fill="#000000" transform="matrix(0.0833333 0 0 0.0833333 -209.583 -131)" d="M 15249.1,3359.87 L 15249.1,3336.77 L 15778.7,3642.54 L 15758.7,3654.09 L 15249.1,3359.87 Z " />
<path stroke="transparent" fill="#000000" transform="matrix(0.0833333 0 0 0.0833333 -209.583 -131)" d="M 16158.7,3353.86 L 16218.7,3457.79 L 16200.2,3465.78 L 16142.6,3365.87 L 16158.7,3353.86 Z " />
<path stroke="transparent" fill="#000000" transform="matrix(0.0833333 0 0 0.0833333 -209.583 -131)" d="M 16111.3,3389.11 L 16164.5,3481.24 L 16146,3489.23 L 16095.1,3401.12 L 16111.3,3389.11 Z " />
<path stroke="transparent" fill="#000000" transform="matrix(0.0833333 0 0 0.0833333 -209.583 -131)" d="M 16063.9,3424.36 L 16110.2,3504.69 L 16091.8,3512.68 L 16047.7,3436.37 L 16063.9,3424.36 Z " />
<path stroke="transparent" fill="#000000" transform="matrix(0.0833333 0 0 0.0833333 -209.583 -131)" d="M 16016.4,3459.6 L 16056,3528.13 L 16037.5,3536.12 L 16000.3,3471.61 L 16016.4,3459.6 Z " />
<path stroke="transparent" fill="#000000" transform="matrix(0.0833333 0 0 0.0833333 -209.583 -131)" d="M 15969,3494.85 L 16001.8,3551.58 L 15983.3,3559.57 L 15952.9,3506.86 L 15969,3494.85 Z " />
<path stroke="transparent" fill="#000000" transform="matrix(0.0833333 0 0 0.0833333 -209.583 -131)" d="M 15921.6,3530.1 L 15947.5,3575.03 L 15929.1,3583.02 L 15905.4,3542.11 L 15921.6,3530.1 Z " />
<path stroke="transparent" fill="#000000" transform="matrix(0.0833333 0 0 0.0833333 -209.583 -131)" d="M 15874.2,3565.34 L 15893.3,3598.48 L 15874.8,3606.47 L 15858,3577.35 L 15874.2,3565.34 Z " />
<path stroke="transparent" fill="#000000" transform="matrix(0.0833333 0 0 0.0833333 -209.583 -131)" d="M 15826.7,3600.59 L 15839.1,3621.93 L 15820.6,3629.92 L 15810.6,3612.6 L 15826.7,3600.59 Z " />
<path stroke="transparent" fill="#000000" transform="matrix(0.0833333 0 0 0.0833333 -209.583 -131)" d="M 15758.7,3654.09 L 15778.7,3642.54 L 15778.7,4241.89 L 15768.7,4248.3 L 15758.7,4242.53 L 15758.7,3654.09 Z " />
<path stroke="transparent" fill="#000000" transform="matrix(0.0833333 0 0 0.0833333 -209.583 -131)" d="M 15758.7,4242.53 L 15768.7,4248.3 L 15768.2,4260.17 L 15249.1,4559.84 L 15249.1,4536.75 L 15758.7,4242.53 Z " />
<path stroke="transparent" fill="#000000" transform="matrix(0.0833333 0 0 0.0833333 -209.583 -131)" d="M 16225.7,4442.86 L 16165.7,4546.79 L 15768.2,4260.17 L 15768.7,4248.3 L 15778.7,4241.89 L 16225.7,4442.86 Z " />
<text x="0" y="0" stroke="transparent" fill="#000000" transform="matrix(0.0833333 0 0 0.0833333 319.061 329.524)" style="font:normal normal normal 200px 'Arial'" >
H</text>
<path stroke="transparent" fill="#000000" transform="matrix(0.0833333 0 0 0.0833333 -209.583 -131)" d="M 6475.73,5345.62 L 6355.73,5345.62 L 6357.98,5325.62 L 6473.47,5325.62 L 6475.73,5345.62 Z " />
<path stroke="transparent" fill="#000000" transform="matrix(0.0833333 0 0 0.0833333 -209.583 -131)" d="M 6468.91,5285.15 L 6362.55,5285.15 L 6364.8,5265.15 L 6466.65,5265.15 L 6468.91,5285.15 Z " />
<path stroke="transparent" fill="#000000" transform="matrix(0.0833333 0 0 0.0833333 -209.583 -131)" d="M 6462.09,5224.68 L 6369.37,5224.68 L 6371.62,5204.68 L 6459.83,5204.68 L 6462.09,5224.68 Z " />
<path stroke="transparent" fill="#000000" transform="matrix(0.0833333 0 0 0.0833333 -209.583 -131)" d="M 6455.27,5164.21 L 6376.19,5164.21 L 6378.44,5144.21 L 6453.01,5144.21 L 6455.27,5164.21 Z " />
<path stroke="transparent" fill="#000000" transform="matrix(0.0833333 0 0 0.0833333 -209.583 -131)" d="M 6448.44,5103.74 L 6383.01,5103.74 L 6385.27,5083.74 L 6446.19,5083.74 L 6448.44,5103.74 Z " />
<path stroke="transparent" fill="#000000" transform="matrix(0.0833333 0 0 0.0833333 -209.583 -131)" d="M 6441.62,5043.27 L 6389.83,5043.27 L 6392.09,5023.27 L 6439.37,5023.27 L 6441.62,5043.27 Z " />
<path stroke="transparent" fill="#000000" transform="matrix(0.0833333 0 0 0.0833333 -209.583 -131)" d="M 6434.8,4982.8 L 6396.65,4982.8 L 6398.91,4962.8 L 6432.55,4962.8 L 6434.8,4982.8 Z " />
<path stroke="transparent" fill="#000000" transform="matrix(0.0833333 0 0 0.0833333 -209.583 -131)" d="M 6427.98,4922.33 L 6403.47,4922.33 L 6405.73,4902.33 L 6425.73,4902.33 L 6427.98,4922.33 Z " />
<text x="0" y="0" stroke="transparent" fill="#000000" transform="matrix(0.0833333 0 0 0.0833333 362.362 254.526)" style="font:normal normal normal 200px 'Arial'" >
H</text>
<path stroke="transparent" fill="#000000" transform="matrix(0.0833333 0 0 0.0833333 -209.583 -131)" d="M 6995.35,4445.64 L 6875.35,4445.64 L 6877.6,4425.64 L 6993.09,4425.64 L 6995.35,4445.64 Z " />
<path stroke="transparent" fill="#000000" transform="matrix(0.0833333 0 0 0.0833333 -209.583 -131)" d="M 6988.53,4385.17 L 6882.17,4385.17 L 6884.42,4365.17 L 6986.27,4365.17 L 6988.53,4385.17 Z " />
<path stroke="transparent" fill="#000000" transform="matrix(0.0833333 0 0 0.0833333 -209.583 -131)" d="M 6981.71,4324.7 L 6888.99,4324.7 L 6891.24,4304.7 L 6979.45,4304.7 L 6981.71,4324.7 Z " />
<path stroke="transparent" fill="#000000" transform="matrix(0.0833333 0 0 0.0833333 -209.583 -131)" d="M 6974.88,4264.23 L 6895.81,4264.23 L 6898.06,4244.23 L 6972.63,4244.23 L 6974.88,4264.23 Z " />
<path stroke="transparent" fill="#000000" transform="matrix(0.0833333 0 0 0.0833333 -209.583 -131)" d="M 6968.06,4203.76 L 6902.63,4203.76 L 6904.88,4183.76 L 6965.81,4183.76 L 6968.06,4203.76 Z " />
<path stroke="transparent" fill="#000000" transform="matrix(0.0833333 0 0 0.0833333 -209.583 -131)" d="M 6961.24,4143.29 L 6909.45,4143.29 L 6911.71,4123.29 L 6958.99,4123.29 L 6961.24,4143.29 Z " />
<path stroke="transparent" fill="#000000" transform="matrix(0.0833333 0 0 0.0833333 -209.583 -131)" d="M 6954.42,4082.82 L 6916.27,4082.82 L 6918.53,4062.82 L 6952.17,4062.82 L 6954.42,4082.82 Z " />
<path stroke="transparent" fill="#000000" transform="matrix(0.0833333 0 0 0.0833333 -209.583 -131)" d="M 6947.6,4022.34 L 6923.09,4022.34 L 6925.35,4002.34 L 6945.35,4002.34 L 6947.6,4022.34 Z " />
<text x="0" y="0" stroke="transparent" fill="#000000" transform="matrix(0.0833333 0 0 0.0833333 448.962 104.527)" style="font:normal normal normal 200px 'Arial'" >
H</text>
<path stroke="transparent" fill="#000000" transform="matrix(0.0833333 0 0 0.0833333 -209.583 -131)" d="M 8054.68,2863.87 L 8114.68,2759.95 L 8484.16,3028.75 L 8494.16,3048.33 L 8472.21,3049.45 L 8054.68,2863.87 Z " />
</svg>
