<?xml version="1.0" standalone="no" ?>
<!DOCTYPE svg PUBLIC "-//W3C//DTD SVG 1.1//EN" "http://www.w3.org/Graphics/SVG/1.1/DTD/svg11.dtd">
<svg width="443px" height="254px" viewBox="0 0 443 254" style="background-color: #ffffff00" xmlns="http://www.w3.org/2000/svg" xmlns:xlink="http://www.w3.org/1999/xlink" version="1.1" >
<text x="0" y="0" stroke="transparent" fill="#000000" transform="matrix(0.0833333 0 0 0.0833333 172.906 181.723)" style="font:normal normal normal 200px 'Arial'" >
OH</text>
<text x="0" y="0" stroke="transparent" fill="#000000" transform="matrix(0.0833333 0 0 0.0833333 78.8123 36.4782)" style="font:normal normal normal 200px 'Arial'" >
HO</text>
<path stroke="transparent" fill="#000000" transform="matrix(0.0833333 0 0 0.0833333 -213.5 -248)" d="M 3166.05,3368.48 L 3146.05,3356.93 L 3670.66,3054.04 L 3680.66,3071.36 L 3166.05,3368.48 Z " />
<path stroke="transparent" fill="#000000" transform="matrix(0.0833333 0 0 0.0833333 -213.5 -248)" d="M 2613.43,3102.55 L 2623.42,3085.23 L 3161.05,3395.61 L 3151.05,3412.93 L 2613.43,3102.55 Z " />
<path stroke="transparent" fill="#000000" transform="matrix(0.0833333 0 0 0.0833333 -213.5 -248)" d="M 2649.42,3040.2 L 2659.42,3022.88 L 3197.05,3333.26 L 3187.05,3350.58 L 2649.42,3040.2 Z " />
<path stroke="transparent" fill="#000000" transform="matrix(0.0833333 0 0 0.0833333 -213.5 -248)" d="M 3166.05,4172.9 L 3156.05,4178.68 L 3146.05,4172.9 L 3146.05,3356.93 L 3166.05,3368.48 L 3166.05,4172.9 Z " />
<path stroke="transparent" fill="#000000" transform="matrix(0.0833333 0 0 0.0833333 -213.5 -248)" d="M 2646.42,4484.48 L 2626.42,4472.93 L 3146.05,4172.9 L 3156.05,4178.68 L 3156.05,4190.22 L 2646.42,4484.48 Z " />
<path stroke="transparent" fill="#000000" transform="matrix(0.0833333 0 0 0.0833333 -213.5 -248)" d="M 2646.42,5072.9 L 2626.42,5084.45 L 2626.42,4472.93 L 2646.42,4484.48 L 2646.42,5072.9 Z " />
<path stroke="transparent" fill="#000000" transform="matrix(0.0833333 0 0 0.0833333 -213.5 -248)" d="M 3156.05,5367.16 L 3156.05,5378.7 L 3146.05,5384.48 L 2626.42,5084.45 L 2646.42,5072.9 L 3156.05,5367.16 Z " />
<path stroke="transparent" fill="#000000" transform="matrix(0.0833333 0 0 0.0833333 -213.5 -248)" d="M 3166.05,5978.68 L 3146.05,5978.68 L 3146.05,5384.48 L 3156.05,5378.7 L 3166.05,5384.48 L 3166.05,5978.68 Z " />
<path stroke="transparent" fill="#000000" transform="matrix(0.0833333 0 0 0.0833333 -213.5 -248)" d="M 3665.67,5072.9 L 3685.67,5084.45 L 3166.05,5384.48 L 3156.05,5378.7 L 3156.05,5367.16 L 3665.67,5072.9 Z " />
<path stroke="transparent" fill="#000000" transform="matrix(0.0833333 0 0 0.0833333 -213.5 -248)" d="M 3598.67,5028.45 L 3608.67,5045.77 L 3161.05,5304.22 L 3151.05,5286.9 L 3598.67,5028.45 Z " />
<path stroke="transparent" fill="#000000" transform="matrix(0.0833333 0 0 0.0833333 -213.5 -248)" d="M 3665.67,4484.48 L 3675.67,4478.7 L 3685.67,4484.48 L 3685.67,5084.45 L 3665.67,5072.9 L 3665.67,4484.48 Z " />
<path stroke="transparent" fill="#000000" transform="matrix(0.0833333 0 0 0.0833333 -213.5 -248)" d="M 3675.67,4467.16 L 3675.67,4478.7 L 3665.67,4484.48 L 3156.05,4190.22 L 3156.05,4178.68 L 3166.05,4172.9 L 3675.67,4467.16 Z " />
<path stroke="transparent" fill="#000000" transform="matrix(0.0833333 0 0 0.0833333 -213.5 -248)" d="M 4185.29,4172.9 L 4195.29,4178.68 L 4195.29,4190.22 L 3685.67,4484.48 L 3675.67,4478.7 L 3675.67,4467.16 L 4185.29,4172.9 Z " />
<path stroke="transparent" fill="#000000" transform="matrix(0.0833333 0 0 0.0833333 -213.5 -248)" d="M 4714.88,4467.16 L 4714.88,4478.7 L 4704.88,4484.48 L 4195.29,4190.22 L 4195.29,4178.68 L 4205.29,4172.9 L 4714.88,4467.16 Z " />
<path stroke="transparent" fill="#000000" transform="matrix(0.0833333 0 0 0.0833333 -213.5 -248)" d="M 4719.88,4386.9 L 4709.88,4404.22 L 4262.29,4145.77 L 4272.29,4128.45 L 4719.88,4386.9 Z " />
<path stroke="transparent" fill="#000000" transform="matrix(0.0833333 0 0 0.0833333 -213.5 -248)" d="M 4724.88,4973.51 L 4704.88,4973.51 L 4704.88,4484.48 L 4714.88,4478.7 L 4724.88,4484.48 L 4724.88,4973.51 Z " />
<path stroke="transparent" fill="#000000" transform="matrix(0.0833333 0 0 0.0833333 -213.5 -248)" d="M 5224.5,4172.9 L 5244.5,4184.45 L 4724.88,4484.48 L 4714.88,4478.7 L 4714.88,4467.16 L 5224.5,4172.9 Z " />
<path stroke="transparent" fill="#000000" transform="matrix(0.0833333 0 0 0.0833333 -213.5 -248)" d="M 5224.5,3584.48 L 5234.5,3578.7 L 5244.5,3584.48 L 5244.5,4184.45 L 5224.5,4172.9 L 5224.5,3584.48 Z " />
<path stroke="transparent" fill="#000000" transform="matrix(0.0833333 0 0 0.0833333 -213.5 -248)" d="M 5152.5,3620.27 L 5172.5,3620.27 L 5172.5,4137.11 L 5152.5,4137.11 L 5152.5,3620.27 Z " />
<path stroke="transparent" fill="#000000" transform="matrix(0.0833333 0 0 0.0833333 -213.5 -248)" d="M 5754.12,3267.17 L 5754.12,3290.26 L 5244.5,3584.48 L 5234.5,3578.7 L 5234.5,3567.16 L 5754.12,3267.17 Z " />
<path stroke="transparent" fill="#000000" transform="matrix(0.0833333 0 0 0.0833333 -213.5 -248)" d="M 6273.75,3567.16 L 6273.75,3590.25 L 5754.12,3290.26 L 5754.12,3267.17 L 6273.75,3567.16 Z " />
<path stroke="transparent" fill="#000000" transform="matrix(0.0833333 0 0 0.0833333 -213.5 -248)" d="M 6793.37,3267.17 L 6793.37,3290.26 L 6273.75,3590.25 L 6273.75,3567.16 L 6793.37,3267.17 Z " />
<path stroke="transparent" fill="#000000" transform="matrix(0.0833333 0 0 0.0833333 -213.5 -248)" d="M 7312.99,3567.16 L 7312.99,3590.25 L 6793.37,3290.26 L 6793.37,3267.17 L 7312.99,3567.16 Z " />
<path stroke="transparent" fill="#000000" transform="matrix(0.0833333 0 0 0.0833333 -213.5 -248)" d="M 7827.58,3270.06 L 7837.58,3287.38 L 7312.99,3590.25 L 7312.99,3567.16 L 7827.58,3270.06 Z " />
<path stroke="transparent" fill="#000000" transform="matrix(0.0833333 0 0 0.0833333 -213.5 -248)" d="M 4714.88,3290.26 L 4714.88,3267.17 L 5234.5,3567.16 L 5234.5,3578.7 L 5224.5,3584.48 L 4714.88,3290.26 Z " />
<path stroke="transparent" fill="#000000" transform="matrix(0.0833333 0 0 0.0833333 -213.5 -248)" d="M 4205.29,3584.48 L 4195.29,3578.7 L 4195.05,3567.29 L 4714.88,3267.17 L 4714.88,3290.26 L 4205.29,3584.48 Z " />
<path stroke="transparent" fill="#000000" transform="matrix(0.0833333 0 0 0.0833333 -213.5 -248)" d="M 4272.29,3628.93 L 4262.29,3611.61 L 4709.88,3353.19 L 4719.88,3370.51 L 4272.29,3628.93 Z " />
<path stroke="transparent" fill="#000000" transform="matrix(0.0833333 0 0 0.0833333 -213.5 -248)" d="M 4185.29,3584.76 L 4195.29,3578.7 L 4205.29,3584.48 L 4205.29,4172.9 L 4195.29,4178.68 L 4185.29,4172.9 L 4185.29,3584.76 Z " />
<path stroke="transparent" fill="#000000" transform="matrix(0.0833333 0 0 0.0833333 -213.5 -248)" d="M 3827.43,3397.82 L 3836.69,3380.1 L 4195.05,3567.29 L 4195.29,3578.7 L 4185.29,3584.76 L 3827.43,3397.82 Z " />
</svg>
