<?xml version="1.0" standalone="no" ?>
<!DOCTYPE svg PUBLIC "-//W3C//DTD SVG 1.1//EN" "http://www.w3.org/Graphics/SVG/1.1/DTD/svg11.dtd">
<svg width="160px" height="133px" viewBox="0 0 160 133" style="background-color: #ffffff00" xmlns="http://www.w3.org/2000/svg" xmlns:xlink="http://www.w3.org/1999/xlink" version="1.1" >
<text x="0" y="0" stroke="transparent" fill="#000000" transform="matrix(0.0666667 0 0 0.0666667 102.141 14.4502)" style="font:normal normal normal 200px 'Arial'" >
O</text>
<text x="0" y="0" stroke="transparent" fill="#000000" transform="matrix(0.0666667 0 0 0.0666667 136.779 74.4502)" style="font:normal normal normal 200px 'Arial'" >
OH</text>
<path stroke="transparent" fill="#000000" transform="matrix(0.0666667 0 0 0.0666667 -268.853 -327)" d="M 5133.28,5949.53 L 5123.28,5943.75 L 5123.28,5932.21 L 5642.92,5632.21 L 5642.92,5655.3 L 5133.28,5949.53 Z " />
<path stroke="transparent" fill="#000000" transform="matrix(0.0666667 0 0 0.0666667 -268.853 -327)" d="M 4603.65,5655.3 L 4603.65,5632.21 L 5123.28,5932.21 L 5123.28,5943.75 L 5113.28,5949.53 L 4603.65,5655.3 Z " />
<path stroke="transparent" fill="#000000" transform="matrix(0.0666667 0 0 0.0666667 -268.853 -327)" d="M 4089.08,5952.41 L 4079.08,5935.09 L 4603.65,5632.21 L 4603.65,5655.3 L 4089.08,5952.41 Z " />
<path stroke="transparent" fill="#000000" transform="matrix(0.0666667 0 0 0.0666667 -268.853 -327)" d="M 5596.92,5163.59 L 5616.92,5163.59 L 5616.92,5664.54 L 5596.92,5664.54 L 5596.92,5163.59 Z " />
<path stroke="transparent" fill="#000000" transform="matrix(0.0666667 0 0 0.0666667 -268.853 -327)" d="M 5668.92,5163.59 L 5688.92,5163.59 L 5688.92,5664.54 L 5668.92,5664.54 L 5668.92,5163.59 Z " />
<path stroke="transparent" fill="#000000" transform="matrix(0.0666667 0 0 0.0666667 -268.853 -327)" d="M 6074.87,5881.62 L 6064.87,5898.94 L 5642.92,5655.3 L 5642.92,5632.21 L 6074.87,5881.62 Z " />
<path stroke="transparent" fill="#000000" transform="matrix(0.0666667 0 0 0.0666667 -268.853 -327)" d="M 5647.92,6835.09 L 5637.92,6852.41 L 5113.28,6549.53 L 5133.28,6537.98 L 5647.92,6835.09 Z " />
<path stroke="transparent" fill="#000000" transform="matrix(0.0666667 0 0 0.0666667 -268.853 -327)" d="M 5133.28,6537.98 L 5113.28,6549.53 L 5113.28,5949.53 L 5123.28,5943.75 L 5133.28,5949.53 L 5133.28,6537.98 Z " />
</svg>
