<?xml version="1.0" standalone="no" ?>
<!DOCTYPE svg PUBLIC "-//W3C//DTD SVG 1.1//EN" "http://www.w3.org/Graphics/SVG/1.1/DTD/svg11.dtd">
<svg width="473px" height="286px" viewBox="0 0 473 286" style="background-color: #ffffff00" xmlns="http://www.w3.org/2000/svg" xmlns:xlink="http://www.w3.org/1999/xlink" version="1.1" >
<text x="0" y="0" stroke="transparent" fill="#000000" transform="matrix(0.0666667 0 0 0.0666667 342.739 179.004)" style="font:normal normal normal 200px 'Arial'" >
O</text>
<text x="0" y="0" stroke="transparent" fill="#000000" transform="matrix(0.0666667 0 0 0.0666667 393.544 128.599)" style="font:normal normal normal 200px 'Arial'" >
N</text>
<text x="0" y="0" stroke="transparent" fill="#000000" transform="matrix(0.0666667 0 0 0.0666667 444.29 199.004)" style="font:normal normal normal 200px 'Arial'" >
OH</text>
<text x="0" y="0" stroke="transparent" fill="#000000" transform="matrix(0.0666667 0 0 0.0666667 445.03 82.2423)" style="font:normal normal normal 200px 'Arial'" >
N</text>
<text x="0" y="0" stroke="transparent" fill="#000000" transform="matrix(0.0666667 0 0 0.0666667 459.035 150.01)" style="font:normal normal normal 200px 'Arial'" >
O</text>
<text x="0" y="0" stroke="transparent" fill="#000000" transform="matrix(0.0666667 0 0 0.0666667 393.144 269.408)" style="font:normal normal normal 200px 'Arial'" >
OH</text>
<text x="0" y="0" stroke="transparent" fill="#000000" transform="matrix(0.0666667 0 0 0.0666667 430.625 14.4751)" style="font:normal normal normal 200px 'Arial'" >
NH</text>
<text x="0" y="0" stroke="transparent" fill="#000000" transform="matrix(0.0666667 0 0 0.0666667 449.883 17.4084)" style="font:normal normal normal 150px 'Arial'" >
2</text>
<text x="0" y="0" stroke="transparent" fill="#000000" transform="matrix(0.0666667 0 0 0.0666667 275.738 222.514)" style="font:normal normal normal 200px 'Arial'" >
O</text>
<text x="0" y="0" stroke="transparent" fill="#000000" transform="matrix(0.0666667 0 0 0.0666667 206.453 222.514)" style="font:normal normal normal 200px 'Arial'" >
O</text>
<text x="0" y="0" stroke="transparent" fill="#000000" transform="matrix(0.0666667 0 0 0.0666667 241.095 282.514)" style="font:normal normal normal 200px 'Arial'" >
O</text>
<text x="0" y="0" stroke="transparent" fill="#000000" transform="matrix(0.0666667 0 0 0.0666667 171.815 282.514)" style="font:normal normal normal 200px 'Arial'" >
O</text>
<text x="0" y="0" stroke="transparent" fill="#000000" transform="matrix(0.0666667 0 0 0.0666667 172.582 242.514)" style="font:normal normal normal 200px 'Arial'" >
P</text>
<text x="0" y="0" stroke="transparent" fill="#000000" transform="matrix(0.0666667 0 0 0.0666667 171.815 202.514)" style="font:normal normal normal 200px 'Arial'" >
OH</text>
<text x="0" y="0" stroke="transparent" fill="#000000" transform="matrix(0.0666667 0 0 0.0666667 241.862 242.514)" style="font:normal normal normal 200px 'Arial'" >
P</text>
<text x="0" y="0" stroke="transparent" fill="#000000" transform="matrix(0.0666667 0 0 0.0666667 241.095 202.514)" style="font:normal normal normal 200px 'Arial'" >
OH</text>
<text x="0" y="0" stroke="transparent" fill="#000000" transform="matrix(0.0666667 0 0 0.0666667 137.173 222.514)" style="font:normal normal normal 200px 'Arial'" >
O</text>
<text x="0" y="0" stroke="transparent" fill="#000000" transform="matrix(0.0666667 0 0 0.0666667 33.6505 242.514)" style="font:normal normal normal 200px 'Arial'" >
N</text>
<text x="0" y="0" stroke="transparent" fill="#000000" transform="matrix(0.0666667 0 0 0.0666667 43.2794 237.314)" style="font:normal normal normal 150px 'Arial'" >
+</text>
<path stroke="transparent" fill="#000000" transform="matrix(0.0666667 0 0 0.0666667 -112.425 -170)" d="M 8320.74,5397.05 L 8320.74,5517.05 L 8300.74,5514.77 L 8300.74,5399.34 L 8320.74,5397.05 Z " />
<path stroke="transparent" fill="#000000" transform="matrix(0.0666667 0 0 0.0666667 -112.425 -170)" d="M 8261.02,5403.87 L 8261.02,5510.24 L 8241.02,5507.95 L 8241.02,5406.15 L 8261.02,5403.87 Z " />
<path stroke="transparent" fill="#000000" transform="matrix(0.0666667 0 0 0.0666667 -112.425 -170)" d="M 8201.31,5410.69 L 8201.31,5503.42 L 8181.31,5501.14 L 8181.31,5412.97 L 8201.31,5410.69 Z " />
<path stroke="transparent" fill="#000000" transform="matrix(0.0666667 0 0 0.0666667 -112.425 -170)" d="M 8141.59,5417.5 L 8141.59,5496.6 L 8121.59,5494.32 L 8121.59,5419.79 L 8141.59,5417.5 Z " />
<path stroke="transparent" fill="#000000" transform="matrix(0.0666667 0 0 0.0666667 -112.425 -170)" d="M 8081.88,5424.32 L 8081.88,5489.79 L 8061.88,5487.5 L 8061.88,5426.6 L 8081.88,5424.32 Z " />
<path stroke="transparent" fill="#000000" transform="matrix(0.0666667 0 0 0.0666667 -112.425 -170)" d="M 8022.16,5431.14 L 8022.16,5482.97 L 8002.16,5480.69 L 8002.16,5433.42 L 8022.16,5431.14 Z " />
<path stroke="transparent" fill="#000000" transform="matrix(0.0666667 0 0 0.0666667 -112.425 -170)" d="M 7962.45,5437.95 L 7962.45,5476.15 L 7942.45,5473.87 L 7942.45,5440.24 L 7962.45,5437.95 Z " />
<path stroke="transparent" fill="#000000" transform="matrix(0.0666667 0 0 0.0666667 -112.425 -170)" d="M 7902.74,5444.77 L 7902.74,5469.34 L 7882.74,5467.05 L 7882.74,5447.05 L 7902.74,5444.77 Z " />
<path stroke="transparent" fill="#000000" transform="matrix(0.0666667 0 0 0.0666667 -112.425 -170)" d="M 7841.1,5457.05 L 7816.38,5457.05 L 7472.26,4983.43 L 7476.08,4971.67 L 7487.53,4970.42 L 7841.1,5457.05 Z " />
<path stroke="transparent" fill="#000000" transform="matrix(0.0666667 0 0 0.0666667 -112.425 -170)" d="M 7564.08,4506.73 L 7678.21,4543.82 L 7487.53,4970.42 L 7476.08,4971.67 L 7467.55,4963.93 L 7564.08,4506.73 Z " />
<path stroke="transparent" fill="#000000" transform="matrix(0.0666667 0 0 0.0666667 -112.425 -170)" d="M 7010.41,5133.47 L 7004.23,5114.45 L 7467.55,4963.93 L 7476.08,4971.67 L 7472.26,4983.43 L 7010.41,5133.47 Z " />
<path stroke="transparent" fill="#000000" transform="matrix(0.0666667 0 0 0.0666667 -112.425 -170)" d="M 6915.46,5749.79 L 6905.46,5757.05 L 6895.46,5751.46 L 6895.46,5276.89 L 6915.46,5276.89 L 6915.46,5749.79 Z " />
<path stroke="transparent" fill="#000000" transform="matrix(0.0666667 0 0 0.0666667 -112.425 -170)" d="M 6466.9,6148.29 L 6370.76,6069.69 L 6895.46,5751.46 L 6905.46,5757.05 L 6907.69,5768.29 L 6466.9,6148.29 Z " />
<path stroke="transparent" fill="#000000" transform="matrix(0.0666667 0 0 0.0666667 -112.425 -170)" d="M 7479.9,5954.19 L 7472.26,5930.68 L 7816.38,5457.05 L 7841.1,5457.05 L 7479.9,5954.19 Z " />
<path stroke="transparent" fill="#000000" transform="matrix(0.0666667 0 0 0.0666667 -112.425 -170)" d="M 7472.26,5930.68 L 7479.9,5954.19 L 6907.69,5768.29 L 6905.46,5757.05 L 6915.46,5749.79 L 7472.26,5930.68 Z " />
<path stroke="transparent" fill="#000000" transform="matrix(0.0666667 0 0 0.0666667 -112.425 -170)" d="M 7685.85,6393.82 L 7571.73,6430.91 L 7567.71,6411.19 L 7677.51,6375.5 L 7685.85,6393.82 Z " />
<path stroke="transparent" fill="#000000" transform="matrix(0.0666667 0 0 0.0666667 -112.425 -170)" d="M 7660.82,6338.85 L 7559.67,6371.72 L 7555.65,6352 L 7652.48,6320.53 L 7660.82,6338.85 Z " />
<path stroke="transparent" fill="#000000" transform="matrix(0.0666667 0 0 0.0666667 -112.425 -170)" d="M 7635.79,6283.88 L 7547.6,6312.54 L 7543.58,6292.82 L 7627.45,6265.56 L 7635.79,6283.88 Z " />
<path stroke="transparent" fill="#000000" transform="matrix(0.0666667 0 0 0.0666667 -112.425 -170)" d="M 7610.76,6228.91 L 7535.54,6253.36 L 7531.52,6233.63 L 7602.42,6210.59 L 7610.76,6228.91 Z " />
<path stroke="transparent" fill="#000000" transform="matrix(0.0666667 0 0 0.0666667 -112.425 -170)" d="M 7585.72,6173.94 L 7523.48,6194.17 L 7519.45,6174.45 L 7577.38,6155.62 L 7585.72,6173.94 Z " />
<path stroke="transparent" fill="#000000" transform="matrix(0.0666667 0 0 0.0666667 -112.425 -170)" d="M 7560.69,6118.97 L 7511.41,6134.99 L 7507.39,6115.26 L 7552.35,6100.65 L 7560.69,6118.97 Z " />
<path stroke="transparent" fill="#000000" transform="matrix(0.0666667 0 0 0.0666667 -112.425 -170)" d="M 7535.66,6064 L 7499.35,6075.8 L 7495.33,6056.08 L 7527.32,6045.68 L 7535.66,6064 Z " />
<path stroke="transparent" fill="#000000" transform="matrix(0.0666667 0 0 0.0666667 -112.425 -170)" d="M 7510.63,6009.03 L 7487.28,6016.62 L 7483.26,5996.89 L 7502.28,5990.71 L 7510.63,6009.03 Z " />
<path stroke="transparent" fill="#000000" transform="matrix(0.0666667 0 0 0.0666667 -112.425 -170)" d="M 8240.65,4267.67 L 8256.1,4284.83 L 7769.1,4388.34 L 7764.94,4368.78 L 8240.65,4267.67 Z " />
<path stroke="transparent" fill="#000000" transform="matrix(0.0666667 0 0 0.0666667 -112.425 -170)" d="M 7248.71,3957.49 L 7271.3,3952.69 L 7585.88,4302.02 L 7571.02,4315.4 L 7248.71,3957.49 Z " />
<path stroke="transparent" fill="#000000" transform="matrix(0.0666667 0 0 0.0666667 -112.425 -170)" d="M 8383.92,3826.84 L 8402.94,3833.02 L 8256.1,4284.83 L 8240.65,4267.67 L 8383.92,3826.84 Z " />
<path stroke="transparent" fill="#000000" transform="matrix(0.0666667 0 0 0.0666667 -112.425 -170)" d="M 8612.67,4612.05 L 8597.81,4625.44 L 8253.79,4243.41 L 8268.65,4230.03 L 8612.67,4612.05 Z " />
<path stroke="transparent" fill="#000000" transform="matrix(0.0666667 0 0 0.0666667 -112.425 -170)" d="M 8559.16,4660.24 L 8544.3,4673.62 L 8200.28,4291.59 L 8215.14,4278.2 L 8559.16,4660.24 Z " />
<path stroke="transparent" fill="#000000" transform="matrix(0.0666667 0 0 0.0666667 -112.425 -170)" d="M 7437.74,3375.89 L 7453.19,3393.05 L 7271.3,3952.69 L 7248.71,3957.49 L 7437.74,3375.89 Z " />
<path stroke="transparent" fill="#000000" transform="matrix(0.0666667 0 0 0.0666667 -112.425 -170)" d="M 7491.58,3443.17 L 7510.6,3449.35 L 7350.84,3940.9 L 7331.82,3934.71 L 7491.58,3443.17 Z " />
<path stroke="transparent" fill="#000000" transform="matrix(0.0666667 0 0 0.0666667 -112.425 -170)" d="M 8028.73,3270.73 L 8032.3,3259.74 L 8043.59,3257.34 L 8358.17,3606.67 L 8343.31,3620.06 L 8028.73,3270.73 Z " />
<path stroke="transparent" fill="#000000" transform="matrix(0.0666667 0 0 0.0666667 -112.425 -170)" d="M 7999.18,3345.51 L 8014.04,3332.13 L 8304.66,3654.86 L 8289.8,3668.24 L 7999.18,3345.51 Z " />
<path stroke="transparent" fill="#000000" transform="matrix(0.0666667 0 0 0.0666667 -112.425 -170)" d="M 8024.57,3251.16 L 8032.3,3259.74 L 8028.73,3270.73 L 7453.19,3393.05 L 7437.74,3375.89 L 8024.57,3251.16 Z " />
<path stroke="transparent" fill="#000000" transform="matrix(0.0666667 0 0 0.0666667 -112.425 -170)" d="M 8167.26,2812.14 L 8186.28,2818.32 L 8043.59,3257.34 L 8032.3,3259.74 L 8024.57,3251.16 L 8167.26,2812.14 Z " />
<path stroke="transparent" fill="#000000" transform="matrix(0.0666667 0 0 0.0666667 -112.425 -170)" d="M 5995.48,5876.12 L 6005.48,5858.8 L 6370.76,6069.69 L 6466.9,6148.29 L 5995.48,5876.12 Z " />
<path stroke="transparent" fill="#000000" transform="matrix(0.0666667 0 0 0.0666667 -112.425 -170)" d="M 5478.69,6064.74 L 5468.69,6047.42 L 5795.84,5858.55 L 5805.84,5875.87 L 5478.69,6064.74 Z " />
<path stroke="transparent" fill="#000000" transform="matrix(0.0666667 0 0 0.0666667 -112.425 -170)" d="M 4956.21,5876.12 L 4966.21,5858.8 L 5286.08,6043.47 L 5276.08,6060.79 L 4956.21,5876.12 Z " />
<path stroke="transparent" fill="#000000" transform="matrix(0.0666667 0 0 0.0666667 -112.425 -170)" d="M 4439.49,6064.74 L 4429.49,6047.42 L 4756.57,5858.56 L 4766.57,5875.88 L 4439.49,6064.74 Z " />
<path stroke="transparent" fill="#000000" transform="matrix(0.0666667 0 0 0.0666667 -112.425 -170)" d="M 5426.81,6604.54 L 5406.81,6604.54 L 5406.81,6226.87 L 5426.81,6226.87 L 5426.81,6604.54 Z " />
<path stroke="transparent" fill="#000000" transform="matrix(0.0666667 0 0 0.0666667 -112.425 -170)" d="M 5354.81,6604.54 L 5334.81,6604.54 L 5334.81,6226.87 L 5354.81,6226.87 L 5354.81,6604.54 Z " />
<path stroke="transparent" fill="#000000" transform="matrix(0.0666667 0 0 0.0666667 -112.425 -170)" d="M 4387.61,6604.54 L 4367.61,6604.54 L 4367.61,6226.87 L 4387.61,6226.87 L 4387.61,6604.54 Z " />
<path stroke="transparent" fill="#000000" transform="matrix(0.0666667 0 0 0.0666667 -112.425 -170)" d="M 4315.61,6604.54 L 4295.61,6604.54 L 4295.61,6226.87 L 4315.61,6226.87 L 4315.61,6604.54 Z " />
<path stroke="transparent" fill="#000000" transform="matrix(0.0666667 0 0 0.0666667 -112.425 -170)" d="M 3917.01,5876.12 L 3927.01,5858.8 L 4246.88,6043.47 L 4236.89,6060.79 L 3917.01,5876.12 Z " />
<path stroke="transparent" fill="#000000" transform="matrix(0.0666667 0 0 0.0666667 -112.425 -170)" d="M 4331.61,5629.54 L 4351.61,5629.54 L 4351.61,6006.87 L 4331.61,6006.87 L 4331.61,5629.54 Z " />
<path stroke="transparent" fill="#000000" transform="matrix(0.0666667 0 0 0.0666667 -112.425 -170)" d="M 5370.81,5629.54 L 5390.81,5629.54 L 5390.81,6006.87 L 5370.81,6006.87 L 5370.81,5629.54 Z " />
<path stroke="transparent" fill="#000000" transform="matrix(0.0666667 0 0 0.0666667 -112.425 -170)" d="M 3302.34,6121.25 L 3302.34,6098.16 L 3717.37,5858.55 L 3727.37,5875.87 L 3302.34,6121.25 Z " />
<path stroke="transparent" fill="#000000" transform="matrix(0.0666667 0 0 0.0666667 -112.425 -170)" d="M 2782.77,5821.25 L 2782.77,5798.16 L 3302.34,6098.16 L 3302.34,6121.25 L 2782.77,5821.25 Z " />
<path stroke="transparent" fill="#000000" transform="matrix(0.0666667 0 0 0.0666667 -112.425 -170)" d="M 2441,6018.57 L 2431,6001.25 L 2782.77,5798.16 L 2782.77,5821.25 L 2441,6018.57 Z " />
<path stroke="transparent" fill="#000000" transform="matrix(0.0666667 0 0 0.0666667 -112.425 -170)" d="M 2273.14,6709.71 L 2253.14,6709.71 L 2253.14,6227.04 L 2273.14,6227.04 L 2273.14,6709.71 Z " />
<path stroke="transparent" fill="#000000" transform="matrix(0.0666667 0 0 0.0666667 -112.425 -170)" d="M 1748.5,6418.37 L 1738.5,6401.05 L 2148.01,6164.63 L 2158.01,6181.95 L 1748.5,6418.37 Z " />
<path stroke="transparent" fill="#000000" transform="matrix(0.0666667 0 0 0.0666667 -112.425 -170)" d="M 1738.5,5818.37 L 1748.5,5801.05 L 2164.36,6041.13 L 2154.36,6058.45 L 1738.5,5818.37 Z " />
</svg>
