<?xml version="1.0" standalone="no" ?>
<!DOCTYPE svg PUBLIC "-//W3C//DTD SVG 1.1//EN" "http://www.w3.org/Graphics/SVG/1.1/DTD/svg11.dtd">
<svg width="853px" height="458px" viewBox="0 0 853 458" style="background-color: #ffffff00" xmlns="http://www.w3.org/2000/svg" xmlns:xlink="http://www.w3.org/1999/xlink" version="1.1" >
<path stroke="transparent" fill="#000000" transform="matrix(0.0833333 0 0 0.0833333 -268.167 -182.333)" d="M 9654.48,3634.9 L 9774.48,3634.9 L 9725.92,4216.54 L 9714.48,4234.71 L 9703.06,4216.77 L 9654.48,3634.9 Z " />
<path stroke="transparent" fill="#000000" transform="matrix(0.0833333 0 0 0.0833333 -268.167 -182.333)" d="M 9724.43,4240.39 L 9714.48,4234.71 L 9725.92,4216.54 L 10222.5,3926.5 L 10232.4,3932.17 L 10233.6,3942.97 L 9724.43,4240.39 Z " />
<path stroke="transparent" fill="#000000" transform="matrix(0.0833333 0 0 0.0833333 -268.167 -182.333)" d="M 9703.06,4216.77 L 9714.48,4234.71 L 9704.59,4240.49 L 9193.55,3948.88 L 9193.49,3937.42 L 9203.39,3931.64 L 9703.06,4216.77 Z " />
<path stroke="transparent" fill="#000000" transform="matrix(0.0833333 0 0 0.0833333 -268.167 -182.333)" d="M 9727.42,4840.19 L 9707.52,4828.84 L 9704.59,4240.49 L 9714.48,4234.71 L 9724.43,4240.39 L 9727.42,4840.19 Z " />
<path stroke="transparent" fill="#000000" transform="matrix(0.0833333 0 0 0.0833333 -268.167 -182.333)" d="M 9707.52,4828.84 L 9727.42,4840.19 L 9199.6,5148.51 L 9199.48,5125.59 L 9707.52,4828.84 Z " />
<path stroke="transparent" fill="#000000" transform="matrix(0.0833333 0 0 0.0833333 -268.167 -182.333)" d="M 9199.48,5125.59 L 9199.6,5148.51 L 8678.63,4851.18 L 8678.57,4839.72 L 8688.46,4833.94 L 9199.48,5125.59 Z " />
<path stroke="transparent" fill="#000000" transform="matrix(0.0833333 0 0 0.0833333 -268.167 -182.333)" d="M 8688.46,4833.94 L 8678.57,4839.72 L 8668.62,4834.04 L 8665.65,4245.68 L 8675.54,4239.91 L 8685.49,4245.58 L 8688.46,4833.94 Z " />
<path stroke="transparent" fill="#000000" transform="matrix(0.0833333 0 0 0.0833333 -268.167 -182.333)" d="M 8174.18,5145.81 L 8160.61,5142.25 L 8160.55,5130.79 L 8668.62,4834.04 L 8678.57,4839.72 L 8678.63,4851.18 L 8174.18,5145.81 Z " />
<path stroke="transparent" fill="#000000" transform="matrix(0.0833333 0 0 0.0833333 -268.167 -182.333)" d="M 7871.95,5668.11 L 7854.71,5658.28 L 8147.07,5145.95 L 8160.61,5142.25 L 8160.71,5162.09 L 7871.95,5668.11 Z " />
<path stroke="transparent" fill="#000000" transform="matrix(0.0833333 0 0 0.0833333 -268.167 -182.333)" d="M 8471.71,5655.16 L 8454.58,5665.17 L 8160.71,5162.09 L 8160.61,5142.25 L 8174.18,5145.81 L 8471.71,5655.16 Z " />
<path stroke="transparent" fill="#000000" transform="matrix(0.0833333 0 0 0.0833333 -268.167 -182.333)" d="M 8160.55,5130.79 L 8160.61,5142.25 L 8147.07,5145.95 L 7640.27,4856.74 L 7639.66,4844.97 L 7649.55,4839.19 L 8160.55,5130.79 Z " />
<path stroke="transparent" fill="#000000" transform="matrix(0.0833333 0 0 0.0833333 -268.167 -182.333)" d="M 6028.52,6846.91 L 5969.04,6951.13 L 5952.93,6939.33 L 6010.16,6839.04 L 6028.52,6846.91 Z " />
<path stroke="transparent" fill="#000000" transform="matrix(0.0833333 0 0 0.0833333 -268.167 -182.333)" d="M 5973.16,6823.18 L 5920.46,6915.54 L 5904.35,6903.74 L 5954.8,6815.32 L 5973.16,6823.18 Z " />
<path stroke="transparent" fill="#000000" transform="matrix(0.0833333 0 0 0.0833333 -268.167 -182.333)" d="M 5917.81,6799.46 L 5871.87,6879.95 L 5855.76,6868.15 L 5899.45,6791.59 L 5917.81,6799.46 Z " />
<path stroke="transparent" fill="#000000" transform="matrix(0.0833333 0 0 0.0833333 -268.167 -182.333)" d="M 5862.45,6775.74 L 5823.29,6844.37 L 5807.18,6832.56 L 5844.1,6767.87 L 5862.45,6775.74 Z " />
<path stroke="transparent" fill="#000000" transform="matrix(0.0833333 0 0 0.0833333 -268.167 -182.333)" d="M 5807.1,6752.01 L 5774.71,6808.78 L 5758.59,6796.98 L 5788.74,6744.15 L 5807.1,6752.01 Z " />
<path stroke="transparent" fill="#000000" transform="matrix(0.0833333 0 0 0.0833333 -268.167 -182.333)" d="M 5751.74,6728.29 L 5726.12,6773.19 L 5710.01,6761.39 L 5733.39,6720.42 L 5751.74,6728.29 Z " />
<path stroke="transparent" fill="#000000" transform="matrix(0.0833333 0 0 0.0833333 -268.167 -182.333)" d="M 5696.39,6704.57 L 5677.54,6737.6 L 5661.43,6725.8 L 5678.03,6696.7 L 5696.39,6704.57 Z " />
<path stroke="transparent" fill="#000000" transform="matrix(0.0833333 0 0 0.0833333 -268.167 -182.333)" d="M 5641.04,6680.84 L 5628.96,6702.01 L 5612.84,6690.21 L 5622.68,6672.98 L 5641.04,6680.84 Z " />
<path stroke="transparent" fill="#000000" transform="matrix(0.0833333 0 0 0.0833333 -268.167 -182.333)" d="M 5580.88,6660.54 L 5560.98,6649.19 L 5558.02,6060.79 L 5567.91,6055.01 L 5577.87,6061.34 L 5580.88,6660.54 Z " />
<path stroke="transparent" fill="#000000" transform="matrix(0.0833333 0 0 0.0833333 -268.167 -182.333)" d="M 5063.47,6962.71 L 5052.98,6957.35 L 5052.92,6945.9 L 5560.98,6649.19 L 5580.88,6660.54 L 5063.47,6962.71 Z " />
<path stroke="transparent" fill="#000000" transform="matrix(0.0833333 0 0 0.0833333 -268.167 -182.333)" d="M 5115.47,7451.45 L 4995.47,7452.05 L 5042.53,6962.82 L 5052.98,6957.35 L 5063.47,6962.71 L 5115.47,7451.45 Z " />
<path stroke="transparent" fill="#000000" transform="matrix(0.0833333 0 0 0.0833333 -268.167 -182.333)" d="M 4522.1,6665.84 L 4541.88,6654.28 L 5052.92,6945.9 L 5052.98,6957.35 L 5042.53,6962.82 L 4522.1,6665.84 Z " />
<path stroke="transparent" fill="#000000" transform="matrix(0.0833333 0 0 0.0833333 -268.167 -182.333)" d="M 4136.89,6960.34 L 4076.36,6856.72 L 4094.64,6848.67 L 4152.88,6948.38 L 4136.89,6960.34 Z " />
<path stroke="transparent" fill="#000000" transform="matrix(0.0833333 0 0 0.0833333 -268.167 -182.333)" d="M 4185.11,6924.26 L 4131.47,6832.44 L 4149.75,6824.39 L 4201.1,6912.3 L 4185.11,6924.26 Z " />
<path stroke="transparent" fill="#000000" transform="matrix(0.0833333 0 0 0.0833333 -268.167 -182.333)" d="M 4233.33,6888.18 L 4186.59,6808.16 L 4204.86,6800.11 L 4249.32,6876.22 L 4233.33,6888.18 Z " />
<path stroke="transparent" fill="#000000" transform="matrix(0.0833333 0 0 0.0833333 -268.167 -182.333)" d="M 4281.55,6852.11 L 4241.7,6783.88 L 4259.97,6775.82 L 4297.54,6840.14 L 4281.55,6852.11 Z " />
<path stroke="transparent" fill="#000000" transform="matrix(0.0833333 0 0 0.0833333 -268.167 -182.333)" d="M 4329.77,6816.03 L 4296.81,6759.59 L 4315.09,6751.54 L 4345.77,6804.06 L 4329.77,6816.03 Z " />
<path stroke="transparent" fill="#000000" transform="matrix(0.0833333 0 0 0.0833333 -268.167 -182.333)" d="M 4378,6779.95 L 4351.92,6735.31 L 4370.2,6727.26 L 4393.99,6767.98 L 4378,6779.95 Z " />
<path stroke="transparent" fill="#000000" transform="matrix(0.0833333 0 0 0.0833333 -268.167 -182.333)" d="M 4426.22,6743.87 L 4407.03,6711.03 L 4425.31,6702.98 L 4442.21,6731.91 L 4426.22,6743.87 Z " />
<path stroke="transparent" fill="#000000" transform="matrix(0.0833333 0 0 0.0833333 -268.167 -182.333)" d="M 4474.44,6707.79 L 4462.15,6686.75 L 4480.42,6678.69 L 4490.43,6695.83 L 4474.44,6707.79 Z " />
<path stroke="transparent" fill="#000000" transform="matrix(0.0833333 0 0 0.0833333 -268.167 -182.333)" d="M 4519.11,6066.56 L 4529,6060.26 L 4538.95,6065.94 L 4541.88,6654.28 L 4522.1,6665.84 L 4519.11,6066.56 Z " />
<path stroke="transparent" fill="#000000" transform="matrix(0.0833333 0 0 0.0833333 -268.167 -182.333)" d="M 3587.63,6019.96 L 3577.63,6002.83 L 4056.06,5723.39 L 3956.13,5804.73 L 3587.63,6019.96 Z " />
<path stroke="transparent" fill="#000000" transform="matrix(0.0833333 0 0 0.0833333 -268.167 -182.333)" d="M 3956.13,5804.73 L 4056.06,5723.39 L 4529.4,6048.54 L 4529,6060.26 L 4519.11,6066.56 L 3956.13,5804.73 Z " />
<path stroke="transparent" fill="#000000" transform="matrix(0.0833333 0 0 0.0833333 -268.167 -182.333)" d="M 4942.34,5807.32 L 4952.35,5824.46 L 4538.95,6065.94 L 4529,6060.26 L 4529.4,6048.54 L 4942.34,5807.32 Z " />
<path stroke="transparent" fill="#000000" transform="matrix(0.0833333 0 0 0.0833333 -268.167 -182.333)" d="M 5142.5,5823.68 L 5152.33,5806.45 L 5567.3,6043.24 L 5567.91,6055.01 L 5558.02,6060.79 L 5142.5,5823.68 Z " />
<path stroke="transparent" fill="#000000" transform="matrix(0.0833333 0 0 0.0833333 -268.167 -182.333)" d="M 5956.02,5758.87 L 6016.54,5862.5 L 5577.87,6061.34 L 5567.91,6055.01 L 5567.3,6043.24 L 5956.02,5758.87 Z " />
<path stroke="transparent" fill="#000000" transform="matrix(0.0833333 0 0 0.0833333 -268.167 -182.333)" d="M 6145.33,5646.81 L 6025.33,5647.41 L 6027.49,5627.56 L 6142.97,5626.98 L 6145.33,5646.81 Z " />
<path stroke="transparent" fill="#000000" transform="matrix(0.0833333 0 0 0.0833333 -268.167 -182.333)" d="M 6138.2,5586.75 L 6031.86,5587.28 L 6034.02,5567.43 L 6135.84,5566.92 L 6138.2,5586.75 Z " />
<path stroke="transparent" fill="#000000" transform="matrix(0.0833333 0 0 0.0833333 -268.167 -182.333)" d="M 6131.06,5526.69 L 6038.39,5527.16 L 6040.54,5507.3 L 6128.7,5506.86 L 6131.06,5526.69 Z " />
<path stroke="transparent" fill="#000000" transform="matrix(0.0833333 0 0 0.0833333 -268.167 -182.333)" d="M 6123.93,5466.63 L 6044.92,5467.03 L 6047.07,5447.18 L 6121.57,5446.8 L 6123.93,5466.63 Z " />
<path stroke="transparent" fill="#000000" transform="matrix(0.0833333 0 0 0.0833333 -268.167 -182.333)" d="M 6116.79,5406.57 L 6051.45,5406.9 L 6053.6,5387.05 L 6114.43,5386.74 L 6116.79,5406.57 Z " />
<path stroke="transparent" fill="#000000" transform="matrix(0.0833333 0 0 0.0833333 -268.167 -182.333)" d="M 6109.66,5346.51 L 6057.98,5346.77 L 6060.13,5326.92 L 6107.3,5326.68 L 6109.66,5346.51 Z " />
<path stroke="transparent" fill="#000000" transform="matrix(0.0833333 0 0 0.0833333 -268.167 -182.333)" d="M 6102.52,5286.45 L 6064.5,5286.64 L 6066.66,5266.79 L 6100.17,5266.62 L 6102.52,5286.45 Z " />
<path stroke="transparent" fill="#000000" transform="matrix(0.0833333 0 0 0.0833333 -268.167 -182.333)" d="M 6095.39,5226.39 L 6071.03,5226.52 L 6073.19,5206.66 L 6093.03,5206.56 L 6095.39,5226.39 Z " />
<path stroke="transparent" fill="#000000" transform="matrix(0.0833333 0 0 0.0833333 -268.167 -182.333)" d="M 6082.89,5164.17 L 6082.78,5141.26 L 6590.85,4844.51 L 6600.8,4850.19 L 6600.31,4861.96 L 6082.89,5164.17 Z " />
<path stroke="transparent" fill="#000000" transform="matrix(0.0833333 0 0 0.0833333 -268.167 -182.333)" d="M 5562.47,4867.15 L 5561.86,4855.38 L 5571.76,4849.61 L 6082.78,5141.26 L 6082.89,5164.17 L 5562.47,4867.15 Z " />
<path stroke="transparent" fill="#000000" transform="matrix(0.0833333 0 0 0.0833333 -268.167 -182.333)" d="M 5166.76,5155.66 L 5106.24,5052.04 L 5551.91,4849.07 L 5561.86,4855.38 L 5562.47,4867.15 L 5166.76,5155.66 Z " />
<path stroke="transparent" fill="#000000" transform="matrix(0.0833333 0 0 0.0833333 -268.167 -182.333)" d="M 5548.93,4249.9 L 5568.83,4261.26 L 5571.76,4849.61 L 5561.86,4855.38 L 5551.91,4849.07 L 5548.93,4249.9 Z " />
<path stroke="transparent" fill="#000000" transform="matrix(0.0833333 0 0 0.0833333 -268.167 -182.333)" d="M 5108.64,4067.74 L 5168.11,3963.52 L 5184.2,3975.36 L 5127.02,4075.57 L 5108.64,4067.74 Z " />
<path stroke="transparent" fill="#000000" transform="matrix(0.0833333 0 0 0.0833333 -268.167 -182.333)" d="M 5162.95,4090.87 L 5215.66,3998.5 L 5231.75,4010.34 L 5181.32,4098.7 L 5162.95,4090.87 Z " />
<path stroke="transparent" fill="#000000" transform="matrix(0.0833333 0 0 0.0833333 -268.167 -182.333)" d="M 5217.25,4114.01 L 5263.2,4033.49 L 5279.29,4045.33 L 5235.63,4121.84 L 5217.25,4114.01 Z " />
<path stroke="transparent" fill="#000000" transform="matrix(0.0833333 0 0 0.0833333 -268.167 -182.333)" d="M 5271.56,4137.14 L 5310.74,4068.48 L 5326.83,4080.32 L 5289.94,4144.97 L 5271.56,4137.14 Z " />
<path stroke="transparent" fill="#000000" transform="matrix(0.0833333 0 0 0.0833333 -268.167 -182.333)" d="M 5325.87,4160.27 L 5358.28,4103.46 L 5374.37,4115.3 L 5344.25,4168.1 L 5325.87,4160.27 Z " />
<path stroke="transparent" fill="#000000" transform="matrix(0.0833333 0 0 0.0833333 -268.167 -182.333)" d="M 5380.17,4183.4 L 5405.83,4138.45 L 5421.92,4150.29 L 5398.55,4191.23 L 5380.17,4183.4 Z " />
<path stroke="transparent" fill="#000000" transform="matrix(0.0833333 0 0 0.0833333 -268.167 -182.333)" d="M 5434.48,4206.54 L 5453.37,4173.44 L 5469.46,4185.28 L 5452.86,4214.36 L 5434.48,4206.54 Z " />
<path stroke="transparent" fill="#000000" transform="matrix(0.0833333 0 0 0.0833333 -268.167 -182.333)" d="M 5488.79,4229.67 L 5500.91,4208.42 L 5517,4220.26 L 5507.17,4237.5 L 5488.79,4229.67 Z " />
<path stroke="transparent" fill="#000000" transform="matrix(0.0833333 0 0 0.0833333 -268.167 -182.333)" d="M 6066.43,3947.64 L 6076.84,3953.06 L 6076.9,3964.51 L 5568.83,4261.26 L 5548.93,4249.9 L 6066.43,3947.64 Z " />
<path stroke="transparent" fill="#000000" transform="matrix(0.0833333 0 0 0.0833333 -268.167 -182.333)" d="M 5648.4,3121.91 L 5658.23,3104.67 L 6132.08,3375.07 L 6011.66,3329.2 L 5648.4,3121.91 Z " />
<path stroke="transparent" fill="#000000" transform="matrix(0.0833333 0 0 0.0833333 -268.167 -182.333)" d="M 6011.66,3329.2 L 6132.08,3375.07 L 6087.19,3947.54 L 6076.84,3953.06 L 6066.43,3947.64 L 6011.66,3329.2 Z " />
<path stroke="transparent" fill="#000000" transform="matrix(0.0833333 0 0 0.0833333 -268.167 -182.333)" d="M 6509.6,4188.62 L 6499.76,4205.86 L 6076.9,3964.51 L 6076.84,3953.06 L 6087.19,3947.54 L 6509.6,4188.62 Z " />
<path stroke="transparent" fill="#000000" transform="matrix(0.0833333 0 0 0.0833333 -268.167 -182.333)" d="M 6588.46,4370.51 L 6608.3,4370.41 L 6610.69,4843.77 L 6600.8,4850.19 L 6590.85,4844.51 L 6588.46,4370.51 Z " />
<path stroke="transparent" fill="#000000" transform="matrix(0.0833333 0 0 0.0833333 -268.167 -182.333)" d="M 7058.39,5042.23 L 6998.91,5146.45 L 6600.31,4861.96 L 6600.8,4850.19 L 6610.69,4843.77 L 7058.39,5042.23 Z " />
<path stroke="transparent" fill="#000000" transform="matrix(0.0833333 0 0 0.0833333 -268.167 -182.333)" d="M 7244.58,5145.21 L 7184.06,5041.59 L 7629.71,4838.65 L 7639.66,4844.97 L 7640.27,4856.74 L 7244.58,5145.21 Z " />
<path stroke="transparent" fill="#000000" transform="matrix(0.0833333 0 0 0.0833333 -268.167 -182.333)" d="M 7626.72,4239.49 L 7646.62,4250.84 L 7649.55,4839.19 L 7639.66,4844.97 L 7629.71,4838.65 L 7626.72,4239.49 Z " />
<path stroke="transparent" fill="#000000" transform="matrix(0.0833333 0 0 0.0833333 -268.167 -182.333)" d="M 7646.62,4250.84 L 7626.72,4239.49 L 8154.54,3931.17 L 8154.65,3954.08 L 7646.62,4250.84 Z " />
<path stroke="transparent" fill="#000000" transform="matrix(0.0833333 0 0 0.0833333 -268.167 -182.333)" d="M 8154.65,3954.08 L 8154.54,3931.17 L 8664.02,4221.91 L 8675.54,4239.91 L 8665.65,4245.68 L 8154.65,3954.08 Z " />
<path stroke="transparent" fill="#000000" transform="matrix(0.0833333 0 0 0.0833333 -268.167 -182.333)" d="M 8612.56,3640.4 L 8732.56,3639.8 L 8686.88,4221.8 L 8675.54,4239.91 L 8664.02,4221.91 L 8612.56,3640.4 Z " />
<path stroke="transparent" fill="#000000" transform="matrix(0.0833333 0 0 0.0833333 -268.167 -182.333)" d="M 9183.54,3931.74 L 9193.49,3937.42 L 9193.55,3948.88 L 8685.49,4245.58 L 8675.54,4239.91 L 8686.88,4221.8 L 9183.54,3931.74 Z " />
<path stroke="transparent" fill="#000000" transform="matrix(0.0833333 0 0 0.0833333 -268.167 -182.333)" d="M 9180.53,3331.89 L 9200.43,3343.25 L 9203.39,3931.64 L 9193.49,3937.42 L 9183.54,3931.74 L 9180.53,3331.89 Z " />
<path stroke="transparent" fill="#000000" transform="matrix(0.0833333 0 0 0.0833333 -268.167 -182.333)" d="M 9200.43,3343.25 L 9180.53,3331.89 L 9697.92,3029.73 L 9708.43,3035.08 L 9708.49,3046.54 L 9200.43,3343.25 Z " />
<path stroke="transparent" fill="#000000" transform="matrix(0.0833333 0 0 0.0833333 -268.167 -182.333)" d="M 9646.01,2555.65 L 9766.01,2555.05 L 9718.89,3029.63 L 9708.43,3035.08 L 9697.92,3029.73 L 9646.01,2555.65 Z " />
<path stroke="transparent" fill="#000000" transform="matrix(0.0833333 0 0 0.0833333 -268.167 -182.333)" d="M 10217.6,3314.21 L 10229.4,3332.37 L 10219.5,3338.15 L 9708.49,3046.54 L 9708.43,3035.08 L 9718.89,3029.63 L 10217.6,3314.21 Z " />
<path stroke="transparent" fill="#000000" transform="matrix(0.0833333 0 0 0.0833333 -268.167 -182.333)" d="M 10788.4,3137.19 L 10798.9,3144.17 L 10795.2,3155.85 L 10239.4,3339.53 L 10229.4,3332.37 L 10240.8,3318.16 L 10788.4,3137.19 Z " />
<path stroke="transparent" fill="#000000" transform="matrix(0.0833333 0 0 0.0833333 -268.167 -182.333)" d="M 10242.3,3924.92 L 10232.4,3932.17 L 10222.5,3926.5 L 10219.5,3338.15 L 10229.4,3332.37 L 10239.4,3339.53 L 10242.3,3924.92 Z " />
<path stroke="transparent" fill="#000000" transform="matrix(0.0833333 0 0 0.0833333 -268.167 -182.333)" d="M 10292.4,4531.98 L 10172.4,4531.98 L 10174.2,4512.14 L 10290.6,4512.14 L 10292.4,4531.98 Z " />
<path stroke="transparent" fill="#000000" transform="matrix(0.0833333 0 0 0.0833333 -268.167 -182.333)" d="M 10287,4473.54 L 10177.8,4473.54 L 10179.6,4453.69 L 10285.2,4453.69 L 10287,4473.54 Z " />
<path stroke="transparent" fill="#000000" transform="matrix(0.0833333 0 0 0.0833333 -268.167 -182.333)" d="M 10281.7,4415.09 L 10183.1,4415.09 L 10184.9,4395.25 L 10279.9,4395.25 L 10281.7,4415.09 Z " />
<path stroke="transparent" fill="#000000" transform="matrix(0.0833333 0 0 0.0833333 -268.167 -182.333)" d="M 10276.3,4356.64 L 10188.5,4356.64 L 10190.3,4336.8 L 10274.5,4336.8 L 10276.3,4356.64 Z " />
<path stroke="transparent" fill="#000000" transform="matrix(0.0833333 0 0 0.0833333 -268.167 -182.333)" d="M 10271,4298.19 L 10193.9,4298.19 L 10195.7,4278.35 L 10269.1,4278.35 L 10271,4298.19 Z " />
<path stroke="transparent" fill="#000000" transform="matrix(0.0833333 0 0 0.0833333 -268.167 -182.333)" d="M 10265.6,4239.74 L 10199.2,4239.74 L 10201,4219.9 L 10263.8,4219.9 L 10265.6,4239.74 Z " />
<path stroke="transparent" fill="#000000" transform="matrix(0.0833333 0 0 0.0833333 -268.167 -182.333)" d="M 10260.2,4181.29 L 10204.6,4181.29 L 10206.4,4161.45 L 10258.4,4161.45 L 10260.2,4181.29 Z " />
<path stroke="transparent" fill="#000000" transform="matrix(0.0833333 0 0 0.0833333 -268.167 -182.333)" d="M 10254.9,4122.84 L 10209.9,4122.84 L 10211.8,4103 L 10253,4103 L 10254.9,4122.84 Z " />
<path stroke="transparent" fill="#000000" transform="matrix(0.0833333 0 0 0.0833333 -268.167 -182.333)" d="M 10249.5,4064.4 L 10215.3,4064.4 L 10217.1,4044.55 L 10247.7,4044.55 L 10249.5,4064.4 Z " />
<path stroke="transparent" fill="#000000" transform="matrix(0.0833333 0 0 0.0833333 -268.167 -182.333)" d="M 10244.1,4005.95 L 10220.7,4005.95 L 10222.5,3986.1 L 10242.3,3986.1 L 10244.1,4005.95 Z " />
<path stroke="transparent" fill="#000000" transform="matrix(0.0833333 0 0 0.0833333 -268.167 -182.333)" d="M 10799.9,4103.02 L 10807.6,4126.3 L 10233.6,3942.97 L 10232.4,3932.17 L 10242.3,3924.92 L 10799.9,4103.02 Z " />
<path stroke="transparent" fill="#000000" transform="matrix(0.0833333 0 0 0.0833333 -268.167 -182.333)" d="M 10807.6,4126.3 L 10799.9,4103.02 L 11141.7,3627.7 L 11166.2,3627.58 L 10807.6,4126.3 Z " />
<path stroke="transparent" fill="#000000" transform="matrix(0.0833333 0 0 0.0833333 -268.167 -182.333)" d="M 11166.2,3627.58 L 11141.7,3627.7 L 10795.2,3155.85 L 10798.9,3144.17 L 10809.1,3141.29 L 11166.2,3627.58 Z " />
<path stroke="transparent" fill="#000000" transform="matrix(0.0833333 0 0 0.0833333 -268.167 -182.333)" d="M 10743.3,2595 L 10863.7,2548.15 L 10809.1,3141.29 L 10798.9,3144.17 L 10788.4,3137.19 L 10743.3,2595 Z " />
<path stroke="transparent" fill="#000000" transform="matrix(0.0833333 0 0 0.0833333 -268.167 -182.333)" d="M 13393.2,2260.03 L 13403.2,2277.2 L 12889.2,2575.07 L 12879.3,2569.36 L 12879.2,2557.9 L 13393.2,2260.03 Z " />
<path stroke="transparent" fill="#000000" transform="matrix(0.0833333 0 0 0.0833333 -268.167 -182.333)" d="M 12890.2,3169.16 L 12870.3,3169.19 L 12869.3,2575.1 L 12879.3,2569.36 L 12889.2,2575.07 L 12890.2,3169.16 Z " />
<path stroke="transparent" fill="#000000" transform="matrix(0.0833333 0 0 0.0833333 -268.167 -182.333)" d="M 12879.2,2557.9 L 12879.3,2569.36 L 12869.3,2575.1 L 12359.3,2281.78 L 12359.3,2258.87 L 12879.2,2557.9 Z " />
<path stroke="transparent" fill="#000000" transform="matrix(0.0833333 0 0 0.0833333 -268.167 -182.333)" d="M 12812.3,2602.44 L 12802.4,2619.64 L 12354.5,2362.04 L 12364.4,2344.84 L 12812.3,2602.44 Z " />
<path stroke="transparent" fill="#000000" transform="matrix(0.0833333 0 0 0.0833333 -268.167 -182.333)" d="M 12359.3,2258.87 L 12359.3,2281.78 L 11840.4,2582.53 L 11840.3,2559.62 L 12359.3,2258.87 Z " />
<path stroke="transparent" fill="#000000" transform="matrix(0.0833333 0 0 0.0833333 -268.167 -182.333)" d="M 11840.3,2559.62 L 11840.4,2582.53 L 11320.4,2283.49 L 11320.3,2260.58 L 11840.3,2559.62 Z " />
<path stroke="transparent" fill="#000000" transform="matrix(0.0833333 0 0 0.0833333 -268.167 -182.333)" d="M 11320.3,2260.58 L 11320.4,2283.49 L 10863.7,2548.15 L 10743.3,2595 L 11320.3,2260.58 Z " />
<path stroke="transparent" fill="#000000" transform="matrix(0.0833333 0 0 0.0833333 -268.167 -182.333)" d="M 10842.3,2543.35 L 10832.4,2560.55 L 10294.4,2251.15 L 10304.3,2233.95 L 10842.3,2543.35 Z " />
<path stroke="transparent" fill="#000000" transform="matrix(0.0833333 0 0 0.0833333 -268.167 -182.333)" d="M 10806.2,2605.6 L 10796.3,2622.8 L 10258.5,2313.55 L 10268.4,2296.35 L 10806.2,2605.6 Z " />
<text x="0" y="0" stroke="transparent" fill="#000000" transform="matrix(0.0833333 0 0 0.0833333 232.99 403.512)" style="font:normal normal normal 200px 'Arial'" >
OH</text>
<text x="0" y="0" stroke="transparent" fill="#000000" transform="matrix(0.0833333 0 0 0.0833333 146.667 453.931)" style="font:normal normal normal 200px 'Arial'" >
OH</text>
<text x="0" y="0" stroke="transparent" fill="#000000" transform="matrix(0.0833333 0 0 0.0833333 47.8028 404.383)" style="font:normal normal normal 200px 'Arial'" >
HO</text>
<text x="0" y="0" stroke="transparent" fill="#000000" transform="matrix(0.0833333 0 0 0.0833333 4.13621 329.621)" style="font:normal normal normal 200px 'Arial'" >
HO</text>
<text x="0" y="0" stroke="transparent" fill="#000000" transform="matrix(0.0833333 0 0 0.0833333 145.911 303.977)" style="font:normal normal normal 200px 'Arial'" >
O</text>
<text x="0" y="0" stroke="transparent" fill="#000000" transform="matrix(0.0833333 0 0 0.0833333 232.489 303.544)" style="font:normal normal normal 200px 'Arial'" >
O</text>
<text x="0" y="0" stroke="transparent" fill="#000000" transform="matrix(0.0833333 0 0 0.0833333 133.626 253.993)" style="font:normal normal normal 200px 'Arial'" >
HO</text>
<text x="0" y="0" stroke="transparent" fill="#000000" transform="matrix(0.0833333 0 0 0.0833333 133.121 154.024)" style="font:normal normal normal 200px 'Arial'" >
HO</text>
<text x="0" y="0" stroke="transparent" fill="#000000" transform="matrix(0.0833333 0 0 0.0833333 176.033 78.8292)" style="font:normal normal normal 200px 'Arial'" >
HO</text>
<text x="0" y="0" stroke="transparent" fill="#000000" transform="matrix(0.0833333 0 0 0.0833333 275.148 178.364)" style="font:normal normal normal 200px 'Arial'" >
O</text>
<text x="0" y="0" stroke="transparent" fill="#000000" transform="matrix(0.0833333 0 0 0.0833333 318.812 253.122)" style="font:normal normal normal 200px 'Arial'" >
O</text>
<text x="0" y="0" stroke="transparent" fill="#000000" transform="matrix(0.0833333 0 0 0.0833333 534.117 27.1055)" style="font:normal normal normal 200px 'Arial'" >
OH</text>
<text x="0" y="0" stroke="transparent" fill="#000000" transform="matrix(0.0833333 0 0 0.0833333 449.047 277.461)" style="font:normal normal normal 200px 'Arial'" >
H</text>
<path stroke="transparent" fill="#000000" transform="matrix(0.0833333 0 0 0.0833333 -268.167 -182.333)" d="M 8738.57,5336.61 L 8618.57,5336.61 L 8620.81,5316.77 L 8736.32,5316.77 L 8738.57,5336.61 Z " />
<path stroke="transparent" fill="#000000" transform="matrix(0.0833333 0 0 0.0833333 -268.167 -182.333)" d="M 8731.73,5276.17 L 8625.4,5276.17 L 8627.65,5256.33 L 8729.49,5256.33 L 8731.73,5276.17 Z " />
<path stroke="transparent" fill="#000000" transform="matrix(0.0833333 0 0 0.0833333 -268.167 -182.333)" d="M 8724.9,5215.73 L 8632.24,5215.73 L 8634.48,5195.89 L 8722.66,5195.89 L 8724.9,5215.73 Z " />
<path stroke="transparent" fill="#000000" transform="matrix(0.0833333 0 0 0.0833333 -268.167 -182.333)" d="M 8718.07,5155.29 L 8639.07,5155.29 L 8641.31,5135.44 L 8715.82,5135.44 L 8718.07,5155.29 Z " />
<path stroke="transparent" fill="#000000" transform="matrix(0.0833333 0 0 0.0833333 -268.167 -182.333)" d="M 8711.23,5094.85 L 8645.9,5094.85 L 8648.15,5075 L 8708.99,5075 L 8711.23,5094.85 Z " />
<path stroke="transparent" fill="#000000" transform="matrix(0.0833333 0 0 0.0833333 -268.167 -182.333)" d="M 8704.4,5034.4 L 8652.74,5034.4 L 8654.98,5014.56 L 8702.16,5014.56 L 8704.4,5034.4 Z " />
<path stroke="transparent" fill="#000000" transform="matrix(0.0833333 0 0 0.0833333 -268.167 -182.333)" d="M 8697.57,4973.96 L 8659.57,4973.96 L 8661.81,4954.12 L 8695.32,4954.12 L 8697.57,4973.96 Z " />
<path stroke="transparent" fill="#000000" transform="matrix(0.0833333 0 0 0.0833333 -268.167 -182.333)" d="M 8690.73,4913.52 L 8666.4,4913.52 L 8668.65,4893.68 L 8688.49,4893.68 L 8690.73,4913.52 Z " />
<text x="0" y="0" stroke="transparent" fill="#000000" transform="matrix(0.0833333 0 0 0.0833333 491.958 202.269)" style="font:normal normal normal 200px 'Arial'" >
H</text>
<path stroke="transparent" fill="#000000" transform="matrix(0.0833333 0 0 0.0833333 -268.167 -182.333)" d="M 9253.49,4434.31 L 9133.49,4434.31 L 9135.74,4414.47 L 9251.25,4414.47 L 9253.49,4434.31 Z " />
<path stroke="transparent" fill="#000000" transform="matrix(0.0833333 0 0 0.0833333 -268.167 -182.333)" d="M 9246.66,4373.87 L 9140.33,4373.87 L 9142.57,4354.03 L 9244.42,4354.03 L 9246.66,4373.87 Z " />
<path stroke="transparent" fill="#000000" transform="matrix(0.0833333 0 0 0.0833333 -268.167 -182.333)" d="M 9239.83,4313.43 L 9147.16,4313.43 L 9149.4,4293.59 L 9237.58,4293.59 L 9239.83,4313.43 Z " />
<path stroke="transparent" fill="#000000" transform="matrix(0.0833333 0 0 0.0833333 -268.167 -182.333)" d="M 9232.99,4252.99 L 9153.99,4252.99 L 9156.24,4233.14 L 9230.75,4233.14 L 9232.99,4252.99 Z " />
<path stroke="transparent" fill="#000000" transform="matrix(0.0833333 0 0 0.0833333 -268.167 -182.333)" d="M 9226.16,4192.54 L 9160.83,4192.54 L 9163.07,4172.7 L 9223.91,4172.7 L 9226.16,4192.54 Z " />
<path stroke="transparent" fill="#000000" transform="matrix(0.0833333 0 0 0.0833333 -268.167 -182.333)" d="M 9219.32,4132.1 L 9167.66,4132.1 L 9169.9,4112.26 L 9217.08,4112.26 L 9219.32,4132.1 Z " />
<path stroke="transparent" fill="#000000" transform="matrix(0.0833333 0 0 0.0833333 -268.167 -182.333)" d="M 9212.49,4071.66 L 9174.49,4071.66 L 9176.74,4051.82 L 9210.25,4051.82 L 9212.49,4071.66 Z " />
<path stroke="transparent" fill="#000000" transform="matrix(0.0833333 0 0 0.0833333 -268.167 -182.333)" d="M 9205.66,4011.22 L 9181.33,4011.22 L 9183.57,3991.37 L 9203.41,3991.37 L 9205.66,4011.22 Z " />
<text x="0" y="0" stroke="transparent" fill="#000000" transform="matrix(0.0833333 0 0 0.0833333 578.285 51.88)" style="font:normal normal normal 200px 'Arial'" >
H</text>
<path stroke="transparent" fill="#000000" transform="matrix(0.0833333 0 0 0.0833333 -268.167 -182.333)" d="M 10169.4,2850.15 L 10289.4,2850.15 L 10240.8,3318.16 L 10229.4,3332.37 L 10217.6,3314.21 L 10169.4,2850.15 Z " />
</svg>
