<?xml version="1.0" standalone="no" ?>
<!DOCTYPE svg PUBLIC "-//W3C//DTD SVG 1.1//EN" "http://www.w3.org/Graphics/SVG/1.1/DTD/svg11.dtd">
<svg width="278px" height="139px" viewBox="0 0 278 139" style="background-color: #ffffff00" xmlns="http://www.w3.org/2000/svg" xmlns:xlink="http://www.w3.org/1999/xlink" version="1.1" >
<text x="0" y="0" stroke="transparent" fill="#000000" transform="matrix(0.0666667 0 0 0.0666667 221.202 93.3343)" style="font:normal normal normal 200px 'Arial'" >
NH</text>
<text x="0" y="0" stroke="transparent" fill="#000000" transform="matrix(0.0666667 0 0 0.0666667 255.016 74.0189)" style="font:normal normal normal 200px 'Arial'" >
OH</text>
<text x="0" y="0" stroke="transparent" fill="#000000" transform="matrix(0.0666667 0 0 0.0666667 220.404 13.9926)" style="font:normal normal normal 200px 'Arial'" >
O</text>
<text x="0" y="0" stroke="transparent" fill="#000000" transform="matrix(0.0666667 0 0 0.0666667 221.202 133.352)" style="font:normal normal normal 200px 'Arial'" >
NH</text>
<text x="0" y="0" stroke="transparent" fill="#000000" transform="matrix(0.0666667 0 0 0.0666667 240.46 136.285)" style="font:normal normal normal 150px 'Arial'" >
2</text>
<text x="0" y="0" stroke="transparent" fill="#000000" transform="matrix(0.0666667 0 0 0.0666667 2.84824 54.0101)" style="font:normal normal normal 200px 'Arial'" >
HO</text>
<text x="0" y="0" stroke="transparent" fill="#000000" transform="matrix(0.0666667 0 0 0.0666667 2.84824 134.045)" style="font:normal normal normal 200px 'Arial'" >
HO</text>
<path stroke="transparent" fill="#000000" transform="matrix(0.0666667 0 0 0.0666667 -209.853 -324)" d="M 5491.92,5603.7 L 5491.91,5580.61 L 6012.61,5880.74 L 6012.62,5892.28 L 6002.62,5898.06 L 5491.92,5603.7 Z " />
<path stroke="transparent" fill="#000000" transform="matrix(0.0666667 0 0 0.0666667 -209.853 -324)" d="M 6531.87,5580.6 L 6531.87,5603.7 L 6034.94,5890.93 L 6012.62,5892.28 L 6012.61,5880.74 L 6531.87,5580.6 Z " />
<path stroke="transparent" fill="#000000" transform="matrix(0.0666667 0 0 0.0666667 -209.853 -324)" d="M 6462.28,6071.81 L 6404.32,6176.89 L 6022.62,5911.36 L 6012.62,5892.28 L 6034.94,5890.93 L 6462.28,6071.81 Z " />
<path stroke="transparent" fill="#000000" transform="matrix(0.0666667 0 0 0.0666667 -209.853 -324)" d="M 6022.62,6491.75 L 6002.62,6491.75 L 6002.62,5898.06 L 6012.62,5892.28 L 6022.62,5911.36 L 6022.62,6491.75 Z " />
<path stroke="transparent" fill="#000000" transform="matrix(0.0666667 0 0 0.0666667 -209.853 -324)" d="M 4982.38,5898.05 L 4972.38,5892.28 L 4972.38,5880.73 L 5491.91,5580.61 L 5491.92,5603.7 L 4982.38,5898.05 Z " />
<path stroke="transparent" fill="#000000" transform="matrix(0.0666667 0 0 0.0666667 -209.853 -324)" d="M 6963.46,5830.1 L 6953.45,5847.42 L 6531.87,5603.7 L 6531.87,5580.6 L 6963.46,5830.1 Z " />
<path stroke="transparent" fill="#000000" transform="matrix(0.0666667 0 0 0.0666667 -209.853 -324)" d="M 6485.85,5111.72 L 6505.85,5111.72 L 6505.85,5612.97 L 6485.85,5612.97 L 6485.85,5111.72 Z " />
<path stroke="transparent" fill="#000000" transform="matrix(0.0666667 0 0 0.0666667 -209.853 -324)" d="M 6557.88,5111.72 L 6577.88,5111.72 L 6577.88,5612.97 L 6557.88,5612.97 L 6557.88,5111.72 Z " />
<path stroke="transparent" fill="#000000" transform="matrix(0.0666667 0 0 0.0666667 -209.853 -324)" d="M 6547.83,6679.44 L 6527.83,6679.44 L 6527.83,6299.18 L 6547.83,6299.18 L 6547.83,6679.44 Z " />
<path stroke="transparent" fill="#000000" transform="matrix(0.0666667 0 0 0.0666667 -209.853 -324)" d="M 4454.06,5603.7 L 4454.09,5580.6 L 4972.38,5880.73 L 4972.38,5892.28 L 4962.38,5898.05 L 4454.06,5603.7 Z " />
<path stroke="transparent" fill="#000000" transform="matrix(0.0666667 0 0 0.0666667 -209.853 -324)" d="M 4448.96,5683.8 L 4458.98,5666.49 L 4905.52,5925.06 L 4895.49,5942.37 L 4448.96,5683.8 Z " />
<path stroke="transparent" fill="#000000" transform="matrix(0.0666667 0 0 0.0666667 -209.853 -324)" d="M 4982.38,6497.5 L 4962.38,6485.99 L 4962.38,5898.05 L 4972.38,5892.28 L 4982.38,5898.05 L 4982.38,6497.5 Z " />
<path stroke="transparent" fill="#000000" transform="matrix(0.0666667 0 0 0.0666667 -209.853 -324)" d="M 3942.79,5898.06 L 3932.79,5892.28 L 3932.79,5880.74 L 4454.09,5580.6 L 4454.06,5603.7 L 3942.79,5898.06 Z " />
<path stroke="transparent" fill="#000000" transform="matrix(0.0666667 0 0 0.0666667 -209.853 -324)" d="M 4454.09,6804.23 L 4454.06,6781.12 L 4962.38,6485.99 L 4982.38,6497.5 L 4454.09,6804.23 Z " />
<path stroke="transparent" fill="#000000" transform="matrix(0.0666667 0 0 0.0666667 -209.853 -324)" d="M 4458.99,6718.22 L 4448.95,6700.93 L 4895.43,6441.69 L 4905.48,6458.99 L 4458.99,6718.22 Z " />
<path stroke="transparent" fill="#000000" transform="matrix(0.0666667 0 0 0.0666667 -209.853 -324)" d="M 3507.98,5658.56 L 3517.99,5641.24 L 3932.79,5880.74 L 3932.79,5892.28 L 3922.79,5898.06 L 3507.98,5658.56 Z " />
<path stroke="transparent" fill="#000000" transform="matrix(0.0666667 0 0 0.0666667 -209.853 -324)" d="M 3942.79,6485.97 L 3932.79,6491.75 L 3922.79,6485.98 L 3922.79,5898.06 L 3932.79,5892.28 L 3942.79,5898.06 L 3942.79,6485.97 Z " />
<path stroke="transparent" fill="#000000" transform="matrix(0.0666667 0 0 0.0666667 -209.853 -324)" d="M 4014.72,6450.21 L 3994.72,6450.21 L 3994.72,5933.87 L 4014.72,5933.87 L 4014.72,6450.21 Z " />
<path stroke="transparent" fill="#000000" transform="matrix(0.0666667 0 0 0.0666667 -209.853 -324)" d="M 3932.79,6503.3 L 3932.79,6491.75 L 3942.79,6485.97 L 4454.06,6781.12 L 4454.09,6804.23 L 3932.79,6503.3 Z " />
<path stroke="transparent" fill="#000000" transform="matrix(0.0666667 0 0 0.0666667 -209.853 -324)" d="M 3510.52,6747.76 L 3500.5,6730.45 L 3922.79,6485.98 L 3932.79,6491.75 L 3932.79,6503.3 L 3510.52,6747.76 Z " />
</svg>
