<?xml version="1.0" standalone="no" ?>
<!DOCTYPE svg PUBLIC "-//W3C//DTD SVG 1.1//EN" "http://www.w3.org/Graphics/SVG/1.1/DTD/svg11.dtd">
<svg width="200px" height="179px" viewBox="0 0 200 179" style="background-color: #ffffff00" xmlns="http://www.w3.org/2000/svg" xmlns:xlink="http://www.w3.org/1999/xlink" version="1.1" >
<text x="0" y="0" stroke="none" fill="#000000" transform="matrix(0.0666667 0 0 0.0666667 29.0794 74.2796)" font-style="normal" font-weight="normal" font-size="200px" font-family="Arial" >
HN</text>
<text x="0" y="0" stroke="none" fill="#000000" transform="matrix(0.0666667 0 0 0.0666667 72.8978 134.853)" font-style="normal" font-weight="normal" font-size="200px" font-family="Arial" >
N</text>
<text x="0" y="0" stroke="none" fill="#000000" transform="matrix(0.0666667 0 0 0.0666667 72.8978 145.975)" font-style="normal" font-weight="normal" font-size="200px" font-family="Arial" >
H</text>
<text x="0" y="0" stroke="none" fill="#000000" transform="matrix(0.0666667 0 0 0.0666667 2.96254 134.053)" font-style="normal" font-weight="normal" font-size="200px" font-family="Arial" >
O</text>
<text x="0" y="0" stroke="none" fill="#000000" transform="matrix(0.0666667 0 0 0.0666667 73.1097 14.1397)" font-style="normal" font-weight="normal" font-size="200px" font-family="Arial" >
O</text>
<text x="0" y="0" stroke="none" fill="#000000" transform="matrix(0.0666667 0 0 0.0666667 142.033 176.005)" font-style="normal" font-weight="normal" font-size="200px" font-family="Arial" >
O</text>
<text x="0" y="0" stroke="none" fill="#000000" transform="matrix(0.0666667 0 0 0.0666667 177.051 116.838)" font-style="normal" font-weight="normal" font-size="200px" font-family="Arial" >
OH</text>
<path stroke="none" fill="#000000" transform="matrix(0.0666667 0 0 0.0666667 -248.859 -198)" d="M 5438.99,4617.74 L 5429.04,4623.47 L 5418.99,4617.58 L 5413.67,4033.03 L 5433.57,4021.56 L 5438.99,4617.74 Z " />
<path stroke="none" fill="#000000" transform="matrix(0.0666667 0 0 0.0666667 -248.859 -198)" d="M 5367.11,4581.25 L 5347.11,4581.43 L 5342.45,4068.4 L 5362.44,4068.22 L 5367.11,4581.25 Z " />
<path stroke="none" fill="#000000" transform="matrix(0.0666667 0 0 0.0666667 -248.859 -198)" d="M 5418.99,4617.58 L 5429.04,4623.47 L 5428.85,4634.98 L 5007.76,4866.14 L 4998.14,4848.61 L 5418.99,4617.58 Z " />
<path stroke="none" fill="#000000" transform="matrix(0.0666667 0 0 0.0666667 -248.859 -198)" d="M 5428.85,4634.98 L 5429.04,4623.47 L 5438.99,4617.74 L 5950.7,4920.61 L 5950.4,4943.67 L 5428.85,4634.98 Z " />
<path stroke="none" fill="#000000" transform="matrix(0.0666667 0 0 0.0666667 -248.859 -198)" d="M 4375.94,4123.36 L 4395.94,4123.36 L 4395.94,4605.84 L 4375.94,4617.25 L 4375.94,4123.36 Z " />
<path stroke="none" fill="#000000" transform="matrix(0.0666667 0 0 0.0666667 -248.859 -198)" d="M 4494.89,3959.02 L 4485.43,3941.4 L 4911.45,3712.56 L 4910.97,3735.52 L 4494.89,3959.02 Z " />
<path stroke="none" fill="#000000" transform="matrix(0.0666667 0 0 0.0666667 -248.859 -198)" d="M 4375.94,4617.25 L 4395.94,4605.84 L 4800,4844.97 L 4789.82,4862.19 L 4375.94,4617.25 Z " />
<path stroke="none" fill="#000000" transform="matrix(0.0666667 0 0 0.0666667 -248.859 -198)" d="M 4381.13,4561.35 L 4390.75,4578.88 L 3936.36,4828.3 L 3926.73,4810.76 L 4381.13,4561.35 Z " />
<path stroke="none" fill="#000000" transform="matrix(0.0666667 0 0 0.0666667 -248.859 -198)" d="M 4417.45,4624.27 L 4427.07,4641.8 L 3971.31,4891.97 L 3961.68,4874.44 L 4417.45,4624.27 Z " />
<path stroke="none" fill="#000000" transform="matrix(0.0666667 0 0 0.0666667 -248.859 -198)" d="M 5433.57,4021.56 L 5413.67,4033.03 L 4910.97,3735.52 L 4911.45,3712.56 L 5433.57,4021.56 Z " />
<path stroke="none" fill="#000000" transform="matrix(0.0666667 0 0 0.0666667 -248.859 -198)" d="M 4958.54,3746.08 L 4938.54,3746.2 L 4935.43,3223.76 L 4955.43,3223.64 L 4958.54,3746.08 Z " />
<path stroke="none" fill="#000000" transform="matrix(0.0666667 0 0 0.0666667 -248.859 -198)" d="M 4884.13,3743.9 L 4864.13,3744.02 L 4861.04,3224.21 L 4881.04,3224.09 L 4884.13,3743.9 Z " />
<path stroke="none" fill="#000000" transform="matrix(0.0666667 0 0 0.0666667 -248.859 -198)" d="M 5904.87,4910.87 L 5924.87,4911.18 L 5916.99,5426.53 L 5896.99,5426.22 L 5904.87,4910.87 Z " />
<path stroke="none" fill="#000000" transform="matrix(0.0666667 0 0 0.0666667 -248.859 -198)" d="M 5976.87,4911.75 L 5996.87,4912.06 L 5988.98,5427.63 L 5968.98,5427.32 L 5976.87,4911.75 Z " />
<path stroke="none" fill="#000000" transform="matrix(0.0666667 0 0 0.0666667 -248.859 -198)" d="M 5950.4,4943.67 L 5950.7,4920.61 L 6361.48,4691.72 L 6371.21,4709.2 L 5950.4,4943.67 Z " />
</svg>
