<?xml version="1.0" standalone="no" ?>
<!DOCTYPE svg PUBLIC "-//W3C//DTD SVG 1.1//EN" "http://www.w3.org/Graphics/SVG/1.1/DTD/svg11.dtd">
<svg width="408px" height="244px" viewBox="0 0 408 244" style="background-color: #ffffff00" xmlns="http://www.w3.org/2000/svg" xmlns:xlink="http://www.w3.org/1999/xlink" version="1.1" >
<text x="0" y="0" stroke="transparent" fill="#000000" transform="matrix(0.0833333 0 0 0.0833333 288.68 26.0295)" style="font:normal normal normal 200px 'Arial'" >
HO</text>
<text x="0" y="0" stroke="transparent" fill="#000000" transform="matrix(0.0833333 0 0 0.0833333 3.75138 240.388)" style="font:normal normal normal 200px 'Arial'" >
O</text>
<path stroke="transparent" fill="#000000" transform="matrix(0.0833333 0 0 0.0833333 -235.875 -250)" d="M 6131.35,3439.3 L 6011.32,3376.82 L 5582.64,3065.36 L 5594.39,3049.18 L 6131.35,3439.3 Z " />
<path stroke="transparent" fill="#000000" transform="matrix(0.0833333 0 0 0.0833333 -235.875 -250)" d="M 6011.32,3376.82 L 6131.35,3439.3 L 6082.46,3992.48 L 6071.21,4006.65 L 6059.77,3988.5 L 6011.32,3376.82 Z " />
<path stroke="transparent" fill="#000000" transform="matrix(0.0833333 0 0 0.0833333 -235.875 -250)" d="M 5551.59,3718.2 L 5551.59,3695.11 L 6059.77,3988.5 L 6071.21,4006.65 L 6061.21,4012.43 L 5551.59,3718.2 Z " />
<path stroke="transparent" fill="#000000" transform="matrix(0.0833333 0 0 0.0833333 -235.875 -250)" d="M 5094,3982.39 L 4973.81,4028.69 L 5551.59,3695.11 L 5551.59,3718.2 L 5094,3982.39 Z " />
<path stroke="transparent" fill="#000000" transform="matrix(0.0833333 0 0 0.0833333 -235.875 -250)" d="M 4973.81,4028.69 L 5094,3982.39 L 5042.44,4601.14 L 5031.98,4606.65 L 5021.52,4601.14 L 4973.81,4028.69 Z " />
<path stroke="transparent" fill="#000000" transform="matrix(0.0833333 0 0 0.0833333 -235.875 -250)" d="M 5551.59,4895.11 L 5551.59,4918.2 L 5031.98,4618.2 L 5031.98,4606.65 L 5042.44,4601.14 L 5551.59,4895.11 Z " />
<path stroke="transparent" fill="#000000" transform="matrix(0.0833333 0 0 0.0833333 -235.875 -250)" d="M 6061.21,4600.88 L 6071.21,4606.65 L 6071.95,4617.77 L 5551.59,4918.2 L 5551.59,4895.11 L 6061.21,4600.88 Z " />
<path stroke="transparent" fill="#000000" transform="matrix(0.0833333 0 0 0.0833333 -235.875 -250)" d="M 6081.21,4598.77 L 6071.21,4606.65 L 6061.21,4600.88 L 6061.21,4012.43 L 6071.21,4006.65 L 6081.21,4013.92 L 6081.21,4598.77 Z " />
<path stroke="transparent" fill="#000000" transform="matrix(0.0833333 0 0 0.0833333 -235.875 -250)" d="M 6669.4,4737.12 L 6615.21,4845.73 L 6071.95,4617.77 L 6071.21,4606.65 L 6081.21,4598.77 L 6669.4,4737.12 Z " />
<path stroke="transparent" fill="#000000" transform="matrix(0.0833333 0 0 0.0833333 -235.875 -250)" d="M 6982.15,4306.65 L 7006.87,4306.65 L 6615.21,4845.73 L 6669.4,4737.12 L 6982.15,4306.65 Z " />
<path stroke="transparent" fill="#000000" transform="matrix(0.0833333 0 0 0.0833333 -235.875 -250)" d="M 6638.02,3833 L 6641.84,3821.24 L 6651.44,3817.44 L 7006.87,4306.65 L 6982.15,4306.65 L 6638.02,3833 Z " />
<path stroke="transparent" fill="#000000" transform="matrix(0.0833333 0 0 0.0833333 -235.875 -250)" d="M 6629.3,3814.8 L 6641.84,3821.24 L 6638.02,3833 L 6081.21,4013.92 L 6071.21,4006.65 L 6082.46,3992.48 L 6629.3,3814.8 Z " />
<path stroke="transparent" fill="#000000" transform="matrix(0.0833333 0 0 0.0833333 -235.875 -250)" d="M 7007.38,3411.37 L 7087.68,3500.55 L 7071.46,3512.42 L 6993.88,3426.26 L 7007.38,3411.37 Z " />
<path stroke="transparent" fill="#000000" transform="matrix(0.0833333 0 0 0.0833333 -235.875 -250)" d="M 6967.57,3455.29 L 7039.84,3535.55 L 7023.61,3547.43 L 6954.06,3470.18 L 6967.57,3455.29 Z " />
<path stroke="transparent" fill="#000000" transform="matrix(0.0833333 0 0 0.0833333 -235.875 -250)" d="M 6927.75,3499.21 L 6992,3570.56 L 6975.77,3582.43 L 6914.25,3514.1 L 6927.75,3499.21 Z " />
<path stroke="transparent" fill="#000000" transform="matrix(0.0833333 0 0 0.0833333 -235.875 -250)" d="M 6887.93,3543.13 L 6944.16,3605.57 L 6927.93,3617.44 L 6874.43,3558.02 L 6887.93,3543.13 Z " />
<path stroke="transparent" fill="#000000" transform="matrix(0.0833333 0 0 0.0833333 -235.875 -250)" d="M 6848.12,3587.05 L 6896.32,3640.58 L 6880.09,3652.45 L 6834.61,3601.94 L 6848.12,3587.05 Z " />
<path stroke="transparent" fill="#000000" transform="matrix(0.0833333 0 0 0.0833333 -235.875 -250)" d="M 6808.3,3630.97 L 6848.48,3675.58 L 6832.25,3687.46 L 6794.8,3645.86 L 6808.3,3630.97 Z " />
<path stroke="transparent" fill="#000000" transform="matrix(0.0833333 0 0 0.0833333 -235.875 -250)" d="M 6768.48,3674.88 L 6800.63,3710.59 L 6784.41,3722.46 L 6754.98,3689.78 L 6768.48,3674.88 Z " />
<path stroke="transparent" fill="#000000" transform="matrix(0.0833333 0 0 0.0833333 -235.875 -250)" d="M 6728.67,3718.8 L 6752.79,3745.6 L 6736.57,3757.47 L 6715.16,3733.7 L 6728.67,3718.8 Z " />
<path stroke="transparent" fill="#000000" transform="matrix(0.0833333 0 0 0.0833333 -235.875 -250)" d="M 6688.85,3762.72 L 6704.95,3780.61 L 6688.73,3792.48 L 6675.35,3777.62 L 6688.85,3762.72 Z " />
<path stroke="transparent" fill="#000000" transform="matrix(0.0833333 0 0 0.0833333 -235.875 -250)" d="M 6483.8,3366.32 L 6601.18,3341.37 L 6651.44,3817.44 L 6641.84,3821.24 L 6629.3,3814.8 L 6483.8,3366.32 Z " />
<path stroke="transparent" fill="#000000" transform="matrix(0.0833333 0 0 0.0833333 -235.875 -250)" d="M 5611.59,5452.56 L 5491.59,5452.56 L 5493.63,5432.56 L 5609.56,5432.56 L 5611.59,5452.56 Z " />
<path stroke="transparent" fill="#000000" transform="matrix(0.0833333 0 0 0.0833333 -235.875 -250)" d="M 5605.6,5393.58 L 5497.59,5393.58 L 5499.62,5373.58 L 5603.56,5373.58 L 5605.6,5393.58 Z " />
<path stroke="transparent" fill="#000000" transform="matrix(0.0833333 0 0 0.0833333 -235.875 -250)" d="M 5599.6,5334.61 L 5503.58,5334.61 L 5505.62,5314.61 L 5597.57,5314.61 L 5599.6,5334.61 Z " />
<path stroke="transparent" fill="#000000" transform="matrix(0.0833333 0 0 0.0833333 -235.875 -250)" d="M 5593.61,5275.63 L 5509.58,5275.63 L 5511.61,5255.63 L 5591.57,5255.63 L 5593.61,5275.63 Z " />
<path stroke="transparent" fill="#000000" transform="matrix(0.0833333 0 0 0.0833333 -235.875 -250)" d="M 5587.61,5216.65 L 5515.58,5216.65 L 5517.61,5196.65 L 5585.58,5196.65 L 5587.61,5216.65 Z " />
<path stroke="transparent" fill="#000000" transform="matrix(0.0833333 0 0 0.0833333 -235.875 -250)" d="M 5581.61,5157.67 L 5521.57,5157.67 L 5523.61,5137.67 L 5579.58,5137.67 L 5581.61,5157.67 Z " />
<path stroke="transparent" fill="#000000" transform="matrix(0.0833333 0 0 0.0833333 -235.875 -250)" d="M 5575.62,5098.7 L 5527.57,5098.7 L 5529.6,5078.7 L 5573.58,5078.7 L 5575.62,5098.7 Z " />
<path stroke="transparent" fill="#000000" transform="matrix(0.0833333 0 0 0.0833333 -235.875 -250)" d="M 5569.62,5039.72 L 5533.56,5039.72 L 5535.6,5019.72 L 5567.59,5019.72 L 5569.62,5039.72 Z " />
<path stroke="transparent" fill="#000000" transform="matrix(0.0833333 0 0 0.0833333 -235.875 -250)" d="M 5563.63,4980.74 L 5539.56,4980.74 L 5541.59,4960.74 L 5561.59,4960.74 L 5563.63,4980.74 Z " />
<path stroke="transparent" fill="#000000" transform="matrix(0.0833333 0 0 0.0833333 -235.875 -250)" d="M 5031.98,5818.2 L 5031.98,5795.1 L 5546.59,5497.99 L 5556.59,5515.31 L 5031.98,5818.2 Z " />
<path stroke="transparent" fill="#000000" transform="matrix(0.0833333 0 0 0.0833333 -235.875 -250)" d="M 4512.36,5518.2 L 4512.36,5506.65 L 4522.36,5500.88 L 5031.98,5795.1 L 5031.98,5818.2 L 4512.36,5518.2 Z " />
<path stroke="transparent" fill="#000000" transform="matrix(0.0833333 0 0 0.0833333 -235.875 -250)" d="M 3992.75,5818.2 L 3992.75,5795.1 L 4502.36,5500.88 L 4512.36,5506.65 L 4512.36,5518.2 L 3992.75,5818.2 Z " />
<path stroke="transparent" fill="#000000" transform="matrix(0.0833333 0 0 0.0833333 -235.875 -250)" d="M 3997.75,5732.17 L 3987.75,5714.85 L 4435.36,5456.42 L 4445.36,5473.74 L 3997.75,5732.17 Z " />
<path stroke="transparent" fill="#000000" transform="matrix(0.0833333 0 0 0.0833333 -235.875 -250)" d="M 3463.13,5512.43 L 3483.13,5500.88 L 3992.75,5795.1 L 3992.75,5818.2 L 3463.13,5512.43 Z " />
<path stroke="transparent" fill="#000000" transform="matrix(0.0833333 0 0 0.0833333 -235.875 -250)" d="M 3069.14,5793.02 L 3059.14,5775.7 L 3504.13,5518.78 L 3514.13,5536.1 L 3069.14,5793.02 Z " />
<path stroke="transparent" fill="#000000" transform="matrix(0.0833333 0 0 0.0833333 -235.875 -250)" d="M 3033.14,5730.66 L 3023.14,5713.34 L 3468.13,5456.42 L 3478.13,5473.74 L 3033.14,5730.66 Z " />
<path stroke="transparent" fill="#000000" transform="matrix(0.0833333 0 0 0.0833333 -235.875 -250)" d="M 3463.13,4900.88 L 3483.13,4912.43 L 3483.13,5500.88 L 3463.13,5512.43 L 3463.13,4900.88 Z " />
<path stroke="transparent" fill="#000000" transform="matrix(0.0833333 0 0 0.0833333 -235.875 -250)" d="M 3987.75,4597.99 L 3997.75,4615.31 L 3483.13,4912.43 L 3463.13,4900.88 L 3987.75,4597.99 Z " />
<path stroke="transparent" fill="#000000" transform="matrix(0.0833333 0 0 0.0833333 -235.875 -250)" d="M 4009.59,4685.66 L 4069.59,4581.74 L 4085.89,4593.5 L 4027.93,4693.9 L 4009.59,4685.66 Z " />
<path stroke="transparent" fill="#000000" transform="matrix(0.0833333 0 0 0.0833333 -235.875 -250)" d="M 4063.66,4709.96 L 4117.67,4616.42 L 4133.97,4628.18 L 4082,4718.19 L 4063.66,4709.96 Z " />
<path stroke="transparent" fill="#000000" transform="matrix(0.0833333 0 0 0.0833333 -235.875 -250)" d="M 4117.74,4734.25 L 4165.75,4651.1 L 4182.05,4662.86 L 4136.08,4742.49 L 4117.74,4734.25 Z " />
<path stroke="transparent" fill="#000000" transform="matrix(0.0833333 0 0 0.0833333 -235.875 -250)" d="M 4171.81,4758.55 L 4213.82,4685.78 L 4230.13,4697.54 L 4190.15,4766.79 L 4171.81,4758.55 Z " />
<path stroke="transparent" fill="#000000" transform="matrix(0.0833333 0 0 0.0833333 -235.875 -250)" d="M 4225.89,4782.84 L 4261.9,4720.46 L 4278.21,4732.22 L 4244.22,4791.08 L 4225.89,4782.84 Z " />
<path stroke="transparent" fill="#000000" transform="matrix(0.0833333 0 0 0.0833333 -235.875 -250)" d="M 4279.96,4807.14 L 4309.98,4755.14 L 4326.28,4766.9 L 4298.3,4815.38 L 4279.96,4807.14 Z " />
<path stroke="transparent" fill="#000000" transform="matrix(0.0833333 0 0 0.0833333 -235.875 -250)" d="M 4334.03,4831.44 L 4358.06,4789.82 L 4374.36,4801.58 L 4352.37,4839.68 L 4334.03,4831.44 Z " />
<path stroke="transparent" fill="#000000" transform="matrix(0.0833333 0 0 0.0833333 -235.875 -250)" d="M 4388.11,4855.73 L 4406.14,4824.5 L 4422.44,4836.27 L 4406.44,4863.97 L 4388.11,4855.73 Z " />
<path stroke="transparent" fill="#000000" transform="matrix(0.0833333 0 0 0.0833333 -235.875 -250)" d="M 4442.18,4880.03 L 4454.21,4859.19 L 4470.52,4870.95 L 4460.52,4888.27 L 4442.18,4880.03 Z " />
<path stroke="transparent" fill="#000000" transform="matrix(0.0833333 0 0 0.0833333 -235.875 -250)" d="M 4522.36,4912.43 L 4502.36,4900.88 L 5021.52,4601.14 L 5031.98,4606.65 L 5031.98,4618.2 L 4522.36,4912.43 Z " />
<path stroke="transparent" fill="#000000" transform="matrix(0.0833333 0 0 0.0833333 -235.875 -250)" d="M 4502.36,4900.88 L 4522.36,4912.43 L 4522.36,5500.88 L 4512.36,5506.65 L 4502.36,5500.88 L 4502.36,4900.88 Z " />
<path stroke="transparent" fill="#000000" transform="matrix(0.0833333 0 0 0.0833333 -235.875 -250)" d="M 7683.7,3527.19 L 7677.52,3546.21 L 7106.89,3360.8 L 7113.07,3341.78 L 7683.7,3527.19 Z " />
<path stroke="transparent" fill="#000000" transform="matrix(0.0833333 0 0 0.0833333 -235.875 -250)" d="M 7661.45,3595.66 L 7655.27,3614.69 L 7084.64,3429.27 L 7090.82,3410.25 L 7661.45,3595.66 Z " />
<path stroke="transparent" fill="#000000" transform="matrix(0.0833333 0 0 0.0833333 -235.875 -250)" d="M 7639.2,3664.14 L 7633.02,3683.16 L 7062.39,3497.75 L 7068.57,3478.73 L 7639.2,3664.14 Z " />
</svg>
