<?xml version="1.0" standalone="no" ?>
<!DOCTYPE svg PUBLIC "-//W3C//DTD SVG 1.1//EN" "http://www.w3.org/Graphics/SVG/1.1/DTD/svg11.dtd">
<svg width="400px" height="281px" viewBox="0 0 400 281" style="background-color: #ffffff00" xmlns="http://www.w3.org/2000/svg" xmlns:xlink="http://www.w3.org/1999/xlink" version="1.1" >
<text x="0" y="0" stroke="transparent" fill="#000000" transform="matrix(0.0666667 0 0 0.0666667 302.784 126.353)" style="font:normal normal normal 200px 'Arial'" >
O</text>
<text x="0" y="0" stroke="transparent" fill="#000000" transform="matrix(0.0666667 0 0 0.0666667 277.804 25.6575)" style="font:normal normal normal 200px 'Arial'" >
HN</text>
<text x="0" y="0" stroke="transparent" fill="#000000" transform="matrix(0.0666667 0 0 0.0666667 151.428 237.414)" style="font:normal normal normal 200px 'Arial'" >
H</text>
<text x="0" y="0" stroke="transparent" fill="#000000" transform="matrix(0.0666667 0 0 0.0666667 235.918 225.342)" style="font:normal normal normal 200px 'Arial'" >
H</text>
<text x="0" y="0" stroke="transparent" fill="#000000" transform="matrix(0.0666667 0 0 0.0666667 186.229 177.665)" style="font:normal normal normal 200px 'Arial'" >
H</text>
<text x="0" y="0" stroke="transparent" fill="#000000" transform="matrix(0.0666667 0 0 0.0666667 254.626 36.4448)" style="font:normal normal normal 200px 'Arial'" >
H</text>
<text x="0" y="0" stroke="transparent" fill="#000000" transform="matrix(0.0666667 0 0 0.0666667 343.546 116.711)" style="font:normal normal normal 200px 'Arial'" >
H</text>
<text x="0" y="0" stroke="transparent" fill="#000000" transform="matrix(0.0666667 0 0 0.0666667 2.79436 277.245)" style="font:normal normal normal 200px 'Arial'" >
HO</text>
<text x="0" y="0" stroke="transparent" fill="#000000" transform="matrix(0.0666667 0 0 0.0666667 131.11 129.786)" style="font:normal normal normal 200px 'Arial'" >
O</text>
<path stroke="transparent" fill="#000000" transform="matrix(0.0666667 0 0 0.0666667 -148.859 -125)" d="M 6262.04,3681.84 L 6255.01,3692.56 L 6240.7,3680.91 L 6059.21,3123.47 L 6082.73,3131.08 L 6262.04,3681.84 Z " />
<path stroke="transparent" fill="#000000" transform="matrix(0.0666667 0 0 0.0666667 -148.859 -125)" d="M 5553.44,4649.35 L 5546.6,4658.66 L 5534.57,4656.11 L 5300.53,4120.56 L 5306.78,4109.87 L 5318.24,4111.13 L 5553.44,4649.35 Z " />
<path stroke="transparent" fill="#000000" transform="matrix(0.0666667 0 0 0.0666667 -148.859 -125)" d="M 6137.53,4713.3 L 6146.81,4734.44 L 5550,4669.1 L 5546.6,4658.66 L 5553.44,4649.35 L 6137.53,4713.3 Z " />
<path stroke="transparent" fill="#000000" transform="matrix(0.0666667 0 0 0.0666667 -148.859 -125)" d="M 6486.43,4239.07 L 6509.42,4241.57 L 6146.81,4734.44 L 6137.53,4713.3 L 6486.43,4239.07 Z " />
<path stroke="transparent" fill="#000000" transform="matrix(0.0666667 0 0 0.0666667 -148.859 -125)" d="M 6248.2,3701.86 L 6255.01,3692.56 L 6271.11,3704.2 L 6509.42,4241.57 L 6486.43,4239.07 L 6248.2,3701.86 Z " />
<path stroke="transparent" fill="#000000" transform="matrix(0.0666667 0 0 0.0666667 -148.859 -125)" d="M 5664.23,3636.91 L 5659.57,3626.33 L 5665.67,3616.94 L 6240.7,3680.91 L 6255.01,3692.56 L 6248.2,3701.86 L 5664.23,3636.91 Z " />
<path stroke="transparent" fill="#000000" transform="matrix(0.0666667 0 0 0.0666667 -148.859 -125)" d="M 5318.24,4111.13 L 5306.78,4109.87 L 5301.33,4100.38 L 5647.64,3625.72 L 5659.57,3626.33 L 5664.23,3636.91 L 5318.24,4111.13 Z " />
<path stroke="transparent" fill="#000000" transform="matrix(0.0666667 0 0 0.0666667 -148.859 -125)" d="M 5397.18,4124.79 L 5381.03,4113 L 5684.96,3696.43 L 5701.12,3708.21 L 5397.18,4124.79 Z " />
<path stroke="transparent" fill="#000000" transform="matrix(0.0666667 0 0 0.0666667 -148.859 -125)" d="M 6744.62,3632.35 L 6744.67,3752.35 L 6271.11,3704.2 L 6255.01,3692.56 L 6262.04,3681.84 L 6744.62,3632.35 Z " />
<path stroke="transparent" fill="#000000" transform="matrix(0.0666667 0 0 0.0666667 -148.859 -125)" d="M 7025.7,3129.92 L 7037.46,3126.12 L 7045.59,3133.43 L 6895.03,3594.69 L 6876.01,3588.48 L 7025.7,3129.92 Z " />
<path stroke="transparent" fill="#000000" transform="matrix(0.0666667 0 0 0.0666667 -148.859 -125)" d="M 4067.05,5654.23 L 4057.02,5659.98 L 4047.05,5654.2 L 4049.53,5065.18 L 4059.55,5059.44 L 4069.53,5065.24 L 4067.05,5654.23 Z " />
<path stroke="transparent" fill="#000000" transform="matrix(0.0666667 0 0 0.0666667 -148.859 -125)" d="M 4576.26,5949.37 L 4576.16,5972.43 L 4057.02,5671.54 L 4057.02,5659.98 L 4067.05,5654.23 L 4576.26,5949.37 Z " />
<path stroke="transparent" fill="#000000" transform="matrix(0.0666667 0 0 0.0666667 -148.859 -125)" d="M 4581.58,5869.22 L 4571.55,5886.52 L 4124.19,5627.24 L 4134.22,5609.94 L 4581.58,5869.22 Z " />
<path stroke="transparent" fill="#000000" transform="matrix(0.0666667 0 0 0.0666667 -148.859 -125)" d="M 5087.97,5658.55 L 5107.88,5670.24 L 4576.16,5972.43 L 4576.26,5949.37 L 5087.97,5658.55 Z " />
<path stroke="transparent" fill="#000000" transform="matrix(0.0666667 0 0 0.0666667 -148.859 -125)" d="M 5092.59,5069.83 L 5102.64,5064.11 L 5112.6,5068.55 L 5107.88,5670.24 L 5087.97,5658.55 L 5092.59,5069.83 Z " />
<path stroke="transparent" fill="#000000" transform="matrix(0.0666667 0 0 0.0666667 -148.859 -125)" d="M 7038.66,3114.62 L 7037.46,3126.12 L 7025.7,3129.92 L 6554.78,2786.94 L 6554.77,2774.57 L 6565.32,2769.87 L 7038.66,3114.62 Z " />
<path stroke="transparent" fill="#000000" transform="matrix(0.0666667 0 0 0.0666667 -148.859 -125)" d="M 7572.84,2875.28 L 7591.53,2888.82 L 7045.59,3133.43 L 7037.46,3126.12 L 7038.66,3114.62 L 7572.84,2875.28 Z " />
<path stroke="transparent" fill="#000000" transform="matrix(0.0666667 0 0 0.0666667 -148.859 -125)" d="M 7633.62,2294.07 L 7644.17,2289.35 L 7653.54,2295.89 L 7591.53,2888.82 L 7572.84,2875.28 L 7633.62,2294.07 Z " />
<path stroke="transparent" fill="#000000" transform="matrix(0.0666667 0 0 0.0666667 -148.859 -125)" d="M 7160.28,1952.26 L 7162.69,1929.33 L 7644.26,2277.08 L 7644.17,2289.35 L 7633.62,2294.07 L 7160.28,1952.26 Z " />
<path stroke="transparent" fill="#000000" transform="matrix(0.0666667 0 0 0.0666667 -148.859 -125)" d="M 6726.79,2144.12 L 6718.69,2125.83 L 7162.69,1929.33 L 7160.28,1952.26 L 6726.79,2144.12 Z " />
<path stroke="transparent" fill="#000000" transform="matrix(0.0666667 0 0 0.0666667 -148.859 -125)" d="M 6565.32,2769.87 L 6554.77,2774.57 L 6547.34,2749.55 L 6594.71,2296.93 L 6614.6,2299.02 L 6565.32,2769.87 Z " />
<path stroke="transparent" fill="#000000" transform="matrix(0.0666667 0 0 0.0666667 -148.859 -125)" d="M 4069.53,5065.24 L 4059.55,5059.44 L 4070.89,5041.4 L 4572.42,4753.49 L 4581.27,4759.94 L 4581.22,4771.49 L 4069.53,5065.24 Z " />
<path stroke="transparent" fill="#000000" transform="matrix(0.0666667 0 0 0.0666667 -148.859 -125)" d="M 3994.28,4459.47 L 4114.28,4458.41 L 4070.89,5041.4 L 4059.55,5059.44 L 4047.85,5041.06 L 3994.28,4459.47 Z " />
<path stroke="transparent" fill="#000000" transform="matrix(0.0666667 0 0 0.0666667 -148.859 -125)" d="M 6082.73,3131.08 L 6059.21,3123.47 L 6538.42,2774.11 L 6554.77,2774.57 L 6554.78,2786.94 L 6082.73,3131.08 Z " />
<path stroke="transparent" fill="#000000" transform="matrix(0.0666667 0 0 0.0666667 -148.859 -125)" d="M 4637.15,5255.88 L 4517.15,5254.89 L 4519.58,5234.91 L 4635.05,5235.86 L 4637.15,5255.88 Z " />
<path stroke="transparent" fill="#000000" transform="matrix(0.0666667 0 0 0.0666667 -148.859 -125)" d="M 4630.83,5195.63 L 4524.47,5194.74 L 4526.9,5174.76 L 4628.73,5175.61 L 4630.83,5195.63 Z " />
<path stroke="transparent" fill="#000000" transform="matrix(0.0666667 0 0 0.0666667 -148.859 -125)" d="M 4624.51,5135.37 L 4531.79,5134.6 L 4534.22,5114.62 L 4622.41,5115.35 L 4624.51,5135.37 Z " />
<path stroke="transparent" fill="#000000" transform="matrix(0.0666667 0 0 0.0666667 -148.859 -125)" d="M 4618.19,5075.11 L 4539.11,5074.46 L 4541.54,5054.48 L 4616.09,5055.1 L 4618.19,5075.11 Z " />
<path stroke="transparent" fill="#000000" transform="matrix(0.0666667 0 0 0.0666667 -148.859 -125)" d="M 4611.87,5014.86 L 4546.43,5014.31 L 4548.86,4994.33 L 4609.77,4994.84 L 4611.87,5014.86 Z " />
<path stroke="transparent" fill="#000000" transform="matrix(0.0666667 0 0 0.0666667 -148.859 -125)" d="M 4605.55,4954.6 L 4553.75,4954.17 L 4556.18,4934.19 L 4603.45,4934.58 L 4605.55,4954.6 Z " />
<path stroke="transparent" fill="#000000" transform="matrix(0.0666667 0 0 0.0666667 -148.859 -125)" d="M 4599.23,4894.35 L 4561.07,4894.03 L 4563.5,4874.05 L 4597.13,4874.33 L 4599.23,4894.35 Z " />
<path stroke="transparent" fill="#000000" transform="matrix(0.0666667 0 0 0.0666667 -148.859 -125)" d="M 4592.92,4834.09 L 4568.39,4833.89 L 4570.82,4813.9 L 4590.82,4814.07 L 4592.92,4834.09 Z " />
<path stroke="transparent" fill="#000000" transform="matrix(0.0666667 0 0 0.0666667 -148.859 -125)" d="M 3029.2,5654.19 L 3019.2,5659.98 L 3009.2,5653.51 L 3009.2,5053.67 L 3029.2,5065.21 L 3029.2,5654.19 Z " />
<path stroke="transparent" fill="#000000" transform="matrix(0.0666667 0 0 0.0666667 -148.859 -125)" d="M 5835.13,5041.56 L 5731.01,5101.22 L 5723.13,5082.68 L 5823.13,5025.39 L 5835.13,5041.56 Z " />
<path stroke="transparent" fill="#000000" transform="matrix(0.0666667 0 0 0.0666667 -148.859 -125)" d="M 5800.71,4995.16 L 5708.4,5048.06 L 5700.51,5029.52 L 5788.71,4978.99 L 5800.71,4995.16 Z " />
<path stroke="transparent" fill="#000000" transform="matrix(0.0666667 0 0 0.0666667 -148.859 -125)" d="M 5766.28,4948.77 L 5685.78,4994.89 L 5677.89,4976.36 L 5754.28,4932.59 L 5766.28,4948.77 Z " />
<path stroke="transparent" fill="#000000" transform="matrix(0.0666667 0 0 0.0666667 -148.859 -125)" d="M 5731.86,4902.37 L 5663.16,4941.73 L 5655.28,4923.2 L 5719.86,4886.2 L 5731.86,4902.37 Z " />
<path stroke="transparent" fill="#000000" transform="matrix(0.0666667 0 0 0.0666667 -148.859 -125)" d="M 5697.43,4855.98 L 5640.54,4888.57 L 5632.66,4870.04 L 5685.43,4839.8 L 5697.43,4855.98 Z " />
<path stroke="transparent" fill="#000000" transform="matrix(0.0666667 0 0 0.0666667 -148.859 -125)" d="M 5663.01,4809.58 L 5617.93,4835.41 L 5610.04,4816.88 L 5651.01,4793.4 L 5663.01,4809.58 Z " />
<path stroke="transparent" fill="#000000" transform="matrix(0.0666667 0 0 0.0666667 -148.859 -125)" d="M 5628.58,4763.18 L 5595.31,4782.25 L 5587.42,4763.72 L 5616.58,4747.01 L 5628.58,4763.18 Z " />
<path stroke="transparent" fill="#000000" transform="matrix(0.0666667 0 0 0.0666667 -148.859 -125)" d="M 5594.16,4716.79 L 5572.69,4729.09 L 5564.81,4710.56 L 5582.16,4700.61 L 5594.16,4716.79 Z " />
<path stroke="transparent" fill="#000000" transform="matrix(0.0666667 0 0 0.0666667 -148.859 -125)" d="M 3540.93,5947.17 L 3540.99,5970.25 L 3019.73,5671.81 L 3019.2,5659.98 L 3029.2,5654.19 L 3540.93,5947.17 Z " />
<path stroke="transparent" fill="#000000" transform="matrix(0.0666667 0 0 0.0666667 -148.859 -125)" d="M 5039.16,4579.57 L 5159.15,4578.71 L 5115.01,5039.27 L 5102.64,5064.11 L 5090.58,5045.5 L 5039.16,4579.57 Z " />
<path stroke="transparent" fill="#000000" transform="matrix(0.0666667 0 0 0.0666667 -148.859 -125)" d="M 5090.58,5045.5 L 5102.64,5064.11 L 5092.59,5069.83 L 4581.22,4771.49 L 4581.27,4759.94 L 4592.56,4754.95 L 5090.58,5045.5 Z " />
<path stroke="transparent" fill="#000000" transform="matrix(0.0666667 0 0 0.0666667 -148.859 -125)" d="M 5346.16,3109.14 L 5363.44,3099.06 L 5665.67,3616.94 L 5659.57,3626.33 L 5647.64,3625.72 L 5346.16,3109.14 Z " />
<path stroke="transparent" fill="#000000" transform="matrix(0.0666667 0 0 0.0666667 -148.859 -125)" d="M 5534.57,4656.11 L 5546.6,4658.66 L 5550,4669.1 L 5112.6,5068.55 L 5102.64,5064.11 L 5115.01,5039.27 L 5534.57,4656.11 Z " />
<path stroke="transparent" fill="#000000" transform="matrix(0.0666667 0 0 0.0666667 -148.859 -125)" d="M 5716.22,2633.17 L 5820.12,2573.14 L 5828.56,2591.37 L 5727.79,2649.58 L 5716.22,2633.17 Z " />
<path stroke="transparent" fill="#000000" transform="matrix(0.0666667 0 0 0.0666667 -148.859 -125)" d="M 5750.38,2681.61 L 5845.02,2626.94 L 5853.45,2645.16 L 5761.96,2698.02 L 5750.38,2681.61 Z " />
<path stroke="transparent" fill="#000000" transform="matrix(0.0666667 0 0 0.0666667 -148.859 -125)" d="M 5784.55,2730.04 L 5869.91,2680.73 L 5878.35,2698.95 L 5796.13,2746.45 L 5784.55,2730.04 Z " />
<path stroke="transparent" fill="#000000" transform="matrix(0.0666667 0 0 0.0666667 -148.859 -125)" d="M 5818.72,2778.48 L 5894.81,2734.52 L 5903.24,2752.74 L 5830.29,2794.89 L 5818.72,2778.48 Z " />
<path stroke="transparent" fill="#000000" transform="matrix(0.0666667 0 0 0.0666667 -148.859 -125)" d="M 5852.88,2826.91 L 5919.7,2788.31 L 5928.13,2806.53 L 5864.46,2843.32 L 5852.88,2826.91 Z " />
<path stroke="transparent" fill="#000000" transform="matrix(0.0666667 0 0 0.0666667 -148.859 -125)" d="M 5887.05,2875.35 L 5944.59,2842.1 L 5953.03,2860.33 L 5898.62,2891.76 L 5887.05,2875.35 Z " />
<path stroke="transparent" fill="#000000" transform="matrix(0.0666667 0 0 0.0666667 -148.859 -125)" d="M 5921.21,2923.78 L 5969.49,2895.89 L 5977.92,2914.12 L 5932.79,2940.19 L 5921.21,2923.78 Z " />
<path stroke="transparent" fill="#000000" transform="matrix(0.0666667 0 0 0.0666667 -148.859 -125)" d="M 5955.38,2972.22 L 5994.38,2949.68 L 6002.82,2967.91 L 5966.95,2988.63 L 5955.38,2972.22 Z " />
<path stroke="transparent" fill="#000000" transform="matrix(0.0666667 0 0 0.0666667 -148.859 -125)" d="M 5989.54,3020.65 L 6019.27,3003.47 L 6027.71,3021.7 L 6001.12,3037.06 L 5989.54,3020.65 Z " />
<path stroke="transparent" fill="#000000" transform="matrix(0.0666667 0 0 0.0666667 -148.859 -125)" d="M 6023.71,3069.09 L 6044.17,3057.27 L 6052.6,3075.49 L 6035.28,3085.5 L 6023.71,3069.09 Z " />
<path stroke="transparent" fill="#000000" transform="matrix(0.0666667 0 0 0.0666667 -148.859 -125)" d="M 4715.77,4180.13 L 4699.26,4161.71 L 5301.33,4100.38 L 5306.78,4109.87 L 5300.53,4120.56 L 4715.77,4180.13 Z " />
<path stroke="transparent" fill="#000000" transform="matrix(0.0666667 0 0 0.0666667 -148.859 -125)" d="M 6176.65,2480.99 L 6261.54,2396.18 L 6547.34,2749.55 L 6554.77,2774.57 L 6538.42,2774.11 L 6176.65,2480.99 Z " />
<path stroke="transparent" fill="#000000" transform="matrix(0.0666667 0 0 0.0666667 -148.859 -125)" d="M 4592.56,4754.95 L 4581.27,4759.94 L 4572.42,4753.49 L 4699.26,4161.71 L 4715.77,4180.13 L 4592.56,4754.95 Z " />
<path stroke="transparent" fill="#000000" transform="matrix(0.0666667 0 0 0.0666667 -148.859 -125)" d="M 8130.66,1932.89 L 8191.6,2036.27 L 7653.54,2295.89 L 7644.17,2289.35 L 7644.26,2277.08 L 8130.66,1932.89 Z " />
<path stroke="transparent" fill="#000000" transform="matrix(0.0666667 0 0 0.0666667 -148.859 -125)" d="M 4047.05,5654.2 L 4057.02,5659.98 L 4057.02,5671.54 L 3540.99,5970.25 L 3540.93,5947.17 L 4047.05,5654.2 Z " />
<path stroke="transparent" fill="#000000" transform="matrix(0.0666667 0 0 0.0666667 -148.859 -125)" d="M 7413.44,3417.99 L 7328.49,3502.75 L 7316.06,3486.9 L 7397.62,3405.52 L 7413.44,3417.99 Z " />
<path stroke="transparent" fill="#000000" transform="matrix(0.0666667 0 0 0.0666667 -148.859 -125)" d="M 7368.45,3382.53 L 7293.13,3457.68 L 7280.7,3441.83 L 7352.63,3370.06 L 7368.45,3382.53 Z " />
<path stroke="transparent" fill="#000000" transform="matrix(0.0666667 0 0 0.0666667 -148.859 -125)" d="M 7323.46,3347.07 L 7257.77,3412.61 L 7245.34,3396.76 L 7307.64,3334.6 L 7323.46,3347.07 Z " />
<path stroke="transparent" fill="#000000" transform="matrix(0.0666667 0 0 0.0666667 -148.859 -125)" d="M 7278.47,3311.61 L 7222.41,3367.54 L 7209.98,3351.7 L 7262.65,3299.14 L 7278.47,3311.61 Z " />
<path stroke="transparent" fill="#000000" transform="matrix(0.0666667 0 0 0.0666667 -148.859 -125)" d="M 7233.48,3276.15 L 7187.05,3322.47 L 7174.62,3306.63 L 7217.66,3263.68 L 7233.48,3276.15 Z " />
<path stroke="transparent" fill="#000000" transform="matrix(0.0666667 0 0 0.0666667 -148.859 -125)" d="M 7188.49,3240.69 L 7151.69,3277.41 L 7139.26,3261.56 L 7172.67,3228.22 L 7188.49,3240.69 Z " />
<path stroke="transparent" fill="#000000" transform="matrix(0.0666667 0 0 0.0666667 -148.859 -125)" d="M 7143.5,3205.22 L 7116.33,3232.34 L 7103.9,3216.49 L 7127.68,3192.76 L 7143.5,3205.22 Z " />
<path stroke="transparent" fill="#000000" transform="matrix(0.0666667 0 0 0.0666667 -148.859 -125)" d="M 7098.51,3169.76 L 7080.97,3187.27 L 7068.54,3171.42 L 7082.69,3157.29 L 7098.51,3169.76 Z " />
<path stroke="transparent" fill="#000000" transform="matrix(0.0666667 0 0 0.0666667 -148.859 -125)" d="M 3540.95,4769.23 L 3540.98,4746.11 L 4047.85,5041.06 L 4059.55,5059.44 L 4049.53,5065.18 L 3540.95,4769.23 Z " />
<path stroke="transparent" fill="#000000" transform="matrix(0.0666667 0 0 0.0666667 -148.859 -125)" d="M 2619.84,5955.17 L 2560.69,5850.76 L 3009.2,5653.51 L 3019.2,5659.98 L 3019.73,5671.81 L 2619.84,5955.17 Z " />
<path stroke="transparent" fill="#000000" transform="matrix(0.0666667 0 0 0.0666667 -148.859 -125)" d="M 3029.2,5065.21 L 3009.2,5053.67 L 3540.98,4746.11 L 3540.95,4769.23 L 3029.2,5065.21 Z " />
<path stroke="transparent" fill="#000000" transform="matrix(0.0666667 0 0 0.0666667 -148.859 -125)" d="M 4329.31,3860.59 L 4343.4,3846.4 L 4705.51,4206.08 L 4691.41,4220.27 L 4329.31,3860.59 Z " />
<path stroke="transparent" fill="#000000" transform="matrix(0.0666667 0 0 0.0666667 -148.859 -125)" d="M 4380.56,3808.99 L 4394.66,3794.8 L 4761.37,4159.06 L 4747.27,4173.25 L 4380.56,3808.99 Z " />
</svg>
