<?xml version="1.0" standalone="no" ?>
<!DOCTYPE svg PUBLIC "-//W3C//DTD SVG 1.1//EN" "http://www.w3.org/Graphics/SVG/1.1/DTD/svg11.dtd">
<svg width="293px" height="174px" viewBox="0 0 293 174" style="background-color: #ffffff00" xmlns="http://www.w3.org/2000/svg" xmlns:xlink="http://www.w3.org/1999/xlink" version="1.1" >
<path stroke="transparent" fill="#000000" transform="matrix(0.0833333 0 0 0.0833333 -293.792 -277)" d="M 6667.77,4282 L 6674,4301.01 L 6204.83,4454.94 L 6209.57,4432.34 L 6667.77,4282 Z " />
<path stroke="transparent" fill="#000000" transform="matrix(0.0833333 0 0 0.0833333 -293.792 -277)" d="M 5799.46,3563.34 L 5916.91,3587.95 L 5910.5,3607.04 L 5797.67,3583.4 L 5799.46,3563.34 Z " />
<path stroke="transparent" fill="#000000" transform="matrix(0.0833333 0 0 0.0833333 -293.792 -277)" d="M 5794.29,3621.2 L 5898.42,3643.02 L 5892.01,3662.11 L 5792.5,3641.26 L 5794.29,3621.2 Z " />
<path stroke="transparent" fill="#000000" transform="matrix(0.0833333 0 0 0.0833333 -293.792 -277)" d="M 5789.12,3679.07 L 5879.92,3698.09 L 5873.51,3717.18 L 5787.33,3699.12 L 5789.12,3679.07 Z " />
<path stroke="transparent" fill="#000000" transform="matrix(0.0833333 0 0 0.0833333 -293.792 -277)" d="M 5783.95,3736.93 L 5861.43,3753.16 L 5855.02,3772.26 L 5782.15,3756.99 L 5783.95,3736.93 Z " />
<path stroke="transparent" fill="#000000" transform="matrix(0.0833333 0 0 0.0833333 -293.792 -277)" d="M 5778.78,3794.79 L 5842.94,3808.24 L 5836.52,3827.33 L 5776.98,3814.85 L 5778.78,3794.79 Z " />
<path stroke="transparent" fill="#000000" transform="matrix(0.0833333 0 0 0.0833333 -293.792 -277)" d="M 5773.6,3852.66 L 5824.44,3863.31 L 5818.03,3882.4 L 5771.81,3872.71 L 5773.6,3852.66 Z " />
<path stroke="transparent" fill="#000000" transform="matrix(0.0833333 0 0 0.0833333 -293.792 -277)" d="M 5768.43,3910.52 L 5805.95,3918.38 L 5799.54,3937.47 L 5766.64,3930.58 L 5768.43,3910.52 Z " />
<path stroke="transparent" fill="#000000" transform="matrix(0.0833333 0 0 0.0833333 -293.792 -277)" d="M 5763.26,3968.38 L 5787.45,3973.45 L 5781.04,3992.54 L 5761.47,3988.44 L 5763.26,3968.38 Z " />
<path stroke="transparent" fill="#000000" transform="matrix(0.0833333 0 0 0.0833333 -293.792 -277)" d="M 5305.45,5193.98 L 5289.3,5205.79 L 5001.23,4811.68 L 5006.3,4801.67 L 5017.38,4799.88 L 5305.45,5193.98 Z " />
<path stroke="transparent" fill="#000000" transform="matrix(0.0833333 0 0 0.0833333 -293.792 -277)" d="M 4125.56,5209.23 L 4109.34,5197.52 L 4395.21,4801.67 L 4406.3,4803.4 L 4411.42,4813.38 L 4125.56,5209.23 Z " />
<path stroke="transparent" fill="#000000" transform="matrix(0.0833333 0 0 0.0833333 -293.792 -277)" d="M 4763.4,3996.4 L 4833.66,3899.12 L 4848.51,3912.72 L 4780.98,4006.22 L 4763.4,3996.4 Z " />
<path stroke="transparent" fill="#000000" transform="matrix(0.0833333 0 0 0.0833333 -293.792 -277)" d="M 4814.74,4025.08 L 4877.02,3938.83 L 4891.87,3952.43 L 4832.32,4034.89 L 4814.74,4025.08 Z " />
<path stroke="transparent" fill="#000000" transform="matrix(0.0833333 0 0 0.0833333 -293.792 -277)" d="M 4866.08,4053.75 L 4920.39,3978.55 L 4935.23,3992.15 L 4883.66,4063.57 L 4866.08,4053.75 Z " />
<path stroke="transparent" fill="#000000" transform="matrix(0.0833333 0 0 0.0833333 -293.792 -277)" d="M 4917.42,4082.42 L 4963.75,4018.26 L 4978.6,4031.86 L 4934.99,4092.24 L 4917.42,4082.42 Z " />
<path stroke="transparent" fill="#000000" transform="matrix(0.0833333 0 0 0.0833333 -293.792 -277)" d="M 4968.75,4111.1 L 5007.11,4057.98 L 5021.96,4071.58 L 4986.33,4120.91 L 4968.75,4111.1 Z " />
<path stroke="transparent" fill="#000000" transform="matrix(0.0833333 0 0 0.0833333 -293.792 -277)" d="M 5020.09,4139.77 L 5050.48,4097.69 L 5065.32,4111.29 L 5037.67,4149.59 L 5020.09,4139.77 Z " />
<path stroke="transparent" fill="#000000" transform="matrix(0.0833333 0 0 0.0833333 -293.792 -277)" d="M 5071.43,4168.44 L 5093.84,4137.41 L 5108.69,4151.01 L 5089.01,4178.26 L 5071.43,4168.44 Z " />
<path stroke="transparent" fill="#000000" transform="matrix(0.0833333 0 0 0.0833333 -293.792 -277)" d="M 5122.76,4197.12 L 5137.2,4177.12 L 5152.05,4190.72 L 5140.34,4206.93 L 5122.76,4197.12 Z " />
<path stroke="transparent" fill="#000000" transform="matrix(0.0833333 0 0 0.0833333 -293.792 -277)" d="M 4603.65,3939.93 L 4615.45,3956.08 L 4231.01,4237.09 L 4207.48,4229.51 L 4603.65,3939.93 Z " />
<path stroke="transparent" fill="#000000" transform="matrix(0.0833333 0 0 0.0833333 -293.792 -277)" d="M 3740.87,4127.71 L 3746.99,4108.67 L 4236.18,4266.06 L 4230.05,4285.1 L 3740.87,4127.71 Z " />
<path stroke="transparent" fill="#000000" transform="matrix(0.0833333 0 0 0.0833333 -293.792 -277)" d="M 3762.92,4059.17 L 3769.04,4040.13 L 4258.23,4197.52 L 4252.11,4216.56 L 3762.92,4059.17 Z " />
<path stroke="transparent" fill="#000000" transform="matrix(0.0833333 0 0 0.0833333 -293.792 -277)" d="M 4207.48,4229.51 L 4231.01,4237.09 L 4413.53,4793.38 L 4406.3,4803.4 L 4395.21,4801.67 L 4207.48,4229.51 Z " />
<path stroke="transparent" fill="#000000" transform="matrix(0.0833333 0 0 0.0833333 -293.792 -277)" d="M 4411.42,4813.38 L 4406.3,4803.4 L 4413.53,4793.38 L 4999,4791.69 L 5006.3,4801.67 L 5001.23,4811.68 L 4411.42,4813.38 Z " />
<path stroke="transparent" fill="#000000" transform="matrix(0.0833333 0 0 0.0833333 -293.792 -277)" d="M 4458.43,4741.25 L 4458.37,4721.25 L 4953.75,4719.82 L 4953.81,4739.82 L 4458.43,4741.25 Z " />
<path stroke="transparent" fill="#000000" transform="matrix(0.0833333 0 0 0.0833333 -293.792 -277)" d="M 5017.38,4799.88 L 5006.3,4801.67 L 4999,4791.69 L 5182.1,4222.59 L 5198.02,4238.42 L 5017.38,4799.88 Z " />
<path stroke="transparent" fill="#000000" transform="matrix(0.0833333 0 0 0.0833333 -293.792 -277)" d="M 5198.02,4238.42 L 5182.1,4222.59 L 5762.53,4032.15 L 5757.79,4054.75 L 5198.02,4238.42 Z " />
<path stroke="transparent" fill="#000000" transform="matrix(0.0833333 0 0 0.0833333 -293.792 -277)" d="M 5757.79,4054.75 L 5762.53,4032.15 L 6209.57,4432.34 L 6204.83,4454.94 L 5757.79,4054.75 Z " />
<text x="0" y="0" stroke="transparent" fill="#000000" transform="matrix(0.0833333 0 0 0.0833333 264.483 84.2158)" style="font:normal normal normal 200px 'Arial'" >
OH</text>
<text x="0" y="0" stroke="transparent" fill="#000000" transform="matrix(0.0833333 0 0 0.0833333 189.976 17.5171)" style="font:normal normal normal 200px 'Arial'" >
OH</text>
<text x="0" y="0" stroke="transparent" fill="#000000" transform="matrix(0.0833333 0 0 0.0833333 146.405 170.005)" style="font:normal normal normal 200px 'Arial'" >
OH</text>
<text x="0" y="0" stroke="transparent" fill="#000000" transform="matrix(0.0833333 0 0 0.0833333 25.5911 170.318)" style="font:normal normal normal 200px 'Arial'" >
HO</text>
<text x="0" y="0" stroke="transparent" fill="#000000" transform="matrix(0.0833333 0 0 0.0833333 91.6781 52.7694)" style="font:normal normal normal 200px 'Arial'" >
O</text>
<text x="0" y="0" stroke="transparent" fill="#000000" transform="matrix(0.0833333 0 0 0.0833333 3.71493 66.9613)" style="font:normal normal normal 200px 'Arial'" >
O</text>
</svg>
