<?xml version="1.0" standalone="no" ?>
<!DOCTYPE svg PUBLIC "-//W3C//DTD SVG 1.1//EN" "http://www.w3.org/Graphics/SVG/1.1/DTD/svg11.dtd">
<svg width="423px" height="438px" viewBox="0 0 423 438" style="background-color: #ffffff00" xmlns="http://www.w3.org/2000/svg" xmlns:xlink="http://www.w3.org/1999/xlink" version="1.1" >
<text x="0" y="0" stroke="transparent" fill="#000000" transform="matrix(0.0666667 0 0 0.0666667 102.332 214.239)" style="font:normal normal normal 200px 'Arial'" >
O</text>
<text x="0" y="0" stroke="transparent" fill="#000000" transform="matrix(0.0666667 0 0 0.0666667 240.897 214.239)" style="font:normal normal normal 200px 'Arial'" >
O</text>
<text x="0" y="0" stroke="transparent" fill="#000000" transform="matrix(0.0666667 0 0 0.0666667 206.255 274.239)" style="font:normal normal normal 200px 'Arial'" >
O</text>
<text x="0" y="0" stroke="transparent" fill="#000000" transform="matrix(0.0666667 0 0 0.0666667 275.535 154.239)" style="font:normal normal normal 200px 'Arial'" >
O</text>
<text x="0" y="0" stroke="transparent" fill="#000000" transform="matrix(0.0666667 0 0 0.0666667 310.177 254.239)" style="font:normal normal normal 200px 'Arial'" >
OH</text>
<text x="0" y="0" stroke="transparent" fill="#000000" transform="matrix(0.0666667 0 0 0.0666667 137.375 34.2389)" style="font:normal normal normal 200px 'Arial'" >
N</text>
<text x="0" y="0" stroke="transparent" fill="#000000" transform="matrix(0.0666667 0 0 0.0666667 240.897 334.239)" style="font:normal normal normal 200px 'Arial'" >
O</text>
<text x="0" y="0" stroke="transparent" fill="#000000" transform="matrix(0.0666667 0 0 0.0666667 67.6898 274.239)" style="font:normal normal normal 200px 'Arial'" >
O</text>
<text x="0" y="0" stroke="transparent" fill="#000000" transform="matrix(0.0666667 0 0 0.0666667 379.862 214.239)" style="font:normal normal normal 200px 'Arial'" >
N</text>
<text x="0" y="0" stroke="transparent" fill="#000000" transform="matrix(0.0666667 0 0 0.0666667 136.975 154.239)" style="font:normal normal normal 200px 'Arial'" >
OH</text>
<text x="0" y="0" stroke="transparent" fill="#000000" transform="matrix(0.0666667 0 0 0.0666667 206.255 434.239)" style="font:normal normal normal 200px 'Arial'" >
OH</text>
<text x="0" y="0" stroke="transparent" fill="#000000" transform="matrix(0.0666667 0 0 0.0666667 171.612 14.2389)" style="font:normal normal normal 200px 'Arial'" >
O</text>
<text x="0" y="0" stroke="transparent" fill="#000000" transform="matrix(0.0666667 0 0 0.0666667 240.897 14.2389)" style="font:normal normal normal 200px 'Arial'" >
O</text>
<text x="0" y="0" stroke="transparent" fill="#000000" transform="matrix(0.0666667 0 0 0.0666667 344.819 34.2389)" style="font:normal normal normal 200px 'Arial'" >
O</text>
<text x="0" y="0" stroke="transparent" fill="#000000" transform="matrix(0.0666667 0 0 0.0666667 171.612 414.239)" style="font:normal normal normal 200px 'Arial'" >
O</text>
<text x="0" y="0" stroke="transparent" fill="#000000" transform="matrix(0.0666667 0 0 0.0666667 67.6947 114.239)" style="font:normal normal normal 200px 'Arial'" >
OH</text>
<text x="0" y="0" stroke="transparent" fill="#000000" transform="matrix(0.0666667 0 0 0.0666667 206.255 114.239)" style="font:normal normal normal 200px 'Arial'" >
OH</text>
<path stroke="transparent" fill="#000000" transform="matrix(0.0666667 0 0 0.0666667 -137.425 -94.3333)" d="M 5690.22,4445.15 L 5630.22,4549.07 L 5614.04,4537.1 L 5671.76,4437.12 L 5690.22,4445.15 Z " />
<path stroke="transparent" fill="#000000" transform="matrix(0.0666667 0 0 0.0666667 -137.425 -94.3333)" d="M 5634.96,4421.12 L 5581.78,4513.24 L 5565.6,4501.27 L 5616.5,4413.09 L 5634.96,4421.12 Z " />
<path stroke="transparent" fill="#000000" transform="matrix(0.0666667 0 0 0.0666667 -137.425 -94.3333)" d="M 5579.71,4397.09 L 5533.34,4477.4 L 5517.16,4465.43 L 5561.25,4389.07 L 5579.71,4397.09 Z " />
<path stroke="transparent" fill="#000000" transform="matrix(0.0666667 0 0 0.0666667 -137.425 -94.3333)" d="M 5524.45,4373.07 L 5484.9,4441.56 L 5468.72,4429.59 L 5505.99,4365.04 L 5524.45,4373.07 Z " />
<path stroke="transparent" fill="#000000" transform="matrix(0.0666667 0 0 0.0666667 -137.425 -94.3333)" d="M 5469.2,4349.04 L 5436.47,4405.73 L 5420.29,4393.76 L 5450.74,4341.01 L 5469.2,4349.04 Z " />
<path stroke="transparent" fill="#000000" transform="matrix(0.0666667 0 0 0.0666667 -137.425 -94.3333)" d="M 5413.94,4325.01 L 5388.03,4369.89 L 5371.85,4357.92 L 5395.48,4316.98 L 5413.94,4325.01 Z " />
<path stroke="transparent" fill="#000000" transform="matrix(0.0666667 0 0 0.0666667 -137.425 -94.3333)" d="M 5358.69,4300.98 L 5339.59,4334.06 L 5323.41,4322.08 L 5340.23,4292.95 L 5358.69,4300.98 Z " />
<path stroke="transparent" fill="#000000" transform="matrix(0.0666667 0 0 0.0666667 -137.425 -94.3333)" d="M 5303.43,4276.95 L 5291.15,4298.22 L 5274.97,4286.25 L 5284.97,4268.93 L 5303.43,4276.95 Z " />
<path stroke="transparent" fill="#000000" transform="matrix(0.0666667 0 0 0.0666667 -137.425 -94.3333)" d="M 5223.2,3656.36 L 5233.2,3650.58 L 5243.2,3650.58 L 5243.2,4256.36 L 5223.2,4244.81 L 5223.2,3656.36 Z " />
<path stroke="transparent" fill="#000000" transform="matrix(0.0666667 0 0 0.0666667 -137.425 -94.3333)" d="M 5722.84,3298.62 L 5782.84,3402.55 L 5764.6,3410.96 L 5706.43,3310.21 L 5722.84,3298.62 Z " />
<path stroke="transparent" fill="#000000" transform="matrix(0.0666667 0 0 0.0666667 -137.425 -94.3333)" d="M 5674.9,3332.48 L 5729.54,3427.13 L 5711.31,3435.55 L 5658.49,3344.06 L 5674.9,3332.48 Z " />
<path stroke="transparent" fill="#000000" transform="matrix(0.0666667 0 0 0.0666667 -137.425 -94.3333)" d="M 5626.96,3366.34 L 5676.25,3451.72 L 5658.01,3460.13 L 5610.55,3377.92 L 5626.96,3366.34 Z " />
<path stroke="transparent" fill="#000000" transform="matrix(0.0666667 0 0 0.0666667 -137.425 -94.3333)" d="M 5579.02,3400.19 L 5622.96,3476.31 L 5604.72,3484.72 L 5562.61,3411.78 L 5579.02,3400.19 Z " />
<path stroke="transparent" fill="#000000" transform="matrix(0.0666667 0 0 0.0666667 -137.425 -94.3333)" d="M 5531.07,3434.05 L 5569.67,3500.89 L 5551.43,3509.31 L 5514.67,3445.64 L 5531.07,3434.05 Z " />
<path stroke="transparent" fill="#000000" transform="matrix(0.0666667 0 0 0.0666667 -137.425 -94.3333)" d="M 5483.13,3467.91 L 5516.37,3525.48 L 5498.14,3533.9 L 5466.73,3479.49 L 5483.13,3467.91 Z " />
<path stroke="transparent" fill="#000000" transform="matrix(0.0666667 0 0 0.0666667 -137.425 -94.3333)" d="M 5435.19,3501.77 L 5463.08,3550.07 L 5444.84,3558.48 L 5418.79,3513.35 L 5435.19,3501.77 Z " />
<path stroke="transparent" fill="#000000" transform="matrix(0.0666667 0 0 0.0666667 -137.425 -94.3333)" d="M 5387.25,3535.62 L 5409.79,3574.66 L 5391.55,3583.07 L 5370.85,3547.21 L 5387.25,3535.62 Z " />
<path stroke="transparent" fill="#000000" transform="matrix(0.0666667 0 0 0.0666667 -137.425 -94.3333)" d="M 5339.31,3569.48 L 5356.5,3599.24 L 5338.26,3607.66 L 5322.91,3581.07 L 5339.31,3569.48 Z " />
<path stroke="transparent" fill="#000000" transform="matrix(0.0666667 0 0 0.0666667 -137.425 -94.3333)" d="M 5291.37,3603.34 L 5303.2,3623.83 L 5284.97,3632.24 L 5274.97,3614.92 L 5291.37,3603.34 Z " />
<path stroke="transparent" fill="#000000" transform="matrix(0.0666667 0 0 0.0666667 -137.425 -94.3333)" d="M 5223.2,4244.81 L 5243.2,4256.36 L 4723.64,4556.36 L 4703.64,4544.81 L 5223.2,4244.81 Z " />
<path stroke="transparent" fill="#000000" transform="matrix(0.0666667 0 0 0.0666667 -137.425 -94.3333)" d="M 4164,4302.55 L 4224,4198.62 L 4240.4,4210.21 L 4182.24,4310.96 L 4164,4302.55 Z " />
<path stroke="transparent" fill="#000000" transform="matrix(0.0666667 0 0 0.0666667 -137.425 -94.3333)" d="M 4217.29,4327.13 L 4271.94,4232.48 L 4288.34,4244.06 L 4235.53,4335.55 L 4217.29,4327.13 Z " />
<path stroke="transparent" fill="#000000" transform="matrix(0.0666667 0 0 0.0666667 -137.425 -94.3333)" d="M 4270.59,4351.72 L 4319.88,4266.34 L 4336.29,4277.92 L 4288.82,4360.13 L 4270.59,4351.72 Z " />
<path stroke="transparent" fill="#000000" transform="matrix(0.0666667 0 0 0.0666667 -137.425 -94.3333)" d="M 4323.88,4376.31 L 4367.82,4300.19 L 4384.23,4311.78 L 4342.11,4384.72 L 4323.88,4376.31 Z " />
<path stroke="transparent" fill="#000000" transform="matrix(0.0666667 0 0 0.0666667 -137.425 -94.3333)" d="M 4377.17,4400.89 L 4415.76,4334.05 L 4432.17,4345.64 L 4395.41,4409.31 L 4377.17,4400.89 Z " />
<path stroke="transparent" fill="#000000" transform="matrix(0.0666667 0 0 0.0666667 -137.425 -94.3333)" d="M 4430.46,4425.48 L 4463.7,4367.91 L 4480.11,4379.49 L 4448.7,4433.89 L 4430.46,4425.48 Z " />
<path stroke="transparent" fill="#000000" transform="matrix(0.0666667 0 0 0.0666667 -137.425 -94.3333)" d="M 4483.76,4450.07 L 4511.64,4401.77 L 4528.05,4413.35 L 4501.99,4458.48 L 4483.76,4450.07 Z " />
<path stroke="transparent" fill="#000000" transform="matrix(0.0666667 0 0 0.0666667 -137.425 -94.3333)" d="M 4537.05,4474.66 L 4559.58,4435.62 L 4575.99,4447.21 L 4555.28,4483.07 L 4537.05,4474.66 Z " />
<path stroke="transparent" fill="#000000" transform="matrix(0.0666667 0 0 0.0666667 -137.425 -94.3333)" d="M 4590.34,4499.24 L 4607.52,4469.48 L 4623.93,4481.07 L 4608.58,4507.66 L 4590.34,4499.24 Z " />
<path stroke="transparent" fill="#000000" transform="matrix(0.0666667 0 0 0.0666667 -137.425 -94.3333)" d="M 4643.63,4523.83 L 4655.46,4503.34 L 4671.87,4514.92 L 4661.87,4532.24 L 4643.63,4523.83 Z " />
<path stroke="transparent" fill="#000000" transform="matrix(0.0666667 0 0 0.0666667 -137.425 -94.3333)" d="M 4703.64,3356.36 L 4723.64,3344.81 L 5221.28,3632.15 L 5233.2,3650.58 L 5223.2,3656.36 L 4703.64,3356.36 Z " />
<path stroke="transparent" fill="#000000" transform="matrix(0.0666667 0 0 0.0666667 -137.425 -94.3333)" d="M 4723.64,5156.36 L 4703.64,5144.81 L 4703.64,4544.81 L 4723.64,4556.36 L 4723.64,5156.36 Z " />
<path stroke="transparent" fill="#000000" transform="matrix(0.0666667 0 0 0.0666667 -137.425 -94.3333)" d="M 5170.59,5345.15 L 5110.58,5449.07 L 5094.4,5437.09 L 5152.13,5337.12 L 5170.59,5345.15 Z " />
<path stroke="transparent" fill="#000000" transform="matrix(0.0666667 0 0 0.0666667 -137.425 -94.3333)" d="M 5115.34,5321.12 L 5062.15,5413.23 L 5045.97,5401.26 L 5096.88,5313.09 L 5115.34,5321.12 Z " />
<path stroke="transparent" fill="#000000" transform="matrix(0.0666667 0 0 0.0666667 -137.425 -94.3333)" d="M 5060.09,5297.09 L 5013.72,5377.4 L 4997.54,5365.42 L 5041.63,5289.06 L 5060.09,5297.09 Z " />
<path stroke="transparent" fill="#000000" transform="matrix(0.0666667 0 0 0.0666667 -137.425 -94.3333)" d="M 5004.85,5273.06 L 4965.3,5341.56 L 4949.11,5329.59 L 4986.39,5265.04 L 5004.85,5273.06 Z " />
<path stroke="transparent" fill="#000000" transform="matrix(0.0666667 0 0 0.0666667 -137.425 -94.3333)" d="M 4949.6,5249.04 L 4916.87,5305.72 L 4900.69,5293.75 L 4931.14,5241.01 L 4949.6,5249.04 Z " />
<path stroke="transparent" fill="#000000" transform="matrix(0.0666667 0 0 0.0666667 -137.425 -94.3333)" d="M 4894.35,5225.01 L 4868.44,5269.89 L 4852.26,5257.92 L 4875.89,5216.98 L 4894.35,5225.01 Z " />
<path stroke="transparent" fill="#000000" transform="matrix(0.0666667 0 0 0.0666667 -137.425 -94.3333)" d="M 4839.11,5200.98 L 4820.01,5234.05 L 4803.83,5222.08 L 4820.65,5192.95 L 4839.11,5200.98 Z " />
<path stroke="transparent" fill="#000000" transform="matrix(0.0666667 0 0 0.0666667 -137.425 -94.3333)" d="M 4783.86,5176.95 L 4771.58,5198.22 L 4755.4,5186.25 L 4765.4,5168.93 L 4783.86,5176.95 Z " />
<path stroke="transparent" fill="#000000" transform="matrix(0.0666667 0 0 0.0666667 -137.425 -94.3333)" d="M 4703.64,2756.36 L 4723.64,2744.81 L 4723.64,3344.81 L 4703.64,3356.36 L 4703.64,2756.36 Z " />
<path stroke="transparent" fill="#000000" transform="matrix(0.0666667 0 0 0.0666667 -137.425 -94.3333)" d="M 5203.2,2398.62 L 5263.2,2502.54 L 5244.97,2510.96 L 5186.79,2410.21 L 5203.2,2398.62 Z " />
<path stroke="transparent" fill="#000000" transform="matrix(0.0666667 0 0 0.0666667 -137.425 -94.3333)" d="M 5155.27,2432.48 L 5209.93,2527.13 L 5191.69,2535.54 L 5138.87,2444.06 L 5155.27,2432.48 Z " />
<path stroke="transparent" fill="#000000" transform="matrix(0.0666667 0 0 0.0666667 -137.425 -94.3333)" d="M 5107.35,2466.33 L 5156.65,2551.71 L 5138.41,2560.12 L 5090.94,2477.91 L 5107.35,2466.33 Z " />
<path stroke="transparent" fill="#000000" transform="matrix(0.0666667 0 0 0.0666667 -137.425 -94.3333)" d="M 5059.42,2500.18 L 5103.37,2576.29 L 5085.14,2584.7 L 5043.02,2511.77 L 5059.42,2500.18 Z " />
<path stroke="transparent" fill="#000000" transform="matrix(0.0666667 0 0 0.0666667 -137.425 -94.3333)" d="M 5011.5,2534.03 L 5050.1,2600.87 L 5031.86,2609.29 L 4995.1,2545.62 L 5011.5,2534.03 Z " />
<path stroke="transparent" fill="#000000" transform="matrix(0.0666667 0 0 0.0666667 -137.425 -94.3333)" d="M 4963.58,2567.88 L 4996.82,2625.46 L 4978.58,2633.87 L 4947.17,2579.47 L 4963.58,2567.88 Z " />
<path stroke="transparent" fill="#000000" transform="matrix(0.0666667 0 0 0.0666667 -137.425 -94.3333)" d="M 4915.65,2601.74 L 4943.54,2650.04 L 4925.31,2658.45 L 4899.25,2613.32 L 4915.65,2601.74 Z " />
<path stroke="transparent" fill="#000000" transform="matrix(0.0666667 0 0 0.0666667 -137.425 -94.3333)" d="M 4867.73,2635.59 L 4890.27,2674.62 L 4872.03,2683.03 L 4851.32,2647.17 L 4867.73,2635.59 Z " />
<path stroke="transparent" fill="#000000" transform="matrix(0.0666667 0 0 0.0666667 -137.425 -94.3333)" d="M 4819.8,2669.44 L 4836.99,2699.2 L 4818.75,2707.62 L 4803.4,2681.03 L 4819.8,2669.44 Z " />
<path stroke="transparent" fill="#000000" transform="matrix(0.0666667 0 0 0.0666667 -137.425 -94.3333)" d="M 4771.88,2703.29 L 4783.71,2723.78 L 4765.48,2732.2 L 4755.47,2714.88 L 4771.88,2703.29 Z " />
<path stroke="transparent" fill="#000000" transform="matrix(0.0666667 0 0 0.0666667 -137.425 -94.3333)" d="M 4204.46,5456.09 L 4194,5450.58 L 4194,5439.04 L 4703.64,5144.81 L 4723.64,5156.36 L 4204.46,5456.09 Z " />
<path stroke="transparent" fill="#000000" transform="matrix(0.0666667 0 0 0.0666667 -137.425 -94.3333)" d="M 4254,6050.58 L 4134,6050.58 L 4183.54,5456.09 L 4194,5450.58 L 4204.46,5456.09 L 4254,6050.58 Z " />
<path stroke="transparent" fill="#000000" transform="matrix(0.0666667 0 0 0.0666667 -137.425 -94.3333)" d="M 4194,2462.13 L 4194,2450.58 L 4204,2444.81 L 4723.64,2744.81 L 4703.64,2756.36 L 4194,2462.13 Z " />
<path stroke="transparent" fill="#000000" transform="matrix(0.0666667 0 0 0.0666667 -137.425 -94.3333)" d="M 4184,1967.75 L 4204,1967.75 L 4204,2444.81 L 4194,2450.58 L 4184,2444.81 L 4184,1967.75 Z " />
<path stroke="transparent" fill="#000000" transform="matrix(0.0666667 0 0 0.0666667 -137.425 -94.3333)" d="M 4256,1967.75 L 4276,1967.75 L 4276,2409.01 L 4256,2409.01 L 4256,1967.75 Z " />
<path stroke="transparent" fill="#000000" transform="matrix(0.0666667 0 0 0.0666667 -137.425 -94.3333)" d="M 3664.36,5156.36 L 3684.36,5144.81 L 4194,5439.04 L 4194,5450.58 L 4183.54,5456.09 L 3664.36,5156.36 Z " />
<path stroke="transparent" fill="#000000" transform="matrix(0.0666667 0 0 0.0666667 -137.425 -94.3333)" d="M 3270.35,5436.95 L 3260.35,5419.63 L 3705.37,5162.71 L 3715.37,5180.03 L 3270.35,5436.95 Z " />
<path stroke="transparent" fill="#000000" transform="matrix(0.0666667 0 0 0.0666667 -137.425 -94.3333)" d="M 3234.35,5374.59 L 3224.35,5357.27 L 3669.36,5100.35 L 3679.36,5117.67 L 3234.35,5374.59 Z " />
<path stroke="transparent" fill="#000000" transform="matrix(0.0666667 0 0 0.0666667 -137.425 -94.3333)" d="M 4184,2444.81 L 4194,2450.58 L 4194,2462.13 L 3684.36,2756.36 L 3674.36,2750.58 L 3674.82,2738.77 L 4184,2444.81 Z " />
<path stroke="transparent" fill="#000000" transform="matrix(0.0666667 0 0 0.0666667 -137.425 -94.3333)" d="M 3124.73,2502.55 L 3184.73,2398.62 L 3674.82,2738.77 L 3674.36,2750.58 L 3664.36,2756.89 L 3124.73,2502.55 Z " />
<path stroke="transparent" fill="#000000" transform="matrix(0.0666667 0 0 0.0666667 -137.425 -94.3333)" d="M 3664.36,4670.42 L 3684.36,4670.42 L 3684.36,5144.81 L 3664.36,5156.36 L 3664.36,4670.42 Z " />
<path stroke="transparent" fill="#000000" transform="matrix(0.0666667 0 0 0.0666667 -137.425 -94.3333)" d="M 3664.36,2756.89 L 3674.36,2750.58 L 3684.36,2756.36 L 3684.36,3344.17 L 3674.36,3350.58 L 3664.36,3344.81 L 3664.36,2756.89 Z " />
<path stroke="transparent" fill="#000000" transform="matrix(0.0666667 0 0 0.0666667 -137.425 -94.3333)" d="M 4131.38,3545.15 L 4071.38,3649.07 L 3673.81,3362.45 L 3674.36,3350.58 L 3684.36,3344.17 L 4131.38,3545.15 Z " />
<path stroke="transparent" fill="#000000" transform="matrix(0.0666667 0 0 0.0666667 -137.425 -94.3333)" d="M 3586.75,4488.45 L 3576.75,4505.77 L 3144.8,4256.36 L 3164.8,4244.81 L 3586.75,4488.45 Z " />
<path stroke="transparent" fill="#000000" transform="matrix(0.0666667 0 0 0.0666667 -137.425 -94.3333)" d="M 2711.86,4575.55 L 2651.87,4471.62 L 2670.21,4463.38 L 2728.17,4563.79 L 2711.86,4575.55 Z " />
<path stroke="transparent" fill="#000000" transform="matrix(0.0666667 0 0 0.0666667 -137.425 -94.3333)" d="M 2759.97,4540.85 L 2705.97,4447.31 L 2724.31,4439.07 L 2776.27,4529.1 L 2759.97,4540.85 Z " />
<path stroke="transparent" fill="#000000" transform="matrix(0.0666667 0 0 0.0666667 -137.425 -94.3333)" d="M 2808.08,4506.16 L 2760.07,4423 L 2778.41,4414.77 L 2824.38,4494.4 L 2808.08,4506.16 Z " />
<path stroke="transparent" fill="#000000" transform="matrix(0.0666667 0 0 0.0666667 -137.425 -94.3333)" d="M 2856.18,4471.47 L 2814.18,4398.7 L 2832.51,4390.46 L 2872.49,4459.71 L 2856.18,4471.47 Z " />
<path stroke="transparent" fill="#000000" transform="matrix(0.0666667 0 0 0.0666667 -137.425 -94.3333)" d="M 2904.29,4436.77 L 2868.28,4374.39 L 2886.62,4366.15 L 2920.6,4425.02 L 2904.29,4436.77 Z " />
<path stroke="transparent" fill="#000000" transform="matrix(0.0666667 0 0 0.0666667 -137.425 -94.3333)" d="M 2952.4,4402.08 L 2922.38,4350.08 L 2940.72,4341.84 L 2968.7,4390.32 L 2952.4,4402.08 Z " />
<path stroke="transparent" fill="#000000" transform="matrix(0.0666667 0 0 0.0666667 -137.425 -94.3333)" d="M 3000.51,4367.39 L 2976.48,4325.78 L 2994.82,4317.54 L 3016.81,4355.63 L 3000.51,4367.39 Z " />
<path stroke="transparent" fill="#000000" transform="matrix(0.0666667 0 0 0.0666667 -137.425 -94.3333)" d="M 3048.61,4332.7 L 3030.59,4301.47 L 3048.92,4293.23 L 3064.92,4320.94 L 3048.61,4332.7 Z " />
<path stroke="transparent" fill="#000000" transform="matrix(0.0666667 0 0 0.0666667 -137.425 -94.3333)" d="M 3096.72,4298 L 3084.69,4277.16 L 3103.03,4268.92 L 3113.03,4286.24 L 3096.72,4298 Z " />
<path stroke="transparent" fill="#000000" transform="matrix(0.0666667 0 0 0.0666667 -137.425 -94.3333)" d="M 3164.8,4244.81 L 3144.8,4256.36 L 3144.8,3650.58 L 3154.8,3650.58 L 3164.8,3656.36 L 3164.8,4244.81 Z " />
<path stroke="transparent" fill="#000000" transform="matrix(0.0666667 0 0 0.0666667 -137.425 -94.3333)" d="M 3164.8,3656.36 L 3154.8,3650.58 L 3166.72,3632.15 L 3664.36,3344.81 L 3674.36,3350.58 L 3673.81,3362.45 L 3164.8,3656.36 Z " />
<path stroke="transparent" fill="#000000" transform="matrix(0.0666667 0 0 0.0666667 -137.425 -94.3333)" d="M 2605.17,3402.62 L 2665.16,3298.69 L 2681.56,3310.28 L 2623.41,3411.03 L 2605.17,3402.62 Z " />
<path stroke="transparent" fill="#000000" transform="matrix(0.0666667 0 0 0.0666667 -137.425 -94.3333)" d="M 2658.45,3427.2 L 2713.09,3332.54 L 2729.5,3344.12 L 2676.69,3435.61 L 2658.45,3427.2 Z " />
<path stroke="transparent" fill="#000000" transform="matrix(0.0666667 0 0 0.0666667 -137.425 -94.3333)" d="M 2711.74,3451.77 L 2761.02,3366.38 L 2777.43,3377.97 L 2729.97,3460.18 L 2711.74,3451.77 Z " />
<path stroke="transparent" fill="#000000" transform="matrix(0.0666667 0 0 0.0666667 -137.425 -94.3333)" d="M 2765.02,3476.35 L 2808.95,3400.23 L 2825.36,3411.81 L 2783.26,3484.76 L 2765.02,3476.35 Z " />
<path stroke="transparent" fill="#000000" transform="matrix(0.0666667 0 0 0.0666667 -137.425 -94.3333)" d="M 2818.3,3500.92 L 2856.89,3434.07 L 2873.29,3445.66 L 2836.54,3509.33 L 2818.3,3500.92 Z " />
<path stroke="transparent" fill="#000000" transform="matrix(0.0666667 0 0 0.0666667 -137.425 -94.3333)" d="M 2871.59,3525.5 L 2904.82,3467.92 L 2921.22,3479.5 L 2889.82,3533.91 L 2871.59,3525.5 Z " />
<path stroke="transparent" fill="#000000" transform="matrix(0.0666667 0 0 0.0666667 -137.425 -94.3333)" d="M 2924.87,3550.07 L 2952.75,3501.76 L 2969.16,3513.35 L 2943.11,3558.48 L 2924.87,3550.07 Z " />
<path stroke="transparent" fill="#000000" transform="matrix(0.0666667 0 0 0.0666667 -137.425 -94.3333)" d="M 2978.15,3574.65 L 3000.68,3535.61 L 3017.09,3547.19 L 2996.39,3583.06 L 2978.15,3574.65 Z " />
<path stroke="transparent" fill="#000000" transform="matrix(0.0666667 0 0 0.0666667 -137.425 -94.3333)" d="M 3031.44,3599.22 L 3048.62,3569.45 L 3065.02,3581.04 L 3049.67,3607.63 L 3031.44,3599.22 Z " />
<path stroke="transparent" fill="#000000" transform="matrix(0.0666667 0 0 0.0666667 -137.425 -94.3333)" d="M 3084.72,3623.79 L 3096.55,3603.3 L 3112.95,3614.88 L 3102.96,3632.21 L 3084.72,3623.79 Z " />
<path stroke="transparent" fill="#000000" transform="matrix(0.0666667 0 0 0.0666667 -137.425 -94.3333)" d="M 5875.45,4549.07 L 5815.45,4445.15 L 5833.91,4437.12 L 5891.64,4537.09 L 5875.45,4549.07 Z " />
<path stroke="transparent" fill="#000000" transform="matrix(0.0666667 0 0 0.0666667 -137.425 -94.3333)" d="M 5923.88,4513.23 L 5870.7,4421.12 L 5889.16,4413.09 L 5940.06,4501.26 L 5923.88,4513.23 Z " />
<path stroke="transparent" fill="#000000" transform="matrix(0.0666667 0 0 0.0666667 -137.425 -94.3333)" d="M 5972.31,4477.4 L 5925.94,4397.09 L 5944.4,4389.06 L 5988.49,4465.42 L 5972.31,4477.4 Z " />
<path stroke="transparent" fill="#000000" transform="matrix(0.0666667 0 0 0.0666667 -137.425 -94.3333)" d="M 6020.74,4441.56 L 5981.19,4373.06 L 5999.65,4365.04 L 6036.92,4429.59 L 6020.74,4441.56 Z " />
<path stroke="transparent" fill="#000000" transform="matrix(0.0666667 0 0 0.0666667 -137.425 -94.3333)" d="M 6069.17,4405.73 L 6036.44,4349.04 L 6054.9,4341.01 L 6085.35,4393.75 L 6069.17,4405.73 Z " />
<path stroke="transparent" fill="#000000" transform="matrix(0.0666667 0 0 0.0666667 -137.425 -94.3333)" d="M 6117.6,4369.89 L 6091.68,4325.01 L 6110.14,4316.98 L 6133.78,4357.92 L 6117.6,4369.89 Z " />
<path stroke="transparent" fill="#000000" transform="matrix(0.0666667 0 0 0.0666667 -137.425 -94.3333)" d="M 6166.03,4334.05 L 6146.93,4300.98 L 6165.39,4292.95 L 6182.21,4322.08 L 6166.03,4334.05 Z " />
<path stroke="transparent" fill="#000000" transform="matrix(0.0666667 0 0 0.0666667 -137.425 -94.3333)" d="M 6214.45,4298.22 L 6202.18,4276.95 L 6220.63,4268.93 L 6230.64,4286.25 L 6214.45,4298.22 Z " />
<path stroke="transparent" fill="#000000" transform="matrix(0.0666667 0 0 0.0666667 -137.425 -94.3333)" d="M 6792.04,4539.04 L 6792.04,4550.58 L 6781.48,4556.04 L 6262.4,4256.36 L 6282.4,4244.81 L 6792.04,4539.04 Z " />
<path stroke="transparent" fill="#000000" transform="matrix(0.0666667 0 0 0.0666667 -137.425 -94.3333)" d="M 6262.4,3770.42 L 6282.4,3770.42 L 6282.4,4244.81 L 6262.4,4256.36 L 6262.4,3770.42 Z " />
<path stroke="transparent" fill="#000000" transform="matrix(0.0666667 0 0 0.0666667 -137.425 -94.3333)" d="M 5173.2,5570.42 L 5293.2,5570.42 L 5290.85,5590.42 L 5175.55,5590.42 L 5173.2,5570.42 Z " />
<path stroke="transparent" fill="#000000" transform="matrix(0.0666667 0 0 0.0666667 -137.425 -94.3333)" d="M 5180.01,5628.44 L 5286.39,5628.44 L 5284.05,5648.44 L 5182.35,5648.44 L 5180.01,5628.44 Z " />
<path stroke="transparent" fill="#000000" transform="matrix(0.0666667 0 0 0.0666667 -137.425 -94.3333)" d="M 5186.81,5686.46 L 5279.58,5686.46 L 5277.24,5706.46 L 5189.16,5706.46 L 5186.81,5686.46 Z " />
<path stroke="transparent" fill="#000000" transform="matrix(0.0666667 0 0 0.0666667 -137.425 -94.3333)" d="M 5193.62,5744.48 L 5272.78,5744.48 L 5270.43,5764.48 L 5195.97,5764.48 L 5193.62,5744.48 Z " />
<path stroke="transparent" fill="#000000" transform="matrix(0.0666667 0 0 0.0666667 -137.425 -94.3333)" d="M 5200.43,5802.5 L 5265.97,5802.5 L 5263.62,5822.5 L 5202.78,5822.5 L 5200.43,5802.5 Z " />
<path stroke="transparent" fill="#000000" transform="matrix(0.0666667 0 0 0.0666667 -137.425 -94.3333)" d="M 5207.24,5860.52 L 5259.16,5860.52 L 5256.81,5880.52 L 5209.58,5880.52 L 5207.24,5860.52 Z " />
<path stroke="transparent" fill="#000000" transform="matrix(0.0666667 0 0 0.0666667 -137.425 -94.3333)" d="M 5214.05,5918.54 L 5252.35,5918.54 L 5250.01,5938.54 L 5216.39,5938.54 L 5214.05,5918.54 Z " />
<path stroke="transparent" fill="#000000" transform="matrix(0.0666667 0 0 0.0666667 -137.425 -94.3333)" d="M 5220.85,5976.56 L 5245.55,5976.56 L 5243.2,5996.56 L 5223.2,5996.56 L 5220.85,5976.56 Z " />
<path stroke="transparent" fill="#000000" transform="matrix(0.0666667 0 0 0.0666667 -137.425 -94.3333)" d="M 7301.67,4244.81 L 7321.67,4256.36 L 6802.59,4556.04 L 6792.04,4550.58 L 6792.04,4539.04 L 7301.67,4244.81 Z " />
<path stroke="transparent" fill="#000000" transform="matrix(0.0666667 0 0 0.0666667 -137.425 -94.3333)" d="M 6852.04,5045.42 L 6732.04,5045.42 L 6781.48,4556.04 L 6792.04,4550.58 L 6802.59,4556.04 L 6852.04,5045.42 Z " />
<path stroke="transparent" fill="#000000" transform="matrix(0.0666667 0 0 0.0666667 -137.425 -94.3333)" d="M 6792.04,3339.04 L 6792.04,3362.13 L 6370.02,3605.77 L 6360.02,3588.45 L 6792.04,3339.04 Z " />
<path stroke="transparent" fill="#000000" transform="matrix(0.0666667 0 0 0.0666667 -137.425 -94.3333)" d="M 4723.56,6356.36 L 4703.56,6344.81 L 5233.2,6039.04 L 5233.2,6062.13 L 4723.56,6356.36 Z " />
<path stroke="transparent" fill="#000000" transform="matrix(0.0666667 0 0 0.0666667 -137.425 -94.3333)" d="M 5665.22,6288.45 L 5655.22,6305.77 L 5233.2,6062.13 L 5233.2,6039.04 L 5665.22,6288.45 Z " />
<path stroke="transparent" fill="#000000" transform="matrix(0.0666667 0 0 0.0666667 -137.425 -94.3333)" d="M 7301.67,3656.36 L 7321.67,3644.81 L 7321.67,4256.36 L 7301.67,4244.81 L 7301.67,3656.36 Z " />
<path stroke="transparent" fill="#000000" transform="matrix(0.0666667 0 0 0.0666667 -137.425 -94.3333)" d="M 7757.46,4438.67 L 7697.46,4542.59 L 7681.31,4530.56 L 7738.96,4430.7 L 7757.46,4438.67 Z " />
<path stroke="transparent" fill="#000000" transform="matrix(0.0666667 0 0 0.0666667 -137.425 -94.3333)" d="M 7703.81,4415.56 L 7650.62,4507.69 L 7634.48,4495.66 L 7685.32,4407.59 L 7703.81,4415.56 Z " />
<path stroke="transparent" fill="#000000" transform="matrix(0.0666667 0 0 0.0666667 -137.425 -94.3333)" d="M 7650.17,4392.45 L 7603.78,4472.79 L 7587.64,4460.76 L 7631.67,4384.48 L 7650.17,4392.45 Z " />
<path stroke="transparent" fill="#000000" transform="matrix(0.0666667 0 0 0.0666667 -137.425 -94.3333)" d="M 7596.52,4369.34 L 7556.95,4437.89 L 7540.8,4425.85 L 7578.03,4361.37 L 7596.52,4369.34 Z " />
<path stroke="transparent" fill="#000000" transform="matrix(0.0666667 0 0 0.0666667 -137.425 -94.3333)" d="M 7542.88,4346.23 L 7510.11,4402.99 L 7493.96,4390.95 L 7524.38,4338.26 L 7542.88,4346.23 Z " />
<path stroke="transparent" fill="#000000" transform="matrix(0.0666667 0 0 0.0666667 -137.425 -94.3333)" d="M 7489.23,4323.12 L 7463.27,4368.08 L 7447.12,4356.05 L 7470.74,4315.15 L 7489.23,4323.12 Z " />
<path stroke="transparent" fill="#000000" transform="matrix(0.0666667 0 0 0.0666667 -137.425 -94.3333)" d="M 7435.59,4300.01 L 7416.43,4333.18 L 7400.29,4321.15 L 7417.09,4292.04 L 7435.59,4300.01 Z " />
<path stroke="transparent" fill="#000000" transform="matrix(0.0666667 0 0 0.0666667 -137.425 -94.3333)" d="M 7381.94,4276.9 L 7369.6,4298.28 L 7353.45,4286.25 L 7363.45,4268.93 L 7381.94,4276.9 Z " />
<path stroke="transparent" fill="#000000" transform="matrix(0.0666667 0 0 0.0666667 -137.425 -94.3333)" d="M 6732.04,2750.58 L 6852.04,2750.58 L 6850.2,2770.58 L 6733.87,2770.58 L 6732.04,2750.58 Z " />
<path stroke="transparent" fill="#000000" transform="matrix(0.0666667 0 0 0.0666667 -137.425 -94.3333)" d="M 6737.39,2809.03 L 6846.68,2809.03 L 6844.85,2829.03 L 6739.22,2829.03 L 6737.39,2809.03 Z " />
<path stroke="transparent" fill="#000000" transform="matrix(0.0666667 0 0 0.0666667 -137.425 -94.3333)" d="M 6742.74,2867.47 L 6841.33,2867.47 L 6839.5,2887.47 L 6744.57,2887.47 L 6742.74,2867.47 Z " />
<path stroke="transparent" fill="#000000" transform="matrix(0.0666667 0 0 0.0666667 -137.425 -94.3333)" d="M 6748.09,2925.92 L 6835.98,2925.92 L 6834.15,2945.92 L 6749.92,2945.92 L 6748.09,2925.92 Z " />
<path stroke="transparent" fill="#000000" transform="matrix(0.0666667 0 0 0.0666667 -137.425 -94.3333)" d="M 6753.44,2984.36 L 6830.63,2984.36 L 6828.8,3004.36 L 6755.28,3004.36 L 6753.44,2984.36 Z " />
<path stroke="transparent" fill="#000000" transform="matrix(0.0666667 0 0 0.0666667 -137.425 -94.3333)" d="M 6758.8,3042.81 L 6825.28,3042.81 L 6823.44,3062.81 L 6760.63,3062.81 L 6758.8,3042.81 Z " />
<path stroke="transparent" fill="#000000" transform="matrix(0.0666667 0 0 0.0666667 -137.425 -94.3333)" d="M 6764.15,3101.25 L 6819.92,3101.25 L 6818.09,3121.25 L 6765.98,3121.25 L 6764.15,3101.25 Z " />
<path stroke="transparent" fill="#000000" transform="matrix(0.0666667 0 0 0.0666667 -137.425 -94.3333)" d="M 6769.5,3159.69 L 6814.57,3159.69 L 6812.74,3179.69 L 6771.33,3179.69 L 6769.5,3159.69 Z " />
<path stroke="transparent" fill="#000000" transform="matrix(0.0666667 0 0 0.0666667 -137.425 -94.3333)" d="M 6774.85,3218.14 L 6809.22,3218.14 L 6807.39,3238.14 L 6776.68,3238.14 L 6774.85,3218.14 Z " />
<path stroke="transparent" fill="#000000" transform="matrix(0.0666667 0 0 0.0666667 -137.425 -94.3333)" d="M 6780.2,3276.58 L 6803.87,3276.58 L 6802.04,3296.58 L 6782.04,3296.58 L 6780.2,3276.58 Z " />
<path stroke="transparent" fill="#000000" transform="matrix(0.0666667 0 0 0.0666667 -137.425 -94.3333)" d="M 7321.67,3644.81 L 7301.67,3656.36 L 6792.04,3362.13 L 6792.04,3339.04 L 7321.67,3644.81 Z " />
<path stroke="#000000" stroke-width="20" fill="transparent" transform="matrix(0.0666667 0 0 0.0666667 -137.425 -94.3333)" d="M 4297.85,1790.62 C 4308.89,1809.74 4331.84,1817.19 4349.07,1807.24 C 4366.3,1797.29 4371.33,1773.69 4360.29,1754.57 C 4349.25,1735.45 4354.27,1711.85 4371.5,1701.9 C 4388.73,1691.95 4411.68,1699.4 4422.72,1718.52 C 4433.76,1737.64 4456.71,1745.08 4473.94,1735.13 C 4491.18,1725.18 4496.2,1701.59 4485.16,1682.46 C 4474.12,1663.34 4479.15,1639.75 4496.38,1629.8 C 4513.61,1619.85 4536.56,1627.29 4547.6,1646.41 C 4558.64,1665.53 4581.59,1672.98 4598.82,1663.03 C 4616.05,1653.08 4621.08,1629.48 4610.04,1610.36 " />
<path stroke="transparent" fill="#000000" transform="matrix(0.0666667 0 0 0.0666667 -137.425 -94.3333)" d="M 4723.56,6944.81 L 4713.56,6950.58 L 4703.56,6944.28 L 4703.56,6344.81 L 4723.56,6356.36 L 4723.56,6944.81 Z " />
<path stroke="transparent" fill="#000000" transform="matrix(0.0666667 0 0 0.0666667 -137.425 -94.3333)" d="M 5762.84,6944.28 L 5752.84,6950.58 L 5742.84,6944.81 L 5742.84,6470.42 L 5762.84,6470.42 L 5762.84,6944.28 Z " />
<path stroke="transparent" fill="#000000" transform="matrix(0.0666667 0 0 0.0666667 -137.425 -94.3333)" d="M 8345.87,4241.92 L 8355.87,4259.24 L 7940.16,4499.28 L 7930.16,4481.96 L 8345.87,4241.92 Z " />
<path stroke="transparent" fill="#000000" transform="matrix(0.0666667 0 0 0.0666667 -137.425 -94.3333)" d="M 7841.31,5150.58 L 7821.31,5150.58 L 7821.31,4667.75 L 7841.31,4667.75 L 7841.31,5150.58 Z " />
<path stroke="transparent" fill="#000000" transform="matrix(0.0666667 0 0 0.0666667 -137.425 -94.3333)" d="M 6302.4,7198.62 L 6242.4,7302.54 L 5752.38,6962.4 L 5752.84,6950.58 L 5762.84,6944.28 L 6302.4,7198.62 Z " />
<path stroke="transparent" fill="#000000" transform="matrix(0.0666667 0 0 0.0666667 -137.425 -94.3333)" d="M 5233.2,7262.13 L 5233.2,7239.04 L 5742.84,6944.81 L 5752.84,6950.58 L 5752.38,6962.4 L 5233.2,7262.13 Z " />
<path stroke="transparent" fill="#000000" transform="matrix(0.0666667 0 0 0.0666667 -137.425 -94.3333)" d="M 5233.2,7239.04 L 5233.2,7262.13 L 4714.02,6962.4 L 4713.56,6950.58 L 4723.56,6944.81 L 5233.2,7239.04 Z " />
<path stroke="transparent" fill="#000000" transform="matrix(0.0666667 0 0 0.0666667 -137.425 -94.3333)" d="M 5293.2,7745.42 L 5173.2,7745.42 L 5175.47,7725.42 L 5290.93,7725.42 L 5293.2,7745.42 Z " />
<path stroke="transparent" fill="#000000" transform="matrix(0.0666667 0 0 0.0666667 -137.425 -94.3333)" d="M 5286.38,7685.31 L 5180.02,7685.31 L 5182.29,7665.31 L 5284.11,7665.31 L 5286.38,7685.31 Z " />
<path stroke="transparent" fill="#000000" transform="matrix(0.0666667 0 0 0.0666667 -137.425 -94.3333)" d="M 5279.56,7625.2 L 5186.84,7625.2 L 5189.11,7605.2 L 5277.29,7605.2 L 5279.56,7625.2 Z " />
<path stroke="transparent" fill="#000000" transform="matrix(0.0666667 0 0 0.0666667 -137.425 -94.3333)" d="M 5272.74,7565.1 L 5193.66,7565.1 L 5195.92,7545.1 L 5270.47,7545.1 L 5272.74,7565.1 Z " />
<path stroke="transparent" fill="#000000" transform="matrix(0.0666667 0 0 0.0666667 -137.425 -94.3333)" d="M 5265.92,7504.99 L 5200.47,7504.99 L 5202.74,7484.99 L 5263.66,7484.99 L 5265.92,7504.99 Z " />
<path stroke="transparent" fill="#000000" transform="matrix(0.0666667 0 0 0.0666667 -137.425 -94.3333)" d="M 5259.11,7444.89 L 5207.29,7444.89 L 5209.56,7424.89 L 5256.84,7424.89 L 5259.11,7444.89 Z " />
<path stroke="transparent" fill="#000000" transform="matrix(0.0666667 0 0 0.0666667 -137.425 -94.3333)" d="M 5252.29,7384.78 L 5214.11,7384.78 L 5216.38,7364.78 L 5250.02,7364.78 L 5252.29,7384.78 Z " />
<path stroke="transparent" fill="#000000" transform="matrix(0.0666667 0 0 0.0666667 -137.425 -94.3333)" d="M 5245.47,7324.67 L 5220.93,7324.67 L 5223.2,7304.67 L 5243.2,7304.67 L 5245.47,7324.67 Z " />
<path stroke="transparent" fill="#000000" transform="matrix(0.0666667 0 0 0.0666667 -137.425 -94.3333)" d="M 4773.56,7445.42 L 4653.56,7445.42 L 4655.83,7425.42 L 4771.29,7425.42 L 4773.56,7445.42 Z " />
<path stroke="transparent" fill="#000000" transform="matrix(0.0666667 0 0 0.0666667 -137.425 -94.3333)" d="M 4766.75,7385.31 L 4660.38,7385.31 L 4662.65,7365.31 L 4764.48,7365.31 L 4766.75,7385.31 Z " />
<path stroke="transparent" fill="#000000" transform="matrix(0.0666667 0 0 0.0666667 -137.425 -94.3333)" d="M 4759.93,7325.2 L 4667.2,7325.2 L 4669.47,7305.2 L 4757.66,7305.2 L 4759.93,7325.2 Z " />
<path stroke="transparent" fill="#000000" transform="matrix(0.0666667 0 0 0.0666667 -137.425 -94.3333)" d="M 4753.11,7265.1 L 4674.02,7265.1 L 4676.29,7245.1 L 4750.84,7245.1 L 4753.11,7265.1 Z " />
<path stroke="transparent" fill="#000000" transform="matrix(0.0666667 0 0 0.0666667 -137.425 -94.3333)" d="M 4746.29,7204.99 L 4680.84,7204.99 L 4683.11,7184.99 L 4744.02,7184.99 L 4746.29,7204.99 Z " />
<path stroke="transparent" fill="#000000" transform="matrix(0.0666667 0 0 0.0666667 -137.425 -94.3333)" d="M 4739.47,7144.89 L 4687.66,7144.89 L 4689.93,7124.89 L 4737.2,7124.89 L 4739.47,7144.89 Z " />
<path stroke="transparent" fill="#000000" transform="matrix(0.0666667 0 0 0.0666667 -137.425 -94.3333)" d="M 4732.65,7084.78 L 4694.48,7084.78 L 4696.75,7064.78 L 4730.38,7064.78 L 4732.65,7084.78 Z " />
<path stroke="transparent" fill="#000000" transform="matrix(0.0666667 0 0 0.0666667 -137.425 -94.3333)" d="M 4725.83,7024.67 L 4701.29,7024.67 L 4703.56,7004.67 L 4723.56,7004.67 L 4725.83,7024.67 Z " />
<path stroke="transparent" fill="#000000" transform="matrix(0.0666667 0 0 0.0666667 -137.425 -94.3333)" d="M 4224,7302.54 L 4164,7198.62 L 4703.56,6944.28 L 4713.56,6950.58 L 4714.02,6962.4 L 4224,7302.54 Z " />
<path stroke="transparent" fill="#000000" transform="matrix(0.0666667 0 0 0.0666667 -137.425 -94.3333)" d="M 5233.2,1839.04 L 5233.2,1862.13 L 4808.6,1617 L 4818.6,1599.68 L 5233.2,1839.04 Z " />
<path stroke="transparent" fill="#000000" transform="matrix(0.0666667 0 0 0.0666667 -137.425 -94.3333)" d="M 5648.23,1599.43 L 5658.23,1616.75 L 5233.2,1862.13 L 5233.2,1839.04 L 5648.23,1599.43 Z " />
<path stroke="transparent" fill="#000000" transform="matrix(0.0666667 0 0 0.0666667 -137.425 -94.3333)" d="M 6272.4,1839.04 L 6272.4,1862.13 L 5847.87,1617 L 5857.87,1599.68 L 6272.4,1839.04 Z " />
<path stroke="transparent" fill="#000000" transform="matrix(0.0666667 0 0 0.0666667 -137.425 -94.3333)" d="M 6792.04,1539.04 L 6792.04,1562.13 L 6272.4,1862.13 L 6272.4,1839.04 L 6792.04,1539.04 Z " />
<path stroke="transparent" fill="#000000" transform="matrix(0.0666667 0 0 0.0666667 -137.425 -94.3333)" d="M 7224.05,1788.45 L 7214.05,1805.77 L 6792.04,1562.13 L 6792.04,1539.04 L 7224.05,1788.45 Z " />
<path stroke="transparent" fill="#000000" transform="matrix(0.0666667 0 0 0.0666667 -137.425 -94.3333)" d="M 7826.31,1541.92 L 7836.31,1559.24 L 7409.29,1805.77 L 7399.29,1788.45 L 7826.31,1541.92 Z " />
<path stroke="transparent" fill="#000000" transform="matrix(0.0666667 0 0 0.0666667 -137.425 -94.3333)" d="M 2110.53,4259.24 L 2120.53,4241.92 L 2640.09,4541.92 L 2630.09,4559.24 L 2110.53,4259.24 Z " />
<path stroke="transparent" fill="#000000" transform="matrix(0.0666667 0 0 0.0666667 -137.425 -94.3333)" d="M 4198.93,7859.24 L 4188.93,7841.92 L 4608.96,7599.43 L 4618.96,7616.75 L 4198.93,7859.24 Z " />
<path stroke="transparent" fill="#000000" transform="matrix(0.0666667 0 0 0.0666667 -137.425 -94.3333)" d="M 3094.8,3170.42 L 3214.8,3170.42 L 3166.72,3632.15 L 3154.8,3650.58 L 3144.8,3650.58 L 3094.8,3170.42 Z " />
<path stroke="transparent" fill="#000000" transform="matrix(0.0666667 0 0 0.0666667 -137.425 -94.3333)" d="M 5173.2,3170.42 L 5293.2,3170.42 L 5243.2,3650.58 L 5233.2,3650.58 L 5221.28,3632.15 L 5173.2,3170.42 Z " />
</svg>
