<?xml version="1.0" standalone="no" ?>
<!DOCTYPE svg PUBLIC "-//W3C//DTD SVG 1.1//EN" "http://www.w3.org/Graphics/SVG/1.1/DTD/svg11.dtd">
<svg width="216px" height="177px" viewBox="0 0 216 177" style="background-color: #ffffff00" xmlns="http://www.w3.org/2000/svg" xmlns:xlink="http://www.w3.org/1999/xlink" version="1.1" >
<text x="0" y="0" stroke="none" fill="#000000" transform="matrix(0.0666667 0 0 0.0666667 33.6973 134.071)" font-style="normal" font-weight="normal" font-size="200px" font-family="Arial" >
N</text>
<text x="0" y="0" stroke="none" fill="#000000" transform="matrix(0.0666667 0 0 0.0666667 33.6973 145.193)" font-style="normal" font-weight="normal" font-size="200px" font-family="Arial" >
H</text>
<text x="0" y="0" stroke="none" fill="#000000" transform="matrix(0.0666667 0 0 0.0666667 171.858 14.0746)" font-style="normal" font-weight="normal" font-size="200px" font-family="Arial" >
OH</text>
<text x="0" y="0" stroke="none" fill="#000000" transform="matrix(0.0666667 0 0 0.0666667 102.58 174.07)" font-style="normal" font-weight="normal" font-size="200px" font-family="Arial" >
OH</text>
<path stroke="none" fill="#000000" transform="matrix(0.0666667 0 0 0.0666667 -240.853 -196)" d="M 5759.05,3978.87 L 5739.05,3967.32 L 6258.67,3667.33 L 6268.67,3673.1 L 6268.67,3684.65 L 5759.05,3978.87 Z " />
<path stroke="none" fill="#000000" transform="matrix(0.0666667 0 0 0.0666667 -240.853 -196)" d="M 6798.29,3967.32 L 6778.29,3978.87 L 6268.67,3684.65 L 6268.67,3673.1 L 6278.67,3667.33 L 6798.29,3967.32 Z " />
<path stroke="none" fill="#000000" transform="matrix(0.0666667 0 0 0.0666667 -240.853 -196)" d="M 6721.29,4006 L 6711.29,4023.32 L 6263.67,3764.9 L 6273.67,3747.58 L 6721.29,4006 Z " />
<path stroke="none" fill="#000000" transform="matrix(0.0666667 0 0 0.0666667 -240.853 -196)" d="M 5759.05,4567.3 L 5749.05,4573.07 L 5739.05,4567.3 L 5739.05,3967.32 L 5759.05,3978.87 L 5759.05,4567.3 Z " />
<path stroke="none" fill="#000000" transform="matrix(0.0666667 0 0 0.0666667 -240.853 -196)" d="M 5831.05,4531.51 L 5811.05,4531.51 L 5811.05,4014.66 L 5831.05,4014.66 L 5831.05,4531.51 Z " />
<path stroke="none" fill="#000000" transform="matrix(0.0666667 0 0 0.0666667 -240.853 -196)" d="M 6268.67,4861.52 L 6268.67,4884.61 L 5749.05,4584.62 L 5749.05,4573.07 L 5759.05,4567.3 L 6268.67,4861.52 Z " />
<path stroke="none" fill="#000000" transform="matrix(0.0666667 0 0 0.0666667 -240.853 -196)" d="M 6778.29,4567.3 L 6798.29,4578.85 L 6268.67,4884.61 L 6268.67,4861.52 L 6778.29,4567.3 Z " />
<path stroke="none" fill="#000000" transform="matrix(0.0666667 0 0 0.0666667 -240.853 -196)" d="M 6711.29,4522.84 L 6721.29,4540.16 L 6273.67,4798.59 L 6263.67,4781.27 L 6711.29,4522.84 Z " />
<path stroke="none" fill="#000000" transform="matrix(0.0666667 0 0 0.0666667 -240.853 -196)" d="M 6778.29,3978.87 L 6798.29,3967.32 L 6798.29,4578.85 L 6778.29,4567.3 L 6778.29,3978.87 Z " />
<path stroke="none" fill="#000000" transform="matrix(0.0666667 0 0 0.0666667 -240.853 -196)" d="M 5240.05,4878.52 L 5229.5,4873.07 L 5229.5,4861.52 L 5739.05,4567.3 L 5749.05,4573.07 L 5749.05,4584.62 L 5240.05,4878.52 Z " />
<path stroke="none" fill="#000000" transform="matrix(0.0666667 0 0 0.0666667 -240.853 -196)" d="M 4709.88,4584.62 L 4709.88,4561.53 L 5229.5,4861.52 L 5229.5,4873.07 L 5218.95,4878.52 L 4709.88,4584.62 Z " />
<path stroke="none" fill="#000000" transform="matrix(0.0666667 0 0 0.0666667 -240.853 -196)" d="M 4299.11,4821.77 L 4289.11,4804.45 L 4709.88,4561.53 L 4709.88,4584.62 L 4299.11,4821.77 Z " />
<path stroke="none" fill="#000000" transform="matrix(0.0666667 0 0 0.0666667 -240.853 -196)" d="M 3665.71,4581.73 L 3675.71,4564.41 L 4091.41,4804.44 L 4081.41,4821.76 L 3665.71,4581.73 Z " />
<path stroke="none" fill="#000000" transform="matrix(0.0666667 0 0 0.0666667 -240.853 -196)" d="M 6258.67,3192.95 L 6278.67,3192.95 L 6278.67,3667.33 L 6268.67,3673.1 L 6258.67,3667.33 L 6258.67,3192.95 Z " />
<path stroke="none" fill="#000000" transform="matrix(0.0666667 0 0 0.0666667 -240.853 -196)" d="M 5289.5,5367.88 L 5169.5,5367.88 L 5218.95,4878.52 L 5229.5,4873.07 L 5240.05,4878.52 L 5289.5,5367.88 Z " />
</svg>
