<?xml version="1.0" standalone="no" ?>
<!DOCTYPE svg PUBLIC "-//W3C//DTD SVG 1.1//EN" "http://www.w3.org/Graphics/SVG/1.1/DTD/svg11.dtd">
<svg width="868px" height="359px" viewBox="0 0 868 359" style="background-color: #ffffff00" xmlns="http://www.w3.org/2000/svg" xmlns:xlink="http://www.w3.org/1999/xlink" version="1.1" >
<text x="0" y="0" stroke="transparent" fill="#000000" transform="matrix(0.0833333 0 0 0.0833333 189.194 317.856)" style="font:normal normal normal 200px 'Arial'" >
O</text>
<text x="0" y="0" stroke="transparent" fill="#000000" transform="matrix(0.0833333 0 0 0.0833333 102.592 317.856)" style="font:normal normal normal 200px 'Arial'" >
O</text>
<text x="0" y="0" stroke="transparent" fill="#000000" transform="matrix(0.0833333 0 0 0.0833333 3.9532 217.856)" style="font:normal normal normal 200px 'Arial'" >
HO</text>
<text x="0" y="0" stroke="transparent" fill="#000000" transform="matrix(0.0833333 0 0 0.0833333 102.592 167.856)" style="font:normal normal normal 200px 'Arial'" >
OH</text>
<text x="0" y="0" stroke="transparent" fill="#000000" transform="matrix(0.0833333 0 0 0.0833333 189.194 217.856)" style="font:normal normal normal 200px 'Arial'" >
O</text>
<text x="0" y="0" stroke="transparent" fill="#000000" transform="matrix(0.0833333 0 0 0.0833333 145.893 142.856)" style="font:normal normal normal 200px 'Arial'" >
O</text>
<text x="0" y="0" stroke="transparent" fill="#000000" transform="matrix(0.0833333 0 0 0.0833333 47.2545 92.8563)" style="font:normal normal normal 200px 'Arial'" >
HO</text>
<text x="0" y="0" stroke="transparent" fill="#000000" transform="matrix(0.0833333 0 0 0.0833333 189.194 17.8563)" style="font:normal normal normal 200px 'Arial'" >
OH</text>
<text x="0" y="0" stroke="transparent" fill="#000000" transform="matrix(0.0833333 0 0 0.0833333 275.797 67.8563)" style="font:normal normal normal 200px 'Arial'" >
OH</text>
<text x="0" y="0" stroke="transparent" fill="#000000" transform="matrix(0.0833333 0 0 0.0833333 275.797 167.856)" style="font:normal normal normal 200px 'Arial'" >
OH</text>
<text x="0" y="0" stroke="transparent" fill="#000000" transform="matrix(0.0833333 0 0 0.0833333 430.267 92.8563)" style="font:normal normal normal 200px 'Arial'" >
HO</text>
<text x="0" y="0" stroke="transparent" fill="#000000" transform="matrix(0.0833333 0 0 0.0833333 578.906 242.856)" style="font:normal normal normal 200px 'Arial'" >
O</text>
<text x="0" y="0" stroke="transparent" fill="#000000" transform="matrix(0.0833333 0 0 0.0833333 622.207 167.856)" style="font:normal normal normal 200px 'Arial'" >
O</text>
<text x="0" y="0" stroke="transparent" fill="#000000" transform="matrix(0.0833333 0 0 0.0833333 708.81 167.856)" style="font:normal normal normal 200px 'Arial'" >
O</text>
<text x="0" y="0" stroke="transparent" fill="#000000" transform="matrix(0.0833333 0 0 0.0833333 838.713 192.856)" style="font:normal normal normal 200px 'Arial'" >
OH</text>
<text x="0" y="0" stroke="transparent" fill="#000000" transform="matrix(0.0833333 0 0 0.0833333 795.412 267.856)" style="font:normal normal normal 200px 'Arial'" >
OH</text>
<text x="0" y="0" stroke="transparent" fill="#000000" transform="matrix(0.0833333 0 0 0.0833333 708.81 317.856)" style="font:normal normal normal 200px 'Arial'" >
OH</text>
<text x="0" y="0" stroke="transparent" fill="#000000" transform="matrix(0.0833333 0 0 0.0833333 610.171 267.856)" style="font:normal normal normal 200px 'Arial'" >
HO</text>
<path stroke="transparent" fill="#000000" transform="matrix(0.0833333 0 0 0.0833333 -2.16667 -736.583)" d="M 6541.25,9521.28 L 6521.25,9521.28 L 6519.42,9501.28 L 6543.09,9501.28 L 6541.25,9521.28 Z " />
<path stroke="transparent" fill="#000000" transform="matrix(0.0833333 0 0 0.0833333 -2.16667 -736.583)" d="M 6546.61,9462.83 L 6515.9,9462.83 L 6514.07,9442.83 L 6548.44,9442.83 L 6546.61,9462.83 Z " />
<path stroke="transparent" fill="#000000" transform="matrix(0.0833333 0 0 0.0833333 -2.16667 -736.583)" d="M 6551.96,9404.39 L 6510.55,9404.39 L 6508.72,9384.39 L 6553.79,9384.39 L 6551.96,9404.39 Z " />
<path stroke="transparent" fill="#000000" transform="matrix(0.0833333 0 0 0.0833333 -2.16667 -736.583)" d="M 6557.31,9345.94 L 6505.2,9345.94 L 6503.37,9325.94 L 6559.14,9325.94 L 6557.31,9345.94 Z " />
<path stroke="transparent" fill="#000000" transform="matrix(0.0833333 0 0 0.0833333 -2.16667 -736.583)" d="M 6562.66,9287.5 L 6499.85,9287.5 L 6498.02,9267.5 L 6564.49,9267.5 L 6562.66,9287.5 Z " />
<path stroke="transparent" fill="#000000" transform="matrix(0.0833333 0 0 0.0833333 -2.16667 -736.583)" d="M 6568.02,9229.05 L 6494.49,9229.05 L 6492.66,9209.05 L 6569.85,9209.05 L 6568.02,9229.05 Z " />
<path stroke="transparent" fill="#000000" transform="matrix(0.0833333 0 0 0.0833333 -2.16667 -736.583)" d="M 6573.37,9170.61 L 6489.14,9170.61 L 6487.31,9150.61 L 6575.2,9150.61 L 6573.37,9170.61 Z " />
<path stroke="transparent" fill="#000000" transform="matrix(0.0833333 0 0 0.0833333 -2.16667 -736.583)" d="M 6578.72,9112.16 L 6483.79,9112.16 L 6481.96,9092.16 L 6580.55,9092.16 L 6578.72,9112.16 Z " />
<path stroke="transparent" fill="#000000" transform="matrix(0.0833333 0 0 0.0833333 -2.16667 -736.583)" d="M 6584.07,9053.72 L 6478.44,9053.72 L 6476.61,9033.72 L 6585.9,9033.72 L 6584.07,9053.72 Z " />
<path stroke="transparent" fill="#000000" transform="matrix(0.0833333 0 0 0.0833333 -2.16667 -736.583)" d="M 6589.42,8995.28 L 6473.09,8995.28 L 6471.25,8975.28 L 6591.25,8975.28 L 6589.42,8995.28 Z " />
<path stroke="transparent" fill="#000000" transform="matrix(0.0833333 0 0 0.0833333 -2.16667 -736.583)" d="M 7060.87,9869.5 L 7040.87,9881.05 L 6531.25,9586.82 L 6531.25,9563.73 L 7060.87,9869.5 Z " />
<path stroke="transparent" fill="#000000" transform="matrix(0.0833333 0 0 0.0833333 -2.16667 -736.583)" d="M 7060.87,10481 L 7040.87,10469.5 L 7040.87,9881.05 L 7060.87,9869.5 L 7060.87,10481 Z " />
<path stroke="transparent" fill="#000000" transform="matrix(0.0833333 0 0 0.0833333 -2.16667 -736.583)" d="M 6552.77,10774.4 L 6531.25,10775.3 L 6531.25,10763.7 L 7040.87,10469.5 L 7060.87,10481 L 6552.77,10774.4 Z " />
<path stroke="transparent" fill="#000000" transform="matrix(0.0833333 0 0 0.0833333 -2.16667 -736.583)" d="M 6541.25,11381 L 6521.25,11369.5 L 6521.25,10781 L 6531.25,10775.3 L 6541.25,10794.3 L 6541.25,11381 Z " />
<path stroke="transparent" fill="#000000" transform="matrix(0.0833333 0 0 0.0833333 -2.16667 -736.583)" d="M 6011.64,11686.8 L 6011.64,11663.7 L 6521.25,11369.5 L 6541.25,11381 L 6011.64,11686.8 Z " />
<path stroke="transparent" fill="#000000" transform="matrix(0.0833333 0 0 0.0833333 -2.16667 -736.583)" d="M 5492.02,11386.8 L 5492.02,11375.3 L 5502.02,11369.5 L 6011.64,11663.7 L 6011.64,11686.8 L 5492.02,11386.8 Z " />
<path stroke="transparent" fill="#000000" transform="matrix(0.0833333 0 0 0.0833333 -2.16667 -736.583)" d="M 5482.02,10781 L 5502.02,10769.5 L 5502.02,11369.5 L 5492.02,11375.3 L 5482.02,11369.5 L 5482.02,10781 Z " />
<path stroke="transparent" fill="#000000" transform="matrix(0.0833333 0 0 0.0833333 -2.16667 -736.583)" d="M 4972.41,10486.8 L 4972.41,10463.7 L 5502.02,10769.5 L 5482.02,10781 L 4972.41,10486.8 Z " />
<path stroke="transparent" fill="#000000" transform="matrix(0.0833333 0 0 0.0833333 -2.16667 -736.583)" d="M 4967.41,10567.1 L 4977.41,10549.8 L 5425.02,10808.2 L 5415.02,10825.5 L 4967.41,10567.1 Z " />
<path stroke="transparent" fill="#000000" transform="matrix(0.0833333 0 0 0.0833333 -2.16667 -736.583)" d="M 4514.82,10751 L 4394.63,10797.3 L 4972.41,10463.7 L 4972.41,10486.8 L 4514.82,10751 Z " />
<path stroke="transparent" fill="#000000" transform="matrix(0.0833333 0 0 0.0833333 -2.16667 -736.583)" d="M 4463.25,11369.8 L 4452.79,11375.3 L 4442.33,11369.8 L 4394.63,10797.3 L 4514.82,10751 L 4463.25,11369.8 Z " />
<path stroke="transparent" fill="#000000" transform="matrix(0.0833333 0 0 0.0833333 -2.16667 -736.583)" d="M 4960.89,11657.1 L 4972.41,11675.3 L 4962.41,11681 L 4452.79,11386.8 L 4452.79,11375.3 L 4463.25,11369.8 L 4960.89,11657.1 Z " />
<path stroke="transparent" fill="#000000" transform="matrix(0.0833333 0 0 0.0833333 -2.16667 -736.583)" d="M 4982.41,11681 L 4972.41,11675.3 L 4983.93,11657.1 L 5482.02,11369.5 L 5492.02,11375.3 L 5492.02,11386.8 L 4982.41,11681 Z " />
<path stroke="transparent" fill="#000000" transform="matrix(0.0833333 0 0 0.0833333 -2.16667 -736.583)" d="M 4982.41,12281 L 4962.41,12269.5 L 4962.41,11681 L 4972.41,11675.3 L 4982.41,11681 L 4982.41,12281 Z " />
<path stroke="transparent" fill="#000000" transform="matrix(0.0833333 0 0 0.0833333 -2.16667 -736.583)" d="M 4404.63,12614.6 L 4504.82,12533.7 L 4962.41,12269.5 L 4982.41,12281 L 4404.63,12614.6 Z " />
<path stroke="transparent" fill="#000000" transform="matrix(0.0833333 0 0 0.0833333 -2.16667 -736.583)" d="M 3932.72,12287.1 L 3933.18,12275.3 L 3943.18,12269 L 4504.82,12533.7 L 4404.63,12614.6 L 3932.72,12287.1 Z " />
<path stroke="transparent" fill="#000000" transform="matrix(0.0833333 0 0 0.0833333 -2.16667 -736.583)" d="M 3923.18,11681 L 3933.18,11675.3 L 3943.18,11681 L 3943.18,12269 L 3933.18,12275.3 L 3923.18,12269.5 L 3923.18,11681 Z " />
<path stroke="transparent" fill="#000000" transform="matrix(0.0833333 0 0 0.0833333 -2.16667 -736.583)" d="M 3943.18,11681 L 3933.18,11675.3 L 3944.7,11657.1 L 4442.33,11369.8 L 4452.79,11375.3 L 4452.79,11386.8 L 3943.18,11681 Z " />
<path stroke="transparent" fill="#000000" transform="matrix(0.0833333 0 0 0.0833333 -2.16667 -736.583)" d="M 3413.56,11386.8 L 3413.56,11363.7 L 3921.66,11657.1 L 3933.18,11675.3 L 3923.18,11681 L 3413.56,11386.8 Z " />
<path stroke="transparent" fill="#000000" transform="matrix(0.0833333 0 0 0.0833333 -2.16667 -736.583)" d="M 2903.95,11681 L 2883.95,11669.5 L 3413.56,11363.7 L 3413.56,11386.8 L 2903.95,11681 Z " />
<path stroke="transparent" fill="#000000" transform="matrix(0.0833333 0 0 0.0833333 -2.16667 -736.583)" d="M 2903.95,12269.5 L 2893.95,12275.3 L 2883.95,12268.9 L 2883.95,11669.5 L 2903.95,11681 L 2903.95,12269.5 Z " />
<path stroke="transparent" fill="#000000" transform="matrix(0.0833333 0 0 0.0833333 -2.16667 -736.583)" d="M 3413.56,12563.7 L 3413.56,12575.3 L 3399.9,12578.9 L 2894.5,12287.1 L 2893.95,12275.3 L 2903.95,12269.5 L 3413.56,12563.7 Z " />
<path stroke="transparent" fill="#000000" transform="matrix(0.0833333 0 0 0.0833333 -2.16667 -736.583)" d="M 3427.22,12578.9 L 3413.56,12575.3 L 3413.56,12563.7 L 3923.18,12269.5 L 3933.18,12275.3 L 3932.72,12287.1 L 3427.22,12578.9 Z " />
<path stroke="transparent" fill="#000000" transform="matrix(0.0833333 0 0 0.0833333 -2.16667 -736.583)" d="M 3722.22,13089.9 L 3704.9,13099.9 L 3413.56,12595.3 L 3413.56,12575.3 L 3427.22,12578.9 L 3722.22,13089.9 Z " />
<path stroke="transparent" fill="#000000" transform="matrix(0.0833333 0 0 0.0833333 -2.16667 -736.583)" d="M 3122.22,13099.9 L 3104.9,13089.9 L 3399.9,12578.9 L 3413.56,12575.3 L 3413.56,12595.3 L 3122.22,13099.9 Z " />
<path stroke="transparent" fill="#000000" transform="matrix(0.0833333 0 0 0.0833333 -2.16667 -736.583)" d="M 2496.95,12573.8 L 2436.95,12469.8 L 2883.95,12268.9 L 2893.95,12275.3 L 2894.5,12287.1 L 2496.95,12573.8 Z " />
<path stroke="transparent" fill="#000000" transform="matrix(0.0833333 0 0 0.0833333 -2.16667 -736.583)" d="M 1896.49,12310.9 L 1906.49,12293.6 L 1924.95,12301.6 L 1912.67,12322.9 L 1896.49,12310.9 Z " />
<path stroke="transparent" fill="#000000" transform="matrix(0.0833333 0 0 0.0833333 -2.16667 -736.583)" d="M 1944.92,12346.8 L 1961.74,12317.6 L 1980.2,12325.7 L 1961.1,12358.7 L 1944.92,12346.8 Z " />
<path stroke="transparent" fill="#000000" transform="matrix(0.0833333 0 0 0.0833333 -2.16667 -736.583)" d="M 1993.36,12382.6 L 2016.99,12341.7 L 2035.45,12349.7 L 2009.54,12394.6 L 1993.36,12382.6 Z " />
<path stroke="transparent" fill="#000000" transform="matrix(0.0833333 0 0 0.0833333 -2.16667 -736.583)" d="M 2041.79,12418.4 L 2072.25,12365.7 L 2090.7,12373.7 L 2057.97,12430.4 L 2041.79,12418.4 Z " />
<path stroke="transparent" fill="#000000" transform="matrix(0.0833333 0 0 0.0833333 -2.16667 -736.583)" d="M 2090.23,12454.3 L 2127.5,12389.7 L 2145.96,12397.8 L 2106.41,12466.3 L 2090.23,12454.3 Z " />
<path stroke="transparent" fill="#000000" transform="matrix(0.0833333 0 0 0.0833333 -2.16667 -736.583)" d="M 2138.66,12490.1 L 2182.75,12413.8 L 2201.21,12421.8 L 2154.84,12502.1 L 2138.66,12490.1 Z " />
<path stroke="transparent" fill="#000000" transform="matrix(0.0833333 0 0 0.0833333 -2.16667 -736.583)" d="M 2187.1,12526 L 2238,12437.8 L 2256.46,12445.8 L 2203.28,12537.9 L 2187.1,12526 Z " />
<path stroke="transparent" fill="#000000" transform="matrix(0.0833333 0 0 0.0833333 -2.16667 -736.583)" d="M 2235.53,12561.8 L 2293.25,12461.8 L 2311.71,12469.8 L 2251.71,12573.8 L 2235.53,12561.8 Z " />
<path stroke="transparent" fill="#000000" transform="matrix(0.0833333 0 0 0.0833333 -2.16667 -736.583)" d="M 1844.72,11681 L 1854.72,11675.3 L 1864.72,11681.7 L 1864.72,12281 L 1844.72,12269.5 L 1844.72,11681 Z " />
<path stroke="transparent" fill="#000000" transform="matrix(0.0833333 0 0 0.0833333 -2.16667 -736.583)" d="M 1335.1,11386.8 L 1335.1,11363.7 L 1854.16,11663.4 L 1854.72,11675.3 L 1844.72,11681 L 1335.1,11386.8 Z " />
<path stroke="transparent" fill="#000000" transform="matrix(0.0833333 0 0 0.0833333 -2.16667 -736.583)" d="M 825.487,11681 L 815.487,11675.3 L 816.05,11663.4 L 1335.1,11363.7 L 1335.1,11386.8 L 825.487,11681 Z " />
<path stroke="transparent" fill="#000000" transform="matrix(0.0833333 0 0 0.0833333 -2.16667 -736.583)" d="M 825.487,12269.5 L 805.487,12281 L 805.487,11681.7 L 815.487,11675.3 L 825.487,11681 L 825.487,12269.5 Z " />
<path stroke="transparent" fill="#000000" transform="matrix(0.0833333 0 0 0.0833333 -2.16667 -736.583)" d="M 1247.48,12513.1 L 1237.48,12530.5 L 805.487,12281 L 825.487,12269.5 L 1247.48,12513.1 Z " />
<path stroke="transparent" fill="#000000" transform="matrix(0.0833333 0 0 0.0833333 -2.16667 -736.583)" d="M 1432.72,12530.5 L 1422.72,12513.1 L 1844.72,12269.5 L 1864.72,12281 L 1432.72,12530.5 Z " />
<path stroke="transparent" fill="#000000" transform="matrix(0.0833333 0 0 0.0833333 -2.16667 -736.583)" d="M 365.9,11485 L 425.9,11381.1 L 816.05,11663.4 L 815.487,11675.3 L 805.487,11681.7 L 365.9,11485 Z " />
<path stroke="transparent" fill="#000000" transform="matrix(0.0833333 0 0 0.0833333 -2.16667 -736.583)" d="M 1275.1,10895.1 L 1395.1,10895.1 L 1392.76,10915.1 L 1277.45,10915.1 L 1275.1,10895.1 Z " />
<path stroke="transparent" fill="#000000" transform="matrix(0.0833333 0 0 0.0833333 -2.16667 -736.583)" d="M 1281.91,10953.1 L 1388.29,10953.1 L 1385.95,10973.1 L 1284.26,10973.1 L 1281.91,10953.1 Z " />
<path stroke="transparent" fill="#000000" transform="matrix(0.0833333 0 0 0.0833333 -2.16667 -736.583)" d="M 1288.72,11011.2 L 1381.49,11011.2 L 1379.14,11031.2 L 1291.06,11031.2 L 1288.72,11011.2 Z " />
<path stroke="transparent" fill="#000000" transform="matrix(0.0833333 0 0 0.0833333 -2.16667 -736.583)" d="M 1295.53,11069.2 L 1374.68,11069.2 L 1372.33,11089.2 L 1297.87,11089.2 L 1295.53,11069.2 Z " />
<path stroke="transparent" fill="#000000" transform="matrix(0.0833333 0 0 0.0833333 -2.16667 -736.583)" d="M 1302.33,11127.2 L 1367.87,11127.2 L 1365.53,11147.2 L 1304.68,11147.2 L 1302.33,11127.2 Z " />
<path stroke="transparent" fill="#000000" transform="matrix(0.0833333 0 0 0.0833333 -2.16667 -736.583)" d="M 1309.14,11185.2 L 1361.06,11185.2 L 1358.72,11205.2 L 1311.49,11205.2 L 1309.14,11185.2 Z " />
<path stroke="transparent" fill="#000000" transform="matrix(0.0833333 0 0 0.0833333 -2.16667 -736.583)" d="M 1315.95,11243.2 L 1354.26,11243.2 L 1351.91,11263.2 L 1318.29,11263.2 L 1315.95,11243.2 Z " />
<path stroke="transparent" fill="#000000" transform="matrix(0.0833333 0 0 0.0833333 -2.16667 -736.583)" d="M 1322.76,11301.3 L 1347.45,11301.3 L 1345.1,11321.3 L 1325.1,11321.3 L 1322.76,11301.3 Z " />
<path stroke="transparent" fill="#000000" transform="matrix(0.0833333 0 0 0.0833333 -2.16667 -736.583)" d="M 2244.73,11380.8 L 2304.73,11484.7 L 1864.72,11681.7 L 1854.72,11675.3 L 1854.16,11663.4 L 2244.73,11380.8 Z " />
<path stroke="transparent" fill="#000000" transform="matrix(0.0833333 0 0 0.0833333 -2.16667 -736.583)" d="M 2364.33,10829.4 L 2384.33,10829.4 L 2386.6,10849.4 L 2362.06,10849.4 L 2364.33,10829.4 Z " />
<path stroke="transparent" fill="#000000" transform="matrix(0.0833333 0 0 0.0833333 -2.16667 -736.583)" d="M 2357.51,10889.5 L 2391.15,10889.5 L 2393.42,10909.5 L 2355.25,10909.5 L 2357.51,10889.5 Z " />
<path stroke="transparent" fill="#000000" transform="matrix(0.0833333 0 0 0.0833333 -2.16667 -736.583)" d="M 2350.7,10949.6 L 2397.97,10949.6 L 2400.24,10969.6 L 2348.43,10969.6 L 2350.7,10949.6 Z " />
<path stroke="transparent" fill="#000000" transform="matrix(0.0833333 0 0 0.0833333 -2.16667 -736.583)" d="M 2343.88,11009.7 L 2404.79,11009.7 L 2407.06,11029.7 L 2341.61,11029.7 L 2343.88,11009.7 Z " />
<path stroke="transparent" fill="#000000" transform="matrix(0.0833333 0 0 0.0833333 -2.16667 -736.583)" d="M 2337.06,11069.8 L 2411.61,11069.8 L 2413.88,11089.8 L 2334.79,11089.8 L 2337.06,11069.8 Z " />
<path stroke="transparent" fill="#000000" transform="matrix(0.0833333 0 0 0.0833333 -2.16667 -736.583)" d="M 2330.24,11129.9 L 2418.43,11129.9 L 2420.7,11149.9 L 2327.97,11149.9 L 2330.24,11129.9 Z " />
<path stroke="transparent" fill="#000000" transform="matrix(0.0833333 0 0 0.0833333 -2.16667 -736.583)" d="M 2323.42,11190 L 2425.25,11190 L 2427.51,11210 L 2321.15,11210 L 2323.42,11190 Z " />
<path stroke="transparent" fill="#000000" transform="matrix(0.0833333 0 0 0.0833333 -2.16667 -736.583)" d="M 2316.6,11250.1 L 2432.06,11250.1 L 2434.33,11270.1 L 2314.33,11270.1 L 2316.6,11250.1 Z " />
<path stroke="transparent" fill="#000000" transform="matrix(0.0833333 0 0 0.0833333 -2.16667 -736.583)" d="M 2883.95,10469.5 L 2893.95,10475.3 L 2893.4,10487.1 L 2374.33,10786.8 L 2374.33,10763.7 L 2883.95,10469.5 Z " />
<path stroke="transparent" fill="#000000" transform="matrix(0.0833333 0 0 0.0833333 -2.16667 -736.583)" d="M 2883.95,9881.05 L 2903.95,9869.5 L 2903.95,10468.9 L 2893.95,10475.3 L 2883.95,10469.5 L 2883.95,9881.05 Z " />
<path stroke="transparent" fill="#000000" transform="matrix(0.0833333 0 0 0.0833333 -2.16667 -736.583)" d="M 2374.33,9586.82 L 2374.33,9575.28 L 2384.9,9569.83 L 2903.95,9869.5 L 2883.95,9881.05 L 2374.33,9586.82 Z " />
<path stroke="transparent" fill="#000000" transform="matrix(0.0833333 0 0 0.0833333 -2.16667 -736.583)" d="M 1864.72,9881.05 L 1844.72,9869.5 L 2363.77,9569.83 L 2374.33,9575.28 L 2374.33,9586.82 L 1864.72,9881.05 Z " />
<path stroke="transparent" fill="#000000" transform="matrix(0.0833333 0 0 0.0833333 -2.16667 -736.583)" d="M 1864.72,10370.1 L 1844.72,10370.1 L 1844.72,9869.5 L 1864.72,9881.05 L 1864.72,10370.1 Z " />
<path stroke="transparent" fill="#000000" transform="matrix(0.0833333 0 0 0.0833333 -2.16667 -736.583)" d="M 1949.75,10541.7 L 1959.75,10524.4 L 2374.33,10763.7 L 2374.33,10786.8 L 1949.75,10541.7 Z " />
<path stroke="transparent" fill="#000000" transform="matrix(0.0833333 0 0 0.0833333 -2.16667 -736.583)" d="M 1351.87,9654.24 L 1411.87,9550.31 L 1428.17,9562.07 L 1370.2,9662.48 L 1351.87,9654.24 Z " />
<path stroke="transparent" fill="#000000" transform="matrix(0.0833333 0 0 0.0833333 -2.16667 -736.583)" d="M 1405.96,9678.54 L 1459.97,9585.01 L 1476.27,9596.77 L 1424.3,9686.78 L 1405.96,9678.54 Z " />
<path stroke="transparent" fill="#000000" transform="matrix(0.0833333 0 0 0.0833333 -2.16667 -736.583)" d="M 1460.05,9702.85 L 1508.06,9619.7 L 1524.37,9631.46 L 1478.39,9711.09 L 1460.05,9702.85 Z " />
<path stroke="transparent" fill="#000000" transform="matrix(0.0833333 0 0 0.0833333 -2.16667 -736.583)" d="M 1514.15,9727.16 L 1556.16,9654.39 L 1572.46,9666.15 L 1532.49,9735.4 L 1514.15,9727.16 Z " />
<path stroke="transparent" fill="#000000" transform="matrix(0.0833333 0 0 0.0833333 -2.16667 -736.583)" d="M 1568.24,9751.47 L 1604.26,9689.08 L 1620.56,9700.84 L 1586.58,9759.71 L 1568.24,9751.47 Z " />
<path stroke="transparent" fill="#000000" transform="matrix(0.0833333 0 0 0.0833333 -2.16667 -736.583)" d="M 1622.34,9775.77 L 1652.36,9723.78 L 1668.66,9735.54 L 1640.67,9784.01 L 1622.34,9775.77 Z " />
<path stroke="transparent" fill="#000000" transform="matrix(0.0833333 0 0 0.0833333 -2.16667 -736.583)" d="M 1676.43,9800.08 L 1700.45,9758.47 L 1716.76,9770.23 L 1694.77,9808.32 L 1676.43,9800.08 Z " />
<path stroke="transparent" fill="#000000" transform="matrix(0.0833333 0 0 0.0833333 -2.16667 -736.583)" d="M 1730.52,9824.39 L 1748.55,9793.16 L 1764.85,9804.92 L 1748.86,9832.63 L 1730.52,9824.39 Z " />
<path stroke="transparent" fill="#000000" transform="matrix(0.0833333 0 0 0.0833333 -2.16667 -736.583)" d="M 1784.62,9848.7 L 1796.65,9827.86 L 1812.95,9839.62 L 1802.95,9856.94 L 1784.62,9848.7 Z " />
<path stroke="transparent" fill="#000000" transform="matrix(0.0833333 0 0 0.0833333 -2.16667 -736.583)" d="M 913.098,9830.47 L 903.098,9813.15 L 1330.1,9566.62 L 1340.1,9583.94 L 913.098,9830.47 Z " />
<path stroke="transparent" fill="#000000" transform="matrix(0.0833333 0 0 0.0833333 -2.16667 -736.583)" d="M 2314.33,9095.11 L 2434.33,9095.11 L 2384.9,9569.83 L 2374.33,9575.28 L 2363.77,9569.83 L 2314.33,9095.11 Z " />
<path stroke="transparent" fill="#000000" transform="matrix(0.0833333 0 0 0.0833333 -2.16667 -736.583)" d="M 3283.96,9580.82 L 3343.96,9684.74 L 3325.48,9692.73 L 3267.8,9592.83 L 3283.96,9580.82 Z " />
<path stroke="transparent" fill="#000000" transform="matrix(0.0833333 0 0 0.0833333 -2.16667 -736.583)" d="M 3236.53,9616.07 L 3289.72,9708.19 L 3271.24,9716.18 L 3220.37,9628.08 L 3236.53,9616.07 Z " />
<path stroke="transparent" fill="#000000" transform="matrix(0.0833333 0 0 0.0833333 -2.16667 -736.583)" d="M 3189.11,9651.31 L 3235.48,9731.64 L 3217,9739.63 L 3172.95,9663.32 L 3189.11,9651.31 Z " />
<path stroke="transparent" fill="#000000" transform="matrix(0.0833333 0 0 0.0833333 -2.16667 -736.583)" d="M 3141.68,9686.56 L 3181.24,9755.09 L 3162.76,9763.08 L 3125.52,9698.57 L 3141.68,9686.56 Z " />
<path stroke="transparent" fill="#000000" transform="matrix(0.0833333 0 0 0.0833333 -2.16667 -736.583)" d="M 3094.25,9721.81 L 3127.01,9778.54 L 3108.52,9786.53 L 3078.09,9733.82 L 3094.25,9721.81 Z " />
<path stroke="transparent" fill="#000000" transform="matrix(0.0833333 0 0 0.0833333 -2.16667 -736.583)" d="M 3046.82,9757.06 L 3072.77,9801.99 L 3054.29,9809.98 L 3030.66,9769.07 L 3046.82,9757.06 Z " />
<path stroke="transparent" fill="#000000" transform="matrix(0.0833333 0 0 0.0833333 -2.16667 -736.583)" d="M 2999.4,9792.3 L 3018.53,9825.44 L 3000.05,9833.43 L 2983.24,9804.31 L 2999.4,9792.3 Z " />
<path stroke="transparent" fill="#000000" transform="matrix(0.0833333 0 0 0.0833333 -2.16667 -736.583)" d="M 2951.97,9827.55 L 2964.29,9848.89 L 2945.81,9856.88 L 2935.81,9839.56 L 2951.97,9827.55 Z " />
<path stroke="transparent" fill="#000000" transform="matrix(0.0833333 0 0 0.0833333 -2.16667 -736.583)" d="M 3350.94,10669.8 L 3290.94,10773.8 L 2893.4,10487.1 L 2893.95,10475.3 L 2903.95,10468.9 L 3350.94,10669.8 Z " />
<path stroke="transparent" fill="#000000" transform="matrix(0.0833333 0 0 0.0833333 -2.16667 -736.583)" d="M 3873.18,11075.3 L 3993.18,11075.3 L 3944.7,11657.1 L 3933.18,11675.3 L 3921.66,11657.1 L 3873.18,11075.3 Z " />
<path stroke="transparent" fill="#000000" transform="matrix(0.0833333 0 0 0.0833333 -2.16667 -736.583)" d="M 4912.41,11075.3 L 5032.41,11075.3 L 4983.93,11657.1 L 4972.41,11675.3 L 4960.89,11657.1 L 4912.41,11075.3 Z " />
<path stroke="transparent" fill="#000000" transform="matrix(0.0833333 0 0 0.0833333 -2.16667 -736.583)" d="M 5959.8,10493.7 L 5969.8,10511 L 5953.49,10522.7 L 5941.46,10501.9 L 5959.8,10493.7 Z " />
<path stroke="transparent" fill="#000000" transform="matrix(0.0833333 0 0 0.0833333 -2.16667 -736.583)" d="M 5905.72,10518 L 5921.72,10545.7 L 5905.41,10557.4 L 5887.39,10526.2 L 5905.72,10518 Z " />
<path stroke="transparent" fill="#000000" transform="matrix(0.0833333 0 0 0.0833333 -2.16667 -736.583)" d="M 5851.65,10542.3 L 5873.64,10580.3 L 5857.34,10592.1 L 5833.31,10550.5 L 5851.65,10542.3 Z " />
<path stroke="transparent" fill="#000000" transform="matrix(0.0833333 0 0 0.0833333 -2.16667 -736.583)" d="M 5797.57,10566.5 L 5825.56,10615 L 5809.26,10626.8 L 5779.24,10574.8 L 5797.57,10566.5 Z " />
<path stroke="transparent" fill="#000000" transform="matrix(0.0833333 0 0 0.0833333 -2.16667 -736.583)" d="M 5743.5,10590.8 L 5777.48,10649.7 L 5761.18,10661.5 L 5725.16,10599.1 L 5743.5,10590.8 Z " />
<path stroke="transparent" fill="#000000" transform="matrix(0.0833333 0 0 0.0833333 -2.16667 -736.583)" d="M 5689.43,10615.1 L 5729.41,10684.4 L 5713.1,10696.1 L 5671.09,10623.4 L 5689.43,10615.1 Z " />
<path stroke="transparent" fill="#000000" transform="matrix(0.0833333 0 0 0.0833333 -2.16667 -736.583)" d="M 5635.35,10639.4 L 5681.33,10719.1 L 5665.02,10730.8 L 5617.02,10647.7 L 5635.35,10639.4 Z " />
<path stroke="transparent" fill="#000000" transform="matrix(0.0833333 0 0 0.0833333 -2.16667 -736.583)" d="M 5581.28,10663.7 L 5633.25,10753.8 L 5616.95,10765.5 L 5562.94,10672 L 5581.28,10663.7 Z " />
<path stroke="transparent" fill="#000000" transform="matrix(0.0833333 0 0 0.0833333 -2.16667 -736.583)" d="M 5527.2,10688 L 5585.17,10788.4 L 5568.87,10800.2 L 5508.87,10696.3 L 5527.2,10688 Z " />
<path stroke="transparent" fill="#000000" transform="matrix(0.0833333 0 0 0.0833333 -2.16667 -736.583)" d="M 6001.64,10481 L 6021.64,10469.5 L 6531.25,10763.7 L 6531.25,10775.3 L 6521.25,10781 L 6001.64,10481 Z " />
<path stroke="transparent" fill="#000000" transform="matrix(0.0833333 0 0 0.0833333 -2.16667 -736.583)" d="M 6001.64,9878.35 L 6011.64,9875.28 L 6021.64,9881.05 L 6021.64,10469.5 L 6001.64,10481 L 6001.64,9878.35 Z " />
<path stroke="transparent" fill="#000000" transform="matrix(0.0833333 0 0 0.0833333 -2.16667 -736.583)" d="M 6021.64,9881.05 L 6011.64,9875.28 L 6016.02,9861.2 L 6531.25,9563.73 L 6531.25,9586.82 L 6021.64,9881.05 Z " />
<path stroke="transparent" fill="#000000" transform="matrix(0.0833333 0 0 0.0833333 -2.16667 -736.583)" d="M 5659.68,9385.66 L 5763.6,9325.66 L 6016.02,9861.2 L 6011.64,9875.28 L 6001.64,9878.35 L 5659.68,9385.66 Z " />
<path stroke="transparent" fill="#000000" transform="matrix(0.0833333 0 0 0.0833333 -2.16667 -736.583)" d="M 5520.21,9935.28 L 5520.21,9815.28 L 5540.21,9817.56 L 5540.21,9932.99 L 5520.21,9935.28 Z " />
<path stroke="transparent" fill="#000000" transform="matrix(0.0833333 0 0 0.0833333 -2.16667 -736.583)" d="M 5579.83,9928.46 L 5579.83,9822.09 L 5599.83,9824.38 L 5599.83,9926.17 L 5579.83,9928.46 Z " />
<path stroke="transparent" fill="#000000" transform="matrix(0.0833333 0 0 0.0833333 -2.16667 -736.583)" d="M 5639.46,9921.64 L 5639.46,9828.91 L 5659.46,9831.19 L 5659.46,9919.36 L 5639.46,9921.64 Z " />
<path stroke="transparent" fill="#000000" transform="matrix(0.0833333 0 0 0.0833333 -2.16667 -736.583)" d="M 5699.09,9914.83 L 5699.09,9835.72 L 5719.09,9838.01 L 5719.09,9912.54 L 5699.09,9914.83 Z " />
<path stroke="transparent" fill="#000000" transform="matrix(0.0833333 0 0 0.0833333 -2.16667 -736.583)" d="M 5758.71,9908.01 L 5758.71,9842.54 L 5778.71,9844.83 L 5778.71,9905.72 L 5758.71,9908.01 Z " />
<path stroke="transparent" fill="#000000" transform="matrix(0.0833333 0 0 0.0833333 -2.16667 -736.583)" d="M 5818.34,9901.19 L 5818.34,9849.36 L 5838.34,9851.64 L 5838.34,9898.91 L 5818.34,9901.19 Z " />
<path stroke="transparent" fill="#000000" transform="matrix(0.0833333 0 0 0.0833333 -2.16667 -736.583)" d="M 5877.97,9894.38 L 5877.97,9856.17 L 5897.97,9858.46 L 5897.97,9892.09 L 5877.97,9894.38 Z " />
<path stroke="transparent" fill="#000000" transform="matrix(0.0833333 0 0 0.0833333 -2.16667 -736.583)" d="M 5937.59,9887.56 L 5937.59,9862.99 L 5957.59,9865.28 L 5957.59,9885.28 L 5937.59,9887.56 Z " />
<path stroke="transparent" fill="#000000" transform="matrix(0.0833333 0 0 0.0833333 -2.16667 -736.583)" d="M 5552.02,11975.3 L 5432.02,11975.3 L 5433.86,11955.3 L 5550.19,11955.3 L 5552.02,11975.3 Z " />
<path stroke="transparent" fill="#000000" transform="matrix(0.0833333 0 0 0.0833333 -2.16667 -736.583)" d="M 5546.67,11916.8 L 5437.38,11916.8 L 5439.21,11896.8 L 5544.84,11896.8 L 5546.67,11916.8 Z " />
<path stroke="transparent" fill="#000000" transform="matrix(0.0833333 0 0 0.0833333 -2.16667 -736.583)" d="M 5541.32,11858.4 L 5442.73,11858.4 L 5444.56,11838.4 L 5539.49,11838.4 L 5541.32,11858.4 Z " />
<path stroke="transparent" fill="#000000" transform="matrix(0.0833333 0 0 0.0833333 -2.16667 -736.583)" d="M 5535.97,11799.9 L 5448.08,11799.9 L 5449.91,11779.9 L 5534.14,11779.9 L 5535.97,11799.9 Z " />
<path stroke="transparent" fill="#000000" transform="matrix(0.0833333 0 0 0.0833333 -2.16667 -736.583)" d="M 5530.62,11741.5 L 5453.43,11741.5 L 5455.26,11721.5 L 5528.78,11721.5 L 5530.62,11741.5 Z " />
<path stroke="transparent" fill="#000000" transform="matrix(0.0833333 0 0 0.0833333 -2.16667 -736.583)" d="M 5525.26,11683.1 L 5458.78,11683.1 L 5460.62,11663.1 L 5523.43,11663.1 L 5525.26,11683.1 Z " />
<path stroke="transparent" fill="#000000" transform="matrix(0.0833333 0 0 0.0833333 -2.16667 -736.583)" d="M 5519.91,11624.6 L 5464.14,11624.6 L 5465.97,11604.6 L 5518.08,11604.6 L 5519.91,11624.6 Z " />
<path stroke="transparent" fill="#000000" transform="matrix(0.0833333 0 0 0.0833333 -2.16667 -736.583)" d="M 5514.56,11566.2 L 5469.49,11566.2 L 5471.32,11546.2 L 5512.73,11546.2 L 5514.56,11566.2 Z " />
<path stroke="transparent" fill="#000000" transform="matrix(0.0833333 0 0 0.0833333 -2.16667 -736.583)" d="M 5509.21,11507.7 L 5474.84,11507.7 L 5476.67,11487.7 L 5507.38,11487.7 L 5509.21,11507.7 Z " />
<path stroke="transparent" fill="#000000" transform="matrix(0.0833333 0 0 0.0833333 -2.16667 -736.583)" d="M 5503.86,11449.3 L 5480.19,11449.3 L 5482.02,11429.3 L 5502.02,11429.3 L 5503.86,11449.3 Z " />
<path stroke="transparent" fill="#000000" transform="matrix(0.0833333 0 0 0.0833333 -2.16667 -736.583)" d="M 7102.89,11033.7 L 7002.71,11114.6 L 6541.25,10794.3 L 6531.25,10775.3 L 6552.77,10774.4 L 7102.89,11033.7 Z " />
<path stroke="transparent" fill="#000000" transform="matrix(0.0833333 0 0 0.0833333 -2.16667 -736.583)" d="M 7096.87,11570.1 L 7076.87,11570.1 L 7076.87,11054.5 L 7096.87,11054.5 L 7096.87,11570.1 Z " />
<path stroke="transparent" fill="#000000" transform="matrix(0.0833333 0 0 0.0833333 -2.16667 -736.583)" d="M 7024.87,11570.1 L 7004.87,11570.1 L 7004.87,11054.5 L 7024.87,11054.5 L 7024.87,11570.1 Z " />
<path stroke="transparent" fill="#000000" transform="matrix(0.0833333 0 0 0.0833333 -2.16667 -736.583)" d="M 7465.88,10824.1 L 7475.88,10841.4 L 7002.71,11114.6 L 7102.89,11033.7 L 7465.88,10824.1 Z " />
<path stroke="transparent" fill="#000000" transform="matrix(0.0833333 0 0 0.0833333 -2.16667 -736.583)" d="M 8048.29,11039.6 L 8038.29,11056.9 L 8019.81,11048.9 L 8032.13,11027.6 L 8048.29,11039.6 Z " />
<path stroke="transparent" fill="#000000" transform="matrix(0.0833333 0 0 0.0833333 -2.16667 -736.583)" d="M 8000.92,11004.4 L 7984.1,11033.5 L 7965.62,11025.5 L 7984.76,10992.4 L 8000.92,11004.4 Z " />
<path stroke="transparent" fill="#000000" transform="matrix(0.0833333 0 0 0.0833333 -2.16667 -736.583)" d="M 7953.54,10969.2 L 7929.92,11010.1 L 7911.44,11002.1 L 7937.38,10957.1 L 7953.54,10969.2 Z " />
<path stroke="transparent" fill="#000000" transform="matrix(0.0833333 0 0 0.0833333 -2.16667 -736.583)" d="M 7906.17,10933.9 L 7875.74,10986.7 L 7857.26,10978.7 L 7890.01,10921.9 L 7906.17,10933.9 Z " />
<path stroke="transparent" fill="#000000" transform="matrix(0.0833333 0 0 0.0833333 -2.16667 -736.583)" d="M 7858.8,10898.7 L 7821.55,10963.2 L 7803.07,10955.2 L 7842.64,10886.7 L 7858.8,10898.7 Z " />
<path stroke="transparent" fill="#000000" transform="matrix(0.0833333 0 0 0.0833333 -2.16667 -736.583)" d="M 7811.43,10863.5 L 7767.37,10939.8 L 7748.89,10931.8 L 7795.27,10851.5 L 7811.43,10863.5 Z " />
<path stroke="transparent" fill="#000000" transform="matrix(0.0833333 0 0 0.0833333 -2.16667 -736.583)" d="M 7764.05,10828.3 L 7713.19,10916.4 L 7694.71,10908.4 L 7747.89,10816.3 L 7764.05,10828.3 Z " />
<path stroke="transparent" fill="#000000" transform="matrix(0.0833333 0 0 0.0833333 -2.16667 -736.583)" d="M 7716.68,10793.1 L 7659,10893 L 7640.52,10885 L 7700.52,10781.1 L 7716.68,10793.1 Z " />
<path stroke="transparent" fill="#000000" transform="matrix(0.0833333 0 0 0.0833333 -2.16667 -736.583)" d="M 8100.1,11669.5 L 8090.1,11675.3 L 8080.1,11668.9 L 8080.1,11069.5 L 8100.1,11081 L 8100.1,11669.5 Z " />
<path stroke="transparent" fill="#000000" transform="matrix(0.0833333 0 0 0.0833333 -2.16667 -736.583)" d="M 8609.72,11963.7 L 8609.72,11986.8 L 8090.65,11687.1 L 8090.1,11675.3 L 8100.1,11669.5 L 8609.72,11963.7 Z " />
<path stroke="transparent" fill="#000000" transform="matrix(0.0833333 0 0 0.0833333 -2.16667 -736.583)" d="M 9119.33,11669.5 L 9129.33,11675.3 L 9128.78,11687.1 L 8609.72,11986.8 L 8609.72,11963.7 L 9119.33,11669.5 Z " />
<path stroke="transparent" fill="#000000" transform="matrix(0.0833333 0 0 0.0833333 -2.16667 -736.583)" d="M 9119.33,11081 L 9139.33,11069.5 L 9139.33,11668.9 L 9129.33,11675.3 L 9119.33,11669.5 L 9119.33,11081 Z " />
<path stroke="transparent" fill="#000000" transform="matrix(0.0833333 0 0 0.0833333 -2.16667 -736.583)" d="M 8704.75,10841.7 L 8714.75,10824.4 L 9139.33,11069.5 L 9119.33,11081 L 8704.75,10841.7 Z " />
<path stroke="transparent" fill="#000000" transform="matrix(0.0833333 0 0 0.0833333 -2.16667 -736.583)" d="M 8505.11,10824.1 L 8515.11,10841.4 L 8100.1,11081 L 8080.1,11069.5 L 8505.11,10824.1 Z " />
<path stroke="transparent" fill="#000000" transform="matrix(0.0833333 0 0 0.0833333 -2.16667 -736.583)" d="M 9572.1,10750.4 L 9632.1,10854.3 L 9613.77,10862.5 L 9555.8,10762.1 L 9572.1,10750.4 Z " />
<path stroke="transparent" fill="#000000" transform="matrix(0.0833333 0 0 0.0833333 -2.16667 -736.583)" d="M 9524.02,10785 L 9578.03,10878.6 L 9559.69,10886.8 L 9507.72,10796.8 L 9524.02,10785 Z " />
<path stroke="transparent" fill="#000000" transform="matrix(0.0833333 0 0 0.0833333 -2.16667 -736.583)" d="M 9475.95,10819.7 L 9523.96,10902.9 L 9505.62,10911.1 L 9459.64,10831.5 L 9475.95,10819.7 Z " />
<path stroke="transparent" fill="#000000" transform="matrix(0.0833333 0 0 0.0833333 -2.16667 -736.583)" d="M 9427.87,10854.4 L 9469.88,10927.2 L 9451.54,10935.4 L 9411.56,10866.2 L 9427.87,10854.4 Z " />
<path stroke="transparent" fill="#000000" transform="matrix(0.0833333 0 0 0.0833333 -2.16667 -736.583)" d="M 9379.79,10889.1 L 9415.81,10951.5 L 9397.47,10959.7 L 9363.49,10900.8 L 9379.79,10889.1 Z " />
<path stroke="transparent" fill="#000000" transform="matrix(0.0833333 0 0 0.0833333 -2.16667 -736.583)" d="M 9331.71,10923.8 L 9361.73,10975.8 L 9343.4,10984 L 9315.41,10935.5 L 9331.71,10923.8 Z " />
<path stroke="transparent" fill="#000000" transform="matrix(0.0833333 0 0 0.0833333 -2.16667 -736.583)" d="M 9283.63,10958.4 L 9307.66,11000.1 L 9289.32,11008.3 L 9267.33,10970.2 L 9283.63,10958.4 Z " />
<path stroke="transparent" fill="#000000" transform="matrix(0.0833333 0 0 0.0833333 -2.16667 -736.583)" d="M 9235.56,10993.1 L 9253.59,11024.4 L 9235.25,11032.6 L 9219.25,11004.9 L 9235.56,10993.1 Z " />
<path stroke="transparent" fill="#000000" transform="matrix(0.0833333 0 0 0.0833333 -2.16667 -736.583)" d="M 9187.48,11027.8 L 9199.51,11048.7 L 9181.17,11056.9 L 9171.17,11039.6 L 9187.48,11027.8 Z " />
<path stroke="transparent" fill="#000000" transform="matrix(0.0833333 0 0 0.0833333 -2.16667 -736.583)" d="M 10080.9,11013.1 L 10070.9,11030.5 L 9643.95,10783.9 L 9653.95,10766.6 L 10080.9,11013.1 Z " />
<path stroke="transparent" fill="#000000" transform="matrix(0.0833333 0 0 0.0833333 -2.16667 -736.583)" d="M 9586.33,11869.8 L 9526.33,11973.8 L 9128.78,11687.1 L 9129.33,11675.3 L 9139.33,11668.9 L 9586.33,11869.8 Z " />
<path stroke="transparent" fill="#000000" transform="matrix(0.0833333 0 0 0.0833333 -2.16667 -736.583)" d="M 8669.72,12470.1 L 8549.72,12470.1 L 8551.98,12450.1 L 8667.45,12450.1 L 8669.72,12470.1 Z " />
<path stroke="transparent" fill="#000000" transform="matrix(0.0833333 0 0 0.0833333 -2.16667 -736.583)" d="M 8662.9,12410 L 8556.53,12410 L 8558.8,12390 L 8660.63,12390 L 8662.9,12410 Z " />
<path stroke="transparent" fill="#000000" transform="matrix(0.0833333 0 0 0.0833333 -2.16667 -736.583)" d="M 8656.08,12349.9 L 8563.35,12349.9 L 8565.62,12329.9 L 8653.81,12329.9 L 8656.08,12349.9 Z " />
<path stroke="transparent" fill="#000000" transform="matrix(0.0833333 0 0 0.0833333 -2.16667 -736.583)" d="M 8649.26,12289.8 L 8570.17,12289.8 L 8572.44,12269.8 L 8646.99,12269.8 L 8649.26,12289.8 Z " />
<path stroke="transparent" fill="#000000" transform="matrix(0.0833333 0 0 0.0833333 -2.16667 -736.583)" d="M 8642.44,12229.7 L 8576.99,12229.7 L 8579.26,12209.7 L 8640.17,12209.7 L 8642.44,12229.7 Z " />
<path stroke="transparent" fill="#000000" transform="matrix(0.0833333 0 0 0.0833333 -2.16667 -736.583)" d="M 8635.62,12169.6 L 8583.81,12169.6 L 8586.08,12149.6 L 8633.35,12149.6 L 8635.62,12169.6 Z " />
<path stroke="transparent" fill="#000000" transform="matrix(0.0833333 0 0 0.0833333 -2.16667 -736.583)" d="M 8628.8,12109.5 L 8590.63,12109.5 L 8592.9,12089.5 L 8626.53,12089.5 L 8628.8,12109.5 Z " />
<path stroke="transparent" fill="#000000" transform="matrix(0.0833333 0 0 0.0833333 -2.16667 -736.583)" d="M 8621.98,12049.4 L 8597.45,12049.4 L 8599.72,12029.4 L 8619.72,12029.4 L 8621.98,12049.4 Z " />
<path stroke="transparent" fill="#000000" transform="matrix(0.0833333 0 0 0.0833333 -2.16667 -736.583)" d="M 7693.1,11973.8 L 7633.1,11869.8 L 8080.1,11668.9 L 8090.1,11675.3 L 8090.65,11687.1 L 7693.1,11973.8 Z " />
</svg>
