<?xml version="1.0" standalone="no" ?>
<!DOCTYPE svg PUBLIC "-//W3C//DTD SVG 1.1//EN" "http://www.w3.org/Graphics/SVG/1.1/DTD/svg11.dtd">
<svg width="503px" height="215px" viewBox="0 0 503 215" style="background-color: #ffffff00" xmlns="http://www.w3.org/2000/svg" xmlns:xlink="http://www.w3.org/1999/xlink" version="1.1" >
<text x="0" y="0" stroke="transparent" fill="#000000" transform="matrix(0.0833333 0 0 0.0833333 189.419 60.5079)" style="font:normal normal normal 200px 'Arial'" >
O</text>
<text x="0" y="0" stroke="transparent" fill="#000000" transform="matrix(0.0833333 0 0 0.0833333 4.17248 60.51)" style="font:normal normal normal 200px 'Arial'" >
HO</text>
<text x="0" y="0" stroke="transparent" fill="#000000" transform="matrix(0.0833333 0 0 0.0833333 102.814 210.511)" style="font:normal normal normal 200px 'Arial'" >
OH</text>
<text x="0" y="0" stroke="transparent" fill="#000000" transform="matrix(0.0833333 0 0 0.0833333 189.418 210.512)" style="font:normal normal normal 200px 'Arial'" >
O</text>
<path stroke="transparent" fill="#000000" transform="matrix(0.0833333 0 0 0.0833333 -269.25 -188)" d="M 6673.28,4062.58 L 6573.09,4143.51 L 6101.17,3815.96 L 6101.63,3804.15 L 6111.63,3797.85 L 6673.28,4062.58 Z " />
<path stroke="transparent" fill="#000000" transform="matrix(0.0833333 0 0 0.0833333 -269.25 -188)" d="M 6091.65,3209.87 L 6111.65,3198.33 L 6111.63,3797.85 L 6101.63,3804.15 L 6091.63,3798.38 L 6091.65,3209.87 Z " />
<path stroke="transparent" fill="#000000" transform="matrix(0.0833333 0 0 0.0833333 -269.25 -188)" d="M 5677.06,2970.51 L 5687.06,2953.19 L 6111.65,3198.33 L 6091.65,3209.87 L 5677.06,2970.51 Z " />
<path stroke="transparent" fill="#000000" transform="matrix(0.0833333 0 0 0.0833333 -269.25 -188)" d="M 5072.38,3209.91 L 5062.38,3204.14 L 5062.38,3192.59 L 5477.42,2952.94 L 5487.42,2970.26 L 5072.38,3209.91 Z " />
<path stroke="transparent" fill="#000000" transform="matrix(0.0833333 0 0 0.0833333 -269.25 -188)" d="M 4542.75,2915.68 L 4542.75,2904.13 L 4552.75,2898.36 L 5062.38,3192.59 L 5062.38,3204.14 L 5052.38,3209.91 L 4542.75,2915.68 Z " />
<path stroke="transparent" fill="#000000" transform="matrix(0.0833333 0 0 0.0833333 -269.25 -188)" d="M 4537.75,2995.93 L 4547.75,2978.61 L 4995.37,3237.05 L 4985.37,3254.37 L 4537.75,2995.93 Z " />
<path stroke="transparent" fill="#000000" transform="matrix(0.0833333 0 0 0.0833333 -269.25 -188)" d="M 4532.77,2304.08 L 4552.77,2304.08 L 4552.75,2898.36 L 4542.75,2904.13 L 4532.75,2898.36 L 4532.77,2304.08 Z " />
<path stroke="transparent" fill="#000000" transform="matrix(0.0833333 0 0 0.0833333 -269.25 -188)" d="M 4033.13,3209.9 L 4023.13,3204.13 L 4023.13,3192.58 L 4532.75,2898.36 L 4542.75,2904.13 L 4542.75,2915.68 L 4033.13,3209.9 Z " />
<path stroke="transparent" fill="#000000" transform="matrix(0.0833333 0 0 0.0833333 -269.25 -188)" d="M 3598.53,2970.53 L 3608.53,2953.21 L 4023.13,3192.58 L 4023.13,3204.13 L 4013.13,3209.9 L 3598.53,2970.53 Z " />
<path stroke="transparent" fill="#000000" transform="matrix(0.0833333 0 0 0.0833333 -269.25 -188)" d="M 4033.14,3798.35 L 4023.14,3804.13 L 4013.14,3798.35 L 4013.13,3209.9 L 4023.13,3204.13 L 4033.13,3209.9 L 4033.14,3798.35 Z " />
<path stroke="transparent" fill="#000000" transform="matrix(0.0833333 0 0 0.0833333 -269.25 -188)" d="M 4105.14,3762.56 L 4085.14,3762.56 L 4085.13,3245.7 L 4105.13,3245.7 L 4105.14,3762.56 Z " />
<path stroke="transparent" fill="#000000" transform="matrix(0.0833333 0 0 0.0833333 -269.25 -188)" d="M 3508.52,4112.78 L 3498.52,4095.46 L 4013.14,3798.35 L 4023.14,3804.13 L 4023.14,3815.67 L 3508.52,4112.78 Z " />
<path stroke="transparent" fill="#000000" transform="matrix(0.0833333 0 0 0.0833333 -269.25 -188)" d="M 4542.76,4092.59 L 4542.76,4104.13 L 4532.76,4109.91 L 4023.14,3815.67 L 4023.14,3804.13 L 4033.14,3798.35 L 4542.76,4092.59 Z " />
<path stroke="transparent" fill="#000000" transform="matrix(0.0833333 0 0 0.0833333 -269.25 -188)" d="M 4552.77,4598.97 L 4532.77,4598.97 L 4532.76,4109.91 L 4542.76,4104.13 L 4552.76,4109.91 L 4552.77,4598.97 Z " />
<path stroke="transparent" fill="#000000" transform="matrix(0.0833333 0 0 0.0833333 -269.25 -188)" d="M 5052.38,3798.37 L 5062.38,3804.14 L 5062.38,3815.69 L 4552.76,4109.91 L 4542.76,4104.13 L 4542.76,4092.59 L 5052.38,3798.37 Z " />
<path stroke="transparent" fill="#000000" transform="matrix(0.0833333 0 0 0.0833333 -269.25 -188)" d="M 4985.38,3753.91 L 4995.38,3771.23 L 4547.76,4029.66 L 4537.76,4012.34 L 4985.38,3753.91 Z " />
<path stroke="transparent" fill="#000000" transform="matrix(0.0833333 0 0 0.0833333 -269.25 -188)" d="M 5072.38,3798.37 L 5062.38,3804.14 L 5052.38,3798.37 L 5052.38,3209.91 L 5062.38,3204.14 L 5072.38,3209.91 L 5072.38,3798.37 Z " />
<path stroke="transparent" fill="#000000" transform="matrix(0.0833333 0 0 0.0833333 -269.25 -188)" d="M 5582.01,4092.6 L 5582.01,4115.69 L 5062.38,3815.69 L 5062.38,3804.14 L 5072.38,3798.37 L 5582.01,4092.6 Z " />
<path stroke="transparent" fill="#000000" transform="matrix(0.0833333 0 0 0.0833333 -269.25 -188)" d="M 5582.01,4115.69 L 5582.01,4092.6 L 6091.63,3798.38 L 6101.63,3804.15 L 6101.17,3815.96 L 5582.01,4115.69 Z " />
<path stroke="transparent" fill="#000000" transform="matrix(0.0833333 0 0 0.0833333 -269.25 -188)" d="M 5628.02,4598.98 L 5608.02,4598.98 L 5608.01,4083.36 L 5628.01,4083.36 L 5628.02,4598.98 Z " />
<path stroke="transparent" fill="#000000" transform="matrix(0.0833333 0 0 0.0833333 -269.25 -188)" d="M 5556.02,4598.98 L 5536.02,4598.98 L 5536.01,4083.36 L 5556.01,4083.36 L 5556.02,4598.98 Z " />
<path stroke="transparent" fill="#000000" transform="matrix(0.0833333 0 0 0.0833333 -269.25 -188)" d="M 7130.87,3798.38 L 7140.87,3804.16 L 7140.87,3815.7 L 6573.09,4143.51 L 6673.28,4062.58 L 7130.87,3798.38 Z " />
<path stroke="transparent" fill="#000000" transform="matrix(0.0833333 0 0 0.0833333 -269.25 -188)" d="M 7660.49,4092.6 L 7660.49,4115.7 L 7140.87,3815.7 L 7140.87,3804.16 L 7150.87,3798.38 L 7660.49,4092.6 Z " />
<path stroke="transparent" fill="#000000" transform="matrix(0.0833333 0 0 0.0833333 -269.25 -188)" d="M 7665.49,4012.35 L 7655.49,4029.67 L 7207.87,3771.25 L 7217.87,3753.93 L 7665.49,4012.35 Z " />
<path stroke="transparent" fill="#000000" transform="matrix(0.0833333 0 0 0.0833333 -269.25 -188)" d="M 8170.1,3798.38 L 8190.1,3809.93 L 7660.49,4115.7 L 7660.49,4092.6 L 8170.1,3798.38 Z " />
<path stroke="transparent" fill="#000000" transform="matrix(0.0833333 0 0 0.0833333 -269.25 -188)" d="M 8170.1,3209.93 L 8180.1,3204.16 L 8190.1,3209.93 L 8190.1,3809.93 L 8170.1,3798.38 L 8170.1,3209.93 Z " />
<path stroke="transparent" fill="#000000" transform="matrix(0.0833333 0 0 0.0833333 -269.25 -188)" d="M 8098.1,3245.73 L 8118.1,3245.73 L 8118.1,3762.59 L 8098.1,3762.59 L 8098.1,3245.73 Z " />
<path stroke="transparent" fill="#000000" transform="matrix(0.0833333 0 0 0.0833333 -269.25 -188)" d="M 7660.49,2915.71 L 7660.49,2892.62 L 8180.1,3192.61 L 8180.1,3204.16 L 8170.1,3209.93 L 7660.49,2915.71 Z " />
<path stroke="transparent" fill="#000000" transform="matrix(0.0833333 0 0 0.0833333 -269.25 -188)" d="M 7150.87,3209.93 L 7130.87,3198.38 L 7660.49,2892.62 L 7660.49,2915.71 L 7150.87,3209.93 Z " />
<path stroke="transparent" fill="#000000" transform="matrix(0.0833333 0 0 0.0833333 -269.25 -188)" d="M 7217.87,3254.39 L 7207.87,3237.07 L 7655.49,2978.64 L 7665.49,2995.96 L 7217.87,3254.39 Z " />
<path stroke="transparent" fill="#000000" transform="matrix(0.0833333 0 0 0.0833333 -269.25 -188)" d="M 7150.87,3798.38 L 7140.87,3804.16 L 7130.87,3798.38 L 7130.87,3198.38 L 7150.87,3209.93 L 7150.87,3798.38 Z " />
<text x="0" y="0" stroke="transparent" fill="#000000" transform="matrix(0.0833333 0 0 0.0833333 449.226 60.5129)" style="font:normal normal normal 200px 'Arial'" >
O</text>
<path stroke="transparent" fill="#000000" transform="matrix(0.0833333 0 0 0.0833333 -269.25 -188)" d="M 8595.11,2953 L 8605.11,2970.32 L 8190.1,3209.93 L 8180.1,3204.16 L 8180.1,3192.61 L 8595.11,2953 Z " />
<path stroke="transparent" fill="#000000" transform="matrix(0.0833333 0 0 0.0833333 -269.25 -188)" d="M 9224.33,3195.49 L 9214.33,3212.81 L 8794.75,2970.57 L 8804.75,2953.25 L 9224.33,3195.49 Z " />
</svg>
