<?xml version="1.0" standalone="no" ?>
<!DOCTYPE svg PUBLIC "-//W3C//DTD SVG 1.1//EN" "http://www.w3.org/Graphics/SVG/1.1/DTD/svg11.dtd">
<svg width="781px" height="522px" viewBox="0 0 781 522" style="background-color: #ffffff00" xmlns="http://www.w3.org/2000/svg" xmlns:xlink="http://www.w3.org/1999/xlink" version="1.1" >
<text x="0" y="0" stroke="transparent" fill="#000000" transform="matrix(0.0833333 0 0 0.0833333 232.696 168.132)" style="font:normal normal normal 200px 'Arial'" >
O</text>
<text x="0" y="0" stroke="transparent" fill="#000000" transform="matrix(0.0833333 0 0 0.0833333 319.298 168.132)" style="font:normal normal normal 200px 'Arial'" >
O</text>
<text x="0" y="0" stroke="transparent" fill="#000000" transform="matrix(0.0833333 0 0 0.0833333 405.901 218.132)" style="font:normal normal normal 200px 'Arial'" >
O</text>
<text x="0" y="0" stroke="transparent" fill="#000000" transform="matrix(0.0833333 0 0 0.0833333 492.503 218.132)" style="font:normal normal normal 200px 'Arial'" >
O</text>
<text x="0" y="0" stroke="transparent" fill="#000000" transform="matrix(0.0833333 0 0 0.0833333 752.311 318.132)" style="font:normal normal normal 200px 'Arial'" >
OH</text>
<text x="0" y="0" stroke="transparent" fill="#000000" transform="matrix(0.0833333 0 0 0.0833333 752.311 218.132)" style="font:normal normal normal 200px 'Arial'" >
OH</text>
<text x="0" y="0" stroke="transparent" fill="#000000" transform="matrix(0.0833333 0 0 0.0833333 492.503 318.132)" style="font:normal normal normal 200px 'Arial'" >
OH</text>
<text x="0" y="0" stroke="transparent" fill="#000000" transform="matrix(0.0833333 0 0 0.0833333 405.901 368.132)" style="font:normal normal normal 200px 'Arial'" >
O</text>
<text x="0" y="0" stroke="transparent" fill="#000000" transform="matrix(0.0833333 0 0 0.0833333 319.298 368.132)" style="font:normal normal normal 200px 'Arial'" >
O</text>
<text x="0" y="0" stroke="transparent" fill="#000000" transform="matrix(0.0833333 0 0 0.0833333 220.659 468.132)" style="font:normal normal normal 200px 'Arial'" >
HO</text>
<text x="0" y="0" stroke="transparent" fill="#000000" transform="matrix(0.0833333 0 0 0.0833333 319.298 518.132)" style="font:normal normal normal 200px 'Arial'" >
OH</text>
<text x="0" y="0" stroke="transparent" fill="#000000" transform="matrix(0.0833333 0 0 0.0833333 405.901 468.132)" style="font:normal normal normal 200px 'Arial'" >
OH</text>
<text x="0" y="0" stroke="transparent" fill="#000000" transform="matrix(0.0833333 0 0 0.0833333 319.298 318.132)" style="font:normal normal normal 200px 'Arial'" >
O</text>
<text x="0" y="0" stroke="transparent" fill="#000000" transform="matrix(0.0833333 0 0 0.0833333 275.997 243.132)" style="font:normal normal normal 200px 'Arial'" >
O</text>
<text x="0" y="0" stroke="transparent" fill="#000000" transform="matrix(0.0833333 0 0 0.0833333 4.15307 393.132)" style="font:normal normal normal 200px 'Arial'" >
HO</text>
<text x="0" y="0" stroke="transparent" fill="#000000" transform="matrix(0.0833333 0 0 0.0833333 4.15307 293.132)" style="font:normal normal normal 200px 'Arial'" >
HO</text>
<text x="0" y="0" stroke="transparent" fill="#000000" transform="matrix(0.0833333 0 0 0.0833333 319.298 68.1319)" style="font:normal normal normal 200px 'Arial'" >
OH</text>
<text x="0" y="0" stroke="transparent" fill="#000000" transform="matrix(0.0833333 0 0 0.0833333 232.696 18.1319)" style="font:normal normal normal 200px 'Arial'" >
OH</text>
<text x="0" y="0" stroke="transparent" fill="#000000" transform="matrix(0.0833333 0 0 0.0833333 134.057 68.1319)" style="font:normal normal normal 200px 'Arial'" >
HO</text>
<path stroke="transparent" fill="#000000" transform="matrix(0.0833333 0 0 0.0833333 -26.25 -680.833)" d="M 2655.73,9803.81 L 2665.73,9809.58 L 2665.73,9821.13 L 2151.12,10118.2 L 2141.12,10100.9 L 2655.73,9803.81 Z " />
<path stroke="transparent" fill="#000000" transform="matrix(0.0833333 0 0 0.0833333 -26.25 -680.833)" d="M 2655.73,9215.36 L 2665.73,9209.58 L 2675.73,9215.36 L 2675.73,9803.81 L 2665.73,9809.58 L 2655.73,9803.81 L 2655.73,9215.36 Z " />
<path stroke="transparent" fill="#000000" transform="matrix(0.0833333 0 0 0.0833333 -26.25 -680.833)" d="M 3175.35,8903.81 L 3185.35,8909.58 L 3185.35,8921.13 L 2675.73,9215.36 L 2665.73,9209.58 L 2665.73,9198.04 L 3175.35,8903.81 Z " />
<path stroke="transparent" fill="#000000" transform="matrix(0.0833333 0 0 0.0833333 -26.25 -680.833)" d="M 3704.96,9198.04 L 3704.96,9209.58 L 3694.96,9215.36 L 3185.35,8921.13 L 3185.35,8909.58 L 3195.35,8903.81 L 3704.96,9198.04 Z " />
<path stroke="transparent" fill="#000000" transform="matrix(0.0833333 0 0 0.0833333 -26.25 -680.833)" d="M 3714.96,9803.81 L 3704.96,9809.58 L 3694.96,9803.81 L 3694.96,9215.36 L 3704.96,9209.58 L 3714.96,9215.36 L 3714.96,9803.81 Z " />
<path stroke="transparent" fill="#000000" transform="matrix(0.0833333 0 0 0.0833333 -26.25 -680.833)" d="M 3282.97,10064.8 L 3272.97,10047.4 L 3694.96,9803.81 L 3704.96,9809.58 L 3704.96,9821.13 L 3282.97,10064.8 Z " />
<path stroke="transparent" fill="#000000" transform="matrix(0.0833333 0 0 0.0833333 -26.25 -680.833)" d="M 3097.73,10047.4 L 3087.73,10064.8 L 2665.73,9821.13 L 2665.73,9809.58 L 2675.73,9803.81 L 3097.73,10047.4 Z " />
<path stroke="transparent" fill="#000000" transform="matrix(0.0833333 0 0 0.0833333 -26.25 -680.833)" d="M 4136.96,10047.4 L 4126.96,10064.8 L 3704.96,9821.13 L 3704.96,9809.58 L 3714.96,9803.81 L 4136.96,10047.4 Z " />
<path stroke="transparent" fill="#000000" transform="matrix(0.0833333 0 0 0.0833333 -26.25 -680.833)" d="M 4234.58,10703.8 L 4214.58,10715.4 L 4214.58,10229.4 L 4234.58,10229.4 L 4234.58,10703.8 Z " />
<path stroke="transparent" fill="#000000" transform="matrix(0.0833333 0 0 0.0833333 -26.25 -680.833)" d="M 4744.19,10998 L 4744.19,11009.6 L 4734.19,11015.4 L 4214.58,10715.4 L 4234.58,10703.8 L 4744.19,10998 Z " />
<path stroke="transparent" fill="#000000" transform="matrix(0.0833333 0 0 0.0833333 -26.25 -680.833)" d="M 4754.19,11603.8 L 4744.19,11609.6 L 4734.19,11603.8 L 4734.19,11015.4 L 4744.19,11009.6 L 4754.19,11015.4 L 4754.19,11603.8 Z " />
<path stroke="transparent" fill="#000000" transform="matrix(0.0833333 0 0 0.0833333 -26.25 -680.833)" d="M 5263.81,11898 L 5263.81,11909.6 L 5253.81,11915.4 L 4744.19,11621.1 L 4744.19,11609.6 L 4754.19,11603.8 L 5263.81,11898 Z " />
<path stroke="transparent" fill="#000000" transform="matrix(0.0833333 0 0 0.0833333 -26.25 -680.833)" d="M 5773.42,11603.8 L 5783.42,11609.6 L 5783.42,11621.1 L 5273.81,11915.4 L 5263.81,11909.6 L 5263.81,11898 L 5773.42,11603.8 Z " />
<path stroke="transparent" fill="#000000" transform="matrix(0.0833333 0 0 0.0833333 -26.25 -680.833)" d="M 5773.42,11015.4 L 5783.42,11009.6 L 5793.42,11015.4 L 5793.42,11603.8 L 5783.42,11609.6 L 5773.42,11603.8 L 5773.42,11015.4 Z " />
<path stroke="transparent" fill="#000000" transform="matrix(0.0833333 0 0 0.0833333 -26.25 -680.833)" d="M 5358.84,10776 L 5368.84,10758.7 L 5783.42,10998 L 5783.42,11009.6 L 5773.42,11015.4 L 5358.84,10776 Z " />
<path stroke="transparent" fill="#000000" transform="matrix(0.0833333 0 0 0.0833333 -26.25 -680.833)" d="M 5159.2,10758.4 L 5169.2,10775.7 L 4754.19,11015.4 L 4744.19,11009.6 L 4744.19,10998 L 5159.2,10758.4 Z " />
<path stroke="transparent" fill="#000000" transform="matrix(0.0833333 0 0 0.0833333 -26.25 -680.833)" d="M 6198.43,10758.4 L 6208.43,10775.7 L 5793.42,11015.4 L 5783.42,11009.6 L 5783.42,10998 L 6198.43,10758.4 Z " />
<path stroke="transparent" fill="#000000" transform="matrix(0.0833333 0 0 0.0833333 -26.25 -680.833)" d="M 6822.65,10998 L 6822.65,11021.1 L 6398.07,10776 L 6408.07,10758.7 L 6822.65,10998 Z " />
<path stroke="transparent" fill="#000000" transform="matrix(0.0833333 0 0 0.0833333 -26.25 -680.833)" d="M 7342.27,10698 L 7342.27,10721.1 L 6822.65,11021.1 L 6822.65,10998 L 7342.27,10698 Z " />
<path stroke="transparent" fill="#000000" transform="matrix(0.0833333 0 0 0.0833333 -26.25 -680.833)" d="M 7861.88,10998 L 7861.88,11009.6 L 7851.88,11015.4 L 7342.27,10721.1 L 7342.27,10698 L 7861.88,10998 Z " />
<path stroke="transparent" fill="#000000" transform="matrix(0.0833333 0 0 0.0833333 -26.25 -680.833)" d="M 8381.5,10698 L 8381.5,10721.1 L 7871.88,11015.4 L 7861.88,11009.6 L 7861.88,10998 L 8381.5,10698 Z " />
<path stroke="transparent" fill="#000000" transform="matrix(0.0833333 0 0 0.0833333 -26.25 -680.833)" d="M 8376.5,10784.1 L 8386.5,10801.4 L 7938.88,11059.8 L 7928.88,11042.5 L 8376.5,10784.1 Z " />
<path stroke="transparent" fill="#000000" transform="matrix(0.0833333 0 0 0.0833333 -26.25 -680.833)" d="M 8901.11,10998 L 8901.11,11009.6 L 8891.11,11015.4 L 8381.5,10721.1 L 8381.5,10698 L 8901.11,10998 Z " />
<path stroke="transparent" fill="#000000" transform="matrix(0.0833333 0 0 0.0833333 -26.25 -680.833)" d="M 8911.11,11603.8 L 8901.11,11609.6 L 8891.11,11603.8 L 8891.11,11015.4 L 8901.11,11009.6 L 8911.11,11015.4 L 8911.11,11603.8 Z " />
<path stroke="transparent" fill="#000000" transform="matrix(0.0833333 0 0 0.0833333 -26.25 -680.833)" d="M 8839.11,11568 L 8819.11,11568 L 8819.11,11051.2 L 8839.11,11051.2 L 8839.11,11568 Z " />
<path stroke="transparent" fill="#000000" transform="matrix(0.0833333 0 0 0.0833333 -26.25 -680.833)" d="M 8381.5,11921.1 L 8381.5,11898 L 8891.11,11603.8 L 8901.11,11609.6 L 8901.11,11621.1 L 8381.5,11921.1 Z " />
<path stroke="transparent" fill="#000000" transform="matrix(0.0833333 0 0 0.0833333 -26.25 -680.833)" d="M 7851.88,11615.4 L 7871.88,11603.8 L 8381.5,11898 L 8381.5,11921.1 L 7851.88,11615.4 Z " />
<path stroke="transparent" fill="#000000" transform="matrix(0.0833333 0 0 0.0833333 -26.25 -680.833)" d="M 7928.88,11576.7 L 7938.88,11559.4 L 8386.5,11817.8 L 8376.5,11835.1 L 7928.88,11576.7 Z " />
<path stroke="transparent" fill="#000000" transform="matrix(0.0833333 0 0 0.0833333 -26.25 -680.833)" d="M 7871.88,11603.8 L 7851.88,11615.4 L 7851.88,11015.4 L 7861.88,11009.6 L 7871.88,11015.4 L 7871.88,11603.8 Z " />
<path stroke="transparent" fill="#000000" transform="matrix(0.0833333 0 0 0.0833333 -26.25 -680.833)" d="M 9333.11,11847.4 L 9323.11,11864.8 L 8901.11,11621.1 L 8901.11,11609.6 L 8911.11,11603.8 L 9333.11,11847.4 Z " />
<path stroke="transparent" fill="#000000" transform="matrix(0.0833333 0 0 0.0833333 -26.25 -680.833)" d="M 9316.13,10758.4 L 9326.13,10775.7 L 8911.11,11015.4 L 8901.11,11009.6 L 8901.11,10998 L 9316.13,10758.4 Z " />
<path stroke="transparent" fill="#000000" transform="matrix(0.0833333 0 0 0.0833333 -26.25 -680.833)" d="M 6215.42,11847.4 L 6205.42,11864.8 L 5783.42,11621.1 L 5783.42,11609.6 L 5793.42,11603.8 L 6215.42,11847.4 Z " />
<path stroke="transparent" fill="#000000" transform="matrix(0.0833333 0 0 0.0833333 -26.25 -680.833)" d="M 5273.81,12404.4 L 5253.81,12404.4 L 5253.81,11915.4 L 5263.81,11909.6 L 5273.81,11915.4 L 5273.81,12404.4 Z " />
<path stroke="transparent" fill="#000000" transform="matrix(0.0833333 0 0 0.0833333 -26.25 -680.833)" d="M 4754.19,12815.4 L 4744.19,12809.6 L 4744.19,12798 L 5159.2,12558.4 L 5169.2,12575.7 L 4754.19,12815.4 Z " />
<path stroke="transparent" fill="#000000" transform="matrix(0.0833333 0 0 0.0833333 -26.25 -680.833)" d="M 4754.19,13403.8 L 4744.19,13409.6 L 4734.19,13403.8 L 4734.19,12815.4 L 4744.19,12809.6 L 4754.19,12815.4 L 4754.19,13403.8 Z " />
<path stroke="transparent" fill="#000000" transform="matrix(0.0833333 0 0 0.0833333 -26.25 -680.833)" d="M 4234.58,13715.4 L 4224.58,13709.6 L 4224.58,13698 L 4734.19,13403.8 L 4744.19,13409.6 L 4744.19,13421.1 L 4234.58,13715.4 Z " />
<path stroke="transparent" fill="#000000" transform="matrix(0.0833333 0 0 0.0833333 -26.25 -680.833)" d="M 3704.96,13421.1 L 3704.96,13409.6 L 3714.96,13403.8 L 4224.58,13698 L 4224.58,13709.6 L 4214.58,13715.4 L 3704.96,13421.1 Z " />
<path stroke="transparent" fill="#000000" transform="matrix(0.0833333 0 0 0.0833333 -26.25 -680.833)" d="M 3694.96,12815.4 L 3704.96,12809.6 L 3714.96,12815.4 L 3714.96,13403.8 L 3704.96,13409.6 L 3694.96,13403.8 L 3694.96,12815.4 Z " />
<path stroke="transparent" fill="#000000" transform="matrix(0.0833333 0 0 0.0833333 -26.25 -680.833)" d="M 4119.97,12558.4 L 4129.97,12575.7 L 3714.96,12815.4 L 3704.96,12809.6 L 3704.96,12798 L 4119.97,12558.4 Z " />
<path stroke="transparent" fill="#000000" transform="matrix(0.0833333 0 0 0.0833333 -26.25 -680.833)" d="M 4319.61,12576 L 4329.61,12558.7 L 4744.19,12798 L 4744.19,12809.6 L 4734.19,12815.4 L 4319.61,12576 Z " />
<path stroke="transparent" fill="#000000" transform="matrix(0.0833333 0 0 0.0833333 -26.25 -680.833)" d="M 3180.35,12518.2 L 3190.35,12500.9 L 3704.96,12798 L 3704.96,12809.6 L 3694.96,12815.4 L 3180.35,12518.2 Z " />
<path stroke="transparent" fill="#000000" transform="matrix(0.0833333 0 0 0.0833333 -26.25 -680.833)" d="M 3282.96,13664.8 L 3272.96,13647.5 L 3694.96,13403.8 L 3704.96,13409.6 L 3704.96,13421.1 L 3282.96,13664.8 Z " />
<path stroke="transparent" fill="#000000" transform="matrix(0.0833333 0 0 0.0833333 -26.25 -680.833)" d="M 4234.58,14204.4 L 4214.58,14204.4 L 4214.58,13715.4 L 4224.58,13709.6 L 4234.58,13715.4 L 4234.58,14204.4 Z " />
<path stroke="transparent" fill="#000000" transform="matrix(0.0833333 0 0 0.0833333 -26.25 -680.833)" d="M 5176.19,13647.4 L 5166.19,13664.8 L 4744.19,13421.1 L 4744.19,13409.6 L 4754.19,13403.8 L 5176.19,13647.4 Z " />
<path stroke="transparent" fill="#000000" transform="matrix(0.0833333 0 0 0.0833333 -26.25 -680.833)" d="M 4322.2,11864.8 L 4312.2,11847.4 L 4734.19,11603.8 L 4744.19,11609.6 L 4744.19,11621.1 L 4322.2,11864.8 Z " />
<path stroke="transparent" fill="#000000" transform="matrix(0.0833333 0 0 0.0833333 -26.25 -680.833)" d="M 3704.96,11621.1 L 3704.96,11598 L 4136.96,11847.4 L 4126.96,11864.8 L 3704.96,11621.1 Z " />
<path stroke="transparent" fill="#000000" transform="matrix(0.0833333 0 0 0.0833333 -26.25 -680.833)" d="M 3658.96,11129.4 L 3678.96,11129.4 L 3678.96,11630.4 L 3658.96,11630.4 L 3658.96,11129.4 Z " />
<path stroke="transparent" fill="#000000" transform="matrix(0.0833333 0 0 0.0833333 -26.25 -680.833)" d="M 3730.96,11129.4 L 3750.96,11129.4 L 3750.96,11630.4 L 3730.96,11630.4 L 3730.96,11129.4 Z " />
<path stroke="transparent" fill="#000000" transform="matrix(0.0833333 0 0 0.0833333 -26.25 -680.833)" d="M 3185.35,11921.1 L 3185.35,11898 L 3704.96,11598 L 3704.96,11621.1 L 3185.35,11921.1 Z " />
<path stroke="transparent" fill="#000000" transform="matrix(0.0833333 0 0 0.0833333 -26.25 -680.833)" d="M 2665.73,11621.1 L 2665.73,11598 L 3185.35,11898 L 3185.35,11921.1 L 2665.73,11621.1 Z " />
<path stroke="transparent" fill="#000000" transform="matrix(0.0833333 0 0 0.0833333 -26.25 -680.833)" d="M 2660.73,11701.4 L 2670.73,11684.1 L 3154.35,11963.3 L 3144.35,11980.6 L 2660.73,11701.4 Z " />
<path stroke="transparent" fill="#000000" transform="matrix(0.0833333 0 0 0.0833333 -26.25 -680.833)" d="M 2156.12,11915.4 L 2146.12,11909.6 L 2146.12,11898 L 2665.73,11598 L 2665.73,11621.1 L 2156.12,11915.4 Z " />
<path stroke="transparent" fill="#000000" transform="matrix(0.0833333 0 0 0.0833333 -26.25 -680.833)" d="M 1626.5,11621.1 L 1626.5,11598 L 2146.12,11898 L 2146.12,11909.6 L 2136.12,11915.4 L 1626.5,11621.1 Z " />
<path stroke="transparent" fill="#000000" transform="matrix(0.0833333 0 0 0.0833333 -26.25 -680.833)" d="M 1621.5,11701.4 L 1631.5,11684.1 L 2079.12,11942.5 L 2069.12,11959.8 L 1621.5,11701.4 Z " />
<path stroke="transparent" fill="#000000" transform="matrix(0.0833333 0 0 0.0833333 -26.25 -680.833)" d="M 1116.89,11915.4 L 1106.89,11909.6 L 1106.89,11898 L 1626.5,11598 L 1626.5,11621.1 L 1116.89,11915.4 Z " />
<path stroke="transparent" fill="#000000" transform="matrix(0.0833333 0 0 0.0833333 -26.25 -680.833)" d="M 1116.89,12503.8 L 1106.89,12509.6 L 1096.89,12503.8 L 1096.89,11915.4 L 1106.89,11909.6 L 1116.89,11915.4 L 1116.89,12503.8 Z " />
<path stroke="transparent" fill="#000000" transform="matrix(0.0833333 0 0 0.0833333 -26.25 -680.833)" d="M 1188.89,12468 L 1168.89,12468 L 1168.89,11951.2 L 1188.89,11951.2 L 1188.89,12468 Z " />
<path stroke="transparent" fill="#000000" transform="matrix(0.0833333 0 0 0.0833333 -26.25 -680.833)" d="M 1626.5,12798 L 1626.5,12821.1 L 1106.89,12521.1 L 1106.89,12509.6 L 1116.89,12503.8 L 1626.5,12798 Z " />
<path stroke="transparent" fill="#000000" transform="matrix(0.0833333 0 0 0.0833333 -26.25 -680.833)" d="M 2136.12,12503.8 L 2156.12,12515.4 L 1626.5,12821.1 L 1626.5,12798 L 2136.12,12503.8 Z " />
<path stroke="transparent" fill="#000000" transform="matrix(0.0833333 0 0 0.0833333 -26.25 -680.833)" d="M 2069.12,12459.4 L 2079.12,12476.7 L 1631.5,12735.1 L 1621.5,12717.8 L 2069.12,12459.4 Z " />
<path stroke="transparent" fill="#000000" transform="matrix(0.0833333 0 0 0.0833333 -26.25 -680.833)" d="M 2156.12,12515.4 L 2136.12,12503.8 L 2136.12,11915.4 L 2146.12,11909.6 L 2156.12,11915.4 L 2156.12,12515.4 Z " />
<path stroke="transparent" fill="#000000" transform="matrix(0.0833333 0 0 0.0833333 -26.25 -680.833)" d="M 684.881,12764.8 L 674.881,12747.5 L 1096.89,12503.8 L 1106.89,12509.6 L 1106.89,12521.1 L 684.881,12764.8 Z " />
<path stroke="transparent" fill="#000000" transform="matrix(0.0833333 0 0 0.0833333 -26.25 -680.833)" d="M 682.299,11676 L 692.299,11658.7 L 1106.89,11898 L 1106.89,11909.6 L 1096.89,11915.4 L 682.299,11676 Z " />
<path stroke="transparent" fill="#000000" transform="matrix(0.0833333 0 0 0.0833333 -26.25 -680.833)" d="M 4119.97,8958.43 L 4129.97,8975.75 L 3714.96,9215.36 L 3704.96,9209.58 L 3704.96,9198.04 L 4119.97,8958.43 Z " />
<path stroke="transparent" fill="#000000" transform="matrix(0.0833333 0 0 0.0833333 -26.25 -680.833)" d="M 3175.35,8429.42 L 3195.35,8429.42 L 3195.35,8903.81 L 3185.35,8909.58 L 3175.35,8903.81 L 3175.35,8429.42 Z " />
<path stroke="transparent" fill="#000000" transform="matrix(0.0833333 0 0 0.0833333 -26.25 -680.833)" d="M 2241.14,8975.99 L 2251.14,8958.67 L 2665.73,9198.04 L 2665.73,9209.58 L 2655.73,9215.36 L 2241.14,8975.99 Z " />
</svg>
