<?xml version="1.0" standalone="no" ?>
<!DOCTYPE svg PUBLIC "-//W3C//DTD SVG 1.1//EN" "http://www.w3.org/Graphics/SVG/1.1/DTD/svg11.dtd">
<svg width="1357px" height="498px" viewBox="0 0 1357 498" style="background-color: #ffffff00" xmlns="http://www.w3.org/2000/svg" xmlns:xlink="http://www.w3.org/1999/xlink" version="1.1" >
<text x="0" y="0" stroke="transparent" fill="#000000" transform="matrix(0.0833333 0 0 0.0833333 491.586 392.756)" style="font:normal normal normal 200px 'Arial'" >
OH</text>
<text x="0" y="0" stroke="transparent" fill="#000000" transform="matrix(0.0833333 0 0 0.0833333 621.362 267.447)" style="font:normal normal normal 200px 'Arial'" >
O</text>
<text x="0" y="0" stroke="transparent" fill="#000000" transform="matrix(0.0833333 0 0 0.0833333 577.931 342.38)" style="font:normal normal normal 200px 'Arial'" >
O</text>
<text x="0" y="0" stroke="transparent" fill="#000000" transform="matrix(0.0833333 0 0 0.0833333 176.95 317.944)" style="font:normal normal normal 200px 'Arial'" >
HO</text>
<text x="0" y="0" stroke="transparent" fill="#000000" transform="matrix(0.0833333 0 0 0.0833333 664.659 342.38)" style="font:normal normal normal 200px 'Arial'" >
O</text>
<text x="0" y="0" stroke="transparent" fill="#000000" transform="matrix(0.0833333 0 0 0.0833333 220.247 493.617)" style="font:normal normal normal 200px 'Arial'" >
HO</text>
<text x="0" y="0" stroke="transparent" fill="#000000" transform="matrix(0.0833333 0 0 0.0833333 318.883 493.617)" style="font:normal normal normal 200px 'Arial'" >
O</text>
<text x="0" y="0" stroke="transparent" fill="#000000" transform="matrix(0.0833333 0 0 0.0833333 188.986 418.435)" style="font:normal normal normal 200px 'Arial'" >
O</text>
<text x="0" y="0" stroke="transparent" fill="#000000" transform="matrix(0.0833333 0 0 0.0833333 707.798 167.847)" style="font:normal normal normal 200px 'Arial'" >
O</text>
<text x="0" y="0" stroke="transparent" fill="#000000" transform="matrix(0.0833333 0 0 0.0833333 794.55 267.447)" style="font:normal normal normal 200px 'Arial'" >
OH</text>
<text x="0" y="0" stroke="transparent" fill="#000000" transform="matrix(0.0833333 0 0 0.0833333 145.683 343.368)" style="font:normal normal normal 200px 'Arial'" >
O</text>
<text x="0" y="0" stroke="transparent" fill="#000000" transform="matrix(0.0833333 0 0 0.0833333 751.174 92.7198)" style="font:normal normal normal 200px 'Arial'" >
O</text>
<text x="0" y="0" stroke="transparent" fill="#000000" transform="matrix(0.0833333 0 0 0.0833333 794.55 367.447)" style="font:normal normal normal 200px 'Arial'" >
OH</text>
<text x="0" y="0" stroke="transparent" fill="#000000" transform="matrix(0.0833333 0 0 0.0833333 751.174 442.38)" style="font:normal normal normal 200px 'Arial'" >
OH</text>
<text x="0" y="0" stroke="transparent" fill="#000000" transform="matrix(0.0833333 0 0 0.0833333 102.507 468.435)" style="font:normal normal normal 200px 'Arial'" >
OH</text>
<text x="0" y="0" stroke="transparent" fill="#000000" transform="matrix(0.0833333 0 0 0.0833333 794.422 217.847)" style="font:normal normal normal 200px 'Arial'" >
OH</text>
<text x="0" y="0" stroke="transparent" fill="#000000" transform="matrix(0.0833333 0 0 0.0833333 3.75 418.435)" style="font:normal normal normal 200px 'Arial'" >
HO</text>
<text x="0" y="0" stroke="transparent" fill="#000000" transform="matrix(0.0833333 0 0 0.0833333 881.047 167.847)" style="font:normal normal normal 200px 'Arial'" >
OH</text>
<text x="0" y="0" stroke="transparent" fill="#000000" transform="matrix(0.0833333 0 0 0.0833333 47.1742 243.344)" style="font:normal normal normal 200px 'Arial'" >
HO</text>
<text x="0" y="0" stroke="transparent" fill="#000000" transform="matrix(0.0833333 0 0 0.0833333 3.75 318.435)" style="font:normal normal normal 200px 'Arial'" >
HO</text>
<text x="0" y="0" stroke="transparent" fill="#000000" transform="matrix(0.0833333 0 0 0.0833333 881.047 67.8471)" style="font:normal normal normal 200px 'Arial'" >
O</text>
<text x="0" y="0" stroke="transparent" fill="#000000" transform="matrix(0.0833333 0 0 0.0833333 924.295 142.72)" style="font:normal normal normal 200px 'Arial'" >
O</text>
<text x="0" y="0" stroke="transparent" fill="#000000" transform="matrix(0.0833333 0 0 0.0833333 967.671 17.8472)" style="font:normal normal normal 200px 'Arial'" >
OH</text>
<text x="0" y="0" stroke="transparent" fill="#000000" transform="matrix(0.0833333 0 0 0.0833333 1054.42 67.8471)" style="font:normal normal normal 200px 'Arial'" >
OH</text>
<text x="0" y="0" stroke="transparent" fill="#000000" transform="matrix(0.0833333 0 0 0.0833333 1054.42 167.847)" style="font:normal normal normal 200px 'Arial'" >
O</text>
<text x="0" y="0" stroke="transparent" fill="#000000" transform="matrix(0.0833333 0 0 0.0833333 1023.55 268.435)" style="font:normal normal normal 200px 'Arial'" >
O</text>
<text x="0" y="0" stroke="transparent" fill="#000000" transform="matrix(0.0833333 0 0 0.0833333 1141.92 216.344)" style="font:normal normal normal 200px 'Arial'" >
OH</text>
<text x="0" y="0" stroke="transparent" fill="#000000" transform="matrix(0.0833333 0 0 0.0833333 1150.8 290.144)" style="font:normal normal normal 200px 'Arial'" >
OH</text>
<text x="0" y="0" stroke="transparent" fill="#000000" transform="matrix(0.0833333 0 0 0.0833333 1154.8 369.308)" style="font:normal normal normal 200px 'Arial'" >
O</text>
<text x="0" y="0" stroke="transparent" fill="#000000" transform="matrix(0.0833333 0 0 0.0833333 1197.92 294.247)" style="font:normal normal normal 200px 'Arial'" >
O</text>
<text x="0" y="0" stroke="transparent" fill="#000000" transform="matrix(0.0833333 0 0 0.0833333 1241.17 419.308)" style="font:normal normal normal 200px 'Arial'" >
OH</text>
<text x="0" y="0" stroke="transparent" fill="#000000" transform="matrix(0.0833333 0 0 0.0833333 1328.29 368.435)" style="font:normal normal normal 200px 'Arial'" >
OH</text>
<text x="0" y="0" stroke="transparent" fill="#000000" transform="matrix(0.0833333 0 0 0.0833333 1284.55 194.217)" style="font:normal normal normal 200px 'Arial'" >
OH</text>
<text x="0" y="0" stroke="transparent" fill="#000000" transform="matrix(0.0833333 0 0 0.0833333 1327.8 269.308)" style="font:normal normal normal 200px 'Arial'" >
OH</text>
<text x="0" y="0" stroke="transparent" fill="#000000" transform="matrix(0.0833333 0 0 0.0833333 362.431 367.817)" style="font:normal normal normal 200px 'Arial'" >
H</text>
<text x="0" y="0" stroke="transparent" fill="#000000" transform="matrix(0.0833333 0 0 0.0833333 491.959 292.259)" style="font:normal normal normal 200px 'Arial'" >
H</text>
<text x="0" y="0" stroke="transparent" fill="#000000" transform="matrix(0.0833333 0 0 0.0833333 319.262 443.368)" style="font:normal normal normal 200px 'Arial'" >
H</text>
<text x="0" y="0" stroke="transparent" fill="#000000" transform="matrix(0.0833333 0 0 0.0833333 708.298 117.847)" style="font:normal normal normal 200px 'Arial'" >
H</text>
<text x="0" y="0" stroke="transparent" fill="#000000" transform="matrix(0.0833333 0 0 0.0833333 924.795 42.7198)" style="font:normal normal normal 200px 'Arial'" >
H</text>
<text x="0" y="0" stroke="transparent" fill="#000000" transform="matrix(0.0833333 0 0 0.0833333 1086.92 190.471)" style="font:normal normal normal 200px 'Arial'" >
H</text>
<text x="0" y="0" stroke="transparent" fill="#000000" transform="matrix(0.0833333 0 0 0.0833333 146.183 443.368)" style="font:normal normal normal 200px 'Arial'" >
H</text>
<path stroke="transparent" fill="#000000" transform="matrix(0.0833333 0 0 0.0833333 -21.25 -129.733)" d="M 6144.35,6129.84 L 6134.37,6147.17 L 5707.41,5901.27 L 5717.39,5883.94 L 6144.35,6129.84 Z " />
<path stroke="transparent" fill="#000000" transform="matrix(0.0833333 0 0 0.0833333 -21.25 -129.733)" d="M 5772.4,5838.6 L 5652.4,5838.6 L 5654.43,5818.6 L 5770.36,5818.6 L 5772.4,5838.6 Z " />
<path stroke="transparent" fill="#000000" transform="matrix(0.0833333 0 0 0.0833333 -21.25 -129.733)" d="M 5766.4,5779.6 L 5658.39,5779.6 L 5660.42,5759.6 L 5764.37,5759.6 L 5766.4,5779.6 Z " />
<path stroke="transparent" fill="#000000" transform="matrix(0.0833333 0 0 0.0833333 -21.25 -129.733)" d="M 5760.4,5720.6 L 5664.39,5720.6 L 5666.42,5700.6 L 5758.37,5700.6 L 5760.4,5720.6 Z " />
<path stroke="transparent" fill="#000000" transform="matrix(0.0833333 0 0 0.0833333 -21.25 -129.733)" d="M 5754.41,5661.6 L 5670.38,5661.6 L 5672.42,5641.6 L 5752.38,5641.6 L 5754.41,5661.6 Z " />
<path stroke="transparent" fill="#000000" transform="matrix(0.0833333 0 0 0.0833333 -21.25 -129.733)" d="M 5748.41,5602.6 L 5676.38,5602.6 L 5678.41,5582.6 L 5746.38,5582.6 L 5748.41,5602.6 Z " />
<path stroke="transparent" fill="#000000" transform="matrix(0.0833333 0 0 0.0833333 -21.25 -129.733)" d="M 5742.42,5543.6 L 5682.38,5543.6 L 5684.41,5523.6 L 5740.38,5523.6 L 5742.42,5543.6 Z " />
<path stroke="transparent" fill="#000000" transform="matrix(0.0833333 0 0 0.0833333 -21.25 -129.733)" d="M 5736.42,5484.6 L 5688.37,5484.6 L 5690.4,5464.6 L 5734.39,5464.6 L 5736.42,5484.6 Z " />
<path stroke="transparent" fill="#000000" transform="matrix(0.0833333 0 0 0.0833333 -21.25 -129.733)" d="M 5730.42,5425.6 L 5694.37,5425.6 L 5696.4,5405.6 L 5728.39,5405.6 L 5730.42,5425.6 Z " />
<path stroke="transparent" fill="#000000" transform="matrix(0.0833333 0 0 0.0833333 -21.25 -129.733)" d="M 5724.43,5366.6 L 5700.36,5366.6 L 5702.4,5346.6 L 5722.4,5346.6 L 5724.43,5366.6 Z " />
<path stroke="transparent" fill="#000000" transform="matrix(0.0833333 0 0 0.0833333 -21.25 -129.733)" d="M 5702.4,4693.9 L 5712.4,4688.16 L 5722.4,4693.9 L 5722.4,5286.86 L 5712.4,5292.6 L 5702.4,5286.86 L 5702.4,4693.9 Z " />
<path stroke="transparent" fill="#000000" transform="matrix(0.0833333 0 0 0.0833333 -21.25 -129.733)" d="M 5204.29,5600.6 L 5194.29,5594.86 L 5205.81,5576.56 L 5702.4,5286.86 L 5712.4,5292.6 L 5712.4,5304.18 L 5204.29,5600.6 Z " />
<path stroke="transparent" fill="#000000" transform="matrix(0.0833333 0 0 0.0833333 -21.25 -129.733)" d="M 6230.51,5583.28 L 6230.51,5606.43 L 5712.4,5304.18 L 5712.4,5292.6 L 5722.4,5286.86 L 6230.51,5583.28 Z " />
<path stroke="transparent" fill="#000000" transform="matrix(0.0833333 0 0 0.0833333 -21.25 -129.733)" d="M 6220.51,4379.66 L 6230.51,4385.4 L 6218.65,4403.91 L 5722.4,4693.9 L 5712.4,4688.16 L 5712.4,4676.58 L 6220.51,4379.66 Z " />
<path stroke="transparent" fill="#000000" transform="matrix(0.0833333 0 0 0.0833333 -21.25 -129.733)" d="M 5194.29,4396.98 L 5194.29,4373.82 L 5712.4,4676.58 L 5712.4,4688.16 L 5702.4,4693.9 L 5194.29,4396.98 Z " />
<path stroke="transparent" fill="#000000" transform="matrix(0.0833333 0 0 0.0833333 -21.25 -129.733)" d="M 5189.24,4477.44 L 5199.33,4460.17 L 5645.43,4720.85 L 5635.34,4738.12 L 5189.24,4477.44 Z " />
<path stroke="transparent" fill="#000000" transform="matrix(0.0833333 0 0 0.0833333 -21.25 -129.733)" d="M 5134.29,4994.86 L 5254.29,4994.86 L 5205.81,5576.56 L 5194.29,5594.86 L 5182.76,5576.56 L 5134.29,4994.86 Z " />
<path stroke="transparent" fill="#000000" transform="matrix(0.0833333 0 0 0.0833333 -21.25 -129.733)" d="M 4676.18,5304.18 L 4676.18,5292.6 L 4686.18,5286.86 L 5182.76,5576.56 L 5194.29,5594.86 L 5184.29,5600.6 L 4676.18,5304.18 Z " />
<path stroke="transparent" fill="#000000" transform="matrix(0.0833333 0 0 0.0833333 -21.25 -129.733)" d="M 5204.29,6204.96 L 5184.29,6193.48 L 5184.29,5600.6 L 5194.29,5594.86 L 5204.29,5600.6 L 5204.29,6204.96 Z " />
<path stroke="transparent" fill="#000000" transform="matrix(0.0833333 0 0 0.0833333 -21.25 -129.733)" d="M 6738.61,5286.86 L 6758.61,5298.34 L 6230.51,5606.43 L 6230.51,5583.28 L 6738.61,5286.86 Z " />
<path stroke="transparent" fill="#000000" transform="matrix(0.0833333 0 0 0.0833333 -21.25 -129.733)" d="M 6748.62,4676.59 L 6748.61,4688.16 L 6738.61,4693.9 L 6242.36,4403.91 L 6230.51,4385.4 L 6240.51,4379.66 L 6748.62,4676.59 Z " />
<path stroke="transparent" fill="#000000" transform="matrix(0.0833333 0 0 0.0833333 -21.25 -129.733)" d="M 6220.51,3775.23 L 6240.51,3786.7 L 6240.51,4379.66 L 6230.51,4385.4 L 6220.51,4379.66 L 6220.51,3775.23 Z " />
<path stroke="transparent" fill="#000000" transform="matrix(0.0833333 0 0 0.0833333 -21.25 -129.733)" d="M 6290.51,4883.24 L 6170.51,4883.24 L 6218.65,4403.91 L 6230.51,4385.4 L 6242.36,4403.91 L 6290.51,4883.24 Z " />
<path stroke="transparent" fill="#000000" transform="matrix(0.0833333 0 0 0.0833333 -21.25 -129.733)" d="M 4686.18,4693.9 L 4666.18,4682.43 L 5194.29,4373.82 L 5194.29,4396.98 L 4686.18,4693.9 Z " />
<path stroke="transparent" fill="#000000" transform="matrix(0.0833333 0 0 0.0833333 -21.25 -129.733)" d="M 4666.18,4682.43 L 4686.18,4693.9 L 4686.18,5286.86 L 4676.18,5292.6 L 4666.18,5286.86 L 4666.18,4682.43 Z " />
<path stroke="transparent" fill="#000000" transform="matrix(0.0833333 0 0 0.0833333 -21.25 -129.733)" d="M 4168.14,5600.6 L 4158.14,5594.86 L 4169.67,5576.55 L 4666.18,5286.86 L 4676.18,5292.6 L 4676.18,5304.18 L 4168.14,5600.6 Z " />
<path stroke="transparent" fill="#000000" transform="matrix(0.0833333 0 0 0.0833333 -21.25 -129.733)" d="M 4736.18,5789.93 L 4616.18,5789.93 L 4618.43,5769.93 L 4733.92,5769.93 L 4736.18,5789.93 Z " />
<path stroke="transparent" fill="#000000" transform="matrix(0.0833333 0 0 0.0833333 -21.25 -129.733)" d="M 4729.36,5729.46 L 4623,5729.46 L 4625.25,5709.46 L 4727.1,5709.46 L 4729.36,5729.46 Z " />
<path stroke="transparent" fill="#000000" transform="matrix(0.0833333 0 0 0.0833333 -21.25 -129.733)" d="M 4722.54,5668.99 L 4629.82,5668.99 L 4632.07,5648.99 L 4720.28,5648.99 L 4722.54,5668.99 Z " />
<path stroke="transparent" fill="#000000" transform="matrix(0.0833333 0 0 0.0833333 -21.25 -129.733)" d="M 4715.72,5608.52 L 4636.64,5608.52 L 4638.9,5588.52 L 4713.46,5588.52 L 4715.72,5608.52 Z " />
<path stroke="transparent" fill="#000000" transform="matrix(0.0833333 0 0 0.0833333 -21.25 -129.733)" d="M 4708.9,5548.05 L 4643.46,5548.05 L 4645.72,5528.05 L 4706.64,5528.05 L 4708.9,5548.05 Z " />
<path stroke="transparent" fill="#000000" transform="matrix(0.0833333 0 0 0.0833333 -21.25 -129.733)" d="M 4702.07,5487.58 L 4650.28,5487.58 L 4652.54,5467.58 L 4699.82,5467.58 L 4702.07,5487.58 Z " />
<path stroke="transparent" fill="#000000" transform="matrix(0.0833333 0 0 0.0833333 -21.25 -129.733)" d="M 4695.25,5427.11 L 4657.1,5427.11 L 4659.36,5407.11 L 4693,5407.11 L 4695.25,5427.11 Z " />
<path stroke="transparent" fill="#000000" transform="matrix(0.0833333 0 0 0.0833333 -21.25 -129.733)" d="M 4688.43,5366.64 L 4663.92,5366.64 L 4666.18,5346.64 L 4686.18,5346.64 L 4688.43,5366.64 Z " />
<path stroke="transparent" fill="#000000" transform="matrix(0.0833333 0 0 0.0833333 -21.25 -129.733)" d="M 4676.18,6513.05 L 4676.18,6489.9 L 5184.29,6193.48 L 5204.29,6204.96 L 4676.18,6513.05 Z " />
<path stroke="transparent" fill="#000000" transform="matrix(0.0833333 0 0 0.0833333 -21.25 -129.733)" d="M 6738.61,4693.9 L 6748.61,4688.16 L 6758.61,4707.21 L 6758.61,5298.34 L 6738.61,5286.86 L 6738.61,4693.9 Z " />
<path stroke="transparent" fill="#000000" transform="matrix(0.0833333 0 0 0.0833333 -21.25 -129.733)" d="M 7320.41,4945.85 L 7219.86,5026.63 L 6758.61,4707.21 L 6748.61,4688.16 L 6770.07,4687.24 L 7320.41,4945.85 Z " />
<path stroke="transparent" fill="#000000" transform="matrix(0.0833333 0 0 0.0833333 -21.25 -129.733)" d="M 7258.18,4379.65 L 7278.18,4391.15 L 6770.07,4687.24 L 6748.61,4688.16 L 6748.62,4676.59 L 7258.18,4379.65 Z " />
<path stroke="transparent" fill="#000000" transform="matrix(0.0833333 0 0 0.0833333 -21.25 -129.733)" d="M 6733.35,3475.25 L 6748.61,3477.91 L 6748.62,3489.49 L 6240.51,3786.7 L 6220.51,3775.23 L 6733.35,3475.25 Z " />
<path stroke="transparent" fill="#000000" transform="matrix(0.0833333 0 0 0.0833333 -21.25 -129.733)" d="M 4098.14,4994.86 L 4218.14,4994.86 L 4169.67,5576.55 L 4158.14,5594.86 L 4146.62,5576.56 L 4098.14,4994.86 Z " />
<path stroke="transparent" fill="#000000" transform="matrix(0.0833333 0 0 0.0833333 -21.25 -129.733)" d="M 4168.14,6193.48 L 4158.14,6199.22 L 4148.14,6193.48 L 4148.14,5600.6 L 4158.14,5594.86 L 4168.14,5600.6 L 4168.14,6193.48 Z " />
<path stroke="transparent" fill="#000000" transform="matrix(0.0833333 0 0 0.0833333 -21.25 -129.733)" d="M 3640.03,5304.17 L 3640.04,5281.03 L 4146.62,5576.56 L 4158.14,5594.86 L 4148.14,5600.6 L 3640.03,5304.17 Z " />
<path stroke="transparent" fill="#000000" transform="matrix(0.0833333 0 0 0.0833333 -21.25 -129.733)" d="M 4158.14,6210.8 L 4158.14,6199.22 L 4168.14,6193.48 L 4676.18,6489.9 L 4676.18,6513.05 L 4158.14,6210.8 Z " />
<path stroke="transparent" fill="#000000" transform="matrix(0.0833333 0 0 0.0833333 -21.25 -129.733)" d="M 7684.64,4736.74 L 7694.6,4754.09 L 7219.86,5026.63 L 7320.41,4945.85 L 7684.64,4736.74 Z " />
<path stroke="transparent" fill="#000000" transform="matrix(0.0833333 0 0 0.0833333 -21.25 -129.733)" d="M 7314.18,5482.2 L 7294.18,5482.2 L 7294.18,4966.7 L 7314.18,4966.7 L 7314.18,5482.2 Z " />
<path stroke="transparent" fill="#000000" transform="matrix(0.0833333 0 0 0.0833333 -21.25 -129.733)" d="M 7242.18,5482.2 L 7222.18,5482.2 L 7222.18,4966.63 L 7242.18,4966.63 L 7242.18,5482.2 Z " />
<path stroke="transparent" fill="#000000" transform="matrix(0.0833333 0 0 0.0833333 -21.25 -129.733)" d="M 7258.18,3786.71 L 7278.18,3775.22 L 7278.18,4391.15 L 7258.18,4379.65 L 7258.18,3786.71 Z " />
<path stroke="transparent" fill="#000000" transform="matrix(0.0833333 0 0 0.0833333 -21.25 -129.733)" d="M 7278.18,3775.22 L 7258.18,3786.71 L 6748.62,3489.49 L 6748.61,3477.91 L 6763.91,3475.26 L 7278.18,3775.22 Z " />
<path stroke="transparent" fill="#000000" transform="matrix(0.0833333 0 0 0.0833333 -21.25 -129.733)" d="M 7128.09,3010.97 L 7143.4,3023.84 L 6763.91,3475.26 L 6748.61,3477.91 L 6748.63,3462.35 L 7128.09,3010.97 Z " />
<path stroke="transparent" fill="#000000" transform="matrix(0.0833333 0 0 0.0833333 -21.25 -129.733)" d="M 6355.42,3023.82 L 6370.75,3010.98 L 6748.63,3462.35 L 6748.61,3477.91 L 6733.35,3475.25 L 6355.42,3023.82 Z " />
<path stroke="transparent" fill="#000000" transform="matrix(0.0833333 0 0 0.0833333 -21.25 -129.733)" d="M 3650.03,6507.22 L 3640.03,6501.47 L 3640.03,6489.9 L 4148.14,6193.48 L 4158.14,6199.22 L 4158.14,6210.8 L 3650.03,6507.22 Z " />
<path stroke="transparent" fill="#000000" transform="matrix(0.0833333 0 0 0.0833333 -21.25 -129.733)" d="M 4218.14,6696.55 L 4098.14,6696.55 L 4100.4,6676.55 L 4215.89,6676.55 L 4218.14,6696.55 Z " />
<path stroke="transparent" fill="#000000" transform="matrix(0.0833333 0 0 0.0833333 -21.25 -129.733)" d="M 4211.32,6636.08 L 4104.96,6636.08 L 4107.22,6616.08 L 4209.07,6616.08 L 4211.32,6636.08 Z " />
<path stroke="transparent" fill="#000000" transform="matrix(0.0833333 0 0 0.0833333 -21.25 -129.733)" d="M 4204.5,6575.61 L 4111.78,6575.61 L 4114.04,6555.61 L 4202.24,6555.61 L 4204.5,6575.61 Z " />
<path stroke="transparent" fill="#000000" transform="matrix(0.0833333 0 0 0.0833333 -21.25 -129.733)" d="M 4197.68,6515.14 L 4118.6,6515.14 L 4120.86,6495.14 L 4195.42,6495.14 L 4197.68,6515.14 Z " />
<path stroke="transparent" fill="#000000" transform="matrix(0.0833333 0 0 0.0833333 -21.25 -129.733)" d="M 4190.86,6454.67 L 4125.42,6454.67 L 4127.68,6434.67 L 4188.6,6434.67 L 4190.86,6454.67 Z " />
<path stroke="transparent" fill="#000000" transform="matrix(0.0833333 0 0 0.0833333 -21.25 -129.733)" d="M 4184.04,6394.2 L 4132.24,6394.2 L 4134.5,6374.2 L 4181.78,6374.2 L 4184.04,6394.2 Z " />
<path stroke="transparent" fill="#000000" transform="matrix(0.0833333 0 0 0.0833333 -21.25 -129.733)" d="M 4177.22,6333.73 L 4139.07,6333.73 L 4141.32,6313.73 L 4174.96,6313.73 L 4177.22,6333.73 Z " />
<path stroke="transparent" fill="#000000" transform="matrix(0.0833333 0 0 0.0833333 -21.25 -129.733)" d="M 4170.4,6273.26 L 4145.89,6273.26 L 4148.14,6253.26 L 4168.14,6253.26 L 4170.4,6273.26 Z " />
<path stroke="transparent" fill="#000000" transform="matrix(0.0833333 0 0 0.0833333 -21.25 -129.733)" d="M 3130.4,5600.61 L 3120.4,5594.86 L 3120.95,5582.97 L 3640.04,5281.03 L 3640.03,5304.17 L 3130.4,5600.61 Z " />
<path stroke="transparent" fill="#000000" transform="matrix(0.0833333 0 0 0.0833333 -21.25 -129.733)" d="M 7859.49,4797.8 L 7919.37,4693.81 L 8309.46,4975.49 L 8308.9,4987.36 L 8298.9,4993.8 L 7859.49,4797.8 Z " />
<path stroke="transparent" fill="#000000" transform="matrix(0.0833333 0 0 0.0833333 -21.25 -129.733)" d="M 3650.03,7107.24 L 3630.03,7095.71 L 3630.03,6520.57 L 3640.03,6501.47 L 3650.03,6507.22 L 3650.03,7107.24 Z " />
<path stroke="transparent" fill="#000000" transform="matrix(0.0833333 0 0 0.0833333 -21.25 -129.733)" d="M 3150.45,6854.13 L 3090.34,6750.27 L 3618.61,6500.58 L 3640.03,6501.47 L 3630.03,6520.57 L 3150.45,6854.13 Z " />
<path stroke="transparent" fill="#000000" transform="matrix(0.0833333 0 0 0.0833333 -21.25 -129.733)" d="M 3120.94,6211.1 L 3120.4,6199.22 L 3130.4,6193.47 L 3640.03,6489.9 L 3640.03,6501.47 L 3618.61,6500.58 L 3120.94,6211.1 Z " />
<path stroke="transparent" fill="#000000" transform="matrix(0.0833333 0 0 0.0833333 -21.25 -129.733)" d="M 3130.4,6193.47 L 3120.4,6199.22 L 3110.4,6192.82 L 3110.4,5601.27 L 3120.4,5594.86 L 3130.4,5600.61 L 3130.4,6193.47 Z " />
<path stroke="transparent" fill="#000000" transform="matrix(0.0833333 0 0 0.0833333 -21.25 -129.733)" d="M 2670.75,5403.92 L 2730.87,5300.07 L 3120.95,5582.97 L 3120.4,5594.86 L 3110.4,5601.27 L 2670.75,5403.92 Z " />
<path stroke="transparent" fill="#000000" transform="matrix(0.0833333 0 0 0.0833333 -21.25 -129.733)" d="M 8826.56,4676.63 L 8826.6,4699.7 L 8318.9,4993.14 L 8308.9,4987.36 L 8309.46,4975.49 L 8826.56,4676.63 Z " />
<path stroke="transparent" fill="#000000" transform="matrix(0.0833333 0 0 0.0833333 -21.25 -129.733)" d="M 8318.9,5482.2 L 8298.9,5482.2 L 8298.9,4993.8 L 8308.9,4987.36 L 8318.9,4993.14 L 8318.9,5482.2 Z " />
<path stroke="transparent" fill="#000000" transform="matrix(0.0833333 0 0 0.0833333 -21.25 -129.733)" d="M 3217.96,7357.29 L 3207.94,7339.98 L 3630.03,7095.71 L 3650.03,7107.24 L 3217.96,7357.29 Z " />
<path stroke="transparent" fill="#000000" transform="matrix(0.0833333 0 0 0.0833333 -21.25 -129.733)" d="M 4090.09,7308.8 L 4080.07,7326.11 L 3635.02,7068.51 L 3645.04,7051.2 L 4090.09,7308.8 Z " />
<path stroke="transparent" fill="#000000" transform="matrix(0.0833333 0 0 0.0833333 -21.25 -129.733)" d="M 4054,7371.14 L 4043.98,7388.45 L 3599.07,7130.94 L 3609.09,7113.63 L 4054,7371.14 Z " />
<path stroke="transparent" fill="#000000" transform="matrix(0.0833333 0 0 0.0833333 -21.25 -129.733)" d="M 2723.45,6498.36 L 2663.33,6394.51 L 3110.4,6192.82 L 3120.4,6199.22 L 3120.94,6211.1 L 2723.45,6498.36 Z " />
<path stroke="transparent" fill="#000000" transform="matrix(0.0833333 0 0 0.0833333 -21.25 -129.733)" d="M 8766.58,3612.8 L 8886.58,3612.8 L 8885.6,3632.8 L 8767.56,3632.8 L 8766.58,3612.8 Z " />
<path stroke="transparent" fill="#000000" transform="matrix(0.0833333 0 0 0.0833333 -21.25 -129.733)" d="M 8769.3,3668.43 L 8883.85,3668.43 L 8882.87,3688.43 L 8770.28,3688.43 L 8769.3,3668.43 Z " />
<path stroke="transparent" fill="#000000" transform="matrix(0.0833333 0 0 0.0833333 -21.25 -129.733)" d="M 8772.02,3724.06 L 8881.13,3724.06 L 8880.15,3744.06 L 8773,3744.06 L 8772.02,3724.06 Z " />
<path stroke="transparent" fill="#000000" transform="matrix(0.0833333 0 0 0.0833333 -21.25 -129.733)" d="M 8774.75,3779.69 L 8878.41,3779.69 L 8877.43,3799.69 L 8775.73,3799.69 L 8774.75,3779.69 Z " />
<path stroke="transparent" fill="#000000" transform="matrix(0.0833333 0 0 0.0833333 -21.25 -129.733)" d="M 8777.47,3835.32 L 8875.68,3835.32 L 8874.7,3855.32 L 8778.45,3855.32 L 8777.47,3835.32 Z " />
<path stroke="transparent" fill="#000000" transform="matrix(0.0833333 0 0 0.0833333 -21.25 -129.733)" d="M 8780.19,3890.95 L 8872.96,3890.95 L 8871.98,3910.95 L 8781.17,3910.95 L 8780.19,3890.95 Z " />
<path stroke="transparent" fill="#000000" transform="matrix(0.0833333 0 0 0.0833333 -21.25 -129.733)" d="M 8782.92,3946.58 L 8870.24,3946.58 L 8869.26,3966.58 L 8783.9,3966.58 L 8782.92,3946.58 Z " />
<path stroke="transparent" fill="#000000" transform="matrix(0.0833333 0 0 0.0833333 -21.25 -129.733)" d="M 8785.64,4002.21 L 8867.51,4002.21 L 8866.53,4022.21 L 8786.62,4022.21 L 8785.64,4002.21 Z " />
<path stroke="transparent" fill="#000000" transform="matrix(0.0833333 0 0 0.0833333 -21.25 -129.733)" d="M 8788.36,4057.84 L 8864.79,4057.84 L 8863.81,4077.84 L 8789.34,4077.84 L 8788.36,4057.84 Z " />
<path stroke="transparent" fill="#000000" transform="matrix(0.0833333 0 0 0.0833333 -21.25 -129.733)" d="M 8791.09,4113.47 L 8862.07,4113.47 L 8861.09,4133.47 L 8792.07,4133.47 L 8791.09,4113.47 Z " />
<path stroke="transparent" fill="#000000" transform="matrix(0.0833333 0 0 0.0833333 -21.25 -129.733)" d="M 8793.81,4169.1 L 8859.34,4169.1 L 8858.36,4189.1 L 8794.79,4189.1 L 8793.81,4169.1 Z " />
<path stroke="transparent" fill="#000000" transform="matrix(0.0833333 0 0 0.0833333 -21.25 -129.733)" d="M 8796.53,4224.73 L 8856.62,4224.73 L 8855.64,4244.73 L 8797.51,4244.73 L 8796.53,4224.73 Z " />
<path stroke="transparent" fill="#000000" transform="matrix(0.0833333 0 0 0.0833333 -21.25 -129.733)" d="M 8799.26,4280.36 L 8853.9,4280.36 L 8852.92,4300.36 L 8800.24,4300.36 L 8799.26,4280.36 Z " />
<path stroke="transparent" fill="#000000" transform="matrix(0.0833333 0 0 0.0833333 -21.25 -129.733)" d="M 8801.98,4335.99 L 8851.17,4335.99 L 8850.19,4355.99 L 8802.96,4355.99 L 8801.98,4335.99 Z " />
<path stroke="transparent" fill="#000000" transform="matrix(0.0833333 0 0 0.0833333 -21.25 -129.733)" d="M 8804.7,4391.62 L 8848.45,4391.62 L 8847.47,4411.62 L 8805.68,4411.62 L 8804.7,4391.62 Z " />
<path stroke="transparent" fill="#000000" transform="matrix(0.0833333 0 0 0.0833333 -21.25 -129.733)" d="M 8807.43,4447.26 L 8845.73,4447.26 L 8844.75,4467.26 L 8808.41,4467.26 L 8807.43,4447.26 Z " />
<path stroke="transparent" fill="#000000" transform="matrix(0.0833333 0 0 0.0833333 -21.25 -129.733)" d="M 8810.15,4502.89 L 8843,4502.89 L 8842.02,4522.89 L 8811.13,4522.89 L 8810.15,4502.89 Z " />
<path stroke="transparent" fill="#000000" transform="matrix(0.0833333 0 0 0.0833333 -21.25 -129.733)" d="M 8812.87,4558.52 L 8840.28,4558.52 L 8839.3,4578.52 L 8813.85,4578.52 L 8812.87,4558.52 Z " />
<path stroke="transparent" fill="#000000" transform="matrix(0.0833333 0 0 0.0833333 -21.25 -129.733)" d="M 8815.6,4614.15 L 8837.56,4614.15 L 8836.58,4634.15 L 8816.58,4634.15 L 8815.6,4614.15 Z " />
<path stroke="transparent" fill="#000000" transform="matrix(0.0833333 0 0 0.0833333 -21.25 -129.733)" d="M 9347.96,4975.51 L 9348.54,4987.36 L 9338.54,4993.16 L 8826.6,4699.7 L 8826.56,4676.63 L 9347.96,4975.51 Z " />
<path stroke="transparent" fill="#000000" transform="matrix(0.0833333 0 0 0.0833333 -21.25 -129.733)" d="M 8826.6,5876.61 L 8826.58,5888.16 L 8816.12,5893.65 L 8403.79,5654.06 L 8413.83,5636.77 L 8826.6,5876.61 Z " />
<path stroke="transparent" fill="#000000" transform="matrix(0.0833333 0 0 0.0833333 -21.25 -129.733)" d="M 2081.2,6210.78 L 2081.2,6199.22 L 2091.2,6193.45 L 2513.28,6437.79 L 2503.26,6455.09 L 2081.2,6210.78 Z " />
<path stroke="transparent" fill="#000000" transform="matrix(0.0833333 0 0 0.0833333 -21.25 -129.733)" d="M 9325.11,3192.61 L 9347.09,3191.44 L 9347.08,3203 L 8924.13,3448.01 L 8914.11,3430.7 L 9325.11,3192.61 Z " />
<path stroke="transparent" fill="#000000" transform="matrix(0.0833333 0 0 0.0833333 -21.25 -129.733)" d="M 9738,4693.62 L 9797.92,4797.58 L 9358.54,4993.79 L 9348.54,4987.36 L 9347.96,4975.51 L 9738,4693.62 Z " />
<path stroke="transparent" fill="#000000" transform="matrix(0.0833333 0 0 0.0833333 -21.25 -129.733)" d="M 9358.54,5593.14 L 9338.54,5581.59 L 9338.54,4993.16 L 9348.54,4987.36 L 9358.54,4993.79 L 9358.54,5593.14 Z " />
<path stroke="transparent" fill="#000000" transform="matrix(0.0833333 0 0 0.0833333 -21.25 -129.733)" d="M 9338.54,5581.59 L 9358.54,5593.14 L 8837.04,5893.68 L 8826.58,5888.16 L 8826.6,5876.61 L 9338.54,5581.59 Z " />
<path stroke="transparent" fill="#000000" transform="matrix(0.0833333 0 0 0.0833333 -21.25 -129.733)" d="M 8888.59,6512.27 L 8768.4,6466.26 L 8816.12,5893.65 L 8826.58,5888.16 L 8837.04,5893.68 L 8888.59,6512.27 Z " />
<path stroke="transparent" fill="#000000" transform="matrix(0.0833333 0 0 0.0833333 -21.25 -129.733)" d="M 2071.2,5719.05 L 2091.2,5719.05 L 2091.2,6193.45 L 2081.2,6199.22 L 2071.2,6193.46 L 2071.2,5719.05 Z " />
<path stroke="transparent" fill="#000000" transform="matrix(0.0833333 0 0 0.0833333 -21.25 -129.733)" d="M 1563.1,6511.57 L 1563.07,6488.46 L 2071.2,6193.46 L 2081.2,6199.22 L 2081.2,6210.78 L 1563.1,6511.57 Z " />
<path stroke="transparent" fill="#000000" transform="matrix(0.0833333 0 0 0.0833333 -21.25 -129.733)" d="M 2141.2,6696.55 L 2021.2,6696.55 L 2023.45,6676.55 L 2138.94,6676.55 L 2141.2,6696.55 Z " />
<path stroke="transparent" fill="#000000" transform="matrix(0.0833333 0 0 0.0833333 -21.25 -129.733)" d="M 2134.38,6636.08 L 2028.02,6636.08 L 2030.27,6616.08 L 2132.12,6616.08 L 2134.38,6636.08 Z " />
<path stroke="transparent" fill="#000000" transform="matrix(0.0833333 0 0 0.0833333 -21.25 -129.733)" d="M 2127.56,6575.61 L 2034.84,6575.61 L 2037.09,6555.61 L 2125.3,6555.61 L 2127.56,6575.61 Z " />
<path stroke="transparent" fill="#000000" transform="matrix(0.0833333 0 0 0.0833333 -21.25 -129.733)" d="M 2120.73,6515.14 L 2041.66,6515.14 L 2043.91,6495.14 L 2118.48,6495.14 L 2120.73,6515.14 Z " />
<path stroke="transparent" fill="#000000" transform="matrix(0.0833333 0 0 0.0833333 -21.25 -129.733)" d="M 2113.91,6454.67 L 2048.48,6454.67 L 2050.73,6434.67 L 2111.66,6434.67 L 2113.91,6454.67 Z " />
<path stroke="transparent" fill="#000000" transform="matrix(0.0833333 0 0 0.0833333 -21.25 -129.733)" d="M 2107.09,6394.2 L 2055.3,6394.2 L 2057.56,6374.2 L 2104.84,6374.2 L 2107.09,6394.2 Z " />
<path stroke="transparent" fill="#000000" transform="matrix(0.0833333 0 0 0.0833333 -21.25 -129.733)" d="M 2100.27,6333.73 L 2062.12,6333.73 L 2064.38,6313.73 L 2098.02,6313.73 L 2100.27,6333.73 Z " />
<path stroke="transparent" fill="#000000" transform="matrix(0.0833333 0 0 0.0833333 -21.25 -129.733)" d="M 2093.45,6273.26 L 2068.94,6273.26 L 2071.2,6253.26 L 2091.2,6253.26 L 2093.45,6273.26 Z " />
<path stroke="transparent" fill="#000000" transform="matrix(0.0833333 0 0 0.0833333 -21.25 -129.733)" d="M 9866.08,3481.4 L 9866.07,3492.97 L 9855.52,3498.4 L 9347.08,3203 L 9347.09,3191.44 L 9357.09,3185.68 L 9866.08,3481.4 Z " />
<path stroke="transparent" fill="#000000" transform="matrix(0.0833333 0 0 0.0833333 -21.25 -129.733)" d="M 9337.09,2711.27 L 9357.09,2711.27 L 9357.09,3185.68 L 9347.09,3191.44 L 9337.09,3171.94 L 9337.09,2711.27 Z " />
<path stroke="transparent" fill="#000000" transform="matrix(0.0833333 0 0 0.0833333 -21.25 -129.733)" d="M 8906.95,3008.21 L 8966.64,2904.12 L 9337.09,3171.94 L 9347.09,3191.44 L 9325.11,3192.61 L 8906.95,3008.21 Z " />
<path stroke="transparent" fill="#000000" transform="matrix(0.0833333 0 0 0.0833333 -21.25 -129.733)" d="M 9805.15,5782.63 L 9744.98,5886.45 L 9728.81,5874.45 L 9786.7,5774.57 L 9805.15,5782.63 Z " />
<path stroke="transparent" fill="#000000" transform="matrix(0.0833333 0 0 0.0833333 -21.25 -129.733)" d="M 9749.96,5758.52 L 9696.62,5850.55 L 9680.46,5838.55 L 9731.51,5750.47 L 9749.96,5758.52 Z " />
<path stroke="transparent" fill="#000000" transform="matrix(0.0833333 0 0 0.0833333 -21.25 -129.733)" d="M 9694.76,5734.42 L 9648.27,5814.65 L 9632.11,5802.65 L 9676.32,5726.36 L 9694.76,5734.42 Z " />
<path stroke="transparent" fill="#000000" transform="matrix(0.0833333 0 0 0.0833333 -21.25 -129.733)" d="M 9639.57,5710.31 L 9599.92,5778.75 L 9583.75,5766.75 L 9621.13,5702.26 L 9639.57,5710.31 Z " />
<path stroke="transparent" fill="#000000" transform="matrix(0.0833333 0 0 0.0833333 -21.25 -129.733)" d="M 9584.38,5686.21 L 9551.56,5742.85 L 9535.4,5730.85 L 9565.94,5678.15 L 9584.38,5686.21 Z " />
<path stroke="transparent" fill="#000000" transform="matrix(0.0833333 0 0 0.0833333 -21.25 -129.733)" d="M 9529.19,5662.11 L 9503.21,5706.95 L 9487.05,5694.95 L 9510.75,5654.05 L 9529.19,5662.11 Z " />
<path stroke="transparent" fill="#000000" transform="matrix(0.0833333 0 0 0.0833333 -21.25 -129.733)" d="M 9474,5638 L 9454.86,5671.05 L 9438.69,5659.05 L 9455.56,5629.95 L 9474,5638 Z " />
<path stroke="transparent" fill="#000000" transform="matrix(0.0833333 0 0 0.0833333 -21.25 -129.733)" d="M 9418.81,5613.9 L 9406.5,5635.15 L 9390.34,5623.15 L 9400.37,5605.84 L 9418.81,5613.9 Z " />
<path stroke="transparent" fill="#000000" transform="matrix(0.0833333 0 0 0.0833333 -21.25 -129.733)" d="M 9259.35,6725.4 L 9249.39,6742.74 L 8768.4,6466.26 L 8888.59,6512.27 L 9259.35,6725.4 Z " />
<path stroke="transparent" fill="#000000" transform="matrix(0.0833333 0 0 0.0833333 -21.25 -129.733)" d="M 1563.07,5311.56 L 1563.09,5300.02 L 1573.55,5294.51 L 1993.58,5537.08 L 1983.58,5554.4 L 1563.07,5311.56 Z " />
<path stroke="transparent" fill="#000000" transform="matrix(0.0833333 0 0 0.0833333 -21.25 -129.733)" d="M 1623.09,6994.85 L 1503.09,6994.85 L 1505.36,6974.85 L 1620.82,6974.85 L 1623.09,6994.85 Z " />
<path stroke="transparent" fill="#000000" transform="matrix(0.0833333 0 0 0.0833333 -21.25 -129.733)" d="M 1616.27,6934.75 L 1509.91,6934.75 L 1512.18,6914.75 L 1614,6914.75 L 1616.27,6934.75 Z " />
<path stroke="transparent" fill="#000000" transform="matrix(0.0833333 0 0 0.0833333 -21.25 -129.733)" d="M 1609.45,6874.64 L 1516.72,6874.64 L 1518.99,6854.64 L 1607.18,6854.64 L 1609.45,6874.64 Z " />
<path stroke="transparent" fill="#000000" transform="matrix(0.0833333 0 0 0.0833333 -21.25 -129.733)" d="M 1602.63,6814.53 L 1523.54,6814.53 L 1525.81,6794.53 L 1600.36,6794.53 L 1602.63,6814.53 Z " />
<path stroke="transparent" fill="#000000" transform="matrix(0.0833333 0 0 0.0833333 -21.25 -129.733)" d="M 1595.81,6754.43 L 1530.36,6754.43 L 1532.63,6734.43 L 1593.54,6734.43 L 1595.81,6754.43 Z " />
<path stroke="transparent" fill="#000000" transform="matrix(0.0833333 0 0 0.0833333 -21.25 -129.733)" d="M 1588.99,6694.32 L 1537.18,6694.32 L 1539.45,6674.32 L 1586.72,6674.32 L 1588.99,6694.32 Z " />
<path stroke="transparent" fill="#000000" transform="matrix(0.0833333 0 0 0.0833333 -21.25 -129.733)" d="M 1582.18,6634.22 L 1544,6634.22 L 1546.27,6614.22 L 1579.91,6614.22 L 1582.18,6634.22 Z " />
<path stroke="transparent" fill="#000000" transform="matrix(0.0833333 0 0 0.0833333 -21.25 -129.733)" d="M 1575.36,6574.11 L 1550.82,6574.11 L 1553.09,6554.11 L 1573.09,6554.11 L 1575.36,6574.11 Z " />
<path stroke="transparent" fill="#000000" transform="matrix(0.0833333 0 0 0.0833333 -21.25 -129.733)" d="M 1042.56,6211.09 L 1042,6199.22 L 1052,6193.45 L 1563.07,6488.46 L 1563.1,6511.57 L 1042.56,6211.09 Z " />
<path stroke="transparent" fill="#000000" transform="matrix(0.0833333 0 0 0.0833333 -21.25 -129.733)" d="M 9926.07,3987.8 L 9806.07,3987.8 L 9855.52,3498.4 L 9866.07,3492.97 L 9876.62,3498.41 L 9926.07,3987.8 Z " />
<path stroke="transparent" fill="#000000" transform="matrix(0.0833333 0 0 0.0833333 -21.25 -129.733)" d="M 10376.6,3185.67 L 10386.6,3191.44 L 10386,3203.32 L 9876.62,3498.41 L 9866.07,3492.97 L 9866.08,3481.4 L 10376.6,3185.67 Z " />
<path stroke="transparent" fill="#000000" transform="matrix(0.0833333 0 0 0.0833333 -21.25 -129.733)" d="M 9855.61,2287.45 L 9866.07,2292.97 L 9866.08,2304.5 L 9444.78,2546.79 L 9434.81,2529.45 L 9855.61,2287.45 Z " />
<path stroke="transparent" fill="#000000" transform="matrix(0.0833333 0 0 0.0833333 -21.25 -129.733)" d="M 1501.05,4675.63 L 1621.24,4722.16 L 1573.55,5294.51 L 1563.09,5300.02 L 1552.63,5294.49 L 1501.05,4675.63 Z " />
<path stroke="transparent" fill="#000000" transform="matrix(0.0833333 0 0 0.0833333 -21.25 -129.733)" d="M 1052,5605.01 L 1032,5593.43 L 1552.63,5294.49 L 1563.09,5300.02 L 1563.07,5311.56 L 1052,5605.01 Z " />
<path stroke="transparent" fill="#000000" transform="matrix(0.0833333 0 0 0.0833333 -21.25 -129.733)" d="M 1032,5593.43 L 1052,5605.01 L 1052,6193.45 L 1042,6199.22 L 1032,6192.82 L 1032,5593.43 Z " />
<path stroke="transparent" fill="#000000" transform="matrix(0.0833333 0 0 0.0833333 -21.25 -129.733)" d="M 645.043,6498.36 L 584.919,6394.51 L 1032,6192.82 L 1042,6199.22 L 1042.56,6211.09 L 645.043,6498.36 Z " />
<path stroke="transparent" fill="#000000" transform="matrix(0.0833333 0 0 0.0833333 -21.25 -129.733)" d="M 10843.2,3387.36 L 10782.9,3491.12 L 10386,3203.32 L 10386.6,3191.44 L 10396.6,3185.05 L 10843.2,3387.36 Z " />
<path stroke="transparent" fill="#000000" transform="matrix(0.0833333 0 0 0.0833333 -21.25 -129.733)" d="M 10376.6,2597.23 L 10396.6,2585.64 L 10396.6,3185.05 L 10386.6,3191.44 L 10376.6,3185.67 L 10376.6,2597.23 Z " />
<path stroke="transparent" fill="#000000" transform="matrix(0.0833333 0 0 0.0833333 -21.25 -129.733)" d="M 10396.6,2585.64 L 10376.6,2597.23 L 9866.08,2304.5 L 9866.07,2292.97 L 9876.53,2287.44 L 10396.6,2585.64 Z " />
<path stroke="transparent" fill="#000000" transform="matrix(0.0833333 0 0 0.0833333 -21.25 -129.733)" d="M 9806.07,1692.97 L 9926.07,1692.97 L 9876.53,2287.44 L 9866.07,2292.97 L 9855.61,2287.45 L 9806.07,1692.97 Z " />
<path stroke="transparent" fill="#000000" transform="matrix(0.0833333 0 0 0.0833333 -21.25 -129.733)" d="M 1138.46,4465.5 L 1148.49,4448.2 L 1621.24,4722.16 L 1501.05,4675.63 L 1138.46,4465.5 Z " />
<path stroke="transparent" fill="#000000" transform="matrix(0.0833333 0 0 0.0833333 -21.25 -129.733)" d="M 592.573,5409.65 L 652.457,5305.66 L 668.628,5317.65 L 611.065,5417.61 L 592.573,5409.65 Z " />
<path stroke="transparent" fill="#000000" transform="matrix(0.0833333 0 0 0.0833333 -21.25 -129.733)" d="M 646.735,5432.98 L 699.822,5340.79 L 715.994,5352.79 L 665.227,5440.94 L 646.735,5432.98 Z " />
<path stroke="transparent" fill="#000000" transform="matrix(0.0833333 0 0 0.0833333 -21.25 -129.733)" d="M 700.898,5456.31 L 747.188,5375.93 L 763.359,5387.92 L 719.39,5464.28 L 700.898,5456.31 Z " />
<path stroke="transparent" fill="#000000" transform="matrix(0.0833333 0 0 0.0833333 -21.25 -129.733)" d="M 755.061,5479.64 L 794.553,5411.06 L 810.724,5423.06 L 773.553,5487.61 L 755.061,5479.64 Z " />
<path stroke="transparent" fill="#000000" transform="matrix(0.0833333 0 0 0.0833333 -21.25 -129.733)" d="M 809.224,5502.97 L 841.918,5446.2 L 858.09,5458.2 L 827.716,5510.94 L 809.224,5502.97 Z " />
<path stroke="transparent" fill="#000000" transform="matrix(0.0833333 0 0 0.0833333 -21.25 -129.733)" d="M 863.387,5526.3 L 889.284,5481.34 L 905.455,5493.33 L 881.879,5534.27 L 863.387,5526.3 Z " />
<path stroke="transparent" fill="#000000" transform="matrix(0.0833333 0 0 0.0833333 -21.25 -129.733)" d="M 917.55,5549.64 L 936.649,5516.47 L 952.82,5528.47 L 936.042,5557.6 L 917.55,5549.64 Z " />
<path stroke="transparent" fill="#000000" transform="matrix(0.0833333 0 0 0.0833333 -21.25 -129.733)" d="M 971.713,5572.97 L 984.014,5551.61 L 1000.19,5563.6 L 990.205,5580.93 L 971.713,5572.97 Z " />
<path stroke="transparent" fill="#000000" transform="matrix(0.0833333 0 0 0.0833333 -21.25 -129.733)" d="M 10776,2298.28 L 10835.8,2402.31 L 10817.3,2410.26 L 10759.8,2310.27 L 10776,2298.28 Z " />
<path stroke="transparent" fill="#000000" transform="matrix(0.0833333 0 0 0.0833333 -21.25 -129.733)" d="M 10728.6,2333.36 L 10781.7,2425.58 L 10763.2,2433.53 L 10712.5,2345.35 L 10728.6,2333.36 Z " />
<path stroke="transparent" fill="#000000" transform="matrix(0.0833333 0 0 0.0833333 -21.25 -129.733)" d="M 10681.3,2368.44 L 10727.5,2448.85 L 10709,2456.8 L 10665.1,2380.42 L 10681.3,2368.44 Z " />
<path stroke="transparent" fill="#000000" transform="matrix(0.0833333 0 0 0.0833333 -21.25 -129.733)" d="M 10634,2403.51 L 10673.4,2472.11 L 10654.9,2480.07 L 10617.8,2415.5 L 10634,2403.51 Z " />
<path stroke="transparent" fill="#000000" transform="matrix(0.0833333 0 0 0.0833333 -21.25 -129.733)" d="M 10586.6,2438.59 L 10619.3,2495.38 L 10600.8,2503.34 L 10570.5,2450.58 L 10586.6,2438.59 Z " />
<path stroke="transparent" fill="#000000" transform="matrix(0.0833333 0 0 0.0833333 -21.25 -129.733)" d="M 10539.3,2473.67 L 10565.2,2518.65 L 10546.7,2526.61 L 10523.1,2485.66 L 10539.3,2473.67 Z " />
<path stroke="transparent" fill="#000000" transform="matrix(0.0833333 0 0 0.0833333 -21.25 -129.733)" d="M 10492,2508.74 L 10511.1,2541.92 L 10492.6,2549.88 L 10475.8,2520.73 L 10492,2508.74 Z " />
<path stroke="transparent" fill="#000000" transform="matrix(0.0833333 0 0 0.0833333 -21.25 -129.733)" d="M 10444.6,2543.82 L 10456.9,2565.19 L 10438.4,2573.15 L 10428.5,2555.81 L 10444.6,2543.82 Z " />
<path stroke="transparent" fill="#000000" transform="matrix(0.0833333 0 0 0.0833333 -21.25 -129.733)" d="M 11424.5,2579.91 L 11424.5,2591.44 L 11414.5,2597.22 L 11000.7,2359.21 L 11010.7,2341.87 L 11424.5,2579.91 Z " />
<path stroke="transparent" fill="#000000" transform="matrix(0.0833333 0 0 0.0833333 -21.25 -129.733)" d="M 11945.1,2281.43 L 11945,2304.5 L 11434.5,2597.23 L 11424.5,2591.44 L 11424.5,2579.91 L 11945.1,2281.43 Z " />
<path stroke="transparent" fill="#000000" transform="matrix(0.0833333 0 0 0.0833333 -21.25 -129.733)" d="M 11434.5,3086.27 L 11414.5,3086.27 L 11414.5,2597.22 L 11424.5,2591.44 L 11434.5,2597.23 L 11434.5,3086.27 Z " />
<path stroke="transparent" fill="#000000" transform="matrix(0.0833333 0 0 0.0833333 -21.25 -129.733)" d="M 11364.5,2108.77 L 11484.5,2108.77 L 11482.2,2128.77 L 11366.9,2128.77 L 11364.5,2108.77 Z " />
<path stroke="transparent" fill="#000000" transform="matrix(0.0833333 0 0 0.0833333 -21.25 -129.733)" d="M 11371.3,2167.14 L 11477.7,2167.14 L 11475.4,2187.14 L 11373.7,2187.14 L 11371.3,2167.14 Z " />
<path stroke="transparent" fill="#000000" transform="matrix(0.0833333 0 0 0.0833333 -21.25 -129.733)" d="M 11378.2,2225.51 L 11470.9,2225.51 L 11468.6,2245.51 L 11380.5,2245.51 L 11378.2,2225.51 Z " />
<path stroke="transparent" fill="#000000" transform="matrix(0.0833333 0 0 0.0833333 -21.25 -129.733)" d="M 11385,2283.88 L 11464.1,2283.88 L 11461.8,2303.88 L 11387.3,2303.88 L 11385,2283.88 Z " />
<path stroke="transparent" fill="#000000" transform="matrix(0.0833333 0 0 0.0833333 -21.25 -129.733)" d="M 11391.8,2342.25 L 11457.3,2342.25 L 11455,2362.25 L 11394.1,2362.25 L 11391.8,2342.25 Z " />
<path stroke="transparent" fill="#000000" transform="matrix(0.0833333 0 0 0.0833333 -21.25 -129.733)" d="M 11398.6,2400.62 L 11450.5,2400.62 L 11448.2,2420.62 L 11400.9,2420.62 L 11398.6,2400.62 Z " />
<path stroke="transparent" fill="#000000" transform="matrix(0.0833333 0 0 0.0833333 -21.25 -129.733)" d="M 11405.4,2458.99 L 11443.7,2458.99 L 11441.3,2478.99 L 11407.7,2478.99 L 11405.4,2458.99 Z " />
<path stroke="transparent" fill="#000000" transform="matrix(0.0833333 0 0 0.0833333 -21.25 -129.733)" d="M 11412.2,2517.36 L 11436.9,2517.36 L 11434.5,2537.36 L 11414.5,2537.36 L 11412.2,2517.36 Z " />
<path stroke="transparent" fill="#000000" transform="matrix(0.0833333 0 0 0.0833333 -21.25 -129.733)" d="M 11885,1812.8 L 12005,1812.8 L 12002.7,1832.8 L 11887.4,1832.8 L 11885,1812.8 Z " />
<path stroke="transparent" fill="#000000" transform="matrix(0.0833333 0 0 0.0833333 -21.25 -129.733)" d="M 11891.9,1870.82 L 11998.2,1870.82 L 11995.9,1890.82 L 11894.2,1890.82 L 11891.9,1870.82 Z " />
<path stroke="transparent" fill="#000000" transform="matrix(0.0833333 0 0 0.0833333 -21.25 -129.733)" d="M 11898.7,1928.84 L 11991.4,1928.84 L 11989.1,1948.84 L 11901,1948.84 L 11898.7,1928.84 Z " />
<path stroke="transparent" fill="#000000" transform="matrix(0.0833333 0 0 0.0833333 -21.25 -129.733)" d="M 11905.5,1986.86 L 11984.6,1986.86 L 11982.3,2006.86 L 11907.8,2006.86 L 11905.5,1986.86 Z " />
<path stroke="transparent" fill="#000000" transform="matrix(0.0833333 0 0 0.0833333 -21.25 -129.733)" d="M 11912.3,2044.88 L 11977.8,2044.88 L 11975.5,2064.88 L 11914.6,2064.88 L 11912.3,2044.88 Z " />
<path stroke="transparent" fill="#000000" transform="matrix(0.0833333 0 0 0.0833333 -21.25 -129.733)" d="M 11919.1,2102.9 L 11971,2102.9 L 11968.7,2122.9 L 11921.4,2122.9 L 11919.1,2102.9 Z " />
<path stroke="transparent" fill="#000000" transform="matrix(0.0833333 0 0 0.0833333 -21.25 -129.733)" d="M 11925.9,2160.93 L 11964.2,2160.93 L 11961.9,2180.93 L 11928.2,2180.93 L 11925.9,2160.93 Z " />
<path stroke="transparent" fill="#000000" transform="matrix(0.0833333 0 0 0.0833333 -21.25 -129.733)" d="M 11932.7,2218.95 L 11957.4,2218.95 L 11955,2238.95 L 11935,2238.95 L 11932.7,2218.95 Z " />
<path stroke="transparent" fill="#000000" transform="matrix(0.0833333 0 0 0.0833333 -21.25 -129.733)" d="M 12463.5,2579.59 L 12464,2591.44 L 12454,2597.22 L 11945,2304.5 L 11945.1,2281.43 L 12463.5,2579.59 Z " />
<path stroke="transparent" fill="#000000" transform="matrix(0.0833333 0 0 0.0833333 -21.25 -129.733)" d="M 11945,3481.4 L 11945.1,3504.53 L 11519.5,3258 L 11529.5,3240.7 L 11945,3481.4 Z " />
<path stroke="transparent" fill="#000000" transform="matrix(0.0833333 0 0 0.0833333 -21.25 -129.733)" d="M 12856.5,2297.94 L 12916,2402.11 L 12474,2597.89 L 12464,2591.44 L 12463.5,2579.59 L 12856.5,2297.94 Z " />
<path stroke="transparent" fill="#000000" transform="matrix(0.0833333 0 0 0.0833333 -21.25 -129.733)" d="M 12474,3197.19 L 12454,3185.68 L 12454,2597.22 L 12464,2591.44 L 12474,2597.89 L 12474,3197.19 Z " />
<path stroke="transparent" fill="#000000" transform="matrix(0.0833333 0 0 0.0833333 -21.25 -129.733)" d="M 12454,3185.68 L 12474,3197.19 L 11945.1,3504.53 L 11945,3481.4 L 12454,3185.68 Z " />
<path stroke="transparent" fill="#000000" transform="matrix(0.0833333 0 0 0.0833333 -21.25 -129.733)" d="M 12923.5,3387.52 L 12863.4,3491.43 L 12847.3,3479.47 L 12905,3379.48 L 12923.5,3387.52 Z " />
<path stroke="transparent" fill="#000000" transform="matrix(0.0833333 0 0 0.0833333 -21.25 -129.733)" d="M 12867.9,3363.28 L 12814.7,3455.39 L 12798.5,3443.42 L 12849.4,3355.24 L 12867.9,3363.28 Z " />
<path stroke="transparent" fill="#000000" transform="matrix(0.0833333 0 0 0.0833333 -21.25 -129.733)" d="M 12812.3,3339.05 L 12765.9,3419.34 L 12749.7,3407.38 L 12793.8,3331.01 L 12812.3,3339.05 Z " />
<path stroke="transparent" fill="#000000" transform="matrix(0.0833333 0 0 0.0833333 -21.25 -129.733)" d="M 12756.7,3314.82 L 12717.1,3383.3 L 12701,3371.33 L 12738.2,3306.77 L 12756.7,3314.82 Z " />
<path stroke="transparent" fill="#000000" transform="matrix(0.0833333 0 0 0.0833333 -21.25 -129.733)" d="M 12701.1,3290.58 L 12668.4,3347.25 L 12652.2,3335.29 L 12682.7,3282.54 L 12701.1,3290.58 Z " />
<path stroke="transparent" fill="#000000" transform="matrix(0.0833333 0 0 0.0833333 -21.25 -129.733)" d="M 12645.5,3266.35 L 12619.6,3311.21 L 12603.4,3299.24 L 12627.1,3258.31 L 12645.5,3266.35 Z " />
<path stroke="transparent" fill="#000000" transform="matrix(0.0833333 0 0 0.0833333 -21.25 -129.733)" d="M 12589.9,3242.11 L 12570.8,3275.16 L 12554.6,3263.2 L 12571.5,3234.07 L 12589.9,3242.11 Z " />
<path stroke="transparent" fill="#000000" transform="matrix(0.0833333 0 0 0.0833333 -21.25 -129.733)" d="M 12534.3,3217.88 L 12522.1,3239.12 L 12505.9,3227.16 L 12515.9,3209.84 L 12534.3,3217.88 Z " />
<path stroke="transparent" fill="#000000" transform="matrix(0.0833333 0 0 0.0833333 -21.25 -129.733)" d="M 12996.1,4217.84 L 12986.1,4224.97 L 12976.1,4221.53 L 12976.1,3612.8 L 12996.1,3612.8 L 12996.1,4217.84 Z " />
<path stroke="transparent" fill="#000000" transform="matrix(0.0833333 0 0 0.0833333 -21.25 -129.733)" d="M 13555.6,4411.3 L 13535.6,4425.54 L 12989.6,4236.75 L 12986.1,4224.97 L 12996.1,4217.84 L 13555.6,4411.3 Z " />
<path stroke="transparent" fill="#000000" transform="matrix(0.0833333 0 0 0.0833333 -21.25 -129.733)" d="M 12689.2,4621.96 L 12673.4,4609.66 L 12976.1,4221.53 L 12986.1,4224.97 L 12989.6,4236.75 L 12689.2,4621.96 Z " />
<path stroke="transparent" fill="#000000" transform="matrix(0.0833333 0 0 0.0833333 -21.25 -129.733)" d="M 13237.8,3829.42 L 13329.9,3906.27 L 13315.3,3920.07 L 13226.8,3846.34 L 13237.8,3829.42 Z " />
<path stroke="transparent" fill="#000000" transform="matrix(0.0833333 0 0 0.0833333 -21.25 -129.733)" d="M 13207.2,3876.66 L 13289,3944.8 L 13274.3,3958.61 L 13196.3,3893.58 L 13207.2,3876.66 Z " />
<path stroke="transparent" fill="#000000" transform="matrix(0.0833333 0 0 0.0833333 -21.25 -129.733)" d="M 13176.7,3923.89 L 13248,3983.34 L 13233.3,3997.14 L 13165.8,3940.81 L 13176.7,3923.89 Z " />
<path stroke="transparent" fill="#000000" transform="matrix(0.0833333 0 0 0.0833333 -21.25 -129.733)" d="M 13146.1,3971.13 L 13207,4021.87 L 13192.3,4035.67 L 13135.2,3988.05 L 13146.1,3971.13 Z " />
<path stroke="transparent" fill="#000000" transform="matrix(0.0833333 0 0 0.0833333 -21.25 -129.733)" d="M 13115.6,4018.37 L 13166,4060.41 L 13151.3,4074.21 L 13104.7,4035.29 L 13115.6,4018.37 Z " />
<path stroke="transparent" fill="#000000" transform="matrix(0.0833333 0 0 0.0833333 -21.25 -129.733)" d="M 13085.1,4065.61 L 13125,4098.94 L 13110.4,4112.74 L 13074.1,4082.53 L 13085.1,4065.61 Z " />
<path stroke="transparent" fill="#000000" transform="matrix(0.0833333 0 0 0.0833333 -21.25 -129.733)" d="M 13054.5,4112.84 L 13084.1,4137.47 L 13069.4,4151.27 L 13043.6,4129.76 L 13054.5,4112.84 Z " />
<path stroke="transparent" fill="#000000" transform="matrix(0.0833333 0 0 0.0833333 -21.25 -129.733)" d="M 13024,4160.08 L 13043.1,4176.01 L 13028.4,4189.81 L 13013,4177 L 13024,4160.08 Z " />
<path stroke="transparent" fill="#000000" transform="matrix(0.0833333 0 0 0.0833333 -21.25 -129.733)" d="M 13906.4,4092.47 L 13975.2,4190.77 L 13957.5,4200.33 L 13891.3,4105.86 L 13906.4,4092.47 Z " />
<path stroke="transparent" fill="#000000" transform="matrix(0.0833333 0 0 0.0833333 -21.25 -129.733)" d="M 13862.5,4131.53 L 13923.5,4218.66 L 13905.8,4228.22 L 13847.4,4144.91 L 13862.5,4131.53 Z " />
<path stroke="transparent" fill="#000000" transform="matrix(0.0833333 0 0 0.0833333 -21.25 -129.733)" d="M 13818.6,4170.58 L 13871.8,4246.56 L 13854.1,4256.12 L 13803.6,4183.96 L 13818.6,4170.58 Z " />
<path stroke="transparent" fill="#000000" transform="matrix(0.0833333 0 0 0.0833333 -21.25 -129.733)" d="M 13774.7,4209.63 L 13820.1,4274.45 L 13802.4,4284.02 L 13759.7,4223.01 L 13774.7,4209.63 Z " />
<path stroke="transparent" fill="#000000" transform="matrix(0.0833333 0 0 0.0833333 -21.25 -129.733)" d="M 13730.8,4248.68 L 13768.4,4302.35 L 13750.7,4311.91 L 13715.8,4262.06 L 13730.8,4248.68 Z " />
<path stroke="transparent" fill="#000000" transform="matrix(0.0833333 0 0 0.0833333 -21.25 -129.733)" d="M 13686.9,4287.73 L 13716.7,4330.25 L 13699,4339.81 L 13671.9,4301.12 L 13686.9,4287.73 Z " />
<path stroke="transparent" fill="#000000" transform="matrix(0.0833333 0 0 0.0833333 -21.25 -129.733)" d="M 13643,4326.78 L 13665,4358.14 L 13647.3,4367.7 L 13628,4340.17 L 13643,4326.78 Z " />
<path stroke="transparent" fill="#000000" transform="matrix(0.0833333 0 0 0.0833333 -21.25 -129.733)" d="M 13599.1,4365.83 L 13613.3,4386.04 L 13595.6,4395.6 L 13584.1,4379.22 L 13599.1,4365.83 Z " />
<path stroke="transparent" fill="#000000" transform="matrix(0.0833333 0 0 0.0833333 -21.25 -129.733)" d="M 13555.6,5011.97 L 13545.6,5023.07 L 13535.6,5015.69 L 13535.6,4425.54 L 13555.6,4411.3 L 13555.6,5011.97 Z " />
<path stroke="transparent" fill="#000000" transform="matrix(0.0833333 0 0 0.0833333 -21.25 -129.733)" d="M 12988.3,5184.24 L 12980.7,5207.51 L 12679.4,4802.5 L 12695.4,4790.56 L 12988.3,5184.24 Z " />
<path stroke="transparent" fill="#000000" transform="matrix(0.0833333 0 0 0.0833333 -21.25 -129.733)" d="M 12980.7,5207.51 L 12988.3,5184.24 L 13535.6,5015.69 L 13545.6,5023.07 L 13537.2,5036.12 L 12980.7,5207.51 Z " />
<path stroke="transparent" fill="#000000" transform="matrix(0.0833333 0 0 0.0833333 -21.25 -129.733)" d="M 13741.4,5639.45 L 13606.6,5584.66 L 13537.2,5036.12 L 13545.6,5023.07 L 13558.6,5031.76 L 13741.4,5639.45 Z " />
<path stroke="transparent" fill="#000000" transform="matrix(0.0833333 0 0 0.0833333 -21.25 -129.733)" d="M 14034.5,4961.8 L 14036.6,4981.69 L 13558.6,5031.76 L 13545.6,5023.07 L 13555.6,5011.97 L 14034.5,4961.8 Z " />
<path stroke="transparent" fill="#000000" transform="matrix(0.0833333 0 0 0.0833333 -21.25 -129.733)" d="M 14103,5848.33 L 14093,5865.65 L 13606.6,5584.66 L 13741.4,5639.45 L 14103,5848.33 Z " />
<path stroke="transparent" fill="#000000" transform="matrix(0.0833333 0 0 0.0833333 -21.25 -129.733)" d="M 14313.2,5908.63 L 14252.9,5804.88 L 14271.3,5796.8 L 14329.3,5896.6 L 14313.2,5908.63 Z " />
<path stroke="transparent" fill="#000000" transform="matrix(0.0833333 0 0 0.0833333 -21.25 -129.733)" d="M 14361.3,5872.77 L 14307.9,5780.8 L 14326.3,5772.73 L 14377.5,5860.74 L 14361.3,5872.77 Z " />
<path stroke="transparent" fill="#000000" transform="matrix(0.0833333 0 0 0.0833333 -21.25 -129.733)" d="M 14409.5,5836.91 L 14362.9,5756.73 L 14381.3,5748.65 L 14425.6,5824.88 L 14409.5,5836.91 Z " />
<path stroke="transparent" fill="#000000" transform="matrix(0.0833333 0 0 0.0833333 -21.25 -129.733)" d="M 14457.6,5801.04 L 14417.9,5732.65 L 14436.3,5724.58 L 14473.8,5789.02 L 14457.6,5801.04 Z " />
<path stroke="transparent" fill="#000000" transform="matrix(0.0833333 0 0 0.0833333 -21.25 -129.733)" d="M 14505.8,5765.18 L 14472.9,5708.58 L 14491.3,5700.51 L 14521.9,5753.16 L 14505.8,5765.18 Z " />
<path stroke="transparent" fill="#000000" transform="matrix(0.0833333 0 0 0.0833333 -21.25 -129.733)" d="M 14553.9,5729.32 L 14527.8,5684.5 L 14546.3,5676.43 L 14570,5717.3 L 14553.9,5729.32 Z " />
<path stroke="transparent" fill="#000000" transform="matrix(0.0833333 0 0 0.0833333 -21.25 -129.733)" d="M 14602,5693.46 L 14582.8,5660.43 L 14601.3,5652.36 L 14618.2,5681.44 L 14602,5693.46 Z " />
<path stroke="transparent" fill="#000000" transform="matrix(0.0833333 0 0 0.0833333 -21.25 -129.733)" d="M 14650.2,5657.6 L 14637.8,5636.36 L 14656.3,5628.28 L 14666.3,5645.57 L 14650.2,5657.6 Z " />
<path stroke="transparent" fill="#000000" transform="matrix(0.0833333 0 0 0.0833333 -21.25 -129.733)" d="M 14698,5129.6 L 14718,5129.6 L 14718,5604 L 14698,5615.53 L 14698,5129.6 Z " />
<path stroke="transparent" fill="#000000" transform="matrix(0.0833333 0 0 0.0833333 -21.25 -129.733)" d="M 15227.1,5898.94 L 15227.1,5910.49 L 15216.5,5915.94 L 14698,5615.53 L 14718,5604 L 15227.1,5898.94 Z " />
<path stroke="transparent" fill="#000000" transform="matrix(0.0833333 0 0 0.0833333 -21.25 -129.733)" d="M 15227.1,4698.95 L 15227.1,4722.03 L 14805.7,4965.01 L 14795.7,4947.68 L 15227.1,4698.95 Z " />
<path stroke="transparent" fill="#000000" transform="matrix(0.0833333 0 0 0.0833333 -21.25 -129.733)" d="M 15287.1,6405.33 L 15167.1,6405.33 L 15216.5,5915.94 L 15227.1,5910.49 L 15237.6,5915.95 L 15287.1,6405.33 Z " />
<path stroke="transparent" fill="#000000" transform="matrix(0.0833333 0 0 0.0833333 -21.25 -129.733)" d="M 15737.6,5603.99 L 15757.6,5615.54 L 15237.6,5915.95 L 15227.1,5910.49 L 15227.1,5898.94 L 15737.6,5603.99 Z " />
<path stroke="transparent" fill="#000000" transform="matrix(0.0833333 0 0 0.0833333 -21.25 -129.733)" d="M 15167.1,4164.98 L 15287.1,4164.98 L 15285.1,4184.98 L 15169.1,4184.98 L 15167.1,4164.98 Z " />
<path stroke="transparent" fill="#000000" transform="matrix(0.0833333 0 0 0.0833333 -21.25 -129.733)" d="M 15173.1,4223.91 L 15281.1,4223.91 L 15279.1,4243.91 L 15175.1,4243.91 L 15173.1,4223.91 Z " />
<path stroke="transparent" fill="#000000" transform="matrix(0.0833333 0 0 0.0833333 -21.25 -129.733)" d="M 15179.1,4282.85 L 15275.1,4282.85 L 15273.1,4302.85 L 15181.1,4302.85 L 15179.1,4282.85 Z " />
<path stroke="transparent" fill="#000000" transform="matrix(0.0833333 0 0 0.0833333 -21.25 -129.733)" d="M 15185.1,4341.78 L 15269.1,4341.78 L 15267.1,4361.78 L 15187.1,4361.78 L 15185.1,4341.78 Z " />
<path stroke="transparent" fill="#000000" transform="matrix(0.0833333 0 0 0.0833333 -21.25 -129.733)" d="M 15191.1,4400.71 L 15263.1,4400.71 L 15261.1,4420.71 L 15193.1,4420.71 L 15191.1,4400.71 Z " />
<path stroke="transparent" fill="#000000" transform="matrix(0.0833333 0 0 0.0833333 -21.25 -129.733)" d="M 15197.1,4459.64 L 15257.1,4459.64 L 15255.1,4479.64 L 15199.1,4479.64 L 15197.1,4459.64 Z " />
<path stroke="transparent" fill="#000000" transform="matrix(0.0833333 0 0 0.0833333 -21.25 -129.733)" d="M 15203.1,4518.58 L 15251.1,4518.58 L 15249.1,4538.58 L 15205.1,4538.58 L 15203.1,4518.58 Z " />
<path stroke="transparent" fill="#000000" transform="matrix(0.0833333 0 0 0.0833333 -21.25 -129.733)" d="M 15209.1,4577.51 L 15245.1,4577.51 L 15243.1,4597.51 L 15211.1,4597.51 L 15209.1,4577.51 Z " />
<path stroke="transparent" fill="#000000" transform="matrix(0.0833333 0 0 0.0833333 -21.25 -129.733)" d="M 15215.1,4636.44 L 15239.1,4636.44 L 15237.1,4656.44 L 15217.1,4656.44 L 15215.1,4636.44 Z " />
<path stroke="transparent" fill="#000000" transform="matrix(0.0833333 0 0 0.0833333 -21.25 -129.733)" d="M 15757.6,5003.98 L 15737.6,5015.55 L 15227.1,4722.03 L 15227.1,4698.95 L 15757.6,5003.98 Z " />
<path stroke="transparent" fill="#000000" transform="matrix(0.0833333 0 0 0.0833333 -21.25 -129.733)" d="M 15737.6,5015.55 L 15757.6,5003.98 L 15757.6,5615.54 L 15737.6,5603.99 L 15737.6,5015.55 Z " />
<path stroke="transparent" fill="#000000" transform="matrix(0.0833333 0 0 0.0833333 -21.25 -129.733)" d="M 16208,5795.78 L 16150,5900.8 L 16133.6,5889.13 L 16189.4,5788.1 L 16208,5795.78 Z " />
<path stroke="transparent" fill="#000000" transform="matrix(0.0833333 0 0 0.0833333 -21.25 -129.733)" d="M 16152.4,5772.8 L 16100.9,5865.88 L 16084.5,5854.21 L 16133.8,5765.11 L 16152.4,5772.8 Z " />
<path stroke="transparent" fill="#000000" transform="matrix(0.0833333 0 0 0.0833333 -21.25 -129.733)" d="M 16096.7,5749.81 L 16051.8,5830.96 L 16035.4,5819.29 L 16078.1,5742.13 L 16096.7,5749.81 Z " />
<path stroke="transparent" fill="#000000" transform="matrix(0.0833333 0 0 0.0833333 -21.25 -129.733)" d="M 16041,5726.82 L 16002.8,5796.04 L 15986.4,5784.37 L 16022.4,5719.14 L 16041,5726.82 Z " />
<path stroke="transparent" fill="#000000" transform="matrix(0.0833333 0 0 0.0833333 -21.25 -129.733)" d="M 15985.4,5703.84 L 15953.7,5761.13 L 15937.3,5749.45 L 15966.8,5696.15 L 15985.4,5703.84 Z " />
<path stroke="transparent" fill="#000000" transform="matrix(0.0833333 0 0 0.0833333 -21.25 -129.733)" d="M 15929.7,5680.85 L 15904.6,5726.21 L 15888.2,5714.53 L 15911.1,5673.17 L 15929.7,5680.85 Z " />
<path stroke="transparent" fill="#000000" transform="matrix(0.0833333 0 0 0.0833333 -21.25 -129.733)" d="M 15874,5657.86 L 15855.6,5691.29 L 15839.2,5679.62 L 15855.4,5650.18 L 15874,5657.86 Z " />
<path stroke="transparent" fill="#000000" transform="matrix(0.0833333 0 0 0.0833333 -21.25 -129.733)" d="M 15818.4,5634.88 L 15806.5,5656.37 L 15790.1,5644.7 L 15799.8,5627.19 L 15818.4,5634.88 Z " />
<path stroke="transparent" fill="#000000" transform="matrix(0.0833333 0 0 0.0833333 -21.25 -129.733)" d="M 15643,3858.41 L 15653.1,3875.71 L 15232.1,4119.58 L 15222.1,4102.28 L 15643,3858.41 Z " />
<path stroke="transparent" fill="#000000" transform="matrix(0.0833333 0 0 0.0833333 -21.25 -129.733)" d="M 16137,4715.97 L 16196.9,4819.92 L 16178.4,4827.9 L 16120.8,4727.97 L 16137,4715.97 Z " />
<path stroke="transparent" fill="#000000" transform="matrix(0.0833333 0 0 0.0833333 -21.25 -129.733)" d="M 16089.6,4751.13 L 16142.8,4843.28 L 16124.3,4851.26 L 16073.5,4763.14 L 16089.6,4751.13 Z " />
<path stroke="transparent" fill="#000000" transform="matrix(0.0833333 0 0 0.0833333 -21.25 -129.733)" d="M 16042.3,4786.29 L 16088.6,4866.65 L 16070.1,4874.63 L 16026.1,4798.3 L 16042.3,4786.29 Z " />
<path stroke="transparent" fill="#000000" transform="matrix(0.0833333 0 0 0.0833333 -21.25 -129.733)" d="M 15994.9,4821.46 L 16034.5,4890.01 L 16016,4897.99 L 15978.8,4833.46 L 15994.9,4821.46 Z " />
<path stroke="transparent" fill="#000000" transform="matrix(0.0833333 0 0 0.0833333 -21.25 -129.733)" d="M 15947.6,4856.62 L 15980.3,4913.38 L 15961.8,4921.35 L 15931.4,4868.63 L 15947.6,4856.62 Z " />
<path stroke="transparent" fill="#000000" transform="matrix(0.0833333 0 0 0.0833333 -21.25 -129.733)" d="M 15900.2,4891.79 L 15926.2,4936.74 L 15907.7,4944.72 L 15884.1,4903.79 L 15900.2,4891.79 Z " />
<path stroke="transparent" fill="#000000" transform="matrix(0.0833333 0 0 0.0833333 -21.25 -129.733)" d="M 15852.9,4926.95 L 15872,4960.11 L 15853.5,4968.08 L 15836.7,4938.96 L 15852.9,4926.95 Z " />
<path stroke="transparent" fill="#000000" transform="matrix(0.0833333 0 0 0.0833333 -21.25 -129.733)" d="M 15805.6,4962.12 L 15817.9,4983.47 L 15799.4,4991.45 L 15789.4,4974.12 L 15805.6,4962.12 Z " />
</svg>
