<?xml version="1.0" standalone="no" ?>
<!DOCTYPE svg PUBLIC "-//W3C//DTD SVG 1.1//EN" "http://www.w3.org/Graphics/SVG/1.1/DTD/svg11.dtd">
<svg width="194px" height="241px" viewBox="0 0 194 241" style="background-color: #ffffff00" xmlns="http://www.w3.org/2000/svg" xmlns:xlink="http://www.w3.org/1999/xlink" version="1.1" >
<path stroke="transparent" fill="#000000" transform="matrix(0.0833333 0 0 0.0833333 -350.542 -224)" d="M 5841.14,2943.57 L 5861.14,2943.57 L 5861.13,3444.52 L 5841.13,3444.52 L 5841.14,2943.57 Z " />
<path stroke="transparent" fill="#000000" transform="matrix(0.0833333 0 0 0.0833333 -350.542 -224)" d="M 5913.14,2943.57 L 5933.14,2943.57 L 5933.13,3444.52 L 5913.13,3444.52 L 5913.14,2943.57 Z " />
<path stroke="transparent" fill="#000000" transform="matrix(0.0833333 0 0 0.0833333 -350.542 -224)" d="M 5887.13,3412.19 L 5887.13,3435.28 L 5377.51,3729.52 L 5367.51,3723.74 L 5367.51,3712.2 L 5887.13,3412.19 Z " />
<path stroke="transparent" fill="#000000" transform="matrix(0.0833333 0 0 0.0833333 -350.542 -224)" d="M 5887.13,3435.28 L 5887.13,3412.19 L 6319.16,3661.58 L 6309.17,3678.91 L 5887.13,3435.28 Z " />
<path stroke="transparent" fill="#000000" transform="matrix(0.0833333 0 0 0.0833333 -350.542 -224)" d="M 6396.79,3843.54 L 6416.79,3843.55 L 6416.78,4329.48 L 6396.78,4317.94 L 6396.79,3843.54 Z " />
<path stroke="transparent" fill="#000000" transform="matrix(0.0833333 0 0 0.0833333 -350.542 -224)" d="M 6396.78,4317.94 L 6416.78,4329.48 L 5887.15,4635.26 L 5887.15,4612.17 L 6396.78,4317.94 Z " />
<path stroke="transparent" fill="#000000" transform="matrix(0.0833333 0 0 0.0833333 -350.542 -224)" d="M 5887.15,4612.17 L 5887.15,4635.26 L 5367.5,4335.29 L 5367.5,4323.74 L 5377.5,4317.97 L 5887.15,4612.17 Z " />
<path stroke="transparent" fill="#000000" transform="matrix(0.0833333 0 0 0.0833333 -350.542 -224)" d="M 5357.5,4317.97 L 5367.5,4323.74 L 5367.5,4335.29 L 4857.91,4629.5 L 4847.91,4623.73 L 4847.91,4612.18 L 5357.5,4317.97 Z " />
<path stroke="transparent" fill="#000000" transform="matrix(0.0833333 0 0 0.0833333 -350.542 -224)" d="M 5377.5,4317.97 L 5367.5,4323.74 L 5357.5,4317.97 L 5357.51,3729.52 L 5367.51,3723.74 L 5377.51,3729.52 L 5377.5,4317.97 Z " />
<path stroke="transparent" fill="#000000" transform="matrix(0.0833333 0 0 0.0833333 -350.542 -224)" d="M 5305.5,4282.18 L 5285.5,4282.18 L 5285.51,3765.31 L 5305.51,3765.31 L 5305.5,4282.18 Z " />
<path stroke="transparent" fill="#000000" transform="matrix(0.0833333 0 0 0.0833333 -350.542 -224)" d="M 5367.51,3712.2 L 5367.51,3723.74 L 5357.51,3729.52 L 4847.89,3435.3 L 4847.89,3412.2 L 5367.51,3712.2 Z " />
<path stroke="transparent" fill="#000000" transform="matrix(0.0833333 0 0 0.0833333 -350.542 -224)" d="M 4847.89,3412.2 L 4847.89,3435.3 L 4437.04,3672.5 L 4427.04,3655.18 L 4847.89,3412.2 Z " />
<path stroke="transparent" fill="#000000" transform="matrix(0.0833333 0 0 0.0833333 -350.542 -224)" d="M 4842.89,3498.23 L 4852.89,3515.55 L 4473.04,3734.86 L 4463.04,3717.54 L 4842.89,3498.23 Z " />
<path stroke="transparent" fill="#000000" transform="matrix(0.0833333 0 0 0.0833333 -350.542 -224)" d="M 4318.27,3841.09 L 4338.27,3841.09 L 4338.29,4317.96 L 4318.29,4329.51 L 4318.27,3841.09 Z " />
<path stroke="transparent" fill="#000000" transform="matrix(0.0833333 0 0 0.0833333 -350.542 -224)" d="M 4318.29,4329.51 L 4338.29,4317.96 L 4847.91,4612.18 L 4847.91,4623.73 L 4837.91,4629.5 L 4318.29,4329.51 Z " />
<path stroke="transparent" fill="#000000" transform="matrix(0.0833333 0 0 0.0833333 -350.542 -224)" d="M 4395.29,4290.83 L 4405.29,4273.51 L 4852.91,4531.93 L 4842.91,4549.25 L 4395.29,4290.83 Z " />
<path stroke="transparent" fill="#000000" transform="matrix(0.0833333 0 0 0.0833333 -350.542 -224)" d="M 4837.91,4629.5 L 4847.91,4623.73 L 4857.91,4629.5 L 4857.9,5217.96 L 4837.9,5229.5 L 4837.91,4629.5 Z " />
<path stroke="transparent" fill="#000000" transform="matrix(0.0833333 0 0 0.0833333 -350.542 -224)" d="M 4837.9,5229.5 L 4857.9,5217.96 L 5372.52,5515.06 L 5362.52,5532.38 L 4837.9,5229.5 Z " />
<path stroke="transparent" fill="#000000" transform="matrix(0.0833333 0 0 0.0833333 -350.542 -224)" d="M 4914.9,5190.82 L 4924.9,5173.5 L 5408.52,5452.71 L 5398.52,5470.03 L 4914.9,5190.82 Z " />
<text x="0" y="0" stroke="transparent" fill="#000000" transform="matrix(0.0833333 0 0 0.0833333 133.553 17.8115)" style="font:normal normal normal 200px 'Arial'" >
O</text>
<text x="0" y="0" stroke="transparent" fill="#000000" transform="matrix(0.0833333 0 0 0.0833333 176.857 92.8093)" style="font:normal normal normal 200px 'Arial'" >
O</text>
<text x="0" y="0" stroke="transparent" fill="#000000" transform="matrix(0.0833333 0 0 0.0833333 4.14677 92.8132)" style="font:normal normal normal 200px 'Arial'" >
N</text>
</svg>
