<?xml version="1.0" standalone="no" ?>
<!DOCTYPE svg PUBLIC "-//W3C//DTD SVG 1.1//EN" "http://www.w3.org/Graphics/SVG/1.1/DTD/svg11.dtd">
<svg width="533px" height="503px" viewBox="0 0 533 503" style="background-color: #ffffff00" xmlns="http://www.w3.org/2000/svg" xmlns:xlink="http://www.w3.org/1999/xlink" version="1.1" >
<text x="0" y="0" stroke="transparent" fill="#000000" transform="matrix(0.0833333 0 0 0.0833333 294.21 167.791)" style="font:normal normal normal 200px 'Arial'" >
O</text>
<text x="0" y="0" stroke="transparent" fill="#000000" transform="matrix(0.0833333 0 0 0.0833333 337.458 92.6693)" style="font:normal normal normal 200px 'Arial'" >
O</text>
<text x="0" y="0" stroke="transparent" fill="#000000" transform="matrix(0.0833333 0 0 0.0833333 258.083 179.918)" style="font:normal normal normal 200px 'Arial'" >
O</text>
<text x="0" y="0" stroke="transparent" fill="#000000" transform="matrix(0.0833333 0 0 0.0833333 288.331 382.754)" style="font:normal normal normal 200px 'Arial'" >
O</text>
<text x="0" y="0" stroke="transparent" fill="#000000" transform="matrix(0.0833333 0 0 0.0833333 461.21 382.754)" style="font:normal normal normal 200px 'Arial'" >
O</text>
<text x="0" y="0" stroke="transparent" fill="#000000" transform="matrix(0.0833333 0 0 0.0833333 504.458 307.445)" style="font:normal normal normal 200px 'Arial'" >
OH</text>
<text x="0" y="0" stroke="transparent" fill="#000000" transform="matrix(0.0833333 0 0 0.0833333 214.798 254.918)" style="font:normal normal normal 200px 'Arial'" >
O</text>
<text x="0" y="0" stroke="transparent" fill="#000000" transform="matrix(0.0833333 0 0 0.0833333 171.622 129.918)" style="font:normal normal normal 200px 'Arial'" >
OH</text>
<text x="0" y="0" stroke="transparent" fill="#000000" transform="matrix(0.0833333 0 0 0.0833333 108.962 17.7906)" style="font:normal normal normal 200px 'Arial'" >
HO</text>
<text x="0" y="0" stroke="transparent" fill="#000000" transform="matrix(0.0833333 0 0 0.0833333 72.8587 179.918)" style="font:normal normal normal 200px 'Arial'" >
HO</text>
<text x="0" y="0" stroke="transparent" fill="#000000" transform="matrix(0.0833333 0 0 0.0833333 128.319 354.845)" style="font:normal normal normal 200px 'Arial'" >
O</text>
<text x="0" y="0" stroke="transparent" fill="#000000" transform="matrix(0.0833333 0 0 0.0833333 72.8587 279.906)" style="font:normal normal normal 200px 'Arial'" >
HO</text>
<text x="0" y="0" stroke="transparent" fill="#000000" transform="matrix(0.0833333 0 0 0.0833333 171.622 429.906)" style="font:normal normal normal 200px 'Arial'" >
O</text>
<text x="0" y="0" stroke="transparent" fill="#000000" transform="matrix(0.0833333 0 0 0.0833333 443.583 263.894)" style="font:normal normal normal 200px 'Arial'" >
H</text>
<text x="0" y="0" stroke="transparent" fill="#000000" transform="matrix(0.0833333 0 0 0.0833333 375.334 432.754)" style="font:normal normal normal 200px 'Arial'" >
H</text>
<text x="0" y="0" stroke="transparent" fill="#000000" transform="matrix(0.0833333 0 0 0.0833333 258.583 229.918)" style="font:normal normal normal 200px 'Arial'" >
H</text>
<path stroke="transparent" fill="#000000" transform="matrix(0.0833333 0 0 0.0833333 -169.208 -108)" d="M 5734.07,3297.87 L 5744.07,3280.55 L 6161.47,3521.37 L 6151.48,3538.69 L 5734.07,3297.87 Z " />
<path stroke="transparent" fill="#000000" transform="matrix(0.0833333 0 0 0.0833333 -169.208 -108)" d="M 6112.53,3597.77 L 6228.43,3566.66 L 6233.02,3586.13 L 6118.31,3616.92 L 6112.53,3597.77 L 6112.53,3597.77 Z " />
<path stroke="transparent" fill="#000000" transform="matrix(0.0833333 0 0 0.0833333 -169.208 -108)" d="M 6128.55,3650.87 L 6241.16,3620.64 L 6245.75,3640.12 L 6134.33,3670.03 L 6128.55,3650.87 L 6128.55,3650.87 Z " />
<path stroke="transparent" fill="#000000" transform="matrix(0.0833333 0 0 0.0833333 -169.208 -108)" d="M 6144.57,3703.98 L 6253.89,3674.63 L 6258.48,3694.11 L 6150.35,3723.13 L 6144.57,3703.98 L 6144.57,3703.98 Z " />
<path stroke="transparent" fill="#000000" transform="matrix(0.0833333 0 0 0.0833333 -169.208 -108)" d="M 6160.59,3757.08 L 6266.62,3728.62 L 6271.21,3748.09 L 6166.37,3776.24 L 6160.59,3757.08 L 6160.59,3757.08 Z " />
<path stroke="transparent" fill="#000000" transform="matrix(0.0833333 0 0 0.0833333 -169.208 -108)" d="M 6176.61,3810.18 L 6279.35,3782.61 L 6283.94,3802.08 L 6182.38,3829.34 L 6176.61,3810.18 L 6176.61,3810.18 Z " />
<path stroke="transparent" fill="#000000" transform="matrix(0.0833333 0 0 0.0833333 -169.208 -108)" d="M 6192.62,3863.29 L 6292.07,3836.59 L 6296.67,3856.07 L 6198.4,3882.45 L 6192.62,3863.29 L 6192.62,3863.29 Z " />
<path stroke="transparent" fill="#000000" transform="matrix(0.0833333 0 0 0.0833333 -169.208 -108)" d="M 6208.64,3916.39 L 6304.8,3890.58 L 6309.39,3910.06 L 6214.42,3935.55 L 6208.64,3916.39 L 6208.64,3916.39 Z " />
<path stroke="transparent" fill="#000000" transform="matrix(0.0833333 0 0 0.0833333 -169.208 -108)" d="M 6224.66,3969.5 L 6317.53,3944.57 L 6322.12,3964.04 L 6230.44,3988.65 L 6224.66,3969.5 L 6224.66,3969.5 Z " />
<path stroke="transparent" fill="#000000" transform="matrix(0.0833333 0 0 0.0833333 -169.208 -108)" d="M 6240.68,4022.6 L 6330.26,3998.56 L 6334.85,4018.03 L 6246.46,4041.76 L 6240.68,4022.6 L 6240.68,4022.6 Z " />
<path stroke="transparent" fill="#000000" transform="matrix(0.0833333 0 0 0.0833333 -169.208 -108)" d="M 6256.7,4075.71 L 6342.99,4052.54 L 6347.58,4072.02 L 6262.48,4094.86 L 6256.7,4075.71 L 6256.7,4075.71 Z " />
<path stroke="transparent" fill="#000000" transform="matrix(0.0833333 0 0 0.0833333 -169.208 -108)" d="M 6272.72,4128.81 L 6355.72,4106.53 L 6360.31,4126.01 L 6278.49,4147.97 L 6272.72,4128.81 L 6272.72,4128.81 Z " />
<path stroke="transparent" fill="#000000" transform="matrix(0.0833333 0 0 0.0833333 -169.208 -108)" d="M 6288.73,4181.92 L 6368.45,4160.52 L 6373.04,4179.99 L 6294.51,4201.07 L 6288.73,4181.92 L 6288.73,4181.92 Z " />
<path stroke="transparent" fill="#000000" transform="matrix(0.0833333 0 0 0.0833333 -169.208 -108)" d="M 6304.75,4235.02 L 6381.18,4214.51 L 6385.77,4233.98 L 6310.53,4254.18 L 6304.75,4235.02 L 6304.75,4235.02 Z " />
<path stroke="transparent" fill="#000000" transform="matrix(0.0833333 0 0 0.0833333 -169.208 -108)" d="M 6320.77,4288.12 L 6393.91,4268.49 L 6398.5,4287.97 L 6326.55,4307.28 L 6320.77,4288.12 L 6320.77,4288.12 Z " />
<path stroke="transparent" fill="#000000" transform="matrix(0.0833333 0 0 0.0833333 -169.208 -108)" d="M 6336.79,4341.23 L 6406.63,4322.48 L 6411.23,4341.96 L 6342.57,4360.39 L 6336.79,4341.23 L 6336.79,4341.23 Z " />
<path stroke="transparent" fill="#000000" transform="matrix(0.0833333 0 0 0.0833333 -169.208 -108)" d="M 6352.81,4394.33 L 6419.36,4376.47 L 6423.96,4395.94 L 6358.59,4413.49 L 6352.81,4394.33 L 6352.81,4394.33 Z " />
<path stroke="transparent" fill="#000000" transform="matrix(0.0833333 0 0 0.0833333 -169.208 -108)" d="M 6368.83,4447.44 L 6432.09,4430.46 L 6436.68,4449.93 L 6374.61,4466.59 L 6368.83,4447.44 L 6368.83,4447.44 Z " />
<path stroke="transparent" fill="#000000" transform="matrix(0.0833333 0 0 0.0833333 -169.208 -108)" d="M 6384.85,4500.54 L 6444.82,4484.44 L 6449.41,4503.92 L 6390.62,4519.7 L 6384.85,4500.54 L 6384.85,4500.54 Z " />
<path stroke="transparent" fill="#000000" transform="matrix(0.0833333 0 0 0.0833333 -169.208 -108)" d="M 6400.86,4553.65 L 6457.55,4538.43 L 6462.14,4557.91 L 6406.64,4572.8 L 6400.86,4553.65 L 6400.86,4553.65 Z " />
<path stroke="transparent" fill="#000000" transform="matrix(0.0833333 0 0 0.0833333 -169.208 -108)" d="M 6416.88,4606.75 L 6470.28,4592.42 L 6474.87,4611.89 L 6422.66,4625.91 L 6416.88,4606.75 L 6416.88,4606.75 Z " />
<path stroke="transparent" fill="#000000" transform="matrix(0.0833333 0 0 0.0833333 -169.208 -108)" d="M 6464.94,4766.06 L 6508.47,4754.38 L 6513.06,4773.86 L 6470.72,4785.22 L 6464.94,4766.06 L 6464.94,4766.06 Z " />
<path stroke="transparent" fill="#000000" transform="matrix(0.0833333 0 0 0.0833333 -169.208 -108)" d="M 6480.96,4819.17 L 6521.2,4808.37 L 6525.79,4827.84 L 6486.73,4838.33 L 6480.96,4819.17 L 6480.96,4819.17 Z " />
<path stroke="transparent" fill="#000000" transform="matrix(0.0833333 0 0 0.0833333 -169.208 -108)" d="M 6496.97,4872.27 L 6533.92,4862.36 L 6538.52,4881.83 L 6502.75,4891.43 L 6496.97,4872.27 L 6496.97,4872.27 Z " />
<path stroke="transparent" fill="#000000" transform="matrix(0.0833333 0 0 0.0833333 -169.208 -108)" d="M 6512.99,4925.38 L 6546.65,4916.34 L 6551.25,4935.82 L 6518.77,4944.54 L 6512.99,4925.38 L 6512.99,4925.38 Z " />
<path stroke="transparent" fill="#000000" transform="matrix(0.0833333 0 0 0.0833333 -169.208 -108)" d="M 6529.01,4978.48 L 6559.38,4970.33 L 6563.97,4989.81 L 6534.79,4997.64 L 6529.01,4978.48 L 6529.01,4978.48 Z " />
<path stroke="transparent" fill="#000000" transform="matrix(0.0833333 0 0 0.0833333 -169.208 -108)" d="M 6545.03,5031.59 L 6572.11,5024.32 L 6576.7,5043.79 L 6550.81,5050.74 L 6545.03,5031.59 L 6545.03,5031.59 Z " />
<path stroke="transparent" fill="#000000" transform="matrix(0.0833333 0 0 0.0833333 -169.208 -108)" d="M 6561.05,5084.69 L 6584.84,5078.31 L 6589.43,5097.78 L 6566.83,5103.85 L 6561.05,5084.69 L 6561.05,5084.69 Z " />
<path stroke="transparent" fill="#000000" transform="matrix(0.0833333 0 0 0.0833333 -169.208 -108)" d="M 6577.07,5137.8 L 6597.57,5132.29 L 6602.16,5151.77 L 6582.84,5156.95 L 6577.07,5137.8 L 6577.07,5137.8 Z " />
<path stroke="transparent" fill="#000000" transform="matrix(0.0833333 0 0 0.0833333 -169.208 -108)" d="M 5629.02,2637.25 L 5649.02,2625.73 L 5649.02,3126.32 L 5629.02,3126.32 L 5629.02,2637.25 Z " />
<path stroke="transparent" fill="#000000" transform="matrix(0.0833333 0 0 0.0833333 -169.208 -108)" d="M 6088.97,4915.86 L 6088.98,4904.29 L 6108.82,4904.29 L 6606.52,5194.96 L 6606.51,5206.54 L 6596.51,5212.28 L 6088.97,4915.86 L 6088.97,4915.86 Z " />
<path stroke="transparent" fill="#000000" transform="matrix(0.0833333 0 0 0.0833333 -169.208 -108)" d="M 7105.62,4904.29 L 7125.49,4904.29 L 7125.48,4915.86 L 6616.51,5212.29 L 6606.51,5206.54 L 6606.52,5194.96 L 7105.62,4904.29 L 7105.62,4904.29 Z " />
<path stroke="transparent" fill="#000000" transform="matrix(0.0833333 0 0 0.0833333 -169.208 -108)" d="M 6616.51,5801.05 L 6606.51,5811.05 L 6596.51,5801.05 L 6596.51,5474.06 L 6616.51,5478.25 L 6616.51,5801.05 L 6616.51,5801.05 Z " />
<path stroke="transparent" fill="#000000" transform="matrix(0.0833333 0 0 0.0833333 -169.208 -108)" d="M 6596.51,5212.28 L 6606.51,5206.54 L 6616.51,5212.29 L 6616.51,5309.93 L 6596.51,5306.97 L 6596.51,5212.28 L 6596.51,5212.28 Z " />
<path stroke="transparent" fill="#000000" transform="matrix(0.0833333 0 0 0.0833333 -169.208 -108)" d="M 6035.41,2348.03 L 6045.46,2365.32 L 5608.17,2619.33 L 5598.12,2602.03 L 6035.41,2348.03 Z " />
<path stroke="transparent" fill="#000000" transform="matrix(0.0833333 0 0 0.0833333 -169.208 -108)" d="M 6071.59,2410.31 L 6081.63,2427.6 L 5644.04,2681.78 L 5634,2664.48 L 6071.59,2410.31 Z " />
<path stroke="transparent" fill="#000000" transform="matrix(0.0833333 0 0 0.0833333 -169.208 -108)" d="M 5119.23,2341.59 L 5119.24,2330.03 L 5129.24,2324.27 L 5649.02,2625.73 L 5629.02,2637.25 L 5119.23,2341.59 Z " />
<path stroke="transparent" fill="#000000" transform="matrix(0.0833333 0 0 0.0833333 -169.208 -108)" d="M 5214.18,3511.86 L 5318.05,3451.77 L 5327.52,3469.4 L 5224.74,3528.85 L 5214.18,3511.86 L 5214.18,3511.86 Z " />
<path stroke="transparent" fill="#000000" transform="matrix(0.0833333 0 0 0.0833333 -169.208 -108)" d="M 5242.75,3557.85 L 5343.68,3499.46 L 5353.15,3517.09 L 5253.31,3574.84 L 5242.75,3557.85 L 5242.75,3557.85 Z " />
<path stroke="transparent" fill="#000000" transform="matrix(0.0833333 0 0 0.0833333 -169.208 -108)" d="M 5271.32,3603.83 L 5369.3,3547.16 L 5378.77,3564.78 L 5281.88,3620.83 L 5271.32,3603.83 L 5271.32,3603.83 Z " />
<path stroke="transparent" fill="#000000" transform="matrix(0.0833333 0 0 0.0833333 -169.208 -108)" d="M 5299.89,3649.82 L 5394.92,3594.85 L 5404.39,3612.48 L 5310.45,3666.82 L 5299.89,3649.82 L 5299.89,3649.82 Z " />
<path stroke="transparent" fill="#000000" transform="matrix(0.0833333 0 0 0.0833333 -169.208 -108)" d="M 5328.46,3695.81 L 5420.54,3642.55 L 5430.01,3660.17 L 5339.02,3712.81 L 5328.46,3695.81 L 5328.46,3695.81 Z " />
<path stroke="transparent" fill="#000000" transform="matrix(0.0833333 0 0 0.0833333 -169.208 -108)" d="M 5357.03,3741.8 L 5446.17,3690.24 L 5455.64,3707.87 L 5367.59,3758.8 L 5357.03,3741.8 L 5357.03,3741.8 Z " />
<path stroke="transparent" fill="#000000" transform="matrix(0.0833333 0 0 0.0833333 -169.208 -108)" d="M 5385.6,3787.79 L 5471.79,3737.93 L 5481.26,3755.56 L 5396.16,3804.79 L 5385.6,3787.79 L 5385.6,3787.79 Z " />
<path stroke="transparent" fill="#000000" transform="matrix(0.0833333 0 0 0.0833333 -169.208 -108)" d="M 5414.17,3833.78 L 5497.41,3785.63 L 5506.88,3803.25 L 5424.73,3850.78 L 5414.17,3833.78 L 5414.17,3833.78 Z " />
<path stroke="transparent" fill="#000000" transform="matrix(0.0833333 0 0 0.0833333 -169.208 -108)" d="M 5442.74,3879.77 L 5523.04,3833.32 L 5532.51,3850.95 L 5453.3,3896.77 L 5442.74,3879.77 L 5442.74,3879.77 Z " />
<path stroke="transparent" fill="#000000" transform="matrix(0.0833333 0 0 0.0833333 -169.208 -108)" d="M 5471.31,3925.76 L 5548.66,3881.02 L 5558.13,3898.64 L 5481.87,3942.76 L 5471.31,3925.76 L 5471.31,3925.76 Z " />
<path stroke="transparent" fill="#000000" transform="matrix(0.0833333 0 0 0.0833333 -169.208 -108)" d="M 5499.88,3971.75 L 5574.28,3928.71 L 5583.75,3946.34 L 5510.44,3988.75 L 5499.88,3971.75 L 5499.88,3971.75 Z " />
<path stroke="transparent" fill="#000000" transform="matrix(0.0833333 0 0 0.0833333 -169.208 -108)" d="M 5528.45,4017.74 L 5599.91,3976.4 L 5609.38,3994.03 L 5539.01,4034.73 L 5528.45,4017.74 L 5528.45,4017.74 Z " />
<path stroke="transparent" fill="#000000" transform="matrix(0.0833333 0 0 0.0833333 -169.208 -108)" d="M 5557.03,4063.73 L 5625.53,4024.1 L 5635,4041.73 L 5567.58,4080.72 L 5557.03,4063.73 L 5557.03,4063.73 Z " />
<path stroke="transparent" fill="#000000" transform="matrix(0.0833333 0 0 0.0833333 -169.208 -108)" d="M 5585.6,4109.72 L 5651.15,4071.79 L 5660.62,4089.42 L 5596.15,4126.71 L 5585.6,4109.72 L 5585.6,4109.72 Z " />
<path stroke="transparent" fill="#000000" transform="matrix(0.0833333 0 0 0.0833333 -169.208 -108)" d="M 5614.17,4155.71 L 5676.78,4119.49 L 5686.25,4137.11 L 5624.73,4172.7 L 5614.17,4155.71 L 5614.17,4155.71 Z " />
<path stroke="transparent" fill="#000000" transform="matrix(0.0833333 0 0 0.0833333 -169.208 -108)" d="M 5642.74,4201.69 L 5702.4,4167.18 L 5711.87,4184.81 L 5653.3,4218.69 L 5642.74,4201.69 L 5642.74,4201.69 Z " />
<path stroke="transparent" fill="#000000" transform="matrix(0.0833333 0 0 0.0833333 -169.208 -108)" d="M 5671.31,4247.68 L 5728.02,4214.88 L 5737.49,4232.5 L 5681.87,4264.68 L 5671.31,4247.68 L 5671.31,4247.68 Z " />
<path stroke="transparent" fill="#000000" transform="matrix(0.0833333 0 0 0.0833333 -169.208 -108)" d="M 5699.88,4293.67 L 5753.65,4262.57 L 5763.12,4280.2 L 5710.44,4310.67 L 5699.88,4293.67 L 5699.88,4293.67 Z " />
<path stroke="transparent" fill="#000000" transform="matrix(0.0833333 0 0 0.0833333 -169.208 -108)" d="M 5728.45,4339.66 L 5779.27,4310.26 L 5788.74,4327.89 L 5739.01,4356.66 L 5728.45,4339.66 L 5728.45,4339.66 Z " />
<path stroke="transparent" fill="#000000" transform="matrix(0.0833333 0 0 0.0833333 -169.208 -108)" d="M 5757.02,4385.65 L 5804.89,4357.96 L 5814.36,4375.58 L 5767.58,4402.65 L 5757.02,4385.65 L 5757.02,4385.65 Z " />
<path stroke="transparent" fill="#000000" transform="matrix(0.0833333 0 0 0.0833333 -169.208 -108)" d="M 5785.59,4431.64 L 5830.52,4405.65 L 5839.99,4423.28 L 5796.15,4448.64 L 5785.59,4431.64 L 5785.59,4431.64 Z " />
<path stroke="transparent" fill="#000000" transform="matrix(0.0833333 0 0 0.0833333 -169.208 -108)" d="M 5814.16,4477.63 L 5856.14,4453.35 L 5865.61,4470.97 L 5824.72,4494.63 L 5814.16,4477.63 L 5814.16,4477.63 Z " />
<path stroke="transparent" fill="#000000" transform="matrix(0.0833333 0 0 0.0833333 -169.208 -108)" d="M 5842.73,4523.62 L 5881.76,4501.04 L 5891.23,4518.67 L 5853.29,4540.62 L 5842.73,4523.62 L 5842.73,4523.62 Z " />
<path stroke="transparent" fill="#000000" transform="matrix(0.0833333 0 0 0.0833333 -169.208 -108)" d="M 5871.3,4569.61 L 5907.39,4548.73 L 5916.86,4566.36 L 5881.86,4586.61 L 5871.3,4569.61 L 5871.3,4569.61 Z " />
<path stroke="transparent" fill="#000000" transform="matrix(0.0833333 0 0 0.0833333 -169.208 -108)" d="M 5899.87,4615.6 L 5933.01,4596.43 L 5942.48,4614.06 L 5910.43,4632.59 L 5899.87,4615.6 L 5899.87,4615.6 Z " />
<path stroke="transparent" fill="#000000" transform="matrix(0.0833333 0 0 0.0833333 -169.208 -108)" d="M 5928.44,4661.59 L 5958.63,4644.12 L 5968.1,4661.75 L 5939,4678.58 L 5928.44,4661.59 L 5928.44,4661.59 Z " />
<path stroke="transparent" fill="#000000" transform="matrix(0.0833333 0 0 0.0833333 -169.208 -108)" d="M 5957.01,4707.58 L 5984.25,4691.82 L 5993.72,4709.44 L 5967.57,4724.57 L 5957.01,4707.58 L 5957.01,4707.58 Z " />
<path stroke="transparent" fill="#000000" transform="matrix(0.0833333 0 0 0.0833333 -169.208 -108)" d="M 5985.58,4753.57 L 6009.88,4739.51 L 6019.35,4757.14 L 5996.14,4770.56 L 5985.58,4753.57 L 5985.58,4753.57 Z " />
<path stroke="transparent" fill="#000000" transform="matrix(0.0833333 0 0 0.0833333 -169.208 -108)" d="M 6014.15,4799.55 L 6035.5,4787.2 L 6044.97,4804.83 L 6024.71,4816.55 L 6014.15,4799.55 L 6014.15,4799.55 Z " />
<path stroke="transparent" fill="#000000" transform="matrix(0.0833333 0 0 0.0833333 -169.208 -108)" d="M 6042.72,4845.54 L 6061.12,4834.9 L 6070.59,4852.53 L 6053.28,4862.54 L 6042.72,4845.54 L 6042.72,4845.54 Z " />
<path stroke="transparent" fill="#000000" transform="matrix(0.0833333 0 0 0.0833333 -169.208 -108)" d="M 5598.27,5200.8 L 5568.47,5206.54 L 5568.45,5194.99 L 6083.96,4895.64 L 6088.98,4904.29 L 6088.97,4915.86 L 5598.27,5200.8 Z " />
<path stroke="transparent" fill="#000000" transform="matrix(0.0833333 0 0 0.0833333 -169.208 -108)" d="M 6606.5,4590.6 L 6606.52,4613.75 L 6108.82,4904.29 L 6088.98,4904.29 L 6083.94,4895.65 L 6606.5,4590.6 Z " />
<path stroke="transparent" fill="#000000" transform="matrix(0.0833333 0 0 0.0833333 -169.208 -108)" d="M 6606.52,4613.75 L 6606.5,4590.6 L 7130.52,4895.64 L 7125.49,4904.29 L 7105.62,4904.29 L 6606.52,4613.75 Z " />
<path stroke="transparent" fill="#000000" transform="matrix(0.0833333 0 0 0.0833333 -169.208 -108)" d="M 7643.05,5194.98 L 7643.02,5206.54 L 7621.34,5205.46 L 7125.48,4915.86 L 7125.49,4904.29 L 7130.53,4895.65 L 7643.05,5194.98 Z " />
<path stroke="transparent" fill="#000000" transform="matrix(0.0833333 0 0 0.0833333 -169.208 -108)" d="M 7306.29,4471.17 L 7410.21,4531.18 L 7398.1,4547.28 L 7298.39,4489.71 L 7306.29,4471.17 Z " />
<path stroke="transparent" fill="#000000" transform="matrix(0.0833333 0 0 0.0833333 -169.208 -108)" d="M 7284.21,4523 L 7376.36,4576.21 L 7364.26,4592.31 L 7276.32,4541.53 L 7284.21,4523 Z " />
<path stroke="transparent" fill="#000000" transform="matrix(0.0833333 0 0 0.0833333 -169.208 -108)" d="M 7262.14,4574.82 L 7342.52,4621.23 L 7330.41,4637.34 L 7254.24,4593.36 L 7262.14,4574.82 Z " />
<path stroke="transparent" fill="#000000" transform="matrix(0.0833333 0 0 0.0833333 -169.208 -108)" d="M 7240.06,4626.64 L 7308.67,4666.26 L 7296.57,4682.36 L 7232.17,4645.18 L 7240.06,4626.64 Z " />
<path stroke="transparent" fill="#000000" transform="matrix(0.0833333 0 0 0.0833333 -169.208 -108)" d="M 7217.99,4678.47 L 7274.83,4711.29 L 7262.72,4727.39 L 7210.09,4697 L 7217.99,4678.47 Z " />
<path stroke="transparent" fill="#000000" transform="matrix(0.0833333 0 0 0.0833333 -169.208 -108)" d="M 7195.91,4730.29 L 7240.98,4756.31 L 7228.87,4772.42 L 7188.01,4748.83 L 7195.91,4730.29 Z " />
<path stroke="transparent" fill="#000000" transform="matrix(0.0833333 0 0 0.0833333 -169.208 -108)" d="M 7173.83,4782.11 L 7207.13,4801.34 L 7195.03,4817.45 L 7165.94,4800.65 L 7173.83,4782.11 Z " />
<path stroke="transparent" fill="#000000" transform="matrix(0.0833333 0 0 0.0833333 -169.208 -108)" d="M 7151.76,4833.94 L 7173.29,4846.37 L 7161.18,4862.47 L 7143.86,4852.47 L 7151.76,4833.94 Z " />
<path stroke="transparent" fill="#000000" transform="matrix(0.0833333 0 0 0.0833333 -169.208 -108)" d="M 5676.47,5821.05 L 5676.47,5801.05 L 6596.51,5801.05 L 6606.51,5811.05 L 6606.51,5821.05 L 5676.47,5821.05 Z " />
<path stroke="transparent" fill="#000000" transform="matrix(0.0833333 0 0 0.0833333 -169.208 -108)" d="M 7535.02,5801.05 L 7535.02,5821.05 L 6606.51,5821.05 L 6606.51,5811.05 L 6616.51,5801.05 L 7535.02,5801.05 L 7535.02,5801.05 Z " />
<path stroke="transparent" fill="#000000" transform="matrix(0.0833333 0 0 0.0833333 -169.208 -108)" d="M 6666.51,6308.38 L 6546.51,6308.38 L 6548.77,6288.38 L 6664.25,6288.38 L 6666.51,6308.38 L 6666.51,6308.38 Z " />
<path stroke="transparent" fill="#000000" transform="matrix(0.0833333 0 0 0.0833333 -169.208 -108)" d="M 6659.69,6247.91 L 6553.33,6247.91 L 6555.59,6227.91 L 6657.43,6227.91 L 6659.69,6247.91 L 6659.69,6247.91 Z " />
<path stroke="transparent" fill="#000000" transform="matrix(0.0833333 0 0 0.0833333 -169.208 -108)" d="M 6652.87,6187.44 L 6560.15,6187.44 L 6562.41,6167.44 L 6650.61,6167.44 L 6652.87,6187.44 L 6652.87,6187.44 Z " />
<path stroke="transparent" fill="#000000" transform="matrix(0.0833333 0 0 0.0833333 -169.208 -108)" d="M 6646.05,6126.97 L 6566.97,6126.97 L 6569.23,6106.97 L 6643.79,6106.97 L 6646.05,6126.97 L 6646.05,6126.97 Z " />
<path stroke="transparent" fill="#000000" transform="matrix(0.0833333 0 0 0.0833333 -169.208 -108)" d="M 6639.23,6066.5 L 6573.79,6066.5 L 6576.05,6046.5 L 6636.97,6046.5 L 6639.23,6066.5 L 6639.23,6066.5 Z " />
<path stroke="transparent" fill="#000000" transform="matrix(0.0833333 0 0 0.0833333 -169.208 -108)" d="M 6632.41,6006.03 L 6580.61,6006.03 L 6582.87,5986.03 L 6630.15,5986.03 L 6632.41,6006.03 L 6632.41,6006.03 Z " />
<path stroke="transparent" fill="#000000" transform="matrix(0.0833333 0 0 0.0833333 -169.208 -108)" d="M 6625.59,5945.56 L 6587.43,5945.56 L 6589.69,5925.56 L 6623.33,5925.56 L 6625.59,5945.56 L 6625.59,5945.56 Z " />
<path stroke="transparent" fill="#000000" transform="matrix(0.0833333 0 0 0.0833333 -169.208 -108)" d="M 6618.77,5885.09 L 6594.25,5885.09 L 6596.51,5865.09 L 6616.51,5865.09 L 6618.77,5885.09 L 6618.77,5885.09 Z " />
<path stroke="transparent" fill="#000000" transform="matrix(0.0833333 0 0 0.0833333 -169.208 -108)" d="M 5109.24,1735.83 L 5129.24,1724.24 L 5129.24,2324.27 L 5119.24,2330.03 L 5109.24,2324.26 L 5109.24,1735.83 Z " />
<path stroke="transparent" fill="#000000" transform="matrix(0.0833333 0 0 0.0833333 -169.208 -108)" d="M 5037.24,1771.76 L 5057.24,1771.76 L 5057.24,2288.5 L 5037.24,2288.5 L 5037.24,1771.76 Z " />
<path stroke="transparent" fill="#000000" transform="matrix(0.0833333 0 0 0.0833333 -169.208 -108)" d="M 4598.13,2643.05 L 4598.16,2619.92 L 5109.24,2324.26 L 5119.24,2330.03 L 5119.23,2341.59 L 4598.13,2643.05 Z " />
<path stroke="transparent" fill="#000000" transform="matrix(0.0833333 0 0 0.0833333 -169.208 -108)" d="M 4707.98,3675.91 L 4686.07,3677.01 L 4686.08,3665.46 L 5100.89,3425.88 L 5110.9,3443.2 L 4707.98,3675.91 Z " />
<path stroke="transparent" fill="#000000" transform="matrix(0.0833333 0 0 0.0833333 -169.208 -108)" d="M 5578.47,5705.88 L 5558.47,5705.88 L 5558.47,5212.32 L 5568.47,5206.54 L 5578.47,5218.86 L 5578.47,5705.88 Z " />
<path stroke="transparent" fill="#000000" transform="matrix(0.0833333 0 0 0.0833333 -169.208 -108)" d="M 5044.35,4916 L 5054.34,4898.68 L 5568.45,5194.99 L 5568.47,5206.54 L 5558.47,5212.32 L 5044.35,4916 Z " />
<path stroke="transparent" fill="#000000" transform="matrix(0.0833333 0 0 0.0833333 -169.208 -108)" d="M 7136.57,5426.15 L 7157.47,5551.92 L 5578.47,5218.86 L 5568.47,5206.54 L 5598.27,5200.8 L 7136.57,5426.15 Z " />
<path stroke="transparent" fill="#000000" transform="matrix(0.0833333 0 0 0.0833333 -169.208 -108)" d="M 7653.02,5705.88 L 7633.02,5705.88 L 7633.02,5225.49 L 7643.02,5206.54 L 7653.02,5212.32 L 7653.02,5705.88 Z " />
<path stroke="transparent" fill="#000000" transform="matrix(0.0833333 0 0 0.0833333 -169.208 -108)" d="M 7157.47,5551.92 L 7136.57,5426.15 L 7621.34,5205.46 L 7643.02,5206.54 L 7633.02,5225.49 L 7157.47,5551.92 Z " />
<path stroke="transparent" fill="#000000" transform="matrix(0.0833333 0 0 0.0833333 -169.208 -108)" d="M 8057.37,4956.12 L 8067.36,4973.44 L 7653.02,5212.32 L 7643.02,5206.54 L 7643.05,5194.98 L 8057.37,4956.12 Z " />
<path stroke="transparent" fill="#000000" transform="matrix(0.0833333 0 0 0.0833333 -169.208 -108)" d="M 4598.16,1443.02 L 4598.13,1419.95 L 5129.24,1724.24 L 5109.24,1735.83 L 4598.16,1443.02 Z " />
<path stroke="transparent" fill="#000000" transform="matrix(0.0833333 0 0 0.0833333 -169.208 -108)" d="M 4070.04,2335.78 L 4090.04,2324.28 L 4598.16,2619.92 L 4598.13,2643.05 L 4070.04,2335.78 Z " />
<path stroke="transparent" fill="#000000" transform="matrix(0.0833333 0 0 0.0833333 -169.208 -108)" d="M 4146.94,2297.31 L 4157,2280.02 L 4603.28,2539.68 L 4593.22,2556.97 L 4146.94,2297.31 Z " />
<path stroke="transparent" fill="#000000" transform="matrix(0.0833333 0 0 0.0833333 -169.208 -108)" d="M 4696.07,4171.85 L 4676.07,4171.85 L 4676.07,3682.78 L 4686.07,3677.01 L 4696.07,3696.55 L 4696.07,4171.85 Z " />
<path stroke="transparent" fill="#000000" transform="matrix(0.0833333 0 0 0.0833333 -169.208 -108)" d="M 4167.95,3388.56 L 4167.96,3377.01 L 4178.53,3371.58 L 4686.08,3665.46 L 4686.07,3677.01 L 4676.07,3682.78 L 4167.95,3388.56 Z " />
<path stroke="transparent" fill="#000000" transform="matrix(0.0833333 0 0 0.0833333 -169.208 -108)" d="M 5132.48,3865.56 L 5072.46,3969.47 L 4696.07,3696.55 L 4686.07,3677.01 L 4707.98,3675.91 L 5132.48,3865.56 Z " />
<path stroke="transparent" fill="#000000" transform="matrix(0.0833333 0 0 0.0833333 -169.208 -108)" d="M 4090.04,1735.81 L 4080.04,1730.03 L 4080.03,1718.49 L 4598.13,1419.95 L 4598.16,1443.02 L 4090.04,1735.81 Z " />
<path stroke="transparent" fill="#000000" transform="matrix(0.0833333 0 0 0.0833333 -169.208 -108)" d="M 4156.79,1780.17 L 4146.8,1762.84 L 4593.26,1505.58 L 4603.24,1522.91 L 4156.79,1780.17 Z " />
<path stroke="transparent" fill="#000000" transform="matrix(0.0833333 0 0 0.0833333 -169.208 -108)" d="M 4070.04,1735.82 L 4080.04,1730.03 L 4090.04,1735.81 L 4090.04,2324.28 L 4070.04,2335.78 L 4070.04,1735.82 Z " />
<path stroke="transparent" fill="#000000" transform="matrix(0.0833333 0 0 0.0833333 -169.208 -108)" d="M 4167.98,4588.41 L 4167.95,4565.32 L 4581.51,4325.97 L 4591.53,4343.28 L 4167.98,4588.41 Z " />
<path stroke="transparent" fill="#000000" transform="matrix(0.0833333 0 0 0.0833333 -169.208 -108)" d="M 4107.96,2896.85 L 4227.96,2896.85 L 4178.53,3371.58 L 4167.96,3377.01 L 4157.4,3371.56 L 4107.96,2896.85 Z " />
<path stroke="transparent" fill="#000000" transform="matrix(0.0833333 0 0 0.0833333 -169.208 -108)" d="M 3656.87,3682.79 L 3636.87,3671.23 L 4157.4,3371.56 L 4167.96,3377.01 L 4167.95,3388.56 L 3656.87,3682.79 Z " />
<path stroke="transparent" fill="#000000" transform="matrix(0.0833333 0 0 0.0833333 -169.208 -108)" d="M 3655.62,1497.69 L 3665.58,1480.35 L 4080.03,1718.49 L 4080.04,1730.03 L 4070.04,1735.82 L 3655.62,1497.69 Z " />
<path stroke="transparent" fill="#000000" transform="matrix(0.0833333 0 0 0.0833333 -169.208 -108)" d="M 4227.96,5122.78 L 4107.96,5122.78 L 4110,5102.78 L 4225.93,5102.78 L 4227.96,5122.78 Z " />
<path stroke="transparent" fill="#000000" transform="matrix(0.0833333 0 0 0.0833333 -169.208 -108)" d="M 4221.97,5063.8 L 4113.96,5063.8 L 4115.99,5043.8 L 4219.94,5043.8 L 4221.97,5063.8 Z " />
<path stroke="transparent" fill="#000000" transform="matrix(0.0833333 0 0 0.0833333 -169.208 -108)" d="M 4215.97,5004.82 L 4119.96,5004.82 L 4121.99,4984.82 L 4213.94,4984.82 L 4215.97,5004.82 Z " />
<path stroke="transparent" fill="#000000" transform="matrix(0.0833333 0 0 0.0833333 -169.208 -108)" d="M 4209.98,4945.84 L 4125.95,4945.84 L 4127.99,4925.84 L 4207.94,4925.84 L 4209.98,4945.84 Z " />
<path stroke="transparent" fill="#000000" transform="matrix(0.0833333 0 0 0.0833333 -169.208 -108)" d="M 4203.98,4886.87 L 4131.95,4886.87 L 4133.98,4866.87 L 4201.95,4866.87 L 4203.98,4886.87 Z " />
<path stroke="transparent" fill="#000000" transform="matrix(0.0833333 0 0 0.0833333 -169.208 -108)" d="M 4197.99,4827.89 L 4137.94,4827.89 L 4139.98,4807.89 L 4195.95,4807.89 L 4197.99,4827.89 Z " />
<path stroke="transparent" fill="#000000" transform="matrix(0.0833333 0 0 0.0833333 -169.208 -108)" d="M 4191.99,4768.91 L 4143.94,4768.91 L 4145.97,4748.91 L 4189.96,4748.91 L 4191.99,4768.91 Z " />
<path stroke="transparent" fill="#000000" transform="matrix(0.0833333 0 0 0.0833333 -169.208 -108)" d="M 4185.99,4709.94 L 4149.94,4709.94 L 4151.97,4689.94 L 4183.96,4689.94 L 4185.99,4709.94 Z " />
<path stroke="transparent" fill="#000000" transform="matrix(0.0833333 0 0 0.0833333 -169.208 -108)" d="M 4180,4650.96 L 4155.93,4650.96 L 4157.96,4630.96 L 4177.96,4630.96 L 4180,4650.96 Z " />
<path stroke="transparent" fill="#000000" transform="matrix(0.0833333 0 0 0.0833333 -169.208 -108)" d="M 3647.43,4288.87 L 3646.87,4277.01 L 3656.87,4271.23 L 4167.95,4565.32 L 4167.98,4588.41 L 3647.43,4288.87 Z " />
<path stroke="transparent" fill="#000000" transform="matrix(0.0833333 0 0 0.0833333 -169.208 -108)" d="M 3656.87,4271.23 L 3646.87,4277.01 L 3636.87,4270.6 L 3636.87,3671.23 L 3656.87,3682.79 L 3656.87,4271.23 Z " />
<path stroke="transparent" fill="#000000" transform="matrix(0.0833333 0 0 0.0833333 -169.208 -108)" d="M 3197.27,3486.72 L 3257.27,3382.8 L 3273.42,3394.81 L 3215.75,3494.71 L 3197.27,3486.72 Z " />
<path stroke="transparent" fill="#000000" transform="matrix(0.0833333 0 0 0.0833333 -169.208 -108)" d="M 3251.45,3510.14 L 3304.64,3418.02 L 3320.8,3430.03 L 3269.94,3518.13 L 3251.45,3510.14 Z " />
<path stroke="transparent" fill="#000000" transform="matrix(0.0833333 0 0 0.0833333 -169.208 -108)" d="M 3305.64,3533.56 L 3352.02,3453.23 L 3368.18,3465.24 L 3324.12,3541.55 L 3305.64,3533.56 Z " />
<path stroke="transparent" fill="#000000" transform="matrix(0.0833333 0 0 0.0833333 -169.208 -108)" d="M 3359.83,3556.98 L 3399.39,3488.45 L 3415.55,3500.46 L 3378.31,3564.97 L 3359.83,3556.98 Z " />
<path stroke="transparent" fill="#000000" transform="matrix(0.0833333 0 0 0.0833333 -169.208 -108)" d="M 3414.02,3580.4 L 3446.77,3523.67 L 3462.93,3535.68 L 3432.5,3588.39 L 3414.02,3580.4 Z " />
<path stroke="transparent" fill="#000000" transform="matrix(0.0833333 0 0 0.0833333 -169.208 -108)" d="M 3468.2,3603.82 L 3494.15,3558.88 L 3510.31,3570.89 L 3486.68,3611.81 L 3468.2,3603.82 Z " />
<path stroke="transparent" fill="#000000" transform="matrix(0.0833333 0 0 0.0833333 -169.208 -108)" d="M 3522.39,3627.24 L 3541.52,3594.1 L 3557.68,3606.11 L 3540.87,3635.23 L 3522.39,3627.24 Z " />
<path stroke="transparent" fill="#000000" transform="matrix(0.0833333 0 0 0.0833333 -169.208 -108)" d="M 3576.58,3650.66 L 3588.9,3629.31 L 3605.06,3641.32 L 3595.06,3658.65 L 3576.58,3650.66 Z " />
<path stroke="transparent" fill="#000000" transform="matrix(0.0833333 0 0 0.0833333 -169.208 -108)" d="M 3745.99,5431.43 L 3736.01,5414.1 L 4162.97,5168.2 L 4172.96,5185.53 L 3745.99,5431.43 Z " />
<path stroke="transparent" fill="#000000" transform="matrix(0.0833333 0 0 0.0833333 -169.208 -108)" d="M 3249.85,4575.39 L 3189.87,4471.45 L 3636.87,4270.6 L 3646.87,4277.01 L 3647.43,4288.87 L 3249.85,4575.39 Z " />
<path stroke="transparent" fill="#000000" transform="matrix(0.0833333 0 0 0.0833333 -169.208 -108)" d="M 3658.33,6081.91 L 3638.33,6070.37 L 3638.33,5595.97 L 3658.33,5595.97 L 3658.33,6081.91 Z " />
<path stroke="transparent" fill="#000000" transform="matrix(0.0833333 0 0 0.0833333 -169.208 -108)" d="M 4098.45,6283.46 L 4088.43,6300.77 L 3643.32,6043.17 L 3653.34,6025.86 L 4098.45,6283.46 Z " />
<path stroke="transparent" fill="#000000" transform="matrix(0.0833333 0 0 0.0833333 -169.208 -108)" d="M 4062.36,6345.82 L 4052.35,6363.13 L 3607.36,6105.61 L 3617.38,6088.3 L 4062.36,6345.82 Z " />
<path stroke="transparent" fill="#000000" transform="matrix(0.0833333 0 0 0.0833333 -169.208 -108)" d="M 3138.76,6382.63 L 3128.76,6376.87 L 3128.76,6365.31 L 3638.33,6070.37 L 3658.33,6081.91 L 3138.76,6382.63 Z " />
<path stroke="transparent" fill="#000000" transform="matrix(0.0833333 0 0 0.0833333 -169.208 -108)" d="M 2609.13,6087.69 L 2609.13,6064.59 L 3128.76,6365.31 L 3128.76,6376.87 L 3118.76,6382.63 L 2609.13,6087.69 Z " />
<path stroke="transparent" fill="#000000" transform="matrix(0.0833333 0 0 0.0833333 -169.208 -108)" d="M 2604.12,6168.04 L 2614.14,6150.73 L 3061.73,6409.76 L 3051.71,6427.07 L 2604.12,6168.04 Z " />
<path stroke="transparent" fill="#000000" transform="matrix(0.0833333 0 0 0.0833333 -169.208 -108)" d="M 3138.76,6982.65 L 3118.76,6971.09 L 3118.76,6382.63 L 3128.76,6376.87 L 3138.76,6382.63 L 3138.76,6982.65 Z " />
<path stroke="transparent" fill="#000000" transform="matrix(0.0833333 0 0 0.0833333 -169.208 -108)" d="M 2099.57,6382.63 L 2079.57,6371.1 L 2609.13,6064.59 L 2609.13,6087.69 L 2099.57,6382.63 Z " />
<path stroke="transparent" fill="#000000" transform="matrix(0.0833333 0 0 0.0833333 -169.208 -108)" d="M 2609.13,7287.68 L 2609.13,7264.6 L 3118.76,6971.09 L 3138.76,6982.65 L 2609.13,7287.68 Z " />
<path stroke="transparent" fill="#000000" transform="matrix(0.0833333 0 0 0.0833333 -169.208 -108)" d="M 2614.12,7201.76 L 2604.14,7184.43 L 3051.82,6926.61 L 3061.8,6943.94 L 2614.12,7201.76 Z " />
<path stroke="transparent" fill="#000000" transform="matrix(0.0833333 0 0 0.0833333 -169.208 -108)" d="M 2099.57,6971.09 L 2079.57,6982.65 L 2079.57,6371.1 L 2099.57,6382.63 L 2099.57,6971.09 Z " />
<path stroke="transparent" fill="#000000" transform="matrix(0.0833333 0 0 0.0833333 -169.208 -108)" d="M 2171.57,6935.25 L 2151.57,6935.25 L 2151.57,6418.38 L 2171.57,6418.38 L 2171.57,6935.25 Z " />
<path stroke="transparent" fill="#000000" transform="matrix(0.0833333 0 0 0.0833333 -169.208 -108)" d="M 2079.57,6982.65 L 2099.57,6971.09 L 2609.13,7264.6 L 2609.13,7287.68 L 2079.57,6982.65 Z " />
</svg>
