<?xml version="1.0" standalone="no" ?>
<!DOCTYPE svg PUBLIC "-//W3C//DTD SVG 1.1//EN" "http://www.w3.org/Graphics/SVG/1.1/DTD/svg11.dtd">
<svg width="270px" height="271px" viewBox="0 0 270 271" style="background-color: #ffffff00" xmlns="http://www.w3.org/2000/svg" xmlns:xlink="http://www.w3.org/1999/xlink" version="1.1" >
<text x="0" y="0" stroke="transparent" fill="#000000" transform="matrix(0.0666667 0 0 0.0666667 229.852 224.418)" style="font:normal normal normal 200px 'Arial'" >
S</text>
<text x="0" y="0" stroke="transparent" fill="#000000" transform="matrix(0.0666667 0 0 0.0666667 100.15 267.579)" style="font:normal normal normal 200px 'Arial'" >
HO</text>
<text x="0" y="0" stroke="transparent" fill="#000000" transform="matrix(0.0666667 0 0 0.0666667 48.9981 197.174)" style="font:normal normal normal 200px 'Arial'" >
HO</text>
<text x="0" y="0" stroke="transparent" fill="#000000" transform="matrix(0.0666667 0 0 0.0666667 160.183 177.174)" style="font:normal normal normal 200px 'Arial'" >
O</text>
<text x="0" y="0" stroke="transparent" fill="#000000" transform="matrix(0.0666667 0 0 0.0666667 110.179 126.774)" style="font:normal normal normal 200px 'Arial'" >
N</text>
<text x="0" y="0" stroke="transparent" fill="#000000" transform="matrix(0.0666667 0 0 0.0666667 110.179 62.0513)" style="font:normal normal normal 200px 'Arial'" >
N</text>
<text x="0" y="0" stroke="transparent" fill="#000000" transform="matrix(0.0666667 0 0 0.0666667 37.4949 14.4101)" style="font:normal normal normal 200px 'Arial'" >
NH</text>
<text x="0" y="0" stroke="transparent" fill="#000000" transform="matrix(0.0666667 0 0 0.0666667 56.7527 17.3434)" style="font:normal normal normal 150px 'Arial'" >
2</text>
<text x="0" y="0" stroke="transparent" fill="#000000" transform="matrix(0.0666667 0 0 0.0666667 2.8573 74.4101)" style="font:normal normal normal 200px 'Arial'" >
N</text>
<text x="0" y="0" stroke="transparent" fill="#000000" transform="matrix(0.0666667 0 0 0.0666667 37.4949 134.41)" style="font:normal normal normal 200px 'Arial'" >
N</text>
<path stroke="transparent" fill="#000000" transform="matrix(0.0666667 0 0 0.0666667 -213.853 -258)" d="M 6178,7411.4 L 6169.87,7393.13 L 6617.47,7193.88 L 6625.6,7212.15 L 6178,7411.4 Z " />
<path stroke="transparent" fill="#000000" transform="matrix(0.0666667 0 0 0.0666667 -213.853 -258)" d="M 6165.44,7321.93 L 6094.91,7419.01 L 6079.92,7405.61 L 6148.07,7311.82 L 6165.44,7321.93 Z " />
<path stroke="transparent" fill="#000000" transform="matrix(0.0666667 0 0 0.0666667 -213.853 -258)" d="M 6114.21,7292.12 L 6050.72,7379.5 L 6035.74,7366.1 L 6096.83,7282.01 L 6114.21,7292.12 Z " />
<path stroke="transparent" fill="#000000" transform="matrix(0.0666667 0 0 0.0666667 -213.853 -258)" d="M 6062.97,7262.3 L 6006.54,7339.98 L 5991.55,7326.58 L 6045.6,7252.19 L 6062.97,7262.3 Z " />
<path stroke="transparent" fill="#000000" transform="matrix(0.0666667 0 0 0.0666667 -213.853 -258)" d="M 6011.74,7232.49 L 5962.35,7300.47 L 5947.36,7287.07 L 5994.36,7222.38 L 6011.74,7232.49 Z " />
<path stroke="transparent" fill="#000000" transform="matrix(0.0666667 0 0 0.0666667 -213.853 -258)" d="M 5960.5,7202.68 L 5918.16,7260.95 L 5903.18,7247.55 L 5943.13,7192.56 L 5960.5,7202.68 Z " />
<path stroke="transparent" fill="#000000" transform="matrix(0.0666667 0 0 0.0666667 -213.853 -258)" d="M 5909.27,7172.86 L 5873.98,7221.44 L 5858.99,7208.04 L 5891.89,7162.75 L 5909.27,7172.86 Z " />
<path stroke="transparent" fill="#000000" transform="matrix(0.0666667 0 0 0.0666667 -213.853 -258)" d="M 5858.03,7143.05 L 5829.79,7181.92 L 5814.8,7168.52 L 5840.66,7132.94 L 5858.03,7143.05 Z " />
<path stroke="transparent" fill="#000000" transform="matrix(0.0666667 0 0 0.0666667 -213.853 -258)" d="M 5806.8,7113.23 L 5785.6,7142.41 L 5770.62,7129.01 L 5789.42,7103.12 L 5806.8,7113.23 Z " />
<path stroke="transparent" fill="#000000" transform="matrix(0.0666667 0 0 0.0666667 -213.853 -258)" d="M 5755.56,7083.42 L 5741.42,7102.89 L 5726.43,7089.49 L 5738.19,7073.31 L 5755.56,7083.42 Z " />
<path stroke="transparent" fill="#000000" transform="matrix(0.0666667 0 0 0.0666667 -213.853 -258)" d="M 5126.43,7242.82 L 5117.93,7235.06 L 5121.75,7223.31 L 5678.55,7042.34 L 5698.55,7056.87 L 5126.43,7242.82 Z " />
<path stroke="transparent" fill="#000000" transform="matrix(0.0666667 0 0 0.0666667 -213.853 -258)" d="M 5022.25,7723.6 L 4908.12,7686.51 L 5106.5,7236.34 L 5117.93,7235.06 L 5126.43,7242.82 L 5022.25,7723.6 Z " />
<path stroke="transparent" fill="#000000" transform="matrix(0.0666667 0 0 0.0666667 -213.853 -258)" d="M 4760.46,6760.09 L 4765.21,6749.61 L 4777.57,6749.61 L 5121.75,7223.31 L 5117.93,7235.06 L 5106.5,7236.34 L 4760.46,6760.09 Z " />
<path stroke="transparent" fill="#000000" transform="matrix(0.0666667 0 0 0.0666667 -213.853 -258)" d="M 4273.77,6809.61 L 4273.77,6689.61 L 4760.46,6739.13 L 4765.21,6749.61 L 4760.46,6760.09 L 4273.77,6809.61 Z " />
<path stroke="transparent" fill="#000000" transform="matrix(0.0666667 0 0 0.0666667 -213.853 -258)" d="M 5114.11,6252.47 L 5121.75,6275.98 L 4777.57,6749.61 L 4765.21,6749.61 L 4760.46,6739.13 L 5114.11,6252.47 Z " />
<path stroke="transparent" fill="#000000" transform="matrix(0.0666667 0 0 0.0666667 -213.853 -258)" d="M 5590.05,6407.09 L 5583.87,6426.11 L 5121.75,6275.98 L 5114.11,6252.47 L 5590.05,6407.09 Z " />
<path stroke="transparent" fill="#000000" transform="matrix(0.0666667 0 0 0.0666667 -213.853 -258)" d="M 5678.55,6569.44 L 5698.55,6569.44 L 5698.55,7056.87 L 5678.55,7042.34 L 5678.55,6569.44 Z " />
<path stroke="transparent" fill="#000000" transform="matrix(0.0666667 0 0 0.0666667 -213.853 -258)" d="M 4915.81,5836.45 L 5029.94,5799.36 L 5033.83,5819.12 L 4924.29,5854.73 L 4915.81,5836.45 Z " />
<path stroke="transparent" fill="#000000" transform="matrix(0.0666667 0 0 0.0666667 -213.853 -258)" d="M 4939.73,5888.05 L 5040.93,5855.16 L 5044.82,5874.93 L 4948.21,5906.33 L 4939.73,5888.05 Z " />
<path stroke="transparent" fill="#000000" transform="matrix(0.0666667 0 0 0.0666667 -213.853 -258)" d="M 4963.65,5939.65 L 5051.91,5910.97 L 5055.8,5930.73 L 4972.12,5957.93 L 4963.65,5939.65 Z " />
<path stroke="transparent" fill="#000000" transform="matrix(0.0666667 0 0 0.0666667 -213.853 -258)" d="M 4987.57,5991.25 L 5062.9,5966.77 L 5066.79,5986.53 L 4996.04,6009.53 L 4987.57,5991.25 Z " />
<path stroke="transparent" fill="#000000" transform="matrix(0.0666667 0 0 0.0666667 -213.853 -258)" d="M 5011.49,6042.85 L 5073.89,6022.57 L 5077.78,6042.34 L 5019.96,6061.13 L 5011.49,6042.85 Z " />
<path stroke="transparent" fill="#000000" transform="matrix(0.0666667 0 0 0.0666667 -213.853 -258)" d="M 5035.41,6094.45 L 5084.88,6078.37 L 5088.77,6098.14 L 5043.88,6112.73 L 5035.41,6094.45 Z " />
<path stroke="transparent" fill="#000000" transform="matrix(0.0666667 0 0 0.0666667 -213.853 -258)" d="M 5059.33,6146.05 L 5095.86,6134.18 L 5099.75,6153.94 L 5067.8,6164.33 L 5059.33,6146.05 Z " />
<path stroke="transparent" fill="#000000" transform="matrix(0.0666667 0 0 0.0666667 -213.853 -258)" d="M 5083.25,6197.65 L 5106.85,6189.98 L 5110.74,6209.75 L 5091.72,6215.93 L 5083.25,6197.65 Z " />
<path stroke="transparent" fill="#000000" transform="matrix(0.0666667 0 0 0.0666667 -213.853 -258)" d="M 5272.77,5208.15 L 5297.49,5208.15 L 5013.3,5599.36 L 4997.12,5587.61 L 5272.77,5208.15 Z " />
<path stroke="transparent" fill="#000000" transform="matrix(0.0666667 0 0 0.0666667 -213.853 -258)" d="M 5003.94,4838.14 L 5020.12,4826.39 L 5297.49,5208.15 L 5272.77,5208.15 L 5003.94,4838.14 Z " />
<path stroke="transparent" fill="#000000" transform="matrix(0.0666667 0 0 0.0666667 -213.853 -258)" d="M 4945.7,4880.46 L 4961.88,4868.71 L 5204.23,5202.28 L 5188.05,5214.03 L 4945.7,4880.46 Z " />
<path stroke="transparent" fill="#000000" transform="matrix(0.0666667 0 0 0.0666667 -213.853 -258)" d="M 4371.86,4915.42 L 4361.86,4908.15 L 4363,4897.27 L 4820.07,4748.77 L 4826.25,4767.79 L 4371.86,4915.42 Z " />
<path stroke="transparent" fill="#000000" transform="matrix(0.0666667 0 0 0.0666667 -213.853 -258)" d="M 3842.22,4619.7 L 3842.22,4608.15 L 3852.22,4602.38 L 4363,4897.27 L 4361.86,4908.15 L 4351.86,4913.93 L 3842.22,4619.7 Z " />
<path stroke="transparent" fill="#000000" transform="matrix(0.0666667 0 0 0.0666667 -213.853 -258)" d="M 3837.23,4699.95 L 3847.23,4682.63 L 4294.86,4941.06 L 4284.86,4958.38 L 3837.23,4699.95 Z " />
<path stroke="transparent" fill="#000000" transform="matrix(0.0666667 0 0 0.0666667 -213.853 -258)" d="M 3832.22,4127.32 L 3852.22,4127.32 L 3852.22,4602.38 L 3842.22,4608.15 L 3832.22,4602.38 L 3832.22,4127.32 Z " />
<path stroke="transparent" fill="#000000" transform="matrix(0.0666667 0 0 0.0666667 -213.853 -258)" d="M 3431.51,4856.85 L 3421.51,4839.53 L 3832.22,4602.38 L 3842.22,4608.15 L 3842.22,4619.7 L 3431.51,4856.85 Z " />
<path stroke="transparent" fill="#000000" transform="matrix(0.0666667 0 0 0.0666667 -213.853 -258)" d="M 3332.66,5502.38 L 3312.66,5513.93 L 3312.66,5025.32 L 3332.66,5025.32 L 3332.66,5502.38 Z " />
<path stroke="transparent" fill="#000000" transform="matrix(0.0666667 0 0 0.0666667 -213.853 -258)" d="M 3404.66,5466.59 L 3384.66,5466.59 L 3384.66,5025.32 L 3404.66,5025.32 L 3404.66,5466.59 Z " />
<path stroke="transparent" fill="#000000" transform="matrix(0.0666667 0 0 0.0666667 -213.853 -258)" d="M 3743.38,5739.53 L 3733.38,5756.85 L 3312.66,5513.93 L 3332.66,5502.38 L 3743.38,5739.53 Z " />
<path stroke="transparent" fill="#000000" transform="matrix(0.0666667 0 0 0.0666667 -213.853 -258)" d="M 4351.86,5502.38 L 4361.86,5508.15 L 4363,5519.04 L 3951.07,5756.86 L 3941.07,5739.54 L 4351.86,5502.38 Z " />
<path stroke="transparent" fill="#000000" transform="matrix(0.0666667 0 0 0.0666667 -213.853 -258)" d="M 4284.86,5457.92 L 4294.86,5475.24 L 3915.07,5694.5 L 3905.07,5677.18 L 4284.86,5457.92 Z " />
<path stroke="transparent" fill="#000000" transform="matrix(0.0666667 0 0 0.0666667 -213.853 -258)" d="M 4371.86,5500.89 L 4361.86,5508.15 L 4351.86,5502.38 L 4351.86,4913.93 L 4361.86,4908.15 L 4371.86,4915.42 L 4371.86,5500.89 Z " />
<path stroke="transparent" fill="#000000" transform="matrix(0.0666667 0 0 0.0666667 -213.853 -258)" d="M 4363,5519.04 L 4361.86,5508.15 L 4371.86,5500.89 L 4828.41,5649.27 L 4822.23,5668.29 L 4363,5519.04 Z " />
<path stroke="transparent" fill="#000000" transform="matrix(0.0666667 0 0 0.0666667 -213.853 -258)" d="M 7213.34,7502.83 L 7201.58,7519.01 L 6810.19,7234.64 L 6821.94,7218.46 L 7213.34,7502.83 Z " />
</svg>
