<?xml version="1.0" standalone="no" ?>
<!DOCTYPE svg PUBLIC "-//W3C//DTD SVG 1.1//EN" "http://www.w3.org/Graphics/SVG/1.1/DTD/svg11.dtd">
<svg width="416px" height="181px" viewBox="0 0 416 181" style="background-color: #ffffff00" xmlns="http://www.w3.org/2000/svg" xmlns:xlink="http://www.w3.org/1999/xlink" version="1.1" >
<text x="0" y="0" stroke="transparent" fill="#000000" transform="matrix(0.0666667 0 0 0.0666667 268.81 158.876)" style="font:normal normal normal 200px 'Arial'" >
O</text>
<text x="0" y="0" stroke="transparent" fill="#000000" transform="matrix(0.0666667 0 0 0.0666667 2.98681 78.8737)" style="font:normal normal normal 200px 'Arial'" >
HO</text>
<text x="0" y="0" stroke="transparent" fill="#000000" transform="matrix(0.0666667 0 0 0.0666667 52.6157 148.156)" style="font:normal normal normal 200px 'Arial'" >
O</text>
<text x="0" y="0" stroke="transparent" fill="#000000" transform="matrix(0.0666667 0 0 0.0666667 196.128 111.236)" style="font:normal normal normal 200px 'Arial'" >
O</text>
<path stroke="transparent" fill="#000000" transform="matrix(0.0666667 0 0 0.0666667 -140.853 -303)" d="M 7781.76,5361.69 L 7781.76,5338.6 L 8296.4,5041.48 L 8306.4,5058.81 L 7781.76,5361.69 Z " />
<path stroke="transparent" fill="#000000" transform="matrix(0.0666667 0 0 0.0666667 -140.853 -303)" d="M 7262.16,5061.69 L 7262.16,5038.6 L 7781.76,5338.6 L 7781.76,5361.69 L 7262.16,5061.69 Z " />
<path stroke="transparent" fill="#000000" transform="matrix(0.0666667 0 0 0.0666667 -140.853 -303)" d="M 7257.16,5141.94 L 7267.16,5124.62 L 7750.76,5403.84 L 7740.76,5421.16 L 7257.16,5141.94 Z " />
<path stroke="transparent" fill="#000000" transform="matrix(0.0666667 0 0 0.0666667 -140.853 -303)" d="M 6752.56,5355.92 L 6742.56,5350.14 L 6742.56,5338.6 L 7262.16,5038.6 L 7262.16,5061.69 L 6752.56,5355.92 Z " />
<path stroke="transparent" fill="#000000" transform="matrix(0.0666667 0 0 0.0666667 -140.853 -303)" d="M 6752.56,5955.92 L 6732.56,5944.37 L 6732.56,5355.92 L 6742.56,5350.14 L 6752.56,5355.92 L 6752.56,5955.92 Z " />
<path stroke="transparent" fill="#000000" transform="matrix(0.0666667 0 0 0.0666667 -140.853 -303)" d="M 6680.56,5908.58 L 6660.56,5908.58 L 6660.56,5391.71 L 6680.56,5391.71 L 6680.56,5908.58 Z " />
<path stroke="transparent" fill="#000000" transform="matrix(0.0666667 0 0 0.0666667 -140.853 -303)" d="M 6232.96,6255.92 L 6222.96,6250.15 L 6222.96,6238.6 L 6732.56,5944.37 L 6752.56,5955.92 L 6232.96,6255.92 Z " />
<path stroke="transparent" fill="#000000" transform="matrix(0.0666667 0 0 0.0666667 -140.853 -303)" d="M 6232.96,6744.98 L 6212.96,6744.98 L 6212.96,6255.92 L 6222.96,6250.15 L 6232.96,6255.92 L 6232.96,6744.98 Z " />
<path stroke="transparent" fill="#000000" transform="matrix(0.0666667 0 0 0.0666667 -140.853 -303)" d="M 6747.56,7141.49 L 6737.56,7158.81 L 6317.99,6916.56 L 6327.99,6899.24 L 6747.56,7141.49 Z " />
<path stroke="transparent" fill="#000000" transform="matrix(0.0666667 0 0 0.0666667 -140.853 -303)" d="M 5702.21,5960.99 L 5703.36,5950.11 L 5713.36,5944.33 L 6222.96,6238.6 L 6222.96,6250.15 L 6212.96,6255.92 L 5702.21,5960.99 Z " />
<path stroke="transparent" fill="#000000" transform="matrix(0.0666667 0 0 0.0666667 -140.853 -303)" d="M 5770.36,5917.2 L 5780.36,5899.88 L 6227.96,6158.34 L 6217.96,6175.66 L 5770.36,5917.2 Z " />
<path stroke="transparent" fill="#000000" transform="matrix(0.0666667 0 0 0.0666667 -140.853 -303)" d="M 5693.36,5357.37 L 5703.36,5350.1 L 5713.36,5355.88 L 5713.36,5944.33 L 5703.36,5950.11 L 5693.36,5942.84 L 5693.36,5357.37 Z " />
<path stroke="transparent" fill="#000000" transform="matrix(0.0666667 0 0 0.0666667 -140.853 -303)" d="M 6222.96,5038.6 L 6222.96,5061.69 L 5713.36,5355.88 L 5703.36,5350.1 L 5702.21,5339.22 L 6222.96,5038.6 Z " />
<path stroke="transparent" fill="#000000" transform="matrix(0.0666667 0 0 0.0666667 -140.853 -303)" d="M 6217.96,5124.62 L 6227.95,5141.94 L 5780.35,5400.33 L 5770.35,5383.01 L 6217.96,5124.62 Z " />
<path stroke="transparent" fill="#000000" transform="matrix(0.0666667 0 0 0.0666667 -140.853 -303)" d="M 6222.96,5061.69 L 6222.96,5038.6 L 6742.56,5338.6 L 6742.56,5350.14 L 6732.56,5355.92 L 6222.96,5061.69 Z " />
<path stroke="transparent" fill="#000000" transform="matrix(0.0666667 0 0 0.0666667 -140.853 -303)" d="M 5136.54,5176.46 L 5132.72,5164.7 L 5140.65,5156.77 L 5702.21,5339.22 L 5703.36,5350.1 L 5693.36,5357.37 L 5136.54,5176.46 Z " />
<path stroke="transparent" fill="#000000" transform="matrix(0.0666667 0 0 0.0666667 -140.853 -303)" d="M 4937.81,4597.19 L 4956.83,4591.01 L 5140.65,5156.77 L 5132.72,5164.7 L 5121.63,5162.95 L 4937.81,4597.19 Z " />
<path stroke="transparent" fill="#000000" transform="matrix(0.0666667 0 0 0.0666667 -140.853 -303)" d="M 4792.4,5650.11 L 4780.04,5650.11 L 4774.94,5640.11 L 5121.63,5162.95 L 5132.72,5164.7 L 5136.54,5176.46 L 4792.4,5650.11 Z " />
<path stroke="transparent" fill="#000000" transform="matrix(0.0666667 0 0 0.0666667 -140.853 -303)" d="M 4185.81,5660.11 L 4180.04,5650.11 L 4185.81,5640.11 L 4774.94,5640.11 L 4780.04,5650.11 L 4774.94,5660.11 L 4185.81,5660.11 Z " />
<path stroke="transparent" fill="#000000" transform="matrix(0.0666667 0 0 0.0666667 -140.853 -303)" d="M 3874.26,5140.5 L 3885.81,5120.5 L 4185.81,5640.11 L 4180.04,5650.11 L 4168.49,5650.11 L 3874.26,5140.5 Z " />
<path stroke="transparent" fill="#000000" transform="matrix(0.0666667 0 0 0.0666667 -140.853 -303)" d="M 3829.81,5207.5 L 3847.13,5197.5 L 4105.56,5645.11 L 4088.24,5655.11 L 3829.81,5207.5 Z " />
<path stroke="transparent" fill="#000000" transform="matrix(0.0666667 0 0 0.0666667 -140.853 -303)" d="M 3285.81,5140.5 L 3274.26,5120.5 L 3885.81,5120.5 L 3874.26,5140.5 L 3285.81,5140.5 Z " />
<path stroke="transparent" fill="#000000" transform="matrix(0.0666667 0 0 0.0666667 -140.853 -303)" d="M 2991.58,5650.11 L 2980.04,5650.11 L 2974.26,5640.11 L 3274.26,5120.5 L 3285.81,5140.5 L 2991.58,5650.11 Z " />
<path stroke="transparent" fill="#000000" transform="matrix(0.0666667 0 0 0.0666667 -140.853 -303)" d="M 3071.83,5655.11 L 3054.51,5645.11 L 3312.94,5197.5 L 3330.26,5207.5 L 3071.83,5655.11 Z " />
<path stroke="transparent" fill="#000000" transform="matrix(0.0666667 0 0 0.0666667 -140.853 -303)" d="M 2488.6,5660.11 L 2488.6,5640.11 L 2974.26,5640.11 L 2980.04,5650.11 L 2974.26,5660.11 L 2488.6,5660.11 Z " />
<path stroke="transparent" fill="#000000" transform="matrix(0.0666667 0 0 0.0666667 -140.853 -303)" d="M 3285.81,6159.75 L 3280.04,6169.75 L 3268.49,6169.74 L 2974.26,5660.11 L 2980.04,5650.11 L 2991.58,5650.11 L 3285.81,6159.75 Z " />
<path stroke="transparent" fill="#000000" transform="matrix(0.0666667 0 0 0.0666667 -140.853 -303)" d="M 3041.95,6602.11 L 3024.63,6592.11 L 3268.49,6169.74 L 3280.04,6169.75 L 3285.81,6179.75 L 3041.95,6602.11 Z " />
<path stroke="transparent" fill="#000000" transform="matrix(0.0666667 0 0 0.0666667 -140.853 -303)" d="M 3288.7,7203.99 L 3271.38,7213.99 L 3031.91,6799.2 L 3049.23,6789.2 L 3288.7,7203.99 Z " />
<path stroke="transparent" fill="#000000" transform="matrix(0.0666667 0 0 0.0666667 -140.853 -303)" d="M 3874.26,6159.75 L 3885.81,6179.75 L 3285.81,6179.75 L 3280.04,6169.75 L 3285.81,6159.75 L 3874.26,6159.75 Z " />
<path stroke="transparent" fill="#000000" transform="matrix(0.0666667 0 0 0.0666667 -140.853 -303)" d="M 3838.47,6087.75 L 3838.47,6107.75 L 3321.61,6107.75 L 3321.61,6087.75 L 3838.47,6087.75 Z " />
<path stroke="transparent" fill="#000000" transform="matrix(0.0666667 0 0 0.0666667 -140.853 -303)" d="M 3885.81,6179.75 L 3874.26,6159.75 L 4168.49,5650.11 L 4180.04,5650.11 L 4185.81,5660.11 L 3885.81,6179.75 Z " />
<path stroke="transparent" fill="#000000" transform="matrix(0.0666667 0 0 0.0666667 -140.853 -303)" d="M 5078.07,6043.31 L 5061.88,6055.06 L 4774.94,5660.11 L 4780.04,5650.11 L 4792.4,5650.11 L 5078.07,6043.31 Z " />
<path stroke="transparent" fill="#000000" transform="matrix(0.0666667 0 0 0.0666667 -140.853 -303)" d="M 5237.66,6111.96 L 5231.48,6092.93 L 5693.36,5942.84 L 5703.36,5950.11 L 5702.21,5960.99 L 5237.66,6111.96 Z " />
</svg>
