<?xml version="1.0" standalone="no" ?>
<!DOCTYPE svg PUBLIC "-//W3C//DTD SVG 1.1//EN" "http://www.w3.org/Graphics/SVG/1.1/DTD/svg11.dtd">
<svg width="277px" height="238px" viewBox="0 0 277 238" style="background-color: #ffffff00" xmlns="http://www.w3.org/2000/svg" xmlns:xlink="http://www.w3.org/1999/xlink" version="1.1" >
<text x="0" y="0" stroke="transparent" fill="#000000" transform="matrix(0.0833333 0 0 0.0833333 42.2501 160.086)" style="font:normal normal normal 200px 'Arial'" >
N</text>
<text x="0" y="0" stroke="transparent" fill="#000000" transform="matrix(0.0833333 0 0 0.0833333 42.2501 173.891)" style="font:normal normal normal 200px 'Arial'" >
H</text>
<text x="0" y="0" stroke="transparent" fill="#000000" transform="matrix(0.0833333 0 0 0.0833333 217.242 160.692)" style="font:normal normal normal 200px 'Arial'" >
NH</text>
<text x="0" y="0" stroke="transparent" fill="#000000" transform="matrix(0.0833333 0 0 0.0833333 260.248 234.496)" style="font:normal normal normal 200px 'Arial'" >
O</text>
<text x="0" y="0" stroke="transparent" fill="#000000" transform="matrix(0.0833333 0 0 0.0833333 85.8769 42.7759)" style="font:normal normal normal 200px 'Arial'" >
H</text>
<text x="0" y="0" stroke="transparent" fill="#000000" transform="matrix(0.0833333 0 0 0.0833333 174.1 29.9327)" style="font:normal normal normal 200px 'Arial'" >
H</text>
<path stroke="transparent" fill="#000000" transform="matrix(0.0833333 0 0 0.0833333 -297.542 -252)" d="M 5199.41,4855.44 L 5199.45,4867.03 L 5189.45,4872.79 L 4673.04,4573.2 L 4673.02,4561.63 L 4683.02,4555.87 L 5199.41,4855.44 Z " />
<path stroke="transparent" fill="#000000" transform="matrix(0.0833333 0 0 0.0833333 -297.542 -252)" d="M 4663.02,3975.65 L 4673.02,3969.74 L 4683.02,3975.67 L 4683.02,4555.87 L 4673.02,4561.63 L 4663.02,4521.88 L 4663.02,3975.65 Z " />
<path stroke="transparent" fill="#000000" transform="matrix(0.0833333 0 0 0.0833333 -297.542 -252)" d="M 4314.06,4102.36 L 4334.06,3908.34 L 4663.02,4521.88 L 4673.02,4561.63 L 4658.29,4558.65 L 4314.06,4102.36 L 4314.06,4102.36 Z " />
<path stroke="transparent" fill="#000000" transform="matrix(0.0833333 0 0 0.0833333 -297.542 -252)" d="M 4258.15,4815.23 L 4248.07,4797.95 L 4658.29,4558.65 L 4673.02,4561.63 L 4673.04,4573.2 L 4258.15,4815.23 Z " />
<path stroke="transparent" fill="#000000" transform="matrix(0.0833333 0 0 0.0833333 -297.542 -252)" d="M 5705.7,4555.93 L 5715.7,4561.63 L 5715.73,4573.23 L 5209.45,4872.73 L 5199.45,4867.03 L 5199.41,4855.44 L 5705.7,4555.93 Z " />
<path stroke="transparent" fill="#000000" transform="matrix(0.0833333 0 0 0.0833333 -297.542 -252)" d="M 5710.79,4636.55 L 5720.97,4653.76 L 5276.52,4916.69 L 5266.34,4899.47 L 5710.79,4636.55 Z " />
<path stroke="transparent" fill="#000000" transform="matrix(0.0833333 0 0 0.0833333 -297.542 -252)" d="M 5209.45,5454.69 L 5189.45,5466.06 L 5189.45,4872.79 L 5199.45,4867.03 L 5209.45,4872.73 L 5209.45,5454.69 Z " />
<path stroke="transparent" fill="#000000" transform="matrix(0.0833333 0 0 0.0833333 -297.542 -252)" d="M 5186.53,3677.54 L 5199.45,3681.87 L 5199.41,3693.29 L 4683.02,3975.67 L 4673.02,3969.74 L 4685.33,3951.61 L 5186.53,3677.54 Z " />
<path stroke="transparent" fill="#000000" transform="matrix(0.0833333 0 0 0.0833333 -297.542 -252)" d="M 4149.49,3693.28 L 4149.51,3670.46 L 4274.06,3738.95 L 4274.06,3761.77 L 4149.49,3693.28 L 4149.49,3693.28 Z " />
<path stroke="transparent" fill="#000000" transform="matrix(0.0833333 0 0 0.0833333 -297.542 -252)" d="M 4660.71,3951.56 L 4673.02,3969.74 L 4663.02,3975.65 L 4374.06,3816.76 L 4374.06,3793.93 L 4660.71,3951.56 L 4660.71,3951.56 Z " />
<path stroke="transparent" fill="#000000" transform="matrix(0.0833333 0 0 0.0833333 -297.542 -252)" d="M 4613.02,3576.64 L 4733.02,3576.64 L 4685.33,3951.61 L 4673.02,3969.74 L 4660.71,3951.56 L 4613.02,3576.64 Z " />
<path stroke="transparent" fill="#000000" transform="matrix(0.0833333 0 0 0.0833333 -297.542 -252)" d="M 4314.06,3354.37 L 4324.06,3348.83 L 4334.06,3355.67 L 4334.06,3908.34 L 4314.06,4102.36 L 4314.06,3354.37 Z " />
<path stroke="transparent" fill="#000000" transform="matrix(0.0833333 0 0 0.0833333 -297.542 -252)" d="M 3614.53,4567.38 L 3634.53,4555.88 L 4050.88,4798.09 L 4040.82,4815.38 L 3614.53,4567.38 Z " />
<path stroke="transparent" fill="#000000" transform="matrix(0.0833333 0 0 0.0833333 -297.542 -252)" d="M 5705.7,3975.61 L 5725.7,3963.87 L 5725.7,4555.9 L 5715.7,4561.63 L 5705.7,4555.93 L 5705.7,3975.61 Z " />
<path stroke="transparent" fill="#000000" transform="matrix(0.0833333 0 0 0.0833333 -297.542 -252)" d="M 6150.93,4805.02 L 6140.82,4822.27 L 5715.73,4573.23 L 5715.7,4561.63 L 5725.7,4555.9 L 6150.93,4805.02 Z " />
<path stroke="transparent" fill="#000000" transform="matrix(0.0833333 0 0 0.0833333 -297.542 -252)" d="M 5724.56,5761.44 L 5724.45,5784.65 L 5189.45,5466.06 L 5209.45,5454.69 L 5724.56,5761.44 Z " />
<path stroke="transparent" fill="#000000" transform="matrix(0.0833333 0 0 0.0833333 -297.542 -252)" d="M 5730.05,5679.36 L 5719.82,5696.55 L 5267.67,5427.29 L 5277.9,5410.1 L 5730.05,5679.36 Z " />
<path stroke="transparent" fill="#000000" transform="matrix(0.0833333 0 0 0.0833333 -297.542 -252)" d="M 4935.39,3121.65 L 4945.81,3096.13 L 5207.21,3674.74 L 5199.45,3681.87 L 5186.53,3677.54 L 4935.39,3121.65 Z " />
<path stroke="transparent" fill="#000000" transform="matrix(0.0833333 0 0 0.0833333 -297.542 -252)" d="M 5725.7,3963.87 L 5705.7,3975.61 L 5199.41,3693.29 L 5199.45,3681.87 L 5207.21,3674.74 L 5725.7,3963.87 Z " />
<path stroke="transparent" fill="#000000" transform="matrix(0.0833333 0 0 0.0833333 -297.542 -252)" d="M 5591.28,3331.07 L 5660.6,3429.02 L 5643.04,3438.83 L 5576.19,3344.36 L 5591.28,3331.07 Z " />
<path stroke="transparent" fill="#000000" transform="matrix(0.0833333 0 0 0.0833333 -297.542 -252)" d="M 5548.98,3368.33 L 5611.39,3456.51 L 5593.83,3466.33 L 5533.89,3381.63 L 5548.98,3368.33 Z " />
<path stroke="transparent" fill="#000000" transform="matrix(0.0833333 0 0 0.0833333 -297.542 -252)" d="M 5506.68,3405.6 L 5562.18,3484.01 L 5544.62,3493.82 L 5491.59,3418.89 L 5506.68,3405.6 Z " />
<path stroke="transparent" fill="#000000" transform="matrix(0.0833333 0 0 0.0833333 -297.542 -252)" d="M 5464.38,3442.86 L 5512.97,3511.51 L 5495.41,3521.32 L 5449.29,3456.16 L 5464.38,3442.86 Z " />
<path stroke="transparent" fill="#000000" transform="matrix(0.0833333 0 0 0.0833333 -297.542 -252)" d="M 5422.09,3480.13 L 5463.76,3539.01 L 5446.2,3548.82 L 5406.99,3493.42 L 5422.09,3480.13 Z " />
<path stroke="transparent" fill="#000000" transform="matrix(0.0833333 0 0 0.0833333 -297.542 -252)" d="M 5379.79,3517.39 L 5414.54,3566.5 L 5396.99,3576.32 L 5364.69,3530.69 L 5379.79,3517.39 Z " />
<path stroke="transparent" fill="#000000" transform="matrix(0.0833333 0 0 0.0833333 -297.542 -252)" d="M 5337.49,3554.66 L 5365.33,3594 L 5347.77,3603.81 L 5322.4,3567.95 L 5337.49,3554.66 Z " />
<path stroke="transparent" fill="#000000" transform="matrix(0.0833333 0 0 0.0833333 -297.542 -252)" d="M 5295.19,3591.92 L 5316.12,3621.5 L 5298.56,3631.31 L 5280.1,3605.22 L 5295.19,3591.92 Z " />
<path stroke="transparent" fill="#000000" transform="matrix(0.0833333 0 0 0.0833333 -297.542 -252)" d="M 5252.89,3629.19 L 5266.91,3649 L 5249.35,3658.81 L 5237.8,3642.48 L 5252.89,3629.19 Z " />
<path stroke="transparent" fill="#000000" transform="matrix(0.0833333 0 0 0.0833333 -297.542 -252)" d="M 3634.53,3975.66 L 3614.53,3963.82 L 4149.51,3670.46 L 4149.49,3693.28 L 3634.53,3975.66 Z " />
<path stroke="transparent" fill="#000000" transform="matrix(0.0833333 0 0 0.0833333 -297.542 -252)" d="M 3876.62,3081 L 3887.22,3064.04 L 4325.1,3337.69 L 4324.06,3348.83 L 4314.06,3354.37 L 3876.62,3081 Z " />
<path stroke="transparent" fill="#000000" transform="matrix(0.0833333 0 0 0.0833333 -297.542 -252)" d="M 4945.81,3096.13 L 4935.39,3121.65 L 4334.06,3355.67 L 4324.06,3348.83 L 4325.1,3337.69 L 4945.81,3096.13 Z " />
<path stroke="transparent" fill="#000000" transform="matrix(0.0833333 0 0 0.0833333 -297.542 -252)" d="M 4895.62,3200.86 L 4902.87,3219.5 L 4407.07,3412.44 L 4399.82,3393.81 L 4895.62,3200.86 Z " />
<path stroke="transparent" fill="#000000" transform="matrix(0.0833333 0 0 0.0833333 -297.542 -252)" d="M 3614.53,3963.82 L 3634.53,3975.66 L 3634.53,4555.88 L 3614.53,4567.38 L 3614.53,3963.82 Z " />
<path stroke="transparent" fill="#000000" transform="matrix(0.0833333 0 0 0.0833333 -297.542 -252)" d="M 6259.41,5473.4 L 6239.41,5461.9 L 6239.41,4991.64 L 6259.41,4991.64 L 6259.41,5473.4 Z " />
<path stroke="transparent" fill="#000000" transform="matrix(0.0833333 0 0 0.0833333 -297.542 -252)" d="M 6239.41,5461.9 L 6259.41,5473.4 L 5724.45,5784.65 L 5724.56,5761.44 L 6239.41,5461.9 Z " />
<path stroke="transparent" fill="#000000" transform="matrix(0.0833333 0 0 0.0833333 -297.542 -252)" d="M 6700.61,5667.67 L 6690.84,5685.12 L 6244.52,5435.23 L 6254.29,5417.78 L 6700.61,5667.67 Z " />
<path stroke="transparent" fill="#000000" transform="matrix(0.0833333 0 0 0.0833333 -297.542 -252)" d="M 6665.53,5730.32 L 6655.76,5747.77 L 6208.49,5497.34 L 6218.26,5479.89 L 6665.53,5730.32 Z " />
</svg>
