<?xml version="1.0" standalone="no" ?>
<!DOCTYPE svg PUBLIC "-//W3C//DTD SVG 1.1//EN" "http://www.w3.org/Graphics/SVG/1.1/DTD/svg11.dtd">
<svg width="347px" height="225px" viewBox="0 0 347 225" style="background-color: #ffffff00" xmlns="http://www.w3.org/2000/svg" xmlns:xlink="http://www.w3.org/1999/xlink" version="1.1" >
<text x="0" y="0" stroke="transparent" fill="#000000" transform="matrix(0.0833333 0 0 0.0833333 273.219 69.907)" style="font:normal normal normal 200px 'Arial'" >
O</text>
<text x="0" y="0" stroke="transparent" fill="#000000" transform="matrix(0.0833333 0 0 0.0833333 190.429 44.4923)" style="font:normal normal normal 200px 'Arial'" >
O</text>
<text x="0" y="0" stroke="transparent" fill="#000000" transform="matrix(0.0833333 0 0 0.0833333 244.38 165.501)" style="font:normal normal normal 200px 'Arial'" >
N</text>
<text x="0" y="0" stroke="transparent" fill="#000000" transform="matrix(0.0833333 0 0 0.0833333 120.666 97.555)" style="font:normal normal normal 200px 'Arial'" >
H</text>
<text x="0" y="0" stroke="transparent" fill="#000000" transform="matrix(0.0833333 0 0 0.0833333 120.666 111.361)" style="font:normal normal normal 200px 'Arial'" >
N</text>
<path stroke="transparent" fill="#000000" transform="matrix(0.0833333 0 0 0.0833333 -252.667 -226)" d="M 6572.63,2907.72 L 6556.9,2890.81 L 7147.3,2755.2 L 7151.78,2774.69 L 6572.63,2907.72 Z " />
<path stroke="transparent" fill="#000000" transform="matrix(0.0833333 0 0 0.0833333 -252.667 -226)" d="M 6429.29,3374.53 L 6410.17,3368.66 L 6556.9,2890.81 L 6572.63,2907.72 L 6429.29,3374.53 Z " />
<path stroke="transparent" fill="#000000" transform="matrix(0.0833333 0 0 0.0833333 -252.667 -226)" d="M 5811.73,3615.65 L 5795.99,3598.75 L 6278.42,3487.94 L 6282.9,3507.43 L 5811.73,3615.65 Z " />
<path stroke="transparent" fill="#000000" transform="matrix(0.0833333 0 0 0.0833333 -252.667 -226)" d="M 5442.82,3286.68 L 5457.46,3273.06 L 5798.98,3640.13 L 5784.34,3653.75 L 5442.82,3286.68 Z " />
<path stroke="transparent" fill="#000000" transform="matrix(0.0833333 0 0 0.0833333 -252.667 -226)" d="M 5495.54,3237.63 L 5510.18,3224.01 L 5851.7,3591.08 L 5837.05,3604.7 L 5495.54,3237.63 Z " />
<path stroke="transparent" fill="#000000" transform="matrix(0.0833333 0 0 0.0833333 -252.667 -226)" d="M 5639.11,4178.13 L 5627.85,4180.72 L 5619.99,4172.26 L 5795.99,3598.75 L 5811.73,3615.65 L 5639.11,4178.13 Z " />
<path stroke="transparent" fill="#000000" transform="matrix(0.0833333 0 0 0.0833333 -252.667 -226)" d="M 5959.4,4522.4 L 5944.76,4536.02 L 5624.46,4191.76 L 5627.85,4180.72 L 5639.11,4178.13 L 5959.4,4522.4 Z " />
<path stroke="transparent" fill="#000000" transform="matrix(0.0833333 0 0 0.0833333 -252.667 -226)" d="M 5906.69,4571.44 L 5892.04,4585.06 L 5596.13,4267.01 L 5610.77,4253.39 L 5906.69,4571.44 Z " />
<path stroke="transparent" fill="#000000" transform="matrix(0.0833333 0 0 0.0833333 -252.667 -226)" d="M 5868.35,5202 L 5852.62,5185.09 L 5988.74,4741.7 L 6007.86,4747.57 L 5868.35,5202 Z " />
<path stroke="transparent" fill="#000000" transform="matrix(0.0833333 0 0 0.0833333 -252.667 -226)" d="M 5272.31,5338.83 L 5279.08,5316.75 L 5852.62,5185.09 L 5868.35,5202 L 5272.31,5338.83 Z " />
<path stroke="transparent" fill="#000000" transform="matrix(0.0833333 0 0 0.0833333 -252.667 -226)" d="M 5302.33,5258.06 L 5297.86,5238.57 L 5801.62,5122.92 L 5806.09,5142.42 L 5302.33,5258.06 Z " />
<path stroke="transparent" fill="#000000" transform="matrix(0.0833333 0 0 0.0833333 -252.667 -226)" d="M 4862.7,4898.57 L 4866.98,4888.5 L 4878.24,4885.91 L 5279.08,5316.75 L 5272.31,5338.83 L 4862.7,4898.57 Z " />
<path stroke="transparent" fill="#000000" transform="matrix(0.0833333 0 0 0.0833333 -252.667 -226)" d="M 5031.39,4319.04 L 5043.08,4315.03 L 5050.94,4323.49 L 4878.24,4885.91 L 4866.98,4888.5 L 4859.56,4878.62 L 5031.39,4319.04 Z " />
<path stroke="transparent" fill="#000000" transform="matrix(0.0833333 0 0 0.0833333 -252.667 -226)" d="M 5090.14,4372.95 L 5109.26,4378.83 L 4957.56,4872.83 L 4938.44,4866.96 L 5090.14,4372.95 Z " />
<path stroke="transparent" fill="#000000" transform="matrix(0.0833333 0 0 0.0833333 -252.667 -226)" d="M 5050.94,4323.49 L 5043.08,4315.03 L 5045.18,4304.29 L 5619.99,4172.26 L 5627.85,4180.72 L 5624.46,4191.76 L 5050.94,4323.49 Z " />
<path stroke="transparent" fill="#000000" transform="matrix(0.0833333 0 0 0.0833333 -252.667 -226)" d="M 4653.03,4053.46 L 4664.52,4037.09 L 5045.18,4304.29 L 5043.08,4315.03 L 5031.39,4319.04 L 4653.03,4053.46 Z " />
<path stroke="transparent" fill="#000000" transform="matrix(0.0833333 0 0 0.0833333 -252.667 -226)" d="M 4084.22,4334.54 L 4072.4,4330.91 L 4069.95,4320.24 L 4440.93,4041.32 L 4452.95,4057.3 L 4084.22,4334.54 Z " />
<path stroke="transparent" fill="#000000" transform="matrix(0.0833333 0 0 0.0833333 -252.667 -226)" d="M 3487.36,4226.72 L 3479.87,4204.87 L 4069.95,4320.24 L 4072.4,4330.91 L 4064.81,4339.62 L 3487.36,4226.72 Z " />
<path stroke="transparent" fill="#000000" transform="matrix(0.0833333 0 0 0.0833333 -252.667 -226)" d="M 3508.66,4304.24 L 3512.5,4284.61 L 4019.71,4383.78 L 4015.88,4403.4 L 3508.66,4304.24 Z " />
<path stroke="transparent" fill="#000000" transform="matrix(0.0833333 0 0 0.0833333 -252.667 -226)" d="M 3100.74,4670.32 L 3078.08,4665.88 L 3479.87,4204.87 L 3487.36,4226.72 L 3100.74,4670.32 Z " />
<path stroke="transparent" fill="#000000" transform="matrix(0.0833333 0 0 0.0833333 -252.667 -226)" d="M 3291.68,5226.94 L 3276.5,5244.36 L 3078.08,4665.88 L 3100.74,4670.32 L 3291.68,5226.94 Z " />
<path stroke="transparent" fill="#000000" transform="matrix(0.0833333 0 0 0.0833333 -252.667 -226)" d="M 3348.17,5169.72 L 3329.25,5176.21 L 3161.55,4687.31 L 3180.46,4680.82 L 3348.17,5169.72 Z " />
<path stroke="transparent" fill="#000000" transform="matrix(0.0833333 0 0 0.0833333 -252.667 -226)" d="M 3869.21,5339.9 L 3876.71,5361.74 L 3276.5,5244.36 L 3291.68,5226.94 L 3869.21,5339.9 Z " />
<path stroke="transparent" fill="#000000" transform="matrix(0.0833333 0 0 0.0833333 -252.667 -226)" d="M 4255.8,4896.16 L 4267.14,4898.37 L 4271.75,4908.3 L 3876.71,5361.74 L 3869.21,5339.9 L 4255.8,4896.16 Z " />
<path stroke="transparent" fill="#000000" transform="matrix(0.0833333 0 0 0.0833333 -252.667 -226)" d="M 4177.99,4875.85 L 4193.07,4888.99 L 3853.52,5278.74 L 3838.44,5265.6 L 4177.99,4875.85 Z " />
<path stroke="transparent" fill="#000000" transform="matrix(0.0833333 0 0 0.0833333 -252.667 -226)" d="M 4274.24,4888.26 L 4267.14,4898.37 L 4255.8,4896.16 L 4064.81,4339.62 L 4072.4,4330.91 L 4084.22,4334.54 L 4274.24,4888.26 Z " />
<path stroke="transparent" fill="#000000" transform="matrix(0.0833333 0 0 0.0833333 -252.667 -226)" d="M 4271.75,4908.3 L 4267.14,4898.37 L 4274.24,4888.26 L 4859.56,4878.62 L 4866.98,4888.5 L 4862.7,4898.57 L 4271.75,4908.3 Z " />
</svg>
