<?xml version="1.0" standalone="no" ?>
<!DOCTYPE svg PUBLIC "-//W3C//DTD SVG 1.1//EN" "http://www.w3.org/Graphics/SVG/1.1/DTD/svg11.dtd">
<svg width="259px" height="237px" viewBox="0 0 259 237" style="background-color: #ffffff00" xmlns="http://www.w3.org/2000/svg" xmlns:xlink="http://www.w3.org/1999/xlink" version="1.1" >
<text x="0" y="0" stroke="transparent" fill="#000000" transform="matrix(0.0833333 0 0 0.0833333 27.8695 44.9733)" style="font:normal normal normal 200px 'Arial'" >
O</text>
<text x="0" y="0" stroke="transparent" fill="#000000" transform="matrix(0.0833333 0 0 0.0833333 129.122 184.336)" style="font:normal normal normal 200px 'Arial'" >
O</text>
<text x="0" y="0" stroke="transparent" fill="#000000" transform="matrix(0.0833333 0 0 0.0833333 203.848 232.867)" style="font:normal normal normal 200px 'Arial'" >
O</text>
<path stroke="transparent" fill="#000000" transform="matrix(0.0833333 0 0 0.0833333 -306.25 -248)" d="M 6216.94,3334.68 L 6216.94,3311.59 L 6741.55,3614.48 L 6731.55,3631.8 L 6216.94,3334.68 Z " />
<path stroke="transparent" fill="#000000" transform="matrix(0.0833333 0 0 0.0833333 -306.25 -248)" d="M 6211.94,3414.94 L 6221.94,3397.62 L 6705.55,3676.84 L 6695.55,3694.16 L 6211.94,3414.94 Z " />
<path stroke="transparent" fill="#000000" transform="matrix(0.0833333 0 0 0.0833333 -306.25 -248)" d="M 6216.94,3311.59 L 6216.94,3334.68 L 5707.33,3628.92 L 5697.33,3623.14 L 5708.85,3604.95 L 6216.94,3311.59 Z " />
<path stroke="transparent" fill="#000000" transform="matrix(0.0833333 0 0 0.0833333 -306.25 -248)" d="M 5637.33,3023.14 L 5757.33,3023.14 L 5708.85,3604.95 L 5697.33,3623.14 L 5685.81,3604.95 L 5637.33,3023.14 Z " />
<path stroke="transparent" fill="#000000" transform="matrix(0.0833333 0 0 0.0833333 -306.25 -248)" d="M 5177.72,3334.68 L 5177.72,3311.59 L 5685.81,3604.95 L 5697.33,3623.14 L 5687.33,3628.92 L 5177.72,3334.68 Z " />
<path stroke="transparent" fill="#000000" transform="matrix(0.0833333 0 0 0.0833333 -306.25 -248)" d="M 4668.11,3628.86 L 4658.11,3623.08 L 4656.96,3612.2 L 5177.72,3311.59 L 5177.72,3334.68 L 4668.11,3628.86 Z " />
<path stroke="transparent" fill="#000000" transform="matrix(0.0833333 0 0 0.0833333 -306.25 -248)" d="M 4191.15,3481.89 L 4197.33,3462.87 L 4656.96,3612.2 L 4658.11,3623.08 L 4648.11,3630.35 L 4191.15,3481.89 Z " />
<path stroke="transparent" fill="#000000" transform="matrix(0.0833333 0 0 0.0833333 -306.25 -248)" d="M 3747.17,3923.09 L 3722.45,3923.09 L 4008.81,3528.9 L 4024.99,3540.65 L 3747.17,3923.09 Z " />
<path stroke="transparent" fill="#000000" transform="matrix(0.0833333 0 0 0.0833333 -306.25 -248)" d="M 4091.25,4396.8 L 4087.43,4408.56 L 4076.35,4410.32 L 3722.45,3923.09 L 3747.17,3923.09 L 4091.25,4396.8 Z " />
<path stroke="transparent" fill="#000000" transform="matrix(0.0833333 0 0 0.0833333 -306.25 -248)" d="M 4123.03,4318.03 L 4106.85,4329.79 L 3815.71,3928.97 L 3831.89,3917.22 L 4123.03,4318.03 Z " />
<path stroke="transparent" fill="#000000" transform="matrix(0.0833333 0 0 0.0833333 -306.25 -248)" d="M 3911.54,4982.26 L 3892.52,4976.08 L 4076.35,4410.32 L 4087.43,4408.56 L 4095.37,4416.5 L 3911.54,4982.26 Z " />
<path stroke="transparent" fill="#000000" transform="matrix(0.0833333 0 0 0.0833333 -306.25 -248)" d="M 4648.11,4215.83 L 4658.11,4223.1 L 4656.96,4233.98 L 4095.37,4416.5 L 4087.43,4408.56 L 4091.25,4396.8 L 4648.11,4215.83 Z " />
<path stroke="transparent" fill="#000000" transform="matrix(0.0833333 0 0 0.0833333 -306.25 -248)" d="M 4668.11,4217.32 L 4658.11,4223.1 L 4648.11,4215.83 L 4648.11,3630.35 L 4658.11,3623.08 L 4668.11,3628.86 L 4668.11,4217.32 Z " />
<path stroke="transparent" fill="#000000" transform="matrix(0.0833333 0 0 0.0833333 -306.25 -248)" d="M 4596.11,4170.79 L 4576.11,4170.79 L 4576.11,3675.4 L 4596.11,3675.4 L 4596.11,4170.79 Z " />
<path stroke="transparent" fill="#000000" transform="matrix(0.0833333 0 0 0.0833333 -306.25 -248)" d="M 4656.96,4233.98 L 4658.11,4223.1 L 4668.11,4217.32 L 5177.72,4511.56 L 5177.72,4523.1 L 5168.38,4529.26 L 4656.96,4233.98 Z " />
<path stroke="transparent" fill="#000000" transform="matrix(0.0833333 0 0 0.0833333 -306.25 -248)" d="M 5339.17,4994.14 L 5221.79,5019.08 L 5168.38,4529.26 L 5177.72,4523.1 L 5189.66,4527.76 L 5339.17,4994.14 Z " />
<path stroke="transparent" fill="#000000" transform="matrix(0.0833333 0 0 0.0833333 -306.25 -248)" d="M 5892.99,5162.03 L 5905.36,5183.44 L 5408.45,5131.23 L 5410.54,5111.34 L 5892.99,5162.03 Z " />
<path stroke="transparent" fill="#000000" transform="matrix(0.0833333 0 0 0.0833333 -306.25 -248)" d="M 6185.77,5577.17 L 6168.45,5587.17 L 5908.61,5137.08 L 5925.94,5127.08 L 6185.77,5577.17 Z " />
<path stroke="transparent" fill="#000000" transform="matrix(0.0833333 0 0 0.0833333 -306.25 -248)" d="M 6123.41,5613.17 L 6106.09,5623.17 L 5846.26,5173.09 L 5863.58,5163.09 L 6123.41,5613.17 Z " />
<path stroke="transparent" fill="#000000" transform="matrix(0.0833333 0 0 0.0833333 -306.25 -248)" d="M 6109.4,4675.96 L 6176.36,4574.73 L 5905.36,5183.44 L 5892.99,5162.03 L 6109.4,4675.96 Z " />
<path stroke="transparent" fill="#000000" transform="matrix(0.0833333 0 0 0.0833333 -306.25 -248)" d="M 6720.51,4454.89 L 6724.67,4474.45 L 6112.22,4604.63 L 6108.06,4585.07 L 6720.51,4454.89 Z " />
<path stroke="transparent" fill="#000000" transform="matrix(0.0833333 0 0 0.0833333 -306.25 -248)" d="M 6735.48,4525.31 L 6739.64,4544.88 L 6127.18,4675.06 L 6123.02,4655.49 L 6735.48,4525.31 Z " />
<path stroke="transparent" fill="#000000" transform="matrix(0.0833333 0 0 0.0833333 -306.25 -248)" d="M 6176.36,4574.73 L 6109.4,4675.96 L 5695.5,4235.7 L 5697.33,4223.1 L 5707.33,4218.18 L 6176.36,4574.73 Z " />
<path stroke="transparent" fill="#000000" transform="matrix(0.0833333 0 0 0.0833333 -306.25 -248)" d="M 5687.33,4217.32 L 5697.33,4223.1 L 5695.5,4235.7 L 5189.66,4527.76 L 5177.72,4523.1 L 5177.72,4511.56 L 5687.33,4217.32 Z " />
<path stroke="transparent" fill="#000000" transform="matrix(0.0833333 0 0 0.0833333 -306.25 -248)" d="M 5707.33,4218.18 L 5697.33,4223.1 L 5687.33,4217.32 L 5687.33,3628.92 L 5697.33,3623.14 L 5707.33,3628.92 L 5707.33,4218.18 Z " />
</svg>
