<?xml version="1.0" standalone="no" ?>
<!DOCTYPE svg PUBLIC "-//W3C//DTD SVG 1.1//EN" "http://www.w3.org/Graphics/SVG/1.1/DTD/svg11.dtd">
<svg width="448px" height="603px" viewBox="0 0 448 603" style="background-color: #ffffff00" xmlns="http://www.w3.org/2000/svg" xmlns:xlink="http://www.w3.org/1999/xlink" version="1.1" >
<text x="0" y="0" stroke="transparent" fill="#000000" transform="matrix(0.0833333 0 0 0.0833333 333.369 136.187)" style="font:normal normal normal 200px 'Arial'" >
O</text>
<text x="0" y="0" stroke="transparent" fill="#000000" transform="matrix(0.0833333 0 0 0.0833333 399.837 18.0353)" style="font:normal normal normal 200px 'Arial'" >
OH</text>
<text x="0" y="0" stroke="transparent" fill="#000000" transform="matrix(0.0833333 0 0 0.0833333 3.7479 398.917)" style="font:normal normal normal 200px 'Arial'" >
HO</text>
<text x="0" y="0" stroke="transparent" fill="#000000" transform="matrix(0.0833333 0 0 0.0833333 188.989 448.917)" style="font:normal normal normal 200px 'Arial'" >
O</text>
<text x="0" y="0" stroke="transparent" fill="#000000" transform="matrix(0.0833333 0 0 0.0833333 275.592 448.917)" style="font:normal normal normal 200px 'Arial'" >
O</text>
<text x="0" y="0" stroke="transparent" fill="#000000" transform="matrix(0.0833333 0 0 0.0833333 405.495 473.917)" style="font:normal normal normal 200px 'Arial'" >
OH</text>
<text x="0" y="0" stroke="transparent" fill="#000000" transform="matrix(0.0833333 0 0 0.0833333 362.194 548.917)" style="font:normal normal normal 200px 'Arial'" >
OH</text>
<text x="0" y="0" stroke="transparent" fill="#000000" transform="matrix(0.0833333 0 0 0.0833333 275.592 598.917)" style="font:normal normal normal 200px 'Arial'" >
OH</text>
<text x="0" y="0" stroke="transparent" fill="#000000" transform="matrix(0.0833333 0 0 0.0833333 176.953 548.917)" style="font:normal normal normal 200px 'Arial'" >
HO</text>
<text x="0" y="0" stroke="transparent" fill="#000000" transform="matrix(0.0833333 0 0 0.0833333 232.29 173.917)" style="font:normal normal normal 200px 'Arial'" >
OH</text>
<path stroke="transparent" fill="#000000" transform="matrix(0.0833333 0 0 0.0833333 -170.25 -69)" d="M 6129.24,2982.4 L 6133.4,3001.96 L 6114.22,3007.91 L 6109.3,2984.77 L 6129.24,2982.4 Z " />
<path stroke="transparent" fill="#000000" transform="matrix(0.0833333 0 0 0.0833333 -170.25 -69)" d="M 6070.96,2989.32 L 6077.35,3019.35 L 6058.17,3025.3 L 6051.02,2991.68 L 6070.96,2989.32 Z " />
<path stroke="transparent" fill="#000000" transform="matrix(0.0833333 0 0 0.0833333 -170.25 -69)" d="M 6012.68,2996.23 L 6021.29,3036.74 L 6002.11,3042.69 L 5992.74,2998.6 L 6012.68,2996.23 Z " />
<path stroke="transparent" fill="#000000" transform="matrix(0.0833333 0 0 0.0833333 -170.25 -69)" d="M 5954.4,3003.15 L 5965.24,3054.12 L 5946.06,3060.07 L 5934.46,3005.52 L 5954.4,3003.15 Z " />
<path stroke="transparent" fill="#000000" transform="matrix(0.0833333 0 0 0.0833333 -170.25 -69)" d="M 5896.12,3010.07 L 5909.18,3071.51 L 5890,3077.46 L 5876.18,3012.43 L 5896.12,3010.07 Z " />
<path stroke="transparent" fill="#000000" transform="matrix(0.0833333 0 0 0.0833333 -170.25 -69)" d="M 5837.84,3016.98 L 5853.13,3088.9 L 5833.95,3094.85 L 5817.9,3019.35 L 5837.84,3016.98 Z " />
<path stroke="transparent" fill="#000000" transform="matrix(0.0833333 0 0 0.0833333 -170.25 -69)" d="M 5779.56,3023.9 L 5797.08,3106.28 L 5777.89,3112.23 L 5759.62,3026.27 L 5779.56,3023.9 Z " />
<path stroke="transparent" fill="#000000" transform="matrix(0.0833333 0 0 0.0833333 -170.25 -69)" d="M 5721.28,3030.81 L 5741.02,3123.67 L 5721.84,3129.62 L 5701.34,3033.18 L 5721.28,3030.81 Z " />
<path stroke="transparent" fill="#000000" transform="matrix(0.0833333 0 0 0.0833333 -170.25 -69)" d="M 5663,3037.73 L 5684.97,3141.06 L 5665.78,3147.01 L 5643.06,3040.1 L 5663,3037.73 Z " />
<path stroke="transparent" fill="#000000" transform="matrix(0.0833333 0 0 0.0833333 -170.25 -69)" d="M 5604.72,3044.65 L 5628.91,3158.44 L 5609.73,3164.39 L 5584.78,3047.01 L 5604.72,3044.65 Z " />
<path stroke="transparent" fill="#000000" transform="matrix(0.0833333 0 0 0.0833333 -170.25 -69)" d="M 6766,3094.41 L 6776.06,3116.99 L 6190.87,2992.61 L 6184.14,2980.96 L 6193.33,2972.68 L 6766,3094.41 Z " />
<path stroke="transparent" fill="#000000" transform="matrix(0.0833333 0 0 0.0833333 -170.25 -69)" d="M 7058.74,2587.38 L 7083.33,2584.8 L 6776.06,3116.99 L 6766,3094.41 L 7058.74,2587.38 Z " />
<path stroke="transparent" fill="#000000" transform="matrix(0.0833333 0 0 0.0833333 -170.25 -69)" d="M 6666.98,2152.29 L 6669.55,2140.2 L 6680.73,2137.66 L 7083.33,2584.8 L 7058.74,2587.38 L 6666.98,2152.29 Z " />
<path stroke="transparent" fill="#000000" transform="matrix(0.0833333 0 0 0.0833333 -170.25 -69)" d="M 6223.13,2349.91 L 6215,2331.64 L 6660.38,2133.34 L 6669.55,2140.2 L 6666.98,2152.29 L 6223.13,2349.91 Z " />
<path stroke="transparent" fill="#000000" transform="matrix(0.0833333 0 0 0.0833333 -170.25 -69)" d="M 6123.96,2504.03 L 6143.85,2501.94 L 6193.33,2972.68 L 6184.14,2980.96 L 6173.98,2979.89 L 6123.96,2504.03 Z " />
<path stroke="transparent" fill="#000000" transform="matrix(0.0833333 0 0 0.0833333 -170.25 -69)" d="M 6739.23,1512.38 L 6794.3,1553.31 L 6860.01,1542.48 L 6680.73,2137.66 L 6669.55,2140.2 L 6660.38,2133.34 L 6739.23,1512.38 Z " />
<path stroke="transparent" fill="#000000" transform="matrix(0.0833333 0 0 0.0833333 -170.25 -69)" d="M 6362.97,1136.12 L 6377.11,1121.98 L 6788.35,1533.22 L 6794.3,1553.31 L 6739.23,1512.38 L 6362.97,1136.12 Z " />
<path stroke="transparent" fill="#000000" transform="matrix(0.0833333 0 0 0.0833333 -170.25 -69)" d="M 7361.84,1358.39 L 7368.03,1377.41 L 6860.01,1542.48 L 6794.3,1553.31 L 6807.68,1538.45 L 7361.84,1358.39 Z " />
<path stroke="transparent" fill="#000000" transform="matrix(0.0833333 0 0 0.0833333 -170.25 -69)" d="M 6883.89,1083.72 L 6903.46,1087.88 L 6807.68,1538.45 L 6794.3,1553.31 L 6788.35,1533.22 L 6883.89,1083.72 Z " />
<path stroke="transparent" fill="#000000" transform="matrix(0.0833333 0 0 0.0833333 -170.25 -69)" d="M 6009.97,3549.36 L 5987.82,3552.81 L 6173.98,2979.89 L 6184.14,2980.96 L 6190.87,2992.61 L 6009.97,3549.36 Z " />
<path stroke="transparent" fill="#000000" transform="matrix(0.0833333 0 0 0.0833333 -170.25 -69)" d="M 6394.22,3995.09 L 6307.67,4080.19 L 5987.82,3552.81 L 6009.97,3549.36 L 6394.22,3995.09 Z " />
<path stroke="transparent" fill="#000000" transform="matrix(0.0833333 0 0 0.0833333 -170.25 -69)" d="M 6002.55,4534.17 L 5994.91,4510.65 L 6307.67,4080.19 L 6394.22,3995.09 L 6002.55,4534.17 Z " />
<path stroke="transparent" fill="#000000" transform="matrix(0.0833333 0 0 0.0833333 -170.25 -69)" d="M 5429.24,4347.89 L 5428.1,4337 L 5438.1,4329.73 L 5994.91,4510.65 L 6002.55,4534.17 L 5429.24,4347.89 Z " />
<path stroke="transparent" fill="#000000" transform="matrix(0.0833333 0 0 0.0833333 -170.25 -69)" d="M 5418.1,3742.77 L 5438.1,3731.23 L 5438.1,4329.73 L 5428.1,4337 L 5418.1,4331.23 L 5418.1,3742.77 Z " />
<path stroke="transparent" fill="#000000" transform="matrix(0.0833333 0 0 0.0833333 -170.25 -69)" d="M 5482.55,3729.82 L 5476.37,3710.8 L 5494.76,3702.69 L 5502.2,3725.58 L 5482.55,3729.82 Z " />
<path stroke="transparent" fill="#000000" transform="matrix(0.0833333 0 0 0.0833333 -170.25 -69)" d="M 5540.51,3717.29 L 5530.63,3686.87 L 5549.02,3678.75 L 5560.16,3713.05 L 5540.51,3717.29 Z " />
<path stroke="transparent" fill="#000000" transform="matrix(0.0833333 0 0 0.0833333 -170.25 -69)" d="M 5598.48,3704.76 L 5584.89,3662.93 L 5603.28,3654.82 L 5618.13,3700.52 L 5598.48,3704.76 Z " />
<path stroke="transparent" fill="#000000" transform="matrix(0.0833333 0 0 0.0833333 -170.25 -69)" d="M 5656.44,3692.24 L 5639.15,3639 L 5657.54,3630.89 L 5676.09,3687.99 L 5656.44,3692.24 Z " />
<path stroke="transparent" fill="#000000" transform="matrix(0.0833333 0 0 0.0833333 -170.25 -69)" d="M 5714.41,3679.71 L 5693.4,3615.06 L 5711.8,3606.95 L 5734.06,3675.46 L 5714.41,3679.71 Z " />
<path stroke="transparent" fill="#000000" transform="matrix(0.0833333 0 0 0.0833333 -170.25 -69)" d="M 5772.37,3667.18 L 5747.66,3591.13 L 5766.06,3583.02 L 5792.02,3662.93 L 5772.37,3667.18 Z " />
<path stroke="transparent" fill="#000000" transform="matrix(0.0833333 0 0 0.0833333 -170.25 -69)" d="M 5830.34,3654.65 L 5801.92,3567.2 L 5820.32,3559.08 L 5849.99,3650.4 L 5830.34,3654.65 Z " />
<path stroke="transparent" fill="#000000" transform="matrix(0.0833333 0 0 0.0833333 -170.25 -69)" d="M 5888.3,3642.12 L 5856.18,3543.26 L 5874.58,3535.15 L 5907.95,3637.87 L 5888.3,3642.12 Z " />
<path stroke="transparent" fill="#000000" transform="matrix(0.0833333 0 0 0.0833333 -170.25 -69)" d="M 5946.27,3629.59 L 5910.44,3519.33 L 5928.84,3511.21 L 5965.92,3625.34 L 5946.27,3629.59 Z " />
<path stroke="transparent" fill="#000000" transform="matrix(0.0833333 0 0 0.0833333 -170.25 -69)" d="M 4908.48,3448.55 L 4908.48,3437 L 4919.05,3431.55 L 5438.1,3731.23 L 5418.1,3742.77 L 4908.48,3448.55 Z " />
<path stroke="transparent" fill="#000000" transform="matrix(0.0833333 0 0 0.0833333 -170.25 -69)" d="M 4450.89,3712.74 L 4330.71,3759.03 L 4897.92,3431.55 L 4908.48,3437 L 4908.48,3448.55 L 4450.89,3712.74 Z " />
<path stroke="transparent" fill="#000000" transform="matrix(0.0833333 0 0 0.0833333 -170.25 -69)" d="M 4399.33,4331.49 L 4388.87,4337 L 4378.41,4331.49 L 4330.71,3759.03 L 4450.89,3712.74 L 4399.33,4331.49 Z " />
<path stroke="transparent" fill="#000000" transform="matrix(0.0833333 0 0 0.0833333 -170.25 -69)" d="M 4896.97,4618.8 L 4908.48,4637 L 4898.48,4642.77 L 4388.87,4348.55 L 4388.87,4337 L 4399.33,4331.49 L 4896.97,4618.8 Z " />
<path stroke="transparent" fill="#000000" transform="matrix(0.0833333 0 0 0.0833333 -170.25 -69)" d="M 4918.48,4642.77 L 4908.48,4637 L 4920,4618.8 L 5418.1,4331.23 L 5428.1,4337 L 5429.24,4347.89 L 4918.48,4642.77 Z " />
<path stroke="transparent" fill="#000000" transform="matrix(0.0833333 0 0 0.0833333 -170.25 -69)" d="M 4918.48,5242.77 L 4898.48,5231.23 L 4898.48,4642.77 L 4908.48,4637 L 4918.48,4642.77 L 4918.48,5242.77 Z " />
<path stroke="transparent" fill="#000000" transform="matrix(0.0833333 0 0 0.0833333 -170.25 -69)" d="M 4388.87,5548.55 L 4388.87,5525.45 L 4898.48,5231.23 L 4918.48,5242.77 L 4388.87,5548.55 Z " />
<path stroke="transparent" fill="#000000" transform="matrix(0.0833333 0 0 0.0833333 -170.25 -69)" d="M 3869.71,5248.81 L 3869.25,5237 L 3879.25,5231.23 L 4388.87,5525.45 L 4388.87,5548.55 L 3869.71,5248.81 Z " />
<path stroke="transparent" fill="#000000" transform="matrix(0.0833333 0 0 0.0833333 -170.25 -69)" d="M 3859.25,4642.77 L 3869.25,4637 L 3879.25,4642.77 L 3879.25,5231.23 L 3869.25,5237 L 3859.25,5230.7 L 3859.25,4642.77 Z " />
<path stroke="transparent" fill="#000000" transform="matrix(0.0833333 0 0 0.0833333 -170.25 -69)" d="M 3879.25,4642.77 L 3869.25,4637 L 3880.77,4618.8 L 4378.41,4331.49 L 4388.87,4337 L 4388.87,4348.55 L 3879.25,4642.77 Z " />
<path stroke="transparent" fill="#000000" transform="matrix(0.0833333 0 0 0.0833333 -170.25 -69)" d="M 3349.64,4348.55 L 3349.64,4325.45 L 3857.74,4618.8 L 3869.25,4637 L 3859.25,4642.77 L 3349.64,4348.55 Z " />
<path stroke="transparent" fill="#000000" transform="matrix(0.0833333 0 0 0.0833333 -170.25 -69)" d="M 2840.02,4642.77 L 2820.02,4631.23 L 3349.64,4325.45 L 3349.64,4348.55 L 2840.02,4642.77 Z " />
<path stroke="transparent" fill="#000000" transform="matrix(0.0833333 0 0 0.0833333 -170.25 -69)" d="M 2840.02,5231.23 L 2830.02,5237 L 2820.02,5230.59 L 2820.02,4631.23 L 2840.02,4642.77 L 2840.02,5231.23 Z " />
<path stroke="transparent" fill="#000000" transform="matrix(0.0833333 0 0 0.0833333 -170.25 -69)" d="M 3297.62,5495.42 L 3349.64,5537 L 3335.98,5540.66 L 2830.58,5248.87 L 2830.02,5237 L 2840.02,5231.23 L 3297.62,5495.42 Z " />
<path stroke="transparent" fill="#000000" transform="matrix(0.0833333 0 0 0.0833333 -170.25 -69)" d="M 3387.88,5583.24 L 3349.64,5537 L 3297.62,5495.42 L 3859.25,5230.7 L 3869.25,5237 L 3869.71,5248.81 L 3387.88,5583.24 Z " />
<path stroke="transparent" fill="#000000" transform="matrix(0.0833333 0 0 0.0833333 -170.25 -69)" d="M 3658.3,6051.62 L 3640.98,6061.62 L 3349.64,5557 L 3349.64,5537 L 3387.88,5583.24 L 3658.3,6051.62 Z " />
<path stroke="transparent" fill="#000000" transform="matrix(0.0833333 0 0 0.0833333 -170.25 -69)" d="M 3058.3,6061.62 L 3040.98,6051.62 L 3335.98,5540.66 L 3349.64,5537 L 3349.64,5557 L 3058.3,6061.62 Z " />
<path stroke="transparent" fill="#000000" transform="matrix(0.0833333 0 0 0.0833333 -170.25 -69)" d="M 2433.02,5535.49 L 2373.02,5431.57 L 2820.02,5230.59 L 2830.02,5237 L 2830.58,5248.87 L 2433.02,5535.49 Z " />
<path stroke="transparent" fill="#000000" transform="matrix(0.0833333 0 0 0.0833333 -170.25 -69)" d="M 3809.25,4037 L 3929.25,4037 L 3880.77,4618.8 L 3869.25,4637 L 3857.74,4618.8 L 3809.25,4037 Z " />
<path stroke="transparent" fill="#000000" transform="matrix(0.0833333 0 0 0.0833333 -170.25 -69)" d="M 4448.87,6031.83 L 4328.87,6031.83 L 4331.14,6011.83 L 4446.6,6011.83 L 4448.87,6031.83 Z " />
<path stroke="transparent" fill="#000000" transform="matrix(0.0833333 0 0 0.0833333 -170.25 -69)" d="M 4442.05,5971.73 L 4335.69,5971.73 L 4337.96,5951.73 L 4439.78,5951.73 L 4442.05,5971.73 Z " />
<path stroke="transparent" fill="#000000" transform="matrix(0.0833333 0 0 0.0833333 -170.25 -69)" d="M 4435.23,5911.62 L 4342.51,5911.62 L 4344.78,5891.62 L 4432.96,5891.62 L 4435.23,5911.62 Z " />
<path stroke="transparent" fill="#000000" transform="matrix(0.0833333 0 0 0.0833333 -170.25 -69)" d="M 4428.41,5851.52 L 4349.33,5851.52 L 4351.59,5831.52 L 4426.14,5831.52 L 4428.41,5851.52 Z " />
<path stroke="transparent" fill="#000000" transform="matrix(0.0833333 0 0 0.0833333 -170.25 -69)" d="M 4421.59,5791.41 L 4356.14,5791.41 L 4358.41,5771.41 L 4419.33,5771.41 L 4421.59,5791.41 Z " />
<path stroke="transparent" fill="#000000" transform="matrix(0.0833333 0 0 0.0833333 -170.25 -69)" d="M 4414.78,5731.3 L 4362.96,5731.3 L 4365.23,5711.3 L 4412.51,5711.3 L 4414.78,5731.3 Z " />
<path stroke="transparent" fill="#000000" transform="matrix(0.0833333 0 0 0.0833333 -170.25 -69)" d="M 4407.96,5671.2 L 4369.78,5671.2 L 4372.05,5651.2 L 4405.69,5651.2 L 4407.96,5671.2 Z " />
<path stroke="transparent" fill="#000000" transform="matrix(0.0833333 0 0 0.0833333 -170.25 -69)" d="M 4401.14,5611.09 L 4376.6,5611.09 L 4378.87,5591.09 L 4398.87,5591.09 L 4401.14,5611.09 Z " />
<path stroke="transparent" fill="#000000" transform="matrix(0.0833333 0 0 0.0833333 -170.25 -69)" d="M 4866.67,6401.31 L 4856.67,6418.63 L 4838.19,6410.65 L 4850.51,6389.3 L 4866.67,6401.31 Z " />
<path stroke="transparent" fill="#000000" transform="matrix(0.0833333 0 0 0.0833333 -170.25 -69)" d="M 4819.3,6366.1 L 4802.49,6395.21 L 4784.01,6387.23 L 4803.14,6354.09 L 4819.3,6366.1 Z " />
<path stroke="transparent" fill="#000000" transform="matrix(0.0833333 0 0 0.0833333 -170.25 -69)" d="M 4771.93,6330.88 L 4748.31,6371.8 L 4729.82,6363.81 L 4755.77,6318.87 L 4771.93,6330.88 Z " />
<path stroke="transparent" fill="#000000" transform="matrix(0.0833333 0 0 0.0833333 -170.25 -69)" d="M 4724.55,6295.67 L 4694.12,6348.38 L 4675.64,6340.39 L 4708.4,6283.66 L 4724.55,6295.67 Z " />
<path stroke="transparent" fill="#000000" transform="matrix(0.0833333 0 0 0.0833333 -170.25 -69)" d="M 4677.18,6260.45 L 4639.94,6324.96 L 4621.46,6316.97 L 4661.02,6248.44 L 4677.18,6260.45 Z " />
<path stroke="transparent" fill="#000000" transform="matrix(0.0833333 0 0 0.0833333 -170.25 -69)" d="M 4629.81,6225.24 L 4585.75,6301.54 L 4567.27,6293.55 L 4613.65,6213.22 L 4629.81,6225.24 Z " />
<path stroke="transparent" fill="#000000" transform="matrix(0.0833333 0 0 0.0833333 -170.25 -69)" d="M 4582.44,6190.02 L 4531.57,6278.12 L 4513.09,6270.14 L 4566.28,6178.01 L 4582.44,6190.02 Z " />
<path stroke="transparent" fill="#000000" transform="matrix(0.0833333 0 0 0.0833333 -170.25 -69)" d="M 4535.06,6154.81 L 4477.39,6254.71 L 4458.91,6246.72 L 4518.91,6142.79 L 4535.06,6154.81 Z " />
<path stroke="transparent" fill="#000000" transform="matrix(0.0833333 0 0 0.0833333 -170.25 -69)" d="M 4918.48,7031.23 L 4908.48,7037 L 4898.48,7030.59 L 4898.48,6431.23 L 4918.48,6442.77 L 4918.48,7031.23 Z " />
<path stroke="transparent" fill="#000000" transform="matrix(0.0833333 0 0 0.0833333 -170.25 -69)" d="M 5428.1,7325.45 L 5428.1,7348.55 L 4909.04,7048.87 L 4908.48,7037 L 4918.48,7031.23 L 5428.1,7325.45 Z " />
<path stroke="transparent" fill="#000000" transform="matrix(0.0833333 0 0 0.0833333 -170.25 -69)" d="M 5937.72,7031.23 L 5947.72,7037 L 5947.16,7048.87 L 5428.1,7348.55 L 5428.1,7325.45 L 5937.72,7031.23 Z " />
<path stroke="transparent" fill="#000000" transform="matrix(0.0833333 0 0 0.0833333 -170.25 -69)" d="M 5937.72,6442.77 L 5957.72,6431.23 L 5957.72,7030.59 L 5947.72,7037 L 5937.72,7031.23 L 5937.72,6442.77 Z " />
<path stroke="transparent" fill="#000000" transform="matrix(0.0833333 0 0 0.0833333 -170.25 -69)" d="M 5523.14,6203.42 L 5533.14,6186.1 L 5957.72,6431.23 L 5937.72,6442.77 L 5523.14,6203.42 Z " />
<path stroke="transparent" fill="#000000" transform="matrix(0.0833333 0 0 0.0833333 -170.25 -69)" d="M 5323.5,6185.85 L 5333.5,6203.17 L 4918.48,6442.77 L 4898.48,6431.23 L 5323.5,6185.85 Z " />
<path stroke="transparent" fill="#000000" transform="matrix(0.0833333 0 0 0.0833333 -170.25 -69)" d="M 6390.49,6112.08 L 6450.49,6216.01 L 6432.15,6224.25 L 6374.18,6123.84 L 6390.49,6112.08 Z " />
<path stroke="transparent" fill="#000000" transform="matrix(0.0833333 0 0 0.0833333 -170.25 -69)" d="M 6342.41,6146.76 L 6396.41,6240.3 L 6378.08,6248.54 L 6326.1,6158.53 L 6342.41,6146.76 Z " />
<path stroke="transparent" fill="#000000" transform="matrix(0.0833333 0 0 0.0833333 -170.25 -69)" d="M 6294.33,6181.45 L 6342.34,6264.6 L 6324,6272.84 L 6278.03,6193.21 L 6294.33,6181.45 Z " />
<path stroke="transparent" fill="#000000" transform="matrix(0.0833333 0 0 0.0833333 -170.25 -69)" d="M 6246.25,6216.13 L 6288.27,6288.9 L 6269.93,6297.13 L 6229.95,6227.89 L 6246.25,6216.13 Z " />
<path stroke="transparent" fill="#000000" transform="matrix(0.0833333 0 0 0.0833333 -170.25 -69)" d="M 6198.17,6250.81 L 6234.19,6313.19 L 6215.85,6321.43 L 6181.87,6262.57 L 6198.17,6250.81 Z " />
<path stroke="transparent" fill="#000000" transform="matrix(0.0833333 0 0 0.0833333 -170.25 -69)" d="M 6150.1,6285.49 L 6180.12,6337.49 L 6161.78,6345.73 L 6133.79,6297.25 L 6150.1,6285.49 Z " />
<path stroke="transparent" fill="#000000" transform="matrix(0.0833333 0 0 0.0833333 -170.25 -69)" d="M 6102.02,6320.17 L 6126.04,6361.78 L 6107.71,6370.02 L 6085.71,6331.93 L 6102.02,6320.17 Z " />
<path stroke="transparent" fill="#000000" transform="matrix(0.0833333 0 0 0.0833333 -170.25 -69)" d="M 6053.94,6354.85 L 6071.97,6386.08 L 6053.63,6394.32 L 6037.64,6366.61 L 6053.94,6354.85 Z " />
<path stroke="transparent" fill="#000000" transform="matrix(0.0833333 0 0 0.0833333 -170.25 -69)" d="M 6005.86,6389.53 L 6017.9,6410.38 L 5999.56,6418.62 L 5989.56,6401.29 L 6005.86,6389.53 Z " />
<path stroke="transparent" fill="#000000" transform="matrix(0.0833333 0 0 0.0833333 -170.25 -69)" d="M 6899.33,6374.87 L 6889.33,6392.19 L 6462.33,6145.66 L 6472.33,6128.34 L 6899.33,6374.87 Z " />
<path stroke="transparent" fill="#000000" transform="matrix(0.0833333 0 0 0.0833333 -170.25 -69)" d="M 6404.71,7231.57 L 6344.71,7335.49 L 5947.16,7048.87 L 5947.72,7037 L 5957.72,7030.59 L 6404.71,7231.57 Z " />
<path stroke="transparent" fill="#000000" transform="matrix(0.0833333 0 0 0.0833333 -170.25 -69)" d="M 5488.1,7831.83 L 5368.1,7831.83 L 5370.37,7811.83 L 5485.83,7811.83 L 5488.1,7831.83 Z " />
<path stroke="transparent" fill="#000000" transform="matrix(0.0833333 0 0 0.0833333 -170.25 -69)" d="M 5481.28,7771.73 L 5374.92,7771.73 L 5377.19,7751.73 L 5479.01,7751.73 L 5481.28,7771.73 Z " />
<path stroke="transparent" fill="#000000" transform="matrix(0.0833333 0 0 0.0833333 -170.25 -69)" d="M 5474.46,7711.62 L 5381.74,7711.62 L 5384.01,7691.62 L 5472.19,7691.62 L 5474.46,7711.62 Z " />
<path stroke="transparent" fill="#000000" transform="matrix(0.0833333 0 0 0.0833333 -170.25 -69)" d="M 5467.64,7651.52 L 5388.56,7651.52 L 5390.82,7631.52 L 5465.37,7631.52 L 5467.64,7651.52 Z " />
<path stroke="transparent" fill="#000000" transform="matrix(0.0833333 0 0 0.0833333 -170.25 -69)" d="M 5460.82,7591.41 L 5395.37,7591.41 L 5397.64,7571.41 L 5458.56,7571.41 L 5460.82,7591.41 Z " />
<path stroke="transparent" fill="#000000" transform="matrix(0.0833333 0 0 0.0833333 -170.25 -69)" d="M 5454.01,7531.3 L 5402.19,7531.3 L 5404.46,7511.3 L 5451.74,7511.3 L 5454.01,7531.3 Z " />
<path stroke="transparent" fill="#000000" transform="matrix(0.0833333 0 0 0.0833333 -170.25 -69)" d="M 5447.19,7471.2 L 5409.01,7471.2 L 5411.28,7451.2 L 5444.92,7451.2 L 5447.19,7471.2 Z " />
<path stroke="transparent" fill="#000000" transform="matrix(0.0833333 0 0 0.0833333 -170.25 -69)" d="M 5440.37,7411.09 L 5415.83,7411.09 L 5418.1,7391.09 L 5438.1,7391.09 L 5440.37,7411.09 Z " />
<path stroke="transparent" fill="#000000" transform="matrix(0.0833333 0 0 0.0833333 -170.25 -69)" d="M 4511.48,7335.49 L 4451.48,7231.57 L 4898.48,7030.59 L 4908.48,7037 L 4909.04,7048.87 L 4511.48,7335.49 Z " />
<path stroke="transparent" fill="#000000" transform="matrix(0.0833333 0 0 0.0833333 -170.25 -69)" d="M 4848.48,4037 L 4968.48,4037 L 4920,4618.8 L 4908.48,4637 L 4896.97,4618.8 L 4848.48,4037 Z " />
<path stroke="transparent" fill="#000000" transform="matrix(0.0833333 0 0 0.0833333 -170.25 -69)" d="M 4848.48,2956.83 L 4968.48,2956.83 L 4919.05,3431.55 L 4908.48,3437 L 4897.92,3431.55 L 4848.48,2956.83 Z " />
<path stroke="transparent" fill="#000000" transform="matrix(0.0833333 0 0 0.0833333 -170.25 -69)" d="M 5488.1,4937 L 5368.1,4937 L 5369.93,4917 L 5486.27,4917 L 5488.1,4937 Z " />
<path stroke="transparent" fill="#000000" transform="matrix(0.0833333 0 0 0.0833333 -170.25 -69)" d="M 5482.75,4878.56 L 5373.45,4878.56 L 5375.28,4858.56 L 5480.92,4858.56 L 5482.75,4878.56 Z " />
<path stroke="transparent" fill="#000000" transform="matrix(0.0833333 0 0 0.0833333 -170.25 -69)" d="M 5477.4,4820.11 L 5378.8,4820.11 L 5380.64,4800.11 L 5475.56,4800.11 L 5477.4,4820.11 Z " />
<path stroke="transparent" fill="#000000" transform="matrix(0.0833333 0 0 0.0833333 -170.25 -69)" d="M 5472.04,4761.67 L 5384.16,4761.67 L 5385.99,4741.67 L 5470.21,4741.67 L 5472.04,4761.67 Z " />
<path stroke="transparent" fill="#000000" transform="matrix(0.0833333 0 0 0.0833333 -170.25 -69)" d="M 5466.69,4703.22 L 5389.51,4703.22 L 5391.34,4683.22 L 5464.86,4683.22 L 5466.69,4703.22 Z " />
<path stroke="transparent" fill="#000000" transform="matrix(0.0833333 0 0 0.0833333 -170.25 -69)" d="M 5461.34,4644.78 L 5394.86,4644.78 L 5396.69,4624.78 L 5459.51,4624.78 L 5461.34,4644.78 Z " />
<path stroke="transparent" fill="#000000" transform="matrix(0.0833333 0 0 0.0833333 -170.25 -69)" d="M 5455.99,4586.33 L 5400.21,4586.33 L 5402.04,4566.33 L 5454.16,4566.33 L 5455.99,4586.33 Z " />
<path stroke="transparent" fill="#000000" transform="matrix(0.0833333 0 0 0.0833333 -170.25 -69)" d="M 5450.64,4527.89 L 5405.56,4527.89 L 5407.4,4507.89 L 5448.8,4507.89 L 5450.64,4527.89 Z " />
<path stroke="transparent" fill="#000000" transform="matrix(0.0833333 0 0 0.0833333 -170.25 -69)" d="M 5445.28,4469.44 L 5410.92,4469.44 L 5412.75,4449.44 L 5443.45,4449.44 L 5445.28,4469.44 Z " />
<path stroke="transparent" fill="#000000" transform="matrix(0.0833333 0 0 0.0833333 -170.25 -69)" d="M 5439.93,4411 L 5416.27,4411 L 5418.1,4391 L 5438.1,4391 L 5439.93,4411 Z " />
</svg>
