<?xml version="1.0" standalone="no" ?>
<!DOCTYPE svg PUBLIC "-//W3C//DTD SVG 1.1//EN" "http://www.w3.org/Graphics/SVG/1.1/DTD/svg11.dtd">
<svg width="362px" height="436px" viewBox="0 0 362 436" style="background-color: #ffffff00" xmlns="http://www.w3.org/2000/svg" xmlns:xlink="http://www.w3.org/1999/xlink" version="1.1" >
<text x="0" y="0" stroke="transparent" fill="#000000" transform="matrix(0.0666667 0 0 0.0666667 249.043 237.735)" style="font:normal normal normal 200px 'Arial'" >
O</text>
<text x="0" y="0" stroke="transparent" fill="#000000" transform="matrix(0.0666667 0 0 0.0666667 249.043 277.735)" style="font:normal normal normal 200px 'Arial'" >
O</text>
<text x="0" y="0" stroke="transparent" fill="#000000" transform="matrix(0.0666667 0 0 0.0666667 97.1985 14.7383)" style="font:normal normal normal 200px 'Arial'" >
O</text>
<text x="0" y="0" stroke="transparent" fill="#000000" transform="matrix(0.0666667 0 0 0.0666667 145.121 177.735)" style="font:normal normal normal 200px 'Arial'" >
O</text>
<text x="0" y="0" stroke="transparent" fill="#000000" transform="matrix(0.0666667 0 0 0.0666667 66.2072 97.7298)" style="font:normal normal normal 200px 'Arial'" >
HO</text>
<text x="0" y="0" stroke="transparent" fill="#000000" transform="matrix(0.0666667 0 0 0.0666667 2.99267 46.2195)" style="font:normal normal normal 200px 'Arial'" >
HO</text>
<text x="0" y="0" stroke="transparent" fill="#000000" transform="matrix(0.0666667 0 0 0.0666667 185.121 137.735)" style="font:normal normal normal 200px 'Arial'" >
O</text>
<text x="0" y="0" stroke="transparent" fill="#000000" transform="matrix(0.0666667 0 0 0.0666667 110.474 317.735)" style="font:normal normal normal 200px 'Arial'" >
O</text>
<text x="0" y="0" stroke="transparent" fill="#000000" transform="matrix(0.0666667 0 0 0.0666667 145.521 337.739)" style="font:normal normal normal 200px 'Arial'" >
N</text>
<text x="0" y="0" stroke="transparent" fill="#000000" transform="matrix(0.0666667 0 0 0.0666667 56.8179 27.5528)" style="font:normal normal normal 200px 'Arial'" >
H</text>
<text x="0" y="0" stroke="transparent" fill="#000000" transform="matrix(0.0666667 0 0 0.0666667 150.714 214.733)" style="font:normal normal normal 200px 'Arial'" >
H</text>
<text x="0" y="0" stroke="transparent" fill="#000000" transform="matrix(0.0666667 0 0 0.0666667 110.874 151.732)" style="font:normal normal normal 200px 'Arial'" >
H</text>
<text x="0" y="0" stroke="transparent" fill="#000000" transform="matrix(0.0666667 0 0 0.0666667 278.888 214.733)" style="font:normal normal normal 200px 'Arial'" >
H</text>
<path stroke="transparent" fill="#000000" transform="matrix(0.0666667 0 0 0.0666667 -164.425 -95)" d="M 5765.39,5221.68 L 5760.39,5213.02 L 5760.39,5201.47 L 6175.43,4961.86 L 6185.43,4979.18 L 5765.39,5221.68 Z " />
<path stroke="transparent" fill="#000000" transform="matrix(0.0666667 0 0 0.0666667 -164.425 -95)" d="M 6270.03,4318.79 L 6280.03,4313.02 L 6290.03,4318.79 L 6290.03,4807.85 L 6270.03,4807.85 L 6270.03,4318.79 Z " />
<path stroke="transparent" fill="#000000" transform="matrix(0.0666667 0 0 0.0666667 -164.425 -95)" d="M 6217.41,5407.59 L 6157.41,5511.51 L 6141.23,5499.54 L 6198.95,5399.56 L 6217.41,5407.59 Z " />
<path stroke="transparent" fill="#000000" transform="matrix(0.0666667 0 0 0.0666667 -164.425 -95)" d="M 6162.15,5383.56 L 6108.97,5475.67 L 6092.79,5463.7 L 6143.7,5375.53 L 6162.15,5383.56 Z " />
<path stroke="transparent" fill="#000000" transform="matrix(0.0666667 0 0 0.0666667 -164.425 -95)" d="M 6106.9,5359.53 L 6060.54,5439.84 L 6044.35,5427.86 L 6088.44,5351.5 L 6106.9,5359.53 Z " />
<path stroke="transparent" fill="#000000" transform="matrix(0.0666667 0 0 0.0666667 -164.425 -95)" d="M 6051.65,5335.5 L 6012.1,5404 L 5995.92,5392.03 L 6033.19,5327.47 L 6051.65,5335.5 Z " />
<path stroke="transparent" fill="#000000" transform="matrix(0.0666667 0 0 0.0666667 -164.425 -95)" d="M 5996.39,5311.47 L 5963.66,5368.16 L 5947.48,5356.19 L 5977.93,5303.45 L 5996.39,5311.47 Z " />
<path stroke="transparent" fill="#000000" transform="matrix(0.0666667 0 0 0.0666667 -164.425 -95)" d="M 5941.14,5287.45 L 5915.22,5332.33 L 5899.04,5320.36 L 5922.68,5279.42 L 5941.14,5287.45 Z " />
<path stroke="transparent" fill="#000000" transform="matrix(0.0666667 0 0 0.0666667 -164.425 -95)" d="M 5885.88,5263.42 L 5866.79,5296.49 L 5850.6,5284.52 L 5867.42,5255.39 L 5885.88,5263.42 Z " />
<path stroke="transparent" fill="#000000" transform="matrix(0.0666667 0 0 0.0666667 -164.425 -95)" d="M 5830.63,5239.39 L 5818.35,5260.65 L 5802.17,5248.68 L 5812.17,5231.36 L 5830.63,5239.39 Z " />
<path stroke="transparent" fill="#000000" transform="matrix(0.0666667 0 0 0.0666667 -164.425 -95)" d="M 6290.03,6118.79 L 6270.03,6107.25 L 6270.03,5632.85 L 6290.03,5632.85 L 6290.03,6118.79 Z " />
<path stroke="transparent" fill="#000000" transform="matrix(0.0666667 0 0 0.0666667 -164.425 -95)" d="M 3771.39,2110.25 L 3759.3,2112.8 L 3751.63,2105.46 L 3943.69,1675.02 L 3961.95,1683.17 L 3771.39,2110.25 Z " />
<path stroke="transparent" fill="#000000" transform="matrix(0.0666667 0 0 0.0666667 -164.425 -95)" d="M 4603.92,1620.7 L 4587.42,1639.09 L 4108.38,1589.18 L 4110.45,1569.28 L 4603.92,1620.7 Z " />
<path stroke="transparent" fill="#000000" transform="matrix(0.0666667 0 0 0.0666667 -164.425 -95)" d="M 5240.76,4301.47 L 5240.76,4313.02 L 5230.76,4318.79 L 4816.23,4079.44 L 4826.23,4062.12 L 5240.76,4301.47 Z " />
<path stroke="transparent" fill="#000000" transform="matrix(0.0666667 0 0 0.0666667 -164.425 -95)" d="M 4711.19,3418.79 L 4731.19,3407.25 L 4731.19,3907.85 L 4711.19,3907.85 L 4711.19,3418.79 Z " />
<path stroke="transparent" fill="#000000" transform="matrix(0.0666667 0 0 0.0666667 -164.425 -95)" d="M 3804.53,2811.43 L 3744.53,2707.51 L 3762.99,2699.49 L 3820.71,2799.46 L 3804.53,2811.43 Z " />
<path stroke="transparent" fill="#000000" transform="matrix(0.0666667 0 0 0.0666667 -164.425 -95)" d="M 3852.96,2775.6 L 3799.77,2683.49 L 3818.23,2675.46 L 3869.14,2763.63 L 3852.96,2775.6 Z " />
<path stroke="transparent" fill="#000000" transform="matrix(0.0666667 0 0 0.0666667 -164.425 -95)" d="M 3901.39,2739.76 L 3855.02,2659.46 L 3873.48,2651.43 L 3917.57,2727.79 L 3901.39,2739.76 Z " />
<path stroke="transparent" fill="#000000" transform="matrix(0.0666667 0 0 0.0666667 -164.425 -95)" d="M 3949.82,2703.93 L 3910.27,2635.43 L 3928.73,2627.4 L 3966,2691.95 L 3949.82,2703.93 Z " />
<path stroke="transparent" fill="#000000" transform="matrix(0.0666667 0 0 0.0666667 -164.425 -95)" d="M 3998.25,2668.09 L 3965.52,2611.4 L 3983.98,2603.37 L 4014.43,2656.12 L 3998.25,2668.09 Z " />
<path stroke="transparent" fill="#000000" transform="matrix(0.0666667 0 0 0.0666667 -164.425 -95)" d="M 4046.68,2632.26 L 4020.76,2587.37 L 4039.22,2579.35 L 4062.86,2620.28 L 4046.68,2632.26 Z " />
<path stroke="transparent" fill="#000000" transform="matrix(0.0666667 0 0 0.0666667 -164.425 -95)" d="M 4095.11,2596.42 L 4076.01,2563.35 L 4094.47,2555.32 L 4111.29,2584.45 L 4095.11,2596.42 Z " />
<path stroke="transparent" fill="#000000" transform="matrix(0.0666667 0 0 0.0666667 -164.425 -95)" d="M 4143.54,2560.58 L 4131.26,2539.32 L 4149.72,2531.29 L 4159.72,2548.61 L 4143.54,2560.58 Z " />
<path stroke="transparent" fill="#000000" transform="matrix(0.0666667 0 0 0.0666667 -164.425 -95)" d="M 2796.16,2155.53 L 2863.79,2056.4 L 3230.71,2366.53 L 3229.34,2378.4 L 3218.79,2384 L 2796.16,2155.53 Z " />
<path stroke="transparent" fill="#000000" transform="matrix(0.0666667 0 0 0.0666667 -164.425 -95)" d="M 4721.19,3459.02 L 4721.19,3439.02 L 5213.19,3439.02 L 5213.19,3459.02 L 4721.19,3459.02 Z " />
<path stroke="transparent" fill="#000000" transform="matrix(0.0666667 0 0 0.0666667 -164.425 -95)" d="M 4658.83,3387.02 L 4658.83,3367.02 L 5213.19,3367.02 L 5213.19,3387.02 L 4658.83,3387.02 Z " />
<path stroke="transparent" fill="#000000" transform="matrix(0.0666667 0 0 0.0666667 -164.425 -95)" d="M 4622.35,6344.47 L 4612.35,6361.79 L 4296.52,6179.44 L 4306.52,6162.12 L 4622.35,6344.47 Z " />
<path stroke="transparent" fill="#000000" transform="matrix(0.0666667 0 0 0.0666667 -164.425 -95)" d="M 3686.92,6421.75 L 3676.92,6404.43 L 4096.89,6161.88 L 4106.89,6179.2 L 3686.92,6421.75 Z " />
<path stroke="transparent" fill="#000000" transform="matrix(0.0666667 0 0 0.0666667 -164.425 -95)" d="M 5230.76,6107.25 L 5240.76,6113.02 L 5240.76,6124.57 L 4830.04,6361.78 L 4820.04,6344.46 L 5230.76,6107.25 Z " />
<path stroke="transparent" fill="#000000" transform="matrix(0.0666667 0 0 0.0666667 -164.425 -95)" d="M 5163.76,6062.8 L 5173.76,6080.12 L 4794.03,6299.43 L 4784.03,6282.11 L 5163.76,6062.8 Z " />
<path stroke="transparent" fill="#000000" transform="matrix(0.0666667 0 0 0.0666667 -164.425 -95)" d="M 3757.67,2124.81 L 3759.3,2112.8 L 3771.39,2110.25 L 4202.79,2500.64 L 4201.48,2512.95 L 4191.48,2517.38 L 3757.67,2124.81 Z " />
<path stroke="transparent" fill="#000000" transform="matrix(0.0666667 0 0 0.0666667 -164.425 -95)" d="M 4211.48,3107.25 L 4201.48,3113.02 L 4191.48,3106.16 L 4191.48,2517.38 L 4201.48,2512.95 L 4211.48,2518.72 L 4211.48,3107.25 Z " />
<path stroke="transparent" fill="#000000" transform="matrix(0.0666667 0 0 0.0666667 -164.425 -95)" d="M 4709.88,2207.93 L 4721.19,2212.95 L 4721.19,2224.49 L 4211.48,2518.72 L 4201.48,2512.95 L 4202.79,2500.64 L 4709.88,2207.93 Z " />
<path stroke="transparent" fill="#000000" transform="matrix(0.0666667 0 0 0.0666667 -164.425 -95)" d="M 5230.76,4918.79 L 5250.76,4907.25 L 5760.39,5201.47 L 5760.39,5213.02 L 5740.39,5213.02 L 5230.76,4918.79 Z " />
<path stroke="transparent" fill="#000000" transform="matrix(0.0666667 0 0 0.0666667 -164.425 -95)" d="M 5250.76,5518.79 L 5230.76,5507.25 L 5740.39,5213.02 L 5760.39,5213.02 L 5765.39,5221.68 L 5250.76,5518.79 Z " />
<path stroke="transparent" fill="#000000" transform="matrix(0.0666667 0 0 0.0666667 -164.425 -95)" d="M 3238.79,2384.85 L 3229.34,2378.4 L 3230.71,2366.53 L 3751.63,2105.46 L 3759.3,2112.8 L 3757.67,2124.81 L 3238.79,2384.85 Z " />
<path stroke="transparent" fill="#000000" transform="matrix(0.0666667 0 0 0.0666667 -164.425 -95)" d="M 3445.89,1896.13 L 3528.82,1809.4 L 3541.13,1825.47 L 3462.49,1907.71 L 3445.89,1896.13 Z " />
<path stroke="transparent" fill="#000000" transform="matrix(0.0666667 0 0 0.0666667 -164.425 -95)" d="M 3496.06,1931.13 L 3566.03,1857.95 L 3578.34,1874.02 L 3512.66,1942.7 L 3496.06,1931.13 Z " />
<path stroke="transparent" fill="#000000" transform="matrix(0.0666667 0 0 0.0666667 -164.425 -95)" d="M 3546.23,1966.12 L 3603.23,1906.51 L 3615.54,1922.57 L 3562.83,1977.7 L 3546.23,1966.12 Z " />
<path stroke="transparent" fill="#000000" transform="matrix(0.0666667 0 0 0.0666667 -164.425 -95)" d="M 3596.4,2001.12 L 3640.44,1955.06 L 3652.75,1971.12 L 3613,2012.69 L 3596.4,2001.12 Z " />
<path stroke="transparent" fill="#000000" transform="matrix(0.0666667 0 0 0.0666667 -164.425 -95)" d="M 3646.57,2036.11 L 3677.64,2003.61 L 3689.95,2019.68 L 3663.17,2047.69 L 3646.57,2036.11 Z " />
<path stroke="transparent" fill="#000000" transform="matrix(0.0666667 0 0 0.0666667 -164.425 -95)" d="M 3696.74,2071.1 L 3714.85,2052.16 L 3727.16,2068.23 L 3713.34,2082.68 L 3696.74,2071.1 Z " />
<path stroke="transparent" fill="#000000" transform="matrix(0.0666667 0 0 0.0666667 -164.425 -95)" d="M 5230.76,4318.79 L 5240.76,4313.02 L 5250.76,4318.79 L 5250.76,4907.25 L 5230.76,4918.79 L 5230.76,4318.79 Z " />
<path stroke="transparent" fill="#000000" transform="matrix(0.0666667 0 0 0.0666667 -164.425 -95)" d="M 5760.39,4001.47 L 5760.39,4024.57 L 5250.76,4318.79 L 5240.76,4313.02 L 5240.76,4301.47 L 5760.39,4001.47 Z " />
<path stroke="transparent" fill="#000000" transform="matrix(0.0666667 0 0 0.0666667 -164.425 -95)" d="M 4932.93,4560.01 L 4872.94,4456.09 L 4891.74,4448.66 L 4948.77,4547.43 L 4932.93,4560.01 Z " />
<path stroke="transparent" fill="#000000" transform="matrix(0.0666667 0 0 0.0666667 -164.425 -95)" d="M 4982.98,4520.26 L 4932.38,4432.63 L 4951.19,4425.2 L 4998.81,4507.68 L 4982.98,4520.26 Z " />
<path stroke="transparent" fill="#000000" transform="matrix(0.0666667 0 0 0.0666667 -164.425 -95)" d="M 5033.02,4480.51 L 4991.83,4409.17 L 5010.64,4401.74 L 5048.85,4467.93 L 5033.02,4480.51 Z " />
<path stroke="transparent" fill="#000000" transform="matrix(0.0666667 0 0 0.0666667 -164.425 -95)" d="M 5083.06,4440.76 L 5051.28,4385.71 L 5070.09,4378.28 L 5098.9,4428.18 L 5083.06,4440.76 Z " />
<path stroke="transparent" fill="#000000" transform="matrix(0.0666667 0 0 0.0666667 -164.425 -95)" d="M 5133.11,4401.01 L 5110.73,4362.25 L 5129.53,4354.82 L 5148.94,4388.43 L 5133.11,4401.01 Z " />
<path stroke="transparent" fill="#000000" transform="matrix(0.0666667 0 0 0.0666667 -164.425 -95)" d="M 5183.15,4361.26 L 5170.17,4338.79 L 5188.98,4331.36 L 5198.98,4348.68 L 5183.15,4361.26 Z " />
<path stroke="transparent" fill="#000000" transform="matrix(0.0666667 0 0 0.0666667 -164.425 -95)" d="M 3646.73,3337.51 L 3649.91,3314.85 L 4191.48,3106.16 L 4201.48,3113.02 L 4189.61,3128.31 L 3646.73,3337.51 Z " />
<path stroke="transparent" fill="#000000" transform="matrix(0.0666667 0 0 0.0666667 -164.425 -95)" d="M 4731.19,3407.25 L 4711.19,3418.79 L 4213.77,3131.66 L 4201.48,3113.02 L 4211.48,3107.25 L 4731.19,3407.25 Z " />
<path stroke="transparent" fill="#000000" transform="matrix(0.0666667 0 0 0.0666667 -164.425 -95)" d="M 4261.48,3520.15 L 4141.48,3520.15 L 4189.61,3128.31 L 4201.48,3113.02 L 4213.77,3131.66 L 4261.48,3520.15 Z " />
<path stroke="transparent" fill="#000000" transform="matrix(0.0666667 0 0 0.0666667 -164.425 -95)" d="M 6280.03,4301.47 L 6280.03,4313.02 L 6270.03,4318.79 L 5760.39,4024.57 L 5760.39,4001.47 L 6280.03,4301.47 Z " />
<path stroke="transparent" fill="#000000" transform="matrix(0.0666667 0 0 0.0666667 -164.425 -95)" d="M 6789.67,4007.25 L 6809.67,4018.79 L 6290.03,4318.79 L 6280.03,4313.02 L 6280.03,4301.47 L 6789.67,4007.25 Z " />
<path stroke="transparent" fill="#000000" transform="matrix(0.0666667 0 0 0.0666667 -164.425 -95)" d="M 6648.6,4456.52 L 6588.6,4560.44 L 6572.77,4547.87 L 6629.8,4449.09 L 6648.6,4456.52 Z " />
<path stroke="transparent" fill="#000000" transform="matrix(0.0666667 0 0 0.0666667 -164.425 -95)" d="M 6589.02,4432.98 L 6538.43,4520.62 L 6522.6,4508.05 L 6570.22,4425.56 L 6589.02,4432.98 Z " />
<path stroke="transparent" fill="#000000" transform="matrix(0.0666667 0 0 0.0666667 -164.425 -95)" d="M 6529.45,4409.45 L 6488.26,4480.79 L 6472.42,4468.22 L 6510.64,4402.02 L 6529.45,4409.45 Z " />
<path stroke="transparent" fill="#000000" transform="matrix(0.0666667 0 0 0.0666667 -164.425 -95)" d="M 6469.87,4385.92 L 6438.09,4440.97 L 6422.25,4428.4 L 6451.06,4378.49 L 6469.87,4385.92 Z " />
<path stroke="transparent" fill="#000000" transform="matrix(0.0666667 0 0 0.0666667 -164.425 -95)" d="M 6410.29,4362.38 L 6387.92,4401.14 L 6372.08,4388.57 L 6391.49,4354.96 L 6410.29,4362.38 Z " />
<path stroke="transparent" fill="#000000" transform="matrix(0.0666667 0 0 0.0666667 -164.425 -95)" d="M 6350.71,4338.85 L 6337.75,4361.31 L 6321.91,4348.74 L 6331.91,4331.42 L 6350.71,4338.85 Z " />
<path stroke="transparent" fill="#000000" transform="matrix(0.0666667 0 0 0.0666667 -164.425 -95)" d="M 5250.76,6107.25 L 5240.76,6113.02 L 5230.76,6107.25 L 5230.76,5507.25 L 5250.76,5518.79 L 5250.76,6107.25 Z " />
<path stroke="transparent" fill="#000000" transform="matrix(0.0666667 0 0 0.0666667 -164.425 -95)" d="M 3185.84,2964.18 L 3175.38,2968.8 L 3165.95,2962.03 L 3218.79,2384 L 3229.34,2378.4 L 3238.79,2384.85 L 3185.84,2964.18 Z " />
<path stroke="transparent" fill="#000000" transform="matrix(0.0666667 0 0 0.0666667 -164.425 -95)" d="M 4587.42,1639.09 L 4603.92,1620.7 L 4730.04,2206.51 L 4721.19,2212.95 L 4709.88,2207.93 L 4587.42,1639.09 Z " />
<path stroke="transparent" fill="#000000" transform="matrix(0.0666667 0 0 0.0666667 -164.425 -95)" d="M 5240.76,2501.4 L 5240.76,2524.49 L 4721.19,2224.49 L 4721.19,2212.95 L 4730.04,2206.51 L 5240.76,2501.4 Z " />
<path stroke="transparent" fill="#000000" transform="matrix(0.0666667 0 0 0.0666667 -164.425 -95)" d="M 5245.76,2421.15 L 5235.76,2438.47 L 4779.85,2175.23 L 4789.85,2157.91 L 5245.76,2421.15 Z " />
<path stroke="transparent" fill="#000000" transform="matrix(0.0666667 0 0 0.0666667 -164.425 -95)" d="M 5770.85,6418.6 L 5760.39,6413.09 L 5760.39,6401.54 L 6270.03,6107.25 L 6290.03,6118.79 L 5770.85,6418.6 Z " />
<path stroke="transparent" fill="#000000" transform="matrix(0.0666667 0 0 0.0666667 -164.425 -95)" d="M 6782.9,6334.13 L 6722.89,6438.04 L 6706.59,6426.28 L 6764.57,6325.88 L 6782.9,6334.13 Z " />
<path stroke="transparent" fill="#000000" transform="matrix(0.0666667 0 0 0.0666667 -164.425 -95)" d="M 6728.81,6309.81 L 6674.8,6403.34 L 6658.49,6391.58 L 6710.47,6301.57 L 6728.81,6309.81 Z " />
<path stroke="transparent" fill="#000000" transform="matrix(0.0666667 0 0 0.0666667 -164.425 -95)" d="M 6674.71,6285.5 L 6626.7,6368.64 L 6610.39,6356.88 L 6656.38,6277.26 L 6674.71,6285.5 Z " />
<path stroke="transparent" fill="#000000" transform="matrix(0.0666667 0 0 0.0666667 -164.425 -95)" d="M 6620.62,6261.18 L 6578.6,6333.95 L 6562.29,6322.18 L 6602.28,6252.94 L 6620.62,6261.18 Z " />
<path stroke="transparent" fill="#000000" transform="matrix(0.0666667 0 0 0.0666667 -164.425 -95)" d="M 6566.52,6236.87 L 6530.5,6299.25 L 6514.19,6287.48 L 6548.18,6228.63 L 6566.52,6236.87 Z " />
<path stroke="transparent" fill="#000000" transform="matrix(0.0666667 0 0 0.0666667 -164.425 -95)" d="M 6512.42,6212.55 L 6482.4,6264.55 L 6466.09,6252.78 L 6494.09,6204.31 L 6512.42,6212.55 Z " />
<path stroke="transparent" fill="#000000" transform="matrix(0.0666667 0 0 0.0666667 -164.425 -95)" d="M 6458.33,6188.24 L 6434.3,6229.85 L 6418,6218.08 L 6439.99,6180 L 6458.33,6188.24 Z " />
<path stroke="transparent" fill="#000000" transform="matrix(0.0666667 0 0 0.0666667 -164.425 -95)" d="M 6404.23,6163.92 L 6386.2,6195.15 L 6369.9,6183.39 L 6385.89,6155.68 L 6404.23,6163.92 Z " />
<path stroke="transparent" fill="#000000" transform="matrix(0.0666667 0 0 0.0666667 -164.425 -95)" d="M 6350.13,6139.61 L 6338.1,6160.45 L 6321.8,6148.69 L 6331.8,6131.37 L 6350.13,6139.61 Z " />
<path stroke="transparent" fill="#000000" transform="matrix(0.0666667 0 0 0.0666667 -164.425 -95)" d="M 5240.76,6124.57 L 5240.76,6113.02 L 5250.76,6107.25 L 5760.39,6401.54 L 5760.39,6413.09 L 5749.94,6418.6 L 5240.76,6124.57 Z " />
<path stroke="transparent" fill="#000000" transform="matrix(0.0666667 0 0 0.0666667 -164.425 -95)" d="M 5820.39,7013.09 L 5700.39,7013.09 L 5749.94,6418.6 L 5760.39,6413.09 L 5770.85,6418.6 L 5820.39,7013.09 Z " />
<path stroke="transparent" fill="#000000" transform="matrix(0.0666667 0 0 0.0666667 -164.425 -95)" d="M 3174.04,2980.33 L 3175.38,2968.8 L 3185.84,2964.18 L 3649.91,3314.85 L 3646.73,3337.51 L 3174.04,2980.33 Z " />
<path stroke="transparent" fill="#000000" transform="matrix(0.0666667 0 0 0.0666667 -164.425 -95)" d="M 3243.79,2943.87 L 3255.84,2927.91 L 3665.68,3237.61 L 3653.62,3253.56 L 3243.79,2943.87 Z " />
<path stroke="transparent" fill="#000000" transform="matrix(0.0666667 0 0 0.0666667 -164.425 -95)" d="M 2630.62,3220.57 L 2622.53,3202.27 L 3165.95,2962.03 L 3175.38,2968.8 L 3174.04,2980.33 L 2630.62,3220.57 Z " />
<path stroke="transparent" fill="#000000" transform="matrix(0.0666667 0 0 0.0666667 -164.425 -95)" d="M 6789.67,3407.25 L 6809.67,3418.79 L 6809.67,4018.79 L 6789.67,4007.25 L 6789.67,3407.25 Z " />
<path stroke="transparent" fill="#000000" transform="matrix(0.0666667 0 0 0.0666667 -164.425 -95)" d="M 6809.67,7007.32 L 6789.67,7018.87 L 6789.67,6407.32 L 6809.67,6418.86 L 6809.67,7007.32 Z " />
<path stroke="transparent" fill="#000000" transform="matrix(0.0666667 0 0 0.0666667 -164.425 -95)" d="M 6881.67,6971.52 L 6861.67,6971.52 L 6861.67,6454.66 L 6881.67,6454.66 L 6881.67,6971.52 Z " />
<path stroke="transparent" fill="#000000" transform="matrix(0.0666667 0 0 0.0666667 -164.425 -95)" d="M 7314.3,6104.36 L 7324.3,6121.68 L 6809.67,6418.86 L 6789.67,6407.32 L 7314.3,6104.36 Z " />
<path stroke="transparent" fill="#000000" transform="matrix(0.0666667 0 0 0.0666667 -164.425 -95)" d="M 5760.39,2201.4 L 5760.39,2224.49 L 5240.76,2524.49 L 5240.76,2501.4 L 5760.39,2201.4 Z " />
<path stroke="transparent" fill="#000000" transform="matrix(0.0666667 0 0 0.0666667 -164.425 -95)" d="M 7309.3,3107.25 L 7319.3,3113.02 L 7319.3,3124.57 L 6809.67,3418.79 L 6789.67,3407.25 L 7309.3,3107.25 Z " />
<path stroke="transparent" fill="#000000" transform="matrix(0.0666667 0 0 0.0666667 -164.425 -95)" d="M 7314.3,3187.5 L 7324.3,3204.82 L 6876.67,3463.25 L 6866.67,3445.93 L 7314.3,3187.5 Z " />
<path stroke="transparent" fill="#000000" transform="matrix(0.0666667 0 0 0.0666667 -164.425 -95)" d="M 7319.3,7301.54 L 7319.3,7313.09 L 7309.3,7318.87 L 6789.67,7018.87 L 6809.67,7007.32 L 7319.3,7301.54 Z " />
<path stroke="transparent" fill="#000000" transform="matrix(0.0666667 0 0 0.0666667 -164.425 -95)" d="M 6280.03,2501.4 L 6280.03,2524.49 L 5760.39,2224.49 L 5760.39,2201.4 L 6280.03,2501.4 Z " />
<path stroke="transparent" fill="#000000" transform="matrix(0.0666667 0 0 0.0666667 -164.425 -95)" d="M 6285.03,2421.15 L 6275.03,2438.47 L 5791.39,2159.25 L 5801.39,2141.93 L 6285.03,2421.15 Z " />
<path stroke="transparent" fill="#000000" transform="matrix(0.0666667 0 0 0.0666667 -164.425 -95)" d="M 7309.3,2518.72 L 7329.3,2507.17 L 7329.3,3107.25 L 7319.3,3113.02 L 7309.3,3107.25 L 7309.3,2518.72 Z " />
<path stroke="transparent" fill="#000000" transform="matrix(0.0666667 0 0 0.0666667 -164.425 -95)" d="M 7843.87,3404.36 L 7833.87,3421.68 L 7319.3,3124.57 L 7319.3,3113.02 L 7329.3,3107.25 L 7843.87,3404.36 Z " />
<path stroke="transparent" fill="#000000" transform="matrix(0.0666667 0 0 0.0666667 -164.425 -95)" d="M 6799.67,2224.49 L 6799.67,2201.4 L 7329.3,2507.17 L 7309.3,2518.72 L 6799.67,2224.49 Z " />
<path stroke="transparent" fill="#000000" transform="matrix(0.0666667 0 0 0.0666667 -164.425 -95)" d="M 6280.03,2524.49 L 6280.03,2501.4 L 6799.67,2201.4 L 6799.67,2224.49 L 6280.03,2524.49 Z " />
<path stroke="transparent" fill="#000000" transform="matrix(0.0666667 0 0 0.0666667 -164.425 -95)" d="M 6739.67,1612.95 L 6859.67,1612.95 L 6857.83,1632.95 L 6741.5,1632.95 L 6739.67,1612.95 Z " />
<path stroke="transparent" fill="#000000" transform="matrix(0.0666667 0 0 0.0666667 -164.425 -95)" d="M 6745.02,1671.38 L 6854.31,1671.38 L 6852.48,1691.38 L 6746.85,1691.38 L 6745.02,1671.38 Z " />
<path stroke="transparent" fill="#000000" transform="matrix(0.0666667 0 0 0.0666667 -164.425 -95)" d="M 6750.37,1729.82 L 6848.96,1729.82 L 6847.13,1749.82 L 6752.2,1749.82 L 6750.37,1729.82 Z " />
<path stroke="transparent" fill="#000000" transform="matrix(0.0666667 0 0 0.0666667 -164.425 -95)" d="M 6755.72,1788.25 L 6843.61,1788.25 L 6841.78,1808.25 L 6757.55,1808.25 L 6755.72,1788.25 Z " />
<path stroke="transparent" fill="#000000" transform="matrix(0.0666667 0 0 0.0666667 -164.425 -95)" d="M 6761.07,1846.69 L 6838.26,1846.69 L 6836.43,1866.69 L 6762.91,1866.69 L 6761.07,1846.69 Z " />
<path stroke="transparent" fill="#000000" transform="matrix(0.0666667 0 0 0.0666667 -164.425 -95)" d="M 6766.43,1905.12 L 6832.91,1905.12 L 6831.07,1925.12 L 6768.26,1925.12 L 6766.43,1905.12 Z " />
<path stroke="transparent" fill="#000000" transform="matrix(0.0666667 0 0 0.0666667 -164.425 -95)" d="M 6771.78,1963.55 L 6827.55,1963.55 L 6825.72,1983.55 L 6773.61,1983.55 L 6771.78,1963.55 Z " />
<path stroke="transparent" fill="#000000" transform="matrix(0.0666667 0 0 0.0666667 -164.425 -95)" d="M 6777.13,2021.99 L 6822.2,2021.99 L 6820.37,2041.99 L 6778.96,2041.99 L 6777.13,2021.99 Z " />
<path stroke="transparent" fill="#000000" transform="matrix(0.0666667 0 0 0.0666667 -164.425 -95)" d="M 6782.48,2080.42 L 6816.85,2080.42 L 6815.02,2100.42 L 6784.31,2100.42 L 6782.48,2080.42 Z " />
<path stroke="transparent" fill="#000000" transform="matrix(0.0666667 0 0 0.0666667 -164.425 -95)" d="M 6787.83,2138.86 L 6811.5,2138.86 L 6809.67,2158.86 L 6789.67,2158.86 L 6787.83,2138.86 Z " />
<path stroke="transparent" fill="#000000" transform="matrix(0.0666667 0 0 0.0666667 -164.425 -95)" d="M 7329.3,7913.09 L 7309.3,7913.09 L 7309.3,7318.87 L 7319.3,7313.09 L 7329.3,7318.86 L 7329.3,7913.09 Z " />
<path stroke="transparent" fill="#000000" transform="matrix(0.0666667 0 0 0.0666667 -164.425 -95)" d="M 7833.87,7004.43 L 7843.87,7021.75 L 7329.3,7318.86 L 7319.3,7313.09 L 7319.3,7301.54 L 7833.87,7004.43 Z " />
</svg>
