<?xml version="1.0"?><svg xmlns="http://www.w3.org/2000/svg" xmlns:xlink="http://www.w3.org/1999/xlink" viewBox="180.31 142.88 137.25 83.71" preserveAspectRatio="xMidYMid" width="100%" height="100%"><clipPath id="29"><rect x="0.5" y="0.5" width="522.2" height="768.8" /></clipPath><g id="drawing"><rect x="180.31" y="142.88" width="100%" height="100%" fill="rgb(255, 255, 255)" /><g id="page" clip-path="url(#29)"><g><text xml:space="preserve" text-anchor="start" text-rendering="geometricPrecision"><tspan x="205.75" y="201.48" font-family="Arial" font-size="10" fill="rgb(0, 0, 0)">N</tspan></text></g><g><text xml:space="preserve" text-anchor="start" text-rendering="geometricPrecision"><tspan x="298.38" y="151.23" font-family="Arial" font-size="10" fill="rgb(0, 0, 0)">N</tspan></text></g><g id="Solid"><path d="M219.09 226.28 L219.09 226.28 L218.61 226.43 L218.13 226.58 L210.49 203.06 L210.97 202.9 L211.44 202.75 Z" stroke="rgb(0, 0, 0)" stroke-width="0" fill-rule="evenodd" stroke-linejoin="miter" fill="rgb(0, 0, 0)" shape-rendering="geometricPrecision" /></g><g id="Solid"><path d="M226.35 173.63 L226.35 173.63 L226.97 173.63 L227.21 174.15 L213.46 193.08 L213.06 192.78 L212.65 192.49 Z" stroke="rgb(0, 0, 0)" stroke-width="0" fill-rule="evenodd" stroke-linejoin="miter" fill="rgb(0, 0, 0)" shape-rendering="geometricPrecision" /></g><g id="Solid"><path d="M227.21 173.11 L227.21 173.11 L226.97 173.63 L226.35 173.63 L209.15 149.95 L209.34 149.36 L209.53 148.77 Z" stroke="rgb(0, 0, 0)" stroke-width="0" fill-rule="evenodd" stroke-linejoin="miter" fill="rgb(0, 0, 0)" shape-rendering="geometricPrecision" /></g><g id="WedgeBegin"><path d="M227.21 174.15 L227.21 174.15 L226.97 173.63 L227.21 173.11 L258.18 170.53 L256.97 173.63 L258.18 176.73 Z" stroke="rgb(0, 0, 0)" stroke-width="0" fill-rule="evenodd" stroke-linejoin="miter" fill="rgb(0, 0, 0)" shape-rendering="geometricPrecision" /></g><g id="Solid"><path d="M204.85 195.92 L204.85 195.92 L204.7 196.39 L204.54 196.87 L180.31 188.99 L180.81 188.63 L181.31 188.27 Z" stroke="rgb(0, 0, 0)" stroke-width="0" fill-rule="evenodd" stroke-linejoin="miter" fill="rgb(0, 0, 0)" shape-rendering="geometricPrecision" /></g><g id="Solid"><path d="M209.53 148.77 L209.53 148.77 L209.34 149.36 L209.15 149.95 L181.31 158.99 L180.81 158.63 L180.31 158.27 Z" stroke="rgb(0, 0, 0)" stroke-width="0" fill-rule="evenodd" stroke-linejoin="miter" fill="rgb(0, 0, 0)" shape-rendering="geometricPrecision" /></g><g id="Solid"><path d="M181.31 188.27 L181.31 188.27 L180.81 188.63 L180.31 188.99 L180.31 158.27 L180.81 158.63 L181.31 158.99 Z" stroke="rgb(0, 0, 0)" stroke-width="0" fill-rule="evenodd" stroke-linejoin="miter" fill="rgb(0, 0, 0)" shape-rendering="geometricPrecision" /></g><g id="Solid"><path d="M258.18 176.73 L258.18 176.73 L256.97 173.63 L257.55 173.63 L272.27 199.11 L271.98 199.61 L271.69 200.11 Z" stroke="rgb(0, 0, 0)" stroke-width="0" fill-rule="evenodd" stroke-linejoin="miter" fill="rgb(0, 0, 0)" shape-rendering="geometricPrecision" /></g><g id="Solid"><path d="M257.55 173.63 L257.55 173.63 L256.97 173.63 L258.18 170.53 L271.69 147.15 L271.98 147.65 L272.27 148.15 Z" stroke="rgb(0, 0, 0)" stroke-width="0" fill-rule="evenodd" stroke-linejoin="miter" fill="rgb(0, 0, 0)" shape-rendering="geometricPrecision" /><line x1="261.13" y1="173.63" x2="274.06" y2="151.25" stroke="rgb(0, 0, 0)" stroke-width="1" shape-rendering="auto" /></g><g id="Solid"><path d="M271.69 200.11 L271.69 200.11 L271.98 199.61 L272.27 199.11 L301.69 199.11 L301.98 199.61 L302.27 200.11 Z" stroke="rgb(0, 0, 0)" stroke-width="0" fill-rule="evenodd" stroke-linejoin="miter" fill="rgb(0, 0, 0)" shape-rendering="geometricPrecision" /><line x1="274.06" y1="196.01" x2="299.9" y2="196.01" stroke="rgb(0, 0, 0)" stroke-width="1" shape-rendering="auto" /></g><g id="Solid"><path d="M272.27 148.15 L272.27 148.15 L271.98 147.65 L271.69 147.15 L297.2 147.15 L297.2 147.65 L297.2 148.15 Z" stroke="rgb(0, 0, 0)" stroke-width="0" fill-rule="evenodd" stroke-linejoin="miter" fill="rgb(0, 0, 0)" shape-rendering="geometricPrecision" /></g><g id="Solid"><path d="M302.27 200.11 L302.27 200.11 L301.98 199.61 L301.69 199.11 L316.4 173.63 L316.98 173.63 L317.56 173.63 Z" stroke="rgb(0, 0, 0)" stroke-width="0" fill-rule="evenodd" stroke-linejoin="miter" fill="rgb(0, 0, 0)" shape-rendering="geometricPrecision" /></g><g id="Solid"><path d="M304.65 153.28 L304.65 153.28 L305.09 153.03 L305.52 152.78 L317.56 173.63 L316.98 173.63 L316.4 173.63 Z" stroke="rgb(0, 0, 0)" stroke-width="0" fill-rule="evenodd" stroke-linejoin="miter" fill="rgb(0, 0, 0)" shape-rendering="geometricPrecision" /><line x1="302.12" y1="154.75" x2="313.02" y2="173.63" stroke="rgb(0, 0, 0)" stroke-width="1" shape-rendering="auto" /></g></g></g></svg>