<?xml version="1.0" standalone="no" ?>
<!DOCTYPE svg PUBLIC "-//W3C//DTD SVG 1.1//EN" "http://www.w3.org/Graphics/SVG/1.1/DTD/svg11.dtd">
<svg width="277px" height="176px" viewBox="0 0 277 176" style="background-color: #ffffff00" xmlns="http://www.w3.org/2000/svg" xmlns:xlink="http://www.w3.org/1999/xlink" version="1.1" >
<text x="0" y="0" stroke="transparent" fill="#000000" transform="matrix(0.0833333 0 0 0.0833333 248.486 92.9216)" style="font:normal normal normal 200px 'Arial'" >
OH</text>
<text x="0" y="0" stroke="transparent" fill="#000000" transform="matrix(0.0833333 0 0 0.0833333 205.183 17.9215)" style="font:normal normal normal 200px 'Arial'" >
O</text>
<text x="0" y="0" stroke="transparent" fill="#000000" transform="matrix(0.0833333 0 0 0.0833333 28.2287 77.4731)" style="font:normal normal normal 200px 'Arial'" >
N</text>
<text x="0" y="0" stroke="transparent" fill="#000000" transform="matrix(0.0833333 0 0 0.0833333 28.2287 158.37)" style="font:normal normal normal 200px 'Arial'" >
N</text>
<text x="0" y="0" stroke="transparent" fill="#000000" transform="matrix(0.0833333 0 0 0.0833333 28.2287 172.176)" style="font:normal normal normal 200px 'Arial'" >
H</text>
<path stroke="transparent" fill="#000000" transform="matrix(0.0833333 0 0 0.0833333 -297.333 -277)" d="M 5064,4052.4 L 5074,4069.72 L 4559.36,4366.83 L 4549.36,4361.06 L 4548.22,4350.17 L 5064,4052.4 Z " />
<path stroke="transparent" fill="#000000" transform="matrix(0.0833333 0 0 0.0833333 -297.333 -277)" d="M 4085.02,4220.72 L 4091.2,4201.7 L 4548.22,4350.17 L 4549.36,4361.06 L 4539.36,4368.32 L 4085.02,4220.72 Z " />
<path stroke="transparent" fill="#000000" transform="matrix(0.0833333 0 0 0.0833333 -297.333 -277)" d="M 4539.36,4368.32 L 4549.36,4361.06 L 4559.36,4366.83 L 4559.36,4968.33 L 4539.36,4953.79 L 4539.36,4368.32 Z " />
<path stroke="transparent" fill="#000000" transform="matrix(0.0833333 0 0 0.0833333 -297.333 -277)" d="M 4467.36,4413.37 L 4487.36,4413.37 L 4487.36,4908.75 L 4467.36,4908.75 L 4467.36,4413.37 Z " />
<path stroke="transparent" fill="#000000" transform="matrix(0.0833333 0 0 0.0833333 -297.333 -277)" d="M 4088.95,5121.15 L 4082.77,5102.13 L 4539.36,4953.79 L 4559.36,4968.33 L 4088.95,5121.15 Z " />
<path stroke="transparent" fill="#000000" transform="matrix(0.0833333 0 0 0.0833333 -297.333 -277)" d="M 5629.64,4331.61 L 5619.64,4348.93 L 5082,4038.54 L 5092,4021.22 L 5629.64,4331.61 Z " />
<path stroke="transparent" fill="#000000" transform="matrix(0.0833333 0 0 0.0833333 -297.333 -277)" d="M 5575.64,4383.58 L 5565.64,4400.9 L 5028,4090.5 L 5038,4073.18 L 5575.64,4383.58 Z " />
<path stroke="transparent" fill="#000000" transform="matrix(0.0833333 0 0 0.0833333 -297.333 -277)" d="M 6108.2,4049.51 L 6108.2,4072.61 L 5593.64,4369.72 L 5583.64,4352.4 L 6108.2,4049.51 Z " />
<path stroke="transparent" fill="#000000" transform="matrix(0.0833333 0 0 0.0833333 -297.333 -277)" d="M 6062.2,3580.89 L 6082.2,3580.89 L 6082.2,4081.85 L 6062.2,4081.85 L 6062.2,3580.89 Z " />
<path stroke="transparent" fill="#000000" transform="matrix(0.0833333 0 0 0.0833333 -297.333 -277)" d="M 6134.2,3580.89 L 6154.2,3580.89 L 6154.2,4081.84 L 6134.2,4081.84 L 6134.2,3580.89 Z " />
<path stroke="transparent" fill="#000000" transform="matrix(0.0833333 0 0 0.0833333 -297.333 -277)" d="M 6108.2,4072.61 L 6108.2,4049.51 L 6540.22,4298.93 L 6530.22,4316.25 L 6108.2,4072.61 Z " />
<path stroke="transparent" fill="#000000" transform="matrix(0.0833333 0 0 0.0833333 -297.333 -277)" d="M 3891.02,4279.4 L 3907.2,4291.16 L 3638.45,4661.06 L 3613.73,4661.06 L 3891.02,4279.4 Z " />
<path stroke="transparent" fill="#000000" transform="matrix(0.0833333 0 0 0.0833333 -297.333 -277)" d="M 3949.27,4321.72 L 3965.45,4333.48 L 3723.17,4666.94 L 3706.99,4655.18 L 3949.27,4321.72 Z " />
<path stroke="transparent" fill="#000000" transform="matrix(0.0833333 0 0 0.0833333 -297.333 -277)" d="M 3914.18,5040.56 L 3897.99,5052.31 L 3613.73,4661.06 L 3638.45,4661.06 L 3914.18,5040.56 Z " />
</svg>
