<?xml version="1.0" standalone="no" ?>
<!DOCTYPE svg PUBLIC "-//W3C//DTD SVG 1.1//EN" "http://www.w3.org/Graphics/SVG/1.1/DTD/svg11.dtd">
<svg width="367px" height="301px" viewBox="0 0 367 301" style="background-color: #ffffff00" xmlns="http://www.w3.org/2000/svg" xmlns:xlink="http://www.w3.org/1999/xlink" version="1.1" >
<text x="0" y="0" stroke="transparent" fill="#000000" transform="matrix(0.0833333 0 0 0.0833333 83.9233 202.639)" style="font:normal normal normal 200px 'Arial'" >
O</text>
<text x="0" y="0" stroke="transparent" fill="#000000" transform="matrix(0.0833333 0 0 0.0833333 41.1233 278.33)" style="font:normal normal normal 200px 'Arial'" >
O</text>
<text x="0" y="0" stroke="transparent" fill="#000000" transform="matrix(0.0833333 0 0 0.0833333 313.038 92.5425)" style="font:normal normal normal 200px 'Arial'" >
O</text>
<text x="0" y="0" stroke="transparent" fill="#000000" transform="matrix(0.0833333 0 0 0.0833333 269.784 17.6699)" style="font:normal normal normal 200px 'Arial'" >
O</text>
<text x="0" y="0" stroke="transparent" fill="#000000" transform="matrix(0.0833333 0 0 0.0833333 139.138 171.87)" style="font:normal normal normal 200px 'Arial'" >
N</text>
<text x="0" y="0" stroke="transparent" fill="#000000" transform="matrix(0.0833333 0 0 0.0833333 268.787 146.67)" style="font:normal normal normal 200px 'Arial'" >
N</text>
<text x="0" y="0" stroke="transparent" fill="#000000" transform="matrix(0.0833333 0 0 0.0833333 182.66 197.555)" style="font:normal normal normal 200px 'Arial'" >
H</text>
<text x="0" y="0" stroke="transparent" fill="#000000" transform="matrix(0.0833333 0 0 0.0833333 268.787 297.427)" style="font:normal normal normal 200px 'Arial'" >
H</text>
<path stroke="transparent" fill="#000000" transform="matrix(0.0833333 0 0 0.0833333 -252.208 -209)" d="M 4206.68,4927.98 L 4216.66,4910.65 L 4629.2,5148.24 L 4633.24,5173.65 L 4206.68,4927.98 Z " />
<path stroke="transparent" fill="#000000" transform="matrix(0.0833333 0 0 0.0833333 -252.208 -209)" d="M 5819,3826.23 L 5870.92,3783.49 L 5827.76,3846.4 L 5472.81,4240.8 L 5455.14,4230.53 L 5819,3826.23 L 5819,3826.23 Z " />
<path stroke="transparent" fill="#000000" transform="matrix(0.0833333 0 0 0.0833333 -252.208 -209)" d="M 4633.24,5173.65 L 4629.2,5148.24 L 5386.79,4306.47 L 5404.46,4316.74 L 4633.24,5173.65 L 4633.24,5173.65 Z " />
<path stroke="transparent" fill="#000000" transform="matrix(0.0833333 0 0 0.0833333 -252.208 -209)" d="M 3597.98,5181.63 L 3597.98,5158.3 L 4007.66,4912.39 L 4017.95,4929.54 L 3597.98,5181.63 Z " />
<path stroke="transparent" fill="#000000" transform="matrix(0.0833333 0 0 0.0833333 -252.208 -209)" d="M 6339.76,3229.27 L 6344.05,3254.81 L 6179.78,3443.67 L 6162.18,3433.42 L 6339.76,3229.27 L 6339.76,3229.27 Z " />
<path stroke="transparent" fill="#000000" transform="matrix(0.0833333 0 0 0.0833333 -252.208 -209)" d="M 5921.94,3740.09 L 5870.92,3783.49 L 5904.07,3730.15 L 6095.37,3510.22 L 6112.96,3520.47 L 5921.94,3740.09 L 5921.94,3740.09 Z " />
<path stroke="transparent" fill="#000000" transform="matrix(0.0833333 0 0 0.0833333 -252.208 -209)" d="M 5904.07,3730.15 L 5870.92,3783.49 L 5819,3826.23 L 5295.91,3600.7 L 5285.91,3585.53 L 5312.22,3581.85 L 5904.07,3730.15 Z " />
<path stroke="transparent" fill="#000000" transform="matrix(0.0833333 0 0 0.0833333 -252.208 -209)" d="M 5827.76,3846.4 L 5870.92,3783.49 L 5921.94,3740.09 L 6057.99,4287.53 L 5980.01,4333.1 L 5827.76,3846.4 L 5827.76,3846.4 Z " />
<path stroke="transparent" fill="#000000" transform="matrix(0.0833333 0 0 0.0833333 -252.208 -209)" d="M 6330.42,5383.76 L 6323.94,5399.13 L 6306.7,5377.48 L 6010.64,4431.02 L 6083.12,4388.66 L 6330.42,5383.76 L 6330.42,5383.76 Z " />
<path stroke="transparent" fill="#000000" transform="matrix(0.0833333 0 0 0.0833333 -252.208 -209)" d="M 3077.56,4868.79 L 3087.86,4851.65 L 3597.98,5158.3 L 3597.98,5181.63 L 3077.56,4868.79 Z " />
<path stroke="transparent" fill="#000000" transform="matrix(0.0833333 0 0 0.0833333 -252.208 -209)" d="M 3643.98,5664.8 L 3623.98,5664.8 L 3623.98,5148.36 L 3643.98,5148.36 L 3643.98,5664.8 Z " />
<path stroke="transparent" fill="#000000" transform="matrix(0.0833333 0 0 0.0833333 -252.208 -209)" d="M 3571.98,5664.8 L 3551.98,5664.8 L 3551.98,5148.32 L 3571.98,5148.32 L 3571.98,5664.8 Z " />
<path stroke="transparent" fill="#000000" transform="matrix(0.0833333 0 0 0.0833333 -252.208 -209)" d="M 6773.24,3478.53 L 6763.27,3495.87 L 6344.05,3254.81 L 6339.76,3229.27 L 6773.24,3478.53 Z " />
<path stroke="transparent" fill="#000000" transform="matrix(0.0833333 0 0 0.0833333 -252.208 -209)" d="M 6295.91,2761.87 L 6315.91,2761.87 L 6315.91,3283.42 L 6295.91,3283.42 L 6295.91,2761.87 Z " />
<path stroke="transparent" fill="#000000" transform="matrix(0.0833333 0 0 0.0833333 -252.208 -209)" d="M 6367.91,2761.87 L 6387.91,2761.87 L 6387.91,3262.74 L 6367.91,3262.74 L 6367.91,2761.87 Z " />
<path stroke="transparent" fill="#000000" transform="matrix(0.0833333 0 0 0.0833333 -252.208 -209)" d="M 5295.91,4184.28 L 5285.91,4190.04 L 5275.91,4184.3 L 5275.91,3595.53 L 5285.91,3585.53 L 5295.91,3600.7 L 5295.91,4184.28 Z " />
<path stroke="transparent" fill="#000000" transform="matrix(0.0833333 0 0 0.0833333 -252.208 -209)" d="M 4260.05,3595.53 L 4250.05,3585.53 L 4252.75,3575.53 L 5283.22,3575.53 L 5285.91,3585.53 L 5275.91,3595.53 L 4260.05,3595.53 Z " />
<path stroke="transparent" fill="#000000" transform="matrix(0.0833333 0 0 0.0833333 -252.208 -209)" d="M 5806.43,3272.44 L 5806.4,3295.57 L 5312.22,3581.85 L 5285.91,3585.53 L 5283.22,3575.53 L 5806.43,3272.44 Z " />
<path stroke="transparent" fill="#000000" transform="matrix(0.0833333 0 0 0.0833333 -252.208 -209)" d="M 5796.42,5102.61 L 5816.42,5091.13 L 6306.7,5377.48 L 6323.94,5399.13 L 6313.94,5404.87 L 5796.42,5102.61 Z " />
<path stroke="transparent" fill="#000000" transform="matrix(0.0833333 0 0 0.0833333 -252.208 -209)" d="M 6831.47,5091.13 L 6841.47,5096.87 L 6841.5,5108.44 L 6333.94,5404.87 L 6323.94,5399.13 L 6330.42,5383.76 L 6831.47,5091.13 Z " />
<path stroke="transparent" fill="#000000" transform="matrix(0.0833333 0 0 0.0833333 -252.208 -209)" d="M 6333.94,5896.46 L 6313.94,5896.46 L 6313.94,5404.87 L 6323.94,5399.13 L 6333.94,5404.87 L 6333.94,5896.46 Z " />
<path stroke="transparent" fill="#000000" transform="matrix(0.0833333 0 0 0.0833333 -252.208 -209)" d="M 7376.5,3233.36 L 7386.44,3250.71 L 6958.71,3495.99 L 6948.76,3478.64 L 7376.5,3233.36 Z " />
<path stroke="transparent" fill="#000000" transform="matrix(0.0833333 0 0 0.0833333 -252.208 -209)" d="M 5806.4,4480.86 L 5806.42,4492.44 L 5796.42,4498.19 L 5285.92,4201.61 L 5285.91,4190.04 L 5295.91,4184.28 L 5806.4,4480.86 Z " />
<path stroke="transparent" fill="#000000" transform="matrix(0.0833333 0 0 0.0833333 -252.208 -209)" d="M 4876.79,4440.57 L 4866.71,4423.3 L 5275.91,4184.3 L 5285.91,4190.04 L 5285.92,4201.61 L 4876.79,4440.57 Z " />
<path stroke="transparent" fill="#000000" transform="matrix(0.0833333 0 0 0.0833333 -252.208 -209)" d="M 4840.5,4378.44 L 4830.42,4361.17 L 5208.91,4140.1 L 5219,4157.37 L 4840.5,4378.44 Z " />
<path stroke="transparent" fill="#000000" transform="matrix(0.0833333 0 0 0.0833333 -252.208 -209)" d="M 4260.05,4184.3 L 4250.05,4190.04 L 4240.05,4184.3 L 4240.05,3591.28 L 4250.05,3585.53 L 4260.05,3595.53 L 4260.05,4184.3 Z " />
<path stroke="transparent" fill="#000000" transform="matrix(0.0833333 0 0 0.0833333 -252.208 -209)" d="M 3731.94,3295.57 L 3731.94,3272.43 L 4252.75,3575.53 L 4250.05,3585.53 L 4240.05,3591.28 L 3731.94,3295.57 Z " />
<path stroke="transparent" fill="#000000" transform="matrix(0.0833333 0 0 0.0833333 -252.208 -209)" d="M 3726.91,3375.88 L 3736.97,3358.59 L 4183.15,3618.25 L 4173.09,3635.54 L 3726.91,3375.88 Z " />
<path stroke="transparent" fill="#000000" transform="matrix(0.0833333 0 0 0.0833333 -252.208 -209)" d="M 6333.94,3579.78 L 6313.94,3591.28 L 5806.4,3295.57 L 5806.43,3272.44 L 6333.94,3579.78 Z " />
<path stroke="transparent" fill="#000000" transform="matrix(0.0833333 0 0 0.0833333 -252.208 -209)" d="M 5796.42,4498.19 L 5806.42,4492.44 L 5816.42,4498.18 L 5816.42,5091.13 L 5796.42,5102.61 L 5796.42,4498.19 Z " />
<path stroke="transparent" fill="#000000" transform="matrix(0.0833333 0 0 0.0833333 -252.208 -209)" d="M 7371.91,5391.9 L 7351.91,5403.44 L 6841.5,5108.44 L 6841.47,5096.87 L 6851.47,5091.1 L 7371.91,5391.9 Z " />
<path stroke="transparent" fill="#000000" transform="matrix(0.0833333 0 0 0.0833333 -252.208 -209)" d="M 7294.78,5430.64 L 7284.77,5447.96 L 6836.65,5188.96 L 6846.66,5171.64 L 7294.78,5430.64 Z " />
<path stroke="transparent" fill="#000000" transform="matrix(0.0833333 0 0 0.0833333 -252.208 -209)" d="M 6831.47,4559.16 L 6851.47,4431.5 L 6851.47,5091.1 L 6841.47,5096.87 L 6831.47,5091.13 L 6831.47,4559.16 Z " />
<path stroke="transparent" fill="#000000" transform="matrix(0.0833333 0 0 0.0833333 -252.208 -209)" d="M 6208.93,4245.66 L 6219.02,4262.93 L 5816.42,4498.18 L 5806.42,4492.44 L 5806.4,4480.86 L 6208.93,4245.66 Z " />
<path stroke="transparent" fill="#000000" transform="matrix(0.0833333 0 0 0.0833333 -252.208 -209)" d="M 5424.39,4790.52 L 5362.85,4687.5 L 5381.22,4679.26 L 5440.36,4778.25 L 5424.39,4790.52 Z " />
<path stroke="transparent" fill="#000000" transform="matrix(0.0833333 0 0 0.0833333 -252.208 -209)" d="M 5470.78,4754.88 L 5416.23,4663.55 L 5434.6,4655.3 L 5486.75,4742.61 L 5470.78,4754.88 Z " />
<path stroke="transparent" fill="#000000" transform="matrix(0.0833333 0 0 0.0833333 -252.208 -209)" d="M 5517.17,4719.24 L 5469.6,4639.6 L 5487.97,4631.35 L 5533.14,4706.97 L 5517.17,4719.24 Z " />
<path stroke="transparent" fill="#000000" transform="matrix(0.0833333 0 0 0.0833333 -252.208 -209)" d="M 5563.57,4683.6 L 5522.98,4615.64 L 5541.35,4607.4 L 5579.53,4671.33 L 5563.57,4683.6 Z " />
<path stroke="transparent" fill="#000000" transform="matrix(0.0833333 0 0 0.0833333 -252.208 -209)" d="M 5609.96,4647.95 L 5576.35,4591.69 L 5594.72,4583.45 L 5625.93,4635.69 L 5609.96,4647.95 Z " />
<path stroke="transparent" fill="#000000" transform="matrix(0.0833333 0 0 0.0833333 -252.208 -209)" d="M 5656.35,4612.31 L 5629.73,4567.74 L 5648.1,4559.5 L 5672.32,4600.05 L 5656.35,4612.31 Z " />
<path stroke="transparent" fill="#000000" transform="matrix(0.0833333 0 0 0.0833333 -252.208 -209)" d="M 5702.74,4576.67 L 5683.1,4543.79 L 5701.47,4535.54 L 5718.71,4564.4 L 5702.74,4576.67 Z " />
<path stroke="transparent" fill="#000000" transform="matrix(0.0833333 0 0 0.0833333 -252.208 -209)" d="M 5749.14,4541.03 L 5736.48,4519.84 L 5754.85,4511.59 L 5765.1,4528.76 L 5749.14,4541.03 Z " />
<path stroke="transparent" fill="#000000" transform="matrix(0.0833333 0 0 0.0833333 -252.208 -209)" d="M 4250.05,4201.62 L 4250.05,4190.04 L 4260.05,4184.3 L 4669.6,4423.33 L 4659.52,4440.61 L 4250.05,4201.62 Z " />
<path stroke="transparent" fill="#000000" transform="matrix(0.0833333 0 0 0.0833333 -252.208 -209)" d="M 3731.94,4504.02 L 3731.94,4480.86 L 4240.05,4184.3 L 4250.05,4190.04 L 4250.05,4201.62 L 3731.94,4504.02 Z " />
<path stroke="transparent" fill="#000000" transform="matrix(0.0833333 0 0 0.0833333 -252.208 -209)" d="M 3736.98,4417.72 L 3726.9,4400.45 L 4173.02,4140.06 L 4183.11,4157.34 L 3736.98,4417.72 Z " />
<path stroke="transparent" fill="#000000" transform="matrix(0.0833333 0 0 0.0833333 -252.208 -209)" d="M 3223.83,3591.28 L 3203.83,3579.78 L 3731.94,3272.43 L 3731.94,3295.57 L 3223.83,3591.28 Z " />
<path stroke="transparent" fill="#000000" transform="matrix(0.0833333 0 0 0.0833333 -252.208 -209)" d="M 6333.94,4087.37 L 6313.94,4087.37 L 6313.94,3591.28 L 6333.94,3579.78 L 6333.94,4087.37 Z " />
<path stroke="transparent" fill="#000000" transform="matrix(0.0833333 0 0 0.0833333 -252.208 -209)" d="M 7371.91,5997.67 L 7351.91,5997.67 L 7351.91,5403.44 L 7371.91,5391.9 L 7371.91,5997.67 Z " />
<path stroke="transparent" fill="#000000" transform="matrix(0.0833333 0 0 0.0833333 -252.208 -209)" d="M 6851.47,4431.5 L 6831.47,4559.16 L 6428.87,4262.93 L 6438.96,4245.66 L 6851.47,4431.5 Z " />
<path stroke="transparent" fill="#000000" transform="matrix(0.0833333 0 0 0.0833333 -252.208 -209)" d="M 3203.83,4195.78 L 3223.83,4184.3 L 3731.94,4480.86 L 3731.94,4504.02 L 3203.83,4195.78 Z " />
<path stroke="transparent" fill="#000000" transform="matrix(0.0833333 0 0 0.0833333 -252.208 -209)" d="M 3223.83,4184.3 L 3203.83,4195.78 L 3203.83,3579.78 L 3223.83,3591.28 L 3223.83,4184.3 Z " />
<path stroke="transparent" fill="#000000" transform="matrix(0.0833333 0 0 0.0833333 -252.208 -209)" d="M 3296.38,4148.38 L 3276.38,4148.38 L 3276.38,3627.24 L 3296.38,3627.24 L 3296.38,4148.38 Z " />
</svg>
