<?xml version="1.0"?><svg xmlns="http://www.w3.org/2000/svg" xmlns:xlink="http://www.w3.org/1999/xlink" viewBox="142.79 72.19 242.08 233.67" preserveAspectRatio="xMidYMid" width="100%" height="100%"><clipPath id="72"><rect x="0.5" y="0.5" width="522.2" height="768.8" /></clipPath><g id="drawing"><rect x="142.79" y="72.19" width="100%" height="100%" fill="rgb(255, 255, 255)" /><g id="page" clip-path="url(#72)"><g><text xml:space="preserve" text-anchor="start" text-rendering="geometricPrecision"><tspan x="335.51" y="144.62" font-family="Arial" font-size="10" fill="rgb(0, 0, 0)">O</tspan></text></g><g><text xml:space="preserve" text-anchor="start" text-rendering="geometricPrecision"><tspan x="157.26" y="119.53" font-family="Arial" font-size="10" fill="rgb(0, 0, 0)">O</tspan></text></g><g><text xml:space="preserve" text-anchor="start" text-rendering="geometricPrecision"><tspan x="157.03" y="168.01" font-family="Arial" font-size="10" fill="rgb(0, 0, 0)">O</tspan></text></g><g><text xml:space="preserve" text-anchor="start" text-rendering="geometricPrecision"><tspan x="315.08" y="264.16" font-family="Arial" font-size="10" fill="rgb(0, 0, 0)">O</tspan></text></g><g><text xml:space="preserve" text-anchor="start" text-rendering="geometricPrecision"><tspan x="263.16" y="294.2" font-family="Arial" font-size="10" fill="rgb(0, 0, 0)">O</tspan></text></g><g><text xml:space="preserve" text-anchor="start" text-rendering="geometricPrecision"><tspan x="211.04" y="264.19" font-family="Arial" font-size="10" fill="rgb(0, 0, 0)">O</tspan></text></g><g><text xml:space="preserve" text-anchor="start" text-rendering="geometricPrecision"><tspan x="289.04" y="186.5" font-family="Arial" font-size="10" fill="rgb(0, 0, 0)">H</tspan></text></g><g><text xml:space="preserve" text-anchor="start" text-rendering="geometricPrecision"><tspan x="289.73" y="99.05" font-family="Arial" font-size="10" fill="rgb(0, 0, 0)">H</tspan></text></g><g><text xml:space="preserve" text-anchor="start" text-rendering="geometricPrecision"><tspan x="325.22" y="197.74" font-family="Arial" font-size="10" fill="rgb(0, 0, 0)">O</tspan></text></g><g><text xml:space="preserve" text-anchor="start" text-rendering="geometricPrecision"><tspan x="263.52" y="84.05" font-family="Arial" font-size="10" fill="rgb(0, 0, 0)">OH</tspan></text></g><g id="Solid"><path d="M293.11 156.02 L293.11 156.02 L293.06 155.47 L293.56 155.11 L321.18 164.5 L321.36 165.09 L321.54 165.68 Z" stroke="rgb(0, 0, 0)" stroke-width="0" fill-rule="evenodd" stroke-linejoin="miter" fill="rgb(0, 0, 0)" shape-rendering="geometricPrecision" /></g><g id="Solid"><path d="M321.54 165.68 L321.54 165.68 L321.36 165.09 L321.18 164.5 L335.32 145.6 L335.72 145.9 L336.12 146.2 Z" stroke="rgb(0, 0, 0)" stroke-width="0" fill-rule="evenodd" stroke-linejoin="miter" fill="rgb(0, 0, 0)" shape-rendering="geometricPrecision" /></g><g id="Solid"><path d="M336.43 135.88 L336.43 135.88 L336.02 136.17 L335.62 136.46 L321.74 116.93 L321.94 116.34 L322.14 115.75 Z" stroke="rgb(0, 0, 0)" stroke-width="0" fill-rule="evenodd" stroke-linejoin="miter" fill="rgb(0, 0, 0)" shape-rendering="geometricPrecision" /></g><g id="Solid"><path d="M293.83 125.84 L293.83 125.84 L293.33 125.47 L293.39 124.93 L322.14 115.75 L321.94 116.34 L321.74 116.93 Z" stroke="rgb(0, 0, 0)" stroke-width="0" fill-rule="evenodd" stroke-linejoin="miter" fill="rgb(0, 0, 0)" shape-rendering="geometricPrecision" /></g><g id="Solid"><path d="M241.3 124.67 L241.3 124.67 L241.3 125.25 L240.8 125.54 L215.37 110.89 L215.37 110.31 L215.37 109.73 Z" stroke="rgb(0, 0, 0)" stroke-width="0" fill-rule="evenodd" stroke-linejoin="miter" fill="rgb(0, 0, 0)" shape-rendering="geometricPrecision" /></g><g id="Solid"><path d="M215.37 109.73 L215.37 109.73 L215.37 110.31 L215.37 110.89 L190.08 125.63 L189.58 125.34 L189.52 124.79 Z" stroke="rgb(0, 0, 0)" stroke-width="0" fill-rule="evenodd" stroke-linejoin="miter" fill="rgb(0, 0, 0)" shape-rendering="geometricPrecision" /><line x1="215.38" y1="114.45" x2="193.15" y2="127.4" stroke="rgb(0, 0, 0)" stroke-width="1" shape-rendering="auto" /></g><g id="Solid"><path d="M240.96 246 L240.96 246 L240.96 245.42 L241.46 245.13 L267.04 259.93 L267.04 260.51 L266.54 260.8 Z" stroke="rgb(0, 0, 0)" stroke-width="0" fill-rule="evenodd" stroke-linejoin="miter" fill="rgb(0, 0, 0)" shape-rendering="geometricPrecision" /></g><g id="Solid"><path d="M267.54 260.8 L267.54 260.8 L267.04 260.51 L267.04 259.93 L292.46 245.13 L292.96 245.42 L292.96 246 Z" stroke="rgb(0, 0, 0)" stroke-width="0" fill-rule="evenodd" stroke-linejoin="miter" fill="rgb(0, 0, 0)" shape-rendering="geometricPrecision" /><line x1="267.03" y1="256.35" x2="289.36" y2="243.35" stroke="rgb(0, 0, 0)" stroke-width="1" shape-rendering="auto" /></g><g id="Solid"><path d="M293.46 245.13 L293.46 245.13 L292.96 245.42 L292.46 245.13 L292.46 215.69 L292.96 215.4 L293.46 215.11 Z" stroke="rgb(0, 0, 0)" stroke-width="0" fill-rule="evenodd" stroke-linejoin="miter" fill="rgb(0, 0, 0)" shape-rendering="geometricPrecision" /></g><g id="Solid"><path d="M189.94 154.97 L189.94 154.97 L189.44 155.26 L188.94 154.89 L189.08 125.7 L189.58 125.34 L190.08 125.63 Z" stroke="rgb(0, 0, 0)" stroke-width="0" fill-rule="evenodd" stroke-linejoin="miter" fill="rgb(0, 0, 0)" shape-rendering="geometricPrecision" /></g><g id="Solid"><path d="M189.52 124.79 L189.52 124.79 L189.58 125.34 L189.08 125.7 L166.34 118.11 L166.5 117.64 L166.66 117.17 Z" stroke="rgb(0, 0, 0)" stroke-width="0" fill-rule="evenodd" stroke-linejoin="miter" fill="rgb(0, 0, 0)" shape-rendering="geometricPrecision" /></g><g id="Solid"><path d="M157.14 120.52 L157.14 120.52 L157.54 120.82 L157.94 121.11 L144.03 140.16 L143.41 140.16 L142.79 140.16 Z" stroke="rgb(0, 0, 0)" stroke-width="0" fill-rule="evenodd" stroke-linejoin="miter" fill="rgb(0, 0, 0)" shape-rendering="geometricPrecision" /></g><g id="Solid"><path d="M142.79 140.16 L142.79 140.16 L143.41 140.16 L144.03 140.16 L157.9 159.29 L157.5 159.58 L157.09 159.87 Z" stroke="rgb(0, 0, 0)" stroke-width="0" fill-rule="evenodd" stroke-linejoin="miter" fill="rgb(0, 0, 0)" shape-rendering="geometricPrecision" /></g><g id="Solid"><path d="M166.46 163.1 L166.46 163.1 L166.31 162.62 L166.15 162.15 L188.94 154.89 L189.44 155.26 L189.38 155.8 Z" stroke="rgb(0, 0, 0)" stroke-width="0" fill-rule="evenodd" stroke-linejoin="miter" fill="rgb(0, 0, 0)" shape-rendering="geometricPrecision" /></g><g id="Wedged Hash Begin Bond"><path d="M266.62 170.46 L266.62 170.46 L267.62 170.46 L267.7 171.46 L266.53 171.46 Z" stroke="rgb(0, 0, 0)" stroke-width="0" fill-rule="evenodd" stroke-linejoin="miter" fill="rgb(0, 0, 0)" shape-rendering="geometricPrecision" /><path d="M266.37 173.36 L266.37 173.36 L267.85 173.36 L267.93 174.36 L266.28 174.36 Z" stroke="rgb(0, 0, 0)" stroke-width="0" fill-rule="evenodd" stroke-linejoin="miter" fill="rgb(0, 0, 0)" shape-rendering="geometricPrecision" /><path d="M266.12 176.26 L266.12 176.26 L268.09 176.26 L268.17 177.26 L266.04 177.26 Z" stroke="rgb(0, 0, 0)" stroke-width="0" fill-rule="evenodd" stroke-linejoin="miter" fill="rgb(0, 0, 0)" shape-rendering="geometricPrecision" /><path d="M265.87 179.16 L265.87 179.16 L268.32 179.17 L268.4 180.17 L265.79 180.16 Z" stroke="rgb(0, 0, 0)" stroke-width="0" fill-rule="evenodd" stroke-linejoin="miter" fill="rgb(0, 0, 0)" shape-rendering="geometricPrecision" /><path d="M265.62 182.06 L265.62 182.06 L268.56 182.07 L268.64 183.07 L265.54 183.06 Z" stroke="rgb(0, 0, 0)" stroke-width="0" fill-rule="evenodd" stroke-linejoin="miter" fill="rgb(0, 0, 0)" shape-rendering="geometricPrecision" /><path d="M265.37 184.96 L265.37 184.96 L268.79 184.97 L268.87 185.97 L265.29 185.96 Z" stroke="rgb(0, 0, 0)" stroke-width="0" fill-rule="evenodd" stroke-linejoin="miter" fill="rgb(0, 0, 0)" shape-rendering="geometricPrecision" /><path d="M265.12 187.86 L265.12 187.86 L269.02 187.87 L269.1 188.87 L265.04 188.86 Z" stroke="rgb(0, 0, 0)" stroke-width="0" fill-rule="evenodd" stroke-linejoin="miter" fill="rgb(0, 0, 0)" shape-rendering="geometricPrecision" /><path d="M264.87 190.76 L264.87 190.76 L269.26 190.77 L269.34 191.77 L264.79 191.76 Z" stroke="rgb(0, 0, 0)" stroke-width="0" fill-rule="evenodd" stroke-linejoin="miter" fill="rgb(0, 0, 0)" shape-rendering="geometricPrecision" /><path d="M264.62 193.66 L264.62 193.66 L269.49 193.67 L269.57 194.67 L264.54 194.66 Z" stroke="rgb(0, 0, 0)" stroke-width="0" fill-rule="evenodd" stroke-linejoin="miter" fill="rgb(0, 0, 0)" shape-rendering="geometricPrecision" /><path d="M264.38 196.56 L264.38 196.56 L269.73 196.58 L269.81 197.58 L264.29 197.56 Z" stroke="rgb(0, 0, 0)" stroke-width="0" fill-rule="evenodd" stroke-linejoin="miter" fill="rgb(0, 0, 0)" shape-rendering="geometricPrecision" /><path d="M264.13 199.46 L264.13 199.46 L269.96 199.48 L270.04 200.48 L264.04 200.46 Z" stroke="rgb(0, 0, 0)" stroke-width="0" fill-rule="evenodd" stroke-linejoin="miter" fill="rgb(0, 0, 0)" shape-rendering="geometricPrecision" /></g><g id="Solid"><path d="M293.46 215.11 L293.46 215.11 L292.96 215.4 L292.46 215.69 L267.04 201.05 L267.04 200.47 L267.04 199.89 Z" stroke="rgb(0, 0, 0)" stroke-width="0" fill-rule="evenodd" stroke-linejoin="miter" fill="rgb(0, 0, 0)" shape-rendering="geometricPrecision" /><line x1="289.37" y1="217.47" x2="267.03" y2="204.61" stroke="rgb(0, 0, 0)" stroke-width="1" shape-rendering="auto" /></g><g id="Solid"><path d="M240.8 125.54 L240.8 125.54 L241.3 125.25 L241.8 125.54 L241.67 154.97 L241.17 155.26 L240.67 154.97 Z" stroke="rgb(0, 0, 0)" stroke-width="0" fill-rule="evenodd" stroke-linejoin="miter" fill="rgb(0, 0, 0)" shape-rendering="geometricPrecision" /><line x1="237.69" y1="127.33" x2="237.58" y2="153.19" stroke="rgb(0, 0, 0)" stroke-width="1" shape-rendering="auto" /></g><g id="Solid"><path d="M292.96 246 L292.96 246 L292.96 245.42 L293.46 245.13 L314.32 257.21 L314.07 257.64 L313.82 258.07 Z" stroke="rgb(0, 0, 0)" stroke-width="0" fill-rule="evenodd" stroke-linejoin="miter" fill="rgb(0, 0, 0)" shape-rendering="geometricPrecision" /></g><g id="Solid"><path d="M267.12 169.88 L267.12 169.88 L267.12 170.46 L267.12 171.04 L241.17 155.84 L241.17 155.26 L241.67 154.97 Z" stroke="rgb(0, 0, 0)" stroke-width="0" fill-rule="evenodd" stroke-linejoin="miter" fill="rgb(0, 0, 0)" shape-rendering="geometricPrecision" /></g><g id="Solid"><path d="M266.54 260.8 L266.54 260.8 L267.04 260.51 L267.54 260.8 L267.56 285 L267.06 285 L266.56 285 Z" stroke="rgb(0, 0, 0)" stroke-width="0" fill-rule="evenodd" stroke-linejoin="miter" fill="rgb(0, 0, 0)" shape-rendering="geometricPrecision" /></g><g id="Solid"><path d="M292.56 155.18 L292.56 155.18 L293.06 155.47 L293.11 156.02 L267.12 171.04 L267.12 170.46 L267.12 169.88 Z" stroke="rgb(0, 0, 0)" stroke-width="0" fill-rule="evenodd" stroke-linejoin="miter" fill="rgb(0, 0, 0)" shape-rendering="geometricPrecision" /></g><g id="Solid"><path d="M240.46 245.13 L240.46 245.13 L240.96 245.42 L240.96 246 L220.18 258.06 L219.93 257.63 L219.68 257.2 Z" stroke="rgb(0, 0, 0)" stroke-width="0" fill-rule="evenodd" stroke-linejoin="miter" fill="rgb(0, 0, 0)" shape-rendering="geometricPrecision" /></g><g id="Solid"><path d="M293.39 124.93 L293.39 124.93 L293.33 125.47 L292.83 125.76 L267.38 111 L267.38 110.42 L267.38 109.84 Z" stroke="rgb(0, 0, 0)" stroke-width="0" fill-rule="evenodd" stroke-linejoin="miter" fill="rgb(0, 0, 0)" shape-rendering="geometricPrecision" /></g><g id="Solid"><path d="M324.18 258.05 L324.18 258.05 L323.93 257.62 L323.68 257.19 L344.74 244.95 L344.99 245.38 L345.24 245.81 Z" stroke="rgb(0, 0, 0)" stroke-width="0" fill-rule="evenodd" stroke-linejoin="miter" fill="rgb(0, 0, 0)" shape-rendering="geometricPrecision" /></g><g id="Solid"><path d="M267.38 109.84 L267.38 109.84 L267.38 110.42 L267.38 111 L241.8 125.54 L241.3 125.25 L241.3 124.67 Z" stroke="rgb(0, 0, 0)" stroke-width="0" fill-rule="evenodd" stroke-linejoin="miter" fill="rgb(0, 0, 0)" shape-rendering="geometricPrecision" /></g><g id="Solid"><path d="M210.32 257.25 L210.32 257.25 L210.07 257.68 L209.82 258.11 L188.83 245.88 L189.08 245.45 L189.33 245.02 Z" stroke="rgb(0, 0, 0)" stroke-width="0" fill-rule="evenodd" stroke-linejoin="miter" fill="rgb(0, 0, 0)" shape-rendering="geometricPrecision" /></g><g id="Solid"><path d="M267.04 199.89 L267.04 199.89 L267.04 200.47 L267.04 201.05 L241.46 215.69 L240.96 215.4 L240.46 215.11 Z" stroke="rgb(0, 0, 0)" stroke-width="0" fill-rule="evenodd" stroke-linejoin="miter" fill="rgb(0, 0, 0)" shape-rendering="geometricPrecision" /></g><g id="Solid"><path d="M271.89 293.85 L271.89 293.85 L272.14 293.42 L272.38 292.98 L293.36 304.99 L293.11 305.42 L292.86 305.85 Z" stroke="rgb(0, 0, 0)" stroke-width="0" fill-rule="evenodd" stroke-linejoin="miter" fill="rgb(0, 0, 0)" shape-rendering="geometricPrecision" /></g><g id="Solid"><path d="M240.46 215.11 L240.46 215.11 L240.96 215.4 L241.46 215.69 L241.46 245.13 L240.96 245.42 L240.46 245.13 Z" stroke="rgb(0, 0, 0)" stroke-width="0" fill-rule="evenodd" stroke-linejoin="miter" fill="rgb(0, 0, 0)" shape-rendering="geometricPrecision" /><line x1="244.56" y1="217.49" x2="244.56" y2="243.34" stroke="rgb(0, 0, 0)" stroke-width="1" shape-rendering="auto" /></g><g id="Wedged Hash Begin Bond"><path d="M292.56 155.46 L292.56 155.46 L293.56 155.48 L293.66 156.48 L292.43 156.46 Z" stroke="rgb(0, 0, 0)" stroke-width="0" fill-rule="evenodd" stroke-linejoin="miter" fill="rgb(0, 0, 0)" shape-rendering="geometricPrecision" /><path d="M292.17 158.45 L292.17 158.45 L293.86 158.47 L293.95 159.47 L292.04 159.45 Z" stroke="rgb(0, 0, 0)" stroke-width="0" fill-rule="evenodd" stroke-linejoin="miter" fill="rgb(0, 0, 0)" shape-rendering="geometricPrecision" /><path d="M291.79 161.43 L291.79 161.43 L294.15 161.47 L294.25 162.47 L291.66 162.43 Z" stroke="rgb(0, 0, 0)" stroke-width="0" fill-rule="evenodd" stroke-linejoin="miter" fill="rgb(0, 0, 0)" shape-rendering="geometricPrecision" /><path d="M291.4 164.42 L291.4 164.42 L294.45 164.46 L294.54 165.47 L291.27 165.41 Z" stroke="rgb(0, 0, 0)" stroke-width="0" fill-rule="evenodd" stroke-linejoin="miter" fill="rgb(0, 0, 0)" shape-rendering="geometricPrecision" /><path d="M291.01 167.4 L291.01 167.4 L294.74 167.46 L294.84 168.46 L290.88 168.4 Z" stroke="rgb(0, 0, 0)" stroke-width="0" fill-rule="evenodd" stroke-linejoin="miter" fill="rgb(0, 0, 0)" shape-rendering="geometricPrecision" /><path d="M290.63 170.39 L290.63 170.39 L295.04 170.45 L295.13 171.46 L290.5 171.38 Z" stroke="rgb(0, 0, 0)" stroke-width="0" fill-rule="evenodd" stroke-linejoin="miter" fill="rgb(0, 0, 0)" shape-rendering="geometricPrecision" /><path d="M290.24 173.37 L290.24 173.37 L295.33 173.45 L295.43 174.45 L290.11 174.37 Z" stroke="rgb(0, 0, 0)" stroke-width="0" fill-rule="evenodd" stroke-linejoin="miter" fill="rgb(0, 0, 0)" shape-rendering="geometricPrecision" /><path d="M289.85 176.36 L289.85 176.36 L295.63 176.44 L295.72 177.45 L289.72 177.35 Z" stroke="rgb(0, 0, 0)" stroke-width="0" fill-rule="evenodd" stroke-linejoin="miter" fill="rgb(0, 0, 0)" shape-rendering="geometricPrecision" /></g><g id="Solid"><path d="M189.38 155.8 L189.38 155.8 L189.44 155.26 L189.94 154.97 L215.37 169.77 L215.37 170.35 L215.37 170.93 Z" stroke="rgb(0, 0, 0)" stroke-width="0" fill-rule="evenodd" stroke-linejoin="miter" fill="rgb(0, 0, 0)" shape-rendering="geometricPrecision" /><line x1="193.05" y1="153.2" x2="215.37" y2="166.18" stroke="rgb(0, 0, 0)" stroke-width="1" shape-rendering="auto" /></g><g id="Solid"><path d="M215.37 170.93 L215.37 170.93 L215.37 170.35 L215.37 169.77 L240.67 154.97 L241.17 155.26 L241.17 155.84 Z" stroke="rgb(0, 0, 0)" stroke-width="0" fill-rule="evenodd" stroke-linejoin="miter" fill="rgb(0, 0, 0)" shape-rendering="geometricPrecision" /></g><g id="Solid"><path d="M292.83 125.76 L292.83 125.76 L293.33 125.47 L293.83 125.84 L293.56 155.11 L293.06 155.47 L292.56 155.18 Z" stroke="rgb(0, 0, 0)" stroke-width="0" fill-rule="evenodd" stroke-linejoin="miter" fill="rgb(0, 0, 0)" shape-rendering="geometricPrecision" /></g><g id="Wedged Hash Begin Bond"><path d="M293.83 125.47 L293.83 125.47 L292.83 125.47 L292.73 124.47 L293.93 124.47 Z" stroke="rgb(0, 0, 0)" stroke-width="0" fill-rule="evenodd" stroke-linejoin="miter" fill="rgb(0, 0, 0)" shape-rendering="geometricPrecision" /><path d="M294.13 122.55 L294.13 122.55 L292.53 122.55 L292.43 121.55 L294.23 121.55 Z" stroke="rgb(0, 0, 0)" stroke-width="0" fill-rule="evenodd" stroke-linejoin="miter" fill="rgb(0, 0, 0)" shape-rendering="geometricPrecision" /><path d="M294.43 119.63 L294.43 119.63 L292.23 119.63 L292.13 118.63 L294.53 118.63 Z" stroke="rgb(0, 0, 0)" stroke-width="0" fill-rule="evenodd" stroke-linejoin="miter" fill="rgb(0, 0, 0)" shape-rendering="geometricPrecision" /><path d="M294.73 116.71 L294.73 116.71 L291.93 116.71 L291.83 115.71 L294.83 115.71 Z" stroke="rgb(0, 0, 0)" stroke-width="0" fill-rule="evenodd" stroke-linejoin="miter" fill="rgb(0, 0, 0)" shape-rendering="geometricPrecision" /><path d="M295.03 113.78 L295.03 113.78 L291.63 113.78 L291.53 112.78 L295.13 112.78 Z" stroke="rgb(0, 0, 0)" stroke-width="0" fill-rule="evenodd" stroke-linejoin="miter" fill="rgb(0, 0, 0)" shape-rendering="geometricPrecision" /><path d="M295.33 110.86 L295.33 110.86 L291.33 110.86 L291.23 109.86 L295.43 109.86 Z" stroke="rgb(0, 0, 0)" stroke-width="0" fill-rule="evenodd" stroke-linejoin="miter" fill="rgb(0, 0, 0)" shape-rendering="geometricPrecision" /><path d="M295.63 107.94 L295.63 107.94 L291.03 107.94 L290.93 106.94 L295.73 106.94 Z" stroke="rgb(0, 0, 0)" stroke-width="0" fill-rule="evenodd" stroke-linejoin="miter" fill="rgb(0, 0, 0)" shape-rendering="geometricPrecision" /><path d="M295.93 105.02 L295.93 105.02 L290.73 105.02 L290.63 104.02 L296.03 104.02 Z" stroke="rgb(0, 0, 0)" stroke-width="0" fill-rule="evenodd" stroke-linejoin="miter" fill="rgb(0, 0, 0)" shape-rendering="geometricPrecision" /><path d="M296.23 102.1 L296.23 102.1 L290.43 102.1 L290.33 101.1 L296.33 101.1 Z" stroke="rgb(0, 0, 0)" stroke-width="0" fill-rule="evenodd" stroke-linejoin="miter" fill="rgb(0, 0, 0)" shape-rendering="geometricPrecision" /></g><g id="Solid"><line x1="323.1" y1="164.62" x2="329.4" y2="188.1" stroke="rgb(0, 0, 0)" stroke-width="1" shape-rendering="auto" /><path d="M320.04 165.17 L320.04 165.17 L318.9 164.78 L325.44 189.16 L326.4 188.9 Z" stroke="rgb(0, 0, 0)" stroke-width="0" fill-rule="evenodd" stroke-linejoin="miter" fill="rgb(0, 0, 0)" shape-rendering="geometricPrecision" /><path d="M323.28 163.36 L323.28 163.36 L322.52 164.38 L328.91 188.23 L329.88 187.97 Z" stroke="rgb(0, 0, 0)" stroke-width="0" fill-rule="evenodd" stroke-linejoin="miter" fill="rgb(0, 0, 0)" shape-rendering="geometricPrecision" /></g><g id="Wedged Hash Begin Bond"><path d="M267.88 110.42 L267.88 110.42 L266.88 110.42 L266.78 109.42 L267.98 109.42 Z" stroke="rgb(0, 0, 0)" stroke-width="0" fill-rule="evenodd" stroke-linejoin="miter" fill="rgb(0, 0, 0)" shape-rendering="geometricPrecision" /><path d="M268.18 107.52 L268.18 107.52 L266.59 107.52 L266.48 106.52 L268.29 106.52 Z" stroke="rgb(0, 0, 0)" stroke-width="0" fill-rule="evenodd" stroke-linejoin="miter" fill="rgb(0, 0, 0)" shape-rendering="geometricPrecision" /><path d="M268.49 104.62 L268.49 104.62 L266.29 104.61 L266.19 103.61 L268.59 103.62 Z" stroke="rgb(0, 0, 0)" stroke-width="0" fill-rule="evenodd" stroke-linejoin="miter" fill="rgb(0, 0, 0)" shape-rendering="geometricPrecision" /><path d="M268.79 101.71 L268.79 101.71 L266 101.71 L265.89 100.71 L268.9 100.71 Z" stroke="rgb(0, 0, 0)" stroke-width="0" fill-rule="evenodd" stroke-linejoin="miter" fill="rgb(0, 0, 0)" shape-rendering="geometricPrecision" /><path d="M269.1 98.81 L269.1 98.81 L265.7 98.81 L265.6 97.81 L269.2 97.81 Z" stroke="rgb(0, 0, 0)" stroke-width="0" fill-rule="evenodd" stroke-linejoin="miter" fill="rgb(0, 0, 0)" shape-rendering="geometricPrecision" /><path d="M269.4 95.91 L269.4 95.91 L265.41 95.9 L265.3 94.9 L269.51 94.91 Z" stroke="rgb(0, 0, 0)" stroke-width="0" fill-rule="evenodd" stroke-linejoin="miter" fill="rgb(0, 0, 0)" shape-rendering="geometricPrecision" /><path d="M269.71 93.01 L269.71 93.01 L265.11 93 L265.01 92 L269.81 92.01 Z" stroke="rgb(0, 0, 0)" stroke-width="0" fill-rule="evenodd" stroke-linejoin="miter" fill="rgb(0, 0, 0)" shape-rendering="geometricPrecision" /><path d="M270.01 90.11 L270.01 90.11 L264.82 90.1 L264.72 89.1 L270.12 89.11 Z" stroke="rgb(0, 0, 0)" stroke-width="0" fill-rule="evenodd" stroke-linejoin="miter" fill="rgb(0, 0, 0)" shape-rendering="geometricPrecision" /><path d="M270.32 87.2 L270.32 87.2 L264.52 87.2 L264.42 86.2 L270.42 86.2 Z" stroke="rgb(0, 0, 0)" stroke-width="0" fill-rule="evenodd" stroke-linejoin="miter" fill="rgb(0, 0, 0)" shape-rendering="geometricPrecision" /></g><path d="M351.05 73.19 L379.87 73.19 Q383.87 73.19 383.87 77.19 L383.87 86.86 Q383.87 90.86 379.87 90.86 L351.05 90.86 Q347.05 90.86 347.05 86.86 L347.05 77.19 Q347.05 73.19 351.05 73.19 " stroke="rgb(0, 0, 0)" stroke-width="1" fill-rule="evenodd" stroke-linejoin="round" fill="none" shape-rendering="geometricPrecision" /><g><text xml:space="preserve" text-anchor="start" text-rendering="geometricPrecision"><tspan x="350.51" y="87.4" font-family="Times New Roman" font-size="12" fill="rgb(0, 0, 0)">Chiral</tspan></text></g></g></g></svg>