<?xml version="1.0" standalone="no" ?>
<!DOCTYPE svg PUBLIC "-//W3C//DTD SVG 1.1//EN" "http://www.w3.org/Graphics/SVG/1.1/DTD/svg11.dtd">
<svg width="466px" height="351px" viewBox="0 0 466 351" style="background-color: #ffffff00" xmlns="http://www.w3.org/2000/svg" xmlns:xlink="http://www.w3.org/1999/xlink" version="1.1" >
<text x="0" y="0" stroke="transparent" fill="#000000" transform="matrix(0.0833333 0 0 0.0833333 4.10059 303.859)" style="font:normal normal normal 200px 'Arial'" >
O</text>
<text x="0" y="0" stroke="transparent" fill="#000000" transform="matrix(0.0833333 0 0 0.0833333 437.113 153.859)" style="font:normal normal normal 200px 'Arial'" >
OH</text>
<path stroke="transparent" fill="#000000" transform="matrix(0.0833333 0 0 0.0833333 -202.875 -193)" d="M 3660.94,6484.31 L 3540.94,6484.31 L 3590.48,5889.82 L 3600.94,5884.31 L 3611.4,5889.82 L 3660.94,6484.31 Z " />
<path stroke="transparent" fill="#000000" transform="matrix(0.0833333 0 0 0.0833333 -202.875 -193)" d="M 3071.32,5590.08 L 3091.32,5578.53 L 3600.94,5872.76 L 3600.94,5884.31 L 3590.48,5889.82 L 3071.32,5590.08 Z " />
<path stroke="transparent" fill="#000000" transform="matrix(0.0833333 0 0 0.0833333 -202.875 -193)" d="M 2677.33,5870.67 L 2667.33,5853.35 L 3112.32,5596.43 L 3122.32,5613.75 L 2677.33,5870.67 Z " />
<path stroke="transparent" fill="#000000" transform="matrix(0.0833333 0 0 0.0833333 -202.875 -193)" d="M 2641.33,5808.32 L 2631.33,5791 L 3076.32,5534.08 L 3086.32,5551.4 L 2641.33,5808.32 Z " />
<path stroke="transparent" fill="#000000" transform="matrix(0.0833333 0 0 0.0833333 -202.875 -193)" d="M 3071.32,4978.53 L 3091.32,4990.08 L 3091.32,5578.53 L 3071.32,5590.08 L 3071.32,4978.53 Z " />
<path stroke="transparent" fill="#000000" transform="matrix(0.0833333 0 0 0.0833333 -202.875 -193)" d="M 3600.94,4672.76 L 3600.94,4695.85 L 3091.32,4990.08 L 3071.32,4978.53 L 3600.94,4672.76 Z " />
<path stroke="transparent" fill="#000000" transform="matrix(0.0833333 0 0 0.0833333 -202.875 -193)" d="M 3600.94,4695.85 L 3600.94,4672.76 L 4120.55,4972.76 L 4120.55,4984.31 L 4110.55,4990.08 L 3600.94,4695.85 Z " />
<path stroke="transparent" fill="#000000" transform="matrix(0.0833333 0 0 0.0833333 -202.875 -193)" d="M 4130.55,5578.53 L 4120.55,5584.31 L 4110.55,5578.53 L 4110.55,4990.08 L 4120.55,4984.31 L 4130.55,4990.08 L 4130.55,5578.53 Z " />
<path stroke="transparent" fill="#000000" transform="matrix(0.0833333 0 0 0.0833333 -202.875 -193)" d="M 4110.55,5578.53 L 4120.55,5584.31 L 4109.04,5602.5 L 3611.4,5889.82 L 3600.94,5884.31 L 3600.94,5872.76 L 4110.55,5578.53 Z " />
<path stroke="transparent" fill="#000000" transform="matrix(0.0833333 0 0 0.0833333 -202.875 -193)" d="M 4640.17,5872.76 L 4640.17,5895.85 L 4132.07,5602.5 L 4120.55,5584.31 L 4130.55,5578.53 L 4640.17,5872.76 Z " />
<path stroke="transparent" fill="#000000" transform="matrix(0.0833333 0 0 0.0833333 -202.875 -193)" d="M 5149.78,5578.53 L 5169.78,5590.08 L 4640.17,5895.85 L 4640.17,5872.76 L 5149.78,5578.53 Z " />
<path stroke="transparent" fill="#000000" transform="matrix(0.0833333 0 0 0.0833333 -202.875 -193)" d="M 5169.78,5590.08 L 5149.78,5578.53 L 5149.78,4990.08 L 5159.78,4984.31 L 5169.78,4990.08 L 5169.78,5590.08 Z " />
<path stroke="transparent" fill="#000000" transform="matrix(0.0833333 0 0 0.0833333 -202.875 -193)" d="M 4651.68,4702.5 L 4640.17,4684.31 L 4650.17,4678.53 L 5159.78,4972.76 L 5159.78,4984.31 L 5149.78,4990.08 L 4651.68,4702.5 Z " />
<path stroke="transparent" fill="#000000" transform="matrix(0.0833333 0 0 0.0833333 -202.875 -193)" d="M 4630.17,4678.53 L 4640.17,4684.31 L 4628.65,4702.5 L 4130.55,4990.08 L 4120.55,4984.31 L 4120.55,4972.76 L 4630.17,4678.53 Z " />
<path stroke="transparent" fill="#000000" transform="matrix(0.0833333 0 0 0.0833333 -202.875 -193)" d="M 4630.17,4078.53 L 4650.17,4090.08 L 4650.17,4678.53 L 4640.17,4684.31 L 4630.17,4678.53 L 4630.17,4078.53 Z " />
<path stroke="transparent" fill="#000000" transform="matrix(0.0833333 0 0 0.0833333 -202.875 -193)" d="M 5159.78,3772.76 L 5159.78,3795.85 L 4650.17,4090.08 L 4630.17,4078.53 L 5159.78,3772.76 Z " />
<path stroke="transparent" fill="#000000" transform="matrix(0.0833333 0 0 0.0833333 -202.875 -193)" d="M 5679.4,4072.76 L 5679.4,4084.31 L 5669.4,4090.08 L 5159.78,3795.85 L 5159.78,3772.76 L 5679.4,4072.76 Z " />
<path stroke="transparent" fill="#000000" transform="matrix(0.0833333 0 0 0.0833333 -202.875 -193)" d="M 5689.4,4678.53 L 5679.4,4684.31 L 5669.4,4678.53 L 5669.4,4090.08 L 5679.4,4084.31 L 5689.4,4090.08 L 5689.4,4678.53 Z " />
<path stroke="transparent" fill="#000000" transform="matrix(0.0833333 0 0 0.0833333 -202.875 -193)" d="M 5669.4,4678.53 L 5679.4,4684.31 L 5667.88,4702.5 L 5169.78,4990.08 L 5159.78,4984.31 L 5159.78,4972.76 L 5669.4,4678.53 Z " />
<path stroke="transparent" fill="#000000" transform="matrix(0.0833333 0 0 0.0833333 -202.875 -193)" d="M 6199.01,4972.76 L 6199.01,4995.85 L 5690.91,4702.5 L 5679.4,4684.31 L 5689.4,4678.53 L 6199.01,4972.76 Z " />
<path stroke="transparent" fill="#000000" transform="matrix(0.0833333 0 0 0.0833333 -202.875 -193)" d="M 6708.63,4678.53 L 6728.63,4690.08 L 6199.01,4995.85 L 6199.01,4972.76 L 6708.63,4678.53 Z " />
<path stroke="transparent" fill="#000000" transform="matrix(0.0833333 0 0 0.0833333 -202.875 -193)" d="M 6708.63,4090.08 L 6718.63,4084.31 L 6728.63,4103.38 L 6728.63,4690.08 L 6708.63,4678.53 L 6708.63,4090.08 Z " />
<path stroke="transparent" fill="#000000" transform="matrix(0.0833333 0 0 0.0833333 -202.875 -193)" d="M 6210.86,3802.7 L 6199.01,3784.31 L 6209.01,3778.53 L 6718.63,4072.76 L 6718.63,4084.31 L 6708.63,4090.08 L 6210.86,3802.7 Z " />
<path stroke="transparent" fill="#000000" transform="matrix(0.0833333 0 0 0.0833333 -202.875 -193)" d="M 6189.01,3778.53 L 6199.01,3784.31 L 6187.16,3802.7 L 5689.4,4090.08 L 5679.4,4084.31 L 5679.4,4072.76 L 6189.01,3778.53 Z " />
<path stroke="transparent" fill="#000000" transform="matrix(0.0833333 0 0 0.0833333 -202.875 -193)" d="M 6189.01,3178.53 L 6209.01,3190.08 L 6209.01,3778.53 L 6199.01,3784.31 L 6189.01,3778.53 L 6189.01,3178.53 Z " />
<path stroke="transparent" fill="#000000" transform="matrix(0.0833333 0 0 0.0833333 -202.875 -193)" d="M 6704.97,2880.65 L 6718.63,2884.31 L 6718.63,2895.85 L 6209.01,3190.08 L 6189.01,3178.53 L 6704.97,2880.65 Z " />
<path stroke="transparent" fill="#000000" transform="matrix(0.0833333 0 0 0.0833333 -202.875 -193)" d="M 7248.24,3178.53 L 7228.24,3190.08 L 6718.63,2895.85 L 6718.63,2884.31 L 6732.29,2880.65 L 7248.24,3178.53 Z " />
<path stroke="transparent" fill="#000000" transform="matrix(0.0833333 0 0 0.0833333 -202.875 -193)" d="M 7248.24,3790.08 L 7228.24,3778.53 L 7228.24,3190.08 L 7248.24,3178.53 L 7248.24,3790.08 Z " />
<path stroke="transparent" fill="#000000" transform="matrix(0.0833333 0 0 0.0833333 -202.875 -193)" d="M 7228.24,3778.53 L 7248.24,3790.08 L 6740.15,4083.43 L 6718.63,4084.31 L 6718.63,4072.76 L 7228.24,3778.53 Z " />
<path stroke="transparent" fill="#000000" transform="matrix(0.0833333 0 0 0.0833333 -202.875 -193)" d="M 6409.97,2369.69 L 6427.29,2359.69 L 6718.63,2864.31 L 6718.63,2884.31 L 6704.97,2880.65 L 6409.97,2369.69 Z " />
<path stroke="transparent" fill="#000000" transform="matrix(0.0833333 0 0 0.0833333 -202.875 -193)" d="M 7009.97,2359.69 L 7027.29,2369.69 L 6732.29,2880.65 L 6718.63,2884.31 L 6718.63,2864.31 L 7009.97,2359.69 Z " />
<path stroke="transparent" fill="#000000" transform="matrix(0.0833333 0 0 0.0833333 -202.875 -193)" d="M 7290.27,4342.73 L 7190.08,4423.66 L 6728.63,4103.38 L 6718.63,4084.31 L 6740.15,4083.43 L 7290.27,4342.73 Z " />
<path stroke="transparent" fill="#000000" transform="matrix(0.0833333 0 0 0.0833333 -202.875 -193)" d="M 7653.26,4133.15 L 7663.26,4150.47 L 7190.08,4423.66 L 7290.27,4342.73 L 7653.26,4133.15 Z " />
<path stroke="transparent" fill="#000000" transform="matrix(0.0833333 0 0 0.0833333 -202.875 -193)" d="M 5739.4,5284.31 L 5619.4,5284.31 L 5667.88,4702.5 L 5679.4,4684.31 L 5690.91,4702.5 L 5739.4,5284.31 Z " />
<path stroke="transparent" fill="#000000" transform="matrix(0.0833333 0 0 0.0833333 -202.875 -193)" d="M 5619.4,3484.31 L 5739.4,3484.31 L 5737.57,3504.31 L 5621.23,3504.31 L 5619.4,3484.31 Z " />
<path stroke="transparent" fill="#000000" transform="matrix(0.0833333 0 0 0.0833333 -202.875 -193)" d="M 5624.75,3542.75 L 5734.05,3542.75 L 5732.21,3562.75 L 5626.58,3562.75 L 5624.75,3542.75 Z " />
<path stroke="transparent" fill="#000000" transform="matrix(0.0833333 0 0 0.0833333 -202.875 -193)" d="M 5630.1,3601.2 L 5728.69,3601.2 L 5726.86,3621.2 L 5631.93,3621.2 L 5630.1,3601.2 Z " />
<path stroke="transparent" fill="#000000" transform="matrix(0.0833333 0 0 0.0833333 -202.875 -193)" d="M 5635.45,3659.64 L 5723.34,3659.64 L 5721.51,3679.64 L 5637.29,3679.64 L 5635.45,3659.64 Z " />
<path stroke="transparent" fill="#000000" transform="matrix(0.0833333 0 0 0.0833333 -202.875 -193)" d="M 5640.81,3718.08 L 5717.99,3718.08 L 5716.16,3738.08 L 5642.64,3738.08 L 5640.81,3718.08 Z " />
<path stroke="transparent" fill="#000000" transform="matrix(0.0833333 0 0 0.0833333 -202.875 -193)" d="M 5646.16,3776.53 L 5712.64,3776.53 L 5710.81,3796.53 L 5647.99,3796.53 L 5646.16,3776.53 Z " />
<path stroke="transparent" fill="#000000" transform="matrix(0.0833333 0 0 0.0833333 -202.875 -193)" d="M 5651.51,3834.97 L 5707.29,3834.97 L 5705.45,3854.97 L 5653.34,3854.97 L 5651.51,3834.97 Z " />
<path stroke="transparent" fill="#000000" transform="matrix(0.0833333 0 0 0.0833333 -202.875 -193)" d="M 5656.86,3893.42 L 5701.93,3893.42 L 5700.1,3913.42 L 5658.69,3913.42 L 5656.86,3893.42 Z " />
<path stroke="transparent" fill="#000000" transform="matrix(0.0833333 0 0 0.0833333 -202.875 -193)" d="M 5662.21,3951.86 L 5696.58,3951.86 L 5694.75,3971.86 L 5664.05,3971.86 L 5662.21,3951.86 Z " />
<path stroke="transparent" fill="#000000" transform="matrix(0.0833333 0 0 0.0833333 -202.875 -193)" d="M 5667.57,4010.31 L 5691.23,4010.31 L 5689.4,4030.31 L 5669.4,4030.31 L 5667.57,4010.31 Z " />
<path stroke="transparent" fill="#000000" transform="matrix(0.0833333 0 0 0.0833333 -202.875 -193)" d="M 4700.17,5284.31 L 4580.17,5284.31 L 4628.65,4702.5 L 4640.17,4684.31 L 4651.68,4702.5 L 4700.17,5284.31 Z " />
<path stroke="transparent" fill="#000000" transform="matrix(0.0833333 0 0 0.0833333 -202.875 -193)" d="M 4180.55,6184.31 L 4060.55,6184.31 L 4109.04,5602.5 L 4120.55,5584.31 L 4132.07,5602.5 L 4180.55,6184.31 Z " />
<text x="0" y="0" stroke="transparent" fill="#000000" transform="matrix(0.0833333 0 0 0.0833333 134.504 178.859)" style="font:normal normal normal 200px 'Arial'" >
H</text>
<path stroke="transparent" fill="#000000" transform="matrix(0.0833333 0 0 0.0833333 -202.875 -193)" d="M 4060.55,4501.64 L 4180.55,4501.64 L 4178.22,4521.64 L 4062.89,4521.64 L 4060.55,4501.64 Z " />
<path stroke="transparent" fill="#000000" transform="matrix(0.0833333 0 0 0.0833333 -202.875 -193)" d="M 4067.36,4560.01 L 4173.74,4560.01 L 4171.41,4580.01 L 4069.7,4580.01 L 4067.36,4560.01 Z " />
<path stroke="transparent" fill="#000000" transform="matrix(0.0833333 0 0 0.0833333 -202.875 -193)" d="M 4074.17,4618.38 L 4166.93,4618.38 L 4164.6,4638.38 L 4076.51,4638.38 L 4074.17,4618.38 Z " />
<path stroke="transparent" fill="#000000" transform="matrix(0.0833333 0 0 0.0833333 -202.875 -193)" d="M 4080.98,4676.75 L 4160.12,4676.75 L 4157.79,4696.75 L 4083.31,4696.75 L 4080.98,4676.75 Z " />
<path stroke="transparent" fill="#000000" transform="matrix(0.0833333 0 0 0.0833333 -202.875 -193)" d="M 4087.79,4735.12 L 4153.31,4735.12 L 4150.98,4755.12 L 4090.12,4755.12 L 4087.79,4735.12 Z " />
<path stroke="transparent" fill="#000000" transform="matrix(0.0833333 0 0 0.0833333 -202.875 -193)" d="M 4094.6,4793.49 L 4146.51,4793.49 L 4144.17,4813.49 L 4096.93,4813.49 L 4094.6,4793.49 Z " />
<path stroke="transparent" fill="#000000" transform="matrix(0.0833333 0 0 0.0833333 -202.875 -193)" d="M 4101.41,4851.86 L 4139.7,4851.86 L 4137.36,4871.86 L 4103.74,4871.86 L 4101.41,4851.86 Z " />
<path stroke="transparent" fill="#000000" transform="matrix(0.0833333 0 0 0.0833333 -202.875 -193)" d="M 4108.22,4910.23 L 4132.89,4910.23 L 4130.55,4930.23 L 4110.55,4930.23 L 4108.22,4910.23 Z " />
<text x="0" y="0" stroke="transparent" fill="#000000" transform="matrix(0.0833333 0 0 0.0833333 221.107 178.859)" style="font:normal normal normal 200px 'Arial'" >
H</text>
<path stroke="transparent" fill="#000000" transform="matrix(0.0833333 0 0 0.0833333 -202.875 -193)" d="M 5099.78,4501.64 L 5219.78,4501.64 L 5217.45,4521.64 L 5102.12,4521.64 L 5099.78,4501.64 Z " />
<path stroke="transparent" fill="#000000" transform="matrix(0.0833333 0 0 0.0833333 -202.875 -193)" d="M 5106.59,4560.01 L 5212.97,4560.01 L 5210.64,4580.01 L 5108.93,4580.01 L 5106.59,4560.01 Z " />
<path stroke="transparent" fill="#000000" transform="matrix(0.0833333 0 0 0.0833333 -202.875 -193)" d="M 5113.4,4618.38 L 5206.16,4618.38 L 5203.83,4638.38 L 5115.74,4638.38 L 5113.4,4618.38 Z " />
<path stroke="transparent" fill="#000000" transform="matrix(0.0833333 0 0 0.0833333 -202.875 -193)" d="M 5120.21,4676.75 L 5199.35,4676.75 L 5197.02,4696.75 L 5122.55,4696.75 L 5120.21,4676.75 Z " />
<path stroke="transparent" fill="#000000" transform="matrix(0.0833333 0 0 0.0833333 -202.875 -193)" d="M 5127.02,4735.12 L 5192.55,4735.12 L 5190.21,4755.12 L 5129.35,4755.12 L 5127.02,4735.12 Z " />
<path stroke="transparent" fill="#000000" transform="matrix(0.0833333 0 0 0.0833333 -202.875 -193)" d="M 5133.83,4793.49 L 5185.74,4793.49 L 5183.4,4813.49 L 5136.16,4813.49 L 5133.83,4793.49 Z " />
<path stroke="transparent" fill="#000000" transform="matrix(0.0833333 0 0 0.0833333 -202.875 -193)" d="M 5140.64,4851.86 L 5178.93,4851.86 L 5176.59,4871.86 L 5142.97,4871.86 L 5140.64,4851.86 Z " />
<path stroke="transparent" fill="#000000" transform="matrix(0.0833333 0 0 0.0833333 -202.875 -193)" d="M 5147.45,4910.23 L 5172.12,4910.23 L 5169.78,4930.23 L 5149.78,4930.23 L 5147.45,4910.23 Z " />
<text x="0" y="0" stroke="transparent" fill="#000000" transform="matrix(0.0833333 0 0 0.0833333 307.709 178.859)" style="font:normal normal normal 200px 'Arial'" >
H</text>
<path stroke="transparent" fill="#000000" transform="matrix(0.0833333 0 0 0.0833333 -202.875 -193)" d="M 6259.01,4281.64 L 6139.01,4281.64 L 6187.16,3802.7 L 6199.01,3784.31 L 6210.86,3802.7 L 6259.01,4281.64 Z " />
</svg>
