<?xml version="1.0" standalone="no" ?>
<!DOCTYPE svg PUBLIC "-//W3C//DTD SVG 1.1//EN" "http://www.w3.org/Graphics/SVG/1.1/DTD/svg11.dtd">
<svg width="373px" height="171px" viewBox="0 0 373 171" style="background-color: #ffffff00" xmlns="http://www.w3.org/2000/svg" xmlns:xlink="http://www.w3.org/1999/xlink" version="1.1" >
<path stroke="transparent" fill="#000000" transform="matrix(0.0833333 0 0 0.0833333 -249.208 -274)" d="M 4603.65,4329.38 L 4603.65,4317.83 L 4613.65,4312.06 L 5123.28,4606.29 L 5123.28,4617.83 L 5113.28,4623.61 L 4603.65,4329.38 Z " />
<path stroke="transparent" fill="#000000" transform="matrix(0.0833333 0 0 0.0833333 -249.208 -274)" d="M 3049.81,4626.49 L 3039.81,4609.17 L 3554.45,4312.06 L 3564.45,4317.83 L 3564.45,4329.38 L 3049.81,4626.49 Z " />
<path stroke="transparent" fill="#000000" transform="matrix(0.0833333 0 0 0.0833333 -249.208 -274)" d="M 3564.45,4329.38 L 3564.45,4317.83 L 3574.45,4312.06 L 3985.31,4549.26 L 3975.31,4566.58 L 3564.45,4329.38 Z " />
<path stroke="transparent" fill="#000000" transform="matrix(0.0833333 0 0 0.0833333 -249.208 -274)" d="M 3574.45,4312.06 L 3564.45,4317.83 L 3554.45,4312.06 L 3554.45,3712.06 L 3574.45,3723.61 L 3574.45,4312.06 Z " />
<path stroke="transparent" fill="#000000" transform="matrix(0.0833333 0 0 0.0833333 -249.208 -274)" d="M 3646.45,4276.26 L 3626.45,4276.26 L 3626.45,3759.4 L 3646.45,3759.4 L 3646.45,4276.26 Z " />
<path stroke="transparent" fill="#000000" transform="matrix(0.0833333 0 0 0.0833333 -249.208 -274)" d="M 3574.45,3723.61 L 3554.45,3712.06 L 3968.96,3472.75 L 3978.96,3490.07 L 3574.45,3723.61 Z " />
<path stroke="transparent" fill="#000000" transform="matrix(0.0833333 0 0 0.0833333 -249.208 -274)" d="M 4189.21,3490.08 L 4199.21,3472.76 L 4613.65,3712.06 L 4593.65,3723.61 L 4189.21,3490.08 Z " />
<path stroke="transparent" fill="#000000" transform="matrix(0.0833333 0 0 0.0833333 -249.208 -274)" d="M 4153.21,3552.43 L 4163.21,3535.11 L 4536.65,3750.74 L 4526.65,3768.06 L 4153.21,3552.43 Z " />
<path stroke="transparent" fill="#000000" transform="matrix(0.0833333 0 0 0.0833333 -249.208 -274)" d="M 4192.86,4566.57 L 4182.86,4549.25 L 4593.65,4312.06 L 4603.65,4317.83 L 4603.65,4329.38 L 4192.86,4566.57 Z " />
<path stroke="transparent" fill="#000000" transform="matrix(0.0833333 0 0 0.0833333 -249.208 -274)" d="M 4156.86,4504.23 L 4146.86,4486.9 L 4526.65,4267.61 L 4536.65,4284.93 L 4156.86,4504.23 Z " />
<path stroke="transparent" fill="#000000" transform="matrix(0.0833333 0 0 0.0833333 -249.208 -274)" d="M 4593.65,3723.61 L 4613.65,3712.06 L 4613.65,4312.06 L 4603.65,4317.83 L 4593.65,4312.06 L 4593.65,3723.61 Z " />
<path stroke="transparent" fill="#000000" transform="matrix(0.0833333 0 0 0.0833333 -249.208 -274)" d="M 7114.14,4555.7 L 7104.14,4573.02 L 6682.12,4329.38 L 6682.12,4306.29 L 7114.14,4555.7 Z " />
<path stroke="transparent" fill="#000000" transform="matrix(0.0833333 0 0 0.0833333 -249.208 -274)" d="M 6172.48,5112.67 L 6152.48,5112.67 L 6152.48,4623.61 L 6162.48,4617.83 L 6172.48,4623.61 L 6172.48,5112.67 Z " />
<path stroke="transparent" fill="#000000" transform="matrix(0.0833333 0 0 0.0833333 -249.208 -274)" d="M 5632.92,3837.67 L 5652.92,3837.67 L 5652.92,4312.06 L 5642.92,4317.83 L 5632.92,4312.06 L 5632.92,3837.67 Z " />
<path stroke="transparent" fill="#000000" transform="matrix(0.0833333 0 0 0.0833333 -249.208 -274)" d="M 5133.28,5112.67 L 5113.28,5112.67 L 5113.28,4623.61 L 5123.28,4617.83 L 5133.28,4623.61 L 5133.28,5112.67 Z " />
<path stroke="transparent" fill="#000000" transform="matrix(0.0833333 0 0 0.0833333 -249.208 -274)" d="M 6682.12,4306.29 L 6682.12,4329.38 L 6172.48,4623.61 L 6162.48,4617.83 L 6162.48,4606.29 L 6682.12,4306.29 Z " />
<path stroke="transparent" fill="#000000" transform="matrix(0.0833333 0 0 0.0833333 -249.208 -274)" d="M 6162.48,4606.29 L 6162.48,4617.83 L 6152.48,4623.61 L 5642.92,4329.38 L 5642.92,4317.83 L 5652.92,4312.06 L 6162.48,4606.29 Z " />
<path stroke="transparent" fill="#000000" transform="matrix(0.0833333 0 0 0.0833333 -249.208 -274)" d="M 5632.92,4312.06 L 5642.92,4317.83 L 5642.92,4329.38 L 5133.28,4623.61 L 5123.28,4617.83 L 5123.28,4606.29 L 5632.92,4312.06 Z " />
<text x="0" y="0" stroke="transparent" fill="#000000" transform="matrix(0.0833333 0 0 0.0833333 85.132 17.3195)" style="font:normal normal normal 200px 'Arial'" >
N</text>
<text x="0" y="0" stroke="transparent" fill="#000000" transform="matrix(0.0833333 0 0 0.0833333 85.132 117.319)" style="font:normal normal normal 200px 'Arial'" >
N</text>
<text x="0" y="0" stroke="transparent" fill="#000000" transform="matrix(0.0833333 0 0 0.0833333 344.438 117.319)" style="font:normal normal normal 200px 'Arial'" >
OH</text>
<text x="0" y="0" stroke="transparent" fill="#000000" transform="matrix(0.0833333 0 0 0.0833333 257.832 167.319)" style="font:normal normal normal 200px 'Arial'" >
OH</text>
<text x="0" y="0" stroke="transparent" fill="#000000" transform="matrix(0.0833333 0 0 0.0833333 214.535 42.3194)" style="font:normal normal normal 200px 'Arial'" >
OH</text>
<text x="0" y="0" stroke="transparent" fill="#000000" transform="matrix(0.0833333 0 0 0.0833333 171.232 167.319)" style="font:normal normal normal 200px 'Arial'" >
OH</text>
</svg>
