<?xml version="1.0" standalone="no" ?>
<!DOCTYPE svg PUBLIC "-//W3C//DTD SVG 1.1//EN" "http://www.w3.org/Graphics/SVG/1.1/DTD/svg11.dtd">
<svg width="459px" height="293px" viewBox="0 0 459 293" style="background-color: #ffffff00" xmlns="http://www.w3.org/2000/svg" xmlns:xlink="http://www.w3.org/1999/xlink" version="1.1" >
<text x="0" y="0" stroke="transparent" fill="#000000" transform="matrix(0.0833333 0 0 0.0833333 348.052 72.3138)" style="font:normal normal normal 200px 'Arial'" >
O</text>
<text x="0" y="0" stroke="transparent" fill="#000000" transform="matrix(0.0833333 0 0 0.0833333 361.179 122.193)" style="font:normal normal normal 200px 'Arial'" >
O</text>
<text x="0" y="0" stroke="transparent" fill="#000000" transform="matrix(0.0833333 0 0 0.0833333 243.552 17.6896)" style="font:normal normal normal 200px 'Arial'" >
NH</text>
<text x="0" y="0" stroke="transparent" fill="#000000" transform="matrix(0.0833333 0 0 0.0833333 336.555 214.29)" style="font:normal normal normal 200px 'Arial'" >
O</text>
<text x="0" y="0" stroke="transparent" fill="#000000" transform="matrix(0.0833333 0 0 0.0833333 130.743 17.6896)" style="font:normal normal normal 200px 'Arial'" >
HO</text>
<text x="0" y="0" stroke="transparent" fill="#000000" transform="matrix(0.0833333 0 0 0.0833333 404.427 197.18)" style="font:normal normal normal 200px 'Arial'" >
O</text>
<text x="0" y="0" stroke="transparent" fill="#000000" transform="matrix(0.0833333 0 0 0.0833333 167.088 233.78)" style="font:normal normal normal 200px 'Arial'" >
OH</text>
<text x="0" y="0" stroke="transparent" fill="#000000" transform="matrix(0.0833333 0 0 0.0833333 379.924 289.241)" style="font:normal normal normal 200px 'Arial'" >
O</text>
<text x="0" y="0" stroke="transparent" fill="#000000" transform="matrix(0.0833333 0 0 0.0833333 49.4759 215.041)" style="font:normal normal normal 200px 'Arial'" >
O</text>
<text x="0" y="0" stroke="transparent" fill="#000000" transform="matrix(0.0833333 0 0 0.0833333 293.552 17.6896)" style="font:normal normal normal 200px 'Arial'" >
H</text>
<path stroke="transparent" fill="#000000" transform="matrix(0.0833333 0 0 0.0833333 -206.667 -206)" d="M 6724.62,2661.77 L 6744.62,2661.77 L 6744.62,3156.6 L 6724.62,3156.6 L 6724.62,2661.77 Z " />
<path stroke="transparent" fill="#000000" transform="matrix(0.0833333 0 0 0.0833333 -206.667 -206)" d="M 6086.76,3649.39 L 6073.09,3645.77 L 6070.4,3635.77 L 6630.11,3310.87 L 6640.15,3328.17 L 6086.76,3649.39 Z " />
<path stroke="transparent" fill="#000000" transform="matrix(0.0833333 0 0 0.0833333 -206.667 -206)" d="M 5478.83,3655.77 L 5473.09,3645.77 L 5478.88,3635.77 L 6070.4,3635.77 L 6073.09,3645.77 L 6067.33,3655.77 L 5478.83,3655.77 Z " />
<path stroke="transparent" fill="#000000" transform="matrix(0.0833333 0 0 0.0833333 -206.667 -206)" d="M 5514.39,3727.77 L 5514.39,3707.77 L 6031.63,3707.77 L 6031.63,3727.77 L 5514.39,3727.77 Z " />
<path stroke="transparent" fill="#000000" transform="matrix(0.0833333 0 0 0.0833333 -206.667 -206)" d="M 6374.77,4145.78 L 6371.64,4160.31 L 6360.08,4160.31 L 6067.33,3655.77 L 6073.09,3645.77 L 6086.76,3649.39 L 6374.77,4145.78 Z " />
<path stroke="transparent" fill="#000000" transform="matrix(0.0833333 0 0 0.0833333 -206.667 -206)" d="M 5183.66,4160.31 L 5172.07,4160.31 L 5166.34,4150.31 L 5461.53,3645.72 L 5473.09,3645.77 L 5478.83,3655.77 L 5183.66,4160.31 Z " />
<path stroke="transparent" fill="#000000" transform="matrix(0.0833333 0 0 0.0833333 -206.667 -206)" d="M 5167.82,3135.26 L 5173.6,3125.26 L 5187.53,3129.41 L 5478.88,3635.77 L 5473.09,3645.77 L 5461.53,3645.72 L 5167.82,3135.26 Z " />
<path stroke="transparent" fill="#000000" transform="matrix(0.0833333 0 0 0.0833333 -206.667 -206)" d="M 6762.55,3865.75 L 6822.47,3969.72 L 6378.71,4168.04 L 6371.64,4160.31 L 6374.77,4145.78 L 6762.55,3865.75 Z " />
<path stroke="transparent" fill="#000000" transform="matrix(0.0833333 0 0 0.0833333 -206.667 -206)" d="M 6078.85,4685.22 L 6067.33,4665.22 L 6360.08,4160.31 L 6371.64,4160.31 L 6378.71,4168.04 L 6078.85,4685.22 Z " />
<path stroke="transparent" fill="#000000" transform="matrix(0.0833333 0 0 0.0833333 -206.667 -206)" d="M 4577.83,4170.31 L 4572.07,4160.31 L 4577.83,4150.31 L 5166.34,4150.31 L 5172.07,4160.31 L 5166.34,4170.31 L 4577.83,4170.31 Z " />
<path stroke="transparent" fill="#000000" transform="matrix(0.0833333 0 0 0.0833333 -206.667 -206)" d="M 5478.83,4665.22 L 5467.36,4685.22 L 5166.34,4170.31 L 5172.07,4160.31 L 5183.66,4160.31 L 5478.83,4665.22 Z " />
<path stroke="transparent" fill="#000000" transform="matrix(0.0833333 0 0 0.0833333 -206.667 -206)" d="M 4847.64,3715.02 L 4951.74,3655.34 L 4959.93,3673.7 L 4859.34,3731.36 L 4847.64,3715.02 Z " />
<path stroke="transparent" fill="#000000" transform="matrix(0.0833333 0 0 0.0833333 -206.667 -206)" d="M 4882.28,3763.4 L 4975.99,3709.68 L 4984.17,3728.04 L 4893.99,3779.74 L 4882.28,3763.4 Z " />
<path stroke="transparent" fill="#000000" transform="matrix(0.0833333 0 0 0.0833333 -206.667 -206)" d="M 4916.93,3811.77 L 5000.23,3764.02 L 5008.42,3782.38 L 4928.63,3828.12 L 4916.93,3811.77 Z " />
<path stroke="transparent" fill="#000000" transform="matrix(0.0833333 0 0 0.0833333 -206.667 -206)" d="M 4951.58,3860.15 L 5024.47,3818.36 L 5032.66,3836.72 L 4963.28,3876.49 L 4951.58,3860.15 Z " />
<path stroke="transparent" fill="#000000" transform="matrix(0.0833333 0 0 0.0833333 -206.667 -206)" d="M 4986.22,3908.53 L 5048.71,3872.71 L 5056.9,3891.06 L 4997.93,3924.87 L 4986.22,3908.53 Z " />
<path stroke="transparent" fill="#000000" transform="matrix(0.0833333 0 0 0.0833333 -206.667 -206)" d="M 5020.87,3956.9 L 5072.95,3927.05 L 5081.14,3945.41 L 5032.57,3973.25 L 5020.87,3956.9 Z " />
<path stroke="transparent" fill="#000000" transform="matrix(0.0833333 0 0 0.0833333 -206.667 -206)" d="M 5055.51,4005.28 L 5097.19,3981.39 L 5105.38,3999.75 L 5067.22,4021.63 L 5055.51,4005.28 Z " />
<path stroke="transparent" fill="#000000" transform="matrix(0.0833333 0 0 0.0833333 -206.667 -206)" d="M 5090.16,4053.66 L 5121.43,4035.73 L 5129.62,4054.09 L 5101.86,4070 L 5090.16,4053.66 Z " />
<path stroke="transparent" fill="#000000" transform="matrix(0.0833333 0 0 0.0833333 -206.667 -206)" d="M 5124.8,4102.04 L 5145.67,4090.07 L 5153.86,4108.43 L 5136.51,4118.38 L 5124.8,4102.04 Z " />
<path stroke="transparent" fill="#000000" transform="matrix(0.0833333 0 0 0.0833333 -206.667 -206)" d="M 4576.35,3135.26 L 4570.55,3125.26 L 4576.98,3115.26 L 4823.58,3115.26 L 4823.55,3135.26 L 4576.35,3135.26 L 4576.35,3135.26 Z " />
<path stroke="transparent" fill="#000000" transform="matrix(0.0833333 0 0 0.0833333 -206.667 -206)" d="M 5167.84,3115.26 L 5173.6,3125.26 L 5167.82,3135.26 L 4923.55,3135.26 L 4923.58,3115.26 L 5167.84,3115.26 L 5167.84,3115.26 Z " />
<path stroke="transparent" fill="#000000" transform="matrix(0.0833333 0 0 0.0833333 -206.667 -206)" d="M 5398.24,2718.03 L 5415.54,2728.06 L 5203.29,3094.01 L 5173.6,3125.26 L 5167.84,3115.26 L 5398.24,2718.03 Z " />
<path stroke="transparent" fill="#000000" transform="matrix(0.0833333 0 0 0.0833333 -206.667 -206)" d="M 5935.27,2617.3 L 5995.16,2721.28 L 5187.53,3129.41 L 5173.6,3125.26 L 5203.29,3094.01 L 5935.27,2617.3 Z " />
<path stroke="transparent" fill="#000000" transform="matrix(0.0833333 0 0 0.0833333 -206.667 -206)" d="M 7411.14,4148.76 L 7411.12,4171.86 L 6987.15,3926.78 L 6997.16,3909.47 L 7411.14,4148.76 Z " />
<path stroke="transparent" fill="#000000" transform="matrix(0.0833333 0 0 0.0833333 -206.667 -206)" d="M 5467.36,4685.22 L 5478.83,4665.22 L 6067.33,4665.22 L 6078.85,4685.22 L 5467.36,4685.22 Z " />
<path stroke="transparent" fill="#000000" transform="matrix(0.0833333 0 0 0.0833333 -206.667 -206)" d="M 6532.25,4861.17 L 6474.07,4966.12 L 6457.68,4954.42 L 6513.65,4853.47 L 6532.25,4861.17 Z " />
<path stroke="transparent" fill="#000000" transform="matrix(0.0833333 0 0 0.0833333 -206.667 -206)" d="M 6476.76,4838.2 L 6425.19,4931.23 L 6408.81,4919.53 L 6458.16,4830.5 L 6476.76,4838.2 Z " />
<path stroke="transparent" fill="#000000" transform="matrix(0.0833333 0 0 0.0833333 -206.667 -206)" d="M 6421.28,4815.23 L 6376.31,4896.34 L 6359.93,4884.64 L 6402.68,4807.53 L 6421.28,4815.23 Z " />
<path stroke="transparent" fill="#000000" transform="matrix(0.0833333 0 0 0.0833333 -206.667 -206)" d="M 6365.79,4792.26 L 6327.44,4861.44 L 6311.05,4849.75 L 6347.19,4784.56 L 6365.79,4792.26 Z " />
<path stroke="transparent" fill="#000000" transform="matrix(0.0833333 0 0 0.0833333 -206.667 -206)" d="M 6310.3,4769.3 L 6278.56,4826.55 L 6262.17,4814.86 L 6291.7,4761.6 L 6310.3,4769.3 Z " />
<path stroke="transparent" fill="#000000" transform="matrix(0.0833333 0 0 0.0833333 -206.667 -206)" d="M 6254.81,4746.33 L 6229.68,4791.66 L 6213.3,4779.97 L 6236.21,4738.63 L 6254.81,4746.33 Z " />
<path stroke="transparent" fill="#000000" transform="matrix(0.0833333 0 0 0.0833333 -206.667 -206)" d="M 6199.33,4723.36 L 6180.8,4756.77 L 6164.42,4745.08 L 6180.73,4715.66 L 6199.33,4723.36 Z " />
<path stroke="transparent" fill="#000000" transform="matrix(0.0833333 0 0 0.0833333 -206.667 -206)" d="M 6143.84,4700.39 L 6131.93,4721.88 L 6115.54,4710.19 L 6125.24,4692.69 L 6143.84,4700.39 Z " />
<path stroke="transparent" fill="#000000" transform="matrix(0.0833333 0 0 0.0833333 -206.667 -206)" d="M 4267.05,3655.77 L 4272.8,3645.77 L 4284.35,3645.72 L 4577.83,4150.31 L 4572.07,4160.31 L 4560.51,4160.31 L 4267.05,3655.77 Z " />
<path stroke="transparent" fill="#000000" transform="matrix(0.0833333 0 0 0.0833333 -206.667 -206)" d="M 4223.07,3722.22 L 4240.36,3712.17 L 4498.09,4155.3 L 4480.8,4165.35 L 4223.07,3722.22 Z " />
<path stroke="transparent" fill="#000000" transform="matrix(0.0833333 0 0 0.0833333 -206.667 -206)" d="M 4284.3,4675.34 L 4272.8,4675.22 L 4267.05,4665.22 L 4560.51,4160.31 L 4572.07,4160.31 L 4577.83,4170.31 L 4284.3,4675.34 Z " />
<path stroke="transparent" fill="#000000" transform="matrix(0.0833333 0 0 0.0833333 -206.667 -206)" d="M 4864.34,2596.27 L 4884.31,2616.27 L 4882.8,3638.29 L 4862.8,3638.26 L 4864.34,2596.27 L 4864.34,2596.27 Z " />
<path stroke="transparent" fill="#000000" transform="matrix(0.0833333 0 0 0.0833333 -206.667 -206)" d="M 4284.35,3645.72 L 4272.8,3645.77 L 4267,3635.77 L 4558.69,3125.84 L 4570.55,3125.26 L 4576.35,3135.26 L 4284.35,3645.72 Z " />
<path stroke="transparent" fill="#000000" transform="matrix(0.0833333 0 0 0.0833333 -206.667 -206)" d="M 4279.92,2741.27 L 4383.88,2681.33 L 4576.98,3115.26 L 4570.55,3125.26 L 4558.69,3125.84 L 4279.92,2741.27 Z " />
<path stroke="transparent" fill="#000000" transform="matrix(0.0833333 0 0 0.0833333 -206.667 -206)" d="M 4884.31,2616.27 L 4864.34,2596.27 L 5378.62,2596.27 L 5378.62,2616.27 L 4884.31,2616.27 Z " />
<path stroke="transparent" fill="#000000" transform="matrix(0.0833333 0 0 0.0833333 -206.667 -206)" d="M 7926.64,3851.65 L 7936.63,3868.97 L 7411.12,4171.86 L 7411.14,4148.76 L 7926.64,3851.65 Z " />
<path stroke="transparent" fill="#000000" transform="matrix(0.0833333 0 0 0.0833333 -206.667 -206)" d="M 7457.12,4655 L 7437.12,4655 L 7437.12,4139.57 L 7457.12,4139.57 L 7457.12,4655 Z " />
<path stroke="transparent" fill="#000000" transform="matrix(0.0833333 0 0 0.0833333 -206.667 -206)" d="M 7385.14,4655 L 7365.14,4655 L 7365.14,4139.51 L 7385.14,4139.51 L 7385.14,4655 Z " />
<path stroke="transparent" fill="#000000" transform="matrix(0.0833333 0 0 0.0833333 -206.667 -206)" d="M 6606.66,5571.25 L 6586.66,5559.7 L 6586.66,5085.31 L 6606.66,5085.31 L 6606.66,5571.25 Z " />
<path stroke="transparent" fill="#000000" transform="matrix(0.0833333 0 0 0.0833333 -206.667 -206)" d="M 3678.54,3655.77 L 3667.06,3635.77 L 4267,3635.77 L 4272.8,3645.77 L 4267.05,3655.77 L 3678.54,3655.77 Z " />
<path stroke="transparent" fill="#000000" transform="matrix(0.0833333 0 0 0.0833333 -206.667 -206)" d="M 4520.22,5101.37 L 4502.72,5111.06 L 4266.91,4685.22 L 4272.8,4675.22 L 4284.3,4675.34 L 4520.22,5101.37 Z " />
<path stroke="transparent" fill="#000000" transform="matrix(0.0833333 0 0 0.0833333 -206.667 -206)" d="M 3675.47,4685.22 L 3672.8,4675.22 L 3678.54,4665.22 L 4267.05,4665.22 L 4272.8,4675.22 L 4266.91,4685.22 L 3675.47,4685.22 Z " />
<path stroke="transparent" fill="#000000" transform="matrix(0.0833333 0 0 0.0833333 -206.667 -206)" d="M 3714.13,4613.22 L 3714.13,4593.22 L 4231.37,4593.22 L 4231.37,4613.22 L 3714.13,4613.22 Z " />
<path stroke="transparent" fill="#000000" transform="matrix(0.0833333 0 0 0.0833333 -206.667 -206)" d="M 6082.6,5873.55 L 6072.6,5856.23 L 6586.66,5559.7 L 6606.66,5571.25 L 6082.6,5873.55 Z " />
<path stroke="transparent" fill="#000000" transform="matrix(0.0833333 0 0 0.0833333 -206.667 -206)" d="M 7047.35,5771.67 L 7037.37,5789 L 6591.67,5532.58 L 6601.64,5515.24 L 7047.35,5771.67 Z " />
<path stroke="transparent" fill="#000000" transform="matrix(0.0833333 0 0 0.0833333 -206.667 -206)" d="M 7011.42,5834.12 L 7001.44,5851.46 L 6555.6,5594.95 L 6565.57,5577.61 L 7011.42,5834.12 Z " />
<path stroke="transparent" fill="#000000" transform="matrix(0.0833333 0 0 0.0833333 -206.667 -206)" d="M 3383.66,4160.31 L 3360.49,4160.31 L 3667.06,3635.77 L 3678.54,3655.77 L 3383.66,4160.31 Z " />
<path stroke="transparent" fill="#000000" transform="matrix(0.0833333 0 0 0.0833333 -206.667 -206)" d="M 3463.54,4165.37 L 3446.27,4155.28 L 3705.21,3712.24 L 3722.47,3722.33 L 3463.54,4165.37 Z " />
<path stroke="transparent" fill="#000000" transform="matrix(0.0833333 0 0 0.0833333 -206.667 -206)" d="M 3360.49,4160.31 L 3383.66,4160.31 L 3678.54,4665.22 L 3672.8,4675.22 L 3659.09,4671.56 L 3360.49,4160.31 Z " />
<path stroke="transparent" fill="#000000" transform="matrix(0.0833333 0 0 0.0833333 -206.667 -206)" d="M 3249.43,4929.9 L 3239.47,4912.56 L 3659.09,4671.56 L 3672.8,4675.22 L 3675.47,4685.22 L 3249.43,4929.9 Z " />
<path stroke="transparent" fill="#000000" transform="matrix(0.0833333 0 0 0.0833333 -206.667 -206)" d="M 2527.37,4625.84 L 2537.36,4608.52 L 3064.07,4912.39 L 3054.08,4929.71 L 2527.37,4625.84 Z " />
</svg>
