<?xml version="1.0" standalone="no" ?>
<!DOCTYPE svg PUBLIC "-//W3C//DTD SVG 1.1//EN" "http://www.w3.org/Graphics/SVG/1.1/DTD/svg11.dtd">
<svg width="1757px" height="303px" viewBox="0 0 1757 303" style="background-color: #ffffff00" xmlns="http://www.w3.org/2000/svg" xmlns:xlink="http://www.w3.org/1999/xlink" version="1.1" >
<text x="0" y="0" stroke="transparent" fill="#000000" transform="matrix(0.0666667 0 0 0.0666667 347.876 245.165)" style="font:normal normal normal 200px 'Arial'" >
O</text>
<text x="0" y="0" stroke="transparent" fill="#000000" transform="matrix(0.0666667 0 0 0.0666667 382.919 174.043)" style="font:normal normal normal 200px 'Arial'" >
H</text>
<text x="0" y="0" stroke="transparent" fill="#000000" transform="matrix(0.0666667 0 0 0.0666667 382.919 185.165)" style="font:normal normal normal 200px 'Arial'" >
N</text>
<text x="0" y="0" stroke="transparent" fill="#000000" transform="matrix(0.0666667 0 0 0.0666667 451.799 145.165)" style="font:normal normal normal 200px 'Arial'" >
O</text>
<text x="0" y="0" stroke="transparent" fill="#000000" transform="matrix(0.0666667 0 0 0.0666667 486.841 205.165)" style="font:normal normal normal 200px 'Arial'" >
N</text>
<text x="0" y="0" stroke="transparent" fill="#000000" transform="matrix(0.0666667 0 0 0.0666667 486.841 216.287)" style="font:normal normal normal 200px 'Arial'" >
H</text>
<text x="0" y="0" stroke="transparent" fill="#000000" transform="matrix(0.0666667 0 0 0.0666667 555.726 245.165)" style="font:normal normal normal 200px 'Arial'" >
O</text>
<text x="0" y="0" stroke="transparent" fill="#000000" transform="matrix(0.0666667 0 0 0.0666667 590.763 174.043)" style="font:normal normal normal 200px 'Arial'" >
H</text>
<text x="0" y="0" stroke="transparent" fill="#000000" transform="matrix(0.0666667 0 0 0.0666667 590.763 185.165)" style="font:normal normal normal 200px 'Arial'" >
N</text>
<text x="0" y="0" stroke="transparent" fill="#000000" transform="matrix(0.0666667 0 0 0.0666667 659.648 145.165)" style="font:normal normal normal 200px 'Arial'" >
O</text>
<text x="0" y="0" stroke="transparent" fill="#000000" transform="matrix(0.0666667 0 0 0.0666667 694.686 205.165)" style="font:normal normal normal 200px 'Arial'" >
N</text>
<text x="0" y="0" stroke="transparent" fill="#000000" transform="matrix(0.0666667 0 0 0.0666667 694.686 216.287)" style="font:normal normal normal 200px 'Arial'" >
H</text>
<text x="0" y="0" stroke="transparent" fill="#000000" transform="matrix(0.0666667 0 0 0.0666667 763.571 245.165)" style="font:normal normal normal 200px 'Arial'" >
O</text>
<text x="0" y="0" stroke="transparent" fill="#000000" transform="matrix(0.0666667 0 0 0.0666667 798.613 174.043)" style="font:normal normal normal 200px 'Arial'" >
H</text>
<text x="0" y="0" stroke="transparent" fill="#000000" transform="matrix(0.0666667 0 0 0.0666667 798.613 185.165)" style="font:normal normal normal 200px 'Arial'" >
N</text>
<text x="0" y="0" stroke="transparent" fill="#000000" transform="matrix(0.0666667 0 0 0.0666667 867.493 145.165)" style="font:normal normal normal 200px 'Arial'" >
O</text>
<text x="0" y="0" stroke="transparent" fill="#000000" transform="matrix(0.0666667 0 0 0.0666667 902.536 205.165)" style="font:normal normal normal 200px 'Arial'" >
N</text>
<text x="0" y="0" stroke="transparent" fill="#000000" transform="matrix(0.0666667 0 0 0.0666667 902.536 216.287)" style="font:normal normal normal 200px 'Arial'" >
H</text>
<text x="0" y="0" stroke="transparent" fill="#000000" transform="matrix(0.0666667 0 0 0.0666667 1035.12 111.71)" style="font:normal normal normal 200px 'Arial'" >
NH</text>
<text x="0" y="0" stroke="transparent" fill="#000000" transform="matrix(0.0666667 0 0 0.0666667 971.416 245.165)" style="font:normal normal normal 200px 'Arial'" >
O</text>
<text x="0" y="0" stroke="transparent" fill="#000000" transform="matrix(0.0666667 0 0 0.0666667 1006.46 174.043)" style="font:normal normal normal 200px 'Arial'" >
H</text>
<text x="0" y="0" stroke="transparent" fill="#000000" transform="matrix(0.0666667 0 0 0.0666667 1006.46 185.165)" style="font:normal normal normal 200px 'Arial'" >
N</text>
<text x="0" y="0" stroke="transparent" fill="#000000" transform="matrix(0.0666667 0 0 0.0666667 1075.34 145.165)" style="font:normal normal normal 200px 'Arial'" >
O</text>
<text x="0" y="0" stroke="transparent" fill="#000000" transform="matrix(0.0666667 0 0 0.0666667 1110.38 205.165)" style="font:normal normal normal 200px 'Arial'" >
N</text>
<text x="0" y="0" stroke="transparent" fill="#000000" transform="matrix(0.0666667 0 0 0.0666667 1110.38 216.287)" style="font:normal normal normal 200px 'Arial'" >
H</text>
<text x="0" y="0" stroke="transparent" fill="#000000" transform="matrix(0.0666667 0 0 0.0666667 1242.97 111.71)" style="font:normal normal normal 200px 'Arial'" >
NH</text>
<text x="0" y="0" stroke="transparent" fill="#000000" transform="matrix(0.0666667 0 0 0.0666667 1179.26 245.165)" style="font:normal normal normal 200px 'Arial'" >
O</text>
<text x="0" y="0" stroke="transparent" fill="#000000" transform="matrix(0.0666667 0 0 0.0666667 1214.3 174.043)" style="font:normal normal normal 200px 'Arial'" >
H</text>
<text x="0" y="0" stroke="transparent" fill="#000000" transform="matrix(0.0666667 0 0 0.0666667 1214.3 185.165)" style="font:normal normal normal 200px 'Arial'" >
N</text>
<text x="0" y="0" stroke="transparent" fill="#000000" transform="matrix(0.0666667 0 0 0.0666667 1283.19 145.165)" style="font:normal normal normal 200px 'Arial'" >
O</text>
<text x="0" y="0" stroke="transparent" fill="#000000" transform="matrix(0.0666667 0 0 0.0666667 1318.23 205.165)" style="font:normal normal normal 200px 'Arial'" >
N</text>
<text x="0" y="0" stroke="transparent" fill="#000000" transform="matrix(0.0666667 0 0 0.0666667 1318.23 216.287)" style="font:normal normal normal 200px 'Arial'" >
H</text>
<text x="0" y="0" stroke="transparent" fill="#000000" transform="matrix(0.0666667 0 0 0.0666667 1450.82 111.71)" style="font:normal normal normal 200px 'Arial'" >
NH</text>
<text x="0" y="0" stroke="transparent" fill="#000000" transform="matrix(0.0666667 0 0 0.0666667 1387.11 245.165)" style="font:normal normal normal 200px 'Arial'" >
O</text>
<text x="0" y="0" stroke="transparent" fill="#000000" transform="matrix(0.0666667 0 0 0.0666667 1422.15 174.043)" style="font:normal normal normal 200px 'Arial'" >
H</text>
<text x="0" y="0" stroke="transparent" fill="#000000" transform="matrix(0.0666667 0 0 0.0666667 1422.15 185.165)" style="font:normal normal normal 200px 'Arial'" >
N</text>
<text x="0" y="0" stroke="transparent" fill="#000000" transform="matrix(0.0666667 0 0 0.0666667 1491.03 145.165)" style="font:normal normal normal 200px 'Arial'" >
O</text>
<text x="0" y="0" stroke="transparent" fill="#000000" transform="matrix(0.0666667 0 0 0.0666667 1526.07 205.165)" style="font:normal normal normal 200px 'Arial'" >
N</text>
<text x="0" y="0" stroke="transparent" fill="#000000" transform="matrix(0.0666667 0 0 0.0666667 1526.07 216.287)" style="font:normal normal normal 200px 'Arial'" >
H</text>
<text x="0" y="0" stroke="transparent" fill="#000000" transform="matrix(0.0666667 0 0 0.0666667 1658.66 111.71)" style="font:normal normal normal 200px 'Arial'" >
NH</text>
<text x="0" y="0" stroke="transparent" fill="#000000" transform="matrix(0.0666667 0 0 0.0666667 1594.95 245.165)" style="font:normal normal normal 200px 'Arial'" >
O</text>
<text x="0" y="0" stroke="transparent" fill="#000000" transform="matrix(0.0666667 0 0 0.0666667 1630 174.043)" style="font:normal normal normal 200px 'Arial'" >
H</text>
<text x="0" y="0" stroke="transparent" fill="#000000" transform="matrix(0.0666667 0 0 0.0666667 1630 185.165)" style="font:normal normal normal 200px 'Arial'" >
N</text>
<text x="0" y="0" stroke="transparent" fill="#000000" transform="matrix(0.0666667 0 0 0.0666667 1733.52 205.165)" style="font:normal normal normal 200px 'Arial'" >
OH</text>
<text x="0" y="0" stroke="transparent" fill="#000000" transform="matrix(0.0666667 0 0 0.0666667 278.996 205.165)" style="font:normal normal normal 200px 'Arial'" >
N</text>
<text x="0" y="0" stroke="transparent" fill="#000000" transform="matrix(0.0666667 0 0 0.0666667 278.996 216.287)" style="font:normal normal normal 200px 'Arial'" >
H</text>
<text x="0" y="0" stroke="transparent" fill="#000000" transform="matrix(0.0666667 0 0 0.0666667 243.954 145.165)" style="font:normal normal normal 200px 'Arial'" >
O</text>
<text x="0" y="0" stroke="transparent" fill="#000000" transform="matrix(0.0666667 0 0 0.0666667 175.074 174.043)" style="font:normal normal normal 200px 'Arial'" >
H</text>
<text x="0" y="0" stroke="transparent" fill="#000000" transform="matrix(0.0666667 0 0 0.0666667 175.074 185.165)" style="font:normal normal normal 200px 'Arial'" >
N</text>
<text x="0" y="0" stroke="transparent" fill="#000000" transform="matrix(0.0666667 0 0 0.0666667 140.031 245.165)" style="font:normal normal normal 200px 'Arial'" >
O</text>
<text x="0" y="0" stroke="transparent" fill="#000000" transform="matrix(0.0666667 0 0 0.0666667 71.1515 205.165)" style="font:normal normal normal 200px 'Arial'" >
N</text>
<text x="0" y="0" stroke="transparent" fill="#000000" transform="matrix(0.0666667 0 0 0.0666667 71.1515 216.287)" style="font:normal normal normal 200px 'Arial'" >
H</text>
<text x="0" y="0" stroke="transparent" fill="#000000" transform="matrix(0.0666667 0 0 0.0666667 2.66667 207.243)" style="font:normal normal normal 200px 'Arial'" >
O</text>
<path stroke="transparent" fill="#000000" transform="matrix(0.0666667 0 0 0.0666667 -17.3333 -161.333)" d="M 4976.58,4519.47 L 5096.58,4519.47 L 5047.04,5113.96 L 5036.58,5119.47 L 5026.12,5113.96 L 4976.58,4519.47 Z " />
<path stroke="transparent" fill="#000000" transform="matrix(0.0666667 0 0 0.0666667 -17.3333 -161.333)" d="M 5556.14,5407.93 L 5556.14,5431.02 L 5036.58,5131.02 L 5036.58,5119.47 L 5047.04,5113.96 L 5556.14,5407.93 Z " />
<path stroke="transparent" fill="#000000" transform="matrix(0.0666667 0 0 0.0666667 -17.3333 -161.333)" d="M 5602.14,5914.31 L 5582.14,5914.31 L 5582.14,5398.69 L 5602.14,5398.69 L 5602.14,5914.31 Z " />
<path stroke="transparent" fill="#000000" transform="matrix(0.0666667 0 0 0.0666667 -17.3333 -161.333)" d="M 5530.14,5914.31 L 5510.14,5914.31 L 5510.14,5398.69 L 5530.14,5398.69 L 5530.14,5914.31 Z " />
<path stroke="transparent" fill="#000000" transform="matrix(0.0666667 0 0 0.0666667 -17.3333 -161.333)" d="M 5960.65,5174.39 L 5970.65,5191.71 L 5556.14,5431.02 L 5556.14,5407.93 L 5960.65,5174.39 Z " />
<path stroke="transparent" fill="#000000" transform="matrix(0.0666667 0 0 0.0666667 -17.3333 -161.333)" d="M 6595.42,5407.93 L 6595.42,5419.47 L 6584.96,5424.98 L 6180.91,5191.71 L 6190.91,5174.39 L 6595.42,5407.93 Z " />
<path stroke="transparent" fill="#000000" transform="matrix(0.0666667 0 0 0.0666667 -17.3333 -161.333)" d="M 6657.44,6043.74 L 6537.25,5997.44 L 6584.96,5424.98 L 6595.42,5419.47 L 6605.88,5424.98 L 6657.44,6043.74 Z " />
<path stroke="transparent" fill="#000000" transform="matrix(0.0666667 0 0 0.0666667 -17.3333 -161.333)" d="M 7114.98,6307.93 L 7114.98,6319.47 L 7104.98,6325.25 L 6537.25,5997.44 L 6657.44,6043.74 L 7114.98,6307.93 Z " />
<path stroke="transparent" fill="#000000" transform="matrix(0.0666667 0 0 0.0666667 -17.3333 -161.333)" d="M 7629.62,6010.81 L 7639.62,6028.13 L 7124.98,6325.25 L 7114.98,6319.47 L 7114.98,6307.93 L 7629.62,6010.81 Z " />
<path stroke="transparent" fill="#000000" transform="matrix(0.0666667 0 0 0.0666667 -17.3333 -161.333)" d="M 7124.98,6919.47 L 7104.98,6919.47 L 7104.98,6325.25 L 7114.98,6319.47 L 7124.98,6325.25 L 7124.98,6919.47 Z " />
<path stroke="transparent" fill="#000000" transform="matrix(0.0666667 0 0 0.0666667 -17.3333 -161.333)" d="M 7114.98,5107.93 L 7114.98,5131.02 L 6605.88,5424.98 L 6595.42,5419.47 L 6595.42,5407.93 L 7114.98,5107.93 Z " />
<path stroke="transparent" fill="#000000" transform="matrix(0.0666667 0 0 0.0666667 -17.3333 -161.333)" d="M 7068.98,4639.31 L 7088.98,4639.31 L 7088.98,5140.26 L 7068.98,5140.26 L 7068.98,4639.31 Z " />
<path stroke="transparent" fill="#000000" transform="matrix(0.0666667 0 0 0.0666667 -17.3333 -161.333)" d="M 7140.98,4639.31 L 7160.98,4639.31 L 7160.98,5140.26 L 7140.98,5140.26 L 7140.98,4639.31 Z " />
<path stroke="transparent" fill="#000000" transform="matrix(0.0666667 0 0 0.0666667 -17.3333 -161.333)" d="M 7535.77,5350.86 L 7525.77,5368.18 L 7114.98,5131.02 L 7114.98,5107.93 L 7535.77,5350.86 Z " />
<path stroke="transparent" fill="#000000" transform="matrix(0.0666667 0 0 0.0666667 -17.3333 -161.333)" d="M 8143.79,5113.96 L 8154.25,5119.47 L 8154.25,5131.02 L 7743.47,5368.18 L 7733.47,5350.86 L 8143.79,5113.96 Z " />
<path stroke="transparent" fill="#000000" transform="matrix(0.0666667 0 0 0.0666667 -17.3333 -161.333)" d="M 8094.25,4519.47 L 8214.25,4519.47 L 8164.71,5113.96 L 8154.25,5119.47 L 8143.79,5113.96 L 8094.25,4519.47 Z " />
<path stroke="transparent" fill="#000000" transform="matrix(0.0666667 0 0 0.0666667 -17.3333 -161.333)" d="M 8673.89,5407.93 L 8673.89,5431.02 L 8154.25,5131.02 L 8154.25,5119.47 L 8164.71,5113.96 L 8673.89,5407.93 Z " />
<path stroke="transparent" fill="#000000" transform="matrix(0.0666667 0 0 0.0666667 -17.3333 -161.333)" d="M 8719.89,5914.31 L 8699.89,5914.31 L 8699.89,5398.69 L 8719.89,5398.69 L 8719.89,5914.31 Z " />
<path stroke="transparent" fill="#000000" transform="matrix(0.0666667 0 0 0.0666667 -17.3333 -161.333)" d="M 8647.89,5914.31 L 8627.89,5914.31 L 8627.89,5398.69 L 8647.89,5398.69 L 8647.89,5914.31 Z " />
<path stroke="transparent" fill="#000000" transform="matrix(0.0666667 0 0 0.0666667 -17.3333 -161.333)" d="M 9078.33,5174.4 L 9088.33,5191.72 L 8673.89,5431.02 L 8673.89,5407.93 L 9078.33,5174.4 Z " />
<path stroke="transparent" fill="#000000" transform="matrix(0.0666667 0 0 0.0666667 -17.3333 -161.333)" d="M 9713.09,5407.93 L 9713.09,5419.47 L 9702.63,5424.98 L 9298.58,5191.71 L 9308.58,5174.39 L 9713.09,5407.93 Z " />
<path stroke="transparent" fill="#000000" transform="matrix(0.0666667 0 0 0.0666667 -17.3333 -161.333)" d="M 9775.11,6043.73 L 9713.09,6019.47 L 9651.07,6043.73 L 9702.63,5424.98 L 9713.09,5419.47 L 9723.55,5424.98 L 9775.11,6043.73 Z " />
<path stroke="transparent" fill="#000000" transform="matrix(0.0666667 0 0 0.0666667 -17.3333 -161.333)" d="M 9198.45,6328.13 L 9188.45,6310.81 L 9651.07,6043.73 L 9713.09,6019.47 L 9713.09,6031.02 L 9198.45,6328.13 Z " />
<path stroke="transparent" fill="#000000" transform="matrix(0.0666667 0 0 0.0666667 -17.3333 -161.333)" d="M 10237.7,6310.81 L 10227.7,6328.13 L 9713.09,6031.02 L 9713.09,6019.47 L 9775.11,6043.73 L 10237.7,6310.81 Z " />
<path stroke="transparent" fill="#000000" transform="matrix(0.0666667 0 0 0.0666667 -17.3333 -161.333)" d="M 10232.7,5107.93 L 10232.7,5131.02 L 9723.55,5424.98 L 9713.09,5419.47 L 9713.09,5407.93 L 10232.7,5107.93 Z " />
<path stroke="transparent" fill="#000000" transform="matrix(0.0666667 0 0 0.0666667 -17.3333 -161.333)" d="M 10186.7,4639.31 L 10206.7,4639.31 L 10206.7,5140.26 L 10186.7,5140.26 L 10186.7,4639.31 Z " />
<path stroke="transparent" fill="#000000" transform="matrix(0.0666667 0 0 0.0666667 -17.3333 -161.333)" d="M 10258.7,4639.31 L 10278.7,4639.31 L 10278.7,5140.26 L 10258.7,5140.26 L 10258.7,4639.31 Z " />
<path stroke="transparent" fill="#000000" transform="matrix(0.0666667 0 0 0.0666667 -17.3333 -161.333)" d="M 10653.4,5350.85 L 10643.4,5368.17 L 10232.7,5131.02 L 10232.7,5107.93 L 10653.4,5350.85 Z " />
<path stroke="transparent" fill="#000000" transform="matrix(0.0666667 0 0 0.0666667 -17.3333 -161.333)" d="M 11261.5,5113.96 L 11271.9,5119.47 L 11271.9,5131.02 L 10861.1,5368.18 L 10851.1,5350.86 L 11261.5,5113.96 Z " />
<path stroke="transparent" fill="#000000" transform="matrix(0.0666667 0 0 0.0666667 -17.3333 -161.333)" d="M 11209.9,4495.21 L 11271.9,4519.47 L 11333.9,4495.21 L 11282.4,5113.96 L 11271.9,5119.47 L 11261.5,5113.96 L 11209.9,4495.21 Z " />
<path stroke="transparent" fill="#000000" transform="matrix(0.0666667 0 0 0.0666667 -17.3333 -161.333)" d="M 10747.3,4228.13 L 10757.3,4210.81 L 11271.9,4507.93 L 11271.9,4519.47 L 11209.9,4495.21 L 10747.3,4228.13 Z " />
<path stroke="transparent" fill="#000000" transform="matrix(0.0666667 0 0 0.0666667 -17.3333 -161.333)" d="M 11786.6,4210.81 L 11796.6,4228.13 L 11333.9,4495.21 L 11271.9,4519.47 L 11271.9,4507.93 L 11786.6,4210.81 Z " />
<path stroke="transparent" fill="#000000" transform="matrix(0.0666667 0 0 0.0666667 -17.3333 -161.333)" d="M 11791.6,5407.93 L 11791.6,5431.02 L 11271.9,5131.02 L 11271.9,5119.47 L 11282.4,5113.96 L 11791.6,5407.93 Z " />
<path stroke="transparent" fill="#000000" transform="matrix(0.0666667 0 0 0.0666667 -17.3333 -161.333)" d="M 11837.6,5914.31 L 11817.6,5914.31 L 11817.6,5398.69 L 11837.6,5398.69 L 11837.6,5914.31 Z " />
<path stroke="transparent" fill="#000000" transform="matrix(0.0666667 0 0 0.0666667 -17.3333 -161.333)" d="M 11765.6,5914.31 L 11745.6,5914.31 L 11745.6,5398.69 L 11765.6,5398.69 L 11765.6,5914.31 Z " />
<path stroke="transparent" fill="#000000" transform="matrix(0.0666667 0 0 0.0666667 -17.3333 -161.333)" d="M 12196.1,5174.39 L 12206.1,5191.71 L 11791.6,5431.02 L 11791.6,5407.93 L 12196.1,5174.39 Z " />
<path stroke="transparent" fill="#000000" transform="matrix(0.0666667 0 0 0.0666667 -17.3333 -161.333)" d="M 12830.8,5407.93 L 12830.8,5431.02 L 12416.3,5191.72 L 12426.3,5174.4 L 12830.8,5407.93 Z " />
<path stroke="transparent" fill="#000000" transform="matrix(0.0666667 0 0 0.0666667 -17.3333 -161.333)" d="M 12890.8,5965.47 L 12770.8,5965.47 L 12772.8,5945.47 L 12888.7,5945.47 L 12890.8,5965.47 Z " />
<path stroke="transparent" fill="#000000" transform="matrix(0.0666667 0 0 0.0666667 -17.3333 -161.333)" d="M 12884.8,5906.47 L 12776.8,5906.47 L 12778.8,5886.47 L 12882.7,5886.47 L 12884.8,5906.47 Z " />
<path stroke="transparent" fill="#000000" transform="matrix(0.0666667 0 0 0.0666667 -17.3333 -161.333)" d="M 12878.8,5847.47 L 12782.8,5847.47 L 12784.8,5827.47 L 12876.7,5827.47 L 12878.8,5847.47 Z " />
<path stroke="transparent" fill="#000000" transform="matrix(0.0666667 0 0 0.0666667 -17.3333 -161.333)" d="M 12872.8,5788.47 L 12788.7,5788.47 L 12790.8,5768.47 L 12870.7,5768.47 L 12872.8,5788.47 Z " />
<path stroke="transparent" fill="#000000" transform="matrix(0.0666667 0 0 0.0666667 -17.3333 -161.333)" d="M 12866.8,5729.47 L 12794.7,5729.47 L 12796.8,5709.47 L 12864.7,5709.47 L 12866.8,5729.47 Z " />
<path stroke="transparent" fill="#000000" transform="matrix(0.0666667 0 0 0.0666667 -17.3333 -161.333)" d="M 12860.8,5670.47 L 12800.7,5670.47 L 12802.8,5650.47 L 12858.7,5650.47 L 12860.8,5670.47 Z " />
<path stroke="transparent" fill="#000000" transform="matrix(0.0666667 0 0 0.0666667 -17.3333 -161.333)" d="M 12854.8,5611.47 L 12806.7,5611.47 L 12808.8,5591.47 L 12852.8,5591.47 L 12854.8,5611.47 Z " />
<path stroke="transparent" fill="#000000" transform="matrix(0.0666667 0 0 0.0666667 -17.3333 -161.333)" d="M 12848.8,5552.47 L 12812.7,5552.47 L 12814.8,5532.47 L 12846.8,5532.47 L 12848.8,5552.47 Z " />
<path stroke="transparent" fill="#000000" transform="matrix(0.0666667 0 0 0.0666667 -17.3333 -161.333)" d="M 12842.8,5493.47 L 12818.7,5493.47 L 12820.8,5473.47 L 12840.8,5473.47 L 12842.8,5493.47 Z " />
<path stroke="transparent" fill="#000000" transform="matrix(0.0666667 0 0 0.0666667 -17.3333 -161.333)" d="M 12316.2,6328.13 L 12306.2,6310.81 L 12830.8,6007.93 L 12830.8,6031.02 L 12316.2,6328.13 Z " />
<path stroke="transparent" fill="#000000" transform="matrix(0.0666667 0 0 0.0666667 -17.3333 -161.333)" d="M 13355.4,6310.81 L 13345.4,6328.13 L 12830.8,6031.02 L 12830.8,6007.93 L 13355.4,6310.81 Z " />
<path stroke="transparent" fill="#000000" transform="matrix(0.0666667 0 0 0.0666667 -17.3333 -161.333)" d="M 13350.4,5107.93 L 13350.4,5131.02 L 12830.8,5431.02 L 12830.8,5407.93 L 13350.4,5107.93 Z " />
<path stroke="transparent" fill="#000000" transform="matrix(0.0666667 0 0 0.0666667 -17.3333 -161.333)" d="M 13304.4,4639.31 L 13324.4,4639.31 L 13324.4,5140.26 L 13304.4,5140.26 L 13304.4,4639.31 Z " />
<path stroke="transparent" fill="#000000" transform="matrix(0.0666667 0 0 0.0666667 -17.3333 -161.333)" d="M 13376.4,4639.31 L 13396.4,4639.31 L 13396.4,5140.26 L 13376.4,5140.26 L 13376.4,4639.31 Z " />
<path stroke="transparent" fill="#000000" transform="matrix(0.0666667 0 0 0.0666667 -17.3333 -161.333)" d="M 13771.2,5350.86 L 13761.2,5368.18 L 13350.4,5131.02 L 13350.4,5107.93 L 13771.2,5350.86 Z " />
<path stroke="transparent" fill="#000000" transform="matrix(0.0666667 0 0 0.0666667 -17.3333 -161.333)" d="M 14379.1,5113.96 L 14389.6,5119.47 L 14389.6,5131.02 L 13978.9,5368.17 L 13968.9,5350.85 L 14379.1,5113.96 Z " />
<path stroke="transparent" fill="#000000" transform="matrix(0.0666667 0 0 0.0666667 -17.3333 -161.333)" d="M 14331.4,4541.51 L 14451.6,4495.21 L 14400.1,5113.96 L 14389.6,5119.47 L 14379.1,5113.96 L 14331.4,4541.51 Z " />
<path stroke="transparent" fill="#000000" transform="matrix(0.0666667 0 0 0.0666667 -17.3333 -161.333)" d="M 14899.8,4213.36 L 14909.2,4219.47 L 14909.8,4230.68 L 14451.6,4495.21 L 14331.4,4541.51 L 14899.8,4213.36 Z " />
<path stroke="transparent" fill="#000000" transform="matrix(0.0666667 0 0 0.0666667 -17.3333 -161.333)" d="M 15454.8,4451.45 L 15459.9,4475.64 L 14909.8,4230.68 L 14909.2,4219.47 L 14919.9,4213.29 L 15454.8,4451.45 Z " />
<path stroke="transparent" fill="#000000" transform="matrix(0.0666667 0 0 0.0666667 -17.3333 -161.333)" d="M 15442.9,4367.35 L 15434.8,4385.62 L 14982.2,4184.11 L 14990.4,4165.84 L 15442.9,4367.35 Z " />
<path stroke="transparent" fill="#000000" transform="matrix(0.0666667 0 0 0.0666667 -17.3333 -161.333)" d="M 15761.2,4111.16 L 15776.1,4124.54 L 15459.9,4475.64 L 15454.8,4451.45 L 15761.2,4111.16 Z " />
<path stroke="transparent" fill="#000000" transform="matrix(0.0666667 0 0 0.0666667 -17.3333 -161.333)" d="M 15553.8,3509.31 L 15558.8,3498.02 L 15569.7,3496.87 L 15806.3,3906.64 L 15789,3916.64 L 15553.8,3509.31 Z " />
<path stroke="transparent" fill="#000000" transform="matrix(0.0666667 0 0 0.0666667 -17.3333 -161.333)" d="M 15733,2929.8 L 15755.6,2925 L 15569.7,3496.87 L 15558.8,3498.02 L 15551.1,3489.44 L 15733,2929.8 Z " />
<path stroke="transparent" fill="#000000" transform="matrix(0.0666667 0 0 0.0666667 -17.3333 -161.333)" d="M 15653.5,2941.59 L 15672.5,2947.78 L 15512.7,3439.32 L 15493.7,3433.14 L 15653.5,2941.59 Z " />
<path stroke="transparent" fill="#000000" transform="matrix(0.0666667 0 0 0.0666667 -17.3333 -161.333)" d="M 15339.2,2492.49 L 15346.3,2470.53 L 15755.6,2925 L 15733,2929.8 L 15339.2,2492.49 Z " />
<path stroke="transparent" fill="#000000" transform="matrix(0.0666667 0 0 0.0666667 -17.3333 -161.333)" d="M 14763.6,2614.82 L 14748.2,2597.66 L 15346.3,2470.53 L 15339.2,2492.49 L 14763.6,2614.82 Z " />
<path stroke="transparent" fill="#000000" transform="matrix(0.0666667 0 0 0.0666667 -17.3333 -161.333)" d="M 14813.6,2677.8 L 14809.5,2658.23 L 15315,2550.79 L 15319.2,2570.35 L 14813.6,2677.8 Z " />
<path stroke="transparent" fill="#000000" transform="matrix(0.0666667 0 0 0.0666667 -17.3333 -161.333)" d="M 14581.8,3174.45 L 14559.2,3179.25 L 14748.2,2597.66 L 14763.6,2614.82 L 14581.8,3174.45 Z " />
<path stroke="transparent" fill="#000000" transform="matrix(0.0666667 0 0 0.0666667 -17.3333 -161.333)" d="M 14975.5,3611.76 L 14971.9,3622.75 L 14961.5,3626.13 L 14559.2,3179.25 L 14581.8,3174.45 L 14975.5,3611.76 Z " />
<path stroke="transparent" fill="#000000" transform="matrix(0.0666667 0 0 0.0666667 -17.3333 -161.333)" d="M 15005,3536.99 L 14990.2,3550.37 L 14644.4,3166.27 L 14659.2,3152.88 L 15005,3536.99 Z " />
<path stroke="transparent" fill="#000000" transform="matrix(0.0666667 0 0 0.0666667 -17.3333 -161.333)" d="M 14981.1,3631.02 L 14971.9,3622.75 L 14975.5,3611.76 L 15551.1,3489.44 L 15558.8,3498.02 L 15553.8,3509.31 L 14981.1,3631.02 Z " />
<path stroke="transparent" fill="#000000" transform="matrix(0.0666667 0 0 0.0666667 -17.3333 -161.333)" d="M 14961.5,3626.13 L 14971.9,3622.75 L 14981.1,3631.02 L 14919.9,4213.29 L 14909.2,4219.47 L 14899.8,4213.36 L 14961.5,3626.13 Z " />
<path stroke="transparent" fill="#000000" transform="matrix(0.0666667 0 0 0.0666667 -17.3333 -161.333)" d="M 14909.2,5407.93 L 14909.2,5431.02 L 14389.6,5131.02 L 14389.6,5119.47 L 14400.1,5113.96 L 14909.2,5407.93 Z " />
<path stroke="transparent" fill="#000000" transform="matrix(0.0666667 0 0 0.0666667 -17.3333 -161.333)" d="M 14955.2,5914.31 L 14935.2,5914.31 L 14935.2,5398.69 L 14955.2,5398.69 L 14955.2,5914.31 Z " />
<path stroke="transparent" fill="#000000" transform="matrix(0.0666667 0 0 0.0666667 -17.3333 -161.333)" d="M 14883.2,5914.31 L 14863.2,5914.31 L 14863.2,5398.69 L 14883.2,5398.69 L 14883.2,5914.31 Z " />
<path stroke="transparent" fill="#000000" transform="matrix(0.0666667 0 0 0.0666667 -17.3333 -161.333)" d="M 15313.7,5174.39 L 15323.7,5191.71 L 14909.2,5431.02 L 14909.2,5407.93 L 15313.7,5174.39 Z " />
<path stroke="transparent" fill="#000000" transform="matrix(0.0666667 0 0 0.0666667 -17.3333 -161.333)" d="M 15948.5,5407.93 L 15948.5,5419.47 L 15938,5424.98 L 15534,5191.71 L 15544,5174.39 L 15948.5,5407.93 Z " />
<path stroke="transparent" fill="#000000" transform="matrix(0.0666667 0 0 0.0666667 -17.3333 -161.333)" d="M 16010.5,6043.74 L 15890.3,5997.44 L 15938,5424.98 L 15948.5,5419.47 L 15959,5424.98 L 16010.5,6043.74 Z " />
<path stroke="transparent" fill="#000000" transform="matrix(0.0666667 0 0 0.0666667 -17.3333 -161.333)" d="M 16468.1,6307.93 L 16468.1,6319.47 L 16458.1,6325.25 L 15890.3,5997.44 L 16010.5,6043.74 L 16468.1,6307.93 Z " />
<path stroke="transparent" fill="#000000" transform="matrix(0.0666667 0 0 0.0666667 -17.3333 -161.333)" d="M 16982.7,6010.81 L 16992.7,6028.13 L 16478.1,6325.25 L 16468.1,6319.47 L 16468.1,6307.93 L 16982.7,6010.81 Z " />
<path stroke="transparent" fill="#000000" transform="matrix(0.0666667 0 0 0.0666667 -17.3333 -161.333)" d="M 16478.1,6919.47 L 16458.1,6919.47 L 16458.1,6325.25 L 16468.1,6319.47 L 16478.1,6325.25 L 16478.1,6919.47 Z " />
<path stroke="transparent" fill="#000000" transform="matrix(0.0666667 0 0 0.0666667 -17.3333 -161.333)" d="M 16468.1,5107.93 L 16468.1,5131.02 L 15959,5424.98 L 15948.5,5419.47 L 15948.5,5407.93 L 16468.1,5107.93 Z " />
<path stroke="transparent" fill="#000000" transform="matrix(0.0666667 0 0 0.0666667 -17.3333 -161.333)" d="M 16422.1,4639.31 L 16442.1,4639.31 L 16442.1,5140.26 L 16422.1,5140.26 L 16422.1,4639.31 Z " />
<path stroke="transparent" fill="#000000" transform="matrix(0.0666667 0 0 0.0666667 -17.3333 -161.333)" d="M 16494.1,4639.31 L 16514.1,4639.31 L 16514.1,5140.26 L 16494.1,5140.26 L 16494.1,4639.31 Z " />
<path stroke="transparent" fill="#000000" transform="matrix(0.0666667 0 0 0.0666667 -17.3333 -161.333)" d="M 16888.9,5350.86 L 16878.9,5368.18 L 16468.1,5131.02 L 16468.1,5107.93 L 16888.9,5350.86 Z " />
<path stroke="transparent" fill="#000000" transform="matrix(0.0666667 0 0 0.0666667 -17.3333 -161.333)" d="M 17496.9,5113.96 L 17507.3,5119.47 L 17507.3,5131.02 L 17096.6,5368.18 L 17086.6,5350.86 L 17496.9,5113.96 Z " />
<path stroke="transparent" fill="#000000" transform="matrix(0.0666667 0 0 0.0666667 -17.3333 -161.333)" d="M 17449.2,4541.51 L 17569.4,4495.21 L 17517.8,5113.96 L 17507.3,5119.47 L 17496.9,5113.96 L 17449.2,4541.51 Z " />
<path stroke="transparent" fill="#000000" transform="matrix(0.0666667 0 0 0.0666667 -17.3333 -161.333)" d="M 18017.5,4213.36 L 18026.9,4219.47 L 18027.5,4230.68 L 17569.4,4495.21 L 17449.2,4541.51 L 18017.5,4213.36 Z " />
<path stroke="transparent" fill="#000000" transform="matrix(0.0666667 0 0 0.0666667 -17.3333 -161.333)" d="M 18572.5,4451.45 L 18577.6,4475.64 L 18027.5,4230.68 L 18026.9,4219.47 L 18037.6,4213.29 L 18572.5,4451.45 Z " />
<path stroke="transparent" fill="#000000" transform="matrix(0.0666667 0 0 0.0666667 -17.3333 -161.333)" d="M 18560.6,4367.35 L 18552.5,4385.62 L 18099.9,4184.11 L 18108.1,4165.84 L 18560.6,4367.35 Z " />
<path stroke="transparent" fill="#000000" transform="matrix(0.0666667 0 0 0.0666667 -17.3333 -161.333)" d="M 18878.9,4111.16 L 18893.7,4124.54 L 18577.6,4475.64 L 18572.5,4451.45 L 18878.9,4111.16 Z " />
<path stroke="transparent" fill="#000000" transform="matrix(0.0666667 0 0 0.0666667 -17.3333 -161.333)" d="M 18671.5,3509.31 L 18676.5,3498.02 L 18687.4,3496.87 L 18924,3906.64 L 18906.6,3916.64 L 18671.5,3509.31 Z " />
<path stroke="transparent" fill="#000000" transform="matrix(0.0666667 0 0 0.0666667 -17.3333 -161.333)" d="M 18850.7,2929.8 L 18873.3,2925 L 18687.4,3496.87 L 18676.5,3498.02 L 18668.8,3489.44 L 18850.7,2929.8 Z " />
<path stroke="transparent" fill="#000000" transform="matrix(0.0666667 0 0 0.0666667 -17.3333 -161.333)" d="M 18771.1,2941.59 L 18790.1,2947.77 L 18630.4,3439.32 L 18611.4,3433.14 L 18771.1,2941.59 Z " />
<path stroke="transparent" fill="#000000" transform="matrix(0.0666667 0 0 0.0666667 -17.3333 -161.333)" d="M 18456.9,2492.49 L 18464.1,2470.53 L 18873.3,2925 L 18850.7,2929.8 L 18456.9,2492.49 Z " />
<path stroke="transparent" fill="#000000" transform="matrix(0.0666667 0 0 0.0666667 -17.3333 -161.333)" d="M 17881.3,2614.82 L 17865.9,2597.65 L 18464.1,2470.53 L 18456.9,2492.49 L 17881.3,2614.82 Z " />
<path stroke="transparent" fill="#000000" transform="matrix(0.0666667 0 0 0.0666667 -17.3333 -161.333)" d="M 17931.3,2677.81 L 17927.1,2658.24 L 18432.7,2550.8 L 18436.9,2570.36 L 17931.3,2677.81 Z " />
<path stroke="transparent" fill="#000000" transform="matrix(0.0666667 0 0 0.0666667 -17.3333 -161.333)" d="M 17699.4,3174.45 L 17676.8,3179.26 L 17865.9,2597.65 L 17881.3,2614.82 L 17699.4,3174.45 Z " />
<path stroke="transparent" fill="#000000" transform="matrix(0.0666667 0 0 0.0666667 -17.3333 -161.333)" d="M 18093.2,3611.76 L 18089.7,3622.75 L 18079.3,3626.13 L 17676.8,3179.26 L 17699.4,3174.45 L 18093.2,3611.76 Z " />
<path stroke="transparent" fill="#000000" transform="matrix(0.0666667 0 0 0.0666667 -17.3333 -161.333)" d="M 18122.8,3536.98 L 18107.9,3550.36 L 17762,3166.26 L 17776.9,3152.88 L 18122.8,3536.98 Z " />
<path stroke="transparent" fill="#000000" transform="matrix(0.0666667 0 0 0.0666667 -17.3333 -161.333)" d="M 18098.9,3631.02 L 18089.7,3622.75 L 18093.2,3611.76 L 18668.8,3489.44 L 18676.5,3498.02 L 18671.5,3509.31 L 18098.9,3631.02 Z " />
<path stroke="transparent" fill="#000000" transform="matrix(0.0666667 0 0 0.0666667 -17.3333 -161.333)" d="M 18079.3,3626.13 L 18089.7,3622.75 L 18098.9,3631.02 L 18037.6,4213.29 L 18026.9,4219.47 L 18017.5,4213.36 L 18079.3,3626.13 Z " />
<path stroke="transparent" fill="#000000" transform="matrix(0.0666667 0 0 0.0666667 -17.3333 -161.333)" d="M 18026.9,5407.93 L 18026.9,5431.02 L 17507.3,5131.02 L 17507.3,5119.47 L 17517.8,5113.96 L 18026.9,5407.93 Z " />
<path stroke="transparent" fill="#000000" transform="matrix(0.0666667 0 0 0.0666667 -17.3333 -161.333)" d="M 18072.9,5914.31 L 18052.9,5914.31 L 18052.9,5398.69 L 18072.9,5398.69 L 18072.9,5914.31 Z " />
<path stroke="transparent" fill="#000000" transform="matrix(0.0666667 0 0 0.0666667 -17.3333 -161.333)" d="M 18000.9,5914.31 L 17980.9,5914.31 L 17980.9,5398.69 L 18000.9,5398.69 L 18000.9,5914.31 Z " />
<path stroke="transparent" fill="#000000" transform="matrix(0.0666667 0 0 0.0666667 -17.3333 -161.333)" d="M 18431.4,5174.39 L 18441.4,5191.71 L 18026.9,5431.02 L 18026.9,5407.93 L 18431.4,5174.39 Z " />
<path stroke="transparent" fill="#000000" transform="matrix(0.0666667 0 0 0.0666667 -17.3333 -161.333)" d="M 19066.2,5407.93 L 19066.2,5419.47 L 19055.7,5424.98 L 18651.7,5191.71 L 18661.7,5174.39 L 19066.2,5407.93 Z " />
<path stroke="transparent" fill="#000000" transform="matrix(0.0666667 0 0 0.0666667 -17.3333 -161.333)" d="M 19128.2,6043.73 L 19008,5997.44 L 19055.7,5424.98 L 19066.2,5419.47 L 19076.6,5424.98 L 19128.2,6043.73 Z " />
<path stroke="transparent" fill="#000000" transform="matrix(0.0666667 0 0 0.0666667 -17.3333 -161.333)" d="M 19585.8,6307.93 L 19585.8,6319.47 L 19575.8,6325.25 L 19008,5997.44 L 19128.2,6043.73 L 19585.8,6307.93 Z " />
<path stroke="transparent" fill="#000000" transform="matrix(0.0666667 0 0 0.0666667 -17.3333 -161.333)" d="M 20100.4,6010.81 L 20110.4,6028.13 L 19595.8,6325.25 L 19585.8,6319.47 L 19585.8,6307.93 L 20100.4,6010.81 Z " />
<path stroke="transparent" fill="#000000" transform="matrix(0.0666667 0 0 0.0666667 -17.3333 -161.333)" d="M 19595.8,6919.47 L 19575.8,6919.47 L 19575.8,6325.25 L 19585.8,6319.47 L 19595.8,6325.25 L 19595.8,6919.47 Z " />
<path stroke="transparent" fill="#000000" transform="matrix(0.0666667 0 0 0.0666667 -17.3333 -161.333)" d="M 19585.8,5107.93 L 19585.8,5131.02 L 19076.6,5424.98 L 19066.2,5419.47 L 19066.2,5407.93 L 19585.8,5107.93 Z " />
<path stroke="transparent" fill="#000000" transform="matrix(0.0666667 0 0 0.0666667 -17.3333 -161.333)" d="M 19539.8,4639.31 L 19559.8,4639.31 L 19559.8,5140.26 L 19539.8,5140.26 L 19539.8,4639.31 Z " />
<path stroke="transparent" fill="#000000" transform="matrix(0.0666667 0 0 0.0666667 -17.3333 -161.333)" d="M 19611.8,4639.31 L 19631.8,4639.31 L 19631.8,5140.26 L 19611.8,5140.26 L 19611.8,4639.31 Z " />
<path stroke="transparent" fill="#000000" transform="matrix(0.0666667 0 0 0.0666667 -17.3333 -161.333)" d="M 20006.5,5350.85 L 19996.5,5368.17 L 19585.8,5131.02 L 19585.8,5107.93 L 20006.5,5350.85 Z " />
<path stroke="transparent" fill="#000000" transform="matrix(0.0666667 0 0 0.0666667 -17.3333 -161.333)" d="M 20614.6,5113.96 L 20625,5119.47 L 20625,5131.02 L 20214.2,5368.18 L 20204.2,5350.86 L 20614.6,5113.96 Z " />
<path stroke="transparent" fill="#000000" transform="matrix(0.0666667 0 0 0.0666667 -17.3333 -161.333)" d="M 20566.8,4541.51 L 20687,4495.21 L 20635.5,5113.96 L 20625,5119.47 L 20614.6,5113.96 L 20566.8,4541.51 Z " />
<path stroke="transparent" fill="#000000" transform="matrix(0.0666667 0 0 0.0666667 -17.3333 -161.333)" d="M 21135.2,4213.36 L 21144.7,4219.47 L 21145.2,4230.68 L 20687,4495.21 L 20566.8,4541.51 L 21135.2,4213.36 Z " />
<path stroke="transparent" fill="#000000" transform="matrix(0.0666667 0 0 0.0666667 -17.3333 -161.333)" d="M 21690.2,4451.45 L 21695.3,4475.64 L 21145.2,4230.68 L 21144.7,4219.47 L 21155.4,4213.29 L 21690.2,4451.45 Z " />
<path stroke="transparent" fill="#000000" transform="matrix(0.0666667 0 0 0.0666667 -17.3333 -161.333)" d="M 21678.3,4367.36 L 21670.2,4385.63 L 21217.6,4184.12 L 21225.8,4165.85 L 21678.3,4367.36 Z " />
<path stroke="transparent" fill="#000000" transform="matrix(0.0666667 0 0 0.0666667 -17.3333 -161.333)" d="M 21996.6,4111.15 L 22011.5,4124.53 L 21695.3,4475.64 L 21690.2,4451.45 L 21996.6,4111.15 Z " />
<path stroke="transparent" fill="#000000" transform="matrix(0.0666667 0 0 0.0666667 -17.3333 -161.333)" d="M 21789.2,3509.31 L 21794.3,3498.02 L 21805.1,3496.87 L 22041.7,3906.64 L 22024.4,3916.64 L 21789.2,3509.31 Z " />
<path stroke="transparent" fill="#000000" transform="matrix(0.0666667 0 0 0.0666667 -17.3333 -161.333)" d="M 21968.3,2929.8 L 21990.9,2925 L 21805.1,3496.87 L 21794.3,3498.02 L 21786.5,3489.44 L 21968.3,2929.8 Z " />
<path stroke="transparent" fill="#000000" transform="matrix(0.0666667 0 0 0.0666667 -17.3333 -161.333)" d="M 21888.8,2941.59 L 21907.8,2947.77 L 21748.1,3439.32 L 21729.1,3433.15 L 21888.8,2941.59 Z " />
<path stroke="transparent" fill="#000000" transform="matrix(0.0666667 0 0 0.0666667 -17.3333 -161.333)" d="M 21574.6,2492.49 L 21581.7,2470.53 L 21990.9,2925 L 21968.3,2929.8 L 21574.6,2492.49 Z " />
<path stroke="transparent" fill="#000000" transform="matrix(0.0666667 0 0 0.0666667 -17.3333 -161.333)" d="M 20999,2614.82 L 20983.5,2597.66 L 21581.7,2470.53 L 21574.6,2492.49 L 20999,2614.82 Z " />
<path stroke="transparent" fill="#000000" transform="matrix(0.0666667 0 0 0.0666667 -17.3333 -161.333)" d="M 21049,2677.8 L 21044.8,2658.24 L 21550.4,2550.8 L 21554.6,2570.36 L 21049,2677.8 Z " />
<path stroke="transparent" fill="#000000" transform="matrix(0.0666667 0 0 0.0666667 -17.3333 -161.333)" d="M 20817.2,3174.45 L 20794.6,3179.26 L 20983.5,2597.66 L 20999,2614.82 L 20817.2,3174.45 Z " />
<path stroke="transparent" fill="#000000" transform="matrix(0.0666667 0 0 0.0666667 -17.3333 -161.333)" d="M 21210.9,3611.76 L 21207.3,3622.75 L 21196.9,3626.13 L 20794.6,3179.26 L 20817.2,3174.45 L 21210.9,3611.76 Z " />
<path stroke="transparent" fill="#000000" transform="matrix(0.0666667 0 0 0.0666667 -17.3333 -161.333)" d="M 21240.5,3536.99 L 21225.6,3550.37 L 20879.8,3166.26 L 20894.6,3152.88 L 21240.5,3536.99 Z " />
<path stroke="transparent" fill="#000000" transform="matrix(0.0666667 0 0 0.0666667 -17.3333 -161.333)" d="M 21216.5,3631.02 L 21207.3,3622.75 L 21210.9,3611.76 L 21786.5,3489.44 L 21794.3,3498.02 L 21789.2,3509.31 L 21216.5,3631.02 Z " />
<path stroke="transparent" fill="#000000" transform="matrix(0.0666667 0 0 0.0666667 -17.3333 -161.333)" d="M 21196.9,3626.13 L 21207.3,3622.75 L 21216.5,3631.02 L 21155.4,4213.29 L 21144.7,4219.47 L 21135.2,4213.36 L 21196.9,3626.13 Z " />
<path stroke="transparent" fill="#000000" transform="matrix(0.0666667 0 0 0.0666667 -17.3333 -161.333)" d="M 21144.6,5407.93 L 21144.7,5431.02 L 20625,5131.02 L 20625,5119.47 L 20635.5,5113.96 L 21144.6,5407.93 Z " />
<path stroke="transparent" fill="#000000" transform="matrix(0.0666667 0 0 0.0666667 -17.3333 -161.333)" d="M 21190.7,5914.31 L 21170.7,5914.31 L 21170.7,5398.69 L 21190.7,5398.69 L 21190.7,5914.31 Z " />
<path stroke="transparent" fill="#000000" transform="matrix(0.0666667 0 0 0.0666667 -17.3333 -161.333)" d="M 21118.7,5914.31 L 21098.7,5914.31 L 21098.7,5398.69 L 21118.7,5398.69 L 21118.7,5914.31 Z " />
<path stroke="transparent" fill="#000000" transform="matrix(0.0666667 0 0 0.0666667 -17.3333 -161.333)" d="M 21549.1,5174.4 L 21559.1,5191.72 L 21144.7,5431.02 L 21144.6,5407.93 L 21549.1,5174.4 Z " />
<path stroke="transparent" fill="#000000" transform="matrix(0.0666667 0 0 0.0666667 -17.3333 -161.333)" d="M 22183.9,5407.93 L 22183.9,5419.47 L 22173.4,5424.98 L 21769.3,5191.71 L 21779.3,5174.39 L 22183.9,5407.93 Z " />
<path stroke="transparent" fill="#000000" transform="matrix(0.0666667 0 0 0.0666667 -17.3333 -161.333)" d="M 22245.9,6043.73 L 22125.7,5997.44 L 22173.4,5424.98 L 22183.9,5419.47 L 22194.3,5424.98 L 22245.9,6043.73 Z " />
<path stroke="transparent" fill="#000000" transform="matrix(0.0666667 0 0 0.0666667 -17.3333 -161.333)" d="M 22703.5,6307.93 L 22703.5,6319.47 L 22693.5,6325.25 L 22125.7,5997.44 L 22245.9,6043.73 L 22703.5,6307.93 Z " />
<path stroke="transparent" fill="#000000" transform="matrix(0.0666667 0 0 0.0666667 -17.3333 -161.333)" d="M 23218,6010.81 L 23228.1,6028.13 L 22713.5,6325.25 L 22703.5,6319.47 L 22703.5,6307.93 L 23218,6010.81 Z " />
<path stroke="transparent" fill="#000000" transform="matrix(0.0666667 0 0 0.0666667 -17.3333 -161.333)" d="M 22713.5,6919.47 L 22693.5,6919.47 L 22693.5,6325.25 L 22703.5,6319.47 L 22713.5,6325.25 L 22713.5,6919.47 Z " />
<path stroke="transparent" fill="#000000" transform="matrix(0.0666667 0 0 0.0666667 -17.3333 -161.333)" d="M 22703.5,5107.93 L 22703.5,5131.02 L 22194.3,5424.98 L 22183.9,5419.47 L 22183.9,5407.93 L 22703.5,5107.93 Z " />
<path stroke="transparent" fill="#000000" transform="matrix(0.0666667 0 0 0.0666667 -17.3333 -161.333)" d="M 22657.5,4639.31 L 22677.5,4639.31 L 22677.5,5140.26 L 22657.5,5140.26 L 22657.5,4639.31 Z " />
<path stroke="transparent" fill="#000000" transform="matrix(0.0666667 0 0 0.0666667 -17.3333 -161.333)" d="M 22729.5,4639.31 L 22749.5,4639.31 L 22749.5,5140.26 L 22729.5,5140.26 L 22729.5,4639.31 Z " />
<path stroke="transparent" fill="#000000" transform="matrix(0.0666667 0 0 0.0666667 -17.3333 -161.333)" d="M 23124.2,5350.85 L 23114.2,5368.17 L 22703.5,5131.02 L 22703.5,5107.93 L 23124.2,5350.85 Z " />
<path stroke="transparent" fill="#000000" transform="matrix(0.0666667 0 0 0.0666667 -17.3333 -161.333)" d="M 23732.2,5113.96 L 23742.7,5119.47 L 23742.7,5131.02 L 23331.9,5368.18 L 23321.9,5350.86 L 23732.2,5113.96 Z " />
<path stroke="transparent" fill="#000000" transform="matrix(0.0666667 0 0 0.0666667 -17.3333 -161.333)" d="M 23684.5,4541.51 L 23804.7,4495.21 L 23753.1,5113.96 L 23742.7,5119.47 L 23732.2,5113.96 L 23684.5,4541.51 Z " />
<path stroke="transparent" fill="#000000" transform="matrix(0.0666667 0 0 0.0666667 -17.3333 -161.333)" d="M 24252.9,4213.36 L 24262.3,4219.47 L 24262.9,4230.68 L 23804.7,4495.21 L 23684.5,4541.51 L 24252.9,4213.36 Z " />
<path stroke="transparent" fill="#000000" transform="matrix(0.0666667 0 0 0.0666667 -17.3333 -161.333)" d="M 24807.9,4451.45 L 24813,4475.64 L 24262.9,4230.68 L 24262.3,4219.47 L 24273,4213.29 L 24807.9,4451.45 Z " />
<path stroke="transparent" fill="#000000" transform="matrix(0.0666667 0 0 0.0666667 -17.3333 -161.333)" d="M 24796,4367.35 L 24787.9,4385.62 L 24335.3,4184.11 L 24343.5,4165.84 L 24796,4367.35 Z " />
<path stroke="transparent" fill="#000000" transform="matrix(0.0666667 0 0 0.0666667 -17.3333 -161.333)" d="M 25114.3,4111.16 L 25129.1,4124.54 L 24813,4475.64 L 24807.9,4451.45 L 25114.3,4111.16 Z " />
<path stroke="transparent" fill="#000000" transform="matrix(0.0666667 0 0 0.0666667 -17.3333 -161.333)" d="M 24906.9,3509.31 L 24911.9,3498.02 L 24922.8,3496.87 L 25159.4,3906.64 L 25142.1,3916.64 L 24906.9,3509.31 Z " />
<path stroke="transparent" fill="#000000" transform="matrix(0.0666667 0 0 0.0666667 -17.3333 -161.333)" d="M 25086,2929.8 L 25108.6,2925 L 24922.8,3496.87 L 24911.9,3498.02 L 24904.2,3489.44 L 25086,2929.8 Z " />
<path stroke="transparent" fill="#000000" transform="matrix(0.0666667 0 0 0.0666667 -17.3333 -161.333)" d="M 25006.5,2941.59 L 25025.5,2947.77 L 24865.8,3439.32 L 24846.8,3433.15 L 25006.5,2941.59 Z " />
<path stroke="transparent" fill="#000000" transform="matrix(0.0666667 0 0 0.0666667 -17.3333 -161.333)" d="M 24692.3,2492.49 L 24699.4,2470.53 L 25108.6,2925 L 25086,2929.8 L 24692.3,2492.49 Z " />
<path stroke="transparent" fill="#000000" transform="matrix(0.0666667 0 0 0.0666667 -17.3333 -161.333)" d="M 24116.7,2614.82 L 24101.2,2597.66 L 24699.4,2470.53 L 24692.3,2492.49 L 24116.7,2614.82 Z " />
<path stroke="transparent" fill="#000000" transform="matrix(0.0666667 0 0 0.0666667 -17.3333 -161.333)" d="M 24166.7,2677.81 L 24162.5,2658.24 L 24668.1,2550.8 L 24672.2,2570.36 L 24166.7,2677.81 Z " />
<path stroke="transparent" fill="#000000" transform="matrix(0.0666667 0 0 0.0666667 -17.3333 -161.333)" d="M 23934.9,3174.45 L 23912.3,3179.26 L 24101.2,2597.66 L 24116.7,2614.82 L 23934.9,3174.45 Z " />
<path stroke="transparent" fill="#000000" transform="matrix(0.0666667 0 0 0.0666667 -17.3333 -161.333)" d="M 24328.6,3611.76 L 24325,3622.75 L 24314.6,3626.13 L 23912.3,3179.26 L 23934.9,3174.45 L 24328.6,3611.76 Z " />
<path stroke="transparent" fill="#000000" transform="matrix(0.0666667 0 0 0.0666667 -17.3333 -161.333)" d="M 24358.1,3536.99 L 24343.3,3550.37 L 23997.4,3166.26 L 24012.3,3152.88 L 24358.1,3536.99 Z " />
<path stroke="transparent" fill="#000000" transform="matrix(0.0666667 0 0 0.0666667 -17.3333 -161.333)" d="M 24334.2,3631.02 L 24325,3622.75 L 24328.6,3611.76 L 24904.2,3489.44 L 24911.9,3498.02 L 24906.9,3509.31 L 24334.2,3631.02 Z " />
<path stroke="transparent" fill="#000000" transform="matrix(0.0666667 0 0 0.0666667 -17.3333 -161.333)" d="M 24314.6,3626.13 L 24325,3622.75 L 24334.2,3631.02 L 24273,4213.29 L 24262.3,4219.47 L 24252.9,4213.36 L 24314.6,3626.13 Z " />
<path stroke="transparent" fill="#000000" transform="matrix(0.0666667 0 0 0.0666667 -17.3333 -161.333)" d="M 24262.3,5407.93 L 24262.3,5431.02 L 23742.7,5131.02 L 23742.7,5119.47 L 23753.1,5113.96 L 24262.3,5407.93 Z " />
<path stroke="transparent" fill="#000000" transform="matrix(0.0666667 0 0 0.0666667 -17.3333 -161.333)" d="M 24308.3,5914.31 L 24288.3,5914.31 L 24288.3,5398.69 L 24308.3,5398.69 L 24308.3,5914.31 Z " />
<path stroke="transparent" fill="#000000" transform="matrix(0.0666667 0 0 0.0666667 -17.3333 -161.333)" d="M 24236.3,5914.31 L 24216.3,5914.31 L 24216.3,5398.69 L 24236.3,5398.69 L 24236.3,5914.31 Z " />
<path stroke="transparent" fill="#000000" transform="matrix(0.0666667 0 0 0.0666667 -17.3333 -161.333)" d="M 24666.8,5174.39 L 24676.8,5191.71 L 24262.3,5431.02 L 24262.3,5407.93 L 24666.8,5174.39 Z " />
<path stroke="transparent" fill="#000000" transform="matrix(0.0666667 0 0 0.0666667 -17.3333 -161.333)" d="M 25301.5,5407.93 L 25301.5,5431.02 L 24887.1,5191.72 L 24897.1,5174.4 L 25301.5,5407.93 Z " />
<path stroke="transparent" fill="#000000" transform="matrix(0.0666667 0 0 0.0666667 -17.3333 -161.333)" d="M 25821.2,5107.93 L 25821.2,5131.02 L 25301.5,5431.02 L 25301.5,5407.93 L 25821.2,5107.93 Z " />
<path stroke="transparent" fill="#000000" transform="matrix(0.0666667 0 0 0.0666667 -17.3333 -161.333)" d="M 26253.2,5357.34 L 26243.2,5374.66 L 25821.2,5131.02 L 25821.2,5107.93 L 26253.2,5357.34 Z " />
<path stroke="transparent" fill="#000000" transform="matrix(0.0666667 0 0 0.0666667 -17.3333 -161.333)" d="M 4625.79,5368.18 L 4615.79,5350.86 L 5026.12,5113.96 L 5036.58,5119.47 L 5036.58,5131.02 L 4625.79,5368.18 Z " />
<path stroke="transparent" fill="#000000" transform="matrix(0.0666667 0 0 0.0666667 -17.3333 -161.333)" d="M 3997.31,5131.02 L 3997.31,5107.93 L 4418.09,5350.86 L 4408.1,5368.18 L 3997.31,5131.02 Z " />
<path stroke="transparent" fill="#000000" transform="matrix(0.0666667 0 0 0.0666667 -17.3333 -161.333)" d="M 3951.31,4639.31 L 3971.31,4639.31 L 3971.31,5140.26 L 3951.31,5140.26 L 3951.31,4639.31 Z " />
<path stroke="transparent" fill="#000000" transform="matrix(0.0666667 0 0 0.0666667 -17.3333 -161.333)" d="M 4023.31,4639.31 L 4043.31,4639.31 L 4043.31,5140.26 L 4023.31,5140.26 L 4023.31,4639.31 Z " />
<path stroke="transparent" fill="#000000" transform="matrix(0.0666667 0 0 0.0666667 -17.3333 -161.333)" d="M 3477.74,5431.02 L 3477.74,5407.93 L 3997.31,5107.93 L 3997.31,5131.02 L 3477.74,5431.02 Z " />
<path stroke="transparent" fill="#000000" transform="matrix(0.0666667 0 0 0.0666667 -17.3333 -161.333)" d="M 3063.24,5191.71 L 3073.24,5174.39 L 3477.74,5407.93 L 3477.74,5431.02 L 3063.24,5191.71 Z " />
<path stroke="transparent" fill="#000000" transform="matrix(0.0666667 0 0 0.0666667 -17.3333 -161.333)" d="M 2438.47,5431.02 L 2438.47,5407.93 L 2842.98,5174.39 L 2852.98,5191.71 L 2438.47,5431.02 Z " />
<path stroke="transparent" fill="#000000" transform="matrix(0.0666667 0 0 0.0666667 -17.3333 -161.333)" d="M 2484.47,5914.31 L 2464.47,5914.31 L 2464.47,5398.69 L 2484.47,5398.69 L 2484.47,5914.31 Z " />
<path stroke="transparent" fill="#000000" transform="matrix(0.0666667 0 0 0.0666667 -17.3333 -161.333)" d="M 2412.47,5914.31 L 2392.47,5914.31 L 2392.47,5398.69 L 2412.47,5398.69 L 2412.47,5914.31 Z " />
<path stroke="transparent" fill="#000000" transform="matrix(0.0666667 0 0 0.0666667 -17.3333 -161.333)" d="M 1919.4,5131.35 L 1918.84,5119.47 L 1928.84,5113.7 L 2438.47,5407.93 L 2438.47,5431.02 L 1919.4,5131.35 Z " />
<path stroke="transparent" fill="#000000" transform="matrix(0.0666667 0 0 0.0666667 -17.3333 -161.333)" d="M 1908.84,4525.25 L 1918.84,4519.47 L 1928.84,4525.25 L 1928.84,5113.7 L 1918.84,5119.47 L 1908.84,5113.04 L 1908.84,4525.25 Z " />
<path stroke="transparent" fill="#000000" transform="matrix(0.0666667 0 0 0.0666667 -17.3333 -161.333)" d="M 1394.27,4228.13 L 1404.27,4210.81 L 1918.84,4507.93 L 1918.84,4519.47 L 1908.84,4525.25 L 1394.27,4228.13 Z " />
<path stroke="transparent" fill="#000000" transform="matrix(0.0666667 0 0 0.0666667 -17.3333 -161.333)" d="M 2433.47,4210.81 L 2443.47,4228.13 L 1928.84,4525.25 L 1918.84,4519.47 L 1918.84,4507.93 L 2433.47,4210.81 Z " />
<path stroke="transparent" fill="#000000" transform="matrix(0.0666667 0 0 0.0666667 -17.3333 -161.333)" d="M 1533.12,5411.47 L 1473.12,5307.55 L 1908.84,5113.04 L 1918.84,5119.47 L 1919.4,5131.35 L 1533.12,5411.47 Z " />
<path stroke="transparent" fill="#000000" transform="matrix(0.0666667 0 0 0.0666667 -17.3333 -161.333)" d="M 879.636,5131.02 L 879.636,5107.93 L 1300.42,5350.86 L 1290.42,5368.18 L 879.636,5131.02 Z " />
<path stroke="transparent" fill="#000000" transform="matrix(0.0666667 0 0 0.0666667 -17.3333 -161.333)" d="M 457.619,5374.66 L 447.62,5357.34 L 879.636,5107.93 L 879.636,5131.02 L 457.619,5374.66 Z " />
<path stroke="transparent" fill="#000000" transform="matrix(0.0666667 0 0 0.0666667 -17.3333 -161.333)" d="M 493.619,5437.02 L 483.62,5419.7 L 874.636,5193.95 L 884.636,5211.27 L 493.619,5437.02 Z " />
</svg>
