<?xml version="1.0" standalone="no" ?>
<!DOCTYPE svg PUBLIC "-//W3C//DTD SVG 1.1//EN" "http://www.w3.org/Graphics/SVG/1.1/DTD/svg11.dtd">
<svg width="268px" height="171px" viewBox="0 0 268 171" style="background-color: #ffffff00" xmlns="http://www.w3.org/2000/svg" xmlns:xlink="http://www.w3.org/1999/xlink" version="1.1" >
<text x="0" y="0" stroke="transparent" fill="#000000" transform="matrix(0.0833333 0 0 0.0833333 40.6917 67.4653)" style="font:normal normal normal 200px 'Arial'" >
O</text>
<text x="0" y="0" stroke="transparent" fill="#000000" transform="matrix(0.0833333 0 0 0.0833333 28.6555 167.465)" style="font:normal normal normal 200px 'Arial'" >
HO</text>
<text x="0" y="0" stroke="transparent" fill="#000000" transform="matrix(0.0833333 0 0 0.0833333 127.292 17.4653)" style="font:normal normal normal 200px 'Arial'" >
OH</text>
<text x="0" y="0" stroke="transparent" fill="#000000" transform="matrix(0.0833333 0 0 0.0833333 213.892 17.4653)" style="font:normal normal normal 200px 'Arial'" >
O</text>
<path stroke="transparent" fill="#000000" transform="matrix(0.0833333 0 0 0.0833333 -302.208 -274)" d="M 6795.84,4310.92 L 6785.84,4328.24 L 6271.2,4031.13 L 6271.2,4008.04 L 6795.84,4310.92 Z " />
<path stroke="transparent" fill="#000000" transform="matrix(0.0833333 0 0 0.0833333 -302.208 -274)" d="M 5232,4031.13 L 5232,4019.58 L 5242,4013.81 L 5751.64,4308.04 L 5751.64,4319.58 L 5741.64,4325.36 L 5232,4031.13 Z " />
<path stroke="transparent" fill="#000000" transform="matrix(0.0833333 0 0 0.0833333 -302.208 -274)" d="M 4722.36,4325.36 L 4712.36,4319.58 L 4712.36,4308.04 L 5222,4013.81 L 5232,4019.58 L 5232,4031.13 L 4722.36,4325.36 Z " />
<path stroke="transparent" fill="#000000" transform="matrix(0.0833333 0 0 0.0833333 -302.208 -274)" d="M 4789.37,4369.81 L 4779.37,4352.49 L 5227,4094.06 L 5237,4111.38 L 4789.37,4369.81 Z " />
<path stroke="transparent" fill="#000000" transform="matrix(0.0833333 0 0 0.0833333 -302.208 -274)" d="M 4722.36,4913.81 L 4712.36,4919.58 L 4702.36,4913.81 L 4702.36,4325.36 L 4712.36,4319.58 L 4722.36,4325.36 L 4722.36,4913.81 Z " />
<path stroke="transparent" fill="#000000" transform="matrix(0.0833333 0 0 0.0833333 -302.208 -274)" d="M 5232,5208.04 L 5232,5231.13 L 4712.36,4931.13 L 4712.36,4919.58 L 4722.36,4913.81 L 5232,5208.04 Z " />
<path stroke="transparent" fill="#000000" transform="matrix(0.0833333 0 0 0.0833333 -302.208 -274)" d="M 5237,5127.78 L 5227,5145.1 L 4779.37,4886.67 L 4789.37,4869.35 L 5237,5127.78 Z " />
<path stroke="transparent" fill="#000000" transform="matrix(0.0833333 0 0 0.0833333 -302.208 -274)" d="M 5741.64,4913.81 L 5761.64,4925.36 L 5232,5231.13 L 5232,5208.04 L 5741.64,4913.81 Z " />
<path stroke="transparent" fill="#000000" transform="matrix(0.0833333 0 0 0.0833333 -302.208 -274)" d="M 5761.64,4925.36 L 5741.64,4913.81 L 5741.64,4325.36 L 5751.64,4319.58 L 5761.64,4325.36 L 5761.64,4925.36 Z " />
<path stroke="transparent" fill="#000000" transform="matrix(0.0833333 0 0 0.0833333 -302.208 -274)" d="M 5689.64,4878.01 L 5669.64,4878.01 L 5669.64,4361.15 L 5689.64,4361.15 L 5689.64,4878.01 Z " />
<path stroke="transparent" fill="#000000" transform="matrix(0.0833333 0 0 0.0833333 -302.208 -274)" d="M 3678.16,4328.24 L 3668.16,4310.92 L 4088.2,4068.43 L 4098.2,4085.75 L 3678.16,4328.24 Z " />
<path stroke="transparent" fill="#000000" transform="matrix(0.0833333 0 0 0.0833333 -302.208 -274)" d="M 4287.83,4086 L 4297.83,4068.68 L 4712.36,4308.04 L 4712.36,4319.58 L 4702.36,4325.36 L 4287.83,4086 Z " />
<path stroke="transparent" fill="#000000" transform="matrix(0.0833333 0 0 0.0833333 -302.208 -274)" d="M 4290.41,5174.77 L 4280.41,5157.45 L 4702.36,4913.81 L 4712.36,4919.58 L 4712.36,4931.13 L 4290.41,5174.77 Z " />
<path stroke="transparent" fill="#000000" transform="matrix(0.0833333 0 0 0.0833333 -302.208 -274)" d="M 5222,3539.42 L 5242,3539.42 L 5242,4013.81 L 5232,4019.58 L 5222,4013.81 L 5222,3539.42 Z " />
<path stroke="transparent" fill="#000000" transform="matrix(0.0833333 0 0 0.0833333 -302.208 -274)" d="M 5761.64,4325.36 L 5751.64,4319.58 L 5751.64,4308.04 L 6271.2,4008.04 L 6271.2,4031.13 L 5761.64,4325.36 Z " />
<path stroke="transparent" fill="#000000" transform="matrix(0.0833333 0 0 0.0833333 -302.208 -274)" d="M 6225.2,3539.42 L 6245.2,3539.42 L 6245.2,4040.37 L 6225.2,4040.37 L 6225.2,3539.42 Z " />
<path stroke="transparent" fill="#000000" transform="matrix(0.0833333 0 0 0.0833333 -302.208 -274)" d="M 6297.2,3539.42 L 6317.2,3539.42 L 6317.2,4040.37 L 6297.2,4040.37 L 6297.2,3539.42 Z " />
</svg>
