<?xml version="1.0" standalone="no" ?>
<!DOCTYPE svg PUBLIC "-//W3C//DTD SVG 1.1//EN" "http://www.w3.org/Graphics/SVG/1.1/DTD/svg11.dtd">
<svg width="229px" height="273px" viewBox="0 0 229 273" style="background-color: #ffffff00" xmlns="http://www.w3.org/2000/svg" xmlns:xlink="http://www.w3.org/1999/xlink" version="1.1" >
<text x="0" y="0" stroke="transparent" fill="#000000" transform="matrix(0.0666667 0 0 0.0666667 186.091 14.4496)" style="font:normal normal normal 200px 'Arial'" >
O</text>
<text x="0" y="0" stroke="transparent" fill="#000000" transform="matrix(0.0666667 0 0 0.0666667 186.091 94.45)" style="font:normal normal normal 200px 'Arial'" >
O</text>
<text x="0" y="0" stroke="transparent" fill="#000000" transform="matrix(0.0666667 0 0 0.0666667 116.81 254.451)" style="font:normal normal normal 200px 'Arial'" >
O</text>
<text x="0" y="0" stroke="transparent" fill="#000000" transform="matrix(0.0666667 0 0 0.0666667 3.62925 154.448)" style="font:normal normal normal 200px 'Arial'" >
HN</text>
<text x="0" y="0" stroke="transparent" fill="#000000" transform="matrix(0.0666667 0 0 0.0666667 189.491 206.811)" style="font:normal normal normal 200px 'Arial'" >
O</text>
<text x="0" y="0" stroke="transparent" fill="#000000" transform="matrix(0.0666667 0 0 0.0666667 189.491 142.088)" style="font:normal normal normal 200px 'Arial'" >
O</text>
<path stroke="transparent" fill="#000000" transform="matrix(0.0666667 0 0 0.0666667 -233.853 -273)" d="M 6472.19,4300.16 L 6482.19,4282.84 L 6901.76,4525.08 L 6891.76,4542.41 L 6472.19,4300.16 Z " />
<path stroke="transparent" fill="#000000" transform="matrix(0.0666667 0 0 0.0666667 -233.853 -273)" d="M 5867.56,4539.52 L 5857.56,4533.75 L 5857.56,4522.2 L 6272.56,4282.59 L 6282.56,4299.91 L 5867.56,4539.52 Z " />
<path stroke="transparent" fill="#000000" transform="matrix(0.0666667 0 0 0.0666667 -233.853 -273)" d="M 5337.95,4245.29 L 5337.95,4222.2 L 5857.56,4522.2 L 5857.56,4533.75 L 5847.56,4539.52 L 5337.95,4245.29 Z " />
<path stroke="transparent" fill="#000000" transform="matrix(0.0666667 0 0 0.0666667 -233.853 -273)" d="M 5332.95,4325.54 L 5342.95,4308.22 L 5790.56,4566.65 L 5780.56,4583.97 L 5332.95,4325.54 Z " />
<path stroke="transparent" fill="#000000" transform="matrix(0.0666667 0 0 0.0666667 -233.853 -273)" d="M 4828.35,4539.48 L 4808.35,4527.93 L 5337.95,4222.2 L 5337.95,4245.29 L 4828.35,4539.48 Z " />
<path stroke="transparent" fill="#000000" transform="matrix(0.0666667 0 0 0.0666667 -233.853 -273)" d="M 4828.35,5127.93 L 4818.35,5133.71 L 4808.35,5127.93 L 4808.35,4527.93 L 4828.35,4539.48 L 4828.35,5127.93 Z " />
<path stroke="transparent" fill="#000000" transform="matrix(0.0666667 0 0 0.0666667 -233.853 -273)" d="M 4900.35,5092.14 L 4880.35,5092.14 L 4880.35,4575.28 L 4900.35,4575.28 L 4900.35,5092.14 Z " />
<path stroke="transparent" fill="#000000" transform="matrix(0.0666667 0 0 0.0666667 -233.853 -273)" d="M 5337.95,5422.16 L 5337.95,5433.71 L 5327.95,5439.48 L 4818.35,5145.25 L 4818.35,5133.71 L 4828.35,5127.93 L 5337.95,5422.16 Z " />
<path stroke="transparent" fill="#000000" transform="matrix(0.0666667 0 0 0.0666667 -233.853 -273)" d="M 5847.56,5127.97 L 5857.56,5133.75 L 5857.56,5145.3 L 5347.95,5439.48 L 5337.95,5433.71 L 5337.95,5422.16 L 5847.56,5127.97 Z " />
<path stroke="transparent" fill="#000000" transform="matrix(0.0666667 0 0 0.0666667 -233.853 -273)" d="M 5780.56,5083.52 L 5790.56,5100.84 L 5342.96,5359.24 L 5332.96,5341.92 L 5780.56,5083.52 Z " />
<path stroke="transparent" fill="#000000" transform="matrix(0.0666667 0 0 0.0666667 -233.853 -273)" d="M 5867.56,5127.97 L 5857.56,5133.75 L 5847.56,5127.97 L 5847.56,4539.52 L 5857.56,4533.75 L 5867.56,4539.52 L 5867.56,5127.97 Z " />
<path stroke="transparent" fill="#000000" transform="matrix(0.0666667 0 0 0.0666667 -233.853 -273)" d="M 6289.54,5371.61 L 6279.54,5388.94 L 5857.56,5145.3 L 5857.56,5133.75 L 5867.56,5127.97 L 6289.54,5371.61 Z " />
<path stroke="transparent" fill="#000000" transform="matrix(0.0666667 0 0 0.0666667 -233.853 -273)" d="M 6891.76,5125.09 L 6901.76,5142.41 L 6474.78,5388.94 L 6464.78,5371.61 L 6891.76,5125.09 Z " />
<path stroke="transparent" fill="#000000" transform="matrix(0.0666667 0 0 0.0666667 -233.853 -273)" d="M 5347.95,6027.94 L 5337.95,6033.71 L 5327.95,6027.94 L 5327.95,5439.48 L 5337.95,5433.71 L 5347.95,5439.48 L 5347.95,6027.94 Z " />
<path stroke="transparent" fill="#000000" transform="matrix(0.0666667 0 0 0.0666667 -233.853 -273)" d="M 5858.7,6322.87 L 5857.56,6333.75 L 5847.56,6339.53 L 5337.95,6045.26 L 5337.95,6033.71 L 5347.95,6027.94 L 5858.7,6322.87 Z " />
<path stroke="transparent" fill="#000000" transform="matrix(0.0666667 0 0 0.0666667 -233.853 -273)" d="M 5790.56,6366.66 L 5780.55,6383.98 L 5332.95,6125.51 L 5342.95,6108.19 L 5790.56,6366.66 Z " />
<path stroke="transparent" fill="#000000" transform="matrix(0.0666667 0 0 0.0666667 -233.853 -273)" d="M 5867.56,6926.49 L 5857.56,6933.76 L 5847.56,6927.98 L 5847.56,6339.53 L 5857.56,6333.75 L 5867.56,6341.02 L 5867.56,6926.49 Z " />
<path stroke="transparent" fill="#000000" transform="matrix(0.0666667 0 0 0.0666667 -233.853 -273)" d="M 5347.95,7239.53 L 5337.95,7233.76 L 5337.95,7222.21 L 5847.56,6927.98 L 5857.56,6933.76 L 5858.7,6944.64 L 5347.95,7239.53 Z " />
<path stroke="transparent" fill="#000000" transform="matrix(0.0666667 0 0 0.0666667 -233.853 -273)" d="M 5342.96,7159.28 L 5332.96,7141.96 L 5780.56,6883.53 L 5790.56,6900.85 L 5342.96,7159.28 Z " />
<path stroke="transparent" fill="#000000" transform="matrix(0.0666667 0 0 0.0666667 -233.853 -273)" d="M 5347.95,7728.59 L 5327.95,7728.59 L 5327.95,7239.53 L 5337.95,7233.76 L 5347.95,7239.53 L 5347.95,7728.59 Z " />
<path stroke="transparent" fill="#000000" transform="matrix(0.0666667 0 0 0.0666667 -233.853 -273)" d="M 5862.56,8125.1 L 5852.56,8142.42 L 5432.99,7900.18 L 5442.99,7882.86 L 5862.56,8125.1 Z " />
<path stroke="transparent" fill="#000000" transform="matrix(0.0666667 0 0 0.0666667 -233.853 -273)" d="M 4818.35,6945.26 L 4818.35,6933.72 L 4828.35,6927.94 L 5337.95,7222.21 L 5337.95,7233.76 L 5327.95,7239.53 L 4818.35,6945.26 Z " />
<path stroke="transparent" fill="#000000" transform="matrix(0.0666667 0 0 0.0666667 -233.853 -273)" d="M 4808.35,6339.49 L 4818.35,6333.71 L 4828.35,6339.49 L 4828.35,6927.94 L 4818.35,6933.72 L 4808.35,6927.94 L 4808.35,6339.49 Z " />
<path stroke="transparent" fill="#000000" transform="matrix(0.0666667 0 0 0.0666667 -233.853 -273)" d="M 4880.35,6375.28 L 4900.35,6375.28 L 4900.35,6892.15 L 4880.35,6892.15 L 4880.35,6375.28 Z " />
<path stroke="transparent" fill="#000000" transform="matrix(0.0666667 0 0 0.0666667 -233.853 -273)" d="M 4828.35,6339.49 L 4818.35,6333.71 L 4818.35,6322.17 L 5327.95,6027.94 L 5337.95,6033.71 L 5337.95,6045.26 L 4828.35,6339.49 Z " />
<path stroke="transparent" fill="#000000" transform="matrix(0.0666667 0 0 0.0666667 -233.853 -273)" d="M 4298.71,6045.26 L 4298.71,6033.71 L 4308.71,6027.94 L 4818.35,6322.17 L 4818.35,6333.71 L 4808.35,6339.49 L 4298.71,6045.26 Z " />
<path stroke="transparent" fill="#000000" transform="matrix(0.0666667 0 0 0.0666667 -233.853 -273)" d="M 4288.71,5427.94 L 4308.71,5439.48 L 4308.71,6027.94 L 4298.71,6033.71 L 4288.71,6027.94 L 4288.71,5427.94 Z " />
<path stroke="transparent" fill="#000000" transform="matrix(0.0666667 0 0 0.0666667 -233.853 -273)" d="M 4308.71,5439.48 L 4288.71,5427.94 L 4808.35,5127.93 L 4818.35,5133.71 L 4818.35,5145.25 L 4308.71,5439.48 Z " />
<path stroke="transparent" fill="#000000" transform="matrix(0.0666667 0 0 0.0666667 -233.853 -273)" d="M 3887.3,6282.79 L 3877.3,6265.47 L 4288.71,6027.94 L 4298.71,6033.71 L 4298.71,6045.26 L 3887.3,6282.79 Z " />
<path stroke="transparent" fill="#000000" transform="matrix(0.0666667 0 0 0.0666667 -233.853 -273)" d="M 3789.11,6927.94 L 3769.11,6939.49 L 3769.11,6450.88 L 3789.11,6450.88 L 3789.11,6927.94 Z " />
<path stroke="transparent" fill="#000000" transform="matrix(0.0666667 0 0 0.0666667 -233.853 -273)" d="M 4298.71,7222.17 L 4298.71,7245.27 L 3769.11,6939.49 L 3789.11,6927.94 L 4298.71,7222.17 Z " />
<path stroke="transparent" fill="#000000" transform="matrix(0.0666667 0 0 0.0666667 -233.853 -273)" d="M 4298.71,7245.27 L 4298.71,7222.17 L 4808.35,6927.94 L 4818.35,6933.72 L 4818.35,6945.26 L 4298.71,7245.27 Z " />
<path stroke="transparent" fill="#000000" transform="matrix(0.0666667 0 0 0.0666667 -233.853 -273)" d="M 6329.66,7076.64 L 6323.48,7095.66 L 5858.7,6944.64 L 5857.56,6933.76 L 5867.56,6926.49 L 6329.66,7076.64 Z " />
<path stroke="transparent" fill="#000000" transform="matrix(0.0666667 0 0 0.0666667 -233.853 -273)" d="M 6768.48,6633.76 L 6793.2,6633.76 L 6498.95,7038.74 L 6482.77,7026.98 L 6768.48,6633.76 Z " />
<path stroke="transparent" fill="#000000" transform="matrix(0.0666667 0 0 0.0666667 -233.853 -273)" d="M 6490.82,6251.58 L 6507,6239.82 L 6793.2,6633.76 L 6768.48,6633.76 L 6490.82,6251.58 Z " />
<path stroke="transparent" fill="#000000" transform="matrix(0.0666667 0 0 0.0666667 -233.853 -273)" d="M 6318.58,6173.41 L 6324.77,6192.43 L 5867.56,6341.02 L 5857.56,6333.75 L 5858.7,6322.87 L 6318.58,6173.41 Z " />
</svg>
