<?xml version="1.0" standalone="no" ?>
<!DOCTYPE svg PUBLIC "-//W3C//DTD SVG 1.1//EN" "http://www.w3.org/Graphics/SVG/1.1/DTD/svg11.dtd">
<svg width="427px" height="431px" viewBox="0 0 427 431" style="background-color: #ffffff00" xmlns="http://www.w3.org/2000/svg" xmlns:xlink="http://www.w3.org/1999/xlink" version="1.1" >
<path stroke="transparent" fill="#000000" transform="matrix(0.0833333 0 0 0.0833333 -180.208 -140)" d="M 4829.21,5528.76 L 4809.21,5528.76 L 4809.22,5047.69 L 4819.22,5033.92 L 4829.22,5047.69 L 4829.21,5528.76 Z " />
<path stroke="transparent" fill="#000000" transform="matrix(0.0833333 0 0 0.0833333 -180.208 -140)" d="M 4829.22,5026.66 L 4819.22,5033.92 L 4809.22,5026.66 L 4809.23,4441.19 L 4819.23,4433.92 L 4829.23,4441.19 L 4829.22,5026.66 Z " />
<path stroke="transparent" fill="#000000" transform="matrix(0.0833333 0 0 0.0833333 -180.208 -140)" d="M 4809.22,5026.66 L 4819.22,5033.92 L 4809.22,5047.69 L 4255.92,5227.46 L 4248.6,5219.33 L 4252.42,5207.57 L 4809.22,5026.66 Z " />
<path stroke="transparent" fill="#000000" transform="matrix(0.0833333 0 0 0.0833333 -180.208 -140)" d="M 4829.22,5047.69 L 4819.22,5033.92 L 4829.22,5026.66 L 5386.02,5207.57 L 5389.84,5219.32 L 5381.9,5227.26 L 4829.22,5047.69 Z " />
<path stroke="transparent" fill="#000000" transform="matrix(0.0833333 0 0 0.0833333 -180.208 -140)" d="M 5552.01,5686.09 L 5532.99,5692.27 L 5381.9,5227.26 L 5389.84,5219.32 L 5400.92,5221.08 L 5552.01,5686.09 Z " />
<path stroke="transparent" fill="#000000" transform="matrix(0.0833333 0 0 0.0833333 -180.208 -140)" d="M 5400.92,5221.08 L 5389.84,5219.32 L 5386.02,5207.57 L 5730.19,4733.91 L 5742.55,4733.91 L 5747.65,4743.91 L 5400.92,5221.08 Z " />
<path stroke="transparent" fill="#000000" transform="matrix(0.0833333 0 0 0.0833333 -180.208 -140)" d="M 7242.56,5243.55 L 7242.56,5263.55 L 6738.56,5263.54 L 6738.56,5243.54 L 7242.56,5243.55 Z " />
<path stroke="transparent" fill="#000000" transform="matrix(0.0833333 0 0 0.0833333 -180.208 -140)" d="M 6351.23,5778.16 L 6333.91,5768.16 L 6566.42,5365.43 L 6583.74,5375.43 L 6351.23,5778.16 Z " />
<path stroke="transparent" fill="#000000" transform="matrix(0.0833333 0 0 0.0833333 -180.208 -140)" d="M 6590.09,5142.65 L 6572.76,5152.65 L 6336.78,4743.91 L 6348.33,4723.91 L 6590.09,5142.65 Z " />
<path stroke="transparent" fill="#000000" transform="matrix(0.0833333 0 0 0.0833333 -180.208 -140)" d="M 6542.36,4295.83 L 6559.68,4305.83 L 6309.65,4738.91 L 6292.32,4728.91 L 6542.36,4295.83 Z " />
<path stroke="transparent" fill="#000000" transform="matrix(0.0833333 0 0 0.0833333 -180.208 -140)" d="M 6604.71,4331.83 L 6622.03,4341.83 L 6372,4774.91 L 6354.68,4764.91 L 6604.71,4331.83 Z " />
<path stroke="transparent" fill="#000000" transform="matrix(0.0833333 0 0 0.0833333 -180.208 -140)" d="M 6348.33,4723.91 L 6336.78,4743.91 L 5747.65,4743.91 L 5742.55,4733.91 L 5747.65,4723.91 L 6348.33,4723.91 Z " />
<path stroke="transparent" fill="#000000" transform="matrix(0.0833333 0 0 0.0833333 -180.208 -140)" d="M 5747.65,4723.91 L 5742.55,4733.91 L 5730.19,4733.91 L 5386.03,4260.27 L 5389.84,4248.52 L 5401.75,4247.89 L 5747.65,4723.91 Z " />
<path stroke="transparent" fill="#000000" transform="matrix(0.0833333 0 0 0.0833333 -180.208 -140)" d="M 5679.84,3726.22 L 5689.84,3728.9 L 5693.5,3742.56 L 5401.75,4247.89 L 5389.84,4248.52 L 5383.1,4240.19 L 5679.84,3726.22 Z " />
<path stroke="transparent" fill="#000000" transform="matrix(0.0833333 0 0 0.0833333 -180.208 -140)" d="M 5383.1,4240.19 L 5389.84,4248.52 L 5386.03,4260.27 L 4829.23,4441.19 L 4819.23,4433.92 L 4829.23,4420.16 L 5383.1,4240.19 Z " />
<path stroke="transparent" fill="#000000" transform="matrix(0.0833333 0 0 0.0833333 -180.208 -140)" d="M 4809.23,3839.7 L 4819.23,3833.92 L 4829.23,3839.7 L 4829.23,4420.16 L 4819.23,4433.92 L 4809.23,4420.16 L 4809.23,3839.7 Z " />
<path stroke="transparent" fill="#000000" transform="matrix(0.0833333 0 0 0.0833333 -180.208 -140)" d="M 4809.23,4420.16 L 4819.23,4433.92 L 4809.23,4441.19 L 4352.32,4292.74 L 4358.5,4273.71 L 4809.23,4420.16 Z " />
<path stroke="transparent" fill="#000000" transform="matrix(0.0833333 0 0 0.0833333 -180.208 -140)" d="M 4169.98,4339.73 L 4186.16,4351.49 L 3908.25,4733.94 L 3895.89,4733.94 L 3890.42,4724.46 L 4169.98,4339.73 Z " />
<path stroke="transparent" fill="#000000" transform="matrix(0.0833333 0 0 0.0833333 -180.208 -140)" d="M 3292.41,4787.32 L 3305.99,4806.01 L 3066.65,5343.6 L 3055.17,5344.81 L 3048.38,5335.47 L 3292.41,4787.32 Z " />
<path stroke="transparent" fill="#000000" transform="matrix(0.0833333 0 0 0.0833333 -180.208 -140)" d="M 3305.99,4806.01 L 3292.41,4787.32 L 3890.42,4724.46 L 3895.89,4733.94 L 3891.19,4744.49 L 3305.99,4806.01 Z " />
<path stroke="transparent" fill="#000000" transform="matrix(0.0833333 0 0 0.0833333 -180.208 -140)" d="M 3349.11,4873.87 L 3347.02,4853.98 L 3861.04,4799.95 L 3863.13,4819.84 L 3349.11,4873.87 Z " />
<path stroke="transparent" fill="#000000" transform="matrix(0.0833333 0 0 0.0833333 -180.208 -140)" d="M 3891.19,4744.49 L 3895.89,4733.94 L 3908.25,4733.94 L 4252.42,5207.57 L 4248.6,5219.33 L 4237.12,5220.54 L 3891.19,4744.49 Z " />
<path stroke="transparent" fill="#000000" transform="matrix(0.0833333 0 0 0.0833333 -180.208 -140)" d="M 4237.12,5220.54 L 4248.6,5219.33 L 4255.92,5227.46 L 4015.97,5766.24 L 4004.48,5767.45 L 3997.7,5758.11 L 4237.12,5220.54 Z " />
<path stroke="transparent" fill="#000000" transform="matrix(0.0833333 0 0 0.0833333 -180.208 -140)" d="M 4156.77,5223.95 L 4175.04,5232.09 L 3964.75,5704.26 L 3946.48,5696.12 L 4156.77,5223.95 Z " />
<path stroke="transparent" fill="#000000" transform="matrix(0.0833333 0 0 0.0833333 -180.208 -140)" d="M 4122.24,6805.08 L 4103.97,6796.94 L 4298.6,6359.84 L 4316.87,6367.97 L 4122.24,6805.08 Z " />
<path stroke="transparent" fill="#000000" transform="matrix(0.0833333 0 0 0.0833333 -180.208 -140)" d="M 4302.53,6160.6 L 4286.35,6172.36 L 3999.79,5778 L 4004.48,5767.45 L 4015.97,5766.24 L 4302.53,6160.6 Z " />
<path stroke="transparent" fill="#000000" transform="matrix(0.0833333 0 0 0.0833333 -180.208 -140)" d="M 3997.7,5758.11 L 4004.48,5767.45 L 3999.79,5778 L 3403.13,5840.77 L 3412.52,5819.68 L 3997.7,5758.11 Z " />
<path stroke="transparent" fill="#000000" transform="matrix(0.0833333 0 0 0.0833333 -180.208 -140)" d="M 3412.52,5819.68 L 3403.13,5840.77 L 3050.47,5355.36 L 3055.17,5344.81 L 3066.65,5343.6 L 3412.52,5819.68 Z " />
<path stroke="transparent" fill="#000000" transform="matrix(0.0833333 0 0 0.0833333 -180.208 -140)" d="M 3449.73,5748.39 L 3433.55,5760.15 L 3129.76,5342 L 3145.94,5330.24 L 3449.73,5748.39 Z " />
<path stroke="transparent" fill="#000000" transform="matrix(0.0833333 0 0 0.0833333 -180.208 -140)" d="M 3048.38,5335.47 L 3055.17,5344.81 L 3050.47,5355.36 L 2566.48,5406.21 L 2564.39,5386.32 L 3048.38,5335.47 Z " />
<path stroke="transparent" fill="#000000" transform="matrix(0.0833333 0 0 0.0833333 -180.208 -140)" d="M 2399.81,5514.51 L 2418.08,5522.65 L 2223.49,5959.72 L 2205.22,5951.58 L 2399.81,5514.51 Z " />
<text x="0" y="0" stroke="transparent" fill="#000000" transform="matrix(0.0833333 0 0 0.0833333 214.893 335.994)" style="font:normal normal normal 200px 'Arial'" >
OH</text>
<text x="0" y="0" stroke="transparent" fill="#000000" transform="matrix(0.0833333 0 0 0.0833333 277.895 348.995)" style="font:normal normal normal 200px 'Arial'" >
OH</text>
<text x="0" y="0" stroke="transparent" fill="#000000" transform="matrix(0.0833333 0 0 0.0833333 367.338 304.295)" style="font:normal normal normal 200px 'Arial'" >
N</text>
<text x="0" y="0" stroke="transparent" fill="#000000" transform="matrix(0.0833333 0 0 0.0833333 366.837 217.691)" style="font:normal normal normal 200px 'Arial'" >
O</text>
<text x="0" y="0" stroke="transparent" fill="#000000" transform="matrix(0.0833333 0 0 0.0833333 167.342 220.544)" style="font:normal normal normal 200px 'Arial'" >
O</text>
<text x="0" y="0" stroke="transparent" fill="#000000" transform="matrix(0.0833333 0 0 0.0833333 176.391 387.57)" style="font:normal normal normal 200px 'Arial'" >
O</text>
<text x="0" y="0" stroke="transparent" fill="#000000" transform="matrix(0.0833333 0 0 0.0833333 18.1577 317.126)" style="font:normal normal normal 200px 'Arial'" >
O</text>
<path stroke="transparent" fill="#000000" transform="matrix(0.0833333 0 0 0.0833333 -180.208 -140)" d="M 5328.85,3528.15 L 5348.85,3539.69 L 4829.23,3839.7 L 4819.23,3833.92 L 4819.23,3822.38 L 5328.85,3528.15 Z " />
<path stroke="transparent" fill="#000000" transform="matrix(0.0833333 0 0 0.0833333 -180.208 -140)" d="M 5261.85,3483.69 L 5271.85,3501.01 L 4824.23,3759.45 L 4814.23,3742.13 L 5261.85,3483.69 Z " />
<path stroke="transparent" fill="#000000" transform="matrix(0.0833333 0 0 0.0833333 -180.208 -140)" d="M 5328.85,2939.69 L 5348.85,2928.15 L 5348.85,3539.69 L 5328.85,3528.15 L 5328.85,2939.69 Z " />
<path stroke="transparent" fill="#000000" transform="matrix(0.0833333 0 0 0.0833333 -180.208 -140)" d="M 4819.23,2645.47 L 4819.23,2633.92 L 4829.23,2628.15 L 5348.85,2928.15 L 5328.85,2939.69 L 4819.23,2645.47 Z " />
<path stroke="transparent" fill="#000000" transform="matrix(0.0833333 0 0 0.0833333 -180.208 -140)" d="M 4814.23,2725.72 L 4824.23,2708.4 L 5271.85,2966.83 L 5261.85,2984.15 L 4814.23,2725.72 Z " />
<path stroke="transparent" fill="#000000" transform="matrix(0.0833333 0 0 0.0833333 -180.208 -140)" d="M 4309.62,2939.69 L 4299.62,2933.92 L 4299.62,2922.37 L 4809.23,2628.15 L 4819.23,2633.92 L 4819.23,2645.47 L 4309.62,2939.69 Z " />
<path stroke="transparent" fill="#000000" transform="matrix(0.0833333 0 0 0.0833333 -180.208 -140)" d="M 4309.62,3528.15 L 4289.62,3539.69 L 4289.62,2939.69 L 4299.62,2933.92 L 4309.62,2939.69 L 4309.62,3528.15 Z " />
<path stroke="transparent" fill="#000000" transform="matrix(0.0833333 0 0 0.0833333 -180.208 -140)" d="M 4381.62,3492.35 L 4361.62,3492.35 L 4361.62,2975.49 L 4381.62,2975.49 L 4381.62,3492.35 Z " />
<path stroke="transparent" fill="#000000" transform="matrix(0.0833333 0 0 0.0833333 -180.208 -140)" d="M 4819.23,3822.38 L 4819.23,3833.92 L 4809.23,3839.7 L 4289.62,3539.69 L 4309.62,3528.15 L 4819.23,3822.38 Z " />
<text x="0" y="0" stroke="transparent" fill="#000000" transform="matrix(0.0833333 0 0 0.0833333 116.256 85.9933)" style="font:normal normal normal 200px 'Arial'" >
HO</text>
<path stroke="transparent" fill="#000000" transform="matrix(0.0833333 0 0 0.0833333 -180.208 -140)" d="M 3875.03,2700.33 L 3885.03,2683.01 L 4299.62,2922.37 L 4299.62,2933.92 L 4289.62,2939.69 L 3875.03,2700.33 Z " />
<text x="0" y="0" stroke="transparent" fill="#000000" transform="matrix(0.0833333 0 0 0.0833333 214.894 35.9937)" style="font:normal normal normal 200px 'Arial'" >
O</text>
<path stroke="transparent" fill="#000000" transform="matrix(0.0833333 0 0 0.0833333 -180.208 -140)" d="M 4809.23,2153.76 L 4829.23,2153.76 L 4829.23,2628.15 L 4819.23,2633.92 L 4809.23,2628.15 L 4809.23,2153.76 Z " />
<path stroke="transparent" fill="#000000" transform="matrix(0.0833333 0 0 0.0833333 -180.208 -140)" d="M 4294.62,1742.58 L 4304.62,1725.26 L 4731.62,1971.79 L 4721.62,1989.11 L 4294.62,1742.58 Z " />
<path stroke="transparent" fill="#000000" transform="matrix(0.0833333 0 0 0.0833333 -180.208 -140)" d="M 6209.46,4017.36 L 6209.46,4040.45 L 5693.5,3742.56 L 5689.84,3728.9 L 5699.84,3723.13 L 6209.46,4017.36 Z " />
<path stroke="transparent" fill="#000000" transform="matrix(0.0833333 0 0 0.0833333 -180.208 -140)" d="M 6214.46,3937.1 L 6204.46,3954.42 L 5756.84,3695.99 L 5766.84,3678.67 L 6214.46,3937.1 Z " />
<path stroke="transparent" fill="#000000" transform="matrix(0.0833333 0 0 0.0833333 -180.208 -140)" d="M 6719.07,3723.13 L 6739.07,3734.68 L 6209.46,4040.45 L 6209.46,4017.36 L 6719.07,3723.13 Z " />
<path stroke="transparent" fill="#000000" transform="matrix(0.0833333 0 0 0.0833333 -180.208 -140)" d="M 6719.07,3134.68 L 6739.07,3123.13 L 6739.07,3734.68 L 6719.07,3723.13 L 6719.07,3134.68 Z " />
<path stroke="transparent" fill="#000000" transform="matrix(0.0833333 0 0 0.0833333 -180.208 -140)" d="M 6647.07,3170.47 L 6667.07,3170.47 L 6667.07,3687.33 L 6647.07,3687.33 L 6647.07,3170.47 Z " />
<path stroke="transparent" fill="#000000" transform="matrix(0.0833333 0 0 0.0833333 -180.208 -140)" d="M 6209.46,2840.45 L 6209.46,2817.36 L 6739.07,3123.13 L 6719.07,3134.68 L 6209.46,2840.45 Z " />
<path stroke="transparent" fill="#000000" transform="matrix(0.0833333 0 0 0.0833333 -180.208 -140)" d="M 5699.84,3134.68 L 5679.84,3123.13 L 6209.46,2817.36 L 6209.46,2840.45 L 5699.84,3134.68 Z " />
<path stroke="transparent" fill="#000000" transform="matrix(0.0833333 0 0 0.0833333 -180.208 -140)" d="M 5766.84,3179.13 L 5756.84,3161.81 L 6204.46,2903.38 L 6214.46,2920.7 L 5766.84,3179.13 Z " />
<path stroke="transparent" fill="#000000" transform="matrix(0.0833333 0 0 0.0833333 -180.208 -140)" d="M 5699.84,3723.13 L 5689.84,3728.9 L 5679.84,3726.22 L 5679.84,3123.13 L 5699.84,3134.68 L 5699.84,3723.13 Z " />
</svg>
