<?xml version="1.0" standalone="no" ?>
<!DOCTYPE svg PUBLIC "-//W3C//DTD SVG 1.1//EN" "http://www.w3.org/Graphics/SVG/1.1/DTD/svg11.dtd">
<svg width="275px" height="171px" viewBox="0 0 275 171" style="background-color: #ffffff00" xmlns="http://www.w3.org/2000/svg" xmlns:xlink="http://www.w3.org/1999/xlink" version="1.1" >
<text x="0" y="0" stroke="transparent" fill="#000000" transform="matrix(0.0833333 0 0 0.0833333 221.034 104.5)" style="font:normal normal normal 200px 'Arial'" >
O</text>
<text x="0" y="0" stroke="transparent" fill="#000000" transform="matrix(0.0833333 0 0 0.0833333 36.2576 104.5)" style="font:normal normal normal 200px 'Arial'" >
HN</text>
<path stroke="transparent" fill="#000000" transform="matrix(0.0833333 0 0 0.0833333 -298.208 -274)" d="M 6308.9,3875.54 L 6308.9,3852.44 L 6823.56,3555.32 L 6833.55,3572.64 L 6308.9,3875.54 Z " />
<path stroke="transparent" fill="#000000" transform="matrix(0.0833333 0 0 0.0833333 -298.208 -274)" d="M 6354.9,4358.84 L 6334.9,4358.84 L 6334.9,3843.21 L 6354.9,3843.21 L 6354.9,4358.84 Z " />
<path stroke="transparent" fill="#000000" transform="matrix(0.0833333 0 0 0.0833333 -298.208 -274)" d="M 6282.9,4358.84 L 6262.9,4358.84 L 6262.9,3843.2 L 6282.9,3843.2 L 6282.9,4358.84 Z " />
<path stroke="transparent" fill="#000000" transform="matrix(0.0833333 0 0 0.0833333 -298.208 -274)" d="M 5789.29,3575.53 L 5789.29,3552.44 L 6308.9,3852.44 L 6308.9,3875.54 L 5789.29,3575.53 Z " />
<path stroke="transparent" fill="#000000" transform="matrix(0.0833333 0 0 0.0833333 -298.208 -274)" d="M 5279.68,3869.76 L 5269.68,3863.99 L 5269.68,3852.44 L 5789.29,3552.44 L 5789.29,3575.53 L 5279.68,3869.76 Z " />
<path stroke="transparent" fill="#000000" transform="matrix(0.0833333 0 0 0.0833333 -298.208 -274)" d="M 5346.68,3914.22 L 5336.68,3896.9 L 5784.29,3638.46 L 5794.29,3655.78 L 5346.68,3914.22 Z " />
<path stroke="transparent" fill="#000000" transform="matrix(0.0833333 0 0 0.0833333 -298.208 -274)" d="M 4750.07,3575.53 L 4750.07,3552.44 L 5269.68,3852.44 L 5269.68,3863.99 L 5259.68,3869.76 L 4750.07,3575.53 Z " />
<path stroke="transparent" fill="#000000" transform="matrix(0.0833333 0 0 0.0833333 -298.208 -274)" d="M 4240.46,3869.76 L 4230.46,3863.99 L 4234.12,3850.33 L 4750.07,3552.44 L 4750.07,3575.53 L 4240.46,3869.76 Z " />
<path stroke="transparent" fill="#000000" transform="matrix(0.0833333 0 0 0.0833333 -298.208 -274)" d="M 3921.79,3349.38 L 3939.11,3339.38 L 4234.12,3850.33 L 4230.46,3863.99 L 4213.14,3853.99 L 3921.79,3349.38 Z " />
<path stroke="transparent" fill="#000000" transform="matrix(0.0833333 0 0 0.0833333 -298.208 -274)" d="M 3630.45,3873.99 L 3630.45,3853.99 L 4213.14,3853.99 L 4230.46,3863.99 L 4220.46,3873.99 L 3630.45,3873.99 Z " />
<path stroke="transparent" fill="#000000" transform="matrix(0.0833333 0 0 0.0833333 -298.208 -274)" d="M 4240.46,4361.34 L 4220.46,4361.34 L 4220.46,3873.99 L 4230.46,3863.99 L 4240.46,3869.76 L 4240.46,4361.34 Z " />
<path stroke="transparent" fill="#000000" transform="matrix(0.0833333 0 0 0.0833333 -298.208 -274)" d="M 4750.07,4752.46 L 4750.07,4764.01 L 4736.41,4767.67 L 4334.93,4535.87 L 4344.93,4518.55 L 4750.07,4752.46 Z " />
<path stroke="transparent" fill="#000000" transform="matrix(0.0833333 0 0 0.0833333 -298.208 -274)" d="M 4458.72,5288.62 L 4441.4,5278.62 L 4736.41,4767.67 L 4750.07,4764.01 L 4750.07,4784.01 L 4458.72,5288.62 Z " />
<path stroke="transparent" fill="#000000" transform="matrix(0.0833333 0 0 0.0833333 -298.208 -274)" d="M 5058.74,5278.62 L 5041.42,5288.62 L 4750.07,4784.01 L 4750.07,4764.01 L 4763.73,4767.67 L 5058.74,5278.62 Z " />
<path stroke="transparent" fill="#000000" transform="matrix(0.0833333 0 0 0.0833333 -298.208 -274)" d="M 5259.68,4458.23 L 5279.68,4469.78 L 4763.73,4767.67 L 4750.07,4764.01 L 4750.07,4752.46 L 5259.68,4458.23 Z " />
<path stroke="transparent" fill="#000000" transform="matrix(0.0833333 0 0 0.0833333 -298.208 -274)" d="M 5279.68,4469.78 L 5259.68,4458.23 L 5259.68,3869.76 L 5269.68,3863.99 L 5279.68,3869.76 L 5279.68,4469.78 Z " />
</svg>
