<?xml version="1.0" standalone="no" ?>
<!DOCTYPE svg PUBLIC "-//W3C//DTD SVG 1.1//EN" "http://www.w3.org/Graphics/SVG/1.1/DTD/svg11.dtd">
<svg width="600px" height="301px" viewBox="0 0 600 301" style="background-color: #ffffff00" xmlns="http://www.w3.org/2000/svg" xmlns:xlink="http://www.w3.org/1999/xlink" version="1.1" >
<text x="0" y="0" stroke="transparent" fill="#000000" transform="matrix(0.0833333 0 0 0.0833333 326.148 222.681)" style="font:normal normal normal 200px 'Arial'" >
O</text>
<text x="0" y="0" stroke="transparent" fill="#000000" transform="matrix(0.0833333 0 0 0.0833333 133.241 84.677)" style="font:normal normal normal 200px 'Arial'" >
O</text>
<text x="0" y="0" stroke="transparent" fill="#000000" transform="matrix(0.0833333 0 0 0.0833333 3.33677 259.677)" style="font:normal normal normal 200px 'Arial'" >
O</text>
<text x="0" y="0" stroke="transparent" fill="#000000" transform="matrix(0.0833333 0 0 0.0833333 263.144 259.677)" style="font:normal normal normal 200px 'Arial'" >
OH</text>
<text x="0" y="0" stroke="transparent" fill="#000000" transform="matrix(0.0833333 0 0 0.0833333 219.843 34.677)" style="font:normal normal normal 200px 'Arial'" >
OH</text>
<path stroke="transparent" fill="#000000" transform="matrix(0.0833333 0 0 0.0833333 -99.25 -342.5)" d="M 5190.5,4600.66 L 5182.78,4592.08 L 5186.01,4581.17 L 5773.41,4456.31 L 5765.93,4478.35 L 5190.5,4600.66 Z " />
<path stroke="transparent" fill="#000000" transform="matrix(0.0833333 0 0 0.0833333 -99.25 -342.5)" d="M 5240.49,4663.64 L 5236.33,4644.08 L 5740.66,4536.88 L 5744.81,4556.45 L 5240.49,4663.64 Z " />
<path stroke="transparent" fill="#000000" transform="matrix(0.0833333 0 0 0.0833333 -99.25 -342.5)" d="M 4751.44,4174.89 L 4765.58,4160.74 L 5186.01,4581.17 L 5182.78,4592.08 L 5171.37,4594.82 L 4751.44,4174.89 Z " />
<path stroke="transparent" fill="#000000" transform="matrix(0.0833333 0 0 0.0833333 -99.25 -342.5)" d="M 5008.45,5160.96 L 4997.37,5162.71 L 4989.43,5154.78 L 5171.37,4594.82 L 5182.78,4592.08 L 5190.5,4600.66 L 5008.45,5160.96 Z " />
<path stroke="transparent" fill="#000000" transform="matrix(0.0833333 0 0 0.0833333 -99.25 -342.5)" d="M 5362.4,5648.12 L 5337.68,5648.12 L 4993.55,5174.47 L 4997.37,5162.71 L 5008.45,5160.96 L 5362.4,5648.12 Z " />
<path stroke="transparent" fill="#000000" transform="matrix(0.0833333 0 0 0.0833333 -99.25 -342.5)" d="M 5001.19,6145.29 L 4993.55,6121.78 L 5337.68,5648.12 L 5362.4,5648.12 L 5001.19,6145.29 Z " />
<path stroke="transparent" fill="#000000" transform="matrix(0.0833333 0 0 0.0833333 -99.25 -342.5)" d="M 5193.79,6589.19 L 5174.76,6595.37 L 5014.01,6100.62 L 5033.03,6094.44 L 5193.79,6589.19 Z " />
<path stroke="transparent" fill="#000000" transform="matrix(0.0833333 0 0 0.0833333 -99.25 -342.5)" d="M 5125.31,6611.44 L 5106.29,6617.62 L 4945.54,6122.87 L 4964.56,6116.69 L 5125.31,6611.44 Z " />
<path stroke="transparent" fill="#000000" transform="matrix(0.0833333 0 0 0.0833333 -99.25 -342.5)" d="M 4427.88,5959.01 L 4426.73,5948.12 L 4436.73,5940.86 L 4993.55,6121.78 L 5001.19,6145.29 L 4427.88,5959.01 Z " />
<path stroke="transparent" fill="#000000" transform="matrix(0.0833333 0 0 0.0833333 -99.25 -342.5)" d="M 4416.73,5353.9 L 4426.73,5348.12 L 4436.73,5355.39 L 4436.73,5940.86 L 4426.73,5948.12 L 4416.73,5942.35 L 4416.73,5353.9 Z " />
<path stroke="transparent" fill="#000000" transform="matrix(0.0833333 0 0 0.0833333 -99.25 -342.5)" d="M 4436.73,5355.39 L 4426.73,5348.12 L 4439.67,5333.4 L 4989.43,5154.78 L 4997.37,5162.71 L 4993.55,5174.47 L 4436.73,5355.39 Z " />
<path stroke="transparent" fill="#000000" transform="matrix(0.0833333 0 0 0.0833333 -99.25 -342.5)" d="M 3907.12,5059.67 L 3907.12,5048.12 L 3917.68,5042.68 L 4417.13,5331.03 L 4426.73,5348.12 L 4416.73,5353.9 L 3907.12,5059.67 Z " />
<path stroke="transparent" fill="#000000" transform="matrix(0.0833333 0 0 0.0833333 -99.25 -342.5)" d="M 3397.5,5353.9 L 3377.5,5342.35 L 3896.55,5042.68 L 3907.12,5048.12 L 3907.12,5059.67 L 3397.5,5353.9 Z " />
<path stroke="transparent" fill="#000000" transform="matrix(0.0833333 0 0 0.0833333 -99.25 -342.5)" d="M 2944.92,5145.72 L 2954.92,5128.4 L 3392.5,5381.03 L 3382.5,5398.35 L 2944.92,5145.72 Z " />
<path stroke="transparent" fill="#000000" transform="matrix(0.0833333 0 0 0.0833333 -99.25 -342.5)" d="M 2980.92,5083.36 L 2990.92,5066.04 L 3428.5,5318.68 L 3418.5,5336 L 2980.92,5083.36 Z " />
<path stroke="transparent" fill="#000000" transform="matrix(0.0833333 0 0 0.0833333 -99.25 -342.5)" d="M 3397.5,5942.35 L 3387.5,5948.12 L 3377.5,5942.35 L 3377.5,5342.35 L 3397.5,5353.9 L 3397.5,5942.35 Z " />
<path stroke="transparent" fill="#000000" transform="matrix(0.0833333 0 0 0.0833333 -99.25 -342.5)" d="M 3907.12,6236.58 L 3907.12,6248.12 L 3897.12,6253.9 L 3387.5,5959.67 L 3387.5,5948.12 L 3397.5,5942.35 L 3907.12,6236.58 Z " />
<path stroke="transparent" fill="#000000" transform="matrix(0.0833333 0 0 0.0833333 -99.25 -342.5)" d="M 3912.12,6156.33 L 3902.12,6173.65 L 3454.5,5915.21 L 3464.5,5897.89 L 3912.12,6156.33 Z " />
<path stroke="transparent" fill="#000000" transform="matrix(0.0833333 0 0 0.0833333 -99.25 -342.5)" d="M 3917.12,6253.9 L 3907.12,6248.12 L 3907.12,6236.58 L 4416.73,5942.35 L 4426.73,5948.12 L 4427.88,5959.01 L 3917.12,6253.9 Z " />
<path stroke="transparent" fill="#000000" transform="matrix(0.0833333 0 0 0.0833333 -99.25 -342.5)" d="M 3917.12,6841.71 L 3907.12,6848.12 L 3897.12,6842.35 L 3897.12,6253.9 L 3907.12,6248.12 L 3917.12,6253.9 L 3917.12,6841.71 Z " />
<path stroke="transparent" fill="#000000" transform="matrix(0.0833333 0 0 0.0833333 -99.25 -342.5)" d="M 3387.5,7159.67 L 3387.5,7136.58 L 3897.12,6842.35 L 3907.12,6848.12 L 3906.56,6859.99 L 3387.5,7159.67 Z " />
<path stroke="transparent" fill="#000000" transform="matrix(0.0833333 0 0 0.0833333 -99.25 -342.5)" d="M 2867.89,6859.67 L 2867.89,6848.12 L 2877.89,6842.35 L 3387.5,7136.58 L 3387.5,7159.67 L 2867.89,6859.67 Z " />
<path stroke="transparent" fill="#000000" transform="matrix(0.0833333 0 0 0.0833333 -99.25 -342.5)" d="M 2857.89,6253.9 L 2867.89,6248.12 L 2877.89,6253.9 L 2877.89,6842.35 L 2867.89,6848.12 L 2857.89,6842.35 L 2857.89,6253.9 Z " />
<path stroke="transparent" fill="#000000" transform="matrix(0.0833333 0 0 0.0833333 -99.25 -342.5)" d="M 2877.89,6253.9 L 2867.89,6248.12 L 2879.4,6229.93 L 3377.5,5942.35 L 3387.5,5948.12 L 3387.5,5959.67 L 2877.89,6253.9 Z " />
<path stroke="transparent" fill="#000000" transform="matrix(0.0833333 0 0 0.0833333 -99.25 -342.5)" d="M 2348.27,5959.67 L 2348.27,5936.58 L 2856.37,6229.93 L 2867.89,6248.12 L 2857.89,6253.9 L 2348.27,5959.67 Z " />
<path stroke="transparent" fill="#000000" transform="matrix(0.0833333 0 0 0.0833333 -99.25 -342.5)" d="M 1838.66,6253.9 L 1818.66,6242.35 L 2348.27,5936.58 L 2348.27,5959.67 L 1838.66,6253.9 Z " />
<path stroke="transparent" fill="#000000" transform="matrix(0.0833333 0 0 0.0833333 -99.25 -342.5)" d="M 1838.66,6842.35 L 1818.66,6853.9 L 1818.66,6242.35 L 1838.66,6253.9 L 1838.66,6842.35 Z " />
<path stroke="transparent" fill="#000000" transform="matrix(0.0833333 0 0 0.0833333 -99.25 -342.5)" d="M 1424.66,7134.49 L 1414.66,7117.17 L 1859.66,6860.25 L 1869.66,6877.57 L 1424.66,7134.49 Z " />
<path stroke="transparent" fill="#000000" transform="matrix(0.0833333 0 0 0.0833333 -99.25 -342.5)" d="M 1388.66,7072.13 L 1378.66,7054.81 L 1823.66,6797.89 L 1833.66,6815.21 L 1388.66,7072.13 Z " />
<path stroke="transparent" fill="#000000" transform="matrix(0.0833333 0 0 0.0833333 -99.25 -342.5)" d="M 2348.27,7136.58 L 2348.27,7148.12 L 2334.61,7151.78 L 1818.66,6853.9 L 1838.66,6842.35 L 2348.27,7136.58 Z " />
<path stroke="transparent" fill="#000000" transform="matrix(0.0833333 0 0 0.0833333 -99.25 -342.5)" d="M 2361.93,7151.78 L 2348.27,7148.12 L 2348.27,7136.58 L 2857.89,6842.35 L 2867.89,6848.12 L 2867.89,6859.67 L 2361.93,7151.78 Z " />
<path stroke="transparent" fill="#000000" transform="matrix(0.0833333 0 0 0.0833333 -99.25 -342.5)" d="M 2656.93,7662.74 L 2639.61,7672.74 L 2348.27,7168.12 L 2348.27,7148.12 L 2361.93,7151.78 L 2656.93,7662.74 Z " />
<path stroke="transparent" fill="#000000" transform="matrix(0.0833333 0 0 0.0833333 -99.25 -342.5)" d="M 2056.93,7672.74 L 2039.61,7662.74 L 2334.61,7151.78 L 2348.27,7148.12 L 2348.27,7168.12 L 2056.93,7672.74 Z " />
<path stroke="transparent" fill="#000000" transform="matrix(0.0833333 0 0 0.0833333 -99.25 -342.5)" d="M 2807.89,5648.12 L 2927.89,5648.12 L 2879.4,6229.93 L 2867.89,6248.12 L 2856.37,6229.93 L 2807.89,5648.12 Z " />
<path stroke="transparent" fill="#000000" transform="matrix(0.0833333 0 0 0.0833333 -99.25 -342.5)" d="M 4364.11,7042.69 L 4304.11,7146.61 L 3906.56,6859.99 L 3907.12,6848.12 L 3917.12,6841.71 L 4364.11,7042.69 Z " />
<path stroke="transparent" fill="#000000" transform="matrix(0.0833333 0 0 0.0833333 -99.25 -342.5)" d="M 3847.12,4567.96 L 3967.12,4567.96 L 3917.68,5042.68 L 3907.12,5048.12 L 3896.55,5042.68 L 3847.12,4567.96 Z " />
<path stroke="transparent" fill="#000000" transform="matrix(0.0833333 0 0 0.0833333 -99.25 -342.5)" d="M 4429.78,4745.14 L 4549.12,4757.68 L 4439.67,5333.4 L 4426.73,5348.12 L 4417.13,5331.03 L 4429.78,4745.14 Z " />
<path stroke="transparent" fill="#000000" transform="matrix(0.0833333 0 0 0.0833333 -99.25 -342.5)" d="M 4549.12,6538.57 L 4429.78,6551.11 L 4429.51,6531.03 L 4545.21,6518.87 L 4549.12,6538.57 Z " />
<path stroke="transparent" fill="#000000" transform="matrix(0.0833333 0 0 0.0833333 -99.25 -342.5)" d="M 4537.69,6481.01 L 4428.99,6492.43 L 4428.72,6472.35 L 4533.78,6461.31 L 4537.69,6481.01 Z " />
<path stroke="transparent" fill="#000000" transform="matrix(0.0833333 0 0 0.0833333 -99.25 -342.5)" d="M 4526.26,6423.46 L 4428.21,6433.76 L 4427.94,6413.68 L 4522.35,6403.76 L 4526.26,6423.46 Z " />
<path stroke="transparent" fill="#000000" transform="matrix(0.0833333 0 0 0.0833333 -99.25 -342.5)" d="M 4514.83,6365.9 L 4427.42,6375.09 L 4427.15,6355.01 L 4510.92,6346.2 L 4514.83,6365.9 Z " />
<path stroke="transparent" fill="#000000" transform="matrix(0.0833333 0 0 0.0833333 -99.25 -342.5)" d="M 4503.4,6308.35 L 4426.64,6316.41 L 4426.37,6296.33 L 4499.49,6288.65 L 4503.4,6308.35 Z " />
<path stroke="transparent" fill="#000000" transform="matrix(0.0833333 0 0 0.0833333 -99.25 -342.5)" d="M 4491.97,6250.79 L 4425.85,6257.74 L 4425.58,6237.66 L 4488.05,6231.09 L 4491.97,6250.79 Z " />
<path stroke="transparent" fill="#000000" transform="matrix(0.0833333 0 0 0.0833333 -99.25 -342.5)" d="M 4480.54,6193.24 L 4425.07,6199.07 L 4424.8,6178.98 L 4476.62,6173.54 L 4480.54,6193.24 Z " />
<path stroke="transparent" fill="#000000" transform="matrix(0.0833333 0 0 0.0833333 -99.25 -342.5)" d="M 4469.11,6135.68 L 4424.28,6140.39 L 4424.01,6120.31 L 4465.19,6115.98 L 4469.11,6135.68 Z " />
<path stroke="transparent" fill="#000000" transform="matrix(0.0833333 0 0 0.0833333 -99.25 -342.5)" d="M 4457.67,6078.13 L 4423.5,6081.72 L 4423.23,6061.64 L 4453.76,6058.43 L 4457.67,6078.13 Z " />
<path stroke="transparent" fill="#000000" transform="matrix(0.0833333 0 0 0.0833333 -99.25 -342.5)" d="M 4446.24,6020.57 L 4422.71,6023.04 L 4422.44,6002.96 L 4442.33,6000.87 L 4446.24,6020.57 Z " />
<path stroke="transparent" fill="#000000" transform="matrix(0.0833333 0 0 0.0833333 -99.25 -342.5)" d="M 6163.19,4912.69 L 6155.48,4934.46 L 5765.93,4478.35 L 5773.41,4456.31 L 6163.19,4912.69 Z " />
<text x="0" y="0" stroke="transparent" fill="#000000" transform="matrix(0.0833333 0 0 0.0833333 390.837 121.43)" style="font:normal normal normal 200px 'Arial'" >
O</text>
<path stroke="transparent" fill="#000000" transform="matrix(0.0833333 0 0 0.0833333 -99.25 -342.5)" d="M 6037.82,5404.54 L 6018.96,5397.86 L 6190.78,4912.66 L 6209.63,4919.34 L 6037.82,5404.54 Z " />
<path stroke="transparent" fill="#000000" transform="matrix(0.0833333 0 0 0.0833333 -99.25 -342.5)" d="M 5969.95,5380.5 L 5951.09,5373.83 L 6122.91,4888.63 L 6141.76,4895.3 L 5969.95,5380.5 Z " />
<path stroke="transparent" fill="#000000" transform="matrix(0.0833333 0 0 0.0833333 -99.25 -342.5)" d="M 6753.14,4803.35 L 6745.43,4825.12 L 6155.48,4934.46 L 6163.19,4912.69 L 6753.14,4803.35 Z " />
<path stroke="transparent" fill="#000000" transform="matrix(0.0833333 0 0 0.0833333 -99.25 -342.5)" d="M 7142.81,5259.59 L 7135.1,5281.36 L 6745.43,4825.12 L 6753.14,4803.35 L 7142.81,5259.59 Z " />
<path stroke="transparent" fill="#000000" transform="matrix(0.0833333 0 0 0.0833333 -99.25 -342.5)" d="M 7732.76,5150.25 L 7725.05,5172.02 L 7135.1,5281.36 L 7142.81,5259.59 L 7732.76,5150.25 Z " />
<text x="0" y="0" stroke="transparent" fill="#000000" transform="matrix(0.0833333 0 0 0.0833333 570.798 132.115)" style="font:normal normal normal 200px 'Arial'" >
OH</text>
<path stroke="transparent" fill="#000000" transform="matrix(0.0833333 0 0 0.0833333 -99.25 -342.5)" d="M 8056.87,5529.73 L 8041.66,5542.72 L 7725.05,5172.02 L 7732.76,5150.25 L 8056.87,5529.73 Z " />
<text x="0" y="0" stroke="transparent" fill="#000000" transform="matrix(0.0833333 0 0 0.0833333 555.016 46.9627)" style="font:normal normal normal 200px 'Arial'" >
O</text>
<path stroke="transparent" fill="#000000" transform="matrix(0.0833333 0 0 0.0833333 -99.25 -342.5)" d="M 7845.18,4694.99 L 7864.04,4701.66 L 7697.46,5172.05 L 7678.61,5165.37 L 7845.18,4694.99 Z " />
<path stroke="transparent" fill="#000000" transform="matrix(0.0833333 0 0 0.0833333 -99.25 -342.5)" d="M 7913.05,4719.02 L 7931.91,4725.7 L 7765.33,5196.08 L 7746.48,5189.41 L 7913.05,4719.02 Z " />
<path stroke="transparent" fill="#000000" transform="matrix(0.0833333 0 0 0.0833333 -99.25 -342.5)" d="M 7041.62,5865.56 L 6925.71,5834.5 L 6932.65,5815.66 L 7045.03,5845.77 L 7041.62,5865.56 Z " />
<path stroke="transparent" fill="#000000" transform="matrix(0.0833333 0 0 0.0833333 -99.25 -342.5)" d="M 7051.57,5807.73 L 6946,5779.45 L 6952.95,5760.6 L 7054.98,5787.94 L 7051.57,5807.73 Z " />
<path stroke="transparent" fill="#000000" transform="matrix(0.0833333 0 0 0.0833333 -99.25 -342.5)" d="M 7061.53,5749.91 L 6966.3,5724.39 L 6973.24,5705.54 L 7064.94,5730.11 L 7061.53,5749.91 Z " />
<path stroke="transparent" fill="#000000" transform="matrix(0.0833333 0 0 0.0833333 -99.25 -342.5)" d="M 7071.48,5692.08 L 6986.59,5669.33 L 6993.54,5650.49 L 7074.89,5672.28 L 7071.48,5692.08 Z " />
<path stroke="transparent" fill="#000000" transform="matrix(0.0833333 0 0 0.0833333 -99.25 -342.5)" d="M 7081.44,5634.25 L 7006.88,5614.27 L 7013.83,5595.43 L 7084.84,5614.46 L 7081.44,5634.25 Z " />
<path stroke="transparent" fill="#000000" transform="matrix(0.0833333 0 0 0.0833333 -99.25 -342.5)" d="M 7091.39,5576.42 L 7027.18,5559.21 L 7034.12,5540.37 L 7094.8,5556.63 L 7091.39,5576.42 Z " />
<path stroke="transparent" fill="#000000" transform="matrix(0.0833333 0 0 0.0833333 -99.25 -342.5)" d="M 7101.35,5518.59 L 7047.47,5504.16 L 7054.42,5485.31 L 7104.75,5498.8 L 7101.35,5518.59 Z " />
<path stroke="transparent" fill="#000000" transform="matrix(0.0833333 0 0 0.0833333 -99.25 -342.5)" d="M 7111.3,5460.76 L 7067.76,5449.1 L 7074.71,5430.25 L 7114.71,5440.97 L 7111.3,5460.76 Z " />
<path stroke="transparent" fill="#000000" transform="matrix(0.0833333 0 0 0.0833333 -99.25 -342.5)" d="M 7121.25,5402.93 L 7088.06,5394.04 L 7095,5375.2 L 7124.66,5383.14 L 7121.25,5402.93 Z " />
<path stroke="transparent" fill="#000000" transform="matrix(0.0833333 0 0 0.0833333 -99.25 -342.5)" d="M 7131.21,5345.11 L 7108.35,5338.98 L 7115.3,5320.14 L 7134.62,5325.31 L 7131.21,5345.11 Z " />
</svg>
