<?xml version="1.0" standalone="no" ?>
<!DOCTYPE svg PUBLIC "-//W3C//DTD SVG 1.1//EN" "http://www.w3.org/Graphics/SVG/1.1/DTD/svg11.dtd">
<svg width="607px" height="308px" viewBox="0 0 607 308" style="background-color: #ffffff00" xmlns="http://www.w3.org/2000/svg" xmlns:xlink="http://www.w3.org/1999/xlink" version="1.1" >
<text x="0" y="0" stroke="transparent" fill="#000000" transform="matrix(0.0833333 0 0 0.0833333 578.419 117.442)" style="font:normal normal normal 200px 'Arial'" >
OH</text>
<text x="0" y="0" stroke="transparent" fill="#000000" transform="matrix(0.0833333 0 0 0.0833333 578.419 17.4418)" style="font:normal normal normal 200px 'Arial'" >
OH</text>
<text x="0" y="0" stroke="transparent" fill="#000000" transform="matrix(0.0833333 0 0 0.0833333 232.007 167.442)" style="font:normal normal normal 200px 'Arial'" >
OH</text>
<text x="0" y="0" stroke="transparent" fill="#000000" transform="matrix(0.0833333 0 0 0.0833333 145.407 117.442)" style="font:normal normal normal 200px 'Arial'" >
OH</text>
<text x="0" y="0" stroke="transparent" fill="#000000" transform="matrix(0.0833333 0 0 0.0833333 46.7647 167.442)" style="font:normal normal normal 200px 'Arial'" >
HO</text>
<text x="0" y="0" stroke="transparent" fill="#000000" transform="matrix(0.0833333 0 0 0.0833333 3.46165 242.442)" style="font:normal normal normal 200px 'Arial'" >
HO</text>
<text x="0" y="0" stroke="transparent" fill="#000000" transform="matrix(0.0833333 0 0 0.0833333 145.407 267.442)" style="font:normal normal normal 200px 'Arial'" >
O</text>
<text x="0" y="0" stroke="transparent" fill="#000000" transform="matrix(0.0833333 0 0 0.0833333 232.007 267.442)" style="font:normal normal normal 200px 'Arial'" >
O</text>
<path stroke="transparent" fill="#000000" transform="matrix(0.0833333 0 0 0.0833333 -132.542 -217)" d="M 8546.91,3829.87 L 8486.91,3933.79 L 8470.73,3921.82 L 8528.45,3821.84 L 8546.91,3829.87 Z " />
<path stroke="transparent" fill="#000000" transform="matrix(0.0833333 0 0 0.0833333 -132.542 -217)" d="M 8491.65,3805.84 L 8438.47,3897.96 L 8422.29,3885.98 L 8473.19,3797.81 L 8491.65,3805.84 Z " />
<path stroke="transparent" fill="#000000" transform="matrix(0.0833333 0 0 0.0833333 -132.542 -217)" d="M 8436.4,3781.81 L 8390.03,3862.12 L 8373.85,3850.15 L 8417.94,3773.78 L 8436.4,3781.81 Z " />
<path stroke="transparent" fill="#000000" transform="matrix(0.0833333 0 0 0.0833333 -132.542 -217)" d="M 8381.14,3757.78 L 8341.6,3826.28 L 8325.41,3814.31 L 8362.68,3749.76 L 8381.14,3757.78 Z " />
<path stroke="transparent" fill="#000000" transform="matrix(0.0833333 0 0 0.0833333 -132.542 -217)" d="M 8325.89,3733.76 L 8293.16,3790.45 L 8276.98,3778.47 L 8307.43,3725.73 L 8325.89,3733.76 Z " />
<path stroke="transparent" fill="#000000" transform="matrix(0.0833333 0 0 0.0833333 -132.542 -217)" d="M 8270.63,3709.73 L 8244.72,3754.61 L 8228.54,3742.64 L 8252.17,3701.7 L 8270.63,3709.73 Z " />
<path stroke="transparent" fill="#000000" transform="matrix(0.0833333 0 0 0.0833333 -132.542 -217)" d="M 8215.38,3685.7 L 8196.28,3718.77 L 8180.1,3706.8 L 8196.92,3677.67 L 8215.38,3685.7 Z " />
<path stroke="transparent" fill="#000000" transform="matrix(0.0833333 0 0 0.0833333 -132.542 -217)" d="M 8160.12,3661.67 L 8147.84,3682.94 L 8131.66,3670.96 L 8141.66,3653.64 L 8160.12,3661.67 Z " />
<path stroke="transparent" fill="#000000" transform="matrix(0.0833333 0 0 0.0833333 -132.542 -217)" d="M 8504.92,2784.15 L 8514.92,2801.47 L 8099.89,3041.07 L 8079.89,3029.53 L 8504.92,2784.15 Z " />
<path stroke="transparent" fill="#000000" transform="matrix(0.0833333 0 0 0.0833333 -132.542 -217)" d="M 8079.89,3029.53 L 8099.89,3041.07 L 8099.89,3641.07 L 8079.89,3629.53 L 8079.89,3029.53 Z " />
<path stroke="transparent" fill="#000000" transform="matrix(0.0833333 0 0 0.0833333 -132.542 -217)" d="M 8079.89,3629.53 L 8099.89,3641.07 L 7591.77,3934.43 L 7570.25,3935.3 L 7570.25,3923.75 L 8079.89,3629.53 Z " />
<path stroke="transparent" fill="#000000" transform="matrix(0.0833333 0 0 0.0833333 -132.542 -217)" d="M 5951.42,4235.3 L 6071.42,4235.3 L 6069.59,4255.3 L 5953.25,4255.3 L 5951.42,4235.3 Z " />
<path stroke="transparent" fill="#000000" transform="matrix(0.0833333 0 0 0.0833333 -132.542 -217)" d="M 5956.77,4293.75 L 6066.07,4293.75 L 6064.23,4313.75 L 5958.6,4313.75 L 5956.77,4293.75 Z " />
<path stroke="transparent" fill="#000000" transform="matrix(0.0833333 0 0 0.0833333 -132.542 -217)" d="M 5962.12,4352.19 L 6060.71,4352.19 L 6058.88,4372.19 L 5963.95,4372.19 L 5962.12,4352.19 Z " />
<path stroke="transparent" fill="#000000" transform="matrix(0.0833333 0 0 0.0833333 -132.542 -217)" d="M 5967.47,4410.63 L 6055.36,4410.63 L 6053.53,4430.63 L 5969.31,4430.63 L 5967.47,4410.63 Z " />
<path stroke="transparent" fill="#000000" transform="matrix(0.0833333 0 0 0.0833333 -132.542 -217)" d="M 5972.83,4469.08 L 6050.01,4469.08 L 6048.18,4489.08 L 5974.66,4489.08 L 5972.83,4469.08 Z " />
<path stroke="transparent" fill="#000000" transform="matrix(0.0833333 0 0 0.0833333 -132.542 -217)" d="M 5978.18,4527.52 L 6044.66,4527.52 L 6042.83,4547.52 L 5980.01,4547.52 L 5978.18,4527.52 Z " />
<path stroke="transparent" fill="#000000" transform="matrix(0.0833333 0 0 0.0833333 -132.542 -217)" d="M 5983.53,4585.97 L 6039.31,4585.97 L 6037.47,4605.97 L 5985.36,4605.97 L 5983.53,4585.97 Z " />
<path stroke="transparent" fill="#000000" transform="matrix(0.0833333 0 0 0.0833333 -132.542 -217)" d="M 5988.88,4644.41 L 6033.95,4644.41 L 6032.12,4664.41 L 5990.71,4664.41 L 5988.88,4644.41 Z " />
<path stroke="transparent" fill="#000000" transform="matrix(0.0833333 0 0 0.0833333 -132.542 -217)" d="M 5994.23,4702.86 L 6028.6,4702.86 L 6026.77,4722.86 L 5996.07,4722.86 L 5994.23,4702.86 Z " />
<path stroke="transparent" fill="#000000" transform="matrix(0.0833333 0 0 0.0833333 -132.542 -217)" d="M 5999.59,4761.3 L 6023.25,4761.3 L 6021.42,4781.3 L 6001.42,4781.3 L 5999.59,4761.3 Z " />
<path stroke="transparent" fill="#000000" transform="matrix(0.0833333 0 0 0.0833333 -132.542 -217)" d="M 4322.98,4540.84 L 4382.98,4644.77 L 3942.95,4841.72 L 3932.95,4835.3 L 3932.38,4823.43 L 4322.98,4540.84 Z " />
<path stroke="transparent" fill="#000000" transform="matrix(0.0833333 0 0 0.0833333 -132.542 -217)" d="M 3353.38,4055.13 L 3473.38,4055.13 L 3471.04,4075.13 L 3355.73,4075.13 L 3353.38,4055.13 Z " />
<path stroke="transparent" fill="#000000" transform="matrix(0.0833333 0 0 0.0833333 -132.542 -217)" d="M 3360.19,4113.16 L 3466.57,4113.16 L 3464.23,4133.16 L 3362.54,4133.16 L 3360.19,4113.16 Z " />
<path stroke="transparent" fill="#000000" transform="matrix(0.0833333 0 0 0.0833333 -132.542 -217)" d="M 3367,4171.18 L 3459.77,4171.18 L 3457.42,4191.18 L 3369.34,4191.18 L 3367,4171.18 Z " />
<path stroke="transparent" fill="#000000" transform="matrix(0.0833333 0 0 0.0833333 -132.542 -217)" d="M 3373.8,4229.2 L 3452.96,4229.2 L 3450.61,4249.2 L 3376.15,4249.2 L 3373.8,4229.2 Z " />
<path stroke="transparent" fill="#000000" transform="matrix(0.0833333 0 0 0.0833333 -132.542 -217)" d="M 3380.61,4287.22 L 3446.15,4287.22 L 3443.8,4307.22 L 3382.96,4307.22 L 3380.61,4287.22 Z " />
<path stroke="transparent" fill="#000000" transform="matrix(0.0833333 0 0 0.0833333 -132.542 -217)" d="M 3387.42,4345.24 L 3439.34,4345.24 L 3437,4365.24 L 3389.77,4365.24 L 3387.42,4345.24 Z " />
<path stroke="transparent" fill="#000000" transform="matrix(0.0833333 0 0 0.0833333 -132.542 -217)" d="M 3394.23,4403.26 L 3432.54,4403.26 L 3430.19,4423.26 L 3396.57,4423.26 L 3394.23,4403.26 Z " />
<path stroke="transparent" fill="#000000" transform="matrix(0.0833333 0 0 0.0833333 -132.542 -217)" d="M 3401.04,4461.28 L 3425.73,4461.28 L 3423.38,4481.28 L 3403.38,4481.28 L 3401.04,4461.28 Z " />
<path stroke="transparent" fill="#000000" transform="matrix(0.0833333 0 0 0.0833333 -132.542 -217)" d="M 2444.14,4645.01 L 2504.14,4541.09 L 2894.31,4823.43 L 2893.75,4835.3 L 2883.75,4841.72 L 2444.14,4645.01 Z " />
<path stroke="transparent" fill="#000000" transform="matrix(0.0833333 0 0 0.0833333 -132.542 -217)" d="M 1949.5,5501.71 L 1959.5,5484.39 L 2379.11,5726.64 L 2369.11,5743.96 L 1949.5,5501.71 Z " />
<path stroke="transparent" fill="#000000" transform="matrix(0.0833333 0 0 0.0833333 -132.542 -217)" d="M 2450.88,5760.26 L 2390.88,5656.34 L 2409.21,5648.1 L 2467.18,5748.5 L 2450.88,5760.26 Z " />
<path stroke="transparent" fill="#000000" transform="matrix(0.0833333 0 0 0.0833333 -132.542 -217)" d="M 2498.98,5725.57 L 2444.97,5632.03 L 2463.31,5623.79 L 2515.28,5713.81 L 2498.98,5725.57 Z " />
<path stroke="transparent" fill="#000000" transform="matrix(0.0833333 0 0 0.0833333 -132.542 -217)" d="M 2547.08,5690.88 L 2499.07,5607.72 L 2517.41,5599.48 L 2563.38,5679.12 L 2547.08,5690.88 Z " />
<path stroke="transparent" fill="#000000" transform="matrix(0.0833333 0 0 0.0833333 -132.542 -217)" d="M 2595.17,5656.18 L 2553.16,5583.42 L 2571.5,5575.18 L 2611.48,5644.42 L 2595.17,5656.18 Z " />
<path stroke="transparent" fill="#000000" transform="matrix(0.0833333 0 0 0.0833333 -132.542 -217)" d="M 2643.27,5621.49 L 2607.26,5559.11 L 2625.6,5550.87 L 2659.58,5609.73 L 2643.27,5621.49 Z " />
<path stroke="transparent" fill="#000000" transform="matrix(0.0833333 0 0 0.0833333 -132.542 -217)" d="M 2691.37,5586.8 L 2661.35,5534.8 L 2679.69,5526.56 L 2707.68,5575.04 L 2691.37,5586.8 Z " />
<path stroke="transparent" fill="#000000" transform="matrix(0.0833333 0 0 0.0833333 -132.542 -217)" d="M 2739.47,5552.11 L 2715.45,5510.49 L 2733.79,5502.26 L 2755.78,5540.35 L 2739.47,5552.11 Z " />
<path stroke="transparent" fill="#000000" transform="matrix(0.0833333 0 0 0.0833333 -132.542 -217)" d="M 2787.57,5517.41 L 2769.55,5486.19 L 2787.88,5477.95 L 2803.88,5505.65 L 2787.57,5517.41 Z " />
<path stroke="transparent" fill="#000000" transform="matrix(0.0833333 0 0 0.0833333 -132.542 -217)" d="M 2835.67,5482.72 L 2823.64,5461.88 L 2841.98,5453.64 L 2851.98,5470.96 L 2835.67,5482.72 Z " />
<path stroke="transparent" fill="#000000" transform="matrix(0.0833333 0 0 0.0833333 -132.542 -217)" d="M 3511,5690.48 L 3501,5673.16 L 3922.95,5429.53 L 3942.95,5441.07 L 3511,5690.48 Z " />
<path stroke="transparent" fill="#000000" transform="matrix(0.0833333 0 0 0.0833333 -132.542 -217)" d="M 3325.76,5673.17 L 3315.76,5690.49 L 2883.75,5441.07 L 2903.75,5429.53 L 3325.76,5673.17 Z " />
<path stroke="transparent" fill="#000000" transform="matrix(0.0833333 0 0 0.0833333 -132.542 -217)" d="M 2903.75,5429.53 L 2883.75,5441.07 L 2883.75,4841.72 L 2893.75,4835.3 L 2903.75,4841.07 L 2903.75,5429.53 Z " />
<path stroke="transparent" fill="#000000" transform="matrix(0.0833333 0 0 0.0833333 -132.542 -217)" d="M 2903.75,4841.07 L 2893.75,4835.3 L 2894.31,4823.43 L 3413.38,4523.75 L 3413.38,4546.85 L 2903.75,4841.07 Z " />
<path stroke="transparent" fill="#000000" transform="matrix(0.0833333 0 0 0.0833333 -132.542 -217)" d="M 3413.38,4546.85 L 3413.38,4523.75 L 3932.38,4823.43 L 3932.95,4835.3 L 3922.95,4841.07 L 3413.38,4546.85 Z " />
<path stroke="transparent" fill="#000000" transform="matrix(0.0833333 0 0 0.0833333 -132.542 -217)" d="M 3922.95,4841.07 L 3932.95,4835.3 L 3942.95,4841.72 L 3942.95,5441.07 L 3922.95,5429.53 L 3922.95,4841.07 Z " />
<path stroke="transparent" fill="#000000" transform="matrix(0.0833333 0 0 0.0833333 -132.542 -217)" d="M 4389.96,5629.87 L 4329.96,5733.79 L 4313.78,5721.82 L 4371.5,5621.84 L 4389.96,5629.87 Z " />
<path stroke="transparent" fill="#000000" transform="matrix(0.0833333 0 0 0.0833333 -132.542 -217)" d="M 4334.71,5605.84 L 4281.53,5697.95 L 4265.34,5685.98 L 4316.25,5597.81 L 4334.71,5605.84 Z " />
<path stroke="transparent" fill="#000000" transform="matrix(0.0833333 0 0 0.0833333 -132.542 -217)" d="M 4279.45,5581.81 L 4233.09,5662.12 L 4216.91,5650.15 L 4260.99,5573.78 L 4279.45,5581.81 Z " />
<path stroke="transparent" fill="#000000" transform="matrix(0.0833333 0 0 0.0833333 -132.542 -217)" d="M 4224.2,5557.78 L 4184.65,5626.28 L 4168.47,5614.31 L 4205.74,5549.76 L 4224.2,5557.78 Z " />
<path stroke="transparent" fill="#000000" transform="matrix(0.0833333 0 0 0.0833333 -132.542 -217)" d="M 4168.94,5533.76 L 4136.21,5590.45 L 4120.03,5578.47 L 4150.48,5525.73 L 4168.94,5533.76 Z " />
<path stroke="transparent" fill="#000000" transform="matrix(0.0833333 0 0 0.0833333 -132.542 -217)" d="M 4113.69,5509.73 L 4087.78,5554.61 L 4071.59,5542.64 L 4095.23,5501.7 L 4113.69,5509.73 Z " />
<path stroke="transparent" fill="#000000" transform="matrix(0.0833333 0 0 0.0833333 -132.542 -217)" d="M 4058.43,5485.7 L 4039.34,5518.77 L 4023.16,5506.8 L 4039.97,5477.67 L 4058.43,5485.7 Z " />
<path stroke="transparent" fill="#000000" transform="matrix(0.0833333 0 0 0.0833333 -132.542 -217)" d="M 4003.18,5461.67 L 3990.9,5482.94 L 3974.72,5470.96 L 3984.72,5453.64 L 4003.18,5461.67 Z " />
<path stroke="transparent" fill="#000000" transform="matrix(0.0833333 0 0 0.0833333 -132.542 -217)" d="M 4575.2,5733.79 L 4515.2,5629.87 L 4533.66,5621.84 L 4591.38,5721.82 L 4575.2,5733.79 Z " />
<path stroke="transparent" fill="#000000" transform="matrix(0.0833333 0 0 0.0833333 -132.542 -217)" d="M 4623.64,5697.95 L 4570.46,5605.84 L 4588.92,5597.81 L 4639.82,5685.98 L 4623.64,5697.95 Z " />
<path stroke="transparent" fill="#000000" transform="matrix(0.0833333 0 0 0.0833333 -132.542 -217)" d="M 4672.08,5662.12 L 4625.71,5581.81 L 4644.17,5573.78 L 4688.26,5650.15 L 4672.08,5662.12 Z " />
<path stroke="transparent" fill="#000000" transform="matrix(0.0833333 0 0 0.0833333 -132.542 -217)" d="M 4720.51,5626.28 L 4680.97,5557.78 L 4699.43,5549.76 L 4736.69,5614.31 L 4720.51,5626.28 Z " />
<path stroke="transparent" fill="#000000" transform="matrix(0.0833333 0 0 0.0833333 -132.542 -217)" d="M 4768.95,5590.45 L 4736.22,5533.76 L 4754.68,5525.73 L 4785.13,5578.47 L 4768.95,5590.45 Z " />
<path stroke="transparent" fill="#000000" transform="matrix(0.0833333 0 0 0.0833333 -132.542 -217)" d="M 4817.39,5554.61 L 4791.48,5509.73 L 4809.94,5501.7 L 4833.57,5542.64 L 4817.39,5554.61 Z " />
<path stroke="transparent" fill="#000000" transform="matrix(0.0833333 0 0 0.0833333 -132.542 -217)" d="M 4865.83,5518.77 L 4846.73,5485.7 L 4865.19,5477.67 L 4882.01,5506.8 L 4865.83,5518.77 Z " />
<path stroke="transparent" fill="#000000" transform="matrix(0.0833333 0 0 0.0833333 -132.542 -217)" d="M 4914.26,5482.94 L 4901.99,5461.67 L 4920.45,5453.64 L 4930.45,5470.96 L 4914.26,5482.94 Z " />
<path stroke="transparent" fill="#000000" transform="matrix(0.0833333 0 0 0.0833333 -132.542 -217)" d="M 5800.44,6249.86 L 5783.12,6259.86 L 5491.78,5755.3 L 5491.78,5735.3 L 5505.44,5738.96 L 5800.44,6249.86 Z " />
<path stroke="transparent" fill="#000000" transform="matrix(0.0833333 0 0 0.0833333 -132.542 -217)" d="M 5200.44,6259.86 L 5183.12,6249.86 L 5478.12,5738.96 L 5491.78,5735.3 L 5491.78,5755.3 L 5200.44,6259.86 Z " />
<path stroke="transparent" fill="#000000" transform="matrix(0.0833333 0 0 0.0833333 -132.542 -217)" d="M 5505.44,5738.96 L 5491.78,5735.3 L 5491.78,5723.75 L 6001.42,5429.53 L 6011.42,5435.3 L 5999.57,5453.69 L 5505.44,5738.96 Z " />
<path stroke="transparent" fill="#000000" transform="matrix(0.0833333 0 0 0.0833333 -132.542 -217)" d="M 5491.78,5723.75 L 5491.78,5735.3 L 5478.12,5738.96 L 4962.22,5441.07 L 4982.22,5429.53 L 5491.78,5723.75 Z " />
<path stroke="transparent" fill="#000000" transform="matrix(0.0833333 0 0 0.0833333 -132.542 -217)" d="M 4982.22,5429.53 L 4962.22,5441.07 L 4962.22,4829.53 L 4982.22,4841.07 L 4982.22,5429.53 Z " />
<path stroke="transparent" fill="#000000" transform="matrix(0.0833333 0 0 0.0833333 -132.542 -217)" d="M 4982.22,4841.07 L 4962.22,4829.53 L 5491.78,4523.75 L 5491.78,4546.85 L 4982.22,4841.07 Z " />
<path stroke="transparent" fill="#000000" transform="matrix(0.0833333 0 0 0.0833333 -132.542 -217)" d="M 5491.78,4546.85 L 5491.78,4523.75 L 6011.42,4823.75 L 6011.42,4835.3 L 6001.42,4841.07 L 5491.78,4546.85 Z " />
<path stroke="transparent" fill="#000000" transform="matrix(0.0833333 0 0 0.0833333 -132.542 -217)" d="M 6021.42,4841.07 L 6011.42,4835.3 L 6011.42,4823.75 L 6521.05,4529.53 L 6531.05,4535.3 L 6519.21,4553.69 L 6021.42,4841.07 Z " />
<path stroke="transparent" fill="#000000" transform="matrix(0.0833333 0 0 0.0833333 -132.542 -217)" d="M 6001.42,4841.07 L 6011.42,4835.3 L 6021.42,4841.07 L 6021.42,5429.53 L 6011.42,5435.3 L 6001.42,5429.53 L 6001.42,4841.07 Z " />
<path stroke="transparent" fill="#000000" transform="matrix(0.0833333 0 0 0.0833333 -132.542 -217)" d="M 6531.05,5723.75 L 6531.05,5746.85 L 6023.27,5453.69 L 6011.42,5435.3 L 6021.42,5429.53 L 6531.05,5723.75 Z " />
<path stroke="transparent" fill="#000000" transform="matrix(0.0833333 0 0 0.0833333 -132.542 -217)" d="M 6531.05,5746.85 L 6531.05,5723.75 L 7040.62,5429.53 L 7060.62,5441.07 L 6531.05,5746.85 Z " />
<path stroke="transparent" fill="#000000" transform="matrix(0.0833333 0 0 0.0833333 -132.542 -217)" d="M 7060.62,5441.07 L 7040.62,5429.53 L 7040.62,4841.07 L 7050.62,4835.3 L 7060.62,4841.07 L 7060.62,5441.07 Z " />
<path stroke="transparent" fill="#000000" transform="matrix(0.0833333 0 0 0.0833333 -132.542 -217)" d="M 7580.25,4541.07 L 7560.25,4529.53 L 7560.25,3941.07 L 7570.25,3935.3 L 7580.25,3954.37 L 7580.25,4541.07 Z " />
<path stroke="transparent" fill="#000000" transform="matrix(0.0833333 0 0 0.0833333 -132.542 -217)" d="M 7560.25,4529.53 L 7580.25,4541.07 L 7060.62,4841.07 L 7050.62,4835.3 L 7050.62,4823.75 L 7560.25,4529.53 Z " />
<path stroke="transparent" fill="#000000" transform="matrix(0.0833333 0 0 0.0833333 -132.542 -217)" d="M 7493.25,4485.07 L 7503.25,4502.39 L 7055.62,4760.82 L 7045.62,4743.5 L 7493.25,4485.07 Z " />
<path stroke="transparent" fill="#000000" transform="matrix(0.0833333 0 0 0.0833333 -132.542 -217)" d="M 7050.62,4823.75 L 7050.62,4835.3 L 7040.62,4841.07 L 6542.9,4553.69 L 6531.05,4535.3 L 6541.05,4529.53 L 7050.62,4823.75 Z " />
<path stroke="transparent" fill="#000000" transform="matrix(0.0833333 0 0 0.0833333 -132.542 -217)" d="M 6521.05,3929.53 L 6541.05,3941.07 L 6541.05,4529.53 L 6531.05,4535.3 L 6521.05,4529.53 L 6521.05,3929.53 Z " />
<path stroke="transparent" fill="#000000" transform="matrix(0.0833333 0 0 0.0833333 -132.542 -217)" d="M 6541.05,3941.07 L 6521.05,3929.53 L 7050.62,3623.75 L 7050.62,3646.85 L 6541.05,3941.07 Z " />
<path stroke="transparent" fill="#000000" transform="matrix(0.0833333 0 0 0.0833333 -132.542 -217)" d="M 7050.62,3646.85 L 7050.62,3623.75 L 7570.25,3923.75 L 7570.25,3935.3 L 7560.25,3941.07 L 7050.62,3646.85 Z " />
<path stroke="transparent" fill="#000000" transform="matrix(0.0833333 0 0 0.0833333 -132.542 -217)" d="M 8119.89,4183.34 L 8059.89,4287.26 L 7580.25,3954.37 L 7570.25,3935.3 L 7591.77,3934.43 L 8119.89,4183.34 Z " />
<text x="0" y="0" stroke="transparent" fill="#000000" transform="matrix(0.0833333 0 0 0.0833333 362.41 292.442)" style="font:normal normal normal 200px 'Arial'" >
H</text>
<path stroke="transparent" fill="#000000" transform="matrix(0.0833333 0 0 0.0833333 -132.542 -217)" d="M 6071.42,5932.63 L 5951.42,5932.63 L 5999.57,5453.69 L 6011.42,5435.3 L 6023.27,5453.69 L 6071.42,5932.63 Z " />
<text x="0" y="0" stroke="transparent" fill="#000000" transform="matrix(0.0833333 0 0 0.0833333 405.713 217.442)" style="font:normal normal normal 200px 'Arial'" >
H</text>
<path stroke="transparent" fill="#000000" transform="matrix(0.0833333 0 0 0.0833333 -132.542 -217)" d="M 6591.05,5032.63 L 6471.05,5032.63 L 6519.21,4553.69 L 6531.05,4535.3 L 6542.9,4553.69 L 6591.05,5032.63 Z " />
</svg>
