<?xml version="1.0" standalone="no" ?>
<!DOCTYPE svg PUBLIC "-//W3C//DTD SVG 1.1//EN" "http://www.w3.org/Graphics/SVG/1.1/DTD/svg11.dtd">
<svg width="602px" height="344px" viewBox="0 0 602 344" style="background-color: #ffffff00" xmlns="http://www.w3.org/2000/svg" xmlns:xlink="http://www.w3.org/1999/xlink" version="1.1" >
<text x="0" y="0" stroke="transparent" fill="#000000" transform="matrix(0.0833333 0 0 0.0833333 326.148 266.15)" style="font:normal normal normal 200px 'Arial'" >
O</text>
<text x="0" y="0" stroke="transparent" fill="#000000" transform="matrix(0.0833333 0 0 0.0833333 133.241 128.146)" style="font:normal normal normal 200px 'Arial'" >
O</text>
<text x="0" y="0" stroke="transparent" fill="#000000" transform="matrix(0.0833333 0 0 0.0833333 3.33675 303.146)" style="font:normal normal normal 200px 'Arial'" >
O</text>
<text x="0" y="0" stroke="transparent" fill="#000000" transform="matrix(0.0833333 0 0 0.0833333 263.144 303.146)" style="font:normal normal normal 200px 'Arial'" >
OH</text>
<path stroke="transparent" fill="#000000" transform="matrix(0.0833333 0 0 0.0833333 -146.25 -541.833)" d="M 5571.8,8073.69 L 5561.37,8076.34 L 5551.14,8069.15 L 5530.09,7481.24 L 5590.78,7505.71 L 5654.51,7481.48 L 5571.8,8073.69 Z " />
<path stroke="transparent" fill="#000000" transform="matrix(0.0833333 0 0 0.0833333 -146.25 -541.833)" d="M 5926.4,8561.75 L 5901.68,8561.75 L 5557.55,8088.1 L 5561.37,8076.34 L 5571.8,8073.69 L 5926.4,8561.75 Z " />
<path stroke="transparent" fill="#000000" transform="matrix(0.0833333 0 0 0.0833333 -146.25 -541.833)" d="M 5565.19,9058.92 L 5557.55,9035.41 L 5901.68,8561.75 L 5926.4,8561.75 L 5565.19,9058.92 Z " />
<path stroke="transparent" fill="#000000" transform="matrix(0.0833333 0 0 0.0833333 -146.25 -541.833)" d="M 5757.79,9502.82 L 5738.76,9509 L 5578.01,9014.25 L 5597.03,9008.07 L 5757.79,9502.82 Z " />
<path stroke="transparent" fill="#000000" transform="matrix(0.0833333 0 0 0.0833333 -146.25 -541.833)" d="M 5689.31,9525.07 L 5670.29,9531.25 L 5509.54,9036.5 L 5528.56,9030.32 L 5689.31,9525.07 Z " />
<path stroke="transparent" fill="#000000" transform="matrix(0.0833333 0 0 0.0833333 -146.25 -541.833)" d="M 4991.88,8872.64 L 4990.73,8861.75 L 5000.73,8854.49 L 5557.55,9035.41 L 5565.19,9058.92 L 4991.88,8872.64 Z " />
<path stroke="transparent" fill="#000000" transform="matrix(0.0833333 0 0 0.0833333 -146.25 -541.833)" d="M 4980.73,8267.53 L 4990.73,8261.75 L 5000.73,8269.02 L 5000.73,8854.49 L 4990.73,8861.75 L 4980.73,8855.98 L 4980.73,8267.53 Z " />
<path stroke="transparent" fill="#000000" transform="matrix(0.0833333 0 0 0.0833333 -146.25 -541.833)" d="M 5000.73,8269.02 L 4990.73,8261.75 L 5001.91,8247.61 L 5551.14,8069.15 L 5561.37,8076.34 L 5557.55,8088.1 L 5000.73,8269.02 Z " />
<path stroke="transparent" fill="#000000" transform="matrix(0.0833333 0 0 0.0833333 -146.25 -541.833)" d="M 4471.12,7973.3 L 4471.12,7950.21 L 4979.22,8243.56 L 4990.73,8261.75 L 4980.73,8267.53 L 4471.12,7973.3 Z " />
<path stroke="transparent" fill="#000000" transform="matrix(0.0833333 0 0 0.0833333 -146.25 -541.833)" d="M 3961.5,8267.53 L 3941.5,8255.98 L 4471.12,7950.21 L 4471.12,7973.3 L 3961.5,8267.53 Z " />
<path stroke="transparent" fill="#000000" transform="matrix(0.0833333 0 0 0.0833333 -146.25 -541.833)" d="M 3508.92,8059.35 L 3518.92,8042.03 L 3956.5,8294.66 L 3946.5,8311.98 L 3508.92,8059.35 Z " />
<path stroke="transparent" fill="#000000" transform="matrix(0.0833333 0 0 0.0833333 -146.25 -541.833)" d="M 3544.92,7996.99 L 3554.92,7979.67 L 3992.5,8232.31 L 3982.5,8249.63 L 3544.92,7996.99 Z " />
<path stroke="transparent" fill="#000000" transform="matrix(0.0833333 0 0 0.0833333 -146.25 -541.833)" d="M 3961.5,8855.98 L 3951.5,8861.75 L 3941.5,8855.98 L 3941.5,8255.98 L 3961.5,8267.53 L 3961.5,8855.98 Z " />
<path stroke="transparent" fill="#000000" transform="matrix(0.0833333 0 0 0.0833333 -146.25 -541.833)" d="M 4471.12,9150.21 L 4471.12,9161.75 L 4461.12,9167.53 L 3951.5,8873.3 L 3951.5,8861.75 L 3961.5,8855.98 L 4471.12,9150.21 Z " />
<path stroke="transparent" fill="#000000" transform="matrix(0.0833333 0 0 0.0833333 -146.25 -541.833)" d="M 4476.12,9069.96 L 4466.12,9087.28 L 4018.5,8828.85 L 4028.5,8811.52 L 4476.12,9069.96 Z " />
<path stroke="transparent" fill="#000000" transform="matrix(0.0833333 0 0 0.0833333 -146.25 -541.833)" d="M 4481.12,9167.53 L 4471.12,9161.75 L 4471.12,9150.21 L 4980.73,8855.98 L 4990.73,8861.75 L 4991.88,8872.64 L 4481.12,9167.53 Z " />
<path stroke="transparent" fill="#000000" transform="matrix(0.0833333 0 0 0.0833333 -146.25 -541.833)" d="M 4481.12,9755.34 L 4471.12,9761.75 L 4461.12,9755.98 L 4461.12,9167.53 L 4471.12,9161.75 L 4481.12,9167.53 L 4481.12,9755.34 Z " />
<path stroke="transparent" fill="#000000" transform="matrix(0.0833333 0 0 0.0833333 -146.25 -541.833)" d="M 3951.5,10073.3 L 3951.5,10050.2 L 4461.12,9755.98 L 4471.12,9761.75 L 4470.56,9773.62 L 3951.5,10073.3 Z " />
<path stroke="transparent" fill="#000000" transform="matrix(0.0833333 0 0 0.0833333 -146.25 -541.833)" d="M 3431.89,9773.3 L 3431.89,9761.75 L 3441.89,9755.98 L 3951.5,10050.2 L 3951.5,10073.3 L 3431.89,9773.3 Z " />
<path stroke="transparent" fill="#000000" transform="matrix(0.0833333 0 0 0.0833333 -146.25 -541.833)" d="M 3421.89,9167.53 L 3431.89,9161.75 L 3441.89,9167.53 L 3441.89,9755.98 L 3431.89,9761.75 L 3421.89,9755.98 L 3421.89,9167.53 Z " />
<path stroke="transparent" fill="#000000" transform="matrix(0.0833333 0 0 0.0833333 -146.25 -541.833)" d="M 3441.89,9167.53 L 3431.89,9161.75 L 3443.4,9143.56 L 3941.5,8855.98 L 3951.5,8861.75 L 3951.5,8873.3 L 3441.89,9167.53 Z " />
<path stroke="transparent" fill="#000000" transform="matrix(0.0833333 0 0 0.0833333 -146.25 -541.833)" d="M 2912.27,8873.3 L 2912.27,8850.21 L 3420.37,9143.56 L 3431.89,9161.75 L 3421.89,9167.53 L 2912.27,8873.3 Z " />
<path stroke="transparent" fill="#000000" transform="matrix(0.0833333 0 0 0.0833333 -146.25 -541.833)" d="M 2402.66,9167.53 L 2382.66,9155.98 L 2912.27,8850.21 L 2912.27,8873.3 L 2402.66,9167.53 Z " />
<path stroke="transparent" fill="#000000" transform="matrix(0.0833333 0 0 0.0833333 -146.25 -541.833)" d="M 2402.66,9755.98 L 2382.66,9767.53 L 2382.66,9155.98 L 2402.66,9167.53 L 2402.66,9755.98 Z " />
<path stroke="transparent" fill="#000000" transform="matrix(0.0833333 0 0 0.0833333 -146.25 -541.833)" d="M 1988.66,10048.1 L 1978.66,10030.8 L 2423.66,9773.88 L 2433.66,9791.2 L 1988.66,10048.1 Z " />
<path stroke="transparent" fill="#000000" transform="matrix(0.0833333 0 0 0.0833333 -146.25 -541.833)" d="M 1952.66,9985.76 L 1942.66,9968.44 L 2387.66,9711.52 L 2397.66,9728.85 L 1952.66,9985.76 Z " />
<path stroke="transparent" fill="#000000" transform="matrix(0.0833333 0 0 0.0833333 -146.25 -541.833)" d="M 2912.27,10050.2 L 2912.27,10061.8 L 2898.61,10065.4 L 2382.66,9767.53 L 2402.66,9755.98 L 2912.27,10050.2 Z " />
<path stroke="transparent" fill="#000000" transform="matrix(0.0833333 0 0 0.0833333 -146.25 -541.833)" d="M 2925.93,10065.4 L 2912.27,10061.8 L 2912.27,10050.2 L 3421.89,9755.98 L 3431.89,9761.75 L 3431.89,9773.3 L 2925.93,10065.4 Z " />
<path stroke="transparent" fill="#000000" transform="matrix(0.0833333 0 0 0.0833333 -146.25 -541.833)" d="M 3220.93,10576.4 L 3203.61,10586.4 L 2912.27,10081.8 L 2912.27,10061.8 L 2925.93,10065.4 L 3220.93,10576.4 Z " />
<path stroke="transparent" fill="#000000" transform="matrix(0.0833333 0 0 0.0833333 -146.25 -541.833)" d="M 2620.93,10586.4 L 2603.61,10576.4 L 2898.61,10065.4 L 2912.27,10061.8 L 2912.27,10081.8 L 2620.93,10586.4 Z " />
<path stroke="transparent" fill="#000000" transform="matrix(0.0833333 0 0 0.0833333 -146.25 -541.833)" d="M 3371.89,8561.75 L 3491.89,8561.75 L 3443.4,9143.56 L 3431.89,9161.75 L 3420.37,9143.56 L 3371.89,8561.75 Z " />
<path stroke="transparent" fill="#000000" transform="matrix(0.0833333 0 0 0.0833333 -146.25 -541.833)" d="M 4928.11,9956.32 L 4868.11,10060.2 L 4470.56,9773.62 L 4471.12,9761.75 L 4481.12,9755.34 L 4928.11,9956.32 Z " />
<path stroke="transparent" fill="#000000" transform="matrix(0.0833333 0 0 0.0833333 -146.25 -541.833)" d="M 4930.73,7661.75 L 5050.73,7661.75 L 5001.91,8247.61 L 4990.73,8261.75 L 4979.22,8243.56 L 4930.73,7661.75 Z " />
<path stroke="transparent" fill="#000000" transform="matrix(0.0833333 0 0 0.0833333 -146.25 -541.833)" d="M 5050.73,9461.75 L 4930.73,9461.75 L 4932.56,9441.75 L 5048.9,9441.75 L 5050.73,9461.75 Z " />
<path stroke="transparent" fill="#000000" transform="matrix(0.0833333 0 0 0.0833333 -146.25 -541.833)" d="M 5045.38,9403.31 L 4936.08,9403.31 L 4937.92,9383.31 L 5043.55,9383.31 L 5045.38,9403.31 Z " />
<path stroke="transparent" fill="#000000" transform="matrix(0.0833333 0 0 0.0833333 -146.25 -541.833)" d="M 5040.03,9344.87 L 4941.44,9344.87 L 4943.27,9324.87 L 5038.2,9324.87 L 5040.03,9344.87 Z " />
<path stroke="transparent" fill="#000000" transform="matrix(0.0833333 0 0 0.0833333 -146.25 -541.833)" d="M 5034.68,9286.42 L 4946.79,9286.42 L 4948.62,9266.42 L 5032.84,9266.42 L 5034.68,9286.42 Z " />
<path stroke="transparent" fill="#000000" transform="matrix(0.0833333 0 0 0.0833333 -146.25 -541.833)" d="M 5029.32,9227.98 L 4952.14,9227.98 L 4953.97,9207.98 L 5027.49,9207.98 L 5029.32,9227.98 Z " />
<path stroke="transparent" fill="#000000" transform="matrix(0.0833333 0 0 0.0833333 -146.25 -541.833)" d="M 5023.97,9169.53 L 4957.49,9169.53 L 4959.32,9149.53 L 5022.14,9149.53 L 5023.97,9169.53 Z " />
<path stroke="transparent" fill="#000000" transform="matrix(0.0833333 0 0 0.0833333 -146.25 -541.833)" d="M 5018.62,9111.09 L 4962.84,9111.09 L 4964.68,9091.09 L 5016.79,9091.09 L 5018.62,9111.09 Z " />
<path stroke="transparent" fill="#000000" transform="matrix(0.0833333 0 0 0.0833333 -146.25 -541.833)" d="M 5013.27,9052.64 L 4968.2,9052.64 L 4970.03,9032.64 L 5011.44,9032.64 L 5013.27,9052.64 Z " />
<path stroke="transparent" fill="#000000" transform="matrix(0.0833333 0 0 0.0833333 -146.25 -541.833)" d="M 5007.92,8994.2 L 4973.55,8994.2 L 4975.38,8974.2 L 5006.08,8974.2 L 5007.92,8994.2 Z " />
<path stroke="transparent" fill="#000000" transform="matrix(0.0833333 0 0 0.0833333 -146.25 -541.833)" d="M 5002.56,8935.75 L 4978.9,8935.75 L 4980.73,8915.75 L 5000.73,8915.75 L 5002.56,8935.75 Z " />
<path stroke="transparent" fill="#000000" transform="matrix(0.0833333 0 0 0.0833333 -146.25 -541.833)" d="M 5070.04,7207.49 L 5080.27,7190.3 L 5590.93,7494.16 L 5590.78,7505.71 L 5530.09,7481.24 L 5070.04,7207.49 Z " />
<path stroke="transparent" fill="#000000" transform="matrix(0.0833333 0 0 0.0833333 -146.25 -541.833)" d="M 6114.45,7201.03 L 6114.14,7224.12 L 5654.51,7481.48 L 5590.78,7505.71 L 5590.93,7494.16 L 6114.45,7201.03 Z " />
<path stroke="transparent" fill="#000000" transform="matrix(0.0833333 0 0 0.0833333 -146.25 -541.833)" d="M 6074.23,7141.03 L 6084.01,7158.48 L 5596.76,7431.3 L 5586.99,7413.85 L 6074.23,7141.03 Z " />
<path stroke="transparent" fill="#000000" transform="matrix(0.0833333 0 0 0.0833333 -146.25 -541.833)" d="M 6630.07,7507.85 L 6629.77,7530.94 L 6114.14,7224.12 L 6114.45,7201.03 L 6630.07,7507.85 Z " />
<path stroke="transparent" fill="#000000" transform="matrix(0.0833333 0 0 0.0833333 -146.25 -541.833)" d="M 7153.59,7214.71 L 7153.28,7237.8 L 6629.77,7530.94 L 6630.07,7507.85 L 7153.59,7214.71 Z " />
<path stroke="transparent" fill="#000000" transform="matrix(0.0833333 0 0 0.0833333 -146.25 -541.833)" d="M 7669.21,7521.53 L 7669.06,7533.07 L 7658.98,7538.71 L 7153.28,7237.8 L 7153.59,7214.71 L 7669.21,7521.53 Z " />
<path stroke="transparent" fill="#000000" transform="matrix(0.0833333 0 0 0.0833333 -146.25 -541.833)" d="M 8192.73,7228.39 L 8192.43,7251.49 L 7678.98,7538.98 L 7669.06,7533.07 L 7669.21,7521.53 L 8192.73,7228.39 Z " />
<path stroke="transparent" fill="#000000" transform="matrix(0.0833333 0 0 0.0833333 -146.25 -541.833)" d="M 7671.16,8133.15 L 7651.16,8132.89 L 7658.98,7538.71 L 7669.06,7533.07 L 7678.98,7538.98 L 7671.16,8133.15 Z " />
<text x="0" y="0" stroke="transparent" fill="#000000" transform="matrix(0.0833333 0 0 0.0833333 572.933 93.5629)" style="font:normal normal normal 200px 'Arial'" >
OH</text>
<path stroke="transparent" fill="#000000" transform="matrix(0.0833333 0 0 0.0833333 -146.25 -541.833)" d="M 8621.39,7483.46 L 8611.16,7500.65 L 8192.43,7251.49 L 8192.73,7228.39 L 8621.39,7483.46 Z " />
<text x="0" y="0" stroke="transparent" fill="#000000" transform="matrix(0.0833333 0 0 0.0833333 530.623 17.9993)" style="font:normal normal normal 200px 'Arial'" >
O</text>
<path stroke="transparent" fill="#000000" transform="matrix(0.0833333 0 0 0.0833333 -146.25 -541.833)" d="M 8152.9,6759.2 L 8172.9,6759.47 L 8166.31,7260.38 L 8146.31,7260.12 L 8152.9,6759.2 Z " />
<path stroke="transparent" fill="#000000" transform="matrix(0.0833333 0 0 0.0833333 -146.25 -541.833)" d="M 8224.9,6760.15 L 8244.89,6760.41 L 8238.3,7261.33 L 8218.3,7261.07 L 8224.9,6760.15 Z " />
<text x="0" y="0" stroke="transparent" fill="#000000" transform="matrix(0.0833333 0 0 0.0833333 399.085 141.278)" style="font:normal normal normal 200px 'Arial'" >
O</text>
<path stroke="transparent" fill="#000000" transform="matrix(0.0833333 0 0 0.0833333 -146.25 -541.833)" d="M 6669.4,8014.79 L 6649.4,8014.53 L 6656.19,7498.95 L 6676.19,7499.21 L 6669.4,8014.79 Z " />
<path stroke="transparent" fill="#000000" transform="matrix(0.0833333 0 0 0.0833333 -146.25 -541.833)" d="M 6597.4,8013.85 L 6577.41,8013.58 L 6584.19,7498 L 6604.19,7498.27 L 6597.4,8013.85 Z " />
</svg>
