<?xml version="1.0" standalone="no" ?>
<!DOCTYPE svg PUBLIC "-//W3C//DTD SVG 1.1//EN" "http://www.w3.org/Graphics/SVG/1.1/DTD/svg11.dtd">
<svg width="194px" height="121px" viewBox="0 0 194 121" style="background-color: #ffffff00" xmlns="http://www.w3.org/2000/svg" xmlns:xlink="http://www.w3.org/1999/xlink" version="1.1" >
<text x="0" y="0" stroke="none" fill="#000000" transform="matrix(0.0666667 0 0 0.0666667 136.532 14.6722)" font-style="normal" font-weight="normal" font-size="200px" font-family="Arial" >
O</text>
<text x="0" y="0" stroke="none" fill="#000000" transform="matrix(0.0666667 0 0 0.0666667 171.175 74.6722)" font-style="normal" font-weight="normal" font-size="200px" font-family="Arial" >
OH</text>
<text x="0" y="0" stroke="none" fill="#000000" transform="matrix(0.0666667 0 0 0.0666667 102.295 114.672)" font-style="normal" font-weight="normal" font-size="200px" font-family="Arial" >
NH</text>
<text x="0" y="0" stroke="none" fill="#000000" transform="matrix(0.0666667 0 0 0.0666667 121.553 117.606)" font-style="normal" font-weight="normal" font-size="150px" font-family="Arial" >
2</text>
<path stroke="none" fill="#000000" transform="matrix(0.0666667 0 0 0.0666667 -251.859 -224)" d="M 5857.86,3621.92 L 5877.86,3621.92 L 5877.86,4122.87 L 5857.86,4122.87 L 5857.86,3621.92 Z " />
<path stroke="none" fill="#000000" transform="matrix(0.0666667 0 0 0.0666667 -251.859 -224)" d="M 5929.86,3621.92 L 5949.86,3621.92 L 5949.86,4122.87 L 5929.86,4122.87 L 5929.86,3621.92 Z " />
<path stroke="none" fill="#000000" transform="matrix(0.0666667 0 0 0.0666667 -251.859 -224)" d="M 5903.87,4113.63 L 5903.86,4090.54 L 6335.88,4339.95 L 6325.88,4357.27 L 5903.87,4113.63 Z " />
<path stroke="none" fill="#000000" transform="matrix(0.0666667 0 0 0.0666667 -251.859 -224)" d="M 5903.86,4090.54 L 5903.87,4113.63 L 5394.85,4407.54 L 5384.3,4402.08 L 5384.3,4390.54 L 5903.86,4090.54 Z " />
<path stroke="none" fill="#000000" transform="matrix(0.0666667 0 0 0.0666667 -251.859 -224)" d="M 5444.3,4899.25 L 5324.3,4899.25 L 5373.75,4407.54 L 5384.3,4402.08 L 5394.85,4407.54 L 5444.3,4899.25 Z " />
<path stroke="none" fill="#000000" transform="matrix(0.0666667 0 0 0.0666667 -251.859 -224)" d="M 5384.3,4390.54 L 5384.3,4402.08 L 5373.75,4407.54 L 4864.66,4113.63 L 4864.66,4102.08 L 4875.12,4096.57 L 5384.3,4390.54 Z " />
<path stroke="none" fill="#000000" transform="matrix(0.0666667 0 0 0.0666667 -251.859 -224)" d="M 4804.66,3502.08 L 4924.66,3502.08 L 4875.12,4096.57 L 4864.66,4102.08 L 4854.21,4096.57 L 4804.66,3502.08 Z " />
<path stroke="none" fill="#000000" transform="matrix(0.0666667 0 0 0.0666667 -251.859 -224)" d="M 4854.21,4096.57 L 4864.66,4102.08 L 4864.66,4113.63 L 4345.03,4413.63 L 4345.03,4390.54 L 4854.21,4096.57 Z " />
<path stroke="none" fill="#000000" transform="matrix(0.0666667 0 0 0.0666667 -251.859 -224)" d="M 4345.03,4390.54 L 4345.03,4413.63 L 3820.47,4110.74 L 3830.47,4093.42 L 4345.03,4390.54 Z " />
</svg>
