<?xml version="1.0" standalone="no" ?>
<!DOCTYPE svg PUBLIC "-//W3C//DTD SVG 1.1//EN" "http://www.w3.org/Graphics/SVG/1.1/DTD/svg11.dtd">
<svg width="180px" height="127px" viewBox="0 0 180 127" style="background-color: #ffffff00" xmlns="http://www.w3.org/2000/svg" xmlns:xlink="http://www.w3.org/1999/xlink" version="1.1" >
<path stroke="transparent" fill="#000000" transform="matrix(0.0666667 0 0 0.0666667 -116.787 -143.333)" d="M 2322.58,2499.23 L 2322.58,2510.77 L 2312.58,2516.55 L 1797.96,2219.43 L 1807.96,2202.11 L 2322.58,2499.23 Z " />
<path stroke="transparent" fill="#000000" transform="matrix(0.0666667 0 0 0.0666667 -116.787 -143.333)" d="M 2842.19,2199.23 L 2842.19,2222.32 L 2332.58,2516.55 L 2322.58,2510.77 L 2322.58,2499.23 L 2842.19,2199.23 Z " />
<path stroke="transparent" fill="#000000" transform="matrix(0.0666667 0 0 0.0666667 -116.787 -143.333)" d="M 2837.19,2285.25 L 2847.19,2302.57 L 2399.58,2561 L 2389.58,2543.68 L 2837.19,2285.25 Z " />
<path stroke="transparent" fill="#000000" transform="matrix(0.0666667 0 0 0.0666667 -116.787 -143.333)" d="M 3371.81,2505 L 3351.81,2516.55 L 2842.19,2222.32 L 2842.19,2199.23 L 3371.81,2505 Z " />
<path stroke="transparent" fill="#000000" transform="matrix(0.0666667 0 0 0.0666667 -116.787 -143.333)" d="M 3371.81,3104.47 L 3361.81,3110.77 L 3351.81,3105 L 3351.81,2516.55 L 3371.81,2505 L 3371.81,3104.47 Z " />
<path stroke="transparent" fill="#000000" transform="matrix(0.0666667 0 0 0.0666667 -116.787 -143.333)" d="M 2842.19,3422.32 L 2842.19,3399.23 L 3351.81,3105 L 3361.81,3110.77 L 3361.35,3122.59 L 2842.19,3422.32 Z " />
<path stroke="transparent" fill="#000000" transform="matrix(0.0666667 0 0 0.0666667 -116.787 -143.333)" d="M 2312.58,3116.55 L 2332.58,3105 L 2842.19,3399.23 L 2842.19,3422.32 L 2312.58,3116.55 Z " />
<path stroke="transparent" fill="#000000" transform="matrix(0.0666667 0 0 0.0666667 -116.787 -143.333)" d="M 2332.58,3105 L 2312.58,3116.55 L 2312.58,2516.55 L 2322.58,2510.77 L 2332.58,2516.55 L 2332.58,3105 Z " />
<path stroke="transparent" fill="#000000" transform="matrix(0.0666667 0 0 0.0666667 -116.787 -143.333)" d="M 3933.44,3369.19 L 3833.26,3450.13 L 3361.35,3122.59 L 3361.81,3110.77 L 3371.81,3104.47 L 3933.44,3369.19 Z " />
<path stroke="transparent" fill="#000000" transform="matrix(0.0666667 0 0 0.0666667 -116.787 -143.333)" d="M 3927.42,4010.77 L 3907.42,4010.77 L 3907.42,3389.99 L 3927.42,3389.99 L 3927.42,4010.77 Z " />
<path stroke="transparent" fill="#000000" transform="matrix(0.0666667 0 0 0.0666667 -116.787 -143.333)" d="M 3855.42,4010.77 L 3835.42,4010.77 L 3835.42,3389.99 L 3855.42,3389.99 L 3855.42,4010.77 Z " />
<path stroke="transparent" fill="#000000" transform="matrix(0.0666667 0 0 0.0666667 -116.787 -143.333)" d="M 4396.04,3102.11 L 4406.04,3119.43 L 3833.26,3450.13 L 3933.44,3369.19 L 4396.04,3102.11 Z " />
</svg>
