<?xml version="1.0" standalone="no" ?>
<!DOCTYPE svg PUBLIC "-//W3C//DTD SVG 1.1//EN" "http://www.w3.org/Graphics/SVG/1.1/DTD/svg11.dtd">
<svg width="250px" height="257px" viewBox="0 0 250 257" style="background-color: #ffffff00" xmlns="http://www.w3.org/2000/svg" xmlns:xlink="http://www.w3.org/1999/xlink" version="1.1" >
<text x="0" y="0" stroke="transparent" fill="#000000" transform="matrix(0.0666667 0 0 0.0666667 164.055 14.0705)" style="font:normal normal normal 200px 'Arial'" >
O</text>
<text x="0" y="0" stroke="transparent" fill="#000000" transform="matrix(0.0666667 0 0 0.0666667 15.8637 14.0705)" style="font:normal normal normal 200px 'Arial'" >
HO</text>
<text x="0" y="0" stroke="transparent" fill="#000000" transform="matrix(0.0666667 0 0 0.0666667 199.098 154.073)" style="font:normal normal normal 200px 'Arial'" >
N</text>
<text x="0" y="0" stroke="transparent" fill="#000000" transform="matrix(0.0666667 0 0 0.0666667 208.727 148.873)" style="font:normal normal normal 150px 'Arial'" >
+</text>
<text x="0" y="0" stroke="transparent" fill="#000000" transform="matrix(0.0666667 0 0 0.0666667 202.231 190.537)" style="font:normal normal normal 200px 'Arial'" >
O</text>
<text x="0" y="0" stroke="transparent" fill="#000000" transform="matrix(0.0666667 0 0 0.0666667 233.338 134.071)" style="font:normal normal normal 200px 'Arial'" >
O</text>
<text x="0" y="0" stroke="transparent" fill="#000000" transform="matrix(0.0666667 0 0 0.0666667 243.738 128.871)" style="font:normal normal normal 150px 'Arial'" >
-</text>
<text x="0" y="0" stroke="transparent" fill="#000000" transform="matrix(0.0666667 0 0 0.0666667 164.055 254.074)" style="font:normal normal normal 200px 'Arial'" >
O</text>
<text x="0" y="0" stroke="transparent" fill="#000000" transform="matrix(0.0666667 0 0 0.0666667 191.625 201.144)" style="font:normal normal normal 200px 'Arial'" >
OH</text>
<text x="0" y="0" stroke="transparent" fill="#000000" transform="matrix(0.0666667 0 0 0.0666667 22.0909 141.71)" style="font:normal normal normal 200px 'Arial'" >
O</text>
<text x="0" y="0" stroke="transparent" fill="#000000" transform="matrix(0.0666667 0 0 0.0666667 22.0909 206.433)" style="font:normal normal normal 200px 'Arial'" >
O</text>
<path stroke="transparent" fill="#000000" transform="matrix(0.0666667 0 0 0.0666667 -223.859 -137)" d="M 5991.74,2254.47 L 6001.74,2237.15 L 6421.34,2479.38 L 6411.34,2496.71 L 5991.74,2254.47 Z " />
<path stroke="transparent" fill="#000000" transform="matrix(0.0666667 0 0 0.0666667 -223.859 -137)" d="M 5387.11,2493.82 L 5377.11,2488.05 L 5377.11,2476.5 L 5792.1,2236.9 L 5802.1,2254.22 L 5387.11,2493.82 Z " />
<path stroke="transparent" fill="#000000" transform="matrix(0.0666667 0 0 0.0666667 -223.859 -137)" d="M 4857.51,2199.6 L 4857.51,2176.51 L 5377.11,2476.5 L 5377.11,2488.05 L 5367.11,2493.82 L 4857.51,2199.6 Z " />
<path stroke="transparent" fill="#000000" transform="matrix(0.0666667 0 0 0.0666667 -223.859 -137)" d="M 4852.51,2279.85 L 4862.51,2262.53 L 5310.11,2520.95 L 5300.11,2538.27 L 4852.51,2279.85 Z " />
<path stroke="transparent" fill="#000000" transform="matrix(0.0666667 0 0 0.0666667 -223.859 -137)" d="M 4347.87,2493.82 L 4337.87,2488.05 L 4337.87,2476.5 L 4857.51,2176.51 L 4857.51,2199.6 L 4347.87,2493.82 Z " />
<path stroke="transparent" fill="#000000" transform="matrix(0.0666667 0 0 0.0666667 -223.859 -137)" d="M 3913.3,2254.47 L 3923.3,2237.15 L 4337.87,2476.5 L 4337.87,2488.05 L 4327.87,2493.82 L 3913.3,2254.47 Z " />
<path stroke="transparent" fill="#000000" transform="matrix(0.0666667 0 0 0.0666667 -223.859 -137)" d="M 4347.87,3082.29 L 4327.87,3093.83 L 4327.87,2493.82 L 4337.87,2488.05 L 4347.87,2493.82 L 4347.87,3082.29 Z " />
<path stroke="transparent" fill="#000000" transform="matrix(0.0666667 0 0 0.0666667 -223.859 -137)" d="M 4419.87,3046.49 L 4399.87,3046.49 L 4399.87,2529.62 L 4419.87,2529.62 L 4419.87,3046.49 Z " />
<path stroke="transparent" fill="#000000" transform="matrix(0.0666667 0 0 0.0666667 -223.859 -137)" d="M 4857.51,3376.5 L 4857.51,3388.05 L 4847.51,3393.82 L 4327.87,3093.83 L 4347.87,3082.29 L 4857.51,3376.5 Z " />
<path stroke="transparent" fill="#000000" transform="matrix(0.0666667 0 0 0.0666667 -223.859 -137)" d="M 5367.11,3082.29 L 5377.11,3088.06 L 5377.11,3099.61 L 4867.51,3393.82 L 4857.51,3388.05 L 4857.51,3376.5 L 5367.11,3082.29 Z " />
<path stroke="transparent" fill="#000000" transform="matrix(0.0666667 0 0 0.0666667 -223.859 -137)" d="M 5300.11,3037.83 L 5310.11,3055.15 L 4862.51,3313.57 L 4852.51,3296.25 L 5300.11,3037.83 Z " />
<path stroke="transparent" fill="#000000" transform="matrix(0.0666667 0 0 0.0666667 -223.859 -137)" d="M 5387.11,3082.29 L 5377.11,3088.06 L 5367.11,3082.29 L 5367.11,2493.82 L 5377.11,2488.05 L 5387.11,2493.82 L 5387.11,3082.29 Z " />
<path stroke="transparent" fill="#000000" transform="matrix(0.0666667 0 0 0.0666667 -223.859 -137)" d="M 5906.71,3382.27 L 5886.71,3393.82 L 5377.11,3099.61 L 5377.11,3088.06 L 5387.11,3082.29 L 5906.71,3382.27 Z " />
<path stroke="transparent" fill="#000000" transform="matrix(0.0666667 0 0 0.0666667 -223.859 -137)" d="M 5906.71,3982.29 L 5896.71,3988.06 L 5886.71,3982.29 L 5886.71,3393.82 L 5906.71,3382.27 L 5906.71,3982.29 Z " />
<path stroke="transparent" fill="#000000" transform="matrix(0.0666667 0 0 0.0666667 -223.859 -137)" d="M 5834.7,3946.5 L 5814.7,3946.5 L 5814.7,3429.62 L 5834.7,3429.62 L 5834.7,3946.5 Z " />
<path stroke="transparent" fill="#000000" transform="matrix(0.0666667 0 0 0.0666667 -223.859 -137)" d="M 6317.57,4219.51 L 6307.57,4236.83 L 5896.71,3999.61 L 5896.71,3988.06 L 5906.71,3982.29 L 6317.57,4219.51 Z " />
<path stroke="transparent" fill="#000000" transform="matrix(0.0666667 0 0 0.0666667 -223.859 -137)" d="M 6502.01,4726.54 L 6482.1,4728.47 L 6450.49,4402.3 L 6470.4,4400.37 L 6502.01,4726.54 Z " />
<path stroke="transparent" fill="#000000" transform="matrix(0.0666667 0 0 0.0666667 -223.859 -137)" d="M 6436.37,4732.9 L 6416.46,4734.83 L 6384.85,4408.66 L 6404.76,4406.73 L 6436.37,4732.9 Z " />
<path stroke="transparent" fill="#000000" transform="matrix(0.0666667 0 0 0.0666667 -223.859 -137)" d="M 6831.34,4036.91 L 6841.34,4054.23 L 6594.2,4196.94 L 6584.2,4179.62 L 6831.34,4036.91 Z " />
<path stroke="transparent" fill="#000000" transform="matrix(0.0666667 0 0 0.0666667 -223.859 -137)" d="M 5387.11,4293.86 L 5377.11,4288.09 L 5377.11,4276.54 L 5886.71,3982.29 L 5896.71,3988.06 L 5896.71,3999.61 L 5387.11,4293.86 Z " />
<path stroke="transparent" fill="#000000" transform="matrix(0.0666667 0 0 0.0666667 -223.859 -137)" d="M 5387.11,4882.29 L 5377.11,4888.07 L 5367.11,4882.29 L 5367.11,4293.86 L 5377.11,4288.09 L 5387.11,4293.86 L 5387.11,4882.29 Z " />
<path stroke="transparent" fill="#000000" transform="matrix(0.0666667 0 0 0.0666667 -223.859 -137)" d="M 5315.11,4846.5 L 5295.11,4846.5 L 5295.11,4329.66 L 5315.11,4329.66 L 5315.11,4846.5 Z " />
<path stroke="transparent" fill="#000000" transform="matrix(0.0666667 0 0 0.0666667 -223.859 -137)" d="M 5897.19,5176.82 L 5896.23,5199.36 L 5377.11,4899.61 L 5377.11,4888.07 L 5387.11,4882.29 L 5897.19,5176.82 Z " />
<path stroke="transparent" fill="#000000" transform="matrix(0.0666667 0 0 0.0666667 -223.859 -137)" d="M 5942.71,5682.94 L 5922.71,5682.94 L 5922.71,5171.21 L 5942.71,5171.21 L 5942.71,5682.94 Z " />
<path stroke="transparent" fill="#000000" transform="matrix(0.0666667 0 0 0.0666667 -223.859 -137)" d="M 5870.7,5682.94 L 5850.7,5682.94 L 5850.7,5167.31 L 5870.7,5167.31 L 5870.7,5682.94 Z " />
<path stroke="transparent" fill="#000000" transform="matrix(0.0666667 0 0 0.0666667 -223.859 -137)" d="M 6202.94,5033.44 L 6211.43,5051.54 L 5896.23,5199.36 L 5897.19,5176.82 L 6202.94,5033.44 Z " />
<path stroke="transparent" fill="#000000" transform="matrix(0.0666667 0 0 0.0666667 -223.859 -137)" d="M 4857.51,5199.64 L 4857.51,5176.55 L 5367.11,4882.29 L 5377.11,4888.07 L 5377.11,4899.61 L 4857.51,5199.64 Z " />
<path stroke="transparent" fill="#000000" transform="matrix(0.0666667 0 0 0.0666667 -223.859 -137)" d="M 4336.72,4898.95 L 4337.87,4888.07 L 4347.87,4882.29 L 4857.51,5176.55 L 4857.51,5199.64 L 4336.72,4898.95 Z " />
<path stroke="transparent" fill="#000000" transform="matrix(0.0666667 0 0 0.0666667 -223.859 -137)" d="M 4404.87,4855.16 L 4414.87,4837.84 L 4862.51,5096.29 L 4852.51,5113.61 L 4404.87,4855.16 Z " />
<path stroke="transparent" fill="#000000" transform="matrix(0.0666667 0 0 0.0666667 -223.859 -137)" d="M 4327.87,4295.36 L 4337.87,4288.09 L 4347.87,4293.86 L 4347.87,4882.29 L 4337.87,4888.07 L 4327.87,4880.8 L 4327.87,4295.36 Z " />
<path stroke="transparent" fill="#000000" transform="matrix(0.0666667 0 0 0.0666667 -223.859 -137)" d="M 4847.51,3982.29 L 4857.51,3988.06 L 4857.51,3999.61 L 4347.87,4293.86 L 4337.87,4288.09 L 4336.72,4277.2 L 4847.51,3982.29 Z " />
<path stroke="transparent" fill="#000000" transform="matrix(0.0666667 0 0 0.0666667 -223.859 -137)" d="M 4852.51,4062.55 L 4862.51,4079.87 L 4414.87,4338.32 L 4404.87,4321 L 4852.51,4062.55 Z " />
<path stroke="transparent" fill="#000000" transform="matrix(0.0666667 0 0 0.0666667 -223.859 -137)" d="M 4857.51,3999.61 L 4857.51,3988.06 L 4867.51,3982.29 L 5377.11,4276.54 L 5377.11,4288.09 L 5367.11,4293.86 L 4857.51,3999.61 Z " />
<path stroke="transparent" fill="#000000" transform="matrix(0.0666667 0 0 0.0666667 -223.859 -137)" d="M 4867.51,3982.29 L 4857.51,3988.06 L 4847.51,3982.29 L 4847.51,3393.82 L 4857.51,3388.05 L 4867.51,3393.82 L 4867.51,3982.29 Z " />
<path stroke="transparent" fill="#000000" transform="matrix(0.0666667 0 0 0.0666667 -223.859 -137)" d="M 3870.95,4146.87 L 3877.13,4127.85 L 4336.72,4277.2 L 4337.87,4288.09 L 4327.87,4295.36 L 3870.95,4146.87 Z " />
<path stroke="transparent" fill="#000000" transform="matrix(0.0666667 0 0 0.0666667 -223.859 -137)" d="M 3426.93,4588.08 L 3402.21,4588.08 L 3688.61,4193.87 L 3704.79,4205.62 L 3426.93,4588.08 Z " />
<path stroke="transparent" fill="#000000" transform="matrix(0.0666667 0 0 0.0666667 -223.859 -137)" d="M 3712.59,4981.26 L 3696.41,4993.02 L 3402.21,4588.08 L 3426.93,4588.08 L 3712.59,4981.26 Z " />
<path stroke="transparent" fill="#000000" transform="matrix(0.0666667 0 0 0.0666667 -223.859 -137)" d="M 3872.19,5049.91 L 3866.01,5030.89 L 4327.87,4880.8 L 4337.87,4888.07 L 4336.72,4898.95 L 3872.19,5049.91 Z " />
</svg>
