<?xml version="1.0" standalone="no" ?>
<!DOCTYPE svg PUBLIC "-//W3C//DTD SVG 1.1//EN" "http://www.w3.org/Graphics/SVG/1.1/DTD/svg11.dtd">
<svg width="533px" height="465px" viewBox="0 0 533 465" style="background-color: #ffffff00" xmlns="http://www.w3.org/2000/svg" xmlns:xlink="http://www.w3.org/1999/xlink" version="1.1" >
<text x="0" y="0" stroke="transparent" fill="#000000" transform="matrix(0.0833333 0 0 0.0833333 392.711 17.7987)" style="font:normal normal normal 200px 'Arial'" >
O</text>
<text x="0" y="0" stroke="transparent" fill="#000000" transform="matrix(0.0833333 0 0 0.0833333 436.013 92.7986)" style="font:normal normal normal 200px 'Arial'" >
O</text>
<text x="0" y="0" stroke="transparent" fill="#000000" transform="matrix(0.0833333 0 0 0.0833333 436.013 242.799)" style="font:normal normal normal 200px 'Arial'" >
O</text>
<text x="0" y="0" stroke="transparent" fill="#000000" transform="matrix(0.0833333 0 0 0.0833333 72.4681 391.004)" style="font:normal normal normal 200px 'Arial'" >
O</text>
<text x="0" y="0" stroke="transparent" fill="#000000" transform="matrix(0.0833333 0 0 0.0833333 72.4681 304.401)" style="font:normal normal normal 200px 'Arial'" >
O</text>
<text x="0" y="0" stroke="transparent" fill="#000000" transform="matrix(0.0833333 0 0 0.0833333 222.468 304.401)" style="font:normal normal normal 200px 'Arial'" >
O</text>
<text x="0" y="0" stroke="transparent" fill="#000000" transform="matrix(0.0833333 0 0 0.0833333 222.468 217.799)" style="font:normal normal normal 200px 'Arial'" >
O</text>
<text x="0" y="0" stroke="transparent" fill="#000000" transform="matrix(0.0833333 0 0 0.0833333 264.7 291.706)" style="font:normal normal normal 200px 'Arial'" >
O</text>
<text x="0" y="0" stroke="transparent" fill="#000000" transform="matrix(0.0833333 0 0 0.0833333 392.711 317.799)" style="font:normal normal normal 200px 'Arial'" >
O</text>
<text x="0" y="0" stroke="transparent" fill="#000000" transform="matrix(0.0833333 0 0 0.0833333 479.314 317.799)" style="font:normal normal normal 200px 'Arial'" >
O</text>
<path stroke="transparent" fill="#000000" transform="matrix(0.0833333 0 0 0.0833333 -169.25 -146)" d="M 7855.77,1878.92 L 7865.77,1896.24 L 7351.15,2193.36 L 7331.15,2181.81 L 7855.77,1878.92 Z " />
<path stroke="transparent" fill="#000000" transform="matrix(0.0833333 0 0 0.0833333 -169.25 -146)" d="M 6898.57,1985.18 L 6908.57,1967.86 L 7346.15,2220.49 L 7336.15,2237.81 L 6898.57,1985.18 Z " />
<path stroke="transparent" fill="#000000" transform="matrix(0.0833333 0 0 0.0833333 -169.25 -146)" d="M 6934.57,1922.82 L 6944.57,1905.5 L 7382.15,2158.14 L 7372.15,2175.46 L 6934.57,1922.82 Z " />
<path stroke="transparent" fill="#000000" transform="matrix(0.0833333 0 0 0.0833333 -169.25 -146)" d="M 7331.15,2181.81 L 7351.15,2193.36 L 7351.15,2682.42 L 7331.15,2682.42 L 7331.15,2181.81 Z " />
<path stroke="transparent" fill="#000000" transform="matrix(0.0833333 0 0 0.0833333 -169.25 -146)" d="M 7236.55,2836.43 L 7246.55,2853.75 L 6831.54,3093.36 L 6811.54,3081.81 L 7236.55,2836.43 Z " />
<path stroke="transparent" fill="#000000" transform="matrix(0.0833333 0 0 0.0833333 -169.25 -146)" d="M 6811.54,3081.81 L 6831.54,3093.36 L 6831.54,3681.81 L 6821.54,3687.58 L 6811.54,3681.81 L 6811.54,3081.81 Z " />
<path stroke="transparent" fill="#000000" transform="matrix(0.0833333 0 0 0.0833333 -169.25 -146)" d="M 7236.55,4636.43 L 7246.55,4653.75 L 6832.09,4893.04 L 6821.54,4887.58 L 6821.54,4876.04 L 7236.55,4636.43 Z " />
<path stroke="transparent" fill="#000000" transform="matrix(0.0833333 0 0 0.0833333 -169.25 -146)" d="M 7351.15,4482.42 L 7331.15,4482.42 L 7331.15,3993.36 L 7351.15,3981.81 L 7351.15,4482.42 Z " />
<path stroke="transparent" fill="#000000" transform="matrix(0.0833333 0 0 0.0833333 -169.25 -146)" d="M 7351.15,3981.81 L 7331.15,3993.36 L 6821.54,3699.13 L 6821.54,3687.58 L 6831.54,3681.81 L 7351.15,3981.81 Z " />
<path stroke="transparent" fill="#000000" transform="matrix(0.0833333 0 0 0.0833333 -169.25 -146)" d="M 7274.15,4020.49 L 7264.15,4037.81 L 6816.54,3779.38 L 6826.54,3762.06 L 7274.15,4020.49 Z " />
<path stroke="transparent" fill="#000000" transform="matrix(0.0833333 0 0 0.0833333 -169.25 -146)" d="M 6811.54,3681.81 L 6821.54,3687.58 L 6821.54,3699.13 L 6311.92,3993.36 L 6301.92,3987.58 L 6300.78,3976.7 L 6811.54,3681.81 Z " />
<path stroke="transparent" fill="#000000" transform="matrix(0.0833333 0 0 0.0833333 -169.25 -146)" d="M 2078.62,5856.43 L 2078.62,5836.43 L 2672.84,5836.43 L 2684.39,5856.43 L 2078.62,5856.43 Z " />
<path stroke="transparent" fill="#000000" transform="matrix(0.0833333 0 0 0.0833333 -169.25 -146)" d="M 2965.2,6250.81 L 2947.88,6260.81 L 2690.74,5815.43 L 2708.06,5805.43 L 2965.2,6250.81 Z " />
<path stroke="transparent" fill="#000000" transform="matrix(0.0833333 0 0 0.0833333 -169.25 -146)" d="M 2902.85,6286.81 L 2885.53,6296.81 L 2628.39,5851.43 L 2645.71,5841.43 L 2902.85,6286.81 Z " />
<path stroke="transparent" fill="#000000" transform="matrix(0.0833333 0 0 0.0833333 -169.25 -146)" d="M 2684.39,5856.43 L 2672.84,5836.43 L 2909.6,5426.35 L 2926.92,5436.35 L 2684.39,5856.43 Z " />
<path stroke="transparent" fill="#000000" transform="matrix(0.0833333 0 0 0.0833333 -169.25 -146)" d="M 3086.62,5336.81 L 3086.62,5316.81 L 3572.84,5316.81 L 3578.62,5326.81 L 3568.62,5336.81 L 3086.62,5336.81 Z " />
<path stroke="transparent" fill="#000000" transform="matrix(0.0833333 0 0 0.0833333 -169.25 -146)" d="M 3588.62,5926.81 L 3568.62,5926.81 L 3568.62,5336.81 L 3578.62,5326.81 L 3588.62,5344.13 L 3588.62,5926.81 Z " />
<path stroke="transparent" fill="#000000" transform="matrix(0.0833333 0 0 0.0833333 -169.25 -146)" d="M 4103.23,5618.15 L 4093.23,5635.47 L 3588.62,5344.13 L 3578.62,5326.81 L 3592.28,5323.15 L 4103.23,5618.15 Z " />
<path stroke="transparent" fill="#000000" transform="matrix(0.0833333 0 0 0.0833333 -169.25 -146)" d="M 3592.28,5323.15 L 3578.62,5326.81 L 3572.84,5316.81 L 3872.84,4797.2 L 3884.39,4817.2 L 3592.28,5323.15 Z " />
<path stroke="transparent" fill="#000000" transform="matrix(0.0833333 0 0 0.0833333 -169.25 -146)" d="M 3884.39,4817.2 L 3872.84,4797.2 L 4472.84,4797.2 L 4484.39,4817.2 L 3884.39,4817.2 Z " />
<path stroke="transparent" fill="#000000" transform="matrix(0.0833333 0 0 0.0833333 -169.25 -146)" d="M 4765.2,5211.58 L 4747.88,5221.58 L 4490.74,4776.2 L 4508.06,4766.2 L 4765.2,5211.58 Z " />
<path stroke="transparent" fill="#000000" transform="matrix(0.0833333 0 0 0.0833333 -169.25 -146)" d="M 4702.85,5247.58 L 4685.53,5257.58 L 4428.39,4812.2 L 4445.71,4802.2 L 4702.85,5247.58 Z " />
<path stroke="transparent" fill="#000000" transform="matrix(0.0833333 0 0 0.0833333 -169.25 -146)" d="M 4484.39,4817.2 L 4472.84,4797.2 L 4709.6,4387.12 L 4726.92,4397.12 L 4484.39,4817.2 Z " />
<path stroke="transparent" fill="#000000" transform="matrix(0.0833333 0 0 0.0833333 -169.25 -146)" d="M 4886.62,4347.58 L 4886.62,4227.58 L 5373.87,4277.1 L 5378.62,4287.58 L 5373.87,4298.07 L 4886.62,4347.58 Z " />
<path stroke="transparent" fill="#000000" transform="matrix(0.0833333 0 0 0.0833333 -169.25 -146)" d="M 5404.96,5147.56 L 5324.66,5058.38 L 5341.05,5046.69 L 5418.3,5132.48 L 5404.96,5147.56 Z " />
<path stroke="transparent" fill="#000000" transform="matrix(0.0833333 0 0 0.0833333 -169.25 -146)" d="M 5444.89,5102.43 L 5373.72,5023.38 L 5390.11,5011.69 L 5458.23,5087.35 L 5444.89,5102.43 Z " />
<path stroke="transparent" fill="#000000" transform="matrix(0.0833333 0 0 0.0833333 -169.25 -146)" d="M 5484.83,5057.3 L 5422.78,4988.39 L 5439.17,4976.69 L 5498.17,5042.22 L 5484.83,5057.3 Z " />
<path stroke="transparent" fill="#000000" transform="matrix(0.0833333 0 0 0.0833333 -169.25 -146)" d="M 5524.76,5012.17 L 5471.84,4953.39 L 5488.22,4941.7 L 5538.1,4997.09 L 5524.76,5012.17 Z " />
<path stroke="transparent" fill="#000000" transform="matrix(0.0833333 0 0 0.0833333 -169.25 -146)" d="M 5564.7,4967.04 L 5520.9,4918.39 L 5537.28,4906.7 L 5578.04,4951.96 L 5564.7,4967.04 Z " />
<path stroke="transparent" fill="#000000" transform="matrix(0.0833333 0 0 0.0833333 -169.25 -146)" d="M 5604.63,4921.9 L 5569.95,4883.39 L 5586.34,4871.7 L 5617.97,4906.83 L 5604.63,4921.9 Z " />
<path stroke="transparent" fill="#000000" transform="matrix(0.0833333 0 0 0.0833333 -169.25 -146)" d="M 5644.56,4876.77 L 5619.01,4848.39 L 5635.4,4836.7 L 5657.9,4861.7 L 5644.56,4876.77 Z " />
<path stroke="transparent" fill="#000000" transform="matrix(0.0833333 0 0 0.0833333 -169.25 -146)" d="M 5684.5,4831.64 L 5668.07,4813.4 L 5684.46,4801.71 L 5697.84,4816.57 L 5684.5,4831.64 Z " />
<path stroke="transparent" fill="#000000" transform="matrix(0.0833333 0 0 0.0833333 -169.25 -146)" d="M 5389.11,5218.68 L 5395.29,5199.66 L 5791.78,5328.49 L 5928.77,5394.03 L 5389.11,5218.68 Z " />
<path stroke="transparent" fill="#000000" transform="matrix(0.0833333 0 0 0.0833333 -169.25 -146)" d="M 5928.77,5394.03 L 5791.78,5328.49 L 5721.73,4776.85 L 5731.29,4772.99 L 5743.65,4779.49 L 5928.77,5394.03 Z " />
<path stroke="transparent" fill="#000000" transform="matrix(0.0833333 0 0 0.0833333 -169.25 -146)" d="M 5743.65,4779.49 L 5731.29,4772.99 L 5735.11,4761.24 L 6291.92,4580.32 L 6301.92,4587.58 L 6300.78,4598.47 L 5743.65,4779.49 Z " />
<path stroke="transparent" fill="#000000" transform="matrix(0.0833333 0 0 0.0833333 -169.25 -146)" d="M 5735.11,4761.24 L 5731.29,4772.99 L 5721.73,4776.85 L 5373.87,4298.07 L 5378.62,4287.58 L 5390.98,4287.58 L 5735.11,4761.24 Z " />
<path stroke="transparent" fill="#000000" transform="matrix(0.0833333 0 0 0.0833333 -169.25 -146)" d="M 5390.98,4287.58 L 5378.62,4287.58 L 5373.87,4277.1 L 5727.47,3790.42 L 5735.11,3813.93 L 5390.98,4287.58 Z " />
<path stroke="transparent" fill="#000000" transform="matrix(0.0833333 0 0 0.0833333 -169.25 -146)" d="M 5735.11,3813.93 L 5727.47,3790.42 L 6300.78,3976.7 L 6301.92,3987.58 L 6291.92,3994.85 L 5735.11,3813.93 Z " />
<path stroke="transparent" fill="#000000" transform="matrix(0.0833333 0 0 0.0833333 -169.25 -146)" d="M 5755.7,3896.32 L 5761.88,3877.3 L 6233.01,4030.38 L 6226.83,4049.4 L 5755.7,3896.32 Z " />
<path stroke="transparent" fill="#000000" transform="matrix(0.0833333 0 0 0.0833333 -169.25 -146)" d="M 6291.92,3994.85 L 6301.92,3987.58 L 6311.92,3993.36 L 6311.92,4581.81 L 6301.92,4587.58 L 6291.92,4580.32 L 6291.92,3994.85 Z " />
<path stroke="transparent" fill="#000000" transform="matrix(0.0833333 0 0 0.0833333 -169.25 -146)" d="M 6300.78,4598.47 L 6301.92,4587.58 L 6311.92,4581.81 L 6821.54,4876.04 L 6821.54,4887.58 L 6810.99,4893.04 L 6300.78,4598.47 Z " />
<path stroke="transparent" fill="#000000" transform="matrix(0.0833333 0 0 0.0833333 -169.25 -146)" d="M 6881.54,5382.42 L 6761.54,5382.42 L 6810.99,4893.04 L 6821.54,4887.58 L 6832.09,4893.04 L 6881.54,5382.42 Z " />
<path stroke="transparent" fill="#000000" transform="matrix(0.0833333 0 0 0.0833333 -169.25 -146)" d="M 6916.57,5554 L 6926.57,5536.68 L 7351.15,5781.81 L 7331.15,5793.36 L 6916.57,5554 Z " />
<path stroke="transparent" fill="#000000" transform="matrix(0.0833333 0 0 0.0833333 -169.25 -146)" d="M 7738.16,5505.25 L 7748.16,5522.57 L 7310.15,5775.46 L 7300.15,5758.14 L 7738.16,5505.25 Z " />
<path stroke="transparent" fill="#000000" transform="matrix(0.0833333 0 0 0.0833333 -169.25 -146)" d="M 7774.16,5567.61 L 7784.16,5584.93 L 7346.15,5837.81 L 7336.15,5820.49 L 7774.16,5567.61 Z " />
<path stroke="transparent" fill="#000000" transform="matrix(0.0833333 0 0 0.0833333 -169.25 -146)" d="M 7331.15,5793.36 L 7351.15,5781.81 L 7351.15,6381.81 L 7331.15,6393.36 L 7331.15,5793.36 Z " />
<path stroke="transparent" fill="#000000" transform="matrix(0.0833333 0 0 0.0833333 -169.25 -146)" d="M 7331.15,6393.36 L 7351.15,6381.81 L 7860.77,6676.04 L 7860.77,6687.58 L 7850.77,6693.36 L 7331.15,6393.36 Z " />
<path stroke="transparent" fill="#000000" transform="matrix(0.0833333 0 0 0.0833333 -169.25 -146)" d="M 7870.77,7287.58 L 7850.77,7287.58 L 7850.77,6693.36 L 7860.77,6687.58 L 7870.77,6693.36 L 7870.77,7287.58 Z " />
<path stroke="transparent" fill="#000000" transform="matrix(0.0833333 0 0 0.0833333 -169.25 -146)" d="M 7870.77,6693.36 L 7860.77,6687.58 L 7860.77,6676.04 L 8375.38,6378.92 L 8385.38,6396.24 L 7870.77,6693.36 Z " />
</svg>
