<?xml version="1.0" standalone="no" ?>
<!DOCTYPE svg PUBLIC "-//W3C//DTD SVG 1.1//EN" "http://www.w3.org/Graphics/SVG/1.1/DTD/svg11.dtd">
<svg width="751px" height="315px" viewBox="0 0 751 315" style="background-color: #ffffff00" xmlns="http://www.w3.org/2000/svg" xmlns:xlink="http://www.w3.org/1999/xlink" version="1.1" >
<text x="0" y="0" stroke="transparent" fill="#000000" transform="matrix(0.0833333 0 0 0.0833333 332.554 142.951)" style="font:normal normal normal 200px 'Arial'" >
O</text>
<text x="0" y="0" stroke="transparent" fill="#000000" transform="matrix(0.0833333 0 0 0.0833333 332.554 292.947)" style="font:normal normal normal 200px 'Arial'" >
O</text>
<text x="0" y="0" stroke="transparent" fill="#000000" transform="matrix(0.0833333 0 0 0.0833333 549.057 67.9527)" style="font:normal normal normal 200px 'Arial'" >
O</text>
<text x="0" y="0" stroke="transparent" fill="#000000" transform="matrix(0.0833333 0 0 0.0833333 592.353 142.951)" style="font:normal normal normal 200px 'Arial'" >
O</text>
<text x="0" y="0" stroke="transparent" fill="#000000" transform="matrix(0.0833333 0 0 0.0833333 678.957 242.948)" style="font:normal normal normal 200px 'Arial'" >
OH</text>
<text x="0" y="0" stroke="transparent" fill="#000000" transform="matrix(0.0833333 0 0 0.0833333 722.253 167.95)" style="font:normal normal normal 200px 'Arial'" >
OH</text>
<text x="0" y="0" stroke="transparent" fill="#000000" transform="matrix(0.0833333 0 0 0.0833333 722.253 67.9527)" style="font:normal normal normal 200px 'Arial'" >
OH</text>
<text x="0" y="0" stroke="transparent" fill="#000000" transform="matrix(0.0833333 0 0 0.0833333 635.655 17.954)" style="font:normal normal normal 200px 'Arial'" >
OH</text>
<text x="0" y="0" stroke="transparent" fill="#000000" transform="matrix(0.0833333 0 0 0.0833333 159.353 142.951)" style="font:normal normal normal 200px 'Arial'" >
O</text>
<text x="0" y="0" stroke="transparent" fill="#000000" transform="matrix(0.0833333 0 0 0.0833333 70.3791 147.611)" style="font:normal normal normal 200px 'Arial'" >
O</text>
<text x="0" y="0" stroke="transparent" fill="#000000" transform="matrix(0.0833333 0 0 0.0833333 29.9801 310.977)" style="font:normal normal normal 200px 'Arial'" >
HO</text>
<text x="0" y="0" stroke="transparent" fill="#000000" transform="matrix(0.0833333 0 0 0.0833333 4.21112 248.408)" style="font:normal normal normal 200px 'Arial'" >
HO</text>
<text x="0" y="0" stroke="transparent" fill="#000000" transform="matrix(0.0833333 0 0 0.0833333 147.983 251.13)" style="font:normal normal normal 200px 'Arial'" >
OH</text>
<path stroke="transparent" fill="#000000" transform="matrix(0.0833333 0 0 0.0833333 -60.25 -221)" d="M 5321.27,5195.16 L 5301.27,5183.61 L 5301.27,4595.17 L 5321.27,4583.63 L 5321.27,5195.16 Z " />
<path stroke="transparent" fill="#000000" transform="matrix(0.0833333 0 0 0.0833333 -60.25 -221)" d="M 4791.65,5500.92 L 4791.65,5477.83 L 5301.27,5183.61 L 5321.27,5195.16 L 4791.65,5500.92 Z " />
<path stroke="transparent" fill="#000000" transform="matrix(0.0833333 0 0 0.0833333 -60.25 -221)" d="M 4272.03,5200.93 L 4272.03,5189.38 L 4282.03,5183.61 L 4791.65,5477.83 L 4791.65,5500.92 L 4272.03,5200.93 Z " />
<path stroke="transparent" fill="#000000" transform="matrix(0.0833333 0 0 0.0833333 -60.25 -221)" d="M 3752.48,5500.92 L 3752.48,5477.83 L 4262.03,5183.61 L 4272.03,5189.38 L 4272.03,5200.93 L 3752.48,5500.92 Z " />
<path stroke="transparent" fill="#000000" transform="matrix(0.0833333 0 0 0.0833333 -60.25 -221)" d="M 3222.85,5195.16 L 3242.85,5183.61 L 3752.48,5477.83 L 3752.48,5500.92 L 3222.85,5195.16 Z " />
<path stroke="transparent" fill="#000000" transform="matrix(0.0833333 0 0 0.0833333 -60.25 -221)" d="M 3299.85,5156.47 L 3309.85,5139.15 L 3757.47,5397.58 L 3747.47,5414.9 L 3299.85,5156.47 Z " />
<path stroke="transparent" fill="#000000" transform="matrix(0.0833333 0 0 0.0833333 -60.25 -221)" d="M 3222.85,4595.17 L 3232.85,4589.4 L 3242.85,4595.17 L 3242.85,5183.61 L 3222.85,5195.16 L 3222.85,4595.17 Z " />
<path stroke="transparent" fill="#000000" transform="matrix(0.0833333 0 0 0.0833333 -60.25 -221)" d="M 3752.48,4277.86 L 3752.48,4300.96 L 3242.85,4595.17 L 3232.85,4589.4 L 3232.85,4577.85 L 3752.48,4277.86 Z " />
<path stroke="transparent" fill="#000000" transform="matrix(0.0833333 0 0 0.0833333 -60.25 -221)" d="M 3747.47,4363.89 L 3757.47,4381.21 L 3309.85,4639.63 L 3299.85,4622.31 L 3747.47,4363.89 Z " />
<path stroke="transparent" fill="#000000" transform="matrix(0.0833333 0 0 0.0833333 -60.25 -221)" d="M 4272.03,4577.85 L 4272.03,4589.4 L 4262.03,4595.17 L 3752.48,4300.96 L 3752.48,4277.86 L 4272.03,4577.85 Z " />
<path stroke="transparent" fill="#000000" transform="matrix(0.0833333 0 0 0.0833333 -60.25 -221)" d="M 4262.03,4595.17 L 4272.03,4589.4 L 4282.03,4595.17 L 4282.03,5183.61 L 4272.03,5189.38 L 4262.03,5183.61 L 4262.03,4595.17 Z " />
<path stroke="transparent" fill="#000000" transform="matrix(0.0833333 0 0 0.0833333 -60.25 -221)" d="M 4190.03,4630.97 L 4210.03,4630.97 L 4210.03,5147.82 L 4190.03,5147.82 L 4190.03,4630.97 Z " />
<path stroke="transparent" fill="#000000" transform="matrix(0.0833333 0 0 0.0833333 -60.25 -221)" d="M 4687.04,4338.25 L 4697.04,4355.57 L 4282.03,4595.17 L 4272.03,4589.4 L 4272.03,4577.85 L 4687.04,4338.25 Z " />
<path stroke="transparent" fill="#000000" transform="matrix(0.0833333 0 0 0.0833333 -60.25 -221)" d="M 4886.68,4355.82 L 4896.68,4338.5 L 5321.27,4583.63 L 5301.27,4595.17 L 4886.68,4355.82 Z " />
<path stroke="transparent" fill="#000000" transform="matrix(0.0833333 0 0 0.0833333 -60.25 -221)" d="M 4837.65,5984.19 L 4817.65,5984.19 L 4817.65,5468.59 L 4837.65,5468.59 L 4837.65,5984.19 Z " />
<path stroke="transparent" fill="#000000" transform="matrix(0.0833333 0 0 0.0833333 -60.25 -221)" d="M 4765.65,5984.19 L 4745.65,5984.19 L 4745.65,5468.59 L 4765.65,5468.59 L 4765.65,5984.19 Z " />
<path stroke="transparent" fill="#000000" transform="matrix(0.0833333 0 0 0.0833333 -60.25 -221)" d="M 5820.82,3683.65 L 5840.82,3695.2 L 5840.82,4283.63 L 5820.82,4295.18 L 5820.82,3683.65 Z " />
<path stroke="transparent" fill="#000000" transform="matrix(0.0833333 0 0 0.0833333 -60.25 -221)" d="M 6350.44,3377.89 L 6350.44,3400.98 L 5840.82,3695.2 L 5820.82,3683.65 L 6350.44,3377.89 Z " />
<path stroke="transparent" fill="#000000" transform="matrix(0.0833333 0 0 0.0833333 -60.25 -221)" d="M 6345.44,3463.91 L 6355.44,3481.23 L 5907.82,3739.65 L 5897.82,3722.33 L 6345.44,3463.91 Z " />
<path stroke="transparent" fill="#000000" transform="matrix(0.0833333 0 0 0.0833333 -60.25 -221)" d="M 6870.07,3677.88 L 6870.07,3689.42 L 6860.07,3695.2 L 6350.44,3400.98 L 6350.44,3377.89 L 6870.07,3677.88 Z " />
<path stroke="transparent" fill="#000000" transform="matrix(0.0833333 0 0 0.0833333 -60.25 -221)" d="M 6880.07,4295.18 L 6860.07,4283.63 L 6860.07,3695.2 L 6870.07,3689.42 L 6880.07,3695.2 L 6880.07,4295.18 Z " />
<path stroke="transparent" fill="#000000" transform="matrix(0.0833333 0 0 0.0833333 -60.25 -221)" d="M 6808.07,4247.84 L 6788.07,4247.84 L 6788.07,3730.99 L 6808.07,3730.99 L 6808.07,4247.84 Z " />
<path stroke="transparent" fill="#000000" transform="matrix(0.0833333 0 0 0.0833333 -60.25 -221)" d="M 6350.44,4600.95 L 6350.44,4577.85 L 6860.07,4283.63 L 6880.07,4295.18 L 6350.44,4600.95 Z " />
<path stroke="transparent" fill="#000000" transform="matrix(0.0833333 0 0 0.0833333 -60.25 -221)" d="M 6350.44,4577.85 L 6350.44,4600.95 L 5820.82,4295.18 L 5840.82,4283.63 L 6350.44,4577.85 Z " />
<path stroke="transparent" fill="#000000" transform="matrix(0.0833333 0 0 0.0833333 -60.25 -221)" d="M 6355.44,4497.6 L 6345.44,4514.92 L 5897.82,4256.5 L 5907.82,4239.18 L 6355.44,4497.6 Z " />
<path stroke="transparent" fill="#000000" transform="matrix(0.0833333 0 0 0.0833333 -60.25 -221)" d="M 7899.24,3695.85 L 7909.24,3689.42 L 7919.24,3695.2 L 7919.24,4184.24 L 7899.24,4184.24 L 7899.24,3695.85 Z " />
<path stroke="transparent" fill="#000000" transform="matrix(0.0833333 0 0 0.0833333 -60.25 -221)" d="M 8428.86,3377.89 L 8428.86,3400.98 L 7919.24,3695.2 L 7909.24,3689.42 L 7909.8,3677.55 L 8428.86,3377.89 Z " />
<path stroke="transparent" fill="#000000" transform="matrix(0.0833333 0 0 0.0833333 -60.25 -221)" d="M 8947.92,3677.55 L 8948.48,3689.42 L 8938.48,3695.2 L 8428.86,3400.98 L 8428.86,3377.89 L 8947.92,3677.55 Z " />
<path stroke="transparent" fill="#000000" transform="matrix(0.0833333 0 0 0.0833333 -60.25 -221)" d="M 8958.48,4295.18 L 8938.48,4283.63 L 8938.48,3695.2 L 8948.48,3689.42 L 8958.48,3695.85 L 8958.48,4295.18 Z " />
<path stroke="transparent" fill="#000000" transform="matrix(0.0833333 0 0 0.0833333 -60.25 -221)" d="M 8439.32,4594.91 L 8428.86,4589.4 L 8428.86,4577.85 L 8938.48,4283.63 L 8958.48,4295.18 L 8439.32,4594.91 Z " />
<path stroke="transparent" fill="#000000" transform="matrix(0.0833333 0 0 0.0833333 -60.25 -221)" d="M 8428.86,4577.85 L 8428.86,4589.4 L 8418.4,4594.91 L 8004.28,4355.82 L 8014.27,4338.5 L 8428.86,4577.85 Z " />
<path stroke="transparent" fill="#000000" transform="matrix(0.0833333 0 0 0.0833333 -60.25 -221)" d="M 8860.86,5427.24 L 8850.86,5444.57 L 8370.7,5167.35 L 8490.88,5213.64 L 8860.86,5427.24 Z " />
<path stroke="transparent" fill="#000000" transform="matrix(0.0833333 0 0 0.0833333 -60.25 -221)" d="M 8490.88,5213.64 L 8370.7,5167.35 L 8418.4,4594.91 L 8428.86,4589.4 L 8439.32,4594.91 L 8490.88,5213.64 Z " />
<path stroke="transparent" fill="#000000" transform="matrix(0.0833333 0 0 0.0833333 -60.25 -221)" d="M 9405.42,4483.96 L 9345.41,4587.88 L 9329.23,4575.91 L 9386.96,4475.94 L 9405.42,4483.96 Z " />
<path stroke="transparent" fill="#000000" transform="matrix(0.0833333 0 0 0.0833333 -60.25 -221)" d="M 9350.19,4459.94 L 9297,4552.06 L 9280.82,4540.08 L 9331.73,4451.92 L 9350.19,4459.94 Z " />
<path stroke="transparent" fill="#000000" transform="matrix(0.0833333 0 0 0.0833333 -60.25 -221)" d="M 9294.96,4435.93 L 9248.59,4516.23 L 9232.41,4504.26 L 9276.5,4427.9 L 9294.96,4435.93 Z " />
<path stroke="transparent" fill="#000000" transform="matrix(0.0833333 0 0 0.0833333 -60.25 -221)" d="M 9239.73,4411.91 L 9200.17,4480.4 L 9183.99,4468.43 L 9221.27,4403.88 L 9239.73,4411.91 Z " />
<path stroke="transparent" fill="#000000" transform="matrix(0.0833333 0 0 0.0833333 -60.25 -221)" d="M 9184.49,4387.89 L 9151.76,4444.58 L 9135.58,4432.6 L 9166.03,4379.86 L 9184.49,4387.89 Z " />
<path stroke="transparent" fill="#000000" transform="matrix(0.0833333 0 0 0.0833333 -60.25 -221)" d="M 9129.26,4363.87 L 9103.35,4408.75 L 9087.17,4396.78 L 9110.8,4355.84 L 9129.26,4363.87 Z " />
<path stroke="transparent" fill="#000000" transform="matrix(0.0833333 0 0 0.0833333 -60.25 -221)" d="M 9074.03,4339.85 L 9054.93,4372.92 L 9038.75,4360.95 L 9055.57,4331.82 L 9074.03,4339.85 Z " />
<path stroke="transparent" fill="#000000" transform="matrix(0.0833333 0 0 0.0833333 -60.25 -221)" d="M 9018.8,4315.83 L 9006.52,4337.1 L 8990.34,4325.12 L 9000.34,4307.8 L 9018.8,4315.83 Z " />
<path stroke="transparent" fill="#000000" transform="matrix(0.0833333 0 0 0.0833333 -60.25 -221)" d="M 9338.43,3394.98 L 9398.43,3498.9 L 8958.48,3695.85 L 8948.48,3689.42 L 8947.92,3677.55 L 9338.43,3394.98 Z " />
<path stroke="transparent" fill="#000000" transform="matrix(0.0833333 0 0 0.0833333 -60.25 -221)" d="M 8368.86,2909.28 L 8488.86,2909.28 L 8486.51,2929.28 L 8371.21,2929.28 L 8368.86,2909.28 Z " />
<path stroke="transparent" fill="#000000" transform="matrix(0.0833333 0 0 0.0833333 -60.25 -221)" d="M 8375.67,2967.3 L 8482.05,2967.3 L 8479.71,2987.3 L 8378.01,2987.3 L 8375.67,2967.3 Z " />
<path stroke="transparent" fill="#000000" transform="matrix(0.0833333 0 0 0.0833333 -60.25 -221)" d="M 8382.48,3025.32 L 8475.25,3025.32 L 8472.9,3045.32 L 8384.82,3045.32 L 8382.48,3025.32 Z " />
<path stroke="transparent" fill="#000000" transform="matrix(0.0833333 0 0 0.0833333 -60.25 -221)" d="M 8389.28,3083.34 L 8468.44,3083.34 L 8466.09,3103.34 L 8391.63,3103.34 L 8389.28,3083.34 Z " />
<path stroke="transparent" fill="#000000" transform="matrix(0.0833333 0 0 0.0833333 -60.25 -221)" d="M 8396.09,3141.36 L 8461.63,3141.36 L 8459.28,3161.36 L 8398.44,3161.36 L 8396.09,3141.36 Z " />
<path stroke="transparent" fill="#000000" transform="matrix(0.0833333 0 0 0.0833333 -60.25 -221)" d="M 8402.9,3199.38 L 8454.82,3199.38 L 8452.48,3219.38 L 8405.25,3219.38 L 8402.9,3199.38 Z " />
<path stroke="transparent" fill="#000000" transform="matrix(0.0833333 0 0 0.0833333 -60.25 -221)" d="M 8409.71,3257.4 L 8448.01,3257.4 L 8445.67,3277.4 L 8412.05,3277.4 L 8409.71,3257.4 Z " />
<path stroke="transparent" fill="#000000" transform="matrix(0.0833333 0 0 0.0833333 -60.25 -221)" d="M 8416.51,3315.42 L 8441.21,3315.42 L 8438.86,3335.42 L 8418.86,3335.42 L 8416.51,3315.42 Z " />
<path stroke="transparent" fill="#000000" transform="matrix(0.0833333 0 0 0.0833333 -60.25 -221)" d="M 7459.72,3499.15 L 7519.72,3395.23 L 7909.8,3677.55 L 7909.24,3689.42 L 7899.24,3695.85 L 7459.72,3499.15 Z " />
<path stroke="transparent" fill="#000000" transform="matrix(0.0833333 0 0 0.0833333 -60.25 -221)" d="M 7285.08,3438.28 L 7295.08,3455.6 L 6880.07,3695.2 L 6870.07,3689.42 L 6870.07,3677.88 L 7285.08,3438.28 Z " />
<path stroke="transparent" fill="#000000" transform="matrix(0.0833333 0 0 0.0833333 -60.25 -221)" d="M 5753.98,4264.49 L 5813.98,4368.41 L 5795.65,4376.65 L 5737.68,4276.25 L 5753.98,4264.49 Z " />
<path stroke="transparent" fill="#000000" transform="matrix(0.0833333 0 0 0.0833333 -60.25 -221)" d="M 5705.91,4299.17 L 5759.92,4392.71 L 5741.58,4400.95 L 5689.61,4310.93 L 5705.91,4299.17 Z " />
<path stroke="transparent" fill="#000000" transform="matrix(0.0833333 0 0 0.0833333 -60.25 -221)" d="M 5657.84,4333.85 L 5705.85,4417 L 5687.51,4425.24 L 5641.53,4345.61 L 5657.84,4333.85 Z " />
<path stroke="transparent" fill="#000000" transform="matrix(0.0833333 0 0 0.0833333 -60.25 -221)" d="M 5609.77,4368.53 L 5651.78,4441.3 L 5633.45,4449.54 L 5593.46,4380.29 L 5609.77,4368.53 Z " />
<path stroke="transparent" fill="#000000" transform="matrix(0.0833333 0 0 0.0833333 -60.25 -221)" d="M 5561.7,4403.21 L 5597.71,4465.59 L 5579.38,4473.83 L 5545.39,4414.97 L 5561.7,4403.21 Z " />
<path stroke="transparent" fill="#000000" transform="matrix(0.0833333 0 0 0.0833333 -60.25 -221)" d="M 5513.62,4437.89 L 5543.65,4489.89 L 5525.31,4498.13 L 5497.32,4449.66 L 5513.62,4437.89 Z " />
<path stroke="transparent" fill="#000000" transform="matrix(0.0833333 0 0 0.0833333 -60.25 -221)" d="M 5465.55,4472.57 L 5489.58,4514.19 L 5471.24,4522.43 L 5449.25,4484.34 L 5465.55,4472.57 Z " />
<path stroke="transparent" fill="#000000" transform="matrix(0.0833333 0 0 0.0833333 -60.25 -221)" d="M 5417.48,4507.25 L 5435.51,4538.48 L 5417.18,4546.72 L 5401.18,4519.02 L 5417.48,4507.25 Z " />
<path stroke="transparent" fill="#000000" transform="matrix(0.0833333 0 0 0.0833333 -60.25 -221)" d="M 5369.41,4541.93 L 5381.45,4562.78 L 5363.11,4571.02 L 5353.11,4553.7 L 5369.41,4541.93 Z " />
<path stroke="transparent" fill="#000000" transform="matrix(0.0833333 0 0 0.0833333 -60.25 -221)" d="M 2193.02,4578.19 L 2193.61,4589.4 L 2182.9,4595.58 L 1745.59,4400.83 L 1753.72,4382.56 L 2193.02,4578.19 Z " />
<path stroke="transparent" fill="#000000" transform="matrix(0.0833333 0 0 0.0833333 -60.25 -221)" d="M 2140.1,5194.38 L 2121.73,5177.84 L 2182.9,4595.58 L 2193.61,4589.4 L 2203.02,4595.51 L 2140.1,5194.38 Z " />
<path stroke="transparent" fill="#000000" transform="matrix(0.0833333 0 0 0.0833333 -60.25 -221)" d="M 1557.89,5318.11 L 1544.02,5310.84 L 1549.05,5299.54 L 2121.73,5177.84 L 2140.1,5194.38 L 1557.89,5318.11 Z " />
<path stroke="transparent" fill="#000000" transform="matrix(0.0833333 0 0 0.0833333 -60.25 -221)" d="M 1231.74,4789.92 L 1256.33,4792.51 L 1549.05,5299.54 L 1544.02,5310.84 L 1534.69,5314.66 L 1231.74,4789.92 Z " />
<path stroke="transparent" fill="#000000" transform="matrix(0.0833333 0 0 0.0833333 -60.25 -221)" d="M 1256.33,4792.51 L 1231.74,4789.92 L 1558.41,4427.15 L 1573.28,4440.54 L 1256.33,4792.51 Z " />
<path stroke="transparent" fill="#000000" transform="matrix(0.0833333 0 0 0.0833333 -60.25 -221)" d="M 1387.92,6237.14 L 1373.77,6223 L 1677.06,5919.72 L 1779.33,5845.72 L 1387.92,6237.14 Z " />
<path stroke="transparent" fill="#000000" transform="matrix(0.0833333 0 0 0.0833333 -60.25 -221)" d="M 1779.33,5845.72 L 1677.06,5919.72 L 1534.69,5314.66 L 1544.02,5310.84 L 1557.89,5318.11 L 1779.33,5845.72 Z " />
<path stroke="transparent" fill="#000000" transform="matrix(0.0833333 0 0 0.0833333 -60.25 -221)" d="M 1118.02,5566.23 L 1069.2,5456.61 L 1088.4,5450.55 L 1135.36,5556.01 L 1118.02,5566.23 Z " />
<path stroke="transparent" fill="#000000" transform="matrix(0.0833333 0 0 0.0833333 -60.25 -221)" d="M 1169.93,5535.65 L 1126.66,5438.48 L 1145.86,5432.43 L 1187.28,5525.43 L 1169.93,5535.65 Z " />
<path stroke="transparent" fill="#000000" transform="matrix(0.0833333 0 0 0.0833333 -60.25 -221)" d="M 1221.85,5505.07 L 1184.12,5420.36 L 1203.32,5414.3 L 1239.19,5494.85 L 1221.85,5505.07 Z " />
<path stroke="transparent" fill="#000000" transform="matrix(0.0833333 0 0 0.0833333 -60.25 -221)" d="M 1273.76,5474.48 L 1241.58,5402.23 L 1260.78,5396.17 L 1291.1,5464.27 L 1273.76,5474.48 Z " />
<path stroke="transparent" fill="#000000" transform="matrix(0.0833333 0 0 0.0833333 -60.25 -221)" d="M 1325.67,5443.9 L 1299.04,5384.1 L 1318.24,5378.05 L 1343.02,5433.69 L 1325.67,5443.9 Z " />
<path stroke="transparent" fill="#000000" transform="matrix(0.0833333 0 0 0.0833333 -60.25 -221)" d="M 1377.59,5413.32 L 1356.5,5365.98 L 1375.7,5359.92 L 1394.93,5403.1 L 1377.59,5413.32 Z " />
<path stroke="transparent" fill="#000000" transform="matrix(0.0833333 0 0 0.0833333 -60.25 -221)" d="M 1429.5,5382.74 L 1413.96,5347.85 L 1433.16,5341.8 L 1446.84,5372.52 L 1429.5,5382.74 Z " />
<path stroke="transparent" fill="#000000" transform="matrix(0.0833333 0 0 0.0833333 -60.25 -221)" d="M 1481.41,5352.16 L 1471.42,5329.73 L 1490.62,5323.67 L 1498.76,5341.94 L 1481.41,5352.16 Z " />
<path stroke="transparent" fill="#000000" transform="matrix(0.0833333 0 0 0.0833333 -60.25 -221)" d="M 2537.59,5471.52 L 2457.29,5560.7 L 2443.95,5545.62 L 2521.2,5459.83 L 2537.59,5471.52 Z " />
<path stroke="transparent" fill="#000000" transform="matrix(0.0833333 0 0 0.0833333 -60.25 -221)" d="M 2488.52,5436.52 L 2417.35,5515.56 L 2404.01,5500.49 L 2472.13,5424.83 L 2488.52,5436.52 Z " />
<path stroke="transparent" fill="#000000" transform="matrix(0.0833333 0 0 0.0833333 -60.25 -221)" d="M 2439.46,5401.52 L 2377.41,5470.43 L 2364.07,5455.35 L 2423.07,5389.83 L 2439.46,5401.52 Z " />
<path stroke="transparent" fill="#000000" transform="matrix(0.0833333 0 0 0.0833333 -60.25 -221)" d="M 2390.4,5366.52 L 2337.47,5425.3 L 2324.13,5410.22 L 2374.01,5354.83 L 2390.4,5366.52 Z " />
<path stroke="transparent" fill="#000000" transform="matrix(0.0833333 0 0 0.0833333 -60.25 -221)" d="M 2341.33,5331.52 L 2297.53,5380.16 L 2284.19,5365.09 L 2324.95,5319.83 L 2341.33,5331.52 Z " />
<path stroke="transparent" fill="#000000" transform="matrix(0.0833333 0 0 0.0833333 -60.25 -221)" d="M 2292.27,5296.52 L 2257.59,5335.03 L 2244.25,5319.95 L 2275.88,5284.83 L 2292.27,5296.52 Z " />
<path stroke="transparent" fill="#000000" transform="matrix(0.0833333 0 0 0.0833333 -60.25 -221)" d="M 2243.21,5261.52 L 2217.65,5289.9 L 2204.31,5274.82 L 2226.82,5249.83 L 2243.21,5261.52 Z " />
<path stroke="transparent" fill="#000000" transform="matrix(0.0833333 0 0 0.0833333 -60.25 -221)" d="M 2194.14,5226.51 L 2177.71,5244.76 L 2164.37,5229.69 L 2177.76,5214.83 L 2194.14,5226.51 Z " />
<path stroke="transparent" fill="#000000" transform="matrix(0.0833333 0 0 0.0833333 -60.25 -221)" d="M 2203.02,4595.51 L 2193.61,4589.4 L 2193.02,4578.19 L 2608.63,4338.25 L 2618.63,4355.57 L 2203.02,4595.51 Z " />
<path stroke="transparent" fill="#000000" transform="matrix(0.0833333 0 0 0.0833333 -60.25 -221)" d="M 2808.27,4355.82 L 2818.27,4338.5 L 3232.85,4577.85 L 3232.85,4589.4 L 3222.85,4595.17 L 2808.27,4355.82 Z " />
</svg>
