<?xml version="1.0" standalone="no" ?>
<!DOCTYPE svg PUBLIC "-//W3C//DTD SVG 1.1//EN" "http://www.w3.org/Graphics/SVG/1.1/DTD/svg11.dtd">
<svg width="485px" height="265px" viewBox="0 0 485 265" style="background-color: #ffffff00" xmlns="http://www.w3.org/2000/svg" xmlns:xlink="http://www.w3.org/1999/xlink" version="1.1" >
<text x="0" y="0" stroke="transparent" fill="#000000" transform="matrix(0.0833333 0 0 0.0833333 431.109 17.4367)" style="font:normal normal normal 200px 'Arial'" >
O</text>
<text x="0" y="0" stroke="transparent" fill="#000000" transform="matrix(0.0833333 0 0 0.0833333 214.601 92.435)" style="font:normal normal normal 200px 'Arial'" >
O</text>
<text x="0" y="0" stroke="transparent" fill="#000000" transform="matrix(0.0833333 0 0 0.0833333 127.996 42.4339)" style="font:normal normal normal 200px 'Arial'" >
O</text>
<text x="0" y="0" stroke="transparent" fill="#000000" transform="matrix(0.0833333 0 0 0.0833333 41.3908 92.435)" style="font:normal normal normal 200px 'Arial'" >
O</text>
<text x="0" y="0" stroke="transparent" fill="#000000" transform="matrix(0.0833333 0 0 0.0833333 41.3908 192.437)" style="font:normal normal normal 200px 'Arial'" >
O</text>
<text x="0" y="0" stroke="transparent" fill="#000000" transform="matrix(0.0833333 0 0 0.0833333 127.996 242.438)" style="font:normal normal normal 200px 'Arial'" >
O</text>
<text x="0" y="0" stroke="transparent" fill="#000000" transform="matrix(0.0833333 0 0 0.0833333 214.601 242.438)" style="font:normal normal normal 200px 'Arial'" >
O</text>
<text x="0" y="0" stroke="transparent" fill="#000000" transform="matrix(0.0833333 0 0 0.0833333 301.206 192.441)" style="font:normal normal normal 200px 'Arial'" >
O</text>
<text x="0" y="0" stroke="transparent" fill="#000000" transform="matrix(0.0833333 0 0 0.0833333 431.109 117.439)" style="font:normal normal normal 200px 'Arial'" >
O</text>
<path stroke="transparent" fill="#000000" transform="matrix(0.0833333 0 0 0.0833333 -193.25 -246)" d="M 7665.35,3149.66 L 7675.35,3132.34 L 8094.92,3374.59 L 8084.92,3391.91 L 7665.35,3149.66 Z " />
<path stroke="transparent" fill="#000000" transform="matrix(0.0833333 0 0 0.0833333 -193.25 -246)" d="M 7060.7,3389.02 L 7050.7,3383.25 L 7050.7,3371.7 L 7465.71,3132.09 L 7475.71,3149.41 L 7060.7,3389.02 Z " />
<path stroke="transparent" fill="#000000" transform="matrix(0.0833333 0 0 0.0833333 -193.25 -246)" d="M 6531.09,3094.79 L 6531.09,3071.69 L 7050.7,3371.7 L 7050.7,3383.25 L 7040.7,3389.02 L 6531.09,3094.79 Z " />
<path stroke="transparent" fill="#000000" transform="matrix(0.0833333 0 0 0.0833333 -193.25 -246)" d="M 6526.09,3175.04 L 6536.09,3157.72 L 6983.7,3416.16 L 6973.7,3433.48 L 6526.09,3175.04 Z " />
<path stroke="transparent" fill="#000000" transform="matrix(0.0833333 0 0 0.0833333 -193.25 -246)" d="M 6021.48,3388.98 L 6001.48,3377.43 L 6531.09,3071.69 L 6531.09,3094.79 L 6021.48,3388.98 Z " />
<path stroke="transparent" fill="#000000" transform="matrix(0.0833333 0 0 0.0833333 -193.25 -246)" d="M 6021.48,3977.45 L 6011.48,3983.22 L 6001.48,3977.45 L 6001.48,3377.43 L 6021.48,3388.98 L 6021.48,3977.45 Z " />
<path stroke="transparent" fill="#000000" transform="matrix(0.0833333 0 0 0.0833333 -193.25 -246)" d="M 6093.48,3941.65 L 6073.48,3941.65 L 6073.48,3424.78 L 6093.48,3424.78 L 6093.48,3941.65 Z " />
<path stroke="transparent" fill="#000000" transform="matrix(0.0833333 0 0 0.0833333 -193.25 -246)" d="M 5501.83,4289 L 5491.83,4283.23 L 5491.83,4271.68 L 6001.48,3977.45 L 6011.48,3983.22 L 6011.48,3994.77 L 5501.83,4289 Z " />
<path stroke="transparent" fill="#000000" transform="matrix(0.0833333 0 0 0.0833333 -193.25 -246)" d="M 5067.25,4049.64 L 5077.25,4032.32 L 5491.83,4271.68 L 5491.83,4283.23 L 5481.83,4289 L 5067.25,4049.64 Z " />
<path stroke="transparent" fill="#000000" transform="matrix(0.0833333 0 0 0.0833333 -193.25 -246)" d="M 4462.6,4289 L 4452.6,4283.23 L 4452.6,4271.68 L 4867.61,4032.07 L 4877.61,4049.39 L 4462.6,4289 Z " />
<path stroke="transparent" fill="#000000" transform="matrix(0.0833333 0 0 0.0833333 -193.25 -246)" d="M 3932.95,3994.77 L 3932.95,3983.22 L 3942.95,3977.45 L 4452.6,4271.68 L 4452.6,4283.23 L 4442.6,4289 L 3932.95,3994.77 Z " />
<path stroke="transparent" fill="#000000" transform="matrix(0.0833333 0 0 0.0833333 -193.25 -246)" d="M 3927.95,4075.02 L 3937.95,4057.7 L 4385.6,4316.14 L 4375.6,4333.46 L 3927.95,4075.02 Z " />
<path stroke="transparent" fill="#000000" transform="matrix(0.0833333 0 0 0.0833333 -193.25 -246)" d="M 3922.95,3503.04 L 3942.95,3503.04 L 3942.95,3977.45 L 3932.95,3983.22 L 3922.95,3977.45 L 3922.95,3503.04 Z " />
<path stroke="transparent" fill="#000000" transform="matrix(0.0833333 0 0 0.0833333 -193.25 -246)" d="M 3408.34,3091.9 L 3418.34,3074.58 L 3845.33,3321.08 L 3835.33,3338.4 L 3408.34,3091.9 Z " />
<path stroke="transparent" fill="#000000" transform="matrix(0.0833333 0 0 0.0833333 -193.25 -246)" d="M 3423.34,4289 L 3413.34,4283.23 L 3413.34,4271.68 L 3922.95,3977.45 L 3932.95,3983.22 L 3932.95,3994.77 L 3423.34,4289 Z " />
<path stroke="transparent" fill="#000000" transform="matrix(0.0833333 0 0 0.0833333 -193.25 -246)" d="M 2988.73,4049.63 L 2998.73,4032.31 L 3413.34,4271.68 L 3413.34,4283.23 L 3403.34,4289 L 2988.73,4049.63 Z " />
<path stroke="transparent" fill="#000000" transform="matrix(0.0833333 0 0 0.0833333 -193.25 -246)" d="M 2379.08,4291.89 L 2369.08,4274.57 L 2789.09,4032.07 L 2799.09,4049.39 L 2379.08,4291.89 Z " />
<path stroke="transparent" fill="#000000" transform="matrix(0.0833333 0 0 0.0833333 -193.25 -246)" d="M 3423.34,4877.47 L 3413.34,4883.24 L 3403.34,4877.47 L 3403.34,4289 L 3413.34,4283.23 L 3423.34,4289 L 3423.34,4877.47 Z " />
<path stroke="transparent" fill="#000000" transform="matrix(0.0833333 0 0 0.0833333 -193.25 -246)" d="M 3495.34,4841.67 L 3475.34,4841.67 L 3475.34,4324.8 L 3495.34,4324.8 L 3495.34,4841.67 Z " />
<path stroke="transparent" fill="#000000" transform="matrix(0.0833333 0 0 0.0833333 -193.25 -246)" d="M 2991.31,5138.44 L 2981.31,5121.11 L 3403.34,4877.47 L 3413.34,4883.24 L 3413.34,4894.79 L 2991.31,5138.44 Z " />
<path stroke="transparent" fill="#000000" transform="matrix(0.0833333 0 0 0.0833333 -193.25 -246)" d="M 2903.69,5783.26 L 2883.69,5783.26 L 2883.69,5303.08 L 2903.69,5303.08 L 2903.69,5783.26 Z " />
<path stroke="transparent" fill="#000000" transform="matrix(0.0833333 0 0 0.0833333 -193.25 -246)" d="M 3932.95,5171.7 L 3932.95,5183.25 L 3922.95,5189.02 L 3413.34,4894.79 L 3413.34,4883.24 L 3423.34,4877.47 L 3932.95,5171.7 Z " />
<path stroke="transparent" fill="#000000" transform="matrix(0.0833333 0 0 0.0833333 -193.25 -246)" d="M 3942.95,5678.09 L 3922.95,5678.09 L 3922.95,5189.02 L 3932.95,5183.25 L 3942.95,5189.02 L 3942.95,5678.09 Z " />
<path stroke="transparent" fill="#000000" transform="matrix(0.0833333 0 0 0.0833333 -193.25 -246)" d="M 4457.6,6074.61 L 4447.6,6091.93 L 4027.99,5849.67 L 4037.99,5832.35 L 4457.6,6074.61 Z " />
<path stroke="transparent" fill="#000000" transform="matrix(0.0833333 0 0 0.0833333 -193.25 -246)" d="M 4442.6,4877.47 L 4452.6,4883.24 L 4452.6,4894.79 L 3942.95,5189.02 L 3932.95,5183.25 L 3932.95,5171.7 L 4442.6,4877.47 Z " />
<path stroke="transparent" fill="#000000" transform="matrix(0.0833333 0 0 0.0833333 -193.25 -246)" d="M 4375.6,4833.01 L 4385.6,4850.33 L 3937.95,5108.76 L 3927.95,5091.44 L 4375.6,4833.01 Z " />
<path stroke="transparent" fill="#000000" transform="matrix(0.0833333 0 0 0.0833333 -193.25 -246)" d="M 4462.6,4877.47 L 4452.6,4883.24 L 4442.6,4877.47 L 4442.6,4289 L 4452.6,4283.23 L 4462.6,4289 L 4462.6,4877.47 Z " />
<path stroke="transparent" fill="#000000" transform="matrix(0.0833333 0 0 0.0833333 -193.25 -246)" d="M 4972.21,5171.7 L 4972.21,5194.79 L 4452.6,4894.79 L 4452.6,4883.24 L 4462.6,4877.47 L 4972.21,5171.7 Z " />
<path stroke="transparent" fill="#000000" transform="matrix(0.0833333 0 0 0.0833333 -193.25 -246)" d="M 5018.22,5678.09 L 4998.22,5678.09 L 4998.22,5162.46 L 5018.22,5162.46 L 5018.22,5678.09 Z " />
<path stroke="transparent" fill="#000000" transform="matrix(0.0833333 0 0 0.0833333 -193.25 -246)" d="M 4946.21,5678.09 L 4926.21,5678.09 L 4926.21,5162.46 L 4946.21,5162.46 L 4946.21,5678.09 Z " />
<path stroke="transparent" fill="#000000" transform="matrix(0.0833333 0 0 0.0833333 -193.25 -246)" d="M 5481.83,4877.47 L 5491.83,4883.24 L 5491.83,4894.79 L 4972.21,5194.79 L 4972.21,5171.7 L 5481.83,4877.47 Z " />
<path stroke="transparent" fill="#000000" transform="matrix(0.0833333 0 0 0.0833333 -193.25 -246)" d="M 5501.83,4877.47 L 5491.83,4883.24 L 5481.83,4877.47 L 5481.83,4289 L 5491.83,4283.23 L 5501.83,4289 L 5501.83,4877.47 Z " />
<path stroke="transparent" fill="#000000" transform="matrix(0.0833333 0 0 0.0833333 -193.25 -246)" d="M 5429.82,4841.67 L 5409.82,4841.67 L 5409.82,4324.8 L 5429.82,4324.8 L 5429.82,4841.67 Z " />
<path stroke="transparent" fill="#000000" transform="matrix(0.0833333 0 0 0.0833333 -193.25 -246)" d="M 5923.86,5121.15 L 5913.86,5138.47 L 5491.83,4894.79 L 5491.83,4883.24 L 5501.83,4877.47 L 5923.86,5121.15 Z " />
<path stroke="transparent" fill="#000000" transform="matrix(0.0833333 0 0 0.0833333 -193.25 -246)" d="M 6526.09,4874.62 L 6536.09,4891.94 L 6109.09,5138.47 L 6099.09,5121.15 L 6526.09,4874.62 Z " />
<path stroke="transparent" fill="#000000" transform="matrix(0.0833333 0 0 0.0833333 -193.25 -246)" d="M 6531.09,4271.68 L 6531.09,4294.77 L 6011.48,3994.77 L 6011.48,3983.22 L 6021.48,3977.45 L 6531.09,4271.68 Z " />
<path stroke="transparent" fill="#000000" transform="matrix(0.0833333 0 0 0.0833333 -193.25 -246)" d="M 7040.7,3977.49 L 7050.7,3983.26 L 7050.7,3994.81 L 6531.09,4294.77 L 6531.09,4271.68 L 7040.7,3977.49 Z " />
<path stroke="transparent" fill="#000000" transform="matrix(0.0833333 0 0 0.0833333 -193.25 -246)" d="M 6973.7,3933.03 L 6983.7,3950.35 L 6536.09,4208.75 L 6526.09,4191.43 L 6973.7,3933.03 Z " />
<path stroke="transparent" fill="#000000" transform="matrix(0.0833333 0 0 0.0833333 -193.25 -246)" d="M 7060.7,3977.49 L 7050.7,3983.26 L 7040.7,3977.49 L 7040.7,3389.02 L 7050.7,3383.25 L 7060.7,3389.02 L 7060.7,3977.49 Z " />
<path stroke="transparent" fill="#000000" transform="matrix(0.0833333 0 0 0.0833333 -193.25 -246)" d="M 7482.69,4221.13 L 7472.69,4238.45 L 7050.7,3994.81 L 7050.7,3983.26 L 7060.7,3977.49 L 7482.69,4221.13 Z " />
<path stroke="transparent" fill="#000000" transform="matrix(0.0833333 0 0 0.0833333 -193.25 -246)" d="M 8084.92,3974.6 L 8094.92,3991.92 L 7667.93,4238.45 L 7657.93,4221.13 L 8084.92,3974.6 Z " />
</svg>
