<?xml version="1.0" standalone="no" ?>
<!DOCTYPE svg PUBLIC "-//W3C//DTD SVG 1.1//EN" "http://www.w3.org/Graphics/SVG/1.1/DTD/svg11.dtd">
<svg width="639px" height="247px" viewBox="0 0 639 247" style="background-color: #ffffff00" xmlns="http://www.w3.org/2000/svg" xmlns:xlink="http://www.w3.org/1999/xlink" version="1.1" >
<text x="0" y="0" stroke="transparent" fill="#000000" transform="matrix(0.0833333 0 0 0.0833333 621.752 242.965)" style="font:normal normal normal 200px 'Arial'" >
O</text>
<text x="0" y="0" stroke="transparent" fill="#000000" transform="matrix(0.0833333 0 0 0.0833333 232.041 167.965)" style="font:normal normal normal 200px 'Arial'" >
O</text>
<text x="0" y="0" stroke="transparent" fill="#000000" transform="matrix(0.0833333 0 0 0.0833333 145.438 167.965)" style="font:normal normal normal 200px 'Arial'" >
O</text>
<text x="0" y="0" stroke="transparent" fill="#000000" transform="matrix(0.0833333 0 0 0.0833333 3.49806 142.965)" style="font:normal normal normal 200px 'Arial'" >
HO</text>
<text x="0" y="0" stroke="transparent" fill="#000000" transform="matrix(0.0833333 0 0 0.0833333 46.7993 67.9652)" style="font:normal normal normal 200px 'Arial'" >
HO</text>
<text x="0" y="0" stroke="transparent" fill="#000000" transform="matrix(0.0833333 0 0 0.0833333 145.438 17.9653)" style="font:normal normal normal 200px 'Arial'" >
OH</text>
<text x="0" y="0" stroke="transparent" fill="#000000" transform="matrix(0.0833333 0 0 0.0833333 232.041 67.9652)" style="font:normal normal normal 200px 'Arial'" >
OH</text>
<text x="0" y="0" stroke="transparent" fill="#000000" transform="matrix(0.0833333 0 0 0.0833333 318.643 17.9653)" style="font:normal normal normal 200px 'Arial'" >
OH</text>
<text x="0" y="0" stroke="transparent" fill="#000000" transform="matrix(0.0833333 0 0 0.0833333 405.246 17.9653)" style="font:normal normal normal 200px 'Arial'" >
O</text>
<text x="0" y="0" stroke="transparent" fill="#000000" transform="matrix(0.0833333 0 0 0.0833333 448.547 92.9652)" style="font:normal normal normal 200px 'Arial'" >
O</text>
<path stroke="transparent" fill="#000000" transform="matrix(0.0833333 0 0 0.0833333 -116.875 -245)" d="M 7322.68,3077.58 L 7442.68,3077.58 L 7393.14,3672.07 L 7382.68,3677.58 L 7372.22,3672.07 L 7322.68,3077.58 Z " />
<path stroke="transparent" fill="#000000" transform="matrix(0.0833333 0 0 0.0833333 -116.875 -245)" d="M 7912.29,3971.81 L 7892.29,3983.36 L 7382.68,3689.13 L 7382.68,3677.58 L 7393.14,3672.07 L 7912.29,3971.81 Z " />
<path stroke="transparent" fill="#000000" transform="matrix(0.0833333 0 0 0.0833333 -116.875 -245)" d="M 7912.29,4571.81 L 7892.29,4583.36 L 7892.29,3983.36 L 7912.29,3971.81 L 7912.29,4571.81 Z " />
<path stroke="transparent" fill="#000000" transform="matrix(0.0833333 0 0 0.0833333 -116.875 -245)" d="M 8431.91,4871.81 L 8411.91,4883.36 L 7892.29,4583.36 L 7912.29,4571.81 L 8431.91,4871.81 Z " />
<path stroke="transparent" fill="#000000" transform="matrix(0.0833333 0 0 0.0833333 -116.875 -245)" d="M 8431.91,5483.36 L 8411.91,5471.81 L 8411.91,4883.36 L 8431.91,4871.81 L 8431.91,5483.36 Z " />
<path stroke="transparent" fill="#000000" transform="matrix(0.0833333 0 0 0.0833333 -116.875 -245)" d="M 8871.9,5684.27 L 8861.9,5701.59 L 8416.91,5444.67 L 8426.91,5427.35 L 8871.9,5684.27 Z " />
<path stroke="transparent" fill="#000000" transform="matrix(0.0833333 0 0 0.0833333 -116.875 -245)" d="M 8835.9,5746.63 L 8825.9,5763.95 L 8380.91,5507.03 L 8390.91,5489.71 L 8835.9,5746.63 Z " />
<path stroke="transparent" fill="#000000" transform="matrix(0.0833333 0 0 0.0833333 -116.875 -245)" d="M 7902.29,5789.13 L 7902.29,5766.04 L 8411.91,5471.81 L 8431.91,5483.36 L 7902.29,5789.13 Z " />
<path stroke="transparent" fill="#000000" transform="matrix(0.0833333 0 0 0.0833333 -116.875 -245)" d="M 7382.68,5489.13 L 7382.68,5466.04 L 7902.29,5766.04 L 7902.29,5789.13 L 7382.68,5489.13 Z " />
<path stroke="transparent" fill="#000000" transform="matrix(0.0833333 0 0 0.0833333 -116.875 -245)" d="M 6863.06,5789.13 L 6863.06,5766.04 L 7382.68,5466.04 L 7382.68,5489.13 L 6863.06,5789.13 Z " />
<path stroke="transparent" fill="#000000" transform="matrix(0.0833333 0 0 0.0833333 -116.875 -245)" d="M 6333.45,5483.36 L 6353.45,5471.81 L 6863.06,5766.04 L 6863.06,5789.13 L 6333.45,5483.36 Z " />
<path stroke="transparent" fill="#000000" transform="matrix(0.0833333 0 0 0.0833333 -116.875 -245)" d="M 6333.45,4883.36 L 6353.45,4871.81 L 6353.45,5471.81 L 6333.45,5483.36 L 6333.45,4883.36 Z " />
<path stroke="transparent" fill="#000000" transform="matrix(0.0833333 0 0 0.0833333 -116.875 -245)" d="M 6261.45,4919.15 L 6281.45,4919.15 L 6281.45,5477.58 L 6261.45,5477.58 L 6261.45,4919.15 Z " />
<path stroke="transparent" fill="#000000" transform="matrix(0.0833333 0 0 0.0833333 -116.875 -245)" d="M 5823.83,4589.13 L 5823.83,4577.58 L 5833.83,4571.81 L 6353.45,4871.81 L 6333.45,4883.36 L 5823.83,4589.13 Z " />
<path stroke="transparent" fill="#000000" transform="matrix(0.0833333 0 0 0.0833333 -116.875 -245)" d="M 5813.83,3983.36 L 5823.83,3977.58 L 5833.83,3983.36 L 5833.83,4571.81 L 5823.83,4577.58 L 5813.83,4571.81 L 5813.83,3983.36 Z " />
<path stroke="transparent" fill="#000000" transform="matrix(0.0833333 0 0 0.0833333 -116.875 -245)" d="M 5741.83,4019.15 L 5761.83,4019.15 L 5761.83,4536.01 L 5741.83,4536.01 L 5741.83,4019.15 Z " />
<path stroke="transparent" fill="#000000" transform="matrix(0.0833333 0 0 0.0833333 -116.875 -245)" d="M 5304.22,3689.13 L 5304.22,3677.58 L 5314.22,3671.81 L 5823.83,3966.04 L 5823.83,3977.58 L 5813.83,3983.36 L 5304.22,3689.13 Z " />
<path stroke="transparent" fill="#000000" transform="matrix(0.0833333 0 0 0.0833333 -116.875 -245)" d="M 4794.6,3983.36 L 4774.6,3971.81 L 5294.22,3671.81 L 5304.22,3677.58 L 5304.22,3689.13 L 4794.6,3983.36 Z " />
<path stroke="transparent" fill="#000000" transform="matrix(0.0833333 0 0 0.0833333 -116.875 -245)" d="M 4861.6,4027.81 L 4851.6,4010.49 L 5299.22,3752.06 L 5309.22,3769.38 L 4861.6,4027.81 Z " />
<path stroke="transparent" fill="#000000" transform="matrix(0.0833333 0 0 0.0833333 -116.875 -245)" d="M 4794.6,4571.81 L 4784.6,4577.58 L 4774.6,4571.81 L 4774.6,3971.81 L 4794.6,3983.36 L 4794.6,4571.81 Z " />
<path stroke="transparent" fill="#000000" transform="matrix(0.0833333 0 0 0.0833333 -116.875 -245)" d="M 5304.22,4866.04 L 5304.22,4889.13 L 4784.6,4589.13 L 4784.6,4577.58 L 4794.6,4571.81 L 5304.22,4866.04 Z " />
<path stroke="transparent" fill="#000000" transform="matrix(0.0833333 0 0 0.0833333 -116.875 -245)" d="M 5309.22,4785.78 L 5299.22,4803.1 L 4851.6,4544.67 L 4861.6,4527.35 L 5309.22,4785.78 Z " />
<path stroke="transparent" fill="#000000" transform="matrix(0.0833333 0 0 0.0833333 -116.875 -245)" d="M 5304.22,4889.13 L 5304.22,4866.04 L 5813.83,4571.81 L 5823.83,4577.58 L 5823.83,4589.13 L 5304.22,4889.13 Z " />
<path stroke="transparent" fill="#000000" transform="matrix(0.0833333 0 0 0.0833333 -116.875 -245)" d="M 4362.6,4832.77 L 4352.6,4815.45 L 4774.6,4571.81 L 4784.6,4577.58 L 4784.6,4589.13 L 4362.6,4832.77 Z " />
<path stroke="transparent" fill="#000000" transform="matrix(0.0833333 0 0 0.0833333 -116.875 -245)" d="M 4202.37,4772.15 L 4142.37,4876.07 L 4126.19,4864.1 L 4183.91,4764.12 L 4202.37,4772.15 Z " />
<path stroke="transparent" fill="#000000" transform="matrix(0.0833333 0 0 0.0833333 -116.875 -245)" d="M 4147.12,4748.12 L 4093.93,4840.24 L 4077.75,4828.26 L 4128.66,4740.09 L 4147.12,4748.12 Z " />
<path stroke="transparent" fill="#000000" transform="matrix(0.0833333 0 0 0.0833333 -116.875 -245)" d="M 4091.86,4724.09 L 4045.5,4804.4 L 4029.32,4792.43 L 4073.4,4716.06 L 4091.86,4724.09 Z " />
<path stroke="transparent" fill="#000000" transform="matrix(0.0833333 0 0 0.0833333 -116.875 -245)" d="M 4036.61,4700.06 L 3997.06,4768.56 L 3980.88,4756.59 L 4018.15,4692.04 L 4036.61,4700.06 Z " />
<path stroke="transparent" fill="#000000" transform="matrix(0.0833333 0 0 0.0833333 -116.875 -245)" d="M 3981.36,4676.04 L 3948.63,4732.73 L 3932.45,4720.75 L 3962.9,4668.01 L 3981.36,4676.04 Z " />
<path stroke="transparent" fill="#000000" transform="matrix(0.0833333 0 0 0.0833333 -116.875 -245)" d="M 3926.11,4652.01 L 3900.19,4696.89 L 3884.01,4684.92 L 3907.65,4643.98 L 3926.11,4652.01 Z " />
<path stroke="transparent" fill="#000000" transform="matrix(0.0833333 0 0 0.0833333 -116.875 -245)" d="M 3870.85,4627.98 L 3851.76,4661.05 L 3835.58,4649.08 L 3852.39,4619.95 L 3870.85,4627.98 Z " />
<path stroke="transparent" fill="#000000" transform="matrix(0.0833333 0 0 0.0833333 -116.875 -245)" d="M 3815.6,4603.95 L 3803.32,4625.22 L 3787.14,4613.25 L 3797.14,4595.93 L 3815.6,4603.95 Z " />
<path stroke="transparent" fill="#000000" transform="matrix(0.0833333 0 0 0.0833333 -116.875 -245)" d="M 3735.37,3983.36 L 3745.37,3977.58 L 3755.37,3984.01 L 3755.37,4583.36 L 3735.37,4571.81 L 3735.37,3983.36 Z " />
<path stroke="transparent" fill="#000000" transform="matrix(0.0833333 0 0 0.0833333 -116.875 -245)" d="M 3225.76,3689.13 L 3225.76,3666.04 L 3744.81,3965.71 L 3745.37,3977.58 L 3735.37,3983.36 L 3225.76,3689.13 Z " />
<path stroke="transparent" fill="#000000" transform="matrix(0.0833333 0 0 0.0833333 -116.875 -245)" d="M 2716.14,3983.36 L 2706.14,3977.58 L 2706.7,3965.71 L 3225.76,3666.04 L 3225.76,3689.13 L 2716.14,3983.36 Z " />
<path stroke="transparent" fill="#000000" transform="matrix(0.0833333 0 0 0.0833333 -116.875 -245)" d="M 2716.14,4571.81 L 2696.14,4583.36 L 2696.14,3984.01 L 2706.14,3977.58 L 2716.14,3983.36 L 2716.14,4571.81 Z " />
<path stroke="transparent" fill="#000000" transform="matrix(0.0833333 0 0 0.0833333 -116.875 -245)" d="M 3138.14,4815.45 L 3128.14,4832.77 L 2696.14,4583.36 L 2716.14,4571.81 L 3138.14,4815.45 Z " />
<path stroke="transparent" fill="#000000" transform="matrix(0.0833333 0 0 0.0833333 -116.875 -245)" d="M 3323.37,4832.77 L 3313.37,4815.45 L 3735.37,4571.81 L 3755.37,4583.36 L 3323.37,4832.77 Z " />
<path stroke="transparent" fill="#000000" transform="matrix(0.0833333 0 0 0.0833333 -116.875 -245)" d="M 2263.29,4902.54 L 2203.29,4798.62 L 2221.63,4790.38 L 2279.6,4890.78 L 2263.29,4902.54 Z " />
<path stroke="transparent" fill="#000000" transform="matrix(0.0833333 0 0 0.0833333 -116.875 -245)" d="M 2311.39,4867.85 L 2257.38,4774.31 L 2275.72,4766.07 L 2327.69,4856.09 L 2311.39,4867.85 Z " />
<path stroke="transparent" fill="#000000" transform="matrix(0.0833333 0 0 0.0833333 -116.875 -245)" d="M 2359.49,4833.16 L 2311.48,4750.01 L 2329.81,4741.77 L 2375.79,4821.4 L 2359.49,4833.16 Z " />
<path stroke="transparent" fill="#000000" transform="matrix(0.0833333 0 0 0.0833333 -116.875 -245)" d="M 2407.58,4798.47 L 2365.57,4725.7 L 2383.91,4717.46 L 2423.89,4786.71 L 2407.58,4798.47 Z " />
<path stroke="transparent" fill="#000000" transform="matrix(0.0833333 0 0 0.0833333 -116.875 -245)" d="M 2455.68,4763.77 L 2419.66,4701.39 L 2438,4693.15 L 2471.99,4752.01 L 2455.68,4763.77 Z " />
<path stroke="transparent" fill="#000000" transform="matrix(0.0833333 0 0 0.0833333 -116.875 -245)" d="M 2503.78,4729.08 L 2473.76,4677.08 L 2492.09,4668.84 L 2520.08,4717.32 L 2503.78,4729.08 Z " />
<path stroke="transparent" fill="#000000" transform="matrix(0.0833333 0 0 0.0833333 -116.875 -245)" d="M 2551.88,4694.39 L 2527.85,4652.78 L 2546.19,4644.54 L 2568.18,4682.63 L 2551.88,4694.39 Z " />
<path stroke="transparent" fill="#000000" transform="matrix(0.0833333 0 0 0.0833333 -116.875 -245)" d="M 2599.97,4659.7 L 2581.95,4628.47 L 2600.28,4620.23 L 2616.28,4647.94 L 2599.97,4659.7 Z " />
<path stroke="transparent" fill="#000000" transform="matrix(0.0833333 0 0 0.0833333 -116.875 -245)" d="M 2648.07,4625 L 2636.04,4604.16 L 2654.38,4595.92 L 2664.38,4613.24 L 2648.07,4625 Z " />
<path stroke="transparent" fill="#000000" transform="matrix(0.0833333 0 0 0.0833333 -116.875 -245)" d="M 1761.94,4643.99 L 1771.94,4626.67 L 2191.53,4868.92 L 2181.53,4886.24 L 1761.94,4643.99 Z " />
<path stroke="transparent" fill="#000000" transform="matrix(0.0833333 0 0 0.0833333 -116.875 -245)" d="M 2256.55,3787.3 L 2316.55,3683.37 L 2706.7,3965.71 L 2706.14,3977.58 L 2696.14,3984.01 L 2256.55,3787.3 Z " />
<path stroke="transparent" fill="#000000" transform="matrix(0.0833333 0 0 0.0833333 -116.875 -245)" d="M 3165.76,3197.42 L 3285.76,3197.42 L 3283.41,3217.42 L 3168.1,3217.42 L 3165.76,3197.42 Z " />
<path stroke="transparent" fill="#000000" transform="matrix(0.0833333 0 0 0.0833333 -116.875 -245)" d="M 3172.56,3255.44 L 3278.95,3255.44 L 3276.6,3275.44 L 3174.91,3275.44 L 3172.56,3255.44 Z " />
<path stroke="transparent" fill="#000000" transform="matrix(0.0833333 0 0 0.0833333 -116.875 -245)" d="M 3179.37,3313.46 L 3272.14,3313.46 L 3269.79,3333.46 L 3181.72,3333.46 L 3179.37,3313.46 Z " />
<path stroke="transparent" fill="#000000" transform="matrix(0.0833333 0 0 0.0833333 -116.875 -245)" d="M 3186.18,3371.48 L 3265.33,3371.48 L 3262.99,3391.48 L 3188.53,3391.48 L 3186.18,3371.48 Z " />
<path stroke="transparent" fill="#000000" transform="matrix(0.0833333 0 0 0.0833333 -116.875 -245)" d="M 3192.99,3429.5 L 3258.53,3429.5 L 3256.18,3449.5 L 3195.33,3449.5 L 3192.99,3429.5 Z " />
<path stroke="transparent" fill="#000000" transform="matrix(0.0833333 0 0 0.0833333 -116.875 -245)" d="M 3199.79,3487.52 L 3251.72,3487.52 L 3249.37,3507.52 L 3202.14,3507.52 L 3199.79,3487.52 Z " />
<path stroke="transparent" fill="#000000" transform="matrix(0.0833333 0 0 0.0833333 -116.875 -245)" d="M 3206.6,3545.54 L 3244.91,3545.54 L 3242.56,3565.54 L 3208.95,3565.54 L 3206.6,3545.54 Z " />
<path stroke="transparent" fill="#000000" transform="matrix(0.0833333 0 0 0.0833333 -116.875 -245)" d="M 3213.41,3603.56 L 3238.1,3603.56 L 3235.76,3623.56 L 3215.76,3623.56 L 3213.41,3603.56 Z " />
<path stroke="transparent" fill="#000000" transform="matrix(0.0833333 0 0 0.0833333 -116.875 -245)" d="M 4135.38,3683.13 L 4195.38,3787.05 L 3755.37,3984.01 L 3745.37,3977.58 L 3744.81,3965.71 L 4135.38,3683.13 Z " />
<path stroke="transparent" fill="#000000" transform="matrix(0.0833333 0 0 0.0833333 -116.875 -245)" d="M 5294.22,3197.42 L 5314.22,3197.42 L 5314.22,3671.81 L 5304.22,3677.58 L 5294.22,3671.81 L 5294.22,3197.42 Z " />
<path stroke="transparent" fill="#000000" transform="matrix(0.0833333 0 0 0.0833333 -116.875 -245)" d="M 6343.45,3666.04 L 6343.45,3689.13 L 5833.83,3983.36 L 5823.83,3977.58 L 5823.83,3966.04 L 6343.45,3666.04 Z " />
<path stroke="transparent" fill="#000000" transform="matrix(0.0833333 0 0 0.0833333 -116.875 -245)" d="M 6297.45,3197.42 L 6317.45,3197.42 L 6317.45,3698.37 L 6297.45,3698.37 L 6297.45,3197.42 Z " />
<path stroke="transparent" fill="#000000" transform="matrix(0.0833333 0 0 0.0833333 -116.875 -245)" d="M 6369.45,3197.42 L 6389.45,3197.42 L 6389.45,3698.37 L 6369.45,3698.37 L 6369.45,3197.42 Z " />
<path stroke="transparent" fill="#000000" transform="matrix(0.0833333 0 0 0.0833333 -116.875 -245)" d="M 6775.44,3915.45 L 6765.44,3932.77 L 6343.45,3689.13 L 6343.45,3666.04 L 6775.44,3915.45 Z " />
<path stroke="transparent" fill="#000000" transform="matrix(0.0833333 0 0 0.0833333 -116.875 -245)" d="M 6960.68,3932.77 L 6950.68,3915.45 L 7372.22,3672.07 L 7382.68,3677.58 L 7382.68,3689.13 L 6960.68,3932.77 Z " />
</svg>
