<?xml version="1.0" standalone="no" ?>
<!DOCTYPE svg PUBLIC "-//W3C//DTD SVG 1.1//EN" "http://www.w3.org/Graphics/SVG/1.1/DTD/svg11.dtd">
<svg width="368px" height="121px" viewBox="0 0 368 121" style="background-color: #ffffff00" xmlns="http://www.w3.org/2000/svg" xmlns:xlink="http://www.w3.org/1999/xlink" version="1.1" >
<text x="0" y="0" stroke="transparent" fill="#000000" transform="matrix(0.0666667 0 0 0.0666667 275.824 114.676)" style="font:normal normal normal 200px 'Arial'" >
NH</text>
<text x="0" y="0" stroke="transparent" fill="#000000" transform="matrix(0.0666667 0 0 0.0666667 295.082 117.609)" style="font:normal normal normal 150px 'Arial'" >
2</text>
<text x="0" y="0" stroke="transparent" fill="#000000" transform="matrix(0.0666667 0 0 0.0666667 137.255 74.6701)" style="font:normal normal normal 200px 'Arial'" >
N</text>
<text x="0" y="0" stroke="transparent" fill="#000000" transform="matrix(0.0666667 0 0 0.0666667 137.255 85.7923)" style="font:normal normal normal 200px 'Arial'" >
H</text>
<text x="0" y="0" stroke="transparent" fill="#000000" transform="matrix(0.0666667 0 0 0.0666667 310.068 14.6683)" style="font:normal normal normal 200px 'Arial'" >
O</text>
<text x="0" y="0" stroke="transparent" fill="#000000" transform="matrix(0.0666667 0 0 0.0666667 344.711 74.6701)" style="font:normal normal normal 200px 'Arial'" >
OH</text>
<text x="0" y="0" stroke="transparent" fill="#000000" transform="matrix(0.0666667 0 0 0.0666667 67.9732 74.6701)" style="font:normal normal normal 200px 'Arial'" >
N</text>
<text x="0" y="0" stroke="transparent" fill="#000000" transform="matrix(0.0666667 0 0 0.0666667 33.3298 54.6743)" style="font:normal normal normal 200px 'Arial'" >
N</text>
<path stroke="transparent" fill="#000000" transform="matrix(0.0666667 0 0 0.0666667 -164.853 -333)" d="M 6742.17,6534.31 L 6622.17,6534.31 L 6671.62,6042.51 L 6682.17,6037.05 L 6692.72,6042.51 L 6742.17,6534.31 Z " />
<path stroke="transparent" fill="#000000" transform="matrix(0.0666667 0 0 0.0666667 -164.853 -333)" d="M 6692.72,6042.51 L 6682.17,6037.05 L 6682.17,6025.51 L 7201.82,5725.57 L 7201.82,5748.66 L 6692.72,6042.51 Z " />
<path stroke="transparent" fill="#000000" transform="matrix(0.0666667 0 0 0.0666667 -164.853 -333)" d="M 6162.51,5748.66 L 6162.51,5725.57 L 6682.17,6025.51 L 6682.17,6037.05 L 6671.62,6042.51 L 6162.51,5748.66 Z " />
<path stroke="transparent" fill="#000000" transform="matrix(0.0666667 0 0 0.0666667 -164.853 -333)" d="M 5642.93,6048.6 L 5642.93,6025.5 L 6162.51,5725.57 L 6162.51,5748.66 L 5642.93,6048.6 Z " />
<path stroke="transparent" fill="#000000" transform="matrix(0.0666667 0 0 0.0666667 -164.853 -333)" d="M 5123.28,5748.66 L 5123.28,5725.57 L 5642.93,6025.5 L 5642.93,6048.6 L 5123.28,5748.66 Z " />
<path stroke="transparent" fill="#000000" transform="matrix(0.0666667 0 0 0.0666667 -164.853 -333)" d="M 4712.48,5985.77 L 4702.48,5968.45 L 5123.28,5725.57 L 5123.28,5748.66 L 4712.48,5985.77 Z " />
<path stroke="transparent" fill="#000000" transform="matrix(0.0666667 0 0 0.0666667 -164.853 -333)" d="M 7155.81,5256.86 L 7175.81,5256.86 L 7175.81,5757.9 L 7155.81,5757.9 L 7155.81,5256.86 Z " />
<path stroke="transparent" fill="#000000" transform="matrix(0.0666667 0 0 0.0666667 -164.853 -333)" d="M 7227.82,5256.86 L 7247.82,5256.86 L 7247.82,5757.9 L 7227.82,5757.9 L 7227.82,5256.86 Z " />
<path stroke="transparent" fill="#000000" transform="matrix(0.0666667 0 0 0.0666667 -164.853 -333)" d="M 7633.84,5974.93 L 7623.85,5992.25 L 7201.82,5748.66 L 7201.82,5725.57 L 7633.84,5974.93 Z " />
<path stroke="transparent" fill="#000000" transform="matrix(0.0666667 0 0 0.0666667 -164.853 -333)" d="M 2530.09,6045.71 L 2520.1,6028.39 L 2929.69,5791.98 L 2939.69,5809.3 L 2530.09,6045.71 Z " />
<path stroke="transparent" fill="#000000" transform="matrix(0.0666667 0 0 0.0666667 -164.853 -333)" d="M 3034.75,5137.02 L 3054.75,5137.02 L 3054.75,5634.28 L 3034.75,5634.28 L 3034.75,5137.02 Z " />
<path stroke="transparent" fill="#000000" transform="matrix(0.0666667 0 0 0.0666667 -164.853 -333)" d="M 3149.81,5809.3 L 3159.8,5791.98 L 3465.54,5968.45 L 3455.55,5985.77 L 3149.81,5809.3 Z " />
<path stroke="transparent" fill="#000000" transform="matrix(0.0666667 0 0 0.0666667 -164.853 -333)" d="M 3710.47,6047.29 L 3698.02,6031.64 L 4083.15,5725.05 L 4084.95,5749.18 L 3710.47,6047.29 Z " />
<path stroke="transparent" fill="#000000" transform="matrix(0.0666667 0 0 0.0666667 -164.853 -333)" d="M 3674.48,5984.93 L 3662.02,5969.28 L 4077.82,5812.43 L 4090.28,5828.07 L 3674.48,5984.93 Z " />
<path stroke="transparent" fill="#000000" transform="matrix(0.0666667 0 0 0.0666667 -164.853 -333)" d="M 4084.05,5748.66 L 4084.05,5725.57 L 4504.78,5968.44 L 4494.78,5985.76 L 4084.05,5748.66 Z " />
</svg>
