<?xml version="1.0" standalone="no" ?>
<!DOCTYPE svg PUBLIC "-//W3C//DTD SVG 1.1//EN" "http://www.w3.org/Graphics/SVG/1.1/DTD/svg11.dtd">
<svg width="388px" height="212px" viewBox="0 0 388 212" style="background-color: #ffffff00" xmlns="http://www.w3.org/2000/svg" xmlns:xlink="http://www.w3.org/1999/xlink" version="1.1" >
<text x="0" y="0" stroke="transparent" fill="#000000" transform="matrix(0.0666667 0 0 0.0666667 345.142 13.9501)" style="font:normal normal normal 200px 'Arial'" >
O</text>
<text x="0" y="0" stroke="transparent" fill="#000000" transform="matrix(0.0666667 0 0 0.0666667 33.3712 73.9513)" style="font:normal normal normal 200px 'Arial'" >
O</text>
<text x="0" y="0" stroke="transparent" fill="#000000" transform="matrix(0.0666667 0 0 0.0666667 102.653 193.95)" style="font:normal normal normal 200px 'Arial'" >
O</text>
<path stroke="transparent" fill="#000000" transform="matrix(0.0666667 0 0 0.0666667 -154.425 -207)" d="M 7666.55,3302.67 L 7676.55,3285.35 L 8096.12,3527.6 L 8086.12,3544.92 L 7666.55,3302.67 Z " />
<path stroke="transparent" fill="#000000" transform="matrix(0.0666667 0 0 0.0666667 -154.425 -207)" d="M 7061.9,3542.03 L 7051.9,3536.26 L 7051.9,3524.71 L 7466.91,3285.1 L 7476.91,3302.42 L 7061.9,3542.03 Z " />
<path stroke="transparent" fill="#000000" transform="matrix(0.0666667 0 0 0.0666667 -154.425 -207)" d="M 6532.29,3247.8 L 6532.29,3224.7 L 7051.9,3524.71 L 7051.9,3536.26 L 7041.9,3542.03 L 6532.29,3247.8 Z " />
<path stroke="transparent" fill="#000000" transform="matrix(0.0666667 0 0 0.0666667 -154.425 -207)" d="M 6527.29,3328.05 L 6537.29,3310.73 L 6984.9,3569.17 L 6974.9,3586.49 L 6527.29,3328.05 Z " />
<path stroke="transparent" fill="#000000" transform="matrix(0.0666667 0 0 0.0666667 -154.425 -207)" d="M 6022.62,3542.09 L 6002.62,3530.54 L 6532.29,3224.7 L 6532.29,3247.8 L 6022.62,3542.09 Z " />
<path stroke="transparent" fill="#000000" transform="matrix(0.0666667 0 0 0.0666667 -154.425 -207)" d="M 6022.62,4130.5 L 6012.62,4136.27 L 6002.62,4130.5 L 6002.62,3530.54 L 6022.62,3542.09 L 6022.62,4130.5 Z " />
<path stroke="transparent" fill="#000000" transform="matrix(0.0666667 0 0 0.0666667 -154.425 -207)" d="M 6094.61,4094.7 L 6074.61,4094.7 L 6074.61,3577.88 L 6094.61,3577.88 L 6094.61,4094.7 Z " />
<path stroke="transparent" fill="#000000" transform="matrix(0.0666667 0 0 0.0666667 -154.425 -207)" d="M 5493,4447.82 L 5493,4424.73 L 6002.62,4130.5 L 6012.62,4136.27 L 6012.62,4147.82 L 5493,4447.82 Z " />
<path stroke="transparent" fill="#000000" transform="matrix(0.0666667 0 0 0.0666667 -154.425 -207)" d="M 4973.39,4147.82 L 4973.39,4124.72 L 5493,4424.73 L 5493,4447.82 L 4973.39,4147.82 Z " />
<path stroke="transparent" fill="#000000" transform="matrix(0.0666667 0 0 0.0666667 -154.425 -207)" d="M 4968.39,4228.07 L 4978.39,4210.75 L 5462,4489.97 L 5452,4507.29 L 4968.39,4228.07 Z " />
<path stroke="transparent" fill="#000000" transform="matrix(0.0666667 0 0 0.0666667 -154.425 -207)" d="M 4463.78,4442.05 L 4453.78,4436.28 L 4453.78,4424.73 L 4973.39,4124.72 L 4973.39,4147.82 L 4463.78,4442.05 Z " />
<path stroke="transparent" fill="#000000" transform="matrix(0.0666667 0 0 0.0666667 -154.425 -207)" d="M 3934.17,4147.82 L 3934.17,4124.72 L 4453.78,4424.73 L 4453.78,4436.28 L 4443.78,4442.05 L 3934.17,4147.82 Z " />
<path stroke="transparent" fill="#000000" transform="matrix(0.0666667 0 0 0.0666667 -154.425 -207)" d="M 3929.17,4228.07 L 3939.17,4210.75 L 4386.78,4469.19 L 4376.78,4486.51 L 3929.17,4228.07 Z " />
<path stroke="transparent" fill="#000000" transform="matrix(0.0666667 0 0 0.0666667 -154.425 -207)" d="M 3424.56,4441.99 L 3414.56,4436.22 L 3414.56,4424.67 L 3934.17,4124.72 L 3934.17,4147.82 L 3424.56,4441.99 Z " />
<path stroke="transparent" fill="#000000" transform="matrix(0.0666667 0 0 0.0666667 -154.425 -207)" d="M 2989.99,4202.68 L 2999.99,4185.36 L 3414.56,4424.67 L 3414.56,4436.22 L 3404.56,4441.99 L 2989.99,4202.68 Z " />
<path stroke="transparent" fill="#000000" transform="matrix(0.0666667 0 0 0.0666667 -154.425 -207)" d="M 2380.28,4444.88 L 2370.28,4427.56 L 2790.34,4185.1 L 2800.34,4202.42 L 2380.28,4444.88 Z " />
<path stroke="transparent" fill="#000000" transform="matrix(0.0666667 0 0 0.0666667 -154.425 -207)" d="M 3424.56,5030.46 L 3404.56,5042 L 3404.56,4441.99 L 3414.56,4436.22 L 3424.56,4441.99 L 3424.56,5030.46 Z " />
<path stroke="transparent" fill="#000000" transform="matrix(0.0666667 0 0 0.0666667 -154.425 -207)" d="M 3496.56,4994.66 L 3476.56,4994.66 L 3476.56,4477.79 L 3496.56,4477.79 L 3496.56,4994.66 Z " />
<path stroke="transparent" fill="#000000" transform="matrix(0.0666667 0 0 0.0666667 -154.425 -207)" d="M 3934.17,5324.69 L 3934.17,5336.24 L 3924.17,5342.01 L 3404.56,5042 L 3424.56,5030.46 L 3934.17,5324.69 Z " />
<path stroke="transparent" fill="#000000" transform="matrix(0.0666667 0 0 0.0666667 -154.425 -207)" d="M 3944.17,5831.08 L 3924.17,5831.08 L 3924.17,5342.01 L 3934.17,5336.24 L 3944.17,5342.01 L 3944.17,5831.08 Z " />
<path stroke="transparent" fill="#000000" transform="matrix(0.0666667 0 0 0.0666667 -154.425 -207)" d="M 4458.78,6227.6 L 4448.78,6244.92 L 4029.21,6002.67 L 4039.21,5985.35 L 4458.78,6227.6 Z " />
<path stroke="transparent" fill="#000000" transform="matrix(0.0666667 0 0 0.0666667 -154.425 -207)" d="M 4443.78,5030.46 L 4463.78,5042 L 3944.17,5342.01 L 3934.17,5336.24 L 3934.17,5324.69 L 4443.78,5030.46 Z " />
<path stroke="transparent" fill="#000000" transform="matrix(0.0666667 0 0 0.0666667 -154.425 -207)" d="M 4376.78,4986 L 4386.78,5003.32 L 3939.17,5261.76 L 3929.17,5244.44 L 4376.78,4986 Z " />
<path stroke="transparent" fill="#000000" transform="matrix(0.0666667 0 0 0.0666667 -154.425 -207)" d="M 4463.78,5042 L 4443.78,5030.46 L 4443.78,4442.05 L 4453.78,4436.28 L 4463.78,4442.05 L 4463.78,5042 Z " />
<path stroke="transparent" fill="#000000" transform="matrix(0.0666667 0 0 0.0666667 -154.425 -207)" d="M 6532.29,4424.67 L 6532.29,4447.76 L 6012.62,4147.82 L 6012.62,4136.27 L 6022.62,4130.5 L 6532.29,4424.67 Z " />
<path stroke="transparent" fill="#000000" transform="matrix(0.0666667 0 0 0.0666667 -154.425 -207)" d="M 7041.9,4130.5 L 7061.9,4142.04 L 6532.29,4447.76 L 6532.29,4424.67 L 7041.9,4130.5 Z " />
<path stroke="transparent" fill="#000000" transform="matrix(0.0666667 0 0 0.0666667 -154.425 -207)" d="M 6974.9,4086.04 L 6984.9,4103.36 L 6537.29,4361.75 L 6527.29,4344.43 L 6974.9,4086.04 Z " />
<path stroke="transparent" fill="#000000" transform="matrix(0.0666667 0 0 0.0666667 -154.425 -207)" d="M 7061.9,4142.04 L 7041.9,4130.5 L 7041.9,3542.03 L 7051.9,3536.26 L 7061.9,3542.03 L 7061.9,4142.04 Z " />
</svg>
