<?xml version="1.0" standalone="no" ?>
<!DOCTYPE svg PUBLIC "-//W3C//DTD SVG 1.1//EN" "http://www.w3.org/Graphics/SVG/1.1/DTD/svg11.dtd">
<svg width="409px" height="487px" viewBox="0 0 409 487" style="background-color: #ffffff00" xmlns="http://www.w3.org/2000/svg" xmlns:xlink="http://www.w3.org/1999/xlink" version="1.1" >
<text x="0" y="0" stroke="transparent" fill="#000000" transform="matrix(0.0833333 0 0 0.0833333 133.106 481.588)" style="font:normal normal normal 200px 'Arial'" >
O</text>
<text x="0" y="0" stroke="transparent" fill="#000000" transform="matrix(0.0833333 0 0 0.0833333 78.2317 406.59)" style="font:normal normal normal 200px 'Arial'" >
HN</text>
<text x="0" y="0" stroke="transparent" fill="#000000" transform="matrix(0.0833333 0 0 0.0833333 22.6302 313.908)" style="font:normal normal normal 200px 'Arial'" >
O</text>
<text x="0" y="0" stroke="transparent" fill="#000000" transform="matrix(0.0833333 0 0 0.0833333 98.1279 270.606)" style="font:normal normal normal 200px 'Arial'" >
NH</text>
<text x="0" y="0" stroke="transparent" fill="#000000" transform="matrix(0.0833333 0 0 0.0833333 72.6287 140.707)" style="font:normal normal normal 200px 'Arial'" >
O</text>
<text x="0" y="0" stroke="transparent" fill="#000000" transform="matrix(0.0833333 0 0 0.0833333 148.126 184.009)" style="font:normal normal normal 200px 'Arial'" >
NH</text>
<text x="0" y="0" stroke="transparent" fill="#000000" transform="matrix(0.0833333 0 0 0.0833333 247.623 97.4113)" style="font:normal normal normal 200px 'Arial'" >
O</text>
<text x="0" y="0" stroke="transparent" fill="#000000" transform="matrix(0.0833333 0 0 0.0833333 236.051 184.009)" style="font:normal normal normal 200px 'Arial'" >
HN</text>
<text x="0" y="0" stroke="transparent" fill="#000000" transform="matrix(0.0833333 0 0 0.0833333 372.62 227.311)" style="font:normal normal normal 200px 'Arial'" >
O</text>
<text x="0" y="0" stroke="transparent" fill="#000000" transform="matrix(0.0833333 0 0 0.0833333 286.05 270.606)" style="font:normal normal normal 200px 'Arial'" >
HN</text>
<text x="0" y="0" stroke="transparent" fill="#000000" transform="matrix(0.0833333 0 0 0.0833333 322.621 400.505)" style="font:normal normal normal 200px 'Arial'" >
O</text>
<text x="0" y="0" stroke="transparent" fill="#000000" transform="matrix(0.0833333 0 0 0.0833333 247.623 357.21)" style="font:normal normal normal 200px 'Arial'" >
O</text>
<path stroke="transparent" fill="#000000" transform="matrix(0.0833333 0 0 0.0833333 -231.875 -125)" d="M 6426.19,6757.69 L 6437.74,6737.69 L 6740.62,7262.31 L 6723.29,7272.31 L 6426.19,6757.69 Z " />
<path stroke="transparent" fill="#000000" transform="matrix(0.0833333 0 0 0.0833333 -231.875 -125)" d="M 5826.21,6757.69 L 5837.76,6737.69 L 6437.74,6737.69 L 6426.19,6757.69 L 5826.21,6757.69 Z " />
<path stroke="transparent" fill="#000000" transform="matrix(0.0833333 0 0 0.0833333 -231.875 -125)" d="M 5583.95,7297.31 L 5480.03,7237.31 L 5491.61,7220.9 L 5592.37,7279.07 L 5583.95,7297.31 Z " />
<path stroke="transparent" fill="#000000" transform="matrix(0.0833333 0 0 0.0833333 -231.875 -125)" d="M 5608.54,7244.01 L 5513.89,7189.37 L 5525.47,7172.96 L 5616.95,7225.78 L 5608.54,7244.01 Z " />
<path stroke="transparent" fill="#000000" transform="matrix(0.0833333 0 0 0.0833333 -231.875 -125)" d="M 5633.13,7190.72 L 5547.74,7141.43 L 5559.33,7125.02 L 5641.54,7172.49 L 5633.13,7190.72 Z " />
<path stroke="transparent" fill="#000000" transform="matrix(0.0833333 0 0 0.0833333 -231.875 -125)" d="M 5657.71,7137.43 L 5581.6,7093.49 L 5593.18,7077.09 L 5666.13,7119.2 L 5657.71,7137.43 Z " />
<path stroke="transparent" fill="#000000" transform="matrix(0.0833333 0 0 0.0833333 -231.875 -125)" d="M 5682.3,7084.14 L 5615.45,7045.55 L 5627.04,7029.15 L 5690.71,7065.91 L 5682.3,7084.14 Z " />
<path stroke="transparent" fill="#000000" transform="matrix(0.0833333 0 0 0.0833333 -231.875 -125)" d="M 5706.88,7030.85 L 5649.31,6997.61 L 5660.9,6981.21 L 5715.3,7012.61 L 5706.88,7030.85 Z " />
<path stroke="transparent" fill="#000000" transform="matrix(0.0833333 0 0 0.0833333 -231.875 -125)" d="M 5731.47,6977.56 L 5683.17,6949.67 L 5694.75,6933.27 L 5739.88,6959.32 L 5731.47,6977.56 Z " />
<path stroke="transparent" fill="#000000" transform="matrix(0.0833333 0 0 0.0833333 -231.875 -125)" d="M 5756.06,6924.27 L 5717.02,6901.73 L 5728.61,6885.33 L 5764.47,6906.03 L 5756.06,6924.27 Z " />
<path stroke="transparent" fill="#000000" transform="matrix(0.0833333 0 0 0.0833333 -231.875 -125)" d="M 5780.64,6870.98 L 5750.88,6853.8 L 5762.47,6837.39 L 5789.06,6852.74 L 5780.64,6870.98 Z " />
<path stroke="transparent" fill="#000000" transform="matrix(0.0833333 0 0 0.0833333 -231.875 -125)" d="M 5805.23,6817.69 L 5784.74,6805.86 L 5796.32,6789.45 L 5813.64,6799.45 L 5805.23,6817.69 Z " />
<path stroke="transparent" fill="#000000" transform="matrix(0.0833333 0 0 0.0833333 -231.875 -125)" d="M 5526.22,6238.06 L 5537.76,6218.06 L 5837.76,6737.69 L 5826.21,6757.69 L 5526.22,6238.06 Z " />
<path stroke="transparent" fill="#000000" transform="matrix(0.0833333 0 0 0.0833333 -231.875 -125)" d="M 4935.47,6238.06 L 4928.55,6218.06 L 5537.76,6218.06 L 5526.22,6238.06 L 4935.47,6238.06 Z " />
<path stroke="transparent" fill="#000000" transform="matrix(0.0833333 0 0 0.0833333 -231.875 -125)" d="M 4458.63,6613.12 L 4456.91,6589.03 L 4928.55,6218.06 L 4935.47,6238.06 L 4458.63,6613.12 Z " />
<path stroke="transparent" fill="#000000" transform="matrix(0.0833333 0 0 0.0833333 -231.875 -125)" d="M 4503.77,7095.89 L 4483.77,7095.89 L 4483.77,6572.76 L 4503.77,6572.76 L 4503.77,7095.89 Z " />
<path stroke="transparent" fill="#000000" transform="matrix(0.0833333 0 0 0.0833333 -231.875 -125)" d="M 4431.77,7095.89 L 4411.77,7095.89 L 4411.77,6580.29 L 4431.77,6580.29 L 4431.77,7095.89 Z " />
<path stroke="transparent" fill="#000000" transform="matrix(0.0833333 0 0 0.0833333 -231.875 -125)" d="M 4042.63,6372.95 L 4052.62,6355.62 L 4456.91,6589.03 L 4458.63,6613.12 L 4042.63,6372.95 Z " />
<path stroke="transparent" fill="#000000" transform="matrix(0.0833333 0 0 0.0833333 -231.875 -125)" d="M 4021.6,5710.45 L 4042.47,5706.58 L 3963.97,6202.01 L 3944.22,6198.88 L 4021.6,5710.45 Z " />
<path stroke="transparent" fill="#000000" transform="matrix(0.0833333 0 0 0.0833333 -231.875 -125)" d="M 3720.5,5188.9 L 3743.59,5188.9 L 4042.47,5706.58 L 4021.6,5710.45 L 3720.5,5188.9 Z " />
<path stroke="transparent" fill="#000000" transform="matrix(0.0833333 0 0 0.0833333 -231.875 -125)" d="M 3240.06,5234.89 L 3240.06,5214.89 L 3752.83,5214.89 L 3752.83,5234.89 L 3240.06,5234.89 Z " />
<path stroke="transparent" fill="#000000" transform="matrix(0.0833333 0 0 0.0833333 -231.875 -125)" d="M 3240.06,5162.9 L 3240.06,5142.9 L 3752.83,5142.9 L 3752.83,5162.9 L 3240.06,5162.9 Z " />
<path stroke="transparent" fill="#000000" transform="matrix(0.0833333 0 0 0.0833333 -231.875 -125)" d="M 3955.89,4781.17 L 3973.21,4791.16 L 3743.59,5188.9 L 3720.5,5188.9 L 3955.89,4781.17 Z " />
<path stroke="transparent" fill="#000000" transform="matrix(0.0833333 0 0 0.0833333 -231.875 -125)" d="M 3726.54,4160.19 L 3732.04,4149.73 L 3743.59,4149.73 L 3979.55,4558.39 L 3962.23,4568.39 L 3726.54,4160.19 Z " />
<path stroke="transparent" fill="#000000" transform="matrix(0.0833333 0 0 0.0833333 -231.875 -125)" d="M 4026.26,3620.1 L 4037.81,3640.1 L 3743.59,4149.73 L 3732.04,4149.73 L 3726.54,4139.27 L 4026.26,3620.1 Z " />
<path stroke="transparent" fill="#000000" transform="matrix(0.0833333 0 0 0.0833333 -231.875 -125)" d="M 3752.74,3238.34 L 3770.06,3228.34 L 4019.91,3661.11 L 4002.59,3671.11 L 3752.74,3238.34 Z " />
<path stroke="transparent" fill="#000000" transform="matrix(0.0833333 0 0 0.0833333 -231.875 -125)" d="M 3815.1,3202.34 L 3832.42,3192.34 L 4082.26,3625.11 L 4064.94,3635.1 L 3815.1,3202.34 Z " />
<path stroke="transparent" fill="#000000" transform="matrix(0.0833333 0 0 0.0833333 -231.875 -125)" d="M 4536.02,3620.1 L 4536.02,3640.1 L 4037.81,3640.1 L 4026.26,3620.1 L 4536.02,3620.1 Z " />
<path stroke="transparent" fill="#000000" transform="matrix(0.0833333 0 0 0.0833333 -231.875 -125)" d="M 4926.24,3100.48 L 4937.78,3120.48 L 4711.06,3513.19 L 4693.74,3503.19 L 4926.24,3100.48 Z " />
<path stroke="transparent" fill="#000000" transform="matrix(0.0833333 0 0 0.0833333 -231.875 -125)" d="M 5537.76,3100.48 L 5526.22,3120.48 L 4937.78,3120.48 L 4926.24,3100.48 L 5537.76,3100.48 Z " />
<path stroke="transparent" fill="#000000" transform="matrix(0.0833333 0 0 0.0833333 -231.875 -125)" d="M 5731.79,2672.47 L 5749.11,2682.47 L 5499.09,3115.48 L 5481.77,3105.48 L 5731.79,2672.47 Z " />
<path stroke="transparent" fill="#000000" transform="matrix(0.0833333 0 0 0.0833333 -231.875 -125)" d="M 5794.14,2708.47 L 5811.46,2718.47 L 5561.43,3151.48 L 5544.11,3141.48 L 5794.14,2708.47 Z " />
<path stroke="transparent" fill="#000000" transform="matrix(0.0833333 0 0 0.0833333 -231.875 -125)" d="M 5770.04,3502.82 L 5752.72,3512.82 L 5526.22,3120.48 L 5537.76,3100.48 L 5770.04,3502.82 Z " />
<path stroke="transparent" fill="#000000" transform="matrix(0.0833333 0 0 0.0833333 -231.875 -125)" d="M 6425.66,3620.1 L 6431.96,3630.1 L 6426.19,3640.1 L 5927.11,3640.1 L 5927.11,3620.1 L 6425.66,3620.1 Z " />
<path stroke="transparent" fill="#000000" transform="matrix(0.0833333 0 0 0.0833333 -231.875 -125)" d="M 6743.5,4149.73 L 6720.41,4149.73 L 6426.19,3640.1 L 6431.96,3630.1 L 6443.78,3630.56 L 6743.5,4149.73 Z " />
<path stroke="transparent" fill="#000000" transform="matrix(0.0833333 0 0 0.0833333 -231.875 -125)" d="M 7223.94,4103.73 L 7223.94,4123.73 L 6711.17,4123.73 L 6711.17,4103.73 L 7223.94,4103.73 Z " />
<path stroke="transparent" fill="#000000" transform="matrix(0.0833333 0 0 0.0833333 -231.875 -125)" d="M 7223.94,4175.73 L 7223.94,4195.73 L 6711.17,4195.73 L 6711.17,4175.73 L 7223.94,4175.73 Z " />
<path stroke="transparent" fill="#000000" transform="matrix(0.0833333 0 0 0.0833333 -231.875 -125)" d="M 6501.55,4568.76 L 6484.23,4558.76 L 6720.41,4149.73 L 6743.5,4149.73 L 6501.55,4568.76 Z " />
<path stroke="transparent" fill="#000000" transform="matrix(0.0833333 0 0 0.0833333 -231.875 -125)" d="M 6737.46,5178.44 L 6731.96,5188.9 L 6720.41,5188.9 L 6490.57,4790.79 L 6507.89,4780.79 L 6737.46,5178.44 Z " />
<path stroke="transparent" fill="#000000" transform="matrix(0.0833333 0 0 0.0833333 -231.875 -125)" d="M 6437.74,5718.52 L 6426.19,5698.52 L 6720.41,5188.9 L 6731.96,5188.9 L 6737.46,5199.35 L 6437.74,5718.52 Z " />
<path stroke="transparent" fill="#000000" transform="matrix(0.0833333 0 0 0.0833333 -231.875 -125)" d="M 6718.53,6112.83 L 6701.21,6122.83 L 6444.09,5677.52 L 6461.41,5667.52 L 6718.53,6112.83 Z " />
<path stroke="transparent" fill="#000000" transform="matrix(0.0833333 0 0 0.0833333 -231.875 -125)" d="M 6656.18,6148.83 L 6638.86,6158.83 L 6381.74,5713.52 L 6399.06,5703.52 L 6656.18,6148.83 Z " />
<path stroke="transparent" fill="#000000" transform="matrix(0.0833333 0 0 0.0833333 -231.875 -125)" d="M 5939.98,5718.52 L 5939.98,5698.52 L 6426.19,5698.52 L 6437.74,5718.52 L 5939.98,5718.52 Z " />
<path stroke="transparent" fill="#000000" transform="matrix(0.0833333 0 0 0.0833333 -231.875 -125)" d="M 5719.66,5783.05 L 5823.58,5843.05 L 5811.55,5859.2 L 5711.7,5801.54 L 5719.66,5783.05 Z " />
<path stroke="transparent" fill="#000000" transform="matrix(0.0833333 0 0 0.0833333 -231.875 -125)" d="M 5696.61,5836.58 L 5788.74,5889.78 L 5776.71,5905.92 L 5688.65,5855.08 L 5696.61,5836.58 Z " />
<path stroke="transparent" fill="#000000" transform="matrix(0.0833333 0 0 0.0833333 -231.875 -125)" d="M 5673.56,5890.12 L 5753.9,5936.5 L 5741.87,5952.65 L 5665.6,5908.61 L 5673.56,5890.12 Z " />
<path stroke="transparent" fill="#000000" transform="matrix(0.0833333 0 0 0.0833333 -231.875 -125)" d="M 5650.51,5943.65 L 5719.06,5983.23 L 5707.03,5999.37 L 5642.55,5962.14 L 5650.51,5943.65 Z " />
<path stroke="transparent" fill="#000000" transform="matrix(0.0833333 0 0 0.0833333 -231.875 -125)" d="M 5627.46,5997.18 L 5684.22,6029.96 L 5672.19,6046.1 L 5619.5,6015.68 L 5627.46,5997.18 Z " />
<path stroke="transparent" fill="#000000" transform="matrix(0.0833333 0 0 0.0833333 -231.875 -125)" d="M 5604.41,6050.72 L 5649.38,6076.68 L 5637.35,6092.83 L 5596.45,6069.21 L 5604.41,6050.72 Z " />
<path stroke="transparent" fill="#000000" transform="matrix(0.0833333 0 0 0.0833333 -231.875 -125)" d="M 5581.36,6104.25 L 5614.54,6123.41 L 5602.51,6139.55 L 5573.4,6122.74 L 5581.36,6104.25 Z " />
<path stroke="transparent" fill="#000000" transform="matrix(0.0833333 0 0 0.0833333 -231.875 -125)" d="M 5558.31,6157.78 L 5579.7,6170.13 L 5567.67,6186.28 L 5550.35,6176.28 L 5558.31,6157.78 Z " />
<path stroke="transparent" fill="#000000" transform="matrix(0.0833333 0 0 0.0833333 -231.875 -125)" d="M 7356.2,5126.87 L 7331.94,5188.9 L 7356.2,5250.92 L 6737.46,5199.35 L 6731.96,5188.9 L 6737.46,5178.44 L 7356.2,5126.87 Z " />
<path stroke="transparent" fill="#000000" transform="matrix(0.0833333 0 0 0.0833333 -231.875 -125)" d="M 7640.59,5703.52 L 7623.27,5713.52 L 7356.2,5250.92 L 7331.94,5188.9 L 7343.48,5188.9 L 7640.59,5703.52 Z " />
<path stroke="transparent" fill="#000000" transform="matrix(0.0833333 0 0 0.0833333 -231.875 -125)" d="M 7623.27,4664.27 L 7640.59,4674.27 L 7343.48,5188.9 L 7331.94,5188.9 L 7356.2,5126.87 L 7623.27,4664.27 Z " />
<path stroke="transparent" fill="#000000" transform="matrix(0.0833333 0 0 0.0833333 -231.875 -125)" d="M 6679.99,3080.49 L 6783.92,3140.48 L 6443.78,3630.56 L 6431.96,3630.1 L 6425.66,3620.1 L 6679.99,3080.49 Z " />
<path stroke="transparent" fill="#000000" transform="matrix(0.0833333 0 0 0.0833333 -231.875 -125)" d="M 4607.1,2667.78 L 4711.02,2607.77 L 4719.26,2626.11 L 4618.86,2684.08 L 4607.1,2667.78 Z " />
<path stroke="transparent" fill="#000000" transform="matrix(0.0833333 0 0 0.0833333 -231.875 -125)" d="M 4641.78,2715.85 L 4735.32,2661.84 L 4743.56,2680.18 L 4653.54,2732.15 L 4641.78,2715.85 Z " />
<path stroke="transparent" fill="#000000" transform="matrix(0.0833333 0 0 0.0833333 -231.875 -125)" d="M 4676.46,2763.92 L 4759.61,2715.91 L 4767.85,2734.24 L 4688.22,2780.22 L 4676.46,2763.92 Z " />
<path stroke="transparent" fill="#000000" transform="matrix(0.0833333 0 0 0.0833333 -231.875 -125)" d="M 4711.14,2811.99 L 4783.91,2769.97 L 4792.15,2788.31 L 4722.9,2828.29 L 4711.14,2811.99 Z " />
<path stroke="transparent" fill="#000000" transform="matrix(0.0833333 0 0 0.0833333 -231.875 -125)" d="M 4745.82,2860.06 L 4808.2,2824.04 L 4816.44,2842.38 L 4757.58,2876.36 L 4745.82,2860.06 Z " />
<path stroke="transparent" fill="#000000" transform="matrix(0.0833333 0 0 0.0833333 -231.875 -125)" d="M 4780.5,2908.13 L 4832.5,2878.11 L 4840.74,2896.44 L 4792.26,2924.43 L 4780.5,2908.13 Z " />
<path stroke="transparent" fill="#000000" transform="matrix(0.0833333 0 0 0.0833333 -231.875 -125)" d="M 4815.18,2956.2 L 4856.79,2932.17 L 4865.03,2950.51 L 4826.94,2972.51 L 4815.18,2956.2 Z " />
<path stroke="transparent" fill="#000000" transform="matrix(0.0833333 0 0 0.0833333 -231.875 -125)" d="M 4849.86,3004.27 L 4881.09,2986.24 L 4889.33,3004.58 L 4861.62,3020.58 L 4849.86,3004.27 Z " />
<path stroke="transparent" fill="#000000" transform="matrix(0.0833333 0 0 0.0833333 -231.875 -125)" d="M 4884.54,3052.34 L 4905.38,3040.31 L 4913.62,3058.65 L 4896.3,3068.65 L 4884.54,3052.34 Z " />
<path stroke="transparent" fill="#000000" transform="matrix(0.0833333 0 0 0.0833333 -231.875 -125)" d="M 4920.46,2071.31 L 4932.01,2071.31 L 4937.78,2081.31 L 4640.68,2595.94 L 4623.36,2585.94 L 4920.46,2071.31 Z " />
<path stroke="transparent" fill="#000000" transform="matrix(0.0833333 0 0 0.0833333 -231.875 -125)" d="M 5531.99,2061.31 L 5531.99,2081.31 L 4937.78,2081.31 L 4932.01,2071.31 L 4937.78,2061.31 L 5531.99,2061.31 Z " />
<path stroke="transparent" fill="#000000" transform="matrix(0.0833333 0 0 0.0833333 -231.875 -125)" d="M 4623.36,1556.69 L 4640.68,1546.69 L 4937.78,2061.31 L 4932.01,2071.31 L 4920.46,2071.31 L 4623.36,1556.69 Z " />
<path stroke="transparent" fill="#000000" transform="matrix(0.0833333 0 0 0.0833333 -231.875 -125)" d="M 3107.8,4211.75 L 3132.06,4149.73 L 3107.8,4087.7 L 3726.54,4139.27 L 3732.04,4149.73 L 3726.54,4160.19 L 3107.8,4211.75 Z " />
<path stroke="transparent" fill="#000000" transform="matrix(0.0833333 0 0 0.0833333 -231.875 -125)" d="M 2823.41,3635.1 L 2840.73,3625.11 L 3107.8,4087.7 L 3132.06,4149.73 L 3120.51,4149.73 L 2823.41,3635.1 Z " />
<path stroke="transparent" fill="#000000" transform="matrix(0.0833333 0 0 0.0833333 -231.875 -125)" d="M 2840.73,4674.27 L 2823.41,4664.27 L 3120.51,4149.73 L 3132.06,4149.73 L 3107.8,4211.75 L 2840.73,4674.27 Z " />
</svg>
