<?xml version="1.0" standalone="no" ?>
<!DOCTYPE svg PUBLIC "-//W3C//DTD SVG 1.1//EN" "http://www.w3.org/Graphics/SVG/1.1/DTD/svg11.dtd">
<svg width="386px" height="165px" viewBox="0 0 386 165" style="background-color: #ffffff00" xmlns="http://www.w3.org/2000/svg" xmlns:xlink="http://www.w3.org/1999/xlink" version="1.1" >
<text x="0" y="0" stroke="transparent" fill="#000000" transform="matrix(0.0833333 0 0 0.0833333 132.404 146.873)" style="font:normal normal normal 200px 'Arial'" >
N</text>
<text x="0" y="0" stroke="transparent" fill="#000000" transform="matrix(0.0833333 0 0 0.0833333 132.404 160.679)" style="font:normal normal normal 200px 'Arial'" >
H</text>
<text x="0" y="0" stroke="transparent" fill="#000000" transform="matrix(0.0833333 0 0 0.0833333 147.352 18.4186)" style="font:normal normal normal 200px 'Arial'" >
O</text>
<text x="0" y="0" stroke="transparent" fill="#000000" transform="matrix(0.0833333 0 0 0.0833333 241.179 146.873)" style="font:normal normal normal 200px 'Arial'" >
N</text>
<text x="0" y="0" stroke="transparent" fill="#000000" transform="matrix(0.0833333 0 0 0.0833333 241.179 160.679)" style="font:normal normal normal 200px 'Arial'" >
H</text>
<text x="0" y="0" stroke="transparent" fill="#000000" transform="matrix(0.0833333 0 0 0.0833333 225.231 18.4186)" style="font:normal normal normal 200px 'Arial'" >
O</text>
<path stroke="transparent" fill="#000000" transform="matrix(0.0833333 0 0 0.0833333 -243.208 -277)" d="M 4919.64,4523.02 L 4932,4523.02 L 4937.1,4533.02 L 4660.09,4914.34 L 4643.91,4902.59 L 4919.64,4523.02 Z " />
<path stroke="transparent" fill="#000000" transform="matrix(0.0833333 0 0 0.0833333 -243.208 -277)" d="M 4575.53,4049.4 L 4583.17,4025.89 L 4937.1,4513.02 L 4932,4523.02 L 4919.64,4523.02 L 4575.53,4049.4 Z " />
<path stroke="transparent" fill="#000000" transform="matrix(0.0833333 0 0 0.0833333 -243.208 -277)" d="M 4018.73,4230.29 L 4008.73,4223.02 L 4009.87,4212.14 L 4583.17,4025.89 L 4575.53,4049.4 L 4018.73,4230.29 Z " />
<path stroke="transparent" fill="#000000" transform="matrix(0.0833333 0 0 0.0833333 -243.208 -277)" d="M 3489.09,3934.57 L 3489.09,3911.48 L 4009.87,4212.14 L 4008.73,4223.02 L 3998.73,4228.8 L 3489.09,3934.57 Z " />
<path stroke="transparent" fill="#000000" transform="matrix(0.0833333 0 0 0.0833333 -243.208 -277)" d="M 2979.46,4228.8 L 2959.46,4217.25 L 3489.09,3911.48 L 3489.09,3934.57 L 2979.46,4228.8 Z " />
<path stroke="transparent" fill="#000000" transform="matrix(0.0833333 0 0 0.0833333 -243.208 -277)" d="M 3046.46,4273.25 L 3036.46,4255.93 L 3484.09,3997.5 L 3494.09,4014.82 L 3046.46,4273.25 Z " />
<path stroke="transparent" fill="#000000" transform="matrix(0.0833333 0 0 0.0833333 -243.208 -277)" d="M 2979.46,4817.25 L 2959.46,4828.8 L 2959.46,4217.25 L 2979.46,4228.8 L 2979.46,4817.25 Z " />
<path stroke="transparent" fill="#000000" transform="matrix(0.0833333 0 0 0.0833333 -243.208 -277)" d="M 3489.09,5111.48 L 3489.09,5134.57 L 2959.46,4828.8 L 2979.46,4817.25 L 3489.09,5111.48 Z " />
<path stroke="transparent" fill="#000000" transform="matrix(0.0833333 0 0 0.0833333 -243.208 -277)" d="M 3494.09,5031.22 L 3484.09,5048.54 L 3036.46,4790.11 L 3046.46,4772.79 L 3494.09,5031.22 Z " />
<path stroke="transparent" fill="#000000" transform="matrix(0.0833333 0 0 0.0833333 -243.208 -277)" d="M 3998.73,4817.25 L 4008.73,4823.02 L 4009.87,4833.91 L 3489.09,5134.57 L 3489.09,5111.48 L 3998.73,4817.25 Z " />
<path stroke="transparent" fill="#000000" transform="matrix(0.0833333 0 0 0.0833333 -243.208 -277)" d="M 4009.87,4833.91 L 4008.73,4823.02 L 4018.73,4815.76 L 4475.32,4964.15 L 4469.14,4983.18 L 4009.87,4833.91 Z " />
<path stroke="transparent" fill="#000000" transform="matrix(0.0833333 0 0 0.0833333 -243.208 -277)" d="M 4018.73,4815.76 L 4008.73,4823.02 L 3998.73,4817.25 L 3998.73,4228.8 L 4008.73,4223.02 L 4018.73,4230.29 L 4018.73,4815.76 Z " />
<path stroke="transparent" fill="#000000" transform="matrix(0.0833333 0 0 0.0833333 -243.208 -277)" d="M 3946.73,4781.45 L 3926.73,4781.45 L 3926.73,4264.59 L 3946.73,4264.59 L 3946.73,4781.45 Z " />
<path stroke="transparent" fill="#000000" transform="matrix(0.0833333 0 0 0.0833333 -243.208 -277)" d="M 4683.35,3568.65 L 4702.37,3574.83 L 4546.54,4054.48 L 4527.52,4048.3 L 4683.35,3568.65 Z " />
<path stroke="transparent" fill="#000000" transform="matrix(0.0833333 0 0 0.0833333 -243.208 -277)" d="M 4751.82,3590.89 L 4770.84,3597.07 L 4615.01,4076.73 L 4595.99,4070.55 L 4751.82,3590.89 Z " />
<path stroke="transparent" fill="#000000" transform="matrix(0.0833333 0 0 0.0833333 -243.208 -277)" d="M 5526.9,4533.02 L 5532,4523.02 L 5544.36,4523.02 L 5820.09,4902.59 L 5803.91,4914.34 L 5526.9,4533.02 Z " />
<path stroke="transparent" fill="#000000" transform="matrix(0.0833333 0 0 0.0833333 -243.208 -277)" d="M 5880.83,4025.89 L 5888.47,4049.4 L 5544.36,4523.02 L 5532,4523.02 L 5526.9,4513.02 L 5880.83,4025.89 Z " />
<path stroke="transparent" fill="#000000" transform="matrix(0.0833333 0 0 0.0833333 -243.208 -277)" d="M 6454.13,4212.14 L 6455.27,4223.02 L 6445.27,4230.29 L 5888.47,4049.4 L 5880.83,4025.89 L 6454.13,4212.14 Z " />
<path stroke="transparent" fill="#000000" transform="matrix(0.0833333 0 0 0.0833333 -243.208 -277)" d="M 6974.91,3911.48 L 6974.91,3934.57 L 6465.27,4228.8 L 6455.27,4223.02 L 6454.13,4212.14 L 6974.91,3911.48 Z " />
<path stroke="transparent" fill="#000000" transform="matrix(0.0833333 0 0 0.0833333 -243.208 -277)" d="M 7504.54,4217.25 L 7484.54,4228.8 L 6974.91,3934.57 L 6974.91,3911.48 L 7504.54,4217.25 Z " />
<path stroke="transparent" fill="#000000" transform="matrix(0.0833333 0 0 0.0833333 -243.208 -277)" d="M 7427.54,4255.93 L 7417.54,4273.25 L 6969.91,4014.82 L 6979.91,3997.5 L 7427.54,4255.93 Z " />
<path stroke="transparent" fill="#000000" transform="matrix(0.0833333 0 0 0.0833333 -243.208 -277)" d="M 7504.54,4828.8 L 7484.54,4817.25 L 7484.54,4228.8 L 7504.54,4217.25 L 7504.54,4828.8 Z " />
<path stroke="transparent" fill="#000000" transform="matrix(0.0833333 0 0 0.0833333 -243.208 -277)" d="M 6974.91,5134.57 L 6974.91,5111.48 L 7484.54,4817.25 L 7504.54,4828.8 L 6974.91,5134.57 Z " />
<path stroke="transparent" fill="#000000" transform="matrix(0.0833333 0 0 0.0833333 -243.208 -277)" d="M 6979.91,5048.54 L 6969.91,5031.22 L 7417.54,4772.79 L 7427.54,4790.11 L 6979.91,5048.54 Z " />
<path stroke="transparent" fill="#000000" transform="matrix(0.0833333 0 0 0.0833333 -243.208 -277)" d="M 6454.13,4833.91 L 6455.27,4823.02 L 6465.27,4817.25 L 6974.91,5111.48 L 6974.91,5134.57 L 6454.13,4833.91 Z " />
<path stroke="transparent" fill="#000000" transform="matrix(0.0833333 0 0 0.0833333 -243.208 -277)" d="M 6445.27,4815.76 L 6455.27,4823.02 L 6454.13,4833.91 L 5994.86,4983.18 L 5988.68,4964.15 L 6445.27,4815.76 Z " />
<path stroke="transparent" fill="#000000" transform="matrix(0.0833333 0 0 0.0833333 -243.208 -277)" d="M 6465.27,4817.25 L 6455.27,4823.02 L 6445.27,4815.76 L 6445.27,4230.29 L 6455.27,4223.02 L 6465.27,4228.8 L 6465.27,4817.25 Z " />
<path stroke="transparent" fill="#000000" transform="matrix(0.0833333 0 0 0.0833333 -243.208 -277)" d="M 6537.27,4781.45 L 6517.27,4781.45 L 6517.27,4264.59 L 6537.27,4264.59 L 6537.27,4781.45 Z " />
<path stroke="transparent" fill="#000000" transform="matrix(0.0833333 0 0 0.0833333 -243.208 -277)" d="M 5693.16,3597.07 L 5712.18,3590.89 L 5868.01,4070.55 L 5848.99,4076.73 L 5693.16,3597.07 Z " />
<path stroke="transparent" fill="#000000" transform="matrix(0.0833333 0 0 0.0833333 -243.208 -277)" d="M 5761.63,3574.83 L 5780.65,3568.65 L 5936.48,4048.3 L 5917.46,4054.48 L 5761.63,3574.83 Z " />
<path stroke="transparent" fill="#000000" transform="matrix(0.0833333 0 0 0.0833333 -243.208 -277)" d="M 5526.9,4513.02 L 5532,4523.02 L 5526.9,4533.02 L 4937.1,4533.02 L 4932,4523.02 L 4937.1,4513.02 L 5526.9,4513.02 Z " />
<path stroke="transparent" fill="#000000" transform="matrix(0.0833333 0 0 0.0833333 -243.208 -277)" d="M 5495.31,4441.02 L 5495.31,4461.02 L 4968.69,4461.02 L 4968.69,4441.02 L 5495.31,4441.02 Z " />
</svg>
