<?xml version="1.0" standalone="no" ?>
<!DOCTYPE svg PUBLIC "-//W3C//DTD SVG 1.1//EN" "http://www.w3.org/Graphics/SVG/1.1/DTD/svg11.dtd">
<svg width="459px" height="315px" viewBox="0 0 459 315" style="background-color: #ffffff00" xmlns="http://www.w3.org/2000/svg" xmlns:xlink="http://www.w3.org/1999/xlink" version="1.1" >
<text x="0" y="0" stroke="transparent" fill="#000000" transform="matrix(0.0833333 0 0 0.0833333 405.151 86.1662)" style="font:normal normal normal 200px 'Arial'" >
O</text>
<text x="0" y="0" stroke="transparent" fill="#000000" transform="matrix(0.0833333 0 0 0.0833333 188.644 161.164)" style="font:normal normal normal 200px 'Arial'" >
O</text>
<text x="0" y="0" stroke="transparent" fill="#000000" transform="matrix(0.0833333 0 0 0.0833333 3.40669 161.165)" style="font:normal normal normal 200px 'Arial'" >
HO</text>
<text x="0" y="0" stroke="transparent" fill="#000000" transform="matrix(0.0833333 0 0 0.0833333 102.042 311.165)" style="font:normal normal normal 200px 'Arial'" >
OH</text>
<text x="0" y="0" stroke="transparent" fill="#000000" transform="matrix(0.0833333 0 0 0.0833333 188.645 311.167)" style="font:normal normal normal 200px 'Arial'" >
O</text>
<text x="0" y="0" stroke="transparent" fill="#000000" transform="matrix(0.0833333 0 0 0.0833333 275.245 261.169)" style="font:normal normal normal 200px 'Arial'" >
OH</text>
<path stroke="transparent" fill="#000000" transform="matrix(0.0833333 0 0 0.0833333 -217.25 -277)" d="M 7641.85,4346.42 L 7651.85,4329.1 L 8071.39,4571.34 L 8061.39,4588.66 L 7641.85,4346.42 Z " />
<path stroke="transparent" fill="#000000" transform="matrix(0.0833333 0 0 0.0833333 -217.25 -277)" d="M 7037.2,4585.77 L 7027.2,4579.99 L 7027.2,4568.45 L 7442.21,4328.84 L 7452.21,4346.16 L 7037.2,4585.77 Z " />
<path stroke="transparent" fill="#000000" transform="matrix(0.0833333 0 0 0.0833333 -217.25 -277)" d="M 6507.57,4291.52 L 6507.57,4268.43 L 7027.2,4568.45 L 7027.2,4579.99 L 7017.2,4585.77 L 6507.57,4291.52 Z " />
<path stroke="transparent" fill="#000000" transform="matrix(0.0833333 0 0 0.0833333 -217.25 -277)" d="M 6502.57,4371.78 L 6512.57,4354.45 L 6960.19,4612.9 L 6950.19,4630.22 L 6502.57,4371.78 Z " />
<path stroke="transparent" fill="#000000" transform="matrix(0.0833333 0 0 0.0833333 -217.25 -277)" d="M 5997.96,4585.75 L 5977.95,4574.2 L 6507.57,4268.43 L 6507.57,4291.52 L 5997.96,4585.75 Z " />
<path stroke="transparent" fill="#000000" transform="matrix(0.0833333 0 0 0.0833333 -217.25 -277)" d="M 5997.97,5174.22 L 5987.97,5179.99 L 5977.97,5174.22 L 5977.95,4574.2 L 5997.96,4585.75 L 5997.97,5174.22 Z " />
<path stroke="transparent" fill="#000000" transform="matrix(0.0833333 0 0 0.0833333 -217.25 -277)" d="M 6069.97,5138.43 L 6049.97,5138.43 L 6049.96,4621.54 L 6069.96,4621.54 L 6069.97,5138.43 Z " />
<path stroke="transparent" fill="#000000" transform="matrix(0.0833333 0 0 0.0833333 -217.25 -277)" d="M 5478.32,5485.79 L 5468.32,5480.01 L 5468.32,5468.47 L 5977.97,5174.22 L 5987.97,5179.99 L 5987.97,5191.54 L 5478.32,5485.79 Z " />
<path stroke="transparent" fill="#000000" transform="matrix(0.0833333 0 0 0.0833333 -217.25 -277)" d="M 5043.76,5246.4 L 5053.76,5229.08 L 5468.32,5468.47 L 5468.32,5480.01 L 5458.32,5485.79 L 5043.76,5246.4 Z " />
<path stroke="transparent" fill="#000000" transform="matrix(0.0833333 0 0 0.0833333 -217.25 -277)" d="M 4439.11,5485.75 L 4429.11,5479.97 L 4429.11,5468.43 L 4844.12,5228.82 L 4854.12,5246.14 L 4439.11,5485.75 Z " />
<path stroke="transparent" fill="#000000" transform="matrix(0.0833333 0 0 0.0833333 -217.25 -277)" d="M 3909.5,5191.53 L 3909.5,5179.99 L 3919.5,5174.21 L 4429.11,5468.43 L 4429.11,5479.97 L 4419.11,5485.75 L 3909.5,5191.53 Z " />
<path stroke="transparent" fill="#000000" transform="matrix(0.0833333 0 0 0.0833333 -217.25 -277)" d="M 3904.5,5271.78 L 3914.5,5254.46 L 4362.11,5512.88 L 4352.11,5530.2 L 3904.5,5271.78 Z " />
<path stroke="transparent" fill="#000000" transform="matrix(0.0833333 0 0 0.0833333 -217.25 -277)" d="M 3899.51,4585.77 L 3919.51,4574.23 L 3919.5,5174.21 L 3909.5,5179.99 L 3899.5,5174.21 L 3899.51,4585.77 Z " />
<path stroke="transparent" fill="#000000" transform="matrix(0.0833333 0 0 0.0833333 -217.25 -277)" d="M 3379.88,4285.75 L 3399.88,4274.2 L 3919.51,4574.23 L 3899.51,4585.77 L 3379.88,4285.75 Z " />
<path stroke="transparent" fill="#000000" transform="matrix(0.0833333 0 0 0.0833333 -217.25 -277)" d="M 3379.89,3685.76 L 3389.89,3679.99 L 3399.89,3685.76 L 3399.88,4274.2 L 3379.88,4285.75 L 3379.89,3685.76 Z " />
<path stroke="transparent" fill="#000000" transform="matrix(0.0833333 0 0 0.0833333 -217.25 -277)" d="M 3451.89,3721.56 L 3471.89,3721.56 L 3471.88,4238.41 L 3451.88,4238.41 L 3451.89,3721.56 Z " />
<path stroke="transparent" fill="#000000" transform="matrix(0.0833333 0 0 0.0833333 -217.25 -277)" d="M 3904.5,3371.33 L 3914.5,3388.65 L 3399.89,3685.76 L 3389.89,3679.99 L 3389.89,3668.44 L 3904.5,3371.33 Z " />
<path stroke="transparent" fill="#000000" transform="matrix(0.0833333 0 0 0.0833333 -217.25 -277)" d="M 2865.28,3388.66 L 2875.28,3371.34 L 3389.89,3668.44 L 3389.89,3679.99 L 3379.89,3685.76 L 2865.28,3388.66 Z " />
<path stroke="transparent" fill="#000000" transform="matrix(0.0833333 0 0 0.0833333 -217.25 -277)" d="M 3399.89,5485.76 L 3389.89,5479.99 L 3389.89,5468.44 L 3899.5,5174.21 L 3909.5,5179.99 L 3909.5,5191.53 L 3399.89,5485.76 Z " />
<path stroke="transparent" fill="#000000" transform="matrix(0.0833333 0 0 0.0833333 -217.25 -277)" d="M 2965.34,5246.4 L 2975.34,5229.08 L 3389.89,5468.44 L 3389.89,5479.99 L 3379.89,5485.76 L 2965.34,5246.4 Z " />
<path stroke="transparent" fill="#000000" transform="matrix(0.0833333 0 0 0.0833333 -217.25 -277)" d="M 3399.88,6074.2 L 3379.88,6085.75 L 3379.89,5485.76 L 3389.89,5479.99 L 3399.89,5485.76 L 3399.88,6074.2 Z " />
<path stroke="transparent" fill="#000000" transform="matrix(0.0833333 0 0 0.0833333 -217.25 -277)" d="M 3471.88,6038.41 L 3451.88,6038.41 L 3451.88,5521.55 L 3471.88,5521.55 L 3471.88,6038.41 Z " />
<path stroke="transparent" fill="#000000" transform="matrix(0.0833333 0 0 0.0833333 -217.25 -277)" d="M 3909.51,6368.45 L 3909.51,6379.99 L 3899.51,6385.77 L 3379.88,6085.75 L 3399.88,6074.2 L 3909.51,6368.45 Z " />
<path stroke="transparent" fill="#000000" transform="matrix(0.0833333 0 0 0.0833333 -217.25 -277)" d="M 3919.5,6874.81 L 3899.5,6874.81 L 3899.51,6385.77 L 3909.51,6379.99 L 3919.51,6385.77 L 3919.5,6874.81 Z " />
<path stroke="transparent" fill="#000000" transform="matrix(0.0833333 0 0 0.0833333 -217.25 -277)" d="M 4419.12,6074.22 L 4429.12,6079.99 L 4429.12,6091.54 L 3919.51,6385.77 L 3909.51,6379.99 L 3909.51,6368.45 L 4419.12,6074.22 Z " />
<path stroke="transparent" fill="#000000" transform="matrix(0.0833333 0 0 0.0833333 -217.25 -277)" d="M 4352.12,6029.77 L 4362.12,6047.09 L 3914.51,6305.52 L 3904.51,6288.19 L 4352.12,6029.77 Z " />
<path stroke="transparent" fill="#000000" transform="matrix(0.0833333 0 0 0.0833333 -217.25 -277)" d="M 4439.12,6074.22 L 4429.12,6079.99 L 4419.12,6074.22 L 4419.11,5485.75 L 4429.11,5479.97 L 4439.11,5485.75 L 4439.12,6074.22 Z " />
<path stroke="transparent" fill="#000000" transform="matrix(0.0833333 0 0 0.0833333 -217.25 -277)" d="M 4948.73,6368.43 L 4948.73,6391.53 L 4429.12,6091.54 L 4429.12,6079.99 L 4439.12,6074.22 L 4948.73,6368.43 Z " />
<path stroke="transparent" fill="#000000" transform="matrix(0.0833333 0 0 0.0833333 -217.25 -277)" d="M 4994.74,6874.83 L 4974.74,6874.84 L 4974.73,6359.2 L 4994.73,6359.2 L 4994.74,6874.83 Z " />
<path stroke="transparent" fill="#000000" transform="matrix(0.0833333 0 0 0.0833333 -217.25 -277)" d="M 4922.74,6874.84 L 4902.74,6874.84 L 4902.73,6359.2 L 4922.73,6359.2 L 4922.74,6874.84 Z " />
<path stroke="transparent" fill="#000000" transform="matrix(0.0833333 0 0 0.0833333 -217.25 -277)" d="M 5458.31,6074.23 L 5468.31,6080 L 5468.31,6091.55 L 4948.73,6391.53 L 4948.73,6368.43 L 5458.31,6074.23 Z " />
<path stroke="transparent" fill="#000000" transform="matrix(0.0833333 0 0 0.0833333 -217.25 -277)" d="M 5478.31,6074.23 L 5468.31,6080 L 5458.31,6074.23 L 5458.32,5485.79 L 5468.32,5480.01 L 5478.32,5485.79 L 5478.31,6074.23 Z " />
<path stroke="transparent" fill="#000000" transform="matrix(0.0833333 0 0 0.0833333 -217.25 -277)" d="M 5406.31,6038.43 L 5386.31,6038.43 L 5386.32,5521.58 L 5406.32,5521.58 L 5406.31,6038.43 Z " />
<path stroke="transparent" fill="#000000" transform="matrix(0.0833333 0 0 0.0833333 -217.25 -277)" d="M 5900.32,6317.89 L 5890.32,6335.21 L 5468.31,6091.55 L 5468.31,6080 L 5478.31,6074.23 L 5900.32,6317.89 Z " />
<path stroke="transparent" fill="#000000" transform="matrix(0.0833333 0 0 0.0833333 -217.25 -277)" d="M 6507.54,5468.45 L 6507.54,5491.55 L 5987.97,5191.54 L 5987.97,5179.99 L 5997.97,5174.22 L 6507.54,5468.45 Z " />
<path stroke="transparent" fill="#000000" transform="matrix(0.0833333 0 0 0.0833333 -217.25 -277)" d="M 7017.16,5174.23 L 7037.16,5185.77 L 6507.54,5491.55 L 6507.54,5468.45 L 7017.16,5174.23 Z " />
<path stroke="transparent" fill="#000000" transform="matrix(0.0833333 0 0 0.0833333 -217.25 -277)" d="M 6950.16,5129.77 L 6960.16,5147.09 L 6512.54,5405.52 L 6502.54,5388.2 L 6950.16,5129.77 Z " />
<path stroke="transparent" fill="#000000" transform="matrix(0.0833333 0 0 0.0833333 -217.25 -277)" d="M 7037.16,5185.77 L 7017.16,5174.23 L 7017.2,4585.77 L 7027.2,4579.99 L 7037.2,4585.77 L 7037.16,5185.77 Z " />
</svg>
