<?xml version="1.0" standalone="no" ?>
<!DOCTYPE svg PUBLIC "-//W3C//DTD SVG 1.1//EN" "http://www.w3.org/Graphics/SVG/1.1/DTD/svg11.dtd">
<svg width="420px" height="245px" viewBox="0 0 420 245" style="background-color: #ffffff00" xmlns="http://www.w3.org/2000/svg" xmlns:xlink="http://www.w3.org/1999/xlink" version="1.1" >
<text x="0" y="0" stroke="transparent" fill="#000000" transform="matrix(0.0833333 0 0 0.0833333 197.475 166.399)" style="font:normal normal normal 200px 'Arial'" >
O</text>
<text x="0" y="0" stroke="transparent" fill="#000000" transform="matrix(0.0833333 0 0 0.0833333 188.815 18.8212)" style="font:normal normal normal 200px 'Arial'" >
O</text>
<text x="0" y="0" stroke="transparent" fill="#000000" transform="matrix(0.0833333 0 0 0.0833333 398.139 168.29)" style="font:normal normal normal 200px 'Arial'" >
O</text>
<text x="0" y="0" stroke="transparent" fill="#000000" transform="matrix(0.0833333 0 0 0.0833333 3.36398 17.5606)" style="font:normal normal normal 200px 'Arial'" >
HO</text>
<text x="0" y="0" stroke="transparent" fill="#000000" transform="matrix(0.0833333 0 0 0.0833333 364.902 241.37)" style="font:normal normal normal 200px 'Arial'" >
O</text>
<text x="0" y="0" stroke="transparent" fill="#000000" transform="matrix(0.0833333 0 0 0.0833333 144.738 144.35)" style="font:normal normal normal 200px 'Arial'" >
H</text>
<text x="0" y="0" stroke="transparent" fill="#000000" transform="matrix(0.0833333 0 0 0.0833333 280.352 64.0219)" style="font:normal normal normal 200px 'Arial'" >
H</text>
<path stroke="transparent" fill="#000000" transform="matrix(0.0833333 0 0 0.0833333 -226.25 -256)" d="M 5559.11,4108.09 L 5569.11,4113.83 L 5567.81,4126.17 L 5062.38,4421.29 L 5051.21,4416.24 L 5051.25,4404.63 L 5559.11,4108.09 Z " />
<path stroke="transparent" fill="#000000" transform="matrix(0.0833333 0 0 0.0833333 -226.25 -256)" d="M 4540.73,4125.37 L 4540.88,4113.83 L 4550.88,4108.13 L 5051.25,4404.63 L 5051.21,4416.24 L 5042.25,4422.55 L 4540.73,4125.37 Z " />
<path stroke="transparent" fill="#000000" transform="matrix(0.0833333 0 0 0.0833333 -226.25 -256)" d="M 5152.4,4885.16 L 5132.76,4888.97 L 5042.25,4422.55 L 5051.21,4416.24 L 5062.38,4421.29 L 5152.4,4885.16 Z " />
<path stroke="transparent" fill="#000000" transform="matrix(0.0833333 0 0 0.0833333 -226.25 -256)" d="M 4657.75,4717.11 L 4596.94,4613.65 L 4615.34,4605.49 L 4673.83,4705 L 4657.75,4717.11 Z " />
<path stroke="transparent" fill="#000000" transform="matrix(0.0833333 0 0 0.0833333 -226.25 -256)" d="M 4705.72,4681 L 4651.82,4589.3 L 4670.22,4581.14 L 4721.81,4668.9 L 4705.72,4681 Z " />
<path stroke="transparent" fill="#000000" transform="matrix(0.0833333 0 0 0.0833333 -226.25 -256)" d="M 4753.7,4644.89 L 4706.71,4564.95 L 4725.11,4556.78 L 4769.78,4632.79 L 4753.7,4644.89 Z " />
<path stroke="transparent" fill="#000000" transform="matrix(0.0833333 0 0 0.0833333 -226.25 -256)" d="M 4801.67,4608.79 L 4761.59,4540.59 L 4779.99,4532.43 L 4817.76,4596.68 L 4801.67,4608.79 Z " />
<path stroke="transparent" fill="#000000" transform="matrix(0.0833333 0 0 0.0833333 -226.25 -256)" d="M 4849.65,4572.68 L 4816.48,4516.24 L 4834.88,4508.08 L 4865.73,4560.58 L 4849.65,4572.68 Z " />
<path stroke="transparent" fill="#000000" transform="matrix(0.0833333 0 0 0.0833333 -226.25 -256)" d="M 4897.63,4536.57 L 4871.36,4491.89 L 4889.76,4483.72 L 4913.71,4524.47 L 4897.63,4536.57 Z " />
<path stroke="transparent" fill="#000000" transform="matrix(0.0833333 0 0 0.0833333 -226.25 -256)" d="M 4945.6,4500.47 L 4926.24,4467.53 L 4944.64,4459.37 L 4961.69,4488.36 L 4945.6,4500.47 Z " />
<path stroke="transparent" fill="#000000" transform="matrix(0.0833333 0 0 0.0833333 -226.25 -256)" d="M 4993.58,4464.36 L 4981.13,4443.18 L 4999.53,4435.02 L 5009.66,4452.26 L 4993.58,4464.36 Z " />
<path stroke="transparent" fill="#000000" transform="matrix(0.0833333 0 0 0.0833333 -226.25 -256)" d="M 6011.12,4502.29 L 6007.59,4512.6 L 5995.49,4515.12 L 5567.81,4126.17 L 5569.11,4113.83 L 5579.11,4109.41 L 6011.12,4502.29 Z " />
<path stroke="transparent" fill="#000000" transform="matrix(0.0833333 0 0 0.0833333 -226.25 -256)" d="M 5559.11,3537.32 L 5579.11,3526.11 L 5579.11,4109.41 L 5569.11,4113.83 L 5559.11,4108.09 L 5559.11,3537.32 Z " />
<path stroke="transparent" fill="#000000" transform="matrix(0.0833333 0 0 0.0833333 -226.25 -256)" d="M 6011.45,3776.59 L 6073.49,3879.31 L 6055.33,3887.93 L 5995.36,3788.65 L 6011.45,3776.59 Z " />
<path stroke="transparent" fill="#000000" transform="matrix(0.0833333 0 0 0.0833333 -226.25 -256)" d="M 5963.31,3812.67 L 6019.14,3905.12 L 6000.99,3913.74 L 5947.22,3824.73 L 5963.31,3812.67 Z " />
<path stroke="transparent" fill="#000000" transform="matrix(0.0833333 0 0 0.0833333 -226.25 -256)" d="M 5915.17,3848.75 L 5964.8,3930.93 L 5946.64,3939.56 L 5899.09,3860.81 L 5915.17,3848.75 Z " />
<path stroke="transparent" fill="#000000" transform="matrix(0.0833333 0 0 0.0833333 -226.25 -256)" d="M 5867.03,3884.84 L 5910.46,3956.74 L 5892.3,3965.37 L 5850.95,3896.89 L 5867.03,3884.84 Z " />
<path stroke="transparent" fill="#000000" transform="matrix(0.0833333 0 0 0.0833333 -226.25 -256)" d="M 5818.89,3920.92 L 5856.11,3982.56 L 5837.96,3991.18 L 5802.81,3932.98 L 5818.89,3920.92 Z " />
<path stroke="transparent" fill="#000000" transform="matrix(0.0833333 0 0 0.0833333 -226.25 -256)" d="M 5770.75,3957 L 5801.77,4008.37 L 5783.62,4016.99 L 5754.67,3969.06 L 5770.75,3957 Z " />
<path stroke="transparent" fill="#000000" transform="matrix(0.0833333 0 0 0.0833333 -226.25 -256)" d="M 5722.61,3993.08 L 5747.43,4034.18 L 5729.27,4042.8 L 5706.53,4005.14 L 5722.61,3993.08 Z " />
<path stroke="transparent" fill="#000000" transform="matrix(0.0833333 0 0 0.0833333 -226.25 -256)" d="M 5674.47,4029.17 L 5693.09,4059.99 L 5674.93,4068.61 L 5658.39,4041.22 L 5674.47,4029.17 Z " />
<path stroke="transparent" fill="#000000" transform="matrix(0.0833333 0 0 0.0833333 -226.25 -256)" d="M 5626.33,4065.25 L 5638.74,4085.8 L 5620.59,4094.42 L 5610.25,4077.3 L 5626.33,4065.25 Z " />
<path stroke="transparent" fill="#000000" transform="matrix(0.0833333 0 0 0.0833333 -226.25 -256)" d="M 4530.88,3512.85 L 4540.88,3507.06 L 4550.88,3512.95 L 4550.88,4108.13 L 4540.88,4113.83 L 4530.88,4107.97 L 4530.88,3512.85 Z " />
<path stroke="transparent" fill="#000000" transform="matrix(0.0833333 0 0 0.0833333 -226.25 -256)" d="M 4458.07,3549.25 L 4478.07,3549.25 L 4478.07,4071.12 L 4458.07,4071.12 L 4458.07,3549.25 Z " />
<path stroke="transparent" fill="#000000" transform="matrix(0.0833333 0 0 0.0833333 -226.25 -256)" d="M 4013.28,4420.27 L 4013.77,4397.08 L 4530.88,4107.97 L 4540.88,4113.83 L 4540.73,4125.37 L 4013.28,4420.27 Z " />
<path stroke="transparent" fill="#000000" transform="matrix(0.0833333 0 0 0.0833333 -226.25 -256)" d="M 5753.85,5051.84 L 5759.95,5062.65 L 5754.55,5072.07 L 5268.25,5013.56 L 5270.64,4993.7 L 5753.85,5051.84 Z " />
<path stroke="transparent" fill="#000000" transform="matrix(0.0833333 0 0 0.0833333 -226.25 -256)" d="M 6634.26,4453.1 L 6624.58,4473.92 L 6014.28,4522.1 L 6007.59,4512.6 L 6011.12,4502.29 L 6634.26,4453.1 Z " />
<path stroke="transparent" fill="#000000" transform="matrix(0.0833333 0 0 0.0833333 -226.25 -256)" d="M 5771.51,5061.33 L 5759.95,5062.65 L 5753.85,5051.84 L 5995.49,4515.12 L 6007.59,4512.6 L 6014.28,4522.1 L 5771.51,5061.33 Z " />
<path stroke="transparent" fill="#000000" transform="matrix(0.0833333 0 0 0.0833333 -226.25 -256)" d="M 5852.73,5057.26 L 5834.49,5049.05 L 6046.89,4577.29 L 6065.12,4585.5 L 5852.73,5057.26 Z " />
<path stroke="transparent" fill="#000000" transform="matrix(0.0833333 0 0 0.0833333 -226.25 -256)" d="M 5152.42,3288.8 L 5162.85,3271.73 L 5579.11,3526.11 L 5559.11,3537.32 L 5152.42,3288.8 Z " />
<path stroke="transparent" fill="#000000" transform="matrix(0.0833333 0 0 0.0833333 -226.25 -256)" d="M 4013.51,3216.24 L 4013.54,3193.21 L 4540.96,3495.58 L 4540.88,3507.06 L 4530.88,3512.85 L 4013.51,3216.24 Z " />
<path stroke="transparent" fill="#000000" transform="matrix(0.0833333 0 0 0.0833333 -226.25 -256)" d="M 4953.54,3266.78 L 4963.24,3284.27 L 4550.88,3512.95 L 4540.88,3507.06 L 4540.96,3495.58 L 4953.54,3266.78 Z " />
<path stroke="transparent" fill="#000000" transform="matrix(0.0833333 0 0 0.0833333 -226.25 -256)" d="M 3485.7,4094.83 L 3505.7,4083.67 L 4013.77,4397.08 L 4013.28,4420.27 L 3485.7,4094.83 Z " />
<path stroke="transparent" fill="#000000" transform="matrix(0.0833333 0 0 0.0833333 -226.25 -256)" d="M 3563.46,4057.01 L 3573.96,4039.99 L 4020.59,4315.5 L 4010.09,4332.52 L 3563.46,4057.01 Z " />
<path stroke="transparent" fill="#000000" transform="matrix(0.0833333 0 0 0.0833333 -226.25 -256)" d="M 6138.82,5545.5 L 6129.6,5566.43 L 5754.55,5072.07 L 5759.95,5062.65 L 5771.51,5061.33 L 6138.82,5545.5 Z " />
<path stroke="transparent" fill="#000000" transform="matrix(0.0833333 0 0 0.0833333 -226.25 -256)" d="M 6984.61,4941.61 L 6979.1,4951.08 L 6967.62,4952.24 L 6624.58,4473.92 L 6634.26,4453.1 L 6984.61,4941.61 Z " />
<path stroke="transparent" fill="#000000" transform="matrix(0.0833333 0 0 0.0833333 -226.25 -256)" d="M 6904.62,4953.62 L 6888.37,4965.28 L 6586.46,4544.31 L 6602.71,4532.66 L 6904.62,4953.62 Z " />
<path stroke="transparent" fill="#000000" transform="matrix(0.0833333 0 0 0.0833333 -226.25 -256)" d="M 3505.7,3505.31 L 3495.7,3499.5 L 3495.7,3487.99 L 4013.54,3193.21 L 4013.51,3216.24 L 3505.7,3505.31 Z " />
<path stroke="transparent" fill="#000000" transform="matrix(0.0833333 0 0 0.0833333 -226.25 -256)" d="M 3572.15,3549.76 L 3562.25,3532.38 L 4008.45,3278.38 L 4018.35,3295.76 L 3572.15,3549.76 Z " />
<path stroke="transparent" fill="#000000" transform="matrix(0.0833333 0 0 0.0833333 -226.25 -256)" d="M 3485.7,3505.31 L 3495.7,3499.5 L 3505.7,3505.31 L 3505.7,4083.67 L 3485.7,4094.83 L 3485.7,3505.31 Z " />
<path stroke="transparent" fill="#000000" transform="matrix(0.0833333 0 0 0.0833333 -226.25 -256)" d="M 6726.61,5491.7 L 6733.35,5501.12 L 6729.95,5511.48 L 6129.6,5566.43 L 6138.82,5545.5 L 6726.61,5491.7 Z " />
<path stroke="transparent" fill="#000000" transform="matrix(0.0833333 0 0 0.0833333 -226.25 -256)" d="M 6683.76,5423.12 L 6685.58,5443.04 L 6168.43,5490.37 L 6166.61,5470.46 L 6683.76,5423.12 Z " />
<path stroke="transparent" fill="#000000" transform="matrix(0.0833333 0 0 0.0833333 -226.25 -256)" d="M 7464.69,4992.25 L 7462.59,5012.14 L 6985.27,4961.79 L 6979.1,4951.08 L 6984.61,4941.61 L 7464.69,4992.25 Z " />
<path stroke="transparent" fill="#000000" transform="matrix(0.0833333 0 0 0.0833333 -226.25 -256)" d="M 6745.47,5498.51 L 6733.35,5501.12 L 6726.61,5491.7 L 6967.62,4952.24 L 6979.1,4951.08 L 6985.27,4961.79 L 6745.47,5498.51 Z " />
<path stroke="transparent" fill="#000000" transform="matrix(0.0833333 0 0 0.0833333 -226.25 -256)" d="M 3073.17,3270.52 L 3083.07,3253.13 L 3495.7,3487.99 L 3495.7,3499.5 L 3485.7,3505.31 L 3073.17,3270.52 Z " />
<path stroke="transparent" fill="#000000" transform="matrix(0.0833333 0 0 0.0833333 -226.25 -256)" d="M 7098.6,5812.05 L 7085.33,5827.01 L 6729.95,5511.48 L 6733.35,5501.12 L 6745.47,5498.51 L 7098.6,5812.05 Z " />
<path stroke="transparent" fill="#000000" transform="matrix(0.0833333 0 0 0.0833333 -226.25 -256)" d="M 7708.63,5593.12 L 7685.94,5583.1 L 7587.17,5134.83 L 7606.7,5130.52 L 7708.63,5593.12 Z " />
<path stroke="transparent" fill="#000000" transform="matrix(0.0833333 0 0 0.0833333 -226.25 -256)" d="M 7685.94,5583.1 L 7708.63,5593.12 L 7269.51,5845.77 L 7259.54,5828.44 L 7685.94,5583.1 Z " />
</svg>
