<?xml version="1.0" standalone="no" ?>
<!DOCTYPE svg PUBLIC "-//W3C//DTD SVG 1.1//EN" "http://www.w3.org/Graphics/SVG/1.1/DTD/svg11.dtd">
<svg width="1007px" height="399px" viewBox="0 0 1007 399" style="background-color: #ffffff00" xmlns="http://www.w3.org/2000/svg" xmlns:xlink="http://www.w3.org/1999/xlink" version="1.1" >
<text x="0" y="0" stroke="transparent" fill="#000000" transform="matrix(0.0833333 0 0 0.0833333 648.025 345.046)" style="font:normal normal normal 200px 'Arial'" >
O</text>
<text x="0" y="0" stroke="transparent" fill="#000000" transform="matrix(0.0833333 0 0 0.0833333 596.646 275.33)" style="font:normal normal normal 200px 'Arial'" >
O</text>
<text x="0" y="0" stroke="transparent" fill="#000000" transform="matrix(0.0833333 0 0 0.0833333 436.9 318.376)" style="font:normal normal normal 200px 'Arial'" >
O</text>
<text x="0" y="0" stroke="transparent" fill="#000000" transform="matrix(0.0833333 0 0 0.0833333 486.936 199.062)" style="font:normal normal normal 200px 'Arial'" >
OH</text>
<text x="0" y="0" stroke="transparent" fill="#000000" transform="matrix(0.0833333 0 0 0.0833333 387.865 243.981)" style="font:normal normal normal 200px 'Arial'" >
O</text>
<text x="0" y="0" stroke="transparent" fill="#000000" transform="matrix(0.0833333 0 0 0.0833333 258.134 269.864)" style="font:normal normal normal 200px 'Arial'" >
O</text>
<text x="0" y="0" stroke="transparent" fill="#000000" transform="matrix(0.0833333 0 0 0.0833333 300.924 194.571)" style="font:normal normal normal 200px 'Arial'" >
O</text>
<text x="0" y="0" stroke="transparent" fill="#000000" transform="matrix(0.0833333 0 0 0.0833333 213.644 95.1626)" style="font:normal normal normal 200px 'Arial'" >
O</text>
<text x="0" y="0" stroke="transparent" fill="#000000" transform="matrix(0.0833333 0 0 0.0833333 214.664 245.159)" style="font:normal normal normal 200px 'Arial'" >
O</text>
<text x="0" y="0" stroke="transparent" fill="#000000" transform="matrix(0.0833333 0 0 0.0833333 128.063 245.748)" style="font:normal normal normal 200px 'Arial'" >
OH</text>
<text x="0" y="0" stroke="transparent" fill="#000000" transform="matrix(0.0833333 0 0 0.0833333 40.4429 96.3404)" style="font:normal normal normal 200px 'Arial'" >
O</text>
<text x="0" y="0" stroke="transparent" fill="#000000" transform="matrix(0.0833333 0 0 0.0833333 429.635 18.6922)" style="font:normal normal normal 200px 'Arial'" >
O</text>
<text x="0" y="0" stroke="transparent" fill="#000000" transform="matrix(0.0833333 0 0 0.0833333 516.236 18.1033)" style="font:normal normal normal 200px 'Arial'" >
O</text>
<text x="0" y="0" stroke="transparent" fill="#000000" transform="matrix(0.0833333 0 0 0.0833333 646.307 42.2194)" style="font:normal normal normal 200px 'Arial'" >
OH</text>
<text x="0" y="0" stroke="transparent" fill="#000000" transform="matrix(0.0833333 0 0 0.0833333 603.516 117.512)" style="font:normal normal normal 200px 'Arial'" >
OH</text>
<text x="0" y="0" stroke="transparent" fill="#000000" transform="matrix(0.0833333 0 0 0.0833333 517.256 168.1)" style="font:normal normal normal 200px 'Arial'" >
OH</text>
<text x="0" y="0" stroke="transparent" fill="#000000" transform="matrix(0.0833333 0 0 0.0833333 418.279 118.69)" style="font:normal normal normal 200px 'Arial'" >
HO</text>
<text x="0" y="0" stroke="transparent" fill="#000000" transform="matrix(0.0833333 0 0 0.0833333 215.684 395.156)" style="font:normal normal normal 200px 'Arial'" >
OH</text>
<text x="0" y="0" stroke="transparent" fill="#000000" transform="matrix(0.0833333 0 0 0.0833333 302.284 394.567)" style="font:normal normal normal 200px 'Arial'" >
OH</text>
<text x="0" y="0" stroke="transparent" fill="#000000" transform="matrix(0.0833333 0 0 0.0833333 388.545 343.979)" style="font:normal normal normal 200px 'Arial'" >
OH</text>
<text x="0" y="0" stroke="transparent" fill="#000000" transform="matrix(0.0833333 0 0 0.0833333 550.832 255.305)" style="font:normal normal normal 200px 'Arial'" >
OH</text>
<text x="0" y="0" stroke="transparent" fill="#000000" transform="matrix(0.0833333 0 0 0.0833333 864.207 270.569)" style="font:normal normal normal 200px 'Arial'" >
O</text>
<text x="0" y="0" stroke="transparent" fill="#000000" transform="matrix(0.0833333 0 0 0.0833333 977.799 155.798)" style="font:normal normal normal 200px 'Arial'" >
OH</text>
<text x="0" y="0" stroke="transparent" fill="#000000" transform="matrix(0.0833333 0 0 0.0833333 895.09 216.753)" style="font:normal normal normal 200px 'Arial'" >
OH</text>
<path stroke="transparent" fill="#000000" transform="matrix(0.0833333 0 0 0.0833333 -87.4167 -93.1667)" d="M 9860.01,4475.47 L 9869.3,4468.62 L 9879.88,4473.24 L 9946.01,5063.78 L 9926.14,5066.01 L 9860.01,4475.47 Z " />
<path stroke="transparent" fill="#000000" transform="matrix(0.0833333 0 0 0.0833333 -87.4167 -93.1667)" d="M 9320.81,4239.79 L 9318.24,4216.84 L 9868.02,4457.14 L 9869.3,4468.62 L 9860.01,4475.47 L 9320.81,4239.79 Z " />
<path stroke="transparent" fill="#000000" transform="matrix(0.0833333 0 0 0.0833333 -87.4167 -93.1667)" d="M 9324.78,4320.1 L 9332.79,4301.77 L 9806.38,4508.78 L 9798.37,4527.11 L 9324.78,4320.1 Z " />
<path stroke="transparent" fill="#000000" transform="matrix(0.0833333 0 0 0.0833333 -87.4167 -93.1667)" d="M 8837.81,4595.75 L 8835.24,4572.8 L 9318.24,4216.84 L 9320.81,4239.79 L 8837.81,4595.75 Z " />
<path stroke="transparent" fill="#000000" transform="matrix(0.0833333 0 0 0.0833333 -87.4167 -93.1667)" d="M 8937.36,5071.32 L 8917.48,5073.54 L 8860.05,4560.73 L 8879.93,4558.5 L 8937.36,5071.32 Z " />
<path stroke="transparent" fill="#000000" transform="matrix(0.0833333 0 0 0.0833333 -87.4167 -93.1667)" d="M 8865.8,5079.33 L 8845.93,5081.56 L 8788.5,4568.74 L 8808.38,4566.51 L 8865.8,5079.33 Z " />
<path stroke="transparent" fill="#000000" transform="matrix(0.0833333 0 0 0.0833333 -87.4167 -93.1667)" d="M 8387.07,4398.73 L 8395.08,4380.4 L 8835.24,4572.8 L 8837.81,4595.75 L 8387.07,4398.73 Z " />
<path stroke="transparent" fill="#000000" transform="matrix(0.0833333 0 0 0.0833333 -87.4167 -93.1667)" d="M 7760.27,4744.4 L 7850.82,4652.82 L 8186.96,4405.09 L 8198.83,4421.19 L 7760.27,4744.4 Z " />
<path stroke="transparent" fill="#000000" transform="matrix(0.0833333 0 0 0.0833333 -87.4167 -93.1667)" d="M 7257.86,4473.04 L 7253.98,4459.62 L 7259.68,4451.04 L 7850.82,4652.82 L 7760.27,4744.4 L 7257.86,4473.04 Z " />
<path stroke="transparent" fill="#000000" transform="matrix(0.0833333 0 0 0.0833333 -87.4167 -93.1667)" d="M 6962.62,4992.52 L 6952.42,4970.01 L 7241.7,4461 L 7253.98,4459.62 L 7257.86,4473.04 L 6962.62,4992.52 Z " />
<path stroke="transparent" fill="#000000" transform="matrix(0.0833333 0 0 0.0833333 -87.4167 -93.1667)" d="M 6476.37,4892.62 L 6480.4,4873.02 L 6952.42,4970.01 L 6962.62,4992.52 L 6476.37,4892.62 Z " />
<path stroke="transparent" fill="#000000" transform="matrix(0.0833333 0 0 0.0833333 -87.4167 -93.1667)" d="M 6293.72,4271.01 L 6303.02,4264.24 L 6313.77,4270.34 L 6368.08,4755.29 L 6348.2,4757.51 L 6293.72,4271.01 Z " />
<path stroke="transparent" fill="#000000" transform="matrix(0.0833333 0 0 0.0833333 -87.4167 -93.1667)" d="M 6851.97,4004.37 L 6846.99,4028.58 L 6313.77,4270.34 L 6303.02,4264.24 L 6304.09,4252.78 L 6851.97,4004.37 Z " />
<path stroke="transparent" fill="#000000" transform="matrix(0.0833333 0 0 0.0833333 -87.4167 -93.1667)" d="M 6846.99,4028.58 L 6851.97,4004.37 L 7259.68,4451.04 L 7253.98,4459.62 L 7241.7,4461 L 6846.99,4028.58 Z " />
<path stroke="transparent" fill="#000000" transform="matrix(0.0833333 0 0 0.0833333 -87.4167 -93.1667)" d="M 6886.9,3536.2 L 7004.45,3560.35 L 6998.11,3579.47 L 6885.19,3556.27 L 6886.9,3536.2 Z " />
<path stroke="transparent" fill="#000000" transform="matrix(0.0833333 0 0 0.0833333 -87.4167 -93.1667)" d="M 6881.96,3594.09 L 6986.17,3615.5 L 6979.83,3634.61 L 6880.24,3614.15 L 6881.96,3594.09 Z " />
<path stroke="transparent" fill="#000000" transform="matrix(0.0833333 0 0 0.0833333 -87.4167 -93.1667)" d="M 6877.01,3651.97 L 6967.89,3670.64 L 6961.55,3689.76 L 6875.3,3672.04 L 6877.01,3651.97 Z " />
<path stroke="transparent" fill="#000000" transform="matrix(0.0833333 0 0 0.0833333 -87.4167 -93.1667)" d="M 6872.07,3709.85 L 6949.61,3725.79 L 6943.28,3744.9 L 6870.35,3729.92 L 6872.07,3709.85 Z " />
<path stroke="transparent" fill="#000000" transform="matrix(0.0833333 0 0 0.0833333 -87.4167 -93.1667)" d="M 6867.12,3767.74 L 6931.33,3780.93 L 6925,3800.05 L 6865.41,3787.8 L 6867.12,3767.74 Z " />
<path stroke="transparent" fill="#000000" transform="matrix(0.0833333 0 0 0.0833333 -87.4167 -93.1667)" d="M 6862.18,3825.62 L 6913.06,3836.08 L 6906.72,3855.19 L 6860.46,3845.69 L 6862.18,3825.62 Z " />
<path stroke="transparent" fill="#000000" transform="matrix(0.0833333 0 0 0.0833333 -87.4167 -93.1667)" d="M 6857.23,3883.51 L 6894.78,3891.22 L 6888.44,3910.34 L 6855.52,3903.57 L 6857.23,3883.51 Z " />
<path stroke="transparent" fill="#000000" transform="matrix(0.0833333 0 0 0.0833333 -87.4167 -93.1667)" d="M 6852.29,3941.39 L 6876.5,3946.37 L 6870.16,3965.48 L 6850.57,3961.46 L 6852.29,3941.39 Z " />
<path stroke="transparent" fill="#000000" transform="matrix(0.0833333 0 0 0.0833333 -87.4167 -93.1667)" d="M 5852.08,4076.97 L 5911.38,3972.64 L 6304.09,4252.78 L 6303.02,4264.24 L 6293.72,4271.01 L 5852.08,4076.97 Z " />
<path stroke="transparent" fill="#000000" transform="matrix(0.0833333 0 0 0.0833333 -87.4167 -93.1667)" d="M 5315.54,4252.56 L 5305.43,4235.31 L 5321.5,4223.19 L 5333.97,4244.45 L 5315.54,4252.56 Z " />
<path stroke="transparent" fill="#000000" transform="matrix(0.0833333 0 0 0.0833333 -87.4167 -93.1667)" d="M 5369.61,4228.75 L 5352.6,4199.74 L 5368.68,4187.63 L 5388.04,4220.63 L 5369.61,4228.75 Z " />
<path stroke="transparent" fill="#000000" transform="matrix(0.0833333 0 0 0.0833333 -87.4167 -93.1667)" d="M 5423.68,4204.93 L 5399.78,4164.18 L 5415.86,4152.06 L 5442.11,4196.82 L 5423.68,4204.93 Z " />
<path stroke="transparent" fill="#000000" transform="matrix(0.0833333 0 0 0.0833333 -87.4167 -93.1667)" d="M 5477.75,4181.12 L 5446.96,4128.62 L 5463.04,4116.5 L 5496.18,4173.01 L 5477.75,4181.12 Z " />
<path stroke="transparent" fill="#000000" transform="matrix(0.0833333 0 0 0.0833333 -87.4167 -93.1667)" d="M 5531.82,4157.31 L 5494.14,4093.05 L 5510.22,4080.93 L 5550.25,4149.19 L 5531.82,4157.31 Z " />
<path stroke="transparent" fill="#000000" transform="matrix(0.0833333 0 0 0.0833333 -87.4167 -93.1667)" d="M 5585.89,4133.5 L 5541.32,4057.49 L 5557.39,4045.37 L 5604.32,4125.38 L 5585.89,4133.5 Z " />
<path stroke="transparent" fill="#000000" transform="matrix(0.0833333 0 0 0.0833333 -87.4167 -93.1667)" d="M 5639.96,4109.68 L 5588.49,4021.93 L 5604.57,4009.81 L 5658.39,4101.57 L 5639.96,4109.68 Z " />
<path stroke="transparent" fill="#000000" transform="matrix(0.0833333 0 0 0.0833333 -87.4167 -93.1667)" d="M 5694.03,4085.87 L 5635.67,3986.36 L 5651.75,3974.24 L 5712.45,4077.76 L 5694.03,4085.87 Z " />
<path stroke="transparent" fill="#000000" transform="matrix(0.0833333 0 0 0.0833333 -87.4167 -93.1667)" d="M 5277.85,4864.81 L 5267.9,4871.29 L 5257.86,4865.58 L 5253.86,4277.14 L 5273.78,4265.46 L 5277.85,4864.81 Z " />
<path stroke="transparent" fill="#000000" transform="matrix(0.0833333 0 0 0.0833333 -87.4167 -93.1667)" d="M 4750.41,5186.36 L 4750.25,5163.27 L 5257.86,4865.58 L 5267.9,4871.29 L 5267.42,4883.16 L 4750.41,5186.36 Z " />
<path stroke="transparent" fill="#000000" transform="matrix(0.0833333 0 0 0.0833333 -87.4167 -93.1667)" d="M 4229.23,4890.16 L 4228.69,4878.36 L 4238.65,4872.51 L 4750.25,5163.27 L 4750.41,5186.36 L 4229.23,4890.16 Z " />
<path stroke="transparent" fill="#000000" transform="matrix(0.0833333 0 0 0.0833333 -87.4167 -93.1667)" d="M 4215.43,4398.27 L 4235.42,4398.13 L 4238.65,4872.51 L 4228.69,4878.36 L 4218.65,4872.12 L 4215.43,4398.27 Z " />
<path stroke="transparent" fill="#000000" transform="matrix(0.0833333 0 0 0.0833333 -87.4167 -93.1667)" d="M 4731.57,3969.47 L 4742.17,3974.84 L 4742.25,3986.39 L 4321.93,4232.89 L 4311.81,4215.64 L 4731.57,3969.47 Z " />
<path stroke="transparent" fill="#000000" transform="matrix(0.0833333 0 0 0.0833333 -87.4167 -93.1667)" d="M 4742.25,3986.39 L 4742.17,3974.84 L 4752.7,3969.33 L 5273.78,4265.46 L 5253.86,4277.14 L 4742.25,3986.39 Z " />
<path stroke="transparent" fill="#000000" transform="matrix(0.0833333 0 0 0.0833333 -87.4167 -93.1667)" d="M 4678.91,3495.09 L 4798.91,3494.28 L 4752.7,3969.33 L 4742.17,3974.84 L 4731.57,3969.47 L 4678.91,3495.09 Z " />
<path stroke="transparent" fill="#000000" transform="matrix(0.0833333 0 0 0.0833333 -87.4167 -93.1667)" d="M 4216.53,3089.94 L 4216.45,3078.4 L 4226.41,3072.56 L 4650.07,3313.33 L 4640.19,3330.72 L 4216.53,3089.94 Z " />
<path stroke="transparent" fill="#000000" transform="matrix(0.0833333 0 0 0.0833333 -87.4167 -93.1667)" d="M 4202.41,2484.25 L 4212.37,2478.41 L 4222.41,2484.12 L 4226.41,3072.56 L 4216.45,3078.4 L 4206.41,3072.69 L 4202.41,2484.25 Z " />
<path stroke="transparent" fill="#000000" transform="matrix(0.0833333 0 0 0.0833333 -87.4167 -93.1667)" d="M 4130.66,2520.54 L 4150.65,2520.4 L 4154.17,3037.25 L 4134.17,3037.39 L 4130.66,2520.54 Z " />
<path stroke="transparent" fill="#000000" transform="matrix(0.0833333 0 0 0.0833333 -87.4167 -93.1667)" d="M 3786.14,2247.68 L 3796.02,2230.29 L 4212.29,2466.86 L 4212.37,2478.41 L 4202.41,2484.25 L 3786.14,2247.68 Z " />
<path stroke="transparent" fill="#000000" transform="matrix(0.0833333 0 0 0.0833333 -87.4167 -93.1667)" d="M 3183.2,2491.18 L 3173.16,2485.48 L 3173.09,2473.93 L 3586.39,2231.55 L 3596.51,2248.8 L 3183.2,2491.18 Z " />
<path stroke="transparent" fill="#000000" transform="matrix(0.0833333 0 0 0.0833333 -87.4167 -93.1667)" d="M 2651.6,2200.56 L 2651.44,2177.47 L 3173.09,2473.93 L 3173.16,2485.48 L 3163.2,2491.32 L 2651.6,2200.56 Z " />
<path stroke="transparent" fill="#000000" transform="matrix(0.0833333 0 0 0.0833333 -87.4167 -93.1667)" d="M 2647.15,2280.85 L 2657.03,2263.46 L 3106.39,2518.84 L 3096.51,2536.23 L 2647.15,2280.85 Z " />
<path stroke="transparent" fill="#000000" transform="matrix(0.0833333 0 0 0.0833333 -87.4167 -93.1667)" d="M 2144,2498.25 L 2133.96,2492.54 L 2133.88,2481 L 2651.44,2177.47 L 2651.6,2200.56 L 2144,2498.25 Z " />
<path stroke="transparent" fill="#000000" transform="matrix(0.0833333 0 0 0.0833333 -87.4167 -93.1667)" d="M 2148,3086.69 L 2128.08,3098.37 L 2124,2498.39 L 2133.96,2492.54 L 2144,2498.25 L 2148,3086.69 Z " />
<path stroke="transparent" fill="#000000" transform="matrix(0.0833333 0 0 0.0833333 -87.4167 -93.1667)" d="M 2219.75,3050.4 L 2199.75,3050.54 L 2196.24,2533.69 L 2216.24,2533.56 L 2219.75,3050.4 Z " />
<path stroke="transparent" fill="#000000" transform="matrix(0.0833333 0 0 0.0833333 -87.4167 -93.1667)" d="M 2659.6,3377.44 L 2659.68,3388.99 L 2649.72,3394.83 L 2128.08,3098.37 L 2148,3086.69 L 2659.6,3377.44 Z " />
<path stroke="transparent" fill="#000000" transform="matrix(0.0833333 0 0 0.0833333 -87.4167 -93.1667)" d="M 3167.21,3079.76 L 3177.24,3085.46 L 3177.32,3097.01 L 2669.72,3394.7 L 2659.68,3388.99 L 2659.6,3377.44 L 3167.21,3079.76 Z " />
<path stroke="transparent" fill="#000000" transform="matrix(0.0833333 0 0 0.0833333 -87.4167 -93.1667)" d="M 3099.9,3035.76 L 3110.02,3053.01 L 2664.17,3314.48 L 2654.06,3297.23 L 3099.9,3035.76 Z " />
<path stroke="transparent" fill="#000000" transform="matrix(0.0833333 0 0 0.0833333 -87.4167 -93.1667)" d="M 3187.2,3079.62 L 3177.24,3085.46 L 3167.21,3079.76 L 3163.2,2491.32 L 3173.16,2485.48 L 3183.2,2491.18 L 3187.2,3079.62 Z " />
<path stroke="transparent" fill="#000000" transform="matrix(0.0833333 0 0 0.0833333 -87.4167 -93.1667)" d="M 3698.81,3370.38 L 3698.97,3393.47 L 3177.32,3097.01 L 3177.24,3085.46 L 3187.2,3079.62 L 3698.81,3370.38 Z " />
<path stroke="transparent" fill="#000000" transform="matrix(0.0833333 0 0 0.0833333 -87.4167 -93.1667)" d="M 3698.97,3393.47 L 3698.81,3370.38 L 4206.41,3072.69 L 4216.45,3078.4 L 4216.53,3089.94 L 3698.97,3393.47 Z " />
<path stroke="transparent" fill="#000000" transform="matrix(0.0833333 0 0 0.0833333 -87.4167 -93.1667)" d="M 3748.25,3876.43 L 3728.25,3876.57 L 3724.75,3360.96 L 3744.74,3360.83 L 3748.25,3876.43 Z " />
<path stroke="transparent" fill="#000000" transform="matrix(0.0833333 0 0 0.0833333 -87.4167 -93.1667)" d="M 3676.25,3876.92 L 3656.25,3877.06 L 3652.75,3361.45 L 3672.75,3361.32 L 3676.25,3876.92 Z " />
<path stroke="transparent" fill="#000000" transform="matrix(0.0833333 0 0 0.0833333 -87.4167 -93.1667)" d="M 2673.05,3883.75 L 2653.05,3883.88 L 2649.72,3394.83 L 2659.68,3388.99 L 2669.72,3394.7 L 2673.05,3883.75 Z " />
<path stroke="transparent" fill="#000000" transform="matrix(0.0833333 0 0 0.0833333 -87.4167 -93.1667)" d="M 1707.72,2261.81 L 1717.61,2244.42 L 2133.88,2481 L 2133.96,2492.54 L 2124,2498.39 L 1707.72,2261.81 Z " />
<path stroke="transparent" fill="#000000" transform="matrix(0.0833333 0 0 0.0833333 -87.4167 -93.1667)" d="M 1099.81,2508.24 L 1089.69,2490.99 L 1507.98,2245.68 L 1518.09,2262.93 L 1099.81,2508.24 Z " />
<path stroke="transparent" fill="#000000" transform="matrix(0.0833333 0 0 0.0833333 -87.4167 -93.1667)" d="M 4719.89,2169.18 L 4729.93,2174.89 L 4730.01,2186.43 L 4222.41,2484.12 L 4212.37,2478.41 L 4212.29,2466.86 L 4719.89,2169.18 Z " />
<path stroke="transparent" fill="#000000" transform="matrix(0.0833333 0 0 0.0833333 -87.4167 -93.1667)" d="M 4715.82,1569.19 L 4735.89,1580.6 L 4739.89,2169.04 L 4729.93,2174.89 L 4719.89,2169.18 L 4715.82,1569.19 Z " />
<path stroke="transparent" fill="#000000" transform="matrix(0.0833333 0 0 0.0833333 -87.4167 -93.1667)" d="M 4788.14,1616.05 L 4808.13,1615.91 L 4811.65,2132.76 L 4791.65,2132.9 L 4788.14,1616.05 Z " />
<path stroke="transparent" fill="#000000" transform="matrix(0.0833333 0 0 0.0833333 -87.4167 -93.1667)" d="M 5243.34,1259.83 L 5243.5,1282.92 L 4735.89,1580.6 L 4715.82,1569.19 L 5243.34,1259.83 Z " />
<path stroke="transparent" fill="#000000" transform="matrix(0.0833333 0 0 0.0833333 -87.4167 -93.1667)" d="M 5764.98,1556.29 L 5765.06,1567.83 L 5755.1,1573.67 L 5243.5,1282.92 L 5243.34,1259.83 L 5764.98,1556.29 Z " />
<path stroke="transparent" fill="#000000" transform="matrix(0.0833333 0 0 0.0833333 -87.4167 -93.1667)" d="M 5698.29,1601.2 L 5688.4,1618.58 L 5239.04,1363.2 L 5248.92,1345.82 L 5698.29,1601.2 Z " />
<path stroke="transparent" fill="#000000" transform="matrix(0.0833333 0 0 0.0833333 -87.4167 -93.1667)" d="M 5779.18,2173.52 L 5759.1,2162.11 L 5755.1,1573.67 L 5765.06,1567.83 L 5775.1,1573.54 L 5779.18,2173.52 Z " />
<path stroke="transparent" fill="#000000" transform="matrix(0.0833333 0 0 0.0833333 -87.4167 -93.1667)" d="M 5251.66,2482.89 L 5251.5,2459.8 L 5759.1,2162.11 L 5779.18,2173.52 L 5251.66,2482.89 Z " />
<path stroke="transparent" fill="#000000" transform="matrix(0.0833333 0 0 0.0833333 -87.4167 -93.1667)" d="M 5256.07,2396.83 L 5245.95,2379.58 L 5691.8,2118.11 L 5701.92,2135.37 L 5256.07,2396.83 Z " />
<path stroke="transparent" fill="#000000" transform="matrix(0.0833333 0 0 0.0833333 -87.4167 -93.1667)" d="M 5251.5,2459.8 L 5251.66,2482.89 L 4730.01,2186.43 L 4729.93,2174.89 L 4739.89,2169.04 L 5251.5,2459.8 Z " />
<path stroke="transparent" fill="#000000" transform="matrix(0.0833333 0 0 0.0833333 -87.4167 -93.1667)" d="M 6178.29,1313.9 L 6188.4,1331.15 L 5775.1,1573.54 L 5765.06,1567.83 L 5764.98,1556.29 L 6178.29,1313.9 Z " />
<path stroke="transparent" fill="#000000" transform="matrix(0.0833333 0 0 0.0833333 -87.4167 -93.1667)" d="M 6762.2,1525.36 L 6752.32,1542.75 L 6733.79,1534.88 L 6745.96,1513.46 L 6762.2,1525.36 Z " />
<path stroke="transparent" fill="#000000" transform="matrix(0.0833333 0 0 0.0833333 -87.4167 -93.1667)" d="M 6714.58,1490.46 L 6697.97,1519.69 L 6679.44,1511.83 L 6698.34,1478.56 L 6714.58,1490.46 Z " />
<path stroke="transparent" fill="#000000" transform="matrix(0.0833333 0 0 0.0833333 -87.4167 -93.1667)" d="M 6666.96,1455.56 L 6643.62,1496.64 L 6625.08,1488.77 L 6650.72,1443.66 L 6666.96,1455.56 Z " />
<path stroke="transparent" fill="#000000" transform="matrix(0.0833333 0 0 0.0833333 -87.4167 -93.1667)" d="M 6619.34,1420.67 L 6589.27,1473.58 L 6570.73,1465.72 L 6603.1,1408.76 L 6619.34,1420.67 Z " />
<path stroke="transparent" fill="#000000" transform="matrix(0.0833333 0 0 0.0833333 -87.4167 -93.1667)" d="M 6571.72,1385.77 L 6534.92,1450.53 L 6516.38,1442.67 L 6555.48,1373.87 L 6571.72,1385.77 Z " />
<path stroke="transparent" fill="#000000" transform="matrix(0.0833333 0 0 0.0833333 -87.4167 -93.1667)" d="M 6524.1,1350.87 L 6480.57,1427.47 L 6462.03,1419.61 L 6507.86,1338.97 L 6524.1,1350.87 Z " />
<path stroke="transparent" fill="#000000" transform="matrix(0.0833333 0 0 0.0833333 -87.4167 -93.1667)" d="M 6476.48,1315.97 L 6426.21,1404.42 L 6407.68,1396.56 L 6460.24,1304.07 L 6476.48,1315.97 Z " />
<path stroke="transparent" fill="#000000" transform="matrix(0.0833333 0 0 0.0833333 -87.4167 -93.1667)" d="M 6428.86,1281.07 L 6371.86,1381.36 L 6353.33,1373.5 L 6412.62,1269.17 L 6428.86,1281.07 Z " />
<path stroke="transparent" fill="#000000" transform="matrix(0.0833333 0 0 0.0833333 -87.4167 -93.1667)" d="M 6818.31,2154.91 L 6808.35,2160.75 L 6798.3,2154.41 L 6794.23,1555.06 L 6814.31,1566.47 L 6818.31,2154.91 Z " />
<path stroke="transparent" fill="#000000" transform="matrix(0.0833333 0 0 0.0833333 -87.4167 -93.1667)" d="M 7329.91,2445.66 L 7330.07,2468.76 L 6808.98,2172.61 L 6808.35,2160.75 L 6818.31,2154.91 L 7329.91,2445.66 Z " />
<path stroke="transparent" fill="#000000" transform="matrix(0.0833333 0 0 0.0833333 -87.4167 -93.1667)" d="M 7837.51,2147.98 L 7847.55,2153.69 L 7847.08,2165.56 L 7330.07,2468.76 L 7329.91,2445.66 L 7837.51,2147.98 Z " />
<path stroke="transparent" fill="#000000" transform="matrix(0.0833333 0 0 0.0833333 -87.4167 -93.1667)" d="M 7833.51,1559.54 L 7853.43,1547.86 L 7857.51,2147.21 L 7847.55,2153.69 L 7837.51,2147.98 L 7833.51,1559.54 Z " />
<path stroke="transparent" fill="#000000" transform="matrix(0.0833333 0 0 0.0833333 -87.4167 -93.1667)" d="M 7417.24,1322.96 L 7427.12,1305.58 L 7853.43,1547.86 L 7833.51,1559.54 L 7417.24,1322.96 Z " />
<path stroke="transparent" fill="#000000" transform="matrix(0.0833333 0 0 0.0833333 -87.4167 -93.1667)" d="M 7217.49,1306.84 L 7227.61,1324.09 L 6814.31,1566.47 L 6794.23,1555.06 L 7217.49,1306.84 Z " />
<path stroke="transparent" fill="#000000" transform="matrix(0.0833333 0 0 0.0833333 -87.4167 -93.1667)" d="M 8284.03,1225.78 L 8344.73,1329.29 L 8326.45,1337.66 L 8267.8,1237.65 L 8284.03,1225.78 Z " />
<path stroke="transparent" fill="#000000" transform="matrix(0.0833333 0 0 0.0833333 -87.4167 -93.1667)" d="M 8236.18,1260.79 L 8290.82,1353.96 L 8272.54,1362.32 L 8219.96,1272.66 L 8236.18,1260.79 Z " />
<path stroke="transparent" fill="#000000" transform="matrix(0.0833333 0 0 0.0833333 -87.4167 -93.1667)" d="M 8188.34,1295.79 L 8236.92,1378.62 L 8218.64,1386.98 L 8172.12,1307.67 L 8188.34,1295.79 Z " />
<path stroke="transparent" fill="#000000" transform="matrix(0.0833333 0 0 0.0833333 -87.4167 -93.1667)" d="M 8140.5,1330.8 L 8183.01,1403.28 L 8164.73,1411.65 L 8124.28,1342.67 L 8140.5,1330.8 Z " />
<path stroke="transparent" fill="#000000" transform="matrix(0.0833333 0 0 0.0833333 -87.4167 -93.1667)" d="M 8092.66,1365.81 L 8129.1,1427.95 L 8110.82,1436.31 L 8076.44,1377.68 L 8092.66,1365.81 Z " />
<path stroke="transparent" fill="#000000" transform="matrix(0.0833333 0 0 0.0833333 -87.4167 -93.1667)" d="M 8044.82,1400.82 L 8075.19,1452.61 L 8056.91,1460.97 L 8028.6,1412.69 L 8044.82,1400.82 Z " />
<path stroke="transparent" fill="#000000" transform="matrix(0.0833333 0 0 0.0833333 -87.4167 -93.1667)" d="M 7996.98,1435.82 L 8021.29,1477.27 L 8003.01,1485.64 L 7980.76,1447.7 L 7996.98,1435.82 Z " />
<path stroke="transparent" fill="#000000" transform="matrix(0.0833333 0 0 0.0833333 -87.4167 -93.1667)" d="M 7949.14,1470.83 L 7967.38,1501.94 L 7949.1,1510.3 L 7932.91,1482.7 L 7949.14,1470.83 Z " />
<path stroke="transparent" fill="#000000" transform="matrix(0.0833333 0 0 0.0833333 -87.4167 -93.1667)" d="M 7901.3,1505.84 L 7913.47,1526.6 L 7895.19,1534.96 L 7885.07,1517.71 L 7901.3,1505.84 Z " />
<path stroke="transparent" fill="#000000" transform="matrix(0.0833333 0 0 0.0833333 -87.4167 -93.1667)" d="M 8794.65,1485.1 L 8784.77,1502.49 L 8356.1,1258.87 L 8365.98,1241.48 L 8794.65,1485.1 Z " />
<path stroke="transparent" fill="#000000" transform="matrix(0.0833333 0 0 0.0833333 -87.4167 -93.1667)" d="M 8305.88,2345.15 L 8246.58,2449.47 L 7847.08,2165.56 L 7847.55,2153.69 L 7857.51,2147.21 L 8305.88,2345.15 Z " />
<path stroke="transparent" fill="#000000" transform="matrix(0.0833333 0 0 0.0833333 -87.4167 -93.1667)" d="M 7393.35,2951.63 L 7273.36,2952.44 L 7275.49,2932.43 L 7390.95,2931.64 L 7393.35,2951.63 Z " />
<path stroke="transparent" fill="#000000" transform="matrix(0.0833333 0 0 0.0833333 -87.4167 -93.1667)" d="M 7386.13,2891.57 L 7279.77,2892.29 L 7281.9,2872.28 L 7383.72,2871.58 L 7386.13,2891.57 Z " />
<path stroke="transparent" fill="#000000" transform="matrix(0.0833333 0 0 0.0833333 -87.4167 -93.1667)" d="M 7378.9,2831.51 L 7286.18,2832.14 L 7288.31,2812.13 L 7376.49,2811.53 L 7378.9,2831.51 Z " />
<path stroke="transparent" fill="#000000" transform="matrix(0.0833333 0 0 0.0833333 -87.4167 -93.1667)" d="M 7371.67,2771.45 L 7292.59,2771.99 L 7294.72,2751.97 L 7369.27,2751.47 L 7371.67,2771.45 Z " />
<path stroke="transparent" fill="#000000" transform="matrix(0.0833333 0 0 0.0833333 -87.4167 -93.1667)" d="M 7364.44,2711.39 L 7299,2711.84 L 7301.13,2691.82 L 7362.04,2691.41 L 7364.44,2711.39 Z " />
<path stroke="transparent" fill="#000000" transform="matrix(0.0833333 0 0 0.0833333 -87.4167 -93.1667)" d="M 7357.22,2651.33 L 7305.41,2651.69 L 7307.54,2631.67 L 7354.81,2631.35 L 7357.22,2651.33 Z " />
<path stroke="transparent" fill="#000000" transform="matrix(0.0833333 0 0 0.0833333 -87.4167 -93.1667)" d="M 7349.99,2591.28 L 7311.82,2591.54 L 7313.95,2571.52 L 7347.58,2571.29 L 7349.99,2591.28 Z " />
<path stroke="transparent" fill="#000000" transform="matrix(0.0833333 0 0 0.0833333 -87.4167 -93.1667)" d="M 7342.76,2531.22 L 7318.23,2531.38 L 7320.36,2511.37 L 7340.36,2511.23 L 7342.76,2531.22 Z " />
<path stroke="transparent" fill="#000000" transform="matrix(0.0833333 0 0 0.0833333 -87.4167 -93.1667)" d="M 6413.38,2461.94 L 6352.68,2358.42 L 6798.3,2154.41 L 6808.35,2160.75 L 6808.98,2172.61 L 6413.38,2461.94 Z " />
<path stroke="transparent" fill="#000000" transform="matrix(0.0833333 0 0 0.0833333 -87.4167 -93.1667)" d="M 3721.57,5247.66 L 3700.71,5120.56 L 4218.65,4872.12 L 4228.69,4878.36 L 4229.23,4890.16 L 3721.57,5247.66 Z " />
<path stroke="transparent" fill="#000000" transform="matrix(0.0833333 0 0 0.0833333 -87.4167 -93.1667)" d="M 3724.49,5676.64 L 3704.49,5676.77 L 3700.71,5120.56 L 3721.57,5247.66 L 3724.49,5676.64 Z " />
<path stroke="transparent" fill="#000000" transform="matrix(0.0833333 0 0 0.0833333 -87.4167 -93.1667)" d="M 4813.7,5669.23 L 4693.7,5670.05 L 4695.83,5650.03 L 4811.29,5649.25 L 4813.7,5669.23 Z " />
<path stroke="transparent" fill="#000000" transform="matrix(0.0833333 0 0 0.0833333 -87.4167 -93.1667)" d="M 4806.47,5609.17 L 4700.11,5609.9 L 4702.24,5589.88 L 4804.06,5589.19 L 4806.47,5609.17 Z " />
<path stroke="transparent" fill="#000000" transform="matrix(0.0833333 0 0 0.0833333 -87.4167 -93.1667)" d="M 4799.24,5549.11 L 4706.52,5549.74 L 4708.65,5529.73 L 4796.84,5529.13 L 4799.24,5549.11 Z " />
<path stroke="transparent" fill="#000000" transform="matrix(0.0833333 0 0 0.0833333 -87.4167 -93.1667)" d="M 4792.01,5489.06 L 4712.93,5489.59 L 4715.06,5469.58 L 4789.61,5469.07 L 4792.01,5489.06 Z " />
<path stroke="transparent" fill="#000000" transform="matrix(0.0833333 0 0 0.0833333 -87.4167 -93.1667)" d="M 4784.79,5429 L 4719.34,5429.44 L 4721.47,5409.43 L 4782.38,5409.01 L 4784.79,5429 Z " />
<path stroke="transparent" fill="#000000" transform="matrix(0.0833333 0 0 0.0833333 -87.4167 -93.1667)" d="M 4777.56,5368.94 L 4725.75,5369.29 L 4727.88,5349.28 L 4775.16,5348.95 L 4777.56,5368.94 Z " />
<path stroke="transparent" fill="#000000" transform="matrix(0.0833333 0 0 0.0833333 -87.4167 -93.1667)" d="M 4770.33,5308.88 L 4732.16,5309.14 L 4734.29,5289.12 L 4767.93,5288.9 L 4770.33,5308.88 Z " />
<path stroke="transparent" fill="#000000" transform="matrix(0.0833333 0 0 0.0833333 -87.4167 -93.1667)" d="M 4763.11,5248.82 L 4738.57,5248.99 L 4740.7,5228.97 L 4760.7,5228.84 L 4763.11,5248.82 Z " />
<path stroke="transparent" fill="#000000" transform="matrix(0.0833333 0 0 0.0833333 -87.4167 -93.1667)" d="M 5726.22,5062.75 L 5666.93,5167.08 L 5267.42,4883.16 L 5267.9,4871.29 L 5277.85,4864.81 L 5726.22,5062.75 Z " />
<path stroke="transparent" fill="#000000" transform="matrix(0.0833333 0 0 0.0833333 -87.4167 -93.1667)" d="M 7607.53,4124.53 L 7678.72,4221.13 L 7661.24,4231.12 L 7592.81,4138.27 L 7607.53,4124.53 Z " />
<path stroke="transparent" fill="#000000" transform="matrix(0.0833333 0 0 0.0833333 -87.4167 -93.1667)" d="M 7564.49,4164.71 L 7627.6,4250.34 L 7610.12,4260.33 L 7549.77,4178.45 L 7564.49,4164.71 Z " />
<path stroke="transparent" fill="#000000" transform="matrix(0.0833333 0 0 0.0833333 -87.4167 -93.1667)" d="M 7521.45,4204.88 L 7576.48,4279.55 L 7559,4289.54 L 7506.73,4218.62 L 7521.45,4204.88 Z " />
<path stroke="transparent" fill="#000000" transform="matrix(0.0833333 0 0 0.0833333 -87.4167 -93.1667)" d="M 7478.42,4245.06 L 7525.37,4308.77 L 7507.89,4318.76 L 7463.7,4258.8 L 7478.42,4245.06 Z " />
<path stroke="transparent" fill="#000000" transform="matrix(0.0833333 0 0 0.0833333 -87.4167 -93.1667)" d="M 7435.38,4285.24 L 7474.25,4337.98 L 7456.77,4347.97 L 7420.66,4298.98 L 7435.38,4285.24 Z " />
<path stroke="transparent" fill="#000000" transform="matrix(0.0833333 0 0 0.0833333 -87.4167 -93.1667)" d="M 7392.34,4325.41 L 7423.13,4367.19 L 7405.65,4377.18 L 7377.63,4339.15 L 7392.34,4325.41 Z " />
<path stroke="transparent" fill="#000000" transform="matrix(0.0833333 0 0 0.0833333 -87.4167 -93.1667)" d="M 7349.31,4365.59 L 7372.02,4396.4 L 7354.54,4406.39 L 7334.59,4379.33 L 7349.31,4365.59 Z " />
<path stroke="transparent" fill="#000000" transform="matrix(0.0833333 0 0 0.0833333 -87.4167 -93.1667)" d="M 7306.27,4405.77 L 7320.9,4425.62 L 7303.42,4435.61 L 7291.55,4419.51 L 7306.27,4405.77 Z " />
<path stroke="transparent" fill="#000000" transform="matrix(0.0833333 0 0 0.0833333 -87.4167 -93.1667)" d="M 10351,4101.18 L 10353.6,4124.13 L 9879.88,4473.24 L 9869.3,4468.62 L 9868.02,4457.14 L 10351,4101.18 Z " />
<path stroke="transparent" fill="#000000" transform="matrix(0.0833333 0 0 0.0833333 -87.4167 -93.1667)" d="M 10845.8,4317.43 L 10954.3,4386.72 L 10353.6,4124.13 L 10351,4101.18 L 10845.8,4317.43 Z " />
<path stroke="transparent" fill="#000000" transform="matrix(0.0833333 0 0 0.0833333 -87.4167 -93.1667)" d="M 10896.8,4261.18 L 10888.8,4279.51 L 10377.1,4055.85 L 10385.1,4037.52 L 10896.8,4261.18 Z " />
<path stroke="transparent" fill="#000000" transform="matrix(0.0833333 0 0 0.0833333 -87.4167 -93.1667)" d="M 11374.4,3991.86 L 11385.1,3997 L 11386.8,4008.7 L 11367.2,4025.83 L 11352.3,4005.51 L 11374.4,3991.86 L 11374.4,3991.86 Z " />
<path stroke="transparent" fill="#000000" transform="matrix(0.0833333 0 0 0.0833333 -87.4167 -93.1667)" d="M 10954.3,4386.72 L 10845.8,4317.43 L 11266.8,4058.13 L 11291.7,4091.87 L 10954.3,4386.72 L 10954.3,4386.72 Z " />
<path stroke="transparent" fill="#000000" transform="matrix(0.0833333 0 0 0.0833333 -87.4167 -93.1667)" d="M 11294.9,3292.83 L 11297.2,3224.38 L 11308,3230.6 L 11392.8,3976.52 L 11385.1,3997 L 11374.4,3991.86 L 11294.9,3292.83 Z " />
<path stroke="transparent" fill="#000000" transform="matrix(0.0833333 0 0 0.0833333 -87.4167 -93.1667)" d="M 11847.7,2973.73 L 11846.9,2995.91 L 11308,3230.6 L 11297.2,3224.38 L 11299,3212.71 L 11847.7,2973.73 Z " />
<path stroke="transparent" fill="#000000" transform="matrix(0.0833333 0 0 0.0833333 -87.4167 -93.1667)" d="M 12386.5,3258.96 L 12368.6,3272.13 L 11846.9,2995.91 L 11847.7,2973.73 L 12386.5,3258.96 Z " />
<path stroke="transparent" fill="#000000" transform="matrix(0.0833333 0 0 0.0833333 -87.4167 -93.1667)" d="M 12499.4,3858.04 L 12478,3852.28 L 12368.6,3272.13 L 12386.5,3258.96 L 12499.4,3858.04 Z " />
<path stroke="transparent" fill="#000000" transform="matrix(0.0833333 0 0 0.0833333 -87.4167 -93.1667)" d="M 12108.7,4311.44 L 12097,4309.68 L 12094.3,4297.55 L 12478,3852.28 L 12499.4,3858.04 L 12108.7,4311.44 Z " />
<path stroke="transparent" fill="#000000" transform="matrix(0.0833333 0 0 0.0833333 -87.4167 -93.1667)" d="M 12094.3,4297.55 L 12097,4309.68 L 12044.9,4297.68 L 11386.8,4008.7 L 11385.1,3997 L 11406.9,3995.68 L 12094.3,4297.55 Z " />
<path stroke="transparent" fill="#000000" transform="matrix(0.0833333 0 0 0.0833333 -87.4167 -93.1667)" d="M 11605,4300.94 L 11605.7,4280.95 L 12044.9,4297.68 L 12097,4309.68 L 12090.4,4319.43 L 11605,4300.94 Z " />
<path stroke="transparent" fill="#000000" transform="matrix(0.0833333 0 0 0.0833333 -87.4167 -93.1667)" d="M 11094.7,3757.23 L 11192.7,3856.48 L 11442.2,4194.97 L 11426.1,4206.84 L 11094.7,3757.23 Z " />
<path stroke="transparent" fill="#000000" transform="matrix(0.0833333 0 0 0.0833333 -87.4167 -93.1667)" d="M 11192.7,3856.48 L 11094.7,3757.23 L 11285.5,3227.49 L 11297.2,3224.38 L 11294.9,3292.83 L 11192.7,3856.48 Z " />
<path stroke="transparent" fill="#000000" transform="matrix(0.0833333 0 0 0.0833333 -87.4167 -93.1667)" d="M 12345.8,4855.78 L 12327.4,4863.77 L 12090.4,4319.43 L 12097,4309.68 L 12108.7,4311.44 L 12345.8,4855.78 Z " />
<path stroke="transparent" fill="#000000" transform="matrix(0.0833333 0 0 0.0833333 -87.4167 -93.1667)" d="M 12731.1,2930.45 L 12802.3,3027.05 L 12784.8,3037.04 L 12716.4,2944.19 L 12731.1,2930.45 Z " />
<path stroke="transparent" fill="#000000" transform="matrix(0.0833333 0 0 0.0833333 -87.4167 -93.1667)" d="M 12688.1,2970.63 L 12751.2,3056.27 L 12733.7,3066.26 L 12673.4,2984.37 L 12688.1,2970.63 Z " />
<path stroke="transparent" fill="#000000" transform="matrix(0.0833333 0 0 0.0833333 -87.4167 -93.1667)" d="M 12645.1,3010.81 L 12700.1,3085.48 L 12682.6,3095.47 L 12630.3,3024.55 L 12645.1,3010.81 Z " />
<path stroke="transparent" fill="#000000" transform="matrix(0.0833333 0 0 0.0833333 -87.4167 -93.1667)" d="M 12602,3050.98 L 12649,3114.69 L 12631.5,3124.68 L 12587.3,3064.72 L 12602,3050.98 Z " />
<path stroke="transparent" fill="#000000" transform="matrix(0.0833333 0 0 0.0833333 -87.4167 -93.1667)" d="M 12559,3091.16 L 12597.9,3143.9 L 12580.4,3153.89 L 12544.3,3104.9 L 12559,3091.16 Z " />
<path stroke="transparent" fill="#000000" transform="matrix(0.0833333 0 0 0.0833333 -87.4167 -93.1667)" d="M 12515.9,3131.34 L 12546.7,3173.11 L 12529.3,3183.11 L 12501.2,3145.08 L 12515.9,3131.34 Z " />
<path stroke="transparent" fill="#000000" transform="matrix(0.0833333 0 0 0.0833333 -87.4167 -93.1667)" d="M 12472.9,3171.51 L 12495.6,3202.33 L 12478.1,3212.32 L 12458.2,3185.25 L 12472.9,3171.51 Z " />
<path stroke="transparent" fill="#000000" transform="matrix(0.0833333 0 0 0.0833333 -87.4167 -93.1667)" d="M 12429.9,3211.69 L 12444.5,3231.54 L 12427,3241.53 L 12415.2,3225.43 L 12429.9,3211.69 Z " />
<path stroke="transparent" fill="#000000" transform="matrix(0.0833333 0 0 0.0833333 -87.4167 -93.1667)" d="M 10836.2,2840.28 L 10849.2,2825.13 L 11299,3212.71 L 11297.2,3224.38 L 11285.5,3227.49 L 10836.2,2840.28 Z " />
<path stroke="transparent" fill="#000000" transform="matrix(0.0833333 0 0 0.0833333 -87.4167 -93.1667)" d="M 11738.6,3661.91 L 11809.8,3758.51 L 11406.9,3995.68 L 11385.1,3997 L 11392.8,3976.52 L 11738.6,3661.91 Z " />
</svg>
