<?xml version="1.0" standalone="no" ?>
<!DOCTYPE svg PUBLIC "-//W3C//DTD SVG 1.1//EN" "http://www.w3.org/Graphics/SVG/1.1/DTD/svg11.dtd">
<svg width="415px" height="259px" viewBox="0 0 415 259" style="background-color: #ffffff00" xmlns="http://www.w3.org/2000/svg" xmlns:xlink="http://www.w3.org/1999/xlink" version="1.1" >
<text x="0" y="0" stroke="transparent" fill="#000000" transform="matrix(0.0666667 0 0 0.0666667 205.394 197.826)" style="font:normal normal normal 200px 'Arial'" >
O</text>
<text x="0" y="0" stroke="transparent" fill="#000000" transform="matrix(0.0666667 0 0 0.0666667 201.223 74.6514)" style="font:normal normal normal 200px 'Arial'" >
O</text>
<text x="0" y="0" stroke="transparent" fill="#000000" transform="matrix(0.0666667 0 0 0.0666667 33.7644 175.437)" style="font:normal normal normal 200px 'Arial'" >
O</text>
<text x="0" y="0" stroke="transparent" fill="#000000" transform="matrix(0.0666667 0 0 0.0666667 370.552 94.3781)" style="font:normal normal normal 200px 'Arial'" >
O</text>
<text x="0" y="0" stroke="transparent" fill="#000000" transform="matrix(0.0666667 0 0 0.0666667 32.7626 255.995)" style="font:normal normal normal 200px 'Arial'" >
O</text>
<text x="0" y="0" stroke="transparent" fill="#000000" transform="matrix(0.0666667 0 0 0.0666667 370.884 14.1491)" style="font:normal normal normal 200px 'Arial'" >
O</text>
<text x="0" y="0" stroke="transparent" fill="#000000" transform="matrix(0.0666667 0 0 0.0666667 143.454 139.327)" style="font:normal normal normal 200px 'Arial'" >
H</text>
<text x="0" y="0" stroke="transparent" fill="#000000" transform="matrix(0.0666667 0 0 0.0666667 264.129 134.825)" style="font:normal normal normal 200px 'Arial'" >
H</text>
<path stroke="transparent" fill="#000000" transform="matrix(0.0666667 0 0 0.0666667 -141.859 -136)" d="M 5549.99,3987.1 L 5557.57,3996.82 L 5550.61,4007.09 L 4961,4029.04 L 4953.36,4019.32 L 4960.29,4009.05 L 5549.99,3987.1 Z " />
<path stroke="transparent" fill="#000000" transform="matrix(0.0666667 0 0 0.0666667 -141.859 -136)" d="M 4802.32,4589.33 L 4779.14,4597.79 L 4942.87,4019.69 L 4953.36,4019.32 L 4961,4029.04 L 4802.32,4589.33 Z " />
<path stroke="transparent" fill="#000000" transform="matrix(0.0666667 0 0 0.0666667 -141.859 -136)" d="M 4736.22,3446.78 L 4759.97,3453.68 L 4960.29,4009.05 L 4953.36,4019.32 L 4942.87,4019.69 L 4736.22,3446.78 Z " />
<path stroke="transparent" fill="#000000" transform="matrix(0.0666667 0 0 0.0666667 -141.859 -136)" d="M 5714.1,3424.38 L 5737.39,3415.97 L 5568.08,3996.52 L 5557.57,3996.82 L 5549.99,3987.1 L 5714.1,3424.38 Z " />
<path stroke="transparent" fill="#000000" transform="matrix(0.0666667 0 0 0.0666667 -141.859 -136)" d="M 5770.12,4564.5 L 5746.45,4557.61 L 5550.61,4007.09 L 5557.57,3996.82 L 5568.08,3996.52 L 5770.12,4564.5 Z " />
<path stroke="transparent" fill="#000000" transform="matrix(0.0666667 0 0 0.0666667 -141.859 -136)" d="M 4343.47,4921.74 L 4283.36,4817.88 L 4301.68,4809.6 L 4359.77,4909.98 L 4343.47,4921.74 Z " />
<path stroke="transparent" fill="#000000" transform="matrix(0.0666667 0 0 0.0666667 -141.859 -136)" d="M 4392.12,4886.65 L 4338.02,4793.18 L 4356.33,4784.9 L 4408.42,4874.9 L 4392.12,4886.65 Z " />
<path stroke="transparent" fill="#000000" transform="matrix(0.0666667 0 0 0.0666667 -141.859 -136)" d="M 4440.77,4851.57 L 4392.68,4768.47 L 4410.99,4760.2 L 4457.07,4839.81 L 4440.77,4851.57 Z " />
<path stroke="transparent" fill="#000000" transform="matrix(0.0666667 0 0 0.0666667 -141.859 -136)" d="M 4489.41,4816.48 L 4447.33,4743.77 L 4465.65,4735.49 L 4505.72,4804.72 L 4489.41,4816.48 Z " />
<path stroke="transparent" fill="#000000" transform="matrix(0.0666667 0 0 0.0666667 -141.859 -136)" d="M 4538.06,4781.39 L 4501.99,4719.07 L 4520.31,4710.79 L 4554.37,4769.63 L 4538.06,4781.39 Z " />
<path stroke="transparent" fill="#000000" transform="matrix(0.0666667 0 0 0.0666667 -141.859 -136)" d="M 4586.71,4746.31 L 4556.65,4694.36 L 4574.97,4686.09 L 4603.01,4734.55 L 4586.71,4746.31 Z " />
<path stroke="transparent" fill="#000000" transform="matrix(0.0666667 0 0 0.0666667 -141.859 -136)" d="M 4635.36,4711.22 L 4611.31,4669.66 L 4629.63,4661.38 L 4651.66,4699.46 L 4635.36,4711.22 Z " />
<path stroke="transparent" fill="#000000" transform="matrix(0.0666667 0 0 0.0666667 -141.859 -136)" d="M 4684.01,4676.13 L 4665.97,4644.96 L 4684.28,4636.68 L 4700.31,4664.37 L 4684.01,4676.13 Z " />
<path stroke="transparent" fill="#000000" transform="matrix(0.0666667 0 0 0.0666667 -141.859 -136)" d="M 4732.66,4641.04 L 4720.62,4620.25 L 4738.94,4611.98 L 4748.96,4629.29 L 4732.66,4641.04 Z " />
<path stroke="transparent" fill="#000000" transform="matrix(0.0666667 0 0 0.0666667 -141.859 -136)" d="M 5203.84,4861.15 L 5192.62,4877.72 L 4779.14,4597.79 L 4802.32,4589.33 L 5203.84,4861.15 Z " />
<path stroke="transparent" fill="#000000" transform="matrix(0.0666667 0 0 0.0666667 -141.859 -136)" d="M 5125.62,3145.44 L 5137.86,3161.25 L 4759.97,3453.68 L 4736.22,3446.78 L 5125.62,3145.44 Z " />
<path stroke="transparent" fill="#000000" transform="matrix(0.0666667 0 0 0.0666667 -141.859 -136)" d="M 6128.53,3059.28 L 6198.2,3156.98 L 6180.72,3166.91 L 6113.45,3072.57 L 6128.53,3059.28 Z " />
<path stroke="transparent" fill="#000000" transform="matrix(0.0666667 0 0 0.0666667 -141.859 -136)" d="M 6084.84,3097.79 L 6147.56,3185.73 L 6130.07,3195.66 L 6069.76,3111.08 L 6084.84,3097.79 Z " />
<path stroke="transparent" fill="#000000" transform="matrix(0.0666667 0 0 0.0666667 -141.859 -136)" d="M 6041.16,3136.3 L 6096.91,3214.49 L 6079.43,3224.42 L 6026.07,3149.59 L 6041.16,3136.3 Z " />
<path stroke="transparent" fill="#000000" transform="matrix(0.0666667 0 0 0.0666667 -141.859 -136)" d="M 5997.47,3174.81 L 6046.27,3243.24 L 6028.78,3253.17 L 5982.38,3188.1 L 5997.47,3174.81 Z " />
<path stroke="transparent" fill="#000000" transform="matrix(0.0666667 0 0 0.0666667 -141.859 -136)" d="M 5953.78,3213.32 L 5995.62,3272 L 5978.14,3281.92 L 5938.7,3226.61 L 5953.78,3213.32 Z " />
<path stroke="transparent" fill="#000000" transform="matrix(0.0666667 0 0 0.0666667 -141.859 -136)" d="M 5910.09,3251.83 L 5944.98,3300.75 L 5927.49,3310.68 L 5895.01,3265.12 L 5910.09,3251.83 Z " />
<path stroke="transparent" fill="#000000" transform="matrix(0.0666667 0 0 0.0666667 -141.859 -136)" d="M 5866.4,3290.34 L 5894.33,3329.5 L 5876.85,3339.43 L 5851.32,3303.63 L 5866.4,3290.34 Z " />
<path stroke="transparent" fill="#000000" transform="matrix(0.0666667 0 0 0.0666667 -141.859 -136)" d="M 5822.71,3328.85 L 5843.69,3358.26 L 5826.2,3368.18 L 5807.63,3342.14 L 5822.71,3328.85 Z " />
<path stroke="transparent" fill="#000000" transform="matrix(0.0666667 0 0 0.0666667 -141.859 -136)" d="M 5779.03,3367.36 L 5793.04,3387.01 L 5775.55,3396.94 L 5763.94,3380.65 L 5779.03,3367.36 Z " />
<path stroke="transparent" fill="#000000" transform="matrix(0.0666667 0 0 0.0666667 -141.859 -136)" d="M 3752.52,4605.15 L 3752.58,4581.96 L 4276.61,4891.16 L 4256.66,4902.61 L 3752.52,4605.15 Z " />
<path stroke="transparent" fill="#000000" transform="matrix(0.0666667 0 0 0.0666667 -141.859 -136)" d="M 4279.11,5499.36 L 4259.06,5487.89 L 4256.66,4902.61 L 4276.61,4891.16 L 4279.11,5499.36 Z " />
<path stroke="transparent" fill="#000000" transform="matrix(0.0666667 0 0 0.0666667 -141.859 -136)" d="M 4207.31,5452.51 L 4187.31,5452.6 L 4185.19,4937.92 L 4205.19,4937.84 L 4207.31,5452.51 Z " />
<path stroke="transparent" fill="#000000" transform="matrix(0.0666667 0 0 0.0666667 -141.859 -136)" d="M 6723.47,3366.11 L 6723.41,3389.23 L 6197.37,3082.49 L 6217.37,3071 L 6723.47,3366.11 Z " />
<path stroke="transparent" fill="#000000" transform="matrix(0.0666667 0 0 0.0666667 -141.859 -136)" d="M 6197.37,2471.86 L 6217.37,2483.35 L 6217.37,3071 L 6197.37,3082.49 L 6197.37,2471.86 Z " />
<path stroke="transparent" fill="#000000" transform="matrix(0.0666667 0 0 0.0666667 -141.859 -136)" d="M 6269.27,2518.91 L 6289.27,2518.91 L 6289.27,3035.45 L 6269.27,3035.45 L 6269.27,2518.91 Z " />
<path stroke="transparent" fill="#000000" transform="matrix(0.0666667 0 0 0.0666667 -141.859 -136)" d="M 3246.44,4900.1 L 3236.44,4894.35 L 3236.4,4882.8 L 3752.58,4581.96 L 3752.52,4605.15 L 3246.44,4900.1 Z " />
<path stroke="transparent" fill="#000000" transform="matrix(0.0666667 0 0 0.0666667 -141.859 -136)" d="M 3313.16,4944.18 L 3303.09,4926.9 L 3747.29,4668.02 L 3757.36,4685.3 L 3313.16,4944.18 Z " />
<path stroke="transparent" fill="#000000" transform="matrix(0.0666667 0 0 0.0666667 -141.859 -136)" d="M 3752.54,5805.99 L 3752.55,5782.84 L 4259.06,5487.89 L 4279.11,5499.36 L 3752.54,5805.99 Z " />
<path stroke="transparent" fill="#000000" transform="matrix(0.0666667 0 0 0.0666667 -141.859 -136)" d="M 7235.04,3070.97 L 7245.04,3076.75 L 7245.03,3088.3 L 6723.41,3389.23 L 6723.47,3366.11 L 7235.04,3070.97 Z " />
<path stroke="transparent" fill="#000000" transform="matrix(0.0666667 0 0 0.0666667 -141.859 -136)" d="M 7167.78,3026.35 L 7177.78,3043.67 L 6728.63,3302.8 L 6718.63,3285.47 L 7167.78,3026.35 Z " />
<path stroke="transparent" fill="#000000" transform="matrix(0.0666667 0 0 0.0666667 -141.859 -136)" d="M 6723.41,2165.12 L 6723.47,2188.24 L 6217.37,2483.35 L 6197.37,2471.86 L 6723.41,2165.12 Z " />
<path stroke="transparent" fill="#000000" transform="matrix(0.0666667 0 0 0.0666667 -141.859 -136)" d="M 3246.44,5487.88 L 3236.44,5493.62 L 3226.44,5487.82 L 3226.44,4900.14 L 3236.44,4894.35 L 3246.44,4900.1 L 3246.44,5487.88 Z " />
<path stroke="transparent" fill="#000000" transform="matrix(0.0666667 0 0 0.0666667 -141.859 -136)" d="M 2807.52,4659.71 L 2817.48,4642.37 L 3236.4,4882.8 L 3236.44,4894.35 L 3226.44,4900.14 L 2807.52,4659.71 Z " />
<path stroke="transparent" fill="#000000" transform="matrix(0.0666667 0 0 0.0666667 -141.859 -136)" d="M 7235.04,2483.38 L 7245.04,2477.61 L 7255.04,2483.37 L 7255.04,3070.99 L 7245.04,3076.75 L 7235.04,3070.97 L 7235.04,2483.38 Z " />
<path stroke="transparent" fill="#000000" transform="matrix(0.0666667 0 0 0.0666667 -141.859 -136)" d="M 7676.64,3315.38 L 7666.61,3332.69 L 7245.03,3088.3 L 7245.04,3076.75 L 7255.04,3070.99 L 7676.64,3315.38 Z " />
<path stroke="transparent" fill="#000000" transform="matrix(0.0666667 0 0 0.0666667 -141.859 -136)" d="M 2795.11,5757.52 L 2785.18,5740.16 L 3226.44,5487.82 L 3236.44,5493.62 L 3236.39,5505.17 L 2795.11,5757.52 Z " />
<path stroke="transparent" fill="#000000" transform="matrix(0.0666667 0 0 0.0666667 -141.859 -136)" d="M 2198.2,4903 L 2188.18,4885.7 L 2607.8,4642.57 L 2617.83,4659.88 L 2198.2,4903 Z " />
<path stroke="transparent" fill="#000000" transform="matrix(0.0666667 0 0 0.0666667 -141.859 -136)" d="M 7664.57,2223.21 L 7674.59,2240.52 L 7255.04,2483.37 L 7245.04,2477.61 L 7245.03,2466.06 L 7664.57,2223.21 Z " />
<path stroke="transparent" fill="#000000" transform="matrix(0.0666667 0 0 0.0666667 -141.859 -136)" d="M 8275.23,3068.11 L 8285.3,3085.39 L 7861.59,3332.44 L 7851.51,3315.16 L 8275.23,3068.11 Z " />
<path stroke="transparent" fill="#000000" transform="matrix(0.0666667 0 0 0.0666667 -141.859 -136)" d="M 2168.16,5509.77 L 2178.12,5492.42 L 2609.54,5740.03 L 2599.59,5757.37 L 2168.16,5509.77 Z " />
<path stroke="transparent" fill="#000000" transform="matrix(0.0666667 0 0 0.0666667 -141.859 -136)" d="M 8298.24,2468.95 L 8288.22,2486.26 L 7864.11,2240.77 L 7874.13,2223.46 L 8298.24,2468.95 Z " />
<path stroke="transparent" fill="#000000" transform="matrix(0.0666667 0 0 0.0666667 -141.859 -136)" d="M 5315.25,3155.25 L 5326.44,3138.67 L 5737.39,3415.97 L 5714.1,3424.38 L 5315.25,3155.25 Z " />
<path stroke="transparent" fill="#000000" transform="matrix(0.0666667 0 0 0.0666667 -141.859 -136)" d="M 5377.21,4871.43 L 5364.9,4855.67 L 5746.45,4557.61 L 5770.12,4564.5 L 5377.21,4871.43 Z " />
<path stroke="transparent" fill="#000000" transform="matrix(0.0666667 0 0 0.0666667 -141.859 -136)" d="M 3236.39,5505.17 L 3236.44,5493.62 L 3246.44,5487.88 L 3752.55,5782.84 L 3752.54,5805.99 L 3236.39,5505.17 Z " />
<path stroke="transparent" fill="#000000" transform="matrix(0.0666667 0 0 0.0666667 -141.859 -136)" d="M 3303.09,5461.07 L 3313.16,5443.79 L 3757.6,5702.82 L 3747.53,5720.1 L 3303.09,5461.07 Z " />
<path stroke="transparent" fill="#000000" transform="matrix(0.0666667 0 0 0.0666667 -141.859 -136)" d="M 7245.03,2466.06 L 7245.04,2477.61 L 7235.04,2483.38 L 6723.47,2188.24 L 6723.41,2165.12 L 7245.03,2466.06 Z " />
<path stroke="transparent" fill="#000000" transform="matrix(0.0666667 0 0 0.0666667 -141.859 -136)" d="M 7177.78,2510.68 L 7167.78,2528 L 6718.63,2268.88 L 6728.63,2251.56 L 7177.78,2510.68 Z " />
<path stroke="transparent" fill="#000000" transform="matrix(0.0666667 0 0 0.0666667 -141.859 -136)" d="M 4450.71,4106.63 L 4444.22,3986.8 L 4464.31,3987.93 L 4470.56,4103.34 L 4450.71,4106.63 Z " />
<path stroke="transparent" fill="#000000" transform="matrix(0.0666667 0 0 0.0666667 -141.859 -136)" d="M 4504.38,4097.74 L 4498.54,3989.85 L 4518.63,3990.97 L 4524.23,4094.45 L 4504.38,4097.74 Z " />
<path stroke="transparent" fill="#000000" transform="matrix(0.0666667 0 0 0.0666667 -141.859 -136)" d="M 4558.05,4088.85 L 4552.85,3992.89 L 4572.94,3994.01 L 4577.9,4085.56 L 4558.05,4088.85 Z " />
<path stroke="transparent" fill="#000000" transform="matrix(0.0666667 0 0 0.0666667 -141.859 -136)" d="M 4611.72,4079.96 L 4607.17,3995.93 L 4627.26,3997.05 L 4631.57,4076.67 L 4611.72,4079.96 Z " />
<path stroke="transparent" fill="#000000" transform="matrix(0.0666667 0 0 0.0666667 -141.859 -136)" d="M 4665.39,4071.07 L 4661.48,3998.97 L 4681.57,4000.09 L 4685.24,4067.78 L 4665.39,4071.07 Z " />
<path stroke="transparent" fill="#000000" transform="matrix(0.0666667 0 0 0.0666667 -141.859 -136)" d="M 4719.06,4062.18 L 4715.8,4002.01 L 4735.89,4003.13 L 4738.91,4058.89 L 4719.06,4062.18 Z " />
<path stroke="transparent" fill="#000000" transform="matrix(0.0666667 0 0 0.0666667 -141.859 -136)" d="M 4772.73,4053.29 L 4770.11,4005.05 L 4790.2,4006.17 L 4792.58,4050.01 L 4772.73,4053.29 Z " />
<path stroke="transparent" fill="#000000" transform="matrix(0.0666667 0 0 0.0666667 -141.859 -136)" d="M 4826.39,4044.4 L 4824.43,4008.09 L 4844.52,4009.22 L 4846.25,4041.12 L 4826.39,4044.4 Z " />
<path stroke="transparent" fill="#000000" transform="matrix(0.0666667 0 0 0.0666667 -141.859 -136)" d="M 4880.06,4035.51 L 4878.74,4011.13 L 4898.83,4012.26 L 4899.91,4032.23 L 4880.06,4035.51 Z " />
<path stroke="transparent" fill="#000000" transform="matrix(0.0666667 0 0 0.0666667 -141.859 -136)" d="M 6065.62,3926.34 L 6068.09,4046.31 L 6048.05,4044.53 L 6045.67,3928.95 L 6065.62,3926.34 Z " />
<path stroke="transparent" fill="#000000" transform="matrix(0.0666667 0 0 0.0666667 -141.859 -136)" d="M 6011.33,3933.43 L 6013.56,4041.46 L 5993.52,4039.68 L 5991.38,3936.04 L 6011.33,3933.43 Z " />
<path stroke="transparent" fill="#000000" transform="matrix(0.0666667 0 0 0.0666667 -141.859 -136)" d="M 5957.05,3940.53 L 5959.03,4036.61 L 5938.99,4034.82 L 5937.1,3943.14 L 5957.05,3940.53 Z " />
<path stroke="transparent" fill="#000000" transform="matrix(0.0666667 0 0 0.0666667 -141.859 -136)" d="M 5902.76,3947.63 L 5904.5,4031.75 L 5884.46,4029.97 L 5882.81,3950.23 L 5902.76,3947.63 Z " />
<path stroke="transparent" fill="#000000" transform="matrix(0.0666667 0 0 0.0666667 -141.859 -136)" d="M 5848.48,3954.72 L 5849.97,4026.9 L 5829.93,4025.12 L 5828.53,3957.33 L 5848.48,3954.72 Z " />
<path stroke="transparent" fill="#000000" transform="matrix(0.0666667 0 0 0.0666667 -141.859 -136)" d="M 5794.2,3961.82 L 5795.44,4022.05 L 5775.4,4020.26 L 5774.25,3964.42 L 5794.2,3961.82 Z " />
<path stroke="transparent" fill="#000000" transform="matrix(0.0666667 0 0 0.0666667 -141.859 -136)" d="M 5739.91,3968.91 L 5740.91,4017.19 L 5720.87,4015.41 L 5719.96,3971.52 L 5739.91,3968.91 Z " />
<path stroke="transparent" fill="#000000" transform="matrix(0.0666667 0 0 0.0666667 -141.859 -136)" d="M 5685.63,3976.01 L 5686.38,4012.34 L 5666.34,4010.56 L 5665.68,3978.61 L 5685.63,3976.01 Z " />
<path stroke="transparent" fill="#000000" transform="matrix(0.0666667 0 0 0.0666667 -141.859 -136)" d="M 5631.34,3983.1 L 5631.85,4007.49 L 5611.81,4005.7 L 5611.39,3985.71 L 5631.34,3983.1 Z " />
</svg>
