<?xml version="1.0" standalone="no" ?>
<!DOCTYPE svg PUBLIC "-//W3C//DTD SVG 1.1//EN" "http://www.w3.org/Graphics/SVG/1.1/DTD/svg11.dtd">
<svg width="910px" height="358px" viewBox="0 0 910 358" style="background-color: #ffffff00" xmlns="http://www.w3.org/2000/svg" xmlns:xlink="http://www.w3.org/1999/xlink" version="1.1" >
<path stroke="transparent" fill="#000000" transform="matrix(0.0833333 0 0 0.0833333 -285.583 -229)" d="M 9936.13,3625.11 L 9916.13,3613.56 L 10432.2,3315.74 L 10445.8,3319.41 L 10445.8,3330.95 L 9936.13,3625.11 Z " />
<path stroke="transparent" fill="#000000" transform="matrix(0.0833333 0 0 0.0833333 -285.583 -229)" d="M 9916.13,3613.56 L 9936.13,3625.11 L 9936.04,4213.58 L 9926.04,4219.35 L 9916.05,4199.78 L 9916.13,3613.56 Z " />
<path stroke="transparent" fill="#000000" transform="matrix(0.0833333 0 0 0.0833333 -285.583 -229)" d="M 9926.04,4230.9 L 9926.04,4219.35 L 9936.04,4213.58 L 10445.7,4507.83 L 10445.7,4519.37 L 10435.7,4525.14 L 9926.04,4230.9 Z " />
<path stroke="transparent" fill="#000000" transform="matrix(0.0833333 0 0 0.0833333 -285.583 -229)" d="M 9416.39,4525 L 9406.39,4519.23 L 9406.39,4507.68 L 9904.09,4220.48 L 9926.04,4219.35 L 9926.04,4230.9 L 9416.39,4525 Z " />
<path stroke="transparent" fill="#000000" transform="matrix(0.0833333 0 0 0.0833333 -285.583 -229)" d="M 8826.65,4819.17 L 8946.65,4819.17 L 8898.17,5400.98 L 8886.65,5419.17 L 8875.14,5400.97 L 8826.65,4819.17 Z " />
<path stroke="transparent" fill="#000000" transform="matrix(0.0833333 0 0 0.0833333 -285.583 -229)" d="M 8896.65,5424.95 L 8886.65,5419.17 L 8898.17,5400.98 L 9396.31,5113.47 L 9406.31,5119.24 L 9406.31,5130.79 L 8896.65,5424.95 Z " />
<path stroke="transparent" fill="#000000" transform="matrix(0.0833333 0 0 0.0833333 -285.583 -229)" d="M 8875.14,5400.97 L 8886.65,5419.17 L 8876.65,5424.95 L 8367.08,5130.64 L 8367.08,5119.1 L 8377.09,5113.32 L 8875.14,5400.97 Z " />
<path stroke="transparent" fill="#000000" transform="matrix(0.0833333 0 0 0.0833333 -285.583 -229)" d="M 8896.57,6024.96 L 8876.57,6013.41 L 8876.65,5424.95 L 8886.65,5419.17 L 8896.65,5424.95 L 8896.57,6024.96 Z " />
<path stroke="transparent" fill="#000000" transform="matrix(0.0833333 0 0 0.0833333 -285.583 -229)" d="M 8876.57,6013.41 L 8896.57,6024.96 L 8366.92,6330.61 L 8366.92,6307.51 L 8876.57,6013.41 Z " />
<path stroke="transparent" fill="#000000" transform="matrix(0.0833333 0 0 0.0833333 -285.583 -229)" d="M 8366.92,6307.51 L 8366.92,6330.61 L 7847.29,6030.59 L 7847.29,6019.04 L 7857.29,6013.27 L 8366.92,6307.51 Z " />
<path stroke="transparent" fill="#000000" transform="matrix(0.0833333 0 0 0.0833333 -285.583 -229)" d="M 7857.29,6013.27 L 7847.29,6019.04 L 7837.29,6013.27 L 7837.37,5424.8 L 7847.37,5419.03 L 7857.37,5424.8 L 7857.29,6013.27 Z " />
<path stroke="transparent" fill="#000000" transform="matrix(0.0833333 0 0 0.0833333 -285.583 -229)" d="M 7341.29,6322.64 L 7327.63,6318.98 L 7327.64,6307.43 L 7837.29,6013.27 L 7847.29,6019.04 L 7847.29,6030.59 L 7341.29,6322.64 Z " />
<path stroke="transparent" fill="#000000" transform="matrix(0.0833333 0 0 0.0833333 -285.583 -229)" d="M 7036.22,6843.55 L 7018.9,6833.54 L 7313.97,6322.63 L 7327.63,6318.98 L 7327.63,6338.98 L 7036.22,6843.55 Z " />
<path stroke="transparent" fill="#000000" transform="matrix(0.0833333 0 0 0.0833333 -285.583 -229)" d="M 7636.23,6833.63 L 7618.91,6843.63 L 7327.63,6338.98 L 7327.63,6318.98 L 7341.29,6322.64 L 7636.23,6833.63 Z " />
<path stroke="transparent" fill="#000000" transform="matrix(0.0833333 0 0 0.0833333 -285.583 -229)" d="M 7327.64,6307.43 L 7327.63,6318.98 L 7313.97,6322.63 L 6808.62,6030.76 L 6808.07,6018.9 L 6818.07,6013.13 L 7327.64,6307.43 Z " />
<path stroke="transparent" fill="#000000" transform="matrix(0.0833333 0 0 0.0833333 -285.583 -229)" d="M 6158.98,5124.33 L 6218.96,5228.26 L 5778.87,5425.16 L 5768.87,5418.74 L 5768.31,5406.87 L 6158.98,5124.33 Z " />
<path stroke="transparent" fill="#000000" transform="matrix(0.0833333 0 0 0.0833333 -285.583 -229)" d="M 5758.87,5424.51 L 5768.87,5418.74 L 5778.87,5425.16 L 5778.78,6024.53 L 5758.78,6012.98 L 5758.87,5424.51 Z " />
<path stroke="transparent" fill="#000000" transform="matrix(0.0833333 0 0 0.0833333 -285.583 -229)" d="M 5249.29,5130.21 L 5249.3,5107.11 L 5768.31,5406.87 L 5768.87,5418.74 L 5758.87,5424.51 L 5249.29,5130.21 Z " />
<path stroke="transparent" fill="#000000" transform="matrix(0.0833333 0 0 0.0833333 -285.583 -229)" d="M 5189.36,4638.47 L 5309.36,4638.49 L 5307.01,4658.49 L 5191.71,4658.47 L 5189.36,4638.47 Z " />
<path stroke="transparent" fill="#000000" transform="matrix(0.0833333 0 0 0.0833333 -285.583 -229)" d="M 5196.16,4696.5 L 5302.55,4696.51 L 5300.2,4716.51 L 5198.51,4716.5 L 5196.16,4696.5 Z " />
<path stroke="transparent" fill="#000000" transform="matrix(0.0833333 0 0 0.0833333 -285.583 -229)" d="M 5202.96,4754.52 L 5295.73,4754.53 L 5293.38,4774.53 L 5205.31,4774.52 L 5202.96,4754.52 Z " />
<path stroke="transparent" fill="#000000" transform="matrix(0.0833333 0 0 0.0833333 -285.583 -229)" d="M 5209.76,4812.54 L 5288.92,4812.55 L 5286.57,4832.55 L 5212.11,4832.54 L 5209.76,4812.54 Z " />
<path stroke="transparent" fill="#000000" transform="matrix(0.0833333 0 0 0.0833333 -285.583 -229)" d="M 5216.56,4870.57 L 5282.1,4870.58 L 5279.75,4890.58 L 5218.91,4890.57 L 5216.56,4870.57 Z " />
<path stroke="transparent" fill="#000000" transform="matrix(0.0833333 0 0 0.0833333 -285.583 -229)" d="M 5223.36,4928.59 L 5275.28,4928.6 L 5272.94,4948.6 L 5225.7,4948.59 L 5223.36,4928.59 Z " />
<path stroke="transparent" fill="#000000" transform="matrix(0.0833333 0 0 0.0833333 -285.583 -229)" d="M 5230.16,4986.61 L 5268.47,4986.62 L 5266.12,5006.62 L 5232.5,5006.62 L 5230.16,4986.61 Z " />
<path stroke="transparent" fill="#000000" transform="matrix(0.0833333 0 0 0.0833333 -285.583 -229)" d="M 5236.96,5044.64 L 5261.65,5044.64 L 5259.3,5064.64 L 5239.3,5064.64 L 5236.96,5044.64 Z " />
<path stroke="transparent" fill="#000000" transform="matrix(0.0833333 0 0 0.0833333 -285.583 -229)" d="M 4739.64,5424.37 L 4729.64,5418.59 L 4730.21,5406.72 L 5249.3,5107.11 L 5249.29,5130.21 L 4739.64,5424.37 Z " />
<path stroke="transparent" fill="#000000" transform="matrix(0.0833333 0 0 0.0833333 -285.583 -229)" d="M 4280.09,5228.24 L 4340.1,5124.33 L 4730.21,5406.72 L 4729.64,5418.59 L 4719.64,5425.02 L 4280.09,5228.24 Z " />
<path stroke="transparent" fill="#000000" transform="matrix(0.0833333 0 0 0.0833333 -285.583 -229)" d="M 4739.56,6012.84 L 4719.56,6024.38 L 4719.64,5425.02 L 4729.64,5418.59 L 4739.64,5424.37 L 4739.56,6012.84 Z " />
<path stroke="transparent" fill="#000000" transform="matrix(0.0833333 0 0 0.0833333 -285.583 -229)" d="M 3785.3,6084.88 L 3795.3,6067.57 L 4214.91,6309.88 L 4204.91,6327.2 L 3785.3,6084.88 Z " />
<path stroke="transparent" fill="#000000" transform="matrix(0.0833333 0 0 0.0833333 -285.583 -229)" d="M 4255.84,6813.39 L 4235.84,6813.39 L 4235.91,6297.76 L 4255.91,6297.76 L 4255.84,6813.39 Z " />
<path stroke="transparent" fill="#000000" transform="matrix(0.0833333 0 0 0.0833333 -285.583 -229)" d="M 4183.84,6813.38 L 4163.84,6813.38 L 4163.91,6297.75 L 4183.91,6297.75 L 4183.84,6813.38 Z " />
<path stroke="transparent" fill="#000000" transform="matrix(0.0833333 0 0 0.0833333 -285.583 -229)" d="M 4286.67,6343.51 L 4226.68,6239.58 L 4245.02,6231.34 L 4302.97,6331.75 L 4286.67,6343.51 Z " />
<path stroke="transparent" fill="#000000" transform="matrix(0.0833333 0 0 0.0833333 -285.583 -229)" d="M 4334.77,6308.83 L 4280.78,6215.28 L 4299.12,6207.04 L 4351.08,6297.07 L 4334.77,6308.83 Z " />
<path stroke="transparent" fill="#000000" transform="matrix(0.0833333 0 0 0.0833333 -285.583 -229)" d="M 4382.87,6274.14 L 4334.88,6190.98 L 4353.21,6182.74 L 4399.18,6262.38 L 4382.87,6274.14 Z " />
<path stroke="transparent" fill="#000000" transform="matrix(0.0833333 0 0 0.0833333 -285.583 -229)" d="M 4430.97,6239.45 L 4388.97,6166.68 L 4407.31,6158.44 L 4447.28,6227.7 L 4430.97,6239.45 Z " />
<path stroke="transparent" fill="#000000" transform="matrix(0.0833333 0 0 0.0833333 -285.583 -229)" d="M 4479.08,6204.77 L 4443.07,6142.38 L 4461.41,6134.14 L 4495.38,6193.01 L 4479.08,6204.77 Z " />
<path stroke="transparent" fill="#000000" transform="matrix(0.0833333 0 0 0.0833333 -285.583 -229)" d="M 4527.18,6170.08 L 4497.16,6118.08 L 4515.5,6109.84 L 4543.48,6158.32 L 4527.18,6170.08 Z " />
<path stroke="transparent" fill="#000000" transform="matrix(0.0833333 0 0 0.0833333 -285.583 -229)" d="M 4575.28,6135.39 L 4551.26,6093.78 L 4569.6,6085.54 L 4591.59,6123.64 L 4575.28,6135.39 Z " />
<path stroke="transparent" fill="#000000" transform="matrix(0.0833333 0 0 0.0833333 -285.583 -229)" d="M 4623.38,6100.71 L 4605.36,6069.48 L 4623.7,6061.24 L 4639.69,6088.95 L 4623.38,6100.71 Z " />
<path stroke="transparent" fill="#000000" transform="matrix(0.0833333 0 0 0.0833333 -285.583 -229)" d="M 4671.48,6066.02 L 4659.45,6045.18 L 4677.79,6036.94 L 4687.79,6054.26 L 4671.48,6066.02 Z " />
<path stroke="transparent" fill="#000000" transform="matrix(0.0833333 0 0 0.0833333 -285.583 -229)" d="M 5161.52,6256.54 L 5151.52,6273.86 L 4719.56,6024.38 L 4739.56,6012.84 L 5161.52,6256.54 Z " />
<path stroke="transparent" fill="#000000" transform="matrix(0.0833333 0 0 0.0833333 -285.583 -229)" d="M 5346.75,6273.89 L 5336.76,6256.56 L 5758.78,6012.98 L 5778.78,6024.53 L 5346.75,6273.89 Z " />
<path stroke="transparent" fill="#000000" transform="matrix(0.0833333 0 0 0.0833333 -285.583 -229)" d="M 6225.8,6213.39 L 6165.79,6317.31 L 6149.61,6305.33 L 6207.35,6205.36 L 6225.8,6213.39 Z " />
<path stroke="transparent" fill="#000000" transform="matrix(0.0833333 0 0 0.0833333 -285.583 -229)" d="M 6170.55,6189.35 L 6117.36,6281.46 L 6101.18,6269.49 L 6152.09,6181.32 L 6170.55,6189.35 Z " />
<path stroke="transparent" fill="#000000" transform="matrix(0.0833333 0 0 0.0833333 -285.583 -229)" d="M 6115.29,6165.32 L 6068.92,6245.62 L 6052.74,6233.64 L 6096.83,6157.29 L 6115.29,6165.32 Z " />
<path stroke="transparent" fill="#000000" transform="matrix(0.0833333 0 0 0.0833333 -285.583 -229)" d="M 6060.04,6141.28 L 6020.48,6209.77 L 6004.3,6197.8 L 6041.58,6133.25 L 6060.04,6141.28 Z " />
<path stroke="transparent" fill="#000000" transform="matrix(0.0833333 0 0 0.0833333 -285.583 -229)" d="M 6004.78,6117.24 L 5972.05,6173.93 L 5955.86,6161.96 L 5986.32,6109.21 L 6004.78,6117.24 Z " />
<path stroke="transparent" fill="#000000" transform="matrix(0.0833333 0 0 0.0833333 -285.583 -229)" d="M 5949.53,6093.21 L 5923.61,6138.09 L 5907.43,6126.11 L 5931.07,6085.18 L 5949.53,6093.21 Z " />
<path stroke="transparent" fill="#000000" transform="matrix(0.0833333 0 0 0.0833333 -285.583 -229)" d="M 5894.27,6069.17 L 5875.17,6102.24 L 5858.99,6090.27 L 5875.81,6061.14 L 5894.27,6069.17 Z " />
<path stroke="transparent" fill="#000000" transform="matrix(0.0833333 0 0 0.0833333 -285.583 -229)" d="M 5839.01,6045.13 L 5826.73,6066.4 L 5810.55,6054.42 L 5820.56,6037.1 L 5839.01,6045.13 Z " />
<path stroke="transparent" fill="#000000" transform="matrix(0.0833333 0 0 0.0833333 -285.583 -229)" d="M 6411.03,6317.34 L 6351.04,6213.4 L 6798.07,6012.48 L 6808.07,6018.9 L 6808.62,6030.76 L 6411.03,6317.34 Z " />
<path stroke="transparent" fill="#000000" transform="matrix(0.0833333 0 0 0.0833333 -285.583 -229)" d="M 6798.15,5413.11 L 6818.15,5424.66 L 6818.07,6013.13 L 6808.07,6018.9 L 6798.07,6012.48 L 6798.15,5413.11 Z " />
<path stroke="transparent" fill="#000000" transform="matrix(0.0833333 0 0 0.0833333 -285.583 -229)" d="M 6818.15,5424.66 L 6798.15,5413.11 L 7327.8,5107.4 L 7327.8,5130.5 L 6818.15,5424.66 Z " />
<path stroke="transparent" fill="#000000" transform="matrix(0.0833333 0 0 0.0833333 -285.583 -229)" d="M 7327.8,5130.5 L 7327.8,5107.4 L 7835.86,5400.83 L 7847.37,5419.03 L 7837.37,5424.8 L 7327.8,5130.5 Z " />
<path stroke="transparent" fill="#000000" transform="matrix(0.0833333 0 0 0.0833333 -285.583 -229)" d="M 7787.45,4819.01 L 7907.45,4819.02 L 7858.89,5400.84 L 7847.37,5419.03 L 7835.86,5400.83 L 7787.45,4819.01 Z " />
<path stroke="transparent" fill="#000000" transform="matrix(0.0833333 0 0 0.0833333 -285.583 -229)" d="M 8357.09,5113.32 L 8367.08,5119.1 L 8367.08,5130.64 L 7857.37,5424.8 L 7847.37,5419.03 L 7858.89,5400.84 L 8357.09,5113.32 Z " />
<path stroke="transparent" fill="#000000" transform="matrix(0.0833333 0 0 0.0833333 -285.583 -229)" d="M 8357.17,4513.31 L 8377.17,4524.86 L 8377.09,5113.32 L 8367.08,5119.1 L 8357.09,5113.32 L 8357.17,4513.31 Z " />
<path stroke="transparent" fill="#000000" transform="matrix(0.0833333 0 0 0.0833333 -285.583 -229)" d="M 8377.17,4524.86 L 8357.17,4513.31 L 8886.82,4207.66 L 8886.82,4230.75 L 8377.17,4524.86 Z " />
<path stroke="transparent" fill="#000000" transform="matrix(0.0833333 0 0 0.0833333 -285.583 -229)" d="M 8886.82,4230.75 L 8886.82,4207.66 L 9406.39,4507.68 L 9406.39,4519.23 L 9396.39,4525 L 8886.82,4230.75 Z " />
<path stroke="transparent" fill="#000000" transform="matrix(0.0833333 0 0 0.0833333 -285.583 -229)" d="M 8881.81,4311 L 8891.81,4293.68 L 9339.39,4552.13 L 9329.39,4569.45 L 8881.81,4311 Z " />
<path stroke="transparent" fill="#000000" transform="matrix(0.0833333 0 0 0.0833333 -285.583 -229)" d="M 9396.39,4525 L 9406.39,4519.23 L 9416.39,4525 L 9416.31,5113.47 L 9406.31,5119.24 L 9396.31,5113.47 L 9396.39,4525 Z " />
<path stroke="transparent" fill="#000000" transform="matrix(0.0833333 0 0 0.0833333 -285.583 -229)" d="M 9466.2,5869.26 L 9346.2,5869.25 L 9347.64,5849.25 L 9464.77,5849.26 L 9466.2,5869.26 Z " />
<path stroke="transparent" fill="#000000" transform="matrix(0.0833333 0 0 0.0833333 -285.583 -229)" d="M 9462.16,5812.93 L 9350.26,5812.91 L 9351.7,5792.91 L 9460.73,5792.93 L 9462.16,5812.93 Z " />
<path stroke="transparent" fill="#000000" transform="matrix(0.0833333 0 0 0.0833333 -285.583 -229)" d="M 9458.12,5756.59 L 9354.31,5756.58 L 9355.75,5736.58 L 9456.69,5736.59 L 9458.12,5756.59 Z " />
<path stroke="transparent" fill="#000000" transform="matrix(0.0833333 0 0 0.0833333 -285.583 -229)" d="M 9454.09,5700.26 L 9358.37,5700.25 L 9359.81,5680.25 L 9452.65,5680.26 L 9454.09,5700.26 Z " />
<path stroke="transparent" fill="#000000" transform="matrix(0.0833333 0 0 0.0833333 -285.583 -229)" d="M 9450.05,5643.92 L 9362.42,5643.91 L 9363.86,5623.91 L 9448.61,5623.92 L 9450.05,5643.92 Z " />
<path stroke="transparent" fill="#000000" transform="matrix(0.0833333 0 0 0.0833333 -285.583 -229)" d="M 9446.01,5587.59 L 9366.48,5587.58 L 9367.92,5567.58 L 9444.57,5567.59 L 9446.01,5587.59 Z " />
<path stroke="transparent" fill="#000000" transform="matrix(0.0833333 0 0 0.0833333 -285.583 -229)" d="M 9441.97,5531.25 L 9370.53,5531.24 L 9371.97,5511.24 L 9440.53,5511.25 L 9441.97,5531.25 Z " />
<path stroke="transparent" fill="#000000" transform="matrix(0.0833333 0 0 0.0833333 -285.583 -229)" d="M 9437.93,5474.92 L 9374.59,5474.91 L 9376.03,5454.91 L 9436.5,5454.92 L 9437.93,5474.92 Z " />
<path stroke="transparent" fill="#000000" transform="matrix(0.0833333 0 0 0.0833333 -285.583 -229)" d="M 9433.89,5418.58 L 9378.64,5418.58 L 9380.08,5398.58 L 9432.46,5398.58 L 9433.89,5418.58 Z " />
<path stroke="transparent" fill="#000000" transform="matrix(0.0833333 0 0 0.0833333 -285.583 -229)" d="M 9429.85,5362.25 L 9382.7,5362.24 L 9384.14,5342.24 L 9428.42,5342.25 L 9429.85,5362.25 Z " />
<path stroke="transparent" fill="#000000" transform="matrix(0.0833333 0 0 0.0833333 -285.583 -229)" d="M 9425.81,5305.91 L 9386.75,5305.91 L 9388.19,5285.91 L 9424.38,5285.91 L 9425.81,5305.91 Z " />
<path stroke="transparent" fill="#000000" transform="matrix(0.0833333 0 0 0.0833333 -285.583 -229)" d="M 9421.77,5249.58 L 9390.81,5249.57 L 9392.25,5229.57 L 9420.34,5229.58 L 9421.77,5249.58 Z " />
<path stroke="transparent" fill="#000000" transform="matrix(0.0833333 0 0 0.0833333 -285.583 -229)" d="M 9417.73,5193.24 L 9394.86,5193.24 L 9396.3,5173.24 L 9416.3,5173.24 L 9417.73,5193.24 Z " />
<path stroke="transparent" fill="#000000" transform="matrix(0.0833333 0 0 0.0833333 -285.583 -229)" d="M 9925.88,5407.77 L 9925.87,5430.87 L 9406.31,5130.79 L 9406.31,5119.24 L 9416.31,5113.47 L 9925.88,5407.77 Z " />
<path stroke="transparent" fill="#000000" transform="matrix(0.0833333 0 0 0.0833333 -285.583 -229)" d="M 9925.87,5430.87 L 9925.88,5407.77 L 10435.6,5113.61 L 10455.6,5125.16 L 9925.87,5430.87 Z " />
<path stroke="transparent" fill="#000000" transform="matrix(0.0833333 0 0 0.0833333 -285.583 -229)" d="M 10455.6,5125.16 L 10435.6,5113.61 L 10435.7,4525.14 L 10445.7,4519.37 L 10455.7,4538.44 L 10455.6,5125.16 Z " />
<path stroke="transparent" fill="#000000" transform="matrix(0.0833333 0 0 0.0833333 -285.583 -229)" d="M 11607.3,5718.04 L 11547.3,5614.11 L 11994.4,5413.14 L 12004.4,5419.55 L 12004.9,5431.42 L 11607.3,5718.04 Z " />
<path stroke="transparent" fill="#000000" transform="matrix(0.0833333 0 0 0.0833333 -285.583 -229)" d="M 12014.4,5413.78 L 12004.4,5419.55 L 11994.4,5413.14 L 11994.5,4813.82 L 12014.5,4825.37 L 12014.4,5413.78 Z " />
<path stroke="transparent" fill="#000000" transform="matrix(0.0833333 0 0 0.0833333 -285.583 -229)" d="M 12524,5708.08 L 12523.9,5731.17 L 12004.9,5431.42 L 12004.4,5419.55 L 12014.4,5413.78 L 12524,5708.08 Z " />
<path stroke="transparent" fill="#000000" transform="matrix(0.0833333 0 0 0.0833333 -285.583 -229)" d="M 12583.9,6214.48 L 12463.9,6214.47 L 12466.2,6194.47 L 12581.6,6194.48 L 12583.9,6214.48 Z " />
<path stroke="transparent" fill="#000000" transform="matrix(0.0833333 0 0 0.0833333 -285.583 -229)" d="M 12577.1,6154.37 L 12470.7,6154.36 L 12473,6134.36 L 12574.8,6134.37 L 12577.1,6154.37 Z " />
<path stroke="transparent" fill="#000000" transform="matrix(0.0833333 0 0 0.0833333 -285.583 -229)" d="M 12570.3,6094.26 L 12477.5,6094.25 L 12479.8,6074.25 L 12568,6074.26 L 12570.3,6094.26 Z " />
<path stroke="transparent" fill="#000000" transform="matrix(0.0833333 0 0 0.0833333 -285.583 -229)" d="M 12563.5,6034.16 L 12484.4,6034.15 L 12486.6,6014.15 L 12561.2,6014.16 L 12563.5,6034.16 Z " />
<path stroke="transparent" fill="#000000" transform="matrix(0.0833333 0 0 0.0833333 -285.583 -229)" d="M 12556.6,5974.05 L 12491.2,5974.04 L 12493.5,5954.04 L 12554.4,5954.05 L 12556.6,5974.05 Z " />
<path stroke="transparent" fill="#000000" transform="matrix(0.0833333 0 0 0.0833333 -285.583 -229)" d="M 12549.8,5913.94 L 12498,5913.93 L 12500.3,5893.93 L 12547.6,5893.94 L 12549.8,5913.94 Z " />
<path stroke="transparent" fill="#000000" transform="matrix(0.0833333 0 0 0.0833333 -285.583 -229)" d="M 12543,5853.83 L 12504.8,5853.82 L 12507.1,5833.83 L 12540.8,5833.83 L 12543,5853.83 Z " />
<path stroke="transparent" fill="#000000" transform="matrix(0.0833333 0 0 0.0833333 -285.583 -229)" d="M 12536.2,5793.72 L 12511.7,5793.72 L 12513.9,5773.72 L 12533.9,5773.72 L 12536.2,5793.72 Z " />
<path stroke="transparent" fill="#000000" transform="matrix(0.0833333 0 0 0.0833333 -285.583 -229)" d="M 13033.6,5413.92 L 13043.6,5419.69 L 13043,5431.56 L 12523.9,5731.17 L 12524,5708.08 L 13033.6,5413.92 Z " />
<path stroke="transparent" fill="#000000" transform="matrix(0.0833333 0 0 0.0833333 -285.583 -229)" d="M 13500.6,5614.33 L 13440.6,5718.24 L 13043,5431.56 L 13043.6,5419.69 L 13053.6,5413.28 L 13500.6,5614.33 Z " />
<path stroke="transparent" fill="#000000" transform="matrix(0.0833333 0 0 0.0833333 -285.583 -229)" d="M 13033.7,4825.45 L 13053.7,4813.91 L 13053.6,5413.28 L 13043.6,5419.69 L 13033.6,5413.92 L 13033.7,4825.45 Z " />
<path stroke="transparent" fill="#000000" transform="matrix(0.0833333 0 0 0.0833333 -285.583 -229)" d="M 13995.4,4757.69 L 13985.4,4775.01 L 13558.3,4528.47 L 13568.3,4511.15 L 13995.4,4757.69 Z " />
<path stroke="transparent" fill="#000000" transform="matrix(0.0833333 0 0 0.0833333 -285.583 -229)" d="M 13486.5,4494.87 L 13546.5,4598.81 L 13528.1,4607.04 L 13470.2,4506.63 L 13486.5,4494.87 Z " />
<path stroke="transparent" fill="#000000" transform="matrix(0.0833333 0 0 0.0833333 -285.583 -229)" d="M 13438.4,4529.54 L 13492.4,4623.09 L 13474.1,4631.33 L 13422.1,4541.3 L 13438.4,4529.54 Z " />
<path stroke="transparent" fill="#000000" transform="matrix(0.0833333 0 0 0.0833333 -285.583 -229)" d="M 13390.3,4564.21 L 13438.3,4647.37 L 13420,4655.61 L 13374,4575.97 L 13390.3,4564.21 Z " />
<path stroke="transparent" fill="#000000" transform="matrix(0.0833333 0 0 0.0833333 -285.583 -229)" d="M 13342.3,4598.88 L 13384.3,4671.66 L 13365.9,4679.89 L 13326,4610.64 L 13342.3,4598.88 Z " />
<path stroke="transparent" fill="#000000" transform="matrix(0.0833333 0 0 0.0833333 -285.583 -229)" d="M 13294.2,4633.55 L 13330.2,4695.94 L 13311.8,4704.18 L 13277.9,4645.31 L 13294.2,4633.55 Z " />
<path stroke="transparent" fill="#000000" transform="matrix(0.0833333 0 0 0.0833333 -285.583 -229)" d="M 13246.1,4668.22 L 13276.1,4720.22 L 13257.8,4728.46 L 13229.8,4679.98 L 13246.1,4668.22 Z " />
<path stroke="transparent" fill="#000000" transform="matrix(0.0833333 0 0 0.0833333 -285.583 -229)" d="M 13198,4702.89 L 13222,4744.51 L 13203.7,4752.74 L 13181.7,4714.65 L 13198,4702.89 Z " />
<path stroke="transparent" fill="#000000" transform="matrix(0.0833333 0 0 0.0833333 -285.583 -229)" d="M 13149.9,4737.56 L 13167.9,4768.79 L 13149.6,4777.03 L 13133.6,4749.32 L 13149.9,4737.56 Z " />
<path stroke="transparent" fill="#000000" transform="matrix(0.0833333 0 0 0.0833333 -285.583 -229)" d="M 13101.8,4772.23 L 13113.9,4793.07 L 13095.5,4801.31 L 13085.5,4783.99 L 13101.8,4772.23 Z " />
<path stroke="transparent" fill="#000000" transform="matrix(0.0833333 0 0 0.0833333 -285.583 -229)" d="M 12619.2,4586.08 L 12629.2,4568.76 L 13053.7,4813.91 L 13033.7,4825.45 L 12619.2,4586.08 Z " />
<path stroke="transparent" fill="#000000" transform="matrix(0.0833333 0 0 0.0833333 -285.583 -229)" d="M 12419.5,4568.49 L 12429.5,4585.82 L 12014.5,4825.37 L 11994.5,4813.82 L 12419.5,4568.49 Z " />
<path stroke="transparent" fill="#000000" transform="matrix(0.0833333 0 0 0.0833333 -285.583 -229)" d="M 11554.9,4629.25 L 11614.9,4525.33 L 11631.1,4537.35 L 11573.4,4637.24 L 11554.9,4629.25 Z " />
<path stroke="transparent" fill="#000000" transform="matrix(0.0833333 0 0 0.0833333 -285.583 -229)" d="M 11609.1,4652.67 L 11662.3,4560.55 L 11678.5,4572.57 L 11627.6,4660.66 L 11609.1,4652.67 Z " />
<path stroke="transparent" fill="#000000" transform="matrix(0.0833333 0 0 0.0833333 -285.583 -229)" d="M 11663.3,4676.1 L 11709.7,4595.78 L 11725.8,4607.79 L 11681.8,4684.09 L 11663.3,4676.1 Z " />
<path stroke="transparent" fill="#000000" transform="matrix(0.0833333 0 0 0.0833333 -285.583 -229)" d="M 11717.5,4699.52 L 11757,4631 L 11773.2,4643.01 L 11735.9,4707.52 L 11717.5,4699.52 Z " />
<path stroke="transparent" fill="#000000" transform="matrix(0.0833333 0 0 0.0833333 -285.583 -229)" d="M 11771.6,4722.95 L 11804.4,4666.22 L 11820.6,4678.24 L 11790.1,4730.94 L 11771.6,4722.95 Z " />
<path stroke="transparent" fill="#000000" transform="matrix(0.0833333 0 0 0.0833333 -285.583 -229)" d="M 11825.8,4746.38 L 11851.8,4701.44 L 11867.9,4713.46 L 11844.3,4754.37 L 11825.8,4746.38 Z " />
<path stroke="transparent" fill="#000000" transform="matrix(0.0833333 0 0 0.0833333 -285.583 -229)" d="M 11880,4769.8 L 11899.1,4736.67 L 11915.3,4748.68 L 11898.5,4777.79 L 11880,4769.8 Z " />
<path stroke="transparent" fill="#000000" transform="matrix(0.0833333 0 0 0.0833333 -285.583 -229)" d="M 11934.2,4793.23 L 11946.5,4771.89 L 11962.7,4783.9 L 11952.7,4801.22 L 11934.2,4793.23 Z " />
<path stroke="transparent" fill="#000000" transform="matrix(0.0833333 0 0 0.0833333 -285.583 -229)" d="M 11380.3,4568.35 L 11390.3,4585.67 L 10917.1,4858.8 L 11017.3,4777.88 L 11380.3,4568.35 Z " />
<path stroke="transparent" fill="#000000" transform="matrix(0.0833333 0 0 0.0833333 -285.583 -229)" d="M 11011.2,5314.3 L 10991.2,5314.3 L 10991.2,4798.67 L 11011.2,4798.67 L 11011.2,5314.3 Z " />
<path stroke="transparent" fill="#000000" transform="matrix(0.0833333 0 0 0.0833333 -285.583 -229)" d="M 10939.2,5314.29 L 10919.2,5314.29 L 10919.2,4798.66 L 10939.2,4798.66 L 10939.2,5314.29 Z " />
<path stroke="transparent" fill="#000000" transform="matrix(0.0833333 0 0 0.0833333 -285.583 -229)" d="M 11017.3,4777.88 L 10917.1,4858.8 L 10455.7,4538.44 L 10445.7,4519.37 L 10467.2,4518.5 L 11017.3,4777.88 Z " />
<path stroke="transparent" fill="#000000" transform="matrix(0.0833333 0 0 0.0833333 -285.583 -229)" d="M 10955.3,4213.72 L 10975.3,4225.27 L 10467.2,4518.5 L 10445.7,4519.37 L 10445.7,4507.83 L 10955.3,4213.72 Z " />
<path stroke="transparent" fill="#000000" transform="matrix(0.0833333 0 0 0.0833333 -285.583 -229)" d="M 10975.3,4225.27 L 10955.3,4213.72 L 10955.4,3625.26 L 10975.4,3613.71 L 10975.3,4225.27 Z " />
<path stroke="transparent" fill="#000000" transform="matrix(0.0833333 0 0 0.0833333 -285.583 -229)" d="M 10975.4,3613.71 L 10955.4,3625.26 L 10445.8,3330.95 L 10445.8,3319.41 L 10459.5,3315.75 L 10975.4,3613.71 Z " />
<path stroke="transparent" fill="#000000" transform="matrix(0.0833333 0 0 0.0833333 -285.583 -229)" d="M 10737.3,2794.83 L 10754.6,2804.84 L 10459.5,3315.75 L 10445.8,3319.41 L 10445.8,3299.41 L 10737.3,2794.83 Z " />
<path stroke="transparent" fill="#000000" transform="matrix(0.0833333 0 0 0.0833333 -285.583 -229)" d="M 10445.8,3299.41 L 10445.8,3319.41 L 10432.2,3315.74 L 10137.2,2804.75 L 10154.6,2794.75 L 10445.8,3299.41 Z " />
<text x="0" y="0" stroke="transparent" fill="#000000" transform="matrix(0.0833333 0 0 0.0833333 231.965 204.067)" style="font:normal normal normal 200px 'Arial'" >
OH</text>
<text x="0" y="0" stroke="transparent" fill="#000000" transform="matrix(0.0833333 0 0 0.0833333 145.365 154.054)" style="font:normal normal normal 200px 'Arial'" >
OH</text>
<text x="0" y="0" stroke="transparent" fill="#000000" transform="matrix(0.0833333 0 0 0.0833333 46.72 204.043)" style="font:normal normal normal 200px 'Arial'" >
HO</text>
<text x="0" y="0" stroke="transparent" fill="#000000" transform="matrix(0.0833333 0 0 0.0833333 3.40363 279.039)" style="font:normal normal normal 200px 'Arial'" >
HO</text>
<text x="0" y="0" stroke="transparent" fill="#000000" transform="matrix(0.0833333 0 0 0.0833333 58.7353 354.046)" style="font:normal normal normal 200px 'Arial'" >
O</text>
<text x="0" y="0" stroke="transparent" fill="#000000" transform="matrix(0.0833333 0 0 0.0833333 145.344 304.057)" style="font:normal normal normal 200px 'Arial'" >
O</text>
<text x="0" y="0" stroke="transparent" fill="#000000" transform="matrix(0.0833333 0 0 0.0833333 231.951 304.069)" style="font:normal normal normal 200px 'Arial'" >
O</text>
<text x="0" y="0" stroke="transparent" fill="#000000" transform="matrix(0.0833333 0 0 0.0833333 652.941 254.129)" style="font:normal normal normal 200px 'Arial'" >
HO</text>
<text x="0" y="0" stroke="transparent" fill="#000000" transform="matrix(0.0833333 0 0 0.0833333 751.572 304.137)" style="font:normal normal normal 200px 'Arial'" >
OH</text>
<text x="0" y="0" stroke="transparent" fill="#000000" transform="matrix(0.0833333 0 0 0.0833333 838.181 254.148)" style="font:normal normal normal 200px 'Arial'" >
OH</text>
<text x="0" y="0" stroke="transparent" fill="#000000" transform="matrix(0.0833333 0 0 0.0833333 881.498 179.152)" style="font:normal normal normal 200px 'Arial'" >
OH</text>
<text x="0" y="0" stroke="transparent" fill="#000000" transform="matrix(0.0833333 0 0 0.0833333 751.593 154.138)" style="font:normal normal normal 200px 'Arial'" >
O</text>
<text x="0" y="0" stroke="transparent" fill="#000000" transform="matrix(0.0833333 0 0 0.0833333 664.991 154.126)" style="font:normal normal normal 200px 'Arial'" >
O</text>
<text x="0" y="0" stroke="transparent" fill="#000000" transform="matrix(0.0833333 0 0 0.0833333 621.68 229.122)" style="font:normal normal normal 200px 'Arial'" >
O</text>
<text x="0" y="0" stroke="transparent" fill="#000000" transform="matrix(0.0833333 0 0 0.0833333 405.417 248.5)" style="font:normal normal normal 200px 'Arial'" >
H</text>
<text x="0" y="0" stroke="transparent" fill="#000000" transform="matrix(0.0833333 0 0 0.0833333 362.357 329.087)" style="font:normal normal normal 200px 'Arial'" >
H</text>
<path stroke="transparent" fill="#000000" transform="matrix(0.0833333 0 0 0.0833333 -285.583 -229)" d="M 7907.29,6516.38 L 7787.29,6516.38 L 7789.54,6496.38 L 7905.03,6496.38 L 7907.29,6516.38 Z " />
<path stroke="transparent" fill="#000000" transform="matrix(0.0833333 0 0 0.0833333 -285.583 -229)" d="M 7900.47,6455.9 L 7794.11,6455.9 L 7796.36,6435.9 L 7898.21,6435.9 L 7900.47,6455.9 Z " />
<path stroke="transparent" fill="#000000" transform="matrix(0.0833333 0 0 0.0833333 -285.583 -229)" d="M 7893.65,6395.43 L 7800.93,6395.43 L 7803.18,6375.43 L 7891.39,6375.43 L 7893.65,6395.43 Z " />
<path stroke="transparent" fill="#000000" transform="matrix(0.0833333 0 0 0.0833333 -285.583 -229)" d="M 7886.83,6334.96 L 7807.75,6334.96 L 7810.01,6314.96 L 7884.57,6314.96 L 7886.83,6334.96 Z " />
<path stroke="transparent" fill="#000000" transform="matrix(0.0833333 0 0 0.0833333 -285.583 -229)" d="M 7880.01,6274.49 L 7814.57,6274.49 L 7816.83,6254.49 L 7877.75,6254.49 L 7880.01,6274.49 Z " />
<path stroke="transparent" fill="#000000" transform="matrix(0.0833333 0 0 0.0833333 -285.583 -229)" d="M 7873.18,6214.02 L 7821.39,6214.02 L 7823.65,6194.02 L 7870.93,6194.02 L 7873.18,6214.02 Z " />
<path stroke="transparent" fill="#000000" transform="matrix(0.0833333 0 0 0.0833333 -285.583 -229)" d="M 7866.36,6153.55 L 7828.21,6153.55 L 7830.47,6133.55 L 7864.11,6133.55 L 7866.36,6153.55 Z " />
<path stroke="transparent" fill="#000000" transform="matrix(0.0833333 0 0 0.0833333 -285.583 -229)" d="M 7859.54,6093.08 L 7835.03,6093.08 L 7837.29,6073.08 L 7857.29,6073.08 L 7859.54,6093.08 Z " />
<path stroke="transparent" fill="#000000" transform="matrix(0.0833333 0 0 0.0833333 -285.583 -229)" d="M 8424.59,5549.68 L 8304.6,5548.99 L 8307.37,5529 L 8422.05,5529.67 L 8424.59,5549.68 Z " />
<path stroke="transparent" fill="#000000" transform="matrix(0.0833333 0 0 0.0833333 -285.583 -229)" d="M 8417.05,5490.27 L 8312.83,5489.67 L 8315.6,5469.68 L 8414.5,5470.25 L 8417.05,5490.27 Z " />
<path stroke="transparent" fill="#000000" transform="matrix(0.0833333 0 0 0.0833333 -285.583 -229)" d="M 8409.5,5430.86 L 8321.06,5430.34 L 8323.84,5410.36 L 8406.96,5410.84 L 8409.5,5430.86 Z " />
<path stroke="transparent" fill="#000000" transform="matrix(0.0833333 0 0 0.0833333 -285.583 -229)" d="M 8401.95,5371.44 L 8329.3,5371.02 L 8332.07,5351.04 L 8399.41,5351.43 L 8401.95,5371.44 Z " />
<path stroke="transparent" fill="#000000" transform="matrix(0.0833333 0 0 0.0833333 -285.583 -229)" d="M 8394.41,5312.03 L 8337.53,5311.7 L 8340.3,5291.71 L 8391.86,5292.01 L 8394.41,5312.03 Z " />
<path stroke="transparent" fill="#000000" transform="matrix(0.0833333 0 0 0.0833333 -285.583 -229)" d="M 8386.86,5252.61 L 8345.76,5252.37 L 8348.54,5232.39 L 8384.32,5232.6 L 8386.86,5252.61 Z " />
<path stroke="transparent" fill="#000000" transform="matrix(0.0833333 0 0 0.0833333 -285.583 -229)" d="M 8379.31,5193.2 L 8354,5193.05 L 8356.77,5173.07 L 8376.77,5173.18 L 8379.31,5193.2 Z " />
<text x="0" y="0" stroke="transparent" fill="#000000" transform="matrix(0.0833333 0 0 0.0833333 492.286 104.113)" style="font:normal normal normal 200px 'Arial'" >
H</text>
<path stroke="transparent" fill="#000000" transform="matrix(0.0833333 0 0 0.0833333 -285.583 -229)" d="M 9486.56,4034.9 L 9546.56,3930.97 L 9916.05,4199.78 L 9926.04,4219.35 L 9904.09,4220.48 L 9486.56,4034.9 Z " />
</svg>
