<?xml version="1.0" standalone="no" ?>
<!DOCTYPE svg PUBLIC "-//W3C//DTD SVG 1.1//EN" "http://www.w3.org/Graphics/SVG/1.1/DTD/svg11.dtd">
<svg width="403px" height="93px" viewBox="0 0 403 93" style="background-color: #ffffff00" xmlns="http://www.w3.org/2000/svg" xmlns:xlink="http://www.w3.org/1999/xlink" version="1.1" >
<text x="0" y="0" stroke="none" fill="#000000" transform="matrix(0.0666667 0 0 0.0666667 344.629 29.4164)" font-style="normal" font-weight="normal" font-size="200px" font-family="Arial" >
O</text>
<text x="0" y="0" stroke="none" fill="#000000" transform="matrix(0.0666667 0 0 0.0666667 379.328 89.6619)" font-style="normal" font-weight="normal" font-size="200px" font-family="Arial" >
OH</text>
<path stroke="none" fill="#000000" transform="matrix(0.0666667 0 0 0.0666667 -147.859 -238)" d="M 3307.47,3918.06 L 3307.47,3941.16 L 2787.78,3641.17 L 2787.78,3618.07 L 3307.47,3918.06 Z " />
<path stroke="none" fill="#000000" transform="matrix(0.0666667 0 0 0.0666667 -147.859 -238)" d="M 3307.47,4518.12 L 3307.47,4541.21 L 2787.78,4841.28 L 2787.78,4818.18 L 3307.47,4518.12 Z " />
<path stroke="none" fill="#000000" transform="matrix(0.0666667 0 0 0.0666667 -147.859 -238)" d="M 2787.78,3618.07 L 2787.78,3641.17 L 2278.16,3935.38 L 2258.16,3923.84 L 2787.78,3618.07 Z " />
<path stroke="none" fill="#000000" transform="matrix(0.0666667 0 0 0.0666667 -147.859 -238)" d="M 2787.78,4818.18 L 2787.78,4841.28 L 2258.16,4535.44 L 2278.16,4523.89 L 2787.78,4818.18 Z " />
<path stroke="none" fill="#000000" transform="matrix(0.0666667 0 0 0.0666667 -147.859 -238)" d="M 2258.16,3923.84 L 2278.16,3935.38 L 2278.16,4523.89 L 2258.16,4535.44 L 2258.16,3923.84 Z " />
<path stroke="none" fill="#000000" transform="matrix(0.0666667 0 0 0.0666667 -147.859 -238)" d="M 3307.47,3941.16 L 3307.47,3918.06 L 3827.09,3618.07 L 3827.09,3641.17 L 3307.47,3941.16 Z " />
<path stroke="none" fill="#000000" transform="matrix(0.0666667 0 0 0.0666667 -147.859 -238)" d="M 3827.09,3641.17 L 3827.09,3618.07 L 4346.72,3918.14 L 4346.71,3941.23 L 3827.09,3641.17 Z " />
<path stroke="none" fill="#000000" transform="matrix(0.0666667 0 0 0.0666667 -147.859 -238)" d="M 3307.47,4541.21 L 3307.47,4518.12 L 3827.09,4818.11 L 3827.09,4841.2 L 3307.47,4541.21 Z " />
<path stroke="none" fill="#000000" transform="matrix(0.0666667 0 0 0.0666667 -147.859 -238)" d="M 3827.09,4841.2 L 3827.09,4818.11 L 4346.72,4518.12 L 4346.71,4541.21 L 3827.09,4841.2 Z " />
<path stroke="none" fill="#000000" transform="matrix(0.0666667 0 0 0.0666667 -147.859 -238)" d="M 4346.71,3941.23 L 4346.72,3918.14 L 4866.34,3618.22 L 4866.34,3641.31 L 4346.71,3941.23 Z " />
<path stroke="none" fill="#000000" transform="matrix(0.0666667 0 0 0.0666667 -147.859 -238)" d="M 4866.34,3641.31 L 4866.34,3618.22 L 5385.96,3918.28 L 5385.96,3941.38 L 4866.34,3641.31 Z " />
<path stroke="none" fill="#000000" transform="matrix(0.0666667 0 0 0.0666667 -147.859 -238)" d="M 4346.71,4541.21 L 4346.72,4518.12 L 4866.27,4818.18 L 4866.26,4841.28 L 4346.71,4541.21 Z " />
<path stroke="none" fill="#000000" transform="matrix(0.0666667 0 0 0.0666667 -147.859 -238)" d="M 4866.26,4841.28 L 4866.27,4818.18 L 5385.89,4518.26 L 5385.88,4541.36 L 4866.26,4841.28 Z " />
<path stroke="none" fill="#000000" transform="matrix(0.0666667 0 0 0.0666667 -147.859 -238)" d="M 5385.96,3941.38 L 5385.96,3918.28 L 5905.51,3618.36 L 5905.5,3641.46 L 5385.96,3941.38 Z " />
<path stroke="none" fill="#000000" transform="matrix(0.0666667 0 0 0.0666667 -147.859 -238)" d="M 5905.5,3641.46 L 5905.51,3618.36 L 6425.06,3918.43 L 6425.05,3941.52 L 5905.5,3641.46 Z " />
<path stroke="none" fill="#000000" transform="matrix(0.0666667 0 0 0.0666667 -147.859 -238)" d="M 5385.88,4541.36 L 5385.89,4518.26 L 5905.36,4818.25 L 5905.36,4841.35 L 5385.88,4541.36 Z " />
<path stroke="none" fill="#000000" transform="matrix(0.0666667 0 0 0.0666667 -147.859 -238)" d="M 5905.36,4841.35 L 5905.36,4818.25 L 6424.98,4518.34 L 6424.98,4541.43 L 5905.36,4841.35 Z " />
<path stroke="none" fill="#000000" transform="matrix(0.0666667 0 0 0.0666667 -147.859 -238)" d="M 6425.05,3941.52 L 6425.06,3918.43 L 6939.6,3621.54 L 6949.6,3638.86 L 6425.05,3941.52 Z " />
<path stroke="none" fill="#000000" transform="matrix(0.0666667 0 0 0.0666667 -147.859 -238)" d="M 6424.98,4541.43 L 6424.98,4518.34 L 6944.39,4818.4 L 6944.38,4841.49 L 6424.98,4541.43 Z " />
<path stroke="none" fill="#000000" transform="matrix(0.0666667 0 0 0.0666667 -147.859 -238)" d="M 6944.38,4841.49 L 6944.39,4818.4 L 7463.98,4518.53 L 7463.89,4541.67 L 6944.38,4841.49 Z " />
<path stroke="none" fill="#000000" transform="matrix(0.0666667 0 0 0.0666667 -147.859 -238)" d="M 7419.23,4052.97 L 7439.23,4053.02 L 7438.07,4550.82 L 7418.07,4550.77 L 7419.23,4052.97 Z " />
<path stroke="none" fill="#000000" transform="matrix(0.0666667 0 0 0.0666667 -147.859 -238)" d="M 7490.85,4053.14 L 7510.85,4053.18 L 7509.69,4551.15 L 7489.69,4551.1 L 7490.85,4053.14 Z " />
<path stroke="none" fill="#000000" transform="matrix(0.0666667 0 0 0.0666667 -147.859 -238)" d="M 7898.67,4774.1 L 7888.53,4791.34 L 7463.89,4541.67 L 7463.98,4518.53 L 7898.67,4774.1 Z " />
</svg>
