<?xml version="1.0" standalone="no" ?>
<!DOCTYPE svg PUBLIC "-//W3C//DTD SVG 1.1//EN" "http://www.w3.org/Graphics/SVG/1.1/DTD/svg11.dtd">
<svg width="230px" height="117px" viewBox="0 0 230 117" style="background-color: #ffffff00" xmlns="http://www.w3.org/2000/svg" xmlns:xlink="http://www.w3.org/1999/xlink" version="1.1" >
<text x="0" y="0" stroke="transparent" fill="#000000" transform="matrix(0.0666667 0 0 0.0666667 171.856 14.0683)" style="font:normal normal normal 200px 'Arial'" >
O</text>
<text x="0" y="0" stroke="transparent" fill="#000000" transform="matrix(0.0666667 0 0 0.0666667 206.499 74.0701)" style="font:normal normal normal 200px 'Arial'" >
OH</text>
<text x="0" y="0" stroke="transparent" fill="#000000" transform="matrix(0.0666667 0 0 0.0666667 34.0581 54.0743)" style="font:normal normal normal 200px 'Arial'" >
S</text>
<text x="0" y="0" stroke="transparent" fill="#000000" transform="matrix(0.0666667 0 0 0.0666667 137.217 114.076)" style="font:normal normal normal 200px 'Arial'" >
OH</text>
<path stroke="transparent" fill="#000000" transform="matrix(0.0666667 0 0 0.0666667 -233.859 -207)" d="M 5654.13,4143.83 L 5644.13,4138.05 L 5644.13,4126.5 L 6163.71,3826.57 L 6163.71,3849.66 L 5654.13,4143.83 Z " />
<path stroke="transparent" fill="#000000" transform="matrix(0.0666667 0 0 0.0666667 -233.859 -207)" d="M 5124.48,3849.66 L 5124.48,3826.57 L 5644.13,4126.5 L 5644.13,4138.05 L 5634.13,4143.83 L 5124.48,3849.66 Z " />
<path stroke="transparent" fill="#000000" transform="matrix(0.0666667 0 0 0.0666667 -233.859 -207)" d="M 4604.83,4149.6 L 4604.83,4126.5 L 5124.48,3826.57 L 5124.48,3849.66 L 4604.83,4149.6 Z " />
<path stroke="transparent" fill="#000000" transform="matrix(0.0666667 0 0 0.0666667 -233.859 -207)" d="M 6117.71,3357.86 L 6137.71,3357.86 L 6137.71,3858.9 L 6117.71,3858.9 L 6117.71,3357.86 Z " />
<path stroke="transparent" fill="#000000" transform="matrix(0.0666667 0 0 0.0666667 -233.859 -207)" d="M 6189.72,3357.86 L 6209.72,3357.86 L 6209.72,3858.9 L 6189.72,3858.9 L 6189.72,3357.86 Z " />
<path stroke="transparent" fill="#000000" transform="matrix(0.0666667 0 0 0.0666667 -233.859 -207)" d="M 6595.74,4075.93 L 6585.74,4093.25 L 6163.71,3849.66 L 6163.71,3826.57 L 6595.74,4075.93 Z " />
<path stroke="transparent" fill="#000000" transform="matrix(0.0666667 0 0 0.0666667 -233.859 -207)" d="M 3570.6,4146.71 L 3560.6,4129.39 L 3982.57,3885.83 L 3992.57,3903.15 L 3570.6,4146.71 Z " />
<path stroke="transparent" fill="#000000" transform="matrix(0.0666667 0 0 0.0666667 -233.859 -207)" d="M 4178.68,3903.59 L 4188.68,3886.27 L 4604.83,4126.5 L 4604.83,4149.6 L 4178.68,3903.59 Z " />
<path stroke="transparent" fill="#000000" transform="matrix(0.0666667 0 0 0.0666667 -233.859 -207)" d="M 5654.13,4632.98 L 5634.13,4632.98 L 5634.13,4143.83 L 5644.13,4138.05 L 5654.13,4143.83 L 5654.13,4632.98 Z " />
</svg>
