<?xml version="1.0" standalone="no" ?>
<!DOCTYPE svg PUBLIC "-//W3C//DTD SVG 1.1//EN" "http://www.w3.org/Graphics/SVG/1.1/DTD/svg11.dtd">
<svg width="383px" height="153px" viewBox="0 0 383 153" style="background-color: #ffffff00" xmlns="http://www.w3.org/2000/svg" xmlns:xlink="http://www.w3.org/1999/xlink" version="1.1" >
<text x="0" y="0" stroke="transparent" fill="#000000" transform="matrix(0.0833333 0 0 0.0833333 283.278 149.336)" style="font:normal normal normal 200px 'Arial'" >
NH</text>
<text x="0" y="0" stroke="transparent" fill="#000000" transform="matrix(0.0833333 0 0 0.0833333 76.3381 149.336)" style="font:normal normal normal 200px 'Arial'" >
HN</text>
<path stroke="transparent" fill="#000000" transform="matrix(0.0833333 0 0 0.0833333 -234.333 -296)" d="M 5114.13,4233.06 L 5114.13,4256.15 L 4603.92,4550.71 L 4594.51,4544.6 L 4593.92,4533.39 L 5114.13,4233.06 Z " />
<path stroke="transparent" fill="#000000" transform="matrix(0.0833333 0 0 0.0833333 -234.333 -296)" d="M 5634.34,4533.39 L 5633.75,4544.6 L 5624.34,4550.71 L 5114.13,4256.15 L 5114.13,4233.06 L 5634.34,4533.39 Z " />
<path stroke="transparent" fill="#000000" transform="matrix(0.0833333 0 0 0.0833333 -234.333 -296)" d="M 3277.67,3616.18 L 3270.54,3594.22 L 3868.72,3721.34 L 3853.27,3738.51 L 3277.67,3616.18 Z " />
<path stroke="transparent" fill="#000000" transform="matrix(0.0833333 0 0 0.0833333 -234.333 -296)" d="M 3297.72,3694.05 L 3301.88,3674.49 L 3807.45,3781.93 L 3803.29,3801.49 L 3297.72,3694.05 Z " />
<path stroke="transparent" fill="#000000" transform="matrix(0.0833333 0 0 0.0833333 -234.333 -296)" d="M 4054.58,4293.21 L 4046.45,4300.53 L 4035.15,4298.13 L 3853.27,3738.51 L 3868.72,3721.34 L 4054.58,4293.21 Z " />
<path stroke="transparent" fill="#000000" transform="matrix(0.0833333 0 0 0.0833333 -234.333 -296)" d="M 2883.96,4053.48 L 2861.37,4048.68 L 3270.54,3594.22 L 3277.67,3616.18 L 2883.96,4053.48 Z " />
<path stroke="transparent" fill="#000000" transform="matrix(0.0833333 0 0 0.0833333 -234.333 -296)" d="M 3065.77,4613.1 L 3050.31,4630.27 L 2861.37,4048.68 L 2883.96,4053.48 L 3065.77,4613.1 Z " />
<path stroke="transparent" fill="#000000" transform="matrix(0.0833333 0 0 0.0833333 -234.333 -296)" d="M 3123.18,4556.81 L 3104.16,4562.99 L 2944.47,4071.46 L 2963.49,4065.28 L 3123.18,4556.81 Z " />
<path stroke="transparent" fill="#000000" transform="matrix(0.0833333 0 0 0.0833333 -234.333 -296)" d="M 3641.36,4735.43 L 3644.93,4746.41 L 3638.5,4755.26 L 3050.31,4630.27 L 3065.77,4613.1 L 3641.36,4735.43 Z " />
<path stroke="transparent" fill="#000000" transform="matrix(0.0833333 0 0 0.0833333 -234.333 -296)" d="M 3882.98,5138.74 L 3865.66,5148.74 L 3638.5,4755.26 L 3644.93,4746.41 L 3657.23,4747.7 L 3882.98,5138.74 Z " />
<path stroke="transparent" fill="#000000" transform="matrix(0.0833333 0 0 0.0833333 -234.333 -296)" d="M 3657.23,4747.7 L 3644.93,4746.41 L 3641.36,4735.43 L 4035.15,4298.13 L 4046.45,4300.53 L 4049.02,4312.62 L 3657.23,4747.7 Z " />
<path stroke="transparent" fill="#000000" transform="matrix(0.0833333 0 0 0.0833333 -234.333 -296)" d="M 3626.67,4674.03 L 3611.81,4660.65 L 3957.69,4276.55 L 3972.55,4289.94 L 3626.67,4674.03 Z " />
<path stroke="transparent" fill="#000000" transform="matrix(0.0833333 0 0 0.0833333 -234.333 -296)" d="M 4049.02,4312.62 L 4046.45,4300.53 L 4054.58,4293.21 L 4593.92,4533.39 L 4594.51,4544.6 L 4583.8,4550.78 L 4049.02,4312.62 Z " />
<path stroke="transparent" fill="#000000" transform="matrix(0.0833333 0 0 0.0833333 -234.333 -296)" d="M 4541,5149.58 L 4522.63,5133.04 L 4583.8,4550.78 L 4594.51,4544.6 L 4603.92,4550.71 L 4541,5149.58 Z " />
<path stroke="transparent" fill="#000000" transform="matrix(0.0833333 0 0 0.0833333 -234.333 -296)" d="M 4475.62,5082.8 L 4455.73,5080.71 L 4507.49,4588.05 L 4527.38,4590.13 L 4475.62,5082.8 Z " />
<path stroke="transparent" fill="#000000" transform="matrix(0.0833333 0 0 0.0833333 -234.333 -296)" d="M 4522.63,5133.04 L 4541,5149.58 L 4051.62,5253.58 L 4047.46,5234.02 L 4522.63,5133.04 Z " />
<path stroke="transparent" fill="#000000" transform="matrix(0.0833333 0 0 0.0833333 -234.333 -296)" d="M 6571.03,4747.7 L 6583.33,4746.41 L 6589.76,4755.26 L 6362.38,5149.12 L 6345.06,5139.12 L 6571.03,4747.7 Z " />
<path stroke="transparent" fill="#000000" transform="matrix(0.0833333 0 0 0.0833333 -234.333 -296)" d="M 5687.26,5149.58 L 5705.63,5133.04 L 6179.96,5233.84 L 6175.81,5253.4 L 5687.26,5149.58 Z " />
<path stroke="transparent" fill="#000000" transform="matrix(0.0833333 0 0 0.0833333 -234.333 -296)" d="M 6589.76,4755.26 L 6583.33,4746.41 L 6586.89,4735.43 L 7162.49,4613.1 L 7177.95,4630.27 L 6589.76,4755.26 Z " />
<path stroke="transparent" fill="#000000" transform="matrix(0.0833333 0 0 0.0833333 -234.333 -296)" d="M 7344.3,4053.48 L 7366.89,4048.68 L 7177.95,4630.27 L 7162.49,4613.1 L 7344.3,4053.48 Z " />
<path stroke="transparent" fill="#000000" transform="matrix(0.0833333 0 0 0.0833333 -234.333 -296)" d="M 7264.77,4065.28 L 7283.79,4071.46 L 7124.1,4562.99 L 7105.08,4556.81 L 7264.77,4065.28 Z " />
<path stroke="transparent" fill="#000000" transform="matrix(0.0833333 0 0 0.0833333 -234.333 -296)" d="M 6950.58,3616.18 L 6957.72,3594.22 L 7366.89,4048.68 L 7344.3,4053.48 L 6950.58,3616.18 Z " />
<path stroke="transparent" fill="#000000" transform="matrix(0.0833333 0 0 0.0833333 -234.333 -296)" d="M 6374.99,3738.51 L 6359.53,3721.34 L 6957.72,3594.22 L 6950.58,3616.18 L 6374.99,3738.51 Z " />
<path stroke="transparent" fill="#000000" transform="matrix(0.0833333 0 0 0.0833333 -234.333 -296)" d="M 6424.96,3801.49 L 6420.81,3781.93 L 6926.38,3674.49 L 6930.54,3694.05 L 6424.96,3801.49 Z " />
<path stroke="transparent" fill="#000000" transform="matrix(0.0833333 0 0 0.0833333 -234.333 -296)" d="M 6193.11,4298.13 L 6181.81,4300.53 L 6173.68,4293.21 L 6359.53,3721.34 L 6374.99,3738.51 L 6193.11,4298.13 Z " />
<path stroke="transparent" fill="#000000" transform="matrix(0.0833333 0 0 0.0833333 -234.333 -296)" d="M 5644.46,4550.78 L 5633.75,4544.6 L 5634.34,4533.39 L 6173.68,4293.21 L 6181.81,4300.53 L 6179.24,4312.62 L 5644.46,4550.78 Z " />
<path stroke="transparent" fill="#000000" transform="matrix(0.0833333 0 0 0.0833333 -234.333 -296)" d="M 6586.89,4735.43 L 6583.33,4746.41 L 6571.03,4747.7 L 6179.24,4312.62 L 6181.81,4300.53 L 6193.11,4298.13 L 6586.89,4735.43 Z " />
<path stroke="transparent" fill="#000000" transform="matrix(0.0833333 0 0 0.0833333 -234.333 -296)" d="M 6616.45,4660.65 L 6601.59,4674.03 L 6255.71,4289.94 L 6270.57,4276.55 L 6616.45,4660.65 Z " />
<path stroke="transparent" fill="#000000" transform="matrix(0.0833333 0 0 0.0833333 -234.333 -296)" d="M 5705.63,5133.04 L 5687.26,5149.58 L 5624.34,4550.71 L 5633.75,4544.6 L 5644.46,4550.78 L 5705.63,5133.04 Z " />
<path stroke="transparent" fill="#000000" transform="matrix(0.0833333 0 0 0.0833333 -234.333 -296)" d="M 5772.53,5080.71 L 5752.64,5082.8 L 5700.88,4590.13 L 5720.77,4588.05 L 5772.53,5080.71 Z " />
</svg>
