<?xml version="1.0" standalone="no" ?>
<!DOCTYPE svg PUBLIC "-//W3C//DTD SVG 1.1//EN" "http://www.w3.org/Graphics/SVG/1.1/DTD/svg11.dtd">
<svg width="440px" height="247px" viewBox="0 0 440 247" style="background-color: #ffffff00" xmlns="http://www.w3.org/2000/svg" xmlns:xlink="http://www.w3.org/1999/xlink" version="1.1" >
<text x="0" y="0" stroke="transparent" fill="#000000" transform="matrix(0.0833333 0 0 0.0833333 342.898 221.616)" style="font:normal normal normal 200px 'Arial'" >
O</text>
<text x="0" y="0" stroke="transparent" fill="#000000" transform="matrix(0.0833333 0 0 0.0833333 386.205 146.613)" style="font:normal normal normal 200px 'Arial'" >
O</text>
<text x="0" y="0" stroke="transparent" fill="#000000" transform="matrix(0.0833333 0 0 0.0833333 3.95835 54.794)" style="font:normal normal normal 200px 'Arial'" >
O</text>
<text x="0" y="0" stroke="transparent" fill="#000000" transform="matrix(0.0833333 0 0 0.0833333 27.0183 140.856)" style="font:normal normal normal 200px 'Arial'" >
O</text>
<path stroke="transparent" fill="#000000" transform="matrix(0.0833333 0 0 0.0833333 -230.208 -254)" d="M 4871.89,5579.13 L 4881.89,5596.45 L 4344.26,5906.85 L 4334.26,5889.53 L 4871.89,5579.13 Z " />
<path stroke="transparent" fill="#000000" transform="matrix(0.0833333 0 0 0.0833333 -230.208 -254)" d="M 4907.89,5641.48 L 4917.89,5658.8 L 4380.27,5969.2 L 4370.27,5951.88 L 4907.89,5641.48 Z " />
<path stroke="transparent" fill="#000000" transform="matrix(0.0833333 0 0 0.0833333 -230.208 -254)" d="M 5396.46,5917.83 L 5396.46,5940.93 L 4866.89,5635.13 L 4886.89,5623.58 L 5396.46,5917.83 Z " />
<path stroke="transparent" fill="#000000" transform="matrix(0.0833333 0 0 0.0833333 -230.208 -254)" d="M 5911.08,5620.71 L 5921.08,5638.03 L 5396.46,5940.93 L 5396.46,5917.83 L 5911.08,5620.71 Z " />
<path stroke="transparent" fill="#000000" transform="matrix(0.0833333 0 0 0.0833333 -230.208 -254)" d="M 5976.09,5575.37 L 5856.09,5575.37 L 5858.12,5555.37 L 5974.05,5555.37 L 5976.09,5575.37 Z " />
<path stroke="transparent" fill="#000000" transform="matrix(0.0833333 0 0 0.0833333 -230.208 -254)" d="M 5970.09,5516.37 L 5862.08,5516.37 L 5864.11,5496.37 L 5968.06,5496.37 L 5970.09,5516.37 Z " />
<path stroke="transparent" fill="#000000" transform="matrix(0.0833333 0 0 0.0833333 -230.208 -254)" d="M 5964.1,5457.37 L 5868.08,5457.37 L 5870.11,5437.37 L 5962.06,5437.37 L 5964.1,5457.37 Z " />
<path stroke="transparent" fill="#000000" transform="matrix(0.0833333 0 0 0.0833333 -230.208 -254)" d="M 5958.1,5398.37 L 5874.08,5398.37 L 5876.11,5378.37 L 5956.07,5378.37 L 5958.1,5398.37 Z " />
<path stroke="transparent" fill="#000000" transform="matrix(0.0833333 0 0 0.0833333 -230.208 -254)" d="M 5952.1,5339.37 L 5880.07,5339.37 L 5882.1,5319.37 L 5950.07,5319.37 L 5952.1,5339.37 Z " />
<path stroke="transparent" fill="#000000" transform="matrix(0.0833333 0 0 0.0833333 -230.208 -254)" d="M 5946.11,5280.37 L 5886.07,5280.37 L 5888.1,5260.37 L 5944.08,5260.37 L 5946.11,5280.37 Z " />
<path stroke="transparent" fill="#000000" transform="matrix(0.0833333 0 0 0.0833333 -230.208 -254)" d="M 5940.11,5221.37 L 5892.07,5221.37 L 5894.1,5201.37 L 5938.08,5201.37 L 5940.11,5221.37 Z " />
<path stroke="transparent" fill="#000000" transform="matrix(0.0833333 0 0 0.0833333 -230.208 -254)" d="M 5934.12,5162.37 L 5898.06,5162.37 L 5900.09,5142.37 L 5932.09,5142.37 L 5934.12,5162.37 Z " />
<path stroke="transparent" fill="#000000" transform="matrix(0.0833333 0 0 0.0833333 -230.208 -254)" d="M 5928.12,5103.37 L 5904.06,5103.37 L 5906.09,5083.37 L 5926.09,5083.37 L 5928.12,5103.37 Z " />
<path stroke="transparent" fill="#000000" transform="matrix(0.0833333 0 0 0.0833333 -230.208 -254)" d="M 5916.09,5040.92 L 5916.09,5017.83 L 6425.72,4723.59 L 6435.72,4729.37 L 6435.72,4740.91 L 5916.09,5040.92 Z " />
<path stroke="transparent" fill="#000000" transform="matrix(0.0833333 0 0 0.0833333 -230.208 -254)" d="M 6925.35,4377.4 L 6985.35,4481.32 L 6457.23,4730.24 L 6435.72,4729.37 L 6445.72,4710.3 L 6925.35,4377.4 Z " />
<path stroke="transparent" fill="#000000" transform="matrix(0.0833333 0 0 0.0833333 -230.208 -254)" d="M 6955.29,5017.84 L 6955.29,5040.94 L 6435.72,4740.91 L 6435.72,4729.37 L 6457.23,4730.24 L 6955.29,5017.84 Z " />
<path stroke="transparent" fill="#000000" transform="matrix(0.0833333 0 0 0.0833333 -230.208 -254)" d="M 7001.28,5524.22 L 6981.28,5524.22 L 6981.29,5008.61 L 7001.29,5008.61 L 7001.28,5524.22 Z " />
<path stroke="transparent" fill="#000000" transform="matrix(0.0833333 0 0 0.0833333 -230.208 -254)" d="M 6929.28,5524.22 L 6909.28,5524.22 L 6909.29,5008.6 L 6929.29,5008.6 L 6929.28,5524.22 Z " />
<path stroke="transparent" fill="#000000" transform="matrix(0.0833333 0 0 0.0833333 -230.208 -254)" d="M 7370.36,4778.2 L 7380.36,4795.52 L 6955.29,5040.94 L 6955.29,5017.84 L 7370.36,4778.2 Z " />
<path stroke="transparent" fill="#000000" transform="matrix(0.0833333 0 0 0.0833333 -230.208 -254)" d="M 6425.7,4135.09 L 6445.7,4123.54 L 6445.72,4710.3 L 6435.72,4729.37 L 6425.72,4723.59 L 6425.7,4135.09 Z " />
<path stroke="transparent" fill="#000000" transform="matrix(0.0833333 0 0 0.0833333 -230.208 -254)" d="M 5916.08,3840.87 L 5916.08,3817.78 L 6445.7,4123.54 L 6425.7,4135.09 L 5916.08,3840.87 Z " />
<path stroke="transparent" fill="#000000" transform="matrix(0.0833333 0 0 0.0833333 -230.208 -254)" d="M 5406.45,4135.1 L 5386.45,4123.56 L 5916.08,3817.78 L 5916.08,3840.87 L 5406.45,4135.1 Z " />
<path stroke="transparent" fill="#000000" transform="matrix(0.0833333 0 0 0.0833333 -230.208 -254)" d="M 5386.45,4123.56 L 5406.45,4135.1 L 5406.44,4723.56 L 5396.44,4729.33 L 5386.44,4723.56 L 5386.45,4123.56 Z " />
<path stroke="transparent" fill="#000000" transform="matrix(0.0833333 0 0 0.0833333 -230.208 -254)" d="M 5396.44,4740.88 L 5396.44,4729.33 L 5406.44,4723.56 L 5916.09,5017.83 L 5916.09,5040.92 L 5396.44,4740.88 Z " />
<path stroke="transparent" fill="#000000" transform="matrix(0.0833333 0 0 0.0833333 -230.208 -254)" d="M 4846.78,4481.33 L 4906.77,4377.4 L 4923.17,4388.99 L 4865.01,4489.74 L 4846.78,4481.33 Z " />
<path stroke="transparent" fill="#000000" transform="matrix(0.0833333 0 0 0.0833333 -230.208 -254)" d="M 4900.07,4505.91 L 4954.71,4411.25 L 4971.12,4422.84 L 4918.31,4514.33 L 4900.07,4505.91 Z " />
<path stroke="transparent" fill="#000000" transform="matrix(0.0833333 0 0 0.0833333 -230.208 -254)" d="M 4953.37,4530.5 L 5002.66,4445.11 L 5019.06,4456.69 L 4971.61,4538.91 L 4953.37,4530.5 Z " />
<path stroke="transparent" fill="#000000" transform="matrix(0.0833333 0 0 0.0833333 -230.208 -254)" d="M 5006.66,4555.08 L 5050.6,4478.96 L 5067.01,4490.55 L 5024.9,4563.49 L 5006.66,4555.08 Z " />
<path stroke="transparent" fill="#000000" transform="matrix(0.0833333 0 0 0.0833333 -230.208 -254)" d="M 5059.96,4579.66 L 5098.54,4512.82 L 5114.95,4524.4 L 5078.2,4588.08 L 5059.96,4579.66 Z " />
<path stroke="transparent" fill="#000000" transform="matrix(0.0833333 0 0 0.0833333 -230.208 -254)" d="M 5113.25,4604.25 L 5146.49,4546.67 L 5162.89,4558.26 L 5131.49,4612.66 L 5113.25,4604.25 Z " />
<path stroke="transparent" fill="#000000" transform="matrix(0.0833333 0 0 0.0833333 -230.208 -254)" d="M 5166.55,4628.83 L 5194.43,4580.52 L 5210.84,4592.11 L 5184.79,4637.24 L 5166.55,4628.83 Z " />
<path stroke="transparent" fill="#000000" transform="matrix(0.0833333 0 0 0.0833333 -230.208 -254)" d="M 5219.85,4653.41 L 5242.38,4614.38 L 5258.78,4625.96 L 5238.08,4661.83 L 5219.85,4653.41 Z " />
<path stroke="transparent" fill="#000000" transform="matrix(0.0833333 0 0 0.0833333 -230.208 -254)" d="M 5273.14,4678 L 5290.32,4648.23 L 5306.73,4659.82 L 5291.38,4686.41 L 5273.14,4678 Z " />
<path stroke="transparent" fill="#000000" transform="matrix(0.0833333 0 0 0.0833333 -230.208 -254)" d="M 5326.44,4702.58 L 5338.27,4682.09 L 5354.67,4693.67 L 5344.67,4710.99 L 5326.44,4702.58 Z " />
<path stroke="transparent" fill="#000000" transform="matrix(0.0833333 0 0 0.0833333 -230.208 -254)" d="M 5386.44,4723.56 L 5396.44,4729.33 L 5396.44,4740.88 L 4886.82,5035.11 L 4866.82,5023.56 L 5386.44,4723.56 Z " />
<path stroke="transparent" fill="#000000" transform="matrix(0.0833333 0 0 0.0833333 -230.208 -254)" d="M 4866.82,5023.56 L 4886.82,5035.11 L 4886.89,5623.58 L 4866.89,5635.13 L 4866.82,5023.56 Z " />
<path stroke="transparent" fill="#000000" transform="matrix(0.0833333 0 0 0.0833333 -230.208 -254)" d="M 4373.96,4808.3 L 4433.96,4704.38 L 4450.27,4716.14 L 4392.3,4816.54 L 4373.96,4808.3 Z " />
<path stroke="transparent" fill="#000000" transform="matrix(0.0833333 0 0 0.0833333 -230.208 -254)" d="M 4428.06,4832.61 L 4482.06,4739.07 L 4498.37,4750.83 L 4446.39,4840.85 L 4428.06,4832.61 Z " />
<path stroke="transparent" fill="#000000" transform="matrix(0.0833333 0 0 0.0833333 -230.208 -254)" d="M 4482.15,4856.92 L 4530.16,4773.76 L 4546.46,4785.52 L 4500.49,4865.16 L 4482.15,4856.92 Z " />
<path stroke="transparent" fill="#000000" transform="matrix(0.0833333 0 0 0.0833333 -230.208 -254)" d="M 4536.25,4881.22 L 4578.26,4808.46 L 4594.56,4820.22 L 4554.58,4889.46 L 4536.25,4881.22 Z " />
<path stroke="transparent" fill="#000000" transform="matrix(0.0833333 0 0 0.0833333 -230.208 -254)" d="M 4590.34,4905.53 L 4626.35,4843.15 L 4642.66,4854.91 L 4608.68,4913.77 L 4590.34,4905.53 Z " />
<path stroke="transparent" fill="#000000" transform="matrix(0.0833333 0 0 0.0833333 -230.208 -254)" d="M 4644.43,4929.84 L 4674.45,4877.84 L 4690.76,4889.6 L 4662.77,4938.08 L 4644.43,4929.84 Z " />
<path stroke="transparent" fill="#000000" transform="matrix(0.0833333 0 0 0.0833333 -230.208 -254)" d="M 4698.53,4954.14 L 4722.55,4912.53 L 4738.85,4924.29 L 4716.86,4962.38 L 4698.53,4954.14 Z " />
<path stroke="transparent" fill="#000000" transform="matrix(0.0833333 0 0 0.0833333 -230.208 -254)" d="M 4752.62,4978.45 L 4770.65,4947.22 L 4786.95,4958.98 L 4770.96,4986.69 L 4752.62,4978.45 Z " />
<path stroke="transparent" fill="#000000" transform="matrix(0.0833333 0 0 0.0833333 -230.208 -254)" d="M 4806.71,5002.76 L 4818.75,4981.92 L 4835.05,4993.68 L 4825.05,5011 L 4806.71,5002.76 Z " />
<path stroke="transparent" fill="#000000" transform="matrix(0.0833333 0 0 0.0833333 -230.208 -254)" d="M 4347.21,4135.12 L 4367.21,4123.57 L 4367.2,4729.34 L 4347.2,4729.34 L 4347.21,4135.12 Z " />
<path stroke="transparent" fill="#000000" transform="matrix(0.0833333 0 0 0.0833333 -230.208 -254)" d="M 3837,3840.56 L 3837.59,3829.35 L 3847,3823.24 L 4367.21,4123.57 L 4347.21,4135.12 L 3837,3840.56 Z " />
<path stroke="transparent" fill="#000000" transform="matrix(0.0833333 0 0 0.0833333 -230.208 -254)" d="M 3765.73,3240.9 L 3784.1,3224.36 L 3847,3823.24 L 3837.59,3829.35 L 3826.88,3823.17 L 3765.73,3240.9 Z " />
<path stroke="transparent" fill="#000000" transform="matrix(0.0833333 0 0 0.0833333 -230.208 -254)" d="M 3698.83,3293.22 L 3718.72,3291.14 L 3770.46,3783.81 L 3750.57,3785.89 L 3698.83,3293.22 Z " />
<path stroke="transparent" fill="#000000" transform="matrix(0.0833333 0 0 0.0833333 -230.208 -254)" d="M 3193.02,3119.2 L 3182.97,3096.62 L 3784.1,3224.36 L 3765.73,3240.9 L 3193.02,3119.2 Z " />
<path stroke="transparent" fill="#000000" transform="matrix(0.0833333 0 0 0.0833333 -230.208 -254)" d="M 2949.91,3540.29 L 2932.59,3530.29 L 3182.97,3096.62 L 3193.02,3119.2 L 2949.91,3540.29 Z " />
<path stroke="transparent" fill="#000000" transform="matrix(0.0833333 0 0 0.0833333 -230.208 -254)" d="M 3292.04,4061.31 L 3286.9,4085.49 L 2960.57,3723.07 L 2975.43,3709.68 L 3292.04,4061.31 Z " />
<path stroke="transparent" fill="#000000" transform="matrix(0.0833333 0 0 0.0833333 -230.208 -254)" d="M 3286.9,4085.49 L 3292.04,4061.31 L 3826.88,3823.17 L 3837.59,3829.35 L 3837,3840.56 L 3286.9,4085.49 Z " />
<path stroke="transparent" fill="#000000" transform="matrix(0.0833333 0 0 0.0833333 -230.208 -254)" d="M 3231.7,4566.41 L 3212.14,4562.25 L 3320.34,4053.22 L 3339.9,4057.38 L 3231.7,4566.41 Z " />
<path stroke="transparent" fill="#000000" transform="matrix(0.0833333 0 0 0.0833333 -230.208 -254)" d="M 3161.27,4551.44 L 3141.71,4547.28 L 3249.91,4038.26 L 3269.47,4042.42 L 3161.27,4551.44 Z " />
<path stroke="transparent" fill="#000000" transform="matrix(0.0833333 0 0 0.0833333 -230.208 -254)" d="M 7999.58,5020.7 L 7989.58,5038.02 L 7570,4795.77 L 7580,4778.45 L 7999.58,5020.7 Z " />
</svg>
