<?xml version="1.0" standalone="no" ?>
<!DOCTYPE svg PUBLIC "-//W3C//DTD SVG 1.1//EN" "http://www.w3.org/Graphics/SVG/1.1/DTD/svg11.dtd">
<svg width="500px" height="328px" viewBox="0 0 500 328" style="background-color: #ffffff00" xmlns="http://www.w3.org/2000/svg" xmlns:xlink="http://www.w3.org/1999/xlink" version="1.1" >
<text x="0" y="0" stroke="transparent" fill="#000000" transform="matrix(0.0666667 0 0 0.0666667 407.47 28.623)" style="font:normal normal normal 200px 'Arial'" >
O</text>
<text x="0" y="0" stroke="transparent" fill="#000000" transform="matrix(0.0666667 0 0 0.0666667 268.903 188.622)" style="font:normal normal normal 200px 'Arial'" >
O</text>
<text x="0" y="0" stroke="transparent" fill="#000000" transform="matrix(0.0666667 0 0 0.0666667 234.262 128.621)" style="font:normal normal normal 200px 'Arial'" >
O</text>
<text x="0" y="0" stroke="transparent" fill="#000000" transform="matrix(0.0666667 0 0 0.0666667 145.135 93.2284)" style="font:normal normal normal 200px 'Arial'" >
HO</text>
<text x="0" y="0" stroke="transparent" fill="#000000" transform="matrix(0.0666667 0 0 0.0666667 70.6335 121.357)" style="font:normal normal normal 200px 'Arial'" >
HO</text>
<text x="0" y="0" stroke="transparent" fill="#000000" transform="matrix(0.0666667 0 0 0.0666667 156.316 196.719)" style="font:normal normal normal 200px 'Arial'" >
O</text>
<text x="0" y="0" stroke="transparent" fill="#000000" transform="matrix(0.0666667 0 0 0.0666667 207.22 254.296)" style="font:normal normal normal 200px 'Arial'" >
HO</text>
<text x="0" y="0" stroke="transparent" fill="#000000" transform="matrix(0.0666667 0 0 0.0666667 185.089 227.039)" style="font:normal normal normal 200px 'Arial'" >
O</text>
<text x="0" y="0" stroke="transparent" fill="#000000" transform="matrix(0.0666667 0 0 0.0666667 118.167 209.107)" style="font:normal normal normal 200px 'Arial'" >
O</text>
<text x="0" y="0" stroke="transparent" fill="#000000" transform="matrix(0.0666667 0 0 0.0666667 2.97605 201.527)" style="font:normal normal normal 200px 'Arial'" >
HO</text>
<text x="0" y="0" stroke="transparent" fill="#000000" transform="matrix(0.0666667 0 0 0.0666667 20.9084 268.452)" style="font:normal normal normal 200px 'Arial'" >
HO</text>
<text x="0" y="0" stroke="transparent" fill="#000000" transform="matrix(0.0666667 0 0 0.0666667 77.4777 325.021)" style="font:normal normal normal 200px 'Arial'" >
HO</text>
<text x="0" y="0" stroke="transparent" fill="#000000" transform="matrix(0.0666667 0 0 0.0666667 164.384 304.313)" style="font:normal normal normal 200px 'Arial'" >
OH</text>
<text x="0" y="0" stroke="transparent" fill="#000000" transform="matrix(0.0666667 0 0 0.0666667 476.755 68.6239)" style="font:normal normal normal 200px 'Arial'" >
OH</text>
<path stroke="transparent" fill="#000000" transform="matrix(0.0666667 0 0 0.0666667 -98.92 -181)" d="M 7771.46,3021.53 L 7761.46,3004.21 L 8188.45,2757.68 L 8198.45,2775 L 7771.46,3021.53 Z " />
<path stroke="transparent" fill="#000000" transform="matrix(0.0666667 0 0 0.0666667 -98.92 -181)" d="M 7683.84,3660.58 L 7673.84,3666.36 L 7663.84,3660.58 L 7663.84,3186.18 L 7683.84,3186.18 L 7683.84,3660.58 Z " />
<path stroke="transparent" fill="#000000" transform="matrix(0.0666667 0 0 0.0666667 -98.92 -181)" d="M 7164.23,3972.08 L 7144.23,3960.53 L 7663.84,3660.58 L 7673.84,3666.36 L 7673.84,3677.9 L 7164.23,3972.08 Z " />
<path stroke="transparent" fill="#000000" transform="matrix(0.0666667 0 0 0.0666667 -98.92 -181)" d="M 7231.23,4016.54 L 7221.23,3999.21 L 7668.84,3740.83 L 7678.84,3758.15 L 7231.23,4016.54 Z " />
<path stroke="transparent" fill="#000000" transform="matrix(0.0666667 0 0 0.0666667 -98.92 -181)" d="M 7164.23,4560.54 L 7154.23,4566.32 L 7144.23,4560.54 L 7144.23,3960.53 L 7164.23,3972.08 L 7164.23,4560.54 Z " />
<path stroke="transparent" fill="#000000" transform="matrix(0.0666667 0 0 0.0666667 -98.92 -181)" d="M 6634.62,4877.87 L 6634.62,4854.78 L 7144.23,4560.54 L 7154.23,4566.32 L 7154.23,4577.86 L 6634.62,4877.87 Z " />
<path stroke="transparent" fill="#000000" transform="matrix(0.0666667 0 0 0.0666667 -98.92 -181)" d="M 6114.95,4577.86 L 6114.95,4554.77 L 6634.62,4854.78 L 6634.62,4877.87 L 6114.95,4577.86 Z " />
<path stroke="transparent" fill="#000000" transform="matrix(0.0666667 0 0 0.0666667 -98.92 -181)" d="M 6109.95,4658.12 L 6119.95,4640.8 L 6603.62,4920.02 L 6593.62,4937.35 L 6109.95,4658.12 Z " />
<path stroke="transparent" fill="#000000" transform="matrix(0.0666667 0 0 0.0666667 -98.92 -181)" d="M 5595.34,4877.87 L 5595.34,4854.78 L 6114.95,4554.77 L 6114.95,4577.86 L 5595.34,4877.87 Z " />
<path stroke="transparent" fill="#000000" transform="matrix(0.0666667 0 0 0.0666667 -98.92 -181)" d="M 5641.34,5361.17 L 5621.34,5361.17 L 5621.34,4845.54 L 5641.34,4845.54 L 5641.34,5361.17 Z " />
<path stroke="transparent" fill="#000000" transform="matrix(0.0666667 0 0 0.0666667 -98.92 -181)" d="M 5569.34,5361.17 L 5549.34,5361.17 L 5549.34,4845.54 L 5569.34,4845.54 L 5569.34,5361.17 Z " />
<path stroke="transparent" fill="#000000" transform="matrix(0.0666667 0 0 0.0666667 -98.92 -181)" d="M 5170.76,4632.74 L 5180.76,4615.41 L 5595.34,4854.78 L 5595.34,4877.87 L 5170.76,4632.74 Z " />
<path stroke="transparent" fill="#000000" transform="matrix(0.0666667 0 0 0.0666667 -98.92 -181)" d="M 4946.12,4571.86 L 5006.12,4675.79 L 4987.64,4683.78 L 4929.96,4583.87 L 4946.12,4571.86 Z " />
<path stroke="transparent" fill="#000000" transform="matrix(0.0666667 0 0 0.0666667 -98.92 -181)" d="M 4898.7,4607.11 L 4951.89,4699.24 L 4933.41,4707.23 L 4882.54,4619.12 L 4898.7,4607.11 Z " />
<path stroke="transparent" fill="#000000" transform="matrix(0.0666667 0 0 0.0666667 -98.92 -181)" d="M 4851.27,4642.36 L 4897.65,4722.69 L 4879.17,4730.68 L 4835.11,4654.37 L 4851.27,4642.36 Z " />
<path stroke="transparent" fill="#000000" transform="matrix(0.0666667 0 0 0.0666667 -98.92 -181)" d="M 4803.84,4677.61 L 4843.41,4746.14 L 4824.93,4754.13 L 4787.68,4689.62 L 4803.84,4677.61 Z " />
<path stroke="transparent" fill="#000000" transform="matrix(0.0666667 0 0 0.0666667 -98.92 -181)" d="M 4756.42,4712.86 L 4789.17,4769.59 L 4770.69,4777.58 L 4740.26,4724.87 L 4756.42,4712.86 Z " />
<path stroke="transparent" fill="#000000" transform="matrix(0.0666667 0 0 0.0666667 -98.92 -181)" d="M 4708.99,4748.1 L 4734.93,4793.04 L 4716.45,4801.03 L 4692.83,4760.11 L 4708.99,4748.1 Z " />
<path stroke="transparent" fill="#000000" transform="matrix(0.0666667 0 0 0.0666667 -98.92 -181)" d="M 4661.56,4783.35 L 4680.69,4816.49 L 4662.21,4824.48 L 4645.4,4795.36 L 4661.56,4783.35 Z " />
<path stroke="transparent" fill="#000000" transform="matrix(0.0666667 0 0 0.0666667 -98.92 -181)" d="M 4614.14,4818.6 L 4626.46,4839.94 L 4607.98,4847.93 L 4597.98,4830.61 L 4614.14,4818.6 Z " />
<path stroke="transparent" fill="#000000" transform="matrix(0.0666667 0 0 0.0666667 -98.92 -181)" d="M 4566.82,4860.14 L 4545.41,4872.5 L 4010.57,4634.33 L 4008,4622.24 L 4017.28,4615.43 L 4566.82,4860.14 Z " />
<path stroke="transparent" fill="#000000" transform="matrix(0.0666667 0 0 0.0666667 -98.92 -181)" d="M 3849.97,4167.39 L 3967.35,4142.44 L 4017.28,4615.43 L 4008,4622.24 L 3996.75,4619.79 L 3849.97,4167.39 Z " />
<path stroke="transparent" fill="#000000" transform="matrix(0.0666667 0 0 0.0666667 -98.92 -181)" d="M 3996.75,4619.79 L 4008,4622.24 L 4010.57,4634.33 L 3618.83,5069.46 L 3594.24,5066.88 L 3996.75,4619.79 Z " />
<path stroke="transparent" fill="#000000" transform="matrix(0.0666667 0 0 0.0666667 -98.92 -181)" d="M 3057.25,5070.73 L 3069.8,4951.38 L 3089.48,4955.5 L 3077.35,5070.8 L 3057.25,5070.73 Z " />
<path stroke="transparent" fill="#000000" transform="matrix(0.0666667 0 0 0.0666667 -98.92 -181)" d="M 3116.55,5070.93 L 3127.85,4963.52 L 3147.53,4967.63 L 3136.66,5071.01 L 3116.55,5070.93 Z " />
<path stroke="transparent" fill="#000000" transform="matrix(0.0666667 0 0 0.0666667 -98.92 -181)" d="M 3175.86,5071.14 L 3185.9,4975.65 L 3205.58,4979.77 L 3195.96,5071.21 L 3175.86,5071.14 Z " />
<path stroke="transparent" fill="#000000" transform="matrix(0.0666667 0 0 0.0666667 -98.92 -181)" d="M 3235.16,5071.35 L 3243.95,4987.79 L 3263.63,4991.9 L 3255.26,5071.42 L 3235.16,5071.35 Z " />
<path stroke="transparent" fill="#000000" transform="matrix(0.0666667 0 0 0.0666667 -98.92 -181)" d="M 3294.47,5071.56 L 3302,4999.92 L 3321.68,5004.04 L 3314.57,5071.63 L 3294.47,5071.56 Z " />
<path stroke="transparent" fill="#000000" transform="matrix(0.0666667 0 0 0.0666667 -98.92 -181)" d="M 3353.77,5071.77 L 3360.05,5012.06 L 3379.73,5016.17 L 3373.87,5071.84 L 3353.77,5071.77 Z " />
<path stroke="transparent" fill="#000000" transform="matrix(0.0666667 0 0 0.0666667 -98.92 -181)" d="M 3413.07,5071.98 L 3418.1,5024.19 L 3437.78,5028.31 L 3433.18,5072.05 L 3413.07,5071.98 Z " />
<path stroke="transparent" fill="#000000" transform="matrix(0.0666667 0 0 0.0666667 -98.92 -181)" d="M 3472.38,5072.19 L 3476.15,5036.33 L 3495.83,5040.44 L 3492.48,5072.26 L 3472.38,5072.19 Z " />
<path stroke="transparent" fill="#000000" transform="matrix(0.0666667 0 0 0.0666667 -98.92 -181)" d="M 3531.68,5072.39 L 3534.2,5048.46 L 3553.88,5052.57 L 3551.78,5072.47 L 3531.68,5072.39 Z " />
<path stroke="transparent" fill="#000000" transform="matrix(0.0666667 0 0 0.0666667 -98.92 -181)" d="M 2806.04,4572.42 L 2824.31,4564.29 L 3018.96,5001.34 L 3000.69,5009.48 L 2806.04,4572.42 Z " />
<path stroke="transparent" fill="#000000" transform="matrix(0.0666667 0 0 0.0666667 -98.92 -181)" d="M 3861.95,5490.54 L 3844.63,5500.54 L 3594.24,5066.88 L 3618.83,5069.46 L 3861.95,5490.54 Z " />
<path stroke="transparent" fill="#000000" transform="matrix(0.0666667 0 0 0.0666667 -98.92 -181)" d="M 4013.57,5575.25 L 4009.41,5555.69 L 4484.23,5454.77 L 4493.41,5463.04 L 4490.51,5473.88 L 4013.57,5575.25 Z " />
<path stroke="transparent" fill="#000000" transform="matrix(0.0666667 0 0 0.0666667 -98.92 -181)" d="M 4503.89,5459.01 L 4493.41,5463.04 L 4484.23,5454.77 L 4545.41,4872.5 L 4566.82,4860.14 L 4503.89,5459.01 Z " />
<path stroke="transparent" fill="#000000" transform="matrix(0.0666667 0 0 0.0666667 -98.92 -181)" d="M 4950.27,5860.94 L 4928.3,5868.07 L 4490.51,5473.88 L 4493.41,5463.04 L 4503.89,5459.01 L 4950.27,5860.94 Z " />
<path stroke="transparent" fill="#000000" transform="matrix(0.0666667 0 0 0.0666667 -98.92 -181)" d="M 4846.29,6350.18 L 4826.72,6346.02 L 4928.3,5868.07 L 4950.27,5860.94 L 4846.29,6350.18 Z " />
<path stroke="transparent" fill="#000000" transform="matrix(0.0666667 0 0 0.0666667 -98.92 -181)" d="M 4423.5,5955.8 L 4307.59,5924.74 L 4314.96,5906.01 L 4426.48,5935.89 L 4423.5,5955.8 Z " />
<path stroke="transparent" fill="#000000" transform="matrix(0.0666667 0 0 0.0666667 -98.92 -181)" d="M 4432.45,5896.07 L 4329.71,5868.54 L 4337.08,5849.81 L 4435.43,5876.16 L 4432.45,5896.07 Z " />
<path stroke="transparent" fill="#000000" transform="matrix(0.0666667 0 0 0.0666667 -98.92 -181)" d="M 4441.39,5836.34 L 4351.82,5812.34 L 4359.19,5793.61 L 4444.37,5816.43 L 4441.39,5836.34 Z " />
<path stroke="transparent" fill="#000000" transform="matrix(0.0666667 0 0 0.0666667 -98.92 -181)" d="M 4450.34,5776.61 L 4373.94,5756.14 L 4381.31,5737.41 L 4453.32,5756.7 L 4450.34,5776.61 Z " />
<path stroke="transparent" fill="#000000" transform="matrix(0.0666667 0 0 0.0666667 -98.92 -181)" d="M 4459.28,5716.88 L 4396.06,5699.94 L 4403.43,5681.21 L 4462.26,5696.98 L 4459.28,5716.88 Z " />
<path stroke="transparent" fill="#000000" transform="matrix(0.0666667 0 0 0.0666667 -98.92 -181)" d="M 4468.23,5657.15 L 4418.17,5643.74 L 4425.54,5625.01 L 4471.21,5637.25 L 4468.23,5657.15 Z " />
<path stroke="transparent" fill="#000000" transform="matrix(0.0666667 0 0 0.0666667 -98.92 -181)" d="M 4477.17,5597.43 L 4440.29,5587.55 L 4447.66,5568.81 L 4480.15,5577.52 L 4477.17,5597.43 Z " />
<path stroke="transparent" fill="#000000" transform="matrix(0.0666667 0 0 0.0666667 -98.92 -181)" d="M 4486.11,5537.7 L 4462.41,5531.35 L 4469.78,5512.62 L 4489.1,5517.79 L 4486.11,5537.7 Z " />
<path stroke="transparent" fill="#000000" transform="matrix(0.0666667 0 0 0.0666667 -98.92 -181)" d="M 4215.11,6013.43 L 4246.17,6129.35 L 4226.25,6132.3 L 4196.39,6020.83 L 4215.11,6013.43 Z " />
<path stroke="transparent" fill="#000000" transform="matrix(0.0666667 0 0 0.0666667 -98.92 -181)" d="M 4159.66,6035.35 L 4187.19,6138.09 L 4167.27,6141.05 L 4140.94,6042.75 L 4159.66,6035.35 Z " />
<path stroke="transparent" fill="#000000" transform="matrix(0.0666667 0 0 0.0666667 -98.92 -181)" d="M 4104.21,6057.26 L 4128.21,6146.84 L 4108.3,6149.8 L 4085.48,6064.66 L 4104.21,6057.26 Z " />
<path stroke="transparent" fill="#000000" transform="matrix(0.0666667 0 0 0.0666667 -98.92 -181)" d="M 4048.76,6079.17 L 4069.23,6155.59 L 4049.32,6158.54 L 4030.03,6086.57 L 4048.76,6079.17 Z " />
<path stroke="transparent" fill="#000000" transform="matrix(0.0666667 0 0 0.0666667 -98.92 -181)" d="M 3993.3,6101.08 L 4010.25,6164.34 L 3990.34,6167.29 L 3974.58,6108.48 L 3993.3,6101.08 Z " />
<path stroke="transparent" fill="#000000" transform="matrix(0.0666667 0 0 0.0666667 -98.92 -181)" d="M 3937.85,6123 L 3951.27,6173.09 L 3931.36,6176.04 L 3919.13,6130.39 L 3937.85,6123 Z " />
<path stroke="transparent" fill="#000000" transform="matrix(0.0666667 0 0 0.0666667 -98.92 -181)" d="M 3882.4,6144.91 L 3892.29,6181.83 L 3872.38,6184.79 L 3863.68,6152.31 L 3882.4,6144.91 Z " />
<path stroke="transparent" fill="#000000" transform="matrix(0.0666667 0 0 0.0666667 -98.92 -181)" d="M 3826.95,6166.82 L 3833.32,6190.58 L 3813.4,6193.54 L 3808.23,6174.22 L 3826.95,6166.82 Z " />
<path stroke="transparent" fill="#000000" transform="matrix(0.0666667 0 0 0.0666667 -98.92 -181)" d="M 3411.44,5864.88 L 3425.58,5850.73 L 3769.73,6194.88 L 3747.42,6200.86 L 3411.44,5864.88 Z " />
<path stroke="transparent" fill="#000000" transform="matrix(0.0666667 0 0 0.0666667 -98.92 -181)" d="M 3224.23,5792.74 L 3229.4,5812.06 L 2762.86,5937.05 L 2754.7,5928.89 L 2758.2,5917.6 L 3224.23,5792.74 Z " />
<path stroke="transparent" fill="#000000" transform="matrix(0.0666667 0 0 0.0666667 -98.92 -181)" d="M 2269.41,5531.32 L 2387.14,5479.07 L 2758.2,5917.6 L 2754.7,5928.89 L 2743.41,5932.39 L 2269.41,5531.32 Z " />
<path stroke="transparent" fill="#000000" transform="matrix(0.0666667 0 0 0.0666667 -98.92 -181)" d="M 1857,5641.82 L 1851.82,5622.5 L 2387.14,5479.07 L 2269.41,5531.32 L 1857,5641.82 Z " />
<path stroke="transparent" fill="#000000" transform="matrix(0.0666667 0 0 0.0666667 -98.92 -181)" d="M 2743.41,5932.39 L 2754.7,5928.89 L 2762.86,5937.05 L 2610.57,6505.51 L 2588.26,6511.49 L 2743.41,5932.39 Z " />
<path stroke="transparent" fill="#000000" transform="matrix(0.0666667 0 0 0.0666667 -98.92 -181)" d="M 2138.92,6694 L 2107.87,6578.09 L 2127.78,6575.11 L 2157.65,6686.62 L 2138.92,6694 Z " />
<path stroke="transparent" fill="#000000" transform="matrix(0.0666667 0 0 0.0666667 -98.92 -181)" d="M 2194.94,6671.93 L 2167.41,6569.19 L 2187.32,6566.22 L 2213.67,6664.55 L 2194.94,6671.93 Z " />
<path stroke="transparent" fill="#000000" transform="matrix(0.0666667 0 0 0.0666667 -98.92 -181)" d="M 2250.95,6649.87 L 2226.95,6560.29 L 2246.86,6557.32 L 2269.68,6642.49 L 2250.95,6649.87 Z " />
<path stroke="transparent" fill="#000000" transform="matrix(0.0666667 0 0 0.0666667 -98.92 -181)" d="M 2306.97,6627.8 L 2286.5,6551.4 L 2306.41,6548.42 L 2325.7,6620.42 L 2306.97,6627.8 Z " />
<path stroke="transparent" fill="#000000" transform="matrix(0.0666667 0 0 0.0666667 -98.92 -181)" d="M 2362.98,6605.73 L 2346.04,6542.5 L 2365.95,6539.53 L 2381.71,6598.36 L 2362.98,6605.73 Z " />
<path stroke="transparent" fill="#000000" transform="matrix(0.0666667 0 0 0.0666667 -98.92 -181)" d="M 2419,6583.67 L 2405.58,6533.61 L 2425.49,6530.63 L 2437.73,6576.29 L 2419,6583.67 Z " />
<path stroke="transparent" fill="#000000" transform="matrix(0.0666667 0 0 0.0666667 -98.92 -181)" d="M 2475.01,6561.6 L 2465.13,6524.71 L 2485.04,6521.74 L 2493.74,6554.22 L 2475.01,6561.6 Z " />
<path stroke="transparent" fill="#000000" transform="matrix(0.0666667 0 0 0.0666667 -98.92 -181)" d="M 2531.03,6539.54 L 2524.67,6515.81 L 2544.58,6512.84 L 2549.76,6532.16 L 2531.03,6539.54 Z " />
<path stroke="transparent" fill="#000000" transform="matrix(0.0666667 0 0 0.0666667 -98.92 -181)" d="M 2588.26,6511.49 L 2610.57,6505.51 L 3026.67,6921.62 L 3023.68,6932.77 L 3012.08,6935.31 L 2588.26,6511.49 Z " />
<path stroke="transparent" fill="#000000" transform="matrix(0.0666667 0 0 0.0666667 -98.92 -181)" d="M 2953.74,7425.64 L 2837.83,7394.58 L 3012.08,6935.31 L 3023.68,6932.77 L 3032.46,6940.77 L 2953.74,7425.64 Z " />
<path stroke="transparent" fill="#000000" transform="matrix(0.0666667 0 0 0.0666667 -98.92 -181)" d="M 3032.46,6940.77 L 3023.68,6932.77 L 3026.67,6921.62 L 3595.13,6769.26 L 3611.46,6785.59 L 3032.46,6940.77 Z " />
<path stroke="transparent" fill="#000000" transform="matrix(0.0666667 0 0 0.0666667 -98.92 -181)" d="M 3611.46,6785.59 L 3595.13,6769.26 L 3747.42,6200.86 L 3769.73,6194.88 L 3611.46,6785.59 Z " />
<path stroke="transparent" fill="#000000" transform="matrix(0.0666667 0 0 0.0666667 -98.92 -181)" d="M 3994.62,7083.9 L 3909.77,7168.75 L 3897.24,7153 L 3978.87,7071.37 L 3994.62,7083.9 Z " />
<path stroke="transparent" fill="#000000" transform="matrix(0.0666667 0 0 0.0666667 -98.92 -181)" d="M 3947.44,7046.36 L 3872.23,7121.57 L 3859.69,7105.82 L 3931.69,7033.83 L 3947.44,7046.36 Z " />
<path stroke="transparent" fill="#000000" transform="matrix(0.0666667 0 0 0.0666667 -98.92 -181)" d="M 3900.25,7008.82 L 3834.68,7074.39 L 3822.15,7058.63 L 3884.5,6996.28 L 3900.25,7008.82 Z " />
<path stroke="transparent" fill="#000000" transform="matrix(0.0666667 0 0 0.0666667 -98.92 -181)" d="M 3853.07,6971.27 L 3797.14,7027.2 L 3784.61,7011.45 L 3837.32,6958.74 L 3853.07,6971.27 Z " />
<path stroke="transparent" fill="#000000" transform="matrix(0.0666667 0 0 0.0666667 -98.92 -181)" d="M 3805.89,6933.73 L 3759.6,6980.02 L 3747.07,6964.27 L 3790.13,6921.2 L 3805.89,6933.73 Z " />
<path stroke="transparent" fill="#000000" transform="matrix(0.0666667 0 0 0.0666667 -98.92 -181)" d="M 3758.7,6896.19 L 3722.06,6932.83 L 3709.52,6917.08 L 3742.95,6883.66 L 3758.7,6896.19 Z " />
<path stroke="transparent" fill="#000000" transform="matrix(0.0666667 0 0 0.0666667 -98.92 -181)" d="M 3711.52,6858.65 L 3684.51,6885.65 L 3671.98,6869.9 L 3695.77,6846.11 L 3711.52,6858.65 Z " />
<path stroke="transparent" fill="#000000" transform="matrix(0.0666667 0 0 0.0666667 -98.92 -181)" d="M 3664.33,6821.1 L 3646.97,6838.46 L 3634.44,6822.71 L 3648.58,6808.57 L 3664.33,6821.1 Z " />
<path stroke="transparent" fill="#000000" transform="matrix(0.0666667 0 0 0.0666667 -98.92 -181)" d="M 7673.84,4854.78 L 7673.84,4877.87 L 7154.23,4577.86 L 7154.23,4566.32 L 7164.23,4560.54 L 7673.84,4854.78 Z " />
<path stroke="transparent" fill="#000000" transform="matrix(0.0666667 0 0 0.0666667 -98.92 -181)" d="M 7678.84,4774.53 L 7668.84,4791.85 L 7221.23,4533.41 L 7231.23,4516.09 L 7678.84,4774.53 Z " />
<path stroke="transparent" fill="#000000" transform="matrix(0.0666667 0 0 0.0666667 -98.92 -181)" d="M 8183.45,4560.54 L 8203.45,4572.09 L 7673.84,4877.87 L 7673.84,4854.78 L 8183.45,4560.54 Z " />
<path stroke="transparent" fill="#000000" transform="matrix(0.0666667 0 0 0.0666667 -98.92 -181)" d="M 8183.45,3972.14 L 8193.45,3966.36 L 8203.45,3972.14 L 8203.45,4572.09 L 8183.45,4560.54 L 8183.45,3972.14 Z " />
<path stroke="transparent" fill="#000000" transform="matrix(0.0666667 0 0 0.0666667 -98.92 -181)" d="M 8111.46,4007.93 L 8131.46,4007.93 L 8131.46,4524.75 L 8111.46,4524.75 L 8111.46,4007.93 Z " />
<path stroke="transparent" fill="#000000" transform="matrix(0.0666667 0 0 0.0666667 -98.92 -181)" d="M 8193.45,3954.82 L 8193.45,3966.36 L 8183.45,3972.14 L 7673.84,3677.9 L 7673.84,3666.36 L 7683.84,3660.58 L 8193.45,3954.82 Z " />
<path stroke="transparent" fill="#000000" transform="matrix(0.0666667 0 0 0.0666667 -98.92 -181)" d="M 8608.52,3715.2 L 8618.52,3732.52 L 8203.45,3972.14 L 8193.45,3966.36 L 8193.45,3954.82 L 8608.52,3715.2 Z " />
</svg>
