<?xml version="1.0" standalone="no" ?>
<!DOCTYPE svg PUBLIC "-//W3C//DTD SVG 1.1//EN" "http://www.w3.org/Graphics/SVG/1.1/DTD/svg11.dtd">
<svg width="503px" height="399px" viewBox="0 0 503 399" style="background-color: #ffffff00" xmlns="http://www.w3.org/2000/svg" xmlns:xlink="http://www.w3.org/1999/xlink" version="1.1" >
<text x="0" y="0" stroke="transparent" fill="#000000" transform="matrix(0.0833333 0 0 0.0833333 214.236 68.4365)" style="font:normal normal normal 200px 'Arial'" >
O</text>
<text x="0" y="0" stroke="transparent" fill="#000000" transform="matrix(0.0833333 0 0 0.0833333 214.866 218.907)" style="font:normal normal normal 200px 'Arial'" >
O</text>
<text x="0" y="0" stroke="transparent" fill="#000000" transform="matrix(0.0833333 0 0 0.0833333 301.08 218.665)" style="font:normal normal normal 200px 'Arial'" >
O</text>
<text x="0" y="0" stroke="transparent" fill="#000000" transform="matrix(0.0833333 0 0 0.0833333 301.007 17.9484)" style="font:normal normal normal 200px 'Arial'" >
OH</text>
<text x="0" y="0" stroke="transparent" fill="#000000" transform="matrix(0.0833333 0 0 0.0833333 128.471 219.077)" style="font:normal normal normal 200px 'Arial'" >
OH</text>
<text x="0" y="0" stroke="transparent" fill="#000000" transform="matrix(0.0833333 0 0 0.0833333 41.0272 69.1941)" style="font:normal normal normal 200px 'Arial'" >
O</text>
<text x="0" y="0" stroke="transparent" fill="#000000" transform="matrix(0.0833333 0 0 0.0833333 389.184 172.231)" style="font:normal normal normal 200px 'Arial'" >
OH</text>
<text x="0" y="0" stroke="transparent" fill="#000000" transform="matrix(0.0833333 0 0 0.0833333 473.688 225.301)" style="font:normal normal normal 200px 'Arial'" >
OH</text>
<text x="0" y="0" stroke="transparent" fill="#000000" transform="matrix(0.0833333 0 0 0.0833333 469.937 325.01)" style="font:normal normal normal 200px 'Arial'" >
OH</text>
<text x="0" y="0" stroke="transparent" fill="#000000" transform="matrix(0.0833333 0 0 0.0833333 341.308 295.266)" style="font:normal normal normal 200px 'Arial'" >
O</text>
<text x="0" y="0" stroke="transparent" fill="#000000" transform="matrix(0.0833333 0 0 0.0833333 325.52 394.982)" style="font:normal normal normal 200px 'Arial'" >
HO</text>
<path stroke="transparent" fill="#000000" transform="matrix(0.0833333 0 0 0.0833333 -184.667 -153)" d="M 4960,2645.42 L 4969.96,2628.07 L 5386.57,2867.3 L 5386.62,2878.86 L 5376.62,2884.65 L 4960,2645.42 Z " />
<path stroke="transparent" fill="#000000" transform="matrix(0.0833333 0 0 0.0833333 -184.667 -153)" d="M 4917.9,4279.45 L 4897.9,4279.57 L 4894.9,3762.05 L 4914.9,3761.94 L 4917.9,4279.45 Z " />
<path stroke="transparent" fill="#000000" transform="matrix(0.0833333 0 0 0.0833333 -184.667 -153)" d="M 4845.67,4279.87 L 4825.67,4279.99 L 4822.67,3762.35 L 4842.67,3762.23 L 4845.67,4279.87 Z " />
<path stroke="transparent" fill="#000000" transform="matrix(0.0833333 0 0 0.0833333 -184.667 -153)" d="M 4359.44,2890.66 L 4349.44,2884.97 L 4349.36,2873.39 L 4760.69,2629.38 L 4770.9,2646.59 L 4359.44,2890.66 Z " />
<path stroke="transparent" fill="#000000" transform="matrix(0.0833333 0 0 0.0833333 -184.667 -153)" d="M 5916.82,4276.8 L 5896.82,4276.82 L 5896.16,3784.25 L 5906.16,3778.45 L 5916.16,3784.22 L 5916.82,4276.8 Z " />
<path stroke="transparent" fill="#000000" transform="matrix(0.0833333 0 0 0.0833333 -184.667 -153)" d="M 6416.77,2880.93 L 6436.79,2869.37 L 6435.9,3484.61 L 6415.92,3473.04 L 6416.77,2880.93 Z " />
<path stroke="transparent" fill="#000000" transform="matrix(0.0833333 0 0 0.0833333 -184.667 -153)" d="M 5895.84,2093.19 L 5915.84,2093.23 L 5914.86,2569.53 L 5904.85,2575.31 L 5894.86,2569.57 L 5895.84,2093.19 Z " />
<path stroke="transparent" fill="#000000" transform="matrix(0.0833333 0 0 0.0833333 -184.667 -153)" d="M 4868.85,3771.41 L 4868.96,3794.49 L 4349.61,3498.35 L 4349.59,3486.82 L 4359.58,3481.01 L 4868.85,3771.41 Z " />
<path stroke="transparent" fill="#000000" transform="matrix(0.0833333 0 0 0.0833333 -184.667 -153)" d="M 3845.05,4281.7 L 3825.05,4281.81 L 3822.27,3790.76 L 3832.23,3784.92 L 3842.27,3790.68 L 3845.05,4281.7 Z " />
<path stroke="transparent" fill="#000000" transform="matrix(0.0833333 0 0 0.0833333 -184.667 -153)" d="M 5376.76,3475.69 L 5386.77,3481.44 L 5386.81,3492.99 L 4868.96,3794.49 L 4868.85,3771.41 L 5376.76,3475.69 Z " />
<path stroke="transparent" fill="#000000" transform="matrix(0.0833333 0 0 0.0833333 -184.667 -153)" d="M 2881.48,2654.54 L 2891.44,2637.2 L 3306.72,2875.82 L 3306.73,2887.37 L 3296.77,2893.17 L 2881.48,2654.54 Z " />
<path stroke="transparent" fill="#000000" transform="matrix(0.0833333 0 0 0.0833333 -184.667 -153)" d="M 5906.14,3766.91 L 5906.16,3778.45 L 5896.16,3784.25 L 5386.81,3492.99 L 5386.77,3481.44 L 5396.76,3475.64 L 5906.14,3766.91 Z " />
<path stroke="transparent" fill="#000000" transform="matrix(0.0833333 0 0 0.0833333 -184.667 -153)" d="M 2273.33,2896.97 L 2263.31,2879.66 L 2681.77,2637.32 L 2691.8,2654.63 L 2273.33,2896.97 Z " />
<path stroke="transparent" fill="#000000" transform="matrix(0.0833333 0 0 0.0833333 -184.667 -153)" d="M 6415.92,3473.04 L 6435.9,3484.61 L 5916.16,3784.22 L 5906.16,3778.45 L 5906.14,3766.91 L 6415.92,3473.04 Z " />
<path stroke="transparent" fill="#000000" transform="matrix(0.0833333 0 0 0.0833333 -184.667 -153)" d="M 6348.98,3428.53 L 6358.97,3445.86 L 5911,3704.1 L 5901.02,3686.77 L 6348.98,3428.53 Z " />
<path stroke="transparent" fill="#000000" transform="matrix(0.0833333 0 0 0.0833333 -184.667 -153)" d="M 4339.44,2890.76 L 4349.44,2884.97 L 4359.44,2890.66 L 4359.58,3481.01 L 4349.59,3486.82 L 4339.58,3481.05 L 4339.44,2890.76 Z " />
<path stroke="transparent" fill="#000000" transform="matrix(0.0833333 0 0 0.0833333 -184.667 -153)" d="M 4267.23,2926.78 L 4287.23,2926.78 L 4287.35,3445.09 L 4267.35,3445.09 L 4267.23,2926.78 Z " />
<path stroke="transparent" fill="#000000" transform="matrix(0.0833333 0 0 0.0833333 -184.667 -153)" d="M 3828.32,2597.18 L 3828.29,2574.1 L 4349.36,2873.39 L 4349.44,2884.97 L 4339.44,2890.76 L 3828.32,2597.18 Z " />
<path stroke="transparent" fill="#000000" transform="matrix(0.0833333 0 0 0.0833333 -184.667 -153)" d="M 5904.89,2586.87 L 5904.85,2575.31 L 5914.86,2569.53 L 6436.79,2869.37 L 6416.77,2880.93 L 5904.89,2586.87 Z " />
<path stroke="transparent" fill="#000000" transform="matrix(0.0833333 0 0 0.0833333 -184.667 -153)" d="M 5900.22,2667.49 L 5910.18,2650.14 L 6359.47,2908.25 L 6349.51,2925.59 L 5900.22,2667.49 Z " />
<path stroke="transparent" fill="#000000" transform="matrix(0.0833333 0 0 0.0833333 -184.667 -153)" d="M 3316.77,2893.11 L 3306.73,2887.37 L 3306.72,2875.82 L 3828.29,2574.1 L 3828.32,2597.18 L 3316.77,2893.11 Z " />
<path stroke="transparent" fill="#000000" transform="matrix(0.0833333 0 0 0.0833333 -184.667 -153)" d="M 3384.3,2937.58 L 3374.29,2920.27 L 3823.43,2660.44 L 3833.44,2677.75 L 3384.3,2937.58 Z " />
<path stroke="transparent" fill="#000000" transform="matrix(0.0833333 0 0 0.0833333 -184.667 -153)" d="M 5376.62,2884.65 L 5386.62,2878.86 L 5396.62,2884.59 L 5396.76,3475.64 L 5386.77,3481.44 L 5376.76,3475.69 L 5376.62,2884.65 Z " />
<path stroke="transparent" fill="#000000" transform="matrix(0.0833333 0 0 0.0833333 -184.667 -153)" d="M 5448.94,2920.3 L 5468.94,2920.3 L 5469.07,3439.49 L 5449.07,3439.49 L 5448.94,2920.3 Z " />
<path stroke="transparent" fill="#000000" transform="matrix(0.0833333 0 0 0.0833333 -184.667 -153)" d="M 3320.34,3483.23 L 3300.41,3494.92 L 3296.77,2893.17 L 3306.73,2887.37 L 3316.77,2893.11 L 3320.34,3483.23 Z " />
<path stroke="transparent" fill="#000000" transform="matrix(0.0833333 0 0 0.0833333 -184.667 -153)" d="M 5396.62,2884.59 L 5386.62,2878.86 L 5386.57,2867.3 L 5894.86,2569.57 L 5904.85,2575.31 L 5904.89,2586.87 L 5396.62,2884.59 Z " />
<path stroke="transparent" fill="#000000" transform="matrix(0.0833333 0 0 0.0833333 -184.667 -153)" d="M 3832.19,3773.4 L 3832.23,3784.92 L 3822.27,3790.76 L 3300.41,3494.92 L 3320.34,3483.23 L 3832.19,3773.4 Z " />
<path stroke="transparent" fill="#000000" transform="matrix(0.0833333 0 0 0.0833333 -184.667 -153)" d="M 3836.87,3693.3 L 3827.01,3710.7 L 3377.17,3455.69 L 3387.04,3438.3 L 3836.87,3693.3 Z " />
<path stroke="transparent" fill="#000000" transform="matrix(0.0833333 0 0 0.0833333 -184.667 -153)" d="M 4339.58,3481.05 L 4349.59,3486.82 L 4349.61,3498.35 L 3842.27,3790.68 L 3832.23,3784.92 L 3832.19,3773.4 L 4339.58,3481.05 Z " />
<path stroke="transparent" fill="#000000" transform="matrix(0.0833333 0 0 0.0833333 -184.667 -153)" d="M 5972.94,4494.8 L 6037.15,4393.43 L 6412.54,4689.74 L 6411.51,4701.59 L 6401.28,4707.62 L 5972.94,4494.8 Z " />
<path stroke="transparent" fill="#000000" transform="matrix(0.0833333 0 0 0.0833333 -184.667 -153)" d="M 6941.52,4410.21 L 6940.64,4433.3 L 6421.29,4707.73 L 6411.51,4701.59 L 6412.54,4689.74 L 6941.52,4410.21 Z " />
<path stroke="transparent" fill="#000000" transform="matrix(0.0833333 0 0 0.0833333 -184.667 -153)" d="M 6899.62,3942.13 L 7019.53,3946.78 L 7016.39,3966.67 L 6901.2,3962.21 L 6899.62,3942.13 Z " />
<path stroke="transparent" fill="#000000" transform="matrix(0.0833333 0 0 0.0833333 -184.667 -153)" d="M 6904.18,4000.01 L 7010.49,4004.12 L 7007.36,4024.02 L 6905.77,4020.08 L 6904.18,4000.01 Z " />
<path stroke="transparent" fill="#000000" transform="matrix(0.0833333 0 0 0.0833333 -184.667 -153)" d="M 6908.75,4057.88 L 7001.46,4061.47 L 6998.33,4081.37 L 6910.34,4077.96 L 6908.75,4057.88 Z " />
<path stroke="transparent" fill="#000000" transform="matrix(0.0833333 0 0 0.0833333 -184.667 -153)" d="M 6913.32,4115.76 L 6992.43,4118.82 L 6989.3,4138.71 L 6914.91,4135.83 L 6913.32,4115.76 Z " />
<path stroke="transparent" fill="#000000" transform="matrix(0.0833333 0 0 0.0833333 -184.667 -153)" d="M 6917.89,4173.63 L 6983.4,4176.17 L 6980.26,4196.06 L 6919.47,4193.71 L 6917.89,4173.63 Z " />
<path stroke="transparent" fill="#000000" transform="matrix(0.0833333 0 0 0.0833333 -184.667 -153)" d="M 6922.46,4231.51 L 6974.36,4233.52 L 6971.23,4253.41 L 6924.04,4251.58 L 6922.46,4231.51 Z " />
<path stroke="transparent" fill="#000000" transform="matrix(0.0833333 0 0 0.0833333 -184.667 -153)" d="M 6927.03,4289.38 L 6965.33,4290.87 L 6962.2,4310.76 L 6928.61,4309.46 L 6927.03,4289.38 Z " />
<path stroke="transparent" fill="#000000" transform="matrix(0.0833333 0 0 0.0833333 -184.667 -153)" d="M 6931.6,4347.26 L 6956.3,4348.21 L 6953.17,4368.11 L 6933.18,4367.33 L 6931.6,4347.26 Z " />
<path stroke="transparent" fill="#000000" transform="matrix(0.0833333 0 0 0.0833333 -184.667 -153)" d="M 7448.65,4729.56 L 7448.76,4741.45 L 7438.56,4746.84 L 6940.64,4433.3 L 6941.52,4410.21 L 7448.65,4729.56 Z " />
<path stroke="transparent" fill="#000000" transform="matrix(0.0833333 0 0 0.0833333 -184.667 -153)" d="M 7848.98,4462.07 L 7905.05,4568.16 L 7458.52,4748.24 L 7448.76,4741.45 L 7448.65,4729.56 L 7848.98,4462.07 Z " />
<path stroke="transparent" fill="#000000" transform="matrix(0.0833333 0 0 0.0833333 -184.667 -153)" d="M 7436.73,5347.19 L 7417.16,5334.91 L 7438.56,4746.84 L 7448.76,4741.45 L 7458.52,4748.24 L 7436.73,5347.19 Z " />
<path stroke="transparent" fill="#000000" transform="matrix(0.0833333 0 0 0.0833333 -184.667 -153)" d="M 7874.43,5550.49 L 7810.74,5652.2 L 7795,5639.64 L 7856.26,5541.82 L 7874.43,5550.49 Z " />
<path stroke="transparent" fill="#000000" transform="matrix(0.0833333 0 0 0.0833333 -184.667 -153)" d="M 7820.4,5524.7 L 7763.94,5614.85 L 7748.21,5602.29 L 7802.23,5516.03 L 7820.4,5524.7 Z " />
<path stroke="transparent" fill="#000000" transform="matrix(0.0833333 0 0 0.0833333 -184.667 -153)" d="M 7766.37,5498.91 L 7717.15,5577.5 L 7701.41,5564.95 L 7748.2,5490.23 L 7766.37,5498.91 Z " />
<path stroke="transparent" fill="#000000" transform="matrix(0.0833333 0 0 0.0833333 -184.667 -153)" d="M 7712.34,5473.11 L 7670.35,5540.16 L 7654.62,5527.6 L 7694.17,5464.44 L 7712.34,5473.11 Z " />
<path stroke="transparent" fill="#000000" transform="matrix(0.0833333 0 0 0.0833333 -184.667 -153)" d="M 7658.31,5447.32 L 7623.56,5502.81 L 7607.82,5490.25 L 7640.14,5438.64 L 7658.31,5447.32 Z " />
<path stroke="transparent" fill="#000000" transform="matrix(0.0833333 0 0 0.0833333 -184.667 -153)" d="M 7604.28,5421.52 L 7576.76,5465.46 L 7561.03,5452.9 L 7586.12,5412.85 L 7604.28,5421.52 Z " />
<path stroke="transparent" fill="#000000" transform="matrix(0.0833333 0 0 0.0833333 -184.667 -153)" d="M 7550.25,5395.73 L 7529.97,5428.12 L 7514.24,5415.56 L 7532.09,5387.05 L 7550.25,5395.73 Z " />
<path stroke="transparent" fill="#000000" transform="matrix(0.0833333 0 0 0.0833333 -184.667 -153)" d="M 7496.22,5369.93 L 7483.18,5390.77 L 7467.44,5378.21 L 7478.06,5361.26 L 7496.22,5369.93 Z " />
<path stroke="transparent" fill="#000000" transform="matrix(0.0833333 0 0 0.0833333 -184.667 -153)" d="M 6907.69,5626.79 L 6897.45,5620.89 L 6897.88,5609.35 L 7417.16,5334.91 L 7436.73,5347.19 L 6907.69,5626.79 Z " />
<path stroke="transparent" fill="#000000" transform="matrix(0.0833333 0 0 0.0833333 -184.667 -153)" d="M 6482.59,5371.5 L 6493.24,5354.58 L 6897.88,5609.35 L 6897.45,5620.89 L 6886.78,5625.99 L 6482.59,5371.5 Z " />
<path stroke="transparent" fill="#000000" transform="matrix(0.0833333 0 0 0.0833333 -184.667 -153)" d="M 6933.21,6198.1 L 6811.31,6239.9 L 6886.78,5625.99 L 6897.45,5620.89 L 6907.69,5626.79 L 6933.21,6198.1 Z " />
<path stroke="transparent" fill="#000000" transform="matrix(0.0833333 0 0 0.0833333 -184.667 -153)" d="M 6443.83,6456.7 L 6434.48,6439.02 L 6811.31,6239.9 L 6933.21,6198.1 L 6443.83,6456.7 Z " />
<path stroke="transparent" fill="#000000" transform="matrix(0.0833333 0 0 0.0833333 -184.667 -153)" d="M 6403.51,5196.51 L 6383.52,5195.78 L 6401.28,4707.62 L 6411.51,4701.59 L 6421.29,4707.73 L 6403.51,5196.51 Z " />
</svg>
