<?xml version="1.0" standalone="no" ?>
<!DOCTYPE svg PUBLIC "-//W3C//DTD SVG 1.1//EN" "http://www.w3.org/Graphics/SVG/1.1/DTD/svg11.dtd">
<svg width="912px" height="556px" viewBox="0 0 912 556" style="background-color: #ffffff00" xmlns="http://www.w3.org/2000/svg" xmlns:xlink="http://www.w3.org/1999/xlink" version="1.1" >
<text x="0" y="0" stroke="transparent" fill="#000000" transform="matrix(0.0833333 0 0 0.0833333 522.566 304.728)" style="font:normal normal normal 200px 'Arial'" >
OH</text>
<text x="0" y="0" stroke="transparent" fill="#000000" transform="matrix(0.0833333 0 0 0.0833333 464.797 185.721)" style="font:normal normal normal 200px 'Arial'" >
O</text>
<text x="0" y="0" stroke="transparent" fill="#000000" transform="matrix(0.0833333 0 0 0.0833333 548.448 208.136)" style="font:normal normal normal 200px 'Arial'" >
O</text>
<text x="0" y="0" stroke="transparent" fill="#000000" transform="matrix(0.0833333 0 0 0.0833333 680.396 217.609)" style="font:normal normal normal 200px 'Arial'" >
O</text>
<text x="0" y="0" stroke="transparent" fill="#000000" transform="matrix(0.0833333 0 0 0.0833333 764.048 240.024)" style="font:normal normal normal 200px 'Arial'" >
O</text>
<text x="0" y="0" stroke="transparent" fill="#000000" transform="matrix(0.0833333 0 0 0.0833333 883.055 297.793)" style="font:normal normal normal 200px 'Arial'" >
OH</text>
<text x="0" y="0" stroke="transparent" fill="#000000" transform="matrix(0.0833333 0 0 0.0833333 821.817 359.031)" style="font:normal normal normal 200px 'Arial'" >
OH</text>
<text x="0" y="0" stroke="transparent" fill="#000000" transform="matrix(0.0833333 0 0 0.0833333 713.189 384.913)" style="font:normal normal normal 200px 'Arial'" >
HO</text>
<text x="0" y="0" stroke="transparent" fill="#000000" transform="matrix(0.0833333 0 0 0.0833333 642.478 314.202)" style="font:normal normal normal 200px 'Arial'" >
HO</text>
<text x="0" y="0" stroke="transparent" fill="#000000" transform="matrix(0.0833333 0 0 0.0833333 657.982 133.958)" style="font:normal normal normal 200px 'Arial'" >
OH</text>
<text x="0" y="0" stroke="transparent" fill="#000000" transform="matrix(0.0833333 0 0 0.0833333 587.271 63.2469)" style="font:normal normal normal 200px 'Arial'" >
OH</text>
<text x="0" y="0" stroke="transparent" fill="#000000" transform="matrix(0.0833333 0 0 0.0833333 490.678 89.1289)" style="font:normal normal normal 200px 'Arial'" >
O</text>
<text x="0" y="0" stroke="transparent" fill="#000000" transform="matrix(0.0833333 0 0 0.0833333 429.441 150.366)" style="font:normal normal normal 200px 'Arial'" >
O</text>
<text x="0" y="0" stroke="transparent" fill="#000000" transform="matrix(0.0833333 0 0 0.0833333 307.872 224.544)" style="font:normal normal normal 200px 'Arial'" >
HO</text>
<text x="0" y="0" stroke="transparent" fill="#000000" transform="matrix(0.0833333 0 0 0.0833333 285.457 140.893)" style="font:normal normal normal 200px 'Arial'" >
HO</text>
<text x="0" y="0" stroke="transparent" fill="#000000" transform="matrix(0.0833333 0 0 0.0833333 311.339 44.3001)" style="font:normal normal normal 200px 'Arial'" >
HO</text>
<text x="0" y="0" stroke="transparent" fill="#000000" transform="matrix(0.0833333 0 0 0.0833333 419.968 18.4182)" style="font:normal normal normal 200px 'Arial'" >
OH</text>
<text x="0" y="0" stroke="transparent" fill="#000000" transform="matrix(0.0833333 0 0 0.0833333 3.74253 515.365)" style="font:normal normal normal 200px 'Arial'" >
HO</text>
<text x="0" y="0" stroke="transparent" fill="#000000" transform="matrix(0.0833333 0 0 0.0833333 133.646 340.365)" style="font:normal normal normal 200px 'Arial'" >
HO</text>
<path stroke="transparent" fill="#000000" transform="matrix(0.0833333 0 0 0.0833333 -107.417 -138.167)" d="M 5398.9,5163.02 L 5384.76,5177.16 L 5369.32,5164.32 L 5386.06,5147.58 L 5398.9,5163.02 Z " />
<path stroke="transparent" fill="#000000" transform="matrix(0.0833333 0 0 0.0833333 -107.417 -138.167)" d="M 5361.37,5117.92 L 5339.66,5139.63 L 5324.22,5126.78 L 5348.52,5102.48 L 5361.37,5117.92 Z " />
<path stroke="transparent" fill="#000000" transform="matrix(0.0833333 0 0 0.0833333 -107.417 -138.167)" d="M 5323.83,5072.81 L 5294.55,5102.09 L 5279.12,5089.25 L 5310.99,5057.38 L 5323.83,5072.81 Z " />
<path stroke="transparent" fill="#000000" transform="matrix(0.0833333 0 0 0.0833333 -107.417 -138.167)" d="M 5286.3,5027.71 L 5249.45,5064.56 L 5234.01,5051.71 L 5273.45,5012.27 L 5286.3,5027.71 Z " />
<path stroke="transparent" fill="#000000" transform="matrix(0.0833333 0 0 0.0833333 -107.417 -138.167)" d="M 5248.76,4982.61 L 5204.35,5027.02 L 5188.91,5014.18 L 5235.92,4967.17 L 5248.76,4982.61 Z " />
<path stroke="transparent" fill="#000000" transform="matrix(0.0833333 0 0 0.0833333 -107.417 -138.167)" d="M 5211.23,4937.5 L 5159.24,4989.49 L 5143.8,4976.64 L 5198.38,4922.07 L 5211.23,4937.5 Z " />
<path stroke="transparent" fill="#000000" transform="matrix(0.0833333 0 0 0.0833333 -107.417 -138.167)" d="M 5173.69,4892.4 L 5114.14,4951.95 L 5098.7,4939.11 L 5160.85,4876.96 L 5173.69,4892.4 Z " />
<path stroke="transparent" fill="#000000" transform="matrix(0.0833333 0 0 0.0833333 -107.417 -138.167)" d="M 5136.16,4847.3 L 5069.03,4914.42 L 5053.6,4901.57 L 5123.31,4831.86 L 5136.16,4847.3 Z " />
<path stroke="transparent" fill="#000000" transform="matrix(0.0833333 0 0 0.0833333 -107.417 -138.167)" d="M 5098.62,4802.19 L 5023.93,4876.88 L 5008.49,4864.04 L 5085.78,4786.75 L 5098.62,4802.19 Z " />
<path stroke="transparent" fill="#000000" transform="matrix(0.0833333 0 0 0.0833333 -107.417 -138.167)" d="M 5061.09,4757.09 L 4978.83,4839.35 L 4963.39,4826.5 L 5048.24,4741.65 L 5061.09,4757.09 Z " />
<path stroke="transparent" fill="#000000" transform="matrix(0.0833333 0 0 0.0833333 -107.417 -138.167)" d="M 6009.24,5075.01 L 6024.69,5092.17 L 5437.81,5216.92 L 5422.35,5199.76 L 6009.24,5075.01 Z " />
<path stroke="transparent" fill="#000000" transform="matrix(0.0833333 0 0 0.0833333 -107.417 -138.167)" d="M 6194.65,4504.38 L 6210.1,4521.54 L 6024.69,5092.17 L 6009.24,5075.01 L 6194.65,4504.38 Z " />
<path stroke="transparent" fill="#000000" transform="matrix(0.0833333 0 0 0.0833333 -107.417 -138.167)" d="M 6780.53,4379.85 L 6789.27,4388.21 L 6786.04,4399.12 L 6210.1,4521.54 L 6194.65,4504.38 L 6780.53,4379.85 Z " />
<path stroke="transparent" fill="#000000" transform="matrix(0.0833333 0 0 0.0833333 -107.417 -138.167)" d="M 7216.52,4801.32 L 7213.53,4812.48 L 7202.38,4815.47 L 6786.04,4399.12 L 6789.27,4388.21 L 6800.89,4385.69 L 7216.52,4801.32 Z " />
<path stroke="transparent" fill="#000000" transform="matrix(0.0833333 0 0 0.0833333 -107.417 -138.167)" d="M 7790.5,4647.53 L 7795.67,4666.84 L 7232.85,4817.65 L 7213.53,4812.48 L 7216.52,4801.32 L 7790.5,4647.53 Z " />
<path stroke="transparent" fill="#000000" transform="matrix(0.0833333 0 0 0.0833333 -107.417 -138.167)" d="M 7067.9,5394.62 L 7048.58,5389.44 L 7202.38,4815.47 L 7213.53,4812.48 L 7218.71,4831.8 L 7067.9,5394.62 Z " />
<path stroke="transparent" fill="#000000" transform="matrix(0.0833333 0 0 0.0833333 -107.417 -138.167)" d="M 7569.5,5154.3 L 7555.36,5168.44 L 7218.71,4831.8 L 7213.53,4812.48 L 7232.85,4817.65 L 7569.5,5154.3 Z " />
<path stroke="transparent" fill="#000000" transform="matrix(0.0833333 0 0 0.0833333 -107.417 -138.167)" d="M 6855.02,3911 L 6970.93,3942.06 L 6800.89,4385.69 L 6789.27,4388.21 L 6780.53,4379.85 L 6855.02,3911 Z " />
<path stroke="transparent" fill="#000000" transform="matrix(0.0833333 0 0 0.0833333 -107.417 -138.167)" d="M 7516.11,3644.58 L 7524.11,3653.37 L 7521.58,3664.97 L 7063.59,3838.88 L 7032.54,3722.97 L 7516.11,3644.58 Z " />
<path stroke="transparent" fill="#000000" transform="matrix(0.0833333 0 0 0.0833333 -107.417 -138.167)" d="M 7671.24,3065.65 L 7687.57,3081.98 L 7535.27,3650.38 L 7524.11,3653.37 L 7516.11,3644.58 L 7671.24,3065.65 Z " />
<path stroke="transparent" fill="#000000" transform="matrix(0.0833333 0 0 0.0833333 -107.417 -138.167)" d="M 8250.16,2910.52 L 8258.96,2918.52 L 8255.97,2929.67 L 7687.57,3081.98 L 7671.24,3065.65 L 8250.16,2910.52 Z " />
<path stroke="transparent" fill="#000000" transform="matrix(0.0833333 0 0 0.0833333 -107.417 -138.167)" d="M 8694.38,3339.79 L 8672.07,3345.77 L 8255.97,2929.67 L 8258.96,2918.52 L 8270.58,2916 L 8694.38,3339.79 Z " />
<path stroke="transparent" fill="#000000" transform="matrix(0.0833333 0 0 0.0833333 -107.417 -138.167)" d="M 8539.22,3918.84 L 8527.93,3922.34 L 8519.77,3914.17 L 8672.07,3345.77 L 8694.38,3339.79 L 8539.22,3918.84 Z " />
<path stroke="transparent" fill="#000000" transform="matrix(0.0833333 0 0 0.0833333 -107.417 -138.167)" d="M 8054.47,4059.55 L 8049.3,4040.24 L 8519.77,3914.17 L 8527.93,3922.34 L 8524.43,3933.63 L 8054.47,4059.55 Z " />
<path stroke="transparent" fill="#000000" transform="matrix(0.0833333 0 0 0.0833333 -107.417 -138.167)" d="M 7880.08,3995.19 L 7865.94,4009.33 L 7521.58,3664.97 L 7524.11,3653.37 L 7535.27,3650.38 L 7880.08,3995.19 Z " />
<path stroke="transparent" fill="#000000" transform="matrix(0.0833333 0 0 0.0833333 -107.417 -138.167)" d="M 9013.21,4319.9 L 8895.49,4372.15 L 8524.43,3933.63 L 8527.93,3922.34 L 8539.22,3918.84 L 9013.21,4319.9 Z " />
<path stroke="transparent" fill="#000000" transform="matrix(0.0833333 0 0 0.0833333 -107.417 -138.167)" d="M 9421.67,4210.45 L 9426.85,4229.77 L 8895.49,4372.15 L 9013.21,4319.9 L 9421.67,4210.45 Z " />
<path stroke="transparent" fill="#000000" transform="matrix(0.0833333 0 0 0.0833333 -107.417 -138.167)" d="M 9959.01,4604.42 L 9956.02,4615.58 L 9944.86,4618.56 L 9608.88,4282.58 L 9623.02,4268.44 L 9959.01,4604.42 Z " />
<path stroke="transparent" fill="#000000" transform="matrix(0.0833333 0 0 0.0833333 -107.417 -138.167)" d="M 9811.88,5192.14 L 9800.73,5195.13 L 9792.73,5186.35 L 9944.86,4618.56 L 9956.02,4615.58 L 9964.18,4623.74 L 9811.88,5192.14 Z " />
<path stroke="transparent" fill="#000000" transform="matrix(0.0833333 0 0 0.0833333 -107.417 -138.167)" d="M 10228,5608.24 L 10222,5630.55 L 9798.19,5206.74 L 9800.73,5195.13 L 9811.88,5192.14 L 10228,5608.24 Z " />
<path stroke="transparent" fill="#000000" transform="matrix(0.0833333 0 0 0.0833333 -107.417 -138.167)" d="M 10796.4,5455.94 L 10804.5,5464.1 L 10800.9,5475.42 L 10222,5630.55 L 10228,5608.24 L 10796.4,5455.94 Z " />
<path stroke="transparent" fill="#000000" transform="matrix(0.0833333 0 0 0.0833333 -107.417 -138.167)" d="M 10948.7,4887.54 L 10971,4881.56 L 10815.9,5460.5 L 10804.5,5464.1 L 10796.4,5455.94 L 10948.7,4887.54 Z " />
<path stroke="transparent" fill="#000000" transform="matrix(0.0833333 0 0 0.0833333 -107.417 -138.167)" d="M 10612.7,4551.56 L 10626.8,4537.41 L 10971,4881.56 L 10948.7,4887.54 L 10612.7,4551.56 Z " />
<path stroke="transparent" fill="#000000" transform="matrix(0.0833333 0 0 0.0833333 -107.417 -138.167)" d="M 10425.5,4479.43 L 10430.7,4498.75 L 9964.18,4623.74 L 9956.02,4615.58 L 9959.01,4604.42 L 10425.5,4479.43 Z " />
<path stroke="transparent" fill="#000000" transform="matrix(0.0833333 0 0 0.0833333 -107.417 -138.167)" d="M 11471.7,4685.28 L 11502.8,4801.19 L 11482.9,4804.4 L 11452.9,4692.42 L 11471.7,4685.28 Z " />
<path stroke="transparent" fill="#000000" transform="matrix(0.0833333 0 0 0.0833333 -107.417 -138.167)" d="M 11416.3,4706.34 L 11444.2,4810.67 L 11424.4,4813.88 L 11397.5,4713.48 L 11416.3,4706.34 Z " />
<path stroke="transparent" fill="#000000" transform="matrix(0.0833333 0 0 0.0833333 -107.417 -138.167)" d="M 11360.8,4727.4 L 11385.7,4820.15 L 11365.8,4823.36 L 11342,4734.54 L 11360.8,4727.4 Z " />
<path stroke="transparent" fill="#000000" transform="matrix(0.0833333 0 0 0.0833333 -107.417 -138.167)" d="M 11305.4,4748.46 L 11327.1,4829.62 L 11307.3,4832.84 L 11286.6,4755.6 L 11305.4,4748.46 Z " />
<path stroke="transparent" fill="#000000" transform="matrix(0.0833333 0 0 0.0833333 -107.417 -138.167)" d="M 11250,4769.52 L 11268.6,4839.1 L 11248.8,4842.32 L 11231.2,4776.66 L 11250,4769.52 Z " />
<path stroke="transparent" fill="#000000" transform="matrix(0.0833333 0 0 0.0833333 -107.417 -138.167)" d="M 11194.5,4790.59 L 11210.1,4848.58 L 11190.2,4851.79 L 11175.7,4797.73 L 11194.5,4790.59 Z " />
<path stroke="transparent" fill="#000000" transform="matrix(0.0833333 0 0 0.0833333 -107.417 -138.167)" d="M 11139.1,4811.65 L 11151.5,4858.06 L 11131.7,4861.27 L 11120.3,4818.79 L 11139.1,4811.65 Z " />
<path stroke="transparent" fill="#000000" transform="matrix(0.0833333 0 0 0.0833333 -107.417 -138.167)" d="M 11083.6,4832.71 L 11093,4867.54 L 11073.1,4870.75 L 11064.8,4839.85 L 11083.6,4832.71 Z " />
<path stroke="transparent" fill="#000000" transform="matrix(0.0833333 0 0 0.0833333 -107.417 -138.167)" d="M 11028.2,4853.77 L 11034.4,4877.02 L 11014.6,4880.23 L 11009.4,4860.91 L 11028.2,4853.77 Z " />
<path stroke="transparent" fill="#000000" transform="matrix(0.0833333 0 0 0.0833333 -107.417 -138.167)" d="M 11895.4,5071.08 L 11881.2,5085.22 L 11532.3,4736.33 L 11546.5,4722.19 L 11895.4,5071.08 Z " />
<path stroke="transparent" fill="#000000" transform="matrix(0.0833333 0 0 0.0833333 -107.417 -138.167)" d="M 11195.9,5770.57 L 11111,5855.43 L 10800.9,5475.42 L 10804.5,5464.1 L 10815.9,5460.5 L 11195.9,5770.57 Z " />
<path stroke="transparent" fill="#000000" transform="matrix(0.0833333 0 0 0.0833333 -107.417 -138.167)" d="M 10155,6112.27 L 10039.1,6081.21 L 10046.5,6062.48 L 10158,6092.36 L 10155,6112.27 Z " />
<path stroke="transparent" fill="#000000" transform="matrix(0.0833333 0 0 0.0833333 -107.417 -138.167)" d="M 10164,6052.52 L 10061.3,6024.99 L 10068.6,6006.26 L 10167,6032.62 L 10164,6052.52 Z " />
<path stroke="transparent" fill="#000000" transform="matrix(0.0833333 0 0 0.0833333 -107.417 -138.167)" d="M 10172.9,5992.78 L 10083.4,5968.78 L 10090.7,5950.05 L 10175.9,5972.87 L 10172.9,5992.78 Z " />
<path stroke="transparent" fill="#000000" transform="matrix(0.0833333 0 0 0.0833333 -107.417 -138.167)" d="M 10181.9,5933.04 L 10105.5,5912.57 L 10112.9,5893.84 L 10184.9,5913.13 L 10181.9,5933.04 Z " />
<path stroke="transparent" fill="#000000" transform="matrix(0.0833333 0 0 0.0833333 -107.417 -138.167)" d="M 10190.8,5873.3 L 10127.6,5856.36 L 10135,5837.62 L 10193.8,5853.39 L 10190.8,5873.3 Z " />
<path stroke="transparent" fill="#000000" transform="matrix(0.0833333 0 0 0.0833333 -107.417 -138.167)" d="M 10199.8,5813.55 L 10149.7,5800.14 L 10157.1,5781.41 L 10202.8,5793.65 L 10199.8,5813.55 Z " />
<path stroke="transparent" fill="#000000" transform="matrix(0.0833333 0 0 0.0833333 -107.417 -138.167)" d="M 10208.7,5753.81 L 10171.9,5743.93 L 10179.2,5725.2 L 10211.7,5733.9 L 10208.7,5753.81 Z " />
<path stroke="transparent" fill="#000000" transform="matrix(0.0833333 0 0 0.0833333 -107.417 -138.167)" d="M 10217.7,5694.07 L 10194,5687.72 L 10201.3,5668.99 L 10220.7,5674.16 L 10217.7,5694.07 Z " />
<path stroke="transparent" fill="#000000" transform="matrix(0.0833333 0 0 0.0833333 -107.417 -138.167)" d="M 9340.24,5380.64 L 9309.18,5264.72 L 9792.73,5186.35 L 9800.73,5195.13 L 9798.19,5206.74 L 9340.24,5380.64 Z " />
<path stroke="transparent" fill="#000000" transform="matrix(0.0833333 0 0 0.0833333 -107.417 -138.167)" d="M 9139.76,3158.34 L 9170.82,3274.25 L 9150.9,3277.2 L 9121.04,3165.74 L 9139.76,3158.34 Z " />
<path stroke="transparent" fill="#000000" transform="matrix(0.0833333 0 0 0.0833333 -107.417 -138.167)" d="M 9084.31,3180.25 L 9111.84,3283 L 9091.92,3285.95 L 9065.58,3187.65 L 9084.31,3180.25 Z " />
<path stroke="transparent" fill="#000000" transform="matrix(0.0833333 0 0 0.0833333 -107.417 -138.167)" d="M 9028.86,3202.16 L 9052.86,3291.75 L 9032.95,3294.7 L 9010.13,3209.56 L 9028.86,3202.16 Z " />
<path stroke="transparent" fill="#000000" transform="matrix(0.0833333 0 0 0.0833333 -107.417 -138.167)" d="M 8973.4,3224.08 L 8993.88,3300.5 L 8973.97,3303.45 L 8954.68,3231.48 L 8973.4,3224.08 Z " />
<path stroke="transparent" fill="#000000" transform="matrix(0.0833333 0 0 0.0833333 -107.417 -138.167)" d="M 8917.95,3245.99 L 8934.9,3309.24 L 8914.99,3312.2 L 8899.23,3253.39 L 8917.95,3245.99 Z " />
<path stroke="transparent" fill="#000000" transform="matrix(0.0833333 0 0 0.0833333 -107.417 -138.167)" d="M 8862.5,3267.9 L 8875.92,3317.99 L 8856.01,3320.95 L 8843.78,3275.3 L 8862.5,3267.9 Z " />
<path stroke="transparent" fill="#000000" transform="matrix(0.0833333 0 0 0.0833333 -107.417 -138.167)" d="M 8807.05,3289.82 L 8816.94,3326.74 L 8797.03,3329.7 L 8788.33,3297.21 L 8807.05,3289.82 Z " />
<path stroke="transparent" fill="#000000" transform="matrix(0.0833333 0 0 0.0833333 -107.417 -138.167)" d="M 8751.6,3311.73 L 8757.96,3335.49 L 8738.05,3338.45 L 8732.87,3319.13 L 8751.6,3311.73 Z " />
<path stroke="transparent" fill="#000000" transform="matrix(0.0833333 0 0 0.0833333 -107.417 -138.167)" d="M 8324.71,2441.31 L 8440.62,2472.37 L 8270.58,2916 L 8258.96,2918.52 L 8250.16,2910.52 L 8324.71,2441.31 Z " />
<path stroke="transparent" fill="#000000" transform="matrix(0.0833333 0 0 0.0833333 -107.417 -138.167)" d="M 7296.92,2776.17 L 7381.77,2691.32 L 7394.25,2707.12 L 7312.71,2788.66 L 7296.92,2776.17 Z " />
<path stroke="transparent" fill="#000000" transform="matrix(0.0833333 0 0 0.0833333 -107.417 -138.167)" d="M 7342.82,2812.45 L 7418.05,2737.23 L 7430.53,2753.03 L 7358.62,2824.94 L 7342.82,2812.45 Z " />
<path stroke="transparent" fill="#000000" transform="matrix(0.0833333 0 0 0.0833333 -107.417 -138.167)" d="M 7388.73,2848.74 L 7454.33,2783.14 L 7466.82,2798.94 L 7404.53,2861.22 L 7388.73,2848.74 Z " />
<path stroke="transparent" fill="#000000" transform="matrix(0.0833333 0 0 0.0833333 -107.417 -138.167)" d="M 7434.64,2885.02 L 7490.61,2829.05 L 7503.1,2844.85 L 7450.44,2897.5 L 7434.64,2885.02 Z " />
<path stroke="transparent" fill="#000000" transform="matrix(0.0833333 0 0 0.0833333 -107.417 -138.167)" d="M 7480.55,2921.3 L 7526.89,2874.96 L 7539.38,2890.76 L 7496.35,2933.78 L 7480.55,2921.3 Z " />
<path stroke="transparent" fill="#000000" transform="matrix(0.0833333 0 0 0.0833333 -107.417 -138.167)" d="M 7526.46,2957.58 L 7563.17,2920.87 L 7575.66,2936.66 L 7542.26,2970.06 L 7526.46,2957.58 Z " />
<path stroke="transparent" fill="#000000" transform="matrix(0.0833333 0 0 0.0833333 -107.417 -138.167)" d="M 7572.37,2993.86 L 7599.45,2966.77 L 7611.94,2982.57 L 7588.17,3006.34 L 7572.37,2993.86 Z " />
<path stroke="transparent" fill="#000000" transform="matrix(0.0833333 0 0 0.0833333 -107.417 -138.167)" d="M 7618.28,3030.14 L 7635.73,3012.68 L 7648.22,3028.48 L 7634.08,3042.62 L 7618.28,3030.14 Z " />
<path stroke="transparent" fill="#000000" transform="matrix(0.0833333 0 0 0.0833333 -107.417 -138.167)" d="M 6730.41,2800.5 L 6725.23,2781.18 L 6743.96,2773.78 L 6750.32,2797.55 L 6730.41,2800.5 Z " />
<path stroke="transparent" fill="#000000" transform="matrix(0.0833333 0 0 0.0833333 -107.417 -138.167)" d="M 6789.39,2791.75 L 6780.69,2759.27 L 6799.41,2751.87 L 6809.3,2788.8 L 6789.39,2791.75 Z " />
<path stroke="transparent" fill="#000000" transform="matrix(0.0833333 0 0 0.0833333 -107.417 -138.167)" d="M 6848.37,2783 L 6836.14,2737.36 L 6854.86,2729.96 L 6868.28,2780.05 L 6848.37,2783 Z " />
<path stroke="transparent" fill="#000000" transform="matrix(0.0833333 0 0 0.0833333 -107.417 -138.167)" d="M 6907.35,2774.25 L 6891.59,2715.44 L 6910.31,2708.04 L 6927.26,2771.3 L 6907.35,2774.25 Z " />
<path stroke="transparent" fill="#000000" transform="matrix(0.0833333 0 0 0.0833333 -107.417 -138.167)" d="M 6966.33,2765.5 L 6947.04,2693.53 L 6965.76,2686.13 L 6986.24,2762.55 L 6966.33,2765.5 Z " />
<path stroke="transparent" fill="#000000" transform="matrix(0.0833333 0 0 0.0833333 -107.417 -138.167)" d="M 7025.31,2756.76 L 7002.49,2671.62 L 7021.22,2664.22 L 7045.22,2753.8 L 7025.31,2756.76 Z " />
<path stroke="transparent" fill="#000000" transform="matrix(0.0833333 0 0 0.0833333 -107.417 -138.167)" d="M 7084.29,2748.01 L 7057.95,2649.7 L 7076.67,2642.31 L 7104.2,2745.05 L 7084.29,2748.01 Z " />
<path stroke="transparent" fill="#000000" transform="matrix(0.0833333 0 0 0.0833333 -107.417 -138.167)" d="M 7143.27,2739.26 L 7113.4,2627.79 L 7132.12,2620.39 L 7163.18,2736.3 L 7143.27,2739.26 Z " />
<path stroke="transparent" fill="#000000" transform="matrix(0.0833333 0 0 0.0833333 -107.417 -138.167)" d="M 6248.33,2391.73 L 6251.32,2380.57 L 6262.94,2378.05 L 6686.74,2801.85 L 6664.43,2807.83 L 6248.33,2391.73 Z " />
<path stroke="transparent" fill="#000000" transform="matrix(0.0833333 0 0 0.0833333 -107.417 -138.167)" d="M 5679.93,2544.03 L 5663.6,2527.7 L 6242.52,2372.58 L 6251.32,2380.57 L 6248.33,2391.73 L 5679.93,2544.03 Z " />
<path stroke="transparent" fill="#000000" transform="matrix(0.0833333 0 0 0.0833333 -107.417 -138.167)" d="M 5527.63,3112.43 L 5516.47,3115.42 L 5508.48,3106.64 L 5663.6,2527.7 L 5679.93,2544.03 L 5527.63,3112.43 Z " />
<path stroke="transparent" fill="#000000" transform="matrix(0.0833333 0 0 0.0833333 -107.417 -138.167)" d="M 5943.73,3528.53 L 5937.75,3550.84 L 5513.94,3127.03 L 5516.47,3115.42 L 5527.63,3112.43 L 5943.73,3528.53 Z " />
<path stroke="transparent" fill="#000000" transform="matrix(0.0833333 0 0 0.0833333 -107.417 -138.167)" d="M 6410.21,3403.54 L 6415.39,3422.85 L 5937.75,3550.84 L 5943.73,3528.53 L 6410.21,3403.54 Z " />
<path stroke="transparent" fill="#000000" transform="matrix(0.0833333 0 0 0.0833333 -107.417 -138.167)" d="M 6557.37,3284.66 L 6538.05,3279.48 L 6664.43,2807.83 L 6686.74,2801.85 L 6557.37,3284.66 Z " />
<path stroke="transparent" fill="#000000" transform="matrix(0.0833333 0 0 0.0833333 -107.417 -138.167)" d="M 5857.38,4082.61 L 5741.47,4051.55 L 5748.61,4032.76 L 5860.59,4062.76 L 5857.38,4082.61 Z " />
<path stroke="transparent" fill="#000000" transform="matrix(0.0833333 0 0 0.0833333 -107.417 -138.167)" d="M 5866.86,4024.07 L 5762.53,3996.11 L 5769.67,3977.32 L 5870.07,4004.22 L 5866.86,4024.07 Z " />
<path stroke="transparent" fill="#000000" transform="matrix(0.0833333 0 0 0.0833333 -107.417 -138.167)" d="M 5876.34,3965.53 L 5783.59,3940.68 L 5790.73,3921.88 L 5879.55,3945.68 L 5876.34,3965.53 Z " />
<path stroke="transparent" fill="#000000" transform="matrix(0.0833333 0 0 0.0833333 -107.417 -138.167)" d="M 5885.82,3906.98 L 5804.65,3885.24 L 5811.79,3866.45 L 5889.03,3887.14 L 5885.82,3906.98 Z " />
<path stroke="transparent" fill="#000000" transform="matrix(0.0833333 0 0 0.0833333 -107.417 -138.167)" d="M 5895.29,3848.44 L 5825.72,3829.8 L 5832.86,3811.01 L 5898.51,3828.6 L 5895.29,3848.44 Z " />
<path stroke="transparent" fill="#000000" transform="matrix(0.0833333 0 0 0.0833333 -107.417 -138.167)" d="M 5904.77,3789.9 L 5846.78,3774.36 L 5853.92,3755.57 L 5907.99,3770.06 L 5904.77,3789.9 Z " />
<path stroke="transparent" fill="#000000" transform="matrix(0.0833333 0 0 0.0833333 -107.417 -138.167)" d="M 5914.25,3731.36 L 5867.84,3718.92 L 5874.98,3700.13 L 5917.46,3711.52 L 5914.25,3731.36 Z " />
<path stroke="transparent" fill="#000000" transform="matrix(0.0833333 0 0 0.0833333 -107.417 -138.167)" d="M 5923.73,3672.82 L 5888.9,3663.49 L 5896.04,3644.69 L 5926.94,3652.97 L 5923.73,3672.82 Z " />
<path stroke="transparent" fill="#000000" transform="matrix(0.0833333 0 0 0.0833333 -107.417 -138.167)" d="M 5933.21,3614.28 L 5909.96,3608.05 L 5917.1,3589.26 L 5936.42,3594.43 L 5933.21,3614.28 Z " />
<path stroke="transparent" fill="#000000" transform="matrix(0.0833333 0 0 0.0833333 -107.417 -138.167)" d="M 5312.02,4256.45 L 5306.84,4237.13 L 5782.86,4109.58 L 5788.04,4128.9 L 5312.02,4256.45 Z " />
<path stroke="transparent" fill="#000000" transform="matrix(0.0833333 0 0 0.0833333 -107.417 -138.167)" d="M 5055.98,3300.93 L 5024.93,3185.01 L 5508.48,3106.64 L 5516.47,3115.42 L 5513.94,3127.03 L 5055.98,3300.93 Z " />
<path stroke="transparent" fill="#000000" transform="matrix(0.0833333 0 0 0.0833333 -107.417 -138.167)" d="M 5289.06,2238.01 L 5373.91,2153.16 L 5386.4,2168.96 L 5304.86,2250.5 L 5289.06,2238.01 Z " />
<path stroke="transparent" fill="#000000" transform="matrix(0.0833333 0 0 0.0833333 -107.417 -138.167)" d="M 5335.01,2274.33 L 5410.23,2199.11 L 5422.72,2214.9 L 5350.81,2286.82 L 5335.01,2274.33 Z " />
<path stroke="transparent" fill="#000000" transform="matrix(0.0833333 0 0 0.0833333 -107.417 -138.167)" d="M 5380.96,2310.65 L 5446.55,2245.05 L 5459.04,2260.85 L 5396.75,2323.14 L 5380.96,2310.65 Z " />
<path stroke="transparent" fill="#000000" transform="matrix(0.0833333 0 0 0.0833333 -107.417 -138.167)" d="M 5426.9,2346.97 L 5482.87,2291 L 5495.36,2306.8 L 5442.7,2359.46 L 5426.9,2346.97 Z " />
<path stroke="transparent" fill="#000000" transform="matrix(0.0833333 0 0 0.0833333 -107.417 -138.167)" d="M 5472.85,2383.29 L 5519.19,2336.95 L 5531.68,2352.75 L 5488.65,2395.78 L 5472.85,2383.29 Z " />
<path stroke="transparent" fill="#000000" transform="matrix(0.0833333 0 0 0.0833333 -107.417 -138.167)" d="M 5518.8,2419.61 L 5555.51,2382.9 L 5568,2398.7 L 5534.6,2432.1 L 5518.8,2419.61 Z " />
<path stroke="transparent" fill="#000000" transform="matrix(0.0833333 0 0 0.0833333 -107.417 -138.167)" d="M 5564.75,2455.93 L 5591.83,2428.85 L 5604.32,2444.64 L 5580.55,2468.41 L 5564.75,2455.93 Z " />
<path stroke="transparent" fill="#000000" transform="matrix(0.0833333 0 0 0.0833333 -107.417 -138.167)" d="M 5610.7,2492.25 L 5628.15,2474.79 L 5640.64,2490.59 L 5626.49,2504.73 L 5610.7,2492.25 Z " />
<path stroke="transparent" fill="#000000" transform="matrix(0.0833333 0 0 0.0833333 -107.417 -138.167)" d="M 6317.07,1903.36 L 6432.98,1934.42 L 6262.94,2378.05 L 6251.32,2380.57 L 6242.52,2372.58 L 6317.07,1903.36 Z " />
<path stroke="transparent" fill="#000000" transform="matrix(0.0833333 0 0 0.0833333 -107.417 -138.167)" d="M 5255.75,5777.22 L 5244.67,5778.97 L 5236.73,5771.04 L 5422.35,5199.76 L 5437.81,5216.92 L 5255.75,5777.22 Z " />
<path stroke="transparent" fill="#000000" transform="matrix(0.0833333 0 0 0.0833333 -107.417 -138.167)" d="M 5609.7,6264.38 L 5584.98,6264.38 L 5240.85,5790.73 L 5244.67,5778.97 L 5255.75,5777.22 L 5609.7,6264.38 Z " />
<path stroke="transparent" fill="#000000" transform="matrix(0.0833333 0 0 0.0833333 -107.417 -138.167)" d="M 5248.49,6761.55 L 5240.85,6738.04 L 5584.98,6264.38 L 5609.7,6264.38 L 5248.49,6761.55 Z " />
<path stroke="transparent" fill="#000000" transform="matrix(0.0833333 0 0 0.0833333 -107.417 -138.167)" d="M 4675.18,6575.27 L 4674.04,6564.38 L 4684.04,6557.12 L 5240.85,6738.04 L 5248.49,6761.55 L 4675.18,6575.27 Z " />
<path stroke="transparent" fill="#000000" transform="matrix(0.0833333 0 0 0.0833333 -107.417 -138.167)" d="M 4664.04,5970.16 L 4674.04,5964.38 L 4684.04,5971.65 L 4684.04,6557.12 L 4674.04,6564.38 L 4664.04,6558.61 L 4664.04,5970.16 Z " />
<path stroke="transparent" fill="#000000" transform="matrix(0.0833333 0 0 0.0833333 -107.417 -138.167)" d="M 4684.04,5971.65 L 4674.04,5964.38 L 4686.98,5949.66 L 5236.73,5771.04 L 5244.67,5778.97 L 5240.85,5790.73 L 4684.04,5971.65 Z " />
<path stroke="transparent" fill="#000000" transform="matrix(0.0833333 0 0 0.0833333 -107.417 -138.167)" d="M 4154.42,5675.93 L 4154.42,5652.84 L 4664.44,5947.3 L 4674.04,5964.38 L 4664.04,5970.16 L 4154.42,5675.93 Z " />
<path stroke="transparent" fill="#000000" transform="matrix(0.0833333 0 0 0.0833333 -107.417 -138.167)" d="M 3644.8,5970.16 L 3624.8,5958.61 L 4154.42,5652.84 L 4154.42,5675.93 L 3644.8,5970.16 Z " />
<path stroke="transparent" fill="#000000" transform="matrix(0.0833333 0 0 0.0833333 -107.417 -138.167)" d="M 3644.8,6558.61 L 3634.8,6564.38 L 3624.8,6558.61 L 3624.8,5958.61 L 3644.8,5970.16 L 3644.8,6558.61 Z " />
<path stroke="transparent" fill="#000000" transform="matrix(0.0833333 0 0 0.0833333 -107.417 -138.167)" d="M 4142.51,6845.96 L 4154.42,6864.38 L 4144.42,6870.16 L 3646.32,6582.58 L 3634.8,6564.38 L 3644.8,6558.61 L 4142.51,6845.96 Z " />
<path stroke="transparent" fill="#000000" transform="matrix(0.0833333 0 0 0.0833333 -107.417 -138.167)" d="M 4164.42,6870.16 L 4154.42,6864.38 L 4166.33,6845.96 L 4664.04,6558.61 L 4674.04,6564.38 L 4675.18,6575.27 L 4164.42,6870.16 Z " />
<path stroke="transparent" fill="#000000" transform="matrix(0.0833333 0 0 0.0833333 -107.417 -138.167)" d="M 4164.42,7470.16 L 4144.42,7458.61 L 4144.42,6870.16 L 4154.42,6864.38 L 4164.42,6870.16 L 4164.42,7470.16 Z " />
<path stroke="transparent" fill="#000000" transform="matrix(0.0833333 0 0 0.0833333 -107.417 -138.167)" d="M 3634.8,7775.93 L 3634.8,7752.84 L 4144.42,7458.61 L 4164.42,7470.16 L 3634.8,7775.93 Z " />
<path stroke="transparent" fill="#000000" transform="matrix(0.0833333 0 0 0.0833333 -107.417 -138.167)" d="M 3115.19,7475.93 L 3115.19,7464.38 L 3125.19,7458.61 L 3634.8,7752.84 L 3634.8,7775.93 L 3115.19,7475.93 Z " />
<path stroke="transparent" fill="#000000" transform="matrix(0.0833333 0 0 0.0833333 -107.417 -138.167)" d="M 3182.19,7431.48 L 3192.19,7414.16 L 3639.8,7672.59 L 3629.8,7689.91 L 3182.19,7431.48 Z " />
<path stroke="transparent" fill="#000000" transform="matrix(0.0833333 0 0 0.0833333 -107.417 -138.167)" d="M 3105.19,6870.16 L 3115.19,6864.38 L 3125.19,6870.16 L 3125.19,7458.61 L 3115.19,7464.38 L 3105.19,7458.61 L 3105.19,6870.16 Z " />
<path stroke="transparent" fill="#000000" transform="matrix(0.0833333 0 0 0.0833333 -107.417 -138.167)" d="M 3125.19,6870.16 L 3115.19,6864.38 L 3115.19,6852.84 L 3624.8,6558.61 L 3634.8,6564.38 L 3623.29,6582.58 L 3125.19,6870.16 Z " />
<path stroke="transparent" fill="#000000" transform="matrix(0.0833333 0 0 0.0833333 -107.417 -138.167)" d="M 2595.57,6575.93 L 2595.57,6552.84 L 3115.19,6852.84 L 3115.19,6864.38 L 3105.19,6870.16 L 2595.57,6575.93 Z " />
<path stroke="transparent" fill="#000000" transform="matrix(0.0833333 0 0 0.0833333 -107.417 -138.167)" d="M 2085.96,6870.16 L 2065.96,6858.61 L 2595.57,6552.84 L 2595.57,6575.93 L 2085.96,6870.16 Z " />
<path stroke="transparent" fill="#000000" transform="matrix(0.0833333 0 0 0.0833333 -107.417 -138.167)" d="M 2085.96,7458.61 L 2075.96,7464.38 L 2065.96,7457.97 L 2065.96,6858.61 L 2085.96,6870.16 L 2085.96,7458.61 Z " />
<path stroke="transparent" fill="#000000" transform="matrix(0.0833333 0 0 0.0833333 -107.417 -138.167)" d="M 2595.57,7752.84 L 2595.57,7764.38 L 2581.91,7768.05 L 2076.51,7476.25 L 2075.96,7464.38 L 2085.96,7458.61 L 2595.57,7752.84 Z " />
<path stroke="transparent" fill="#000000" transform="matrix(0.0833333 0 0 0.0833333 -107.417 -138.167)" d="M 2609.23,7768.05 L 2595.57,7764.38 L 2595.57,7752.84 L 3105.19,7458.61 L 3115.19,7464.38 L 3115.19,7475.93 L 2609.23,7768.05 Z " />
<path stroke="transparent" fill="#000000" transform="matrix(0.0833333 0 0 0.0833333 -107.417 -138.167)" d="M 2904.23,8279 L 2886.91,8289 L 2595.57,7784.38 L 2595.57,7764.38 L 2609.23,7768.05 L 2904.23,8279 Z " />
<path stroke="transparent" fill="#000000" transform="matrix(0.0833333 0 0 0.0833333 -107.417 -138.167)" d="M 2304.23,8289 L 2286.91,8279 L 2581.91,7768.05 L 2595.57,7764.38 L 2595.57,7784.38 L 2304.23,8289 Z " />
<path stroke="transparent" fill="#000000" transform="matrix(0.0833333 0 0 0.0833333 -107.417 -138.167)" d="M 1678.95,7762.88 L 1618.95,7658.95 L 2065.96,7457.97 L 2075.96,7464.38 L 2076.51,7476.25 L 1678.95,7762.88 Z " />
<path stroke="transparent" fill="#000000" transform="matrix(0.0833333 0 0 0.0833333 -107.417 -138.167)" d="M 3694.8,7164.38 L 3574.8,7164.38 L 3623.29,6582.58 L 3634.8,6564.38 L 3646.32,6582.58 L 3694.8,7164.38 Z " />
<path stroke="transparent" fill="#000000" transform="matrix(0.0833333 0 0 0.0833333 -107.417 -138.167)" d="M 3185.22,5774.1 L 3245.22,5670.17 L 3261.38,5682.19 L 3203.7,5782.09 L 3185.22,5774.1 Z " />
<path stroke="transparent" fill="#000000" transform="matrix(0.0833333 0 0 0.0833333 -107.417 -138.167)" d="M 3239.4,5797.52 L 3292.59,5705.39 L 3308.75,5717.4 L 3257.88,5805.5 L 3239.4,5797.52 Z " />
<path stroke="transparent" fill="#000000" transform="matrix(0.0833333 0 0 0.0833333 -107.417 -138.167)" d="M 3293.59,5820.94 L 3339.96,5740.61 L 3356.12,5752.62 L 3312.07,5828.92 L 3293.59,5820.94 Z " />
<path stroke="transparent" fill="#000000" transform="matrix(0.0833333 0 0 0.0833333 -107.417 -138.167)" d="M 3347.77,5844.35 L 3387.34,5775.82 L 3403.5,5787.83 L 3366.25,5852.34 L 3347.77,5844.35 Z " />
<path stroke="transparent" fill="#000000" transform="matrix(0.0833333 0 0 0.0833333 -107.417 -138.167)" d="M 3401.96,5867.77 L 3434.71,5811.04 L 3450.87,5823.05 L 3420.44,5875.76 L 3401.96,5867.77 Z " />
<path stroke="transparent" fill="#000000" transform="matrix(0.0833333 0 0 0.0833333 -107.417 -138.167)" d="M 3456.14,5891.19 L 3482.09,5846.25 L 3498.24,5858.27 L 3474.62,5899.18 L 3456.14,5891.19 Z " />
<path stroke="transparent" fill="#000000" transform="matrix(0.0833333 0 0 0.0833333 -107.417 -138.167)" d="M 3510.32,5914.61 L 3529.46,5881.47 L 3545.62,5893.48 L 3528.81,5922.6 L 3510.32,5914.61 Z " />
<path stroke="transparent" fill="#000000" transform="matrix(0.0833333 0 0 0.0833333 -107.417 -138.167)" d="M 3564.51,5938.03 L 3576.83,5916.68 L 3592.99,5928.7 L 3582.99,5946.02 L 3564.51,5938.03 Z " />
<path stroke="transparent" fill="#000000" transform="matrix(0.0833333 0 0 0.0833333 -107.417 -138.167)" d="M 4677.08,5361.4 L 4796.42,5373.94 L 4686.98,5949.66 L 4674.04,5964.38 L 4664.44,5947.3 L 4677.08,5361.4 Z " />
<path stroke="transparent" fill="#000000" transform="matrix(0.0833333 0 0 0.0833333 -107.417 -138.167)" d="M 4796.42,7154.83 L 4677.08,7167.37 L 4676.81,7147.29 L 4792.51,7135.13 L 4796.42,7154.83 Z " />
<path stroke="transparent" fill="#000000" transform="matrix(0.0833333 0 0 0.0833333 -107.417 -138.167)" d="M 4784.99,7097.26 L 4676.29,7108.69 L 4676.03,7088.6 L 4781.08,7077.56 L 4784.99,7097.26 Z " />
<path stroke="transparent" fill="#000000" transform="matrix(0.0833333 0 0 0.0833333 -107.417 -138.167)" d="M 4773.56,7039.7 L 4675.51,7050 L 4675.24,7029.92 L 4769.65,7020 L 4773.56,7039.7 Z " />
<path stroke="transparent" fill="#000000" transform="matrix(0.0833333 0 0 0.0833333 -107.417 -138.167)" d="M 4762.13,6982.13 L 4674.72,6991.32 L 4674.45,6971.24 L 4758.22,6962.43 L 4762.13,6982.13 Z " />
<path stroke="transparent" fill="#000000" transform="matrix(0.0833333 0 0 0.0833333 -107.417 -138.167)" d="M 4750.7,6924.57 L 4673.94,6932.63 L 4673.67,6912.55 L 4746.78,6904.87 L 4750.7,6924.57 Z " />
<path stroke="transparent" fill="#000000" transform="matrix(0.0833333 0 0 0.0833333 -107.417 -138.167)" d="M 4739.26,6867 L 4673.15,6873.95 L 4672.88,6853.87 L 4735.35,6847.3 L 4739.26,6867 Z " />
<path stroke="transparent" fill="#000000" transform="matrix(0.0833333 0 0 0.0833333 -107.417 -138.167)" d="M 4727.83,6809.44 L 4672.36,6815.27 L 4672.09,6795.19 L 4723.92,6789.74 L 4727.83,6809.44 Z " />
<path stroke="transparent" fill="#000000" transform="matrix(0.0833333 0 0 0.0833333 -107.417 -138.167)" d="M 4716.4,6751.87 L 4671.58,6756.58 L 4671.31,6736.5 L 4712.49,6732.17 L 4716.4,6751.87 Z " />
<path stroke="transparent" fill="#000000" transform="matrix(0.0833333 0 0 0.0833333 -107.417 -138.167)" d="M 4704.97,6694.31 L 4670.79,6697.9 L 4670.52,6677.82 L 4701.06,6674.61 L 4704.97,6694.31 Z " />
<path stroke="transparent" fill="#000000" transform="matrix(0.0833333 0 0 0.0833333 -107.417 -138.167)" d="M 4693.54,6636.74 L 4670,6639.22 L 4669.73,6619.13 L 4689.63,6617.04 L 4693.54,6636.74 Z " />
<text x="0" y="0" stroke="transparent" fill="#000000" transform="matrix(0.0833333 0 0 0.0833333 146.182 390.365)" style="font:normal normal normal 200px 'Arial'" >
H</text>
<path stroke="transparent" fill="#000000" transform="matrix(0.0833333 0 0 0.0833333 -107.417 -138.167)" d="M 3055.19,6381.72 L 3175.19,6381.72 L 3172.86,6401.72 L 3057.52,6401.72 L 3055.19,6381.72 Z " />
<path stroke="transparent" fill="#000000" transform="matrix(0.0833333 0 0 0.0833333 -107.417 -138.167)" d="M 3062,6440.09 L 3168.38,6440.09 L 3166.05,6460.09 L 3064.33,6460.09 L 3062,6440.09 Z " />
<path stroke="transparent" fill="#000000" transform="matrix(0.0833333 0 0 0.0833333 -107.417 -138.167)" d="M 3068.81,6498.46 L 3161.57,6498.46 L 3159.24,6518.46 L 3071.14,6518.46 L 3068.81,6498.46 Z " />
<path stroke="transparent" fill="#000000" transform="matrix(0.0833333 0 0 0.0833333 -107.417 -138.167)" d="M 3075.62,6556.83 L 3154.76,6556.83 L 3152.43,6576.83 L 3077.95,6576.83 L 3075.62,6556.83 Z " />
<path stroke="transparent" fill="#000000" transform="matrix(0.0833333 0 0 0.0833333 -107.417 -138.167)" d="M 3082.43,6615.2 L 3147.95,6615.2 L 3145.62,6635.2 L 3084.76,6635.2 L 3082.43,6615.2 Z " />
<path stroke="transparent" fill="#000000" transform="matrix(0.0833333 0 0 0.0833333 -107.417 -138.167)" d="M 3089.24,6673.57 L 3141.14,6673.57 L 3138.81,6693.57 L 3091.57,6693.57 L 3089.24,6673.57 Z " />
<path stroke="transparent" fill="#000000" transform="matrix(0.0833333 0 0 0.0833333 -107.417 -138.167)" d="M 3096.05,6731.94 L 3134.33,6731.94 L 3132,6751.94 L 3098.38,6751.94 L 3096.05,6731.94 Z " />
<path stroke="transparent" fill="#000000" transform="matrix(0.0833333 0 0 0.0833333 -107.417 -138.167)" d="M 3102.86,6790.31 L 3127.52,6790.31 L 3125.19,6810.31 L 3105.19,6810.31 L 3102.86,6790.31 Z " />
<text x="0" y="0" stroke="transparent" fill="#000000" transform="matrix(0.0833333 0 0 0.0833333 232.785 390.365)" style="font:normal normal normal 200px 'Arial'" >
H</text>
<path stroke="transparent" fill="#000000" transform="matrix(0.0833333 0 0 0.0833333 -107.417 -138.167)" d="M 4094.42,6381.72 L 4214.42,6381.72 L 4166.33,6845.96 L 4154.42,6864.38 L 4142.51,6845.96 L 4094.42,6381.72 Z " />
</svg>
