<?xml version="1.0" standalone="no" ?>
<!DOCTYPE svg PUBLIC "-//W3C//DTD SVG 1.1//EN" "http://www.w3.org/Graphics/SVG/1.1/DTD/svg11.dtd">
<svg width="478px" height="171px" viewBox="0 0 478 171" style="background-color: #ffffff00" xmlns="http://www.w3.org/2000/svg" xmlns:xlink="http://www.w3.org/1999/xlink" version="1.1" >
<text x="0" y="0" stroke="transparent" fill="#000000" transform="matrix(0.0833333 0 0 0.0833333 189.323 167.463)" style="font:normal normal normal 200px 'Arial'" >
O</text>
<text x="0" y="0" stroke="transparent" fill="#000000" transform="matrix(0.0833333 0 0 0.0833333 4.08632 17.4675)" style="font:normal normal normal 200px 'Arial'" >
HO</text>
<text x="0" y="0" stroke="transparent" fill="#000000" transform="matrix(0.0833333 0 0 0.0833333 4.08632 117.465)" style="font:normal normal normal 200px 'Arial'" >
HO</text>
<text x="0" y="0" stroke="transparent" fill="#000000" transform="matrix(0.0833333 0 0 0.0833333 102.726 167.463)" style="font:normal normal normal 200px 'Arial'" >
OH</text>
<text x="0" y="0" stroke="transparent" fill="#000000" transform="matrix(0.0833333 0 0 0.0833333 449.128 117.465)" style="font:normal normal normal 200px 'Arial'" >
OH</text>
<text x="0" y="0" stroke="transparent" fill="#000000" transform="matrix(0.0833333 0 0 0.0833333 449.128 17.4675)" style="font:normal normal normal 200px 'Arial'" >
OH</text>
<path stroke="transparent" fill="#000000" transform="matrix(0.0833333 0 0 0.0833333 -196.875 -283)" d="M 6790.79,3516.06 L 6790.79,3539.16 L 6281.17,3833.38 L 6261.17,3821.83 L 6790.79,3516.06 Z " />
<path stroke="transparent" fill="#000000" transform="matrix(0.0833333 0 0 0.0833333 -196.875 -283)" d="M 6785.79,3602.09 L 6795.79,3619.41 L 6348.17,3877.83 L 6338.17,3860.51 L 6785.79,3602.09 Z " />
<path stroke="transparent" fill="#000000" transform="matrix(0.0833333 0 0 0.0833333 -196.875 -283)" d="M 7310.41,3816.05 L 7310.41,3827.6 L 7300.41,3833.38 L 6790.79,3539.16 L 6790.79,3516.06 L 7310.41,3816.05 Z " />
<path stroke="transparent" fill="#000000" transform="matrix(0.0833333 0 0 0.0833333 -196.875 -283)" d="M 7320.41,4421.81 L 7310.41,4427.58 L 7300.41,4421.81 L 7300.41,3833.38 L 7310.41,3827.6 L 7320.41,3833.38 L 7320.41,4421.81 Z " />
<path stroke="transparent" fill="#000000" transform="matrix(0.0833333 0 0 0.0833333 -196.875 -283)" d="M 7248.41,4386.01 L 7228.41,4386.01 L 7228.41,3869.17 L 7248.41,3869.17 L 7248.41,4386.01 Z " />
<path stroke="transparent" fill="#000000" transform="matrix(0.0833333 0 0 0.0833333 -196.875 -283)" d="M 6790.79,4739.12 L 6790.79,4716.03 L 7300.41,4421.81 L 7310.41,4427.58 L 7310.41,4439.13 L 6790.79,4739.12 Z " />
<path stroke="transparent" fill="#000000" transform="matrix(0.0833333 0 0 0.0833333 -196.875 -283)" d="M 6271.17,4439.13 L 6271.17,4427.58 L 6281.17,4421.81 L 6790.79,4716.03 L 6790.79,4739.12 L 6271.17,4439.13 Z " />
<path stroke="transparent" fill="#000000" transform="matrix(0.0833333 0 0 0.0833333 -196.875 -283)" d="M 6338.17,4394.67 L 6348.17,4377.35 L 6795.79,4635.78 L 6785.79,4653.1 L 6338.17,4394.67 Z " />
<path stroke="transparent" fill="#000000" transform="matrix(0.0833333 0 0 0.0833333 -196.875 -283)" d="M 6281.17,4421.81 L 6271.17,4427.58 L 6261.17,4421.81 L 6261.17,3821.83 L 6281.17,3833.38 L 6281.17,4421.81 Z " />
<path stroke="transparent" fill="#000000" transform="matrix(0.0833333 0 0 0.0833333 -196.875 -283)" d="M 5751.62,4739.12 L 5751.62,4716.03 L 6261.17,4421.81 L 6271.17,4427.58 L 6271.17,4439.13 L 5751.62,4739.12 Z " />
<path stroke="transparent" fill="#000000" transform="matrix(0.0833333 0 0 0.0833333 -196.875 -283)" d="M 5232,4439.13 L 5232,4416.04 L 5751.62,4716.03 L 5751.62,4739.12 L 5232,4439.13 Z " />
<path stroke="transparent" fill="#000000" transform="matrix(0.0833333 0 0 0.0833333 -196.875 -283)" d="M 5227,4519.38 L 5237,4502.06 L 5720.62,4781.27 L 5710.62,4798.59 L 5227,4519.38 Z " />
<path stroke="transparent" fill="#000000" transform="matrix(0.0833333 0 0 0.0833333 -196.875 -283)" d="M 4712.38,4739.12 L 4712.38,4716.03 L 5232,4416.04 L 5232,4439.13 L 4712.38,4739.12 Z " />
<path stroke="transparent" fill="#000000" transform="matrix(0.0833333 0 0 0.0833333 -196.875 -283)" d="M 4758.38,5222.39 L 4738.38,5222.39 L 4738.38,4706.79 L 4758.38,4706.79 L 4758.38,5222.39 Z " />
<path stroke="transparent" fill="#000000" transform="matrix(0.0833333 0 0 0.0833333 -196.875 -283)" d="M 4686.38,5222.39 L 4666.38,5222.39 L 4666.38,4706.79 L 4686.38,4706.79 L 4686.38,5222.39 Z " />
<path stroke="transparent" fill="#000000" transform="matrix(0.0833333 0 0 0.0833333 -196.875 -283)" d="M 4192.83,4439.13 L 4192.83,4427.58 L 4202.83,4421.81 L 4712.38,4716.03 L 4712.38,4739.12 L 4192.83,4439.13 Z " />
<path stroke="transparent" fill="#000000" transform="matrix(0.0833333 0 0 0.0833333 -196.875 -283)" d="M 3683.21,4733.35 L 3673.21,4727.57 L 3673.21,4716.03 L 4182.83,4421.81 L 4192.83,4427.58 L 4192.83,4439.13 L 3683.21,4733.35 Z " />
<path stroke="transparent" fill="#000000" transform="matrix(0.0833333 0 0 0.0833333 -196.875 -283)" d="M 3678.21,4653.1 L 3668.21,4635.78 L 4115.83,4377.35 L 4125.83,4394.67 L 3678.21,4653.1 Z " />
<path stroke="transparent" fill="#000000" transform="matrix(0.0833333 0 0 0.0833333 -196.875 -283)" d="M 3153.59,4439.13 L 3153.59,4427.58 L 3163.59,4421.81 L 3673.21,4716.03 L 3673.21,4727.57 L 3663.21,4733.35 L 3153.59,4439.13 Z " />
<path stroke="transparent" fill="#000000" transform="matrix(0.0833333 0 0 0.0833333 -196.875 -283)" d="M 3143.59,3833.38 L 3153.59,3827.6 L 3163.59,3833.38 L 3163.59,4421.81 L 3153.59,4427.58 L 3143.59,4421.81 L 3143.59,3833.38 Z " />
<path stroke="transparent" fill="#000000" transform="matrix(0.0833333 0 0 0.0833333 -196.875 -283)" d="M 3215.59,3869.17 L 3235.59,3869.17 L 3235.59,4386.01 L 3215.59,4386.01 L 3215.59,3869.17 Z " />
<path stroke="transparent" fill="#000000" transform="matrix(0.0833333 0 0 0.0833333 -196.875 -283)" d="M 3673.21,3516.06 L 3673.21,3539.16 L 3163.59,3833.38 L 3153.59,3827.6 L 3153.59,3816.05 L 3673.21,3516.06 Z " />
<path stroke="transparent" fill="#000000" transform="matrix(0.0833333 0 0 0.0833333 -196.875 -283)" d="M 4202.83,3821.83 L 4182.83,3833.38 L 3673.21,3539.16 L 3673.21,3516.06 L 4202.83,3821.83 Z " />
<path stroke="transparent" fill="#000000" transform="matrix(0.0833333 0 0 0.0833333 -196.875 -283)" d="M 4125.83,3860.51 L 4115.83,3877.83 L 3668.21,3619.41 L 3678.21,3602.09 L 4125.83,3860.51 Z " />
<path stroke="transparent" fill="#000000" transform="matrix(0.0833333 0 0 0.0833333 -196.875 -283)" d="M 4182.83,3833.38 L 4202.83,3821.83 L 4202.83,4421.81 L 4192.83,4427.58 L 4182.83,4421.81 L 4182.83,3833.38 Z " />
<path stroke="transparent" fill="#000000" transform="matrix(0.0833333 0 0 0.0833333 -196.875 -283)" d="M 2729,3594.02 L 2739,3576.7 L 3153.59,3816.05 L 3153.59,3827.6 L 3143.59,3833.38 L 2729,3594.02 Z " />
<path stroke="transparent" fill="#000000" transform="matrix(0.0833333 0 0 0.0833333 -196.875 -283)" d="M 2731.58,4682.77 L 2721.58,4665.45 L 3143.59,4421.81 L 3153.59,4427.58 L 3153.59,4439.13 L 2731.58,4682.77 Z " />
<path stroke="transparent" fill="#000000" transform="matrix(0.0833333 0 0 0.0833333 -196.875 -283)" d="M 3683.21,5222.39 L 3663.21,5222.39 L 3663.21,4733.35 L 3673.21,4727.57 L 3683.21,4733.35 L 3683.21,5222.39 Z " />
<path stroke="transparent" fill="#000000" transform="matrix(0.0833333 0 0 0.0833333 -196.875 -283)" d="M 7742.41,4665.44 L 7732.41,4682.76 L 7310.41,4439.13 L 7310.41,4427.58 L 7320.41,4421.81 L 7742.41,4665.44 Z " />
<path stroke="transparent" fill="#000000" transform="matrix(0.0833333 0 0 0.0833333 -196.875 -283)" d="M 7725.43,3576.45 L 7735.43,3593.78 L 7320.41,3833.38 L 7310.41,3827.6 L 7310.41,3816.05 L 7725.43,3576.45 Z " />
</svg>
