<?xml version="1.0" standalone="no" ?>
<!DOCTYPE svg PUBLIC "-//W3C//DTD SVG 1.1//EN" "http://www.w3.org/Graphics/SVG/1.1/DTD/svg11.dtd">
<svg width="935px" height="372px" viewBox="0 0 935 372" style="background-color: #ffffff00" xmlns="http://www.w3.org/2000/svg" xmlns:xlink="http://www.w3.org/1999/xlink" version="1.1" >
<text x="0" y="0" stroke="transparent" fill="#000000" transform="matrix(0.0833333 0 0 0.0833333 838.123 242.783)" style="font:normal normal normal 200px 'Arial'" >
O</text>
<text x="0" y="0" stroke="transparent" fill="#000000" transform="matrix(0.0833333 0 0 0.0833333 881.411 317.759)" style="font:normal normal normal 200px 'Arial'" >
O</text>
<text x="0" y="0" stroke="transparent" fill="#000000" transform="matrix(0.0833333 0 0 0.0833333 708.26 317.759)" style="font:normal normal normal 200px 'Arial'" >
O</text>
<text x="0" y="0" stroke="transparent" fill="#000000" transform="matrix(0.0833333 0 0 0.0833333 664.972 242.783)" style="font:normal normal normal 200px 'Arial'" >
O</text>
<text x="0" y="0" stroke="transparent" fill="#000000" transform="matrix(0.0833333 0 0 0.0833333 436.935 361.047)" style="font:normal normal normal 200px 'Arial'" >
OH</text>
<text x="0" y="0" stroke="transparent" fill="#000000" transform="matrix(0.0833333 0 0 0.0833333 275.384 317.759)" style="font:normal normal normal 200px 'Arial'" >
O</text>
<text x="0" y="0" stroke="transparent" fill="#000000" transform="matrix(0.0833333 0 0 0.0833333 188.808 317.759)" style="font:normal normal normal 200px 'Arial'" >
O</text>
<text x="0" y="0" stroke="transparent" fill="#000000" transform="matrix(0.0833333 0 0 0.0833333 102.233 367.743)" style="font:normal normal normal 200px 'Arial'" >
O</text>
<text x="0" y="0" stroke="transparent" fill="#000000" transform="matrix(0.0833333 0 0 0.0833333 46.9094 292.767)" style="font:normal normal normal 200px 'Arial'" >
HO</text>
<text x="0" y="0" stroke="transparent" fill="#000000" transform="matrix(0.0833333 0 0 0.0833333 102.233 217.791)" style="font:normal normal normal 200px 'Arial'" >
O</text>
<text x="0" y="0" stroke="transparent" fill="#000000" transform="matrix(0.0833333 0 0 0.0833333 145.521 142.814)" style="font:normal normal normal 200px 'Arial'" >
O</text>
<text x="0" y="0" stroke="transparent" fill="#000000" transform="matrix(0.0833333 0 0 0.0833333 188.808 17.8537)" style="font:normal normal normal 200px 'Arial'" >
OH</text>
<text x="0" y="0" stroke="transparent" fill="#000000" transform="matrix(0.0833333 0 0 0.0833333 102.233 17.8537)" style="font:normal normal normal 200px 'Arial'" >
OH</text>
<text x="0" y="0" stroke="transparent" fill="#000000" transform="matrix(0.0833333 0 0 0.0833333 3.62177 67.838)" style="font:normal normal normal 200px 'Arial'" >
HO</text>
<text x="0" y="0" stroke="transparent" fill="#000000" transform="matrix(0.0833333 0 0 0.0833333 3.62177 167.806)" style="font:normal normal normal 200px 'Arial'" >
HO</text>
<text x="0" y="0" stroke="transparent" fill="#000000" transform="matrix(0.0833333 0 0 0.0833333 188.808 167.806)" style="font:normal normal normal 200px 'Arial'" >
OH</text>
<text x="0" y="0" stroke="transparent" fill="#000000" transform="matrix(0.0833333 0 0 0.0833333 275.384 217.791)" style="font:normal normal normal 200px 'Arial'" >
O</text>
<text x="0" y="0" stroke="transparent" fill="#000000" transform="matrix(0.0833333 0 0 0.0833333 232.096 142.814)" style="font:normal normal normal 200px 'Arial'" >
O</text>
<text x="0" y="0" stroke="transparent" fill="#000000" transform="matrix(0.0833333 0 0 0.0833333 275.384 17.8537)" style="font:normal normal normal 200px 'Arial'" >
OH</text>
<text x="0" y="0" stroke="transparent" fill="#000000" transform="matrix(0.0833333 0 0 0.0833333 361.959 67.838)" style="font:normal normal normal 200px 'Arial'" >
OH</text>
<text x="0" y="0" stroke="transparent" fill="#000000" transform="matrix(0.0833333 0 0 0.0833333 361.959 167.806)" style="font:normal normal normal 200px 'Arial'" >
OH</text>
<text x="0" y="0" stroke="transparent" fill="#000000" transform="matrix(0.0833333 0 0 0.0833333 708.26 167.806)" style="font:normal normal normal 200px 'Arial'" >
OH</text>
<text x="0" y="0" stroke="transparent" fill="#000000" transform="matrix(0.0833333 0 0 0.0833333 527.117 123.333)" style="font:normal normal normal 200px 'Arial'" >
O</text>
<path stroke="transparent" fill="#000000" transform="matrix(0.0833333 0 0 0.0833333 -157.383 -223.167)" d="M 10995.1,5507.67 L 10985.2,5513.39 L 10975.3,5507.67 L 10975.3,4913.58 L 10995.1,4913.58 L 10995.1,5507.67 Z " />
<path stroke="transparent" fill="#000000" transform="matrix(0.0833333 0 0 0.0833333 -157.383 -223.167)" d="M 11504.6,5801.84 L 11504.6,5813.3 L 11494.7,5819.03 L 10985.2,5524.85 L 10985.2,5513.39 L 10995.1,5507.67 L 11504.6,5801.84 Z " />
<path stroke="transparent" fill="#000000" transform="matrix(0.0833333 0 0 0.0833333 -157.383 -223.167)" d="M 11514.5,6413.11 L 11494.7,6413.11 L 11494.7,5819.03 L 11504.6,5813.3 L 11514.5,5819.03 L 11514.5,6413.11 Z " />
<path stroke="transparent" fill="#000000" transform="matrix(0.0833333 0 0 0.0833333 -157.383 -223.167)" d="M 11919.3,5562.43 L 11929.2,5579.62 L 11514.5,5819.03 L 11504.6,5813.3 L 11504.6,5801.84 L 11919.3,5562.43 Z " />
<path stroke="transparent" fill="#000000" transform="matrix(0.0833333 0 0 0.0833333 -157.383 -223.167)" d="M 12543.5,5801.84 L 12543.5,5824.76 L 12119.4,5579.87 L 12129.3,5562.68 L 12543.5,5801.84 Z " />
<path stroke="transparent" fill="#000000" transform="matrix(0.0833333 0 0 0.0833333 -157.383 -223.167)" d="M 12589.4,6307.69 L 12569.6,6307.69 L 12569.6,5792.52 L 12589.4,5792.52 L 12589.4,6307.69 Z " />
<path stroke="transparent" fill="#000000" transform="matrix(0.0833333 0 0 0.0833333 -157.383 -223.167)" d="M 12517.5,6307.69 L 12497.6,6307.69 L 12497.6,5792.52 L 12517.5,5792.52 L 12517.5,6307.69 Z " />
<path stroke="transparent" fill="#000000" transform="matrix(0.0833333 0 0 0.0833333 -157.383 -223.167)" d="M 13058,5504.8 L 13067.9,5521.99 L 12543.5,5824.76 L 12543.5,5801.84 L 13058,5504.8 Z " />
<path stroke="transparent" fill="#000000" transform="matrix(0.0833333 0 0 0.0833333 -157.383 -223.167)" d="M 10465.7,5824.76 L 10465.7,5801.84 L 10975.3,5507.67 L 10985.2,5513.39 L 10985.2,5524.85 L 10465.7,5824.76 Z " />
<path stroke="transparent" fill="#000000" transform="matrix(0.0833333 0 0 0.0833333 -157.383 -223.167)" d="M 10511.6,6307.69 L 10491.8,6307.69 L 10491.8,5792.52 L 10511.6,5792.52 L 10511.6,6307.69 Z " />
<path stroke="transparent" fill="#000000" transform="matrix(0.0833333 0 0 0.0833333 -157.383 -223.167)" d="M 10439.7,6307.69 L 10419.8,6307.69 L 10419.8,5792.52 L 10439.7,5792.52 L 10439.7,6307.69 Z " />
<path stroke="transparent" fill="#000000" transform="matrix(0.0833333 0 0 0.0833333 -157.383 -223.167)" d="M 10041.6,5579.87 L 10051.5,5562.68 L 10465.7,5801.84 L 10465.7,5824.76 L 10041.6,5579.87 Z " />
<path stroke="transparent" fill="#000000" transform="matrix(0.0833333 0 0 0.0833333 -157.383 -223.167)" d="M 9936.35,4919.31 L 9956.19,4907.86 L 9956.19,5407.98 L 9936.35,5407.98 L 9936.35,4919.31 Z " />
<path stroke="transparent" fill="#000000" transform="matrix(0.0833333 0 0 0.0833333 -157.383 -223.167)" d="M 9436.74,4630.86 L 9426.82,4613.68 L 9446.66,4613.68 L 9956.19,4907.86 L 9936.35,4919.31 L 9436.74,4630.86 Z " />
<path stroke="transparent" fill="#000000" transform="matrix(0.0833333 0 0 0.0833333 -157.383 -223.167)" d="M 9436.74,5219.22 L 9416.9,5207.76 L 9416.9,4619.41 L 9426.82,4613.68 L 9436.74,4630.86 L 9436.74,5219.22 Z " />
<path stroke="transparent" fill="#000000" transform="matrix(0.0833333 0 0 0.0833333 -157.383 -223.167)" d="M 8907.37,5524.85 L 8907.37,5501.94 L 9416.9,5207.76 L 9436.74,5219.22 L 8907.37,5524.85 Z " />
<path stroke="transparent" fill="#000000" transform="matrix(0.0833333 0 0 0.0833333 -157.383 -223.167)" d="M 8387.91,5224.94 L 8387.91,5213.49 L 8397.84,5207.76 L 8907.37,5501.94 L 8907.37,5524.85 L 8387.91,5224.94 Z " />
<path stroke="transparent" fill="#000000" transform="matrix(0.0833333 0 0 0.0833333 -157.383 -223.167)" d="M 8377.99,4619.41 L 8387.91,4613.68 L 8397.84,4619.41 L 8397.84,5207.76 L 8387.91,5213.49 L 8377.99,5207.76 L 8377.99,4619.41 Z " />
<path stroke="transparent" fill="#000000" transform="matrix(0.0833333 0 0 0.0833333 -157.383 -223.167)" d="M 7868.46,4325.23 L 7868.46,4302.32 L 8387.91,4602.22 L 8387.91,4613.68 L 8377.99,4619.41 L 7868.46,4325.23 Z " />
<path stroke="transparent" fill="#000000" transform="matrix(0.0833333 0 0 0.0833333 -157.383 -223.167)" d="M 7863.5,4405.48 L 7873.42,4388.29 L 8320.9,4646.64 L 8310.98,4663.83 L 7863.5,4405.48 Z " />
<path stroke="transparent" fill="#000000" transform="matrix(0.0833333 0 0 0.0833333 -157.383 -223.167)" d="M 7358.93,4619.41 L 7339.09,4607.95 L 7868.46,4302.32 L 7868.46,4325.23 L 7358.93,4619.41 Z " />
<path stroke="transparent" fill="#000000" transform="matrix(0.0833333 0 0 0.0833333 -157.383 -223.167)" d="M 7358.93,5207.76 L 7349.01,5213.49 L 7339.09,5207.76 L 7339.09,4607.95 L 7358.93,4619.41 L 7358.93,5207.76 Z " />
<path stroke="transparent" fill="#000000" transform="matrix(0.0833333 0 0 0.0833333 -157.383 -223.167)" d="M 7858.54,5496.21 L 7868.46,5513.39 L 7858.54,5519.12 L 7349.01,5224.94 L 7349.01,5213.49 L 7358.93,5207.76 L 7858.54,5496.21 Z " />
<path stroke="transparent" fill="#000000" transform="matrix(0.0833333 0 0 0.0833333 -157.383 -223.167)" d="M 7878.38,5519.12 L 7868.46,5513.39 L 7878.38,5496.21 L 8377.99,5207.76 L 8387.91,5213.49 L 8387.91,5224.94 L 7878.38,5519.12 Z " />
<path stroke="transparent" fill="#000000" transform="matrix(0.0833333 0 0 0.0833333 -157.383 -223.167)" d="M 7878.38,6118.93 L 7858.54,6107.48 L 7858.54,5519.12 L 7868.46,5513.39 L 7878.38,5519.12 L 7878.38,6118.93 Z " />
<path stroke="transparent" fill="#000000" transform="matrix(0.0833333 0 0 0.0833333 -157.383 -223.167)" d="M 7349.01,6424.57 L 7349.01,6401.65 L 7858.54,6107.48 L 7878.38,6118.93 L 7349.01,6424.57 Z " />
<path stroke="transparent" fill="#000000" transform="matrix(0.0833333 0 0 0.0833333 -157.383 -223.167)" d="M 6829.56,6124.66 L 6829.56,6113.21 L 6839.48,6107.48 L 7349.01,6401.65 L 7349.01,6424.57 L 6829.56,6124.66 Z " />
<path stroke="transparent" fill="#000000" transform="matrix(0.0833333 0 0 0.0833333 -157.383 -223.167)" d="M 6819.64,5519.12 L 6829.56,5513.39 L 6839.48,5519.12 L 6839.48,6107.48 L 6829.56,6113.21 L 6819.64,6107.48 L 6819.64,5519.12 Z " />
<path stroke="transparent" fill="#000000" transform="matrix(0.0833333 0 0 0.0833333 -157.383 -223.167)" d="M 6839.48,5519.12 L 6829.56,5513.39 L 6839.48,5496.21 L 7339.09,5207.76 L 7349.01,5213.49 L 7349.01,5224.94 L 6839.48,5519.12 Z " />
<path stroke="transparent" fill="#000000" transform="matrix(0.0833333 0 0 0.0833333 -157.383 -223.167)" d="M 6310.11,5224.94 L 6310.11,5202.03 L 6819.64,5496.21 L 6829.56,5513.39 L 6819.64,5519.12 L 6310.11,5224.94 Z " />
<path stroke="transparent" fill="#000000" transform="matrix(0.0833333 0 0 0.0833333 -157.383 -223.167)" d="M 5800.58,5519.12 L 5780.73,5507.67 L 6310.11,5202.03 L 6310.11,5224.94 L 5800.58,5519.12 Z " />
<path stroke="transparent" fill="#000000" transform="matrix(0.0833333 0 0 0.0833333 -157.383 -223.167)" d="M 5800.58,6107.48 L 5790.66,6113.21 L 5780.73,6107.48 L 5780.73,5507.67 L 5800.58,5519.12 L 5800.58,6107.48 Z " />
<path stroke="transparent" fill="#000000" transform="matrix(0.0833333 0 0 0.0833333 -157.383 -223.167)" d="M 6310.11,6401.65 L 6310.11,6413.11 L 6302.51,6420.18 L 5790.66,6124.66 L 5790.66,6113.21 L 5800.58,6107.48 L 6310.11,6401.65 Z " />
<path stroke="transparent" fill="#000000" transform="matrix(0.0833333 0 0 0.0833333 -157.383 -223.167)" d="M 6324.38,6416.33 L 6310.11,6413.11 L 6310.11,6401.65 L 6819.64,6107.48 L 6829.56,6113.21 L 6829.56,6124.66 L 6324.38,6416.33 Z " />
<path stroke="transparent" fill="#000000" transform="matrix(0.0833333 0 0 0.0833333 -157.383 -223.167)" d="M 6062.16,6962.56 L 5958.24,6902.56 L 5969.74,6886.29 L 6070.51,6944.47 L 6062.16,6962.56 Z " />
<path stroke="transparent" fill="#000000" transform="matrix(0.0833333 0 0 0.0833333 -157.383 -223.167)" d="M 6086.74,6909.26 L 5992.11,6854.63 L 6003.61,6838.35 L 6095.09,6891.17 L 6086.74,6909.26 Z " />
<path stroke="transparent" fill="#000000" transform="matrix(0.0833333 0 0 0.0833333 -157.383 -223.167)" d="M 6111.32,6855.96 L 6025.98,6806.69 L 6037.47,6790.41 L 6119.67,6837.87 L 6111.32,6855.96 Z " />
<path stroke="transparent" fill="#000000" transform="matrix(0.0833333 0 0 0.0833333 -157.383 -223.167)" d="M 6135.91,6802.67 L 6059.84,6758.75 L 6071.34,6742.48 L 6144.25,6784.57 L 6135.91,6802.67 Z " />
<path stroke="transparent" fill="#000000" transform="matrix(0.0833333 0 0 0.0833333 -157.383 -223.167)" d="M 6160.49,6749.37 L 6093.71,6710.81 L 6105.21,6694.54 L 6168.83,6731.27 L 6160.49,6749.37 Z " />
<path stroke="transparent" fill="#000000" transform="matrix(0.0833333 0 0 0.0833333 -157.383 -223.167)" d="M 6185.07,6696.07 L 6127.58,6662.88 L 6139.08,6646.6 L 6193.41,6677.97 L 6185.07,6696.07 Z " />
<path stroke="transparent" fill="#000000" transform="matrix(0.0833333 0 0 0.0833333 -157.383 -223.167)" d="M 6209.65,6642.77 L 6161.45,6614.94 L 6172.95,6598.67 L 6217.99,6624.67 L 6209.65,6642.77 Z " />
<path stroke="transparent" fill="#000000" transform="matrix(0.0833333 0 0 0.0833333 -157.383 -223.167)" d="M 6234.23,6589.47 L 6195.32,6567 L 6206.81,6550.73 L 6242.57,6571.38 L 6234.23,6589.47 Z " />
<path stroke="transparent" fill="#000000" transform="matrix(0.0833333 0 0 0.0833333 -157.383 -223.167)" d="M 6258.81,6536.17 L 6229.18,6519.07 L 6240.68,6502.79 L 6267.15,6518.08 L 6258.81,6536.17 Z " />
<path stroke="transparent" fill="#000000" transform="matrix(0.0833333 0 0 0.0833333 -157.383 -223.167)" d="M 6283.39,6482.87 L 6263.05,6471.13 L 6274.55,6454.86 L 6291.73,6464.78 L 6283.39,6482.87 Z " />
<path stroke="transparent" fill="#000000" transform="matrix(0.0833333 0 0 0.0833333 -157.383 -223.167)" d="M 6675.92,6922.64 L 6548.59,6942.48 L 6302.51,6420.18 L 6310.11,6413.11 L 6324.38,6416.33 L 6675.92,6922.64 Z " />
<path stroke="transparent" fill="#000000" transform="matrix(0.0833333 0 0 0.0833333 -157.383 -223.167)" d="M 7101.57,6922.64 L 7101.57,6942.48 L 6548.59,6942.48 L 6675.92,6922.64 L 7101.57,6922.64 Z " />
<path stroke="transparent" fill="#000000" transform="matrix(0.0833333 0 0 0.0833333 -157.383 -223.167)" d="M 5369,6368.1 L 5359.08,6350.92 L 5780.73,6107.48 L 5790.66,6113.21 L 5790.66,6124.66 L 5369,6368.1 Z " />
<path stroke="transparent" fill="#000000" transform="matrix(0.0833333 0 0 0.0833333 -157.383 -223.167)" d="M 4793.49,6148.76 L 4803.41,6131.58 L 4821.73,6139.54 L 4809.54,6160.64 L 4793.49,6148.76 Z " />
<path stroke="transparent" fill="#000000" transform="matrix(0.0833333 0 0 0.0833333 -157.383 -223.167)" d="M 4841.9,6184.59 L 4858.65,6155.58 L 4876.96,6163.54 L 4857.95,6196.48 L 4841.9,6184.59 Z " />
<path stroke="transparent" fill="#000000" transform="matrix(0.0833333 0 0 0.0833333 -157.383 -223.167)" d="M 4890.3,6220.43 L 4913.88,6179.58 L 4932.2,6187.54 L 4906.35,6232.31 L 4890.3,6220.43 Z " />
<path stroke="transparent" fill="#000000" transform="matrix(0.0833333 0 0 0.0833333 -157.383 -223.167)" d="M 4938.7,6256.26 L 4969.12,6203.58 L 4987.43,6211.54 L 4954.75,6268.14 L 4938.7,6256.26 Z " />
<path stroke="transparent" fill="#000000" transform="matrix(0.0833333 0 0 0.0833333 -157.383 -223.167)" d="M 4987.11,6292.09 L 5024.35,6227.58 L 5042.67,6235.54 L 5003.16,6303.97 L 4987.11,6292.09 Z " />
<path stroke="transparent" fill="#000000" transform="matrix(0.0833333 0 0 0.0833333 -157.383 -223.167)" d="M 5035.51,6327.92 L 5079.58,6251.59 L 5097.9,6259.55 L 5051.56,6339.81 L 5035.51,6327.92 Z " />
<path stroke="transparent" fill="#000000" transform="matrix(0.0833333 0 0 0.0833333 -157.383 -223.167)" d="M 5083.91,6363.76 L 5134.82,6275.59 L 5153.13,6283.55 L 5099.96,6375.64 L 5083.91,6363.76 Z " />
<path stroke="transparent" fill="#000000" transform="matrix(0.0833333 0 0 0.0833333 -157.383 -223.167)" d="M 5132.32,6399.59 L 5190.05,6299.59 L 5208.37,6307.55 L 5148.37,6411.47 L 5132.32,6399.59 Z " />
<path stroke="transparent" fill="#000000" transform="matrix(0.0833333 0 0 0.0833333 -157.383 -223.167)" d="M 4741.83,5519.12 L 4751.75,5513.39 L 4761.67,5519.77 L 4761.67,6118.93 L 4741.83,6107.48 L 4741.83,5519.12 Z " />
<path stroke="transparent" fill="#000000" transform="matrix(0.0833333 0 0 0.0833333 -157.383 -223.167)" d="M 4232.3,5224.94 L 4232.3,5202.03 L 4751.19,5501.62 L 4751.75,5513.39 L 4741.83,5519.12 L 4232.3,5224.94 Z " />
<path stroke="transparent" fill="#000000" transform="matrix(0.0833333 0 0 0.0833333 -157.383 -223.167)" d="M 3722.77,5519.12 L 3712.85,5513.39 L 3713.41,5501.62 L 4232.3,5202.03 L 4232.3,5224.94 L 3722.77,5519.12 Z " />
<path stroke="transparent" fill="#000000" transform="matrix(0.0833333 0 0 0.0833333 -157.383 -223.167)" d="M 3722.77,6107.48 L 3702.93,6118.93 L 3702.93,5519.77 L 3712.85,5513.39 L 3722.77,5519.12 L 3722.77,6107.48 Z " />
<path stroke="transparent" fill="#000000" transform="matrix(0.0833333 0 0 0.0833333 -157.383 -223.167)" d="M 4144.42,6350.92 L 4134.5,6368.1 L 3702.93,6118.93 L 3722.77,6107.48 L 4144.42,6350.92 Z " />
<path stroke="transparent" fill="#000000" transform="matrix(0.0833333 0 0 0.0833333 -157.383 -223.167)" d="M 4330.1,6368.1 L 4320.18,6350.92 L 4741.83,6107.48 L 4761.67,6118.93 L 4330.1,6368.1 Z " />
<path stroke="transparent" fill="#000000" transform="matrix(0.0833333 0 0 0.0833333 -157.383 -223.167)" d="M 3270.1,6438.11 L 3210.1,6334.18 L 3228.3,6326.01 L 3286.28,6426.44 L 3270.1,6438.11 Z " />
<path stroke="transparent" fill="#000000" transform="matrix(0.0833333 0 0 0.0833333 -157.383 -223.167)" d="M 3318.21,6403.4 L 3264.21,6309.88 L 3282.41,6301.71 L 3334.38,6391.73 L 3318.21,6403.4 Z " />
<path stroke="transparent" fill="#000000" transform="matrix(0.0833333 0 0 0.0833333 -157.383 -223.167)" d="M 3366.31,6368.69 L 3318.33,6285.58 L 3336.52,6277.4 L 3382.48,6357.02 L 3366.31,6368.69 Z " />
<path stroke="transparent" fill="#000000" transform="matrix(0.0833333 0 0 0.0833333 -157.383 -223.167)" d="M 3414.41,6333.98 L 3372.44,6261.27 L 3390.63,6253.1 L 3430.59,6322.31 L 3414.41,6333.98 Z " />
<path stroke="transparent" fill="#000000" transform="matrix(0.0833333 0 0 0.0833333 -157.383 -223.167)" d="M 3462.52,6299.27 L 3426.55,6236.97 L 3444.74,6228.8 L 3478.69,6287.6 L 3462.52,6299.27 Z " />
<path stroke="transparent" fill="#000000" transform="matrix(0.0833333 0 0 0.0833333 -157.383 -223.167)" d="M 3510.62,6264.56 L 3480.66,6212.66 L 3498.85,6204.49 L 3526.79,6252.89 L 3510.62,6264.56 Z " />
<path stroke="transparent" fill="#000000" transform="matrix(0.0833333 0 0 0.0833333 -157.383 -223.167)" d="M 3558.72,6229.85 L 3534.77,6188.36 L 3552.96,6180.19 L 3574.9,6218.18 L 3558.72,6229.85 Z " />
<path stroke="transparent" fill="#000000" transform="matrix(0.0833333 0 0 0.0833333 -157.383 -223.167)" d="M 3606.83,6195.14 L 3588.88,6164.05 L 3607.07,6155.88 L 3623,6183.47 L 3606.83,6195.14 Z " />
<path stroke="transparent" fill="#000000" transform="matrix(0.0833333 0 0 0.0833333 -157.383 -223.167)" d="M 3654.93,6160.43 L 3642.99,6139.75 L 3661.18,6131.58 L 3671.1,6148.76 L 3654.93,6160.43 Z " />
<path stroke="transparent" fill="#000000" transform="matrix(0.0833333 0 0 0.0833333 -157.383 -223.167)" d="M 3239.31,6907.5 L 3219.47,6907.5 L 3219.47,6392.33 L 3239.31,6392.33 L 3239.31,6907.5 Z " />
<path stroke="transparent" fill="#000000" transform="matrix(0.0833333 0 0 0.0833333 -157.383 -223.167)" d="M 3167.33,6907.5 L 3147.49,6907.5 L 3147.49,6392.33 L 3167.33,6392.33 L 3167.33,6907.5 Z " />
<path stroke="transparent" fill="#000000" transform="matrix(0.0833333 0 0 0.0833333 -157.383 -223.167)" d="M 2769.23,6179.67 L 2779.15,6162.49 L 3198.36,6404.52 L 3188.44,6421.7 L 2769.23,6179.67 Z " />
<path stroke="transparent" fill="#000000" transform="matrix(0.0833333 0 0 0.0833333 -157.383 -223.167)" d="M 3263.65,5323.33 L 3323.65,5219.41 L 3713.41,5501.62 L 3712.85,5513.39 L 3702.93,5519.77 L 3263.65,5323.33 Z " />
<path stroke="transparent" fill="#000000" transform="matrix(0.0833333 0 0 0.0833333 -157.383 -223.167)" d="M 3183.48,4667.58 L 3203.32,4667.58 L 3205.58,4687.42 L 3181.22,4687.42 L 3183.48,4667.58 Z " />
<path stroke="transparent" fill="#000000" transform="matrix(0.0833333 0 0 0.0833333 -157.383 -223.167)" d="M 3176.64,4727.67 L 3210.15,4727.67 L 3212.41,4747.51 L 3174.39,4747.51 L 3176.64,4727.67 Z " />
<path stroke="transparent" fill="#000000" transform="matrix(0.0833333 0 0 0.0833333 -157.383 -223.167)" d="M 3169.81,4787.76 L 3216.98,4787.76 L 3219.24,4807.61 L 3167.56,4807.61 L 3169.81,4787.76 Z " />
<path stroke="transparent" fill="#000000" transform="matrix(0.0833333 0 0 0.0833333 -157.383 -223.167)" d="M 3162.98,4847.86 L 3223.81,4847.86 L 3226.07,4867.7 L 3160.73,4867.7 L 3162.98,4847.86 Z " />
<path stroke="transparent" fill="#000000" transform="matrix(0.0833333 0 0 0.0833333 -157.383 -223.167)" d="M 3156.15,4907.95 L 3230.65,4907.95 L 3232.9,4927.79 L 3153.89,4927.79 L 3156.15,4907.95 Z " />
<path stroke="transparent" fill="#000000" transform="matrix(0.0833333 0 0 0.0833333 -157.383 -223.167)" d="M 3149.32,4968.04 L 3237.48,4968.04 L 3239.73,4987.88 L 3147.06,4987.88 L 3149.32,4968.04 Z " />
<path stroke="transparent" fill="#000000" transform="matrix(0.0833333 0 0 0.0833333 -157.383 -223.167)" d="M 3142.49,5028.14 L 3244.31,5028.14 L 3246.57,5047.98 L 3140.23,5047.98 L 3142.49,5028.14 Z " />
<path stroke="transparent" fill="#000000" transform="matrix(0.0833333 0 0 0.0833333 -157.383 -223.167)" d="M 3135.65,5088.23 L 3251.14,5088.23 L 3253.4,5108.07 L 3133.4,5108.07 L 3135.65,5088.23 Z " />
<path stroke="transparent" fill="#000000" transform="matrix(0.0833333 0 0 0.0833333 -157.383 -223.167)" d="M 2664.03,4319.5 L 2683.87,4308.04 L 3193.4,4602.22 L 3193.4,4625.13 L 2664.03,4319.5 Z " />
<path stroke="transparent" fill="#000000" transform="matrix(0.0833333 0 0 0.0833333 -157.383 -223.167)" d="M 2664.03,3720.34 L 2673.95,3713.96 L 2683.87,3719.69 L 2683.87,4308.04 L 2664.03,4319.5 L 2664.03,3720.34 Z " />
<path stroke="transparent" fill="#000000" transform="matrix(0.0833333 0 0 0.0833333 -157.383 -223.167)" d="M 3193.4,3402.6 L 3193.4,3425.51 L 2683.87,3719.69 L 2673.95,3713.96 L 2674.51,3702.18 L 3193.4,3402.6 Z " />
<path stroke="transparent" fill="#000000" transform="matrix(0.0833333 0 0 0.0833333 -157.383 -223.167)" d="M 3712.39,3702.24 L 3712.85,3713.96 L 3702.93,3719.69 L 3193.4,3425.51 L 3193.4,3402.6 L 3712.39,3702.24 Z " />
<path stroke="transparent" fill="#000000" transform="matrix(0.0833333 0 0 0.0833333 -157.383 -223.167)" d="M 3722.77,4208.35 L 3702.93,4208.35 L 3702.93,3719.69 L 3712.85,3713.96 L 3722.77,3720.22 L 3722.77,4208.35 Z " />
<path stroke="transparent" fill="#000000" transform="matrix(0.0833333 0 0 0.0833333 -157.383 -223.167)" d="M 3608.07,4362.81 L 3617.99,4380 L 3193.4,4625.13 L 3193.4,4602.22 L 3608.07,4362.81 Z " />
<path stroke="transparent" fill="#000000" transform="matrix(0.0833333 0 0 0.0833333 -157.383 -223.167)" d="M 4222.38,3348.15 L 4242.22,3475.48 L 3722.77,3720.22 L 3712.85,3713.96 L 3712.39,3702.24 L 4222.38,3348.15 Z " />
<path stroke="transparent" fill="#000000" transform="matrix(0.0833333 0 0 0.0833333 -157.383 -223.167)" d="M 4222.38,2934.33 L 4242.22,2934.33 L 4242.22,3475.48 L 4222.38,3348.15 L 4222.38,2934.33 Z " />
<path stroke="transparent" fill="#000000" transform="matrix(0.0833333 0 0 0.0833333 -157.383 -223.167)" d="M 3133.4,2934.33 L 3253.4,2934.33 L 3251.06,2954.17 L 3135.73,2954.17 L 3133.4,2934.33 Z " />
<path stroke="transparent" fill="#000000" transform="matrix(0.0833333 0 0 0.0833333 -157.383 -223.167)" d="M 3140.22,2992.32 L 3246.58,2992.32 L 3244.24,3012.16 L 3142.55,3012.16 L 3140.22,2992.32 Z " />
<path stroke="transparent" fill="#000000" transform="matrix(0.0833333 0 0 0.0833333 -157.383 -223.167)" d="M 3147.04,3050.31 L 3239.76,3050.31 L 3237.42,3070.16 L 3149.37,3070.16 L 3147.04,3050.31 Z " />
<path stroke="transparent" fill="#000000" transform="matrix(0.0833333 0 0 0.0833333 -157.383 -223.167)" d="M 3153.86,3108.31 L 3232.94,3108.31 L 3230.6,3128.15 L 3156.19,3128.15 L 3153.86,3108.31 Z " />
<path stroke="transparent" fill="#000000" transform="matrix(0.0833333 0 0 0.0833333 -157.383 -223.167)" d="M 3160.68,3166.3 L 3226.12,3166.3 L 3223.78,3186.14 L 3163.01,3186.14 L 3160.68,3166.3 Z " />
<path stroke="transparent" fill="#000000" transform="matrix(0.0833333 0 0 0.0833333 -157.383 -223.167)" d="M 3167.5,3224.29 L 3219.29,3224.29 L 3216.96,3244.13 L 3169.84,3244.13 L 3167.5,3224.29 Z " />
<path stroke="transparent" fill="#000000" transform="matrix(0.0833333 0 0 0.0833333 -157.383 -223.167)" d="M 3174.32,3282.28 L 3212.47,3282.28 L 3210.14,3302.12 L 3176.66,3302.12 L 3174.32,3282.28 Z " />
<path stroke="transparent" fill="#000000" transform="matrix(0.0833333 0 0 0.0833333 -157.383 -223.167)" d="M 3181.14,3340.27 L 3205.65,3340.27 L 3203.32,3360.12 L 3183.48,3360.12 L 3181.14,3340.27 Z " />
<path stroke="transparent" fill="#000000" transform="matrix(0.0833333 0 0 0.0833333 -157.383 -223.167)" d="M 2224.74,3523.89 L 2284.74,3419.97 L 2674.51,3702.18 L 2673.95,3713.96 L 2664.03,3720.34 L 2224.74,3523.89 Z " />
<path stroke="transparent" fill="#000000" transform="matrix(0.0833333 0 0 0.0833333 -157.383 -223.167)" d="M 2277.32,4612.04 L 2217.32,4508.12 L 2235.64,4500.16 L 2293.38,4600.16 L 2277.32,4612.04 Z " />
<path stroke="transparent" fill="#000000" transform="matrix(0.0833333 0 0 0.0833333 -157.383 -223.167)" d="M 2325.73,4576.21 L 2272.56,4484.12 L 2290.88,4476.16 L 2341.78,4564.33 L 2325.73,4576.21 Z " />
<path stroke="transparent" fill="#000000" transform="matrix(0.0833333 0 0 0.0833333 -157.383 -223.167)" d="M 2374.13,4540.38 L 2327.79,4460.12 L 2346.11,4452.16 L 2390.18,4528.49 L 2374.13,4540.38 Z " />
<path stroke="transparent" fill="#000000" transform="matrix(0.0833333 0 0 0.0833333 -157.383 -223.167)" d="M 2422.54,4504.54 L 2383.03,4436.11 L 2401.34,4428.15 L 2438.59,4492.66 L 2422.54,4504.54 Z " />
<path stroke="transparent" fill="#000000" transform="matrix(0.0833333 0 0 0.0833333 -157.383 -223.167)" d="M 2470.94,4468.71 L 2438.26,4412.11 L 2456.58,4404.15 L 2486.99,4456.83 L 2470.94,4468.71 Z " />
<path stroke="transparent" fill="#000000" transform="matrix(0.0833333 0 0 0.0833333 -157.383 -223.167)" d="M 2519.35,4432.88 L 2493.5,4388.11 L 2511.81,4380.15 L 2535.4,4420.99 L 2519.35,4432.88 Z " />
<path stroke="transparent" fill="#000000" transform="matrix(0.0833333 0 0 0.0833333 -157.383 -223.167)" d="M 2567.75,4397.04 L 2548.73,4364.11 L 2567.05,4356.15 L 2583.8,4385.16 L 2567.75,4397.04 Z " />
<path stroke="transparent" fill="#000000" transform="matrix(0.0833333 0 0 0.0833333 -157.383 -223.167)" d="M 2616.15,4361.21 L 2603.97,4340.1 L 2622.28,4332.14 L 2632.21,4349.33 L 2616.15,4361.21 Z " />
<path stroke="transparent" fill="#000000" transform="matrix(0.0833333 0 0 0.0833333 -157.383 -223.167)" d="M 4172.3,4733.76 L 4292.3,4733.76 L 4289.97,4753.61 L 4174.63,4753.61 L 4172.3,4733.76 Z " />
<path stroke="transparent" fill="#000000" transform="matrix(0.0833333 0 0 0.0833333 -157.383 -223.167)" d="M 4179.12,4791.76 L 4285.48,4791.76 L 4283.15,4811.6 L 4181.46,4811.6 L 4179.12,4791.76 Z " />
<path stroke="transparent" fill="#000000" transform="matrix(0.0833333 0 0 0.0833333 -157.383 -223.167)" d="M 4185.94,4849.75 L 4278.66,4849.75 L 4276.33,4869.59 L 4188.28,4869.59 L 4185.94,4849.75 Z " />
<path stroke="transparent" fill="#000000" transform="matrix(0.0833333 0 0 0.0833333 -157.383 -223.167)" d="M 4192.76,4907.74 L 4271.84,4907.74 L 4269.51,4927.58 L 4195.1,4927.58 L 4192.76,4907.74 Z " />
<path stroke="transparent" fill="#000000" transform="matrix(0.0833333 0 0 0.0833333 -157.383 -223.167)" d="M 4199.58,4965.73 L 4265.02,4965.73 L 4262.68,4985.57 L 4201.92,4985.57 L 4199.58,4965.73 Z " />
<path stroke="transparent" fill="#000000" transform="matrix(0.0833333 0 0 0.0833333 -157.383 -223.167)" d="M 4206.4,5023.72 L 4258.2,5023.72 L 4255.86,5043.57 L 4208.74,5043.57 L 4206.4,5023.72 Z " />
<path stroke="transparent" fill="#000000" transform="matrix(0.0833333 0 0 0.0833333 -157.383 -223.167)" d="M 4213.23,5081.71 L 4251.38,5081.71 L 4249.04,5101.56 L 4215.56,5101.56 L 4213.23,5081.71 Z " />
<path stroke="transparent" fill="#000000" transform="matrix(0.0833333 0 0 0.0833333 -157.383 -223.167)" d="M 4220.05,5139.71 L 4244.56,5139.71 L 4242.22,5159.55 L 4222.38,5159.55 L 4220.05,5139.71 Z " />
<path stroke="transparent" fill="#000000" transform="matrix(0.0833333 0 0 0.0833333 -157.383 -223.167)" d="M 5141.38,5219.16 L 5201.38,5323.08 L 4761.67,5519.77 L 4751.75,5513.39 L 4751.19,5501.62 L 5141.38,5219.16 Z " />
<path stroke="transparent" fill="#000000" transform="matrix(0.0833333 0 0 0.0833333 -157.383 -223.167)" d="M 5261.28,4667.58 L 5281.13,4667.58 L 5283.38,4687.42 L 5259.03,4687.42 L 5261.28,4667.58 Z " />
<path stroke="transparent" fill="#000000" transform="matrix(0.0833333 0 0 0.0833333 -157.383 -223.167)" d="M 5254.45,4727.67 L 5287.96,4727.67 L 5290.21,4747.51 L 5252.2,4747.51 L 5254.45,4727.67 Z " />
<path stroke="transparent" fill="#000000" transform="matrix(0.0833333 0 0 0.0833333 -157.383 -223.167)" d="M 5247.62,4787.76 L 5294.79,4787.76 L 5297.05,4807.61 L 5245.36,4807.61 L 5247.62,4787.76 Z " />
<path stroke="transparent" fill="#000000" transform="matrix(0.0833333 0 0 0.0833333 -157.383 -223.167)" d="M 5240.79,4847.86 L 5301.62,4847.86 L 5303.88,4867.7 L 5238.53,4867.7 L 5240.79,4847.86 Z " />
<path stroke="transparent" fill="#000000" transform="matrix(0.0833333 0 0 0.0833333 -157.383 -223.167)" d="M 5233.96,4907.95 L 5308.45,4907.95 L 5310.71,4927.79 L 5231.7,4927.79 L 5233.96,4907.95 Z " />
<path stroke="transparent" fill="#000000" transform="matrix(0.0833333 0 0 0.0833333 -157.383 -223.167)" d="M 5227.12,4968.04 L 5315.28,4968.04 L 5317.54,4987.88 L 5224.87,4987.88 L 5227.12,4968.04 Z " />
<path stroke="transparent" fill="#000000" transform="matrix(0.0833333 0 0 0.0833333 -157.383 -223.167)" d="M 5220.29,5028.14 L 5322.12,5028.14 L 5324.37,5047.98 L 5218.04,5047.98 L 5220.29,5028.14 Z " />
<path stroke="transparent" fill="#000000" transform="matrix(0.0833333 0 0 0.0833333 -157.383 -223.167)" d="M 5213.46,5088.23 L 5328.95,5088.23 L 5331.2,5108.07 L 5211.2,5108.07 L 5213.46,5088.23 Z " />
<path stroke="transparent" fill="#000000" transform="matrix(0.0833333 0 0 0.0833333 -157.383 -223.167)" d="M 5780.73,4308.04 L 5790.66,4313.77 L 5790.11,4325.55 L 5271.2,4625.13 L 5271.2,4602.22 L 5780.73,4308.04 Z " />
<path stroke="transparent" fill="#000000" transform="matrix(0.0833333 0 0 0.0833333 -157.383 -223.167)" d="M 5780.73,3719.69 L 5800.58,3708.23 L 5800.58,4307.41 L 5790.66,4313.77 L 5780.73,4308.04 L 5780.73,3719.69 Z " />
<path stroke="transparent" fill="#000000" transform="matrix(0.0833333 0 0 0.0833333 -157.383 -223.167)" d="M 5271.2,3425.51 L 5271.2,3414.06 L 5281.69,3408.65 L 5800.58,3708.23 L 5780.73,3719.69 L 5271.2,3425.51 Z " />
<path stroke="transparent" fill="#000000" transform="matrix(0.0833333 0 0 0.0833333 -157.383 -223.167)" d="M 4761.67,3719.69 L 4741.83,3708.23 L 5260.72,3408.65 L 5271.2,3414.06 L 5271.2,3425.51 L 4761.67,3719.69 Z " />
<path stroke="transparent" fill="#000000" transform="matrix(0.0833333 0 0 0.0833333 -157.383 -223.167)" d="M 4761.67,4208.35 L 4741.83,4208.35 L 4741.83,3708.23 L 4761.67,3719.69 L 4761.67,4208.35 Z " />
<path stroke="transparent" fill="#000000" transform="matrix(0.0833333 0 0 0.0833333 -157.383 -223.167)" d="M 4847.05,4380.25 L 4856.97,4363.06 L 5271.2,4602.22 L 5271.2,4625.13 L 4847.05,4380.25 Z " />
<path stroke="transparent" fill="#000000" transform="matrix(0.0833333 0 0 0.0833333 -157.383 -223.167)" d="M 5211.2,2934.33 L 5331.2,2934.33 L 5281.69,3408.65 L 5271.2,3414.06 L 5260.72,3408.65 L 5211.2,2934.33 Z " />
<path stroke="transparent" fill="#000000" transform="matrix(0.0833333 0 0 0.0833333 -157.383 -223.167)" d="M 6180.29,3419.73 L 6240.29,3523.65 L 6221.95,3531.57 L 6164.26,3431.65 L 6180.29,3419.73 Z " />
<path stroke="transparent" fill="#000000" transform="matrix(0.0833333 0 0 0.0833333 -157.383 -223.167)" d="M 6132.88,3454.98 L 6186.05,3547.08 L 6167.71,3555 L 6116.85,3466.9 L 6132.88,3454.98 Z " />
<path stroke="transparent" fill="#000000" transform="matrix(0.0833333 0 0 0.0833333 -157.383 -223.167)" d="M 6085.47,3490.23 L 6131.82,3570.51 L 6113.48,3578.44 L 6069.44,3502.15 L 6085.47,3490.23 Z " />
<path stroke="transparent" fill="#000000" transform="matrix(0.0833333 0 0 0.0833333 -157.383 -223.167)" d="M 6038.06,3525.48 L 6077.58,3593.94 L 6059.25,3601.87 L 6022.03,3537.4 L 6038.06,3525.48 Z " />
<path stroke="transparent" fill="#000000" transform="matrix(0.0833333 0 0 0.0833333 -157.383 -223.167)" d="M 5990.65,3560.73 L 6023.35,3617.38 L 6005.01,3625.3 L 5974.62,3572.65 L 5990.65,3560.73 Z " />
<path stroke="transparent" fill="#000000" transform="matrix(0.0833333 0 0 0.0833333 -157.383 -223.167)" d="M 5943.24,3595.99 L 5969.12,3640.81 L 5950.78,3648.73 L 5927.21,3607.91 L 5943.24,3595.99 Z " />
<path stroke="transparent" fill="#000000" transform="matrix(0.0833333 0 0 0.0833333 -157.383 -223.167)" d="M 5895.83,3631.24 L 5914.88,3664.24 L 5896.55,3672.16 L 5879.8,3643.16 L 5895.83,3631.24 Z " />
<path stroke="transparent" fill="#000000" transform="matrix(0.0833333 0 0 0.0833333 -157.383 -223.167)" d="M 5848.42,3666.49 L 5860.65,3687.67 L 5842.31,3695.59 L 5832.39,3678.41 L 5848.42,3666.49 Z " />
<path stroke="transparent" fill="#000000" transform="matrix(0.0833333 0 0 0.0833333 -157.383 -223.167)" d="M 6247.27,4508.12 L 6187.27,4612.04 L 5790.11,4325.55 L 5790.66,4313.77 L 5800.58,4307.41 L 6247.27,4508.12 Z " />
<path stroke="transparent" fill="#000000" transform="matrix(0.0833333 0 0 0.0833333 -157.383 -223.167)" d="M 6819.64,4913.58 L 6839.48,4913.58 L 6839.48,5496.21 L 6829.56,5513.39 L 6819.64,5496.21 L 6819.64,4913.58 Z " />
<path stroke="transparent" fill="#000000" transform="matrix(0.0833333 0 0 0.0833333 -157.383 -223.167)" d="M 7858.54,4913.58 L 7878.38,4913.58 L 7878.38,5496.21 L 7868.46,5513.39 L 7858.54,5496.21 L 7858.54,4913.58 Z " />
<path stroke="transparent" fill="#000000" transform="matrix(0.0833333 0 0 0.0833333 -157.383 -223.167)" d="M 8897.44,4308.04 L 8907.37,4313.77 L 8907.37,4325.23 L 8749.05,4416.63 L 8735.1,4401.77 L 8897.44,4308.04 L 8897.44,4308.04 Z " />
<path stroke="transparent" fill="#000000" transform="matrix(0.0833333 0 0 0.0833333 -157.383 -223.167)" d="M 8397.84,4619.41 L 8387.91,4613.68 L 8387.91,4602.22 L 8580.48,4491.04 L 8595.61,4505.22 L 8397.84,4619.41 L 8397.84,4619.41 Z " />
<path stroke="transparent" fill="#000000" transform="matrix(0.0833333 0 0 0.0833333 -157.383 -223.167)" d="M 8907.37,4325.23 L 8907.37,4313.77 L 8917.29,4308.04 L 9426.82,4602.22 L 9426.82,4613.68 L 9416.9,4619.41 L 8907.37,4325.23 Z " />
<path stroke="transparent" fill="#000000" transform="matrix(0.0833333 0 0 0.0833333 -157.383 -223.167)" d="M 8897.44,3708.23 L 8917.29,3719.69 L 8917.29,3857.16 L 8897.44,3860.93 L 8897.44,3708.23 L 8897.44,3708.23 Z " />
<path stroke="transparent" fill="#000000" transform="matrix(0.0833333 0 0 0.0833333 -157.383 -223.167)" d="M 8917.29,4308.04 L 8907.37,4313.77 L 8897.44,4308.04 L 8897.44,4032.28 L 8917.29,4027.26 L 8917.29,4308.04 L 8917.29,4308.04 Z " />
<path stroke="transparent" fill="#000000" transform="matrix(0.0833333 0 0 0.0833333 -157.383 -223.167)" d="M 9413.26,3410.42 L 9426.82,3414.06 L 9426.82,3425.51 L 8917.29,3719.69 L 8897.44,3708.23 L 9413.26,3410.42 Z " />
<path stroke="transparent" fill="#000000" transform="matrix(0.0833333 0 0 0.0833333 -157.383 -223.167)" d="M 9956.19,3708.23 L 9936.35,3719.69 L 9426.82,3425.51 L 9426.82,3414.06 L 9440.37,3410.42 L 9956.19,3708.23 Z " />
<path stroke="transparent" fill="#000000" transform="matrix(0.0833333 0 0 0.0833333 -157.383 -223.167)" d="M 9956.19,4308.04 L 9946.27,4313.77 L 9936.35,4308.04 L 9936.35,3719.69 L 9956.19,3708.23 L 9956.19,4308.04 Z " />
<path stroke="transparent" fill="#000000" transform="matrix(0.0833333 0 0 0.0833333 -157.383 -223.167)" d="M 9936.35,4308.04 L 9946.27,4313.77 L 9946.27,4325.23 L 9446.66,4613.68 L 9426.82,4613.68 L 9426.82,4602.22 L 9936.35,4308.04 Z " />
<path stroke="transparent" fill="#000000" transform="matrix(0.0833333 0 0 0.0833333 -157.383 -223.167)" d="M 10377.8,4551.49 L 10367.9,4568.67 L 9946.27,4325.23 L 9946.27,4313.77 L 9956.19,4308.04 L 10377.8,4551.49 Z " />
<path stroke="transparent" fill="#000000" transform="matrix(0.0833333 0 0 0.0833333 -157.383 -223.167)" d="M 8409.96,4115.35 L 8384.04,3998.18 L 8403.55,3994.53 L 8429.19,4110.43 L 8409.96,4115.35 Z " />
<path stroke="transparent" fill="#000000" transform="matrix(0.0833333 0 0 0.0833333 -157.383 -223.167)" d="M 8462.34,4101.95 L 8437.18,3988.23 L 8456.69,3984.58 L 8481.57,4097.03 L 8462.34,4101.95 Z " />
<path stroke="transparent" fill="#000000" transform="matrix(0.0833333 0 0 0.0833333 -157.383 -223.167)" d="M 8514.72,4088.55 L 8490.32,3978.28 L 8509.83,3974.63 L 8533.95,4083.63 L 8514.72,4088.55 Z " />
<path stroke="transparent" fill="#000000" transform="matrix(0.0833333 0 0 0.0833333 -157.383 -223.167)" d="M 8567.1,4075.16 L 8543.46,3968.33 L 8562.97,3964.68 L 8586.33,4070.24 L 8567.1,4075.16 Z " />
<path stroke="transparent" fill="#000000" transform="matrix(0.0833333 0 0 0.0833333 -157.383 -223.167)" d="M 8619.48,4061.76 L 8596.6,3958.38 L 8616.12,3954.73 L 8638.71,4056.84 L 8619.48,4061.76 Z " />
<path stroke="transparent" fill="#000000" transform="matrix(0.0833333 0 0 0.0833333 -157.383 -223.167)" d="M 8671.85,4048.36 L 8649.74,3948.43 L 8669.26,3944.78 L 8691.09,4043.44 L 8671.85,4048.36 Z " />
<path stroke="transparent" fill="#000000" transform="matrix(0.0833333 0 0 0.0833333 -157.383 -223.167)" d="M 8724.23,4034.96 L 8702.89,3938.48 L 8722.4,3934.83 L 8743.47,4030.04 L 8724.23,4034.96 Z " />
<path stroke="transparent" fill="#000000" transform="matrix(0.0833333 0 0 0.0833333 -157.383 -223.167)" d="M 8776.61,4021.56 L 8756.03,3928.53 L 8775.54,3924.88 L 8795.85,4016.65 L 8776.61,4021.56 Z " />
<path stroke="transparent" fill="#000000" transform="matrix(0.0833333 0 0 0.0833333 -157.383 -223.167)" d="M 8828.99,4008.17 L 8809.17,3918.58 L 8828.68,3914.93 L 8848.23,4003.25 L 8828.99,4008.17 Z " />
<path stroke="transparent" fill="#000000" transform="matrix(0.0833333 0 0 0.0833333 -157.383 -223.167)" d="M 8881.37,3994.77 L 8862.31,3908.63 L 8881.82,3904.98 L 8900.6,3989.85 L 8881.37,3994.77 Z " />
<path stroke="transparent" fill="#000000" transform="matrix(0.0833333 0 0 0.0833333 -157.383 -223.167)" d="M 8933.75,3981.37 L 8915.45,3898.68 L 8934.97,3895.02 L 8952.98,3976.45 L 8933.75,3981.37 Z " />
<path stroke="transparent" fill="#000000" transform="matrix(0.0833333 0 0 0.0833333 -157.383 -223.167)" d="M 8986.13,3967.97 L 8968.59,3888.73 L 8988.11,3885.07 L 9005.36,3963.05 L 8986.13,3967.97 Z " />
<path stroke="transparent" fill="#000000" transform="matrix(0.0833333 0 0 0.0833333 -157.383 -223.167)" d="M 9038.51,3954.58 L 9021.73,3878.78 L 9041.25,3875.12 L 9057.74,3949.66 L 9038.51,3954.58 Z " />
<path stroke="transparent" fill="#000000" transform="matrix(0.0833333 0 0 0.0833333 -157.383 -223.167)" d="M 9090.89,3941.18 L 9074.88,3868.83 L 9094.39,3865.17 L 9110.12,3936.26 L 9090.89,3941.18 Z " />
<path stroke="transparent" fill="#000000" transform="matrix(0.0833333 0 0 0.0833333 -157.383 -223.167)" d="M 9143.26,3927.78 L 9128.02,3858.88 L 9147.53,3855.22 L 9162.5,3922.86 L 9143.26,3927.78 Z " />
<path stroke="transparent" fill="#000000" transform="matrix(0.0833333 0 0 0.0833333 -157.383 -223.167)" d="M 9195.64,3914.38 L 9181.16,3848.93 L 9200.67,3845.27 L 9214.88,3909.46 L 9195.64,3914.38 Z " />
<path stroke="transparent" fill="#000000" transform="matrix(0.0833333 0 0 0.0833333 -157.383 -223.167)" d="M 9248.02,3900.98 L 9234.3,3838.98 L 9253.82,3835.32 L 9267.26,3896.06 L 9248.02,3900.98 Z " />
<path stroke="transparent" fill="#000000" transform="matrix(0.0833333 0 0 0.0833333 -157.383 -223.167)" d="M 9300.4,3887.59 L 9287.44,3829.03 L 9306.96,3825.37 L 9319.63,3882.67 L 9300.4,3887.59 Z " />
<path stroke="transparent" fill="#000000" transform="matrix(0.0833333 0 0 0.0833333 -157.383 -223.167)" d="M 9352.78,3874.19 L 9340.58,3819.07 L 9360.1,3815.42 L 9372.01,3869.27 L 9352.78,3874.19 Z " />
<path stroke="transparent" fill="#000000" transform="matrix(0.0833333 0 0 0.0833333 -157.383 -223.167)" d="M 9405.16,3860.79 L 9393.73,3809.12 L 9413.24,3805.47 L 9424.39,3855.87 L 9405.16,3860.79 Z " />
<path stroke="transparent" fill="#000000" transform="matrix(0.0833333 0 0 0.0833333 -157.383 -223.167)" d="M 9457.54,3847.39 L 9446.87,3799.17 L 9466.38,3795.52 L 9476.77,3842.47 L 9457.54,3847.39 Z " />
<path stroke="transparent" fill="#000000" transform="matrix(0.0833333 0 0 0.0833333 -157.383 -223.167)" d="M 9509.92,3833.99 L 9500.01,3789.22 L 9519.52,3785.57 L 9529.15,3829.07 L 9509.92,3833.99 Z " />
<path stroke="transparent" fill="#000000" transform="matrix(0.0833333 0 0 0.0833333 -157.383 -223.167)" d="M 9562.29,3820.6 L 9553.15,3779.27 L 9572.66,3775.62 L 9581.53,3815.68 L 9562.29,3820.6 Z " />
<path stroke="transparent" fill="#000000" transform="matrix(0.0833333 0 0 0.0833333 -157.383 -223.167)" d="M 9614.67,3807.2 L 9606.29,3769.32 L 9625.81,3765.67 L 9633.91,3802.28 L 9614.67,3807.2 Z " />
<path stroke="transparent" fill="#000000" transform="matrix(0.0833333 0 0 0.0833333 -157.383 -223.167)" d="M 9667.05,3793.8 L 9659.43,3759.37 L 9678.95,3755.72 L 9686.29,3788.88 L 9667.05,3793.8 Z " />
<path stroke="transparent" fill="#000000" transform="matrix(0.0833333 0 0 0.0833333 -157.383 -223.167)" d="M 9719.43,3780.4 L 9712.58,3749.42 L 9732.09,3745.77 L 9738.66,3775.48 L 9719.43,3780.4 Z " />
<path stroke="transparent" fill="#000000" transform="matrix(0.0833333 0 0 0.0833333 -157.383 -223.167)" d="M 9771.81,3767.01 L 9765.72,3739.47 L 9785.23,3735.82 L 9791.04,3762.09 L 9771.81,3767.01 Z " />
<path stroke="transparent" fill="#000000" transform="matrix(0.0833333 0 0 0.0833333 -157.383 -223.167)" d="M 9824.19,3753.61 L 9818.86,3729.52 L 9838.37,3725.87 L 9843.42,3748.69 L 9824.19,3753.61 Z " />
<path stroke="transparent" fill="#000000" transform="matrix(0.0833333 0 0 0.0833333 -157.383 -223.167)" d="M 9876.57,3740.21 L 9872,3719.57 L 9891.51,3715.92 L 9895.8,3735.29 L 9876.57,3740.21 Z " />
<path stroke="transparent" fill="#000000" transform="matrix(0.0833333 0 0 0.0833333 -157.383 -223.167)" d="M 8334.02,4206.78 L 8418.83,4121.87 L 8432.37,4136.39 L 8348.55,4220.31 L 8334.02,4206.78 Z " />
<path stroke="transparent" fill="#000000" transform="matrix(0.0833333 0 0 0.0833333 -157.383 -223.167)" d="M 8373.76,4243.78 L 8455.88,4161.57 L 8469.43,4176.08 L 8388.29,4257.31 L 8373.76,4243.78 Z " />
<path stroke="transparent" fill="#000000" transform="matrix(0.0833333 0 0 0.0833333 -157.383 -223.167)" d="M 8413.49,4280.79 L 8492.93,4201.26 L 8506.48,4215.77 L 8428.02,4294.32 L 8413.49,4280.79 Z " />
<path stroke="transparent" fill="#000000" transform="matrix(0.0833333 0 0 0.0833333 -157.383 -223.167)" d="M 8453.23,4317.79 L 8529.98,4240.95 L 8543.53,4255.47 L 8467.76,4331.32 L 8453.23,4317.79 Z " />
<path stroke="transparent" fill="#000000" transform="matrix(0.0833333 0 0 0.0833333 -157.383 -223.167)" d="M 8492.97,4354.8 L 8567.03,4280.64 L 8580.58,4295.16 L 8507.5,4368.33 L 8492.97,4354.8 Z " />
<path stroke="transparent" fill="#000000" transform="matrix(0.0833333 0 0 0.0833333 -157.383 -223.167)" d="M 8532.7,4391.8 L 8604.08,4320.34 L 8617.63,4334.85 L 8547.23,4405.33 L 8532.7,4391.8 Z " />
<path stroke="transparent" fill="#000000" transform="matrix(0.0833333 0 0 0.0833333 -157.383 -223.167)" d="M 8572.44,4428.81 L 8641.13,4360.03 L 8654.68,4374.54 L 8586.97,4442.34 L 8572.44,4428.81 Z " />
<path stroke="transparent" fill="#000000" transform="matrix(0.0833333 0 0 0.0833333 -157.383 -223.167)" d="M 8612.17,4465.81 L 8678.18,4399.72 L 8691.73,4414.24 L 8626.7,4479.34 L 8612.17,4465.81 Z " />
<path stroke="transparent" fill="#000000" transform="matrix(0.0833333 0 0 0.0833333 -157.383 -223.167)" d="M 8651.91,4502.81 L 8715.24,4439.41 L 8728.78,4453.93 L 8666.44,4516.35 L 8651.91,4502.81 Z " />
<path stroke="transparent" fill="#000000" transform="matrix(0.0833333 0 0 0.0833333 -157.383 -223.167)" d="M 8691.65,4539.82 L 8752.29,4479.11 L 8765.84,4493.62 L 8706.18,4553.35 L 8691.65,4539.82 Z " />
<path stroke="transparent" fill="#000000" transform="matrix(0.0833333 0 0 0.0833333 -157.383 -223.167)" d="M 8731.38,4576.82 L 8789.34,4518.8 L 8802.89,4533.31 L 8745.91,4590.36 L 8731.38,4576.82 Z " />
<path stroke="transparent" fill="#000000" transform="matrix(0.0833333 0 0 0.0833333 -157.383 -223.167)" d="M 8771.12,4613.83 L 8826.39,4558.49 L 8839.94,4573.01 L 8785.65,4627.36 L 8771.12,4613.83 Z " />
<path stroke="transparent" fill="#000000" transform="matrix(0.0833333 0 0 0.0833333 -157.383 -223.167)" d="M 8810.85,4650.83 L 8863.44,4598.18 L 8876.99,4612.7 L 8825.38,4664.36 L 8810.85,4650.83 Z " />
<path stroke="transparent" fill="#000000" transform="matrix(0.0833333 0 0 0.0833333 -157.383 -223.167)" d="M 8850.59,4687.84 L 8900.49,4637.88 L 8914.04,4652.39 L 8865.12,4701.37 L 8850.59,4687.84 Z " />
<path stroke="transparent" fill="#000000" transform="matrix(0.0833333 0 0 0.0833333 -157.383 -223.167)" d="M 8890.32,4724.84 L 8937.54,4677.57 L 8951.09,4692.08 L 8904.85,4738.37 L 8890.32,4724.84 Z " />
<path stroke="transparent" fill="#000000" transform="matrix(0.0833333 0 0 0.0833333 -157.383 -223.167)" d="M 8930.06,4761.85 L 8974.59,4717.26 L 8988.14,4731.78 L 8944.59,4775.38 L 8930.06,4761.85 Z " />
<path stroke="transparent" fill="#000000" transform="matrix(0.0833333 0 0 0.0833333 -157.383 -223.167)" d="M 8969.8,4798.85 L 9011.65,4756.95 L 9025.19,4771.47 L 8984.33,4812.38 L 8969.8,4798.85 Z " />
<path stroke="transparent" fill="#000000" transform="matrix(0.0833333 0 0 0.0833333 -157.383 -223.167)" d="M 9009.53,4835.86 L 9048.7,4796.65 L 9062.25,4811.16 L 9024.06,4849.39 L 9009.53,4835.86 Z " />
<path stroke="transparent" fill="#000000" transform="matrix(0.0833333 0 0 0.0833333 -157.383 -223.167)" d="M 9049.27,4872.86 L 9085.75,4836.34 L 9099.3,4850.85 L 9063.8,4886.39 L 9049.27,4872.86 Z " />
<path stroke="transparent" fill="#000000" transform="matrix(0.0833333 0 0 0.0833333 -157.383 -223.167)" d="M 9089,4909.87 L 9122.8,4876.03 L 9136.35,4890.55 L 9103.53,4923.4 L 9089,4909.87 Z " />
<path stroke="transparent" fill="#000000" transform="matrix(0.0833333 0 0 0.0833333 -157.383 -223.167)" d="M 9128.74,4946.87 L 9159.85,4915.72 L 9173.4,4930.24 L 9143.27,4960.4 L 9128.74,4946.87 Z " />
<path stroke="transparent" fill="#000000" transform="matrix(0.0833333 0 0 0.0833333 -157.383 -223.167)" d="M 9168.48,4983.88 L 9196.9,4955.42 L 9210.45,4969.93 L 9183.01,4997.41 L 9168.48,4983.88 Z " />
<path stroke="transparent" fill="#000000" transform="matrix(0.0833333 0 0 0.0833333 -157.383 -223.167)" d="M 9208.21,5020.88 L 9233.95,4995.11 L 9247.5,5009.62 L 9222.74,5034.41 L 9208.21,5020.88 Z " />
<path stroke="transparent" fill="#000000" transform="matrix(0.0833333 0 0 0.0833333 -157.383 -223.167)" d="M 9247.95,5057.89 L 9271,5034.8 L 9284.55,5049.32 L 9262.48,5071.42 L 9247.95,5057.89 Z " />
<path stroke="transparent" fill="#000000" transform="matrix(0.0833333 0 0 0.0833333 -157.383 -223.167)" d="M 9287.68,5094.89 L 9308.06,5074.49 L 9321.6,5089.01 L 9302.21,5108.42 L 9287.68,5094.89 Z " />
<path stroke="transparent" fill="#000000" transform="matrix(0.0833333 0 0 0.0833333 -157.383 -223.167)" d="M 9327.42,5131.9 L 9345.11,5114.19 L 9358.66,5128.7 L 9341.95,5145.43 L 9327.42,5131.9 Z " />
<path stroke="transparent" fill="#000000" transform="matrix(0.0833333 0 0 0.0833333 -157.383 -223.167)" d="M 9367.15,5168.9 L 9382.16,5153.88 L 9395.71,5168.39 L 9381.68,5182.43 L 9367.15,5168.9 Z " />
<path stroke="transparent" fill="#000000" transform="matrix(0.0833333 0 0 0.0833333 -157.383 -223.167)" d="M 9118.32,2899.56 L 9135.5,2889.64 L 9426.82,3394.21 L 9426.82,3414.06 L 9413.26,3410.42 L 9118.32,2899.56 Z " />
<path stroke="transparent" fill="#000000" transform="matrix(0.0833333 0 0 0.0833333 -157.383 -223.167)" d="M 9718.13,2889.64 L 9735.31,2899.56 L 9440.37,3410.42 L 9426.82,3414.06 L 9426.82,3394.21 L 9718.13,2889.64 Z " />
<path stroke="transparent" fill="#000000" transform="matrix(0.0833333 0 0 0.0833333 -157.383 -223.167)" d="M 8447.91,5813.3 L 8327.91,5813.3 L 8329.73,5793.46 L 8446.09,5793.46 L 8447.91,5813.3 Z " />
<path stroke="transparent" fill="#000000" transform="matrix(0.0833333 0 0 0.0833333 -157.383 -223.167)" d="M 8442.55,5754.85 L 8333.28,5754.85 L 8335.1,5735.01 L 8440.73,5735.01 L 8442.55,5754.85 Z " />
<path stroke="transparent" fill="#000000" transform="matrix(0.0833333 0 0 0.0833333 -157.383 -223.167)" d="M 8437.19,5696.4 L 8338.64,5696.4 L 8340.46,5676.56 L 8435.37,5676.56 L 8437.19,5696.4 Z " />
<path stroke="transparent" fill="#000000" transform="matrix(0.0833333 0 0 0.0833333 -157.383 -223.167)" d="M 8431.83,5637.95 L 8344,5637.95 L 8345.82,5618.11 L 8430.01,5618.11 L 8431.83,5637.95 Z " />
<path stroke="transparent" fill="#000000" transform="matrix(0.0833333 0 0 0.0833333 -157.383 -223.167)" d="M 8426.47,5579.51 L 8349.36,5579.51 L 8351.18,5559.66 L 8424.65,5559.66 L 8426.47,5579.51 Z " />
<path stroke="transparent" fill="#000000" transform="matrix(0.0833333 0 0 0.0833333 -157.383 -223.167)" d="M 8421.1,5521.06 L 8354.72,5521.06 L 8356.54,5501.21 L 8419.28,5501.21 L 8421.1,5521.06 Z " />
<path stroke="transparent" fill="#000000" transform="matrix(0.0833333 0 0 0.0833333 -157.383 -223.167)" d="M 8415.74,5462.61 L 8360.09,5462.61 L 8361.91,5442.77 L 8413.92,5442.77 L 8415.74,5462.61 Z " />
<path stroke="transparent" fill="#000000" transform="matrix(0.0833333 0 0 0.0833333 -157.383 -223.167)" d="M 8410.38,5404.16 L 8365.45,5404.16 L 8367.27,5384.32 L 8408.56,5384.32 L 8410.38,5404.16 Z " />
<path stroke="transparent" fill="#000000" transform="matrix(0.0833333 0 0 0.0833333 -157.383 -223.167)" d="M 8405.02,5345.71 L 8370.81,5345.71 L 8372.63,5325.87 L 8403.2,5325.87 L 8405.02,5345.71 Z " />
<path stroke="transparent" fill="#000000" transform="matrix(0.0833333 0 0 0.0833333 -157.383 -223.167)" d="M 8399.66,5287.26 L 8376.17,5287.26 L 8377.99,5267.42 L 8397.84,5267.42 L 8399.66,5287.26 Z " />
</svg>
