<?xml version="1.0" standalone="no" ?>
<!DOCTYPE svg PUBLIC "-//W3C//DTD SVG 1.1//EN" "http://www.w3.org/Graphics/SVG/1.1/DTD/svg11.dtd">
<svg width="249px" height="118px" viewBox="0 0 249 118" style="background-color: #ffffff00" xmlns="http://www.w3.org/2000/svg" xmlns:xlink="http://www.w3.org/1999/xlink" version="1.1" >
<text x="0" y="0" stroke="transparent" fill="#000000" transform="matrix(0.0666667 0 0 0.0666667 87.2085 114.571)" style="font:normal normal normal 200px 'Arial'" >
O</text>
<text x="0" y="0" stroke="transparent" fill="#000000" transform="matrix(0.0666667 0 0 0.0666667 3.11127 74.5719)" style="font:normal normal normal 200px 'Arial'" >
H</text>
<text x="0" y="0" stroke="transparent" fill="#000000" transform="matrix(0.0666667 0 0 0.0666667 12.7402 77.5052)" style="font:normal normal normal 150px 'Arial'" >
2</text>
<text x="0" y="0" stroke="transparent" fill="#000000" transform="matrix(0.0666667 0 0 0.0666667 18.3017 74.5719)" style="font:normal normal normal 200px 'Arial'" >
N</text>
<text x="0" y="0" stroke="transparent" fill="#000000" transform="matrix(0.0666667 0 0 0.0666667 191.128 14.5737)" style="font:normal normal normal 200px 'Arial'" >
O</text>
<text x="0" y="0" stroke="transparent" fill="#000000" transform="matrix(0.0666667 0 0 0.0666667 225.769 74.5719)" style="font:normal normal normal 200px 'Arial'" >
OH</text>
<path stroke="transparent" fill="#000000" transform="matrix(0.0666667 0 0 0.0666667 -224.425 -254)" d="M 5272.13,4539.04 L 5272.13,4562.13 L 4752.51,4862.13 L 4752.51,4839.03 L 5272.13,4539.04 Z " />
<path stroke="transparent" fill="#000000" transform="matrix(0.0666667 0 0 0.0666667 -224.425 -254)" d="M 4798.51,5345.39 L 4778.51,5345.39 L 4778.51,4829.8 L 4798.51,4829.8 L 4798.51,5345.39 Z " />
<path stroke="transparent" fill="#000000" transform="matrix(0.0666667 0 0 0.0666667 -224.425 -254)" d="M 4726.51,5345.39 L 4706.51,5345.39 L 4706.51,4829.79 L 4726.51,4829.79 L 4726.51,5345.39 Z " />
<path stroke="transparent" fill="#000000" transform="matrix(0.0666667 0 0 0.0666667 -224.425 -254)" d="M 4232.96,4562.13 L 4232.96,4539.04 L 4752.51,4839.03 L 4752.51,4862.13 L 4232.96,4562.13 Z " />
<path stroke="transparent" fill="#000000" transform="matrix(0.0666667 0 0 0.0666667 -224.425 -254)" d="M 3821.22,4799.84 L 3811.22,4782.52 L 4232.96,4539.04 L 4232.96,4562.13 L 3821.22,4799.84 Z " />
<path stroke="transparent" fill="#000000" transform="matrix(0.0666667 0 0 0.0666667 -224.425 -254)" d="M 5791.75,4839.03 L 5791.75,4862.13 L 5272.13,4562.13 L 5272.13,4539.04 L 5791.75,4839.03 Z " />
<path stroke="transparent" fill="#000000" transform="matrix(0.0666667 0 0 0.0666667 -224.425 -254)" d="M 6311.3,4539.04 L 6311.3,4562.13 L 5791.75,4862.13 L 5791.75,4839.03 L 6311.3,4539.04 Z " />
<path stroke="transparent" fill="#000000" transform="matrix(0.0666667 0 0 0.0666667 -224.425 -254)" d="M 6265.3,4070.44 L 6285.3,4070.44 L 6285.3,4571.37 L 6265.3,4571.37 L 6265.3,4070.44 Z " />
<path stroke="transparent" fill="#000000" transform="matrix(0.0666667 0 0 0.0666667 -224.425 -254)" d="M 6337.3,4070.44 L 6357.3,4070.44 L 6357.3,4571.37 L 6337.3,4571.37 L 6337.3,4070.44 Z " />
<path stroke="transparent" fill="#000000" transform="matrix(0.0666667 0 0 0.0666667 -224.425 -254)" d="M 6743.3,4788.45 L 6733.3,4805.77 L 6311.3,4562.13 L 6311.3,4539.04 L 6743.3,4788.45 Z " />
</svg>
