<?xml version="1.0" standalone="no" ?>
<!DOCTYPE svg PUBLIC "-//W3C//DTD SVG 1.1//EN" "http://www.w3.org/Graphics/SVG/1.1/DTD/svg11.dtd">
<svg width="357px" height="35px" viewBox="0 0 357 35" style="background-color: #ffffff00" xmlns="http://www.w3.org/2000/svg" xmlns:xlink="http://www.w3.org/1999/xlink" version="1.1" >
<text x="0" y="0" stroke="transparent" fill="#000000" transform="matrix(0.0666667 0 0 0.0666667 3.5673 31.4554)" style="font:normal normal normal 200px 'Arial'" >
O</text>
<path stroke="transparent" fill="#000000" transform="matrix(0.0666667 0 0 0.0666667 -169.853 -376)" d="M 3700.62,5991.11 L 3700.62,6014.2 L 3180.97,5714.26 L 3180.97,5691.17 L 3700.62,5991.11 Z " />
<path stroke="transparent" fill="#000000" transform="matrix(0.0666667 0 0 0.0666667 -169.853 -376)" d="M 4220.27,5691.17 L 4220.27,5714.26 L 3700.62,6014.2 L 3700.62,5991.11 L 4220.27,5691.17 Z " />
<path stroke="transparent" fill="#000000" transform="matrix(0.0666667 0 0 0.0666667 -169.853 -376)" d="M 4739.85,5991.11 L 4739.85,6014.2 L 4220.27,5714.26 L 4220.27,5691.17 L 4739.85,5991.11 Z " />
<path stroke="transparent" fill="#000000" transform="matrix(0.0666667 0 0 0.0666667 -169.853 -376)" d="M 5259.5,5691.17 L 5259.5,5714.26 L 4739.85,6014.2 L 4739.85,5991.11 L 5259.5,5691.17 Z " />
<path stroke="transparent" fill="#000000" transform="matrix(0.0666667 0 0 0.0666667 -169.853 -376)" d="M 5779.15,5991.11 L 5779.15,6014.2 L 5259.5,5714.26 L 5259.5,5691.17 L 5779.15,5991.11 Z " />
<path stroke="transparent" fill="#000000" transform="matrix(0.0666667 0 0 0.0666667 -169.853 -376)" d="M 6298.73,5691.17 L 6298.73,5714.26 L 5779.15,6014.2 L 5779.15,5991.11 L 6298.73,5691.17 Z " />
<path stroke="transparent" fill="#000000" transform="matrix(0.0666667 0 0 0.0666667 -169.853 -376)" d="M 6818.39,5991.11 L 6818.39,6014.2 L 6298.73,5714.26 L 6298.73,5691.17 L 6818.39,5991.11 Z " />
<path stroke="transparent" fill="#000000" transform="matrix(0.0666667 0 0 0.0666667 -169.853 -376)" d="M 7338.04,5691.17 L 7338.04,5714.26 L 6818.39,6014.2 L 6818.39,5991.11 L 7338.04,5691.17 Z " />
<path stroke="transparent" fill="#000000" transform="matrix(0.0666667 0 0 0.0666667 -169.853 -376)" d="M 7862.69,5993.99 L 7852.69,6011.31 L 7338.04,5714.26 L 7338.04,5691.17 L 7862.69,5993.99 Z " />
<path stroke="transparent" fill="#000000" transform="matrix(0.0666667 0 0 0.0666667 -169.853 -376)" d="M 2758.94,5957.85 L 2748.94,5940.53 L 3180.97,5691.17 L 3180.97,5714.26 L 2758.94,5957.85 Z " />
<path stroke="transparent" fill="#000000" transform="matrix(0.0666667 0 0 0.0666667 -169.853 -376)" d="M 2794.93,6020.21 L 2784.93,6002.89 L 3175.97,5777.19 L 3185.96,5794.51 L 2794.93,6020.21 Z " />
</svg>
