<?xml version="1.0" standalone="no" ?>
<!DOCTYPE svg PUBLIC "-//W3C//DTD SVG 1.1//EN" "http://www.w3.org/Graphics/SVG/1.1/DTD/svg11.dtd">
<svg width="460px" height="245px" viewBox="0 0 460 245" style="background-color: #ffffff00" xmlns="http://www.w3.org/2000/svg" xmlns:xlink="http://www.w3.org/1999/xlink" version="1.1" >
<text x="0" y="0" stroke="transparent" fill="#000000" transform="matrix(0.0833333 0 0 0.0833333 189.273 91.5309)" style="font:normal normal normal 200px 'Arial'" >
O</text>
<text x="0" y="0" stroke="transparent" fill="#000000" transform="matrix(0.0833333 0 0 0.0833333 188.649 241.42)" style="font:normal normal normal 200px 'Arial'" >
O</text>
<text x="0" y="0" stroke="transparent" fill="#000000" transform="matrix(0.0833333 0 0 0.0833333 102.78 241.214)" style="font:normal normal normal 200px 'Arial'" >
OH</text>
<text x="0" y="0" stroke="transparent" fill="#000000" transform="matrix(0.0833333 0 0 0.0833333 3.84572 91.3188)" style="font:normal normal normal 200px 'Arial'" >
HO</text>
<text x="0" y="0" stroke="transparent" fill="#000000" transform="matrix(0.0833333 0 0 0.0833333 405.898 17.5106)" style="font:normal normal normal 200px 'Arial'" >
O</text>
<path stroke="transparent" fill="#000000" transform="matrix(0.0833333 0 0 0.0833333 -206.208 -237)" d="M 4292.25,4166.85 L 4302.27,4161.08 L 4312.25,4166.91 L 4309.9,4756.6 L 4299.87,4762.36 L 4289.9,4756.59 L 4292.25,4166.85 Z " />
<path stroke="transparent" fill="#000000" transform="matrix(0.0833333 0 0 0.0833333 -206.208 -237)" d="M 4818.8,5050.31 L 4818.71,5073.36 L 4299.88,4773.91 L 4299.87,4762.36 L 4309.9,4756.6 L 4818.8,5050.31 Z " />
<path stroke="transparent" fill="#000000" transform="matrix(0.0833333 0 0 0.0833333 -206.208 -237)" d="M 3793.49,5067.58 L 3783.46,5061.84 L 3783.44,5050.29 L 4289.9,4756.59 L 4299.87,4762.36 L 4299.88,4773.91 L 3793.49,5067.58 Z " />
<path stroke="transparent" fill="#000000" transform="matrix(0.0833333 0 0 0.0833333 -206.208 -237)" d="M 3788.3,4987.78 L 3778.27,4970.48 L 4223.38,4712.35 L 4233.42,4729.65 L 3788.3,4987.78 Z " />
<path stroke="transparent" fill="#000000" transform="matrix(0.0833333 0 0 0.0833333 -206.208 -237)" d="M 4718.93,3912.52 L 4728.82,3929.9 L 4312.25,4166.91 L 4302.27,4161.08 L 4302.31,4149.56 L 4718.93,3912.52 Z " />
<path stroke="transparent" fill="#000000" transform="matrix(0.0833333 0 0 0.0833333 -206.208 -237)" d="M 3783.45,3873.36 L 3783.48,3850.29 L 4302.31,4149.56 L 4302.27,4161.08 L 4292.25,4166.85 L 3783.45,3873.36 Z " />
<path stroke="transparent" fill="#000000" transform="matrix(0.0833333 0 0 0.0833333 -206.208 -237)" d="M 3778.37,3953.41 L 3788.37,3936.08 L 4235.23,4193.84 L 4225.24,4211.16 L 3778.37,3953.41 Z " />
<path stroke="transparent" fill="#000000" transform="matrix(0.0833333 0 0 0.0833333 -206.208 -237)" d="M 5327.66,4761.54 L 5347.61,4773.22 L 4818.71,5073.36 L 4818.8,5050.31 L 5327.66,4761.54 Z " />
<path stroke="transparent" fill="#000000" transform="matrix(0.0833333 0 0 0.0833333 -206.208 -237)" d="M 4862.79,5558.06 L 4842.79,5557.98 L 4844.91,5041.28 L 4864.91,5041.36 L 4862.79,5558.06 Z " />
<path stroke="transparent" fill="#000000" transform="matrix(0.0833333 0 0 0.0833333 -206.208 -237)" d="M 4790.64,5557.77 L 4770.64,5557.68 L 4772.77,5041.02 L 4792.77,5041.11 L 4790.64,5557.77 Z " />
<path stroke="transparent" fill="#000000" transform="matrix(0.0833333 0 0 0.0833333 -206.208 -237)" d="M 3251.96,4768.15 L 3271.96,4756.57 L 3783.44,5050.29 L 3783.46,5061.84 L 3773.49,5067.64 L 3251.96,4768.15 Z " />
<path stroke="transparent" fill="#000000" transform="matrix(0.0833333 0 0 0.0833333 -206.208 -237)" d="M 3795.44,5555.36 L 3775.44,5555.44 L 3773.49,5067.64 L 3783.46,5061.84 L 3793.49,5067.58 L 3795.44,5555.36 Z " />
<path stroke="transparent" fill="#000000" transform="matrix(0.0833333 0 0 0.0833333 -206.208 -237)" d="M 5350.21,4160.45 L 5330.16,4171.9 L 4918.51,3931.32 L 4928.61,3914.06 L 5350.21,4160.45 Z " />
<path stroke="transparent" fill="#000000" transform="matrix(0.0833333 0 0 0.0833333 -206.208 -237)" d="M 3271.96,4166.87 L 3261.96,4161.08 L 3261.98,4149.55 L 3783.48,3850.29 L 3783.45,3873.36 L 3271.96,4166.87 Z " />
<path stroke="transparent" fill="#000000" transform="matrix(0.0833333 0 0 0.0833333 -206.208 -237)" d="M 5330.16,4171.9 L 5350.21,4160.45 L 5347.61,4773.22 L 5327.66,4761.54 L 5330.16,4171.9 Z " />
<path stroke="transparent" fill="#000000" transform="matrix(0.0833333 0 0 0.0833333 -206.208 -237)" d="M 3251.96,4166.86 L 3261.96,4161.08 L 3271.96,4166.87 L 3271.96,4756.57 L 3251.96,4768.15 L 3251.96,4166.86 Z " />
<path stroke="transparent" fill="#000000" transform="matrix(0.0833333 0 0 0.0833333 -206.208 -237)" d="M 3324.12,4202.87 L 3344.12,4202.87 L 3344.12,4720.59 L 3324.12,4720.59 L 3324.12,4202.87 Z " />
<path stroke="transparent" fill="#000000" transform="matrix(0.0833333 0 0 0.0833333 -206.208 -237)" d="M 5784.82,3841.7 L 5844.57,3945.77 L 5826.21,3953.97 L 5768.48,3853.42 L 5784.82,3841.7 Z " />
<path stroke="transparent" fill="#000000" transform="matrix(0.0833333 0 0 0.0833333 -206.208 -237)" d="M 5736.51,3876.35 L 5790.29,3970.02 L 5771.94,3978.22 L 5720.18,3888.07 L 5736.51,3876.35 Z " />
<path stroke="transparent" fill="#000000" transform="matrix(0.0833333 0 0 0.0833333 -206.208 -237)" d="M 5688.21,3911 L 5736.01,3994.27 L 5717.66,4002.47 L 5671.87,3922.72 L 5688.21,3911 Z " />
<path stroke="transparent" fill="#000000" transform="matrix(0.0833333 0 0 0.0833333 -206.208 -237)" d="M 5639.9,3945.65 L 5681.74,4018.51 L 5663.38,4026.71 L 5623.57,3957.37 L 5639.9,3945.65 Z " />
<path stroke="transparent" fill="#000000" transform="matrix(0.0833333 0 0 0.0833333 -206.208 -237)" d="M 5591.6,3980.3 L 5627.46,4042.76 L 5609.11,4050.96 L 5575.26,3992.01 L 5591.6,3980.3 Z " />
<path stroke="transparent" fill="#000000" transform="matrix(0.0833333 0 0 0.0833333 -206.208 -237)" d="M 5543.29,4014.95 L 5573.19,4067.01 L 5554.83,4075.21 L 5526.96,4026.66 L 5543.29,4014.95 Z " />
<path stroke="transparent" fill="#000000" transform="matrix(0.0833333 0 0 0.0833333 -206.208 -237)" d="M 5494.99,4049.59 L 5518.91,4091.26 L 5500.56,4099.46 L 5478.66,4061.31 L 5494.99,4049.59 Z " />
<path stroke="transparent" fill="#000000" transform="matrix(0.0833333 0 0 0.0833333 -206.208 -237)" d="M 5446.69,4084.24 L 5464.63,4115.5 L 5446.28,4123.7 L 5430.35,4095.96 L 5446.69,4084.24 Z " />
<path stroke="transparent" fill="#000000" transform="matrix(0.0833333 0 0 0.0833333 -206.208 -237)" d="M 5398.38,4118.89 L 5410.36,4139.75 L 5392,4147.95 L 5382.05,4130.61 L 5398.38,4118.89 Z " />
<path stroke="transparent" fill="#000000" transform="matrix(0.0833333 0 0 0.0833333 -206.208 -237)" d="M 2838.14,3928.19 L 2848.13,3910.87 L 3261.98,4149.55 L 3261.96,4161.08 L 3251.96,4166.86 L 2838.14,3928.19 Z " />
<path stroke="transparent" fill="#000000" transform="matrix(0.0833333 0 0 0.0833333 -206.208 -237)" d="M 6378.03,4162.08 L 6377.86,4185.24 L 5851.54,3872.53 L 5871.54,3861.15 L 6378.03,4162.08 Z " />
<path stroke="transparent" fill="#000000" transform="matrix(0.0833333 0 0 0.0833333 -206.208 -237)" d="M 6383.67,4081.59 L 6373.46,4098.78 L 5928.51,3834.42 L 5938.73,3817.23 L 6383.67,4081.59 Z " />
<path stroke="transparent" fill="#000000" transform="matrix(0.0833333 0 0 0.0833333 -206.208 -237)" d="M 5851.54,3262.13 L 5871.54,3273.81 L 5871.54,3861.15 L 5851.54,3872.53 L 5851.54,3262.13 Z " />
<path stroke="transparent" fill="#000000" transform="matrix(0.0833333 0 0 0.0833333 -206.208 -237)" d="M 6889.4,3868.46 L 6909.35,3880.06 L 6377.86,4185.24 L 6378.03,4162.08 L 6889.4,3868.46 Z " />
<path stroke="transparent" fill="#000000" transform="matrix(0.0833333 0 0 0.0833333 -206.208 -237)" d="M 6383.02,2962.21 L 6382.91,2985.24 L 5871.54,3273.81 L 5851.54,3262.13 L 6383.02,2962.21 Z " />
<path stroke="transparent" fill="#000000" transform="matrix(0.0833333 0 0 0.0833333 -206.208 -237)" d="M 6377.66,3047.73 L 6387.49,3065.15 L 5938.3,3318.63 L 5928.47,3301.21 L 6377.66,3047.73 Z " />
<path stroke="transparent" fill="#000000" transform="matrix(0.0833333 0 0 0.0833333 -206.208 -237)" d="M 6891.82,3278.75 L 6901.84,3272.98 L 6911.82,3278.81 L 6909.35,3880.06 L 6889.4,3868.46 L 6891.82,3278.75 Z " />
<path stroke="transparent" fill="#000000" transform="matrix(0.0833333 0 0 0.0833333 -206.208 -237)" d="M 6819.52,3314.52 L 6839.52,3314.61 L 6837.39,3832.43 L 6817.39,3832.35 L 6819.52,3314.52 Z " />
<path stroke="transparent" fill="#000000" transform="matrix(0.0833333 0 0 0.0833333 -206.208 -237)" d="M 6901.88,3261.46 L 6901.84,3272.98 L 6891.82,3278.75 L 6382.91,2985.24 L 6383.02,2962.21 L 6901.88,3261.46 Z " />
<path stroke="transparent" fill="#000000" transform="matrix(0.0833333 0 0 0.0833333 -206.208 -237)" d="M 7318.44,3024.3 L 7328.33,3041.68 L 6911.82,3278.81 L 6901.84,3272.98 L 6901.88,3261.46 L 7318.44,3024.3 Z " />
<path stroke="transparent" fill="#000000" transform="matrix(0.0833333 0 0 0.0833333 -206.208 -237)" d="M 7943.35,3269.01 L 7933.25,3286.27 L 7517.97,3043.15 L 7528.08,3025.89 L 7943.35,3269.01 Z " />
</svg>
