<?xml version="1.0" standalone="no" ?>
<!DOCTYPE svg PUBLIC "-//W3C//DTD SVG 1.1//EN" "http://www.w3.org/Graphics/SVG/1.1/DTD/svg11.dtd">
<svg width="738px" height="372px" viewBox="0 0 738 372" style="background-color: #ffffff00" xmlns="http://www.w3.org/2000/svg" xmlns:xlink="http://www.w3.org/1999/xlink" version="1.1" >
<text x="0" y="0" stroke="transparent" fill="#000000" transform="matrix(0.0833333 0 0 0.0833333 275.647 92.7986)" style="font:normal normal normal 200px 'Arial'" >
O</text>
<text x="0" y="0" stroke="transparent" fill="#000000" transform="matrix(0.0833333 0 0 0.0833333 318.949 167.799)" style="font:normal normal normal 200px 'Arial'" >
O</text>
<text x="0" y="0" stroke="transparent" fill="#000000" transform="matrix(0.0833333 0 0 0.0833333 448.853 142.799)" style="font:normal normal normal 200px 'Arial'" >
O</text>
<text x="0" y="0" stroke="transparent" fill="#000000" transform="matrix(0.0833333 0 0 0.0833333 492.154 217.799)" style="font:normal normal normal 200px 'Arial'" >
O</text>
<text x="0" y="0" stroke="transparent" fill="#000000" transform="matrix(0.0833333 0 0 0.0833333 492.154 367.799)" style="font:normal normal normal 200px 'Arial'" >
O</text>
<text x="0" y="0" stroke="transparent" fill="#000000" transform="matrix(0.0833333 0 0 0.0833333 708.66 142.799)" style="font:normal normal normal 200px 'Arial'" >
OH</text>
<text x="0" y="0" stroke="transparent" fill="#000000" transform="matrix(0.0833333 0 0 0.0833333 405.551 367.799)" style="font:normal normal normal 200px 'Arial'" >
OH</text>
<text x="0" y="0" stroke="transparent" fill="#000000" transform="matrix(0.0833333 0 0 0.0833333 306.913 217.799)" style="font:normal normal normal 200px 'Arial'" >
HO</text>
<text x="0" y="0" stroke="transparent" fill="#000000" transform="matrix(0.0833333 0 0 0.0833333 535.455 92.7986)" style="font:normal normal normal 200px 'Arial'" >
OH</text>
<text x="0" y="0" stroke="transparent" fill="#000000" transform="matrix(0.0833333 0 0 0.0833333 405.551 17.7986)" style="font:normal normal normal 200px 'Arial'" >
OH</text>
<text x="0" y="0" stroke="transparent" fill="#000000" transform="matrix(0.0833333 0 0 0.0833333 306.913 67.7986)" style="font:normal normal normal 200px 'Arial'" >
HO</text>
<text x="0" y="0" stroke="transparent" fill="#000000" transform="matrix(0.0833333 0 0 0.0833333 3.80371 242.799)" style="font:normal normal normal 200px 'Arial'" >
HO</text>
<path stroke="transparent" fill="#000000" transform="matrix(0.0833333 0 0 0.0833333 -53.25 -93.1667)" d="M 1946.31,3965.13 L 1946.31,3942.04 L 2455.92,3647.81 L 2475.92,3659.36 L 1946.31,3965.13 Z " />
<path stroke="transparent" fill="#000000" transform="matrix(0.0833333 0 0 0.0833333 -53.25 -93.1667)" d="M 1951.31,3879.11 L 1941.31,3861.78 L 2388.92,3603.35 L 2398.92,3620.67 L 1951.31,3879.11 Z " />
<path stroke="transparent" fill="#000000" transform="matrix(0.0833333 0 0 0.0833333 -53.25 -93.1667)" d="M 1426.69,3665.13 L 1426.69,3653.58 L 1436.69,3647.81 L 1946.31,3942.04 L 1946.31,3965.13 L 1426.69,3665.13 Z " />
<path stroke="transparent" fill="#000000" transform="matrix(0.0833333 0 0 0.0833333 -53.25 -93.1667)" d="M 1416.69,3047.81 L 1436.69,3059.36 L 1436.69,3647.81 L 1426.69,3653.58 L 1416.69,3647.81 L 1416.69,3047.81 Z " />
<path stroke="transparent" fill="#000000" transform="matrix(0.0833333 0 0 0.0833333 -53.25 -93.1667)" d="M 1488.69,3095.15 L 1508.69,3095.15 L 1508.69,3612.01 L 1488.69,3612.01 L 1488.69,3095.15 Z " />
<path stroke="transparent" fill="#000000" transform="matrix(0.0833333 0 0 0.0833333 -53.25 -93.1667)" d="M 1946.31,2742.04 L 1946.31,2765.13 L 1436.69,3059.36 L 1416.69,3047.81 L 1946.31,2742.04 Z " />
<path stroke="transparent" fill="#000000" transform="matrix(0.0833333 0 0 0.0833333 -53.25 -93.1667)" d="M 2465.92,3042.04 L 2465.92,3053.58 L 2455.92,3059.36 L 1946.31,2765.13 L 1946.31,2742.04 L 2465.92,3042.04 Z " />
<path stroke="transparent" fill="#000000" transform="matrix(0.0833333 0 0 0.0833333 -53.25 -93.1667)" d="M 2398.92,3086.49 L 2388.92,3103.81 L 1941.31,2845.38 L 1951.31,2828.06 L 2398.92,3086.49 Z " />
<path stroke="transparent" fill="#000000" transform="matrix(0.0833333 0 0 0.0833333 -53.25 -93.1667)" d="M 2455.92,3059.36 L 2465.92,3053.58 L 2475.92,3059.36 L 2475.92,3659.36 L 2455.92,3647.81 L 2455.92,3059.36 Z " />
<path stroke="transparent" fill="#000000" transform="matrix(0.0833333 0 0 0.0833333 -53.25 -93.1667)" d="M 2985.54,2742.04 L 2985.54,2765.13 L 2475.92,3059.36 L 2465.92,3053.58 L 2465.92,3042.04 L 2985.54,2742.04 Z " />
<path stroke="transparent" fill="#000000" transform="matrix(0.0833333 0 0 0.0833333 -53.25 -93.1667)" d="M 3505.15,3042.04 L 3505.15,3065.13 L 2985.54,2765.13 L 2985.54,2742.04 L 3505.15,3042.04 Z " />
<path stroke="transparent" fill="#000000" transform="matrix(0.0833333 0 0 0.0833333 -53.25 -93.1667)" d="M 3510.15,2961.78 L 3500.15,2979.11 L 3016.54,2699.89 L 3026.54,2682.57 L 3510.15,2961.78 Z " />
<path stroke="transparent" fill="#000000" transform="matrix(0.0833333 0 0 0.0833333 -53.25 -93.1667)" d="M 4024.77,2742.04 L 4024.77,2765.13 L 3505.15,3065.13 L 3505.15,3042.04 L 4024.77,2742.04 Z " />
<path stroke="transparent" fill="#000000" transform="matrix(0.0833333 0 0 0.0833333 -53.25 -93.1667)" d="M 3978.77,2273.42 L 3998.77,2273.42 L 3998.77,2774.37 L 3978.77,2774.37 L 3978.77,2273.42 Z " />
<path stroke="transparent" fill="#000000" transform="matrix(0.0833333 0 0 0.0833333 -53.25 -93.1667)" d="M 4050.77,2273.42 L 4070.77,2273.42 L 4070.77,2774.37 L 4050.77,2774.37 L 4050.77,2273.42 Z " />
<path stroke="transparent" fill="#000000" transform="matrix(0.0833333 0 0 0.0833333 -53.25 -93.1667)" d="M 4456.77,2991.45 L 4446.77,3008.77 L 4024.77,2765.13 L 4024.77,2742.04 L 4456.77,2991.45 Z " />
<path stroke="transparent" fill="#000000" transform="matrix(0.0833333 0 0 0.0833333 -53.25 -93.1667)" d="M 5012.23,2771.93 L 5022.23,2789.25 L 5006.05,2801.22 L 4993.77,2779.95 L 5012.23,2771.93 Z " />
<path stroke="transparent" fill="#000000" transform="matrix(0.0833333 0 0 0.0833333 -53.25 -93.1667)" d="M 4956.98,2795.95 L 4973.79,2825.08 L 4957.61,2837.06 L 4938.52,2803.98 L 4956.98,2795.95 Z " />
<path stroke="transparent" fill="#000000" transform="matrix(0.0833333 0 0 0.0833333 -53.25 -93.1667)" d="M 4901.72,2819.98 L 4925.36,2860.92 L 4909.18,2872.89 L 4883.27,2828.01 L 4901.72,2819.98 Z " />
<path stroke="transparent" fill="#000000" transform="matrix(0.0833333 0 0 0.0833333 -53.25 -93.1667)" d="M 4846.47,2844.01 L 4876.92,2896.75 L 4860.74,2908.73 L 4828.01,2852.04 L 4846.47,2844.01 Z " />
<path stroke="transparent" fill="#000000" transform="matrix(0.0833333 0 0 0.0833333 -53.25 -93.1667)" d="M 4791.22,2868.04 L 4828.49,2932.59 L 4812.31,2944.56 L 4772.76,2876.06 L 4791.22,2868.04 Z " />
<path stroke="transparent" fill="#000000" transform="matrix(0.0833333 0 0 0.0833333 -53.25 -93.1667)" d="M 4735.97,2892.07 L 4780.05,2968.43 L 4763.87,2980.4 L 4717.51,2900.09 L 4735.97,2892.07 Z " />
<path stroke="transparent" fill="#000000" transform="matrix(0.0833333 0 0 0.0833333 -53.25 -93.1667)" d="M 4680.72,2916.09 L 4731.62,3004.26 L 4715.44,3016.24 L 4662.26,2924.12 L 4680.72,2916.09 Z " />
<path stroke="transparent" fill="#000000" transform="matrix(0.0833333 0 0 0.0833333 -53.25 -93.1667)" d="M 4625.46,2940.12 L 4683.19,3040.1 L 4667,3052.07 L 4607,2948.15 L 4625.46,2940.12 Z " />
<path stroke="transparent" fill="#000000" transform="matrix(0.0833333 0 0 0.0833333 -53.25 -93.1667)" d="M 5054,2160.01 L 5064,2153.58 L 5074,2159.36 L 5074,2747.81 L 5054,2759.36 L 5054,2160.01 Z " />
<path stroke="transparent" fill="#000000" transform="matrix(0.0833333 0 0 0.0833333 -53.25 -93.1667)" d="M 5583.62,1842.04 L 5583.62,1865.13 L 5074,2159.36 L 5064,2153.58 L 5064.56,2141.71 L 5583.62,1842.04 Z " />
<path stroke="transparent" fill="#000000" transform="matrix(0.0833333 0 0 0.0833333 -53.25 -93.1667)" d="M 6102.77,2141.77 L 6103.23,2153.58 L 6093.23,2159.36 L 5583.62,1865.13 L 5583.62,1842.04 L 6102.77,2141.77 Z " />
<path stroke="transparent" fill="#000000" transform="matrix(0.0833333 0 0 0.0833333 -53.25 -93.1667)" d="M 6113.23,2648.42 L 6093.23,2648.42 L 6093.23,2159.36 L 6103.23,2153.58 L 6113.23,2159.89 L 6113.23,2648.42 Z " />
<path stroke="transparent" fill="#000000" transform="matrix(0.0833333 0 0 0.0833333 -53.25 -93.1667)" d="M 5594.07,3059.09 L 5583.62,3053.58 L 5583.62,3042.04 L 5998.63,2802.43 L 6008.63,2819.75 L 5594.07,3059.09 Z " />
<path stroke="transparent" fill="#000000" transform="matrix(0.0833333 0 0 0.0833333 -53.25 -93.1667)" d="M 5583.62,3042.04 L 5583.62,3053.58 L 5573.16,3059.09 L 5054,2759.36 L 5074,2747.81 L 5583.62,3042.04 Z " />
<path stroke="transparent" fill="#000000" transform="matrix(0.0833333 0 0 0.0833333 -53.25 -93.1667)" d="M 5645.64,3677.84 L 5583.62,3653.58 L 5521.59,3677.84 L 5573.16,3059.09 L 5583.62,3053.58 L 5594.07,3059.09 L 5645.64,3677.84 Z " />
<path stroke="transparent" fill="#000000" transform="matrix(0.0833333 0 0 0.0833333 -53.25 -93.1667)" d="M 5074,3959.36 L 5064,3953.58 L 5064,3942.04 L 5521.59,3677.84 L 5583.62,3653.58 L 5583.62,3665.13 L 5074,3959.36 Z " />
<path stroke="transparent" fill="#000000" transform="matrix(0.0833333 0 0 0.0833333 -53.25 -93.1667)" d="M 5141,4003.81 L 5131,3986.49 L 5578.62,3728.06 L 5588.62,3745.38 L 5141,4003.81 Z " />
<path stroke="transparent" fill="#000000" transform="matrix(0.0833333 0 0 0.0833333 -53.25 -93.1667)" d="M 5074,4547.81 L 5054,4559.36 L 5054,3959.36 L 5064,3953.58 L 5074,3959.36 L 5074,4547.81 Z " />
<path stroke="transparent" fill="#000000" transform="matrix(0.0833333 0 0 0.0833333 -53.25 -93.1667)" d="M 5583.62,4842.04 L 5583.62,4853.58 L 5573.62,4859.36 L 5054,4559.36 L 5074,4547.81 L 5583.62,4842.04 Z " />
<path stroke="transparent" fill="#000000" transform="matrix(0.0833333 0 0 0.0833333 -53.25 -93.1667)" d="M 5588.62,4761.78 L 5578.62,4779.11 L 5131,4520.67 L 5141,4503.35 L 5588.62,4761.78 Z " />
<path stroke="transparent" fill="#000000" transform="matrix(0.0833333 0 0 0.0833333 -53.25 -93.1667)" d="M 6093.23,4547.81 L 6103.23,4553.58 L 6103.23,4565.13 L 5593.62,4859.36 L 5583.62,4853.58 L 5583.62,4842.04 L 6093.23,4547.81 Z " />
<path stroke="transparent" fill="#000000" transform="matrix(0.0833333 0 0 0.0833333 -53.25 -93.1667)" d="M 6093.23,3959.36 L 6103.23,3953.58 L 6113.23,3959.36 L 6113.23,4547.81 L 6103.23,4553.58 L 6093.23,4547.81 L 6093.23,3959.36 Z " />
<path stroke="transparent" fill="#000000" transform="matrix(0.0833333 0 0 0.0833333 -53.25 -93.1667)" d="M 6021.23,3995.15 L 6041.23,3995.15 L 6041.23,4512.01 L 6021.23,4512.01 L 6021.23,3995.15 Z " />
<path stroke="transparent" fill="#000000" transform="matrix(0.0833333 0 0 0.0833333 -53.25 -93.1667)" d="M 6103.23,3942.04 L 6103.23,3953.58 L 6093.23,3959.36 L 5583.62,3665.13 L 5583.62,3653.58 L 5645.64,3677.84 L 6103.23,3942.04 Z " />
<path stroke="transparent" fill="#000000" transform="matrix(0.0833333 0 0 0.0833333 -53.25 -93.1667)" d="M 6518.24,3702.43 L 6528.24,3719.75 L 6113.23,3959.36 L 6103.23,3953.58 L 6103.23,3942.04 L 6518.24,3702.43 Z " />
<path stroke="transparent" fill="#000000" transform="matrix(0.0833333 0 0 0.0833333 -53.25 -93.1667)" d="M 7142.46,3942.04 L 7142.46,3953.58 L 7132.46,3959.36 L 6717.88,3720 L 6727.88,3702.68 L 7142.46,3942.04 Z " />
<path stroke="transparent" fill="#000000" transform="matrix(0.0833333 0 0 0.0833333 -53.25 -93.1667)" d="M 7152.46,4559.36 L 7132.46,4547.81 L 7132.46,3959.36 L 7142.46,3953.58 L 7152.46,3959.36 L 7152.46,4559.36 Z " />
<path stroke="transparent" fill="#000000" transform="matrix(0.0833333 0 0 0.0833333 -53.25 -93.1667)" d="M 7080.46,4512.01 L 7060.46,4512.01 L 7060.46,3995.15 L 7080.46,3995.15 L 7080.46,4512.01 Z " />
<path stroke="transparent" fill="#000000" transform="matrix(0.0833333 0 0 0.0833333 -53.25 -93.1667)" d="M 6622.85,4865.13 L 6622.85,4842.04 L 7132.46,4547.81 L 7152.46,4559.36 L 6622.85,4865.13 Z " />
<path stroke="transparent" fill="#000000" transform="matrix(0.0833333 0 0 0.0833333 -53.25 -93.1667)" d="M 6622.85,4842.04 L 6622.85,4865.13 L 6103.23,4565.13 L 6103.23,4553.58 L 6113.23,4547.81 L 6622.85,4842.04 Z " />
<path stroke="transparent" fill="#000000" transform="matrix(0.0833333 0 0 0.0833333 -53.25 -93.1667)" d="M 6668.85,5348.42 L 6648.85,5348.42 L 6648.85,4832.8 L 6668.85,4832.8 L 6668.85,5348.42 Z " />
<path stroke="transparent" fill="#000000" transform="matrix(0.0833333 0 0 0.0833333 -53.25 -93.1667)" d="M 6596.85,5348.42 L 6576.85,5348.42 L 6576.85,4832.8 L 6596.85,4832.8 L 6596.85,5348.42 Z " />
<path stroke="transparent" fill="#000000" transform="matrix(0.0833333 0 0 0.0833333 -53.25 -93.1667)" d="M 7652.08,3647.81 L 7662.08,3653.58 L 7662.08,3665.13 L 7152.46,3959.36 L 7142.46,3953.58 L 7142.46,3942.04 L 7652.08,3647.81 Z " />
<path stroke="transparent" fill="#000000" transform="matrix(0.0833333 0 0 0.0833333 -53.25 -93.1667)" d="M 7652.08,3047.81 L 7672.08,3059.36 L 7672.08,3647.81 L 7662.08,3653.58 L 7652.08,3647.81 L 7652.08,3047.81 Z " />
<path stroke="transparent" fill="#000000" transform="matrix(0.0833333 0 0 0.0833333 -53.25 -93.1667)" d="M 7724.08,3095.15 L 7744.08,3095.15 L 7744.08,3612.01 L 7724.08,3612.01 L 7724.08,3095.15 Z " />
<path stroke="transparent" fill="#000000" transform="matrix(0.0833333 0 0 0.0833333 -53.25 -93.1667)" d="M 8181.69,2742.04 L 8181.69,2765.13 L 7672.08,3059.36 L 7652.08,3047.81 L 8181.69,2742.04 Z " />
<path stroke="transparent" fill="#000000" transform="matrix(0.0833333 0 0 0.0833333 -53.25 -93.1667)" d="M 8701.31,3042.04 L 8701.31,3053.58 L 8691.31,3059.36 L 8181.69,2765.13 L 8181.69,2742.04 L 8701.31,3042.04 Z " />
<path stroke="transparent" fill="#000000" transform="matrix(0.0833333 0 0 0.0833333 -53.25 -93.1667)" d="M 8634.31,3086.49 L 8624.31,3103.81 L 8176.69,2845.38 L 8186.69,2828.06 L 8634.31,3086.49 Z " />
<path stroke="transparent" fill="#000000" transform="matrix(0.0833333 0 0 0.0833333 -53.25 -93.1667)" d="M 8711.31,3659.36 L 8691.31,3647.81 L 8691.31,3059.36 L 8701.31,3053.58 L 8711.31,3059.36 L 8711.31,3659.36 Z " />
<path stroke="transparent" fill="#000000" transform="matrix(0.0833333 0 0 0.0833333 -53.25 -93.1667)" d="M 8181.69,3965.13 L 8181.69,3942.04 L 8691.31,3647.81 L 8711.31,3659.36 L 8181.69,3965.13 Z " />
<path stroke="transparent" fill="#000000" transform="matrix(0.0833333 0 0 0.0833333 -53.25 -93.1667)" d="M 8186.69,3879.11 L 8176.69,3861.78 L 8624.31,3603.35 L 8634.31,3620.67 L 8186.69,3879.11 Z " />
<path stroke="transparent" fill="#000000" transform="matrix(0.0833333 0 0 0.0833333 -53.25 -93.1667)" d="M 8181.69,3942.04 L 8181.69,3965.13 L 7662.08,3665.13 L 7662.08,3653.58 L 7672.08,3647.81 L 8181.69,3942.04 Z " />
<path stroke="transparent" fill="#000000" transform="matrix(0.0833333 0 0 0.0833333 -53.25 -93.1667)" d="M 9116.32,2802.43 L 9126.32,2819.75 L 8711.31,3059.36 L 8701.31,3053.58 L 8701.31,3042.04 L 9116.32,2802.43 Z " />
<path stroke="transparent" fill="#000000" transform="matrix(0.0833333 0 0 0.0833333 -53.25 -93.1667)" d="M 5593.62,5348.42 L 5573.62,5348.42 L 5573.62,4859.36 L 5583.62,4853.58 L 5593.62,4859.36 L 5593.62,5348.42 Z " />
<path stroke="transparent" fill="#000000" transform="matrix(0.0833333 0 0 0.0833333 -53.25 -93.1667)" d="M 4639.41,3719.99 L 4649.41,3702.67 L 5064,3942.04 L 5064,3953.58 L 5054,3959.36 L 4639.41,3719.99 Z " />
<path stroke="transparent" fill="#000000" transform="matrix(0.0833333 0 0 0.0833333 -53.25 -93.1667)" d="M 6574.68,1814.23 L 6674.87,1895.17 L 6113.23,2159.89 L 6103.23,2153.58 L 6102.77,2141.77 L 6574.68,1814.23 Z " />
<path stroke="transparent" fill="#000000" transform="matrix(0.0833333 0 0 0.0833333 -53.25 -93.1667)" d="M 7054.84,2091.45 L 7044.84,2108.77 L 6674.87,1895.17 L 6574.68,1814.23 L 7054.84,2091.45 Z " />
<path stroke="transparent" fill="#000000" transform="matrix(0.0833333 0 0 0.0833333 -53.25 -93.1667)" d="M 5523.62,1373.42 L 5643.62,1373.42 L 5641.27,1393.42 L 5525.96,1393.42 L 5523.62,1373.42 Z " />
<path stroke="transparent" fill="#000000" transform="matrix(0.0833333 0 0 0.0833333 -53.25 -93.1667)" d="M 5530.42,1431.44 L 5636.81,1431.44 L 5634.46,1451.44 L 5532.77,1451.44 L 5530.42,1431.44 Z " />
<path stroke="transparent" fill="#000000" transform="matrix(0.0833333 0 0 0.0833333 -53.25 -93.1667)" d="M 5537.23,1489.46 L 5630,1489.46 L 5627.65,1509.46 L 5539.58,1509.46 L 5537.23,1489.46 Z " />
<path stroke="transparent" fill="#000000" transform="matrix(0.0833333 0 0 0.0833333 -53.25 -93.1667)" d="M 5544.04,1547.48 L 5623.19,1547.48 L 5620.85,1567.48 L 5546.38,1567.48 L 5544.04,1547.48 Z " />
<path stroke="transparent" fill="#000000" transform="matrix(0.0833333 0 0 0.0833333 -53.25 -93.1667)" d="M 5550.85,1605.5 L 5616.38,1605.5 L 5614.04,1625.5 L 5553.19,1625.5 L 5550.85,1605.5 Z " />
<path stroke="transparent" fill="#000000" transform="matrix(0.0833333 0 0 0.0833333 -53.25 -93.1667)" d="M 5557.65,1663.52 L 5609.58,1663.52 L 5607.23,1683.52 L 5560,1683.52 L 5557.65,1663.52 Z " />
<path stroke="transparent" fill="#000000" transform="matrix(0.0833333 0 0 0.0833333 -53.25 -93.1667)" d="M 5564.46,1721.54 L 5602.77,1721.54 L 5600.42,1741.54 L 5566.81,1741.54 L 5564.46,1721.54 Z " />
<path stroke="transparent" fill="#000000" transform="matrix(0.0833333 0 0 0.0833333 -53.25 -93.1667)" d="M 5571.27,1779.56 L 5595.96,1779.56 L 5593.62,1799.56 L 5573.62,1799.56 L 5571.27,1779.56 Z " />
<path stroke="transparent" fill="#000000" transform="matrix(0.0833333 0 0 0.0833333 -53.25 -93.1667)" d="M 4614.41,1963.3 L 4674.41,1859.37 L 5064.56,2141.71 L 5064,2153.58 L 5054,2160.01 L 4614.41,1963.3 Z " />
<path stroke="transparent" fill="#000000" transform="matrix(0.0833333 0 0 0.0833333 -53.25 -93.1667)" d="M 1004.69,3908.77 L 994.688,3891.45 L 1416.69,3647.81 L 1426.69,3653.58 L 1426.69,3665.13 L 1004.69,3908.77 Z " />
</svg>
