<?xml version="1.0" standalone="no" ?>
<!DOCTYPE svg PUBLIC "-//W3C//DTD SVG 1.1//EN" "http://www.w3.org/Graphics/SVG/1.1/DTD/svg11.dtd">
<svg width="330px" height="146px" viewBox="0 0 330 146" style="background-color: #ffffff00" xmlns="http://www.w3.org/2000/svg" xmlns:xlink="http://www.w3.org/1999/xlink" version="1.1" >
<text x="0" y="0" stroke="transparent" fill="#000000" transform="matrix(0.0833333 0 0 0.0833333 171.255 53.6567)" style="font:normal normal normal 200px 'Arial'" >
H</text>
<text x="0" y="0" stroke="transparent" fill="#000000" transform="matrix(0.0833333 0 0 0.0833333 171.255 67.4622)" style="font:normal normal normal 200px 'Arial'" >
N</text>
<text x="0" y="0" stroke="transparent" fill="#000000" transform="matrix(0.0833333 0 0 0.0833333 257.361 17.4623)" style="font:normal normal normal 200px 'Arial'" >
O</text>
<text x="0" y="0" stroke="transparent" fill="#000000" transform="matrix(0.0833333 0 0 0.0833333 300.658 92.4622)" style="font:normal normal normal 200px 'Arial'" >
OH</text>
<text x="0" y="0" stroke="transparent" fill="#000000" transform="matrix(0.0833333 0 0 0.0833333 127.458 142.468)" style="font:normal normal normal 200px 'Arial'" >
O</text>
<path stroke="transparent" fill="#000000" transform="matrix(0.0833333 0 0 0.0833333 -271.333 -292)" d="M 5902.63,4524.07 L 5902.63,4547.17 L 5488.33,4307.89 L 5498.33,4290.57 L 5902.63,4524.07 Z " />
<path stroke="transparent" fill="#000000" transform="matrix(0.0833333 0 0 0.0833333 -271.333 -292)" d="M 5902.63,4547.17 L 5902.63,4524.07 L 6422.34,4224 L 6422.34,4247.09 L 5902.63,4547.17 Z " />
<path stroke="transparent" fill="#000000" transform="matrix(0.0833333 0 0 0.0833333 -271.333 -292)" d="M 6376.34,3755.38 L 6396.34,3755.38 L 6396.34,4256.33 L 6376.34,4256.33 L 6376.34,3755.38 Z " />
<path stroke="transparent" fill="#000000" transform="matrix(0.0833333 0 0 0.0833333 -271.333 -292)" d="M 6448.34,3755.38 L 6468.34,3755.38 L 6468.34,4256.33 L 6448.34,4256.33 L 6448.34,3755.38 Z " />
<path stroke="transparent" fill="#000000" transform="matrix(0.0833333 0 0 0.0833333 -271.333 -292)" d="M 6854.29,4473.41 L 6844.28,4490.73 L 6422.34,4247.09 L 6422.34,4224 L 6854.29,4473.41 Z " />
<path stroke="transparent" fill="#000000" transform="matrix(0.0833333 0 0 0.0833333 -271.333 -292)" d="M 4909.5,5030.45 L 4889.5,5030.45 L 4889.5,4514.83 L 4909.5,4514.83 L 4909.5,5030.45 Z " />
<path stroke="transparent" fill="#000000" transform="matrix(0.0833333 0 0 0.0833333 -271.333 -292)" d="M 4837.5,5030.45 L 4817.5,5030.45 L 4817.5,4514.84 L 4837.5,4514.84 L 4837.5,5030.45 Z " />
<path stroke="transparent" fill="#000000" transform="matrix(0.0833333 0 0 0.0833333 -271.333 -292)" d="M 4343.86,4247.17 L 4343.86,4224.07 L 4863.5,4524.07 L 4863.5,4547.17 L 4343.86,4247.17 Z " />
<path stroke="transparent" fill="#000000" transform="matrix(0.0833333 0 0 0.0833333 -271.333 -292)" d="M 3834.23,4541.39 L 3824.23,4535.62 L 3824.23,4524.07 L 4343.86,4224.07 L 4343.86,4247.17 L 3834.23,4541.39 Z " />
<path stroke="transparent" fill="#000000" transform="matrix(0.0833333 0 0 0.0833333 -271.333 -292)" d="M 3834.23,5135.62 L 3814.23,5135.62 L 3814.23,4541.39 L 3824.23,4535.62 L 3834.23,4541.39 L 3834.23,5135.62 Z " />
<path stroke="transparent" fill="#000000" transform="matrix(0.0833333 0 0 0.0833333 -271.333 -292)" d="M 3299.67,4244.28 L 3309.67,4226.96 L 3824.23,4524.07 L 3824.23,4535.62 L 3814.23,4541.39 L 3299.67,4244.28 Z " />
<path stroke="transparent" fill="#000000" transform="matrix(0.0833333 0 0 0.0833333 -271.333 -292)" d="M 4863.5,4547.17 L 4863.5,4524.07 L 5267.8,4290.57 L 5277.8,4307.89 L 4863.5,4547.17 Z " />
</svg>
