<?xml version="1.0" standalone="no" ?>
<!DOCTYPE svg PUBLIC "-//W3C//DTD SVG 1.1//EN" "http://www.w3.org/Graphics/SVG/1.1/DTD/svg11.dtd">
<svg width="636px" height="341px" viewBox="0 0 636 341" style="background-color: #ffffff00" xmlns="http://www.w3.org/2000/svg" xmlns:xlink="http://www.w3.org/1999/xlink" version="1.1" >
<text x="0" y="0" stroke="transparent" fill="#000000" transform="matrix(0.0666667 0 0 0.0666667 38.0633 53.5226)" style="font:normal normal normal 200px 'Arial'" >
S</text>
<text x="0" y="0" stroke="transparent" fill="#000000" transform="matrix(0.0666667 0 0 0.0666667 28.9768 92.6488)" style="font:normal normal normal 200px 'Arial'" >
O</text>
<text x="0" y="0" stroke="transparent" fill="#000000" transform="matrix(0.0666667 0 0 0.0666667 45.6115 14.3964)" style="font:normal normal normal 200px 'Arial'" >
O</text>
<text x="0" y="0" stroke="transparent" fill="#000000" transform="matrix(0.0666667 0 0 0.0666667 76.818 61.8375)" style="font:normal normal normal 200px 'Arial'" >
NH</text>
<text x="0" y="0" stroke="transparent" fill="#000000" transform="matrix(0.0666667 0 0 0.0666667 133.503 210.604)" style="font:normal normal normal 200px 'Arial'" >
O</text>
<text x="0" y="0" stroke="transparent" fill="#000000" transform="matrix(0.0666667 0 0 0.0666667 211.445 102.51)" style="font:normal normal normal 200px 'Arial'" >
O</text>
<text x="0" y="0" stroke="transparent" fill="#000000" transform="matrix(0.0666667 0 0 0.0666667 350.006 222.507)" style="font:normal normal normal 200px 'Arial'" >
O</text>
<text x="0" y="0" stroke="transparent" fill="#000000" transform="matrix(0.0666667 0 0 0.0666667 488.967 222.507)" style="font:normal normal normal 200px 'Arial'" >
N</text>
<path stroke="transparent" fill="#000000" transform="matrix(0.0666667 0 0 0.0666667 -30.8533 -223)" d="M 1042.44,4562.88 L 1022.88,4558.72 L 1100.28,4194.72 L 1119.84,4198.88 L 1042.44,4562.88 Z " />
<path stroke="transparent" fill="#000000" transform="matrix(0.0666667 0 0 0.0666667 -30.8533 -223)" d="M 972.012,4547.9 L 952.45,4543.74 L 1029.85,4179.74 L 1049.41,4183.9 L 972.012,4547.9 Z " />
<path stroke="transparent" fill="#000000" transform="matrix(0.0666667 0 0 0.0666667 -30.8533 -223)" d="M 1154.61,3592.76 L 1174.17,3596.91 L 1096.76,3961.17 L 1077.2,3957.01 L 1154.61,3592.76 Z " />
<path stroke="transparent" fill="#000000" transform="matrix(0.0666667 0 0 0.0666667 -30.8533 -223)" d="M 1225.04,3607.72 L 1244.6,3611.88 L 1167.19,3976.14 L 1147.63,3971.98 L 1225.04,3607.72 Z " />
<path stroke="transparent" fill="#000000" transform="matrix(0.0666667 0 0 0.0666667 -30.8533 -223)" d="M 1583.67,4162.36 L 1579.51,4181.92 L 1200.12,4101.29 L 1204.28,4081.73 L 1583.67,4162.36 Z " />
<path stroke="transparent" fill="#000000" transform="matrix(0.0666667 0 0 0.0666667 -30.8533 -223)" d="M 1007.53,4039.91 L 1003.37,4059.47 L 511.277,3954.9 L 515.434,3935.33 L 1007.53,4039.91 Z " />
<path stroke="transparent" fill="#000000" transform="matrix(0.0666667 0 0 0.0666667 -30.8533 -223)" d="M 3120.97,6293 L 3130.16,6301.27 L 3127.25,6312.11 L 2650.37,6413.53 L 2646.21,6393.97 L 3120.97,6293 Z " />
<path stroke="transparent" fill="#000000" transform="matrix(0.0666667 0 0 0.0666667 -30.8533 -223)" d="M 3182.22,5710.81 L 3192.92,5704.63 L 3202.33,5710.74 L 3140.64,6297.25 L 3130.16,6301.27 L 3120.97,6293 L 3182.22,5710.81 Z " />
<path stroke="transparent" fill="#000000" transform="matrix(0.0666667 0 0 0.0666667 -30.8533 -223)" d="M 3105.91,5748.08 L 3125.8,5750.17 L 3073.98,6242.78 L 3054.09,6240.69 L 3105.91,5748.08 Z " />
<path stroke="transparent" fill="#000000" transform="matrix(0.0666667 0 0 0.0666667 -30.8533 -223)" d="M 2647.36,5472.66 L 2644.79,5460.57 L 2652.92,5453.24 L 3192.33,5693.42 L 3192.92,5704.63 L 3182.22,5710.81 L 2647.36,5472.66 Z " />
<path stroke="transparent" fill="#000000" transform="matrix(0.0666667 0 0 0.0666667 -30.8533 -223)" d="M 2255.64,5907.74 L 2243.35,5906.45 L 2239.78,5895.46 L 2633.5,5458.17 L 2644.79,5460.57 L 2647.36,5472.66 L 2255.64,5907.74 Z " />
<path stroke="transparent" fill="#000000" transform="matrix(0.0666667 0 0 0.0666667 -30.8533 -223)" d="M 2236.91,5915.3 L 2243.35,5906.45 L 2255.64,5907.74 L 2498.75,6328.83 L 2481.43,6338.83 L 2236.91,5915.3 Z " />
<path stroke="transparent" fill="#000000" transform="matrix(0.0666667 0 0 0.0666667 -30.8533 -223)" d="M 1876.09,4776.22 L 1872.52,4765.24 L 1880.25,4756.66 L 2467.14,4881.38 L 2451.69,4898.54 L 1876.09,4776.22 Z " />
<path stroke="transparent" fill="#000000" transform="matrix(0.0666667 0 0 0.0666667 -30.8533 -223)" d="M 1482.37,5213.52 L 1459.78,5208.72 L 1861.22,4762.84 L 1872.52,4765.24 L 1876.09,4776.22 L 1482.37,5213.52 Z " />
<path stroke="transparent" fill="#000000" transform="matrix(0.0666667 0 0 0.0666667 -30.8533 -223)" d="M 1559.82,5235.09 L 1544.96,5221.71 L 1890.78,4837.61 L 1905.64,4850.99 L 1559.82,5235.09 Z " />
<path stroke="transparent" fill="#000000" transform="matrix(0.0666667 0 0 0.0666667 -30.8533 -223)" d="M 1664.18,5773.14 L 1648.73,5790.3 L 1459.78,5208.72 L 1482.37,5213.52 L 1664.18,5773.14 Z " />
<path stroke="transparent" fill="#000000" transform="matrix(0.0666667 0 0 0.0666667 -30.8533 -223)" d="M 2239.78,5895.46 L 2243.35,5906.45 L 2236.91,5915.3 L 1648.73,5790.3 L 1664.18,5773.14 L 2239.78,5895.46 Z " />
<path stroke="transparent" fill="#000000" transform="matrix(0.0666667 0 0 0.0666667 -30.8533 -223)" d="M 2219.73,5817.6 L 2215.57,5837.16 L 1710.01,5729.72 L 1714.16,5710.15 L 2219.73,5817.6 Z " />
<path stroke="transparent" fill="#000000" transform="matrix(0.0666667 0 0 0.0666667 -30.8533 -223)" d="M 2652.92,5453.24 L 2644.79,5460.57 L 2633.5,5458.17 L 2451.69,4898.54 L 2467.14,4881.38 L 2652.92,5453.24 Z " />
<path stroke="transparent" fill="#000000" transform="matrix(0.0666667 0 0 0.0666667 -30.8533 -223)" d="M 2572.99,5440.19 L 2553.96,5446.37 L 2394.27,4954.83 L 2413.3,4948.65 L 2572.99,5440.19 Z " />
<path stroke="transparent" fill="#000000" transform="matrix(0.0666667 0 0 0.0666667 -30.8533 -223)" d="M 4232.09,5693.09 L 4232.09,5704.63 L 4222.09,5710.41 L 3712.47,5416.19 L 3712.47,5393.09 L 4232.09,5693.09 Z " />
<path stroke="transparent" fill="#000000" transform="matrix(0.0666667 0 0 0.0666667 -30.8533 -223)" d="M 4242.09,6298.84 L 4222.09,6310.39 L 4222.09,5710.41 L 4232.09,5704.63 L 4242.09,5710.41 L 4242.09,6298.84 Z " />
<path stroke="transparent" fill="#000000" transform="matrix(0.0666667 0 0 0.0666667 -30.8533 -223)" d="M 4751.72,6593.06 L 4751.72,6616.15 L 4222.09,6310.39 L 4242.09,6298.84 L 4751.72,6593.06 Z " />
<path stroke="transparent" fill="#000000" transform="matrix(0.0666667 0 0 0.0666667 -30.8533 -223)" d="M 4756.72,6512.81 L 4746.72,6530.13 L 4299.09,6271.71 L 4309.09,6254.39 L 4756.72,6512.81 Z " />
<path stroke="transparent" fill="#000000" transform="matrix(0.0666667 0 0 0.0666667 -30.8533 -223)" d="M 5261.34,6298.84 L 5271.34,6304.62 L 5271.34,6316.16 L 4751.72,6616.15 L 4751.72,6593.06 L 5261.34,6298.84 Z " />
<path stroke="transparent" fill="#000000" transform="matrix(0.0666667 0 0 0.0666667 -30.8533 -223)" d="M 5261.34,5710.41 L 5281.34,5698.86 L 5281.34,6298.84 L 5271.34,6304.62 L 5261.34,6298.84 L 5261.34,5710.41 Z " />
<path stroke="transparent" fill="#000000" transform="matrix(0.0666667 0 0 0.0666667 -30.8533 -223)" d="M 5189.34,5746.2 L 5209.34,5746.2 L 5209.34,6263.05 L 5189.34,6263.05 L 5189.34,5746.2 Z " />
<path stroke="transparent" fill="#000000" transform="matrix(0.0666667 0 0 0.0666667 -30.8533 -223)" d="M 4751.72,5416.19 L 4751.72,5393.09 L 5281.34,5698.86 L 5261.34,5710.41 L 4751.72,5416.19 Z " />
<path stroke="transparent" fill="#000000" transform="matrix(0.0666667 0 0 0.0666667 -30.8533 -223)" d="M 4751.72,5393.09 L 4751.72,5416.19 L 4242.09,5710.41 L 4232.09,5704.63 L 4232.09,5693.09 L 4751.72,5393.09 Z " />
<path stroke="transparent" fill="#000000" transform="matrix(0.0666667 0 0 0.0666667 -30.8533 -223)" d="M 4746.72,5479.12 L 4756.72,5496.44 L 4309.09,5754.86 L 4299.09,5737.54 L 4746.72,5479.12 Z " />
<path stroke="transparent" fill="#000000" transform="matrix(0.0666667 0 0 0.0666667 -30.8533 -223)" d="M 3666.47,4924.49 L 3686.47,4924.49 L 3686.47,5425.43 L 3666.47,5425.43 L 3666.47,4924.49 Z " />
<path stroke="transparent" fill="#000000" transform="matrix(0.0666667 0 0 0.0666667 -30.8533 -223)" d="M 3738.47,4924.49 L 3758.47,4924.49 L 3758.47,5425.42 L 3738.47,5425.42 L 3738.47,4924.49 Z " />
<path stroke="transparent" fill="#000000" transform="matrix(0.0666667 0 0 0.0666667 -30.8533 -223)" d="M 6830.13,6593.06 L 6830.13,6616.15 L 6310.51,6316.16 L 6310.51,6293.07 L 6830.13,6593.06 Z " />
<path stroke="transparent" fill="#000000" transform="matrix(0.0666667 0 0 0.0666667 -30.8533 -223)" d="M 7349.68,6293.07 L 7349.68,6316.16 L 6830.13,6616.15 L 6830.13,6593.06 L 7349.68,6293.07 Z " />
<path stroke="transparent" fill="#000000" transform="matrix(0.0666667 0 0 0.0666667 -30.8533 -223)" d="M 6310.51,6293.07 L 6310.51,6316.16 L 5888.51,6559.8 L 5878.51,6542.48 L 6310.51,6293.07 Z " />
<path stroke="transparent" fill="#000000" transform="matrix(0.0666667 0 0 0.0666667 -30.8533 -223)" d="M 8908.55,6593.06 L 8908.55,6616.15 L 8388.93,6316.16 L 8388.93,6293.07 L 8908.55,6593.06 Z " />
<path stroke="transparent" fill="#000000" transform="matrix(0.0666667 0 0 0.0666667 -30.8533 -223)" d="M 9428.1,6293.07 L 9428.1,6316.16 L 8908.55,6616.15 L 8908.55,6593.06 L 9428.1,6293.07 Z " />
<path stroke="transparent" fill="#000000" transform="matrix(0.0666667 0 0 0.0666667 -30.8533 -223)" d="M 9952.72,6595.95 L 9942.72,6613.27 L 9428.1,6316.16 L 9428.1,6293.07 L 9952.72,6595.95 Z " />
<path stroke="transparent" fill="#000000" transform="matrix(0.0666667 0 0 0.0666667 -30.8533 -223)" d="M 8388.93,6293.07 L 8388.93,6316.16 L 7978.15,6553.31 L 7968.16,6535.99 L 8388.93,6293.07 Z " />
<path stroke="transparent" fill="#000000" transform="matrix(0.0666667 0 0 0.0666667 -30.8533 -223)" d="M 8398.93,7498.81 L 8378.93,7510.36 L 7859.31,7210.37 L 7879.31,7198.82 L 8398.93,7498.81 Z " />
<path stroke="transparent" fill="#000000" transform="matrix(0.0666667 0 0 0.0666667 -30.8533 -223)" d="M 8398.93,8098.79 L 8378.93,8110.34 L 8378.93,7510.36 L 8398.93,7498.81 L 8398.93,8098.79 Z " />
<path stroke="transparent" fill="#000000" transform="matrix(0.0666667 0 0 0.0666667 -30.8533 -223)" d="M 8913.55,8395.9 L 8903.55,8413.22 L 8378.93,8110.34 L 8398.93,8098.79 L 8913.55,8395.9 Z " />
<path stroke="transparent" fill="#000000" transform="matrix(0.0666667 0 0 0.0666667 -30.8533 -223)" d="M 7879.31,7198.82 L 7859.31,7210.37 L 7859.31,6721.77 L 7879.31,6721.77 L 7879.31,7198.82 Z " />
<path stroke="transparent" fill="#000000" transform="matrix(0.0666667 0 0 0.0666667 -30.8533 -223)" d="M 7770.46,6535.99 L 7760.46,6553.31 L 7349.68,6316.16 L 7349.68,6293.07 L 7770.46,6535.99 Z " />
<path stroke="transparent" fill="#000000" transform="matrix(0.0666667 0 0 0.0666667 -30.8533 -223)" d="M 5703.27,6542.47 L 5693.27,6559.79 L 5271.34,6316.16 L 5271.34,6304.62 L 5281.34,6298.84 L 5703.27,6542.47 Z " />
<path stroke="transparent" fill="#000000" transform="matrix(0.0666667 0 0 0.0666667 -30.8533 -223)" d="M 3712.47,5393.09 L 3712.47,5416.19 L 3202.33,5710.74 L 3192.92,5704.63 L 3192.33,5693.42 L 3712.47,5393.09 Z " />
<path stroke="transparent" fill="#000000" transform="matrix(0.0666667 0 0 0.0666667 -30.8533 -223)" d="M 3462.22,7286.38 L 3440.4,7292.84 L 3565.06,6706.36 L 3587.02,6699.22 L 3462.22,7286.38 Z " />
<path stroke="transparent" fill="#000000" transform="matrix(0.0666667 0 0 0.0666667 -30.8533 -223)" d="M 3886.75,7710.9 L 3864.44,7716.88 L 3440.4,7292.84 L 3462.22,7286.38 L 3886.75,7710.9 Z " />
<path stroke="transparent" fill="#000000" transform="matrix(0.0666667 0 0 0.0666667 -30.8533 -223)" d="M 3729.91,8296.02 L 3710.59,8290.85 L 3864.44,7716.88 L 3886.75,7710.9 L 3729.91,8296.02 Z " />
<path stroke="transparent" fill="#000000" transform="matrix(0.0666667 0 0 0.0666667 -30.8533 -223)" d="M 3587.02,6699.22 L 3565.06,6706.36 L 3127.25,6312.11 L 3130.16,6301.27 L 3140.64,6297.25 L 3587.02,6699.22 Z " />
<path stroke="transparent" fill="#000000" transform="matrix(0.0666667 0 0 0.0666667 -30.8533 -223)" d="M 1880.25,4756.66 L 1872.52,4765.24 L 1861.22,4762.84 L 1717.95,4321.95 L 1736.97,4315.77 L 1880.25,4756.66 Z " />
</svg>
