<?xml version="1.0" standalone="no" ?>
<!DOCTYPE svg PUBLIC "-//W3C//DTD SVG 1.1//EN" "http://www.w3.org/Graphics/SVG/1.1/DTD/svg11.dtd">
<svg width="210px" height="137px" viewBox="0 0 210 137" style="background-color: #ffffff00" xmlns="http://www.w3.org/2000/svg" xmlns:xlink="http://www.w3.org/1999/xlink" version="1.1" >
<text x="0" y="0" stroke="transparent" fill="#000000" transform="matrix(0.0666667 0 0 0.0666667 151.706 14.074)" style="font:normal normal normal 200px 'Arial'" >
O</text>
<text x="0" y="0" stroke="transparent" fill="#000000" transform="matrix(0.0666667 0 0 0.0666667 186.348 74.0722)" style="font:normal normal normal 200px 'Arial'" >
OH</text>
<text x="0" y="0" stroke="transparent" fill="#000000" transform="matrix(0.0666667 0 0 0.0666667 3.51674 134.07)" style="font:normal normal normal 200px 'Arial'" >
HO</text>
<path stroke="transparent" fill="#000000" transform="matrix(0.0666667 0 0 0.0666667 -243.853 -325)" d="M 4972.23,5619.64 L 4972.23,5596.54 L 5491.77,5896.54 L 5491.77,5908.08 L 5481.77,5913.86 L 4972.23,5619.64 Z " />
<path stroke="transparent" fill="#000000" transform="matrix(0.0666667 0 0 0.0666667 -243.853 -325)" d="M 4462.61,5913.86 L 4442.61,5902.31 L 4972.23,5596.54 L 4972.23,5619.64 L 4462.61,5913.86 Z " />
<path stroke="transparent" fill="#000000" transform="matrix(0.0666667 0 0 0.0666667 -243.853 -325)" d="M 4462.61,6502.29 L 4452.61,6508.07 L 4442.61,6502.29 L 4442.61,5902.31 L 4462.61,5913.86 L 4462.61,6502.29 Z " />
<path stroke="transparent" fill="#000000" transform="matrix(0.0666667 0 0 0.0666667 -243.853 -325)" d="M 4972.23,6796.51 L 4972.23,6819.6 L 4452.61,6519.61 L 4452.61,6508.07 L 4462.61,6502.29 L 4972.23,6796.51 Z " />
<path stroke="transparent" fill="#000000" transform="matrix(0.0666667 0 0 0.0666667 -243.853 -325)" d="M 5481.77,6502.29 L 5501.77,6513.84 L 4972.23,6819.6 L 4972.23,6796.51 L 5481.77,6502.29 Z " />
<path stroke="transparent" fill="#000000" transform="matrix(0.0666667 0 0 0.0666667 -243.853 -325)" d="M 5501.77,6513.84 L 5481.77,6502.29 L 5481.77,5913.86 L 5491.77,5908.08 L 5501.77,5913.86 L 5501.77,6513.84 Z " />
<path stroke="transparent" fill="#000000" transform="matrix(0.0666667 0 0 0.0666667 -243.853 -325)" d="M 5965.4,5127.94 L 5985.4,5127.94 L 5985.4,5628.88 L 5965.4,5628.88 L 5965.4,5127.94 Z " />
<path stroke="transparent" fill="#000000" transform="matrix(0.0666667 0 0 0.0666667 -243.853 -325)" d="M 6037.39,5127.94 L 6057.39,5127.94 L 6057.39,5628.88 L 6037.39,5628.88 L 6037.39,5127.94 Z " />
<path stroke="transparent" fill="#000000" transform="matrix(0.0666667 0 0 0.0666667 -243.853 -325)" d="M 6443.4,5845.95 L 6433.4,5863.27 L 6011.39,5619.64 L 6011.39,5596.55 L 6443.4,5845.95 Z " />
<path stroke="transparent" fill="#000000" transform="matrix(0.0666667 0 0 0.0666667 -243.853 -325)" d="M 6011.39,5596.55 L 6011.39,5619.64 L 5501.77,5913.86 L 5491.77,5908.08 L 5491.77,5896.54 L 6011.39,5596.55 Z " />
<path stroke="transparent" fill="#000000" transform="matrix(0.0666667 0 0 0.0666667 -243.853 -325)" d="M 4030.6,6763.25 L 4020.6,6745.93 L 4442.61,6502.29 L 4452.61,6508.07 L 4452.61,6519.61 L 4030.6,6763.25 Z " />
</svg>
