<?xml version="1.0" standalone="no" ?>
<!DOCTYPE svg PUBLIC "-//W3C//DTD SVG 1.1//EN" "http://www.w3.org/Graphics/SVG/1.1/DTD/svg11.dtd">
<svg width="534px" height="371px" viewBox="0 0 534 371" style="background-color: #ffffff00" xmlns="http://www.w3.org/2000/svg" xmlns:xlink="http://www.w3.org/1999/xlink" version="1.1" >
<path stroke="transparent" fill="#000000" transform="matrix(0.0833333 0 0 0.0833333 -169.25 -193)" d="M 7762.02,3996.4 L 7772.02,4013.72 L 7357,4253.38 L 7347,4247.61 L 7347,4236.06 L 7762.02,3996.4 Z " />
<path stroke="transparent" fill="#000000" transform="matrix(0.0833333 0 0 0.0833333 -169.25 -193)" d="M 7337,4253.38 L 7347,4247.61 L 7357,4253.38 L 7357,4841.79 L 7347,4847.56 L 7337,4841.79 L 7337,4253.38 Z " />
<path stroke="transparent" fill="#000000" transform="matrix(0.0833333 0 0 0.0833333 -169.25 -193)" d="M 7347,4236.06 L 7347,4247.61 L 7337,4253.38 L 6827.39,3959.15 L 6827.39,3936.05 L 7347,4236.06 Z " />
<path stroke="transparent" fill="#000000" transform="matrix(0.0833333 0 0 0.0833333 -169.25 -193)" d="M 7280.01,4280.52 L 7270,4297.84 L 6822.39,4039.4 L 6832.39,4022.08 L 7280.01,4280.52 Z " />
<path stroke="transparent" fill="#000000" transform="matrix(0.0833333 0 0 0.0833333 -169.25 -193)" d="M 6827.39,3936.05 L 6827.39,3959.15 L 6317.78,4253.38 L 6297.78,4241.83 L 6827.39,3936.05 Z " />
<path stroke="transparent" fill="#000000" transform="matrix(0.0833333 0 0 0.0833333 -169.25 -193)" d="M 6297.78,4241.83 L 6317.78,4253.38 L 6317.78,4841.85 L 6307.78,4847.62 L 6297.78,4841.85 L 6297.78,4241.83 Z " />
<path stroke="transparent" fill="#000000" transform="matrix(0.0833333 0 0 0.0833333 -169.25 -193)" d="M 6369.78,4289.18 L 6389.78,4289.18 L 6389.78,4806.05 L 6369.78,4806.05 L 6369.78,4289.18 Z " />
<path stroke="transparent" fill="#000000" transform="matrix(0.0833333 0 0 0.0833333 -169.25 -193)" d="M 5363.54,4914.02 L 5373.54,4896.7 L 5788.17,5136.02 L 5788.17,5147.57 L 5778.17,5153.34 L 5363.54,4914.02 Z " />
<path stroke="transparent" fill="#000000" transform="matrix(0.0833333 0 0 0.0833333 -169.25 -193)" d="M 5163.89,4896.46 L 5173.89,4913.78 L 4758.89,5153.34 L 4748.89,5147.57 L 4748.89,5136.02 L 5163.89,4896.46 Z " />
<path stroke="transparent" fill="#000000" transform="matrix(0.0833333 0 0 0.0833333 -169.25 -193)" d="M 4738.89,5153.34 L 4748.89,5147.57 L 4758.89,5153.34 L 4758.89,5741.81 L 4748.89,5747.58 L 4738.89,5741.81 L 4738.89,5153.34 Z " />
<path stroke="transparent" fill="#000000" transform="matrix(0.0833333 0 0 0.0833333 -169.25 -193)" d="M 4748.89,5136.02 L 4748.89,5147.57 L 4738.89,5153.34 L 4229.28,4859.17 L 4229.28,4836.07 L 4748.89,5136.02 Z " />
<path stroke="transparent" fill="#000000" transform="matrix(0.0833333 0 0 0.0833333 -169.25 -193)" d="M 4681.89,5180.48 L 4671.89,5197.8 L 4224.28,4939.41 L 4234.28,4922.09 L 4681.89,5180.48 Z " />
<path stroke="transparent" fill="#000000" transform="matrix(0.0833333 0 0 0.0833333 -169.25 -193)" d="M 4229.28,4836.07 L 4229.28,4859.17 L 3719.67,5153.34 L 3709.67,5147.57 L 3709.67,5136.02 L 4229.28,4836.07 Z " />
<path stroke="transparent" fill="#000000" transform="matrix(0.0833333 0 0 0.0833333 -169.25 -193)" d="M 4166.66,4142.17 L 4106.66,4246.09 L 3709.11,3959.47 L 3709.67,3947.6 L 3719.67,3941.19 L 4166.66,4142.17 Z " />
<path stroke="transparent" fill="#000000" transform="matrix(0.0833333 0 0 0.0833333 -169.25 -193)" d="M 3699.67,3941.83 L 3709.67,3947.6 L 3709.11,3959.47 L 3189.99,4259.15 L 3189.99,4236.06 L 3699.67,3941.83 Z " />
<path stroke="transparent" fill="#000000" transform="matrix(0.0833333 0 0 0.0833333 -169.25 -193)" d="M 3699.67,3353.36 L 3719.67,3341.81 L 3719.67,3941.19 L 3709.67,3947.6 L 3699.67,3941.83 L 3699.67,3353.36 Z " />
<path stroke="transparent" fill="#000000" transform="matrix(0.0833333 0 0 0.0833333 -169.25 -193)" d="M 4099.67,3053.13 L 4159.68,3157.05 L 4141.19,3165.04 L 4083.51,3065.14 L 4099.67,3053.13 Z " />
<path stroke="transparent" fill="#000000" transform="matrix(0.0833333 0 0 0.0833333 -169.25 -193)" d="M 4052.25,3088.37 L 4105.44,3180.5 L 4086.96,3188.49 L 4036.09,3100.39 L 4052.25,3088.37 Z " />
<path stroke="transparent" fill="#000000" transform="matrix(0.0833333 0 0 0.0833333 -169.25 -193)" d="M 4004.82,3123.62 L 4051.2,3203.95 L 4032.72,3211.94 L 3988.66,3135.63 L 4004.82,3123.62 Z " />
<path stroke="transparent" fill="#000000" transform="matrix(0.0833333 0 0 0.0833333 -169.25 -193)" d="M 3957.39,3158.87 L 3996.96,3227.4 L 3978.48,3235.39 L 3941.23,3170.88 L 3957.39,3158.87 Z " />
<path stroke="transparent" fill="#000000" transform="matrix(0.0833333 0 0 0.0833333 -169.25 -193)" d="M 3909.97,3194.12 L 3942.72,3250.85 L 3924.24,3258.84 L 3893.81,3206.13 L 3909.97,3194.12 Z " />
<path stroke="transparent" fill="#000000" transform="matrix(0.0833333 0 0 0.0833333 -169.25 -193)" d="M 3862.54,3229.37 L 3888.48,3274.3 L 3870,3282.29 L 3846.38,3241.38 L 3862.54,3229.37 Z " />
<path stroke="transparent" fill="#000000" transform="matrix(0.0833333 0 0 0.0833333 -169.25 -193)" d="M 3815.11,3264.61 L 3834.25,3297.75 L 3815.76,3305.74 L 3798.95,3276.62 L 3815.11,3264.61 Z " />
<path stroke="transparent" fill="#000000" transform="matrix(0.0833333 0 0 0.0833333 -169.25 -193)" d="M 3767.69,3299.86 L 3780.01,3321.2 L 3761.53,3329.19 L 3751.53,3311.87 L 3767.69,3299.86 Z " />
<path stroke="transparent" fill="#000000" transform="matrix(0.0833333 0 0 0.0833333 -169.25 -193)" d="M 3189.99,3059.13 L 3189.99,3047.58 L 3200.56,3042.13 L 3719.67,3341.81 L 3699.67,3353.36 L 3189.99,3059.13 Z " />
<path stroke="transparent" fill="#000000" transform="matrix(0.0833333 0 0 0.0833333 -169.25 -193)" d="M 3129.99,2567.4 L 3249.99,2567.4 L 3200.56,3042.13 L 3189.99,3047.58 L 3179.43,3042.13 L 3129.99,2567.4 Z " />
<path stroke="transparent" fill="#000000" transform="matrix(0.0833333 0 0 0.0833333 -169.25 -193)" d="M 2680.38,3353.36 L 2660.38,3341.81 L 3179.43,3042.13 L 3189.99,3047.58 L 3189.99,3059.13 L 2680.38,3353.36 Z " />
<path stroke="transparent" fill="#000000" transform="matrix(0.0833333 0 0 0.0833333 -169.25 -193)" d="M 2140.77,2567.4 L 2160.77,2567.4 L 2160.77,3047.58 L 2140.77,3047.58 L 2140.77,2567.4 Z " />
<path stroke="transparent" fill="#000000" transform="matrix(0.0833333 0 0 0.0833333 -169.25 -193)" d="M 2167.61,3126.59 L 2227.62,3022.67 L 2243.92,3034.43 L 2185.95,3134.83 L 2167.61,3126.59 Z " />
<path stroke="transparent" fill="#000000" transform="matrix(0.0833333 0 0 0.0833333 -169.25 -193)" d="M 2221.69,3150.88 L 2275.69,3057.35 L 2292,3069.11 L 2240.02,3159.12 L 2221.69,3150.88 Z " />
<path stroke="transparent" fill="#000000" transform="matrix(0.0833333 0 0 0.0833333 -169.25 -193)" d="M 2275.76,3175.18 L 2323.77,3092.03 L 2340.07,3103.79 L 2294.1,3183.42 L 2275.76,3175.18 Z " />
<path stroke="transparent" fill="#000000" transform="matrix(0.0833333 0 0 0.0833333 -169.25 -193)" d="M 2329.84,3199.48 L 2371.85,3126.71 L 2388.15,3138.47 L 2348.17,3207.72 L 2329.84,3199.48 Z " />
<path stroke="transparent" fill="#000000" transform="matrix(0.0833333 0 0 0.0833333 -169.25 -193)" d="M 2383.91,3223.78 L 2419.93,3161.39 L 2436.23,3173.15 L 2402.25,3232.01 L 2383.91,3223.78 Z " />
<path stroke="transparent" fill="#000000" transform="matrix(0.0833333 0 0 0.0833333 -169.25 -193)" d="M 2437.98,3248.07 L 2468,3196.07 L 2484.31,3207.84 L 2456.32,3256.31 L 2437.98,3248.07 Z " />
<path stroke="transparent" fill="#000000" transform="matrix(0.0833333 0 0 0.0833333 -169.25 -193)" d="M 2492.06,3272.37 L 2516.08,3230.76 L 2532.38,3242.52 L 2510.39,3280.61 L 2492.06,3272.37 Z " />
<path stroke="transparent" fill="#000000" transform="matrix(0.0833333 0 0 0.0833333 -169.25 -193)" d="M 2546.13,3296.67 L 2564.16,3265.44 L 2580.46,3277.2 L 2564.47,3304.91 L 2546.13,3296.67 Z " />
<path stroke="transparent" fill="#000000" transform="matrix(0.0833333 0 0 0.0833333 -169.25 -193)" d="M 2600.2,3320.96 L 2612.24,3300.12 L 2628.54,3311.88 L 2618.54,3329.2 L 2600.2,3320.96 Z " />
<path stroke="transparent" fill="#000000" transform="matrix(0.0833333 0 0 0.0833333 -169.25 -193)" d="M 2680.38,3842.43 L 2660.38,3842.43 L 2660.38,3341.81 L 2680.38,3353.36 L 2680.38,3842.43 Z " />
<path stroke="transparent" fill="#000000" transform="matrix(0.0833333 0 0 0.0833333 -169.25 -193)" d="M 2765.42,4014.02 L 2775.42,3996.7 L 3189.99,4236.06 L 3189.99,4259.15 L 2765.42,4014.02 Z " />
<path stroke="transparent" fill="#000000" transform="matrix(0.0833333 0 0 0.0833333 -169.25 -193)" d="M 3249.99,4742.45 L 3129.99,4742.45 L 3132.26,4722.45 L 3247.73,4722.45 L 3249.99,4742.45 Z " />
<path stroke="transparent" fill="#000000" transform="matrix(0.0833333 0 0 0.0833333 -169.25 -193)" d="M 3243.18,4682.35 L 3136.81,4682.35 L 3139.08,4662.35 L 3240.91,4662.35 L 3243.18,4682.35 Z " />
<path stroke="transparent" fill="#000000" transform="matrix(0.0833333 0 0 0.0833333 -169.25 -193)" d="M 3236.36,4622.24 L 3143.63,4622.24 L 3145.9,4602.24 L 3234.09,4602.24 L 3236.36,4622.24 Z " />
<path stroke="transparent" fill="#000000" transform="matrix(0.0833333 0 0 0.0833333 -169.25 -193)" d="M 3229.54,4562.13 L 3150.45,4562.13 L 3152.72,4542.13 L 3227.27,4542.13 L 3229.54,4562.13 Z " />
<path stroke="transparent" fill="#000000" transform="matrix(0.0833333 0 0 0.0833333 -169.25 -193)" d="M 3222.72,4502.02 L 3157.27,4502.02 L 3159.54,4482.02 L 3220.45,4482.02 L 3222.72,4502.02 Z " />
<path stroke="transparent" fill="#000000" transform="matrix(0.0833333 0 0 0.0833333 -169.25 -193)" d="M 3215.9,4441.91 L 3164.09,4441.91 L 3166.36,4421.91 L 3213.63,4421.91 L 3215.9,4441.91 Z " />
<path stroke="transparent" fill="#000000" transform="matrix(0.0833333 0 0 0.0833333 -169.25 -193)" d="M 3209.08,4381.81 L 3170.91,4381.81 L 3173.18,4361.81 L 3206.81,4361.81 L 3209.08,4381.81 Z " />
<path stroke="transparent" fill="#000000" transform="matrix(0.0833333 0 0 0.0833333 -169.25 -193)" d="M 3202.26,4321.7 L 3177.73,4321.7 L 3179.99,4301.7 L 3199.99,4301.7 L 3202.26,4321.7 Z " />
<path stroke="transparent" fill="#000000" transform="matrix(0.0833333 0 0 0.0833333 -169.25 -193)" d="M 3285.04,4914.02 L 3295.04,4896.7 L 3709.67,5136.02 L 3709.67,5147.57 L 3699.67,5153.34 L 3285.04,4914.02 Z " />
<path stroke="transparent" fill="#000000" transform="matrix(0.0833333 0 0 0.0833333 -169.25 -193)" d="M 3699.67,5153.34 L 3709.67,5147.57 L 3719.67,5153.34 L 3719.67,5741.81 L 3699.67,5753.35 L 3699.67,5153.34 Z " />
<path stroke="transparent" fill="#000000" transform="matrix(0.0833333 0 0 0.0833333 -169.25 -193)" d="M 3771.67,5189.14 L 3791.67,5189.14 L 3791.67,5706.01 L 3771.67,5706.01 L 3771.67,5189.14 Z " />
<path stroke="transparent" fill="#000000" transform="matrix(0.0833333 0 0 0.0833333 -169.25 -193)" d="M 3699.67,5753.35 L 3719.67,5741.81 L 4229.28,6036.04 L 4229.28,6047.59 L 4219.28,6053.36 L 3699.67,5753.35 Z " />
<path stroke="transparent" fill="#000000" transform="matrix(0.0833333 0 0 0.0833333 -169.25 -193)" d="M 4239.28,6542.43 L 4219.28,6542.43 L 4219.28,6053.36 L 4229.28,6047.59 L 4239.28,6053.36 L 4239.28,6542.43 Z " />
<path stroke="transparent" fill="#000000" transform="matrix(0.0833333 0 0 0.0833333 -169.25 -193)" d="M 4239.28,6053.36 L 4229.28,6047.59 L 4229.28,6036.04 L 4738.89,5741.81 L 4748.89,5747.58 L 4748.89,5759.13 L 4239.28,6053.36 Z " />
<path stroke="transparent" fill="#000000" transform="matrix(0.0833333 0 0 0.0833333 -169.25 -193)" d="M 4234.28,5973.11 L 4224.28,5955.79 L 4671.89,5697.35 L 4681.89,5714.67 L 4234.28,5973.11 Z " />
<path stroke="transparent" fill="#000000" transform="matrix(0.0833333 0 0 0.0833333 -169.25 -193)" d="M 4748.89,5759.13 L 4748.89,5747.58 L 4758.89,5741.81 L 5268.5,6036.04 L 5268.5,6059.13 L 4748.89,5759.13 Z " />
<path stroke="transparent" fill="#000000" transform="matrix(0.0833333 0 0 0.0833333 -169.25 -193)" d="M 5314.5,6542.43 L 5294.5,6542.43 L 5294.5,6026.8 L 5314.5,6026.8 L 5314.5,6542.43 Z " />
<path stroke="transparent" fill="#000000" transform="matrix(0.0833333 0 0 0.0833333 -169.25 -193)" d="M 5242.5,6542.43 L 5222.5,6542.43 L 5222.5,6026.8 L 5242.5,6026.8 L 5242.5,6542.43 Z " />
<path stroke="transparent" fill="#000000" transform="matrix(0.0833333 0 0 0.0833333 -169.25 -193)" d="M 5268.5,6059.13 L 5268.5,6036.04 L 5778.17,5741.81 L 5798.17,5753.35 L 5268.5,6059.13 Z " />
<path stroke="transparent" fill="#000000" transform="matrix(0.0833333 0 0 0.0833333 -169.25 -193)" d="M 5798.17,5753.35 L 5778.17,5741.81 L 5778.17,5153.34 L 5788.17,5147.57 L 5798.17,5153.34 L 5798.17,5753.35 Z " />
<path stroke="transparent" fill="#000000" transform="matrix(0.0833333 0 0 0.0833333 -169.25 -193)" d="M 5726.17,5706.01 L 5706.17,5706.01 L 5706.17,5189.14 L 5726.17,5189.14 L 5726.17,5706.01 Z " />
<path stroke="transparent" fill="#000000" transform="matrix(0.0833333 0 0 0.0833333 -169.25 -193)" d="M 5798.17,5153.34 L 5788.17,5147.57 L 5788.17,5136.02 L 6297.78,4841.85 L 6307.78,4847.62 L 6307.78,4859.17 L 5798.17,5153.34 Z " />
<path stroke="transparent" fill="#000000" transform="matrix(0.0833333 0 0 0.0833333 -169.25 -193)" d="M 6307.78,4859.17 L 6307.78,4847.62 L 6317.78,4841.85 L 6827.39,5136.02 L 6827.39,5159.11 L 6307.78,4859.17 Z " />
<path stroke="transparent" fill="#000000" transform="matrix(0.0833333 0 0 0.0833333 -169.25 -193)" d="M 6827.39,5159.11 L 6827.39,5136.02 L 7337,4841.79 L 7347,4847.56 L 7347,4859.11 L 6827.39,5159.11 Z " />
<path stroke="transparent" fill="#000000" transform="matrix(0.0833333 0 0 0.0833333 -169.25 -193)" d="M 6832.39,5073.09 L 6822.39,5055.77 L 7270,4797.33 L 7280.01,4814.65 L 6832.39,5073.09 Z " />
<path stroke="transparent" fill="#000000" transform="matrix(0.0833333 0 0 0.0833333 -169.25 -193)" d="M 7347,4859.11 L 7347,4847.56 L 7357,4841.79 L 7779,5085.43 L 7769,5102.75 L 7347,4859.11 Z " />
<path stroke="transparent" fill="#000000" transform="matrix(0.0833333 0 0 0.0833333 -169.25 -193)" d="M 7964.23,5102.75 L 7954.23,5085.43 L 8381.23,4838.9 L 8391.23,4856.22 L 7964.23,5102.75 Z " />
<text x="0" y="0" stroke="transparent" fill="#000000" transform="matrix(0.0833333 0 0 0.0833333 479.801 142.462)" style="font:normal normal normal 200px 'Arial'" >
OH</text>
<text x="0" y="0" stroke="transparent" fill="#000000" transform="matrix(0.0833333 0 0 0.0833333 263.292 217.468)" style="font:normal normal normal 200px 'Arial'" >
O</text>
<text x="0" y="0" stroke="transparent" fill="#000000" transform="matrix(0.0833333 0 0 0.0833333 176.69 167.467)" style="font:normal normal normal 200px 'Arial'" >
OH</text>
<text x="0" y="0" stroke="transparent" fill="#000000" transform="matrix(0.0833333 0 0 0.0833333 176.69 67.4651)" style="font:normal normal normal 200px 'Arial'" >
OH</text>
<text x="0" y="0" stroke="transparent" fill="#000000" transform="matrix(0.0833333 0 0 0.0833333 90.0829 17.464)" style="font:normal normal normal 200px 'Arial'" >
OH</text>
<text x="0" y="0" stroke="transparent" fill="#000000" transform="matrix(0.0833333 0 0 0.0833333 3.481 17.464)" style="font:normal normal normal 200px 'Arial'" >
OH</text>
<text x="0" y="0" stroke="transparent" fill="#000000" transform="matrix(0.0833333 0 0 0.0833333 46.7819 142.467)" style="font:normal normal normal 200px 'Arial'" >
O</text>
<text x="0" y="0" stroke="transparent" fill="#000000" transform="matrix(0.0833333 0 0 0.0833333 90.0829 217.468)" style="font:normal normal normal 200px 'Arial'" >
O</text>
<text x="0" y="0" stroke="transparent" fill="#000000" transform="matrix(0.0833333 0 0 0.0833333 176.69 367.467)" style="font:normal normal normal 200px 'Arial'" >
OH</text>
<text x="0" y="0" stroke="transparent" fill="#000000" transform="matrix(0.0833333 0 0 0.0833333 263.292 367.467)" style="font:normal normal normal 200px 'Arial'" >
O</text>
<text x="0" y="0" stroke="transparent" fill="#000000" transform="matrix(0.0833333 0 0 0.0833333 479.801 242.464)" style="font:normal normal normal 200px 'Arial'" >
O</text>
</svg>
