<?xml version="1.0" standalone="no" ?>
<!DOCTYPE svg PUBLIC "-//W3C//DTD SVG 1.1//EN" "http://www.w3.org/Graphics/SVG/1.1/DTD/svg11.dtd">
<svg width="318px" height="233px" viewBox="0 0 318 233" style="background-color: #ffffff00" xmlns="http://www.w3.org/2000/svg" xmlns:xlink="http://www.w3.org/1999/xlink" version="1.1" >
<text x="0" y="0" stroke="transparent" fill="#000000" transform="matrix(0.0833333 0 0 0.0833333 3.77755 60.02)" style="font:normal normal normal 200px 'Arial'" >
O</text>
<text x="0" y="0" stroke="transparent" fill="#000000" transform="matrix(0.0833333 0 0 0.0833333 176.981 160.017)" style="font:normal normal normal 200px 'Arial'" >
O</text>
<path stroke="transparent" fill="#000000" transform="matrix(0.0833333 0 0 0.0833333 -277.208 -243)" d="M 6567.5,3569.79 L 6567.5,3558.24 L 6577.5,3552.47 L 7092.17,3849.59 L 7082.17,3866.91 L 6567.5,3569.79 Z " />
<path stroke="transparent" fill="#000000" transform="matrix(0.0833333 0 0 0.0833333 -277.208 -243)" d="M 6557.5,2958.23 L 6577.5,2958.23 L 6577.5,3552.47 L 6567.5,3558.24 L 6557.5,3552.47 L 6557.5,2958.23 Z " />
<path stroke="transparent" fill="#000000" transform="matrix(0.0833333 0 0 0.0833333 -277.208 -243)" d="M 6047.89,3869.79 L 6047.89,3846.7 L 6557.5,3552.47 L 6567.5,3558.24 L 6567.5,3569.79 L 6047.89,3869.79 Z " />
<path stroke="transparent" fill="#000000" transform="matrix(0.0833333 0 0 0.0833333 -277.208 -243)" d="M 6052.89,3783.77 L 6042.89,3766.45 L 6490.5,3508.01 L 6500.5,3525.33 L 6052.89,3783.77 Z " />
<path stroke="transparent" fill="#000000" transform="matrix(0.0833333 0 0 0.0833333 -277.208 -243)" d="M 5528.28,3569.79 L 5528.28,3546.69 L 6047.89,3846.7 L 6047.89,3869.79 L 5528.28,3569.79 Z " />
<path stroke="transparent" fill="#000000" transform="matrix(0.0833333 0 0 0.0833333 -277.208 -243)" d="M 5018.66,3864.02 L 5008.66,3858.25 L 5008.66,3846.7 L 5528.28,3546.69 L 5528.28,3569.79 L 5018.66,3864.02 Z " />
<path stroke="transparent" fill="#000000" transform="matrix(0.0833333 0 0 0.0833333 -277.208 -243)" d="M 4489.05,3569.79 L 4489.05,3546.69 L 5008.66,3846.7 L 5008.66,3858.25 L 4998.66,3864.02 L 4489.05,3569.79 Z " />
<path stroke="transparent" fill="#000000" transform="matrix(0.0833333 0 0 0.0833333 -277.208 -243)" d="M 4484.05,3650.04 L 4494.05,3632.72 L 4941.66,3891.15 L 4931.66,3908.48 L 4484.05,3650.04 Z " />
<path stroke="transparent" fill="#000000" transform="matrix(0.0833333 0 0 0.0833333 -277.208 -243)" d="M 3979.44,3863.96 L 3959.44,3852.41 L 4489.05,3546.69 L 4489.05,3569.79 L 3979.44,3863.96 Z " />
<path stroke="transparent" fill="#000000" transform="matrix(0.0833333 0 0 0.0833333 -277.208 -243)" d="M 3526.87,3655.83 L 3536.87,3638.5 L 3974.44,3891.09 L 3964.44,3908.41 L 3526.87,3655.83 Z " />
<path stroke="transparent" fill="#000000" transform="matrix(0.0833333 0 0 0.0833333 -277.208 -243)" d="M 3562.87,3593.47 L 3572.87,3576.15 L 4010.44,3828.74 L 4000.44,3846.06 L 3562.87,3593.47 Z " />
<path stroke="transparent" fill="#000000" transform="matrix(0.0833333 0 0 0.0833333 -277.208 -243)" d="M 3979.44,4452.43 L 3969.44,4458.2 L 3959.44,4452.43 L 3959.44,3852.41 L 3979.44,3863.96 L 3979.44,4452.43 Z " />
<path stroke="transparent" fill="#000000" transform="matrix(0.0833333 0 0 0.0833333 -277.208 -243)" d="M 3459.83,4763.98 L 3439.83,4752.43 L 3959.44,4452.43 L 3969.44,4458.2 L 3969.44,4469.75 L 3459.83,4763.98 Z " />
<path stroke="transparent" fill="#000000" transform="matrix(0.0833333 0 0 0.0833333 -277.208 -243)" d="M 3526.83,4808.44 L 3516.83,4791.11 L 3964.44,4532.68 L 3974.44,4550 L 3526.83,4808.44 Z " />
<path stroke="transparent" fill="#000000" transform="matrix(0.0833333 0 0 0.0833333 -277.208 -243)" d="M 3459.83,5352.45 L 3439.83,5363.99 L 3439.83,4752.43 L 3459.83,4763.98 L 3459.83,5352.45 Z " />
<path stroke="transparent" fill="#000000" transform="matrix(0.0833333 0 0 0.0833333 -277.208 -243)" d="M 3969.44,5646.68 L 3969.44,5669.77 L 3439.83,5363.99 L 3459.83,5352.45 L 3969.44,5646.68 Z " />
<path stroke="transparent" fill="#000000" transform="matrix(0.0833333 0 0 0.0833333 -277.208 -243)" d="M 3974.45,5566.43 L 3964.45,5583.75 L 3516.83,5325.31 L 3526.83,5307.99 L 3974.45,5566.43 Z " />
<path stroke="transparent" fill="#000000" transform="matrix(0.0833333 0 0 0.0833333 -277.208 -243)" d="M 4479.05,5352.51 L 4499.05,5364.05 L 3969.44,5669.77 L 3969.44,5646.68 L 4479.05,5352.51 Z " />
<path stroke="transparent" fill="#000000" transform="matrix(0.0833333 0 0 0.0833333 -277.208 -243)" d="M 4479.05,4763.98 L 4489.05,4758.21 L 4499.05,4763.98 L 4499.05,5364.05 L 4479.05,5352.51 L 4479.05,4763.98 Z " />
<path stroke="transparent" fill="#000000" transform="matrix(0.0833333 0 0 0.0833333 -277.208 -243)" d="M 4407.04,4799.78 L 4427.04,4799.78 L 4427.04,5316.7 L 4407.04,5316.7 L 4407.04,4799.78 Z " />
<path stroke="transparent" fill="#000000" transform="matrix(0.0833333 0 0 0.0833333 -277.208 -243)" d="M 4489.05,4746.66 L 4489.05,4758.21 L 4479.05,4763.98 L 3969.44,4469.75 L 3969.44,4458.2 L 3979.44,4452.43 L 4489.05,4746.66 Z " />
<path stroke="transparent" fill="#000000" transform="matrix(0.0833333 0 0 0.0833333 -277.208 -243)" d="M 4998.66,4452.43 L 5018.66,4463.97 L 4499.05,4763.98 L 4489.05,4758.21 L 4489.05,4746.66 L 4998.66,4452.43 Z " />
<path stroke="transparent" fill="#000000" transform="matrix(0.0833333 0 0 0.0833333 -277.208 -243)" d="M 5018.66,4463.97 L 4998.66,4452.43 L 4998.66,3864.02 L 5008.66,3858.25 L 5018.66,3864.02 L 5018.66,4463.97 Z " />
<path stroke="transparent" fill="#000000" transform="matrix(0.0833333 0 0 0.0833333 -277.208 -243)" d="M 5458.66,4664.89 L 5448.66,4682.22 L 5003.66,4425.29 L 5013.66,4407.97 L 5458.66,4664.89 Z " />
<path stroke="transparent" fill="#000000" transform="matrix(0.0833333 0 0 0.0833333 -277.208 -243)" d="M 5422.66,4727.25 L 5412.66,4744.57 L 4967.67,4487.64 L 4977.67,4470.32 L 5422.66,4727.25 Z " />
</svg>
