<?xml version="1.0" standalone="no" ?>
<!DOCTYPE svg PUBLIC "-//W3C//DTD SVG 1.1//EN" "http://www.w3.org/Graphics/SVG/1.1/DTD/svg11.dtd">
<svg width="383px" height="422px" viewBox="0 0 383 422" style="background-color: #ffffff00" xmlns="http://www.w3.org/2000/svg" xmlns:xlink="http://www.w3.org/1999/xlink" version="1.1" >
<text x="0" y="0" stroke="transparent" fill="#000000" transform="matrix(0.0833333 0 0 0.0833333 180.843 243.37)" style="font:normal normal normal 200px 'Arial'" >
O</text>
<text x="0" y="0" stroke="transparent" fill="#000000" transform="matrix(0.0833333 0 0 0.0833333 224.298 168.37)" style="font:normal normal normal 200px 'Arial'" >
O</text>
<text x="0" y="0" stroke="transparent" fill="#000000" transform="matrix(0.0833333 0 0 0.0833333 224.17 318.37)" style="font:normal normal normal 200px 'Arial'" >
O</text>
<text x="0" y="0" stroke="transparent" fill="#000000" transform="matrix(0.0833333 0 0 0.0833333 267.473 193.431)" style="font:normal normal normal 200px 'Arial'" >
OH</text>
<text x="0" y="0" stroke="transparent" fill="#000000" transform="matrix(0.0833333 0 0 0.0833333 50.0616 231.619)" style="font:normal normal normal 200px 'Arial'" >
HO</text>
<text x="0" y="0" stroke="transparent" fill="#000000" transform="matrix(0.0833333 0 0 0.0833333 354.195 243.37)" style="font:normal normal normal 200px 'Arial'" >
OH</text>
<text x="0" y="0" stroke="transparent" fill="#000000" transform="matrix(0.0833333 0 0 0.0833333 3.68588 83.1341)" style="font:normal normal normal 200px 'Arial'" >
HO</text>
<text x="0" y="0" stroke="transparent" fill="#000000" transform="matrix(0.0833333 0 0 0.0833333 310.783 418.37)" style="font:normal normal normal 200px 'Arial'" >
OH</text>
<text x="0" y="0" stroke="transparent" fill="#000000" transform="matrix(0.0833333 0 0 0.0833333 354.195 343.37)" style="font:normal normal normal 200px 'Arial'" >
OH</text>
<text x="0" y="0" stroke="transparent" fill="#000000" transform="matrix(0.0833333 0 0 0.0833333 224.17 18.3704)" style="font:normal normal normal 200px 'Arial'" >
O</text>
<text x="0" y="0" stroke="transparent" fill="#000000" transform="matrix(0.0833333 0 0 0.0833333 137.595 18.3704)" style="font:normal normal normal 200px 'Arial'" >
O</text>
<text x="0" y="0" stroke="transparent" fill="#000000" transform="matrix(0.0833333 0 0 0.0833333 138.222 68.3704)" style="font:normal normal normal 200px 'Arial'" >
H</text>
<text x="0" y="0" stroke="transparent" fill="#000000" transform="matrix(0.0833333 0 0 0.0833333 138.222 229.37)" style="font:normal normal normal 200px 'Arial'" >
H</text>
<text x="0" y="0" stroke="transparent" fill="#000000" transform="matrix(0.0833333 0 0 0.0833333 224.67 218.37)" style="font:normal normal normal 200px 'Arial'" >
H</text>
<path stroke="transparent" fill="#000000" transform="matrix(0.0833333 0 0 0.0833333 -244.542 -157)" d="M 5242.62,4621.28 L 5122.62,4621.28 L 5172.07,4132.61 L 5182.62,4127.17 L 5193.17,4132.63 L 5242.62,4621.28 Z " />
<path stroke="transparent" fill="#000000" transform="matrix(0.0833333 0 0 0.0833333 -244.542 -157)" d="M 5702.54,5014.9 L 5702.55,5026.44 L 5692.55,5032.22 L 5277.67,4792.83 L 5287.66,4775.51 L 5702.54,5014.9 Z " />
<path stroke="transparent" fill="#000000" transform="matrix(0.0833333 0 0 0.0833333 -244.542 -157)" d="M 4676.61,3844.66 L 4665.16,3826.45 L 4675.16,3820.69 L 5182.64,4115.62 L 5182.62,4127.17 L 5172.07,4132.61 L 4676.61,3844.66 Z " />
<path stroke="transparent" fill="#000000" transform="matrix(0.0833333 0 0 0.0833333 -244.542 -157)" d="M 5599.45,3875.24 L 5609.44,3892.56 L 5193.17,4132.63 L 5182.62,4127.17 L 5182.64,4115.62 L 5599.45,3875.24 Z " />
<path stroke="transparent" fill="#000000" transform="matrix(0.0833333 0 0 0.0833333 -244.542 -157)" d="M 5712.55,5521.28 L 5692.55,5521.28 L 5692.55,5032.22 L 5702.55,5026.44 L 5712.55,5032.22 L 5712.55,5521.28 Z " />
<path stroke="transparent" fill="#000000" transform="matrix(0.0833333 0 0 0.0833333 -244.542 -157)" d="M 6222.17,4714.9 L 6222.19,4737.99 L 5712.55,5032.22 L 5702.55,5026.44 L 5702.54,5014.9 L 6222.17,4714.9 Z " />
<path stroke="transparent" fill="#000000" transform="matrix(0.0833333 0 0 0.0833333 -244.542 -157)" d="M 5642.55,4543.78 L 5762.55,4543.78 L 5760.21,4563.78 L 5644.88,4563.78 L 5642.55,4543.78 Z " />
<path stroke="transparent" fill="#000000" transform="matrix(0.0833333 0 0 0.0833333 -244.542 -157)" d="M 5649.35,4602.15 L 5755.74,4602.15 L 5753.4,4622.15 L 5651.69,4622.15 L 5649.35,4602.15 Z " />
<path stroke="transparent" fill="#000000" transform="matrix(0.0833333 0 0 0.0833333 -244.542 -157)" d="M 5656.16,4660.52 L 5748.93,4660.52 L 5746.59,4680.52 L 5658.5,4680.52 L 5656.16,4660.52 Z " />
<path stroke="transparent" fill="#000000" transform="matrix(0.0833333 0 0 0.0833333 -244.542 -157)" d="M 5662.97,4718.89 L 5742.12,4718.89 L 5739.78,4738.89 L 5665.31,4738.89 L 5662.97,4718.89 Z " />
<path stroke="transparent" fill="#000000" transform="matrix(0.0833333 0 0 0.0833333 -244.542 -157)" d="M 5669.78,4777.26 L 5735.31,4777.26 L 5732.97,4797.26 L 5672.12,4797.26 L 5669.78,4777.26 Z " />
<path stroke="transparent" fill="#000000" transform="matrix(0.0833333 0 0 0.0833333 -244.542 -157)" d="M 5676.59,4835.63 L 5728.5,4835.63 L 5726.16,4855.63 L 5678.93,4855.63 L 5676.59,4835.63 Z " />
<path stroke="transparent" fill="#000000" transform="matrix(0.0833333 0 0 0.0833333 -244.542 -157)" d="M 5683.4,4894 L 5721.69,4894 L 5719.35,4914 L 5685.74,4914 L 5683.4,4894 Z " />
<path stroke="transparent" fill="#000000" transform="matrix(0.0833333 0 0 0.0833333 -244.542 -157)" d="M 5690.21,4952.37 L 5714.88,4952.37 L 5712.55,4972.37 L 5692.55,4972.37 L 5690.21,4952.37 Z " />
<path stroke="transparent" fill="#000000" transform="matrix(0.0833333 0 0 0.0833333 -244.542 -157)" d="M 4655.16,3236.45 L 4665.16,3226.45 L 4675.16,3232.21 L 4675.16,3820.69 L 4665.16,3826.45 L 4655.16,3820.67 L 4655.16,3236.45 Z " />
<path stroke="transparent" fill="#000000" transform="matrix(0.0833333 0 0 0.0833333 -244.542 -157)" d="M 4150,4134.75 L 4143.13,4127.17 L 4143.14,4115.62 L 4655.16,3820.67 L 4665.16,3826.45 L 4653.72,3844.58 L 4150,4134.75 Z " />
<path stroke="transparent" fill="#000000" transform="matrix(0.0833333 0 0 0.0833333 -244.542 -157)" d="M 4725.16,4455.78 L 4605.16,4455.78 L 4653.72,3844.58 L 4665.16,3826.45 L 4676.61,3844.66 L 4725.16,4455.78 L 4725.16,4455.78 Z " />
<path stroke="transparent" fill="#000000" transform="matrix(0.0833333 0 0 0.0833333 -244.542 -157)" d="M 5694.07,3232.24 L 5714.07,3220.65 L 5714.07,3721.28 L 5694.07,3721.28 L 5694.07,3232.24 Z " />
<path stroke="transparent" fill="#000000" transform="matrix(0.0833333 0 0 0.0833333 -244.542 -157)" d="M 6222.19,5914.9 L 6222.18,5926.44 L 6211.72,5931.95 L 5797.58,5692.86 L 5807.58,5675.54 L 6222.19,5914.9 Z " />
<path stroke="transparent" fill="#000000" transform="matrix(0.0833333 0 0 0.0833333 -244.542 -157)" d="M 6162.18,4247.01 L 6282.18,4247.01 L 6279.83,4267.01 L 6164.53,4267.01 L 6162.18,4247.01 Z " />
<path stroke="transparent" fill="#000000" transform="matrix(0.0833333 0 0 0.0833333 -244.542 -157)" d="M 6168.99,4304.92 L 6275.37,4304.92 L 6273.02,4324.92 L 6171.34,4324.92 L 6168.99,4304.92 Z " />
<path stroke="transparent" fill="#000000" transform="matrix(0.0833333 0 0 0.0833333 -244.542 -157)" d="M 6175.8,4362.83 L 6268.57,4362.83 L 6266.22,4382.83 L 6178.15,4382.83 L 6175.8,4362.83 Z " />
<path stroke="transparent" fill="#000000" transform="matrix(0.0833333 0 0 0.0833333 -244.542 -157)" d="M 6182.6,4420.74 L 6261.76,4420.74 L 6259.41,4440.74 L 6184.95,4440.74 L 6182.6,4420.74 Z " />
<path stroke="transparent" fill="#000000" transform="matrix(0.0833333 0 0 0.0833333 -244.542 -157)" d="M 6189.41,4478.66 L 6254.95,4478.66 L 6252.6,4498.66 L 6191.76,4498.66 L 6189.41,4478.66 Z " />
<path stroke="transparent" fill="#000000" transform="matrix(0.0833333 0 0 0.0833333 -244.542 -157)" d="M 6196.22,4536.57 L 6248.15,4536.57 L 6245.8,4556.57 L 6198.57,4556.57 L 6196.22,4536.57 Z " />
<path stroke="transparent" fill="#000000" transform="matrix(0.0833333 0 0 0.0833333 -244.542 -157)" d="M 6203.02,4594.48 L 6241.34,4594.48 L 6238.99,4614.48 L 6205.37,4614.48 L 6203.02,4594.48 Z " />
<path stroke="transparent" fill="#000000" transform="matrix(0.0833333 0 0 0.0833333 -244.542 -157)" d="M 6209.83,4652.39 L 6234.53,4652.39 L 6232.18,4672.39 L 6212.18,4672.39 L 6209.83,4652.39 Z " />
<path stroke="transparent" fill="#000000" transform="matrix(0.0833333 0 0 0.0833333 -244.542 -157)" d="M 6742.7,5014.58 L 6743.27,5026.44 L 6733.27,5032.23 L 6222.19,4737.99 L 6222.17,4714.9 L 6742.7,5014.58 Z " />
<path stroke="transparent" fill="#000000" transform="matrix(0.0833333 0 0 0.0833333 -244.542 -157)" d="M 5172.62,2921.4 L 5182.62,2927.17 L 5182.64,2938.71 L 4675.16,3232.21 L 4665.16,3226.45 L 4677.07,3208 L 5172.62,2921.4 Z " />
<path stroke="transparent" fill="#000000" transform="matrix(0.0833333 0 0 0.0833333 -244.542 -157)" d="M 3634.15,3236.45 L 3624.15,3226.45 L 3628.84,3216.45 L 4654.13,3216.45 L 4665.16,3226.45 L 4655.16,3236.45 L 3634.15,3236.45 Z " />
<path stroke="transparent" fill="#000000" transform="matrix(0.0833333 0 0 0.0833333 -244.542 -157)" d="M 4605.16,2743.78 L 4725.16,2743.78 L 4677.07,3208 L 4665.16,3226.45 L 4654.13,3216.45 L 4605.16,2743.78 Z " />
<path stroke="transparent" fill="#000000" transform="matrix(0.0833333 0 0 0.0833333 -244.542 -157)" d="M 4537.25,4583.96 L 4439.04,4652.93 L 4429.05,4635.51 L 4524.25,4568.65 L 4537.25,4583.96 Z " />
<path stroke="transparent" fill="#000000" transform="matrix(0.0833333 0 0 0.0833333 -244.542 -157)" d="M 4499.26,4539.18 L 4409.82,4602 L 4399.82,4584.58 L 4486.27,4523.87 L 4499.26,4539.18 Z " />
<path stroke="transparent" fill="#000000" transform="matrix(0.0833333 0 0 0.0833333 -244.542 -157)" d="M 4461.27,4494.4 L 4380.59,4551.07 L 4370.59,4533.65 L 4448.28,4479.09 L 4461.27,4494.4 Z " />
<path stroke="transparent" fill="#000000" transform="matrix(0.0833333 0 0 0.0833333 -244.542 -157)" d="M 4423.28,4449.63 L 4351.36,4500.14 L 4341.36,4482.72 L 4410.29,4434.31 L 4423.28,4449.63 Z " />
<path stroke="transparent" fill="#000000" transform="matrix(0.0833333 0 0 0.0833333 -244.542 -157)" d="M 4385.29,4404.85 L 4322.13,4449.21 L 4312.14,4431.79 L 4372.3,4389.53 L 4385.29,4404.85 Z " />
<path stroke="transparent" fill="#000000" transform="matrix(0.0833333 0 0 0.0833333 -244.542 -157)" d="M 4347.31,4360.07 L 4292.9,4398.27 L 4282.91,4380.86 L 4334.31,4344.75 L 4347.31,4360.07 Z " />
<path stroke="transparent" fill="#000000" transform="matrix(0.0833333 0 0 0.0833333 -244.542 -157)" d="M 4309.32,4315.29 L 4263.68,4347.34 L 4253.68,4329.93 L 4296.33,4299.97 L 4309.32,4315.29 Z " />
<path stroke="transparent" fill="#000000" transform="matrix(0.0833333 0 0 0.0833333 -244.542 -157)" d="M 4271.33,4270.51 L 4234.45,4296.41 L 4224.45,4278.99 L 4258.34,4255.2 L 4271.33,4270.51 Z " />
<path stroke="transparent" fill="#000000" transform="matrix(0.0833333 0 0 0.0833333 -244.542 -157)" d="M 4233.34,4225.73 L 4205.22,4245.48 L 4195.22,4228.06 L 4220.35,4210.42 L 4233.34,4225.73 Z " />
<path stroke="transparent" fill="#000000" transform="matrix(0.0833333 0 0 0.0833333 -244.542 -157)" d="M 4195.36,4180.95 L 4175.99,4194.55 L 4166,4177.13 L 4182.36,4165.64 L 4195.36,4180.95 Z " />
<path stroke="transparent" fill="#000000" transform="matrix(0.0833333 0 0 0.0833333 -244.542 -157)" d="M 3872.26,4542.41 L 3780.43,4465.17 L 4126.72,4129.22 L 4143.13,4127.17 L 4150,4134.75 L 3872.26,4542.41 Z " />
<path stroke="transparent" fill="#000000" transform="matrix(0.0833333 0 0 0.0833333 -244.542 -157)" d="M 3614.15,3832.21 L 3634.15,3820.68 L 4143.14,4115.62 L 4143.13,4127.17 L 4126.72,4129.22 L 3614.15,3832.21 Z " />
<path stroke="transparent" fill="#000000" transform="matrix(0.0833333 0 0 0.0833333 -244.542 -157)" d="M 5182.64,2938.71 L 5182.62,2927.17 L 5192.62,2921.38 L 5714.07,3220.65 L 5694.07,3232.24 L 5182.64,2938.71 Z " />
<path stroke="transparent" fill="#000000" transform="matrix(0.0833333 0 0 0.0833333 -244.542 -157)" d="M 5177.78,3019.11 L 5187.73,3001.76 L 5636.9,3259.55 L 5626.95,3276.9 L 5177.78,3019.11 Z " />
<path stroke="transparent" fill="#000000" transform="matrix(0.0833333 0 0 0.0833333 -244.542 -157)" d="M 6284.2,6550.7 L 6164.02,6504.42 L 6211.72,5931.95 L 6222.18,5926.44 L 6232.64,5931.96 L 6284.2,6550.7 Z " />
<path stroke="transparent" fill="#000000" transform="matrix(0.0833333 0 0 0.0833333 -244.542 -157)" d="M 6733.27,5620.66 L 6753.27,5632.23 L 6232.64,5931.96 L 6222.18,5926.44 L 6222.19,5914.9 L 6733.27,5620.66 Z " />
<path stroke="transparent" fill="#000000" transform="matrix(0.0833333 0 0 0.0833333 -244.542 -157)" d="M 6753.27,5632.23 L 6733.27,5620.66 L 6733.27,5032.23 L 6743.27,5026.44 L 6753.27,5032.87 L 6753.27,5632.23 Z " />
<path stroke="transparent" fill="#000000" transform="matrix(0.0833333 0 0 0.0833333 -244.542 -157)" d="M 7133.23,4731.99 L 7193.24,4835.92 L 6753.27,5032.87 L 6743.27,5026.44 L 6742.7,5014.58 L 7133.23,4731.99 Z " />
<path stroke="transparent" fill="#000000" transform="matrix(0.0833333 0 0 0.0833333 -244.542 -157)" d="M 5172.62,2321.4 L 5192.62,2332.94 L 5192.62,2921.38 L 5182.62,2927.17 L 5172.62,2921.4 L 5172.62,2321.4 Z " />
<path stroke="transparent" fill="#000000" transform="matrix(0.0833333 0 0 0.0833333 -244.542 -157)" d="M 3634.15,3820.68 L 3614.15,3832.21 L 3614.15,3231.14 L 3624.15,3226.45 L 3634.15,3236.45 L 3634.15,3820.68 Z " />
<path stroke="transparent" fill="#000000" transform="matrix(0.0833333 0 0 0.0833333 -244.542 -157)" d="M 3242.74,2930.01 L 3327.58,2845.14 L 3628.84,3216.45 L 3624.15,3226.45 L 3614.15,3231.14 L 3242.74,2930.01 Z " />
<path stroke="transparent" fill="#000000" transform="matrix(0.0833333 0 0 0.0833333 -244.542 -157)" d="M 6654.27,6764.32 L 6644.27,6781.64 L 6164.02,6504.42 L 6284.2,6550.7 L 6654.27,6764.32 Z " />
<path stroke="transparent" fill="#000000" transform="matrix(0.0833333 0 0 0.0833333 -244.542 -157)" d="M 7200.22,5821.01 L 7140.22,5924.93 L 7124.04,5912.95 L 7181.76,5812.98 L 7200.22,5821.01 Z " />
<path stroke="transparent" fill="#000000" transform="matrix(0.0833333 0 0 0.0833333 -244.542 -157)" d="M 7144.98,5796.98 L 7091.79,5889.09 L 7075.61,5877.12 L 7126.52,5788.95 L 7144.98,5796.98 Z " />
<path stroke="transparent" fill="#000000" transform="matrix(0.0833333 0 0 0.0833333 -244.542 -157)" d="M 7089.73,5772.95 L 7043.36,5853.26 L 7027.18,5841.28 L 7071.27,5764.92 L 7089.73,5772.95 Z " />
<path stroke="transparent" fill="#000000" transform="matrix(0.0833333 0 0 0.0833333 -244.542 -157)" d="M 7034.48,5748.92 L 6994.93,5817.42 L 6978.75,5805.45 L 7016.02,5740.9 L 7034.48,5748.92 Z " />
<path stroke="transparent" fill="#000000" transform="matrix(0.0833333 0 0 0.0833333 -244.542 -157)" d="M 6979.24,5724.9 L 6946.5,5781.59 L 6930.32,5769.61 L 6960.78,5716.87 L 6979.24,5724.9 Z " />
<path stroke="transparent" fill="#000000" transform="matrix(0.0833333 0 0 0.0833333 -244.542 -157)" d="M 6923.99,5700.87 L 6898.08,5745.75 L 6881.89,5733.78 L 6905.53,5692.84 L 6923.99,5700.87 Z " />
<path stroke="transparent" fill="#000000" transform="matrix(0.0833333 0 0 0.0833333 -244.542 -157)" d="M 6868.74,5676.84 L 6849.65,5709.92 L 6833.47,5697.94 L 6850.28,5668.81 L 6868.74,5676.84 Z " />
<path stroke="transparent" fill="#000000" transform="matrix(0.0833333 0 0 0.0833333 -244.542 -157)" d="M 6813.5,5652.81 L 6801.22,5674.08 L 6785.04,5662.11 L 6795.04,5644.79 L 6813.5,5652.81 Z " />
<path stroke="transparent" fill="#000000" transform="matrix(0.0833333 0 0 0.0833333 -244.542 -157)" d="M 5597.97,2075.38 L 5607.99,2092.69 L 5192.62,2332.94 L 5172.62,2321.4 L 5597.97,2075.38 Z " />
<path stroke="transparent" fill="#000000" transform="matrix(0.0833333 0 0 0.0833333 -244.542 -157)" d="M 4740.54,2124.16 L 4750.57,2106.86 L 5187.63,2360.11 L 5177.6,2377.42 L 4740.54,2124.16 Z " />
<path stroke="transparent" fill="#000000" transform="matrix(0.0833333 0 0 0.0833333 -244.542 -157)" d="M 4776.63,2061.88 L 4786.66,2044.58 L 5223.56,2297.74 L 5213.53,2315.05 L 4776.63,2061.88 Z " />
<path stroke="transparent" fill="#000000" transform="matrix(0.0833333 0 0 0.0833333 -244.542 -157)" d="M 6328.42,2376.62 L 6318.41,2393.94 L 5797.56,2092.91 L 5807.56,2075.59 L 6328.42,2376.62 Z " />
</svg>
