<?xml version="1.0" standalone="no" ?>
<!DOCTYPE svg PUBLIC "-//W3C//DTD SVG 1.1//EN" "http://www.w3.org/Graphics/SVG/1.1/DTD/svg11.dtd">
<svg width="488px" height="389px" viewBox="0 0 488 389" style="background-color: #ffffff00" xmlns="http://www.w3.org/2000/svg" xmlns:xlink="http://www.w3.org/1999/xlink" version="1.1" >
<path stroke="transparent" fill="#000000" transform="matrix(0.0833333 0 0 0.0833333 -142.25 -176)" d="M 4272.08,6589.72 L 4262.05,6607.02 L 3830.49,6356.84 L 3850.51,6345.33 L 4272.08,6589.72 Z " />
<path stroke="transparent" fill="#000000" transform="matrix(0.0833333 0 0 0.0833333 -142.25 -176)" d="M 3435.99,6636.74 L 3426.02,6619.4 L 3871.48,6363.27 L 3881.45,6380.61 L 3435.99,6636.74 Z " />
<path stroke="transparent" fill="#000000" transform="matrix(0.0833333 0 0 0.0833333 -142.25 -176)" d="M 3400.1,6574.32 L 3390.13,6556.98 L 3835.58,6300.85 L 3845.55,6318.19 L 3400.1,6574.32 Z " />
<path stroke="transparent" fill="#000000" transform="matrix(0.0833333 0 0 0.0833333 -142.25 -176)" d="M 3850.51,6345.33 L 3830.49,6356.84 L 3831.47,5768.36 L 3841.5,5751.06 L 3851.49,5756.85 L 3850.51,6345.33 Z " />
<path stroke="transparent" fill="#000000" transform="matrix(0.0833333 0 0 0.0833333 -142.25 -176)" d="M 3326.39,6058.84 L 3316.42,6041.5 L 3821.5,5751.02 L 3841.5,5751.06 L 3831.47,5768.36 L 3326.39,6058.84 Z " />
<path stroke="transparent" fill="#000000" transform="matrix(0.0833333 0 0 0.0833333 -142.25 -176)" d="M 3841.52,5739.51 L 3841.5,5751.06 L 3821.5,5751.02 L 3322.98,5462.04 L 3322.45,5450.17 L 3332.46,5444.41 L 3841.52,5739.51 Z " />
<path stroke="transparent" fill="#000000" transform="matrix(0.0833333 0 0 0.0833333 -142.25 -176)" d="M 4351.65,5446.19 L 4361.64,5451.98 L 4361.62,5463.53 L 3851.49,5756.85 L 3841.5,5751.06 L 3841.52,5739.51 L 4351.65,5446.19 Z " />
<path stroke="transparent" fill="#000000" transform="matrix(0.0833333 0 0 0.0833333 -142.25 -176)" d="M 5982.11,5154.69 L 5862.11,5154.69 L 5863.94,5134.69 L 5980.28,5134.69 L 5982.11,5154.69 Z " />
<path stroke="transparent" fill="#000000" transform="matrix(0.0833333 0 0 0.0833333 -142.25 -176)" d="M 5976.76,5096.25 L 5867.46,5096.25 L 5869.29,5076.25 L 5974.93,5076.25 L 5976.76,5096.25 Z " />
<path stroke="transparent" fill="#000000" transform="matrix(0.0833333 0 0 0.0833333 -142.25 -176)" d="M 5971.41,5037.81 L 5872.81,5037.81 L 5874.65,5017.81 L 5969.57,5017.81 L 5971.41,5037.81 Z " />
<path stroke="transparent" fill="#000000" transform="matrix(0.0833333 0 0 0.0833333 -142.25 -176)" d="M 5966.05,4979.36 L 5878.17,4979.36 L 5880,4959.36 L 5964.22,4959.36 L 5966.05,4979.36 Z " />
<path stroke="transparent" fill="#000000" transform="matrix(0.0833333 0 0 0.0833333 -142.25 -176)" d="M 5960.7,4920.92 L 5883.52,4920.92 L 5885.35,4900.92 L 5958.87,4900.92 L 5960.7,4920.92 Z " />
<path stroke="transparent" fill="#000000" transform="matrix(0.0833333 0 0 0.0833333 -142.25 -176)" d="M 5955.35,4862.47 L 5888.87,4862.47 L 5890.7,4842.47 L 5953.52,4842.47 L 5955.35,4862.47 Z " />
<path stroke="transparent" fill="#000000" transform="matrix(0.0833333 0 0 0.0833333 -142.25 -176)" d="M 5950,4804.03 L 5894.22,4804.03 L 5896.05,4784.03 L 5948.17,4784.03 L 5950,4804.03 Z " />
<path stroke="transparent" fill="#000000" transform="matrix(0.0833333 0 0 0.0833333 -142.25 -176)" d="M 5944.65,4745.58 L 5899.57,4745.58 L 5901.41,4725.58 L 5942.81,4725.58 L 5944.65,4745.58 Z " />
<path stroke="transparent" fill="#000000" transform="matrix(0.0833333 0 0 0.0833333 -142.25 -176)" d="M 5939.29,4687.14 L 5904.93,4687.14 L 5906.76,4667.14 L 5937.46,4667.14 L 5939.29,4687.14 Z " />
<path stroke="transparent" fill="#000000" transform="matrix(0.0833333 0 0 0.0833333 -142.25 -176)" d="M 5933.94,4628.69 L 5910.28,4628.69 L 5912.11,4608.69 L 5932.11,4608.69 L 5933.94,4628.69 Z " />
<path stroke="transparent" fill="#000000" transform="matrix(0.0833333 0 0 0.0833333 -142.25 -176)" d="M 5912.12,4548.9 L 5922.11,4554.69 L 5922.09,4566.24 L 5411.92,4859.62 L 5401.93,4853.82 L 5413.45,4835.67 L 5912.12,4548.9 Z " />
<path stroke="transparent" fill="#000000" transform="matrix(0.0833333 0 0 0.0833333 -142.25 -176)" d="M 5932.12,4548.94 L 5922.11,4554.69 L 5912.12,4548.9 L 5913.15,3960.45 L 5923.16,3954.7 L 5933.15,3960.49 L 5932.12,4548.94 Z " />
<path stroke="transparent" fill="#000000" transform="matrix(0.0833333 0 0 0.0833333 -142.25 -176)" d="M 6441.23,4844.07 L 6441.19,4867.16 L 5922.09,4566.24 L 5922.11,4554.69 L 5932.12,4548.94 L 6441.23,4844.07 Z " />
<path stroke="transparent" fill="#000000" transform="matrix(0.0833333 0 0 0.0833333 -142.25 -176)" d="M 6441.19,4867.16 L 6441.23,4844.07 L 6951.36,4550.75 L 6971.34,4562.33 L 6441.19,4867.16 Z " />
<path stroke="transparent" fill="#000000" transform="matrix(0.0833333 0 0 0.0833333 -142.25 -176)" d="M 6971.34,4562.33 L 6951.36,4550.75 L 6952.39,3962.29 L 6962.4,3956.54 L 6972.37,3975.63 L 6971.34,4562.33 Z " />
<path stroke="transparent" fill="#000000" transform="matrix(0.0833333 0 0 0.0833333 -142.25 -176)" d="M 7511.59,4205.55 L 7451.41,4309.37 L 6972.37,3975.63 L 6962.4,3956.54 L 6983.92,3955.7 L 7511.59,4205.55 Z " />
<path stroke="transparent" fill="#000000" transform="matrix(0.0833333 0 0 0.0833333 -142.25 -176)" d="M 6962.42,3944.99 L 6962.4,3956.54 L 6952.39,3962.29 L 6443.28,3667.16 L 6443.31,3655.62 L 6453.32,3649.86 L 6962.42,3944.99 Z " />
<path stroke="transparent" fill="#000000" transform="matrix(0.0833333 0 0 0.0833333 -142.25 -176)" d="M 7472.56,3651.67 L 7492.54,3663.25 L 6983.92,3955.7 L 6962.4,3956.54 L 6962.42,3944.99 L 7472.56,3651.67 Z " />
<path stroke="transparent" fill="#000000" transform="matrix(0.0833333 0 0 0.0833333 -142.25 -176)" d="M 7492.54,3663.25 L 7472.56,3651.67 L 7473.62,3063.17 L 7493.64,3051.65 L 7492.54,3663.25 Z " />
<path stroke="transparent" fill="#000000" transform="matrix(0.0833333 0 0 0.0833333 -142.25 -176)" d="M 7493.64,3051.65 L 7473.62,3063.17 L 6964.51,2768.04 L 6964.55,2744.94 L 7493.64,3051.65 Z " />
<path stroke="transparent" fill="#000000" transform="matrix(0.0833333 0 0 0.0833333 -142.25 -176)" d="M 6905.58,2156.39 L 7025.58,2156.6 L 7023.71,2176.59 L 6907.38,2176.39 L 6905.58,2156.39 Z " />
<path stroke="transparent" fill="#000000" transform="matrix(0.0833333 0 0 0.0833333 -142.25 -176)" d="M 6910.83,2214.83 L 7020.12,2215.02 L 7018.26,2235.02 L 6912.63,2234.83 L 6910.83,2214.83 Z " />
<path stroke="transparent" fill="#000000" transform="matrix(0.0833333 0 0 0.0833333 -142.25 -176)" d="M 6916.08,2273.27 L 7014.67,2273.44 L 7012.8,2293.44 L 6917.88,2293.28 L 6916.08,2273.27 Z " />
<path stroke="transparent" fill="#000000" transform="matrix(0.0833333 0 0 0.0833333 -142.25 -176)" d="M 6921.33,2331.72 L 7009.22,2331.87 L 7007.35,2351.87 L 6923.13,2351.72 L 6921.33,2331.72 Z " />
<path stroke="transparent" fill="#000000" transform="matrix(0.0833333 0 0 0.0833333 -142.25 -176)" d="M 6926.58,2390.16 L 7003.76,2390.29 L 7001.9,2410.29 L 6928.38,2410.16 L 6926.58,2390.16 Z " />
<path stroke="transparent" fill="#000000" transform="matrix(0.0833333 0 0 0.0833333 -142.25 -176)" d="M 6931.83,2448.6 L 6998.31,2448.72 L 6996.44,2468.72 L 6933.63,2468.61 L 6931.83,2448.6 Z " />
<path stroke="transparent" fill="#000000" transform="matrix(0.0833333 0 0 0.0833333 -142.25 -176)" d="M 6937.08,2507.05 L 6992.85,2507.14 L 6990.99,2527.14 L 6938.88,2527.05 L 6937.08,2507.05 Z " />
<path stroke="transparent" fill="#000000" transform="matrix(0.0833333 0 0 0.0833333 -142.25 -176)" d="M 6942.33,2565.49 L 6987.4,2565.57 L 6985.53,2585.57 L 6944.13,2585.49 L 6942.33,2565.49 Z " />
<path stroke="transparent" fill="#000000" transform="matrix(0.0833333 0 0 0.0833333 -142.25 -176)" d="M 6947.58,2623.93 L 6981.95,2623.99 L 6980.08,2643.99 L 6949.37,2643.94 L 6947.58,2623.93 Z " />
<path stroke="transparent" fill="#000000" transform="matrix(0.0833333 0 0 0.0833333 -142.25 -176)" d="M 6952.83,2682.38 L 6976.49,2682.42 L 6974.62,2702.42 L 6954.62,2702.38 L 6952.83,2682.38 Z " />
<path stroke="transparent" fill="#000000" transform="matrix(0.0833333 0 0 0.0833333 -142.25 -176)" d="M 6454.34,3061.41 L 6444.35,3055.62 L 6444.83,3043.81 L 6964.55,2744.94 L 6964.51,2768.04 L 6454.34,3061.41 Z " />
<path stroke="transparent" fill="#000000" transform="matrix(0.0833333 0 0 0.0833333 -142.25 -176)" d="M 5895.17,2806.61 L 5955.35,2702.79 L 6444.83,3043.81 L 6444.35,3055.62 L 6434.34,3061.9 L 5895.17,2806.61 Z " />
<path stroke="transparent" fill="#000000" transform="matrix(0.0833333 0 0 0.0833333 -142.25 -176)" d="M 6453.32,3649.86 L 6443.31,3655.62 L 6433.34,3636.07 L 6434.34,3061.9 L 6444.35,3055.62 L 6454.34,3061.41 L 6453.32,3649.86 Z " />
<path stroke="transparent" fill="#000000" transform="matrix(0.0833333 0 0 0.0833333 -142.25 -176)" d="M 5933.15,3960.49 L 5923.16,3954.7 L 5923.18,3943.15 L 6421.32,3656.73 L 6443.31,3655.62 L 6443.28,3667.16 L 5933.15,3960.49 Z " />
<path stroke="transparent" fill="#000000" transform="matrix(0.0833333 0 0 0.0833333 -142.25 -176)" d="M 5923.18,3943.15 L 5923.16,3954.7 L 5913.15,3960.45 L 5404.04,3665.32 L 5404.08,3642.23 L 5923.18,3943.15 Z " />
<path stroke="transparent" fill="#000000" transform="matrix(0.0833333 0 0 0.0833333 -142.25 -176)" d="M 5856.1,3987.49 L 5846.07,4004.79 L 5398.9,3745.57 L 5408.93,3728.26 L 5856.1,3987.49 Z " />
<path stroke="transparent" fill="#000000" transform="matrix(0.0833333 0 0 0.0833333 -142.25 -176)" d="M 5404.08,3642.23 L 5404.04,3665.32 L 4893.9,3958.64 L 4873.93,3947.06 L 5404.08,3642.23 Z " />
<path stroke="transparent" fill="#000000" transform="matrix(0.0833333 0 0 0.0833333 -142.25 -176)" d="M 4441.7,3749.67 L 4451.73,3732.37 L 4888.86,3985.77 L 4878.83,4003.07 L 4441.7,3749.67 Z " />
<path stroke="transparent" fill="#000000" transform="matrix(0.0833333 0 0 0.0833333 -142.25 -176)" d="M 4477.81,3687.38 L 4487.84,3670.08 L 4924.97,3923.48 L 4914.94,3940.78 L 4477.81,3687.38 Z " />
<path stroke="transparent" fill="#000000" transform="matrix(0.0833333 0 0 0.0833333 -142.25 -176)" d="M 4873.93,3947.06 L 4893.9,3958.64 L 4892.85,4547.15 L 4882.84,4552.9 L 4872.85,4547.11 L 4873.93,3947.06 Z " />
<path stroke="transparent" fill="#000000" transform="matrix(0.0833333 0 0 0.0833333 -142.25 -176)" d="M 4872.85,4547.11 L 4882.84,4552.9 L 4882.82,4564.45 L 4372.68,4857.77 L 4362.69,4851.98 L 4374.24,4833.81 L 4872.85,4547.11 Z " />
<path stroke="transparent" fill="#000000" transform="matrix(0.0833333 0 0 0.0833333 -142.25 -176)" d="M 5390.41,4835.59 L 5401.93,4853.82 L 5391.92,4859.58 L 4882.82,4564.45 L 4882.84,4552.9 L 4892.85,4547.15 L 5390.41,4835.59 Z " />
<path stroke="transparent" fill="#000000" transform="matrix(0.0833333 0 0 0.0833333 -142.25 -176)" d="M 5341.93,4253.82 L 5461.93,4253.82 L 5413.45,4835.67 L 5401.93,4853.82 L 5390.41,4835.59 L 5341.93,4253.82 Z " />
<path stroke="transparent" fill="#000000" transform="matrix(0.0833333 0 0 0.0833333 -142.25 -176)" d="M 5410.88,5459.61 L 5390.9,5448.03 L 5391.92,4859.58 L 5401.93,4853.82 L 5411.92,4859.62 L 5410.88,5459.61 Z " />
<path stroke="transparent" fill="#000000" transform="matrix(0.0833333 0 0 0.0833333 -142.25 -176)" d="M 5390.9,5448.03 L 5410.88,5459.61 L 4880.72,5764.45 L 4880.76,5741.36 L 5390.9,5448.03 Z " />
<path stroke="transparent" fill="#000000" transform="matrix(0.0833333 0 0 0.0833333 -142.25 -176)" d="M 4880.76,5741.36 L 4880.72,5764.45 L 4361.62,5463.53 L 4361.64,5451.98 L 4371.65,5446.23 L 4880.76,5741.36 Z " />
<path stroke="transparent" fill="#000000" transform="matrix(0.0833333 0 0 0.0833333 -142.25 -176)" d="M 4352.68,4857.74 L 4362.69,4851.98 L 4372.68,4857.77 L 4371.65,5446.23 L 4361.64,5451.98 L 4351.65,5446.19 L 4352.68,4857.74 Z " />
<path stroke="transparent" fill="#000000" transform="matrix(0.0833333 0 0 0.0833333 -142.25 -176)" d="M 4303.74,4251.88 L 4423.74,4252.09 L 4374.24,4833.81 L 4362.69,4851.98 L 4351.21,4833.77 L 4303.74,4251.88 Z " />
<path stroke="transparent" fill="#000000" transform="matrix(0.0833333 0 0 0.0833333 -142.25 -176)" d="M 3843.57,4562.61 L 3843.61,4539.51 L 4351.21,4833.77 L 4362.69,4851.98 L 4352.68,4857.74 L 3843.57,4562.61 Z " />
<path stroke="transparent" fill="#000000" transform="matrix(0.0833333 0 0 0.0833333 -142.25 -176)" d="M 3843.61,4539.51 L 3843.57,4562.61 L 3333.49,4855.96 L 3313.51,4844.38 L 3843.61,4539.51 Z " />
<path stroke="transparent" fill="#000000" transform="matrix(0.0833333 0 0 0.0833333 -142.25 -176)" d="M 3313.51,4844.38 L 3333.49,4855.96 L 3332.46,5444.41 L 3322.45,5450.17 L 3312.46,5443.74 L 3313.51,4844.38 Z " />
<path stroke="transparent" fill="#000000" transform="matrix(0.0833333 0 0 0.0833333 -142.25 -176)" d="M 2924.92,5747.95 L 2865.11,5643.92 L 3312.46,5443.74 L 3322.45,5450.17 L 3322.98,5462.04 L 2924.92,5747.95 Z " />
<path stroke="transparent" fill="#000000" transform="matrix(0.0833333 0 0 0.0833333 -142.25 -176)" d="M 2714.79,5686.96 L 2704.76,5704.26 L 2283.24,5459.9 L 2283.28,5436.81 L 2714.79,5686.96 Z " />
<path stroke="transparent" fill="#000000" transform="matrix(0.0833333 0 0 0.0833333 -142.25 -176)" d="M 2238.05,4968.08 L 2258.05,4968.12 L 2257.22,5469.09 L 2237.22,5469.06 L 2238.05,4968.08 Z " />
<path stroke="transparent" fill="#000000" transform="matrix(0.0833333 0 0 0.0833333 -142.25 -176)" d="M 2310.06,4968.2 L 2330.06,4968.24 L 2329.22,5469.22 L 2309.22,5469.19 L 2310.06,4968.2 Z " />
<path stroke="transparent" fill="#000000" transform="matrix(0.0833333 0 0 0.0833333 -142.25 -176)" d="M 2283.28,5436.81 L 2283.24,5459.9 L 1768.1,5756.1 L 1758.13,5738.76 L 2283.28,5436.81 Z " />
<text x="0" y="0" stroke="transparent" fill="#000000" transform="matrix(0.0833333 0 0 0.0833333 214.55 384.834)" style="font:normal normal normal 200px 'Arial'" >
OH</text>
<text x="0" y="0" stroke="transparent" fill="#000000" transform="matrix(0.0833333 0 0 0.0833333 127.946 384.681)" style="font:normal normal normal 200px 'Arial'" >
O</text>
<text x="0" y="0" stroke="transparent" fill="#000000" transform="matrix(0.0833333 0 0 0.0833333 214.985 134.828)" style="font:normal normal normal 200px 'Arial'" >
O</text>
<text x="0" y="0" stroke="transparent" fill="#000000" transform="matrix(0.0833333 0 0 0.0833333 84.7753 309.604)" style="font:normal normal normal 200px 'Arial'" >
O</text>
<text x="0" y="0" stroke="transparent" fill="#000000" transform="matrix(0.0833333 0 0 0.0833333 41.6045 234.527)" style="font:normal normal normal 200px 'Arial'" >
O</text>
<text x="0" y="0" stroke="transparent" fill="#000000" transform="matrix(0.0833333 0 0 0.0833333 215.22 334.832)" style="font:normal normal normal 200px 'Arial'" >
H</text>
<path stroke="transparent" fill="#000000" transform="matrix(0.0833333 0 0 0.0833333 -142.25 -176)" d="M 4421.64,5949.31 L 4301.64,5949.31 L 4303.9,5929.31 L 4419.39,5929.31 L 4421.64,5949.31 Z " />
<path stroke="transparent" fill="#000000" transform="matrix(0.0833333 0 0 0.0833333 -142.25 -176)" d="M 4414.82,5888.84 L 4308.46,5888.84 L 4310.72,5868.84 L 4412.57,5868.84 L 4414.82,5888.84 Z " />
<path stroke="transparent" fill="#000000" transform="matrix(0.0833333 0 0 0.0833333 -142.25 -176)" d="M 4408,5828.37 L 4315.28,5828.37 L 4317.54,5808.37 L 4405.74,5808.37 L 4408,5828.37 Z " />
<path stroke="transparent" fill="#000000" transform="matrix(0.0833333 0 0 0.0833333 -142.25 -176)" d="M 4401.18,5767.9 L 4322.1,5767.9 L 4324.36,5747.9 L 4398.92,5747.9 L 4401.18,5767.9 Z " />
<path stroke="transparent" fill="#000000" transform="matrix(0.0833333 0 0 0.0833333 -142.25 -176)" d="M 4394.36,5707.43 L 4328.92,5707.43 L 4331.18,5687.43 L 4392.1,5687.43 L 4394.36,5707.43 Z " />
<path stroke="transparent" fill="#000000" transform="matrix(0.0833333 0 0 0.0833333 -142.25 -176)" d="M 4387.54,5646.96 L 4335.74,5646.96 L 4338,5626.96 L 4385.28,5626.96 L 4387.54,5646.96 Z " />
<path stroke="transparent" fill="#000000" transform="matrix(0.0833333 0 0 0.0833333 -142.25 -176)" d="M 4380.72,5586.49 L 4342.57,5586.49 L 4344.82,5566.49 L 4378.46,5566.49 L 4380.72,5586.49 Z " />
<path stroke="transparent" fill="#000000" transform="matrix(0.0833333 0 0 0.0833333 -142.25 -176)" d="M 4373.9,5526.02 L 4349.39,5526.02 L 4351.64,5506.02 L 4371.64,5506.02 L 4373.9,5526.02 Z " />
<text x="0" y="0" stroke="transparent" fill="#000000" transform="matrix(0.0833333 0 0 0.0833333 258.653 259.909)" style="font:normal normal normal 200px 'Arial'" >
H</text>
<path stroke="transparent" fill="#000000" transform="matrix(0.0833333 0 0 0.0833333 -142.25 -176)" d="M 4942.84,5050.24 L 4822.84,5050.24 L 4825.09,5030.24 L 4940.58,5030.24 L 4942.84,5050.24 Z " />
<path stroke="transparent" fill="#000000" transform="matrix(0.0833333 0 0 0.0833333 -142.25 -176)" d="M 4936.02,4989.77 L 4829.66,4989.77 L 4831.91,4969.77 L 4933.76,4969.77 L 4936.02,4989.77 Z " />
<path stroke="transparent" fill="#000000" transform="matrix(0.0833333 0 0 0.0833333 -142.25 -176)" d="M 4929.2,4929.3 L 4836.48,4929.3 L 4838.73,4909.3 L 4926.94,4909.3 L 4929.2,4929.3 Z " />
<path stroke="transparent" fill="#000000" transform="matrix(0.0833333 0 0 0.0833333 -142.25 -176)" d="M 4922.37,4868.82 L 4843.3,4868.82 L 4845.55,4848.82 L 4920.12,4848.82 L 4922.37,4868.82 Z " />
<path stroke="transparent" fill="#000000" transform="matrix(0.0833333 0 0 0.0833333 -142.25 -176)" d="M 4915.55,4808.35 L 4850.12,4808.35 L 4852.37,4788.35 L 4913.3,4788.35 L 4915.55,4808.35 Z " />
<path stroke="transparent" fill="#000000" transform="matrix(0.0833333 0 0 0.0833333 -142.25 -176)" d="M 4908.73,4747.88 L 4856.94,4747.88 L 4859.2,4727.88 L 4906.48,4727.88 L 4908.73,4747.88 Z " />
<path stroke="transparent" fill="#000000" transform="matrix(0.0833333 0 0 0.0833333 -142.25 -176)" d="M 4901.91,4687.41 L 4863.76,4687.41 L 4866.02,4667.41 L 4899.66,4667.41 L 4901.91,4687.41 Z " />
<path stroke="transparent" fill="#000000" transform="matrix(0.0833333 0 0 0.0833333 -142.25 -176)" d="M 4895.09,4626.94 L 4870.58,4626.94 L 4872.84,4606.94 L 4892.84,4606.94 L 4895.09,4626.94 Z " />
<text x="0" y="0" stroke="transparent" fill="#000000" transform="matrix(0.0833333 0 0 0.0833333 345.391 110.135)" style="font:normal normal normal 200px 'Arial'" >
H</text>
<path stroke="transparent" fill="#000000" transform="matrix(0.0833333 0 0 0.0833333 -142.25 -176)" d="M 6003.82,3471.16 L 6063.82,3367.24 L 6433.34,3636.07 L 6443.31,3655.62 L 6421.32,3656.73 L 6003.82,3471.16 Z " />
</svg>
