<?xml version="1.0" standalone="no" ?>
<!DOCTYPE svg PUBLIC "-//W3C//DTD SVG 1.1//EN" "http://www.w3.org/Graphics/SVG/1.1/DTD/svg11.dtd">
<svg width="315px" height="218px" viewBox="0 0 315 218" style="background-color: #ffffff00" xmlns="http://www.w3.org/2000/svg" xmlns:xlink="http://www.w3.org/1999/xlink" version="1.1" >
<text x="0" y="0" stroke="transparent" fill="#000000" transform="matrix(0.0833333 0 0 0.0833333 297.846 24.0695)" style="font:normal normal normal 200px 'Arial'" >
O</text>
<text x="0" y="0" stroke="transparent" fill="#000000" transform="matrix(0.0833333 0 0 0.0833333 209.611 36.4462)" style="font:normal normal normal 200px 'Arial'" >
O</text>
<text x="0" y="0" stroke="transparent" fill="#000000" transform="matrix(0.0833333 0 0 0.0833333 3.51976 28.4057)" style="font:normal normal normal 200px 'Arial'" >
HO</text>
<path stroke="transparent" fill="#000000" transform="matrix(0.0833333 0 0 0.0833333 -298.875 -225)" d="M 4750.02,4687.53 L 4758.52,4679.33 L 4769.59,4683.43 L 4891.39,5264.53 L 4871.81,5268.63 L 4750.02,4687.53 Z " />
<path stroke="transparent" fill="#000000" transform="matrix(0.0833333 0 0 0.0833333 -298.875 -225)" d="M 4168.94,4544.01 L 4183.09,4526.91 L 4756.24,4668.47 L 4758.52,4679.33 L 4750.02,4687.53 L 4168.94,4544.01 Z " />
<path stroke="transparent" fill="#000000" transform="matrix(0.0833333 0 0 0.0833333 -298.875 -225)" d="M 4224.54,4483.58 L 4229.34,4464.16 L 4744.51,4591.41 L 4739.72,4610.83 L 4224.54,4483.58 Z " />
<path stroke="transparent" fill="#000000" transform="matrix(0.0833333 0 0 0.0833333 -298.875 -225)" d="M 3914.18,3990.12 L 3936.38,3990.51 L 4183.09,4526.91 L 4168.94,4544.01 L 3914.18,3990.12 Z " />
<path stroke="transparent" fill="#000000" transform="matrix(0.0833333 0 0 0.0833333 -298.875 -225)" d="M 4183.56,3455.29 L 4195.18,3454.46 L 4201.94,3463.25 L 3936.38,3990.51 L 3914.18,3990.12 L 4183.56,3455.29 Z " />
<path stroke="transparent" fill="#000000" transform="matrix(0.0833333 0 0 0.0833333 -298.875 -225)" d="M 4774.18,3322.82 L 4782.39,3331.31 L 4779.73,3342.09 L 4201.94,3463.25 L 4195.18,3454.46 L 4199.59,3443.31 L 4774.18,3322.82 Z " />
<path stroke="transparent" fill="#000000" transform="matrix(0.0833333 0 0 0.0833333 -298.875 -225)" d="M 5247.03,3702.54 L 5242.58,3724.81 L 4779.73,3342.09 L 4782.39,3331.31 L 4793.6,3327.61 L 5247.03,3702.54 Z " />
<path stroke="transparent" fill="#000000" transform="matrix(0.0833333 0 0 0.0833333 -298.875 -225)" d="M 5267.2,3625.79 L 5254.45,3641.2 L 4856.77,3312.36 L 4869.51,3296.95 L 5267.2,3625.79 Z " />
<path stroke="transparent" fill="#000000" transform="matrix(0.0833333 0 0 0.0833333 -298.875 -225)" d="M 5812.58,3529.79 L 5818.61,3538.4 L 5814.58,3550.09 L 5242.58,3724.81 L 5247.03,3702.54 L 5812.58,3529.79 Z " />
<path stroke="transparent" fill="#000000" transform="matrix(0.0833333 0 0 0.0833333 -298.875 -225)" d="M 6166.64,4018.31 L 6162.61,4029.99 L 6150.26,4029.77 L 5814.58,3550.09 L 5818.61,3538.4 L 5830.96,3538.62 L 6166.64,4018.31 Z " />
<path stroke="transparent" fill="#000000" transform="matrix(0.0833333 0 0 0.0833333 -298.875 -225)" d="M 5805.04,4520.92 L 5797.82,4497.28 L 6150.26,4029.77 L 6162.61,4029.99 L 6168.64,4038.61 L 5805.04,4520.92 Z " />
<path stroke="transparent" fill="#000000" transform="matrix(0.0833333 0 0 0.0833333 -298.875 -225)" d="M 5235.93,4324.8 L 5232.27,4302.39 L 5797.82,4497.28 L 5805.04,4520.92 L 5235.93,4324.8 Z " />
<path stroke="transparent" fill="#000000" transform="matrix(0.0833333 0 0 0.0833333 -298.875 -225)" d="M 5232.27,4302.39 L 5235.93,4324.8 L 4769.59,4683.43 L 4758.52,4679.33 L 4756.24,4668.47 L 5232.27,4302.39 Z " />
<path stroke="transparent" fill="#000000" transform="matrix(0.0833333 0 0 0.0833333 -298.875 -225)" d="M 6726.59,3847.33 L 6746.33,3862.22 L 6168.64,4038.61 L 6162.61,4029.99 L 6166.64,4018.31 L 6726.59,3847.33 Z " />
<path stroke="transparent" fill="#000000" transform="matrix(0.0833333 0 0 0.0833333 -298.875 -225)" d="M 7243.2,4179.27 L 7231.16,4195.24 L 6731.22,3818.27 L 6743.27,3802.3 L 7243.2,4179.27 Z " />
<path stroke="transparent" fill="#000000" transform="matrix(0.0833333 0 0 0.0833333 -298.875 -225)" d="M 7199.85,4236.76 L 7187.81,4252.73 L 6687.88,3875.75 L 6699.92,3859.78 L 7199.85,4236.76 Z " />
<path stroke="transparent" fill="#000000" transform="matrix(0.0833333 0 0 0.0833333 -298.875 -225)" d="M 6736.93,3261.93 L 6757.19,3247.75 L 6746.33,3862.22 L 6726.59,3847.33 L 6736.93,3261.93 Z " />
<path stroke="transparent" fill="#000000" transform="matrix(0.0833333 0 0 0.0833333 -298.875 -225)" d="M 7117.03,2939.8 L 7128.49,2956.19 L 6710.72,3248.54 L 6699.26,3232.15 L 7117.03,2939.8 Z " />
<path stroke="transparent" fill="#000000" transform="matrix(0.0833333 0 0 0.0833333 -298.875 -225)" d="M 7158.31,2998.79 L 7169.77,3015.18 L 6752.01,3307.52 L 6740.54,3291.14 L 7158.31,2998.79 Z " />
<path stroke="transparent" fill="#000000" transform="matrix(0.0833333 0 0 0.0833333 -298.875 -225)" d="M 6282.97,3105.48 L 6289.49,3086.57 L 6757.19,3247.75 L 6736.93,3261.93 L 6282.97,3105.48 Z " />
<path stroke="transparent" fill="#000000" transform="matrix(0.0833333 0 0 0.0833333 -298.875 -225)" d="M 6099.69,3149.03 L 6115.66,3161.07 L 5830.96,3538.62 L 5818.61,3538.4 L 5812.58,3529.79 L 6099.69,3149.03 Z " />
<path stroke="transparent" fill="#000000" transform="matrix(0.0833333 0 0 0.0833333 -298.875 -225)" d="M 4916.55,2746.41 L 4935.97,2751.21 L 4793.6,3327.61 L 4782.39,3331.31 L 4774.18,3322.82 L 4916.55,2746.41 Z " />
<path stroke="transparent" fill="#000000" transform="matrix(0.0833333 0 0 0.0833333 -298.875 -225)" d="M 3912.1,3067.37 L 3928.48,3055.91 L 4199.59,3443.31 L 4195.18,3454.46 L 4183.56,3455.29 L 3912.1,3067.37 Z " />
</svg>
