<?xml version="1.0" standalone="no" ?>
<!DOCTYPE svg PUBLIC "-//W3C//DTD SVG 1.1//EN" "http://www.w3.org/Graphics/SVG/1.1/DTD/svg11.dtd">
<svg width="562px" height="137px" viewBox="0 0 562 137" style="background-color: #ffffff00" xmlns="http://www.w3.org/2000/svg" xmlns:xlink="http://www.w3.org/1999/xlink" version="1.1" >
<text x="0" y="0" stroke="transparent" fill="#000000" transform="matrix(0.0666667 0 0 0.0666667 310.463 134.07)" style="font:normal normal normal 200px 'Arial'" >
O</text>
<text x="0" y="0" stroke="transparent" fill="#000000" transform="matrix(0.0666667 0 0 0.0666667 241.18 134.07)" style="font:normal normal normal 200px 'Arial'" >
OH</text>
<text x="0" y="0" stroke="transparent" fill="#000000" transform="matrix(0.0666667 0 0 0.0666667 33.3412 14.074)" style="font:normal normal normal 200px 'Arial'" >
O</text>
<text x="0" y="0" stroke="transparent" fill="#000000" transform="matrix(0.0666667 0 0 0.0666667 33.3412 94.0716)" style="font:normal normal normal 200px 'Arial'" >
O</text>
<text x="0" y="0" stroke="transparent" fill="#000000" transform="matrix(0.0666667 0 0 0.0666667 518.301 14.074)" style="font:normal normal normal 200px 'Arial'" >
O</text>
<text x="0" y="0" stroke="transparent" fill="#000000" transform="matrix(0.0666667 0 0 0.0666667 518.301 94.0716)" style="font:normal normal normal 200px 'Arial'" >
O</text>
<path stroke="transparent" fill="#000000" transform="matrix(0.0666667 0 0 0.0666667 -67.8587 -197)" d="M 6272.37,3999.63 L 6272.37,3976.54 L 6791.99,4276.53 L 6791.99,4299.62 L 6272.37,3999.63 Z " />
<path stroke="transparent" fill="#000000" transform="matrix(0.0666667 0 0 0.0666667 -67.8587 -197)" d="M 6267.37,4079.88 L 6277.37,4062.56 L 6760.99,4341.77 L 6750.99,4359.09 L 6267.37,4079.88 Z " />
<path stroke="transparent" fill="#000000" transform="matrix(0.0666667 0 0 0.0666667 -67.8587 -197)" d="M 5752.82,4299.62 L 5752.82,4276.53 L 6272.37,3976.54 L 6272.37,3999.63 L 5752.82,4299.62 Z " />
<path stroke="transparent" fill="#000000" transform="matrix(0.0666667 0 0 0.0666667 -67.8587 -197)" d="M 5233.2,3999.63 L 5233.2,3976.54 L 5752.82,4276.53 L 5752.82,4299.62 L 5233.2,3999.63 Z " />
<path stroke="transparent" fill="#000000" transform="matrix(0.0666667 0 0 0.0666667 -67.8587 -197)" d="M 4723.58,4293.85 L 4713.58,4288.07 L 4713.58,4276.53 L 5233.2,3976.54 L 5233.2,3999.63 L 4723.58,4293.85 Z " />
<path stroke="transparent" fill="#000000" transform="matrix(0.0666667 0 0 0.0666667 -67.8587 -197)" d="M 4790.58,4338.3 L 4780.58,4320.98 L 5228.2,4062.56 L 5238.2,4079.88 L 4790.58,4338.3 Z " />
<path stroke="transparent" fill="#000000" transform="matrix(0.0666667 0 0 0.0666667 -67.8587 -197)" d="M 4194.03,3999.63 L 4194.03,3976.54 L 4713.58,4276.53 L 4713.58,4288.07 L 4703.58,4293.85 L 4194.03,3999.63 Z " />
<path stroke="transparent" fill="#000000" transform="matrix(0.0666667 0 0 0.0666667 -67.8587 -197)" d="M 3674.41,4299.62 L 3674.41,4276.53 L 4194.03,3976.54 L 4194.03,3999.63 L 3674.41,4299.62 Z " />
<path stroke="transparent" fill="#000000" transform="matrix(0.0666667 0 0 0.0666667 -67.8587 -197)" d="M 3715.41,4359.09 L 3705.41,4341.77 L 4189.03,4062.56 L 4199.03,4079.88 L 3715.41,4359.09 Z " />
<path stroke="transparent" fill="#000000" transform="matrix(0.0666667 0 0 0.0666667 -67.8587 -197)" d="M 5798.82,4782.89 L 5778.82,4782.89 L 5778.82,4267.29 L 5798.82,4267.29 L 5798.82,4782.89 Z " />
<path stroke="transparent" fill="#000000" transform="matrix(0.0666667 0 0 0.0666667 -67.8587 -197)" d="M 5726.82,4782.89 L 5706.82,4782.89 L 5706.82,4267.29 L 5726.82,4267.29 L 5726.82,4782.89 Z " />
<path stroke="transparent" fill="#000000" transform="matrix(0.0666667 0 0 0.0666667 -67.8587 -197)" d="M 4723.58,4782.89 L 4703.58,4782.89 L 4703.58,4293.85 L 4713.58,4288.07 L 4723.58,4293.85 L 4723.58,4782.89 Z " />
<path stroke="transparent" fill="#000000" transform="matrix(0.0666667 0 0 0.0666667 -67.8587 -197)" d="M 2635.17,4299.62 L 2635.17,4276.53 L 3144.79,3982.31 L 3154.79,3988.08 L 3154.79,3999.63 L 2635.17,4299.62 Z " />
<path stroke="transparent" fill="#000000" transform="matrix(0.0666667 0 0 0.0666667 -67.8587 -197)" d="M 2115.62,3999.63 L 2115.62,3988.08 L 2125.62,3982.31 L 2635.17,4276.53 L 2635.17,4299.62 L 2115.62,3999.63 Z " />
<path stroke="transparent" fill="#000000" transform="matrix(0.0666667 0 0 0.0666667 -67.8587 -197)" d="M 2182.61,3955.18 L 2192.61,3937.86 L 2640.17,4196.28 L 2630.17,4213.6 L 2182.61,3955.18 Z " />
<path stroke="transparent" fill="#000000" transform="matrix(0.0666667 0 0 0.0666667 -67.8587 -197)" d="M 2105.62,3393.87 L 2115.62,3388.1 L 2125.62,3393.87 L 2125.62,3982.31 L 2115.62,3988.08 L 2105.62,3982.31 L 2105.62,3393.87 Z " />
<path stroke="transparent" fill="#000000" transform="matrix(0.0666667 0 0 0.0666667 -67.8587 -197)" d="M 2635.17,3076.56 L 2635.17,3099.66 L 2125.62,3393.87 L 2115.62,3388.1 L 2115.62,3376.55 L 2635.17,3076.56 Z " />
<path stroke="transparent" fill="#000000" transform="matrix(0.0666667 0 0 0.0666667 -67.8587 -197)" d="M 2630.17,3162.58 L 2640.17,3179.9 L 2192.61,3438.32 L 2182.61,3421 L 2630.17,3162.58 Z " />
<path stroke="transparent" fill="#000000" transform="matrix(0.0666667 0 0 0.0666667 -67.8587 -197)" d="M 3164.79,3382.33 L 3144.79,3393.87 L 2635.17,3099.66 L 2635.17,3076.56 L 3164.79,3382.33 Z " />
<path stroke="transparent" fill="#000000" transform="matrix(0.0666667 0 0 0.0666667 -67.8587 -197)" d="M 3144.79,3393.87 L 3164.79,3382.33 L 3164.79,3982.31 L 3154.79,3988.08 L 3144.79,3982.31 L 3144.79,3393.87 Z " />
<path stroke="transparent" fill="#000000" transform="matrix(0.0666667 0 0 0.0666667 -67.8587 -197)" d="M 3072.79,3429.67 L 3092.79,3429.67 L 3092.79,3946.51 L 3072.79,3946.51 L 3072.79,3429.67 Z " />
<path stroke="transparent" fill="#000000" transform="matrix(0.0666667 0 0 0.0666667 -67.8587 -197)" d="M 1081.38,3396.76 L 1071.38,3379.44 L 1491.39,3136.95 L 1501.39,3154.27 L 1081.38,3396.76 Z " />
<path stroke="transparent" fill="#000000" transform="matrix(0.0666667 0 0 0.0666667 -67.8587 -197)" d="M 1691.04,3154.52 L 1701.04,3137.2 L 2115.62,3376.55 L 2115.62,3388.1 L 2105.62,3393.87 L 1691.04,3154.52 Z " />
<path stroke="transparent" fill="#000000" transform="matrix(0.0666667 0 0 0.0666667 -67.8587 -197)" d="M 1071.38,3996.74 L 1081.38,3979.42 L 1508.38,4225.94 L 1498.38,4243.26 L 1071.38,3996.74 Z " />
<path stroke="transparent" fill="#000000" transform="matrix(0.0666667 0 0 0.0666667 -67.8587 -197)" d="M 1693.62,4243.26 L 1683.62,4225.94 L 2105.62,3982.31 L 2115.62,3988.08 L 2115.62,3999.63 L 1693.62,4243.26 Z " />
<path stroke="transparent" fill="#000000" transform="matrix(0.0666667 0 0 0.0666667 -67.8587 -197)" d="M 3154.79,3999.63 L 3154.79,3988.08 L 3164.79,3982.31 L 3674.41,4276.53 L 3674.41,4299.62 L 3154.79,3999.63 Z " />
<path stroke="transparent" fill="#000000" transform="matrix(0.0666667 0 0 0.0666667 -67.8587 -197)" d="M 7831.23,4276.53 L 7831.23,4299.62 L 7311.61,3999.63 L 7311.61,3988.08 L 7321.61,3982.31 L 7831.23,4276.53 Z " />
<path stroke="transparent" fill="#000000" transform="matrix(0.0666667 0 0 0.0666667 -67.8587 -197)" d="M 8340.78,3982.31 L 8350.78,3988.08 L 8350.78,3999.63 L 7831.23,4299.62 L 7831.23,4276.53 L 8340.78,3982.31 Z " />
<path stroke="transparent" fill="#000000" transform="matrix(0.0666667 0 0 0.0666667 -67.8587 -197)" d="M 8273.79,3937.86 L 8283.79,3955.18 L 7836.23,4213.6 L 7826.23,4196.28 L 8273.79,3937.86 Z " />
<path stroke="transparent" fill="#000000" transform="matrix(0.0666667 0 0 0.0666667 -67.8587 -197)" d="M 8340.78,3393.87 L 8350.78,3388.1 L 8360.78,3393.87 L 8360.78,3982.31 L 8350.78,3988.08 L 8340.78,3982.31 L 8340.78,3393.87 Z " />
<path stroke="transparent" fill="#000000" transform="matrix(0.0666667 0 0 0.0666667 -67.8587 -197)" d="M 7831.23,3099.66 L 7831.23,3076.56 L 8350.78,3376.55 L 8350.78,3388.1 L 8340.78,3393.87 L 7831.23,3099.66 Z " />
<path stroke="transparent" fill="#000000" transform="matrix(0.0666667 0 0 0.0666667 -67.8587 -197)" d="M 7826.23,3179.9 L 7836.23,3162.58 L 8283.79,3421 L 8273.79,3438.32 L 7826.23,3179.9 Z " />
<path stroke="transparent" fill="#000000" transform="matrix(0.0666667 0 0 0.0666667 -67.8587 -197)" d="M 7321.61,3393.87 L 7301.61,3382.33 L 7831.23,3076.56 L 7831.23,3099.66 L 7321.61,3393.87 Z " />
<path stroke="transparent" fill="#000000" transform="matrix(0.0666667 0 0 0.0666667 -67.8587 -197)" d="M 7301.61,3382.33 L 7321.61,3393.87 L 7321.61,3982.31 L 7311.61,3988.08 L 7301.61,3982.31 L 7301.61,3382.33 Z " />
<path stroke="transparent" fill="#000000" transform="matrix(0.0666667 0 0 0.0666667 -67.8587 -197)" d="M 7373.61,3429.67 L 7393.61,3429.67 L 7393.61,3946.51 L 7373.61,3946.51 L 7373.61,3429.67 Z " />
<path stroke="transparent" fill="#000000" transform="matrix(0.0666667 0 0 0.0666667 -67.8587 -197)" d="M 9395.02,3379.44 L 9385.02,3396.76 L 8965.44,3154.52 L 8975.44,3137.2 L 9395.02,3379.44 Z " />
<path stroke="transparent" fill="#000000" transform="matrix(0.0666667 0 0 0.0666667 -67.8587 -197)" d="M 8765.8,3136.95 L 8775.8,3154.27 L 8360.78,3393.87 L 8350.78,3388.1 L 8350.78,3376.55 L 8765.8,3136.95 Z " />
<path stroke="transparent" fill="#000000" transform="matrix(0.0666667 0 0 0.0666667 -67.8587 -197)" d="M 9385.02,3979.42 L 9395.02,3996.74 L 8968.02,4243.26 L 8958.02,4225.94 L 9385.02,3979.42 Z " />
<path stroke="transparent" fill="#000000" transform="matrix(0.0666667 0 0 0.0666667 -67.8587 -197)" d="M 8782.78,4225.94 L 8772.78,4243.26 L 8350.78,3999.63 L 8350.78,3988.08 L 8360.78,3982.31 L 8782.78,4225.94 Z " />
<path stroke="transparent" fill="#000000" transform="matrix(0.0666667 0 0 0.0666667 -67.8587 -197)" d="M 7301.61,3982.31 L 7311.61,3988.08 L 7311.61,3999.63 L 6791.99,4299.62 L 6791.99,4276.53 L 7301.61,3982.31 Z " />
</svg>
