<?xml version="1.0" standalone="no" ?>
<!DOCTYPE svg PUBLIC "-//W3C//DTD SVG 1.1//EN" "http://www.w3.org/Graphics/SVG/1.1/DTD/svg11.dtd">
<svg width="304px" height="347px" viewBox="0 0 304 347" style="background-color: #ffffff00" xmlns="http://www.w3.org/2000/svg" xmlns:xlink="http://www.w3.org/1999/xlink" version="1.1" >
<text x="0" y="0" stroke="transparent" fill="#000000" transform="matrix(0.0833333 0 0 0.0833333 275.194 17.9618)" style="font:normal normal normal 200px 'Arial'" >
OH</text>
<text x="0" y="0" stroke="transparent" fill="#000000" transform="matrix(0.0833333 0 0 0.0833333 3.35271 117.959)" style="font:normal normal normal 200px 'Arial'" >
HO</text>
<text x="0" y="0" stroke="transparent" fill="#000000" transform="matrix(0.0833333 0 0 0.0833333 101.991 167.96)" style="font:normal normal normal 200px 'Arial'" >
O</text>
<text x="0" y="0" stroke="transparent" fill="#000000" transform="matrix(0.0833333 0 0 0.0833333 145.292 242.962)" style="font:normal normal normal 200px 'Arial'" >
O</text>
<text x="0" y="0" stroke="transparent" fill="#000000" transform="matrix(0.0833333 0 0 0.0833333 231.894 342.969)" style="font:normal normal normal 200px 'Arial'" >
OH</text>
<text x="0" y="0" stroke="transparent" fill="#000000" transform="matrix(0.0833333 0 0 0.0833333 275.194 267.967)" style="font:normal normal normal 200px 'Arial'" >
OH</text>
<text x="0" y="0" stroke="transparent" fill="#000000" transform="matrix(0.0833333 0 0 0.0833333 275.194 167.965)" style="font:normal normal normal 200px 'Arial'" >
OH</text>
<text x="0" y="0" stroke="transparent" fill="#000000" transform="matrix(0.0833333 0 0 0.0833333 188.593 117.964)" style="font:normal normal normal 200px 'Arial'" >
OH</text>
<path stroke="transparent" fill="#000000" transform="matrix(0.0833333 0 0 0.0833333 -284.208 -186)" d="M 6271.22,2681.09 L 6271.22,2658 L 6686.23,2418.39 L 6696.23,2435.71 L 6271.22,2681.09 Z " />
<path stroke="transparent" fill="#000000" transform="matrix(0.0833333 0 0 0.0833333 -284.208 -186)" d="M 5751.61,2381.09 L 5751.61,2357.99 L 6271.22,2658 L 6271.22,2681.09 L 5751.61,2381.09 Z " />
<path stroke="transparent" fill="#000000" transform="matrix(0.0833333 0 0 0.0833333 -284.208 -186)" d="M 5242,2675.32 L 5232,2669.55 L 5232,2658 L 5751.61,2357.99 L 5751.61,2381.09 L 5242,2675.32 Z " />
<path stroke="transparent" fill="#000000" transform="matrix(0.0833333 0 0 0.0833333 -284.208 -186)" d="M 4712.39,2381.09 L 4712.39,2357.99 L 5232,2658 L 5232,2669.55 L 5222,2675.32 L 4712.39,2381.09 Z " />
<path stroke="transparent" fill="#000000" transform="matrix(0.0833333 0 0 0.0833333 -284.208 -186)" d="M 4707.38,2461.34 L 4717.39,2444.02 L 5165,2702.46 L 5155,2719.78 L 4707.38,2461.34 Z " />
<path stroke="transparent" fill="#000000" transform="matrix(0.0833333 0 0 0.0833333 -284.208 -186)" d="M 4202.78,2675.26 L 4182.78,2663.71 L 4712.39,2357.99 L 4712.39,2381.09 L 4202.78,2675.26 Z " />
<path stroke="transparent" fill="#000000" transform="matrix(0.0833333 0 0 0.0833333 -284.208 -186)" d="M 4202.78,3263.73 L 4192.78,3269.5 L 4182.78,3263.73 L 4182.78,2663.71 L 4202.78,2675.26 L 4202.78,3263.73 Z " />
<path stroke="transparent" fill="#000000" transform="matrix(0.0833333 0 0 0.0833333 -284.208 -186)" d="M 4274.78,3227.93 L 4254.78,3227.93 L 4254.78,2711.06 L 4274.78,2711.06 L 4274.78,3227.93 Z " />
<path stroke="transparent" fill="#000000" transform="matrix(0.0833333 0 0 0.0833333 -284.208 -186)" d="M 3770.78,3524.7 L 3760.78,3507.38 L 4182.78,3263.73 L 4192.78,3269.5 L 4192.78,3281.05 L 3770.78,3524.7 Z " />
<path stroke="transparent" fill="#000000" transform="matrix(0.0833333 0 0 0.0833333 -284.208 -186)" d="M 4712.39,3557.96 L 4712.39,3569.51 L 4702.39,3575.28 L 4192.78,3281.05 L 4192.78,3269.5 L 4202.78,3263.73 L 4712.39,3557.96 Z " />
<path stroke="transparent" fill="#000000" transform="matrix(0.0833333 0 0 0.0833333 -284.208 -186)" d="M 4722.39,4064.35 L 4702.39,4064.35 L 4702.39,3575.28 L 4712.39,3569.51 L 4722.39,3575.28 L 4722.39,4064.35 Z " />
<path stroke="transparent" fill="#000000" transform="matrix(0.0833333 0 0 0.0833333 -284.208 -186)" d="M 4782.42,4279.24 L 4842.43,4175.32 L 5232.56,4457.66 L 5232,4469.53 L 5222,4475.95 L 4782.42,4279.24 Z " />
<path stroke="transparent" fill="#000000" transform="matrix(0.0833333 0 0 0.0833333 -284.208 -186)" d="M 5242,4964.37 L 5222,4964.37 L 5222,4475.95 L 5232,4469.53 L 5242,4475.3 L 5242,4964.37 Z " />
<path stroke="transparent" fill="#000000" transform="matrix(0.0833333 0 0 0.0833333 -284.208 -186)" d="M 5327.03,5135.97 L 5337.03,5118.65 L 5751.61,5358.06 L 5751.61,5369.61 L 5741.15,5375.11 L 5327.03,5135.97 Z " />
<path stroke="transparent" fill="#000000" transform="matrix(0.0833333 0 0 0.0833333 -284.208 -186)" d="M 5813.63,5993.88 L 5693.45,5947.58 L 5741.15,5375.11 L 5751.61,5369.61 L 5762.07,5375.11 L 5813.63,5993.88 Z " />
<path stroke="transparent" fill="#000000" transform="matrix(0.0833333 0 0 0.0833333 -284.208 -186)" d="M 6183.6,6207.49 L 6173.6,6224.81 L 5693.45,5947.58 L 5813.63,5993.88 L 6183.6,6207.49 Z " />
<path stroke="transparent" fill="#000000" transform="matrix(0.0833333 0 0 0.0833333 -284.208 -186)" d="M 5762.07,5375.11 L 5751.61,5369.61 L 5751.61,5358.06 L 6261.22,5063.83 L 6281.22,5075.37 L 5762.07,5375.11 Z " />
<path stroke="transparent" fill="#000000" transform="matrix(0.0833333 0 0 0.0833333 -284.208 -186)" d="M 6728.22,5264.17 L 6668.22,5368.09 L 6652.03,5356.12 L 6709.76,5256.14 L 6728.22,5264.17 Z " />
<path stroke="transparent" fill="#000000" transform="matrix(0.0833333 0 0 0.0833333 -284.208 -186)" d="M 6672.96,5240.14 L 6619.78,5332.26 L 6603.6,5320.28 L 6654.51,5232.11 L 6672.96,5240.14 Z " />
<path stroke="transparent" fill="#000000" transform="matrix(0.0833333 0 0 0.0833333 -284.208 -186)" d="M 6617.71,5216.11 L 6571.35,5296.42 L 6555.16,5284.45 L 6599.25,5208.09 L 6617.71,5216.11 Z " />
<path stroke="transparent" fill="#000000" transform="matrix(0.0833333 0 0 0.0833333 -284.208 -186)" d="M 6562.46,5192.09 L 6522.91,5260.58 L 6506.73,5248.61 L 6544,5184.06 L 6562.46,5192.09 Z " />
<path stroke="transparent" fill="#000000" transform="matrix(0.0833333 0 0 0.0833333 -284.208 -186)" d="M 6507.21,5168.06 L 6474.48,5224.75 L 6458.3,5212.77 L 6488.75,5160.03 L 6507.21,5168.06 Z " />
<path stroke="transparent" fill="#000000" transform="matrix(0.0833333 0 0 0.0833333 -284.208 -186)" d="M 6451.96,5144.03 L 6426.04,5188.91 L 6409.86,5176.94 L 6433.5,5136 L 6451.96,5144.03 Z " />
<path stroke="transparent" fill="#000000" transform="matrix(0.0833333 0 0 0.0833333 -284.208 -186)" d="M 6396.7,5120 L 6377.61,5153.07 L 6361.43,5141.1 L 6378.24,5111.97 L 6396.7,5120 Z " />
<path stroke="transparent" fill="#000000" transform="matrix(0.0833333 0 0 0.0833333 -284.208 -186)" d="M 6341.45,5095.97 L 6329.17,5117.24 L 6312.99,5105.26 L 6322.99,5087.94 L 6341.45,5095.97 Z " />
<path stroke="transparent" fill="#000000" transform="matrix(0.0833333 0 0 0.0833333 -284.208 -186)" d="M 6281.22,5075.37 L 6261.22,5063.83 L 6261.22,4475.36 L 6271.22,4469.59 L 6281.22,4476.01 L 6281.22,5075.37 Z " />
<path stroke="transparent" fill="#000000" transform="matrix(0.0833333 0 0 0.0833333 -284.208 -186)" d="M 6661.23,4175.13 L 6721.23,4279.05 L 6281.22,4476.01 L 6271.22,4469.59 L 6270.66,4457.72 L 6661.23,4175.13 Z " />
<path stroke="transparent" fill="#000000" transform="matrix(0.0833333 0 0 0.0833333 -284.208 -186)" d="M 6270.66,4457.72 L 6271.22,4469.59 L 6261.22,4475.36 L 5751.61,4181.13 L 5751.61,4158.03 L 6270.66,4457.72 Z " />
<path stroke="transparent" fill="#000000" transform="matrix(0.0833333 0 0 0.0833333 -284.208 -186)" d="M 5751.61,4158.03 L 5751.61,4181.13 L 5242,4475.3 L 5232,4469.53 L 5232.56,4457.66 L 5751.61,4158.03 Z " />
<path stroke="transparent" fill="#000000" transform="matrix(0.0833333 0 0 0.0833333 -284.208 -186)" d="M 5691.61,3689.4 L 5811.61,3689.4 L 5809.26,3709.4 L 5693.96,3709.4 L 5691.61,3689.4 Z " />
<path stroke="transparent" fill="#000000" transform="matrix(0.0833333 0 0 0.0833333 -284.208 -186)" d="M 5698.42,3747.42 L 5804.8,3747.42 L 5802.46,3767.42 L 5700.77,3767.42 L 5698.42,3747.42 Z " />
<path stroke="transparent" fill="#000000" transform="matrix(0.0833333 0 0 0.0833333 -284.208 -186)" d="M 5705.23,3805.45 L 5798,3805.45 L 5795.65,3825.45 L 5707.57,3825.45 L 5705.23,3805.45 Z " />
<path stroke="transparent" fill="#000000" transform="matrix(0.0833333 0 0 0.0833333 -284.208 -186)" d="M 5712.03,3863.47 L 5791.19,3863.47 L 5788.84,3883.47 L 5714.38,3883.47 L 5712.03,3863.47 Z " />
<path stroke="transparent" fill="#000000" transform="matrix(0.0833333 0 0 0.0833333 -284.208 -186)" d="M 5718.84,3921.49 L 5784.38,3921.49 L 5782.03,3941.49 L 5721.19,3941.49 L 5718.84,3921.49 Z " />
<path stroke="transparent" fill="#000000" transform="matrix(0.0833333 0 0 0.0833333 -284.208 -186)" d="M 5725.65,3979.51 L 5777.57,3979.51 L 5775.23,3999.51 L 5728,3999.51 L 5725.65,3979.51 Z " />
<path stroke="transparent" fill="#000000" transform="matrix(0.0833333 0 0 0.0833333 -284.208 -186)" d="M 5732.46,4037.54 L 5770.77,4037.54 L 5768.42,4057.54 L 5734.8,4057.54 L 5732.46,4037.54 Z " />
<path stroke="transparent" fill="#000000" transform="matrix(0.0833333 0 0 0.0833333 -284.208 -186)" d="M 5739.26,4095.56 L 5763.96,4095.56 L 5761.61,4115.56 L 5741.61,4115.56 L 5739.26,4095.56 Z " />
<path stroke="transparent" fill="#000000" transform="matrix(0.0833333 0 0 0.0833333 -284.208 -186)" d="M 5222,3263.73 L 5242,3275.27 L 4722.39,3575.28 L 4712.39,3569.51 L 4712.39,3557.96 L 5222,3263.73 Z " />
<path stroke="transparent" fill="#000000" transform="matrix(0.0833333 0 0 0.0833333 -284.208 -186)" d="M 5155,3219.27 L 5165,3236.59 L 4717.39,3495.03 L 4707.39,3477.71 L 5155,3219.27 Z " />
<path stroke="transparent" fill="#000000" transform="matrix(0.0833333 0 0 0.0833333 -284.208 -186)" d="M 5242,3275.27 L 5222,3263.73 L 5222,2675.32 L 5232,2669.55 L 5242,2675.32 L 5242,3275.27 Z " />
</svg>
