<?xml version="1.0" standalone="no" ?>
<!DOCTYPE svg PUBLIC "-//W3C//DTD SVG 1.1//EN" "http://www.w3.org/Graphics/SVG/1.1/DTD/svg11.dtd">
<svg width="204px" height="195px" viewBox="0 0 204 195" style="background-color: #ffffff00" xmlns="http://www.w3.org/2000/svg" xmlns:xlink="http://www.w3.org/1999/xlink" version="1.1" >
<path stroke="none" fill="#000000" transform="matrix(0.0666667 0 0 0.0666667 -246.792 -190)" d="M 5147.49,3479.2 L 5158.64,3483.1 L 5161.1,3493.92 L 4699.55,3862.02 L 4689.55,3857.21 L 4687.52,3846.03 L 5147.49,3479.2 Z " />
<path stroke="none" fill="#000000" transform="matrix(0.0666667 0 0 0.0666667 -246.792 -190)" d="M 5170.18,3553.19 L 5182.65,3568.83 L 4767.78,3899.7 L 4755.31,3884.06 L 5170.18,3553.19 Z " />
<path stroke="none" fill="#000000" transform="matrix(0.0666667 0 0 0.0666667 -246.792 -190)" d="M 5750.5,3607.95 L 5736.66,3625.3 L 5161.1,3493.92 L 5158.64,3483.1 L 5166.99,3474.75 L 5750.5,3607.95 Z " />
<path stroke="none" fill="#000000" transform="matrix(0.0666667 0 0 0.0666667 -246.792 -190)" d="M 6015.04,4157.2 L 5992.84,4157.2 L 5736.66,3625.3 L 5750.5,3607.95 L 6015.04,4157.2 Z " />
<path stroke="none" fill="#000000" transform="matrix(0.0666667 0 0 0.0666667 -246.792 -190)" d="M 5933.03,4152.87 L 5915.01,4161.54 L 5684.74,3683.44 L 5702.76,3674.77 L 5933.03,4152.87 Z " />
<path stroke="none" fill="#000000" transform="matrix(0.0666667 0 0 0.0666667 -246.792 -190)" d="M 4122.75,3683.51 L 4115.11,3660 L 4687.52,3846.03 L 4689.55,3857.21 L 4679.55,3864.47 L 4122.75,3683.51 Z " />
<path stroke="none" fill="#000000" transform="matrix(0.0666667 0 0 0.0666667 -246.792 -190)" d="M 4679.55,3864.47 L 4689.55,3857.21 L 4699.55,3862.02 L 4699.55,4452.39 L 4689.55,4457.2 L 4679.55,4449.94 L 4679.55,3864.47 Z " />
<path stroke="none" fill="#000000" transform="matrix(0.0666667 0 0 0.0666667 -246.792 -190)" d="M 4126.87,4650.52 L 4118.93,4642.58 L 4122.75,4630.83 L 4679.55,4449.94 L 4689.55,4457.2 L 4687.52,4468.38 L 4126.87,4650.52 Z " />
<path stroke="none" fill="#000000" transform="matrix(0.0666667 0 0 0.0666667 -246.792 -190)" d="M 4149.52,4567.46 L 4143.34,4548.44 L 4614.46,4395.38 L 4620.64,4414.4 L 4149.52,4567.46 Z " />
<path stroke="none" fill="#000000" transform="matrix(0.0666667 0 0 0.0666667 -246.792 -190)" d="M 3753.92,4157.21 L 3778.64,4157.2 L 4122.75,4630.83 L 4118.93,4642.58 L 4107.85,4644.34 L 3753.92,4157.21 Z " />
<path stroke="none" fill="#000000" transform="matrix(0.0666667 0 0 0.0666667 -246.792 -190)" d="M 3778.64,4157.2 L 3753.92,4157.21 L 4115.11,3660 L 4122.75,3683.51 L 3778.64,4157.2 Z " />
<path stroke="none" fill="#000000" transform="matrix(0.0666667 0 0 0.0666667 -246.792 -190)" d="M 3863.37,4163.08 L 3847.19,4151.32 L 4138.34,3750.52 L 4154.53,3762.28 L 3863.37,4163.08 Z " />
<path stroke="none" fill="#000000" transform="matrix(0.0666667 0 0 0.0666667 -246.792 -190)" d="M 5161.1,4820.49 L 5156.17,4842.13 L 4687.52,4468.38 L 4689.55,4457.2 L 4699.55,4452.39 L 5161.1,4820.49 Z " />
<path stroke="none" fill="#000000" transform="matrix(0.0666667 0 0 0.0666667 -246.792 -190)" d="M 5755.31,4696.46 L 5743.58,4697.78 L 5736.66,4689.11 L 5992.84,4157.2 L 6015.04,4157.2 L 5755.31,4696.46 Z " />
<path stroke="none" fill="#000000" transform="matrix(0.0666667 0 0 0.0666667 -246.792 -190)" d="M 5156.17,4842.13 L 5161.1,4820.49 L 5736.66,4689.11 L 5743.58,4697.78 L 5739.68,4708.93 L 5156.17,4842.13 Z " />
<path stroke="none" fill="#000000" transform="matrix(0.0666667 0 0 0.0666667 -246.792 -190)" d="M 5178.64,4763.15 L 5174.19,4743.65 L 5691.53,4625.56 L 5695.98,4645.06 L 5178.64,4763.15 Z " />
<path stroke="none" fill="#000000" transform="matrix(0.0666667 0 0 0.0666667 -246.792 -190)" d="M 6121.9,5156.12 L 6117.68,5166.87 L 6106.27,5168.59 L 5739.68,4708.93 L 5743.58,4697.78 L 5755.31,4696.46 L 6121.9,5156.12 Z " />
<path stroke="none" fill="#000000" transform="matrix(0.0666667 0 0 0.0666667 -246.792 -190)" d="M 5015.36,2900.38 L 5034.86,2895.93 L 5166.99,3474.75 L 5158.64,3483.1 L 5147.49,3479.2 L 5015.36,2900.38 Z " />
<path stroke="none" fill="#000000" transform="matrix(0.0666667 0 0 0.0666667 -246.792 -190)" d="M 5907.79,5729.07 L 5889.18,5721.76 L 6106.27,5168.59 L 6117.68,5166.87 L 6124.88,5175.9 L 5907.79,5729.07 Z " />
<path stroke="none" fill="#000000" transform="matrix(0.0666667 0 0 0.0666667 -246.792 -190)" d="M 6709.5,5067.53 L 6712.48,5087.31 L 6124.88,5175.9 L 6117.68,5166.87 L 6121.9,5156.12 L 6709.5,5067.53 Z " />
<path stroke="none" fill="#000000" transform="matrix(0.0666667 0 0 0.0666667 -246.792 -190)" d="M 3942.99,5216.29 L 3923.97,5210.11 L 4107.85,4644.34 L 4118.93,4642.58 L 4126.87,4650.52 L 3942.99,5216.29 Z " />
</svg>
