<?xml version="1.0" standalone="no" ?>
<!DOCTYPE svg PUBLIC "-//W3C//DTD SVG 1.1//EN" "http://www.w3.org/Graphics/SVG/1.1/DTD/svg11.dtd">
<svg width="182px" height="93px" viewBox="0 0 182 93" style="background-color: #ffffff00" xmlns="http://www.w3.org/2000/svg" xmlns:xlink="http://www.w3.org/1999/xlink" version="1.1" >
<text x="0" y="0" stroke="none" fill="#000000" transform="matrix(0.0666667 0 0 0.0666667 138.113 74.3664)" font-style="normal" font-weight="normal" font-size="200px" font-family="Arial" >
O</text>
<text x="0" y="0" stroke="none" fill="#000000" transform="matrix(0.0666667 0 0 0.0666667 103.313 14.6277)" font-style="normal" font-weight="normal" font-size="200px" font-family="Arial" >
O</text>
<path stroke="none" fill="#000000" transform="matrix(0.0666667 0 0 0.0666667 -257.853 -238)" d="M 5971.48,3986.84 L 5991.48,3986.84 L 5991.48,4502.33 L 5971.48,4502.33 L 5971.48,3986.84 Z " />
<path stroke="none" fill="#000000" transform="matrix(0.0666667 0 0 0.0666667 -257.853 -238)" d="M 6043.51,3986.84 L 6063.51,3986.84 L 6063.51,4502.33 L 6043.51,4502.33 L 6043.51,3986.84 Z " />
<path stroke="none" fill="#000000" transform="matrix(0.0666667 0 0 0.0666667 -257.853 -238)" d="M 6017.5,3995.75 L 6017.5,4018.74 L 5590.97,3777.02 L 5600.83,3759.62 L 6017.5,3995.75 Z " />
<path stroke="none" fill="#000000" transform="matrix(0.0666667 0 0 0.0666667 -257.853 -238)" d="M 6017.5,4018.74 L 6017.5,3995.75 L 6534.56,3702.72 L 6544.43,3720.12 L 6017.5,4018.74 Z " />
<path stroke="none" fill="#000000" transform="matrix(0.0666667 0 0 0.0666667 -257.853 -238)" d="M 5390.59,3759.37 L 5400.45,3776.77 L 4983.5,4013.08 L 4973.5,4007.25 L 4973.57,3995.71 L 5390.59,3759.37 Z " />
<path stroke="none" fill="#000000" transform="matrix(0.0666667 0 0 0.0666667 -257.853 -238)" d="M 4963.5,4012.99 L 4973.5,4007.25 L 4983.5,4013.08 L 4983.5,4613.32 L 4963.5,4601.67 L 4963.5,4012.99 Z " />
<path stroke="none" fill="#000000" transform="matrix(0.0666667 0 0 0.0666667 -257.853 -238)" d="M 4891.47,4048.61 L 4911.47,4048.61 L 4911.47,4565.52 L 4891.47,4565.52 L 4891.47,4048.61 Z " />
<path stroke="none" fill="#000000" transform="matrix(0.0666667 0 0 0.0666667 -257.853 -238)" d="M 4973.57,3995.71 L 4973.5,4007.25 L 4963.5,4012.99 L 4451.5,3714.22 L 4451.65,3691.15 L 4973.57,3995.71 Z " />
<path stroke="none" fill="#000000" transform="matrix(0.0666667 0 0 0.0666667 -257.853 -238)" d="M 4963.5,4601.67 L 4983.5,4613.32 L 4451.57,4914.75 L 4451.57,4891.76 L 4963.5,4601.67 Z " />
<path stroke="none" fill="#000000" transform="matrix(0.0666667 0 0 0.0666667 -257.853 -238)" d="M 4451.65,3691.15 L 4451.5,3714.22 L 3939.57,4004.35 L 3919.57,3992.7 L 4451.65,3691.15 Z " />
<path stroke="none" fill="#000000" transform="matrix(0.0666667 0 0 0.0666667 -257.853 -238)" d="M 4446.12,3777.05 L 4455.98,3794.45 L 4006.5,4049.18 L 3996.64,4031.78 L 4446.12,3777.05 Z " />
<path stroke="none" fill="#000000" transform="matrix(0.0666667 0 0 0.0666667 -257.853 -238)" d="M 4451.57,4891.76 L 4451.57,4914.75 L 3919.57,4613.32 L 3939.57,4601.67 L 4451.57,4891.76 Z " />
<path stroke="none" fill="#000000" transform="matrix(0.0666667 0 0 0.0666667 -257.853 -238)" d="M 4456.5,4811.81 L 4446.64,4829.21 L 3996.64,4574.24 L 4006.5,4556.84 L 4456.5,4811.81 Z " />
<path stroke="none" fill="#000000" transform="matrix(0.0666667 0 0 0.0666667 -257.853 -238)" d="M 3919.57,3992.7 L 3939.57,4004.35 L 3939.57,4601.67 L 3919.57,4613.32 L 3919.57,3992.7 Z " />
</svg>
