<?xml version="1.0" standalone="no" ?>
<!DOCTYPE svg PUBLIC "-//W3C//DTD SVG 1.1//EN" "http://www.w3.org/Graphics/SVG/1.1/DTD/svg11.dtd">
<svg width="285px" height="395px" viewBox="0 0 285 395" style="background-color: #ffffff00" xmlns="http://www.w3.org/2000/svg" xmlns:xlink="http://www.w3.org/1999/xlink" version="1.1" >
<text x="0" y="0" stroke="transparent" fill="#000000" transform="matrix(0.0833333 0 0 0.0833333 61.5886 295.81)" style="font:normal normal normal 200px 'Arial'" >
O</text>
<text x="0" y="0" stroke="transparent" fill="#000000" transform="matrix(0.0833333 0 0 0.0833333 111.649 281.101)" style="font:normal normal normal 200px 'Arial'" >
O</text>
<text x="0" y="0" stroke="transparent" fill="#000000" transform="matrix(0.0833333 0 0 0.0833333 150.74 312.276)" style="font:normal normal normal 200px 'Arial'" >
O</text>
<text x="0" y="0" stroke="transparent" fill="#000000" transform="matrix(0.0833333 0 0 0.0833333 152.558 102.883)" style="font:normal normal normal 200px 'Arial'" >
O</text>
<text x="0" y="0" stroke="transparent" fill="#000000" transform="matrix(0.0833333 0 0 0.0833333 222.783 331.513)" style="font:normal normal normal 200px 'Arial'" >
O</text>
<path stroke="transparent" fill="#000000" transform="matrix(0.0833333 0 0 0.0833333 -293.208 -162)" d="M 5101.56,4654.83 L 5091.56,4659.65 L 5081.56,4652.38 L 5081.56,4066.91 L 5091.56,4059.65 L 5101.56,4064.46 L 5101.56,4654.83 Z " />
<path stroke="transparent" fill="#000000" transform="matrix(0.0833333 0 0 0.0833333 -293.208 -162)" d="M 5563.2,5022.93 L 5560.73,5033.75 L 5548.83,5037.06 L 5098.65,4678.09 L 5091.56,4659.65 L 5101.56,4654.83 L 5563.2,5022.93 Z " />
<path stroke="transparent" fill="#000000" transform="matrix(0.0833333 0 0 0.0833333 -293.208 -162)" d="M 6138.75,4891.55 L 6145.67,4900.23 L 6141.48,4911.44 L 5569.46,5042.02 L 5560.73,5033.75 L 5563.2,5022.93 L 6138.75,4891.55 Z " />
<path stroke="transparent" fill="#000000" transform="matrix(0.0833333 0 0 0.0833333 -293.208 -162)" d="M 6394.86,4359.65 L 6417.06,4359.65 L 6157.28,4899.16 L 6145.67,4900.23 L 6138.75,4891.55 L 6394.86,4359.65 Z " />
<path stroke="transparent" fill="#000000" transform="matrix(0.0833333 0 0 0.0833333 -293.208 -162)" d="M 6317.04,4355.31 L 6335.06,4363.98 L 6104.85,4842.09 L 6086.84,4833.41 L 6317.04,4355.31 Z " />
<path stroke="transparent" fill="#000000" transform="matrix(0.0833333 0 0 0.0833333 -293.208 -162)" d="M 6138.75,3827.74 L 6145.67,3819.06 L 6155.65,3816.74 L 6417.06,4359.65 L 6394.86,4359.65 L 6138.75,3827.74 Z " />
<path stroke="transparent" fill="#000000" transform="matrix(0.0833333 0 0 0.0833333 -293.208 -162)" d="M 5563.2,3696.36 L 5558.26,3674.72 L 6135.57,3806.5 L 6145.67,3819.06 L 6138.75,3827.74 L 5563.2,3696.36 Z " />
<path stroke="transparent" fill="#000000" transform="matrix(0.0833333 0 0 0.0833333 -293.208 -162)" d="M 5101.56,4064.46 L 5091.56,4059.65 L 5098.27,4041.51 L 5558.26,3674.72 L 5563.2,3696.36 L 5101.56,4064.46 Z " />
<path stroke="transparent" fill="#000000" transform="matrix(0.0833333 0 0 0.0833333 -293.208 -162)" d="M 4524.77,3886.02 L 4517.13,3862.51 L 5078.56,4044.91 L 5091.56,4059.65 L 5081.56,4066.91 L 4524.77,3886.02 Z " />
<path stroke="transparent" fill="#000000" transform="matrix(0.0833333 0 0 0.0833333 -293.208 -162)" d="M 4180.65,4359.65 L 4168.29,4359.65 L 4163.2,4349.65 L 4517.13,3862.51 L 4524.77,3886.02 L 4180.65,4359.65 Z " />
<path stroke="transparent" fill="#000000" transform="matrix(0.0833333 0 0 0.0833333 -293.208 -162)" d="M 4265.37,4365.53 L 4249.19,4353.77 L 4540.36,3953.02 L 4556.54,3964.78 L 4265.37,4365.53 Z " />
<path stroke="transparent" fill="#000000" transform="matrix(0.0833333 0 0 0.0833333 -293.208 -162)" d="M 4524.77,4833.34 L 4520.95,4845.1 L 4509.51,4846.37 L 4163.2,4369.65 L 4168.29,4359.65 L 4180.65,4359.65 L 4524.77,4833.34 Z " />
<path stroke="transparent" fill="#000000" transform="matrix(0.0833333 0 0 0.0833333 -293.208 -162)" d="M 5081.56,4652.38 L 5091.56,4659.65 L 5074.88,4675.58 L 4529.45,4852.85 L 4520.95,4845.1 L 4524.77,4833.34 L 5081.56,4652.38 Z " />
<path stroke="transparent" fill="#000000" transform="matrix(0.0833333 0 0 0.0833333 -293.208 -162)" d="M 5713.56,2739.73 L 5716.15,2749.39 L 5713.16,2760.54 L 5144.75,2912.83 L 5128.42,2896.5 L 5713.56,2739.73 Z " />
<path stroke="transparent" fill="#000000" transform="matrix(0.0833333 0 0 0.0833333 -293.208 -162)" d="M 4991.56,3484.6 L 4971.06,3483.86 L 5128.42,2896.5 L 5144.75,2912.83 L 4991.56,3484.6 Z " />
<path stroke="transparent" fill="#000000" transform="matrix(0.0833333 0 0 0.0833333 -293.208 -162)" d="M 5098.27,4041.51 L 5091.56,4059.65 L 5078.56,4044.91 L 4971.06,3483.86 L 4991.56,3484.6 L 5098.27,4041.51 Z " />
<path stroke="transparent" fill="#000000" transform="matrix(0.0833333 0 0 0.0833333 -293.208 -162)" d="M 6135.26,3154.29 L 6140.44,3173.61 L 6130.47,3177.79 L 5713.16,2760.54 L 5716.15,2749.39 L 5735.46,2754.57 L 6135.26,3154.29 Z " />
<path stroke="transparent" fill="#000000" transform="matrix(0.0833333 0 0 0.0833333 -293.208 -162)" d="M 6155.65,3816.74 L 6145.67,3819.06 L 6135.57,3806.5 L 6130.47,3177.79 L 6140.44,3173.61 L 6150.45,3174.89 L 6155.65,3816.74 Z " />
<path stroke="transparent" fill="#000000" transform="matrix(0.0833333 0 0 0.0833333 -293.208 -162)" d="M 6293.8,2584.2 L 6295.71,2594.05 L 6281.57,2608.19 L 5735.46,2754.57 L 5716.15,2749.39 L 5713.56,2739.73 L 6293.8,2584.2 Z " />
<path stroke="transparent" fill="#000000" transform="matrix(0.0833333 0 0 0.0833333 -293.208 -162)" d="M 6150.45,3174.89 L 6140.44,3173.61 L 6135.26,3154.29 L 6281.57,2608.19 L 6295.71,2594.05 L 6303.21,2604.67 L 6150.45,3174.89 Z " />
<path stroke="transparent" fill="#000000" transform="matrix(0.0833333 0 0 0.0833333 -293.208 -162)" d="M 6459.49,5312.62 L 6437.23,5316.05 L 6141.48,4911.44 L 6145.67,4900.23 L 6157.28,4899.16 L 6459.49,5312.62 Z " />
<path stroke="transparent" fill="#000000" transform="matrix(0.0833333 0 0 0.0833333 -293.208 -162)" d="M 4425.36,5333.49 L 4311.24,5296.42 L 4509.51,4846.37 L 4520.95,4845.1 L 4529.45,4852.85 L 4425.36,5333.49 Z " />
<path stroke="transparent" fill="#000000" transform="matrix(0.0833333 0 0 0.0833333 -293.208 -162)" d="M 5021.66,5152.41 L 4905.75,5121.36 L 5074.88,4675.58 L 5091.56,4659.65 L 5098.65,4678.09 L 5021.66,5152.41 Z " />
<path stroke="transparent" fill="#000000" transform="matrix(0.0833333 0 0 0.0833333 -293.208 -162)" d="M 5490.76,5526.53 L 5374.85,5495.46 L 5548.83,5037.06 L 5560.73,5033.75 L 5569.46,5042.02 L 5490.76,5526.53 Z " />
<path stroke="transparent" fill="#000000" transform="matrix(0.0833333 0 0 0.0833333 -293.208 -162)" d="M 4379.5,3522.44 L 4383.85,3402.52 L 4403.77,3405.08 L 4399.55,3521.34 L 4379.5,3522.44 Z " />
<path stroke="transparent" fill="#000000" transform="matrix(0.0833333 0 0 0.0833333 -293.208 -162)" d="M 4438.1,3519.21 L 4442.06,3409.99 L 4461.98,3412.54 L 4458.15,3518.11 L 4438.1,3519.21 Z " />
<path stroke="transparent" fill="#000000" transform="matrix(0.0833333 0 0 0.0833333 -293.208 -162)" d="M 4496.7,3515.98 L 4500.28,3417.45 L 4520.2,3420.01 L 4516.76,3514.88 L 4496.7,3515.98 Z " />
<path stroke="transparent" fill="#000000" transform="matrix(0.0833333 0 0 0.0833333 -293.208 -162)" d="M 4555.31,3512.75 L 4558.49,3424.92 L 4578.41,3427.48 L 4575.36,3511.65 L 4555.31,3512.75 Z " />
<path stroke="transparent" fill="#000000" transform="matrix(0.0833333 0 0 0.0833333 -293.208 -162)" d="M 4613.91,3509.52 L 4616.71,3432.39 L 4636.63,3434.94 L 4633.96,3508.42 L 4613.91,3509.52 Z " />
<path stroke="transparent" fill="#000000" transform="matrix(0.0833333 0 0 0.0833333 -293.208 -162)" d="M 4672.51,3506.29 L 4674.92,3439.85 L 4694.84,3442.41 L 4692.57,3505.19 L 4672.51,3506.29 Z " />
<path stroke="transparent" fill="#000000" transform="matrix(0.0833333 0 0 0.0833333 -293.208 -162)" d="M 4731.12,3503.06 L 4733.14,3447.32 L 4753.06,3449.88 L 4751.17,3501.95 L 4731.12,3503.06 Z " />
<path stroke="transparent" fill="#000000" transform="matrix(0.0833333 0 0 0.0833333 -293.208 -162)" d="M 4789.72,3499.83 L 4791.35,3454.79 L 4811.27,3457.34 L 4809.77,3498.72 L 4789.72,3499.83 Z " />
<path stroke="transparent" fill="#000000" transform="matrix(0.0833333 0 0 0.0833333 -293.208 -162)" d="M 4848.32,3496.6 L 4849.57,3462.25 L 4869.49,3464.81 L 4868.38,3495.49 L 4848.32,3496.6 Z " />
<path stroke="transparent" fill="#000000" transform="matrix(0.0833333 0 0 0.0833333 -293.208 -162)" d="M 4906.93,3493.37 L 4907.78,3469.72 L 4927.7,3472.28 L 4926.98,3492.26 L 4906.93,3493.37 Z " />
<path stroke="transparent" fill="#000000" transform="matrix(0.0833333 0 0 0.0833333 -293.208 -162)" d="M 6235.71,1994.05 L 6355.71,1994.05 L 6353.88,2014.05 L 6237.54,2014.05 L 6235.71,1994.05 Z " />
<path stroke="transparent" fill="#000000" transform="matrix(0.0833333 0 0 0.0833333 -293.208 -162)" d="M 6241.06,2052.48 L 6350.36,2052.48 L 6348.52,2072.48 L 6242.89,2072.48 L 6241.06,2052.48 Z " />
<path stroke="transparent" fill="#000000" transform="matrix(0.0833333 0 0 0.0833333 -293.208 -162)" d="M 6246.41,2110.91 L 6345,2110.91 L 6343.17,2130.91 L 6248.24,2130.91 L 6246.41,2110.91 Z " />
<path stroke="transparent" fill="#000000" transform="matrix(0.0833333 0 0 0.0833333 -293.208 -162)" d="M 6251.76,2169.35 L 6339.65,2169.35 L 6337.82,2189.35 L 6253.6,2189.35 L 6251.76,2169.35 Z " />
<path stroke="transparent" fill="#000000" transform="matrix(0.0833333 0 0 0.0833333 -293.208 -162)" d="M 6257.12,2227.78 L 6334.3,2227.78 L 6332.47,2247.78 L 6258.95,2247.78 L 6257.12,2227.78 Z " />
<path stroke="transparent" fill="#000000" transform="matrix(0.0833333 0 0 0.0833333 -293.208 -162)" d="M 6262.47,2286.22 L 6328.95,2286.22 L 6327.12,2306.22 L 6264.3,2306.22 L 6262.47,2286.22 Z " />
<path stroke="transparent" fill="#000000" transform="matrix(0.0833333 0 0 0.0833333 -293.208 -162)" d="M 6267.82,2344.65 L 6323.6,2344.65 L 6321.76,2364.65 L 6269.65,2364.65 L 6267.82,2344.65 Z " />
<path stroke="transparent" fill="#000000" transform="matrix(0.0833333 0 0 0.0833333 -293.208 -162)" d="M 6273.17,2403.09 L 6318.24,2403.09 L 6316.41,2423.09 L 6275,2423.09 L 6273.17,2403.09 Z " />
<path stroke="transparent" fill="#000000" transform="matrix(0.0833333 0 0 0.0833333 -293.208 -162)" d="M 6278.52,2461.52 L 6312.89,2461.52 L 6311.06,2481.52 L 6280.36,2481.52 L 6278.52,2461.52 Z " />
<path stroke="transparent" fill="#000000" transform="matrix(0.0833333 0 0 0.0833333 -293.208 -162)" d="M 6283.88,2519.96 L 6307.54,2519.96 L 6305.71,2539.96 L 6285.71,2539.96 L 6283.88,2519.96 Z " />
<path stroke="transparent" fill="#000000" transform="matrix(0.0833333 0 0 0.0833333 -293.208 -162)" d="M 6895.71,2534.05 L 6895.71,2654.05 L 6303.21,2604.67 L 6295.71,2594.05 L 6293.8,2584.2 L 6895.71,2534.05 Z " />
<path stroke="transparent" fill="#000000" transform="matrix(0.0833333 0 0 0.0833333 -293.208 -162)" d="M 5409.52,3229.83 L 5429.02,3225.38 L 5539.24,3708.22 L 5519.74,3712.67 L 5409.52,3229.83 Z " />
<path stroke="transparent" fill="#000000" transform="matrix(0.0833333 0 0 0.0833333 -293.208 -162)" d="M 5479.71,3213.8 L 5499.21,3209.35 L 5609.43,3692.2 L 5589.93,3696.65 L 5479.71,3213.8 Z " />
<path stroke="transparent" fill="#000000" transform="matrix(0.0833333 0 0 0.0833333 -293.208 -162)" d="M 3568.29,4369.65 L 3568.29,4349.65 L 4163.2,4349.65 L 4168.29,4359.65 L 4163.2,4369.65 L 3568.29,4369.65 Z " />
<path stroke="transparent" fill="#000000" transform="matrix(0.0833333 0 0 0.0833333 -293.208 -162)" d="M 6313.19,5746.93 L 6294.24,5740.55 L 6437.23,5316.05 L 6459.49,5312.62 L 6313.19,5746.93 Z " />
<path stroke="transparent" fill="#000000" transform="matrix(0.0833333 0 0 0.0833333 -293.208 -162)" d="M 5791.04,6096.43 L 5788.36,6109.32 L 5773.46,6106.38 L 5470.9,5714.53 L 5486.73,5702.31 L 5791.04,6096.43 Z " />
<path stroke="transparent" fill="#000000" transform="matrix(0.0833333 0 0 0.0833333 -293.208 -162)" d="M 6164.55,5890.75 L 6174.19,5908.27 L 5802.13,6113.15 L 5788.36,6109.32 L 5791.04,6096.43 L 6164.55,5890.75 Z " />
<path stroke="transparent" fill="#000000" transform="matrix(0.0833333 0 0 0.0833333 -293.208 -162)" d="M 5273.8,6417.98 L 5263.8,6400.66 L 5773.46,6106.38 L 5788.36,6109.32 L 5784.7,6122.98 L 5273.8,6417.98 Z " />
<path stroke="transparent" fill="#000000" transform="matrix(0.0833333 0 0 0.0833333 -293.208 -162)" d="M 6097.02,6623.95 L 6079.7,6633.95 L 5784.7,6122.98 L 5788.36,6109.32 L 5802.13,6113.15 L 6097.02,6623.95 Z " />
<path stroke="transparent" fill="#000000" transform="matrix(0.0833333 0 0 0.0833333 -293.208 -162)" d="M 4634.27,5913.05 L 4635.56,5935.28 L 4621.9,5931.62 L 4387.45,5525.57 L 4404.77,5515.57 L 4634.27,5913.05 Z " />
<path stroke="transparent" fill="#000000" transform="matrix(0.0833333 0 0 0.0833333 -293.208 -162)" d="M 4646.12,5936.05 L 4635.56,5935.28 L 4634.27,5913.05 L 4878.87,5346.9 L 4897.23,5354.84 L 4646.12,5936.05 Z " />
<path stroke="transparent" fill="#000000" transform="matrix(0.0833333 0 0 0.0833333 -293.208 -162)" d="M 4120.93,6243.94 L 4110.93,6226.62 L 4621.9,5931.62 L 4635.56,5935.28 L 4629.28,5950.46 L 4120.93,6243.94 Z " />
<path stroke="transparent" fill="#000000" transform="matrix(0.0833333 0 0 0.0833333 -293.208 -162)" d="M 4800.5,6512.26 L 4781.18,6517.43 L 4629.28,5950.46 L 4635.56,5935.28 L 4646.12,5936.05 L 4800.5,6512.26 Z " />
</svg>
