<?xml version="1.0" standalone="no" ?>
<!DOCTYPE svg PUBLIC "-//W3C//DTD SVG 1.1//EN" "http://www.w3.org/Graphics/SVG/1.1/DTD/svg11.dtd">
<svg width="373px" height="121px" viewBox="0 0 373 121" style="background-color: #ffffff00" xmlns="http://www.w3.org/2000/svg" xmlns:xlink="http://www.w3.org/1999/xlink" version="1.1" >
<path stroke="transparent" fill="#000000" transform="matrix(0.0833333 0 0 0.0833333 -249.208 -299)" d="M 3662.1,4874.76 L 3652.1,4857.44 L 4074.11,4613.8 L 4084.11,4619.57 L 4084.11,4631.12 L 3662.1,4874.76 Z " />
<path stroke="transparent" fill="#000000" transform="matrix(0.0833333 0 0 0.0833333 -249.208 -299)" d="M 4094.11,4613.8 L 4084.11,4619.57 L 4074.11,4613.8 L 4074.11,4025.37 L 4084.11,4019.59 L 4094.11,4025.37 L 4094.11,4613.8 Z " />
<path stroke="transparent" fill="#000000" transform="matrix(0.0833333 0 0 0.0833333 -249.208 -299)" d="M 4084.11,4631.12 L 4084.11,4619.57 L 4094.11,4613.8 L 4603.66,4908.02 L 4603.66,4931.11 L 4084.11,4631.12 Z " />
<path stroke="transparent" fill="#000000" transform="matrix(0.0833333 0 0 0.0833333 -249.208 -299)" d="M 4151.11,4586.67 L 4161.11,4569.35 L 4608.67,4827.77 L 4598.66,4845.1 L 4151.11,4586.67 Z " />
<path stroke="transparent" fill="#000000" transform="matrix(0.0833333 0 0 0.0833333 -249.208 -299)" d="M 4603.66,4931.11 L 4603.66,4908.02 L 5113.28,4613.8 L 5133.28,4625.35 L 4603.66,4931.11 Z " />
<path stroke="transparent" fill="#000000" transform="matrix(0.0833333 0 0 0.0833333 -249.208 -299)" d="M 5133.28,4625.35 L 5113.28,4613.8 L 5113.28,4025.37 L 5123.28,4019.59 L 5133.28,4025.37 L 5133.28,4625.35 Z " />
<path stroke="transparent" fill="#000000" transform="matrix(0.0833333 0 0 0.0833333 -249.208 -299)" d="M 5061.29,4578.01 L 5041.29,4578.01 L 5041.29,4061.16 L 5061.29,4061.16 L 5061.29,4578.01 Z " />
<path stroke="transparent" fill="#000000" transform="matrix(0.0833333 0 0 0.0833333 -249.208 -299)" d="M 7114.08,3957.45 L 7104.08,3974.77 L 6682.15,3731.15 L 6682.15,3708.05 L 7114.08,3957.45 Z " />
<path stroke="transparent" fill="#000000" transform="matrix(0.0833333 0 0 0.0833333 -249.208 -299)" d="M 6682.15,3708.05 L 6682.15,3731.15 L 6162.53,4031.14 L 6162.53,4008.05 L 6682.15,3708.05 Z " />
<path stroke="transparent" fill="#000000" transform="matrix(0.0833333 0 0 0.0833333 -249.208 -299)" d="M 6162.53,4008.05 L 6162.53,4031.14 L 5642.9,3731.15 L 5642.9,3708.05 L 6162.53,4008.05 Z " />
<path stroke="transparent" fill="#000000" transform="matrix(0.0833333 0 0 0.0833333 -249.208 -299)" d="M 5642.9,3708.05 L 5642.9,3731.15 L 5133.28,4025.37 L 5123.28,4019.59 L 5123.28,4008.05 L 5642.9,3708.05 Z " />
<path stroke="transparent" fill="#000000" transform="matrix(0.0833333 0 0 0.0833333 -249.208 -299)" d="M 5123.28,4008.05 L 5123.28,4019.59 L 5113.28,4025.37 L 4603.66,3731.15 L 4603.66,3708.05 L 5123.28,4008.05 Z " />
<path stroke="transparent" fill="#000000" transform="matrix(0.0833333 0 0 0.0833333 -249.208 -299)" d="M 4603.66,3708.05 L 4603.66,3731.15 L 4094.11,4025.37 L 4084.11,4019.59 L 4084.11,4008.04 L 4603.66,3708.05 Z " />
<path stroke="transparent" fill="#000000" transform="matrix(0.0833333 0 0 0.0833333 -249.208 -299)" d="M 4598.66,3794.07 L 4608.67,3811.39 L 4161.11,4069.81 L 4151.11,4052.49 L 4598.66,3794.07 Z " />
<path stroke="transparent" fill="#000000" transform="matrix(0.0833333 0 0 0.0833333 -249.208 -299)" d="M 4084.11,4008.04 L 4084.11,4019.59 L 4074.11,4025.37 L 3659.53,3786.02 L 3669.53,3768.7 L 4084.11,4008.04 Z " />
<path stroke="transparent" fill="#000000" transform="matrix(0.0833333 0 0 0.0833333 -249.208 -299)" d="M 3459.89,3768.45 L 3469.89,3785.77 L 3049.87,4028.25 L 3039.87,4010.93 L 3459.89,3768.45 Z " />
<text x="0" y="0" stroke="transparent" fill="#000000" transform="matrix(0.0833333 0 0 0.0833333 29.2966 117.464)" style="font:normal normal normal 200px 'Arial'" >
HO</text>
<text x="0" y="0" stroke="transparent" fill="#000000" transform="matrix(0.0833333 0 0 0.0833333 344.433 42.466)" style="font:normal normal normal 200px 'Arial'" >
OH</text>
<text x="0" y="0" stroke="transparent" fill="#000000" transform="matrix(0.0833333 0 0 0.0833333 41.3327 17.4668)" style="font:normal normal normal 200px 'Arial'" >
O</text>
</svg>
