<?xml version="1.0" standalone="no" ?>
<!DOCTYPE svg PUBLIC "-//W3C//DTD SVG 1.1//EN" "http://www.w3.org/Graphics/SVG/1.1/DTD/svg11.dtd">
<svg width="180px" height="139px" viewBox="0 0 180 139" style="background-color: #ffffff00" xmlns="http://www.w3.org/2000/svg" xmlns:xlink="http://www.w3.org/1999/xlink" version="1.1" >
<text x="0" y="0" stroke="transparent" fill="#000000" transform="matrix(0.0666667 0 0 0.0666667 56.8347 108.042)" style="font:normal normal normal 200px 'Arial'" >
N</text>
<text x="0" y="0" stroke="transparent" fill="#000000" transform="matrix(0.0666667 0 0 0.0666667 56.8347 119.164)" style="font:normal normal normal 200px 'Arial'" >
H</text>
<text x="0" y="0" stroke="transparent" fill="#000000" transform="matrix(0.0666667 0 0 0.0666667 156.571 70.1302)" style="font:normal normal normal 200px 'Arial'" >
OH</text>
<text x="0" y="0" stroke="transparent" fill="#000000" transform="matrix(0.0666667 0 0 0.0666667 135.159 136.014)" style="font:normal normal normal 200px 'Arial'" >
O</text>
<text x="0" y="0" stroke="transparent" fill="#000000" transform="matrix(0.0666667 0 0 0.0666667 3.29373 14.1302)" style="font:normal normal normal 200px 'Arial'" >
HO</text>
<path stroke="transparent" fill="#000000" transform="matrix(0.0666667 0 0 0.0666667 -258.853 -340)" d="M 5100.05,5729.29 L 5114.58,5709.29 L 5304.54,6293.77 L 5281.02,6286.13 L 5100.05,5729.29 Z " />
<path stroke="transparent" fill="#000000" transform="matrix(0.0666667 0 0 0.0666667 -258.853 -340)" d="M 4912.09,6578.88 L 4900.34,6562.7 L 5281.02,6286.13 L 5304.54,6293.77 L 4912.09,6578.88 Z " />
<path stroke="transparent" fill="#000000" transform="matrix(0.0666667 0 0 0.0666667 -258.853 -340)" d="M 5830.62,6401.6 L 5793.54,6515.73 L 5775.15,6507.62 L 5810.97,6397.36 L 5830.62,6401.6 Z " />
<path stroke="transparent" fill="#000000" transform="matrix(0.0666667 0 0 0.0666667 -258.853 -340)" d="M 5772.65,6389.07 L 5739.28,6491.8 L 5720.89,6483.68 L 5753,6384.83 L 5772.65,6389.07 Z " />
<path stroke="transparent" fill="#000000" transform="matrix(0.0666667 0 0 0.0666667 -258.853 -340)" d="M 5714.68,6376.55 L 5685.02,6467.86 L 5666.62,6459.75 L 5695.04,6372.3 L 5714.68,6376.55 Z " />
<path stroke="transparent" fill="#000000" transform="matrix(0.0666667 0 0 0.0666667 -258.853 -340)" d="M 5656.72,6364.02 L 5630.75,6443.93 L 5612.36,6435.82 L 5637.07,6359.77 L 5656.72,6364.02 Z " />
<path stroke="transparent" fill="#000000" transform="matrix(0.0666667 0 0 0.0666667 -258.853 -340)" d="M 5598.75,6351.49 L 5576.49,6420 L 5558.1,6411.88 L 5579.1,6347.24 L 5598.75,6351.49 Z " />
<path stroke="transparent" fill="#000000" transform="matrix(0.0666667 0 0 0.0666667 -258.853 -340)" d="M 5540.78,6338.96 L 5522.23,6396.06 L 5503.84,6387.95 L 5521.13,6334.71 L 5540.78,6338.96 Z " />
<path stroke="transparent" fill="#000000" transform="matrix(0.0666667 0 0 0.0666667 -258.853 -340)" d="M 5482.81,6326.43 L 5467.97,6372.13 L 5449.57,6364.02 L 5463.16,6322.19 L 5482.81,6326.43 Z " />
<path stroke="transparent" fill="#000000" transform="matrix(0.0666667 0 0 0.0666667 -258.853 -340)" d="M 5424.85,6313.9 L 5413.71,6348.2 L 5395.31,6340.08 L 5405.2,6309.66 L 5424.85,6313.9 Z " />
<path stroke="transparent" fill="#000000" transform="matrix(0.0666667 0 0 0.0666667 -258.853 -340)" d="M 5366.88,6301.38 L 5359.44,6324.26 L 5341.05,6316.15 L 5347.23,6297.13 L 5366.88,6301.38 Z " />
<path stroke="transparent" fill="#000000" transform="matrix(0.0666667 0 0 0.0666667 -258.853 -340)" d="M 4514.59,5729.29 L 4500.05,5709.29 L 5114.58,5709.29 L 5100.05,5729.29 L 4514.59,5729.29 Z " />
<path stroke="transparent" fill="#000000" transform="matrix(0.0666667 0 0 0.0666667 -258.853 -340)" d="M 4310.16,6293.77 L 4333.68,6286.13 L 4714.31,6562.69 L 4702.55,6578.87 L 4310.16,6293.77 Z " />
<path stroke="transparent" fill="#000000" transform="matrix(0.0666667 0 0 0.0666667 -258.853 -340)" d="M 6215.02,6145.42 L 6228.4,6160.29 L 5870.13,6482.79 L 5856.75,6467.92 L 6215.02,6145.42 Z " />
<path stroke="transparent" fill="#000000" transform="matrix(0.0666667 0 0 0.0666667 -258.853 -340)" d="M 6011.19,6949.22 L 5991.63,6953.38 L 5884.55,6449.62 L 5904.11,6445.47 L 6011.19,6949.22 Z " />
<path stroke="transparent" fill="#000000" transform="matrix(0.0666667 0 0 0.0666667 -258.853 -340)" d="M 5940.77,6964.19 L 5921.2,6968.35 L 5814.13,6464.59 L 5833.69,6460.43 L 5940.77,6964.19 Z " />
<path stroke="transparent" fill="#000000" transform="matrix(0.0666667 0 0 0.0666667 -258.853 -340)" d="M 4176.93,5366.69 L 4274.01,5296.15 L 4283.86,5313.71 L 4190.59,5381.49 L 4176.93,5366.69 Z " />
<path stroke="transparent" fill="#000000" transform="matrix(0.0666667 0 0 0.0666667 -258.853 -340)" d="M 4216.48,5409.54 L 4302.54,5347 L 4312.4,5364.57 L 4230.14,5424.34 L 4216.48,5409.54 Z " />
<path stroke="transparent" fill="#000000" transform="matrix(0.0666667 0 0 0.0666667 -258.853 -340)" d="M 4256.03,5452.39 L 4331.08,5397.86 L 4340.94,5415.42 L 4269.69,5467.19 L 4256.03,5452.39 Z " />
<path stroke="transparent" fill="#000000" transform="matrix(0.0666667 0 0 0.0666667 -258.853 -340)" d="M 4295.59,5495.24 L 4359.62,5448.71 L 4369.48,5466.27 L 4309.25,5510.04 L 4295.59,5495.24 Z " />
<path stroke="transparent" fill="#000000" transform="matrix(0.0666667 0 0 0.0666667 -258.853 -340)" d="M 4335.14,5538.1 L 4388.16,5499.57 L 4398.02,5517.13 L 4348.8,5552.89 L 4335.14,5538.1 Z " />
<path stroke="transparent" fill="#000000" transform="matrix(0.0666667 0 0 0.0666667 -258.853 -340)" d="M 4374.69,5580.95 L 4416.7,5550.42 L 4426.56,5567.98 L 4388.35,5595.74 L 4374.69,5580.95 Z " />
<path stroke="transparent" fill="#000000" transform="matrix(0.0666667 0 0 0.0666667 -258.853 -340)" d="M 4414.24,5623.8 L 4445.24,5601.27 L 4455.1,5618.83 L 4427.9,5638.59 L 4414.24,5623.8 Z " />
<path stroke="transparent" fill="#000000" transform="matrix(0.0666667 0 0 0.0666667 -258.853 -340)" d="M 4453.8,5666.65 L 4473.78,5652.13 L 4483.63,5669.69 L 4467.46,5681.44 L 4453.8,5666.65 Z " />
<path stroke="transparent" fill="#000000" transform="matrix(0.0666667 0 0 0.0666667 -258.853 -340)" d="M 4333.68,6286.13 L 4310.16,6293.77 L 4500.05,5709.29 L 4514.59,5729.29 L 4333.68,6286.13 Z " />
</svg>
