<?xml version="1.0"?><svg xmlns="http://www.w3.org/2000/svg" xmlns:xlink="http://www.w3.org/1999/xlink" viewBox="33.38 265.17 456.56 83.53" preserveAspectRatio="xMidYMid" width="100%" height="100%"><clipPath id="50"><rect x="0.5" y="0.5" width="522.32" height="768.92" /></clipPath><g id="drawing"><rect x="33.38" y="265.17" width="100%" height="100%" fill="rgb(255, 255, 255)" /><g id="page" clip-path="url(#50)"><g><text xml:space="preserve" text-anchor="start" text-rendering="geometricPrecision"><tspan x="482.19" y="303.57" font-family="Arial" font-size="10" fill="rgb(0, 0, 0)">O</tspan></text></g><g><text xml:space="preserve" text-anchor="start" text-rendering="geometricPrecision"><tspan x="456.21" y="348.58" font-family="Arial" font-size="10" fill="rgb(0, 0, 0)">OH</tspan></text></g><g><text xml:space="preserve" text-anchor="start" text-rendering="geometricPrecision"><tspan x="66.49" y="273.57" font-family="Arial" font-size="10" fill="rgb(0, 0, 0)">O</tspan></text></g><g><text xml:space="preserve" text-anchor="end" text-rendering="geometricPrecision"><tspan x="48.33" y="318.58" font-family="Arial" font-size="10" fill="rgb(0, 0, 0)">HO</tspan></text></g><g id="Solid"><path d="M329.71 269.9 L329.71 269.9 L330.21 269.9 L330.71 269.9 L330.71 299.61 L330.21 299.9 L329.71 299.61 Z" stroke="rgb(0, 0, 0)" stroke-width="0" fill-rule="evenodd" stroke-linejoin="miter" fill="rgb(0, 0, 0)" shape-rendering="geometricPrecision" /></g><g id="Solid"><path d="M330.21 300.48 L330.21 300.48 L330.21 299.9 L330.71 299.61 L356.19 314.32 L356.19 314.9 L356.19 315.48 Z" stroke="rgb(0, 0, 0)" stroke-width="0" fill-rule="evenodd" stroke-linejoin="miter" fill="rgb(0, 0, 0)" shape-rendering="geometricPrecision" /></g><g id="Solid"><path d="M356.19 315.48 L356.19 315.48 L356.19 314.9 L356.19 314.32 L382.18 299.32 L382.18 299.9 L382.18 300.48 Z" stroke="rgb(0, 0, 0)" stroke-width="0" fill-rule="evenodd" stroke-linejoin="miter" fill="rgb(0, 0, 0)" shape-rendering="geometricPrecision" /><line x1="356.19" y1="310.74" x2="380.38" y2="296.78" stroke="rgb(0, 0, 0)" stroke-width="1" shape-rendering="auto" /></g><g id="Solid"><path d="M382.18 300.48 L382.18 300.48 L382.18 299.9 L382.18 299.32 L408.16 314.32 L408.16 314.9 L408.16 315.48 Z" stroke="rgb(0, 0, 0)" stroke-width="0" fill-rule="evenodd" stroke-linejoin="miter" fill="rgb(0, 0, 0)" shape-rendering="geometricPrecision" /></g><g id="Solid"><path d="M408.16 315.48 L408.16 315.48 L408.16 314.9 L408.16 314.32 L433.64 299.61 L434.14 299.9 L434.14 300.48 Z" stroke="rgb(0, 0, 0)" stroke-width="0" fill-rule="evenodd" stroke-linejoin="miter" fill="rgb(0, 0, 0)" shape-rendering="geometricPrecision" /><line x1="408.16" y1="310.74" x2="430.54" y2="297.82" stroke="rgb(0, 0, 0)" stroke-width="1" shape-rendering="auto" /></g><g id="Solid"><path d="M434.64 299.61 L434.64 299.61 L434.14 299.9 L433.64 299.61 L433.64 269.9 L434.14 269.9 L434.64 269.9 Z" stroke="rgb(0, 0, 0)" stroke-width="0" fill-rule="evenodd" stroke-linejoin="miter" fill="rgb(0, 0, 0)" shape-rendering="geometricPrecision" /></g><g id="Solid"><path d="M434.14 300.48 L434.14 300.48 L434.14 299.9 L434.64 299.61 L460.62 314.61 L460.12 314.9 L459.62 315.19 Z" stroke="rgb(0, 0, 0)" stroke-width="0" fill-rule="evenodd" stroke-linejoin="miter" fill="rgb(0, 0, 0)" shape-rendering="geometricPrecision" /></g><g id="Solid"><line x1="459.22" y1="313.34" x2="480.07" y2="301.3" stroke="rgb(0, 0, 0)" stroke-width="1" shape-rendering="auto" /><path d="M460.62 316.11 L460.62 316.11 L460.62 317.27 L482.12 304.85 L481.62 303.99 Z" stroke="rgb(0, 0, 0)" stroke-width="0" fill-rule="evenodd" stroke-linejoin="miter" fill="rgb(0, 0, 0)" shape-rendering="geometricPrecision" /><path d="M458.32 313.28 L458.32 313.28 L459.32 313.86 L480.32 301.74 L479.82 300.87 Z" stroke="rgb(0, 0, 0)" stroke-width="0" fill-rule="evenodd" stroke-linejoin="miter" fill="rgb(0, 0, 0)" shape-rendering="geometricPrecision" /></g><g id="Solid"><path d="M459.62 315.19 L459.62 315.19 L460.12 314.9 L460.62 314.61 L460.62 339.4 L460.12 339.4 L459.62 339.4 Z" stroke="rgb(0, 0, 0)" stroke-width="0" fill-rule="evenodd" stroke-linejoin="miter" fill="rgb(0, 0, 0)" shape-rendering="geometricPrecision" /></g><g id="Solid"><path d="M329.71 299.61 L329.71 299.61 L330.21 299.9 L330.21 300.48 L304.23 315.48 L304.23 314.9 L304.23 314.32 Z" stroke="rgb(0, 0, 0)" stroke-width="0" fill-rule="evenodd" stroke-linejoin="miter" fill="rgb(0, 0, 0)" shape-rendering="geometricPrecision" /><line x1="326.61" y1="297.82" x2="304.23" y2="310.74" stroke="rgb(0, 0, 0)" stroke-width="1" shape-rendering="auto" /></g><g id="Solid"><path d="M304.23 314.32 L304.23 314.32 L304.23 314.9 L304.23 315.48 L278.25 300.48 L278.25 299.9 L278.25 299.32 Z" stroke="rgb(0, 0, 0)" stroke-width="0" fill-rule="evenodd" stroke-linejoin="miter" fill="rgb(0, 0, 0)" shape-rendering="geometricPrecision" /></g><g id="Solid"><path d="M278.25 299.32 L278.25 299.32 L278.25 299.9 L278.25 300.48 L252.27 315.48 L252.27 314.9 L252.27 314.32 Z" stroke="rgb(0, 0, 0)" stroke-width="0" fill-rule="evenodd" stroke-linejoin="miter" fill="rgb(0, 0, 0)" shape-rendering="geometricPrecision" /><line x1="278.25" y1="304.06" x2="254.07" y2="318.02" stroke="rgb(0, 0, 0)" stroke-width="1" shape-rendering="auto" /></g><g id="Solid"><path d="M252.27 314.32 L252.27 314.32 L252.27 314.9 L252.27 315.48 L226.29 300.48 L226.29 299.9 L226.29 299.32 Z" stroke="rgb(0, 0, 0)" stroke-width="0" fill-rule="evenodd" stroke-linejoin="miter" fill="rgb(0, 0, 0)" shape-rendering="geometricPrecision" /></g><g id="Solid"><path d="M226.29 299.32 L226.29 299.32 L226.29 299.9 L226.29 300.48 L200.81 315.19 L200.31 314.9 L200.31 314.32 Z" stroke="rgb(0, 0, 0)" stroke-width="0" fill-rule="evenodd" stroke-linejoin="miter" fill="rgb(0, 0, 0)" shape-rendering="geometricPrecision" /><line x1="226.29" y1="304.06" x2="203.91" y2="316.98" stroke="rgb(0, 0, 0)" stroke-width="1" shape-rendering="auto" /></g><g id="Solid"><path d="M199.81 315.19 L199.81 315.19 L200.31 314.9 L200.81 315.19 L200.81 344.9 L200.31 344.9 L199.81 344.9 Z" stroke="rgb(0, 0, 0)" stroke-width="0" fill-rule="evenodd" stroke-linejoin="miter" fill="rgb(0, 0, 0)" shape-rendering="geometricPrecision" /></g><g id="Solid"><path d="M200.31 314.32 L200.31 314.32 L200.31 314.9 L199.81 315.19 L174.32 300.48 L174.32 299.9 L174.32 299.32 Z" stroke="rgb(0, 0, 0)" stroke-width="0" fill-rule="evenodd" stroke-linejoin="miter" fill="rgb(0, 0, 0)" shape-rendering="geometricPrecision" /></g><g id="Solid"><path d="M174.32 299.32 L174.32 299.32 L174.32 299.9 L174.32 300.48 L148.34 315.48 L148.34 314.9 L148.34 314.32 Z" stroke="rgb(0, 0, 0)" stroke-width="0" fill-rule="evenodd" stroke-linejoin="miter" fill="rgb(0, 0, 0)" shape-rendering="geometricPrecision" /><line x1="174.32" y1="304.06" x2="150.14" y2="318.02" stroke="rgb(0, 0, 0)" stroke-width="1" shape-rendering="auto" /></g><g id="Solid"><path d="M148.34 314.32 L148.34 314.32 L148.34 314.9 L148.34 315.48 L122.36 300.48 L122.36 299.9 L122.36 299.32 Z" stroke="rgb(0, 0, 0)" stroke-width="0" fill-rule="evenodd" stroke-linejoin="miter" fill="rgb(0, 0, 0)" shape-rendering="geometricPrecision" /></g><g id="Solid"><path d="M122.36 299.32 L122.36 299.32 L122.36 299.9 L122.36 300.48 L96.88 315.19 L96.38 314.9 L96.38 314.32 Z" stroke="rgb(0, 0, 0)" stroke-width="0" fill-rule="evenodd" stroke-linejoin="miter" fill="rgb(0, 0, 0)" shape-rendering="geometricPrecision" /><line x1="122.36" y1="304.06" x2="99.98" y2="316.98" stroke="rgb(0, 0, 0)" stroke-width="1" shape-rendering="auto" /></g><g id="Solid"><path d="M95.88 315.19 L95.88 315.19 L96.38 314.9 L96.88 315.19 L96.88 344.9 L96.38 344.9 L95.88 344.9 Z" stroke="rgb(0, 0, 0)" stroke-width="0" fill-rule="evenodd" stroke-linejoin="miter" fill="rgb(0, 0, 0)" shape-rendering="geometricPrecision" /></g><g id="Solid"><path d="M96.38 314.32 L96.38 314.32 L96.38 314.9 L95.88 315.19 L70.4 300.48 L70.4 299.9 L70.4 299.32 Z" stroke="rgb(0, 0, 0)" stroke-width="0" fill-rule="evenodd" stroke-linejoin="miter" fill="rgb(0, 0, 0)" shape-rendering="geometricPrecision" /></g><g id="Solid"><line x1="68.6" y1="299.9" x2="68.6" y2="275.7" stroke="rgb(0, 0, 0)" stroke-width="1" shape-rendering="auto" /><path d="M71.7 300.07 L71.7 300.07 L72.7 300.65 L72.7 275.7 L71.7 275.7 Z" stroke="rgb(0, 0, 0)" stroke-width="0" fill-rule="evenodd" stroke-linejoin="miter" fill="rgb(0, 0, 0)" shape-rendering="geometricPrecision" /><path d="M68.1 300.65 L68.1 300.65 L69.1 300.07 L69.1 275.7 L68.1 275.7 Z" stroke="rgb(0, 0, 0)" stroke-width="0" fill-rule="evenodd" stroke-linejoin="miter" fill="rgb(0, 0, 0)" shape-rendering="geometricPrecision" /></g><g id="Solid"><path d="M70.4 299.32 L70.4 299.32 L70.4 299.9 L70.4 300.48 L49.68 312.44 L49.43 312.01 L49.18 311.57 Z" stroke="rgb(0, 0, 0)" stroke-width="0" fill-rule="evenodd" stroke-linejoin="miter" fill="rgb(0, 0, 0)" shape-rendering="geometricPrecision" /></g></g></g></svg>