<?xml version="1.0" standalone="no" ?>
<!DOCTYPE svg PUBLIC "-//W3C//DTD SVG 1.1//EN" "http://www.w3.org/Graphics/SVG/1.1/DTD/svg11.dtd">
<svg width="545px" height="291px" viewBox="0 0 545 291" style="background-color: #ffffff00" xmlns="http://www.w3.org/2000/svg" xmlns:xlink="http://www.w3.org/1999/xlink" version="1.1" >
<text x="0" y="0" stroke="transparent" fill="#000000" transform="matrix(0.0833333 0 0 0.0833333 275.989 243.869)" style="font:normal normal normal 200px 'Arial'" >
O</text>
<text x="0" y="0" stroke="transparent" fill="#000000" transform="matrix(0.0833333 0 0 0.0833333 236.842 100.62)" style="font:normal normal normal 200px 'Arial'" >
O</text>
<text x="0" y="0" stroke="transparent" fill="#000000" transform="matrix(0.0833333 0 0 0.0833333 363.229 143.925)" style="font:normal normal normal 200px 'Arial'" >
O</text>
<text x="0" y="0" stroke="transparent" fill="#000000" transform="matrix(0.0833333 0 0 0.0833333 134.232 68.3461)" style="font:normal normal normal 200px 'Arial'" >
HO</text>
<text x="0" y="0" stroke="transparent" fill="#000000" transform="matrix(0.0833333 0 0 0.0833333 233.302 18.1681)" style="font:normal normal normal 200px 'Arial'" >
OH</text>
<text x="0" y="0" stroke="transparent" fill="#000000" transform="matrix(0.0833333 0 0 0.0833333 360.726 94.1655)" style="font:normal normal normal 200px 'Arial'" >
O</text>
<text x="0" y="0" stroke="transparent" fill="#000000" transform="matrix(0.0833333 0 0 0.0833333 318.876 19.2105)" style="font:normal normal normal 200px 'Arial'" >
O</text>
<text x="0" y="0" stroke="transparent" fill="#000000" transform="matrix(0.0833333 0 0 0.0833333 363.229 243.869)" style="font:normal normal normal 200px 'Arial'" >
O</text>
<text x="0" y="0" stroke="transparent" fill="#000000" transform="matrix(0.0833333 0 0 0.0833333 405.91 219.505)" style="font:normal normal normal 200px 'Arial'" >
O</text>
<text x="0" y="0" stroke="transparent" fill="#000000" transform="matrix(0.0833333 0 0 0.0833333 16.1348 143.925)" style="font:normal normal normal 200px 'Arial'" >
O</text>
<text x="0" y="0" stroke="transparent" fill="#000000" transform="matrix(0.0833333 0 0 0.0833333 4.09863 243.869)" style="font:normal normal normal 200px 'Arial'" >
HO</text>
<text x="0" y="0" stroke="transparent" fill="#000000" transform="matrix(0.0833333 0 0 0.0833333 328.534 115.615)" style="font:normal normal normal 200px 'Arial'" >
H</text>
<text x="0" y="0" stroke="transparent" fill="#000000" transform="matrix(0.0833333 0 0 0.0833333 190.491 196.4)" style="font:normal normal normal 200px 'Arial'" >
H</text>
<text x="0" y="0" stroke="transparent" fill="#000000" transform="matrix(0.0833333 0 0 0.0833333 234.22 270.313)" style="font:normal normal normal 200px 'Arial'" >
H</text>
<text x="0" y="0" stroke="transparent" fill="#000000" transform="matrix(0.0833333 0 0 0.0833333 146.138 266.985)" style="font:normal normal normal 200px 'Arial'" >
H</text>
<path stroke="transparent" fill="#000000" transform="matrix(0.0833333 0 0 0.0833333 -163.208 -214)" d="M 5338.37,4203.95 L 5348.37,4209.69 L 5348.43,4221.24 L 4846.13,4515.22 L 4836.13,4509.48 L 4843.37,4493.66 L 5338.37,4203.95 Z " />
<path stroke="transparent" fill="#000000" transform="matrix(0.0833333 0 0 0.0833333 -163.208 -214)" d="M 4316.37,4221.22 L 4316.39,4209.69 L 4326.39,4203.91 L 4815.79,4486.21 L 4836.13,4509.48 L 4826.13,4515.26 L 4316.37,4221.22 Z " />
<path stroke="transparent" fill="#000000" transform="matrix(0.0833333 0 0 0.0833333 -163.208 -214)" d="M 4846.13,5110.9 L 4836.13,5116.64 L 4826.13,5110.86 L 4826.13,4515.26 L 4836.13,4509.48 L 4846.13,4515.22 L 4846.13,5110.9 Z " />
<path stroke="transparent" fill="#000000" transform="matrix(0.0833333 0 0 0.0833333 -163.208 -214)" d="M 4663.65,4116.72 L 4750.88,3983.04 L 4843.37,4493.66 L 4836.13,4509.48 L 4815.79,4486.21 L 4663.65,4116.72 Z " />
<path stroke="transparent" fill="#000000" transform="matrix(0.0833333 0 0 0.0833333 -163.208 -214)" d="M 5338.37,3619.57 L 5348.37,3607.48 L 5358.37,3601.72 L 5358.37,4191.34 L 5348.37,4209.69 L 5338.37,4203.95 L 5338.37,3619.57 Z " />
<path stroke="transparent" fill="#000000" transform="matrix(0.0833333 0 0 0.0833333 -163.208 -214)" d="M 5872.54,4497.67 L 5873.05,4509.48 L 5863.05,4515.28 L 5348.43,4221.24 L 5348.37,4209.69 L 5370.76,4210.96 L 5872.54,4497.67 Z " />
<path stroke="transparent" fill="#000000" transform="matrix(0.0833333 0 0 0.0833333 -163.208 -214)" d="M 5834.48,3883.07 L 5890.84,3989.01 L 5370.76,4210.96 L 5348.37,4209.69 L 5358.37,4191.34 L 5834.48,3883.07 Z " />
<path stroke="transparent" fill="#000000" transform="matrix(0.0833333 0 0 0.0833333 -163.208 -214)" d="M 3801.72,4515.28 L 3791.72,4509.48 L 3802.76,4491.66 L 4306.39,4203.88 L 4316.39,4209.69 L 4316.37,4221.22 L 3801.72,4515.28 Z " />
<path stroke="transparent" fill="#000000" transform="matrix(0.0833333 0 0 0.0833333 -163.208 -214)" d="M 4306.39,3613.95 L 4316.39,3607.48 L 4326.39,3613.28 L 4326.39,4203.91 L 4316.39,4209.69 L 4306.39,4203.88 L 4306.39,3613.95 Z " />
<path stroke="transparent" fill="#000000" transform="matrix(0.0833333 0 0 0.0833333 -163.208 -214)" d="M 4376.39,4744.14 L 4256.39,4744.14 L 4258.48,4724.14 L 4374.31,4724.14 L 4376.39,4744.14 Z " />
<path stroke="transparent" fill="#000000" transform="matrix(0.0833333 0 0 0.0833333 -163.208 -214)" d="M 4370.4,4686.59 L 4262.38,4686.59 L 4264.47,4666.59 L 4368.32,4666.59 L 4370.4,4686.59 Z " />
<path stroke="transparent" fill="#000000" transform="matrix(0.0833333 0 0 0.0833333 -163.208 -214)" d="M 4364.41,4629.04 L 4268.37,4629.04 L 4270.46,4609.04 L 4362.33,4609.04 L 4364.41,4629.04 Z " />
<path stroke="transparent" fill="#000000" transform="matrix(0.0833333 0 0 0.0833333 -163.208 -214)" d="M 4358.42,4571.49 L 4274.36,4571.49 L 4276.45,4551.49 L 4356.34,4551.49 L 4358.42,4571.49 Z " />
<path stroke="transparent" fill="#000000" transform="matrix(0.0833333 0 0 0.0833333 -163.208 -214)" d="M 4352.43,4513.94 L 4280.35,4513.94 L 4282.43,4493.94 L 4350.35,4493.94 L 4352.43,4513.94 Z " />
<path stroke="transparent" fill="#000000" transform="matrix(0.0833333 0 0 0.0833333 -163.208 -214)" d="M 4346.45,4456.38 L 4286.34,4456.38 L 4288.42,4436.38 L 4344.36,4436.38 L 4346.45,4456.38 Z " />
<path stroke="transparent" fill="#000000" transform="matrix(0.0833333 0 0 0.0833333 -163.208 -214)" d="M 4340.46,4398.83 L 4292.33,4398.83 L 4294.41,4378.83 L 4338.37,4378.83 L 4340.46,4398.83 Z " />
<path stroke="transparent" fill="#000000" transform="matrix(0.0833333 0 0 0.0833333 -163.208 -214)" d="M 4334.47,4341.28 L 4298.32,4341.28 L 4300.4,4321.28 L 4332.38,4321.28 L 4334.47,4341.28 Z " />
<path stroke="transparent" fill="#000000" transform="matrix(0.0833333 0 0 0.0833333 -163.208 -214)" d="M 4328.48,4283.73 L 4304.31,4283.73 L 4306.39,4263.73 L 4326.39,4263.73 L 4328.48,4283.73 Z " />
<path stroke="transparent" fill="#000000" transform="matrix(0.0833333 0 0 0.0833333 -163.208 -214)" d="M 4316.42,5427.96 L 4316.37,5404.9 L 4826.13,5110.86 L 4836.13,5116.64 L 4824.51,5134.88 L 4316.42,5427.96 Z " />
<path stroke="transparent" fill="#000000" transform="matrix(0.0833333 0 0 0.0833333 -163.208 -214)" d="M 5261.11,5353.78 L 5251.01,5371.04 L 4848.09,5135.23 L 4836.13,5116.64 L 4846.13,5110.9 L 5261.11,5353.78 Z " />
<path stroke="transparent" fill="#000000" transform="matrix(0.0833333 0 0 0.0833333 -163.208 -214)" d="M 4900.31,5630.61 L 4780.31,5631.58 L 4824.51,5134.88 L 4836.13,5116.64 L 4848.09,5135.23 L 4900.31,5630.61 Z " />
<path stroke="transparent" fill="#000000" transform="matrix(0.0833333 0 0 0.0833333 -163.208 -214)" d="M 4816.55,3802.2 L 4834.54,3810.95 L 4750.88,3983.04 L 4663.65,4116.72 L 4816.55,3802.2 Z " />
<path stroke="transparent" fill="#000000" transform="matrix(0.0833333 0 0 0.0833333 -163.208 -214)" d="M 4836.09,3321.69 L 4836.16,3298.61 L 5358.37,3601.72 L 5348.37,3607.48 L 5320.2,3602.69 L 4836.09,3321.69 Z " />
<path stroke="transparent" fill="#000000" transform="matrix(0.0833333 0 0 0.0833333 -163.208 -214)" d="M 5786.69,3296.32 L 5844.8,3401.32 L 5826.29,3409.18 L 5770.2,3307.83 L 5786.69,3296.32 Z " />
<path stroke="transparent" fill="#000000" transform="matrix(0.0833333 0 0 0.0833333 -163.208 -214)" d="M 5739.27,3329.42 L 5791.57,3423.93 L 5773.07,3431.79 L 5722.78,3340.92 L 5739.27,3329.42 Z " />
<path stroke="transparent" fill="#000000" transform="matrix(0.0833333 0 0 0.0833333 -163.208 -214)" d="M 5691.84,3362.51 L 5738.35,3446.54 L 5719.84,3454.4 L 5675.35,3374.01 L 5691.84,3362.51 Z " />
<path stroke="transparent" fill="#000000" transform="matrix(0.0833333 0 0 0.0833333 -163.208 -214)" d="M 5644.41,3395.6 L 5685.12,3469.15 L 5666.61,3477.01 L 5627.92,3407.11 L 5644.41,3395.6 Z " />
<path stroke="transparent" fill="#000000" transform="matrix(0.0833333 0 0 0.0833333 -163.208 -214)" d="M 5596.99,3428.69 L 5631.89,3491.76 L 5613.38,3499.62 L 5580.5,3440.2 L 5596.99,3428.69 Z " />
<path stroke="transparent" fill="#000000" transform="matrix(0.0833333 0 0 0.0833333 -163.208 -214)" d="M 5549.56,3461.79 L 5578.66,3514.37 L 5560.16,3522.24 L 5533.07,3473.29 L 5549.56,3461.79 Z " />
<path stroke="transparent" fill="#000000" transform="matrix(0.0833333 0 0 0.0833333 -163.208 -214)" d="M 5502.13,3494.88 L 5525.44,3536.98 L 5506.93,3544.85 L 5485.64,3506.38 L 5502.13,3494.88 Z " />
<path stroke="transparent" fill="#000000" transform="matrix(0.0833333 0 0 0.0833333 -163.208 -214)" d="M 5454.71,3527.97 L 5472.21,3559.6 L 5453.7,3567.46 L 5438.22,3539.48 L 5454.71,3527.97 Z " />
<path stroke="transparent" fill="#000000" transform="matrix(0.0833333 0 0 0.0833333 -163.208 -214)" d="M 5407.28,3561.06 L 5418.98,3582.21 L 5400.47,3590.07 L 5390.79,3572.57 L 5407.28,3561.06 Z " />
<path stroke="transparent" fill="#000000" transform="matrix(0.0833333 0 0 0.0833333 -163.208 -214)" d="M 4985.91,3687.07 L 4982.15,3667.43 L 5320.2,3602.69 L 5348.37,3607.48 L 5338.37,3619.57 L 4985.91,3687.07 Z " />
<path stroke="transparent" fill="#000000" transform="matrix(0.0833333 0 0 0.0833333 -163.208 -214)" d="M 5883.05,5122.44 L 5863.05,5110.83 L 5863.05,4515.28 L 5873.05,4509.48 L 5883.05,4516 L 5883.05,5122.44 Z " />
<path stroke="transparent" fill="#000000" transform="matrix(0.0833333 0 0 0.0833333 -163.208 -214)" d="M 6265.73,4220.86 L 6324.35,4325.56 L 5883.05,4516 L 5873.05,4509.48 L 5872.54,4497.67 L 6265.73,4220.86 Z " />
<path stroke="transparent" fill="#000000" transform="matrix(0.0833333 0 0 0.0833333 -163.208 -214)" d="M 3801.72,5110.83 L 3791.72,5116.64 L 3781.72,5110.85 L 3781.72,4515.27 L 3791.72,4509.48 L 3801.72,4515.28 L 3801.72,5110.83 Z " />
<path stroke="transparent" fill="#000000" transform="matrix(0.0833333 0 0 0.0833333 -163.208 -214)" d="M 3269.53,4221.23 L 3269.49,4198.14 L 3780.26,4491.38 L 3791.72,4509.48 L 3781.72,4515.27 L 3269.53,4221.23 Z " />
<path stroke="transparent" fill="#000000" transform="matrix(0.0833333 0 0 0.0833333 -163.208 -214)" d="M 3724.16,3788.04 L 3844.15,3786.78 L 3802.76,4491.66 L 3791.72,4509.48 L 3780.26,4491.38 L 3724.16,3788.04 L 3724.16,3788.04 Z " />
<path stroke="transparent" fill="#000000" transform="matrix(0.0833333 0 0 0.0833333 -163.208 -214)" d="M 3862.54,3419.25 L 3921.7,3314.85 L 4316.93,3595.65 L 4316.39,3607.48 L 4306.39,3613.95 L 3862.54,3419.25 Z " />
<path stroke="transparent" fill="#000000" transform="matrix(0.0833333 0 0 0.0833333 -163.208 -214)" d="M 4836.16,3298.61 L 4836.09,3321.69 L 4326.39,3613.28 L 4316.39,3607.48 L 4316.93,3595.65 L 4836.16,3298.61 Z " />
<path stroke="transparent" fill="#000000" transform="matrix(0.0833333 0 0 0.0833333 -163.208 -214)" d="M 3791.73,5128.16 L 3791.72,5116.64 L 3801.72,5110.83 L 4316.37,5404.9 L 4316.42,5427.96 L 3791.73,5128.16 Z " />
<path stroke="transparent" fill="#000000" transform="matrix(0.0833333 0 0 0.0833333 -163.208 -214)" d="M 5863.05,5110.83 L 5883.05,5122.44 L 5446.18,5372.06 L 5436.26,5354.7 L 5863.05,5110.83 Z " />
<path stroke="transparent" fill="#000000" transform="matrix(0.0833333 0 0 0.0833333 -163.208 -214)" d="M 4776.13,2827.85 L 4896.13,2827.85 L 4893.79,2847.85 L 4778.46,2847.85 L 4776.13,2827.85 Z " />
<path stroke="transparent" fill="#000000" transform="matrix(0.0833333 0 0 0.0833333 -163.208 -214)" d="M 4782.94,2886.17 L 4889.32,2886.17 L 4886.98,2906.17 L 4785.27,2906.17 L 4782.94,2886.17 Z " />
<path stroke="transparent" fill="#000000" transform="matrix(0.0833333 0 0 0.0833333 -163.208 -214)" d="M 4789.75,2944.5 L 4882.51,2944.5 L 4880.17,2964.5 L 4792.08,2964.5 L 4789.75,2944.5 Z " />
<path stroke="transparent" fill="#000000" transform="matrix(0.0833333 0 0 0.0833333 -163.208 -214)" d="M 4796.56,3002.82 L 4875.7,3002.82 L 4873.36,3022.82 L 4798.89,3022.82 L 4796.56,3002.82 Z " />
<path stroke="transparent" fill="#000000" transform="matrix(0.0833333 0 0 0.0833333 -163.208 -214)" d="M 4803.36,3061.15 L 4868.89,3061.15 L 4866.56,3081.15 L 4805.7,3081.15 L 4803.36,3061.15 Z " />
<path stroke="transparent" fill="#000000" transform="matrix(0.0833333 0 0 0.0833333 -163.208 -214)" d="M 4810.17,3119.47 L 4862.08,3119.47 L 4859.75,3139.47 L 4812.51,3139.47 L 4810.17,3119.47 Z " />
<path stroke="transparent" fill="#000000" transform="matrix(0.0833333 0 0 0.0833333 -163.208 -214)" d="M 4816.98,3177.8 L 4855.27,3177.8 L 4852.94,3197.8 L 4819.32,3197.8 L 4816.98,3177.8 Z " />
<path stroke="transparent" fill="#000000" transform="matrix(0.0833333 0 0 0.0833333 -163.208 -214)" d="M 4823.79,3236.12 L 4848.46,3236.12 L 4846.13,3256.12 L 4826.13,3256.12 L 4823.79,3236.12 Z " />
<path stroke="transparent" fill="#000000" transform="matrix(0.0833333 0 0 0.0833333 -163.208 -214)" d="M 6278.27,3556.89 L 6268.08,3574.1 L 5857.92,3331.27 L 5868.1,3314.06 L 6278.27,3556.89 Z " />
<path stroke="transparent" fill="#000000" transform="matrix(0.0833333 0 0 0.0833333 -163.208 -214)" d="M 5816.88,2840.36 L 5836.88,2840.36 L 5836.88,3342.66 L 5816.88,3342.66 L 5816.88,2840.36 Z " />
<path stroke="transparent" fill="#000000" transform="matrix(0.0833333 0 0 0.0833333 -163.208 -214)" d="M 5889.14,2840.36 L 5909.14,2840.36 L 5909.14,3344.05 L 5889.14,3344.05 L 5889.14,2840.36 Z " />
<path stroke="transparent" fill="#000000" transform="matrix(0.0833333 0 0 0.0833333 -163.208 -214)" d="M 6325.47,5323.18 L 6315.52,5340.53 L 5868.07,5083.65 L 5878.03,5066.3 L 6325.47,5323.18 Z " />
<path stroke="transparent" fill="#000000" transform="matrix(0.0833333 0 0 0.0833333 -163.208 -214)" d="M 6289.5,5385.85 L 6279.54,5403.19 L 5831.7,5146.09 L 5841.66,5128.74 L 6289.5,5385.85 Z " />
<path stroke="transparent" fill="#000000" transform="matrix(0.0833333 0 0 0.0833333 -163.208 -214)" d="M 6902.64,4522.85 L 6902.16,4546.15 L 6488.3,4287.14 L 6498.91,4270.18 L 6902.64,4522.85 Z " />
<path stroke="transparent" fill="#000000" transform="matrix(0.0833333 0 0 0.0833333 -163.208 -214)" d="M 3279.51,5422.22 L 3269.51,5416.43 L 3269.53,5404.89 L 3781.72,5110.85 L 3791.72,5116.64 L 3791.73,5128.16 L 3279.51,5422.22 Z " />
<path stroke="transparent" fill="#000000" transform="matrix(0.0833333 0 0 0.0833333 -163.208 -214)" d="M 3845.49,5591.96 L 3725.5,5590.39 L 3728.14,5570.42 L 3843.38,5571.93 L 3845.49,5591.96 Z " />
<path stroke="transparent" fill="#000000" transform="matrix(0.0833333 0 0 0.0833333 -163.208 -214)" d="M 3839.44,5534.66 L 3733.05,5533.27 L 3735.69,5513.3 L 3837.32,5514.63 L 3839.44,5534.66 Z " />
<path stroke="transparent" fill="#000000" transform="matrix(0.0833333 0 0 0.0833333 -163.208 -214)" d="M 3833.39,5477.36 L 3740.61,5476.14 L 3743.25,5456.18 L 3831.27,5457.33 L 3833.39,5477.36 Z " />
<path stroke="transparent" fill="#000000" transform="matrix(0.0833333 0 0 0.0833333 -163.208 -214)" d="M 3827.33,5420.06 L 3748.16,5419.02 L 3750.8,5399.05 L 3825.22,5400.03 L 3827.33,5420.06 Z " />
<path stroke="transparent" fill="#000000" transform="matrix(0.0833333 0 0 0.0833333 -163.208 -214)" d="M 3821.28,5362.76 L 3755.71,5361.9 L 3758.35,5341.93 L 3819.16,5342.73 L 3821.28,5362.76 Z " />
<path stroke="transparent" fill="#000000" transform="matrix(0.0833333 0 0 0.0833333 -163.208 -214)" d="M 3815.23,5305.46 L 3763.26,5304.78 L 3765.9,5284.81 L 3813.11,5285.43 L 3815.23,5305.46 Z " />
<path stroke="transparent" fill="#000000" transform="matrix(0.0833333 0 0 0.0833333 -163.208 -214)" d="M 3809.17,5248.16 L 3770.82,5247.66 L 3773.46,5227.69 L 3807.06,5228.13 L 3809.17,5248.16 Z " />
<path stroke="transparent" fill="#000000" transform="matrix(0.0833333 0 0 0.0833333 -163.208 -214)" d="M 3803.12,5190.86 L 3778.37,5190.53 L 3781.01,5170.57 L 3801.01,5170.83 L 3803.12,5190.86 Z " />
<path stroke="transparent" fill="#000000" transform="matrix(0.0833333 0 0 0.0833333 -163.208 -214)" d="M 2762.32,4515.24 L 2742.32,4503.72 L 3269.49,4198.14 L 3269.53,4221.23 L 2762.32,4515.24 Z " />
<path stroke="transparent" fill="#000000" transform="matrix(0.0833333 0 0 0.0833333 -163.208 -214)" d="M 6882.66,3328.85 L 6892.18,3346.44 L 6463.98,3577.96 L 6454.46,3560.36 L 6882.66,3328.85 Z " />
<path stroke="transparent" fill="#000000" transform="matrix(0.0833333 0 0 0.0833333 -163.208 -214)" d="M 7419.86,4228.03 L 7419.46,4251.28 L 6902.16,4546.15 L 6902.64,4522.85 L 7419.86,4228.03 Z " />
<path stroke="transparent" fill="#000000" transform="matrix(0.0833333 0 0 0.0833333 -163.208 -214)" d="M 6951.9,5018.51 L 6931.9,5018.68 L 6927.61,4514.52 L 6947.61,4514.35 L 6951.9,5018.51 Z " />
<path stroke="transparent" fill="#000000" transform="matrix(0.0833333 0 0 0.0833333 -163.208 -214)" d="M 6881.15,5019.11 L 6861.15,5019.28 L 6856.84,4512.33 L 6876.84,4512.16 L 6881.15,5019.11 Z " />
<path stroke="transparent" fill="#000000" transform="matrix(0.0833333 0 0 0.0833333 -163.208 -214)" d="M 2752.3,5128.18 L 2752.32,5116.64 L 2762.32,5110.87 L 3269.53,5404.89 L 3269.51,5416.43 L 3259.51,5422.19 L 2752.3,5128.18 Z " />
<path stroke="transparent" fill="#000000" transform="matrix(0.0833333 0 0 0.0833333 -163.208 -214)" d="M 2819.04,5083.95 L 2829.07,5066.65 L 3274.7,5324.96 L 3264.67,5342.27 L 2819.04,5083.95 Z " />
<path stroke="transparent" fill="#000000" transform="matrix(0.0833333 0 0 0.0833333 -163.208 -214)" d="M 3279.51,6011.15 L 3259.51,6011.15 L 3259.51,5422.19 L 3269.51,5416.43 L 3279.51,5422.22 L 3279.51,6011.15 Z " />
<path stroke="transparent" fill="#000000" transform="matrix(0.0833333 0 0 0.0833333 -163.208 -214)" d="M 2308.33,4313.51 L 2318.1,4296.06 L 2757.21,4541.91 L 2747.44,4559.36 L 2308.33,4313.51 Z " />
<path stroke="transparent" fill="#000000" transform="matrix(0.0833333 0 0 0.0833333 -163.208 -214)" d="M 2343.41,4250.84 L 2353.18,4233.39 L 2793.32,4479.82 L 2783.55,4497.27 L 2343.41,4250.84 Z " />
<path stroke="transparent" fill="#000000" transform="matrix(0.0833333 0 0 0.0833333 -163.208 -214)" d="M 2762.32,5110.87 L 2752.32,5116.64 L 2742.32,5110.85 L 2742.32,4503.72 L 2762.32,4515.24 L 2762.32,5110.87 Z " />
<path stroke="transparent" fill="#000000" transform="matrix(0.0833333 0 0 0.0833333 -163.208 -214)" d="M 7934.59,4545.4 L 7934.3,4556.97 L 7924.3,4562.56 L 7419.46,4251.28 L 7419.86,4228.03 L 7934.59,4545.4 Z " />
<path stroke="transparent" fill="#000000" transform="matrix(0.0833333 0 0 0.0833333 -163.208 -214)" d="M 7867,4588.96 L 7856.5,4605.99 L 7412.96,4332.5 L 7423.46,4315.48 L 7867,4588.96 Z " />
<path stroke="transparent" fill="#000000" transform="matrix(0.0833333 0 0 0.0833333 -163.208 -214)" d="M 2327.83,5371.86 L 2317.88,5354.52 L 2742.32,5110.85 L 2752.32,5116.64 L 2752.3,5128.18 L 2327.83,5371.86 Z " />
<path stroke="transparent" fill="#000000" transform="matrix(0.0833333 0 0 0.0833333 -163.208 -214)" d="M 8446.67,4263.4 L 8456.32,4280.92 L 7944.3,4562.88 L 7934.3,4556.97 L 7934.59,4545.4 L 8446.67,4263.4 Z " />
<path stroke="transparent" fill="#000000" transform="matrix(0.0833333 0 0 0.0833333 -163.208 -214)" d="M 7944.3,5144.06 L 7924.3,5144.06 L 7924.3,4562.56 L 7934.3,4556.97 L 7944.3,4562.88 L 7944.3,5144.06 Z " />
</svg>
