<?xml version="1.0" standalone="no" ?>
<!DOCTYPE svg PUBLIC "-//W3C//DTD SVG 1.1//EN" "http://www.w3.org/Graphics/SVG/1.1/DTD/svg11.dtd">
<svg width="509px" height="397px" viewBox="0 0 509 397" style="background-color: #ffffff00" xmlns="http://www.w3.org/2000/svg" xmlns:xlink="http://www.w3.org/1999/xlink" version="1.1" >
<path stroke="transparent" fill="#000000" transform="matrix(0.0833333 0 0 0.0833333 -153.25 -131)" d="M 4050.15,5808.78 L 4030.15,5808.78 L 4030.14,5319.72 L 4040.14,5313.95 L 4050.14,5319.72 L 4050.15,5808.78 Z " />
<path stroke="transparent" fill="#000000" transform="matrix(0.0833333 0 0 0.0833333 -153.25 -131)" d="M 4040.14,5302.4 L 4040.14,5313.95 L 4030.14,5319.72 L 3520.57,5025.52 L 3520.57,5013.97 L 3530.57,5008.2 L 4040.14,5302.4 Z " />
<path stroke="transparent" fill="#000000" transform="matrix(0.0833333 0 0 0.0833333 -153.25 -131)" d="M 4050.14,5319.72 L 4040.14,5313.95 L 4040.14,5302.4 L 4549.76,5008.18 L 4559.76,5013.96 L 4559.76,5025.5 L 4050.14,5319.72 Z " />
<path stroke="transparent" fill="#000000" transform="matrix(0.0833333 0 0 0.0833333 -153.25 -131)" d="M 4045.14,5239.47 L 4035.14,5222.15 L 4482.76,4963.73 L 4492.76,4981.05 L 4045.14,5239.47 Z " />
<path stroke="transparent" fill="#000000" transform="matrix(0.0833333 0 0 0.0833333 -153.25 -131)" d="M 4569.76,5008.18 L 4559.76,5013.96 L 4549.76,5008.18 L 4549.75,4419.73 L 4559.75,4413.96 L 4569.75,4419.73 L 4569.76,5008.18 Z " />
<path stroke="transparent" fill="#000000" transform="matrix(0.0833333 0 0 0.0833333 -153.25 -131)" d="M 4559.76,5025.5 L 4559.76,5013.96 L 4569.76,5008.18 L 5079.44,5302.44 L 5079.44,5325.54 L 4559.76,5025.5 Z " />
<path stroke="transparent" fill="#000000" transform="matrix(0.0833333 0 0 0.0833333 -153.25 -131)" d="M 5125.44,5808.82 L 5105.44,5808.82 L 5105.44,5293.2 L 5125.44,5293.2 L 5125.44,5808.82 Z " />
<path stroke="transparent" fill="#000000" transform="matrix(0.0833333 0 0 0.0833333 -153.25 -131)" d="M 5053.44,5808.83 L 5033.44,5808.83 L 5033.44,5293.21 L 5053.44,5293.21 L 5053.44,5808.83 Z " />
<path stroke="transparent" fill="#000000" transform="matrix(0.0833333 0 0 0.0833333 -153.25 -131)" d="M 5079.44,5325.54 L 5079.44,5302.44 L 5589,5008.2 L 5599,5013.97 L 5599,5025.52 L 5079.44,5325.54 Z " />
<path stroke="transparent" fill="#000000" transform="matrix(0.0833333 0 0 0.0833333 -153.25 -131)" d="M 6128.64,5908.2 L 6108.64,5919.75 L 6108.63,5319.75 L 6118.63,5313.98 L 6128.63,5319.75 L 6128.64,5908.2 Z " />
<path stroke="transparent" fill="#000000" transform="matrix(0.0833333 0 0 0.0833333 -153.25 -131)" d="M 6108.64,5919.75 L 6128.64,5908.2 L 6638.32,6202.46 L 6638.32,6225.56 L 6108.64,5919.75 Z " />
<path stroke="transparent" fill="#000000" transform="matrix(0.0833333 0 0 0.0833333 -153.25 -131)" d="M 6185.65,5881.06 L 6195.65,5863.74 L 6643.31,6122.2 L 6633.31,6139.52 L 6185.65,5881.06 Z " />
<path stroke="transparent" fill="#000000" transform="matrix(0.0833333 0 0 0.0833333 -153.25 -131)" d="M 6638.32,6225.56 L 6638.32,6202.46 L 7147.88,5908.22 L 7157.88,5913.99 L 7157.88,5925.54 L 6638.32,6225.56 Z " />
<path stroke="transparent" fill="#000000" transform="matrix(0.0833333 0 0 0.0833333 -153.25 -131)" d="M 7589.89,6151.86 L 7579.89,6169.18 L 7157.88,5925.54 L 7157.88,5913.99 L 7167.88,5908.21 L 7589.89,6151.86 Z " />
<path stroke="transparent" fill="#000000" transform="matrix(0.0833333 0 0 0.0833333 -153.25 -131)" d="M 7167.88,5908.21 L 7157.88,5913.99 L 7147.88,5908.22 L 7147.88,5319.76 L 7167.88,5308.21 L 7167.88,5908.21 Z " />
<path stroke="transparent" fill="#000000" transform="matrix(0.0833333 0 0 0.0833333 -153.25 -131)" d="M 7095.88,5872.42 L 7075.88,5872.42 L 7075.88,5355.56 L 7095.88,5355.56 L 7095.88,5872.42 Z " />
<path stroke="transparent" fill="#000000" transform="matrix(0.0833333 0 0 0.0833333 -153.25 -131)" d="M 7167.88,5308.21 L 7147.88,5319.76 L 6638.25,5025.53 L 6638.25,5002.43 L 7167.88,5308.21 Z " />
<path stroke="transparent" fill="#000000" transform="matrix(0.0833333 0 0 0.0833333 -153.25 -131)" d="M 6638.25,5002.43 L 6638.25,5025.53 L 6128.63,5319.75 L 6118.63,5313.98 L 6118.63,5302.43 L 6638.25,5002.43 Z " />
<path stroke="transparent" fill="#000000" transform="matrix(0.0833333 0 0 0.0833333 -153.25 -131)" d="M 6633.25,5088.46 L 6643.25,5105.78 L 6195.63,5364.21 L 6185.63,5346.88 L 6633.25,5088.46 Z " />
<path stroke="transparent" fill="#000000" transform="matrix(0.0833333 0 0 0.0833333 -153.25 -131)" d="M 6118.63,5302.43 L 6118.63,5313.98 L 6108.63,5319.75 L 5599,5025.52 L 5599,5013.97 L 5609,5008.2 L 6118.63,5302.43 Z " />
<path stroke="transparent" fill="#000000" transform="matrix(0.0833333 0 0 0.0833333 -153.25 -131)" d="M 5609,5008.2 L 5599,5013.97 L 5589,5008.2 L 5589,4419.74 L 5609,4408.2 L 5609,5008.2 Z " />
<path stroke="transparent" fill="#000000" transform="matrix(0.0833333 0 0 0.0833333 -153.25 -131)" d="M 5537,4972.4 L 5517,4972.4 L 5517,4455.54 L 5537,4455.54 L 5537,4972.4 Z " />
<path stroke="transparent" fill="#000000" transform="matrix(0.0833333 0 0 0.0833333 -153.25 -131)" d="M 5609,4408.2 L 5589,4419.74 L 5174.41,4180.38 L 5184.41,4163.06 L 5609,4408.2 Z " />
<path stroke="transparent" fill="#000000" transform="matrix(0.0833333 0 0 0.0833333 -153.25 -131)" d="M 4974.77,4162.81 L 4984.77,4180.13 L 4569.75,4419.73 L 4559.75,4413.96 L 4559.75,4402.41 L 4974.77,4162.81 Z " />
<path stroke="transparent" fill="#000000" transform="matrix(0.0833333 0 0 0.0833333 -153.25 -131)" d="M 4559.75,4402.41 L 4559.75,4413.96 L 4549.75,4419.73 L 4040.12,4125.5 L 4040.12,4102.4 L 4559.75,4402.41 Z " />
<path stroke="transparent" fill="#000000" transform="matrix(0.0833333 0 0 0.0833333 -153.25 -131)" d="M 4492.75,4446.87 L 4482.75,4464.19 L 4035.13,4205.75 L 4045.13,4188.43 L 4492.75,4446.87 Z " />
<path stroke="transparent" fill="#000000" transform="matrix(0.0833333 0 0 0.0833333 -153.25 -131)" d="M 4040.12,4102.4 L 4040.12,4125.5 L 3530.56,4419.75 L 3520.56,4413.97 L 3520.56,4402.43 L 4040.12,4102.4 Z " />
<path stroke="transparent" fill="#000000" transform="matrix(0.0833333 0 0 0.0833333 -153.25 -131)" d="M 3977.55,3408.54 L 3917.55,3512.47 L 3519.99,3225.84 L 3520.54,3213.97 L 3530.54,3207.56 L 3977.55,3408.54 Z " />
<path stroke="transparent" fill="#000000" transform="matrix(0.0833333 0 0 0.0833333 -153.25 -131)" d="M 3510.54,3208.2 L 3520.54,3213.97 L 3519.99,3225.84 L 3000.92,3525.51 L 3000.92,3502.42 L 3510.54,3208.2 Z " />
<path stroke="transparent" fill="#000000" transform="matrix(0.0833333 0 0 0.0833333 -153.25 -131)" d="M 3510.56,2619.69 L 3530.56,2608.15 L 3530.54,3207.56 L 3520.54,3213.97 L 3510.54,3208.2 L 3510.56,2619.69 Z " />
<path stroke="transparent" fill="#000000" transform="matrix(0.0833333 0 0 0.0833333 -153.25 -131)" d="M 3910.58,2319.47 L 3970.58,2423.39 L 3952.1,2431.38 L 3894.42,2331.48 L 3910.58,2319.47 Z " />
<path stroke="transparent" fill="#000000" transform="matrix(0.0833333 0 0 0.0833333 -153.25 -131)" d="M 3863.15,2354.72 L 3916.34,2446.84 L 3897.86,2454.83 L 3846.99,2366.73 L 3863.15,2354.72 Z " />
<path stroke="transparent" fill="#000000" transform="matrix(0.0833333 0 0 0.0833333 -153.25 -131)" d="M 3815.72,2389.96 L 3862.1,2470.29 L 3843.62,2478.28 L 3799.56,2401.97 L 3815.72,2389.96 Z " />
<path stroke="transparent" fill="#000000" transform="matrix(0.0833333 0 0 0.0833333 -153.25 -131)" d="M 3768.3,2425.21 L 3807.86,2493.74 L 3789.38,2501.73 L 3752.14,2437.22 L 3768.3,2425.21 Z " />
<path stroke="transparent" fill="#000000" transform="matrix(0.0833333 0 0 0.0833333 -153.25 -131)" d="M 3720.87,2460.46 L 3753.62,2517.19 L 3735.14,2525.18 L 3704.71,2472.47 L 3720.87,2460.46 Z " />
<path stroke="transparent" fill="#000000" transform="matrix(0.0833333 0 0 0.0833333 -153.25 -131)" d="M 3673.44,2495.7 L 3699.38,2540.64 L 3680.9,2548.63 L 3657.28,2507.71 L 3673.44,2495.7 Z " />
<path stroke="transparent" fill="#000000" transform="matrix(0.0833333 0 0 0.0833333 -153.25 -131)" d="M 3626.01,2530.95 L 3645.15,2564.09 L 3626.66,2572.08 L 3609.85,2542.96 L 3626.01,2530.95 Z " />
<path stroke="transparent" fill="#000000" transform="matrix(0.0833333 0 0 0.0833333 -153.25 -131)" d="M 3578.59,2566.2 L 3590.91,2587.54 L 3572.43,2595.53 L 3562.43,2578.21 L 3578.59,2566.2 Z " />
<path stroke="transparent" fill="#000000" transform="matrix(0.0833333 0 0 0.0833333 -153.25 -131)" d="M 3000.99,2325.49 L 3000.99,2313.94 L 3011.56,2308.5 L 3530.56,2608.15 L 3510.56,2619.69 L 3000.99,2325.49 Z " />
<path stroke="transparent" fill="#000000" transform="matrix(0.0833333 0 0 0.0833333 -153.25 -131)" d="M 2940.98,1833.78 L 3060.98,1833.78 L 3011.56,2308.5 L 3000.99,2313.94 L 2990.42,2308.5 L 2940.98,1833.78 Z " />
<path stroke="transparent" fill="#000000" transform="matrix(0.0833333 0 0 0.0833333 -153.25 -131)" d="M 2491.29,2619.73 L 2471.29,2608.19 L 2990.42,2308.5 L 3000.99,2313.94 L 3000.99,2325.49 L 2491.29,2619.73 Z " />
<path stroke="transparent" fill="#000000" transform="matrix(0.0833333 0 0 0.0833333 -153.25 -131)" d="M 1951.68,1833.73 L 1971.68,1833.73 L 1971.66,2313.95 L 1951.66,2313.95 L 1951.68,1833.73 Z " />
<path stroke="transparent" fill="#000000" transform="matrix(0.0833333 0 0 0.0833333 -153.25 -131)" d="M 1978.43,2392.92 L 2038.43,2288.99 L 2054.73,2300.75 L 1996.77,2401.15 L 1978.43,2392.92 Z " />
<path stroke="transparent" fill="#000000" transform="matrix(0.0833333 0 0 0.0833333 -153.25 -131)" d="M 2032.52,2417.22 L 2086.53,2323.69 L 2102.83,2335.45 L 2050.86,2425.46 L 2032.52,2417.22 Z " />
<path stroke="transparent" fill="#000000" transform="matrix(0.0833333 0 0 0.0833333 -153.25 -131)" d="M 2086.62,2441.53 L 2134.63,2358.38 L 2150.93,2370.14 L 2104.95,2449.77 L 2086.62,2441.53 Z " />
<path stroke="transparent" fill="#000000" transform="matrix(0.0833333 0 0 0.0833333 -153.25 -131)" d="M 2140.71,2465.84 L 2182.72,2393.07 L 2199.03,2404.83 L 2159.05,2474.08 L 2140.71,2465.84 Z " />
<path stroke="transparent" fill="#000000" transform="matrix(0.0833333 0 0 0.0833333 -153.25 -131)" d="M 2194.81,2490.15 L 2230.82,2427.77 L 2247.13,2439.53 L 2213.14,2498.39 L 2194.81,2490.15 Z " />
<path stroke="transparent" fill="#000000" transform="matrix(0.0833333 0 0 0.0833333 -153.25 -131)" d="M 2248.9,2514.46 L 2278.92,2462.46 L 2295.23,2474.22 L 2267.24,2522.7 L 2248.9,2514.46 Z " />
<path stroke="transparent" fill="#000000" transform="matrix(0.0833333 0 0 0.0833333 -153.25 -131)" d="M 2303,2538.76 L 2327.02,2497.15 L 2343.33,2508.91 L 2321.33,2547 L 2303,2538.76 Z " />
<path stroke="transparent" fill="#000000" transform="matrix(0.0833333 0 0 0.0833333 -153.25 -131)" d="M 2357.09,2563.07 L 2375.12,2531.85 L 2391.42,2543.61 L 2375.43,2571.31 L 2357.09,2563.07 Z " />
<path stroke="transparent" fill="#000000" transform="matrix(0.0833333 0 0 0.0833333 -153.25 -131)" d="M 2411.19,2587.38 L 2423.22,2566.54 L 2439.52,2578.3 L 2429.52,2595.62 L 2411.19,2587.38 Z " />
<path stroke="transparent" fill="#000000" transform="matrix(0.0833333 0 0 0.0833333 -153.25 -131)" d="M 2491.3,3108.79 L 2471.3,3108.79 L 2471.29,2608.19 L 2491.29,2619.73 L 2491.3,3108.79 Z " />
<path stroke="transparent" fill="#000000" transform="matrix(0.0833333 0 0 0.0833333 -153.25 -131)" d="M 2576.33,3280.38 L 2586.33,3263.06 L 3000.92,3502.42 L 3000.92,3525.51 L 2576.33,3280.38 Z " />
<path stroke="transparent" fill="#000000" transform="matrix(0.0833333 0 0 0.0833333 -153.25 -131)" d="M 3060.93,4008.8 L 2940.93,4008.8 L 2943.2,3988.8 L 3058.66,3988.8 L 3060.93,4008.8 Z " />
<path stroke="transparent" fill="#000000" transform="matrix(0.0833333 0 0 0.0833333 -153.25 -131)" d="M 3054.11,3948.69 L 2947.75,3948.69 L 2950.02,3928.69 L 3051.84,3928.69 L 3054.11,3948.69 Z " />
<path stroke="transparent" fill="#000000" transform="matrix(0.0833333 0 0 0.0833333 -153.25 -131)" d="M 3047.29,3888.59 L 2954.57,3888.59 L 2956.83,3868.59 L 3045.02,3868.59 L 3047.29,3888.59 Z " />
<path stroke="transparent" fill="#000000" transform="matrix(0.0833333 0 0 0.0833333 -153.25 -131)" d="M 3040.47,3828.48 L 2961.38,3828.48 L 2963.65,3808.48 L 3038.2,3808.48 L 3040.47,3828.48 Z " />
<path stroke="transparent" fill="#000000" transform="matrix(0.0833333 0 0 0.0833333 -153.25 -131)" d="M 3033.65,3768.37 L 2968.2,3768.38 L 2970.47,3748.38 L 3031.38,3748.37 L 3033.65,3768.37 Z " />
<path stroke="transparent" fill="#000000" transform="matrix(0.0833333 0 0 0.0833333 -153.25 -131)" d="M 3026.83,3708.27 L 2975.02,3708.27 L 2977.29,3688.27 L 3024.56,3688.27 L 3026.83,3708.27 Z " />
<path stroke="transparent" fill="#000000" transform="matrix(0.0833333 0 0 0.0833333 -153.25 -131)" d="M 3020.01,3648.16 L 2981.84,3648.16 L 2984.11,3628.16 L 3017.74,3628.16 L 3020.01,3648.16 Z " />
<path stroke="transparent" fill="#000000" transform="matrix(0.0833333 0 0 0.0833333 -153.25 -131)" d="M 3013.19,3588.06 L 2988.66,3588.06 L 2990.92,3568.06 L 3010.92,3568.06 L 3013.19,3588.06 Z " />
<path stroke="transparent" fill="#000000" transform="matrix(0.0833333 0 0 0.0833333 -153.25 -131)" d="M 3095.97,4180.38 L 3105.97,4163.06 L 3520.56,4402.43 L 3520.56,4413.97 L 3510.56,4419.75 L 3095.97,4180.38 Z " />
<path stroke="transparent" fill="#000000" transform="matrix(0.0833333 0 0 0.0833333 -153.25 -131)" d="M 3510.56,4419.75 L 3520.56,4413.97 L 3530.56,4419.75 L 3530.57,5008.2 L 3520.57,5013.97 L 3510.57,5008.2 L 3510.56,4419.75 Z " />
<path stroke="transparent" fill="#000000" transform="matrix(0.0833333 0 0 0.0833333 -153.25 -131)" d="M 3582.56,4455.54 L 3602.56,4455.54 L 3602.56,4972.4 L 3582.56,4972.4 L 3582.56,4455.54 Z " />
<path stroke="transparent" fill="#000000" transform="matrix(0.0833333 0 0 0.0833333 -153.25 -131)" d="M 3510.57,5008.2 L 3520.57,5013.97 L 3520.57,5025.52 L 3098.57,5269.15 L 3088.57,5251.83 L 3510.57,5008.2 Z " />
<text x="0" y="0" stroke="transparent" fill="#000000" transform="matrix(0.0833333 0 0 0.0833333 176.929 368.329)" style="font:normal normal normal 200px 'Arial'" >
OH</text>
<text x="0" y="0" stroke="transparent" fill="#000000" transform="matrix(0.0833333 0 0 0.0833333 263.537 368.333)" style="font:normal normal normal 200px 'Arial'" >
O</text>
<text x="0" y="0" stroke="transparent" fill="#000000" transform="matrix(0.0833333 0 0 0.0833333 480.043 393.333)" style="font:normal normal normal 200px 'Arial'" >
OH</text>
<text x="0" y="0" stroke="transparent" fill="#000000" transform="matrix(0.0833333 0 0 0.0833333 263.531 218.33)" style="font:normal normal normal 200px 'Arial'" >
O</text>
<text x="0" y="0" stroke="transparent" fill="#000000" transform="matrix(0.0833333 0 0 0.0833333 176.931 168.332)" style="font:normal normal normal 200px 'Arial'" >
OH</text>
<text x="0" y="0" stroke="transparent" fill="#000000" transform="matrix(0.0833333 0 0 0.0833333 176.932 68.3273)" style="font:normal normal normal 200px 'Arial'" >
OH</text>
<text x="0" y="0" stroke="transparent" fill="#000000" transform="matrix(0.0833333 0 0 0.0833333 90.3318 18.3287)" style="font:normal normal normal 200px 'Arial'" >
OH</text>
<text x="0" y="0" stroke="transparent" fill="#000000" transform="matrix(0.0833333 0 0 0.0833333 3.72376 18.3251)" style="font:normal normal normal 200px 'Arial'" >
OH</text>
<text x="0" y="0" stroke="transparent" fill="#000000" transform="matrix(0.0833333 0 0 0.0833333 47.0247 143.33)" style="font:normal normal normal 200px 'Arial'" >
O</text>
<text x="0" y="0" stroke="transparent" fill="#000000" transform="matrix(0.0833333 0 0 0.0833333 90.3276 218.331)" style="font:normal normal normal 200px 'Arial'" >
O</text>
<text x="0" y="0" stroke="transparent" fill="#000000" transform="matrix(0.0833333 0 0 0.0833333 90.3289 318.33)" style="font:normal normal normal 200px 'Arial'" >
O</text>
<path stroke="transparent" fill="#000000" transform="matrix(0.0833333 0 0 0.0833333 -153.25 -131)" d="M 2476.33,5022.63 L 2486.33,5005.31 L 2913.33,5251.83 L 2903.33,5269.15 L 2476.33,5022.63 Z " />
</svg>
