<?xml version="1.0" standalone="no" ?>
<!DOCTYPE svg PUBLIC "-//W3C//DTD SVG 1.1//EN" "http://www.w3.org/Graphics/SVG/1.1/DTD/svg11.dtd">
<svg width="383px" height="291px" viewBox="0 0 383 291" style="background-color: #ffffff00" xmlns="http://www.w3.org/2000/svg" xmlns:xlink="http://www.w3.org/1999/xlink" version="1.1" >
<text x="0" y="0" stroke="transparent" fill="#000000" transform="matrix(0.0833333 0 0 0.0833333 29.4745 181.291)" style="font:normal normal normal 200px 'Arial'" >
O</text>
<text x="0" y="0" stroke="transparent" fill="#000000" transform="matrix(0.0833333 0 0 0.0833333 159.378 106.291)" style="font:normal normal normal 200px 'Arial'" >
O</text>
<text x="0" y="0" stroke="transparent" fill="#000000" transform="matrix(0.0833333 0 0 0.0833333 116.077 281.291)" style="font:normal normal normal 200px 'Arial'" >
OH</text>
<text x="0" y="0" stroke="transparent" fill="#000000" transform="matrix(0.0833333 0 0 0.0833333 159.378 256.291)" style="font:normal normal normal 200px 'Arial'" >
O</text>
<text x="0" y="0" stroke="transparent" fill="#000000" transform="matrix(0.0833333 0 0 0.0833333 366.224 106.291)" style="font:normal normal normal 200px 'Arial'" >
O</text>
<text x="0" y="0" stroke="transparent" fill="#000000" transform="matrix(0.0833333 0 0 0.0833333 352.286 18.2872)" style="font:normal normal normal 200px 'Arial'" >
O</text>
<path stroke="transparent" fill="#000000" transform="matrix(0.0833333 0 0 0.0833333 -210.25 -588.5)" d="M 3168.54,9989.11 L 3180.08,9969.11 L 3482.97,10493.7 L 3465.65,10503.7 L 3168.54,9989.11 Z " />
<path stroke="transparent" fill="#000000" transform="matrix(0.0833333 0 0 0.0833333 -210.25 -588.5)" d="M 2574.31,9989.11 L 2574.31,9969.11 L 3180.08,9969.11 L 3168.54,9989.11 L 2574.31,9989.11 Z " />
<path stroke="transparent" fill="#000000" transform="matrix(0.0833333 0 0 0.0833333 -210.25 -588.5)" d="M 3438.65,9501.26 L 3455.97,9511.26 L 3447.73,9529.59 L 3426.89,9517.56 L 3438.65,9501.26 Z " />
<path stroke="transparent" fill="#000000" transform="matrix(0.0833333 0 0 0.0833333 -210.25 -588.5)" d="M 3403.96,9549.35 L 3431.66,9565.35 L 3423.42,9583.69 L 3392.2,9565.66 L 3403.96,9549.35 Z " />
<path stroke="transparent" fill="#000000" transform="matrix(0.0833333 0 0 0.0833333 -210.25 -588.5)" d="M 3369.26,9597.45 L 3407.35,9619.44 L 3399.12,9637.78 L 3357.5,9613.75 L 3369.26,9597.45 Z " />
<path stroke="transparent" fill="#000000" transform="matrix(0.0833333 0 0 0.0833333 -210.25 -588.5)" d="M 3334.57,9645.55 L 3383.05,9673.54 L 3374.81,9691.87 L 3322.81,9661.85 L 3334.57,9645.55 Z " />
<path stroke="transparent" fill="#000000" transform="matrix(0.0833333 0 0 0.0833333 -210.25 -588.5)" d="M 3299.88,9693.65 L 3358.74,9727.63 L 3350.5,9745.97 L 3288.12,9709.95 L 3299.88,9693.65 Z " />
<path stroke="transparent" fill="#000000" transform="matrix(0.0833333 0 0 0.0833333 -210.25 -588.5)" d="M 3265.19,9741.74 L 3334.43,9781.72 L 3326.19,9800.06 L 3253.43,9758.05 L 3265.19,9741.74 Z " />
<path stroke="transparent" fill="#000000" transform="matrix(0.0833333 0 0 0.0833333 -210.25 -588.5)" d="M 3230.49,9789.84 L 3310.13,9835.82 L 3301.89,9854.15 L 3218.73,9806.14 L 3230.49,9789.84 Z " />
<path stroke="transparent" fill="#000000" transform="matrix(0.0833333 0 0 0.0833333 -210.25 -588.5)" d="M 3195.8,9837.94 L 3285.82,9889.91 L 3277.58,9908.25 L 3184.04,9854.24 L 3195.8,9837.94 Z " />
<path stroke="transparent" fill="#000000" transform="matrix(0.0833333 0 0 0.0833333 -210.25 -588.5)" d="M 3161.11,9886.04 L 3261.51,9944 L 3253.27,9962.34 L 3149.35,9902.34 L 3161.11,9886.04 Z " />
<path stroke="transparent" fill="#000000" transform="matrix(0.0833333 0 0 0.0833333 -210.25 -588.5)" d="M 3464.31,8878.96 L 3474.31,8859.49 L 3484.31,8865.26 L 3484.31,9453.72 L 3474.31,9459.49 L 3464.31,9442.17 L 3464.31,8878.96 Z " />
<path stroke="transparent" fill="#000000" transform="matrix(0.0833333 0 0 0.0833333 -210.25 -588.5)" d="M 3077.31,9157.98 L 3017.31,9054.06 L 3469.31,8850.83 L 3474.31,8859.49 L 3464.31,8878.96 L 3077.31,9157.98 Z " />
<path stroke="transparent" fill="#000000" transform="matrix(0.0833333 0 0 0.0833333 -210.25 -588.5)" d="M 3049.73,9225.91 L 3059.73,9208.59 L 3464.31,9442.17 L 3474.31,9459.49 L 3469.31,9468.15 L 3049.73,9225.91 Z " />
<path stroke="transparent" fill="#000000" transform="matrix(0.0833333 0 0 0.0833333 -210.25 -588.5)" d="M 3993.92,8547.94 L 3993.92,8571.04 L 3484.31,8865.26 L 3474.31,8859.49 L 3469.31,8850.83 L 3993.92,8547.94 Z " />
<path stroke="transparent" fill="#000000" transform="matrix(0.0833333 0 0 0.0833333 -210.25 -588.5)" d="M 4513.54,8847.94 L 4513.54,8859.49 L 4503.54,8865.26 L 3993.92,8571.04 L 3993.92,8547.94 L 4513.54,8847.94 Z " />
<path stroke="transparent" fill="#000000" transform="matrix(0.0833333 0 0 0.0833333 -210.25 -588.5)" d="M 4453.54,8379.32 L 4573.54,8379.32 L 4571.19,8399.32 L 4455.89,8399.32 L 4453.54,8379.32 Z " />
<path stroke="transparent" fill="#000000" transform="matrix(0.0833333 0 0 0.0833333 -210.25 -588.5)" d="M 4460.35,8437.34 L 4566.73,8437.34 L 4564.39,8457.34 L 4462.69,8457.34 L 4460.35,8437.34 Z " />
<path stroke="transparent" fill="#000000" transform="matrix(0.0833333 0 0 0.0833333 -210.25 -588.5)" d="M 4467.16,8495.37 L 4559.92,8495.37 L 4557.58,8515.37 L 4469.5,8515.37 L 4467.16,8495.37 Z " />
<path stroke="transparent" fill="#000000" transform="matrix(0.0833333 0 0 0.0833333 -210.25 -588.5)" d="M 4473.96,8553.39 L 4553.12,8553.39 L 4550.77,8573.39 L 4476.31,8573.39 L 4473.96,8553.39 Z " />
<path stroke="transparent" fill="#000000" transform="matrix(0.0833333 0 0 0.0833333 -210.25 -588.5)" d="M 4480.77,8611.41 L 4546.31,8611.41 L 4543.96,8631.41 L 4483.12,8631.41 L 4480.77,8611.41 Z " />
<path stroke="transparent" fill="#000000" transform="matrix(0.0833333 0 0 0.0833333 -210.25 -588.5)" d="M 4487.58,8669.43 L 4539.5,8669.43 L 4537.16,8689.43 L 4489.92,8689.43 L 4487.58,8669.43 Z " />
<path stroke="transparent" fill="#000000" transform="matrix(0.0833333 0 0 0.0833333 -210.25 -588.5)" d="M 4494.39,8727.45 L 4532.69,8727.45 L 4530.35,8747.45 L 4496.73,8747.45 L 4494.39,8727.45 Z " />
<path stroke="transparent" fill="#000000" transform="matrix(0.0833333 0 0 0.0833333 -210.25 -588.5)" d="M 4501.19,8785.47 L 4525.89,8785.47 L 4523.54,8805.47 L 4503.54,8805.47 L 4501.19,8785.47 Z " />
<path stroke="transparent" fill="#000000" transform="matrix(0.0833333 0 0 0.0833333 -210.25 -588.5)" d="M 4383.94,8265.03 L 4443.94,8368.96 L 4425.46,8376.95 L 4367.78,8277.04 L 4383.94,8265.03 Z " />
<path stroke="transparent" fill="#000000" transform="matrix(0.0833333 0 0 0.0833333 -210.25 -588.5)" d="M 4336.51,8300.28 L 4389.7,8392.41 L 4371.22,8400.4 L 4320.35,8312.29 L 4336.51,8300.28 Z " />
<path stroke="transparent" fill="#000000" transform="matrix(0.0833333 0 0 0.0833333 -210.25 -588.5)" d="M 4289.08,8335.53 L 4335.46,8415.86 L 4316.98,8423.85 L 4272.92,8347.54 L 4289.08,8335.53 Z " />
<path stroke="transparent" fill="#000000" transform="matrix(0.0833333 0 0 0.0833333 -210.25 -588.5)" d="M 4241.65,8370.78 L 4281.22,8439.31 L 4262.74,8447.3 L 4225.49,8382.79 L 4241.65,8370.78 Z " />
<path stroke="transparent" fill="#000000" transform="matrix(0.0833333 0 0 0.0833333 -210.25 -588.5)" d="M 4194.23,8406.02 L 4226.98,8462.76 L 4208.5,8470.75 L 4178.07,8418.03 L 4194.23,8406.02 Z " />
<path stroke="transparent" fill="#000000" transform="matrix(0.0833333 0 0 0.0833333 -210.25 -588.5)" d="M 4146.8,8441.27 L 4172.74,8486.21 L 4154.26,8494.2 L 4130.64,8453.28 L 4146.8,8441.27 Z " />
<path stroke="transparent" fill="#000000" transform="matrix(0.0833333 0 0 0.0833333 -210.25 -588.5)" d="M 4099.37,8476.52 L 4118.5,8509.66 L 4100.02,8517.65 L 4083.21,8488.53 L 4099.37,8476.52 Z " />
<path stroke="transparent" fill="#000000" transform="matrix(0.0833333 0 0 0.0833333 -210.25 -588.5)" d="M 4051.95,8511.76 L 4064.27,8533.11 L 4045.79,8541.1 L 4035.79,8523.77 L 4051.95,8511.76 Z " />
<path stroke="transparent" fill="#000000" transform="matrix(0.0833333 0 0 0.0833333 -210.25 -588.5)" d="M 5023.16,8553.72 L 5033.16,8559.49 L 5033.16,8571.04 L 4523.54,8865.26 L 4513.54,8859.49 L 4513.54,8847.94 L 5023.16,8553.72 Z " />
<path stroke="transparent" fill="#000000" transform="matrix(0.0833333 0 0 0.0833333 -210.25 -588.5)" d="M 5023.16,7953.72 L 5043.16,7965.26 L 5043.16,8553.72 L 5033.16,8559.49 L 5023.16,8553.72 L 5023.16,7953.72 Z " />
<path stroke="transparent" fill="#000000" transform="matrix(0.0833333 0 0 0.0833333 -210.25 -588.5)" d="M 5552.77,7647.94 L 5552.77,7671.04 L 5043.16,7965.26 L 5023.16,7953.72 L 5552.77,7647.94 Z " />
<path stroke="transparent" fill="#000000" transform="matrix(0.0833333 0 0 0.0833333 -210.25 -588.5)" d="M 6073.53,7948.6 L 6072.39,7959.49 L 6062.39,7965.26 L 5552.77,7671.04 L 5552.77,7647.94 L 6073.53,7948.6 Z " />
<path stroke="transparent" fill="#000000" transform="matrix(0.0833333 0 0 0.0833333 -210.25 -588.5)" d="M 6082.39,8552.22 L 6072.39,8559.49 L 6062.39,8553.72 L 6062.39,7965.26 L 6072.39,7959.49 L 6082.39,7966.76 L 6082.39,8552.22 Z " />
<path stroke="transparent" fill="#000000" transform="matrix(0.0833333 0 0 0.0833333 -210.25 -588.5)" d="M 6154.39,8507.18 L 6134.39,8507.18 L 6134.39,8011.8 L 6154.39,8011.8 L 6154.39,8507.18 Z " />
<path stroke="transparent" fill="#000000" transform="matrix(0.0833333 0 0 0.0833333 -210.25 -588.5)" d="M 5552.77,8871.04 L 5552.77,8847.94 L 6062.39,8553.72 L 6072.39,8559.49 L 6073.53,8570.38 L 5552.77,8871.04 Z " />
<path stroke="transparent" fill="#000000" transform="matrix(0.0833333 0 0 0.0833333 -210.25 -588.5)" d="M 5552.77,8847.94 L 5552.77,8871.04 L 5033.16,8571.04 L 5033.16,8559.49 L 5043.16,8553.72 L 5552.77,8847.94 Z " />
<path stroke="transparent" fill="#000000" transform="matrix(0.0833333 0 0 0.0833333 -210.25 -588.5)" d="M 5612.77,9405.49 L 5492.77,9405.49 L 5494.8,9385.49 L 5610.74,9385.49 L 5612.77,9405.49 Z " />
<path stroke="transparent" fill="#000000" transform="matrix(0.0833333 0 0 0.0833333 -210.25 -588.5)" d="M 5606.77,9346.49 L 5498.77,9346.49 L 5500.8,9326.49 L 5604.74,9326.49 L 5606.77,9346.49 Z " />
<path stroke="transparent" fill="#000000" transform="matrix(0.0833333 0 0 0.0833333 -210.25 -588.5)" d="M 5600.78,9287.49 L 5504.76,9287.49 L 5506.79,9267.49 L 5598.75,9267.49 L 5600.78,9287.49 Z " />
<path stroke="transparent" fill="#000000" transform="matrix(0.0833333 0 0 0.0833333 -210.25 -588.5)" d="M 5594.78,9228.49 L 5510.76,9228.49 L 5512.79,9208.49 L 5592.75,9208.49 L 5594.78,9228.49 Z " />
<path stroke="transparent" fill="#000000" transform="matrix(0.0833333 0 0 0.0833333 -210.25 -588.5)" d="M 5588.79,9169.49 L 5516.75,9169.49 L 5518.79,9149.49 L 5586.75,9149.49 L 5588.79,9169.49 Z " />
<path stroke="transparent" fill="#000000" transform="matrix(0.0833333 0 0 0.0833333 -210.25 -588.5)" d="M 5582.79,9110.49 L 5522.75,9110.49 L 5524.78,9090.49 L 5580.76,9090.49 L 5582.79,9110.49 Z " />
<path stroke="transparent" fill="#000000" transform="matrix(0.0833333 0 0 0.0833333 -210.25 -588.5)" d="M 5576.79,9051.49 L 5528.75,9051.49 L 5530.78,9031.49 L 5574.76,9031.49 L 5576.79,9051.49 Z " />
<path stroke="transparent" fill="#000000" transform="matrix(0.0833333 0 0 0.0833333 -210.25 -588.5)" d="M 5570.8,8992.49 L 5534.74,8992.49 L 5536.77,8972.49 L 5568.77,8972.49 L 5570.8,8992.49 Z " />
<path stroke="transparent" fill="#000000" transform="matrix(0.0833333 0 0 0.0833333 -210.25 -588.5)" d="M 5564.8,8933.49 L 5540.74,8933.49 L 5542.77,8913.49 L 5562.77,8913.49 L 5564.8,8933.49 Z " />
<path stroke="transparent" fill="#000000" transform="matrix(0.0833333 0 0 0.0833333 -210.25 -588.5)" d="M 5033.16,9771.04 L 5033.16,9747.94 L 5547.77,9450.83 L 5557.77,9468.15 L 5033.16,9771.04 Z " />
<path stroke="transparent" fill="#000000" transform="matrix(0.0833333 0 0 0.0833333 -210.25 -588.5)" d="M 4513.54,9471.04 L 4513.54,9459.49 L 4523.54,9453.72 L 5033.16,9747.94 L 5033.16,9771.04 L 4513.54,9471.04 Z " />
<path stroke="transparent" fill="#000000" transform="matrix(0.0833333 0 0 0.0833333 -210.25 -588.5)" d="M 4523.54,9453.72 L 4513.54,9459.49 L 4503.54,9453.72 L 4503.54,8865.26 L 4513.54,8859.49 L 4523.54,8865.26 L 4523.54,9453.72 Z " />
<path stroke="transparent" fill="#000000" transform="matrix(0.0833333 0 0 0.0833333 -210.25 -588.5)" d="M 3993.92,9771.04 L 3993.92,9747.94 L 4503.54,9453.72 L 4513.54,9459.49 L 4513.54,9471.04 L 3993.92,9771.04 Z " />
<path stroke="transparent" fill="#000000" transform="matrix(0.0833333 0 0 0.0833333 -210.25 -588.5)" d="M 3993.92,9747.94 L 3993.92,9771.04 L 3469.31,9468.15 L 3474.31,9459.49 L 3484.31,9453.72 L 3993.92,9747.94 Z " />
<path stroke="transparent" fill="#000000" transform="matrix(0.0833333 0 0 0.0833333 -210.25 -588.5)" d="M 4053.92,10254.3 L 3933.92,10254.3 L 3936.19,10234.3 L 4051.66,10234.3 L 4053.92,10254.3 Z " />
<path stroke="transparent" fill="#000000" transform="matrix(0.0833333 0 0 0.0833333 -210.25 -588.5)" d="M 4047.11,10194.2 L 3940.74,10194.2 L 3943.01,10174.2 L 4044.84,10174.2 L 4047.11,10194.2 Z " />
<path stroke="transparent" fill="#000000" transform="matrix(0.0833333 0 0 0.0833333 -210.25 -588.5)" d="M 4040.29,10134.1 L 3947.56,10134.1 L 3949.83,10114.1 L 4038.02,10114.1 L 4040.29,10134.1 Z " />
<path stroke="transparent" fill="#000000" transform="matrix(0.0833333 0 0 0.0833333 -210.25 -588.5)" d="M 4033.47,10074 L 3954.38,10074 L 3956.65,10054 L 4031.2,10054 L 4033.47,10074 Z " />
<path stroke="transparent" fill="#000000" transform="matrix(0.0833333 0 0 0.0833333 -210.25 -588.5)" d="M 4026.65,10013.9 L 3961.2,10013.9 L 3963.47,9993.9 L 4024.38,9993.9 L 4026.65,10013.9 Z " />
<path stroke="transparent" fill="#000000" transform="matrix(0.0833333 0 0 0.0833333 -210.25 -588.5)" d="M 4019.83,9953.79 L 3968.02,9953.79 L 3970.29,9933.79 L 4017.56,9933.79 L 4019.83,9953.79 Z " />
<path stroke="transparent" fill="#000000" transform="matrix(0.0833333 0 0 0.0833333 -210.25 -588.5)" d="M 4013.01,9893.69 L 3974.84,9893.69 L 3977.11,9873.69 L 4010.74,9873.69 L 4013.01,9893.69 Z " />
<path stroke="transparent" fill="#000000" transform="matrix(0.0833333 0 0 0.0833333 -210.25 -588.5)" d="M 4006.19,9833.58 L 3981.66,9833.58 L 3983.92,9813.58 L 4003.92,9813.58 L 4006.19,9833.58 Z " />
<path stroke="transparent" fill="#000000" transform="matrix(0.0833333 0 0 0.0833333 -210.25 -588.5)" d="M 4573.54,9954.32 L 4453.54,9954.32 L 4455.81,9934.32 L 4571.27,9934.32 L 4573.54,9954.32 Z " />
<path stroke="transparent" fill="#000000" transform="matrix(0.0833333 0 0 0.0833333 -210.25 -588.5)" d="M 4566.72,9894.22 L 4460.36,9894.22 L 4462.63,9874.22 L 4564.45,9874.22 L 4566.72,9894.22 Z " />
<path stroke="transparent" fill="#000000" transform="matrix(0.0833333 0 0 0.0833333 -210.25 -588.5)" d="M 4559.9,9834.11 L 4467.18,9834.11 L 4469.45,9814.11 L 4557.63,9814.11 L 4559.9,9834.11 Z " />
<path stroke="transparent" fill="#000000" transform="matrix(0.0833333 0 0 0.0833333 -210.25 -588.5)" d="M 4553.08,9774.01 L 4474,9774.01 L 4476.26,9754.01 L 4550.81,9754.01 L 4553.08,9774.01 Z " />
<path stroke="transparent" fill="#000000" transform="matrix(0.0833333 0 0 0.0833333 -210.25 -588.5)" d="M 4546.26,9713.9 L 4480.81,9713.9 L 4483.08,9693.9 L 4544,9693.9 L 4546.26,9713.9 Z " />
<path stroke="transparent" fill="#000000" transform="matrix(0.0833333 0 0 0.0833333 -210.25 -588.5)" d="M 4539.45,9653.79 L 4487.63,9653.79 L 4489.9,9633.79 L 4537.18,9633.79 L 4539.45,9653.79 Z " />
<path stroke="transparent" fill="#000000" transform="matrix(0.0833333 0 0 0.0833333 -210.25 -588.5)" d="M 4532.63,9593.69 L 4494.45,9593.69 L 4496.72,9573.69 L 4530.36,9573.69 L 4532.63,9593.69 Z " />
<path stroke="transparent" fill="#000000" transform="matrix(0.0833333 0 0 0.0833333 -210.25 -588.5)" d="M 4525.81,9533.58 L 4501.27,9533.58 L 4503.54,9513.58 L 4523.54,9513.58 L 4525.81,9533.58 Z " />
<path stroke="transparent" fill="#000000" transform="matrix(0.0833333 0 0 0.0833333 -210.25 -588.5)" d="M 4636.16,10058 L 4576.16,9954.06 L 4594.62,9946.03 L 4652.34,10046 L 4636.16,10058 Z " />
<path stroke="transparent" fill="#000000" transform="matrix(0.0833333 0 0 0.0833333 -210.25 -588.5)" d="M 4684.59,10022.1 L 4631.41,9930.03 L 4649.87,9922 L 4700.78,10010.2 L 4684.59,10022.1 Z " />
<path stroke="transparent" fill="#000000" transform="matrix(0.0833333 0 0 0.0833333 -210.25 -588.5)" d="M 4733.03,9986.31 L 4686.66,9906 L 4705.12,9897.97 L 4749.21,9974.33 L 4733.03,9986.31 Z " />
<path stroke="transparent" fill="#000000" transform="matrix(0.0833333 0 0 0.0833333 -210.25 -588.5)" d="M 4781.46,9950.47 L 4741.92,9881.97 L 4760.38,9873.94 L 4797.64,9938.5 L 4781.46,9950.47 Z " />
<path stroke="transparent" fill="#000000" transform="matrix(0.0833333 0 0 0.0833333 -210.25 -588.5)" d="M 4829.9,9914.63 L 4797.17,9857.94 L 4815.63,9849.92 L 4846.08,9902.66 L 4829.9,9914.63 Z " />
<path stroke="transparent" fill="#000000" transform="matrix(0.0833333 0 0 0.0833333 -210.25 -588.5)" d="M 4878.33,9878.8 L 4852.42,9833.92 L 4870.88,9825.89 L 4894.51,9866.83 L 4878.33,9878.8 Z " />
<path stroke="transparent" fill="#000000" transform="matrix(0.0833333 0 0 0.0833333 -210.25 -588.5)" d="M 4926.77,9842.96 L 4907.67,9809.89 L 4926.13,9801.86 L 4942.95,9830.99 L 4926.77,9842.96 Z " />
<path stroke="transparent" fill="#000000" transform="matrix(0.0833333 0 0 0.0833333 -210.25 -588.5)" d="M 4975.2,9807.13 L 4962.93,9785.86 L 4981.38,9777.83 L 4991.38,9795.15 L 4975.2,9807.13 Z " />
<path stroke="transparent" fill="#000000" transform="matrix(0.0833333 0 0 0.0833333 -210.25 -588.5)" d="M 6639.2,8733.14 L 6646.84,8756.66 L 6073.53,8570.38 L 6072.39,8559.49 L 6082.39,8552.22 L 6639.2,8733.14 Z " />
<path stroke="transparent" fill="#000000" transform="matrix(0.0833333 0 0 0.0833333 -210.25 -588.5)" d="M 6917.06,8350.7 L 6933.24,8362.46 L 6646.84,8756.66 L 6639.2,8733.14 L 6917.06,8350.7 Z " />
<path stroke="transparent" fill="#000000" transform="matrix(0.0833333 0 0 0.0833333 -210.25 -588.5)" d="M 6639.2,7785.84 L 6646.84,7762.32 L 6941.04,8167.25 L 6924.86,8179.01 L 6639.2,7785.84 Z " />
<path stroke="transparent" fill="#000000" transform="matrix(0.0833333 0 0 0.0833333 -210.25 -588.5)" d="M 6646.84,7762.32 L 6639.2,7785.84 L 6082.39,7966.76 L 6072.39,7959.49 L 6073.53,7948.6 L 6646.84,7762.32 Z " />
<path stroke="transparent" fill="#000000" transform="matrix(0.0833333 0 0 0.0833333 -210.25 -588.5)" d="M 6747.04,7305.07 L 6766.06,7311.25 L 6610.21,7790.92 L 6591.19,7784.74 L 6747.04,7305.07 Z " />
<path stroke="transparent" fill="#000000" transform="matrix(0.0833333 0 0 0.0833333 -210.25 -588.5)" d="M 6815.52,7327.32 L 6834.54,7333.5 L 6678.69,7813.17 L 6659.66,7806.99 L 6815.52,7327.32 Z " />
<path stroke="transparent" fill="#000000" transform="matrix(0.0833333 0 0 0.0833333 -210.25 -588.5)" d="M 5093.16,9159.49 L 4973.16,9159.49 L 4974.99,9139.49 L 5091.32,9139.49 L 5093.16,9159.49 Z " />
<path stroke="transparent" fill="#000000" transform="matrix(0.0833333 0 0 0.0833333 -210.25 -588.5)" d="M 5087.8,9101.05 L 4978.51,9101.05 L 4980.34,9081.05 L 5085.97,9081.05 L 5087.8,9101.05 Z " />
<path stroke="transparent" fill="#000000" transform="matrix(0.0833333 0 0 0.0833333 -210.25 -588.5)" d="M 5082.45,9042.6 L 4983.86,9042.6 L 4985.69,9022.6 L 5080.62,9022.6 L 5082.45,9042.6 Z " />
<path stroke="transparent" fill="#000000" transform="matrix(0.0833333 0 0 0.0833333 -210.25 -588.5)" d="M 5077.1,8984.16 L 4989.21,8984.16 L 4991.04,8964.16 L 5075.27,8964.16 L 5077.1,8984.16 Z " />
<path stroke="transparent" fill="#000000" transform="matrix(0.0833333 0 0 0.0833333 -210.25 -588.5)" d="M 5071.75,8925.71 L 4994.56,8925.71 L 4996.39,8905.71 L 5069.92,8905.71 L 5071.75,8925.71 Z " />
<path stroke="transparent" fill="#000000" transform="matrix(0.0833333 0 0 0.0833333 -210.25 -588.5)" d="M 5066.39,8867.27 L 4999.92,8867.27 L 5001.75,8847.27 L 5064.56,8847.27 L 5066.39,8867.27 Z " />
<path stroke="transparent" fill="#000000" transform="matrix(0.0833333 0 0 0.0833333 -210.25 -588.5)" d="M 5061.04,8808.82 L 5005.27,8808.82 L 5007.1,8788.82 L 5059.21,8788.82 L 5061.04,8808.82 Z " />
<path stroke="transparent" fill="#000000" transform="matrix(0.0833333 0 0 0.0833333 -210.25 -588.5)" d="M 5055.69,8750.38 L 5010.62,8750.38 L 5012.45,8730.38 L 5053.86,8730.38 L 5055.69,8750.38 Z " />
<path stroke="transparent" fill="#000000" transform="matrix(0.0833333 0 0 0.0833333 -210.25 -588.5)" d="M 5050.34,8691.93 L 5015.97,8691.93 L 5017.8,8671.93 L 5048.51,8671.93 L 5050.34,8691.93 Z " />
<path stroke="transparent" fill="#000000" transform="matrix(0.0833333 0 0 0.0833333 -210.25 -588.5)" d="M 5044.99,8633.49 L 5021.32,8633.49 L 5023.16,8613.49 L 5043.16,8613.49 L 5044.99,8633.49 Z " />
</svg>
