<?xml version="1.0" standalone="no" ?>
<!DOCTYPE svg PUBLIC "-//W3C//DTD SVG 1.1//EN" "http://www.w3.org/Graphics/SVG/1.1/DTD/svg11.dtd">
<svg width="460px" height="191px" viewBox="0 0 460 191" style="background-color: #ffffff00" xmlns="http://www.w3.org/2000/svg" xmlns:xlink="http://www.w3.org/1999/xlink" version="1.1" >
<text x="0" y="0" stroke="transparent" fill="#000000" transform="matrix(0.0833333 0 0 0.0833333 405.56 17.9375)" style="font:normal normal normal 200px 'Arial'" >
O</text>
<text x="0" y="0" stroke="transparent" fill="#000000" transform="matrix(0.0833333 0 0 0.0833333 232.353 17.9375)" style="font:normal normal normal 200px 'Arial'" >
O</text>
<text x="0" y="0" stroke="transparent" fill="#000000" transform="matrix(0.0833333 0 0 0.0833333 145.751 17.9375)" style="font:normal normal normal 200px 'Arial'" >
O</text>
<text x="0" y="0" stroke="transparent" fill="#000000" transform="matrix(0.0833333 0 0 0.0833333 3.80558 42.9347)" style="font:normal normal normal 200px 'Arial'" >
HO</text>
<text x="0" y="0" stroke="transparent" fill="#000000" transform="matrix(0.0833333 0 0 0.0833333 47.1098 117.936)" style="font:normal normal normal 200px 'Arial'" >
HO</text>
<text x="0" y="0" stroke="transparent" fill="#000000" transform="matrix(0.0833333 0 0 0.0833333 145.751 167.937)" style="font:normal normal normal 200px 'Arial'" >
OH</text>
<text x="0" y="0" stroke="transparent" fill="#000000" transform="matrix(0.0833333 0 0 0.0833333 232.353 117.936)" style="font:normal normal normal 200px 'Arial'" >
OH</text>
<text x="0" y="0" stroke="transparent" fill="#000000" transform="matrix(0.0833333 0 0 0.0833333 318.958 167.937)" style="font:normal normal normal 200px 'Arial'" >
O</text>
<text x="0" y="0" stroke="transparent" fill="#000000" transform="matrix(0.0833333 0 0 0.0833333 405.56 117.94)" style="font:normal normal normal 200px 'Arial'" >
O</text>
<path stroke="transparent" fill="#000000" transform="matrix(0.0833333 0 0 0.0833333 -206.208 -264)" d="M 7514.26,3371.67 L 7524.26,3354.35 L 7943.83,3596.6 L 7933.83,3613.92 L 7514.26,3371.67 Z " />
<path stroke="transparent" fill="#000000" transform="matrix(0.0833333 0 0 0.0833333 -206.208 -264)" d="M 6909.61,3611.03 L 6899.61,3605.26 L 6899.61,3593.71 L 7314.62,3354.1 L 7324.62,3371.42 L 6909.61,3611.03 Z " />
<path stroke="transparent" fill="#000000" transform="matrix(0.0833333 0 0 0.0833333 -206.208 -264)" d="M 6380,3316.8 L 6380,3293.7 L 6899.61,3593.71 L 6899.61,3605.26 L 6889.61,3611.03 L 6380,3316.8 Z " />
<path stroke="transparent" fill="#000000" transform="matrix(0.0833333 0 0 0.0833333 -206.208 -264)" d="M 6375,3397.05 L 6385,3379.73 L 6832.61,3638.17 L 6822.61,3655.49 L 6375,3397.05 Z " />
<path stroke="transparent" fill="#000000" transform="matrix(0.0833333 0 0 0.0833333 -206.208 -264)" d="M 5870.39,3610.99 L 5860.39,3605.22 L 5860.39,3593.67 L 6380,3293.7 L 6380,3316.8 L 5870.39,3610.99 Z " />
<path stroke="transparent" fill="#000000" transform="matrix(0.0833333 0 0 0.0833333 -206.208 -264)" d="M 5435.78,3371.66 L 5445.78,3354.34 L 5860.39,3593.67 L 5860.39,3605.22 L 5850.39,3610.99 L 5435.78,3371.66 Z " />
<path stroke="transparent" fill="#000000" transform="matrix(0.0833333 0 0 0.0833333 -206.208 -264)" d="M 4831.13,3610.99 L 4821.13,3605.22 L 4821.13,3593.67 L 5236.13,3354.09 L 5246.13,3371.41 L 4831.13,3610.99 Z " />
<path stroke="transparent" fill="#000000" transform="matrix(0.0833333 0 0 0.0833333 -206.208 -264)" d="M 4396.55,3371.66 L 4406.55,3354.34 L 4821.13,3593.67 L 4821.13,3605.22 L 4811.13,3610.99 L 4396.55,3371.66 Z " />
<path stroke="transparent" fill="#000000" transform="matrix(0.0833333 0 0 0.0833333 -206.208 -264)" d="M 3791.86,3610.99 L 3781.86,3605.22 L 3781.86,3593.67 L 4196.91,3354.09 L 4206.91,3371.41 L 3791.86,3610.99 Z " />
<path stroke="transparent" fill="#000000" transform="matrix(0.0833333 0 0 0.0833333 -206.208 -264)" d="M 3262.25,3316.8 L 3262.25,3293.7 L 3781.86,3593.67 L 3781.86,3605.22 L 3771.86,3610.99 L 3262.25,3316.8 Z " />
<path stroke="transparent" fill="#000000" transform="matrix(0.0833333 0 0 0.0833333 -206.208 -264)" d="M 2840.21,3560.42 L 2830.22,3543.09 L 3262.25,3293.7 L 3262.25,3316.8 L 2840.21,3560.42 Z " />
<path stroke="transparent" fill="#000000" transform="matrix(0.0833333 0 0 0.0833333 -206.208 -264)" d="M 3791.86,4199.46 L 3781.86,4205.23 L 3771.86,4199.46 L 3771.86,3610.99 L 3781.86,3605.22 L 3791.86,3610.99 L 3791.86,4199.46 Z " />
<path stroke="transparent" fill="#000000" transform="matrix(0.0833333 0 0 0.0833333 -206.208 -264)" d="M 3359.86,4460.43 L 3349.86,4443.11 L 3771.86,4199.46 L 3781.86,4205.23 L 3781.86,4216.78 L 3359.86,4460.43 Z " />
<path stroke="transparent" fill="#000000" transform="matrix(0.0833333 0 0 0.0833333 -206.208 -264)" d="M 4301.51,4493.69 L 4301.51,4505.24 L 4291.51,4511.01 L 3781.86,4216.78 L 3781.86,4205.23 L 3791.86,4199.46 L 4301.51,4493.69 Z " />
<path stroke="transparent" fill="#000000" transform="matrix(0.0833333 0 0 0.0833333 -206.208 -264)" d="M 4311.51,5000.08 L 4291.51,5000.08 L 4291.51,4511.01 L 4301.51,4505.24 L 4311.51,4511.01 L 4311.51,5000.08 Z " />
<path stroke="transparent" fill="#000000" transform="matrix(0.0833333 0 0 0.0833333 -206.208 -264)" d="M 4811.13,4199.46 L 4821.13,4205.23 L 4821.13,4216.78 L 4311.51,4511.01 L 4301.51,4505.24 L 4301.51,4493.69 L 4811.13,4199.46 Z " />
<path stroke="transparent" fill="#000000" transform="matrix(0.0833333 0 0 0.0833333 -206.208 -264)" d="M 4831.13,4199.46 L 4821.13,4205.23 L 4811.13,4199.46 L 4811.13,3610.99 L 4821.13,3605.22 L 4831.13,3610.99 L 4831.13,4199.46 Z " />
<path stroke="transparent" fill="#000000" transform="matrix(0.0833333 0 0 0.0833333 -206.208 -264)" d="M 5253.12,4443.1 L 5243.12,4460.42 L 4821.13,4216.78 L 4821.13,4205.23 L 4831.13,4199.46 L 5253.12,4443.1 Z " />
<path stroke="transparent" fill="#000000" transform="matrix(0.0833333 0 0 0.0833333 -206.208 -264)" d="M 5870.39,4199.46 L 5850.39,4211 L 5850.39,3610.99 L 5860.39,3605.22 L 5870.39,3610.99 L 5870.39,4199.46 Z " />
<path stroke="transparent" fill="#000000" transform="matrix(0.0833333 0 0 0.0833333 -206.208 -264)" d="M 5942.39,4163.66 L 5922.39,4163.66 L 5922.39,3646.79 L 5942.39,3646.79 L 5942.39,4163.66 Z " />
<path stroke="transparent" fill="#000000" transform="matrix(0.0833333 0 0 0.0833333 -206.208 -264)" d="M 6380,4493.69 L 6380,4505.24 L 6370,4511.01 L 5850.39,4211 L 5870.39,4199.46 L 6380,4493.69 Z " />
<path stroke="transparent" fill="#000000" transform="matrix(0.0833333 0 0 0.0833333 -206.208 -264)" d="M 6390,5000.08 L 6370,5000.08 L 6370,4511.01 L 6380,4505.24 L 6390,4511.01 L 6390,5000.08 Z " />
<path stroke="transparent" fill="#000000" transform="matrix(0.0833333 0 0 0.0833333 -206.208 -264)" d="M 6904.61,5396.6 L 6894.61,5413.92 L 6475.03,5171.67 L 6485.04,5154.35 L 6904.61,5396.6 Z " />
<path stroke="transparent" fill="#000000" transform="matrix(0.0833333 0 0 0.0833333 -206.208 -264)" d="M 6889.61,4199.46 L 6899.61,4205.23 L 6899.61,4216.78 L 6390,4511.01 L 6380,4505.24 L 6380,4493.69 L 6889.61,4199.46 Z " />
<path stroke="transparent" fill="#000000" transform="matrix(0.0833333 0 0 0.0833333 -206.208 -264)" d="M 6822.61,4155 L 6832.61,4172.32 L 6385,4430.76 L 6375,4413.44 L 6822.61,4155 Z " />
<path stroke="transparent" fill="#000000" transform="matrix(0.0833333 0 0 0.0833333 -206.208 -264)" d="M 6909.61,4199.46 L 6899.61,4205.23 L 6889.61,4199.46 L 6889.61,3611.03 L 6899.61,3605.26 L 6909.61,3611.03 L 6909.61,4199.46 Z " />
<path stroke="transparent" fill="#000000" transform="matrix(0.0833333 0 0 0.0833333 -206.208 -264)" d="M 7331.61,4443.14 L 7321.61,4460.46 L 6899.61,4216.78 L 6899.61,4205.23 L 6909.61,4199.46 L 7331.61,4443.14 Z " />
<path stroke="transparent" fill="#000000" transform="matrix(0.0833333 0 0 0.0833333 -206.208 -264)" d="M 7933.83,4196.61 L 7943.83,4213.93 L 7516.84,4460.46 L 7506.84,4443.14 L 7933.83,4196.61 Z " />
</svg>
