<?xml version="1.0" standalone="no" ?>
<!DOCTYPE svg PUBLIC "-//W3C//DTD SVG 1.1//EN" "http://www.w3.org/Graphics/SVG/1.1/DTD/svg11.dtd">
<svg width="603px" height="297px" viewBox="0 0 603 297" style="background-color: #ffffff00" xmlns="http://www.w3.org/2000/svg" xmlns:xlink="http://www.w3.org/1999/xlink" version="1.1" >
<text x="0" y="0" stroke="transparent" fill="#000000" transform="matrix(0.0833333 0 0 0.0833333 468.682 152.881)" style="font:normal normal normal 200px 'Arial'" >
O</text>
<text x="0" y="0" stroke="transparent" fill="#000000" transform="matrix(0.0833333 0 0 0.0833333 84.3793 293.332)" style="font:normal normal normal 200px 'Arial'" >
O</text>
<text x="0" y="0" stroke="transparent" fill="#000000" transform="matrix(0.0833333 0 0 0.0833333 41.078 218.332)" style="font:normal normal normal 200px 'Arial'" >
O</text>
<text x="0" y="0" stroke="transparent" fill="#000000" transform="matrix(0.0833333 0 0 0.0833333 463.455 53.1549)" style="font:normal normal normal 200px 'Arial'" >
O</text>
<path stroke="transparent" fill="#000000" transform="matrix(0.0833333 0 0 0.0833333 -102.333 -597.167)" d="M 7950.64,7593.53 L 7938.88,7577.35 L 7953.99,7564.11 L 7967.9,7583.25 L 7950.64,7593.53 Z " />
<path stroke="transparent" fill="#000000" transform="matrix(0.0833333 0 0 0.0833333 -102.333 -597.167)" d="M 8001.06,7563.51 L 7983.01,7538.67 L 7998.12,7525.43 L 8018.32,7553.24 L 8001.06,7563.51 Z " />
<path stroke="transparent" fill="#000000" transform="matrix(0.0833333 0 0 0.0833333 -102.333 -597.167)" d="M 8051.48,7533.49 L 8027.14,7499.99 L 8042.24,7486.76 L 8068.74,7523.22 L 8051.48,7533.49 Z " />
<path stroke="transparent" fill="#000000" transform="matrix(0.0833333 0 0 0.0833333 -102.333 -597.167)" d="M 8101.9,7503.48 L 8071.27,7461.32 L 8086.37,7448.08 L 8119.16,7493.2 L 8101.9,7503.48 Z " />
<path stroke="transparent" fill="#000000" transform="matrix(0.0833333 0 0 0.0833333 -102.333 -597.167)" d="M 8152.32,7473.46 L 8115.4,7422.64 L 8130.5,7409.4 L 8169.58,7463.18 L 8152.32,7473.46 Z " />
<path stroke="transparent" fill="#000000" transform="matrix(0.0833333 0 0 0.0833333 -102.333 -597.167)" d="M 8202.74,7443.44 L 8159.53,7383.96 L 8174.63,7370.72 L 8220,7433.17 L 8202.74,7443.44 Z " />
<path stroke="transparent" fill="#000000" transform="matrix(0.0833333 0 0 0.0833333 -102.333 -597.167)" d="M 8253.16,7413.42 L 8203.66,7345.29 L 8218.76,7332.05 L 8270.42,7403.15 L 8253.16,7413.42 Z " />
<path stroke="transparent" fill="#000000" transform="matrix(0.0833333 0 0 0.0833333 -102.333 -597.167)" d="M 8303.58,7383.41 L 8247.78,7306.61 L 8262.89,7293.37 L 8320.84,7373.13 L 8303.58,7383.41 Z " />
<path stroke="transparent" fill="#000000" transform="matrix(0.0833333 0 0 0.0833333 -102.333 -597.167)" d="M 8354,7353.39 L 8291.91,7267.93 L 8307.02,7254.69 L 8371.26,7343.12 L 8354,7353.39 Z " />
<path stroke="transparent" fill="#000000" transform="matrix(0.0833333 0 0 0.0833333 -102.333 -597.167)" d="M 8404.42,7323.37 L 8336.04,7229.26 L 8351.15,7216.02 L 8421.68,7313.1 L 8404.42,7323.37 Z " />
<path stroke="transparent" fill="#000000" transform="matrix(0.0833333 0 0 0.0833333 -102.333 -597.167)" d="M 7974.27,8218.64 L 7953.17,8209.25 L 7891.66,7624.02 L 7910.34,7610.44 L 7974.27,8218.64 Z " />
<path stroke="transparent" fill="#000000" transform="matrix(0.0833333 0 0 0.0833333 -102.333 -597.167)" d="M 7434.52,8610.79 L 7525.7,8519.82 L 7953.17,8209.25 L 7974.27,8218.64 L 7434.52,8610.79 Z " />
<path stroke="transparent" fill="#000000" transform="matrix(0.0833333 0 0 0.0833333 -102.333 -597.167)" d="M 6940.18,8339.43 L 6930.18,8322.57 L 6934.25,8313.44 L 7525.7,8519.82 L 7434.52,8610.79 L 6940.18,8339.43 Z " />
<path stroke="transparent" fill="#000000" transform="matrix(0.0833333 0 0 0.0833333 -102.333 -597.167)" d="M 6414.14,8165.41 L 6306.46,8109.4 L 6933.27,8313.06 L 6930.18,8322.57 L 6920.18,8329.84 L 6414.14,8165.41 Z " />
<path stroke="transparent" fill="#000000" transform="matrix(0.0833333 0 0 0.0833333 -102.333 -597.167)" d="M 6019.6,8623.07 L 6006.88,8622.57 L 6000.3,8614.19 L 6306.46,8109.4 L 6414.14,8165.41 L 6019.6,8623.07 Z " />
<path stroke="transparent" fill="#000000" transform="matrix(0.0833333 0 0 0.0833333 -102.333 -597.167)" d="M 6362.92,9095.61 L 6359.55,9107.98 L 6347.19,9107.98 L 6003.06,8634.33 L 6006.88,8622.57 L 6019.6,8623.07 L 6362.92,9095.61 Z " />
<path stroke="transparent" fill="#000000" transform="matrix(0.0833333 0 0 0.0833333 -102.333 -597.167)" d="M 6805.16,8900.11 L 6842.24,9014.23 L 6365.44,9116.89 L 6359.55,9107.98 L 6362.92,9095.61 L 6805.16,8900.11 Z " />
<path stroke="transparent" fill="#000000" transform="matrix(0.0833333 0 0 0.0833333 -102.333 -597.167)" d="M 6940.18,8817.41 L 6920.18,8817.41 L 6920.18,8329.84 L 6930.18,8322.57 L 6940.18,8339.43 L 6940.18,8817.41 Z " />
<path stroke="transparent" fill="#000000" transform="matrix(0.0833333 0 0 0.0833333 -102.333 -597.167)" d="M 5980.24,9647.06 L 6034.43,9538.45 L 6347.19,9107.98 L 6359.55,9107.98 L 6365.44,9116.89 L 5980.24,9647.06 Z " />
<path stroke="transparent" fill="#000000" transform="matrix(0.0833333 0 0 0.0833333 -102.333 -597.167)" d="M 5436.98,9419.1 L 5436.24,9407.98 L 5446.24,9400.1 L 6034.43,9538.45 L 5980.24,9647.06 L 5436.98,9419.1 Z " />
<path stroke="transparent" fill="#000000" transform="matrix(0.0833333 0 0 0.0833333 -102.333 -597.167)" d="M 5426.24,8813.76 L 5436.24,8807.98 L 5446.24,8815.25 L 5446.24,9400.1 L 5436.24,9407.98 L 5426.24,9402.21 L 5426.24,8813.76 Z " />
<path stroke="transparent" fill="#000000" transform="matrix(0.0833333 0 0 0.0833333 -102.333 -597.167)" d="M 5446.24,8815.25 L 5436.24,8807.98 L 5449.18,8793.26 L 6000.3,8614.19 L 6006.88,8622.57 L 6003.06,8634.33 L 5446.24,8815.25 Z " />
<path stroke="transparent" fill="#000000" transform="matrix(0.0833333 0 0 0.0833333 -102.333 -597.167)" d="M 4916.63,8519.53 L 4916.63,8496.44 L 5426.64,8790.89 L 5436.24,8807.98 L 5426.24,8813.76 L 4916.63,8519.53 Z " />
<path stroke="transparent" fill="#000000" transform="matrix(0.0833333 0 0 0.0833333 -102.333 -597.167)" d="M 4459.03,8783.72 L 4338.85,8830.02 L 4916.63,8496.44 L 4916.63,8519.53 L 4459.03,8783.72 Z " />
<path stroke="transparent" fill="#000000" transform="matrix(0.0833333 0 0 0.0833333 -102.333 -597.167)" d="M 4407.47,9402.47 L 4397.01,9407.98 L 4386.55,9402.47 L 4338.85,8830.02 L 4459.03,8783.72 L 4407.47,9402.47 Z " />
<path stroke="transparent" fill="#000000" transform="matrix(0.0833333 0 0 0.0833333 -102.333 -597.167)" d="M 4916.63,9696.44 L 4916.63,9719.53 L 4397.01,9419.53 L 4397.01,9407.98 L 4407.47,9402.47 L 4916.63,9696.44 Z " />
<path stroke="transparent" fill="#000000" transform="matrix(0.0833333 0 0 0.0833333 -102.333 -597.167)" d="M 4916.63,9719.53 L 4916.63,9696.44 L 5426.24,9402.21 L 5436.24,9407.98 L 5436.98,9419.1 L 4916.63,9719.53 Z " />
<path stroke="transparent" fill="#000000" transform="matrix(0.0833333 0 0 0.0833333 -102.333 -597.167)" d="M 4976.63,10253.9 L 4856.63,10253.9 L 4858.66,10233.9 L 4974.59,10233.9 L 4976.63,10253.9 Z " />
<path stroke="transparent" fill="#000000" transform="matrix(0.0833333 0 0 0.0833333 -102.333 -597.167)" d="M 4970.63,10194.9 L 4862.62,10194.9 L 4864.66,10174.9 L 4968.6,10174.9 L 4970.63,10194.9 Z " />
<path stroke="transparent" fill="#000000" transform="matrix(0.0833333 0 0 0.0833333 -102.333 -597.167)" d="M 4964.64,10135.9 L 4868.62,10135.9 L 4870.65,10115.9 L 4962.6,10115.9 L 4964.64,10135.9 Z " />
<path stroke="transparent" fill="#000000" transform="matrix(0.0833333 0 0 0.0833333 -102.333 -597.167)" d="M 4958.64,10077 L 4874.61,10077 L 4876.65,10057 L 4956.61,10057 L 4958.64,10077 Z " />
<path stroke="transparent" fill="#000000" transform="matrix(0.0833333 0 0 0.0833333 -102.333 -597.167)" d="M 4952.64,10018 L 4880.61,10018 L 4882.64,9997.98 L 4950.61,9997.98 L 4952.64,10018 Z " />
<path stroke="transparent" fill="#000000" transform="matrix(0.0833333 0 0 0.0833333 -102.333 -597.167)" d="M 4946.65,9959 L 4886.61,9959 L 4888.64,9939 L 4944.61,9939 L 4946.65,9959 Z " />
<path stroke="transparent" fill="#000000" transform="matrix(0.0833333 0 0 0.0833333 -102.333 -597.167)" d="M 4940.65,9900.03 L 4892.6,9900.03 L 4894.64,9880.03 L 4938.62,9880.03 L 4940.65,9900.03 Z " />
<path stroke="transparent" fill="#000000" transform="matrix(0.0833333 0 0 0.0833333 -102.333 -597.167)" d="M 4934.66,9841.05 L 4898.6,9841.05 L 4900.63,9821.05 L 4932.62,9821.05 L 4934.66,9841.05 Z " />
<path stroke="transparent" fill="#000000" transform="matrix(0.0833333 0 0 0.0833333 -102.333 -597.167)" d="M 4928.66,9782.07 L 4904.59,9782.07 L 4906.63,9762.07 L 4926.63,9762.07 L 4928.66,9782.07 Z " />
<path stroke="transparent" fill="#000000" transform="matrix(0.0833333 0 0 0.0833333 -102.333 -597.167)" d="M 4402.01,10616.6 L 4392.01,10599.3 L 4911.63,10299.3 L 4921.63,10316.6 L 4402.01,10616.6 Z " />
<path stroke="transparent" fill="#000000" transform="matrix(0.0833333 0 0 0.0833333 -102.333 -597.167)" d="M 3919.16,10343.6 L 3929.16,10326.3 L 3947.5,10334.6 L 3935.47,10355.4 L 3919.16,10343.6 Z " />
<path stroke="transparent" fill="#000000" transform="matrix(0.0833333 0 0 0.0833333 -102.333 -597.167)" d="M 3967.26,10378.3 L 3983.26,10350.6 L 4001.59,10358.9 L 3983.56,10390.1 L 3967.26,10378.3 Z " />
<path stroke="transparent" fill="#000000" transform="matrix(0.0833333 0 0 0.0833333 -102.333 -597.167)" d="M 4015.36,10413 L 4037.35,10374.9 L 4055.69,10383.2 L 4031.66,10424.8 L 4015.36,10413 Z " />
<path stroke="transparent" fill="#000000" transform="matrix(0.0833333 0 0 0.0833333 -102.333 -597.167)" d="M 4063.45,10447.7 L 4091.44,10399.2 L 4109.78,10407.5 L 4079.76,10459.5 L 4063.45,10447.7 Z " />
<path stroke="transparent" fill="#000000" transform="matrix(0.0833333 0 0 0.0833333 -102.333 -597.167)" d="M 4111.55,10482.4 L 4145.54,10423.6 L 4163.87,10431.8 L 4127.86,10494.2 L 4111.55,10482.4 Z " />
<path stroke="transparent" fill="#000000" transform="matrix(0.0833333 0 0 0.0833333 -102.333 -597.167)" d="M 4159.65,10517.1 L 4199.63,10447.9 L 4217.97,10456.1 L 4175.95,10528.9 L 4159.65,10517.1 Z " />
<path stroke="transparent" fill="#000000" transform="matrix(0.0833333 0 0 0.0833333 -102.333 -597.167)" d="M 4207.75,10551.8 L 4253.72,10472.2 L 4272.06,10480.4 L 4224.05,10563.6 L 4207.75,10551.8 Z " />
<path stroke="transparent" fill="#000000" transform="matrix(0.0833333 0 0 0.0833333 -102.333 -597.167)" d="M 4255.85,10586.5 L 4307.82,10496.5 L 4326.15,10504.7 L 4272.15,10598.3 L 4255.85,10586.5 Z " />
<path stroke="transparent" fill="#000000" transform="matrix(0.0833333 0 0 0.0833333 -102.333 -597.167)" d="M 4303.94,10621.2 L 4361.91,10520.8 L 4380.25,10529 L 4320.25,10632.9 L 4303.94,10621.2 Z " />
<path stroke="transparent" fill="#000000" transform="matrix(0.0833333 0 0 0.0833333 -102.333 -597.167)" d="M 3867.4,9713.76 L 3877.4,9707.98 L 3887.4,9713.76 L 3887.4,10313.8 L 3867.4,10302.2 L 3867.4,9713.76 Z " />
<path stroke="transparent" fill="#000000" transform="matrix(0.0833333 0 0 0.0833333 -102.333 -597.167)" d="M 3887.4,9713.76 L 3877.4,9707.98 L 3888.91,9689.79 L 4386.55,9402.47 L 4397.01,9407.98 L 4397.01,9419.53 L 3887.4,9713.76 Z " />
<path stroke="transparent" fill="#000000" transform="matrix(0.0833333 0 0 0.0833333 -102.333 -597.167)" d="M 3357.78,9419.53 L 3357.78,9396.44 L 3865.88,9689.79 L 3877.4,9707.98 L 3867.4,9713.76 L 3357.78,9419.53 Z " />
<path stroke="transparent" fill="#000000" transform="matrix(0.0833333 0 0 0.0833333 -102.333 -597.167)" d="M 2848.17,9713.76 L 2828.17,9702.21 L 3357.78,9396.44 L 3357.78,9419.53 L 2848.17,9713.76 Z " />
<path stroke="transparent" fill="#000000" transform="matrix(0.0833333 0 0 0.0833333 -102.333 -597.167)" d="M 2848.17,10302.2 L 2838.17,10308 L 2828.17,10301.6 L 2828.17,9702.21 L 2848.17,9713.76 L 2848.17,10302.2 Z " />
<path stroke="transparent" fill="#000000" transform="matrix(0.0833333 0 0 0.0833333 -102.333 -597.167)" d="M 3357.78,10596.4 L 3357.78,10619.5 L 2838.72,10319.8 L 2838.17,10308 L 2848.17,10302.2 L 3357.78,10596.4 Z " />
<path stroke="transparent" fill="#000000" transform="matrix(0.0833333 0 0 0.0833333 -102.333 -597.167)" d="M 3357.78,10619.5 L 3357.78,10596.4 L 3867.4,10302.2 L 3887.4,10313.8 L 3357.78,10619.5 Z " />
<path stroke="transparent" fill="#000000" transform="matrix(0.0833333 0 0 0.0833333 -102.333 -597.167)" d="M 2441.17,10606.5 L 2381.17,10502.5 L 2828.17,10301.6 L 2838.17,10308 L 2838.72,10319.8 L 2441.17,10606.5 Z " />
<path stroke="transparent" fill="#000000" transform="matrix(0.0833333 0 0 0.0833333 -102.333 -597.167)" d="M 1798.94,10319.5 L 1798.94,10296.4 L 2230.93,10545.8 L 2220.93,10563.2 L 1798.94,10319.5 Z " />
<path stroke="transparent" fill="#000000" transform="matrix(0.0833333 0 0 0.0833333 -102.333 -597.167)" d="M 1752.94,9827.82 L 1772.94,9827.82 L 1772.94,10328.8 L 1752.94,10328.8 L 1752.94,9827.82 Z " />
<path stroke="transparent" fill="#000000" transform="matrix(0.0833333 0 0 0.0833333 -102.333 -597.167)" d="M 1824.94,9827.82 L 1844.94,9827.82 L 1844.94,10328.8 L 1824.94,10328.8 L 1824.94,9827.82 Z " />
<path stroke="transparent" fill="#000000" transform="matrix(0.0833333 0 0 0.0833333 -102.333 -597.167)" d="M 1284.32,10616.6 L 1274.32,10599.3 L 1798.94,10296.4 L 1798.94,10319.5 L 1284.32,10616.6 Z " />
<path stroke="transparent" fill="#000000" transform="matrix(0.0833333 0 0 0.0833333 -102.333 -597.167)" d="M 3817.4,9107.98 L 3937.4,9107.98 L 3888.91,9689.79 L 3877.4,9707.98 L 3865.88,9689.79 L 3817.4,9107.98 Z " />
<path stroke="transparent" fill="#000000" transform="matrix(0.0833333 0 0 0.0833333 -102.333 -597.167)" d="M 5439.29,8205 L 5558.63,8217.54 L 5449.18,8793.26 L 5436.24,8807.98 L 5426.64,8790.89 L 5439.29,8205 Z " />
<path stroke="transparent" fill="#000000" transform="matrix(0.0833333 0 0 0.0833333 -102.333 -597.167)" d="M 6117.07,7585.07 L 6231.2,7547.99 L 6235.64,7567.57 L 6125,7603.52 L 6117.07,7585.07 Z " />
<path stroke="transparent" fill="#000000" transform="matrix(0.0833333 0 0 0.0833333 -102.333 -597.167)" d="M 6140.22,7638.99 L 6244.17,7605.22 L 6248.61,7624.8 L 6148.14,7657.44 L 6140.22,7638.99 Z " />
<path stroke="transparent" fill="#000000" transform="matrix(0.0833333 0 0 0.0833333 -102.333 -597.167)" d="M 6163.37,7692.91 L 6257.14,7662.44 L 6261.57,7682.03 L 6171.29,7711.37 L 6163.37,7692.91 Z " />
<path stroke="transparent" fill="#000000" transform="matrix(0.0833333 0 0 0.0833333 -102.333 -597.167)" d="M 6186.52,7746.83 L 6270.1,7719.67 L 6274.54,7739.26 L 6194.44,7765.29 L 6186.52,7746.83 Z " />
<path stroke="transparent" fill="#000000" transform="matrix(0.0833333 0 0 0.0833333 -102.333 -597.167)" d="M 6209.66,7800.75 L 6283.07,7776.9 L 6287.51,7796.49 L 6217.59,7819.21 L 6209.66,7800.75 Z " />
<path stroke="transparent" fill="#000000" transform="matrix(0.0833333 0 0 0.0833333 -102.333 -597.167)" d="M 6232.81,7854.67 L 6296.04,7834.13 L 6300.47,7853.72 L 6240.73,7873.13 L 6232.81,7854.67 Z " />
<path stroke="transparent" fill="#000000" transform="matrix(0.0833333 0 0 0.0833333 -102.333 -597.167)" d="M 6255.96,7908.59 L 6309,7891.36 L 6313.44,7910.94 L 6263.88,7927.05 L 6255.96,7908.59 Z " />
<path stroke="transparent" fill="#000000" transform="matrix(0.0833333 0 0 0.0833333 -102.333 -597.167)" d="M 6279.11,7962.51 L 6321.97,7948.59 L 6326.41,7968.17 L 6287.03,7980.97 L 6279.11,7962.51 Z " />
<path stroke="transparent" fill="#000000" transform="matrix(0.0833333 0 0 0.0833333 -102.333 -597.167)" d="M 6302.25,8016.43 L 6334.94,8005.81 L 6339.38,8025.4 L 6310.18,8034.89 L 6302.25,8016.43 Z " />
<path stroke="transparent" fill="#000000" transform="matrix(0.0833333 0 0 0.0833333 -102.333 -597.167)" d="M 6325.4,8070.35 L 6347.91,8063.04 L 6352.34,8082.63 L 6333.32,8088.81 L 6325.4,8070.35 Z " />
<path stroke="transparent" fill="#000000" transform="matrix(0.0833333 0 0 0.0833333 -102.333 -597.167)" d="M 6820.27,7850.87 L 6939.62,7838.33 L 6939.38,7858.46 L 6824.7,7870.52 L 6820.27,7850.87 Z " />
<path stroke="transparent" fill="#000000" transform="matrix(0.0833333 0 0 0.0833333 -102.333 -597.167)" d="M 6833.11,7907.92 L 6938.92,7896.8 L 6938.68,7916.93 L 6837.54,7927.56 L 6833.11,7907.92 Z " />
<path stroke="transparent" fill="#000000" transform="matrix(0.0833333 0 0 0.0833333 -102.333 -597.167)" d="M 6845.96,7964.97 L 6938.22,7955.27 L 6937.98,7975.4 L 6850.38,7984.61 L 6845.96,7964.97 Z " />
<path stroke="transparent" fill="#000000" transform="matrix(0.0833333 0 0 0.0833333 -102.333 -597.167)" d="M 6858.8,8022.01 L 6937.52,8013.74 L 6937.28,8033.87 L 6863.22,8041.66 L 6858.8,8022.01 Z " />
<path stroke="transparent" fill="#000000" transform="matrix(0.0833333 0 0 0.0833333 -102.333 -597.167)" d="M 6871.64,8079.06 L 6936.82,8072.21 L 6936.58,8092.34 L 6876.06,8098.71 L 6871.64,8079.06 Z " />
<path stroke="transparent" fill="#000000" transform="matrix(0.0833333 0 0 0.0833333 -102.333 -597.167)" d="M 6884.48,8136.11 L 6936.12,8130.68 L 6935.88,8150.82 L 6888.9,8155.75 L 6884.48,8136.11 Z " />
<path stroke="transparent" fill="#000000" transform="matrix(0.0833333 0 0 0.0833333 -102.333 -597.167)" d="M 6897.32,8193.15 L 6935.42,8189.15 L 6935.18,8209.29 L 6901.74,8212.8 L 6897.32,8193.15 Z " />
<path stroke="transparent" fill="#000000" transform="matrix(0.0833333 0 0 0.0833333 -102.333 -597.167)" d="M 6910.16,8250.2 L 6934.72,8247.62 L 6934.48,8267.76 L 6914.58,8269.85 L 6910.16,8250.2 Z " />
<path stroke="transparent" fill="#000000" transform="matrix(0.0833333 0 0 0.0833333 -102.333 -597.167)" d="M 7351.67,7361.7 L 7354.08,7384.67 L 6959.85,7671.1 L 6948.09,7654.92 L 7351.67,7361.7 Z " />
<path stroke="transparent" fill="#000000" transform="matrix(0.0833333 0 0 0.0833333 -102.333 -597.167)" d="M 7354.08,7384.67 L 7351.67,7361.7 L 7910.34,7610.44 L 7891.66,7624.02 L 7354.08,7384.67 Z " />
</svg>
