<?xml version="1.0" standalone="no" ?>
<!DOCTYPE svg PUBLIC "-//W3C//DTD SVG 1.1//EN" "http://www.w3.org/Graphics/SVG/1.1/DTD/svg11.dtd">
<svg width="985px" height="311px" viewBox="0 0 985 311" style="background-color: #ffffff00" xmlns="http://www.w3.org/2000/svg" xmlns:xlink="http://www.w3.org/1999/xlink" version="1.1" >
<text x="0" y="0" stroke="transparent" fill="#000000" transform="matrix(0.0833333 0 0 0.0833333 189.075 137.642)" style="font:normal normal normal 200px 'Arial'" >
O</text>
<text x="0" y="0" stroke="transparent" fill="#000000" transform="matrix(0.0833333 0 0 0.0833333 59.1725 212.642)" style="font:normal normal normal 200px 'Arial'" >
O</text>
<text x="0" y="0" stroke="transparent" fill="#000000" transform="matrix(0.0833333 0 0 0.0833333 3.83333 137.642)" style="font:normal normal normal 200px 'Arial'" >
HO</text>
<text x="0" y="0" stroke="transparent" fill="#000000" transform="matrix(0.0833333 0 0 0.0833333 362.281 137.642)" style="font:normal normal normal 200px 'Arial'" >
O</text>
<text x="0" y="0" stroke="transparent" fill="#000000" transform="matrix(0.0833333 0 0 0.0833333 451.257 182.982)" style="font:normal normal normal 200px 'Arial'" >
O</text>
<text x="0" y="0" stroke="transparent" fill="#000000" transform="matrix(0.0833333 0 0 0.0833333 573.694 150.485)" style="font:normal normal normal 200px 'Arial'" >
O</text>
<text x="0" y="0" stroke="transparent" fill="#000000" transform="matrix(0.0833333 0 0 0.0833333 698.857 130.969)" style="font:normal normal normal 200px 'Arial'" >
O</text>
<text x="0" y="0" stroke="transparent" fill="#000000" transform="matrix(0.0833333 0 0 0.0833333 824.015 83.5755)" style="font:normal normal normal 200px 'Arial'" >
O</text>
<text x="0" y="0" stroke="transparent" fill="#000000" transform="matrix(0.0833333 0 0 0.0833333 955.833 123.982)" style="font:normal normal normal 200px 'Arial'" >
OH</text>
<text x="0" y="0" stroke="transparent" fill="#000000" transform="matrix(0.0833333 0 0 0.0833333 887.021 51.4725)" style="font:normal normal normal 200px 'Arial'" >
OH</text>
<text x="0" y="0" stroke="transparent" fill="#000000" transform="matrix(0.0833333 0 0 0.0833333 362.281 287.642)" style="font:normal normal normal 200px 'Arial'" >
O</text>
<path stroke="transparent" fill="#000000" transform="matrix(0.0833333 0 0 0.0833333 -21.1667 -213)" d="M 1591.71,5381.67 L 1531.7,5277.75 L 1549.94,5269.33 L 1608.11,5370.08 L 1591.71,5381.67 Z " />
<path stroke="transparent" fill="#000000" transform="matrix(0.0833333 0 0 0.0833333 -21.1667 -213)" d="M 1639.63,5347.81 L 1584.98,5253.16 L 1603.22,5244.75 L 1656.04,5336.23 L 1639.63,5347.81 Z " />
<path stroke="transparent" fill="#000000" transform="matrix(0.0833333 0 0 0.0833333 -21.1667 -213)" d="M 1687.56,5313.96 L 1638.26,5228.58 L 1656.49,5220.17 L 1703.96,5302.37 L 1687.56,5313.96 Z " />
<path stroke="transparent" fill="#000000" transform="matrix(0.0833333 0 0 0.0833333 -21.1667 -213)" d="M 1735.48,5280.11 L 1691.53,5204 L 1709.77,5195.58 L 1751.88,5268.52 L 1735.48,5280.11 Z " />
<path stroke="transparent" fill="#000000" transform="matrix(0.0833333 0 0 0.0833333 -21.1667 -213)" d="M 1783.41,5246.26 L 1744.81,5179.42 L 1763.05,5171 L 1799.81,5234.67 L 1783.41,5246.26 Z " />
<path stroke="transparent" fill="#000000" transform="matrix(0.0833333 0 0 0.0833333 -21.1667 -213)" d="M 1831.33,5212.41 L 1798.09,5154.83 L 1816.32,5146.42 L 1847.73,5200.82 L 1831.33,5212.41 Z " />
<path stroke="transparent" fill="#000000" transform="matrix(0.0833333 0 0 0.0833333 -21.1667 -213)" d="M 1879.25,5178.55 L 1851.36,5130.25 L 1869.6,5121.84 L 1895.66,5166.97 L 1879.25,5178.55 Z " />
<path stroke="transparent" fill="#000000" transform="matrix(0.0833333 0 0 0.0833333 -21.1667 -213)" d="M 1927.18,5144.7 L 1904.64,5105.67 L 1922.88,5097.25 L 1943.58,5133.11 L 1927.18,5144.7 Z " />
<path stroke="transparent" fill="#000000" transform="matrix(0.0833333 0 0 0.0833333 -21.1667 -213)" d="M 1975.1,5110.85 L 1957.92,5081.09 L 1976.15,5072.67 L 1991.51,5099.26 L 1975.1,5110.85 Z " />
<path stroke="transparent" fill="#000000" transform="matrix(0.0833333 0 0 0.0833333 -21.1667 -213)" d="M 2023.03,5077 L 2011.19,5056.5 L 2029.43,5048.09 L 2039.43,5065.41 L 2023.03,5077 Z " />
<path stroke="transparent" fill="#000000" transform="matrix(0.0833333 0 0 0.0833333 -21.1667 -213)" d="M 2600.91,5318.16 L 2600.91,5341.25 L 2071.27,5035.48 L 2091.27,5023.93 L 2600.91,5318.16 Z " />
<path stroke="transparent" fill="#000000" transform="matrix(0.0833333 0 0 0.0833333 -21.1667 -213)" d="M 3110.54,5023.93 L 3130.54,5035.48 L 2600.91,5341.25 L 2600.91,5318.16 L 3110.54,5023.93 Z " />
<path stroke="transparent" fill="#000000" transform="matrix(0.0833333 0 0 0.0833333 -21.1667 -213)" d="M 3110.54,4435.48 L 3120.54,4429.71 L 3130.54,4436.01 L 3130.54,5035.48 L 3110.54,5023.93 L 3110.54,4435.48 Z " />
<path stroke="transparent" fill="#000000" transform="matrix(0.0833333 0 0 0.0833333 -21.1667 -213)" d="M 2695.94,4196.12 L 2705.94,4178.8 L 3120.08,4417.89 L 3120.54,4429.71 L 3110.54,4435.48 L 2695.94,4196.12 Z " />
<path stroke="transparent" fill="#000000" transform="matrix(0.0833333 0 0 0.0833333 -21.1667 -213)" d="M 2471.3,4135.25 L 2531.3,4239.17 L 2512.82,4247.16 L 2455.14,4147.26 L 2471.3,4135.25 Z " />
<path stroke="transparent" fill="#000000" transform="matrix(0.0833333 0 0 0.0833333 -21.1667 -213)" d="M 2423.86,4170.5 L 2477.05,4262.63 L 2458.56,4270.62 L 2407.7,4182.51 L 2423.86,4170.5 Z " />
<path stroke="transparent" fill="#000000" transform="matrix(0.0833333 0 0 0.0833333 -21.1667 -213)" d="M 2376.41,4205.76 L 2422.79,4286.09 L 2404.31,4294.08 L 2360.25,4217.77 L 2376.41,4205.76 Z " />
<path stroke="transparent" fill="#000000" transform="matrix(0.0833333 0 0 0.0833333 -21.1667 -213)" d="M 2328.97,4241.01 L 2368.54,4309.55 L 2350.06,4317.54 L 2312.81,4253.02 L 2328.97,4241.01 Z " />
<path stroke="transparent" fill="#000000" transform="matrix(0.0833333 0 0 0.0833333 -21.1667 -213)" d="M 2281.53,4276.27 L 2314.28,4333 L 2295.8,4340.99 L 2265.37,4288.28 L 2281.53,4276.27 Z " />
<path stroke="transparent" fill="#000000" transform="matrix(0.0833333 0 0 0.0833333 -21.1667 -213)" d="M 2234.08,4311.53 L 2260.03,4356.46 L 2241.55,4364.45 L 2217.92,4323.54 L 2234.08,4311.53 Z " />
<path stroke="transparent" fill="#000000" transform="matrix(0.0833333 0 0 0.0833333 -21.1667 -213)" d="M 2186.64,4346.78 L 2205.77,4379.92 L 2187.29,4387.91 L 2170.48,4358.79 L 2186.64,4346.78 Z " />
<path stroke="transparent" fill="#000000" transform="matrix(0.0833333 0 0 0.0833333 -21.1667 -213)" d="M 2139.2,4382.04 L 2151.52,4403.38 L 2133.04,4411.37 L 2123.04,4394.05 L 2139.2,4382.04 Z " />
<path stroke="transparent" fill="#000000" transform="matrix(0.0833333 0 0 0.0833333 -21.1667 -213)" d="M 2071.27,4435.48 L 2091.27,4423.93 L 2091.27,5023.93 L 2071.27,5035.48 L 2071.27,4435.48 Z " />
<path stroke="transparent" fill="#000000" transform="matrix(0.0833333 0 0 0.0833333 -21.1667 -213)" d="M 1561.71,4141.25 L 1561.71,4118.16 L 2091.27,4423.93 L 2071.27,4435.48 L 1561.71,4141.25 Z " />
<path stroke="transparent" fill="#000000" transform="matrix(0.0833333 0 0 0.0833333 -21.1667 -213)" d="M 1501.71,3529.71 L 1621.71,3529.71 L 1619.87,3549.71 L 1503.54,3549.71 L 1501.71,3529.71 Z " />
<path stroke="transparent" fill="#000000" transform="matrix(0.0833333 0 0 0.0833333 -21.1667 -213)" d="M 1507.06,3588.14 L 1616.35,3588.14 L 1614.52,3608.14 L 1508.89,3608.14 L 1507.06,3588.14 Z " />
<path stroke="transparent" fill="#000000" transform="matrix(0.0833333 0 0 0.0833333 -21.1667 -213)" d="M 1512.41,3646.57 L 1611,3646.57 L 1609.17,3666.57 L 1514.24,3666.57 L 1512.41,3646.57 Z " />
<path stroke="transparent" fill="#000000" transform="matrix(0.0833333 0 0 0.0833333 -21.1667 -213)" d="M 1517.76,3705.01 L 1605.65,3705.01 L 1603.82,3725.01 L 1519.59,3725.01 L 1517.76,3705.01 Z " />
<path stroke="transparent" fill="#000000" transform="matrix(0.0833333 0 0 0.0833333 -21.1667 -213)" d="M 1523.11,3763.44 L 1600.3,3763.44 L 1598.47,3783.44 L 1524.95,3783.44 L 1523.11,3763.44 Z " />
<path stroke="transparent" fill="#000000" transform="matrix(0.0833333 0 0 0.0833333 -21.1667 -213)" d="M 1528.47,3821.88 L 1594.95,3821.88 L 1593.11,3841.88 L 1530.3,3841.88 L 1528.47,3821.88 Z " />
<path stroke="transparent" fill="#000000" transform="matrix(0.0833333 0 0 0.0833333 -21.1667 -213)" d="M 1533.82,3880.31 L 1589.59,3880.31 L 1587.76,3900.31 L 1535.65,3900.31 L 1533.82,3880.31 Z " />
<path stroke="transparent" fill="#000000" transform="matrix(0.0833333 0 0 0.0833333 -21.1667 -213)" d="M 1539.17,3938.75 L 1584.24,3938.75 L 1582.41,3958.75 L 1541,3958.75 L 1539.17,3938.75 Z " />
<path stroke="transparent" fill="#000000" transform="matrix(0.0833333 0 0 0.0833333 -21.1667 -213)" d="M 1544.52,3997.18 L 1578.89,3997.18 L 1577.06,4017.18 L 1546.35,4017.18 L 1544.52,3997.18 Z " />
<path stroke="transparent" fill="#000000" transform="matrix(0.0833333 0 0 0.0833333 -21.1667 -213)" d="M 1549.87,4055.62 L 1573.54,4055.62 L 1571.71,4075.62 L 1551.71,4075.62 L 1549.87,4055.62 Z " />
<path stroke="transparent" fill="#000000" transform="matrix(0.0833333 0 0 0.0833333 -21.1667 -213)" d="M 1042.07,4441.25 L 1042.07,4418.16 L 1561.71,4118.16 L 1561.71,4141.25 L 1042.07,4441.25 Z " />
<path stroke="transparent" fill="#000000" transform="matrix(0.0833333 0 0 0.0833333 -21.1667 -213)" d="M 1088.07,4924.54 L 1068.07,4924.54 L 1068.07,4408.92 L 1088.07,4408.92 L 1088.07,4924.54 Z " />
<path stroke="transparent" fill="#000000" transform="matrix(0.0833333 0 0 0.0833333 -21.1667 -213)" d="M 1016.07,4924.54 L 996.07,4924.54 L 996.07,4408.92 L 1016.07,4408.92 L 1016.07,4924.54 Z " />
<path stroke="transparent" fill="#000000" transform="matrix(0.0833333 0 0 0.0833333 -21.1667 -213)" d="M 617.463,4196.12 L 627.463,4178.8 L 1042.07,4418.16 L 1042.07,4441.25 L 617.463,4196.12 Z " />
<path stroke="transparent" fill="#000000" transform="matrix(0.0833333 0 0 0.0833333 -21.1667 -213)" d="M 3640.1,4056.92 L 3640.11,4195.81 L 3130.54,4436.01 L 3120.54,4429.71 L 3120.08,4417.89 L 3640.1,4056.92 Z " />
<path stroke="transparent" fill="#000000" transform="matrix(0.0833333 0 0 0.0833333 -21.1667 -213)" d="M 3640.11,4195.81 L 3640.1,4056.92 L 4160.2,4417.89 L 4159.74,4429.71 L 4149.74,4436.01 L 3640.11,4195.81 Z " />
<path stroke="transparent" fill="#000000" transform="matrix(0.0833333 0 0 0.0833333 -21.1667 -213)" d="M 4169.74,5023.93 L 4149.74,5035.48 L 4149.74,4436.01 L 4159.74,4429.71 L 4169.74,4435.48 L 4169.74,5023.93 Z " />
<path stroke="transparent" fill="#000000" transform="matrix(0.0833333 0 0 0.0833333 -21.1667 -213)" d="M 4679.38,5318.16 L 4679.38,5341.25 L 4149.74,5035.48 L 4169.74,5023.93 L 4679.38,5318.16 Z " />
<path stroke="transparent" fill="#000000" transform="matrix(0.0833333 0 0 0.0833333 -21.1667 -213)" d="M 5189.01,5023.93 L 5209.01,5035.48 L 4679.38,5341.25 L 4679.38,5318.16 L 5189.01,5023.93 Z " />
<path stroke="transparent" fill="#000000" transform="matrix(0.0833333 0 0 0.0833333 -21.1667 -213)" d="M 5189.01,4435.48 L 5199.01,4429.71 L 5209.01,4429.71 L 5209.01,5035.48 L 5189.01,5023.93 L 5189.01,4435.48 Z " />
<path stroke="transparent" fill="#000000" transform="matrix(0.0833333 0 0 0.0833333 -21.1667 -213)" d="M 4774.42,4196.12 L 4784.41,4178.8 L 5190.68,4413.35 L 5199.01,4429.71 L 5189.01,4435.48 L 4774.42,4196.12 Z " />
<path stroke="transparent" fill="#000000" transform="matrix(0.0833333 0 0 0.0833333 -21.1667 -213)" d="M 4574.77,4178.55 L 4584.77,4195.87 L 4169.74,4435.48 L 4159.74,4429.71 L 4160.2,4417.89 L 4574.77,4178.55 Z " />
<path stroke="transparent" fill="#000000" transform="matrix(0.0833333 0 0 0.0833333 -21.1667 -213)" d="M 5252.52,3824.71 L 5270.89,3841.25 L 5208.96,4430.75 L 5199.01,4429.71 L 5190.68,4413.35 L 5252.52,3824.71 Z " />
<path stroke="transparent" fill="#000000" transform="matrix(0.0833333 0 0 0.0833333 -21.1667 -213)" d="M 5853.64,3696.96 L 5843.59,3719.54 L 5270.89,3841.25 L 5252.52,3824.71 L 5853.64,3696.96 Z " />
<path stroke="transparent" fill="#000000" transform="matrix(0.0833333 0 0 0.0833333 -21.1667 -213)" d="M 6152.77,4215.09 L 6148.61,4227.89 L 6136.32,4226.6 L 5843.59,3719.54 L 5853.64,3696.96 L 6152.77,4215.09 Z " />
<path stroke="transparent" fill="#000000" transform="matrix(0.0833333 0 0 0.0833333 -21.1667 -213)" d="M 5825.98,4601.11 L 5811.12,4587.73 L 6136.32,4226.6 L 6148.61,4227.89 L 6154.62,4236.16 L 5825.98,4601.11 Z " />
<path stroke="transparent" fill="#000000" transform="matrix(0.0833333 0 0 0.0833333 -21.1667 -213)" d="M 5673.86,4575.49 L 5625.05,4685.11 L 5607.7,4674.89 L 5654.67,4569.43 L 5673.86,4575.49 Z " />
<path stroke="transparent" fill="#000000" transform="matrix(0.0833333 0 0 0.0833333 -21.1667 -213)" d="M 5616.4,4557.36 L 5573.13,4654.53 L 5555.79,4644.31 L 5597.2,4551.31 L 5616.4,4557.36 Z " />
<path stroke="transparent" fill="#000000" transform="matrix(0.0833333 0 0 0.0833333 -21.1667 -213)" d="M 5558.94,4539.23 L 5521.21,4623.94 L 5503.87,4613.73 L 5539.74,4533.18 L 5558.94,4539.23 Z " />
<path stroke="transparent" fill="#000000" transform="matrix(0.0833333 0 0 0.0833333 -21.1667 -213)" d="M 5501.47,4521.11 L 5469.3,4593.36 L 5451.95,4583.14 L 5482.28,4515.05 L 5501.47,4521.11 Z " />
<path stroke="transparent" fill="#000000" transform="matrix(0.0833333 0 0 0.0833333 -21.1667 -213)" d="M 5444.01,4502.98 L 5417.38,4562.78 L 5400.03,4552.56 L 5424.81,4496.92 L 5444.01,4502.98 Z " />
<path stroke="transparent" fill="#000000" transform="matrix(0.0833333 0 0 0.0833333 -21.1667 -213)" d="M 5386.54,4484.85 L 5365.46,4532.2 L 5348.12,4521.98 L 5367.35,4478.8 L 5386.54,4484.85 Z " />
<path stroke="transparent" fill="#000000" transform="matrix(0.0833333 0 0 0.0833333 -21.1667 -213)" d="M 5329.08,4466.73 L 5313.54,4501.61 L 5296.2,4491.4 L 5309.88,4460.67 L 5329.08,4466.73 Z " />
<path stroke="transparent" fill="#000000" transform="matrix(0.0833333 0 0 0.0833333 -21.1667 -213)" d="M 5271.62,4448.6 L 5261.63,4471.03 L 5244.28,4460.81 L 5252.42,4442.54 L 5271.62,4448.6 Z " />
<path stroke="transparent" fill="#000000" transform="matrix(0.0833333 0 0 0.0833333 -21.1667 -213)" d="M 6669.26,4532 L 6598.73,4629.08 L 6583.62,4615.85 L 6652.01,4521.73 L 6669.26,4532 Z " />
<path stroke="transparent" fill="#000000" transform="matrix(0.0833333 0 0 0.0833333 -21.1667 -213)" d="M 6618.85,4501.99 L 6554.6,4590.41 L 6539.5,4577.17 L 6601.59,4491.71 L 6618.85,4501.99 Z " />
<path stroke="transparent" fill="#000000" transform="matrix(0.0833333 0 0 0.0833333 -21.1667 -213)" d="M 6568.43,4471.97 L 6510.48,4551.73 L 6495.37,4538.5 L 6551.17,4461.7 L 6568.43,4471.97 Z " />
<path stroke="transparent" fill="#000000" transform="matrix(0.0833333 0 0 0.0833333 -21.1667 -213)" d="M 6518.01,4441.96 L 6466.35,4513.06 L 6451.25,4499.82 L 6500.75,4431.68 L 6518.01,4441.96 Z " />
<path stroke="transparent" fill="#000000" transform="matrix(0.0833333 0 0 0.0833333 -21.1667 -213)" d="M 6467.59,4411.94 L 6422.23,4474.38 L 6407.12,4461.15 L 6450.34,4401.67 L 6467.59,4411.94 Z " />
<path stroke="transparent" fill="#000000" transform="matrix(0.0833333 0 0 0.0833333 -21.1667 -213)" d="M 6417.18,4381.92 L 6378.1,4435.71 L 6363,4422.47 L 6399.92,4371.65 L 6417.18,4381.92 Z " />
<path stroke="transparent" fill="#000000" transform="matrix(0.0833333 0 0 0.0833333 -21.1667 -213)" d="M 6366.76,4351.91 L 6333.97,4397.03 L 6318.87,4383.79 L 6349.5,4341.64 L 6366.76,4351.91 Z " />
<path stroke="transparent" fill="#000000" transform="matrix(0.0833333 0 0 0.0833333 -21.1667 -213)" d="M 6316.34,4321.89 L 6289.85,4358.36 L 6274.74,4345.12 L 6299.08,4311.62 L 6316.34,4321.89 Z " />
<path stroke="transparent" fill="#000000" transform="matrix(0.0833333 0 0 0.0833333 -21.1667 -213)" d="M 6265.92,4291.88 L 6245.72,4319.68 L 6230.62,4306.44 L 6248.67,4281.6 L 6265.92,4291.88 Z " />
<path stroke="transparent" fill="#000000" transform="matrix(0.0833333 0 0 0.0833333 -21.1667 -213)" d="M 6215.51,4261.86 L 6201.6,4281.01 L 6186.49,4267.77 L 6198.25,4251.59 L 6215.51,4261.86 Z " />
<path stroke="transparent" fill="#000000" transform="matrix(0.0833333 0 0 0.0833333 -21.1667 -213)" d="M 6687.96,3976.75 L 6696.69,3983.81 L 6695.56,3995.27 L 6154.62,4236.16 L 6148.61,4227.89 L 6152.77,4215.09 L 6687.96,3976.75 Z " />
<path stroke="transparent" fill="#000000" transform="matrix(0.0833333 0 0 0.0833333 -21.1667 -213)" d="M 6813.22,3387.72 L 6829.76,3406.09 L 6708.14,3978.05 L 6696.69,3983.81 L 6687.96,3976.75 L 6813.22,3387.72 Z " />
<path stroke="transparent" fill="#000000" transform="matrix(0.0833333 0 0 0.0833333 -21.1667 -213)" d="M 7424.32,3323.51 L 7411.96,3344.92 L 6829.76,3406.09 L 6813.22,3387.72 L 7424.32,3323.51 Z " />
<path stroke="transparent" fill="#000000" transform="matrix(0.0833333 0 0 0.0833333 -21.1667 -213)" d="M 7667.69,3870.07 L 7662.21,3882.36 L 7650.12,3879.79 L 7411.96,3344.92 L 7424.32,3323.51 L 7667.69,3870.07 Z " />
<path stroke="transparent" fill="#000000" transform="matrix(0.0833333 0 0 0.0833333 -21.1667 -213)" d="M 7302.43,4219.75 L 7289.05,4204.88 L 7650.12,3879.79 L 7662.21,3882.36 L 7667.33,3891.21 L 7302.43,4219.75 Z " />
<path stroke="transparent" fill="#000000" transform="matrix(0.0833333 0 0 0.0833333 -21.1667 -213)" d="M 7153.7,4178.38 L 7093.7,4282.31 L 6695.56,3995.27 L 6696.69,3983.81 L 6708.14,3978.05 L 7153.7,4178.38 Z " />
<path stroke="transparent" fill="#000000" transform="matrix(0.0833333 0 0 0.0833333 -21.1667 -213)" d="M 8148.25,4239.22 L 8067.96,4328.41 L 8054.32,4313.66 L 8132.16,4227.2 L 8148.25,4239.22 Z " />
<path stroke="transparent" fill="#000000" transform="matrix(0.0833333 0 0 0.0833333 -21.1667 -213)" d="M 8101.24,4204.1 L 8028.11,4285.33 L 8014.48,4270.59 L 8085.16,4192.08 L 8101.24,4204.1 Z " />
<path stroke="transparent" fill="#000000" transform="matrix(0.0833333 0 0 0.0833333 -21.1667 -213)" d="M 8054.24,4168.98 L 7988.27,4242.25 L 7974.63,4227.51 L 8038.15,4156.96 L 8054.24,4168.98 Z " />
<path stroke="transparent" fill="#000000" transform="matrix(0.0833333 0 0 0.0833333 -21.1667 -213)" d="M 8007.23,4133.86 L 7948.42,4199.18 L 7934.79,4184.44 L 7991.14,4121.84 L 8007.23,4133.86 Z " />
<path stroke="transparent" fill="#000000" transform="matrix(0.0833333 0 0 0.0833333 -21.1667 -213)" d="M 7960.22,4098.74 L 7908.58,4156.1 L 7894.94,4141.36 L 7944.14,4086.72 L 7960.22,4098.74 Z " />
<path stroke="transparent" fill="#000000" transform="matrix(0.0833333 0 0 0.0833333 -21.1667 -213)" d="M 7913.22,4063.62 L 7868.74,4113.03 L 7855.1,4098.28 L 7897.13,4051.6 L 7913.22,4063.62 Z " />
<path stroke="transparent" fill="#000000" transform="matrix(0.0833333 0 0 0.0833333 -21.1667 -213)" d="M 7866.21,4028.5 L 7828.89,4069.95 L 7815.25,4055.21 L 7850.12,4016.48 L 7866.21,4028.5 Z " />
<path stroke="transparent" fill="#000000" transform="matrix(0.0833333 0 0 0.0833333 -21.1667 -213)" d="M 7819.2,3993.38 L 7789.05,4026.88 L 7775.41,4012.13 L 7803.12,3981.36 L 7819.2,3993.38 Z " />
<path stroke="transparent" fill="#000000" transform="matrix(0.0833333 0 0 0.0833333 -21.1667 -213)" d="M 7772.2,3958.26 L 7749.2,3983.8 L 7735.56,3969.06 L 7756.11,3946.24 L 7772.2,3958.26 Z " />
<path stroke="transparent" fill="#000000" transform="matrix(0.0833333 0 0 0.0833333 -21.1667 -213)" d="M 7725.19,3923.14 L 7709.36,3940.73 L 7695.72,3925.98 L 7709.1,3911.12 L 7725.19,3923.14 Z " />
<path stroke="transparent" fill="#000000" transform="matrix(0.0833333 0 0 0.0833333 -21.1667 -213)" d="M 8224.9,3688.97 L 8232.83,3696.91 L 8230.51,3708.18 L 7667.33,3891.21 L 7662.21,3882.36 L 7667.69,3870.07 L 8224.9,3688.97 Z " />
<path stroke="transparent" fill="#000000" transform="matrix(0.0833333 0 0 0.0833333 -21.1667 -213)" d="M 8407.05,3128.51 L 8418.29,3126.29 L 8425.55,3136.29 L 8244.82,3692.37 L 8232.83,3696.91 L 8224.9,3688.97 L 8407.05,3128.51 Z " />
<path stroke="transparent" fill="#000000" transform="matrix(0.0833333 0 0 0.0833333 -21.1667 -213)" d="M 9025.55,3116.29 L 9011.02,3136.29 L 8425.55,3136.29 L 8418.29,3126.29 L 8423.88,3116.29 L 9025.55,3116.29 Z " />
<path stroke="transparent" fill="#000000" transform="matrix(0.0833333 0 0 0.0833333 -21.1667 -213)" d="M 9211.6,3688.97 L 9195.73,3704.84 L 9011.02,3136.29 L 9025.55,3116.29 L 9211.6,3688.97 Z " />
<path stroke="transparent" fill="#000000" transform="matrix(0.0833333 0 0 0.0833333 -21.1667 -213)" d="M 8840.06,4035.31 L 8769.52,3938.24 L 8787.03,3928.32 L 8854.9,4021.71 L 8840.06,4035.31 Z " />
<path stroke="transparent" fill="#000000" transform="matrix(0.0833333 0 0 0.0833333 -21.1667 -213)" d="M 8884.48,3994.6 L 8821.95,3908.56 L 8839.47,3898.64 L 8899.32,3981 L 8884.48,3994.6 Z " />
<path stroke="transparent" fill="#000000" transform="matrix(0.0833333 0 0 0.0833333 -21.1667 -213)" d="M 8928.9,3953.89 L 8874.39,3878.88 L 8891.91,3868.96 L 8943.74,3940.29 L 8928.9,3953.89 Z " />
<path stroke="transparent" fill="#000000" transform="matrix(0.0833333 0 0 0.0833333 -21.1667 -213)" d="M 8973.33,3913.18 L 8926.83,3849.2 L 8944.35,3839.28 L 8988.17,3899.58 L 8973.33,3913.18 Z " />
<path stroke="transparent" fill="#000000" transform="matrix(0.0833333 0 0 0.0833333 -21.1667 -213)" d="M 9017.75,3872.47 L 8979.27,3819.52 L 8996.79,3809.6 L 9032.59,3858.87 L 9017.75,3872.47 Z " />
<path stroke="transparent" fill="#000000" transform="matrix(0.0833333 0 0 0.0833333 -21.1667 -213)" d="M 9062.17,3831.76 L 9031.71,3789.84 L 9049.22,3779.92 L 9077.01,3818.16 L 9062.17,3831.76 Z " />
<path stroke="transparent" fill="#000000" transform="matrix(0.0833333 0 0 0.0833333 -21.1667 -213)" d="M 9106.59,3791.05 L 9084.14,3760.16 L 9101.66,3750.25 L 9121.43,3777.45 L 9106.59,3791.05 Z " />
<path stroke="transparent" fill="#000000" transform="matrix(0.0833333 0 0 0.0833333 -21.1667 -213)" d="M 9151.02,3750.35 L 9136.58,3730.48 L 9154.1,3720.57 L 9165.86,3736.75 L 9151.02,3750.35 Z " />
<path stroke="transparent" fill="#000000" transform="matrix(0.0833333 0 0 0.0833333 -21.1667 -213)" d="M 8667.05,3938.24 L 8596.51,4035.32 L 8230.51,3708.18 L 8232.83,3696.91 L 8244.82,3692.37 L 8667.05,3938.24 Z " />
<path stroke="transparent" fill="#000000" transform="matrix(0.0833333 0 0 0.0833333 -21.1667 -213)" d="M 9771.27,3870.86 L 9774.29,3882.36 L 9765.71,3890.09 L 9195.73,3704.84 L 9211.6,3688.97 L 9771.27,3870.86 Z " />
<path stroke="transparent" fill="#000000" transform="matrix(0.0833333 0 0 0.0833333 -21.1667 -213)" d="M 9907.67,4461.54 L 9890.51,4477 L 9765.71,3890.09 L 9774.29,3882.36 L 9785.4,3886.57 L 9907.67,4461.54 Z " />
<path stroke="transparent" fill="#000000" transform="matrix(0.0833333 0 0 0.0833333 -21.1667 -213)" d="M 10467.3,4643.36 L 10472.1,4665.95 L 9890.51,4477 L 9907.67,4461.54 L 10467.3,4643.36 Z " />
<path stroke="transparent" fill="#000000" transform="matrix(0.0833333 0 0 0.0833333 -21.1667 -213)" d="M 10904.6,4249.63 L 10926.6,4256.76 L 10472.1,4665.95 L 10467.3,4643.36 L 10904.6,4249.63 Z " />
<path stroke="transparent" fill="#000000" transform="matrix(0.0833333 0 0 0.0833333 -21.1667 -213)" d="M 10782.2,3674.01 L 10790.8,3666.29 L 10802.8,3674.81 L 10926.6,4256.76 L 10904.6,4249.63 L 10782.2,3674.01 Z " />
<path stroke="transparent" fill="#000000" transform="matrix(0.0833333 0 0 0.0833333 -21.1667 -213)" d="M 10323.9,3525.11 L 10330.1,3506.09 L 10791,3655.83 L 10790.8,3666.29 L 10782.2,3674.01 L 10323.9,3525.11 Z " />
<path stroke="transparent" fill="#000000" transform="matrix(0.0833333 0 0 0.0833333 -21.1667 -213)" d="M 10092.4,3515.23 L 10172.7,3604.41 L 9785.4,3886.57 L 9774.29,3882.36 L 9771.27,3870.86 L 10092.4,3515.23 Z " />
<path stroke="transparent" fill="#000000" transform="matrix(0.0833333 0 0 0.0833333 -21.1667 -213)" d="M 11340.6,3490.3 L 11418.6,3596.64 L 10802.8,3674.81 L 10790.8,3666.29 L 10791,3655.83 L 11340.6,3490.3 Z " />
<path stroke="transparent" fill="#000000" transform="matrix(0.0833333 0 0 0.0833333 -21.1667 -213)" d="M 11733.7,3883.35 L 11719.5,3897.49 L 11418.6,3596.64 L 11340.6,3490.3 L 11733.7,3883.35 Z " />
<path stroke="transparent" fill="#000000" transform="matrix(0.0833333 0 0 0.0833333 -21.1667 -213)" d="M 10881.5,3192.96 L 10995.7,3230.05 L 10987.2,3248.34 L 10877.6,3212.71 L 10881.5,3192.96 Z " />
<path stroke="transparent" fill="#000000" transform="matrix(0.0833333 0 0 0.0833333 -21.1667 -213)" d="M 10870.2,3249.97 L 10971.3,3282.86 L 10962.9,3301.15 L 10866.2,3269.72 L 10870.2,3249.97 Z " />
<path stroke="transparent" fill="#000000" transform="matrix(0.0833333 0 0 0.0833333 -21.1667 -213)" d="M 10858.8,3306.99 L 10947,3335.67 L 10938.6,3353.96 L 10854.9,3326.74 L 10858.8,3306.99 Z " />
<path stroke="transparent" fill="#000000" transform="matrix(0.0833333 0 0 0.0833333 -21.1667 -213)" d="M 10847.4,3364.01 L 10922.7,3388.47 L 10914.3,3406.77 L 10843.5,3383.75 L 10847.4,3364.01 Z " />
<path stroke="transparent" fill="#000000" transform="matrix(0.0833333 0 0 0.0833333 -21.1667 -213)" d="M 10836,3421.02 L 10898.4,3441.28 L 10890,3459.57 L 10832.1,3440.77 L 10836,3421.02 Z " />
<path stroke="transparent" fill="#000000" transform="matrix(0.0833333 0 0 0.0833333 -21.1667 -213)" d="M 10824.7,3478.04 L 10874.1,3494.09 L 10865.6,3512.38 L 10820.7,3497.79 L 10824.7,3478.04 Z " />
<path stroke="transparent" fill="#000000" transform="matrix(0.0833333 0 0 0.0833333 -21.1667 -213)" d="M 10813.3,3535.05 L 10849.7,3546.9 L 10841.3,3565.19 L 10809.4,3554.8 L 10813.3,3535.05 Z " />
<path stroke="transparent" fill="#000000" transform="matrix(0.0833333 0 0 0.0833333 -21.1667 -213)" d="M 10801.9,3592.07 L 10825.4,3599.71 L 10817,3618 L 10798,3611.82 L 10801.9,3592.07 Z " />
<path stroke="transparent" fill="#000000" transform="matrix(0.0833333 0 0 0.0833333 -21.1667 -213)" d="M 11504.8,4381.51 L 11467.7,4495.64 L 11449.2,4487.72 L 11485.2,4377.08 L 11504.8,4381.51 Z " />
<path stroke="transparent" fill="#000000" transform="matrix(0.0833333 0 0 0.0833333 -21.1667 -213)" d="M 11447.5,4368.55 L 11413.8,4472.5 L 11395.3,4464.58 L 11427.9,4364.11 L 11447.5,4368.55 Z " />
<path stroke="transparent" fill="#000000" transform="matrix(0.0833333 0 0 0.0833333 -21.1667 -213)" d="M 11390.3,4355.59 L 11359.8,4449.35 L 11341.4,4441.43 L 11370.7,4351.15 L 11390.3,4355.59 Z " />
<path stroke="transparent" fill="#000000" transform="matrix(0.0833333 0 0 0.0833333 -21.1667 -213)" d="M 11333.1,4342.62 L 11305.9,4426.21 L 11287.5,4418.29 L 11313.5,4338.18 L 11333.1,4342.62 Z " />
<path stroke="transparent" fill="#000000" transform="matrix(0.0833333 0 0 0.0833333 -21.1667 -213)" d="M 11275.8,4329.66 L 11252,4403.06 L 11233.5,4395.14 L 11256.3,4325.22 L 11275.8,4329.66 Z " />
<path stroke="transparent" fill="#000000" transform="matrix(0.0833333 0 0 0.0833333 -21.1667 -213)" d="M 11218.6,4316.69 L 11198.1,4379.92 L 11179.6,4372 L 11199,4312.26 L 11218.6,4316.69 Z " />
<path stroke="transparent" fill="#000000" transform="matrix(0.0833333 0 0 0.0833333 -21.1667 -213)" d="M 11161.4,4303.73 L 11144.2,4356.78 L 11125.7,4348.85 L 11141.8,4299.29 L 11161.4,4303.73 Z " />
<path stroke="transparent" fill="#000000" transform="matrix(0.0833333 0 0 0.0833333 -21.1667 -213)" d="M 11104.2,4290.76 L 11090.2,4333.63 L 11071.8,4325.71 L 11084.6,4286.33 L 11104.2,4290.76 Z " />
<path stroke="transparent" fill="#000000" transform="matrix(0.0833333 0 0 0.0833333 -21.1667 -213)" d="M 11046.9,4277.8 L 11036.3,4310.49 L 11017.9,4302.56 L 11027.4,4273.36 L 11046.9,4277.8 Z " />
<path stroke="transparent" fill="#000000" transform="matrix(0.0833333 0 0 0.0833333 -21.1667 -213)" d="M 10989.7,4264.84 L 10982.4,4287.34 L 10963.9,4279.42 L 10970.1,4260.4 L 10989.7,4264.84 Z " />
<path stroke="transparent" fill="#000000" transform="matrix(0.0833333 0 0 0.0833333 -21.1667 -213)" d="M 9493.34,4915.31 L 9413.05,4826.13 L 9429.14,4814.11 L 9506.98,4900.57 L 9493.34,4915.31 Z " />
<path stroke="transparent" fill="#000000" transform="matrix(0.0833333 0 0 0.0833333 -21.1667 -213)" d="M 9533.19,4872.24 L 9460.06,4791.01 L 9476.14,4778.99 L 9546.82,4857.5 L 9533.19,4872.24 Z " />
<path stroke="transparent" fill="#000000" transform="matrix(0.0833333 0 0 0.0833333 -21.1667 -213)" d="M 9573.03,4829.16 L 9507.06,4755.89 L 9523.15,4743.87 L 9586.67,4814.42 L 9573.03,4829.16 Z " />
<path stroke="transparent" fill="#000000" transform="matrix(0.0833333 0 0 0.0833333 -21.1667 -213)" d="M 9612.88,4786.09 L 9554.07,4720.77 L 9570.16,4708.75 L 9626.51,4771.34 L 9612.88,4786.09 Z " />
<path stroke="transparent" fill="#000000" transform="matrix(0.0833333 0 0 0.0833333 -21.1667 -213)" d="M 9652.72,4743.01 L 9601.08,4685.65 L 9617.16,4673.63 L 9666.36,4728.27 L 9652.72,4743.01 Z " />
<path stroke="transparent" fill="#000000" transform="matrix(0.0833333 0 0 0.0833333 -21.1667 -213)" d="M 9692.56,4699.94 L 9648.08,4650.53 L 9664.17,4638.51 L 9706.2,4685.19 L 9692.56,4699.94 Z " />
<path stroke="transparent" fill="#000000" transform="matrix(0.0833333 0 0 0.0833333 -21.1667 -213)" d="M 9732.41,4656.86 L 9695.09,4615.41 L 9711.18,4603.39 L 9746.05,4642.12 L 9732.41,4656.86 Z " />
<path stroke="transparent" fill="#000000" transform="matrix(0.0833333 0 0 0.0833333 -21.1667 -213)" d="M 9772.25,4613.79 L 9742.1,4580.29 L 9758.18,4568.27 L 9785.89,4599.04 L 9772.25,4613.79 Z " />
<path stroke="transparent" fill="#000000" transform="matrix(0.0833333 0 0 0.0833333 -21.1667 -213)" d="M 9812.1,4570.71 L 9789.1,4545.17 L 9805.19,4533.15 L 9825.74,4555.97 L 9812.1,4570.71 Z " />
<path stroke="transparent" fill="#000000" transform="matrix(0.0833333 0 0 0.0833333 -21.1667 -213)" d="M 9851.94,4527.64 L 9836.11,4510.05 L 9852.2,4498.03 L 9865.58,4512.89 L 9851.94,4527.64 Z " />
<path stroke="transparent" fill="#000000" transform="matrix(0.0833333 0 0 0.0833333 -21.1667 -213)" d="M 8017.02,2676.18 L 8114.1,2605.63 L 8423.88,3116.29 L 8418.29,3126.29 L 8407.05,3128.51 L 8017.02,2676.18 Z " />
<path stroke="transparent" fill="#000000" transform="matrix(0.0833333 0 0 0.0833333 -21.1667 -213)" d="M 4775.67,3476.11 L 4855.96,3386.93 L 4869.6,3401.68 L 4791.76,3488.13 L 4775.67,3476.11 Z " />
<path stroke="transparent" fill="#000000" transform="matrix(0.0833333 0 0 0.0833333 -21.1667 -213)" d="M 4822.67,3511.23 L 4895.81,3430.01 L 4909.44,3444.75 L 4838.76,3523.26 L 4822.67,3511.23 Z " />
<path stroke="transparent" fill="#000000" transform="matrix(0.0833333 0 0 0.0833333 -21.1667 -213)" d="M 4869.68,3546.36 L 4935.65,3473.08 L 4949.29,3487.83 L 4885.77,3558.38 L 4869.68,3546.36 Z " />
<path stroke="transparent" fill="#000000" transform="matrix(0.0833333 0 0 0.0833333 -21.1667 -213)" d="M 4916.69,3581.48 L 4975.49,3516.16 L 4989.13,3530.9 L 4932.78,3593.5 L 4916.69,3581.48 Z " />
<path stroke="transparent" fill="#000000" transform="matrix(0.0833333 0 0 0.0833333 -21.1667 -213)" d="M 4963.69,3616.6 L 5015.34,3559.24 L 5028.98,3573.98 L 4979.78,3628.62 L 4963.69,3616.6 Z " />
<path stroke="transparent" fill="#000000" transform="matrix(0.0833333 0 0 0.0833333 -21.1667 -213)" d="M 5010.7,3651.72 L 5055.18,3602.31 L 5068.82,3617.05 L 5026.79,3663.74 L 5010.7,3651.72 Z " />
<path stroke="transparent" fill="#000000" transform="matrix(0.0833333 0 0 0.0833333 -21.1667 -213)" d="M 5057.71,3686.84 L 5095.03,3645.39 L 5108.67,3660.13 L 5073.8,3698.86 L 5057.71,3686.84 Z " />
<path stroke="transparent" fill="#000000" transform="matrix(0.0833333 0 0 0.0833333 -21.1667 -213)" d="M 5104.71,3721.96 L 5134.87,3688.46 L 5148.51,3703.21 L 5120.8,3733.98 L 5104.71,3721.96 Z " />
<path stroke="transparent" fill="#000000" transform="matrix(0.0833333 0 0 0.0833333 -21.1667 -213)" d="M 5151.72,3757.08 L 5174.72,3731.54 L 5188.35,3746.28 L 5167.81,3769.1 L 5151.72,3757.08 Z " />
<path stroke="transparent" fill="#000000" transform="matrix(0.0833333 0 0 0.0833333 -21.1667 -213)" d="M 5198.73,3792.2 L 5214.56,3774.61 L 5228.2,3789.36 L 5214.82,3804.22 L 5198.73,3792.2 Z " />
<path stroke="transparent" fill="#000000" transform="matrix(0.0833333 0 0 0.0833333 -21.1667 -213)" d="M 5748.58,5277.75 L 5688.58,5381.67 L 5672.17,5370.08 L 5730.34,5269.33 L 5748.58,5277.75 Z " />
<path stroke="transparent" fill="#000000" transform="matrix(0.0833333 0 0 0.0833333 -21.1667 -213)" d="M 5695.3,5253.16 L 5640.65,5347.81 L 5624.25,5336.23 L 5677.07,5244.75 L 5695.3,5253.16 Z " />
<path stroke="transparent" fill="#000000" transform="matrix(0.0833333 0 0 0.0833333 -21.1667 -213)" d="M 5642.03,5228.58 L 5592.73,5313.96 L 5576.32,5302.37 L 5623.79,5220.17 L 5642.03,5228.58 Z " />
<path stroke="transparent" fill="#000000" transform="matrix(0.0833333 0 0 0.0833333 -21.1667 -213)" d="M 5588.75,5204 L 5544.8,5280.11 L 5528.4,5268.52 L 5570.51,5195.58 L 5588.75,5204 Z " />
<path stroke="transparent" fill="#000000" transform="matrix(0.0833333 0 0 0.0833333 -21.1667 -213)" d="M 5535.47,5179.42 L 5496.88,5246.26 L 5480.47,5234.67 L 5517.24,5171 L 5535.47,5179.42 Z " />
<path stroke="transparent" fill="#000000" transform="matrix(0.0833333 0 0 0.0833333 -21.1667 -213)" d="M 5482.2,5154.83 L 5448.95,5212.41 L 5432.55,5200.82 L 5463.96,5146.42 L 5482.2,5154.83 Z " />
<path stroke="transparent" fill="#000000" transform="matrix(0.0833333 0 0 0.0833333 -21.1667 -213)" d="M 5428.92,5130.25 L 5401.03,5178.55 L 5384.63,5166.97 L 5410.68,5121.84 L 5428.92,5130.25 Z " />
<path stroke="transparent" fill="#000000" transform="matrix(0.0833333 0 0 0.0833333 -21.1667 -213)" d="M 5375.64,5105.67 L 5353.11,5144.7 L 5336.7,5133.11 L 5357.41,5097.25 L 5375.64,5105.67 Z " />
<path stroke="transparent" fill="#000000" transform="matrix(0.0833333 0 0 0.0833333 -21.1667 -213)" d="M 5322.37,5081.09 L 5305.18,5110.85 L 5288.78,5099.26 L 5304.13,5072.67 L 5322.37,5081.09 Z " />
<path stroke="transparent" fill="#000000" transform="matrix(0.0833333 0 0 0.0833333 -21.1667 -213)" d="M 5269.09,5056.5 L 5257.26,5077 L 5240.85,5065.41 L 5250.85,5048.09 L 5269.09,5056.5 Z " />
<path stroke="transparent" fill="#000000" transform="matrix(0.0833333 0 0 0.0833333 -21.1667 -213)" d="M 4739.38,5824.54 L 4619.38,5824.54 L 4621.65,5804.54 L 4737.11,5804.54 L 4739.38,5824.54 Z " />
<path stroke="transparent" fill="#000000" transform="matrix(0.0833333 0 0 0.0833333 -21.1667 -213)" d="M 4732.56,5764.43 L 4626.2,5764.43 L 4628.47,5744.43 L 4730.29,5744.43 L 4732.56,5764.43 Z " />
<path stroke="transparent" fill="#000000" transform="matrix(0.0833333 0 0 0.0833333 -21.1667 -213)" d="M 4725.74,5704.33 L 4633.02,5704.33 L 4635.28,5684.33 L 4723.47,5684.33 L 4725.74,5704.33 Z " />
<path stroke="transparent" fill="#000000" transform="matrix(0.0833333 0 0 0.0833333 -21.1667 -213)" d="M 4718.92,5644.22 L 4639.83,5644.22 L 4642.1,5624.22 L 4716.65,5624.22 L 4718.92,5644.22 Z " />
<path stroke="transparent" fill="#000000" transform="matrix(0.0833333 0 0 0.0833333 -21.1667 -213)" d="M 4712.1,5584.11 L 4646.65,5584.11 L 4648.92,5564.11 L 4709.83,5564.11 L 4712.1,5584.11 Z " />
<path stroke="transparent" fill="#000000" transform="matrix(0.0833333 0 0 0.0833333 -21.1667 -213)" d="M 4705.28,5524.01 L 4653.47,5524.01 L 4655.74,5504.01 L 4703.02,5504.01 L 4705.28,5524.01 Z " />
<path stroke="transparent" fill="#000000" transform="matrix(0.0833333 0 0 0.0833333 -21.1667 -213)" d="M 4698.47,5463.9 L 4660.29,5463.9 L 4662.56,5443.9 L 4696.2,5443.9 L 4698.47,5463.9 Z " />
<path stroke="transparent" fill="#000000" transform="matrix(0.0833333 0 0 0.0833333 -21.1667 -213)" d="M 4691.65,5403.8 L 4667.11,5403.8 L 4669.38,5383.8 L 4689.38,5383.8 L 4691.65,5403.8 Z " />
<path stroke="transparent" fill="#000000" transform="matrix(0.0833333 0 0 0.0833333 -21.1667 -213)" d="M 4164.74,6238.37 L 4154.74,6221.05 L 4574.77,5978.55 L 4584.77,5995.87 L 4164.74,6238.37 Z " />
</svg>
