<?xml version="1.0" standalone="no" ?>
<!DOCTYPE svg PUBLIC "-//W3C//DTD SVG 1.1//EN" "http://www.w3.org/Graphics/SVG/1.1/DTD/svg11.dtd">
<svg width="214px" height="177px" viewBox="0 0 214 177" style="background-color: #ffffff00" xmlns="http://www.w3.org/2000/svg" xmlns:xlink="http://www.w3.org/1999/xlink" version="1.1" >
<text x="0" y="0" stroke="none" fill="#000000" transform="matrix(0.0666667 0 0 0.0666667 185.83 74.0722)" font-style="normal" font-weight="normal" font-size="200px" font-family="Arial" >
OH</text>
<text x="0" y="0" stroke="none" fill="#000000" transform="matrix(0.0666667 0 0 0.0666667 151.182 14.0722)" font-style="normal" font-weight="normal" font-size="200px" font-family="Arial" >
O</text>
<text x="0" y="0" stroke="none" fill="#000000" transform="matrix(0.0666667 0 0 0.0666667 107.287 114.072)" font-style="normal" font-weight="normal" font-size="200px" font-family="Arial" >
HN</text>
<text x="0" y="0" stroke="none" fill="#000000" transform="matrix(0.0666667 0 0 0.0666667 2.9936 54.077)" font-style="normal" font-weight="normal" font-size="200px" font-family="Arial" >
HO</text>
<text x="0" y="0" stroke="none" fill="#000000" transform="matrix(0.0666667 0 0 0.0666667 47.2649 114.077)" font-style="normal" font-weight="normal" font-size="200px" font-family="Arial" >
O</text>
<text x="0" y="0" stroke="none" fill="#000000" transform="matrix(0.0666667 0 0 0.0666667 186.23 114.072)" font-style="normal" font-weight="normal" font-size="200px" font-family="Arial" >
NH</text>
<text x="0" y="0" stroke="none" fill="#000000" transform="matrix(0.0666667 0 0 0.0666667 205.488 117.006)" font-style="normal" font-weight="normal" font-size="150px" font-family="Arial" >
2</text>
<text x="0" y="0" stroke="none" fill="#000000" transform="matrix(0.0666667 0 0 0.0666667 151.192 174.072)" font-style="normal" font-weight="normal" font-size="200px" font-family="Arial" >
O</text>
<path stroke="none" fill="#000000" transform="matrix(0.0666667 0 0 0.0666667 -241.859 -196)" d="M 6405.7,3910.96 L 6395.7,3928.28 L 5973.62,3684.63 L 5973.62,3661.54 L 6405.7,3910.96 Z " />
<path stroke="none" fill="#000000" transform="matrix(0.0666667 0 0 0.0666667 -241.859 -196)" d="M 6019.62,3693.86 L 5999.62,3693.86 L 5999.62,3192.92 L 6019.62,3192.92 L 6019.62,3693.86 Z " />
<path stroke="none" fill="#000000" transform="matrix(0.0666667 0 0 0.0666667 -241.859 -196)" d="M 5947.62,3693.87 L 5927.62,3693.87 L 5927.62,3192.92 L 5947.62,3192.92 L 5947.62,3693.87 Z " />
<path stroke="none" fill="#000000" transform="matrix(0.0666667 0 0 0.0666667 -241.859 -196)" d="M 5973.62,3661.54 L 5973.62,3684.63 L 5464.05,3978.86 L 5454.05,3973.08 L 5454.05,3961.54 L 5973.62,3661.54 Z " />
<path stroke="none" fill="#000000" transform="matrix(0.0666667 0 0 0.0666667 -241.859 -196)" d="M 5464.05,4470.25 L 5444.05,4470.25 L 5444.05,3978.86 L 5454.05,3973.08 L 5464.05,3978.86 L 5464.05,4470.25 Z " />
<path stroke="none" fill="#000000" transform="matrix(0.0666667 0 0 0.0666667 -241.859 -196)" d="M 5454.05,3961.54 L 5454.05,3973.08 L 5444.05,3978.86 L 4934.42,3684.7 L 4934.42,3661.61 L 5454.05,3961.54 Z " />
<path stroke="none" fill="#000000" transform="matrix(0.0666667 0 0 0.0666667 -241.859 -196)" d="M 4934.42,3661.61 L 4934.42,3684.7 L 4414.85,3984.7 L 4414.85,3961.61 L 4934.42,3661.61 Z " />
<path stroke="none" fill="#000000" transform="matrix(0.0666667 0 0 0.0666667 -241.859 -196)" d="M 4414.85,3961.61 L 4414.85,3984.7 L 3990.25,3739.57 L 4000.25,3722.24 L 4414.85,3961.61 Z " />
<path stroke="none" fill="#000000" transform="matrix(0.0666667 0 0 0.0666667 -241.859 -196)" d="M 4368.85,3952.37 L 4388.85,3952.37 L 4388.85,4467.99 L 4368.85,4467.99 L 4368.85,3952.37 Z " />
<path stroke="none" fill="#000000" transform="matrix(0.0666667 0 0 0.0666667 -241.859 -196)" d="M 4440.85,3952.37 L 4460.85,3952.37 L 4460.85,4467.99 L 4440.85,4467.99 L 4440.85,3952.37 Z " />
<path stroke="none" fill="#000000" transform="matrix(0.0666667 0 0 0.0666667 -241.859 -196)" d="M 5558.46,4644.9 L 5568.46,4627.58 L 5973.76,4861.54 L 5973.76,4884.63 L 5558.46,4644.9 Z " />
<path stroke="none" fill="#000000" transform="matrix(0.0666667 0 0 0.0666667 -241.859 -196)" d="M 5973.76,4884.63 L 5973.76,4861.54 L 6377.41,4628.47 L 6387.41,4645.79 L 5973.76,4884.63 Z " />
<path stroke="none" fill="#000000" transform="matrix(0.0666667 0 0 0.0666667 -241.859 -196)" d="M 5927.76,4852.3 L 5947.76,4852.3 L 5947.76,5367.92 L 5927.76,5367.92 L 5927.76,4852.3 Z " />
<path stroke="none" fill="#000000" transform="matrix(0.0666667 0 0 0.0666667 -241.859 -196)" d="M 5999.76,4852.3 L 6019.76,4852.3 L 6019.76,5367.92 L 5999.76,5367.92 L 5999.76,4852.3 Z " />
</svg>
