<?xml version="1.0" standalone="no" ?>
<!DOCTYPE svg PUBLIC "-//W3C//DTD SVG 1.1//EN" "http://www.w3.org/Graphics/SVG/1.1/DTD/svg11.dtd">
<svg width="332px" height="215px" viewBox="0 0 332 215" style="background-color: #ffffff00" xmlns="http://www.w3.org/2000/svg" xmlns:xlink="http://www.w3.org/1999/xlink" version="1.1" >
<text x="0" y="0" stroke="transparent" fill="#000000" transform="matrix(0.0833333 0 0 0.0833333 275.896 92.7986)" style="font:normal normal normal 200px 'Arial'" >
O</text>
<text x="0" y="0" stroke="transparent" fill="#000000" transform="matrix(0.0833333 0 0 0.0833333 145.992 17.7986)" style="font:normal normal normal 200px 'Arial'" >
O</text>
<text x="0" y="0" stroke="transparent" fill="#000000" transform="matrix(0.0833333 0 0 0.0833333 59.3898 17.7986)" style="font:normal normal normal 200px 'Arial'" >
O</text>
<text x="0" y="0" stroke="transparent" fill="#000000" transform="matrix(0.0833333 0 0 0.0833333 4.05254 92.7986)" style="font:normal normal normal 200px 'Arial'" >
HO</text>
<text x="0" y="0" stroke="transparent" fill="#000000" transform="matrix(0.0833333 0 0 0.0833333 47.3537 167.799)" style="font:normal normal normal 200px 'Arial'" >
HO</text>
<path stroke="transparent" fill="#000000" transform="matrix(0.0833333 0 0 0.0833333 -269.875 -261)" d="M 6167.64,5667.58 L 6047.64,5667.58 L 6097.18,5073.09 L 6107.64,5067.58 L 6118.1,5073.09 L 6167.64,5667.58 Z " />
<path stroke="transparent" fill="#000000" transform="matrix(0.0833333 0 0 0.0833333 -269.875 -261)" d="M 6617.25,4761.81 L 6637.25,4773.36 L 6118.1,5073.09 L 6107.64,5067.58 L 6107.64,5056.04 L 6617.25,4761.81 Z " />
<path stroke="transparent" fill="#000000" transform="matrix(0.0833333 0 0 0.0833333 -269.875 -261)" d="M 6617.25,4287.42 L 6637.25,4287.42 L 6637.25,4773.36 L 6617.25,4761.81 L 6617.25,4287.42 Z " />
<path stroke="transparent" fill="#000000" transform="matrix(0.0833333 0 0 0.0833333 -269.875 -261)" d="M 6107.64,3879.13 L 6107.64,3856.04 L 6539.64,4105.45 L 6529.64,4122.77 L 6107.64,3879.13 Z " />
<path stroke="transparent" fill="#000000" transform="matrix(0.0833333 0 0 0.0833333 -269.875 -261)" d="M 5598.02,4173.36 L 5588.02,4167.58 L 5588.02,4156.04 L 6107.64,3856.04 L 6107.64,3879.13 L 5598.02,4173.36 Z " />
<path stroke="transparent" fill="#000000" transform="matrix(0.0833333 0 0 0.0833333 -269.875 -261)" d="M 5665.02,4217.81 L 5655.02,4200.49 L 6102.64,3942.06 L 6112.64,3959.38 L 5665.02,4217.81 Z " />
<path stroke="transparent" fill="#000000" transform="matrix(0.0833333 0 0 0.0833333 -269.875 -261)" d="M 5598.02,4761.81 L 5588.02,4767.58 L 5578.02,4761.81 L 5578.02,4173.36 L 5588.02,4167.58 L 5598.02,4173.36 L 5598.02,4761.81 Z " />
<path stroke="transparent" fill="#000000" transform="matrix(0.0833333 0 0 0.0833333 -269.875 -261)" d="M 5588.02,4779.13 L 5588.02,4767.58 L 5598.02,4761.81 L 6107.64,5056.04 L 6107.64,5067.58 L 6097.18,5073.09 L 5588.02,4779.13 Z " />
<path stroke="transparent" fill="#000000" transform="matrix(0.0833333 0 0 0.0833333 -269.875 -261)" d="M 5078.41,5073.36 L 5068.41,5067.58 L 5068.41,5056.04 L 5578.02,4761.81 L 5588.02,4767.58 L 5588.02,4779.13 L 5078.41,5073.36 Z " />
<path stroke="transparent" fill="#000000" transform="matrix(0.0833333 0 0 0.0833333 -269.875 -261)" d="M 5073.41,4993.11 L 5063.41,4975.78 L 5511.02,4717.35 L 5521.02,4734.67 L 5073.41,4993.11 Z " />
<path stroke="transparent" fill="#000000" transform="matrix(0.0833333 0 0 0.0833333 -269.875 -261)" d="M 4548.79,4779.13 L 4548.79,4767.58 L 4558.79,4761.81 L 5068.41,5056.04 L 5068.41,5067.58 L 5058.41,5073.36 L 4548.79,4779.13 Z " />
<path stroke="transparent" fill="#000000" transform="matrix(0.0833333 0 0 0.0833333 -269.875 -261)" d="M 4538.79,4173.36 L 4548.79,4167.58 L 4558.79,4173.36 L 4558.79,4761.81 L 4548.79,4767.58 L 4538.79,4761.81 L 4538.79,4173.36 Z " />
<path stroke="transparent" fill="#000000" transform="matrix(0.0833333 0 0 0.0833333 -269.875 -261)" d="M 4610.79,4209.15 L 4630.79,4209.15 L 4630.79,4726.01 L 4610.79,4726.01 L 4610.79,4209.15 Z " />
<path stroke="transparent" fill="#000000" transform="matrix(0.0833333 0 0 0.0833333 -269.875 -261)" d="M 5068.41,3856.04 L 5068.41,3879.13 L 4558.79,4173.36 L 4548.79,4167.58 L 4548.79,4156.04 L 5068.41,3856.04 Z " />
<path stroke="transparent" fill="#000000" transform="matrix(0.0833333 0 0 0.0833333 -269.875 -261)" d="M 5068.41,3879.13 L 5068.41,3856.04 L 5588.02,4156.04 L 5588.02,4167.58 L 5578.02,4173.36 L 5068.41,3879.13 Z " />
<path stroke="transparent" fill="#000000" transform="matrix(0.0833333 0 0 0.0833333 -269.875 -261)" d="M 5022.41,3387.42 L 5042.41,3387.42 L 5042.41,3888.37 L 5022.41,3888.37 L 5022.41,3387.42 Z " />
<path stroke="transparent" fill="#000000" transform="matrix(0.0833333 0 0 0.0833333 -269.875 -261)" d="M 5094.41,3387.42 L 5114.41,3387.42 L 5114.41,3888.37 L 5094.41,3888.37 L 5094.41,3387.42 Z " />
<path stroke="transparent" fill="#000000" transform="matrix(0.0833333 0 0 0.0833333 -269.875 -261)" d="M 4029.18,3879.13 L 4029.18,3856.04 L 4548.79,4156.04 L 4548.79,4167.58 L 4538.79,4173.36 L 4029.18,3879.13 Z " />
<path stroke="transparent" fill="#000000" transform="matrix(0.0833333 0 0 0.0833333 -269.875 -261)" d="M 3983.18,3387.42 L 4003.18,3387.42 L 4003.18,3888.37 L 3983.18,3888.37 L 3983.18,3387.42 Z " />
<path stroke="transparent" fill="#000000" transform="matrix(0.0833333 0 0 0.0833333 -269.875 -261)" d="M 4055.18,3387.42 L 4075.18,3387.42 L 4075.18,3888.37 L 4055.18,3888.37 L 4055.18,3387.42 Z " />
<path stroke="transparent" fill="#000000" transform="matrix(0.0833333 0 0 0.0833333 -269.875 -261)" d="M 3607.17,4122.77 L 3597.17,4105.45 L 4029.18,3856.04 L 4029.18,3879.13 L 3607.17,4122.77 Z " />
<path stroke="transparent" fill="#000000" transform="matrix(0.0833333 0 0 0.0833333 -269.875 -261)" d="M 4126.79,5022.77 L 4116.79,5005.45 L 4538.79,4761.81 L 4548.79,4767.58 L 4548.79,4779.13 L 4126.79,5022.77 Z " />
<path stroke="transparent" fill="#000000" transform="matrix(0.0833333 0 0 0.0833333 -269.875 -261)" d="M 5078.41,5667.58 L 5058.41,5667.58 L 5058.41,5073.36 L 5068.41,5067.58 L 5078.41,5073.36 L 5078.41,5667.58 Z " />
<path stroke="transparent" fill="#000000" transform="matrix(0.0833333 0 0 0.0833333 -269.875 -261)" d="M 7176.87,5015.62 L 7116.87,5119.54 L 7100.46,5107.96 L 7158.63,5007.21 L 7176.87,5015.62 Z " />
<path stroke="transparent" fill="#000000" transform="matrix(0.0833333 0 0 0.0833333 -269.875 -261)" d="M 7123.59,4991.04 L 7068.94,5085.69 L 7052.54,5074.11 L 7105.35,4982.63 L 7123.59,4991.04 Z " />
<path stroke="transparent" fill="#000000" transform="matrix(0.0833333 0 0 0.0833333 -269.875 -261)" d="M 7070.31,4966.46 L 7021.01,5051.84 L 7004.61,5040.25 L 7052.07,4958.04 L 7070.31,4966.46 Z " />
<path stroke="transparent" fill="#000000" transform="matrix(0.0833333 0 0 0.0833333 -269.875 -261)" d="M 7017.02,4941.87 L 6973.08,5017.99 L 6956.68,5006.4 L 6998.79,4933.46 L 7017.02,4941.87 Z " />
<path stroke="transparent" fill="#000000" transform="matrix(0.0833333 0 0 0.0833333 -269.875 -261)" d="M 6963.74,4917.29 L 6925.15,4984.14 L 6908.75,4972.55 L 6945.51,4908.88 L 6963.74,4917.29 Z " />
<path stroke="transparent" fill="#000000" transform="matrix(0.0833333 0 0 0.0833333 -269.875 -261)" d="M 6910.46,4892.71 L 6877.22,4950.28 L 6860.82,4938.7 L 6892.22,4884.3 L 6910.46,4892.71 Z " />
<path stroke="transparent" fill="#000000" transform="matrix(0.0833333 0 0 0.0833333 -269.875 -261)" d="M 6857.18,4868.13 L 6829.29,4916.43 L 6812.89,4904.84 L 6838.94,4859.71 L 6857.18,4868.13 Z " />
<path stroke="transparent" fill="#000000" transform="matrix(0.0833333 0 0 0.0833333 -269.875 -261)" d="M 6803.9,4843.55 L 6781.36,4882.58 L 6764.96,4870.99 L 6785.66,4835.13 L 6803.9,4843.55 Z " />
<path stroke="transparent" fill="#000000" transform="matrix(0.0833333 0 0 0.0833333 -269.875 -261)" d="M 6750.62,4818.96 L 6733.43,4848.73 L 6717.03,4837.14 L 6732.38,4810.55 L 6750.62,4818.96 Z " />
<path stroke="transparent" fill="#000000" transform="matrix(0.0833333 0 0 0.0833333 -269.875 -261)" d="M 6697.33,4794.38 L 6685.5,4814.87 L 6669.1,4803.29 L 6679.1,4785.97 L 6697.33,4794.38 Z " />
</svg>
