<?xml version="1.0" standalone="no" ?>
<!DOCTYPE svg PUBLIC "-//W3C//DTD SVG 1.1//EN" "http://www.w3.org/Graphics/SVG/1.1/DTD/svg11.dtd">
<svg width="354px" height="237px" viewBox="0 0 354 237" style="background-color: #ffffff00" xmlns="http://www.w3.org/2000/svg" xmlns:xlink="http://www.w3.org/1999/xlink" version="1.1" >
<text x="0" y="0" stroke="transparent" fill="#000000" transform="matrix(0.0666667 0 0 0.0666667 275.144 14.5078)" style="font:normal normal normal 200px 'Arial'" >
OH</text>
<text x="0" y="0" stroke="transparent" fill="#000000" transform="matrix(0.0666667 0 0 0.0666667 205.862 54.5087)" style="font:normal normal normal 200px 'Arial'" >
O</text>
<text x="0" y="0" stroke="transparent" fill="#000000" transform="matrix(0.0666667 0 0 0.0666667 32.6543 114.506)" style="font:normal normal normal 200px 'Arial'" >
O</text>
<text x="0" y="0" stroke="transparent" fill="#000000" transform="matrix(0.0666667 0 0 0.0666667 93.6236 233.637)" style="font:normal normal normal 200px 'Arial'" >
O</text>
<text x="0" y="0" stroke="transparent" fill="#000000" transform="matrix(0.0666667 0 0 0.0666667 136.981 174.507)" style="font:normal normal normal 200px 'Arial'" >
N</text>
<text x="0" y="0" stroke="transparent" fill="#000000" transform="matrix(0.0666667 0 0 0.0666667 205.862 134.51)" style="font:normal normal normal 200px 'Arial'" >
O</text>
<path stroke="transparent" fill="#000000" transform="matrix(0.0666667 0 0 0.0666667 -171.859 -147)" d="M 7307.7,3294.87 L 7297.7,3277.55 L 7835.32,2967.15 L 7845.32,2984.47 L 7307.7,3294.87 Z " />
<path stroke="transparent" fill="#000000" transform="matrix(0.0666667 0 0 0.0666667 -171.859 -147)" d="M 7271.7,3232.51 L 7261.7,3215.19 L 7799.32,2904.79 L 7809.32,2922.11 L 7271.7,3232.51 Z " />
<path stroke="transparent" fill="#000000" transform="matrix(0.0666667 0 0 0.0666667 -171.859 -147)" d="M 7312.7,3844.65 L 7292.7,3844.65 L 7292.7,3250.41 L 7312.7,3238.86 L 7312.7,3844.65 Z " />
<path stroke="transparent" fill="#000000" transform="matrix(0.0666667 0 0 0.0666667 -171.859 -147)" d="M 6783.03,2956.18 L 6783.03,2944.63 L 6793.03,2938.86 L 7312.7,3238.86 L 7292.7,3250.41 L 6783.03,2956.18 Z " />
<path stroke="transparent" fill="#000000" transform="matrix(0.0666667 0 0 0.0666667 -171.859 -147)" d="M 6773.03,2464.45 L 6793.03,2464.45 L 6793.03,2938.86 L 6783.03,2944.63 L 6773.03,2938.86 L 6773.03,2464.45 Z " />
<path stroke="transparent" fill="#000000" transform="matrix(0.0666667 0 0 0.0666667 -171.859 -147)" d="M 6263.42,3256.18 L 6263.42,3233.09 L 6773.03,2938.86 L 6783.03,2944.63 L 6783.03,2956.18 L 6263.42,3256.18 Z " />
<path stroke="transparent" fill="#000000" transform="matrix(0.0666667 0 0 0.0666667 -171.859 -147)" d="M 5838.85,3011.05 L 5848.85,2993.73 L 6263.42,3233.09 L 6263.42,3256.18 L 5838.85,3011.05 Z " />
<path stroke="transparent" fill="#000000" transform="matrix(0.0666667 0 0 0.0666667 -171.859 -147)" d="M 5234.2,3250.41 L 5224.2,3244.64 L 5224.2,3233.09 L 5639.21,2993.48 L 5649.21,3010.8 L 5234.2,3250.41 Z " />
<path stroke="transparent" fill="#000000" transform="matrix(0.0666667 0 0 0.0666667 -171.859 -147)" d="M 4704.59,2956.18 L 4704.59,2933.08 L 5224.2,3233.09 L 5224.2,3244.64 L 5214.2,3250.41 L 4704.59,2956.18 Z " />
<path stroke="transparent" fill="#000000" transform="matrix(0.0666667 0 0 0.0666667 -171.859 -147)" d="M 4194.98,3250.35 L 4174.98,3238.8 L 4704.59,2933.08 L 4704.59,2956.18 L 4194.98,3250.35 Z " />
<path stroke="transparent" fill="#000000" transform="matrix(0.0666667 0 0 0.0666667 -171.859 -147)" d="M 4261.97,3294.81 L 4251.97,3277.49 L 4699.59,3019.1 L 4709.58,3036.42 L 4261.97,3294.81 Z " />
<path stroke="transparent" fill="#000000" transform="matrix(0.0666667 0 0 0.0666667 -171.859 -147)" d="M 4194.98,3838.82 L 4184.98,3844.59 L 4174.98,3838.82 L 4174.98,3238.8 L 4194.98,3250.35 L 4194.98,3838.82 Z " />
<path stroke="transparent" fill="#000000" transform="matrix(0.0666667 0 0 0.0666667 -171.859 -147)" d="M 3675.37,4150.37 L 3665.37,4144.6 L 3665.37,4133.05 L 4174.98,3838.82 L 4184.98,3844.59 L 4184.98,3856.14 L 3675.37,4150.37 Z " />
<path stroke="transparent" fill="#000000" transform="matrix(0.0666667 0 0 0.0666667 -171.859 -147)" d="M 3742.37,4194.83 L 3732.37,4177.51 L 4179.98,3919.07 L 4189.98,3936.39 L 3742.37,4194.83 Z " />
<path stroke="transparent" fill="#000000" transform="matrix(0.0666667 0 0 0.0666667 -171.859 -147)" d="M 3240.73,3911 L 3250.73,3893.68 L 3665.37,4133.05 L 3665.37,4144.6 L 3655.37,4150.37 L 3240.73,3911 Z " />
<path stroke="transparent" fill="#000000" transform="matrix(0.0666667 0 0 0.0666667 -171.859 -147)" d="M 2631.08,4153.26 L 2621.08,4135.94 L 3041.09,3893.44 L 3051.09,3910.76 L 2631.08,4153.26 Z " />
<path stroke="transparent" fill="#000000" transform="matrix(0.0666667 0 0 0.0666667 -171.859 -147)" d="M 3675.37,4738.84 L 3665.37,4744.61 L 3655.37,4740.16 L 3655.37,4150.37 L 3665.37,4144.6 L 3675.37,4150.37 L 3675.37,4738.84 Z " />
<path stroke="transparent" fill="#000000" transform="matrix(0.0666667 0 0 0.0666667 -171.859 -147)" d="M 3231.53,5148.71 L 3207.35,5143.57 L 3655.37,4740.16 L 3665.37,4744.61 L 3666.66,4756.9 L 3231.53,5148.71 Z " />
<path stroke="transparent" fill="#000000" transform="matrix(0.0666667 0 0 0.0666667 -171.859 -147)" d="M 3469.7,5683.55 L 3457.34,5704.95 L 3207.35,5143.57 L 3231.53,5148.71 L 3469.7,5683.55 Z " />
<path stroke="transparent" fill="#000000" transform="matrix(0.0666667 0 0 0.0666667 -171.859 -147)" d="M 3517.15,5613.11 L 3498.88,5621.25 L 3297.36,5168.71 L 3315.63,5160.57 L 3517.15,5613.11 Z " />
<path stroke="transparent" fill="#000000" transform="matrix(0.0666667 0 0 0.0666667 -171.859 -147)" d="M 3952.15,5632.85 L 3954.24,5652.74 L 3457.34,5704.95 L 3469.7,5683.55 L 3952.15,5632.85 Z " />
<path stroke="transparent" fill="#000000" transform="matrix(0.0666667 0 0 0.0666667 -171.859 -147)" d="M 4173.69,5049.64 L 4184.98,5044.62 L 4193.83,5051.05 L 4092,5530.2 L 4072.43,5526.04 L 4173.69,5049.64 Z " />
<path stroke="transparent" fill="#000000" transform="matrix(0.0666667 0 0 0.0666667 -171.859 -147)" d="M 4184.98,5033.07 L 4184.98,5044.62 L 4173.69,5049.64 L 3666.66,4756.9 L 3665.37,4744.61 L 3675.37,4738.84 L 4184.98,5033.07 Z " />
<path stroke="transparent" fill="#000000" transform="matrix(0.0666667 0 0 0.0666667 -171.859 -147)" d="M 4189.98,4952.82 L 4179.98,4970.14 L 3732.37,4711.7 L 3742.37,4694.38 L 4189.98,4952.82 Z " />
<path stroke="transparent" fill="#000000" transform="matrix(0.0666667 0 0 0.0666667 -171.859 -147)" d="M 4589.53,4799.49 L 4599.53,4816.81 L 4193.83,5051.05 L 4184.98,5044.62 L 4184.98,5033.07 L 4589.53,4799.49 Z " />
<path stroke="transparent" fill="#000000" transform="matrix(0.0666667 0 0 0.0666667 -171.859 -147)" d="M 4694.59,4150.37 L 4704.59,4144.6 L 4714.59,4150.37 L 4714.59,4641.78 L 4694.59,4641.78 L 4694.59,4150.37 Z " />
<path stroke="transparent" fill="#000000" transform="matrix(0.0666667 0 0 0.0666667 -171.859 -147)" d="M 4622.59,4186.17 L 4642.59,4186.17 L 4642.59,4641.78 L 4622.59,4641.78 L 4622.59,4186.17 Z " />
<path stroke="transparent" fill="#000000" transform="matrix(0.0666667 0 0 0.0666667 -171.859 -147)" d="M 4704.59,4133.05 L 4704.59,4144.6 L 4694.59,4150.37 L 4184.98,3856.14 L 4184.98,3844.59 L 4194.98,3838.82 L 4704.59,4133.05 Z " />
<path stroke="transparent" fill="#000000" transform="matrix(0.0666667 0 0 0.0666667 -171.859 -147)" d="M 5214.2,3838.82 L 5224.2,3844.59 L 5224.2,3856.14 L 4714.59,4150.37 L 4704.59,4144.6 L 4704.59,4133.05 L 5214.2,3838.82 Z " />
<path stroke="transparent" fill="#000000" transform="matrix(0.0666667 0 0 0.0666667 -171.859 -147)" d="M 5234.2,3838.82 L 5224.2,3844.59 L 5214.2,3838.82 L 5214.2,3250.41 L 5224.2,3244.64 L 5234.2,3250.41 L 5234.2,3838.82 Z " />
<path stroke="transparent" fill="#000000" transform="matrix(0.0666667 0 0 0.0666667 -171.859 -147)" d="M 5162.21,3803.02 L 5142.21,3803.02 L 5142.21,3286.2 L 5162.21,3286.2 L 5162.21,3803.02 Z " />
<path stroke="transparent" fill="#000000" transform="matrix(0.0666667 0 0 0.0666667 -171.859 -147)" d="M 5656.2,4082.51 L 5646.2,4099.83 L 5224.2,3856.14 L 5224.2,3844.59 L 5234.2,3838.82 L 5656.2,4082.51 Z " />
<path stroke="transparent" fill="#000000" transform="matrix(0.0666667 0 0 0.0666667 -171.859 -147)" d="M 6258.42,3835.99 L 6268.42,3853.31 L 5841.43,4099.84 L 5831.43,4082.52 L 6258.42,3835.99 Z " />
</svg>
