<?xml version="1.0" standalone="no" ?>
<!DOCTYPE svg PUBLIC "-//W3C//DTD SVG 1.1//EN" "http://www.w3.org/Graphics/SVG/1.1/DTD/svg11.dtd">
<svg width="216px" height="133px" viewBox="0 0 216 133" style="background-color: #ffffff00" xmlns="http://www.w3.org/2000/svg" xmlns:xlink="http://www.w3.org/1999/xlink" version="1.1" >
<text x="0" y="0" stroke="transparent" fill="#000000" transform="matrix(0.0666667 0 0 0.0666667 172.271 14.354)" style="font:normal normal normal 200px 'Arial'" >
O</text>
<path stroke="transparent" fill="#000000" transform="matrix(0.0666667 0 0 0.0666667 -240.859 -199)" d="M 6274.94,3733.87 L 6274.94,3710.78 L 6799.55,4013.67 L 6789.55,4030.99 L 6274.94,3733.87 Z " />
<path stroke="transparent" fill="#000000" transform="matrix(0.0666667 0 0 0.0666667 -240.859 -199)" d="M 6228.94,3242.14 L 6248.94,3242.14 L 6248.94,3743.11 L 6228.94,3743.11 L 6228.94,3242.14 Z " />
<path stroke="transparent" fill="#000000" transform="matrix(0.0666667 0 0 0.0666667 -240.859 -199)" d="M 6300.94,3242.14 L 6320.94,3242.14 L 6320.94,3743.11 L 6300.94,3743.11 L 6300.94,3242.14 Z " />
<path stroke="transparent" fill="#000000" transform="matrix(0.0666667 0 0 0.0666667 -240.859 -199)" d="M 5755.29,4033.88 L 5755.29,4010.78 L 6274.94,3710.78 L 6274.94,3733.87 L 5755.29,4033.88 Z " />
<path stroke="transparent" fill="#000000" transform="matrix(0.0666667 0 0 0.0666667 -240.859 -199)" d="M 5235.68,3733.87 L 5235.68,3710.78 L 5755.29,4010.78 L 5755.29,4033.88 L 5235.68,3733.87 Z " />
<path stroke="transparent" fill="#000000" transform="matrix(0.0666667 0 0 0.0666667 -240.859 -199)" d="M 5230.68,3814.12 L 5240.68,3796.8 L 5724.29,4076.02 L 5714.29,4093.34 L 5230.68,3814.12 Z " />
<path stroke="transparent" fill="#000000" transform="matrix(0.0666667 0 0 0.0666667 -240.859 -199)" d="M 4726.07,4028.1 L 4716.07,4022.33 L 4716.07,4010.78 L 5235.68,3710.78 L 5235.68,3733.87 L 4726.07,4028.1 Z " />
<path stroke="transparent" fill="#000000" transform="matrix(0.0666667 0 0 0.0666667 -240.859 -199)" d="M 4196.46,3733.87 L 4196.46,3710.78 L 4716.07,4010.78 L 4716.07,4022.33 L 4706.07,4028.1 L 4196.46,3733.87 Z " />
<path stroke="transparent" fill="#000000" transform="matrix(0.0666667 0 0 0.0666667 -240.859 -199)" d="M 4191.45,3814.12 L 4201.46,3796.8 L 4649.07,4055.24 L 4639.07,4072.56 L 4191.45,3814.12 Z " />
<path stroke="transparent" fill="#000000" transform="matrix(0.0666667 0 0 0.0666667 -240.859 -199)" d="M 3686.85,4028.06 L 3666.85,4016.52 L 4196.46,3710.78 L 4196.46,3733.87 L 3686.85,4028.06 Z " />
<path stroke="transparent" fill="#000000" transform="matrix(0.0666667 0 0 0.0666667 -240.859 -199)" d="M 3686.85,4616.53 L 3666.85,4628.08 L 3666.85,4016.52 L 3686.85,4028.06 L 3686.85,4616.53 Z " />
<path stroke="transparent" fill="#000000" transform="matrix(0.0666667 0 0 0.0666667 -240.859 -199)" d="M 3758.85,4580.73 L 3738.85,4580.73 L 3738.85,4063.86 L 3758.85,4063.86 L 3758.85,4580.73 Z " />
<path stroke="transparent" fill="#000000" transform="matrix(0.0666667 0 0 0.0666667 -240.859 -199)" d="M 4196.46,4910.76 L 4196.46,4933.86 L 3666.85,4628.08 L 3686.85,4616.53 L 4196.46,4910.76 Z " />
<path stroke="transparent" fill="#000000" transform="matrix(0.0666667 0 0 0.0666667 -240.859 -199)" d="M 4706.07,4616.53 L 4726.07,4628.08 L 4196.46,4933.86 L 4196.46,4910.76 L 4706.07,4616.53 Z " />
<path stroke="transparent" fill="#000000" transform="matrix(0.0666667 0 0 0.0666667 -240.859 -199)" d="M 4639.07,4572.07 L 4649.07,4589.39 L 4201.46,4847.83 L 4191.46,4830.51 L 4639.07,4572.07 Z " />
<path stroke="transparent" fill="#000000" transform="matrix(0.0666667 0 0 0.0666667 -240.859 -199)" d="M 4726.07,4628.08 L 4706.07,4616.53 L 4706.07,4028.1 L 4716.07,4022.33 L 4726.07,4028.1 L 4726.07,4628.08 Z " />
</svg>
