<?xml version="1.0"?><svg xmlns="http://www.w3.org/2000/svg" xmlns:xlink="http://www.w3.org/1999/xlink" viewBox="160.42 142.25 177.98 83.53" preserveAspectRatio="xMidYMid" width="100%" height="100%"><clipPath id="23"><rect x="0.5" y="0.5" width="522.2" height="768.8" /></clipPath><g id="drawing"><rect x="160.42" y="142.25" width="100%" height="100%" fill="rgb(255, 255, 255)" /><g id="page" clip-path="url(#23)"><g><text xml:space="preserve" text-anchor="end" text-rendering="geometricPrecision"><tspan x="175.37" y="195.65" font-family="Arial" font-size="10" fill="rgb(0, 0, 0)">HO</tspan></text></g><g><text xml:space="preserve" text-anchor="start" text-rendering="geometricPrecision"><tspan x="219.52" y="225.66" font-family="Arial" font-size="10" fill="rgb(0, 0, 0)">OH</tspan></text></g><g><text xml:space="preserve" text-anchor="start" text-rendering="geometricPrecision"><tspan x="245.51" y="150.65" font-family="Arial" font-size="10" fill="rgb(0, 0, 0)">OH</tspan></text></g><g><text xml:space="preserve" text-anchor="start" text-rendering="geometricPrecision"><tspan x="271.49" y="225.66" font-family="Arial" font-size="10" fill="rgb(0, 0, 0)">OH</tspan></text></g><g><text xml:space="preserve" text-anchor="start" text-rendering="geometricPrecision"><tspan x="323.45" y="195.65" font-family="Arial" font-size="10" fill="rgb(0, 0, 0)">OH</tspan></text></g><g id="Solid"><path d="M176.68 189.55 L176.68 189.55 L176.43 189.12 L176.18 188.68 L197.45 176.4 L197.45 176.98 L197.45 177.56 Z" stroke="rgb(0, 0, 0)" stroke-width="0" fill-rule="evenodd" stroke-linejoin="miter" fill="rgb(0, 0, 0)" shape-rendering="geometricPrecision" /></g><g id="Solid"><path d="M197.45 177.56 L197.45 177.56 L197.45 176.98 L197.45 176.4 L223.43 191.4 L223.43 191.98 L222.91 192.26 Z" stroke="rgb(0, 0, 0)" stroke-width="0" fill-rule="evenodd" stroke-linejoin="miter" fill="rgb(0, 0, 0)" shape-rendering="geometricPrecision" /></g><g id="WedgeBegin"><path d="M222.91 192.26 L222.91 192.26 L223.43 191.98 L223.95 192.26 L226.43 216.4 L223.43 216.4 L220.43 216.4 Z" stroke="rgb(0, 0, 0)" stroke-width="0" fill-rule="evenodd" stroke-linejoin="miter" fill="rgb(0, 0, 0)" shape-rendering="geometricPrecision" /></g><g id="Solid"><path d="M223.95 192.26 L223.95 192.26 L223.43 191.98 L223.43 191.4 L248.89 176.7 L249.41 176.98 L249.41 177.56 Z" stroke="rgb(0, 0, 0)" stroke-width="0" fill-rule="evenodd" stroke-linejoin="miter" fill="rgb(0, 0, 0)" shape-rendering="geometricPrecision" /></g><g id="WedgeBegin"><path d="M249.93 176.7 L249.93 176.7 L249.41 176.98 L248.89 176.7 L246.41 152.8 L249.41 152.8 L252.41 152.8 Z" stroke="rgb(0, 0, 0)" stroke-width="0" fill-rule="evenodd" stroke-linejoin="miter" fill="rgb(0, 0, 0)" shape-rendering="geometricPrecision" /></g><g id="Solid"><path d="M249.41 177.56 L249.41 177.56 L249.41 176.98 L249.93 176.7 L275.4 191.4 L275.4 191.98 L275.4 192.56 Z" stroke="rgb(0, 0, 0)" stroke-width="0" fill-rule="evenodd" stroke-linejoin="miter" fill="rgb(0, 0, 0)" shape-rendering="geometricPrecision" /></g><g id="Wedged Hash Begin Bond"><path d="M274.9 191.98 L274.9 191.98 L275.9 191.98 L276 192.98 L274.8 192.98 Z" stroke="rgb(0, 0, 0)" stroke-width="0" fill-rule="evenodd" stroke-linejoin="miter" fill="rgb(0, 0, 0)" shape-rendering="geometricPrecision" /><path d="M274.6 194.91 L274.6 194.91 L276.2 194.91 L276.3 195.91 L274.5 195.91 Z" stroke="rgb(0, 0, 0)" stroke-width="0" fill-rule="evenodd" stroke-linejoin="miter" fill="rgb(0, 0, 0)" shape-rendering="geometricPrecision" /><path d="M274.3 197.83 L274.3 197.83 L276.5 197.83 L276.6 198.83 L274.2 198.83 Z" stroke="rgb(0, 0, 0)" stroke-width="0" fill-rule="evenodd" stroke-linejoin="miter" fill="rgb(0, 0, 0)" shape-rendering="geometricPrecision" /><path d="M274 200.76 L274 200.76 L276.8 200.76 L276.9 201.76 L273.9 201.76 Z" stroke="rgb(0, 0, 0)" stroke-width="0" fill-rule="evenodd" stroke-linejoin="miter" fill="rgb(0, 0, 0)" shape-rendering="geometricPrecision" /><path d="M273.7 203.69 L273.7 203.69 L277.1 203.69 L277.2 204.69 L273.6 204.69 Z" stroke="rgb(0, 0, 0)" stroke-width="0" fill-rule="evenodd" stroke-linejoin="miter" fill="rgb(0, 0, 0)" shape-rendering="geometricPrecision" /><path d="M273.4 206.62 L273.4 206.62 L277.4 206.62 L277.5 207.62 L273.3 207.62 Z" stroke="rgb(0, 0, 0)" stroke-width="0" fill-rule="evenodd" stroke-linejoin="miter" fill="rgb(0, 0, 0)" shape-rendering="geometricPrecision" /><path d="M273.1 209.54 L273.1 209.54 L277.7 209.54 L277.8 210.54 L273 210.54 Z" stroke="rgb(0, 0, 0)" stroke-width="0" fill-rule="evenodd" stroke-linejoin="miter" fill="rgb(0, 0, 0)" shape-rendering="geometricPrecision" /><path d="M272.8 212.47 L272.8 212.47 L278 212.47 L278.1 213.47 L272.7 213.47 Z" stroke="rgb(0, 0, 0)" stroke-width="0" fill-rule="evenodd" stroke-linejoin="miter" fill="rgb(0, 0, 0)" shape-rendering="geometricPrecision" /><path d="M272.5 215.4 L272.5 215.4 L278.3 215.4 L278.4 216.4 L272.4 216.4 Z" stroke="rgb(0, 0, 0)" stroke-width="0" fill-rule="evenodd" stroke-linejoin="miter" fill="rgb(0, 0, 0)" shape-rendering="geometricPrecision" /></g><g id="Solid"><path d="M275.4 192.56 L275.4 192.56 L275.4 191.98 L275.4 191.4 L301.37 176.4 L301.37 176.98 L301.37 177.56 Z" stroke="rgb(0, 0, 0)" stroke-width="0" fill-rule="evenodd" stroke-linejoin="miter" fill="rgb(0, 0, 0)" shape-rendering="geometricPrecision" /></g><g id="Solid"><path d="M301.37 177.56 L301.37 177.56 L301.37 176.98 L301.37 176.4 L322.72 188.72 L322.47 189.16 L322.22 189.59 Z" stroke="rgb(0, 0, 0)" stroke-width="0" fill-rule="evenodd" stroke-linejoin="miter" fill="rgb(0, 0, 0)" shape-rendering="geometricPrecision" /></g></g></g></svg>