<?xml version="1.0" standalone="no" ?>
<!DOCTYPE svg PUBLIC "-//W3C//DTD SVG 1.1//EN" "http://www.w3.org/Graphics/SVG/1.1/DTD/svg11.dtd">
<svg width="546px" height="337px" viewBox="0 0 546 337" style="background-color: #ffffff00" xmlns="http://www.w3.org/2000/svg" xmlns:xlink="http://www.w3.org/1999/xlink" version="1.1" >
<text x="0" y="0" stroke="transparent" fill="#000000" transform="matrix(0.0833333 0 0 0.0833333 115.165 163.583)" style="font:normal normal normal 200px 'Arial'" >
HO</text>
<text x="0" y="0" stroke="transparent" fill="#000000" transform="matrix(0.0833333 0 0 0.0833333 213.801 313.589)" style="font:normal normal normal 200px 'Arial'" >
O</text>
<text x="0" y="0" stroke="transparent" fill="#000000" transform="matrix(0.0833333 0 0 0.0833333 300.405 163.583)" style="font:normal normal normal 200px 'Arial'" >
O</text>
<text x="0" y="0" stroke="transparent" fill="#000000" transform="matrix(0.0833333 0 0 0.0833333 516.911 88.583)" style="font:normal normal normal 200px 'Arial'" >
OH</text>
<text x="0" y="0" stroke="transparent" fill="#000000" transform="matrix(0.0833333 0 0 0.0833333 430.308 238.588)" style="font:normal normal normal 200px 'Arial'" >
O</text>
<text x="0" y="0" stroke="transparent" fill="#000000" transform="matrix(0.0833333 0 0 0.0833333 300.405 313.587)" style="font:normal normal normal 200px 'Arial'" >
O</text>
<path stroke="transparent" fill="#000000" transform="matrix(0.0833333 0 0 0.0833333 -146.25 -258)" d="M 3883.98,3531.2 L 3873.98,3513.88 L 4411.6,3203.48 L 4421.6,3220.8 L 3883.98,3531.2 Z " />
<path stroke="transparent" fill="#000000" transform="matrix(0.0833333 0 0 0.0833333 -146.25 -258)" d="M 3847.97,3468.84 L 3837.97,3451.52 L 4375.6,3141.12 L 4385.6,3158.44 L 3847.97,3468.84 Z " />
<path stroke="transparent" fill="#000000" transform="matrix(0.0833333 0 0 0.0833333 -146.25 -258)" d="M 3354.36,3189.63 L 3364.36,3172.31 L 3888.98,3475.19 L 3868.98,3486.74 L 3354.36,3189.63 Z " />
<path stroke="transparent" fill="#000000" transform="matrix(0.0833333 0 0 0.0833333 -146.25 -258)" d="M 3868.98,3486.74 L 3888.98,3475.19 L 3888.97,4075.19 L 3878.97,4080.97 L 3868.97,4074.66 L 3868.98,3486.74 Z " />
<path stroke="transparent" fill="#000000" transform="matrix(0.0833333 0 0 0.0833333 -146.25 -258)" d="M 3407.5,4420.33 L 3307.33,4339.39 L 3868.97,4074.66 L 3878.97,4080.97 L 3879.43,4092.78 L 3407.5,4420.33 Z " />
<path stroke="transparent" fill="#000000" transform="matrix(0.0833333 0 0 0.0833333 -146.25 -258)" d="M 2839.77,4092.5 L 2839.78,4069.4 L 3307.33,4339.39 L 3407.5,4420.33 L 2839.77,4092.5 Z " />
<path stroke="transparent" fill="#000000" transform="matrix(0.0833333 0 0 0.0833333 -146.25 -258)" d="M 2330.15,4386.73 L 2320.15,4380.96 L 2320.15,4369.41 L 2839.78,4069.4 L 2839.77,4092.5 L 2330.15,4386.73 Z " />
<path stroke="transparent" fill="#000000" transform="matrix(0.0833333 0 0 0.0833333 -146.25 -258)" d="M 2397.15,4431.19 L 2387.15,4413.87 L 2834.77,4155.43 L 2844.77,4172.75 L 2397.15,4431.19 Z " />
<path stroke="transparent" fill="#000000" transform="matrix(0.0833333 0 0 0.0833333 -146.25 -258)" d="M 2330.09,4980.99 L 2310.09,4980.98 L 2310.15,4386.73 L 2320.15,4380.96 L 2330.15,4386.73 L 2330.09,4980.99 Z " />
<path stroke="transparent" fill="#000000" transform="matrix(0.0833333 0 0 0.0833333 -146.25 -258)" d="M 1795.53,4089.62 L 1805.53,4072.3 L 2320.15,4369.41 L 2320.15,4380.96 L 2310.15,4386.73 L 1795.53,4089.62 Z " />
<path stroke="transparent" fill="#000000" transform="matrix(0.0833333 0 0 0.0833333 -146.25 -258)" d="M 4408.62,4375.24 L 4388.62,4386.78 L 3879.43,4092.78 L 3878.97,4080.97 L 3888.97,4075.19 L 4408.62,4375.24 Z " />
<path stroke="transparent" fill="#000000" transform="matrix(0.0833333 0 0 0.0833333 -146.25 -258)" d="M 4408.61,4975.24 L 4398.61,4981.01 L 4388.61,4975.24 L 4388.62,4386.78 L 4408.62,4375.24 L 4408.61,4975.24 Z " />
<path stroke="transparent" fill="#000000" transform="matrix(0.0833333 0 0 0.0833333 -146.25 -258)" d="M 3888.98,5286.79 L 3878.98,5281.02 L 3878.98,5269.47 L 4388.61,4975.24 L 4398.61,4981.01 L 4398.61,4992.56 L 3888.98,5286.79 Z " />
<path stroke="transparent" fill="#000000" transform="matrix(0.0833333 0 0 0.0833333 -146.25 -258)" d="M 3955.98,5331.25 L 3945.98,5313.93 L 4393.61,5055.49 L 4403.61,5072.81 L 3955.98,5331.25 Z " />
<path stroke="transparent" fill="#000000" transform="matrix(0.0833333 0 0 0.0833333 -146.25 -258)" d="M 3454.44,5047.41 L 3464.44,5030.09 L 3878.98,5269.47 L 3878.98,5281.02 L 3868.98,5286.79 L 3454.44,5047.41 Z " />
<path stroke="transparent" fill="#000000" transform="matrix(0.0833333 0 0 0.0833333 -146.25 -258)" d="M 3888.98,5875.24 L 3868.98,5886.79 L 3868.98,5286.79 L 3878.98,5281.02 L 3888.98,5286.79 L 3888.98,5875.24 Z " />
<path stroke="transparent" fill="#000000" transform="matrix(0.0833333 0 0 0.0833333 -146.25 -258)" d="M 4398.59,6169.46 L 4398.59,6181.01 L 4388.59,6186.78 L 3868.98,5886.79 L 3888.98,5875.24 L 4398.59,6169.46 Z " />
<path stroke="transparent" fill="#000000" transform="matrix(0.0833333 0 0 0.0833333 -146.25 -258)" d="M 4403.59,6089.21 L 4393.59,6106.53 L 3945.98,5848.11 L 3955.98,5830.79 L 4403.59,6089.21 Z " />
<path stroke="transparent" fill="#000000" transform="matrix(0.0833333 0 0 0.0833333 -146.25 -258)" d="M 4408.61,6675.9 L 4388.61,6675.9 L 4388.59,6186.78 L 4398.59,6181.01 L 4408.59,6186.78 L 4408.61,6675.9 Z " />
<path stroke="transparent" fill="#000000" transform="matrix(0.0833333 0 0 0.0833333 -146.25 -258)" d="M 4923.24,7072.4 L 4913.24,7089.72 L 4493.65,6847.48 L 4503.65,6830.16 L 4923.24,7072.4 Z " />
<path stroke="transparent" fill="#000000" transform="matrix(0.0833333 0 0 0.0833333 -146.25 -258)" d="M 4908.22,5875.23 L 4918.22,5881 L 4918.22,5892.55 L 4408.59,6186.78 L 4398.59,6181.01 L 4398.59,6169.46 L 4908.22,5875.23 Z " />
<path stroke="transparent" fill="#000000" transform="matrix(0.0833333 0 0 0.0833333 -146.25 -258)" d="M 4908.23,5286.78 L 4918.23,5281 L 4928.23,5286.78 L 4928.22,5875.23 L 4918.22,5881 L 4908.22,5875.23 L 4908.23,5286.78 Z " />
<path stroke="transparent" fill="#000000" transform="matrix(0.0833333 0 0 0.0833333 -146.25 -258)" d="M 4836.23,5322.57 L 4856.23,5322.57 L 4856.22,5839.44 L 4836.22,5839.43 L 4836.23,5322.57 Z " />
<path stroke="transparent" fill="#000000" transform="matrix(0.0833333 0 0 0.0833333 -146.25 -258)" d="M 4918.23,5269.46 L 4918.23,5281 L 4908.23,5286.78 L 4398.61,4992.56 L 4398.61,4981.01 L 4408.61,4975.24 L 4918.23,5269.46 Z " />
<path stroke="transparent" fill="#000000" transform="matrix(0.0833333 0 0 0.0833333 -146.25 -258)" d="M 5333.25,5029.84 L 5343.25,5047.16 L 4928.23,5286.78 L 4918.23,5281 L 4918.23,5269.46 L 5333.25,5029.84 Z " />
<path stroke="transparent" fill="#000000" transform="matrix(0.0833333 0 0 0.0833333 -146.25 -258)" d="M 5532.89,5047.41 L 5542.89,5030.09 L 5967.47,5275.22 L 5947.47,5286.77 L 5532.89,5047.41 Z " />
<path stroke="transparent" fill="#000000" transform="matrix(0.0833333 0 0 0.0833333 -146.25 -258)" d="M 6400.21,4956.1 L 6460.21,5060.02 L 6441.87,5068.26 L 6383.91,4967.86 L 6400.21,4956.1 Z " />
<path stroke="transparent" fill="#000000" transform="matrix(0.0833333 0 0 0.0833333 -146.25 -258)" d="M 6352.14,4990.78 L 6406.14,5084.31 L 6387.8,5092.55 L 6335.83,5002.54 L 6352.14,4990.78 Z " />
<path stroke="transparent" fill="#000000" transform="matrix(0.0833333 0 0 0.0833333 -146.25 -258)" d="M 6304.06,5025.45 L 6352.07,5108.61 L 6333.73,5116.85 L 6287.76,5037.22 L 6304.06,5025.45 Z " />
<path stroke="transparent" fill="#000000" transform="matrix(0.0833333 0 0 0.0833333 -146.25 -258)" d="M 6255.99,5060.13 L 6298,5132.9 L 6279.66,5141.14 L 6239.68,5071.89 L 6255.99,5060.13 Z " />
<path stroke="transparent" fill="#000000" transform="matrix(0.0833333 0 0 0.0833333 -146.25 -258)" d="M 6207.91,5094.81 L 6243.93,5157.19 L 6225.59,5165.43 L 6191.61,5106.57 L 6207.91,5094.81 Z " />
<path stroke="transparent" fill="#000000" transform="matrix(0.0833333 0 0 0.0833333 -146.25 -258)" d="M 6159.84,5129.49 L 6189.86,5181.49 L 6171.52,5189.73 L 6143.54,5141.25 L 6159.84,5129.49 Z " />
<path stroke="transparent" fill="#000000" transform="matrix(0.0833333 0 0 0.0833333 -146.25 -258)" d="M 6111.77,5164.17 L 6135.79,5205.78 L 6117.45,5214.02 L 6095.46,5175.93 L 6111.77,5164.17 Z " />
<path stroke="transparent" fill="#000000" transform="matrix(0.0833333 0 0 0.0833333 -146.25 -258)" d="M 6063.69,5198.85 L 6081.72,5230.08 L 6063.38,5238.32 L 6047.39,5210.61 L 6063.69,5198.85 Z " />
<path stroke="transparent" fill="#000000" transform="matrix(0.0833333 0 0 0.0833333 -146.25 -258)" d="M 6015.62,5233.53 L 6027.65,5254.37 L 6009.31,5262.61 L 5999.31,5245.29 L 6015.62,5233.53 Z " />
<path stroke="transparent" fill="#000000" transform="matrix(0.0833333 0 0 0.0833333 -146.25 -258)" d="M 6467.06,4375.24 L 6487.06,4386.79 L 6487.05,4975.24 L 6467.05,4986.79 L 6467.06,4375.24 Z " />
<path stroke="transparent" fill="#000000" transform="matrix(0.0833333 0 0 0.0833333 -146.25 -258)" d="M 6539.06,4422.58 L 6559.06,4422.58 L 6559.05,4939.45 L 6539.05,4939.45 L 6539.06,4422.58 Z " />
<path stroke="transparent" fill="#000000" transform="matrix(0.0833333 0 0 0.0833333 -146.25 -258)" d="M 6996.74,4069.43 L 6996.73,4092.53 L 6487.06,4386.79 L 6467.06,4375.24 L 6996.74,4069.43 Z " />
<path stroke="transparent" fill="#000000" transform="matrix(0.0833333 0 0 0.0833333 -146.25 -258)" d="M 7516.3,4369.45 L 7516.3,4381 L 7506.3,4386.77 L 6996.73,4092.53 L 6996.74,4069.43 L 7516.3,4369.45 Z " />
<path stroke="transparent" fill="#000000" transform="matrix(0.0833333 0 0 0.0833333 -146.25 -258)" d="M 7449.31,4413.91 L 7439.31,4431.23 L 6991.73,4172.77 L 7001.73,4155.45 L 7449.31,4413.91 Z " />
<path stroke="transparent" fill="#000000" transform="matrix(0.0833333 0 0 0.0833333 -146.25 -258)" d="M 7931.32,4129.84 L 7941.32,4147.16 L 7526.3,4386.78 L 7516.3,4381 L 7516.3,4369.45 L 7931.32,4129.84 Z " />
<path stroke="transparent" fill="#000000" transform="matrix(0.0833333 0 0 0.0833333 -146.25 -258)" d="M 7526.32,4986.83 L 7506.32,4975.28 L 7506.3,4386.77 L 7516.3,4381 L 7526.3,4386.78 L 7526.32,4986.83 Z " />
<path stroke="transparent" fill="#000000" transform="matrix(0.0833333 0 0 0.0833333 -146.25 -258)" d="M 7006.7,5286.83 L 6996.7,5281.06 L 6996.7,5269.51 L 7506.32,4975.28 L 7526.32,4986.83 L 7006.7,5286.83 Z " />
<path stroke="transparent" fill="#000000" transform="matrix(0.0833333 0 0 0.0833333 -146.25 -258)" d="M 7001.7,5206.58 L 6991.7,5189.26 L 7439.32,4930.82 L 7449.32,4948.14 L 7001.7,5206.58 Z " />
<path stroke="transparent" fill="#000000" transform="matrix(0.0833333 0 0 0.0833333 -146.25 -258)" d="M 6996.7,5269.51 L 6996.7,5281.06 L 6986.7,5286.83 L 6467.05,4986.79 L 6487.05,4975.24 L 6996.7,5269.51 Z " />
<path stroke="transparent" fill="#000000" transform="matrix(0.0833333 0 0 0.0833333 -146.25 -258)" d="M 7006.69,5775.89 L 6986.69,5775.89 L 6986.7,5286.83 L 6996.7,5281.06 L 7006.7,5286.83 L 7006.69,5775.89 Z " />
<path stroke="transparent" fill="#000000" transform="matrix(0.0833333 0 0 0.0833333 -146.25 -258)" d="M 6482.12,6189.7 L 6472.12,6172.38 L 6892.09,5929.91 L 6902.09,5947.23 L 6482.12,6189.7 Z " />
<path stroke="transparent" fill="#000000" transform="matrix(0.0833333 0 0 0.0833333 -146.25 -258)" d="M 5967.55,5886.79 L 5947.55,5875.24 L 5947.47,5286.77 L 5967.47,5275.22 L 5967.55,5886.79 Z " />
<path stroke="transparent" fill="#000000" transform="matrix(0.0833333 0 0 0.0833333 -146.25 -258)" d="M 5437.87,6192.6 L 5437.87,6169.5 L 5947.55,5875.24 L 5967.55,5886.79 L 5437.87,6192.6 Z " />
<path stroke="transparent" fill="#000000" transform="matrix(0.0833333 0 0 0.0833333 -146.25 -258)" d="M 5437.87,6169.5 L 5437.87,6192.6 L 4918.22,5892.55 L 4918.22,5881 L 4928.22,5875.23 L 5437.87,6169.5 Z " />
<path stroke="transparent" fill="#000000" transform="matrix(0.0833333 0 0 0.0833333 -146.25 -258)" d="M 5483.86,6675.88 L 5463.86,6675.88 L 5463.87,6160.26 L 5483.87,6160.27 L 5483.86,6675.88 Z " />
<path stroke="transparent" fill="#000000" transform="matrix(0.0833333 0 0 0.0833333 -146.25 -258)" d="M 5411.86,6675.88 L 5391.86,6675.88 L 5391.87,6160.26 L 5411.87,6160.26 L 5411.86,6675.88 Z " />
</svg>
