<?xml version="1.0" standalone="no" ?>
<!DOCTYPE svg PUBLIC "-//W3C//DTD SVG 1.1//EN" "http://www.w3.org/Graphics/SVG/1.1/DTD/svg11.dtd">
<svg width="676px" height="247px" viewBox="0 0 676 247" style="background-color: #ffffff00" xmlns="http://www.w3.org/2000/svg" xmlns:xlink="http://www.w3.org/1999/xlink" version="1.1" >
<path stroke="transparent" fill="#000000" transform="matrix(0.0833333 0 0 0.0833333 -98.2083 -236)" d="M 1221.12,4778.27 L 1231.12,4760.95 L 1658.11,5007.48 L 1648.11,5024.81 L 1221.12,4778.27 Z " />
<path stroke="transparent" fill="#000000" transform="matrix(0.0833333 0 0 0.0833333 -98.2083 -236)" d="M 1843.35,5024.81 L 1833.35,5007.48 L 2255.34,4763.84 L 2265.34,4769.61 L 2265.34,4781.16 L 1843.35,5024.81 Z " />
<path stroke="transparent" fill="#000000" transform="matrix(0.0833333 0 0 0.0833333 -98.2083 -236)" d="M 2275.34,4763.84 L 2265.34,4769.61 L 2255.34,4763.84 L 2255.34,4175.37 L 2265.34,4169.6 L 2275.34,4175.37 L 2275.34,4763.84 Z " />
<path stroke="transparent" fill="#000000" transform="matrix(0.0833333 0 0 0.0833333 -98.2083 -236)" d="M 2265.34,4781.16 L 2265.34,4769.61 L 2275.34,4763.84 L 2784.95,5058.03 L 2784.95,5069.58 L 2774.95,5075.35 L 2265.34,4781.16 Z " />
<path stroke="transparent" fill="#000000" transform="matrix(0.0833333 0 0 0.0833333 -98.2083 -236)" d="M 2332.34,4736.7 L 2342.34,4719.38 L 2789.95,4977.78 L 2779.95,4995.11 L 2332.34,4736.7 Z " />
<path stroke="transparent" fill="#000000" transform="matrix(0.0833333 0 0 0.0833333 -98.2083 -236)" d="M 2794.95,5564.43 L 2774.95,5564.43 L 2774.95,5075.35 L 2784.95,5069.58 L 2794.95,5075.35 L 2794.95,5564.43 Z " />
<path stroke="transparent" fill="#000000" transform="matrix(0.0833333 0 0 0.0833333 -98.2083 -236)" d="M 2794.95,5075.35 L 2784.95,5069.58 L 2784.95,5058.03 L 3294.56,4763.8 L 3304.56,4769.57 L 3304.56,4781.12 L 2794.95,5075.35 Z " />
<path stroke="transparent" fill="#000000" transform="matrix(0.0833333 0 0 0.0833333 -98.2083 -236)" d="M 3314.56,4763.8 L 3304.56,4769.57 L 3294.56,4763.8 L 3294.56,4175.33 L 3304.56,4169.56 L 3314.56,4175.33 L 3314.56,4763.8 Z " />
<path stroke="transparent" fill="#000000" transform="matrix(0.0833333 0 0 0.0833333 -98.2083 -236)" d="M 3242.56,4728 L 3222.56,4728 L 3222.56,4211.13 L 3242.56,4211.13 L 3242.56,4728 Z " />
<path stroke="transparent" fill="#000000" transform="matrix(0.0833333 0 0 0.0833333 -98.2083 -236)" d="M 3304.56,4781.12 L 3304.56,4769.57 L 3314.56,4763.8 L 3824.21,5058.03 L 3824.22,5081.13 L 3304.56,4781.12 Z " />
<path stroke="transparent" fill="#000000" transform="matrix(0.0833333 0 0 0.0833333 -98.2083 -236)" d="M 3870.22,5564.43 L 3850.22,5564.43 L 3850.22,5048.79 L 3870.22,5048.79 L 3870.22,5564.43 Z " />
<path stroke="transparent" fill="#000000" transform="matrix(0.0833333 0 0 0.0833333 -98.2083 -236)" d="M 3798.21,5564.43 L 3778.21,5564.43 L 3778.21,5048.8 L 3798.21,5048.8 L 3798.21,5564.43 Z " />
<path stroke="transparent" fill="#000000" transform="matrix(0.0833333 0 0 0.0833333 -98.2083 -236)" d="M 3824.22,5081.13 L 3824.21,5058.03 L 4333.83,4763.8 L 4353.83,4775.35 L 3824.22,5081.13 Z " />
<path stroke="transparent" fill="#000000" transform="matrix(0.0833333 0 0 0.0833333 -98.2083 -236)" d="M 4353.83,4775.35 L 4333.83,4763.8 L 4333.83,4175.33 L 4343.83,4169.56 L 4353.83,4175.33 L 4353.83,4775.35 Z " />
<path stroke="transparent" fill="#000000" transform="matrix(0.0833333 0 0 0.0833333 -98.2083 -236)" d="M 4281.82,4728 L 4261.82,4728 L 4261.82,4211.13 L 4281.82,4211.13 L 4281.82,4728 Z " />
<path stroke="transparent" fill="#000000" transform="matrix(0.0833333 0 0 0.0833333 -98.2083 -236)" d="M 5383.09,4158.01 L 5383.09,4181.11 L 4863.44,3881.14 L 4863.44,3869.59 L 4873.44,3863.82 L 5383.09,4158.01 Z " />
<path stroke="transparent" fill="#000000" transform="matrix(0.0833333 0 0 0.0833333 -98.2083 -236)" d="M 5383.09,4181.11 L 5383.09,4158.01 L 5892.7,3863.82 L 5912.7,3875.37 L 5383.09,4181.11 Z " />
<path stroke="transparent" fill="#000000" transform="matrix(0.0833333 0 0 0.0833333 -98.2083 -236)" d="M 5388.09,4095.09 L 5378.09,4077.77 L 5825.7,3819.36 L 5835.7,3836.68 L 5388.09,4095.09 Z " />
<path stroke="transparent" fill="#000000" transform="matrix(0.0833333 0 0 0.0833333 -98.2083 -236)" d="M 5912.7,3875.37 L 5892.7,3863.82 L 5892.7,3275.35 L 5902.7,3269.58 L 5912.7,3275.35 L 5912.7,3875.37 Z " />
<path stroke="transparent" fill="#000000" transform="matrix(0.0833333 0 0 0.0833333 -98.2083 -236)" d="M 6544.96,4168.06 L 6484.97,4064.13 L 6931.96,3863.18 L 6941.96,3869.59 L 6942.52,3881.46 L 6544.96,4168.06 Z " />
<path stroke="transparent" fill="#000000" transform="matrix(0.0833333 0 0 0.0833333 -98.2083 -236)" d="M 6951.96,3863.82 L 6941.96,3869.59 L 6931.96,3863.18 L 6931.96,3263.81 L 6951.96,3275.35 L 6951.96,3863.82 Z " />
<path stroke="transparent" fill="#000000" transform="matrix(0.0833333 0 0 0.0833333 -98.2083 -236)" d="M 7461.57,4158.01 L 7461.57,4181.11 L 6942.52,3881.46 L 6941.96,3869.59 L 6951.96,3863.82 L 7461.57,4158.01 Z " />
<path stroke="transparent" fill="#000000" transform="matrix(0.0833333 0 0 0.0833333 -98.2083 -236)" d="M 7521.57,4664.41 L 7401.57,4664.41 L 7403.84,4644.41 L 7519.31,4644.41 L 7521.57,4664.41 Z " />
<path stroke="transparent" fill="#000000" transform="matrix(0.0833333 0 0 0.0833333 -98.2083 -236)" d="M 7514.76,4604.3 L 7408.39,4604.3 L 7410.66,4584.3 L 7512.49,4584.3 L 7514.76,4604.3 Z " />
<path stroke="transparent" fill="#000000" transform="matrix(0.0833333 0 0 0.0833333 -98.2083 -236)" d="M 7507.94,4544.19 L 7415.21,4544.19 L 7417.48,4524.19 L 7505.67,4524.19 L 7507.94,4544.19 Z " />
<path stroke="transparent" fill="#000000" transform="matrix(0.0833333 0 0 0.0833333 -98.2083 -236)" d="M 7501.12,4484.08 L 7422.03,4484.08 L 7424.3,4464.08 L 7498.85,4464.08 L 7501.12,4484.08 Z " />
<path stroke="transparent" fill="#000000" transform="matrix(0.0833333 0 0 0.0833333 -98.2083 -236)" d="M 7494.3,4423.98 L 7428.85,4423.98 L 7431.12,4403.98 L 7492.03,4403.98 L 7494.3,4423.98 Z " />
<path stroke="transparent" fill="#000000" transform="matrix(0.0833333 0 0 0.0833333 -98.2083 -236)" d="M 7487.48,4363.87 L 7435.67,4363.87 L 7437.94,4343.87 L 7485.21,4343.87 L 7487.48,4363.87 Z " />
<path stroke="transparent" fill="#000000" transform="matrix(0.0833333 0 0 0.0833333 -98.2083 -236)" d="M 7480.66,4303.76 L 7442.49,4303.76 L 7444.76,4283.76 L 7478.39,4283.76 L 7480.66,4303.76 Z " />
<path stroke="transparent" fill="#000000" transform="matrix(0.0833333 0 0 0.0833333 -98.2083 -236)" d="M 7473.84,4243.65 L 7449.31,4243.65 L 7451.57,4223.65 L 7471.57,4223.65 L 7473.84,4243.65 Z " />
<path stroke="transparent" fill="#000000" transform="matrix(0.0833333 0 0 0.0833333 -98.2083 -236)" d="M 7971.23,3863.82 L 7981.23,3869.59 L 7980.67,3881.46 L 7461.57,4181.11 L 7461.57,4158.01 L 7971.23,3863.82 Z " />
<path stroke="transparent" fill="#000000" transform="matrix(0.0833333 0 0 0.0833333 -98.2083 -236)" d="M 8438.21,4064.13 L 8378.22,4168.05 L 7980.67,3881.46 L 7981.23,3869.59 L 7991.23,3863.18 L 8438.21,4064.13 Z " />
<path stroke="transparent" fill="#000000" transform="matrix(0.0833333 0 0 0.0833333 -98.2083 -236)" d="M 7971.23,3275.35 L 7991.23,3263.81 L 7991.23,3863.18 L 7981.23,3869.59 L 7971.23,3863.82 L 7971.23,3275.35 Z " />
<path stroke="transparent" fill="#000000" transform="matrix(0.0833333 0 0 0.0833333 -98.2083 -236)" d="M 8932.83,3207.45 L 8922.83,3224.77 L 8495.84,2978.23 L 8505.84,2960.91 L 8932.83,3207.45 Z " />
<path stroke="transparent" fill="#000000" transform="matrix(0.0833333 0 0 0.0833333 -98.2083 -236)" d="M 8423.99,2944.66 L 8483.99,3048.58 L 8465.66,3056.82 L 8407.69,2956.42 L 8423.99,2944.66 Z " />
<path stroke="transparent" fill="#000000" transform="matrix(0.0833333 0 0 0.0833333 -98.2083 -236)" d="M 8375.92,2979.34 L 8429.92,3072.88 L 8411.58,3081.12 L 8359.61,2991.1 L 8375.92,2979.34 Z " />
<path stroke="transparent" fill="#000000" transform="matrix(0.0833333 0 0 0.0833333 -98.2083 -236)" d="M 8327.84,3014.02 L 8375.85,3097.17 L 8357.51,3105.41 L 8311.53,3025.78 L 8327.84,3014.02 Z " />
<path stroke="transparent" fill="#000000" transform="matrix(0.0833333 0 0 0.0833333 -98.2083 -236)" d="M 8279.76,3048.7 L 8321.77,3121.47 L 8303.44,3129.71 L 8263.46,3060.46 L 8279.76,3048.7 Z " />
<path stroke="transparent" fill="#000000" transform="matrix(0.0833333 0 0 0.0833333 -98.2083 -236)" d="M 8231.68,3083.39 L 8267.7,3145.77 L 8249.36,3154.01 L 8215.38,3095.15 L 8231.68,3083.39 Z " />
<path stroke="transparent" fill="#000000" transform="matrix(0.0833333 0 0 0.0833333 -98.2083 -236)" d="M 8183.61,3118.07 L 8213.63,3170.06 L 8195.29,3178.3 L 8167.3,3129.83 L 8183.61,3118.07 Z " />
<path stroke="transparent" fill="#000000" transform="matrix(0.0833333 0 0 0.0833333 -98.2083 -236)" d="M 8135.53,3152.75 L 8159.55,3194.36 L 8141.22,3202.6 L 8119.22,3164.51 L 8135.53,3152.75 Z " />
<path stroke="transparent" fill="#000000" transform="matrix(0.0833333 0 0 0.0833333 -98.2083 -236)" d="M 8087.45,3187.43 L 8105.48,3218.66 L 8087.14,3226.9 L 8071.15,3199.19 L 8087.45,3187.43 Z " />
<path stroke="transparent" fill="#000000" transform="matrix(0.0833333 0 0 0.0833333 -98.2083 -236)" d="M 8039.37,3222.11 L 8051.41,3242.96 L 8033.07,3251.19 L 8023.07,3233.87 L 8039.37,3222.11 Z " />
<path stroke="transparent" fill="#000000" transform="matrix(0.0833333 0 0 0.0833333 -98.2083 -236)" d="M 7556.61,3035.99 L 7566.61,3018.67 L 7991.23,3263.81 L 7971.23,3275.35 L 7556.61,3035.99 Z " />
<path stroke="transparent" fill="#000000" transform="matrix(0.0833333 0 0 0.0833333 -98.2083 -236)" d="M 7356.97,3018.42 L 7366.97,3035.74 L 6951.96,3275.35 L 6931.96,3263.81 L 7356.97,3018.42 Z " />
<path stroke="transparent" fill="#000000" transform="matrix(0.0833333 0 0 0.0833333 -98.2083 -236)" d="M 6492.39,3079.29 L 6552.39,2975.37 L 6568.55,2987.38 L 6510.87,3087.28 L 6492.39,3079.29 Z " />
<path stroke="transparent" fill="#000000" transform="matrix(0.0833333 0 0 0.0833333 -98.2083 -236)" d="M 6546.57,3102.71 L 6599.76,3010.59 L 6615.92,3022.6 L 6565.05,3110.7 L 6546.57,3102.71 Z " />
<path stroke="transparent" fill="#000000" transform="matrix(0.0833333 0 0 0.0833333 -98.2083 -236)" d="M 6600.75,3126.13 L 6647.13,3045.8 L 6663.29,3057.81 L 6619.24,3134.12 L 6600.75,3126.13 Z " />
<path stroke="transparent" fill="#000000" transform="matrix(0.0833333 0 0 0.0833333 -98.2083 -236)" d="M 6654.94,3149.55 L 6694.5,3081.02 L 6710.66,3093.03 L 6673.42,3157.54 L 6654.94,3149.55 Z " />
<path stroke="transparent" fill="#000000" transform="matrix(0.0833333 0 0 0.0833333 -98.2083 -236)" d="M 6709.12,3172.97 L 6741.88,3116.23 L 6758.04,3128.25 L 6727.6,3180.96 L 6709.12,3172.97 Z " />
<path stroke="transparent" fill="#000000" transform="matrix(0.0833333 0 0 0.0833333 -98.2083 -236)" d="M 6763.3,3196.39 L 6789.25,3151.45 L 6805.41,3163.46 L 6781.78,3204.37 L 6763.3,3196.39 Z " />
<path stroke="transparent" fill="#000000" transform="matrix(0.0833333 0 0 0.0833333 -98.2083 -236)" d="M 6817.49,3219.81 L 6836.62,3186.66 L 6852.78,3198.68 L 6835.97,3227.79 L 6817.49,3219.81 Z " />
<path stroke="transparent" fill="#000000" transform="matrix(0.0833333 0 0 0.0833333 -98.2083 -236)" d="M 6871.67,3243.22 L 6883.99,3221.88 L 6900.15,3233.89 L 6890.15,3251.21 L 6871.67,3243.22 Z " />
<path stroke="transparent" fill="#000000" transform="matrix(0.0833333 0 0 0.0833333 -98.2083 -236)" d="M 6317.75,3018.42 L 6327.75,3035.74 L 5912.7,3275.35 L 5902.7,3269.58 L 5902.7,3258.03 L 6317.75,3018.42 Z " />
<path stroke="transparent" fill="#000000" transform="matrix(0.0833333 0 0 0.0833333 -98.2083 -236)" d="M 5902.7,3258.03 L 5902.7,3269.58 L 5892.7,3275.35 L 5383.09,2981.12 L 5383.09,2958.03 L 5902.7,3258.03 Z " />
<path stroke="transparent" fill="#000000" transform="matrix(0.0833333 0 0 0.0833333 -98.2083 -236)" d="M 5835.7,3302.49 L 5825.7,3319.81 L 5378.09,3061.37 L 5388.09,3044.05 L 5835.7,3302.49 Z " />
<path stroke="transparent" fill="#000000" transform="matrix(0.0833333 0 0 0.0833333 -98.2083 -236)" d="M 5383.09,2958.03 L 5383.09,2981.12 L 4873.44,3275.35 L 4853.44,3263.81 L 5383.09,2958.03 Z " />
<path stroke="transparent" fill="#000000" transform="matrix(0.0833333 0 0 0.0833333 -98.2083 -236)" d="M 4853.44,3263.81 L 4873.44,3275.35 L 4873.44,3863.82 L 4863.44,3869.59 L 4853.44,3863.82 L 4853.44,3263.81 Z " />
<path stroke="transparent" fill="#000000" transform="matrix(0.0833333 0 0 0.0833333 -98.2083 -236)" d="M 4925.44,3311.15 L 4945.44,3311.15 L 4945.44,3828.02 L 4925.44,3828.02 L 4925.44,3311.15 Z " />
<path stroke="transparent" fill="#000000" transform="matrix(0.0833333 0 0 0.0833333 -98.2083 -236)" d="M 4853.44,3863.82 L 4863.44,3869.59 L 4863.44,3881.14 L 4353.83,4175.33 L 4343.83,4169.56 L 4343.83,4158.01 L 4853.44,3863.82 Z " />
<path stroke="transparent" fill="#000000" transform="matrix(0.0833333 0 0 0.0833333 -98.2083 -236)" d="M 4343.83,4158.01 L 4343.83,4169.56 L 4333.83,4175.33 L 3919.25,3936.01 L 3929.25,3918.68 L 4343.83,4158.01 Z " />
<path stroke="transparent" fill="#000000" transform="matrix(0.0833333 0 0 0.0833333 -98.2083 -236)" d="M 3719.61,3918.43 L 3729.61,3935.75 L 3314.56,4175.33 L 3304.56,4169.56 L 3304.56,4158.01 L 3719.61,3918.43 Z " />
<path stroke="transparent" fill="#000000" transform="matrix(0.0833333 0 0 0.0833333 -98.2083 -236)" d="M 3304.56,4158.01 L 3304.56,4169.56 L 3294.56,4175.33 L 2784.95,3881.14 L 2784.95,3858.05 L 3304.56,4158.01 Z " />
<path stroke="transparent" fill="#000000" transform="matrix(0.0833333 0 0 0.0833333 -98.2083 -236)" d="M 2784.95,3858.05 L 2784.95,3881.14 L 2275.34,4175.37 L 2265.34,4169.6 L 2265.34,4158.05 L 2784.95,3858.05 Z " />
<path stroke="transparent" fill="#000000" transform="matrix(0.0833333 0 0 0.0833333 -98.2083 -236)" d="M 2779.95,3944.07 L 2789.95,3961.39 L 2342.34,4219.83 L 2332.34,4202.51 L 2779.95,3944.07 Z " />
<path stroke="transparent" fill="#000000" transform="matrix(0.0833333 0 0 0.0833333 -98.2083 -236)" d="M 2265.34,4158.05 L 2265.34,4169.6 L 2255.34,4175.37 L 1840.76,3936.01 L 1850.77,3918.69 L 2265.34,4158.05 Z " />
<path stroke="transparent" fill="#000000" transform="matrix(0.0833333 0 0 0.0833333 -98.2083 -236)" d="M 1641.13,3918.44 L 1651.13,3935.76 L 1231.12,4178.26 L 1221.12,4160.94 L 1641.13,3918.44 Z " />
<text x="0" y="0" stroke="transparent" fill="#000000" transform="matrix(0.0833333 0 0 0.0833333 40.7691 192.968)" style="font:normal normal normal 200px 'Arial'" >
O</text>
<text x="0" y="0" stroke="transparent" fill="#000000" transform="matrix(0.0833333 0 0 0.0833333 127.371 242.966)" style="font:normal normal normal 200px 'Arial'" >
OH</text>
<text x="0" y="0" stroke="transparent" fill="#000000" transform="matrix(0.0833333 0 0 0.0833333 213.976 242.966)" style="font:normal normal normal 200px 'Arial'" >
O</text>
<text x="0" y="0" stroke="transparent" fill="#000000" transform="matrix(0.0833333 0 0 0.0833333 418.452 117.963)" style="font:normal normal normal 200px 'Arial'" >
HO</text>
<text x="0" y="0" stroke="transparent" fill="#000000" transform="matrix(0.0833333 0 0 0.0833333 517.09 167.964)" style="font:normal normal normal 200px 'Arial'" >
OH</text>
<text x="0" y="0" stroke="transparent" fill="#000000" transform="matrix(0.0833333 0 0 0.0833333 603.695 117.963)" style="font:normal normal normal 200px 'Arial'" >
OH</text>
<text x="0" y="0" stroke="transparent" fill="#000000" transform="matrix(0.0833333 0 0 0.0833333 646.996 42.965)" style="font:normal normal normal 200px 'Arial'" >
OH</text>
<text x="0" y="0" stroke="transparent" fill="#000000" transform="matrix(0.0833333 0 0 0.0833333 517.09 17.9645)" style="font:normal normal normal 200px 'Arial'" >
O</text>
<text x="0" y="0" stroke="transparent" fill="#000000" transform="matrix(0.0833333 0 0 0.0833333 430.488 17.9645)" style="font:normal normal normal 200px 'Arial'" >
O</text>
<text x="0" y="0" stroke="transparent" fill="#000000" transform="matrix(0.0833333 0 0 0.0833333 213.976 92.9661)" style="font:normal normal normal 200px 'Arial'" >
O</text>
<text x="0" y="0" stroke="transparent" fill="#000000" transform="matrix(0.0833333 0 0 0.0833333 40.7691 92.9661)" style="font:normal normal normal 200px 'Arial'" >
O</text>
</svg>
