<?xml version="1.0" standalone="no" ?>
<!DOCTYPE svg PUBLIC "-//W3C//DTD SVG 1.1//EN" "http://www.w3.org/Graphics/SVG/1.1/DTD/svg11.dtd">
<svg width="467px" height="345px" viewBox="0 0 467 345" style="background-color: #ffffff00" xmlns="http://www.w3.org/2000/svg" xmlns:xlink="http://www.w3.org/1999/xlink" version="1.1" >
<text x="0" y="0" stroke="transparent" fill="#000000" transform="matrix(0.0833333 0 0 0.0833333 305.327 92.8228)" style="font:normal normal normal 200px 'Arial'" >
O</text>
<text x="0" y="0" stroke="transparent" fill="#000000" transform="matrix(0.0833333 0 0 0.0833333 236.056 148.862)" style="font:normal normal normal 200px 'Arial'" >
O</text>
<text x="0" y="0" stroke="transparent" fill="#000000" transform="matrix(0.0833333 0 0 0.0833333 307.076 143.67)" style="font:normal normal normal 200px 'Arial'" >
NH</text>
<text x="0" y="0" stroke="transparent" fill="#000000" transform="matrix(0.0833333 0 0 0.0833333 294.324 115.638)" style="font:normal normal normal 200px 'Arial'" >
O</text>
<text x="0" y="0" stroke="transparent" fill="#000000" transform="matrix(0.0833333 0 0 0.0833333 147.742 297.733)" style="font:normal normal normal 200px 'Arial'" >
HO</text>
<text x="0" y="0" stroke="transparent" fill="#000000" transform="matrix(0.0833333 0 0 0.0833333 134.063 17.448)" style="font:normal normal normal 200px 'Arial'" >
OH</text>
<path stroke="transparent" fill="#000000" transform="matrix(0.0833333 0 0 0.0833333 -222.875 -164)" d="M 2816.76,4455.83 L 2719.71,4385.25 L 2732.96,4370.15 L 2827.04,4438.58 L 2816.76,4455.83 Z " />
<path stroke="transparent" fill="#000000" transform="matrix(0.0833333 0 0 0.0833333 -222.875 -164)" d="M 2846.81,4405.41 L 2758.42,4341.13 L 2771.66,4326.03 L 2857.09,4388.16 L 2846.81,4405.41 Z " />
<path stroke="transparent" fill="#000000" transform="matrix(0.0833333 0 0 0.0833333 -222.875 -164)" d="M 2876.86,4355 L 2797.12,4297.01 L 2810.37,4281.91 L 2887.14,4337.75 L 2876.86,4355 Z " />
<path stroke="transparent" fill="#000000" transform="matrix(0.0833333 0 0 0.0833333 -222.875 -164)" d="M 2906.9,4304.58 L 2835.83,4252.89 L 2849.07,4237.79 L 2917.19,4287.33 L 2906.9,4304.58 Z " />
<path stroke="transparent" fill="#000000" transform="matrix(0.0833333 0 0 0.0833333 -222.875 -164)" d="M 2936.95,4254.17 L 2874.53,4208.77 L 2887.77,4193.68 L 2947.23,4236.92 L 2936.95,4254.17 Z " />
<path stroke="transparent" fill="#000000" transform="matrix(0.0833333 0 0 0.0833333 -222.875 -164)" d="M 2967,4203.76 L 2913.23,4164.66 L 2926.48,4149.56 L 2977.28,4186.5 L 2967,4203.76 Z " />
<path stroke="transparent" fill="#000000" transform="matrix(0.0833333 0 0 0.0833333 -222.875 -164)" d="M 2997.04,4153.34 L 2951.94,4120.54 L 2965.18,4105.44 L 3007.33,4136.09 L 2997.04,4153.34 Z " />
<path stroke="transparent" fill="#000000" transform="matrix(0.0833333 0 0 0.0833333 -222.875 -164)" d="M 3027.09,4102.93 L 2990.64,4076.42 L 3003.89,4061.32 L 3037.37,4085.68 L 3027.09,4102.93 Z " />
<path stroke="transparent" fill="#000000" transform="matrix(0.0833333 0 0 0.0833333 -222.875 -164)" d="M 3057.14,4052.51 L 3029.34,4032.3 L 3042.59,4017.2 L 3067.42,4035.26 L 3057.14,4052.51 Z " />
<path stroke="transparent" fill="#000000" transform="matrix(0.0833333 0 0 0.0833333 -222.875 -164)" d="M 3087.19,4002.1 L 3068.05,3988.18 L 3081.29,3973.08 L 3097.47,3984.85 L 3087.19,4002.1 Z " />
<path stroke="transparent" fill="#000000" transform="matrix(0.0833333 0 0 0.0833333 -222.875 -164)" d="M 2865.88,3385.84 L 2888.84,3388.26 L 3127.93,3925.96 L 3114.35,3944.63 L 2865.88,3385.84 Z " />
<path stroke="transparent" fill="#000000" transform="matrix(0.0833333 0 0 0.0833333 -222.875 -164)" d="M 3225.57,2891.26 L 3234.96,2912.36 L 2888.84,3388.26 L 2865.88,3385.84 L 3225.57,2891.26 Z " />
<path stroke="transparent" fill="#000000" transform="matrix(0.0833333 0 0 0.0833333 -222.875 -164)" d="M 3825.1,2954.56 L 3828.79,2975.06 L 3234.96,2912.36 L 3225.57,2891.26 L 3825.1,2954.56 Z " />
<path stroke="transparent" fill="#000000" transform="matrix(0.0833333 0 0 0.0833333 -222.875 -164)" d="M 4350.36,2693.48 L 4360.97,2699.38 L 4360.31,2710.87 L 3828.79,2975.06 L 3825.1,2954.56 L 4350.36,2693.48 Z " />
<path stroke="transparent" fill="#000000" transform="matrix(0.0833333 0 0 0.0833333 -222.875 -164)" d="M 4864.33,3014.68 L 4863.71,3038.12 L 4360.31,2710.87 L 4360.97,2699.38 L 4371.51,2694.3 L 4864.33,3014.68 Z " />
<path stroke="transparent" fill="#000000" transform="matrix(0.0833333 0 0 0.0833333 -222.875 -164)" d="M 5385.08,2714.36 L 5382.48,2738.94 L 4863.71,3038.12 L 4864.33,3014.68 L 5385.08,2714.36 Z " />
<path stroke="transparent" fill="#000000" transform="matrix(0.0833333 0 0 0.0833333 -222.875 -164)" d="M 5342.81,2655.61 L 5352.8,2672.94 L 4871.27,2950.65 L 4861.27,2933.32 L 5342.81,2655.61 Z " />
<path stroke="transparent" fill="#000000" transform="matrix(0.0833333 0 0 0.0833333 -222.875 -164)" d="M 5841.56,3125.77 L 5817.38,3130.9 L 5382.48,2738.94 L 5385.08,2714.36 L 5841.56,3125.77 Z " />
<path stroke="transparent" fill="#000000" transform="matrix(0.0833333 0 0 0.0833333 -222.875 -164)" d="M 6298.74,2981.81 L 6302.89,3001.37 L 5798.49,3108.33 L 5794.34,3088.77 L 6298.74,2981.81 Z " />
<path stroke="transparent" fill="#000000" transform="matrix(0.0833333 0 0 0.0833333 -222.875 -164)" d="M 6313.67,3052.24 L 6317.82,3071.8 L 5813.43,3178.76 L 5809.28,3159.2 L 6313.67,3052.24 Z " />
<path stroke="transparent" fill="#000000" transform="matrix(0.0833333 0 0 0.0833333 -222.875 -164)" d="M 5637.61,3583.28 L 5619.34,3575.14 L 5817.38,3130.9 L 5841.56,3125.77 L 5637.61,3583.28 Z " />
<path stroke="transparent" fill="#000000" transform="matrix(0.0833333 0 0 0.0833333 -222.875 -164)" d="M 5551.79,3808.18 L 5669.18,3783.29 L 5718.99,4257.15 L 5709.64,4263.3 L 5697.68,4258.65 L 5551.79,3808.18 L 5551.79,3808.18 Z " />
<path stroke="transparent" fill="#000000" transform="matrix(0.0833333 0 0 0.0833333 -222.875 -164)" d="M 5199.87,4568.83 L 5179.88,4557.27 L 5697.68,4258.65 L 5709.64,4263.3 L 5709.63,4274.84 L 5199.87,4568.83 Z " />
<path stroke="transparent" fill="#000000" transform="matrix(0.0833333 0 0 0.0833333 -222.875 -164)" d="M 4744.19,4242.14 L 4824.53,4153 L 4838.03,4167.9 L 4760.41,4254.02 L 4744.19,4242.14 Z " />
<path stroke="transparent" fill="#000000" transform="matrix(0.0833333 0 0 0.0833333 -222.875 -164)" d="M 4792.02,4277.17 L 4864.33,4196.94 L 4877.82,4211.84 L 4808.23,4289.05 L 4792.02,4277.17 Z " />
<path stroke="transparent" fill="#000000" transform="matrix(0.0833333 0 0 0.0833333 -222.875 -164)" d="M 4839.84,4312.2 L 4904.12,4240.88 L 4917.62,4255.78 L 4856.06,4324.08 L 4839.84,4312.2 Z " />
<path stroke="transparent" fill="#000000" transform="matrix(0.0833333 0 0 0.0833333 -222.875 -164)" d="M 4887.66,4347.23 L 4943.92,4284.82 L 4957.41,4299.72 L 4903.88,4359.11 L 4887.66,4347.23 Z " />
<path stroke="transparent" fill="#000000" transform="matrix(0.0833333 0 0 0.0833333 -222.875 -164)" d="M 4935.49,4382.26 L 4983.71,4328.76 L 4997.21,4343.66 L 4951.71,4394.14 L 4935.49,4382.26 Z " />
<path stroke="transparent" fill="#000000" transform="matrix(0.0833333 0 0 0.0833333 -222.875 -164)" d="M 4983.31,4417.29 L 5023.51,4372.69 L 5037.01,4387.59 L 4999.53,4429.17 L 4983.31,4417.29 Z " />
<path stroke="transparent" fill="#000000" transform="matrix(0.0833333 0 0 0.0833333 -222.875 -164)" d="M 5031.14,4452.32 L 5063.31,4416.63 L 5076.8,4431.53 L 5047.35,4464.2 L 5031.14,4452.32 Z " />
<path stroke="transparent" fill="#000000" transform="matrix(0.0833333 0 0 0.0833333 -222.875 -164)" d="M 5078.96,4487.36 L 5103.1,4460.57 L 5116.6,4475.47 L 5095.18,4499.23 L 5078.96,4487.36 Z " />
<path stroke="transparent" fill="#000000" transform="matrix(0.0833333 0 0 0.0833333 -222.875 -164)" d="M 5126.79,4522.39 L 5142.9,4504.51 L 5156.39,4519.41 L 5143,4534.27 L 5126.79,4522.39 Z " />
<path stroke="transparent" fill="#000000" transform="matrix(0.0833333 0 0 0.0833333 -222.875 -164)" d="M 4182.12,4387.52 L 4185.74,4364.71 L 4740.6,4152.02 L 4747.76,4170.7 L 4182.12,4387.52 Z " />
<path stroke="transparent" fill="#000000" transform="matrix(0.0833333 0 0 0.0833333 -222.875 -164)" d="M 4213.28,4452.68 L 4206.12,4434 L 4725.17,4235.04 L 4732.33,4253.72 L 4213.28,4452.68 Z " />
<path stroke="transparent" fill="#000000" transform="matrix(0.0833333 0 0 0.0833333 -222.875 -164)" d="M 3713.83,4007.93 L 3721.82,3988.66 L 4185.74,4364.71 L 4182.12,4387.52 L 3713.83,4007.93 Z " />
<path stroke="transparent" fill="#000000" transform="matrix(0.0833333 0 0 0.0833333 -222.875 -164)" d="M 3721.82,3988.66 L 3713.83,4007.93 L 3114.35,3944.63 L 3127.93,3925.96 L 3721.82,3988.66 Z " />
<path stroke="transparent" fill="#000000" transform="matrix(0.0833333 0 0 0.0833333 -222.875 -164)" d="M 5199.59,5157.28 L 5189.59,5163.05 L 5179.59,5156.63 L 5179.88,4557.27 L 5199.87,4568.83 L 5199.59,5157.28 Z " />
<path stroke="transparent" fill="#000000" transform="matrix(0.0833333 0 0 0.0833333 -222.875 -164)" d="M 5709.07,5451.75 L 5709.06,5474.84 L 5190.14,5174.92 L 5189.59,5163.05 L 5199.59,5157.28 L 5709.07,5451.75 Z " />
<path stroke="transparent" fill="#000000" transform="matrix(0.0833333 0 0 0.0833333 -222.875 -164)" d="M 5754.78,6063.32 L 5734.78,6063.31 L 5735.07,5442.53 L 5755.07,5442.54 L 5754.78,6063.32 Z " />
<path stroke="transparent" fill="#000000" transform="matrix(0.0833333 0 0 0.0833333 -222.875 -164)" d="M 5682.78,6063.29 L 5662.78,6063.28 L 5663.07,5442.49 L 5683.07,5442.5 L 5682.78,6063.29 Z " />
<path stroke="transparent" fill="#000000" transform="matrix(0.0833333 0 0 0.0833333 -222.875 -164)" d="M 6218.82,5157.77 L 6238.82,5169.32 L 5709.06,5474.84 L 5709.07,5451.75 L 6218.82,5157.77 Z " />
<path stroke="transparent" fill="#000000" transform="matrix(0.0833333 0 0 0.0833333 -222.875 -164)" d="M 6219.11,4569.31 L 6239.11,4557.78 L 6238.82,5169.32 L 6218.82,5157.77 L 6219.11,4569.31 Z " />
<path stroke="transparent" fill="#000000" transform="matrix(0.0833333 0 0 0.0833333 -222.875 -164)" d="M 6239.11,4557.78 L 6219.11,4569.31 L 5709.63,4274.84 L 5709.64,4263.3 L 5718.99,4257.15 L 6239.11,4557.78 Z " />
<path stroke="transparent" fill="#000000" transform="matrix(0.0833333 0 0 0.0833333 -222.875 -164)" d="M 6594.85,4153.85 L 6675.1,4243.06 L 6658.87,4254.93 L 6581.34,4168.73 L 6594.85,4153.85 Z " />
<path stroke="transparent" fill="#000000" transform="matrix(0.0833333 0 0 0.0833333 -222.875 -164)" d="M 6555.01,4197.75 L 6627.24,4278.05 L 6611.01,4289.91 L 6541.5,4212.63 L 6555.01,4197.75 Z " />
<path stroke="transparent" fill="#000000" transform="matrix(0.0833333 0 0 0.0833333 -222.875 -164)" d="M 6515.17,4241.65 L 6579.38,4313.03 L 6563.15,4324.9 L 6501.66,4256.54 L 6515.17,4241.65 Z " />
<path stroke="transparent" fill="#000000" transform="matrix(0.0833333 0 0 0.0833333 -222.875 -164)" d="M 6475.33,4285.55 L 6531.53,4348.02 L 6515.3,4359.88 L 6461.82,4300.44 L 6475.33,4285.55 Z " />
<path stroke="transparent" fill="#000000" transform="matrix(0.0833333 0 0 0.0833333 -222.875 -164)" d="M 6435.49,4329.45 L 6483.67,4383 L 6467.44,4394.87 L 6421.99,4344.34 L 6435.49,4329.45 Z " />
<path stroke="transparent" fill="#000000" transform="matrix(0.0833333 0 0 0.0833333 -222.875 -164)" d="M 6395.66,4373.35 L 6435.81,4417.99 L 6419.58,4429.85 L 6382.15,4388.24 L 6395.66,4373.35 Z " />
<path stroke="transparent" fill="#000000" transform="matrix(0.0833333 0 0 0.0833333 -222.875 -164)" d="M 6355.82,4417.25 L 6387.95,4452.97 L 6371.72,4464.84 L 6342.31,4432.14 L 6355.82,4417.25 Z " />
<path stroke="transparent" fill="#000000" transform="matrix(0.0833333 0 0 0.0833333 -222.875 -164)" d="M 6315.98,4461.15 L 6340.1,4487.96 L 6323.87,4499.82 L 6302.47,4476.04 L 6315.98,4461.15 Z " />
<path stroke="transparent" fill="#000000" transform="matrix(0.0833333 0 0 0.0833333 -222.875 -164)" d="M 6276.14,4505.05 L 6292.24,4522.94 L 6276.01,4534.81 L 6262.63,4519.94 L 6276.14,4505.05 Z " />
<path stroke="transparent" fill="#000000" transform="matrix(0.0833333 0 0 0.0833333 -222.875 -164)" d="M 6481.92,3752.26 L 6500.2,3744.13 L 6682.05,4153.11 L 6667.89,4170.49 L 6481.92,3752.26 Z " />
<path stroke="transparent" fill="#000000" transform="matrix(0.0833333 0 0 0.0833333 -222.875 -164)" d="M 5807.64,3689.35 L 5861.69,3663.59 L 6335.19,3614.05 L 6337.27,3633.94 L 5807.64,3689.35 Z " />
<path stroke="transparent" fill="#000000" transform="matrix(0.0833333 0 0 0.0833333 -222.875 -164)" d="M 5764.73,3716.78 L 5882.09,3741.79 L 5875.94,3760.92 L 5762.55,3736.76 L 5764.73,3716.78 Z " />
<path stroke="transparent" fill="#000000" transform="matrix(0.0833333 0 0 0.0833333 -222.875 -164)" d="M 5758.3,3775.73 L 5863.93,3798.24 L 5857.78,3817.38 L 5756.12,3795.72 L 5758.3,3775.73 Z " />
<path stroke="transparent" fill="#000000" transform="matrix(0.0833333 0 0 0.0833333 -222.875 -164)" d="M 5751.87,3834.69 L 5845.78,3854.7 L 5839.62,3873.83 L 5749.69,3854.67 L 5751.87,3834.69 Z " />
<path stroke="transparent" fill="#000000" transform="matrix(0.0833333 0 0 0.0833333 -222.875 -164)" d="M 5745.44,3893.64 L 5827.62,3911.15 L 5821.46,3930.29 L 5743.26,3913.63 L 5745.44,3893.64 Z " />
<path stroke="transparent" fill="#000000" transform="matrix(0.0833333 0 0 0.0833333 -222.875 -164)" d="M 5739.01,3952.6 L 5809.46,3967.61 L 5803.3,3986.74 L 5736.83,3972.58 L 5739.01,3952.6 Z " />
<path stroke="transparent" fill="#000000" transform="matrix(0.0833333 0 0 0.0833333 -222.875 -164)" d="M 5732.58,4011.55 L 5791.3,4024.06 L 5785.14,4043.2 L 5730.4,4031.54 L 5732.58,4011.55 Z " />
<path stroke="transparent" fill="#000000" transform="matrix(0.0833333 0 0 0.0833333 -222.875 -164)" d="M 5726.15,4070.51 L 5773.14,4080.52 L 5766.99,4099.66 L 5723.97,4090.49 L 5726.15,4070.51 Z " />
<path stroke="transparent" fill="#000000" transform="matrix(0.0833333 0 0 0.0833333 -222.875 -164)" d="M 5719.72,4129.46 L 5754.98,4136.97 L 5748.83,4156.11 L 5717.54,4149.44 L 5719.72,4129.46 Z " />
<path stroke="transparent" fill="#000000" transform="matrix(0.0833333 0 0 0.0833333 -222.875 -164)" d="M 5713.29,4188.41 L 5736.82,4193.43 L 5730.67,4212.57 L 5711.11,4208.4 L 5713.29,4188.41 Z " />
<path stroke="transparent" fill="#000000" transform="matrix(0.0833333 0 0 0.0833333 -222.875 -164)" d="M 6168.16,3328.83 L 6182.3,3342.98 L 5861.69,3663.59 L 5807.64,3689.35 L 6168.16,3328.83 Z " />
<path stroke="transparent" fill="#000000" transform="matrix(0.0833333 0 0 0.0833333 -222.875 -164)" d="M 6219.07,3379.75 L 6233.21,3393.89 L 6036.31,3590.79 L 6022.16,3576.65 L 6219.07,3379.75 Z " />
<path stroke="transparent" fill="#000000" transform="matrix(0.0833333 0 0 0.0833333 -222.875 -164)" d="M 7252.58,4225.83 L 7272.82,4353.02 L 6667.89,4170.49 L 6682.05,4153.11 L 7252.58,4225.83 Z " />
<path stroke="transparent" fill="#000000" transform="matrix(0.0833333 0 0 0.0833333 -222.875 -164)" d="M 7454.88,4849.45 L 7447.15,4858.03 L 7435.86,4855.62 L 7272.82,4353.02 L 7252.58,4225.83 L 7454.88,4849.45 Z " />
<path stroke="transparent" fill="#000000" transform="matrix(0.0833333 0 0 0.0833333 -222.875 -164)" d="M 8041.71,4974.48 L 8026.25,4991.63 L 7450.72,4869.01 L 7447.15,4858.03 L 7454.88,4849.45 L 8041.71,4974.48 Z " />
<path stroke="transparent" fill="#000000" transform="matrix(0.0833333 0 0 0.0833333 -222.875 -164)" d="M 7980.41,5035.03 L 7976.24,5054.6 L 7470.72,4946.89 L 7474.89,4927.33 L 7980.41,5035.03 Z " />
<path stroke="transparent" fill="#000000" transform="matrix(0.0833333 0 0 0.0833333 -222.875 -164)" d="M 8230.41,5556.19 L 8207.83,5551.37 L 8026.25,4991.63 L 8041.71,4974.48 L 8230.41,5556.19 Z " />
<path stroke="transparent" fill="#000000" transform="matrix(0.0833333 0 0 0.0833333 -222.875 -164)" d="M 7820.99,6010.46 L 7813.87,5988.49 L 8207.83,5551.37 L 8230.41,5556.19 L 7820.99,6010.46 Z " />
<path stroke="transparent" fill="#000000" transform="matrix(0.0833333 0 0 0.0833333 -222.875 -164)" d="M 7799.2,5927.09 L 7784.35,5913.7 L 8130.38,5529.76 L 8145.23,5543.15 L 7799.2,5927.09 Z " />
<path stroke="transparent" fill="#000000" transform="matrix(0.0833333 0 0 0.0833333 -222.875 -164)" d="M 7222.87,5883.03 L 7238.33,5865.87 L 7813.87,5988.49 L 7820.99,6010.46 L 7222.87,5883.03 Z " />
<path stroke="transparent" fill="#000000" transform="matrix(0.0833333 0 0 0.0833333 -222.875 -164)" d="M 7034.17,5301.32 L 7056.76,5306.13 L 7238.33,5865.87 L 7222.87,5883.03 L 7034.17,5301.32 L 7034.17,5301.32 Z " />
<path stroke="transparent" fill="#000000" transform="matrix(0.0833333 0 0 0.0833333 -222.875 -164)" d="M 7117.26,5324.14 L 7136.29,5317.96 L 7295.77,5809.6 L 7276.75,5815.78 L 7117.26,5324.14 L 7117.26,5324.14 Z " />
<path stroke="transparent" fill="#000000" transform="matrix(0.0833333 0 0 0.0833333 -222.875 -164)" d="M 7056.76,5306.13 L 7034.17,5301.32 L 7435.86,4855.62 L 7447.15,4858.03 L 7450.72,4869.01 L 7056.76,5306.13 Z " />
<path stroke="transparent" fill="#000000" transform="matrix(0.0833333 0 0 0.0833333 -222.875 -164)" d="M 6778.32,5411.85 L 6718.27,5515.74 L 6701.87,5504.15 L 6760.09,5403.42 L 6778.32,5411.85 Z " />
<path stroke="transparent" fill="#000000" transform="matrix(0.0833333 0 0 0.0833333 -222.875 -164)" d="M 6725.04,5387.23 L 6670.35,5481.86 L 6653.95,5470.27 L 6706.81,5378.81 L 6725.04,5387.23 Z " />
<path stroke="transparent" fill="#000000" transform="matrix(0.0833333 0 0 0.0833333 -222.875 -164)" d="M 6671.76,5362.62 L 6622.42,5447.98 L 6606.03,5436.39 L 6653.53,5354.2 L 6671.76,5362.62 Z " />
<path stroke="transparent" fill="#000000" transform="matrix(0.0833333 0 0 0.0833333 -222.875 -164)" d="M 6618.48,5338.01 L 6574.5,5414.1 L 6558.1,5402.51 L 6600.25,5329.59 L 6618.48,5338.01 Z " />
<path stroke="transparent" fill="#000000" transform="matrix(0.0833333 0 0 0.0833333 -222.875 -164)" d="M 6565.2,5313.4 L 6526.58,5380.22 L 6510.18,5368.63 L 6546.97,5304.97 L 6565.2,5313.4 Z " />
<path stroke="transparent" fill="#000000" transform="matrix(0.0833333 0 0 0.0833333 -222.875 -164)" d="M 6511.92,5288.78 L 6478.66,5346.34 L 6462.26,5334.75 L 6493.69,5280.36 L 6511.92,5288.78 Z " />
<path stroke="transparent" fill="#000000" transform="matrix(0.0833333 0 0 0.0833333 -222.875 -164)" d="M 6458.65,5264.17 L 6430.74,5312.46 L 6414.34,5300.87 L 6440.41,5255.75 L 6458.65,5264.17 Z " />
<path stroke="transparent" fill="#000000" transform="matrix(0.0833333 0 0 0.0833333 -222.875 -164)" d="M 6405.37,5239.56 L 6382.81,5278.58 L 6366.41,5266.99 L 6387.14,5231.14 L 6405.37,5239.56 Z " />
<path stroke="transparent" fill="#000000" transform="matrix(0.0833333 0 0 0.0833333 -222.875 -164)" d="M 6352.09,5214.95 L 6334.89,5244.7 L 6318.49,5233.11 L 6333.86,5206.52 L 6352.09,5214.95 Z " />
<path stroke="transparent" fill="#000000" transform="matrix(0.0833333 0 0 0.0833333 -222.875 -164)" d="M 6298.81,5190.33 L 6286.97,5210.82 L 6270.57,5199.23 L 6280.58,5181.91 L 6298.81,5190.33 Z " />
<path stroke="transparent" fill="#000000" transform="matrix(0.0833333 0 0 0.0833333 -222.875 -164)" d="M 4792.44,5461.35 L 4732.49,5357.4 L 5179.59,5156.63 L 5189.59,5163.05 L 5190.14,5174.92 L 4792.44,5461.35 Z " />
<path stroke="transparent" fill="#000000" transform="matrix(0.0833333 0 0 0.0833333 -222.875 -164)" d="M 4301.2,2219.18 L 4421.2,2219.24 L 4371.51,2694.3 L 4360.97,2699.38 L 4350.36,2693.48 L 4301.2,2219.18 Z " />
</svg>
