<?xml version="1.0" standalone="no" ?>
<!DOCTYPE svg PUBLIC "-//W3C//DTD SVG 1.1//EN" "http://www.w3.org/Graphics/SVG/1.1/DTD/svg11.dtd">
<svg width="456px" height="200px" viewBox="0 0 456 200" style="background-color: #ffffff00" xmlns="http://www.w3.org/2000/svg" xmlns:xlink="http://www.w3.org/1999/xlink" version="1.1" >
<text x="0" y="0" stroke="transparent" fill="#000000" transform="matrix(0.0666667 0 0 0.0666667 289.9 134.172)" style="font:normal normal normal 200px 'Arial'" >
NH</text>
<text x="0" y="0" stroke="transparent" fill="#000000" transform="matrix(0.0666667 0 0 0.0666667 309.158 137.106)" style="font:normal normal normal 150px 'Arial'" >
2</text>
<text x="0" y="0" stroke="transparent" fill="#000000" transform="matrix(0.0666667 0 0 0.0666667 289.5 54.1722)" style="font:normal normal normal 200px 'Arial'" >
O</text>
<text x="0" y="0" stroke="transparent" fill="#000000" transform="matrix(0.0666667 0 0 0.0666667 324.141 114.172)" style="font:normal normal normal 200px 'Arial'" >
O</text>
<text x="0" y="0" stroke="transparent" fill="#000000" transform="matrix(0.0666667 0 0 0.0666667 393.423 194.172)" style="font:normal normal normal 200px 'Arial'" >
OH</text>
<text x="0" y="0" stroke="transparent" fill="#000000" transform="matrix(0.0666667 0 0 0.0666667 428.064 134.172)" style="font:normal normal normal 200px 'Arial'" >
OH</text>
<text x="0" y="0" stroke="transparent" fill="#000000" transform="matrix(0.0666667 0 0 0.0666667 428.464 54.1722)" style="font:normal normal normal 200px 'Arial'" >
NH</text>
<text x="0" y="0" stroke="transparent" fill="#000000" transform="matrix(0.0666667 0 0 0.0666667 447.722 57.1056)" style="font:normal normal normal 150px 'Arial'" >
2</text>
<text x="0" y="0" stroke="transparent" fill="#000000" transform="matrix(0.0666667 0 0 0.0666667 358.782 14.1722)" style="font:normal normal normal 200px 'Arial'" >
OH</text>
<text x="0" y="0" stroke="transparent" fill="#000000" transform="matrix(0.0666667 0 0 0.0666667 220.218 14.1722)" style="font:normal normal normal 200px 'Arial'" >
OH</text>
<text x="0" y="0" stroke="transparent" fill="#000000" transform="matrix(0.0666667 0 0 0.0666667 150.936 54.1722)" style="font:normal normal normal 200px 'Arial'" >
O</text>
<text x="0" y="0" stroke="transparent" fill="#000000" transform="matrix(0.0666667 0 0 0.0666667 116.295 114.172)" style="font:normal normal normal 200px 'Arial'" >
O</text>
<text x="0" y="0" stroke="transparent" fill="#000000" transform="matrix(0.0666667 0 0 0.0666667 32.1937 194.172)" style="font:normal normal normal 200px 'Arial'" >
H</text>
<text x="0" y="0" stroke="transparent" fill="#000000" transform="matrix(0.0666667 0 0 0.0666667 41.8226 197.106)" style="font:normal normal normal 150px 'Arial'" >
2</text>
<text x="0" y="0" stroke="transparent" fill="#000000" transform="matrix(0.0666667 0 0 0.0666667 47.3841 194.172)" style="font:normal normal normal 200px 'Arial'" >
N</text>
<text x="0" y="0" stroke="transparent" fill="#000000" transform="matrix(0.0666667 0 0 0.0666667 2.74312 134.172)" style="font:normal normal normal 200px 'Arial'" >
HO</text>
<text x="0" y="0" stroke="transparent" fill="#000000" transform="matrix(0.0666667 0 0 0.0666667 2.74312 54.1722)" style="font:normal normal normal 200px 'Arial'" >
HO</text>
<text x="0" y="0" stroke="transparent" fill="#000000" transform="matrix(0.0666667 0 0 0.0666667 82.0541 14.1722)" style="font:normal normal normal 200px 'Arial'" >
NH</text>
<text x="0" y="0" stroke="transparent" fill="#000000" transform="matrix(0.0666667 0 0 0.0666667 101.312 17.1056)" style="font:normal normal normal 150px 'Arial'" >
2</text>
<text x="0" y="0" stroke="transparent" fill="#000000" transform="matrix(0.0666667 0 0 0.0666667 136.117 134.172)" style="font:normal normal normal 200px 'Arial'" >
H</text>
<text x="0" y="0" stroke="transparent" fill="#000000" transform="matrix(0.0666667 0 0 0.0666667 145.746 137.106)" style="font:normal normal normal 150px 'Arial'" >
2</text>
<text x="0" y="0" stroke="transparent" fill="#000000" transform="matrix(0.0666667 0 0 0.0666667 151.307 134.172)" style="font:normal normal normal 200px 'Arial'" >
N</text>
<path stroke="transparent" fill="#000000" transform="matrix(0.0666667 0 0 0.0666667 -87.7867 -195)" d="M 4168.46,4565.36 L 4188.46,4553.81 L 4698.07,4848.04 L 4698.07,4871.13 L 4168.46,4565.36 Z " />
<path stroke="transparent" fill="#000000" transform="matrix(0.0666667 0 0 0.0666667 -87.7867 -195)" d="M 4168.46,3966.01 L 4178.46,3959.58 L 4188.46,3965.36 L 4188.46,4553.81 L 4168.46,4565.36 L 4168.46,3966.01 Z " />
<path stroke="transparent" fill="#000000" transform="matrix(0.0666667 0 0 0.0666667 -87.7867 -195)" d="M 4698.07,3648.04 L 4698.07,3671.13 L 4188.46,3965.36 L 4178.46,3959.58 L 4179.02,3947.71 L 4698.07,3648.04 Z " />
<path stroke="transparent" fill="#000000" transform="matrix(0.0666667 0 0 0.0666667 -87.7867 -195)" d="M 5217.13,3947.71 L 5217.69,3959.58 L 5207.69,3965.36 L 4698.07,3671.13 L 4698.07,3648.04 L 5217.13,3947.71 Z " />
<path stroke="transparent" fill="#000000" transform="matrix(0.0666667 0 0 0.0666667 -87.7867 -195)" d="M 5227.69,4565.36 L 5207.69,4553.81 L 5207.69,3965.36 L 5217.69,3959.58 L 5227.69,3966.01 L 5227.69,4565.36 Z " />
<path stroke="transparent" fill="#000000" transform="matrix(0.0666667 0 0 0.0666667 -87.7867 -195)" d="M 5207.69,4553.81 L 5227.69,4565.36 L 4698.07,4871.13 L 4698.07,4848.04 L 5207.69,4553.81 Z " />
<path stroke="transparent" fill="#000000" transform="matrix(0.0666667 0 0 0.0666667 -87.7867 -195)" d="M 5663.45,4747.66 L 5603.45,4851.59 L 5587.31,4839.56 L 5644.96,4739.7 L 5663.45,4747.66 Z " />
<path stroke="transparent" fill="#000000" transform="matrix(0.0666667 0 0 0.0666667 -87.7867 -195)" d="M 5609.81,4724.55 L 5556.62,4816.69 L 5540.47,4804.65 L 5591.32,4716.59 L 5609.81,4724.55 Z " />
<path stroke="transparent" fill="#000000" transform="matrix(0.0666667 0 0 0.0666667 -87.7867 -195)" d="M 5556.17,4701.44 L 5509.78,4781.79 L 5493.64,4769.75 L 5537.67,4693.48 L 5556.17,4701.44 Z " />
<path stroke="transparent" fill="#000000" transform="matrix(0.0666667 0 0 0.0666667 -87.7867 -195)" d="M 5502.53,4678.34 L 5462.95,4746.88 L 5446.8,4734.85 L 5484.03,4670.37 L 5502.53,4678.34 Z " />
<path stroke="transparent" fill="#000000" transform="matrix(0.0666667 0 0 0.0666667 -87.7867 -195)" d="M 5448.88,4655.23 L 5416.11,4711.98 L 5399.97,4699.95 L 5430.39,4647.26 L 5448.88,4655.23 Z " />
<path stroke="transparent" fill="#000000" transform="matrix(0.0666667 0 0 0.0666667 -87.7867 -195)" d="M 5395.24,4632.12 L 5369.28,4677.08 L 5353.13,4665.05 L 5376.75,4624.15 L 5395.24,4632.12 Z " />
<path stroke="transparent" fill="#000000" transform="matrix(0.0666667 0 0 0.0666667 -87.7867 -195)" d="M 5341.6,4609.01 L 5322.44,4642.18 L 5306.3,4630.15 L 5323.1,4601.04 L 5341.6,4609.01 Z " />
<path stroke="transparent" fill="#000000" transform="matrix(0.0666667 0 0 0.0666667 -87.7867 -195)" d="M 5287.95,4585.9 L 5275.61,4607.28 L 5259.46,4595.25 L 5269.46,4577.93 L 5287.95,4585.9 Z " />
<path stroke="transparent" fill="#000000" transform="matrix(0.0666667 0 0 0.0666667 -87.7867 -195)" d="M 5607.7,3665.13 L 5667.7,3769.05 L 5227.69,3966.01 L 5217.69,3959.58 L 5217.13,3947.71 L 5607.7,3665.13 Z " />
<path stroke="transparent" fill="#000000" transform="matrix(0.0666667 0 0 0.0666667 -87.7867 -195)" d="M 6215.11,3923.9 L 6205.11,3941.22 L 6186.62,3933.23 L 6198.95,3911.88 L 6215.11,3923.9 Z " />
<path stroke="transparent" fill="#000000" transform="matrix(0.0666667 0 0 0.0666667 -87.7867 -195)" d="M 6167.73,3888.68 L 6150.92,3917.8 L 6132.44,3909.81 L 6151.57,3876.67 L 6167.73,3888.68 Z " />
<path stroke="transparent" fill="#000000" transform="matrix(0.0666667 0 0 0.0666667 -87.7867 -195)" d="M 6120.36,3853.47 L 6096.74,3894.38 L 6078.26,3886.39 L 6104.2,3841.45 L 6120.36,3853.47 Z " />
<path stroke="transparent" fill="#000000" transform="matrix(0.0666667 0 0 0.0666667 -87.7867 -195)" d="M 6072.99,3818.25 L 6042.55,3870.96 L 6024.07,3862.97 L 6056.83,3806.24 L 6072.99,3818.25 Z " />
<path stroke="transparent" fill="#000000" transform="matrix(0.0666667 0 0 0.0666667 -87.7867 -195)" d="M 6025.62,3783.04 L 5988.37,3847.54 L 5969.89,3839.56 L 6009.46,3771.02 L 6025.62,3783.04 Z " />
<path stroke="transparent" fill="#000000" transform="matrix(0.0666667 0 0 0.0666667 -87.7867 -195)" d="M 5978.24,3747.82 L 5934.19,3824.13 L 5915.71,3816.14 L 5962.08,3735.81 L 5978.24,3747.82 Z " />
<path stroke="transparent" fill="#000000" transform="matrix(0.0666667 0 0 0.0666667 -87.7867 -195)" d="M 5930.87,3712.61 L 5880,3800.71 L 5861.52,3792.72 L 5914.71,3700.59 L 5930.87,3712.61 Z " />
<path stroke="transparent" fill="#000000" transform="matrix(0.0666667 0 0 0.0666667 -87.7867 -195)" d="M 5883.5,3677.39 L 5825.82,3777.29 L 5807.34,3769.3 L 5867.34,3665.38 L 5883.5,3677.39 Z " />
<path stroke="transparent" fill="#000000" transform="matrix(0.0666667 0 0 0.0666667 -87.7867 -195)" d="M 6776.53,3648.04 L 6776.53,3671.13 L 6266.92,3965.36 L 6246.92,3953.81 L 6776.53,3648.04 Z " />
<path stroke="transparent" fill="#000000" transform="matrix(0.0666667 0 0 0.0666667 -87.7867 -195)" d="M 7295.57,3947.7 L 7296.15,3959.58 L 7286.15,3965.36 L 6776.53,3671.13 L 6776.53,3648.04 L 7295.57,3947.7 Z " />
<path stroke="transparent" fill="#000000" transform="matrix(0.0666667 0 0 0.0666667 -87.7867 -195)" d="M 7306.15,4565.36 L 7286.15,4553.81 L 7286.15,3965.36 L 7296.15,3959.58 L 7306.15,3966.02 L 7306.15,4565.36 Z " />
<path stroke="transparent" fill="#000000" transform="matrix(0.0666667 0 0 0.0666667 -87.7867 -195)" d="M 6786.99,4865.09 L 6776.53,4859.58 L 6776.53,4848.04 L 7286.15,4553.81 L 7306.15,4565.36 L 6786.99,4865.09 Z " />
<path stroke="transparent" fill="#000000" transform="matrix(0.0666667 0 0 0.0666667 -87.7867 -195)" d="M 6351.95,4626 L 6361.95,4608.68 L 6776.53,4848.04 L 6776.53,4859.58 L 6766.07,4865.09 L 6351.95,4626 Z " />
<path stroke="transparent" fill="#000000" transform="matrix(0.0666667 0 0 0.0666667 -87.7867 -195)" d="M 6266.92,4454.42 L 6246.92,4454.42 L 6246.92,3953.81 L 6266.92,3965.36 L 6266.92,4454.42 Z " />
<path stroke="transparent" fill="#000000" transform="matrix(0.0666667 0 0 0.0666667 -87.7867 -195)" d="M 6838.55,5483.84 L 6718.37,5437.55 L 6766.07,4865.09 L 6776.53,4859.58 L 6786.99,4865.09 L 6838.55,5483.84 Z " />
<path stroke="transparent" fill="#000000" transform="matrix(0.0666667 0 0 0.0666667 -87.7867 -195)" d="M 7208.53,5697.45 L 7198.53,5714.77 L 6718.37,5437.55 L 6838.55,5483.84 L 7208.53,5697.45 Z " />
<path stroke="transparent" fill="#000000" transform="matrix(0.0666667 0 0 0.0666667 -87.7867 -195)" d="M 7753.14,4754.15 L 7693.14,4858.07 L 7676.96,4846.1 L 7734.69,4746.12 L 7753.14,4754.15 Z " />
<path stroke="transparent" fill="#000000" transform="matrix(0.0666667 0 0 0.0666667 -87.7867 -195)" d="M 7697.89,4730.12 L 7644.71,4822.24 L 7628.53,4810.26 L 7679.43,4722.09 L 7697.89,4730.12 Z " />
<path stroke="transparent" fill="#000000" transform="matrix(0.0666667 0 0 0.0666667 -87.7867 -195)" d="M 7642.64,4706.09 L 7596.27,4786.4 L 7580.09,4774.43 L 7624.18,4698.07 L 7642.64,4706.09 Z " />
<path stroke="transparent" fill="#000000" transform="matrix(0.0666667 0 0 0.0666667 -87.7867 -195)" d="M 7587.39,4682.06 L 7547.84,4750.56 L 7531.66,4738.59 L 7568.93,4674.04 L 7587.39,4682.06 Z " />
<path stroke="transparent" fill="#000000" transform="matrix(0.0666667 0 0 0.0666667 -87.7867 -195)" d="M 7532.13,4658.04 L 7499.4,4714.73 L 7483.22,4702.75 L 7513.68,4650.01 L 7532.13,4658.04 Z " />
<path stroke="transparent" fill="#000000" transform="matrix(0.0666667 0 0 0.0666667 -87.7867 -195)" d="M 7476.88,4634.01 L 7450.97,4678.89 L 7434.79,4666.92 L 7458.42,4625.98 L 7476.88,4634.01 Z " />
<path stroke="transparent" fill="#000000" transform="matrix(0.0666667 0 0 0.0666667 -87.7867 -195)" d="M 7421.63,4609.98 L 7402.53,4643.06 L 7386.35,4631.08 L 7403.17,4601.95 L 7421.63,4609.98 Z " />
<path stroke="transparent" fill="#000000" transform="matrix(0.0666667 0 0 0.0666667 -87.7867 -195)" d="M 7366.38,4585.95 L 7354.1,4607.22 L 7337.92,4595.25 L 7347.92,4577.93 L 7366.38,4585.95 Z " />
<path stroke="transparent" fill="#000000" transform="matrix(0.0666667 0 0 0.0666667 -87.7867 -195)" d="M 7674.84,3671.66 L 7734.84,3775.59 L 7306.15,3966.02 L 7296.15,3959.58 L 7295.57,3947.7 L 7674.84,3671.66 Z " />
<path stroke="transparent" fill="#000000" transform="matrix(0.0666667 0 0 0.0666667 -87.7867 -195)" d="M 6716.53,3179.42 L 6836.53,3179.42 L 6834.19,3199.42 L 6718.88,3199.42 L 6716.53,3179.42 Z " />
<path stroke="transparent" fill="#000000" transform="matrix(0.0666667 0 0 0.0666667 -87.7867 -195)" d="M 6723.34,3237.44 L 6829.73,3237.44 L 6827.38,3257.44 L 6725.69,3257.44 L 6723.34,3237.44 Z " />
<path stroke="transparent" fill="#000000" transform="matrix(0.0666667 0 0 0.0666667 -87.7867 -195)" d="M 6730.15,3295.46 L 6822.92,3295.46 L 6820.57,3315.46 L 6732.49,3315.46 L 6730.15,3295.46 Z " />
<path stroke="transparent" fill="#000000" transform="matrix(0.0666667 0 0 0.0666667 -87.7867 -195)" d="M 6736.96,3353.48 L 6816.11,3353.48 L 6813.76,3373.48 L 6739.3,3373.48 L 6736.96,3353.48 Z " />
<path stroke="transparent" fill="#000000" transform="matrix(0.0666667 0 0 0.0666667 -87.7867 -195)" d="M 6743.76,3411.5 L 6809.3,3411.5 L 6806.96,3431.5 L 6746.11,3431.5 L 6743.76,3411.5 Z " />
<path stroke="transparent" fill="#000000" transform="matrix(0.0666667 0 0 0.0666667 -87.7867 -195)" d="M 6750.57,3469.52 L 6802.49,3469.52 L 6800.15,3489.52 L 6752.92,3489.52 L 6750.57,3469.52 Z " />
<path stroke="transparent" fill="#000000" transform="matrix(0.0666667 0 0 0.0666667 -87.7867 -195)" d="M 6757.38,3527.54 L 6795.69,3527.54 L 6793.34,3547.54 L 6759.73,3547.54 L 6757.38,3527.54 Z " />
<path stroke="transparent" fill="#000000" transform="matrix(0.0666667 0 0 0.0666667 -87.7867 -195)" d="M 6764.19,3585.56 L 6788.88,3585.56 L 6786.53,3605.56 L 6766.53,3605.56 L 6764.19,3585.56 Z " />
<path stroke="transparent" fill="#000000" transform="matrix(0.0666667 0 0 0.0666667 -87.7867 -195)" d="M 4638.07,3179.42 L 4758.07,3179.42 L 4755.73,3199.42 L 4640.42,3199.42 L 4638.07,3179.42 Z " />
<path stroke="transparent" fill="#000000" transform="matrix(0.0666667 0 0 0.0666667 -87.7867 -195)" d="M 4644.88,3237.44 L 4751.26,3237.44 L 4748.92,3257.44 L 4647.23,3257.44 L 4644.88,3237.44 Z " />
<path stroke="transparent" fill="#000000" transform="matrix(0.0666667 0 0 0.0666667 -87.7867 -195)" d="M 4651.69,3295.46 L 4744.46,3295.46 L 4742.11,3315.46 L 4654.03,3315.46 L 4651.69,3295.46 Z " />
<path stroke="transparent" fill="#000000" transform="matrix(0.0666667 0 0 0.0666667 -87.7867 -195)" d="M 4658.49,3353.48 L 4737.65,3353.48 L 4735.3,3373.48 L 4660.84,3373.48 L 4658.49,3353.48 Z " />
<path stroke="transparent" fill="#000000" transform="matrix(0.0666667 0 0 0.0666667 -87.7867 -195)" d="M 4665.3,3411.5 L 4730.84,3411.5 L 4728.49,3431.5 L 4667.65,3431.5 L 4665.3,3411.5 Z " />
<path stroke="transparent" fill="#000000" transform="matrix(0.0666667 0 0 0.0666667 -87.7867 -195)" d="M 4672.11,3469.52 L 4724.03,3469.52 L 4721.69,3489.52 L 4674.46,3489.52 L 4672.11,3469.52 Z " />
<path stroke="transparent" fill="#000000" transform="matrix(0.0666667 0 0 0.0666667 -87.7867 -195)" d="M 4678.92,3527.54 L 4717.23,3527.54 L 4714.88,3547.54 L 4681.26,3547.54 L 4678.92,3527.54 Z " />
<path stroke="transparent" fill="#000000" transform="matrix(0.0666667 0 0 0.0666667 -87.7867 -195)" d="M 4685.73,3585.56 L 4710.42,3585.56 L 4708.07,3605.56 L 4688.07,3605.56 L 4685.73,3585.56 Z " />
<path stroke="transparent" fill="#000000" transform="matrix(0.0666667 0 0 0.0666667 -87.7867 -195)" d="M 3728.88,3769.3 L 3788.88,3665.38 L 4179.02,3947.71 L 4178.46,3959.58 L 4168.46,3966.01 L 3728.88,3769.3 Z " />
<path stroke="transparent" fill="#000000" transform="matrix(0.0666667 0 0 0.0666667 -87.7867 -195)" d="M 3149.23,3966.01 L 3139.23,3959.58 L 3138.66,3947.71 L 3529.24,3665.13 L 3589.24,3769.05 L 3149.23,3966.01 Z " />
<path stroke="transparent" fill="#000000" transform="matrix(0.0666667 0 0 0.0666667 -87.7867 -195)" d="M 2619.61,3671.13 L 2619.61,3659.58 L 2630.18,3654.14 L 3138.66,3947.71 L 3139.23,3959.58 L 3129.23,3965.36 L 2619.61,3671.13 Z " />
<path stroke="transparent" fill="#000000" transform="matrix(0.0666667 0 0 0.0666667 -87.7867 -195)" d="M 2110,3965.36 L 2090,3953.81 L 2609.04,3654.14 L 2619.61,3659.58 L 2619.61,3671.13 L 2110,3965.36 Z " />
<path stroke="transparent" fill="#000000" transform="matrix(0.0666667 0 0 0.0666667 -87.7867 -195)" d="M 2110,4553.81 L 2100,4559.58 L 2090,4553.17 L 2090,3953.81 L 2110,3965.36 L 2110,4553.81 Z " />
<path stroke="transparent" fill="#000000" transform="matrix(0.0666667 0 0 0.0666667 -87.7867 -195)" d="M 2619.61,4848.04 L 2619.61,4871.13 L 2100.55,4571.45 L 2100,4559.58 L 2110,4553.81 L 2619.61,4848.04 Z " />
<path stroke="transparent" fill="#000000" transform="matrix(0.0666667 0 0 0.0666667 -87.7867 -195)" d="M 3034.62,4608.43 L 3044.62,4625.75 L 2619.61,4871.13 L 2619.61,4848.04 L 3034.62,4608.43 Z " />
<path stroke="transparent" fill="#000000" transform="matrix(0.0666667 0 0 0.0666667 -87.7867 -195)" d="M 3149.23,4454.42 L 3129.23,4454.42 L 3129.23,3965.36 L 3139.23,3959.58 L 3149.23,3966.01 L 3149.23,4454.42 Z " />
<path stroke="transparent" fill="#000000" transform="matrix(0.0666667 0 0 0.0666667 -87.7867 -195)" d="M 2679.61,5405.58 L 2559.61,5405.58 L 2561.64,5385.58 L 2677.58,5385.58 L 2679.61,5405.58 Z " />
<path stroke="transparent" fill="#000000" transform="matrix(0.0666667 0 0 0.0666667 -87.7867 -195)" d="M 2673.61,5346.58 L 2565.61,5346.58 L 2567.64,5326.58 L 2671.58,5326.58 L 2673.61,5346.58 Z " />
<path stroke="transparent" fill="#000000" transform="matrix(0.0666667 0 0 0.0666667 -87.7867 -195)" d="M 2667.62,5287.58 L 2571.6,5287.58 L 2573.64,5267.58 L 2665.59,5267.58 L 2667.62,5287.58 Z " />
<path stroke="transparent" fill="#000000" transform="matrix(0.0666667 0 0 0.0666667 -87.7867 -195)" d="M 2661.62,5228.58 L 2577.6,5228.58 L 2579.63,5208.58 L 2659.59,5208.58 L 2661.62,5228.58 Z " />
<path stroke="transparent" fill="#000000" transform="matrix(0.0666667 0 0 0.0666667 -87.7867 -195)" d="M 2655.63,5169.58 L 2583.59,5169.58 L 2585.63,5149.58 L 2653.59,5149.58 L 2655.63,5169.58 Z " />
<path stroke="transparent" fill="#000000" transform="matrix(0.0666667 0 0 0.0666667 -87.7867 -195)" d="M 2649.63,5110.58 L 2589.59,5110.58 L 2591.62,5090.58 L 2647.6,5090.58 L 2649.63,5110.58 Z " />
<path stroke="transparent" fill="#000000" transform="matrix(0.0666667 0 0 0.0666667 -87.7867 -195)" d="M 2643.64,5051.58 L 2595.59,5051.58 L 2597.62,5031.58 L 2641.6,5031.58 L 2643.64,5051.58 Z " />
<path stroke="transparent" fill="#000000" transform="matrix(0.0666667 0 0 0.0666667 -87.7867 -195)" d="M 2637.64,4992.58 L 2601.58,4992.58 L 2603.61,4972.58 L 2635.61,4972.58 L 2637.64,4992.58 Z " />
<path stroke="transparent" fill="#000000" transform="matrix(0.0666667 0 0 0.0666667 -87.7867 -195)" d="M 2631.64,4933.58 L 2607.58,4933.58 L 2609.61,4913.58 L 2629.61,4913.58 L 2631.64,4933.58 Z " />
<path stroke="transparent" fill="#000000" transform="matrix(0.0666667 0 0 0.0666667 -87.7867 -195)" d="M 2207.88,5708.85 L 2197.88,5691.52 L 2614.61,5450.92 L 2624.61,5468.24 L 2207.88,5708.85 Z " />
<path stroke="transparent" fill="#000000" transform="matrix(0.0666667 0 0 0.0666667 -87.7867 -195)" d="M 1702.99,4858.08 L 1642.99,4754.15 L 2090,4553.17 L 2100,4559.58 L 2100.55,4571.45 L 1702.99,4858.08 Z " />
<path stroke="transparent" fill="#000000" transform="matrix(0.0666667 0 0 0.0666667 -87.7867 -195)" d="M 1650.41,3769.3 L 1710.41,3665.37 L 1726.57,3677.39 L 1668.89,3777.28 L 1650.41,3769.3 Z " />
<path stroke="transparent" fill="#000000" transform="matrix(0.0666667 0 0 0.0666667 -87.7867 -195)" d="M 1704.59,3792.72 L 1757.78,3700.59 L 1773.94,3712.6 L 1723.08,3800.7 L 1704.59,3792.72 Z " />
<path stroke="transparent" fill="#000000" transform="matrix(0.0666667 0 0 0.0666667 -87.7867 -195)" d="M 1758.78,3816.13 L 1805.16,3735.8 L 1821.31,3747.82 L 1777.26,3824.12 L 1758.78,3816.13 Z " />
<path stroke="transparent" fill="#000000" transform="matrix(0.0666667 0 0 0.0666667 -87.7867 -195)" d="M 1812.96,3839.55 L 1852.53,3771.02 L 1868.69,3783.03 L 1831.44,3847.54 L 1812.96,3839.55 Z " />
<path stroke="transparent" fill="#000000" transform="matrix(0.0666667 0 0 0.0666667 -87.7867 -195)" d="M 1867.15,3862.97 L 1899.9,3806.24 L 1916.06,3818.25 L 1885.63,3870.96 L 1867.15,3862.97 Z " />
<path stroke="transparent" fill="#000000" transform="matrix(0.0666667 0 0 0.0666667 -87.7867 -195)" d="M 1921.33,3886.39 L 1947.28,3841.45 L 1963.44,3853.46 L 1939.81,3894.38 L 1921.33,3886.39 Z " />
<path stroke="transparent" fill="#000000" transform="matrix(0.0666667 0 0 0.0666667 -87.7867 -195)" d="M 1975.52,3909.81 L 1994.65,3876.67 L 2010.81,3888.68 L 1994,3917.8 L 1975.52,3909.81 Z " />
<path stroke="transparent" fill="#000000" transform="matrix(0.0666667 0 0 0.0666667 -87.7867 -195)" d="M 2029.7,3933.23 L 2042.02,3911.88 L 2058.18,3923.9 L 2048.18,3941.22 L 2029.7,3933.23 Z " />
<path stroke="transparent" fill="#000000" transform="matrix(0.0666667 0 0 0.0666667 -87.7867 -195)" d="M 2559.61,3178.75 L 2679.61,3178.75 L 2630.18,3654.14 L 2619.61,3659.58 L 2609.04,3654.14 L 2559.61,3178.75 Z " />
<path stroke="transparent" fill="#000000" transform="matrix(0.0666667 0 0 0.0666667 -87.7867 -195)" d="M 3791.72,4852.15 L 3731.72,4748.22 L 3750.21,4740.25 L 3807.87,4840.12 L 3791.72,4852.15 Z " />
<path stroke="transparent" fill="#000000" transform="matrix(0.0666667 0 0 0.0666667 -87.7867 -195)" d="M 3838.69,4817.17 L 3785.5,4725.04 L 3803.99,4717.06 L 3854.84,4805.14 L 3838.69,4817.17 Z " />
<path stroke="transparent" fill="#000000" transform="matrix(0.0666667 0 0 0.0666667 -87.7867 -195)" d="M 3885.66,4782.19 L 3839.28,4701.85 L 3857.77,4693.87 L 3901.82,4770.16 L 3885.66,4782.19 Z " />
<path stroke="transparent" fill="#000000" transform="matrix(0.0666667 0 0 0.0666667 -87.7867 -195)" d="M 3932.64,4747.2 L 3893.06,4678.66 L 3911.55,4670.69 L 3948.79,4735.18 L 3932.64,4747.2 Z " />
<path stroke="transparent" fill="#000000" transform="matrix(0.0666667 0 0 0.0666667 -87.7867 -195)" d="M 3979.61,4712.22 L 3946.84,4655.47 L 3965.33,4647.5 L 3995.76,4700.2 L 3979.61,4712.22 Z " />
<path stroke="transparent" fill="#000000" transform="matrix(0.0666667 0 0 0.0666667 -87.7867 -195)" d="M 4026.58,4677.24 L 4000.62,4632.28 L 4019.11,4624.31 L 4042.73,4665.22 L 4026.58,4677.24 Z " />
<path stroke="transparent" fill="#000000" transform="matrix(0.0666667 0 0 0.0666667 -87.7867 -195)" d="M 4073.55,4642.26 L 4054.4,4609.1 L 4072.89,4601.12 L 4089.7,4630.24 L 4073.55,4642.26 Z " />
<path stroke="transparent" fill="#000000" transform="matrix(0.0666667 0 0 0.0666667 -87.7867 -195)" d="M 4120.52,4607.28 L 4108.18,4585.91 L 4126.67,4577.93 L 4136.67,4595.25 L 4120.52,4607.28 Z " />
</svg>
