<?xml version="1.0" standalone="no" ?>
<!DOCTYPE svg PUBLIC "-//W3C//DTD SVG 1.1//EN" "http://www.w3.org/Graphics/SVG/1.1/DTD/svg11.dtd">
<svg width="368px" height="113px" viewBox="0 0 368 113" style="background-color: #ffffff00" xmlns="http://www.w3.org/2000/svg" xmlns:xlink="http://www.w3.org/1999/xlink" version="1.1" >
<text x="0" y="0" stroke="none" fill="#000000" transform="matrix(0.0666667 0 0 0.0666667 325.027 49.3919)" font-style="normal" font-weight="normal" font-size="200px" font-family="Arial" >
N</text>
<text x="0" y="0" stroke="none" fill="#000000" transform="matrix(0.0666667 0 0 0.0666667 334.656 44.1919)" font-style="normal" font-weight="normal" font-size="150px" font-family="Arial" >
+</text>
<text x="0" y="0" stroke="none" fill="#000000" transform="matrix(0.0666667 0 0 0.0666667 220.702 69.3924)" font-style="normal" font-weight="normal" font-size="200px" font-family="Arial" >
O</text>
<text x="0" y="0" stroke="none" fill="#000000" transform="matrix(0.0666667 0 0 0.0666667 186.828 49.3919)" font-style="normal" font-weight="normal" font-size="200px" font-family="Arial" >
P</text>
<text x="0" y="0" stroke="none" fill="#000000" transform="matrix(0.0666667 0 0 0.0666667 206.062 14.7512)" font-style="normal" font-weight="normal" font-size="200px" font-family="Arial" >
O</text>
<text x="0" y="0" stroke="none" fill="#000000" transform="matrix(0.0666667 0 0 0.0666667 162.711 9.55119)" font-style="normal" font-weight="normal" font-size="150px" font-family="Arial" >
-</text>
<text x="0" y="0" stroke="none" fill="#000000" transform="matrix(0.0666667 0 0 0.0666667 166.061 14.7512)" font-style="normal" font-weight="normal" font-size="200px" font-family="Arial" >
O</text>
<text x="0" y="0" stroke="none" fill="#000000" transform="matrix(0.0666667 0 0 0.0666667 151.418 69.3924)" font-style="normal" font-weight="normal" font-size="200px" font-family="Arial" >
O</text>
<text x="0" y="0" stroke="none" fill="#000000" transform="matrix(0.0666667 0 0 0.0666667 82.1335 109.393)" font-style="normal" font-weight="normal" font-size="200px" font-family="Arial" >
OH</text>
<text x="0" y="0" stroke="none" fill="#000000" transform="matrix(0.0666667 0 0 0.0666667 3.2231 69.3924)" font-style="normal" font-weight="normal" font-size="200px" font-family="Arial" >
HO</text>
<path stroke="none" fill="#000000" transform="matrix(0.0666667 0 0 0.0666667 -164.787 -231)" d="M 7366.73,4016.99 L 7349.41,4026.99 L 7110.54,3613.27 L 7127.86,3603.27 L 7366.73,4016.99 Z " />
<path stroke="none" fill="#000000" transform="matrix(0.0666667 0 0 0.0666667 -164.787 -231)" d="M 7933.85,3819.21 L 7943.85,3836.53 L 7597.07,4036.74 L 7587.07,4019.42 L 7933.85,3819.21 Z " />
<path stroke="none" fill="#000000" transform="matrix(0.0666667 0 0 0.0666667 -164.787 -231)" d="M 7727.87,4642.49 L 7710.55,4652.49 L 7478.03,4249.77 L 7495.35,4239.77 L 7727.87,4642.49 Z " />
<path stroke="none" fill="#000000" transform="matrix(0.0666667 0 0 0.0666667 -164.787 -231)" d="M 6899.59,4439.43 L 6899.59,4416.34 L 7304.08,4182.8 L 7314.08,4200.12 L 6899.59,4439.43 Z " />
<path stroke="none" fill="#000000" transform="matrix(0.0666667 0 0 0.0666667 -164.787 -231)" d="M 6379.94,4139.43 L 6379.94,4116.33 L 6899.59,4416.34 L 6899.59,4439.43 L 6379.94,4139.43 Z " />
<path stroke="none" fill="#000000" transform="matrix(0.0666667 0 0 0.0666667 -164.787 -231)" d="M 5957.95,4383.07 L 5947.95,4365.75 L 6379.94,4116.33 L 6379.94,4139.43 L 5957.95,4383.07 Z " />
<path stroke="none" fill="#000000" transform="matrix(0.0666667 0 0 0.0666667 -164.787 -231)" d="M 5409.92,4179.38 L 5419.92,4162.06 L 5772.71,4365.75 L 5762.71,4383.07 L 5409.92,4179.38 Z " />
<path stroke="none" fill="#000000" transform="matrix(0.0666667 0 0 0.0666667 -164.787 -231)" d="M 5540.53,3689.8 L 5557.85,3699.8 L 5372.57,4020.71 L 5355.25,4010.71 L 5540.53,3689.8 Z " />
<path stroke="none" fill="#000000" transform="matrix(0.0666667 0 0 0.0666667 -164.787 -231)" d="M 5602.88,3725.8 L 5620.2,3735.81 L 5434.92,4056.71 L 5417.6,4046.71 L 5602.88,3725.8 Z " />
<path stroke="none" fill="#000000" transform="matrix(0.0666667 0 0 0.0666667 -164.787 -231)" d="M 5092.59,3718.13 L 5109.91,3708.13 L 5289.54,4019.25 L 5272.22,4029.25 L 5092.59,3718.13 Z " />
<path stroke="none" fill="#000000" transform="matrix(0.0666667 0 0 0.0666667 -164.787 -231)" d="M 4918.68,4383.07 L 4908.69,4365.75 L 5229.79,4180.37 L 5239.79,4197.7 L 4918.68,4383.07 Z " />
<path stroke="none" fill="#000000" transform="matrix(0.0666667 0 0 0.0666667 -164.787 -231)" d="M 4301.45,4139.43 L 4301.45,4116.33 L 4733.45,4365.75 L 4723.45,4383.07 L 4301.45,4139.43 Z " />
<path stroke="none" fill="#000000" transform="matrix(0.0666667 0 0 0.0666667 -164.787 -231)" d="M 4301.45,4116.33 L 4301.45,4139.43 L 3781.8,4439.43 L 3781.8,4416.34 L 4301.45,4116.33 Z " />
<path stroke="none" fill="#000000" transform="matrix(0.0666667 0 0 0.0666667 -164.787 -231)" d="M 3841.8,4922.73 L 3721.8,4922.73 L 3724.07,4902.73 L 3839.53,4902.73 L 3841.8,4922.73 Z " />
<path stroke="none" fill="#000000" transform="matrix(0.0666667 0 0 0.0666667 -164.787 -231)" d="M 3834.98,4862.62 L 3728.62,4862.62 L 3730.89,4842.62 L 3832.72,4842.62 L 3834.98,4862.62 Z " />
<path stroke="none" fill="#000000" transform="matrix(0.0666667 0 0 0.0666667 -164.787 -231)" d="M 3828.17,4802.52 L 3735.44,4802.52 L 3737.71,4782.52 L 3825.9,4782.52 L 3828.17,4802.52 Z " />
<path stroke="none" fill="#000000" transform="matrix(0.0666667 0 0 0.0666667 -164.787 -231)" d="M 3821.35,4742.41 L 3742.26,4742.41 L 3744.53,4722.41 L 3819.08,4722.41 L 3821.35,4742.41 Z " />
<path stroke="none" fill="#000000" transform="matrix(0.0666667 0 0 0.0666667 -164.787 -231)" d="M 3814.53,4682.3 L 3749.08,4682.3 L 3751.35,4662.3 L 3812.26,4662.3 L 3814.53,4682.3 Z " />
<path stroke="none" fill="#000000" transform="matrix(0.0666667 0 0 0.0666667 -164.787 -231)" d="M 3807.71,4622.19 L 3755.9,4622.19 L 3758.17,4602.19 L 3805.44,4602.19 L 3807.71,4622.19 Z " />
<path stroke="none" fill="#000000" transform="matrix(0.0666667 0 0 0.0666667 -164.787 -231)" d="M 3800.89,4562.09 L 3762.72,4562.09 L 3764.98,4542.09 L 3798.62,4542.09 L 3800.89,4562.09 Z " />
<path stroke="none" fill="#000000" transform="matrix(0.0666667 0 0 0.0666667 -164.787 -231)" d="M 3794.07,4501.98 L 3769.53,4501.98 L 3771.8,4481.98 L 3791.8,4481.98 L 3794.07,4501.98 Z " />
<path stroke="none" fill="#000000" transform="matrix(0.0666667 0 0 0.0666667 -164.787 -231)" d="M 3262.19,4139.43 L 3262.19,4116.33 L 3781.8,4416.34 L 3781.8,4439.43 L 3262.19,4139.43 Z " />
<path stroke="none" fill="#000000" transform="matrix(0.0666667 0 0 0.0666667 -164.787 -231)" d="M 2840.19,4383.08 L 2830.19,4365.76 L 3262.19,4116.33 L 3262.19,4139.43 L 2840.19,4383.08 Z " />
</svg>
