<?xml version="1.0" standalone="no" ?>
<!DOCTYPE svg PUBLIC "-//W3C//DTD SVG 1.1//EN" "http://www.w3.org/Graphics/SVG/1.1/DTD/svg11.dtd">
<svg width="422px" height="267px" viewBox="0 0 422 267" style="background-color: #ffffff00" xmlns="http://www.w3.org/2000/svg" xmlns:xlink="http://www.w3.org/1999/xlink" version="1.1" >
<text x="0" y="0" stroke="transparent" fill="#000000" transform="matrix(0.0833333 0 0 0.0833333 255.651 228.485)" style="font:normal normal normal 200px 'Arial'" >
HN</text>
<text x="0" y="0" stroke="transparent" fill="#000000" transform="matrix(0.0833333 0 0 0.0833333 153.265 149.861)" style="font:normal normal normal 200px 'Arial'" >
N</text>
<text x="0" y="0" stroke="transparent" fill="#000000" transform="matrix(0.0833333 0 0 0.0833333 291.896 17.9298)" style="font:normal normal normal 200px 'Arial'" >
HO</text>
<path stroke="transparent" fill="#000000" transform="matrix(0.0833333 0 0 0.0833333 -225.208 -226)" d="M 6082.92,3829.77 L 6061.63,3821.54 L 6521.05,3436.04 L 6542.76,3443.94 L 6082.92,3829.77 Z " />
<path stroke="transparent" fill="#000000" transform="matrix(0.0833333 0 0 0.0833333 -225.208 -226)" d="M 5715.74,4838.22 L 5739.94,4842.3 L 5943.37,5262.39 L 5925.37,5271.1 L 5715.74,4838.22 Z " />
<path stroke="transparent" fill="#000000" transform="matrix(0.0833333 0 0 0.0833333 -225.208 -226)" d="M 6141.55,4412.48 L 6152.13,4416.05 L 6153.77,4428.54 L 5739.94,4842.3 L 5715.74,4838.22 L 6141.55,4412.48 Z " />
<path stroke="transparent" fill="#000000" transform="matrix(0.0833333 0 0 0.0833333 -225.208 -226)" d="M 6156.9,4498.95 L 6171.04,4513.09 L 5822.03,4862.04 L 5807.89,4847.9 L 6156.9,4498.95 Z " />
<path stroke="transparent" fill="#000000" transform="matrix(0.0833333 0 0 0.0833333 -225.208 -226)" d="M 6676.9,4707.46 L 6676.05,4718.52 L 6665.05,4723.72 L 6153.77,4428.54 L 6152.13,4416.05 L 6161.38,4409.84 L 6676.9,4707.46 Z " />
<path stroke="transparent" fill="#000000" transform="matrix(0.0833333 0 0 0.0833333 -225.208 -226)" d="M 7251.25,4484.8 L 7247.45,4507.72 L 6684.99,4725.78 L 6676.05,4718.52 L 6676.9,4707.46 L 7251.25,4484.8 Z " />
<path stroke="transparent" fill="#000000" transform="matrix(0.0833333 0 0 0.0833333 -225.208 -226)" d="M 7719.83,4877.91 L 7698.13,4885.81 L 7247.45,4507.72 L 7251.25,4484.8 L 7719.83,4877.91 Z " />
<path stroke="transparent" fill="#000000" transform="matrix(0.0833333 0 0 0.0833333 -225.208 -226)" d="M 7637.29,4902.63 L 7624.43,4917.96 L 7229.26,4586.44 L 7242.11,4571.11 L 7637.29,4902.63 Z " />
<path stroke="transparent" fill="#000000" transform="matrix(0.0833333 0 0 0.0833333 -225.208 -226)" d="M 7613.61,5480.18 L 7595.92,5465.34 L 7698.13,4885.81 L 7719.83,4877.91 L 7613.61,5480.18 Z " />
<path stroke="transparent" fill="#000000" transform="matrix(0.0833333 0 0 0.0833333 -225.208 -226)" d="M 7038.98,5689.37 L 7042.99,5666.62 L 7595.92,5465.34 L 7613.61,5480.18 L 7038.98,5689.37 Z " />
<path stroke="transparent" fill="#000000" transform="matrix(0.0833333 0 0 0.0833333 -225.208 -226)" d="M 7058.84,5605.52 L 7052,5586.73 L 7537.66,5409.93 L 7544.5,5428.72 L 7058.84,5605.52 Z " />
<path stroke="transparent" fill="#000000" transform="matrix(0.0833333 0 0 0.0833333 -225.208 -226)" d="M 6578.34,5302.85 L 6581.36,5292.33 L 6592.15,5288.33 L 7042.99,5666.62 L 7038.98,5689.37 L 6578.34,5302.85 Z " />
<path stroke="transparent" fill="#000000" transform="matrix(0.0833333 0 0 0.0833333 -225.208 -226)" d="M 6572.69,5283.45 L 6581.36,5292.33 L 6578.34,5302.85 L 6082.25,5372.56 L 6079.47,5352.75 L 6572.69,5283.45 Z " />
<path stroke="transparent" fill="#000000" transform="matrix(0.0833333 0 0 0.0833333 -225.208 -226)" d="M 6592.15,5288.33 L 6581.36,5292.33 L 6572.69,5283.45 L 6665.05,4723.72 L 6676.05,4718.52 L 6684.99,4725.78 L 6592.15,5288.33 Z " />
<path stroke="transparent" fill="#000000" transform="matrix(0.0833333 0 0 0.0833333 -225.208 -226)" d="M 6666.56,5266.07 L 6646.83,5262.81 L 6728.55,4767.56 L 6748.29,4770.81 L 6666.56,5266.07 Z " />
<path stroke="transparent" fill="#000000" transform="matrix(0.0833333 0 0 0.0833333 -225.208 -226)" d="M 5143.3,4726.56 L 5123.3,4738.11 L 4718.8,4504.58 L 4728.8,4487.26 L 5143.3,4726.56 Z " />
<path stroke="transparent" fill="#000000" transform="matrix(0.0833333 0 0 0.0833333 -225.208 -226)" d="M 5143.3,5338.1 L 5123.3,5326.55 L 5123.3,4738.11 L 5143.3,4726.56 L 5143.3,5338.1 Z " />
<path stroke="transparent" fill="#000000" transform="matrix(0.0833333 0 0 0.0833333 -225.208 -226)" d="M 4615.38,5642.88 L 4613.67,5632.32 L 4613.67,5620.78 L 5123.3,5326.55 L 5143.3,5338.1 L 4615.38,5642.88 Z " />
<path stroke="transparent" fill="#000000" transform="matrix(0.0833333 0 0 0.0833333 -225.208 -226)" d="M 3779.48,5471.17 L 3776.38,5460.32 L 3786.38,5452.17 L 4555.19,5610.1 L 4613.67,5632.32 L 4615.38,5642.88 L 3779.48,5471.17 Z " />
<path stroke="transparent" fill="#000000" transform="matrix(0.0833333 0 0 0.0833333 -225.208 -226)" d="M 3766.38,4597.21 L 3786.38,4613.5 L 3786.38,5452.17 L 3776.38,5460.32 L 3766.38,5455.1 L 3766.38,4597.21 Z " />
<path stroke="transparent" fill="#000000" transform="matrix(0.0833333 0 0 0.0833333 -225.208 -226)" d="M 4104.12,5326.55 L 4084.12,5338.1 L 4084.12,4726.56 L 4104.12,4738.11 L 4104.12,5326.55 Z " />
<path stroke="transparent" fill="#000000" transform="matrix(0.0833333 0 0 0.0833333 -225.208 -226)" d="M 3786.38,4613.5 L 3766.38,4597.21 L 4506.42,4444.29 L 4510.47,4463.88 L 3786.38,4613.5 Z " />
<path stroke="transparent" fill="#000000" transform="matrix(0.0833333 0 0 0.0833333 -225.208 -226)" d="M 4104.12,4738.11 L 4084.12,4726.56 L 4498.55,4487.27 L 4508.55,4504.59 L 4104.12,4738.11 Z " />
<path stroke="transparent" fill="#000000" transform="matrix(0.0833333 0 0 0.0833333 -225.208 -226)" d="M 4084.12,5338.1 L 4104.12,5326.55 L 4613.67,5620.78 L 4613.67,5632.32 L 4555.19,5610.1 L 4084.12,5338.1 Z " />
<path stroke="transparent" fill="#000000" transform="matrix(0.0833333 0 0 0.0833333 -225.208 -226)" d="M 2744.17,5643.68 L 2751.01,5624.89 L 3252.43,5807.42 L 3365.88,5870.01 L 2744.17,5643.68 Z " />
<path stroke="transparent" fill="#000000" transform="matrix(0.0833333 0 0 0.0833333 -225.208 -226)" d="M 3365.88,5870.01 L 3252.43,5807.42 L 3766.38,5455.1 L 3776.38,5460.32 L 3779.48,5471.17 L 3365.88,5870.01 Z " />
<path stroke="transparent" fill="#000000" transform="matrix(0.0833333 0 0 0.0833333 -225.208 -226)" d="M 5685.4,4771.58 L 5663.97,4889.65 L 5644.65,4884.09 L 5665.37,4769.99 L 5685.4,4771.58 Z " />
<path stroke="transparent" fill="#000000" transform="matrix(0.0833333 0 0 0.0833333 -225.208 -226)" d="M 5625.76,4766.85 L 5606.47,4873.11 L 5587.16,4867.56 L 5605.73,4765.26 L 5625.76,4766.85 Z " />
<path stroke="transparent" fill="#000000" transform="matrix(0.0833333 0 0 0.0833333 -225.208 -226)" d="M 5566.12,4762.11 L 5548.98,4856.58 L 5529.66,4851.02 L 5546.09,4760.53 L 5566.12,4762.11 Z " />
<path stroke="transparent" fill="#000000" transform="matrix(0.0833333 0 0 0.0833333 -225.208 -226)" d="M 5506.48,4757.38 L 5491.48,4840.04 L 5472.16,4834.49 L 5486.45,4755.8 L 5506.48,4757.38 Z " />
<path stroke="transparent" fill="#000000" transform="matrix(0.0833333 0 0 0.0833333 -225.208 -226)" d="M 5446.84,4752.65 L 5433.98,4823.51 L 5414.66,4817.96 L 5426.81,4751.06 L 5446.84,4752.65 Z " />
<path stroke="transparent" fill="#000000" transform="matrix(0.0833333 0 0 0.0833333 -225.208 -226)" d="M 5387.2,4747.92 L 5376.48,4806.98 L 5357.17,4801.42 L 5367.17,4746.33 L 5387.2,4747.92 Z " />
<path stroke="transparent" fill="#000000" transform="matrix(0.0833333 0 0 0.0833333 -225.208 -226)" d="M 5327.56,4743.19 L 5318.99,4790.44 L 5299.67,4784.89 L 5307.52,4741.6 L 5327.56,4743.19 Z " />
<path stroke="transparent" fill="#000000" transform="matrix(0.0833333 0 0 0.0833333 -225.208 -226)" d="M 5267.92,4738.46 L 5261.49,4773.91 L 5242.17,4768.36 L 5247.88,4736.87 L 5267.92,4738.46 Z " />
<path stroke="transparent" fill="#000000" transform="matrix(0.0833333 0 0 0.0833333 -225.208 -226)" d="M 5208.28,4733.73 L 5203.99,4757.38 L 5184.67,4751.82 L 5188.24,4732.14 L 5208.28,4733.73 Z " />
<path stroke="transparent" fill="#000000" transform="matrix(0.0833333 0 0 0.0833333 -225.208 -226)" d="M 6161.38,4409.84 L 6152.13,4416.05 L 6141.55,4412.48 L 6061.63,3821.54 L 6082.92,3829.77 L 6161.38,4409.84 Z " />
<path stroke="transparent" fill="#000000" transform="matrix(0.0833333 0 0 0.0833333 -225.208 -226)" d="M 6439.04,2971.06 L 6458.73,2967.58 L 6542.76,3443.94 L 6521.05,3436.04 L 6439.04,2971.06 Z " />
</svg>
