<?xml version="1.0" standalone="no" ?>
<!DOCTYPE svg PUBLIC "-//W3C//DTD SVG 1.1//EN" "http://www.w3.org/Graphics/SVG/1.1/DTD/svg11.dtd">
<svg width="479px" height="240px" viewBox="0 0 479 240" style="background-color: #ffffff00" xmlns="http://www.w3.org/2000/svg" xmlns:xlink="http://www.w3.org/1999/xlink" version="1.1" >
<text x="0" y="0" stroke="transparent" fill="#000000" transform="matrix(0.0833333 0 0 0.0833333 301.112 86.0275)" style="font:normal normal normal 200px 'Arial'" >
N</text>
<text x="0" y="0" stroke="transparent" fill="#000000" transform="matrix(0.0833333 0 0 0.0833333 127.407 236.028)" style="font:normal normal normal 200px 'Arial'" >
OH</text>
<text x="0" y="0" stroke="transparent" fill="#000000" transform="matrix(0.0833333 0 0 0.0833333 40.8045 86.0275)" style="font:normal normal normal 200px 'Arial'" >
O</text>
<text x="0" y="0" stroke="transparent" fill="#000000" transform="matrix(0.0833333 0 0 0.0833333 170.708 61.0275)" style="font:normal normal normal 200px 'Arial'" >
OH</text>
<text x="0" y="0" stroke="transparent" fill="#000000" transform="matrix(0.0833333 0 0 0.0833333 326.014 76.529)" style="font:normal normal normal 200px 'Arial'" >
O</text>
<text x="0" y="0" stroke="transparent" fill="#000000" transform="matrix(0.0833333 0 0 0.0833333 202.902 234.769)" style="font:normal normal normal 200px 'Arial'" >
HO</text>
<text x="0" y="0" stroke="transparent" fill="#000000" transform="matrix(0.0833333 0 0 0.0833333 418.913 117.726)" style="font:normal normal normal 200px 'Arial'" >
O</text>
<path stroke="transparent" fill="#000000" transform="matrix(0.0833333 0 0 0.0833333 -147.5 -576)" d="M 5465.35,7272.1 L 5445.35,7260.56 L 5969.96,6957.67 L 5979.96,6974.99 L 5465.35,7272.1 Z " />
<path stroke="transparent" fill="#000000" transform="matrix(0.0833333 0 0 0.0833333 -147.5 -576)" d="M 5465.35,7763.66 L 5445.35,7763.66 L 5445.35,7260.56 L 5465.35,7272.1 L 5465.35,7763.66 Z " />
<path stroke="transparent" fill="#000000" transform="matrix(0.0833333 0 0 0.0833333 -147.5 -576)" d="M 5984.96,8160.56 L 5964.96,8172.1 L 5597.09,7959.72 L 5613.09,7945.86 L 5984.96,8160.56 L 5984.96,8160.56 Z " />
<path stroke="transparent" fill="#000000" transform="matrix(0.0833333 0 0 0.0833333 -147.5 -576)" d="M 5984.96,8756.33 L 5974.96,8766.33 L 5964.96,8760.56 L 5964.96,8172.1 L 5984.96,8160.56 L 5984.96,8756.33 Z " />
<path stroke="transparent" fill="#000000" transform="matrix(0.0833333 0 0 0.0833333 -147.5 -576)" d="M 5973.71,9357.1 L 5953.93,9345.35 L 5964.63,8783.84 L 5974.96,8766.33 L 5984.77,8776.33 L 5973.71,9357.1 Z " />
<path stroke="transparent" fill="#000000" transform="matrix(0.0833333 0 0 0.0833333 -147.5 -576)" d="M 5455.35,9652.01 L 5455.35,9629 L 5953.93,9345.35 L 5973.71,9357.1 L 5455.35,9652.01 Z " />
<path stroke="transparent" fill="#000000" transform="matrix(0.0833333 0 0 0.0833333 -147.5 -576)" d="M 4946.91,9362.75 L 4946.87,9351.22 L 4956.76,9345.35 L 5455.35,9629 L 5455.35,9652.01 L 4946.91,9362.75 Z " />
<path stroke="transparent" fill="#000000" transform="matrix(0.0833333 0 0 0.0833333 -147.5 -576)" d="M 4926.06,8783.46 L 4935.73,8766.33 L 4946.07,8783.84 L 4956.76,9345.35 L 4946.87,9351.22 L 4936.76,9345.51 L 4926.06,8783.46 Z " />
<path stroke="transparent" fill="#000000" transform="matrix(0.0833333 0 0 0.0833333 -147.5 -576)" d="M 5442.12,9047.15 L 5455.35,9066.33 L 5455.35,9077.88 L 4946.07,8783.84 L 4935.73,8766.33 L 4945.73,8760.56 L 5442.12,9047.15 Z " />
<path stroke="transparent" fill="#000000" transform="matrix(0.0833333 0 0 0.0833333 -147.5 -576)" d="M 5455.35,9077.88 L 5455.35,9066.33 L 5462.91,9050.42 L 5964.96,8760.56 L 5974.96,8766.33 L 5964.63,8783.84 L 5455.35,9077.88 Z " />
<path stroke="transparent" fill="#000000" transform="matrix(0.0833333 0 0 0.0833333 -147.5 -576)" d="M 5297.72,8152.84 L 5306.61,8145.14 L 5317.37,8149.05 L 5462.91,9050.42 L 5455.35,9066.33 L 5442.12,9047.15 L 5297.72,8152.84 Z " />
<path stroke="transparent" fill="#000000" transform="matrix(0.0833333 0 0 0.0833333 -147.5 -576)" d="M 4499.47,7902.91 L 4416.12,7866.33 L 4414.92,7855.48 L 5036.86,8050.21 L 5013.33,8063.79 L 4499.47,7902.91 L 4499.47,7902.91 Z " />
<path stroke="transparent" fill="#000000" transform="matrix(0.0833333 0 0 0.0833333 -147.5 -576)" d="M 5304.28,8133.93 L 5306.61,8145.14 L 5297.72,8152.84 L 5143,8104.4 L 5166.54,8090.81 L 5304.28,8133.93 L 5304.28,8133.93 Z " />
<path stroke="transparent" fill="#000000" transform="matrix(0.0833333 0 0 0.0833333 -147.5 -576)" d="M 4935.73,8154.78 L 4935.73,8166.33 L 4925.73,8172.1 L 4416.12,7877.88 L 4416.12,7866.33 L 4499.47,7902.91 L 4935.73,8154.78 Z " />
<path stroke="transparent" fill="#000000" transform="matrix(0.0833333 0 0 0.0833333 -147.5 -576)" d="M 4925.73,8172.1 L 4935.73,8166.33 L 4945.73,8172.1 L 4945.73,8760.56 L 4935.73,8766.33 L 4925.73,8760.56 L 4925.73,8172.1 Z " />
<path stroke="transparent" fill="#000000" transform="matrix(0.0833333 0 0 0.0833333 -147.5 -576)" d="M 4945.73,8172.1 L 4935.73,8166.33 L 4935.73,8154.78 L 5340.22,7921.25 L 5350.22,7938.57 L 4945.73,8172.1 Z " />
<path stroke="transparent" fill="#000000" transform="matrix(0.0833333 0 0 0.0833333 -147.5 -576)" d="M 3906.5,8172.1 L 3896.5,8166.33 L 3906.5,8149.01 L 4414.92,7855.48 L 4416.12,7866.33 L 4416.12,7877.88 L 3906.5,8172.1 Z " />
<path stroke="transparent" fill="#000000" transform="matrix(0.0833333 0 0 0.0833333 -147.5 -576)" d="M 3376.88,7877.88 L 3376.88,7854.78 L 3886.5,8149.01 L 3896.5,8166.33 L 3886.5,8172.1 L 3376.88,7877.88 Z " />
<path stroke="transparent" fill="#000000" transform="matrix(0.0833333 0 0 0.0833333 -147.5 -576)" d="M 2867.27,8172.1 L 2857.27,8166.33 L 2857.27,8154.78 L 3376.88,7854.78 L 3376.88,7877.88 L 2867.27,8172.1 Z " />
<path stroke="transparent" fill="#000000" transform="matrix(0.0833333 0 0 0.0833333 -147.5 -576)" d="M 2867.27,8760.56 L 2857.27,8766.33 L 2847.27,8770.72 L 2847.27,8172.1 L 2857.27,8166.33 L 2867.27,8172.1 L 2867.27,8760.56 Z " />
<path stroke="transparent" fill="#000000" transform="matrix(0.0833333 0 0 0.0833333 -147.5 -576)" d="M 3546.19,9386.57 L 3541.75,9409.66 L 3426.88,9303.98 L 3426.88,9276.8 L 3546.19,9386.57 L 3546.19,9386.57 Z " />
<path stroke="transparent" fill="#000000" transform="matrix(0.0833333 0 0 0.0833333 -147.5 -576)" d="M 2847.27,8770.72 L 2857.27,8766.33 L 2930.62,8820.23 L 3326.88,9184.8 L 3326.88,9211.98 L 2847.27,8770.72 L 2847.27,8770.72 Z " />
<path stroke="transparent" fill="#000000" transform="matrix(0.0833333 0 0 0.0833333 -147.5 -576)" d="M 4392.89,9064.47 L 4416.12,9066.33 L 4420.42,9075.39 L 3541.75,9409.66 L 3546.19,9386.57 L 4392.89,9064.47 Z " />
<path stroke="transparent" fill="#000000" transform="matrix(0.0833333 0 0 0.0833333 -147.5 -576)" d="M 4420.42,9075.39 L 4416.12,9066.33 L 4416.12,9054.78 L 4925.73,8760.56 L 4935.73,8766.33 L 4926.06,8783.46 L 4420.42,9075.39 Z " />
<path stroke="transparent" fill="#000000" transform="matrix(0.0833333 0 0 0.0833333 -147.5 -576)" d="M 3896.5,8777.88 L 3896.5,8766.33 L 3906.5,8760.56 L 4416.12,9054.78 L 4416.12,9066.33 L 4392.89,9064.47 L 3896.5,8777.88 Z " />
<path stroke="transparent" fill="#000000" transform="matrix(0.0833333 0 0 0.0833333 -147.5 -576)" d="M 3906.5,8760.56 L 3896.5,8766.33 L 3886.5,8760.56 L 3886.5,8172.1 L 3896.5,8166.33 L 3906.5,8172.1 L 3906.5,8760.56 Z " />
<path stroke="transparent" fill="#000000" transform="matrix(0.0833333 0 0 0.0833333 -147.5 -576)" d="M 3386.88,9072.1 L 3376.88,9066.33 L 3376.88,9054.78 L 3886.5,8760.56 L 3896.5,8766.33 L 3896.5,8777.88 L 3386.88,9072.1 Z " />
<path stroke="transparent" fill="#000000" transform="matrix(0.0833333 0 0 0.0833333 -147.5 -576)" d="M 3376.88,9054.78 L 3376.88,9066.33 L 3366.88,9072.1 L 2930.62,8820.23 L 2857.27,8766.33 L 2867.27,8760.56 L 3376.88,9054.78 Z " />
<path stroke="transparent" fill="#000000" transform="matrix(0.0833333 0 0 0.0833333 -147.5 -576)" d="M 3386.88,9561.16 L 3366.88,9561.16 L 3366.88,9072.1 L 3376.88,9066.33 L 3386.88,9072.1 L 3386.88,9561.16 Z " />
<path stroke="transparent" fill="#000000" transform="matrix(0.0833333 0 0 0.0833333 -147.5 -576)" d="M 2432.69,7932.75 L 2442.69,7915.43 L 2857.27,8154.78 L 2857.27,8166.33 L 2847.27,8172.1 L 2432.69,7932.75 Z " />
<path stroke="transparent" fill="#000000" transform="matrix(0.0833333 0 0 0.0833333 -147.5 -576)" d="M 1823.04,8174.99 L 1813.04,8157.67 L 2233.05,7915.18 L 2243.05,7932.5 L 1823.04,8174.99 Z " />
<path stroke="transparent" fill="#000000" transform="matrix(0.0833333 0 0 0.0833333 -147.5 -576)" d="M 3886.5,7686.16 L 3906.5,7686.16 L 3906.5,8149.01 L 3896.5,8166.33 L 3886.5,8149.01 L 3886.5,7686.16 Z " />
<path stroke="transparent" fill="#000000" transform="matrix(0.0833333 0 0 0.0833333 -147.5 -576)" d="M 5664.63,7821.86 L 5677.72,7836.98 L 5317.37,8149.05 L 5306.61,8145.14 L 5304.28,8133.93 L 5664.63,7821.86 Z " />
<path stroke="transparent" fill="#000000" transform="matrix(0.0833333 0 0 0.0833333 -147.5 -576)" d="M 6330.39,7939.3 L 6323.84,7958.19 L 5863.26,7798.64 L 5869.81,7779.75 L 6330.39,7939.3 Z " />
<path stroke="transparent" fill="#000000" transform="matrix(0.0833333 0 0 0.0833333 -147.5 -576)" d="M 4524.87,9606.42 L 4514.87,9589.1 L 4936.76,9345.51 L 4946.87,9351.22 L 4946.91,9362.75 L 4524.87,9606.42 Z " />
<path stroke="transparent" fill="#000000" transform="matrix(0.0833333 0 0 0.0833333 -147.5 -576)" d="M 6569.19,8756.33 L 6580.73,8776.33 L 5984.77,8776.33 L 5974.96,8766.33 L 5984.96,8756.33 L 6569.19,8756.33 Z " />
<path stroke="transparent" fill="#000000" transform="matrix(0.0833333 0 0 0.0833333 -147.5 -576)" d="M 6805.95,8346.25 L 6823.27,8356.25 L 6580.73,8776.33 L 6569.19,8756.33 L 6805.95,8346.25 Z " />
<path stroke="transparent" fill="#000000" transform="matrix(0.0833333 0 0 0.0833333 -147.5 -576)" d="M 7474.96,8236.71 L 7474.96,8256.71 L 6982.96,8256.71 L 6982.96,8236.71 L 7474.96,8236.71 Z " />
</svg>
