<?xml version="1.0" standalone="no" ?>
<!DOCTYPE svg PUBLIC "-//W3C//DTD SVG 1.1//EN" "http://www.w3.org/Graphics/SVG/1.1/DTD/svg11.dtd">
<svg width="283px" height="419px" viewBox="0 0 283 419" style="background-color: #ffffff00" xmlns="http://www.w3.org/2000/svg" xmlns:xlink="http://www.w3.org/1999/xlink" version="1.1" >
<text x="0" y="0" stroke="transparent" fill="#000000" transform="matrix(0.0666667 0 0 0.0666667 150.767 114.341)" style="font:normal normal normal 200px 'Arial'" >
O</text>
<text x="0" y="0" stroke="transparent" fill="#000000" transform="matrix(0.0666667 0 0 0.0666667 116.785 173.244)" style="font:normal normal normal 200px 'Arial'" >
O</text>
<text x="0" y="0" stroke="transparent" fill="#000000" transform="matrix(0.0666667 0 0 0.0666667 32.6765 133.269)" style="font:normal normal normal 200px 'Arial'" >
H</text>
<text x="0" y="0" stroke="transparent" fill="#000000" transform="matrix(0.0666667 0 0 0.0666667 42.3054 136.202)" style="font:normal normal normal 150px 'Arial'" >
2</text>
<text x="0" y="0" stroke="transparent" fill="#000000" transform="matrix(0.0666667 0 0 0.0666667 47.8669 133.269)" style="font:normal normal normal 200px 'Arial'" >
N</text>
<text x="0" y="0" stroke="transparent" fill="#000000" transform="matrix(0.0666667 0 0 0.0666667 185.809 134.331)" style="font:normal normal normal 200px 'Arial'" >
NH</text>
<text x="0" y="0" stroke="transparent" fill="#000000" transform="matrix(0.0666667 0 0 0.0666667 205.067 137.264)" style="font:normal normal normal 150px 'Arial'" >
2</text>
<text x="0" y="0" stroke="transparent" fill="#000000" transform="matrix(0.0666667 0 0 0.0666667 255.103 254.349)" style="font:normal normal normal 200px 'Arial'" >
NH</text>
<text x="0" y="0" stroke="transparent" fill="#000000" transform="matrix(0.0666667 0 0 0.0666667 274.36 257.282)" style="font:normal normal normal 150px 'Arial'" >
2</text>
<text x="0" y="0" stroke="transparent" fill="#000000" transform="matrix(0.0666667 0 0 0.0666667 107.156 253.277)" style="font:normal normal normal 200px 'Arial'" >
HO</text>
<text x="0" y="0" stroke="transparent" fill="#000000" transform="matrix(0.0666667 0 0 0.0666667 220.456 74.2784)" style="font:normal normal normal 200px 'Arial'" >
NH</text>
<text x="0" y="0" stroke="transparent" fill="#000000" transform="matrix(0.0666667 0 0 0.0666667 239.714 77.2117)" style="font:normal normal normal 150px 'Arial'" >
2</text>
<text x="0" y="0" stroke="transparent" fill="#000000" transform="matrix(0.0666667 0 0 0.0666667 117.938 292.966)" style="font:normal normal normal 200px 'Arial'" >
O</text>
<text x="0" y="0" stroke="transparent" fill="#000000" transform="matrix(0.0666667 0 0 0.0666667 116.12 14.318)" style="font:normal normal normal 200px 'Arial'" >
OH</text>
<text x="0" y="0" stroke="transparent" fill="#000000" transform="matrix(0.0666667 0 0 0.0666667 2.9874 311.633)" style="font:normal normal normal 200px 'Arial'" >
HO</text>
<text x="0" y="0" stroke="transparent" fill="#000000" transform="matrix(0.0666667 0 0 0.0666667 37.6487 371.627)" style="font:normal normal normal 200px 'Arial'" >
HO</text>
<text x="0" y="0" stroke="transparent" fill="#000000" transform="matrix(0.0666667 0 0 0.0666667 117.01 412.96)" style="font:normal normal normal 200px 'Arial'" >
NH</text>
<text x="0" y="0" stroke="transparent" fill="#000000" transform="matrix(0.0666667 0 0 0.0666667 136.268 415.893)" style="font:normal normal normal 150px 'Arial'" >
2</text>
<text x="0" y="0" stroke="transparent" fill="#000000" transform="matrix(0.0666667 0 0 0.0666667 185.938 372.96)" style="font:normal normal normal 200px 'Arial'" >
OH</text>
<text x="0" y="0" stroke="transparent" fill="#000000" transform="matrix(0.0666667 0 0 0.0666667 186.078 293.257)" style="font:normal normal normal 200px 'Arial'" >
O</text>
<path stroke="transparent" fill="#000000" transform="matrix(0.0666667 0 0 0.0666667 -207.425 -103.533)" d="M 5448.45,6175.15 L 5468.45,6163.83 L 5468.45,6775.26 L 5448.45,6763.71 L 5448.45,6175.15 Z " />
<path stroke="transparent" fill="#000000" transform="matrix(0.0666667 0 0 0.0666667 -207.425 -103.533)" d="M 6480.22,4395.87 L 6500.22,4384.32 L 6500.22,4983.95 L 6490.22,4990.38 L 6480.22,4984.49 L 6480.22,4395.87 Z " />
<path stroke="transparent" fill="#000000" transform="matrix(0.0666667 0 0 0.0666667 -207.425 -103.533)" d="M 5970.49,4101.81 L 5970.59,4090.32 L 5981.15,4084.87 L 6500.22,4384.32 L 6480.22,4395.87 L 5970.49,4101.81 Z " />
<path stroke="transparent" fill="#000000" transform="matrix(0.0666667 0 0 0.0666667 -207.425 -103.533)" d="M 5470.78,4379.33 L 5450.78,4367.56 L 5960.01,4084.75 L 5970.59,4090.32 L 5970.49,4101.81 L 5470.78,4379.33 Z " />
<path stroke="transparent" fill="#000000" transform="matrix(0.0666667 0 0 0.0666667 -207.425 -103.533)" d="M 5440.81,2595.68 L 5450.81,2589.9 L 5460.81,2596.2 L 5460.87,3084.94 L 5440.87,3084.95 L 5440.81,2595.68 Z " />
<path stroke="transparent" fill="#000000" transform="matrix(0.0666667 0 0 0.0666667 -207.425 -103.533)" d="M 6040.55,5768.69 L 5920.55,5768.69 L 5922.82,5748.69 L 6038.29,5748.69 L 6040.55,5768.69 Z " />
<path stroke="transparent" fill="#000000" transform="matrix(0.0666667 0 0 0.0666667 -207.425 -103.533)" d="M 6033.73,5708.52 L 5927.37,5708.52 L 5929.64,5688.52 L 6031.47,5688.52 L 6033.73,5708.52 Z " />
<path stroke="transparent" fill="#000000" transform="matrix(0.0666667 0 0 0.0666667 -207.425 -103.533)" d="M 6026.91,5648.36 L 5934.19,5648.36 L 5936.46,5628.36 L 6024.65,5628.36 L 6026.91,5648.36 Z " />
<path stroke="transparent" fill="#000000" transform="matrix(0.0666667 0 0 0.0666667 -207.425 -103.533)" d="M 6020.09,5588.19 L 5941.01,5588.19 L 5943.28,5568.19 L 6017.83,5568.19 L 6020.09,5588.19 Z " />
<path stroke="transparent" fill="#000000" transform="matrix(0.0666667 0 0 0.0666667 -207.425 -103.533)" d="M 6013.28,5528.02 L 5947.83,5528.02 L 5950.09,5508.02 L 6011.01,5508.02 L 6013.28,5528.02 Z " />
<path stroke="transparent" fill="#000000" transform="matrix(0.0666667 0 0 0.0666667 -207.425 -103.533)" d="M 6006.46,5467.86 L 5954.65,5467.86 L 5956.91,5447.86 L 6004.19,5447.86 L 6006.46,5467.86 Z " />
<path stroke="transparent" fill="#000000" transform="matrix(0.0666667 0 0 0.0666667 -207.425 -103.533)" d="M 5999.64,5407.69 L 5961.47,5407.69 L 5963.73,5387.69 L 5997.37,5387.69 L 5999.64,5407.69 Z " />
<path stroke="transparent" fill="#000000" transform="matrix(0.0666667 0 0 0.0666667 -207.425 -103.533)" d="M 5992.82,5347.52 L 5968.29,5347.52 L 5970.55,5327.52 L 5990.55,5327.52 L 5992.82,5347.52 Z " />
<path stroke="transparent" fill="#000000" transform="matrix(0.0666667 0 0 0.0666667 -207.425 -103.533)" d="M 5922.34,2250.06 L 6022.54,2330.95 L 5460.81,2596.2 L 5450.81,2589.9 L 5450.35,2578.09 L 5922.34,2250.06 Z " />
<path stroke="transparent" fill="#000000" transform="matrix(0.0666667 0 0 0.0666667 -207.425 -103.533)" d="M 5001.15,3968.5 L 4881.15,3968.5 L 4883.41,3948.5 L 4998.88,3948.5 L 5001.15,3968.5 Z " />
<path stroke="transparent" fill="#000000" transform="matrix(0.0666667 0 0 0.0666667 -207.425 -103.533)" d="M 4994.33,3908.33 L 4887.97,3908.33 L 4890.23,3888.33 L 4992.06,3888.33 L 4994.33,3908.33 Z " />
<path stroke="transparent" fill="#000000" transform="matrix(0.0666667 0 0 0.0666667 -207.425 -103.533)" d="M 4987.51,3848.16 L 4894.79,3848.16 L 4897.05,3828.16 L 4985.24,3828.16 L 4987.51,3848.16 Z " />
<path stroke="transparent" fill="#000000" transform="matrix(0.0666667 0 0 0.0666667 -207.425 -103.533)" d="M 4980.69,3788 L 4901.61,3788 L 4903.87,3768 L 4978.42,3768 L 4980.69,3788 Z " />
<path stroke="transparent" fill="#000000" transform="matrix(0.0666667 0 0 0.0666667 -207.425 -103.533)" d="M 4973.87,3727.83 L 4908.42,3727.83 L 4910.69,3707.83 L 4971.61,3707.83 L 4973.87,3727.83 Z " />
<path stroke="transparent" fill="#000000" transform="matrix(0.0666667 0 0 0.0666667 -207.425 -103.533)" d="M 4967.05,3667.66 L 4915.24,3667.66 L 4917.51,3647.66 L 4964.79,3647.66 L 4967.05,3667.66 Z " />
<path stroke="transparent" fill="#000000" transform="matrix(0.0666667 0 0 0.0666667 -207.425 -103.533)" d="M 4960.23,3607.5 L 4922.06,3607.5 L 4924.33,3587.5 L 4957.97,3587.5 L 4960.23,3607.5 Z " />
<path stroke="transparent" fill="#000000" transform="matrix(0.0666667 0 0 0.0666667 -207.425 -103.533)" d="M 4953.41,3547.33 L 4928.88,3547.33 L 4931.15,3527.33 L 4951.15,3527.33 L 4953.41,3547.33 Z " />
<path stroke="transparent" fill="#000000" transform="matrix(0.0666667 0 0 0.0666667 -207.425 -103.533)" d="M 4034.71,3466.5 L 3974.64,3362.62 L 3993.13,3354.63 L 4050.85,3454.47 L 4034.71,3466.5 Z " />
<path stroke="transparent" fill="#000000" transform="matrix(0.0666667 0 0 0.0666667 -207.425 -103.533)" d="M 4081.69,3431.47 L 4028.44,3339.38 L 4046.92,3331.39 L 4097.83,3419.44 L 4081.69,3431.47 Z " />
<path stroke="transparent" fill="#000000" transform="matrix(0.0666667 0 0 0.0666667 -207.425 -103.533)" d="M 4128.67,3396.44 L 4082.24,3316.13 L 4100.72,3308.15 L 4144.82,3384.4 L 4128.67,3396.44 Z " />
<path stroke="transparent" fill="#000000" transform="matrix(0.0666667 0 0 0.0666667 -207.425 -103.533)" d="M 4175.66,3361.41 L 4136.04,3292.89 L 4154.52,3284.91 L 4191.8,3349.37 L 4175.66,3361.41 Z " />
<path stroke="transparent" fill="#000000" transform="matrix(0.0666667 0 0 0.0666667 -207.425 -103.533)" d="M 4222.64,3326.38 L 4189.83,3269.65 L 4208.32,3261.66 L 4238.78,3314.34 L 4222.64,3326.38 Z " />
<path stroke="transparent" fill="#000000" transform="matrix(0.0666667 0 0 0.0666667 -207.425 -103.533)" d="M 4269.62,3291.35 L 4243.63,3246.41 L 4262.12,3238.42 L 4285.76,3279.31 L 4269.62,3291.35 Z " />
<path stroke="transparent" fill="#000000" transform="matrix(0.0666667 0 0 0.0666667 -207.425 -103.533)" d="M 4316.6,3256.32 L 4297.43,3223.16 L 4315.92,3215.18 L 4332.74,3244.28 L 4316.6,3256.32 Z " />
<path stroke="transparent" fill="#000000" transform="matrix(0.0666667 0 0 0.0666667 -207.425 -103.533)" d="M 4363.58,3221.28 L 4351.23,3199.92 L 4369.72,3191.93 L 4379.73,3209.25 L 4363.58,3221.28 Z " />
<path stroke="transparent" fill="#000000" transform="matrix(0.0666667 0 0 0.0666667 -207.425 -103.533)" d="M 5910.53,3609.14 L 6030.53,3609.12 L 5981.15,4084.87 L 5970.59,4090.32 L 5960.01,4084.75 L 5910.53,3609.14 Z " />
<path stroke="transparent" fill="#000000" transform="matrix(0.0666667 0 0 0.0666667 -207.425 -103.533)" d="M 5011.22,4183.36 L 5071.18,4079.41 L 5087.35,4091.42 L 5029.7,4191.34 L 5011.22,4183.36 Z " />
<path stroke="transparent" fill="#000000" transform="matrix(0.0666667 0 0 0.0666667 -207.425 -103.533)" d="M 5065.4,4206.75 L 5118.56,4114.61 L 5134.72,4126.61 L 5083.88,4214.73 L 5065.4,4206.75 Z " />
<path stroke="transparent" fill="#000000" transform="matrix(0.0666667 0 0 0.0666667 -207.425 -103.533)" d="M 5119.58,4230.14 L 5165.93,4149.8 L 5182.09,4161.81 L 5138.06,4238.13 L 5119.58,4230.14 Z " />
<path stroke="transparent" fill="#000000" transform="matrix(0.0666667 0 0 0.0666667 -207.425 -103.533)" d="M 5173.76,4253.54 L 5213.3,4184.99 L 5229.47,4197 L 5192.24,4261.52 L 5173.76,4253.54 Z " />
<path stroke="transparent" fill="#000000" transform="matrix(0.0666667 0 0 0.0666667 -207.425 -103.533)" d="M 5227.94,4276.93 L 5260.68,4220.19 L 5276.84,4232.19 L 5246.43,4284.91 L 5227.94,4276.93 Z " />
<path stroke="transparent" fill="#000000" transform="matrix(0.0666667 0 0 0.0666667 -207.425 -103.533)" d="M 5282.12,4300.33 L 5308.05,4255.38 L 5324.21,4267.39 L 5300.61,4308.31 L 5282.12,4300.33 Z " />
<path stroke="transparent" fill="#000000" transform="matrix(0.0666667 0 0 0.0666667 -207.425 -103.533)" d="M 5336.3,4323.72 L 5355.43,4290.57 L 5371.59,4302.58 L 5354.79,4331.7 L 5336.3,4323.72 Z " />
<path stroke="transparent" fill="#000000" transform="matrix(0.0666667 0 0 0.0666667 -207.425 -103.533)" d="M 5390.48,4347.12 L 5402.8,4325.77 L 5418.96,4337.77 L 5408.97,4355.1 L 5390.48,4347.12 Z " />
<path stroke="transparent" fill="#000000" transform="matrix(0.0666667 0 0 0.0666667 -207.425 -103.533)" d="M 4871.18,1809.6 L 4991.18,1809.6 L 4988.84,1829.6 L 4873.53,1829.6 L 4871.18,1809.6 Z " />
<path stroke="transparent" fill="#000000" transform="matrix(0.0666667 0 0 0.0666667 -207.425 -103.533)" d="M 4877.99,1867.66 L 4984.38,1867.66 L 4982.03,1887.66 L 4880.34,1887.66 L 4877.99,1867.66 Z " />
<path stroke="transparent" fill="#000000" transform="matrix(0.0666667 0 0 0.0666667 -207.425 -103.533)" d="M 4884.8,1925.72 L 4977.57,1925.72 L 4975.22,1945.72 L 4887.15,1945.72 L 4884.8,1925.72 Z " />
<path stroke="transparent" fill="#000000" transform="matrix(0.0666667 0 0 0.0666667 -207.425 -103.533)" d="M 4891.61,1983.77 L 4970.76,1983.77 L 4968.42,2003.77 L 4893.95,2003.77 L 4891.61,1983.77 Z " />
<path stroke="transparent" fill="#000000" transform="matrix(0.0666667 0 0 0.0666667 -207.425 -103.533)" d="M 4898.42,2041.83 L 4963.95,2041.83 L 4961.61,2061.83 L 4900.76,2061.83 L 4898.42,2041.83 Z " />
<path stroke="transparent" fill="#000000" transform="matrix(0.0666667 0 0 0.0666667 -207.425 -103.533)" d="M 4905.22,2099.89 L 4957.15,2099.89 L 4954.8,2119.89 L 4907.57,2119.89 L 4905.22,2099.89 Z " />
<path stroke="transparent" fill="#000000" transform="matrix(0.0666667 0 0 0.0666667 -207.425 -103.533)" d="M 4912.03,2157.95 L 4950.34,2157.95 L 4947.99,2177.95 L 4914.38,2177.95 L 4912.03,2157.95 Z " />
<path stroke="transparent" fill="#000000" transform="matrix(0.0666667 0 0 0.0666667 -207.425 -103.533)" d="M 4918.84,2216 L 4943.53,2216 L 4941.18,2236 L 4921.18,2236 L 4918.84,2216 Z " />
<path stroke="transparent" fill="#000000" transform="matrix(0.0666667 0 0 0.0666667 -207.425 -103.533)" d="M 6936.04,5178.34 L 6876.07,5282.28 L 6489.56,5002.18 L 6490.22,4990.38 L 6500.22,4983.95 L 6936.04,5178.34 Z " />
<path stroke="transparent" fill="#000000" transform="matrix(0.0666667 0 0 0.0666667 -207.425 -103.533)" d="M 4931.19,2301.6 L 4931.18,2278.5 L 5450.35,2578.09 L 5450.81,2589.9 L 5440.81,2595.68 L 4931.19,2301.6 Z " />
<path stroke="transparent" fill="#000000" transform="matrix(0.0666667 0 0 0.0666667 -207.425 -103.533)" d="M 5063.76,5272.59 L 5003.71,5168.7 L 5450.92,4967.32 L 5460.92,4973.72 L 5461.48,4985.59 L 5063.76,5272.59 Z " />
<path stroke="transparent" fill="#000000" transform="matrix(0.0666667 0 0 0.0666667 -207.425 -103.533)" d="M 4421.65,2596.2 L 4401.46,2584.77 L 4931.18,2278.5 L 4931.19,2301.6 L 4421.65,2596.2 Z " />
<path stroke="transparent" fill="#000000" transform="matrix(0.0666667 0 0 0.0666667 -207.425 -103.533)" d="M 6391.35,2520.6 L 6381.36,2537.93 L 6022.54,2330.95 L 5922.34,2250.06 L 6391.35,2520.6 Z " />
<path stroke="transparent" fill="#000000" transform="matrix(0.0666667 0 0 0.0666667 -207.425 -103.533)" d="M 4431.42,3167.7 L 4411.62,3179.36 L 4401.46,2584.77 L 4421.65,2596.2 L 4431.42,3167.7 Z " />
<path stroke="transparent" fill="#000000" transform="matrix(0.0666667 0 0 0.0666667 -207.425 -103.533)" d="M 3866.69,5889.74 L 3966.88,5811.2 L 4419.38,6157.58 L 4418.54,6169.49 L 4408.54,6175.48 L 3866.69,5889.74 Z " />
<path stroke="transparent" fill="#000000" transform="matrix(0.0666667 0 0 0.0666667 -207.425 -103.533)" d="M 3476.94,6106.3 L 3467.23,6088.82 L 3966.88,5811.2 L 3866.69,5889.74 L 3476.94,6106.3 Z " />
<path stroke="transparent" fill="#000000" transform="matrix(0.0666667 0 0 0.0666667 -207.425 -103.533)" d="M 4021.1,7051.57 L 3964.22,6945.91 L 3982.93,6938.48 L 4037.6,7040.04 L 4021.1,7051.57 Z " />
<path stroke="transparent" fill="#000000" transform="matrix(0.0666667 0 0 0.0666667 -207.425 -103.533)" d="M 4069.39,7017.84 L 4018.97,6924.17 L 4037.68,6916.74 L 4085.9,7006.31 L 4069.39,7017.84 Z " />
<path stroke="transparent" fill="#000000" transform="matrix(0.0666667 0 0 0.0666667 -207.425 -103.533)" d="M 4117.69,6984.11 L 4073.72,6902.43 L 4092.43,6895 L 4134.19,6972.58 L 4117.69,6984.11 Z " />
<path stroke="transparent" fill="#000000" transform="matrix(0.0666667 0 0 0.0666667 -207.425 -103.533)" d="M 4165.98,6950.38 L 4128.47,6880.69 L 4147.18,6873.26 L 4182.49,6938.85 L 4165.98,6950.38 Z " />
<path stroke="transparent" fill="#000000" transform="matrix(0.0666667 0 0 0.0666667 -207.425 -103.533)" d="M 4214.27,6916.64 L 4183.22,6858.95 L 4201.93,6851.52 L 4230.78,6905.11 L 4214.27,6916.64 Z " />
<path stroke="transparent" fill="#000000" transform="matrix(0.0666667 0 0 0.0666667 -207.425 -103.533)" d="M 4262.57,6882.91 L 4237.97,6837.22 L 4256.68,6829.79 L 4279.08,6871.38 L 4262.57,6882.91 Z " />
<path stroke="transparent" fill="#000000" transform="matrix(0.0666667 0 0 0.0666667 -207.425 -103.533)" d="M 4310.86,6849.18 L 4292.72,6815.48 L 4311.43,6808.05 L 4327.37,6837.65 L 4310.86,6849.18 Z " />
<path stroke="transparent" fill="#000000" transform="matrix(0.0666667 0 0 0.0666667 -207.425 -103.533)" d="M 4359.16,6815.45 L 4347.47,6793.74 L 4366.18,6786.31 L 4375.66,6803.92 L 4359.16,6815.45 Z " />
<path stroke="transparent" fill="#000000" transform="matrix(0.0666667 0 0 0.0666667 -207.425 -103.533)" d="M 4941.24,3461.82 L 4941.06,3484.8 L 4411.62,3179.36 L 4431.42,3167.7 L 4941.24,3461.82 Z " />
<path stroke="transparent" fill="#000000" transform="matrix(0.0666667 0 0 0.0666667 -207.425 -103.533)" d="M 4998.53,7566.56 L 4878.53,7566.56 L 4927.98,7074.86 L 4938.53,7069.4 L 4949.08,7074.86 L 4998.53,7566.56 Z " />
<path stroke="transparent" fill="#000000" transform="matrix(0.0666667 0 0 0.0666667 -207.425 -103.533)" d="M 5345.67,3237.13 L 5355.39,3254.61 L 4941.06,3484.8 L 4941.24,3461.82 L 5345.67,3237.13 Z " />
<path stroke="transparent" fill="#000000" transform="matrix(0.0666667 0 0 0.0666667 -207.425 -103.533)" d="M 5915.78,6964 L 5855.82,7067.95 L 5839.64,7055.98 L 5897.32,6955.98 L 5915.78,6964 Z " />
<path stroke="transparent" fill="#000000" transform="matrix(0.0666667 0 0 0.0666667 -207.425 -103.533)" d="M 5860.49,6939.97 L 5807.34,7032.11 L 5791.15,7020.15 L 5842.02,6931.95 L 5860.49,6939.97 Z " />
<path stroke="transparent" fill="#000000" transform="matrix(0.0666667 0 0 0.0666667 -207.425 -103.533)" d="M 5805.19,6915.95 L 5758.86,6996.28 L 5742.67,6984.31 L 5786.73,6907.93 L 5805.19,6915.95 Z " />
<path stroke="transparent" fill="#000000" transform="matrix(0.0666667 0 0 0.0666667 -207.425 -103.533)" d="M 5749.9,6891.93 L 5710.38,6960.44 L 5694.19,6948.48 L 5731.43,6883.91 L 5749.9,6891.93 Z " />
<path stroke="transparent" fill="#000000" transform="matrix(0.0666667 0 0 0.0666667 -207.425 -103.533)" d="M 5694.6,6867.91 L 5661.9,6924.61 L 5645.71,6912.64 L 5676.14,6859.89 L 5694.6,6867.91 Z " />
<path stroke="transparent" fill="#000000" transform="matrix(0.0666667 0 0 0.0666667 -207.425 -103.533)" d="M 5639.31,6843.88 L 5613.41,6888.77 L 5597.23,6876.81 L 5620.84,6835.86 L 5639.31,6843.88 Z " />
<path stroke="transparent" fill="#000000" transform="matrix(0.0666667 0 0 0.0666667 -207.425 -103.533)" d="M 5584.01,6819.86 L 5564.93,6852.94 L 5548.74,6840.98 L 5565.55,6811.84 L 5584.01,6819.86 Z " />
<path stroke="transparent" fill="#000000" transform="matrix(0.0666667 0 0 0.0666667 -207.425 -103.533)" d="M 5528.72,6795.84 L 5516.45,6817.11 L 5500.26,6805.14 L 5510.26,6787.82 L 5528.72,6795.84 Z " />
<path stroke="transparent" fill="#000000" transform="matrix(0.0666667 0 0 0.0666667 -207.425 -103.533)" d="M 5470.92,4967.95 L 5460.92,4973.72 L 5450.92,4967.32 L 5450.78,4367.56 L 5470.78,4379.33 L 5470.92,4967.95 Z " />
<path stroke="transparent" fill="#000000" transform="matrix(0.0666667 0 0 0.0666667 -207.425 -103.533)" d="M 5980.64,5262.01 L 5980.46,5284.99 L 5461.48,4985.59 L 5460.92,4973.72 L 5470.92,4967.95 L 5980.64,5262.01 Z " />
<path stroke="transparent" fill="#000000" transform="matrix(0.0666667 0 0 0.0666667 -207.425 -103.533)" d="M 6480.22,4984.49 L 6490.22,4990.38 L 6489.56,5002.18 L 5980.46,5284.99 L 5980.64,5262.01 L 6480.22,4984.49 Z " />
<path stroke="transparent" fill="#000000" transform="matrix(0.0666667 0 0 0.0666667 -207.425 -103.533)" d="M 5052.54,5937.6 L 5062.83,5920.45 L 5468.45,6163.83 L 5448.45,6175.15 L 5052.54,5937.6 Z " />
<path stroke="transparent" fill="#000000" transform="matrix(0.0666667 0 0 0.0666667 -207.425 -103.533)" d="M 4428.54,6175.37 L 4418.54,6169.49 L 4419.38,6157.58 L 4853.24,5916.51 L 4862.96,5934 L 4428.54,6175.37 Z " />
<path stroke="transparent" fill="#000000" transform="matrix(0.0666667 0 0 0.0666667 -207.425 -103.533)" d="M 4428.54,6763.7 L 4408.54,6775.26 L 4408.54,6175.48 L 4418.54,6169.49 L 4428.54,6175.37 L 4428.54,6763.7 Z " />
<path stroke="transparent" fill="#000000" transform="matrix(0.0666667 0 0 0.0666667 -207.425 -103.533)" d="M 4938.53,7057.86 L 4938.53,7069.4 L 4927.98,7074.86 L 4408.54,6775.26 L 4428.54,6763.7 L 4938.53,7057.86 Z " />
<path stroke="transparent" fill="#000000" transform="matrix(0.0666667 0 0 0.0666667 -207.425 -103.533)" d="M 5448.45,6763.71 L 5468.45,6775.26 L 4949.08,7074.86 L 4938.53,7069.4 L 4938.53,7057.86 L 5448.45,6763.71 Z " />
<path stroke="transparent" fill="#000000" transform="matrix(0.0666667 0 0 0.0666667 -207.425 -103.533)" d="M 5851,5878.27 L 5910.12,5982.69 L 5891.58,5990.52 L 5834.73,5890.14 L 5851,5878.27 Z " />
<path stroke="transparent" fill="#000000" transform="matrix(0.0666667 0 0 0.0666667 -207.425 -103.533)" d="M 5803.25,5913.13 L 5855.67,6005.7 L 5837.12,6013.53 L 5786.99,5925 L 5803.25,5913.13 Z " />
<path stroke="transparent" fill="#000000" transform="matrix(0.0666667 0 0 0.0666667 -207.425 -103.533)" d="M 5755.51,5947.99 L 5801.21,6028.7 L 5782.66,6036.54 L 5739.25,5959.86 L 5755.51,5947.99 Z " />
<path stroke="transparent" fill="#000000" transform="matrix(0.0666667 0 0 0.0666667 -207.425 -103.533)" d="M 5707.76,5982.85 L 5746.75,6051.71 L 5728.2,6059.55 L 5691.5,5994.73 L 5707.76,5982.85 Z " />
<path stroke="transparent" fill="#000000" transform="matrix(0.0666667 0 0 0.0666667 -207.425 -103.533)" d="M 5660.02,6017.72 L 5692.29,6074.72 L 5673.75,6082.56 L 5643.76,6029.59 L 5660.02,6017.72 Z " />
<path stroke="transparent" fill="#000000" transform="matrix(0.0666667 0 0 0.0666667 -207.425 -103.533)" d="M 5612.27,6052.58 L 5637.84,6097.73 L 5619.29,6105.56 L 5596.01,6064.45 L 5612.27,6052.58 Z " />
<path stroke="transparent" fill="#000000" transform="matrix(0.0666667 0 0 0.0666667 -207.425 -103.533)" d="M 5564.53,6087.44 L 5583.38,6120.74 L 5564.83,6128.57 L 5548.27,6099.31 L 5564.53,6087.44 Z " />
<path stroke="transparent" fill="#000000" transform="matrix(0.0666667 0 0 0.0666667 -207.425 -103.533)" d="M 5516.78,6122.3 L 5528.92,6143.74 L 5510.37,6151.58 L 5500.52,6134.18 L 5516.78,6122.3 Z " />
</svg>
