<?xml version="1.0" standalone="no" ?>
<!DOCTYPE svg PUBLIC "-//W3C//DTD SVG 1.1//EN" "http://www.w3.org/Graphics/SVG/1.1/DTD/svg11.dtd">
<svg width="306px" height="398px" viewBox="0 0 306 398" style="background-color: #ffffff00" xmlns="http://www.w3.org/2000/svg" xmlns:xlink="http://www.w3.org/1999/xlink" version="1.1" >
<text x="0" y="0" stroke="none" fill="#000000" transform="matrix(0.0666667 0 0 0.0666667 188.759 206.777)" font-style="normal" font-weight="normal" font-size="200px" font-family="Arial" >
HN</text>
<text x="0" y="0" stroke="none" fill="#000000" transform="matrix(0.0666667 0 0 0.0666667 191.115 123.303)" font-style="normal" font-weight="normal" font-size="200px" font-family="Arial" >
N</text>
<text x="0" y="0" stroke="none" fill="#000000" transform="matrix(0.0666667 0 0 0.0666667 107.645 130.606)" font-style="normal" font-weight="normal" font-size="200px" font-family="Arial" >
NH</text>
<text x="0" y="0" stroke="none" fill="#000000" transform="matrix(0.0666667 0 0 0.0666667 114.947 214.081)" font-style="normal" font-weight="normal" font-size="200px" font-family="Arial" >
N</text>
<text x="0" y="0" stroke="none" fill="#000000" transform="matrix(0.0666667 0 0 0.0666667 261.345 378.094)" font-style="normal" font-weight="normal" font-size="200px" font-family="Arial" >
O</text>
<text x="0" y="0" stroke="none" fill="#000000" transform="matrix(0.0666667 0 0 0.0666667 184.494 394.854)" font-style="normal" font-weight="normal" font-size="200px" font-family="Arial" >
HO</text>
<text x="0" y="0" stroke="none" fill="#000000" transform="matrix(0.0666667 0 0 0.0666667 81.9295 393.789)" font-style="normal" font-weight="normal" font-size="200px" font-family="Arial" >
O</text>
<text x="0" y="0" stroke="none" fill="#000000" transform="matrix(0.0666667 0 0 0.0666667 3.18947 388.958)" font-style="normal" font-weight="normal" font-size="200px" font-family="Arial" >
HO</text>
<path stroke="none" fill="#000000" transform="matrix(0.0666667 0 0 0.0666667 -199.787 -74)" d="M 5993.63,4726.43 L 6003.25,4732.21 L 6004.23,4743.39 L 5495.41,5061.31 L 5493.46,5038.95 L 5993.63,4726.43 Z " />
<path stroke="none" fill="#000000" transform="matrix(0.0666667 0 0 0.0666667 -199.787 -74)" d="M 6556.58,4944.96 L 6559.57,4956.95 L 6551.1,4964.31 L 6004.23,4743.39 L 6003.25,4732.21 L 6013.73,4725.66 L 6556.58,4944.96 Z " />
<path stroke="none" fill="#000000" transform="matrix(0.0666667 0 0 0.0666667 -199.787 -74)" d="M 6541.78,4861.33 L 6534.29,4879.87 L 6074.97,4694.31 L 6082.47,4675.77 L 6541.78,4861.33 Z " />
<path stroke="none" fill="#000000" transform="matrix(0.0666667 0 0 0.0666667 -199.787 -74)" d="M 6932.9,4496.45 L 6945.24,4497.31 L 6949.62,4507.65 L 6570.5,4959.47 L 6559.57,4956.95 L 6556.58,4944.96 L 6932.9,4496.45 Z " />
<path stroke="none" fill="#000000" transform="matrix(0.0666667 0 0 0.0666667 -199.787 -74)" d="M 6622.61,3999.95 L 6627.24,3988.49 L 6638.43,3987.51 L 6951.02,4487.69 L 6945.24,4497.31 L 6932.9,4496.45 L 6622.61,3999.95 Z " />
<path stroke="none" fill="#000000" transform="matrix(0.0666667 0 0 0.0666667 -199.787 -74)" d="M 6585.43,4076.31 L 6602.39,4065.71 L 6864.93,4485.81 L 6847.97,4496.41 L 6585.43,4076.31 Z " />
<path stroke="none" fill="#000000" transform="matrix(0.0666667 0 0 0.0666667 -199.787 -74)" d="M 6638.43,3987.51 L 6627.24,3988.49 L 6619.88,3980.02 L 6840.88,3433.16 L 6863.24,3431.2 L 6638.43,3987.51 Z " />
<path stroke="none" fill="#000000" transform="matrix(0.0666667 0 0 0.0666667 -199.787 -74)" d="M 6152.95,4117.07 L 6148.11,4097.66 L 6619.88,3980.02 L 6627.24,3988.49 L 6622.61,3999.95 L 6152.95,4117.07 Z " />
<path stroke="none" fill="#000000" transform="matrix(0.0666667 0 0 0.0666667 -199.787 -74)" d="M 6026.93,4249.66 L 6046.88,4251.05 L 6013.73,4725.66 L 6003.25,4732.21 L 5993.63,4726.43 L 6026.93,4249.66 Z " />
<path stroke="none" fill="#000000" transform="matrix(0.0666667 0 0 0.0666667 -199.787 -74)" d="M 6528.28,2933.04 L 6534.06,2923.42 L 6545.24,2922.44 L 6863.24,3431.2 L 6840.88,3433.16 L 6528.28,2933.04 Z " />
<path stroke="none" fill="#000000" transform="matrix(0.0666667 0 0 0.0666667 -199.787 -74)" d="M 6483.96,2997.98 L 6500.92,2987.38 L 6780.04,3433.92 L 6763.08,3444.53 L 6483.96,2997.98 Z " />
<path stroke="none" fill="#000000" transform="matrix(0.0666667 0 0 0.0666667 -199.787 -74)" d="M 6746.8,2370.09 L 6758.8,2367.1 L 6766.16,2375.57 L 6545.24,2922.44 L 6534.06,2923.42 L 6527.51,2912.94 L 6746.8,2370.09 Z " />
<path stroke="none" fill="#000000" transform="matrix(0.0666667 0 0 0.0666667 -199.787 -74)" d="M 6298.37,1993.78 L 6299.23,1981.45 L 6309.56,1977.07 L 6761.32,2356.17 L 6758.8,2367.1 L 6746.8,2370.09 L 6298.37,1993.78 Z " />
<path stroke="none" fill="#000000" transform="matrix(0.0666667 0 0 0.0666667 -199.787 -74)" d="M 6286.59,2077.88 L 6299.45,2062.56 L 6678.88,2380.97 L 6666.03,2396.29 L 6286.59,2077.88 Z " />
<path stroke="none" fill="#000000" transform="matrix(0.0666667 0 0 0.0666667 -199.787 -74)" d="M 5801.88,2304 L 5790.42,2299.37 L 5789.44,2288.19 L 6289.61,1975.67 L 6299.23,1981.45 L 6298.37,1993.78 L 5801.88,2304 Z " />
<path stroke="none" fill="#000000" transform="matrix(0.0666667 0 0 0.0666667 -199.787 -74)" d="M 5789.44,2288.19 L 5790.42,2299.37 L 5781.95,2306.73 L 5235.08,2085.81 L 5233.12,2063.45 L 5789.44,2288.19 Z " />
<path stroke="none" fill="#000000" transform="matrix(0.0666667 0 0 0.0666667 -199.787 -74)" d="M 5917.53,2768.01 L 5898.13,2772.85 L 5781.95,2306.73 L 5790.42,2299.37 L 5801.88,2304 L 5917.53,2768.01 Z " />
<path stroke="none" fill="#000000" transform="matrix(0.0666667 0 0 0.0666667 -199.787 -74)" d="M 5987.39,2750.6 L 5967.99,2755.44 L 5863.23,2335.13 L 5882.63,2330.29 L 5987.39,2750.6 Z " />
<path stroke="none" fill="#000000" transform="matrix(0.0666667 0 0 0.0666667 -199.787 -74)" d="M 6030.45,2898.21 L 6031.85,2878.26 L 6527.51,2912.94 L 6534.06,2923.42 L 6528.28,2933.04 L 6030.45,2898.21 Z " />
<path stroke="none" fill="#000000" transform="matrix(0.0666667 0 0 0.0666667 -199.787 -74)" d="M 4734.9,2398.33 L 4725.28,2392.55 L 4724.31,2381.37 L 5233.12,2063.45 L 5235.08,2085.81 L 4734.9,2398.33 Z " />
<path stroke="none" fill="#000000" transform="matrix(0.0666667 0 0 0.0666667 -199.787 -74)" d="M 4799.85,2442.64 L 4789.25,2425.68 L 5235.84,2146.64 L 5246.44,2163.6 L 4799.85,2442.64 Z " />
<path stroke="none" fill="#000000" transform="matrix(0.0666667 0 0 0.0666667 -199.787 -74)" d="M 4171.96,2179.8 L 4168.96,2167.8 L 4177.44,2160.44 L 4724.31,2381.37 L 4725.28,2392.55 L 4714.8,2399.1 L 4171.96,2179.8 Z " />
<path stroke="none" fill="#000000" transform="matrix(0.0666667 0 0 0.0666667 -199.787 -74)" d="M 3795.63,2628.3 L 3783.3,2627.44 L 3778.91,2617.11 L 4158.03,2165.28 L 4168.96,2167.8 L 4171.96,2179.8 L 3795.63,2628.3 Z " />
<path stroke="none" fill="#000000" transform="matrix(0.0666667 0 0 0.0666667 -199.787 -74)" d="M 3879.74,2640.07 L 3864.42,2627.22 L 4182.84,2247.73 L 4198.16,2260.58 L 3879.74,2640.07 Z " />
<path stroke="none" fill="#000000" transform="matrix(0.0666667 0 0 0.0666667 -199.787 -74)" d="M 4105.92,3124.81 L 4101.29,3136.27 L 4090.11,3137.25 L 3777.52,2637.06 L 3783.3,2627.44 L 3795.63,2628.3 L 4105.92,3124.81 Z " />
<path stroke="none" fill="#000000" transform="matrix(0.0666667 0 0 0.0666667 -199.787 -74)" d="M 4090.11,3137.25 L 4101.29,3136.27 L 4108.65,3144.74 L 3887.67,3691.52 L 3865.31,3693.48 L 4090.11,3137.25 Z " />
<path stroke="none" fill="#000000" transform="matrix(0.0666667 0 0 0.0666667 -199.787 -74)" d="M 4145.02,3193.5 L 4163.57,3201 L 3966.26,3689.21 L 3947.71,3681.72 L 4145.02,3193.5 Z " />
<path stroke="none" fill="#000000" transform="matrix(0.0666667 0 0 0.0666667 -199.787 -74)" d="M 4574.22,3008.03 L 4579.06,3027.43 L 4108.65,3144.74 L 4101.29,3136.27 L 4105.92,3124.81 L 4574.22,3008.03 Z " />
<path stroke="none" fill="#000000" transform="matrix(0.0666667 0 0 0.0666667 -199.787 -74)" d="M 4700.61,2889.36 L 4680.65,2887.96 L 4714.8,2399.1 L 4725.28,2392.55 L 4734.9,2398.33 L 4700.61,2889.36 Z " />
<path stroke="none" fill="#000000" transform="matrix(0.0666667 0 0 0.0666667 -199.787 -74)" d="M 4200.26,4191.71 L 4194.48,4201.33 L 4183.3,4202.31 L 3865.31,3693.48 L 3887.67,3691.52 L 4200.26,4191.71 Z " />
<path stroke="none" fill="#000000" transform="matrix(0.0666667 0 0 0.0666667 -199.787 -74)" d="M 3981.73,4754.66 L 3969.74,4757.65 L 3962.37,4749.18 L 4183.3,4202.31 L 4194.48,4201.33 L 4201.03,4211.81 L 3981.73,4754.66 Z " />
<path stroke="none" fill="#000000" transform="matrix(0.0666667 0 0 0.0666667 -199.787 -74)" d="M 4430.16,5130.97 L 4429.3,5143.3 L 4418.97,5147.69 L 3967.21,4768.59 L 3969.74,4757.65 L 3981.73,4754.66 L 4430.16,5130.97 Z " />
<path stroke="none" fill="#000000" transform="matrix(0.0666667 0 0 0.0666667 -199.787 -74)" d="M 4441.94,5046.87 L 4429.08,5062.19 L 4049.65,4743.78 L 4062.51,4728.46 L 4441.94,5046.87 Z " />
<path stroke="none" fill="#000000" transform="matrix(0.0666667 0 0 0.0666667 -199.787 -74)" d="M 4926.66,4820.75 L 4938.12,4825.38 L 4939.09,4836.56 L 4438.92,5149.08 L 4429.3,5143.3 L 4430.16,5130.97 L 4926.66,4820.75 Z " />
<path stroke="none" fill="#000000" transform="matrix(0.0666667 0 0 0.0666667 -199.787 -74)" d="M 4939.09,4836.56 L 4938.12,4825.38 L 4946.59,4818.02 L 5493.46,5038.95 L 5495.41,5061.31 L 4939.09,4836.56 Z " />
<path stroke="none" fill="#000000" transform="matrix(0.0666667 0 0 0.0666667 -199.787 -74)" d="M 4995.36,4781.64 L 5002.85,4763.1 L 5491.14,4960.36 L 5483.65,4978.9 L 4995.36,4781.64 Z " />
<path stroke="none" fill="#000000" transform="matrix(0.0666667 0 0 0.0666667 -199.787 -74)" d="M 4814.37,4370.24 L 4833.77,4365.4 L 4946.59,4818.02 L 4938.12,4825.38 L 4926.66,4820.75 L 4814.37,4370.24 Z " />
<path stroke="none" fill="#000000" transform="matrix(0.0666667 0 0 0.0666667 -199.787 -74)" d="M 4698.08,4226.54 L 4696.68,4246.5 L 4201.03,4211.81 L 4194.48,4201.33 L 4200.26,4191.71 L 4698.08,4226.54 Z " />
<path stroke="none" fill="#000000" transform="matrix(0.0666667 0 0 0.0666667 -199.787 -74)" d="M 4693.05,4298.37 L 4691.66,4318.32 L 4240.94,4286.78 L 4242.34,4266.83 L 4693.05,4298.37 Z " />
<path stroke="none" fill="#000000" transform="matrix(0.0666667 0 0 0.0666667 -199.787 -74)" d="M 6262,5952.7 L 6284.2,5959.06 L 6429.38,6541.25 L 6407.18,6534.88 L 6262,5952.7 Z " />
<path stroke="none" fill="#000000" transform="matrix(0.0666667 0 0 0.0666667 -199.787 -74)" d="M 6693.57,5535.94 L 6715.77,5542.31 L 6284.2,5959.06 L 6262,5952.7 L 6693.57,5535.94 Z " />
<path stroke="none" fill="#000000" transform="matrix(0.0666667 0 0 0.0666667 -199.787 -74)" d="M 6904.85,6629.72 L 6899.34,6648.95 L 6405.47,6507.35 L 6410.98,6488.12 L 6904.85,6629.72 Z " />
<path stroke="none" fill="#000000" transform="matrix(0.0666667 0 0 0.0666667 -199.787 -74)" d="M 6885.01,6698.92 L 6879.49,6718.15 L 6385.62,6576.55 L 6391.13,6557.32 L 6885.01,6698.92 Z " />
<path stroke="none" fill="#000000" transform="matrix(0.0666667 0 0 0.0666667 -199.787 -74)" d="M 6070.58,6887.66 L 6056.69,6873.28 L 6407.18,6534.88 L 6429.38,6541.25 L 6070.58,6887.66 Z " />
<path stroke="none" fill="#000000" transform="matrix(0.0666667 0 0 0.0666667 -199.787 -74)" d="M 6715.77,5542.31 L 6693.57,5535.94 L 6551.1,4964.31 L 6559.57,4956.95 L 6570.5,4959.47 L 6715.77,5542.31 Z " />
<path stroke="none" fill="#000000" transform="matrix(0.0666667 0 0 0.0666667 -199.787 -74)" d="M 3838.62,5998.38 L 3857.76,6011.3 L 3815.95,6609.84 L 3796.81,6596.93 L 3838.62,5998.38 Z " />
<path stroke="none" fill="#000000" transform="matrix(0.0666667 0 0 0.0666667 -199.787 -74)" d="M 4377.92,5735.39 L 4397.06,5748.3 L 3857.76,6011.3 L 3838.62,5998.38 L 4377.92,5735.39 Z " />
<path stroke="none" fill="#000000" transform="matrix(0.0666667 0 0 0.0666667 -199.787 -74)" d="M 4240.8,6840.91 L 4229.62,6857.49 L 3803.68,6570.21 L 3814.87,6553.63 L 4240.8,6840.91 Z " />
<path stroke="none" fill="#000000" transform="matrix(0.0666667 0 0 0.0666667 -199.787 -74)" d="M 4200.55,6900.59 L 4189.36,6917.17 L 3763.43,6629.89 L 3774.61,6613.31 L 4200.55,6900.59 Z " />
<path stroke="none" fill="#000000" transform="matrix(0.0666667 0 0 0.0666667 -199.787 -74)" d="M 3367.46,6828.55 L 3358.69,6810.57 L 3796.81,6596.93 L 3815.95,6609.84 L 3367.46,6828.55 Z " />
<path stroke="none" fill="#000000" transform="matrix(0.0666667 0 0 0.0666667 -199.787 -74)" d="M 4397.06,5748.3 L 4377.92,5735.39 L 4418.97,5147.69 L 4429.3,5143.3 L 4438.92,5149.08 L 4397.06,5748.3 Z " />
<path stroke="none" fill="#000000" transform="matrix(0.0666667 0 0 0.0666667 -199.787 -74)" d="M 3389.97,4912.53 L 3385.13,4893.12 L 3962.37,4749.18 L 3969.74,4757.65 L 3967.21,4768.59 L 3389.97,4912.53 Z " />
<path stroke="none" fill="#000000" transform="matrix(0.0666667 0 0 0.0666667 -199.787 -74)" d="M 3184.14,2595.55 L 3185.54,2575.6 L 3778.91,2617.11 L 3783.3,2627.44 L 3777.52,2637.06 L 3184.14,2595.55 Z " />
<path stroke="none" fill="#000000" transform="matrix(0.0666667 0 0 0.0666667 -199.787 -74)" d="M 6331.07,1382.21 L 6351.02,1383.6 L 6309.56,1977.07 L 6299.23,1981.45 L 6289.61,1975.67 L 6331.07,1382.21 Z " />
<path stroke="none" fill="#000000" transform="matrix(0.0666667 0 0 0.0666667 -199.787 -74)" d="M 7544.39,4529.21 L 7543,4549.16 L 6949.62,4507.65 L 6945.24,4497.31 L 6951.02,4487.69 L 7544.39,4529.21 Z " />
<path stroke="none" fill="#000000" transform="matrix(0.0666667 0 0 0.0666667 -199.787 -74)" d="M 4448.48,1161.68 L 4462.38,1176.07 L 4034.96,1588.82 L 4012.76,1582.45 L 4448.48,1161.68 Z " />
<path stroke="none" fill="#000000" transform="matrix(0.0666667 0 0 0.0666667 -199.787 -74)" d="M 4498.5,1213.47 L 4512.39,1227.86 L 4110.72,1615.74 L 4096.82,1601.36 L 4498.5,1213.47 Z " />
<path stroke="none" fill="#000000" transform="matrix(0.0666667 0 0 0.0666667 -199.787 -74)" d="M 4012.76,1582.45 L 4034.96,1588.82 L 4177.44,2160.44 L 4168.96,2167.8 L 4158.03,2165.28 L 4012.76,1582.45 Z " />
<path stroke="none" fill="#000000" transform="matrix(0.0666667 0 0 0.0666667 -199.787 -74)" d="M 7496.8,1642.42 L 7516.02,1647.94 L 7349,2230.23 L 7332.96,2213.62 L 7496.8,1642.42 Z " />
<path stroke="none" fill="#000000" transform="matrix(0.0666667 0 0 0.0666667 -199.787 -74)" d="M 7427.59,1622.57 L 7446.81,1628.09 L 7292.84,2164.88 L 7273.62,2159.37 L 7427.59,1622.57 Z " />
<path stroke="none" fill="#000000" transform="matrix(0.0666667 0 0 0.0666667 -199.787 -74)" d="M 7332.96,2213.62 L 7349,2230.23 L 6766.16,2375.57 L 6758.8,2367.1 L 6761.32,2356.17 L 7332.96,2213.62 Z " />
</svg>
