<?xml version="1.0" standalone="no" ?>
<!DOCTYPE svg PUBLIC "-//W3C//DTD SVG 1.1//EN" "http://www.w3.org/Graphics/SVG/1.1/DTD/svg11.dtd">
<svg width="210px" height="125px" viewBox="0 0 210 125" style="background-color: #ffffff00" xmlns="http://www.w3.org/2000/svg" xmlns:xlink="http://www.w3.org/1999/xlink" version="1.1" >
<text x="0" y="0" stroke="transparent" fill="#000000" transform="matrix(0.0666667 0 0 0.0666667 2.87427 14.6668)" style="font:normal normal normal 200px 'Arial'" >
HO</text>
<text x="0" y="0" stroke="transparent" fill="#000000" transform="matrix(0.0666667 0 0 0.0666667 62.7339 105.384)" style="font:normal normal normal 200px 'Arial'" >
N</text>
<text x="0" y="0" stroke="transparent" fill="#000000" transform="matrix(0.0666667 0 0 0.0666667 97.7525 45.6062)" style="font:normal normal normal 200px 'Arial'" >
N</text>
<path stroke="transparent" fill="#000000" transform="matrix(0.0666667 0 0 0.0666667 -243.853 -347)" d="M 4113.14,5910.91 L 4105.15,5918.79 L 4094.08,5916.97 L 3950.79,5466.31 L 3969.85,5460.25 L 4113.14,5910.91 Z " />
<path stroke="transparent" fill="#000000" transform="matrix(0.0666667 0 0 0.0666667 -243.853 -347)" d="M 3761.74,6402.02 L 3737.02,6401.86 L 4094.08,5916.97 L 4105.15,5918.79 L 4108.9,5930.57 L 3761.74,6402.02 Z " />
<path stroke="transparent" fill="#000000" transform="matrix(0.0666667 0 0 0.0666667 -243.853 -347)" d="M 4102.91,6877.84 L 4095.12,6901.3 L 3737.02,6401.86 L 3761.74,6402.02 L 4102.91,6877.84 Z " />
<path stroke="transparent" fill="#000000" transform="matrix(0.0666667 0 0 0.0666667 -243.853 -347)" d="M 4558.54,6732.97 L 4564.6,6752.03 L 4095.12,6901.3 L 4102.91,6877.84 L 4558.54,6732.97 Z " />
<path stroke="transparent" fill="#000000" transform="matrix(0.0666667 0 0 0.0666667 -243.853 -347)" d="M 5188.57,6999.49 L 5188.42,7022.58 L 4775.61,6780.75 L 4785.72,6763.5 L 5188.57,6999.49 Z " />
<path stroke="transparent" fill="#000000" transform="matrix(0.0666667 0 0 0.0666667 -243.853 -347)" d="M 5700.07,6708.51 L 5710.04,6714.35 L 5709.96,6725.89 L 5188.42,7022.58 L 5188.57,6999.49 L 5700.07,6708.51 Z " />
<path stroke="transparent" fill="#000000" transform="matrix(0.0666667 0 0 0.0666667 -243.853 -347)" d="M 6227.8,7006.07 L 6227.65,7029.16 L 5709.96,6725.89 L 5710.04,6714.35 L 5720.07,6708.64 L 6227.8,7006.07 Z " />
<path stroke="transparent" fill="#000000" transform="matrix(0.0666667 0 0 0.0666667 -243.853 -347)" d="M 6233.31,6925.86 L 6223.2,6943.11 L 5777.24,6681.86 L 5787.35,6664.61 L 6233.31,6925.86 Z " />
<path stroke="transparent" fill="#000000" transform="matrix(0.0666667 0 0 0.0666667 -243.853 -347)" d="M 6739.3,6715.09 L 6759.23,6726.77 L 6227.65,7029.16 L 6227.8,7006.07 L 6739.3,6715.09 Z " />
<path stroke="transparent" fill="#000000" transform="matrix(0.0666667 0 0 0.0666667 -243.853 -347)" d="M 6743.01,6126.73 L 6763.09,6115.31 L 6759.23,6726.77 L 6739.3,6715.09 L 6743.01,6126.73 Z " />
<path stroke="transparent" fill="#000000" transform="matrix(0.0666667 0 0 0.0666667 -243.853 -347)" d="M 6670.8,6162.06 L 6690.8,6162.19 L 6687.54,6678.97 L 6667.54,6678.85 L 6670.8,6162.06 Z " />
<path stroke="transparent" fill="#000000" transform="matrix(0.0666667 0 0 0.0666667 -243.853 -347)" d="M 6235.24,5829.22 L 6235.39,5806.13 L 6763.09,6115.31 L 6743.01,6126.73 L 6235.24,5829.22 Z " />
<path stroke="transparent" fill="#000000" transform="matrix(0.0666667 0 0 0.0666667 -243.853 -347)" d="M 5723.78,6120.27 L 5713.82,6114.44 L 5713.89,6102.89 L 6235.39,5806.13 L 6235.24,5829.22 L 5723.78,6120.27 Z " />
<path stroke="transparent" fill="#000000" transform="matrix(0.0666667 0 0 0.0666667 -243.853 -347)" d="M 5790.51,6165.15 L 5780.61,6147.77 L 6229.85,5892.13 L 6239.74,5909.51 L 5790.51,6165.15 Z " />
<path stroke="transparent" fill="#000000" transform="matrix(0.0666667 0 0 0.0666667 -243.853 -347)" d="M 5703.78,6120.15 L 5713.82,6114.44 L 5723.78,6120.27 L 5720.07,6708.64 L 5710.04,6714.35 L 5700.07,6708.51 L 5703.78,6120.15 Z " />
<path stroke="transparent" fill="#000000" transform="matrix(0.0666667 0 0 0.0666667 -243.853 -347)" d="M 5300.89,5884.09 L 5311,5866.83 L 5713.89,6102.89 L 5713.82,6114.44 L 5703.78,6120.15 L 5300.89,5884.09 Z " />
<path stroke="transparent" fill="#000000" transform="matrix(0.0666667 0 0 0.0666667 -243.853 -347)" d="M 4684.57,6113.63 L 4674.6,6107.79 L 4673.53,6096.9 L 5080.9,5865.12 L 5090.79,5882.51 L 4684.57,6113.63 Z " />
<path stroke="transparent" fill="#000000" transform="matrix(0.0666667 0 0 0.0666667 -243.853 -347)" d="M 4751.28,6158.51 L 4741.39,6141.12 L 5116.51,5927.7 L 5126.4,5945.08 L 4751.28,6158.51 Z " />
<path stroke="transparent" fill="#000000" transform="matrix(0.0666667 0 0 0.0666667 -243.853 -347)" d="M 4673.53,6096.9 L 4674.6,6107.79 L 4664.56,6115 L 4108.9,5930.57 L 4105.15,5918.79 L 4113.14,5910.91 L 4673.53,6096.9 Z " />
<path stroke="transparent" fill="#000000" transform="matrix(0.0666667 0 0 0.0666667 -243.853 -347)" d="M 4664.56,6115 L 4674.6,6107.79 L 4684.57,6113.63 L 4681.46,6605 L 4661.46,6604.87 L 4664.56,6115 Z " />
</svg>
