<?xml version="1.0" standalone="no" ?>
<!DOCTYPE svg PUBLIC "-//W3C//DTD SVG 1.1//EN" "http://www.w3.org/Graphics/SVG/1.1/DTD/svg11.dtd">
<svg width="521px" height="491px" viewBox="0 0 521 491" style="background-color: #ffffff00" xmlns="http://www.w3.org/2000/svg" xmlns:xlink="http://www.w3.org/1999/xlink" version="1.1" >
<text x="0" y="0" stroke="transparent" fill="#000000" transform="matrix(0.0833333 0 0 0.0833333 189.45 392.433)" style="font:normal normal normal 200px 'Arial'" >
O</text>
<text x="0" y="0" stroke="transparent" fill="#000000" transform="matrix(0.0833333 0 0 0.0833333 276.053 392.433)" style="font:normal normal normal 200px 'Arial'" >
O</text>
<text x="0" y="0" stroke="transparent" fill="#000000" transform="matrix(0.0833333 0 0 0.0833333 319.354 267.433)" style="font:normal normal normal 200px 'Arial'" >
O</text>
<text x="0" y="0" stroke="transparent" fill="#000000" transform="matrix(0.0833333 0 0 0.0833333 362.655 192.433)" style="font:normal normal normal 200px 'Arial'" >
O</text>
<text x="0" y="0" stroke="transparent" fill="#000000" transform="matrix(0.0833333 0 0 0.0833333 276.053 92.4329)" style="font:normal normal normal 200px 'Arial'" >
O</text>
<text x="0" y="0" stroke="transparent" fill="#000000" transform="matrix(0.0833333 0 0 0.0833333 276.053 242.433)" style="font:normal normal normal 200px 'Arial'" >
O</text>
<text x="0" y="0" stroke="transparent" fill="#000000" transform="matrix(0.0833333 0 0 0.0833333 189.45 242.433)" style="font:normal normal normal 200px 'Arial'" >
OH</text>
<text x="0" y="0" stroke="transparent" fill="#000000" transform="matrix(0.0833333 0 0 0.0833333 90.8113 92.4329)" style="font:normal normal normal 200px 'Arial'" >
HO</text>
<text x="0" y="0" stroke="transparent" fill="#000000" transform="matrix(0.0833333 0 0 0.0833333 492.559 17.4329)" style="font:normal normal normal 200px 'Arial'" >
OH</text>
<text x="0" y="0" stroke="transparent" fill="#000000" transform="matrix(0.0833333 0 0 0.0833333 449.258 242.433)" style="font:normal normal normal 200px 'Arial'" >
OH</text>
<text x="0" y="0" stroke="transparent" fill="#000000" transform="matrix(0.0833333 0 0 0.0833333 449.258 342.433)" style="font:normal normal normal 200px 'Arial'" >
OH</text>
<text x="0" y="0" stroke="transparent" fill="#000000" transform="matrix(0.0833333 0 0 0.0833333 362.655 392.433)" style="font:normal normal normal 200px 'Arial'" >
OH</text>
<text x="0" y="0" stroke="transparent" fill="#000000" transform="matrix(0.0833333 0 0 0.0833333 4.20881 392.433)" style="font:normal normal normal 200px 'Arial'" >
HO</text>
<path stroke="transparent" fill="#000000" transform="matrix(0.0833333 0 0 0.0833333 -144.25 -464.667)" d="M 2513.55,11113 L 2533.55,11101.4 L 3043.17,11395.6 L 3043.17,11418.7 L 2513.55,11113 Z " />
<path stroke="transparent" fill="#000000" transform="matrix(0.0833333 0 0 0.0833333 -144.25 -464.667)" d="M 2590.55,11074.3 L 2600.55,11057 L 3048.17,11315.4 L 3038.17,11332.7 L 2590.55,11074.3 Z " />
<path stroke="transparent" fill="#000000" transform="matrix(0.0833333 0 0 0.0833333 -144.25 -464.667)" d="M 2513.55,10513 L 2523.55,10507.2 L 2533.55,10513 L 2533.55,11101.4 L 2513.55,11113 L 2513.55,10513 Z " />
<path stroke="transparent" fill="#000000" transform="matrix(0.0833333 0 0 0.0833333 -144.25 -464.667)" d="M 3043.17,10195.6 L 3043.17,10218.7 L 2533.55,10513 L 2523.55,10507.2 L 2523.55,10495.6 L 3043.17,10195.6 Z " />
<path stroke="transparent" fill="#000000" transform="matrix(0.0833333 0 0 0.0833333 -144.25 -464.667)" d="M 3038.17,10281.7 L 3048.17,10299 L 2600.55,10557.4 L 2590.55,10540.1 L 3038.17,10281.7 Z " />
<path stroke="transparent" fill="#000000" transform="matrix(0.0833333 0 0 0.0833333 -144.25 -464.667)" d="M 3572.78,10501.4 L 3552.78,10513 L 3043.17,10218.7 L 3043.17,10195.6 L 3572.78,10501.4 Z " />
<path stroke="transparent" fill="#000000" transform="matrix(0.0833333 0 0 0.0833333 -144.25 -464.667)" d="M 3572.78,11101.4 L 3562.78,11107.2 L 3552.78,11101.4 L 3552.78,10513 L 3572.78,10501.4 L 3572.78,11101.4 Z " />
<path stroke="transparent" fill="#000000" transform="matrix(0.0833333 0 0 0.0833333 -144.25 -464.667)" d="M 3500.78,11065.6 L 3480.78,11065.6 L 3480.78,10548.8 L 3500.78,10548.8 L 3500.78,11065.6 Z " />
<path stroke="transparent" fill="#000000" transform="matrix(0.0833333 0 0 0.0833333 -144.25 -464.667)" d="M 3552.78,11101.4 L 3562.78,11107.2 L 3562.78,11118.7 L 3043.17,11418.7 L 3043.17,11395.6 L 3552.78,11101.4 Z " />
<path stroke="transparent" fill="#000000" transform="matrix(0.0833333 0 0 0.0833333 -144.25 -464.667)" d="M 4082.4,11395.6 L 4082.4,11418.7 L 3562.78,11118.7 L 3562.78,11107.2 L 3572.78,11101.4 L 4082.4,11395.6 Z " />
<path stroke="transparent" fill="#000000" transform="matrix(0.0833333 0 0 0.0833333 -144.25 -464.667)" d="M 4592.02,11101.4 L 4612.02,11113 L 4082.4,11418.7 L 4082.4,11395.6 L 4592.02,11101.4 Z " />
<path stroke="transparent" fill="#000000" transform="matrix(0.0833333 0 0 0.0833333 -144.25 -464.667)" d="M 4525.02,11057 L 4535.02,11074.3 L 4087.4,11332.7 L 4077.4,11315.4 L 4525.02,11057 Z " />
<path stroke="transparent" fill="#000000" transform="matrix(0.0833333 0 0 0.0833333 -144.25 -464.667)" d="M 4592.02,10501.4 L 4612.02,10513 L 4612.02,11113 L 4592.02,11101.4 L 4592.02,10501.4 Z " />
<path stroke="transparent" fill="#000000" transform="matrix(0.0833333 0 0 0.0833333 -144.25 -464.667)" d="M 4159.44,10304.8 L 4169.44,10287.5 L 4607.02,10540.1 L 4597.02,10557.4 L 4159.44,10304.8 Z " />
<path stroke="transparent" fill="#000000" transform="matrix(0.0833333 0 0 0.0833333 -144.25 -464.667)" d="M 4195.44,10242.4 L 4205.44,10225.1 L 4643.02,10477.7 L 4633.02,10495.1 L 4195.44,10242.4 Z " />
<path stroke="transparent" fill="#000000" transform="matrix(0.0833333 0 0 0.0833333 -144.25 -464.667)" d="M 5017.03,10256 L 5027.03,10273.4 L 4612.02,10513 L 4592.02,10501.4 L 5017.03,10256 Z " />
<path stroke="transparent" fill="#000000" transform="matrix(0.0833333 0 0 0.0833333 -144.25 -464.667)" d="M 5111.63,9545.81 L 5131.63,9673.04 L 5131.63,10102 L 5111.63,10102 L 5111.63,9545.81 Z " />
<path stroke="transparent" fill="#000000" transform="matrix(0.0833333 0 0 0.0833333 -144.25 -464.667)" d="M 5631.25,9300.89 L 5641.25,9307.19 L 5641.71,9319.01 L 5131.63,9673.04 L 5111.63,9545.81 L 5631.25,9300.89 Z " />
<path stroke="transparent" fill="#000000" transform="matrix(0.0833333 0 0 0.0833333 -144.25 -464.667)" d="M 6160.86,9595.65 L 6160.86,9618.74 L 5641.71,9319.01 L 5641.25,9307.19 L 5651.25,9301.42 L 6160.86,9595.65 Z " />
<path stroke="transparent" fill="#000000" transform="matrix(0.0833333 0 0 0.0833333 -144.25 -464.667)" d="M 6670.48,9301.42 L 6680.48,9307.19 L 6679.92,9319.06 L 6160.86,9618.74 L 6160.86,9595.65 L 6670.48,9301.42 Z " />
<path stroke="transparent" fill="#000000" transform="matrix(0.0833333 0 0 0.0833333 -144.25 -464.667)" d="M 6670.48,8712.97 L 6690.48,8701.42 L 6690.48,9300.78 L 6680.48,9307.19 L 6670.48,9301.42 L 6670.48,8712.97 Z " />
<path stroke="transparent" fill="#000000" transform="matrix(0.0833333 0 0 0.0833333 -144.25 -464.667)" d="M 6160.86,8418.74 L 6160.86,8407.19 L 6171.43,8401.75 L 6690.48,8701.42 L 6670.48,8712.97 L 6160.86,8418.74 Z " />
<path stroke="transparent" fill="#000000" transform="matrix(0.0833333 0 0 0.0833333 -144.25 -464.667)" d="M 5738.86,8662.38 L 5728.86,8645.06 L 6150.29,8401.75 L 6160.86,8407.19 L 6160.86,8418.74 L 5738.86,8662.38 Z " />
<path stroke="transparent" fill="#000000" transform="matrix(0.0833333 0 0 0.0833333 -144.25 -464.667)" d="M 5631.25,8827.03 L 5651.25,8827.03 L 5651.25,9301.42 L 5641.25,9307.19 L 5631.25,9300.89 L 5631.25,8827.03 Z " />
<path stroke="transparent" fill="#000000" transform="matrix(0.0833333 0 0 0.0833333 -144.25 -464.667)" d="M 6100.86,7927.03 L 6220.86,7927.03 L 6171.43,8401.75 L 6160.86,8407.19 L 6150.29,8401.75 L 6100.86,7927.03 Z " />
<path stroke="transparent" fill="#000000" transform="matrix(0.0833333 0 0 0.0833333 -144.25 -464.667)" d="M 5641.25,7518.74 L 5641.25,7507.19 L 5651.25,7501.42 L 6073.24,7745.06 L 6063.24,7762.38 L 5641.25,7518.74 Z " />
<path stroke="transparent" fill="#000000" transform="matrix(0.0833333 0 0 0.0833333 -144.25 -464.667)" d="M 5631.25,6912.97 L 5641.25,6907.19 L 5651.25,6912.97 L 5651.25,7501.42 L 5641.25,7507.19 L 5631.25,7501.42 L 5631.25,6912.97 Z " />
<path stroke="transparent" fill="#000000" transform="matrix(0.0833333 0 0 0.0833333 -144.25 -464.667)" d="M 5559.25,6948.76 L 5579.25,6948.76 L 5579.25,7465.63 L 5559.25,7465.63 L 5559.25,6948.76 Z " />
<path stroke="transparent" fill="#000000" transform="matrix(0.0833333 0 0 0.0833333 -144.25 -464.667)" d="M 5216.67,6673.61 L 5226.67,6656.29 L 5641.25,6895.65 L 5641.25,6907.19 L 5631.25,6912.97 L 5216.67,6673.61 Z " />
<path stroke="transparent" fill="#000000" transform="matrix(0.0833333 0 0 0.0833333 -144.25 -464.667)" d="M 4612.02,6912.97 L 4602.02,6907.19 L 4602.02,6895.65 L 5017.03,6656.04 L 5027.03,6673.36 L 4612.02,6912.97 Z " />
<path stroke="transparent" fill="#000000" transform="matrix(0.0833333 0 0 0.0833333 -144.25 -464.667)" d="M 4082.4,6618.74 L 4082.4,6595.65 L 4602.02,6895.65 L 4602.02,6907.19 L 4592.02,6912.97 L 4082.4,6618.74 Z " />
<path stroke="transparent" fill="#000000" transform="matrix(0.0833333 0 0 0.0833333 -144.25 -464.667)" d="M 4077.4,6698.99 L 4087.4,6681.67 L 4535.02,6940.1 L 4525.02,6957.42 L 4077.4,6698.99 Z " />
<path stroke="transparent" fill="#000000" transform="matrix(0.0833333 0 0 0.0833333 -144.25 -464.667)" d="M 3572.78,6912.97 L 3562.78,6907.19 L 3562.78,6895.65 L 4082.4,6595.65 L 4082.4,6618.74 L 3572.78,6912.97 Z " />
<path stroke="transparent" fill="#000000" transform="matrix(0.0833333 0 0 0.0833333 -144.25 -464.667)" d="M 3572.78,7501.42 L 3552.78,7512.97 L 3552.78,6912.97 L 3562.78,6907.19 L 3572.78,6912.97 L 3572.78,7501.42 Z " />
<path stroke="transparent" fill="#000000" transform="matrix(0.0833333 0 0 0.0833333 -144.25 -464.667)" d="M 3644.78,7465.63 L 3624.78,7465.63 L 3624.78,6948.76 L 3644.78,6948.76 L 3644.78,7465.63 Z " />
<path stroke="transparent" fill="#000000" transform="matrix(0.0833333 0 0 0.0833333 -144.25 -464.667)" d="M 4082.4,7795.65 L 4082.4,7807.19 L 4072.4,7812.97 L 3552.78,7512.97 L 3572.78,7501.42 L 4082.4,7795.65 Z " />
<path stroke="transparent" fill="#000000" transform="matrix(0.0833333 0 0 0.0833333 -144.25 -464.667)" d="M 4592.02,7501.42 L 4602.02,7507.19 L 4602.02,7518.74 L 4092.4,7812.97 L 4082.4,7807.19 L 4082.4,7795.65 L 4592.02,7501.42 Z " />
<path stroke="transparent" fill="#000000" transform="matrix(0.0833333 0 0 0.0833333 -144.25 -464.667)" d="M 4525.02,7456.97 L 4535.02,7474.29 L 4087.4,7732.72 L 4077.4,7715.4 L 4525.02,7456.97 Z " />
<path stroke="transparent" fill="#000000" transform="matrix(0.0833333 0 0 0.0833333 -144.25 -464.667)" d="M 4612.02,7501.42 L 4602.02,7507.19 L 4592.02,7501.42 L 4592.02,6912.97 L 4602.02,6907.19 L 4612.02,6912.97 L 4612.02,7501.42 Z " />
<path stroke="transparent" fill="#000000" transform="matrix(0.0833333 0 0 0.0833333 -144.25 -464.667)" d="M 5121.63,7795.65 L 5121.63,7818.74 L 4602.02,7518.74 L 4602.02,7507.19 L 4612.02,7501.42 L 5121.63,7795.65 Z " />
<path stroke="transparent" fill="#000000" transform="matrix(0.0833333 0 0 0.0833333 -144.25 -464.667)" d="M 5121.63,7818.74 L 5121.63,7795.65 L 5631.25,7501.42 L 5641.25,7507.19 L 5641.25,7518.74 L 5121.63,7818.74 Z " />
<path stroke="transparent" fill="#000000" transform="matrix(0.0833333 0 0 0.0833333 -144.25 -464.667)" d="M 5167.63,8302.03 L 5147.63,8302.03 L 5147.63,7786.41 L 5167.63,7786.41 L 5167.63,8302.03 Z " />
<path stroke="transparent" fill="#000000" transform="matrix(0.0833333 0 0 0.0833333 -144.25 -464.667)" d="M 5095.63,8302.03 L 5075.63,8302.03 L 5075.63,7786.41 L 5095.63,7786.41 L 5095.63,8302.03 Z " />
<path stroke="transparent" fill="#000000" transform="matrix(0.0833333 0 0 0.0833333 -144.25 -464.667)" d="M 4092.4,8302.03 L 4072.4,8302.03 L 4072.4,7812.97 L 4082.4,7807.19 L 4092.4,7812.97 L 4092.4,8302.03 Z " />
<path stroke="transparent" fill="#000000" transform="matrix(0.0833333 0 0 0.0833333 -144.25 -464.667)" d="M 3138.2,6673.61 L 3148.2,6656.29 L 3562.78,6895.65 L 3562.78,6907.19 L 3552.78,6912.97 L 3138.2,6673.61 Z " />
<path stroke="transparent" fill="#000000" transform="matrix(0.0833333 0 0 0.0833333 -144.25 -464.667)" d="M 6150.86,6601.42 L 6160.86,6607.19 L 6160.86,6618.74 L 5651.25,6912.97 L 5641.25,6907.19 L 5641.25,6895.65 L 6150.86,6601.42 Z " />
<path stroke="transparent" fill="#000000" transform="matrix(0.0833333 0 0 0.0833333 -144.25 -464.667)" d="M 6680.48,6895.65 L 6680.48,6918.74 L 6160.86,6618.74 L 6160.86,6607.19 L 6170.86,6601.42 L 6680.48,6895.65 Z " />
<path stroke="transparent" fill="#000000" transform="matrix(0.0833333 0 0 0.0833333 -144.25 -464.667)" d="M 6685.48,6815.4 L 6675.48,6832.72 L 6227.86,6574.29 L 6237.86,6556.97 L 6685.48,6815.4 Z " />
<path stroke="transparent" fill="#000000" transform="matrix(0.0833333 0 0 0.0833333 -144.25 -464.667)" d="M 7190.09,6601.42 L 7210.09,6612.97 L 6680.48,6918.74 L 6680.48,6895.65 L 7190.09,6601.42 Z " />
<path stroke="transparent" fill="#000000" transform="matrix(0.0833333 0 0 0.0833333 -144.25 -464.667)" d="M 7190.09,6012.97 L 7200.09,6007.19 L 7210.09,6012.97 L 7210.09,6612.97 L 7190.09,6601.42 L 7190.09,6012.97 Z " />
<path stroke="transparent" fill="#000000" transform="matrix(0.0833333 0 0 0.0833333 -144.25 -464.667)" d="M 7118.09,6048.76 L 7138.09,6048.76 L 7138.09,6565.63 L 7118.09,6565.63 L 7118.09,6048.76 Z " />
<path stroke="transparent" fill="#000000" transform="matrix(0.0833333 0 0 0.0833333 -144.25 -464.667)" d="M 6680.48,5718.74 L 6680.48,5695.65 L 7200.09,5995.65 L 7200.09,6007.19 L 7190.09,6012.97 L 6680.48,5718.74 Z " />
<path stroke="transparent" fill="#000000" transform="matrix(0.0833333 0 0 0.0833333 -144.25 -464.667)" d="M 6170.86,6012.97 L 6150.86,6001.42 L 6680.48,5695.65 L 6680.48,5718.74 L 6170.86,6012.97 Z " />
<path stroke="transparent" fill="#000000" transform="matrix(0.0833333 0 0 0.0833333 -144.25 -464.667)" d="M 6237.86,6057.42 L 6227.86,6040.1 L 6675.48,5781.67 L 6685.48,5798.99 L 6237.86,6057.42 Z " />
<path stroke="transparent" fill="#000000" transform="matrix(0.0833333 0 0 0.0833333 -144.25 -464.667)" d="M 6150.86,6001.42 L 6170.86,6012.97 L 6170.86,6601.42 L 6160.86,6607.19 L 6150.86,6601.42 L 6150.86,6001.42 Z " />
<path stroke="transparent" fill="#000000" transform="matrix(0.0833333 0 0 0.0833333 -144.25 -464.667)" d="M 7615.1,5756.04 L 7625.1,5773.36 L 7210.09,6012.97 L 7200.09,6007.19 L 7200.09,5995.65 L 7615.1,5756.04 Z " />
<path stroke="transparent" fill="#000000" transform="matrix(0.0833333 0 0 0.0833333 -144.25 -464.667)" d="M 7070.49,8412.74 L 7130.49,8516.66 L 7112.01,8524.65 L 7054.33,8424.75 L 7070.49,8412.74 Z " />
<path stroke="transparent" fill="#000000" transform="matrix(0.0833333 0 0 0.0833333 -144.25 -464.667)" d="M 7023.06,8447.99 L 7076.25,8540.11 L 7057.77,8548.1 L 7006.9,8460 L 7023.06,8447.99 Z " />
<path stroke="transparent" fill="#000000" transform="matrix(0.0833333 0 0 0.0833333 -144.25 -464.667)" d="M 6975.63,8483.23 L 7022.01,8563.56 L 7003.53,8571.55 L 6959.47,8495.24 L 6975.63,8483.23 Z " />
<path stroke="transparent" fill="#000000" transform="matrix(0.0833333 0 0 0.0833333 -144.25 -464.667)" d="M 6928.21,8518.48 L 6967.77,8587.01 L 6949.29,8595 L 6912.05,8530.49 L 6928.21,8518.48 Z " />
<path stroke="transparent" fill="#000000" transform="matrix(0.0833333 0 0 0.0833333 -144.25 -464.667)" d="M 6880.78,8553.73 L 6913.53,8610.46 L 6895.05,8618.45 L 6864.62,8565.74 L 6880.78,8553.73 Z " />
<path stroke="transparent" fill="#000000" transform="matrix(0.0833333 0 0 0.0833333 -144.25 -464.667)" d="M 6833.35,8588.98 L 6859.3,8633.91 L 6840.81,8641.9 L 6817.19,8600.99 L 6833.35,8588.98 Z " />
<path stroke="transparent" fill="#000000" transform="matrix(0.0833333 0 0 0.0833333 -144.25 -464.667)" d="M 6785.92,8624.22 L 6805.06,8657.36 L 6786.58,8665.35 L 6769.76,8636.23 L 6785.92,8624.22 Z " />
<path stroke="transparent" fill="#000000" transform="matrix(0.0833333 0 0 0.0833333 -144.25 -464.667)" d="M 6738.5,8659.47 L 6750.82,8680.81 L 6732.34,8688.8 L 6722.34,8671.48 L 6738.5,8659.47 Z " />
<path stroke="transparent" fill="#000000" transform="matrix(0.0833333 0 0 0.0833333 -144.25 -464.667)" d="M 7137.47,9501.76 L 7077.47,9605.68 L 6679.92,9319.06 L 6680.48,9307.19 L 6690.48,9300.78 L 7137.47,9501.76 Z " />
<path stroke="transparent" fill="#000000" transform="matrix(0.0833333 0 0 0.0833333 -144.25 -464.667)" d="M 6220.86,10102 L 6100.86,10102 L 6103.13,10082 L 6218.59,10082 L 6220.86,10102 Z " />
<path stroke="transparent" fill="#000000" transform="matrix(0.0833333 0 0 0.0833333 -144.25 -464.667)" d="M 6214.04,10041.9 L 6107.68,10041.9 L 6109.95,10021.9 L 6211.77,10021.9 L 6214.04,10041.9 Z " />
<path stroke="transparent" fill="#000000" transform="matrix(0.0833333 0 0 0.0833333 -144.25 -464.667)" d="M 6207.22,9981.82 L 6114.5,9981.82 L 6116.77,9961.82 L 6204.95,9961.82 L 6207.22,9981.82 Z " />
<path stroke="transparent" fill="#000000" transform="matrix(0.0833333 0 0 0.0833333 -144.25 -464.667)" d="M 6200.41,9921.71 L 6121.32,9921.71 L 6123.59,9901.71 L 6198.14,9901.71 L 6200.41,9921.71 Z " />
<path stroke="transparent" fill="#000000" transform="matrix(0.0833333 0 0 0.0833333 -144.25 -464.667)" d="M 6193.59,9861.6 L 6128.14,9861.6 L 6130.41,9841.6 L 6191.32,9841.6 L 6193.59,9861.6 Z " />
<path stroke="transparent" fill="#000000" transform="matrix(0.0833333 0 0 0.0833333 -144.25 -464.667)" d="M 6186.77,9801.5 L 6134.95,9801.5 L 6137.22,9781.5 L 6184.5,9781.5 L 6186.77,9801.5 Z " />
<path stroke="transparent" fill="#000000" transform="matrix(0.0833333 0 0 0.0833333 -144.25 -464.667)" d="M 6179.95,9741.39 L 6141.77,9741.39 L 6144.04,9721.39 L 6177.68,9721.39 L 6179.95,9741.39 Z " />
<path stroke="transparent" fill="#000000" transform="matrix(0.0833333 0 0 0.0833333 -144.25 -464.667)" d="M 6173.13,9681.29 L 6148.59,9681.29 L 6150.86,9661.29 L 6170.86,9661.29 L 6173.13,9681.29 Z " />
<path stroke="transparent" fill="#000000" transform="matrix(0.0833333 0 0 0.0833333 -144.25 -464.667)" d="M 2098.97,10273.6 L 2108.97,10256.3 L 2523.55,10495.6 L 2523.55,10507.2 L 2513.55,10513 L 2098.97,10273.6 Z " />
</svg>
