<?xml version="1.0" standalone="no" ?>
<!DOCTYPE svg PUBLIC "-//W3C//DTD SVG 1.1//EN" "http://www.w3.org/Graphics/SVG/1.1/DTD/svg11.dtd">
<svg width="609px" height="434px" viewBox="0 0 609 434" style="background-color: #ffffff00" xmlns="http://www.w3.org/2000/svg" xmlns:xlink="http://www.w3.org/1999/xlink" version="1.1" >
<text x="0" y="0" stroke="transparent" fill="#000000" transform="matrix(0.0833333 0 0 0.0833333 40.9597 70.5897)" style="font:normal normal normal 200px 'Arial'" >
O</text>
<text x="0" y="0" stroke="transparent" fill="#000000" transform="matrix(0.0833333 0 0 0.0833333 213.419 18.0755)" style="font:normal normal normal 200px 'Arial'" >
O</text>
<text x="0" y="0" stroke="transparent" fill="#000000" transform="matrix(0.0833333 0 0 0.0833333 257.807 92.4377)" style="font:normal normal normal 200px 'Arial'" >
O</text>
<text x="0" y="0" stroke="transparent" fill="#000000" transform="matrix(0.0833333 0 0 0.0833333 223.532 226.119)" style="font:normal normal normal 200px 'Arial'" >
O</text>
<text x="0" y="0" stroke="transparent" fill="#000000" transform="matrix(0.0833333 0 0 0.0833333 407.413 205.441)" style="font:normal normal normal 200px 'Arial'" >
O</text>
<text x="0" y="0" stroke="transparent" fill="#000000" transform="matrix(0.0833333 0 0 0.0833333 364.112 280.441)" style="font:normal normal normal 200px 'Arial'" >
O</text>
<text x="0" y="0" stroke="transparent" fill="#000000" transform="matrix(0.0833333 0 0 0.0833333 450.714 280.441)" style="font:normal normal normal 200px 'Arial'" >
O</text>
<text x="0" y="0" stroke="transparent" fill="#000000" transform="matrix(0.0833333 0 0 0.0833333 580.618 305.441)" style="font:normal normal normal 200px 'Arial'" >
OH</text>
<text x="0" y="0" stroke="transparent" fill="#000000" transform="matrix(0.0833333 0 0 0.0833333 537.317 380.441)" style="font:normal normal normal 200px 'Arial'" >
OH</text>
<text x="0" y="0" stroke="transparent" fill="#000000" transform="matrix(0.0833333 0 0 0.0833333 450.714 430.441)" style="font:normal normal normal 200px 'Arial'" >
OH</text>
<text x="0" y="0" stroke="transparent" fill="#000000" transform="matrix(0.0833333 0 0 0.0833333 352.076 380.441)" style="font:normal normal normal 200px 'Arial'" >
HO</text>
<text x="0" y="0" stroke="transparent" fill="#000000" transform="matrix(0.0833333 0 0 0.0833333 331.206 285.25)" style="font:normal normal normal 200px 'Arial'" >
OH</text>
<text x="0" y="0" stroke="transparent" fill="#000000" transform="matrix(0.0833333 0 0 0.0833333 30.3782 170.579)" style="font:normal normal normal 200px 'Arial'" >
HO</text>
<path stroke="transparent" fill="#000000" transform="matrix(0.0833333 0 0 0.0833333 -124.875 -143)" d="M 1963.99,2535.52 L 1974.24,2552.7 L 1557.95,2801.19 L 1547.69,2784.02 L 1963.99,2535.52 Z " />
<path stroke="transparent" fill="#000000" transform="matrix(0.0833333 0 0 0.0833333 -124.875 -143)" d="M 2591.77,2765.94 L 2591.94,2777.49 L 2582.03,2783.4 L 2163.84,2550.01 L 2173.59,2532.54 L 2591.77,2765.94 Z " />
<path stroke="transparent" fill="#000000" transform="matrix(0.0833333 0 0 0.0833333 -124.875 -143)" d="M 2610.58,3371.5 L 2600.67,3377.42 L 2590.58,3371.79 L 2582.03,2783.4 L 2591.94,2777.49 L 2602.02,2783.11 L 2610.58,3371.5 Z " />
<path stroke="transparent" fill="#000000" transform="matrix(0.0833333 0 0 0.0833333 -124.875 -143)" d="M 2682.05,3334.66 L 2662.06,3334.96 L 2654.54,2818.15 L 2674.54,2817.86 L 2682.05,3334.66 Z " />
<path stroke="transparent" fill="#000000" transform="matrix(0.0833333 0 0 0.0833333 -124.875 -143)" d="M 3124.42,3658.29 L 3124.76,3681.38 L 2600.84,3388.97 L 2600.67,3377.42 L 2610.58,3371.5 L 3124.42,3658.29 Z " />
<path stroke="transparent" fill="#000000" transform="matrix(0.0833333 0 0 0.0833333 -124.875 -143)" d="M 3629.71,3356.68 L 3649.87,3367.93 L 3124.76,3681.38 L 3124.42,3658.29 L 3629.71,3356.68 Z " />
<path stroke="transparent" fill="#000000" transform="matrix(0.0833333 0 0 0.0833333 -124.875 -143)" d="M 3562.07,3313.2 L 3572.32,3330.37 L 3128.51,3595.29 L 3118.26,3578.12 L 3562.07,3313.2 Z " />
<path stroke="transparent" fill="#000000" transform="matrix(0.0833333 0 0 0.0833333 -124.875 -143)" d="M 3621.15,2768.29 L 3631.06,2762.37 L 3641.14,2768 L 3649.87,3367.93 L 3629.71,3356.68 L 3621.15,2768.29 Z " />
<path stroke="transparent" fill="#000000" transform="matrix(0.0833333 0 0 0.0833333 -124.875 -143)" d="M 3107.31,2481.5 L 3106.97,2458.41 L 3630.89,2750.82 L 3631.06,2762.37 L 3621.15,2768.29 L 3107.31,2481.5 Z " />
<path stroke="transparent" fill="#000000" transform="matrix(0.0833333 0 0 0.0833333 -124.875 -143)" d="M 3103.47,2561.82 L 3113.22,2544.36 L 3564.55,2796.25 L 3554.8,2813.71 L 3103.47,2561.82 Z " />
<path stroke="transparent" fill="#000000" transform="matrix(0.0833333 0 0 0.0833333 -124.875 -143)" d="M 3106.97,2458.41 L 3107.31,2481.5 L 2602.02,2783.11 L 2591.94,2777.49 L 2591.77,2765.94 L 3106.97,2458.41 Z " />
<path stroke="transparent" fill="#000000" transform="matrix(0.0833333 0 0 0.0833333 -124.875 -143)" d="M 4146.09,2443.3 L 4146.43,2466.39 L 3641.14,2768 L 3631.06,2762.37 L 3630.89,2750.82 L 4146.09,2443.3 Z " />
<path stroke="transparent" fill="#000000" transform="matrix(0.0833333 0 0 0.0833333 -124.875 -143)" d="M 4093.28,1975.39 L 4113.28,1975.1 L 4120.56,2476 L 4100.56,2476.29 L 4093.28,1975.39 Z " />
<path stroke="transparent" fill="#000000" transform="matrix(0.0833333 0 0 0.0833333 -124.875 -143)" d="M 4165.27,1974.34 L 4185.27,1974.05 L 4192.55,2474.96 L 4172.56,2475.25 L 4165.27,1974.34 Z " />
<path stroke="transparent" fill="#000000" transform="matrix(0.0833333 0 0 0.0833333 -124.875 -143)" d="M 4581.7,2686.42 L 4571.95,2703.88 L 4146.43,2466.39 L 4146.09,2443.3 L 4581.7,2686.42 Z " />
<path stroke="transparent" fill="#000000" transform="matrix(0.0833333 0 0 0.0833333 -124.875 -143)" d="M 4650.76,2881.63 L 4764.88,2844.55 L 4864.11,3310.14 L 4855.59,3317.89 L 4844.15,3316.63 L 4650.76,2881.63 Z " />
<path stroke="transparent" fill="#000000" transform="matrix(0.0833333 0 0 0.0833333 -124.875 -143)" d="M 4515.28,3803.3 L 4502.92,3803.3 L 4494.79,3797.48 L 4844.15,3316.63 L 4855.59,3317.89 L 4859.41,3329.64 L 4515.28,3803.3 Z " />
<path stroke="transparent" fill="#000000" transform="matrix(0.0833333 0 0 0.0833333 -124.875 -143)" d="M 4859.41,4276.95 L 4855.59,4288.71 L 4837.32,4280.57 L 4506.28,3824.93 L 4502.92,3803.3 L 4515.28,3803.3 L 4859.41,4276.95 Z " />
<path stroke="transparent" fill="#000000" transform="matrix(0.0833333 0 0 0.0833333 -124.875 -143)" d="M 4366.96,4350.12 L 4364.87,4330.23 L 4837.32,4280.57 L 4855.59,4288.71 L 4857.68,4298.54 L 4366.96,4350.12 Z " />
<path stroke="transparent" fill="#000000" transform="matrix(0.0833333 0 0 0.0833333 -124.875 -143)" d="M 4356.95,4278.67 L 4247.32,4229.86 L 4494.79,3797.48 L 4502.92,3803.3 L 4506.28,3824.93 L 4356.95,4278.67 Z " />
<path stroke="transparent" fill="#000000" transform="matrix(0.0833333 0 0 0.0833333 -124.875 -143)" d="M 5416.23,4096.03 L 5426.23,4103.3 L 5425.08,4114.18 L 4857.68,4298.54 L 4855.59,4288.71 L 4859.41,4276.95 L 5416.23,4096.03 Z " />
<path stroke="transparent" fill="#000000" transform="matrix(0.0833333 0 0 0.0833333 -124.875 -143)" d="M 5416.23,3510.56 L 5426.23,3503.3 L 5436.23,3509.07 L 5436.23,4097.52 L 5426.23,4103.3 L 5416.23,4096.03 L 5416.23,3510.56 Z " />
<path stroke="transparent" fill="#000000" transform="matrix(0.0833333 0 0 0.0833333 -124.875 -143)" d="M 5425.08,3492.41 L 5426.23,3503.3 L 5416.23,3510.56 L 4859.41,3329.64 L 4855.59,3317.89 L 4864.11,3310.14 L 5425.08,3492.41 Z " />
<path stroke="transparent" fill="#000000" transform="matrix(0.0833333 0 0 0.0833333 -124.875 -143)" d="M 5945.84,3191.75 L 5945.84,3214.84 L 5436.23,3509.07 L 5426.23,3503.3 L 5425.08,3492.41 L 5945.84,3191.75 Z " />
<path stroke="transparent" fill="#000000" transform="matrix(0.0833333 0 0 0.0833333 -124.875 -143)" d="M 6475.46,3497.52 L 6455.46,3509.07 L 5945.84,3214.84 L 5945.84,3191.75 L 6475.46,3497.52 Z " />
<path stroke="transparent" fill="#000000" transform="matrix(0.0833333 0 0 0.0833333 -124.875 -143)" d="M 6398.46,3536.21 L 6388.46,3553.53 L 5940.84,3295.1 L 5950.84,3277.77 L 6398.46,3536.21 Z " />
<path stroke="transparent" fill="#000000" transform="matrix(0.0833333 0 0 0.0833333 -124.875 -143)" d="M 6475.46,3998.13 L 6455.46,3998.13 L 6455.46,3509.07 L 6475.46,3497.52 L 6475.46,3998.13 Z " />
<path stroke="transparent" fill="#000000" transform="matrix(0.0833333 0 0 0.0833333 -124.875 -143)" d="M 5956.39,4408.75 L 5945.84,4403.3 L 5945.84,4391.75 L 6360.85,4152.14 L 6370.85,4169.46 L 5956.39,4408.75 Z " />
<path stroke="transparent" fill="#000000" transform="matrix(0.0833333 0 0 0.0833333 -124.875 -143)" d="M 5945.84,4391.75 L 5945.84,4403.3 L 5935.29,4408.75 L 5425.08,4114.18 L 5426.23,4103.3 L 5436.23,4097.52 L 5945.84,4391.75 Z " />
<path stroke="transparent" fill="#000000" transform="matrix(0.0833333 0 0 0.0833333 -124.875 -143)" d="M 6005.84,4898.13 L 5885.84,4898.13 L 5935.29,4408.75 L 5945.84,4403.3 L 5956.39,4408.75 L 6005.84,4898.13 Z " />
<path stroke="transparent" fill="#000000" transform="matrix(0.0833333 0 0 0.0833333 -124.875 -143)" d="M 6015.88,5113.01 L 6075.88,5009.09 L 6092.04,5021.1 L 6034.36,5121 L 6015.88,5113.01 Z " />
<path stroke="transparent" fill="#000000" transform="matrix(0.0833333 0 0 0.0833333 -124.875 -143)" d="M 6070.06,5136.43 L 6123.25,5044.31 L 6139.41,5056.32 L 6088.54,5144.42 L 6070.06,5136.43 Z " />
<path stroke="transparent" fill="#000000" transform="matrix(0.0833333 0 0 0.0833333 -124.875 -143)" d="M 6124.24,5159.85 L 6170.62,5079.52 L 6186.78,5091.53 L 6142.73,5167.84 L 6124.24,5159.85 Z " />
<path stroke="transparent" fill="#000000" transform="matrix(0.0833333 0 0 0.0833333 -124.875 -143)" d="M 6178.43,5183.27 L 6217.99,5114.74 L 6234.15,5126.75 L 6196.91,5191.26 L 6178.43,5183.27 Z " />
<path stroke="transparent" fill="#000000" transform="matrix(0.0833333 0 0 0.0833333 -124.875 -143)" d="M 6232.61,5206.69 L 6265.37,5149.95 L 6281.53,5161.96 L 6251.09,5214.67 L 6232.61,5206.69 Z " />
<path stroke="transparent" fill="#000000" transform="matrix(0.0833333 0 0 0.0833333 -124.875 -143)" d="M 6286.79,5230.1 L 6312.74,5185.17 L 6328.9,5197.18 L 6305.28,5238.09 L 6286.79,5230.1 Z " />
<path stroke="transparent" fill="#000000" transform="matrix(0.0833333 0 0 0.0833333 -124.875 -143)" d="M 6340.98,5253.52 L 6360.11,5220.38 L 6376.27,5232.39 L 6359.46,5261.51 L 6340.98,5253.52 Z " />
<path stroke="transparent" fill="#000000" transform="matrix(0.0833333 0 0 0.0833333 -124.875 -143)" d="M 6395.16,5276.94 L 6407.48,5255.6 L 6423.64,5267.61 L 6413.64,5284.93 L 6395.16,5276.94 Z " />
<path stroke="transparent" fill="#000000" transform="matrix(0.0833333 0 0 0.0833333 -124.875 -143)" d="M 6475.46,5897.52 L 6465.46,5903.3 L 6455.46,5896.88 L 6455.46,5297.52 L 6475.46,5309.07 L 6475.46,5897.52 Z " />
<path stroke="transparent" fill="#000000" transform="matrix(0.0833333 0 0 0.0833333 -124.875 -143)" d="M 6985.07,6191.75 L 6985.07,6214.84 L 6466.01,5915.16 L 6465.46,5903.3 L 6475.46,5897.52 L 6985.07,6191.75 Z " />
<path stroke="transparent" fill="#000000" transform="matrix(0.0833333 0 0 0.0833333 -124.875 -143)" d="M 7494.69,5897.52 L 7504.69,5903.3 L 7504.13,5915.16 L 6985.07,6214.84 L 6985.07,6191.75 L 7494.69,5897.52 Z " />
<path stroke="transparent" fill="#000000" transform="matrix(0.0833333 0 0 0.0833333 -124.875 -143)" d="M 7494.69,5309.07 L 7514.69,5297.52 L 7514.69,5896.88 L 7504.69,5903.3 L 7494.69,5897.52 L 7494.69,5309.07 Z " />
<path stroke="transparent" fill="#000000" transform="matrix(0.0833333 0 0 0.0833333 -124.875 -143)" d="M 7080.11,5069.71 L 7090.11,5052.39 L 7514.69,5297.52 L 7494.69,5309.07 L 7080.11,5069.71 Z " />
<path stroke="transparent" fill="#000000" transform="matrix(0.0833333 0 0 0.0833333 -124.875 -143)" d="M 6880.47,5052.14 L 6890.47,5069.46 L 6475.46,5309.07 L 6455.46,5297.52 L 6880.47,5052.14 Z " />
<path stroke="transparent" fill="#000000" transform="matrix(0.0833333 0 0 0.0833333 -124.875 -143)" d="M 7947.54,4978.33 L 8007.54,5082.26 L 7989.2,5090.5 L 7931.23,4990.09 L 7947.54,4978.33 Z " />
<path stroke="transparent" fill="#000000" transform="matrix(0.0833333 0 0 0.0833333 -124.875 -143)" d="M 7899.44,5013.03 L 7953.44,5106.57 L 7935.11,5114.8 L 7883.13,5024.79 L 7899.44,5013.03 Z " />
<path stroke="transparent" fill="#000000" transform="matrix(0.0833333 0 0 0.0833333 -124.875 -143)" d="M 7851.34,5047.72 L 7899.35,5130.87 L 7881.01,5139.11 L 7835.04,5059.48 L 7851.34,5047.72 Z " />
<path stroke="transparent" fill="#000000" transform="matrix(0.0833333 0 0 0.0833333 -124.875 -143)" d="M 7803.24,5082.41 L 7845.26,5155.18 L 7826.92,5163.42 L 7786.94,5094.17 L 7803.24,5082.41 Z " />
<path stroke="transparent" fill="#000000" transform="matrix(0.0833333 0 0 0.0833333 -124.875 -143)" d="M 7755.15,5117.11 L 7791.16,5179.49 L 7772.83,5187.73 L 7738.84,5128.87 L 7755.15,5117.11 Z " />
<path stroke="transparent" fill="#000000" transform="matrix(0.0833333 0 0 0.0833333 -124.875 -143)" d="M 7707.05,5151.8 L 7737.07,5203.79 L 7718.73,5212.03 L 7690.74,5163.56 L 7707.05,5151.8 Z " />
<path stroke="transparent" fill="#000000" transform="matrix(0.0833333 0 0 0.0833333 -124.875 -143)" d="M 7658.95,5186.49 L 7682.98,5228.1 L 7664.64,5236.34 L 7642.65,5198.25 L 7658.95,5186.49 Z " />
<path stroke="transparent" fill="#000000" transform="matrix(0.0833333 0 0 0.0833333 -124.875 -143)" d="M 7610.85,5221.18 L 7628.88,5252.41 L 7610.55,5260.65 L 7594.55,5232.94 L 7610.85,5221.18 Z " />
<path stroke="transparent" fill="#000000" transform="matrix(0.0833333 0 0 0.0833333 -124.875 -143)" d="M 7562.76,5255.88 L 7574.79,5276.72 L 7556.45,5284.96 L 7546.45,5267.64 L 7562.76,5255.88 Z " />
<path stroke="transparent" fill="#000000" transform="matrix(0.0833333 0 0 0.0833333 -124.875 -143)" d="M 8456.3,5241.16 L 8446.3,5258.48 L 8019.3,5011.96 L 8029.3,4994.64 L 8456.3,5241.16 Z " />
<path stroke="transparent" fill="#000000" transform="matrix(0.0833333 0 0 0.0833333 -124.875 -143)" d="M 7961.68,6097.86 L 7901.68,6201.78 L 7504.13,5915.16 L 7504.69,5903.3 L 7514.69,5896.88 L 7961.68,6097.86 Z " />
<path stroke="transparent" fill="#000000" transform="matrix(0.0833333 0 0 0.0833333 -124.875 -143)" d="M 7045.07,6698.13 L 6925.07,6698.13 L 6927.34,6678.13 L 7042.8,6678.13 L 7045.07,6698.13 Z " />
<path stroke="transparent" fill="#000000" transform="matrix(0.0833333 0 0 0.0833333 -124.875 -143)" d="M 7038.25,6638.02 L 6931.89,6638.02 L 6934.16,6618.02 L 7035.98,6618.02 L 7038.25,6638.02 Z " />
<path stroke="transparent" fill="#000000" transform="matrix(0.0833333 0 0 0.0833333 -124.875 -143)" d="M 7031.43,6577.92 L 6938.71,6577.92 L 6940.98,6557.92 L 7029.16,6557.92 L 7031.43,6577.92 Z " />
<path stroke="transparent" fill="#000000" transform="matrix(0.0833333 0 0 0.0833333 -124.875 -143)" d="M 7024.61,6517.81 L 6945.53,6517.81 L 6947.8,6497.81 L 7022.35,6497.81 L 7024.61,6517.81 Z " />
<path stroke="transparent" fill="#000000" transform="matrix(0.0833333 0 0 0.0833333 -124.875 -143)" d="M 7017.8,6457.71 L 6952.35,6457.71 L 6954.61,6437.71 L 7015.53,6437.71 L 7017.8,6457.71 Z " />
<path stroke="transparent" fill="#000000" transform="matrix(0.0833333 0 0 0.0833333 -124.875 -143)" d="M 7010.98,6397.6 L 6959.16,6397.6 L 6961.43,6377.6 L 7008.71,6377.6 L 7010.98,6397.6 Z " />
<path stroke="transparent" fill="#000000" transform="matrix(0.0833333 0 0 0.0833333 -124.875 -143)" d="M 7004.16,6337.49 L 6965.98,6337.49 L 6968.25,6317.49 L 7001.89,6317.49 L 7004.16,6337.49 Z " />
<path stroke="transparent" fill="#000000" transform="matrix(0.0833333 0 0 0.0833333 -124.875 -143)" d="M 6997.34,6277.39 L 6972.8,6277.39 L 6975.07,6257.39 L 6995.07,6257.39 L 6997.34,6277.39 Z " />
<path stroke="transparent" fill="#000000" transform="matrix(0.0833333 0 0 0.0833333 -124.875 -143)" d="M 6068.45,6201.79 L 6008.45,6097.87 L 6455.46,5896.88 L 6465.46,5903.3 L 6466.01,5915.16 L 6068.45,6201.79 Z " />
<path stroke="transparent" fill="#000000" transform="matrix(0.0833333 0 0 0.0833333 -124.875 -143)" d="M 5027.78,4810.21 L 4910.4,4835.16 L 4908.23,4815.18 L 5021.63,4791.07 L 5027.78,4810.21 Z " />
<path stroke="transparent" fill="#000000" transform="matrix(0.0833333 0 0 0.0833333 -124.875 -143)" d="M 5009.65,4753.77 L 4904.01,4776.23 L 4901.84,4756.24 L 5003.51,4734.63 L 5009.65,4753.77 Z " />
<path stroke="transparent" fill="#000000" transform="matrix(0.0833333 0 0 0.0833333 -124.875 -143)" d="M 4991.53,4697.33 L 4897.61,4717.29 L 4895.44,4697.3 L 4985.38,4678.19 L 4991.53,4697.33 Z " />
<path stroke="transparent" fill="#000000" transform="matrix(0.0833333 0 0 0.0833333 -124.875 -143)" d="M 4973.4,4640.89 L 4891.21,4658.36 L 4889.04,4638.37 L 4967.25,4621.75 L 4973.4,4640.89 Z " />
<path stroke="transparent" fill="#000000" transform="matrix(0.0833333 0 0 0.0833333 -124.875 -143)" d="M 4955.27,4584.44 L 4884.82,4599.42 L 4882.65,4579.43 L 4949.13,4565.3 L 4955.27,4584.44 Z " />
<path stroke="transparent" fill="#000000" transform="matrix(0.0833333 0 0 0.0833333 -124.875 -143)" d="M 4937.15,4528 L 4878.42,4540.48 L 4876.25,4520.5 L 4931,4508.86 L 4937.15,4528 Z " />
<path stroke="transparent" fill="#000000" transform="matrix(0.0833333 0 0 0.0833333 -124.875 -143)" d="M 4919.02,4471.56 L 4872.02,4481.55 L 4869.85,4461.56 L 4912.87,4452.42 L 4919.02,4471.56 Z " />
<path stroke="transparent" fill="#000000" transform="matrix(0.0833333 0 0 0.0833333 -124.875 -143)" d="M 4900.89,4415.12 L 4865.62,4422.61 L 4863.45,4402.63 L 4894.75,4395.98 L 4900.89,4415.12 Z " />
<path stroke="transparent" fill="#000000" transform="matrix(0.0833333 0 0 0.0833333 -124.875 -143)" d="M 4882.77,4358.68 L 4859.23,4363.68 L 4857.06,4343.69 L 4876.62,4339.54 L 4882.77,4358.68 Z " />
<path stroke="transparent" fill="#000000" transform="matrix(0.0833333 0 0 0.0833333 -124.875 -143)" d="M 5452.48,5018.49 L 5446.3,5037.51 L 4977.25,4885.1 L 4983.43,4866.08 L 5452.48,5018.49 Z " />
<path stroke="transparent" fill="#000000" transform="matrix(0.0833333 0 0 0.0833333 -124.875 -143)" d="M 2182.42,3638.72 L 2172.17,3621.55 L 2590.58,3371.79 L 2600.67,3377.42 L 2600.84,3388.97 L 2182.42,3638.72 Z " />
</svg>
