<?xml version="1.0" standalone="no" ?>
<!DOCTYPE svg PUBLIC "-//W3C//DTD SVG 1.1//EN" "http://www.w3.org/Graphics/SVG/1.1/DTD/svg11.dtd">
<svg width="442px" height="315px" viewBox="0 0 442 315" style="background-color: #ffffff00" xmlns="http://www.w3.org/2000/svg" xmlns:xlink="http://www.w3.org/1999/xlink" version="1.1" >
<text x="0" y="0" stroke="transparent" fill="#000000" transform="matrix(0.0833333 0 0 0.0833333 387.5 17.7971)" style="font:normal normal normal 200px 'Arial'" >
O</text>
<text x="0" y="0" stroke="transparent" fill="#000000" transform="matrix(0.0833333 0 0 0.0833333 387.5 117.799)" style="font:normal normal normal 200px 'Arial'" >
O</text>
<text x="0" y="0" stroke="transparent" fill="#000000" transform="matrix(0.0833333 0 0 0.0833333 41.0863 267.799)" style="font:normal normal normal 200px 'Arial'" >
O</text>
<text x="0" y="0" stroke="transparent" fill="#000000" transform="matrix(0.0833333 0 0 0.0833333 41.0863 167.797)" style="font:normal normal normal 200px 'Arial'" >
O</text>
<text x="0" y="0" stroke="transparent" fill="#000000" transform="matrix(0.0833333 0 0 0.0833333 171.492 92.7953)" style="font:normal normal normal 200px 'Arial'" >
N</text>
<path stroke="transparent" fill="#000000" transform="matrix(0.0833333 0 0 0.0833333 -215.208 -202)" d="M 7405.54,2625.98 L 7415.54,2608.66 L 7835.11,2850.91 L 7825.11,2868.23 L 7405.54,2625.98 Z " />
<path stroke="transparent" fill="#000000" transform="matrix(0.0833333 0 0 0.0833333 -215.208 -202)" d="M 6800.89,2865.35 L 6790.89,2859.57 L 6790.89,2848.02 L 7205.9,2608.41 L 7215.9,2625.73 L 6800.89,2865.35 Z " />
<path stroke="transparent" fill="#000000" transform="matrix(0.0833333 0 0 0.0833333 -215.208 -202)" d="M 6271.28,2571.11 L 6271.28,2548.02 L 6790.89,2848.02 L 6790.89,2859.57 L 6780.89,2865.35 L 6271.28,2571.11 Z " />
<path stroke="transparent" fill="#000000" transform="matrix(0.0833333 0 0 0.0833333 -215.208 -202)" d="M 6266.28,2651.36 L 6276.28,2634.04 L 6723.89,2892.48 L 6713.89,2909.8 L 6266.28,2651.36 Z " />
<path stroke="transparent" fill="#000000" transform="matrix(0.0833333 0 0 0.0833333 -215.208 -202)" d="M 5761.67,2865.31 L 5751.67,2859.53 L 5751.67,2847.99 L 6271.28,2548.02 L 6271.28,2571.11 L 5761.67,2865.31 Z " />
<path stroke="transparent" fill="#000000" transform="matrix(0.0833333 0 0 0.0833333 -215.208 -202)" d="M 5761.67,3453.77 L 5751.67,3459.54 L 5741.67,3453.77 L 5741.67,2865.31 L 5751.67,2859.53 L 5761.67,2865.31 L 5761.67,3453.77 Z " />
<path stroke="transparent" fill="#000000" transform="matrix(0.0833333 0 0 0.0833333 -215.208 -202)" d="M 5833.67,3417.97 L 5813.67,3417.97 L 5813.67,2901.1 L 5833.67,2901.1 L 5833.67,3417.97 Z " />
<path stroke="transparent" fill="#000000" transform="matrix(0.0833333 0 0 0.0833333 -215.208 -202)" d="M 6271.28,3748 L 6271.28,3771.1 L 5751.67,3471.09 L 5751.67,3459.54 L 5761.67,3453.77 L 6271.28,3748 Z " />
<path stroke="transparent" fill="#000000" transform="matrix(0.0833333 0 0 0.0833333 -215.208 -202)" d="M 6780.89,3453.77 L 6790.89,3459.54 L 6790.89,3471.09 L 6271.28,3771.1 L 6271.28,3748 L 6780.89,3453.77 Z " />
<path stroke="transparent" fill="#000000" transform="matrix(0.0833333 0 0 0.0833333 -215.208 -202)" d="M 6713.89,3409.32 L 6723.89,3426.64 L 6276.28,3685.07 L 6266.28,3667.75 L 6713.89,3409.32 Z " />
<path stroke="transparent" fill="#000000" transform="matrix(0.0833333 0 0 0.0833333 -215.208 -202)" d="M 6800.89,3453.77 L 6790.89,3459.54 L 6780.89,3453.77 L 6780.89,2865.35 L 6790.89,2859.57 L 6800.89,2865.35 L 6800.89,3453.77 Z " />
<path stroke="transparent" fill="#000000" transform="matrix(0.0833333 0 0 0.0833333 -215.208 -202)" d="M 7222.89,3697.45 L 7212.89,3714.77 L 6790.89,3471.09 L 6790.89,3459.54 L 6800.89,3453.77 L 7222.89,3697.45 Z " />
<path stroke="transparent" fill="#000000" transform="matrix(0.0833333 0 0 0.0833333 -215.208 -202)" d="M 7825.11,3450.92 L 7835.11,3468.24 L 7408.12,3714.78 L 7398.12,3697.46 L 7825.11,3450.92 Z " />
<path stroke="transparent" fill="#000000" transform="matrix(0.0833333 0 0 0.0833333 -215.208 -202)" d="M 5242.02,3765.32 L 5232.02,3759.55 L 5232.02,3748 L 5741.67,3453.77 L 5751.67,3459.54 L 5751.67,3471.09 L 5242.02,3765.32 Z " />
<path stroke="transparent" fill="#000000" transform="matrix(0.0833333 0 0 0.0833333 -215.208 -202)" d="M 5242.02,4365.34 L 5222.02,4353.79 L 5222.02,3765.32 L 5232.02,3759.55 L 5242.02,3765.32 L 5242.02,4365.34 Z " />
<path stroke="transparent" fill="#000000" transform="matrix(0.0833333 0 0 0.0833333 -215.208 -202)" d="M 4722.41,4665.34 L 4712.41,4659.57 L 4712.41,4648.02 L 5222.02,4353.79 L 5242.02,4365.34 L 4722.41,4665.34 Z " />
<path stroke="transparent" fill="#000000" transform="matrix(0.0833333 0 0 0.0833333 -215.208 -202)" d="M 4722.41,5265.36 L 4702.41,5253.81 L 4702.41,4665.34 L 4712.41,4659.57 L 4722.41,4665.34 L 4722.41,5265.36 Z " />
<path stroke="transparent" fill="#000000" transform="matrix(0.0833333 0 0 0.0833333 -215.208 -202)" d="M 4650.41,5218.01 L 4630.41,5218.01 L 4630.41,4701.14 L 4650.41,4701.14 L 4650.41,5218.01 Z " />
<path stroke="transparent" fill="#000000" transform="matrix(0.0833333 0 0 0.0833333 -215.208 -202)" d="M 4192.8,5571.14 L 4192.8,5548.04 L 4702.41,5253.81 L 4722.41,5265.36 L 4192.8,5571.14 Z " />
<path stroke="transparent" fill="#000000" transform="matrix(0.0833333 0 0 0.0833333 -215.208 -202)" d="M 3673.15,5271.13 L 3673.15,5259.58 L 3683.15,5253.81 L 4192.8,5548.04 L 4192.8,5571.14 L 3673.15,5271.13 Z " />
<path stroke="transparent" fill="#000000" transform="matrix(0.0833333 0 0 0.0833333 -215.208 -202)" d="M 3740.15,5226.67 L 3750.15,5209.35 L 4197.8,5467.78 L 4187.8,5485.11 L 3740.15,5226.67 Z " />
<path stroke="transparent" fill="#000000" transform="matrix(0.0833333 0 0 0.0833333 -215.208 -202)" d="M 3251.15,5514.77 L 3241.15,5497.45 L 3663.15,5253.81 L 3673.15,5259.58 L 3673.15,5271.13 L 3251.15,5514.77 Z " />
<path stroke="transparent" fill="#000000" transform="matrix(0.0833333 0 0 0.0833333 -215.208 -202)" d="M 3163.54,6159.6 L 3143.54,6159.6 L 3143.54,5679.42 L 3163.54,5679.42 L 3163.54,6159.6 Z " />
<path stroke="transparent" fill="#000000" transform="matrix(0.0833333 0 0 0.0833333 -215.208 -202)" d="M 3663.15,4665.34 L 3673.15,4659.57 L 3683.15,4665.34 L 3683.15,5253.81 L 3673.15,5259.58 L 3663.15,5253.81 L 3663.15,4665.34 Z " />
<path stroke="transparent" fill="#000000" transform="matrix(0.0833333 0 0 0.0833333 -215.208 -202)" d="M 3248.57,4425.98 L 3258.57,4408.66 L 3673.15,4648.02 L 3673.15,4659.57 L 3663.15,4665.34 L 3248.57,4425.98 Z " />
<path stroke="transparent" fill="#000000" transform="matrix(0.0833333 0 0 0.0833333 -215.208 -202)" d="M 2638.88,4668.23 L 2628.89,4650.91 L 3048.93,4408.41 L 3058.93,4425.73 L 2638.88,4668.23 Z " />
<path stroke="transparent" fill="#000000" transform="matrix(0.0833333 0 0 0.0833333 -215.208 -202)" d="M 4182.8,4353.79 L 4192.8,4359.56 L 4192.8,4371.11 L 3683.15,4665.34 L 3673.15,4659.57 L 3673.15,4648.02 L 4182.8,4353.79 Z " />
<path stroke="transparent" fill="#000000" transform="matrix(0.0833333 0 0 0.0833333 -215.208 -202)" d="M 4187.8,4434.05 L 4197.8,4451.37 L 3750.15,4709.8 L 3740.15,4692.48 L 4187.8,4434.05 Z " />
<path stroke="transparent" fill="#000000" transform="matrix(0.0833333 0 0 0.0833333 -215.208 -202)" d="M 4192.8,4371.11 L 4192.8,4359.56 L 4202.8,4353.79 L 4712.41,4648.02 L 4712.41,4659.57 L 4702.41,4665.34 L 4192.8,4371.11 Z " />
<path stroke="transparent" fill="#000000" transform="matrix(0.0833333 0 0 0.0833333 -215.208 -202)" d="M 4182.8,3753.78 L 4202.8,3765.32 L 4202.8,4353.79 L 4192.8,4359.56 L 4182.8,4353.79 L 4182.8,3753.78 Z " />
<path stroke="transparent" fill="#000000" transform="matrix(0.0833333 0 0 0.0833333 -215.208 -202)" d="M 4597.28,3514.47 L 4607.28,3531.79 L 4202.8,3765.32 L 4182.8,3753.78 L 4597.28,3514.47 Z " />
<path stroke="transparent" fill="#000000" transform="matrix(0.0833333 0 0 0.0833333 -215.208 -202)" d="M 4817.54,3531.79 L 4827.54,3514.47 L 5232.02,3748 L 5232.02,3759.55 L 5222.02,3765.32 L 4817.54,3531.79 Z " />
<path stroke="transparent" fill="#000000" transform="matrix(0.0833333 0 0 0.0833333 -215.208 -202)" d="M 4702.41,2853.76 L 4722.41,2865.31 L 4722.41,3356.88 L 4702.41,3356.88 L 4702.41,2853.76 Z " />
<path stroke="transparent" fill="#000000" transform="matrix(0.0833333 0 0 0.0833333 -215.208 -202)" d="M 5232.02,2548.02 L 5232.02,2571.11 L 4722.41,2865.31 L 4702.41,2853.76 L 5232.02,2548.02 Z " />
<path stroke="transparent" fill="#000000" transform="matrix(0.0833333 0 0 0.0833333 -215.208 -202)" d="M 5232.02,2571.11 L 5232.02,2548.02 L 5751.67,2847.99 L 5751.67,2859.53 L 5741.67,2865.31 L 5232.02,2571.11 Z " />
</svg>
