<?xml version="1.0" standalone="no" ?>
<!DOCTYPE svg PUBLIC "-//W3C//DTD SVG 1.1//EN" "http://www.w3.org/Graphics/SVG/1.1/DTD/svg11.dtd">
<svg width="547px" height="317px" viewBox="0 0 547 317" style="background-color: #ffffff00" xmlns="http://www.w3.org/2000/svg" xmlns:xlink="http://www.w3.org/1999/xlink" version="1.1" >
<text x="0" y="0" stroke="transparent" fill="#000000" transform="matrix(0.0833333 0 0 0.0833333 115.973 163.312)" style="font:normal normal normal 200px 'Arial'" >
HO</text>
<text x="0" y="0" stroke="transparent" fill="#000000" transform="matrix(0.0833333 0 0 0.0833333 214.607 313.314)" style="font:normal normal normal 200px 'Arial'" >
OH</text>
<text x="0" y="0" stroke="transparent" fill="#000000" transform="matrix(0.0833333 0 0 0.0833333 301.209 163.312)" style="font:normal normal normal 200px 'Arial'" >
O</text>
<text x="0" y="0" stroke="transparent" fill="#000000" transform="matrix(0.0833333 0 0 0.0833333 517.71 88.3135)" style="font:normal normal normal 200px 'Arial'" >
OH</text>
<text x="0" y="0" stroke="transparent" fill="#000000" transform="matrix(0.0833333 0 0 0.0833333 431.109 238.316)" style="font:normal normal normal 200px 'Arial'" >
O</text>
<text x="0" y="0" stroke="transparent" fill="#000000" transform="matrix(0.0833333 0 0 0.0833333 301.209 313.313)" style="font:normal normal normal 200px 'Arial'" >
O</text>
<path stroke="transparent" fill="#000000" transform="matrix(0.0833333 0 0 0.0833333 -167.25 -219)" d="M 4145.66,3059.98 L 4135.66,3042.66 L 4673.27,2732.26 L 4683.27,2749.58 L 4145.66,3059.98 Z " />
<path stroke="transparent" fill="#000000" transform="matrix(0.0833333 0 0 0.0833333 -167.25 -219)" d="M 4109.66,2997.62 L 4099.66,2980.3 L 4637.27,2669.91 L 4647.27,2687.23 L 4109.66,2997.62 Z " />
<path stroke="transparent" fill="#000000" transform="matrix(0.0833333 0 0 0.0833333 -167.25 -219)" d="M 3616.05,2718.42 L 3626.05,2701.1 L 4150.66,3003.97 L 4130.66,3015.52 L 3616.05,2718.42 Z " />
<path stroke="transparent" fill="#000000" transform="matrix(0.0833333 0 0 0.0833333 -167.25 -219)" d="M 4150.65,3603.96 L 4140.65,3609.73 L 4130.65,3603.96 L 4130.66,3015.52 L 4150.66,3003.97 L 4150.65,3603.96 Z " />
<path stroke="transparent" fill="#000000" transform="matrix(0.0833333 0 0 0.0833333 -167.25 -219)" d="M 3621.04,3921.28 L 3621.04,3898.19 L 4130.65,3603.96 L 4140.65,3609.73 L 4140.65,3621.28 L 3621.04,3921.28 Z " />
<path stroke="transparent" fill="#000000" transform="matrix(0.0833333 0 0 0.0833333 -167.25 -219)" d="M 3101.48,3621.26 L 3101.48,3598.17 L 3621.04,3898.19 L 3621.04,3921.28 L 3101.48,3621.26 Z " />
<path stroke="transparent" fill="#000000" transform="matrix(0.0833333 0 0 0.0833333 -167.25 -219)" d="M 2591.86,3915.49 L 2581.86,3909.72 L 2581.86,3898.17 L 3101.48,3598.17 L 3101.48,3621.26 L 2591.86,3915.49 Z " />
<path stroke="transparent" fill="#000000" transform="matrix(0.0833333 0 0 0.0833333 -167.25 -219)" d="M 2658.86,3959.95 L 2648.86,3942.63 L 3096.48,3684.2 L 3106.48,3701.52 L 2658.86,3959.95 Z " />
<path stroke="transparent" fill="#000000" transform="matrix(0.0833333 0 0 0.0833333 -167.25 -219)" d="M 2591.8,4509.73 L 2571.8,4509.73 L 2571.86,3915.49 L 2581.86,3909.72 L 2591.86,3915.49 L 2591.8,4509.73 Z " />
<path stroke="transparent" fill="#000000" transform="matrix(0.0833333 0 0 0.0833333 -167.25 -219)" d="M 2057.26,3618.39 L 2067.26,3601.07 L 2581.86,3898.17 L 2581.86,3909.72 L 2571.86,3915.49 L 2057.26,3618.39 Z " />
<path stroke="transparent" fill="#000000" transform="matrix(0.0833333 0 0 0.0833333 -167.25 -219)" d="M 4670.29,3904 L 4650.29,3915.55 L 4140.65,3621.28 L 4140.65,3609.73 L 4150.65,3603.96 L 4670.29,3904 Z " />
<path stroke="transparent" fill="#000000" transform="matrix(0.0833333 0 0 0.0833333 -167.25 -219)" d="M 4670.28,4503.99 L 4660.28,4509.76 L 4650.28,4503.99 L 4650.29,3915.55 L 4670.29,3904 L 4670.28,4503.99 Z " />
<path stroke="transparent" fill="#000000" transform="matrix(0.0833333 0 0 0.0833333 -167.25 -219)" d="M 4150.67,4815.53 L 4140.67,4809.76 L 4140.67,4798.21 L 4650.28,4503.99 L 4660.28,4509.76 L 4660.28,4521.31 L 4150.67,4815.53 Z " />
<path stroke="transparent" fill="#000000" transform="matrix(0.0833333 0 0 0.0833333 -167.25 -219)" d="M 4217.67,4859.99 L 4207.67,4842.67 L 4655.28,4584.24 L 4665.28,4601.56 L 4217.67,4859.99 Z " />
<path stroke="transparent" fill="#000000" transform="matrix(0.0833333 0 0 0.0833333 -167.25 -219)" d="M 3716.13,4576.16 L 3726.14,4558.84 L 4140.67,4798.21 L 4140.67,4809.76 L 4130.67,4815.53 L 3716.13,4576.16 Z " />
<path stroke="transparent" fill="#000000" transform="matrix(0.0833333 0 0 0.0833333 -167.25 -219)" d="M 4150.66,5403.97 L 4130.66,5415.52 L 4130.67,4815.53 L 4140.67,4809.76 L 4150.67,4815.53 L 4150.66,5403.97 Z " />
<path stroke="transparent" fill="#000000" transform="matrix(0.0833333 0 0 0.0833333 -167.25 -219)" d="M 4660.27,5698.19 L 4660.27,5709.73 L 4650.27,5715.51 L 4130.66,5415.52 L 4150.66,5403.97 L 4660.27,5698.19 Z " />
<path stroke="transparent" fill="#000000" transform="matrix(0.0833333 0 0 0.0833333 -167.25 -219)" d="M 4665.27,5617.94 L 4655.27,5635.26 L 4207.66,5376.84 L 4217.66,5359.52 L 4665.27,5617.94 Z " />
<path stroke="transparent" fill="#000000" transform="matrix(0.0833333 0 0 0.0833333 -167.25 -219)" d="M 4670.29,6204.61 L 4650.29,6204.61 L 4650.27,5715.51 L 4660.27,5709.73 L 4670.27,5715.51 L 4670.29,6204.61 Z " />
<path stroke="transparent" fill="#000000" transform="matrix(0.0833333 0 0 0.0833333 -167.25 -219)" d="M 5169.88,5403.96 L 5179.88,5409.73 L 5179.88,5421.28 L 4670.27,5715.51 L 4660.27,5709.73 L 4660.27,5698.19 L 5169.88,5403.96 Z " />
<path stroke="transparent" fill="#000000" transform="matrix(0.0833333 0 0 0.0833333 -167.25 -219)" d="M 5169.89,4815.52 L 5179.89,4809.75 L 5189.89,4815.52 L 5189.88,5403.96 L 5179.88,5409.73 L 5169.88,5403.96 L 5169.89,4815.52 Z " />
<path stroke="transparent" fill="#000000" transform="matrix(0.0833333 0 0 0.0833333 -167.25 -219)" d="M 5097.89,4851.31 L 5117.89,4851.31 L 5117.88,5368.16 L 5097.88,5368.16 L 5097.89,4851.31 Z " />
<path stroke="transparent" fill="#000000" transform="matrix(0.0833333 0 0 0.0833333 -167.25 -219)" d="M 5179.89,4798.2 L 5179.89,4809.75 L 5169.89,4815.52 L 4660.28,4521.31 L 4660.28,4509.76 L 4670.28,4503.99 L 5179.89,4798.2 Z " />
<path stroke="transparent" fill="#000000" transform="matrix(0.0833333 0 0 0.0833333 -167.25 -219)" d="M 5594.9,4558.59 L 5604.9,4575.91 L 5189.89,4815.52 L 5179.89,4809.75 L 5179.89,4798.2 L 5594.9,4558.59 Z " />
<path stroke="transparent" fill="#000000" transform="matrix(0.0833333 0 0 0.0833333 -167.25 -219)" d="M 6219.11,4798.19 L 6219.11,4809.73 L 6209.11,4815.51 L 5794.54,4576.16 L 5804.54,4558.84 L 6219.11,4798.19 Z " />
<path stroke="transparent" fill="#000000" transform="matrix(0.0833333 0 0 0.0833333 -167.25 -219)" d="M 6728.68,4503.99 L 6738.68,4509.76 L 6738.68,4521.31 L 6229.11,4815.51 L 6219.11,4809.73 L 6219.11,4798.19 L 6728.68,4503.99 Z " />
<path stroke="transparent" fill="#000000" transform="matrix(0.0833333 0 0 0.0833333 -167.25 -219)" d="M 6728.68,3904 L 6748.68,3915.55 L 6748.68,4503.99 L 6738.68,4509.76 L 6728.68,4503.99 L 6728.68,3904 Z " />
<path stroke="transparent" fill="#000000" transform="matrix(0.0833333 0 0 0.0833333 -167.25 -219)" d="M 6800.68,3951.34 L 6820.68,3951.34 L 6820.68,4468.2 L 6800.68,4468.2 L 6800.68,3951.34 Z " />
<path stroke="transparent" fill="#000000" transform="matrix(0.0833333 0 0 0.0833333 -167.25 -219)" d="M 7258.35,3598.2 L 7258.35,3621.29 L 6748.68,3915.55 L 6728.68,3904 L 7258.35,3598.2 Z " />
<path stroke="transparent" fill="#000000" transform="matrix(0.0833333 0 0 0.0833333 -167.25 -219)" d="M 7777.91,3898.22 L 7777.91,3909.76 L 7767.91,3915.54 L 7258.35,3621.29 L 7258.35,3598.2 L 7777.91,3898.22 Z " />
<path stroke="transparent" fill="#000000" transform="matrix(0.0833333 0 0 0.0833333 -167.25 -219)" d="M 7710.92,3942.67 L 7700.91,3959.99 L 7253.35,3701.54 L 7263.35,3684.22 L 7710.92,3942.67 Z " />
<path stroke="transparent" fill="#000000" transform="matrix(0.0833333 0 0 0.0833333 -167.25 -219)" d="M 8192.92,3658.61 L 8202.92,3675.93 L 7787.91,3915.54 L 7777.91,3909.76 L 7777.91,3898.22 L 8192.92,3658.61 Z " />
<path stroke="transparent" fill="#000000" transform="matrix(0.0833333 0 0 0.0833333 -167.25 -219)" d="M 7787.93,4515.57 L 7767.93,4504.03 L 7767.91,3915.54 L 7777.91,3909.76 L 7787.91,3915.54 L 7787.93,4515.57 Z " />
<path stroke="transparent" fill="#000000" transform="matrix(0.0833333 0 0 0.0833333 -167.25 -219)" d="M 7268.31,4815.58 L 7258.32,4809.8 L 7258.32,4798.25 L 7767.93,4504.03 L 7787.93,4515.57 L 7268.31,4815.58 Z " />
<path stroke="transparent" fill="#000000" transform="matrix(0.0833333 0 0 0.0833333 -167.25 -219)" d="M 7263.32,4735.32 L 7253.32,4718 L 7700.93,4459.57 L 7710.93,4476.89 L 7263.32,4735.32 Z " />
<path stroke="transparent" fill="#000000" transform="matrix(0.0833333 0 0 0.0833333 -167.25 -219)" d="M 7258.32,4798.25 L 7258.32,4809.8 L 7248.31,4815.58 L 6738.68,4521.31 L 6738.68,4509.76 L 6748.68,4503.99 L 7258.32,4798.25 Z " />
<path stroke="transparent" fill="#000000" transform="matrix(0.0833333 0 0 0.0833333 -167.25 -219)" d="M 7268.31,5304.62 L 7248.31,5304.62 L 7248.31,4815.58 L 7258.32,4809.8 L 7268.31,4815.58 L 7268.31,5304.62 Z " />
<path stroke="transparent" fill="#000000" transform="matrix(0.0833333 0 0 0.0833333 -167.25 -219)" d="M 6743.74,5718.42 L 6733.74,5701.1 L 7153.7,5458.63 L 7163.7,5475.96 L 6743.74,5718.42 Z " />
<path stroke="transparent" fill="#000000" transform="matrix(0.0833333 0 0 0.0833333 -167.25 -219)" d="M 6229.19,5415.52 L 6209.19,5403.97 L 6209.11,4815.51 L 6219.11,4809.73 L 6229.11,4815.51 L 6229.19,5415.52 Z " />
<path stroke="transparent" fill="#000000" transform="matrix(0.0833333 0 0 0.0833333 -167.25 -219)" d="M 5699.52,5721.32 L 5699.52,5698.23 L 6209.19,5403.97 L 6229.19,5415.52 L 5699.52,5721.32 Z " />
<path stroke="transparent" fill="#000000" transform="matrix(0.0833333 0 0 0.0833333 -167.25 -219)" d="M 5699.52,5698.23 L 5699.52,5721.32 L 5179.88,5421.28 L 5179.88,5409.73 L 5189.88,5403.96 L 5699.52,5698.23 Z " />
<path stroke="transparent" fill="#000000" transform="matrix(0.0833333 0 0 0.0833333 -167.25 -219)" d="M 5745.51,6204.59 L 5725.51,6204.59 L 5725.52,5688.99 L 5745.52,5688.99 L 5745.51,6204.59 Z " />
<path stroke="transparent" fill="#000000" transform="matrix(0.0833333 0 0 0.0833333 -167.25 -219)" d="M 5673.51,6204.59 L 5653.51,6204.59 L 5653.52,5688.99 L 5673.52,5688.99 L 5673.51,6204.59 Z " />
</svg>
