<?xml version="1.0" standalone="no" ?>
<!DOCTYPE svg PUBLIC "-//W3C//DTD SVG 1.1//EN" "http://www.w3.org/Graphics/SVG/1.1/DTD/svg11.dtd">
<svg width="320px" height="323px" viewBox="0 0 320 323" style="background-color: #ffffff00" xmlns="http://www.w3.org/2000/svg" xmlns:xlink="http://www.w3.org/1999/xlink" version="1.1" >
<text x="0" y="0" stroke="transparent" fill="#000000" transform="matrix(0.0833333 0 0 0.0833333 258.013 249.228)" style="font:normal normal normal 200px 'Arial'" >
O</text>
<text x="0" y="0" stroke="transparent" fill="#000000" transform="matrix(0.0833333 0 0 0.0833333 302.714 160.291)" style="font:normal normal normal 200px 'Arial'" >
O</text>
<text x="0" y="0" stroke="transparent" fill="#000000" transform="matrix(0.0833333 0 0 0.0833333 269.098 56.8334)" style="font:normal normal normal 200px 'Arial'" >
O</text>
<text x="0" y="0" stroke="transparent" fill="#000000" transform="matrix(0.0833333 0 0 0.0833333 160.316 56.8334)" style="font:normal normal normal 200px 'Arial'" >
O</text>
<text x="0" y="0" stroke="transparent" fill="#000000" transform="matrix(0.0833333 0 0 0.0833333 126.705 160.291)" style="font:normal normal normal 200px 'Arial'" >
O</text>
<path stroke="transparent" fill="#000000" transform="matrix(0.0833333 0 0 0.0833333 -276.208 -198)" d="M 6586.28,5243.92 L 6576.28,5226.6 L 7003.27,4980.06 L 7013.27,4997.38 L 6586.28,5243.92 Z " />
<path stroke="transparent" fill="#000000" transform="matrix(0.0833333 0 0 0.0833333 -276.208 -198)" d="M 5968.99,5000.27 L 5968.99,4988.72 L 5978.99,4982.95 L 6401.04,5226.6 L 6391.04,5243.92 L 5968.99,5000.27 Z " />
<path stroke="transparent" fill="#000000" transform="matrix(0.0833333 0 0 0.0833333 -276.208 -198)" d="M 5449.38,5300.28 L 5449.38,5277.18 L 5958.99,4982.95 L 5968.99,4988.72 L 5968.99,5000.27 L 5449.38,5300.28 Z " />
<path stroke="transparent" fill="#000000" transform="matrix(0.0833333 0 0 0.0833333 -276.208 -198)" d="M 4929.76,5000.27 L 4929.76,4977.18 L 5449.38,5277.18 L 5449.38,5300.28 L 4929.76,5000.27 Z " />
<path stroke="transparent" fill="#000000" transform="matrix(0.0833333 0 0 0.0833333 -276.208 -198)" d="M 4924.76,5080.52 L 4934.76,5063.2 L 5418.37,5342.42 L 5408.37,5359.74 L 4924.76,5080.52 Z " />
<path stroke="transparent" fill="#000000" transform="matrix(0.0833333 0 0 0.0833333 -276.208 -198)" d="M 4420.15,5294.5 L 4410.15,5288.73 L 4410.15,5277.18 L 4929.76,4977.18 L 4929.76,5000.27 L 4420.15,5294.5 Z " />
<path stroke="transparent" fill="#000000" transform="matrix(0.0833333 0 0 0.0833333 -276.208 -198)" d="M 3890.54,5000.27 L 3890.54,4977.18 L 4410.15,5277.18 L 4410.15,5288.73 L 4400.15,5294.5 L 3890.54,5000.27 Z " />
<path stroke="transparent" fill="#000000" transform="matrix(0.0833333 0 0 0.0833333 -276.208 -198)" d="M 3885.54,5080.52 L 3895.54,5063.2 L 4343.15,5321.64 L 4333.15,5338.96 L 3885.54,5080.52 Z " />
<path stroke="transparent" fill="#000000" transform="matrix(0.0833333 0 0 0.0833333 -276.208 -198)" d="M 3380.93,5294.45 L 3360.93,5282.9 L 3890.54,4977.18 L 3890.54,5000.27 L 3380.93,5294.45 Z " />
<path stroke="transparent" fill="#000000" transform="matrix(0.0833333 0 0 0.0833333 -276.208 -198)" d="M 3380.93,5882.91 L 3360.93,5894.46 L 3360.93,5282.9 L 3380.93,5294.45 L 3380.93,5882.91 Z " />
<path stroke="transparent" fill="#000000" transform="matrix(0.0833333 0 0 0.0833333 -276.208 -198)" d="M 3452.93,5847.11 L 3432.93,5847.11 L 3432.93,5330.24 L 3452.93,5330.24 L 3452.93,5847.11 Z " />
<path stroke="transparent" fill="#000000" transform="matrix(0.0833333 0 0 0.0833333 -276.208 -198)" d="M 3890.54,6177.14 L 3890.54,6200.24 L 3360.93,5894.46 L 3380.93,5882.91 L 3890.54,6177.14 Z " />
<path stroke="transparent" fill="#000000" transform="matrix(0.0833333 0 0 0.0833333 -276.208 -198)" d="M 4400.15,5882.91 L 4420.15,5894.46 L 3890.54,6200.24 L 3890.54,6177.14 L 4400.15,5882.91 Z " />
<path stroke="transparent" fill="#000000" transform="matrix(0.0833333 0 0 0.0833333 -276.208 -198)" d="M 4333.15,5838.46 L 4343.15,5855.78 L 3895.54,6114.21 L 3885.54,6096.89 L 4333.15,5838.46 Z " />
<path stroke="transparent" fill="#000000" transform="matrix(0.0833333 0 0 0.0833333 -276.208 -198)" d="M 4420.15,5894.46 L 4400.15,5882.91 L 4400.15,5294.5 L 4410.15,5288.73 L 4420.15,5294.5 L 4420.15,5894.46 Z " />
<path stroke="transparent" fill="#000000" transform="matrix(0.0833333 0 0 0.0833333 -276.208 -198)" d="M 5958.99,4393.81 L 5968.99,4388.71 L 5978.99,4393.81 L 5978.99,4982.95 L 5968.99,4988.72 L 5958.99,4982.95 L 5958.99,4393.81 Z " />
<path stroke="transparent" fill="#000000" transform="matrix(0.0833333 0 0 0.0833333 -276.208 -198)" d="M 5886.98,4425.4 L 5906.98,4425.4 L 5906.98,4947.16 L 5886.98,4947.16 L 5886.98,4425.4 Z " />
<path stroke="transparent" fill="#000000" transform="matrix(0.0833333 0 0 0.0833333 -276.208 -198)" d="M 6442.64,4032.26 L 6466.15,4039.9 L 5978.99,4393.81 L 5968.99,4388.71 L 5968.99,4376.35 L 6442.64,4032.26 Z " />
<path stroke="transparent" fill="#000000" transform="matrix(0.0833333 0 0 0.0833333 -276.208 -198)" d="M 6937.7,4144.73 L 6931.52,4163.75 L 6437.56,4003.27 L 6443.74,3984.25 L 6937.7,4144.73 Z " />
<path stroke="transparent" fill="#000000" transform="matrix(0.0833333 0 0 0.0833333 -276.208 -198)" d="M 6915.45,4213.21 L 6909.27,4232.23 L 6415.3,4071.75 L 6421.48,4052.73 L 6915.45,4213.21 Z " />
<path stroke="transparent" fill="#000000" transform="matrix(0.0833333 0 0 0.0833333 -276.208 -198)" d="M 6261.73,3475.41 L 6268.99,3465.41 L 6280.08,3467.17 L 6466.15,4039.9 L 6442.64,4032.26 L 6261.73,3475.41 Z " />
<path stroke="transparent" fill="#000000" transform="matrix(0.0833333 0 0 0.0833333 -276.208 -198)" d="M 6543.05,3071.21 L 6559.23,3082.97 L 6280.08,3467.17 L 6268.99,3465.41 L 6263.9,3455.41 L 6543.05,3071.21 Z " />
<path stroke="transparent" fill="#000000" transform="matrix(0.0833333 0 0 0.0833333 -276.208 -198)" d="M 6368.52,2435.9 L 6386.79,2427.76 L 6587.56,2878.77 L 6569.29,2886.91 L 6368.52,2435.9 Z " />
<path stroke="transparent" fill="#000000" transform="matrix(0.0833333 0 0 0.0833333 -276.208 -198)" d="M 5676.25,3475.41 L 5668.98,3465.41 L 5674.08,3455.41 L 6263.9,3455.41 L 6268.99,3465.41 L 6261.73,3475.41 L 5676.25,3475.41 Z " />
<path stroke="transparent" fill="#000000" transform="matrix(0.0833333 0 0 0.0833333 -276.208 -198)" d="M 5721.29,3547.41 L 5721.29,3527.41 L 6216.68,3527.41 L 6216.68,3547.41 L 5721.29,3547.41 Z " />
<path stroke="transparent" fill="#000000" transform="matrix(0.0833333 0 0 0.0833333 -276.208 -198)" d="M 5378.96,3083.26 L 5395.14,3071.51 L 5674.08,3455.41 L 5668.98,3465.41 L 5657.89,3467.17 L 5378.96,3083.26 Z " />
<path stroke="transparent" fill="#000000" transform="matrix(0.0833333 0 0 0.0833333 -276.208 -198)" d="M 5495.33,4032.26 L 5471.82,4039.9 L 5657.89,3467.17 L 5668.98,3465.41 L 5676.25,3475.41 L 5495.33,4032.26 Z " />
<path stroke="transparent" fill="#000000" transform="matrix(0.0833333 0 0 0.0833333 -276.208 -198)" d="M 5471.82,4039.9 L 5495.33,4032.26 L 5968.99,4376.35 L 5968.99,4388.71 L 5958.99,4393.81 L 5471.82,4039.9 Z " />
<path stroke="transparent" fill="#000000" transform="matrix(0.0833333 0 0 0.0833333 -276.208 -198)" d="M 5029.04,4232.14 L 5022.86,4213.12 L 5516.49,4052.73 L 5522.67,4071.75 L 5029.04,4232.14 Z " />
<path stroke="transparent" fill="#000000" transform="matrix(0.0833333 0 0 0.0833333 -276.208 -198)" d="M 5006.79,4163.67 L 5000.61,4144.64 L 5494.23,3984.25 L 5500.41,4003.28 L 5006.79,4163.67 Z " />
<path stroke="transparent" fill="#000000" transform="matrix(0.0833333 0 0 0.0833333 -276.208 -198)" d="M 5551.2,2427.81 L 5569.47,2435.94 L 5368.69,2886.91 L 5350.41,2878.77 L 5551.2,2427.81 Z " />
</svg>
