<?xml version="1.0" standalone="no" ?>
<!DOCTYPE svg PUBLIC "-//W3C//DTD SVG 1.1//EN" "http://www.w3.org/Graphics/SVG/1.1/DTD/svg11.dtd">
<svg width="903px" height="521px" viewBox="0 0 903 521" style="background-color: #ffffff00" xmlns="http://www.w3.org/2000/svg" xmlns:xlink="http://www.w3.org/1999/xlink" version="1.1" >
<text x="0" y="0" stroke="transparent" fill="#000000" transform="matrix(0.0833333 0 0 0.0833333 848.942 347.779)" style="font:normal normal normal 200px 'Arial'" >
O</text>
<text x="0" y="0" stroke="transparent" fill="#000000" transform="matrix(0.0833333 0 0 0.0833333 589.128 297.778)" style="font:normal normal normal 200px 'Arial'" >
O</text>
<text x="0" y="0" stroke="transparent" fill="#000000" transform="matrix(0.0833333 0 0 0.0833333 545.827 372.779)" style="font:normal normal normal 200px 'Arial'" >
O</text>
<text x="0" y="0" stroke="transparent" fill="#000000" transform="matrix(0.0833333 0 0 0.0833333 415.925 347.779)" style="font:normal normal normal 200px 'Arial'" >
O</text>
<text x="0" y="0" stroke="transparent" fill="#000000" transform="matrix(0.0833333 0 0 0.0833333 329.324 347.779)" style="font:normal normal normal 200px 'Arial'" >
O</text>
<text x="0" y="0" stroke="transparent" fill="#000000" transform="matrix(0.0833333 0 0 0.0833333 325.339 295.618)" style="font:normal normal normal 200px 'Arial'" >
OH</text>
<text x="0" y="0" stroke="transparent" fill="#000000" transform="matrix(0.0833333 0 0 0.0833333 280.793 422.505)" style="font:normal normal normal 200px 'Arial'" >
O</text>
<text x="0" y="0" stroke="transparent" fill="#000000" transform="matrix(0.0833333 0 0 0.0833333 149.785 483.806)" style="font:normal normal normal 200px 'Arial'" >
HO</text>
<text x="0" y="0" stroke="transparent" fill="#000000" transform="matrix(0.0833333 0 0 0.0833333 145.125 384.369)" style="font:normal normal normal 200px 'Arial'" >
HO</text>
<text x="0" y="0" stroke="transparent" fill="#000000" transform="matrix(0.0833333 0 0 0.0833333 229.947 303.538)" style="font:normal normal normal 200px 'Arial'" >
O</text>
<text x="0" y="0" stroke="transparent" fill="#000000" transform="matrix(0.0833333 0 0 0.0833333 145.236 321.543)" style="font:normal normal normal 200px 'Arial'" >
O</text>
<text x="0" y="0" stroke="transparent" fill="#000000" transform="matrix(0.0833333 0 0 0.0833333 8.54361 95.0099)" style="font:normal normal normal 200px 'Arial'" >
O</text>
<text x="0" y="0" stroke="transparent" fill="#000000" transform="matrix(0.0833333 0 0 0.0833333 70.8236 28.0939)" style="font:normal normal normal 200px 'Arial'" >
HO</text>
<text x="0" y="0" stroke="transparent" fill="#000000" transform="matrix(0.0833333 0 0 0.0833333 177.966 58.9944)" style="font:normal normal normal 200px 'Arial'" >
O</text>
<text x="0" y="0" stroke="transparent" fill="#000000" transform="matrix(0.0833333 0 0 0.0833333 317.288 447.775)" style="font:normal normal normal 200px 'Arial'" >
HO</text>
<text x="0" y="0" stroke="transparent" fill="#000000" transform="matrix(0.0833333 0 0 0.0833333 415.925 497.776)" style="font:normal normal normal 200px 'Arial'" >
OH</text>
<text x="0" y="0" stroke="transparent" fill="#000000" transform="matrix(0.0833333 0 0 0.0833333 502.526 447.78)" style="font:normal normal normal 200px 'Arial'" >
OH</text>
<text x="0" y="0" stroke="transparent" fill="#000000" transform="matrix(0.0833333 0 0 0.0833333 762.335 497.781)" style="font:normal normal normal 200px 'Arial'" >
O</text>
<text x="0" y="0" stroke="transparent" fill="#000000" transform="matrix(0.0833333 0 0 0.0833333 848.942 447.78)" style="font:normal normal normal 200px 'Arial'" >
OH</text>
<path stroke="transparent" fill="#000000" transform="matrix(0.0833333 0 0 0.0833333 -21.1667 -106)" d="M 10614.3,5433.76 L 10624.3,5416.44 L 11043.9,5658.69 L 11033.9,5676.01 L 10614.3,5433.76 Z " />
<path stroke="transparent" fill="#000000" transform="matrix(0.0833333 0 0 0.0833333 -21.1667 -106)" d="M 10009.7,5673.12 L 9999.69,5667.35 L 9999.69,5655.8 L 10414.7,5416.19 L 10424.7,5433.51 L 10009.7,5673.12 Z " />
<path stroke="transparent" fill="#000000" transform="matrix(0.0833333 0 0 0.0833333 -21.1667 -106)" d="M 9480.03,5378.89 L 9480.03,5355.8 L 9999.69,5655.8 L 9999.69,5667.35 L 9989.69,5673.13 L 9480.03,5378.89 Z " />
<path stroke="transparent" fill="#000000" transform="matrix(0.0833333 0 0 0.0833333 -21.1667 -106)" d="M 9475.03,5459.15 L 9485.03,5441.83 L 9932.69,5700.27 L 9922.69,5717.59 L 9475.03,5459.15 Z " />
<path stroke="transparent" fill="#000000" transform="matrix(0.0833333 0 0 0.0833333 -21.1667 -106)" d="M 8970.42,5673.12 L 8960.42,5667.35 L 8960.42,5655.8 L 9480.03,5355.8 L 9480.03,5378.89 L 8970.42,5673.12 Z " />
<path stroke="transparent" fill="#000000" transform="matrix(0.0833333 0 0 0.0833333 -21.1667 -106)" d="M 8440.81,5378.89 L 8440.81,5355.8 L 8960.42,5655.8 L 8960.42,5667.35 L 8950.42,5673.12 L 8440.81,5378.89 Z " />
<path stroke="transparent" fill="#000000" transform="matrix(0.0833333 0 0 0.0833333 -21.1667 -106)" d="M 7921.2,5678.9 L 7921.2,5655.8 L 8440.81,5355.8 L 8440.81,5378.89 L 7921.2,5678.9 Z " />
<path stroke="transparent" fill="#000000" transform="matrix(0.0833333 0 0 0.0833333 -21.1667 -106)" d="M 7962.2,5738.36 L 7952.2,5721.04 L 8435.81,5441.83 L 8445.81,5459.15 L 7962.2,5738.36 Z " />
<path stroke="transparent" fill="#000000" transform="matrix(0.0833333 0 0 0.0833333 -21.1667 -106)" d="M 7401.53,5378.89 L 7401.53,5355.8 L 7921.2,5655.8 L 7921.2,5678.9 L 7401.53,5378.89 Z " />
<path stroke="transparent" fill="#000000" transform="matrix(0.0833333 0 0 0.0833333 -21.1667 -106)" d="M 7355.53,4887.17 L 7375.53,4887.17 L 7375.53,5388.13 L 7355.53,5388.13 L 7355.53,4887.17 Z " />
<path stroke="transparent" fill="#000000" transform="matrix(0.0833333 0 0 0.0833333 -21.1667 -106)" d="M 7427.53,4887.17 L 7447.53,4887.17 L 7447.53,5388.13 L 7427.53,5388.13 L 7427.53,4887.17 Z " />
<path stroke="transparent" fill="#000000" transform="matrix(0.0833333 0 0 0.0833333 -21.1667 -106)" d="M 6979.54,5622.54 L 6969.54,5605.22 L 7401.53,5355.8 L 7401.53,5378.89 L 6979.54,5622.54 Z " />
<path stroke="transparent" fill="#000000" transform="matrix(0.0833333 0 0 0.0833333 -21.1667 -106)" d="M 6357.32,5376.01 L 6367.32,5358.69 L 6794.31,5605.22 L 6784.31,5622.54 L 6357.32,5376.01 Z " />
<path stroke="transparent" fill="#000000" transform="matrix(0.0833333 0 0 0.0833333 -21.1667 -106)" d="M 6285.47,5342.43 L 6345.47,5446.35 L 6327.14,5454.59 L 6269.17,5354.19 L 6285.47,5342.43 Z " />
<path stroke="transparent" fill="#000000" transform="matrix(0.0833333 0 0 0.0833333 -21.1667 -106)" d="M 6237.4,5377.11 L 6291.4,5470.65 L 6273.06,5478.89 L 6221.09,5388.87 L 6237.4,5377.11 Z " />
<path stroke="transparent" fill="#000000" transform="matrix(0.0833333 0 0 0.0833333 -21.1667 -106)" d="M 6189.32,5411.79 L 6237.33,5494.95 L 6218.99,5503.19 L 6173.01,5423.56 L 6189.32,5411.79 Z " />
<path stroke="transparent" fill="#000000" transform="matrix(0.0833333 0 0 0.0833333 -21.1667 -106)" d="M 6141.24,5446.48 L 6183.25,5519.24 L 6164.92,5527.48 L 6124.94,5458.24 L 6141.24,5446.48 Z " />
<path stroke="transparent" fill="#000000" transform="matrix(0.0833333 0 0 0.0833333 -21.1667 -106)" d="M 6093.16,5481.16 L 6129.18,5543.54 L 6110.84,5551.78 L 6076.86,5492.92 L 6093.16,5481.16 Z " />
<path stroke="transparent" fill="#000000" transform="matrix(0.0833333 0 0 0.0833333 -21.1667 -106)" d="M 6045.09,5515.84 L 6075.11,5567.84 L 6056.77,5576.08 L 6028.78,5527.6 L 6045.09,5515.84 Z " />
<path stroke="transparent" fill="#000000" transform="matrix(0.0833333 0 0 0.0833333 -21.1667 -106)" d="M 5997.01,5550.52 L 6021.03,5592.13 L 6002.7,5600.37 L 5980.71,5562.28 L 5997.01,5550.52 Z " />
<path stroke="transparent" fill="#000000" transform="matrix(0.0833333 0 0 0.0833333 -21.1667 -106)" d="M 5948.93,5585.2 L 5966.96,5616.43 L 5948.62,5624.67 L 5932.63,5596.96 L 5948.93,5585.2 Z " />
<path stroke="transparent" fill="#000000" transform="matrix(0.0833333 0 0 0.0833333 -21.1667 -106)" d="M 5900.85,5619.88 L 5912.89,5640.73 L 5894.55,5648.97 L 5884.55,5631.65 L 5900.85,5619.88 Z " />
<path stroke="transparent" fill="#000000" transform="matrix(0.0833333 0 0 0.0833333 -21.1667 -106)" d="M 5418.14,5433.76 L 5428.14,5416.44 L 5852.71,5661.58 L 5832.71,5673.12 L 5418.14,5433.76 Z " />
<path stroke="transparent" fill="#000000" transform="matrix(0.0833333 0 0 0.0833333 -21.1667 -106)" d="M 5218.49,5416.18 L 5228.49,5433.51 L 4813.49,5673.07 L 4803.49,5667.29 L 4804.05,5655.42 L 5218.49,5416.18 Z " />
<path stroke="transparent" fill="#000000" transform="matrix(0.0833333 0 0 0.0833333 -21.1667 -106)" d="M 4353.93,5477.06 L 4413.92,5373.13 L 4804.05,5655.42 L 4803.49,5667.29 L 4793.49,5673.72 L 4353.93,5477.06 Z " />
<path stroke="transparent" fill="#000000" transform="matrix(0.0833333 0 0 0.0833333 -21.1667 -106)" d="M 4154.28,5372.87 L 4214.27,5476.81 L 4195.79,5484.79 L 4138.12,5384.88 L 4154.28,5372.87 Z " />
<path stroke="transparent" fill="#000000" transform="matrix(0.0833333 0 0 0.0833333 -21.1667 -106)" d="M 4106.83,5408.13 L 4160.01,5500.26 L 4141.53,5508.25 L 4090.67,5420.13 L 4106.83,5408.13 Z " />
<path stroke="transparent" fill="#000000" transform="matrix(0.0833333 0 0 0.0833333 -21.1667 -106)" d="M 4059.39,5443.38 L 4105.75,5523.71 L 4087.27,5531.7 L 4043.22,5455.38 L 4059.39,5443.38 Z " />
<path stroke="transparent" fill="#000000" transform="matrix(0.0833333 0 0 0.0833333 -21.1667 -106)" d="M 4011.94,5478.63 L 4051.5,5547.16 L 4033.01,5555.15 L 3995.78,5490.63 L 4011.94,5478.63 Z " />
<path stroke="transparent" fill="#000000" transform="matrix(0.0833333 0 0 0.0833333 -21.1667 -106)" d="M 3964.49,5513.88 L 3997.24,5570.61 L 3978.76,5578.6 L 3948.33,5525.88 L 3964.49,5513.88 Z " />
<path stroke="transparent" fill="#000000" transform="matrix(0.0833333 0 0 0.0833333 -21.1667 -106)" d="M 3917.04,5549.13 L 3942.98,5594.07 L 3924.5,5602.05 L 3900.88,5561.13 L 3917.04,5549.13 Z " />
<path stroke="transparent" fill="#000000" transform="matrix(0.0833333 0 0 0.0833333 -21.1667 -106)" d="M 3869.6,5584.38 L 3888.72,5617.52 L 3870.24,5625.51 L 3853.43,5596.39 L 3869.6,5584.38 Z " />
<path stroke="transparent" fill="#000000" transform="matrix(0.0833333 0 0 0.0833333 -21.1667 -106)" d="M 3822.15,5619.63 L 3834.47,5640.97 L 3815.98,5648.96 L 3805.99,5631.64 L 3822.15,5619.63 Z " />
<path stroke="transparent" fill="#000000" transform="matrix(0.0833333 0 0 0.0833333 -21.1667 -106)" d="M 3722.55,5062.94 L 3743.12,5073.42 L 3774.24,5667.55 L 3764.22,5667.29 L 3753.38,5651.52 L 3722.55,5062.94 Z " />
<path stroke="transparent" fill="#000000" transform="matrix(0.0833333 0 0 0.0833333 -21.1667 -106)" d="M 4133.55,4796.06 L 4144.44,4812.84 L 3743.12,5073.42 L 3722.55,5062.94 L 4133.55,4796.06 Z " />
<path stroke="transparent" fill="#000000" transform="matrix(0.0833333 0 0 0.0833333 -21.1667 -106)" d="M 3722.41,6160.87 L 3702.52,6158.78 L 3753.51,5673.47 L 3764.22,5667.29 L 3774.16,5668.34 L 3722.41,6160.87 Z " />
<path stroke="transparent" fill="#000000" transform="matrix(0.0833333 0 0 0.0833333 -21.1667 -106)" d="M 3591.3,6277.26 L 3595.46,6296.83 L 3109.62,6400.09 L 3119.67,6377.51 L 3591.3,6277.26 Z " />
<path stroke="transparent" fill="#000000" transform="matrix(0.0833333 0 0 0.0833333 -21.1667 -106)" d="M 2947.38,6911.91 L 2837.76,6863.09 L 2847.75,6845.65 L 2953.66,6892.81 L 2947.38,6911.91 Z " />
<path stroke="transparent" fill="#000000" transform="matrix(0.0833333 0 0 0.0833333 -21.1667 -106)" d="M 2965.89,6855.59 L 2867.22,6811.65 L 2877.22,6794.21 L 2972.17,6836.49 L 2965.89,6855.59 Z " />
<path stroke="transparent" fill="#000000" transform="matrix(0.0833333 0 0 0.0833333 -21.1667 -106)" d="M 2984.41,6799.28 L 2896.69,6760.22 L 2906.69,6742.77 L 2990.69,6780.18 L 2984.41,6799.28 Z " />
<path stroke="transparent" fill="#000000" transform="matrix(0.0833333 0 0 0.0833333 -21.1667 -106)" d="M 3002.92,6742.96 L 2926.16,6708.78 L 2936.16,6691.34 L 3009.2,6723.86 L 3002.92,6742.96 Z " />
<path stroke="transparent" fill="#000000" transform="matrix(0.0833333 0 0 0.0833333 -21.1667 -106)" d="M 3021.44,6686.64 L 2955.63,6657.34 L 2965.63,6639.9 L 3027.72,6667.55 L 3021.44,6686.64 Z " />
<path stroke="transparent" fill="#000000" transform="matrix(0.0833333 0 0 0.0833333 -21.1667 -106)" d="M 3039.95,6630.33 L 2985.1,6605.9 L 2995.1,6588.46 L 3046.23,6611.23 L 3039.95,6630.33 Z " />
<path stroke="transparent" fill="#000000" transform="matrix(0.0833333 0 0 0.0833333 -21.1667 -106)" d="M 3058.47,6574.01 L 3014.57,6554.47 L 3024.57,6537.02 L 3064.75,6554.91 L 3058.47,6574.01 Z " />
<path stroke="transparent" fill="#000000" transform="matrix(0.0833333 0 0 0.0833333 -21.1667 -106)" d="M 3076.98,6517.7 L 3044.04,6503.03 L 3054.04,6485.58 L 3083.26,6498.6 L 3076.98,6517.7 Z " />
<path stroke="transparent" fill="#000000" transform="matrix(0.0833333 0 0 0.0833333 -21.1667 -106)" d="M 3095.5,6461.38 L 3073.51,6451.59 L 3083.51,6434.15 L 3101.78,6442.28 L 3095.5,6461.38 Z " />
<path stroke="transparent" fill="#000000" transform="matrix(0.0833333 0 0 0.0833333 -21.1667 -106)" d="M 2382.49,6998.3 L 2380.4,6978.41 L 2869.52,6926.97 L 2871.61,6946.86 L 2382.49,6998.3 Z " />
<path stroke="transparent" fill="#000000" transform="matrix(0.0833333 0 0 0.0833333 -21.1667 -106)" d="M 3119.67,6377.51 L 3109.62,6400.09 L 2808.83,5879.12 L 2814.64,5869.19 L 2826.93,5870.49 L 3119.67,6377.51 Z " />
<path stroke="transparent" fill="#000000" transform="matrix(0.0833333 0 0 0.0833333 -21.1667 -106)" d="M 2319.25,5877.42 L 2331.8,5758.08 L 2811.02,5858.27 L 2814.64,5869.19 L 2808.83,5879.12 L 2319.25,5877.42 Z " />
<path stroke="transparent" fill="#000000" transform="matrix(0.0833333 0 0 0.0833333 -21.1667 -106)" d="M 2826.93,5870.49 L 2814.64,5869.19 L 2811.02,5858.27 L 3213.54,5411.18 L 3218.68,5435.36 L 2826.93,5870.49 Z " />
<path stroke="transparent" fill="#000000" transform="matrix(0.0833333 0 0 0.0833333 -21.1667 -106)" d="M 3218.68,5435.36 L 3213.54,5411.18 L 3753.38,5651.52 L 3764.22,5667.29 L 3753.51,5673.47 L 3218.68,5435.36 Z " />
<path stroke="transparent" fill="#000000" transform="matrix(0.0833333 0 0 0.0833333 -21.1667 -106)" d="M 3058.05,4968.31 L 3175.43,4943.35 L 3177.28,4963.41 L 3064.52,4987.38 L 3058.05,4968.31 Z " />
<path stroke="transparent" fill="#000000" transform="matrix(0.0833333 0 0 0.0833333 -21.1667 -106)" d="M 3076.7,5023.31 L 3180.77,5001.19 L 3182.62,5021.25 L 3083.17,5042.39 L 3076.7,5023.31 Z " />
<path stroke="transparent" fill="#000000" transform="matrix(0.0833333 0 0 0.0833333 -21.1667 -106)" d="M 3095.35,5078.32 L 3186.1,5059.03 L 3187.95,5079.08 L 3101.82,5097.39 L 3095.35,5078.32 Z " />
<path stroke="transparent" fill="#000000" transform="matrix(0.0833333 0 0 0.0833333 -21.1667 -106)" d="M 3114.01,5133.33 L 3191.44,5116.87 L 3193.29,5136.92 L 3120.47,5152.4 L 3114.01,5133.33 Z " />
<path stroke="transparent" fill="#000000" transform="matrix(0.0833333 0 0 0.0833333 -21.1667 -106)" d="M 3132.66,5188.34 L 3196.78,5174.7 L 3198.63,5194.76 L 3139.12,5207.41 L 3132.66,5188.34 Z " />
<path stroke="transparent" fill="#000000" transform="matrix(0.0833333 0 0 0.0833333 -21.1667 -106)" d="M 3151.31,5243.34 L 3202.11,5232.54 L 3203.97,5252.6 L 3157.77,5262.41 L 3151.31,5243.34 Z " />
<path stroke="transparent" fill="#000000" transform="matrix(0.0833333 0 0 0.0833333 -21.1667 -106)" d="M 3169.96,5298.35 L 3207.45,5290.38 L 3209.3,5310.43 L 3176.43,5317.42 L 3169.96,5298.35 Z " />
<path stroke="transparent" fill="#000000" transform="matrix(0.0833333 0 0 0.0833333 -21.1667 -106)" d="M 3188.61,5353.36 L 3212.79,5348.22 L 3214.64,5368.27 L 3195.08,5372.43 L 3188.61,5353.36 Z " />
<path stroke="transparent" fill="#000000" transform="matrix(0.0833333 0 0 0.0833333 -21.1667 -106)" d="M 2512.11,4658.72 L 2529.28,4643.27 L 2992.87,4793.93 L 2986.69,4812.95 L 2512.11,4658.72 Z " />
<path stroke="transparent" fill="#000000" transform="matrix(0.0833333 0 0 0.0833333 -21.1667 -106)" d="M 2185.02,5015.2 L 2171.63,5000.33 L 2553.54,4656.41 L 2566.92,4671.27 L 2185.02,5015.2 Z " />
<path stroke="transparent" fill="#000000" transform="matrix(0.0833333 0 0 0.0833333 -21.1667 -106)" d="M 2136.83,4961.69 L 2123.45,4946.83 L 2505.36,4602.9 L 2518.74,4617.76 L 2136.83,4961.69 Z " />
<path stroke="transparent" fill="#000000" transform="matrix(0.0833333 0 0 0.0833333 -21.1667 -106)" d="M 2387.37,4071.85 L 2404.54,4056.4 L 2529.28,4643.27 L 2512.11,4658.72 L 2387.37,4071.85 Z " />
<path stroke="transparent" fill="#000000" transform="matrix(0.0833333 0 0 0.0833333 -21.1667 -106)" d="M 1816.76,3886.45 L 1833.93,3871 L 2404.54,4056.4 L 2387.37,4071.85 L 1816.76,3886.45 Z " />
<path stroke="transparent" fill="#000000" transform="matrix(0.0833333 0 0 0.0833333 -21.1667 -106)" d="M 1800.01,3956.71 L 1806.19,3937.69 L 2337.26,4110.24 L 2331.08,4129.26 L 1800.01,3956.71 Z " />
<path stroke="transparent" fill="#000000" transform="matrix(0.0833333 0 0 0.0833333 -21.1667 -106)" d="M 1692.02,3299.52 L 1700.6,3291.79 L 1711.59,3295.36 L 1833.93,3871 L 1816.76,3886.45 L 1692.02,3299.52 Z " />
<path stroke="transparent" fill="#000000" transform="matrix(0.0833333 0 0 0.0833333 -21.1667 -106)" d="M 1121.35,3114.12 L 1138.52,3098.66 L 1698.2,3280.5 L 1700.6,3291.79 L 1692.02,3299.52 L 1121.35,3114.12 Z " />
<path stroke="transparent" fill="#000000" transform="matrix(0.0833333 0 0 0.0833333 -21.1667 -106)" d="M 1188.63,3060.27 L 1194.81,3041.25 L 1686.41,3200.96 L 1680.23,3219.98 L 1188.63,3060.27 Z " />
<path stroke="transparent" fill="#000000" transform="matrix(0.0833333 0 0 0.0833333 -21.1667 -106)" d="M 996.611,2527.25 L 1005.19,2519.52 L 1016.17,2523.09 L 1138.52,3098.66 L 1121.35,3114.12 L 996.611,2527.25 Z " />
<path stroke="transparent" fill="#000000" transform="matrix(0.0833333 0 0 0.0833333 -21.1667 -106)" d="M 538.236,2378.33 L 544.415,2359.31 L 1002.79,2508.23 L 1005.19,2519.52 L 996.611,2527.25 L 538.236,2378.33 Z " />
<path stroke="transparent" fill="#000000" transform="matrix(0.0833333 0 0 0.0833333 -21.1667 -106)" d="M 300,1749.27 L 319.563,1745.11 L 422.323,2228.61 L 402.76,2232.77 L 300,1749.27 Z " />
<path stroke="transparent" fill="#000000" transform="matrix(0.0833333 0 0 0.0833333 -21.1667 -106)" d="M 1440.08,2114.43 L 1451.06,2118 L 1453.46,2129.29 L 1016.17,2523.09 L 1005.19,2519.52 L 1002.79,2508.23 L 1440.08,2114.43 Z " />
<path stroke="transparent" fill="#000000" transform="matrix(0.0833333 0 0 0.0833333 -21.1667 -106)" d="M 1461.65,2191.89 L 1475.04,2206.75 L 1090.96,2552.64 L 1077.57,2537.78 L 1461.65,2191.89 Z " />
<path stroke="transparent" fill="#000000" transform="matrix(0.0833333 0 0 0.0833333 -21.1667 -106)" d="M 1341.93,1652.69 L 1361.5,1648.53 L 1459.64,2110.27 L 1451.06,2118 L 1440.08,2114.43 L 1341.93,1652.69 Z " />
<path stroke="transparent" fill="#000000" transform="matrix(0.0833333 0 0 0.0833333 -21.1667 -106)" d="M 2019.33,2292.16 L 2021.73,2303.46 L 2013.15,2311.18 L 1453.46,2129.29 L 1451.06,2118 L 1459.64,2110.27 L 2019.33,2292.16 Z " />
<path stroke="transparent" fill="#000000" transform="matrix(0.0833333 0 0 0.0833333 -21.1667 -106)" d="M 2373.27,1973.42 L 2386.65,1988.29 L 2032.71,2307.03 L 2021.73,2303.46 L 2019.33,2292.16 L 2373.27,1973.42 Z " />
<path stroke="transparent" fill="#000000" transform="matrix(0.0833333 0 0 0.0833333 -21.1667 -106)" d="M 2157.45,2893.9 L 2135.49,2886.76 L 2013.15,2311.18 L 2021.73,2303.46 L 2032.71,2307.03 L 2157.45,2893.9 Z " />
<path stroke="transparent" fill="#000000" transform="matrix(0.0833333 0 0 0.0833333 -21.1667 -106)" d="M 2077.18,2862.56 L 2057.62,2866.72 L 1950.16,2361.16 L 1969.73,2357 L 2077.18,2862.56 Z " />
<path stroke="transparent" fill="#000000" transform="matrix(0.0833333 0 0 0.0833333 -21.1667 -106)" d="M 2135.49,2886.76 L 2157.45,2893.9 L 1711.59,3295.36 L 1700.6,3291.79 L 1698.2,3280.5 L 2135.49,2886.76 Z " />
<path stroke="transparent" fill="#000000" transform="matrix(0.0833333 0 0 0.0833333 -21.1667 -106)" d="M 4793.49,5673.72 L 4803.49,5667.29 L 4813.49,5673.07 L 4813.49,6261.53 L 4803.49,6267.3 L 4793.49,6260.89 L 4793.49,5673.72 Z " />
<path stroke="transparent" fill="#000000" transform="matrix(0.0833333 0 0 0.0833333 -21.1667 -106)" d="M 4406.49,6565.8 L 4346.49,6461.87 L 4793.49,6260.89 L 4803.49,6267.3 L 4804.05,6279.17 L 4406.49,6565.8 Z " />
<path stroke="transparent" fill="#000000" transform="matrix(0.0833333 0 0 0.0833333 -21.1667 -106)" d="M 4804.05,6279.17 L 4803.49,6267.3 L 4813.49,6261.53 L 5323.1,6555.76 L 5323.1,6578.85 L 4804.05,6279.17 Z " />
<path stroke="transparent" fill="#000000" transform="matrix(0.0833333 0 0 0.0833333 -21.1667 -106)" d="M 5383.1,7062.15 L 5263.1,7062.15 L 5265.37,7042.15 L 5380.83,7042.15 L 5383.1,7062.15 Z " />
<path stroke="transparent" fill="#000000" transform="matrix(0.0833333 0 0 0.0833333 -21.1667 -106)" d="M 5376.28,7002.04 L 5269.92,7002.04 L 5272.19,6982.04 L 5374.01,6982.04 L 5376.28,7002.04 Z " />
<path stroke="transparent" fill="#000000" transform="matrix(0.0833333 0 0 0.0833333 -21.1667 -106)" d="M 5369.46,6941.93 L 5276.74,6941.93 L 5279.01,6921.93 L 5367.19,6921.93 L 5369.46,6941.93 Z " />
<path stroke="transparent" fill="#000000" transform="matrix(0.0833333 0 0 0.0833333 -21.1667 -106)" d="M 5362.64,6881.83 L 5283.56,6881.83 L 5285.83,6861.83 L 5360.38,6861.83 L 5362.64,6881.83 Z " />
<path stroke="transparent" fill="#000000" transform="matrix(0.0833333 0 0 0.0833333 -21.1667 -106)" d="M 5355.83,6821.72 L 5290.38,6821.72 L 5292.64,6801.72 L 5353.56,6801.72 L 5355.83,6821.72 Z " />
<path stroke="transparent" fill="#000000" transform="matrix(0.0833333 0 0 0.0833333 -21.1667 -106)" d="M 5349.01,6761.61 L 5297.19,6761.61 L 5299.46,6741.61 L 5346.74,6741.61 L 5349.01,6761.61 Z " />
<path stroke="transparent" fill="#000000" transform="matrix(0.0833333 0 0 0.0833333 -21.1667 -106)" d="M 5342.19,6701.5 L 5304.01,6701.5 L 5306.28,6681.5 L 5339.92,6681.5 L 5342.19,6701.5 Z " />
<path stroke="transparent" fill="#000000" transform="matrix(0.0833333 0 0 0.0833333 -21.1667 -106)" d="M 5335.37,6641.4 L 5310.83,6641.4 L 5313.1,6621.4 L 5333.1,6621.4 L 5335.37,6641.4 Z " />
<path stroke="transparent" fill="#000000" transform="matrix(0.0833333 0 0 0.0833333 -21.1667 -106)" d="M 5323.1,6578.85 L 5323.1,6555.76 L 5832.71,6261.53 L 5842.71,6267.3 L 5842.15,6279.17 L 5323.1,6578.85 Z " />
<path stroke="transparent" fill="#000000" transform="matrix(0.0833333 0 0 0.0833333 -21.1667 -106)" d="M 5852.71,6260.89 L 5842.71,6267.3 L 5832.71,6261.53 L 5832.71,5673.12 L 5852.71,5661.58 L 5852.71,6260.89 Z " />
<path stroke="transparent" fill="#000000" transform="matrix(0.0833333 0 0 0.0833333 -21.1667 -106)" d="M 6299.71,6461.92 L 6239.7,6565.84 L 5842.15,6279.17 L 5842.71,6267.3 L 5852.71,6260.89 L 6299.71,6461.92 Z " />
<path stroke="transparent" fill="#000000" transform="matrix(0.0833333 0 0 0.0833333 -21.1667 -106)" d="M 8970.42,6261.59 L 8950.42,6273.13 L 8950.42,5673.12 L 8960.42,5667.35 L 8970.42,5673.12 L 8970.42,6261.59 Z " />
<path stroke="transparent" fill="#000000" transform="matrix(0.0833333 0 0 0.0833333 -21.1667 -106)" d="M 9042.42,6225.79 L 9022.42,6225.79 L 9022.42,5708.92 L 9042.42,5708.92 L 9042.42,6225.79 Z " />
<path stroke="transparent" fill="#000000" transform="matrix(0.0833333 0 0 0.0833333 -21.1667 -106)" d="M 9480.03,6555.82 L 9480.03,6567.37 L 9470.03,6573.14 L 8950.42,6273.13 L 8970.42,6261.59 L 9480.03,6555.82 Z " />
<path stroke="transparent" fill="#000000" transform="matrix(0.0833333 0 0 0.0833333 -21.1667 -106)" d="M 9490.03,7062.21 L 9470.03,7062.21 L 9470.03,6573.14 L 9480.03,6567.37 L 9490.03,6573.14 L 9490.03,7062.21 Z " />
<path stroke="transparent" fill="#000000" transform="matrix(0.0833333 0 0 0.0833333 -21.1667 -106)" d="M 10004.7,7458.72 L 9994.69,7476.04 L 9575.06,7233.79 L 9585.06,7216.47 L 10004.7,7458.72 Z " />
<path stroke="transparent" fill="#000000" transform="matrix(0.0833333 0 0 0.0833333 -21.1667 -106)" d="M 9989.69,6261.59 L 9999.69,6267.36 L 9999.69,6278.91 L 9490.03,6573.14 L 9480.03,6567.37 L 9480.03,6555.82 L 9989.69,6261.59 Z " />
<path stroke="transparent" fill="#000000" transform="matrix(0.0833333 0 0 0.0833333 -21.1667 -106)" d="M 9922.69,6217.13 L 9932.69,6234.45 L 9485.03,6492.88 L 9475.03,6475.56 L 9922.69,6217.13 Z " />
<path stroke="transparent" fill="#000000" transform="matrix(0.0833333 0 0 0.0833333 -21.1667 -106)" d="M 10009.7,6261.59 L 9999.69,6267.36 L 9989.69,6261.59 L 9989.69,5673.13 L 9999.69,5667.35 L 10009.7,5673.12 L 10009.7,6261.59 Z " />
<path stroke="transparent" fill="#000000" transform="matrix(0.0833333 0 0 0.0833333 -21.1667 -106)" d="M 10431.7,6505.23 L 10421.7,6522.55 L 9999.69,6278.91 L 9999.69,6267.36 L 10009.7,6261.59 L 10431.7,6505.23 Z " />
<path stroke="transparent" fill="#000000" transform="matrix(0.0833333 0 0 0.0833333 -21.1667 -106)" d="M 2333.03,1317.13 L 2352.6,1312.97 L 2455.39,1796.43 L 2435.82,1800.59 L 2333.03,1317.13 Z " />
</svg>
