<?xml version="1.0" standalone="no" ?>
<!DOCTYPE svg PUBLIC "-//W3C//DTD SVG 1.1//EN" "http://www.w3.org/Graphics/SVG/1.1/DTD/svg11.dtd">
<svg width="417px" height="157px" viewBox="0 0 417 157" style="background-color: #ffffff00" xmlns="http://www.w3.org/2000/svg" xmlns:xlink="http://www.w3.org/1999/xlink" version="1.1" >
<text x="0" y="0" stroke="transparent" fill="#000000" transform="matrix(0.0666667 0 0 0.0666667 3.58606 154.077)" style="font:normal normal normal 200px 'Arial'" >
HO</text>
<text x="0" y="0" stroke="transparent" fill="#000000" transform="matrix(0.0666667 0 0 0.0666667 3.58606 74.0743)" style="font:normal normal normal 200px 'Arial'" >
HO</text>
<text x="0" y="0" stroke="transparent" fill="#000000" transform="matrix(0.0666667 0 0 0.0666667 394.278 14.0677)" style="font:normal normal normal 200px 'Arial'" >
OH</text>
<text x="0" y="0" stroke="transparent" fill="#000000" transform="matrix(0.0666667 0 0 0.0666667 394.278 94.0701)" style="font:normal normal normal 200px 'Arial'" >
OH</text>
<path stroke="transparent" fill="#000000" transform="matrix(0.0666667 0 0 0.0666667 -139.853 -315)" d="M 4972.21,6046.5 L 4972.21,6058.05 L 4962.21,6063.83 L 4452.56,5769.66 L 4452.56,5746.57 L 4972.21,6046.5 Z " />
<path stroke="transparent" fill="#000000" transform="matrix(0.0666667 0 0 0.0666667 -139.853 -315)" d="M 5481.79,5752.34 L 5491.79,5758.11 L 5491.79,5769.66 L 4982.21,6063.83 L 4972.21,6058.05 L 4972.21,6046.5 L 5481.79,5752.34 Z " />
<path stroke="transparent" fill="#000000" transform="matrix(0.0666667 0 0 0.0666667 -139.853 -315)" d="M 6011.44,6046.5 L 6011.44,6069.6 L 5491.79,5769.66 L 5491.79,5758.11 L 5501.79,5752.34 L 6011.44,6046.5 Z " />
<path stroke="transparent" fill="#000000" transform="matrix(0.0666667 0 0 0.0666667 -139.853 -315)" d="M 5481.79,5158.02 L 5501.79,5158.02 L 5501.79,5752.34 L 5491.79,5758.11 L 5481.79,5752.34 L 5481.79,5158.02 Z " />
<path stroke="transparent" fill="#000000" transform="matrix(0.0666667 0 0 0.0666667 -139.853 -315)" d="M 4982.21,6658.14 L 4962.21,6658.14 L 4962.21,6063.83 L 4972.21,6058.05 L 4982.21,6063.83 L 4982.21,6658.14 Z " />
<path stroke="transparent" fill="#000000" transform="matrix(0.0666667 0 0 0.0666667 -139.853 -315)" d="M 2883.68,6063.83 L 2893.68,6058.05 L 2903.68,6063.83 L 2903.68,6652.37 L 2893.68,6658.14 L 2883.68,6652.37 L 2883.68,6063.83 Z " />
<path stroke="transparent" fill="#000000" transform="matrix(0.0666667 0 0 0.0666667 -139.853 -315)" d="M 3413.33,5746.57 L 3413.33,5769.66 L 2903.68,6063.83 L 2893.68,6058.05 L 2893.68,6046.5 L 3413.33,5746.57 Z " />
<path stroke="transparent" fill="#000000" transform="matrix(0.0666667 0 0 0.0666667 -139.853 -315)" d="M 3408.33,5832.59 L 3418.32,5849.91 L 2970.67,6108.29 L 2960.68,6090.97 L 3408.33,5832.59 Z " />
<path stroke="transparent" fill="#000000" transform="matrix(0.0666667 0 0 0.0666667 -139.853 -315)" d="M 3932.91,6046.5 L 3932.91,6058.05 L 3922.91,6063.83 L 3413.33,5769.66 L 3413.33,5746.57 L 3932.91,6046.5 Z " />
<path stroke="transparent" fill="#000000" transform="matrix(0.0666667 0 0 0.0666667 -139.853 -315)" d="M 3942.91,6663.91 L 3922.91,6652.37 L 3922.91,6063.83 L 3932.91,6058.05 L 3942.91,6063.83 L 3942.91,6663.91 Z " />
<path stroke="transparent" fill="#000000" transform="matrix(0.0666667 0 0 0.0666667 -139.853 -315)" d="M 3870.9,6616.57 L 3850.9,6616.57 L 3850.9,6099.63 L 3870.9,6099.63 L 3870.9,6616.57 Z " />
<path stroke="transparent" fill="#000000" transform="matrix(0.0666667 0 0 0.0666667 -139.853 -315)" d="M 3413.33,6969.7 L 3413.33,6946.6 L 3922.91,6652.37 L 3942.91,6663.91 L 3413.33,6969.7 Z " />
<path stroke="transparent" fill="#000000" transform="matrix(0.0666667 0 0 0.0666667 -139.853 -315)" d="M 3413.33,6946.6 L 3413.33,6969.7 L 2893.68,6669.69 L 2893.68,6658.14 L 2903.68,6652.37 L 3413.33,6946.6 Z " />
<path stroke="transparent" fill="#000000" transform="matrix(0.0666667 0 0 0.0666667 -139.853 -315)" d="M 3418.32,6866.35 L 3408.33,6883.67 L 2960.68,6625.23 L 2970.68,6607.91 L 3418.32,6866.35 Z " />
<path stroke="transparent" fill="#000000" transform="matrix(0.0666667 0 0 0.0666667 -139.853 -315)" d="M 2471.64,6913.34 L 2461.64,6896.02 L 2883.68,6652.37 L 2893.68,6658.14 L 2893.68,6669.69 L 2471.64,6913.34 Z " />
<path stroke="transparent" fill="#000000" transform="matrix(0.0666667 0 0 0.0666667 -139.853 -315)" d="M 2469.06,5824.51 L 2479.06,5807.19 L 2893.68,6046.5 L 2893.68,6058.05 L 2883.68,6063.83 L 2469.06,5824.51 Z " />
<path stroke="transparent" fill="#000000" transform="matrix(0.0666667 0 0 0.0666667 -139.853 -315)" d="M 3942.91,6063.83 L 3932.91,6058.05 L 3932.91,6046.5 L 4452.56,5746.57 L 4452.56,5769.66 L 3942.91,6063.83 Z " />
<path stroke="transparent" fill="#000000" transform="matrix(0.0666667 0 0 0.0666667 -139.853 -315)" d="M 7580.32,5752.34 L 7570.32,5758.11 L 7560.32,5752.34 L 7560.32,5163.8 L 7570.32,5158.02 L 7580.32,5163.8 L 7580.32,5752.34 Z " />
<path stroke="transparent" fill="#000000" transform="matrix(0.0666667 0 0 0.0666667 -139.853 -315)" d="M 7050.67,6069.6 L 7050.67,6046.5 L 7560.32,5752.34 L 7570.32,5758.11 L 7570.32,5769.66 L 7050.67,6069.6 Z " />
<path stroke="transparent" fill="#000000" transform="matrix(0.0666667 0 0 0.0666667 -139.853 -315)" d="M 7055.67,5983.58 L 7045.68,5966.26 L 7493.32,5707.88 L 7503.32,5725.2 L 7055.67,5983.58 Z " />
<path stroke="transparent" fill="#000000" transform="matrix(0.0666667 0 0 0.0666667 -139.853 -315)" d="M 6531.09,5769.66 L 6531.09,5758.11 L 6541.09,5752.34 L 7050.67,6046.5 L 7050.67,6069.6 L 6531.09,5769.66 Z " />
<path stroke="transparent" fill="#000000" transform="matrix(0.0666667 0 0 0.0666667 -139.853 -315)" d="M 6521.09,5152.25 L 6541.09,5163.8 L 6541.09,5752.34 L 6531.09,5758.11 L 6521.09,5752.34 L 6521.09,5152.25 Z " />
<path stroke="transparent" fill="#000000" transform="matrix(0.0666667 0 0 0.0666667 -139.853 -315)" d="M 6593.1,5199.6 L 6613.1,5199.6 L 6613.1,5716.54 L 6593.1,5716.54 L 6593.1,5199.6 Z " />
<path stroke="transparent" fill="#000000" transform="matrix(0.0666667 0 0 0.0666667 -139.853 -315)" d="M 7050.67,4846.47 L 7050.67,4869.56 L 6541.09,5163.8 L 6521.09,5152.25 L 7050.67,4846.47 Z " />
<path stroke="transparent" fill="#000000" transform="matrix(0.0666667 0 0 0.0666667 -139.853 -315)" d="M 7050.67,4869.56 L 7050.67,4846.47 L 7570.32,5146.48 L 7570.32,5158.02 L 7560.32,5163.8 L 7050.67,4869.56 Z " />
<path stroke="transparent" fill="#000000" transform="matrix(0.0666667 0 0 0.0666667 -139.853 -315)" d="M 7045.67,4949.82 L 7055.67,4932.5 L 7503.32,5190.94 L 7493.32,5208.26 L 7045.67,4949.82 Z " />
<path stroke="transparent" fill="#000000" transform="matrix(0.0666667 0 0 0.0666667 -139.853 -315)" d="M 7985.37,4906.86 L 7995.37,4924.18 L 7580.32,5163.8 L 7570.32,5158.02 L 7570.32,5146.48 L 7985.37,4906.86 Z " />
<path stroke="transparent" fill="#000000" transform="matrix(0.0666667 0 0 0.0666667 -139.853 -315)" d="M 8002.35,5995.93 L 7992.35,6013.25 L 7570.32,5769.66 L 7570.32,5758.11 L 7580.32,5752.34 L 8002.35,5995.93 Z " />
<path stroke="transparent" fill="#000000" transform="matrix(0.0666667 0 0 0.0666667 -139.853 -315)" d="M 6521.09,5752.34 L 6531.09,5758.11 L 6531.09,5769.66 L 6011.44,6069.6 L 6011.44,6046.5 L 6521.09,5752.34 Z " />
</svg>
