<?xml version="1.0" standalone="no" ?>
<!DOCTYPE svg PUBLIC "-//W3C//DTD SVG 1.1//EN" "http://www.w3.org/Graphics/SVG/1.1/DTD/svg11.dtd">
<svg width="277px" height="153px" viewBox="0 0 277 153" style="background-color: #ffffff00" xmlns="http://www.w3.org/2000/svg" xmlns:xlink="http://www.w3.org/1999/xlink" version="1.1" >
<text x="0" y="0" stroke="transparent" fill="#000000" transform="matrix(0.0666667 0 0 0.0666667 172.409 14.4505)" style="font:normal normal normal 200px 'Arial'" >
N</text>
<text x="0" y="0" stroke="transparent" fill="#000000" transform="matrix(0.0666667 0 0 0.0666667 244.695 22.0871)" style="font:normal normal normal 200px 'Arial'" >
O</text>
<text x="0" y="0" stroke="transparent" fill="#000000" transform="matrix(0.0666667 0 0 0.0666667 33.44 14.4505)" style="font:normal normal normal 200px 'Arial'" >
O</text>
<text x="0" y="0" stroke="transparent" fill="#000000" transform="matrix(0.0666667 0 0 0.0666667 172.009 134.454)" style="font:normal normal normal 200px 'Arial'" >
O</text>
<path stroke="transparent" fill="#000000" transform="matrix(0.0666667 0 0 0.0666667 -209.853 -317)" d="M 6326.66,5182.81 L 6325.52,5193.69 L 6315.52,5199.47 L 5910.99,4965.95 L 5920.99,4948.63 L 6326.66,5182.81 Z " />
<path stroke="transparent" fill="#000000" transform="matrix(0.0666667 0 0 0.0666667 -209.853 -317)" d="M 6258.52,5226.6 L 6248.52,5243.92 L 5875,5028.3 L 5885,5010.98 L 6258.52,5226.6 Z " />
<path stroke="transparent" fill="#000000" transform="matrix(0.0666667 0 0 0.0666667 -209.853 -317)" d="M 6335.52,5786.52 L 6325.52,5793.78 L 6315.52,5788.01 L 6315.52,5199.47 L 6325.52,5193.69 L 6335.52,5200.96 L 6335.52,5786.52 Z " />
<path stroke="transparent" fill="#000000" transform="matrix(0.0666667 0 0 0.0666667 -209.853 -317)" d="M 5815.94,6099.49 L 5805.94,6093.72 L 5805.94,6082.17 L 6315.52,5788.01 L 6325.52,5793.78 L 6326.66,5804.67 L 5815.94,6099.49 Z " />
<path stroke="transparent" fill="#000000" transform="matrix(0.0666667 0 0 0.0666667 -209.853 -317)" d="M 5810.93,6019.26 L 5800.93,6001.94 L 6248.52,5743.56 L 6258.52,5760.88 L 5810.93,6019.26 Z " />
<path stroke="transparent" fill="#000000" transform="matrix(0.0666667 0 0 0.0666667 -209.853 -317)" d="M 5286.28,5805.33 L 5286.28,5793.78 L 5296.28,5788.01 L 5805.94,6082.17 L 5805.94,6093.72 L 5795.94,6099.5 L 5286.28,5805.33 Z " />
<path stroke="transparent" fill="#000000" transform="matrix(0.0666667 0 0 0.0666667 -209.853 -317)" d="M 4766.63,6105.27 L 4766.63,6082.17 L 5276.28,5788.01 L 5286.28,5793.78 L 5286.28,5805.33 L 4766.63,6105.27 Z " />
<path stroke="transparent" fill="#000000" transform="matrix(0.0666667 0 0 0.0666667 -209.853 -317)" d="M 4771.63,6019.25 L 4761.64,6001.93 L 5209.29,5743.55 L 5219.28,5760.87 L 4771.63,6019.25 Z " />
<path stroke="transparent" fill="#000000" transform="matrix(0.0666667 0 0 0.0666667 -209.853 -317)" d="M 4237.05,5799.56 L 4257.05,5788.01 L 4766.63,6082.17 L 4766.63,6105.27 L 4237.05,5799.56 Z " />
<path stroke="transparent" fill="#000000" transform="matrix(0.0666667 0 0 0.0666667 -209.853 -317)" d="M 4237.05,5199.47 L 4247.05,5193.69 L 4257.05,5199.47 L 4257.05,5788.01 L 4237.05,5799.56 L 4237.05,5199.47 Z " />
<path stroke="transparent" fill="#000000" transform="matrix(0.0666667 0 0 0.0666667 -209.853 -317)" d="M 4309.06,5235.27 L 4329.06,5235.27 L 4329.06,5752.21 L 4309.06,5752.21 L 4309.06,5235.27 Z " />
<path stroke="transparent" fill="#000000" transform="matrix(0.0666667 0 0 0.0666667 -209.853 -317)" d="M 4766.63,4882.21 L 4766.63,4905.3 L 4257.05,5199.47 L 4247.05,5193.69 L 4247.05,5182.15 L 4766.63,4882.21 Z " />
<path stroke="transparent" fill="#000000" transform="matrix(0.0666667 0 0 0.0666667 -209.853 -317)" d="M 5286.28,5182.15 L 5286.28,5193.69 L 5276.28,5199.47 L 4766.63,4905.3 L 4766.63,4882.21 L 5286.28,5182.15 Z " />
<path stroke="transparent" fill="#000000" transform="matrix(0.0666667 0 0 0.0666667 -209.853 -317)" d="M 5219.28,5226.61 L 5209.29,5243.93 L 4761.64,4985.55 L 4771.63,4968.23 L 5219.28,5226.61 Z " />
<path stroke="transparent" fill="#000000" transform="matrix(0.0666667 0 0 0.0666667 -209.853 -317)" d="M 5296.28,5199.47 L 5286.28,5193.69 L 5286.28,5182.15 L 5690.88,4948.62 L 5700.88,4965.94 L 5296.28,5199.47 Z " />
<path stroke="transparent" fill="#000000" transform="matrix(0.0666667 0 0 0.0666667 -209.853 -317)" d="M 5276.28,5199.47 L 5286.28,5193.69 L 5296.28,5199.47 L 5296.28,5788.01 L 5286.28,5793.78 L 5276.28,5788.01 L 5276.28,5199.47 Z " />
<path stroke="transparent" fill="#000000" transform="matrix(0.0666667 0 0 0.0666667 -209.853 -317)" d="M 7236.53,5493.77 L 7261.25,5493.78 L 6900.04,5990.93 L 6892.4,5967.42 L 7236.53,5493.77 Z " />
<path stroke="transparent" fill="#000000" transform="matrix(0.0666667 0 0 0.0666667 -209.853 -317)" d="M 7151.81,5487.89 L 7167.99,5499.65 L 6876.81,5900.41 L 6860.63,5888.66 L 7151.81,5487.89 Z " />
<path stroke="transparent" fill="#000000" transform="matrix(0.0666667 0 0 0.0666667 -209.853 -317)" d="M 7261.25,5493.78 L 7236.53,5493.77 L 6958.88,5111.57 L 6975.06,5099.82 L 7261.25,5493.78 Z " />
<path stroke="transparent" fill="#000000" transform="matrix(0.0666667 0 0 0.0666667 -209.853 -317)" d="M 6335.52,5200.96 L 6325.52,5193.69 L 6326.66,5182.81 L 6786.65,5033.39 L 6792.83,5052.41 L 6335.52,5200.96 Z " />
<path stroke="transparent" fill="#000000" transform="matrix(0.0666667 0 0 0.0666667 -209.853 -317)" d="M 6326.66,5804.67 L 6325.52,5793.78 L 6335.52,5786.52 L 6892.4,5967.42 L 6900.04,5990.93 L 6326.66,5804.67 Z " />
<path stroke="transparent" fill="#000000" transform="matrix(0.0666667 0 0 0.0666667 -209.853 -317)" d="M 3212.75,5202.35 L 3202.75,5185.03 L 3622.79,4942.59 L 3632.79,4959.91 L 3212.75,5202.35 Z " />
<path stroke="transparent" fill="#000000" transform="matrix(0.0666667 0 0 0.0666667 -209.853 -317)" d="M 3822.44,4960.16 L 3832.44,4942.84 L 4247.05,5182.15 L 4247.05,5193.69 L 4237.05,5199.47 L 3822.44,4960.16 Z " />
<path stroke="transparent" fill="#000000" transform="matrix(0.0666667 0 0 0.0666667 -209.853 -317)" d="M 6330.52,6985.09 L 6320.52,7002.41 L 5900.98,6760.22 L 5910.98,6742.9 L 6330.52,6985.09 Z " />
<path stroke="transparent" fill="#000000" transform="matrix(0.0666667 0 0 0.0666667 -209.853 -317)" d="M 5815.94,6588.65 L 5795.94,6588.65 L 5795.94,6099.5 L 5805.94,6093.72 L 5815.94,6099.49 L 5815.94,6588.65 Z " />
</svg>
