<?xml version="1.0" standalone="no" ?>
<!DOCTYPE svg PUBLIC "-//W3C//DTD SVG 1.1//EN" "http://www.w3.org/Graphics/SVG/1.1/DTD/svg11.dtd">
<svg width="478px" height="171px" viewBox="0 0 478 171" style="background-color: #ffffff00" xmlns="http://www.w3.org/2000/svg" xmlns:xlink="http://www.w3.org/1999/xlink" version="1.1" >
<path stroke="transparent" fill="#000000" transform="matrix(0.0833333 0 0 0.0833333 -197.208 -274)" d="M 4182.75,3725.37 L 4202.75,3713.83 L 4202.75,4313.78 L 4192.75,4319.55 L 4182.75,4313.78 L 4182.75,3725.37 Z " />
<path stroke="transparent" fill="#000000" transform="matrix(0.0833333 0 0 0.0833333 -197.208 -274)" d="M 4202.75,3713.83 L 4182.75,3725.37 L 3673.14,3431.14 L 3673.14,3408.05 L 4202.75,3713.83 Z " />
<path stroke="transparent" fill="#000000" transform="matrix(0.0833333 0 0 0.0833333 -197.208 -274)" d="M 4125.75,3752.51 L 4115.75,3769.83 L 3668.14,3511.39 L 3678.14,3494.07 L 4125.75,3752.51 Z " />
<path stroke="transparent" fill="#000000" transform="matrix(0.0833333 0 0 0.0833333 -197.208 -274)" d="M 3673.14,3408.05 L 3673.14,3431.14 L 3163.52,3725.37 L 3153.52,3719.6 L 3153.52,3708.05 L 3673.14,3408.05 Z " />
<path stroke="transparent" fill="#000000" transform="matrix(0.0833333 0 0 0.0833333 -197.208 -274)" d="M 2728.94,3486.01 L 2738.94,3468.69 L 3153.52,3708.05 L 3153.52,3719.6 L 3143.52,3725.37 L 2728.94,3486.01 Z " />
<path stroke="transparent" fill="#000000" transform="matrix(0.0833333 0 0 0.0833333 -197.208 -274)" d="M 3143.52,3725.37 L 3153.52,3719.6 L 3163.52,3725.37 L 3163.52,4313.84 L 3143.52,4325.39 L 3143.52,3725.37 Z " />
<path stroke="transparent" fill="#000000" transform="matrix(0.0833333 0 0 0.0833333 -197.208 -274)" d="M 3215.53,3761.17 L 3235.53,3761.17 L 3235.53,4278.04 L 3215.53,4278.04 L 3215.53,3761.17 Z " />
<path stroke="transparent" fill="#000000" transform="matrix(0.0833333 0 0 0.0833333 -197.208 -274)" d="M 3143.52,4325.39 L 3163.52,4313.84 L 3673.14,4608.01 L 3673.14,4631.11 L 3143.52,4325.39 Z " />
<path stroke="transparent" fill="#000000" transform="matrix(0.0833333 0 0 0.0833333 -197.208 -274)" d="M 3673.14,4631.11 L 3673.14,4608.01 L 4182.75,4313.78 L 4192.75,4319.55 L 4192.75,4331.1 L 3673.14,4631.11 Z " />
<path stroke="transparent" fill="#000000" transform="matrix(0.0833333 0 0 0.0833333 -197.208 -274)" d="M 3678.13,4545.08 L 3668.13,4527.76 L 4115.75,4269.32 L 4125.75,4286.65 L 3678.13,4545.08 Z " />
<path stroke="transparent" fill="#000000" transform="matrix(0.0833333 0 0 0.0833333 -197.208 -274)" d="M 4192.75,4331.1 L 4192.75,4319.55 L 4202.75,4313.78 L 4712.36,4608.01 L 4712.36,4631.11 L 4192.75,4331.1 Z " />
<path stroke="transparent" fill="#000000" transform="matrix(0.0833333 0 0 0.0833333 -197.208 -274)" d="M 4758.36,5114.41 L 4738.36,5114.41 L 4738.36,4598.77 L 4758.36,4598.77 L 4758.36,5114.41 Z " />
<path stroke="transparent" fill="#000000" transform="matrix(0.0833333 0 0 0.0833333 -197.208 -274)" d="M 4686.36,5114.41 L 4666.36,5114.41 L 4666.36,4598.77 L 4686.36,4598.77 L 4686.36,5114.41 Z " />
<path stroke="transparent" fill="#000000" transform="matrix(0.0833333 0 0 0.0833333 -197.208 -274)" d="M 4712.36,4631.11 L 4712.36,4608.01 L 5231.97,4308.01 L 5231.97,4331.1 L 4712.36,4631.11 Z " />
<path stroke="transparent" fill="#000000" transform="matrix(0.0833333 0 0 0.0833333 -197.208 -274)" d="M 5231.97,4331.1 L 5231.97,4308.01 L 5751.58,4608.01 L 5751.58,4631.11 L 5231.97,4331.1 Z " />
<path stroke="transparent" fill="#000000" transform="matrix(0.0833333 0 0 0.0833333 -197.208 -274)" d="M 5751.58,4631.11 L 5751.58,4608.01 L 6261.25,4313.78 L 6271.25,4319.55 L 6271.25,4331.1 L 5751.58,4631.11 Z " />
<path stroke="transparent" fill="#000000" transform="matrix(0.0833333 0 0 0.0833333 -197.208 -274)" d="M 6281.25,4313.78 L 6271.25,4319.55 L 6261.25,4313.78 L 6261.25,3725.37 L 6271.25,3719.6 L 6281.25,3725.37 L 6281.25,4313.78 Z " />
<path stroke="transparent" fill="#000000" transform="matrix(0.0833333 0 0 0.0833333 -197.208 -274)" d="M 6271.25,4331.1 L 6271.25,4319.55 L 6281.25,4313.78 L 6790.86,4608.01 L 6790.86,4631.11 L 6271.25,4331.1 Z " />
<path stroke="transparent" fill="#000000" transform="matrix(0.0833333 0 0 0.0833333 -197.208 -274)" d="M 6338.25,4286.65 L 6348.25,4269.32 L 6795.87,4527.76 L 6785.87,4545.08 L 6338.25,4286.65 Z " />
<path stroke="transparent" fill="#000000" transform="matrix(0.0833333 0 0 0.0833333 -197.208 -274)" d="M 6790.86,4631.11 L 6790.86,4608.01 L 7300.48,4313.84 L 7320.48,4325.39 L 6790.86,4631.11 Z " />
<path stroke="transparent" fill="#000000" transform="matrix(0.0833333 0 0 0.0833333 -197.208 -274)" d="M 7320.48,4325.39 L 7300.48,4313.84 L 7300.48,3725.37 L 7310.48,3719.6 L 7320.48,3725.37 L 7320.48,4325.39 Z " />
<path stroke="transparent" fill="#000000" transform="matrix(0.0833333 0 0 0.0833333 -197.208 -274)" d="M 7248.47,4278.04 L 7228.47,4278.04 L 7228.47,3761.17 L 7248.47,3761.17 L 7248.47,4278.04 Z " />
<path stroke="transparent" fill="#000000" transform="matrix(0.0833333 0 0 0.0833333 -197.208 -274)" d="M 7725.48,3468.44 L 7735.48,3485.76 L 7320.48,3725.37 L 7310.48,3719.6 L 7310.48,3708.05 L 7725.48,3468.44 Z " />
<path stroke="transparent" fill="#000000" transform="matrix(0.0833333 0 0 0.0833333 -197.208 -274)" d="M 7310.48,3708.05 L 7310.48,3719.6 L 7300.48,3725.37 L 6790.86,3431.14 L 6790.86,3408.05 L 7310.48,3708.05 Z " />
<path stroke="transparent" fill="#000000" transform="matrix(0.0833333 0 0 0.0833333 -197.208 -274)" d="M 6790.86,3408.05 L 6790.86,3431.14 L 6281.25,3725.37 L 6271.25,3719.6 L 6271.25,3708.05 L 6790.86,3408.05 Z " />
<path stroke="transparent" fill="#000000" transform="matrix(0.0833333 0 0 0.0833333 -197.208 -274)" d="M 6785.86,3494.07 L 6795.86,3511.39 L 6348.25,3769.83 L 6338.25,3752.51 L 6785.86,3494.07 Z " />
<path stroke="transparent" fill="#000000" transform="matrix(0.0833333 0 0 0.0833333 -197.208 -274)" d="M 6271.25,3708.05 L 6271.25,3719.6 L 6261.25,3725.37 L 5846.62,3486.01 L 5856.62,3468.69 L 6271.25,3708.05 Z " />
<path stroke="transparent" fill="#000000" transform="matrix(0.0833333 0 0 0.0833333 -197.208 -274)" d="M 5646.98,3468.44 L 5656.98,3485.76 L 5236.97,3728.26 L 5226.97,3710.94 L 5646.98,3468.44 Z " />
<text x="0" y="0" stroke="transparent" fill="#000000" transform="matrix(0.0833333 0 0 0.0833333 3.74833 17.4661)" style="font:normal normal normal 200px 'Arial'" >
HO</text>
<text x="0" y="0" stroke="transparent" fill="#000000" transform="matrix(0.0833333 0 0 0.0833333 188.988 167.464)" style="font:normal normal normal 200px 'Arial'" >
O</text>
<text x="0" y="0" stroke="transparent" fill="#000000" transform="matrix(0.0833333 0 0 0.0833333 448.799 17.4661)" style="font:normal normal normal 200px 'Arial'" >
OH</text>
<text x="0" y="0" stroke="transparent" fill="#000000" transform="matrix(0.0833333 0 0 0.0833333 275.59 17.4661)" style="font:normal normal normal 200px 'Arial'" >
O</text>
</svg>
