<?xml version="1.0" standalone="no" ?>
<!DOCTYPE svg PUBLIC "-//W3C//DTD SVG 1.1//EN" "http://www.w3.org/Graphics/SVG/1.1/DTD/svg11.dtd">
<svg width="432px" height="267px" viewBox="0 0 432 267" style="background-color: #ffffff00" xmlns="http://www.w3.org/2000/svg" xmlns:xlink="http://www.w3.org/1999/xlink" version="1.1" >
<text x="0" y="0" stroke="transparent" fill="#000000" transform="matrix(0.0833333 0 0 0.0833333 377.975 18.3165)" style="font:normal normal normal 200px 'Arial'" >
O</text>
<text x="0" y="0" stroke="transparent" fill="#000000" transform="matrix(0.0833333 0 0 0.0833333 377.975 118.315)" style="font:normal normal normal 200px 'Arial'" >
O</text>
<text x="0" y="0" stroke="transparent" fill="#000000" transform="matrix(0.0833333 0 0 0.0833333 161.967 93.3147)" style="font:normal normal normal 200px 'Arial'" >
N</text>
<text x="0" y="0" stroke="transparent" fill="#000000" transform="matrix(0.0833333 0 0 0.0833333 174.003 86.8147)" style="font:normal normal normal 150px 'Arial'" >
+</text>
<text x="0" y="0" stroke="transparent" fill="#000000" transform="matrix(0.0833333 0 0 0.0833333 27.3077 177.867)" style="font:normal normal normal 200px 'Arial'" >
O</text>
<text x="0" y="0" stroke="transparent" fill="#000000" transform="matrix(0.0833333 0 0 0.0833333 27.3077 258.772)" style="font:normal normal normal 200px 'Arial'" >
O</text>
<path stroke="transparent" fill="#000000" transform="matrix(0.0833333 0 0 0.0833333 -220.208 -226)" d="M 7351.24,2920.22 L 7361.24,2902.89 L 7780.82,3145.14 L 7770.81,3162.46 L 7351.24,2920.22 Z " />
<path stroke="transparent" fill="#000000" transform="matrix(0.0833333 0 0 0.0833333 -220.208 -226)" d="M 6746.59,3159.58 L 6736.59,3153.8 L 6736.59,3142.26 L 7151.6,2902.64 L 7161.6,2919.97 L 6746.59,3159.58 Z " />
<path stroke="transparent" fill="#000000" transform="matrix(0.0833333 0 0 0.0833333 -220.208 -226)" d="M 6216.98,2865.34 L 6216.98,2842.25 L 6736.59,3142.26 L 6736.59,3153.8 L 6726.59,3159.58 L 6216.98,2865.34 Z " />
<path stroke="transparent" fill="#000000" transform="matrix(0.0833333 0 0 0.0833333 -220.208 -226)" d="M 6211.98,2945.6 L 6221.98,2928.27 L 6669.59,3186.71 L 6659.59,3204.03 L 6211.98,2945.6 Z " />
<path stroke="transparent" fill="#000000" transform="matrix(0.0833333 0 0 0.0833333 -220.208 -226)" d="M 5707.37,3159.54 L 5697.37,3153.76 L 5697.37,3142.22 L 6216.98,2842.25 L 6216.98,2865.34 L 5707.37,3159.54 Z " />
<path stroke="transparent" fill="#000000" transform="matrix(0.0833333 0 0 0.0833333 -220.208 -226)" d="M 5707.37,3748.04 L 5697.37,3753.82 L 5687.37,3748.04 L 5687.37,3159.54 L 5697.37,3153.76 L 5707.37,3159.54 L 5707.37,3748.04 Z " />
<path stroke="transparent" fill="#000000" transform="matrix(0.0833333 0 0 0.0833333 -220.208 -226)" d="M 5779.38,3712.24 L 5759.38,3712.24 L 5759.38,3195.34 L 5779.38,3195.34 L 5779.38,3712.24 Z " />
<path stroke="transparent" fill="#000000" transform="matrix(0.0833333 0 0 0.0833333 -220.208 -226)" d="M 6216.98,4042.28 L 6216.98,4065.37 L 5697.37,3765.36 L 5697.37,3753.82 L 5707.37,3748.04 L 6216.98,4042.28 Z " />
<path stroke="transparent" fill="#000000" transform="matrix(0.0833333 0 0 0.0833333 -220.208 -226)" d="M 6726.59,3748 L 6736.59,3753.78 L 6736.59,3765.32 L 6216.98,4065.37 L 6216.98,4042.28 L 6726.59,3748 Z " />
<path stroke="transparent" fill="#000000" transform="matrix(0.0833333 0 0 0.0833333 -220.208 -226)" d="M 6659.59,3703.55 L 6669.59,3720.87 L 6221.98,3979.34 L 6211.98,3962.02 L 6659.59,3703.55 Z " />
<path stroke="transparent" fill="#000000" transform="matrix(0.0833333 0 0 0.0833333 -220.208 -226)" d="M 6746.59,3748 L 6736.59,3753.78 L 6726.59,3748 L 6726.59,3159.58 L 6736.59,3153.8 L 6746.59,3159.58 L 6746.59,3748 Z " />
<path stroke="transparent" fill="#000000" transform="matrix(0.0833333 0 0 0.0833333 -220.208 -226)" d="M 7168.59,3991.65 L 7158.59,4008.97 L 6736.59,3765.32 L 6736.59,3753.78 L 6746.59,3748 L 7168.59,3991.65 Z " />
<path stroke="transparent" fill="#000000" transform="matrix(0.0833333 0 0 0.0833333 -220.208 -226)" d="M 7770.81,3745.12 L 7780.82,3762.44 L 7353.82,4008.97 L 7343.82,3991.65 L 7770.81,3745.12 Z " />
<path stroke="transparent" fill="#000000" transform="matrix(0.0833333 0 0 0.0833333 -220.208 -226)" d="M 5187.72,4059.56 L 5177.72,4053.78 L 5177.72,4042.24 L 5687.37,3748.04 L 5697.37,3753.82 L 5697.37,3765.36 L 5187.72,4059.56 Z " />
<path stroke="transparent" fill="#000000" transform="matrix(0.0833333 0 0 0.0833333 -220.208 -226)" d="M 5187.72,4659.61 L 5167.72,4648.06 L 5167.72,4059.56 L 5177.72,4053.78 L 5187.72,4059.56 L 5187.72,4659.61 Z " />
<path stroke="transparent" fill="#000000" transform="matrix(0.0833333 0 0 0.0833333 -220.208 -226)" d="M 5115.71,4612.26 L 5095.71,4612.26 L 5095.71,4095.36 L 5115.71,4095.36 L 5115.71,4612.26 Z " />
<path stroke="transparent" fill="#000000" transform="matrix(0.0833333 0 0 0.0833333 -220.208 -226)" d="M 4668.11,4959.62 L 4658.11,4953.84 L 4658.11,4942.3 L 5167.72,4648.06 L 5187.72,4659.61 L 4668.11,4959.62 Z " />
<path stroke="transparent" fill="#000000" transform="matrix(0.0833333 0 0 0.0833333 -220.208 -226)" d="M 4668.11,5559.59 L 4648.11,5548.04 L 4648.11,4959.62 L 4658.11,4953.84 L 4668.11,4959.62 L 4668.11,5559.59 Z " />
<path stroke="transparent" fill="#000000" transform="matrix(0.0833333 0 0 0.0833333 -220.208 -226)" d="M 4138.5,5865.37 L 4138.5,5842.28 L 4648.11,5548.04 L 4668.11,5559.59 L 4138.5,5865.37 Z " />
<path stroke="transparent" fill="#000000" transform="matrix(0.0833333 0 0 0.0833333 -220.208 -226)" d="M 4143.49,5779.34 L 4133.49,5762.02 L 4581.11,5503.59 L 4591.11,5520.91 L 4143.49,5779.34 Z " />
<path stroke="transparent" fill="#000000" transform="matrix(0.0833333 0 0 0.0833333 -220.208 -226)" d="M 3617.7,5564.7 L 3618.84,5553.82 L 3628.84,5548.04 L 4138.5,5842.28 L 4138.5,5865.37 L 3617.7,5564.7 Z " />
<path stroke="transparent" fill="#000000" transform="matrix(0.0833333 0 0 0.0833333 -220.208 -226)" d="M 3608.84,4961.07 L 3618.84,4953.8 L 3628.84,4959.58 L 3628.84,5548.04 L 3618.84,5553.82 L 3608.84,5546.55 L 3608.84,4961.07 Z " />
<path stroke="transparent" fill="#000000" transform="matrix(0.0833333 0 0 0.0833333 -220.208 -226)" d="M 3680.85,4995.37 L 3700.85,4995.37 L 3700.85,5512.24 L 3680.85,5512.24 L 3680.85,4995.37 Z " />
<path stroke="transparent" fill="#000000" transform="matrix(0.0833333 0 0 0.0833333 -220.208 -226)" d="M 4128.5,4648.02 L 4138.5,4653.8 L 4138.5,4665.34 L 3628.84,4959.58 L 3618.84,4953.8 L 3617.7,4942.92 L 4128.5,4648.02 Z " />
<path stroke="transparent" fill="#000000" transform="matrix(0.0833333 0 0 0.0833333 -220.208 -226)" d="M 4138.5,4665.34 L 4138.5,4653.8 L 4148.5,4648.02 L 4658.11,4942.3 L 4658.11,4953.84 L 4648.11,4959.62 L 4138.5,4665.34 Z " />
<path stroke="transparent" fill="#000000" transform="matrix(0.0833333 0 0 0.0833333 -220.208 -226)" d="M 4133.49,4745.6 L 4143.49,4728.28 L 4591.11,4986.75 L 4581.1,5004.07 L 4133.49,4745.6 Z " />
<path stroke="transparent" fill="#000000" transform="matrix(0.0833333 0 0 0.0833333 -220.208 -226)" d="M 4128.5,4048.01 L 4148.5,4059.56 L 4148.5,4648.02 L 4138.5,4653.8 L 4128.5,4648.02 L 4128.5,4048.01 Z " />
<path stroke="transparent" fill="#000000" transform="matrix(0.0833333 0 0 0.0833333 -220.208 -226)" d="M 4542.98,3808.7 L 4552.98,3826.02 L 4148.5,4059.56 L 4128.5,4048.01 L 4542.98,3808.7 Z " />
<path stroke="transparent" fill="#000000" transform="matrix(0.0833333 0 0 0.0833333 -220.208 -226)" d="M 4578.98,3871.05 L 4588.98,3888.37 L 4215.5,4104.01 L 4205.5,4086.69 L 4578.98,3871.05 Z " />
<path stroke="transparent" fill="#000000" transform="matrix(0.0833333 0 0 0.0833333 -220.208 -226)" d="M 4763.23,3826.02 L 4773.23,3808.7 L 5177.72,4042.24 L 5177.72,4053.78 L 5167.72,4059.56 L 4763.23,3826.02 Z " />
<path stroke="transparent" fill="#000000" transform="matrix(0.0833333 0 0 0.0833333 -220.208 -226)" d="M 4648.11,3147.99 L 4668.11,3159.54 L 4668.11,3627.11 L 4648.11,3627.11 L 4648.11,3147.99 Z " />
<path stroke="transparent" fill="#000000" transform="matrix(0.0833333 0 0 0.0833333 -220.208 -226)" d="M 5177.72,2842.25 L 5177.72,2865.34 L 4668.11,3159.54 L 4648.11,3147.99 L 5177.72,2842.25 Z " />
<path stroke="transparent" fill="#000000" transform="matrix(0.0833333 0 0 0.0833333 -220.208 -226)" d="M 5177.72,2865.34 L 5177.72,2842.25 L 5697.37,3142.22 L 5697.37,3153.76 L 5687.37,3159.54 L 5177.72,2865.34 Z " />
<path stroke="transparent" fill="#000000" transform="matrix(0.0833333 0 0 0.0833333 -220.208 -226)" d="M 3151.9,4812.61 L 3158.08,4793.59 L 3617.7,4942.92 L 3618.84,4953.8 L 3608.84,4961.07 L 3151.9,4812.61 Z " />
<path stroke="transparent" fill="#000000" transform="matrix(0.0833333 0 0 0.0833333 -220.208 -226)" d="M 2707.91,5253.81 L 2683.18,5253.81 L 2969.57,4859.61 L 2985.75,4871.37 L 2707.91,5253.81 Z " />
<path stroke="transparent" fill="#000000" transform="matrix(0.0833333 0 0 0.0833333 -220.208 -226)" d="M 2993.55,5647.02 L 2977.36,5658.77 L 2683.18,5253.81 L 2707.91,5253.81 L 2993.55,5647.02 Z " />
<path stroke="transparent" fill="#000000" transform="matrix(0.0833333 0 0 0.0833333 -220.208 -226)" d="M 3153.14,5715.67 L 3146.96,5696.65 L 3608.84,5546.55 L 3618.84,5553.82 L 3617.7,5564.7 L 3153.14,5715.67 Z " />
</svg>
