<?xml version="1.0" standalone="no" ?>
<!DOCTYPE svg PUBLIC "-//W3C//DTD SVG 1.1//EN" "http://www.w3.org/Graphics/SVG/1.1/DTD/svg11.dtd">
<svg width="614px" height="431px" viewBox="0 0 614 431" style="background-color: #ffffff00" xmlns="http://www.w3.org/2000/svg" xmlns:xlink="http://www.w3.org/1999/xlink" version="1.1" >
<text x="0" y="0" stroke="transparent" fill="#000000" transform="matrix(0.0833333 0 0 0.0833333 337.612 426.512)" style="font:normal normal normal 200px 'Arial'" >
O</text>
<text x="0" y="0" stroke="transparent" fill="#000000" transform="matrix(0.0833333 0 0 0.0833333 413.11 383.21)" style="font:normal normal normal 200px 'Arial'" >
NH</text>
<text x="0" y="0" stroke="transparent" fill="#000000" transform="matrix(0.0833333 0 0 0.0833333 517.128 336.533)" style="font:normal normal normal 200px 'Arial'" >
O</text>
<text x="0" y="0" stroke="transparent" fill="#000000" transform="matrix(0.0833333 0 0 0.0833333 462.254 261.535)" style="font:normal normal normal 200px 'Arial'" >
HN</text>
<text x="0" y="0" stroke="transparent" fill="#000000" transform="matrix(0.0833333 0 0 0.0833333 560.423 161.538)" style="font:normal normal normal 200px 'Arial'" >
O</text>
<text x="0" y="0" stroke="transparent" fill="#000000" transform="matrix(0.0833333 0 0 0.0833333 462.254 161.538)" style="font:normal normal normal 200px 'Arial'" >
HN</text>
<text x="0" y="0" stroke="transparent" fill="#000000" transform="matrix(0.0833333 0 0 0.0833333 430.524 36.542)" style="font:normal normal normal 200px 'Arial'" >
O</text>
<text x="0" y="0" stroke="transparent" fill="#000000" transform="matrix(0.0833333 0 0 0.0833333 387.722 111.54)" style="font:normal normal normal 200px 'Arial'" >
N</text>
<text x="0" y="0" stroke="transparent" fill="#000000" transform="matrix(0.0833333 0 0 0.0833333 387.722 125.345)" style="font:normal normal normal 200px 'Arial'" >
H</text>
<text x="0" y="0" stroke="transparent" fill="#000000" transform="matrix(0.0833333 0 0 0.0833333 257.323 86.5405)" style="font:normal normal normal 200px 'Arial'" >
O</text>
<text x="0" y="0" stroke="transparent" fill="#000000" transform="matrix(0.0833333 0 0 0.0833333 301.125 161.538)" style="font:normal normal normal 200px 'Arial'" >
NH</text>
<text x="0" y="0" stroke="transparent" fill="#000000" transform="matrix(0.0833333 0 0 0.0833333 214.028 261.535)" style="font:normal normal normal 200px 'Arial'" >
O</text>
<text x="0" y="0" stroke="transparent" fill="#000000" transform="matrix(0.0833333 0 0 0.0833333 300.625 261.535)" style="font:normal normal normal 200px 'Arial'" >
O</text>
<path stroke="transparent" fill="#000000" transform="matrix(0.0833333 0 0 0.0833333 -128.875 -153)" d="M 2114.42,5484.86 L 2114.42,5507.95 L 1599.8,5805.06 L 1589.8,5787.74 L 2114.42,5484.86 Z " />
<path stroke="transparent" fill="#000000" transform="matrix(0.0833333 0 0 0.0833333 -128.875 -153)" d="M 2633.97,5784.85 L 2633.97,5807.94 L 2114.42,5507.95 L 2114.42,5484.86 L 2633.97,5784.85 Z " />
<path stroke="transparent" fill="#000000" transform="matrix(0.0833333 0 0 0.0833333 -128.875 -153)" d="M 3153.59,5484.86 L 3153.59,5507.95 L 2633.97,5807.94 L 2633.97,5784.85 L 3153.59,5484.86 Z " />
<path stroke="transparent" fill="#000000" transform="matrix(0.0833333 0 0 0.0833333 -128.875 -153)" d="M 3673.21,5784.85 L 3673.21,5807.94 L 3153.59,5507.95 L 3153.59,5484.86 L 3673.21,5784.85 Z " />
<path stroke="transparent" fill="#000000" transform="matrix(0.0833333 0 0 0.0833333 -128.875 -153)" d="M 4192.83,5484.86 L 4192.83,5507.95 L 3673.21,5807.94 L 3673.21,5784.85 L 4192.83,5484.86 Z " />
<path stroke="transparent" fill="#000000" transform="matrix(0.0833333 0 0 0.0833333 -128.875 -153)" d="M 4712.38,5784.85 L 4712.38,5807.94 L 4192.83,5507.95 L 4192.83,5484.86 L 4712.38,5784.85 Z " />
<path stroke="transparent" fill="#000000" transform="matrix(0.0833333 0 0 0.0833333 -128.875 -153)" d="M 5222,5490.63 L 5232,5496.41 L 5232,5507.95 L 4712.38,5807.94 L 4712.38,5784.85 L 5222,5490.63 Z " />
<path stroke="transparent" fill="#000000" transform="matrix(0.0833333 0 0 0.0833333 -128.875 -153)" d="M 5759.62,5789.47 L 5743.62,5803.33 L 5232,5507.95 L 5232,5496.41 L 5242,5490.63 L 5759.62,5789.47 Z " />
<path stroke="transparent" fill="#000000" transform="matrix(0.0833333 0 0 0.0833333 -128.875 -153)" d="M 5982.6,6346.53 L 5969.06,6366.53 L 5743.62,5803.33 L 5759.62,5789.47 L 5982.6,6346.53 Z " />
<path stroke="transparent" fill="#000000" transform="matrix(0.0833333 0 0 0.0833333 -128.875 -153)" d="M 5768.93,6806.91 L 5751.61,6796.91 L 6008.74,6351.53 L 6026.06,6361.53 L 5768.93,6806.91 Z " />
<path stroke="transparent" fill="#000000" transform="matrix(0.0833333 0 0 0.0833333 -128.875 -153)" d="M 5706.58,6770.91 L 5689.26,6760.91 L 5950.15,6309.01 L 5967.47,6319.01 L 5706.58,6770.91 Z " />
<path stroke="transparent" fill="#000000" transform="matrix(0.0833333 0 0 0.0833333 -128.875 -153)" d="M 6479.81,6346.53 L 6479.81,6366.53 L 5969.06,6366.53 L 5982.6,6346.53 L 6479.81,6346.53 Z " />
<path stroke="transparent" fill="#000000" transform="matrix(0.0833333 0 0 0.0833333 -128.875 -153)" d="M 6782.72,5789.51 L 6798.86,5803.29 L 6627.64,6249.41 L 6608.96,6242.24 L 6782.72,5789.51 Z " />
<path stroke="transparent" fill="#000000" transform="matrix(0.0833333 0 0 0.0833333 -128.875 -153)" d="M 7300.41,5490.63 L 7320.41,5502.18 L 6798.86,5803.29 L 6782.72,5789.51 L 7300.41,5490.63 Z " />
<path stroke="transparent" fill="#000000" transform="matrix(0.0833333 0 0 0.0833333 -128.875 -153)" d="M 7760.41,5703.09 L 7750.41,5720.41 L 7305.41,5463.5 L 7315.41,5446.18 L 7760.41,5703.09 Z " />
<path stroke="transparent" fill="#000000" transform="matrix(0.0833333 0 0 0.0833333 -128.875 -153)" d="M 7724.41,5765.44 L 7714.41,5782.76 L 7269.41,5525.85 L 7279.41,5508.53 L 7724.41,5765.44 Z " />
<path stroke="transparent" fill="#000000" transform="matrix(0.0833333 0 0 0.0833333 -128.875 -153)" d="M 7300.41,5013.76 L 7320.41,5013.76 L 7320.41,5502.18 L 7300.41,5490.63 L 7300.41,5013.76 Z " />
<path stroke="transparent" fill="#000000" transform="matrix(0.0833333 0 0 0.0833333 -128.875 -153)" d="M 7820.03,4590.66 L 7840.03,4602.21 L 7418.54,4845.55 L 7408.54,4828.23 L 7820.03,4590.66 Z " />
<path stroke="transparent" fill="#000000" transform="matrix(0.0833333 0 0 0.0833333 -128.875 -153)" d="M 7820.03,4002.22 L 7840.03,3990.68 L 7840.03,4602.21 L 7820.03,4590.66 L 7820.03,4002.22 Z " />
<path stroke="transparent" fill="#000000" transform="matrix(0.0833333 0 0 0.0833333 -128.875 -153)" d="M 8226.98,3714.14 L 8236.98,3731.46 L 7799.04,3984.33 L 7789.04,3967.01 L 8226.98,3714.14 Z " />
<path stroke="transparent" fill="#000000" transform="matrix(0.0833333 0 0 0.0833333 -128.875 -153)" d="M 8262.98,3776.48 L 8272.98,3793.8 L 7835.03,4046.68 L 7825.03,4029.36 L 8262.98,3776.48 Z " />
<path stroke="transparent" fill="#000000" transform="matrix(0.0833333 0 0 0.0833333 -128.875 -153)" d="M 7414.89,3768.32 L 7424.89,3751 L 7840.03,3990.68 L 7820.03,4002.22 L 7414.89,3768.32 Z " />
<path stroke="transparent" fill="#000000" transform="matrix(0.0833333 0 0 0.0833333 -128.875 -153)" d="M 7300.41,3102.25 L 7310.41,3096.48 L 7320.41,3102.78 L 7320.41,3593.79 L 7300.41,3593.79 L 7300.41,3102.25 Z " />
<path stroke="transparent" fill="#000000" transform="matrix(0.0833333 0 0 0.0833333 -128.875 -153)" d="M 6790.79,2808.03 L 6790.79,2784.94 L 7309.95,3084.67 L 7310.41,3096.48 L 7300.41,3102.25 L 6790.79,2808.03 Z " />
<path stroke="transparent" fill="#000000" transform="matrix(0.0833333 0 0 0.0833333 -128.875 -153)" d="M 6744.79,2316.34 L 6764.79,2316.34 L 6764.79,2817.27 L 6744.79,2817.27 L 6744.79,2316.34 Z " />
<path stroke="transparent" fill="#000000" transform="matrix(0.0833333 0 0 0.0833333 -128.875 -153)" d="M 6816.79,2316.34 L 6836.79,2316.34 L 6836.79,2817.27 L 6816.79,2817.27 L 6816.79,2316.34 Z " />
<path stroke="transparent" fill="#000000" transform="matrix(0.0833333 0 0 0.0833333 -128.875 -153)" d="M 6379.95,3045.22 L 6369.95,3027.9 L 6790.79,2784.94 L 6790.79,2808.03 L 6379.95,3045.22 Z " />
<path stroke="transparent" fill="#000000" transform="matrix(0.0833333 0 0 0.0833333 -128.875 -153)" d="M 5751.62,2808.03 L 5751.62,2784.94 L 6172.39,3027.9 L 6162.39,3045.22 L 5751.62,2808.03 Z " />
<path stroke="transparent" fill="#000000" transform="matrix(0.0833333 0 0 0.0833333 -128.875 -153)" d="M 5242,3102.25 L 5222,3090.7 L 5751.62,2784.94 L 5751.62,2808.03 L 5242,3102.25 Z " />
<path stroke="transparent" fill="#000000" transform="matrix(0.0833333 0 0 0.0833333 -128.875 -153)" d="M 4789.42,2894.08 L 4799.42,2876.76 L 5237,3129.39 L 5227,3146.71 L 4789.42,2894.08 Z " />
<path stroke="transparent" fill="#000000" transform="matrix(0.0833333 0 0 0.0833333 -128.875 -153)" d="M 4825.42,2831.72 L 4835.42,2814.4 L 5273,3067.03 L 5263,3084.35 L 4825.42,2831.72 Z " />
<path stroke="transparent" fill="#000000" transform="matrix(0.0833333 0 0 0.0833333 -128.875 -153)" d="M 5242,3593.79 L 5222,3593.79 L 5222,3090.7 L 5242,3102.25 L 5242,3593.79 Z " />
<path stroke="transparent" fill="#000000" transform="matrix(0.0833333 0 0 0.0833333 -128.875 -153)" d="M 4722.38,4002.22 L 4702.38,3990.68 L 5116.87,3751.38 L 5126.87,3768.7 L 4722.38,4002.22 Z " />
<path stroke="transparent" fill="#000000" transform="matrix(0.0833333 0 0 0.0833333 -128.875 -153)" d="M 4722.38,4590.66 L 4702.38,4602.21 L 4702.38,3990.68 L 4722.38,4002.22 L 4722.38,4590.66 Z " />
<path stroke="transparent" fill="#000000" transform="matrix(0.0833333 0 0 0.0833333 -128.875 -153)" d="M 4308.45,4882.78 L 4298.45,4865.46 L 4743.37,4608.55 L 4753.38,4625.87 L 4308.45,4882.78 Z " />
<path stroke="transparent" fill="#000000" transform="matrix(0.0833333 0 0 0.0833333 -128.875 -153)" d="M 4272.45,4820.43 L 4262.45,4803.11 L 4707.38,4546.21 L 4717.38,4563.53 L 4272.45,4820.43 Z " />
<path stroke="transparent" fill="#000000" transform="matrix(0.0833333 0 0 0.0833333 -128.875 -153)" d="M 5144.38,4834.29 L 5134.38,4851.61 L 4702.38,4602.21 L 4722.38,4590.66 L 5144.38,4834.29 Z " />
<path stroke="transparent" fill="#000000" transform="matrix(0.0833333 0 0 0.0833333 -128.875 -153)" d="M 5222,5016.26 L 5242,5016.26 L 5242,5490.63 L 5232,5496.41 L 5222,5490.63 L 5222,5016.26 Z " />
<path stroke="transparent" fill="#000000" transform="matrix(0.0833333 0 0 0.0833333 -128.875 -153)" d="M 4209.67,3775.46 L 4269.67,3671.54 L 4285.97,3683.31 L 4228,3783.7 L 4209.67,3775.46 Z " />
<path stroke="transparent" fill="#000000" transform="matrix(0.0833333 0 0 0.0833333 -128.875 -153)" d="M 4263.73,3799.76 L 4317.74,3706.22 L 4334.04,3717.99 L 4282.07,3808 L 4263.73,3799.76 Z " />
<path stroke="transparent" fill="#000000" transform="matrix(0.0833333 0 0 0.0833333 -128.875 -153)" d="M 4317.8,3824.05 L 4365.81,3740.9 L 4382.12,3752.67 L 4336.14,3832.29 L 4317.8,3824.05 Z " />
<path stroke="transparent" fill="#000000" transform="matrix(0.0833333 0 0 0.0833333 -128.875 -153)" d="M 4371.87,3848.35 L 4413.88,3775.58 L 4430.19,3787.35 L 4390.2,3856.59 L 4371.87,3848.35 Z " />
<path stroke="transparent" fill="#000000" transform="matrix(0.0833333 0 0 0.0833333 -128.875 -153)" d="M 4425.94,3872.65 L 4461.95,3810.26 L 4478.26,3822.03 L 4444.27,3880.89 L 4425.94,3872.65 Z " />
<path stroke="transparent" fill="#000000" transform="matrix(0.0833333 0 0 0.0833333 -128.875 -153)" d="M 4480,3896.94 L 4510.03,3844.94 L 4526.33,3856.71 L 4498.34,3905.18 L 4480,3896.94 Z " />
<path stroke="transparent" fill="#000000" transform="matrix(0.0833333 0 0 0.0833333 -128.875 -153)" d="M 4534.07,3921.24 L 4558.1,3879.62 L 4574.4,3891.39 L 4552.41,3929.48 L 4534.07,3921.24 Z " />
<path stroke="transparent" fill="#000000" transform="matrix(0.0833333 0 0 0.0833333 -128.875 -153)" d="M 4588.14,3945.53 L 4606.17,3914.3 L 4622.47,3926.07 L 4606.47,3953.77 L 4588.14,3945.53 Z " />
<path stroke="transparent" fill="#000000" transform="matrix(0.0833333 0 0 0.0833333 -128.875 -153)" d="M 4642.2,3969.83 L 4654.24,3948.98 L 4670.54,3960.75 L 4660.54,3978.07 L 4642.2,3969.83 Z " />
<path stroke="transparent" fill="#000000" transform="matrix(0.0833333 0 0 0.0833333 -128.875 -153)" d="M 4182.83,3096.48 L 4202.83,3096.48 L 4202.83,3702.23 L 4182.83,3690.69 L 4182.83,3096.48 Z " />
<path stroke="transparent" fill="#000000" transform="matrix(0.0833333 0 0 0.0833333 -128.875 -153)" d="M 3678.21,4005.11 L 3668.21,3987.79 L 4182.83,3690.69 L 4202.83,3702.23 L 3678.21,4005.11 Z " />
<path stroke="transparent" fill="#000000" transform="matrix(0.0833333 0 0 0.0833333 -128.875 -153)" d="M 5691.62,2196.5 L 5811.62,2196.5 L 5809.79,2216.5 L 5693.45,2216.5 L 5691.62,2196.5 Z " />
<path stroke="transparent" fill="#000000" transform="matrix(0.0833333 0 0 0.0833333 -128.875 -153)" d="M 5696.97,2254.94 L 5806.27,2254.94 L 5804.44,2274.94 L 5698.8,2274.94 L 5696.97,2254.94 Z " />
<path stroke="transparent" fill="#000000" transform="matrix(0.0833333 0 0 0.0833333 -128.875 -153)" d="M 5702.32,2313.37 L 5800.92,2313.37 L 5799.08,2333.37 L 5704.16,2333.37 L 5702.32,2313.37 Z " />
<path stroke="transparent" fill="#000000" transform="matrix(0.0833333 0 0 0.0833333 -128.875 -153)" d="M 5707.68,2371.8 L 5795.56,2371.8 L 5793.73,2391.8 L 5709.51,2391.8 L 5707.68,2371.8 Z " />
<path stroke="transparent" fill="#000000" transform="matrix(0.0833333 0 0 0.0833333 -128.875 -153)" d="M 5713.03,2430.23 L 5790.21,2430.23 L 5788.38,2450.23 L 5714.86,2450.23 L 5713.03,2430.23 Z " />
<path stroke="transparent" fill="#000000" transform="matrix(0.0833333 0 0 0.0833333 -128.875 -153)" d="M 5718.38,2488.67 L 5784.86,2488.67 L 5783.03,2508.67 L 5720.21,2508.67 L 5718.38,2488.67 Z " />
<path stroke="transparent" fill="#000000" transform="matrix(0.0833333 0 0 0.0833333 -128.875 -153)" d="M 5723.73,2547.1 L 5779.51,2547.1 L 5777.68,2567.1 L 5725.56,2567.1 L 5723.73,2547.1 Z " />
<path stroke="transparent" fill="#000000" transform="matrix(0.0833333 0 0 0.0833333 -128.875 -153)" d="M 5729.08,2605.53 L 5774.16,2605.53 L 5772.32,2625.53 L 5730.92,2625.53 L 5729.08,2605.53 Z " />
<path stroke="transparent" fill="#000000" transform="matrix(0.0833333 0 0 0.0833333 -128.875 -153)" d="M 5734.44,2663.96 L 5768.8,2663.96 L 5766.97,2683.96 L 5736.27,2683.96 L 5734.44,2663.96 Z " />
<path stroke="transparent" fill="#000000" transform="matrix(0.0833333 0 0 0.0833333 -128.875 -153)" d="M 5739.79,2722.4 L 5763.45,2722.4 L 5761.62,2742.4 L 5741.62,2742.4 L 5739.79,2722.4 Z " />
<path stroke="transparent" fill="#000000" transform="matrix(0.0833333 0 0 0.0833333 -128.875 -153)" d="M 7820.03,2730.64 L 7840.03,2857.87 L 7320.41,3102.78 L 7310.41,3096.48 L 7309.95,3084.67 L 7820.03,2730.64 Z " />
<path stroke="transparent" fill="#000000" transform="matrix(0.0833333 0 0 0.0833333 -128.875 -153)" d="M 7820.03,2202.28 L 7830.03,2196.5 L 7840.03,2202.28 L 7840.03,2857.87 L 7820.03,2730.64 L 7820.03,2202.28 Z " />
<path stroke="transparent" fill="#000000" transform="matrix(0.0833333 0 0 0.0833333 -128.875 -153)" d="M 7305.41,1905.17 L 7315.41,1887.85 L 7830.03,2184.96 L 7830.03,2196.5 L 7820.03,2202.28 L 7305.41,1905.17 Z " />
<path stroke="transparent" fill="#000000" transform="matrix(0.0833333 0 0 0.0833333 -128.875 -153)" d="M 8344.58,1887.85 L 8354.58,1905.17 L 7840.03,2202.28 L 7830.03,2196.5 L 7830.03,2184.96 L 8344.58,1887.85 Z " />
<path stroke="transparent" fill="#000000" transform="matrix(0.0833333 0 0 0.0833333 -128.875 -153)" d="M 8332.74,4817.42 L 8272.74,4921.34 L 8256.44,4909.58 L 8314.41,4809.18 L 8332.74,4817.42 Z " />
<path stroke="transparent" fill="#000000" transform="matrix(0.0833333 0 0 0.0833333 -128.875 -153)" d="M 8278.68,4793.12 L 8224.67,4886.66 L 8208.37,4874.9 L 8260.34,4784.88 L 8278.68,4793.12 Z " />
<path stroke="transparent" fill="#000000" transform="matrix(0.0833333 0 0 0.0833333 -128.875 -153)" d="M 8224.61,4768.83 L 8176.6,4851.98 L 8160.29,4840.22 L 8206.27,4760.59 L 8224.61,4768.83 Z " />
<path stroke="transparent" fill="#000000" transform="matrix(0.0833333 0 0 0.0833333 -128.875 -153)" d="M 8170.54,4744.53 L 8128.53,4817.3 L 8112.22,4805.54 L 8152.21,4736.29 L 8170.54,4744.53 Z " />
<path stroke="transparent" fill="#000000" transform="matrix(0.0833333 0 0 0.0833333 -128.875 -153)" d="M 8116.48,4720.24 L 8080.46,4782.62 L 8064.15,4770.86 L 8098.14,4712 L 8116.48,4720.24 Z " />
<path stroke="transparent" fill="#000000" transform="matrix(0.0833333 0 0 0.0833333 -128.875 -153)" d="M 8062.41,4695.94 L 8032.39,4747.94 L 8016.08,4736.18 L 8044.07,4687.7 L 8062.41,4695.94 Z " />
<path stroke="transparent" fill="#000000" transform="matrix(0.0833333 0 0 0.0833333 -128.875 -153)" d="M 8008.34,4671.65 L 7984.31,4713.26 L 7968.01,4701.5 L 7990,4663.41 L 8008.34,4671.65 Z " />
<path stroke="transparent" fill="#000000" transform="matrix(0.0833333 0 0 0.0833333 -128.875 -153)" d="M 7954.27,4647.35 L 7936.24,4678.58 L 7919.94,4666.82 L 7935.94,4639.11 L 7954.27,4647.35 Z " />
<path stroke="transparent" fill="#000000" transform="matrix(0.0833333 0 0 0.0833333 -128.875 -153)" d="M 7900.21,4623.06 L 7888.17,4643.9 L 7871.87,4632.14 L 7881.87,4614.82 L 7900.21,4623.06 Z " />
<path stroke="transparent" fill="#000000" transform="matrix(0.0833333 0 0 0.0833333 -128.875 -153)" d="M 8359.58,5496.41 L 8339.58,5496.41 L 8339.58,4890.65 L 8359.58,4902.2 L 8359.58,5496.41 Z " />
<path stroke="transparent" fill="#000000" transform="matrix(0.0833333 0 0 0.0833333 -128.875 -153)" d="M 8864.2,4587.77 L 8874.2,4605.09 L 8359.58,4902.2 L 8339.58,4890.65 L 8864.2,4587.77 Z " />
</svg>
