<?xml version="1.0"?><svg xmlns="http://www.w3.org/2000/svg" xmlns:xlink="http://www.w3.org/1999/xlink" viewBox="105.41 157.63 312.5 299.74" preserveAspectRatio="xMidYMid" width="100%" height="100%"><clipPath id="101"><rect x="0.5" y="0.5" width="522.32" height="768.92" /></clipPath><g id="drawing"><rect x="105.41" y="157.63" width="100%" height="100%" fill="rgb(255, 255, 255)" /><g id="page" clip-path="url(#101)"><g><text xml:space="preserve" text-anchor="start" text-rendering="geometricPrecision"><tspan x="307.38" y="331.33" font-family="Arial" font-size="10" fill="rgb(0, 0, 0)">O</tspan></text></g><g><text xml:space="preserve" text-anchor="start" text-rendering="geometricPrecision"><tspan x="329.41" y="378.39" font-family="Arial" font-size="10" fill="rgb(0, 0, 0)">O</tspan></text></g><g><text xml:space="preserve" text-anchor="start" text-rendering="geometricPrecision"><tspan x="149.71" y="379.26" font-family="Arial" font-size="10" fill="rgb(0, 0, 0)">O</tspan></text></g><g><text xml:space="preserve" text-anchor="start" text-rendering="geometricPrecision"><tspan x="157.37" y="359.98" font-family="Arial" font-size="10" fill="rgb(0, 0, 0)">O</tspan></text></g><g><text xml:space="preserve" text-anchor="start" text-rendering="geometricPrecision"><tspan x="105.41" y="359.98" font-family="Arial" font-size="10" fill="rgb(0, 0, 0)">O</tspan></text></g><g><text xml:space="preserve" text-anchor="start" text-rendering="geometricPrecision"><tspan x="198.46" y="268.83" font-family="Arial" font-size="10" fill="rgb(0, 0, 0)">O</tspan></text></g><g><text xml:space="preserve" text-anchor="start" text-rendering="geometricPrecision"><tspan x="150.4" y="249.06" font-family="Arial" font-size="10" fill="rgb(0, 0, 0)">O</tspan></text></g><g><text xml:space="preserve" text-anchor="start" text-rendering="geometricPrecision"><tspan x="231.2" y="283.39" font-family="Arial" font-size="10" fill="rgb(0, 0, 0)">O</tspan></text></g><g><text xml:space="preserve" text-anchor="start" text-rendering="geometricPrecision"><tspan x="256.75" y="238.15" font-family="Arial" font-size="10" fill="rgb(0, 0, 0)">O</tspan></text></g><g id="Solid"><line x1="281.74" y1="293.48" x2="265.77" y2="318.85" stroke="rgb(0, 0, 0)" stroke-width="1" shape-rendering="auto" /><path d="M279.12 291.83 L279.12 291.83 L278.27 291.3 L262.22 316.8 L263.23 317.08 Z" stroke="rgb(0, 0, 0)" stroke-width="0" fill-rule="evenodd" stroke-linejoin="miter" fill="rgb(0, 0, 0)" shape-rendering="geometricPrecision" /><path d="M282.17 293.74 L282.17 293.74 L281.32 293.21 L265.42 318.46 L266.11 319.24 Z" stroke="rgb(0, 0, 0)" stroke-width="0" fill-rule="evenodd" stroke-linejoin="miter" fill="rgb(0, 0, 0)" shape-rendering="geometricPrecision" /></g><g id="Solid"><path d="M263.97 318.33 L263.97 318.33 L264.25 317.89 L264.53 317.45 L284.24 339.77 L284.11 340.38 L283.64 340.6 Z" stroke="rgb(0, 0, 0)" stroke-width="0" fill-rule="evenodd" stroke-linejoin="miter" fill="rgb(0, 0, 0)" shape-rendering="geometricPrecision" /></g><g id="Solid"><path d="M284.66 340.67 L284.66 340.67 L284.11 340.38 L284.24 339.77 L305.98 329.59 L306.19 330.04 L306.4 330.5 Z" stroke="rgb(0, 0, 0)" stroke-width="0" fill-rule="evenodd" stroke-linejoin="miter" fill="rgb(0, 0, 0)" shape-rendering="geometricPrecision" /></g><g id="Solid"><path d="M315.85 331.46 L315.85 331.46 L316.14 331.05 L316.43 330.64 L335.93 344.24 L335.88 344.82 L335.83 345.4 Z" stroke="rgb(0, 0, 0)" stroke-width="0" fill-rule="evenodd" stroke-linejoin="miter" fill="rgb(0, 0, 0)" shape-rendering="geometricPrecision" /></g><g id="Solid"><line x1="337.67" y1="344.97" x2="335.58" y2="369.36" stroke="rgb(0, 0, 0)" stroke-width="1" shape-rendering="auto" /><path d="M334.6 344.54 L334.6 344.54 L333.65 343.88 L331.5 369.01 L332.5 369.1 Z" stroke="rgb(0, 0, 0)" stroke-width="0" fill-rule="evenodd" stroke-linejoin="miter" fill="rgb(0, 0, 0)" shape-rendering="geometricPrecision" /><path d="M338.24 344.27 L338.24 344.27 L337.19 344.76 L335.09 369.32 L336.08 369.4 Z" stroke="rgb(0, 0, 0)" stroke-width="0" fill-rule="evenodd" stroke-linejoin="miter" fill="rgb(0, 0, 0)" shape-rendering="geometricPrecision" /></g><g id="Solid"><path d="M335.83 345.4 L335.83 345.4 L335.88 344.82 L335.93 344.24 L362.58 331.77 L363.05 332.1 L363 332.68 Z" stroke="rgb(0, 0, 0)" stroke-width="0" fill-rule="evenodd" stroke-linejoin="miter" fill="rgb(0, 0, 0)" shape-rendering="geometricPrecision" /></g><g id="Solid"><path d="M363 332.68 L363 332.68 L363.05 332.1 L363.57 331.86 L387.71 348.69 L387.66 349.27 L387.61 349.85 Z" stroke="rgb(0, 0, 0)" stroke-width="0" fill-rule="evenodd" stroke-linejoin="miter" fill="rgb(0, 0, 0)" shape-rendering="geometricPrecision" /><line x1="366.82" y1="330.34" x2="388.02" y2="345.13" stroke="rgb(0, 0, 0)" stroke-width="1" shape-rendering="auto" /></g><g id="Solid"><path d="M387.61 349.85 L387.61 349.85 L387.66 349.27 L387.71 348.69 L414.35 336.22 L414.82 336.55 L415.29 336.88 Z" stroke="rgb(0, 0, 0)" stroke-width="0" fill-rule="evenodd" stroke-linejoin="miter" fill="rgb(0, 0, 0)" shape-rendering="geometricPrecision" /></g><g id="Solid"><path d="M415.29 336.88 L415.29 336.88 L414.82 336.55 L414.35 336.22 L416.87 306.9 L417.39 306.66 L417.91 306.42 Z" stroke="rgb(0, 0, 0)" stroke-width="0" fill-rule="evenodd" stroke-linejoin="miter" fill="rgb(0, 0, 0)" shape-rendering="geometricPrecision" /><line x1="411.41" y1="334.17" x2="413.63" y2="308.42" stroke="rgb(0, 0, 0)" stroke-width="1" shape-rendering="auto" /></g><g id="Solid"><path d="M417.91 306.42 L417.91 306.42 L417.39 306.66 L416.87 306.9 L392.74 290.07 L392.79 289.49 L392.84 288.91 Z" stroke="rgb(0, 0, 0)" stroke-width="0" fill-rule="evenodd" stroke-linejoin="miter" fill="rgb(0, 0, 0)" shape-rendering="geometricPrecision" /></g><g id="Solid"><path d="M392.84 288.91 L392.84 288.91 L392.79 289.49 L392.74 290.07 L366.09 302.54 L365.62 302.21 L365.15 301.88 Z" stroke="rgb(0, 0, 0)" stroke-width="0" fill-rule="evenodd" stroke-linejoin="miter" fill="rgb(0, 0, 0)" shape-rendering="geometricPrecision" /><line x1="392.43" y1="293.63" x2="369.03" y2="304.59" stroke="rgb(0, 0, 0)" stroke-width="1" shape-rendering="auto" /></g><g id="Solid"><path d="M363.57 331.86 L363.57 331.86 L363.05 332.1 L362.58 331.77 L365.15 301.88 L365.62 302.21 L366.09 302.54 Z" stroke="rgb(0, 0, 0)" stroke-width="0" fill-rule="evenodd" stroke-linejoin="miter" fill="rgb(0, 0, 0)" shape-rendering="geometricPrecision" /></g><g id="Solid"><path d="M283.64 340.6 L283.64 340.6 L284.11 340.38 L284.66 340.67 L289.18 370.1 L288.66 370.03 L288.14 369.96 Z" stroke="rgb(0, 0, 0)" stroke-width="0" fill-rule="evenodd" stroke-linejoin="miter" fill="rgb(0, 0, 0)" shape-rendering="geometricPrecision" /></g><g id="Solid"><path d="M288.14 369.96 L288.14 369.96 L288.66 370.03 L289.18 370.1 L276.97 397.53 L276.46 397.44 L276.06 397.1 Z" stroke="rgb(0, 0, 0)" stroke-width="0" fill-rule="evenodd" stroke-linejoin="miter" fill="rgb(0, 0, 0)" shape-rendering="geometricPrecision" /></g><g id="Solid"><path d="M276.06 397.1 L276.06 397.1 L276.46 397.44 L276.01 398.33 L252.38 413.84 L251.38 413.9 L251.23 413.4 Z" stroke="rgb(0, 0, 0)" stroke-width="0" fill-rule="evenodd" stroke-linejoin="miter" fill="rgb(0, 0, 0)" shape-rendering="geometricPrecision" /></g><g id="Solid"><path d="M251.23 413.4 L251.23 413.4 L251.38 413.9 L251.26 414.4 L221.24 414.68 L221.38 414.18 L221.52 413.68 Z" stroke="rgb(0, 0, 0)" stroke-width="0" fill-rule="evenodd" stroke-linejoin="miter" fill="rgb(0, 0, 0)" shape-rendering="geometricPrecision" /></g><g id="Solid"><path d="M221.52 413.68 L221.52 413.68 L221.38 414.18 L221.24 414.68 L196.04 398.82 L195.99 398.2 L196.38 397.86 Z" stroke="rgb(0, 0, 0)" stroke-width="0" fill-rule="evenodd" stroke-linejoin="miter" fill="rgb(0, 0, 0)" shape-rendering="geometricPrecision" /><line x1="222.4" y1="410.57" x2="198.8" y2="395.72" stroke="rgb(0, 0, 0)" stroke-width="1" shape-rendering="auto" /></g><g id="Solid"><path d="M195.38 398.07 L195.38 398.07 L195.99 398.2 L196.04 398.82 L173.83 418.43 L173.5 418.06 L173.17 417.69 Z" stroke="rgb(0, 0, 0)" stroke-width="0" fill-rule="evenodd" stroke-linejoin="miter" fill="rgb(0, 0, 0)" shape-rendering="geometricPrecision" /></g><g id="Solid"><path d="M196.38 397.86 L196.38 397.86 L195.99 398.2 L195.38 398.07 L182.75 371.11 L183.27 371.03 L183.79 370.95 Z" stroke="rgb(0, 0, 0)" stroke-width="0" fill-rule="evenodd" stroke-linejoin="miter" fill="rgb(0, 0, 0)" shape-rendering="geometricPrecision" /></g><g id="Solid"><line x1="183.54" y1="372.81" x2="159.35" y2="376.53" stroke="rgb(0, 0, 0)" stroke-width="1" shape-rendering="auto" /><path d="M182.93 369.77 L182.93 369.77 L183.07 368.73 L158.73 372.48 L158.88 373.46 Z" stroke="rgb(0, 0, 0)" stroke-width="0" fill-rule="evenodd" stroke-linejoin="miter" fill="rgb(0, 0, 0)" shape-rendering="geometricPrecision" /><path d="M183.77 373.28 L183.77 373.28 L183.33 372.34 L159.27 376.03 L159.43 377.02 Z" stroke="rgb(0, 0, 0)" stroke-width="0" fill-rule="evenodd" stroke-linejoin="miter" fill="rgb(0, 0, 0)" shape-rendering="geometricPrecision" /></g><g id="Solid"><path d="M183.79 370.95 L183.79 370.95 L183.27 371.03 L182.75 371.11 L186.62 342.24 L187.25 341.3 L187.73 341.51 Z" stroke="rgb(0, 0, 0)" stroke-width="0" fill-rule="evenodd" stroke-linejoin="miter" fill="rgb(0, 0, 0)" shape-rendering="geometricPrecision" /></g><g id="Solid"><path d="M186.12 341.38 L186.12 341.38 L187.25 341.3 L186.62 342.24 L166.48 353.87 L166.23 353.44 L165.98 353 Z" stroke="rgb(0, 0, 0)" stroke-width="0" fill-rule="evenodd" stroke-linejoin="miter" fill="rgb(0, 0, 0)" shape-rendering="geometricPrecision" /></g><g id="Solid"><path d="M156.62 353.04 L156.62 353.04 L156.37 353.47 L156.12 353.9 L134.79 341.59 L135.29 341.3 L135.79 341.01 Z" stroke="rgb(0, 0, 0)" stroke-width="0" fill-rule="evenodd" stroke-linejoin="miter" fill="rgb(0, 0, 0)" shape-rendering="geometricPrecision" /></g><g id="Solid"><path d="M135.79 341.01 L135.79 341.01 L135.29 341.3 L134.79 341.59 L134.79 311.3 L135.29 311.3 L135.79 311.3 Z" stroke="rgb(0, 0, 0)" stroke-width="0" fill-rule="evenodd" stroke-linejoin="miter" fill="rgb(0, 0, 0)" shape-rendering="geometricPrecision" /></g><g id="Solid"><line x1="136.19" y1="342.86" x2="115.43" y2="354.84" stroke="rgb(0, 0, 0)" stroke-width="1" shape-rendering="auto" /><path d="M134.79 340.09 L134.79 340.09 L134.79 338.93 L113.38 351.29 L113.88 352.16 Z" stroke="rgb(0, 0, 0)" stroke-width="0" fill-rule="evenodd" stroke-linejoin="miter" fill="rgb(0, 0, 0)" shape-rendering="geometricPrecision" /><path d="M137.09 342.92 L137.09 342.92 L136.09 342.34 L115.18 354.41 L115.68 355.28 Z" stroke="rgb(0, 0, 0)" stroke-width="0" fill-rule="evenodd" stroke-linejoin="miter" fill="rgb(0, 0, 0)" shape-rendering="geometricPrecision" /></g><g id="Solid"><path d="M187.1 340.7 L187.1 340.7 L187.25 341.3 L186.12 341.38 L158.98 330.21 L159.51 329.89 L160.04 329.57 Z" stroke="rgb(0, 0, 0)" stroke-width="0" fill-rule="evenodd" stroke-linejoin="miter" fill="rgb(0, 0, 0)" shape-rendering="geometricPrecision" /></g><g id="Solid"><path d="M160.04 329.57 L160.04 329.57 L159.51 329.89 L158.98 330.21 L161.27 300.19 L161.79 299.97 L162.26 300.37 Z" stroke="rgb(0, 0, 0)" stroke-width="0" fill-rule="evenodd" stroke-linejoin="miter" fill="rgb(0, 0, 0)" shape-rendering="geometricPrecision" /></g><g id="Solid"><path d="M161.92 299.42 L161.92 299.42 L161.79 299.97 L161.27 300.19 L138.61 280.92 L138.93 280.54 L139.25 280.16 Z" stroke="rgb(0, 0, 0)" stroke-width="0" fill-rule="evenodd" stroke-linejoin="miter" fill="rgb(0, 0, 0)" shape-rendering="geometricPrecision" /></g><g id="Solid"><path d="M162.26 300.37 L162.26 300.37 L161.79 299.97 L161.92 299.42 L190.58 292.47 L190.95 292.9 L190.71 293.47 Z" stroke="rgb(0, 0, 0)" stroke-width="0" fill-rule="evenodd" stroke-linejoin="miter" fill="rgb(0, 0, 0)" shape-rendering="geometricPrecision" /></g><g id="Solid"><path d="M191.51 292.85 L191.51 292.85 L190.95 292.9 L190.58 292.47 L199.6 270.56 L200.06 270.75 L200.52 270.94 Z" stroke="rgb(0, 0, 0)" stroke-width="0" fill-rule="evenodd" stroke-linejoin="miter" fill="rgb(0, 0, 0)" shape-rendering="geometricPrecision" /></g><g id="Solid"><path d="M199.18 260.21 L199.18 260.21 L198.78 260.52 L198.38 260.82 L183.47 241.48 L184.04 241.4 L184.61 241.32 Z" stroke="rgb(0, 0, 0)" stroke-width="0" fill-rule="evenodd" stroke-linejoin="miter" fill="rgb(0, 0, 0)" shape-rendering="geometricPrecision" /></g><g id="Solid"><line x1="184.28" y1="243.18" x2="160.02" y2="246.44" stroke="rgb(0, 0, 0)" stroke-width="1" shape-rendering="auto" /><path d="M184.04 240.09 L184.04 240.09 L184.48 239.02 L159.48 242.38 L159.61 243.37 Z" stroke="rgb(0, 0, 0)" stroke-width="0" fill-rule="evenodd" stroke-linejoin="miter" fill="rgb(0, 0, 0)" shape-rendering="geometricPrecision" /><path d="M185.09 243.58 L185.09 243.58 L184.38 242.67 L159.96 245.94 L160.09 246.93 Z" stroke="rgb(0, 0, 0)" stroke-width="0" fill-rule="evenodd" stroke-linejoin="miter" fill="rgb(0, 0, 0)" shape-rendering="geometricPrecision" /></g><g id="Solid"><path d="M184.61 241.32 L184.61 241.32 L184.04 241.4 L183.47 241.48 L194.89 213.74 L195.46 213.66 L195.81 214.12 Z" stroke="rgb(0, 0, 0)" stroke-width="0" fill-rule="evenodd" stroke-linejoin="miter" fill="rgb(0, 0, 0)" shape-rendering="geometricPrecision" /></g><g id="Solid"><path d="M195.68 213.13 L195.68 213.13 L195.46 213.66 L194.89 213.74 L176.57 189.98 L177.14 189.9 L177.71 189.82 Z" stroke="rgb(0, 0, 0)" stroke-width="0" fill-rule="evenodd" stroke-linejoin="miter" fill="rgb(0, 0, 0)" shape-rendering="geometricPrecision" /><line x1="197.04" y1="209.82" x2="181.26" y2="189.35" stroke="rgb(0, 0, 0)" stroke-width="1" shape-rendering="auto" /></g><g id="Solid"><path d="M177.71 189.82 L177.71 189.82 L177.14 189.9 L176.57 189.98 L188.2 161.7 L188.55 162.16 L188.9 162.62 Z" stroke="rgb(0, 0, 0)" stroke-width="0" fill-rule="evenodd" stroke-linejoin="miter" fill="rgb(0, 0, 0)" shape-rendering="geometricPrecision" /></g><g id="Solid"><path d="M188.9 162.62 L188.9 162.62 L188.55 162.16 L188.2 161.7 L218.51 157.64 L218.29 158.17 L218.07 158.7 Z" stroke="rgb(0, 0, 0)" stroke-width="0" fill-rule="evenodd" stroke-linejoin="miter" fill="rgb(0, 0, 0)" shape-rendering="geometricPrecision" /><line x1="191.09" y1="165.45" x2="216.71" y2="162.02" stroke="rgb(0, 0, 0)" stroke-width="1" shape-rendering="auto" /></g><g id="Solid"><path d="M218.07 158.7 L218.07 158.7 L218.29 158.17 L218.51 157.64 L237.18 181.85 L236.61 181.93 L236.04 182.01 Z" stroke="rgb(0, 0, 0)" stroke-width="0" fill-rule="evenodd" stroke-linejoin="miter" fill="rgb(0, 0, 0)" shape-rendering="geometricPrecision" /></g><g id="Solid"><path d="M236.04 182.01 L236.04 182.01 L236.61 181.93 L237.18 181.85 L225.54 210.13 L225.19 209.67 L224.84 209.21 Z" stroke="rgb(0, 0, 0)" stroke-width="0" fill-rule="evenodd" stroke-linejoin="miter" fill="rgb(0, 0, 0)" shape-rendering="geometricPrecision" /><line x1="232.49" y1="182.48" x2="222.65" y2="206.38" stroke="rgb(0, 0, 0)" stroke-width="1" shape-rendering="auto" /></g><g id="Solid"><path d="M195.81 214.12 L195.81 214.12 L195.46 213.66 L195.68 213.13 L224.84 209.21 L225.19 209.67 L225.54 210.13 Z" stroke="rgb(0, 0, 0)" stroke-width="0" fill-rule="evenodd" stroke-linejoin="miter" fill="rgb(0, 0, 0)" shape-rendering="geometricPrecision" /></g><g id="Solid"><path d="M190.71 293.47 L190.71 293.47 L190.95 292.9 L191.51 292.85 L206.9 317.85 L206.68 318.44 L206.06 318.39 Z" stroke="rgb(0, 0, 0)" stroke-width="0" fill-rule="evenodd" stroke-linejoin="miter" fill="rgb(0, 0, 0)" shape-rendering="geometricPrecision" /></g><g id="Solid"><path d="M187.73 341.51 L187.73 341.51 L187.25 341.3 L187.1 340.7 L206.06 318.39 L206.68 318.44 L206.97 318.88 Z" stroke="rgb(0, 0, 0)" stroke-width="0" fill-rule="evenodd" stroke-linejoin="miter" fill="rgb(0, 0, 0)" shape-rendering="geometricPrecision" /></g><g id="Solid"><path d="M206.97 318.88 L206.97 318.88 L206.68 318.44 L206.9 317.85 L234.89 309.35 L235.39 309.72 L235.39 310.24 Z" stroke="rgb(0, 0, 0)" stroke-width="0" fill-rule="evenodd" stroke-linejoin="miter" fill="rgb(0, 0, 0)" shape-rendering="geometricPrecision" /></g><g id="Solid"><path d="M264.53 317.45 L264.53 317.45 L264.25 317.89 L263.97 318.33 L235.39 310.24 L235.39 309.72 L235.89 309.34 Z" stroke="rgb(0, 0, 0)" stroke-width="0" fill-rule="evenodd" stroke-linejoin="miter" fill="rgb(0, 0, 0)" shape-rendering="geometricPrecision" /></g><g id="Solid"><path d="M235.89 309.34 L235.89 309.34 L235.39 309.72 L234.89 309.35 L234.66 285.6 L235.16 285.6 L235.66 285.6 Z" stroke="rgb(0, 0, 0)" stroke-width="0" fill-rule="evenodd" stroke-linejoin="miter" fill="rgb(0, 0, 0)" shape-rendering="geometricPrecision" /></g><g id="Solid"><path d="M240.38 277.19 L240.38 277.19 L240.12 276.76 L239.87 276.33 L260.93 263.89 L260.94 264.47 L260.95 265.05 Z" stroke="rgb(0, 0, 0)" stroke-width="0" fill-rule="evenodd" stroke-linejoin="miter" fill="rgb(0, 0, 0)" shape-rendering="geometricPrecision" /></g><g id="Solid"><path d="M260.95 265.05 L260.95 265.05 L260.94 264.47 L260.93 263.89 L287.33 278.75 L287.08 279.19 L286.83 279.63 Z" stroke="rgb(0, 0, 0)" stroke-width="0" fill-rule="evenodd" stroke-linejoin="miter" fill="rgb(0, 0, 0)" shape-rendering="geometricPrecision" /></g><g id="Solid"><line x1="259.14" y1="264.49" x2="258.91" y2="240.32" stroke="rgb(0, 0, 0)" stroke-width="1" shape-rendering="auto" /><path d="M262.24 264.63 L262.24 264.63 L263.25 265.2 L263.01 240.28 L262.01 240.29 Z" stroke="rgb(0, 0, 0)" stroke-width="0" fill-rule="evenodd" stroke-linejoin="miter" fill="rgb(0, 0, 0)" shape-rendering="geometricPrecision" /><path d="M258.65 265.24 L258.65 265.24 L259.64 264.66 L259.41 240.31 L258.41 240.32 Z" stroke="rgb(0, 0, 0)" stroke-width="0" fill-rule="evenodd" stroke-linejoin="miter" fill="rgb(0, 0, 0)" shape-rendering="geometricPrecision" /></g><g id="Solid"><path d="M251.26 414.4 L251.26 414.4 L251.38 413.9 L252.38 413.84 L277.62 426.55 L278.17 427.39 L277.69 427.71 Z" stroke="rgb(0, 0, 0)" stroke-width="0" fill-rule="evenodd" stroke-linejoin="miter" fill="rgb(0, 0, 0)" shape-rendering="geometricPrecision" /></g><g id="Solid"><path d="M276.01 398.33 L276.01 398.33 L276.46 397.44 L276.97 397.53 L278.65 427.07 L278.17 427.39 L277.62 426.55 Z" stroke="rgb(0, 0, 0)" stroke-width="0" fill-rule="evenodd" stroke-linejoin="miter" fill="rgb(0, 0, 0)" shape-rendering="geometricPrecision" /></g><g id="Solid"><path d="M277.69 427.71 L277.69 427.71 L278.17 427.39 L278.72 428.23 L280.39 457.31 L279.89 457.34 L279.39 457.37 Z" stroke="rgb(0, 0, 0)" stroke-width="0" fill-rule="evenodd" stroke-linejoin="miter" fill="rgb(0, 0, 0)" shape-rendering="geometricPrecision" /></g><g id="Solid"><path d="M278.72 428.23 L278.72 428.23 L278.17 427.39 L278.65 427.07 L305.19 440.43 L304.97 440.88 L304.75 441.33 Z" stroke="rgb(0, 0, 0)" stroke-width="0" fill-rule="evenodd" stroke-linejoin="miter" fill="rgb(0, 0, 0)" shape-rendering="geometricPrecision" /></g></g></g></svg>