<?xml version="1.0" standalone="no" ?>
<!DOCTYPE svg PUBLIC "-//W3C//DTD SVG 1.1//EN" "http://www.w3.org/Graphics/SVG/1.1/DTD/svg11.dtd">
<svg width="304px" height="101px" viewBox="0 0 304 101" style="background-color: #ffffff00" xmlns="http://www.w3.org/2000/svg" xmlns:xlink="http://www.w3.org/1999/xlink" version="1.1" >
<text x="0" y="0" stroke="transparent" fill="#000000" transform="matrix(0.0833333 0 0 0.0833333 22.7935 17.6376)" style="font:normal normal normal 200px 'Arial'" >
O</text>
<path stroke="transparent" fill="#000000" transform="matrix(0.0833333 0 0 0.0833333 -270.333 -310)" d="M 4173.71,3984.49 L 4192.02,3967.88 L 4257.19,4566.51 L 4247.81,4572.66 L 4237.08,4566.52 L 4173.71,3984.49 Z " />
<path stroke="transparent" fill="#000000" transform="matrix(0.0833333 0 0 0.0833333 -270.333 -310)" d="M 4107,4037.07 L 4126.89,4034.9 L 4180.51,4527.37 L 4160.63,4529.54 L 4107,4037.07 Z " />
<path stroke="transparent" fill="#000000" transform="matrix(0.0833333 0 0 0.0833333 -270.333 -310)" d="M 4192.02,3967.88 L 4173.71,3984.49 L 3702.05,3886.09 L 3706.13,3866.51 L 4192.02,3967.88 Z " />
<path stroke="transparent" fill="#000000" transform="matrix(0.0833333 0 0 0.0833333 -270.333 -310)" d="M 3526.87,3953.46 L 3544.23,3963.39 L 3309.76,4373.05 L 3285.18,4375.73 L 3526.87,3953.46 Z " />
<path stroke="transparent" fill="#000000" transform="matrix(0.0833333 0 0 0.0833333 -270.333 -310)" d="M 3285.18,4375.73 L 3309.76,4373.05 L 3703.14,4806.7 L 3698.09,4830.91 L 3285.18,4375.73 Z " />
<path stroke="transparent" fill="#000000" transform="matrix(0.0833333 0 0 0.0833333 -270.333 -310)" d="M 3378.54,4371.47 L 3393.35,4358.04 L 3726.2,4724.96 L 3711.38,4738.39 L 3378.54,4371.47 Z " />
<path stroke="transparent" fill="#000000" transform="matrix(0.0833333 0 0 0.0833333 -270.333 -310)" d="M 3698.09,4830.91 L 3703.14,4806.7 L 4237.08,4566.52 L 4247.81,4572.66 L 4247.26,4583.87 L 3698.09,4830.91 Z " />
<path stroke="transparent" fill="#000000" transform="matrix(0.0833333 0 0 0.0833333 -270.333 -310)" d="M 4247.26,4583.87 L 4247.81,4572.66 L 4257.19,4566.51 L 4768.5,4859.16 L 4768.58,4882.26 L 4247.26,4583.87 Z " />
<path stroke="transparent" fill="#000000" transform="matrix(0.0833333 0 0 0.0833333 -270.333 -310)" d="M 4768.58,4882.26 L 4768.5,4859.16 L 5286.98,4557.21 L 5287.06,4580.3 L 4768.58,4882.26 Z " />
<path stroke="transparent" fill="#000000" transform="matrix(0.0833333 0 0 0.0833333 -270.333 -310)" d="M 5287.06,4580.3 L 5286.98,4557.21 L 5807.71,4855.26 L 5807.8,4878.35 L 5287.06,4580.3 Z " />
<path stroke="transparent" fill="#000000" transform="matrix(0.0833333 0 0 0.0833333 -270.333 -310)" d="M 5807.8,4878.35 L 5807.71,4855.26 L 6316.27,4559.11 L 6326.3,4564.85 L 6326.34,4576.39 L 5807.8,4878.35 Z " />
<path stroke="transparent" fill="#000000" transform="matrix(0.0833333 0 0 0.0833333 -270.333 -310)" d="M 5812.48,4792.3 L 5802.41,4775.02 L 6249.1,4514.9 L 6259.17,4532.18 L 5812.48,4792.3 Z " />
<path stroke="transparent" fill="#000000" transform="matrix(0.0833333 0 0 0.0833333 -270.333 -310)" d="M 6314.04,3964.87 L 6334.04,3964.8 L 6336.27,4559.04 L 6326.3,4564.85 L 6316.27,4559.11 L 6314.04,3964.87 Z " />
<path stroke="transparent" fill="#000000" transform="matrix(0.0833333 0 0 0.0833333 -270.333 -310)" d="M 6326.34,4576.39 L 6326.3,4564.85 L 6336.27,4559.04 L 6852,4854.22 L 6842.06,4871.58 L 6326.34,4576.39 Z " />
</svg>
