<?xml version="1.0" standalone="no" ?>
<!DOCTYPE svg PUBLIC "-//W3C//DTD SVG 1.1//EN" "http://www.w3.org/Graphics/SVG/1.1/DTD/svg11.dtd">
<svg width="434px" height="247px" viewBox="0 0 434 247" style="background-color: #ffffff00" xmlns="http://www.w3.org/2000/svg" xmlns:xlink="http://www.w3.org/1999/xlink" version="1.1" >
<text x="0" y="0" stroke="transparent" fill="#000000" transform="matrix(0.0833333 0 0 0.0833333 188.764 243.214)" style="font:normal normal normal 200px 'Arial'" >
O</text>
<text x="0" y="0" stroke="transparent" fill="#000000" transform="matrix(0.0833333 0 0 0.0833333 405.274 18.2111)" style="font:normal normal normal 200px 'Arial'" >
OH</text>
<text x="0" y="0" stroke="transparent" fill="#000000" transform="matrix(0.0833333 0 0 0.0833333 188.765 93.2157)" style="font:normal normal normal 200px 'Arial'" >
O</text>
<text x="0" y="0" stroke="transparent" fill="#000000" transform="matrix(0.0833333 0 0 0.0833333 3.51853 93.2119)" style="font:normal normal normal 200px 'Arial'" >
HO</text>
<text x="0" y="0" stroke="transparent" fill="#000000" transform="matrix(0.0833333 0 0 0.0833333 3.5198 193.212)" style="font:normal normal normal 200px 'Arial'" >
HO</text>
<text x="0" y="0" stroke="transparent" fill="#000000" transform="matrix(0.0833333 0 0 0.0833333 102.16 243.213)" style="font:normal normal normal 200px 'Arial'" >
OH</text>
<path stroke="transparent" fill="#000000" transform="matrix(0.0833333 0 0 0.0833333 -201.25 -272)" d="M 4712.16,5483.78 L 4732.16,5483.78 L 4732.17,5999.4 L 4712.17,5999.4 L 4712.16,5483.78 Z " />
<path stroke="transparent" fill="#000000" transform="matrix(0.0833333 0 0 0.0833333 -201.25 -272)" d="M 4784.16,5483.78 L 4804.16,5483.78 L 4804.17,5999.4 L 4784.17,5999.4 L 4784.16,5483.78 Z " />
<path stroke="transparent" fill="#000000" transform="matrix(0.0833333 0 0 0.0833333 -201.25 -272)" d="M 5267.78,5198.8 L 5287.78,5210.35 L 4758.16,5516.12 L 4758.16,5493.02 L 5267.78,5198.8 Z " />
<path stroke="transparent" fill="#000000" transform="matrix(0.0833333 0 0 0.0833333 -201.25 -272)" d="M 5267.81,4610.37 L 5277.81,4604.6 L 5287.81,4610.37 L 5287.78,5210.35 L 5267.78,5198.8 L 5267.81,4610.37 Z " />
<path stroke="transparent" fill="#000000" transform="matrix(0.0833333 0 0 0.0833333 -201.25 -272)" d="M 5195.81,4646.16 L 5215.81,4646.16 L 5215.79,5163.01 L 5195.79,5163.01 L 5195.81,4646.16 Z " />
<path stroke="transparent" fill="#000000" transform="matrix(0.0833333 0 0 0.0833333 -201.25 -272)" d="M 5787.41,4298.77 L 5797.41,4304.55 L 5797.41,4316.09 L 5287.81,4610.37 L 5277.81,4604.6 L 5277.81,4593.05 L 5787.41,4298.77 Z " />
<path stroke="transparent" fill="#000000" transform="matrix(0.0833333 0 0 0.0833333 -201.25 -272)" d="M 6317.04,4593.01 L 6317.04,4616.1 L 5797.41,4316.09 L 5797.41,4304.55 L 5807.41,4298.77 L 6317.04,4593.01 Z " />
<path stroke="transparent" fill="#000000" transform="matrix(0.0833333 0 0 0.0833333 -201.25 -272)" d="M 6322.04,4512.75 L 6312.04,4530.07 L 5864.42,4271.64 L 5874.42,4254.32 L 6322.04,4512.75 Z " />
<path stroke="transparent" fill="#000000" transform="matrix(0.0833333 0 0 0.0833333 -201.25 -272)" d="M 6826.66,4298.79 L 6846.66,4310.33 L 6317.04,4616.1 L 6317.04,4593.01 L 6826.66,4298.79 Z " />
<path stroke="transparent" fill="#000000" transform="matrix(0.0833333 0 0 0.0833333 -201.25 -272)" d="M 6826.65,3710.33 L 6836.65,3704.56 L 6846.65,3710.33 L 6846.66,4310.33 L 6826.66,4298.79 L 6826.65,3710.33 Z " />
<path stroke="transparent" fill="#000000" transform="matrix(0.0833333 0 0 0.0833333 -201.25 -272)" d="M 6754.65,3746.13 L 6774.65,3746.13 L 6774.66,4262.99 L 6754.66,4262.99 L 6754.65,3746.13 Z " />
<path stroke="transparent" fill="#000000" transform="matrix(0.0833333 0 0 0.0833333 -201.25 -272)" d="M 7251.69,3453.38 L 7261.69,3470.7 L 6846.65,3710.33 L 6836.65,3704.56 L 6836.65,3693.01 L 7251.69,3453.38 Z " />
<path stroke="transparent" fill="#000000" transform="matrix(0.0833333 0 0 0.0833333 -201.25 -272)" d="M 6317.02,3416.1 L 6317.02,3393.01 L 6836.65,3693.01 L 6836.65,3704.56 L 6826.65,3710.33 L 6317.02,3416.1 Z " />
<path stroke="transparent" fill="#000000" transform="matrix(0.0833333 0 0 0.0833333 -201.25 -272)" d="M 5807.44,3710.34 L 5787.44,3698.79 L 6317.02,3393.01 L 6317.02,3416.1 L 5807.44,3710.34 Z " />
<path stroke="transparent" fill="#000000" transform="matrix(0.0833333 0 0 0.0833333 -201.25 -272)" d="M 5874.44,3754.79 L 5864.44,3737.47 L 6312.03,3479.03 L 6322.03,3496.35 L 5874.44,3754.79 Z " />
<path stroke="transparent" fill="#000000" transform="matrix(0.0833333 0 0 0.0833333 -201.25 -272)" d="M 5787.44,3698.79 L 5807.44,3710.34 L 5807.41,4298.77 L 5797.41,4304.55 L 5787.41,4298.77 L 5787.44,3698.79 Z " />
<path stroke="transparent" fill="#000000" transform="matrix(0.0833333 0 0 0.0833333 -201.25 -272)" d="M 4853.22,4371.01 L 4863.22,4353.68 L 5277.81,4593.05 L 5277.81,4604.6 L 5267.81,4610.37 L 4853.22,4371.01 Z " />
<path stroke="transparent" fill="#000000" transform="matrix(0.0833333 0 0 0.0833333 -201.25 -272)" d="M 4248.56,4610.36 L 4238.56,4604.58 L 4238.56,4593.04 L 4653.58,4353.43 L 4663.58,4370.75 L 4248.56,4610.36 Z " />
<path stroke="transparent" fill="#000000" transform="matrix(0.0833333 0 0 0.0833333 -201.25 -272)" d="M 3718.94,4316.12 L 3718.94,4293.03 L 4238.56,4593.04 L 4238.56,4604.58 L 4228.56,4610.36 L 3718.94,4316.12 Z " />
<path stroke="transparent" fill="#000000" transform="matrix(0.0833333 0 0 0.0833333 -201.25 -272)" d="M 3713.93,4396.37 L 3723.93,4379.05 L 4171.56,4637.49 L 4161.56,4654.81 L 3713.93,4396.37 Z " />
<path stroke="transparent" fill="#000000" transform="matrix(0.0833333 0 0 0.0833333 -201.25 -272)" d="M 3209.28,4610.32 L 3199.28,4604.55 L 3199.28,4593 L 3718.94,4293.03 L 3718.94,4316.12 L 3209.28,4610.32 Z " />
<path stroke="transparent" fill="#000000" transform="matrix(0.0833333 0 0 0.0833333 -201.25 -272)" d="M 2774.68,4370.95 L 2784.68,4353.63 L 3199.28,4593 L 3199.28,4604.55 L 3189.28,4610.32 L 2774.68,4370.95 Z " />
<path stroke="transparent" fill="#000000" transform="matrix(0.0833333 0 0 0.0833333 -201.25 -272)" d="M 3209.29,5198.78 L 3199.29,5204.55 L 3189.29,5198.78 L 3189.28,4610.32 L 3199.28,4604.55 L 3209.28,4610.32 L 3209.29,5198.78 Z " />
<path stroke="transparent" fill="#000000" transform="matrix(0.0833333 0 0 0.0833333 -201.25 -272)" d="M 3281.29,5162.98 L 3261.29,5162.98 L 3261.28,4646.12 L 3281.28,4646.12 L 3281.29,5162.98 Z " />
<path stroke="transparent" fill="#000000" transform="matrix(0.0833333 0 0 0.0833333 -201.25 -272)" d="M 2777.28,5459.74 L 2767.28,5442.41 L 3189.29,5198.78 L 3199.29,5204.55 L 3199.29,5216.1 L 2777.28,5459.74 Z " />
<path stroke="transparent" fill="#000000" transform="matrix(0.0833333 0 0 0.0833333 -201.25 -272)" d="M 3718.92,5493.01 L 3718.92,5504.56 L 3708.92,5510.33 L 3199.29,5216.1 L 3199.29,5204.55 L 3209.29,5198.78 L 3718.92,5493.01 Z " />
<path stroke="transparent" fill="#000000" transform="matrix(0.0833333 0 0 0.0833333 -201.25 -272)" d="M 3728.92,5999.39 L 3708.92,5999.39 L 3708.92,5510.33 L 3718.92,5504.56 L 3728.92,5510.33 L 3728.92,5999.39 Z " />
<path stroke="transparent" fill="#000000" transform="matrix(0.0833333 0 0 0.0833333 -201.25 -272)" d="M 4228.57,5198.81 L 4238.57,5204.58 L 4238.57,5216.13 L 3728.92,5510.33 L 3718.92,5504.56 L 3718.92,5493.01 L 4228.57,5198.81 Z " />
<path stroke="transparent" fill="#000000" transform="matrix(0.0833333 0 0 0.0833333 -201.25 -272)" d="M 4161.57,5154.35 L 4171.57,5171.67 L 3723.92,5430.08 L 3713.92,5412.76 L 4161.57,5154.35 Z " />
<path stroke="transparent" fill="#000000" transform="matrix(0.0833333 0 0 0.0833333 -201.25 -272)" d="M 4238.57,5216.13 L 4238.57,5204.58 L 4248.57,5198.81 L 4758.16,5493.02 L 4758.16,5516.12 L 4238.57,5216.13 Z " />
<path stroke="transparent" fill="#000000" transform="matrix(0.0833333 0 0 0.0833333 -201.25 -272)" d="M 4248.57,5198.81 L 4238.57,5204.58 L 4228.57,5198.81 L 4228.56,4610.36 L 4238.56,4604.58 L 4248.56,4610.36 L 4248.57,5198.81 Z " />
</svg>
