<?xml version="1.0" standalone="no" ?>
<!DOCTYPE svg PUBLIC "-//W3C//DTD SVG 1.1//EN" "http://www.w3.org/Graphics/SVG/1.1/DTD/svg11.dtd">
<svg width="194px" height="175px" viewBox="0 0 194 175" style="background-color: #ffffff00" xmlns="http://www.w3.org/2000/svg" xmlns:xlink="http://www.w3.org/1999/xlink" version="1.1" >
<path stroke="transparent" fill="#000000" transform="matrix(0.0833333 0 0 0.0833333 -336.917 -276.417)" d="M 4093.79,4029.53 L 4087.86,4010.43 L 4644.45,3837.91 L 4663.95,3842.33 L 4656.62,3855.08 L 4093.79,4029.53 Z " />
<path stroke="transparent" fill="#000000" transform="matrix(0.0833333 0 0 0.0833333 -336.917 -276.417)" d="M 4216.74,3442.17 L 4230.32,3427.49 L 4662.83,3827.67 L 4663.95,3842.33 L 4644.45,3837.91 L 4216.74,3442.17 Z " />
<path stroke="transparent" fill="#000000" transform="matrix(0.0833333 0 0 0.0833333 -336.917 -276.417)" d="M 5385.87,5181.47 L 5365.87,5181.5 L 5365.15,4669.33 L 5385.14,4669.3 L 5385.87,5181.47 Z " />
<path stroke="transparent" fill="#000000" transform="matrix(0.0833333 0 0 0.0833333 -336.917 -276.417)" d="M 5313.87,5181.57 L 5293.87,5181.6 L 5293.15,4669.43 L 5313.15,4669.4 L 5313.87,5181.57 Z " />
<path stroke="transparent" fill="#000000" transform="matrix(0.0833333 0 0 0.0833333 -336.917 -276.417)" d="M 5339.18,4697.8 L 5339.15,4675.6 L 5870.7,4418.7 L 5879.39,4425.6 L 5877.61,4437.57 L 5339.18,4697.8 Z " />
<path stroke="transparent" fill="#000000" transform="matrix(0.0833333 0 0 0.0833333 -336.917 -276.417)" d="M 5339.15,4675.6 L 5339.18,4697.8 L 4789.57,4434.04 L 4806.9,4420.17 L 5339.15,4675.6 Z " />
<path stroke="transparent" fill="#000000" transform="matrix(0.0833333 0 0 0.0833333 -336.917 -276.417)" d="M 4806.9,4420.17 L 4789.57,4434.04 L 4656.62,3855.08 L 4663.95,3842.33 L 4674.77,3844.79 L 4806.9,4420.17 Z " />
<path stroke="transparent" fill="#000000" transform="matrix(0.0833333 0 0 0.0833333 -336.917 -276.417)" d="M 4674.77,3844.79 L 4663.95,3842.33 L 4662.83,3827.67 L 5032.53,3362.71 L 5042.19,3382.7 L 4674.77,3844.79 Z " />
<path stroke="transparent" fill="#000000" transform="matrix(0.0833333 0 0 0.0833333 -336.917 -276.417)" d="M 5042.19,3382.7 L 5032.53,3362.71 L 5642.15,3361.92 L 5632.54,3381.93 L 5042.19,3382.7 Z " />
<path stroke="transparent" fill="#000000" transform="matrix(0.0833333 0 0 0.0833333 -336.917 -276.417)" d="M 5072.15,3454.66 L 5072.12,3434.66 L 5602.76,3433.97 L 5602.78,3453.97 L 5072.15,3454.66 Z " />
<path stroke="transparent" fill="#000000" transform="matrix(0.0833333 0 0 0.0833333 -336.917 -276.417)" d="M 5632.54,3381.93 L 5642.15,3361.92 L 6022.91,3837.97 L 6001.28,3842.94 L 5632.54,3381.93 Z " />
<path stroke="transparent" fill="#000000" transform="matrix(0.0833333 0 0 0.0833333 -336.917 -276.417)" d="M 6001.28,3842.94 L 6022.91,3837.97 L 5890.42,4422.18 L 5879.39,4425.6 L 5870.7,4418.7 L 6001.28,3842.94 Z " />
<path stroke="transparent" fill="#000000" transform="matrix(0.0833333 0 0 0.0833333 -336.917 -276.417)" d="M 5924.46,3856.14 L 5943.96,3860.56 L 5826.6,4378.08 L 5807.09,4373.65 L 5924.46,3856.14 Z " />
<path stroke="transparent" fill="#000000" transform="matrix(0.0833333 0 0 0.0833333 -336.917 -276.417)" d="M 5877.61,4437.57 L 5879.39,4425.6 L 5890.42,4422.18 L 6326.61,4825.77 L 6313.02,4840.45 L 5877.61,4437.57 Z " />
<text x="0" y="0" stroke="transparent" fill="#000000" transform="matrix(0.0833333 0 0 0.0833333 101.585 170.642)" style="font:normal normal normal 200px 'Arial'" >
O</text>
</svg>
