<?xml version="1.0" standalone="no" ?>
<!DOCTYPE svg PUBLIC "-//W3C//DTD SVG 1.1//EN" "http://www.w3.org/Graphics/SVG/1.1/DTD/svg11.dtd">
<svg width="270px" height="239px" viewBox="0 0 270 239" style="background-color: #ffffff00" xmlns="http://www.w3.org/2000/svg" xmlns:xlink="http://www.w3.org/1999/xlink" version="1.1" >
<text x="0" y="0" stroke="transparent" fill="#000000" transform="matrix(0.0833333 0 0 0.0833333 40.15 17.8362)" style="font:normal normal normal 200px 'Arial'" >
O</text>
<text x="0" y="0" stroke="transparent" fill="#000000" transform="matrix(0.0833333 0 0 0.0833333 216.155 165.139)" style="font:normal normal normal 200px 'Arial'" >
N</text>
<text x="0" y="0" stroke="transparent" fill="#000000" transform="matrix(0.0833333 0 0 0.0833333 85.1034 92.1554)" style="font:normal normal normal 200px 'Arial'" >
N</text>
<path stroke="transparent" fill="#000000" transform="matrix(0.0833333 0 0 0.0833333 -301.208 -240)" d="M 4229.9,3636.03 L 4209.91,3636.34 L 4202.15,3135.44 L 4222.15,3135.13 L 4229.9,3636.03 Z " />
<path stroke="transparent" fill="#000000" transform="matrix(0.0833333 0 0 0.0833333 -301.208 -240)" d="M 4157.91,3637.14 L 4137.92,3637.45 L 4130.16,3136.56 L 4150.16,3136.25 L 4157.91,3637.14 Z " />
<path stroke="transparent" fill="#000000" transform="matrix(0.0833333 0 0 0.0833333 -301.208 -240)" d="M 3678.76,3929.58 L 3658.58,3918.34 L 4183.41,3604.42 L 4183.77,3627.51 L 3678.76,3929.58 Z " />
<path stroke="transparent" fill="#000000" transform="matrix(0.0833333 0 0 0.0833333 -301.208 -240)" d="M 3687.82,4517.93 L 3668,4529.78 L 3658.58,3918.34 L 3678.76,3929.58 L 3687.82,4517.93 Z " />
<path stroke="transparent" fill="#000000" transform="matrix(0.0833333 0 0 0.0833333 -301.208 -240)" d="M 4201.94,4804.24 L 4202.29,4827.33 L 3668,4529.78 L 3687.82,4517.93 L 4201.94,4804.24 Z " />
<path stroke="transparent" fill="#000000" transform="matrix(0.0833333 0 0 0.0833333 -301.208 -240)" d="M 4706.94,4502.18 L 4717.03,4507.79 L 4717.21,4519.34 L 4202.29,4827.33 L 4201.94,4804.24 L 4706.94,4502.18 Z " />
<path stroke="transparent" fill="#000000" transform="matrix(0.0833333 0 0 0.0833333 -301.208 -240)" d="M 5241.06,4788.18 L 5241.24,4799.73 L 5231.33,4805.65 L 4717.21,4519.34 L 4717.03,4507.79 L 4726.94,4501.87 L 5241.06,4788.18 Z " />
<path stroke="transparent" fill="#000000" transform="matrix(0.0833333 0 0 0.0833333 -301.208 -240)" d="M 5260.43,5393.73 L 5240.62,5405.58 L 5231.33,4805.65 L 5241.24,4799.73 L 5251.32,4805.34 L 5260.43,5393.73 Z " />
<path stroke="transparent" fill="#000000" transform="matrix(0.0833333 0 0 0.0833333 -301.208 -240)" d="M 5774.55,5680.04 L 5774.91,5703.13 L 5240.62,5405.58 L 5260.43,5393.73 L 5774.55,5680.04 Z " />
<path stroke="transparent" fill="#000000" transform="matrix(0.0833333 0 0 0.0833333 -301.208 -240)" d="M 6279.56,5377.97 L 6299.74,5389.21 L 5774.91,5703.13 L 5774.55,5680.04 L 6279.56,5377.97 Z " />
<path stroke="transparent" fill="#000000" transform="matrix(0.0833333 0 0 0.0833333 -301.208 -240)" d="M 6272.18,4901.13 L 6292.17,4900.82 L 6299.74,5389.21 L 6279.56,5377.97 L 6272.18,4901.13 Z " />
<path stroke="transparent" fill="#000000" transform="matrix(0.0833333 0 0 0.0833333 -301.208 -240)" d="M 6785.24,4470.08 L 6805.42,4481.32 L 6388.67,4730.54 L 6378.41,4713.38 L 6785.24,4470.08 Z " />
<path stroke="transparent" fill="#000000" transform="matrix(0.0833333 0 0 0.0833333 -301.208 -240)" d="M 6776.13,3881.7 L 6795.95,3869.84 L 6805.42,4481.32 L 6785.24,4470.08 L 6776.13,3881.7 Z " />
<path stroke="transparent" fill="#000000" transform="matrix(0.0833333 0 0 0.0833333 -301.208 -240)" d="M 6262.01,3595.38 L 6261.65,3572.29 L 6795.95,3869.84 L 6776.13,3881.7 L 6262.01,3595.38 Z " />
<path stroke="transparent" fill="#000000" transform="matrix(0.0833333 0 0 0.0833333 -301.208 -240)" d="M 5757,3897.45 L 5746.92,3891.83 L 5746.74,3880.29 L 6261.65,3572.29 L 6262.01,3595.38 L 5757,3897.45 Z " />
<path stroke="transparent" fill="#000000" transform="matrix(0.0833333 0 0 0.0833333 -301.208 -240)" d="M 5222.84,3611.41 L 5222.48,3588.32 L 5746.74,3880.29 L 5746.92,3891.83 L 5737.01,3897.76 L 5222.84,3611.41 Z " />
<path stroke="transparent" fill="#000000" transform="matrix(0.0833333 0 0 0.0833333 -301.208 -240)" d="M 4816.05,3854.73 L 4805.79,3837.57 L 5222.48,3588.32 L 5222.84,3611.41 L 4816.05,3854.73 Z " />
<path stroke="transparent" fill="#000000" transform="matrix(0.0833333 0 0 0.0833333 -301.208 -240)" d="M 4608.28,3841.03 L 4598.55,3858.5 L 4183.77,3627.51 L 4183.41,3604.42 L 4608.28,3841.03 Z " />
<path stroke="transparent" fill="#000000" transform="matrix(0.0833333 0 0 0.0833333 -301.208 -240)" d="M 4699.56,4025.33 L 4719.56,4025.02 L 4726.94,4501.87 L 4717.03,4507.79 L 4706.94,4502.18 L 4699.56,4025.33 Z " />
<path stroke="transparent" fill="#000000" transform="matrix(0.0833333 0 0 0.0833333 -301.208 -240)" d="M 5766.06,4485.8 L 5756.15,4491.73 L 5746.06,4486.11 L 5737.01,3897.76 L 5746.92,3891.83 L 5757,3897.45 L 5766.06,4485.8 Z " />
<path stroke="transparent" fill="#000000" transform="matrix(0.0833333 0 0 0.0833333 -301.208 -240)" d="M 5746.06,4486.11 L 5756.15,4491.73 L 5756.33,4503.28 L 5251.32,4805.34 L 5241.24,4799.73 L 5241.06,4788.18 L 5746.06,4486.11 Z " />
<path stroke="transparent" fill="#000000" transform="matrix(0.0833333 0 0 0.0833333 -301.208 -240)" d="M 5756.33,4503.28 L 5756.15,4491.73 L 5766.06,4485.8 L 6180.9,4716.83 L 6171.17,4734.3 L 5756.33,4503.28 Z " />
</svg>
