<?xml version="1.0" standalone="no" ?>
<!DOCTYPE svg PUBLIC "-//W3C//DTD SVG 1.1//EN" "http://www.w3.org/Graphics/SVG/1.1/DTD/svg11.dtd">
<svg width="564px" height="372px" viewBox="0 0 564 372" style="background-color: #ffffff00" xmlns="http://www.w3.org/2000/svg" xmlns:xlink="http://www.w3.org/1999/xlink" version="1.1" >
<path stroke="transparent" fill="#000000" transform="matrix(0.0833333 0 0 0.0833333 -175.542 -141.5)" d="M 8524.2,2678.87 L 8514.2,2696.19 L 8092.2,2452.55 L 8092.2,2429.45 L 8524.2,2678.87 Z " />
<path stroke="transparent" fill="#000000" transform="matrix(0.0833333 0 0 0.0833333 -175.542 -141.5)" d="M 8092.2,2429.45 L 8092.2,2452.55 L 7582.59,2746.77 L 7572.59,2741 L 7572.59,2729.45 L 8092.2,2429.45 Z " />
<path stroke="transparent" fill="#000000" transform="matrix(0.0833333 0 0 0.0833333 -175.542 -141.5)" d="M 7062.97,4135.83 L 7042.97,4135.83 L 7042.97,3646.77 L 7052.97,3641 L 7062.97,3646.77 L 7062.97,4135.83 Z " />
<path stroke="transparent" fill="#000000" transform="matrix(0.0833333 0 0 0.0833333 -175.542 -141.5)" d="M 7052.97,3629.45 L 7052.97,3641 L 7042.97,3646.77 L 6533.36,3352.55 L 6533.36,3341 L 6543.36,3335.23 L 7052.97,3629.45 Z " />
<path stroke="transparent" fill="#000000" transform="matrix(0.0833333 0 0 0.0833333 -175.542 -141.5)" d="M 7062.97,3646.77 L 7052.97,3641 L 7052.97,3629.45 L 7562.59,3335.23 L 7582.59,3346.77 L 7062.97,3646.77 Z " />
<path stroke="transparent" fill="#000000" transform="matrix(0.0833333 0 0 0.0833333 -175.542 -141.5)" d="M 7057.97,3566.52 L 7047.97,3549.2 L 7495.59,3290.77 L 7505.59,3308.09 L 7057.97,3566.52 Z " />
<path stroke="transparent" fill="#000000" transform="matrix(0.0833333 0 0 0.0833333 -175.542 -141.5)" d="M 7582.59,3346.77 L 7562.59,3335.23 L 7562.59,2746.77 L 7572.59,2741 L 7582.59,2746.77 L 7582.59,3346.77 Z " />
<path stroke="transparent" fill="#000000" transform="matrix(0.0833333 0 0 0.0833333 -175.542 -141.5)" d="M 7572.59,2729.45 L 7572.59,2741 L 7562.59,2746.77 L 7052.97,2452.55 L 7052.97,2429.45 L 7572.59,2729.45 Z " />
<path stroke="transparent" fill="#000000" transform="matrix(0.0833333 0 0 0.0833333 -175.542 -141.5)" d="M 7505.59,2773.91 L 7495.59,2791.23 L 7047.97,2532.8 L 7057.97,2515.48 L 7505.59,2773.91 Z " />
<path stroke="transparent" fill="#000000" transform="matrix(0.0833333 0 0 0.0833333 -175.542 -141.5)" d="M 7052.97,2429.45 L 7052.97,2452.55 L 6543.36,2746.77 L 6533.36,2741 L 6533.36,2729.45 L 7052.97,2429.45 Z " />
<path stroke="transparent" fill="#000000" transform="matrix(0.0833333 0 0 0.0833333 -175.542 -141.5)" d="M 5967.74,1960.83 L 5987.74,1960.83 L 5987.74,2461.78 L 5967.74,2461.78 L 5967.74,1960.83 Z " />
<path stroke="transparent" fill="#000000" transform="matrix(0.0833333 0 0 0.0833333 -175.542 -141.5)" d="M 6039.74,1960.83 L 6059.74,1960.83 L 6059.74,2461.78 L 6039.74,2461.78 L 6039.74,1960.83 Z " />
<path stroke="transparent" fill="#000000" transform="matrix(0.0833333 0 0 0.0833333 -175.542 -141.5)" d="M 6013.74,2429.45 L 6013.74,2452.55 L 5504.13,2746.77 L 5494.13,2741 L 5494.13,2729.45 L 6013.74,2429.45 Z " />
<path stroke="transparent" fill="#000000" transform="matrix(0.0833333 0 0 0.0833333 -175.542 -141.5)" d="M 6013.74,2452.55 L 6013.74,2429.45 L 6533.36,2729.45 L 6533.36,2741 L 6523.36,2746.77 L 6013.74,2452.55 Z " />
<path stroke="transparent" fill="#000000" transform="matrix(0.0833333 0 0 0.0833333 -175.542 -141.5)" d="M 6523.36,2746.77 L 6533.36,2741 L 6543.36,2746.77 L 6543.36,3335.23 L 6533.36,3341 L 6523.36,3335.23 L 6523.36,2746.77 Z " />
<path stroke="transparent" fill="#000000" transform="matrix(0.0833333 0 0 0.0833333 -175.542 -141.5)" d="M 6595.36,2782.57 L 6615.36,2782.57 L 6615.36,3299.43 L 6595.36,3299.43 L 6595.36,2782.57 Z " />
<path stroke="transparent" fill="#000000" transform="matrix(0.0833333 0 0 0.0833333 -175.542 -141.5)" d="M 6523.36,3335.23 L 6533.36,3341 L 6533.36,3352.55 L 6013.74,3652.55 L 6013.74,3629.45 L 6523.36,3335.23 Z " />
<path stroke="transparent" fill="#000000" transform="matrix(0.0833333 0 0 0.0833333 -175.542 -141.5)" d="M 6059.74,4135.83 L 6039.74,4135.83 L 6039.74,3620.22 L 6059.74,3620.22 L 6059.74,4135.83 Z " />
<path stroke="transparent" fill="#000000" transform="matrix(0.0833333 0 0 0.0833333 -175.542 -141.5)" d="M 5987.74,4135.83 L 5967.74,4135.83 L 5967.74,3620.22 L 5987.74,3620.22 L 5987.74,4135.83 Z " />
<path stroke="transparent" fill="#000000" transform="matrix(0.0833333 0 0 0.0833333 -175.542 -141.5)" d="M 6013.74,3629.45 L 6013.74,3652.55 L 5494.13,3352.55 L 5494.13,3341 L 5504.13,3335.23 L 6013.74,3629.45 Z " />
<path stroke="transparent" fill="#000000" transform="matrix(0.0833333 0 0 0.0833333 -175.542 -141.5)" d="M 4911.89,5335.57 L 4851.89,5439.49 L 4835.71,5427.52 L 4893.43,5327.54 L 4911.89,5335.57 Z " />
<path stroke="transparent" fill="#000000" transform="matrix(0.0833333 0 0 0.0833333 -175.542 -141.5)" d="M 4856.64,5311.54 L 4803.46,5403.65 L 4787.27,5391.68 L 4838.18,5303.51 L 4856.64,5311.54 Z " />
<path stroke="transparent" fill="#000000" transform="matrix(0.0833333 0 0 0.0833333 -175.542 -141.5)" d="M 4801.39,5287.51 L 4755.02,5367.82 L 4738.84,5355.84 L 4782.93,5279.48 L 4801.39,5287.51 Z " />
<path stroke="transparent" fill="#000000" transform="matrix(0.0833333 0 0 0.0833333 -175.542 -141.5)" d="M 4746.13,5263.48 L 4706.59,5331.98 L 4690.4,5320.01 L 4727.67,5255.45 L 4746.13,5263.48 Z " />
<path stroke="transparent" fill="#000000" transform="matrix(0.0833333 0 0 0.0833333 -175.542 -141.5)" d="M 4690.88,5239.45 L 4658.15,5296.14 L 4641.97,5284.17 L 4672.42,5231.43 L 4690.88,5239.45 Z " />
<path stroke="transparent" fill="#000000" transform="matrix(0.0833333 0 0 0.0833333 -175.542 -141.5)" d="M 4635.63,5215.43 L 4609.72,5260.31 L 4593.53,5248.34 L 4617.17,5207.4 L 4635.63,5215.43 Z " />
<path stroke="transparent" fill="#000000" transform="matrix(0.0833333 0 0 0.0833333 -175.542 -141.5)" d="M 4580.38,5191.4 L 4561.28,5224.47 L 4545.1,5212.5 L 4561.92,5183.37 L 4580.38,5191.4 Z " />
<path stroke="transparent" fill="#000000" transform="matrix(0.0833333 0 0 0.0833333 -175.542 -141.5)" d="M 4525.12,5167.37 L 4512.85,5188.64 L 4496.66,5176.66 L 4506.66,5159.34 L 4525.12,5167.37 Z " />
<path stroke="transparent" fill="#000000" transform="matrix(0.0833333 0 0 0.0833333 -175.542 -141.5)" d="M 3995.28,5935.83 L 3875.28,5935.83 L 3924.73,5446.46 L 3935.28,5441 L 3945.83,5446.46 L 3995.28,5935.83 Z " />
<path stroke="transparent" fill="#000000" transform="matrix(0.0833333 0 0 0.0833333 -175.542 -141.5)" d="M 3018.66,5439.49 L 2958.66,5335.57 L 2977.12,5327.54 L 3034.84,5427.52 L 3018.66,5439.49 Z " />
<path stroke="transparent" fill="#000000" transform="matrix(0.0833333 0 0 0.0833333 -175.542 -141.5)" d="M 3067.1,5403.66 L 3013.91,5311.54 L 3032.37,5303.51 L 3083.28,5391.68 L 3067.1,5403.66 Z " />
<path stroke="transparent" fill="#000000" transform="matrix(0.0833333 0 0 0.0833333 -175.542 -141.5)" d="M 3115.53,5367.82 L 3069.17,5287.51 L 3087.63,5279.49 L 3131.71,5355.85 L 3115.53,5367.82 Z " />
<path stroke="transparent" fill="#000000" transform="matrix(0.0833333 0 0 0.0833333 -175.542 -141.5)" d="M 3163.97,5331.98 L 3124.42,5263.48 L 3142.88,5255.46 L 3180.15,5320.01 L 3163.97,5331.98 Z " />
<path stroke="transparent" fill="#000000" transform="matrix(0.0833333 0 0 0.0833333 -175.542 -141.5)" d="M 3212.4,5296.15 L 3179.67,5239.46 L 3198.13,5231.43 L 3228.58,5284.17 L 3212.4,5296.15 Z " />
<path stroke="transparent" fill="#000000" transform="matrix(0.0833333 0 0 0.0833333 -175.542 -141.5)" d="M 3260.84,5260.31 L 3234.93,5215.43 L 3253.39,5207.4 L 3277.02,5248.34 L 3260.84,5260.31 Z " />
<path stroke="transparent" fill="#000000" transform="matrix(0.0833333 0 0 0.0833333 -175.542 -141.5)" d="M 3309.28,5224.47 L 3290.18,5191.4 L 3308.64,5183.37 L 3325.46,5212.5 L 3309.28,5224.47 Z " />
<path stroke="transparent" fill="#000000" transform="matrix(0.0833333 0 0 0.0833333 -175.542 -141.5)" d="M 3357.71,5188.64 L 3345.43,5167.37 L 3363.89,5159.34 L 3373.89,5176.66 L 3357.71,5188.64 Z " />
<path stroke="transparent" fill="#000000" transform="matrix(0.0833333 0 0 0.0833333 -175.542 -141.5)" d="M 2474.04,4496.19 L 2464.04,4478.87 L 2944.21,4201.65 L 2844.03,4282.58 L 2474.04,4496.19 Z " />
<path stroke="transparent" fill="#000000" transform="matrix(0.0833333 0 0 0.0833333 -175.542 -141.5)" d="M 2844.03,4282.58 L 2944.21,4201.65 L 3416.12,4529.19 L 3415.66,4541 L 3405.66,4547.3 L 2844.03,4282.58 Z " />
<path stroke="transparent" fill="#000000" transform="matrix(0.0833333 0 0 0.0833333 -175.542 -141.5)" d="M 4030.32,4307.42 L 4040.32,4290.1 L 4454.33,4529.13 L 4454.89,4541 L 4444.89,4546.77 L 4030.32,4307.42 Z " />
<path stroke="transparent" fill="#000000" transform="matrix(0.0833333 0 0 0.0833333 -175.542 -141.5)" d="M 3830.68,4289.85 L 3840.68,4307.17 L 3425.66,4546.77 L 3415.66,4541 L 3416.12,4529.19 L 3830.68,4289.85 Z " />
<path stroke="transparent" fill="#000000" transform="matrix(0.0833333 0 0 0.0833333 -175.542 -141.5)" d="M 3405.66,4547.3 L 3415.66,4541 L 3425.66,4546.77 L 3425.66,5135.23 L 3405.66,5146.77 L 3405.66,4547.3 Z " />
<path stroke="transparent" fill="#000000" transform="matrix(0.0833333 0 0 0.0833333 -175.542 -141.5)" d="M 3405.66,5146.77 L 3425.66,5135.23 L 3935.28,5429.45 L 3935.28,5441 L 3924.73,5446.46 L 3405.66,5146.77 Z " />
<path stroke="transparent" fill="#000000" transform="matrix(0.0833333 0 0 0.0833333 -175.542 -141.5)" d="M 3945.83,5446.46 L 3935.28,5441 L 3935.28,5429.45 L 4444.89,5135.23 L 4464.89,5146.77 L 3945.83,5446.46 Z " />
<path stroke="transparent" fill="#000000" transform="matrix(0.0833333 0 0 0.0833333 -175.542 -141.5)" d="M 4464.89,5146.77 L 4444.89,5135.23 L 4444.89,4546.77 L 4454.89,4541 L 4464.89,4547.42 L 4464.89,5146.77 Z " />
<path stroke="transparent" fill="#000000" transform="matrix(0.0833333 0 0 0.0833333 -175.542 -141.5)" d="M 4464.89,4547.42 L 4454.89,4541 L 4454.33,4529.13 L 4844.91,4246.54 L 4904.91,4350.47 L 4464.89,4547.42 Z " />
<path stroke="transparent" fill="#000000" transform="matrix(0.0833333 0 0 0.0833333 -175.542 -141.5)" d="M 4984.51,4135.83 L 4964.51,4135.83 L 4964.51,3646.77 L 4974.51,3641 L 4984.51,3646.77 L 4984.51,4135.83 Z " />
<path stroke="transparent" fill="#000000" transform="matrix(0.0833333 0 0 0.0833333 -175.542 -141.5)" d="M 4464.89,3335.23 L 4444.89,3346.77 L 4444.89,2735.23 L 4464.89,2746.77 L 4464.89,3335.23 Z " />
<path stroke="transparent" fill="#000000" transform="matrix(0.0833333 0 0 0.0833333 -175.542 -141.5)" d="M 4444.89,3346.77 L 4464.89,3335.23 L 4974.51,3629.45 L 4974.51,3641 L 4964.51,3646.77 L 4444.89,3346.77 Z " />
<path stroke="transparent" fill="#000000" transform="matrix(0.0833333 0 0 0.0833333 -175.542 -141.5)" d="M 4521.89,3308.09 L 4531.89,3290.77 L 4979.51,3549.2 L 4969.51,3566.52 L 4521.89,3308.09 Z " />
<path stroke="transparent" fill="#000000" transform="matrix(0.0833333 0 0 0.0833333 -175.542 -141.5)" d="M 4984.51,3646.77 L 4974.51,3641 L 4974.51,3629.45 L 5484.13,3335.23 L 5494.13,3341 L 5494.13,3352.55 L 4984.51,3646.77 Z " />
<path stroke="transparent" fill="#000000" transform="matrix(0.0833333 0 0 0.0833333 -175.542 -141.5)" d="M 5504.13,3335.23 L 5494.13,3341 L 5484.13,3335.23 L 5484.13,2746.77 L 5494.13,2741 L 5504.13,2746.77 L 5504.13,3335.23 Z " />
<path stroke="transparent" fill="#000000" transform="matrix(0.0833333 0 0 0.0833333 -175.542 -141.5)" d="M 5432.13,3299.43 L 5412.13,3299.43 L 5412.13,2782.57 L 5432.13,2782.57 L 5432.13,3299.43 Z " />
<path stroke="transparent" fill="#000000" transform="matrix(0.0833333 0 0 0.0833333 -175.542 -141.5)" d="M 5494.13,2729.45 L 5494.13,2741 L 5484.13,2746.77 L 4974.51,2452.55 L 4974.51,2429.45 L 5494.13,2729.45 Z " />
<path stroke="transparent" fill="#000000" transform="matrix(0.0833333 0 0 0.0833333 -175.542 -141.5)" d="M 4974.51,2429.45 L 4974.51,2452.55 L 4464.89,2746.77 L 4444.89,2735.23 L 4974.51,2429.45 Z " />
<path stroke="transparent" fill="#000000" transform="matrix(0.0833333 0 0 0.0833333 -175.542 -141.5)" d="M 4969.51,2515.48 L 4979.51,2532.8 L 4531.89,2791.23 L 4521.89,2773.91 L 4969.51,2515.48 Z " />
<text x="0" y="0" stroke="transparent" fill="#000000" transform="matrix(0.0833333 0 0 0.0833333 535.61 93.4167)" style="font:normal normal normal 200px 'Arial'" >
OH</text>
<text x="0" y="0" stroke="transparent" fill="#000000" transform="matrix(0.0833333 0 0 0.0833333 405.706 218.417)" style="font:normal normal normal 200px 'Arial'" >
OH</text>
<text x="0" y="0" stroke="transparent" fill="#000000" transform="matrix(0.0833333 0 0 0.0833333 319.103 18.4167)" style="font:normal normal normal 200px 'Arial'" >
O</text>
<text x="0" y="0" stroke="transparent" fill="#000000" transform="matrix(0.0833333 0 0 0.0833333 319.103 218.417)" style="font:normal normal normal 200px 'Arial'" >
O</text>
<text x="0" y="0" stroke="transparent" fill="#000000" transform="matrix(0.0833333 0 0 0.0833333 232.501 318.417)" style="font:normal normal normal 200px 'Arial'" >
OH</text>
<text x="0" y="0" stroke="transparent" fill="#000000" transform="matrix(0.0833333 0 0 0.0833333 145.898 368.417)" style="font:normal normal normal 200px 'Arial'" >
OH</text>
<text x="0" y="0" stroke="transparent" fill="#000000" transform="matrix(0.0833333 0 0 0.0833333 47.2596 318.417)" style="font:normal normal normal 200px 'Arial'" >
HO</text>
<text x="0" y="0" stroke="transparent" fill="#000000" transform="matrix(0.0833333 0 0 0.0833333 3.95833 243.417)" style="font:normal normal normal 200px 'Arial'" >
HO</text>
<text x="0" y="0" stroke="transparent" fill="#000000" transform="matrix(0.0833333 0 0 0.0833333 145.898 218.417)" style="font:normal normal normal 200px 'Arial'" >
O</text>
<text x="0" y="0" stroke="transparent" fill="#000000" transform="matrix(0.0833333 0 0 0.0833333 232.501 218.417)" style="font:normal normal normal 200px 'Arial'" >
O</text>
</svg>
