<?xml version="1.0" standalone="no" ?>
<!DOCTYPE svg PUBLIC "-//W3C//DTD SVG 1.1//EN" "http://www.w3.org/Graphics/SVG/1.1/DTD/svg11.dtd">
<svg width="258px" height="253px" viewBox="0 0 258 253" style="background-color: #ffffff00" xmlns="http://www.w3.org/2000/svg" xmlns:xlink="http://www.w3.org/1999/xlink" version="1.1" >
<text x="0" y="0" stroke="transparent" fill="#000000" transform="matrix(0.0666667 0 0 0.0666667 244.466 31.4965)" style="font:normal normal normal 200px 'Arial'" >
O</text>
<text x="0" y="0" stroke="transparent" fill="#000000" transform="matrix(0.0666667 0 0 0.0666667 72.4622 89.4154)" style="font:normal normal normal 200px 'Arial'" >
O</text>
<text x="0" y="0" stroke="transparent" fill="#000000" transform="matrix(0.0666667 0 0 0.0666667 37.8174 149.417)" style="font:normal normal normal 200px 'Arial'" >
O</text>
<text x="0" y="0" stroke="transparent" fill="#000000" transform="matrix(0.0666667 0 0 0.0666667 3.17671 249.419)" style="font:normal normal normal 200px 'Arial'" >
OH</text>
<text x="0" y="0" stroke="transparent" fill="#000000" transform="matrix(0.0666667 0 0 0.0666667 72.4622 249.419)" style="font:normal normal normal 200px 'Arial'" >
OH</text>
<text x="0" y="0" stroke="transparent" fill="#000000" transform="matrix(0.0666667 0 0 0.0666667 141.744 209.418)" style="font:normal normal normal 200px 'Arial'" >
OH</text>
<text x="0" y="0" stroke="transparent" fill="#000000" transform="matrix(0.0666667 0 0 0.0666667 141.744 129.416)" style="font:normal normal normal 200px 'Arial'" >
OH</text>
<path stroke="transparent" fill="#000000" transform="matrix(0.0666667 0 0 0.0666667 -219.859 -139)" d="M 6541.26,2159.81 L 6541.26,2136.72 L 6973.25,2386.14 L 6963.25,2403.46 L 6541.26,2159.81 Z " />
<path stroke="transparent" fill="#000000" transform="matrix(0.0666667 0 0 0.0666667 -219.859 -139)" d="M 6536.26,2240.06 L 6546.26,2222.74 L 6937.25,2448.49 L 6927.25,2465.81 L 6536.26,2240.06 Z " />
<path stroke="transparent" fill="#000000" transform="matrix(0.0666667 0 0 0.0666667 -219.859 -139)" d="M 6031.65,2454.04 L 6021.65,2448.27 L 6021.65,2436.72 L 6541.26,2136.72 L 6541.26,2159.81 L 6031.65,2454.04 Z " />
<path stroke="transparent" fill="#000000" transform="matrix(0.0666667 0 0 0.0666667 -219.859 -139)" d="M 5502.04,2159.81 L 5502.04,2136.72 L 6021.65,2436.72 L 6021.65,2448.27 L 6011.65,2454.04 L 5502.04,2159.81 Z " />
<path stroke="transparent" fill="#000000" transform="matrix(0.0666667 0 0 0.0666667 -219.859 -139)" d="M 5497.03,2240.06 L 5507.03,2222.74 L 5954.65,2481.18 L 5944.65,2498.5 L 5497.03,2240.06 Z " />
<path stroke="transparent" fill="#000000" transform="matrix(0.0666667 0 0 0.0666667 -219.859 -139)" d="M 4992.42,2453.98 L 4972.42,2442.44 L 5502.04,2136.72 L 5502.04,2159.81 L 4992.42,2453.98 Z " />
<path stroke="transparent" fill="#000000" transform="matrix(0.0666667 0 0 0.0666667 -219.859 -139)" d="M 4992.42,3042.45 L 4982.42,3048.22 L 4972.42,3042.45 L 4972.42,2442.44 L 4992.42,2453.98 L 4992.42,3042.45 Z " />
<path stroke="transparent" fill="#000000" transform="matrix(0.0666667 0 0 0.0666667 -219.859 -139)" d="M 5064.43,3006.65 L 5044.43,3006.65 L 5044.43,2489.78 L 5064.43,2489.78 L 5064.43,3006.65 Z " />
<path stroke="transparent" fill="#000000" transform="matrix(0.0666667 0 0 0.0666667 -219.859 -139)" d="M 4560.43,3303.42 L 4550.43,3286.1 L 4972.42,3042.45 L 4982.42,3048.22 L 4982.42,3059.77 L 4560.43,3303.42 Z " />
<path stroke="transparent" fill="#000000" transform="matrix(0.0666667 0 0 0.0666667 -219.859 -139)" d="M 4402.81,3468.06 L 4522.81,3468.06 L 4473.38,3942.8 L 4462.81,3948.24 L 4452.25,3942.8 L 4402.81,3468.06 Z " />
<path stroke="transparent" fill="#000000" transform="matrix(0.0666667 0 0 0.0666667 -219.859 -139)" d="M 4040.76,4203.44 L 4030.76,4186.12 L 4452.25,3942.8 L 4462.81,3948.24 L 4462.81,3959.79 L 4040.76,4203.44 Z " />
<path stroke="transparent" fill="#000000" transform="matrix(0.0666667 0 0 0.0666667 -219.859 -139)" d="M 3933.14,4368.08 L 3953.14,4368.08 L 3953.14,4842.49 L 3943.14,4848.26 L 3933.14,4841.96 L 3933.14,4368.08 Z " />
<path stroke="transparent" fill="#000000" transform="matrix(0.0666667 0 0 0.0666667 -219.859 -139)" d="M 3433.53,5214.11 L 3413.53,5086.88 L 3933.14,4841.96 L 3943.14,4848.26 L 3943.6,4860.08 L 3433.53,5214.11 Z " />
<path stroke="transparent" fill="#000000" transform="matrix(0.0666667 0 0 0.0666667 -219.859 -139)" d="M 3433.53,5643.12 L 3413.53,5643.12 L 3413.53,5086.88 L 3433.53,5214.11 L 3433.53,5643.12 Z " />
<path stroke="transparent" fill="#000000" transform="matrix(0.0666667 0 0 0.0666667 -219.859 -139)" d="M 3943.6,4860.08 L 3943.14,4848.26 L 3953.14,4842.49 L 4462.81,5136.72 L 4462.81,5159.82 L 3943.6,4860.08 Z " />
<path stroke="transparent" fill="#000000" transform="matrix(0.0666667 0 0 0.0666667 -219.859 -139)" d="M 4522.81,5643.12 L 4402.81,5643.12 L 4405.08,5623.12 L 4520.54,5623.12 L 4522.81,5643.12 Z " />
<path stroke="transparent" fill="#000000" transform="matrix(0.0666667 0 0 0.0666667 -219.859 -139)" d="M 4515.99,5583.01 L 4409.63,5583.01 L 4411.9,5563.01 L 4513.73,5563.01 L 4515.99,5583.01 Z " />
<path stroke="transparent" fill="#000000" transform="matrix(0.0666667 0 0 0.0666667 -219.859 -139)" d="M 4509.18,5522.9 L 4416.45,5522.9 L 4418.72,5502.9 L 4506.91,5502.9 L 4509.18,5522.9 Z " />
<path stroke="transparent" fill="#000000" transform="matrix(0.0666667 0 0 0.0666667 -219.859 -139)" d="M 4502.36,5462.79 L 4423.27,5462.79 L 4425.54,5442.79 L 4500.09,5442.79 L 4502.36,5462.79 Z " />
<path stroke="transparent" fill="#000000" transform="matrix(0.0666667 0 0 0.0666667 -219.859 -139)" d="M 4495.54,5402.69 L 4430.09,5402.69 L 4432.36,5382.69 L 4493.27,5382.69 L 4495.54,5402.69 Z " />
<path stroke="transparent" fill="#000000" transform="matrix(0.0666667 0 0 0.0666667 -219.859 -139)" d="M 4488.72,5342.58 L 4436.91,5342.58 L 4439.18,5322.58 L 4486.45,5322.58 L 4488.72,5342.58 Z " />
<path stroke="transparent" fill="#000000" transform="matrix(0.0666667 0 0 0.0666667 -219.859 -139)" d="M 4481.9,5282.47 L 4443.73,5282.47 L 4445.99,5262.47 L 4479.63,5262.47 L 4481.9,5282.47 Z " />
<path stroke="transparent" fill="#000000" transform="matrix(0.0666667 0 0 0.0666667 -219.859 -139)" d="M 4475.08,5222.36 L 4450.54,5222.36 L 4452.81,5202.36 L 4472.81,5202.36 L 4475.08,5222.36 Z " />
<path stroke="transparent" fill="#000000" transform="matrix(0.0666667 0 0 0.0666667 -219.859 -139)" d="M 4462.81,5159.82 L 4462.81,5136.72 L 4972.42,4842.49 L 4992.42,4854.04 L 4462.81,5159.82 Z " />
<path stroke="transparent" fill="#000000" transform="matrix(0.0666667 0 0 0.0666667 -219.859 -139)" d="M 5439.42,5042.83 L 5379.42,5146.76 L 5363.24,5134.78 L 5420.96,5034.81 L 5439.42,5042.83 Z " />
<path stroke="transparent" fill="#000000" transform="matrix(0.0666667 0 0 0.0666667 -219.859 -139)" d="M 5384.17,5018.81 L 5330.98,5110.92 L 5314.8,5098.95 L 5365.71,5010.78 L 5384.17,5018.81 Z " />
<path stroke="transparent" fill="#000000" transform="matrix(0.0666667 0 0 0.0666667 -219.859 -139)" d="M 5328.91,4994.78 L 5282.55,5075.08 L 5266.37,5063.11 L 5310.46,4986.75 L 5328.91,4994.78 Z " />
<path stroke="transparent" fill="#000000" transform="matrix(0.0666667 0 0 0.0666667 -219.859 -139)" d="M 5273.66,4970.75 L 5234.11,5039.25 L 5217.93,5027.27 L 5255.2,4962.72 L 5273.66,4970.75 Z " />
<path stroke="transparent" fill="#000000" transform="matrix(0.0666667 0 0 0.0666667 -219.859 -139)" d="M 5218.41,4946.72 L 5185.68,5003.41 L 5169.5,4991.44 L 5199.95,4938.69 L 5218.41,4946.72 Z " />
<path stroke="transparent" fill="#000000" transform="matrix(0.0666667 0 0 0.0666667 -219.859 -139)" d="M 5163.16,4922.69 L 5137.24,4967.57 L 5121.06,4955.6 L 5144.7,4914.66 L 5163.16,4922.69 Z " />
<path stroke="transparent" fill="#000000" transform="matrix(0.0666667 0 0 0.0666667 -219.859 -139)" d="M 5107.91,4898.66 L 5088.81,4931.74 L 5072.63,4919.76 L 5089.45,4890.64 L 5107.91,4898.66 Z " />
<path stroke="transparent" fill="#000000" transform="matrix(0.0666667 0 0 0.0666667 -219.859 -139)" d="M 5052.65,4874.63 L 5040.38,4895.9 L 5024.19,4883.93 L 5034.19,4866.61 L 5052.65,4874.63 Z " />
<path stroke="transparent" fill="#000000" transform="matrix(0.0666667 0 0 0.0666667 -219.859 -139)" d="M 4992.42,4854.04 L 4972.42,4842.49 L 4972.42,4254.02 L 4992.42,4242.48 L 4992.42,4854.04 Z " />
<path stroke="transparent" fill="#000000" transform="matrix(0.0666667 0 0 0.0666667 -219.859 -139)" d="M 4992.42,4242.48 L 4972.42,4254.02 L 4462.81,3959.79 L 4462.81,3948.24 L 4473.38,3942.8 L 4992.42,4242.48 Z " />
<path stroke="transparent" fill="#000000" transform="matrix(0.0666667 0 0 0.0666667 -219.859 -139)" d="M 5372.43,3953.79 L 5432.43,4057.71 L 5413.95,4065.7 L 5356.27,3965.8 L 5372.43,3953.79 Z " />
<path stroke="transparent" fill="#000000" transform="matrix(0.0666667 0 0 0.0666667 -219.859 -139)" d="M 5325.01,3989.04 L 5378.2,4081.16 L 5359.71,4089.15 L 5308.85,4001.05 L 5325.01,3989.04 Z " />
<path stroke="transparent" fill="#000000" transform="matrix(0.0666667 0 0 0.0666667 -219.859 -139)" d="M 5277.58,4024.29 L 5323.96,4104.61 L 5305.48,4112.6 L 5261.42,4036.3 L 5277.58,4024.29 Z " />
<path stroke="transparent" fill="#000000" transform="matrix(0.0666667 0 0 0.0666667 -219.859 -139)" d="M 5230.15,4059.53 L 5269.72,4128.06 L 5251.24,4136.05 L 5213.99,4071.54 L 5230.15,4059.53 Z " />
<path stroke="transparent" fill="#000000" transform="matrix(0.0666667 0 0 0.0666667 -219.859 -139)" d="M 5182.73,4094.78 L 5215.48,4151.51 L 5197,4159.5 L 5166.57,4106.79 L 5182.73,4094.78 Z " />
<path stroke="transparent" fill="#000000" transform="matrix(0.0666667 0 0 0.0666667 -219.859 -139)" d="M 5135.3,4130.03 L 5161.24,4174.96 L 5142.76,4182.95 L 5119.14,4142.04 L 5135.3,4130.03 Z " />
<path stroke="transparent" fill="#000000" transform="matrix(0.0666667 0 0 0.0666667 -219.859 -139)" d="M 5087.87,4165.28 L 5107,4198.41 L 5088.52,4206.4 L 5071.71,4177.29 L 5087.87,4165.28 Z " />
<path stroke="transparent" fill="#000000" transform="matrix(0.0666667 0 0 0.0666667 -219.859 -139)" d="M 5040.44,4200.52 L 5052.77,4221.86 L 5034.28,4229.85 L 5024.28,4212.53 L 5040.44,4200.52 Z " />
<path stroke="transparent" fill="#000000" transform="matrix(0.0666667 0 0 0.0666667 -219.859 -139)" d="M 5502.04,3336.68 L 5502.04,3359.78 L 4982.42,3059.77 L 4982.42,3048.22 L 4992.42,3042.45 L 5502.04,3336.68 Z " />
<path stroke="transparent" fill="#000000" transform="matrix(0.0666667 0 0 0.0666667 -219.859 -139)" d="M 6011.65,3042.45 L 6031.65,3054 L 5502.04,3359.78 L 5502.04,3336.68 L 6011.65,3042.45 Z " />
<path stroke="transparent" fill="#000000" transform="matrix(0.0666667 0 0 0.0666667 -219.859 -139)" d="M 5944.65,2998 L 5954.65,3015.32 L 5507.04,3273.75 L 5497.04,3256.43 L 5944.65,2998 Z " />
<path stroke="transparent" fill="#000000" transform="matrix(0.0666667 0 0 0.0666667 -219.859 -139)" d="M 6031.65,3054 L 6011.65,3042.45 L 6011.65,2454.04 L 6021.65,2448.27 L 6031.65,2454.04 L 6031.65,3054 Z " />
</svg>
