<?xml version="1.0" standalone="no" ?>
<!DOCTYPE svg PUBLIC "-//W3C//DTD SVG 1.1//EN" "http://www.w3.org/Graphics/SVG/1.1/DTD/svg11.dtd">
<svg width="780px" height="662px" viewBox="0 0 780 662" style="background-color: #ffffff00" xmlns="http://www.w3.org/2000/svg" xmlns:xlink="http://www.w3.org/1999/xlink" version="1.1" >
<text x="0" y="0" stroke="transparent" fill="#000000" transform="matrix(0.0833333 0 0 0.0833333 644.118 123.559)" style="font:normal normal normal 200px 'Arial'" >
O</text>
<text x="0" y="0" stroke="transparent" fill="#000000" transform="matrix(0.0833333 0 0 0.0833333 751.312 232.982)" style="font:normal normal normal 200px 'Arial'" >
OH</text>
<text x="0" y="0" stroke="transparent" fill="#000000" transform="matrix(0.0833333 0 0 0.0833333 361.723 307.959)" style="font:normal normal normal 200px 'Arial'" >
O</text>
<text x="0" y="0" stroke="transparent" fill="#000000" transform="matrix(0.0833333 0 0 0.0833333 405.01 382.935)" style="font:normal normal normal 200px 'Arial'" >
O</text>
<text x="0" y="0" stroke="transparent" fill="#000000" transform="matrix(0.0833333 0 0 0.0833333 361.723 507.896)" style="font:normal normal normal 200px 'Arial'" >
O</text>
<text x="0" y="0" stroke="transparent" fill="#000000" transform="matrix(0.0833333 0 0 0.0833333 405.01 582.872)" style="font:normal normal normal 200px 'Arial'" >
O</text>
<text x="0" y="0" stroke="transparent" fill="#000000" transform="matrix(0.0833333 0 0 0.0833333 534.873 607.864)" style="font:normal normal normal 200px 'Arial'" >
OH</text>
<text x="0" y="0" stroke="transparent" fill="#000000" transform="matrix(0.0833333 0 0 0.0833333 534.873 507.896)" style="font:normal normal normal 200px 'Arial'" >
OH</text>
<text x="0" y="0" stroke="transparent" fill="#000000" transform="matrix(0.0833333 0 0 0.0833333 448.298 457.911)" style="font:normal normal normal 200px 'Arial'" >
OH</text>
<text x="0" y="0" stroke="transparent" fill="#000000" transform="matrix(0.0833333 0 0 0.0833333 275.148 457.911)" style="font:normal normal normal 200px 'Arial'" >
O</text>
<text x="0" y="0" stroke="transparent" fill="#000000" transform="matrix(0.0833333 0 0 0.0833333 318.435 532.888)" style="font:normal normal normal 200px 'Arial'" >
O</text>
<text x="0" y="0" stroke="transparent" fill="#000000" transform="matrix(0.0833333 0 0 0.0833333 361.723 657.848)" style="font:normal normal normal 200px 'Arial'" >
OH</text>
<text x="0" y="0" stroke="transparent" fill="#000000" transform="matrix(0.0833333 0 0 0.0833333 275.148 657.848)" style="font:normal normal normal 200px 'Arial'" >
OH</text>
<text x="0" y="0" stroke="transparent" fill="#000000" transform="matrix(0.0833333 0 0 0.0833333 176.536 607.864)" style="font:normal normal normal 200px 'Arial'" >
HO</text>
<text x="0" y="0" stroke="transparent" fill="#000000" transform="matrix(0.0833333 0 0 0.0833333 176.536 507.896)" style="font:normal normal normal 200px 'Arial'" >
HO</text>
<text x="0" y="0" stroke="transparent" fill="#000000" transform="matrix(0.0833333 0 0 0.0833333 275.148 357.943)" style="font:normal normal normal 200px 'Arial'" >
O</text>
<text x="0" y="0" stroke="transparent" fill="#000000" transform="matrix(0.0833333 0 0 0.0833333 318.435 282.967)" style="font:normal normal normal 200px 'Arial'" >
O</text>
<text x="0" y="0" stroke="transparent" fill="#000000" transform="matrix(0.0833333 0 0 0.0833333 361.723 158.006)" style="font:normal normal normal 200px 'Arial'" >
OH</text>
<text x="0" y="0" stroke="transparent" fill="#000000" transform="matrix(0.0833333 0 0 0.0833333 275.148 158.006)" style="font:normal normal normal 200px 'Arial'" >
OH</text>
<text x="0" y="0" stroke="transparent" fill="#000000" transform="matrix(0.0833333 0 0 0.0833333 176.536 207.99)" style="font:normal normal normal 200px 'Arial'" >
HO</text>
<text x="0" y="0" stroke="transparent" fill="#000000" transform="matrix(0.0833333 0 0 0.0833333 188.572 307.959)" style="font:normal normal normal 200px 'Arial'" >
O</text>
<text x="0" y="0" stroke="transparent" fill="#000000" transform="matrix(0.0833333 0 0 0.0833333 145.285 232.982)" style="font:normal normal normal 200px 'Arial'" >
O</text>
<text x="0" y="0" stroke="transparent" fill="#000000" transform="matrix(0.0833333 0 0 0.0833333 46.6733 133.014)" style="font:normal normal normal 200px 'Arial'" >
HO</text>
<text x="0" y="0" stroke="transparent" fill="#000000" transform="matrix(0.0833333 0 0 0.0833333 3.38566 207.99)" style="font:normal normal normal 200px 'Arial'" >
HO</text>
<text x="0" y="0" stroke="transparent" fill="#000000" transform="matrix(0.0833333 0 0 0.0833333 3.38566 307.959)" style="font:normal normal normal 200px 'Arial'" >
HO</text>
<text x="0" y="0" stroke="transparent" fill="#000000" transform="matrix(0.0833333 0 0 0.0833333 101.997 357.943)" style="font:normal normal normal 200px 'Arial'" >
OH</text>
<text x="0" y="0" stroke="transparent" fill="#000000" transform="matrix(0.0833333 0 0 0.0833333 633.048 17.7488)" style="font:normal normal normal 200px 'Arial'" >
O</text>
<path stroke="transparent" fill="#000000" transform="matrix(0.0833333 0 0 0.0833333 -147.733 -83.1667)" d="M 10361.4,1613.23 L 10347.1,1616.45 L 10339.5,1609.38 L 10595,1067 L 10699,1127 L 10361.4,1613.23 Z " />
<path stroke="transparent" fill="#000000" transform="matrix(0.0833333 0 0 0.0833333 -147.733 -83.1667)" d="M 10876.5,1910.63 L 10856.6,1922.08 L 10347.1,1627.9 L 10347.1,1616.45 L 10361.4,1613.23 L 10876.5,1910.63 Z " />
<path stroke="transparent" fill="#000000" transform="matrix(0.0833333 0 0 0.0833333 -147.733 -83.1667)" d="M 10876.5,2521.89 L 10856.6,2510.44 L 10856.6,1922.08 L 10876.5,1910.63 L 10876.5,2521.89 Z " />
<path stroke="transparent" fill="#000000" transform="matrix(0.0833333 0 0 0.0833333 -147.733 -83.1667)" d="M 10357,2821.8 L 10347.1,2816.07 L 10350.2,2802.8 L 10856.6,2510.44 L 10876.5,2521.89 L 10357,2821.8 Z " />
<path stroke="transparent" fill="#000000" transform="matrix(0.0833333 0 0 0.0833333 -147.733 -83.1667)" d="M 10069.7,2412.63 L 10080.4,2392.78 L 10350.2,2802.8 L 10347.1,2816.07 L 10315.8,2786.54 L 10069.7,2412.63 Z " />
<path stroke="transparent" fill="#000000" transform="matrix(0.0833333 0 0 0.0833333 -147.733 -83.1667)" d="M 9688.47,2412.63 L 9688.47,2392.78 L 10080.4,2392.78 L 10069.7,2412.63 L 9688.47,2412.63 Z " />
<path stroke="transparent" fill="#000000" transform="matrix(0.0833333 0 0 0.0833333 -147.733 -83.1667)" d="M 9339.5,2786.54 L 9308.18,2816.07 L 9305.04,2802.8 L 9505.63,2497.99 L 9522.21,2508.9 L 9339.5,2786.54 Z " />
<path stroke="transparent" fill="#000000" transform="matrix(0.0833333 0 0 0.0833333 -147.733 -83.1667)" d="M 9817.26,2510.7 L 9827.64,2516.17 L 9827.64,2527.62 L 9318.1,2821.8 L 9308.18,2816.07 L 9339.5,2786.54 L 9817.26,2510.7 Z " />
<path stroke="transparent" fill="#000000" transform="matrix(0.0833333 0 0 0.0833333 -147.733 -83.1667)" d="M 9827.64,2527.62 L 9827.64,2516.17 L 9838.01,2510.7 L 10315.8,2786.54 L 10347.1,2816.07 L 10337.2,2821.8 L 9827.64,2527.62 Z " />
<path stroke="transparent" fill="#000000" transform="matrix(0.0833333 0 0 0.0833333 -147.733 -83.1667)" d="M 9769.48,1938.47 L 9889.67,1892 L 9838.01,2510.7 L 9827.64,2516.17 L 9817.26,2510.7 L 9769.48,1938.47 Z " />
<path stroke="transparent" fill="#000000" transform="matrix(0.0833333 0 0 0.0833333 -147.733 -83.1667)" d="M 9889.67,1892 L 9769.48,1938.47 L 10339.5,1609.38 L 10347.1,1616.45 L 10347.1,1627.9 L 9889.67,1892 Z " />
<path stroke="transparent" fill="#000000" transform="matrix(0.0833333 0 0 0.0833333 -147.733 -83.1667)" d="M 8788.73,2527.62 L 8788.73,2504.71 L 9305.04,2802.8 L 9308.18,2816.07 L 9298.26,2821.8 L 8788.73,2527.62 Z " />
<path stroke="transparent" fill="#000000" transform="matrix(0.0833333 0 0 0.0833333 -147.733 -83.1667)" d="M 8331.31,2791.71 L 8211.13,2838.19 L 8788.73,2504.71 L 8788.73,2527.62 L 8331.31,2791.71 Z " />
<path stroke="transparent" fill="#000000" transform="matrix(0.0833333 0 0 0.0833333 -147.733 -83.1667)" d="M 8279.66,3410.42 L 8269.28,3415.88 L 8258.9,3410.42 L 8211.13,2838.19 L 8331.31,2791.71 L 8279.66,3410.42 Z " />
<path stroke="transparent" fill="#000000" transform="matrix(0.0833333 0 0 0.0833333 -147.733 -83.1667)" d="M 7759.75,3721.52 L 7749.83,3715.79 L 7761.26,3697.73 L 8258.9,3410.42 L 8269.28,3415.88 L 8269.28,3427.34 L 7759.75,3721.52 Z " />
<path stroke="transparent" fill="#000000" transform="matrix(0.0833333 0 0 0.0833333 -147.733 -83.1667)" d="M 7230.38,3427.34 L 7230.38,3404.43 L 7738.4,3697.73 L 7749.83,3715.79 L 7739.91,3721.52 L 7230.38,3427.34 Z " />
<path stroke="transparent" fill="#000000" transform="matrix(0.0833333 0 0 0.0833333 -147.733 -83.1667)" d="M 6720.85,3721.52 L 6701,3710.06 L 7230.38,3404.43 L 7230.38,3427.34 L 6720.85,3721.52 Z " />
<path stroke="transparent" fill="#000000" transform="matrix(0.0833333 0 0 0.0833333 -147.733 -83.1667)" d="M 6720.85,4309.87 L 6710.93,4315.6 L 6701,4309.24 L 6701,3710.06 L 6720.85,3721.52 L 6720.85,4309.87 Z " />
<path stroke="transparent" fill="#000000" transform="matrix(0.0833333 0 0 0.0833333 -147.733 -83.1667)" d="M 7230.38,4604.05 L 7230.38,4615.5 L 7216.82,4619.14 L 6711.48,4327.37 L 6710.93,4315.6 L 6720.85,4309.87 L 7230.38,4604.05 Z " />
<path stroke="transparent" fill="#000000" transform="matrix(0.0833333 0 0 0.0833333 -147.733 -83.1667)" d="M 7739.91,4309.87 L 7749.83,4315.6 L 7749.83,4327.05 L 7243.93,4619.14 L 7230.38,4615.5 L 7230.38,4604.05 L 7739.91,4309.87 Z " />
<path stroke="transparent" fill="#000000" transform="matrix(0.0833333 0 0 0.0833333 -147.733 -83.1667)" d="M 7759.75,4309.87 L 7749.83,4315.6 L 7739.91,4309.87 L 7739.91,3721.52 L 7749.83,3715.79 L 7759.75,3721.52 L 7759.75,4309.87 Z " />
<path stroke="transparent" fill="#000000" transform="matrix(0.0833333 0 0 0.0833333 -147.733 -83.1667)" d="M 8269.28,4604.05 L 8269.28,4626.96 L 7749.83,4327.05 L 7749.83,4315.6 L 7759.75,4309.87 L 8269.28,4604.05 Z " />
<path stroke="transparent" fill="#000000" transform="matrix(0.0833333 0 0 0.0833333 -147.733 -83.1667)" d="M 8778.81,4309.87 L 8798.65,4321.33 L 8269.28,4626.96 L 8269.28,4604.05 L 8778.81,4309.87 Z " />
<path stroke="transparent" fill="#000000" transform="matrix(0.0833333 0 0 0.0833333 -147.733 -83.1667)" d="M 8778.81,3721.52 L 8788.73,3715.79 L 8798.65,3721.52 L 8798.65,4321.33 L 8778.81,4309.87 L 8778.81,3721.52 Z " />
<path stroke="transparent" fill="#000000" transform="matrix(0.0833333 0 0 0.0833333 -147.733 -83.1667)" d="M 8777.3,3697.73 L 8788.73,3715.79 L 8778.81,3721.52 L 8269.28,3427.34 L 8269.28,3415.88 L 8279.66,3410.42 L 8777.3,3697.73 Z " />
<path stroke="transparent" fill="#000000" transform="matrix(0.0833333 0 0 0.0833333 -147.733 -83.1667)" d="M 9298.26,3410.15 L 9308.18,3415.88 L 9308.18,3427.34 L 8798.65,3721.52 L 8788.73,3715.79 L 8800.16,3697.73 L 9298.26,3410.15 Z " />
<path stroke="transparent" fill="#000000" transform="matrix(0.0833333 0 0 0.0833333 -147.733 -83.1667)" d="M 9318.1,3410.15 L 9308.18,3415.88 L 9298.26,3410.15 L 9298.26,2821.8 L 9308.18,2816.07 L 9318.1,2821.8 L 9318.1,3410.15 Z " />
<path stroke="transparent" fill="#000000" transform="matrix(0.0833333 0 0 0.0833333 -147.733 -83.1667)" d="M 9827.64,3704.33 L 9827.64,3727.24 L 9308.18,3427.34 L 9308.18,3415.88 L 9318.1,3410.15 L 9827.64,3704.33 Z " />
<path stroke="transparent" fill="#000000" transform="matrix(0.0833333 0 0 0.0833333 -147.733 -83.1667)" d="M 10337.2,3410.15 L 10357,3421.61 L 9827.64,3727.24 L 9827.64,3704.33 L 10337.2,3410.15 Z " />
<path stroke="transparent" fill="#000000" transform="matrix(0.0833333 0 0 0.0833333 -147.733 -83.1667)" d="M 10357,3421.61 L 10337.2,3410.15 L 10337.2,2821.8 L 10347.1,2816.07 L 10357,2821.8 L 10357,3421.61 Z " />
<path stroke="transparent" fill="#000000" transform="matrix(0.0833333 0 0 0.0833333 -147.733 -83.1667)" d="M 10803.7,3610.23 L 10743.7,3714.15 L 10727.7,3702.27 L 10785.4,3602.27 L 10803.7,3610.23 Z " />
<path stroke="transparent" fill="#000000" transform="matrix(0.0833333 0 0 0.0833333 -147.733 -83.1667)" d="M 10748.5,3586.22 L 10695.3,3678.32 L 10679.2,3666.43 L 10730.2,3578.26 L 10748.5,3586.22 Z " />
<path stroke="transparent" fill="#000000" transform="matrix(0.0833333 0 0 0.0833333 -147.733 -83.1667)" d="M 10693.2,3562.22 L 10646.9,3642.48 L 10630.8,3630.6 L 10674.9,3554.26 L 10693.2,3562.22 Z " />
<path stroke="transparent" fill="#000000" transform="matrix(0.0833333 0 0 0.0833333 -147.733 -83.1667)" d="M 10638,3538.22 L 10598.5,3606.65 L 10582.4,3594.77 L 10619.7,3530.26 L 10638,3538.22 Z " />
<path stroke="transparent" fill="#000000" transform="matrix(0.0833333 0 0 0.0833333 -147.733 -83.1667)" d="M 10582.8,3514.22 L 10550.1,3570.82 L 10534,3558.94 L 10564.4,3506.26 L 10582.8,3514.22 Z " />
<path stroke="transparent" fill="#000000" transform="matrix(0.0833333 0 0 0.0833333 -147.733 -83.1667)" d="M 10527.5,3490.22 L 10501.7,3534.99 L 10485.6,3523.1 L 10509.2,3482.26 L 10527.5,3490.22 Z " />
<path stroke="transparent" fill="#000000" transform="matrix(0.0833333 0 0 0.0833333 -147.733 -83.1667)" d="M 10472.3,3466.21 L 10453.3,3499.15 L 10437.2,3487.27 L 10454,3458.25 L 10472.3,3466.21 Z " />
<path stroke="transparent" fill="#000000" transform="matrix(0.0833333 0 0 0.0833333 -147.733 -83.1667)" d="M 10417.1,3442.21 L 10404.9,3463.32 L 10388.8,3451.44 L 10398.7,3434.25 L 10417.1,3442.21 Z " />
<path stroke="transparent" fill="#000000" transform="matrix(0.0833333 0 0 0.0833333 -147.733 -83.1667)" d="M 9368.18,4015.69 L 9248.18,4015.69 L 9250,3995.85 L 9366.36,3995.85 L 9368.18,4015.69 Z " />
<path stroke="transparent" fill="#000000" transform="matrix(0.0833333 0 0 0.0833333 -147.733 -83.1667)" d="M 9362.82,3957.24 L 9253.55,3957.24 L 9255.37,3937.4 L 9361,3937.4 L 9362.82,3957.24 Z " />
<path stroke="transparent" fill="#000000" transform="matrix(0.0833333 0 0 0.0833333 -147.733 -83.1667)" d="M 9357.46,3898.8 L 9258.91,3898.8 L 9260.73,3878.95 L 9355.64,3878.95 L 9357.46,3898.8 Z " />
<path stroke="transparent" fill="#000000" transform="matrix(0.0833333 0 0 0.0833333 -147.733 -83.1667)" d="M 9352.1,3840.35 L 9264.27,3840.35 L 9266.09,3820.5 L 9350.28,3820.5 L 9352.1,3840.35 Z " />
<path stroke="transparent" fill="#000000" transform="matrix(0.0833333 0 0 0.0833333 -147.733 -83.1667)" d="M 9346.74,3781.9 L 9269.63,3781.9 L 9271.45,3762.06 L 9344.92,3762.06 L 9346.74,3781.9 Z " />
<path stroke="transparent" fill="#000000" transform="matrix(0.0833333 0 0 0.0833333 -147.733 -83.1667)" d="M 9341.37,3723.45 L 9274.99,3723.45 L 9276.81,3703.61 L 9339.55,3703.61 L 9341.37,3723.45 Z " />
<path stroke="transparent" fill="#000000" transform="matrix(0.0833333 0 0 0.0833333 -147.733 -83.1667)" d="M 9336.01,3665 L 9280.36,3665 L 9282.18,3645.16 L 9334.19,3645.16 L 9336.01,3665 Z " />
<path stroke="transparent" fill="#000000" transform="matrix(0.0833333 0 0 0.0833333 -147.733 -83.1667)" d="M 9330.65,3606.55 L 9285.72,3606.55 L 9287.54,3586.71 L 9328.83,3586.71 L 9330.65,3606.55 Z " />
<path stroke="transparent" fill="#000000" transform="matrix(0.0833333 0 0 0.0833333 -147.733 -83.1667)" d="M 9325.29,3548.1 L 9291.08,3548.1 L 9292.9,3528.26 L 9323.47,3528.26 L 9325.29,3548.1 Z " />
<path stroke="transparent" fill="#000000" transform="matrix(0.0833333 0 0 0.0833333 -147.733 -83.1667)" d="M 9319.93,3489.66 L 9296.44,3489.66 L 9298.26,3469.81 L 9318.1,3469.81 L 9319.93,3489.66 Z " />
<path stroke="transparent" fill="#000000" transform="matrix(0.0833333 0 0 0.0833333 -147.733 -83.1667)" d="M 8728.73,3115.98 L 8848.73,3115.98 L 8800.16,3697.73 L 8788.73,3715.79 L 8777.3,3697.73 L 8728.73,3115.98 Z " />
<path stroke="transparent" fill="#000000" transform="matrix(0.0833333 0 0 0.0833333 -147.733 -83.1667)" d="M 7538.87,5129.99 L 7521.69,5139.92 L 7230.38,4635.35 L 7230.38,4615.5 L 7243.93,4619.14 L 7538.87,5129.99 Z " />
<path stroke="transparent" fill="#000000" transform="matrix(0.0833333 0 0 0.0833333 -147.733 -83.1667)" d="M 6939.06,5139.92 L 6921.88,5129.99 L 7216.82,4619.14 L 7230.38,4615.5 L 7230.38,4635.35 L 6939.06,5139.92 Z " />
<path stroke="transparent" fill="#000000" transform="matrix(0.0833333 0 0 0.0833333 -147.733 -83.1667)" d="M 6314.31,4613.87 L 6254.31,4509.94 L 6701,4309.24 L 6710.93,4315.6 L 6711.48,4327.37 L 6314.31,4613.87 Z " />
<path stroke="transparent" fill="#000000" transform="matrix(0.0833333 0 0 0.0833333 -147.733 -83.1667)" d="M 6201.4,5161.37 L 6181.55,5161.37 L 6179.22,5141.53 L 6203.73,5141.53 L 6201.4,5161.37 Z " />
<path stroke="transparent" fill="#000000" transform="matrix(0.0833333 0 0 0.0833333 -147.733 -83.1667)" d="M 6208.22,5103.38 L 6174.73,5103.38 L 6172.4,5083.54 L 6210.55,5083.54 L 6208.22,5103.38 Z " />
<path stroke="transparent" fill="#000000" transform="matrix(0.0833333 0 0 0.0833333 -147.733 -83.1667)" d="M 6215.04,5045.39 L 6167.91,5045.39 L 6165.58,5025.55 L 6217.37,5025.55 L 6215.04,5045.39 Z " />
<path stroke="transparent" fill="#000000" transform="matrix(0.0833333 0 0 0.0833333 -147.733 -83.1667)" d="M 6221.86,4987.4 L 6161.09,4987.4 L 6158.76,4967.56 L 6224.19,4967.56 L 6221.86,4987.4 Z " />
<path stroke="transparent" fill="#000000" transform="matrix(0.0833333 0 0 0.0833333 -147.733 -83.1667)" d="M 6228.68,4929.41 L 6154.27,4929.41 L 6151.94,4909.56 L 6231.01,4909.56 L 6228.68,4929.41 Z " />
<path stroke="transparent" fill="#000000" transform="matrix(0.0833333 0 0 0.0833333 -147.733 -83.1667)" d="M 6235.5,4871.42 L 6147.45,4871.42 L 6145.12,4851.57 L 6237.83,4851.57 L 6235.5,4871.42 Z " />
<path stroke="transparent" fill="#000000" transform="matrix(0.0833333 0 0 0.0833333 -147.733 -83.1667)" d="M 6242.32,4813.42 L 6140.63,4813.42 L 6138.29,4793.58 L 6244.65,4793.58 L 6242.32,4813.42 Z " />
<path stroke="transparent" fill="#000000" transform="matrix(0.0833333 0 0 0.0833333 -147.733 -83.1667)" d="M 6249.14,4755.43 L 6133.81,4755.43 L 6131.47,4735.59 L 6251.47,4735.59 L 6249.14,4755.43 Z " />
<path stroke="transparent" fill="#000000" transform="matrix(0.0833333 0 0 0.0833333 -147.733 -83.1667)" d="M 5681.94,5520.95 L 5672.02,5515.22 L 5672.58,5503.44 L 6191.47,5203.86 L 6191.47,5226.77 L 5681.94,5520.95 Z " />
<path stroke="transparent" fill="#000000" transform="matrix(0.0833333 0 0 0.0833333 -147.733 -83.1667)" d="M 5681.94,6109.3 L 5662.1,6120.76 L 5662.1,5521.59 L 5672.02,5515.22 L 5681.94,5520.95 L 5681.94,6109.3 Z " />
<path stroke="transparent" fill="#000000" transform="matrix(0.0833333 0 0 0.0833333 -147.733 -83.1667)" d="M 6191.47,6403.48 L 6191.47,6426.39 L 5662.1,6120.76 L 5681.94,6109.3 L 6191.47,6403.48 Z " />
<path stroke="transparent" fill="#000000" transform="matrix(0.0833333 0 0 0.0833333 -147.733 -83.1667)" d="M 6701,6109.3 L 6720.85,6120.76 L 6191.47,6426.39 L 6191.47,6403.48 L 6701,6109.3 Z " />
<path stroke="transparent" fill="#000000" transform="matrix(0.0833333 0 0 0.0833333 -147.733 -83.1667)" d="M 6701,5635.31 L 6720.85,5635.31 L 6720.85,6120.76 L 6701,6109.3 L 6701,5635.31 Z " />
<path stroke="transparent" fill="#000000" transform="matrix(0.0833333 0 0 0.0833333 -147.733 -83.1667)" d="M 6623.05,5453.03 L 6613.13,5470.21 L 6191.47,5226.77 L 6191.47,5203.86 L 6623.05,5453.03 Z " />
<path stroke="transparent" fill="#000000" transform="matrix(0.0833333 0 0 0.0833333 -147.733 -83.1667)" d="M 6251.47,6909.33 L 6131.47,6909.33 L 6133.73,6889.49 L 6249.22,6889.49 L 6251.47,6909.33 Z " />
<path stroke="transparent" fill="#000000" transform="matrix(0.0833333 0 0 0.0833333 -147.733 -83.1667)" d="M 6244.64,6849.24 L 6138.31,6849.24 L 6140.56,6829.39 L 6242.39,6829.39 L 6244.64,6849.24 Z " />
<path stroke="transparent" fill="#000000" transform="matrix(0.0833333 0 0 0.0833333 -147.733 -83.1667)" d="M 6237.81,6789.14 L 6145.14,6789.14 L 6147.39,6769.3 L 6235.55,6769.3 L 6237.81,6789.14 Z " />
<path stroke="transparent" fill="#000000" transform="matrix(0.0833333 0 0 0.0833333 -147.733 -83.1667)" d="M 6230.98,6729.05 L 6151.97,6729.05 L 6154.23,6709.21 L 6228.72,6709.21 L 6230.98,6729.05 Z " />
<path stroke="transparent" fill="#000000" transform="matrix(0.0833333 0 0 0.0833333 -147.733 -83.1667)" d="M 6224.15,6668.96 L 6158.8,6668.96 L 6161.06,6649.12 L 6221.89,6649.12 L 6224.15,6668.96 Z " />
<path stroke="transparent" fill="#000000" transform="matrix(0.0833333 0 0 0.0833333 -147.733 -83.1667)" d="M 6217.32,6608.87 L 6165.63,6608.87 L 6167.89,6589.02 L 6215.06,6589.02 L 6217.32,6608.87 Z " />
<path stroke="transparent" fill="#000000" transform="matrix(0.0833333 0 0 0.0833333 -147.733 -83.1667)" d="M 6210.48,6548.77 L 6172.47,6548.77 L 6174.72,6528.93 L 6208.23,6528.93 L 6210.48,6548.77 Z " />
<path stroke="transparent" fill="#000000" transform="matrix(0.0833333 0 0 0.0833333 -147.733 -83.1667)" d="M 6203.65,6488.68 L 6179.3,6488.68 L 6181.55,6468.84 L 6201.4,6468.84 L 6203.65,6488.68 Z " />
<path stroke="transparent" fill="#000000" transform="matrix(0.0833333 0 0 0.0833333 -147.733 -83.1667)" d="M 6711.49,7302.87 L 6710.93,7314.65 L 6701,7321.03 L 6261.73,7124.59 L 6321.73,7020.67 L 6711.49,7302.87 Z " />
<path stroke="transparent" fill="#000000" transform="matrix(0.0833333 0 0 0.0833333 -147.733 -83.1667)" d="M 7230.38,7003.29 L 7230.38,7026.2 L 6720.85,7320.38 L 6710.93,7314.65 L 6711.49,7302.87 L 7230.38,7003.29 Z " />
<path stroke="transparent" fill="#000000" transform="matrix(0.0833333 0 0 0.0833333 -147.733 -83.1667)" d="M 7749.27,7302.87 L 7749.83,7314.65 L 7739.91,7320.38 L 7230.38,7026.2 L 7230.38,7003.29 L 7749.27,7302.87 Z " />
<path stroke="transparent" fill="#000000" transform="matrix(0.0833333 0 0 0.0833333 -147.733 -83.1667)" d="M 7759.75,7920.19 L 7739.91,7908.74 L 7739.91,7320.38 L 7749.83,7314.65 L 7759.75,7321.03 L 7759.75,7920.19 Z " />
<path stroke="transparent" fill="#000000" transform="matrix(0.0833333 0 0 0.0833333 -147.733 -83.1667)" d="M 7230.38,8225.83 L 7230.38,8202.91 L 7739.91,7908.74 L 7759.75,7920.19 L 7230.38,8225.83 Z " />
<path stroke="transparent" fill="#000000" transform="matrix(0.0833333 0 0 0.0833333 -147.733 -83.1667)" d="M 6806.22,7980.94 L 6816.14,7963.75 L 7230.38,8202.91 L 7230.38,8225.83 L 6806.22,7980.94 Z " />
<path stroke="transparent" fill="#000000" transform="matrix(0.0833333 0 0 0.0833333 -147.733 -83.1667)" d="M 6720.85,7809.05 L 6701,7809.05 L 6701,7321.03 L 6710.93,7314.65 L 6720.85,7320.38 L 6720.85,7809.05 Z " />
<path stroke="transparent" fill="#000000" transform="matrix(0.0833333 0 0 0.0833333 -147.733 -83.1667)" d="M 8206.44,8108.81 L 8146.44,8212.73 L 8130.39,8200.85 L 8188.13,8100.85 L 8206.44,8108.81 Z " />
<path stroke="transparent" fill="#000000" transform="matrix(0.0833333 0 0 0.0833333 -147.733 -83.1667)" d="M 8151.21,8084.81 L 8098.04,8176.9 L 8081.99,8165.02 L 8132.89,8076.85 L 8151.21,8084.81 Z " />
<path stroke="transparent" fill="#000000" transform="matrix(0.0833333 0 0 0.0833333 -147.733 -83.1667)" d="M 8095.98,8060.8 L 8049.64,8141.07 L 8033.59,8129.18 L 8077.66,8052.85 L 8095.98,8060.8 Z " />
<path stroke="transparent" fill="#000000" transform="matrix(0.0833333 0 0 0.0833333 -147.733 -83.1667)" d="M 8040.74,8036.8 L 8001.23,8105.23 L 7985.18,8093.35 L 8022.43,8028.84 L 8040.74,8036.8 Z " />
<path stroke="transparent" fill="#000000" transform="matrix(0.0833333 0 0 0.0833333 -147.733 -83.1667)" d="M 7985.51,8012.8 L 7952.83,8069.4 L 7936.78,8057.52 L 7967.19,8004.84 L 7985.51,8012.8 Z " />
<path stroke="transparent" fill="#000000" transform="matrix(0.0833333 0 0 0.0833333 -147.733 -83.1667)" d="M 7930.27,7988.8 L 7904.43,8033.57 L 7888.38,8021.68 L 7911.96,7980.84 L 7930.27,7988.8 Z " />
<path stroke="transparent" fill="#000000" transform="matrix(0.0833333 0 0 0.0833333 -147.733 -83.1667)" d="M 7875.04,7964.8 L 7856.02,7997.73 L 7839.97,7985.85 L 7856.72,7956.84 L 7875.04,7964.8 Z " />
<path stroke="transparent" fill="#000000" transform="matrix(0.0833333 0 0 0.0833333 -147.733 -83.1667)" d="M 7819.81,7940.79 L 7807.62,7961.9 L 7791.57,7950.02 L 7801.49,7932.83 L 7819.81,7940.79 Z " />
<path stroke="transparent" fill="#000000" transform="matrix(0.0833333 0 0 0.0833333 -147.733 -83.1667)" d="M 8139.46,7020.42 L 8199.46,7124.34 L 7759.75,7321.03 L 7749.83,7314.65 L 7749.27,7302.87 L 8139.46,7020.42 Z " />
<path stroke="transparent" fill="#000000" transform="matrix(0.0833333 0 0 0.0833333 -147.733 -83.1667)" d="M 7170.38,6535.02 L 7290.38,6535.02 L 7288.04,6554.86 L 7172.71,6554.86 L 7170.38,6535.02 Z " />
<path stroke="transparent" fill="#000000" transform="matrix(0.0833333 0 0 0.0833333 -147.733 -83.1667)" d="M 7177.2,6593.01 L 7283.56,6593.01 L 7281.22,6612.86 L 7179.53,6612.86 L 7177.2,6593.01 Z " />
<path stroke="transparent" fill="#000000" transform="matrix(0.0833333 0 0 0.0833333 -147.733 -83.1667)" d="M 7184.02,6651.01 L 7276.74,6651.01 L 7274.4,6670.85 L 7186.35,6670.85 L 7184.02,6651.01 Z " />
<path stroke="transparent" fill="#000000" transform="matrix(0.0833333 0 0 0.0833333 -147.733 -83.1667)" d="M 7190.84,6709 L 7269.92,6709 L 7267.58,6728.84 L 7193.17,6728.84 L 7190.84,6709 Z " />
<path stroke="transparent" fill="#000000" transform="matrix(0.0833333 0 0 0.0833333 -147.733 -83.1667)" d="M 7197.66,6766.99 L 7263.09,6766.99 L 7260.76,6786.83 L 7199.99,6786.83 L 7197.66,6766.99 Z " />
<path stroke="transparent" fill="#000000" transform="matrix(0.0833333 0 0 0.0833333 -147.733 -83.1667)" d="M 7204.48,6824.98 L 7256.27,6824.98 L 7253.94,6844.82 L 7206.81,6844.82 L 7204.48,6824.98 Z " />
<path stroke="transparent" fill="#000000" transform="matrix(0.0833333 0 0 0.0833333 -147.733 -83.1667)" d="M 7211.3,6882.97 L 7249.45,6882.97 L 7247.12,6902.82 L 7213.64,6902.82 L 7211.3,6882.97 Z " />
<path stroke="transparent" fill="#000000" transform="matrix(0.0833333 0 0 0.0833333 -147.733 -83.1667)" d="M 7218.12,6940.97 L 7242.63,6940.97 L 7240.3,6960.81 L 7220.46,6960.81 L 7218.12,6940.97 Z " />
<path stroke="transparent" fill="#000000" transform="matrix(0.0833333 0 0 0.0833333 -147.733 -83.1667)" d="M 5275.41,6413.3 L 5215.41,6309.38 L 5233.72,6301.42 L 5291.46,6401.42 L 5275.41,6413.3 Z " />
<path stroke="transparent" fill="#000000" transform="matrix(0.0833333 0 0 0.0833333 -147.733 -83.1667)" d="M 5323.81,6377.47 L 5270.64,6285.37 L 5288.96,6277.41 L 5339.86,6365.58 L 5323.81,6377.47 Z " />
<path stroke="transparent" fill="#000000" transform="matrix(0.0833333 0 0 0.0833333 -147.733 -83.1667)" d="M 5372.21,6341.63 L 5325.88,6261.37 L 5344.19,6253.41 L 5388.27,6329.75 L 5372.21,6341.63 Z " />
<path stroke="transparent" fill="#000000" transform="matrix(0.0833333 0 0 0.0833333 -147.733 -83.1667)" d="M 5420.62,6305.8 L 5381.11,6237.37 L 5399.43,6229.41 L 5436.67,6293.92 L 5420.62,6305.8 Z " />
<path stroke="transparent" fill="#000000" transform="matrix(0.0833333 0 0 0.0833333 -147.733 -83.1667)" d="M 5469.02,6269.97 L 5436.34,6213.37 L 5454.66,6205.41 L 5485.07,6258.08 L 5469.02,6269.97 Z " />
<path stroke="transparent" fill="#000000" transform="matrix(0.0833333 0 0 0.0833333 -147.733 -83.1667)" d="M 5517.42,6234.13 L 5491.58,6189.37 L 5509.89,6181.41 L 5533.48,6222.25 L 5517.42,6234.13 Z " />
<path stroke="transparent" fill="#000000" transform="matrix(0.0833333 0 0 0.0833333 -147.733 -83.1667)" d="M 5565.83,6198.3 L 5546.81,6165.36 L 5565.13,6157.4 L 5581.88,6186.42 L 5565.83,6198.3 Z " />
<path stroke="transparent" fill="#000000" transform="matrix(0.0833333 0 0 0.0833333 -147.733 -83.1667)" d="M 5614.23,6162.47 L 5602.04,6141.36 L 5620.36,6133.4 L 5630.28,6150.59 L 5614.23,6162.47 Z " />
<path stroke="transparent" fill="#000000" transform="matrix(0.0833333 0 0 0.0833333 -147.733 -83.1667)" d="M 5163.06,7009.35 L 5152.57,7014.75 L 5142.09,7009.35 L 5092.57,6535.02 L 5212.57,6535.02 L 5163.06,7009.35 Z " />
<path stroke="transparent" fill="#000000" transform="matrix(0.0833333 0 0 0.0833333 -147.733 -83.1667)" d="M 4643.04,7320.38 L 4633.12,7314.65 L 4633.68,7302.87 L 5142.09,7009.35 L 5152.57,7014.75 L 5152.57,7026.2 L 4643.04,7320.38 Z " />
<path stroke="transparent" fill="#000000" transform="matrix(0.0833333 0 0 0.0833333 -147.733 -83.1667)" d="M 4643.04,7908.74 L 4623.2,7920.19 L 4623.2,7321.03 L 4633.12,7314.65 L 4643.04,7320.38 L 4643.04,7908.74 Z " />
<path stroke="transparent" fill="#000000" transform="matrix(0.0833333 0 0 0.0833333 -147.733 -83.1667)" d="M 5152.57,8202.91 L 5152.57,8214.37 L 5142.1,8219.78 L 4623.2,7920.19 L 4643.04,7908.74 L 5152.57,8202.91 Z " />
<path stroke="transparent" fill="#000000" transform="matrix(0.0833333 0 0 0.0833333 -147.733 -83.1667)" d="M 5662.1,7908.74 L 5681.94,7920.19 L 5163.04,8219.78 L 5152.57,8214.37 L 5152.57,8202.91 L 5662.1,7908.74 Z " />
<path stroke="transparent" fill="#000000" transform="matrix(0.0833333 0 0 0.0833333 -147.733 -83.1667)" d="M 5662.1,7434.74 L 5681.94,7434.74 L 5681.94,7920.19 L 5662.1,7908.74 L 5662.1,7434.74 Z " />
<path stroke="transparent" fill="#000000" transform="matrix(0.0833333 0 0 0.0833333 -147.733 -83.1667)" d="M 5584.15,7252.46 L 5574.23,7269.65 L 5152.57,7026.2 L 5152.57,7014.75 L 5163.06,7009.35 L 5584.15,7252.46 Z " />
<path stroke="transparent" fill="#000000" transform="matrix(0.0833333 0 0 0.0833333 -147.733 -83.1667)" d="M 6174.77,8135.44 L 6114.77,8239.37 L 6098.59,8227.7 L 6156.57,8127.27 L 6174.77,8135.44 Z " />
<path stroke="transparent" fill="#000000" transform="matrix(0.0833333 0 0 0.0833333 -147.733 -83.1667)" d="M 6120.66,8111.14 L 6066.67,8204.66 L 6050.49,8192.99 L 6102.46,8102.97 L 6120.66,8111.14 Z " />
<path stroke="transparent" fill="#000000" transform="matrix(0.0833333 0 0 0.0833333 -147.733 -83.1667)" d="M 6066.55,8086.83 L 6018.56,8169.95 L 6002.39,8158.28 L 6048.35,8078.66 L 6066.55,8086.83 Z " />
<path stroke="transparent" fill="#000000" transform="matrix(0.0833333 0 0 0.0833333 -147.733 -83.1667)" d="M 6012.44,8062.53 L 5970.46,8135.24 L 5954.28,8123.57 L 5994.24,8054.36 L 6012.44,8062.53 Z " />
<path stroke="transparent" fill="#000000" transform="matrix(0.0833333 0 0 0.0833333 -147.733 -83.1667)" d="M 5958.33,8038.23 L 5922.36,8100.53 L 5906.18,8088.86 L 5940.13,8030.05 L 5958.33,8038.23 Z " />
<path stroke="transparent" fill="#000000" transform="matrix(0.0833333 0 0 0.0833333 -147.733 -83.1667)" d="M 5904.22,8013.92 L 5874.25,8065.82 L 5858.08,8054.15 L 5886.02,8005.75 L 5904.22,8013.92 Z " />
<path stroke="transparent" fill="#000000" transform="matrix(0.0833333 0 0 0.0833333 -147.733 -83.1667)" d="M 5850.1,7989.62 L 5826.15,8031.11 L 5809.97,8019.44 L 5831.91,7981.45 L 5850.1,7989.62 Z " />
<path stroke="transparent" fill="#000000" transform="matrix(0.0833333 0 0 0.0833333 -147.733 -83.1667)" d="M 5795.99,7965.31 L 5778.05,7996.4 L 5761.87,7984.73 L 5777.8,7957.14 L 5795.99,7965.31 Z " />
<path stroke="transparent" fill="#000000" transform="matrix(0.0833333 0 0 0.0833333 -147.733 -83.1667)" d="M 5741.88,7941.01 L 5729.94,7961.69 L 5713.77,7950.02 L 5723.69,7932.84 L 5741.88,7941.01 Z " />
<path stroke="transparent" fill="#000000" transform="matrix(0.0833333 0 0 0.0833333 -147.733 -83.1667)" d="M 6201.4,8708.76 L 6181.55,8708.76 L 6181.55,8214.37 L 6201.4,8214.37 L 6201.4,8708.76 Z " />
<path stroke="transparent" fill="#000000" transform="matrix(0.0833333 0 0 0.0833333 -147.733 -83.1667)" d="M 5212.57,8708.76 L 5092.57,8708.76 L 5142.1,8219.78 L 5152.57,8214.37 L 5163.04,8219.78 L 5212.57,8708.76 Z " />
<path stroke="transparent" fill="#000000" transform="matrix(0.0833333 0 0 0.0833333 -147.733 -83.1667)" d="M 4236.5,8212.74 L 4176.5,8108.81 L 4194.81,8100.85 L 4252.55,8200.85 L 4236.5,8212.74 Z " />
<path stroke="transparent" fill="#000000" transform="matrix(0.0833333 0 0 0.0833333 -147.733 -83.1667)" d="M 4284.9,8176.9 L 4231.73,8084.81 L 4250.05,8076.85 L 4300.95,8165.02 L 4284.9,8176.9 Z " />
<path stroke="transparent" fill="#000000" transform="matrix(0.0833333 0 0 0.0833333 -147.733 -83.1667)" d="M 4333.31,8141.07 L 4286.97,8060.81 L 4305.28,8052.85 L 4349.36,8129.19 L 4333.31,8141.07 Z " />
<path stroke="transparent" fill="#000000" transform="matrix(0.0833333 0 0 0.0833333 -147.733 -83.1667)" d="M 4381.71,8105.24 L 4342.2,8036.81 L 4360.52,8028.85 L 4397.76,8093.35 L 4381.71,8105.24 Z " />
<path stroke="transparent" fill="#000000" transform="matrix(0.0833333 0 0 0.0833333 -147.733 -83.1667)" d="M 4430.11,8069.4 L 4397.44,8012.8 L 4415.75,8004.84 L 4446.17,8057.52 L 4430.11,8069.4 Z " />
<path stroke="transparent" fill="#000000" transform="matrix(0.0833333 0 0 0.0833333 -147.733 -83.1667)" d="M 4478.52,8033.57 L 4452.67,7988.8 L 4470.99,7980.84 L 4494.57,8021.69 L 4478.52,8033.57 Z " />
<path stroke="transparent" fill="#000000" transform="matrix(0.0833333 0 0 0.0833333 -147.733 -83.1667)" d="M 4526.92,7997.74 L 4507.91,7964.8 L 4526.22,7956.84 L 4542.97,7985.85 L 4526.92,7997.74 Z " />
<path stroke="transparent" fill="#000000" transform="matrix(0.0833333 0 0 0.0833333 -147.733 -83.1667)" d="M 4575.33,7961.9 L 4563.14,7940.8 L 4581.46,7932.84 L 4591.38,7950.02 L 4575.33,7961.9 Z " />
<path stroke="transparent" fill="#000000" transform="matrix(0.0833333 0 0 0.0833333 -147.733 -83.1667)" d="M 4183.91,7124.59 L 4243.91,7020.66 L 4633.68,7302.87 L 4633.12,7314.65 L 4623.2,7321.03 L 4183.91,7124.59 Z " />
<path stroke="transparent" fill="#000000" transform="matrix(0.0833333 0 0 0.0833333 -147.733 -83.1667)" d="M 5222.83,5325.16 L 5282.83,5221.24 L 5672.58,5503.44 L 5672.02,5515.22 L 5662.1,5521.59 L 5222.83,5325.16 Z " />
<path stroke="transparent" fill="#000000" transform="matrix(0.0833333 0 0 0.0833333 -147.733 -83.1667)" d="M 5142.1,4620.92 L 5152.57,4615.5 L 5163.04,4620.92 L 5212.57,5109.9 L 5092.57,5109.9 L 5142.1,4620.92 Z " />
<path stroke="transparent" fill="#000000" transform="matrix(0.0833333 0 0 0.0833333 -147.733 -83.1667)" d="M 4623.2,4321.33 L 4643.04,4309.87 L 5152.57,4604.05 L 5152.57,4615.5 L 5142.1,4620.92 L 4623.2,4321.33 Z " />
<path stroke="transparent" fill="#000000" transform="matrix(0.0833333 0 0 0.0833333 -147.733 -83.1667)" d="M 4623.2,3722.16 L 4633.12,3715.79 L 4643.04,3721.52 L 4643.04,4309.87 L 4623.2,4321.33 L 4623.2,3722.16 Z " />
<path stroke="transparent" fill="#000000" transform="matrix(0.0833333 0 0 0.0833333 -147.733 -83.1667)" d="M 5152.57,3404.43 L 5152.57,3427.34 L 4643.04,3721.52 L 4633.12,3715.79 L 4633.68,3704.01 L 5152.57,3404.43 Z " />
<path stroke="transparent" fill="#000000" transform="matrix(0.0833333 0 0 0.0833333 -147.733 -83.1667)" d="M 5671.57,3704.07 L 5672.02,3715.79 L 5662.1,3721.52 L 5152.57,3427.34 L 5152.57,3404.43 L 5671.57,3704.07 Z " />
<path stroke="transparent" fill="#000000" transform="matrix(0.0833333 0 0 0.0833333 -147.733 -83.1667)" d="M 5681.94,4210.18 L 5662.1,4210.18 L 5662.1,3721.52 L 5672.02,3715.79 L 5681.94,3722.04 L 5681.94,4210.18 Z " />
<path stroke="transparent" fill="#000000" transform="matrix(0.0833333 0 0 0.0833333 -147.733 -83.1667)" d="M 5567.24,4364.64 L 5577.16,4381.82 L 5163.04,4620.92 L 5152.57,4615.5 L 5152.57,4604.05 L 5567.24,4364.64 Z " />
<path stroke="transparent" fill="#000000" transform="matrix(0.0833333 0 0 0.0833333 -147.733 -83.1667)" d="M 6181.55,3349.98 L 6201.4,3477.3 L 5681.94,3722.04 L 5672.02,3715.79 L 5671.57,3704.07 L 6181.55,3349.98 Z " />
<path stroke="transparent" fill="#000000" transform="matrix(0.0833333 0 0 0.0833333 -147.733 -83.1667)" d="M 6181.55,2936.16 L 6201.4,2936.16 L 6201.4,3477.3 L 6181.55,3349.98 L 6181.55,2936.16 Z " />
<path stroke="transparent" fill="#000000" transform="matrix(0.0833333 0 0 0.0833333 -147.733 -83.1667)" d="M 5092.57,2936.16 L 5212.57,2936.16 L 5210.24,2956 L 5094.9,2956 L 5092.57,2936.16 Z " />
<path stroke="transparent" fill="#000000" transform="matrix(0.0833333 0 0 0.0833333 -147.733 -83.1667)" d="M 5099.39,2994.15 L 5205.75,2994.15 L 5203.42,3013.99 L 5101.73,3013.99 L 5099.39,2994.15 Z " />
<path stroke="transparent" fill="#000000" transform="matrix(0.0833333 0 0 0.0833333 -147.733 -83.1667)" d="M 5106.21,3052.14 L 5198.93,3052.14 L 5196.6,3071.98 L 5108.55,3071.98 L 5106.21,3052.14 Z " />
<path stroke="transparent" fill="#000000" transform="matrix(0.0833333 0 0 0.0833333 -147.733 -83.1667)" d="M 5113.03,3110.13 L 5192.11,3110.13 L 5189.78,3129.97 L 5115.37,3129.97 L 5113.03,3110.13 Z " />
<path stroke="transparent" fill="#000000" transform="matrix(0.0833333 0 0 0.0833333 -147.733 -83.1667)" d="M 5119.85,3168.12 L 5185.29,3168.12 L 5182.95,3187.97 L 5122.19,3187.97 L 5119.85,3168.12 Z " />
<path stroke="transparent" fill="#000000" transform="matrix(0.0833333 0 0 0.0833333 -147.733 -83.1667)" d="M 5126.67,3226.12 L 5178.47,3226.12 L 5176.13,3245.96 L 5129.01,3245.96 L 5126.67,3226.12 Z " />
<path stroke="transparent" fill="#000000" transform="matrix(0.0833333 0 0 0.0833333 -147.733 -83.1667)" d="M 5133.5,3284.11 L 5171.65,3284.11 L 5169.31,3303.95 L 5135.83,3303.95 L 5133.5,3284.11 Z " />
<path stroke="transparent" fill="#000000" transform="matrix(0.0833333 0 0 0.0833333 -147.733 -83.1667)" d="M 5140.32,3342.1 L 5164.83,3342.1 L 5162.49,3361.94 L 5142.65,3361.94 L 5140.32,3342.1 Z " />
<path stroke="transparent" fill="#000000" transform="matrix(0.0833333 0 0 0.0833333 -147.733 -83.1667)" d="M 4183.91,3525.72 L 4243.91,3421.8 L 4633.68,3704.01 L 4633.12,3715.79 L 4623.2,3722.16 L 4183.91,3525.72 Z " />
<path stroke="transparent" fill="#000000" transform="matrix(0.0833333 0 0 0.0833333 -147.733 -83.1667)" d="M 4236.5,4613.87 L 4176.5,4509.94 L 4194.82,4501.98 L 4252.56,4601.98 L 4236.5,4613.87 Z " />
<path stroke="transparent" fill="#000000" transform="matrix(0.0833333 0 0 0.0833333 -147.733 -83.1667)" d="M 4284.91,4578.03 L 4231.74,4485.94 L 4250.06,4477.98 L 4300.96,4566.15 L 4284.91,4578.03 Z " />
<path stroke="transparent" fill="#000000" transform="matrix(0.0833333 0 0 0.0833333 -147.733 -83.1667)" d="M 4333.31,4542.2 L 4286.97,4461.94 L 4305.29,4453.98 L 4349.36,4530.32 L 4333.31,4542.2 Z " />
<path stroke="transparent" fill="#000000" transform="matrix(0.0833333 0 0 0.0833333 -147.733 -83.1667)" d="M 4381.71,4506.37 L 4342.21,4437.94 L 4360.52,4429.98 L 4397.77,4494.48 L 4381.71,4506.37 Z " />
<path stroke="transparent" fill="#000000" transform="matrix(0.0833333 0 0 0.0833333 -147.733 -83.1667)" d="M 4430.12,4470.53 L 4397.44,4413.93 L 4415.76,4405.98 L 4446.17,4458.65 L 4430.12,4470.53 Z " />
<path stroke="transparent" fill="#000000" transform="matrix(0.0833333 0 0 0.0833333 -147.733 -83.1667)" d="M 4478.52,4434.7 L 4452.67,4389.93 L 4470.99,4381.97 L 4494.57,4422.82 L 4478.52,4434.7 Z " />
<path stroke="transparent" fill="#000000" transform="matrix(0.0833333 0 0 0.0833333 -147.733 -83.1667)" d="M 4526.92,4398.87 L 4507.91,4365.93 L 4526.22,4357.97 L 4542.98,4386.99 L 4526.92,4398.87 Z " />
<path stroke="transparent" fill="#000000" transform="matrix(0.0833333 0 0 0.0833333 -147.733 -83.1667)" d="M 4575.33,4363.04 L 4563.14,4341.93 L 4581.46,4333.97 L 4591.38,4351.15 L 4575.33,4363.04 Z " />
<path stroke="transparent" fill="#000000" transform="matrix(0.0833333 0 0 0.0833333 -147.733 -83.1667)" d="M 3635.96,4351.15 L 3645.88,4333.97 L 3664.19,4341.93 L 3652.01,4363.04 L 3635.96,4351.15 Z " />
<path stroke="transparent" fill="#000000" transform="matrix(0.0833333 0 0 0.0833333 -147.733 -83.1667)" d="M 3684.36,4386.99 L 3701.11,4357.97 L 3719.43,4365.93 L 3700.41,4398.87 L 3684.36,4386.99 Z " />
<path stroke="transparent" fill="#000000" transform="matrix(0.0833333 0 0 0.0833333 -147.733 -83.1667)" d="M 3732.76,4422.82 L 3756.35,4381.97 L 3774.66,4389.93 L 3748.81,4434.7 L 3732.76,4422.82 Z " />
<path stroke="transparent" fill="#000000" transform="matrix(0.0833333 0 0 0.0833333 -147.733 -83.1667)" d="M 3781.17,4458.65 L 3811.58,4405.98 L 3829.9,4413.93 L 3797.22,4470.53 L 3781.17,4458.65 Z " />
<path stroke="transparent" fill="#000000" transform="matrix(0.0833333 0 0 0.0833333 -147.733 -83.1667)" d="M 3829.57,4494.48 L 3866.81,4429.98 L 3885.13,4437.94 L 3845.62,4506.37 L 3829.57,4494.48 Z " />
<path stroke="transparent" fill="#000000" transform="matrix(0.0833333 0 0 0.0833333 -147.733 -83.1667)" d="M 3877.97,4530.32 L 3922.05,4453.98 L 3940.36,4461.94 L 3894.02,4542.2 L 3877.97,4530.32 Z " />
<path stroke="transparent" fill="#000000" transform="matrix(0.0833333 0 0 0.0833333 -147.733 -83.1667)" d="M 3926.38,4566.15 L 3977.28,4477.98 L 3995.6,4485.94 L 3942.43,4578.03 L 3926.38,4566.15 Z " />
<path stroke="transparent" fill="#000000" transform="matrix(0.0833333 0 0 0.0833333 -147.733 -83.1667)" d="M 3974.78,4601.98 L 4032.51,4501.98 L 4050.83,4509.94 L 3990.83,4613.87 L 3974.78,4601.98 Z " />
<path stroke="transparent" fill="#000000" transform="matrix(0.0833333 0 0 0.0833333 -147.733 -83.1667)" d="M 3074.76,4626.96 L 3074.76,4604.05 L 3584.3,4309.87 L 3604.14,4321.33 L 3074.76,4626.96 Z " />
<path stroke="transparent" fill="#000000" transform="matrix(0.0833333 0 0 0.0833333 -147.733 -83.1667)" d="M 2555.86,4327.37 L 2555.31,4315.6 L 2565.23,4309.87 L 3074.76,4604.05 L 3074.76,4626.96 L 2555.86,4327.37 Z " />
<path stroke="transparent" fill="#000000" transform="matrix(0.0833333 0 0 0.0833333 -147.733 -83.1667)" d="M 2545.39,3710.06 L 2565.23,3721.52 L 2565.23,4309.87 L 2555.31,4315.6 L 2545.39,4309.24 L 2545.39,3710.06 Z " />
<path stroke="transparent" fill="#000000" transform="matrix(0.0833333 0 0 0.0833333 -147.733 -83.1667)" d="M 3064.39,3410.42 L 3074.76,3415.88 L 3074.76,3427.34 L 2565.23,3721.52 L 2545.39,3710.06 L 3064.39,3410.42 Z " />
<path stroke="transparent" fill="#000000" transform="matrix(0.0833333 0 0 0.0833333 -147.733 -83.1667)" d="M 3506.34,3653.6 L 3496.42,3670.78 L 3074.76,3427.34 L 3074.76,3415.88 L 3085.14,3410.42 L 3506.34,3653.6 Z " />
<path stroke="transparent" fill="#000000" transform="matrix(0.0833333 0 0 0.0833333 -147.733 -83.1667)" d="M 3584.3,3835.87 L 3604.14,3835.87 L 3604.14,4321.33 L 3584.3,4309.87 L 3584.3,3835.87 Z " />
<path stroke="transparent" fill="#000000" transform="matrix(0.0833333 0 0 0.0833333 -147.733 -83.1667)" d="M 3012.73,2791.71 L 3132.92,2838.19 L 3085.14,3410.42 L 3074.76,3415.88 L 3064.39,3410.42 L 3012.73,2791.71 Z " />
<path stroke="transparent" fill="#000000" transform="matrix(0.0833333 0 0 0.0833333 -147.733 -83.1667)" d="M 2650.6,2582.63 L 2660.52,2565.45 L 3132.92,2838.19 L 3012.73,2791.71 L 2650.6,2582.63 Z " />
<path stroke="transparent" fill="#000000" transform="matrix(0.0833333 0 0 0.0833333 -147.733 -83.1667)" d="M 2106.11,3525.72 L 2166.11,3421.8 L 2182.14,3433.72 L 2124.45,3533.64 L 2106.11,3525.72 Z " />
<path stroke="transparent" fill="#000000" transform="matrix(0.0833333 0 0 0.0833333 -147.733 -83.1667)" d="M 2160.29,3549.12 L 2213.46,3457.02 L 2229.49,3468.94 L 2178.63,3557.04 L 2160.29,3549.12 Z " />
<path stroke="transparent" fill="#000000" transform="matrix(0.0833333 0 0 0.0833333 -147.733 -83.1667)" d="M 2214.47,3572.52 L 2260.82,3492.24 L 2276.85,3504.16 L 2232.81,3580.44 L 2214.47,3572.52 Z " />
<path stroke="transparent" fill="#000000" transform="matrix(0.0833333 0 0 0.0833333 -147.733 -83.1667)" d="M 2268.65,3595.92 L 2308.17,3527.46 L 2324.2,3539.38 L 2286.99,3603.84 L 2268.65,3595.92 Z " />
<path stroke="transparent" fill="#000000" transform="matrix(0.0833333 0 0 0.0833333 -147.733 -83.1667)" d="M 2322.83,3619.32 L 2355.53,3562.68 L 2371.56,3574.6 L 2341.17,3627.24 L 2322.83,3619.32 Z " />
<path stroke="transparent" fill="#000000" transform="matrix(0.0833333 0 0 0.0833333 -147.733 -83.1667)" d="M 2377.01,3642.72 L 2402.89,3597.9 L 2418.91,3609.82 L 2395.35,3650.65 L 2377.01,3642.72 Z " />
<path stroke="transparent" fill="#000000" transform="matrix(0.0833333 0 0 0.0833333 -147.733 -83.1667)" d="M 2431.19,3666.13 L 2450.24,3633.12 L 2466.27,3645.04 L 2449.52,3674.05 L 2431.19,3666.13 Z " />
<path stroke="transparent" fill="#000000" transform="matrix(0.0833333 0 0 0.0833333 -147.733 -83.1667)" d="M 2485.37,3689.53 L 2497.6,3668.34 L 2513.63,3680.26 L 2503.7,3697.45 L 2485.37,3689.53 Z " />
<path stroke="transparent" fill="#000000" transform="matrix(0.0833333 0 0 0.0833333 -147.733 -83.1667)" d="M 2158.69,4613.87 L 2098.69,4509.95 L 2545.39,4309.24 L 2555.31,4315.6 L 2555.86,4327.37 L 2158.69,4613.87 Z " />
<path stroke="transparent" fill="#000000" transform="matrix(0.0833333 0 0 0.0833333 -147.733 -83.1667)" d="M 3134.76,5109.9 L 3014.76,5109.9 L 3017.02,5090.05 L 3132.51,5090.05 L 3134.76,5109.9 Z " />
<path stroke="transparent" fill="#000000" transform="matrix(0.0833333 0 0 0.0833333 -147.733 -83.1667)" d="M 3127.93,5049.8 L 3021.6,5049.8 L 3023.85,5029.96 L 3125.68,5029.96 L 3127.93,5049.8 Z " />
<path stroke="transparent" fill="#000000" transform="matrix(0.0833333 0 0 0.0833333 -147.733 -83.1667)" d="M 3121.1,4989.71 L 3028.43,4989.71 L 3030.68,4969.87 L 3118.85,4969.87 L 3121.1,4989.71 Z " />
<path stroke="transparent" fill="#000000" transform="matrix(0.0833333 0 0 0.0833333 -147.733 -83.1667)" d="M 3114.27,4929.62 L 3035.26,4929.62 L 3037.52,4909.78 L 3112.01,4909.78 L 3114.27,4929.62 Z " />
<path stroke="transparent" fill="#000000" transform="matrix(0.0833333 0 0 0.0833333 -147.733 -83.1667)" d="M 3107.44,4869.53 L 3042.09,4869.53 L 3044.35,4849.68 L 3105.18,4849.68 L 3107.44,4869.53 Z " />
<path stroke="transparent" fill="#000000" transform="matrix(0.0833333 0 0 0.0833333 -147.733 -83.1667)" d="M 3100.61,4809.43 L 3048.92,4809.43 L 3051.18,4789.59 L 3098.35,4789.59 L 3100.61,4809.43 Z " />
<path stroke="transparent" fill="#000000" transform="matrix(0.0833333 0 0 0.0833333 -147.733 -83.1667)" d="M 3093.77,4749.34 L 3055.76,4749.34 L 3058.01,4729.5 L 3091.52,4729.5 L 3093.77,4749.34 Z " />
<path stroke="transparent" fill="#000000" transform="matrix(0.0833333 0 0 0.0833333 -147.733 -83.1667)" d="M 3086.94,4689.25 L 3062.59,4689.25 L 3064.84,4669.4 L 3084.69,4669.4 L 3086.94,4689.25 Z " />
<path stroke="transparent" fill="#000000" transform="matrix(0.0833333 0 0 0.0833333 -147.733 -83.1667)" d="M 7689.83,3115.98 L 7809.83,3115.98 L 7761.26,3697.73 L 7749.83,3715.79 L 7738.4,3697.73 L 7689.83,3115.98 Z " />
<path stroke="transparent" fill="#000000" transform="matrix(0.0833333 0 0 0.0833333 -147.733 -83.1667)" d="M 10022.2,1173.7 L 10126.1,1113.7 L 10134.3,1131.9 L 10033.9,1189.88 L 10022.2,1173.7 Z " />
<path stroke="transparent" fill="#000000" transform="matrix(0.0833333 0 0 0.0833333 -147.733 -83.1667)" d="M 10056.9,1221.81 L 10150.4,1167.81 L 10158.6,1186.01 L 10068.6,1237.98 L 10056.9,1221.81 Z " />
<path stroke="transparent" fill="#000000" transform="matrix(0.0833333 0 0 0.0833333 -147.733 -83.1667)" d="M 10091.6,1269.91 L 10174.7,1221.92 L 10182.9,1240.12 L 10103.3,1286.08 L 10091.6,1269.91 Z " />
<path stroke="transparent" fill="#000000" transform="matrix(0.0833333 0 0 0.0833333 -147.733 -83.1667)" d="M 10126.3,1318.01 L 10199,1276.03 L 10207.2,1294.23 L 10138,1334.19 L 10126.3,1318.01 Z " />
<path stroke="transparent" fill="#000000" transform="matrix(0.0833333 0 0 0.0833333 -147.733 -83.1667)" d="M 10161,1366.12 L 10223.3,1330.15 L 10231.5,1348.34 L 10172.7,1382.29 L 10161,1366.12 Z " />
<path stroke="transparent" fill="#000000" transform="matrix(0.0833333 0 0 0.0833333 -147.733 -83.1667)" d="M 10195.7,1414.22 L 10247.6,1384.26 L 10255.8,1402.45 L 10207.4,1430.39 L 10195.7,1414.22 Z " />
<path stroke="transparent" fill="#000000" transform="matrix(0.0833333 0 0 0.0833333 -147.733 -83.1667)" d="M 10230.4,1462.32 L 10271.9,1438.37 L 10280.1,1456.56 L 10242.1,1478.5 L 10230.4,1462.32 Z " />
<path stroke="transparent" fill="#000000" transform="matrix(0.0833333 0 0 0.0833333 -147.733 -83.1667)" d="M 10265.1,1510.43 L 10296.2,1492.48 L 10304.4,1510.67 L 10276.8,1526.6 L 10265.1,1510.43 Z " />
<path stroke="transparent" fill="#000000" transform="matrix(0.0833333 0 0 0.0833333 -147.733 -83.1667)" d="M 10299.9,1558.53 L 10320.5,1546.59 L 10328.7,1564.78 L 10311.5,1574.7 L 10299.9,1558.53 Z " />
<path stroke="transparent" fill="#000000" transform="matrix(0.0833333 0 0 0.0833333 -147.733 -83.1667)" d="M 9555.62,1106.92 L 9555.62,1087.08 L 10047.2,1087.08 L 10047.2,1106.92 L 9555.62,1106.92 Z " />
<path stroke="transparent" fill="#000000" transform="matrix(0.0833333 0 0 0.0833333 -147.733 -83.1667)" d="M 9555.62,1178.9 L 9555.62,1159.05 L 10005.6,1159.05 L 10005.6,1178.9 L 9555.62,1178.9 Z " />
</svg>
