<?xml version="1.0" standalone="no" ?>
<!DOCTYPE svg PUBLIC "-//W3C//DTD SVG 1.1//EN" "http://www.w3.org/Graphics/SVG/1.1/DTD/svg11.dtd">
<svg width="450px" height="267px" viewBox="0 0 450 267" style="background-color: #ffffff00" xmlns="http://www.w3.org/2000/svg" xmlns:xlink="http://www.w3.org/1999/xlink" version="1.1" >
<path stroke="transparent" fill="#000000" transform="matrix(0.0833333 0 0 0.0833333 -134 -220)" d="M 6947.79,4443.96 L 6957.8,4461.28 L 6429.68,4766.58 L 6419.67,4749.26 L 6947.79,4443.96 Z " />
<path stroke="transparent" fill="#000000" transform="matrix(0.0833333 0 0 0.0833333 -134 -220)" d="M 6244.41,4749.39 L 6234.43,4766.72 L 5812.57,4523.67 L 5812.54,4512.11 L 5822.54,4506.33 L 6244.41,4749.39 Z " />
<path stroke="transparent" fill="#000000" transform="matrix(0.0833333 0 0 0.0833333 -134 -220)" d="M 5822.54,4506.33 L 5812.54,4512.11 L 5802.54,4506.37 L 5802.54,3911.41 L 5822.54,3899.91 L 5822.54,4506.33 Z " />
<path stroke="transparent" fill="#000000" transform="matrix(0.0833333 0 0 0.0833333 -134 -220)" d="M 5802.54,4506.37 L 5812.54,4512.11 L 5812.57,4523.67 L 5294.45,4826.01 L 5294.45,4802.85 L 5802.54,4506.37 Z " />
<path stroke="transparent" fill="#000000" transform="matrix(0.0833333 0 0 0.0833333 -134 -220)" d="M 5735.52,4462.14 L 5745.6,4479.41 L 5299.49,4739.72 L 5289.41,4722.45 L 5735.52,4462.14 Z " />
<path stroke="transparent" fill="#000000" transform="matrix(0.0833333 0 0 0.0833333 -134 -220)" d="M 2177.04,5423 L 2187.03,5405.67 L 2613.14,5651.5 L 2603.15,5668.82 L 2177.04,5423 Z " />
<path stroke="transparent" fill="#000000" transform="matrix(0.0833333 0 0 0.0833333 -134 -220)" d="M 5822.54,3899.91 L 5802.54,3911.41 L 5294.45,3615.78 L 5294.45,3592.64 L 5822.54,3899.91 Z " />
<path stroke="transparent" fill="#000000" transform="matrix(0.0833333 0 0 0.0833333 -134 -220)" d="M 5745.64,3938.38 L 5735.58,3955.67 L 5289.42,3696.07 L 5299.48,3678.79 L 5745.64,3938.38 Z " />
<path stroke="transparent" fill="#000000" transform="matrix(0.0833333 0 0 0.0833333 -134 -220)" d="M 5294.45,4802.85 L 5294.45,4826.01 L 4776.43,4523.69 L 4776.43,4512.11 L 4786.43,4506.37 L 5294.45,4802.85 Z " />
<path stroke="transparent" fill="#000000" transform="matrix(0.0833333 0 0 0.0833333 -134 -220)" d="M 4766.43,4506.37 L 4776.43,4512.11 L 4776.43,4523.69 L 4367.33,4762.57 L 4357.25,4745.3 L 4766.43,4506.37 Z " />
<path stroke="transparent" fill="#000000" transform="matrix(0.0833333 0 0 0.0833333 -134 -220)" d="M 3670.19,5620.37 L 3660.2,5637.7 L 3216.06,5381.51 L 3226.05,5364.19 L 3670.19,5620.37 Z " />
<path stroke="transparent" fill="#000000" transform="matrix(0.0833333 0 0 0.0833333 -134 -220)" d="M 3634.28,5682.63 L 3624.28,5699.96 L 3180.05,5443.71 L 3190.04,5426.39 L 3634.28,5682.63 Z " />
<path stroke="transparent" fill="#000000" transform="matrix(0.0833333 0 0 0.0833333 -134 -220)" d="M 2798.47,5668.95 L 2788.5,5651.61 L 3211.06,5408.55 L 3231.06,5420.12 L 2798.47,5668.95 Z " />
<path stroke="transparent" fill="#000000" transform="matrix(0.0833333 0 0 0.0833333 -134 -220)" d="M 4248.7,3010.01 L 4268.7,2990.01 L 4268.7,3609.98 L 4248.7,3598.45 L 4248.7,3010.01 L 4248.7,3010.01 Z " />
<path stroke="transparent" fill="#000000" transform="matrix(0.0833333 0 0 0.0833333 -134 -220)" d="M 5294.45,3592.64 L 5294.45,3615.78 L 4786.43,3911.41 L 4776.43,3905.66 L 4867.16,3841.29 L 5294.45,3592.64 Z " />
<path stroke="transparent" fill="#000000" transform="matrix(0.0833333 0 0 0.0833333 -134 -220)" d="M 4786.43,4506.37 L 4776.43,4512.11 L 4766.43,4506.37 L 4766.43,3965.18 L 4776.43,3905.66 L 4786.43,3911.41 L 4786.43,4506.37 Z " />
<path stroke="transparent" fill="#000000" transform="matrix(0.0833333 0 0 0.0833333 -134 -220)" d="M 4859.2,4470.32 L 4839.2,4470.32 L 4839.2,3947.51 L 4859.2,3947.51 L 4859.2,4470.32 Z " />
<path stroke="transparent" fill="#000000" transform="matrix(0.0833333 0 0 0.0833333 -134 -220)" d="M 4160.05,4745.55 L 4150,4762.84 L 3738.36,4523.68 L 3738.35,4512.11 L 3748.35,4506.36 L 4160.05,4745.55 Z " />
<path stroke="transparent" fill="#000000" transform="matrix(0.0833333 0 0 0.0833333 -134 -220)" d="M 2702.3,2685.53 L 2702.32,2708.7 L 2195.02,3005.75 L 2175.02,2994.28 L 2702.3,2685.53 Z " />
<path stroke="transparent" fill="#000000" transform="matrix(0.0833333 0 0 0.0833333 -134 -220)" d="M 3231.06,5420.12 L 3211.06,5408.55 L 3211.06,4820.17 L 3221.06,4814.43 L 3231.06,4820.17 L 3231.06,5420.12 Z " />
<path stroke="transparent" fill="#000000" transform="matrix(0.0833333 0 0 0.0833333 -134 -220)" d="M 3728.35,4506.37 L 3738.35,4512.11 L 3738.36,4523.68 L 3231.06,4820.17 L 3221.06,4814.43 L 3221.05,4802.85 L 3728.35,4506.37 Z " />
<path stroke="transparent" fill="#000000" transform="matrix(0.0833333 0 0 0.0833333 -134 -220)" d="M 3661.4,4462.22 L 3671.5,4479.49 L 3226.05,4739.81 L 3215.96,4722.55 L 3661.4,4462.22 Z " />
<path stroke="transparent" fill="#000000" transform="matrix(0.0833333 0 0 0.0833333 -134 -220)" d="M 2702.32,2708.7 L 2702.3,2685.53 L 3122.51,2930.89 L 3112.42,2948.16 L 2702.32,2708.7 Z " />
<path stroke="transparent" fill="#000000" transform="matrix(0.0833333 0 0 0.0833333 -134 -220)" d="M 4268.7,2990.01 L 4248.7,3010.01 L 3317.06,3010.01 L 3317.06,2990.01 L 4268.7,2990.01 Z " />
<path stroke="transparent" fill="#000000" transform="matrix(0.0833333 0 0 0.0833333 -134 -220)" d="M 4248.7,3598.45 L 4268.7,3609.98 L 3778.93,3893.7 L 3738.35,3905.66 L 3738.36,3894.09 L 4248.7,3598.45 Z " />
<path stroke="transparent" fill="#000000" transform="matrix(0.0833333 0 0 0.0833333 -134 -220)" d="M 4867.16,3841.29 L 4776.43,3905.66 L 4766.43,3965.18 L 3748.35,3916.14 L 3738.35,3905.66 L 3778.93,3893.7 L 4867.16,3841.29 Z " />
<path stroke="transparent" fill="#000000" transform="matrix(0.0833333 0 0 0.0833333 -134 -220)" d="M 3748.35,4506.36 L 3738.35,4512.11 L 3728.35,4506.37 L 3728.35,3911.4 L 3738.35,3905.66 L 3748.35,3916.14 L 3748.35,4506.36 Z " />
<path stroke="transparent" fill="#000000" transform="matrix(0.0833333 0 0 0.0833333 -134 -220)" d="M 2175.02,2994.28 L 2195.02,3005.75 L 2195.02,3604.21 L 2175.02,3604.21 L 2175.02,2994.28 Z " />
<path stroke="transparent" fill="#000000" transform="matrix(0.0833333 0 0 0.0833333 -134 -220)" d="M 2247.52,3041.58 L 2267.52,3041.58 L 2267.52,3562.55 L 2247.52,3562.55 L 2247.52,3041.58 Z " />
<path stroke="transparent" fill="#000000" transform="matrix(0.0833333 0 0 0.0833333 -134 -220)" d="M 3221.05,4802.85 L 3221.06,4814.43 L 3211.06,4820.17 L 2692.31,4517.86 L 2712.31,4506.36 L 3221.05,4802.85 Z " />
<path stroke="transparent" fill="#000000" transform="matrix(0.0833333 0 0 0.0833333 -134 -220)" d="M 3600.49,3315.62 L 3660.53,3419.52 L 3242.91,3605.37 L 3221.06,3604.21 L 3231.06,3584.63 L 3600.49,3315.62 Z " />
<path stroke="transparent" fill="#000000" transform="matrix(0.0833333 0 0 0.0833333 -134 -220)" d="M 3211.06,3117.35 L 3231.06,3117.35 L 3231.06,3584.63 L 3221.06,3604.21 L 3211.06,3598.46 L 3211.06,3117.35 Z " />
<path stroke="transparent" fill="#000000" transform="matrix(0.0833333 0 0 0.0833333 -134 -220)" d="M 3738.36,3894.09 L 3738.35,3905.66 L 3728.35,3911.4 L 3221.05,3615.78 L 3221.06,3604.21 L 3242.91,3605.37 L 3738.36,3894.09 Z " />
<path stroke="transparent" fill="#000000" transform="matrix(0.0833333 0 0 0.0833333 -134 -220)" d="M 2201.52,3683.27 L 2261.94,3579.59 L 2278.19,3591.42 L 2219.83,3691.58 L 2201.52,3683.27 Z " />
<path stroke="transparent" fill="#000000" transform="matrix(0.0833333 0 0 0.0833333 -134 -220)" d="M 2255.36,3707.71 L 2309.74,3614.39 L 2326,3626.22 L 2273.67,3716.02 L 2255.36,3707.71 Z " />
<path stroke="transparent" fill="#000000" transform="matrix(0.0833333 0 0 0.0833333 -134 -220)" d="M 2309.2,3732.15 L 2357.55,3649.19 L 2373.8,3661.02 L 2327.51,3740.45 L 2309.2,3732.15 Z " />
<path stroke="transparent" fill="#000000" transform="matrix(0.0833333 0 0 0.0833333 -134 -220)" d="M 2363.05,3756.58 L 2405.35,3683.98 L 2421.61,3695.81 L 2381.35,3764.89 L 2363.05,3756.58 Z " />
<path stroke="transparent" fill="#000000" transform="matrix(0.0833333 0 0 0.0833333 -134 -220)" d="M 2416.89,3781.02 L 2453.16,3718.78 L 2469.41,3730.61 L 2435.19,3789.33 L 2416.89,3781.02 Z " />
<path stroke="transparent" fill="#000000" transform="matrix(0.0833333 0 0 0.0833333 -134 -220)" d="M 2470.73,3805.46 L 2500.96,3753.58 L 2517.22,3765.41 L 2489.04,3813.77 L 2470.73,3805.46 Z " />
<path stroke="transparent" fill="#000000" transform="matrix(0.0833333 0 0 0.0833333 -134 -220)" d="M 2524.57,3829.89 L 2548.77,3788.37 L 2565.02,3800.2 L 2542.88,3838.2 L 2524.57,3829.89 Z " />
<path stroke="transparent" fill="#000000" transform="matrix(0.0833333 0 0 0.0833333 -134 -220)" d="M 2578.41,3854.33 L 2596.57,3823.17 L 2612.83,3835 L 2596.72,3862.64 L 2578.41,3854.33 Z " />
<path stroke="transparent" fill="#000000" transform="matrix(0.0833333 0 0 0.0833333 -134 -220)" d="M 2632.26,3878.77 L 2644.38,3857.96 L 2660.63,3869.8 L 2650.56,3887.08 L 2632.26,3878.77 Z " />
<path stroke="transparent" fill="#000000" transform="matrix(0.0833333 0 0 0.0833333 -134 -220)" d="M 2712.31,4506.36 L 2692.31,4517.86 L 2692.31,3923.03 L 2702.31,3905.66 L 2712.31,3911.41 L 2712.31,4506.36 Z " />
<path stroke="transparent" fill="#000000" transform="matrix(0.0833333 0 0 0.0833333 -134 -220)" d="M 3211.06,3598.46 L 3221.06,3604.21 L 3221.05,3615.78 L 2712.31,3911.41 L 2702.31,3905.66 L 2697.28,3897.01 L 3211.06,3598.46 Z " />
<path stroke="transparent" fill="#000000" transform="matrix(0.0833333 0 0 0.0833333 -134 -220)" d="M 2697.29,3897.01 L 2702.31,3905.66 L 2692.31,3923.03 L 2183.5,4218.59 L 2183.48,4195.47 L 2697.29,3897.01 Z " />
<path stroke="transparent" fill="#000000" transform="matrix(0.0833333 0 0 0.0833333 -134 -220)" d="M 2243.49,4701.77 L 2123.49,4701.77 L 2125.76,4681.77 L 2241.22,4681.77 L 2243.49,4701.77 Z " />
<path stroke="transparent" fill="#000000" transform="matrix(0.0833333 0 0 0.0833333 -134 -220)" d="M 2236.67,4641.68 L 2130.31,4641.68 L 2132.58,4621.68 L 2234.4,4621.68 L 2236.67,4641.68 Z " />
<path stroke="transparent" fill="#000000" transform="matrix(0.0833333 0 0 0.0833333 -134 -220)" d="M 2229.85,4581.58 L 2137.13,4581.58 L 2139.4,4561.58 L 2227.58,4561.58 L 2229.85,4581.58 Z " />
<path stroke="transparent" fill="#000000" transform="matrix(0.0833333 0 0 0.0833333 -134 -220)" d="M 2223.03,4521.49 L 2143.94,4521.49 L 2146.21,4501.49 L 2220.76,4501.49 L 2223.03,4521.49 Z " />
<path stroke="transparent" fill="#000000" transform="matrix(0.0833333 0 0 0.0833333 -134 -220)" d="M 2216.21,4461.39 L 2150.76,4461.39 L 2153.03,4441.39 L 2213.94,4441.39 L 2216.21,4461.39 Z " />
<path stroke="transparent" fill="#000000" transform="matrix(0.0833333 0 0 0.0833333 -134 -220)" d="M 2209.4,4401.3 L 2157.58,4401.3 L 2159.85,4381.3 L 2207.13,4381.3 L 2209.4,4401.3 Z " />
<path stroke="transparent" fill="#000000" transform="matrix(0.0833333 0 0 0.0833333 -134 -220)" d="M 2202.58,4341.2 L 2164.4,4341.2 L 2166.67,4321.2 L 2200.31,4321.2 L 2202.58,4341.2 Z " />
<path stroke="transparent" fill="#000000" transform="matrix(0.0833333 0 0 0.0833333 -134 -220)" d="M 2195.76,4281.11 L 2171.22,4281.11 L 2173.49,4261.11 L 2193.49,4261.11 L 2195.76,4281.11 Z " />
<path stroke="transparent" fill="#000000" transform="matrix(0.0833333 0 0 0.0833333 -134 -220)" d="M 1658.2,3914.31 L 1668.23,3897 L 2183.48,4195.47 L 2183.5,4218.59 L 1658.2,3914.31 Z " />
<text x="0" y="0" stroke="transparent" fill="#000000" transform="matrix(0.0833333 0 0 0.0833333 171.656 61.8639)" style="font:normal normal normal 200px 'Arial'" >
H</text>
<text x="0" y="0" stroke="transparent" fill="#000000" transform="matrix(0.0833333 0 0 0.0833333 387.174 187.454)" style="font:normal normal normal 200px 'Arial'" >
O</text>
<text x="0" y="0" stroke="transparent" fill="#000000" transform="matrix(0.0833333 0 0 0.0833333 171.156 262.633)" style="font:normal normal normal 200px 'Arial'" >
O</text>
<text x="0" y="0" stroke="transparent" fill="#000000" transform="matrix(0.0833333 0 0 0.0833333 84.5652 262.633)" style="font:normal normal normal 200px 'Arial'" >
O</text>
<text x="0" y="0" stroke="transparent" fill="#000000" transform="matrix(0.0833333 0 0 0.0833333 214.891 187.702)" style="font:normal normal normal 200px 'Arial'" >
N</text>
<text x="0" y="0" stroke="transparent" fill="#000000" transform="matrix(0.0833333 0 0 0.0833333 214.891 201.508)" style="font:normal normal normal 200px 'Arial'" >
H</text>
<text x="0" y="0" stroke="transparent" fill="#000000" transform="matrix(0.0833333 0 0 0.0833333 128.421 36.501)" style="font:normal normal normal 200px 'Arial'" >
N</text>
<text x="0" y="0" stroke="transparent" fill="#000000" transform="matrix(0.0833333 0 0 0.0833333 41.4574 187.078)" style="font:normal normal normal 200px 'Arial'" >
OH</text>
</svg>
