<?xml version="1.0" standalone="no" ?>
<!DOCTYPE svg PUBLIC "-//W3C//DTD SVG 1.1//EN" "http://www.w3.org/Graphics/SVG/1.1/DTD/svg11.dtd">
<svg width="651px" height="485px" viewBox="0 0 651 485" style="background-color: #ffffff00" xmlns="http://www.w3.org/2000/svg" xmlns:xlink="http://www.w3.org/1999/xlink" version="1.1" >
<text x="0" y="0" stroke="transparent" fill="#000000" transform="matrix(0.0833333 0 0 0.0833333 232.685 461.505)" style="font:normal normal normal 200px 'Arial'" >
O</text>
<text x="0" y="0" stroke="transparent" fill="#000000" transform="matrix(0.0833333 0 0 0.0833333 405.894 261.5)" style="font:normal normal normal 200px 'Arial'" >
O</text>
<text x="0" y="0" stroke="transparent" fill="#000000" transform="matrix(0.0833333 0 0 0.0833333 492.5 261.5)" style="font:normal normal normal 200px 'Arial'" >
O</text>
<text x="0" y="0" stroke="transparent" fill="#000000" transform="matrix(0.0833333 0 0 0.0833333 622.403 236.5)" style="font:normal normal normal 200px 'Arial'" >
OH</text>
<text x="0" y="0" stroke="transparent" fill="#000000" transform="matrix(0.0833333 0 0 0.0833333 579.102 161.503)" style="font:normal normal normal 200px 'Arial'" >
OH</text>
<text x="0" y="0" stroke="transparent" fill="#000000" transform="matrix(0.0833333 0 0 0.0833333 492.5 111.502)" style="font:normal normal normal 200px 'Arial'" >
OH</text>
<text x="0" y="0" stroke="transparent" fill="#000000" transform="matrix(0.0833333 0 0 0.0833333 393.857 161.498)" style="font:normal normal normal 200px 'Arial'" >
HO</text>
<text x="0" y="0" stroke="transparent" fill="#000000" transform="matrix(0.0833333 0 0 0.0833333 189.384 236.5)" style="font:normal normal normal 200px 'Arial'" >
O</text>
<text x="0" y="0" stroke="transparent" fill="#000000" transform="matrix(0.0833333 0 0 0.0833333 146.083 311.496)" style="font:normal normal normal 200px 'Arial'" >
O</text>
<text x="0" y="0" stroke="transparent" fill="#000000" transform="matrix(0.0833333 0 0 0.0833333 47.4449 411.504)" style="font:normal normal normal 200px 'Arial'" >
HO</text>
<text x="0" y="0" stroke="transparent" fill="#000000" transform="matrix(0.0833333 0 0 0.0833333 4.14394 336.502)" style="font:normal normal normal 200px 'Arial'" >
HO</text>
<text x="0" y="0" stroke="transparent" fill="#000000" transform="matrix(0.0833333 0 0 0.0833333 4.14394 236.5)" style="font:normal normal normal 200px 'Arial'" >
HO</text>
<text x="0" y="0" stroke="transparent" fill="#000000" transform="matrix(0.0833333 0 0 0.0833333 102.782 186.504)" style="font:normal normal normal 200px 'Arial'" >
OH</text>
<text x="0" y="0" stroke="transparent" fill="#000000" transform="matrix(0.0833333 0 0 0.0833333 90.7458 86.4964)" style="font:normal normal normal 200px 'Arial'" >
HO</text>
<text x="0" y="0" stroke="transparent" fill="#000000" transform="matrix(0.0833333 0 0 0.0833333 189.384 36.4953)" style="font:normal normal normal 200px 'Arial'" >
O</text>
<text x="0" y="0" stroke="transparent" fill="#000000" transform="matrix(0.0833333 0 0 0.0833333 134.047 411.504)" style="font:normal normal normal 200px 'Arial'" >
HO</text>
<path stroke="transparent" fill="#000000" transform="matrix(0.0833333 0 0 0.0833333 -110.208 -117)" d="M 4088.11,6912.9 L 4098.11,6930.22 L 3678.11,7172.72 L 3668.11,7155.4 L 4088.11,6912.9 Z " />
<path stroke="transparent" fill="#000000" transform="matrix(0.0833333 0 0 0.0833333 -110.208 -117)" d="M 4182.72,6269.82 L 4192.72,6264.04 L 4202.72,6269.82 L 4202.72,6758.89 L 4182.72,6758.89 L 4182.72,6269.82 Z " />
<path stroke="transparent" fill="#000000" transform="matrix(0.0833333 0 0 0.0833333 -110.208 -117)" d="M 4702.33,5958.26 L 4722.33,5969.81 L 4202.72,6269.82 L 4192.72,6264.04 L 4192.72,6252.5 L 4702.33,5958.26 Z " />
<path stroke="transparent" fill="#000000" transform="matrix(0.0833333 0 0 0.0833333 -110.208 -117)" d="M 4635.33,5913.81 L 4645.33,5931.13 L 4197.72,6189.56 L 4187.72,6172.24 L 4635.33,5913.81 Z " />
<path stroke="transparent" fill="#000000" transform="matrix(0.0833333 0 0 0.0833333 -110.208 -117)" d="M 4702.33,5369.8 L 4712.33,5364.02 L 4722.33,5369.8 L 4722.33,5969.81 L 4702.33,5958.26 L 4702.33,5369.8 Z " />
<path stroke="transparent" fill="#000000" transform="matrix(0.0833333 0 0 0.0833333 -110.208 -117)" d="M 5227,5055.36 L 5237,5072.68 L 4722.33,5369.8 L 4712.33,5364.02 L 4712.33,5352.48 L 5227,5055.36 Z " />
<path stroke="transparent" fill="#000000" transform="matrix(0.0833333 0 0 0.0833333 -110.208 -117)" d="M 5292,5010.01 L 5172,5010.01 L 5174.03,4990.01 L 5289.97,4990.01 L 5292,5010.01 Z " />
<path stroke="transparent" fill="#000000" transform="matrix(0.0833333 0 0 0.0833333 -110.208 -117)" d="M 5286,4951.01 L 5178,4951.01 L 5180.03,4931.01 L 5283.97,4931.01 L 5286,4951.01 Z " />
<path stroke="transparent" fill="#000000" transform="matrix(0.0833333 0 0 0.0833333 -110.208 -117)" d="M 5280.01,4892.01 L 5183.99,4892.01 L 5186.02,4872.01 L 5277.98,4872.01 L 5280.01,4892.01 Z " />
<path stroke="transparent" fill="#000000" transform="matrix(0.0833333 0 0 0.0833333 -110.208 -117)" d="M 5274.01,4833.01 L 5189.99,4833.01 L 5192.02,4813.01 L 5271.98,4813.01 L 5274.01,4833.01 Z " />
<path stroke="transparent" fill="#000000" transform="matrix(0.0833333 0 0 0.0833333 -110.208 -117)" d="M 5268.02,4774.01 L 5195.98,4774.01 L 5198.02,4754.01 L 5265.98,4754.01 L 5268.02,4774.01 Z " />
<path stroke="transparent" fill="#000000" transform="matrix(0.0833333 0 0 0.0833333 -110.208 -117)" d="M 5262.02,4715.01 L 5201.98,4715.01 L 5204.01,4695.01 L 5259.99,4695.01 L 5262.02,4715.01 Z " />
<path stroke="transparent" fill="#000000" transform="matrix(0.0833333 0 0 0.0833333 -110.208 -117)" d="M 5256.02,4656.01 L 5207.98,4656.01 L 5210.01,4636.01 L 5253.99,4636.01 L 5256.02,4656.01 Z " />
<path stroke="transparent" fill="#000000" transform="matrix(0.0833333 0 0 0.0833333 -110.208 -117)" d="M 5250.03,4597.01 L 5213.97,4597.01 L 5216,4577.01 L 5248,4577.01 L 5250.03,4597.01 Z " />
<path stroke="transparent" fill="#000000" transform="matrix(0.0833333 0 0 0.0833333 -110.208 -117)" d="M 5244.03,4538 L 5219.97,4538 L 5222,4518 L 5242,4518 L 5244.03,4538 Z " />
<path stroke="transparent" fill="#000000" transform="matrix(0.0833333 0 0 0.0833333 -110.208 -117)" d="M 5751.61,4152.45 L 5751.61,4175.54 L 5232,4475.55 L 5232,4452.46 L 5751.61,4152.45 Z " />
<path stroke="transparent" fill="#000000" transform="matrix(0.0833333 0 0 0.0833333 -110.208 -117)" d="M 6183.6,4401.87 L 6173.6,4419.19 L 5751.61,4175.54 L 5751.61,4152.45 L 6183.6,4401.87 Z " />
<path stroke="transparent" fill="#000000" transform="matrix(0.0833333 0 0 0.0833333 -110.208 -117)" d="M 6393.84,4462.49 L 6333.84,4358.57 L 6780.83,4157.58 L 6790.83,4164 L 6791.39,4175.86 L 6393.84,4462.49 Z " />
<path stroke="transparent" fill="#000000" transform="matrix(0.0833333 0 0 0.0833333 -110.208 -117)" d="M 7222.88,4401.87 L 7212.89,4419.19 L 6791.39,4175.86 L 6790.83,4164 L 6800.83,4158.22 L 7222.88,4401.87 Z " />
<path stroke="transparent" fill="#000000" transform="matrix(0.0833333 0 0 0.0833333 -110.208 -117)" d="M 7408.12,4419.19 L 7398.12,4401.87 L 7820.12,4158.22 L 7830.12,4164 L 7829.66,4175.81 L 7408.12,4419.19 Z " />
<path stroke="transparent" fill="#000000" transform="matrix(0.0833333 0 0 0.0833333 -110.208 -117)" d="M 8401.75,4422.42 L 8301.56,4503.36 L 7829.66,4175.81 L 7830.12,4164 L 7840.12,4157.69 L 8401.75,4422.42 Z " />
<path stroke="transparent" fill="#000000" transform="matrix(0.0833333 0 0 0.0833333 -110.208 -117)" d="M 8764.74,4212.84 L 8774.74,4230.16 L 8301.56,4503.36 L 8401.75,4422.42 L 8764.74,4212.84 Z " />
<path stroke="transparent" fill="#000000" transform="matrix(0.0833333 0 0 0.0833333 -110.208 -117)" d="M 7840.12,4157.69 L 7830.12,4164 L 7820.12,4158.22 L 7820.12,3569.82 L 7840.12,3558.27 L 7840.12,4157.69 Z " />
<path stroke="transparent" fill="#000000" transform="matrix(0.0833333 0 0 0.0833333 -110.208 -117)" d="M 8220.12,3269.58 L 8280.13,3373.51 L 8261.64,3381.5 L 8203.96,3281.59 L 8220.12,3269.58 Z " />
<path stroke="transparent" fill="#000000" transform="matrix(0.0833333 0 0 0.0833333 -110.208 -117)" d="M 8172.7,3304.83 L 8225.89,3396.96 L 8207.41,3404.95 L 8156.54,3316.84 L 8172.7,3304.83 Z " />
<path stroke="transparent" fill="#000000" transform="matrix(0.0833333 0 0 0.0833333 -110.208 -117)" d="M 8125.27,3340.08 L 8171.65,3420.41 L 8153.17,3428.4 L 8109.11,3352.09 L 8125.27,3340.08 Z " />
<path stroke="transparent" fill="#000000" transform="matrix(0.0833333 0 0 0.0833333 -110.208 -117)" d="M 8077.84,3375.33 L 8117.41,3443.86 L 8098.93,3451.85 L 8061.68,3387.34 L 8077.84,3375.33 Z " />
<path stroke="transparent" fill="#000000" transform="matrix(0.0833333 0 0 0.0833333 -110.208 -117)" d="M 8030.42,3410.57 L 8063.17,3467.31 L 8044.69,3475.3 L 8014.26,3422.58 L 8030.42,3410.57 Z " />
<path stroke="transparent" fill="#000000" transform="matrix(0.0833333 0 0 0.0833333 -110.208 -117)" d="M 7982.99,3445.82 L 8008.93,3490.76 L 7990.45,3498.75 L 7966.83,3457.83 L 7982.99,3445.82 Z " />
<path stroke="transparent" fill="#000000" transform="matrix(0.0833333 0 0 0.0833333 -110.208 -117)" d="M 7935.56,3481.07 L 7954.7,3514.21 L 7936.22,3522.2 L 7919.4,3493.08 L 7935.56,3481.07 Z " />
<path stroke="transparent" fill="#000000" transform="matrix(0.0833333 0 0 0.0833333 -110.208 -117)" d="M 7888.14,3516.32 L 7900.46,3537.66 L 7881.98,3545.65 L 7871.98,3528.33 L 7888.14,3516.32 Z " />
<path stroke="transparent" fill="#000000" transform="matrix(0.0833333 0 0 0.0833333 -110.208 -117)" d="M 7840.12,3558.27 L 7820.12,3569.82 L 7310.5,3275.58 L 7310.51,3264.04 L 7321.07,3258.59 L 7840.12,3558.27 Z " />
<path stroke="transparent" fill="#000000" transform="matrix(0.0833333 0 0 0.0833333 -110.208 -117)" d="M 7250.51,2783.86 L 7370.51,2783.86 L 7321.07,3258.59 L 7310.51,3264.04 L 7299.94,3258.59 L 7250.51,2783.86 Z " />
<path stroke="transparent" fill="#000000" transform="matrix(0.0833333 0 0 0.0833333 -110.208 -117)" d="M 7299.94,3258.59 L 7310.51,3264.04 L 7310.5,3275.58 L 6800.83,3569.82 L 6780.83,3558.27 L 7299.94,3258.59 Z " />
<path stroke="transparent" fill="#000000" transform="matrix(0.0833333 0 0 0.0833333 -110.208 -117)" d="M 6780.83,3558.27 L 6800.83,3569.82 L 6800.83,4158.22 L 6790.83,4164 L 6780.83,4157.58 L 6780.83,3558.27 Z " />
<path stroke="transparent" fill="#000000" transform="matrix(0.0833333 0 0 0.0833333 -110.208 -117)" d="M 6341.24,3373.7 L 6401.25,3269.78 L 6417.41,3281.79 L 6359.72,3381.69 L 6341.24,3373.7 Z " />
<path stroke="transparent" fill="#000000" transform="matrix(0.0833333 0 0 0.0833333 -110.208 -117)" d="M 6395.43,3397.12 L 6448.62,3305 L 6464.78,3317.02 L 6413.91,3405.11 L 6395.43,3397.12 Z " />
<path stroke="transparent" fill="#000000" transform="matrix(0.0833333 0 0 0.0833333 -110.208 -117)" d="M 6449.61,3420.55 L 6496,3340.22 L 6512.16,3352.24 L 6468.09,3428.54 L 6449.61,3420.55 Z " />
<path stroke="transparent" fill="#000000" transform="matrix(0.0833333 0 0 0.0833333 -110.208 -117)" d="M 6503.8,3443.98 L 6543.37,3375.45 L 6559.53,3387.46 L 6522.28,3451.97 L 6503.8,3443.98 Z " />
<path stroke="transparent" fill="#000000" transform="matrix(0.0833333 0 0 0.0833333 -110.208 -117)" d="M 6557.98,3467.4 L 6590.74,3410.67 L 6606.9,3422.68 L 6576.46,3475.39 L 6557.98,3467.4 Z " />
<path stroke="transparent" fill="#000000" transform="matrix(0.0833333 0 0 0.0833333 -110.208 -117)" d="M 6612.17,3490.83 L 6638.12,3445.89 L 6654.27,3457.91 L 6630.65,3498.82 L 6612.17,3490.83 Z " />
<path stroke="transparent" fill="#000000" transform="matrix(0.0833333 0 0 0.0833333 -110.208 -117)" d="M 6666.35,3514.25 L 6685.49,3481.11 L 6701.65,3493.13 L 6684.83,3522.24 L 6666.35,3514.25 Z " />
<path stroke="transparent" fill="#000000" transform="matrix(0.0833333 0 0 0.0833333 -110.208 -117)" d="M 6720.54,3537.68 L 6732.86,3516.34 L 6749.02,3528.35 L 6739.02,3545.67 L 6720.54,3537.68 Z " />
<path stroke="transparent" fill="#000000" transform="matrix(0.0833333 0 0 0.0833333 -110.208 -117)" d="M 5232,4452.46 L 5232,4475.55 L 4702.33,4169.77 L 4722.33,4158.22 L 5232,4452.46 Z " />
<path stroke="transparent" fill="#000000" transform="matrix(0.0833333 0 0 0.0833333 -110.208 -117)" d="M 4269.48,4488.96 L 4209.48,4385.04 L 4227.82,4376.8 L 4285.79,4477.2 L 4269.48,4488.96 Z " />
<path stroke="transparent" fill="#000000" transform="matrix(0.0833333 0 0 0.0833333 -110.208 -117)" d="M 4317.58,4454.27 L 4263.57,4360.73 L 4281.91,4352.49 L 4333.88,4442.51 L 4317.58,4454.27 Z " />
<path stroke="transparent" fill="#000000" transform="matrix(0.0833333 0 0 0.0833333 -110.208 -117)" d="M 4365.68,4419.58 L 4317.67,4336.43 L 4336,4328.19 L 4381.98,4407.82 L 4365.68,4419.58 Z " />
<path stroke="transparent" fill="#000000" transform="matrix(0.0833333 0 0 0.0833333 -110.208 -117)" d="M 4413.77,4384.88 L 4371.76,4312.12 L 4390.1,4303.88 L 4430.08,4373.12 L 4413.77,4384.88 Z " />
<path stroke="transparent" fill="#000000" transform="matrix(0.0833333 0 0 0.0833333 -110.208 -117)" d="M 4461.87,4350.19 L 4425.85,4287.81 L 4444.19,4279.57 L 4478.18,4338.43 L 4461.87,4350.19 Z " />
<path stroke="transparent" fill="#000000" transform="matrix(0.0833333 0 0 0.0833333 -110.208 -117)" d="M 4509.97,4315.5 L 4479.95,4263.5 L 4498.28,4255.26 L 4526.27,4303.74 L 4509.97,4315.5 Z " />
<path stroke="transparent" fill="#000000" transform="matrix(0.0833333 0 0 0.0833333 -110.208 -117)" d="M 4558.07,4280.8 L 4534.04,4239.19 L 4552.38,4230.95 L 4574.37,4269.04 L 4558.07,4280.8 Z " />
<path stroke="transparent" fill="#000000" transform="matrix(0.0833333 0 0 0.0833333 -110.208 -117)" d="M 4606.16,4246.11 L 4588.13,4214.89 L 4606.47,4206.65 L 4622.47,4234.35 L 4606.16,4246.11 Z " />
<path stroke="transparent" fill="#000000" transform="matrix(0.0833333 0 0 0.0833333 -110.208 -117)" d="M 4654.26,4211.42 L 4642.23,4190.58 L 4660.56,4182.34 L 4670.56,4199.66 L 4654.26,4211.42 Z " />
<path stroke="transparent" fill="#000000" transform="matrix(0.0833333 0 0 0.0833333 -110.208 -117)" d="M 3768.14,4230.41 L 3778.14,4213.09 L 4197.72,4455.34 L 4187.72,4472.66 L 3768.14,4230.41 Z " />
<path stroke="transparent" fill="#000000" transform="matrix(0.0833333 0 0 0.0833333 -110.208 -117)" d="M 3543.5,4169.54 L 3603.5,4273.47 L 3585.02,4281.46 L 3527.34,4181.55 L 3543.5,4169.54 Z " />
<path stroke="transparent" fill="#000000" transform="matrix(0.0833333 0 0 0.0833333 -110.208 -117)" d="M 3496.08,4204.79 L 3549.27,4296.92 L 3530.78,4304.91 L 3479.92,4216.8 L 3496.08,4204.79 Z " />
<path stroke="transparent" fill="#000000" transform="matrix(0.0833333 0 0 0.0833333 -110.208 -117)" d="M 3448.65,4240.04 L 3495.03,4320.37 L 3476.55,4328.36 L 3432.49,4252.05 L 3448.65,4240.04 Z " />
<path stroke="transparent" fill="#000000" transform="matrix(0.0833333 0 0 0.0833333 -110.208 -117)" d="M 3401.22,4275.29 L 3440.79,4343.82 L 3422.31,4351.81 L 3385.06,4287.3 L 3401.22,4275.29 Z " />
<path stroke="transparent" fill="#000000" transform="matrix(0.0833333 0 0 0.0833333 -110.208 -117)" d="M 3353.8,4310.53 L 3386.55,4367.27 L 3368.07,4375.26 L 3337.64,4322.54 L 3353.8,4310.53 Z " />
<path stroke="transparent" fill="#000000" transform="matrix(0.0833333 0 0 0.0833333 -110.208 -117)" d="M 3306.37,4345.78 L 3332.31,4390.72 L 3313.83,4398.71 L 3290.21,4357.79 L 3306.37,4345.78 Z " />
<path stroke="transparent" fill="#000000" transform="matrix(0.0833333 0 0 0.0833333 -110.208 -117)" d="M 3258.94,4381.03 L 3278.07,4414.17 L 3259.59,4422.16 L 3242.78,4393.04 L 3258.94,4381.03 Z " />
<path stroke="transparent" fill="#000000" transform="matrix(0.0833333 0 0 0.0833333 -110.208 -117)" d="M 3211.51,4416.28 L 3223.84,4437.62 L 3205.36,4445.61 L 3195.35,4428.29 L 3211.51,4416.28 Z " />
<path stroke="transparent" fill="#000000" transform="matrix(0.0833333 0 0 0.0833333 -110.208 -117)" d="M 3163.49,4958.79 L 3143.49,4958.79 L 3143.49,4469.78 L 3163.49,4458.23 L 3163.49,4958.79 Z " />
<path stroke="transparent" fill="#000000" transform="matrix(0.0833333 0 0 0.0833333 -110.208 -117)" d="M 3048.89,5112.8 L 3058.89,5130.12 L 2633.88,5375.51 L 2633.88,5352.42 L 3048.89,5112.8 Z " />
<path stroke="transparent" fill="#000000" transform="matrix(0.0833333 0 0 0.0833333 -110.208 -117)" d="M 2693.88,5909.97 L 2573.88,5909.97 L 2575.92,5889.97 L 2691.85,5889.97 L 2693.88,5909.97 Z " />
<path stroke="transparent" fill="#000000" transform="matrix(0.0833333 0 0 0.0833333 -110.208 -117)" d="M 2687.89,5850.97 L 2579.88,5850.97 L 2581.91,5830.97 L 2685.85,5830.97 L 2687.89,5850.97 Z " />
<path stroke="transparent" fill="#000000" transform="matrix(0.0833333 0 0 0.0833333 -110.208 -117)" d="M 2681.89,5791.97 L 2585.88,5791.97 L 2587.91,5771.97 L 2679.86,5771.97 L 2681.89,5791.97 Z " />
<path stroke="transparent" fill="#000000" transform="matrix(0.0833333 0 0 0.0833333 -110.208 -117)" d="M 2675.9,5732.97 L 2591.87,5732.97 L 2593.9,5712.97 L 2673.86,5712.97 L 2675.9,5732.97 Z " />
<path stroke="transparent" fill="#000000" transform="matrix(0.0833333 0 0 0.0833333 -110.208 -117)" d="M 2669.9,5673.97 L 2597.87,5673.97 L 2599.9,5653.97 L 2667.87,5653.97 L 2669.9,5673.97 Z " />
<path stroke="transparent" fill="#000000" transform="matrix(0.0833333 0 0 0.0833333 -110.208 -117)" d="M 2663.9,5614.97 L 2603.86,5614.97 L 2605.9,5594.97 L 2661.87,5594.97 L 2663.9,5614.97 Z " />
<path stroke="transparent" fill="#000000" transform="matrix(0.0833333 0 0 0.0833333 -110.208 -117)" d="M 2657.91,5555.97 L 2609.86,5555.97 L 2611.89,5535.97 L 2655.88,5535.97 L 2657.91,5555.97 Z " />
<path stroke="transparent" fill="#000000" transform="matrix(0.0833333 0 0 0.0833333 -110.208 -117)" d="M 2651.91,5496.97 L 2615.85,5496.97 L 2617.89,5476.97 L 2649.88,5476.97 L 2651.91,5496.97 Z " />
<path stroke="transparent" fill="#000000" transform="matrix(0.0833333 0 0 0.0833333 -110.208 -117)" d="M 2645.92,5437.96 L 2621.85,5437.96 L 2623.88,5417.96 L 2643.88,5417.96 L 2645.92,5437.96 Z " />
<path stroke="transparent" fill="#000000" transform="matrix(0.0833333 0 0 0.0833333 -110.208 -117)" d="M 2211.88,6219.22 L 2201.88,6201.9 L 2628.88,5955.32 L 2638.88,5972.64 L 2211.88,6219.22 Z " />
<path stroke="transparent" fill="#000000" transform="matrix(0.0833333 0 0 0.0833333 -110.208 -117)" d="M 2633.88,5352.42 L 2633.88,5375.51 L 2114.83,5075.88 L 2114.27,5064.02 L 2124.27,5058.24 L 2633.88,5352.42 Z " />
<path stroke="transparent" fill="#000000" transform="matrix(0.0833333 0 0 0.0833333 -110.208 -117)" d="M 1717.27,5362.51 L 1657.27,5258.59 L 2104.27,5057.6 L 2114.27,5064.02 L 2114.83,5075.88 L 1717.27,5362.51 Z " />
<path stroke="transparent" fill="#000000" transform="matrix(0.0833333 0 0 0.0833333 -110.208 -117)" d="M 2124.27,5058.24 L 2114.27,5064.02 L 2104.27,5057.6 L 2104.27,4458.23 L 2124.27,4469.78 L 2124.27,5058.24 Z " />
<path stroke="transparent" fill="#000000" transform="matrix(0.0833333 0 0 0.0833333 -110.208 -117)" d="M 1664.69,4273.71 L 1724.69,4169.79 L 1740.85,4181.8 L 1683.17,4281.7 L 1664.69,4273.71 Z " />
<path stroke="transparent" fill="#000000" transform="matrix(0.0833333 0 0 0.0833333 -110.208 -117)" d="M 1718.87,4297.13 L 1772.06,4205 L 1788.22,4217.02 L 1737.35,4305.12 L 1718.87,4297.13 Z " />
<path stroke="transparent" fill="#000000" transform="matrix(0.0833333 0 0 0.0833333 -110.208 -117)" d="M 1773.06,4320.55 L 1819.44,4240.22 L 1835.59,4252.23 L 1791.54,4328.54 L 1773.06,4320.55 Z " />
<path stroke="transparent" fill="#000000" transform="matrix(0.0833333 0 0 0.0833333 -110.208 -117)" d="M 1827.24,4343.97 L 1866.81,4275.44 L 1882.97,4287.45 L 1845.72,4351.96 L 1827.24,4343.97 Z " />
<path stroke="transparent" fill="#000000" transform="matrix(0.0833333 0 0 0.0833333 -110.208 -117)" d="M 1881.42,4367.39 L 1914.18,4310.65 L 1930.34,4322.67 L 1899.91,4375.38 L 1881.42,4367.39 Z " />
<path stroke="transparent" fill="#000000" transform="matrix(0.0833333 0 0 0.0833333 -110.208 -117)" d="M 1935.61,4390.81 L 1961.55,4345.87 L 1977.71,4357.88 L 1954.09,4398.8 L 1935.61,4390.81 Z " />
<path stroke="transparent" fill="#000000" transform="matrix(0.0833333 0 0 0.0833333 -110.208 -117)" d="M 1989.79,4414.23 L 2008.93,4381.09 L 2025.09,4393.1 L 2008.27,4422.22 L 1989.79,4414.23 Z " />
<path stroke="transparent" fill="#000000" transform="matrix(0.0833333 0 0 0.0833333 -110.208 -117)" d="M 2043.98,4437.65 L 2056.3,4416.3 L 2072.46,4428.31 L 2062.46,4445.64 L 2043.98,4437.65 Z " />
<path stroke="transparent" fill="#000000" transform="matrix(0.0833333 0 0 0.0833333 -110.208 -117)" d="M 2124.27,4469.78 L 2104.27,4458.23 L 2623.32,4158.55 L 2633.88,4164 L 2633.88,4175.54 L 2124.27,4469.78 Z " />
<path stroke="transparent" fill="#000000" transform="matrix(0.0833333 0 0 0.0833333 -110.208 -117)" d="M 2633.88,4175.54 L 2633.88,4164 L 2644.45,4158.55 L 3163.49,4458.23 L 3143.49,4469.78 L 2633.88,4175.54 Z " />
<path stroke="transparent" fill="#000000" transform="matrix(0.0833333 0 0 0.0833333 -110.208 -117)" d="M 2573.88,3683.88 L 2693.88,3683.88 L 2644.45,4158.55 L 2633.88,4164 L 2623.32,4158.55 L 2573.88,3683.88 Z " />
<path stroke="transparent" fill="#000000" transform="matrix(0.0833333 0 0 0.0833333 -110.208 -117)" d="M 4702.33,3569.76 L 4722.33,3558.21 L 4722.33,4158.22 L 4702.33,4169.77 L 4702.33,3569.76 Z " />
<path stroke="transparent" fill="#000000" transform="matrix(0.0833333 0 0 0.0833333 -110.208 -117)" d="M 4192.72,3275.52 L 4192.72,3263.98 L 4202.72,3258.2 L 4722.33,3558.21 L 4702.33,3569.76 L 4192.72,3275.52 Z " />
<path stroke="transparent" fill="#000000" transform="matrix(0.0833333 0 0 0.0833333 -110.208 -117)" d="M 3673.11,3575.53 L 3673.11,3552.44 L 4182.72,3258.2 L 4192.72,3263.98 L 4192.72,3275.52 L 3673.11,3575.53 Z " />
<path stroke="transparent" fill="#000000" transform="matrix(0.0833333 0 0 0.0833333 -110.208 -117)" d="M 3678.11,3489.5 L 3668.11,3472.18 L 4115.72,3213.75 L 4125.72,3231.07 L 3678.11,3489.5 Z " />
<path stroke="transparent" fill="#000000" transform="matrix(0.0833333 0 0 0.0833333 -110.208 -117)" d="M 3143.49,3269.75 L 3163.49,3258.2 L 3673.11,3552.44 L 3673.11,3575.53 L 3143.49,3269.75 Z " />
<path stroke="transparent" fill="#000000" transform="matrix(0.0833333 0 0 0.0833333 -110.208 -117)" d="M 3143.49,2669.74 L 3153.49,2663.96 L 3163.49,2669.74 L 3163.49,3258.2 L 3143.49,3269.75 L 3143.49,2669.74 Z " />
<path stroke="transparent" fill="#000000" transform="matrix(0.0833333 0 0 0.0833333 -110.208 -117)" d="M 3215.5,2705.53 L 3235.5,2705.53 L 3235.5,3222.41 L 3215.5,3222.41 L 3215.5,2705.53 Z " />
<path stroke="transparent" fill="#000000" transform="matrix(0.0833333 0 0 0.0833333 -110.208 -117)" d="M 2728.91,2430.37 L 2738.91,2413.05 L 3153.49,2652.42 L 3153.49,2663.96 L 3143.49,2669.74 L 2728.91,2430.37 Z " />
<path stroke="transparent" fill="#000000" transform="matrix(0.0833333 0 0 0.0833333 -110.208 -117)" d="M 3663.11,2358.18 L 3673.11,2363.96 L 3673.11,2375.5 L 3163.49,2669.74 L 3153.49,2663.96 L 3153.49,2652.42 L 3663.11,2358.18 Z " />
<path stroke="transparent" fill="#000000" transform="matrix(0.0833333 0 0 0.0833333 -110.208 -117)" d="M 3663.11,1883.78 L 3683.11,1883.78 L 3683.11,2358.18 L 3673.11,2363.96 L 3663.11,2358.18 L 3663.11,1883.78 Z " />
<path stroke="transparent" fill="#000000" transform="matrix(0.0833333 0 0 0.0833333 -110.208 -117)" d="M 3148.49,1472.6 L 3158.49,1455.28 L 3585.49,1701.81 L 3575.49,1719.13 L 3148.49,1472.6 Z " />
<path stroke="transparent" fill="#000000" transform="matrix(0.0833333 0 0 0.0833333 -110.208 -117)" d="M 4202.72,2658.19 L 4182.72,2669.74 L 3673.11,2375.5 L 3673.11,2363.96 L 3683.11,2358.18 L 4202.72,2658.19 Z " />
<path stroke="transparent" fill="#000000" transform="matrix(0.0833333 0 0 0.0833333 -110.208 -117)" d="M 4125.72,2696.87 L 4115.72,2714.19 L 3668.11,2455.76 L 3678.11,2438.44 L 4125.72,2696.87 Z " />
<path stroke="transparent" fill="#000000" transform="matrix(0.0833333 0 0 0.0833333 -110.208 -117)" d="M 4182.72,2669.74 L 4202.72,2658.19 L 4202.72,3258.2 L 4192.72,3263.98 L 4182.72,3258.2 L 4182.72,2669.74 Z " />
<path stroke="transparent" fill="#000000" transform="matrix(0.0833333 0 0 0.0833333 -110.208 -117)" d="M 4192.72,5075.56 L 4192.72,5052.47 L 4712.33,5352.48 L 4712.33,5364.02 L 4702.33,5369.8 L 4192.72,5075.56 Z " />
<path stroke="transparent" fill="#000000" transform="matrix(0.0833333 0 0 0.0833333 -110.208 -117)" d="M 4187.72,5155.82 L 4197.72,5138.49 L 4645.33,5396.93 L 4635.33,5414.25 L 4187.72,5155.82 Z " />
<path stroke="transparent" fill="#000000" transform="matrix(0.0833333 0 0 0.0833333 -110.208 -117)" d="M 3683.11,5369.8 L 3663.11,5358.25 L 4192.72,5052.47 L 4192.72,5075.56 L 3683.11,5369.8 Z " />
<path stroke="transparent" fill="#000000" transform="matrix(0.0833333 0 0 0.0833333 -110.208 -117)" d="M 3683.11,5958.26 L 3673.11,5964.04 L 3663.11,5958.26 L 3663.11,5358.25 L 3683.11,5369.8 L 3683.11,5958.26 Z " />
<path stroke="transparent" fill="#000000" transform="matrix(0.0833333 0 0 0.0833333 -110.208 -117)" d="M 3755.11,5922.47 L 3735.11,5922.47 L 3735.11,5405.59 L 3755.11,5405.59 L 3755.11,5922.47 Z " />
<path stroke="transparent" fill="#000000" transform="matrix(0.0833333 0 0 0.0833333 -110.208 -117)" d="M 3673.11,5975.58 L 3673.11,5964.04 L 3683.11,5958.26 L 4192.72,6252.5 L 4192.72,6264.04 L 4182.72,6269.82 L 3673.11,5975.58 Z " />
<path stroke="transparent" fill="#000000" transform="matrix(0.0833333 0 0 0.0833333 -110.208 -117)" d="M 3251.1,6219.23 L 3241.1,6201.91 L 3663.11,5958.26 L 3673.11,5964.04 L 3673.11,5975.58 L 3251.1,6219.23 Z " />
</svg>
