<?xml version="1.0" standalone="no" ?>
<!DOCTYPE svg PUBLIC "-//W3C//DTD SVG 1.1//EN" "http://www.w3.org/Graphics/SVG/1.1/DTD/svg11.dtd">
<svg width="126px" height="98px" viewBox="0 0 126 98" style="background-color: #ffffff00" xmlns="http://www.w3.org/2000/svg" xmlns:xlink="http://www.w3.org/1999/xlink" version="1.1" >
<text x="0" y="0" stroke="transparent" fill="#000000" transform="matrix(0.0666667 0 0 0.0666667 33.7452 14.4936)" style="font:normal normal normal 200px 'Arial'" >
N</text>
<text x="0" y="0" stroke="transparent" fill="#000000" transform="matrix(0.0666667 0 0 0.0666667 102.627 94.4953)" style="font:normal normal normal 200px 'Arial'" >
OH</text>
<path stroke="transparent" fill="#000000" transform="matrix(0.0666667 0 0 0.0666667 -285.853 -198)" d="M 5395.59,3415.18 L 5385.59,3409.41 L 5385.59,3397.86 L 5900.2,3100.74 L 5910.2,3118.06 L 5395.59,3415.18 Z " />
<path stroke="transparent" fill="#000000" transform="matrix(0.0666667 0 0 0.0666667 -285.853 -198)" d="M 4971.03,3181.61 L 4981.03,3164.29 L 5385.59,3397.86 L 5385.59,3409.41 L 5375.59,3415.18 L 4971.03,3181.61 Z " />
<path stroke="transparent" fill="#000000" transform="matrix(0.0666667 0 0 0.0666667 -285.853 -198)" d="M 4935.03,3243.96 L 4945.03,3226.64 L 5318.59,3442.32 L 5308.59,3459.64 L 4935.03,3243.96 Z " />
<path stroke="transparent" fill="#000000" transform="matrix(0.0666667 0 0 0.0666667 -285.853 -198)" d="M 4356.37,3415.14 L 4336.37,3403.6 L 4750.92,3164.28 L 4760.92,3181.6 L 4356.37,3415.14 Z " />
<path stroke="transparent" fill="#000000" transform="matrix(0.0666667 0 0 0.0666667 -285.853 -198)" d="M 4356.37,4003.61 L 4336.37,4015.16 L 4336.37,3403.6 L 4356.37,3415.14 L 4356.37,4003.61 Z " />
<path stroke="transparent" fill="#000000" transform="matrix(0.0666667 0 0 0.0666667 -285.853 -198)" d="M 4428.37,3967.81 L 4408.37,3967.81 L 4408.37,3450.94 L 4428.37,3450.94 L 4428.37,3967.81 Z " />
<path stroke="transparent" fill="#000000" transform="matrix(0.0666667 0 0 0.0666667 -285.853 -198)" d="M 4865.98,4297.84 L 4865.98,4320.94 L 4336.37,4015.16 L 4356.37,4003.61 L 4865.98,4297.84 Z " />
<path stroke="transparent" fill="#000000" transform="matrix(0.0666667 0 0 0.0666667 -285.853 -198)" d="M 5375.59,4003.65 L 5385.59,4009.42 L 5385.59,4020.97 L 4865.98,4320.94 L 4865.98,4297.84 L 5375.59,4003.65 Z " />
<path stroke="transparent" fill="#000000" transform="matrix(0.0666667 0 0 0.0666667 -285.853 -198)" d="M 5308.59,3959.19 L 5318.59,3976.51 L 4870.98,4234.92 L 4860.98,4217.59 L 5308.59,3959.19 Z " />
<path stroke="transparent" fill="#000000" transform="matrix(0.0666667 0 0 0.0666667 -285.853 -198)" d="M 5395.59,4003.65 L 5385.59,4009.42 L 5375.59,4003.65 L 5375.59,3415.18 L 5385.59,3409.41 L 5395.59,3415.18 L 5395.59,4003.65 Z " />
<path stroke="transparent" fill="#000000" transform="matrix(0.0666667 0 0 0.0666667 -285.853 -198)" d="M 5817.58,4247.3 L 5807.58,4264.62 L 5385.59,4020.97 L 5385.59,4009.42 L 5395.59,4003.65 L 5817.58,4247.3 Z " />
</svg>
