<?xml version="1.0" standalone="no" ?>
<!DOCTYPE svg PUBLIC "-//W3C//DTD SVG 1.1//EN" "http://www.w3.org/Graphics/SVG/1.1/DTD/svg11.dtd">
<svg width="430px" height="278px" viewBox="0 0 430 278" style="background-color: #ffffff00" xmlns="http://www.w3.org/2000/svg" xmlns:xlink="http://www.w3.org/1999/xlink" version="1.1" >
<text x="0" y="0" stroke="transparent" fill="#000000" transform="matrix(0.0833333 0 0 0.0833333 243.899 219.566)" style="font:normal normal normal 200px 'Arial'" >
N</text>
<text x="0" y="0" stroke="transparent" fill="#000000" transform="matrix(0.0833333 0 0 0.0833333 120.493 150.917)" style="font:normal normal normal 200px 'Arial'" >
H</text>
<text x="0" y="0" stroke="transparent" fill="#000000" transform="matrix(0.0833333 0 0 0.0833333 120.493 164.723)" style="font:normal normal normal 200px 'Arial'" >
N</text>
<text x="0" y="0" stroke="transparent" fill="#000000" transform="matrix(0.0833333 0 0 0.0833333 205.582 50.5364)" style="font:normal normal normal 200px 'Arial'" >
O</text>
<text x="0" y="0" stroke="transparent" fill="#000000" transform="matrix(0.0833333 0 0 0.0833333 351.966 17.788)" style="font:normal normal normal 200px 'Arial'" >
O</text>
<text x="0" y="0" stroke="transparent" fill="#000000" transform="matrix(0.0833333 0 0 0.0833333 370.873 102.302)" style="font:normal normal normal 200px 'Arial'" >
O</text>
<path stroke="transparent" fill="#000000" transform="matrix(0.0833333 0 0 0.0833333 -221.5 -211)" d="M 7003.7,4265.23 L 7010.6,4243.19 L 7420.72,4688.97 L 7406.01,4702.51 L 7003.7,4265.23 Z " />
<path stroke="transparent" fill="#000000" transform="matrix(0.0833333 0 0 0.0833333 -221.5 -211)" d="M 6974.95,4340.32 L 6989.67,4326.78 L 7367.74,4737.72 L 7353.02,4751.26 L 6974.95,4340.32 Z " />
<path stroke="transparent" fill="#000000" transform="matrix(0.0833333 0 0 0.0833333 -221.5 -211)" d="M 6429.45,4393.71 L 6421.63,4385.21 L 6425.08,4374.19 L 7010.6,4243.19 L 7003.7,4265.23 L 6429.45,4393.71 Z " />
<path stroke="transparent" fill="#000000" transform="matrix(0.0833333 0 0 0.0833333 -221.5 -211)" d="M 6250.12,4966.3 L 6234.49,4949.3 L 6410.36,4387.73 L 6421.63,4385.21 L 6429.45,4393.71 L 6250.12,4966.3 Z " />
<path stroke="transparent" fill="#000000" transform="matrix(0.0833333 0 0 0.0833333 -221.5 -211)" d="M 5764.69,5074.9 L 5760.32,5055.39 L 6234.49,4949.3 L 6250.12,4966.3 L 5764.69,5074.9 Z " />
<path stroke="transparent" fill="#000000" transform="matrix(0.0833333 0 0 0.0833333 -221.5 -211)" d="M 5485.28,5669.88 L 5469.65,5652.88 L 5608.23,5210.38 L 5627.32,5216.35 L 5485.28,5669.88 Z " />
<path stroke="transparent" fill="#000000" transform="matrix(0.0833333 0 0 0.0833333 -221.5 -211)" d="M 4888.44,5803.38 L 4895.34,5781.34 L 5469.65,5652.88 L 5485.28,5669.88 L 4888.44,5803.38 Z " />
<path stroke="transparent" fill="#000000" transform="matrix(0.0833333 0 0 0.0833333 -221.5 -211)" d="M 4481.36,5360.77 L 4485.71,5350.72 L 4496.98,5348.2 L 4895.34,5781.34 L 4888.44,5803.38 L 4481.36,5360.77 Z " />
<path stroke="transparent" fill="#000000" transform="matrix(0.0833333 0 0 0.0833333 -221.5 -211)" d="M 4653.32,4782.08 L 4665.03,4778.14 L 4672.85,4786.63 L 4496.98,5348.2 L 4485.71,5350.72 L 4478.34,5340.8 L 4653.32,4782.08 Z " />
<path stroke="transparent" fill="#000000" transform="matrix(0.0833333 0 0 0.0833333 -221.5 -211)" d="M 4571.14,4803.55 L 4590.23,4809.53 L 4442.17,5282.28 L 4423.09,5276.3 L 4571.14,4803.55 Z " />
<path stroke="transparent" fill="#000000" transform="matrix(0.0833333 0 0 0.0833333 -221.5 -211)" d="M 4276.62,4514.48 L 4288.2,4498.17 L 4667.19,4767.4 L 4665.03,4778.14 L 4653.32,4782.08 L 4276.62,4514.48 Z " />
<path stroke="transparent" fill="#000000" transform="matrix(0.0833333 0 0 0.0833333 -221.5 -211)" d="M 3706.07,4792.18 L 3694.27,4788.49 L 3691.88,4777.81 L 4064.58,4500.93 L 4076.5,4516.98 L 3706.07,4792.18 Z " />
<path stroke="transparent" fill="#000000" transform="matrix(0.0833333 0 0 0.0833333 -221.5 -211)" d="M 3109.77,4680.99 L 3102.4,4659.1 L 3691.88,4777.81 L 3694.27,4788.49 L 3686.64,4797.15 L 3109.77,4680.99 Z " />
<path stroke="transparent" fill="#000000" transform="matrix(0.0833333 0 0 0.0833333 -221.5 -211)" d="M 3130.64,4758.63 L 3134.59,4739.03 L 3641.28,4841.06 L 3637.33,4860.67 L 3130.64,4758.63 Z " />
<path stroke="transparent" fill="#000000" transform="matrix(0.0833333 0 0 0.0833333 -221.5 -211)" d="M 2720.66,5122.43 L 2698.02,5117.87 L 3102.4,4659.1 L 3109.77,4680.99 L 2720.66,5122.43 Z " />
<path stroke="transparent" fill="#000000" transform="matrix(0.0833333 0 0 0.0833333 -221.5 -211)" d="M 2908.47,5680.12 L 2893.2,5697.44 L 2698.02,5117.87 L 2720.66,5122.43 L 2908.47,5680.12 Z " />
<path stroke="transparent" fill="#000000" transform="matrix(0.0833333 0 0 0.0833333 -221.5 -211)" d="M 2965.28,5623.21 L 2946.33,5629.6 L 2781.37,5139.77 L 2800.32,5133.38 L 2965.28,5623.21 Z " />
<path stroke="transparent" fill="#000000" transform="matrix(0.0833333 0 0 0.0833333 -221.5 -211)" d="M 3485.33,5796.34 L 3492.7,5818.22 L 2893.2,5697.44 L 2908.47,5680.12 L 3485.33,5796.34 Z " />
<path stroke="transparent" fill="#000000" transform="matrix(0.0833333 0 0 0.0833333 -221.5 -211)" d="M 3874.43,5354.89 L 3885.75,5357.17 L 3890.31,5367.12 L 3492.7,5818.22 L 3485.33,5796.34 L 3874.43,5354.89 Z " />
<path stroke="transparent" fill="#000000" transform="matrix(0.0833333 0 0 0.0833333 -221.5 -211)" d="M 3796.75,5334.14 L 3811.75,5347.36 L 3469.99,5735.1 L 3454.98,5721.88 L 3796.75,5334.14 Z " />
<path stroke="transparent" fill="#000000" transform="matrix(0.0833333 0 0 0.0833333 -221.5 -211)" d="M 3890.31,5367.12 L 3885.75,5357.17 L 3892.91,5347.09 L 4478.34,5340.8 L 4485.71,5350.72 L 4481.36,5360.77 L 3890.31,5367.12 Z " />
<path stroke="transparent" fill="#000000" transform="matrix(0.0833333 0 0 0.0833333 -221.5 -211)" d="M 3892.91,5347.09 L 3885.75,5357.17 L 3874.43,5354.89 L 3686.64,4797.15 L 3694.27,4788.49 L 3706.07,4792.18 L 3892.91,5347.09 Z " />
<path stroke="transparent" fill="#000000" transform="matrix(0.0833333 0 0 0.0833333 -221.5 -211)" d="M 5242.73,4638.64 L 5250.55,4647.14 L 5247.1,4658.15 L 4672.85,4786.63 L 4665.03,4778.14 L 4667.19,4767.4 L 5242.73,4638.64 Z " />
<path stroke="transparent" fill="#000000" transform="matrix(0.0833333 0 0 0.0833333 -221.5 -211)" d="M 5247.1,4658.15 L 5250.55,4647.14 L 5261.82,4644.61 L 5580.18,4990.74 L 5565.46,5004.28 L 5247.1,4658.15 Z " />
<path stroke="transparent" fill="#000000" transform="matrix(0.0833333 0 0 0.0833333 -221.5 -211)" d="M 5422.04,4066.11 L 5437.67,4083.11 L 5261.82,4644.61 L 5250.55,4647.14 L 5242.73,4638.64 L 5422.04,4066.11 Z " />
<path stroke="transparent" fill="#000000" transform="matrix(0.0833333 0 0 0.0833333 -221.5 -211)" d="M 6007.61,3935.13 L 6015.43,3943.63 L 6011.98,3954.64 L 5437.67,4083.11 L 5422.04,4066.11 L 6007.61,3935.13 Z " />
<path stroke="transparent" fill="#000000" transform="matrix(0.0833333 0 0 0.0833333 -221.5 -211)" d="M 6011.98,3954.64 L 6015.43,3943.63 L 6026.7,3941.1 L 6425.08,4374.19 L 6421.63,4385.21 L 6410.36,4387.73 L 6011.98,3954.64 Z " />
<path stroke="transparent" fill="#000000" transform="matrix(0.0833333 0 0 0.0833333 -221.5 -211)" d="M 6183.49,3373.56 L 6194.75,3371.04 L 6202.57,3379.54 L 6026.7,3941.1 L 6015.43,3943.63 L 6007.61,3935.13 L 6183.49,3373.56 Z " />
<path stroke="transparent" fill="#000000" transform="matrix(0.0833333 0 0 0.0833333 -221.5 -211)" d="M 5785.05,2940.46 L 5791.95,2918.42 L 6198.2,3360.02 L 6194.75,3371.04 L 6183.49,3373.56 L 5785.05,2940.46 Z " />
<path stroke="transparent" fill="#000000" transform="matrix(0.0833333 0 0 0.0833333 -221.5 -211)" d="M 5756.29,3015.55 L 5771.01,3002.01 L 6120.97,3382.43 L 6106.25,3395.97 L 5756.29,3015.55 Z " />
<path stroke="transparent" fill="#000000" transform="matrix(0.0833333 0 0 0.0833333 -221.5 -211)" d="M 5309.86,3046.77 L 5305.49,3027.25 L 5791.95,2918.42 L 5785.05,2940.46 L 5309.86,3046.77 Z " />
<path stroke="transparent" fill="#000000" transform="matrix(0.0833333 0 0 0.0833333 -221.5 -211)" d="M 4789.42,2625.62 L 4804.14,2612.08 L 5138.1,2975.13 L 5123.38,2988.67 L 4789.42,2625.62 Z " />
<path stroke="transparent" fill="#000000" transform="matrix(0.0833333 0 0 0.0833333 -221.5 -211)" d="M 6783.73,3229.02 L 6776.82,3251.06 L 6202.57,3379.54 L 6194.75,3371.04 L 6198.2,3360.02 L 6783.73,3229.02 Z " />
<path stroke="transparent" fill="#000000" transform="matrix(0.0833333 0 0 0.0833333 -221.5 -211)" d="M 6879.28,2770 L 6898.36,2775.98 L 6749.25,3252.11 L 6730.16,3246.13 L 6879.28,2770 Z " />
<path stroke="transparent" fill="#000000" transform="matrix(0.0833333 0 0 0.0833333 -221.5 -211)" d="M 6947.99,2791.52 L 6967.07,2797.5 L 6817.96,3273.62 L 6798.87,3267.65 L 6947.99,2791.52 Z " />
<path stroke="transparent" fill="#000000" transform="matrix(0.0833333 0 0 0.0833333 -221.5 -211)" d="M 7121.59,3596.32 L 7106.87,3609.86 L 6776.82,3251.06 L 6783.73,3229.02 L 7121.59,3596.32 Z " />
<path stroke="transparent" fill="#000000" transform="matrix(0.0833333 0 0 0.0833333 -221.5 -211)" d="M 7769.81,3540.87 L 7774.17,3560.39 L 7293.35,3667.96 L 7288.98,3648.44 L 7769.81,3540.87 Z " />
</svg>
