<?xml version="1.0" standalone="no" ?>
<!DOCTYPE svg PUBLIC "-//W3C//DTD SVG 1.1//EN" "http://www.w3.org/Graphics/SVG/1.1/DTD/svg11.dtd">
<svg width="383px" height="421px" viewBox="0 0 383 421" style="background-color: #ffffff00" xmlns="http://www.w3.org/2000/svg" xmlns:xlink="http://www.w3.org/1999/xlink" version="1.1" >
<text x="0" y="0" stroke="transparent" fill="#000000" transform="matrix(0.0833333 0 0 0.0833333 181.177 242.465)" style="font:normal normal normal 200px 'Arial'" >
O</text>
<text x="0" y="0" stroke="transparent" fill="#000000" transform="matrix(0.0833333 0 0 0.0833333 224.631 167.465)" style="font:normal normal normal 200px 'Arial'" >
O</text>
<text x="0" y="0" stroke="transparent" fill="#000000" transform="matrix(0.0833333 0 0 0.0833333 224.504 317.465)" style="font:normal normal normal 200px 'Arial'" >
O</text>
<text x="0" y="0" stroke="transparent" fill="#000000" transform="matrix(0.0833333 0 0 0.0833333 267.807 192.526)" style="font:normal normal normal 200px 'Arial'" >
OH</text>
<text x="0" y="0" stroke="transparent" fill="#000000" transform="matrix(0.0833333 0 0 0.0833333 354.528 242.465)" style="font:normal normal normal 200px 'Arial'" >
OH</text>
<text x="0" y="0" stroke="transparent" fill="#000000" transform="matrix(0.0833333 0 0 0.0833333 4.01921 82.229)" style="font:normal normal normal 200px 'Arial'" >
HO</text>
<text x="0" y="0" stroke="transparent" fill="#000000" transform="matrix(0.0833333 0 0 0.0833333 137.928 267.465)" style="font:normal normal normal 200px 'Arial'" >
OH</text>
<text x="0" y="0" stroke="transparent" fill="#000000" transform="matrix(0.0833333 0 0 0.0833333 311.116 417.465)" style="font:normal normal normal 200px 'Arial'" >
OH</text>
<text x="0" y="0" stroke="transparent" fill="#000000" transform="matrix(0.0833333 0 0 0.0833333 354.528 342.465)" style="font:normal normal normal 200px 'Arial'" >
OH</text>
<text x="0" y="0" stroke="transparent" fill="#000000" transform="matrix(0.0833333 0 0 0.0833333 224.504 17.4653)" style="font:normal normal normal 200px 'Arial'" >
O</text>
<text x="0" y="0" stroke="transparent" fill="#000000" transform="matrix(0.0833333 0 0 0.0833333 137.928 17.4653)" style="font:normal normal normal 200px 'Arial'" >
O</text>
<text x="0" y="0" stroke="transparent" fill="#000000" transform="matrix(0.0833333 0 0 0.0833333 138.555 67.4653)" style="font:normal normal normal 200px 'Arial'" >
H</text>
<text x="0" y="0" stroke="transparent" fill="#000000" transform="matrix(0.0833333 0 0 0.0833333 138.555 217.465)" style="font:normal normal normal 200px 'Arial'" >
H</text>
<text x="0" y="0" stroke="transparent" fill="#000000" transform="matrix(0.0833333 0 0 0.0833333 225.004 217.465)" style="font:normal normal normal 200px 'Arial'" >
H</text>
<path stroke="transparent" fill="#000000" transform="matrix(0.0833333 0 0 0.0833333 -244.208 -168)" d="M 5242.62,4742.42 L 5122.62,4742.42 L 5172.07,4253.75 L 5182.62,4248.31 L 5193.17,4253.77 L 5242.62,4742.42 Z " />
<path stroke="transparent" fill="#000000" transform="matrix(0.0833333 0 0 0.0833333 -244.208 -168)" d="M 5702.54,5136.04 L 5702.55,5147.58 L 5692.55,5153.36 L 5277.67,4913.97 L 5287.66,4896.65 L 5702.54,5136.04 Z " />
<path stroke="transparent" fill="#000000" transform="matrix(0.0833333 0 0 0.0833333 -244.208 -168)" d="M 4677.02,3966.04 L 4665.16,3947.58 L 4675.16,3941.83 L 5182.64,4236.76 L 5182.62,4248.31 L 5172.07,4253.75 L 4677.02,3966.04 Z " />
<path stroke="transparent" fill="#000000" transform="matrix(0.0833333 0 0 0.0833333 -244.208 -168)" d="M 5599.45,3996.38 L 5609.44,4013.7 L 5193.17,4253.77 L 5182.62,4248.31 L 5182.64,4236.76 L 5599.45,3996.38 Z " />
<path stroke="transparent" fill="#000000" transform="matrix(0.0833333 0 0 0.0833333 -244.208 -168)" d="M 5712.55,5642.42 L 5692.55,5642.42 L 5692.55,5153.36 L 5702.55,5147.58 L 5712.55,5153.36 L 5712.55,5642.42 Z " />
<path stroke="transparent" fill="#000000" transform="matrix(0.0833333 0 0 0.0833333 -244.208 -168)" d="M 6222.17,4836.04 L 6222.19,4859.13 L 5712.55,5153.36 L 5702.55,5147.58 L 5702.54,5136.04 L 6222.17,4836.04 Z " />
<path stroke="transparent" fill="#000000" transform="matrix(0.0833333 0 0 0.0833333 -244.208 -168)" d="M 5642.55,4664.92 L 5762.55,4664.92 L 5760.21,4684.92 L 5644.88,4684.92 L 5642.55,4664.92 Z " />
<path stroke="transparent" fill="#000000" transform="matrix(0.0833333 0 0 0.0833333 -244.208 -168)" d="M 5649.35,4723.29 L 5755.74,4723.29 L 5753.4,4743.29 L 5651.69,4743.29 L 5649.35,4723.29 Z " />
<path stroke="transparent" fill="#000000" transform="matrix(0.0833333 0 0 0.0833333 -244.208 -168)" d="M 5656.16,4781.66 L 5748.93,4781.66 L 5746.59,4801.66 L 5658.5,4801.66 L 5656.16,4781.66 Z " />
<path stroke="transparent" fill="#000000" transform="matrix(0.0833333 0 0 0.0833333 -244.208 -168)" d="M 5662.97,4840.03 L 5742.12,4840.03 L 5739.78,4860.03 L 5665.31,4860.03 L 5662.97,4840.03 Z " />
<path stroke="transparent" fill="#000000" transform="matrix(0.0833333 0 0 0.0833333 -244.208 -168)" d="M 5669.78,4898.4 L 5735.31,4898.4 L 5732.97,4918.4 L 5672.12,4918.4 L 5669.78,4898.4 Z " />
<path stroke="transparent" fill="#000000" transform="matrix(0.0833333 0 0 0.0833333 -244.208 -168)" d="M 5676.59,4956.77 L 5728.5,4956.77 L 5726.16,4976.77 L 5678.93,4976.77 L 5676.59,4956.77 Z " />
<path stroke="transparent" fill="#000000" transform="matrix(0.0833333 0 0 0.0833333 -244.208 -168)" d="M 5683.4,5015.14 L 5721.69,5015.14 L 5719.35,5035.14 L 5685.74,5035.14 L 5683.4,5015.14 Z " />
<path stroke="transparent" fill="#000000" transform="matrix(0.0833333 0 0 0.0833333 -244.208 -168)" d="M 5690.21,5073.51 L 5714.88,5073.51 L 5712.55,5093.51 L 5692.55,5093.51 L 5690.21,5073.51 Z " />
<path stroke="transparent" fill="#000000" transform="matrix(0.0833333 0 0 0.0833333 -244.208 -168)" d="M 4655.16,3357.58 L 4665.16,3347.58 L 4675.16,3353.35 L 4675.16,3941.83 L 4665.16,3947.58 L 4655.16,3941.8 L 4655.16,3357.58 Z " />
<path stroke="transparent" fill="#000000" transform="matrix(0.0833333 0 0 0.0833333 -244.208 -168)" d="M 4153.13,4254.09 L 4143.13,4248.31 L 4143.14,4236.76 L 4655.16,3941.8 L 4665.16,3947.58 L 4653.32,3965.95 L 4153.13,4254.09 Z " />
<path stroke="transparent" fill="#000000" transform="matrix(0.0833333 0 0 0.0833333 -244.208 -168)" d="M 4725.16,4444.92 L 4605.16,4444.92 L 4653.32,3965.95 L 4665.16,3947.58 L 4677.02,3966.04 L 4725.16,4444.92 Z " />
<path stroke="transparent" fill="#000000" transform="matrix(0.0833333 0 0 0.0833333 -244.208 -168)" d="M 5694.07,3353.37 L 5714.07,3341.79 L 5714.07,3842.42 L 5694.07,3842.42 L 5694.07,3353.37 Z " />
<path stroke="transparent" fill="#000000" transform="matrix(0.0833333 0 0 0.0833333 -244.208 -168)" d="M 6222.19,6036.04 L 6222.18,6047.58 L 6211.72,6053.09 L 5797.58,5814 L 5807.58,5796.68 L 6222.19,6036.04 Z " />
<path stroke="transparent" fill="#000000" transform="matrix(0.0833333 0 0 0.0833333 -244.208 -168)" d="M 6162.18,4368.14 L 6282.18,4368.14 L 6279.83,4388.14 L 6164.53,4388.14 L 6162.18,4368.14 Z " />
<path stroke="transparent" fill="#000000" transform="matrix(0.0833333 0 0 0.0833333 -244.208 -168)" d="M 6168.99,4426.06 L 6275.37,4426.06 L 6273.02,4446.06 L 6171.34,4446.06 L 6168.99,4426.06 Z " />
<path stroke="transparent" fill="#000000" transform="matrix(0.0833333 0 0 0.0833333 -244.208 -168)" d="M 6175.8,4483.97 L 6268.57,4483.97 L 6266.22,4503.97 L 6178.15,4503.97 L 6175.8,4483.97 Z " />
<path stroke="transparent" fill="#000000" transform="matrix(0.0833333 0 0 0.0833333 -244.208 -168)" d="M 6182.6,4541.88 L 6261.76,4541.88 L 6259.41,4561.88 L 6184.95,4561.88 L 6182.6,4541.88 Z " />
<path stroke="transparent" fill="#000000" transform="matrix(0.0833333 0 0 0.0833333 -244.208 -168)" d="M 6189.41,4599.8 L 6254.95,4599.8 L 6252.6,4619.8 L 6191.76,4619.8 L 6189.41,4599.8 Z " />
<path stroke="transparent" fill="#000000" transform="matrix(0.0833333 0 0 0.0833333 -244.208 -168)" d="M 6196.22,4657.71 L 6248.15,4657.71 L 6245.8,4677.71 L 6198.57,4677.71 L 6196.22,4657.71 Z " />
<path stroke="transparent" fill="#000000" transform="matrix(0.0833333 0 0 0.0833333 -244.208 -168)" d="M 6203.02,4715.62 L 6241.34,4715.62 L 6238.99,4735.62 L 6205.37,4735.62 L 6203.02,4715.62 Z " />
<path stroke="transparent" fill="#000000" transform="matrix(0.0833333 0 0 0.0833333 -244.208 -168)" d="M 6209.83,4773.53 L 6234.53,4773.53 L 6232.18,4793.53 L 6212.18,4793.53 L 6209.83,4773.53 Z " />
<path stroke="transparent" fill="#000000" transform="matrix(0.0833333 0 0 0.0833333 -244.208 -168)" d="M 6742.7,5135.72 L 6743.27,5147.58 L 6733.27,5153.37 L 6222.19,4859.13 L 6222.17,4836.04 L 6742.7,5135.72 Z " />
<path stroke="transparent" fill="#000000" transform="matrix(0.0833333 0 0 0.0833333 -244.208 -168)" d="M 5172.62,3042.54 L 5182.62,3048.31 L 5182.64,3059.85 L 4675.16,3353.35 L 4665.16,3347.58 L 4677.07,3329.14 L 5172.62,3042.54 Z " />
<path stroke="transparent" fill="#000000" transform="matrix(0.0833333 0 0 0.0833333 -244.208 -168)" d="M 3634.15,3357.58 L 3614.15,3337.58 L 4654.13,3337.58 L 4665.16,3347.58 L 4655.16,3357.58 L 3634.15,3357.58 Z " />
<path stroke="transparent" fill="#000000" transform="matrix(0.0833333 0 0 0.0833333 -244.208 -168)" d="M 4605.16,2864.92 L 4725.16,2864.92 L 4677.07,3329.14 L 4665.16,3347.58 L 4654.13,3337.58 L 4605.16,2864.92 Z " />
<path stroke="transparent" fill="#000000" transform="matrix(0.0833333 0 0 0.0833333 -244.208 -168)" d="M 4153.13,4841.8 L 4133.13,4853.36 L 4133.13,4254.07 L 4143.13,4248.31 L 4153.13,4254.09 L 4153.13,4841.8 Z " />
<path stroke="transparent" fill="#000000" transform="matrix(0.0833333 0 0 0.0833333 -244.208 -168)" d="M 3614.15,3953.35 L 3634.15,3941.82 L 4143.14,4236.76 L 4143.13,4248.31 L 4133.13,4254.07 L 3614.15,3953.35 Z " />
<path stroke="transparent" fill="#000000" transform="matrix(0.0833333 0 0 0.0833333 -244.208 -168)" d="M 3691.11,3914.76 L 3701.14,3897.45 L 4148.25,4156.53 L 4138.22,4173.84 L 3691.11,3914.76 Z " />
<path stroke="transparent" fill="#000000" transform="matrix(0.0833333 0 0 0.0833333 -244.208 -168)" d="M 5182.64,3059.85 L 5182.62,3048.31 L 5192.62,3042.52 L 5714.07,3341.79 L 5694.07,3353.37 L 5182.64,3059.85 Z " />
<path stroke="transparent" fill="#000000" transform="matrix(0.0833333 0 0 0.0833333 -244.208 -168)" d="M 5177.78,3140.25 L 5187.73,3122.9 L 5636.9,3380.69 L 5626.95,3398.04 L 5177.78,3140.25 Z " />
<path stroke="transparent" fill="#000000" transform="matrix(0.0833333 0 0 0.0833333 -244.208 -168)" d="M 6284.2,6671.84 L 6164.02,6625.55 L 6211.72,6053.09 L 6222.18,6047.58 L 6232.64,6053.1 L 6284.2,6671.84 Z " />
<path stroke="transparent" fill="#000000" transform="matrix(0.0833333 0 0 0.0833333 -244.208 -168)" d="M 6733.27,5741.8 L 6753.27,5753.37 L 6232.64,6053.1 L 6222.18,6047.58 L 6222.19,6036.04 L 6733.27,5741.8 Z " />
<path stroke="transparent" fill="#000000" transform="matrix(0.0833333 0 0 0.0833333 -244.208 -168)" d="M 6753.27,5753.37 L 6733.27,5741.8 L 6733.27,5153.37 L 6743.27,5147.58 L 6753.27,5154.01 L 6753.27,5753.37 Z " />
<path stroke="transparent" fill="#000000" transform="matrix(0.0833333 0 0 0.0833333 -244.208 -168)" d="M 7133.23,4853.13 L 7193.24,4957.05 L 6753.27,5154.01 L 6743.27,5147.58 L 6742.7,5135.72 L 7133.23,4853.13 Z " />
<path stroke="transparent" fill="#000000" transform="matrix(0.0833333 0 0 0.0833333 -244.208 -168)" d="M 5172.62,2442.54 L 5192.62,2454.08 L 5192.62,3042.52 L 5182.62,3048.31 L 5172.62,3042.54 L 5172.62,2442.54 Z " />
<path stroke="transparent" fill="#000000" transform="matrix(0.0833333 0 0 0.0833333 -244.208 -168)" d="M 3634.15,3941.82 L 3614.15,3953.35 L 3614.15,3337.58 L 3634.15,3357.58 L 3634.15,3941.82 Z " />
<path stroke="transparent" fill="#000000" transform="matrix(0.0833333 0 0 0.0833333 -244.208 -168)" d="M 3242.74,3051.15 L 3327.58,2966.28 L 3340.06,2982.09 L 3258.55,3063.63 L 3242.74,3051.15 Z " />
<path stroke="transparent" fill="#000000" transform="matrix(0.0833333 0 0 0.0833333 -244.208 -168)" d="M 3288.5,3087.27 L 3363.72,3012.03 L 3376.2,3027.83 L 3304.31,3099.75 L 3288.5,3087.27 Z " />
<path stroke="transparent" fill="#000000" transform="matrix(0.0833333 0 0 0.0833333 -244.208 -168)" d="M 3334.26,3123.39 L 3399.85,3057.78 L 3412.33,3073.58 L 3350.07,3135.86 L 3334.26,3123.39 Z " />
<path stroke="transparent" fill="#000000" transform="matrix(0.0833333 0 0 0.0833333 -244.208 -168)" d="M 3380.02,3159.5 L 3435.98,3103.52 L 3448.47,3119.32 L 3395.83,3171.98 L 3380.02,3159.5 Z " />
<path stroke="transparent" fill="#000000" transform="matrix(0.0833333 0 0 0.0833333 -244.208 -168)" d="M 3425.78,3195.62 L 3472.12,3149.27 L 3484.6,3165.07 L 3441.58,3208.1 L 3425.78,3195.62 Z " />
<path stroke="transparent" fill="#000000" transform="matrix(0.0833333 0 0 0.0833333 -244.208 -168)" d="M 3471.54,3231.74 L 3508.25,3195.01 L 3520.73,3210.82 L 3487.34,3244.22 L 3471.54,3231.74 Z " />
<path stroke="transparent" fill="#000000" transform="matrix(0.0833333 0 0 0.0833333 -244.208 -168)" d="M 3517.3,3267.86 L 3544.38,3240.76 L 3556.87,3256.56 L 3533.1,3280.34 L 3517.3,3267.86 Z " />
<path stroke="transparent" fill="#000000" transform="matrix(0.0833333 0 0 0.0833333 -244.208 -168)" d="M 3563.05,3303.98 L 3580.52,3286.51 L 3593,3302.31 L 3578.86,3316.45 L 3563.05,3303.98 Z " />
<path stroke="transparent" fill="#000000" transform="matrix(0.0833333 0 0 0.0833333 -244.208 -168)" d="M 4575.97,5085.52 L 4565.99,5102.84 L 4133.13,4853.36 L 4153.13,4841.8 L 4575.97,5085.52 Z " />
<path stroke="transparent" fill="#000000" transform="matrix(0.0833333 0 0 0.0833333 -244.208 -168)" d="M 6654.27,6885.46 L 6644.27,6902.78 L 6164.02,6625.55 L 6284.2,6671.84 L 6654.27,6885.46 Z " />
<path stroke="transparent" fill="#000000" transform="matrix(0.0833333 0 0 0.0833333 -244.208 -168)" d="M 7200.22,5942.15 L 7140.22,6046.07 L 7124.04,6034.09 L 7181.76,5934.12 L 7200.22,5942.15 Z " />
<path stroke="transparent" fill="#000000" transform="matrix(0.0833333 0 0 0.0833333 -244.208 -168)" d="M 7144.98,5918.12 L 7091.79,6010.23 L 7075.61,5998.26 L 7126.52,5910.09 L 7144.98,5918.12 Z " />
<path stroke="transparent" fill="#000000" transform="matrix(0.0833333 0 0 0.0833333 -244.208 -168)" d="M 7089.73,5894.09 L 7043.36,5974.4 L 7027.18,5962.42 L 7071.27,5886.06 L 7089.73,5894.09 Z " />
<path stroke="transparent" fill="#000000" transform="matrix(0.0833333 0 0 0.0833333 -244.208 -168)" d="M 7034.48,5870.06 L 6994.93,5938.56 L 6978.75,5926.59 L 7016.02,5862.04 L 7034.48,5870.06 Z " />
<path stroke="transparent" fill="#000000" transform="matrix(0.0833333 0 0 0.0833333 -244.208 -168)" d="M 6979.24,5846.04 L 6946.5,5902.73 L 6930.32,5890.75 L 6960.78,5838.01 L 6979.24,5846.04 Z " />
<path stroke="transparent" fill="#000000" transform="matrix(0.0833333 0 0 0.0833333 -244.208 -168)" d="M 6923.99,5822.01 L 6898.08,5866.89 L 6881.89,5854.92 L 6905.53,5813.98 L 6923.99,5822.01 Z " />
<path stroke="transparent" fill="#000000" transform="matrix(0.0833333 0 0 0.0833333 -244.208 -168)" d="M 6868.74,5797.98 L 6849.65,5831.05 L 6833.47,5819.08 L 6850.28,5789.95 L 6868.74,5797.98 Z " />
<path stroke="transparent" fill="#000000" transform="matrix(0.0833333 0 0 0.0833333 -244.208 -168)" d="M 6813.5,5773.95 L 6801.22,5795.22 L 6785.04,5783.25 L 6795.04,5765.93 L 6813.5,5773.95 Z " />
<path stroke="transparent" fill="#000000" transform="matrix(0.0833333 0 0 0.0833333 -244.208 -168)" d="M 5597.97,2196.52 L 5607.99,2213.83 L 5192.62,2454.08 L 5172.62,2442.54 L 5597.97,2196.52 Z " />
<path stroke="transparent" fill="#000000" transform="matrix(0.0833333 0 0 0.0833333 -244.208 -168)" d="M 4740.54,2245.3 L 4750.57,2227.99 L 5187.63,2481.25 L 5177.6,2498.56 L 4740.54,2245.3 Z " />
<path stroke="transparent" fill="#000000" transform="matrix(0.0833333 0 0 0.0833333 -244.208 -168)" d="M 4776.63,2183.02 L 4786.66,2165.72 L 5223.56,2418.88 L 5213.53,2436.19 L 4776.63,2183.02 Z " />
<path stroke="transparent" fill="#000000" transform="matrix(0.0833333 0 0 0.0833333 -244.208 -168)" d="M 6328.42,2497.76 L 6318.41,2515.08 L 5797.56,2214.05 L 5807.56,2196.73 L 6328.42,2497.76 Z " />
</svg>
