<?xml version="1.0" standalone="no" ?>
<!DOCTYPE svg PUBLIC "-//W3C//DTD SVG 1.1//EN" "http://www.w3.org/Graphics/SVG/1.1/DTD/svg11.dtd">
<svg width="404px" height="415px" viewBox="0 0 404 415" style="background-color: #ffffff00" xmlns="http://www.w3.org/2000/svg" xmlns:xlink="http://www.w3.org/1999/xlink" version="1.1" >
<path stroke="transparent" fill="#000000" transform="matrix(0.0833333 0 0 0.0833333 -264.208 -195)" d="M 6608.29,4798.52 L 6628.19,4800.61 L 6567.08,5382.01 L 6555.52,5396.28 L 6547.19,5379.92 L 6608.29,4798.52 Z " />
<path stroke="transparent" fill="#000000" transform="matrix(0.0833333 0 0 0.0833333 -264.208 -195)" d="M 6545.52,5402.05 L 6555.52,5396.28 L 6565.52,5403.54 L 6565.5,5989.02 L 6555.5,5996.28 L 6545.5,5990.51 L 6545.52,5402.05 Z " />
<path stroke="transparent" fill="#000000" transform="matrix(0.0833333 0 0 0.0833333 -264.208 -195)" d="M 6565.52,5403.54 L 6555.52,5396.28 L 6567.08,5382.01 L 7118.21,5202.92 L 7126.14,5210.86 L 7122.32,5222.61 L 6565.52,5403.54 Z " />
<path stroke="transparent" fill="#000000" transform="matrix(0.0833333 0 0 0.0833333 -264.208 -195)" d="M 6547.19,5379.92 L 6555.52,5396.28 L 6545.52,5402.05 L 6035.91,5107.82 L 6035.91,5096.28 L 6045.91,5090.5 L 6547.19,5379.92 Z " />
<path stroke="transparent" fill="#000000" transform="matrix(0.0833333 0 0 0.0833333 -264.208 -195)" d="M 4472.11,2404.98 L 4482.11,2387.66 L 4996.72,2684.77 L 4996.72,2696.32 L 4986.72,2702.09 L 4472.11,2404.98 Z " />
<path stroke="transparent" fill="#000000" transform="matrix(0.0833333 0 0 0.0833333 -264.208 -195)" d="M 5511.33,2387.63 L 5521.33,2404.95 L 5006.72,2702.09 L 4996.72,2696.32 L 4996.72,2684.77 L 5511.33,2387.63 Z " />
<path stroke="transparent" fill="#000000" transform="matrix(0.0833333 0 0 0.0833333 -264.208 -195)" d="M 4986.72,2702.09 L 4996.72,2696.32 L 5006.72,2702.09 L 5006.71,3290.52 L 4996.71,3296.29 L 4986.71,3290.52 L 4986.72,2702.09 Z " />
<path stroke="transparent" fill="#000000" transform="matrix(0.0833333 0 0 0.0833333 -264.208 -195)" d="M 4482.1,3604.98 L 4472.1,3587.66 L 4986.71,3290.52 L 4996.71,3296.29 L 4996.71,3307.84 L 4482.1,3604.98 Z " />
<path stroke="transparent" fill="#000000" transform="matrix(0.0833333 0 0 0.0833333 -264.208 -195)" d="M 4996.71,3307.84 L 4996.71,3296.29 L 5006.71,3290.52 L 5526.33,3590.52 L 5506.33,3602.07 L 4996.71,3307.84 Z " />
<path stroke="transparent" fill="#000000" transform="matrix(0.0833333 0 0 0.0833333 -264.208 -195)" d="M 4991.71,3388.09 L 5001.71,3370.77 L 5449.33,3629.2 L 5439.33,3646.52 L 4991.71,3388.09 Z " />
<path stroke="transparent" fill="#000000" transform="matrix(0.0833333 0 0 0.0833333 -264.208 -195)" d="M 5506.33,3602.07 L 5526.33,3590.52 L 5526.33,4190.55 L 5506.33,4202.09 L 5506.33,3602.07 Z " />
<path stroke="transparent" fill="#000000" transform="matrix(0.0833333 0 0 0.0833333 -264.208 -195)" d="M 5112.33,4482.66 L 5102.33,4465.34 L 5547.34,4208.45 L 5557.33,4225.77 L 5112.33,4482.66 Z " />
<path stroke="transparent" fill="#000000" transform="matrix(0.0833333 0 0 0.0833333 -264.208 -195)" d="M 5076.33,4420.31 L 5066.33,4402.99 L 5511.33,4146.09 L 5521.33,4163.41 L 5076.33,4420.31 Z " />
<path stroke="transparent" fill="#000000" transform="matrix(0.0833333 0 0 0.0833333 -264.208 -195)" d="M 5506.33,4202.09 L 5526.33,4190.55 L 5948.3,4434.17 L 5938.3,4451.49 L 5506.33,4202.09 Z " />
<path stroke="transparent" fill="#000000" transform="matrix(0.0833333 0 0 0.0833333 -264.208 -195)" d="M 6025.91,4616.13 L 6045.91,4616.13 L 6045.91,5090.5 L 6035.91,5096.28 L 6025.91,5090.5 L 6025.91,4616.13 Z " />
<path stroke="transparent" fill="#000000" transform="matrix(0.0833333 0 0 0.0833333 -264.208 -195)" d="M 6025.91,5090.5 L 6035.91,5096.28 L 6035.91,5107.82 L 5526.3,5402.08 L 5506.3,5390.53 L 6025.91,5090.5 Z " />
<path stroke="transparent" fill="#000000" transform="matrix(0.0833333 0 0 0.0833333 -264.208 -195)" d="M 5506.3,5390.53 L 5526.3,5402.08 L 5526.29,5990.5 L 5516.29,5996.28 L 5506.29,5990.5 L 5506.3,5390.53 Z " />
<path stroke="transparent" fill="#000000" transform="matrix(0.0833333 0 0 0.0833333 -264.208 -195)" d="M 5516.29,6007.82 L 5516.29,5996.28 L 5526.29,5990.5 L 6035.91,6284.73 L 6035.91,6296.28 L 6025.91,6302.05 L 5516.29,6007.82 Z " />
<path stroke="transparent" fill="#000000" transform="matrix(0.0833333 0 0 0.0833333 -264.208 -195)" d="M 5506.29,5990.5 L 5516.29,5996.28 L 5516.29,6007.82 L 5006.68,6302.08 L 4996.68,6296.3 L 5006.68,6278.98 L 5506.29,5990.5 Z " />
<path stroke="transparent" fill="#000000" transform="matrix(0.0833333 0 0 0.0833333 -264.208 -195)" d="M 4986.71,5696.3 L 5006.71,5696.3 L 5006.68,6278.98 L 4996.68,6296.3 L 4986.68,6278.98 L 4986.71,5696.3 Z " />
<path stroke="transparent" fill="#000000" transform="matrix(0.0833333 0 0 0.0833333 -264.208 -195)" d="M 4986.68,6302.08 L 4996.68,6296.3 L 5006.68,6302.08 L 5006.68,6890.51 L 4996.68,6896.28 L 4986.68,6890.51 L 4986.68,6302.08 Z " />
<path stroke="transparent" fill="#000000" transform="matrix(0.0833333 0 0 0.0833333 -264.208 -195)" d="M 4986.68,6278.98 L 4996.68,6296.3 L 4986.68,6302.08 L 4477.1,6007.87 L 4477.1,5984.78 L 4986.68,6278.98 Z " />
<path stroke="transparent" fill="#000000" transform="matrix(0.0833333 0 0 0.0833333 -264.208 -195)" d="M 4477.1,5984.78 L 4477.1,6007.87 L 3967.48,6302.07 L 3947.48,6290.52 L 4477.1,5984.78 Z " />
<path stroke="transparent" fill="#000000" transform="matrix(0.0833333 0 0 0.0833333 -264.208 -195)" d="M 3947.48,6290.52 L 3967.48,6302.07 L 3967.49,6890.55 L 3957.49,6896.33 L 3947.49,6890.55 L 3947.48,6290.52 Z " />
<path stroke="transparent" fill="#000000" transform="matrix(0.0833333 0 0 0.0833333 -264.208 -195)" d="M 3535.48,7151.5 L 3525.48,7134.17 L 3947.49,6890.55 L 3957.49,6896.33 L 3957.49,6907.87 L 3535.48,7151.5 Z " />
<path stroke="transparent" fill="#000000" transform="matrix(0.0833333 0 0 0.0833333 -264.208 -195)" d="M 3957.49,6907.87 L 3957.49,6896.33 L 3967.49,6890.55 L 4477.07,7184.76 L 4477.07,7207.85 L 3957.49,6907.87 Z " />
<path stroke="transparent" fill="#000000" transform="matrix(0.0833333 0 0 0.0833333 -264.208 -195)" d="M 4477.07,7207.85 L 4477.07,7184.76 L 4986.68,6890.51 L 4996.68,6896.28 L 4996.68,6907.83 L 4477.07,7207.85 Z " />
<path stroke="transparent" fill="#000000" transform="matrix(0.0833333 0 0 0.0833333 -264.208 -195)" d="M 4996.68,6907.83 L 4996.68,6896.28 L 5006.68,6890.51 L 5516.29,7184.73 L 5516.29,7207.83 L 4996.68,6907.83 Z " />
<path stroke="transparent" fill="#000000" transform="matrix(0.0833333 0 0 0.0833333 -264.208 -195)" d="M 5063.68,6863.37 L 5073.68,6846.05 L 5521.29,7104.48 L 5511.29,7121.8 L 5063.68,6863.37 Z " />
<path stroke="transparent" fill="#000000" transform="matrix(0.0833333 0 0 0.0833333 -264.208 -195)" d="M 5516.29,7207.83 L 5516.29,7184.73 L 6025.88,6890.51 L 6045.88,6902.06 L 5516.29,7207.83 Z " />
<path stroke="transparent" fill="#000000" transform="matrix(0.0833333 0 0 0.0833333 -264.208 -195)" d="M 6045.88,6902.06 L 6025.88,6890.51 L 6025.91,6302.05 L 6035.91,6296.28 L 6045.91,6320.42 L 6045.88,6902.06 Z " />
<path stroke="transparent" fill="#000000" transform="matrix(0.0833333 0 0 0.0833333 -264.208 -195)" d="M 6391.87,6638.1 L 6377.73,6652.24 L 6045.91,6320.42 L 6035.91,6296.28 L 6052.19,6298.42 L 6391.87,6638.1 Z " />
<path stroke="transparent" fill="#000000" transform="matrix(0.0833333 0 0 0.0833333 -264.208 -195)" d="M 6052.19,6298.42 L 6035.91,6296.28 L 6035.91,6284.73 L 6545.5,5990.51 L 6555.5,5996.28 L 6551.84,6009.94 L 6052.19,6298.42 Z " />
<path stroke="transparent" fill="#000000" transform="matrix(0.0833333 0 0 0.0833333 -264.208 -195)" d="M 6810.9,6418.66 L 6793.58,6428.66 L 6551.84,6009.94 L 6555.5,5996.28 L 6577.18,6013.84 L 6810.9,6418.66 Z " />
<path stroke="transparent" fill="#000000" transform="matrix(0.0833333 0 0 0.0833333 -264.208 -195)" d="M 6577.18,6013.84 L 6555.5,5996.28 L 6565.5,5989.02 L 7122.31,6169.94 L 7129.95,6193.45 L 6577.18,6013.84 Z " />
<path stroke="transparent" fill="#000000" transform="matrix(0.0833333 0 0 0.0833333 -264.208 -195)" d="M 7129.95,6193.45 L 7122.31,6169.94 L 7466.45,5696.26 L 7491.17,5696.26 L 7129.95,6193.45 Z " />
<path stroke="transparent" fill="#000000" transform="matrix(0.0833333 0 0 0.0833333 -264.208 -195)" d="M 7491.17,5696.26 L 7466.45,5696.26 L 7122.32,5222.61 L 7126.14,5210.86 L 7143.82,5218.18 L 7491.17,5696.26 Z " />
<path stroke="transparent" fill="#000000" transform="matrix(0.0833333 0 0 0.0833333 -264.208 -195)" d="M 7611.35,5123.88 L 7614.48,5143.63 L 7143.82,5218.18 L 7126.14,5210.86 L 7140.69,5198.43 L 7611.35,5123.88 Z " />
<path stroke="transparent" fill="#000000" transform="matrix(0.0833333 0 0 0.0833333 -264.208 -195)" d="M 7140.69,5198.43 L 7126.14,5210.86 L 7118.21,5202.92 L 7300.26,4642.62 L 7322.85,4637.82 L 7140.69,5198.43 Z " />
<path stroke="transparent" fill="#000000" transform="matrix(0.0833333 0 0 0.0833333 -264.208 -195)" d="M 7780.73,4493.48 L 7784.89,4513.04 L 7285.81,4619.11 L 7281.66,4599.55 L 7780.73,4493.48 Z " />
<path stroke="transparent" fill="#000000" transform="matrix(0.0833333 0 0 0.0833333 -264.208 -195)" d="M 7795.7,4563.9 L 7799.86,4583.46 L 7300.79,4689.53 L 7296.63,4669.97 L 7795.7,4563.9 Z " />
<path stroke="transparent" fill="#000000" transform="matrix(0.0833333 0 0 0.0833333 -264.208 -195)" d="M 7322.85,4637.82 L 7300.26,4642.62 L 6902.66,4201.06 L 6917.53,4187.68 L 7322.85,4637.82 Z " />
<text x="0" y="0" stroke="transparent" fill="#000000" transform="matrix(0.0833333 0 0 0.0833333 145.684 186.191)" style="font:normal normal normal 200px 'Arial'" >
O</text>
<text x="0" y="0" stroke="transparent" fill="#000000" transform="matrix(0.0833333 0 0 0.0833333 232.285 186.192)" style="font:normal normal normal 200px 'Arial'" >
O</text>
<text x="0" y="0" stroke="transparent" fill="#000000" transform="matrix(0.0833333 0 0 0.0833333 3.74413 411.192)" style="font:normal normal normal 200px 'Arial'" >
HO</text>
<text x="0" y="0" stroke="transparent" fill="#000000" transform="matrix(0.0833333 0 0 0.0833333 267.639 371.545)" style="font:normal normal normal 200px 'Arial'" >
OH</text>
<text x="0" y="0" stroke="transparent" fill="#000000" transform="matrix(0.0833333 0 0 0.0833333 300.583 354.492)" style="font:normal normal normal 200px 'Arial'" >
OH</text>
<text x="0" y="0" stroke="transparent" fill="#000000" transform="matrix(0.0833333 0 0 0.0833333 372.521 237.916)" style="font:normal normal normal 200px 'Arial'" >
OH</text>
<text x="0" y="0" stroke="transparent" fill="#000000" transform="matrix(0.0833333 0 0 0.0833333 387.494 187.791)" style="font:normal normal normal 200px 'Arial'" >
O</text>
</svg>
