<?xml version="1.0" standalone="no" ?>
<!DOCTYPE svg PUBLIC "-//W3C//DTD SVG 1.1//EN" "http://www.w3.org/Graphics/SVG/1.1/DTD/svg11.dtd">
<svg width="278px" height="177px" viewBox="0 0 278 177" style="background-color: #ffffff00" xmlns="http://www.w3.org/2000/svg" xmlns:xlink="http://www.w3.org/1999/xlink" version="1.1" >
<text x="0" y="0" stroke="transparent" fill="#000000" transform="matrix(0.0666667 0 0 0.0666667 220.425 14.0746)" style="font:normal normal normal 200px 'Arial'" >
O</text>
<text x="0" y="0" stroke="transparent" fill="#000000" transform="matrix(0.0666667 0 0 0.0666667 186.183 114.072)" style="font:normal normal normal 200px 'Arial'" >
NH</text>
<text x="0" y="0" stroke="transparent" fill="#000000" transform="matrix(0.0666667 0 0 0.0666667 205.441 117.005)" style="font:normal normal normal 150px 'Arial'" >
2</text>
<text x="0" y="0" stroke="transparent" fill="#000000" transform="matrix(0.0666667 0 0 0.0666667 255.061 74.0728)" style="font:normal normal normal 200px 'Arial'" >
OH</text>
<text x="0" y="0" stroke="transparent" fill="#000000" transform="matrix(0.0666667 0 0 0.0666667 2.95245 134.071)" style="font:normal normal normal 200px 'Arial'" >
HO</text>
<text x="0" y="0" stroke="transparent" fill="#000000" transform="matrix(0.0666667 0 0 0.0666667 81.8641 174.07)" style="font:normal normal normal 200px 'Arial'" >
OH</text>
<path stroke="transparent" fill="#000000" transform="matrix(0.0666667 0 0 0.0666667 -209.859 -177)" d="M 3924.22,3682.32 L 3944.22,3693.87 L 3944.22,4282.3 L 3934.22,4288.07 L 3924.22,4282.3 L 3924.22,3682.32 Z " />
<path stroke="transparent" fill="#000000" transform="matrix(0.0666667 0 0 0.0666667 -209.859 -177)" d="M 3996.22,3729.66 L 4016.22,3729.66 L 4016.22,4246.51 L 3996.22,4246.51 L 3996.22,3729.66 Z " />
<path stroke="transparent" fill="#000000" transform="matrix(0.0666667 0 0 0.0666667 -209.859 -177)" d="M 3924.22,4282.3 L 3934.22,4288.07 L 3934.22,4299.62 L 3512.21,4543.26 L 3502.21,4525.94 L 3924.22,4282.3 Z " />
<path stroke="transparent" fill="#000000" transform="matrix(0.0666667 0 0 0.0666667 -209.859 -177)" d="M 4983.46,3693.87 L 4973.46,3688.09 L 4973.46,3676.54 L 5493.01,3376.55 L 5493.01,3399.65 L 4983.46,3693.87 Z " />
<path stroke="transparent" fill="#000000" transform="matrix(0.0666667 0 0 0.0666667 -209.859 -177)" d="M 4963.46,3693.87 L 4973.46,3688.09 L 4983.46,3693.87 L 4983.46,4293.85 L 4963.46,4282.3 L 4963.46,3693.87 Z " />
<path stroke="transparent" fill="#000000" transform="matrix(0.0666667 0 0 0.0666667 -209.859 -177)" d="M 4453.84,3376.55 L 4453.84,3399.65 L 3944.22,3693.87 L 3924.22,3682.32 L 4453.84,3376.55 Z " />
<path stroke="transparent" fill="#000000" transform="matrix(0.0666667 0 0 0.0666667 -209.859 -177)" d="M 4973.46,3676.54 L 4973.46,3688.09 L 4963.46,3693.87 L 4453.84,3399.65 L 4453.84,3376.55 L 4973.46,3676.54 Z " />
<path stroke="transparent" fill="#000000" transform="matrix(0.0666667 0 0 0.0666667 -209.859 -177)" d="M 4906.46,3721 L 4896.46,3738.32 L 4448.84,3479.9 L 4458.84,3462.58 L 4906.46,3721 Z " />
<path stroke="transparent" fill="#000000" transform="matrix(0.0666667 0 0 0.0666667 -209.859 -177)" d="M 4453.84,4576.52 L 4453.84,4588.07 L 4443.84,4593.84 L 3934.22,4299.62 L 3934.22,4288.07 L 3944.22,4282.3 L 4453.84,4576.52 Z " />
<path stroke="transparent" fill="#000000" transform="matrix(0.0666667 0 0 0.0666667 -209.859 -177)" d="M 4963.46,4282.3 L 4983.46,4293.85 L 4463.84,4593.84 L 4453.84,4588.07 L 4453.84,4576.52 L 4963.46,4282.3 Z " />
<path stroke="transparent" fill="#000000" transform="matrix(0.0666667 0 0 0.0666667 -209.859 -177)" d="M 4896.46,4237.84 L 4906.46,4255.16 L 4458.84,4513.59 L 4448.84,4496.27 L 4896.46,4237.84 Z " />
<path stroke="transparent" fill="#000000" transform="matrix(0.0666667 0 0 0.0666667 -209.859 -177)" d="M 6486.25,2907.95 L 6506.25,2907.95 L 6506.25,3408.88 L 6486.25,3408.88 L 6486.25,2907.95 Z " />
<path stroke="transparent" fill="#000000" transform="matrix(0.0666667 0 0 0.0666667 -209.859 -177)" d="M 6558.25,2907.95 L 6578.25,2907.95 L 6578.25,3408.89 L 6558.25,3408.89 L 6558.25,2907.95 Z " />
<path stroke="transparent" fill="#000000" transform="matrix(0.0666667 0 0 0.0666667 -209.859 -177)" d="M 6023.18,3693.55 L 6012.63,3688.09 L 6012.63,3676.55 L 6532.25,3376.55 L 6532.25,3399.65 L 6023.18,3693.55 Z " />
<path stroke="transparent" fill="#000000" transform="matrix(0.0666667 0 0 0.0666667 -209.859 -177)" d="M 6532.25,3399.65 L 6532.25,3376.55 L 6964.18,3625.95 L 6954.18,3643.27 L 6532.25,3399.65 Z " />
<path stroke="transparent" fill="#000000" transform="matrix(0.0666667 0 0 0.0666667 -209.859 -177)" d="M 6072.63,4185.24 L 5952.63,4185.24 L 6002.08,3693.55 L 6012.63,3688.09 L 6023.18,3693.55 L 6072.63,4185.24 Z " />
<path stroke="transparent" fill="#000000" transform="matrix(0.0666667 0 0 0.0666667 -209.859 -177)" d="M 5493.01,3399.65 L 5493.01,3376.55 L 6012.63,3676.55 L 6012.63,3688.09 L 6002.08,3693.55 L 5493.01,3399.65 Z " />
<path stroke="transparent" fill="#000000" transform="matrix(0.0666667 0 0 0.0666667 -209.859 -177)" d="M 4463.84,5082.88 L 4443.84,5082.88 L 4443.84,4593.84 L 4453.84,4588.07 L 4463.84,4593.84 L 4463.84,5082.88 Z " />
</svg>
