<?xml version="1.0" standalone="no" ?>
<!DOCTYPE svg PUBLIC "-//W3C//DTD SVG 1.1//EN" "http://www.w3.org/Graphics/SVG/1.1/DTD/svg11.dtd">
<svg width="763px" height="439px" viewBox="0 0 763 439" style="background-color: #ffffff00" xmlns="http://www.w3.org/2000/svg" xmlns:xlink="http://www.w3.org/1999/xlink" version="1.1" >
<path stroke="transparent" fill="#000000" transform="matrix(0.0833333 0 0 0.0833333 -54.2083 -140)" d="M 9762,5012.53 L 9752.03,5029.87 L 9333.16,4788.97 L 9343.13,4771.64 L 9762,5012.53 Z " />
<path stroke="transparent" fill="#000000" transform="matrix(0.0833333 0 0 0.0833333 -54.2083 -140)" d="M 9133.36,4771.39 L 9143.34,4788.72 L 8729.05,5026.98 L 8719.05,5021.2 L 8719.05,5009.66 L 9133.36,4771.39 Z " />
<path stroke="transparent" fill="#000000" transform="matrix(0.0833333 0 0 0.0833333 -54.2083 -140)" d="M 8709.05,5026.99 L 8719.05,5021.2 L 8729.05,5026.98 L 8729.05,5626.96 L 8709.05,5615.44 L 8709.05,5026.99 Z " />
<path stroke="transparent" fill="#000000" transform="matrix(0.0833333 0 0 0.0833333 -54.2083 -140)" d="M 8719.05,5009.66 L 8719.05,5021.2 L 8709.05,5026.99 L 8199.99,4734.26 L 8200,4722.73 L 8210,4716.94 L 8719.05,5009.66 Z " />
<path stroke="transparent" fill="#000000" transform="matrix(0.0833333 0 0 0.0833333 -54.2083 -140)" d="M 8652.19,5054.1 L 8642.22,5071.44 L 8194.96,4814.25 L 8204.93,4796.91 L 8652.19,5054.1 Z " />
<path stroke="transparent" fill="#000000" transform="matrix(0.0833333 0 0 0.0833333 -54.2083 -140)" d="M 8190,4242.27 L 8210,4242.27 L 8210,4716.94 L 8200,4722.73 L 8190,4716.93 L 8190,4242.27 Z " />
<path stroke="transparent" fill="#000000" transform="matrix(0.0833333 0 0 0.0833333 -54.2083 -140)" d="M 8709.05,5615.44 L 8729.05,5626.96 L 8200,5934.29 L 8199.99,5911.17 L 8709.05,5615.44 Z " />
<path stroke="transparent" fill="#000000" transform="matrix(0.0833333 0 0 0.0833333 -54.2083 -140)" d="M 8641.99,5571.09 L 8652.04,5588.39 L 8204.97,5848.1 L 8194.92,5830.8 L 8641.99,5571.09 Z " />
<path stroke="transparent" fill="#000000" transform="matrix(0.0833333 0 0 0.0833333 -54.2083 -140)" d="M 8190,4716.93 L 8200,4722.73 L 8199.99,4734.26 L 7689.49,5026.99 L 7669.49,5015.41 L 8190,4716.93 Z " />
<path stroke="transparent" fill="#000000" transform="matrix(0.0833333 0 0 0.0833333 -54.2083 -140)" d="M 8199.99,5911.17 L 8200,5934.29 L 7679.49,5632.76 L 7679.49,5621.2 L 7689.49,5615.44 L 8199.99,5911.17 Z " />
<path stroke="transparent" fill="#000000" transform="matrix(0.0833333 0 0 0.0833333 -54.2083 -140)" d="M 7669.49,5015.41 L 7689.49,5026.99 L 7689.49,5615.44 L 7679.49,5621.2 L 7669.49,5615.44 L 7669.49,5015.41 Z " />
<path stroke="transparent" fill="#000000" transform="matrix(0.0833333 0 0 0.0833333 -54.2083 -140)" d="M 7741.49,5062.91 L 7761.49,5062.91 L 7761.49,5579.7 L 7741.49,5579.7 L 7741.49,5062.91 Z " />
<path stroke="transparent" fill="#000000" transform="matrix(0.0833333 0 0 0.0833333 -54.2083 -140)" d="M 7669.49,5615.44 L 7679.49,5621.2 L 7679.49,5632.76 L 7159.04,5934.29 L 7159.06,5911.17 L 7669.49,5615.44 Z " />
<path stroke="transparent" fill="#000000" transform="matrix(0.0833333 0 0 0.0833333 -54.2083 -140)" d="M 994.573,2436.43 L 1054.46,2332.44 L 1444.57,2614.14 L 1444,2626 L 1434,2632.43 L 994.573,2436.43 Z " />
<path stroke="transparent" fill="#000000" transform="matrix(0.0833333 0 0 0.0833333 -54.2083 -140)" d="M 7159.06,5911.17 L 7159.04,5934.29 L 6640,5632.77 L 6640,5609.63 L 7159.06,5911.17 Z " />
<path stroke="transparent" fill="#000000" transform="matrix(0.0833333 0 0 0.0833333 -54.2083 -140)" d="M 1905.09,1726.8 L 2025.09,1726.8 L 2023.26,1746.8 L 1906.92,1746.8 L 1905.09,1726.8 Z " />
<path stroke="transparent" fill="#000000" transform="matrix(0.0833333 0 0 0.0833333 -54.2083 -140)" d="M 1910.44,1785.24 L 2019.74,1785.24 L 2017.9,1805.24 L 1912.27,1805.24 L 1910.44,1785.24 Z " />
<path stroke="transparent" fill="#000000" transform="matrix(0.0833333 0 0 0.0833333 -54.2083 -140)" d="M 1915.79,1843.69 L 2014.38,1843.69 L 2012.55,1863.69 L 1917.62,1863.69 L 1915.79,1843.69 Z " />
<path stroke="transparent" fill="#000000" transform="matrix(0.0833333 0 0 0.0833333 -54.2083 -140)" d="M 1921.14,1902.13 L 2009.03,1902.13 L 2007.2,1922.13 L 1922.98,1922.13 L 1921.14,1902.13 Z " />
<path stroke="transparent" fill="#000000" transform="matrix(0.0833333 0 0 0.0833333 -54.2083 -140)" d="M 1926.5,1960.58 L 2003.68,1960.58 L 2001.85,1980.58 L 1928.33,1980.58 L 1926.5,1960.58 Z " />
<path stroke="transparent" fill="#000000" transform="matrix(0.0833333 0 0 0.0833333 -54.2083 -140)" d="M 1931.85,2019.02 L 1998.33,2019.02 L 1996.5,2039.02 L 1933.68,2039.02 L 1931.85,2019.02 Z " />
<path stroke="transparent" fill="#000000" transform="matrix(0.0833333 0 0 0.0833333 -54.2083 -140)" d="M 1937.2,2077.47 L 1992.98,2077.47 L 1991.14,2097.47 L 1939.03,2097.47 L 1937.2,2077.47 Z " />
<path stroke="transparent" fill="#000000" transform="matrix(0.0833333 0 0 0.0833333 -54.2083 -140)" d="M 1942.55,2135.91 L 1987.62,2135.91 L 1985.79,2155.91 L 1944.38,2155.91 L 1942.55,2135.91 Z " />
<path stroke="transparent" fill="#000000" transform="matrix(0.0833333 0 0 0.0833333 -54.2083 -140)" d="M 1947.9,2194.36 L 1982.27,2194.36 L 1980.44,2214.36 L 1949.74,2214.36 L 1947.9,2194.36 Z " />
<path stroke="transparent" fill="#000000" transform="matrix(0.0833333 0 0 0.0833333 -54.2083 -140)" d="M 1953.26,2252.8 L 1976.92,2252.8 L 1975.09,2272.8 L 1955.09,2272.8 L 1953.26,2252.8 Z " />
<path stroke="transparent" fill="#000000" transform="matrix(0.0833333 0 0 0.0833333 -54.2083 -140)" d="M 1454,2631.79 L 1444,2626 L 1444.57,2614.14 L 1965.1,2315.26 L 1965.07,2338.34 L 1454,2631.79 Z " />
<path stroke="transparent" fill="#000000" transform="matrix(0.0833333 0 0 0.0833333 -54.2083 -140)" d="M 1434,2632.43 L 1444,2626 L 1454,2631.79 L 1454,3220.23 L 1434,3231.77 L 1434,2632.43 Z " />
<path stroke="transparent" fill="#000000" transform="matrix(0.0833333 0 0 0.0833333 -54.2083 -140)" d="M 1047.04,3525.15 L 986.919,3421.3 L 1005.37,3413.24 L 1063.21,3513.16 L 1047.04,3525.15 Z " />
<path stroke="transparent" fill="#000000" transform="matrix(0.0833333 0 0 0.0833333 -54.2083 -140)" d="M 1095.48,3489.23 L 1042.18,3397.18 L 1060.63,3389.13 L 1111.64,3477.24 L 1095.48,3489.23 Z " />
<path stroke="transparent" fill="#000000" transform="matrix(0.0833333 0 0 0.0833333 -54.2083 -140)" d="M 1143.91,3453.31 L 1097.45,3373.06 L 1115.9,3365.01 L 1160.08,3441.32 L 1143.91,3453.31 Z " />
<path stroke="transparent" fill="#000000" transform="matrix(0.0833333 0 0 0.0833333 -54.2083 -140)" d="M 1192.34,3417.39 L 1152.71,3348.94 L 1171.16,3340.89 L 1208.51,3405.4 L 1192.34,3417.39 Z " />
<path stroke="transparent" fill="#000000" transform="matrix(0.0833333 0 0 0.0833333 -54.2083 -140)" d="M 1240.77,3381.48 L 1207.97,3324.83 L 1226.42,3316.78 L 1256.94,3369.49 L 1240.77,3381.48 Z " />
<path stroke="transparent" fill="#000000" transform="matrix(0.0833333 0 0 0.0833333 -54.2083 -140)" d="M 1289.2,3345.56 L 1263.24,3300.71 L 1281.69,3292.66 L 1305.37,3333.57 L 1289.2,3345.56 Z " />
<path stroke="transparent" fill="#000000" transform="matrix(0.0833333 0 0 0.0833333 -54.2083 -140)" d="M 1337.64,3309.64 L 1318.5,3276.59 L 1336.95,3268.54 L 1353.8,3297.65 L 1337.64,3309.64 Z " />
<path stroke="transparent" fill="#000000" transform="matrix(0.0833333 0 0 0.0833333 -54.2083 -140)" d="M 1386.07,3273.72 L 1373.77,3252.48 L 1392.21,3244.43 L 1402.24,3261.73 L 1386.07,3273.72 Z " />
<path stroke="transparent" fill="#000000" transform="matrix(0.0833333 0 0 0.0833333 -54.2083 -140)" d="M 6167.01,6417.56 L 6147.01,6417.56 L 6147.01,5901.81 L 6167.01,5901.81 L 6167.01,6417.56 Z " />
<path stroke="transparent" fill="#000000" transform="matrix(0.0833333 0 0 0.0833333 -54.2083 -140)" d="M 6095.01,6417.56 L 6075.01,6417.56 L 6075.01,5901.87 L 6095.01,5901.87 L 6095.01,6417.56 Z " />
<path stroke="transparent" fill="#000000" transform="matrix(0.0833333 0 0 0.0833333 -54.2083 -140)" d="M 6640,5609.63 L 6640,5632.77 L 6121.02,5934.29 L 6121.01,5911.17 L 6640,5609.63 Z " />
<path stroke="transparent" fill="#000000" transform="matrix(0.0833333 0 0 0.0833333 -54.2083 -140)" d="M 1965.07,2338.34 L 1965.1,2315.26 L 2395.58,2563.86 L 2385.58,2581.18 L 1965.07,2338.34 Z " />
<path stroke="transparent" fill="#000000" transform="matrix(0.0833333 0 0 0.0833333 -54.2083 -140)" d="M 1434,3231.77 L 1454,3220.23 L 1965.07,3515.25 L 1965.1,3538.36 L 1434,3231.77 Z " />
<path stroke="transparent" fill="#000000" transform="matrix(0.0833333 0 0 0.0833333 -54.2083 -140)" d="M 2025.09,4021.63 L 1905.09,4021.63 L 1907.36,4001.63 L 2022.82,4001.63 L 2025.09,4021.63 Z " />
<path stroke="transparent" fill="#000000" transform="matrix(0.0833333 0 0 0.0833333 -54.2083 -140)" d="M 2018.27,3961.53 L 1911.91,3961.53 L 1914.18,3941.53 L 2016,3941.53 L 2018.27,3961.53 Z " />
<path stroke="transparent" fill="#000000" transform="matrix(0.0833333 0 0 0.0833333 -54.2083 -140)" d="M 2011.45,3901.42 L 1918.73,3901.42 L 1920.99,3881.42 L 2009.18,3881.42 L 2011.45,3901.42 Z " />
<path stroke="transparent" fill="#000000" transform="matrix(0.0833333 0 0 0.0833333 -54.2083 -140)" d="M 2004.63,3841.32 L 1925.54,3841.32 L 1927.81,3821.32 L 2002.36,3821.32 L 2004.63,3841.32 Z " />
<path stroke="transparent" fill="#000000" transform="matrix(0.0833333 0 0 0.0833333 -54.2083 -140)" d="M 1997.81,3781.21 L 1932.36,3781.21 L 1934.63,3761.21 L 1995.54,3761.21 L 1997.81,3781.21 Z " />
<path stroke="transparent" fill="#000000" transform="matrix(0.0833333 0 0 0.0833333 -54.2083 -140)" d="M 1990.99,3721.1 L 1939.18,3721.1 L 1941.45,3701.1 L 1988.73,3701.1 L 1990.99,3721.1 Z " />
<path stroke="transparent" fill="#000000" transform="matrix(0.0833333 0 0 0.0833333 -54.2083 -140)" d="M 1984.18,3661 L 1946,3661 L 1948.27,3641 L 1981.91,3641 L 1984.18,3661 Z " />
<path stroke="transparent" fill="#000000" transform="matrix(0.0833333 0 0 0.0833333 -54.2083 -140)" d="M 1977.36,3600.89 L 1952.82,3600.89 L 1955.09,3580.89 L 1975.09,3580.89 L 1977.36,3600.89 Z " />
<path stroke="transparent" fill="#000000" transform="matrix(0.0833333 0 0 0.0833333 -54.2083 -140)" d="M 6121.01,5911.17 L 6121.02,5934.29 L 5600.51,5632.76 L 5600.51,5621.2 L 5610.51,5615.44 L 6121.01,5911.17 Z " />
<path stroke="transparent" fill="#000000" transform="matrix(0.0833333 0 0 0.0833333 -54.2083 -140)" d="M 2580.91,6776.61 L 2570.94,6759.27 L 2997.85,6514.06 L 3007.81,6531.4 L 2580.91,6776.61 Z " />
<path stroke="transparent" fill="#000000" transform="matrix(0.0833333 0 0 0.0833333 -54.2083 -140)" d="M 2086.24,5920.94 L 2026.01,5817.16 L 2473.2,5614.8 L 2483.2,5621.2 L 2483.75,5633.08 L 2086.24,5920.94 Z " />
<path stroke="transparent" fill="#000000" transform="matrix(0.0833333 0 0 0.0833333 -54.2083 -140)" d="M 2863.48,2937.8 L 2923.36,3041.79 L 2904.84,3049.71 L 2847.34,2949.85 L 2863.48,2937.8 Z " />
<path stroke="transparent" fill="#000000" transform="matrix(0.0833333 0 0 0.0833333 -54.2083 -140)" d="M 2817.44,2972.16 L 2870.53,3064.37 L 2852.01,3072.28 L 2801.3,2984.21 L 2817.44,2972.16 Z " />
<path stroke="transparent" fill="#000000" transform="matrix(0.0833333 0 0 0.0833333 -54.2083 -140)" d="M 2771.4,3006.52 L 2817.7,3086.94 L 2799.18,3094.85 L 2755.26,3018.57 L 2771.4,3006.52 Z " />
<path stroke="transparent" fill="#000000" transform="matrix(0.0833333 0 0 0.0833333 -54.2083 -140)" d="M 2725.35,3040.88 L 2764.87,3109.51 L 2746.35,3117.42 L 2709.21,3052.93 L 2725.35,3040.88 Z " />
<path stroke="transparent" fill="#000000" transform="matrix(0.0833333 0 0 0.0833333 -54.2083 -140)" d="M 2679.31,3075.24 L 2712.04,3132.08 L 2693.51,3139.99 L 2663.17,3087.29 L 2679.31,3075.24 Z " />
<path stroke="transparent" fill="#000000" transform="matrix(0.0833333 0 0 0.0833333 -54.2083 -140)" d="M 2633.27,3109.6 L 2659.21,3154.65 L 2640.68,3162.56 L 2617.13,3121.65 L 2633.27,3109.6 Z " />
<path stroke="transparent" fill="#000000" transform="matrix(0.0833333 0 0 0.0833333 -54.2083 -140)" d="M 2587.23,3143.96 L 2606.37,3177.22 L 2587.85,3185.13 L 2571.08,3156.01 L 2587.23,3143.96 Z " />
<path stroke="transparent" fill="#000000" transform="matrix(0.0833333 0 0 0.0833333 -54.2083 -140)" d="M 2541.18,3178.32 L 2553.54,3199.79 L 2535.02,3207.7 L 2525.04,3190.37 L 2541.18,3178.32 Z " />
<path stroke="transparent" fill="#000000" transform="matrix(0.0833333 0 0 0.0833333 -54.2083 -140)" d="M 2473.2,2745.83 L 2493.2,2745.83 L 2493.2,3220.23 L 2483.2,3226 L 2473.2,3220.24 L 2473.2,2745.83 Z " />
<path stroke="transparent" fill="#000000" transform="matrix(0.0833333 0 0 0.0833333 -54.2083 -140)" d="M 1965.1,3538.36 L 1965.07,3515.25 L 2473.2,3220.24 L 2483.2,3226 L 2483.2,3237.56 L 1965.1,3538.36 Z " />
<path stroke="transparent" fill="#000000" transform="matrix(0.0833333 0 0 0.0833333 -54.2083 -140)" d="M 6016.3,4771.25 L 6026.25,4788.6 L 5610.51,5026.99 L 5600.51,5021.2 L 5600.51,5009.67 L 6016.3,4771.25 Z " />
<path stroke="transparent" fill="#000000" transform="matrix(0.0833333 0 0 0.0833333 -54.2083 -140)" d="M 5610.51,5615.44 L 5600.51,5621.2 L 5590.51,5615.44 L 5590.51,5026.99 L 5600.51,5021.2 L 5610.51,5026.99 L 5610.51,5615.44 Z " />
<path stroke="transparent" fill="#000000" transform="matrix(0.0833333 0 0 0.0833333 -54.2083 -140)" d="M 5590.51,5615.44 L 5600.51,5621.2 L 5600.51,5632.76 L 5091.23,5928.48 L 5081.23,5922.73 L 5081.23,5911.16 L 5590.51,5615.44 Z " />
<path stroke="transparent" fill="#000000" transform="matrix(0.0833333 0 0 0.0833333 -54.2083 -140)" d="M 5523.43,5571.07 L 5533.47,5588.37 L 5086.24,5848.06 L 5076.2,5830.76 L 5523.43,5571.07 Z " />
<path stroke="transparent" fill="#000000" transform="matrix(0.0833333 0 0 0.0833333 -54.2083 -140)" d="M 5091.23,6417.56 L 5071.23,6417.56 L 5071.23,5928.49 L 5081.23,5922.73 L 5091.23,5928.48 L 5091.23,6417.56 Z " />
<path stroke="transparent" fill="#000000" transform="matrix(0.0833333 0 0 0.0833333 -54.2083 -140)" d="M 3062.83,6468.73 L 2942.83,6468.73 L 2944.87,6448.73 L 3060.8,6448.73 L 3062.83,6468.73 Z " />
<path stroke="transparent" fill="#000000" transform="matrix(0.0833333 0 0 0.0833333 -54.2083 -140)" d="M 3056.84,6409.73 L 2948.83,6409.73 L 2950.86,6389.73 L 3054.8,6389.73 L 3056.84,6409.73 Z " />
<path stroke="transparent" fill="#000000" transform="matrix(0.0833333 0 0 0.0833333 -54.2083 -140)" d="M 3050.84,6350.73 L 2954.83,6350.73 L 2956.86,6330.73 L 3048.81,6330.73 L 3050.84,6350.73 Z " />
<path stroke="transparent" fill="#000000" transform="matrix(0.0833333 0 0 0.0833333 -54.2083 -140)" d="M 3044.85,6291.73 L 2960.82,6291.73 L 2962.85,6271.73 L 3042.81,6271.73 L 3044.85,6291.73 Z " />
<path stroke="transparent" fill="#000000" transform="matrix(0.0833333 0 0 0.0833333 -54.2083 -140)" d="M 3038.85,6232.73 L 2966.82,6232.73 L 2968.85,6212.73 L 3036.82,6212.73 L 3038.85,6232.73 Z " />
<path stroke="transparent" fill="#000000" transform="matrix(0.0833333 0 0 0.0833333 -54.2083 -140)" d="M 3032.85,6173.73 L 2972.81,6173.73 L 2974.85,6153.73 L 3030.82,6153.73 L 3032.85,6173.73 Z " />
<path stroke="transparent" fill="#000000" transform="matrix(0.0833333 0 0 0.0833333 -54.2083 -140)" d="M 3026.86,6114.73 L 2978.81,6114.73 L 2980.84,6094.73 L 3024.83,6094.73 L 3026.86,6114.73 Z " />
<path stroke="transparent" fill="#000000" transform="matrix(0.0833333 0 0 0.0833333 -54.2083 -140)" d="M 3020.86,6055.73 L 2984.8,6055.73 L 2986.84,6035.73 L 3018.83,6035.73 L 3020.86,6055.73 Z " />
<path stroke="transparent" fill="#000000" transform="matrix(0.0833333 0 0 0.0833333 -54.2083 -140)" d="M 3014.87,5996.73 L 2990.8,5996.73 L 2992.83,5976.73 L 3012.83,5976.73 L 3014.87,5996.73 Z " />
<path stroke="transparent" fill="#000000" transform="matrix(0.0833333 0 0 0.0833333 -54.2083 -140)" d="M 2483.75,5633.08 L 2483.2,5621.2 L 2493.2,5615.44 L 3002.83,5911.17 L 3002.83,5934.29 L 2483.75,5633.08 Z " />
<path stroke="transparent" fill="#000000" transform="matrix(0.0833333 0 0 0.0833333 -54.2083 -140)" d="M 2493.2,5615.44 L 2483.2,5621.2 L 2473.2,5614.8 L 2473.2,5015.41 L 2493.2,5026.99 L 2493.2,5615.44 Z " />
<path stroke="transparent" fill="#000000" transform="matrix(0.0833333 0 0 0.0833333 -54.2083 -140)" d="M 2033.88,4832.28 L 2093.65,4728.22 L 2109.83,4740.2 L 2052.38,4840.22 L 2033.88,4832.28 Z " />
<path stroke="transparent" fill="#000000" transform="matrix(0.0833333 0 0 0.0833333 -54.2083 -140)" d="M 2088.01,4855.52 L 2141,4763.28 L 2157.18,4775.26 L 2106.51,4863.46 L 2088.01,4855.52 Z " />
<path stroke="transparent" fill="#000000" transform="matrix(0.0833333 0 0 0.0833333 -54.2083 -140)" d="M 2142.15,4878.77 L 2188.35,4798.33 L 2204.53,4810.31 L 2160.65,4886.71 L 2142.15,4878.77 Z " />
<path stroke="transparent" fill="#000000" transform="matrix(0.0833333 0 0 0.0833333 -54.2083 -140)" d="M 2196.28,4902.01 L 2235.7,4833.39 L 2251.89,4845.37 L 2214.78,4909.95 L 2196.28,4902.01 Z " />
<path stroke="transparent" fill="#000000" transform="matrix(0.0833333 0 0 0.0833333 -54.2083 -140)" d="M 2250.42,4925.25 L 2283.05,4868.44 L 2299.24,4880.42 L 2268.92,4933.2 L 2250.42,4925.25 Z " />
<path stroke="transparent" fill="#000000" transform="matrix(0.0833333 0 0 0.0833333 -54.2083 -140)" d="M 2304.55,4948.5 L 2330.4,4903.5 L 2346.59,4915.48 L 2323.05,4956.44 L 2304.55,4948.5 Z " />
<path stroke="transparent" fill="#000000" transform="matrix(0.0833333 0 0 0.0833333 -54.2083 -140)" d="M 2358.69,4971.74 L 2377.75,4938.55 L 2393.94,4950.54 L 2377.19,4979.69 L 2358.69,4971.74 Z " />
<path stroke="transparent" fill="#000000" transform="matrix(0.0833333 0 0 0.0833333 -54.2083 -140)" d="M 2412.82,4994.99 L 2425.1,4973.61 L 2441.29,4985.59 L 2431.32,5002.93 L 2412.82,4994.99 Z " />
<path stroke="transparent" fill="#000000" transform="matrix(0.0833333 0 0 0.0833333 -54.2083 -140)" d="M 2483.2,3237.56 L 2483.2,3226 L 2493.2,3220.23 L 2915.28,3464.57 L 2905.26,3481.88 L 2483.2,3237.56 Z " />
<path stroke="transparent" fill="#000000" transform="matrix(0.0833333 0 0 0.0833333 -54.2083 -140)" d="M 5600.51,5009.67 L 5600.51,5021.2 L 5590.51,5026.99 L 5081.23,4734.26 L 5081.23,4711.19 L 5600.51,5009.67 Z " />
<path stroke="transparent" fill="#000000" transform="matrix(0.0833333 0 0 0.0833333 -54.2083 -140)" d="M 5533.62,5054.12 L 5523.65,5071.46 L 5076.24,4814.29 L 5086.2,4796.95 L 5533.62,5054.12 Z " />
<path stroke="transparent" fill="#000000" transform="matrix(0.0833333 0 0 0.0833333 -54.2083 -140)" d="M 5081.23,5911.16 L 5081.23,5922.73 L 5071.23,5928.49 L 4551.6,5626.96 L 4571.6,5615.44 L 5081.23,5911.16 Z " />
<path stroke="transparent" fill="#000000" transform="matrix(0.0833333 0 0 0.0833333 -54.2083 -140)" d="M 3002.83,5934.29 L 3002.83,5911.17 L 3417.88,5670.29 L 3427.92,5687.59 L 3002.83,5934.29 Z " />
<path stroke="transparent" fill="#000000" transform="matrix(0.0833333 0 0 0.0833333 -54.2083 -140)" d="M 2493.2,5026.99 L 2473.2,5015.41 L 2992.57,4717.09 L 3002.83,4722.73 L 3002.83,4734.26 L 2493.2,5026.99 Z " />
<path stroke="transparent" fill="#000000" transform="matrix(0.0833333 0 0 0.0833333 -54.2083 -140)" d="M 2942.83,3646.63 L 3062.83,3646.63 L 3013.1,4717.09 L 3002.83,4722.73 L 2992.57,4717.09 L 2942.83,3646.63 Z " />
<path stroke="transparent" fill="#000000" transform="matrix(0.0833333 0 0 0.0833333 -54.2083 -140)" d="M 5081.23,4711.19 L 5081.23,4734.26 L 4571.6,5026.99 L 4561.6,5021.2 L 4561.6,5009.67 L 5081.23,4711.19 Z " />
<path stroke="transparent" fill="#000000" transform="matrix(0.0833333 0 0 0.0833333 -54.2083 -140)" d="M 4571.6,5615.44 L 4551.6,5626.96 L 4551.6,5026.99 L 4561.6,5021.2 L 4571.6,5026.99 L 4571.6,5615.44 Z " />
<path stroke="transparent" fill="#000000" transform="matrix(0.0833333 0 0 0.0833333 -54.2083 -140)" d="M 4643.6,5579.74 L 4623.6,5579.74 L 4623.6,5062.88 L 4643.6,5062.88 L 4643.6,5579.74 Z " />
<path stroke="transparent" fill="#000000" transform="matrix(0.0833333 0 0 0.0833333 -54.2083 -140)" d="M 3532.4,5516.03 L 3512.4,5516.03 L 3512.4,5026.99 L 3532.4,5015.41 L 3532.4,5516.03 Z " />
<path stroke="transparent" fill="#000000" transform="matrix(0.0833333 0 0 0.0833333 -54.2083 -140)" d="M 3002.83,4734.26 L 3002.83,4722.73 L 3013.1,4717.09 L 3532.4,5015.41 L 3512.4,5026.99 L 3002.83,4734.26 Z " />
<path stroke="transparent" fill="#000000" transform="matrix(0.0833333 0 0 0.0833333 -54.2083 -140)" d="M 4561.6,5009.67 L 4561.6,5021.2 L 4551.6,5026.99 L 4137.19,4788.92 L 4147.15,4771.58 L 4561.6,5009.67 Z " />
<path stroke="transparent" fill="#000000" transform="matrix(0.0833333 0 0 0.0833333 -54.2083 -140)" d="M 3912.44,4727.97 L 3972.21,4832.03 L 3953.71,4839.97 L 3896.26,4739.95 L 3912.44,4727.97 Z " />
<path stroke="transparent" fill="#000000" transform="matrix(0.0833333 0 0 0.0833333 -54.2083 -140)" d="M 3865.01,4763.07 L 3918,4855.31 L 3899.5,4863.26 L 3848.83,4775.04 L 3865.01,4763.07 Z " />
<path stroke="transparent" fill="#000000" transform="matrix(0.0833333 0 0 0.0833333 -54.2083 -140)" d="M 3817.59,4798.16 L 3863.79,4878.59 L 3845.29,4886.54 L 3801.4,4810.14 L 3817.59,4798.16 Z " />
<path stroke="transparent" fill="#000000" transform="matrix(0.0833333 0 0 0.0833333 -54.2083 -140)" d="M 3770.16,4833.26 L 3809.58,4901.88 L 3791.08,4909.82 L 3753.98,4845.23 L 3770.16,4833.26 Z " />
<path stroke="transparent" fill="#000000" transform="matrix(0.0833333 0 0 0.0833333 -54.2083 -140)" d="M 3722.73,4868.35 L 3755.36,4925.16 L 3736.86,4933.11 L 3706.55,4880.33 L 3722.73,4868.35 Z " />
<path stroke="transparent" fill="#000000" transform="matrix(0.0833333 0 0 0.0833333 -54.2083 -140)" d="M 3675.31,4903.45 L 3701.15,4948.45 L 3682.65,4956.39 L 3659.12,4915.43 L 3675.31,4903.45 Z " />
<path stroke="transparent" fill="#000000" transform="matrix(0.0833333 0 0 0.0833333 -54.2083 -140)" d="M 3627.88,4938.55 L 3646.94,4971.73 L 3628.44,4979.68 L 3611.69,4950.52 L 3627.88,4938.55 Z " />
<path stroke="transparent" fill="#000000" transform="matrix(0.0833333 0 0 0.0833333 -54.2083 -140)" d="M 3580.45,4973.64 L 3592.73,4995.01 L 3574.23,5002.96 L 3564.27,4985.62 L 3580.45,4973.64 Z " />
<text x="0" y="0" stroke="transparent" fill="#000000" transform="matrix(0.0833333 0 0 0.0833333 190.028 110.4)" style="font:normal normal normal 200px 'Arial'" >
H</text>
<text x="0" y="0" stroke="transparent" fill="#000000" transform="matrix(0.0833333 0 0 0.0833333 709.128 260.061)" style="font:normal normal normal 200px 'Arial'" >
O</text>
<text x="0" y="0" stroke="transparent" fill="#000000" transform="matrix(0.0833333 0 0 0.0833333 622.625 210.036)" style="font:normal normal normal 200px 'Arial'" >
OH</text>
<text x="0" y="0" stroke="transparent" fill="#000000" transform="matrix(0.0833333 0 0 0.0833333 4.29172 60.4)" style="font:normal normal normal 200px 'Arial'" >
HO</text>
<text x="0" y="0" stroke="transparent" fill="#000000" transform="matrix(0.0833333 0 0 0.0833333 4.29172 160.4)" style="font:normal normal normal 200px 'Arial'" >
HO</text>
<text x="0" y="0" stroke="transparent" fill="#000000" transform="matrix(0.0833333 0 0 0.0833333 449.376 410.061)" style="font:normal normal normal 200px 'Arial'" >
O</text>
<text x="0" y="0" stroke="transparent" fill="#000000" transform="matrix(0.0833333 0 0 0.0833333 103.049 210.4)" style="font:normal normal normal 200px 'Arial'" >
OH</text>
<text x="0" y="0" stroke="transparent" fill="#000000" transform="matrix(0.0833333 0 0 0.0833333 134.189 434.933)" style="font:normal normal normal 200px 'Arial'" >
HO</text>
<text x="0" y="0" stroke="transparent" fill="#000000" transform="matrix(0.0833333 0 0 0.0833333 90.8917 360.061)" style="font:normal normal normal 200px 'Arial'" >
HO</text>
<text x="0" y="0" stroke="transparent" fill="#000000" transform="matrix(0.0833333 0 0 0.0833333 146.225 85.3334)" style="font:normal normal normal 200px 'Arial'" >
O</text>
<text x="0" y="0" stroke="transparent" fill="#000000" transform="matrix(0.0833333 0 0 0.0833333 449.376 260.061)" style="font:normal normal normal 200px 'Arial'" >
OH</text>
<text x="0" y="0" stroke="transparent" fill="#000000" transform="matrix(0.0833333 0 0 0.0833333 362.728 410.061)" style="font:normal normal normal 200px 'Arial'" >
OH</text>
<text x="0" y="0" stroke="transparent" fill="#000000" transform="matrix(0.0833333 0 0 0.0833333 90.8917 260.061)" style="font:normal normal normal 200px 'Arial'" >
HO</text>
<text x="0" y="0" stroke="transparent" fill="#000000" transform="matrix(0.0833333 0 0 0.0833333 189.528 160.4)" style="font:normal normal normal 200px 'Arial'" >
O</text>
<text x="0" y="0" stroke="transparent" fill="#000000" transform="matrix(0.0833333 0 0 0.0833333 232.825 334.933)" style="font:normal normal normal 200px 'Arial'" >
O</text>
<text x="0" y="0" stroke="transparent" fill="#000000" transform="matrix(0.0833333 0 0 0.0833333 276.128 260.061)" style="font:normal normal normal 200px 'Arial'" >
O</text>
</svg>
