<?xml version="1.0" standalone="no"?><!DOCTYPE svg PUBLIC "-//W3C//DTD SVG 1.1//EN" "http://www.w3.org/Graphics/SVG/1.1/DTD/svg11.dtd"><svg t="1733313364813" class="icon" viewBox="0 0 1024 1024" version="1.1" xmlns="http://www.w3.org/2000/svg" p-id="5325" xmlns:xlink="http://www.w3.org/1999/xlink" width="16" height="16"><path d="M450.818 667.636l-133.66-133.66-43.32 43.32 133.66 133.66c-16.32 34.16-10.332 76.312 17.962 104.606 35.888 35.888 94.074 35.888 129.962 0 35.888-35.888 35.888-94.074 0-129.962-28.292-28.294-70.444-34.28-104.604-17.964z m165.888-353.96c16.32-34.16 10.33-76.312-17.962-104.606-35.888-35.888-94.076-35.888-129.964 0-35.888 35.888-35.888 94.074 0 129.962 28.294 28.294 70.446 34.28 104.606 17.964l133.66 133.66 43.32-43.32-133.66-133.66z m342.58 197.966c0 247.218-200.406 447.642-447.644 447.644C264.424 959.286 64 758.86 64 511.64 64 264.416 264.424 64 511.642 64c247.238 0 447.644 200.416 447.644 447.642zM447.12 404.014l-43.32 43.32 173.282 173.284 43.32-43.32-173.28-173.284z m303.246 43.32l-43.32 43.32c23.926 23.928 23.926 62.718 0 86.644-23.926 23.924-62.716 23.924-86.642 0l-43.32 43.32c47.85 47.852 125.432 47.852 173.282 0 47.852-47.85 47.852-125.432 0-173.284zM273.836 577.3l43.32-43.32c-23.924-23.926-23.924-62.718 0-86.644 23.928-23.924 62.718-23.924 86.644 0l43.32-43.32c-47.85-47.852-125.432-47.852-173.284 0-47.85 47.85-47.85 125.432 0 173.284z" fill="#3d77e6" p-id="5326"></path></svg>